{
  "Lemon": {
    "config": {
      "mode_idx": 0,
      "active_motors": [
        0,
        1,
        2,
        3
      ],
      "transpose": 0,
      "arp_speed_ms": 10,
      "gate_time": 100
    },
    "sustain_multiplier": 1.0,
    "notes": [
      {
        "id": "M_0",
        "pitch": 84,
        "t_note_us": 2441859,
        "t_trigger_us": 2305896,
        "is_ai": true,
        "track_id": 3,
        "velocity": 0,
        "is_motor": false,
        "motor_id": 0,
        "accel_val": 2000,
        "base_duration_us": 174418
      },
      {
        "id": "M_1",
        "pitch": 86,
        "t_note_us": 2616277,
        "t_trigger_us": 2480314,
        "is_ai": true,
        "track_id": 4,
        "velocity": 0,
        "is_motor": false,
        "motor_id": 0,
        "accel_val": 2000,
        "base_duration_us": 174418
      },
      {
        "id": "M_5",
        "pitch": 88,
        "t_note_us": 2790695,
        "t_trigger_us": 2654732,
        "is_ai": true,
        "track_id": 5,
        "velocity": 0,
        "is_motor": false,
        "motor_id": 0,
        "accel_val": 2000,
        "base_duration_us": 174418
      },
      {
        "id": "M_2",
        "pitch": 64,
        "t_note_us": 2790695,
        "t_trigger_us": 2654732,
        "is_ai": false,
        "track_id": 0,
        "velocity": 0,
        "is_motor": true,
        "motor_id": 1,
        "accel_val": 2000,
        "base_duration_us": 174418
      },
      {
        "id": "M_3",
        "pitch": 69,
        "t_note_us": 2790695,
        "t_trigger_us": 2654732,
        "is_ai": false,
        "track_id": 0,
        "velocity": 0,
        "is_motor": true,
        "motor_id": 2,
        "accel_val": 2000,
        "base_duration_us": 174418
      },
      {
        "id": "M_4",
        "pitch": 57,
        "t_note_us": 2790695,
        "t_trigger_us": 2654732,
        "is_ai": false,
        "track_id": 0,
        "velocity": 0,
        "is_motor": true,
        "motor_id": 0,
        "accel_val": 2000,
        "base_duration_us": 174418
      },
      {
        "id": "M_6",
        "pitch": 84,
        "t_note_us": 3139531,
        "t_trigger_us": 3003568,
        "is_ai": true,
        "track_id": 3,
        "velocity": 0,
        "is_motor": false,
        "motor_id": 0,
        "accel_val": 2000,
        "base_duration_us": 174418
      },
      {
        "id": "M_7",
        "pitch": 81,
        "t_note_us": 3313949,
        "t_trigger_us": 3177986,
        "is_ai": true,
        "track_id": 1,
        "velocity": 0,
        "is_motor": false,
        "motor_id": 0,
        "accel_val": 2000,
        "base_duration_us": 174418
      },
      {
        "id": "M_8",
        "pitch": 86,
        "t_note_us": 3837204,
        "t_trigger_us": 3701241,
        "is_ai": true,
        "track_id": 4,
        "velocity": 0,
        "is_motor": false,
        "motor_id": 0,
        "accel_val": 2000,
        "base_duration_us": 174418
      },
      {
        "id": "M_9",
        "pitch": 62,
        "t_note_us": 4186040,
        "t_trigger_us": 4050077,
        "is_ai": false,
        "track_id": 0,
        "velocity": 0,
        "is_motor": true,
        "motor_id": 1,
        "accel_val": 2000,
        "base_duration_us": 174418
      },
      {
        "id": "M_10",
        "pitch": 55,
        "t_note_us": 4186040,
        "t_trigger_us": 4050077,
        "is_ai": false,
        "track_id": 0,
        "velocity": 0,
        "is_motor": true,
        "motor_id": 0,
        "accel_val": 2000,
        "base_duration_us": 174418
      },
      {
        "id": "M_11",
        "pitch": 67,
        "t_note_us": 4186040,
        "t_trigger_us": 4050077,
        "is_ai": false,
        "track_id": 0,
        "velocity": 0,
        "is_motor": true,
        "motor_id": 2,
        "accel_val": 2000,
        "base_duration_us": 174418
      },
      {
        "id": "M_12",
        "pitch": 71,
        "t_note_us": 4186040,
        "t_trigger_us": 4050077,
        "is_ai": false,
        "track_id": 0,
        "velocity": 0,
        "is_motor": true,
        "motor_id": 3,
        "accel_val": 2000,
        "base_duration_us": 174418
      },
      {
        "id": "M_13",
        "pitch": 67,
        "t_note_us": 4534876,
        "t_trigger_us": 4398913,
        "is_ai": false,
        "track_id": 0,
        "velocity": 0,
        "is_motor": true,
        "motor_id": 1,
        "accel_val": 2000,
        "base_duration_us": 174418
      },
      {
        "id": "M_14",
        "pitch": 76,
        "t_note_us": 4709294,
        "t_trigger_us": 4573331,
        "is_ai": false,
        "track_id": 0,
        "velocity": 0,
        "is_motor": true,
        "motor_id": 2,
        "accel_val": 2000,
        "base_duration_us": 174418
      },
      {
        "id": "M_15",
        "pitch": 83,
        "t_note_us": 5232549,
        "t_trigger_us": 5096586,
        "is_ai": true,
        "track_id": 2,
        "velocity": 0,
        "is_motor": false,
        "motor_id": 0,
        "accel_val": 2000,
        "base_duration_us": 174418
      },
      {
        "id": "M_16",
        "pitch": 81,
        "t_note_us": 5581385,
        "t_trigger_us": 5445422,
        "is_ai": true,
        "track_id": 1,
        "velocity": 0,
        "is_motor": false,
        "motor_id": 0,
        "accel_val": 2000,
        "base_duration_us": 174418
      },
      {
        "id": "M_17",
        "pitch": 57,
        "t_note_us": 5581385,
        "t_trigger_us": 5445422,
        "is_ai": false,
        "track_id": 0,
        "velocity": 0,
        "is_motor": true,
        "motor_id": 0,
        "accel_val": 2000,
        "base_duration_us": 174418
      },
      {
        "id": "M_18",
        "pitch": 53,
        "t_note_us": 5581385,
        "t_trigger_us": 5445422,
        "is_ai": false,
        "track_id": 0,
        "velocity": 0,
        "is_motor": true,
        "motor_id": 1,
        "accel_val": 2000,
        "base_duration_us": 174418
      },
      {
        "id": "M_19",
        "pitch": 65,
        "t_note_us": 5581385,
        "t_trigger_us": 5445422,
        "is_ai": false,
        "track_id": 0,
        "velocity": 0,
        "is_motor": true,
        "motor_id": 2,
        "accel_val": 2000,
        "base_duration_us": 174418
      },
      {
        "id": "M_20",
        "pitch": 79,
        "t_note_us": 5930221,
        "t_trigger_us": 5794258,
        "is_ai": true,
        "track_id": 0,
        "velocity": 0,
        "is_motor": false,
        "motor_id": 0,
        "accel_val": 2000,
        "base_duration_us": 174418
      },
      {
        "id": "M_21",
        "pitch": 72,
        "t_note_us": 6104639,
        "t_trigger_us": 5968676,
        "is_ai": false,
        "track_id": 0,
        "velocity": 0,
        "is_motor": true,
        "motor_id": 2,
        "accel_val": 2000,
        "base_duration_us": 174418
      },
      {
        "id": "M_22",
        "pitch": 67,
        "t_note_us": 6627894,
        "t_trigger_us": 6491931,
        "is_ai": false,
        "track_id": 0,
        "velocity": 0,
        "is_motor": true,
        "motor_id": 1,
        "accel_val": 2000,
        "base_duration_us": 174418
      },
      {
        "id": "M_23",
        "pitch": 76,
        "t_note_us": 6976730,
        "t_trigger_us": 6840767,
        "is_ai": false,
        "track_id": 0,
        "velocity": 0,
        "is_motor": true,
        "motor_id": 2,
        "accel_val": 2000,
        "base_duration_us": 174418
      },
      {
        "id": "M_24",
        "pitch": 60,
        "t_note_us": 6976730,
        "t_trigger_us": 6840767,
        "is_ai": false,
        "track_id": 0,
        "velocity": 0,
        "is_motor": true,
        "motor_id": 1,
        "accel_val": 2000,
        "base_duration_us": 174418
      },
      {
        "id": "M_25",
        "pitch": 52,
        "t_note_us": 6976730,
        "t_trigger_us": 6840767,
        "is_ai": false,
        "track_id": 0,
        "velocity": 0,
        "is_motor": true,
        "motor_id": 0,
        "accel_val": 2000,
        "base_duration_us": 174418
      },
      {
        "id": "M_26",
        "pitch": 64,
        "t_note_us": 6976730,
        "t_trigger_us": 6840767,
        "is_ai": false,
        "track_id": 0,
        "velocity": 0,
        "is_motor": true,
        "motor_id": 3,
        "accel_val": 2000,
        "base_duration_us": 174418
      },
      {
        "id": "M_27",
        "pitch": 74,
        "t_note_us": 8023240,
        "t_trigger_us": 7887277,
        "is_ai": false,
        "track_id": 0,
        "velocity": 0,
        "is_motor": true,
        "motor_id": 2,
        "accel_val": 2000,
        "base_duration_us": 174418
      },
      {
        "id": "M_28",
        "pitch": 76,
        "t_note_us": 8197658,
        "t_trigger_us": 8061695,
        "is_ai": false,
        "track_id": 0,
        "velocity": 0,
        "is_motor": true,
        "motor_id": 2,
        "accel_val": 2000,
        "base_duration_us": 174418
      },
      {
        "id": "M_29",
        "pitch": 77,
        "t_note_us": 8372076,
        "t_trigger_us": 8236113,
        "is_ai": false,
        "track_id": 0,
        "velocity": 0,
        "is_motor": true,
        "motor_id": 2,
        "accel_val": 2000,
        "base_duration_us": 174418
      },
      {
        "id": "M_30",
        "pitch": 57,
        "t_note_us": 8372076,
        "t_trigger_us": 8236113,
        "is_ai": false,
        "track_id": 0,
        "velocity": 0,
        "is_motor": true,
        "motor_id": 0,
        "accel_val": 2000,
        "base_duration_us": 174418
      },
      {
        "id": "M_31",
        "pitch": 53,
        "t_note_us": 8372076,
        "t_trigger_us": 8236113,
        "is_ai": false,
        "track_id": 0,
        "velocity": 0,
        "is_motor": true,
        "motor_id": 1,
        "accel_val": 2000,
        "base_duration_us": 174418
      },
      {
        "id": "M_32",
        "pitch": 65,
        "t_note_us": 8372076,
        "t_trigger_us": 8236113,
        "is_ai": false,
        "track_id": 0,
        "velocity": 0,
        "is_motor": true,
        "motor_id": 3,
        "accel_val": 2000,
        "base_duration_us": 174418
      },
      {
        "id": "M_33",
        "pitch": 84,
        "t_note_us": 9069749,
        "t_trigger_us": 8933786,
        "is_ai": true,
        "track_id": 3,
        "velocity": 0,
        "is_motor": false,
        "motor_id": 0,
        "accel_val": 2000,
        "base_duration_us": 174418
      },
      {
        "id": "M_34",
        "pitch": 83,
        "t_note_us": 9418585,
        "t_trigger_us": 9282622,
        "is_ai": true,
        "track_id": 2,
        "velocity": 0,
        "is_motor": false,
        "motor_id": 0,
        "accel_val": 2000,
        "base_duration_us": 174418
      },
      {
        "id": "M_35",
        "pitch": 84,
        "t_note_us": 9593003,
        "t_trigger_us": 9457040,
        "is_ai": true,
        "track_id": 3,
        "velocity": 0,
        "is_motor": false,
        "motor_id": 0,
        "accel_val": 2000,
        "base_duration_us": 174418
      },
      {
        "id": "M_36",
        "pitch": 67,
        "t_note_us": 9767421,
        "t_trigger_us": 9631458,
        "is_ai": false,
        "track_id": 0,
        "velocity": 0,
        "is_motor": true,
        "motor_id": 1,
        "accel_val": 2000,
        "base_duration_us": 174418
      },
      {
        "id": "M_37",
        "pitch": 55,
        "t_note_us": 9767421,
        "t_trigger_us": 9631458,
        "is_ai": false,
        "track_id": 0,
        "velocity": 0,
        "is_motor": true,
        "motor_id": 0,
        "accel_val": 2000,
        "base_duration_us": 174418
      },
      {
        "id": "M_38",
        "pitch": 52,
        "t_note_us": 9767421,
        "t_trigger_us": 9631458,
        "is_ai": false,
        "track_id": 0,
        "velocity": 0,
        "is_motor": true,
        "motor_id": 2,
        "accel_val": 2000,
        "base_duration_us": 174418
      },
      {
        "id": "M_39",
        "pitch": 64,
        "t_note_us": 9767421,
        "t_trigger_us": 9631458,
        "is_ai": false,
        "track_id": 0,
        "velocity": 0,
        "is_motor": true,
        "motor_id": 3,
        "accel_val": 2000,
        "base_duration_us": 174418
      },
      {
        "id": "M_40",
        "pitch": 89,
        "t_note_us": 10465094,
        "t_trigger_us": 10329131,
        "is_ai": true,
        "track_id": 6,
        "velocity": 0,
        "is_motor": false,
        "motor_id": 0,
        "accel_val": 2000,
        "base_duration_us": 174418
      },
      {
        "id": "M_41",
        "pitch": 76,
        "t_note_us": 10813930,
        "t_trigger_us": 10677967,
        "is_ai": false,
        "track_id": 0,
        "velocity": 0,
        "is_motor": true,
        "motor_id": 2,
        "accel_val": 2000,
        "base_duration_us": 174418
      },
      {
        "id": "M_42",
        "pitch": 77,
        "t_note_us": 10988348,
        "t_trigger_us": 10852385,
        "is_ai": false,
        "track_id": 0,
        "velocity": 0,
        "is_motor": true,
        "motor_id": 2,
        "accel_val": 2000,
        "base_duration_us": 174418
      },
      {
        "id": "M_43",
        "pitch": 54,
        "t_note_us": 11162766,
        "t_trigger_us": 11026803,
        "is_ai": false,
        "track_id": 0,
        "velocity": 0,
        "is_motor": true,
        "motor_id": 0,
        "accel_val": 2000,
        "base_duration_us": 174418
      },
      {
        "id": "M_44",
        "pitch": 51,
        "t_note_us": 11162766,
        "t_trigger_us": 11026803,
        "is_ai": false,
        "track_id": 0,
        "velocity": 0,
        "is_motor": true,
        "motor_id": 1,
        "accel_val": 2000,
        "base_duration_us": 174418
      },
      {
        "id": "M_45",
        "pitch": 63,
        "t_note_us": 11162766,
        "t_trigger_us": 11026803,
        "is_ai": false,
        "track_id": 0,
        "velocity": 0,
        "is_motor": true,
        "motor_id": 2,
        "accel_val": 2000,
        "base_duration_us": 174418
      },
      {
        "id": "M_46",
        "pitch": 78,
        "t_note_us": 11162766,
        "t_trigger_us": 11026803,
        "is_ai": false,
        "track_id": 0,
        "velocity": 0,
        "is_motor": true,
        "motor_id": 3,
        "accel_val": 2000,
        "base_duration_us": 174418
      },
      {
        "id": "M_47",
        "pitch": 84,
        "t_note_us": 11860439,
        "t_trigger_us": 11724476,
        "is_ai": true,
        "track_id": 3,
        "velocity": 0,
        "is_motor": false,
        "motor_id": 0,
        "accel_val": 2000,
        "base_duration_us": 174418
      },
      {
        "id": "M_48",
        "pitch": 83,
        "t_note_us": 12209275,
        "t_trigger_us": 12073312,
        "is_ai": true,
        "track_id": 2,
        "velocity": 0,
        "is_motor": false,
        "motor_id": 0,
        "accel_val": 2000,
        "base_duration_us": 174418
      },
      {
        "id": "M_49",
        "pitch": 81,
        "t_note_us": 12383693,
        "t_trigger_us": 12247730,
        "is_ai": true,
        "track_id": 1,
        "velocity": 0,
        "is_motor": false,
        "motor_id": 0,
        "accel_val": 2000,
        "base_duration_us": 174418
      },
      {
        "id": "M_50",
        "pitch": 68,
        "t_note_us": 12558111,
        "t_trigger_us": 12422148,
        "is_ai": false,
        "track_id": 0,
        "velocity": 0,
        "is_motor": true,
        "motor_id": 1,
        "accel_val": 2000,
        "base_duration_us": 174418
      },
      {
        "id": "M_51",
        "pitch": 56,
        "t_note_us": 12558111,
        "t_trigger_us": 12422148,
        "is_ai": false,
        "track_id": 0,
        "velocity": 0,
        "is_motor": true,
        "motor_id": 0,
        "accel_val": 2000,
        "base_duration_us": 174418
      },
      {
        "id": "M_52",
        "pitch": 52,
        "t_note_us": 12558111,
        "t_trigger_us": 12422148,
        "is_ai": false,
        "track_id": 0,
        "velocity": 0,
        "is_motor": true,
        "motor_id": 2,
        "accel_val": 2000,
        "base_duration_us": 174418
      },
      {
        "id": "M_53",
        "pitch": 64,
        "t_note_us": 12558111,
        "t_trigger_us": 12422148,
        "is_ai": false,
        "track_id": 0,
        "velocity": 0,
        "is_motor": true,
        "motor_id": 3,
        "accel_val": 2000,
        "base_duration_us": 174418
      },
      {
        "id": "M_54",
        "pitch": 64,
        "t_note_us": 13255784,
        "t_trigger_us": 13119821,
        "is_ai": false,
        "track_id": 0,
        "velocity": 0,
        "is_motor": true,
        "motor_id": 1,
        "accel_val": 2000,
        "base_duration_us": 174418
      },
      {
        "id": "M_55",
        "pitch": 84,
        "t_note_us": 13604620,
        "t_trigger_us": 13468657,
        "is_ai": true,
        "track_id": 3,
        "velocity": 0,
        "is_motor": false,
        "motor_id": 0,
        "accel_val": 2000,
        "base_duration_us": 174418
      },
      {
        "id": "M_56",
        "pitch": 86,
        "t_note_us": 13779038,
        "t_trigger_us": 13643075,
        "is_ai": true,
        "track_id": 4,
        "velocity": 0,
        "is_motor": false,
        "motor_id": 0,
        "accel_val": 2000,
        "base_duration_us": 174418
      },
      {
        "id": "M_60",
        "pitch": 81,
        "t_note_us": 13953456,
        "t_trigger_us": 13817493,
        "is_ai": true,
        "track_id": 1,
        "velocity": 0,
        "is_motor": false,
        "motor_id": 0,
        "accel_val": 2000,
        "base_duration_us": 174418
      },
      {
        "id": "M_57",
        "pitch": 64,
        "t_note_us": 13953456,
        "t_trigger_us": 13817493,
        "is_ai": false,
        "track_id": 0,
        "velocity": 0,
        "is_motor": true,
        "motor_id": 1,
        "accel_val": 2000,
        "base_duration_us": 174418
      },
      {
        "id": "M_58",
        "pitch": 69,
        "t_note_us": 13953456,
        "t_trigger_us": 13817493,
        "is_ai": false,
        "track_id": 0,
        "velocity": 0,
        "is_motor": true,
        "motor_id": 2,
        "accel_val": 2000,
        "base_duration_us": 174418
      },
      {
        "id": "M_59",
        "pitch": 57,
        "t_note_us": 13953456,
        "t_trigger_us": 13817493,
        "is_ai": false,
        "track_id": 0,
        "velocity": 0,
        "is_motor": true,
        "motor_id": 0,
        "accel_val": 2000,
        "base_duration_us": 174418
      },
      {
        "id": "M_61",
        "pitch": 76,
        "t_note_us": 13953456,
        "t_trigger_us": 13817493,
        "is_ai": false,
        "track_id": 0,
        "velocity": 0,
        "is_motor": true,
        "motor_id": 3,
        "accel_val": 2000,
        "base_duration_us": 174418
      },
      {
        "id": "M_63",
        "pitch": 84,
        "t_note_us": 14302292,
        "t_trigger_us": 14166329,
        "is_ai": true,
        "track_id": 3,
        "velocity": 0,
        "is_motor": false,
        "motor_id": 0,
        "accel_val": 2000,
        "base_duration_us": 174418
      },
      {
        "id": "M_62",
        "pitch": 64,
        "t_note_us": 14302292,
        "t_trigger_us": 14166329,
        "is_ai": false,
        "track_id": 0,
        "velocity": 0,
        "is_motor": true,
        "motor_id": 1,
        "accel_val": 2000,
        "base_duration_us": 174418
      },
      {
        "id": "M_64",
        "pitch": 81,
        "t_note_us": 14476710,
        "t_trigger_us": 14340747,
        "is_ai": true,
        "track_id": 1,
        "velocity": 0,
        "is_motor": false,
        "motor_id": 0,
        "accel_val": 2000,
        "base_duration_us": 174418
      },
      {
        "id": "M_65",
        "pitch": 69,
        "t_note_us": 14651128,
        "t_trigger_us": 14515165,
        "is_ai": false,
        "track_id": 0,
        "velocity": 0,
        "is_motor": true,
        "motor_id": 1,
        "accel_val": 2000,
        "base_duration_us": 174418
      },
      {
        "id": "M_67",
        "pitch": 86,
        "t_note_us": 14999964,
        "t_trigger_us": 14864001,
        "is_ai": true,
        "track_id": 4,
        "velocity": 0,
        "is_motor": false,
        "motor_id": 0,
        "accel_val": 2000,
        "base_duration_us": 174418
      },
      {
        "id": "M_66",
        "pitch": 57,
        "t_note_us": 14999964,
        "t_trigger_us": 14864001,
        "is_ai": false,
        "track_id": 0,
        "velocity": 0,
        "is_motor": true,
        "motor_id": 0,
        "accel_val": 2000,
        "base_duration_us": 174418
      },
      {
        "id": "M_71",
        "pitch": 83,
        "t_note_us": 15348800,
        "t_trigger_us": 15212837,
        "is_ai": true,
        "track_id": 2,
        "velocity": 0,
        "is_motor": false,
        "motor_id": 0,
        "accel_val": 2000,
        "base_duration_us": 174418
      },
      {
        "id": "M_68",
        "pitch": 62,
        "t_note_us": 15348800,
        "t_trigger_us": 15212837,
        "is_ai": false,
        "track_id": 0,
        "velocity": 0,
        "is_motor": true,
        "motor_id": 1,
        "accel_val": 2000,
        "base_duration_us": 174418
      },
      {
        "id": "M_69",
        "pitch": 55,
        "t_note_us": 15348800,
        "t_trigger_us": 15212837,
        "is_ai": false,
        "track_id": 0,
        "velocity": 0,
        "is_motor": true,
        "motor_id": 0,
        "accel_val": 2000,
        "base_duration_us": 174418
      },
      {
        "id": "M_70",
        "pitch": 67,
        "t_note_us": 15348800,
        "t_trigger_us": 15212837,
        "is_ai": false,
        "track_id": 0,
        "velocity": 0,
        "is_motor": true,
        "motor_id": 2,
        "accel_val": 2000,
        "base_duration_us": 174418
      },
      {
        "id": "M_72",
        "pitch": 67,
        "t_note_us": 15348800,
        "t_trigger_us": 15212837,
        "is_ai": false,
        "track_id": 0,
        "velocity": 0,
        "is_motor": true,
        "motor_id": 3,
        "accel_val": 2000,
        "base_duration_us": 174418
      },
      {
        "id": "M_73",
        "pitch": 62,
        "t_note_us": 15697636,
        "t_trigger_us": 15561673,
        "is_ai": false,
        "track_id": 0,
        "velocity": 0,
        "is_motor": true,
        "motor_id": 1,
        "accel_val": 2000,
        "base_duration_us": 174418
      },
      {
        "id": "M_74",
        "pitch": 67,
        "t_note_us": 15697636,
        "t_trigger_us": 15561673,
        "is_ai": false,
        "track_id": 0,
        "velocity": 0,
        "is_motor": true,
        "motor_id": 2,
        "accel_val": 2000,
        "base_duration_us": 174418
      },
      {
        "id": "M_75",
        "pitch": 76,
        "t_note_us": 15872054,
        "t_trigger_us": 15736091,
        "is_ai": false,
        "track_id": 0,
        "velocity": 0,
        "is_motor": true,
        "motor_id": 2,
        "accel_val": 2000,
        "base_duration_us": 174418
      },
      {
        "id": "M_76",
        "pitch": 67,
        "t_note_us": 16046472,
        "t_trigger_us": 15910509,
        "is_ai": false,
        "track_id": 0,
        "velocity": 0,
        "is_motor": true,
        "motor_id": 1,
        "accel_val": 2000,
        "base_duration_us": 174418
      },
      {
        "id": "M_78",
        "pitch": 83,
        "t_note_us": 16395308,
        "t_trigger_us": 16259345,
        "is_ai": true,
        "track_id": 2,
        "velocity": 0,
        "is_motor": false,
        "motor_id": 0,
        "accel_val": 2000,
        "base_duration_us": 174418
      },
      {
        "id": "M_77",
        "pitch": 60,
        "t_note_us": 16395308,
        "t_trigger_us": 16259345,
        "is_ai": false,
        "track_id": 0,
        "velocity": 0,
        "is_motor": true,
        "motor_id": 1,
        "accel_val": 2000,
        "base_duration_us": 174418
      },
      {
        "id": "M_80",
        "pitch": 81,
        "t_note_us": 16744144,
        "t_trigger_us": 16608181,
        "is_ai": true,
        "track_id": 1,
        "velocity": 0,
        "is_motor": false,
        "motor_id": 0,
        "accel_val": 2000,
        "base_duration_us": 174418
      },
      {
        "id": "M_79",
        "pitch": 77,
        "t_note_us": 16744144,
        "t_trigger_us": 16608181,
        "is_ai": false,
        "track_id": 0,
        "velocity": 0,
        "is_motor": true,
        "motor_id": 2,
        "accel_val": 2000,
        "base_duration_us": 174418
      },
      {
        "id": "M_81",
        "pitch": 57,
        "t_note_us": 16744144,
        "t_trigger_us": 16608181,
        "is_ai": false,
        "track_id": 0,
        "velocity": 0,
        "is_motor": true,
        "motor_id": 0,
        "accel_val": 2000,
        "base_duration_us": 174418
      },
      {
        "id": "M_82",
        "pitch": 53,
        "t_note_us": 16744144,
        "t_trigger_us": 16608181,
        "is_ai": false,
        "track_id": 0,
        "velocity": 0,
        "is_motor": true,
        "motor_id": 1,
        "accel_val": 2000,
        "base_duration_us": 174418
      },
      {
        "id": "M_83",
        "pitch": 65,
        "t_note_us": 16744144,
        "t_trigger_us": 16608181,
        "is_ai": false,
        "track_id": 0,
        "velocity": 0,
        "is_motor": true,
        "motor_id": 3,
        "accel_val": 2000,
        "base_duration_us": 174418
      },
      {
        "id": "M_84",
        "pitch": 67,
        "t_note_us": 17092980,
        "t_trigger_us": 16957017,
        "is_ai": false,
        "track_id": 0,
        "velocity": 0,
        "is_motor": true,
        "motor_id": 1,
        "accel_val": 2000,
        "base_duration_us": 174418
      },
      {
        "id": "M_85",
        "pitch": 62,
        "t_note_us": 17092980,
        "t_trigger_us": 16957017,
        "is_ai": false,
        "track_id": 0,
        "velocity": 0,
        "is_motor": true,
        "motor_id": 0,
        "accel_val": 2000,
        "base_duration_us": 174418
      },
      {
        "id": "M_86",
        "pitch": 72,
        "t_note_us": 17267398,
        "t_trigger_us": 17131435,
        "is_ai": false,
        "track_id": 0,
        "velocity": 0,
        "is_motor": true,
        "motor_id": 2,
        "accel_val": 2000,
        "base_duration_us": 174418
      },
      {
        "id": "M_87",
        "pitch": 67,
        "t_note_us": 17441816,
        "t_trigger_us": 17305853,
        "is_ai": false,
        "track_id": 0,
        "velocity": 0,
        "is_motor": true,
        "motor_id": 1,
        "accel_val": 2000,
        "base_duration_us": 174418
      },
      {
        "id": "M_88",
        "pitch": 67,
        "t_note_us": 17790652,
        "t_trigger_us": 17654689,
        "is_ai": false,
        "track_id": 0,
        "velocity": 0,
        "is_motor": true,
        "motor_id": 1,
        "accel_val": 2000,
        "base_duration_us": 174418
      },
      {
        "id": "M_89",
        "pitch": 60,
        "t_note_us": 17790652,
        "t_trigger_us": 17654689,
        "is_ai": false,
        "track_id": 0,
        "velocity": 0,
        "is_motor": true,
        "motor_id": 0,
        "accel_val": 2000,
        "base_duration_us": 174418
      },
      {
        "id": "M_90",
        "pitch": 76,
        "t_note_us": 18139488,
        "t_trigger_us": 18003525,
        "is_ai": false,
        "track_id": 0,
        "velocity": 0,
        "is_motor": true,
        "motor_id": 2,
        "accel_val": 2000,
        "base_duration_us": 174418
      },
      {
        "id": "M_91",
        "pitch": 60,
        "t_note_us": 18139488,
        "t_trigger_us": 18003525,
        "is_ai": false,
        "track_id": 0,
        "velocity": 0,
        "is_motor": true,
        "motor_id": 1,
        "accel_val": 2000,
        "base_duration_us": 174418
      },
      {
        "id": "M_92",
        "pitch": 52,
        "t_note_us": 18139488,
        "t_trigger_us": 18003525,
        "is_ai": false,
        "track_id": 0,
        "velocity": 0,
        "is_motor": true,
        "motor_id": 0,
        "accel_val": 2000,
        "base_duration_us": 174418
      },
      {
        "id": "M_93",
        "pitch": 64,
        "t_note_us": 18139488,
        "t_trigger_us": 18003525,
        "is_ai": false,
        "track_id": 0,
        "velocity": 0,
        "is_motor": true,
        "motor_id": 3,
        "accel_val": 2000,
        "base_duration_us": 174418
      },
      {
        "id": "M_94",
        "pitch": 62,
        "t_note_us": 18488324,
        "t_trigger_us": 18352361,
        "is_ai": false,
        "track_id": 0,
        "velocity": 0,
        "is_motor": true,
        "motor_id": 1,
        "accel_val": 2000,
        "base_duration_us": 174418
      },
      {
        "id": "M_95",
        "pitch": 64,
        "t_note_us": 18837160,
        "t_trigger_us": 18701197,
        "is_ai": false,
        "track_id": 0,
        "velocity": 0,
        "is_motor": true,
        "motor_id": 1,
        "accel_val": 2000,
        "base_duration_us": 174418
      },
      {
        "id": "M_96",
        "pitch": 74,
        "t_note_us": 19185996,
        "t_trigger_us": 19050033,
        "is_ai": false,
        "track_id": 0,
        "velocity": 0,
        "is_motor": true,
        "motor_id": 2,
        "accel_val": 2000,
        "base_duration_us": 174418
      },
      {
        "id": "M_97",
        "pitch": 60,
        "t_note_us": 19185996,
        "t_trigger_us": 19050033,
        "is_ai": false,
        "track_id": 0,
        "velocity": 0,
        "is_motor": true,
        "motor_id": 1,
        "accel_val": 2000,
        "base_duration_us": 174418
      },
      {
        "id": "M_98",
        "pitch": 76,
        "t_note_us": 19360414,
        "t_trigger_us": 19224451,
        "is_ai": false,
        "track_id": 0,
        "velocity": 0,
        "is_motor": true,
        "motor_id": 2,
        "accel_val": 2000,
        "base_duration_us": 174418
      },
      {
        "id": "M_99",
        "pitch": 57,
        "t_note_us": 19534832,
        "t_trigger_us": 19398869,
        "is_ai": false,
        "track_id": 0,
        "velocity": 0,
        "is_motor": true,
        "motor_id": 0,
        "accel_val": 2000,
        "base_duration_us": 174418
      },
      {
        "id": "M_100",
        "pitch": 62,
        "t_note_us": 19534832,
        "t_trigger_us": 19398869,
        "is_ai": false,
        "track_id": 0,
        "velocity": 0,
        "is_motor": true,
        "motor_id": 1,
        "accel_val": 2000,
        "base_duration_us": 174418
      },
      {
        "id": "M_101",
        "pitch": 50,
        "t_note_us": 19534832,
        "t_trigger_us": 19398869,
        "is_ai": false,
        "track_id": 0,
        "velocity": 0,
        "is_motor": true,
        "motor_id": 2,
        "accel_val": 2000,
        "base_duration_us": 174418
      },
      {
        "id": "M_102",
        "pitch": 77,
        "t_note_us": 19534832,
        "t_trigger_us": 19398869,
        "is_ai": false,
        "track_id": 0,
        "velocity": 0,
        "is_motor": true,
        "motor_id": 3,
        "accel_val": 2000,
        "base_duration_us": 174418
      },
      {
        "id": "M_103",
        "pitch": 62,
        "t_note_us": 19883668,
        "t_trigger_us": 19747705,
        "is_ai": false,
        "track_id": 0,
        "velocity": 0,
        "is_motor": true,
        "motor_id": 1,
        "accel_val": 2000,
        "base_duration_us": 174418
      },
      {
        "id": "M_104",
        "pitch": 67,
        "t_note_us": 20232504,
        "t_trigger_us": 20096541,
        "is_ai": false,
        "track_id": 0,
        "velocity": 0,
        "is_motor": true,
        "motor_id": 1,
        "accel_val": 2000,
        "base_duration_us": 174418
      },
      {
        "id": "M_105",
        "pitch": 67,
        "t_note_us": 20232504,
        "t_trigger_us": 20096541,
        "is_ai": false,
        "track_id": 0,
        "velocity": 0,
        "is_motor": true,
        "motor_id": 2,
        "accel_val": 2000,
        "base_duration_us": 174418
      },
      {
        "id": "M_106",
        "pitch": 60,
        "t_note_us": 20581340,
        "t_trigger_us": 20445377,
        "is_ai": false,
        "track_id": 0,
        "velocity": 0,
        "is_motor": true,
        "motor_id": 1,
        "accel_val": 2000,
        "base_duration_us": 174418
      },
      {
        "id": "M_107",
        "pitch": 77,
        "t_note_us": 20581340,
        "t_trigger_us": 20445377,
        "is_ai": false,
        "track_id": 0,
        "velocity": 0,
        "is_motor": true,
        "motor_id": 2,
        "accel_val": 2000,
        "base_duration_us": 174418
      },
      {
        "id": "M_108",
        "pitch": 67,
        "t_note_us": 20755758,
        "t_trigger_us": 20619795,
        "is_ai": false,
        "track_id": 0,
        "velocity": 0,
        "is_motor": true,
        "motor_id": 1,
        "accel_val": 2000,
        "base_duration_us": 174418
      },
      {
        "id": "M_109",
        "pitch": 55,
        "t_note_us": 20930176,
        "t_trigger_us": 20794213,
        "is_ai": false,
        "track_id": 0,
        "velocity": 0,
        "is_motor": true,
        "motor_id": 0,
        "accel_val": 2000,
        "base_duration_us": 174418
      },
      {
        "id": "M_110",
        "pitch": 52,
        "t_note_us": 20930176,
        "t_trigger_us": 20794213,
        "is_ai": false,
        "track_id": 0,
        "velocity": 0,
        "is_motor": true,
        "motor_id": 1,
        "accel_val": 2000,
        "base_duration_us": 174418
      },
      {
        "id": "M_111",
        "pitch": 64,
        "t_note_us": 20930176,
        "t_trigger_us": 20794213,
        "is_ai": false,
        "track_id": 0,
        "velocity": 0,
        "is_motor": true,
        "motor_id": 2,
        "accel_val": 2000,
        "base_duration_us": 174418
      },
      {
        "id": "M_112",
        "pitch": 76,
        "t_note_us": 20930176,
        "t_trigger_us": 20794213,
        "is_ai": false,
        "track_id": 0,
        "velocity": 0,
        "is_motor": true,
        "motor_id": 3,
        "accel_val": 2000,
        "base_duration_us": 174418
      },
      {
        "id": "M_113",
        "pitch": 62,
        "t_note_us": 21279012,
        "t_trigger_us": 21143049,
        "is_ai": false,
        "track_id": 0,
        "velocity": 0,
        "is_motor": true,
        "motor_id": 1,
        "accel_val": 2000,
        "base_duration_us": 174418
      },
      {
        "id": "M_114",
        "pitch": 67,
        "t_note_us": 21279012,
        "t_trigger_us": 21143049,
        "is_ai": false,
        "track_id": 0,
        "velocity": 0,
        "is_motor": true,
        "motor_id": 2,
        "accel_val": 2000,
        "base_duration_us": 174418
      },
      {
        "id": "M_116",
        "pitch": 84,
        "t_note_us": 21627848,
        "t_trigger_us": 21491885,
        "is_ai": true,
        "track_id": 3,
        "velocity": 0,
        "is_motor": false,
        "motor_id": 0,
        "accel_val": 2000,
        "base_duration_us": 174418
      },
      {
        "id": "M_115",
        "pitch": 64,
        "t_note_us": 21627848,
        "t_trigger_us": 21491885,
        "is_ai": false,
        "track_id": 0,
        "velocity": 0,
        "is_motor": true,
        "motor_id": 1,
        "accel_val": 2000,
        "base_duration_us": 174418
      },
      {
        "id": "M_117",
        "pitch": 60,
        "t_note_us": 21976684,
        "t_trigger_us": 21840721,
        "is_ai": false,
        "track_id": 0,
        "velocity": 0,
        "is_motor": true,
        "motor_id": 1,
        "accel_val": 2000,
        "base_duration_us": 174418
      },
      {
        "id": "M_118",
        "pitch": 76,
        "t_note_us": 21976684,
        "t_trigger_us": 21840721,
        "is_ai": false,
        "track_id": 0,
        "velocity": 0,
        "is_motor": true,
        "motor_id": 2,
        "accel_val": 2000,
        "base_duration_us": 174418
      },
      {
        "id": "M_122",
        "pitch": 86,
        "t_note_us": 22325520,
        "t_trigger_us": 22189557,
        "is_ai": true,
        "track_id": 4,
        "velocity": 0,
        "is_motor": false,
        "motor_id": 0,
        "accel_val": 2000,
        "base_duration_us": 174418
      },
      {
        "id": "M_119",
        "pitch": 57,
        "t_note_us": 22325520,
        "t_trigger_us": 22189557,
        "is_ai": false,
        "track_id": 0,
        "velocity": 0,
        "is_motor": true,
        "motor_id": 0,
        "accel_val": 2000,
        "base_duration_us": 174418
      },
      {
        "id": "M_120",
        "pitch": 65,
        "t_note_us": 22325520,
        "t_trigger_us": 22189557,
        "is_ai": false,
        "track_id": 0,
        "velocity": 0,
        "is_motor": true,
        "motor_id": 1,
        "accel_val": 2000,
        "base_duration_us": 174418
      },
      {
        "id": "M_121",
        "pitch": 53,
        "t_note_us": 22325520,
        "t_trigger_us": 22189557,
        "is_ai": false,
        "track_id": 0,
        "velocity": 0,
        "is_motor": true,
        "motor_id": 2,
        "accel_val": 2000,
        "base_duration_us": 174418
      },
      {
        "id": "M_123",
        "pitch": 74,
        "t_note_us": 22674356,
        "t_trigger_us": 22538393,
        "is_ai": false,
        "track_id": 0,
        "velocity": 0,
        "is_motor": true,
        "motor_id": 2,
        "accel_val": 2000,
        "base_duration_us": 174418
      },
      {
        "id": "M_124",
        "pitch": 86,
        "t_note_us": 22848774,
        "t_trigger_us": 22712811,
        "is_ai": true,
        "track_id": 4,
        "velocity": 0,
        "is_motor": false,
        "motor_id": 0,
        "accel_val": 2000,
        "base_duration_us": 174418
      },
      {
        "id": "M_129",
        "pitch": 86,
        "t_note_us": 23023192,
        "t_trigger_us": 22887229,
        "is_ai": true,
        "track_id": 4,
        "velocity": 0,
        "is_motor": false,
        "motor_id": 0,
        "accel_val": 2000,
        "base_duration_us": 174418
      },
      {
        "id": "M_125",
        "pitch": 67,
        "t_note_us": 23023192,
        "t_trigger_us": 22887229,
        "is_ai": false,
        "track_id": 0,
        "velocity": 0,
        "is_motor": true,
        "motor_id": 1,
        "accel_val": 2000,
        "base_duration_us": 174418
      },
      {
        "id": "M_126",
        "pitch": 62,
        "t_note_us": 23023192,
        "t_trigger_us": 22887229,
        "is_ai": false,
        "track_id": 0,
        "velocity": 0,
        "is_motor": true,
        "motor_id": 0,
        "accel_val": 2000,
        "base_duration_us": 174418
      },
      {
        "id": "M_127",
        "pitch": 67,
        "t_note_us": 23023192,
        "t_trigger_us": 22887229,
        "is_ai": false,
        "track_id": 0,
        "velocity": 0,
        "is_motor": true,
        "motor_id": 2,
        "accel_val": 2000,
        "base_duration_us": 174418
      },
      {
        "id": "M_128",
        "pitch": 55,
        "t_note_us": 23023192,
        "t_trigger_us": 22887229,
        "is_ai": false,
        "track_id": 0,
        "velocity": 0,
        "is_motor": true,
        "motor_id": 3,
        "accel_val": 2000,
        "base_duration_us": 174418
      },
      {
        "id": "M_130",
        "pitch": 84,
        "t_note_us": 23197610,
        "t_trigger_us": 23061647,
        "is_ai": true,
        "track_id": 3,
        "velocity": 0,
        "is_motor": false,
        "motor_id": 0,
        "accel_val": 2000,
        "base_duration_us": 174418
      },
      {
        "id": "M_131",
        "pitch": 72,
        "t_note_us": 23372028,
        "t_trigger_us": 23236065,
        "is_ai": false,
        "track_id": 0,
        "velocity": 0,
        "is_motor": true,
        "motor_id": 2,
        "accel_val": 2000,
        "base_duration_us": 174418
      },
      {
        "id": "M_132",
        "pitch": 84,
        "t_note_us": 23546446,
        "t_trigger_us": 23410483,
        "is_ai": true,
        "track_id": 3,
        "velocity": 0,
        "is_motor": false,
        "motor_id": 0,
        "accel_val": 2000,
        "base_duration_us": 174418
      },
      {
        "id": "M_136",
        "pitch": 84,
        "t_note_us": 23720864,
        "t_trigger_us": 23584901,
        "is_ai": true,
        "track_id": 3,
        "velocity": 0,
        "is_motor": false,
        "motor_id": 0,
        "accel_val": 2000,
        "base_duration_us": 174418
      },
      {
        "id": "M_133",
        "pitch": 55,
        "t_note_us": 23720864,
        "t_trigger_us": 23584901,
        "is_ai": false,
        "track_id": 0,
        "velocity": 0,
        "is_motor": true,
        "motor_id": 0,
        "accel_val": 2000,
        "base_duration_us": 174418
      },
      {
        "id": "M_134",
        "pitch": 48,
        "t_note_us": 23720864,
        "t_trigger_us": 23584901,
        "is_ai": false,
        "track_id": 0,
        "velocity": 0,
        "is_motor": true,
        "motor_id": 1,
        "accel_val": 2000,
        "base_duration_us": 174418
      },
      {
        "id": "M_135",
        "pitch": 64,
        "t_note_us": 23720864,
        "t_trigger_us": 23584901,
        "is_ai": false,
        "track_id": 0,
        "velocity": 0,
        "is_motor": true,
        "motor_id": 2,
        "accel_val": 2000,
        "base_duration_us": 174418
      },
      {
        "id": "M_137",
        "pitch": 74,
        "t_note_us": 24069700,
        "t_trigger_us": 23933737,
        "is_ai": false,
        "track_id": 0,
        "velocity": 0,
        "is_motor": true,
        "motor_id": 2,
        "accel_val": 2000,
        "base_duration_us": 174418
      },
      {
        "id": "M_138",
        "pitch": 62,
        "t_note_us": 24069700,
        "t_trigger_us": 23933737,
        "is_ai": false,
        "track_id": 0,
        "velocity": 0,
        "is_motor": true,
        "motor_id": 1,
        "accel_val": 2000,
        "base_duration_us": 174418
      },
      {
        "id": "M_139",
        "pitch": 79,
        "t_note_us": 24418536,
        "t_trigger_us": 24282573,
        "is_ai": true,
        "track_id": 0,
        "velocity": 0,
        "is_motor": false,
        "motor_id": 0,
        "accel_val": 2000,
        "base_duration_us": 174418
      },
      {
        "id": "M_140",
        "pitch": 64,
        "t_note_us": 24418536,
        "t_trigger_us": 24282573,
        "is_ai": false,
        "track_id": 0,
        "velocity": 0,
        "is_motor": true,
        "motor_id": 1,
        "accel_val": 2000,
        "base_duration_us": 174418
      },
      {
        "id": "M_141",
        "pitch": 72,
        "t_note_us": 24767372,
        "t_trigger_us": 24631409,
        "is_ai": false,
        "track_id": 0,
        "velocity": 0,
        "is_motor": true,
        "motor_id": 2,
        "accel_val": 2000,
        "base_duration_us": 174418
      },
      {
        "id": "M_142",
        "pitch": 60,
        "t_note_us": 24767372,
        "t_trigger_us": 24631409,
        "is_ai": false,
        "track_id": 0,
        "velocity": 0,
        "is_motor": true,
        "motor_id": 1,
        "accel_val": 2000,
        "base_duration_us": 174418
      },
      {
        "id": "M_143",
        "pitch": 84,
        "t_note_us": 27558067,
        "t_trigger_us": 27422104,
        "is_ai": true,
        "track_id": 3,
        "velocity": 0,
        "is_motor": false,
        "motor_id": 0,
        "accel_val": 2000,
        "base_duration_us": 174418
      },
      {
        "id": "M_144",
        "pitch": 86,
        "t_note_us": 27732485,
        "t_trigger_us": 27596522,
        "is_ai": true,
        "track_id": 4,
        "velocity": 0,
        "is_motor": false,
        "motor_id": 0,
        "accel_val": 2000,
        "base_duration_us": 174418
      },
      {
        "id": "M_148",
        "pitch": 81,
        "t_note_us": 27906903,
        "t_trigger_us": 27770940,
        "is_ai": true,
        "track_id": 1,
        "velocity": 0,
        "is_motor": false,
        "motor_id": 0,
        "accel_val": 2000,
        "base_duration_us": 174418
      },
      {
        "id": "M_149",
        "pitch": 84,
        "t_note_us": 27906903,
        "t_trigger_us": 27770940,
        "is_ai": true,
        "track_id": 3,
        "velocity": 0,
        "is_motor": false,
        "motor_id": 0,
        "accel_val": 2000,
        "base_duration_us": 174418
      },
      {
        "id": "M_145",
        "pitch": 64,
        "t_note_us": 27906903,
        "t_trigger_us": 27770940,
        "is_ai": false,
        "track_id": 0,
        "velocity": 0,
        "is_motor": true,
        "motor_id": 1,
        "accel_val": 2000,
        "base_duration_us": 174418
      },
      {
        "id": "M_146",
        "pitch": 69,
        "t_note_us": 27906903,
        "t_trigger_us": 27770940,
        "is_ai": false,
        "track_id": 0,
        "velocity": 0,
        "is_motor": true,
        "motor_id": 2,
        "accel_val": 2000,
        "base_duration_us": 174418
      },
      {
        "id": "M_147",
        "pitch": 57,
        "t_note_us": 27906903,
        "t_trigger_us": 27770940,
        "is_ai": false,
        "track_id": 0,
        "velocity": 0,
        "is_motor": true,
        "motor_id": 0,
        "accel_val": 2000,
        "base_duration_us": 174418
      },
      {
        "id": "M_150",
        "pitch": 76,
        "t_note_us": 27906903,
        "t_trigger_us": 27770940,
        "is_ai": false,
        "track_id": 0,
        "velocity": 0,
        "is_motor": true,
        "motor_id": 3,
        "accel_val": 2000,
        "base_duration_us": 174418
      },
      {
        "id": "M_152",
        "pitch": 84,
        "t_note_us": 28255739,
        "t_trigger_us": 28119776,
        "is_ai": true,
        "track_id": 3,
        "velocity": 0,
        "is_motor": false,
        "motor_id": 0,
        "accel_val": 2000,
        "base_duration_us": 174418
      },
      {
        "id": "M_151",
        "pitch": 64,
        "t_note_us": 28255739,
        "t_trigger_us": 28119776,
        "is_ai": false,
        "track_id": 0,
        "velocity": 0,
        "is_motor": true,
        "motor_id": 1,
        "accel_val": 2000,
        "base_duration_us": 174418
      },
      {
        "id": "M_153",
        "pitch": 81,
        "t_note_us": 28430157,
        "t_trigger_us": 28294194,
        "is_ai": true,
        "track_id": 1,
        "velocity": 0,
        "is_motor": false,
        "motor_id": 0,
        "accel_val": 2000,
        "base_duration_us": 174418
      },
      {
        "id": "M_154",
        "pitch": 69,
        "t_note_us": 28604575,
        "t_trigger_us": 28468612,
        "is_ai": false,
        "track_id": 0,
        "velocity": 0,
        "is_motor": true,
        "motor_id": 1,
        "accel_val": 2000,
        "base_duration_us": 174418
      },
      {
        "id": "M_156",
        "pitch": 86,
        "t_note_us": 28953411,
        "t_trigger_us": 28817448,
        "is_ai": true,
        "track_id": 4,
        "velocity": 0,
        "is_motor": false,
        "motor_id": 0,
        "accel_val": 2000,
        "base_duration_us": 174418
      },
      {
        "id": "M_155",
        "pitch": 57,
        "t_note_us": 28953411,
        "t_trigger_us": 28817448,
        "is_ai": false,
        "track_id": 0,
        "velocity": 0,
        "is_motor": true,
        "motor_id": 0,
        "accel_val": 2000,
        "base_duration_us": 174418
      },
      {
        "id": "M_162",
        "pitch": 83,
        "t_note_us": 29302247,
        "t_trigger_us": 29166284,
        "is_ai": true,
        "track_id": 2,
        "velocity": 0,
        "is_motor": false,
        "motor_id": 0,
        "accel_val": 2000,
        "base_duration_us": 174418
      },
      {
        "id": "M_157",
        "pitch": 55,
        "t_note_us": 29302247,
        "t_trigger_us": 29166284,
        "is_ai": false,
        "track_id": 0,
        "velocity": 0,
        "is_motor": true,
        "motor_id": 0,
        "accel_val": 2000,
        "base_duration_us": 174418
      },
      {
        "id": "M_158",
        "pitch": 62,
        "t_note_us": 29302247,
        "t_trigger_us": 29166284,
        "is_ai": false,
        "track_id": 0,
        "velocity": 0,
        "is_motor": true,
        "motor_id": 1,
        "accel_val": 2000,
        "base_duration_us": 174418
      },
      {
        "id": "M_159",
        "pitch": 67,
        "t_note_us": 29302247,
        "t_trigger_us": 29166284,
        "is_ai": false,
        "track_id": 0,
        "velocity": 0,
        "is_motor": true,
        "motor_id": 2,
        "accel_val": 2000,
        "base_duration_us": 174418
      },
      {
        "id": "M_160",
        "pitch": 74,
        "t_note_us": 29302247,
        "t_trigger_us": 29166284,
        "is_ai": false,
        "track_id": 0,
        "velocity": 0,
        "is_motor": true,
        "motor_id": 3,
        "accel_val": 2000,
        "base_duration_us": 174418
      },
      {
        "id": "M_161",
        "pitch": 67,
        "t_note_us": 29302247,
        "t_trigger_us": 29166284,
        "is_ai": false,
        "track_id": 0,
        "velocity": 0,
        "is_motor": true,
        "motor_id": 0,
        "accel_val": 2000,
        "base_duration_us": 174418
      },
      {
        "id": "M_163",
        "pitch": 67,
        "t_note_us": 29651083,
        "t_trigger_us": 29515120,
        "is_ai": false,
        "track_id": 0,
        "velocity": 0,
        "is_motor": true,
        "motor_id": 1,
        "accel_val": 2000,
        "base_duration_us": 174418
      },
      {
        "id": "M_164",
        "pitch": 76,
        "t_note_us": 29825501,
        "t_trigger_us": 29689538,
        "is_ai": false,
        "track_id": 0,
        "velocity": 0,
        "is_motor": true,
        "motor_id": 2,
        "accel_val": 2000,
        "base_duration_us": 174418
      },
      {
        "id": "M_165",
        "pitch": 60,
        "t_note_us": 29999919,
        "t_trigger_us": 29863956,
        "is_ai": false,
        "track_id": 0,
        "velocity": 0,
        "is_motor": true,
        "motor_id": 1,
        "accel_val": 2000,
        "base_duration_us": 174418
      },
      {
        "id": "M_167",
        "pitch": 83,
        "t_note_us": 30348755,
        "t_trigger_us": 30212792,
        "is_ai": true,
        "track_id": 2,
        "velocity": 0,
        "is_motor": false,
        "motor_id": 0,
        "accel_val": 2000,
        "base_duration_us": 174418
      },
      {
        "id": "M_166",
        "pitch": 62,
        "t_note_us": 30348755,
        "t_trigger_us": 30212792,
        "is_ai": false,
        "track_id": 0,
        "velocity": 0,
        "is_motor": true,
        "motor_id": 1,
        "accel_val": 2000,
        "base_duration_us": 174418
      },
      {
        "id": "M_170",
        "pitch": 81,
        "t_note_us": 30697591,
        "t_trigger_us": 30561628,
        "is_ai": true,
        "track_id": 1,
        "velocity": 0,
        "is_motor": false,
        "motor_id": 0,
        "accel_val": 2000,
        "base_duration_us": 174418
      },
      {
        "id": "M_168",
        "pitch": 72,
        "t_note_us": 30697591,
        "t_trigger_us": 30561628,
        "is_ai": false,
        "track_id": 0,
        "velocity": 0,
        "is_motor": true,
        "motor_id": 2,
        "accel_val": 2000,
        "base_duration_us": 174418
      },
      {
        "id": "M_169",
        "pitch": 77,
        "t_note_us": 30697591,
        "t_trigger_us": 30561628,
        "is_ai": false,
        "track_id": 0,
        "velocity": 0,
        "is_motor": true,
        "motor_id": 1,
        "accel_val": 2000,
        "base_duration_us": 174418
      },
      {
        "id": "M_171",
        "pitch": 57,
        "t_note_us": 30697591,
        "t_trigger_us": 30561628,
        "is_ai": false,
        "track_id": 0,
        "velocity": 0,
        "is_motor": true,
        "motor_id": 0,
        "accel_val": 2000,
        "base_duration_us": 174418
      },
      {
        "id": "M_172",
        "pitch": 53,
        "t_note_us": 30697591,
        "t_trigger_us": 30561628,
        "is_ai": false,
        "track_id": 0,
        "velocity": 0,
        "is_motor": true,
        "motor_id": 3,
        "accel_val": 2000,
        "base_duration_us": 174418
      },
      {
        "id": "M_173",
        "pitch": 65,
        "t_note_us": 30697591,
        "t_trigger_us": 30561628,
        "is_ai": false,
        "track_id": 0,
        "velocity": 0,
        "is_motor": true,
        "motor_id": 0,
        "accel_val": 2000,
        "base_duration_us": 174418
      },
      {
        "id": "M_174",
        "pitch": 67,
        "t_note_us": 31046427,
        "t_trigger_us": 30910464,
        "is_ai": false,
        "track_id": 0,
        "velocity": 0,
        "is_motor": true,
        "motor_id": 1,
        "accel_val": 2000,
        "base_duration_us": 174418
      },
      {
        "id": "M_175",
        "pitch": 60,
        "t_note_us": 31046427,
        "t_trigger_us": 30910464,
        "is_ai": false,
        "track_id": 0,
        "velocity": 0,
        "is_motor": true,
        "motor_id": 0,
        "accel_val": 2000,
        "base_duration_us": 174418
      },
      {
        "id": "M_176",
        "pitch": 72,
        "t_note_us": 31220845,
        "t_trigger_us": 31084882,
        "is_ai": false,
        "track_id": 0,
        "velocity": 0,
        "is_motor": true,
        "motor_id": 2,
        "accel_val": 2000,
        "base_duration_us": 174418
      },
      {
        "id": "M_177",
        "pitch": 62,
        "t_note_us": 31395263,
        "t_trigger_us": 31259300,
        "is_ai": false,
        "track_id": 0,
        "velocity": 0,
        "is_motor": true,
        "motor_id": 1,
        "accel_val": 2000,
        "base_duration_us": 174418
      },
      {
        "id": "M_178",
        "pitch": 67,
        "t_note_us": 31744099,
        "t_trigger_us": 31608136,
        "is_ai": false,
        "track_id": 0,
        "velocity": 0,
        "is_motor": true,
        "motor_id": 1,
        "accel_val": 2000,
        "base_duration_us": 174418
      },
      {
        "id": "M_179",
        "pitch": 60,
        "t_note_us": 31744099,
        "t_trigger_us": 31608136,
        "is_ai": false,
        "track_id": 0,
        "velocity": 0,
        "is_motor": true,
        "motor_id": 0,
        "accel_val": 2000,
        "base_duration_us": 174418
      },
      {
        "id": "M_180",
        "pitch": 67,
        "t_note_us": 32092935,
        "t_trigger_us": 31956972,
        "is_ai": false,
        "track_id": 0,
        "velocity": 0,
        "is_motor": true,
        "motor_id": 1,
        "accel_val": 2000,
        "base_duration_us": 174418
      },
      {
        "id": "M_181",
        "pitch": 72,
        "t_note_us": 32092935,
        "t_trigger_us": 31956972,
        "is_ai": false,
        "track_id": 0,
        "velocity": 0,
        "is_motor": true,
        "motor_id": 2,
        "accel_val": 2000,
        "base_duration_us": 174418
      },
      {
        "id": "M_182",
        "pitch": 76,
        "t_note_us": 32092935,
        "t_trigger_us": 31956972,
        "is_ai": false,
        "track_id": 0,
        "velocity": 0,
        "is_motor": true,
        "motor_id": 3,
        "accel_val": 2000,
        "base_duration_us": 174418
      },
      {
        "id": "M_183",
        "pitch": 55,
        "t_note_us": 32092935,
        "t_trigger_us": 31956972,
        "is_ai": false,
        "track_id": 0,
        "velocity": 0,
        "is_motor": true,
        "motor_id": 0,
        "accel_val": 2000,
        "base_duration_us": 174418
      },
      {
        "id": "M_184",
        "pitch": 52,
        "t_note_us": 32092935,
        "t_trigger_us": 31956972,
        "is_ai": false,
        "track_id": 0,
        "velocity": 0,
        "is_motor": true,
        "motor_id": 0,
        "accel_val": 2000,
        "base_duration_us": 174418
      },
      {
        "id": "M_185",
        "pitch": 64,
        "t_note_us": 32092935,
        "t_trigger_us": 31956972,
        "is_ai": false,
        "track_id": 0,
        "velocity": 0,
        "is_motor": true,
        "motor_id": 0,
        "accel_val": 2000,
        "base_duration_us": 174418
      },
      {
        "id": "M_186",
        "pitch": 60,
        "t_note_us": 32441771,
        "t_trigger_us": 32305808,
        "is_ai": false,
        "track_id": 0,
        "velocity": 0,
        "is_motor": true,
        "motor_id": 1,
        "accel_val": 2000,
        "base_duration_us": 174418
      },
      {
        "id": "M_187",
        "pitch": 60,
        "t_note_us": 32790607,
        "t_trigger_us": 32654644,
        "is_ai": false,
        "track_id": 0,
        "velocity": 0,
        "is_motor": true,
        "motor_id": 1,
        "accel_val": 2000,
        "base_duration_us": 174418
      },
      {
        "id": "M_188",
        "pitch": 74,
        "t_note_us": 33139443,
        "t_trigger_us": 33003480,
        "is_ai": false,
        "track_id": 0,
        "velocity": 0,
        "is_motor": true,
        "motor_id": 2,
        "accel_val": 2000,
        "base_duration_us": 174418
      },
      {
        "id": "M_189",
        "pitch": 60,
        "t_note_us": 33139443,
        "t_trigger_us": 33003480,
        "is_ai": false,
        "track_id": 0,
        "velocity": 0,
        "is_motor": true,
        "motor_id": 1,
        "accel_val": 2000,
        "base_duration_us": 174418
      },
      {
        "id": "M_190",
        "pitch": 76,
        "t_note_us": 33313861,
        "t_trigger_us": 33177898,
        "is_ai": false,
        "track_id": 0,
        "velocity": 0,
        "is_motor": true,
        "motor_id": 2,
        "accel_val": 2000,
        "base_duration_us": 174418
      },
      {
        "id": "M_191",
        "pitch": 57,
        "t_note_us": 33488279,
        "t_trigger_us": 33352316,
        "is_ai": false,
        "track_id": 0,
        "velocity": 0,
        "is_motor": true,
        "motor_id": 0,
        "accel_val": 2000,
        "base_duration_us": 174418
      },
      {
        "id": "M_192",
        "pitch": 65,
        "t_note_us": 33488279,
        "t_trigger_us": 33352316,
        "is_ai": false,
        "track_id": 0,
        "velocity": 0,
        "is_motor": true,
        "motor_id": 1,
        "accel_val": 2000,
        "base_duration_us": 174418
      },
      {
        "id": "M_193",
        "pitch": 53,
        "t_note_us": 33488279,
        "t_trigger_us": 33352316,
        "is_ai": false,
        "track_id": 0,
        "velocity": 0,
        "is_motor": true,
        "motor_id": 2,
        "accel_val": 2000,
        "base_duration_us": 174418
      },
      {
        "id": "M_194",
        "pitch": 69,
        "t_note_us": 33488279,
        "t_trigger_us": 33352316,
        "is_ai": false,
        "track_id": 0,
        "velocity": 0,
        "is_motor": true,
        "motor_id": 3,
        "accel_val": 2000,
        "base_duration_us": 174418
      },
      {
        "id": "M_195",
        "pitch": 77,
        "t_note_us": 33488279,
        "t_trigger_us": 33352316,
        "is_ai": false,
        "track_id": 0,
        "velocity": 0,
        "is_motor": true,
        "motor_id": 0,
        "accel_val": 2000,
        "base_duration_us": 174418
      },
      {
        "id": "M_196",
        "pitch": 60,
        "t_note_us": 33837115,
        "t_trigger_us": 33701152,
        "is_ai": false,
        "track_id": 0,
        "velocity": 0,
        "is_motor": true,
        "motor_id": 1,
        "accel_val": 2000,
        "base_duration_us": 174418
      },
      {
        "id": "M_198",
        "pitch": 84,
        "t_note_us": 34185951,
        "t_trigger_us": 34049988,
        "is_ai": true,
        "track_id": 3,
        "velocity": 0,
        "is_motor": false,
        "motor_id": 0,
        "accel_val": 2000,
        "base_duration_us": 174418
      },
      {
        "id": "M_197",
        "pitch": 62,
        "t_note_us": 34185951,
        "t_trigger_us": 34049988,
        "is_ai": false,
        "track_id": 0,
        "velocity": 0,
        "is_motor": true,
        "motor_id": 1,
        "accel_val": 2000,
        "base_duration_us": 174418
      },
      {
        "id": "M_200",
        "pitch": 83,
        "t_note_us": 34534787,
        "t_trigger_us": 34398824,
        "is_ai": true,
        "track_id": 2,
        "velocity": 0,
        "is_motor": false,
        "motor_id": 0,
        "accel_val": 2000,
        "base_duration_us": 174418
      },
      {
        "id": "M_199",
        "pitch": 60,
        "t_note_us": 34534787,
        "t_trigger_us": 34398824,
        "is_ai": false,
        "track_id": 0,
        "velocity": 0,
        "is_motor": true,
        "motor_id": 1,
        "accel_val": 2000,
        "base_duration_us": 174418
      },
      {
        "id": "M_201",
        "pitch": 84,
        "t_note_us": 34709205,
        "t_trigger_us": 34573242,
        "is_ai": true,
        "track_id": 3,
        "velocity": 0,
        "is_motor": false,
        "motor_id": 0,
        "accel_val": 2000,
        "base_duration_us": 174418
      },
      {
        "id": "M_202",
        "pitch": 55,
        "t_note_us": 34883623,
        "t_trigger_us": 34747660,
        "is_ai": false,
        "track_id": 0,
        "velocity": 0,
        "is_motor": true,
        "motor_id": 0,
        "accel_val": 2000,
        "base_duration_us": 174418
      },
      {
        "id": "M_203",
        "pitch": 64,
        "t_note_us": 34883623,
        "t_trigger_us": 34747660,
        "is_ai": false,
        "track_id": 0,
        "velocity": 0,
        "is_motor": true,
        "motor_id": 1,
        "accel_val": 2000,
        "base_duration_us": 174418
      },
      {
        "id": "M_204",
        "pitch": 52,
        "t_note_us": 34883623,
        "t_trigger_us": 34747660,
        "is_ai": false,
        "track_id": 0,
        "velocity": 0,
        "is_motor": true,
        "motor_id": 2,
        "accel_val": 2000,
        "base_duration_us": 174418
      },
      {
        "id": "M_205",
        "pitch": 72,
        "t_note_us": 34883623,
        "t_trigger_us": 34747660,
        "is_ai": false,
        "track_id": 0,
        "velocity": 0,
        "is_motor": true,
        "motor_id": 3,
        "accel_val": 2000,
        "base_duration_us": 174418
      },
      {
        "id": "M_206",
        "pitch": 76,
        "t_note_us": 34883623,
        "t_trigger_us": 34747660,
        "is_ai": false,
        "track_id": 0,
        "velocity": 0,
        "is_motor": true,
        "motor_id": 0,
        "accel_val": 2000,
        "base_duration_us": 174418
      },
      {
        "id": "M_207",
        "pitch": 67,
        "t_note_us": 34883623,
        "t_trigger_us": 34747660,
        "is_ai": false,
        "track_id": 0,
        "velocity": 0,
        "is_motor": true,
        "motor_id": 0,
        "accel_val": 2000,
        "base_duration_us": 174418
      },
      {
        "id": "M_208",
        "pitch": 60,
        "t_note_us": 35232459,
        "t_trigger_us": 35096496,
        "is_ai": false,
        "track_id": 0,
        "velocity": 0,
        "is_motor": true,
        "motor_id": 1,
        "accel_val": 2000,
        "base_duration_us": 174418
      },
      {
        "id": "M_209",
        "pitch": 60,
        "t_note_us": 35581295,
        "t_trigger_us": 35445332,
        "is_ai": false,
        "track_id": 0,
        "velocity": 0,
        "is_motor": true,
        "motor_id": 1,
        "accel_val": 2000,
        "base_duration_us": 174418
      },
      {
        "id": "M_210",
        "pitch": 77,
        "t_note_us": 35581295,
        "t_trigger_us": 35445332,
        "is_ai": false,
        "track_id": 0,
        "velocity": 0,
        "is_motor": true,
        "motor_id": 2,
        "accel_val": 2000,
        "base_duration_us": 174418
      },
      {
        "id": "M_211",
        "pitch": 60,
        "t_note_us": 35930131,
        "t_trigger_us": 35794168,
        "is_ai": false,
        "track_id": 0,
        "velocity": 0,
        "is_motor": true,
        "motor_id": 1,
        "accel_val": 2000,
        "base_duration_us": 174418
      },
      {
        "id": "M_212",
        "pitch": 76,
        "t_note_us": 35930131,
        "t_trigger_us": 35794168,
        "is_ai": false,
        "track_id": 0,
        "velocity": 0,
        "is_motor": true,
        "motor_id": 2,
        "accel_val": 2000,
        "base_duration_us": 174418
      },
      {
        "id": "M_213",
        "pitch": 77,
        "t_note_us": 36104549,
        "t_trigger_us": 35968586,
        "is_ai": false,
        "track_id": 0,
        "velocity": 0,
        "is_motor": true,
        "motor_id": 2,
        "accel_val": 2000,
        "base_duration_us": 174418
      },
      {
        "id": "M_214",
        "pitch": 54,
        "t_note_us": 36278967,
        "t_trigger_us": 36143004,
        "is_ai": false,
        "track_id": 0,
        "velocity": 0,
        "is_motor": true,
        "motor_id": 0,
        "accel_val": 2000,
        "base_duration_us": 174418
      },
      {
        "id": "M_215",
        "pitch": 51,
        "t_note_us": 36278967,
        "t_trigger_us": 36143004,
        "is_ai": false,
        "track_id": 0,
        "velocity": 0,
        "is_motor": true,
        "motor_id": 1,
        "accel_val": 2000,
        "base_duration_us": 174418
      },
      {
        "id": "M_216",
        "pitch": 63,
        "t_note_us": 36278967,
        "t_trigger_us": 36143004,
        "is_ai": false,
        "track_id": 0,
        "velocity": 0,
        "is_motor": true,
        "motor_id": 2,
        "accel_val": 2000,
        "base_duration_us": 174418
      },
      {
        "id": "M_217",
        "pitch": 75,
        "t_note_us": 36278967,
        "t_trigger_us": 36143004,
        "is_ai": false,
        "track_id": 0,
        "velocity": 0,
        "is_motor": true,
        "motor_id": 3,
        "accel_val": 2000,
        "base_duration_us": 174418
      },
      {
        "id": "M_218",
        "pitch": 78,
        "t_note_us": 36278967,
        "t_trigger_us": 36143004,
        "is_ai": false,
        "track_id": 0,
        "velocity": 0,
        "is_motor": true,
        "motor_id": 0,
        "accel_val": 2000,
        "base_duration_us": 174418
      },
      {
        "id": "M_219",
        "pitch": 54,
        "t_note_us": 36627803,
        "t_trigger_us": 36491840,
        "is_ai": false,
        "track_id": 0,
        "velocity": 0,
        "is_motor": true,
        "motor_id": 0,
        "accel_val": 2000,
        "base_duration_us": 174418
      },
      {
        "id": "M_221",
        "pitch": 84,
        "t_note_us": 36976639,
        "t_trigger_us": 36840676,
        "is_ai": true,
        "track_id": 3,
        "velocity": 0,
        "is_motor": false,
        "motor_id": 0,
        "accel_val": 2000,
        "base_duration_us": 174418
      },
      {
        "id": "M_220",
        "pitch": 60,
        "t_note_us": 36976639,
        "t_trigger_us": 36840676,
        "is_ai": false,
        "track_id": 0,
        "velocity": 0,
        "is_motor": true,
        "motor_id": 1,
        "accel_val": 2000,
        "base_duration_us": 174418
      },
      {
        "id": "M_223",
        "pitch": 83,
        "t_note_us": 37325475,
        "t_trigger_us": 37189512,
        "is_ai": true,
        "track_id": 2,
        "velocity": 0,
        "is_motor": false,
        "motor_id": 0,
        "accel_val": 2000,
        "base_duration_us": 174418
      },
      {
        "id": "M_222",
        "pitch": 51,
        "t_note_us": 37325475,
        "t_trigger_us": 37189512,
        "is_ai": false,
        "track_id": 0,
        "velocity": 0,
        "is_motor": true,
        "motor_id": 0,
        "accel_val": 2000,
        "base_duration_us": 174418
      },
      {
        "id": "M_224",
        "pitch": 81,
        "t_note_us": 37499893,
        "t_trigger_us": 37363930,
        "is_ai": true,
        "track_id": 1,
        "velocity": 0,
        "is_motor": false,
        "motor_id": 0,
        "accel_val": 2000,
        "base_duration_us": 174418
      },
      {
        "id": "M_225",
        "pitch": 56,
        "t_note_us": 37674311,
        "t_trigger_us": 37538348,
        "is_ai": false,
        "track_id": 0,
        "velocity": 0,
        "is_motor": true,
        "motor_id": 0,
        "accel_val": 2000,
        "base_duration_us": 174418
      },
      {
        "id": "M_226",
        "pitch": 64,
        "t_note_us": 37674311,
        "t_trigger_us": 37538348,
        "is_ai": false,
        "track_id": 0,
        "velocity": 0,
        "is_motor": true,
        "motor_id": 1,
        "accel_val": 2000,
        "base_duration_us": 174418
      },
      {
        "id": "M_227",
        "pitch": 52,
        "t_note_us": 37674311,
        "t_trigger_us": 37538348,
        "is_ai": false,
        "track_id": 0,
        "velocity": 0,
        "is_motor": true,
        "motor_id": 2,
        "accel_val": 2000,
        "base_duration_us": 174418
      },
      {
        "id": "M_228",
        "pitch": 76,
        "t_note_us": 37674311,
        "t_trigger_us": 37538348,
        "is_ai": false,
        "track_id": 0,
        "velocity": 0,
        "is_motor": true,
        "motor_id": 3,
        "accel_val": 2000,
        "base_duration_us": 174418
      },
      {
        "id": "M_229",
        "pitch": 68,
        "t_note_us": 37674311,
        "t_trigger_us": 37538348,
        "is_ai": false,
        "track_id": 0,
        "velocity": 0,
        "is_motor": true,
        "motor_id": 0,
        "accel_val": 2000,
        "base_duration_us": 174418
      },
      {
        "id": "M_230",
        "pitch": 56,
        "t_note_us": 38023147,
        "t_trigger_us": 37887184,
        "is_ai": false,
        "track_id": 0,
        "velocity": 0,
        "is_motor": true,
        "motor_id": 0,
        "accel_val": 2000,
        "base_duration_us": 174418
      },
      {
        "id": "M_231",
        "pitch": 64,
        "t_note_us": 38371983,
        "t_trigger_us": 38236020,
        "is_ai": false,
        "track_id": 0,
        "velocity": 0,
        "is_motor": true,
        "motor_id": 1,
        "accel_val": 2000,
        "base_duration_us": 174418
      },
      {
        "id": "M_232",
        "pitch": 84,
        "t_note_us": 38720819,
        "t_trigger_us": 38584856,
        "is_ai": true,
        "track_id": 3,
        "velocity": 0,
        "is_motor": false,
        "motor_id": 0,
        "accel_val": 2000,
        "base_duration_us": 174418
      },
      {
        "id": "M_233",
        "pitch": 86,
        "t_note_us": 38895237,
        "t_trigger_us": 38759274,
        "is_ai": true,
        "track_id": 4,
        "velocity": 0,
        "is_motor": false,
        "motor_id": 0,
        "accel_val": 2000,
        "base_duration_us": 174418
      },
      {
        "id": "M_237",
        "pitch": 81,
        "t_note_us": 39069655,
        "t_trigger_us": 38933692,
        "is_ai": true,
        "track_id": 1,
        "velocity": 0,
        "is_motor": false,
        "motor_id": 0,
        "accel_val": 2000,
        "base_duration_us": 174418
      },
      {
        "id": "M_239",
        "pitch": 88,
        "t_note_us": 39069655,
        "t_trigger_us": 38933692,
        "is_ai": true,
        "track_id": 5,
        "velocity": 0,
        "is_motor": false,
        "motor_id": 0,
        "accel_val": 2000,
        "base_duration_us": 174418
      },
      {
        "id": "M_234",
        "pitch": 64,
        "t_note_us": 39069655,
        "t_trigger_us": 38933692,
        "is_ai": false,
        "track_id": 0,
        "velocity": 0,
        "is_motor": true,
        "motor_id": 1,
        "accel_val": 2000,
        "base_duration_us": 174418
      },
      {
        "id": "M_235",
        "pitch": 69,
        "t_note_us": 39069655,
        "t_trigger_us": 38933692,
        "is_ai": false,
        "track_id": 0,
        "velocity": 0,
        "is_motor": true,
        "motor_id": 2,
        "accel_val": 2000,
        "base_duration_us": 174418
      },
      {
        "id": "M_236",
        "pitch": 57,
        "t_note_us": 39069655,
        "t_trigger_us": 38933692,
        "is_ai": false,
        "track_id": 0,
        "velocity": 0,
        "is_motor": true,
        "motor_id": 0,
        "accel_val": 2000,
        "base_duration_us": 174418
      },
      {
        "id": "M_238",
        "pitch": 76,
        "t_note_us": 39069655,
        "t_trigger_us": 38933692,
        "is_ai": false,
        "track_id": 0,
        "velocity": 0,
        "is_motor": true,
        "motor_id": 3,
        "accel_val": 2000,
        "base_duration_us": 174418
      },
      {
        "id": "M_241",
        "pitch": 84,
        "t_note_us": 39418491,
        "t_trigger_us": 39282528,
        "is_ai": true,
        "track_id": 3,
        "velocity": 0,
        "is_motor": false,
        "motor_id": 0,
        "accel_val": 2000,
        "base_duration_us": 174418
      },
      {
        "id": "M_240",
        "pitch": 64,
        "t_note_us": 39418491,
        "t_trigger_us": 39282528,
        "is_ai": false,
        "track_id": 0,
        "velocity": 0,
        "is_motor": true,
        "motor_id": 1,
        "accel_val": 2000,
        "base_duration_us": 174418
      },
      {
        "id": "M_242",
        "pitch": 81,
        "t_note_us": 39592909,
        "t_trigger_us": 39456946,
        "is_ai": true,
        "track_id": 1,
        "velocity": 0,
        "is_motor": false,
        "motor_id": 0,
        "accel_val": 2000,
        "base_duration_us": 174418
      },
      {
        "id": "M_243",
        "pitch": 69,
        "t_note_us": 39767327,
        "t_trigger_us": 39631364,
        "is_ai": false,
        "track_id": 0,
        "velocity": 0,
        "is_motor": true,
        "motor_id": 1,
        "accel_val": 2000,
        "base_duration_us": 174418
      },
      {
        "id": "M_245",
        "pitch": 86,
        "t_note_us": 40116163,
        "t_trigger_us": 39980200,
        "is_ai": true,
        "track_id": 4,
        "velocity": 0,
        "is_motor": false,
        "motor_id": 0,
        "accel_val": 2000,
        "base_duration_us": 174418
      },
      {
        "id": "M_244",
        "pitch": 57,
        "t_note_us": 40116163,
        "t_trigger_us": 39980200,
        "is_ai": false,
        "track_id": 0,
        "velocity": 0,
        "is_motor": true,
        "motor_id": 0,
        "accel_val": 2000,
        "base_duration_us": 174418
      },
      {
        "id": "M_250",
        "pitch": 83,
        "t_note_us": 40464999,
        "t_trigger_us": 40329036,
        "is_ai": true,
        "track_id": 2,
        "velocity": 0,
        "is_motor": false,
        "motor_id": 0,
        "accel_val": 2000,
        "base_duration_us": 174418
      },
      {
        "id": "M_246",
        "pitch": 62,
        "t_note_us": 40464999,
        "t_trigger_us": 40329036,
        "is_ai": false,
        "track_id": 0,
        "velocity": 0,
        "is_motor": true,
        "motor_id": 1,
        "accel_val": 2000,
        "base_duration_us": 174418
      },
      {
        "id": "M_247",
        "pitch": 55,
        "t_note_us": 40464999,
        "t_trigger_us": 40329036,
        "is_ai": false,
        "track_id": 0,
        "velocity": 0,
        "is_motor": true,
        "motor_id": 0,
        "accel_val": 2000,
        "base_duration_us": 174418
      },
      {
        "id": "M_248",
        "pitch": 67,
        "t_note_us": 40464999,
        "t_trigger_us": 40329036,
        "is_ai": false,
        "track_id": 0,
        "velocity": 0,
        "is_motor": true,
        "motor_id": 2,
        "accel_val": 2000,
        "base_duration_us": 174418
      },
      {
        "id": "M_249",
        "pitch": 74,
        "t_note_us": 40464999,
        "t_trigger_us": 40329036,
        "is_ai": false,
        "track_id": 0,
        "velocity": 0,
        "is_motor": true,
        "motor_id": 3,
        "accel_val": 2000,
        "base_duration_us": 174418
      },
      {
        "id": "M_251",
        "pitch": 62,
        "t_note_us": 40813835,
        "t_trigger_us": 40677872,
        "is_ai": false,
        "track_id": 0,
        "velocity": 0,
        "is_motor": true,
        "motor_id": 1,
        "accel_val": 2000,
        "base_duration_us": 174418
      },
      {
        "id": "M_252",
        "pitch": 67,
        "t_note_us": 40813835,
        "t_trigger_us": 40677872,
        "is_ai": false,
        "track_id": 0,
        "velocity": 0,
        "is_motor": true,
        "motor_id": 2,
        "accel_val": 2000,
        "base_duration_us": 174418
      },
      {
        "id": "M_253",
        "pitch": 76,
        "t_note_us": 40988253,
        "t_trigger_us": 40852290,
        "is_ai": false,
        "track_id": 0,
        "velocity": 0,
        "is_motor": true,
        "motor_id": 2,
        "accel_val": 2000,
        "base_duration_us": 174418
      },
      {
        "id": "M_254",
        "pitch": 67,
        "t_note_us": 41162671,
        "t_trigger_us": 41026708,
        "is_ai": false,
        "track_id": 0,
        "velocity": 0,
        "is_motor": true,
        "motor_id": 1,
        "accel_val": 2000,
        "base_duration_us": 174418
      },
      {
        "id": "M_255",
        "pitch": 72,
        "t_note_us": 41162671,
        "t_trigger_us": 41026708,
        "is_ai": false,
        "track_id": 0,
        "velocity": 0,
        "is_motor": true,
        "motor_id": 2,
        "accel_val": 2000,
        "base_duration_us": 174418
      },
      {
        "id": "M_258",
        "pitch": 83,
        "t_note_us": 41511507,
        "t_trigger_us": 41375544,
        "is_ai": true,
        "track_id": 2,
        "velocity": 0,
        "is_motor": false,
        "motor_id": 0,
        "accel_val": 2000,
        "base_duration_us": 174418
      },
      {
        "id": "M_256",
        "pitch": 60,
        "t_note_us": 41511507,
        "t_trigger_us": 41375544,
        "is_ai": false,
        "track_id": 0,
        "velocity": 0,
        "is_motor": true,
        "motor_id": 1,
        "accel_val": 2000,
        "base_duration_us": 174418
      },
      {
        "id": "M_257",
        "pitch": 74,
        "t_note_us": 41511507,
        "t_trigger_us": 41375544,
        "is_ai": false,
        "track_id": 0,
        "velocity": 0,
        "is_motor": true,
        "motor_id": 2,
        "accel_val": 2000,
        "base_duration_us": 174418
      },
      {
        "id": "M_263",
        "pitch": 81,
        "t_note_us": 41860343,
        "t_trigger_us": 41724380,
        "is_ai": true,
        "track_id": 1,
        "velocity": 0,
        "is_motor": false,
        "motor_id": 0,
        "accel_val": 2000,
        "base_duration_us": 174418
      },
      {
        "id": "M_259",
        "pitch": 57,
        "t_note_us": 41860343,
        "t_trigger_us": 41724380,
        "is_ai": false,
        "track_id": 0,
        "velocity": 0,
        "is_motor": true,
        "motor_id": 0,
        "accel_val": 2000,
        "base_duration_us": 174418
      },
      {
        "id": "M_260",
        "pitch": 53,
        "t_note_us": 41860343,
        "t_trigger_us": 41724380,
        "is_ai": false,
        "track_id": 0,
        "velocity": 0,
        "is_motor": true,
        "motor_id": 1,
        "accel_val": 2000,
        "base_duration_us": 174418
      },
      {
        "id": "M_261",
        "pitch": 65,
        "t_note_us": 41860343,
        "t_trigger_us": 41724380,
        "is_ai": false,
        "track_id": 0,
        "velocity": 0,
        "is_motor": true,
        "motor_id": 2,
        "accel_val": 2000,
        "base_duration_us": 174418
      },
      {
        "id": "M_262",
        "pitch": 77,
        "t_note_us": 41860343,
        "t_trigger_us": 41724380,
        "is_ai": false,
        "track_id": 0,
        "velocity": 0,
        "is_motor": true,
        "motor_id": 3,
        "accel_val": 2000,
        "base_duration_us": 174418
      },
      {
        "id": "M_264",
        "pitch": 60,
        "t_note_us": 42209179,
        "t_trigger_us": 42073216,
        "is_ai": false,
        "track_id": 0,
        "velocity": 0,
        "is_motor": true,
        "motor_id": 1,
        "accel_val": 2000,
        "base_duration_us": 174418
      },
      {
        "id": "M_265",
        "pitch": 67,
        "t_note_us": 42209179,
        "t_trigger_us": 42073216,
        "is_ai": false,
        "track_id": 0,
        "velocity": 0,
        "is_motor": true,
        "motor_id": 2,
        "accel_val": 2000,
        "base_duration_us": 174418
      },
      {
        "id": "M_266",
        "pitch": 72,
        "t_note_us": 42383597,
        "t_trigger_us": 42247634,
        "is_ai": false,
        "track_id": 0,
        "velocity": 0,
        "is_motor": true,
        "motor_id": 2,
        "accel_val": 2000,
        "base_duration_us": 174418
      },
      {
        "id": "M_267",
        "pitch": 65,
        "t_note_us": 42558015,
        "t_trigger_us": 42422052,
        "is_ai": false,
        "track_id": 0,
        "velocity": 0,
        "is_motor": true,
        "motor_id": 1,
        "accel_val": 2000,
        "base_duration_us": 174418
      },
      {
        "id": "M_268",
        "pitch": 72,
        "t_note_us": 42558015,
        "t_trigger_us": 42422052,
        "is_ai": false,
        "track_id": 0,
        "velocity": 0,
        "is_motor": true,
        "motor_id": 2,
        "accel_val": 2000,
        "base_duration_us": 174418
      },
      {
        "id": "M_269",
        "pitch": 74,
        "t_note_us": 42558015,
        "t_trigger_us": 42422052,
        "is_ai": false,
        "track_id": 0,
        "velocity": 0,
        "is_motor": true,
        "motor_id": 3,
        "accel_val": 2000,
        "base_duration_us": 174418
      },
      {
        "id": "M_270",
        "pitch": 62,
        "t_note_us": 42906851,
        "t_trigger_us": 42770888,
        "is_ai": false,
        "track_id": 0,
        "velocity": 0,
        "is_motor": true,
        "motor_id": 1,
        "accel_val": 2000,
        "base_duration_us": 174418
      },
      {
        "id": "M_271",
        "pitch": 74,
        "t_note_us": 42906851,
        "t_trigger_us": 42770888,
        "is_ai": false,
        "track_id": 0,
        "velocity": 0,
        "is_motor": true,
        "motor_id": 2,
        "accel_val": 2000,
        "base_duration_us": 174418
      },
      {
        "id": "M_272",
        "pitch": 67,
        "t_note_us": 42906851,
        "t_trigger_us": 42770888,
        "is_ai": false,
        "track_id": 0,
        "velocity": 0,
        "is_motor": true,
        "motor_id": 0,
        "accel_val": 2000,
        "base_duration_us": 174418
      },
      {
        "id": "M_273",
        "pitch": 60,
        "t_note_us": 43255687,
        "t_trigger_us": 43119724,
        "is_ai": false,
        "track_id": 0,
        "velocity": 0,
        "is_motor": true,
        "motor_id": 1,
        "accel_val": 2000,
        "base_duration_us": 174418
      },
      {
        "id": "M_274",
        "pitch": 52,
        "t_note_us": 43255687,
        "t_trigger_us": 43119724,
        "is_ai": false,
        "track_id": 0,
        "velocity": 0,
        "is_motor": true,
        "motor_id": 0,
        "accel_val": 2000,
        "base_duration_us": 174418
      },
      {
        "id": "M_275",
        "pitch": 64,
        "t_note_us": 43255687,
        "t_trigger_us": 43119724,
        "is_ai": false,
        "track_id": 0,
        "velocity": 0,
        "is_motor": true,
        "motor_id": 2,
        "accel_val": 2000,
        "base_duration_us": 174418
      },
      {
        "id": "M_276",
        "pitch": 72,
        "t_note_us": 43255687,
        "t_trigger_us": 43119724,
        "is_ai": false,
        "track_id": 0,
        "velocity": 0,
        "is_motor": true,
        "motor_id": 3,
        "accel_val": 2000,
        "base_duration_us": 174418
      },
      {
        "id": "M_277",
        "pitch": 76,
        "t_note_us": 43255687,
        "t_trigger_us": 43119724,
        "is_ai": false,
        "track_id": 0,
        "velocity": 0,
        "is_motor": true,
        "motor_id": 0,
        "accel_val": 2000,
        "base_duration_us": 174418
      },
      {
        "id": "M_278",
        "pitch": 60,
        "t_note_us": 43604523,
        "t_trigger_us": 43468560,
        "is_ai": false,
        "track_id": 0,
        "velocity": 0,
        "is_motor": true,
        "motor_id": 1,
        "accel_val": 2000,
        "base_duration_us": 174418
      },
      {
        "id": "M_279",
        "pitch": 64,
        "t_note_us": 43953359,
        "t_trigger_us": 43817396,
        "is_ai": false,
        "track_id": 0,
        "velocity": 0,
        "is_motor": true,
        "motor_id": 1,
        "accel_val": 2000,
        "base_duration_us": 174418
      },
      {
        "id": "M_280",
        "pitch": 72,
        "t_note_us": 43953359,
        "t_trigger_us": 43817396,
        "is_ai": false,
        "track_id": 0,
        "velocity": 0,
        "is_motor": true,
        "motor_id": 2,
        "accel_val": 2000,
        "base_duration_us": 174418
      },
      {
        "id": "M_281",
        "pitch": 60,
        "t_note_us": 44302195,
        "t_trigger_us": 44166232,
        "is_ai": false,
        "track_id": 0,
        "velocity": 0,
        "is_motor": true,
        "motor_id": 1,
        "accel_val": 2000,
        "base_duration_us": 174418
      },
      {
        "id": "M_282",
        "pitch": 74,
        "t_note_us": 44302195,
        "t_trigger_us": 44166232,
        "is_ai": false,
        "track_id": 0,
        "velocity": 0,
        "is_motor": true,
        "motor_id": 2,
        "accel_val": 2000,
        "base_duration_us": 174418
      },
      {
        "id": "M_283",
        "pitch": 76,
        "t_note_us": 44476613,
        "t_trigger_us": 44340650,
        "is_ai": false,
        "track_id": 0,
        "velocity": 0,
        "is_motor": true,
        "motor_id": 2,
        "accel_val": 2000,
        "base_duration_us": 174418
      },
      {
        "id": "M_284",
        "pitch": 57,
        "t_note_us": 44651031,
        "t_trigger_us": 44515068,
        "is_ai": false,
        "track_id": 0,
        "velocity": 0,
        "is_motor": true,
        "motor_id": 0,
        "accel_val": 2000,
        "base_duration_us": 174418
      },
      {
        "id": "M_285",
        "pitch": 53,
        "t_note_us": 44651031,
        "t_trigger_us": 44515068,
        "is_ai": false,
        "track_id": 0,
        "velocity": 0,
        "is_motor": true,
        "motor_id": 1,
        "accel_val": 2000,
        "base_duration_us": 174418
      },
      {
        "id": "M_286",
        "pitch": 65,
        "t_note_us": 44651031,
        "t_trigger_us": 44515068,
        "is_ai": false,
        "track_id": 0,
        "velocity": 0,
        "is_motor": true,
        "motor_id": 2,
        "accel_val": 2000,
        "base_duration_us": 174418
      },
      {
        "id": "M_287",
        "pitch": 77,
        "t_note_us": 44651031,
        "t_trigger_us": 44515068,
        "is_ai": false,
        "track_id": 0,
        "velocity": 0,
        "is_motor": true,
        "motor_id": 3,
        "accel_val": 2000,
        "base_duration_us": 174418
      },
      {
        "id": "M_288",
        "pitch": 57,
        "t_note_us": 44999867,
        "t_trigger_us": 44863904,
        "is_ai": false,
        "track_id": 0,
        "velocity": 0,
        "is_motor": true,
        "motor_id": 0,
        "accel_val": 2000,
        "base_duration_us": 174418
      },
      {
        "id": "M_289",
        "pitch": 65,
        "t_note_us": 45348703,
        "t_trigger_us": 45212740,
        "is_ai": false,
        "track_id": 0,
        "velocity": 0,
        "is_motor": true,
        "motor_id": 1,
        "accel_val": 2000,
        "base_duration_us": 174418
      },
      {
        "id": "M_290",
        "pitch": 74,
        "t_note_us": 45348703,
        "t_trigger_us": 45212740,
        "is_ai": false,
        "track_id": 0,
        "velocity": 0,
        "is_motor": true,
        "motor_id": 2,
        "accel_val": 2000,
        "base_duration_us": 174418
      },
      {
        "id": "M_291",
        "pitch": 67,
        "t_note_us": 45348703,
        "t_trigger_us": 45212740,
        "is_ai": false,
        "track_id": 0,
        "velocity": 0,
        "is_motor": true,
        "motor_id": 0,
        "accel_val": 2000,
        "base_duration_us": 174418
      },
      {
        "id": "M_292",
        "pitch": 53,
        "t_note_us": 45697539,
        "t_trigger_us": 45561576,
        "is_ai": false,
        "track_id": 0,
        "velocity": 0,
        "is_motor": true,
        "motor_id": 0,
        "accel_val": 2000,
        "base_duration_us": 174418
      },
      {
        "id": "M_293",
        "pitch": 77,
        "t_note_us": 45697539,
        "t_trigger_us": 45561576,
        "is_ai": false,
        "track_id": 0,
        "velocity": 0,
        "is_motor": true,
        "motor_id": 2,
        "accel_val": 2000,
        "base_duration_us": 174418
      },
      {
        "id": "M_294",
        "pitch": 67,
        "t_note_us": 45871957,
        "t_trigger_us": 45735994,
        "is_ai": false,
        "track_id": 0,
        "velocity": 0,
        "is_motor": true,
        "motor_id": 1,
        "accel_val": 2000,
        "base_duration_us": 174418
      },
      {
        "id": "M_295",
        "pitch": 55,
        "t_note_us": 46046375,
        "t_trigger_us": 45910412,
        "is_ai": false,
        "track_id": 0,
        "velocity": 0,
        "is_motor": true,
        "motor_id": 0,
        "accel_val": 2000,
        "base_duration_us": 174418
      },
      {
        "id": "M_296",
        "pitch": 52,
        "t_note_us": 46046375,
        "t_trigger_us": 45910412,
        "is_ai": false,
        "track_id": 0,
        "velocity": 0,
        "is_motor": true,
        "motor_id": 1,
        "accel_val": 2000,
        "base_duration_us": 174418
      },
      {
        "id": "M_297",
        "pitch": 64,
        "t_note_us": 46046375,
        "t_trigger_us": 45910412,
        "is_ai": false,
        "track_id": 0,
        "velocity": 0,
        "is_motor": true,
        "motor_id": 2,
        "accel_val": 2000,
        "base_duration_us": 174418
      },
      {
        "id": "M_298",
        "pitch": 76,
        "t_note_us": 46046375,
        "t_trigger_us": 45910412,
        "is_ai": false,
        "track_id": 0,
        "velocity": 0,
        "is_motor": true,
        "motor_id": 3,
        "accel_val": 2000,
        "base_duration_us": 174418
      },
      {
        "id": "M_300",
        "pitch": 79,
        "t_note_us": 46395211,
        "t_trigger_us": 46259248,
        "is_ai": true,
        "track_id": 0,
        "velocity": 0,
        "is_motor": false,
        "motor_id": 0,
        "accel_val": 2000,
        "base_duration_us": 174418
      },
      {
        "id": "M_299",
        "pitch": 55,
        "t_note_us": 46395211,
        "t_trigger_us": 46259248,
        "is_ai": false,
        "track_id": 0,
        "velocity": 0,
        "is_motor": true,
        "motor_id": 0,
        "accel_val": 2000,
        "base_duration_us": 174418
      },
      {
        "id": "M_303",
        "pitch": 84,
        "t_note_us": 46744047,
        "t_trigger_us": 46608084,
        "is_ai": true,
        "track_id": 3,
        "velocity": 0,
        "is_motor": false,
        "motor_id": 0,
        "accel_val": 2000,
        "base_duration_us": 174418
      },
      {
        "id": "M_301",
        "pitch": 64,
        "t_note_us": 46744047,
        "t_trigger_us": 46608084,
        "is_ai": false,
        "track_id": 0,
        "velocity": 0,
        "is_motor": true,
        "motor_id": 1,
        "accel_val": 2000,
        "base_duration_us": 174418
      },
      {
        "id": "M_302",
        "pitch": 72,
        "t_note_us": 46744047,
        "t_trigger_us": 46608084,
        "is_ai": false,
        "track_id": 0,
        "velocity": 0,
        "is_motor": true,
        "motor_id": 2,
        "accel_val": 2000,
        "base_duration_us": 174418
      },
      {
        "id": "M_306",
        "pitch": 88,
        "t_note_us": 47092883,
        "t_trigger_us": 46956920,
        "is_ai": true,
        "track_id": 5,
        "velocity": 0,
        "is_motor": false,
        "motor_id": 0,
        "accel_val": 2000,
        "base_duration_us": 174418
      },
      {
        "id": "M_304",
        "pitch": 52,
        "t_note_us": 47092883,
        "t_trigger_us": 46956920,
        "is_ai": false,
        "track_id": 0,
        "velocity": 0,
        "is_motor": true,
        "motor_id": 0,
        "accel_val": 2000,
        "base_duration_us": 174418
      },
      {
        "id": "M_305",
        "pitch": 76,
        "t_note_us": 47092883,
        "t_trigger_us": 46956920,
        "is_ai": false,
        "track_id": 0,
        "velocity": 0,
        "is_motor": true,
        "motor_id": 2,
        "accel_val": 2000,
        "base_duration_us": 174418
      },
      {
        "id": "M_311",
        "pitch": 86,
        "t_note_us": 47441719,
        "t_trigger_us": 47305756,
        "is_ai": true,
        "track_id": 4,
        "velocity": 0,
        "is_motor": false,
        "motor_id": 0,
        "accel_val": 2000,
        "base_duration_us": 174418
      },
      {
        "id": "M_307",
        "pitch": 53,
        "t_note_us": 47441719,
        "t_trigger_us": 47305756,
        "is_ai": false,
        "track_id": 0,
        "velocity": 0,
        "is_motor": true,
        "motor_id": 0,
        "accel_val": 2000,
        "base_duration_us": 174418
      },
      {
        "id": "M_308",
        "pitch": 62,
        "t_note_us": 47441719,
        "t_trigger_us": 47305756,
        "is_ai": false,
        "track_id": 0,
        "velocity": 0,
        "is_motor": true,
        "motor_id": 1,
        "accel_val": 2000,
        "base_duration_us": 174418
      },
      {
        "id": "M_309",
        "pitch": 50,
        "t_note_us": 47441719,
        "t_trigger_us": 47305756,
        "is_ai": false,
        "track_id": 0,
        "velocity": 0,
        "is_motor": true,
        "motor_id": 2,
        "accel_val": 2000,
        "base_duration_us": 174418
      },
      {
        "id": "M_310",
        "pitch": 77,
        "t_note_us": 47441719,
        "t_trigger_us": 47305756,
        "is_ai": false,
        "track_id": 0,
        "velocity": 0,
        "is_motor": true,
        "motor_id": 3,
        "accel_val": 2000,
        "base_duration_us": 174418
      },
      {
        "id": "M_312",
        "pitch": 53,
        "t_note_us": 47790555,
        "t_trigger_us": 47654592,
        "is_ai": false,
        "track_id": 0,
        "velocity": 0,
        "is_motor": true,
        "motor_id": 0,
        "accel_val": 2000,
        "base_duration_us": 174418
      },
      {
        "id": "M_313",
        "pitch": 86,
        "t_note_us": 47964973,
        "t_trigger_us": 47829010,
        "is_ai": true,
        "track_id": 4,
        "velocity": 0,
        "is_motor": false,
        "motor_id": 0,
        "accel_val": 2000,
        "base_duration_us": 174418
      },
      {
        "id": "M_318",
        "pitch": 86,
        "t_note_us": 48139391,
        "t_trigger_us": 48003428,
        "is_ai": true,
        "track_id": 4,
        "velocity": 0,
        "is_motor": false,
        "motor_id": 0,
        "accel_val": 2000,
        "base_duration_us": 174418
      },
      {
        "id": "M_314",
        "pitch": 62,
        "t_note_us": 48139391,
        "t_trigger_us": 48003428,
        "is_ai": false,
        "track_id": 0,
        "velocity": 0,
        "is_motor": true,
        "motor_id": 1,
        "accel_val": 2000,
        "base_duration_us": 174418
      },
      {
        "id": "M_315",
        "pitch": 67,
        "t_note_us": 48139391,
        "t_trigger_us": 48003428,
        "is_ai": false,
        "track_id": 0,
        "velocity": 0,
        "is_motor": true,
        "motor_id": 2,
        "accel_val": 2000,
        "base_duration_us": 174418
      },
      {
        "id": "M_316",
        "pitch": 55,
        "t_note_us": 48139391,
        "t_trigger_us": 48003428,
        "is_ai": false,
        "track_id": 0,
        "velocity": 0,
        "is_motor": true,
        "motor_id": 0,
        "accel_val": 2000,
        "base_duration_us": 174418
      },
      {
        "id": "M_317",
        "pitch": 67,
        "t_note_us": 48139391,
        "t_trigger_us": 48003428,
        "is_ai": false,
        "track_id": 0,
        "velocity": 0,
        "is_motor": true,
        "motor_id": 3,
        "accel_val": 2000,
        "base_duration_us": 174418
      },
      {
        "id": "M_319",
        "pitch": 84,
        "t_note_us": 48313809,
        "t_trigger_us": 48177846,
        "is_ai": true,
        "track_id": 3,
        "velocity": 0,
        "is_motor": false,
        "motor_id": 0,
        "accel_val": 2000,
        "base_duration_us": 174418
      },
      {
        "id": "M_320",
        "pitch": 60,
        "t_note_us": 48488227,
        "t_trigger_us": 48352264,
        "is_ai": false,
        "track_id": 0,
        "velocity": 0,
        "is_motor": true,
        "motor_id": 1,
        "accel_val": 2000,
        "base_duration_us": 174418
      },
      {
        "id": "M_321",
        "pitch": 84,
        "t_note_us": 48662645,
        "t_trigger_us": 48526682,
        "is_ai": true,
        "track_id": 3,
        "velocity": 0,
        "is_motor": false,
        "motor_id": 0,
        "accel_val": 2000,
        "base_duration_us": 174418
      },
      {
        "id": "M_326",
        "pitch": 84,
        "t_note_us": 48837063,
        "t_trigger_us": 48701100,
        "is_ai": true,
        "track_id": 3,
        "velocity": 0,
        "is_motor": false,
        "motor_id": 0,
        "accel_val": 2000,
        "base_duration_us": 174418
      },
      {
        "id": "M_322",
        "pitch": 60,
        "t_note_us": 48837063,
        "t_trigger_us": 48701100,
        "is_ai": false,
        "track_id": 0,
        "velocity": 0,
        "is_motor": true,
        "motor_id": 1,
        "accel_val": 2000,
        "base_duration_us": 174418
      },
      {
        "id": "M_323",
        "pitch": 52,
        "t_note_us": 48837063,
        "t_trigger_us": 48701100,
        "is_ai": false,
        "track_id": 0,
        "velocity": 0,
        "is_motor": true,
        "motor_id": 0,
        "accel_val": 2000,
        "base_duration_us": 174418
      },
      {
        "id": "M_324",
        "pitch": 64,
        "t_note_us": 48837063,
        "t_trigger_us": 48701100,
        "is_ai": false,
        "track_id": 0,
        "velocity": 0,
        "is_motor": true,
        "motor_id": 2,
        "accel_val": 2000,
        "base_duration_us": 174418
      },
      {
        "id": "M_325",
        "pitch": 72,
        "t_note_us": 48837063,
        "t_trigger_us": 48701100,
        "is_ai": false,
        "track_id": 0,
        "velocity": 0,
        "is_motor": true,
        "motor_id": 3,
        "accel_val": 2000,
        "base_duration_us": 174418
      },
      {
        "id": "M_327",
        "pitch": 62,
        "t_note_us": 49185899,
        "t_trigger_us": 49049936,
        "is_ai": false,
        "track_id": 0,
        "velocity": 0,
        "is_motor": true,
        "motor_id": 1,
        "accel_val": 2000,
        "base_duration_us": 174418
      },
      {
        "id": "M_328",
        "pitch": 64,
        "t_note_us": 49534735,
        "t_trigger_us": 49398772,
        "is_ai": false,
        "track_id": 0,
        "velocity": 0,
        "is_motor": true,
        "motor_id": 1,
        "accel_val": 2000,
        "base_duration_us": 174418
      },
      {
        "id": "M_329",
        "pitch": 60,
        "t_note_us": 49883571,
        "t_trigger_us": 49747608,
        "is_ai": false,
        "track_id": 0,
        "velocity": 0,
        "is_motor": true,
        "motor_id": 1,
        "accel_val": 2000,
        "base_duration_us": 174418
      },
      {
        "id": "M_333",
        "pitch": 81,
        "t_note_us": 50232407,
        "t_trigger_us": 50096444,
        "is_ai": true,
        "track_id": 1,
        "velocity": 0,
        "is_motor": false,
        "motor_id": 0,
        "accel_val": 2000,
        "base_duration_us": 174418
      },
      {
        "id": "M_330",
        "pitch": 57,
        "t_note_us": 50232407,
        "t_trigger_us": 50096444,
        "is_ai": false,
        "track_id": 0,
        "velocity": 0,
        "is_motor": true,
        "motor_id": 0,
        "accel_val": 2000,
        "base_duration_us": 174418
      },
      {
        "id": "M_331",
        "pitch": 53,
        "t_note_us": 50232407,
        "t_trigger_us": 50096444,
        "is_ai": false,
        "track_id": 0,
        "velocity": 0,
        "is_motor": true,
        "motor_id": 1,
        "accel_val": 2000,
        "base_duration_us": 174418
      },
      {
        "id": "M_332",
        "pitch": 65,
        "t_note_us": 50232407,
        "t_trigger_us": 50096444,
        "is_ai": false,
        "track_id": 0,
        "velocity": 0,
        "is_motor": true,
        "motor_id": 2,
        "accel_val": 2000,
        "base_duration_us": 174418
      },
      {
        "id": "M_334",
        "pitch": 83,
        "t_note_us": 50755662,
        "t_trigger_us": 50619699,
        "is_ai": true,
        "track_id": 2,
        "velocity": 0,
        "is_motor": false,
        "motor_id": 0,
        "accel_val": 2000,
        "base_duration_us": 174418
      },
      {
        "id": "M_335",
        "pitch": 84,
        "t_note_us": 50930080,
        "t_trigger_us": 50794117,
        "is_ai": true,
        "track_id": 3,
        "velocity": 0,
        "is_motor": false,
        "motor_id": 0,
        "accel_val": 2000,
        "base_duration_us": 174418
      },
      {
        "id": "M_336",
        "pitch": 83,
        "t_note_us": 51278916,
        "t_trigger_us": 51142953,
        "is_ai": true,
        "track_id": 2,
        "velocity": 0,
        "is_motor": false,
        "motor_id": 0,
        "accel_val": 2000,
        "base_duration_us": 174418
      },
      {
        "id": "M_337",
        "pitch": 81,
        "t_note_us": 51453334,
        "t_trigger_us": 51317371,
        "is_ai": true,
        "track_id": 1,
        "velocity": 0,
        "is_motor": false,
        "motor_id": 0,
        "accel_val": 2000,
        "base_duration_us": 174418
      },
      {
        "id": "M_338",
        "pitch": 52,
        "t_note_us": 51627752,
        "t_trigger_us": 51491789,
        "is_ai": false,
        "track_id": 0,
        "velocity": 0,
        "is_motor": true,
        "motor_id": 0,
        "accel_val": 2000,
        "base_duration_us": 174418
      },
      {
        "id": "M_339",
        "pitch": 48,
        "t_note_us": 51627752,
        "t_trigger_us": 51491789,
        "is_ai": false,
        "track_id": 0,
        "velocity": 0,
        "is_motor": true,
        "motor_id": 1,
        "accel_val": 2000,
        "base_duration_us": 174418
      },
      {
        "id": "M_340",
        "pitch": 60,
        "t_note_us": 51627752,
        "t_trigger_us": 51491789,
        "is_ai": false,
        "track_id": 0,
        "velocity": 0,
        "is_motor": true,
        "motor_id": 2,
        "accel_val": 2000,
        "base_duration_us": 174418
      },
      {
        "id": "M_341",
        "pitch": 67,
        "t_note_us": 51627752,
        "t_trigger_us": 51491789,
        "is_ai": false,
        "track_id": 0,
        "velocity": 0,
        "is_motor": true,
        "motor_id": 3,
        "accel_val": 2000,
        "base_duration_us": 174418
      },
      {
        "id": "M_342",
        "pitch": 76,
        "t_note_us": 51976588,
        "t_trigger_us": 51840625,
        "is_ai": false,
        "track_id": 0,
        "velocity": 0,
        "is_motor": true,
        "motor_id": 2,
        "accel_val": 2000,
        "base_duration_us": 174418
      },
      {
        "id": "M_343",
        "pitch": 88,
        "t_note_us": 52325424,
        "t_trigger_us": 52189461,
        "is_ai": true,
        "track_id": 5,
        "velocity": 0,
        "is_motor": false,
        "motor_id": 0,
        "accel_val": 2000,
        "base_duration_us": 174418
      },
      {
        "id": "M_347",
        "pitch": 86,
        "t_note_us": 53023097,
        "t_trigger_us": 52887134,
        "is_ai": true,
        "track_id": 4,
        "velocity": 0,
        "is_motor": false,
        "motor_id": 0,
        "accel_val": 2000,
        "base_duration_us": 174418
      },
      {
        "id": "M_344",
        "pitch": 56,
        "t_note_us": 53023097,
        "t_trigger_us": 52887134,
        "is_ai": false,
        "track_id": 0,
        "velocity": 0,
        "is_motor": true,
        "motor_id": 0,
        "accel_val": 2000,
        "base_duration_us": 174418
      },
      {
        "id": "M_345",
        "pitch": 52,
        "t_note_us": 53023097,
        "t_trigger_us": 52887134,
        "is_ai": false,
        "track_id": 0,
        "velocity": 0,
        "is_motor": true,
        "motor_id": 1,
        "accel_val": 2000,
        "base_duration_us": 174418
      },
      {
        "id": "M_346",
        "pitch": 64,
        "t_note_us": 53023097,
        "t_trigger_us": 52887134,
        "is_ai": false,
        "track_id": 0,
        "velocity": 0,
        "is_motor": true,
        "motor_id": 2,
        "accel_val": 2000,
        "base_duration_us": 174418
      },
      {
        "id": "M_348",
        "pitch": 88,
        "t_note_us": 53546352,
        "t_trigger_us": 53410389,
        "is_ai": true,
        "track_id": 5,
        "velocity": 0,
        "is_motor": false,
        "motor_id": 0,
        "accel_val": 2000,
        "base_duration_us": 174418
      },
      {
        "id": "M_349",
        "pitch": 89,
        "t_note_us": 53720770,
        "t_trigger_us": 53584807,
        "is_ai": true,
        "track_id": 6,
        "velocity": 0,
        "is_motor": false,
        "motor_id": 0,
        "accel_val": 2000,
        "base_duration_us": 174418
      },
      {
        "id": "M_350",
        "pitch": 88,
        "t_note_us": 54069606,
        "t_trigger_us": 53933643,
        "is_ai": true,
        "track_id": 5,
        "velocity": 0,
        "is_motor": false,
        "motor_id": 0,
        "accel_val": 2000,
        "base_duration_us": 174418
      },
      {
        "id": "M_351",
        "pitch": 86,
        "t_note_us": 54244024,
        "t_trigger_us": 54108061,
        "is_ai": true,
        "track_id": 4,
        "velocity": 0,
        "is_motor": false,
        "motor_id": 0,
        "accel_val": 2000,
        "base_duration_us": 174418
      },
      {
        "id": "M_355",
        "pitch": 84,
        "t_note_us": 54418442,
        "t_trigger_us": 54282479,
        "is_ai": true,
        "track_id": 3,
        "velocity": 0,
        "is_motor": false,
        "motor_id": 0,
        "accel_val": 2000,
        "base_duration_us": 174418
      },
      {
        "id": "M_352",
        "pitch": 57,
        "t_note_us": 54418442,
        "t_trigger_us": 54282479,
        "is_ai": false,
        "track_id": 0,
        "velocity": 0,
        "is_motor": true,
        "motor_id": 0,
        "accel_val": 2000,
        "base_duration_us": 174418
      },
      {
        "id": "M_353",
        "pitch": 64,
        "t_note_us": 54418442,
        "t_trigger_us": 54282479,
        "is_ai": false,
        "track_id": 0,
        "velocity": 0,
        "is_motor": true,
        "motor_id": 1,
        "accel_val": 2000,
        "base_duration_us": 174418
      },
      {
        "id": "M_354",
        "pitch": 52,
        "t_note_us": 54418442,
        "t_trigger_us": 54282479,
        "is_ai": false,
        "track_id": 0,
        "velocity": 0,
        "is_motor": true,
        "motor_id": 2,
        "accel_val": 2000,
        "base_duration_us": 174418
      },
      {
        "id": "M_356",
        "pitch": 86,
        "t_note_us": 54767278,
        "t_trigger_us": 54631315,
        "is_ai": true,
        "track_id": 4,
        "velocity": 0,
        "is_motor": false,
        "motor_id": 0,
        "accel_val": 2000,
        "base_duration_us": 174418
      },
      {
        "id": "M_357",
        "pitch": 67,
        "t_note_us": 55116114,
        "t_trigger_us": 54980151,
        "is_ai": false,
        "track_id": 0,
        "velocity": 0,
        "is_motor": true,
        "motor_id": 1,
        "accel_val": 2000,
        "base_duration_us": 174418
      },
      {
        "id": "M_358",
        "pitch": 57,
        "t_note_us": 55813787,
        "t_trigger_us": 55677824,
        "is_ai": false,
        "track_id": 0,
        "velocity": 0,
        "is_motor": true,
        "motor_id": 0,
        "accel_val": 2000,
        "base_duration_us": 174418
      },
      {
        "id": "M_359",
        "pitch": 50,
        "t_note_us": 55813787,
        "t_trigger_us": 55677824,
        "is_ai": false,
        "track_id": 0,
        "velocity": 0,
        "is_motor": true,
        "motor_id": 1,
        "accel_val": 2000,
        "base_duration_us": 174418
      },
      {
        "id": "M_360",
        "pitch": 62,
        "t_note_us": 55813787,
        "t_trigger_us": 55677824,
        "is_ai": false,
        "track_id": 0,
        "velocity": 0,
        "is_motor": true,
        "motor_id": 2,
        "accel_val": 2000,
        "base_duration_us": 174418
      },
      {
        "id": "M_361",
        "pitch": 77,
        "t_note_us": 55813787,
        "t_trigger_us": 55677824,
        "is_ai": false,
        "track_id": 0,
        "velocity": 0,
        "is_motor": true,
        "motor_id": 3,
        "accel_val": 2000,
        "base_duration_us": 174418
      },
      {
        "id": "M_362",
        "pitch": 79,
        "t_note_us": 56337042,
        "t_trigger_us": 56201079,
        "is_ai": true,
        "track_id": 0,
        "velocity": 0,
        "is_motor": false,
        "motor_id": 0,
        "accel_val": 2000,
        "base_duration_us": 174418
      },
      {
        "id": "M_363",
        "pitch": 81,
        "t_note_us": 56511460,
        "t_trigger_us": 56375497,
        "is_ai": true,
        "track_id": 1,
        "velocity": 0,
        "is_motor": false,
        "motor_id": 0,
        "accel_val": 2000,
        "base_duration_us": 174418
      },
      {
        "id": "M_364",
        "pitch": 67,
        "t_note_us": 56860296,
        "t_trigger_us": 56724333,
        "is_ai": false,
        "track_id": 0,
        "velocity": 0,
        "is_motor": true,
        "motor_id": 1,
        "accel_val": 2000,
        "base_duration_us": 174418
      },
      {
        "id": "M_365",
        "pitch": 77,
        "t_note_us": 57034714,
        "t_trigger_us": 56898751,
        "is_ai": false,
        "track_id": 0,
        "velocity": 0,
        "is_motor": true,
        "motor_id": 2,
        "accel_val": 2000,
        "base_duration_us": 174418
      },
      {
        "id": "M_366",
        "pitch": 52,
        "t_note_us": 57209132,
        "t_trigger_us": 57073169,
        "is_ai": false,
        "track_id": 0,
        "velocity": 0,
        "is_motor": true,
        "motor_id": 0,
        "accel_val": 2000,
        "base_duration_us": 174418
      },
      {
        "id": "M_367",
        "pitch": 48,
        "t_note_us": 57209132,
        "t_trigger_us": 57073169,
        "is_ai": false,
        "track_id": 0,
        "velocity": 0,
        "is_motor": true,
        "motor_id": 1,
        "accel_val": 2000,
        "base_duration_us": 174418
      },
      {
        "id": "M_368",
        "pitch": 60,
        "t_note_us": 57209132,
        "t_trigger_us": 57073169,
        "is_ai": false,
        "track_id": 0,
        "velocity": 0,
        "is_motor": true,
        "motor_id": 2,
        "accel_val": 2000,
        "base_duration_us": 174418
      },
      {
        "id": "M_369",
        "pitch": 76,
        "t_note_us": 57209132,
        "t_trigger_us": 57073169,
        "is_ai": false,
        "track_id": 0,
        "velocity": 0,
        "is_motor": true,
        "motor_id": 3,
        "accel_val": 2000,
        "base_duration_us": 174418
      },
      {
        "id": "M_370",
        "pitch": 84,
        "t_note_us": 57557968,
        "t_trigger_us": 57422005,
        "is_ai": true,
        "track_id": 3,
        "velocity": 0,
        "is_motor": false,
        "motor_id": 0,
        "accel_val": 2000,
        "base_duration_us": 174418
      },
      {
        "id": "M_371",
        "pitch": 84,
        "t_note_us": 57906804,
        "t_trigger_us": 57770841,
        "is_ai": true,
        "track_id": 3,
        "velocity": 0,
        "is_motor": false,
        "motor_id": 0,
        "accel_val": 2000,
        "base_duration_us": 174418
      },
      {
        "id": "M_372",
        "pitch": 84,
        "t_note_us": 58255640,
        "t_trigger_us": 58119677,
        "is_ai": true,
        "track_id": 3,
        "velocity": 0,
        "is_motor": false,
        "motor_id": 0,
        "accel_val": 2000,
        "base_duration_us": 174418
      },
      {
        "id": "M_376",
        "pitch": 83,
        "t_note_us": 58604476,
        "t_trigger_us": 58468513,
        "is_ai": true,
        "track_id": 2,
        "velocity": 0,
        "is_motor": false,
        "motor_id": 0,
        "accel_val": 2000,
        "base_duration_us": 174418
      },
      {
        "id": "M_373",
        "pitch": 53,
        "t_note_us": 58604476,
        "t_trigger_us": 58468513,
        "is_ai": false,
        "track_id": 0,
        "velocity": 0,
        "is_motor": true,
        "motor_id": 0,
        "accel_val": 2000,
        "base_duration_us": 174418
      },
      {
        "id": "M_374",
        "pitch": 50,
        "t_note_us": 58604476,
        "t_trigger_us": 58468513,
        "is_ai": false,
        "track_id": 0,
        "velocity": 0,
        "is_motor": true,
        "motor_id": 1,
        "accel_val": 2000,
        "base_duration_us": 174418
      },
      {
        "id": "M_375",
        "pitch": 62,
        "t_note_us": 58604476,
        "t_trigger_us": 58468513,
        "is_ai": false,
        "track_id": 0,
        "velocity": 0,
        "is_motor": true,
        "motor_id": 2,
        "accel_val": 2000,
        "base_duration_us": 174418
      },
      {
        "id": "M_380",
        "pitch": 81,
        "t_note_us": 59302149,
        "t_trigger_us": 59166186,
        "is_ai": true,
        "track_id": 1,
        "velocity": 0,
        "is_motor": false,
        "motor_id": 0,
        "accel_val": 2000,
        "base_duration_us": 174418
      },
      {
        "id": "M_377",
        "pitch": 55,
        "t_note_us": 59302149,
        "t_trigger_us": 59166186,
        "is_ai": false,
        "track_id": 0,
        "velocity": 0,
        "is_motor": true,
        "motor_id": 0,
        "accel_val": 2000,
        "base_duration_us": 174418
      },
      {
        "id": "M_378",
        "pitch": 50,
        "t_note_us": 59302149,
        "t_trigger_us": 59166186,
        "is_ai": false,
        "track_id": 0,
        "velocity": 0,
        "is_motor": true,
        "motor_id": 1,
        "accel_val": 2000,
        "base_duration_us": 174418
      },
      {
        "id": "M_379",
        "pitch": 62,
        "t_note_us": 59302149,
        "t_trigger_us": 59166186,
        "is_ai": false,
        "track_id": 0,
        "velocity": 0,
        "is_motor": true,
        "motor_id": 2,
        "accel_val": 2000,
        "base_duration_us": 174418
      },
      {
        "id": "M_381",
        "pitch": 83,
        "t_note_us": 59650985,
        "t_trigger_us": 59515022,
        "is_ai": true,
        "track_id": 2,
        "velocity": 0,
        "is_motor": false,
        "motor_id": 0,
        "accel_val": 2000,
        "base_duration_us": 174418
      },
      {
        "id": "M_385",
        "pitch": 84,
        "t_note_us": 59999821,
        "t_trigger_us": 59863858,
        "is_ai": true,
        "track_id": 3,
        "velocity": 0,
        "is_motor": false,
        "motor_id": 0,
        "accel_val": 2000,
        "base_duration_us": 174418
      },
      {
        "id": "M_382",
        "pitch": 52,
        "t_note_us": 59999821,
        "t_trigger_us": 59863858,
        "is_ai": false,
        "track_id": 0,
        "velocity": 0,
        "is_motor": true,
        "motor_id": 0,
        "accel_val": 2000,
        "base_duration_us": 174418
      },
      {
        "id": "M_383",
        "pitch": 48,
        "t_note_us": 59999821,
        "t_trigger_us": 59863858,
        "is_ai": false,
        "track_id": 0,
        "velocity": 0,
        "is_motor": true,
        "motor_id": 1,
        "accel_val": 2000,
        "base_duration_us": 174418
      },
      {
        "id": "M_384",
        "pitch": 60,
        "t_note_us": 59999821,
        "t_trigger_us": 59863858,
        "is_ai": false,
        "track_id": 0,
        "velocity": 0,
        "is_motor": true,
        "motor_id": 2,
        "accel_val": 2000,
        "base_duration_us": 174418
      },
      {
        "id": "M_386",
        "pitch": 98,
        "t_note_us": 60697494,
        "t_trigger_us": 60561531,
        "is_ai": true,
        "track_id": 11,
        "velocity": 0,
        "is_motor": false,
        "motor_id": 0,
        "accel_val": 2000,
        "base_duration_us": 174418
      },
      {
        "id": "M_387",
        "pitch": 86,
        "t_note_us": 60697494,
        "t_trigger_us": 60561531,
        "is_ai": true,
        "track_id": 4,
        "velocity": 0,
        "is_motor": false,
        "motor_id": 0,
        "accel_val": 2000,
        "base_duration_us": 174418
      },
      {
        "id": "M_389",
        "pitch": 88,
        "t_note_us": 60959121,
        "t_trigger_us": 60823158,
        "is_ai": true,
        "track_id": 5,
        "velocity": 0,
        "is_motor": false,
        "motor_id": 0,
        "accel_val": 2000,
        "base_duration_us": 87209
      },
      {
        "id": "M_388",
        "pitch": 76,
        "t_note_us": 60959121,
        "t_trigger_us": 60823158,
        "is_ai": false,
        "track_id": 0,
        "velocity": 0,
        "is_motor": true,
        "motor_id": 2,
        "accel_val": 2000,
        "base_duration_us": 87209
      },
      {
        "id": "M_390",
        "pitch": 86,
        "t_note_us": 61046330,
        "t_trigger_us": 60910367,
        "is_ai": true,
        "track_id": 4,
        "velocity": 0,
        "is_motor": false,
        "motor_id": 0,
        "accel_val": 2000,
        "base_duration_us": 174418
      },
      {
        "id": "M_391",
        "pitch": 98,
        "t_note_us": 61046330,
        "t_trigger_us": 60910367,
        "is_ai": true,
        "track_id": 11,
        "velocity": 0,
        "is_motor": false,
        "motor_id": 0,
        "accel_val": 2000,
        "base_duration_us": 174418
      },
      {
        "id": "M_392",
        "pitch": 96,
        "t_note_us": 61307957,
        "t_trigger_us": 61171994,
        "is_ai": true,
        "track_id": 10,
        "velocity": 0,
        "is_motor": false,
        "motor_id": 0,
        "accel_val": 2000,
        "base_duration_us": 87209
      },
      {
        "id": "M_393",
        "pitch": 84,
        "t_note_us": 61307957,
        "t_trigger_us": 61171994,
        "is_ai": true,
        "track_id": 3,
        "velocity": 0,
        "is_motor": false,
        "motor_id": 0,
        "accel_val": 2000,
        "base_duration_us": 87209
      },
      {
        "id": "M_394",
        "pitch": 93,
        "t_note_us": 61395166,
        "t_trigger_us": 61259203,
        "is_ai": true,
        "track_id": 8,
        "velocity": 0,
        "is_motor": false,
        "motor_id": 0,
        "accel_val": 2000,
        "base_duration_us": 174418
      },
      {
        "id": "M_395",
        "pitch": 81,
        "t_note_us": 61395166,
        "t_trigger_us": 61259203,
        "is_ai": true,
        "track_id": 1,
        "velocity": 0,
        "is_motor": false,
        "motor_id": 0,
        "accel_val": 2000,
        "base_duration_us": 174418
      },
      {
        "id": "M_396",
        "pitch": 57,
        "t_note_us": 61395166,
        "t_trigger_us": 61259203,
        "is_ai": false,
        "track_id": 0,
        "velocity": 0,
        "is_motor": true,
        "motor_id": 0,
        "accel_val": 2000,
        "base_duration_us": 174418
      },
      {
        "id": "M_397",
        "pitch": 53,
        "t_note_us": 61395166,
        "t_trigger_us": 61259203,
        "is_ai": false,
        "track_id": 0,
        "velocity": 0,
        "is_motor": true,
        "motor_id": 1,
        "accel_val": 2000,
        "base_duration_us": 174418
      },
      {
        "id": "M_398",
        "pitch": 65,
        "t_note_us": 61395166,
        "t_trigger_us": 61259203,
        "is_ai": false,
        "track_id": 0,
        "velocity": 0,
        "is_motor": true,
        "motor_id": 2,
        "accel_val": 2000,
        "base_duration_us": 174418
      },
      {
        "id": "M_399",
        "pitch": 96,
        "t_note_us": 61656793,
        "t_trigger_us": 61520830,
        "is_ai": true,
        "track_id": 10,
        "velocity": 0,
        "is_motor": false,
        "motor_id": 0,
        "accel_val": 2000,
        "base_duration_us": 87209
      },
      {
        "id": "M_400",
        "pitch": 84,
        "t_note_us": 61656793,
        "t_trigger_us": 61520830,
        "is_ai": true,
        "track_id": 3,
        "velocity": 0,
        "is_motor": false,
        "motor_id": 0,
        "accel_val": 2000,
        "base_duration_us": 87209
      },
      {
        "id": "M_401",
        "pitch": 57,
        "t_note_us": 61744002,
        "t_trigger_us": 61608039,
        "is_ai": false,
        "track_id": 0,
        "velocity": 0,
        "is_motor": true,
        "motor_id": 0,
        "accel_val": 2000,
        "base_duration_us": 174418
      },
      {
        "id": "M_402",
        "pitch": 65,
        "t_note_us": 62005629,
        "t_trigger_us": 61869666,
        "is_ai": false,
        "track_id": 0,
        "velocity": 0,
        "is_motor": true,
        "motor_id": 1,
        "accel_val": 2000,
        "base_duration_us": 87209
      },
      {
        "id": "M_403",
        "pitch": 76,
        "t_note_us": 62092838,
        "t_trigger_us": 61956875,
        "is_ai": false,
        "track_id": 0,
        "velocity": 0,
        "is_motor": true,
        "motor_id": 2,
        "accel_val": 2000,
        "base_duration_us": 174418
      },
      {
        "id": "M_404",
        "pitch": 76,
        "t_note_us": 62092838,
        "t_trigger_us": 61956875,
        "is_ai": false,
        "track_id": 0,
        "velocity": 0,
        "is_motor": true,
        "motor_id": 1,
        "accel_val": 2000,
        "base_duration_us": 174418
      },
      {
        "id": "M_405",
        "pitch": 65,
        "t_note_us": 62092838,
        "t_trigger_us": 61956875,
        "is_ai": false,
        "track_id": 0,
        "velocity": 0,
        "is_motor": true,
        "motor_id": 0,
        "accel_val": 2000,
        "base_duration_us": 174418
      },
      {
        "id": "M_406",
        "pitch": 103,
        "t_note_us": 62354465,
        "t_trigger_us": 62218502,
        "is_ai": true,
        "track_id": 14,
        "velocity": 0,
        "is_motor": false,
        "motor_id": 0,
        "accel_val": 2000,
        "base_duration_us": 87209
      },
      {
        "id": "M_407",
        "pitch": 91,
        "t_note_us": 62354465,
        "t_trigger_us": 62218502,
        "is_ai": true,
        "track_id": 7,
        "velocity": 0,
        "is_motor": false,
        "motor_id": 0,
        "accel_val": 2000,
        "base_duration_us": 87209
      },
      {
        "id": "M_408",
        "pitch": 57,
        "t_note_us": 62441674,
        "t_trigger_us": 62305711,
        "is_ai": false,
        "track_id": 0,
        "velocity": 0,
        "is_motor": true,
        "motor_id": 0,
        "accel_val": 2000,
        "base_duration_us": 174418
      },
      {
        "id": "M_409",
        "pitch": 53,
        "t_note_us": 62703301,
        "t_trigger_us": 62567338,
        "is_ai": false,
        "track_id": 0,
        "velocity": 0,
        "is_motor": true,
        "motor_id": 0,
        "accel_val": 2000,
        "base_duration_us": 87209
      },
      {
        "id": "M_410",
        "pitch": 86,
        "t_note_us": 62790510,
        "t_trigger_us": 62654547,
        "is_ai": true,
        "track_id": 4,
        "velocity": 0,
        "is_motor": false,
        "motor_id": 0,
        "accel_val": 2000,
        "base_duration_us": 174418
      },
      {
        "id": "M_411",
        "pitch": 98,
        "t_note_us": 62790510,
        "t_trigger_us": 62654547,
        "is_ai": true,
        "track_id": 11,
        "velocity": 0,
        "is_motor": false,
        "motor_id": 0,
        "accel_val": 2000,
        "base_duration_us": 174418
      },
      {
        "id": "M_412",
        "pitch": 48,
        "t_note_us": 62790510,
        "t_trigger_us": 62654547,
        "is_ai": false,
        "track_id": 0,
        "velocity": 0,
        "is_motor": true,
        "motor_id": 0,
        "accel_val": 2000,
        "base_duration_us": 174418
      },
      {
        "id": "M_413",
        "pitch": 60,
        "t_note_us": 62790510,
        "t_trigger_us": 62654547,
        "is_ai": false,
        "track_id": 0,
        "velocity": 0,
        "is_motor": true,
        "motor_id": 1,
        "accel_val": 2000,
        "base_duration_us": 174418
      },
      {
        "id": "M_414",
        "pitch": 55,
        "t_note_us": 62790510,
        "t_trigger_us": 62654547,
        "is_ai": false,
        "track_id": 0,
        "velocity": 0,
        "is_motor": true,
        "motor_id": 2,
        "accel_val": 2000,
        "base_duration_us": 174418
      },
      {
        "id": "M_415",
        "pitch": 84,
        "t_note_us": 63052137,
        "t_trigger_us": 62916174,
        "is_ai": true,
        "track_id": 3,
        "velocity": 0,
        "is_motor": false,
        "motor_id": 0,
        "accel_val": 2000,
        "base_duration_us": 87209
      },
      {
        "id": "M_416",
        "pitch": 96,
        "t_note_us": 63052137,
        "t_trigger_us": 62916174,
        "is_ai": true,
        "track_id": 10,
        "velocity": 0,
        "is_motor": false,
        "motor_id": 0,
        "accel_val": 2000,
        "base_duration_us": 87209
      },
      {
        "id": "M_417",
        "pitch": 55,
        "t_note_us": 63139346,
        "t_trigger_us": 63003383,
        "is_ai": false,
        "track_id": 0,
        "velocity": 0,
        "is_motor": true,
        "motor_id": 0,
        "accel_val": 2000,
        "base_duration_us": 174418
      },
      {
        "id": "M_418",
        "pitch": 60,
        "t_note_us": 63400973,
        "t_trigger_us": 63265010,
        "is_ai": false,
        "track_id": 0,
        "velocity": 0,
        "is_motor": true,
        "motor_id": 1,
        "accel_val": 2000,
        "base_duration_us": 87209
      },
      {
        "id": "M_419",
        "pitch": 98,
        "t_note_us": 63488182,
        "t_trigger_us": 63352219,
        "is_ai": true,
        "track_id": 11,
        "velocity": 0,
        "is_motor": false,
        "motor_id": 0,
        "accel_val": 2000,
        "base_duration_us": 174418
      },
      {
        "id": "M_420",
        "pitch": 86,
        "t_note_us": 63488182,
        "t_trigger_us": 63352219,
        "is_ai": true,
        "track_id": 4,
        "velocity": 0,
        "is_motor": false,
        "motor_id": 0,
        "accel_val": 2000,
        "base_duration_us": 174418
      },
      {
        "id": "M_421",
        "pitch": 60,
        "t_note_us": 63488182,
        "t_trigger_us": 63352219,
        "is_ai": false,
        "track_id": 0,
        "velocity": 0,
        "is_motor": true,
        "motor_id": 1,
        "accel_val": 2000,
        "base_duration_us": 174418
      },
      {
        "id": "M_422",
        "pitch": 88,
        "t_note_us": 63749809,
        "t_trigger_us": 63613846,
        "is_ai": true,
        "track_id": 5,
        "velocity": 0,
        "is_motor": false,
        "motor_id": 0,
        "accel_val": 2000,
        "base_duration_us": 87209
      },
      {
        "id": "M_423",
        "pitch": 76,
        "t_note_us": 63749809,
        "t_trigger_us": 63613846,
        "is_ai": false,
        "track_id": 0,
        "velocity": 0,
        "is_motor": true,
        "motor_id": 2,
        "accel_val": 2000,
        "base_duration_us": 87209
      },
      {
        "id": "M_424",
        "pitch": 98,
        "t_note_us": 63837018,
        "t_trigger_us": 63701055,
        "is_ai": true,
        "track_id": 11,
        "velocity": 0,
        "is_motor": false,
        "motor_id": 0,
        "accel_val": 2000,
        "base_duration_us": 174418
      },
      {
        "id": "M_425",
        "pitch": 86,
        "t_note_us": 63837018,
        "t_trigger_us": 63701055,
        "is_ai": true,
        "track_id": 4,
        "velocity": 0,
        "is_motor": false,
        "motor_id": 0,
        "accel_val": 2000,
        "base_duration_us": 174418
      },
      {
        "id": "M_426",
        "pitch": 55,
        "t_note_us": 63837018,
        "t_trigger_us": 63701055,
        "is_ai": false,
        "track_id": 0,
        "velocity": 0,
        "is_motor": true,
        "motor_id": 0,
        "accel_val": 2000,
        "base_duration_us": 174418
      },
      {
        "id": "M_428",
        "pitch": 84,
        "t_note_us": 64098645,
        "t_trigger_us": 63962682,
        "is_ai": true,
        "track_id": 3,
        "velocity": 0,
        "is_motor": false,
        "motor_id": 0,
        "accel_val": 2000,
        "base_duration_us": 87209
      },
      {
        "id": "M_427",
        "pitch": 48,
        "t_note_us": 64098645,
        "t_trigger_us": 63962682,
        "is_ai": false,
        "track_id": 0,
        "velocity": 0,
        "is_motor": true,
        "motor_id": 0,
        "accel_val": 2000,
        "base_duration_us": 87209
      },
      {
        "id": "M_429",
        "pitch": 72,
        "t_note_us": 64098645,
        "t_trigger_us": 63962682,
        "is_ai": false,
        "track_id": 0,
        "velocity": 0,
        "is_motor": true,
        "motor_id": 2,
        "accel_val": 2000,
        "base_duration_us": 87209
      },
      {
        "id": "M_430",
        "pitch": 81,
        "t_note_us": 64185854,
        "t_trigger_us": 64049891,
        "is_ai": true,
        "track_id": 1,
        "velocity": 0,
        "is_motor": false,
        "motor_id": 0,
        "accel_val": 2000,
        "base_duration_us": 174418
      },
      {
        "id": "M_431",
        "pitch": 93,
        "t_note_us": 64185854,
        "t_trigger_us": 64049891,
        "is_ai": true,
        "track_id": 8,
        "velocity": 0,
        "is_motor": false,
        "motor_id": 0,
        "accel_val": 2000,
        "base_duration_us": 174418
      },
      {
        "id": "M_432",
        "pitch": 56,
        "t_note_us": 64185854,
        "t_trigger_us": 64049891,
        "is_ai": false,
        "track_id": 0,
        "velocity": 0,
        "is_motor": true,
        "motor_id": 0,
        "accel_val": 2000,
        "base_duration_us": 174418
      },
      {
        "id": "M_433",
        "pitch": 52,
        "t_note_us": 64185854,
        "t_trigger_us": 64049891,
        "is_ai": false,
        "track_id": 0,
        "velocity": 0,
        "is_motor": true,
        "motor_id": 1,
        "accel_val": 2000,
        "base_duration_us": 174418
      },
      {
        "id": "M_434",
        "pitch": 64,
        "t_note_us": 64185854,
        "t_trigger_us": 64049891,
        "is_ai": false,
        "track_id": 0,
        "velocity": 0,
        "is_motor": true,
        "motor_id": 2,
        "accel_val": 2000,
        "base_duration_us": 174418
      },
      {
        "id": "M_435",
        "pitch": 96,
        "t_note_us": 64447481,
        "t_trigger_us": 64311518,
        "is_ai": true,
        "track_id": 10,
        "velocity": 0,
        "is_motor": false,
        "motor_id": 0,
        "accel_val": 2000,
        "base_duration_us": 87209
      },
      {
        "id": "M_436",
        "pitch": 84,
        "t_note_us": 64447481,
        "t_trigger_us": 64311518,
        "is_ai": true,
        "track_id": 3,
        "velocity": 0,
        "is_motor": false,
        "motor_id": 0,
        "accel_val": 2000,
        "base_duration_us": 87209
      },
      {
        "id": "M_437",
        "pitch": 56,
        "t_note_us": 64534690,
        "t_trigger_us": 64398727,
        "is_ai": false,
        "track_id": 0,
        "velocity": 0,
        "is_motor": true,
        "motor_id": 0,
        "accel_val": 2000,
        "base_duration_us": 174418
      },
      {
        "id": "M_438",
        "pitch": 64,
        "t_note_us": 64796317,
        "t_trigger_us": 64660354,
        "is_ai": false,
        "track_id": 0,
        "velocity": 0,
        "is_motor": true,
        "motor_id": 1,
        "accel_val": 2000,
        "base_duration_us": 87209
      },
      {
        "id": "M_440",
        "pitch": 88,
        "t_note_us": 64883526,
        "t_trigger_us": 64747563,
        "is_ai": true,
        "track_id": 5,
        "velocity": 0,
        "is_motor": false,
        "motor_id": 0,
        "accel_val": 2000,
        "base_duration_us": 174418
      },
      {
        "id": "M_439",
        "pitch": 76,
        "t_note_us": 64883526,
        "t_trigger_us": 64747563,
        "is_ai": false,
        "track_id": 0,
        "velocity": 0,
        "is_motor": true,
        "motor_id": 2,
        "accel_val": 2000,
        "base_duration_us": 174418
      },
      {
        "id": "M_441",
        "pitch": 64,
        "t_note_us": 64883526,
        "t_trigger_us": 64747563,
        "is_ai": false,
        "track_id": 0,
        "velocity": 0,
        "is_motor": true,
        "motor_id": 1,
        "accel_val": 2000,
        "base_duration_us": 174418
      },
      {
        "id": "M_442",
        "pitch": 91,
        "t_note_us": 65145153,
        "t_trigger_us": 65009190,
        "is_ai": true,
        "track_id": 7,
        "velocity": 0,
        "is_motor": false,
        "motor_id": 0,
        "accel_val": 2000,
        "base_duration_us": 87209
      },
      {
        "id": "M_443",
        "pitch": 103,
        "t_note_us": 65145153,
        "t_trigger_us": 65009190,
        "is_ai": true,
        "track_id": 14,
        "velocity": 0,
        "is_motor": false,
        "motor_id": 0,
        "accel_val": 2000,
        "base_duration_us": 87209
      },
      {
        "id": "M_444",
        "pitch": 56,
        "t_note_us": 65232362,
        "t_trigger_us": 65096399,
        "is_ai": false,
        "track_id": 0,
        "velocity": 0,
        "is_motor": true,
        "motor_id": 0,
        "accel_val": 2000,
        "base_duration_us": 174418
      },
      {
        "id": "M_445",
        "pitch": 52,
        "t_note_us": 65493989,
        "t_trigger_us": 65358026,
        "is_ai": false,
        "track_id": 0,
        "velocity": 0,
        "is_motor": true,
        "motor_id": 0,
        "accel_val": 2000,
        "base_duration_us": 87209
      },
      {
        "id": "M_446",
        "pitch": 86,
        "t_note_us": 65581198,
        "t_trigger_us": 65445235,
        "is_ai": true,
        "track_id": 4,
        "velocity": 0,
        "is_motor": false,
        "motor_id": 0,
        "accel_val": 2000,
        "base_duration_us": 174418
      },
      {
        "id": "M_447",
        "pitch": 98,
        "t_note_us": 65581198,
        "t_trigger_us": 65445235,
        "is_ai": true,
        "track_id": 11,
        "velocity": 0,
        "is_motor": false,
        "motor_id": 0,
        "accel_val": 2000,
        "base_duration_us": 174418
      },
      {
        "id": "M_448",
        "pitch": 57,
        "t_note_us": 65581198,
        "t_trigger_us": 65445235,
        "is_ai": false,
        "track_id": 0,
        "velocity": 0,
        "is_motor": true,
        "motor_id": 0,
        "accel_val": 2000,
        "base_duration_us": 174418
      },
      {
        "id": "M_449",
        "pitch": 64,
        "t_note_us": 65581198,
        "t_trigger_us": 65445235,
        "is_ai": false,
        "track_id": 0,
        "velocity": 0,
        "is_motor": true,
        "motor_id": 1,
        "accel_val": 2000,
        "base_duration_us": 174418
      },
      {
        "id": "M_450",
        "pitch": 52,
        "t_note_us": 65581198,
        "t_trigger_us": 65445235,
        "is_ai": false,
        "track_id": 0,
        "velocity": 0,
        "is_motor": true,
        "motor_id": 2,
        "accel_val": 2000,
        "base_duration_us": 174418
      },
      {
        "id": "M_451",
        "pitch": 96,
        "t_note_us": 65842825,
        "t_trigger_us": 65706862,
        "is_ai": true,
        "track_id": 10,
        "velocity": 0,
        "is_motor": false,
        "motor_id": 0,
        "accel_val": 2000,
        "base_duration_us": 87209
      },
      {
        "id": "M_452",
        "pitch": 84,
        "t_note_us": 65842825,
        "t_trigger_us": 65706862,
        "is_ai": true,
        "track_id": 3,
        "velocity": 0,
        "is_motor": false,
        "motor_id": 0,
        "accel_val": 2000,
        "base_duration_us": 87209
      },
      {
        "id": "M_453",
        "pitch": 57,
        "t_note_us": 65930034,
        "t_trigger_us": 65794071,
        "is_ai": false,
        "track_id": 0,
        "velocity": 0,
        "is_motor": true,
        "motor_id": 0,
        "accel_val": 2000,
        "base_duration_us": 174418
      },
      {
        "id": "M_454",
        "pitch": 64,
        "t_note_us": 66191661,
        "t_trigger_us": 66055698,
        "is_ai": false,
        "track_id": 0,
        "velocity": 0,
        "is_motor": true,
        "motor_id": 1,
        "accel_val": 2000,
        "base_duration_us": 87209
      },
      {
        "id": "M_455",
        "pitch": 98,
        "t_note_us": 66278870,
        "t_trigger_us": 66142907,
        "is_ai": true,
        "track_id": 11,
        "velocity": 0,
        "is_motor": false,
        "motor_id": 0,
        "accel_val": 2000,
        "base_duration_us": 174418
      },
      {
        "id": "M_456",
        "pitch": 86,
        "t_note_us": 66278870,
        "t_trigger_us": 66142907,
        "is_ai": true,
        "track_id": 4,
        "velocity": 0,
        "is_motor": false,
        "motor_id": 0,
        "accel_val": 2000,
        "base_duration_us": 174418
      },
      {
        "id": "M_457",
        "pitch": 64,
        "t_note_us": 66278870,
        "t_trigger_us": 66142907,
        "is_ai": false,
        "track_id": 0,
        "velocity": 0,
        "is_motor": true,
        "motor_id": 1,
        "accel_val": 2000,
        "base_duration_us": 174418
      },
      {
        "id": "M_458",
        "pitch": 76,
        "t_note_us": 66540497,
        "t_trigger_us": 66404534,
        "is_ai": false,
        "track_id": 0,
        "velocity": 0,
        "is_motor": true,
        "motor_id": 2,
        "accel_val": 2000,
        "base_duration_us": 87209
      },
      {
        "id": "M_459",
        "pitch": 76,
        "t_note_us": 66540497,
        "t_trigger_us": 66404534,
        "is_ai": false,
        "track_id": 0,
        "velocity": 0,
        "is_motor": true,
        "motor_id": 1,
        "accel_val": 2000,
        "base_duration_us": 87209
      },
      {
        "id": "M_460",
        "pitch": 86,
        "t_note_us": 66627706,
        "t_trigger_us": 66491743,
        "is_ai": true,
        "track_id": 4,
        "velocity": 0,
        "is_motor": false,
        "motor_id": 0,
        "accel_val": 2000,
        "base_duration_us": 174418
      },
      {
        "id": "M_461",
        "pitch": 98,
        "t_note_us": 66627706,
        "t_trigger_us": 66491743,
        "is_ai": true,
        "track_id": 11,
        "velocity": 0,
        "is_motor": false,
        "motor_id": 0,
        "accel_val": 2000,
        "base_duration_us": 174418
      },
      {
        "id": "M_462",
        "pitch": 57,
        "t_note_us": 66627706,
        "t_trigger_us": 66491743,
        "is_ai": false,
        "track_id": 0,
        "velocity": 0,
        "is_motor": true,
        "motor_id": 0,
        "accel_val": 2000,
        "base_duration_us": 174418
      },
      {
        "id": "M_465",
        "pitch": 84,
        "t_note_us": 66889333,
        "t_trigger_us": 66753370,
        "is_ai": true,
        "track_id": 3,
        "velocity": 0,
        "is_motor": false,
        "motor_id": 0,
        "accel_val": 2000,
        "base_duration_us": 87209
      },
      {
        "id": "M_463",
        "pitch": 52,
        "t_note_us": 66889333,
        "t_trigger_us": 66753370,
        "is_ai": false,
        "track_id": 0,
        "velocity": 0,
        "is_motor": true,
        "motor_id": 0,
        "accel_val": 2000,
        "base_duration_us": 87209
      },
      {
        "id": "M_464",
        "pitch": 72,
        "t_note_us": 66889333,
        "t_trigger_us": 66753370,
        "is_ai": false,
        "track_id": 0,
        "velocity": 0,
        "is_motor": true,
        "motor_id": 2,
        "accel_val": 2000,
        "base_duration_us": 87209
      },
      {
        "id": "M_466",
        "pitch": 93,
        "t_note_us": 66976542,
        "t_trigger_us": 66840579,
        "is_ai": true,
        "track_id": 8,
        "velocity": 0,
        "is_motor": false,
        "motor_id": 0,
        "accel_val": 2000,
        "base_duration_us": 174418
      },
      {
        "id": "M_467",
        "pitch": 81,
        "t_note_us": 66976542,
        "t_trigger_us": 66840579,
        "is_ai": true,
        "track_id": 1,
        "velocity": 0,
        "is_motor": false,
        "motor_id": 0,
        "accel_val": 2000,
        "base_duration_us": 174418
      },
      {
        "id": "M_468",
        "pitch": 57,
        "t_note_us": 66976542,
        "t_trigger_us": 66840579,
        "is_ai": false,
        "track_id": 0,
        "velocity": 0,
        "is_motor": true,
        "motor_id": 0,
        "accel_val": 2000,
        "base_duration_us": 174418
      },
      {
        "id": "M_469",
        "pitch": 65,
        "t_note_us": 66976542,
        "t_trigger_us": 66840579,
        "is_ai": false,
        "track_id": 0,
        "velocity": 0,
        "is_motor": true,
        "motor_id": 1,
        "accel_val": 2000,
        "base_duration_us": 174418
      },
      {
        "id": "M_470",
        "pitch": 53,
        "t_note_us": 66976542,
        "t_trigger_us": 66840579,
        "is_ai": false,
        "track_id": 0,
        "velocity": 0,
        "is_motor": true,
        "motor_id": 2,
        "accel_val": 2000,
        "base_duration_us": 174418
      },
      {
        "id": "M_471",
        "pitch": 96,
        "t_note_us": 67238169,
        "t_trigger_us": 67102206,
        "is_ai": true,
        "track_id": 10,
        "velocity": 0,
        "is_motor": false,
        "motor_id": 0,
        "accel_val": 2000,
        "base_duration_us": 87209
      },
      {
        "id": "M_472",
        "pitch": 84,
        "t_note_us": 67238169,
        "t_trigger_us": 67102206,
        "is_ai": true,
        "track_id": 3,
        "velocity": 0,
        "is_motor": false,
        "motor_id": 0,
        "accel_val": 2000,
        "base_duration_us": 87209
      },
      {
        "id": "M_473",
        "pitch": 57,
        "t_note_us": 67325378,
        "t_trigger_us": 67189415,
        "is_ai": false,
        "track_id": 0,
        "velocity": 0,
        "is_motor": true,
        "motor_id": 0,
        "accel_val": 2000,
        "base_duration_us": 174418
      },
      {
        "id": "M_474",
        "pitch": 65,
        "t_note_us": 67587005,
        "t_trigger_us": 67451042,
        "is_ai": false,
        "track_id": 0,
        "velocity": 0,
        "is_motor": true,
        "motor_id": 1,
        "accel_val": 2000,
        "base_duration_us": 87209
      },
      {
        "id": "M_476",
        "pitch": 88,
        "t_note_us": 67674214,
        "t_trigger_us": 67538251,
        "is_ai": true,
        "track_id": 5,
        "velocity": 0,
        "is_motor": false,
        "motor_id": 0,
        "accel_val": 2000,
        "base_duration_us": 174418
      },
      {
        "id": "M_475",
        "pitch": 76,
        "t_note_us": 67674214,
        "t_trigger_us": 67538251,
        "is_ai": false,
        "track_id": 0,
        "velocity": 0,
        "is_motor": true,
        "motor_id": 2,
        "accel_val": 2000,
        "base_duration_us": 174418
      },
      {
        "id": "M_477",
        "pitch": 65,
        "t_note_us": 67674214,
        "t_trigger_us": 67538251,
        "is_ai": false,
        "track_id": 0,
        "velocity": 0,
        "is_motor": true,
        "motor_id": 1,
        "accel_val": 2000,
        "base_duration_us": 174418
      },
      {
        "id": "M_478",
        "pitch": 91,
        "t_note_us": 67935841,
        "t_trigger_us": 67799878,
        "is_ai": true,
        "track_id": 7,
        "velocity": 0,
        "is_motor": false,
        "motor_id": 0,
        "accel_val": 2000,
        "base_duration_us": 87209
      },
      {
        "id": "M_479",
        "pitch": 103,
        "t_note_us": 67935841,
        "t_trigger_us": 67799878,
        "is_ai": true,
        "track_id": 14,
        "velocity": 0,
        "is_motor": false,
        "motor_id": 0,
        "accel_val": 2000,
        "base_duration_us": 87209
      },
      {
        "id": "M_480",
        "pitch": 57,
        "t_note_us": 68023050,
        "t_trigger_us": 67887087,
        "is_ai": false,
        "track_id": 0,
        "velocity": 0,
        "is_motor": true,
        "motor_id": 0,
        "accel_val": 2000,
        "base_duration_us": 174418
      },
      {
        "id": "M_481",
        "pitch": 53,
        "t_note_us": 68284677,
        "t_trigger_us": 68148714,
        "is_ai": false,
        "track_id": 0,
        "velocity": 0,
        "is_motor": true,
        "motor_id": 0,
        "accel_val": 2000,
        "base_duration_us": 87209
      },
      {
        "id": "M_482",
        "pitch": 93,
        "t_note_us": 68371886,
        "t_trigger_us": 68235923,
        "is_ai": true,
        "track_id": 8,
        "velocity": 0,
        "is_motor": false,
        "motor_id": 0,
        "accel_val": 2000,
        "base_duration_us": 174418
      },
      {
        "id": "M_483",
        "pitch": 93,
        "t_note_us": 68371886,
        "t_trigger_us": 68235923,
        "is_ai": true,
        "track_id": 8,
        "velocity": 0,
        "is_motor": false,
        "motor_id": 0,
        "accel_val": 2000,
        "base_duration_us": 174418
      },
      {
        "id": "M_484",
        "pitch": 55,
        "t_note_us": 68371886,
        "t_trigger_us": 68235923,
        "is_ai": false,
        "track_id": 0,
        "velocity": 0,
        "is_motor": true,
        "motor_id": 0,
        "accel_val": 2000,
        "base_duration_us": 174418
      },
      {
        "id": "M_485",
        "pitch": 48,
        "t_note_us": 68371886,
        "t_trigger_us": 68235923,
        "is_ai": false,
        "track_id": 0,
        "velocity": 0,
        "is_motor": true,
        "motor_id": 1,
        "accel_val": 2000,
        "base_duration_us": 174418
      },
      {
        "id": "M_486",
        "pitch": 60,
        "t_note_us": 68371886,
        "t_trigger_us": 68235923,
        "is_ai": false,
        "track_id": 0,
        "velocity": 0,
        "is_motor": true,
        "motor_id": 2,
        "accel_val": 2000,
        "base_duration_us": 174418
      },
      {
        "id": "M_487",
        "pitch": 91,
        "t_note_us": 68633513,
        "t_trigger_us": 68497550,
        "is_ai": true,
        "track_id": 7,
        "velocity": 0,
        "is_motor": false,
        "motor_id": 0,
        "accel_val": 2000,
        "base_duration_us": 87209
      },
      {
        "id": "M_488",
        "pitch": 103,
        "t_note_us": 68633513,
        "t_trigger_us": 68497550,
        "is_ai": true,
        "track_id": 14,
        "velocity": 0,
        "is_motor": false,
        "motor_id": 0,
        "accel_val": 2000,
        "base_duration_us": 87209
      },
      {
        "id": "M_489",
        "pitch": 55,
        "t_note_us": 68720722,
        "t_trigger_us": 68584759,
        "is_ai": false,
        "track_id": 0,
        "velocity": 0,
        "is_motor": true,
        "motor_id": 0,
        "accel_val": 2000,
        "base_duration_us": 174418
      },
      {
        "id": "M_490",
        "pitch": 60,
        "t_note_us": 68982349,
        "t_trigger_us": 68846386,
        "is_ai": false,
        "track_id": 0,
        "velocity": 0,
        "is_motor": true,
        "motor_id": 1,
        "accel_val": 2000,
        "base_duration_us": 87209
      },
      {
        "id": "M_491",
        "pitch": 103,
        "t_note_us": 69069558,
        "t_trigger_us": 68933595,
        "is_ai": true,
        "track_id": 14,
        "velocity": 0,
        "is_motor": false,
        "motor_id": 0,
        "accel_val": 2000,
        "base_duration_us": 174418
      },
      {
        "id": "M_492",
        "pitch": 91,
        "t_note_us": 69069558,
        "t_trigger_us": 68933595,
        "is_ai": true,
        "track_id": 7,
        "velocity": 0,
        "is_motor": false,
        "motor_id": 0,
        "accel_val": 2000,
        "base_duration_us": 174418
      },
      {
        "id": "M_493",
        "pitch": 60,
        "t_note_us": 69069558,
        "t_trigger_us": 68933595,
        "is_ai": false,
        "track_id": 0,
        "velocity": 0,
        "is_motor": true,
        "motor_id": 1,
        "accel_val": 2000,
        "base_duration_us": 174418
      },
      {
        "id": "M_494",
        "pitch": 96,
        "t_note_us": 69331185,
        "t_trigger_us": 69195222,
        "is_ai": true,
        "track_id": 10,
        "velocity": 0,
        "is_motor": false,
        "motor_id": 0,
        "accel_val": 2000,
        "base_duration_us": 87209
      },
      {
        "id": "M_495",
        "pitch": 96,
        "t_note_us": 69331185,
        "t_trigger_us": 69195222,
        "is_ai": true,
        "track_id": 10,
        "velocity": 0,
        "is_motor": false,
        "motor_id": 0,
        "accel_val": 2000,
        "base_duration_us": 87209
      },
      {
        "id": "M_496",
        "pitch": 48,
        "t_note_us": 69418394,
        "t_trigger_us": 69282431,
        "is_ai": false,
        "track_id": 0,
        "velocity": 0,
        "is_motor": true,
        "motor_id": 0,
        "accel_val": 2000,
        "base_duration_us": 174418
      },
      {
        "id": "M_497",
        "pitch": 95,
        "t_note_us": 69767230,
        "t_trigger_us": 69631267,
        "is_ai": true,
        "track_id": 9,
        "velocity": 0,
        "is_motor": false,
        "motor_id": 0,
        "accel_val": 2000,
        "base_duration_us": 174418
      },
      {
        "id": "M_498",
        "pitch": 95,
        "t_note_us": 69767230,
        "t_trigger_us": 69631267,
        "is_ai": true,
        "track_id": 9,
        "velocity": 0,
        "is_motor": false,
        "motor_id": 0,
        "accel_val": 2000,
        "base_duration_us": 174418
      },
      {
        "id": "M_499",
        "pitch": 55,
        "t_note_us": 69767230,
        "t_trigger_us": 69631267,
        "is_ai": false,
        "track_id": 0,
        "velocity": 0,
        "is_motor": true,
        "motor_id": 0,
        "accel_val": 2000,
        "base_duration_us": 174418
      },
      {
        "id": "M_500",
        "pitch": 59,
        "t_note_us": 69767230,
        "t_trigger_us": 69631267,
        "is_ai": false,
        "track_id": 0,
        "velocity": 0,
        "is_motor": true,
        "motor_id": 1,
        "accel_val": 2000,
        "base_duration_us": 174418
      },
      {
        "id": "M_501",
        "pitch": 48,
        "t_note_us": 69767230,
        "t_trigger_us": 69631267,
        "is_ai": false,
        "track_id": 0,
        "velocity": 0,
        "is_motor": true,
        "motor_id": 2,
        "accel_val": 2000,
        "base_duration_us": 174418
      },
      {
        "id": "M_502",
        "pitch": 91,
        "t_note_us": 70028857,
        "t_trigger_us": 69892894,
        "is_ai": true,
        "track_id": 7,
        "velocity": 0,
        "is_motor": false,
        "motor_id": 0,
        "accel_val": 2000,
        "base_duration_us": 87209
      },
      {
        "id": "M_503",
        "pitch": 67,
        "t_note_us": 70028857,
        "t_trigger_us": 69892894,
        "is_ai": false,
        "track_id": 0,
        "velocity": 0,
        "is_motor": true,
        "motor_id": 1,
        "accel_val": 2000,
        "base_duration_us": 87209
      },
      {
        "id": "M_504",
        "pitch": 55,
        "t_note_us": 70116066,
        "t_trigger_us": 69980103,
        "is_ai": false,
        "track_id": 0,
        "velocity": 0,
        "is_motor": true,
        "motor_id": 0,
        "accel_val": 2000,
        "base_duration_us": 174418
      },
      {
        "id": "M_505",
        "pitch": 59,
        "t_note_us": 70377693,
        "t_trigger_us": 70241730,
        "is_ai": false,
        "track_id": 0,
        "velocity": 0,
        "is_motor": true,
        "motor_id": 0,
        "accel_val": 2000,
        "base_duration_us": 87209
      },
      {
        "id": "M_506",
        "pitch": 100,
        "t_note_us": 70464902,
        "t_trigger_us": 70328939,
        "is_ai": true,
        "track_id": 12,
        "velocity": 0,
        "is_motor": false,
        "motor_id": 0,
        "accel_val": 2000,
        "base_duration_us": 174418
      },
      {
        "id": "M_507",
        "pitch": 88,
        "t_note_us": 70464902,
        "t_trigger_us": 70328939,
        "is_ai": true,
        "track_id": 5,
        "velocity": 0,
        "is_motor": false,
        "motor_id": 0,
        "accel_val": 2000,
        "base_duration_us": 174418
      },
      {
        "id": "M_508",
        "pitch": 47,
        "t_note_us": 70464902,
        "t_trigger_us": 70328939,
        "is_ai": false,
        "track_id": 0,
        "velocity": 0,
        "is_motor": true,
        "motor_id": 0,
        "accel_val": 2000,
        "base_duration_us": 174418
      },
      {
        "id": "M_509",
        "pitch": 59,
        "t_note_us": 70464902,
        "t_trigger_us": 70328939,
        "is_ai": false,
        "track_id": 0,
        "velocity": 0,
        "is_motor": true,
        "motor_id": 1,
        "accel_val": 2000,
        "base_duration_us": 174418
      },
      {
        "id": "M_510",
        "pitch": 103,
        "t_note_us": 70726529,
        "t_trigger_us": 70590566,
        "is_ai": true,
        "track_id": 14,
        "velocity": 0,
        "is_motor": false,
        "motor_id": 0,
        "accel_val": 2000,
        "base_duration_us": 87209
      },
      {
        "id": "M_511",
        "pitch": 91,
        "t_note_us": 70726529,
        "t_trigger_us": 70590566,
        "is_ai": true,
        "track_id": 7,
        "velocity": 0,
        "is_motor": false,
        "motor_id": 0,
        "accel_val": 2000,
        "base_duration_us": 87209
      },
      {
        "id": "M_512",
        "pitch": 45,
        "t_note_us": 70813738,
        "t_trigger_us": 70677775,
        "is_ai": false,
        "track_id": 0,
        "velocity": 0,
        "is_motor": true,
        "motor_id": 0,
        "accel_val": 2000,
        "base_duration_us": 174418
      },
      {
        "id": "M_513",
        "pitch": 57,
        "t_note_us": 70813738,
        "t_trigger_us": 70677775,
        "is_ai": false,
        "track_id": 0,
        "velocity": 0,
        "is_motor": true,
        "motor_id": 1,
        "accel_val": 2000,
        "base_duration_us": 174418
      },
      {
        "id": "M_514",
        "pitch": 74,
        "t_note_us": 71162574,
        "t_trigger_us": 71026611,
        "is_ai": false,
        "track_id": 0,
        "velocity": 0,
        "is_motor": true,
        "motor_id": 2,
        "accel_val": 2000,
        "base_duration_us": 174418
      },
      {
        "id": "M_515",
        "pitch": 74,
        "t_note_us": 71162574,
        "t_trigger_us": 71026611,
        "is_ai": false,
        "track_id": 0,
        "velocity": 0,
        "is_motor": true,
        "motor_id": 1,
        "accel_val": 2000,
        "base_duration_us": 174418
      },
      {
        "id": "M_516",
        "pitch": 44,
        "t_note_us": 71162574,
        "t_trigger_us": 71026611,
        "is_ai": false,
        "track_id": 0,
        "velocity": 0,
        "is_motor": true,
        "motor_id": 0,
        "accel_val": 2000,
        "base_duration_us": 174418
      },
      {
        "id": "M_517",
        "pitch": 56,
        "t_note_us": 71162574,
        "t_trigger_us": 71026611,
        "is_ai": false,
        "track_id": 0,
        "velocity": 0,
        "is_motor": true,
        "motor_id": 3,
        "accel_val": 2000,
        "base_duration_us": 174418
      },
      {
        "id": "M_518",
        "pitch": 98,
        "t_note_us": 71860247,
        "t_trigger_us": 71724284,
        "is_ai": true,
        "track_id": 11,
        "velocity": 0,
        "is_motor": false,
        "motor_id": 0,
        "accel_val": 2000,
        "base_duration_us": 174418
      },
      {
        "id": "M_519",
        "pitch": 74,
        "t_note_us": 71860247,
        "t_trigger_us": 71724284,
        "is_ai": false,
        "track_id": 0,
        "velocity": 0,
        "is_motor": true,
        "motor_id": 2,
        "accel_val": 2000,
        "base_duration_us": 174418
      },
      {
        "id": "M_520",
        "pitch": 76,
        "t_note_us": 72121874,
        "t_trigger_us": 71985911,
        "is_ai": false,
        "track_id": 0,
        "velocity": 0,
        "is_motor": true,
        "motor_id": 2,
        "accel_val": 2000,
        "base_duration_us": 87209
      },
      {
        "id": "M_521",
        "pitch": 76,
        "t_note_us": 72121874,
        "t_trigger_us": 71985911,
        "is_ai": false,
        "track_id": 0,
        "velocity": 0,
        "is_motor": true,
        "motor_id": 1,
        "accel_val": 2000,
        "base_duration_us": 87209
      },
      {
        "id": "M_523",
        "pitch": 98,
        "t_note_us": 72209083,
        "t_trigger_us": 72073120,
        "is_ai": true,
        "track_id": 11,
        "velocity": 0,
        "is_motor": false,
        "motor_id": 0,
        "accel_val": 2000,
        "base_duration_us": 174418
      },
      {
        "id": "M_522",
        "pitch": 74,
        "t_note_us": 72209083,
        "t_trigger_us": 72073120,
        "is_ai": false,
        "track_id": 0,
        "velocity": 0,
        "is_motor": true,
        "motor_id": 2,
        "accel_val": 2000,
        "base_duration_us": 174418
      },
      {
        "id": "M_524",
        "pitch": 96,
        "t_note_us": 72470710,
        "t_trigger_us": 72334747,
        "is_ai": true,
        "track_id": 10,
        "velocity": 0,
        "is_motor": false,
        "motor_id": 0,
        "accel_val": 2000,
        "base_duration_us": 87209
      },
      {
        "id": "M_525",
        "pitch": 72,
        "t_note_us": 72470710,
        "t_trigger_us": 72334747,
        "is_ai": false,
        "track_id": 0,
        "velocity": 0,
        "is_motor": true,
        "motor_id": 2,
        "accel_val": 2000,
        "base_duration_us": 87209
      },
      {
        "id": "M_526",
        "pitch": 69,
        "t_note_us": 72557919,
        "t_trigger_us": 72421956,
        "is_ai": false,
        "track_id": 0,
        "velocity": 0,
        "is_motor": true,
        "motor_id": 1,
        "accel_val": 2000,
        "base_duration_us": 174418
      },
      {
        "id": "M_527",
        "pitch": 69,
        "t_note_us": 72557919,
        "t_trigger_us": 72421956,
        "is_ai": false,
        "track_id": 0,
        "velocity": 0,
        "is_motor": true,
        "motor_id": 2,
        "accel_val": 2000,
        "base_duration_us": 174418
      },
      {
        "id": "M_528",
        "pitch": 57,
        "t_note_us": 72557919,
        "t_trigger_us": 72421956,
        "is_ai": false,
        "track_id": 0,
        "velocity": 0,
        "is_motor": true,
        "motor_id": 0,
        "accel_val": 2000,
        "base_duration_us": 174418
      },
      {
        "id": "M_529",
        "pitch": 53,
        "t_note_us": 72557919,
        "t_trigger_us": 72421956,
        "is_ai": false,
        "track_id": 0,
        "velocity": 0,
        "is_motor": true,
        "motor_id": 3,
        "accel_val": 2000,
        "base_duration_us": 174418
      },
      {
        "id": "M_530",
        "pitch": 65,
        "t_note_us": 72557919,
        "t_trigger_us": 72421956,
        "is_ai": false,
        "track_id": 0,
        "velocity": 0,
        "is_motor": true,
        "motor_id": 0,
        "accel_val": 2000,
        "base_duration_us": 174418
      },
      {
        "id": "M_532",
        "pitch": 96,
        "t_note_us": 72819546,
        "t_trigger_us": 72683583,
        "is_ai": true,
        "track_id": 10,
        "velocity": 0,
        "is_motor": false,
        "motor_id": 0,
        "accel_val": 2000,
        "base_duration_us": 87209
      },
      {
        "id": "M_531",
        "pitch": 72,
        "t_note_us": 72819546,
        "t_trigger_us": 72683583,
        "is_ai": false,
        "track_id": 0,
        "velocity": 0,
        "is_motor": true,
        "motor_id": 2,
        "accel_val": 2000,
        "base_duration_us": 87209
      },
      {
        "id": "M_533",
        "pitch": 57,
        "t_note_us": 72906755,
        "t_trigger_us": 72770792,
        "is_ai": false,
        "track_id": 0,
        "velocity": 0,
        "is_motor": true,
        "motor_id": 0,
        "accel_val": 2000,
        "base_duration_us": 174418
      },
      {
        "id": "M_534",
        "pitch": 65,
        "t_note_us": 73168382,
        "t_trigger_us": 73032419,
        "is_ai": false,
        "track_id": 0,
        "velocity": 0,
        "is_motor": true,
        "motor_id": 1,
        "accel_val": 2000,
        "base_duration_us": 87209
      },
      {
        "id": "M_535",
        "pitch": 76,
        "t_note_us": 73255591,
        "t_trigger_us": 73119628,
        "is_ai": false,
        "track_id": 0,
        "velocity": 0,
        "is_motor": true,
        "motor_id": 2,
        "accel_val": 2000,
        "base_duration_us": 174418
      },
      {
        "id": "M_536",
        "pitch": 76,
        "t_note_us": 73255591,
        "t_trigger_us": 73119628,
        "is_ai": false,
        "track_id": 0,
        "velocity": 0,
        "is_motor": true,
        "motor_id": 1,
        "accel_val": 2000,
        "base_duration_us": 174418
      },
      {
        "id": "M_537",
        "pitch": 65,
        "t_note_us": 73255591,
        "t_trigger_us": 73119628,
        "is_ai": false,
        "track_id": 0,
        "velocity": 0,
        "is_motor": true,
        "motor_id": 0,
        "accel_val": 2000,
        "base_duration_us": 174418
      },
      {
        "id": "M_538",
        "pitch": 67,
        "t_note_us": 73517218,
        "t_trigger_us": 73381255,
        "is_ai": false,
        "track_id": 0,
        "velocity": 0,
        "is_motor": true,
        "motor_id": 1,
        "accel_val": 2000,
        "base_duration_us": 87209
      },
      {
        "id": "M_539",
        "pitch": 67,
        "t_note_us": 73517218,
        "t_trigger_us": 73381255,
        "is_ai": false,
        "track_id": 0,
        "velocity": 0,
        "is_motor": true,
        "motor_id": 2,
        "accel_val": 2000,
        "base_duration_us": 87209
      },
      {
        "id": "M_540",
        "pitch": 57,
        "t_note_us": 73604427,
        "t_trigger_us": 73468464,
        "is_ai": false,
        "track_id": 0,
        "velocity": 0,
        "is_motor": true,
        "motor_id": 0,
        "accel_val": 2000,
        "base_duration_us": 174418
      },
      {
        "id": "M_541",
        "pitch": 53,
        "t_note_us": 73866054,
        "t_trigger_us": 73730091,
        "is_ai": false,
        "track_id": 0,
        "velocity": 0,
        "is_motor": true,
        "motor_id": 0,
        "accel_val": 2000,
        "base_duration_us": 87209
      },
      {
        "id": "M_542",
        "pitch": 74,
        "t_note_us": 73953263,
        "t_trigger_us": 73817300,
        "is_ai": false,
        "track_id": 0,
        "velocity": 0,
        "is_motor": true,
        "motor_id": 2,
        "accel_val": 2000,
        "base_duration_us": 174418
      },
      {
        "id": "M_543",
        "pitch": 74,
        "t_note_us": 73953263,
        "t_trigger_us": 73817300,
        "is_ai": false,
        "track_id": 0,
        "velocity": 0,
        "is_motor": true,
        "motor_id": 1,
        "accel_val": 2000,
        "base_duration_us": 174418
      },
      {
        "id": "M_544",
        "pitch": 55,
        "t_note_us": 73953263,
        "t_trigger_us": 73817300,
        "is_ai": false,
        "track_id": 0,
        "velocity": 0,
        "is_motor": true,
        "motor_id": 0,
        "accel_val": 2000,
        "base_duration_us": 174418
      },
      {
        "id": "M_545",
        "pitch": 48,
        "t_note_us": 73953263,
        "t_trigger_us": 73817300,
        "is_ai": false,
        "track_id": 0,
        "velocity": 0,
        "is_motor": true,
        "motor_id": 3,
        "accel_val": 2000,
        "base_duration_us": 174418
      },
      {
        "id": "M_546",
        "pitch": 60,
        "t_note_us": 73953263,
        "t_trigger_us": 73817300,
        "is_ai": false,
        "track_id": 0,
        "velocity": 0,
        "is_motor": true,
        "motor_id": 0,
        "accel_val": 2000,
        "base_duration_us": 174418
      },
      {
        "id": "M_547",
        "pitch": 84,
        "t_note_us": 74214890,
        "t_trigger_us": 74078927,
        "is_ai": true,
        "track_id": 3,
        "velocity": 0,
        "is_motor": false,
        "motor_id": 0,
        "accel_val": 2000,
        "base_duration_us": 87209
      },
      {
        "id": "M_548",
        "pitch": 96,
        "t_note_us": 74214890,
        "t_trigger_us": 74078927,
        "is_ai": true,
        "track_id": 10,
        "velocity": 0,
        "is_motor": false,
        "motor_id": 0,
        "accel_val": 2000,
        "base_duration_us": 87209
      },
      {
        "id": "M_549",
        "pitch": 55,
        "t_note_us": 74302099,
        "t_trigger_us": 74166136,
        "is_ai": false,
        "track_id": 0,
        "velocity": 0,
        "is_motor": true,
        "motor_id": 0,
        "accel_val": 2000,
        "base_duration_us": 174418
      },
      {
        "id": "M_552",
        "pitch": 96,
        "t_note_us": 74563726,
        "t_trigger_us": 74427763,
        "is_ai": true,
        "track_id": 10,
        "velocity": 0,
        "is_motor": false,
        "motor_id": 0,
        "accel_val": 2000,
        "base_duration_us": 87209
      },
      {
        "id": "M_550",
        "pitch": 60,
        "t_note_us": 74563726,
        "t_trigger_us": 74427763,
        "is_ai": false,
        "track_id": 0,
        "velocity": 0,
        "is_motor": true,
        "motor_id": 1,
        "accel_val": 2000,
        "base_duration_us": 87209
      },
      {
        "id": "M_551",
        "pitch": 72,
        "t_note_us": 74563726,
        "t_trigger_us": 74427763,
        "is_ai": false,
        "track_id": 0,
        "velocity": 0,
        "is_motor": true,
        "motor_id": 2,
        "accel_val": 2000,
        "base_duration_us": 87209
      },
      {
        "id": "M_553",
        "pitch": 60,
        "t_note_us": 74650935,
        "t_trigger_us": 74514972,
        "is_ai": false,
        "track_id": 0,
        "velocity": 0,
        "is_motor": true,
        "motor_id": 1,
        "accel_val": 2000,
        "base_duration_us": 174418
      },
      {
        "id": "M_554",
        "pitch": 72,
        "t_note_us": 74912562,
        "t_trigger_us": 74776599,
        "is_ai": false,
        "track_id": 0,
        "velocity": 0,
        "is_motor": true,
        "motor_id": 2,
        "accel_val": 2000,
        "base_duration_us": 87209
      },
      {
        "id": "M_555",
        "pitch": 72,
        "t_note_us": 74912562,
        "t_trigger_us": 74776599,
        "is_ai": false,
        "track_id": 0,
        "velocity": 0,
        "is_motor": true,
        "motor_id": 1,
        "accel_val": 2000,
        "base_duration_us": 87209
      },
      {
        "id": "M_556",
        "pitch": 74,
        "t_note_us": 74999771,
        "t_trigger_us": 74863808,
        "is_ai": false,
        "track_id": 0,
        "velocity": 0,
        "is_motor": true,
        "motor_id": 2,
        "accel_val": 2000,
        "base_duration_us": 174418
      },
      {
        "id": "M_557",
        "pitch": 74,
        "t_note_us": 74999771,
        "t_trigger_us": 74863808,
        "is_ai": false,
        "track_id": 0,
        "velocity": 0,
        "is_motor": true,
        "motor_id": 1,
        "accel_val": 2000,
        "base_duration_us": 174418
      },
      {
        "id": "M_558",
        "pitch": 55,
        "t_note_us": 74999771,
        "t_trigger_us": 74863808,
        "is_ai": false,
        "track_id": 0,
        "velocity": 0,
        "is_motor": true,
        "motor_id": 0,
        "accel_val": 2000,
        "base_duration_us": 174418
      },
      {
        "id": "M_559",
        "pitch": 48,
        "t_note_us": 75261398,
        "t_trigger_us": 75125435,
        "is_ai": false,
        "track_id": 0,
        "velocity": 0,
        "is_motor": true,
        "motor_id": 0,
        "accel_val": 2000,
        "base_duration_us": 87209
      },
      {
        "id": "M_560",
        "pitch": 76,
        "t_note_us": 75261398,
        "t_trigger_us": 75125435,
        "is_ai": false,
        "track_id": 0,
        "velocity": 0,
        "is_motor": true,
        "motor_id": 2,
        "accel_val": 2000,
        "base_duration_us": 87209
      },
      {
        "id": "M_561",
        "pitch": 76,
        "t_note_us": 75261398,
        "t_trigger_us": 75125435,
        "is_ai": false,
        "track_id": 0,
        "velocity": 0,
        "is_motor": true,
        "motor_id": 1,
        "accel_val": 2000,
        "base_duration_us": 87209
      },
      {
        "id": "M_563",
        "pitch": 101,
        "t_note_us": 75348607,
        "t_trigger_us": 75212644,
        "is_ai": true,
        "track_id": 13,
        "velocity": 0,
        "is_motor": false,
        "motor_id": 0,
        "accel_val": 2000,
        "base_duration_us": 174418
      },
      {
        "id": "M_562",
        "pitch": 77,
        "t_note_us": 75348607,
        "t_trigger_us": 75212644,
        "is_ai": false,
        "track_id": 0,
        "velocity": 0,
        "is_motor": true,
        "motor_id": 2,
        "accel_val": 2000,
        "base_duration_us": 174418
      },
      {
        "id": "M_564",
        "pitch": 57,
        "t_note_us": 75348607,
        "t_trigger_us": 75212644,
        "is_ai": false,
        "track_id": 0,
        "velocity": 0,
        "is_motor": true,
        "motor_id": 0,
        "accel_val": 2000,
        "base_duration_us": 174418
      },
      {
        "id": "M_565",
        "pitch": 50,
        "t_note_us": 75348607,
        "t_trigger_us": 75212644,
        "is_ai": false,
        "track_id": 0,
        "velocity": 0,
        "is_motor": true,
        "motor_id": 1,
        "accel_val": 2000,
        "base_duration_us": 174418
      },
      {
        "id": "M_566",
        "pitch": 62,
        "t_note_us": 75348607,
        "t_trigger_us": 75212644,
        "is_ai": false,
        "track_id": 0,
        "velocity": 0,
        "is_motor": true,
        "motor_id": 3,
        "accel_val": 2000,
        "base_duration_us": 174418
      },
      {
        "id": "M_567",
        "pitch": 62,
        "t_note_us": 75610234,
        "t_trigger_us": 75474271,
        "is_ai": false,
        "track_id": 0,
        "velocity": 0,
        "is_motor": true,
        "motor_id": 1,
        "accel_val": 2000,
        "base_duration_us": 87209
      },
      {
        "id": "M_568",
        "pitch": 57,
        "t_note_us": 75610234,
        "t_trigger_us": 75474271,
        "is_ai": false,
        "track_id": 0,
        "velocity": 0,
        "is_motor": true,
        "motor_id": 0,
        "accel_val": 2000,
        "base_duration_us": 87209
      },
      {
        "id": "M_569",
        "pitch": 50,
        "t_note_us": 75610234,
        "t_trigger_us": 75474271,
        "is_ai": false,
        "track_id": 0,
        "velocity": 0,
        "is_motor": true,
        "motor_id": 2,
        "accel_val": 2000,
        "base_duration_us": 87209
      },
      {
        "id": "M_570",
        "pitch": 76,
        "t_note_us": 75610234,
        "t_trigger_us": 75474271,
        "is_ai": false,
        "track_id": 0,
        "velocity": 0,
        "is_motor": true,
        "motor_id": 3,
        "accel_val": 2000,
        "base_duration_us": 87209
      },
      {
        "id": "M_571",
        "pitch": 76,
        "t_note_us": 75610234,
        "t_trigger_us": 75474271,
        "is_ai": false,
        "track_id": 0,
        "velocity": 0,
        "is_motor": true,
        "motor_id": 0,
        "accel_val": 2000,
        "base_duration_us": 87209
      },
      {
        "id": "M_572",
        "pitch": 98,
        "t_note_us": 76046280,
        "t_trigger_us": 75910317,
        "is_ai": true,
        "track_id": 11,
        "velocity": 0,
        "is_motor": false,
        "motor_id": 0,
        "accel_val": 2000,
        "base_duration_us": 174418
      },
      {
        "id": "M_573",
        "pitch": 74,
        "t_note_us": 76046280,
        "t_trigger_us": 75910317,
        "is_ai": false,
        "track_id": 0,
        "velocity": 0,
        "is_motor": true,
        "motor_id": 2,
        "accel_val": 2000,
        "base_duration_us": 174418
      },
      {
        "id": "M_574",
        "pitch": 62,
        "t_note_us": 76046280,
        "t_trigger_us": 75910317,
        "is_ai": false,
        "track_id": 0,
        "velocity": 0,
        "is_motor": true,
        "motor_id": 1,
        "accel_val": 2000,
        "base_duration_us": 174418
      },
      {
        "id": "M_575",
        "pitch": 67,
        "t_note_us": 76046280,
        "t_trigger_us": 75910317,
        "is_ai": false,
        "track_id": 0,
        "velocity": 0,
        "is_motor": true,
        "motor_id": 0,
        "accel_val": 2000,
        "base_duration_us": 174418
      },
      {
        "id": "M_576",
        "pitch": 55,
        "t_note_us": 76046280,
        "t_trigger_us": 75910317,
        "is_ai": false,
        "track_id": 0,
        "velocity": 0,
        "is_motor": true,
        "motor_id": 3,
        "accel_val": 2000,
        "base_duration_us": 174418
      },
      {
        "id": "M_581",
        "pitch": 95,
        "t_note_us": 76307907,
        "t_trigger_us": 76171944,
        "is_ai": true,
        "track_id": 9,
        "velocity": 0,
        "is_motor": false,
        "motor_id": 0,
        "accel_val": 2000,
        "base_duration_us": 87209
      },
      {
        "id": "M_577",
        "pitch": 62,
        "t_note_us": 76307907,
        "t_trigger_us": 76171944,
        "is_ai": false,
        "track_id": 0,
        "velocity": 0,
        "is_motor": true,
        "motor_id": 1,
        "accel_val": 2000,
        "base_duration_us": 87209
      },
      {
        "id": "M_578",
        "pitch": 67,
        "t_note_us": 76307907,
        "t_trigger_us": 76171944,
        "is_ai": false,
        "track_id": 0,
        "velocity": 0,
        "is_motor": true,
        "motor_id": 2,
        "accel_val": 2000,
        "base_duration_us": 87209
      },
      {
        "id": "M_579",
        "pitch": 55,
        "t_note_us": 76307907,
        "t_trigger_us": 76171944,
        "is_ai": false,
        "track_id": 0,
        "velocity": 0,
        "is_motor": true,
        "motor_id": 0,
        "accel_val": 2000,
        "base_duration_us": 87209
      },
      {
        "id": "M_580",
        "pitch": 71,
        "t_note_us": 76307907,
        "t_trigger_us": 76171944,
        "is_ai": false,
        "track_id": 0,
        "velocity": 0,
        "is_motor": true,
        "motor_id": 3,
        "accel_val": 2000,
        "base_duration_us": 87209
      },
      {
        "id": "M_582",
        "pitch": 96,
        "t_note_us": 76743953,
        "t_trigger_us": 76607990,
        "is_ai": true,
        "track_id": 10,
        "velocity": 0,
        "is_motor": false,
        "motor_id": 0,
        "accel_val": 2000,
        "base_duration_us": 174418
      },
      {
        "id": "M_583",
        "pitch": 72,
        "t_note_us": 76743953,
        "t_trigger_us": 76607990,
        "is_ai": false,
        "track_id": 0,
        "velocity": 0,
        "is_motor": true,
        "motor_id": 2,
        "accel_val": 2000,
        "base_duration_us": 174418
      },
      {
        "id": "M_584",
        "pitch": 55,
        "t_note_us": 76743953,
        "t_trigger_us": 76607990,
        "is_ai": false,
        "track_id": 0,
        "velocity": 0,
        "is_motor": true,
        "motor_id": 0,
        "accel_val": 2000,
        "base_duration_us": 174418
      },
      {
        "id": "M_585",
        "pitch": 60,
        "t_note_us": 76743953,
        "t_trigger_us": 76607990,
        "is_ai": false,
        "track_id": 0,
        "velocity": 0,
        "is_motor": true,
        "motor_id": 1,
        "accel_val": 2000,
        "base_duration_us": 174418
      },
      {
        "id": "M_586",
        "pitch": 64,
        "t_note_us": 76743953,
        "t_trigger_us": 76607990,
        "is_ai": false,
        "track_id": 0,
        "velocity": 0,
        "is_motor": true,
        "motor_id": 3,
        "accel_val": 2000,
        "base_duration_us": 174418
      },
      {
        "id": "M_587",
        "pitch": 52,
        "t_note_us": 76743953,
        "t_trigger_us": 76607990,
        "is_ai": false,
        "track_id": 0,
        "velocity": 0,
        "is_motor": true,
        "motor_id": 0,
        "accel_val": 2000,
        "base_duration_us": 174418
      },
      {
        "id": "M_588",
        "pitch": 55,
        "t_note_us": 77092789,
        "t_trigger_us": 76956826,
        "is_ai": false,
        "track_id": 0,
        "velocity": 0,
        "is_motor": true,
        "motor_id": 0,
        "accel_val": 2000,
        "base_duration_us": 174418
      },
      {
        "id": "M_589",
        "pitch": 64,
        "t_note_us": 77354416,
        "t_trigger_us": 77218453,
        "is_ai": false,
        "track_id": 0,
        "velocity": 0,
        "is_motor": true,
        "motor_id": 1,
        "accel_val": 2000,
        "base_duration_us": 87209
      },
      {
        "id": "M_590",
        "pitch": 64,
        "t_note_us": 77441625,
        "t_trigger_us": 77305662,
        "is_ai": false,
        "track_id": 0,
        "velocity": 0,
        "is_motor": true,
        "motor_id": 1,
        "accel_val": 2000,
        "base_duration_us": 174418
      },
      {
        "id": "M_592",
        "pitch": 96,
        "t_note_us": 77790461,
        "t_trigger_us": 77654498,
        "is_ai": true,
        "track_id": 10,
        "velocity": 0,
        "is_motor": false,
        "motor_id": 0,
        "accel_val": 2000,
        "base_duration_us": 174418
      },
      {
        "id": "M_591",
        "pitch": 72,
        "t_note_us": 77790461,
        "t_trigger_us": 77654498,
        "is_ai": false,
        "track_id": 0,
        "velocity": 0,
        "is_motor": true,
        "motor_id": 2,
        "accel_val": 2000,
        "base_duration_us": 174418
      },
      {
        "id": "M_593",
        "pitch": 55,
        "t_note_us": 77790461,
        "t_trigger_us": 77654498,
        "is_ai": false,
        "track_id": 0,
        "velocity": 0,
        "is_motor": true,
        "motor_id": 0,
        "accel_val": 2000,
        "base_duration_us": 174418
      },
      {
        "id": "M_594",
        "pitch": 52,
        "t_note_us": 78052088,
        "t_trigger_us": 77916125,
        "is_ai": false,
        "track_id": 0,
        "velocity": 0,
        "is_motor": true,
        "motor_id": 0,
        "accel_val": 2000,
        "base_duration_us": 87209
      },
      {
        "id": "M_595",
        "pitch": 71,
        "t_note_us": 78052088,
        "t_trigger_us": 77916125,
        "is_ai": false,
        "track_id": 0,
        "velocity": 0,
        "is_motor": true,
        "motor_id": 1,
        "accel_val": 2000,
        "base_duration_us": 87209
      },
      {
        "id": "M_596",
        "pitch": 71,
        "t_note_us": 78052088,
        "t_trigger_us": 77916125,
        "is_ai": false,
        "track_id": 0,
        "velocity": 0,
        "is_motor": true,
        "motor_id": 2,
        "accel_val": 2000,
        "base_duration_us": 87209
      },
      {
        "id": "M_597",
        "pitch": 57,
        "t_note_us": 78139297,
        "t_trigger_us": 78003334,
        "is_ai": false,
        "track_id": 0,
        "velocity": 0,
        "is_motor": true,
        "motor_id": 0,
        "accel_val": 2000,
        "base_duration_us": 174418
      },
      {
        "id": "M_598",
        "pitch": 65,
        "t_note_us": 78139297,
        "t_trigger_us": 78003334,
        "is_ai": false,
        "track_id": 0,
        "velocity": 0,
        "is_motor": true,
        "motor_id": 1,
        "accel_val": 2000,
        "base_duration_us": 174418
      },
      {
        "id": "M_599",
        "pitch": 53,
        "t_note_us": 78139297,
        "t_trigger_us": 78003334,
        "is_ai": false,
        "track_id": 0,
        "velocity": 0,
        "is_motor": true,
        "motor_id": 2,
        "accel_val": 2000,
        "base_duration_us": 174418
      },
      {
        "id": "M_600",
        "pitch": 69,
        "t_note_us": 78139297,
        "t_trigger_us": 78003334,
        "is_ai": false,
        "track_id": 0,
        "velocity": 0,
        "is_motor": true,
        "motor_id": 3,
        "accel_val": 2000,
        "base_duration_us": 174418
      },
      {
        "id": "M_601",
        "pitch": 69,
        "t_note_us": 78139297,
        "t_trigger_us": 78003334,
        "is_ai": false,
        "track_id": 0,
        "velocity": 0,
        "is_motor": true,
        "motor_id": 0,
        "accel_val": 2000,
        "base_duration_us": 174418
      },
      {
        "id": "M_603",
        "pitch": 95,
        "t_note_us": 78488133,
        "t_trigger_us": 78352170,
        "is_ai": true,
        "track_id": 9,
        "velocity": 0,
        "is_motor": false,
        "motor_id": 0,
        "accel_val": 2000,
        "base_duration_us": 174418
      },
      {
        "id": "M_602",
        "pitch": 57,
        "t_note_us": 78488133,
        "t_trigger_us": 78352170,
        "is_ai": false,
        "track_id": 0,
        "velocity": 0,
        "is_motor": true,
        "motor_id": 0,
        "accel_val": 2000,
        "base_duration_us": 174418
      },
      {
        "id": "M_604",
        "pitch": 71,
        "t_note_us": 78488133,
        "t_trigger_us": 78352170,
        "is_ai": false,
        "track_id": 0,
        "velocity": 0,
        "is_motor": true,
        "motor_id": 1,
        "accel_val": 2000,
        "base_duration_us": 174418
      },
      {
        "id": "M_605",
        "pitch": 65,
        "t_note_us": 78749760,
        "t_trigger_us": 78613797,
        "is_ai": false,
        "track_id": 0,
        "velocity": 0,
        "is_motor": true,
        "motor_id": 1,
        "accel_val": 2000,
        "base_duration_us": 87209
      },
      {
        "id": "M_607",
        "pitch": 96,
        "t_note_us": 78836969,
        "t_trigger_us": 78701006,
        "is_ai": true,
        "track_id": 10,
        "velocity": 0,
        "is_motor": false,
        "motor_id": 0,
        "accel_val": 2000,
        "base_duration_us": 174418
      },
      {
        "id": "M_606",
        "pitch": 65,
        "t_note_us": 78836969,
        "t_trigger_us": 78701006,
        "is_ai": false,
        "track_id": 0,
        "velocity": 0,
        "is_motor": true,
        "motor_id": 1,
        "accel_val": 2000,
        "base_duration_us": 174418
      },
      {
        "id": "M_608",
        "pitch": 72,
        "t_note_us": 78836969,
        "t_trigger_us": 78701006,
        "is_ai": false,
        "track_id": 0,
        "velocity": 0,
        "is_motor": true,
        "motor_id": 2,
        "accel_val": 2000,
        "base_duration_us": 174418
      },
      {
        "id": "M_609",
        "pitch": 57,
        "t_note_us": 79185805,
        "t_trigger_us": 79049842,
        "is_ai": false,
        "track_id": 0,
        "velocity": 0,
        "is_motor": true,
        "motor_id": 0,
        "accel_val": 2000,
        "base_duration_us": 174418
      },
      {
        "id": "M_610",
        "pitch": 74,
        "t_note_us": 79185805,
        "t_trigger_us": 79049842,
        "is_ai": false,
        "track_id": 0,
        "velocity": 0,
        "is_motor": true,
        "motor_id": 2,
        "accel_val": 2000,
        "base_duration_us": 174418
      },
      {
        "id": "M_611",
        "pitch": 74,
        "t_note_us": 79185805,
        "t_trigger_us": 79049842,
        "is_ai": false,
        "track_id": 0,
        "velocity": 0,
        "is_motor": true,
        "motor_id": 1,
        "accel_val": 2000,
        "base_duration_us": 174418
      },
      {
        "id": "M_612",
        "pitch": 53,
        "t_note_us": 79447432,
        "t_trigger_us": 79311469,
        "is_ai": false,
        "track_id": 0,
        "velocity": 0,
        "is_motor": true,
        "motor_id": 0,
        "accel_val": 2000,
        "base_duration_us": 87209
      },
      {
        "id": "M_613",
        "pitch": 55,
        "t_note_us": 79534641,
        "t_trigger_us": 79398678,
        "is_ai": false,
        "track_id": 0,
        "velocity": 0,
        "is_motor": true,
        "motor_id": 0,
        "accel_val": 2000,
        "base_duration_us": 174418
      },
      {
        "id": "M_614",
        "pitch": 52,
        "t_note_us": 79534641,
        "t_trigger_us": 79398678,
        "is_ai": false,
        "track_id": 0,
        "velocity": 0,
        "is_motor": true,
        "motor_id": 1,
        "accel_val": 2000,
        "base_duration_us": 174418
      },
      {
        "id": "M_615",
        "pitch": 60,
        "t_note_us": 79534641,
        "t_trigger_us": 79398678,
        "is_ai": false,
        "track_id": 0,
        "velocity": 0,
        "is_motor": true,
        "motor_id": 2,
        "accel_val": 2000,
        "base_duration_us": 174418
      },
      {
        "id": "M_616",
        "pitch": 71,
        "t_note_us": 79534641,
        "t_trigger_us": 79398678,
        "is_ai": false,
        "track_id": 0,
        "velocity": 0,
        "is_motor": true,
        "motor_id": 3,
        "accel_val": 2000,
        "base_duration_us": 174418
      },
      {
        "id": "M_617",
        "pitch": 71,
        "t_note_us": 79534641,
        "t_trigger_us": 79398678,
        "is_ai": false,
        "track_id": 0,
        "velocity": 0,
        "is_motor": true,
        "motor_id": 0,
        "accel_val": 2000,
        "base_duration_us": 174418
      },
      {
        "id": "M_618",
        "pitch": 55,
        "t_note_us": 79883477,
        "t_trigger_us": 79747514,
        "is_ai": false,
        "track_id": 0,
        "velocity": 0,
        "is_motor": true,
        "motor_id": 0,
        "accel_val": 2000,
        "base_duration_us": 174418
      },
      {
        "id": "M_619",
        "pitch": 67,
        "t_note_us": 79883477,
        "t_trigger_us": 79747514,
        "is_ai": false,
        "track_id": 0,
        "velocity": 0,
        "is_motor": true,
        "motor_id": 1,
        "accel_val": 2000,
        "base_duration_us": 174418
      },
      {
        "id": "M_620",
        "pitch": 67,
        "t_note_us": 79883477,
        "t_trigger_us": 79747514,
        "is_ai": false,
        "track_id": 0,
        "velocity": 0,
        "is_motor": true,
        "motor_id": 2,
        "accel_val": 2000,
        "base_duration_us": 174418
      },
      {
        "id": "M_621",
        "pitch": 60,
        "t_note_us": 80145104,
        "t_trigger_us": 80009141,
        "is_ai": false,
        "track_id": 0,
        "velocity": 0,
        "is_motor": true,
        "motor_id": 1,
        "accel_val": 2000,
        "base_duration_us": 87209
      },
      {
        "id": "M_622",
        "pitch": 60,
        "t_note_us": 80232313,
        "t_trigger_us": 80096350,
        "is_ai": false,
        "track_id": 0,
        "velocity": 0,
        "is_motor": true,
        "motor_id": 1,
        "accel_val": 2000,
        "base_duration_us": 174418
      },
      {
        "id": "M_623",
        "pitch": 76,
        "t_note_us": 80232313,
        "t_trigger_us": 80096350,
        "is_ai": false,
        "track_id": 0,
        "velocity": 0,
        "is_motor": true,
        "motor_id": 2,
        "accel_val": 2000,
        "base_duration_us": 174418
      },
      {
        "id": "M_624",
        "pitch": 76,
        "t_note_us": 80232313,
        "t_trigger_us": 80096350,
        "is_ai": false,
        "track_id": 0,
        "velocity": 0,
        "is_motor": true,
        "motor_id": 3,
        "accel_val": 2000,
        "base_duration_us": 174418
      },
      {
        "id": "M_625",
        "pitch": 55,
        "t_note_us": 80581149,
        "t_trigger_us": 80445186,
        "is_ai": false,
        "track_id": 0,
        "velocity": 0,
        "is_motor": true,
        "motor_id": 0,
        "accel_val": 2000,
        "base_duration_us": 174418
      },
      {
        "id": "M_626",
        "pitch": 67,
        "t_note_us": 80581149,
        "t_trigger_us": 80445186,
        "is_ai": false,
        "track_id": 0,
        "velocity": 0,
        "is_motor": true,
        "motor_id": 1,
        "accel_val": 2000,
        "base_duration_us": 174418
      },
      {
        "id": "M_627",
        "pitch": 67,
        "t_note_us": 80581149,
        "t_trigger_us": 80445186,
        "is_ai": false,
        "track_id": 0,
        "velocity": 0,
        "is_motor": true,
        "motor_id": 2,
        "accel_val": 2000,
        "base_duration_us": 174418
      },
      {
        "id": "M_628",
        "pitch": 48,
        "t_note_us": 80842776,
        "t_trigger_us": 80706813,
        "is_ai": false,
        "track_id": 0,
        "velocity": 0,
        "is_motor": true,
        "motor_id": 0,
        "accel_val": 2000,
        "base_duration_us": 87209
      },
      {
        "id": "M_629",
        "pitch": 57,
        "t_note_us": 80929985,
        "t_trigger_us": 80794022,
        "is_ai": false,
        "track_id": 0,
        "velocity": 0,
        "is_motor": true,
        "motor_id": 0,
        "accel_val": 2000,
        "base_duration_us": 174418
      },
      {
        "id": "M_630",
        "pitch": 53,
        "t_note_us": 80929985,
        "t_trigger_us": 80794022,
        "is_ai": false,
        "track_id": 0,
        "velocity": 0,
        "is_motor": true,
        "motor_id": 1,
        "accel_val": 2000,
        "base_duration_us": 174418
      },
      {
        "id": "M_631",
        "pitch": 65,
        "t_note_us": 80929985,
        "t_trigger_us": 80794022,
        "is_ai": false,
        "track_id": 0,
        "velocity": 0,
        "is_motor": true,
        "motor_id": 2,
        "accel_val": 2000,
        "base_duration_us": 174418
      },
      {
        "id": "M_632",
        "pitch": 69,
        "t_note_us": 80929985,
        "t_trigger_us": 80794022,
        "is_ai": false,
        "track_id": 0,
        "velocity": 0,
        "is_motor": true,
        "motor_id": 3,
        "accel_val": 2000,
        "base_duration_us": 174418
      },
      {
        "id": "M_633",
        "pitch": 69,
        "t_note_us": 80929985,
        "t_trigger_us": 80794022,
        "is_ai": false,
        "track_id": 0,
        "velocity": 0,
        "is_motor": true,
        "motor_id": 0,
        "accel_val": 2000,
        "base_duration_us": 174418
      },
      {
        "id": "M_634",
        "pitch": 74,
        "t_note_us": 81191612,
        "t_trigger_us": 81055649,
        "is_ai": false,
        "track_id": 0,
        "velocity": 0,
        "is_motor": true,
        "motor_id": 2,
        "accel_val": 2000,
        "base_duration_us": 87209
      },
      {
        "id": "M_635",
        "pitch": 74,
        "t_note_us": 81191612,
        "t_trigger_us": 81055649,
        "is_ai": false,
        "track_id": 0,
        "velocity": 0,
        "is_motor": true,
        "motor_id": 1,
        "accel_val": 2000,
        "base_duration_us": 87209
      },
      {
        "id": "M_636",
        "pitch": 62,
        "t_note_us": 81627658,
        "t_trigger_us": 81491695,
        "is_ai": false,
        "track_id": 0,
        "velocity": 0,
        "is_motor": true,
        "motor_id": 1,
        "accel_val": 2000,
        "base_duration_us": 174418
      },
      {
        "id": "M_637",
        "pitch": 55,
        "t_note_us": 81627658,
        "t_trigger_us": 81491695,
        "is_ai": false,
        "track_id": 0,
        "velocity": 0,
        "is_motor": true,
        "motor_id": 0,
        "accel_val": 2000,
        "base_duration_us": 174418
      },
      {
        "id": "M_638",
        "pitch": 67,
        "t_note_us": 81627658,
        "t_trigger_us": 81491695,
        "is_ai": false,
        "track_id": 0,
        "velocity": 0,
        "is_motor": true,
        "motor_id": 2,
        "accel_val": 2000,
        "base_duration_us": 174418
      },
      {
        "id": "M_639",
        "pitch": 71,
        "t_note_us": 81627658,
        "t_trigger_us": 81491695,
        "is_ai": false,
        "track_id": 0,
        "velocity": 0,
        "is_motor": true,
        "motor_id": 3,
        "accel_val": 2000,
        "base_duration_us": 174418
      },
      {
        "id": "M_640",
        "pitch": 71,
        "t_note_us": 81627658,
        "t_trigger_us": 81491695,
        "is_ai": false,
        "track_id": 0,
        "velocity": 0,
        "is_motor": true,
        "motor_id": 0,
        "accel_val": 2000,
        "base_duration_us": 174418
      },
      {
        "id": "M_641",
        "pitch": 72,
        "t_note_us": 81889285,
        "t_trigger_us": 81753322,
        "is_ai": false,
        "track_id": 0,
        "velocity": 0,
        "is_motor": true,
        "motor_id": 2,
        "accel_val": 2000,
        "base_duration_us": 87209
      },
      {
        "id": "M_642",
        "pitch": 72,
        "t_note_us": 81889285,
        "t_trigger_us": 81753322,
        "is_ai": false,
        "track_id": 0,
        "velocity": 0,
        "is_motor": true,
        "motor_id": 1,
        "accel_val": 2000,
        "base_duration_us": 87209
      },
      {
        "id": "M_646",
        "pitch": 96,
        "t_note_us": 82325331,
        "t_trigger_us": 82189368,
        "is_ai": true,
        "track_id": 10,
        "velocity": 0,
        "is_motor": false,
        "motor_id": 0,
        "accel_val": 2000,
        "base_duration_us": 174418
      },
      {
        "id": "M_643",
        "pitch": 57,
        "t_note_us": 82325331,
        "t_trigger_us": 82189368,
        "is_ai": false,
        "track_id": 0,
        "velocity": 0,
        "is_motor": true,
        "motor_id": 0,
        "accel_val": 2000,
        "base_duration_us": 174418
      },
      {
        "id": "M_644",
        "pitch": 69,
        "t_note_us": 82325331,
        "t_trigger_us": 82189368,
        "is_ai": false,
        "track_id": 0,
        "velocity": 0,
        "is_motor": true,
        "motor_id": 1,
        "accel_val": 2000,
        "base_duration_us": 174418
      },
      {
        "id": "M_645",
        "pitch": 72,
        "t_note_us": 82325331,
        "t_trigger_us": 82189368,
        "is_ai": false,
        "track_id": 0,
        "velocity": 0,
        "is_motor": true,
        "motor_id": 2,
        "accel_val": 2000,
        "base_duration_us": 174418
      },
      {
        "id": "M_647",
        "pitch": 64,
        "t_note_us": 82674167,
        "t_trigger_us": 82538204,
        "is_ai": false,
        "track_id": 0,
        "velocity": 0,
        "is_motor": true,
        "motor_id": 1,
        "accel_val": 2000,
        "base_duration_us": 174418
      },
      {
        "id": "M_648",
        "pitch": 69,
        "t_note_us": 83023003,
        "t_trigger_us": 82887040,
        "is_ai": false,
        "track_id": 0,
        "velocity": 0,
        "is_motor": true,
        "motor_id": 1,
        "accel_val": 2000,
        "base_duration_us": 174418
      },
      {
        "id": "M_649",
        "pitch": 72,
        "t_note_us": 83371839,
        "t_trigger_us": 83235876,
        "is_ai": false,
        "track_id": 0,
        "velocity": 0,
        "is_motor": true,
        "motor_id": 2,
        "accel_val": 2000,
        "base_duration_us": 174418
      },
      {
        "id": "M_650",
        "pitch": 72,
        "t_note_us": 83371839,
        "t_trigger_us": 83235876,
        "is_ai": false,
        "track_id": 0,
        "velocity": 0,
        "is_motor": true,
        "motor_id": 1,
        "accel_val": 2000,
        "base_duration_us": 174418
      },
      {
        "id": "M_651",
        "pitch": 71,
        "t_note_us": 83633466,
        "t_trigger_us": 83497503,
        "is_ai": false,
        "track_id": 0,
        "velocity": 0,
        "is_motor": true,
        "motor_id": 1,
        "accel_val": 2000,
        "base_duration_us": 87209
      },
      {
        "id": "M_652",
        "pitch": 71,
        "t_note_us": 83633466,
        "t_trigger_us": 83497503,
        "is_ai": false,
        "track_id": 0,
        "velocity": 0,
        "is_motor": true,
        "motor_id": 2,
        "accel_val": 2000,
        "base_duration_us": 87209
      },
      {
        "id": "M_653",
        "pitch": 57,
        "t_note_us": 83720675,
        "t_trigger_us": 83584712,
        "is_ai": false,
        "track_id": 0,
        "velocity": 0,
        "is_motor": true,
        "motor_id": 0,
        "accel_val": 2000,
        "base_duration_us": 174418
      },
      {
        "id": "M_654",
        "pitch": 53,
        "t_note_us": 83720675,
        "t_trigger_us": 83584712,
        "is_ai": false,
        "track_id": 0,
        "velocity": 0,
        "is_motor": true,
        "motor_id": 1,
        "accel_val": 2000,
        "base_duration_us": 174418
      },
      {
        "id": "M_655",
        "pitch": 65,
        "t_note_us": 83720675,
        "t_trigger_us": 83584712,
        "is_ai": false,
        "track_id": 0,
        "velocity": 0,
        "is_motor": true,
        "motor_id": 2,
        "accel_val": 2000,
        "base_duration_us": 174418
      },
      {
        "id": "M_656",
        "pitch": 69,
        "t_note_us": 83720675,
        "t_trigger_us": 83584712,
        "is_ai": false,
        "track_id": 0,
        "velocity": 0,
        "is_motor": true,
        "motor_id": 3,
        "accel_val": 2000,
        "base_duration_us": 174418
      },
      {
        "id": "M_657",
        "pitch": 69,
        "t_note_us": 83720675,
        "t_trigger_us": 83584712,
        "is_ai": false,
        "track_id": 0,
        "velocity": 0,
        "is_motor": true,
        "motor_id": 0,
        "accel_val": 2000,
        "base_duration_us": 174418
      },
      {
        "id": "M_658",
        "pitch": 57,
        "t_note_us": 84069511,
        "t_trigger_us": 83933548,
        "is_ai": false,
        "track_id": 0,
        "velocity": 0,
        "is_motor": true,
        "motor_id": 0,
        "accel_val": 2000,
        "base_duration_us": 174418
      },
      {
        "id": "M_659",
        "pitch": 71,
        "t_note_us": 84069511,
        "t_trigger_us": 83933548,
        "is_ai": false,
        "track_id": 0,
        "velocity": 0,
        "is_motor": true,
        "motor_id": 1,
        "accel_val": 2000,
        "base_duration_us": 174418
      },
      {
        "id": "M_660",
        "pitch": 71,
        "t_note_us": 84069511,
        "t_trigger_us": 83933548,
        "is_ai": false,
        "track_id": 0,
        "velocity": 0,
        "is_motor": true,
        "motor_id": 2,
        "accel_val": 2000,
        "base_duration_us": 174418
      },
      {
        "id": "M_661",
        "pitch": 65,
        "t_note_us": 84331138,
        "t_trigger_us": 84195175,
        "is_ai": false,
        "track_id": 0,
        "velocity": 0,
        "is_motor": true,
        "motor_id": 1,
        "accel_val": 2000,
        "base_duration_us": 87209
      },
      {
        "id": "M_663",
        "pitch": 96,
        "t_note_us": 84418347,
        "t_trigger_us": 84282384,
        "is_ai": true,
        "track_id": 10,
        "velocity": 0,
        "is_motor": false,
        "motor_id": 0,
        "accel_val": 2000,
        "base_duration_us": 174418
      },
      {
        "id": "M_662",
        "pitch": 65,
        "t_note_us": 84418347,
        "t_trigger_us": 84282384,
        "is_ai": false,
        "track_id": 0,
        "velocity": 0,
        "is_motor": true,
        "motor_id": 1,
        "accel_val": 2000,
        "base_duration_us": 174418
      },
      {
        "id": "M_664",
        "pitch": 72,
        "t_note_us": 84418347,
        "t_trigger_us": 84282384,
        "is_ai": false,
        "track_id": 0,
        "velocity": 0,
        "is_motor": true,
        "motor_id": 2,
        "accel_val": 2000,
        "base_duration_us": 174418
      },
      {
        "id": "M_666",
        "pitch": 98,
        "t_note_us": 84767183,
        "t_trigger_us": 84631220,
        "is_ai": true,
        "track_id": 11,
        "velocity": 0,
        "is_motor": false,
        "motor_id": 0,
        "accel_val": 2000,
        "base_duration_us": 174418
      },
      {
        "id": "M_665",
        "pitch": 57,
        "t_note_us": 84767183,
        "t_trigger_us": 84631220,
        "is_ai": false,
        "track_id": 0,
        "velocity": 0,
        "is_motor": true,
        "motor_id": 0,
        "accel_val": 2000,
        "base_duration_us": 174418
      },
      {
        "id": "M_667",
        "pitch": 74,
        "t_note_us": 84767183,
        "t_trigger_us": 84631220,
        "is_ai": false,
        "track_id": 0,
        "velocity": 0,
        "is_motor": true,
        "motor_id": 2,
        "accel_val": 2000,
        "base_duration_us": 174418
      },
      {
        "id": "M_668",
        "pitch": 53,
        "t_note_us": 85028810,
        "t_trigger_us": 84892847,
        "is_ai": false,
        "track_id": 0,
        "velocity": 0,
        "is_motor": true,
        "motor_id": 0,
        "accel_val": 2000,
        "base_duration_us": 87209
      },
      {
        "id": "M_672",
        "pitch": 96,
        "t_note_us": 85116019,
        "t_trigger_us": 84980056,
        "is_ai": true,
        "track_id": 10,
        "velocity": 0,
        "is_motor": false,
        "motor_id": 0,
        "accel_val": 2000,
        "base_duration_us": 174418
      },
      {
        "id": "M_669",
        "pitch": 55,
        "t_note_us": 85116019,
        "t_trigger_us": 84980056,
        "is_ai": false,
        "track_id": 0,
        "velocity": 0,
        "is_motor": true,
        "motor_id": 0,
        "accel_val": 2000,
        "base_duration_us": 174418
      },
      {
        "id": "M_670",
        "pitch": 64,
        "t_note_us": 85116019,
        "t_trigger_us": 84980056,
        "is_ai": false,
        "track_id": 0,
        "velocity": 0,
        "is_motor": true,
        "motor_id": 1,
        "accel_val": 2000,
        "base_duration_us": 174418
      },
      {
        "id": "M_671",
        "pitch": 52,
        "t_note_us": 85116019,
        "t_trigger_us": 84980056,
        "is_ai": false,
        "track_id": 0,
        "velocity": 0,
        "is_motor": true,
        "motor_id": 2,
        "accel_val": 2000,
        "base_duration_us": 174418
      },
      {
        "id": "M_673",
        "pitch": 72,
        "t_note_us": 85116019,
        "t_trigger_us": 84980056,
        "is_ai": false,
        "track_id": 0,
        "velocity": 0,
        "is_motor": true,
        "motor_id": 3,
        "accel_val": 2000,
        "base_duration_us": 174418
      },
      {
        "id": "M_674",
        "pitch": 55,
        "t_note_us": 85464855,
        "t_trigger_us": 85328892,
        "is_ai": false,
        "track_id": 0,
        "velocity": 0,
        "is_motor": true,
        "motor_id": 0,
        "accel_val": 2000,
        "base_duration_us": 174418
      },
      {
        "id": "M_675",
        "pitch": 67,
        "t_note_us": 85464855,
        "t_trigger_us": 85328892,
        "is_ai": false,
        "track_id": 0,
        "velocity": 0,
        "is_motor": true,
        "motor_id": 1,
        "accel_val": 2000,
        "base_duration_us": 174418
      },
      {
        "id": "M_676",
        "pitch": 67,
        "t_note_us": 85464855,
        "t_trigger_us": 85328892,
        "is_ai": false,
        "track_id": 0,
        "velocity": 0,
        "is_motor": true,
        "motor_id": 2,
        "accel_val": 2000,
        "base_duration_us": 174418
      },
      {
        "id": "M_677",
        "pitch": 64,
        "t_note_us": 85726482,
        "t_trigger_us": 85590519,
        "is_ai": false,
        "track_id": 0,
        "velocity": 0,
        "is_motor": true,
        "motor_id": 1,
        "accel_val": 2000,
        "base_duration_us": 87209
      },
      {
        "id": "M_679",
        "pitch": 96,
        "t_note_us": 85813691,
        "t_trigger_us": 85677728,
        "is_ai": true,
        "track_id": 10,
        "velocity": 0,
        "is_motor": false,
        "motor_id": 0,
        "accel_val": 2000,
        "base_duration_us": 174418
      },
      {
        "id": "M_678",
        "pitch": 64,
        "t_note_us": 85813691,
        "t_trigger_us": 85677728,
        "is_ai": false,
        "track_id": 0,
        "velocity": 0,
        "is_motor": true,
        "motor_id": 1,
        "accel_val": 2000,
        "base_duration_us": 174418
      },
      {
        "id": "M_680",
        "pitch": 72,
        "t_note_us": 85813691,
        "t_trigger_us": 85677728,
        "is_ai": false,
        "track_id": 0,
        "velocity": 0,
        "is_motor": true,
        "motor_id": 2,
        "accel_val": 2000,
        "base_duration_us": 174418
      },
      {
        "id": "M_681",
        "pitch": 98,
        "t_note_us": 86075318,
        "t_trigger_us": 85939355,
        "is_ai": true,
        "track_id": 11,
        "velocity": 0,
        "is_motor": false,
        "motor_id": 0,
        "accel_val": 2000,
        "base_duration_us": 87209
      },
      {
        "id": "M_682",
        "pitch": 74,
        "t_note_us": 86075318,
        "t_trigger_us": 85939355,
        "is_ai": false,
        "track_id": 0,
        "velocity": 0,
        "is_motor": true,
        "motor_id": 2,
        "accel_val": 2000,
        "base_duration_us": 87209
      },
      {
        "id": "M_683",
        "pitch": 55,
        "t_note_us": 86162527,
        "t_trigger_us": 86026564,
        "is_ai": false,
        "track_id": 0,
        "velocity": 0,
        "is_motor": true,
        "motor_id": 0,
        "accel_val": 2000,
        "base_duration_us": 174418
      },
      {
        "id": "M_684",
        "pitch": 48,
        "t_note_us": 86424154,
        "t_trigger_us": 86288191,
        "is_ai": false,
        "track_id": 0,
        "velocity": 0,
        "is_motor": true,
        "motor_id": 0,
        "accel_val": 2000,
        "base_duration_us": 87209
      },
      {
        "id": "M_685",
        "pitch": 57,
        "t_note_us": 86511363,
        "t_trigger_us": 86375400,
        "is_ai": false,
        "track_id": 0,
        "velocity": 0,
        "is_motor": true,
        "motor_id": 0,
        "accel_val": 2000,
        "base_duration_us": 174418
      },
      {
        "id": "M_686",
        "pitch": 62,
        "t_note_us": 86511363,
        "t_trigger_us": 86375400,
        "is_ai": false,
        "track_id": 0,
        "velocity": 0,
        "is_motor": true,
        "motor_id": 1,
        "accel_val": 2000,
        "base_duration_us": 174418
      },
      {
        "id": "M_687",
        "pitch": 50,
        "t_note_us": 86511363,
        "t_trigger_us": 86375400,
        "is_ai": false,
        "track_id": 0,
        "velocity": 0,
        "is_motor": true,
        "motor_id": 2,
        "accel_val": 2000,
        "base_duration_us": 174418
      },
      {
        "id": "M_688",
        "pitch": 76,
        "t_note_us": 86511363,
        "t_trigger_us": 86375400,
        "is_ai": false,
        "track_id": 0,
        "velocity": 0,
        "is_motor": true,
        "motor_id": 3,
        "accel_val": 2000,
        "base_duration_us": 174418
      },
      {
        "id": "M_689",
        "pitch": 76,
        "t_note_us": 86511363,
        "t_trigger_us": 86375400,
        "is_ai": false,
        "track_id": 0,
        "velocity": 0,
        "is_motor": true,
        "motor_id": 0,
        "accel_val": 2000,
        "base_duration_us": 174418
      },
      {
        "id": "M_691",
        "pitch": 101,
        "t_note_us": 86772990,
        "t_trigger_us": 86637027,
        "is_ai": true,
        "track_id": 13,
        "velocity": 0,
        "is_motor": false,
        "motor_id": 0,
        "accel_val": 2000,
        "base_duration_us": 87209
      },
      {
        "id": "M_690",
        "pitch": 77,
        "t_note_us": 86772990,
        "t_trigger_us": 86637027,
        "is_ai": false,
        "track_id": 0,
        "velocity": 0,
        "is_motor": true,
        "motor_id": 2,
        "accel_val": 2000,
        "base_duration_us": 87209
      },
      {
        "id": "M_692",
        "pitch": 62,
        "t_note_us": 87209036,
        "t_trigger_us": 87073073,
        "is_ai": false,
        "track_id": 0,
        "velocity": 0,
        "is_motor": true,
        "motor_id": 1,
        "accel_val": 2000,
        "base_duration_us": 174418
      },
      {
        "id": "M_693",
        "pitch": 67,
        "t_note_us": 87209036,
        "t_trigger_us": 87073073,
        "is_ai": false,
        "track_id": 0,
        "velocity": 0,
        "is_motor": true,
        "motor_id": 2,
        "accel_val": 2000,
        "base_duration_us": 174418
      },
      {
        "id": "M_694",
        "pitch": 55,
        "t_note_us": 87209036,
        "t_trigger_us": 87073073,
        "is_ai": false,
        "track_id": 0,
        "velocity": 0,
        "is_motor": true,
        "motor_id": 0,
        "accel_val": 2000,
        "base_duration_us": 174418
      },
      {
        "id": "M_695",
        "pitch": 74,
        "t_note_us": 87209036,
        "t_trigger_us": 87073073,
        "is_ai": false,
        "track_id": 0,
        "velocity": 0,
        "is_motor": true,
        "motor_id": 3,
        "accel_val": 2000,
        "base_duration_us": 174418
      },
      {
        "id": "M_696",
        "pitch": 74,
        "t_note_us": 87209036,
        "t_trigger_us": 87073073,
        "is_ai": false,
        "track_id": 0,
        "velocity": 0,
        "is_motor": true,
        "motor_id": 0,
        "accel_val": 2000,
        "base_duration_us": 174418
      },
      {
        "id": "M_698",
        "pitch": 96,
        "t_note_us": 87470663,
        "t_trigger_us": 87334700,
        "is_ai": true,
        "track_id": 10,
        "velocity": 0,
        "is_motor": false,
        "motor_id": 0,
        "accel_val": 2000,
        "base_duration_us": 87209
      },
      {
        "id": "M_697",
        "pitch": 72,
        "t_note_us": 87470663,
        "t_trigger_us": 87334700,
        "is_ai": false,
        "track_id": 0,
        "velocity": 0,
        "is_motor": true,
        "motor_id": 2,
        "accel_val": 2000,
        "base_duration_us": 87209
      },
      {
        "id": "M_699",
        "pitch": 52,
        "t_note_us": 87906709,
        "t_trigger_us": 87770746,
        "is_ai": false,
        "track_id": 0,
        "velocity": 0,
        "is_motor": true,
        "motor_id": 0,
        "accel_val": 2000,
        "base_duration_us": 174418
      },
      {
        "id": "M_700",
        "pitch": 60,
        "t_note_us": 87906709,
        "t_trigger_us": 87770746,
        "is_ai": false,
        "track_id": 0,
        "velocity": 0,
        "is_motor": true,
        "motor_id": 1,
        "accel_val": 2000,
        "base_duration_us": 174418
      },
      {
        "id": "M_701",
        "pitch": 48,
        "t_note_us": 87906709,
        "t_trigger_us": 87770746,
        "is_ai": false,
        "track_id": 0,
        "velocity": 0,
        "is_motor": true,
        "motor_id": 2,
        "accel_val": 2000,
        "base_duration_us": 174418
      },
      {
        "id": "M_702",
        "pitch": 72,
        "t_note_us": 87906709,
        "t_trigger_us": 87770746,
        "is_ai": false,
        "track_id": 0,
        "velocity": 0,
        "is_motor": true,
        "motor_id": 3,
        "accel_val": 2000,
        "base_duration_us": 174418
      },
      {
        "id": "M_703",
        "pitch": 72,
        "t_note_us": 87906709,
        "t_trigger_us": 87770746,
        "is_ai": false,
        "track_id": 0,
        "velocity": 0,
        "is_motor": true,
        "motor_id": 0,
        "accel_val": 2000,
        "base_duration_us": 174418
      }
    ]
  },
  "Ai Đưa Em Về (Take Me Back Home) (Low Cortisol Song)": {
    "config": {
      "mode_idx": 0,
      "active_motors": [
        0,
        1,
        2,
        3
      ],
      "transpose": 0,
      "arp_speed_ms": 10,
      "gate_time": 100
    },
    "sustain_multiplier": 1.0,
    "notes": [
      {
        "id": "M_0",
        "pitch": 41,
        "t_note_us": 2400000,
        "t_trigger_us": 2264037,
        "is_ai": true,
        "track_id": 0,
        "velocity": 0,
        "is_motor": true,
        "motor_id": 0,
        "accel_val": 2000,
        "base_duration_us": 298437
      },
      {
        "id": "M_1",
        "pitch": 96,
        "t_note_us": 2400000,
        "t_trigger_us": 2264037,
        "is_ai": true,
        "track_id": 10,
        "velocity": 0,
        "is_motor": false,
        "motor_id": 0,
        "accel_val": 2000,
        "base_duration_us": 298437
      },
      {
        "id": "M_2",
        "pitch": 60,
        "t_note_us": 2699999,
        "t_trigger_us": 2564036,
        "is_ai": true,
        "track_id": 0,
        "velocity": 0,
        "is_motor": true,
        "motor_id": 1,
        "accel_val": 2000,
        "base_duration_us": 148437
      },
      {
        "id": "M_8",
        "pitch": 45,
        "t_note_us": 2699999,
        "t_trigger_us": 2564036,
        "is_ai": true,
        "track_id": 0,
        "velocity": 0,
        "is_motor": true,
        "motor_id": 0,
        "accel_val": 2000,
        "base_duration_us": 1498434
      },
      {
        "id": "M_7",
        "pitch": 48,
        "t_note_us": 2849998,
        "t_trigger_us": 2714035,
        "is_ai": true,
        "track_id": 0,
        "velocity": 0,
        "is_motor": true,
        "motor_id": 1,
        "accel_val": 2000,
        "base_duration_us": 1348435
      },
      {
        "id": "M_3",
        "pitch": 96,
        "t_note_us": 2849998,
        "t_trigger_us": 2714035,
        "is_ai": true,
        "track_id": 10,
        "velocity": 0,
        "is_motor": false,
        "motor_id": 0,
        "accel_val": 2000,
        "base_duration_us": 298437
      },
      {
        "id": "M_6",
        "pitch": 52,
        "t_note_us": 2999998,
        "t_trigger_us": 2864035,
        "is_ai": true,
        "track_id": 0,
        "velocity": 0,
        "is_motor": true,
        "motor_id": 2,
        "accel_val": 2000,
        "base_duration_us": 1198435
      },
      {
        "id": "M_4",
        "pitch": 98,
        "t_note_us": 3149997,
        "t_trigger_us": 3014034,
        "is_ai": true,
        "track_id": 11,
        "velocity": 0,
        "is_motor": false,
        "motor_id": 0,
        "accel_val": 2000,
        "base_duration_us": 298437
      },
      {
        "id": "M_5",
        "pitch": 100,
        "t_note_us": 3449996,
        "t_trigger_us": 3314033,
        "is_ai": true,
        "track_id": 12,
        "velocity": 0,
        "is_motor": false,
        "motor_id": 0,
        "accel_val": 2000,
        "base_duration_us": 748437
      },
      {
        "id": "M_11",
        "pitch": 52,
        "t_note_us": 4199995,
        "t_trigger_us": 4064032,
        "is_ai": true,
        "track_id": 0,
        "velocity": 0,
        "is_motor": true,
        "motor_id": 0,
        "accel_val": 2000,
        "base_duration_us": 598436
      },
      {
        "id": "M_12",
        "pitch": 45,
        "t_note_us": 4199995,
        "t_trigger_us": 4064032,
        "is_ai": true,
        "track_id": 0,
        "velocity": 0,
        "is_motor": true,
        "motor_id": 1,
        "accel_val": 2000,
        "base_duration_us": 598436
      },
      {
        "id": "M_9",
        "pitch": 100,
        "t_note_us": 4199995,
        "t_trigger_us": 4064032,
        "is_ai": true,
        "track_id": 12,
        "velocity": 0,
        "is_motor": false,
        "motor_id": 0,
        "accel_val": 2000,
        "base_duration_us": 298437
      },
      {
        "id": "M_10",
        "pitch": 100,
        "t_note_us": 4499994,
        "t_trigger_us": 4364031,
        "is_ai": true,
        "track_id": 12,
        "velocity": 0,
        "is_motor": false,
        "motor_id": 0,
        "accel_val": 2000,
        "base_duration_us": 298437
      },
      {
        "id": "M_13",
        "pitch": 41,
        "t_note_us": 4799993,
        "t_trigger_us": 4664030,
        "is_ai": true,
        "track_id": 0,
        "velocity": 0,
        "is_motor": true,
        "motor_id": 0,
        "accel_val": 2000,
        "base_duration_us": 298437
      },
      {
        "id": "M_14",
        "pitch": 95,
        "t_note_us": 4799993,
        "t_trigger_us": 4664030,
        "is_ai": true,
        "track_id": 9,
        "velocity": 0,
        "is_motor": false,
        "motor_id": 0,
        "accel_val": 2000,
        "base_duration_us": 298437
      },
      {
        "id": "M_21",
        "pitch": 44,
        "t_note_us": 5099992,
        "t_trigger_us": 4964029,
        "is_ai": true,
        "track_id": 0,
        "velocity": 0,
        "is_motor": true,
        "motor_id": 0,
        "accel_val": 2000,
        "base_duration_us": 1498434
      },
      {
        "id": "M_15",
        "pitch": 95,
        "t_note_us": 5099992,
        "t_trigger_us": 4964029,
        "is_ai": true,
        "track_id": 9,
        "velocity": 0,
        "is_motor": false,
        "motor_id": 0,
        "accel_val": 2000,
        "base_duration_us": 148437
      },
      {
        "id": "M_20",
        "pitch": 48,
        "t_note_us": 5249991,
        "t_trigger_us": 5114028,
        "is_ai": true,
        "track_id": 0,
        "velocity": 0,
        "is_motor": true,
        "motor_id": 1,
        "accel_val": 2000,
        "base_duration_us": 1348435
      },
      {
        "id": "M_16",
        "pitch": 95,
        "t_note_us": 5249991,
        "t_trigger_us": 5114028,
        "is_ai": true,
        "track_id": 9,
        "velocity": 0,
        "is_motor": false,
        "motor_id": 0,
        "accel_val": 2000,
        "base_duration_us": 298437
      },
      {
        "id": "M_19",
        "pitch": 53,
        "t_note_us": 5399991,
        "t_trigger_us": 5264028,
        "is_ai": true,
        "track_id": 0,
        "velocity": 0,
        "is_motor": true,
        "motor_id": 2,
        "accel_val": 2000,
        "base_duration_us": 1198435
      },
      {
        "id": "M_17",
        "pitch": 96,
        "t_note_us": 5549990,
        "t_trigger_us": 5414027,
        "is_ai": true,
        "track_id": 10,
        "velocity": 0,
        "is_motor": false,
        "motor_id": 0,
        "accel_val": 2000,
        "base_duration_us": 298437
      },
      {
        "id": "M_18",
        "pitch": 98,
        "t_note_us": 5849989,
        "t_trigger_us": 5714026,
        "is_ai": true,
        "track_id": 11,
        "velocity": 0,
        "is_motor": false,
        "motor_id": 0,
        "accel_val": 2000,
        "base_duration_us": 748437
      },
      {
        "id": "M_24",
        "pitch": 53,
        "t_note_us": 6599988,
        "t_trigger_us": 6464025,
        "is_ai": true,
        "track_id": 0,
        "velocity": 0,
        "is_motor": true,
        "motor_id": 0,
        "accel_val": 2000,
        "base_duration_us": 598436
      },
      {
        "id": "M_25",
        "pitch": 44,
        "t_note_us": 6599988,
        "t_trigger_us": 6464025,
        "is_ai": true,
        "track_id": 0,
        "velocity": 0,
        "is_motor": true,
        "motor_id": 1,
        "accel_val": 2000,
        "base_duration_us": 598436
      },
      {
        "id": "M_22",
        "pitch": 98,
        "t_note_us": 6599988,
        "t_trigger_us": 6464025,
        "is_ai": true,
        "track_id": 11,
        "velocity": 0,
        "is_motor": false,
        "motor_id": 0,
        "accel_val": 2000,
        "base_duration_us": 298437
      },
      {
        "id": "M_23",
        "pitch": 98,
        "t_note_us": 6899987,
        "t_trigger_us": 6764024,
        "is_ai": true,
        "track_id": 11,
        "velocity": 0,
        "is_motor": false,
        "motor_id": 0,
        "accel_val": 2000,
        "base_duration_us": 298437
      },
      {
        "id": "M_26",
        "pitch": 40,
        "t_note_us": 7199986,
        "t_trigger_us": 7064023,
        "is_ai": true,
        "track_id": 0,
        "velocity": 0,
        "is_motor": true,
        "motor_id": 0,
        "accel_val": 2000,
        "base_duration_us": 298437
      },
      {
        "id": "M_27",
        "pitch": 95,
        "t_note_us": 7199986,
        "t_trigger_us": 7064023,
        "is_ai": true,
        "track_id": 9,
        "velocity": 0,
        "is_motor": false,
        "motor_id": 0,
        "accel_val": 2000,
        "base_duration_us": 298437
      },
      {
        "id": "M_34",
        "pitch": 43,
        "t_note_us": 7499985,
        "t_trigger_us": 7364022,
        "is_ai": true,
        "track_id": 0,
        "velocity": 0,
        "is_motor": true,
        "motor_id": 0,
        "accel_val": 2000,
        "base_duration_us": 1498434
      },
      {
        "id": "M_28",
        "pitch": 95,
        "t_note_us": 7499985,
        "t_trigger_us": 7364022,
        "is_ai": true,
        "track_id": 9,
        "velocity": 0,
        "is_motor": false,
        "motor_id": 0,
        "accel_val": 2000,
        "base_duration_us": 148437
      },
      {
        "id": "M_33",
        "pitch": 47,
        "t_note_us": 7649984,
        "t_trigger_us": 7514021,
        "is_ai": true,
        "track_id": 0,
        "velocity": 0,
        "is_motor": true,
        "motor_id": 1,
        "accel_val": 2000,
        "base_duration_us": 1348435
      },
      {
        "id": "M_29",
        "pitch": 95,
        "t_note_us": 7649984,
        "t_trigger_us": 7514021,
        "is_ai": true,
        "track_id": 9,
        "velocity": 0,
        "is_motor": false,
        "motor_id": 0,
        "accel_val": 2000,
        "base_duration_us": 298437
      },
      {
        "id": "M_32",
        "pitch": 50,
        "t_note_us": 7799984,
        "t_trigger_us": 7664021,
        "is_ai": true,
        "track_id": 0,
        "velocity": 0,
        "is_motor": true,
        "motor_id": 2,
        "accel_val": 2000,
        "base_duration_us": 1198435
      },
      {
        "id": "M_30",
        "pitch": 96,
        "t_note_us": 7949983,
        "t_trigger_us": 7814020,
        "is_ai": true,
        "track_id": 10,
        "velocity": 0,
        "is_motor": false,
        "motor_id": 0,
        "accel_val": 2000,
        "base_duration_us": 298437
      },
      {
        "id": "M_31",
        "pitch": 98,
        "t_note_us": 8249982,
        "t_trigger_us": 8114019,
        "is_ai": true,
        "track_id": 11,
        "velocity": 0,
        "is_motor": false,
        "motor_id": 0,
        "accel_val": 2000,
        "base_duration_us": 748437
      },
      {
        "id": "M_37",
        "pitch": 50,
        "t_note_us": 8999981,
        "t_trigger_us": 8864018,
        "is_ai": true,
        "track_id": 0,
        "velocity": 0,
        "is_motor": true,
        "motor_id": 0,
        "accel_val": 2000,
        "base_duration_us": 598436
      },
      {
        "id": "M_38",
        "pitch": 47,
        "t_note_us": 8999981,
        "t_trigger_us": 8864018,
        "is_ai": true,
        "track_id": 0,
        "velocity": 0,
        "is_motor": true,
        "motor_id": 1,
        "accel_val": 2000,
        "base_duration_us": 598436
      },
      {
        "id": "M_39",
        "pitch": 43,
        "t_note_us": 8999981,
        "t_trigger_us": 8864018,
        "is_ai": true,
        "track_id": 0,
        "velocity": 0,
        "is_motor": true,
        "motor_id": 2,
        "accel_val": 2000,
        "base_duration_us": 598436
      },
      {
        "id": "M_35",
        "pitch": 91,
        "t_note_us": 8999981,
        "t_trigger_us": 8864018,
        "is_ai": true,
        "track_id": 7,
        "velocity": 0,
        "is_motor": false,
        "motor_id": 0,
        "accel_val": 2000,
        "base_duration_us": 298437
      },
      {
        "id": "M_36",
        "pitch": 93,
        "t_note_us": 9299980,
        "t_trigger_us": 9164017,
        "is_ai": true,
        "track_id": 8,
        "velocity": 0,
        "is_motor": false,
        "motor_id": 0,
        "accel_val": 2000,
        "base_duration_us": 298437
      },
      {
        "id": "M_40",
        "pitch": 33,
        "t_note_us": 9599979,
        "t_trigger_us": 9464016,
        "is_ai": true,
        "track_id": 0,
        "velocity": 0,
        "is_motor": true,
        "motor_id": 0,
        "accel_val": 2000,
        "base_duration_us": 298437
      },
      {
        "id": "M_41",
        "pitch": 96,
        "t_note_us": 9599979,
        "t_trigger_us": 9464016,
        "is_ai": true,
        "track_id": 10,
        "velocity": 0,
        "is_motor": false,
        "motor_id": 0,
        "accel_val": 2000,
        "base_duration_us": 298437
      },
      {
        "id": "M_48",
        "pitch": 40,
        "t_note_us": 9899978,
        "t_trigger_us": 9764015,
        "is_ai": true,
        "track_id": 0,
        "velocity": 0,
        "is_motor": true,
        "motor_id": 0,
        "accel_val": 2000,
        "base_duration_us": 1498433
      },
      {
        "id": "M_42",
        "pitch": 96,
        "t_note_us": 9899978,
        "t_trigger_us": 9764015,
        "is_ai": true,
        "track_id": 10,
        "velocity": 0,
        "is_motor": false,
        "motor_id": 0,
        "accel_val": 2000,
        "base_duration_us": 298437
      },
      {
        "id": "M_47",
        "pitch": 43,
        "t_note_us": 10049978,
        "t_trigger_us": 9914015,
        "is_ai": true,
        "track_id": 0,
        "velocity": 0,
        "is_motor": true,
        "motor_id": 1,
        "accel_val": 2000,
        "base_duration_us": 1348433
      },
      {
        "id": "M_46",
        "pitch": 45,
        "t_note_us": 10199977,
        "t_trigger_us": 10064014,
        "is_ai": true,
        "track_id": 0,
        "velocity": 0,
        "is_motor": true,
        "motor_id": 2,
        "accel_val": 2000,
        "base_duration_us": 1198434
      },
      {
        "id": "M_43",
        "pitch": 96,
        "t_note_us": 10199977,
        "t_trigger_us": 10064014,
        "is_ai": true,
        "track_id": 10,
        "velocity": 0,
        "is_motor": false,
        "motor_id": 0,
        "accel_val": 2000,
        "base_duration_us": 298437
      },
      {
        "id": "M_44",
        "pitch": 95,
        "t_note_us": 10499976,
        "t_trigger_us": 10364013,
        "is_ai": true,
        "track_id": 9,
        "velocity": 0,
        "is_motor": false,
        "motor_id": 0,
        "accel_val": 2000,
        "base_duration_us": 298437
      },
      {
        "id": "M_45",
        "pitch": 96,
        "t_note_us": 10799975,
        "t_trigger_us": 10664012,
        "is_ai": true,
        "track_id": 10,
        "velocity": 0,
        "is_motor": false,
        "motor_id": 0,
        "accel_val": 2000,
        "base_duration_us": 298437
      },
      {
        "id": "M_49",
        "pitch": 98,
        "t_note_us": 11099974,
        "t_trigger_us": 10964011,
        "is_ai": true,
        "track_id": 11,
        "velocity": 0,
        "is_motor": false,
        "motor_id": 0,
        "accel_val": 2000,
        "base_duration_us": 298437
      },
      {
        "id": "M_50",
        "pitch": 33,
        "t_note_us": 11399973,
        "t_trigger_us": 11264010,
        "is_ai": true,
        "track_id": 0,
        "velocity": 0,
        "is_motor": true,
        "motor_id": 0,
        "accel_val": 2000,
        "base_duration_us": 598437
      },
      {
        "id": "M_51",
        "pitch": 98,
        "t_note_us": 11399973,
        "t_trigger_us": 11264010,
        "is_ai": true,
        "track_id": 11,
        "velocity": 0,
        "is_motor": false,
        "motor_id": 0,
        "accel_val": 2000,
        "base_duration_us": 598437
      },
      {
        "id": "M_54",
        "pitch": 29,
        "t_note_us": 11999972,
        "t_trigger_us": 11864009,
        "is_ai": true,
        "track_id": 0,
        "velocity": 0,
        "is_motor": true,
        "motor_id": 0,
        "accel_val": 2000,
        "base_duration_us": 598435
      },
      {
        "id": "M_52",
        "pitch": 96,
        "t_note_us": 11999972,
        "t_trigger_us": 11864009,
        "is_ai": true,
        "track_id": 10,
        "velocity": 0,
        "is_motor": false,
        "motor_id": 0,
        "accel_val": 2000,
        "base_duration_us": 298437
      },
      {
        "id": "M_53",
        "pitch": 96,
        "t_note_us": 12299971,
        "t_trigger_us": 12164008,
        "is_ai": true,
        "track_id": 10,
        "velocity": 0,
        "is_motor": false,
        "motor_id": 0,
        "accel_val": 2000,
        "base_duration_us": 148437
      },
      {
        "id": "M_55",
        "pitch": 96,
        "t_note_us": 12449970,
        "t_trigger_us": 12314007,
        "is_ai": true,
        "track_id": 10,
        "velocity": 0,
        "is_motor": false,
        "motor_id": 0,
        "accel_val": 2000,
        "base_duration_us": 298436
      },
      {
        "id": "M_58",
        "pitch": 40,
        "t_note_us": 12599969,
        "t_trigger_us": 12464006,
        "is_ai": true,
        "track_id": 0,
        "velocity": 0,
        "is_motor": true,
        "motor_id": 0,
        "accel_val": 2000,
        "base_duration_us": 1198435
      },
      {
        "id": "M_59",
        "pitch": 36,
        "t_note_us": 12599969,
        "t_trigger_us": 12464006,
        "is_ai": true,
        "track_id": 0,
        "velocity": 0,
        "is_motor": true,
        "motor_id": 1,
        "accel_val": 2000,
        "base_duration_us": 1198435
      },
      {
        "id": "M_56",
        "pitch": 96,
        "t_note_us": 12749968,
        "t_trigger_us": 12614005,
        "is_ai": true,
        "track_id": 10,
        "velocity": 0,
        "is_motor": false,
        "motor_id": 0,
        "accel_val": 2000,
        "base_duration_us": 298437
      },
      {
        "id": "M_57",
        "pitch": 100,
        "t_note_us": 13049967,
        "t_trigger_us": 12914004,
        "is_ai": true,
        "track_id": 12,
        "velocity": 0,
        "is_motor": false,
        "motor_id": 0,
        "accel_val": 2000,
        "base_duration_us": 748437
      },
      {
        "id": "M_62",
        "pitch": 36,
        "t_note_us": 13799966,
        "t_trigger_us": 13664003,
        "is_ai": true,
        "track_id": 0,
        "velocity": 0,
        "is_motor": true,
        "motor_id": 0,
        "accel_val": 2000,
        "base_duration_us": 598436
      },
      {
        "id": "M_63",
        "pitch": 33,
        "t_note_us": 13799966,
        "t_trigger_us": 13664003,
        "is_ai": true,
        "track_id": 0,
        "velocity": 0,
        "is_motor": true,
        "motor_id": 1,
        "accel_val": 2000,
        "base_duration_us": 598436
      },
      {
        "id": "M_60",
        "pitch": 100,
        "t_note_us": 13799966,
        "t_trigger_us": 13664003,
        "is_ai": true,
        "track_id": 12,
        "velocity": 0,
        "is_motor": false,
        "motor_id": 0,
        "accel_val": 2000,
        "base_duration_us": 298437
      },
      {
        "id": "M_61",
        "pitch": 100,
        "t_note_us": 14099965,
        "t_trigger_us": 13964002,
        "is_ai": true,
        "track_id": 12,
        "velocity": 0,
        "is_motor": false,
        "motor_id": 0,
        "accel_val": 2000,
        "base_duration_us": 298437
      },
      {
        "id": "M_66",
        "pitch": 31,
        "t_note_us": 14399964,
        "t_trigger_us": 14264001,
        "is_ai": true,
        "track_id": 0,
        "velocity": 0,
        "is_motor": true,
        "motor_id": 0,
        "accel_val": 2000,
        "base_duration_us": 598435
      },
      {
        "id": "M_64",
        "pitch": 95,
        "t_note_us": 14399964,
        "t_trigger_us": 14264001,
        "is_ai": true,
        "track_id": 9,
        "velocity": 0,
        "is_motor": false,
        "motor_id": 0,
        "accel_val": 2000,
        "base_duration_us": 298437
      },
      {
        "id": "M_65",
        "pitch": 95,
        "t_note_us": 14699963,
        "t_trigger_us": 14564000,
        "is_ai": true,
        "track_id": 9,
        "velocity": 0,
        "is_motor": false,
        "motor_id": 0,
        "accel_val": 2000,
        "base_duration_us": 148437
      },
      {
        "id": "M_67",
        "pitch": 95,
        "t_note_us": 14849962,
        "t_trigger_us": 14713999,
        "is_ai": true,
        "track_id": 9,
        "velocity": 0,
        "is_motor": false,
        "motor_id": 0,
        "accel_val": 2000,
        "base_duration_us": 298436
      },
      {
        "id": "M_70",
        "pitch": 41,
        "t_note_us": 14999961,
        "t_trigger_us": 14863998,
        "is_ai": true,
        "track_id": 0,
        "velocity": 0,
        "is_motor": true,
        "motor_id": 0,
        "accel_val": 2000,
        "base_duration_us": 1198435
      },
      {
        "id": "M_71",
        "pitch": 38,
        "t_note_us": 14999961,
        "t_trigger_us": 14863998,
        "is_ai": true,
        "track_id": 0,
        "velocity": 0,
        "is_motor": true,
        "motor_id": 1,
        "accel_val": 2000,
        "base_duration_us": 1198435
      },
      {
        "id": "M_68",
        "pitch": 96,
        "t_note_us": 15149960,
        "t_trigger_us": 15013997,
        "is_ai": true,
        "track_id": 10,
        "velocity": 0,
        "is_motor": false,
        "motor_id": 0,
        "accel_val": 2000,
        "base_duration_us": 298437
      },
      {
        "id": "M_69",
        "pitch": 98,
        "t_note_us": 15449959,
        "t_trigger_us": 15313996,
        "is_ai": true,
        "track_id": 11,
        "velocity": 0,
        "is_motor": false,
        "motor_id": 0,
        "accel_val": 2000,
        "base_duration_us": 748437
      },
      {
        "id": "M_74",
        "pitch": 38,
        "t_note_us": 16199958,
        "t_trigger_us": 16063995,
        "is_ai": true,
        "track_id": 0,
        "velocity": 0,
        "is_motor": true,
        "motor_id": 0,
        "accel_val": 2000,
        "base_duration_us": 598436
      },
      {
        "id": "M_72",
        "pitch": 98,
        "t_note_us": 16199958,
        "t_trigger_us": 16063995,
        "is_ai": true,
        "track_id": 11,
        "velocity": 0,
        "is_motor": false,
        "motor_id": 0,
        "accel_val": 2000,
        "base_duration_us": 298437
      },
      {
        "id": "M_73",
        "pitch": 98,
        "t_note_us": 16499957,
        "t_trigger_us": 16363994,
        "is_ai": true,
        "track_id": 11,
        "velocity": 0,
        "is_motor": false,
        "motor_id": 0,
        "accel_val": 2000,
        "base_duration_us": 298437
      },
      {
        "id": "M_75",
        "pitch": 36,
        "t_note_us": 16799956,
        "t_trigger_us": 16663993,
        "is_ai": true,
        "track_id": 0,
        "velocity": 0,
        "is_motor": true,
        "motor_id": 0,
        "accel_val": 2000,
        "base_duration_us": 298437
      },
      {
        "id": "M_76",
        "pitch": 24,
        "t_note_us": 16799956,
        "t_trigger_us": 16663993,
        "is_ai": true,
        "track_id": 0,
        "velocity": 0,
        "is_motor": true,
        "motor_id": 1,
        "accel_val": 2000,
        "base_duration_us": 298437
      },
      {
        "id": "M_77",
        "pitch": 95,
        "t_note_us": 16799956,
        "t_trigger_us": 16663993,
        "is_ai": true,
        "track_id": 9,
        "velocity": 0,
        "is_motor": false,
        "motor_id": 0,
        "accel_val": 2000,
        "base_duration_us": 298437
      },
      {
        "id": "M_84",
        "pitch": 40,
        "t_note_us": 17099955,
        "t_trigger_us": 16963992,
        "is_ai": true,
        "track_id": 0,
        "velocity": 0,
        "is_motor": true,
        "motor_id": 0,
        "accel_val": 2000,
        "base_duration_us": 1498434
      },
      {
        "id": "M_78",
        "pitch": 93,
        "t_note_us": 17099955,
        "t_trigger_us": 16963992,
        "is_ai": true,
        "track_id": 8,
        "velocity": 0,
        "is_motor": false,
        "motor_id": 0,
        "accel_val": 2000,
        "base_duration_us": 148437
      },
      {
        "id": "M_83",
        "pitch": 43,
        "t_note_us": 17249954,
        "t_trigger_us": 17113991,
        "is_ai": true,
        "track_id": 0,
        "velocity": 0,
        "is_motor": true,
        "motor_id": 1,
        "accel_val": 2000,
        "base_duration_us": 1348435
      },
      {
        "id": "M_79",
        "pitch": 95,
        "t_note_us": 17249954,
        "t_trigger_us": 17113991,
        "is_ai": true,
        "track_id": 9,
        "velocity": 0,
        "is_motor": false,
        "motor_id": 0,
        "accel_val": 2000,
        "base_duration_us": 298437
      },
      {
        "id": "M_82",
        "pitch": 47,
        "t_note_us": 17399954,
        "t_trigger_us": 17263991,
        "is_ai": true,
        "track_id": 0,
        "velocity": 0,
        "is_motor": true,
        "motor_id": 2,
        "accel_val": 2000,
        "base_duration_us": 1198435
      },
      {
        "id": "M_80",
        "pitch": 96,
        "t_note_us": 17549953,
        "t_trigger_us": 17413990,
        "is_ai": true,
        "track_id": 10,
        "velocity": 0,
        "is_motor": false,
        "motor_id": 0,
        "accel_val": 2000,
        "base_duration_us": 298437
      },
      {
        "id": "M_81",
        "pitch": 98,
        "t_note_us": 17849952,
        "t_trigger_us": 17713989,
        "is_ai": true,
        "track_id": 11,
        "velocity": 0,
        "is_motor": false,
        "motor_id": 0,
        "accel_val": 2000,
        "base_duration_us": 748437
      },
      {
        "id": "M_87",
        "pitch": 47,
        "t_note_us": 18599951,
        "t_trigger_us": 18463988,
        "is_ai": true,
        "track_id": 0,
        "velocity": 0,
        "is_motor": true,
        "motor_id": 0,
        "accel_val": 2000,
        "base_duration_us": 598436
      },
      {
        "id": "M_88",
        "pitch": 40,
        "t_note_us": 18599951,
        "t_trigger_us": 18463988,
        "is_ai": true,
        "track_id": 0,
        "velocity": 0,
        "is_motor": true,
        "motor_id": 1,
        "accel_val": 2000,
        "base_duration_us": 598436
      },
      {
        "id": "M_85",
        "pitch": 91,
        "t_note_us": 18599951,
        "t_trigger_us": 18463988,
        "is_ai": true,
        "track_id": 7,
        "velocity": 0,
        "is_motor": false,
        "motor_id": 0,
        "accel_val": 2000,
        "base_duration_us": 298437
      },
      {
        "id": "M_86",
        "pitch": 93,
        "t_note_us": 18899950,
        "t_trigger_us": 18763987,
        "is_ai": true,
        "track_id": 8,
        "velocity": 0,
        "is_motor": false,
        "motor_id": 0,
        "accel_val": 2000,
        "base_duration_us": 298437
      },
      {
        "id": "M_89",
        "pitch": 33,
        "t_note_us": 19199949,
        "t_trigger_us": 19063986,
        "is_ai": true,
        "track_id": 0,
        "velocity": 0,
        "is_motor": true,
        "motor_id": 0,
        "accel_val": 2000,
        "base_duration_us": 298437
      },
      {
        "id": "M_90",
        "pitch": 21,
        "t_note_us": 19199949,
        "t_trigger_us": 19063986,
        "is_ai": true,
        "track_id": 0,
        "velocity": 0,
        "is_motor": true,
        "motor_id": 1,
        "accel_val": 2000,
        "base_duration_us": 298437
      },
      {
        "id": "M_91",
        "pitch": 96,
        "t_note_us": 19199949,
        "t_trigger_us": 19063986,
        "is_ai": true,
        "track_id": 10,
        "velocity": 0,
        "is_motor": false,
        "motor_id": 0,
        "accel_val": 2000,
        "base_duration_us": 298437
      },
      {
        "id": "M_98",
        "pitch": 36,
        "t_note_us": 19499948,
        "t_trigger_us": 19363985,
        "is_ai": true,
        "track_id": 0,
        "velocity": 0,
        "is_motor": true,
        "motor_id": 0,
        "accel_val": 2000,
        "base_duration_us": 1498433
      },
      {
        "id": "M_92",
        "pitch": 96,
        "t_note_us": 19499948,
        "t_trigger_us": 19363985,
        "is_ai": true,
        "track_id": 10,
        "velocity": 0,
        "is_motor": false,
        "motor_id": 0,
        "accel_val": 2000,
        "base_duration_us": 298437
      },
      {
        "id": "M_97",
        "pitch": 40,
        "t_note_us": 19649948,
        "t_trigger_us": 19513985,
        "is_ai": true,
        "track_id": 0,
        "velocity": 0,
        "is_motor": true,
        "motor_id": 1,
        "accel_val": 2000,
        "base_duration_us": 1348433
      },
      {
        "id": "M_96",
        "pitch": 43,
        "t_note_us": 19799947,
        "t_trigger_us": 19663984,
        "is_ai": true,
        "track_id": 0,
        "velocity": 0,
        "is_motor": true,
        "motor_id": 2,
        "accel_val": 2000,
        "base_duration_us": 1198434
      },
      {
        "id": "M_93",
        "pitch": 96,
        "t_note_us": 19799947,
        "t_trigger_us": 19663984,
        "is_ai": true,
        "track_id": 10,
        "velocity": 0,
        "is_motor": false,
        "motor_id": 0,
        "accel_val": 2000,
        "base_duration_us": 298437
      },
      {
        "id": "M_94",
        "pitch": 95,
        "t_note_us": 20099946,
        "t_trigger_us": 19963983,
        "is_ai": true,
        "track_id": 9,
        "velocity": 0,
        "is_motor": false,
        "motor_id": 0,
        "accel_val": 2000,
        "base_duration_us": 298437
      },
      {
        "id": "M_95",
        "pitch": 96,
        "t_note_us": 20399945,
        "t_trigger_us": 20263982,
        "is_ai": true,
        "track_id": 10,
        "velocity": 0,
        "is_motor": false,
        "motor_id": 0,
        "accel_val": 2000,
        "base_duration_us": 298437
      },
      {
        "id": "M_99",
        "pitch": 98,
        "t_note_us": 20699944,
        "t_trigger_us": 20563981,
        "is_ai": true,
        "track_id": 11,
        "velocity": 0,
        "is_motor": false,
        "motor_id": 0,
        "accel_val": 2000,
        "base_duration_us": 298437
      },
      {
        "id": "M_100",
        "pitch": 43,
        "t_note_us": 20999943,
        "t_trigger_us": 20863980,
        "is_ai": true,
        "track_id": 0,
        "velocity": 0,
        "is_motor": true,
        "motor_id": 0,
        "accel_val": 2000,
        "base_duration_us": 598437
      },
      {
        "id": "M_101",
        "pitch": 36,
        "t_note_us": 20999943,
        "t_trigger_us": 20863980,
        "is_ai": true,
        "track_id": 0,
        "velocity": 0,
        "is_motor": true,
        "motor_id": 1,
        "accel_val": 2000,
        "base_duration_us": 598437
      },
      {
        "id": "M_102",
        "pitch": 98,
        "t_note_us": 20999943,
        "t_trigger_us": 20863980,
        "is_ai": true,
        "track_id": 11,
        "velocity": 0,
        "is_motor": false,
        "motor_id": 0,
        "accel_val": 2000,
        "base_duration_us": 598437
      },
      {
        "id": "M_103",
        "pitch": 29,
        "t_note_us": 21599942,
        "t_trigger_us": 21463979,
        "is_ai": true,
        "track_id": 0,
        "velocity": 0,
        "is_motor": true,
        "motor_id": 0,
        "accel_val": 2000,
        "base_duration_us": 298437
      },
      {
        "id": "M_106",
        "pitch": 96,
        "t_note_us": 21599942,
        "t_trigger_us": 21463979,
        "is_ai": true,
        "track_id": 10,
        "velocity": 0,
        "is_motor": false,
        "motor_id": 0,
        "accel_val": 2000,
        "base_duration_us": 598435
      },
      {
        "id": "M_107",
        "pitch": 91,
        "t_note_us": 21599942,
        "t_trigger_us": 21463979,
        "is_ai": true,
        "track_id": 0,
        "velocity": 0,
        "is_motor": true,
        "motor_id": 3,
        "accel_val": 2000,
        "base_duration_us": 598435
      },
      {
        "id": "M_116",
        "pitch": 100,
        "t_note_us": 21599942,
        "t_trigger_us": 21463979,
        "is_ai": true,
        "track_id": 12,
        "velocity": 0,
        "is_motor": false,
        "motor_id": 0,
        "accel_val": 2000,
        "base_duration_us": 2398428
      },
      {
        "id": "M_104",
        "pitch": 36,
        "t_note_us": 21899941,
        "t_trigger_us": 21763978,
        "is_ai": true,
        "track_id": 0,
        "velocity": 0,
        "is_motor": true,
        "motor_id": 0,
        "accel_val": 2000,
        "base_duration_us": 148437
      },
      {
        "id": "M_105",
        "pitch": 40,
        "t_note_us": 22049940,
        "t_trigger_us": 21913977,
        "is_ai": true,
        "track_id": 0,
        "velocity": 0,
        "is_motor": true,
        "motor_id": 0,
        "accel_val": 2000,
        "base_duration_us": 148437
      },
      {
        "id": "M_108",
        "pitch": 41,
        "t_note_us": 22199939,
        "t_trigger_us": 22063976,
        "is_ai": true,
        "track_id": 0,
        "velocity": 0,
        "is_motor": true,
        "motor_id": 0,
        "accel_val": 2000,
        "base_duration_us": 298437
      },
      {
        "id": "M_109",
        "pitch": 96,
        "t_note_us": 22199939,
        "t_trigger_us": 22063976,
        "is_ai": true,
        "track_id": 10,
        "velocity": 0,
        "is_motor": false,
        "motor_id": 0,
        "accel_val": 2000,
        "base_duration_us": 598436
      },
      {
        "id": "M_111",
        "pitch": 36,
        "t_note_us": 22499938,
        "t_trigger_us": 22363975,
        "is_ai": true,
        "track_id": 0,
        "velocity": 0,
        "is_motor": true,
        "motor_id": 0,
        "accel_val": 2000,
        "base_duration_us": 598436
      },
      {
        "id": "M_110",
        "pitch": 96,
        "t_note_us": 22799937,
        "t_trigger_us": 22663974,
        "is_ai": true,
        "track_id": 10,
        "velocity": 0,
        "is_motor": false,
        "motor_id": 0,
        "accel_val": 2000,
        "base_duration_us": 298437
      },
      {
        "id": "M_113",
        "pitch": 36,
        "t_note_us": 23099936,
        "t_trigger_us": 22963973,
        "is_ai": true,
        "track_id": 0,
        "velocity": 0,
        "is_motor": true,
        "motor_id": 0,
        "accel_val": 2000,
        "base_duration_us": 298436
      },
      {
        "id": "M_112",
        "pitch": 93,
        "t_note_us": 23099936,
        "t_trigger_us": 22963973,
        "is_ai": true,
        "track_id": 8,
        "velocity": 0,
        "is_motor": false,
        "motor_id": 0,
        "accel_val": 2000,
        "base_duration_us": 148437
      },
      {
        "id": "M_115",
        "pitch": 93,
        "t_note_us": 23249935,
        "t_trigger_us": 23113972,
        "is_ai": true,
        "track_id": 8,
        "velocity": 0,
        "is_motor": false,
        "motor_id": 0,
        "accel_val": 2000,
        "base_duration_us": 748435
      },
      {
        "id": "M_114",
        "pitch": 41,
        "t_note_us": 23399934,
        "t_trigger_us": 23263971,
        "is_ai": true,
        "track_id": 0,
        "velocity": 0,
        "is_motor": true,
        "motor_id": 0,
        "accel_val": 2000,
        "base_duration_us": 298437
      },
      {
        "id": "M_117",
        "pitch": 36,
        "t_note_us": 23699933,
        "t_trigger_us": 23563970,
        "is_ai": true,
        "track_id": 0,
        "velocity": 0,
        "is_motor": true,
        "motor_id": 0,
        "accel_val": 2000,
        "base_duration_us": 298437
      },
      {
        "id": "M_118",
        "pitch": 29,
        "t_note_us": 23999932,
        "t_trigger_us": 23863969,
        "is_ai": true,
        "track_id": 0,
        "velocity": 0,
        "is_motor": true,
        "motor_id": 0,
        "accel_val": 2000,
        "base_duration_us": 298437
      },
      {
        "id": "M_122",
        "pitch": 53,
        "t_note_us": 23999932,
        "t_trigger_us": 23863969,
        "is_ai": true,
        "track_id": 0,
        "velocity": 0,
        "is_motor": true,
        "motor_id": 1,
        "accel_val": 2000,
        "base_duration_us": 598435
      },
      {
        "id": "M_123",
        "pitch": 50,
        "t_note_us": 23999932,
        "t_trigger_us": 23863969,
        "is_ai": true,
        "track_id": 0,
        "velocity": 0,
        "is_motor": true,
        "motor_id": 2,
        "accel_val": 2000,
        "base_duration_us": 598435
      },
      {
        "id": "M_121",
        "pitch": 95,
        "t_note_us": 23999932,
        "t_trigger_us": 23863969,
        "is_ai": true,
        "track_id": 9,
        "velocity": 0,
        "is_motor": false,
        "motor_id": 0,
        "accel_val": 2000,
        "base_duration_us": 598435
      },
      {
        "id": "M_119",
        "pitch": 32,
        "t_note_us": 24299931,
        "t_trigger_us": 24163968,
        "is_ai": true,
        "track_id": 0,
        "velocity": 0,
        "is_motor": true,
        "motor_id": 0,
        "accel_val": 2000,
        "base_duration_us": 148437
      },
      {
        "id": "M_120",
        "pitch": 38,
        "t_note_us": 24449930,
        "t_trigger_us": 24313967,
        "is_ai": true,
        "track_id": 0,
        "velocity": 0,
        "is_motor": true,
        "motor_id": 0,
        "accel_val": 2000,
        "base_duration_us": 148437
      },
      {
        "id": "M_124",
        "pitch": 41,
        "t_note_us": 24599929,
        "t_trigger_us": 24463966,
        "is_ai": true,
        "track_id": 0,
        "velocity": 0,
        "is_motor": true,
        "motor_id": 0,
        "accel_val": 2000,
        "base_duration_us": 298437
      },
      {
        "id": "M_125",
        "pitch": 95,
        "t_note_us": 24599929,
        "t_trigger_us": 24463966,
        "is_ai": true,
        "track_id": 9,
        "velocity": 0,
        "is_motor": false,
        "motor_id": 0,
        "accel_val": 2000,
        "base_duration_us": 598436
      },
      {
        "id": "M_127",
        "pitch": 38,
        "t_note_us": 24899928,
        "t_trigger_us": 24763965,
        "is_ai": true,
        "track_id": 0,
        "velocity": 0,
        "is_motor": true,
        "motor_id": 0,
        "accel_val": 2000,
        "base_duration_us": 598436
      },
      {
        "id": "M_126",
        "pitch": 95,
        "t_note_us": 25199927,
        "t_trigger_us": 25063964,
        "is_ai": true,
        "track_id": 9,
        "velocity": 0,
        "is_motor": false,
        "motor_id": 0,
        "accel_val": 2000,
        "base_duration_us": 298437
      },
      {
        "id": "M_128",
        "pitch": 55,
        "t_note_us": 25499926,
        "t_trigger_us": 25363963,
        "is_ai": true,
        "track_id": 0,
        "velocity": 0,
        "is_motor": true,
        "motor_id": 0,
        "accel_val": 2000,
        "base_duration_us": 148437
      },
      {
        "id": "M_129",
        "pitch": 38,
        "t_note_us": 25499926,
        "t_trigger_us": 25363963,
        "is_ai": true,
        "track_id": 0,
        "velocity": 0,
        "is_motor": true,
        "motor_id": 1,
        "accel_val": 2000,
        "base_duration_us": 298436
      },
      {
        "id": "M_131",
        "pitch": 55,
        "t_note_us": 25649925,
        "t_trigger_us": 25513962,
        "is_ai": true,
        "track_id": 0,
        "velocity": 0,
        "is_motor": true,
        "motor_id": 0,
        "accel_val": 2000,
        "base_duration_us": 748435
      },
      {
        "id": "M_130",
        "pitch": 41,
        "t_note_us": 25799924,
        "t_trigger_us": 25663961,
        "is_ai": true,
        "track_id": 0,
        "velocity": 0,
        "is_motor": true,
        "motor_id": 1,
        "accel_val": 2000,
        "base_duration_us": 298437
      },
      {
        "id": "M_132",
        "pitch": 38,
        "t_note_us": 26099923,
        "t_trigger_us": 25963960,
        "is_ai": true,
        "track_id": 0,
        "velocity": 0,
        "is_motor": true,
        "motor_id": 1,
        "accel_val": 2000,
        "base_duration_us": 298437
      },
      {
        "id": "M_133",
        "pitch": 28,
        "t_note_us": 26399922,
        "t_trigger_us": 26263959,
        "is_ai": true,
        "track_id": 0,
        "velocity": 0,
        "is_motor": true,
        "motor_id": 0,
        "accel_val": 2000,
        "base_duration_us": 298437
      },
      {
        "id": "M_138",
        "pitch": 52,
        "t_note_us": 26399922,
        "t_trigger_us": 26263959,
        "is_ai": true,
        "track_id": 0,
        "velocity": 0,
        "is_motor": true,
        "motor_id": 1,
        "accel_val": 2000,
        "base_duration_us": 598435
      },
      {
        "id": "M_136",
        "pitch": 95,
        "t_note_us": 26399922,
        "t_trigger_us": 26263959,
        "is_ai": true,
        "track_id": 9,
        "velocity": 0,
        "is_motor": false,
        "motor_id": 0,
        "accel_val": 2000,
        "base_duration_us": 598435
      },
      {
        "id": "M_137",
        "pitch": 91,
        "t_note_us": 26399922,
        "t_trigger_us": 26263959,
        "is_ai": true,
        "track_id": 0,
        "velocity": 0,
        "is_motor": true,
        "motor_id": 3,
        "accel_val": 2000,
        "base_duration_us": 598435
      },
      {
        "id": "M_147",
        "pitch": 98,
        "t_note_us": 26399922,
        "t_trigger_us": 26263959,
        "is_ai": true,
        "track_id": 11,
        "velocity": 0,
        "is_motor": false,
        "motor_id": 0,
        "accel_val": 2000,
        "base_duration_us": 2398428
      },
      {
        "id": "M_134",
        "pitch": 31,
        "t_note_us": 26699921,
        "t_trigger_us": 26563958,
        "is_ai": true,
        "track_id": 0,
        "velocity": 0,
        "is_motor": true,
        "motor_id": 0,
        "accel_val": 2000,
        "base_duration_us": 148437
      },
      {
        "id": "M_135",
        "pitch": 35,
        "t_note_us": 26849920,
        "t_trigger_us": 26713957,
        "is_ai": true,
        "track_id": 0,
        "velocity": 0,
        "is_motor": true,
        "motor_id": 0,
        "accel_val": 2000,
        "base_duration_us": 148437
      },
      {
        "id": "M_139",
        "pitch": 38,
        "t_note_us": 26999919,
        "t_trigger_us": 26863956,
        "is_ai": true,
        "track_id": 0,
        "velocity": 0,
        "is_motor": true,
        "motor_id": 0,
        "accel_val": 2000,
        "base_duration_us": 298437
      },
      {
        "id": "M_140",
        "pitch": 95,
        "t_note_us": 26999919,
        "t_trigger_us": 26863956,
        "is_ai": true,
        "track_id": 9,
        "velocity": 0,
        "is_motor": false,
        "motor_id": 0,
        "accel_val": 2000,
        "base_duration_us": 598436
      },
      {
        "id": "M_142",
        "pitch": 31,
        "t_note_us": 27299918,
        "t_trigger_us": 27163955,
        "is_ai": true,
        "track_id": 0,
        "velocity": 0,
        "is_motor": true,
        "motor_id": 0,
        "accel_val": 2000,
        "base_duration_us": 598436
      },
      {
        "id": "M_141",
        "pitch": 95,
        "t_note_us": 27599917,
        "t_trigger_us": 27463954,
        "is_ai": true,
        "track_id": 9,
        "velocity": 0,
        "is_motor": false,
        "motor_id": 0,
        "accel_val": 2000,
        "base_duration_us": 298437
      },
      {
        "id": "M_143",
        "pitch": 55,
        "t_note_us": 27899916,
        "t_trigger_us": 27763953,
        "is_ai": true,
        "track_id": 0,
        "velocity": 0,
        "is_motor": true,
        "motor_id": 0,
        "accel_val": 2000,
        "base_duration_us": 148437
      },
      {
        "id": "M_144",
        "pitch": 31,
        "t_note_us": 27899916,
        "t_trigger_us": 27763953,
        "is_ai": true,
        "track_id": 0,
        "velocity": 0,
        "is_motor": true,
        "motor_id": 1,
        "accel_val": 2000,
        "base_duration_us": 298436
      },
      {
        "id": "M_146",
        "pitch": 55,
        "t_note_us": 28049915,
        "t_trigger_us": 27913952,
        "is_ai": true,
        "track_id": 0,
        "velocity": 0,
        "is_motor": true,
        "motor_id": 0,
        "accel_val": 2000,
        "base_duration_us": 748435
      },
      {
        "id": "M_145",
        "pitch": 38,
        "t_note_us": 28199914,
        "t_trigger_us": 28063951,
        "is_ai": true,
        "track_id": 0,
        "velocity": 0,
        "is_motor": true,
        "motor_id": 1,
        "accel_val": 2000,
        "base_duration_us": 298437
      },
      {
        "id": "M_148",
        "pitch": 31,
        "t_note_us": 28499913,
        "t_trigger_us": 28363950,
        "is_ai": true,
        "track_id": 0,
        "velocity": 0,
        "is_motor": true,
        "motor_id": 1,
        "accel_val": 2000,
        "base_duration_us": 298437
      },
      {
        "id": "M_149",
        "pitch": 33,
        "t_note_us": 28799912,
        "t_trigger_us": 28663949,
        "is_ai": true,
        "track_id": 0,
        "velocity": 0,
        "is_motor": true,
        "motor_id": 0,
        "accel_val": 2000,
        "base_duration_us": 298437
      },
      {
        "id": "M_153",
        "pitch": 96,
        "t_note_us": 28799912,
        "t_trigger_us": 28663949,
        "is_ai": true,
        "track_id": 10,
        "velocity": 0,
        "is_motor": false,
        "motor_id": 0,
        "accel_val": 2000,
        "base_duration_us": 599997
      },
      {
        "id": "M_150",
        "pitch": 36,
        "t_note_us": 29099911,
        "t_trigger_us": 28963948,
        "is_ai": true,
        "track_id": 0,
        "velocity": 0,
        "is_motor": true,
        "motor_id": 0,
        "accel_val": 2000,
        "base_duration_us": 148437
      },
      {
        "id": "M_152",
        "pitch": 95,
        "t_note_us": 29099911,
        "t_trigger_us": 28963948,
        "is_ai": true,
        "track_id": 9,
        "velocity": 0,
        "is_motor": false,
        "motor_id": 0,
        "accel_val": 2000,
        "base_duration_us": 298436
      },
      {
        "id": "M_151",
        "pitch": 40,
        "t_note_us": 29249910,
        "t_trigger_us": 29113947,
        "is_ai": true,
        "track_id": 0,
        "velocity": 0,
        "is_motor": true,
        "motor_id": 0,
        "accel_val": 2000,
        "base_duration_us": 148437
      },
      {
        "id": "M_154",
        "pitch": 43,
        "t_note_us": 29399909,
        "t_trigger_us": 29263946,
        "is_ai": true,
        "track_id": 0,
        "velocity": 0,
        "is_motor": true,
        "motor_id": 0,
        "accel_val": 2000,
        "base_duration_us": 298437
      },
      {
        "id": "M_159",
        "pitch": 96,
        "t_note_us": 29399909,
        "t_trigger_us": 29263946,
        "is_ai": true,
        "track_id": 10,
        "velocity": 0,
        "is_motor": false,
        "motor_id": 0,
        "accel_val": 2000,
        "base_duration_us": 1199996
      },
      {
        "id": "M_156",
        "pitch": 40,
        "t_note_us": 29699908,
        "t_trigger_us": 29563945,
        "is_ai": true,
        "track_id": 0,
        "velocity": 0,
        "is_motor": true,
        "motor_id": 0,
        "accel_val": 2000,
        "base_duration_us": 598436
      },
      {
        "id": "M_155",
        "pitch": 95,
        "t_note_us": 29699908,
        "t_trigger_us": 29563945,
        "is_ai": true,
        "track_id": 9,
        "velocity": 0,
        "is_motor": false,
        "motor_id": 0,
        "accel_val": 2000,
        "base_duration_us": 298437
      },
      {
        "id": "M_158",
        "pitch": 98,
        "t_note_us": 29999907,
        "t_trigger_us": 29863944,
        "is_ai": true,
        "track_id": 11,
        "velocity": 0,
        "is_motor": false,
        "motor_id": 0,
        "accel_val": 2000,
        "base_duration_us": 598436
      },
      {
        "id": "M_157",
        "pitch": 36,
        "t_note_us": 30299906,
        "t_trigger_us": 30163943,
        "is_ai": true,
        "track_id": 0,
        "velocity": 0,
        "is_motor": true,
        "motor_id": 0,
        "accel_val": 2000,
        "base_duration_us": 298437
      },
      {
        "id": "M_160",
        "pitch": 43,
        "t_note_us": 30599905,
        "t_trigger_us": 30463942,
        "is_ai": true,
        "track_id": 0,
        "velocity": 0,
        "is_motor": true,
        "motor_id": 0,
        "accel_val": 2000,
        "base_duration_us": 298437
      },
      {
        "id": "M_162",
        "pitch": 96,
        "t_note_us": 30599905,
        "t_trigger_us": 30463942,
        "is_ai": true,
        "track_id": 10,
        "velocity": 0,
        "is_motor": false,
        "motor_id": 0,
        "accel_val": 2000,
        "base_duration_us": 598436
      },
      {
        "id": "M_161",
        "pitch": 40,
        "t_note_us": 30899904,
        "t_trigger_us": 30763941,
        "is_ai": true,
        "track_id": 0,
        "velocity": 0,
        "is_motor": true,
        "motor_id": 0,
        "accel_val": 2000,
        "base_duration_us": 298437
      },
      {
        "id": "M_163",
        "pitch": 29,
        "t_note_us": 31199903,
        "t_trigger_us": 31063940,
        "is_ai": true,
        "track_id": 0,
        "velocity": 0,
        "is_motor": true,
        "motor_id": 0,
        "accel_val": 2000,
        "base_duration_us": 298437
      },
      {
        "id": "M_166",
        "pitch": 96,
        "t_note_us": 31199903,
        "t_trigger_us": 31063940,
        "is_ai": true,
        "track_id": 0,
        "velocity": 0,
        "is_motor": true,
        "motor_id": 3,
        "accel_val": 2000,
        "base_duration_us": 598435
      },
      {
        "id": "M_175",
        "pitch": 100,
        "t_note_us": 31199903,
        "t_trigger_us": 31063940,
        "is_ai": true,
        "track_id": 12,
        "velocity": 0,
        "is_motor": false,
        "motor_id": 0,
        "accel_val": 2000,
        "base_duration_us": 2398428
      },
      {
        "id": "M_164",
        "pitch": 36,
        "t_note_us": 31499902,
        "t_trigger_us": 31363939,
        "is_ai": true,
        "track_id": 0,
        "velocity": 0,
        "is_motor": true,
        "motor_id": 0,
        "accel_val": 2000,
        "base_duration_us": 148437
      },
      {
        "id": "M_165",
        "pitch": 40,
        "t_note_us": 31649901,
        "t_trigger_us": 31513938,
        "is_ai": true,
        "track_id": 0,
        "velocity": 0,
        "is_motor": true,
        "motor_id": 0,
        "accel_val": 2000,
        "base_duration_us": 148437
      },
      {
        "id": "M_167",
        "pitch": 41,
        "t_note_us": 31799900,
        "t_trigger_us": 31663937,
        "is_ai": true,
        "track_id": 0,
        "velocity": 0,
        "is_motor": true,
        "motor_id": 0,
        "accel_val": 2000,
        "base_duration_us": 298437
      },
      {
        "id": "M_168",
        "pitch": 96,
        "t_note_us": 31799900,
        "t_trigger_us": 31663937,
        "is_ai": true,
        "track_id": 10,
        "velocity": 0,
        "is_motor": false,
        "motor_id": 0,
        "accel_val": 2000,
        "base_duration_us": 598436
      },
      {
        "id": "M_170",
        "pitch": 36,
        "t_note_us": 32099899,
        "t_trigger_us": 31963936,
        "is_ai": true,
        "track_id": 0,
        "velocity": 0,
        "is_motor": true,
        "motor_id": 0,
        "accel_val": 2000,
        "base_duration_us": 598436
      },
      {
        "id": "M_169",
        "pitch": 96,
        "t_note_us": 32399898,
        "t_trigger_us": 32263935,
        "is_ai": true,
        "track_id": 10,
        "velocity": 0,
        "is_motor": false,
        "motor_id": 0,
        "accel_val": 2000,
        "base_duration_us": 298437
      },
      {
        "id": "M_171",
        "pitch": 57,
        "t_note_us": 32699897,
        "t_trigger_us": 32563934,
        "is_ai": true,
        "track_id": 0,
        "velocity": 0,
        "is_motor": true,
        "motor_id": 0,
        "accel_val": 2000,
        "base_duration_us": 148437
      },
      {
        "id": "M_172",
        "pitch": 36,
        "t_note_us": 32699897,
        "t_trigger_us": 32563934,
        "is_ai": true,
        "track_id": 0,
        "velocity": 0,
        "is_motor": true,
        "motor_id": 1,
        "accel_val": 2000,
        "base_duration_us": 298436
      },
      {
        "id": "M_174",
        "pitch": 93,
        "t_note_us": 32849896,
        "t_trigger_us": 32713933,
        "is_ai": true,
        "track_id": 8,
        "velocity": 0,
        "is_motor": false,
        "motor_id": 0,
        "accel_val": 2000,
        "base_duration_us": 748435
      },
      {
        "id": "M_173",
        "pitch": 41,
        "t_note_us": 32999895,
        "t_trigger_us": 32863932,
        "is_ai": true,
        "track_id": 0,
        "velocity": 0,
        "is_motor": true,
        "motor_id": 0,
        "accel_val": 2000,
        "base_duration_us": 298437
      },
      {
        "id": "M_176",
        "pitch": 36,
        "t_note_us": 33299894,
        "t_trigger_us": 33163931,
        "is_ai": true,
        "track_id": 0,
        "velocity": 0,
        "is_motor": true,
        "motor_id": 0,
        "accel_val": 2000,
        "base_duration_us": 298437
      },
      {
        "id": "M_177",
        "pitch": 31,
        "t_note_us": 33599893,
        "t_trigger_us": 33463930,
        "is_ai": true,
        "track_id": 0,
        "velocity": 0,
        "is_motor": true,
        "motor_id": 0,
        "accel_val": 2000,
        "base_duration_us": 298437
      },
      {
        "id": "M_180",
        "pitch": 95,
        "t_note_us": 33599893,
        "t_trigger_us": 33463930,
        "is_ai": true,
        "track_id": 9,
        "velocity": 0,
        "is_motor": false,
        "motor_id": 0,
        "accel_val": 2000,
        "base_duration_us": 598435
      },
      {
        "id": "M_178",
        "pitch": 35,
        "t_note_us": 33899892,
        "t_trigger_us": 33763929,
        "is_ai": true,
        "track_id": 0,
        "velocity": 0,
        "is_motor": true,
        "motor_id": 0,
        "accel_val": 2000,
        "base_duration_us": 148437
      },
      {
        "id": "M_179",
        "pitch": 38,
        "t_note_us": 34049891,
        "t_trigger_us": 33913928,
        "is_ai": true,
        "track_id": 0,
        "velocity": 0,
        "is_motor": true,
        "motor_id": 0,
        "accel_val": 2000,
        "base_duration_us": 148437
      },
      {
        "id": "M_181",
        "pitch": 43,
        "t_note_us": 34199890,
        "t_trigger_us": 34063927,
        "is_ai": true,
        "track_id": 0,
        "velocity": 0,
        "is_motor": true,
        "motor_id": 0,
        "accel_val": 2000,
        "base_duration_us": 298437
      },
      {
        "id": "M_182",
        "pitch": 95,
        "t_note_us": 34199890,
        "t_trigger_us": 34063927,
        "is_ai": true,
        "track_id": 9,
        "velocity": 0,
        "is_motor": false,
        "motor_id": 0,
        "accel_val": 2000,
        "base_duration_us": 598436
      },
      {
        "id": "M_184",
        "pitch": 35,
        "t_note_us": 34499889,
        "t_trigger_us": 34363926,
        "is_ai": true,
        "track_id": 0,
        "velocity": 0,
        "is_motor": true,
        "motor_id": 0,
        "accel_val": 2000,
        "base_duration_us": 598436
      },
      {
        "id": "M_183",
        "pitch": 95,
        "t_note_us": 34799888,
        "t_trigger_us": 34663925,
        "is_ai": true,
        "track_id": 9,
        "velocity": 0,
        "is_motor": false,
        "motor_id": 0,
        "accel_val": 2000,
        "base_duration_us": 298437
      },
      {
        "id": "M_185",
        "pitch": 55,
        "t_note_us": 35099887,
        "t_trigger_us": 34963924,
        "is_ai": true,
        "track_id": 0,
        "velocity": 0,
        "is_motor": true,
        "motor_id": 0,
        "accel_val": 2000,
        "base_duration_us": 148437
      },
      {
        "id": "M_186",
        "pitch": 31,
        "t_note_us": 35099887,
        "t_trigger_us": 34963924,
        "is_ai": true,
        "track_id": 0,
        "velocity": 0,
        "is_motor": true,
        "motor_id": 1,
        "accel_val": 2000,
        "base_duration_us": 298436
      },
      {
        "id": "M_188",
        "pitch": 55,
        "t_note_us": 35249886,
        "t_trigger_us": 35113923,
        "is_ai": true,
        "track_id": 0,
        "velocity": 0,
        "is_motor": true,
        "motor_id": 0,
        "accel_val": 2000,
        "base_duration_us": 748435
      },
      {
        "id": "M_187",
        "pitch": 41,
        "t_note_us": 35399885,
        "t_trigger_us": 35263922,
        "is_ai": true,
        "track_id": 0,
        "velocity": 0,
        "is_motor": true,
        "motor_id": 1,
        "accel_val": 2000,
        "base_duration_us": 298437
      },
      {
        "id": "M_189",
        "pitch": 38,
        "t_note_us": 35699884,
        "t_trigger_us": 35563921,
        "is_ai": true,
        "track_id": 0,
        "velocity": 0,
        "is_motor": true,
        "motor_id": 1,
        "accel_val": 2000,
        "base_duration_us": 298437
      },
      {
        "id": "M_190",
        "pitch": 24,
        "t_note_us": 35999883,
        "t_trigger_us": 35863920,
        "is_ai": true,
        "track_id": 0,
        "velocity": 0,
        "is_motor": true,
        "motor_id": 0,
        "accel_val": 2000,
        "base_duration_us": 298437
      },
      {
        "id": "M_193",
        "pitch": 95,
        "t_note_us": 35999883,
        "t_trigger_us": 35863920,
        "is_ai": true,
        "track_id": 9,
        "velocity": 0,
        "is_motor": false,
        "motor_id": 0,
        "accel_val": 2000,
        "base_duration_us": 598435
      },
      {
        "id": "M_191",
        "pitch": 31,
        "t_note_us": 36299882,
        "t_trigger_us": 36163919,
        "is_ai": true,
        "track_id": 0,
        "velocity": 0,
        "is_motor": true,
        "motor_id": 0,
        "accel_val": 2000,
        "base_duration_us": 148437
      },
      {
        "id": "M_192",
        "pitch": 36,
        "t_note_us": 36449881,
        "t_trigger_us": 36313918,
        "is_ai": true,
        "track_id": 0,
        "velocity": 0,
        "is_motor": true,
        "motor_id": 0,
        "accel_val": 2000,
        "base_duration_us": 148437
      },
      {
        "id": "M_194",
        "pitch": 40,
        "t_note_us": 36599880,
        "t_trigger_us": 36463917,
        "is_ai": true,
        "track_id": 0,
        "velocity": 0,
        "is_motor": true,
        "motor_id": 0,
        "accel_val": 2000,
        "base_duration_us": 298437
      },
      {
        "id": "M_195",
        "pitch": 95,
        "t_note_us": 36599880,
        "t_trigger_us": 36463917,
        "is_ai": true,
        "track_id": 9,
        "velocity": 0,
        "is_motor": false,
        "motor_id": 0,
        "accel_val": 2000,
        "base_duration_us": 598436
      },
      {
        "id": "M_197",
        "pitch": 36,
        "t_note_us": 36899879,
        "t_trigger_us": 36763916,
        "is_ai": true,
        "track_id": 0,
        "velocity": 0,
        "is_motor": true,
        "motor_id": 0,
        "accel_val": 2000,
        "base_duration_us": 598436
      },
      {
        "id": "M_196",
        "pitch": 95,
        "t_note_us": 37199878,
        "t_trigger_us": 37063915,
        "is_ai": true,
        "track_id": 9,
        "velocity": 0,
        "is_motor": false,
        "motor_id": 0,
        "accel_val": 2000,
        "base_duration_us": 298437
      },
      {
        "id": "M_198",
        "pitch": 55,
        "t_note_us": 37499877,
        "t_trigger_us": 37363914,
        "is_ai": true,
        "track_id": 0,
        "velocity": 0,
        "is_motor": true,
        "motor_id": 0,
        "accel_val": 2000,
        "base_duration_us": 148437
      },
      {
        "id": "M_199",
        "pitch": 31,
        "t_note_us": 37499877,
        "t_trigger_us": 37363914,
        "is_ai": true,
        "track_id": 0,
        "velocity": 0,
        "is_motor": true,
        "motor_id": 1,
        "accel_val": 2000,
        "base_duration_us": 298436
      },
      {
        "id": "M_201",
        "pitch": 55,
        "t_note_us": 37649876,
        "t_trigger_us": 37513913,
        "is_ai": true,
        "track_id": 0,
        "velocity": 0,
        "is_motor": true,
        "motor_id": 0,
        "accel_val": 2000,
        "base_duration_us": 448436
      },
      {
        "id": "M_200",
        "pitch": 40,
        "t_note_us": 37799875,
        "t_trigger_us": 37663912,
        "is_ai": true,
        "track_id": 0,
        "velocity": 0,
        "is_motor": true,
        "motor_id": 1,
        "accel_val": 2000,
        "base_duration_us": 298437
      },
      {
        "id": "M_204",
        "pitch": 36,
        "t_note_us": 38099874,
        "t_trigger_us": 37963911,
        "is_ai": true,
        "track_id": 0,
        "velocity": 0,
        "is_motor": true,
        "motor_id": 0,
        "accel_val": 2000,
        "base_duration_us": 298436
      },
      {
        "id": "M_202",
        "pitch": 91,
        "t_note_us": 38099874,
        "t_trigger_us": 37963911,
        "is_ai": true,
        "track_id": 7,
        "velocity": 0,
        "is_motor": false,
        "motor_id": 0,
        "accel_val": 2000,
        "base_duration_us": 148437
      },
      {
        "id": "M_203",
        "pitch": 57,
        "t_note_us": 38249873,
        "t_trigger_us": 38113910,
        "is_ai": true,
        "track_id": 0,
        "velocity": 0,
        "is_motor": true,
        "motor_id": 1,
        "accel_val": 2000,
        "base_duration_us": 148437
      },
      {
        "id": "M_205",
        "pitch": 33,
        "t_note_us": 38399872,
        "t_trigger_us": 38263909,
        "is_ai": true,
        "track_id": 0,
        "velocity": 0,
        "is_motor": true,
        "motor_id": 0,
        "accel_val": 2000,
        "base_duration_us": 298437
      },
      {
        "id": "M_206",
        "pitch": 21,
        "t_note_us": 38399872,
        "t_trigger_us": 38263909,
        "is_ai": true,
        "track_id": 0,
        "velocity": 0,
        "is_motor": true,
        "motor_id": 1,
        "accel_val": 2000,
        "base_duration_us": 298437
      },
      {
        "id": "M_207",
        "pitch": 96,
        "t_note_us": 38399872,
        "t_trigger_us": 38263909,
        "is_ai": true,
        "track_id": 10,
        "velocity": 0,
        "is_motor": false,
        "motor_id": 0,
        "accel_val": 2000,
        "base_duration_us": 298437
      },
      {
        "id": "M_208",
        "pitch": 36,
        "t_note_us": 38699871,
        "t_trigger_us": 38563908,
        "is_ai": true,
        "track_id": 0,
        "velocity": 0,
        "is_motor": true,
        "motor_id": 0,
        "accel_val": 2000,
        "base_duration_us": 148437
      },
      {
        "id": "M_210",
        "pitch": 96,
        "t_note_us": 38699871,
        "t_trigger_us": 38563908,
        "is_ai": true,
        "track_id": 10,
        "velocity": 0,
        "is_motor": false,
        "motor_id": 0,
        "accel_val": 2000,
        "base_duration_us": 298436
      },
      {
        "id": "M_209",
        "pitch": 40,
        "t_note_us": 38849870,
        "t_trigger_us": 38713907,
        "is_ai": true,
        "track_id": 0,
        "velocity": 0,
        "is_motor": true,
        "motor_id": 0,
        "accel_val": 2000,
        "base_duration_us": 148437
      },
      {
        "id": "M_211",
        "pitch": 43,
        "t_note_us": 38999869,
        "t_trigger_us": 38863906,
        "is_ai": true,
        "track_id": 0,
        "velocity": 0,
        "is_motor": true,
        "motor_id": 0,
        "accel_val": 2000,
        "base_duration_us": 298437
      },
      {
        "id": "M_212",
        "pitch": 96,
        "t_note_us": 38999869,
        "t_trigger_us": 38863906,
        "is_ai": true,
        "track_id": 10,
        "velocity": 0,
        "is_motor": false,
        "motor_id": 0,
        "accel_val": 2000,
        "base_duration_us": 298437
      },
      {
        "id": "M_215",
        "pitch": 40,
        "t_note_us": 39299868,
        "t_trigger_us": 39163905,
        "is_ai": true,
        "track_id": 0,
        "velocity": 0,
        "is_motor": true,
        "motor_id": 0,
        "accel_val": 2000,
        "base_duration_us": 598436
      },
      {
        "id": "M_213",
        "pitch": 95,
        "t_note_us": 39299868,
        "t_trigger_us": 39163905,
        "is_ai": true,
        "track_id": 9,
        "velocity": 0,
        "is_motor": false,
        "motor_id": 0,
        "accel_val": 2000,
        "base_duration_us": 298437
      },
      {
        "id": "M_214",
        "pitch": 96,
        "t_note_us": 39599867,
        "t_trigger_us": 39463904,
        "is_ai": true,
        "track_id": 10,
        "velocity": 0,
        "is_motor": false,
        "motor_id": 0,
        "accel_val": 2000,
        "base_duration_us": 298437
      },
      {
        "id": "M_216",
        "pitch": 36,
        "t_note_us": 39899866,
        "t_trigger_us": 39763903,
        "is_ai": true,
        "track_id": 0,
        "velocity": 0,
        "is_motor": true,
        "motor_id": 0,
        "accel_val": 2000,
        "base_duration_us": 148437
      },
      {
        "id": "M_218",
        "pitch": 95,
        "t_note_us": 39899866,
        "t_trigger_us": 39763903,
        "is_ai": true,
        "track_id": 9,
        "velocity": 0,
        "is_motor": false,
        "motor_id": 0,
        "accel_val": 2000,
        "base_duration_us": 298436
      },
      {
        "id": "M_217",
        "pitch": 40,
        "t_note_us": 40049865,
        "t_trigger_us": 39913902,
        "is_ai": true,
        "track_id": 0,
        "velocity": 0,
        "is_motor": true,
        "motor_id": 0,
        "accel_val": 2000,
        "base_duration_us": 148437
      },
      {
        "id": "M_219",
        "pitch": 45,
        "t_note_us": 40199864,
        "t_trigger_us": 40063901,
        "is_ai": true,
        "track_id": 0,
        "velocity": 0,
        "is_motor": true,
        "motor_id": 0,
        "accel_val": 2000,
        "base_duration_us": 148437
      },
      {
        "id": "M_221",
        "pitch": 100,
        "t_note_us": 40199864,
        "t_trigger_us": 40063901,
        "is_ai": true,
        "track_id": 12,
        "velocity": 0,
        "is_motor": false,
        "motor_id": 0,
        "accel_val": 2000,
        "base_duration_us": 298436
      },
      {
        "id": "M_222",
        "pitch": 96,
        "t_note_us": 40199864,
        "t_trigger_us": 40063901,
        "is_ai": true,
        "track_id": 0,
        "velocity": 0,
        "is_motor": true,
        "motor_id": 3,
        "accel_val": 2000,
        "base_duration_us": 298436
      },
      {
        "id": "M_220",
        "pitch": 40,
        "t_note_us": 40349863,
        "t_trigger_us": 40213900,
        "is_ai": true,
        "track_id": 0,
        "velocity": 0,
        "is_motor": true,
        "motor_id": 0,
        "accel_val": 2000,
        "base_duration_us": 148437
      },
      {
        "id": "M_223",
        "pitch": 36,
        "t_note_us": 40499862,
        "t_trigger_us": 40363899,
        "is_ai": true,
        "track_id": 0,
        "velocity": 0,
        "is_motor": true,
        "motor_id": 0,
        "accel_val": 2000,
        "base_duration_us": 148437
      },
      {
        "id": "M_225",
        "pitch": 100,
        "t_note_us": 40499862,
        "t_trigger_us": 40363899,
        "is_ai": true,
        "track_id": 12,
        "velocity": 0,
        "is_motor": false,
        "motor_id": 0,
        "accel_val": 2000,
        "base_duration_us": 298436
      },
      {
        "id": "M_226",
        "pitch": 96,
        "t_note_us": 40499862,
        "t_trigger_us": 40363899,
        "is_ai": true,
        "track_id": 0,
        "velocity": 0,
        "is_motor": true,
        "motor_id": 3,
        "accel_val": 2000,
        "base_duration_us": 298436
      },
      {
        "id": "M_224",
        "pitch": 33,
        "t_note_us": 40649861,
        "t_trigger_us": 40513898,
        "is_ai": true,
        "track_id": 0,
        "velocity": 0,
        "is_motor": true,
        "motor_id": 0,
        "accel_val": 2000,
        "base_duration_us": 148437
      },
      {
        "id": "M_227",
        "pitch": 29,
        "t_note_us": 40799860,
        "t_trigger_us": 40663897,
        "is_ai": true,
        "track_id": 0,
        "velocity": 0,
        "is_motor": true,
        "motor_id": 0,
        "accel_val": 2000,
        "base_duration_us": 298437
      },
      {
        "id": "M_230",
        "pitch": 103,
        "t_note_us": 40799860,
        "t_trigger_us": 40663897,
        "is_ai": true,
        "track_id": 14,
        "velocity": 0,
        "is_motor": false,
        "motor_id": 0,
        "accel_val": 2000,
        "base_duration_us": 598435
      },
      {
        "id": "M_231",
        "pitch": 96,
        "t_note_us": 40799860,
        "t_trigger_us": 40663897,
        "is_ai": true,
        "track_id": 0,
        "velocity": 0,
        "is_motor": true,
        "motor_id": 3,
        "accel_val": 2000,
        "base_duration_us": 598435
      },
      {
        "id": "M_228",
        "pitch": 45,
        "t_note_us": 41099859,
        "t_trigger_us": 40963896,
        "is_ai": true,
        "track_id": 0,
        "velocity": 0,
        "is_motor": true,
        "motor_id": 0,
        "accel_val": 2000,
        "base_duration_us": 148437
      },
      {
        "id": "M_229",
        "pitch": 48,
        "t_note_us": 41249858,
        "t_trigger_us": 41113895,
        "is_ai": true,
        "track_id": 0,
        "velocity": 0,
        "is_motor": true,
        "motor_id": 0,
        "accel_val": 2000,
        "base_duration_us": 148437
      },
      {
        "id": "M_232",
        "pitch": 45,
        "t_note_us": 41399857,
        "t_trigger_us": 41263894,
        "is_ai": true,
        "track_id": 0,
        "velocity": 0,
        "is_motor": true,
        "motor_id": 0,
        "accel_val": 2000,
        "base_duration_us": 148437
      },
      {
        "id": "M_236",
        "pitch": 103,
        "t_note_us": 41399857,
        "t_trigger_us": 41263894,
        "is_ai": true,
        "track_id": 14,
        "velocity": 0,
        "is_motor": false,
        "motor_id": 0,
        "accel_val": 2000,
        "base_duration_us": 598434
      },
      {
        "id": "M_233",
        "pitch": 52,
        "t_note_us": 41549856,
        "t_trigger_us": 41413893,
        "is_ai": true,
        "track_id": 0,
        "velocity": 0,
        "is_motor": true,
        "motor_id": 0,
        "accel_val": 2000,
        "base_duration_us": 148437
      },
      {
        "id": "M_234",
        "pitch": 48,
        "t_note_us": 41699855,
        "t_trigger_us": 41563892,
        "is_ai": true,
        "track_id": 0,
        "velocity": 0,
        "is_motor": true,
        "motor_id": 0,
        "accel_val": 2000,
        "base_duration_us": 148437
      },
      {
        "id": "M_235",
        "pitch": 45,
        "t_note_us": 41849854,
        "t_trigger_us": 41713891,
        "is_ai": true,
        "track_id": 0,
        "velocity": 0,
        "is_motor": true,
        "motor_id": 0,
        "accel_val": 2000,
        "base_duration_us": 148437
      },
      {
        "id": "M_237",
        "pitch": 29,
        "t_note_us": 41999853,
        "t_trigger_us": 41863890,
        "is_ai": true,
        "track_id": 0,
        "velocity": 0,
        "is_motor": true,
        "motor_id": 0,
        "accel_val": 2000,
        "base_duration_us": 298437
      },
      {
        "id": "M_242",
        "pitch": 53,
        "t_note_us": 41999853,
        "t_trigger_us": 41863890,
        "is_ai": true,
        "track_id": 0,
        "velocity": 0,
        "is_motor": true,
        "motor_id": 1,
        "accel_val": 2000,
        "base_duration_us": 598435
      },
      {
        "id": "M_240",
        "pitch": 100,
        "t_note_us": 41999853,
        "t_trigger_us": 41863890,
        "is_ai": true,
        "track_id": 12,
        "velocity": 0,
        "is_motor": false,
        "motor_id": 0,
        "accel_val": 2000,
        "base_duration_us": 598435
      },
      {
        "id": "M_241",
        "pitch": 96,
        "t_note_us": 41999853,
        "t_trigger_us": 41863890,
        "is_ai": true,
        "track_id": 0,
        "velocity": 0,
        "is_motor": true,
        "motor_id": 3,
        "accel_val": 2000,
        "base_duration_us": 598435
      },
      {
        "id": "M_238",
        "pitch": 45,
        "t_note_us": 42299852,
        "t_trigger_us": 42163889,
        "is_ai": true,
        "track_id": 0,
        "velocity": 0,
        "is_motor": true,
        "motor_id": 0,
        "accel_val": 2000,
        "base_duration_us": 148437
      },
      {
        "id": "M_239",
        "pitch": 41,
        "t_note_us": 42449851,
        "t_trigger_us": 42313888,
        "is_ai": true,
        "track_id": 0,
        "velocity": 0,
        "is_motor": true,
        "motor_id": 0,
        "accel_val": 2000,
        "base_duration_us": 148437
      },
      {
        "id": "M_243",
        "pitch": 29,
        "t_note_us": 42599850,
        "t_trigger_us": 42463887,
        "is_ai": true,
        "track_id": 0,
        "velocity": 0,
        "is_motor": true,
        "motor_id": 0,
        "accel_val": 2000,
        "base_duration_us": 298437
      },
      {
        "id": "M_246",
        "pitch": 53,
        "t_note_us": 42599850,
        "t_trigger_us": 42463887,
        "is_ai": true,
        "track_id": 0,
        "velocity": 0,
        "is_motor": true,
        "motor_id": 1,
        "accel_val": 2000,
        "base_duration_us": 298437
      },
      {
        "id": "M_244",
        "pitch": 100,
        "t_note_us": 42599850,
        "t_trigger_us": 42463887,
        "is_ai": true,
        "track_id": 12,
        "velocity": 0,
        "is_motor": false,
        "motor_id": 0,
        "accel_val": 2000,
        "base_duration_us": 298437
      },
      {
        "id": "M_245",
        "pitch": 95,
        "t_note_us": 42599850,
        "t_trigger_us": 42463887,
        "is_ai": true,
        "track_id": 0,
        "velocity": 0,
        "is_motor": true,
        "motor_id": 3,
        "accel_val": 2000,
        "base_duration_us": 298437
      },
      {
        "id": "M_247",
        "pitch": 47,
        "t_note_us": 42899849,
        "t_trigger_us": 42763886,
        "is_ai": true,
        "track_id": 0,
        "velocity": 0,
        "is_motor": true,
        "motor_id": 0,
        "accel_val": 2000,
        "base_duration_us": 148437
      },
      {
        "id": "M_249",
        "pitch": 101,
        "t_note_us": 42899849,
        "t_trigger_us": 42763886,
        "is_ai": true,
        "track_id": 13,
        "velocity": 0,
        "is_motor": false,
        "motor_id": 0,
        "accel_val": 2000,
        "base_duration_us": 298436
      },
      {
        "id": "M_248",
        "pitch": 41,
        "t_note_us": 43049848,
        "t_trigger_us": 42913885,
        "is_ai": true,
        "track_id": 0,
        "velocity": 0,
        "is_motor": true,
        "motor_id": 0,
        "accel_val": 2000,
        "base_duration_us": 148437
      },
      {
        "id": "M_250",
        "pitch": 29,
        "t_note_us": 43199847,
        "t_trigger_us": 43063884,
        "is_ai": true,
        "track_id": 0,
        "velocity": 0,
        "is_motor": true,
        "motor_id": 0,
        "accel_val": 2000,
        "base_duration_us": 298437
      },
      {
        "id": "M_251",
        "pitch": 103,
        "t_note_us": 43199847,
        "t_trigger_us": 43063884,
        "is_ai": true,
        "track_id": 14,
        "velocity": 0,
        "is_motor": false,
        "motor_id": 0,
        "accel_val": 2000,
        "base_duration_us": 298437
      },
      {
        "id": "M_252",
        "pitch": 98,
        "t_note_us": 43199847,
        "t_trigger_us": 43063884,
        "is_ai": true,
        "track_id": 11,
        "velocity": 0,
        "is_motor": false,
        "motor_id": 0,
        "accel_val": 2000,
        "base_duration_us": 298437
      },
      {
        "id": "M_253",
        "pitch": 93,
        "t_note_us": 43199847,
        "t_trigger_us": 43063884,
        "is_ai": true,
        "track_id": 0,
        "velocity": 0,
        "is_motor": true,
        "motor_id": 3,
        "accel_val": 2000,
        "base_duration_us": 298437
      },
      {
        "id": "M_254",
        "pitch": 44,
        "t_note_us": 43499846,
        "t_trigger_us": 43363883,
        "is_ai": true,
        "track_id": 0,
        "velocity": 0,
        "is_motor": true,
        "motor_id": 0,
        "accel_val": 2000,
        "base_duration_us": 148437
      },
      {
        "id": "M_256",
        "pitch": 103,
        "t_note_us": 43499846,
        "t_trigger_us": 43363883,
        "is_ai": true,
        "track_id": 14,
        "velocity": 0,
        "is_motor": false,
        "motor_id": 0,
        "accel_val": 2000,
        "base_duration_us": 298436
      },
      {
        "id": "M_255",
        "pitch": 48,
        "t_note_us": 43649845,
        "t_trigger_us": 43513882,
        "is_ai": true,
        "track_id": 0,
        "velocity": 0,
        "is_motor": true,
        "motor_id": 0,
        "accel_val": 2000,
        "base_duration_us": 148437
      },
      {
        "id": "M_257",
        "pitch": 44,
        "t_note_us": 43799844,
        "t_trigger_us": 43663881,
        "is_ai": true,
        "track_id": 0,
        "velocity": 0,
        "is_motor": true,
        "motor_id": 0,
        "accel_val": 2000,
        "base_duration_us": 148437
      },
      {
        "id": "M_259",
        "pitch": 103,
        "t_note_us": 43799844,
        "t_trigger_us": 43663881,
        "is_ai": true,
        "track_id": 14,
        "velocity": 0,
        "is_motor": false,
        "motor_id": 0,
        "accel_val": 2000,
        "base_duration_us": 298436
      },
      {
        "id": "M_258",
        "pitch": 53,
        "t_note_us": 43949843,
        "t_trigger_us": 43813880,
        "is_ai": true,
        "track_id": 0,
        "velocity": 0,
        "is_motor": true,
        "motor_id": 0,
        "accel_val": 2000,
        "base_duration_us": 148437
      },
      {
        "id": "M_260",
        "pitch": 50,
        "t_note_us": 44099842,
        "t_trigger_us": 43963879,
        "is_ai": true,
        "track_id": 0,
        "velocity": 0,
        "is_motor": true,
        "motor_id": 0,
        "accel_val": 2000,
        "base_duration_us": 148437
      },
      {
        "id": "M_264",
        "pitch": 98,
        "t_note_us": 44099842,
        "t_trigger_us": 43963879,
        "is_ai": true,
        "track_id": 11,
        "velocity": 0,
        "is_motor": false,
        "motor_id": 0,
        "accel_val": 2000,
        "base_duration_us": 598435
      },
      {
        "id": "M_261",
        "pitch": 44,
        "t_note_us": 44249841,
        "t_trigger_us": 44113878,
        "is_ai": true,
        "track_id": 0,
        "velocity": 0,
        "is_motor": true,
        "motor_id": 0,
        "accel_val": 2000,
        "base_duration_us": 148437
      },
      {
        "id": "M_262",
        "pitch": 29,
        "t_note_us": 44399840,
        "t_trigger_us": 44263877,
        "is_ai": true,
        "track_id": 0,
        "velocity": 0,
        "is_motor": true,
        "motor_id": 0,
        "accel_val": 2000,
        "base_duration_us": 298437
      },
      {
        "id": "M_263",
        "pitch": 93,
        "t_note_us": 44399840,
        "t_trigger_us": 44263877,
        "is_ai": true,
        "track_id": 8,
        "velocity": 0,
        "is_motor": false,
        "motor_id": 0,
        "accel_val": 2000,
        "base_duration_us": 298437
      },
      {
        "id": "M_265",
        "pitch": 44,
        "t_note_us": 44699839,
        "t_trigger_us": 44563876,
        "is_ai": true,
        "track_id": 0,
        "velocity": 0,
        "is_motor": true,
        "motor_id": 0,
        "accel_val": 2000,
        "base_duration_us": 148437
      },
      {
        "id": "M_267",
        "pitch": 96,
        "t_note_us": 44699839,
        "t_trigger_us": 44563876,
        "is_ai": true,
        "track_id": 10,
        "velocity": 0,
        "is_motor": false,
        "motor_id": 0,
        "accel_val": 2000,
        "base_duration_us": 298436
      },
      {
        "id": "M_266",
        "pitch": 41,
        "t_note_us": 44849838,
        "t_trigger_us": 44713875,
        "is_ai": true,
        "track_id": 0,
        "velocity": 0,
        "is_motor": true,
        "motor_id": 0,
        "accel_val": 2000,
        "base_duration_us": 148437
      },
      {
        "id": "M_268",
        "pitch": 32,
        "t_note_us": 44999837,
        "t_trigger_us": 44863874,
        "is_ai": true,
        "track_id": 0,
        "velocity": 0,
        "is_motor": true,
        "motor_id": 0,
        "accel_val": 2000,
        "base_duration_us": 298437
      },
      {
        "id": "M_269",
        "pitch": 96,
        "t_note_us": 44999837,
        "t_trigger_us": 44863874,
        "is_ai": true,
        "track_id": 10,
        "velocity": 0,
        "is_motor": false,
        "motor_id": 0,
        "accel_val": 2000,
        "base_duration_us": 298437
      },
      {
        "id": "M_270",
        "pitch": 50,
        "t_note_us": 45299836,
        "t_trigger_us": 45163873,
        "is_ai": true,
        "track_id": 0,
        "velocity": 0,
        "is_motor": true,
        "motor_id": 0,
        "accel_val": 2000,
        "base_duration_us": 298437
      },
      {
        "id": "M_271",
        "pitch": 93,
        "t_note_us": 45299836,
        "t_trigger_us": 45163873,
        "is_ai": true,
        "track_id": 8,
        "velocity": 0,
        "is_motor": false,
        "motor_id": 0,
        "accel_val": 2000,
        "base_duration_us": 298437
      },
      {
        "id": "M_272",
        "pitch": 28,
        "t_note_us": 45599835,
        "t_trigger_us": 45463872,
        "is_ai": true,
        "track_id": 0,
        "velocity": 0,
        "is_motor": true,
        "motor_id": 0,
        "accel_val": 2000,
        "base_duration_us": 298437
      },
      {
        "id": "M_275",
        "pitch": 98,
        "t_note_us": 45599835,
        "t_trigger_us": 45463872,
        "is_ai": true,
        "track_id": 11,
        "velocity": 0,
        "is_motor": false,
        "motor_id": 0,
        "accel_val": 2000,
        "base_duration_us": 598435
      },
      {
        "id": "M_276",
        "pitch": 91,
        "t_note_us": 45599835,
        "t_trigger_us": 45463872,
        "is_ai": true,
        "track_id": 0,
        "velocity": 0,
        "is_motor": true,
        "motor_id": 3,
        "accel_val": 2000,
        "base_duration_us": 598435
      },
      {
        "id": "M_273",
        "pitch": 43,
        "t_note_us": 45899834,
        "t_trigger_us": 45763871,
        "is_ai": true,
        "track_id": 0,
        "velocity": 0,
        "is_motor": true,
        "motor_id": 0,
        "accel_val": 2000,
        "base_duration_us": 148437
      },
      {
        "id": "M_274",
        "pitch": 47,
        "t_note_us": 46049833,
        "t_trigger_us": 45913870,
        "is_ai": true,
        "track_id": 0,
        "velocity": 0,
        "is_motor": true,
        "motor_id": 0,
        "accel_val": 2000,
        "base_duration_us": 148437
      },
      {
        "id": "M_277",
        "pitch": 50,
        "t_note_us": 46199832,
        "t_trigger_us": 46063869,
        "is_ai": true,
        "track_id": 0,
        "velocity": 0,
        "is_motor": true,
        "motor_id": 0,
        "accel_val": 2000,
        "base_duration_us": 148437
      },
      {
        "id": "M_279",
        "pitch": 98,
        "t_note_us": 46199832,
        "t_trigger_us": 46063869,
        "is_ai": true,
        "track_id": 11,
        "velocity": 0,
        "is_motor": false,
        "motor_id": 0,
        "accel_val": 2000,
        "base_duration_us": 298436
      },
      {
        "id": "M_278",
        "pitch": 43,
        "t_note_us": 46349831,
        "t_trigger_us": 46213868,
        "is_ai": true,
        "track_id": 0,
        "velocity": 0,
        "is_motor": true,
        "motor_id": 0,
        "accel_val": 2000,
        "base_duration_us": 148437
      },
      {
        "id": "M_280",
        "pitch": 47,
        "t_note_us": 46499830,
        "t_trigger_us": 46363867,
        "is_ai": true,
        "track_id": 0,
        "velocity": 0,
        "is_motor": true,
        "motor_id": 0,
        "accel_val": 2000,
        "base_duration_us": 148437
      },
      {
        "id": "M_282",
        "pitch": 100,
        "t_note_us": 46499830,
        "t_trigger_us": 46363867,
        "is_ai": true,
        "track_id": 12,
        "velocity": 0,
        "is_motor": false,
        "motor_id": 0,
        "accel_val": 2000,
        "base_duration_us": 298436
      },
      {
        "id": "M_281",
        "pitch": 40,
        "t_note_us": 46649829,
        "t_trigger_us": 46513866,
        "is_ai": true,
        "track_id": 0,
        "velocity": 0,
        "is_motor": true,
        "motor_id": 0,
        "accel_val": 2000,
        "base_duration_us": 148437
      },
      {
        "id": "M_283",
        "pitch": 28,
        "t_note_us": 46799828,
        "t_trigger_us": 46663865,
        "is_ai": true,
        "track_id": 0,
        "velocity": 0,
        "is_motor": true,
        "motor_id": 0,
        "accel_val": 2000,
        "base_duration_us": 298437
      },
      {
        "id": "M_286",
        "pitch": 98,
        "t_note_us": 46799828,
        "t_trigger_us": 46663865,
        "is_ai": true,
        "track_id": 11,
        "velocity": 0,
        "is_motor": false,
        "motor_id": 0,
        "accel_val": 2000,
        "base_duration_us": 898434
      },
      {
        "id": "M_284",
        "pitch": 43,
        "t_note_us": 47099827,
        "t_trigger_us": 46963864,
        "is_ai": true,
        "track_id": 0,
        "velocity": 0,
        "is_motor": true,
        "motor_id": 0,
        "accel_val": 2000,
        "base_duration_us": 148437
      },
      {
        "id": "M_285",
        "pitch": 40,
        "t_note_us": 47249826,
        "t_trigger_us": 47113863,
        "is_ai": true,
        "track_id": 0,
        "velocity": 0,
        "is_motor": true,
        "motor_id": 0,
        "accel_val": 2000,
        "base_duration_us": 148437
      },
      {
        "id": "M_287",
        "pitch": 31,
        "t_note_us": 47399825,
        "t_trigger_us": 47263862,
        "is_ai": true,
        "track_id": 0,
        "velocity": 0,
        "is_motor": true,
        "motor_id": 0,
        "accel_val": 2000,
        "base_duration_us": 298437
      },
      {
        "id": "M_288",
        "pitch": 50,
        "t_note_us": 47699824,
        "t_trigger_us": 47563861,
        "is_ai": true,
        "track_id": 0,
        "velocity": 0,
        "is_motor": true,
        "motor_id": 0,
        "accel_val": 2000,
        "base_duration_us": 148437
      },
      {
        "id": "M_291",
        "pitch": 98,
        "t_note_us": 47699824,
        "t_trigger_us": 47563861,
        "is_ai": true,
        "track_id": 11,
        "velocity": 0,
        "is_motor": false,
        "motor_id": 0,
        "accel_val": 2000,
        "base_duration_us": 598435
      },
      {
        "id": "M_289",
        "pitch": 43,
        "t_note_us": 47849823,
        "t_trigger_us": 47713860,
        "is_ai": true,
        "track_id": 0,
        "velocity": 0,
        "is_motor": true,
        "motor_id": 0,
        "accel_val": 2000,
        "base_duration_us": 148437
      },
      {
        "id": "M_290",
        "pitch": 33,
        "t_note_us": 47999822,
        "t_trigger_us": 47863859,
        "is_ai": true,
        "track_id": 0,
        "velocity": 0,
        "is_motor": true,
        "motor_id": 0,
        "accel_val": 2000,
        "base_duration_us": 298437
      },
      {
        "id": "M_292",
        "pitch": 45,
        "t_note_us": 48299821,
        "t_trigger_us": 48163858,
        "is_ai": true,
        "track_id": 0,
        "velocity": 0,
        "is_motor": true,
        "motor_id": 0,
        "accel_val": 2000,
        "base_duration_us": 148437
      },
      {
        "id": "M_294",
        "pitch": 100,
        "t_note_us": 48299821,
        "t_trigger_us": 48163858,
        "is_ai": true,
        "track_id": 12,
        "velocity": 0,
        "is_motor": false,
        "motor_id": 0,
        "accel_val": 2000,
        "base_duration_us": 298436
      },
      {
        "id": "M_293",
        "pitch": 40,
        "t_note_us": 48449820,
        "t_trigger_us": 48313857,
        "is_ai": true,
        "track_id": 0,
        "velocity": 0,
        "is_motor": true,
        "motor_id": 0,
        "accel_val": 2000,
        "base_duration_us": 148437
      },
      {
        "id": "M_295",
        "pitch": 48,
        "t_note_us": 48599819,
        "t_trigger_us": 48463856,
        "is_ai": true,
        "track_id": 0,
        "velocity": 0,
        "is_motor": true,
        "motor_id": 0,
        "accel_val": 2000,
        "base_duration_us": 148437
      },
      {
        "id": "M_297",
        "pitch": 98,
        "t_note_us": 48599819,
        "t_trigger_us": 48463856,
        "is_ai": true,
        "track_id": 11,
        "velocity": 0,
        "is_motor": false,
        "motor_id": 0,
        "accel_val": 2000,
        "base_duration_us": 298436
      },
      {
        "id": "M_296",
        "pitch": 45,
        "t_note_us": 48749818,
        "t_trigger_us": 48613855,
        "is_ai": true,
        "track_id": 0,
        "velocity": 0,
        "is_motor": true,
        "motor_id": 0,
        "accel_val": 2000,
        "base_duration_us": 148437
      },
      {
        "id": "M_298",
        "pitch": 43,
        "t_note_us": 48749818,
        "t_trigger_us": 48613855,
        "is_ai": true,
        "track_id": 0,
        "velocity": 0,
        "is_motor": true,
        "motor_id": 1,
        "accel_val": 2000,
        "base_duration_us": 149999
      },
      {
        "id": "M_299",
        "pitch": 40,
        "t_note_us": 48899817,
        "t_trigger_us": 48763854,
        "is_ai": true,
        "track_id": 0,
        "velocity": 0,
        "is_motor": true,
        "motor_id": 0,
        "accel_val": 2000,
        "base_duration_us": 148437
      },
      {
        "id": "M_301",
        "pitch": 96,
        "t_note_us": 48899817,
        "t_trigger_us": 48763854,
        "is_ai": true,
        "track_id": 10,
        "velocity": 0,
        "is_motor": false,
        "motor_id": 0,
        "accel_val": 2000,
        "base_duration_us": 298436
      },
      {
        "id": "M_300",
        "pitch": 36,
        "t_note_us": 49049816,
        "t_trigger_us": 48913853,
        "is_ai": true,
        "track_id": 0,
        "velocity": 0,
        "is_motor": true,
        "motor_id": 0,
        "accel_val": 2000,
        "base_duration_us": 148437
      },
      {
        "id": "M_302",
        "pitch": 33,
        "t_note_us": 49199815,
        "t_trigger_us": 49063852,
        "is_ai": true,
        "track_id": 0,
        "velocity": 0,
        "is_motor": true,
        "motor_id": 0,
        "accel_val": 2000,
        "base_duration_us": 298437
      },
      {
        "id": "M_303",
        "pitch": 96,
        "t_note_us": 49199815,
        "t_trigger_us": 49063852,
        "is_ai": true,
        "track_id": 10,
        "velocity": 0,
        "is_motor": false,
        "motor_id": 0,
        "accel_val": 2000,
        "base_duration_us": 298437
      },
      {
        "id": "M_304",
        "pitch": 48,
        "t_note_us": 49499814,
        "t_trigger_us": 49363851,
        "is_ai": true,
        "track_id": 0,
        "velocity": 0,
        "is_motor": true,
        "motor_id": 0,
        "accel_val": 2000,
        "base_duration_us": 148437
      },
      {
        "id": "M_306",
        "pitch": 95,
        "t_note_us": 49499814,
        "t_trigger_us": 49363851,
        "is_ai": true,
        "track_id": 9,
        "velocity": 0,
        "is_motor": false,
        "motor_id": 0,
        "accel_val": 2000,
        "base_duration_us": 298436
      },
      {
        "id": "M_305",
        "pitch": 45,
        "t_note_us": 49649813,
        "t_trigger_us": 49513850,
        "is_ai": true,
        "track_id": 0,
        "velocity": 0,
        "is_motor": true,
        "motor_id": 0,
        "accel_val": 2000,
        "base_duration_us": 148437
      },
      {
        "id": "M_307",
        "pitch": 36,
        "t_note_us": 49799812,
        "t_trigger_us": 49663849,
        "is_ai": true,
        "track_id": 0,
        "velocity": 0,
        "is_motor": true,
        "motor_id": 0,
        "accel_val": 2000,
        "base_duration_us": 148437
      },
      {
        "id": "M_309",
        "pitch": 100,
        "t_note_us": 49799812,
        "t_trigger_us": 49663849,
        "is_ai": true,
        "track_id": 12,
        "velocity": 0,
        "is_motor": false,
        "motor_id": 0,
        "accel_val": 2000,
        "base_duration_us": 298436
      },
      {
        "id": "M_308",
        "pitch": 45,
        "t_note_us": 49949811,
        "t_trigger_us": 49813848,
        "is_ai": true,
        "track_id": 0,
        "velocity": 0,
        "is_motor": true,
        "motor_id": 0,
        "accel_val": 2000,
        "base_duration_us": 148437
      },
      {
        "id": "M_310",
        "pitch": 48,
        "t_note_us": 50099810,
        "t_trigger_us": 49963847,
        "is_ai": true,
        "track_id": 0,
        "velocity": 0,
        "is_motor": true,
        "motor_id": 0,
        "accel_val": 2000,
        "base_duration_us": 148437
      },
      {
        "id": "M_312",
        "pitch": 101,
        "t_note_us": 50099810,
        "t_trigger_us": 49963847,
        "is_ai": true,
        "track_id": 13,
        "velocity": 0,
        "is_motor": false,
        "motor_id": 0,
        "accel_val": 2000,
        "base_duration_us": 298436
      },
      {
        "id": "M_311",
        "pitch": 45,
        "t_note_us": 50249809,
        "t_trigger_us": 50113846,
        "is_ai": true,
        "track_id": 0,
        "velocity": 0,
        "is_motor": true,
        "motor_id": 0,
        "accel_val": 2000,
        "base_duration_us": 148437
      },
      {
        "id": "M_313",
        "pitch": 29,
        "t_note_us": 50399808,
        "t_trigger_us": 50263845,
        "is_ai": true,
        "track_id": 0,
        "velocity": 0,
        "is_motor": true,
        "motor_id": 0,
        "accel_val": 2000,
        "base_duration_us": 148437
      },
      {
        "id": "M_317",
        "pitch": 103,
        "t_note_us": 50399808,
        "t_trigger_us": 50263845,
        "is_ai": true,
        "track_id": 14,
        "velocity": 0,
        "is_motor": false,
        "motor_id": 0,
        "accel_val": 2000,
        "base_duration_us": 598434
      },
      {
        "id": "M_318",
        "pitch": 96,
        "t_note_us": 50399808,
        "t_trigger_us": 50263845,
        "is_ai": true,
        "track_id": 10,
        "velocity": 0,
        "is_motor": false,
        "motor_id": 0,
        "accel_val": 2000,
        "base_duration_us": 598434
      },
      {
        "id": "M_319",
        "pitch": 91,
        "t_note_us": 50399808,
        "t_trigger_us": 50263845,
        "is_ai": true,
        "track_id": 0,
        "velocity": 0,
        "is_motor": true,
        "motor_id": 3,
        "accel_val": 2000,
        "base_duration_us": 598434
      },
      {
        "id": "M_314",
        "pitch": 41,
        "t_note_us": 50549807,
        "t_trigger_us": 50413844,
        "is_ai": true,
        "track_id": 0,
        "velocity": 0,
        "is_motor": true,
        "motor_id": 0,
        "accel_val": 2000,
        "base_duration_us": 148437
      },
      {
        "id": "M_315",
        "pitch": 45,
        "t_note_us": 50699806,
        "t_trigger_us": 50563843,
        "is_ai": true,
        "track_id": 0,
        "velocity": 0,
        "is_motor": true,
        "motor_id": 0,
        "accel_val": 2000,
        "base_duration_us": 148437
      },
      {
        "id": "M_316",
        "pitch": 48,
        "t_note_us": 50849805,
        "t_trigger_us": 50713842,
        "is_ai": true,
        "track_id": 0,
        "velocity": 0,
        "is_motor": true,
        "motor_id": 0,
        "accel_val": 2000,
        "base_duration_us": 148437
      },
      {
        "id": "M_320",
        "pitch": 45,
        "t_note_us": 50999804,
        "t_trigger_us": 50863841,
        "is_ai": true,
        "track_id": 0,
        "velocity": 0,
        "is_motor": true,
        "motor_id": 0,
        "accel_val": 2000,
        "base_duration_us": 148437
      },
      {
        "id": "M_325",
        "pitch": 55,
        "t_note_us": 50999804,
        "t_trigger_us": 50863841,
        "is_ai": true,
        "track_id": 0,
        "velocity": 0,
        "is_motor": true,
        "motor_id": 1,
        "accel_val": 2000,
        "base_duration_us": 598434
      },
      {
        "id": "M_324",
        "pitch": 103,
        "t_note_us": 50999804,
        "t_trigger_us": 50863841,
        "is_ai": true,
        "track_id": 14,
        "velocity": 0,
        "is_motor": false,
        "motor_id": 0,
        "accel_val": 2000,
        "base_duration_us": 598434
      },
      {
        "id": "M_321",
        "pitch": 52,
        "t_note_us": 51149803,
        "t_trigger_us": 51013840,
        "is_ai": true,
        "track_id": 0,
        "velocity": 0,
        "is_motor": true,
        "motor_id": 0,
        "accel_val": 2000,
        "base_duration_us": 148437
      },
      {
        "id": "M_322",
        "pitch": 48,
        "t_note_us": 51299802,
        "t_trigger_us": 51163839,
        "is_ai": true,
        "track_id": 0,
        "velocity": 0,
        "is_motor": true,
        "motor_id": 0,
        "accel_val": 2000,
        "base_duration_us": 148437
      },
      {
        "id": "M_323",
        "pitch": 45,
        "t_note_us": 51449801,
        "t_trigger_us": 51313838,
        "is_ai": true,
        "track_id": 0,
        "velocity": 0,
        "is_motor": true,
        "motor_id": 0,
        "accel_val": 2000,
        "base_duration_us": 148437
      },
      {
        "id": "M_326",
        "pitch": 29,
        "t_note_us": 51599800,
        "t_trigger_us": 51463837,
        "is_ai": true,
        "track_id": 0,
        "velocity": 0,
        "is_motor": true,
        "motor_id": 0,
        "accel_val": 2000,
        "base_duration_us": 148437
      },
      {
        "id": "M_331",
        "pitch": 52,
        "t_note_us": 51599800,
        "t_trigger_us": 51463837,
        "is_ai": true,
        "track_id": 0,
        "velocity": 0,
        "is_motor": true,
        "motor_id": 1,
        "accel_val": 2000,
        "base_duration_us": 598434
      },
      {
        "id": "M_330",
        "pitch": 100,
        "t_note_us": 51599800,
        "t_trigger_us": 51463837,
        "is_ai": true,
        "track_id": 12,
        "velocity": 0,
        "is_motor": false,
        "motor_id": 0,
        "accel_val": 2000,
        "base_duration_us": 598434
      },
      {
        "id": "M_327",
        "pitch": 41,
        "t_note_us": 51749799,
        "t_trigger_us": 51613836,
        "is_ai": true,
        "track_id": 0,
        "velocity": 0,
        "is_motor": true,
        "motor_id": 0,
        "accel_val": 2000,
        "base_duration_us": 148437
      },
      {
        "id": "M_328",
        "pitch": 45,
        "t_note_us": 51899798,
        "t_trigger_us": 51763835,
        "is_ai": true,
        "track_id": 0,
        "velocity": 0,
        "is_motor": true,
        "motor_id": 0,
        "accel_val": 2000,
        "base_duration_us": 148437
      },
      {
        "id": "M_329",
        "pitch": 41,
        "t_note_us": 52049797,
        "t_trigger_us": 51913834,
        "is_ai": true,
        "track_id": 0,
        "velocity": 0,
        "is_motor": true,
        "motor_id": 0,
        "accel_val": 2000,
        "base_duration_us": 148437
      },
      {
        "id": "M_332",
        "pitch": 29,
        "t_note_us": 52199796,
        "t_trigger_us": 52063833,
        "is_ai": true,
        "track_id": 0,
        "velocity": 0,
        "is_motor": true,
        "motor_id": 0,
        "accel_val": 2000,
        "base_duration_us": 148437
      },
      {
        "id": "M_335",
        "pitch": 52,
        "t_note_us": 52199796,
        "t_trigger_us": 52063833,
        "is_ai": true,
        "track_id": 0,
        "velocity": 0,
        "is_motor": true,
        "motor_id": 1,
        "accel_val": 2000,
        "base_duration_us": 298436
      },
      {
        "id": "M_334",
        "pitch": 100,
        "t_note_us": 52199796,
        "t_trigger_us": 52063833,
        "is_ai": true,
        "track_id": 12,
        "velocity": 0,
        "is_motor": false,
        "motor_id": 0,
        "accel_val": 2000,
        "base_duration_us": 298436
      },
      {
        "id": "M_333",
        "pitch": 41,
        "t_note_us": 52349795,
        "t_trigger_us": 52213832,
        "is_ai": true,
        "track_id": 0,
        "velocity": 0,
        "is_motor": true,
        "motor_id": 0,
        "accel_val": 2000,
        "base_duration_us": 148437
      },
      {
        "id": "M_336",
        "pitch": 47,
        "t_note_us": 52499794,
        "t_trigger_us": 52363831,
        "is_ai": true,
        "track_id": 0,
        "velocity": 0,
        "is_motor": true,
        "motor_id": 0,
        "accel_val": 2000,
        "base_duration_us": 148437
      },
      {
        "id": "M_339",
        "pitch": 53,
        "t_note_us": 52499794,
        "t_trigger_us": 52363831,
        "is_ai": true,
        "track_id": 0,
        "velocity": 0,
        "is_motor": true,
        "motor_id": 1,
        "accel_val": 2000,
        "base_duration_us": 298436
      },
      {
        "id": "M_338",
        "pitch": 101,
        "t_note_us": 52499794,
        "t_trigger_us": 52363831,
        "is_ai": true,
        "track_id": 13,
        "velocity": 0,
        "is_motor": false,
        "motor_id": 0,
        "accel_val": 2000,
        "base_duration_us": 298436
      },
      {
        "id": "M_337",
        "pitch": 41,
        "t_note_us": 52649793,
        "t_trigger_us": 52513830,
        "is_ai": true,
        "track_id": 0,
        "velocity": 0,
        "is_motor": true,
        "motor_id": 0,
        "accel_val": 2000,
        "base_duration_us": 148437
      },
      {
        "id": "M_340",
        "pitch": 31,
        "t_note_us": 52799792,
        "t_trigger_us": 52663829,
        "is_ai": true,
        "track_id": 0,
        "velocity": 0,
        "is_motor": true,
        "motor_id": 0,
        "accel_val": 2000,
        "base_duration_us": 148437
      },
      {
        "id": "M_342",
        "pitch": 103,
        "t_note_us": 52799792,
        "t_trigger_us": 52663829,
        "is_ai": true,
        "track_id": 14,
        "velocity": 0,
        "is_motor": false,
        "motor_id": 0,
        "accel_val": 2000,
        "base_duration_us": 298436
      },
      {
        "id": "M_343",
        "pitch": 91,
        "t_note_us": 52799792,
        "t_trigger_us": 52663829,
        "is_ai": true,
        "track_id": 0,
        "velocity": 0,
        "is_motor": true,
        "motor_id": 3,
        "accel_val": 2000,
        "base_duration_us": 298436
      },
      {
        "id": "M_341",
        "pitch": 43,
        "t_note_us": 52949791,
        "t_trigger_us": 52813828,
        "is_ai": true,
        "track_id": 0,
        "velocity": 0,
        "is_motor": true,
        "motor_id": 0,
        "accel_val": 2000,
        "base_duration_us": 148437
      },
      {
        "id": "M_344",
        "pitch": 47,
        "t_note_us": 53099790,
        "t_trigger_us": 52963827,
        "is_ai": true,
        "track_id": 0,
        "velocity": 0,
        "is_motor": true,
        "motor_id": 0,
        "accel_val": 2000,
        "base_duration_us": 148437
      },
      {
        "id": "M_346",
        "pitch": 103,
        "t_note_us": 53099790,
        "t_trigger_us": 52963827,
        "is_ai": true,
        "track_id": 14,
        "velocity": 0,
        "is_motor": false,
        "motor_id": 0,
        "accel_val": 2000,
        "base_duration_us": 298436
      },
      {
        "id": "M_347",
        "pitch": 91,
        "t_note_us": 53099790,
        "t_trigger_us": 52963827,
        "is_ai": true,
        "track_id": 0,
        "velocity": 0,
        "is_motor": true,
        "motor_id": 3,
        "accel_val": 2000,
        "base_duration_us": 298436
      },
      {
        "id": "M_345",
        "pitch": 50,
        "t_note_us": 53249789,
        "t_trigger_us": 53113826,
        "is_ai": true,
        "track_id": 0,
        "velocity": 0,
        "is_motor": true,
        "motor_id": 0,
        "accel_val": 2000,
        "base_duration_us": 148437
      },
      {
        "id": "M_348",
        "pitch": 47,
        "t_note_us": 53399788,
        "t_trigger_us": 53263825,
        "is_ai": true,
        "track_id": 0,
        "velocity": 0,
        "is_motor": true,
        "motor_id": 0,
        "accel_val": 2000,
        "base_duration_us": 148437
      },
      {
        "id": "M_350",
        "pitch": 103,
        "t_note_us": 53399788,
        "t_trigger_us": 53263825,
        "is_ai": true,
        "track_id": 14,
        "velocity": 0,
        "is_motor": false,
        "motor_id": 0,
        "accel_val": 2000,
        "base_duration_us": 298436
      },
      {
        "id": "M_349",
        "pitch": 55,
        "t_note_us": 53549787,
        "t_trigger_us": 53413824,
        "is_ai": true,
        "track_id": 0,
        "velocity": 0,
        "is_motor": true,
        "motor_id": 0,
        "accel_val": 2000,
        "base_duration_us": 148437
      },
      {
        "id": "M_351",
        "pitch": 50,
        "t_note_us": 53699786,
        "t_trigger_us": 53563823,
        "is_ai": true,
        "track_id": 0,
        "velocity": 0,
        "is_motor": true,
        "motor_id": 0,
        "accel_val": 2000,
        "base_duration_us": 148437
      },
      {
        "id": "M_355",
        "pitch": 98,
        "t_note_us": 53699786,
        "t_trigger_us": 53563823,
        "is_ai": true,
        "track_id": 11,
        "velocity": 0,
        "is_motor": false,
        "motor_id": 0,
        "accel_val": 2000,
        "base_duration_us": 598434
      },
      {
        "id": "M_352",
        "pitch": 47,
        "t_note_us": 53849785,
        "t_trigger_us": 53713822,
        "is_ai": true,
        "track_id": 0,
        "velocity": 0,
        "is_motor": true,
        "motor_id": 0,
        "accel_val": 2000,
        "base_duration_us": 148437
      },
      {
        "id": "M_353",
        "pitch": 31,
        "t_note_us": 53999784,
        "t_trigger_us": 53863821,
        "is_ai": true,
        "track_id": 0,
        "velocity": 0,
        "is_motor": true,
        "motor_id": 0,
        "accel_val": 2000,
        "base_duration_us": 148437
      },
      {
        "id": "M_354",
        "pitch": 41,
        "t_note_us": 54149783,
        "t_trigger_us": 54013820,
        "is_ai": true,
        "track_id": 0,
        "velocity": 0,
        "is_motor": true,
        "motor_id": 0,
        "accel_val": 2000,
        "base_duration_us": 148437
      },
      {
        "id": "M_356",
        "pitch": 47,
        "t_note_us": 54299782,
        "t_trigger_us": 54163819,
        "is_ai": true,
        "track_id": 0,
        "velocity": 0,
        "is_motor": true,
        "motor_id": 0,
        "accel_val": 2000,
        "base_duration_us": 148437
      },
      {
        "id": "M_358",
        "pitch": 96,
        "t_note_us": 54299782,
        "t_trigger_us": 54163819,
        "is_ai": true,
        "track_id": 10,
        "velocity": 0,
        "is_motor": false,
        "motor_id": 0,
        "accel_val": 2000,
        "base_duration_us": 298436
      },
      {
        "id": "M_357",
        "pitch": 41,
        "t_note_us": 54449781,
        "t_trigger_us": 54313818,
        "is_ai": true,
        "track_id": 0,
        "velocity": 0,
        "is_motor": true,
        "motor_id": 0,
        "accel_val": 2000,
        "base_duration_us": 148437
      },
      {
        "id": "M_359",
        "pitch": 35,
        "t_note_us": 54599780,
        "t_trigger_us": 54463817,
        "is_ai": true,
        "track_id": 0,
        "velocity": 0,
        "is_motor": true,
        "motor_id": 0,
        "accel_val": 2000,
        "base_duration_us": 148437
      },
      {
        "id": "M_362",
        "pitch": 48,
        "t_note_us": 54599780,
        "t_trigger_us": 54463817,
        "is_ai": true,
        "track_id": 0,
        "velocity": 0,
        "is_motor": true,
        "motor_id": 1,
        "accel_val": 2000,
        "base_duration_us": 298436
      },
      {
        "id": "M_361",
        "pitch": 96,
        "t_note_us": 54599780,
        "t_trigger_us": 54463817,
        "is_ai": true,
        "track_id": 10,
        "velocity": 0,
        "is_motor": false,
        "motor_id": 0,
        "accel_val": 2000,
        "base_duration_us": 298436
      },
      {
        "id": "M_360",
        "pitch": 41,
        "t_note_us": 54749779,
        "t_trigger_us": 54613816,
        "is_ai": true,
        "track_id": 0,
        "velocity": 0,
        "is_motor": true,
        "motor_id": 0,
        "accel_val": 2000,
        "base_duration_us": 148437
      },
      {
        "id": "M_363",
        "pitch": 47,
        "t_note_us": 54899778,
        "t_trigger_us": 54763815,
        "is_ai": true,
        "track_id": 0,
        "velocity": 0,
        "is_motor": true,
        "motor_id": 0,
        "accel_val": 2000,
        "base_duration_us": 148437
      },
      {
        "id": "M_365",
        "pitch": 95,
        "t_note_us": 54899778,
        "t_trigger_us": 54763815,
        "is_ai": true,
        "track_id": 9,
        "velocity": 0,
        "is_motor": false,
        "motor_id": 0,
        "accel_val": 2000,
        "base_duration_us": 298436
      },
      {
        "id": "M_364",
        "pitch": 41,
        "t_note_us": 55049777,
        "t_trigger_us": 54913814,
        "is_ai": true,
        "track_id": 0,
        "velocity": 0,
        "is_motor": true,
        "motor_id": 0,
        "accel_val": 2000,
        "base_duration_us": 148437
      },
      {
        "id": "M_366",
        "pitch": 36,
        "t_note_us": 55199776,
        "t_trigger_us": 55063813,
        "is_ai": true,
        "track_id": 0,
        "velocity": 0,
        "is_motor": true,
        "motor_id": 0,
        "accel_val": 2000,
        "base_duration_us": 148437
      },
      {
        "id": "M_371",
        "pitch": 50,
        "t_note_us": 55199776,
        "t_trigger_us": 55063813,
        "is_ai": true,
        "track_id": 0,
        "velocity": 0,
        "is_motor": true,
        "motor_id": 1,
        "accel_val": 2000,
        "base_duration_us": 598434
      },
      {
        "id": "M_370",
        "pitch": 98,
        "t_note_us": 55199776,
        "t_trigger_us": 55063813,
        "is_ai": true,
        "track_id": 11,
        "velocity": 0,
        "is_motor": false,
        "motor_id": 0,
        "accel_val": 2000,
        "base_duration_us": 598434
      },
      {
        "id": "M_367",
        "pitch": 43,
        "t_note_us": 55349775,
        "t_trigger_us": 55213812,
        "is_ai": true,
        "track_id": 0,
        "velocity": 0,
        "is_motor": true,
        "motor_id": 0,
        "accel_val": 2000,
        "base_duration_us": 148437
      },
      {
        "id": "M_368",
        "pitch": 48,
        "t_note_us": 55499774,
        "t_trigger_us": 55363811,
        "is_ai": true,
        "track_id": 0,
        "velocity": 0,
        "is_motor": true,
        "motor_id": 0,
        "accel_val": 2000,
        "base_duration_us": 148437
      },
      {
        "id": "M_369",
        "pitch": 43,
        "t_note_us": 55649773,
        "t_trigger_us": 55513810,
        "is_ai": true,
        "track_id": 0,
        "velocity": 0,
        "is_motor": true,
        "motor_id": 0,
        "accel_val": 2000,
        "base_duration_us": 148437
      },
      {
        "id": "M_372",
        "pitch": 52,
        "t_note_us": 55799772,
        "t_trigger_us": 55663809,
        "is_ai": true,
        "track_id": 0,
        "velocity": 0,
        "is_motor": true,
        "motor_id": 0,
        "accel_val": 2000,
        "base_duration_us": 148437
      },
      {
        "id": "M_374",
        "pitch": 98,
        "t_note_us": 55799772,
        "t_trigger_us": 55663809,
        "is_ai": true,
        "track_id": 11,
        "velocity": 0,
        "is_motor": false,
        "motor_id": 0,
        "accel_val": 2000,
        "base_duration_us": 298436
      },
      {
        "id": "M_373",
        "pitch": 48,
        "t_note_us": 55949771,
        "t_trigger_us": 55813808,
        "is_ai": true,
        "track_id": 0,
        "velocity": 0,
        "is_motor": true,
        "motor_id": 0,
        "accel_val": 2000,
        "base_duration_us": 148437
      },
      {
        "id": "M_375",
        "pitch": 43,
        "t_note_us": 56099770,
        "t_trigger_us": 55963807,
        "is_ai": true,
        "track_id": 0,
        "velocity": 0,
        "is_motor": true,
        "motor_id": 0,
        "accel_val": 2000,
        "base_duration_us": 148437
      },
      {
        "id": "M_377",
        "pitch": 100,
        "t_note_us": 56099770,
        "t_trigger_us": 55963807,
        "is_ai": true,
        "track_id": 12,
        "velocity": 0,
        "is_motor": false,
        "motor_id": 0,
        "accel_val": 2000,
        "base_duration_us": 298436
      },
      {
        "id": "M_376",
        "pitch": 40,
        "t_note_us": 56249769,
        "t_trigger_us": 56113806,
        "is_ai": true,
        "track_id": 0,
        "velocity": 0,
        "is_motor": true,
        "motor_id": 0,
        "accel_val": 2000,
        "base_duration_us": 148437
      },
      {
        "id": "M_378",
        "pitch": 36,
        "t_note_us": 56399768,
        "t_trigger_us": 56263805,
        "is_ai": true,
        "track_id": 0,
        "velocity": 0,
        "is_motor": true,
        "motor_id": 0,
        "accel_val": 2000,
        "base_duration_us": 148437
      },
      {
        "id": "M_384",
        "pitch": 50,
        "t_note_us": 56399768,
        "t_trigger_us": 56263805,
        "is_ai": true,
        "track_id": 0,
        "velocity": 0,
        "is_motor": true,
        "motor_id": 1,
        "accel_val": 2000,
        "base_duration_us": 898432
      },
      {
        "id": "M_383",
        "pitch": 98,
        "t_note_us": 56399768,
        "t_trigger_us": 56263805,
        "is_ai": true,
        "track_id": 11,
        "velocity": 0,
        "is_motor": false,
        "motor_id": 0,
        "accel_val": 2000,
        "base_duration_us": 898432
      },
      {
        "id": "M_379",
        "pitch": 48,
        "t_note_us": 56549767,
        "t_trigger_us": 56413804,
        "is_ai": true,
        "track_id": 0,
        "velocity": 0,
        "is_motor": true,
        "motor_id": 0,
        "accel_val": 2000,
        "base_duration_us": 148437
      },
      {
        "id": "M_380",
        "pitch": 52,
        "t_note_us": 56699766,
        "t_trigger_us": 56563803,
        "is_ai": true,
        "track_id": 0,
        "velocity": 0,
        "is_motor": true,
        "motor_id": 0,
        "accel_val": 2000,
        "base_duration_us": 148437
      },
      {
        "id": "M_381",
        "pitch": 48,
        "t_note_us": 56849765,
        "t_trigger_us": 56713802,
        "is_ai": true,
        "track_id": 0,
        "velocity": 0,
        "is_motor": true,
        "motor_id": 0,
        "accel_val": 2000,
        "base_duration_us": 148437
      },
      {
        "id": "M_382",
        "pitch": 36,
        "t_note_us": 56999764,
        "t_trigger_us": 56863801,
        "is_ai": true,
        "track_id": 0,
        "velocity": 0,
        "is_motor": true,
        "motor_id": 0,
        "accel_val": 2000,
        "base_duration_us": 148437
      },
      {
        "id": "M_385",
        "pitch": 48,
        "t_note_us": 57149763,
        "t_trigger_us": 57013800,
        "is_ai": true,
        "track_id": 0,
        "velocity": 0,
        "is_motor": true,
        "motor_id": 0,
        "accel_val": 2000,
        "base_duration_us": 148437
      },
      {
        "id": "M_386",
        "pitch": 35,
        "t_note_us": 57299762,
        "t_trigger_us": 57163799,
        "is_ai": true,
        "track_id": 0,
        "velocity": 0,
        "is_motor": true,
        "motor_id": 0,
        "accel_val": 2000,
        "base_duration_us": 148437
      },
      {
        "id": "M_390",
        "pitch": 98,
        "t_note_us": 57299762,
        "t_trigger_us": 57163799,
        "is_ai": true,
        "track_id": 11,
        "velocity": 0,
        "is_motor": false,
        "motor_id": 0,
        "accel_val": 2000,
        "base_duration_us": 598434
      },
      {
        "id": "M_387",
        "pitch": 47,
        "t_note_us": 57449761,
        "t_trigger_us": 57313798,
        "is_ai": true,
        "track_id": 0,
        "velocity": 0,
        "is_motor": true,
        "motor_id": 0,
        "accel_val": 2000,
        "base_duration_us": 148437
      },
      {
        "id": "M_388",
        "pitch": 33,
        "t_note_us": 57599760,
        "t_trigger_us": 57463797,
        "is_ai": true,
        "track_id": 0,
        "velocity": 0,
        "is_motor": true,
        "motor_id": 0,
        "accel_val": 2000,
        "base_duration_us": 148437
      },
      {
        "id": "M_389",
        "pitch": 40,
        "t_note_us": 57749759,
        "t_trigger_us": 57613796,
        "is_ai": true,
        "track_id": 0,
        "velocity": 0,
        "is_motor": true,
        "motor_id": 0,
        "accel_val": 2000,
        "base_duration_us": 148437
      },
      {
        "id": "M_391",
        "pitch": 45,
        "t_note_us": 57899758,
        "t_trigger_us": 57763795,
        "is_ai": true,
        "track_id": 0,
        "velocity": 0,
        "is_motor": true,
        "motor_id": 0,
        "accel_val": 2000,
        "base_duration_us": 148437
      },
      {
        "id": "M_393",
        "pitch": 98,
        "t_note_us": 57899758,
        "t_trigger_us": 57763795,
        "is_ai": true,
        "track_id": 11,
        "velocity": 0,
        "is_motor": false,
        "motor_id": 0,
        "accel_val": 2000,
        "base_duration_us": 298436
      },
      {
        "id": "M_392",
        "pitch": 40,
        "t_note_us": 58049757,
        "t_trigger_us": 57913794,
        "is_ai": true,
        "track_id": 0,
        "velocity": 0,
        "is_motor": true,
        "motor_id": 0,
        "accel_val": 2000,
        "base_duration_us": 148437
      },
      {
        "id": "M_394",
        "pitch": 48,
        "t_note_us": 58199756,
        "t_trigger_us": 58063793,
        "is_ai": true,
        "track_id": 0,
        "velocity": 0,
        "is_motor": true,
        "motor_id": 0,
        "accel_val": 2000,
        "base_duration_us": 148437
      },
      {
        "id": "M_396",
        "pitch": 98,
        "t_note_us": 58199756,
        "t_trigger_us": 58063793,
        "is_ai": true,
        "track_id": 11,
        "velocity": 0,
        "is_motor": false,
        "motor_id": 0,
        "accel_val": 2000,
        "base_duration_us": 298436
      },
      {
        "id": "M_395",
        "pitch": 45,
        "t_note_us": 58349755,
        "t_trigger_us": 58213792,
        "is_ai": true,
        "track_id": 0,
        "velocity": 0,
        "is_motor": true,
        "motor_id": 0,
        "accel_val": 2000,
        "base_duration_us": 148437
      },
      {
        "id": "M_397",
        "pitch": 40,
        "t_note_us": 58499754,
        "t_trigger_us": 58363791,
        "is_ai": true,
        "track_id": 0,
        "velocity": 0,
        "is_motor": true,
        "motor_id": 0,
        "accel_val": 2000,
        "base_duration_us": 148437
      },
      {
        "id": "M_399",
        "pitch": 96,
        "t_note_us": 58499754,
        "t_trigger_us": 58363791,
        "is_ai": true,
        "track_id": 10,
        "velocity": 0,
        "is_motor": false,
        "motor_id": 0,
        "accel_val": 2000,
        "base_duration_us": 298436
      },
      {
        "id": "M_398",
        "pitch": 36,
        "t_note_us": 58649753,
        "t_trigger_us": 58513790,
        "is_ai": true,
        "track_id": 0,
        "velocity": 0,
        "is_motor": true,
        "motor_id": 0,
        "accel_val": 2000,
        "base_duration_us": 148437
      },
      {
        "id": "M_400",
        "pitch": 33,
        "t_note_us": 58799752,
        "t_trigger_us": 58663789,
        "is_ai": true,
        "track_id": 0,
        "velocity": 0,
        "is_motor": true,
        "motor_id": 0,
        "accel_val": 2000,
        "base_duration_us": 298437
      },
      {
        "id": "M_405",
        "pitch": 52,
        "t_note_us": 58799752,
        "t_trigger_us": 58663789,
        "is_ai": true,
        "track_id": 0,
        "velocity": 0,
        "is_motor": true,
        "motor_id": 1,
        "accel_val": 2000,
        "base_duration_us": 598435
      },
      {
        "id": "M_403",
        "pitch": 96,
        "t_note_us": 58799752,
        "t_trigger_us": 58663789,
        "is_ai": true,
        "track_id": 10,
        "velocity": 0,
        "is_motor": false,
        "motor_id": 0,
        "accel_val": 2000,
        "base_duration_us": 598435
      },
      {
        "id": "M_404",
        "pitch": 95,
        "t_note_us": 58799752,
        "t_trigger_us": 58663789,
        "is_ai": true,
        "track_id": 0,
        "velocity": 0,
        "is_motor": true,
        "motor_id": 3,
        "accel_val": 2000,
        "base_duration_us": 598435
      },
      {
        "id": "M_401",
        "pitch": 48,
        "t_note_us": 59099751,
        "t_trigger_us": 58963788,
        "is_ai": true,
        "track_id": 0,
        "velocity": 0,
        "is_motor": true,
        "motor_id": 0,
        "accel_val": 2000,
        "base_duration_us": 148437
      },
      {
        "id": "M_402",
        "pitch": 45,
        "t_note_us": 59249750,
        "t_trigger_us": 59113787,
        "is_ai": true,
        "track_id": 0,
        "velocity": 0,
        "is_motor": true,
        "motor_id": 0,
        "accel_val": 2000,
        "base_duration_us": 148437
      },
      {
        "id": "M_406",
        "pitch": 36,
        "t_note_us": 59399749,
        "t_trigger_us": 59263786,
        "is_ai": true,
        "track_id": 0,
        "velocity": 0,
        "is_motor": true,
        "motor_id": 0,
        "accel_val": 2000,
        "base_duration_us": 298437
      },
      {
        "id": "M_407",
        "pitch": 100,
        "t_note_us": 59399749,
        "t_trigger_us": 59263786,
        "is_ai": true,
        "track_id": 12,
        "velocity": 0,
        "is_motor": false,
        "motor_id": 0,
        "accel_val": 2000,
        "base_duration_us": 298437
      },
      {
        "id": "M_408",
        "pitch": 48,
        "t_note_us": 59699748,
        "t_trigger_us": 59563785,
        "is_ai": true,
        "track_id": 0,
        "velocity": 0,
        "is_motor": true,
        "motor_id": 0,
        "accel_val": 2000,
        "base_duration_us": 298437
      },
      {
        "id": "M_409",
        "pitch": 101,
        "t_note_us": 59699748,
        "t_trigger_us": 59563785,
        "is_ai": true,
        "track_id": 13,
        "velocity": 0,
        "is_motor": false,
        "motor_id": 0,
        "accel_val": 2000,
        "base_duration_us": 298437
      },
      {
        "id": "M_410",
        "pitch": 41,
        "t_note_us": 59999747,
        "t_trigger_us": 59863784,
        "is_ai": true,
        "track_id": 0,
        "velocity": 0,
        "is_motor": true,
        "motor_id": 0,
        "accel_val": 2000,
        "base_duration_us": 298437
      },
      {
        "id": "M_413",
        "pitch": 103,
        "t_note_us": 59999747,
        "t_trigger_us": 59863784,
        "is_ai": true,
        "track_id": 14,
        "velocity": 0,
        "is_motor": false,
        "motor_id": 0,
        "accel_val": 2000,
        "base_duration_us": 1798434
      },
      {
        "id": "M_411",
        "pitch": 45,
        "t_note_us": 60299746,
        "t_trigger_us": 60163783,
        "is_ai": true,
        "track_id": 0,
        "velocity": 0,
        "is_motor": true,
        "motor_id": 0,
        "accel_val": 2000,
        "base_duration_us": 298437
      },
      {
        "id": "M_412",
        "pitch": 48,
        "t_note_us": 60599745,
        "t_trigger_us": 60463782,
        "is_ai": true,
        "track_id": 0,
        "velocity": 0,
        "is_motor": true,
        "motor_id": 0,
        "accel_val": 2000,
        "base_duration_us": 298437
      },
      {
        "id": "M_414",
        "pitch": 52,
        "t_note_us": 60899744,
        "t_trigger_us": 60763781,
        "is_ai": true,
        "track_id": 0,
        "velocity": 0,
        "is_motor": true,
        "motor_id": 0,
        "accel_val": 2000,
        "base_duration_us": 1498436
      },
      {
        "id": "M_415",
        "pitch": 100,
        "t_note_us": 61799743,
        "t_trigger_us": 61663780,
        "is_ai": true,
        "track_id": 12,
        "velocity": 0,
        "is_motor": false,
        "motor_id": 0,
        "accel_val": 2000,
        "base_duration_us": 598437
      },
      {
        "id": "M_416",
        "pitch": 41,
        "t_note_us": 62399742,
        "t_trigger_us": 62263779,
        "is_ai": true,
        "track_id": 0,
        "velocity": 0,
        "is_motor": true,
        "motor_id": 0,
        "accel_val": 2000,
        "base_duration_us": 298437
      },
      {
        "id": "M_419",
        "pitch": 98,
        "t_note_us": 62399742,
        "t_trigger_us": 62263779,
        "is_ai": true,
        "track_id": 11,
        "velocity": 0,
        "is_motor": false,
        "motor_id": 0,
        "accel_val": 2000,
        "base_duration_us": 1798434
      },
      {
        "id": "M_417",
        "pitch": 43,
        "t_note_us": 62699741,
        "t_trigger_us": 62563778,
        "is_ai": true,
        "track_id": 0,
        "velocity": 0,
        "is_motor": true,
        "motor_id": 0,
        "accel_val": 2000,
        "base_duration_us": 298437
      },
      {
        "id": "M_418",
        "pitch": 47,
        "t_note_us": 62999740,
        "t_trigger_us": 62863777,
        "is_ai": true,
        "track_id": 0,
        "velocity": 0,
        "is_motor": true,
        "motor_id": 0,
        "accel_val": 2000,
        "base_duration_us": 298437
      },
      {
        "id": "M_421",
        "pitch": 50,
        "t_note_us": 63299739,
        "t_trigger_us": 63163776,
        "is_ai": true,
        "track_id": 0,
        "velocity": 0,
        "is_motor": true,
        "motor_id": 0,
        "accel_val": 2000,
        "base_duration_us": 1498435
      },
      {
        "id": "M_420",
        "pitch": 100,
        "t_note_us": 64199738,
        "t_trigger_us": 64063775,
        "is_ai": true,
        "track_id": 12,
        "velocity": 0,
        "is_motor": false,
        "motor_id": 0,
        "accel_val": 2000,
        "base_duration_us": 298437
      },
      {
        "id": "M_422",
        "pitch": 100,
        "t_note_us": 64499737,
        "t_trigger_us": 64363774,
        "is_ai": true,
        "track_id": 12,
        "velocity": 0,
        "is_motor": false,
        "motor_id": 0,
        "accel_val": 2000,
        "base_duration_us": 298437
      },
      {
        "id": "M_423",
        "pitch": 40,
        "t_note_us": 64799736,
        "t_trigger_us": 64663773,
        "is_ai": true,
        "track_id": 0,
        "velocity": 0,
        "is_motor": true,
        "motor_id": 0,
        "accel_val": 2000,
        "base_duration_us": 298437
      },
      {
        "id": "M_426",
        "pitch": 98,
        "t_note_us": 64799736,
        "t_trigger_us": 64663773,
        "is_ai": true,
        "track_id": 11,
        "velocity": 0,
        "is_motor": false,
        "motor_id": 0,
        "accel_val": 2000,
        "base_duration_us": 1498434
      },
      {
        "id": "M_424",
        "pitch": 43,
        "t_note_us": 65099735,
        "t_trigger_us": 64963772,
        "is_ai": true,
        "track_id": 0,
        "velocity": 0,
        "is_motor": true,
        "motor_id": 0,
        "accel_val": 2000,
        "base_duration_us": 298437
      },
      {
        "id": "M_425",
        "pitch": 47,
        "t_note_us": 65399734,
        "t_trigger_us": 65263771,
        "is_ai": true,
        "track_id": 0,
        "velocity": 0,
        "is_motor": true,
        "motor_id": 0,
        "accel_val": 2000,
        "base_duration_us": 298437
      },
      {
        "id": "M_429",
        "pitch": 50,
        "t_note_us": 65699733,
        "t_trigger_us": 65563770,
        "is_ai": true,
        "track_id": 0,
        "velocity": 0,
        "is_motor": true,
        "motor_id": 0,
        "accel_val": 2000,
        "base_duration_us": 1498434
      },
      {
        "id": "M_427",
        "pitch": 96,
        "t_note_us": 66299732,
        "t_trigger_us": 66163769,
        "is_ai": true,
        "track_id": 10,
        "velocity": 0,
        "is_motor": false,
        "motor_id": 0,
        "accel_val": 2000,
        "base_duration_us": 298437
      },
      {
        "id": "M_428",
        "pitch": 96,
        "t_note_us": 66599731,
        "t_trigger_us": 66463768,
        "is_ai": true,
        "track_id": 10,
        "velocity": 0,
        "is_motor": false,
        "motor_id": 0,
        "accel_val": 2000,
        "base_duration_us": 298437
      },
      {
        "id": "M_430",
        "pitch": 96,
        "t_note_us": 66899730,
        "t_trigger_us": 66763767,
        "is_ai": true,
        "track_id": 10,
        "velocity": 0,
        "is_motor": false,
        "motor_id": 0,
        "accel_val": 2000,
        "base_duration_us": 298437
      },
      {
        "id": "M_431",
        "pitch": 33,
        "t_note_us": 67199729,
        "t_trigger_us": 67063766,
        "is_ai": true,
        "track_id": 0,
        "velocity": 0,
        "is_motor": true,
        "motor_id": 0,
        "accel_val": 2000,
        "base_duration_us": 298437
      },
      {
        "id": "M_434",
        "pitch": 95,
        "t_note_us": 67199729,
        "t_trigger_us": 67063766,
        "is_ai": true,
        "track_id": 9,
        "velocity": 0,
        "is_motor": false,
        "motor_id": 0,
        "accel_val": 2000,
        "base_duration_us": 1798434
      },
      {
        "id": "M_432",
        "pitch": 40,
        "t_note_us": 67499728,
        "t_trigger_us": 67363765,
        "is_ai": true,
        "track_id": 0,
        "velocity": 0,
        "is_motor": true,
        "motor_id": 0,
        "accel_val": 2000,
        "base_duration_us": 298437
      },
      {
        "id": "M_433",
        "pitch": 45,
        "t_note_us": 67799727,
        "t_trigger_us": 67663764,
        "is_ai": true,
        "track_id": 0,
        "velocity": 0,
        "is_motor": true,
        "motor_id": 0,
        "accel_val": 2000,
        "base_duration_us": 298437
      },
      {
        "id": "M_436",
        "pitch": 48,
        "t_note_us": 68099726,
        "t_trigger_us": 67963763,
        "is_ai": true,
        "track_id": 0,
        "velocity": 0,
        "is_motor": true,
        "motor_id": 0,
        "accel_val": 2000,
        "base_duration_us": 1498435
      },
      {
        "id": "M_435",
        "pitch": 100,
        "t_note_us": 68999725,
        "t_trigger_us": 68863762,
        "is_ai": true,
        "track_id": 12,
        "velocity": 0,
        "is_motor": false,
        "motor_id": 0,
        "accel_val": 2000,
        "base_duration_us": 298437
      },
      {
        "id": "M_437",
        "pitch": 101,
        "t_note_us": 69299724,
        "t_trigger_us": 69163761,
        "is_ai": true,
        "track_id": 13,
        "velocity": 0,
        "is_motor": false,
        "motor_id": 0,
        "accel_val": 2000,
        "base_duration_us": 298437
      },
      {
        "id": "M_438",
        "pitch": 29,
        "t_note_us": 69599723,
        "t_trigger_us": 69463760,
        "is_ai": true,
        "track_id": 0,
        "velocity": 0,
        "is_motor": true,
        "motor_id": 0,
        "accel_val": 2000,
        "base_duration_us": 298437
      },
      {
        "id": "M_441",
        "pitch": 103,
        "t_note_us": 69599723,
        "t_trigger_us": 69463760,
        "is_ai": true,
        "track_id": 14,
        "velocity": 0,
        "is_motor": false,
        "motor_id": 0,
        "accel_val": 2000,
        "base_duration_us": 1798434
      },
      {
        "id": "M_439",
        "pitch": 33,
        "t_note_us": 69899722,
        "t_trigger_us": 69763759,
        "is_ai": true,
        "track_id": 0,
        "velocity": 0,
        "is_motor": true,
        "motor_id": 0,
        "accel_val": 2000,
        "base_duration_us": 298437
      },
      {
        "id": "M_440",
        "pitch": 36,
        "t_note_us": 70199721,
        "t_trigger_us": 70063758,
        "is_ai": true,
        "track_id": 0,
        "velocity": 0,
        "is_motor": true,
        "motor_id": 0,
        "accel_val": 2000,
        "base_duration_us": 298437
      },
      {
        "id": "M_443",
        "pitch": 40,
        "t_note_us": 70499720,
        "t_trigger_us": 70363757,
        "is_ai": true,
        "track_id": 0,
        "velocity": 0,
        "is_motor": true,
        "motor_id": 0,
        "accel_val": 2000,
        "base_duration_us": 1498435
      },
      {
        "id": "M_442",
        "pitch": 93,
        "t_note_us": 71399719,
        "t_trigger_us": 71263756,
        "is_ai": true,
        "track_id": 8,
        "velocity": 0,
        "is_motor": false,
        "motor_id": 0,
        "accel_val": 2000,
        "base_duration_us": 298437
      },
      {
        "id": "M_444",
        "pitch": 93,
        "t_note_us": 71699718,
        "t_trigger_us": 71563755,
        "is_ai": true,
        "track_id": 8,
        "velocity": 0,
        "is_motor": false,
        "motor_id": 0,
        "accel_val": 2000,
        "base_duration_us": 298437
      },
      {
        "id": "M_445",
        "pitch": 29,
        "t_note_us": 71999717,
        "t_trigger_us": 71863754,
        "is_ai": true,
        "track_id": 0,
        "velocity": 0,
        "is_motor": true,
        "motor_id": 0,
        "accel_val": 2000,
        "base_duration_us": 298437
      },
      {
        "id": "M_448",
        "pitch": 103,
        "t_note_us": 71999717,
        "t_trigger_us": 71863754,
        "is_ai": true,
        "track_id": 14,
        "velocity": 0,
        "is_motor": false,
        "motor_id": 0,
        "accel_val": 2000,
        "base_duration_us": 1798434
      },
      {
        "id": "M_446",
        "pitch": 31,
        "t_note_us": 72299716,
        "t_trigger_us": 72163753,
        "is_ai": true,
        "track_id": 0,
        "velocity": 0,
        "is_motor": true,
        "motor_id": 0,
        "accel_val": 2000,
        "base_duration_us": 298437
      },
      {
        "id": "M_447",
        "pitch": 35,
        "t_note_us": 72599715,
        "t_trigger_us": 72463752,
        "is_ai": true,
        "track_id": 0,
        "velocity": 0,
        "is_motor": true,
        "motor_id": 0,
        "accel_val": 2000,
        "base_duration_us": 298437
      },
      {
        "id": "M_449",
        "pitch": 38,
        "t_note_us": 72899714,
        "t_trigger_us": 72763751,
        "is_ai": true,
        "track_id": 0,
        "velocity": 0,
        "is_motor": true,
        "motor_id": 0,
        "accel_val": 2000,
        "base_duration_us": 1498436
      },
      {
        "id": "M_450",
        "pitch": 100,
        "t_note_us": 73799713,
        "t_trigger_us": 73663750,
        "is_ai": true,
        "track_id": 12,
        "velocity": 0,
        "is_motor": false,
        "motor_id": 0,
        "accel_val": 2000,
        "base_duration_us": 598437
      },
      {
        "id": "M_451",
        "pitch": 28,
        "t_note_us": 74399712,
        "t_trigger_us": 74263749,
        "is_ai": true,
        "track_id": 0,
        "velocity": 0,
        "is_motor": true,
        "motor_id": 0,
        "accel_val": 2000,
        "base_duration_us": 298437
      },
      {
        "id": "M_454",
        "pitch": 98,
        "t_note_us": 74399712,
        "t_trigger_us": 74263749,
        "is_ai": true,
        "track_id": 11,
        "velocity": 0,
        "is_motor": false,
        "motor_id": 0,
        "accel_val": 2000,
        "base_duration_us": 1198434
      },
      {
        "id": "M_452",
        "pitch": 31,
        "t_note_us": 74699711,
        "t_trigger_us": 74563748,
        "is_ai": true,
        "track_id": 0,
        "velocity": 0,
        "is_motor": true,
        "motor_id": 0,
        "accel_val": 2000,
        "base_duration_us": 298437
      },
      {
        "id": "M_453",
        "pitch": 35,
        "t_note_us": 74999710,
        "t_trigger_us": 74863747,
        "is_ai": true,
        "track_id": 0,
        "velocity": 0,
        "is_motor": true,
        "motor_id": 0,
        "accel_val": 2000,
        "base_duration_us": 298437
      },
      {
        "id": "M_458",
        "pitch": 38,
        "t_note_us": 75299709,
        "t_trigger_us": 75163746,
        "is_ai": true,
        "track_id": 0,
        "velocity": 0,
        "is_motor": true,
        "motor_id": 0,
        "accel_val": 2000,
        "base_duration_us": 1498433
      },
      {
        "id": "M_455",
        "pitch": 96,
        "t_note_us": 75899708,
        "t_trigger_us": 75763745,
        "is_ai": true,
        "track_id": 10,
        "velocity": 0,
        "is_motor": false,
        "motor_id": 0,
        "accel_val": 2000,
        "base_duration_us": 298437
      },
      {
        "id": "M_456",
        "pitch": 96,
        "t_note_us": 76199707,
        "t_trigger_us": 76063744,
        "is_ai": true,
        "track_id": 10,
        "velocity": 0,
        "is_motor": false,
        "motor_id": 0,
        "accel_val": 2000,
        "base_duration_us": 148437
      },
      {
        "id": "M_457",
        "pitch": 60,
        "t_note_us": 76349706,
        "t_trigger_us": 76213743,
        "is_ai": true,
        "track_id": 0,
        "velocity": 0,
        "is_motor": true,
        "motor_id": 1,
        "accel_val": 2000,
        "base_duration_us": 148437
      },
      {
        "id": "M_459",
        "pitch": 96,
        "t_note_us": 76499705,
        "t_trigger_us": 76363742,
        "is_ai": true,
        "track_id": 10,
        "velocity": 0,
        "is_motor": false,
        "motor_id": 0,
        "accel_val": 2000,
        "base_duration_us": 298437
      },
      {
        "id": "M_460",
        "pitch": 33,
        "t_note_us": 76799704,
        "t_trigger_us": 76663741,
        "is_ai": true,
        "track_id": 0,
        "velocity": 0,
        "is_motor": true,
        "motor_id": 0,
        "accel_val": 2000,
        "base_duration_us": 298437
      },
      {
        "id": "M_464",
        "pitch": 95,
        "t_note_us": 76799704,
        "t_trigger_us": 76663741,
        "is_ai": true,
        "track_id": 9,
        "velocity": 0,
        "is_motor": false,
        "motor_id": 0,
        "accel_val": 2000,
        "base_duration_us": 2398434
      },
      {
        "id": "M_461",
        "pitch": 40,
        "t_note_us": 77099703,
        "t_trigger_us": 76963740,
        "is_ai": true,
        "track_id": 0,
        "velocity": 0,
        "is_motor": true,
        "motor_id": 0,
        "accel_val": 2000,
        "base_duration_us": 298437
      },
      {
        "id": "M_462",
        "pitch": 45,
        "t_note_us": 77399702,
        "t_trigger_us": 77263739,
        "is_ai": true,
        "track_id": 0,
        "velocity": 0,
        "is_motor": true,
        "motor_id": 0,
        "accel_val": 2000,
        "base_duration_us": 298437
      },
      {
        "id": "M_463",
        "pitch": 48,
        "t_note_us": 77699701,
        "t_trigger_us": 77563738,
        "is_ai": true,
        "track_id": 0,
        "velocity": 0,
        "is_motor": true,
        "motor_id": 0,
        "accel_val": 2000,
        "base_duration_us": 1498437
      },
      {
        "id": "M_465",
        "pitch": 29,
        "t_note_us": 79199700,
        "t_trigger_us": 79063737,
        "is_ai": true,
        "track_id": 0,
        "velocity": 0,
        "is_motor": true,
        "motor_id": 0,
        "accel_val": 2000,
        "base_duration_us": 298437
      },
      {
        "id": "M_470",
        "pitch": 53,
        "t_note_us": 79199700,
        "t_trigger_us": 79063737,
        "is_ai": true,
        "track_id": 0,
        "velocity": 0,
        "is_motor": true,
        "motor_id": 1,
        "accel_val": 2000,
        "base_duration_us": 598435
      },
      {
        "id": "M_468",
        "pitch": 96,
        "t_note_us": 79199700,
        "t_trigger_us": 79063737,
        "is_ai": true,
        "track_id": 10,
        "velocity": 0,
        "is_motor": false,
        "motor_id": 0,
        "accel_val": 2000,
        "base_duration_us": 598435
      },
      {
        "id": "M_469",
        "pitch": 95,
        "t_note_us": 79199700,
        "t_trigger_us": 79063737,
        "is_ai": true,
        "track_id": 0,
        "velocity": 0,
        "is_motor": true,
        "motor_id": 3,
        "accel_val": 2000,
        "base_duration_us": 598435
      },
      {
        "id": "M_466",
        "pitch": 36,
        "t_note_us": 79499699,
        "t_trigger_us": 79363736,
        "is_ai": true,
        "track_id": 0,
        "velocity": 0,
        "is_motor": true,
        "motor_id": 0,
        "accel_val": 2000,
        "base_duration_us": 148437
      },
      {
        "id": "M_467",
        "pitch": 40,
        "t_note_us": 79649698,
        "t_trigger_us": 79513735,
        "is_ai": true,
        "track_id": 0,
        "velocity": 0,
        "is_motor": true,
        "motor_id": 0,
        "accel_val": 2000,
        "base_duration_us": 148437
      },
      {
        "id": "M_471",
        "pitch": 41,
        "t_note_us": 79799697,
        "t_trigger_us": 79663734,
        "is_ai": true,
        "track_id": 0,
        "velocity": 0,
        "is_motor": true,
        "motor_id": 0,
        "accel_val": 2000,
        "base_duration_us": 298437
      },
      {
        "id": "M_472",
        "pitch": 96,
        "t_note_us": 79799697,
        "t_trigger_us": 79663734,
        "is_ai": true,
        "track_id": 10,
        "velocity": 0,
        "is_motor": false,
        "motor_id": 0,
        "accel_val": 2000,
        "base_duration_us": 598436
      },
      {
        "id": "M_474",
        "pitch": 36,
        "t_note_us": 80099696,
        "t_trigger_us": 79963733,
        "is_ai": true,
        "track_id": 0,
        "velocity": 0,
        "is_motor": true,
        "motor_id": 0,
        "accel_val": 2000,
        "base_duration_us": 598436
      },
      {
        "id": "M_473",
        "pitch": 96,
        "t_note_us": 80399695,
        "t_trigger_us": 80263732,
        "is_ai": true,
        "track_id": 10,
        "velocity": 0,
        "is_motor": false,
        "motor_id": 0,
        "accel_val": 2000,
        "base_duration_us": 298437
      },
      {
        "id": "M_475",
        "pitch": 57,
        "t_note_us": 80699694,
        "t_trigger_us": 80563731,
        "is_ai": true,
        "track_id": 0,
        "velocity": 0,
        "is_motor": true,
        "motor_id": 0,
        "accel_val": 2000,
        "base_duration_us": 148437
      },
      {
        "id": "M_476",
        "pitch": 36,
        "t_note_us": 80699694,
        "t_trigger_us": 80563731,
        "is_ai": true,
        "track_id": 0,
        "velocity": 0,
        "is_motor": true,
        "motor_id": 1,
        "accel_val": 2000,
        "base_duration_us": 298436
      },
      {
        "id": "M_478",
        "pitch": 93,
        "t_note_us": 80849693,
        "t_trigger_us": 80713730,
        "is_ai": true,
        "track_id": 8,
        "velocity": 0,
        "is_motor": false,
        "motor_id": 0,
        "accel_val": 2000,
        "base_duration_us": 748435
      },
      {
        "id": "M_477",
        "pitch": 41,
        "t_note_us": 80999692,
        "t_trigger_us": 80863729,
        "is_ai": true,
        "track_id": 0,
        "velocity": 0,
        "is_motor": true,
        "motor_id": 0,
        "accel_val": 2000,
        "base_duration_us": 298437
      },
      {
        "id": "M_479",
        "pitch": 36,
        "t_note_us": 81299691,
        "t_trigger_us": 81163728,
        "is_ai": true,
        "track_id": 0,
        "velocity": 0,
        "is_motor": true,
        "motor_id": 0,
        "accel_val": 2000,
        "base_duration_us": 298437
      },
      {
        "id": "M_480",
        "pitch": 29,
        "t_note_us": 81599690,
        "t_trigger_us": 81463727,
        "is_ai": true,
        "track_id": 0,
        "velocity": 0,
        "is_motor": true,
        "motor_id": 0,
        "accel_val": 2000,
        "base_duration_us": 298437
      },
      {
        "id": "M_484",
        "pitch": 53,
        "t_note_us": 81599690,
        "t_trigger_us": 81463727,
        "is_ai": true,
        "track_id": 0,
        "velocity": 0,
        "is_motor": true,
        "motor_id": 1,
        "accel_val": 2000,
        "base_duration_us": 598435
      },
      {
        "id": "M_485",
        "pitch": 50,
        "t_note_us": 81599690,
        "t_trigger_us": 81463727,
        "is_ai": true,
        "track_id": 0,
        "velocity": 0,
        "is_motor": true,
        "motor_id": 2,
        "accel_val": 2000,
        "base_duration_us": 598435
      },
      {
        "id": "M_483",
        "pitch": 95,
        "t_note_us": 81599690,
        "t_trigger_us": 81463727,
        "is_ai": true,
        "track_id": 9,
        "velocity": 0,
        "is_motor": false,
        "motor_id": 0,
        "accel_val": 2000,
        "base_duration_us": 598435
      },
      {
        "id": "M_481",
        "pitch": 32,
        "t_note_us": 81899689,
        "t_trigger_us": 81763726,
        "is_ai": true,
        "track_id": 0,
        "velocity": 0,
        "is_motor": true,
        "motor_id": 0,
        "accel_val": 2000,
        "base_duration_us": 148437
      },
      {
        "id": "M_482",
        "pitch": 38,
        "t_note_us": 82049688,
        "t_trigger_us": 81913725,
        "is_ai": true,
        "track_id": 0,
        "velocity": 0,
        "is_motor": true,
        "motor_id": 0,
        "accel_val": 2000,
        "base_duration_us": 148437
      },
      {
        "id": "M_486",
        "pitch": 41,
        "t_note_us": 82199687,
        "t_trigger_us": 82063724,
        "is_ai": true,
        "track_id": 0,
        "velocity": 0,
        "is_motor": true,
        "motor_id": 0,
        "accel_val": 2000,
        "base_duration_us": 298437
      },
      {
        "id": "M_487",
        "pitch": 95,
        "t_note_us": 82199687,
        "t_trigger_us": 82063724,
        "is_ai": true,
        "track_id": 9,
        "velocity": 0,
        "is_motor": false,
        "motor_id": 0,
        "accel_val": 2000,
        "base_duration_us": 598436
      },
      {
        "id": "M_489",
        "pitch": 38,
        "t_note_us": 82499686,
        "t_trigger_us": 82363723,
        "is_ai": true,
        "track_id": 0,
        "velocity": 0,
        "is_motor": true,
        "motor_id": 0,
        "accel_val": 2000,
        "base_duration_us": 598436
      },
      {
        "id": "M_488",
        "pitch": 95,
        "t_note_us": 82799685,
        "t_trigger_us": 82663722,
        "is_ai": true,
        "track_id": 9,
        "velocity": 0,
        "is_motor": false,
        "motor_id": 0,
        "accel_val": 2000,
        "base_duration_us": 298437
      },
      {
        "id": "M_490",
        "pitch": 55,
        "t_note_us": 83099684,
        "t_trigger_us": 82963721,
        "is_ai": true,
        "track_id": 0,
        "velocity": 0,
        "is_motor": true,
        "motor_id": 0,
        "accel_val": 2000,
        "base_duration_us": 148437
      },
      {
        "id": "M_491",
        "pitch": 38,
        "t_note_us": 83099684,
        "t_trigger_us": 82963721,
        "is_ai": true,
        "track_id": 0,
        "velocity": 0,
        "is_motor": true,
        "motor_id": 1,
        "accel_val": 2000,
        "base_duration_us": 298436
      },
      {
        "id": "M_493",
        "pitch": 55,
        "t_note_us": 83249683,
        "t_trigger_us": 83113720,
        "is_ai": true,
        "track_id": 0,
        "velocity": 0,
        "is_motor": true,
        "motor_id": 0,
        "accel_val": 2000,
        "base_duration_us": 748435
      },
      {
        "id": "M_492",
        "pitch": 41,
        "t_note_us": 83399682,
        "t_trigger_us": 83263719,
        "is_ai": true,
        "track_id": 0,
        "velocity": 0,
        "is_motor": true,
        "motor_id": 1,
        "accel_val": 2000,
        "base_duration_us": 298437
      },
      {
        "id": "M_494",
        "pitch": 38,
        "t_note_us": 83699681,
        "t_trigger_us": 83563718,
        "is_ai": true,
        "track_id": 0,
        "velocity": 0,
        "is_motor": true,
        "motor_id": 1,
        "accel_val": 2000,
        "base_duration_us": 298437
      },
      {
        "id": "M_495",
        "pitch": 28,
        "t_note_us": 83999680,
        "t_trigger_us": 83863717,
        "is_ai": true,
        "track_id": 0,
        "velocity": 0,
        "is_motor": true,
        "motor_id": 0,
        "accel_val": 2000,
        "base_duration_us": 298437
      },
      {
        "id": "M_500",
        "pitch": 52,
        "t_note_us": 83999680,
        "t_trigger_us": 83863717,
        "is_ai": true,
        "track_id": 0,
        "velocity": 0,
        "is_motor": true,
        "motor_id": 1,
        "accel_val": 2000,
        "base_duration_us": 598435
      },
      {
        "id": "M_498",
        "pitch": 95,
        "t_note_us": 83999680,
        "t_trigger_us": 83863717,
        "is_ai": true,
        "track_id": 9,
        "velocity": 0,
        "is_motor": false,
        "motor_id": 0,
        "accel_val": 2000,
        "base_duration_us": 598435
      },
      {
        "id": "M_499",
        "pitch": 91,
        "t_note_us": 83999680,
        "t_trigger_us": 83863717,
        "is_ai": true,
        "track_id": 0,
        "velocity": 0,
        "is_motor": true,
        "motor_id": 3,
        "accel_val": 2000,
        "base_duration_us": 598435
      },
      {
        "id": "M_509",
        "pitch": 98,
        "t_note_us": 83999680,
        "t_trigger_us": 83863717,
        "is_ai": true,
        "track_id": 11,
        "velocity": 0,
        "is_motor": false,
        "motor_id": 0,
        "accel_val": 2000,
        "base_duration_us": 2398428
      },
      {
        "id": "M_496",
        "pitch": 31,
        "t_note_us": 84299679,
        "t_trigger_us": 84163716,
        "is_ai": true,
        "track_id": 0,
        "velocity": 0,
        "is_motor": true,
        "motor_id": 0,
        "accel_val": 2000,
        "base_duration_us": 148437
      },
      {
        "id": "M_497",
        "pitch": 35,
        "t_note_us": 84449678,
        "t_trigger_us": 84313715,
        "is_ai": true,
        "track_id": 0,
        "velocity": 0,
        "is_motor": true,
        "motor_id": 0,
        "accel_val": 2000,
        "base_duration_us": 148437
      },
      {
        "id": "M_501",
        "pitch": 38,
        "t_note_us": 84599677,
        "t_trigger_us": 84463714,
        "is_ai": true,
        "track_id": 0,
        "velocity": 0,
        "is_motor": true,
        "motor_id": 0,
        "accel_val": 2000,
        "base_duration_us": 298437
      },
      {
        "id": "M_502",
        "pitch": 95,
        "t_note_us": 84599677,
        "t_trigger_us": 84463714,
        "is_ai": true,
        "track_id": 9,
        "velocity": 0,
        "is_motor": false,
        "motor_id": 0,
        "accel_val": 2000,
        "base_duration_us": 598436
      },
      {
        "id": "M_504",
        "pitch": 31,
        "t_note_us": 84899676,
        "t_trigger_us": 84763713,
        "is_ai": true,
        "track_id": 0,
        "velocity": 0,
        "is_motor": true,
        "motor_id": 0,
        "accel_val": 2000,
        "base_duration_us": 598436
      },
      {
        "id": "M_503",
        "pitch": 95,
        "t_note_us": 85199675,
        "t_trigger_us": 85063712,
        "is_ai": true,
        "track_id": 9,
        "velocity": 0,
        "is_motor": false,
        "motor_id": 0,
        "accel_val": 2000,
        "base_duration_us": 298437
      },
      {
        "id": "M_505",
        "pitch": 55,
        "t_note_us": 85499674,
        "t_trigger_us": 85363711,
        "is_ai": true,
        "track_id": 0,
        "velocity": 0,
        "is_motor": true,
        "motor_id": 0,
        "accel_val": 2000,
        "base_duration_us": 148437
      },
      {
        "id": "M_506",
        "pitch": 31,
        "t_note_us": 85499674,
        "t_trigger_us": 85363711,
        "is_ai": true,
        "track_id": 0,
        "velocity": 0,
        "is_motor": true,
        "motor_id": 1,
        "accel_val": 2000,
        "base_duration_us": 298436
      },
      {
        "id": "M_508",
        "pitch": 55,
        "t_note_us": 85649673,
        "t_trigger_us": 85513710,
        "is_ai": true,
        "track_id": 0,
        "velocity": 0,
        "is_motor": true,
        "motor_id": 0,
        "accel_val": 2000,
        "base_duration_us": 748435
      },
      {
        "id": "M_507",
        "pitch": 38,
        "t_note_us": 85799672,
        "t_trigger_us": 85663709,
        "is_ai": true,
        "track_id": 0,
        "velocity": 0,
        "is_motor": true,
        "motor_id": 1,
        "accel_val": 2000,
        "base_duration_us": 298437
      },
      {
        "id": "M_510",
        "pitch": 31,
        "t_note_us": 86099671,
        "t_trigger_us": 85963708,
        "is_ai": true,
        "track_id": 0,
        "velocity": 0,
        "is_motor": true,
        "motor_id": 1,
        "accel_val": 2000,
        "base_duration_us": 298437
      },
      {
        "id": "M_511",
        "pitch": 33,
        "t_note_us": 86399670,
        "t_trigger_us": 86263707,
        "is_ai": true,
        "track_id": 0,
        "velocity": 0,
        "is_motor": true,
        "motor_id": 0,
        "accel_val": 2000,
        "base_duration_us": 298437
      },
      {
        "id": "M_515",
        "pitch": 60,
        "t_note_us": 86399670,
        "t_trigger_us": 86263707,
        "is_ai": true,
        "track_id": 0,
        "velocity": 0,
        "is_motor": true,
        "motor_id": 1,
        "accel_val": 2000,
        "base_duration_us": 599997
      },
      {
        "id": "M_512",
        "pitch": 36,
        "t_note_us": 86699669,
        "t_trigger_us": 86563706,
        "is_ai": true,
        "track_id": 0,
        "velocity": 0,
        "is_motor": true,
        "motor_id": 0,
        "accel_val": 2000,
        "base_duration_us": 148437
      },
      {
        "id": "M_514",
        "pitch": 57,
        "t_note_us": 86699669,
        "t_trigger_us": 86563706,
        "is_ai": true,
        "track_id": 0,
        "velocity": 0,
        "is_motor": true,
        "motor_id": 2,
        "accel_val": 2000,
        "base_duration_us": 298436
      },
      {
        "id": "M_513",
        "pitch": 40,
        "t_note_us": 86849668,
        "t_trigger_us": 86713705,
        "is_ai": true,
        "track_id": 0,
        "velocity": 0,
        "is_motor": true,
        "motor_id": 0,
        "accel_val": 2000,
        "base_duration_us": 148437
      },
      {
        "id": "M_516",
        "pitch": 43,
        "t_note_us": 86999667,
        "t_trigger_us": 86863704,
        "is_ai": true,
        "track_id": 0,
        "velocity": 0,
        "is_motor": true,
        "motor_id": 0,
        "accel_val": 2000,
        "base_duration_us": 298437
      },
      {
        "id": "M_521",
        "pitch": 60,
        "t_note_us": 86999667,
        "t_trigger_us": 86863704,
        "is_ai": true,
        "track_id": 0,
        "velocity": 0,
        "is_motor": true,
        "motor_id": 1,
        "accel_val": 2000,
        "base_duration_us": 1199996
      },
      {
        "id": "M_517",
        "pitch": 57,
        "t_note_us": 87299666,
        "t_trigger_us": 87163703,
        "is_ai": true,
        "track_id": 0,
        "velocity": 0,
        "is_motor": true,
        "motor_id": 0,
        "accel_val": 2000,
        "base_duration_us": 298437
      },
      {
        "id": "M_518",
        "pitch": 40,
        "t_note_us": 87299666,
        "t_trigger_us": 87163703,
        "is_ai": true,
        "track_id": 0,
        "velocity": 0,
        "is_motor": true,
        "motor_id": 2,
        "accel_val": 2000,
        "base_duration_us": 598436
      },
      {
        "id": "M_520",
        "pitch": 62,
        "t_note_us": 87599665,
        "t_trigger_us": 87463702,
        "is_ai": true,
        "track_id": 0,
        "velocity": 0,
        "is_motor": true,
        "motor_id": 0,
        "accel_val": 2000,
        "base_duration_us": 598436
      },
      {
        "id": "M_519",
        "pitch": 36,
        "t_note_us": 87899664,
        "t_trigger_us": 87763701,
        "is_ai": true,
        "track_id": 0,
        "velocity": 0,
        "is_motor": true,
        "motor_id": 2,
        "accel_val": 2000,
        "base_duration_us": 298437
      },
      {
        "id": "M_522",
        "pitch": 43,
        "t_note_us": 88199663,
        "t_trigger_us": 88063700,
        "is_ai": true,
        "track_id": 0,
        "velocity": 0,
        "is_motor": true,
        "motor_id": 0,
        "accel_val": 2000,
        "base_duration_us": 298437
      },
      {
        "id": "M_524",
        "pitch": 60,
        "t_note_us": 88199663,
        "t_trigger_us": 88063700,
        "is_ai": true,
        "track_id": 0,
        "velocity": 0,
        "is_motor": true,
        "motor_id": 1,
        "accel_val": 2000,
        "base_duration_us": 598436
      },
      {
        "id": "M_523",
        "pitch": 40,
        "t_note_us": 88499662,
        "t_trigger_us": 88363699,
        "is_ai": true,
        "track_id": 0,
        "velocity": 0,
        "is_motor": true,
        "motor_id": 0,
        "accel_val": 2000,
        "base_duration_us": 298437
      },
      {
        "id": "M_525",
        "pitch": 29,
        "t_note_us": 88799661,
        "t_trigger_us": 88663698,
        "is_ai": true,
        "track_id": 0,
        "velocity": 0,
        "is_motor": true,
        "motor_id": 0,
        "accel_val": 2000,
        "base_duration_us": 298437
      },
      {
        "id": "M_528",
        "pitch": 60,
        "t_note_us": 88799661,
        "t_trigger_us": 88663698,
        "is_ai": true,
        "track_id": 0,
        "velocity": 0,
        "is_motor": true,
        "motor_id": 1,
        "accel_val": 2000,
        "base_duration_us": 598435
      },
      {
        "id": "M_537",
        "pitch": 64,
        "t_note_us": 88799661,
        "t_trigger_us": 88663698,
        "is_ai": true,
        "track_id": 0,
        "velocity": 0,
        "is_motor": true,
        "motor_id": 2,
        "accel_val": 2000,
        "base_duration_us": 2398428
      },
      {
        "id": "M_526",
        "pitch": 36,
        "t_note_us": 89099660,
        "t_trigger_us": 88963697,
        "is_ai": true,
        "track_id": 0,
        "velocity": 0,
        "is_motor": true,
        "motor_id": 0,
        "accel_val": 2000,
        "base_duration_us": 148437
      },
      {
        "id": "M_527",
        "pitch": 40,
        "t_note_us": 89249659,
        "t_trigger_us": 89113696,
        "is_ai": true,
        "track_id": 0,
        "velocity": 0,
        "is_motor": true,
        "motor_id": 0,
        "accel_val": 2000,
        "base_duration_us": 148437
      },
      {
        "id": "M_529",
        "pitch": 41,
        "t_note_us": 89399658,
        "t_trigger_us": 89263695,
        "is_ai": true,
        "track_id": 0,
        "velocity": 0,
        "is_motor": true,
        "motor_id": 0,
        "accel_val": 2000,
        "base_duration_us": 298437
      },
      {
        "id": "M_530",
        "pitch": 60,
        "t_note_us": 89399658,
        "t_trigger_us": 89263695,
        "is_ai": true,
        "track_id": 0,
        "velocity": 0,
        "is_motor": true,
        "motor_id": 1,
        "accel_val": 2000,
        "base_duration_us": 598436
      },
      {
        "id": "M_532",
        "pitch": 36,
        "t_note_us": 89699657,
        "t_trigger_us": 89563694,
        "is_ai": true,
        "track_id": 0,
        "velocity": 0,
        "is_motor": true,
        "motor_id": 0,
        "accel_val": 2000,
        "base_duration_us": 598436
      },
      {
        "id": "M_531",
        "pitch": 60,
        "t_note_us": 89999656,
        "t_trigger_us": 89863693,
        "is_ai": true,
        "track_id": 0,
        "velocity": 0,
        "is_motor": true,
        "motor_id": 1,
        "accel_val": 2000,
        "base_duration_us": 298437
      },
      {
        "id": "M_533",
        "pitch": 57,
        "t_note_us": 90299655,
        "t_trigger_us": 90163692,
        "is_ai": true,
        "track_id": 0,
        "velocity": 0,
        "is_motor": true,
        "motor_id": 0,
        "accel_val": 2000,
        "base_duration_us": 148437
      },
      {
        "id": "M_534",
        "pitch": 36,
        "t_note_us": 90299655,
        "t_trigger_us": 90163692,
        "is_ai": true,
        "track_id": 0,
        "velocity": 0,
        "is_motor": true,
        "motor_id": 1,
        "accel_val": 2000,
        "base_duration_us": 298436
      },
      {
        "id": "M_536",
        "pitch": 57,
        "t_note_us": 90449654,
        "t_trigger_us": 90313691,
        "is_ai": true,
        "track_id": 0,
        "velocity": 0,
        "is_motor": true,
        "motor_id": 0,
        "accel_val": 2000,
        "base_duration_us": 748435
      },
      {
        "id": "M_535",
        "pitch": 41,
        "t_note_us": 90599653,
        "t_trigger_us": 90463690,
        "is_ai": true,
        "track_id": 0,
        "velocity": 0,
        "is_motor": true,
        "motor_id": 1,
        "accel_val": 2000,
        "base_duration_us": 298437
      },
      {
        "id": "M_538",
        "pitch": 36,
        "t_note_us": 90899652,
        "t_trigger_us": 90763689,
        "is_ai": true,
        "track_id": 0,
        "velocity": 0,
        "is_motor": true,
        "motor_id": 1,
        "accel_val": 2000,
        "base_duration_us": 298437
      },
      {
        "id": "M_539",
        "pitch": 31,
        "t_note_us": 91199651,
        "t_trigger_us": 91063688,
        "is_ai": true,
        "track_id": 0,
        "velocity": 0,
        "is_motor": true,
        "motor_id": 0,
        "accel_val": 2000,
        "base_duration_us": 298437
      },
      {
        "id": "M_542",
        "pitch": 59,
        "t_note_us": 91199651,
        "t_trigger_us": 91063688,
        "is_ai": true,
        "track_id": 0,
        "velocity": 0,
        "is_motor": true,
        "motor_id": 1,
        "accel_val": 2000,
        "base_duration_us": 598435
      },
      {
        "id": "M_540",
        "pitch": 35,
        "t_note_us": 91499650,
        "t_trigger_us": 91363687,
        "is_ai": true,
        "track_id": 0,
        "velocity": 0,
        "is_motor": true,
        "motor_id": 0,
        "accel_val": 2000,
        "base_duration_us": 148437
      },
      {
        "id": "M_541",
        "pitch": 38,
        "t_note_us": 91649649,
        "t_trigger_us": 91513686,
        "is_ai": true,
        "track_id": 0,
        "velocity": 0,
        "is_motor": true,
        "motor_id": 0,
        "accel_val": 2000,
        "base_duration_us": 148437
      },
      {
        "id": "M_543",
        "pitch": 43,
        "t_note_us": 91799648,
        "t_trigger_us": 91663685,
        "is_ai": true,
        "track_id": 0,
        "velocity": 0,
        "is_motor": true,
        "motor_id": 0,
        "accel_val": 2000,
        "base_duration_us": 298437
      },
      {
        "id": "M_544",
        "pitch": 59,
        "t_note_us": 91799648,
        "t_trigger_us": 91663685,
        "is_ai": true,
        "track_id": 0,
        "velocity": 0,
        "is_motor": true,
        "motor_id": 1,
        "accel_val": 2000,
        "base_duration_us": 598436
      },
      {
        "id": "M_546",
        "pitch": 35,
        "t_note_us": 92099647,
        "t_trigger_us": 91963684,
        "is_ai": true,
        "track_id": 0,
        "velocity": 0,
        "is_motor": true,
        "motor_id": 0,
        "accel_val": 2000,
        "base_duration_us": 598436
      },
      {
        "id": "M_545",
        "pitch": 59,
        "t_note_us": 92399646,
        "t_trigger_us": 92263683,
        "is_ai": true,
        "track_id": 0,
        "velocity": 0,
        "is_motor": true,
        "motor_id": 1,
        "accel_val": 2000,
        "base_duration_us": 298437
      },
      {
        "id": "M_547",
        "pitch": 55,
        "t_note_us": 92699645,
        "t_trigger_us": 92563682,
        "is_ai": true,
        "track_id": 0,
        "velocity": 0,
        "is_motor": true,
        "motor_id": 0,
        "accel_val": 2000,
        "base_duration_us": 148437
      },
      {
        "id": "M_548",
        "pitch": 31,
        "t_note_us": 92699645,
        "t_trigger_us": 92563682,
        "is_ai": true,
        "track_id": 0,
        "velocity": 0,
        "is_motor": true,
        "motor_id": 1,
        "accel_val": 2000,
        "base_duration_us": 298436
      },
      {
        "id": "M_550",
        "pitch": 55,
        "t_note_us": 92849644,
        "t_trigger_us": 92713681,
        "is_ai": true,
        "track_id": 0,
        "velocity": 0,
        "is_motor": true,
        "motor_id": 0,
        "accel_val": 2000,
        "base_duration_us": 748435
      },
      {
        "id": "M_549",
        "pitch": 41,
        "t_note_us": 92999643,
        "t_trigger_us": 92863680,
        "is_ai": true,
        "track_id": 0,
        "velocity": 0,
        "is_motor": true,
        "motor_id": 1,
        "accel_val": 2000,
        "base_duration_us": 298437
      },
      {
        "id": "M_551",
        "pitch": 38,
        "t_note_us": 93299642,
        "t_trigger_us": 93163679,
        "is_ai": true,
        "track_id": 0,
        "velocity": 0,
        "is_motor": true,
        "motor_id": 1,
        "accel_val": 2000,
        "base_duration_us": 298437
      },
      {
        "id": "M_552",
        "pitch": 24,
        "t_note_us": 93599641,
        "t_trigger_us": 93463678,
        "is_ai": true,
        "track_id": 0,
        "velocity": 0,
        "is_motor": true,
        "motor_id": 0,
        "accel_val": 2000,
        "base_duration_us": 298437
      },
      {
        "id": "M_555",
        "pitch": 59,
        "t_note_us": 93599641,
        "t_trigger_us": 93463678,
        "is_ai": true,
        "track_id": 0,
        "velocity": 0,
        "is_motor": true,
        "motor_id": 1,
        "accel_val": 2000,
        "base_duration_us": 598435
      },
      {
        "id": "M_553",
        "pitch": 31,
        "t_note_us": 93899640,
        "t_trigger_us": 93763677,
        "is_ai": true,
        "track_id": 0,
        "velocity": 0,
        "is_motor": true,
        "motor_id": 0,
        "accel_val": 2000,
        "base_duration_us": 148437
      },
      {
        "id": "M_554",
        "pitch": 36,
        "t_note_us": 94049639,
        "t_trigger_us": 93913676,
        "is_ai": true,
        "track_id": 0,
        "velocity": 0,
        "is_motor": true,
        "motor_id": 0,
        "accel_val": 2000,
        "base_duration_us": 148437
      },
      {
        "id": "M_556",
        "pitch": 40,
        "t_note_us": 94199638,
        "t_trigger_us": 94063675,
        "is_ai": true,
        "track_id": 0,
        "velocity": 0,
        "is_motor": true,
        "motor_id": 0,
        "accel_val": 2000,
        "base_duration_us": 298437
      },
      {
        "id": "M_557",
        "pitch": 59,
        "t_note_us": 94199638,
        "t_trigger_us": 94063675,
        "is_ai": true,
        "track_id": 0,
        "velocity": 0,
        "is_motor": true,
        "motor_id": 1,
        "accel_val": 2000,
        "base_duration_us": 598436
      },
      {
        "id": "M_559",
        "pitch": 36,
        "t_note_us": 94499637,
        "t_trigger_us": 94363674,
        "is_ai": true,
        "track_id": 0,
        "velocity": 0,
        "is_motor": true,
        "motor_id": 0,
        "accel_val": 2000,
        "base_duration_us": 598436
      },
      {
        "id": "M_558",
        "pitch": 59,
        "t_note_us": 94799636,
        "t_trigger_us": 94663673,
        "is_ai": true,
        "track_id": 0,
        "velocity": 0,
        "is_motor": true,
        "motor_id": 1,
        "accel_val": 2000,
        "base_duration_us": 298437
      },
      {
        "id": "M_560",
        "pitch": 55,
        "t_note_us": 95099635,
        "t_trigger_us": 94963672,
        "is_ai": true,
        "track_id": 0,
        "velocity": 0,
        "is_motor": true,
        "motor_id": 0,
        "accel_val": 2000,
        "base_duration_us": 148437
      },
      {
        "id": "M_561",
        "pitch": 31,
        "t_note_us": 95099635,
        "t_trigger_us": 94963672,
        "is_ai": true,
        "track_id": 0,
        "velocity": 0,
        "is_motor": true,
        "motor_id": 1,
        "accel_val": 2000,
        "base_duration_us": 298436
      },
      {
        "id": "M_563",
        "pitch": 55,
        "t_note_us": 95249634,
        "t_trigger_us": 95113671,
        "is_ai": true,
        "track_id": 0,
        "velocity": 0,
        "is_motor": true,
        "motor_id": 0,
        "accel_val": 2000,
        "base_duration_us": 448436
      },
      {
        "id": "M_562",
        "pitch": 40,
        "t_note_us": 95399633,
        "t_trigger_us": 95263670,
        "is_ai": true,
        "track_id": 0,
        "velocity": 0,
        "is_motor": true,
        "motor_id": 1,
        "accel_val": 2000,
        "base_duration_us": 298437
      },
      {
        "id": "M_564",
        "pitch": 55,
        "t_note_us": 95699632,
        "t_trigger_us": 95563669,
        "is_ai": true,
        "track_id": 0,
        "velocity": 0,
        "is_motor": true,
        "motor_id": 0,
        "accel_val": 2000,
        "base_duration_us": 148437
      },
      {
        "id": "M_566",
        "pitch": 36,
        "t_note_us": 95699632,
        "t_trigger_us": 95563669,
        "is_ai": true,
        "track_id": 0,
        "velocity": 0,
        "is_motor": true,
        "motor_id": 1,
        "accel_val": 2000,
        "base_duration_us": 298436
      },
      {
        "id": "M_565",
        "pitch": 57,
        "t_note_us": 95849631,
        "t_trigger_us": 95713668,
        "is_ai": true,
        "track_id": 0,
        "velocity": 0,
        "is_motor": true,
        "motor_id": 0,
        "accel_val": 2000,
        "base_duration_us": 148437
      },
      {
        "id": "M_567",
        "pitch": 33,
        "t_note_us": 95999630,
        "t_trigger_us": 95863667,
        "is_ai": true,
        "track_id": 0,
        "velocity": 0,
        "is_motor": true,
        "motor_id": 0,
        "accel_val": 2000,
        "base_duration_us": 298437
      },
      {
        "id": "M_568",
        "pitch": 21,
        "t_note_us": 95999630,
        "t_trigger_us": 95863667,
        "is_ai": true,
        "track_id": 0,
        "velocity": 0,
        "is_motor": true,
        "motor_id": 1,
        "accel_val": 2000,
        "base_duration_us": 298437
      },
      {
        "id": "M_569",
        "pitch": 60,
        "t_note_us": 95999630,
        "t_trigger_us": 95863667,
        "is_ai": true,
        "track_id": 0,
        "velocity": 0,
        "is_motor": true,
        "motor_id": 2,
        "accel_val": 2000,
        "base_duration_us": 298437
      },
      {
        "id": "M_570",
        "pitch": 36,
        "t_note_us": 96299629,
        "t_trigger_us": 96163666,
        "is_ai": true,
        "track_id": 0,
        "velocity": 0,
        "is_motor": true,
        "motor_id": 0,
        "accel_val": 2000,
        "base_duration_us": 148437
      },
      {
        "id": "M_572",
        "pitch": 60,
        "t_note_us": 96299629,
        "t_trigger_us": 96163666,
        "is_ai": true,
        "track_id": 0,
        "velocity": 0,
        "is_motor": true,
        "motor_id": 1,
        "accel_val": 2000,
        "base_duration_us": 298436
      },
      {
        "id": "M_571",
        "pitch": 40,
        "t_note_us": 96449628,
        "t_trigger_us": 96313665,
        "is_ai": true,
        "track_id": 0,
        "velocity": 0,
        "is_motor": true,
        "motor_id": 0,
        "accel_val": 2000,
        "base_duration_us": 148437
      },
      {
        "id": "M_573",
        "pitch": 43,
        "t_note_us": 96599627,
        "t_trigger_us": 96463664,
        "is_ai": true,
        "track_id": 0,
        "velocity": 0,
        "is_motor": true,
        "motor_id": 0,
        "accel_val": 2000,
        "base_duration_us": 298437
      },
      {
        "id": "M_574",
        "pitch": 60,
        "t_note_us": 96599627,
        "t_trigger_us": 96463664,
        "is_ai": true,
        "track_id": 0,
        "velocity": 0,
        "is_motor": true,
        "motor_id": 1,
        "accel_val": 2000,
        "base_duration_us": 298437
      },
      {
        "id": "M_575",
        "pitch": 57,
        "t_note_us": 96899626,
        "t_trigger_us": 96763663,
        "is_ai": true,
        "track_id": 0,
        "velocity": 0,
        "is_motor": true,
        "motor_id": 0,
        "accel_val": 2000,
        "base_duration_us": 298437
      },
      {
        "id": "M_577",
        "pitch": 40,
        "t_note_us": 96899626,
        "t_trigger_us": 96763663,
        "is_ai": true,
        "track_id": 0,
        "velocity": 0,
        "is_motor": true,
        "motor_id": 1,
        "accel_val": 2000,
        "base_duration_us": 598436
      },
      {
        "id": "M_576",
        "pitch": 60,
        "t_note_us": 97199625,
        "t_trigger_us": 97063662,
        "is_ai": true,
        "track_id": 0,
        "velocity": 0,
        "is_motor": true,
        "motor_id": 0,
        "accel_val": 2000,
        "base_duration_us": 298437
      },
      {
        "id": "M_578",
        "pitch": 36,
        "t_note_us": 97499624,
        "t_trigger_us": 97363661,
        "is_ai": true,
        "track_id": 0,
        "velocity": 0,
        "is_motor": true,
        "motor_id": 0,
        "accel_val": 2000,
        "base_duration_us": 148437
      },
      {
        "id": "M_580",
        "pitch": 57,
        "t_note_us": 97499624,
        "t_trigger_us": 97363661,
        "is_ai": true,
        "track_id": 0,
        "velocity": 0,
        "is_motor": true,
        "motor_id": 1,
        "accel_val": 2000,
        "base_duration_us": 298436
      },
      {
        "id": "M_579",
        "pitch": 40,
        "t_note_us": 97649623,
        "t_trigger_us": 97513660,
        "is_ai": true,
        "track_id": 0,
        "velocity": 0,
        "is_motor": true,
        "motor_id": 0,
        "accel_val": 2000,
        "base_duration_us": 148437
      },
      {
        "id": "M_581",
        "pitch": 45,
        "t_note_us": 97799622,
        "t_trigger_us": 97663659,
        "is_ai": true,
        "track_id": 0,
        "velocity": 0,
        "is_motor": true,
        "motor_id": 0,
        "accel_val": 2000,
        "base_duration_us": 148437
      },
      {
        "id": "M_583",
        "pitch": 64,
        "t_note_us": 97799622,
        "t_trigger_us": 97663659,
        "is_ai": true,
        "track_id": 0,
        "velocity": 0,
        "is_motor": true,
        "motor_id": 1,
        "accel_val": 2000,
        "base_duration_us": 298436
      },
      {
        "id": "M_584",
        "pitch": 60,
        "t_note_us": 97799622,
        "t_trigger_us": 97663659,
        "is_ai": true,
        "track_id": 0,
        "velocity": 0,
        "is_motor": true,
        "motor_id": 2,
        "accel_val": 2000,
        "base_duration_us": 298436
      },
      {
        "id": "M_582",
        "pitch": 40,
        "t_note_us": 97949621,
        "t_trigger_us": 97813658,
        "is_ai": true,
        "track_id": 0,
        "velocity": 0,
        "is_motor": true,
        "motor_id": 0,
        "accel_val": 2000,
        "base_duration_us": 148437
      },
      {
        "id": "M_585",
        "pitch": 36,
        "t_note_us": 98099620,
        "t_trigger_us": 97963657,
        "is_ai": true,
        "track_id": 0,
        "velocity": 0,
        "is_motor": true,
        "motor_id": 0,
        "accel_val": 2000,
        "base_duration_us": 148437
      },
      {
        "id": "M_587",
        "pitch": 65,
        "t_note_us": 98099620,
        "t_trigger_us": 97963657,
        "is_ai": true,
        "track_id": 0,
        "velocity": 0,
        "is_motor": true,
        "motor_id": 1,
        "accel_val": 2000,
        "base_duration_us": 298436
      },
      {
        "id": "M_588",
        "pitch": 60,
        "t_note_us": 98099620,
        "t_trigger_us": 97963657,
        "is_ai": true,
        "track_id": 0,
        "velocity": 0,
        "is_motor": true,
        "motor_id": 2,
        "accel_val": 2000,
        "base_duration_us": 298436
      },
      {
        "id": "M_586",
        "pitch": 33,
        "t_note_us": 98249619,
        "t_trigger_us": 98113656,
        "is_ai": true,
        "track_id": 0,
        "velocity": 0,
        "is_motor": true,
        "motor_id": 0,
        "accel_val": 2000,
        "base_duration_us": 148437
      },
      {
        "id": "M_589",
        "pitch": 29,
        "t_note_us": 98399618,
        "t_trigger_us": 98263655,
        "is_ai": true,
        "track_id": 0,
        "velocity": 0,
        "is_motor": true,
        "motor_id": 0,
        "accel_val": 2000,
        "base_duration_us": 298437
      },
      {
        "id": "M_592",
        "pitch": 67,
        "t_note_us": 98399618,
        "t_trigger_us": 98263655,
        "is_ai": true,
        "track_id": 0,
        "velocity": 0,
        "is_motor": true,
        "motor_id": 1,
        "accel_val": 2000,
        "base_duration_us": 598435
      },
      {
        "id": "M_593",
        "pitch": 60,
        "t_note_us": 98399618,
        "t_trigger_us": 98263655,
        "is_ai": true,
        "track_id": 0,
        "velocity": 0,
        "is_motor": true,
        "motor_id": 2,
        "accel_val": 2000,
        "base_duration_us": 598435
      },
      {
        "id": "M_590",
        "pitch": 45,
        "t_note_us": 98699617,
        "t_trigger_us": 98563654,
        "is_ai": true,
        "track_id": 0,
        "velocity": 0,
        "is_motor": true,
        "motor_id": 0,
        "accel_val": 2000,
        "base_duration_us": 148437
      },
      {
        "id": "M_591",
        "pitch": 48,
        "t_note_us": 98849616,
        "t_trigger_us": 98713653,
        "is_ai": true,
        "track_id": 0,
        "velocity": 0,
        "is_motor": true,
        "motor_id": 0,
        "accel_val": 2000,
        "base_duration_us": 148437
      },
      {
        "id": "M_594",
        "pitch": 45,
        "t_note_us": 98999615,
        "t_trigger_us": 98863652,
        "is_ai": true,
        "track_id": 0,
        "velocity": 0,
        "is_motor": true,
        "motor_id": 0,
        "accel_val": 2000,
        "base_duration_us": 148437
      },
      {
        "id": "M_598",
        "pitch": 67,
        "t_note_us": 98999615,
        "t_trigger_us": 98863652,
        "is_ai": true,
        "track_id": 0,
        "velocity": 0,
        "is_motor": true,
        "motor_id": 1,
        "accel_val": 2000,
        "base_duration_us": 598434
      },
      {
        "id": "M_595",
        "pitch": 52,
        "t_note_us": 99149614,
        "t_trigger_us": 99013651,
        "is_ai": true,
        "track_id": 0,
        "velocity": 0,
        "is_motor": true,
        "motor_id": 0,
        "accel_val": 2000,
        "base_duration_us": 148437
      },
      {
        "id": "M_596",
        "pitch": 48,
        "t_note_us": 99299613,
        "t_trigger_us": 99163650,
        "is_ai": true,
        "track_id": 0,
        "velocity": 0,
        "is_motor": true,
        "motor_id": 0,
        "accel_val": 2000,
        "base_duration_us": 148437
      },
      {
        "id": "M_597",
        "pitch": 45,
        "t_note_us": 99449612,
        "t_trigger_us": 99313649,
        "is_ai": true,
        "track_id": 0,
        "velocity": 0,
        "is_motor": true,
        "motor_id": 0,
        "accel_val": 2000,
        "base_duration_us": 148437
      },
      {
        "id": "M_599",
        "pitch": 29,
        "t_note_us": 99599611,
        "t_trigger_us": 99463648,
        "is_ai": true,
        "track_id": 0,
        "velocity": 0,
        "is_motor": true,
        "motor_id": 0,
        "accel_val": 2000,
        "base_duration_us": 298437
      },
      {
        "id": "M_602",
        "pitch": 64,
        "t_note_us": 99599611,
        "t_trigger_us": 99463648,
        "is_ai": true,
        "track_id": 0,
        "velocity": 0,
        "is_motor": true,
        "motor_id": 1,
        "accel_val": 2000,
        "base_duration_us": 598435
      },
      {
        "id": "M_603",
        "pitch": 60,
        "t_note_us": 99599611,
        "t_trigger_us": 99463648,
        "is_ai": true,
        "track_id": 0,
        "velocity": 0,
        "is_motor": true,
        "motor_id": 2,
        "accel_val": 2000,
        "base_duration_us": 598435
      },
      {
        "id": "M_604",
        "pitch": 53,
        "t_note_us": 99599611,
        "t_trigger_us": 99463648,
        "is_ai": true,
        "track_id": 0,
        "velocity": 0,
        "is_motor": true,
        "motor_id": 3,
        "accel_val": 2000,
        "base_duration_us": 598435
      },
      {
        "id": "M_600",
        "pitch": 45,
        "t_note_us": 99899610,
        "t_trigger_us": 99763647,
        "is_ai": true,
        "track_id": 0,
        "velocity": 0,
        "is_motor": true,
        "motor_id": 0,
        "accel_val": 2000,
        "base_duration_us": 148437
      },
      {
        "id": "M_601",
        "pitch": 41,
        "t_note_us": 100049609,
        "t_trigger_us": 99913646,
        "is_ai": true,
        "track_id": 0,
        "velocity": 0,
        "is_motor": true,
        "motor_id": 0,
        "accel_val": 2000,
        "base_duration_us": 148437
      },
      {
        "id": "M_605",
        "pitch": 29,
        "t_note_us": 100199608,
        "t_trigger_us": 100063645,
        "is_ai": true,
        "track_id": 0,
        "velocity": 0,
        "is_motor": true,
        "motor_id": 0,
        "accel_val": 2000,
        "base_duration_us": 298437
      },
      {
        "id": "M_606",
        "pitch": 64,
        "t_note_us": 100199608,
        "t_trigger_us": 100063645,
        "is_ai": true,
        "track_id": 0,
        "velocity": 0,
        "is_motor": true,
        "motor_id": 1,
        "accel_val": 2000,
        "base_duration_us": 298437
      },
      {
        "id": "M_607",
        "pitch": 57,
        "t_note_us": 100199608,
        "t_trigger_us": 100063645,
        "is_ai": true,
        "track_id": 0,
        "velocity": 0,
        "is_motor": true,
        "motor_id": 2,
        "accel_val": 2000,
        "base_duration_us": 298437
      },
      {
        "id": "M_608",
        "pitch": 53,
        "t_note_us": 100199608,
        "t_trigger_us": 100063645,
        "is_ai": true,
        "track_id": 0,
        "velocity": 0,
        "is_motor": true,
        "motor_id": 3,
        "accel_val": 2000,
        "base_duration_us": 298437
      },
      {
        "id": "M_609",
        "pitch": 47,
        "t_note_us": 100499607,
        "t_trigger_us": 100363644,
        "is_ai": true,
        "track_id": 0,
        "velocity": 0,
        "is_motor": true,
        "motor_id": 0,
        "accel_val": 2000,
        "base_duration_us": 148437
      },
      {
        "id": "M_611",
        "pitch": 65,
        "t_note_us": 100499607,
        "t_trigger_us": 100363644,
        "is_ai": true,
        "track_id": 0,
        "velocity": 0,
        "is_motor": true,
        "motor_id": 1,
        "accel_val": 2000,
        "base_duration_us": 298436
      },
      {
        "id": "M_610",
        "pitch": 41,
        "t_note_us": 100649606,
        "t_trigger_us": 100513643,
        "is_ai": true,
        "track_id": 0,
        "velocity": 0,
        "is_motor": true,
        "motor_id": 0,
        "accel_val": 2000,
        "base_duration_us": 148437
      },
      {
        "id": "M_612",
        "pitch": 29,
        "t_note_us": 100799605,
        "t_trigger_us": 100663642,
        "is_ai": true,
        "track_id": 0,
        "velocity": 0,
        "is_motor": true,
        "motor_id": 0,
        "accel_val": 2000,
        "base_duration_us": 298437
      },
      {
        "id": "M_613",
        "pitch": 67,
        "t_note_us": 100799605,
        "t_trigger_us": 100663642,
        "is_ai": true,
        "track_id": 0,
        "velocity": 0,
        "is_motor": true,
        "motor_id": 1,
        "accel_val": 2000,
        "base_duration_us": 298437
      },
      {
        "id": "M_614",
        "pitch": 62,
        "t_note_us": 100799605,
        "t_trigger_us": 100663642,
        "is_ai": true,
        "track_id": 0,
        "velocity": 0,
        "is_motor": true,
        "motor_id": 2,
        "accel_val": 2000,
        "base_duration_us": 298437
      },
      {
        "id": "M_615",
        "pitch": 56,
        "t_note_us": 100799605,
        "t_trigger_us": 100663642,
        "is_ai": true,
        "track_id": 0,
        "velocity": 0,
        "is_motor": true,
        "motor_id": 3,
        "accel_val": 2000,
        "base_duration_us": 298437
      },
      {
        "id": "M_616",
        "pitch": 44,
        "t_note_us": 101099604,
        "t_trigger_us": 100963641,
        "is_ai": true,
        "track_id": 0,
        "velocity": 0,
        "is_motor": true,
        "motor_id": 0,
        "accel_val": 2000,
        "base_duration_us": 148437
      },
      {
        "id": "M_618",
        "pitch": 67,
        "t_note_us": 101099604,
        "t_trigger_us": 100963641,
        "is_ai": true,
        "track_id": 0,
        "velocity": 0,
        "is_motor": true,
        "motor_id": 1,
        "accel_val": 2000,
        "base_duration_us": 298436
      },
      {
        "id": "M_617",
        "pitch": 48,
        "t_note_us": 101249603,
        "t_trigger_us": 101113640,
        "is_ai": true,
        "track_id": 0,
        "velocity": 0,
        "is_motor": true,
        "motor_id": 0,
        "accel_val": 2000,
        "base_duration_us": 148437
      },
      {
        "id": "M_619",
        "pitch": 44,
        "t_note_us": 101399602,
        "t_trigger_us": 101263639,
        "is_ai": true,
        "track_id": 0,
        "velocity": 0,
        "is_motor": true,
        "motor_id": 0,
        "accel_val": 2000,
        "base_duration_us": 148437
      },
      {
        "id": "M_621",
        "pitch": 67,
        "t_note_us": 101399602,
        "t_trigger_us": 101263639,
        "is_ai": true,
        "track_id": 0,
        "velocity": 0,
        "is_motor": true,
        "motor_id": 1,
        "accel_val": 2000,
        "base_duration_us": 298436
      },
      {
        "id": "M_620",
        "pitch": 53,
        "t_note_us": 101549601,
        "t_trigger_us": 101413638,
        "is_ai": true,
        "track_id": 0,
        "velocity": 0,
        "is_motor": true,
        "motor_id": 0,
        "accel_val": 2000,
        "base_duration_us": 148437
      },
      {
        "id": "M_622",
        "pitch": 50,
        "t_note_us": 101699600,
        "t_trigger_us": 101563637,
        "is_ai": true,
        "track_id": 0,
        "velocity": 0,
        "is_motor": true,
        "motor_id": 0,
        "accel_val": 2000,
        "base_duration_us": 148437
      },
      {
        "id": "M_626",
        "pitch": 62,
        "t_note_us": 101699600,
        "t_trigger_us": 101563637,
        "is_ai": true,
        "track_id": 0,
        "velocity": 0,
        "is_motor": true,
        "motor_id": 1,
        "accel_val": 2000,
        "base_duration_us": 598435
      },
      {
        "id": "M_623",
        "pitch": 44,
        "t_note_us": 101849599,
        "t_trigger_us": 101713636,
        "is_ai": true,
        "track_id": 0,
        "velocity": 0,
        "is_motor": true,
        "motor_id": 0,
        "accel_val": 2000,
        "base_duration_us": 148437
      },
      {
        "id": "M_624",
        "pitch": 29,
        "t_note_us": 101999598,
        "t_trigger_us": 101863635,
        "is_ai": true,
        "track_id": 0,
        "velocity": 0,
        "is_motor": true,
        "motor_id": 0,
        "accel_val": 2000,
        "base_duration_us": 298437
      },
      {
        "id": "M_625",
        "pitch": 56,
        "t_note_us": 101999598,
        "t_trigger_us": 101863635,
        "is_ai": true,
        "track_id": 0,
        "velocity": 0,
        "is_motor": true,
        "motor_id": 2,
        "accel_val": 2000,
        "base_duration_us": 298437
      },
      {
        "id": "M_627",
        "pitch": 44,
        "t_note_us": 102299597,
        "t_trigger_us": 102163634,
        "is_ai": true,
        "track_id": 0,
        "velocity": 0,
        "is_motor": true,
        "motor_id": 0,
        "accel_val": 2000,
        "base_duration_us": 148437
      },
      {
        "id": "M_629",
        "pitch": 60,
        "t_note_us": 102299597,
        "t_trigger_us": 102163634,
        "is_ai": true,
        "track_id": 0,
        "velocity": 0,
        "is_motor": true,
        "motor_id": 1,
        "accel_val": 2000,
        "base_duration_us": 298436
      },
      {
        "id": "M_628",
        "pitch": 41,
        "t_note_us": 102449596,
        "t_trigger_us": 102313633,
        "is_ai": true,
        "track_id": 0,
        "velocity": 0,
        "is_motor": true,
        "motor_id": 0,
        "accel_val": 2000,
        "base_duration_us": 148437
      },
      {
        "id": "M_630",
        "pitch": 32,
        "t_note_us": 102599595,
        "t_trigger_us": 102463632,
        "is_ai": true,
        "track_id": 0,
        "velocity": 0,
        "is_motor": true,
        "motor_id": 0,
        "accel_val": 2000,
        "base_duration_us": 298437
      },
      {
        "id": "M_631",
        "pitch": 60,
        "t_note_us": 102599595,
        "t_trigger_us": 102463632,
        "is_ai": true,
        "track_id": 0,
        "velocity": 0,
        "is_motor": true,
        "motor_id": 1,
        "accel_val": 2000,
        "base_duration_us": 298437
      },
      {
        "id": "M_632",
        "pitch": 50,
        "t_note_us": 102899594,
        "t_trigger_us": 102763631,
        "is_ai": true,
        "track_id": 0,
        "velocity": 0,
        "is_motor": true,
        "motor_id": 0,
        "accel_val": 2000,
        "base_duration_us": 298437
      },
      {
        "id": "M_633",
        "pitch": 56,
        "t_note_us": 102899594,
        "t_trigger_us": 102763631,
        "is_ai": true,
        "track_id": 0,
        "velocity": 0,
        "is_motor": true,
        "motor_id": 1,
        "accel_val": 2000,
        "base_duration_us": 298437
      },
      {
        "id": "M_634",
        "pitch": 28,
        "t_note_us": 103199593,
        "t_trigger_us": 103063630,
        "is_ai": true,
        "track_id": 0,
        "velocity": 0,
        "is_motor": true,
        "motor_id": 0,
        "accel_val": 2000,
        "base_duration_us": 298437
      },
      {
        "id": "M_637",
        "pitch": 62,
        "t_note_us": 103199593,
        "t_trigger_us": 103063630,
        "is_ai": true,
        "track_id": 0,
        "velocity": 0,
        "is_motor": true,
        "motor_id": 1,
        "accel_val": 2000,
        "base_duration_us": 598435
      },
      {
        "id": "M_638",
        "pitch": 55,
        "t_note_us": 103199593,
        "t_trigger_us": 103063630,
        "is_ai": true,
        "track_id": 0,
        "velocity": 0,
        "is_motor": true,
        "motor_id": 2,
        "accel_val": 2000,
        "base_duration_us": 598435
      },
      {
        "id": "M_635",
        "pitch": 43,
        "t_note_us": 103499592,
        "t_trigger_us": 103363629,
        "is_ai": true,
        "track_id": 0,
        "velocity": 0,
        "is_motor": true,
        "motor_id": 0,
        "accel_val": 2000,
        "base_duration_us": 148437
      },
      {
        "id": "M_636",
        "pitch": 47,
        "t_note_us": 103649591,
        "t_trigger_us": 103513628,
        "is_ai": true,
        "track_id": 0,
        "velocity": 0,
        "is_motor": true,
        "motor_id": 0,
        "accel_val": 2000,
        "base_duration_us": 148437
      },
      {
        "id": "M_639",
        "pitch": 50,
        "t_note_us": 103799590,
        "t_trigger_us": 103663627,
        "is_ai": true,
        "track_id": 0,
        "velocity": 0,
        "is_motor": true,
        "motor_id": 0,
        "accel_val": 2000,
        "base_duration_us": 148437
      },
      {
        "id": "M_641",
        "pitch": 62,
        "t_note_us": 103799590,
        "t_trigger_us": 103663627,
        "is_ai": true,
        "track_id": 0,
        "velocity": 0,
        "is_motor": true,
        "motor_id": 1,
        "accel_val": 2000,
        "base_duration_us": 298436
      },
      {
        "id": "M_640",
        "pitch": 43,
        "t_note_us": 103949589,
        "t_trigger_us": 103813626,
        "is_ai": true,
        "track_id": 0,
        "velocity": 0,
        "is_motor": true,
        "motor_id": 0,
        "accel_val": 2000,
        "base_duration_us": 148437
      },
      {
        "id": "M_642",
        "pitch": 47,
        "t_note_us": 104099588,
        "t_trigger_us": 103963625,
        "is_ai": true,
        "track_id": 0,
        "velocity": 0,
        "is_motor": true,
        "motor_id": 0,
        "accel_val": 2000,
        "base_duration_us": 148437
      },
      {
        "id": "M_644",
        "pitch": 64,
        "t_note_us": 104099588,
        "t_trigger_us": 103963625,
        "is_ai": true,
        "track_id": 0,
        "velocity": 0,
        "is_motor": true,
        "motor_id": 1,
        "accel_val": 2000,
        "base_duration_us": 298436
      },
      {
        "id": "M_643",
        "pitch": 40,
        "t_note_us": 104249587,
        "t_trigger_us": 104113624,
        "is_ai": true,
        "track_id": 0,
        "velocity": 0,
        "is_motor": true,
        "motor_id": 0,
        "accel_val": 2000,
        "base_duration_us": 148437
      },
      {
        "id": "M_645",
        "pitch": 28,
        "t_note_us": 104399586,
        "t_trigger_us": 104263623,
        "is_ai": true,
        "track_id": 0,
        "velocity": 0,
        "is_motor": true,
        "motor_id": 0,
        "accel_val": 2000,
        "base_duration_us": 298437
      },
      {
        "id": "M_648",
        "pitch": 62,
        "t_note_us": 104399586,
        "t_trigger_us": 104263623,
        "is_ai": true,
        "track_id": 0,
        "velocity": 0,
        "is_motor": true,
        "motor_id": 1,
        "accel_val": 2000,
        "base_duration_us": 898434
      },
      {
        "id": "M_646",
        "pitch": 43,
        "t_note_us": 104699585,
        "t_trigger_us": 104563622,
        "is_ai": true,
        "track_id": 0,
        "velocity": 0,
        "is_motor": true,
        "motor_id": 0,
        "accel_val": 2000,
        "base_duration_us": 148437
      },
      {
        "id": "M_647",
        "pitch": 40,
        "t_note_us": 104849584,
        "t_trigger_us": 104713621,
        "is_ai": true,
        "track_id": 0,
        "velocity": 0,
        "is_motor": true,
        "motor_id": 0,
        "accel_val": 2000,
        "base_duration_us": 148437
      },
      {
        "id": "M_649",
        "pitch": 31,
        "t_note_us": 104999583,
        "t_trigger_us": 104863620,
        "is_ai": true,
        "track_id": 0,
        "velocity": 0,
        "is_motor": true,
        "motor_id": 0,
        "accel_val": 2000,
        "base_duration_us": 298437
      },
      {
        "id": "M_650",
        "pitch": 50,
        "t_note_us": 105299582,
        "t_trigger_us": 105163619,
        "is_ai": true,
        "track_id": 0,
        "velocity": 0,
        "is_motor": true,
        "motor_id": 0,
        "accel_val": 2000,
        "base_duration_us": 148437
      },
      {
        "id": "M_653",
        "pitch": 62,
        "t_note_us": 105299582,
        "t_trigger_us": 105163619,
        "is_ai": true,
        "track_id": 0,
        "velocity": 0,
        "is_motor": true,
        "motor_id": 1,
        "accel_val": 2000,
        "base_duration_us": 598435
      },
      {
        "id": "M_651",
        "pitch": 43,
        "t_note_us": 105449581,
        "t_trigger_us": 105313618,
        "is_ai": true,
        "track_id": 0,
        "velocity": 0,
        "is_motor": true,
        "motor_id": 0,
        "accel_val": 2000,
        "base_duration_us": 148437
      },
      {
        "id": "M_652",
        "pitch": 33,
        "t_note_us": 105599580,
        "t_trigger_us": 105463617,
        "is_ai": true,
        "track_id": 0,
        "velocity": 0,
        "is_motor": true,
        "motor_id": 0,
        "accel_val": 2000,
        "base_duration_us": 298437
      },
      {
        "id": "M_654",
        "pitch": 45,
        "t_note_us": 105899579,
        "t_trigger_us": 105763616,
        "is_ai": true,
        "track_id": 0,
        "velocity": 0,
        "is_motor": true,
        "motor_id": 0,
        "accel_val": 2000,
        "base_duration_us": 148437
      },
      {
        "id": "M_656",
        "pitch": 64,
        "t_note_us": 105899579,
        "t_trigger_us": 105763616,
        "is_ai": true,
        "track_id": 0,
        "velocity": 0,
        "is_motor": true,
        "motor_id": 1,
        "accel_val": 2000,
        "base_duration_us": 298436
      },
      {
        "id": "M_655",
        "pitch": 40,
        "t_note_us": 106049578,
        "t_trigger_us": 105913615,
        "is_ai": true,
        "track_id": 0,
        "velocity": 0,
        "is_motor": true,
        "motor_id": 0,
        "accel_val": 2000,
        "base_duration_us": 148437
      },
      {
        "id": "M_657",
        "pitch": 48,
        "t_note_us": 106199577,
        "t_trigger_us": 106063614,
        "is_ai": true,
        "track_id": 0,
        "velocity": 0,
        "is_motor": true,
        "motor_id": 0,
        "accel_val": 2000,
        "base_duration_us": 148437
      },
      {
        "id": "M_659",
        "pitch": 62,
        "t_note_us": 106199577,
        "t_trigger_us": 106063614,
        "is_ai": true,
        "track_id": 0,
        "velocity": 0,
        "is_motor": true,
        "motor_id": 1,
        "accel_val": 2000,
        "base_duration_us": 298436
      },
      {
        "id": "M_658",
        "pitch": 45,
        "t_note_us": 106349576,
        "t_trigger_us": 106213613,
        "is_ai": true,
        "track_id": 0,
        "velocity": 0,
        "is_motor": true,
        "motor_id": 0,
        "accel_val": 2000,
        "base_duration_us": 148437
      },
      {
        "id": "M_660",
        "pitch": 40,
        "t_note_us": 106499575,
        "t_trigger_us": 106363612,
        "is_ai": true,
        "track_id": 0,
        "velocity": 0,
        "is_motor": true,
        "motor_id": 0,
        "accel_val": 2000,
        "base_duration_us": 148437
      },
      {
        "id": "M_662",
        "pitch": 60,
        "t_note_us": 106499575,
        "t_trigger_us": 106363612,
        "is_ai": true,
        "track_id": 0,
        "velocity": 0,
        "is_motor": true,
        "motor_id": 1,
        "accel_val": 2000,
        "base_duration_us": 298436
      },
      {
        "id": "M_661",
        "pitch": 36,
        "t_note_us": 106649574,
        "t_trigger_us": 106513611,
        "is_ai": true,
        "track_id": 0,
        "velocity": 0,
        "is_motor": true,
        "motor_id": 0,
        "accel_val": 2000,
        "base_duration_us": 148437
      },
      {
        "id": "M_663",
        "pitch": 33,
        "t_note_us": 106799573,
        "t_trigger_us": 106663610,
        "is_ai": true,
        "track_id": 0,
        "velocity": 0,
        "is_motor": true,
        "motor_id": 0,
        "accel_val": 2000,
        "base_duration_us": 298437
      },
      {
        "id": "M_664",
        "pitch": 60,
        "t_note_us": 106799573,
        "t_trigger_us": 106663610,
        "is_ai": true,
        "track_id": 0,
        "velocity": 0,
        "is_motor": true,
        "motor_id": 1,
        "accel_val": 2000,
        "base_duration_us": 298437
      },
      {
        "id": "M_665",
        "pitch": 48,
        "t_note_us": 107099572,
        "t_trigger_us": 106963609,
        "is_ai": true,
        "track_id": 0,
        "velocity": 0,
        "is_motor": true,
        "motor_id": 0,
        "accel_val": 2000,
        "base_duration_us": 148437
      },
      {
        "id": "M_667",
        "pitch": 57,
        "t_note_us": 107099572,
        "t_trigger_us": 106963609,
        "is_ai": true,
        "track_id": 0,
        "velocity": 0,
        "is_motor": true,
        "motor_id": 1,
        "accel_val": 2000,
        "base_duration_us": 298436
      },
      {
        "id": "M_666",
        "pitch": 45,
        "t_note_us": 107249571,
        "t_trigger_us": 107113608,
        "is_ai": true,
        "track_id": 0,
        "velocity": 0,
        "is_motor": true,
        "motor_id": 0,
        "accel_val": 2000,
        "base_duration_us": 148437
      },
      {
        "id": "M_668",
        "pitch": 36,
        "t_note_us": 107399570,
        "t_trigger_us": 107263607,
        "is_ai": true,
        "track_id": 0,
        "velocity": 0,
        "is_motor": true,
        "motor_id": 0,
        "accel_val": 2000,
        "base_duration_us": 148437
      },
      {
        "id": "M_670",
        "pitch": 64,
        "t_note_us": 107399570,
        "t_trigger_us": 107263607,
        "is_ai": true,
        "track_id": 0,
        "velocity": 0,
        "is_motor": true,
        "motor_id": 1,
        "accel_val": 2000,
        "base_duration_us": 298436
      },
      {
        "id": "M_669",
        "pitch": 45,
        "t_note_us": 107549569,
        "t_trigger_us": 107413606,
        "is_ai": true,
        "track_id": 0,
        "velocity": 0,
        "is_motor": true,
        "motor_id": 0,
        "accel_val": 2000,
        "base_duration_us": 148437
      },
      {
        "id": "M_671",
        "pitch": 48,
        "t_note_us": 107699568,
        "t_trigger_us": 107563605,
        "is_ai": true,
        "track_id": 0,
        "velocity": 0,
        "is_motor": true,
        "motor_id": 0,
        "accel_val": 2000,
        "base_duration_us": 148437
      },
      {
        "id": "M_673",
        "pitch": 65,
        "t_note_us": 107699568,
        "t_trigger_us": 107563605,
        "is_ai": true,
        "track_id": 0,
        "velocity": 0,
        "is_motor": true,
        "motor_id": 1,
        "accel_val": 2000,
        "base_duration_us": 298436
      },
      {
        "id": "M_672",
        "pitch": 45,
        "t_note_us": 107849567,
        "t_trigger_us": 107713604,
        "is_ai": true,
        "track_id": 0,
        "velocity": 0,
        "is_motor": true,
        "motor_id": 0,
        "accel_val": 2000,
        "base_duration_us": 148437
      },
      {
        "id": "M_674",
        "pitch": 29,
        "t_note_us": 107999566,
        "t_trigger_us": 107863603,
        "is_ai": true,
        "track_id": 0,
        "velocity": 0,
        "is_motor": true,
        "motor_id": 0,
        "accel_val": 2000,
        "base_duration_us": 148437
      },
      {
        "id": "M_678",
        "pitch": 67,
        "t_note_us": 107999566,
        "t_trigger_us": 107863603,
        "is_ai": true,
        "track_id": 0,
        "velocity": 0,
        "is_motor": true,
        "motor_id": 1,
        "accel_val": 2000,
        "base_duration_us": 598434
      },
      {
        "id": "M_679",
        "pitch": 60,
        "t_note_us": 107999566,
        "t_trigger_us": 107863603,
        "is_ai": true,
        "track_id": 0,
        "velocity": 0,
        "is_motor": true,
        "motor_id": 2,
        "accel_val": 2000,
        "base_duration_us": 598434
      },
      {
        "id": "M_680",
        "pitch": 55,
        "t_note_us": 107999566,
        "t_trigger_us": 107863603,
        "is_ai": true,
        "track_id": 0,
        "velocity": 0,
        "is_motor": true,
        "motor_id": 3,
        "accel_val": 2000,
        "base_duration_us": 598434
      },
      {
        "id": "M_675",
        "pitch": 41,
        "t_note_us": 108149565,
        "t_trigger_us": 108013602,
        "is_ai": true,
        "track_id": 0,
        "velocity": 0,
        "is_motor": true,
        "motor_id": 0,
        "accel_val": 2000,
        "base_duration_us": 148437
      },
      {
        "id": "M_676",
        "pitch": 45,
        "t_note_us": 108299564,
        "t_trigger_us": 108163601,
        "is_ai": true,
        "track_id": 0,
        "velocity": 0,
        "is_motor": true,
        "motor_id": 0,
        "accel_val": 2000,
        "base_duration_us": 148437
      },
      {
        "id": "M_677",
        "pitch": 48,
        "t_note_us": 108449563,
        "t_trigger_us": 108313600,
        "is_ai": true,
        "track_id": 0,
        "velocity": 0,
        "is_motor": true,
        "motor_id": 0,
        "accel_val": 2000,
        "base_duration_us": 148437
      },
      {
        "id": "M_681",
        "pitch": 45,
        "t_note_us": 108599562,
        "t_trigger_us": 108463599,
        "is_ai": true,
        "track_id": 0,
        "velocity": 0,
        "is_motor": true,
        "motor_id": 0,
        "accel_val": 2000,
        "base_duration_us": 148437
      },
      {
        "id": "M_685",
        "pitch": 67,
        "t_note_us": 108599562,
        "t_trigger_us": 108463599,
        "is_ai": true,
        "track_id": 0,
        "velocity": 0,
        "is_motor": true,
        "motor_id": 1,
        "accel_val": 2000,
        "base_duration_us": 598434
      },
      {
        "id": "M_686",
        "pitch": 60,
        "t_note_us": 108599562,
        "t_trigger_us": 108463599,
        "is_ai": true,
        "track_id": 0,
        "velocity": 0,
        "is_motor": true,
        "motor_id": 2,
        "accel_val": 2000,
        "base_duration_us": 598434
      },
      {
        "id": "M_687",
        "pitch": 55,
        "t_note_us": 108599562,
        "t_trigger_us": 108463599,
        "is_ai": true,
        "track_id": 0,
        "velocity": 0,
        "is_motor": true,
        "motor_id": 3,
        "accel_val": 2000,
        "base_duration_us": 598434
      },
      {
        "id": "M_682",
        "pitch": 52,
        "t_note_us": 108749561,
        "t_trigger_us": 108613598,
        "is_ai": true,
        "track_id": 0,
        "velocity": 0,
        "is_motor": true,
        "motor_id": 0,
        "accel_val": 2000,
        "base_duration_us": 148437
      },
      {
        "id": "M_683",
        "pitch": 48,
        "t_note_us": 108899560,
        "t_trigger_us": 108763597,
        "is_ai": true,
        "track_id": 0,
        "velocity": 0,
        "is_motor": true,
        "motor_id": 0,
        "accel_val": 2000,
        "base_duration_us": 148437
      },
      {
        "id": "M_684",
        "pitch": 45,
        "t_note_us": 109049559,
        "t_trigger_us": 108913596,
        "is_ai": true,
        "track_id": 0,
        "velocity": 0,
        "is_motor": true,
        "motor_id": 0,
        "accel_val": 2000,
        "base_duration_us": 148437
      },
      {
        "id": "M_688",
        "pitch": 29,
        "t_note_us": 109199558,
        "t_trigger_us": 109063595,
        "is_ai": true,
        "track_id": 0,
        "velocity": 0,
        "is_motor": true,
        "motor_id": 0,
        "accel_val": 2000,
        "base_duration_us": 148437
      },
      {
        "id": "M_692",
        "pitch": 64,
        "t_note_us": 109199558,
        "t_trigger_us": 109063595,
        "is_ai": true,
        "track_id": 0,
        "velocity": 0,
        "is_motor": true,
        "motor_id": 1,
        "accel_val": 2000,
        "base_duration_us": 598434
      },
      {
        "id": "M_693",
        "pitch": 60,
        "t_note_us": 109199558,
        "t_trigger_us": 109063595,
        "is_ai": true,
        "track_id": 0,
        "velocity": 0,
        "is_motor": true,
        "motor_id": 2,
        "accel_val": 2000,
        "base_duration_us": 598434
      },
      {
        "id": "M_694",
        "pitch": 57,
        "t_note_us": 109199558,
        "t_trigger_us": 109063595,
        "is_ai": true,
        "track_id": 0,
        "velocity": 0,
        "is_motor": true,
        "motor_id": 3,
        "accel_val": 2000,
        "base_duration_us": 598434
      },
      {
        "id": "M_695",
        "pitch": 52,
        "t_note_us": 109199558,
        "t_trigger_us": 109063595,
        "is_ai": true,
        "track_id": 0,
        "velocity": 0,
        "is_motor": true,
        "motor_id": 0,
        "accel_val": 2000,
        "base_duration_us": 598434
      },
      {
        "id": "M_689",
        "pitch": 41,
        "t_note_us": 109349557,
        "t_trigger_us": 109213594,
        "is_ai": true,
        "track_id": 0,
        "velocity": 0,
        "is_motor": true,
        "motor_id": 0,
        "accel_val": 2000,
        "base_duration_us": 148437
      },
      {
        "id": "M_690",
        "pitch": 45,
        "t_note_us": 109499556,
        "t_trigger_us": 109363593,
        "is_ai": true,
        "track_id": 0,
        "velocity": 0,
        "is_motor": true,
        "motor_id": 0,
        "accel_val": 2000,
        "base_duration_us": 148437
      },
      {
        "id": "M_691",
        "pitch": 41,
        "t_note_us": 109649555,
        "t_trigger_us": 109513592,
        "is_ai": true,
        "track_id": 0,
        "velocity": 0,
        "is_motor": true,
        "motor_id": 0,
        "accel_val": 2000,
        "base_duration_us": 148437
      },
      {
        "id": "M_696",
        "pitch": 29,
        "t_note_us": 109799554,
        "t_trigger_us": 109663591,
        "is_ai": true,
        "track_id": 0,
        "velocity": 0,
        "is_motor": true,
        "motor_id": 0,
        "accel_val": 2000,
        "base_duration_us": 148437
      },
      {
        "id": "M_698",
        "pitch": 64,
        "t_note_us": 109799554,
        "t_trigger_us": 109663591,
        "is_ai": true,
        "track_id": 0,
        "velocity": 0,
        "is_motor": true,
        "motor_id": 1,
        "accel_val": 2000,
        "base_duration_us": 298436
      },
      {
        "id": "M_699",
        "pitch": 52,
        "t_note_us": 109799554,
        "t_trigger_us": 109663591,
        "is_ai": true,
        "track_id": 0,
        "velocity": 0,
        "is_motor": true,
        "motor_id": 2,
        "accel_val": 2000,
        "base_duration_us": 298436
      },
      {
        "id": "M_697",
        "pitch": 41,
        "t_note_us": 109949553,
        "t_trigger_us": 109813590,
        "is_ai": true,
        "track_id": 0,
        "velocity": 0,
        "is_motor": true,
        "motor_id": 0,
        "accel_val": 2000,
        "base_duration_us": 148437
      },
      {
        "id": "M_700",
        "pitch": 47,
        "t_note_us": 110099552,
        "t_trigger_us": 109963589,
        "is_ai": true,
        "track_id": 0,
        "velocity": 0,
        "is_motor": true,
        "motor_id": 0,
        "accel_val": 2000,
        "base_duration_us": 148437
      },
      {
        "id": "M_702",
        "pitch": 65,
        "t_note_us": 110099552,
        "t_trigger_us": 109963589,
        "is_ai": true,
        "track_id": 0,
        "velocity": 0,
        "is_motor": true,
        "motor_id": 1,
        "accel_val": 2000,
        "base_duration_us": 298436
      },
      {
        "id": "M_703",
        "pitch": 53,
        "t_note_us": 110099552,
        "t_trigger_us": 109963589,
        "is_ai": true,
        "track_id": 0,
        "velocity": 0,
        "is_motor": true,
        "motor_id": 2,
        "accel_val": 2000,
        "base_duration_us": 298436
      },
      {
        "id": "M_701",
        "pitch": 41,
        "t_note_us": 110249551,
        "t_trigger_us": 110113588,
        "is_ai": true,
        "track_id": 0,
        "velocity": 0,
        "is_motor": true,
        "motor_id": 0,
        "accel_val": 2000,
        "base_duration_us": 148437
      },
      {
        "id": "M_704",
        "pitch": 31,
        "t_note_us": 110399550,
        "t_trigger_us": 110263587,
        "is_ai": true,
        "track_id": 0,
        "velocity": 0,
        "is_motor": true,
        "motor_id": 0,
        "accel_val": 2000,
        "base_duration_us": 148437
      },
      {
        "id": "M_706",
        "pitch": 67,
        "t_note_us": 110399550,
        "t_trigger_us": 110263587,
        "is_ai": true,
        "track_id": 0,
        "velocity": 0,
        "is_motor": true,
        "motor_id": 1,
        "accel_val": 2000,
        "base_duration_us": 298436
      },
      {
        "id": "M_707",
        "pitch": 62,
        "t_note_us": 110399550,
        "t_trigger_us": 110263587,
        "is_ai": true,
        "track_id": 0,
        "velocity": 0,
        "is_motor": true,
        "motor_id": 2,
        "accel_val": 2000,
        "base_duration_us": 298436
      },
      {
        "id": "M_708",
        "pitch": 59,
        "t_note_us": 110399550,
        "t_trigger_us": 110263587,
        "is_ai": true,
        "track_id": 0,
        "velocity": 0,
        "is_motor": true,
        "motor_id": 3,
        "accel_val": 2000,
        "base_duration_us": 298436
      },
      {
        "id": "M_709",
        "pitch": 55,
        "t_note_us": 110399550,
        "t_trigger_us": 110263587,
        "is_ai": true,
        "track_id": 0,
        "velocity": 0,
        "is_motor": true,
        "motor_id": 3,
        "accel_val": 2000,
        "base_duration_us": 298436
      },
      {
        "id": "M_705",
        "pitch": 43,
        "t_note_us": 110549549,
        "t_trigger_us": 110413586,
        "is_ai": true,
        "track_id": 0,
        "velocity": 0,
        "is_motor": true,
        "motor_id": 0,
        "accel_val": 2000,
        "base_duration_us": 148437
      },
      {
        "id": "M_710",
        "pitch": 47,
        "t_note_us": 110699548,
        "t_trigger_us": 110563585,
        "is_ai": true,
        "track_id": 0,
        "velocity": 0,
        "is_motor": true,
        "motor_id": 0,
        "accel_val": 2000,
        "base_duration_us": 148437
      },
      {
        "id": "M_712",
        "pitch": 67,
        "t_note_us": 110699548,
        "t_trigger_us": 110563585,
        "is_ai": true,
        "track_id": 0,
        "velocity": 0,
        "is_motor": true,
        "motor_id": 1,
        "accel_val": 2000,
        "base_duration_us": 298436
      },
      {
        "id": "M_713",
        "pitch": 55,
        "t_note_us": 110699548,
        "t_trigger_us": 110563585,
        "is_ai": true,
        "track_id": 0,
        "velocity": 0,
        "is_motor": true,
        "motor_id": 2,
        "accel_val": 2000,
        "base_duration_us": 298436
      },
      {
        "id": "M_711",
        "pitch": 50,
        "t_note_us": 110849547,
        "t_trigger_us": 110713584,
        "is_ai": true,
        "track_id": 0,
        "velocity": 0,
        "is_motor": true,
        "motor_id": 0,
        "accel_val": 2000,
        "base_duration_us": 148437
      },
      {
        "id": "M_714",
        "pitch": 47,
        "t_note_us": 110999546,
        "t_trigger_us": 110863583,
        "is_ai": true,
        "track_id": 0,
        "velocity": 0,
        "is_motor": true,
        "motor_id": 0,
        "accel_val": 2000,
        "base_duration_us": 148437
      },
      {
        "id": "M_716",
        "pitch": 67,
        "t_note_us": 110999546,
        "t_trigger_us": 110863583,
        "is_ai": true,
        "track_id": 0,
        "velocity": 0,
        "is_motor": true,
        "motor_id": 1,
        "accel_val": 2000,
        "base_duration_us": 298436
      },
      {
        "id": "M_715",
        "pitch": 55,
        "t_note_us": 111149545,
        "t_trigger_us": 111013582,
        "is_ai": true,
        "track_id": 0,
        "velocity": 0,
        "is_motor": true,
        "motor_id": 0,
        "accel_val": 2000,
        "base_duration_us": 148437
      },
      {
        "id": "M_717",
        "pitch": 50,
        "t_note_us": 111299544,
        "t_trigger_us": 111163581,
        "is_ai": true,
        "track_id": 0,
        "velocity": 0,
        "is_motor": true,
        "motor_id": 0,
        "accel_val": 2000,
        "base_duration_us": 148437
      },
      {
        "id": "M_723",
        "pitch": 62,
        "t_note_us": 111299544,
        "t_trigger_us": 111163581,
        "is_ai": true,
        "track_id": 0,
        "velocity": 0,
        "is_motor": true,
        "motor_id": 1,
        "accel_val": 2000,
        "base_duration_us": 598434
      },
      {
        "id": "M_718",
        "pitch": 47,
        "t_note_us": 111449543,
        "t_trigger_us": 111313580,
        "is_ai": true,
        "track_id": 0,
        "velocity": 0,
        "is_motor": true,
        "motor_id": 0,
        "accel_val": 2000,
        "base_duration_us": 148437
      },
      {
        "id": "M_719",
        "pitch": 31,
        "t_note_us": 111599542,
        "t_trigger_us": 111463579,
        "is_ai": true,
        "track_id": 0,
        "velocity": 0,
        "is_motor": true,
        "motor_id": 0,
        "accel_val": 2000,
        "base_duration_us": 148437
      },
      {
        "id": "M_721",
        "pitch": 55,
        "t_note_us": 111599542,
        "t_trigger_us": 111463579,
        "is_ai": true,
        "track_id": 0,
        "velocity": 0,
        "is_motor": true,
        "motor_id": 2,
        "accel_val": 2000,
        "base_duration_us": 298436
      },
      {
        "id": "M_722",
        "pitch": 50,
        "t_note_us": 111599542,
        "t_trigger_us": 111463579,
        "is_ai": true,
        "track_id": 0,
        "velocity": 0,
        "is_motor": true,
        "motor_id": 3,
        "accel_val": 2000,
        "base_duration_us": 298436
      },
      {
        "id": "M_720",
        "pitch": 41,
        "t_note_us": 111749541,
        "t_trigger_us": 111613578,
        "is_ai": true,
        "track_id": 0,
        "velocity": 0,
        "is_motor": true,
        "motor_id": 0,
        "accel_val": 2000,
        "base_duration_us": 148437
      },
      {
        "id": "M_724",
        "pitch": 47,
        "t_note_us": 111899540,
        "t_trigger_us": 111763577,
        "is_ai": true,
        "track_id": 0,
        "velocity": 0,
        "is_motor": true,
        "motor_id": 0,
        "accel_val": 2000,
        "base_duration_us": 148437
      },
      {
        "id": "M_726",
        "pitch": 60,
        "t_note_us": 111899540,
        "t_trigger_us": 111763577,
        "is_ai": true,
        "track_id": 0,
        "velocity": 0,
        "is_motor": true,
        "motor_id": 1,
        "accel_val": 2000,
        "base_duration_us": 298436
      },
      {
        "id": "M_725",
        "pitch": 41,
        "t_note_us": 112049539,
        "t_trigger_us": 111913576,
        "is_ai": true,
        "track_id": 0,
        "velocity": 0,
        "is_motor": true,
        "motor_id": 0,
        "accel_val": 2000,
        "base_duration_us": 148437
      },
      {
        "id": "M_727",
        "pitch": 35,
        "t_note_us": 112199538,
        "t_trigger_us": 112063575,
        "is_ai": true,
        "track_id": 0,
        "velocity": 0,
        "is_motor": true,
        "motor_id": 0,
        "accel_val": 2000,
        "base_duration_us": 148437
      },
      {
        "id": "M_729",
        "pitch": 60,
        "t_note_us": 112199538,
        "t_trigger_us": 112063575,
        "is_ai": true,
        "track_id": 0,
        "velocity": 0,
        "is_motor": true,
        "motor_id": 1,
        "accel_val": 2000,
        "base_duration_us": 298436
      },
      {
        "id": "M_730",
        "pitch": 48,
        "t_note_us": 112199538,
        "t_trigger_us": 112063575,
        "is_ai": true,
        "track_id": 0,
        "velocity": 0,
        "is_motor": true,
        "motor_id": 2,
        "accel_val": 2000,
        "base_duration_us": 298436
      },
      {
        "id": "M_728",
        "pitch": 41,
        "t_note_us": 112349537,
        "t_trigger_us": 112213574,
        "is_ai": true,
        "track_id": 0,
        "velocity": 0,
        "is_motor": true,
        "motor_id": 0,
        "accel_val": 2000,
        "base_duration_us": 148437
      },
      {
        "id": "M_731",
        "pitch": 47,
        "t_note_us": 112499536,
        "t_trigger_us": 112363573,
        "is_ai": true,
        "track_id": 0,
        "velocity": 0,
        "is_motor": true,
        "motor_id": 0,
        "accel_val": 2000,
        "base_duration_us": 148437
      },
      {
        "id": "M_733",
        "pitch": 57,
        "t_note_us": 112499536,
        "t_trigger_us": 112363573,
        "is_ai": true,
        "track_id": 0,
        "velocity": 0,
        "is_motor": true,
        "motor_id": 1,
        "accel_val": 2000,
        "base_duration_us": 298436
      },
      {
        "id": "M_732",
        "pitch": 41,
        "t_note_us": 112649535,
        "t_trigger_us": 112513572,
        "is_ai": true,
        "track_id": 0,
        "velocity": 0,
        "is_motor": true,
        "motor_id": 0,
        "accel_val": 2000,
        "base_duration_us": 148437
      },
      {
        "id": "M_734",
        "pitch": 36,
        "t_note_us": 112799534,
        "t_trigger_us": 112663571,
        "is_ai": true,
        "track_id": 0,
        "velocity": 0,
        "is_motor": true,
        "motor_id": 0,
        "accel_val": 2000,
        "base_duration_us": 148437
      },
      {
        "id": "M_738",
        "pitch": 62,
        "t_note_us": 112799534,
        "t_trigger_us": 112663571,
        "is_ai": true,
        "track_id": 0,
        "velocity": 0,
        "is_motor": true,
        "motor_id": 1,
        "accel_val": 2000,
        "base_duration_us": 598434
      },
      {
        "id": "M_739",
        "pitch": 50,
        "t_note_us": 112799534,
        "t_trigger_us": 112663571,
        "is_ai": true,
        "track_id": 0,
        "velocity": 0,
        "is_motor": true,
        "motor_id": 2,
        "accel_val": 2000,
        "base_duration_us": 598434
      },
      {
        "id": "M_735",
        "pitch": 43,
        "t_note_us": 112949533,
        "t_trigger_us": 112813570,
        "is_ai": true,
        "track_id": 0,
        "velocity": 0,
        "is_motor": true,
        "motor_id": 0,
        "accel_val": 2000,
        "base_duration_us": 148437
      },
      {
        "id": "M_736",
        "pitch": 48,
        "t_note_us": 113099532,
        "t_trigger_us": 112963569,
        "is_ai": true,
        "track_id": 0,
        "velocity": 0,
        "is_motor": true,
        "motor_id": 0,
        "accel_val": 2000,
        "base_duration_us": 148437
      },
      {
        "id": "M_737",
        "pitch": 43,
        "t_note_us": 113249531,
        "t_trigger_us": 113113568,
        "is_ai": true,
        "track_id": 0,
        "velocity": 0,
        "is_motor": true,
        "motor_id": 0,
        "accel_val": 2000,
        "base_duration_us": 148437
      },
      {
        "id": "M_740",
        "pitch": 52,
        "t_note_us": 113399530,
        "t_trigger_us": 113263567,
        "is_ai": true,
        "track_id": 0,
        "velocity": 0,
        "is_motor": true,
        "motor_id": 0,
        "accel_val": 2000,
        "base_duration_us": 148437
      },
      {
        "id": "M_742",
        "pitch": 62,
        "t_note_us": 113399530,
        "t_trigger_us": 113263567,
        "is_ai": true,
        "track_id": 0,
        "velocity": 0,
        "is_motor": true,
        "motor_id": 1,
        "accel_val": 2000,
        "base_duration_us": 298436
      },
      {
        "id": "M_741",
        "pitch": 48,
        "t_note_us": 113549529,
        "t_trigger_us": 113413566,
        "is_ai": true,
        "track_id": 0,
        "velocity": 0,
        "is_motor": true,
        "motor_id": 0,
        "accel_val": 2000,
        "base_duration_us": 148437
      },
      {
        "id": "M_743",
        "pitch": 43,
        "t_note_us": 113699528,
        "t_trigger_us": 113563565,
        "is_ai": true,
        "track_id": 0,
        "velocity": 0,
        "is_motor": true,
        "motor_id": 0,
        "accel_val": 2000,
        "base_duration_us": 148437
      },
      {
        "id": "M_745",
        "pitch": 64,
        "t_note_us": 113699528,
        "t_trigger_us": 113563565,
        "is_ai": true,
        "track_id": 0,
        "velocity": 0,
        "is_motor": true,
        "motor_id": 1,
        "accel_val": 2000,
        "base_duration_us": 298436
      },
      {
        "id": "M_744",
        "pitch": 40,
        "t_note_us": 113849527,
        "t_trigger_us": 113713564,
        "is_ai": true,
        "track_id": 0,
        "velocity": 0,
        "is_motor": true,
        "motor_id": 0,
        "accel_val": 2000,
        "base_duration_us": 148437
      },
      {
        "id": "M_746",
        "pitch": 36,
        "t_note_us": 113999526,
        "t_trigger_us": 113863563,
        "is_ai": true,
        "track_id": 0,
        "velocity": 0,
        "is_motor": true,
        "motor_id": 0,
        "accel_val": 2000,
        "base_duration_us": 148437
      },
      {
        "id": "M_751",
        "pitch": 62,
        "t_note_us": 113999526,
        "t_trigger_us": 113863563,
        "is_ai": true,
        "track_id": 0,
        "velocity": 0,
        "is_motor": true,
        "motor_id": 1,
        "accel_val": 2000,
        "base_duration_us": 898432
      },
      {
        "id": "M_752",
        "pitch": 50,
        "t_note_us": 113999526,
        "t_trigger_us": 113863563,
        "is_ai": true,
        "track_id": 0,
        "velocity": 0,
        "is_motor": true,
        "motor_id": 2,
        "accel_val": 2000,
        "base_duration_us": 898432
      },
      {
        "id": "M_747",
        "pitch": 48,
        "t_note_us": 114149525,
        "t_trigger_us": 114013562,
        "is_ai": true,
        "track_id": 0,
        "velocity": 0,
        "is_motor": true,
        "motor_id": 0,
        "accel_val": 2000,
        "base_duration_us": 148437
      },
      {
        "id": "M_748",
        "pitch": 52,
        "t_note_us": 114299524,
        "t_trigger_us": 114163561,
        "is_ai": true,
        "track_id": 0,
        "velocity": 0,
        "is_motor": true,
        "motor_id": 0,
        "accel_val": 2000,
        "base_duration_us": 148437
      },
      {
        "id": "M_749",
        "pitch": 48,
        "t_note_us": 114449523,
        "t_trigger_us": 114313560,
        "is_ai": true,
        "track_id": 0,
        "velocity": 0,
        "is_motor": true,
        "motor_id": 0,
        "accel_val": 2000,
        "base_duration_us": 148437
      },
      {
        "id": "M_750",
        "pitch": 36,
        "t_note_us": 114599522,
        "t_trigger_us": 114463559,
        "is_ai": true,
        "track_id": 0,
        "velocity": 0,
        "is_motor": true,
        "motor_id": 0,
        "accel_val": 2000,
        "base_duration_us": 148437
      },
      {
        "id": "M_753",
        "pitch": 48,
        "t_note_us": 114749521,
        "t_trigger_us": 114613558,
        "is_ai": true,
        "track_id": 0,
        "velocity": 0,
        "is_motor": true,
        "motor_id": 0,
        "accel_val": 2000,
        "base_duration_us": 148437
      },
      {
        "id": "M_754",
        "pitch": 35,
        "t_note_us": 114899520,
        "t_trigger_us": 114763557,
        "is_ai": true,
        "track_id": 0,
        "velocity": 0,
        "is_motor": true,
        "motor_id": 0,
        "accel_val": 2000,
        "base_duration_us": 148437
      },
      {
        "id": "M_758",
        "pitch": 74,
        "t_note_us": 114899520,
        "t_trigger_us": 114763557,
        "is_ai": true,
        "track_id": 0,
        "velocity": 0,
        "is_motor": true,
        "motor_id": 1,
        "accel_val": 2000,
        "base_duration_us": 598434
      },
      {
        "id": "M_759",
        "pitch": 62,
        "t_note_us": 114899520,
        "t_trigger_us": 114763557,
        "is_ai": true,
        "track_id": 0,
        "velocity": 0,
        "is_motor": true,
        "motor_id": 2,
        "accel_val": 2000,
        "base_duration_us": 598434
      },
      {
        "id": "M_755",
        "pitch": 47,
        "t_note_us": 115049519,
        "t_trigger_us": 114913556,
        "is_ai": true,
        "track_id": 0,
        "velocity": 0,
        "is_motor": true,
        "motor_id": 0,
        "accel_val": 2000,
        "base_duration_us": 148437
      },
      {
        "id": "M_756",
        "pitch": 33,
        "t_note_us": 115199518,
        "t_trigger_us": 115063555,
        "is_ai": true,
        "track_id": 0,
        "velocity": 0,
        "is_motor": true,
        "motor_id": 0,
        "accel_val": 2000,
        "base_duration_us": 148437
      },
      {
        "id": "M_757",
        "pitch": 40,
        "t_note_us": 115349517,
        "t_trigger_us": 115213554,
        "is_ai": true,
        "track_id": 0,
        "velocity": 0,
        "is_motor": true,
        "motor_id": 0,
        "accel_val": 2000,
        "base_duration_us": 148437
      },
      {
        "id": "M_760",
        "pitch": 45,
        "t_note_us": 115499516,
        "t_trigger_us": 115363553,
        "is_ai": true,
        "track_id": 0,
        "velocity": 0,
        "is_motor": true,
        "motor_id": 0,
        "accel_val": 2000,
        "base_duration_us": 148437
      },
      {
        "id": "M_762",
        "pitch": 74,
        "t_note_us": 115499516,
        "t_trigger_us": 115363553,
        "is_ai": true,
        "track_id": 0,
        "velocity": 0,
        "is_motor": true,
        "motor_id": 1,
        "accel_val": 2000,
        "base_duration_us": 298436
      },
      {
        "id": "M_763",
        "pitch": 62,
        "t_note_us": 115499516,
        "t_trigger_us": 115363553,
        "is_ai": true,
        "track_id": 0,
        "velocity": 0,
        "is_motor": true,
        "motor_id": 2,
        "accel_val": 2000,
        "base_duration_us": 298436
      },
      {
        "id": "M_761",
        "pitch": 40,
        "t_note_us": 115649515,
        "t_trigger_us": 115513552,
        "is_ai": true,
        "track_id": 0,
        "velocity": 0,
        "is_motor": true,
        "motor_id": 0,
        "accel_val": 2000,
        "base_duration_us": 148437
      },
      {
        "id": "M_764",
        "pitch": 48,
        "t_note_us": 115799514,
        "t_trigger_us": 115663551,
        "is_ai": true,
        "track_id": 0,
        "velocity": 0,
        "is_motor": true,
        "motor_id": 0,
        "accel_val": 2000,
        "base_duration_us": 148437
      },
      {
        "id": "M_766",
        "pitch": 74,
        "t_note_us": 115799514,
        "t_trigger_us": 115663551,
        "is_ai": true,
        "track_id": 0,
        "velocity": 0,
        "is_motor": true,
        "motor_id": 1,
        "accel_val": 2000,
        "base_duration_us": 298436
      },
      {
        "id": "M_767",
        "pitch": 62,
        "t_note_us": 115799514,
        "t_trigger_us": 115663551,
        "is_ai": true,
        "track_id": 0,
        "velocity": 0,
        "is_motor": true,
        "motor_id": 2,
        "accel_val": 2000,
        "base_duration_us": 298436
      },
      {
        "id": "M_765",
        "pitch": 45,
        "t_note_us": 115949513,
        "t_trigger_us": 115813550,
        "is_ai": true,
        "track_id": 0,
        "velocity": 0,
        "is_motor": true,
        "motor_id": 0,
        "accel_val": 2000,
        "base_duration_us": 148437
      },
      {
        "id": "M_768",
        "pitch": 40,
        "t_note_us": 116099512,
        "t_trigger_us": 115963549,
        "is_ai": true,
        "track_id": 0,
        "velocity": 0,
        "is_motor": true,
        "motor_id": 0,
        "accel_val": 2000,
        "base_duration_us": 148437
      },
      {
        "id": "M_770",
        "pitch": 72,
        "t_note_us": 116099512,
        "t_trigger_us": 115963549,
        "is_ai": true,
        "track_id": 0,
        "velocity": 0,
        "is_motor": true,
        "motor_id": 1,
        "accel_val": 2000,
        "base_duration_us": 298436
      },
      {
        "id": "M_771",
        "pitch": 60,
        "t_note_us": 116099512,
        "t_trigger_us": 115963549,
        "is_ai": true,
        "track_id": 0,
        "velocity": 0,
        "is_motor": true,
        "motor_id": 2,
        "accel_val": 2000,
        "base_duration_us": 298436
      },
      {
        "id": "M_769",
        "pitch": 36,
        "t_note_us": 116249511,
        "t_trigger_us": 116113548,
        "is_ai": true,
        "track_id": 0,
        "velocity": 0,
        "is_motor": true,
        "motor_id": 0,
        "accel_val": 2000,
        "base_duration_us": 148437
      },
      {
        "id": "M_772",
        "pitch": 33,
        "t_note_us": 116399510,
        "t_trigger_us": 116263547,
        "is_ai": true,
        "track_id": 0,
        "velocity": 0,
        "is_motor": true,
        "motor_id": 0,
        "accel_val": 2000,
        "base_duration_us": 148437
      },
      {
        "id": "M_776",
        "pitch": 72,
        "t_note_us": 116399510,
        "t_trigger_us": 116263547,
        "is_ai": true,
        "track_id": 0,
        "velocity": 0,
        "is_motor": true,
        "motor_id": 1,
        "accel_val": 2000,
        "base_duration_us": 598434
      },
      {
        "id": "M_777",
        "pitch": 69,
        "t_note_us": 116399510,
        "t_trigger_us": 116263547,
        "is_ai": true,
        "track_id": 0,
        "velocity": 0,
        "is_motor": true,
        "motor_id": 2,
        "accel_val": 2000,
        "base_duration_us": 598434
      },
      {
        "id": "M_778",
        "pitch": 64,
        "t_note_us": 116399510,
        "t_trigger_us": 116263547,
        "is_ai": true,
        "track_id": 0,
        "velocity": 0,
        "is_motor": true,
        "motor_id": 3,
        "accel_val": 2000,
        "base_duration_us": 598434
      },
      {
        "id": "M_773",
        "pitch": 45,
        "t_note_us": 116549509,
        "t_trigger_us": 116413546,
        "is_ai": true,
        "track_id": 0,
        "velocity": 0,
        "is_motor": true,
        "motor_id": 0,
        "accel_val": 2000,
        "base_duration_us": 148437
      },
      {
        "id": "M_774",
        "pitch": 48,
        "t_note_us": 116699508,
        "t_trigger_us": 116563545,
        "is_ai": true,
        "track_id": 0,
        "velocity": 0,
        "is_motor": true,
        "motor_id": 0,
        "accel_val": 2000,
        "base_duration_us": 148437
      },
      {
        "id": "M_775",
        "pitch": 45,
        "t_note_us": 116849507,
        "t_trigger_us": 116713544,
        "is_ai": true,
        "track_id": 0,
        "velocity": 0,
        "is_motor": true,
        "motor_id": 0,
        "accel_val": 2000,
        "base_duration_us": 148437
      },
      {
        "id": "M_779",
        "pitch": 36,
        "t_note_us": 116999506,
        "t_trigger_us": 116863543,
        "is_ai": true,
        "track_id": 0,
        "velocity": 0,
        "is_motor": true,
        "motor_id": 0,
        "accel_val": 2000,
        "base_duration_us": 298437
      },
      {
        "id": "M_780",
        "pitch": 76,
        "t_note_us": 116999506,
        "t_trigger_us": 116863543,
        "is_ai": true,
        "track_id": 0,
        "velocity": 0,
        "is_motor": true,
        "motor_id": 2,
        "accel_val": 2000,
        "base_duration_us": 298437
      },
      {
        "id": "M_781",
        "pitch": 64,
        "t_note_us": 116999506,
        "t_trigger_us": 116863543,
        "is_ai": true,
        "track_id": 0,
        "velocity": 0,
        "is_motor": true,
        "motor_id": 1,
        "accel_val": 2000,
        "base_duration_us": 298437
      },
      {
        "id": "M_782",
        "pitch": 48,
        "t_note_us": 117299505,
        "t_trigger_us": 117163542,
        "is_ai": true,
        "track_id": 0,
        "velocity": 0,
        "is_motor": true,
        "motor_id": 0,
        "accel_val": 2000,
        "base_duration_us": 298437
      },
      {
        "id": "M_783",
        "pitch": 77,
        "t_note_us": 117299505,
        "t_trigger_us": 117163542,
        "is_ai": true,
        "track_id": 0,
        "velocity": 0,
        "is_motor": true,
        "motor_id": 2,
        "accel_val": 2000,
        "base_duration_us": 298437
      },
      {
        "id": "M_784",
        "pitch": 65,
        "t_note_us": 117299505,
        "t_trigger_us": 117163542,
        "is_ai": true,
        "track_id": 0,
        "velocity": 0,
        "is_motor": true,
        "motor_id": 1,
        "accel_val": 2000,
        "base_duration_us": 298437
      },
      {
        "id": "M_785",
        "pitch": 29,
        "t_note_us": 117599504,
        "t_trigger_us": 117463541,
        "is_ai": true,
        "track_id": 0,
        "velocity": 0,
        "is_motor": true,
        "motor_id": 0,
        "accel_val": 2000,
        "base_duration_us": 298437
      },
      {
        "id": "M_788",
        "pitch": 67,
        "t_note_us": 117599504,
        "t_trigger_us": 117463541,
        "is_ai": true,
        "track_id": 0,
        "velocity": 0,
        "is_motor": true,
        "motor_id": 1,
        "accel_val": 2000,
        "base_duration_us": 599997
      },
      {
        "id": "M_803",
        "pitch": 67,
        "t_note_us": 117599504,
        "t_trigger_us": 117463541,
        "is_ai": true,
        "track_id": 0,
        "velocity": 0,
        "is_motor": true,
        "motor_id": 2,
        "accel_val": 2000,
        "base_duration_us": 1798427
      },
      {
        "id": "M_786",
        "pitch": 33,
        "t_note_us": 117899503,
        "t_trigger_us": 117763540,
        "is_ai": true,
        "track_id": 0,
        "velocity": 0,
        "is_motor": true,
        "motor_id": 0,
        "accel_val": 2000,
        "base_duration_us": 148437
      },
      {
        "id": "M_787",
        "pitch": 36,
        "t_note_us": 118049502,
        "t_trigger_us": 117913539,
        "is_ai": true,
        "track_id": 0,
        "velocity": 0,
        "is_motor": true,
        "motor_id": 0,
        "accel_val": 2000,
        "base_duration_us": 148437
      },
      {
        "id": "M_789",
        "pitch": 41,
        "t_note_us": 118199501,
        "t_trigger_us": 118063538,
        "is_ai": true,
        "track_id": 0,
        "velocity": 0,
        "is_motor": true,
        "motor_id": 0,
        "accel_val": 2000,
        "base_duration_us": 148437
      },
      {
        "id": "M_802",
        "pitch": 67,
        "t_note_us": 118199501,
        "t_trigger_us": 118063538,
        "is_ai": true,
        "track_id": 0,
        "velocity": 0,
        "is_motor": true,
        "motor_id": 1,
        "accel_val": 2000,
        "base_duration_us": 1198430
      },
      {
        "id": "M_790",
        "pitch": 36,
        "t_note_us": 118349500,
        "t_trigger_us": 118213537,
        "is_ai": true,
        "track_id": 0,
        "velocity": 0,
        "is_motor": true,
        "motor_id": 0,
        "accel_val": 2000,
        "base_duration_us": 148437
      },
      {
        "id": "M_791",
        "pitch": 64,
        "t_note_us": 118349500,
        "t_trigger_us": 118213537,
        "is_ai": true,
        "track_id": 0,
        "velocity": 0,
        "is_motor": true,
        "motor_id": 3,
        "accel_val": 2000,
        "base_duration_us": 148437
      },
      {
        "id": "M_792",
        "pitch": 41,
        "t_note_us": 118499499,
        "t_trigger_us": 118363536,
        "is_ai": true,
        "track_id": 0,
        "velocity": 0,
        "is_motor": true,
        "motor_id": 0,
        "accel_val": 2000,
        "base_duration_us": 148437
      },
      {
        "id": "M_793",
        "pitch": 62,
        "t_note_us": 118499499,
        "t_trigger_us": 118363536,
        "is_ai": true,
        "track_id": 0,
        "velocity": 0,
        "is_motor": true,
        "motor_id": 3,
        "accel_val": 2000,
        "base_duration_us": 148437
      },
      {
        "id": "M_794",
        "pitch": 45,
        "t_note_us": 118649498,
        "t_trigger_us": 118513535,
        "is_ai": true,
        "track_id": 0,
        "velocity": 0,
        "is_motor": true,
        "motor_id": 0,
        "accel_val": 2000,
        "base_duration_us": 148437
      },
      {
        "id": "M_795",
        "pitch": 60,
        "t_note_us": 118649498,
        "t_trigger_us": 118513535,
        "is_ai": true,
        "track_id": 0,
        "velocity": 0,
        "is_motor": true,
        "motor_id": 3,
        "accel_val": 2000,
        "base_duration_us": 148437
      },
      {
        "id": "M_796",
        "pitch": 48,
        "t_note_us": 118799497,
        "t_trigger_us": 118663534,
        "is_ai": true,
        "track_id": 0,
        "velocity": 0,
        "is_motor": true,
        "motor_id": 0,
        "accel_val": 2000,
        "base_duration_us": 148437
      },
      {
        "id": "M_797",
        "pitch": 59,
        "t_note_us": 118799497,
        "t_trigger_us": 118663534,
        "is_ai": true,
        "track_id": 0,
        "velocity": 0,
        "is_motor": true,
        "motor_id": 3,
        "accel_val": 2000,
        "base_duration_us": 148437
      },
      {
        "id": "M_798",
        "pitch": 45,
        "t_note_us": 118949496,
        "t_trigger_us": 118813533,
        "is_ai": true,
        "track_id": 0,
        "velocity": 0,
        "is_motor": true,
        "motor_id": 0,
        "accel_val": 2000,
        "base_duration_us": 148437
      },
      {
        "id": "M_799",
        "pitch": 57,
        "t_note_us": 118949496,
        "t_trigger_us": 118813533,
        "is_ai": true,
        "track_id": 0,
        "velocity": 0,
        "is_motor": true,
        "motor_id": 3,
        "accel_val": 2000,
        "base_duration_us": 148437
      },
      {
        "id": "M_800",
        "pitch": 41,
        "t_note_us": 119099495,
        "t_trigger_us": 118963532,
        "is_ai": true,
        "track_id": 0,
        "velocity": 0,
        "is_motor": true,
        "motor_id": 0,
        "accel_val": 2000,
        "base_duration_us": 148437
      },
      {
        "id": "M_801",
        "pitch": 59,
        "t_note_us": 119099495,
        "t_trigger_us": 118963532,
        "is_ai": true,
        "track_id": 0,
        "velocity": 0,
        "is_motor": true,
        "motor_id": 3,
        "accel_val": 2000,
        "base_duration_us": 148437
      },
      {
        "id": "M_804",
        "pitch": 36,
        "t_note_us": 119249494,
        "t_trigger_us": 119113531,
        "is_ai": true,
        "track_id": 0,
        "velocity": 0,
        "is_motor": true,
        "motor_id": 0,
        "accel_val": 2000,
        "base_duration_us": 148437
      },
      {
        "id": "M_805",
        "pitch": 62,
        "t_note_us": 119249494,
        "t_trigger_us": 119113531,
        "is_ai": true,
        "track_id": 0,
        "velocity": 0,
        "is_motor": true,
        "motor_id": 3,
        "accel_val": 2000,
        "base_duration_us": 148437
      },
      {
        "id": "M_806",
        "pitch": 29,
        "t_note_us": 119399493,
        "t_trigger_us": 119263530,
        "is_ai": true,
        "track_id": 0,
        "velocity": 0,
        "is_motor": true,
        "motor_id": 0,
        "accel_val": 2000,
        "base_duration_us": 148437
      },
      {
        "id": "M_813",
        "pitch": 76,
        "t_note_us": 119399493,
        "t_trigger_us": 119263530,
        "is_ai": true,
        "track_id": 0,
        "velocity": 0,
        "is_motor": true,
        "motor_id": 2,
        "accel_val": 2000,
        "base_duration_us": 598434
      },
      {
        "id": "M_814",
        "pitch": 64,
        "t_note_us": 119399493,
        "t_trigger_us": 119263530,
        "is_ai": true,
        "track_id": 0,
        "velocity": 0,
        "is_motor": true,
        "motor_id": 1,
        "accel_val": 2000,
        "base_duration_us": 598434
      },
      {
        "id": "M_807",
        "pitch": 36,
        "t_note_us": 119549492,
        "t_trigger_us": 119413529,
        "is_ai": true,
        "track_id": 0,
        "velocity": 0,
        "is_motor": true,
        "motor_id": 0,
        "accel_val": 2000,
        "base_duration_us": 148437
      },
      {
        "id": "M_808",
        "pitch": 60,
        "t_note_us": 119549492,
        "t_trigger_us": 119413529,
        "is_ai": true,
        "track_id": 0,
        "velocity": 0,
        "is_motor": true,
        "motor_id": 3,
        "accel_val": 2000,
        "base_duration_us": 148437
      },
      {
        "id": "M_809",
        "pitch": 41,
        "t_note_us": 119699491,
        "t_trigger_us": 119563528,
        "is_ai": true,
        "track_id": 0,
        "velocity": 0,
        "is_motor": true,
        "motor_id": 0,
        "accel_val": 2000,
        "base_duration_us": 148437
      },
      {
        "id": "M_810",
        "pitch": 57,
        "t_note_us": 119699491,
        "t_trigger_us": 119563528,
        "is_ai": true,
        "track_id": 0,
        "velocity": 0,
        "is_motor": true,
        "motor_id": 3,
        "accel_val": 2000,
        "base_duration_us": 148437
      },
      {
        "id": "M_811",
        "pitch": 36,
        "t_note_us": 119849490,
        "t_trigger_us": 119713527,
        "is_ai": true,
        "track_id": 0,
        "velocity": 0,
        "is_motor": true,
        "motor_id": 0,
        "accel_val": 2000,
        "base_duration_us": 148437
      },
      {
        "id": "M_812",
        "pitch": 60,
        "t_note_us": 119849490,
        "t_trigger_us": 119713527,
        "is_ai": true,
        "track_id": 0,
        "velocity": 0,
        "is_motor": true,
        "motor_id": 3,
        "accel_val": 2000,
        "base_duration_us": 148437
      },
      {
        "id": "M_815",
        "pitch": 29,
        "t_note_us": 119999489,
        "t_trigger_us": 119863526,
        "is_ai": true,
        "track_id": 0,
        "velocity": 0,
        "is_motor": true,
        "motor_id": 0,
        "accel_val": 2000,
        "base_duration_us": 298437
      },
      {
        "id": "M_820",
        "pitch": 62,
        "t_note_us": 119999489,
        "t_trigger_us": 119863526,
        "is_ai": true,
        "track_id": 0,
        "velocity": 0,
        "is_motor": true,
        "motor_id": 1,
        "accel_val": 2000,
        "base_duration_us": 599997
      },
      {
        "id": "M_835",
        "pitch": 74,
        "t_note_us": 119999489,
        "t_trigger_us": 119863526,
        "is_ai": true,
        "track_id": 0,
        "velocity": 0,
        "is_motor": true,
        "motor_id": 2,
        "accel_val": 2000,
        "base_duration_us": 1798427
      },
      {
        "id": "M_816",
        "pitch": 32,
        "t_note_us": 120299488,
        "t_trigger_us": 120163525,
        "is_ai": true,
        "track_id": 0,
        "velocity": 0,
        "is_motor": true,
        "motor_id": 0,
        "accel_val": 2000,
        "base_duration_us": 148437
      },
      {
        "id": "M_817",
        "pitch": 56,
        "t_note_us": 120299488,
        "t_trigger_us": 120163525,
        "is_ai": true,
        "track_id": 0,
        "velocity": 0,
        "is_motor": true,
        "motor_id": 3,
        "accel_val": 2000,
        "base_duration_us": 148437
      },
      {
        "id": "M_818",
        "pitch": 38,
        "t_note_us": 120449487,
        "t_trigger_us": 120313524,
        "is_ai": true,
        "track_id": 0,
        "velocity": 0,
        "is_motor": true,
        "motor_id": 0,
        "accel_val": 2000,
        "base_duration_us": 148437
      },
      {
        "id": "M_819",
        "pitch": 60,
        "t_note_us": 120449487,
        "t_trigger_us": 120313524,
        "is_ai": true,
        "track_id": 0,
        "velocity": 0,
        "is_motor": true,
        "motor_id": 3,
        "accel_val": 2000,
        "base_duration_us": 148437
      },
      {
        "id": "M_821",
        "pitch": 41,
        "t_note_us": 120599486,
        "t_trigger_us": 120463523,
        "is_ai": true,
        "track_id": 0,
        "velocity": 0,
        "is_motor": true,
        "motor_id": 0,
        "accel_val": 2000,
        "base_duration_us": 148437
      },
      {
        "id": "M_824",
        "pitch": 62,
        "t_note_us": 120599486,
        "t_trigger_us": 120463523,
        "is_ai": true,
        "track_id": 0,
        "velocity": 0,
        "is_motor": true,
        "motor_id": 1,
        "accel_val": 2000,
        "base_duration_us": 299998
      },
      {
        "id": "M_822",
        "pitch": 38,
        "t_note_us": 120749485,
        "t_trigger_us": 120613522,
        "is_ai": true,
        "track_id": 0,
        "velocity": 0,
        "is_motor": true,
        "motor_id": 0,
        "accel_val": 2000,
        "base_duration_us": 148437
      },
      {
        "id": "M_823",
        "pitch": 60,
        "t_note_us": 120749485,
        "t_trigger_us": 120613522,
        "is_ai": true,
        "track_id": 0,
        "velocity": 0,
        "is_motor": true,
        "motor_id": 3,
        "accel_val": 2000,
        "base_duration_us": 148437
      },
      {
        "id": "M_825",
        "pitch": 41,
        "t_note_us": 120899484,
        "t_trigger_us": 120763521,
        "is_ai": true,
        "track_id": 0,
        "velocity": 0,
        "is_motor": true,
        "motor_id": 0,
        "accel_val": 2000,
        "base_duration_us": 148437
      },
      {
        "id": "M_834",
        "pitch": 62,
        "t_note_us": 120899484,
        "t_trigger_us": 120763521,
        "is_ai": true,
        "track_id": 0,
        "velocity": 0,
        "is_motor": true,
        "motor_id": 1,
        "accel_val": 2000,
        "base_duration_us": 749995
      },
      {
        "id": "M_826",
        "pitch": 44,
        "t_note_us": 121049483,
        "t_trigger_us": 120913520,
        "is_ai": true,
        "track_id": 0,
        "velocity": 0,
        "is_motor": true,
        "motor_id": 0,
        "accel_val": 2000,
        "base_duration_us": 148437
      },
      {
        "id": "M_827",
        "pitch": 64,
        "t_note_us": 121049483,
        "t_trigger_us": 120913520,
        "is_ai": true,
        "track_id": 0,
        "velocity": 0,
        "is_motor": true,
        "motor_id": 3,
        "accel_val": 2000,
        "base_duration_us": 148437
      },
      {
        "id": "M_828",
        "pitch": 48,
        "t_note_us": 121199482,
        "t_trigger_us": 121063519,
        "is_ai": true,
        "track_id": 0,
        "velocity": 0,
        "is_motor": true,
        "motor_id": 0,
        "accel_val": 2000,
        "base_duration_us": 148437
      },
      {
        "id": "M_829",
        "pitch": 71,
        "t_note_us": 121199482,
        "t_trigger_us": 121063519,
        "is_ai": true,
        "track_id": 0,
        "velocity": 0,
        "is_motor": true,
        "motor_id": 3,
        "accel_val": 2000,
        "base_duration_us": 148437
      },
      {
        "id": "M_830",
        "pitch": 44,
        "t_note_us": 121349481,
        "t_trigger_us": 121213518,
        "is_ai": true,
        "track_id": 0,
        "velocity": 0,
        "is_motor": true,
        "motor_id": 0,
        "accel_val": 2000,
        "base_duration_us": 148437
      },
      {
        "id": "M_831",
        "pitch": 68,
        "t_note_us": 121349481,
        "t_trigger_us": 121213518,
        "is_ai": true,
        "track_id": 0,
        "velocity": 0,
        "is_motor": true,
        "motor_id": 3,
        "accel_val": 2000,
        "base_duration_us": 148437
      },
      {
        "id": "M_832",
        "pitch": 41,
        "t_note_us": 121499480,
        "t_trigger_us": 121363517,
        "is_ai": true,
        "track_id": 0,
        "velocity": 0,
        "is_motor": true,
        "motor_id": 0,
        "accel_val": 2000,
        "base_duration_us": 148437
      },
      {
        "id": "M_833",
        "pitch": 64,
        "t_note_us": 121499480,
        "t_trigger_us": 121363517,
        "is_ai": true,
        "track_id": 0,
        "velocity": 0,
        "is_motor": true,
        "motor_id": 3,
        "accel_val": 2000,
        "base_duration_us": 148437
      },
      {
        "id": "M_836",
        "pitch": 38,
        "t_note_us": 121649479,
        "t_trigger_us": 121513516,
        "is_ai": true,
        "track_id": 0,
        "velocity": 0,
        "is_motor": true,
        "motor_id": 0,
        "accel_val": 2000,
        "base_duration_us": 148437
      },
      {
        "id": "M_837",
        "pitch": 62,
        "t_note_us": 121649479,
        "t_trigger_us": 121513516,
        "is_ai": true,
        "track_id": 0,
        "velocity": 0,
        "is_motor": true,
        "motor_id": 1,
        "accel_val": 2000,
        "base_duration_us": 148437
      },
      {
        "id": "M_838",
        "pitch": 29,
        "t_note_us": 121799478,
        "t_trigger_us": 121663515,
        "is_ai": true,
        "track_id": 0,
        "velocity": 0,
        "is_motor": true,
        "motor_id": 0,
        "accel_val": 2000,
        "base_duration_us": 148437
      },
      {
        "id": "M_840",
        "pitch": 76,
        "t_note_us": 121799478,
        "t_trigger_us": 121663515,
        "is_ai": true,
        "track_id": 0,
        "velocity": 0,
        "is_motor": true,
        "motor_id": 2,
        "accel_val": 2000,
        "base_duration_us": 298436
      },
      {
        "id": "M_841",
        "pitch": 64,
        "t_note_us": 121799478,
        "t_trigger_us": 121663515,
        "is_ai": true,
        "track_id": 0,
        "velocity": 0,
        "is_motor": true,
        "motor_id": 1,
        "accel_val": 2000,
        "base_duration_us": 298436
      },
      {
        "id": "M_839",
        "pitch": 38,
        "t_note_us": 121949477,
        "t_trigger_us": 121813514,
        "is_ai": true,
        "track_id": 0,
        "velocity": 0,
        "is_motor": true,
        "motor_id": 0,
        "accel_val": 2000,
        "base_duration_us": 148437
      },
      {
        "id": "M_842",
        "pitch": 41,
        "t_note_us": 122099476,
        "t_trigger_us": 121963513,
        "is_ai": true,
        "track_id": 0,
        "velocity": 0,
        "is_motor": true,
        "motor_id": 0,
        "accel_val": 2000,
        "base_duration_us": 148437
      },
      {
        "id": "M_844",
        "pitch": 76,
        "t_note_us": 122099476,
        "t_trigger_us": 121963513,
        "is_ai": true,
        "track_id": 0,
        "velocity": 0,
        "is_motor": true,
        "motor_id": 2,
        "accel_val": 2000,
        "base_duration_us": 298436
      },
      {
        "id": "M_845",
        "pitch": 64,
        "t_note_us": 122099476,
        "t_trigger_us": 121963513,
        "is_ai": true,
        "track_id": 0,
        "velocity": 0,
        "is_motor": true,
        "motor_id": 1,
        "accel_val": 2000,
        "base_duration_us": 298436
      },
      {
        "id": "M_843",
        "pitch": 36,
        "t_note_us": 122249475,
        "t_trigger_us": 122113512,
        "is_ai": true,
        "track_id": 0,
        "velocity": 0,
        "is_motor": true,
        "motor_id": 0,
        "accel_val": 2000,
        "base_duration_us": 148437
      },
      {
        "id": "M_846",
        "pitch": 28,
        "t_note_us": 122399474,
        "t_trigger_us": 122263511,
        "is_ai": true,
        "track_id": 0,
        "velocity": 0,
        "is_motor": true,
        "motor_id": 0,
        "accel_val": 2000,
        "base_duration_us": 298437
      },
      {
        "id": "M_851",
        "pitch": 62,
        "t_note_us": 122399474,
        "t_trigger_us": 122263511,
        "is_ai": true,
        "track_id": 0,
        "velocity": 0,
        "is_motor": true,
        "motor_id": 1,
        "accel_val": 2000,
        "base_duration_us": 599997
      },
      {
        "id": "M_859",
        "pitch": 74,
        "t_note_us": 122399474,
        "t_trigger_us": 122263511,
        "is_ai": true,
        "track_id": 0,
        "velocity": 0,
        "is_motor": true,
        "motor_id": 2,
        "accel_val": 2000,
        "base_duration_us": 1498429
      },
      {
        "id": "M_847",
        "pitch": 35,
        "t_note_us": 122699473,
        "t_trigger_us": 122563510,
        "is_ai": true,
        "track_id": 0,
        "velocity": 0,
        "is_motor": true,
        "motor_id": 0,
        "accel_val": 2000,
        "base_duration_us": 148437
      },
      {
        "id": "M_848",
        "pitch": 57,
        "t_note_us": 122699473,
        "t_trigger_us": 122563510,
        "is_ai": true,
        "track_id": 0,
        "velocity": 0,
        "is_motor": true,
        "motor_id": 3,
        "accel_val": 2000,
        "base_duration_us": 148437
      },
      {
        "id": "M_849",
        "pitch": 40,
        "t_note_us": 122849472,
        "t_trigger_us": 122713509,
        "is_ai": true,
        "track_id": 0,
        "velocity": 0,
        "is_motor": true,
        "motor_id": 0,
        "accel_val": 2000,
        "base_duration_us": 148437
      },
      {
        "id": "M_850",
        "pitch": 60,
        "t_note_us": 122849472,
        "t_trigger_us": 122713509,
        "is_ai": true,
        "track_id": 0,
        "velocity": 0,
        "is_motor": true,
        "motor_id": 3,
        "accel_val": 2000,
        "base_duration_us": 148437
      },
      {
        "id": "M_852",
        "pitch": 43,
        "t_note_us": 122999471,
        "t_trigger_us": 122863508,
        "is_ai": true,
        "track_id": 0,
        "velocity": 0,
        "is_motor": true,
        "motor_id": 0,
        "accel_val": 2000,
        "base_duration_us": 148437
      },
      {
        "id": "M_858",
        "pitch": 62,
        "t_note_us": 122999471,
        "t_trigger_us": 122863508,
        "is_ai": true,
        "track_id": 0,
        "velocity": 0,
        "is_motor": true,
        "motor_id": 1,
        "accel_val": 2000,
        "base_duration_us": 898432
      },
      {
        "id": "M_853",
        "pitch": 40,
        "t_note_us": 123149470,
        "t_trigger_us": 123013507,
        "is_ai": true,
        "track_id": 0,
        "velocity": 0,
        "is_motor": true,
        "motor_id": 0,
        "accel_val": 2000,
        "base_duration_us": 148437
      },
      {
        "id": "M_854",
        "pitch": 43,
        "t_note_us": 123299469,
        "t_trigger_us": 123163506,
        "is_ai": true,
        "track_id": 0,
        "velocity": 0,
        "is_motor": true,
        "motor_id": 0,
        "accel_val": 2000,
        "base_duration_us": 148437
      },
      {
        "id": "M_856",
        "pitch": 64,
        "t_note_us": 123299469,
        "t_trigger_us": 123163506,
        "is_ai": true,
        "track_id": 0,
        "velocity": 0,
        "is_motor": true,
        "motor_id": 3,
        "accel_val": 2000,
        "base_duration_us": 298436
      },
      {
        "id": "M_855",
        "pitch": 47,
        "t_note_us": 123449468,
        "t_trigger_us": 123313505,
        "is_ai": true,
        "track_id": 0,
        "velocity": 0,
        "is_motor": true,
        "motor_id": 0,
        "accel_val": 2000,
        "base_duration_us": 148437
      },
      {
        "id": "M_857",
        "pitch": 50,
        "t_note_us": 123599467,
        "t_trigger_us": 123463504,
        "is_ai": true,
        "track_id": 0,
        "velocity": 0,
        "is_motor": true,
        "motor_id": 0,
        "accel_val": 2000,
        "base_duration_us": 148437
      },
      {
        "id": "M_861",
        "pitch": 71,
        "t_note_us": 123599467,
        "t_trigger_us": 123463504,
        "is_ai": true,
        "track_id": 0,
        "velocity": 0,
        "is_motor": true,
        "motor_id": 3,
        "accel_val": 2000,
        "base_duration_us": 298436
      },
      {
        "id": "M_860",
        "pitch": 47,
        "t_note_us": 123749466,
        "t_trigger_us": 123613503,
        "is_ai": true,
        "track_id": 0,
        "velocity": 0,
        "is_motor": true,
        "motor_id": 0,
        "accel_val": 2000,
        "base_duration_us": 148437
      },
      {
        "id": "M_862",
        "pitch": 43,
        "t_note_us": 123899465,
        "t_trigger_us": 123763502,
        "is_ai": true,
        "track_id": 0,
        "velocity": 0,
        "is_motor": true,
        "motor_id": 0,
        "accel_val": 2000,
        "base_duration_us": 148437
      },
      {
        "id": "M_864",
        "pitch": 65,
        "t_note_us": 123899465,
        "t_trigger_us": 123763502,
        "is_ai": true,
        "track_id": 0,
        "velocity": 0,
        "is_motor": true,
        "motor_id": 1,
        "accel_val": 2000,
        "base_duration_us": 298436
      },
      {
        "id": "M_865",
        "pitch": 72,
        "t_note_us": 123899465,
        "t_trigger_us": 123763502,
        "is_ai": true,
        "track_id": 0,
        "velocity": 0,
        "is_motor": true,
        "motor_id": 2,
        "accel_val": 2000,
        "base_duration_us": 298436
      },
      {
        "id": "M_866",
        "pitch": 60,
        "t_note_us": 123899465,
        "t_trigger_us": 123763502,
        "is_ai": true,
        "track_id": 0,
        "velocity": 0,
        "is_motor": true,
        "motor_id": 3,
        "accel_val": 2000,
        "base_duration_us": 298436
      },
      {
        "id": "M_863",
        "pitch": 40,
        "t_note_us": 124049464,
        "t_trigger_us": 123913501,
        "is_ai": true,
        "track_id": 0,
        "velocity": 0,
        "is_motor": true,
        "motor_id": 0,
        "accel_val": 2000,
        "base_duration_us": 148437
      },
      {
        "id": "M_867",
        "pitch": 28,
        "t_note_us": 124199463,
        "t_trigger_us": 124063500,
        "is_ai": true,
        "track_id": 0,
        "velocity": 0,
        "is_motor": true,
        "motor_id": 0,
        "accel_val": 2000,
        "base_duration_us": 148437
      },
      {
        "id": "M_869",
        "pitch": 64,
        "t_note_us": 124199463,
        "t_trigger_us": 124063500,
        "is_ai": true,
        "track_id": 0,
        "velocity": 0,
        "is_motor": true,
        "motor_id": 1,
        "accel_val": 2000,
        "base_duration_us": 298436
      },
      {
        "id": "M_870",
        "pitch": 72,
        "t_note_us": 124199463,
        "t_trigger_us": 124063500,
        "is_ai": true,
        "track_id": 0,
        "velocity": 0,
        "is_motor": true,
        "motor_id": 2,
        "accel_val": 2000,
        "base_duration_us": 298436
      },
      {
        "id": "M_871",
        "pitch": 60,
        "t_note_us": 124199463,
        "t_trigger_us": 124063500,
        "is_ai": true,
        "track_id": 0,
        "velocity": 0,
        "is_motor": true,
        "motor_id": 3,
        "accel_val": 2000,
        "base_duration_us": 298436
      },
      {
        "id": "M_868",
        "pitch": 40,
        "t_note_us": 124349462,
        "t_trigger_us": 124213499,
        "is_ai": true,
        "track_id": 0,
        "velocity": 0,
        "is_motor": true,
        "motor_id": 0,
        "accel_val": 2000,
        "base_duration_us": 148437
      },
      {
        "id": "M_872",
        "pitch": 43,
        "t_note_us": 124499461,
        "t_trigger_us": 124363498,
        "is_ai": true,
        "track_id": 0,
        "velocity": 0,
        "is_motor": true,
        "motor_id": 0,
        "accel_val": 2000,
        "base_duration_us": 148437
      },
      {
        "id": "M_874",
        "pitch": 62,
        "t_note_us": 124499461,
        "t_trigger_us": 124363498,
        "is_ai": true,
        "track_id": 0,
        "velocity": 0,
        "is_motor": true,
        "motor_id": 1,
        "accel_val": 2000,
        "base_duration_us": 298436
      },
      {
        "id": "M_875",
        "pitch": 72,
        "t_note_us": 124499461,
        "t_trigger_us": 124363498,
        "is_ai": true,
        "track_id": 0,
        "velocity": 0,
        "is_motor": true,
        "motor_id": 2,
        "accel_val": 2000,
        "base_duration_us": 298436
      },
      {
        "id": "M_876",
        "pitch": 60,
        "t_note_us": 124499461,
        "t_trigger_us": 124363498,
        "is_ai": true,
        "track_id": 0,
        "velocity": 0,
        "is_motor": true,
        "motor_id": 3,
        "accel_val": 2000,
        "base_duration_us": 298436
      },
      {
        "id": "M_873",
        "pitch": 40,
        "t_note_us": 124649460,
        "t_trigger_us": 124513497,
        "is_ai": true,
        "track_id": 0,
        "velocity": 0,
        "is_motor": true,
        "motor_id": 0,
        "accel_val": 2000,
        "base_duration_us": 148437
      },
      {
        "id": "M_877",
        "pitch": 33,
        "t_note_us": 124799459,
        "t_trigger_us": 124663496,
        "is_ai": true,
        "track_id": 0,
        "velocity": 0,
        "is_motor": true,
        "motor_id": 0,
        "accel_val": 2000,
        "base_duration_us": 298437
      },
      {
        "id": "M_881",
        "pitch": 57,
        "t_note_us": 124799459,
        "t_trigger_us": 124663496,
        "is_ai": true,
        "track_id": 0,
        "velocity": 0,
        "is_motor": true,
        "motor_id": 1,
        "accel_val": 2000,
        "base_duration_us": 599997
      },
      {
        "id": "M_887",
        "pitch": 60,
        "t_note_us": 124799459,
        "t_trigger_us": 124663496,
        "is_ai": true,
        "track_id": 0,
        "velocity": 0,
        "is_motor": true,
        "motor_id": 2,
        "accel_val": 2000,
        "base_duration_us": 1199993
      },
      {
        "id": "M_892",
        "pitch": 69,
        "t_note_us": 124799459,
        "t_trigger_us": 124663496,
        "is_ai": true,
        "track_id": 0,
        "velocity": 0,
        "is_motor": true,
        "motor_id": 3,
        "accel_val": 2000,
        "base_duration_us": 1798427
      },
      {
        "id": "M_878",
        "pitch": 36,
        "t_note_us": 125099458,
        "t_trigger_us": 124963495,
        "is_ai": true,
        "track_id": 0,
        "velocity": 0,
        "is_motor": true,
        "motor_id": 0,
        "accel_val": 2000,
        "base_duration_us": 148437
      },
      {
        "id": "M_880",
        "pitch": 56,
        "t_note_us": 125099458,
        "t_trigger_us": 124963495,
        "is_ai": true,
        "track_id": 0,
        "velocity": 0,
        "is_motor": true,
        "motor_id": 0,
        "accel_val": 2000,
        "base_duration_us": 298436
      },
      {
        "id": "M_879",
        "pitch": 40,
        "t_note_us": 125249457,
        "t_trigger_us": 125113494,
        "is_ai": true,
        "track_id": 0,
        "velocity": 0,
        "is_motor": true,
        "motor_id": 0,
        "accel_val": 2000,
        "base_duration_us": 148437
      },
      {
        "id": "M_882",
        "pitch": 45,
        "t_note_us": 125399456,
        "t_trigger_us": 125263493,
        "is_ai": true,
        "track_id": 0,
        "velocity": 0,
        "is_motor": true,
        "motor_id": 0,
        "accel_val": 2000,
        "base_duration_us": 148437
      },
      {
        "id": "M_891",
        "pitch": 57,
        "t_note_us": 125399456,
        "t_trigger_us": 125263493,
        "is_ai": true,
        "track_id": 0,
        "velocity": 0,
        "is_motor": true,
        "motor_id": 1,
        "accel_val": 2000,
        "base_duration_us": 1198430
      },
      {
        "id": "M_883",
        "pitch": 40,
        "t_note_us": 125549455,
        "t_trigger_us": 125413492,
        "is_ai": true,
        "track_id": 0,
        "velocity": 0,
        "is_motor": true,
        "motor_id": 0,
        "accel_val": 2000,
        "base_duration_us": 148437
      },
      {
        "id": "M_884",
        "pitch": 45,
        "t_note_us": 125699454,
        "t_trigger_us": 125563491,
        "is_ai": true,
        "track_id": 0,
        "velocity": 0,
        "is_motor": true,
        "motor_id": 0,
        "accel_val": 2000,
        "base_duration_us": 148437
      },
      {
        "id": "M_886",
        "pitch": 59,
        "t_note_us": 125699454,
        "t_trigger_us": 125563491,
        "is_ai": true,
        "track_id": 0,
        "velocity": 0,
        "is_motor": true,
        "motor_id": 3,
        "accel_val": 2000,
        "base_duration_us": 298436
      },
      {
        "id": "M_885",
        "pitch": 48,
        "t_note_us": 125849453,
        "t_trigger_us": 125713490,
        "is_ai": true,
        "track_id": 0,
        "velocity": 0,
        "is_motor": true,
        "motor_id": 0,
        "accel_val": 2000,
        "base_duration_us": 148437
      },
      {
        "id": "M_888",
        "pitch": 50,
        "t_note_us": 125999452,
        "t_trigger_us": 125863489,
        "is_ai": true,
        "track_id": 0,
        "velocity": 0,
        "is_motor": true,
        "motor_id": 0,
        "accel_val": 2000,
        "base_duration_us": 148437
      },
      {
        "id": "M_895",
        "pitch": 60,
        "t_note_us": 125999452,
        "t_trigger_us": 125863489,
        "is_ai": true,
        "track_id": 0,
        "velocity": 0,
        "is_motor": true,
        "motor_id": 2,
        "accel_val": 2000,
        "base_duration_us": 598434
      },
      {
        "id": "M_889",
        "pitch": 48,
        "t_note_us": 126149451,
        "t_trigger_us": 126013488,
        "is_ai": true,
        "track_id": 0,
        "velocity": 0,
        "is_motor": true,
        "motor_id": 0,
        "accel_val": 2000,
        "base_duration_us": 148437
      },
      {
        "id": "M_890",
        "pitch": 45,
        "t_note_us": 126299450,
        "t_trigger_us": 126163487,
        "is_ai": true,
        "track_id": 0,
        "velocity": 0,
        "is_motor": true,
        "motor_id": 0,
        "accel_val": 2000,
        "base_duration_us": 148437
      },
      {
        "id": "M_894",
        "pitch": 64,
        "t_note_us": 126299450,
        "t_trigger_us": 126163487,
        "is_ai": true,
        "track_id": 0,
        "velocity": 0,
        "is_motor": true,
        "motor_id": 0,
        "accel_val": 2000,
        "base_duration_us": 298436
      },
      {
        "id": "M_893",
        "pitch": 40,
        "t_note_us": 126449449,
        "t_trigger_us": 126313486,
        "is_ai": true,
        "track_id": 0,
        "velocity": 0,
        "is_motor": true,
        "motor_id": 0,
        "accel_val": 2000,
        "base_duration_us": 148437
      },
      {
        "id": "M_896",
        "pitch": 33,
        "t_note_us": 126599448,
        "t_trigger_us": 126463485,
        "is_ai": true,
        "track_id": 0,
        "velocity": 0,
        "is_motor": true,
        "motor_id": 0,
        "accel_val": 2000,
        "base_duration_us": 148437
      },
      {
        "id": "M_898",
        "pitch": 76,
        "t_note_us": 126599448,
        "t_trigger_us": 126463485,
        "is_ai": true,
        "track_id": 0,
        "velocity": 0,
        "is_motor": true,
        "motor_id": 2,
        "accel_val": 2000,
        "base_duration_us": 298436
      },
      {
        "id": "M_899",
        "pitch": 64,
        "t_note_us": 126599448,
        "t_trigger_us": 126463485,
        "is_ai": true,
        "track_id": 0,
        "velocity": 0,
        "is_motor": true,
        "motor_id": 1,
        "accel_val": 2000,
        "base_duration_us": 298436
      },
      {
        "id": "M_897",
        "pitch": 45,
        "t_note_us": 126749447,
        "t_trigger_us": 126613484,
        "is_ai": true,
        "track_id": 0,
        "velocity": 0,
        "is_motor": true,
        "motor_id": 0,
        "accel_val": 2000,
        "base_duration_us": 148437
      },
      {
        "id": "M_900",
        "pitch": 48,
        "t_note_us": 126899446,
        "t_trigger_us": 126763483,
        "is_ai": true,
        "track_id": 0,
        "velocity": 0,
        "is_motor": true,
        "motor_id": 0,
        "accel_val": 2000,
        "base_duration_us": 148437
      },
      {
        "id": "M_902",
        "pitch": 77,
        "t_note_us": 126899446,
        "t_trigger_us": 126763483,
        "is_ai": true,
        "track_id": 0,
        "velocity": 0,
        "is_motor": true,
        "motor_id": 2,
        "accel_val": 2000,
        "base_duration_us": 298436
      },
      {
        "id": "M_903",
        "pitch": 65,
        "t_note_us": 126899446,
        "t_trigger_us": 126763483,
        "is_ai": true,
        "track_id": 0,
        "velocity": 0,
        "is_motor": true,
        "motor_id": 1,
        "accel_val": 2000,
        "base_duration_us": 298436
      },
      {
        "id": "M_901",
        "pitch": 45,
        "t_note_us": 127049445,
        "t_trigger_us": 126913482,
        "is_ai": true,
        "track_id": 0,
        "velocity": 0,
        "is_motor": true,
        "motor_id": 0,
        "accel_val": 2000,
        "base_duration_us": 148437
      },
      {
        "id": "M_904",
        "pitch": 29,
        "t_note_us": 127199444,
        "t_trigger_us": 127063481,
        "is_ai": true,
        "track_id": 0,
        "velocity": 0,
        "is_motor": true,
        "motor_id": 0,
        "accel_val": 2000,
        "base_duration_us": 298437
      },
      {
        "id": "M_907",
        "pitch": 67,
        "t_note_us": 127199444,
        "t_trigger_us": 127063481,
        "is_ai": true,
        "track_id": 0,
        "velocity": 0,
        "is_motor": true,
        "motor_id": 1,
        "accel_val": 2000,
        "base_duration_us": 599997
      },
      {
        "id": "M_922",
        "pitch": 67,
        "t_note_us": 127199444,
        "t_trigger_us": 127063481,
        "is_ai": true,
        "track_id": 0,
        "velocity": 0,
        "is_motor": true,
        "motor_id": 2,
        "accel_val": 2000,
        "base_duration_us": 1798427
      },
      {
        "id": "M_905",
        "pitch": 33,
        "t_note_us": 127499443,
        "t_trigger_us": 127363480,
        "is_ai": true,
        "track_id": 0,
        "velocity": 0,
        "is_motor": true,
        "motor_id": 0,
        "accel_val": 2000,
        "base_duration_us": 148437
      },
      {
        "id": "M_906",
        "pitch": 36,
        "t_note_us": 127649442,
        "t_trigger_us": 127513479,
        "is_ai": true,
        "track_id": 0,
        "velocity": 0,
        "is_motor": true,
        "motor_id": 0,
        "accel_val": 2000,
        "base_duration_us": 148437
      },
      {
        "id": "M_908",
        "pitch": 41,
        "t_note_us": 127799441,
        "t_trigger_us": 127663478,
        "is_ai": true,
        "track_id": 0,
        "velocity": 0,
        "is_motor": true,
        "motor_id": 0,
        "accel_val": 2000,
        "base_duration_us": 148437
      },
      {
        "id": "M_921",
        "pitch": 67,
        "t_note_us": 127799441,
        "t_trigger_us": 127663478,
        "is_ai": true,
        "track_id": 0,
        "velocity": 0,
        "is_motor": true,
        "motor_id": 1,
        "accel_val": 2000,
        "base_duration_us": 1198430
      },
      {
        "id": "M_909",
        "pitch": 36,
        "t_note_us": 127949440,
        "t_trigger_us": 127813477,
        "is_ai": true,
        "track_id": 0,
        "velocity": 0,
        "is_motor": true,
        "motor_id": 0,
        "accel_val": 2000,
        "base_duration_us": 148437
      },
      {
        "id": "M_910",
        "pitch": 64,
        "t_note_us": 127949440,
        "t_trigger_us": 127813477,
        "is_ai": true,
        "track_id": 0,
        "velocity": 0,
        "is_motor": true,
        "motor_id": 3,
        "accel_val": 2000,
        "base_duration_us": 148437
      },
      {
        "id": "M_911",
        "pitch": 41,
        "t_note_us": 128099439,
        "t_trigger_us": 127963476,
        "is_ai": true,
        "track_id": 0,
        "velocity": 0,
        "is_motor": true,
        "motor_id": 0,
        "accel_val": 2000,
        "base_duration_us": 148437
      },
      {
        "id": "M_912",
        "pitch": 62,
        "t_note_us": 128099439,
        "t_trigger_us": 127963476,
        "is_ai": true,
        "track_id": 0,
        "velocity": 0,
        "is_motor": true,
        "motor_id": 3,
        "accel_val": 2000,
        "base_duration_us": 148437
      },
      {
        "id": "M_913",
        "pitch": 45,
        "t_note_us": 128249438,
        "t_trigger_us": 128113475,
        "is_ai": true,
        "track_id": 0,
        "velocity": 0,
        "is_motor": true,
        "motor_id": 0,
        "accel_val": 2000,
        "base_duration_us": 148437
      },
      {
        "id": "M_914",
        "pitch": 60,
        "t_note_us": 128249438,
        "t_trigger_us": 128113475,
        "is_ai": true,
        "track_id": 0,
        "velocity": 0,
        "is_motor": true,
        "motor_id": 3,
        "accel_val": 2000,
        "base_duration_us": 148437
      },
      {
        "id": "M_915",
        "pitch": 48,
        "t_note_us": 128399437,
        "t_trigger_us": 128263474,
        "is_ai": true,
        "track_id": 0,
        "velocity": 0,
        "is_motor": true,
        "motor_id": 0,
        "accel_val": 2000,
        "base_duration_us": 148437
      },
      {
        "id": "M_916",
        "pitch": 59,
        "t_note_us": 128399437,
        "t_trigger_us": 128263474,
        "is_ai": true,
        "track_id": 0,
        "velocity": 0,
        "is_motor": true,
        "motor_id": 3,
        "accel_val": 2000,
        "base_duration_us": 148437
      },
      {
        "id": "M_917",
        "pitch": 45,
        "t_note_us": 128549436,
        "t_trigger_us": 128413473,
        "is_ai": true,
        "track_id": 0,
        "velocity": 0,
        "is_motor": true,
        "motor_id": 0,
        "accel_val": 2000,
        "base_duration_us": 148437
      },
      {
        "id": "M_918",
        "pitch": 57,
        "t_note_us": 128549436,
        "t_trigger_us": 128413473,
        "is_ai": true,
        "track_id": 0,
        "velocity": 0,
        "is_motor": true,
        "motor_id": 3,
        "accel_val": 2000,
        "base_duration_us": 148437
      },
      {
        "id": "M_919",
        "pitch": 41,
        "t_note_us": 128699435,
        "t_trigger_us": 128563472,
        "is_ai": true,
        "track_id": 0,
        "velocity": 0,
        "is_motor": true,
        "motor_id": 0,
        "accel_val": 2000,
        "base_duration_us": 148437
      },
      {
        "id": "M_920",
        "pitch": 59,
        "t_note_us": 128699435,
        "t_trigger_us": 128563472,
        "is_ai": true,
        "track_id": 0,
        "velocity": 0,
        "is_motor": true,
        "motor_id": 3,
        "accel_val": 2000,
        "base_duration_us": 148437
      },
      {
        "id": "M_923",
        "pitch": 36,
        "t_note_us": 128849434,
        "t_trigger_us": 128713471,
        "is_ai": true,
        "track_id": 0,
        "velocity": 0,
        "is_motor": true,
        "motor_id": 0,
        "accel_val": 2000,
        "base_duration_us": 148437
      },
      {
        "id": "M_924",
        "pitch": 62,
        "t_note_us": 128849434,
        "t_trigger_us": 128713471,
        "is_ai": true,
        "track_id": 0,
        "velocity": 0,
        "is_motor": true,
        "motor_id": 3,
        "accel_val": 2000,
        "base_duration_us": 148437
      },
      {
        "id": "M_925",
        "pitch": 29,
        "t_note_us": 128999433,
        "t_trigger_us": 128863470,
        "is_ai": true,
        "track_id": 0,
        "velocity": 0,
        "is_motor": true,
        "motor_id": 0,
        "accel_val": 2000,
        "base_duration_us": 148437
      },
      {
        "id": "M_932",
        "pitch": 69,
        "t_note_us": 128999433,
        "t_trigger_us": 128863470,
        "is_ai": true,
        "track_id": 0,
        "velocity": 0,
        "is_motor": true,
        "motor_id": 1,
        "accel_val": 2000,
        "base_duration_us": 598434
      },
      {
        "id": "M_933",
        "pitch": 69,
        "t_note_us": 128999433,
        "t_trigger_us": 128863470,
        "is_ai": true,
        "track_id": 0,
        "velocity": 0,
        "is_motor": true,
        "motor_id": 2,
        "accel_val": 2000,
        "base_duration_us": 598434
      },
      {
        "id": "M_926",
        "pitch": 36,
        "t_note_us": 129149432,
        "t_trigger_us": 129013469,
        "is_ai": true,
        "track_id": 0,
        "velocity": 0,
        "is_motor": true,
        "motor_id": 0,
        "accel_val": 2000,
        "base_duration_us": 148437
      },
      {
        "id": "M_927",
        "pitch": 65,
        "t_note_us": 129149432,
        "t_trigger_us": 129013469,
        "is_ai": true,
        "track_id": 0,
        "velocity": 0,
        "is_motor": true,
        "motor_id": 3,
        "accel_val": 2000,
        "base_duration_us": 148437
      },
      {
        "id": "M_928",
        "pitch": 41,
        "t_note_us": 129299431,
        "t_trigger_us": 129163468,
        "is_ai": true,
        "track_id": 0,
        "velocity": 0,
        "is_motor": true,
        "motor_id": 0,
        "accel_val": 2000,
        "base_duration_us": 148437
      },
      {
        "id": "M_929",
        "pitch": 60,
        "t_note_us": 129299431,
        "t_trigger_us": 129163468,
        "is_ai": true,
        "track_id": 0,
        "velocity": 0,
        "is_motor": true,
        "motor_id": 3,
        "accel_val": 2000,
        "base_duration_us": 148437
      },
      {
        "id": "M_930",
        "pitch": 36,
        "t_note_us": 129449430,
        "t_trigger_us": 129313467,
        "is_ai": true,
        "track_id": 0,
        "velocity": 0,
        "is_motor": true,
        "motor_id": 0,
        "accel_val": 2000,
        "base_duration_us": 148437
      },
      {
        "id": "M_931",
        "pitch": 65,
        "t_note_us": 129449430,
        "t_trigger_us": 129313467,
        "is_ai": true,
        "track_id": 0,
        "velocity": 0,
        "is_motor": true,
        "motor_id": 3,
        "accel_val": 2000,
        "base_duration_us": 148437
      },
      {
        "id": "M_934",
        "pitch": 31,
        "t_note_us": 129599429,
        "t_trigger_us": 129463466,
        "is_ai": true,
        "track_id": 0,
        "velocity": 0,
        "is_motor": true,
        "motor_id": 0,
        "accel_val": 2000,
        "base_duration_us": 298437
      },
      {
        "id": "M_939",
        "pitch": 67,
        "t_note_us": 129599429,
        "t_trigger_us": 129463466,
        "is_ai": true,
        "track_id": 0,
        "velocity": 0,
        "is_motor": true,
        "motor_id": 1,
        "accel_val": 2000,
        "base_duration_us": 599997
      },
      {
        "id": "M_953",
        "pitch": 67,
        "t_note_us": 129599429,
        "t_trigger_us": 129463466,
        "is_ai": true,
        "track_id": 0,
        "velocity": 0,
        "is_motor": true,
        "motor_id": 2,
        "accel_val": 2000,
        "base_duration_us": 1798427
      },
      {
        "id": "M_935",
        "pitch": 35,
        "t_note_us": 129899428,
        "t_trigger_us": 129763465,
        "is_ai": true,
        "track_id": 0,
        "velocity": 0,
        "is_motor": true,
        "motor_id": 0,
        "accel_val": 2000,
        "base_duration_us": 148437
      },
      {
        "id": "M_936",
        "pitch": 62,
        "t_note_us": 129899428,
        "t_trigger_us": 129763465,
        "is_ai": true,
        "track_id": 0,
        "velocity": 0,
        "is_motor": true,
        "motor_id": 3,
        "accel_val": 2000,
        "base_duration_us": 148437
      },
      {
        "id": "M_937",
        "pitch": 38,
        "t_note_us": 130049427,
        "t_trigger_us": 129913464,
        "is_ai": true,
        "track_id": 0,
        "velocity": 0,
        "is_motor": true,
        "motor_id": 0,
        "accel_val": 2000,
        "base_duration_us": 148437
      },
      {
        "id": "M_938",
        "pitch": 64,
        "t_note_us": 130049427,
        "t_trigger_us": 129913464,
        "is_ai": true,
        "track_id": 0,
        "velocity": 0,
        "is_motor": true,
        "motor_id": 3,
        "accel_val": 2000,
        "base_duration_us": 148437
      },
      {
        "id": "M_940",
        "pitch": 43,
        "t_note_us": 130199426,
        "t_trigger_us": 130063463,
        "is_ai": true,
        "track_id": 0,
        "velocity": 0,
        "is_motor": true,
        "motor_id": 0,
        "accel_val": 2000,
        "base_duration_us": 148437
      },
      {
        "id": "M_947",
        "pitch": 67,
        "t_note_us": 130199426,
        "t_trigger_us": 130063463,
        "is_ai": true,
        "track_id": 0,
        "velocity": 0,
        "is_motor": true,
        "motor_id": 1,
        "accel_val": 2000,
        "base_duration_us": 599996
      },
      {
        "id": "M_941",
        "pitch": 38,
        "t_note_us": 130349425,
        "t_trigger_us": 130213462,
        "is_ai": true,
        "track_id": 0,
        "velocity": 0,
        "is_motor": true,
        "motor_id": 0,
        "accel_val": 2000,
        "base_duration_us": 148437
      },
      {
        "id": "M_942",
        "pitch": 71,
        "t_note_us": 130349425,
        "t_trigger_us": 130213462,
        "is_ai": true,
        "track_id": 0,
        "velocity": 0,
        "is_motor": true,
        "motor_id": 3,
        "accel_val": 2000,
        "base_duration_us": 148437
      },
      {
        "id": "M_943",
        "pitch": 43,
        "t_note_us": 130499424,
        "t_trigger_us": 130363461,
        "is_ai": true,
        "track_id": 0,
        "velocity": 0,
        "is_motor": true,
        "motor_id": 0,
        "accel_val": 2000,
        "base_duration_us": 148437
      },
      {
        "id": "M_944",
        "pitch": 74,
        "t_note_us": 130499424,
        "t_trigger_us": 130363461,
        "is_ai": true,
        "track_id": 0,
        "velocity": 0,
        "is_motor": true,
        "motor_id": 3,
        "accel_val": 2000,
        "base_duration_us": 148437
      },
      {
        "id": "M_945",
        "pitch": 47,
        "t_note_us": 130649423,
        "t_trigger_us": 130513460,
        "is_ai": true,
        "track_id": 0,
        "velocity": 0,
        "is_motor": true,
        "motor_id": 0,
        "accel_val": 2000,
        "base_duration_us": 148437
      },
      {
        "id": "M_946",
        "pitch": 71,
        "t_note_us": 130649423,
        "t_trigger_us": 130513460,
        "is_ai": true,
        "track_id": 0,
        "velocity": 0,
        "is_motor": true,
        "motor_id": 3,
        "accel_val": 2000,
        "base_duration_us": 148437
      },
      {
        "id": "M_948",
        "pitch": 50,
        "t_note_us": 130799422,
        "t_trigger_us": 130663459,
        "is_ai": true,
        "track_id": 0,
        "velocity": 0,
        "is_motor": true,
        "motor_id": 0,
        "accel_val": 2000,
        "base_duration_us": 148437
      },
      {
        "id": "M_951",
        "pitch": 67,
        "t_note_us": 130799422,
        "t_trigger_us": 130663459,
        "is_ai": true,
        "track_id": 0,
        "velocity": 0,
        "is_motor": true,
        "motor_id": 1,
        "accel_val": 2000,
        "base_duration_us": 299998
      },
      {
        "id": "M_949",
        "pitch": 47,
        "t_note_us": 130949421,
        "t_trigger_us": 130813458,
        "is_ai": true,
        "track_id": 0,
        "velocity": 0,
        "is_motor": true,
        "motor_id": 0,
        "accel_val": 2000,
        "base_duration_us": 148437
      },
      {
        "id": "M_950",
        "pitch": 71,
        "t_note_us": 130949421,
        "t_trigger_us": 130813458,
        "is_ai": true,
        "track_id": 0,
        "velocity": 0,
        "is_motor": true,
        "motor_id": 3,
        "accel_val": 2000,
        "base_duration_us": 148437
      },
      {
        "id": "M_952",
        "pitch": 43,
        "t_note_us": 131099420,
        "t_trigger_us": 130963457,
        "is_ai": true,
        "track_id": 0,
        "velocity": 0,
        "is_motor": true,
        "motor_id": 0,
        "accel_val": 2000,
        "base_duration_us": 148437
      },
      {
        "id": "M_956",
        "pitch": 67,
        "t_note_us": 131099420,
        "t_trigger_us": 130963457,
        "is_ai": true,
        "track_id": 0,
        "velocity": 0,
        "is_motor": true,
        "motor_id": 1,
        "accel_val": 2000,
        "base_duration_us": 298436
      },
      {
        "id": "M_954",
        "pitch": 38,
        "t_note_us": 131249419,
        "t_trigger_us": 131113456,
        "is_ai": true,
        "track_id": 0,
        "velocity": 0,
        "is_motor": true,
        "motor_id": 0,
        "accel_val": 2000,
        "base_duration_us": 148437
      },
      {
        "id": "M_955",
        "pitch": 62,
        "t_note_us": 131249419,
        "t_trigger_us": 131113456,
        "is_ai": true,
        "track_id": 0,
        "velocity": 0,
        "is_motor": true,
        "motor_id": 3,
        "accel_val": 2000,
        "base_duration_us": 148437
      },
      {
        "id": "M_957",
        "pitch": 31,
        "t_note_us": 131399418,
        "t_trigger_us": 131263455,
        "is_ai": true,
        "track_id": 0,
        "velocity": 0,
        "is_motor": true,
        "motor_id": 0,
        "accel_val": 2000,
        "base_duration_us": 148437
      },
      {
        "id": "M_964",
        "pitch": 76,
        "t_note_us": 131399418,
        "t_trigger_us": 131263455,
        "is_ai": true,
        "track_id": 0,
        "velocity": 0,
        "is_motor": true,
        "motor_id": 2,
        "accel_val": 2000,
        "base_duration_us": 598434
      },
      {
        "id": "M_965",
        "pitch": 64,
        "t_note_us": 131399418,
        "t_trigger_us": 131263455,
        "is_ai": true,
        "track_id": 0,
        "velocity": 0,
        "is_motor": true,
        "motor_id": 1,
        "accel_val": 2000,
        "base_duration_us": 598434
      },
      {
        "id": "M_958",
        "pitch": 38,
        "t_note_us": 131549417,
        "t_trigger_us": 131413454,
        "is_ai": true,
        "track_id": 0,
        "velocity": 0,
        "is_motor": true,
        "motor_id": 0,
        "accel_val": 2000,
        "base_duration_us": 148437
      },
      {
        "id": "M_959",
        "pitch": 62,
        "t_note_us": 131549417,
        "t_trigger_us": 131413454,
        "is_ai": true,
        "track_id": 0,
        "velocity": 0,
        "is_motor": true,
        "motor_id": 3,
        "accel_val": 2000,
        "base_duration_us": 148437
      },
      {
        "id": "M_960",
        "pitch": 43,
        "t_note_us": 131699416,
        "t_trigger_us": 131563453,
        "is_ai": true,
        "track_id": 0,
        "velocity": 0,
        "is_motor": true,
        "motor_id": 0,
        "accel_val": 2000,
        "base_duration_us": 148437
      },
      {
        "id": "M_961",
        "pitch": 59,
        "t_note_us": 131699416,
        "t_trigger_us": 131563453,
        "is_ai": true,
        "track_id": 0,
        "velocity": 0,
        "is_motor": true,
        "motor_id": 3,
        "accel_val": 2000,
        "base_duration_us": 148437
      },
      {
        "id": "M_962",
        "pitch": 38,
        "t_note_us": 131849415,
        "t_trigger_us": 131713452,
        "is_ai": true,
        "track_id": 0,
        "velocity": 0,
        "is_motor": true,
        "motor_id": 0,
        "accel_val": 2000,
        "base_duration_us": 148437
      },
      {
        "id": "M_963",
        "pitch": 62,
        "t_note_us": 131849415,
        "t_trigger_us": 131713452,
        "is_ai": true,
        "track_id": 0,
        "velocity": 0,
        "is_motor": true,
        "motor_id": 3,
        "accel_val": 2000,
        "base_duration_us": 148437
      },
      {
        "id": "M_967",
        "pitch": 28,
        "t_note_us": 131999414,
        "t_trigger_us": 131863451,
        "is_ai": true,
        "track_id": 0,
        "velocity": 0,
        "is_motor": true,
        "motor_id": 0,
        "accel_val": 2000,
        "base_duration_us": 298437
      },
      {
        "id": "M_978",
        "pitch": 74,
        "t_note_us": 131999414,
        "t_trigger_us": 131863451,
        "is_ai": true,
        "track_id": 0,
        "velocity": 0,
        "is_motor": true,
        "motor_id": 1,
        "accel_val": 2000,
        "base_duration_us": 1198431
      },
      {
        "id": "M_979",
        "pitch": 62,
        "t_note_us": 131999414,
        "t_trigger_us": 131863451,
        "is_ai": true,
        "track_id": 0,
        "velocity": 0,
        "is_motor": true,
        "motor_id": 2,
        "accel_val": 2000,
        "base_duration_us": 1198431
      },
      {
        "id": "M_966",
        "pitch": 60,
        "t_note_us": 132149414,
        "t_trigger_us": 132013451,
        "is_ai": true,
        "track_id": 0,
        "velocity": 0,
        "is_motor": true,
        "motor_id": 3,
        "accel_val": 2000,
        "base_duration_us": 148437
      },
      {
        "id": "M_968",
        "pitch": 31,
        "t_note_us": 132299413,
        "t_trigger_us": 132163450,
        "is_ai": true,
        "track_id": 0,
        "velocity": 0,
        "is_motor": true,
        "motor_id": 0,
        "accel_val": 2000,
        "base_duration_us": 148437
      },
      {
        "id": "M_969",
        "pitch": 59,
        "t_note_us": 132299413,
        "t_trigger_us": 132163450,
        "is_ai": true,
        "track_id": 0,
        "velocity": 0,
        "is_motor": true,
        "motor_id": 3,
        "accel_val": 2000,
        "base_duration_us": 148437
      },
      {
        "id": "M_970",
        "pitch": 35,
        "t_note_us": 132449412,
        "t_trigger_us": 132313449,
        "is_ai": true,
        "track_id": 0,
        "velocity": 0,
        "is_motor": true,
        "motor_id": 0,
        "accel_val": 2000,
        "base_duration_us": 148437
      },
      {
        "id": "M_971",
        "pitch": 55,
        "t_note_us": 132449412,
        "t_trigger_us": 132313449,
        "is_ai": true,
        "track_id": 0,
        "velocity": 0,
        "is_motor": true,
        "motor_id": 3,
        "accel_val": 2000,
        "base_duration_us": 148437
      },
      {
        "id": "M_972",
        "pitch": 40,
        "t_note_us": 132599411,
        "t_trigger_us": 132463448,
        "is_ai": true,
        "track_id": 0,
        "velocity": 0,
        "is_motor": true,
        "motor_id": 0,
        "accel_val": 2000,
        "base_duration_us": 148437
      },
      {
        "id": "M_973",
        "pitch": 50,
        "t_note_us": 132599411,
        "t_trigger_us": 132463448,
        "is_ai": true,
        "track_id": 0,
        "velocity": 0,
        "is_motor": true,
        "motor_id": 3,
        "accel_val": 2000,
        "base_duration_us": 148437
      },
      {
        "id": "M_974",
        "pitch": 35,
        "t_note_us": 132749410,
        "t_trigger_us": 132613447,
        "is_ai": true,
        "track_id": 0,
        "velocity": 0,
        "is_motor": true,
        "motor_id": 0,
        "accel_val": 2000,
        "base_duration_us": 148437
      },
      {
        "id": "M_975",
        "pitch": 52,
        "t_note_us": 132749410,
        "t_trigger_us": 132613447,
        "is_ai": true,
        "track_id": 0,
        "velocity": 0,
        "is_motor": true,
        "motor_id": 3,
        "accel_val": 2000,
        "base_duration_us": 148437
      },
      {
        "id": "M_976",
        "pitch": 40,
        "t_note_us": 132899409,
        "t_trigger_us": 132763446,
        "is_ai": true,
        "track_id": 0,
        "velocity": 0,
        "is_motor": true,
        "motor_id": 0,
        "accel_val": 2000,
        "base_duration_us": 148437
      },
      {
        "id": "M_977",
        "pitch": 55,
        "t_note_us": 132899409,
        "t_trigger_us": 132763446,
        "is_ai": true,
        "track_id": 0,
        "velocity": 0,
        "is_motor": true,
        "motor_id": 3,
        "accel_val": 2000,
        "base_duration_us": 148437
      },
      {
        "id": "M_980",
        "pitch": 43,
        "t_note_us": 133049408,
        "t_trigger_us": 132913445,
        "is_ai": true,
        "track_id": 0,
        "velocity": 0,
        "is_motor": true,
        "motor_id": 0,
        "accel_val": 2000,
        "base_duration_us": 148437
      },
      {
        "id": "M_981",
        "pitch": 57,
        "t_note_us": 133049408,
        "t_trigger_us": 132913445,
        "is_ai": true,
        "track_id": 0,
        "velocity": 0,
        "is_motor": true,
        "motor_id": 3,
        "accel_val": 2000,
        "base_duration_us": 148437
      },
      {
        "id": "M_982",
        "pitch": 47,
        "t_note_us": 133199407,
        "t_trigger_us": 133063444,
        "is_ai": true,
        "track_id": 0,
        "velocity": 0,
        "is_motor": true,
        "motor_id": 0,
        "accel_val": 2000,
        "base_duration_us": 148437
      },
      {
        "id": "M_983",
        "pitch": 59,
        "t_note_us": 133199407,
        "t_trigger_us": 133063444,
        "is_ai": true,
        "track_id": 0,
        "velocity": 0,
        "is_motor": true,
        "motor_id": 1,
        "accel_val": 2000,
        "base_duration_us": 148437
      },
      {
        "id": "M_984",
        "pitch": 43,
        "t_note_us": 133349406,
        "t_trigger_us": 133213443,
        "is_ai": true,
        "track_id": 0,
        "velocity": 0,
        "is_motor": true,
        "motor_id": 0,
        "accel_val": 2000,
        "base_duration_us": 148437
      },
      {
        "id": "M_985",
        "pitch": 62,
        "t_note_us": 133349406,
        "t_trigger_us": 133213443,
        "is_ai": true,
        "track_id": 0,
        "velocity": 0,
        "is_motor": true,
        "motor_id": 1,
        "accel_val": 2000,
        "base_duration_us": 148437
      },
      {
        "id": "M_986",
        "pitch": 40,
        "t_note_us": 133499405,
        "t_trigger_us": 133363442,
        "is_ai": true,
        "track_id": 0,
        "velocity": 0,
        "is_motor": true,
        "motor_id": 0,
        "accel_val": 2000,
        "base_duration_us": 148437
      },
      {
        "id": "M_988",
        "pitch": 72,
        "t_note_us": 133499405,
        "t_trigger_us": 133363442,
        "is_ai": true,
        "track_id": 0,
        "velocity": 0,
        "is_motor": true,
        "motor_id": 1,
        "accel_val": 2000,
        "base_duration_us": 298436
      },
      {
        "id": "M_989",
        "pitch": 60,
        "t_note_us": 133499405,
        "t_trigger_us": 133363442,
        "is_ai": true,
        "track_id": 0,
        "velocity": 0,
        "is_motor": true,
        "motor_id": 2,
        "accel_val": 2000,
        "base_duration_us": 298436
      },
      {
        "id": "M_987",
        "pitch": 35,
        "t_note_us": 133649404,
        "t_trigger_us": 133513441,
        "is_ai": true,
        "track_id": 0,
        "velocity": 0,
        "is_motor": true,
        "motor_id": 0,
        "accel_val": 2000,
        "base_duration_us": 148437
      },
      {
        "id": "M_990",
        "pitch": 28,
        "t_note_us": 133799403,
        "t_trigger_us": 133663440,
        "is_ai": true,
        "track_id": 0,
        "velocity": 0,
        "is_motor": true,
        "motor_id": 0,
        "accel_val": 2000,
        "base_duration_us": 148437
      },
      {
        "id": "M_991",
        "pitch": 72,
        "t_note_us": 133799403,
        "t_trigger_us": 133663440,
        "is_ai": true,
        "track_id": 0,
        "velocity": 0,
        "is_motor": true,
        "motor_id": 1,
        "accel_val": 2000,
        "base_duration_us": 148437
      },
      {
        "id": "M_992",
        "pitch": 60,
        "t_note_us": 133799403,
        "t_trigger_us": 133663440,
        "is_ai": true,
        "track_id": 0,
        "velocity": 0,
        "is_motor": true,
        "motor_id": 2,
        "accel_val": 2000,
        "base_duration_us": 148437
      },
      {
        "id": "M_993",
        "pitch": 35,
        "t_note_us": 133949402,
        "t_trigger_us": 133813439,
        "is_ai": true,
        "track_id": 0,
        "velocity": 0,
        "is_motor": true,
        "motor_id": 0,
        "accel_val": 2000,
        "base_duration_us": 148437
      },
      {
        "id": "M_994",
        "pitch": 72,
        "t_note_us": 133949402,
        "t_trigger_us": 133813439,
        "is_ai": true,
        "track_id": 0,
        "velocity": 0,
        "is_motor": true,
        "motor_id": 1,
        "accel_val": 2000,
        "base_duration_us": 148437
      },
      {
        "id": "M_995",
        "pitch": 60,
        "t_note_us": 133949402,
        "t_trigger_us": 133813439,
        "is_ai": true,
        "track_id": 0,
        "velocity": 0,
        "is_motor": true,
        "motor_id": 2,
        "accel_val": 2000,
        "base_duration_us": 148437
      },
      {
        "id": "M_996",
        "pitch": 40,
        "t_note_us": 134099401,
        "t_trigger_us": 133963438,
        "is_ai": true,
        "track_id": 0,
        "velocity": 0,
        "is_motor": true,
        "motor_id": 0,
        "accel_val": 2000,
        "base_duration_us": 148437
      },
      {
        "id": "M_998",
        "pitch": 72,
        "t_note_us": 134099401,
        "t_trigger_us": 133963438,
        "is_ai": true,
        "track_id": 0,
        "velocity": 0,
        "is_motor": true,
        "motor_id": 1,
        "accel_val": 2000,
        "base_duration_us": 298436
      },
      {
        "id": "M_999",
        "pitch": 60,
        "t_note_us": 134099401,
        "t_trigger_us": 133963438,
        "is_ai": true,
        "track_id": 0,
        "velocity": 0,
        "is_motor": true,
        "motor_id": 2,
        "accel_val": 2000,
        "base_duration_us": 298436
      },
      {
        "id": "M_997",
        "pitch": 35,
        "t_note_us": 134249400,
        "t_trigger_us": 134113437,
        "is_ai": true,
        "track_id": 0,
        "velocity": 0,
        "is_motor": true,
        "motor_id": 0,
        "accel_val": 2000,
        "base_duration_us": 148437
      },
      {
        "id": "M_1001",
        "pitch": 33,
        "t_note_us": 134399399,
        "t_trigger_us": 134263436,
        "is_ai": true,
        "track_id": 0,
        "velocity": 0,
        "is_motor": true,
        "motor_id": 0,
        "accel_val": 2000,
        "base_duration_us": 298437
      },
      {
        "id": "M_1006",
        "pitch": 69,
        "t_note_us": 134399399,
        "t_trigger_us": 134263436,
        "is_ai": true,
        "track_id": 0,
        "velocity": 0,
        "is_motor": true,
        "motor_id": 1,
        "accel_val": 2000,
        "base_duration_us": 599997
      },
      {
        "id": "M_1026",
        "pitch": 57,
        "t_note_us": 134399399,
        "t_trigger_us": 134263436,
        "is_ai": true,
        "track_id": 0,
        "velocity": 0,
        "is_motor": true,
        "motor_id": 2,
        "accel_val": 2000,
        "base_duration_us": 2398423
      },
      {
        "id": "M_1000",
        "pitch": 59,
        "t_note_us": 134549399,
        "t_trigger_us": 134413436,
        "is_ai": true,
        "track_id": 0,
        "velocity": 0,
        "is_motor": true,
        "motor_id": 3,
        "accel_val": 2000,
        "base_duration_us": 148437
      },
      {
        "id": "M_1002",
        "pitch": 36,
        "t_note_us": 134699398,
        "t_trigger_us": 134563435,
        "is_ai": true,
        "track_id": 0,
        "velocity": 0,
        "is_motor": true,
        "motor_id": 0,
        "accel_val": 2000,
        "base_duration_us": 148437
      },
      {
        "id": "M_1003",
        "pitch": 60,
        "t_note_us": 134699398,
        "t_trigger_us": 134563435,
        "is_ai": true,
        "track_id": 0,
        "velocity": 0,
        "is_motor": true,
        "motor_id": 3,
        "accel_val": 2000,
        "base_duration_us": 148437
      },
      {
        "id": "M_1004",
        "pitch": 40,
        "t_note_us": 134849397,
        "t_trigger_us": 134713434,
        "is_ai": true,
        "track_id": 0,
        "velocity": 0,
        "is_motor": true,
        "motor_id": 0,
        "accel_val": 2000,
        "base_duration_us": 148437
      },
      {
        "id": "M_1005",
        "pitch": 64,
        "t_note_us": 134849397,
        "t_trigger_us": 134713434,
        "is_ai": true,
        "track_id": 0,
        "velocity": 0,
        "is_motor": true,
        "motor_id": 3,
        "accel_val": 2000,
        "base_duration_us": 148437
      },
      {
        "id": "M_1007",
        "pitch": 45,
        "t_note_us": 134999396,
        "t_trigger_us": 134863433,
        "is_ai": true,
        "track_id": 0,
        "velocity": 0,
        "is_motor": true,
        "motor_id": 0,
        "accel_val": 2000,
        "base_duration_us": 148437
      },
      {
        "id": "M_1014",
        "pitch": 69,
        "t_note_us": 134999396,
        "t_trigger_us": 134863433,
        "is_ai": true,
        "track_id": 0,
        "velocity": 0,
        "is_motor": true,
        "motor_id": 1,
        "accel_val": 2000,
        "base_duration_us": 599996
      },
      {
        "id": "M_1008",
        "pitch": 40,
        "t_note_us": 135149395,
        "t_trigger_us": 135013432,
        "is_ai": true,
        "track_id": 0,
        "velocity": 0,
        "is_motor": true,
        "motor_id": 0,
        "accel_val": 2000,
        "base_duration_us": 148437
      },
      {
        "id": "M_1009",
        "pitch": 72,
        "t_note_us": 135149395,
        "t_trigger_us": 135013432,
        "is_ai": true,
        "track_id": 0,
        "velocity": 0,
        "is_motor": true,
        "motor_id": 3,
        "accel_val": 2000,
        "base_duration_us": 148437
      },
      {
        "id": "M_1010",
        "pitch": 45,
        "t_note_us": 135299394,
        "t_trigger_us": 135163431,
        "is_ai": true,
        "track_id": 0,
        "velocity": 0,
        "is_motor": true,
        "motor_id": 0,
        "accel_val": 2000,
        "base_duration_us": 148437
      },
      {
        "id": "M_1011",
        "pitch": 76,
        "t_note_us": 135299394,
        "t_trigger_us": 135163431,
        "is_ai": true,
        "track_id": 0,
        "velocity": 0,
        "is_motor": true,
        "motor_id": 3,
        "accel_val": 2000,
        "base_duration_us": 148437
      },
      {
        "id": "M_1012",
        "pitch": 48,
        "t_note_us": 135449393,
        "t_trigger_us": 135313430,
        "is_ai": true,
        "track_id": 0,
        "velocity": 0,
        "is_motor": true,
        "motor_id": 0,
        "accel_val": 2000,
        "base_duration_us": 148437
      },
      {
        "id": "M_1013",
        "pitch": 67,
        "t_note_us": 135449393,
        "t_trigger_us": 135313430,
        "is_ai": true,
        "track_id": 0,
        "velocity": 0,
        "is_motor": true,
        "motor_id": 3,
        "accel_val": 2000,
        "base_duration_us": 148437
      },
      {
        "id": "M_1015",
        "pitch": 52,
        "t_note_us": 135599392,
        "t_trigger_us": 135463429,
        "is_ai": true,
        "track_id": 0,
        "velocity": 0,
        "is_motor": true,
        "motor_id": 0,
        "accel_val": 2000,
        "base_duration_us": 148437
      },
      {
        "id": "M_1019",
        "pitch": 69,
        "t_note_us": 135599392,
        "t_trigger_us": 135463429,
        "is_ai": true,
        "track_id": 0,
        "velocity": 0,
        "is_motor": true,
        "motor_id": 1,
        "accel_val": 2000,
        "base_duration_us": 598434
      },
      {
        "id": "M_1025",
        "pitch": 69,
        "t_note_us": 135599392,
        "t_trigger_us": 135463429,
        "is_ai": true,
        "track_id": 0,
        "velocity": 0,
        "is_motor": true,
        "motor_id": 3,
        "accel_val": 2000,
        "base_duration_us": 1198430
      },
      {
        "id": "M_1016",
        "pitch": 48,
        "t_note_us": 135749391,
        "t_trigger_us": 135613428,
        "is_ai": true,
        "track_id": 0,
        "velocity": 0,
        "is_motor": true,
        "motor_id": 0,
        "accel_val": 2000,
        "base_duration_us": 148437
      },
      {
        "id": "M_1017",
        "pitch": 45,
        "t_note_us": 135899390,
        "t_trigger_us": 135763427,
        "is_ai": true,
        "track_id": 0,
        "velocity": 0,
        "is_motor": true,
        "motor_id": 0,
        "accel_val": 2000,
        "base_duration_us": 148437
      },
      {
        "id": "M_1018",
        "pitch": 40,
        "t_note_us": 136049389,
        "t_trigger_us": 135913426,
        "is_ai": true,
        "track_id": 0,
        "velocity": 0,
        "is_motor": true,
        "motor_id": 0,
        "accel_val": 2000,
        "base_duration_us": 148437
      },
      {
        "id": "M_1020",
        "pitch": 33,
        "t_note_us": 136199388,
        "t_trigger_us": 136063425,
        "is_ai": true,
        "track_id": 0,
        "velocity": 0,
        "is_motor": true,
        "motor_id": 0,
        "accel_val": 2000,
        "base_duration_us": 148437
      },
      {
        "id": "M_1022",
        "pitch": 76,
        "t_note_us": 136199388,
        "t_trigger_us": 136063425,
        "is_ai": true,
        "track_id": 0,
        "velocity": 0,
        "is_motor": true,
        "motor_id": 1,
        "accel_val": 2000,
        "base_duration_us": 298436
      },
      {
        "id": "M_1023",
        "pitch": 64,
        "t_note_us": 136199388,
        "t_trigger_us": 136063425,
        "is_ai": true,
        "track_id": 0,
        "velocity": 0,
        "is_motor": true,
        "motor_id": 0,
        "accel_val": 2000,
        "base_duration_us": 298436
      },
      {
        "id": "M_1021",
        "pitch": 40,
        "t_note_us": 136349387,
        "t_trigger_us": 136213424,
        "is_ai": true,
        "track_id": 0,
        "velocity": 0,
        "is_motor": true,
        "motor_id": 0,
        "accel_val": 2000,
        "base_duration_us": 148437
      },
      {
        "id": "M_1024",
        "pitch": 45,
        "t_note_us": 136499386,
        "t_trigger_us": 136363423,
        "is_ai": true,
        "track_id": 0,
        "velocity": 0,
        "is_motor": true,
        "motor_id": 0,
        "accel_val": 2000,
        "base_duration_us": 148437
      },
      {
        "id": "M_1028",
        "pitch": 77,
        "t_note_us": 136499386,
        "t_trigger_us": 136363423,
        "is_ai": true,
        "track_id": 0,
        "velocity": 0,
        "is_motor": true,
        "motor_id": 1,
        "accel_val": 2000,
        "base_duration_us": 298436
      },
      {
        "id": "M_1029",
        "pitch": 65,
        "t_note_us": 136499386,
        "t_trigger_us": 136363423,
        "is_ai": true,
        "track_id": 0,
        "velocity": 0,
        "is_motor": true,
        "motor_id": 1,
        "accel_val": 2000,
        "base_duration_us": 298436
      },
      {
        "id": "M_1027",
        "pitch": 40,
        "t_note_us": 136649385,
        "t_trigger_us": 136513422,
        "is_ai": true,
        "track_id": 0,
        "velocity": 0,
        "is_motor": true,
        "motor_id": 0,
        "accel_val": 2000,
        "base_duration_us": 148437
      },
      {
        "id": "M_1030",
        "pitch": 29,
        "t_note_us": 136799384,
        "t_trigger_us": 136663421,
        "is_ai": true,
        "track_id": 0,
        "velocity": 0,
        "is_motor": true,
        "motor_id": 0,
        "accel_val": 2000,
        "base_duration_us": 148437
      },
      {
        "id": "M_1031",
        "pitch": 67,
        "t_note_us": 136799384,
        "t_trigger_us": 136663421,
        "is_ai": true,
        "track_id": 0,
        "velocity": 0,
        "is_motor": true,
        "motor_id": 1,
        "accel_val": 2000,
        "base_duration_us": 148437
      },
      {
        "id": "M_1032",
        "pitch": 69,
        "t_note_us": 136799384,
        "t_trigger_us": 136663421,
        "is_ai": true,
        "track_id": 0,
        "velocity": 0,
        "is_motor": true,
        "motor_id": 2,
        "accel_val": 2000,
        "base_duration_us": 148437
      },
      {
        "id": "M_1033",
        "pitch": 67,
        "t_note_us": 136799384,
        "t_trigger_us": 136663421,
        "is_ai": true,
        "track_id": 0,
        "velocity": 0,
        "is_motor": true,
        "motor_id": 3,
        "accel_val": 2000,
        "base_duration_us": 148437
      },
      {
        "id": "M_1034",
        "pitch": 41,
        "t_note_us": 136949383,
        "t_trigger_us": 136813420,
        "is_ai": true,
        "track_id": 0,
        "velocity": 0,
        "is_motor": true,
        "motor_id": 0,
        "accel_val": 2000,
        "base_duration_us": 148437
      },
      {
        "id": "M_1035",
        "pitch": 72,
        "t_note_us": 136949383,
        "t_trigger_us": 136813420,
        "is_ai": true,
        "track_id": 0,
        "velocity": 0,
        "is_motor": true,
        "motor_id": 1,
        "accel_val": 2000,
        "base_duration_us": 148437
      },
      {
        "id": "M_1036",
        "pitch": 45,
        "t_note_us": 137099382,
        "t_trigger_us": 136963419,
        "is_ai": true,
        "track_id": 0,
        "velocity": 0,
        "is_motor": true,
        "motor_id": 0,
        "accel_val": 2000,
        "base_duration_us": 148437
      },
      {
        "id": "M_1037",
        "pitch": 69,
        "t_note_us": 137099382,
        "t_trigger_us": 136963419,
        "is_ai": true,
        "track_id": 0,
        "velocity": 0,
        "is_motor": true,
        "motor_id": 1,
        "accel_val": 2000,
        "base_duration_us": 148437
      },
      {
        "id": "M_1038",
        "pitch": 48,
        "t_note_us": 137249381,
        "t_trigger_us": 137113418,
        "is_ai": true,
        "track_id": 0,
        "velocity": 0,
        "is_motor": true,
        "motor_id": 0,
        "accel_val": 2000,
        "base_duration_us": 148437
      },
      {
        "id": "M_1039",
        "pitch": 72,
        "t_note_us": 137249381,
        "t_trigger_us": 137113418,
        "is_ai": true,
        "track_id": 0,
        "velocity": 0,
        "is_motor": true,
        "motor_id": 1,
        "accel_val": 2000,
        "base_duration_us": 148437
      },
      {
        "id": "M_1040",
        "pitch": 45,
        "t_note_us": 137399380,
        "t_trigger_us": 137263417,
        "is_ai": true,
        "track_id": 0,
        "velocity": 0,
        "is_motor": true,
        "motor_id": 0,
        "accel_val": 2000,
        "base_duration_us": 148437
      },
      {
        "id": "M_1041",
        "pitch": 67,
        "t_note_us": 137399380,
        "t_trigger_us": 137263417,
        "is_ai": true,
        "track_id": 0,
        "velocity": 0,
        "is_motor": true,
        "motor_id": 1,
        "accel_val": 2000,
        "base_duration_us": 148437
      },
      {
        "id": "M_1042",
        "pitch": 67,
        "t_note_us": 137399380,
        "t_trigger_us": 137263417,
        "is_ai": true,
        "track_id": 0,
        "velocity": 0,
        "is_motor": true,
        "motor_id": 2,
        "accel_val": 2000,
        "base_duration_us": 148437
      },
      {
        "id": "M_1043",
        "pitch": 52,
        "t_note_us": 137549379,
        "t_trigger_us": 137413416,
        "is_ai": true,
        "track_id": 0,
        "velocity": 0,
        "is_motor": true,
        "motor_id": 0,
        "accel_val": 2000,
        "base_duration_us": 148437
      },
      {
        "id": "M_1044",
        "pitch": 72,
        "t_note_us": 137549379,
        "t_trigger_us": 137413416,
        "is_ai": true,
        "track_id": 0,
        "velocity": 0,
        "is_motor": true,
        "motor_id": 1,
        "accel_val": 2000,
        "base_duration_us": 148437
      },
      {
        "id": "M_1045",
        "pitch": 48,
        "t_note_us": 137699378,
        "t_trigger_us": 137563415,
        "is_ai": true,
        "track_id": 0,
        "velocity": 0,
        "is_motor": true,
        "motor_id": 0,
        "accel_val": 2000,
        "base_duration_us": 148437
      },
      {
        "id": "M_1046",
        "pitch": 69,
        "t_note_us": 137699378,
        "t_trigger_us": 137563415,
        "is_ai": true,
        "track_id": 0,
        "velocity": 0,
        "is_motor": true,
        "motor_id": 1,
        "accel_val": 2000,
        "base_duration_us": 148437
      },
      {
        "id": "M_1047",
        "pitch": 45,
        "t_note_us": 137849377,
        "t_trigger_us": 137713414,
        "is_ai": true,
        "track_id": 0,
        "velocity": 0,
        "is_motor": true,
        "motor_id": 0,
        "accel_val": 2000,
        "base_duration_us": 148437
      },
      {
        "id": "M_1048",
        "pitch": 72,
        "t_note_us": 137849377,
        "t_trigger_us": 137713414,
        "is_ai": true,
        "track_id": 0,
        "velocity": 0,
        "is_motor": true,
        "motor_id": 1,
        "accel_val": 2000,
        "base_duration_us": 148437
      },
      {
        "id": "M_1049",
        "pitch": 29,
        "t_note_us": 137999376,
        "t_trigger_us": 137863413,
        "is_ai": true,
        "track_id": 0,
        "velocity": 0,
        "is_motor": true,
        "motor_id": 0,
        "accel_val": 2000,
        "base_duration_us": 148437
      },
      {
        "id": "M_1050",
        "pitch": 76,
        "t_note_us": 137999376,
        "t_trigger_us": 137863413,
        "is_ai": true,
        "track_id": 0,
        "velocity": 0,
        "is_motor": true,
        "motor_id": 2,
        "accel_val": 2000,
        "base_duration_us": 148437
      },
      {
        "id": "M_1051",
        "pitch": 69,
        "t_note_us": 137999376,
        "t_trigger_us": 137863413,
        "is_ai": true,
        "track_id": 0,
        "velocity": 0,
        "is_motor": true,
        "motor_id": 1,
        "accel_val": 2000,
        "base_duration_us": 148437
      },
      {
        "id": "M_1052",
        "pitch": 64,
        "t_note_us": 137999376,
        "t_trigger_us": 137863413,
        "is_ai": true,
        "track_id": 0,
        "velocity": 0,
        "is_motor": true,
        "motor_id": 3,
        "accel_val": 2000,
        "base_duration_us": 148437
      },
      {
        "id": "M_1053",
        "pitch": 41,
        "t_note_us": 138149375,
        "t_trigger_us": 138013412,
        "is_ai": true,
        "track_id": 0,
        "velocity": 0,
        "is_motor": true,
        "motor_id": 0,
        "accel_val": 2000,
        "base_duration_us": 148437
      },
      {
        "id": "M_1054",
        "pitch": 69,
        "t_note_us": 138149375,
        "t_trigger_us": 138013412,
        "is_ai": true,
        "track_id": 0,
        "velocity": 0,
        "is_motor": true,
        "motor_id": 1,
        "accel_val": 2000,
        "base_duration_us": 148437
      },
      {
        "id": "M_1055",
        "pitch": 45,
        "t_note_us": 138299374,
        "t_trigger_us": 138163411,
        "is_ai": true,
        "track_id": 0,
        "velocity": 0,
        "is_motor": true,
        "motor_id": 0,
        "accel_val": 2000,
        "base_duration_us": 148437
      },
      {
        "id": "M_1056",
        "pitch": 72,
        "t_note_us": 138299374,
        "t_trigger_us": 138163411,
        "is_ai": true,
        "track_id": 0,
        "velocity": 0,
        "is_motor": true,
        "motor_id": 1,
        "accel_val": 2000,
        "base_duration_us": 148437
      },
      {
        "id": "M_1057",
        "pitch": 41,
        "t_note_us": 138449373,
        "t_trigger_us": 138313410,
        "is_ai": true,
        "track_id": 0,
        "velocity": 0,
        "is_motor": true,
        "motor_id": 0,
        "accel_val": 2000,
        "base_duration_us": 148437
      },
      {
        "id": "M_1058",
        "pitch": 69,
        "t_note_us": 138449373,
        "t_trigger_us": 138313410,
        "is_ai": true,
        "track_id": 0,
        "velocity": 0,
        "is_motor": true,
        "motor_id": 1,
        "accel_val": 2000,
        "base_duration_us": 148437
      },
      {
        "id": "M_1059",
        "pitch": 29,
        "t_note_us": 138599372,
        "t_trigger_us": 138463409,
        "is_ai": true,
        "track_id": 0,
        "velocity": 0,
        "is_motor": true,
        "motor_id": 0,
        "accel_val": 2000,
        "base_duration_us": 148437
      },
      {
        "id": "M_1060",
        "pitch": 76,
        "t_note_us": 138599372,
        "t_trigger_us": 138463409,
        "is_ai": true,
        "track_id": 0,
        "velocity": 0,
        "is_motor": true,
        "motor_id": 2,
        "accel_val": 2000,
        "base_duration_us": 148437
      },
      {
        "id": "M_1061",
        "pitch": 64,
        "t_note_us": 138599372,
        "t_trigger_us": 138463409,
        "is_ai": true,
        "track_id": 0,
        "velocity": 0,
        "is_motor": true,
        "motor_id": 1,
        "accel_val": 2000,
        "base_duration_us": 148437
      },
      {
        "id": "M_1062",
        "pitch": 41,
        "t_note_us": 138749371,
        "t_trigger_us": 138613408,
        "is_ai": true,
        "track_id": 0,
        "velocity": 0,
        "is_motor": true,
        "motor_id": 0,
        "accel_val": 2000,
        "base_duration_us": 148437
      },
      {
        "id": "M_1063",
        "pitch": 69,
        "t_note_us": 138749371,
        "t_trigger_us": 138613408,
        "is_ai": true,
        "track_id": 0,
        "velocity": 0,
        "is_motor": true,
        "motor_id": 1,
        "accel_val": 2000,
        "base_duration_us": 148437
      },
      {
        "id": "M_1064",
        "pitch": 47,
        "t_note_us": 138899370,
        "t_trigger_us": 138763407,
        "is_ai": true,
        "track_id": 0,
        "velocity": 0,
        "is_motor": true,
        "motor_id": 0,
        "accel_val": 2000,
        "base_duration_us": 148437
      },
      {
        "id": "M_1065",
        "pitch": 77,
        "t_note_us": 138899370,
        "t_trigger_us": 138763407,
        "is_ai": true,
        "track_id": 0,
        "velocity": 0,
        "is_motor": true,
        "motor_id": 2,
        "accel_val": 2000,
        "base_duration_us": 148437
      },
      {
        "id": "M_1066",
        "pitch": 69,
        "t_note_us": 138899370,
        "t_trigger_us": 138763407,
        "is_ai": true,
        "track_id": 0,
        "velocity": 0,
        "is_motor": true,
        "motor_id": 1,
        "accel_val": 2000,
        "base_duration_us": 148437
      },
      {
        "id": "M_1067",
        "pitch": 65,
        "t_note_us": 138899370,
        "t_trigger_us": 138763407,
        "is_ai": true,
        "track_id": 0,
        "velocity": 0,
        "is_motor": true,
        "motor_id": 3,
        "accel_val": 2000,
        "base_duration_us": 148437
      },
      {
        "id": "M_1068",
        "pitch": 41,
        "t_note_us": 139049369,
        "t_trigger_us": 138913406,
        "is_ai": true,
        "track_id": 0,
        "velocity": 0,
        "is_motor": true,
        "motor_id": 0,
        "accel_val": 2000,
        "base_duration_us": 148437
      },
      {
        "id": "M_1069",
        "pitch": 72,
        "t_note_us": 139049369,
        "t_trigger_us": 138913406,
        "is_ai": true,
        "track_id": 0,
        "velocity": 0,
        "is_motor": true,
        "motor_id": 1,
        "accel_val": 2000,
        "base_duration_us": 148437
      },
      {
        "id": "M_1070",
        "pitch": 29,
        "t_note_us": 139199368,
        "t_trigger_us": 139063405,
        "is_ai": true,
        "track_id": 0,
        "velocity": 0,
        "is_motor": true,
        "motor_id": 0,
        "accel_val": 2000,
        "base_duration_us": 148437
      },
      {
        "id": "M_1071",
        "pitch": 67,
        "t_note_us": 139199368,
        "t_trigger_us": 139063405,
        "is_ai": true,
        "track_id": 0,
        "velocity": 0,
        "is_motor": true,
        "motor_id": 1,
        "accel_val": 2000,
        "base_duration_us": 148437
      },
      {
        "id": "M_1072",
        "pitch": 67,
        "t_note_us": 139199368,
        "t_trigger_us": 139063405,
        "is_ai": true,
        "track_id": 0,
        "velocity": 0,
        "is_motor": true,
        "motor_id": 2,
        "accel_val": 2000,
        "base_duration_us": 148437
      },
      {
        "id": "M_1073",
        "pitch": 41,
        "t_note_us": 139349367,
        "t_trigger_us": 139213404,
        "is_ai": true,
        "track_id": 0,
        "velocity": 0,
        "is_motor": true,
        "motor_id": 0,
        "accel_val": 2000,
        "base_duration_us": 148437
      },
      {
        "id": "M_1074",
        "pitch": 72,
        "t_note_us": 139349367,
        "t_trigger_us": 139213404,
        "is_ai": true,
        "track_id": 0,
        "velocity": 0,
        "is_motor": true,
        "motor_id": 1,
        "accel_val": 2000,
        "base_duration_us": 148437
      },
      {
        "id": "M_1075",
        "pitch": 44,
        "t_note_us": 139499366,
        "t_trigger_us": 139363403,
        "is_ai": true,
        "track_id": 0,
        "velocity": 0,
        "is_motor": true,
        "motor_id": 0,
        "accel_val": 2000,
        "base_duration_us": 148437
      },
      {
        "id": "M_1076",
        "pitch": 67,
        "t_note_us": 139499366,
        "t_trigger_us": 139363403,
        "is_ai": true,
        "track_id": 0,
        "velocity": 0,
        "is_motor": true,
        "motor_id": 1,
        "accel_val": 2000,
        "base_duration_us": 148437
      },
      {
        "id": "M_1077",
        "pitch": 67,
        "t_note_us": 139499366,
        "t_trigger_us": 139363403,
        "is_ai": true,
        "track_id": 0,
        "velocity": 0,
        "is_motor": true,
        "motor_id": 2,
        "accel_val": 2000,
        "base_duration_us": 148437
      },
      {
        "id": "M_1078",
        "pitch": 48,
        "t_note_us": 139649365,
        "t_trigger_us": 139513402,
        "is_ai": true,
        "track_id": 0,
        "velocity": 0,
        "is_motor": true,
        "motor_id": 0,
        "accel_val": 2000,
        "base_duration_us": 148437
      },
      {
        "id": "M_1079",
        "pitch": 72,
        "t_note_us": 139649365,
        "t_trigger_us": 139513402,
        "is_ai": true,
        "track_id": 0,
        "velocity": 0,
        "is_motor": true,
        "motor_id": 1,
        "accel_val": 2000,
        "base_duration_us": 148437
      },
      {
        "id": "M_1080",
        "pitch": 44,
        "t_note_us": 139799364,
        "t_trigger_us": 139663401,
        "is_ai": true,
        "track_id": 0,
        "velocity": 0,
        "is_motor": true,
        "motor_id": 0,
        "accel_val": 2000,
        "base_duration_us": 148437
      },
      {
        "id": "M_1081",
        "pitch": 67,
        "t_note_us": 139799364,
        "t_trigger_us": 139663401,
        "is_ai": true,
        "track_id": 0,
        "velocity": 0,
        "is_motor": true,
        "motor_id": 1,
        "accel_val": 2000,
        "base_duration_us": 148437
      },
      {
        "id": "M_1082",
        "pitch": 67,
        "t_note_us": 139799364,
        "t_trigger_us": 139663401,
        "is_ai": true,
        "track_id": 0,
        "velocity": 0,
        "is_motor": true,
        "motor_id": 2,
        "accel_val": 2000,
        "base_duration_us": 148437
      },
      {
        "id": "M_1083",
        "pitch": 53,
        "t_note_us": 139949363,
        "t_trigger_us": 139813400,
        "is_ai": true,
        "track_id": 0,
        "velocity": 0,
        "is_motor": true,
        "motor_id": 0,
        "accel_val": 2000,
        "base_duration_us": 148437
      },
      {
        "id": "M_1084",
        "pitch": 72,
        "t_note_us": 139949363,
        "t_trigger_us": 139813400,
        "is_ai": true,
        "track_id": 0,
        "velocity": 0,
        "is_motor": true,
        "motor_id": 1,
        "accel_val": 2000,
        "base_duration_us": 148437
      },
      {
        "id": "M_1085",
        "pitch": 50,
        "t_note_us": 140099362,
        "t_trigger_us": 139963399,
        "is_ai": true,
        "track_id": 0,
        "velocity": 0,
        "is_motor": true,
        "motor_id": 0,
        "accel_val": 2000,
        "base_duration_us": 148437
      },
      {
        "id": "M_1089",
        "pitch": 74,
        "t_note_us": 140099362,
        "t_trigger_us": 139963399,
        "is_ai": true,
        "track_id": 0,
        "velocity": 0,
        "is_motor": true,
        "motor_id": 1,
        "accel_val": 2000,
        "base_duration_us": 448435
      },
      {
        "id": "M_1090",
        "pitch": 62,
        "t_note_us": 140099362,
        "t_trigger_us": 139963399,
        "is_ai": true,
        "track_id": 0,
        "velocity": 0,
        "is_motor": true,
        "motor_id": 2,
        "accel_val": 2000,
        "base_duration_us": 448435
      },
      {
        "id": "M_1086",
        "pitch": 44,
        "t_note_us": 140249361,
        "t_trigger_us": 140113398,
        "is_ai": true,
        "track_id": 0,
        "velocity": 0,
        "is_motor": true,
        "motor_id": 0,
        "accel_val": 2000,
        "base_duration_us": 148437
      },
      {
        "id": "M_1087",
        "pitch": 68,
        "t_note_us": 140249361,
        "t_trigger_us": 140113398,
        "is_ai": true,
        "track_id": 0,
        "velocity": 0,
        "is_motor": true,
        "motor_id": 3,
        "accel_val": 2000,
        "base_duration_us": 148437
      },
      {
        "id": "M_1088",
        "pitch": 29,
        "t_note_us": 140399360,
        "t_trigger_us": 140263397,
        "is_ai": true,
        "track_id": 0,
        "velocity": 0,
        "is_motor": true,
        "motor_id": 0,
        "accel_val": 2000,
        "base_duration_us": 148437
      },
      {
        "id": "M_1091",
        "pitch": 41,
        "t_note_us": 140549359,
        "t_trigger_us": 140413396,
        "is_ai": true,
        "track_id": 0,
        "velocity": 0,
        "is_motor": true,
        "motor_id": 0,
        "accel_val": 2000,
        "base_duration_us": 148437
      },
      {
        "id": "M_1092",
        "pitch": 68,
        "t_note_us": 140549359,
        "t_trigger_us": 140413396,
        "is_ai": true,
        "track_id": 0,
        "velocity": 0,
        "is_motor": true,
        "motor_id": 1,
        "accel_val": 2000,
        "base_duration_us": 148437
      },
      {
        "id": "M_1093",
        "pitch": 44,
        "t_note_us": 140699358,
        "t_trigger_us": 140563395,
        "is_ai": true,
        "track_id": 0,
        "velocity": 0,
        "is_motor": true,
        "motor_id": 0,
        "accel_val": 2000,
        "base_duration_us": 148437
      },
      {
        "id": "M_1094",
        "pitch": 72,
        "t_note_us": 140699358,
        "t_trigger_us": 140563395,
        "is_ai": true,
        "track_id": 0,
        "velocity": 0,
        "is_motor": true,
        "motor_id": 1,
        "accel_val": 2000,
        "base_duration_us": 148437
      },
      {
        "id": "M_1095",
        "pitch": 60,
        "t_note_us": 140699358,
        "t_trigger_us": 140563395,
        "is_ai": true,
        "track_id": 0,
        "velocity": 0,
        "is_motor": true,
        "motor_id": 2,
        "accel_val": 2000,
        "base_duration_us": 148437
      },
      {
        "id": "M_1096",
        "pitch": 41,
        "t_note_us": 140849357,
        "t_trigger_us": 140713394,
        "is_ai": true,
        "track_id": 0,
        "velocity": 0,
        "is_motor": true,
        "motor_id": 0,
        "accel_val": 2000,
        "base_duration_us": 148437
      },
      {
        "id": "M_1097",
        "pitch": 68,
        "t_note_us": 140849357,
        "t_trigger_us": 140713394,
        "is_ai": true,
        "track_id": 0,
        "velocity": 0,
        "is_motor": true,
        "motor_id": 1,
        "accel_val": 2000,
        "base_duration_us": 148437
      },
      {
        "id": "M_1098",
        "pitch": 32,
        "t_note_us": 140999356,
        "t_trigger_us": 140863393,
        "is_ai": true,
        "track_id": 0,
        "velocity": 0,
        "is_motor": true,
        "motor_id": 0,
        "accel_val": 2000,
        "base_duration_us": 148437
      },
      {
        "id": "M_1099",
        "pitch": 72,
        "t_note_us": 140999356,
        "t_trigger_us": 140863393,
        "is_ai": true,
        "track_id": 0,
        "velocity": 0,
        "is_motor": true,
        "motor_id": 1,
        "accel_val": 2000,
        "base_duration_us": 148437
      },
      {
        "id": "M_1100",
        "pitch": 60,
        "t_note_us": 140999356,
        "t_trigger_us": 140863393,
        "is_ai": true,
        "track_id": 0,
        "velocity": 0,
        "is_motor": true,
        "motor_id": 2,
        "accel_val": 2000,
        "base_duration_us": 148437
      },
      {
        "id": "M_1101",
        "pitch": 41,
        "t_note_us": 141149355,
        "t_trigger_us": 141013392,
        "is_ai": true,
        "track_id": 0,
        "velocity": 0,
        "is_motor": true,
        "motor_id": 0,
        "accel_val": 2000,
        "base_duration_us": 148437
      },
      {
        "id": "M_1102",
        "pitch": 65,
        "t_note_us": 141149355,
        "t_trigger_us": 141013392,
        "is_ai": true,
        "track_id": 0,
        "velocity": 0,
        "is_motor": true,
        "motor_id": 1,
        "accel_val": 2000,
        "base_duration_us": 148437
      },
      {
        "id": "M_1103",
        "pitch": 50,
        "t_note_us": 141299354,
        "t_trigger_us": 141163391,
        "is_ai": true,
        "track_id": 0,
        "velocity": 0,
        "is_motor": true,
        "motor_id": 0,
        "accel_val": 2000,
        "base_duration_us": 298437
      },
      {
        "id": "M_1104",
        "pitch": 68,
        "t_note_us": 141299354,
        "t_trigger_us": 141163391,
        "is_ai": true,
        "track_id": 0,
        "velocity": 0,
        "is_motor": true,
        "motor_id": 1,
        "accel_val": 2000,
        "base_duration_us": 298437
      },
      {
        "id": "M_1105",
        "pitch": 56,
        "t_note_us": 141299354,
        "t_trigger_us": 141163391,
        "is_ai": true,
        "track_id": 0,
        "velocity": 0,
        "is_motor": true,
        "motor_id": 2,
        "accel_val": 2000,
        "base_duration_us": 298437
      },
      {
        "id": "M_1106",
        "pitch": 28,
        "t_note_us": 141599353,
        "t_trigger_us": 141463390,
        "is_ai": true,
        "track_id": 0,
        "velocity": 0,
        "is_motor": true,
        "motor_id": 0,
        "accel_val": 2000,
        "base_duration_us": 148437
      },
      {
        "id": "M_1107",
        "pitch": 74,
        "t_note_us": 141599353,
        "t_trigger_us": 141463390,
        "is_ai": true,
        "track_id": 0,
        "velocity": 0,
        "is_motor": true,
        "motor_id": 1,
        "accel_val": 2000,
        "base_duration_us": 148437
      },
      {
        "id": "M_1108",
        "pitch": 62,
        "t_note_us": 141599353,
        "t_trigger_us": 141463390,
        "is_ai": true,
        "track_id": 0,
        "velocity": 0,
        "is_motor": true,
        "motor_id": 2,
        "accel_val": 2000,
        "base_duration_us": 148437
      },
      {
        "id": "M_1109",
        "pitch": 40,
        "t_note_us": 141749352,
        "t_trigger_us": 141613389,
        "is_ai": true,
        "track_id": 0,
        "velocity": 0,
        "is_motor": true,
        "motor_id": 0,
        "accel_val": 2000,
        "base_duration_us": 148437
      },
      {
        "id": "M_1110",
        "pitch": 69,
        "t_note_us": 141749352,
        "t_trigger_us": 141613389,
        "is_ai": true,
        "track_id": 0,
        "velocity": 0,
        "is_motor": true,
        "motor_id": 1,
        "accel_val": 2000,
        "base_duration_us": 148437
      },
      {
        "id": "M_1111",
        "pitch": 43,
        "t_note_us": 141899351,
        "t_trigger_us": 141763388,
        "is_ai": true,
        "track_id": 0,
        "velocity": 0,
        "is_motor": true,
        "motor_id": 0,
        "accel_val": 2000,
        "base_duration_us": 148437
      },
      {
        "id": "M_1112",
        "pitch": 67,
        "t_note_us": 141899351,
        "t_trigger_us": 141763388,
        "is_ai": true,
        "track_id": 0,
        "velocity": 0,
        "is_motor": true,
        "motor_id": 1,
        "accel_val": 2000,
        "base_duration_us": 148437
      },
      {
        "id": "M_1113",
        "pitch": 47,
        "t_note_us": 142049350,
        "t_trigger_us": 141913387,
        "is_ai": true,
        "track_id": 0,
        "velocity": 0,
        "is_motor": true,
        "motor_id": 0,
        "accel_val": 2000,
        "base_duration_us": 148437
      },
      {
        "id": "M_1114",
        "pitch": 69,
        "t_note_us": 142049350,
        "t_trigger_us": 141913387,
        "is_ai": true,
        "track_id": 0,
        "velocity": 0,
        "is_motor": true,
        "motor_id": 1,
        "accel_val": 2000,
        "base_duration_us": 148437
      },
      {
        "id": "M_1115",
        "pitch": 50,
        "t_note_us": 142199349,
        "t_trigger_us": 142063386,
        "is_ai": true,
        "track_id": 0,
        "velocity": 0,
        "is_motor": true,
        "motor_id": 0,
        "accel_val": 2000,
        "base_duration_us": 148437
      },
      {
        "id": "M_1116",
        "pitch": 74,
        "t_note_us": 142199349,
        "t_trigger_us": 142063386,
        "is_ai": true,
        "track_id": 0,
        "velocity": 0,
        "is_motor": true,
        "motor_id": 1,
        "accel_val": 2000,
        "base_duration_us": 148437
      },
      {
        "id": "M_1117",
        "pitch": 62,
        "t_note_us": 142199349,
        "t_trigger_us": 142063386,
        "is_ai": true,
        "track_id": 0,
        "velocity": 0,
        "is_motor": true,
        "motor_id": 2,
        "accel_val": 2000,
        "base_duration_us": 148437
      },
      {
        "id": "M_1118",
        "pitch": 43,
        "t_note_us": 142349348,
        "t_trigger_us": 142213385,
        "is_ai": true,
        "track_id": 0,
        "velocity": 0,
        "is_motor": true,
        "motor_id": 0,
        "accel_val": 2000,
        "base_duration_us": 148437
      },
      {
        "id": "M_1119",
        "pitch": 72,
        "t_note_us": 142349348,
        "t_trigger_us": 142213385,
        "is_ai": true,
        "track_id": 0,
        "velocity": 0,
        "is_motor": true,
        "motor_id": 1,
        "accel_val": 2000,
        "base_duration_us": 148437
      },
      {
        "id": "M_1120",
        "pitch": 47,
        "t_note_us": 142499347,
        "t_trigger_us": 142363384,
        "is_ai": true,
        "track_id": 0,
        "velocity": 0,
        "is_motor": true,
        "motor_id": 0,
        "accel_val": 2000,
        "base_duration_us": 148437
      },
      {
        "id": "M_1122",
        "pitch": 76,
        "t_note_us": 142499347,
        "t_trigger_us": 142363384,
        "is_ai": true,
        "track_id": 0,
        "velocity": 0,
        "is_motor": true,
        "motor_id": 2,
        "accel_val": 2000,
        "base_duration_us": 298436
      },
      {
        "id": "M_1123",
        "pitch": 64,
        "t_note_us": 142499347,
        "t_trigger_us": 142363384,
        "is_ai": true,
        "track_id": 0,
        "velocity": 0,
        "is_motor": true,
        "motor_id": 1,
        "accel_val": 2000,
        "base_duration_us": 298436
      },
      {
        "id": "M_1121",
        "pitch": 40,
        "t_note_us": 142649346,
        "t_trigger_us": 142513383,
        "is_ai": true,
        "track_id": 0,
        "velocity": 0,
        "is_motor": true,
        "motor_id": 0,
        "accel_val": 2000,
        "base_duration_us": 148437
      },
      {
        "id": "M_1124",
        "pitch": 28,
        "t_note_us": 142799345,
        "t_trigger_us": 142663382,
        "is_ai": true,
        "track_id": 0,
        "velocity": 0,
        "is_motor": true,
        "motor_id": 0,
        "accel_val": 2000,
        "base_duration_us": 148437
      },
      {
        "id": "M_1125",
        "pitch": 74,
        "t_note_us": 142799345,
        "t_trigger_us": 142663382,
        "is_ai": true,
        "track_id": 0,
        "velocity": 0,
        "is_motor": true,
        "motor_id": 1,
        "accel_val": 2000,
        "base_duration_us": 148437
      },
      {
        "id": "M_1126",
        "pitch": 62,
        "t_note_us": 142799345,
        "t_trigger_us": 142663382,
        "is_ai": true,
        "track_id": 0,
        "velocity": 0,
        "is_motor": true,
        "motor_id": 2,
        "accel_val": 2000,
        "base_duration_us": 148437
      },
      {
        "id": "M_1127",
        "pitch": 40,
        "t_note_us": 142949344,
        "t_trigger_us": 142813381,
        "is_ai": true,
        "track_id": 0,
        "velocity": 0,
        "is_motor": true,
        "motor_id": 0,
        "accel_val": 2000,
        "base_duration_us": 148437
      },
      {
        "id": "M_1128",
        "pitch": 71,
        "t_note_us": 142949344,
        "t_trigger_us": 142813381,
        "is_ai": true,
        "track_id": 0,
        "velocity": 0,
        "is_motor": true,
        "motor_id": 1,
        "accel_val": 2000,
        "base_duration_us": 148437
      },
      {
        "id": "M_1129",
        "pitch": 43,
        "t_note_us": 143099343,
        "t_trigger_us": 142963380,
        "is_ai": true,
        "track_id": 0,
        "velocity": 0,
        "is_motor": true,
        "motor_id": 0,
        "accel_val": 2000,
        "base_duration_us": 148437
      },
      {
        "id": "M_1130",
        "pitch": 67,
        "t_note_us": 143099343,
        "t_trigger_us": 142963380,
        "is_ai": true,
        "track_id": 0,
        "velocity": 0,
        "is_motor": true,
        "motor_id": 1,
        "accel_val": 2000,
        "base_duration_us": 148437
      },
      {
        "id": "M_1131",
        "pitch": 40,
        "t_note_us": 143249342,
        "t_trigger_us": 143113379,
        "is_ai": true,
        "track_id": 0,
        "velocity": 0,
        "is_motor": true,
        "motor_id": 0,
        "accel_val": 2000,
        "base_duration_us": 148437
      },
      {
        "id": "M_1132",
        "pitch": 71,
        "t_note_us": 143249342,
        "t_trigger_us": 143113379,
        "is_ai": true,
        "track_id": 0,
        "velocity": 0,
        "is_motor": true,
        "motor_id": 1,
        "accel_val": 2000,
        "base_duration_us": 148437
      },
      {
        "id": "M_1133",
        "pitch": 31,
        "t_note_us": 143399341,
        "t_trigger_us": 143263378,
        "is_ai": true,
        "track_id": 0,
        "velocity": 0,
        "is_motor": true,
        "motor_id": 0,
        "accel_val": 2000,
        "base_duration_us": 148437
      },
      {
        "id": "M_1134",
        "pitch": 74,
        "t_note_us": 143399341,
        "t_trigger_us": 143263378,
        "is_ai": true,
        "track_id": 0,
        "velocity": 0,
        "is_motor": true,
        "motor_id": 1,
        "accel_val": 2000,
        "base_duration_us": 148437
      },
      {
        "id": "M_1135",
        "pitch": 43,
        "t_note_us": 143549340,
        "t_trigger_us": 143413377,
        "is_ai": true,
        "track_id": 0,
        "velocity": 0,
        "is_motor": true,
        "motor_id": 0,
        "accel_val": 2000,
        "base_duration_us": 148437
      },
      {
        "id": "M_1136",
        "pitch": 76,
        "t_note_us": 143549340,
        "t_trigger_us": 143413377,
        "is_ai": true,
        "track_id": 0,
        "velocity": 0,
        "is_motor": true,
        "motor_id": 2,
        "accel_val": 2000,
        "base_duration_us": 148437
      },
      {
        "id": "M_1137",
        "pitch": 50,
        "t_note_us": 143699339,
        "t_trigger_us": 143563376,
        "is_ai": true,
        "track_id": 0,
        "velocity": 0,
        "is_motor": true,
        "motor_id": 0,
        "accel_val": 2000,
        "base_duration_us": 148437
      },
      {
        "id": "M_1140",
        "pitch": 74,
        "t_note_us": 143699339,
        "t_trigger_us": 143563376,
        "is_ai": true,
        "track_id": 0,
        "velocity": 0,
        "is_motor": true,
        "motor_id": 1,
        "accel_val": 2000,
        "base_duration_us": 448435
      },
      {
        "id": "M_1141",
        "pitch": 62,
        "t_note_us": 143699339,
        "t_trigger_us": 143563376,
        "is_ai": true,
        "track_id": 0,
        "velocity": 0,
        "is_motor": true,
        "motor_id": 2,
        "accel_val": 2000,
        "base_duration_us": 448435
      },
      {
        "id": "M_1138",
        "pitch": 43,
        "t_note_us": 143849338,
        "t_trigger_us": 143713375,
        "is_ai": true,
        "track_id": 0,
        "velocity": 0,
        "is_motor": true,
        "motor_id": 0,
        "accel_val": 2000,
        "base_duration_us": 148437
      },
      {
        "id": "M_1139",
        "pitch": 33,
        "t_note_us": 143999337,
        "t_trigger_us": 143863374,
        "is_ai": true,
        "track_id": 0,
        "velocity": 0,
        "is_motor": true,
        "motor_id": 0,
        "accel_val": 2000,
        "base_duration_us": 148437
      },
      {
        "id": "M_1142",
        "pitch": 40,
        "t_note_us": 144149336,
        "t_trigger_us": 144013373,
        "is_ai": true,
        "track_id": 0,
        "velocity": 0,
        "is_motor": true,
        "motor_id": 0,
        "accel_val": 2000,
        "base_duration_us": 148437
      },
      {
        "id": "M_1143",
        "pitch": 69,
        "t_note_us": 144149336,
        "t_trigger_us": 144013373,
        "is_ai": true,
        "track_id": 0,
        "velocity": 0,
        "is_motor": true,
        "motor_id": 1,
        "accel_val": 2000,
        "base_duration_us": 148437
      },
      {
        "id": "M_1144",
        "pitch": 45,
        "t_note_us": 144299335,
        "t_trigger_us": 144163372,
        "is_ai": true,
        "track_id": 0,
        "velocity": 0,
        "is_motor": true,
        "motor_id": 0,
        "accel_val": 2000,
        "base_duration_us": 148437
      },
      {
        "id": "M_1145",
        "pitch": 76,
        "t_note_us": 144299335,
        "t_trigger_us": 144163372,
        "is_ai": true,
        "track_id": 0,
        "velocity": 0,
        "is_motor": true,
        "motor_id": 2,
        "accel_val": 2000,
        "base_duration_us": 148437
      },
      {
        "id": "M_1146",
        "pitch": 64,
        "t_note_us": 144299335,
        "t_trigger_us": 144163372,
        "is_ai": true,
        "track_id": 0,
        "velocity": 0,
        "is_motor": true,
        "motor_id": 1,
        "accel_val": 2000,
        "base_duration_us": 148437
      },
      {
        "id": "M_1147",
        "pitch": 40,
        "t_note_us": 144449334,
        "t_trigger_us": 144313371,
        "is_ai": true,
        "track_id": 0,
        "velocity": 0,
        "is_motor": true,
        "motor_id": 0,
        "accel_val": 2000,
        "base_duration_us": 148437
      },
      {
        "id": "M_1148",
        "pitch": 69,
        "t_note_us": 144449334,
        "t_trigger_us": 144313371,
        "is_ai": true,
        "track_id": 0,
        "velocity": 0,
        "is_motor": true,
        "motor_id": 1,
        "accel_val": 2000,
        "base_duration_us": 148437
      },
      {
        "id": "M_1149",
        "pitch": 48,
        "t_note_us": 144599333,
        "t_trigger_us": 144463370,
        "is_ai": true,
        "track_id": 0,
        "velocity": 0,
        "is_motor": true,
        "motor_id": 0,
        "accel_val": 2000,
        "base_duration_us": 148437
      },
      {
        "id": "M_1150",
        "pitch": 74,
        "t_note_us": 144599333,
        "t_trigger_us": 144463370,
        "is_ai": true,
        "track_id": 0,
        "velocity": 0,
        "is_motor": true,
        "motor_id": 1,
        "accel_val": 2000,
        "base_duration_us": 148437
      },
      {
        "id": "M_1151",
        "pitch": 62,
        "t_note_us": 144599333,
        "t_trigger_us": 144463370,
        "is_ai": true,
        "track_id": 0,
        "velocity": 0,
        "is_motor": true,
        "motor_id": 2,
        "accel_val": 2000,
        "base_duration_us": 148437
      },
      {
        "id": "M_1152",
        "pitch": 45,
        "t_note_us": 144749332,
        "t_trigger_us": 144613369,
        "is_ai": true,
        "track_id": 0,
        "velocity": 0,
        "is_motor": true,
        "motor_id": 0,
        "accel_val": 2000,
        "base_duration_us": 148437
      },
      {
        "id": "M_1153",
        "pitch": 69,
        "t_note_us": 144749332,
        "t_trigger_us": 144613369,
        "is_ai": true,
        "track_id": 0,
        "velocity": 0,
        "is_motor": true,
        "motor_id": 1,
        "accel_val": 2000,
        "base_duration_us": 148437
      },
      {
        "id": "M_1154",
        "pitch": 40,
        "t_note_us": 144899331,
        "t_trigger_us": 144763368,
        "is_ai": true,
        "track_id": 0,
        "velocity": 0,
        "is_motor": true,
        "motor_id": 0,
        "accel_val": 2000,
        "base_duration_us": 148437
      },
      {
        "id": "M_1155",
        "pitch": 72,
        "t_note_us": 144899331,
        "t_trigger_us": 144763368,
        "is_ai": true,
        "track_id": 0,
        "velocity": 0,
        "is_motor": true,
        "motor_id": 1,
        "accel_val": 2000,
        "base_duration_us": 148437
      },
      {
        "id": "M_1156",
        "pitch": 60,
        "t_note_us": 144899331,
        "t_trigger_us": 144763368,
        "is_ai": true,
        "track_id": 0,
        "velocity": 0,
        "is_motor": true,
        "motor_id": 2,
        "accel_val": 2000,
        "base_duration_us": 148437
      },
      {
        "id": "M_1157",
        "pitch": 36,
        "t_note_us": 145049330,
        "t_trigger_us": 144913367,
        "is_ai": true,
        "track_id": 0,
        "velocity": 0,
        "is_motor": true,
        "motor_id": 0,
        "accel_val": 2000,
        "base_duration_us": 148437
      },
      {
        "id": "M_1158",
        "pitch": 69,
        "t_note_us": 145049330,
        "t_trigger_us": 144913367,
        "is_ai": true,
        "track_id": 0,
        "velocity": 0,
        "is_motor": true,
        "motor_id": 1,
        "accel_val": 2000,
        "base_duration_us": 148437
      },
      {
        "id": "M_1159",
        "pitch": 33,
        "t_note_us": 145199329,
        "t_trigger_us": 145063366,
        "is_ai": true,
        "track_id": 0,
        "velocity": 0,
        "is_motor": true,
        "motor_id": 0,
        "accel_val": 2000,
        "base_duration_us": 148437
      },
      {
        "id": "M_1160",
        "pitch": 72,
        "t_note_us": 145199329,
        "t_trigger_us": 145063366,
        "is_ai": true,
        "track_id": 0,
        "velocity": 0,
        "is_motor": true,
        "motor_id": 1,
        "accel_val": 2000,
        "base_duration_us": 148437
      },
      {
        "id": "M_1161",
        "pitch": 60,
        "t_note_us": 145199329,
        "t_trigger_us": 145063366,
        "is_ai": true,
        "track_id": 0,
        "velocity": 0,
        "is_motor": true,
        "motor_id": 2,
        "accel_val": 2000,
        "base_duration_us": 148437
      },
      {
        "id": "M_1162",
        "pitch": 45,
        "t_note_us": 145349328,
        "t_trigger_us": 145213365,
        "is_ai": true,
        "track_id": 0,
        "velocity": 0,
        "is_motor": true,
        "motor_id": 0,
        "accel_val": 2000,
        "base_duration_us": 148437
      },
      {
        "id": "M_1163",
        "pitch": 64,
        "t_note_us": 145349328,
        "t_trigger_us": 145213365,
        "is_ai": true,
        "track_id": 0,
        "velocity": 0,
        "is_motor": true,
        "motor_id": 1,
        "accel_val": 2000,
        "base_duration_us": 148437
      },
      {
        "id": "M_1164",
        "pitch": 48,
        "t_note_us": 145499327,
        "t_trigger_us": 145363364,
        "is_ai": true,
        "track_id": 0,
        "velocity": 0,
        "is_motor": true,
        "motor_id": 0,
        "accel_val": 2000,
        "base_duration_us": 148437
      },
      {
        "id": "M_1165",
        "pitch": 69,
        "t_note_us": 145499327,
        "t_trigger_us": 145363364,
        "is_ai": true,
        "track_id": 0,
        "velocity": 0,
        "is_motor": true,
        "motor_id": 1,
        "accel_val": 2000,
        "base_duration_us": 148437
      },
      {
        "id": "M_1166",
        "pitch": 57,
        "t_note_us": 145499327,
        "t_trigger_us": 145363364,
        "is_ai": true,
        "track_id": 0,
        "velocity": 0,
        "is_motor": true,
        "motor_id": 2,
        "accel_val": 2000,
        "base_duration_us": 148437
      },
      {
        "id": "M_1167",
        "pitch": 45,
        "t_note_us": 145649326,
        "t_trigger_us": 145513363,
        "is_ai": true,
        "track_id": 0,
        "velocity": 0,
        "is_motor": true,
        "motor_id": 0,
        "accel_val": 2000,
        "base_duration_us": 148437
      },
      {
        "id": "M_1168",
        "pitch": 64,
        "t_note_us": 145649326,
        "t_trigger_us": 145513363,
        "is_ai": true,
        "track_id": 0,
        "velocity": 0,
        "is_motor": true,
        "motor_id": 1,
        "accel_val": 2000,
        "base_duration_us": 148437
      },
      {
        "id": "M_1169",
        "pitch": 36,
        "t_note_us": 145799325,
        "t_trigger_us": 145663362,
        "is_ai": true,
        "track_id": 0,
        "velocity": 0,
        "is_motor": true,
        "motor_id": 0,
        "accel_val": 2000,
        "base_duration_us": 148437
      },
      {
        "id": "M_1171",
        "pitch": 76,
        "t_note_us": 145799325,
        "t_trigger_us": 145663362,
        "is_ai": true,
        "track_id": 0,
        "velocity": 0,
        "is_motor": true,
        "motor_id": 2,
        "accel_val": 2000,
        "base_duration_us": 298436
      },
      {
        "id": "M_1172",
        "pitch": 64,
        "t_note_us": 145799325,
        "t_trigger_us": 145663362,
        "is_ai": true,
        "track_id": 0,
        "velocity": 0,
        "is_motor": true,
        "motor_id": 1,
        "accel_val": 2000,
        "base_duration_us": 298436
      },
      {
        "id": "M_1170",
        "pitch": 45,
        "t_note_us": 145949324,
        "t_trigger_us": 145813361,
        "is_ai": true,
        "track_id": 0,
        "velocity": 0,
        "is_motor": true,
        "motor_id": 0,
        "accel_val": 2000,
        "base_duration_us": 148437
      },
      {
        "id": "M_1173",
        "pitch": 48,
        "t_note_us": 146099323,
        "t_trigger_us": 145963360,
        "is_ai": true,
        "track_id": 0,
        "velocity": 0,
        "is_motor": true,
        "motor_id": 0,
        "accel_val": 2000,
        "base_duration_us": 148437
      },
      {
        "id": "M_1175",
        "pitch": 77,
        "t_note_us": 146099323,
        "t_trigger_us": 145963360,
        "is_ai": true,
        "track_id": 0,
        "velocity": 0,
        "is_motor": true,
        "motor_id": 2,
        "accel_val": 2000,
        "base_duration_us": 298436
      },
      {
        "id": "M_1176",
        "pitch": 65,
        "t_note_us": 146099323,
        "t_trigger_us": 145963360,
        "is_ai": true,
        "track_id": 0,
        "velocity": 0,
        "is_motor": true,
        "motor_id": 1,
        "accel_val": 2000,
        "base_duration_us": 298436
      },
      {
        "id": "M_1174",
        "pitch": 45,
        "t_note_us": 146249322,
        "t_trigger_us": 146113359,
        "is_ai": true,
        "track_id": 0,
        "velocity": 0,
        "is_motor": true,
        "motor_id": 0,
        "accel_val": 2000,
        "base_duration_us": 148437
      },
      {
        "id": "M_1177",
        "pitch": 29,
        "t_note_us": 146399321,
        "t_trigger_us": 146263358,
        "is_ai": true,
        "track_id": 0,
        "velocity": 0,
        "is_motor": true,
        "motor_id": 0,
        "accel_val": 2000,
        "base_duration_us": 148437
      },
      {
        "id": "M_1178",
        "pitch": 67,
        "t_note_us": 146399321,
        "t_trigger_us": 146263358,
        "is_ai": true,
        "track_id": 0,
        "velocity": 0,
        "is_motor": true,
        "motor_id": 1,
        "accel_val": 2000,
        "base_duration_us": 148437
      },
      {
        "id": "M_1179",
        "pitch": 69,
        "t_note_us": 146399321,
        "t_trigger_us": 146263358,
        "is_ai": true,
        "track_id": 0,
        "velocity": 0,
        "is_motor": true,
        "motor_id": 2,
        "accel_val": 2000,
        "base_duration_us": 148437
      },
      {
        "id": "M_1180",
        "pitch": 67,
        "t_note_us": 146399321,
        "t_trigger_us": 146263358,
        "is_ai": true,
        "track_id": 0,
        "velocity": 0,
        "is_motor": true,
        "motor_id": 3,
        "accel_val": 2000,
        "base_duration_us": 148437
      },
      {
        "id": "M_1181",
        "pitch": 41,
        "t_note_us": 146549320,
        "t_trigger_us": 146413357,
        "is_ai": true,
        "track_id": 0,
        "velocity": 0,
        "is_motor": true,
        "motor_id": 0,
        "accel_val": 2000,
        "base_duration_us": 148437
      },
      {
        "id": "M_1182",
        "pitch": 72,
        "t_note_us": 146549320,
        "t_trigger_us": 146413357,
        "is_ai": true,
        "track_id": 0,
        "velocity": 0,
        "is_motor": true,
        "motor_id": 1,
        "accel_val": 2000,
        "base_duration_us": 148437
      },
      {
        "id": "M_1183",
        "pitch": 45,
        "t_note_us": 146699319,
        "t_trigger_us": 146563356,
        "is_ai": true,
        "track_id": 0,
        "velocity": 0,
        "is_motor": true,
        "motor_id": 0,
        "accel_val": 2000,
        "base_duration_us": 148437
      },
      {
        "id": "M_1184",
        "pitch": 69,
        "t_note_us": 146699319,
        "t_trigger_us": 146563356,
        "is_ai": true,
        "track_id": 0,
        "velocity": 0,
        "is_motor": true,
        "motor_id": 1,
        "accel_val": 2000,
        "base_duration_us": 148437
      },
      {
        "id": "M_1185",
        "pitch": 48,
        "t_note_us": 146849318,
        "t_trigger_us": 146713355,
        "is_ai": true,
        "track_id": 0,
        "velocity": 0,
        "is_motor": true,
        "motor_id": 0,
        "accel_val": 2000,
        "base_duration_us": 148437
      },
      {
        "id": "M_1186",
        "pitch": 72,
        "t_note_us": 146849318,
        "t_trigger_us": 146713355,
        "is_ai": true,
        "track_id": 0,
        "velocity": 0,
        "is_motor": true,
        "motor_id": 1,
        "accel_val": 2000,
        "base_duration_us": 148437
      },
      {
        "id": "M_1187",
        "pitch": 45,
        "t_note_us": 146999317,
        "t_trigger_us": 146863354,
        "is_ai": true,
        "track_id": 0,
        "velocity": 0,
        "is_motor": true,
        "motor_id": 0,
        "accel_val": 2000,
        "base_duration_us": 148437
      },
      {
        "id": "M_1188",
        "pitch": 67,
        "t_note_us": 146999317,
        "t_trigger_us": 146863354,
        "is_ai": true,
        "track_id": 0,
        "velocity": 0,
        "is_motor": true,
        "motor_id": 1,
        "accel_val": 2000,
        "base_duration_us": 148437
      },
      {
        "id": "M_1189",
        "pitch": 67,
        "t_note_us": 146999317,
        "t_trigger_us": 146863354,
        "is_ai": true,
        "track_id": 0,
        "velocity": 0,
        "is_motor": true,
        "motor_id": 2,
        "accel_val": 2000,
        "base_duration_us": 148437
      },
      {
        "id": "M_1190",
        "pitch": 52,
        "t_note_us": 147149316,
        "t_trigger_us": 147013353,
        "is_ai": true,
        "track_id": 0,
        "velocity": 0,
        "is_motor": true,
        "motor_id": 0,
        "accel_val": 2000,
        "base_duration_us": 148437
      },
      {
        "id": "M_1191",
        "pitch": 72,
        "t_note_us": 147149316,
        "t_trigger_us": 147013353,
        "is_ai": true,
        "track_id": 0,
        "velocity": 0,
        "is_motor": true,
        "motor_id": 1,
        "accel_val": 2000,
        "base_duration_us": 148437
      },
      {
        "id": "M_1192",
        "pitch": 48,
        "t_note_us": 147299315,
        "t_trigger_us": 147163352,
        "is_ai": true,
        "track_id": 0,
        "velocity": 0,
        "is_motor": true,
        "motor_id": 0,
        "accel_val": 2000,
        "base_duration_us": 148437
      },
      {
        "id": "M_1193",
        "pitch": 69,
        "t_note_us": 147299315,
        "t_trigger_us": 147163352,
        "is_ai": true,
        "track_id": 0,
        "velocity": 0,
        "is_motor": true,
        "motor_id": 1,
        "accel_val": 2000,
        "base_duration_us": 148437
      },
      {
        "id": "M_1194",
        "pitch": 45,
        "t_note_us": 147449314,
        "t_trigger_us": 147313351,
        "is_ai": true,
        "track_id": 0,
        "velocity": 0,
        "is_motor": true,
        "motor_id": 0,
        "accel_val": 2000,
        "base_duration_us": 148437
      },
      {
        "id": "M_1195",
        "pitch": 72,
        "t_note_us": 147449314,
        "t_trigger_us": 147313351,
        "is_ai": true,
        "track_id": 0,
        "velocity": 0,
        "is_motor": true,
        "motor_id": 1,
        "accel_val": 2000,
        "base_duration_us": 148437
      },
      {
        "id": "M_1196",
        "pitch": 29,
        "t_note_us": 147599313,
        "t_trigger_us": 147463350,
        "is_ai": true,
        "track_id": 0,
        "velocity": 0,
        "is_motor": true,
        "motor_id": 0,
        "accel_val": 2000,
        "base_duration_us": 148437
      },
      {
        "id": "M_1197",
        "pitch": 76,
        "t_note_us": 147599313,
        "t_trigger_us": 147463350,
        "is_ai": true,
        "track_id": 0,
        "velocity": 0,
        "is_motor": true,
        "motor_id": 2,
        "accel_val": 2000,
        "base_duration_us": 148437
      },
      {
        "id": "M_1198",
        "pitch": 69,
        "t_note_us": 147599313,
        "t_trigger_us": 147463350,
        "is_ai": true,
        "track_id": 0,
        "velocity": 0,
        "is_motor": true,
        "motor_id": 1,
        "accel_val": 2000,
        "base_duration_us": 148437
      },
      {
        "id": "M_1199",
        "pitch": 64,
        "t_note_us": 147599313,
        "t_trigger_us": 147463350,
        "is_ai": true,
        "track_id": 0,
        "velocity": 0,
        "is_motor": true,
        "motor_id": 3,
        "accel_val": 2000,
        "base_duration_us": 148437
      },
      {
        "id": "M_1200",
        "pitch": 41,
        "t_note_us": 147749312,
        "t_trigger_us": 147613349,
        "is_ai": true,
        "track_id": 0,
        "velocity": 0,
        "is_motor": true,
        "motor_id": 0,
        "accel_val": 2000,
        "base_duration_us": 148437
      },
      {
        "id": "M_1201",
        "pitch": 69,
        "t_note_us": 147749312,
        "t_trigger_us": 147613349,
        "is_ai": true,
        "track_id": 0,
        "velocity": 0,
        "is_motor": true,
        "motor_id": 1,
        "accel_val": 2000,
        "base_duration_us": 148437
      },
      {
        "id": "M_1202",
        "pitch": 45,
        "t_note_us": 147899311,
        "t_trigger_us": 147763348,
        "is_ai": true,
        "track_id": 0,
        "velocity": 0,
        "is_motor": true,
        "motor_id": 0,
        "accel_val": 2000,
        "base_duration_us": 148437
      },
      {
        "id": "M_1203",
        "pitch": 72,
        "t_note_us": 147899311,
        "t_trigger_us": 147763348,
        "is_ai": true,
        "track_id": 0,
        "velocity": 0,
        "is_motor": true,
        "motor_id": 1,
        "accel_val": 2000,
        "base_duration_us": 148437
      },
      {
        "id": "M_1204",
        "pitch": 41,
        "t_note_us": 148049310,
        "t_trigger_us": 147913347,
        "is_ai": true,
        "track_id": 0,
        "velocity": 0,
        "is_motor": true,
        "motor_id": 0,
        "accel_val": 2000,
        "base_duration_us": 148437
      },
      {
        "id": "M_1205",
        "pitch": 69,
        "t_note_us": 148049310,
        "t_trigger_us": 147913347,
        "is_ai": true,
        "track_id": 0,
        "velocity": 0,
        "is_motor": true,
        "motor_id": 1,
        "accel_val": 2000,
        "base_duration_us": 148437
      },
      {
        "id": "M_1206",
        "pitch": 29,
        "t_note_us": 148199309,
        "t_trigger_us": 148063346,
        "is_ai": true,
        "track_id": 0,
        "velocity": 0,
        "is_motor": true,
        "motor_id": 0,
        "accel_val": 2000,
        "base_duration_us": 148437
      },
      {
        "id": "M_1207",
        "pitch": 76,
        "t_note_us": 148199309,
        "t_trigger_us": 148063346,
        "is_ai": true,
        "track_id": 0,
        "velocity": 0,
        "is_motor": true,
        "motor_id": 2,
        "accel_val": 2000,
        "base_duration_us": 148437
      },
      {
        "id": "M_1208",
        "pitch": 64,
        "t_note_us": 148199309,
        "t_trigger_us": 148063346,
        "is_ai": true,
        "track_id": 0,
        "velocity": 0,
        "is_motor": true,
        "motor_id": 1,
        "accel_val": 2000,
        "base_duration_us": 148437
      },
      {
        "id": "M_1209",
        "pitch": 41,
        "t_note_us": 148349308,
        "t_trigger_us": 148213345,
        "is_ai": true,
        "track_id": 0,
        "velocity": 0,
        "is_motor": true,
        "motor_id": 0,
        "accel_val": 2000,
        "base_duration_us": 148437
      },
      {
        "id": "M_1210",
        "pitch": 69,
        "t_note_us": 148349308,
        "t_trigger_us": 148213345,
        "is_ai": true,
        "track_id": 0,
        "velocity": 0,
        "is_motor": true,
        "motor_id": 1,
        "accel_val": 2000,
        "base_duration_us": 148437
      },
      {
        "id": "M_1211",
        "pitch": 47,
        "t_note_us": 148499307,
        "t_trigger_us": 148363344,
        "is_ai": true,
        "track_id": 0,
        "velocity": 0,
        "is_motor": true,
        "motor_id": 0,
        "accel_val": 2000,
        "base_duration_us": 148437
      },
      {
        "id": "M_1212",
        "pitch": 77,
        "t_note_us": 148499307,
        "t_trigger_us": 148363344,
        "is_ai": true,
        "track_id": 0,
        "velocity": 0,
        "is_motor": true,
        "motor_id": 2,
        "accel_val": 2000,
        "base_duration_us": 148437
      },
      {
        "id": "M_1213",
        "pitch": 69,
        "t_note_us": 148499307,
        "t_trigger_us": 148363344,
        "is_ai": true,
        "track_id": 0,
        "velocity": 0,
        "is_motor": true,
        "motor_id": 1,
        "accel_val": 2000,
        "base_duration_us": 148437
      },
      {
        "id": "M_1214",
        "pitch": 65,
        "t_note_us": 148499307,
        "t_trigger_us": 148363344,
        "is_ai": true,
        "track_id": 0,
        "velocity": 0,
        "is_motor": true,
        "motor_id": 3,
        "accel_val": 2000,
        "base_duration_us": 148437
      },
      {
        "id": "M_1215",
        "pitch": 41,
        "t_note_us": 148649306,
        "t_trigger_us": 148513343,
        "is_ai": true,
        "track_id": 0,
        "velocity": 0,
        "is_motor": true,
        "motor_id": 0,
        "accel_val": 2000,
        "base_duration_us": 148437
      },
      {
        "id": "M_1216",
        "pitch": 72,
        "t_note_us": 148649306,
        "t_trigger_us": 148513343,
        "is_ai": true,
        "track_id": 0,
        "velocity": 0,
        "is_motor": true,
        "motor_id": 1,
        "accel_val": 2000,
        "base_duration_us": 148437
      },
      {
        "id": "M_1217",
        "pitch": 31,
        "t_note_us": 148799305,
        "t_trigger_us": 148663342,
        "is_ai": true,
        "track_id": 0,
        "velocity": 0,
        "is_motor": true,
        "motor_id": 0,
        "accel_val": 2000,
        "base_duration_us": 148437
      },
      {
        "id": "M_1218",
        "pitch": 67,
        "t_note_us": 148799305,
        "t_trigger_us": 148663342,
        "is_ai": true,
        "track_id": 0,
        "velocity": 0,
        "is_motor": true,
        "motor_id": 1,
        "accel_val": 2000,
        "base_duration_us": 148437
      },
      {
        "id": "M_1219",
        "pitch": 67,
        "t_note_us": 148799305,
        "t_trigger_us": 148663342,
        "is_ai": true,
        "track_id": 0,
        "velocity": 0,
        "is_motor": true,
        "motor_id": 2,
        "accel_val": 2000,
        "base_duration_us": 148437
      },
      {
        "id": "M_1220",
        "pitch": 43,
        "t_note_us": 148949304,
        "t_trigger_us": 148813341,
        "is_ai": true,
        "track_id": 0,
        "velocity": 0,
        "is_motor": true,
        "motor_id": 0,
        "accel_val": 2000,
        "base_duration_us": 148437
      },
      {
        "id": "M_1221",
        "pitch": 74,
        "t_note_us": 148949304,
        "t_trigger_us": 148813341,
        "is_ai": true,
        "track_id": 0,
        "velocity": 0,
        "is_motor": true,
        "motor_id": 1,
        "accel_val": 2000,
        "base_duration_us": 148437
      },
      {
        "id": "M_1222",
        "pitch": 47,
        "t_note_us": 149099303,
        "t_trigger_us": 148963340,
        "is_ai": true,
        "track_id": 0,
        "velocity": 0,
        "is_motor": true,
        "motor_id": 0,
        "accel_val": 2000,
        "base_duration_us": 148437
      },
      {
        "id": "M_1223",
        "pitch": 67,
        "t_note_us": 149099303,
        "t_trigger_us": 148963340,
        "is_ai": true,
        "track_id": 0,
        "velocity": 0,
        "is_motor": true,
        "motor_id": 1,
        "accel_val": 2000,
        "base_duration_us": 148437
      },
      {
        "id": "M_1224",
        "pitch": 67,
        "t_note_us": 149099303,
        "t_trigger_us": 148963340,
        "is_ai": true,
        "track_id": 0,
        "velocity": 0,
        "is_motor": true,
        "motor_id": 2,
        "accel_val": 2000,
        "base_duration_us": 148437
      },
      {
        "id": "M_1225",
        "pitch": 50,
        "t_note_us": 149249302,
        "t_trigger_us": 149113339,
        "is_ai": true,
        "track_id": 0,
        "velocity": 0,
        "is_motor": true,
        "motor_id": 0,
        "accel_val": 2000,
        "base_duration_us": 148437
      },
      {
        "id": "M_1226",
        "pitch": 74,
        "t_note_us": 149249302,
        "t_trigger_us": 149113339,
        "is_ai": true,
        "track_id": 0,
        "velocity": 0,
        "is_motor": true,
        "motor_id": 1,
        "accel_val": 2000,
        "base_duration_us": 148437
      },
      {
        "id": "M_1227",
        "pitch": 47,
        "t_note_us": 149399301,
        "t_trigger_us": 149263338,
        "is_ai": true,
        "track_id": 0,
        "velocity": 0,
        "is_motor": true,
        "motor_id": 0,
        "accel_val": 2000,
        "base_duration_us": 148437
      },
      {
        "id": "M_1228",
        "pitch": 67,
        "t_note_us": 149399301,
        "t_trigger_us": 149263338,
        "is_ai": true,
        "track_id": 0,
        "velocity": 0,
        "is_motor": true,
        "motor_id": 1,
        "accel_val": 2000,
        "base_duration_us": 148437
      },
      {
        "id": "M_1229",
        "pitch": 67,
        "t_note_us": 149399301,
        "t_trigger_us": 149263338,
        "is_ai": true,
        "track_id": 0,
        "velocity": 0,
        "is_motor": true,
        "motor_id": 2,
        "accel_val": 2000,
        "base_duration_us": 148437
      },
      {
        "id": "M_1230",
        "pitch": 55,
        "t_note_us": 149549300,
        "t_trigger_us": 149413337,
        "is_ai": true,
        "track_id": 0,
        "velocity": 0,
        "is_motor": true,
        "motor_id": 0,
        "accel_val": 2000,
        "base_duration_us": 148437
      },
      {
        "id": "M_1231",
        "pitch": 71,
        "t_note_us": 149549300,
        "t_trigger_us": 149413337,
        "is_ai": true,
        "track_id": 0,
        "velocity": 0,
        "is_motor": true,
        "motor_id": 1,
        "accel_val": 2000,
        "base_duration_us": 148437
      },
      {
        "id": "M_1232",
        "pitch": 50,
        "t_note_us": 149699299,
        "t_trigger_us": 149563336,
        "is_ai": true,
        "track_id": 0,
        "velocity": 0,
        "is_motor": true,
        "motor_id": 0,
        "accel_val": 2000,
        "base_duration_us": 148437
      },
      {
        "id": "M_1236",
        "pitch": 74,
        "t_note_us": 149699299,
        "t_trigger_us": 149563336,
        "is_ai": true,
        "track_id": 0,
        "velocity": 0,
        "is_motor": true,
        "motor_id": 1,
        "accel_val": 2000,
        "base_duration_us": 448435
      },
      {
        "id": "M_1237",
        "pitch": 62,
        "t_note_us": 149699299,
        "t_trigger_us": 149563336,
        "is_ai": true,
        "track_id": 0,
        "velocity": 0,
        "is_motor": true,
        "motor_id": 2,
        "accel_val": 2000,
        "base_duration_us": 448435
      },
      {
        "id": "M_1233",
        "pitch": 47,
        "t_note_us": 149849298,
        "t_trigger_us": 149713335,
        "is_ai": true,
        "track_id": 0,
        "velocity": 0,
        "is_motor": true,
        "motor_id": 0,
        "accel_val": 2000,
        "base_duration_us": 148437
      },
      {
        "id": "M_1234",
        "pitch": 71,
        "t_note_us": 149849298,
        "t_trigger_us": 149713335,
        "is_ai": true,
        "track_id": 0,
        "velocity": 0,
        "is_motor": true,
        "motor_id": 3,
        "accel_val": 2000,
        "base_duration_us": 148437
      },
      {
        "id": "M_1235",
        "pitch": 35,
        "t_note_us": 149999297,
        "t_trigger_us": 149863334,
        "is_ai": true,
        "track_id": 0,
        "velocity": 0,
        "is_motor": true,
        "motor_id": 0,
        "accel_val": 2000,
        "base_duration_us": 148437
      },
      {
        "id": "M_1238",
        "pitch": 41,
        "t_note_us": 150149296,
        "t_trigger_us": 150013333,
        "is_ai": true,
        "track_id": 0,
        "velocity": 0,
        "is_motor": true,
        "motor_id": 0,
        "accel_val": 2000,
        "base_duration_us": 148437
      },
      {
        "id": "M_1239",
        "pitch": 67,
        "t_note_us": 150149296,
        "t_trigger_us": 150013333,
        "is_ai": true,
        "track_id": 0,
        "velocity": 0,
        "is_motor": true,
        "motor_id": 1,
        "accel_val": 2000,
        "base_duration_us": 148437
      },
      {
        "id": "M_1240",
        "pitch": 47,
        "t_note_us": 150299295,
        "t_trigger_us": 150163332,
        "is_ai": true,
        "track_id": 0,
        "velocity": 0,
        "is_motor": true,
        "motor_id": 0,
        "accel_val": 2000,
        "base_duration_us": 148437
      },
      {
        "id": "M_1241",
        "pitch": 72,
        "t_note_us": 150299295,
        "t_trigger_us": 150163332,
        "is_ai": true,
        "track_id": 0,
        "velocity": 0,
        "is_motor": true,
        "motor_id": 1,
        "accel_val": 2000,
        "base_duration_us": 148437
      },
      {
        "id": "M_1242",
        "pitch": 60,
        "t_note_us": 150299295,
        "t_trigger_us": 150163332,
        "is_ai": true,
        "track_id": 0,
        "velocity": 0,
        "is_motor": true,
        "motor_id": 2,
        "accel_val": 2000,
        "base_duration_us": 148437
      },
      {
        "id": "M_1243",
        "pitch": 41,
        "t_note_us": 150449294,
        "t_trigger_us": 150313331,
        "is_ai": true,
        "track_id": 0,
        "velocity": 0,
        "is_motor": true,
        "motor_id": 0,
        "accel_val": 2000,
        "base_duration_us": 148437
      },
      {
        "id": "M_1244",
        "pitch": 67,
        "t_note_us": 150449294,
        "t_trigger_us": 150313331,
        "is_ai": true,
        "track_id": 0,
        "velocity": 0,
        "is_motor": true,
        "motor_id": 1,
        "accel_val": 2000,
        "base_duration_us": 148437
      },
      {
        "id": "M_1245",
        "pitch": 31,
        "t_note_us": 150599293,
        "t_trigger_us": 150463330,
        "is_ai": true,
        "track_id": 0,
        "velocity": 0,
        "is_motor": true,
        "motor_id": 0,
        "accel_val": 2000,
        "base_duration_us": 148437
      },
      {
        "id": "M_1246",
        "pitch": 72,
        "t_note_us": 150599293,
        "t_trigger_us": 150463330,
        "is_ai": true,
        "track_id": 0,
        "velocity": 0,
        "is_motor": true,
        "motor_id": 1,
        "accel_val": 2000,
        "base_duration_us": 148437
      },
      {
        "id": "M_1247",
        "pitch": 60,
        "t_note_us": 150599293,
        "t_trigger_us": 150463330,
        "is_ai": true,
        "track_id": 0,
        "velocity": 0,
        "is_motor": true,
        "motor_id": 2,
        "accel_val": 2000,
        "base_duration_us": 148437
      },
      {
        "id": "M_1248",
        "pitch": 41,
        "t_note_us": 150749292,
        "t_trigger_us": 150613329,
        "is_ai": true,
        "track_id": 0,
        "velocity": 0,
        "is_motor": true,
        "motor_id": 0,
        "accel_val": 2000,
        "base_duration_us": 148437
      },
      {
        "id": "M_1249",
        "pitch": 65,
        "t_note_us": 150749292,
        "t_trigger_us": 150613329,
        "is_ai": true,
        "track_id": 0,
        "velocity": 0,
        "is_motor": true,
        "motor_id": 1,
        "accel_val": 2000,
        "base_duration_us": 148437
      },
      {
        "id": "M_1250",
        "pitch": 47,
        "t_note_us": 150899291,
        "t_trigger_us": 150763328,
        "is_ai": true,
        "track_id": 0,
        "velocity": 0,
        "is_motor": true,
        "motor_id": 0,
        "accel_val": 2000,
        "base_duration_us": 148437
      },
      {
        "id": "M_1252",
        "pitch": 69,
        "t_note_us": 150899291,
        "t_trigger_us": 150763328,
        "is_ai": true,
        "track_id": 0,
        "velocity": 0,
        "is_motor": true,
        "motor_id": 1,
        "accel_val": 2000,
        "base_duration_us": 298436
      },
      {
        "id": "M_1253",
        "pitch": 57,
        "t_note_us": 150899291,
        "t_trigger_us": 150763328,
        "is_ai": true,
        "track_id": 0,
        "velocity": 0,
        "is_motor": true,
        "motor_id": 2,
        "accel_val": 2000,
        "base_duration_us": 298436
      },
      {
        "id": "M_1251",
        "pitch": 41,
        "t_note_us": 151049290,
        "t_trigger_us": 150913327,
        "is_ai": true,
        "track_id": 0,
        "velocity": 0,
        "is_motor": true,
        "motor_id": 0,
        "accel_val": 2000,
        "base_duration_us": 148437
      },
      {
        "id": "M_1254",
        "pitch": 36,
        "t_note_us": 151199289,
        "t_trigger_us": 151063326,
        "is_ai": true,
        "track_id": 0,
        "velocity": 0,
        "is_motor": true,
        "motor_id": 0,
        "accel_val": 2000,
        "base_duration_us": 148437
      },
      {
        "id": "M_1258",
        "pitch": 74,
        "t_note_us": 151199289,
        "t_trigger_us": 151063326,
        "is_ai": true,
        "track_id": 0,
        "velocity": 0,
        "is_motor": true,
        "motor_id": 1,
        "accel_val": 2000,
        "base_duration_us": 598434
      },
      {
        "id": "M_1259",
        "pitch": 62,
        "t_note_us": 151199289,
        "t_trigger_us": 151063326,
        "is_ai": true,
        "track_id": 0,
        "velocity": 0,
        "is_motor": true,
        "motor_id": 2,
        "accel_val": 2000,
        "base_duration_us": 598434
      },
      {
        "id": "M_1255",
        "pitch": 43,
        "t_note_us": 151349288,
        "t_trigger_us": 151213325,
        "is_ai": true,
        "track_id": 0,
        "velocity": 0,
        "is_motor": true,
        "motor_id": 0,
        "accel_val": 2000,
        "base_duration_us": 148437
      },
      {
        "id": "M_1256",
        "pitch": 48,
        "t_note_us": 151499287,
        "t_trigger_us": 151363324,
        "is_ai": true,
        "track_id": 0,
        "velocity": 0,
        "is_motor": true,
        "motor_id": 0,
        "accel_val": 2000,
        "base_duration_us": 148437
      },
      {
        "id": "M_1257",
        "pitch": 43,
        "t_note_us": 151649286,
        "t_trigger_us": 151513323,
        "is_ai": true,
        "track_id": 0,
        "velocity": 0,
        "is_motor": true,
        "motor_id": 0,
        "accel_val": 2000,
        "base_duration_us": 148437
      },
      {
        "id": "M_1260",
        "pitch": 52,
        "t_note_us": 151799285,
        "t_trigger_us": 151663322,
        "is_ai": true,
        "track_id": 0,
        "velocity": 0,
        "is_motor": true,
        "motor_id": 0,
        "accel_val": 2000,
        "base_duration_us": 148437
      },
      {
        "id": "M_1262",
        "pitch": 74,
        "t_note_us": 151799285,
        "t_trigger_us": 151663322,
        "is_ai": true,
        "track_id": 0,
        "velocity": 0,
        "is_motor": true,
        "motor_id": 1,
        "accel_val": 2000,
        "base_duration_us": 298436
      },
      {
        "id": "M_1263",
        "pitch": 62,
        "t_note_us": 151799285,
        "t_trigger_us": 151663322,
        "is_ai": true,
        "track_id": 0,
        "velocity": 0,
        "is_motor": true,
        "motor_id": 2,
        "accel_val": 2000,
        "base_duration_us": 298436
      },
      {
        "id": "M_1261",
        "pitch": 48,
        "t_note_us": 151949284,
        "t_trigger_us": 151813321,
        "is_ai": true,
        "track_id": 0,
        "velocity": 0,
        "is_motor": true,
        "motor_id": 0,
        "accel_val": 2000,
        "base_duration_us": 148437
      },
      {
        "id": "M_1264",
        "pitch": 43,
        "t_note_us": 152099283,
        "t_trigger_us": 151963320,
        "is_ai": true,
        "track_id": 0,
        "velocity": 0,
        "is_motor": true,
        "motor_id": 0,
        "accel_val": 2000,
        "base_duration_us": 148437
      },
      {
        "id": "M_1266",
        "pitch": 76,
        "t_note_us": 152099283,
        "t_trigger_us": 151963320,
        "is_ai": true,
        "track_id": 0,
        "velocity": 0,
        "is_motor": true,
        "motor_id": 2,
        "accel_val": 2000,
        "base_duration_us": 298436
      },
      {
        "id": "M_1267",
        "pitch": 64,
        "t_note_us": 152099283,
        "t_trigger_us": 151963320,
        "is_ai": true,
        "track_id": 0,
        "velocity": 0,
        "is_motor": true,
        "motor_id": 1,
        "accel_val": 2000,
        "base_duration_us": 298436
      },
      {
        "id": "M_1265",
        "pitch": 40,
        "t_note_us": 152249282,
        "t_trigger_us": 152113319,
        "is_ai": true,
        "track_id": 0,
        "velocity": 0,
        "is_motor": true,
        "motor_id": 0,
        "accel_val": 2000,
        "base_duration_us": 148437
      },
      {
        "id": "M_1268",
        "pitch": 36,
        "t_note_us": 152399281,
        "t_trigger_us": 152263318,
        "is_ai": true,
        "track_id": 0,
        "velocity": 0,
        "is_motor": true,
        "motor_id": 0,
        "accel_val": 2000,
        "base_duration_us": 148437
      },
      {
        "id": "M_1273",
        "pitch": 74,
        "t_note_us": 152399281,
        "t_trigger_us": 152263318,
        "is_ai": true,
        "track_id": 0,
        "velocity": 0,
        "is_motor": true,
        "motor_id": 1,
        "accel_val": 2000,
        "base_duration_us": 898432
      },
      {
        "id": "M_1274",
        "pitch": 62,
        "t_note_us": 152399281,
        "t_trigger_us": 152263318,
        "is_ai": true,
        "track_id": 0,
        "velocity": 0,
        "is_motor": true,
        "motor_id": 2,
        "accel_val": 2000,
        "base_duration_us": 898432
      },
      {
        "id": "M_1269",
        "pitch": 48,
        "t_note_us": 152549280,
        "t_trigger_us": 152413317,
        "is_ai": true,
        "track_id": 0,
        "velocity": 0,
        "is_motor": true,
        "motor_id": 0,
        "accel_val": 2000,
        "base_duration_us": 148437
      },
      {
        "id": "M_1270",
        "pitch": 52,
        "t_note_us": 152699279,
        "t_trigger_us": 152563316,
        "is_ai": true,
        "track_id": 0,
        "velocity": 0,
        "is_motor": true,
        "motor_id": 0,
        "accel_val": 2000,
        "base_duration_us": 148437
      },
      {
        "id": "M_1271",
        "pitch": 48,
        "t_note_us": 152849278,
        "t_trigger_us": 152713315,
        "is_ai": true,
        "track_id": 0,
        "velocity": 0,
        "is_motor": true,
        "motor_id": 0,
        "accel_val": 2000,
        "base_duration_us": 148437
      },
      {
        "id": "M_1272",
        "pitch": 36,
        "t_note_us": 152999277,
        "t_trigger_us": 152863314,
        "is_ai": true,
        "track_id": 0,
        "velocity": 0,
        "is_motor": true,
        "motor_id": 0,
        "accel_val": 2000,
        "base_duration_us": 148437
      },
      {
        "id": "M_1275",
        "pitch": 48,
        "t_note_us": 153149276,
        "t_trigger_us": 153013313,
        "is_ai": true,
        "track_id": 0,
        "velocity": 0,
        "is_motor": true,
        "motor_id": 0,
        "accel_val": 2000,
        "base_duration_us": 148437
      },
      {
        "id": "M_1276",
        "pitch": 52,
        "t_note_us": 153299275,
        "t_trigger_us": 153163312,
        "is_ai": true,
        "track_id": 0,
        "velocity": 0,
        "is_motor": true,
        "motor_id": 0,
        "accel_val": 2000,
        "base_duration_us": 148437
      },
      {
        "id": "M_1280",
        "pitch": 74,
        "t_note_us": 153299275,
        "t_trigger_us": 153163312,
        "is_ai": true,
        "track_id": 0,
        "velocity": 0,
        "is_motor": true,
        "motor_id": 1,
        "accel_val": 2000,
        "base_duration_us": 598434
      },
      {
        "id": "M_1281",
        "pitch": 62,
        "t_note_us": 153299275,
        "t_trigger_us": 153163312,
        "is_ai": true,
        "track_id": 0,
        "velocity": 0,
        "is_motor": true,
        "motor_id": 2,
        "accel_val": 2000,
        "base_duration_us": 598434
      },
      {
        "id": "M_1277",
        "pitch": 48,
        "t_note_us": 153449274,
        "t_trigger_us": 153313311,
        "is_ai": true,
        "track_id": 0,
        "velocity": 0,
        "is_motor": true,
        "motor_id": 0,
        "accel_val": 2000,
        "base_duration_us": 148437
      },
      {
        "id": "M_1278",
        "pitch": 33,
        "t_note_us": 153599273,
        "t_trigger_us": 153463310,
        "is_ai": true,
        "track_id": 0,
        "velocity": 0,
        "is_motor": true,
        "motor_id": 0,
        "accel_val": 2000,
        "base_duration_us": 148437
      },
      {
        "id": "M_1279",
        "pitch": 40,
        "t_note_us": 153749272,
        "t_trigger_us": 153613309,
        "is_ai": true,
        "track_id": 0,
        "velocity": 0,
        "is_motor": true,
        "motor_id": 0,
        "accel_val": 2000,
        "base_duration_us": 148437
      },
      {
        "id": "M_1282",
        "pitch": 45,
        "t_note_us": 153899271,
        "t_trigger_us": 153763308,
        "is_ai": true,
        "track_id": 0,
        "velocity": 0,
        "is_motor": true,
        "motor_id": 0,
        "accel_val": 2000,
        "base_duration_us": 148437
      },
      {
        "id": "M_1284",
        "pitch": 74,
        "t_note_us": 153899271,
        "t_trigger_us": 153763308,
        "is_ai": true,
        "track_id": 0,
        "velocity": 0,
        "is_motor": true,
        "motor_id": 1,
        "accel_val": 2000,
        "base_duration_us": 298436
      },
      {
        "id": "M_1285",
        "pitch": 62,
        "t_note_us": 153899271,
        "t_trigger_us": 153763308,
        "is_ai": true,
        "track_id": 0,
        "velocity": 0,
        "is_motor": true,
        "motor_id": 2,
        "accel_val": 2000,
        "base_duration_us": 298436
      },
      {
        "id": "M_1283",
        "pitch": 40,
        "t_note_us": 154049270,
        "t_trigger_us": 153913307,
        "is_ai": true,
        "track_id": 0,
        "velocity": 0,
        "is_motor": true,
        "motor_id": 0,
        "accel_val": 2000,
        "base_duration_us": 148437
      },
      {
        "id": "M_1286",
        "pitch": 48,
        "t_note_us": 154199269,
        "t_trigger_us": 154063306,
        "is_ai": true,
        "track_id": 0,
        "velocity": 0,
        "is_motor": true,
        "motor_id": 0,
        "accel_val": 2000,
        "base_duration_us": 148437
      },
      {
        "id": "M_1288",
        "pitch": 74,
        "t_note_us": 154199269,
        "t_trigger_us": 154063306,
        "is_ai": true,
        "track_id": 0,
        "velocity": 0,
        "is_motor": true,
        "motor_id": 1,
        "accel_val": 2000,
        "base_duration_us": 298436
      },
      {
        "id": "M_1289",
        "pitch": 62,
        "t_note_us": 154199269,
        "t_trigger_us": 154063306,
        "is_ai": true,
        "track_id": 0,
        "velocity": 0,
        "is_motor": true,
        "motor_id": 2,
        "accel_val": 2000,
        "base_duration_us": 298436
      },
      {
        "id": "M_1287",
        "pitch": 45,
        "t_note_us": 154349268,
        "t_trigger_us": 154213305,
        "is_ai": true,
        "track_id": 0,
        "velocity": 0,
        "is_motor": true,
        "motor_id": 0,
        "accel_val": 2000,
        "base_duration_us": 148437
      },
      {
        "id": "M_1290",
        "pitch": 40,
        "t_note_us": 154499267,
        "t_trigger_us": 154363304,
        "is_ai": true,
        "track_id": 0,
        "velocity": 0,
        "is_motor": true,
        "motor_id": 0,
        "accel_val": 2000,
        "base_duration_us": 148437
      },
      {
        "id": "M_1292",
        "pitch": 72,
        "t_note_us": 154499267,
        "t_trigger_us": 154363304,
        "is_ai": true,
        "track_id": 0,
        "velocity": 0,
        "is_motor": true,
        "motor_id": 1,
        "accel_val": 2000,
        "base_duration_us": 298436
      },
      {
        "id": "M_1293",
        "pitch": 60,
        "t_note_us": 154499267,
        "t_trigger_us": 154363304,
        "is_ai": true,
        "track_id": 0,
        "velocity": 0,
        "is_motor": true,
        "motor_id": 2,
        "accel_val": 2000,
        "base_duration_us": 298436
      },
      {
        "id": "M_1291",
        "pitch": 36,
        "t_note_us": 154649266,
        "t_trigger_us": 154513303,
        "is_ai": true,
        "track_id": 0,
        "velocity": 0,
        "is_motor": true,
        "motor_id": 0,
        "accel_val": 2000,
        "base_duration_us": 148437
      },
      {
        "id": "M_1294",
        "pitch": 33,
        "t_note_us": 154799265,
        "t_trigger_us": 154663302,
        "is_ai": true,
        "track_id": 0,
        "velocity": 0,
        "is_motor": true,
        "motor_id": 0,
        "accel_val": 2000,
        "base_duration_us": 148437
      },
      {
        "id": "M_1298",
        "pitch": 72,
        "t_note_us": 154799265,
        "t_trigger_us": 154663302,
        "is_ai": true,
        "track_id": 0,
        "velocity": 0,
        "is_motor": true,
        "motor_id": 1,
        "accel_val": 2000,
        "base_duration_us": 598434
      },
      {
        "id": "M_1299",
        "pitch": 60,
        "t_note_us": 154799265,
        "t_trigger_us": 154663302,
        "is_ai": true,
        "track_id": 0,
        "velocity": 0,
        "is_motor": true,
        "motor_id": 2,
        "accel_val": 2000,
        "base_duration_us": 598434
      },
      {
        "id": "M_1295",
        "pitch": 45,
        "t_note_us": 154949264,
        "t_trigger_us": 154813301,
        "is_ai": true,
        "track_id": 0,
        "velocity": 0,
        "is_motor": true,
        "motor_id": 0,
        "accel_val": 2000,
        "base_duration_us": 148437
      },
      {
        "id": "M_1296",
        "pitch": 48,
        "t_note_us": 155099263,
        "t_trigger_us": 154963300,
        "is_ai": true,
        "track_id": 0,
        "velocity": 0,
        "is_motor": true,
        "motor_id": 0,
        "accel_val": 2000,
        "base_duration_us": 148437
      },
      {
        "id": "M_1297",
        "pitch": 45,
        "t_note_us": 155249262,
        "t_trigger_us": 155113299,
        "is_ai": true,
        "track_id": 0,
        "velocity": 0,
        "is_motor": true,
        "motor_id": 0,
        "accel_val": 2000,
        "base_duration_us": 148437
      },
      {
        "id": "M_1300",
        "pitch": 36,
        "t_note_us": 155399261,
        "t_trigger_us": 155263298,
        "is_ai": true,
        "track_id": 0,
        "velocity": 0,
        "is_motor": true,
        "motor_id": 0,
        "accel_val": 2000,
        "base_duration_us": 148437
      },
      {
        "id": "M_1302",
        "pitch": 64,
        "t_note_us": 155399261,
        "t_trigger_us": 155263298,
        "is_ai": true,
        "track_id": 0,
        "velocity": 0,
        "is_motor": true,
        "motor_id": 1,
        "accel_val": 2000,
        "base_duration_us": 298436
      },
      {
        "id": "M_1301",
        "pitch": 45,
        "t_note_us": 155549260,
        "t_trigger_us": 155413297,
        "is_ai": true,
        "track_id": 0,
        "velocity": 0,
        "is_motor": true,
        "motor_id": 0,
        "accel_val": 2000,
        "base_duration_us": 148437
      },
      {
        "id": "M_1303",
        "pitch": 48,
        "t_note_us": 155699259,
        "t_trigger_us": 155563296,
        "is_ai": true,
        "track_id": 0,
        "velocity": 0,
        "is_motor": true,
        "motor_id": 0,
        "accel_val": 2000,
        "base_duration_us": 148437
      },
      {
        "id": "M_1305",
        "pitch": 65,
        "t_note_us": 155699259,
        "t_trigger_us": 155563296,
        "is_ai": true,
        "track_id": 0,
        "velocity": 0,
        "is_motor": true,
        "motor_id": 1,
        "accel_val": 2000,
        "base_duration_us": 298436
      },
      {
        "id": "M_1304",
        "pitch": 40,
        "t_note_us": 155849258,
        "t_trigger_us": 155713295,
        "is_ai": true,
        "track_id": 0,
        "velocity": 0,
        "is_motor": true,
        "motor_id": 0,
        "accel_val": 2000,
        "base_duration_us": 148437
      },
      {
        "id": "M_1306",
        "pitch": 41,
        "t_note_us": 155999257,
        "t_trigger_us": 155863294,
        "is_ai": true,
        "track_id": 0,
        "velocity": 0,
        "is_motor": true,
        "motor_id": 0,
        "accel_val": 2000,
        "base_duration_us": 148437
      },
      {
        "id": "M_1314",
        "pitch": 67,
        "t_note_us": 155999257,
        "t_trigger_us": 155863294,
        "is_ai": true,
        "track_id": 0,
        "velocity": 0,
        "is_motor": true,
        "motor_id": 1,
        "accel_val": 2000,
        "base_duration_us": 1798429
      },
      {
        "id": "M_1307",
        "pitch": 45,
        "t_note_us": 156149256,
        "t_trigger_us": 156013293,
        "is_ai": true,
        "track_id": 0,
        "velocity": 0,
        "is_motor": true,
        "motor_id": 0,
        "accel_val": 2000,
        "base_duration_us": 148437
      },
      {
        "id": "M_1308",
        "pitch": 48,
        "t_note_us": 156299255,
        "t_trigger_us": 156163292,
        "is_ai": true,
        "track_id": 0,
        "velocity": 0,
        "is_motor": true,
        "motor_id": 0,
        "accel_val": 2000,
        "base_duration_us": 148437
      },
      {
        "id": "M_1309",
        "pitch": 52,
        "t_note_us": 156449254,
        "t_trigger_us": 156313291,
        "is_ai": true,
        "track_id": 0,
        "velocity": 0,
        "is_motor": true,
        "motor_id": 0,
        "accel_val": 2000,
        "base_duration_us": 148437
      },
      {
        "id": "M_1310",
        "pitch": 53,
        "t_note_us": 156599253,
        "t_trigger_us": 156463290,
        "is_ai": true,
        "track_id": 0,
        "velocity": 0,
        "is_motor": true,
        "motor_id": 0,
        "accel_val": 2000,
        "base_duration_us": 148437
      },
      {
        "id": "M_1311",
        "pitch": 55,
        "t_note_us": 156749252,
        "t_trigger_us": 156613289,
        "is_ai": true,
        "track_id": 0,
        "velocity": 0,
        "is_motor": true,
        "motor_id": 0,
        "accel_val": 2000,
        "base_duration_us": 148437
      },
      {
        "id": "M_1312",
        "pitch": 57,
        "t_note_us": 156899251,
        "t_trigger_us": 156763288,
        "is_ai": true,
        "track_id": 0,
        "velocity": 0,
        "is_motor": true,
        "motor_id": 0,
        "accel_val": 2000,
        "base_duration_us": 148437
      },
      {
        "id": "M_1313",
        "pitch": 60,
        "t_note_us": 157049250,
        "t_trigger_us": 156913287,
        "is_ai": true,
        "track_id": 0,
        "velocity": 0,
        "is_motor": true,
        "motor_id": 0,
        "accel_val": 2000,
        "base_duration_us": 148437
      },
      {
        "id": "M_1315",
        "pitch": 64,
        "t_note_us": 157199249,
        "t_trigger_us": 157063286,
        "is_ai": true,
        "track_id": 0,
        "velocity": 0,
        "is_motor": true,
        "motor_id": 0,
        "accel_val": 2000,
        "base_duration_us": 599999
      },
      {
        "id": "M_1316",
        "pitch": 64,
        "t_note_us": 157799248,
        "t_trigger_us": 157663285,
        "is_ai": true,
        "track_id": 0,
        "velocity": 0,
        "is_motor": true,
        "motor_id": 1,
        "accel_val": 2000,
        "base_duration_us": 598437
      },
      {
        "id": "M_1317",
        "pitch": 41,
        "t_note_us": 158399247,
        "t_trigger_us": 158263284,
        "is_ai": true,
        "track_id": 0,
        "velocity": 0,
        "is_motor": true,
        "motor_id": 0,
        "accel_val": 2000,
        "base_duration_us": 148437
      },
      {
        "id": "M_1323",
        "pitch": 62,
        "t_note_us": 158399247,
        "t_trigger_us": 158263284,
        "is_ai": true,
        "track_id": 0,
        "velocity": 0,
        "is_motor": true,
        "motor_id": 1,
        "accel_val": 2000,
        "base_duration_us": 899994
      },
      {
        "id": "M_1318",
        "pitch": 43,
        "t_note_us": 158549246,
        "t_trigger_us": 158413283,
        "is_ai": true,
        "track_id": 0,
        "velocity": 0,
        "is_motor": true,
        "motor_id": 0,
        "accel_val": 2000,
        "base_duration_us": 148437
      },
      {
        "id": "M_1319",
        "pitch": 47,
        "t_note_us": 158699245,
        "t_trigger_us": 158563282,
        "is_ai": true,
        "track_id": 0,
        "velocity": 0,
        "is_motor": true,
        "motor_id": 0,
        "accel_val": 2000,
        "base_duration_us": 148437
      },
      {
        "id": "M_1320",
        "pitch": 53,
        "t_note_us": 158849244,
        "t_trigger_us": 158713281,
        "is_ai": true,
        "track_id": 0,
        "velocity": 0,
        "is_motor": true,
        "motor_id": 0,
        "accel_val": 2000,
        "base_duration_us": 148437
      },
      {
        "id": "M_1321",
        "pitch": 55,
        "t_note_us": 158999243,
        "t_trigger_us": 158863280,
        "is_ai": true,
        "track_id": 0,
        "velocity": 0,
        "is_motor": true,
        "motor_id": 0,
        "accel_val": 2000,
        "base_duration_us": 148437
      },
      {
        "id": "M_1322",
        "pitch": 59,
        "t_note_us": 159149242,
        "t_trigger_us": 159013279,
        "is_ai": true,
        "track_id": 0,
        "velocity": 0,
        "is_motor": true,
        "motor_id": 0,
        "accel_val": 2000,
        "base_duration_us": 148437
      },
      {
        "id": "M_1325",
        "pitch": 62,
        "t_note_us": 159299241,
        "t_trigger_us": 159163278,
        "is_ai": true,
        "track_id": 0,
        "velocity": 0,
        "is_motor": true,
        "motor_id": 1,
        "accel_val": 2000,
        "base_duration_us": 898436
      },
      {
        "id": "M_1324",
        "pitch": 64,
        "t_note_us": 159449241,
        "t_trigger_us": 159313278,
        "is_ai": true,
        "track_id": 0,
        "velocity": 0,
        "is_motor": true,
        "motor_id": 0,
        "accel_val": 2000,
        "base_duration_us": 148437
      },
      {
        "id": "M_1327",
        "pitch": 67,
        "t_note_us": 159599240,
        "t_trigger_us": 159463277,
        "is_ai": true,
        "track_id": 0,
        "velocity": 0,
        "is_motor": true,
        "motor_id": 2,
        "accel_val": 2000,
        "base_duration_us": 1198435
      },
      {
        "id": "M_1326",
        "pitch": 64,
        "t_note_us": 160199239,
        "t_trigger_us": 160063276,
        "is_ai": true,
        "track_id": 0,
        "velocity": 0,
        "is_motor": true,
        "motor_id": 1,
        "accel_val": 2000,
        "base_duration_us": 298437
      },
      {
        "id": "M_1328",
        "pitch": 64,
        "t_note_us": 160499238,
        "t_trigger_us": 160363275,
        "is_ai": true,
        "track_id": 0,
        "velocity": 0,
        "is_motor": true,
        "motor_id": 1,
        "accel_val": 2000,
        "base_duration_us": 298437
      },
      {
        "id": "M_1329",
        "pitch": 40,
        "t_note_us": 160799237,
        "t_trigger_us": 160663274,
        "is_ai": true,
        "track_id": 0,
        "velocity": 0,
        "is_motor": true,
        "motor_id": 0,
        "accel_val": 2000,
        "base_duration_us": 148437
      },
      {
        "id": "M_1335",
        "pitch": 62,
        "t_note_us": 160799237,
        "t_trigger_us": 160663274,
        "is_ai": true,
        "track_id": 0,
        "velocity": 0,
        "is_motor": true,
        "motor_id": 1,
        "accel_val": 2000,
        "base_duration_us": 1498431
      },
      {
        "id": "M_1330",
        "pitch": 43,
        "t_note_us": 160949236,
        "t_trigger_us": 160813273,
        "is_ai": true,
        "track_id": 0,
        "velocity": 0,
        "is_motor": true,
        "motor_id": 0,
        "accel_val": 2000,
        "base_duration_us": 148437
      },
      {
        "id": "M_1331",
        "pitch": 47,
        "t_note_us": 161099235,
        "t_trigger_us": 160963272,
        "is_ai": true,
        "track_id": 0,
        "velocity": 0,
        "is_motor": true,
        "motor_id": 0,
        "accel_val": 2000,
        "base_duration_us": 148437
      },
      {
        "id": "M_1332",
        "pitch": 50,
        "t_note_us": 161249234,
        "t_trigger_us": 161113271,
        "is_ai": true,
        "track_id": 0,
        "velocity": 0,
        "is_motor": true,
        "motor_id": 0,
        "accel_val": 2000,
        "base_duration_us": 148437
      },
      {
        "id": "M_1333",
        "pitch": 52,
        "t_note_us": 161399233,
        "t_trigger_us": 161263270,
        "is_ai": true,
        "track_id": 0,
        "velocity": 0,
        "is_motor": true,
        "motor_id": 0,
        "accel_val": 2000,
        "base_duration_us": 148437
      },
      {
        "id": "M_1334",
        "pitch": 55,
        "t_note_us": 161549232,
        "t_trigger_us": 161413269,
        "is_ai": true,
        "track_id": 0,
        "velocity": 0,
        "is_motor": true,
        "motor_id": 0,
        "accel_val": 2000,
        "base_duration_us": 148437
      },
      {
        "id": "M_1338",
        "pitch": 59,
        "t_note_us": 161699231,
        "t_trigger_us": 161563268,
        "is_ai": true,
        "track_id": 0,
        "velocity": 0,
        "is_motor": true,
        "motor_id": 0,
        "accel_val": 2000,
        "base_duration_us": 1498434
      },
      {
        "id": "M_1336",
        "pitch": 60,
        "t_note_us": 162299230,
        "t_trigger_us": 162163267,
        "is_ai": true,
        "track_id": 0,
        "velocity": 0,
        "is_motor": true,
        "motor_id": 1,
        "accel_val": 2000,
        "base_duration_us": 298437
      },
      {
        "id": "M_1337",
        "pitch": 60,
        "t_note_us": 162599229,
        "t_trigger_us": 162463266,
        "is_ai": true,
        "track_id": 0,
        "velocity": 0,
        "is_motor": true,
        "motor_id": 1,
        "accel_val": 2000,
        "base_duration_us": 298437
      },
      {
        "id": "M_1339",
        "pitch": 60,
        "t_note_us": 162899228,
        "t_trigger_us": 162763265,
        "is_ai": true,
        "track_id": 0,
        "velocity": 0,
        "is_motor": true,
        "motor_id": 1,
        "accel_val": 2000,
        "base_duration_us": 298437
      },
      {
        "id": "M_1340",
        "pitch": 33,
        "t_note_us": 163199227,
        "t_trigger_us": 163063264,
        "is_ai": true,
        "track_id": 0,
        "velocity": 0,
        "is_motor": true,
        "motor_id": 0,
        "accel_val": 2000,
        "base_duration_us": 298437
      },
      {
        "id": "M_1343",
        "pitch": 57,
        "t_note_us": 163199227,
        "t_trigger_us": 163063264,
        "is_ai": true,
        "track_id": 0,
        "velocity": 0,
        "is_motor": true,
        "motor_id": 1,
        "accel_val": 2000,
        "base_duration_us": 1798434
      },
      {
        "id": "M_1341",
        "pitch": 40,
        "t_note_us": 163499226,
        "t_trigger_us": 163363263,
        "is_ai": true,
        "track_id": 0,
        "velocity": 0,
        "is_motor": true,
        "motor_id": 0,
        "accel_val": 2000,
        "base_duration_us": 298437
      },
      {
        "id": "M_1342",
        "pitch": 45,
        "t_note_us": 163799225,
        "t_trigger_us": 163663262,
        "is_ai": true,
        "track_id": 0,
        "velocity": 0,
        "is_motor": true,
        "motor_id": 0,
        "accel_val": 2000,
        "base_duration_us": 298437
      },
      {
        "id": "M_1345",
        "pitch": 48,
        "t_note_us": 164099224,
        "t_trigger_us": 163963261,
        "is_ai": true,
        "track_id": 0,
        "velocity": 0,
        "is_motor": true,
        "motor_id": 0,
        "accel_val": 2000,
        "base_duration_us": 1498435
      },
      {
        "id": "M_1344",
        "pitch": 64,
        "t_note_us": 164999223,
        "t_trigger_us": 164863260,
        "is_ai": true,
        "track_id": 0,
        "velocity": 0,
        "is_motor": true,
        "motor_id": 1,
        "accel_val": 2000,
        "base_duration_us": 298437
      },
      {
        "id": "M_1346",
        "pitch": 65,
        "t_note_us": 165299222,
        "t_trigger_us": 165163259,
        "is_ai": true,
        "track_id": 0,
        "velocity": 0,
        "is_motor": true,
        "motor_id": 1,
        "accel_val": 2000,
        "base_duration_us": 298437
      },
      {
        "id": "M_1347",
        "pitch": 29,
        "t_note_us": 165599221,
        "t_trigger_us": 165463258,
        "is_ai": true,
        "track_id": 0,
        "velocity": 0,
        "is_motor": true,
        "motor_id": 0,
        "accel_val": 2000,
        "base_duration_us": 298437
      },
      {
        "id": "M_1350",
        "pitch": 67,
        "t_note_us": 165599221,
        "t_trigger_us": 165463258,
        "is_ai": true,
        "track_id": 0,
        "velocity": 0,
        "is_motor": true,
        "motor_id": 1,
        "accel_val": 2000,
        "base_duration_us": 1798434
      },
      {
        "id": "M_1348",
        "pitch": 36,
        "t_note_us": 165899220,
        "t_trigger_us": 165763257,
        "is_ai": true,
        "track_id": 0,
        "velocity": 0,
        "is_motor": true,
        "motor_id": 0,
        "accel_val": 2000,
        "base_duration_us": 298437
      },
      {
        "id": "M_1349",
        "pitch": 41,
        "t_note_us": 166199219,
        "t_trigger_us": 166063256,
        "is_ai": true,
        "track_id": 0,
        "velocity": 0,
        "is_motor": true,
        "motor_id": 0,
        "accel_val": 2000,
        "base_duration_us": 298437
      },
      {
        "id": "M_1352",
        "pitch": 45,
        "t_note_us": 166499218,
        "t_trigger_us": 166363255,
        "is_ai": true,
        "track_id": 0,
        "velocity": 0,
        "is_motor": true,
        "motor_id": 0,
        "accel_val": 2000,
        "base_duration_us": 1498435
      },
      {
        "id": "M_1351",
        "pitch": 69,
        "t_note_us": 167399217,
        "t_trigger_us": 167263254,
        "is_ai": true,
        "track_id": 0,
        "velocity": 0,
        "is_motor": true,
        "motor_id": 1,
        "accel_val": 2000,
        "base_duration_us": 298437
      },
      {
        "id": "M_1353",
        "pitch": 69,
        "t_note_us": 167699216,
        "t_trigger_us": 167563253,
        "is_ai": true,
        "track_id": 0,
        "velocity": 0,
        "is_motor": true,
        "motor_id": 1,
        "accel_val": 2000,
        "base_duration_us": 298437
      },
      {
        "id": "M_1354",
        "pitch": 29,
        "t_note_us": 167999215,
        "t_trigger_us": 167863252,
        "is_ai": true,
        "track_id": 0,
        "velocity": 0,
        "is_motor": true,
        "motor_id": 0,
        "accel_val": 2000,
        "base_duration_us": 298437
      },
      {
        "id": "M_1357",
        "pitch": 67,
        "t_note_us": 167999215,
        "t_trigger_us": 167863252,
        "is_ai": true,
        "track_id": 0,
        "velocity": 0,
        "is_motor": true,
        "motor_id": 1,
        "accel_val": 2000,
        "base_duration_us": 1798434
      },
      {
        "id": "M_1355",
        "pitch": 31,
        "t_note_us": 168299214,
        "t_trigger_us": 168163251,
        "is_ai": true,
        "track_id": 0,
        "velocity": 0,
        "is_motor": true,
        "motor_id": 0,
        "accel_val": 2000,
        "base_duration_us": 298437
      },
      {
        "id": "M_1356",
        "pitch": 35,
        "t_note_us": 168599213,
        "t_trigger_us": 168463250,
        "is_ai": true,
        "track_id": 0,
        "velocity": 0,
        "is_motor": true,
        "motor_id": 0,
        "accel_val": 2000,
        "base_duration_us": 298437
      },
      {
        "id": "M_1358",
        "pitch": 38,
        "t_note_us": 168899212,
        "t_trigger_us": 168763249,
        "is_ai": true,
        "track_id": 0,
        "velocity": 0,
        "is_motor": true,
        "motor_id": 0,
        "accel_val": 2000,
        "base_duration_us": 1498436
      },
      {
        "id": "M_1359",
        "pitch": 64,
        "t_note_us": 169799211,
        "t_trigger_us": 169663248,
        "is_ai": true,
        "track_id": 0,
        "velocity": 0,
        "is_motor": true,
        "motor_id": 1,
        "accel_val": 2000,
        "base_duration_us": 598437
      },
      {
        "id": "M_1360",
        "pitch": 28,
        "t_note_us": 170399210,
        "t_trigger_us": 170263247,
        "is_ai": true,
        "track_id": 0,
        "velocity": 0,
        "is_motor": true,
        "motor_id": 0,
        "accel_val": 2000,
        "base_duration_us": 298437
      },
      {
        "id": "M_1363",
        "pitch": 62,
        "t_note_us": 170399210,
        "t_trigger_us": 170263247,
        "is_ai": true,
        "track_id": 0,
        "velocity": 0,
        "is_motor": true,
        "motor_id": 1,
        "accel_val": 2000,
        "base_duration_us": 1198434
      },
      {
        "id": "M_1361",
        "pitch": 31,
        "t_note_us": 170699209,
        "t_trigger_us": 170563246,
        "is_ai": true,
        "track_id": 0,
        "velocity": 0,
        "is_motor": true,
        "motor_id": 0,
        "accel_val": 2000,
        "base_duration_us": 298437
      },
      {
        "id": "M_1362",
        "pitch": 35,
        "t_note_us": 170999208,
        "t_trigger_us": 170863245,
        "is_ai": true,
        "track_id": 0,
        "velocity": 0,
        "is_motor": true,
        "motor_id": 0,
        "accel_val": 2000,
        "base_duration_us": 298437
      },
      {
        "id": "M_1367",
        "pitch": 38,
        "t_note_us": 171299207,
        "t_trigger_us": 171163244,
        "is_ai": true,
        "track_id": 0,
        "velocity": 0,
        "is_motor": true,
        "motor_id": 0,
        "accel_val": 2000,
        "base_duration_us": 1498433
      },
      {
        "id": "M_1364",
        "pitch": 60,
        "t_note_us": 171899206,
        "t_trigger_us": 171763243,
        "is_ai": true,
        "track_id": 0,
        "velocity": 0,
        "is_motor": true,
        "motor_id": 1,
        "accel_val": 2000,
        "base_duration_us": 298437
      },
      {
        "id": "M_1365",
        "pitch": 60,
        "t_note_us": 172199205,
        "t_trigger_us": 172063242,
        "is_ai": true,
        "track_id": 0,
        "velocity": 0,
        "is_motor": true,
        "motor_id": 1,
        "accel_val": 2000,
        "base_duration_us": 148437
      },
      {
        "id": "M_1366",
        "pitch": 60,
        "t_note_us": 172349204,
        "t_trigger_us": 172213241,
        "is_ai": true,
        "track_id": 0,
        "velocity": 0,
        "is_motor": true,
        "motor_id": 1,
        "accel_val": 2000,
        "base_duration_us": 148437
      },
      {
        "id": "M_1368",
        "pitch": 60,
        "t_note_us": 172499203,
        "t_trigger_us": 172363240,
        "is_ai": true,
        "track_id": 0,
        "velocity": 0,
        "is_motor": true,
        "motor_id": 1,
        "accel_val": 2000,
        "base_duration_us": 298437
      },
      {
        "id": "M_1369",
        "pitch": 57,
        "t_note_us": 172799202,
        "t_trigger_us": 172663239,
        "is_ai": true,
        "track_id": 0,
        "velocity": 0,
        "is_motor": true,
        "motor_id": 0,
        "accel_val": 2000,
        "base_duration_us": 2398437
      }
    ]
  }
}