{
  "config": {
    "mode_idx": 0,
    "active_motors": [
      0,
      1,
      2,
      3
    ],
    "transpose": 0,
    "arp_speed_ms": 10,
    "gate_time": 100
  },
  "sustain_multiplier": 1.0,
  "notes": [
    {
      "id": "M_0",
      "pitch": 100,
      "t_note_us": 967739,
      "t_trigger_us": 831776,
      "is_ai": true,
      "track_id": 12,
      "velocity": 0,
      "is_motor": false,
      "motor_id": 0,
      "accel_val": 2000,
      "base_duration_us": 483869
    },
    {
      "id": "M_1",
      "pitch": 98,
      "t_note_us": 1451608,
      "t_trigger_us": 1315645,
      "is_ai": true,
      "track_id": 11,
      "velocity": 0,
      "is_motor": false,
      "motor_id": 0,
      "accel_val": 2000,
      "base_duration_us": 483869
    },
    {
      "id": "M_2",
      "pitch": 98,
      "t_note_us": 1935477,
      "t_trigger_us": 1799514,
      "is_ai": true,
      "track_id": 11,
      "velocity": 0,
      "is_motor": false,
      "motor_id": 0,
      "accel_val": 2000,
      "base_duration_us": 483869
    },
    {
      "id": "M_3",
      "pitch": 93,
      "t_note_us": 1935477,
      "t_trigger_us": 1799514,
      "is_ai": true,
      "track_id": 8,
      "velocity": 0,
      "is_motor": false,
      "motor_id": 0,
      "accel_val": 2000,
      "base_duration_us": 483869
    },
    {
      "id": "M_7",
      "pitch": 77,
      "t_note_us": 1935477,
      "t_trigger_us": 1799514,
      "is_ai": false,
      "track_id": 0,
      "velocity": 0,
      "is_motor": true,
      "motor_id": 2,
      "accel_val": 2000,
      "base_duration_us": 1935476
    },
    {
      "id": "M_8",
      "pitch": 72,
      "t_note_us": 1935477,
      "t_trigger_us": 1799514,
      "is_ai": false,
      "track_id": 0,
      "velocity": 0,
      "is_motor": true,
      "motor_id": 1,
      "accel_val": 2000,
      "base_duration_us": 1935476
    },
    {
      "id": "M_4",
      "pitch": 96,
      "t_note_us": 2419346,
      "t_trigger_us": 2283383,
      "is_ai": true,
      "track_id": 10,
      "velocity": 0,
      "is_motor": false,
      "motor_id": 0,
      "accel_val": 2000,
      "base_duration_us": 483869
    },
    {
      "id": "M_5",
      "pitch": 96,
      "t_note_us": 2903215,
      "t_trigger_us": 2767252,
      "is_ai": true,
      "track_id": 10,
      "velocity": 0,
      "is_motor": false,
      "motor_id": 0,
      "accel_val": 2000,
      "base_duration_us": 483869
    },
    {
      "id": "M_6",
      "pitch": 103,
      "t_note_us": 3387084,
      "t_trigger_us": 3251121,
      "is_ai": true,
      "track_id": 14,
      "velocity": 0,
      "is_motor": false,
      "motor_id": 0,
      "accel_val": 2000,
      "base_duration_us": 483869
    },
    {
      "id": "M_9",
      "pitch": 88,
      "t_note_us": 3870953,
      "t_trigger_us": 3734990,
      "is_ai": true,
      "track_id": 5,
      "velocity": 0,
      "is_motor": false,
      "motor_id": 0,
      "accel_val": 2000,
      "base_duration_us": 967739
    },
    {
      "id": "M_10",
      "pitch": 93,
      "t_note_us": 3870953,
      "t_trigger_us": 3734990,
      "is_ai": true,
      "track_id": 8,
      "velocity": 0,
      "is_motor": false,
      "motor_id": 0,
      "accel_val": 2000,
      "base_duration_us": 967739
    },
    {
      "id": "M_11",
      "pitch": 96,
      "t_note_us": 3870953,
      "t_trigger_us": 3734990,
      "is_ai": true,
      "track_id": 10,
      "velocity": 0,
      "is_motor": false,
      "motor_id": 0,
      "accel_val": 2000,
      "base_duration_us": 967739
    },
    {
      "id": "M_13",
      "pitch": 74,
      "t_note_us": 3870953,
      "t_trigger_us": 3734990,
      "is_ai": false,
      "track_id": 0,
      "velocity": 0,
      "is_motor": true,
      "motor_id": 1,
      "accel_val": 2000,
      "base_duration_us": 1935477
    },
    {
      "id": "M_14",
      "pitch": 67,
      "t_note_us": 3870953,
      "t_trigger_us": 3734990,
      "is_ai": false,
      "track_id": 0,
      "velocity": 0,
      "is_motor": true,
      "motor_id": 2,
      "accel_val": 2000,
      "base_duration_us": 1935477
    },
    {
      "id": "M_12",
      "pitch": 95,
      "t_note_us": 4838692,
      "t_trigger_us": 4702729,
      "is_ai": true,
      "track_id": 9,
      "velocity": 0,
      "is_motor": false,
      "motor_id": 0,
      "accel_val": 2000,
      "base_duration_us": 483869
    },
    {
      "id": "M_17",
      "pitch": 96,
      "t_note_us": 5322561,
      "t_trigger_us": 5186598,
      "is_ai": true,
      "track_id": 10,
      "velocity": 0,
      "is_motor": false,
      "motor_id": 0,
      "accel_val": 2000,
      "base_duration_us": 3387088
    },
    {
      "id": "M_15",
      "pitch": 86,
      "t_note_us": 5806430,
      "t_trigger_us": 5670467,
      "is_ai": true,
      "track_id": 4,
      "velocity": 0,
      "is_motor": false,
      "motor_id": 0,
      "accel_val": 2000,
      "base_duration_us": 2903219
    },
    {
      "id": "M_16",
      "pitch": 91,
      "t_note_us": 5806430,
      "t_trigger_us": 5670467,
      "is_ai": true,
      "track_id": 7,
      "velocity": 0,
      "is_motor": false,
      "motor_id": 0,
      "accel_val": 2000,
      "base_duration_us": 2903219
    },
    {
      "id": "M_20",
      "pitch": 69,
      "t_note_us": 5806430,
      "t_trigger_us": 5670467,
      "is_ai": false,
      "track_id": 0,
      "velocity": 0,
      "is_motor": true,
      "motor_id": 1,
      "accel_val": 2000,
      "base_duration_us": 3870957
    },
    {
      "id": "M_21",
      "pitch": 67,
      "t_note_us": 5806430,
      "t_trigger_us": 5670467,
      "is_ai": false,
      "track_id": 0,
      "velocity": 0,
      "is_motor": true,
      "motor_id": 2,
      "accel_val": 2000,
      "base_duration_us": 3870957
    },
    {
      "id": "M_18",
      "pitch": 93,
      "t_note_us": 8709649,
      "t_trigger_us": 8573686,
      "is_ai": true,
      "track_id": 8,
      "velocity": 0,
      "is_motor": false,
      "motor_id": 0,
      "accel_val": 2000,
      "base_duration_us": 483869
    },
    {
      "id": "M_19",
      "pitch": 96,
      "t_note_us": 9193518,
      "t_trigger_us": 9057555,
      "is_ai": true,
      "track_id": 10,
      "velocity": 0,
      "is_motor": false,
      "motor_id": 0,
      "accel_val": 2000,
      "base_duration_us": 483869
    },
    {
      "id": "M_22",
      "pitch": 88,
      "t_note_us": 9677387,
      "t_trigger_us": 9541424,
      "is_ai": true,
      "track_id": 5,
      "velocity": 0,
      "is_motor": false,
      "motor_id": 0,
      "accel_val": 2000,
      "base_duration_us": 967739
    },
    {
      "id": "M_23",
      "pitch": 98,
      "t_note_us": 9677387,
      "t_trigger_us": 9541424,
      "is_ai": true,
      "track_id": 11,
      "velocity": 0,
      "is_motor": false,
      "motor_id": 0,
      "accel_val": 2000,
      "base_duration_us": 967739
    },
    {
      "id": "M_24",
      "pitch": 93,
      "t_note_us": 9677387,
      "t_trigger_us": 9541424,
      "is_ai": true,
      "track_id": 8,
      "velocity": 0,
      "is_motor": false,
      "motor_id": 0,
      "accel_val": 2000,
      "base_duration_us": 967739
    },
    {
      "id": "M_27",
      "pitch": 72,
      "t_note_us": 9677387,
      "t_trigger_us": 9541424,
      "is_ai": false,
      "track_id": 0,
      "velocity": 0,
      "is_motor": true,
      "motor_id": 1,
      "accel_val": 2000,
      "base_duration_us": 1935477
    },
    {
      "id": "M_28",
      "pitch": 77,
      "t_note_us": 9677387,
      "t_trigger_us": 9541424,
      "is_ai": false,
      "track_id": 0,
      "velocity": 0,
      "is_motor": true,
      "motor_id": 2,
      "accel_val": 2000,
      "base_duration_us": 1935477
    },
    {
      "id": "M_25",
      "pitch": 98,
      "t_note_us": 10645126,
      "t_trigger_us": 10509163,
      "is_ai": true,
      "track_id": 11,
      "velocity": 0,
      "is_motor": false,
      "motor_id": 0,
      "accel_val": 2000,
      "base_duration_us": 483869
    },
    {
      "id": "M_26",
      "pitch": 96,
      "t_note_us": 11128995,
      "t_trigger_us": 10993032,
      "is_ai": true,
      "track_id": 10,
      "velocity": 0,
      "is_motor": false,
      "motor_id": 0,
      "accel_val": 2000,
      "base_duration_us": 483869
    },
    {
      "id": "M_29",
      "pitch": 88,
      "t_note_us": 11612864,
      "t_trigger_us": 11476901,
      "is_ai": true,
      "track_id": 5,
      "velocity": 0,
      "is_motor": false,
      "motor_id": 0,
      "accel_val": 2000,
      "base_duration_us": 483869
    },
    {
      "id": "M_30",
      "pitch": 93,
      "t_note_us": 11612864,
      "t_trigger_us": 11476901,
      "is_ai": true,
      "track_id": 8,
      "velocity": 0,
      "is_motor": false,
      "motor_id": 0,
      "accel_val": 2000,
      "base_duration_us": 483869
    },
    {
      "id": "M_31",
      "pitch": 98,
      "t_note_us": 11612864,
      "t_trigger_us": 11476901,
      "is_ai": true,
      "track_id": 11,
      "velocity": 0,
      "is_motor": false,
      "motor_id": 0,
      "accel_val": 2000,
      "base_duration_us": 483869
    },
    {
      "id": "M_34",
      "pitch": 74,
      "t_note_us": 11612864,
      "t_trigger_us": 11476901,
      "is_ai": false,
      "track_id": 0,
      "velocity": 0,
      "is_motor": true,
      "motor_id": 1,
      "accel_val": 2000,
      "base_duration_us": 1935476
    },
    {
      "id": "M_35",
      "pitch": 67,
      "t_note_us": 11612864,
      "t_trigger_us": 11476901,
      "is_ai": false,
      "track_id": 0,
      "velocity": 0,
      "is_motor": true,
      "motor_id": 2,
      "accel_val": 2000,
      "base_duration_us": 1935476
    },
    {
      "id": "M_32",
      "pitch": 100,
      "t_note_us": 12096733,
      "t_trigger_us": 11960770,
      "is_ai": true,
      "track_id": 12,
      "velocity": 0,
      "is_motor": false,
      "motor_id": 0,
      "accel_val": 2000,
      "base_duration_us": 483869
    },
    {
      "id": "M_33",
      "pitch": 98,
      "t_note_us": 12580602,
      "t_trigger_us": 12444639,
      "is_ai": true,
      "track_id": 11,
      "velocity": 0,
      "is_motor": false,
      "motor_id": 0,
      "accel_val": 2000,
      "base_duration_us": 483869
    },
    {
      "id": "M_37",
      "pitch": 98,
      "t_note_us": 13064471,
      "t_trigger_us": 12928508,
      "is_ai": true,
      "track_id": 11,
      "velocity": 0,
      "is_motor": false,
      "motor_id": 0,
      "accel_val": 2000,
      "base_duration_us": 967738
    },
    {
      "id": "M_36",
      "pitch": 93,
      "t_note_us": 13548340,
      "t_trigger_us": 13412377,
      "is_ai": true,
      "track_id": 8,
      "velocity": 0,
      "is_motor": false,
      "motor_id": 0,
      "accel_val": 2000,
      "base_duration_us": 483869
    },
    {
      "id": "M_39",
      "pitch": 76,
      "t_note_us": 13548340,
      "t_trigger_us": 13412377,
      "is_ai": false,
      "track_id": 0,
      "velocity": 0,
      "is_motor": true,
      "motor_id": 2,
      "accel_val": 2000,
      "base_duration_us": 2903218
    },
    {
      "id": "M_40",
      "pitch": 69,
      "t_note_us": 13548340,
      "t_trigger_us": 13412377,
      "is_ai": false,
      "track_id": 0,
      "velocity": 0,
      "is_motor": true,
      "motor_id": 1,
      "accel_val": 2000,
      "base_duration_us": 2903218
    },
    {
      "id": "M_38",
      "pitch": 96,
      "t_note_us": 14032209,
      "t_trigger_us": 13896246,
      "is_ai": true,
      "track_id": 10,
      "velocity": 0,
      "is_motor": false,
      "motor_id": 0,
      "accel_val": 2000,
      "base_duration_us": 2419349
    },
    {
      "id": "M_41",
      "pitch": 69,
      "t_note_us": 16451558,
      "t_trigger_us": 16315595,
      "is_ai": false,
      "track_id": 0,
      "velocity": 0,
      "is_motor": true,
      "motor_id": 1,
      "accel_val": 2000,
      "base_duration_us": 483869
    },
    {
      "id": "M_42",
      "pitch": 72,
      "t_note_us": 16935427,
      "t_trigger_us": 16799464,
      "is_ai": false,
      "track_id": 0,
      "velocity": 0,
      "is_motor": true,
      "motor_id": 1,
      "accel_val": 2000,
      "base_duration_us": 483869
    },
    {
      "id": "M_43",
      "pitch": 76,
      "t_note_us": 17419296,
      "t_trigger_us": 17283333,
      "is_ai": false,
      "track_id": 0,
      "velocity": 0,
      "is_motor": true,
      "motor_id": 2,
      "accel_val": 2000,
      "base_duration_us": 967739
    },
    {
      "id": "M_44",
      "pitch": 76,
      "t_note_us": 17419296,
      "t_trigger_us": 17283333,
      "is_ai": false,
      "track_id": 0,
      "velocity": 0,
      "is_motor": true,
      "motor_id": 1,
      "accel_val": 2000,
      "base_duration_us": 967739
    },
    {
      "id": "M_45",
      "pitch": 69,
      "t_note_us": 17419296,
      "t_trigger_us": 17283333,
      "is_ai": false,
      "track_id": 0,
      "velocity": 0,
      "is_motor": true,
      "motor_id": 0,
      "accel_val": 2000,
      "base_duration_us": 967739
    },
    {
      "id": "M_48",
      "pitch": 72,
      "t_note_us": 17419296,
      "t_trigger_us": 17283333,
      "is_ai": false,
      "track_id": 0,
      "velocity": 0,
      "is_motor": true,
      "motor_id": 3,
      "accel_val": 2000,
      "base_duration_us": 1935478
    },
    {
      "id": "M_49",
      "pitch": 65,
      "t_note_us": 17419296,
      "t_trigger_us": 17283333,
      "is_ai": false,
      "track_id": 0,
      "velocity": 0,
      "is_motor": true,
      "motor_id": 0,
      "accel_val": 2000,
      "base_duration_us": 1935478
    },
    {
      "id": "M_46",
      "pitch": 86,
      "t_note_us": 18387035,
      "t_trigger_us": 18251072,
      "is_ai": true,
      "track_id": 4,
      "velocity": 0,
      "is_motor": false,
      "motor_id": 0,
      "accel_val": 2000,
      "base_duration_us": 967739
    },
    {
      "id": "M_47",
      "pitch": 91,
      "t_note_us": 18387035,
      "t_trigger_us": 18251072,
      "is_ai": true,
      "track_id": 7,
      "velocity": 0,
      "is_motor": false,
      "motor_id": 0,
      "accel_val": 2000,
      "base_duration_us": 967739
    },
    {
      "id": "M_50",
      "pitch": 76,
      "t_note_us": 19354774,
      "t_trigger_us": 19218811,
      "is_ai": false,
      "track_id": 0,
      "velocity": 0,
      "is_motor": true,
      "motor_id": 2,
      "accel_val": 2000,
      "base_duration_us": 967739
    },
    {
      "id": "M_51",
      "pitch": 71,
      "t_note_us": 19354774,
      "t_trigger_us": 19218811,
      "is_ai": false,
      "track_id": 0,
      "velocity": 0,
      "is_motor": true,
      "motor_id": 1,
      "accel_val": 2000,
      "base_duration_us": 967739
    },
    {
      "id": "M_56",
      "pitch": 67,
      "t_note_us": 19354774,
      "t_trigger_us": 19218811,
      "is_ai": false,
      "track_id": 0,
      "velocity": 0,
      "is_motor": true,
      "motor_id": 0,
      "accel_val": 2000,
      "base_duration_us": 1935477
    },
    {
      "id": "M_57",
      "pitch": 74,
      "t_note_us": 19354774,
      "t_trigger_us": 19218811,
      "is_ai": false,
      "track_id": 0,
      "velocity": 0,
      "is_motor": true,
      "motor_id": 3,
      "accel_val": 2000,
      "base_duration_us": 1935477
    },
    {
      "id": "M_52",
      "pitch": 86,
      "t_note_us": 20322513,
      "t_trigger_us": 20186550,
      "is_ai": true,
      "track_id": 4,
      "velocity": 0,
      "is_motor": false,
      "motor_id": 0,
      "accel_val": 2000,
      "base_duration_us": 483869
    },
    {
      "id": "M_53",
      "pitch": 95,
      "t_note_us": 20322513,
      "t_trigger_us": 20186550,
      "is_ai": true,
      "track_id": 9,
      "velocity": 0,
      "is_motor": false,
      "motor_id": 0,
      "accel_val": 2000,
      "base_duration_us": 483869
    },
    {
      "id": "M_54",
      "pitch": 88,
      "t_note_us": 20806382,
      "t_trigger_us": 20670419,
      "is_ai": true,
      "track_id": 5,
      "velocity": 0,
      "is_motor": false,
      "motor_id": 0,
      "accel_val": 2000,
      "base_duration_us": 483869
    },
    {
      "id": "M_55",
      "pitch": 96,
      "t_note_us": 20806382,
      "t_trigger_us": 20670419,
      "is_ai": true,
      "track_id": 10,
      "velocity": 0,
      "is_motor": false,
      "motor_id": 0,
      "accel_val": 2000,
      "base_duration_us": 483869
    },
    {
      "id": "M_58",
      "pitch": 86,
      "t_note_us": 21290251,
      "t_trigger_us": 21154288,
      "is_ai": true,
      "track_id": 4,
      "velocity": 0,
      "is_motor": false,
      "motor_id": 0,
      "accel_val": 2000,
      "base_duration_us": 483869
    },
    {
      "id": "M_59",
      "pitch": 91,
      "t_note_us": 21290251,
      "t_trigger_us": 21154288,
      "is_ai": true,
      "track_id": 7,
      "velocity": 0,
      "is_motor": false,
      "motor_id": 0,
      "accel_val": 2000,
      "base_duration_us": 483869
    },
    {
      "id": "M_61",
      "pitch": 67,
      "t_note_us": 21290251,
      "t_trigger_us": 21154288,
      "is_ai": false,
      "track_id": 0,
      "velocity": 0,
      "is_motor": true,
      "motor_id": 1,
      "accel_val": 2000,
      "base_duration_us": 2903218
    },
    {
      "id": "M_62",
      "pitch": 69,
      "t_note_us": 21290251,
      "t_trigger_us": 21154288,
      "is_ai": false,
      "track_id": 0,
      "velocity": 0,
      "is_motor": true,
      "motor_id": 2,
      "accel_val": 2000,
      "base_duration_us": 2903218
    },
    {
      "id": "M_63",
      "pitch": 76,
      "t_note_us": 21290251,
      "t_trigger_us": 21154288,
      "is_ai": false,
      "track_id": 0,
      "velocity": 0,
      "is_motor": true,
      "motor_id": 3,
      "accel_val": 2000,
      "base_duration_us": 2903218
    },
    {
      "id": "M_60",
      "pitch": 93,
      "t_note_us": 21774120,
      "t_trigger_us": 21638157,
      "is_ai": true,
      "track_id": 8,
      "velocity": 0,
      "is_motor": false,
      "motor_id": 0,
      "accel_val": 2000,
      "base_duration_us": 2419349
    },
    {
      "id": "M_64",
      "pitch": 91,
      "t_note_us": 24193469,
      "t_trigger_us": 24057506,
      "is_ai": true,
      "track_id": 7,
      "velocity": 0,
      "is_motor": false,
      "motor_id": 0,
      "accel_val": 2000,
      "base_duration_us": 483869
    },
    {
      "id": "M_65",
      "pitch": 72,
      "t_note_us": 24193469,
      "t_trigger_us": 24057506,
      "is_ai": false,
      "track_id": 0,
      "velocity": 0,
      "is_motor": true,
      "motor_id": 1,
      "accel_val": 2000,
      "base_duration_us": 483869
    },
    {
      "id": "M_67",
      "pitch": 72,
      "t_note_us": 24193469,
      "t_trigger_us": 24057506,
      "is_ai": false,
      "track_id": 0,
      "velocity": 0,
      "is_motor": true,
      "motor_id": 0,
      "accel_val": 2000,
      "base_duration_us": 967738
    },
    {
      "id": "M_68",
      "pitch": 64,
      "t_note_us": 24193469,
      "t_trigger_us": 24057506,
      "is_ai": false,
      "track_id": 0,
      "velocity": 0,
      "is_motor": true,
      "motor_id": 2,
      "accel_val": 2000,
      "base_duration_us": 967738
    },
    {
      "id": "M_66",
      "pitch": 71,
      "t_note_us": 24677338,
      "t_trigger_us": 24541375,
      "is_ai": false,
      "track_id": 0,
      "velocity": 0,
      "is_motor": true,
      "motor_id": 1,
      "accel_val": 2000,
      "base_duration_us": 483869
    },
    {
      "id": "M_69",
      "pitch": 74,
      "t_note_us": 25161207,
      "t_trigger_us": 25025244,
      "is_ai": false,
      "track_id": 0,
      "velocity": 0,
      "is_motor": true,
      "motor_id": 1,
      "accel_val": 2000,
      "base_duration_us": 967739
    },
    {
      "id": "M_70",
      "pitch": 69,
      "t_note_us": 25161207,
      "t_trigger_us": 25025244,
      "is_ai": false,
      "track_id": 0,
      "velocity": 0,
      "is_motor": true,
      "motor_id": 2,
      "accel_val": 2000,
      "base_duration_us": 967739
    },
    {
      "id": "M_71",
      "pitch": 76,
      "t_note_us": 25161207,
      "t_trigger_us": 25025244,
      "is_ai": false,
      "track_id": 0,
      "velocity": 0,
      "is_motor": true,
      "motor_id": 3,
      "accel_val": 2000,
      "base_duration_us": 967739
    },
    {
      "id": "M_73",
      "pitch": 72,
      "t_note_us": 25161207,
      "t_trigger_us": 25025244,
      "is_ai": false,
      "track_id": 0,
      "velocity": 0,
      "is_motor": true,
      "motor_id": 0,
      "accel_val": 2000,
      "base_duration_us": 1935478
    },
    {
      "id": "M_74",
      "pitch": 65,
      "t_note_us": 25161207,
      "t_trigger_us": 25025244,
      "is_ai": false,
      "track_id": 0,
      "velocity": 0,
      "is_motor": true,
      "motor_id": 0,
      "accel_val": 2000,
      "base_duration_us": 1935478
    },
    {
      "id": "M_72",
      "pitch": 88,
      "t_note_us": 26128946,
      "t_trigger_us": 25992983,
      "is_ai": true,
      "track_id": 5,
      "velocity": 0,
      "is_motor": false,
      "motor_id": 0,
      "accel_val": 2000,
      "base_duration_us": 967739
    },
    {
      "id": "M_75",
      "pitch": 76,
      "t_note_us": 27096685,
      "t_trigger_us": 26960722,
      "is_ai": false,
      "track_id": 0,
      "velocity": 0,
      "is_motor": true,
      "motor_id": 2,
      "accel_val": 2000,
      "base_duration_us": 967739
    },
    {
      "id": "M_76",
      "pitch": 71,
      "t_note_us": 27096685,
      "t_trigger_us": 26960722,
      "is_ai": false,
      "track_id": 0,
      "velocity": 0,
      "is_motor": true,
      "motor_id": 1,
      "accel_val": 2000,
      "base_duration_us": 967739
    },
    {
      "id": "M_79",
      "pitch": 67,
      "t_note_us": 27096685,
      "t_trigger_us": 26960722,
      "is_ai": false,
      "track_id": 0,
      "velocity": 0,
      "is_motor": true,
      "motor_id": 0,
      "accel_val": 2000,
      "base_duration_us": 1935478
    },
    {
      "id": "M_80",
      "pitch": 74,
      "t_note_us": 27096685,
      "t_trigger_us": 26960722,
      "is_ai": false,
      "track_id": 0,
      "velocity": 0,
      "is_motor": true,
      "motor_id": 3,
      "accel_val": 2000,
      "base_duration_us": 1935478
    },
    {
      "id": "M_77",
      "pitch": 98,
      "t_note_us": 28064424,
      "t_trigger_us": 27928461,
      "is_ai": true,
      "track_id": 11,
      "velocity": 0,
      "is_motor": false,
      "motor_id": 0,
      "accel_val": 2000,
      "base_duration_us": 967739
    },
    {
      "id": "M_78",
      "pitch": 91,
      "t_note_us": 28064424,
      "t_trigger_us": 27928461,
      "is_ai": true,
      "track_id": 7,
      "velocity": 0,
      "is_motor": false,
      "motor_id": 0,
      "accel_val": 2000,
      "base_duration_us": 967739
    },
    {
      "id": "M_81",
      "pitch": 91,
      "t_note_us": 29032163,
      "t_trigger_us": 28896200,
      "is_ai": true,
      "track_id": 7,
      "velocity": 0,
      "is_motor": false,
      "motor_id": 0,
      "accel_val": 2000,
      "base_duration_us": 483869
    },
    {
      "id": "M_82",
      "pitch": 74,
      "t_note_us": 29032163,
      "t_trigger_us": 28896200,
      "is_ai": false,
      "track_id": 0,
      "velocity": 0,
      "is_motor": true,
      "motor_id": 1,
      "accel_val": 2000,
      "base_duration_us": 483869
    },
    {
      "id": "M_84",
      "pitch": 67,
      "t_note_us": 29032163,
      "t_trigger_us": 28896200,
      "is_ai": false,
      "track_id": 0,
      "velocity": 0,
      "is_motor": true,
      "motor_id": 2,
      "accel_val": 2000,
      "base_duration_us": 2903218
    },
    {
      "id": "M_85",
      "pitch": 69,
      "t_note_us": 29032163,
      "t_trigger_us": 28896200,
      "is_ai": false,
      "track_id": 0,
      "velocity": 0,
      "is_motor": true,
      "motor_id": 0,
      "accel_val": 2000,
      "base_duration_us": 2903218
    },
    {
      "id": "M_86",
      "pitch": 76,
      "t_note_us": 29032163,
      "t_trigger_us": 28896200,
      "is_ai": false,
      "track_id": 0,
      "velocity": 0,
      "is_motor": true,
      "motor_id": 3,
      "accel_val": 2000,
      "base_duration_us": 2903218
    },
    {
      "id": "M_83",
      "pitch": 93,
      "t_note_us": 29516032,
      "t_trigger_us": 29380069,
      "is_ai": true,
      "track_id": 8,
      "velocity": 0,
      "is_motor": false,
      "motor_id": 0,
      "accel_val": 2000,
      "base_duration_us": 2419349
    },
    {
      "id": "M_87",
      "pitch": 81,
      "t_note_us": 31935381,
      "t_trigger_us": 31799418,
      "is_ai": true,
      "track_id": 1,
      "velocity": 0,
      "is_motor": false,
      "motor_id": 0,
      "accel_val": 2000,
      "base_duration_us": 483869
    },
    {
      "id": "M_89",
      "pitch": 72,
      "t_note_us": 31935381,
      "t_trigger_us": 31799418,
      "is_ai": false,
      "track_id": 0,
      "velocity": 0,
      "is_motor": true,
      "motor_id": 1,
      "accel_val": 2000,
      "base_duration_us": 967738
    },
    {
      "id": "M_90",
      "pitch": 64,
      "t_note_us": 31935381,
      "t_trigger_us": 31799418,
      "is_ai": false,
      "track_id": 0,
      "velocity": 0,
      "is_motor": true,
      "motor_id": 0,
      "accel_val": 2000,
      "base_duration_us": 967738
    },
    {
      "id": "M_88",
      "pitch": 84,
      "t_note_us": 32419250,
      "t_trigger_us": 32283287,
      "is_ai": true,
      "track_id": 3,
      "velocity": 0,
      "is_motor": false,
      "motor_id": 0,
      "accel_val": 2000,
      "base_duration_us": 483869
    },
    {
      "id": "M_92",
      "pitch": 88,
      "t_note_us": 32903119,
      "t_trigger_us": 32767156,
      "is_ai": true,
      "track_id": 5,
      "velocity": 0,
      "is_motor": false,
      "motor_id": 0,
      "accel_val": 2000,
      "base_duration_us": 967738
    },
    {
      "id": "M_91",
      "pitch": 53,
      "t_note_us": 32903119,
      "t_trigger_us": 32767156,
      "is_ai": false,
      "track_id": 0,
      "velocity": 0,
      "is_motor": true,
      "motor_id": 0,
      "accel_val": 2000,
      "base_duration_us": 483869
    },
    {
      "id": "M_93",
      "pitch": 69,
      "t_note_us": 32903119,
      "t_trigger_us": 32767156,
      "is_ai": false,
      "track_id": 0,
      "velocity": 0,
      "is_motor": true,
      "motor_id": 1,
      "accel_val": 2000,
      "base_duration_us": 967738
    },
    {
      "id": "M_94",
      "pitch": 60,
      "t_note_us": 33386988,
      "t_trigger_us": 33251025,
      "is_ai": false,
      "track_id": 0,
      "velocity": 0,
      "is_motor": true,
      "motor_id": 0,
      "accel_val": 2000,
      "base_duration_us": 483869
    },
    {
      "id": "M_96",
      "pitch": 91,
      "t_note_us": 33870857,
      "t_trigger_us": 33734894,
      "is_ai": true,
      "track_id": 7,
      "velocity": 0,
      "is_motor": false,
      "motor_id": 0,
      "accel_val": 2000,
      "base_duration_us": 967739
    },
    {
      "id": "M_95",
      "pitch": 74,
      "t_note_us": 33870857,
      "t_trigger_us": 33734894,
      "is_ai": false,
      "track_id": 0,
      "velocity": 0,
      "is_motor": true,
      "motor_id": 1,
      "accel_val": 2000,
      "base_duration_us": 967739
    },
    {
      "id": "M_97",
      "pitch": 69,
      "t_note_us": 33870857,
      "t_trigger_us": 33734894,
      "is_ai": false,
      "track_id": 0,
      "velocity": 0,
      "is_motor": true,
      "motor_id": 2,
      "accel_val": 2000,
      "base_duration_us": 967739
    },
    {
      "id": "M_98",
      "pitch": 55,
      "t_note_us": 34838596,
      "t_trigger_us": 34702633,
      "is_ai": false,
      "track_id": 0,
      "velocity": 0,
      "is_motor": true,
      "motor_id": 0,
      "accel_val": 2000,
      "base_duration_us": 483869
    },
    {
      "id": "M_99",
      "pitch": 71,
      "t_note_us": 34838596,
      "t_trigger_us": 34702633,
      "is_ai": false,
      "track_id": 0,
      "velocity": 0,
      "is_motor": true,
      "motor_id": 1,
      "accel_val": 2000,
      "base_duration_us": 967738
    },
    {
      "id": "M_100",
      "pitch": 67,
      "t_note_us": 34838596,
      "t_trigger_us": 34702633,
      "is_ai": false,
      "track_id": 0,
      "velocity": 0,
      "is_motor": true,
      "motor_id": 2,
      "accel_val": 2000,
      "base_duration_us": 967738
    },
    {
      "id": "M_101",
      "pitch": 62,
      "t_note_us": 35322465,
      "t_trigger_us": 35186502,
      "is_ai": false,
      "track_id": 0,
      "velocity": 0,
      "is_motor": true,
      "motor_id": 0,
      "accel_val": 2000,
      "base_duration_us": 483869
    },
    {
      "id": "M_102",
      "pitch": 95,
      "t_note_us": 35806334,
      "t_trigger_us": 35670371,
      "is_ai": true,
      "track_id": 9,
      "velocity": 0,
      "is_motor": false,
      "motor_id": 0,
      "accel_val": 2000,
      "base_duration_us": 483869
    },
    {
      "id": "M_103",
      "pitch": 74,
      "t_note_us": 35806334,
      "t_trigger_us": 35670371,
      "is_ai": false,
      "track_id": 0,
      "velocity": 0,
      "is_motor": true,
      "motor_id": 1,
      "accel_val": 2000,
      "base_duration_us": 483869
    },
    {
      "id": "M_106",
      "pitch": 71,
      "t_note_us": 35806334,
      "t_trigger_us": 35670371,
      "is_ai": false,
      "track_id": 0,
      "velocity": 0,
      "is_motor": true,
      "motor_id": 2,
      "accel_val": 2000,
      "base_duration_us": 967738
    },
    {
      "id": "M_104",
      "pitch": 96,
      "t_note_us": 36290203,
      "t_trigger_us": 36154240,
      "is_ai": true,
      "track_id": 10,
      "velocity": 0,
      "is_motor": false,
      "motor_id": 0,
      "accel_val": 2000,
      "base_duration_us": 483869
    },
    {
      "id": "M_105",
      "pitch": 76,
      "t_note_us": 36290203,
      "t_trigger_us": 36154240,
      "is_ai": false,
      "track_id": 0,
      "velocity": 0,
      "is_motor": true,
      "motor_id": 1,
      "accel_val": 2000,
      "base_duration_us": 483869
    },
    {
      "id": "M_109",
      "pitch": 86,
      "t_note_us": 36774072,
      "t_trigger_us": 36638109,
      "is_ai": true,
      "track_id": 4,
      "velocity": 0,
      "is_motor": false,
      "motor_id": 0,
      "accel_val": 2000,
      "base_duration_us": 967738
    },
    {
      "id": "M_107",
      "pitch": 57,
      "t_note_us": 36774072,
      "t_trigger_us": 36638109,
      "is_ai": false,
      "track_id": 0,
      "velocity": 0,
      "is_motor": true,
      "motor_id": 0,
      "accel_val": 2000,
      "base_duration_us": 483869
    },
    {
      "id": "M_108",
      "pitch": 67,
      "t_note_us": 36774072,
      "t_trigger_us": 36638109,
      "is_ai": false,
      "track_id": 0,
      "velocity": 0,
      "is_motor": true,
      "motor_id": 1,
      "accel_val": 2000,
      "base_duration_us": 967738
    },
    {
      "id": "M_110",
      "pitch": 64,
      "t_note_us": 37257941,
      "t_trigger_us": 37121978,
      "is_ai": false,
      "track_id": 0,
      "velocity": 0,
      "is_motor": true,
      "motor_id": 0,
      "accel_val": 2000,
      "base_duration_us": 483869
    },
    {
      "id": "M_111",
      "pitch": 69,
      "t_note_us": 37741810,
      "t_trigger_us": 37605847,
      "is_ai": false,
      "track_id": 0,
      "velocity": 0,
      "is_motor": true,
      "motor_id": 1,
      "accel_val": 2000,
      "base_duration_us": 483869
    },
    {
      "id": "M_113",
      "pitch": 72,
      "t_note_us": 37741810,
      "t_trigger_us": 37605847,
      "is_ai": false,
      "track_id": 0,
      "velocity": 0,
      "is_motor": true,
      "motor_id": 0,
      "accel_val": 2000,
      "base_duration_us": 1935477
    },
    {
      "id": "M_114",
      "pitch": 76,
      "t_note_us": 37741810,
      "t_trigger_us": 37605847,
      "is_ai": false,
      "track_id": 0,
      "velocity": 0,
      "is_motor": true,
      "motor_id": 2,
      "accel_val": 2000,
      "base_duration_us": 1935477
    },
    {
      "id": "M_112",
      "pitch": 64,
      "t_note_us": 38225679,
      "t_trigger_us": 38089716,
      "is_ai": false,
      "track_id": 0,
      "velocity": 0,
      "is_motor": true,
      "motor_id": 1,
      "accel_val": 2000,
      "base_duration_us": 483869
    },
    {
      "id": "M_115",
      "pitch": 72,
      "t_note_us": 38709548,
      "t_trigger_us": 38573585,
      "is_ai": false,
      "track_id": 0,
      "velocity": 0,
      "is_motor": true,
      "motor_id": 1,
      "accel_val": 2000,
      "base_duration_us": 967739
    },
    {
      "id": "M_116",
      "pitch": 91,
      "t_note_us": 39677287,
      "t_trigger_us": 39541324,
      "is_ai": true,
      "track_id": 7,
      "velocity": 0,
      "is_motor": false,
      "motor_id": 0,
      "accel_val": 2000,
      "base_duration_us": 483869
    },
    {
      "id": "M_117",
      "pitch": 72,
      "t_note_us": 39677287,
      "t_trigger_us": 39541324,
      "is_ai": false,
      "track_id": 0,
      "velocity": 0,
      "is_motor": true,
      "motor_id": 1,
      "accel_val": 2000,
      "base_duration_us": 483869
    },
    {
      "id": "M_118",
      "pitch": 74,
      "t_note_us": 39677287,
      "t_trigger_us": 39541324,
      "is_ai": false,
      "track_id": 0,
      "velocity": 0,
      "is_motor": true,
      "motor_id": 0,
      "accel_val": 2000,
      "base_duration_us": 483869
    },
    {
      "id": "M_119",
      "pitch": 52,
      "t_note_us": 39677287,
      "t_trigger_us": 39541324,
      "is_ai": false,
      "track_id": 0,
      "velocity": 0,
      "is_motor": true,
      "motor_id": 2,
      "accel_val": 2000,
      "base_duration_us": 952618
    },
    {
      "id": "M_120",
      "pitch": 64,
      "t_note_us": 39677287,
      "t_trigger_us": 39541324,
      "is_ai": false,
      "track_id": 0,
      "velocity": 0,
      "is_motor": true,
      "motor_id": 3,
      "accel_val": 2000,
      "base_duration_us": 967738
    },
    {
      "id": "M_121",
      "pitch": 86,
      "t_note_us": 40161156,
      "t_trigger_us": 40025193,
      "is_ai": true,
      "track_id": 4,
      "velocity": 0,
      "is_motor": false,
      "motor_id": 0,
      "accel_val": 2000,
      "base_duration_us": 967738
    },
    {
      "id": "M_122",
      "pitch": 53,
      "t_note_us": 40645025,
      "t_trigger_us": 40509062,
      "is_ai": false,
      "track_id": 0,
      "velocity": 0,
      "is_motor": true,
      "motor_id": 0,
      "accel_val": 2000,
      "base_duration_us": 483869
    },
    {
      "id": "M_123",
      "pitch": 60,
      "t_note_us": 41128894,
      "t_trigger_us": 40992931,
      "is_ai": false,
      "track_id": 0,
      "velocity": 0,
      "is_motor": true,
      "motor_id": 1,
      "accel_val": 2000,
      "base_duration_us": 483869
    },
    {
      "id": "M_124",
      "pitch": 72,
      "t_note_us": 41128894,
      "t_trigger_us": 40992931,
      "is_ai": false,
      "track_id": 0,
      "velocity": 0,
      "is_motor": true,
      "motor_id": 0,
      "accel_val": 2000,
      "base_duration_us": 1451608
    },
    {
      "id": "M_125",
      "pitch": 69,
      "t_note_us": 41128894,
      "t_trigger_us": 40992931,
      "is_ai": false,
      "track_id": 0,
      "velocity": 0,
      "is_motor": true,
      "motor_id": 2,
      "accel_val": 2000,
      "base_duration_us": 1451608
    },
    {
      "id": "M_126",
      "pitch": 65,
      "t_note_us": 41612763,
      "t_trigger_us": 41476800,
      "is_ai": false,
      "track_id": 0,
      "velocity": 0,
      "is_motor": true,
      "motor_id": 1,
      "accel_val": 2000,
      "base_duration_us": 967739
    },
    {
      "id": "M_127",
      "pitch": 52,
      "t_note_us": 42580502,
      "t_trigger_us": 42444539,
      "is_ai": false,
      "track_id": 0,
      "velocity": 0,
      "is_motor": true,
      "motor_id": 0,
      "accel_val": 2000,
      "base_duration_us": 483869
    },
    {
      "id": "M_128",
      "pitch": 67,
      "t_note_us": 42580502,
      "t_trigger_us": 42444539,
      "is_ai": false,
      "track_id": 0,
      "velocity": 0,
      "is_motor": true,
      "motor_id": 1,
      "accel_val": 2000,
      "base_duration_us": 967738
    },
    {
      "id": "M_129",
      "pitch": 71,
      "t_note_us": 42580502,
      "t_trigger_us": 42444539,
      "is_ai": false,
      "track_id": 0,
      "velocity": 0,
      "is_motor": true,
      "motor_id": 2,
      "accel_val": 2000,
      "base_duration_us": 967738
    },
    {
      "id": "M_130",
      "pitch": 59,
      "t_note_us": 43064371,
      "t_trigger_us": 42928408,
      "is_ai": false,
      "track_id": 0,
      "velocity": 0,
      "is_motor": true,
      "motor_id": 0,
      "accel_val": 2000,
      "base_duration_us": 483869
    },
    {
      "id": "M_131",
      "pitch": 93,
      "t_note_us": 43548240,
      "t_trigger_us": 43412277,
      "is_ai": true,
      "track_id": 8,
      "velocity": 0,
      "is_motor": false,
      "motor_id": 0,
      "accel_val": 2000,
      "base_duration_us": 483869
    },
    {
      "id": "M_132",
      "pitch": 74,
      "t_note_us": 43548240,
      "t_trigger_us": 43412277,
      "is_ai": false,
      "track_id": 0,
      "velocity": 0,
      "is_motor": true,
      "motor_id": 1,
      "accel_val": 2000,
      "base_duration_us": 483869
    },
    {
      "id": "M_133",
      "pitch": 64,
      "t_note_us": 43548240,
      "t_trigger_us": 43412277,
      "is_ai": false,
      "track_id": 0,
      "velocity": 0,
      "is_motor": true,
      "motor_id": 0,
      "accel_val": 2000,
      "base_duration_us": 967738
    },
    {
      "id": "M_134",
      "pitch": 98,
      "t_note_us": 44032109,
      "t_trigger_us": 43896146,
      "is_ai": true,
      "track_id": 11,
      "velocity": 0,
      "is_motor": false,
      "motor_id": 0,
      "accel_val": 2000,
      "base_duration_us": 967738
    },
    {
      "id": "M_135",
      "pitch": 74,
      "t_note_us": 44032109,
      "t_trigger_us": 43896146,
      "is_ai": false,
      "track_id": 0,
      "velocity": 0,
      "is_motor": true,
      "motor_id": 1,
      "accel_val": 2000,
      "base_duration_us": 967738
    },
    {
      "id": "M_136",
      "pitch": 57,
      "t_note_us": 44515978,
      "t_trigger_us": 44380015,
      "is_ai": false,
      "track_id": 0,
      "velocity": 0,
      "is_motor": true,
      "motor_id": 0,
      "accel_val": 2000,
      "base_duration_us": 483869
    },
    {
      "id": "M_139",
      "pitch": 96,
      "t_note_us": 44999847,
      "t_trigger_us": 44863884,
      "is_ai": true,
      "track_id": 10,
      "velocity": 0,
      "is_motor": false,
      "motor_id": 0,
      "accel_val": 2000,
      "base_duration_us": 1451607
    },
    {
      "id": "M_137",
      "pitch": 64,
      "t_note_us": 44999847,
      "t_trigger_us": 44863884,
      "is_ai": false,
      "track_id": 0,
      "velocity": 0,
      "is_motor": true,
      "motor_id": 1,
      "accel_val": 2000,
      "base_duration_us": 483869
    },
    {
      "id": "M_140",
      "pitch": 72,
      "t_note_us": 44999847,
      "t_trigger_us": 44863884,
      "is_ai": false,
      "track_id": 0,
      "velocity": 0,
      "is_motor": true,
      "motor_id": 0,
      "accel_val": 2000,
      "base_duration_us": 1451607
    },
    {
      "id": "M_138",
      "pitch": 69,
      "t_note_us": 45483716,
      "t_trigger_us": 45347753,
      "is_ai": false,
      "track_id": 0,
      "velocity": 0,
      "is_motor": true,
      "motor_id": 1,
      "accel_val": 2000,
      "base_duration_us": 483869
    },
    {
      "id": "M_141",
      "pitch": 64,
      "t_note_us": 45967585,
      "t_trigger_us": 45831622,
      "is_ai": false,
      "track_id": 0,
      "velocity": 0,
      "is_motor": true,
      "motor_id": 1,
      "accel_val": 2000,
      "base_duration_us": 483869
    },
    {
      "id": "M_142",
      "pitch": 86,
      "t_note_us": 46451454,
      "t_trigger_us": 46315491,
      "is_ai": true,
      "track_id": 4,
      "velocity": 0,
      "is_motor": false,
      "motor_id": 0,
      "accel_val": 2000,
      "base_duration_us": 483869
    },
    {
      "id": "M_143",
      "pitch": 74,
      "t_note_us": 46451454,
      "t_trigger_us": 46315491,
      "is_ai": false,
      "track_id": 0,
      "velocity": 0,
      "is_motor": true,
      "motor_id": 1,
      "accel_val": 2000,
      "base_duration_us": 483869
    },
    {
      "id": "M_144",
      "pitch": 72,
      "t_note_us": 46935323,
      "t_trigger_us": 46799360,
      "is_ai": false,
      "track_id": 0,
      "velocity": 0,
      "is_motor": true,
      "motor_id": 1,
      "accel_val": 2000,
      "base_duration_us": 483869
    },
    {
      "id": "M_145",
      "pitch": 76,
      "t_note_us": 46935323,
      "t_trigger_us": 46799360,
      "is_ai": false,
      "track_id": 0,
      "velocity": 0,
      "is_motor": true,
      "motor_id": 2,
      "accel_val": 2000,
      "base_duration_us": 483869
    },
    {
      "id": "M_146",
      "pitch": 91,
      "t_note_us": 47419192,
      "t_trigger_us": 47283229,
      "is_ai": true,
      "track_id": 7,
      "velocity": 0,
      "is_motor": false,
      "motor_id": 0,
      "accel_val": 2000,
      "base_duration_us": 967739
    },
    {
      "id": "M_147",
      "pitch": 67,
      "t_note_us": 47419192,
      "t_trigger_us": 47283229,
      "is_ai": false,
      "track_id": 0,
      "velocity": 0,
      "is_motor": true,
      "motor_id": 1,
      "accel_val": 2000,
      "base_duration_us": 967739
    },
    {
      "id": "M_148",
      "pitch": 84,
      "t_note_us": 48386931,
      "t_trigger_us": 48250968,
      "is_ai": true,
      "track_id": 3,
      "velocity": 0,
      "is_motor": false,
      "motor_id": 0,
      "accel_val": 2000,
      "base_duration_us": 483869
    },
    {
      "id": "M_149",
      "pitch": 93,
      "t_note_us": 48386931,
      "t_trigger_us": 48250968,
      "is_ai": true,
      "track_id": 8,
      "velocity": 0,
      "is_motor": false,
      "motor_id": 0,
      "accel_val": 2000,
      "base_duration_us": 483869
    },
    {
      "id": "M_153",
      "pitch": 69,
      "t_note_us": 48386931,
      "t_trigger_us": 48250968,
      "is_ai": false,
      "track_id": 0,
      "velocity": 0,
      "is_motor": true,
      "motor_id": 1,
      "accel_val": 2000,
      "base_duration_us": 2903217
    },
    {
      "id": "M_150",
      "pitch": 86,
      "t_note_us": 48870800,
      "t_trigger_us": 48734837,
      "is_ai": true,
      "track_id": 4,
      "velocity": 0,
      "is_motor": false,
      "motor_id": 0,
      "accel_val": 2000,
      "base_duration_us": 483869
    },
    {
      "id": "M_151",
      "pitch": 96,
      "t_note_us": 49354669,
      "t_trigger_us": 49218706,
      "is_ai": true,
      "track_id": 10,
      "velocity": 0,
      "is_motor": false,
      "motor_id": 0,
      "accel_val": 2000,
      "base_duration_us": 1935479
    },
    {
      "id": "M_152",
      "pitch": 76,
      "t_note_us": 49354669,
      "t_trigger_us": 49218706,
      "is_ai": false,
      "track_id": 0,
      "velocity": 0,
      "is_motor": true,
      "motor_id": 2,
      "accel_val": 2000,
      "base_duration_us": 1935479
    },
    {
      "id": "M_154",
      "pitch": 69,
      "t_note_us": 51290148,
      "t_trigger_us": 51154185,
      "is_ai": false,
      "track_id": 0,
      "velocity": 0,
      "is_motor": true,
      "motor_id": 1,
      "accel_val": 2000,
      "base_duration_us": 483869
    },
    {
      "id": "M_155",
      "pitch": 88,
      "t_note_us": 51774017,
      "t_trigger_us": 51638054,
      "is_ai": true,
      "track_id": 5,
      "velocity": 0,
      "is_motor": false,
      "motor_id": 0,
      "accel_val": 2000,
      "base_duration_us": 483869
    },
    {
      "id": "M_156",
      "pitch": 69,
      "t_note_us": 52257886,
      "t_trigger_us": 52121923,
      "is_ai": false,
      "track_id": 0,
      "velocity": 0,
      "is_motor": true,
      "motor_id": 1,
      "accel_val": 2000,
      "base_duration_us": 1451609
    },
    {
      "id": "M_157",
      "pitch": 76,
      "t_note_us": 52257886,
      "t_trigger_us": 52121923,
      "is_ai": false,
      "track_id": 0,
      "velocity": 0,
      "is_motor": true,
      "motor_id": 2,
      "accel_val": 2000,
      "base_duration_us": 1451609
    },
    {
      "id": "M_159",
      "pitch": 76,
      "t_note_us": 52257886,
      "t_trigger_us": 52121923,
      "is_ai": false,
      "track_id": 0,
      "velocity": 0,
      "is_motor": true,
      "motor_id": 3,
      "accel_val": 2000,
      "base_duration_us": 1935477
    },
    {
      "id": "M_160",
      "pitch": 65,
      "t_note_us": 52257886,
      "t_trigger_us": 52121923,
      "is_ai": false,
      "track_id": 0,
      "velocity": 0,
      "is_motor": true,
      "motor_id": 0,
      "accel_val": 2000,
      "base_duration_us": 1935477
    },
    {
      "id": "M_161",
      "pitch": 72,
      "t_note_us": 52257886,
      "t_trigger_us": 52121923,
      "is_ai": false,
      "track_id": 0,
      "velocity": 0,
      "is_motor": true,
      "motor_id": 0,
      "accel_val": 2000,
      "base_duration_us": 1935477
    },
    {
      "id": "M_158",
      "pitch": 76,
      "t_note_us": 53709495,
      "t_trigger_us": 53573532,
      "is_ai": false,
      "track_id": 0,
      "velocity": 0,
      "is_motor": true,
      "motor_id": 2,
      "accel_val": 2000,
      "base_duration_us": 241934
    },
    {
      "id": "M_163",
      "pitch": 71,
      "t_note_us": 53951429,
      "t_trigger_us": 53815466,
      "is_ai": false,
      "track_id": 0,
      "velocity": 0,
      "is_motor": true,
      "motor_id": 1,
      "accel_val": 2000,
      "base_duration_us": 1693543
    },
    {
      "id": "M_162",
      "pitch": 69,
      "t_note_us": 54193363,
      "t_trigger_us": 54057400,
      "is_ai": false,
      "track_id": 0,
      "velocity": 0,
      "is_motor": true,
      "motor_id": 2,
      "accel_val": 2000,
      "base_duration_us": 1451609
    },
    {
      "id": "M_165",
      "pitch": 74,
      "t_note_us": 54193363,
      "t_trigger_us": 54057400,
      "is_ai": false,
      "track_id": 0,
      "velocity": 0,
      "is_motor": true,
      "motor_id": 0,
      "accel_val": 2000,
      "base_duration_us": 1935477
    },
    {
      "id": "M_166",
      "pitch": 67,
      "t_note_us": 54193363,
      "t_trigger_us": 54057400,
      "is_ai": false,
      "track_id": 0,
      "velocity": 0,
      "is_motor": true,
      "motor_id": 3,
      "accel_val": 2000,
      "base_duration_us": 1935477
    },
    {
      "id": "M_164",
      "pitch": 69,
      "t_note_us": 55644972,
      "t_trigger_us": 55509009,
      "is_ai": false,
      "track_id": 0,
      "velocity": 0,
      "is_motor": true,
      "motor_id": 1,
      "accel_val": 2000,
      "base_duration_us": 241934
    },
    {
      "id": "M_167",
      "pitch": 72,
      "t_note_us": 55886906,
      "t_trigger_us": 55750943,
      "is_ai": false,
      "track_id": 0,
      "velocity": 0,
      "is_motor": true,
      "motor_id": 1,
      "accel_val": 2000,
      "base_duration_us": 2177413
    },
    {
      "id": "M_168",
      "pitch": 69,
      "t_note_us": 56128840,
      "t_trigger_us": 55992877,
      "is_ai": false,
      "track_id": 0,
      "velocity": 0,
      "is_motor": true,
      "motor_id": 2,
      "accel_val": 2000,
      "base_duration_us": 1935479
    },
    {
      "id": "M_169",
      "pitch": 76,
      "t_note_us": 56128840,
      "t_trigger_us": 55992877,
      "is_ai": false,
      "track_id": 0,
      "velocity": 0,
      "is_motor": true,
      "motor_id": 3,
      "accel_val": 2000,
      "base_duration_us": 1935479
    },
    {
      "id": "M_170",
      "pitch": 67,
      "t_note_us": 56128840,
      "t_trigger_us": 55992877,
      "is_ai": false,
      "track_id": 0,
      "velocity": 0,
      "is_motor": true,
      "motor_id": 0,
      "accel_val": 2000,
      "base_duration_us": 1935479
    },
    {
      "id": "M_171",
      "pitch": 88,
      "t_note_us": 58064319,
      "t_trigger_us": 57928356,
      "is_ai": true,
      "track_id": 5,
      "velocity": 0,
      "is_motor": false,
      "motor_id": 0,
      "accel_val": 2000,
      "base_duration_us": 967739
    },
    {
      "id": "M_172",
      "pitch": 76,
      "t_note_us": 58064319,
      "t_trigger_us": 57928356,
      "is_ai": false,
      "track_id": 0,
      "velocity": 0,
      "is_motor": true,
      "motor_id": 2,
      "accel_val": 2000,
      "base_duration_us": 967739
    },
    {
      "id": "M_173",
      "pitch": 69,
      "t_note_us": 59032058,
      "t_trigger_us": 58896095,
      "is_ai": false,
      "track_id": 0,
      "velocity": 0,
      "is_motor": true,
      "motor_id": 1,
      "accel_val": 2000,
      "base_duration_us": 483869
    },
    {
      "id": "M_174",
      "pitch": 76,
      "t_note_us": 59515927,
      "t_trigger_us": 59379964,
      "is_ai": false,
      "track_id": 0,
      "velocity": 0,
      "is_motor": true,
      "motor_id": 2,
      "accel_val": 2000,
      "base_duration_us": 483869
    },
    {
      "id": "M_175",
      "pitch": 69,
      "t_note_us": 59999796,
      "t_trigger_us": 59863833,
      "is_ai": false,
      "track_id": 0,
      "velocity": 0,
      "is_motor": true,
      "motor_id": 1,
      "accel_val": 2000,
      "base_duration_us": 1451609
    },
    {
      "id": "M_176",
      "pitch": 76,
      "t_note_us": 59999796,
      "t_trigger_us": 59863833,
      "is_ai": false,
      "track_id": 0,
      "velocity": 0,
      "is_motor": true,
      "motor_id": 2,
      "accel_val": 2000,
      "base_duration_us": 1451609
    },
    {
      "id": "M_178",
      "pitch": 65,
      "t_note_us": 59999796,
      "t_trigger_us": 59863833,
      "is_ai": false,
      "track_id": 0,
      "velocity": 0,
      "is_motor": true,
      "motor_id": 0,
      "accel_val": 2000,
      "base_duration_us": 1935477
    },
    {
      "id": "M_179",
      "pitch": 72,
      "t_note_us": 59999796,
      "t_trigger_us": 59863833,
      "is_ai": false,
      "track_id": 0,
      "velocity": 0,
      "is_motor": true,
      "motor_id": 3,
      "accel_val": 2000,
      "base_duration_us": 1935477
    },
    {
      "id": "M_180",
      "pitch": 76,
      "t_note_us": 59999796,
      "t_trigger_us": 59863833,
      "is_ai": false,
      "track_id": 0,
      "velocity": 0,
      "is_motor": true,
      "motor_id": 0,
      "accel_val": 2000,
      "base_duration_us": 1935477
    },
    {
      "id": "M_177",
      "pitch": 88,
      "t_note_us": 61451405,
      "t_trigger_us": 61315442,
      "is_ai": true,
      "track_id": 5,
      "velocity": 0,
      "is_motor": false,
      "motor_id": 0,
      "accel_val": 2000,
      "base_duration_us": 241934
    },
    {
      "id": "M_181",
      "pitch": 91,
      "t_note_us": 61693339,
      "t_trigger_us": 61557376,
      "is_ai": true,
      "track_id": 7,
      "velocity": 0,
      "is_motor": false,
      "motor_id": 0,
      "accel_val": 2000,
      "base_duration_us": 1693543
    },
    {
      "id": "M_182",
      "pitch": 95,
      "t_note_us": 61693339,
      "t_trigger_us": 61557376,
      "is_ai": true,
      "track_id": 9,
      "velocity": 0,
      "is_motor": false,
      "motor_id": 0,
      "accel_val": 2000,
      "base_duration_us": 1706143
    },
    {
      "id": "M_184",
      "pitch": 67,
      "t_note_us": 61935273,
      "t_trigger_us": 61799310,
      "is_ai": false,
      "track_id": 0,
      "velocity": 0,
      "is_motor": true,
      "motor_id": 1,
      "accel_val": 2000,
      "base_duration_us": 1922877
    },
    {
      "id": "M_185",
      "pitch": 74,
      "t_note_us": 61935273,
      "t_trigger_us": 61799310,
      "is_ai": false,
      "track_id": 0,
      "velocity": 0,
      "is_motor": true,
      "motor_id": 0,
      "accel_val": 2000,
      "base_duration_us": 1935477
    },
    {
      "id": "M_183",
      "pitch": 96,
      "t_note_us": 63386882,
      "t_trigger_us": 63250919,
      "is_ai": true,
      "track_id": 10,
      "velocity": 0,
      "is_motor": false,
      "motor_id": 0,
      "accel_val": 2000,
      "base_duration_us": 241934
    },
    {
      "id": "M_186",
      "pitch": 88,
      "t_note_us": 63628816,
      "t_trigger_us": 63492853,
      "is_ai": true,
      "track_id": 5,
      "velocity": 0,
      "is_motor": false,
      "motor_id": 0,
      "accel_val": 2000,
      "base_duration_us": 1209673
    },
    {
      "id": "M_189",
      "pitch": 69,
      "t_note_us": 63870750,
      "t_trigger_us": 63734787,
      "is_ai": false,
      "track_id": 0,
      "velocity": 0,
      "is_motor": true,
      "motor_id": 1,
      "accel_val": 2000,
      "base_duration_us": 2903217
    },
    {
      "id": "M_190",
      "pitch": 76,
      "t_note_us": 63870750,
      "t_trigger_us": 63734787,
      "is_ai": false,
      "track_id": 0,
      "velocity": 0,
      "is_motor": true,
      "motor_id": 2,
      "accel_val": 2000,
      "base_duration_us": 2903217
    },
    {
      "id": "M_187",
      "pitch": 86,
      "t_note_us": 64838489,
      "t_trigger_us": 64702526,
      "is_ai": true,
      "track_id": 4,
      "velocity": 0,
      "is_motor": false,
      "motor_id": 0,
      "accel_val": 2000,
      "base_duration_us": 967739
    },
    {
      "id": "M_188",
      "pitch": 72,
      "t_note_us": 65806228,
      "t_trigger_us": 65670265,
      "is_ai": false,
      "track_id": 0,
      "velocity": 0,
      "is_motor": true,
      "motor_id": 0,
      "accel_val": 2000,
      "base_duration_us": 967739
    },
    {
      "id": "M_191",
      "pitch": 93,
      "t_note_us": 66773967,
      "t_trigger_us": 66638004,
      "is_ai": true,
      "track_id": 8,
      "velocity": 0,
      "is_motor": false,
      "motor_id": 0,
      "accel_val": 2000,
      "base_duration_us": 483869
    },
    {
      "id": "M_192",
      "pitch": 88,
      "t_note_us": 66773967,
      "t_trigger_us": 66638004,
      "is_ai": true,
      "track_id": 5,
      "velocity": 0,
      "is_motor": false,
      "motor_id": 0,
      "accel_val": 2000,
      "base_duration_us": 483869
    },
    {
      "id": "M_195",
      "pitch": 52,
      "t_note_us": 66773967,
      "t_trigger_us": 66638004,
      "is_ai": false,
      "track_id": 0,
      "velocity": 0,
      "is_motor": true,
      "motor_id": 0,
      "accel_val": 2000,
      "base_duration_us": 967738
    },
    {
      "id": "M_196",
      "pitch": 64,
      "t_note_us": 66773967,
      "t_trigger_us": 66638004,
      "is_ai": false,
      "track_id": 0,
      "velocity": 0,
      "is_motor": true,
      "motor_id": 1,
      "accel_val": 2000,
      "base_duration_us": 967738
    },
    {
      "id": "M_193",
      "pitch": 88,
      "t_note_us": 67257836,
      "t_trigger_us": 67121873,
      "is_ai": true,
      "track_id": 5,
      "velocity": 0,
      "is_motor": false,
      "motor_id": 0,
      "accel_val": 2000,
      "base_duration_us": 483869
    },
    {
      "id": "M_194",
      "pitch": 100,
      "t_note_us": 67257836,
      "t_trigger_us": 67121873,
      "is_ai": true,
      "track_id": 12,
      "velocity": 0,
      "is_motor": false,
      "motor_id": 0,
      "accel_val": 2000,
      "base_duration_us": 483869
    },
    {
      "id": "M_199",
      "pitch": 100,
      "t_note_us": 67741705,
      "t_trigger_us": 67605742,
      "is_ai": true,
      "track_id": 12,
      "velocity": 0,
      "is_motor": false,
      "motor_id": 0,
      "accel_val": 2000,
      "base_duration_us": 1451607
    },
    {
      "id": "M_197",
      "pitch": 53,
      "t_note_us": 67741705,
      "t_trigger_us": 67605742,
      "is_ai": false,
      "track_id": 0,
      "velocity": 0,
      "is_motor": true,
      "motor_id": 0,
      "accel_val": 2000,
      "base_duration_us": 483869
    },
    {
      "id": "M_200",
      "pitch": 76,
      "t_note_us": 67741705,
      "t_trigger_us": 67605742,
      "is_ai": false,
      "track_id": 0,
      "velocity": 0,
      "is_motor": true,
      "motor_id": 2,
      "accel_val": 2000,
      "base_duration_us": 1451607
    },
    {
      "id": "M_198",
      "pitch": 60,
      "t_note_us": 68225574,
      "t_trigger_us": 68089611,
      "is_ai": false,
      "track_id": 0,
      "velocity": 0,
      "is_motor": true,
      "motor_id": 1,
      "accel_val": 2000,
      "base_duration_us": 483869
    },
    {
      "id": "M_202",
      "pitch": 72,
      "t_note_us": 68709443,
      "t_trigger_us": 68573480,
      "is_ai": false,
      "track_id": 0,
      "velocity": 0,
      "is_motor": true,
      "motor_id": 1,
      "accel_val": 2000,
      "base_duration_us": 967737
    },
    {
      "id": "M_203",
      "pitch": 69,
      "t_note_us": 68709443,
      "t_trigger_us": 68573480,
      "is_ai": false,
      "track_id": 0,
      "velocity": 0,
      "is_motor": true,
      "motor_id": 0,
      "accel_val": 2000,
      "base_duration_us": 967737
    },
    {
      "id": "M_201",
      "pitch": 100,
      "t_note_us": 69193312,
      "t_trigger_us": 69057349,
      "is_ai": true,
      "track_id": 12,
      "velocity": 0,
      "is_motor": false,
      "motor_id": 0,
      "accel_val": 2000,
      "base_duration_us": 241934
    },
    {
      "id": "M_206",
      "pitch": 91,
      "t_note_us": 69435246,
      "t_trigger_us": 69299283,
      "is_ai": true,
      "track_id": 7,
      "velocity": 0,
      "is_motor": false,
      "motor_id": 0,
      "accel_val": 2000,
      "base_duration_us": 1693541
    },
    {
      "id": "M_207",
      "pitch": 95,
      "t_note_us": 69435246,
      "t_trigger_us": 69299283,
      "is_ai": true,
      "track_id": 9,
      "velocity": 0,
      "is_motor": false,
      "motor_id": 0,
      "accel_val": 2000,
      "base_duration_us": 1693541
    },
    {
      "id": "M_204",
      "pitch": 55,
      "t_note_us": 69677180,
      "t_trigger_us": 69541217,
      "is_ai": false,
      "track_id": 0,
      "velocity": 0,
      "is_motor": true,
      "motor_id": 0,
      "accel_val": 2000,
      "base_duration_us": 483869
    },
    {
      "id": "M_205",
      "pitch": 62,
      "t_note_us": 70161049,
      "t_trigger_us": 70025086,
      "is_ai": false,
      "track_id": 0,
      "velocity": 0,
      "is_motor": true,
      "motor_id": 1,
      "accel_val": 2000,
      "base_duration_us": 483869
    },
    {
      "id": "M_209",
      "pitch": 74,
      "t_note_us": 70644918,
      "t_trigger_us": 70508955,
      "is_ai": false,
      "track_id": 0,
      "velocity": 0,
      "is_motor": true,
      "motor_id": 1,
      "accel_val": 2000,
      "base_duration_us": 967737
    },
    {
      "id": "M_210",
      "pitch": 71,
      "t_note_us": 70644918,
      "t_trigger_us": 70508955,
      "is_ai": false,
      "track_id": 0,
      "velocity": 0,
      "is_motor": true,
      "motor_id": 2,
      "accel_val": 2000,
      "base_duration_us": 967737
    },
    {
      "id": "M_208",
      "pitch": 96,
      "t_note_us": 71128787,
      "t_trigger_us": 70992824,
      "is_ai": true,
      "track_id": 10,
      "velocity": 0,
      "is_motor": false,
      "motor_id": 0,
      "accel_val": 2000,
      "base_duration_us": 241934
    },
    {
      "id": "M_212",
      "pitch": 88,
      "t_note_us": 71370721,
      "t_trigger_us": 71234758,
      "is_ai": true,
      "track_id": 5,
      "velocity": 0,
      "is_motor": false,
      "motor_id": 0,
      "accel_val": 2000,
      "base_duration_us": 1209672
    },
    {
      "id": "M_213",
      "pitch": 91,
      "t_note_us": 71370721,
      "t_trigger_us": 71234758,
      "is_ai": true,
      "track_id": 7,
      "velocity": 0,
      "is_motor": false,
      "motor_id": 0,
      "accel_val": 2000,
      "base_duration_us": 1209672
    },
    {
      "id": "M_211",
      "pitch": 57,
      "t_note_us": 71612655,
      "t_trigger_us": 71476692,
      "is_ai": false,
      "track_id": 0,
      "velocity": 0,
      "is_motor": true,
      "motor_id": 0,
      "accel_val": 2000,
      "base_duration_us": 483869
    },
    {
      "id": "M_214",
      "pitch": 64,
      "t_note_us": 72096524,
      "t_trigger_us": 71960561,
      "is_ai": false,
      "track_id": 0,
      "velocity": 0,
      "is_motor": true,
      "motor_id": 1,
      "accel_val": 2000,
      "base_duration_us": 483869
    },
    {
      "id": "M_215",
      "pitch": 74,
      "t_note_us": 72580393,
      "t_trigger_us": 72444430,
      "is_ai": false,
      "track_id": 0,
      "velocity": 0,
      "is_motor": true,
      "motor_id": 1,
      "accel_val": 2000,
      "base_duration_us": 483869
    },
    {
      "id": "M_217",
      "pitch": 74,
      "t_note_us": 72580393,
      "t_trigger_us": 72444430,
      "is_ai": false,
      "track_id": 0,
      "velocity": 0,
      "is_motor": true,
      "motor_id": 0,
      "accel_val": 2000,
      "base_duration_us": 1935477
    },
    {
      "id": "M_218",
      "pitch": 69,
      "t_note_us": 72580393,
      "t_trigger_us": 72444430,
      "is_ai": false,
      "track_id": 0,
      "velocity": 0,
      "is_motor": true,
      "motor_id": 2,
      "accel_val": 2000,
      "base_duration_us": 1935477
    },
    {
      "id": "M_216",
      "pitch": 64,
      "t_note_us": 73064262,
      "t_trigger_us": 72928299,
      "is_ai": false,
      "track_id": 0,
      "velocity": 0,
      "is_motor": true,
      "motor_id": 1,
      "accel_val": 2000,
      "base_duration_us": 483869
    },
    {
      "id": "M_221",
      "pitch": 72,
      "t_note_us": 73548131,
      "t_trigger_us": 73412168,
      "is_ai": false,
      "track_id": 0,
      "velocity": 0,
      "is_motor": true,
      "motor_id": 1,
      "accel_val": 2000,
      "base_duration_us": 1935476
    },
    {
      "id": "M_222",
      "pitch": 69,
      "t_note_us": 73548131,
      "t_trigger_us": 73412168,
      "is_ai": false,
      "track_id": 0,
      "velocity": 0,
      "is_motor": true,
      "motor_id": 3,
      "accel_val": 2000,
      "base_duration_us": 1935476
    },
    {
      "id": "M_219",
      "pitch": 91,
      "t_note_us": 74515870,
      "t_trigger_us": 74379907,
      "is_ai": true,
      "track_id": 7,
      "velocity": 0,
      "is_motor": false,
      "motor_id": 0,
      "accel_val": 2000,
      "base_duration_us": 483869
    },
    {
      "id": "M_220",
      "pitch": 88,
      "t_note_us": 74999739,
      "t_trigger_us": 74863776,
      "is_ai": true,
      "track_id": 5,
      "velocity": 0,
      "is_motor": false,
      "motor_id": 0,
      "accel_val": 2000,
      "base_duration_us": 241934
    },
    {
      "id": "M_226",
      "pitch": 91,
      "t_note_us": 75241673,
      "t_trigger_us": 75105710,
      "is_ai": true,
      "track_id": 7,
      "velocity": 0,
      "is_motor": false,
      "motor_id": 0,
      "accel_val": 2000,
      "base_duration_us": 2177411
    },
    {
      "id": "M_225",
      "pitch": 72,
      "t_note_us": 75241673,
      "t_trigger_us": 75105710,
      "is_ai": false,
      "track_id": 0,
      "velocity": 0,
      "is_motor": true,
      "motor_id": 0,
      "accel_val": 2000,
      "base_duration_us": 2177411
    },
    {
      "id": "M_223",
      "pitch": 53,
      "t_note_us": 75483607,
      "t_trigger_us": 75347644,
      "is_ai": false,
      "track_id": 0,
      "velocity": 0,
      "is_motor": true,
      "motor_id": 1,
      "accel_val": 2000,
      "base_duration_us": 483869
    },
    {
      "id": "M_224",
      "pitch": 60,
      "t_note_us": 75967476,
      "t_trigger_us": 75831513,
      "is_ai": false,
      "track_id": 0,
      "velocity": 0,
      "is_motor": true,
      "motor_id": 1,
      "accel_val": 2000,
      "base_duration_us": 483869
    },
    {
      "id": "M_227",
      "pitch": 72,
      "t_note_us": 76451345,
      "t_trigger_us": 76315382,
      "is_ai": false,
      "track_id": 0,
      "velocity": 0,
      "is_motor": true,
      "motor_id": 1,
      "accel_val": 2000,
      "base_duration_us": 967739
    },
    {
      "id": "M_228",
      "pitch": 69,
      "t_note_us": 76451345,
      "t_trigger_us": 76315382,
      "is_ai": false,
      "track_id": 0,
      "velocity": 0,
      "is_motor": true,
      "motor_id": 2,
      "accel_val": 2000,
      "base_duration_us": 967739
    },
    {
      "id": "M_229",
      "pitch": 55,
      "t_note_us": 77419084,
      "t_trigger_us": 77283121,
      "is_ai": false,
      "track_id": 0,
      "velocity": 0,
      "is_motor": true,
      "motor_id": 0,
      "accel_val": 2000,
      "base_duration_us": 483869
    },
    {
      "id": "M_230",
      "pitch": 74,
      "t_note_us": 77419084,
      "t_trigger_us": 77283121,
      "is_ai": false,
      "track_id": 0,
      "velocity": 0,
      "is_motor": true,
      "motor_id": 1,
      "accel_val": 2000,
      "base_duration_us": 967738
    },
    {
      "id": "M_231",
      "pitch": 71,
      "t_note_us": 77419084,
      "t_trigger_us": 77283121,
      "is_ai": false,
      "track_id": 0,
      "velocity": 0,
      "is_motor": true,
      "motor_id": 2,
      "accel_val": 2000,
      "base_duration_us": 967738
    },
    {
      "id": "M_232",
      "pitch": 62,
      "t_note_us": 77902953,
      "t_trigger_us": 77766990,
      "is_ai": false,
      "track_id": 0,
      "velocity": 0,
      "is_motor": true,
      "motor_id": 0,
      "accel_val": 2000,
      "base_duration_us": 483869
    },
    {
      "id": "M_233",
      "pitch": 91,
      "t_note_us": 78386822,
      "t_trigger_us": 78250859,
      "is_ai": true,
      "track_id": 7,
      "velocity": 0,
      "is_motor": false,
      "motor_id": 0,
      "accel_val": 2000,
      "base_duration_us": 483869
    },
    {
      "id": "M_234",
      "pitch": 98,
      "t_note_us": 78386822,
      "t_trigger_us": 78250859,
      "is_ai": true,
      "track_id": 11,
      "velocity": 0,
      "is_motor": false,
      "motor_id": 0,
      "accel_val": 2000,
      "base_duration_us": 483869
    },
    {
      "id": "M_236",
      "pitch": 67,
      "t_note_us": 78386822,
      "t_trigger_us": 78250859,
      "is_ai": false,
      "track_id": 0,
      "velocity": 0,
      "is_motor": true,
      "motor_id": 1,
      "accel_val": 2000,
      "base_duration_us": 967737
    },
    {
      "id": "M_237",
      "pitch": 71,
      "t_note_us": 78386822,
      "t_trigger_us": 78250859,
      "is_ai": false,
      "track_id": 0,
      "velocity": 0,
      "is_motor": true,
      "motor_id": 2,
      "accel_val": 2000,
      "base_duration_us": 967737
    },
    {
      "id": "M_235",
      "pitch": 96,
      "t_note_us": 78870691,
      "t_trigger_us": 78734728,
      "is_ai": true,
      "track_id": 10,
      "velocity": 0,
      "is_motor": false,
      "motor_id": 0,
      "accel_val": 2000,
      "base_duration_us": 241934
    },
    {
      "id": "M_240",
      "pitch": 98,
      "t_note_us": 79112625,
      "t_trigger_us": 78976662,
      "is_ai": true,
      "track_id": 11,
      "velocity": 0,
      "is_motor": false,
      "motor_id": 0,
      "accel_val": 2000,
      "base_duration_us": 1693541
    },
    {
      "id": "M_241",
      "pitch": 76,
      "t_note_us": 79112625,
      "t_trigger_us": 78976662,
      "is_ai": false,
      "track_id": 0,
      "velocity": 0,
      "is_motor": true,
      "motor_id": 3,
      "accel_val": 2000,
      "base_duration_us": 1693541
    },
    {
      "id": "M_238",
      "pitch": 57,
      "t_note_us": 79354559,
      "t_trigger_us": 79218596,
      "is_ai": false,
      "track_id": 0,
      "velocity": 0,
      "is_motor": true,
      "motor_id": 0,
      "accel_val": 2000,
      "base_duration_us": 483869
    },
    {
      "id": "M_239",
      "pitch": 64,
      "t_note_us": 79838428,
      "t_trigger_us": 79702465,
      "is_ai": false,
      "track_id": 0,
      "velocity": 0,
      "is_motor": true,
      "motor_id": 1,
      "accel_val": 2000,
      "base_duration_us": 483869
    },
    {
      "id": "M_242",
      "pitch": 72,
      "t_note_us": 80322297,
      "t_trigger_us": 80186334,
      "is_ai": false,
      "track_id": 0,
      "velocity": 0,
      "is_motor": true,
      "motor_id": 1,
      "accel_val": 2000,
      "base_duration_us": 483869
    },
    {
      "id": "M_243",
      "pitch": 96,
      "t_note_us": 80806166,
      "t_trigger_us": 80670203,
      "is_ai": true,
      "track_id": 10,
      "velocity": 0,
      "is_motor": false,
      "motor_id": 0,
      "accel_val": 2000,
      "base_duration_us": 241934
    },
    {
      "id": "M_244",
      "pitch": 64,
      "t_note_us": 80806166,
      "t_trigger_us": 80670203,
      "is_ai": false,
      "track_id": 0,
      "velocity": 0,
      "is_motor": true,
      "motor_id": 1,
      "accel_val": 2000,
      "base_duration_us": 483868
    },
    {
      "id": "M_245",
      "pitch": 93,
      "t_note_us": 81048100,
      "t_trigger_us": 80912137,
      "is_ai": true,
      "track_id": 8,
      "velocity": 0,
      "is_motor": false,
      "motor_id": 0,
      "accel_val": 2000,
      "base_duration_us": 2177413
    },
    {
      "id": "M_246",
      "pitch": 69,
      "t_note_us": 81290034,
      "t_trigger_us": 81154071,
      "is_ai": false,
      "track_id": 0,
      "velocity": 0,
      "is_motor": true,
      "motor_id": 1,
      "accel_val": 2000,
      "base_duration_us": 1935479
    },
    {
      "id": "M_248",
      "pitch": 88,
      "t_note_us": 83225513,
      "t_trigger_us": 83089550,
      "is_ai": true,
      "track_id": 5,
      "velocity": 0,
      "is_motor": false,
      "motor_id": 0,
      "accel_val": 2000,
      "base_duration_us": 967739
    },
    {
      "id": "M_247",
      "pitch": 71,
      "t_note_us": 83225513,
      "t_trigger_us": 83089550,
      "is_ai": false,
      "track_id": 0,
      "velocity": 0,
      "is_motor": true,
      "motor_id": 1,
      "accel_val": 2000,
      "base_duration_us": 967739
    },
    {
      "id": "M_249",
      "pitch": 69,
      "t_note_us": 83225513,
      "t_trigger_us": 83089550,
      "is_ai": false,
      "track_id": 0,
      "velocity": 0,
      "is_motor": true,
      "motor_id": 2,
      "accel_val": 2000,
      "base_duration_us": 967739
    },
    {
      "id": "M_250",
      "pitch": 69,
      "t_note_us": 83225513,
      "t_trigger_us": 83089550,
      "is_ai": false,
      "track_id": 0,
      "velocity": 0,
      "is_motor": true,
      "motor_id": 0,
      "accel_val": 2000,
      "base_duration_us": 967739
    },
    {
      "id": "M_251",
      "pitch": 57,
      "t_note_us": 83225513,
      "t_trigger_us": 83089550,
      "is_ai": false,
      "track_id": 0,
      "velocity": 0,
      "is_motor": true,
      "motor_id": 3,
      "accel_val": 2000,
      "base_duration_us": 967739
    },
    {
      "id": "M_252",
      "pitch": 71,
      "t_note_us": 84193252,
      "t_trigger_us": 84057289,
      "is_ai": false,
      "track_id": 0,
      "velocity": 0,
      "is_motor": true,
      "motor_id": 1,
      "accel_val": 2000,
      "base_duration_us": 1935479
    },
    {
      "id": "M_253",
      "pitch": 76,
      "t_note_us": 84193252,
      "t_trigger_us": 84057289,
      "is_ai": false,
      "track_id": 0,
      "velocity": 0,
      "is_motor": true,
      "motor_id": 2,
      "accel_val": 2000,
      "base_duration_us": 1935479
    },
    {
      "id": "M_254",
      "pitch": 69,
      "t_note_us": 84193252,
      "t_trigger_us": 84057289,
      "is_ai": false,
      "track_id": 0,
      "velocity": 0,
      "is_motor": true,
      "motor_id": 0,
      "accel_val": 2000,
      "base_duration_us": 1935479
    },
    {
      "id": "M_255",
      "pitch": 53,
      "t_note_us": 84193252,
      "t_trigger_us": 84057289,
      "is_ai": false,
      "track_id": 0,
      "velocity": 0,
      "is_motor": true,
      "motor_id": 3,
      "accel_val": 2000,
      "base_duration_us": 1935479
    },
    {
      "id": "M_256",
      "pitch": 65,
      "t_note_us": 84193252,
      "t_trigger_us": 84057289,
      "is_ai": false,
      "track_id": 0,
      "velocity": 0,
      "is_motor": true,
      "motor_id": 0,
      "accel_val": 2000,
      "base_duration_us": 1935479
    },
    {
      "id": "M_258",
      "pitch": 91,
      "t_note_us": 86128731,
      "t_trigger_us": 85992768,
      "is_ai": true,
      "track_id": 7,
      "velocity": 0,
      "is_motor": false,
      "motor_id": 0,
      "accel_val": 2000,
      "base_duration_us": 967739
    },
    {
      "id": "M_257",
      "pitch": 69,
      "t_note_us": 86128731,
      "t_trigger_us": 85992768,
      "is_ai": false,
      "track_id": 0,
      "velocity": 0,
      "is_motor": true,
      "motor_id": 1,
      "accel_val": 2000,
      "base_duration_us": 967739
    },
    {
      "id": "M_259",
      "pitch": 72,
      "t_note_us": 86128731,
      "t_trigger_us": 85992768,
      "is_ai": false,
      "track_id": 0,
      "velocity": 0,
      "is_motor": true,
      "motor_id": 0,
      "accel_val": 2000,
      "base_duration_us": 967739
    },
    {
      "id": "M_260",
      "pitch": 62,
      "t_note_us": 86128731,
      "t_trigger_us": 85992768,
      "is_ai": false,
      "track_id": 0,
      "velocity": 0,
      "is_motor": true,
      "motor_id": 2,
      "accel_val": 2000,
      "base_duration_us": 967739
    },
    {
      "id": "M_262",
      "pitch": 88,
      "t_note_us": 87096470,
      "t_trigger_us": 86960507,
      "is_ai": true,
      "track_id": 5,
      "velocity": 0,
      "is_motor": false,
      "motor_id": 0,
      "accel_val": 2000,
      "base_duration_us": 483869
    },
    {
      "id": "M_261",
      "pitch": 71,
      "t_note_us": 87096470,
      "t_trigger_us": 86960507,
      "is_ai": false,
      "track_id": 0,
      "velocity": 0,
      "is_motor": true,
      "motor_id": 1,
      "accel_val": 2000,
      "base_duration_us": 483869
    },
    {
      "id": "M_266",
      "pitch": 67,
      "t_note_us": 87096470,
      "t_trigger_us": 86960507,
      "is_ai": false,
      "track_id": 0,
      "velocity": 0,
      "is_motor": true,
      "motor_id": 2,
      "accel_val": 2000,
      "base_duration_us": 1451606
    },
    {
      "id": "M_278",
      "pitch": 60,
      "t_note_us": 87096470,
      "t_trigger_us": 86960507,
      "is_ai": false,
      "track_id": 0,
      "velocity": 0,
      "is_motor": true,
      "motor_id": 0,
      "accel_val": 2000,
      "base_duration_us": 3870947
    },
    {
      "id": "M_263",
      "pitch": 95,
      "t_note_us": 87580339,
      "t_trigger_us": 87444376,
      "is_ai": true,
      "track_id": 9,
      "velocity": 0,
      "is_motor": false,
      "motor_id": 0,
      "accel_val": 2000,
      "base_duration_us": 241934
    },
    {
      "id": "M_264",
      "pitch": 96,
      "t_note_us": 87822273,
      "t_trigger_us": 87686310,
      "is_ai": true,
      "track_id": 10,
      "velocity": 0,
      "is_motor": false,
      "motor_id": 0,
      "accel_val": 2000,
      "base_duration_us": 483869
    },
    {
      "id": "M_265",
      "pitch": 88,
      "t_note_us": 88306142,
      "t_trigger_us": 88170179,
      "is_ai": true,
      "track_id": 5,
      "velocity": 0,
      "is_motor": false,
      "motor_id": 0,
      "accel_val": 2000,
      "base_duration_us": 241934
    },
    {
      "id": "M_267",
      "pitch": 95,
      "t_note_us": 88548076,
      "t_trigger_us": 88412113,
      "is_ai": true,
      "track_id": 9,
      "velocity": 0,
      "is_motor": false,
      "motor_id": 0,
      "accel_val": 2000,
      "base_duration_us": 241934
    },
    {
      "id": "M_268",
      "pitch": 72,
      "t_note_us": 88548076,
      "t_trigger_us": 88412113,
      "is_ai": false,
      "track_id": 0,
      "velocity": 0,
      "is_motor": true,
      "motor_id": 1,
      "accel_val": 2000,
      "base_duration_us": 241934
    },
    {
      "id": "M_270",
      "pitch": 96,
      "t_note_us": 88790010,
      "t_trigger_us": 88654047,
      "is_ai": true,
      "track_id": 10,
      "velocity": 0,
      "is_motor": false,
      "motor_id": 0,
      "accel_val": 2000,
      "base_duration_us": 483868
    },
    {
      "id": "M_269",
      "pitch": 71,
      "t_note_us": 88790010,
      "t_trigger_us": 88654047,
      "is_ai": false,
      "track_id": 0,
      "velocity": 0,
      "is_motor": true,
      "motor_id": 1,
      "accel_val": 2000,
      "base_duration_us": 241934
    },
    {
      "id": "M_275",
      "pitch": 72,
      "t_note_us": 89031944,
      "t_trigger_us": 88895981,
      "is_ai": false,
      "track_id": 0,
      "velocity": 0,
      "is_motor": true,
      "motor_id": 1,
      "accel_val": 2000,
      "base_duration_us": 1451605
    },
    {
      "id": "M_271",
      "pitch": 76,
      "t_note_us": 89273878,
      "t_trigger_us": 89137915,
      "is_ai": false,
      "track_id": 0,
      "velocity": 0,
      "is_motor": true,
      "motor_id": 2,
      "accel_val": 2000,
      "base_duration_us": 241934
    },
    {
      "id": "M_272",
      "pitch": 95,
      "t_note_us": 89515812,
      "t_trigger_us": 89379849,
      "is_ai": true,
      "track_id": 9,
      "velocity": 0,
      "is_motor": false,
      "motor_id": 0,
      "accel_val": 2000,
      "base_duration_us": 241934
    },
    {
      "id": "M_273",
      "pitch": 96,
      "t_note_us": 89757746,
      "t_trigger_us": 89621783,
      "is_ai": true,
      "track_id": 10,
      "velocity": 0,
      "is_motor": false,
      "motor_id": 0,
      "accel_val": 2000,
      "base_duration_us": 483869
    },
    {
      "id": "M_274",
      "pitch": 88,
      "t_note_us": 90241615,
      "t_trigger_us": 90105652,
      "is_ai": true,
      "track_id": 5,
      "velocity": 0,
      "is_motor": false,
      "motor_id": 0,
      "accel_val": 2000,
      "base_duration_us": 241934
    },
    {
      "id": "M_276",
      "pitch": 95,
      "t_note_us": 90483549,
      "t_trigger_us": 90347586,
      "is_ai": true,
      "track_id": 9,
      "velocity": 0,
      "is_motor": false,
      "motor_id": 0,
      "accel_val": 2000,
      "base_duration_us": 241934
    },
    {
      "id": "M_277",
      "pitch": 96,
      "t_note_us": 90725483,
      "t_trigger_us": 90589520,
      "is_ai": true,
      "track_id": 10,
      "velocity": 0,
      "is_motor": false,
      "motor_id": 0,
      "accel_val": 2000,
      "base_duration_us": 241934
    },
    {
      "id": "M_279",
      "pitch": 93,
      "t_note_us": 90967417,
      "t_trigger_us": 90831454,
      "is_ai": true,
      "track_id": 8,
      "velocity": 0,
      "is_motor": false,
      "motor_id": 0,
      "accel_val": 2000,
      "base_duration_us": 483869
    },
    {
      "id": "M_280",
      "pitch": 86,
      "t_note_us": 90967417,
      "t_trigger_us": 90831454,
      "is_ai": true,
      "track_id": 4,
      "velocity": 0,
      "is_motor": false,
      "motor_id": 0,
      "accel_val": 2000,
      "base_duration_us": 483869
    },
    {
      "id": "M_281",
      "pitch": 88,
      "t_note_us": 90967417,
      "t_trigger_us": 90831454,
      "is_ai": true,
      "track_id": 5,
      "velocity": 0,
      "is_motor": false,
      "motor_id": 0,
      "accel_val": 2000,
      "base_duration_us": 483869
    },
    {
      "id": "M_286",
      "pitch": 70,
      "t_note_us": 90967417,
      "t_trigger_us": 90831454,
      "is_ai": false,
      "track_id": 0,
      "velocity": 0,
      "is_motor": true,
      "motor_id": 1,
      "accel_val": 2000,
      "base_duration_us": 1935474
    },
    {
      "id": "M_298",
      "pitch": 58,
      "t_note_us": 90967417,
      "t_trigger_us": 90831454,
      "is_ai": false,
      "track_id": 0,
      "velocity": 0,
      "is_motor": true,
      "motor_id": 0,
      "accel_val": 2000,
      "base_duration_us": 3870946
    },
    {
      "id": "M_282",
      "pitch": 93,
      "t_note_us": 91451286,
      "t_trigger_us": 91315323,
      "is_ai": true,
      "track_id": 8,
      "velocity": 0,
      "is_motor": false,
      "motor_id": 0,
      "accel_val": 2000,
      "base_duration_us": 241934
    },
    {
      "id": "M_283",
      "pitch": 94,
      "t_note_us": 91693220,
      "t_trigger_us": 91557257,
      "is_ai": true,
      "track_id": 0,
      "velocity": 0,
      "is_motor": true,
      "motor_id": 3,
      "accel_val": 2000,
      "base_duration_us": 483869
    },
    {
      "id": "M_284",
      "pitch": 88,
      "t_note_us": 92177089,
      "t_trigger_us": 92041126,
      "is_ai": true,
      "track_id": 5,
      "velocity": 0,
      "is_motor": false,
      "motor_id": 0,
      "accel_val": 2000,
      "base_duration_us": 241934
    },
    {
      "id": "M_285",
      "pitch": 93,
      "t_note_us": 92419023,
      "t_trigger_us": 92283060,
      "is_ai": true,
      "track_id": 8,
      "velocity": 0,
      "is_motor": false,
      "motor_id": 0,
      "accel_val": 2000,
      "base_duration_us": 241934
    },
    {
      "id": "M_287",
      "pitch": 94,
      "t_note_us": 92660957,
      "t_trigger_us": 92524994,
      "is_ai": true,
      "track_id": 0,
      "velocity": 0,
      "is_motor": true,
      "motor_id": 3,
      "accel_val": 2000,
      "base_duration_us": 483868
    },
    {
      "id": "M_289",
      "pitch": 69,
      "t_note_us": 92902891,
      "t_trigger_us": 92766928,
      "is_ai": false,
      "track_id": 0,
      "velocity": 0,
      "is_motor": true,
      "motor_id": 1,
      "accel_val": 2000,
      "base_duration_us": 483868
    },
    {
      "id": "M_288",
      "pitch": 76,
      "t_note_us": 93144825,
      "t_trigger_us": 93008862,
      "is_ai": false,
      "track_id": 0,
      "velocity": 0,
      "is_motor": true,
      "motor_id": 2,
      "accel_val": 2000,
      "base_duration_us": 241934
    },
    {
      "id": "M_290",
      "pitch": 93,
      "t_note_us": 93386759,
      "t_trigger_us": 93250796,
      "is_ai": true,
      "track_id": 8,
      "velocity": 0,
      "is_motor": false,
      "motor_id": 0,
      "accel_val": 2000,
      "base_duration_us": 241934
    },
    {
      "id": "M_291",
      "pitch": 70,
      "t_note_us": 93386759,
      "t_trigger_us": 93250796,
      "is_ai": false,
      "track_id": 0,
      "velocity": 0,
      "is_motor": true,
      "motor_id": 1,
      "accel_val": 2000,
      "base_duration_us": 483868
    },
    {
      "id": "M_292",
      "pitch": 94,
      "t_note_us": 93628693,
      "t_trigger_us": 93492730,
      "is_ai": true,
      "track_id": 0,
      "velocity": 0,
      "is_motor": true,
      "motor_id": 3,
      "accel_val": 2000,
      "base_duration_us": 483868
    },
    {
      "id": "M_294",
      "pitch": 69,
      "t_note_us": 93870627,
      "t_trigger_us": 93734664,
      "is_ai": false,
      "track_id": 0,
      "velocity": 0,
      "is_motor": true,
      "motor_id": 1,
      "accel_val": 2000,
      "base_duration_us": 483868
    },
    {
      "id": "M_293",
      "pitch": 88,
      "t_note_us": 94112561,
      "t_trigger_us": 93976598,
      "is_ai": true,
      "track_id": 5,
      "velocity": 0,
      "is_motor": false,
      "motor_id": 0,
      "accel_val": 2000,
      "base_duration_us": 241934
    },
    {
      "id": "M_295",
      "pitch": 93,
      "t_note_us": 94354495,
      "t_trigger_us": 94218532,
      "is_ai": true,
      "track_id": 8,
      "velocity": 0,
      "is_motor": false,
      "motor_id": 0,
      "accel_val": 2000,
      "base_duration_us": 241934
    },
    {
      "id": "M_297",
      "pitch": 67,
      "t_note_us": 94354495,
      "t_trigger_us": 94218532,
      "is_ai": false,
      "track_id": 0,
      "velocity": 0,
      "is_motor": true,
      "motor_id": 1,
      "accel_val": 2000,
      "base_duration_us": 483868
    },
    {
      "id": "M_296",
      "pitch": 94,
      "t_note_us": 94596429,
      "t_trigger_us": 94460466,
      "is_ai": true,
      "track_id": 0,
      "velocity": 0,
      "is_motor": true,
      "motor_id": 3,
      "accel_val": 2000,
      "base_duration_us": 241934
    },
    {
      "id": "M_299",
      "pitch": 84,
      "t_note_us": 94838363,
      "t_trigger_us": 94702400,
      "is_ai": true,
      "track_id": 3,
      "velocity": 0,
      "is_motor": false,
      "motor_id": 0,
      "accel_val": 2000,
      "base_duration_us": 483869
    },
    {
      "id": "M_300",
      "pitch": 93,
      "t_note_us": 94838363,
      "t_trigger_us": 94702400,
      "is_ai": true,
      "track_id": 8,
      "velocity": 0,
      "is_motor": false,
      "motor_id": 0,
      "accel_val": 2000,
      "base_duration_us": 483869
    },
    {
      "id": "M_304",
      "pitch": 69,
      "t_note_us": 94838363,
      "t_trigger_us": 94702400,
      "is_ai": false,
      "track_id": 0,
      "velocity": 0,
      "is_motor": true,
      "motor_id": 1,
      "accel_val": 2000,
      "base_duration_us": 1935475
    },
    {
      "id": "M_314",
      "pitch": 57,
      "t_note_us": 94838363,
      "t_trigger_us": 94702400,
      "is_ai": false,
      "track_id": 0,
      "velocity": 0,
      "is_motor": true,
      "motor_id": 0,
      "accel_val": 2000,
      "base_duration_us": 3870947
    },
    {
      "id": "M_301",
      "pitch": 71,
      "t_note_us": 95322232,
      "t_trigger_us": 95186269,
      "is_ai": false,
      "track_id": 0,
      "velocity": 0,
      "is_motor": true,
      "motor_id": 2,
      "accel_val": 2000,
      "base_duration_us": 241934
    },
    {
      "id": "M_302",
      "pitch": 76,
      "t_note_us": 95564166,
      "t_trigger_us": 95428203,
      "is_ai": false,
      "track_id": 0,
      "velocity": 0,
      "is_motor": true,
      "motor_id": 2,
      "accel_val": 2000,
      "base_duration_us": 725804
    },
    {
      "id": "M_303",
      "pitch": 86,
      "t_note_us": 96289970,
      "t_trigger_us": 96154007,
      "is_ai": true,
      "track_id": 4,
      "velocity": 0,
      "is_motor": false,
      "motor_id": 0,
      "accel_val": 2000,
      "base_duration_us": 241934
    },
    {
      "id": "M_305",
      "pitch": 84,
      "t_note_us": 96531904,
      "t_trigger_us": 96395941,
      "is_ai": true,
      "track_id": 3,
      "velocity": 0,
      "is_motor": false,
      "motor_id": 0,
      "accel_val": 2000,
      "base_duration_us": 483868
    },
    {
      "id": "M_308",
      "pitch": 69,
      "t_note_us": 96773838,
      "t_trigger_us": 96637875,
      "is_ai": false,
      "track_id": 0,
      "velocity": 0,
      "is_motor": true,
      "motor_id": 1,
      "accel_val": 2000,
      "base_duration_us": 967736
    },
    {
      "id": "M_306",
      "pitch": 76,
      "t_note_us": 97015772,
      "t_trigger_us": 96879809,
      "is_ai": false,
      "track_id": 0,
      "velocity": 0,
      "is_motor": true,
      "motor_id": 2,
      "accel_val": 2000,
      "base_duration_us": 241934
    },
    {
      "id": "M_307",
      "pitch": 69,
      "t_note_us": 97257706,
      "t_trigger_us": 97121743,
      "is_ai": false,
      "track_id": 0,
      "velocity": 0,
      "is_motor": true,
      "motor_id": 2,
      "accel_val": 2000,
      "base_duration_us": 241934
    },
    {
      "id": "M_309",
      "pitch": 71,
      "t_note_us": 97499640,
      "t_trigger_us": 97363677,
      "is_ai": false,
      "track_id": 0,
      "velocity": 0,
      "is_motor": true,
      "motor_id": 2,
      "accel_val": 2000,
      "base_duration_us": 483868
    },
    {
      "id": "M_313",
      "pitch": 69,
      "t_note_us": 97741574,
      "t_trigger_us": 97605611,
      "is_ai": false,
      "track_id": 0,
      "velocity": 0,
      "is_motor": true,
      "motor_id": 1,
      "accel_val": 2000,
      "base_duration_us": 967736
    },
    {
      "id": "M_310",
      "pitch": 76,
      "t_note_us": 97983508,
      "t_trigger_us": 97847545,
      "is_ai": false,
      "track_id": 0,
      "velocity": 0,
      "is_motor": true,
      "motor_id": 2,
      "accel_val": 2000,
      "base_duration_us": 241934
    },
    {
      "id": "M_311",
      "pitch": 69,
      "t_note_us": 98225442,
      "t_trigger_us": 98089479,
      "is_ai": false,
      "track_id": 0,
      "velocity": 0,
      "is_motor": true,
      "motor_id": 2,
      "accel_val": 2000,
      "base_duration_us": 241934
    },
    {
      "id": "M_312",
      "pitch": 72,
      "t_note_us": 98467376,
      "t_trigger_us": 98331413,
      "is_ai": false,
      "track_id": 0,
      "velocity": 0,
      "is_motor": true,
      "motor_id": 2,
      "accel_val": 2000,
      "base_duration_us": 241934
    },
    {
      "id": "M_315",
      "pitch": 76,
      "t_note_us": 98709310,
      "t_trigger_us": 98573347,
      "is_ai": false,
      "track_id": 0,
      "velocity": 0,
      "is_motor": true,
      "motor_id": 2,
      "accel_val": 2000,
      "base_duration_us": 483869
    },
    {
      "id": "M_316",
      "pitch": 69,
      "t_note_us": 98709310,
      "t_trigger_us": 98573347,
      "is_ai": false,
      "track_id": 0,
      "velocity": 0,
      "is_motor": true,
      "motor_id": 1,
      "accel_val": 2000,
      "base_duration_us": 483869
    },
    {
      "id": "M_318",
      "pitch": 69,
      "t_note_us": 98709310,
      "t_trigger_us": 98573347,
      "is_ai": false,
      "track_id": 0,
      "velocity": 0,
      "is_motor": true,
      "motor_id": 0,
      "accel_val": 2000,
      "base_duration_us": 967738
    },
    {
      "id": "M_319",
      "pitch": 72,
      "t_note_us": 98709310,
      "t_trigger_us": 98573347,
      "is_ai": false,
      "track_id": 0,
      "velocity": 0,
      "is_motor": true,
      "motor_id": 3,
      "accel_val": 2000,
      "base_duration_us": 967738
    },
    {
      "id": "M_320",
      "pitch": 62,
      "t_note_us": 98709310,
      "t_trigger_us": 98573347,
      "is_ai": false,
      "track_id": 0,
      "velocity": 0,
      "is_motor": true,
      "motor_id": 0,
      "accel_val": 2000,
      "base_duration_us": 967738
    },
    {
      "id": "M_317",
      "pitch": 71,
      "t_note_us": 99193179,
      "t_trigger_us": 99057216,
      "is_ai": false,
      "track_id": 0,
      "velocity": 0,
      "is_motor": true,
      "motor_id": 1,
      "accel_val": 2000,
      "base_duration_us": 459928
    },
    {
      "id": "M_321",
      "pitch": 72,
      "t_note_us": 99677048,
      "t_trigger_us": 99541085,
      "is_ai": false,
      "track_id": 0,
      "velocity": 0,
      "is_motor": true,
      "motor_id": 1,
      "accel_val": 2000,
      "base_duration_us": 483869
    },
    {
      "id": "M_322",
      "pitch": 64,
      "t_note_us": 99677048,
      "t_trigger_us": 99541085,
      "is_ai": false,
      "track_id": 0,
      "velocity": 0,
      "is_motor": true,
      "motor_id": 0,
      "accel_val": 2000,
      "base_duration_us": 483869
    },
    {
      "id": "M_323",
      "pitch": 69,
      "t_note_us": 99677048,
      "t_trigger_us": 99541085,
      "is_ai": false,
      "track_id": 0,
      "velocity": 0,
      "is_motor": true,
      "motor_id": 2,
      "accel_val": 2000,
      "base_duration_us": 725803
    },
    {
      "id": "M_325",
      "pitch": 72,
      "t_note_us": 99677048,
      "t_trigger_us": 99541085,
      "is_ai": false,
      "track_id": 0,
      "velocity": 0,
      "is_motor": true,
      "motor_id": 3,
      "accel_val": 2000,
      "base_duration_us": 967737
    },
    {
      "id": "M_324",
      "pitch": 76,
      "t_note_us": 100160917,
      "t_trigger_us": 100024954,
      "is_ai": false,
      "track_id": 0,
      "velocity": 0,
      "is_motor": true,
      "motor_id": 1,
      "accel_val": 2000,
      "base_duration_us": 241934
    },
    {
      "id": "M_326",
      "pitch": 69,
      "t_note_us": 100402851,
      "t_trigger_us": 100266888,
      "is_ai": false,
      "track_id": 0,
      "velocity": 0,
      "is_motor": true,
      "motor_id": 1,
      "accel_val": 2000,
      "base_duration_us": 241934
    },
    {
      "id": "M_328",
      "pitch": 100,
      "t_note_us": 100644785,
      "t_trigger_us": 100508822,
      "is_ai": true,
      "track_id": 12,
      "velocity": 0,
      "is_motor": false,
      "motor_id": 0,
      "accel_val": 2000,
      "base_duration_us": 483868
    },
    {
      "id": "M_329",
      "pitch": 88,
      "t_note_us": 100644785,
      "t_trigger_us": 100508822,
      "is_ai": true,
      "track_id": 5,
      "velocity": 0,
      "is_motor": false,
      "motor_id": 0,
      "accel_val": 2000,
      "base_duration_us": 483868
    },
    {
      "id": "M_327",
      "pitch": 71,
      "t_note_us": 100644785,
      "t_trigger_us": 100508822,
      "is_ai": false,
      "track_id": 0,
      "velocity": 0,
      "is_motor": true,
      "motor_id": 1,
      "accel_val": 2000,
      "base_duration_us": 241934
    },
    {
      "id": "M_330",
      "pitch": 69,
      "t_note_us": 100886719,
      "t_trigger_us": 100750756,
      "is_ai": false,
      "track_id": 0,
      "velocity": 0,
      "is_motor": true,
      "motor_id": 1,
      "accel_val": 2000,
      "base_duration_us": 241934
    },
    {
      "id": "M_336",
      "pitch": 103,
      "t_note_us": 101128653,
      "t_trigger_us": 100992690,
      "is_ai": true,
      "track_id": 14,
      "velocity": 0,
      "is_motor": false,
      "motor_id": 0,
      "accel_val": 2000,
      "base_duration_us": 1451604
    },
    {
      "id": "M_337",
      "pitch": 91,
      "t_note_us": 101128653,
      "t_trigger_us": 100992690,
      "is_ai": true,
      "track_id": 7,
      "velocity": 0,
      "is_motor": false,
      "motor_id": 0,
      "accel_val": 2000,
      "base_duration_us": 1451604
    },
    {
      "id": "M_331",
      "pitch": 74,
      "t_note_us": 101128653,
      "t_trigger_us": 100992690,
      "is_ai": false,
      "track_id": 0,
      "velocity": 0,
      "is_motor": true,
      "motor_id": 1,
      "accel_val": 2000,
      "base_duration_us": 241934
    },
    {
      "id": "M_332",
      "pitch": 72,
      "t_note_us": 101370587,
      "t_trigger_us": 101234624,
      "is_ai": false,
      "track_id": 0,
      "velocity": 0,
      "is_motor": true,
      "motor_id": 1,
      "accel_val": 2000,
      "base_duration_us": 241934
    },
    {
      "id": "M_333",
      "pitch": 71,
      "t_note_us": 101612521,
      "t_trigger_us": 101476558,
      "is_ai": false,
      "track_id": 0,
      "velocity": 0,
      "is_motor": true,
      "motor_id": 1,
      "accel_val": 2000,
      "base_duration_us": 241934
    },
    {
      "id": "M_334",
      "pitch": 69,
      "t_note_us": 101854455,
      "t_trigger_us": 101718492,
      "is_ai": false,
      "track_id": 0,
      "velocity": 0,
      "is_motor": true,
      "motor_id": 1,
      "accel_val": 2000,
      "base_duration_us": 241934
    },
    {
      "id": "M_335",
      "pitch": 86,
      "t_note_us": 102096389,
      "t_trigger_us": 101960426,
      "is_ai": true,
      "track_id": 4,
      "velocity": 0,
      "is_motor": false,
      "motor_id": 0,
      "accel_val": 2000,
      "base_duration_us": 241934
    },
    {
      "id": "M_338",
      "pitch": 72,
      "t_note_us": 102338323,
      "t_trigger_us": 102202360,
      "is_ai": false,
      "track_id": 0,
      "velocity": 0,
      "is_motor": true,
      "motor_id": 1,
      "accel_val": 2000,
      "base_duration_us": 241934
    },
    {
      "id": "M_339",
      "pitch": 74,
      "t_note_us": 102580257,
      "t_trigger_us": 102444294,
      "is_ai": false,
      "track_id": 0,
      "velocity": 0,
      "is_motor": true,
      "motor_id": 1,
      "accel_val": 2000,
      "base_duration_us": 967739
    },
    {
      "id": "M_340",
      "pitch": 70,
      "t_note_us": 102580257,
      "t_trigger_us": 102444294,
      "is_ai": false,
      "track_id": 0,
      "velocity": 0,
      "is_motor": true,
      "motor_id": 2,
      "accel_val": 2000,
      "base_duration_us": 967739
    },
    {
      "id": "M_341",
      "pitch": 76,
      "t_note_us": 102580257,
      "t_trigger_us": 102444294,
      "is_ai": false,
      "track_id": 0,
      "velocity": 0,
      "is_motor": true,
      "motor_id": 3,
      "accel_val": 2000,
      "base_duration_us": 967739
    },
    {
      "id": "M_342",
      "pitch": 67,
      "t_note_us": 102580257,
      "t_trigger_us": 102444294,
      "is_ai": false,
      "track_id": 0,
      "velocity": 0,
      "is_motor": true,
      "motor_id": 0,
      "accel_val": 2000,
      "base_duration_us": 967739
    },
    {
      "id": "M_343",
      "pitch": 66,
      "t_note_us": 103547996,
      "t_trigger_us": 103412033,
      "is_ai": false,
      "track_id": 0,
      "velocity": 0,
      "is_motor": true,
      "motor_id": 1,
      "accel_val": 2000,
      "base_duration_us": 483869
    },
    {
      "id": "M_344",
      "pitch": 74,
      "t_note_us": 103547996,
      "t_trigger_us": 103412033,
      "is_ai": false,
      "track_id": 0,
      "velocity": 0,
      "is_motor": true,
      "motor_id": 0,
      "accel_val": 2000,
      "base_duration_us": 483869
    },
    {
      "id": "M_348",
      "pitch": 71,
      "t_note_us": 103547996,
      "t_trigger_us": 103412033,
      "is_ai": false,
      "track_id": 0,
      "velocity": 0,
      "is_motor": true,
      "motor_id": 2,
      "accel_val": 2000,
      "base_duration_us": 1693540
    },
    {
      "id": "M_350",
      "pitch": 76,
      "t_note_us": 103547996,
      "t_trigger_us": 103412033,
      "is_ai": false,
      "track_id": 0,
      "velocity": 0,
      "is_motor": true,
      "motor_id": 3,
      "accel_val": 2000,
      "base_duration_us": 1935474
    },
    {
      "id": "M_345",
      "pitch": 69,
      "t_note_us": 104031865,
      "t_trigger_us": 103895902,
      "is_ai": false,
      "track_id": 0,
      "velocity": 0,
      "is_motor": true,
      "motor_id": 1,
      "accel_val": 2000,
      "base_duration_us": 241934
    },
    {
      "id": "M_346",
      "pitch": 72,
      "t_note_us": 104273799,
      "t_trigger_us": 104137836,
      "is_ai": false,
      "track_id": 0,
      "velocity": 0,
      "is_motor": true,
      "motor_id": 1,
      "accel_val": 2000,
      "base_duration_us": 483869
    },
    {
      "id": "M_347",
      "pitch": 76,
      "t_note_us": 104757668,
      "t_trigger_us": 104621705,
      "is_ai": false,
      "track_id": 0,
      "velocity": 0,
      "is_motor": true,
      "motor_id": 1,
      "accel_val": 2000,
      "base_duration_us": 241934
    },
    {
      "id": "M_349",
      "pitch": 69,
      "t_note_us": 104999602,
      "t_trigger_us": 104863639,
      "is_ai": false,
      "track_id": 0,
      "velocity": 0,
      "is_motor": true,
      "motor_id": 1,
      "accel_val": 2000,
      "base_duration_us": 241934
    },
    {
      "id": "M_351",
      "pitch": 83,
      "t_note_us": 105241536,
      "t_trigger_us": 105105573,
      "is_ai": true,
      "track_id": 2,
      "velocity": 0,
      "is_motor": false,
      "motor_id": 0,
      "accel_val": 2000,
      "base_duration_us": 483868
    },
    {
      "id": "M_355",
      "pitch": 98,
      "t_note_us": 105483470,
      "t_trigger_us": 105347507,
      "is_ai": true,
      "track_id": 11,
      "velocity": 0,
      "is_motor": false,
      "motor_id": 0,
      "accel_val": 2000,
      "base_duration_us": 967736
    },
    {
      "id": "M_354",
      "pitch": 76,
      "t_note_us": 105483470,
      "t_trigger_us": 105347507,
      "is_ai": false,
      "track_id": 0,
      "velocity": 0,
      "is_motor": true,
      "motor_id": 2,
      "accel_val": 2000,
      "base_duration_us": 967736
    },
    {
      "id": "M_352",
      "pitch": 76,
      "t_note_us": 105725404,
      "t_trigger_us": 105589441,
      "is_ai": false,
      "track_id": 0,
      "velocity": 0,
      "is_motor": true,
      "motor_id": 1,
      "accel_val": 2000,
      "base_duration_us": 241934
    },
    {
      "id": "M_353",
      "pitch": 69,
      "t_note_us": 105967338,
      "t_trigger_us": 105831375,
      "is_ai": false,
      "track_id": 0,
      "velocity": 0,
      "is_motor": true,
      "motor_id": 1,
      "accel_val": 2000,
      "base_duration_us": 241934
    },
    {
      "id": "M_356",
      "pitch": 72,
      "t_note_us": 106209272,
      "t_trigger_us": 106073309,
      "is_ai": false,
      "track_id": 0,
      "velocity": 0,
      "is_motor": true,
      "motor_id": 1,
      "accel_val": 2000,
      "base_duration_us": 241934
    },
    {
      "id": "M_358",
      "pitch": 91,
      "t_note_us": 106451206,
      "t_trigger_us": 106315243,
      "is_ai": true,
      "track_id": 7,
      "velocity": 0,
      "is_motor": false,
      "motor_id": 0,
      "accel_val": 2000,
      "base_duration_us": 483868
    },
    {
      "id": "M_359",
      "pitch": 103,
      "t_note_us": 106451206,
      "t_trigger_us": 106315243,
      "is_ai": true,
      "track_id": 14,
      "velocity": 0,
      "is_motor": false,
      "motor_id": 0,
      "accel_val": 2000,
      "base_duration_us": 483868
    },
    {
      "id": "M_357",
      "pitch": 69,
      "t_note_us": 106451206,
      "t_trigger_us": 106315243,
      "is_ai": false,
      "track_id": 0,
      "velocity": 0,
      "is_motor": true,
      "motor_id": 1,
      "accel_val": 2000,
      "base_duration_us": 241934
    },
    {
      "id": "M_360",
      "pitch": 76,
      "t_note_us": 106693140,
      "t_trigger_us": 106557177,
      "is_ai": false,
      "track_id": 0,
      "velocity": 0,
      "is_motor": true,
      "motor_id": 2,
      "accel_val": 2000,
      "base_duration_us": 241934
    },
    {
      "id": "M_361",
      "pitch": 98,
      "t_note_us": 106935074,
      "t_trigger_us": 106799111,
      "is_ai": true,
      "track_id": 11,
      "velocity": 0,
      "is_motor": false,
      "motor_id": 0,
      "accel_val": 2000,
      "base_duration_us": 241934
    },
    {
      "id": "M_362",
      "pitch": 69,
      "t_note_us": 106935074,
      "t_trigger_us": 106799111,
      "is_ai": false,
      "track_id": 0,
      "velocity": 0,
      "is_motor": true,
      "motor_id": 1,
      "accel_val": 2000,
      "base_duration_us": 241934
    },
    {
      "id": "M_363",
      "pitch": 96,
      "t_note_us": 107177008,
      "t_trigger_us": 107041045,
      "is_ai": true,
      "track_id": 10,
      "velocity": 0,
      "is_motor": false,
      "motor_id": 0,
      "accel_val": 2000,
      "base_duration_us": 241934
    },
    {
      "id": "M_365",
      "pitch": 72,
      "t_note_us": 107177008,
      "t_trigger_us": 107041045,
      "is_ai": false,
      "track_id": 0,
      "velocity": 0,
      "is_motor": true,
      "motor_id": 1,
      "accel_val": 2000,
      "base_duration_us": 483868
    },
    {
      "id": "M_364",
      "pitch": 95,
      "t_note_us": 107418942,
      "t_trigger_us": 107282979,
      "is_ai": true,
      "track_id": 9,
      "velocity": 0,
      "is_motor": false,
      "motor_id": 0,
      "accel_val": 2000,
      "base_duration_us": 241934
    },
    {
      "id": "M_366",
      "pitch": 93,
      "t_note_us": 107660876,
      "t_trigger_us": 107524913,
      "is_ai": true,
      "track_id": 8,
      "velocity": 0,
      "is_motor": false,
      "motor_id": 0,
      "accel_val": 2000,
      "base_duration_us": 241934
    },
    {
      "id": "M_367",
      "pitch": 76,
      "t_note_us": 107660876,
      "t_trigger_us": 107524913,
      "is_ai": false,
      "track_id": 0,
      "velocity": 0,
      "is_motor": true,
      "motor_id": 2,
      "accel_val": 2000,
      "base_duration_us": 241934
    },
    {
      "id": "M_368",
      "pitch": 98,
      "t_note_us": 107902810,
      "t_trigger_us": 107766847,
      "is_ai": true,
      "track_id": 11,
      "velocity": 0,
      "is_motor": false,
      "motor_id": 0,
      "accel_val": 2000,
      "base_duration_us": 241934
    },
    {
      "id": "M_369",
      "pitch": 69,
      "t_note_us": 107902810,
      "t_trigger_us": 107766847,
      "is_ai": false,
      "track_id": 0,
      "velocity": 0,
      "is_motor": true,
      "motor_id": 1,
      "accel_val": 2000,
      "base_duration_us": 241934
    },
    {
      "id": "M_370",
      "pitch": 96,
      "t_note_us": 108144744,
      "t_trigger_us": 108008781,
      "is_ai": true,
      "track_id": 10,
      "velocity": 0,
      "is_motor": false,
      "motor_id": 0,
      "accel_val": 2000,
      "base_duration_us": 241934
    },
    {
      "id": "M_371",
      "pitch": 72,
      "t_note_us": 108144744,
      "t_trigger_us": 108008781,
      "is_ai": false,
      "track_id": 0,
      "velocity": 0,
      "is_motor": true,
      "motor_id": 1,
      "accel_val": 2000,
      "base_duration_us": 241934
    },
    {
      "id": "M_372",
      "pitch": 95,
      "t_note_us": 108386678,
      "t_trigger_us": 108250715,
      "is_ai": true,
      "track_id": 9,
      "velocity": 0,
      "is_motor": false,
      "motor_id": 0,
      "accel_val": 2000,
      "base_duration_us": 241934
    },
    {
      "id": "M_373",
      "pitch": 69,
      "t_note_us": 108386678,
      "t_trigger_us": 108250715,
      "is_ai": false,
      "track_id": 0,
      "velocity": 0,
      "is_motor": true,
      "motor_id": 1,
      "accel_val": 2000,
      "base_duration_us": 241934
    },
    {
      "id": "M_374",
      "pitch": 93,
      "t_note_us": 108628612,
      "t_trigger_us": 108492649,
      "is_ai": true,
      "track_id": 8,
      "velocity": 0,
      "is_motor": false,
      "motor_id": 0,
      "accel_val": 2000,
      "base_duration_us": 241934
    },
    {
      "id": "M_375",
      "pitch": 76,
      "t_note_us": 108628612,
      "t_trigger_us": 108492649,
      "is_ai": false,
      "track_id": 0,
      "velocity": 0,
      "is_motor": true,
      "motor_id": 2,
      "accel_val": 2000,
      "base_duration_us": 241934
    },
    {
      "id": "M_376",
      "pitch": 98,
      "t_note_us": 108870546,
      "t_trigger_us": 108734583,
      "is_ai": true,
      "track_id": 11,
      "velocity": 0,
      "is_motor": false,
      "motor_id": 0,
      "accel_val": 2000,
      "base_duration_us": 241934
    },
    {
      "id": "M_377",
      "pitch": 69,
      "t_note_us": 108870546,
      "t_trigger_us": 108734583,
      "is_ai": false,
      "track_id": 0,
      "velocity": 0,
      "is_motor": true,
      "motor_id": 1,
      "accel_val": 2000,
      "base_duration_us": 241934
    },
    {
      "id": "M_378",
      "pitch": 96,
      "t_note_us": 109112480,
      "t_trigger_us": 108976517,
      "is_ai": true,
      "track_id": 10,
      "velocity": 0,
      "is_motor": false,
      "motor_id": 0,
      "accel_val": 2000,
      "base_duration_us": 241934
    },
    {
      "id": "M_380",
      "pitch": 71,
      "t_note_us": 109112480,
      "t_trigger_us": 108976517,
      "is_ai": false,
      "track_id": 0,
      "velocity": 0,
      "is_motor": true,
      "motor_id": 1,
      "accel_val": 2000,
      "base_duration_us": 483868
    },
    {
      "id": "M_379",
      "pitch": 95,
      "t_note_us": 109354414,
      "t_trigger_us": 109218451,
      "is_ai": true,
      "track_id": 9,
      "velocity": 0,
      "is_motor": false,
      "motor_id": 0,
      "accel_val": 2000,
      "base_duration_us": 241934
    },
    {
      "id": "M_381",
      "pitch": 93,
      "t_note_us": 109596348,
      "t_trigger_us": 109460385,
      "is_ai": true,
      "track_id": 8,
      "velocity": 0,
      "is_motor": false,
      "motor_id": 0,
      "accel_val": 2000,
      "base_duration_us": 241934
    },
    {
      "id": "M_382",
      "pitch": 76,
      "t_note_us": 109596348,
      "t_trigger_us": 109460385,
      "is_ai": false,
      "track_id": 0,
      "velocity": 0,
      "is_motor": true,
      "motor_id": 2,
      "accel_val": 2000,
      "base_duration_us": 241934
    },
    {
      "id": "M_384",
      "pitch": 69,
      "t_note_us": 109835762,
      "t_trigger_us": 109699799,
      "is_ai": false,
      "track_id": 0,
      "velocity": 0,
      "is_motor": true,
      "motor_id": 1,
      "accel_val": 2000,
      "base_duration_us": 244454
    },
    {
      "id": "M_383",
      "pitch": 98,
      "t_note_us": 109838282,
      "t_trigger_us": 109702319,
      "is_ai": true,
      "track_id": 11,
      "velocity": 0,
      "is_motor": false,
      "motor_id": 0,
      "accel_val": 2000,
      "base_duration_us": 241934
    },
    {
      "id": "M_385",
      "pitch": 96,
      "t_note_us": 110080216,
      "t_trigger_us": 109944253,
      "is_ai": true,
      "track_id": 10,
      "velocity": 0,
      "is_motor": false,
      "motor_id": 0,
      "accel_val": 2000,
      "base_duration_us": 241934
    },
    {
      "id": "M_386",
      "pitch": 72,
      "t_note_us": 110080216,
      "t_trigger_us": 109944253,
      "is_ai": false,
      "track_id": 0,
      "velocity": 0,
      "is_motor": true,
      "motor_id": 1,
      "accel_val": 2000,
      "base_duration_us": 241934
    },
    {
      "id": "M_387",
      "pitch": 95,
      "t_note_us": 110322150,
      "t_trigger_us": 110186187,
      "is_ai": true,
      "track_id": 9,
      "velocity": 0,
      "is_motor": false,
      "motor_id": 0,
      "accel_val": 2000,
      "base_duration_us": 241934
    },
    {
      "id": "M_388",
      "pitch": 69,
      "t_note_us": 110322150,
      "t_trigger_us": 110186187,
      "is_ai": false,
      "track_id": 0,
      "velocity": 0,
      "is_motor": true,
      "motor_id": 1,
      "accel_val": 2000,
      "base_duration_us": 241934
    },
    {
      "id": "M_389",
      "pitch": 93,
      "t_note_us": 110564084,
      "t_trigger_us": 110428121,
      "is_ai": true,
      "track_id": 8,
      "velocity": 0,
      "is_motor": false,
      "motor_id": 0,
      "accel_val": 2000,
      "base_duration_us": 241934
    },
    {
      "id": "M_390",
      "pitch": 69,
      "t_note_us": 110564084,
      "t_trigger_us": 110428121,
      "is_ai": false,
      "track_id": 0,
      "velocity": 0,
      "is_motor": true,
      "motor_id": 1,
      "accel_val": 2000,
      "base_duration_us": 241934
    },
    {
      "id": "M_391",
      "pitch": 98,
      "t_note_us": 110806018,
      "t_trigger_us": 110670055,
      "is_ai": true,
      "track_id": 11,
      "velocity": 0,
      "is_motor": false,
      "motor_id": 0,
      "accel_val": 2000,
      "base_duration_us": 241934
    },
    {
      "id": "M_392",
      "pitch": 71,
      "t_note_us": 110806018,
      "t_trigger_us": 110670055,
      "is_ai": false,
      "track_id": 0,
      "velocity": 0,
      "is_motor": true,
      "motor_id": 1,
      "accel_val": 2000,
      "base_duration_us": 241934
    },
    {
      "id": "M_393",
      "pitch": 96,
      "t_note_us": 111047952,
      "t_trigger_us": 110911989,
      "is_ai": true,
      "track_id": 10,
      "velocity": 0,
      "is_motor": false,
      "motor_id": 0,
      "accel_val": 2000,
      "base_duration_us": 241934
    },
    {
      "id": "M_394",
      "pitch": 76,
      "t_note_us": 111047952,
      "t_trigger_us": 110911989,
      "is_ai": false,
      "track_id": 0,
      "velocity": 0,
      "is_motor": true,
      "motor_id": 2,
      "accel_val": 2000,
      "base_duration_us": 241934
    },
    {
      "id": "M_395",
      "pitch": 95,
      "t_note_us": 111289886,
      "t_trigger_us": 111153923,
      "is_ai": true,
      "track_id": 9,
      "velocity": 0,
      "is_motor": false,
      "motor_id": 0,
      "accel_val": 2000,
      "base_duration_us": 241934
    },
    {
      "id": "M_396",
      "pitch": 72,
      "t_note_us": 111289886,
      "t_trigger_us": 111153923,
      "is_ai": false,
      "track_id": 0,
      "velocity": 0,
      "is_motor": true,
      "motor_id": 1,
      "accel_val": 2000,
      "base_duration_us": 241934
    },
    {
      "id": "M_397",
      "pitch": 93,
      "t_note_us": 111531820,
      "t_trigger_us": 111395857,
      "is_ai": true,
      "track_id": 8,
      "velocity": 0,
      "is_motor": false,
      "motor_id": 0,
      "accel_val": 2000,
      "base_duration_us": 241934
    },
    {
      "id": "M_398",
      "pitch": 76,
      "t_note_us": 111531820,
      "t_trigger_us": 111395857,
      "is_ai": false,
      "track_id": 0,
      "velocity": 0,
      "is_motor": true,
      "motor_id": 2,
      "accel_val": 2000,
      "base_duration_us": 241934
    },
    {
      "id": "M_399",
      "pitch": 98,
      "t_note_us": 111773754,
      "t_trigger_us": 111637791,
      "is_ai": true,
      "track_id": 11,
      "velocity": 0,
      "is_motor": false,
      "motor_id": 0,
      "accel_val": 2000,
      "base_duration_us": 241934
    },
    {
      "id": "M_400",
      "pitch": 74,
      "t_note_us": 111773754,
      "t_trigger_us": 111637791,
      "is_ai": false,
      "track_id": 0,
      "velocity": 0,
      "is_motor": true,
      "motor_id": 1,
      "accel_val": 2000,
      "base_duration_us": 241934
    },
    {
      "id": "M_401",
      "pitch": 96,
      "t_note_us": 112015688,
      "t_trigger_us": 111879725,
      "is_ai": true,
      "track_id": 10,
      "velocity": 0,
      "is_motor": false,
      "motor_id": 0,
      "accel_val": 2000,
      "base_duration_us": 241934
    },
    {
      "id": "M_402",
      "pitch": 69,
      "t_note_us": 112015688,
      "t_trigger_us": 111879725,
      "is_ai": false,
      "track_id": 0,
      "velocity": 0,
      "is_motor": true,
      "motor_id": 1,
      "accel_val": 2000,
      "base_duration_us": 241934
    },
    {
      "id": "M_403",
      "pitch": 95,
      "t_note_us": 112257622,
      "t_trigger_us": 112121659,
      "is_ai": true,
      "track_id": 9,
      "velocity": 0,
      "is_motor": false,
      "motor_id": 0,
      "accel_val": 2000,
      "base_duration_us": 241934
    },
    {
      "id": "M_404",
      "pitch": 69,
      "t_note_us": 112257622,
      "t_trigger_us": 112121659,
      "is_ai": false,
      "track_id": 0,
      "velocity": 0,
      "is_motor": true,
      "motor_id": 1,
      "accel_val": 2000,
      "base_duration_us": 241934
    },
    {
      "id": "M_405",
      "pitch": 93,
      "t_note_us": 112499556,
      "t_trigger_us": 112363593,
      "is_ai": true,
      "track_id": 8,
      "velocity": 0,
      "is_motor": false,
      "motor_id": 0,
      "accel_val": 2000,
      "base_duration_us": 241934
    },
    {
      "id": "M_406",
      "pitch": 76,
      "t_note_us": 112499556,
      "t_trigger_us": 112363593,
      "is_ai": false,
      "track_id": 0,
      "velocity": 0,
      "is_motor": true,
      "motor_id": 2,
      "accel_val": 2000,
      "base_duration_us": 241934
    },
    {
      "id": "M_407",
      "pitch": 98,
      "t_note_us": 112741490,
      "t_trigger_us": 112605527,
      "is_ai": true,
      "track_id": 11,
      "velocity": 0,
      "is_motor": false,
      "motor_id": 0,
      "accel_val": 2000,
      "base_duration_us": 241934
    },
    {
      "id": "M_408",
      "pitch": 69,
      "t_note_us": 112741490,
      "t_trigger_us": 112605527,
      "is_ai": false,
      "track_id": 0,
      "velocity": 0,
      "is_motor": true,
      "motor_id": 1,
      "accel_val": 2000,
      "base_duration_us": 241934
    },
    {
      "id": "M_409",
      "pitch": 96,
      "t_note_us": 112983424,
      "t_trigger_us": 112847461,
      "is_ai": true,
      "track_id": 10,
      "velocity": 0,
      "is_motor": false,
      "motor_id": 0,
      "accel_val": 2000,
      "base_duration_us": 241934
    },
    {
      "id": "M_411",
      "pitch": 72,
      "t_note_us": 112983424,
      "t_trigger_us": 112847461,
      "is_ai": false,
      "track_id": 0,
      "velocity": 0,
      "is_motor": true,
      "motor_id": 1,
      "accel_val": 2000,
      "base_duration_us": 483868
    },
    {
      "id": "M_410",
      "pitch": 93,
      "t_note_us": 113225358,
      "t_trigger_us": 113089395,
      "is_ai": true,
      "track_id": 8,
      "velocity": 0,
      "is_motor": false,
      "motor_id": 0,
      "accel_val": 2000,
      "base_duration_us": 241934
    },
    {
      "id": "M_412",
      "pitch": 76,
      "t_note_us": 113467292,
      "t_trigger_us": 113331329,
      "is_ai": false,
      "track_id": 0,
      "velocity": 0,
      "is_motor": true,
      "motor_id": 2,
      "accel_val": 2000,
      "base_duration_us": 241934
    },
    {
      "id": "M_413",
      "pitch": 76,
      "t_note_us": 113467292,
      "t_trigger_us": 113331329,
      "is_ai": false,
      "track_id": 0,
      "velocity": 0,
      "is_motor": true,
      "motor_id": 1,
      "accel_val": 2000,
      "base_duration_us": 241934
    },
    {
      "id": "M_414",
      "pitch": 95,
      "t_note_us": 113709226,
      "t_trigger_us": 113573263,
      "is_ai": true,
      "track_id": 9,
      "velocity": 0,
      "is_motor": false,
      "motor_id": 0,
      "accel_val": 2000,
      "base_duration_us": 241934
    },
    {
      "id": "M_415",
      "pitch": 69,
      "t_note_us": 113709226,
      "t_trigger_us": 113573263,
      "is_ai": false,
      "track_id": 0,
      "velocity": 0,
      "is_motor": true,
      "motor_id": 1,
      "accel_val": 2000,
      "base_duration_us": 241934
    },
    {
      "id": "M_416",
      "pitch": 96,
      "t_note_us": 113951160,
      "t_trigger_us": 113815197,
      "is_ai": true,
      "track_id": 10,
      "velocity": 0,
      "is_motor": false,
      "motor_id": 0,
      "accel_val": 2000,
      "base_duration_us": 2903219
    },
    {
      "id": "M_417",
      "pitch": 72,
      "t_note_us": 113951160,
      "t_trigger_us": 113815197,
      "is_ai": false,
      "track_id": 0,
      "velocity": 0,
      "is_motor": true,
      "motor_id": 1,
      "accel_val": 2000,
      "base_duration_us": 2903219
    },
    {
      "id": "M_418",
      "pitch": 88,
      "t_note_us": 117096313,
      "t_trigger_us": 116960350,
      "is_ai": true,
      "track_id": 5,
      "velocity": 0,
      "is_motor": false,
      "motor_id": 0,
      "accel_val": 2000,
      "base_duration_us": 483869
    },
    {
      "id": "M_419",
      "pitch": 100,
      "t_note_us": 117096313,
      "t_trigger_us": 116960350,
      "is_ai": true,
      "track_id": 12,
      "velocity": 0,
      "is_motor": false,
      "motor_id": 0,
      "accel_val": 2000,
      "base_duration_us": 483869
    },
    {
      "id": "M_421",
      "pitch": 98,
      "t_note_us": 117580182,
      "t_trigger_us": 117444219,
      "is_ai": true,
      "track_id": 11,
      "velocity": 0,
      "is_motor": false,
      "motor_id": 0,
      "accel_val": 2000,
      "base_duration_us": 483869
    },
    {
      "id": "M_420",
      "pitch": 74,
      "t_note_us": 117580182,
      "t_trigger_us": 117444219,
      "is_ai": false,
      "track_id": 0,
      "velocity": 0,
      "is_motor": true,
      "motor_id": 1,
      "accel_val": 2000,
      "base_duration_us": 483869
    },
    {
      "id": "M_425",
      "pitch": 98,
      "t_note_us": 118064051,
      "t_trigger_us": 117928088,
      "is_ai": true,
      "track_id": 11,
      "velocity": 0,
      "is_motor": false,
      "motor_id": 0,
      "accel_val": 2000,
      "base_duration_us": 483868
    },
    {
      "id": "M_422",
      "pitch": 53,
      "t_note_us": 118064051,
      "t_trigger_us": 117928088,
      "is_ai": false,
      "track_id": 0,
      "velocity": 0,
      "is_motor": true,
      "motor_id": 0,
      "accel_val": 2000,
      "base_duration_us": 241934
    },
    {
      "id": "M_423",
      "pitch": 69,
      "t_note_us": 118064051,
      "t_trigger_us": 117928088,
      "is_ai": false,
      "track_id": 0,
      "velocity": 0,
      "is_motor": true,
      "motor_id": 1,
      "accel_val": 2000,
      "base_duration_us": 483868
    },
    {
      "id": "M_424",
      "pitch": 76,
      "t_note_us": 118064051,
      "t_trigger_us": 117928088,
      "is_ai": false,
      "track_id": 0,
      "velocity": 0,
      "is_motor": true,
      "motor_id": 2,
      "accel_val": 2000,
      "base_duration_us": 483868
    },
    {
      "id": "M_426",
      "pitch": 60,
      "t_note_us": 118305985,
      "t_trigger_us": 118170022,
      "is_ai": false,
      "track_id": 0,
      "velocity": 0,
      "is_motor": true,
      "motor_id": 0,
      "accel_val": 2000,
      "base_duration_us": 241934
    },
    {
      "id": "M_428",
      "pitch": 96,
      "t_note_us": 118547919,
      "t_trigger_us": 118411956,
      "is_ai": true,
      "track_id": 10,
      "velocity": 0,
      "is_motor": false,
      "motor_id": 0,
      "accel_val": 2000,
      "base_duration_us": 483868
    },
    {
      "id": "M_427",
      "pitch": 65,
      "t_note_us": 118547919,
      "t_trigger_us": 118411956,
      "is_ai": false,
      "track_id": 0,
      "velocity": 0,
      "is_motor": true,
      "motor_id": 1,
      "accel_val": 2000,
      "base_duration_us": 241934
    },
    {
      "id": "M_429",
      "pitch": 67,
      "t_note_us": 118789853,
      "t_trigger_us": 118653890,
      "is_ai": false,
      "track_id": 0,
      "velocity": 0,
      "is_motor": true,
      "motor_id": 1,
      "accel_val": 2000,
      "base_duration_us": 241934
    },
    {
      "id": "M_430",
      "pitch": 96,
      "t_note_us": 119031787,
      "t_trigger_us": 118895824,
      "is_ai": true,
      "track_id": 10,
      "velocity": 0,
      "is_motor": false,
      "motor_id": 0,
      "accel_val": 2000,
      "base_duration_us": 483869
    },
    {
      "id": "M_431",
      "pitch": 69,
      "t_note_us": 119031787,
      "t_trigger_us": 118895824,
      "is_ai": false,
      "track_id": 0,
      "velocity": 0,
      "is_motor": true,
      "motor_id": 1,
      "accel_val": 2000,
      "base_duration_us": 483869
    },
    {
      "id": "M_432",
      "pitch": 96,
      "t_note_us": 119515656,
      "t_trigger_us": 119379693,
      "is_ai": true,
      "track_id": 10,
      "velocity": 0,
      "is_motor": false,
      "motor_id": 0,
      "accel_val": 2000,
      "base_duration_us": 483869
    },
    {
      "id": "M_433",
      "pitch": 103,
      "t_note_us": 119515656,
      "t_trigger_us": 119379693,
      "is_ai": true,
      "track_id": 14,
      "velocity": 0,
      "is_motor": false,
      "motor_id": 0,
      "accel_val": 2000,
      "base_duration_us": 483869
    },
    {
      "id": "M_434",
      "pitch": 72,
      "t_note_us": 119515656,
      "t_trigger_us": 119379693,
      "is_ai": false,
      "track_id": 0,
      "velocity": 0,
      "is_motor": true,
      "motor_id": 1,
      "accel_val": 2000,
      "base_duration_us": 483869
    },
    {
      "id": "M_438",
      "pitch": 91,
      "t_note_us": 119999525,
      "t_trigger_us": 119863562,
      "is_ai": true,
      "track_id": 7,
      "velocity": 0,
      "is_motor": false,
      "motor_id": 0,
      "accel_val": 2000,
      "base_duration_us": 967736
    },
    {
      "id": "M_439",
      "pitch": 96,
      "t_note_us": 119999525,
      "t_trigger_us": 119863562,
      "is_ai": true,
      "track_id": 10,
      "velocity": 0,
      "is_motor": false,
      "motor_id": 0,
      "accel_val": 2000,
      "base_duration_us": 967736
    },
    {
      "id": "M_435",
      "pitch": 55,
      "t_note_us": 119999525,
      "t_trigger_us": 119863562,
      "is_ai": false,
      "track_id": 0,
      "velocity": 0,
      "is_motor": true,
      "motor_id": 0,
      "accel_val": 2000,
      "base_duration_us": 241934
    },
    {
      "id": "M_436",
      "pitch": 62,
      "t_note_us": 120241459,
      "t_trigger_us": 120105496,
      "is_ai": false,
      "track_id": 0,
      "velocity": 0,
      "is_motor": true,
      "motor_id": 1,
      "accel_val": 2000,
      "base_duration_us": 241934
    },
    {
      "id": "M_437",
      "pitch": 67,
      "t_note_us": 120483393,
      "t_trigger_us": 120347430,
      "is_ai": false,
      "track_id": 0,
      "velocity": 0,
      "is_motor": true,
      "motor_id": 1,
      "accel_val": 2000,
      "base_duration_us": 241934
    },
    {
      "id": "M_440",
      "pitch": 69,
      "t_note_us": 120725327,
      "t_trigger_us": 120589364,
      "is_ai": false,
      "track_id": 0,
      "velocity": 0,
      "is_motor": true,
      "motor_id": 1,
      "accel_val": 2000,
      "base_duration_us": 241934
    },
    {
      "id": "M_441",
      "pitch": 91,
      "t_note_us": 120967261,
      "t_trigger_us": 120831298,
      "is_ai": true,
      "track_id": 7,
      "velocity": 0,
      "is_motor": false,
      "motor_id": 0,
      "accel_val": 2000,
      "base_duration_us": 483869
    },
    {
      "id": "M_442",
      "pitch": 95,
      "t_note_us": 120967261,
      "t_trigger_us": 120831298,
      "is_ai": true,
      "track_id": 9,
      "velocity": 0,
      "is_motor": false,
      "motor_id": 0,
      "accel_val": 2000,
      "base_duration_us": 483869
    },
    {
      "id": "M_443",
      "pitch": 71,
      "t_note_us": 120967261,
      "t_trigger_us": 120831298,
      "is_ai": false,
      "track_id": 0,
      "velocity": 0,
      "is_motor": true,
      "motor_id": 1,
      "accel_val": 2000,
      "base_duration_us": 483869
    },
    {
      "id": "M_454",
      "pitch": 93,
      "t_note_us": 121451130,
      "t_trigger_us": 121315167,
      "is_ai": true,
      "track_id": 8,
      "velocity": 0,
      "is_motor": false,
      "motor_id": 0,
      "accel_val": 2000,
      "base_duration_us": 3387079
    },
    {
      "id": "M_455",
      "pitch": 96,
      "t_note_us": 121451130,
      "t_trigger_us": 121315167,
      "is_ai": true,
      "track_id": 10,
      "velocity": 0,
      "is_motor": false,
      "motor_id": 0,
      "accel_val": 2000,
      "base_duration_us": 3387079
    },
    {
      "id": "M_444",
      "pitch": 72,
      "t_note_us": 121451130,
      "t_trigger_us": 121315167,
      "is_ai": false,
      "track_id": 0,
      "velocity": 0,
      "is_motor": true,
      "motor_id": 1,
      "accel_val": 2000,
      "base_duration_us": 483869
    },
    {
      "id": "M_445",
      "pitch": 57,
      "t_note_us": 121934999,
      "t_trigger_us": 121799036,
      "is_ai": false,
      "track_id": 0,
      "velocity": 0,
      "is_motor": true,
      "motor_id": 0,
      "accel_val": 2000,
      "base_duration_us": 241934
    },
    {
      "id": "M_446",
      "pitch": 64,
      "t_note_us": 122176933,
      "t_trigger_us": 122040970,
      "is_ai": false,
      "track_id": 0,
      "velocity": 0,
      "is_motor": true,
      "motor_id": 1,
      "accel_val": 2000,
      "base_duration_us": 241934
    },
    {
      "id": "M_447",
      "pitch": 71,
      "t_note_us": 122418867,
      "t_trigger_us": 122282904,
      "is_ai": false,
      "track_id": 0,
      "velocity": 0,
      "is_motor": true,
      "motor_id": 1,
      "accel_val": 2000,
      "base_duration_us": 241934
    },
    {
      "id": "M_448",
      "pitch": 72,
      "t_note_us": 122660801,
      "t_trigger_us": 122524838,
      "is_ai": false,
      "track_id": 0,
      "velocity": 0,
      "is_motor": true,
      "motor_id": 1,
      "accel_val": 2000,
      "base_duration_us": 483869
    },
    {
      "id": "M_449",
      "pitch": 64,
      "t_note_us": 123144670,
      "t_trigger_us": 123008707,
      "is_ai": false,
      "track_id": 0,
      "velocity": 0,
      "is_motor": true,
      "motor_id": 1,
      "accel_val": 2000,
      "base_duration_us": 241934
    },
    {
      "id": "M_450",
      "pitch": 71,
      "t_note_us": 123386604,
      "t_trigger_us": 123250641,
      "is_ai": false,
      "track_id": 0,
      "velocity": 0,
      "is_motor": true,
      "motor_id": 1,
      "accel_val": 2000,
      "base_duration_us": 241934
    },
    {
      "id": "M_451",
      "pitch": 72,
      "t_note_us": 123628538,
      "t_trigger_us": 123492575,
      "is_ai": false,
      "track_id": 0,
      "velocity": 0,
      "is_motor": true,
      "motor_id": 1,
      "accel_val": 2000,
      "base_duration_us": 483869
    },
    {
      "id": "M_452",
      "pitch": 64,
      "t_note_us": 124112407,
      "t_trigger_us": 123976444,
      "is_ai": false,
      "track_id": 0,
      "velocity": 0,
      "is_motor": true,
      "motor_id": 1,
      "accel_val": 2000,
      "base_duration_us": 241934
    },
    {
      "id": "M_453",
      "pitch": 71,
      "t_note_us": 124354341,
      "t_trigger_us": 124218378,
      "is_ai": false,
      "track_id": 0,
      "velocity": 0,
      "is_motor": true,
      "motor_id": 1,
      "accel_val": 2000,
      "base_duration_us": 241934
    },
    {
      "id": "M_458",
      "pitch": 72,
      "t_note_us": 124596275,
      "t_trigger_us": 124460312,
      "is_ai": false,
      "track_id": 0,
      "velocity": 0,
      "is_motor": true,
      "motor_id": 1,
      "accel_val": 2000,
      "base_duration_us": 725803
    },
    {
      "id": "M_456",
      "pitch": 88,
      "t_note_us": 124838209,
      "t_trigger_us": 124702246,
      "is_ai": true,
      "track_id": 5,
      "velocity": 0,
      "is_motor": false,
      "motor_id": 0,
      "accel_val": 2000,
      "base_duration_us": 483869
    },
    {
      "id": "M_457",
      "pitch": 100,
      "t_note_us": 124838209,
      "t_trigger_us": 124702246,
      "is_ai": true,
      "track_id": 12,
      "velocity": 0,
      "is_motor": false,
      "motor_id": 0,
      "accel_val": 2000,
      "base_duration_us": 483869
    },
    {
      "id": "M_460",
      "pitch": 98,
      "t_note_us": 125322078,
      "t_trigger_us": 125186115,
      "is_ai": true,
      "track_id": 11,
      "velocity": 0,
      "is_motor": false,
      "motor_id": 0,
      "accel_val": 2000,
      "base_duration_us": 483869
    },
    {
      "id": "M_459",
      "pitch": 74,
      "t_note_us": 125322078,
      "t_trigger_us": 125186115,
      "is_ai": false,
      "track_id": 0,
      "velocity": 0,
      "is_motor": true,
      "motor_id": 1,
      "accel_val": 2000,
      "base_duration_us": 483869
    },
    {
      "id": "M_461",
      "pitch": 55,
      "t_note_us": 125322078,
      "t_trigger_us": 125186115,
      "is_ai": false,
      "track_id": 0,
      "velocity": 0,
      "is_motor": true,
      "motor_id": 0,
      "accel_val": 2000,
      "base_duration_us": 483869
    },
    {
      "id": "M_462",
      "pitch": 67,
      "t_note_us": 125322078,
      "t_trigger_us": 125186115,
      "is_ai": false,
      "track_id": 0,
      "velocity": 0,
      "is_motor": true,
      "motor_id": 2,
      "accel_val": 2000,
      "base_duration_us": 483869
    },
    {
      "id": "M_464",
      "pitch": 88,
      "t_note_us": 125805947,
      "t_trigger_us": 125669984,
      "is_ai": true,
      "track_id": 5,
      "velocity": 0,
      "is_motor": false,
      "motor_id": 0,
      "accel_val": 2000,
      "base_duration_us": 483868
    },
    {
      "id": "M_465",
      "pitch": 93,
      "t_note_us": 125805947,
      "t_trigger_us": 125669984,
      "is_ai": true,
      "track_id": 8,
      "velocity": 0,
      "is_motor": false,
      "motor_id": 0,
      "accel_val": 2000,
      "base_duration_us": 483868
    },
    {
      "id": "M_466",
      "pitch": 98,
      "t_note_us": 125805947,
      "t_trigger_us": 125669984,
      "is_ai": true,
      "track_id": 11,
      "velocity": 0,
      "is_motor": false,
      "motor_id": 0,
      "accel_val": 2000,
      "base_duration_us": 483868
    },
    {
      "id": "M_463",
      "pitch": 53,
      "t_note_us": 125805947,
      "t_trigger_us": 125669984,
      "is_ai": false,
      "track_id": 0,
      "velocity": 0,
      "is_motor": true,
      "motor_id": 0,
      "accel_val": 2000,
      "base_duration_us": 241934
    },
    {
      "id": "M_467",
      "pitch": 60,
      "t_note_us": 126047881,
      "t_trigger_us": 125911918,
      "is_ai": false,
      "track_id": 0,
      "velocity": 0,
      "is_motor": true,
      "motor_id": 1,
      "accel_val": 2000,
      "base_duration_us": 241934
    },
    {
      "id": "M_469",
      "pitch": 96,
      "t_note_us": 126289815,
      "t_trigger_us": 126153852,
      "is_ai": true,
      "track_id": 10,
      "velocity": 0,
      "is_motor": false,
      "motor_id": 0,
      "accel_val": 2000,
      "base_duration_us": 483868
    },
    {
      "id": "M_468",
      "pitch": 65,
      "t_note_us": 126289815,
      "t_trigger_us": 126153852,
      "is_ai": false,
      "track_id": 0,
      "velocity": 0,
      "is_motor": true,
      "motor_id": 1,
      "accel_val": 2000,
      "base_duration_us": 241934
    },
    {
      "id": "M_470",
      "pitch": 67,
      "t_note_us": 126531749,
      "t_trigger_us": 126395786,
      "is_ai": false,
      "track_id": 0,
      "velocity": 0,
      "is_motor": true,
      "motor_id": 1,
      "accel_val": 2000,
      "base_duration_us": 241934
    },
    {
      "id": "M_471",
      "pitch": 91,
      "t_note_us": 126773683,
      "t_trigger_us": 126637720,
      "is_ai": true,
      "track_id": 7,
      "velocity": 0,
      "is_motor": false,
      "motor_id": 0,
      "accel_val": 2000,
      "base_duration_us": 483869
    },
    {
      "id": "M_472",
      "pitch": 69,
      "t_note_us": 126773683,
      "t_trigger_us": 126637720,
      "is_ai": false,
      "track_id": 0,
      "velocity": 0,
      "is_motor": true,
      "motor_id": 1,
      "accel_val": 2000,
      "base_duration_us": 483869
    },
    {
      "id": "M_473",
      "pitch": 88,
      "t_note_us": 127257552,
      "t_trigger_us": 127121589,
      "is_ai": true,
      "track_id": 5,
      "velocity": 0,
      "is_motor": false,
      "motor_id": 0,
      "accel_val": 2000,
      "base_duration_us": 483869
    },
    {
      "id": "M_475",
      "pitch": 100,
      "t_note_us": 127257552,
      "t_trigger_us": 127121589,
      "is_ai": true,
      "track_id": 12,
      "velocity": 0,
      "is_motor": false,
      "motor_id": 0,
      "accel_val": 2000,
      "base_duration_us": 488909
    },
    {
      "id": "M_474",
      "pitch": 67,
      "t_note_us": 127257552,
      "t_trigger_us": 127121589,
      "is_ai": false,
      "track_id": 0,
      "velocity": 0,
      "is_motor": true,
      "motor_id": 1,
      "accel_val": 2000,
      "base_duration_us": 483869
    },
    {
      "id": "M_479",
      "pitch": 91,
      "t_note_us": 127741421,
      "t_trigger_us": 127605458,
      "is_ai": true,
      "track_id": 7,
      "velocity": 0,
      "is_motor": false,
      "motor_id": 0,
      "accel_val": 2000,
      "base_duration_us": 967736
    },
    {
      "id": "M_480",
      "pitch": 98,
      "t_note_us": 127741421,
      "t_trigger_us": 127605458,
      "is_ai": true,
      "track_id": 11,
      "velocity": 0,
      "is_motor": false,
      "motor_id": 0,
      "accel_val": 2000,
      "base_duration_us": 967736
    },
    {
      "id": "M_481",
      "pitch": 95,
      "t_note_us": 127741421,
      "t_trigger_us": 127605458,
      "is_ai": true,
      "track_id": 9,
      "velocity": 0,
      "is_motor": false,
      "motor_id": 0,
      "accel_val": 2000,
      "base_duration_us": 967736
    },
    {
      "id": "M_476",
      "pitch": 55,
      "t_note_us": 127741421,
      "t_trigger_us": 127605458,
      "is_ai": false,
      "track_id": 0,
      "velocity": 0,
      "is_motor": true,
      "motor_id": 0,
      "accel_val": 2000,
      "base_duration_us": 241934
    },
    {
      "id": "M_477",
      "pitch": 62,
      "t_note_us": 127983355,
      "t_trigger_us": 127847392,
      "is_ai": false,
      "track_id": 0,
      "velocity": 0,
      "is_motor": true,
      "motor_id": 1,
      "accel_val": 2000,
      "base_duration_us": 241934
    },
    {
      "id": "M_478",
      "pitch": 67,
      "t_note_us": 128225289,
      "t_trigger_us": 128089326,
      "is_ai": false,
      "track_id": 0,
      "velocity": 0,
      "is_motor": true,
      "motor_id": 1,
      "accel_val": 2000,
      "base_duration_us": 241934
    },
    {
      "id": "M_482",
      "pitch": 69,
      "t_note_us": 128467223,
      "t_trigger_us": 128331260,
      "is_ai": false,
      "track_id": 0,
      "velocity": 0,
      "is_motor": true,
      "motor_id": 1,
      "accel_val": 2000,
      "base_duration_us": 241934
    },
    {
      "id": "M_483",
      "pitch": 100,
      "t_note_us": 128709157,
      "t_trigger_us": 128573194,
      "is_ai": true,
      "track_id": 12,
      "velocity": 0,
      "is_motor": false,
      "motor_id": 0,
      "accel_val": 2000,
      "base_duration_us": 483869
    },
    {
      "id": "M_484",
      "pitch": 71,
      "t_note_us": 128709157,
      "t_trigger_us": 128573194,
      "is_ai": false,
      "track_id": 0,
      "velocity": 0,
      "is_motor": true,
      "motor_id": 1,
      "accel_val": 2000,
      "base_duration_us": 483869
    },
    {
      "id": "M_493",
      "pitch": 96,
      "t_note_us": 129193026,
      "t_trigger_us": 129057063,
      "is_ai": true,
      "track_id": 10,
      "velocity": 0,
      "is_motor": false,
      "motor_id": 0,
      "accel_val": 2000,
      "base_duration_us": 2903211
    },
    {
      "id": "M_494",
      "pitch": 93,
      "t_note_us": 129193026,
      "t_trigger_us": 129057063,
      "is_ai": true,
      "track_id": 8,
      "velocity": 0,
      "is_motor": false,
      "motor_id": 0,
      "accel_val": 2000,
      "base_duration_us": 2903211
    },
    {
      "id": "M_485",
      "pitch": 67,
      "t_note_us": 129193026,
      "t_trigger_us": 129057063,
      "is_ai": false,
      "track_id": 0,
      "velocity": 0,
      "is_motor": true,
      "motor_id": 1,
      "accel_val": 2000,
      "base_duration_us": 483869
    },
    {
      "id": "M_486",
      "pitch": 57,
      "t_note_us": 129676895,
      "t_trigger_us": 129540932,
      "is_ai": false,
      "track_id": 0,
      "velocity": 0,
      "is_motor": true,
      "motor_id": 0,
      "accel_val": 2000,
      "base_duration_us": 241934
    },
    {
      "id": "M_487",
      "pitch": 64,
      "t_note_us": 129918829,
      "t_trigger_us": 129782866,
      "is_ai": false,
      "track_id": 0,
      "velocity": 0,
      "is_motor": true,
      "motor_id": 1,
      "accel_val": 2000,
      "base_duration_us": 241934
    },
    {
      "id": "M_488",
      "pitch": 71,
      "t_note_us": 130160763,
      "t_trigger_us": 130024800,
      "is_ai": false,
      "track_id": 0,
      "velocity": 0,
      "is_motor": true,
      "motor_id": 1,
      "accel_val": 2000,
      "base_duration_us": 241934
    },
    {
      "id": "M_489",
      "pitch": 72,
      "t_note_us": 130402697,
      "t_trigger_us": 130266734,
      "is_ai": false,
      "track_id": 0,
      "velocity": 0,
      "is_motor": true,
      "motor_id": 1,
      "accel_val": 2000,
      "base_duration_us": 483869
    },
    {
      "id": "M_490",
      "pitch": 64,
      "t_note_us": 130886566,
      "t_trigger_us": 130750603,
      "is_ai": false,
      "track_id": 0,
      "velocity": 0,
      "is_motor": true,
      "motor_id": 1,
      "accel_val": 2000,
      "base_duration_us": 241934
    },
    {
      "id": "M_491",
      "pitch": 71,
      "t_note_us": 131128500,
      "t_trigger_us": 130992537,
      "is_ai": false,
      "track_id": 0,
      "velocity": 0,
      "is_motor": true,
      "motor_id": 1,
      "accel_val": 2000,
      "base_duration_us": 241934
    },
    {
      "id": "M_492",
      "pitch": 72,
      "t_note_us": 131370434,
      "t_trigger_us": 131234471,
      "is_ai": false,
      "track_id": 0,
      "velocity": 0,
      "is_motor": true,
      "motor_id": 1,
      "accel_val": 2000,
      "base_duration_us": 483869
    },
    {
      "id": "M_495",
      "pitch": 64,
      "t_note_us": 131854303,
      "t_trigger_us": 131718340,
      "is_ai": false,
      "track_id": 0,
      "velocity": 0,
      "is_motor": true,
      "motor_id": 1,
      "accel_val": 2000,
      "base_duration_us": 241934
    },
    {
      "id": "M_496",
      "pitch": 71,
      "t_note_us": 132096237,
      "t_trigger_us": 131960274,
      "is_ai": false,
      "track_id": 0,
      "velocity": 0,
      "is_motor": true,
      "motor_id": 1,
      "accel_val": 2000,
      "base_duration_us": 241934
    },
    {
      "id": "M_499",
      "pitch": 72,
      "t_note_us": 132338171,
      "t_trigger_us": 132202208,
      "is_ai": false,
      "track_id": 0,
      "velocity": 0,
      "is_motor": true,
      "motor_id": 1,
      "accel_val": 2000,
      "base_duration_us": 725803
    },
    {
      "id": "M_497",
      "pitch": 88,
      "t_note_us": 132580105,
      "t_trigger_us": 132444142,
      "is_ai": true,
      "track_id": 5,
      "velocity": 0,
      "is_motor": false,
      "motor_id": 0,
      "accel_val": 2000,
      "base_duration_us": 483869
    },
    {
      "id": "M_498",
      "pitch": 100,
      "t_note_us": 132580105,
      "t_trigger_us": 132444142,
      "is_ai": true,
      "track_id": 12,
      "velocity": 0,
      "is_motor": false,
      "motor_id": 0,
      "accel_val": 2000,
      "base_duration_us": 483869
    },
    {
      "id": "M_501",
      "pitch": 98,
      "t_note_us": 133063974,
      "t_trigger_us": 132928011,
      "is_ai": true,
      "track_id": 11,
      "velocity": 0,
      "is_motor": false,
      "motor_id": 0,
      "accel_val": 2000,
      "base_duration_us": 483869
    },
    {
      "id": "M_500",
      "pitch": 74,
      "t_note_us": 133063974,
      "t_trigger_us": 132928011,
      "is_ai": false,
      "track_id": 0,
      "velocity": 0,
      "is_motor": true,
      "motor_id": 1,
      "accel_val": 2000,
      "base_duration_us": 483869
    },
    {
      "id": "M_502",
      "pitch": 55,
      "t_note_us": 133063974,
      "t_trigger_us": 132928011,
      "is_ai": false,
      "track_id": 0,
      "velocity": 0,
      "is_motor": true,
      "motor_id": 0,
      "accel_val": 2000,
      "base_duration_us": 483869
    },
    {
      "id": "M_503",
      "pitch": 67,
      "t_note_us": 133063974,
      "t_trigger_us": 132928011,
      "is_ai": false,
      "track_id": 0,
      "velocity": 0,
      "is_motor": true,
      "motor_id": 2,
      "accel_val": 2000,
      "base_duration_us": 483869
    },
    {
      "id": "M_505",
      "pitch": 98,
      "t_note_us": 133547843,
      "t_trigger_us": 133411880,
      "is_ai": true,
      "track_id": 11,
      "velocity": 0,
      "is_motor": false,
      "motor_id": 0,
      "accel_val": 2000,
      "base_duration_us": 483868
    },
    {
      "id": "M_506",
      "pitch": 93,
      "t_note_us": 133547843,
      "t_trigger_us": 133411880,
      "is_ai": true,
      "track_id": 8,
      "velocity": 0,
      "is_motor": false,
      "motor_id": 0,
      "accel_val": 2000,
      "base_duration_us": 483868
    },
    {
      "id": "M_504",
      "pitch": 53,
      "t_note_us": 133547843,
      "t_trigger_us": 133411880,
      "is_ai": false,
      "track_id": 0,
      "velocity": 0,
      "is_motor": true,
      "motor_id": 0,
      "accel_val": 2000,
      "base_duration_us": 241934
    },
    {
      "id": "M_507",
      "pitch": 76,
      "t_note_us": 133547843,
      "t_trigger_us": 133411880,
      "is_ai": false,
      "track_id": 0,
      "velocity": 0,
      "is_motor": true,
      "motor_id": 2,
      "accel_val": 2000,
      "base_duration_us": 483868
    },
    {
      "id": "M_508",
      "pitch": 60,
      "t_note_us": 133789777,
      "t_trigger_us": 133653814,
      "is_ai": false,
      "track_id": 0,
      "velocity": 0,
      "is_motor": true,
      "motor_id": 1,
      "accel_val": 2000,
      "base_duration_us": 241934
    },
    {
      "id": "M_510",
      "pitch": 96,
      "t_note_us": 134031711,
      "t_trigger_us": 133895748,
      "is_ai": true,
      "track_id": 10,
      "velocity": 0,
      "is_motor": false,
      "motor_id": 0,
      "accel_val": 2000,
      "base_duration_us": 483868
    },
    {
      "id": "M_509",
      "pitch": 65,
      "t_note_us": 134031711,
      "t_trigger_us": 133895748,
      "is_ai": false,
      "track_id": 0,
      "velocity": 0,
      "is_motor": true,
      "motor_id": 1,
      "accel_val": 2000,
      "base_duration_us": 241934
    },
    {
      "id": "M_511",
      "pitch": 67,
      "t_note_us": 134273645,
      "t_trigger_us": 134137682,
      "is_ai": false,
      "track_id": 0,
      "velocity": 0,
      "is_motor": true,
      "motor_id": 1,
      "accel_val": 2000,
      "base_duration_us": 241934
    },
    {
      "id": "M_512",
      "pitch": 96,
      "t_note_us": 134515579,
      "t_trigger_us": 134379616,
      "is_ai": true,
      "track_id": 10,
      "velocity": 0,
      "is_motor": false,
      "motor_id": 0,
      "accel_val": 2000,
      "base_duration_us": 483869
    },
    {
      "id": "M_513",
      "pitch": 69,
      "t_note_us": 134515579,
      "t_trigger_us": 134379616,
      "is_ai": false,
      "track_id": 0,
      "velocity": 0,
      "is_motor": true,
      "motor_id": 1,
      "accel_val": 2000,
      "base_duration_us": 483869
    },
    {
      "id": "M_514",
      "pitch": 96,
      "t_note_us": 134999448,
      "t_trigger_us": 134863485,
      "is_ai": true,
      "track_id": 10,
      "velocity": 0,
      "is_motor": false,
      "motor_id": 0,
      "accel_val": 2000,
      "base_duration_us": 483869
    },
    {
      "id": "M_515",
      "pitch": 67,
      "t_note_us": 134999448,
      "t_trigger_us": 134863485,
      "is_ai": false,
      "track_id": 0,
      "velocity": 0,
      "is_motor": true,
      "motor_id": 1,
      "accel_val": 2000,
      "base_duration_us": 483869
    },
    {
      "id": "M_516",
      "pitch": 72,
      "t_note_us": 134999448,
      "t_trigger_us": 134863485,
      "is_ai": false,
      "track_id": 0,
      "velocity": 0,
      "is_motor": true,
      "motor_id": 0,
      "accel_val": 2000,
      "base_duration_us": 483869
    },
    {
      "id": "M_519",
      "pitch": 95,
      "t_note_us": 135483317,
      "t_trigger_us": 135347354,
      "is_ai": true,
      "track_id": 9,
      "velocity": 0,
      "is_motor": false,
      "motor_id": 0,
      "accel_val": 2000,
      "base_duration_us": 483868
    },
    {
      "id": "M_517",
      "pitch": 55,
      "t_note_us": 135483317,
      "t_trigger_us": 135347354,
      "is_ai": false,
      "track_id": 0,
      "velocity": 0,
      "is_motor": true,
      "motor_id": 0,
      "accel_val": 2000,
      "base_duration_us": 241934
    },
    {
      "id": "M_518",
      "pitch": 67,
      "t_note_us": 135483317,
      "t_trigger_us": 135347354,
      "is_ai": false,
      "track_id": 0,
      "velocity": 0,
      "is_motor": true,
      "motor_id": 1,
      "accel_val": 2000,
      "base_duration_us": 483868
    },
    {
      "id": "M_520",
      "pitch": 62,
      "t_note_us": 135725251,
      "t_trigger_us": 135589288,
      "is_ai": false,
      "track_id": 0,
      "velocity": 0,
      "is_motor": true,
      "motor_id": 0,
      "accel_val": 2000,
      "base_duration_us": 241934
    },
    {
      "id": "M_522",
      "pitch": 103,
      "t_note_us": 135967185,
      "t_trigger_us": 135831222,
      "is_ai": true,
      "track_id": 14,
      "velocity": 0,
      "is_motor": false,
      "motor_id": 0,
      "accel_val": 2000,
      "base_duration_us": 483868
    },
    {
      "id": "M_521",
      "pitch": 67,
      "t_note_us": 135967185,
      "t_trigger_us": 135831222,
      "is_ai": false,
      "track_id": 0,
      "velocity": 0,
      "is_motor": true,
      "motor_id": 1,
      "accel_val": 2000,
      "base_duration_us": 241934
    },
    {
      "id": "M_523",
      "pitch": 69,
      "t_note_us": 136209119,
      "t_trigger_us": 136073156,
      "is_ai": false,
      "track_id": 0,
      "velocity": 0,
      "is_motor": true,
      "motor_id": 1,
      "accel_val": 2000,
      "base_duration_us": 241934
    },
    {
      "id": "M_524",
      "pitch": 98,
      "t_note_us": 136451053,
      "t_trigger_us": 136315090,
      "is_ai": true,
      "track_id": 11,
      "velocity": 0,
      "is_motor": false,
      "motor_id": 0,
      "accel_val": 2000,
      "base_duration_us": 483869
    },
    {
      "id": "M_525",
      "pitch": 71,
      "t_note_us": 136451053,
      "t_trigger_us": 136315090,
      "is_ai": false,
      "track_id": 0,
      "velocity": 0,
      "is_motor": true,
      "motor_id": 1,
      "accel_val": 2000,
      "base_duration_us": 483869
    },
    {
      "id": "M_534",
      "pitch": 93,
      "t_note_us": 136934922,
      "t_trigger_us": 136798959,
      "is_ai": true,
      "track_id": 8,
      "velocity": 0,
      "is_motor": false,
      "motor_id": 0,
      "accel_val": 2000,
      "base_duration_us": 2903211
    },
    {
      "id": "M_535",
      "pitch": 96,
      "t_note_us": 136934922,
      "t_trigger_us": 136798959,
      "is_ai": true,
      "track_id": 10,
      "velocity": 0,
      "is_motor": false,
      "motor_id": 0,
      "accel_val": 2000,
      "base_duration_us": 2903211
    },
    {
      "id": "M_526",
      "pitch": 72,
      "t_note_us": 136934922,
      "t_trigger_us": 136798959,
      "is_ai": false,
      "track_id": 0,
      "velocity": 0,
      "is_motor": true,
      "motor_id": 1,
      "accel_val": 2000,
      "base_duration_us": 483869
    },
    {
      "id": "M_527",
      "pitch": 57,
      "t_note_us": 137418791,
      "t_trigger_us": 137282828,
      "is_ai": false,
      "track_id": 0,
      "velocity": 0,
      "is_motor": true,
      "motor_id": 0,
      "accel_val": 2000,
      "base_duration_us": 241934
    },
    {
      "id": "M_528",
      "pitch": 64,
      "t_note_us": 137660725,
      "t_trigger_us": 137524762,
      "is_ai": false,
      "track_id": 0,
      "velocity": 0,
      "is_motor": true,
      "motor_id": 1,
      "accel_val": 2000,
      "base_duration_us": 241934
    },
    {
      "id": "M_529",
      "pitch": 71,
      "t_note_us": 137902659,
      "t_trigger_us": 137766696,
      "is_ai": false,
      "track_id": 0,
      "velocity": 0,
      "is_motor": true,
      "motor_id": 1,
      "accel_val": 2000,
      "base_duration_us": 241934
    },
    {
      "id": "M_530",
      "pitch": 72,
      "t_note_us": 138144593,
      "t_trigger_us": 138008630,
      "is_ai": false,
      "track_id": 0,
      "velocity": 0,
      "is_motor": true,
      "motor_id": 1,
      "accel_val": 2000,
      "base_duration_us": 483869
    },
    {
      "id": "M_531",
      "pitch": 64,
      "t_note_us": 138628462,
      "t_trigger_us": 138492499,
      "is_ai": false,
      "track_id": 0,
      "velocity": 0,
      "is_motor": true,
      "motor_id": 1,
      "accel_val": 2000,
      "base_duration_us": 241934
    },
    {
      "id": "M_532",
      "pitch": 71,
      "t_note_us": 138870396,
      "t_trigger_us": 138734433,
      "is_ai": false,
      "track_id": 0,
      "velocity": 0,
      "is_motor": true,
      "motor_id": 1,
      "accel_val": 2000,
      "base_duration_us": 241934
    },
    {
      "id": "M_533",
      "pitch": 72,
      "t_note_us": 139112330,
      "t_trigger_us": 138976367,
      "is_ai": false,
      "track_id": 0,
      "velocity": 0,
      "is_motor": true,
      "motor_id": 1,
      "accel_val": 2000,
      "base_duration_us": 483869
    },
    {
      "id": "M_536",
      "pitch": 64,
      "t_note_us": 139596199,
      "t_trigger_us": 139460236,
      "is_ai": false,
      "track_id": 0,
      "velocity": 0,
      "is_motor": true,
      "motor_id": 1,
      "accel_val": 2000,
      "base_duration_us": 241934
    },
    {
      "id": "M_537",
      "pitch": 71,
      "t_note_us": 139838133,
      "t_trigger_us": 139702170,
      "is_ai": false,
      "track_id": 0,
      "velocity": 0,
      "is_motor": true,
      "motor_id": 1,
      "accel_val": 2000,
      "base_duration_us": 241934
    },
    {
      "id": "M_538",
      "pitch": 72,
      "t_note_us": 140080067,
      "t_trigger_us": 139944104,
      "is_ai": false,
      "track_id": 0,
      "velocity": 0,
      "is_motor": true,
      "motor_id": 1,
      "accel_val": 2000,
      "base_duration_us": 241934
    },
    {
      "id": "M_539",
      "pitch": 93,
      "t_note_us": 140322001,
      "t_trigger_us": 140186038,
      "is_ai": true,
      "track_id": 8,
      "velocity": 0,
      "is_motor": false,
      "motor_id": 0,
      "accel_val": 2000,
      "base_duration_us": 483869
    },
    {
      "id": "M_540",
      "pitch": 69,
      "t_note_us": 140322001,
      "t_trigger_us": 140186038,
      "is_ai": false,
      "track_id": 0,
      "velocity": 0,
      "is_motor": true,
      "motor_id": 1,
      "accel_val": 2000,
      "base_duration_us": 483869
    },
    {
      "id": "M_542",
      "pitch": 96,
      "t_note_us": 140805870,
      "t_trigger_us": 140669907,
      "is_ai": true,
      "track_id": 10,
      "velocity": 0,
      "is_motor": false,
      "motor_id": 0,
      "accel_val": 2000,
      "base_duration_us": 483869
    },
    {
      "id": "M_541",
      "pitch": 72,
      "t_note_us": 140805870,
      "t_trigger_us": 140669907,
      "is_ai": false,
      "track_id": 0,
      "velocity": 0,
      "is_motor": true,
      "motor_id": 1,
      "accel_val": 2000,
      "base_duration_us": 483869
    },
    {
      "id": "M_543",
      "pitch": 55,
      "t_note_us": 140805870,
      "t_trigger_us": 140669907,
      "is_ai": false,
      "track_id": 0,
      "velocity": 0,
      "is_motor": true,
      "motor_id": 0,
      "accel_val": 2000,
      "base_duration_us": 483869
    },
    {
      "id": "M_544",
      "pitch": 67,
      "t_note_us": 140805870,
      "t_trigger_us": 140669907,
      "is_ai": false,
      "track_id": 0,
      "velocity": 0,
      "is_motor": true,
      "motor_id": 2,
      "accel_val": 2000,
      "base_duration_us": 483869
    },
    {
      "id": "M_549",
      "pitch": 98,
      "t_note_us": 141289739,
      "t_trigger_us": 141153776,
      "is_ai": true,
      "track_id": 11,
      "velocity": 0,
      "is_motor": false,
      "motor_id": 0,
      "accel_val": 2000,
      "base_duration_us": 967736
    },
    {
      "id": "M_545",
      "pitch": 53,
      "t_note_us": 141289739,
      "t_trigger_us": 141153776,
      "is_ai": false,
      "track_id": 0,
      "velocity": 0,
      "is_motor": true,
      "motor_id": 0,
      "accel_val": 2000,
      "base_duration_us": 241934
    },
    {
      "id": "M_548",
      "pitch": 69,
      "t_note_us": 141289739,
      "t_trigger_us": 141153776,
      "is_ai": false,
      "track_id": 0,
      "velocity": 0,
      "is_motor": true,
      "motor_id": 1,
      "accel_val": 2000,
      "base_duration_us": 967736
    },
    {
      "id": "M_550",
      "pitch": 77,
      "t_note_us": 141289739,
      "t_trigger_us": 141153776,
      "is_ai": false,
      "track_id": 0,
      "velocity": 0,
      "is_motor": true,
      "motor_id": 2,
      "accel_val": 2000,
      "base_duration_us": 967736
    },
    {
      "id": "M_546",
      "pitch": 60,
      "t_note_us": 141531673,
      "t_trigger_us": 141395710,
      "is_ai": false,
      "track_id": 0,
      "velocity": 0,
      "is_motor": true,
      "motor_id": 0,
      "accel_val": 2000,
      "base_duration_us": 241934
    },
    {
      "id": "M_547",
      "pitch": 65,
      "t_note_us": 141773607,
      "t_trigger_us": 141637644,
      "is_ai": false,
      "track_id": 0,
      "velocity": 0,
      "is_motor": true,
      "motor_id": 0,
      "accel_val": 2000,
      "base_duration_us": 241934
    },
    {
      "id": "M_551",
      "pitch": 67,
      "t_note_us": 142015541,
      "t_trigger_us": 141879578,
      "is_ai": false,
      "track_id": 0,
      "velocity": 0,
      "is_motor": true,
      "motor_id": 0,
      "accel_val": 2000,
      "base_duration_us": 241934
    },
    {
      "id": "M_552",
      "pitch": 89,
      "t_note_us": 142257475,
      "t_trigger_us": 142121512,
      "is_ai": true,
      "track_id": 6,
      "velocity": 0,
      "is_motor": false,
      "motor_id": 0,
      "accel_val": 2000,
      "base_duration_us": 483869
    },
    {
      "id": "M_553",
      "pitch": 98,
      "t_note_us": 142257475,
      "t_trigger_us": 142121512,
      "is_ai": true,
      "track_id": 11,
      "velocity": 0,
      "is_motor": false,
      "motor_id": 0,
      "accel_val": 2000,
      "base_duration_us": 483869
    },
    {
      "id": "M_554",
      "pitch": 69,
      "t_note_us": 142257475,
      "t_trigger_us": 142121512,
      "is_ai": false,
      "track_id": 0,
      "velocity": 0,
      "is_motor": true,
      "motor_id": 1,
      "accel_val": 2000,
      "base_duration_us": 483869
    },
    {
      "id": "M_555",
      "pitch": 96,
      "t_note_us": 142741344,
      "t_trigger_us": 142605381,
      "is_ai": true,
      "track_id": 10,
      "velocity": 0,
      "is_motor": false,
      "motor_id": 0,
      "accel_val": 2000,
      "base_duration_us": 483869
    },
    {
      "id": "M_556",
      "pitch": 67,
      "t_note_us": 142741344,
      "t_trigger_us": 142605381,
      "is_ai": false,
      "track_id": 0,
      "velocity": 0,
      "is_motor": true,
      "motor_id": 1,
      "accel_val": 2000,
      "base_duration_us": 483869
    },
    {
      "id": "M_559",
      "pitch": 98,
      "t_note_us": 143225213,
      "t_trigger_us": 143089250,
      "is_ai": true,
      "track_id": 11,
      "velocity": 0,
      "is_motor": false,
      "motor_id": 0,
      "accel_val": 2000,
      "base_duration_us": 483868
    },
    {
      "id": "M_557",
      "pitch": 55,
      "t_note_us": 143225213,
      "t_trigger_us": 143089250,
      "is_ai": false,
      "track_id": 0,
      "velocity": 0,
      "is_motor": true,
      "motor_id": 0,
      "accel_val": 2000,
      "base_duration_us": 241934
    },
    {
      "id": "M_558",
      "pitch": 67,
      "t_note_us": 143225213,
      "t_trigger_us": 143089250,
      "is_ai": false,
      "track_id": 0,
      "velocity": 0,
      "is_motor": true,
      "motor_id": 1,
      "accel_val": 2000,
      "base_duration_us": 483868
    },
    {
      "id": "M_560",
      "pitch": 62,
      "t_note_us": 143467147,
      "t_trigger_us": 143331184,
      "is_ai": false,
      "track_id": 0,
      "velocity": 0,
      "is_motor": true,
      "motor_id": 0,
      "accel_val": 2000,
      "base_duration_us": 241934
    },
    {
      "id": "M_562",
      "pitch": 100,
      "t_note_us": 143709081,
      "t_trigger_us": 143573118,
      "is_ai": true,
      "track_id": 12,
      "velocity": 0,
      "is_motor": false,
      "motor_id": 0,
      "accel_val": 2000,
      "base_duration_us": 483868
    },
    {
      "id": "M_561",
      "pitch": 67,
      "t_note_us": 143709081,
      "t_trigger_us": 143573118,
      "is_ai": false,
      "track_id": 0,
      "velocity": 0,
      "is_motor": true,
      "motor_id": 1,
      "accel_val": 2000,
      "base_duration_us": 241934
    },
    {
      "id": "M_563",
      "pitch": 69,
      "t_note_us": 143951015,
      "t_trigger_us": 143815052,
      "is_ai": false,
      "track_id": 0,
      "velocity": 0,
      "is_motor": true,
      "motor_id": 1,
      "accel_val": 2000,
      "base_duration_us": 241934
    },
    {
      "id": "M_564",
      "pitch": 98,
      "t_note_us": 144192949,
      "t_trigger_us": 144056986,
      "is_ai": true,
      "track_id": 11,
      "velocity": 0,
      "is_motor": false,
      "motor_id": 0,
      "accel_val": 2000,
      "base_duration_us": 483869
    },
    {
      "id": "M_565",
      "pitch": 71,
      "t_note_us": 144192949,
      "t_trigger_us": 144056986,
      "is_ai": false,
      "track_id": 0,
      "velocity": 0,
      "is_motor": true,
      "motor_id": 1,
      "accel_val": 2000,
      "base_duration_us": 483869
    },
    {
      "id": "M_568",
      "pitch": 91,
      "t_note_us": 144676818,
      "t_trigger_us": 144540855,
      "is_ai": true,
      "track_id": 7,
      "velocity": 0,
      "is_motor": false,
      "motor_id": 0,
      "accel_val": 2000,
      "base_duration_us": 967737
    },
    {
      "id": "M_569",
      "pitch": 98,
      "t_note_us": 144676818,
      "t_trigger_us": 144540855,
      "is_ai": true,
      "track_id": 11,
      "velocity": 0,
      "is_motor": false,
      "motor_id": 0,
      "accel_val": 2000,
      "base_duration_us": 967737
    },
    {
      "id": "M_566",
      "pitch": 67,
      "t_note_us": 144676818,
      "t_trigger_us": 144540855,
      "is_ai": false,
      "track_id": 0,
      "velocity": 0,
      "is_motor": true,
      "motor_id": 1,
      "accel_val": 2000,
      "base_duration_us": 483869
    },
    {
      "id": "M_567",
      "pitch": 57,
      "t_note_us": 145160687,
      "t_trigger_us": 145024724,
      "is_ai": false,
      "track_id": 0,
      "velocity": 0,
      "is_motor": true,
      "motor_id": 0,
      "accel_val": 2000,
      "base_duration_us": 241934
    },
    {
      "id": "M_570",
      "pitch": 64,
      "t_note_us": 145402621,
      "t_trigger_us": 145266658,
      "is_ai": false,
      "track_id": 0,
      "velocity": 0,
      "is_motor": true,
      "motor_id": 1,
      "accel_val": 2000,
      "base_duration_us": 241934
    },
    {
      "id": "M_575",
      "pitch": 96,
      "t_note_us": 145644555,
      "t_trigger_us": 145508592,
      "is_ai": true,
      "track_id": 10,
      "velocity": 0,
      "is_motor": false,
      "motor_id": 0,
      "accel_val": 2000,
      "base_duration_us": 1451605
    },
    {
      "id": "M_571",
      "pitch": 71,
      "t_note_us": 145644555,
      "t_trigger_us": 145508592,
      "is_ai": false,
      "track_id": 0,
      "velocity": 0,
      "is_motor": true,
      "motor_id": 1,
      "accel_val": 2000,
      "base_duration_us": 241934
    },
    {
      "id": "M_572",
      "pitch": 72,
      "t_note_us": 145886489,
      "t_trigger_us": 145750526,
      "is_ai": false,
      "track_id": 0,
      "velocity": 0,
      "is_motor": true,
      "motor_id": 1,
      "accel_val": 2000,
      "base_duration_us": 483869
    },
    {
      "id": "M_573",
      "pitch": 64,
      "t_note_us": 146370358,
      "t_trigger_us": 146234395,
      "is_ai": false,
      "track_id": 0,
      "velocity": 0,
      "is_motor": true,
      "motor_id": 1,
      "accel_val": 2000,
      "base_duration_us": 241934
    },
    {
      "id": "M_574",
      "pitch": 71,
      "t_note_us": 146612292,
      "t_trigger_us": 146476329,
      "is_ai": false,
      "track_id": 0,
      "velocity": 0,
      "is_motor": true,
      "motor_id": 1,
      "accel_val": 2000,
      "base_duration_us": 241934
    },
    {
      "id": "M_576",
      "pitch": 72,
      "t_note_us": 146854226,
      "t_trigger_us": 146718263,
      "is_ai": false,
      "track_id": 0,
      "velocity": 0,
      "is_motor": true,
      "motor_id": 1,
      "accel_val": 2000,
      "base_duration_us": 483868
    },
    {
      "id": "M_577",
      "pitch": 64,
      "t_note_us": 147338094,
      "t_trigger_us": 147202131,
      "is_ai": false,
      "track_id": 0,
      "velocity": 0,
      "is_motor": true,
      "motor_id": 1,
      "accel_val": 2000,
      "base_duration_us": 241934
    },
    {
      "id": "M_580",
      "pitch": 96,
      "t_note_us": 147580028,
      "t_trigger_us": 147444065,
      "is_ai": true,
      "track_id": 10,
      "velocity": 0,
      "is_motor": false,
      "motor_id": 0,
      "accel_val": 2000,
      "base_duration_us": 483868
    },
    {
      "id": "M_578",
      "pitch": 71,
      "t_note_us": 147580028,
      "t_trigger_us": 147444065,
      "is_ai": false,
      "track_id": 0,
      "velocity": 0,
      "is_motor": true,
      "motor_id": 1,
      "accel_val": 2000,
      "base_duration_us": 241934
    },
    {
      "id": "M_579",
      "pitch": 76,
      "t_note_us": 147580028,
      "t_trigger_us": 147444065,
      "is_ai": false,
      "track_id": 0,
      "velocity": 0,
      "is_motor": true,
      "motor_id": 2,
      "accel_val": 2000,
      "base_duration_us": 483868
    },
    {
      "id": "M_583",
      "pitch": 72,
      "t_note_us": 147821962,
      "t_trigger_us": 147685999,
      "is_ai": false,
      "track_id": 0,
      "velocity": 0,
      "is_motor": true,
      "motor_id": 1,
      "accel_val": 2000,
      "base_duration_us": 725803
    },
    {
      "id": "M_581",
      "pitch": 86,
      "t_note_us": 148063896,
      "t_trigger_us": 147927933,
      "is_ai": true,
      "track_id": 4,
      "velocity": 0,
      "is_motor": false,
      "motor_id": 0,
      "accel_val": 2000,
      "base_duration_us": 483869
    },
    {
      "id": "M_582",
      "pitch": 95,
      "t_note_us": 148063896,
      "t_trigger_us": 147927933,
      "is_ai": true,
      "track_id": 9,
      "velocity": 0,
      "is_motor": false,
      "motor_id": 0,
      "accel_val": 2000,
      "base_duration_us": 483869
    },
    {
      "id": "M_584",
      "pitch": 88,
      "t_note_us": 148547765,
      "t_trigger_us": 148411802,
      "is_ai": true,
      "track_id": 5,
      "velocity": 0,
      "is_motor": false,
      "motor_id": 0,
      "accel_val": 2000,
      "base_duration_us": 241934
    },
    {
      "id": "M_585",
      "pitch": 67,
      "t_note_us": 148547765,
      "t_trigger_us": 148411802,
      "is_ai": false,
      "track_id": 0,
      "velocity": 0,
      "is_motor": true,
      "motor_id": 1,
      "accel_val": 2000,
      "base_duration_us": 483868
    },
    {
      "id": "M_591",
      "pitch": 72,
      "t_note_us": 148789699,
      "t_trigger_us": 148653736,
      "is_ai": false,
      "track_id": 0,
      "velocity": 0,
      "is_motor": true,
      "motor_id": 0,
      "accel_val": 2000,
      "base_duration_us": 1693538
    },
    {
      "id": "M_592",
      "pitch": 69,
      "t_note_us": 148789699,
      "t_trigger_us": 148653736,
      "is_ai": false,
      "track_id": 0,
      "velocity": 0,
      "is_motor": true,
      "motor_id": 2,
      "accel_val": 2000,
      "base_duration_us": 1693538
    },
    {
      "id": "M_586",
      "pitch": 53,
      "t_note_us": 149031633,
      "t_trigger_us": 148895670,
      "is_ai": false,
      "track_id": 0,
      "velocity": 0,
      "is_motor": true,
      "motor_id": 1,
      "accel_val": 2000,
      "base_duration_us": 241934
    },
    {
      "id": "M_587",
      "pitch": 60,
      "t_note_us": 149273567,
      "t_trigger_us": 149137604,
      "is_ai": false,
      "track_id": 0,
      "velocity": 0,
      "is_motor": true,
      "motor_id": 1,
      "accel_val": 2000,
      "base_duration_us": 241934
    },
    {
      "id": "M_588",
      "pitch": 67,
      "t_note_us": 149515501,
      "t_trigger_us": 149379538,
      "is_ai": false,
      "track_id": 0,
      "velocity": 0,
      "is_motor": true,
      "motor_id": 1,
      "accel_val": 2000,
      "base_duration_us": 241934
    },
    {
      "id": "M_589",
      "pitch": 65,
      "t_note_us": 149757435,
      "t_trigger_us": 149621472,
      "is_ai": false,
      "track_id": 0,
      "velocity": 0,
      "is_motor": true,
      "motor_id": 1,
      "accel_val": 2000,
      "base_duration_us": 241934
    },
    {
      "id": "M_590",
      "pitch": 71,
      "t_note_us": 149999369,
      "t_trigger_us": 149863406,
      "is_ai": false,
      "track_id": 0,
      "velocity": 0,
      "is_motor": true,
      "motor_id": 1,
      "accel_val": 2000,
      "base_duration_us": 241934
    },
    {
      "id": "M_593",
      "pitch": 69,
      "t_note_us": 150241303,
      "t_trigger_us": 150105340,
      "is_ai": false,
      "track_id": 0,
      "velocity": 0,
      "is_motor": true,
      "motor_id": 1,
      "accel_val": 2000,
      "base_duration_us": 241934
    },
    {
      "id": "M_594",
      "pitch": 74,
      "t_note_us": 150483237,
      "t_trigger_us": 150347274,
      "is_ai": false,
      "track_id": 0,
      "velocity": 0,
      "is_motor": true,
      "motor_id": 1,
      "accel_val": 2000,
      "base_duration_us": 241934
    },
    {
      "id": "M_595",
      "pitch": 72,
      "t_note_us": 150725171,
      "t_trigger_us": 150589208,
      "is_ai": false,
      "track_id": 0,
      "velocity": 0,
      "is_motor": true,
      "motor_id": 1,
      "accel_val": 2000,
      "base_duration_us": 241934
    },
    {
      "id": "M_596",
      "pitch": 55,
      "t_note_us": 150967105,
      "t_trigger_us": 150831142,
      "is_ai": false,
      "track_id": 0,
      "velocity": 0,
      "is_motor": true,
      "motor_id": 0,
      "accel_val": 2000,
      "base_duration_us": 241934
    },
    {
      "id": "M_597",
      "pitch": 62,
      "t_note_us": 151209039,
      "t_trigger_us": 151073076,
      "is_ai": false,
      "track_id": 0,
      "velocity": 0,
      "is_motor": true,
      "motor_id": 1,
      "accel_val": 2000,
      "base_duration_us": 241934
    },
    {
      "id": "M_599",
      "pitch": 88,
      "t_note_us": 151450973,
      "t_trigger_us": 151315010,
      "is_ai": true,
      "track_id": 5,
      "velocity": 0,
      "is_motor": false,
      "motor_id": 0,
      "accel_val": 2000,
      "base_duration_us": 483868
    },
    {
      "id": "M_600",
      "pitch": 96,
      "t_note_us": 151450973,
      "t_trigger_us": 151315010,
      "is_ai": true,
      "track_id": 10,
      "velocity": 0,
      "is_motor": false,
      "motor_id": 0,
      "accel_val": 2000,
      "base_duration_us": 483868
    },
    {
      "id": "M_598",
      "pitch": 69,
      "t_note_us": 151450973,
      "t_trigger_us": 151315010,
      "is_ai": false,
      "track_id": 0,
      "velocity": 0,
      "is_motor": true,
      "motor_id": 1,
      "accel_val": 2000,
      "base_duration_us": 241934
    },
    {
      "id": "M_601",
      "pitch": 71,
      "t_note_us": 151692907,
      "t_trigger_us": 151556944,
      "is_ai": false,
      "track_id": 0,
      "velocity": 0,
      "is_motor": true,
      "motor_id": 1,
      "accel_val": 2000,
      "base_duration_us": 241934
    },
    {
      "id": "M_603",
      "pitch": 86,
      "t_note_us": 151934841,
      "t_trigger_us": 151798878,
      "is_ai": true,
      "track_id": 4,
      "velocity": 0,
      "is_motor": false,
      "motor_id": 0,
      "accel_val": 2000,
      "base_duration_us": 483868
    },
    {
      "id": "M_604",
      "pitch": 95,
      "t_note_us": 151934841,
      "t_trigger_us": 151798878,
      "is_ai": true,
      "track_id": 9,
      "velocity": 0,
      "is_motor": false,
      "motor_id": 0,
      "accel_val": 2000,
      "base_duration_us": 483868
    },
    {
      "id": "M_602",
      "pitch": 67,
      "t_note_us": 151934841,
      "t_trigger_us": 151798878,
      "is_ai": false,
      "track_id": 0,
      "velocity": 0,
      "is_motor": true,
      "motor_id": 1,
      "accel_val": 2000,
      "base_duration_us": 241934
    },
    {
      "id": "M_605",
      "pitch": 76,
      "t_note_us": 152176775,
      "t_trigger_us": 152040812,
      "is_ai": false,
      "track_id": 0,
      "velocity": 0,
      "is_motor": true,
      "motor_id": 2,
      "accel_val": 2000,
      "base_duration_us": 241934
    },
    {
      "id": "M_606",
      "pitch": 88,
      "t_note_us": 152418709,
      "t_trigger_us": 152282746,
      "is_ai": true,
      "track_id": 5,
      "velocity": 0,
      "is_motor": false,
      "motor_id": 0,
      "accel_val": 2000,
      "base_duration_us": 241934
    },
    {
      "id": "M_607",
      "pitch": 72,
      "t_note_us": 152418709,
      "t_trigger_us": 152282746,
      "is_ai": false,
      "track_id": 0,
      "velocity": 0,
      "is_motor": true,
      "motor_id": 1,
      "accel_val": 2000,
      "base_duration_us": 483868
    },
    {
      "id": "M_613",
      "pitch": 72,
      "t_note_us": 152660643,
      "t_trigger_us": 152524680,
      "is_ai": false,
      "track_id": 0,
      "velocity": 0,
      "is_motor": true,
      "motor_id": 0,
      "accel_val": 2000,
      "base_duration_us": 1693538
    },
    {
      "id": "M_608",
      "pitch": 57,
      "t_note_us": 152902577,
      "t_trigger_us": 152766614,
      "is_ai": false,
      "track_id": 0,
      "velocity": 0,
      "is_motor": true,
      "motor_id": 1,
      "accel_val": 2000,
      "base_duration_us": 241934
    },
    {
      "id": "M_609",
      "pitch": 64,
      "t_note_us": 153144511,
      "t_trigger_us": 153008548,
      "is_ai": false,
      "track_id": 0,
      "velocity": 0,
      "is_motor": true,
      "motor_id": 1,
      "accel_val": 2000,
      "base_duration_us": 241934
    },
    {
      "id": "M_610",
      "pitch": 69,
      "t_note_us": 153386445,
      "t_trigger_us": 153250482,
      "is_ai": false,
      "track_id": 0,
      "velocity": 0,
      "is_motor": true,
      "motor_id": 1,
      "accel_val": 2000,
      "base_duration_us": 241934
    },
    {
      "id": "M_611",
      "pitch": 64,
      "t_note_us": 153628379,
      "t_trigger_us": 153492416,
      "is_ai": false,
      "track_id": 0,
      "velocity": 0,
      "is_motor": true,
      "motor_id": 1,
      "accel_val": 2000,
      "base_duration_us": 241934
    },
    {
      "id": "M_612",
      "pitch": 71,
      "t_note_us": 153870313,
      "t_trigger_us": 153734350,
      "is_ai": false,
      "track_id": 0,
      "velocity": 0,
      "is_motor": true,
      "motor_id": 1,
      "accel_val": 2000,
      "base_duration_us": 241934
    },
    {
      "id": "M_614",
      "pitch": 69,
      "t_note_us": 154112247,
      "t_trigger_us": 153976284,
      "is_ai": false,
      "track_id": 0,
      "velocity": 0,
      "is_motor": true,
      "motor_id": 1,
      "accel_val": 2000,
      "base_duration_us": 241934
    },
    {
      "id": "M_615",
      "pitch": 74,
      "t_note_us": 154354181,
      "t_trigger_us": 154218218,
      "is_ai": false,
      "track_id": 0,
      "velocity": 0,
      "is_motor": true,
      "motor_id": 1,
      "accel_val": 2000,
      "base_duration_us": 241934
    },
    {
      "id": "M_616",
      "pitch": 72,
      "t_note_us": 154596115,
      "t_trigger_us": 154460152,
      "is_ai": false,
      "track_id": 0,
      "velocity": 0,
      "is_motor": true,
      "motor_id": 1,
      "accel_val": 2000,
      "base_duration_us": 241934
    },
    {
      "id": "M_617",
      "pitch": 57,
      "t_note_us": 154838049,
      "t_trigger_us": 154702086,
      "is_ai": false,
      "track_id": 0,
      "velocity": 0,
      "is_motor": true,
      "motor_id": 0,
      "accel_val": 2000,
      "base_duration_us": 241934
    },
    {
      "id": "M_618",
      "pitch": 64,
      "t_note_us": 155079983,
      "t_trigger_us": 154944020,
      "is_ai": false,
      "track_id": 0,
      "velocity": 0,
      "is_motor": true,
      "motor_id": 1,
      "accel_val": 2000,
      "base_duration_us": 241934
    },
    {
      "id": "M_620",
      "pitch": 96,
      "t_note_us": 155321917,
      "t_trigger_us": 155185954,
      "is_ai": true,
      "track_id": 10,
      "velocity": 0,
      "is_motor": false,
      "motor_id": 0,
      "accel_val": 2000,
      "base_duration_us": 483868
    },
    {
      "id": "M_619",
      "pitch": 69,
      "t_note_us": 155321917,
      "t_trigger_us": 155185954,
      "is_ai": false,
      "track_id": 0,
      "velocity": 0,
      "is_motor": true,
      "motor_id": 1,
      "accel_val": 2000,
      "base_duration_us": 241934
    },
    {
      "id": "M_621",
      "pitch": 76,
      "t_note_us": 155321917,
      "t_trigger_us": 155185954,
      "is_ai": false,
      "track_id": 0,
      "velocity": 0,
      "is_motor": true,
      "motor_id": 2,
      "accel_val": 2000,
      "base_duration_us": 483868
    },
    {
      "id": "M_622",
      "pitch": 64,
      "t_note_us": 155563851,
      "t_trigger_us": 155427888,
      "is_ai": false,
      "track_id": 0,
      "velocity": 0,
      "is_motor": true,
      "motor_id": 1,
      "accel_val": 2000,
      "base_duration_us": 241934
    },
    {
      "id": "M_624",
      "pitch": 86,
      "t_note_us": 155805785,
      "t_trigger_us": 155669822,
      "is_ai": true,
      "track_id": 4,
      "velocity": 0,
      "is_motor": false,
      "motor_id": 0,
      "accel_val": 2000,
      "base_duration_us": 483868
    },
    {
      "id": "M_625",
      "pitch": 95,
      "t_note_us": 155805785,
      "t_trigger_us": 155669822,
      "is_ai": true,
      "track_id": 9,
      "velocity": 0,
      "is_motor": false,
      "motor_id": 0,
      "accel_val": 2000,
      "base_duration_us": 483868
    },
    {
      "id": "M_623",
      "pitch": 72,
      "t_note_us": 155805785,
      "t_trigger_us": 155669822,
      "is_ai": false,
      "track_id": 0,
      "velocity": 0,
      "is_motor": true,
      "motor_id": 1,
      "accel_val": 2000,
      "base_duration_us": 241934
    },
    {
      "id": "M_626",
      "pitch": 64,
      "t_note_us": 156047719,
      "t_trigger_us": 155911756,
      "is_ai": false,
      "track_id": 0,
      "velocity": 0,
      "is_motor": true,
      "motor_id": 1,
      "accel_val": 2000,
      "base_duration_us": 241934
    },
    {
      "id": "M_627",
      "pitch": 76,
      "t_note_us": 156289653,
      "t_trigger_us": 156153690,
      "is_ai": false,
      "track_id": 0,
      "velocity": 0,
      "is_motor": true,
      "motor_id": 2,
      "accel_val": 2000,
      "base_duration_us": 241934
    },
    {
      "id": "M_628",
      "pitch": 76,
      "t_note_us": 156289653,
      "t_trigger_us": 156153690,
      "is_ai": false,
      "track_id": 0,
      "velocity": 0,
      "is_motor": true,
      "motor_id": 1,
      "accel_val": 2000,
      "base_duration_us": 483868
    },
    {
      "id": "M_634",
      "pitch": 69,
      "t_note_us": 156531587,
      "t_trigger_us": 156395624,
      "is_ai": false,
      "track_id": 0,
      "velocity": 0,
      "is_motor": true,
      "motor_id": 2,
      "accel_val": 2000,
      "base_duration_us": 1693538
    },
    {
      "id": "M_635",
      "pitch": 72,
      "t_note_us": 156531587,
      "t_trigger_us": 156395624,
      "is_ai": false,
      "track_id": 0,
      "velocity": 0,
      "is_motor": true,
      "motor_id": 0,
      "accel_val": 2000,
      "base_duration_us": 1693538
    },
    {
      "id": "M_629",
      "pitch": 53,
      "t_note_us": 156773521,
      "t_trigger_us": 156637558,
      "is_ai": false,
      "track_id": 0,
      "velocity": 0,
      "is_motor": true,
      "motor_id": 1,
      "accel_val": 2000,
      "base_duration_us": 241934
    },
    {
      "id": "M_630",
      "pitch": 60,
      "t_note_us": 157015455,
      "t_trigger_us": 156879492,
      "is_ai": false,
      "track_id": 0,
      "velocity": 0,
      "is_motor": true,
      "motor_id": 1,
      "accel_val": 2000,
      "base_duration_us": 241934
    },
    {
      "id": "M_631",
      "pitch": 67,
      "t_note_us": 157257389,
      "t_trigger_us": 157121426,
      "is_ai": false,
      "track_id": 0,
      "velocity": 0,
      "is_motor": true,
      "motor_id": 1,
      "accel_val": 2000,
      "base_duration_us": 241934
    },
    {
      "id": "M_632",
      "pitch": 65,
      "t_note_us": 157499323,
      "t_trigger_us": 157363360,
      "is_ai": false,
      "track_id": 0,
      "velocity": 0,
      "is_motor": true,
      "motor_id": 1,
      "accel_val": 2000,
      "base_duration_us": 241934
    },
    {
      "id": "M_633",
      "pitch": 71,
      "t_note_us": 157741257,
      "t_trigger_us": 157605294,
      "is_ai": false,
      "track_id": 0,
      "velocity": 0,
      "is_motor": true,
      "motor_id": 1,
      "accel_val": 2000,
      "base_duration_us": 241934
    },
    {
      "id": "M_636",
      "pitch": 69,
      "t_note_us": 157983191,
      "t_trigger_us": 157847228,
      "is_ai": false,
      "track_id": 0,
      "velocity": 0,
      "is_motor": true,
      "motor_id": 1,
      "accel_val": 2000,
      "base_duration_us": 241934
    },
    {
      "id": "M_637",
      "pitch": 93,
      "t_note_us": 158225125,
      "t_trigger_us": 158089162,
      "is_ai": true,
      "track_id": 8,
      "velocity": 0,
      "is_motor": false,
      "motor_id": 0,
      "accel_val": 2000,
      "base_duration_us": 241934
    },
    {
      "id": "M_638",
      "pitch": 72,
      "t_note_us": 158225125,
      "t_trigger_us": 158089162,
      "is_ai": false,
      "track_id": 0,
      "velocity": 0,
      "is_motor": true,
      "motor_id": 1,
      "accel_val": 2000,
      "base_duration_us": 241934
    },
    {
      "id": "M_639",
      "pitch": 74,
      "t_note_us": 158225125,
      "t_trigger_us": 158089162,
      "is_ai": false,
      "track_id": 0,
      "velocity": 0,
      "is_motor": true,
      "motor_id": 0,
      "accel_val": 2000,
      "base_duration_us": 241934
    },
    {
      "id": "M_645",
      "pitch": 95,
      "t_note_us": 158467059,
      "t_trigger_us": 158331096,
      "is_ai": true,
      "track_id": 9,
      "velocity": 0,
      "is_motor": false,
      "motor_id": 0,
      "accel_val": 2000,
      "base_duration_us": 1451604
    },
    {
      "id": "M_646",
      "pitch": 86,
      "t_note_us": 158467059,
      "t_trigger_us": 158331096,
      "is_ai": true,
      "track_id": 4,
      "velocity": 0,
      "is_motor": false,
      "motor_id": 0,
      "accel_val": 2000,
      "base_duration_us": 1451604
    },
    {
      "id": "M_640",
      "pitch": 72,
      "t_note_us": 158467059,
      "t_trigger_us": 158331096,
      "is_ai": false,
      "track_id": 0,
      "velocity": 0,
      "is_motor": true,
      "motor_id": 1,
      "accel_val": 2000,
      "base_duration_us": 241934
    },
    {
      "id": "M_641",
      "pitch": 55,
      "t_note_us": 158708993,
      "t_trigger_us": 158573030,
      "is_ai": false,
      "track_id": 0,
      "velocity": 0,
      "is_motor": true,
      "motor_id": 0,
      "accel_val": 2000,
      "base_duration_us": 257054
    },
    {
      "id": "M_642",
      "pitch": 62,
      "t_note_us": 158950927,
      "t_trigger_us": 158814964,
      "is_ai": false,
      "track_id": 0,
      "velocity": 0,
      "is_motor": true,
      "motor_id": 1,
      "accel_val": 2000,
      "base_duration_us": 241934
    },
    {
      "id": "M_643",
      "pitch": 69,
      "t_note_us": 159192861,
      "t_trigger_us": 159056898,
      "is_ai": false,
      "track_id": 0,
      "velocity": 0,
      "is_motor": true,
      "motor_id": 1,
      "accel_val": 2000,
      "base_duration_us": 241934
    },
    {
      "id": "M_644",
      "pitch": 67,
      "t_note_us": 159434795,
      "t_trigger_us": 159298832,
      "is_ai": false,
      "track_id": 0,
      "velocity": 0,
      "is_motor": true,
      "motor_id": 1,
      "accel_val": 2000,
      "base_duration_us": 241934
    },
    {
      "id": "M_647",
      "pitch": 71,
      "t_note_us": 159676729,
      "t_trigger_us": 159540766,
      "is_ai": false,
      "track_id": 0,
      "velocity": 0,
      "is_motor": true,
      "motor_id": 1,
      "accel_val": 2000,
      "base_duration_us": 241934
    },
    {
      "id": "M_648",
      "pitch": 69,
      "t_note_us": 159918663,
      "t_trigger_us": 159782700,
      "is_ai": false,
      "track_id": 0,
      "velocity": 0,
      "is_motor": true,
      "motor_id": 1,
      "accel_val": 2000,
      "base_duration_us": 241934
    },
    {
      "id": "M_649",
      "pitch": 98,
      "t_note_us": 160160597,
      "t_trigger_us": 160024634,
      "is_ai": true,
      "track_id": 11,
      "velocity": 0,
      "is_motor": false,
      "motor_id": 0,
      "accel_val": 2000,
      "base_duration_us": 241934
    },
    {
      "id": "M_650",
      "pitch": 77,
      "t_note_us": 160160597,
      "t_trigger_us": 160024634,
      "is_ai": false,
      "track_id": 0,
      "velocity": 0,
      "is_motor": true,
      "motor_id": 2,
      "accel_val": 2000,
      "base_duration_us": 241934
    },
    {
      "id": "M_651",
      "pitch": 74,
      "t_note_us": 160160597,
      "t_trigger_us": 160024634,
      "is_ai": false,
      "track_id": 0,
      "velocity": 0,
      "is_motor": true,
      "motor_id": 1,
      "accel_val": 2000,
      "base_duration_us": 241934
    },
    {
      "id": "M_661",
      "pitch": 96,
      "t_note_us": 160402531,
      "t_trigger_us": 160266568,
      "is_ai": true,
      "track_id": 10,
      "velocity": 0,
      "is_motor": false,
      "motor_id": 0,
      "accel_val": 2000,
      "base_duration_us": 2419340
    },
    {
      "id": "M_652",
      "pitch": 72,
      "t_note_us": 160402531,
      "t_trigger_us": 160266568,
      "is_ai": false,
      "track_id": 0,
      "velocity": 0,
      "is_motor": true,
      "motor_id": 1,
      "accel_val": 2000,
      "base_duration_us": 241934
    },
    {
      "id": "M_662",
      "pitch": 76,
      "t_note_us": 160402531,
      "t_trigger_us": 160266568,
      "is_ai": false,
      "track_id": 0,
      "velocity": 0,
      "is_motor": true,
      "motor_id": 2,
      "accel_val": 2000,
      "base_duration_us": 2419340
    },
    {
      "id": "M_653",
      "pitch": 57,
      "t_note_us": 160644465,
      "t_trigger_us": 160508502,
      "is_ai": false,
      "track_id": 0,
      "velocity": 0,
      "is_motor": true,
      "motor_id": 0,
      "accel_val": 2000,
      "base_duration_us": 241934
    },
    {
      "id": "M_654",
      "pitch": 64,
      "t_note_us": 160886399,
      "t_trigger_us": 160750436,
      "is_ai": false,
      "track_id": 0,
      "velocity": 0,
      "is_motor": true,
      "motor_id": 1,
      "accel_val": 2000,
      "base_duration_us": 241934
    },
    {
      "id": "M_655",
      "pitch": 69,
      "t_note_us": 161128333,
      "t_trigger_us": 160992370,
      "is_ai": false,
      "track_id": 0,
      "velocity": 0,
      "is_motor": true,
      "motor_id": 1,
      "accel_val": 2000,
      "base_duration_us": 241934
    },
    {
      "id": "M_656",
      "pitch": 64,
      "t_note_us": 161370267,
      "t_trigger_us": 161234304,
      "is_ai": false,
      "track_id": 0,
      "velocity": 0,
      "is_motor": true,
      "motor_id": 1,
      "accel_val": 2000,
      "base_duration_us": 241934
    },
    {
      "id": "M_657",
      "pitch": 71,
      "t_note_us": 161612201,
      "t_trigger_us": 161476238,
      "is_ai": false,
      "track_id": 0,
      "velocity": 0,
      "is_motor": true,
      "motor_id": 1,
      "accel_val": 2000,
      "base_duration_us": 241934
    },
    {
      "id": "M_658",
      "pitch": 64,
      "t_note_us": 161854135,
      "t_trigger_us": 161718172,
      "is_ai": false,
      "track_id": 0,
      "velocity": 0,
      "is_motor": true,
      "motor_id": 1,
      "accel_val": 2000,
      "base_duration_us": 241934
    },
    {
      "id": "M_659",
      "pitch": 74,
      "t_note_us": 162096069,
      "t_trigger_us": 161960106,
      "is_ai": false,
      "track_id": 0,
      "velocity": 0,
      "is_motor": true,
      "motor_id": 1,
      "accel_val": 2000,
      "base_duration_us": 241934
    },
    {
      "id": "M_660",
      "pitch": 76,
      "t_note_us": 162338003,
      "t_trigger_us": 162202040,
      "is_ai": false,
      "track_id": 0,
      "velocity": 0,
      "is_motor": true,
      "motor_id": 1,
      "accel_val": 2000,
      "base_duration_us": 241934
    },
    {
      "id": "M_663",
      "pitch": 57,
      "t_note_us": 162579937,
      "t_trigger_us": 162443974,
      "is_ai": false,
      "track_id": 0,
      "velocity": 0,
      "is_motor": true,
      "motor_id": 0,
      "accel_val": 2000,
      "base_duration_us": 241934
    },
    {
      "id": "M_664",
      "pitch": 64,
      "t_note_us": 162821871,
      "t_trigger_us": 162685908,
      "is_ai": false,
      "track_id": 0,
      "velocity": 0,
      "is_motor": true,
      "motor_id": 1,
      "accel_val": 2000,
      "base_duration_us": 241934
    },
    {
      "id": "M_666",
      "pitch": 88,
      "t_note_us": 163063805,
      "t_trigger_us": 162927842,
      "is_ai": true,
      "track_id": 5,
      "velocity": 0,
      "is_motor": false,
      "motor_id": 0,
      "accel_val": 2000,
      "base_duration_us": 483868
    },
    {
      "id": "M_667",
      "pitch": 96,
      "t_note_us": 163063805,
      "t_trigger_us": 162927842,
      "is_ai": true,
      "track_id": 10,
      "velocity": 0,
      "is_motor": false,
      "motor_id": 0,
      "accel_val": 2000,
      "base_duration_us": 483868
    },
    {
      "id": "M_665",
      "pitch": 72,
      "t_note_us": 163063805,
      "t_trigger_us": 162927842,
      "is_ai": false,
      "track_id": 0,
      "velocity": 0,
      "is_motor": true,
      "motor_id": 1,
      "accel_val": 2000,
      "base_duration_us": 241934
    },
    {
      "id": "M_668",
      "pitch": 74,
      "t_note_us": 163305739,
      "t_trigger_us": 163169776,
      "is_ai": false,
      "track_id": 0,
      "velocity": 0,
      "is_motor": true,
      "motor_id": 1,
      "accel_val": 2000,
      "base_duration_us": 241934
    },
    {
      "id": "M_670",
      "pitch": 95,
      "t_note_us": 163547673,
      "t_trigger_us": 163411710,
      "is_ai": true,
      "track_id": 9,
      "velocity": 0,
      "is_motor": false,
      "motor_id": 0,
      "accel_val": 2000,
      "base_duration_us": 483868
    },
    {
      "id": "M_669",
      "pitch": 74,
      "t_note_us": 163547673,
      "t_trigger_us": 163411710,
      "is_ai": false,
      "track_id": 0,
      "velocity": 0,
      "is_motor": true,
      "motor_id": 1,
      "accel_val": 2000,
      "base_duration_us": 483868
    },
    {
      "id": "M_671",
      "pitch": 72,
      "t_note_us": 163789607,
      "t_trigger_us": 163653644,
      "is_ai": false,
      "track_id": 0,
      "velocity": 0,
      "is_motor": true,
      "motor_id": 0,
      "accel_val": 2000,
      "base_duration_us": 362901
    },
    {
      "id": "M_672",
      "pitch": 88,
      "t_note_us": 164031541,
      "t_trigger_us": 163895578,
      "is_ai": true,
      "track_id": 5,
      "velocity": 0,
      "is_motor": false,
      "motor_id": 0,
      "accel_val": 2000,
      "base_duration_us": 241934
    },
    {
      "id": "M_673",
      "pitch": 76,
      "t_note_us": 164031541,
      "t_trigger_us": 163895578,
      "is_ai": false,
      "track_id": 0,
      "velocity": 0,
      "is_motor": true,
      "motor_id": 2,
      "accel_val": 2000,
      "base_duration_us": 241934
    },
    {
      "id": "M_679",
      "pitch": 69,
      "t_note_us": 164273475,
      "t_trigger_us": 164137512,
      "is_ai": false,
      "track_id": 0,
      "velocity": 0,
      "is_motor": true,
      "motor_id": 1,
      "accel_val": 2000,
      "base_duration_us": 2419342
    },
    {
      "id": "M_680",
      "pitch": 72,
      "t_note_us": 164273475,
      "t_trigger_us": 164137512,
      "is_ai": false,
      "track_id": 0,
      "velocity": 0,
      "is_motor": true,
      "motor_id": 0,
      "accel_val": 2000,
      "base_duration_us": 2419342
    },
    {
      "id": "M_674",
      "pitch": 53,
      "t_note_us": 164515409,
      "t_trigger_us": 164379446,
      "is_ai": false,
      "track_id": 0,
      "velocity": 0,
      "is_motor": true,
      "motor_id": 2,
      "accel_val": 2000,
      "base_duration_us": 241934
    },
    {
      "id": "M_675",
      "pitch": 60,
      "t_note_us": 164757343,
      "t_trigger_us": 164621380,
      "is_ai": false,
      "track_id": 0,
      "velocity": 0,
      "is_motor": true,
      "motor_id": 2,
      "accel_val": 2000,
      "base_duration_us": 241934
    },
    {
      "id": "M_676",
      "pitch": 67,
      "t_note_us": 164999277,
      "t_trigger_us": 164863314,
      "is_ai": false,
      "track_id": 0,
      "velocity": 0,
      "is_motor": true,
      "motor_id": 2,
      "accel_val": 2000,
      "base_duration_us": 241934
    },
    {
      "id": "M_678",
      "pitch": 69,
      "t_note_us": 165241211,
      "t_trigger_us": 165105248,
      "is_ai": false,
      "track_id": 0,
      "velocity": 0,
      "is_motor": true,
      "motor_id": 2,
      "accel_val": 2000,
      "base_duration_us": 1209672
    },
    {
      "id": "M_677",
      "pitch": 76,
      "t_note_us": 165483145,
      "t_trigger_us": 165347182,
      "is_ai": false,
      "track_id": 0,
      "velocity": 0,
      "is_motor": true,
      "motor_id": 3,
      "accel_val": 2000,
      "base_duration_us": 483869
    },
    {
      "id": "M_681",
      "pitch": 71,
      "t_note_us": 167693319,
      "t_trigger_us": 167557356,
      "is_ai": false,
      "track_id": 0,
      "velocity": 0,
      "is_motor": true,
      "motor_id": 1,
      "accel_val": 2000,
      "base_duration_us": 975297
    },
    {
      "id": "M_687",
      "pitch": 74,
      "t_note_us": 167719780,
      "t_trigger_us": 167583817,
      "is_ai": false,
      "track_id": 0,
      "velocity": 0,
      "is_motor": true,
      "motor_id": 0,
      "accel_val": 2000,
      "base_duration_us": 2006039
    },
    {
      "id": "M_688",
      "pitch": 67,
      "t_note_us": 167719780,
      "t_trigger_us": 167583817,
      "is_ai": false,
      "track_id": 0,
      "velocity": 0,
      "is_motor": true,
      "motor_id": 2,
      "accel_val": 2000,
      "base_duration_us": 2006039
    },
    {
      "id": "M_689",
      "pitch": 96,
      "t_note_us": 168180968,
      "t_trigger_us": 168045005,
      "is_ai": true,
      "track_id": 10,
      "velocity": 0,
      "is_motor": false,
      "motor_id": 0,
      "accel_val": 2000,
      "base_duration_us": 2518890
    },
    {
      "id": "M_682",
      "pitch": 72,
      "t_note_us": 168207429,
      "t_trigger_us": 168071466,
      "is_ai": false,
      "track_id": 0,
      "velocity": 0,
      "is_motor": true,
      "motor_id": 3,
      "accel_val": 2000,
      "base_duration_us": 1165570
    },
    {
      "id": "M_683",
      "pitch": 95,
      "t_note_us": 168640895,
      "t_trigger_us": 168504932,
      "is_ai": true,
      "track_id": 9,
      "velocity": 0,
      "is_motor": false,
      "motor_id": 0,
      "accel_val": 2000,
      "base_duration_us": 1058463
    },
    {
      "id": "M_685",
      "pitch": 71,
      "t_note_us": 168668616,
      "t_trigger_us": 168532653,
      "is_ai": false,
      "track_id": 0,
      "velocity": 0,
      "is_motor": true,
      "motor_id": 1,
      "accel_val": 2000,
      "base_duration_us": 1030742
    },
    {
      "id": "M_686",
      "pitch": 76,
      "t_note_us": 168668616,
      "t_trigger_us": 168532653,
      "is_ai": false,
      "track_id": 0,
      "velocity": 0,
      "is_motor": true,
      "motor_id": 0,
      "accel_val": 2000,
      "base_duration_us": 1030742
    },
    {
      "id": "M_684",
      "pitch": 76,
      "t_note_us": 169129804,
      "t_trigger_us": 168993841,
      "is_ai": false,
      "track_id": 0,
      "velocity": 0,
      "is_motor": true,
      "motor_id": 0,
      "accel_val": 2000,
      "base_duration_us": 569554
    },
    {
      "id": "M_700",
      "pitch": 57,
      "t_note_us": 169645175,
      "t_trigger_us": 169509212,
      "is_ai": false,
      "track_id": 0,
      "velocity": 0,
      "is_motor": true,
      "motor_id": 3,
      "accel_val": 2000,
      "base_duration_us": 3954117
    },
    {
      "id": "M_696",
      "pitch": 74,
      "t_note_us": 170592752,
      "t_trigger_us": 170456789,
      "is_ai": false,
      "track_id": 0,
      "velocity": 0,
      "is_motor": true,
      "motor_id": 1,
      "accel_val": 2000,
      "base_duration_us": 2762086
    },
    {
      "id": "M_692",
      "pitch": 71,
      "t_note_us": 170619213,
      "t_trigger_us": 170483250,
      "is_ai": false,
      "track_id": 0,
      "velocity": 0,
      "is_motor": true,
      "motor_id": 2,
      "accel_val": 2000,
      "base_duration_us": 1543593
    },
    {
      "id": "M_698",
      "pitch": 76,
      "t_note_us": 170619213,
      "t_trigger_us": 170483250,
      "is_ai": false,
      "track_id": 0,
      "velocity": 0,
      "is_motor": true,
      "motor_id": 0,
      "accel_val": 2000,
      "base_duration_us": 2980079
    },
    {
      "id": "M_690",
      "pitch": 96,
      "t_note_us": 170944313,
      "t_trigger_us": 170808350,
      "is_ai": true,
      "track_id": 10,
      "velocity": 0,
      "is_motor": false,
      "motor_id": 0,
      "accel_val": 2000,
      "base_duration_us": 1164311
    },
    {
      "id": "M_695",
      "pitch": 98,
      "t_note_us": 171269413,
      "t_trigger_us": 171133450,
      "is_ai": true,
      "track_id": 11,
      "velocity": 0,
      "is_motor": false,
      "motor_id": 0,
      "accel_val": 2000,
      "base_duration_us": 2058964
    },
    {
      "id": "M_699",
      "pitch": 100,
      "t_note_us": 171593253,
      "t_trigger_us": 171457290,
      "is_ai": true,
      "track_id": 12,
      "velocity": 0,
      "is_motor": false,
      "motor_id": 0,
      "accel_val": 2000,
      "base_duration_us": 2006039
    },
    {
      "id": "M_691",
      "pitch": 72,
      "t_note_us": 172135085,
      "t_trigger_us": 171999122,
      "is_ai": false,
      "track_id": 0,
      "velocity": 0,
      "is_motor": true,
      "motor_id": 0,
      "accel_val": 2000,
      "base_duration_us": 0
    },
    {
      "id": "M_702",
      "pitch": 95,
      "t_note_us": 172596272,
      "t_trigger_us": 172460309,
      "is_ai": true,
      "track_id": 9,
      "velocity": 0,
      "is_motor": false,
      "motor_id": 0,
      "accel_val": 2000,
      "base_duration_us": 1003020
    },
    {
      "id": "M_697",
      "pitch": 71,
      "t_note_us": 172596272,
      "t_trigger_us": 172460309,
      "is_ai": false,
      "track_id": 0,
      "velocity": 0,
      "is_motor": true,
      "motor_id": 2,
      "accel_val": 2000,
      "base_duration_us": 975299
    },
    {
      "id": "M_703",
      "pitch": 67,
      "t_note_us": 172596272,
      "t_trigger_us": 172460309,
      "is_ai": false,
      "track_id": 0,
      "velocity": 0,
      "is_motor": true,
      "motor_id": 0,
      "accel_val": 2000,
      "base_duration_us": 1003020
    },
    {
      "id": "M_704",
      "pitch": 74,
      "t_note_us": 172596272,
      "t_trigger_us": 172460309,
      "is_ai": false,
      "track_id": 0,
      "velocity": 0,
      "is_motor": true,
      "motor_id": 0,
      "accel_val": 2000,
      "base_duration_us": 1003020
    },
    {
      "id": "M_694",
      "pitch": 96,
      "t_note_us": 173085182,
      "t_trigger_us": 172949219,
      "is_ai": true,
      "track_id": 10,
      "velocity": 0,
      "is_motor": false,
      "motor_id": 0,
      "accel_val": 2000,
      "base_duration_us": 0
    },
    {
      "id": "M_693",
      "pitch": 72,
      "t_note_us": 173085182,
      "t_trigger_us": 172949219,
      "is_ai": false,
      "track_id": 0,
      "velocity": 0,
      "is_motor": true,
      "motor_id": 0,
      "accel_val": 2000,
      "base_duration_us": 0
    },
    {
      "id": "M_707",
      "pitch": 98,
      "t_note_us": 173328377,
      "t_trigger_us": 173192414,
      "is_ai": true,
      "track_id": 11,
      "velocity": 0,
      "is_motor": false,
      "motor_id": 0,
      "accel_val": 2000,
      "base_duration_us": 1733864
    },
    {
      "id": "M_701",
      "pitch": 69,
      "t_note_us": 173599292,
      "t_trigger_us": 173463329,
      "is_ai": false,
      "track_id": 0,
      "velocity": 0,
      "is_motor": true,
      "motor_id": 1,
      "accel_val": 2000,
      "base_duration_us": 0
    },
    {
      "id": "M_705",
      "pitch": 76,
      "t_note_us": 173599292,
      "t_trigger_us": 173463329,
      "is_ai": false,
      "track_id": 0,
      "velocity": 0,
      "is_motor": true,
      "motor_id": 2,
      "accel_val": 2000,
      "base_duration_us": 948838
    },
    {
      "id": "M_706",
      "pitch": 72,
      "t_note_us": 173599292,
      "t_trigger_us": 173463329,
      "is_ai": false,
      "track_id": 0,
      "velocity": 0,
      "is_motor": true,
      "motor_id": 0,
      "accel_val": 2000,
      "base_duration_us": 948838
    },
    {
      "id": "M_713",
      "pitch": 65,
      "t_note_us": 173599292,
      "t_trigger_us": 173463329,
      "is_ai": false,
      "track_id": 0,
      "velocity": 0,
      "is_motor": true,
      "motor_id": 3,
      "accel_val": 2000,
      "base_duration_us": 4145652
    },
    {
      "id": "M_709",
      "pitch": 76,
      "t_note_us": 174548130,
      "t_trigger_us": 174412167,
      "is_ai": false,
      "track_id": 0,
      "velocity": 0,
      "is_motor": true,
      "motor_id": 2,
      "accel_val": 2000,
      "base_duration_us": 1029482
    },
    {
      "id": "M_715",
      "pitch": 72,
      "t_note_us": 174548130,
      "t_trigger_us": 174412167,
      "is_ai": false,
      "track_id": 0,
      "velocity": 0,
      "is_motor": true,
      "motor_id": 1,
      "accel_val": 2000,
      "base_duration_us": 3196814
    },
    {
      "id": "M_716",
      "pitch": 72,
      "t_note_us": 174548130,
      "t_trigger_us": 174412167,
      "is_ai": false,
      "track_id": 0,
      "velocity": 0,
      "is_motor": true,
      "motor_id": 0,
      "accel_val": 2000,
      "base_duration_us": 3196814
    },
    {
      "id": "M_708",
      "pitch": 86,
      "t_note_us": 175062241,
      "t_trigger_us": 174926278,
      "is_ai": true,
      "track_id": 4,
      "velocity": 0,
      "is_motor": false,
      "motor_id": 0,
      "accel_val": 2000,
      "base_duration_us": 0
    },
    {
      "id": "M_731",
      "pitch": 100,
      "t_note_us": 175306696,
      "t_trigger_us": 175170733,
      "is_ai": true,
      "track_id": 12,
      "velocity": 0,
      "is_motor": false,
      "motor_id": 0,
      "accel_val": 2000,
      "base_duration_us": 15064221
    },
    {
      "id": "M_712",
      "pitch": 76,
      "t_note_us": 175306696,
      "t_trigger_us": 175170733,
      "is_ai": false,
      "track_id": 0,
      "velocity": 0,
      "is_motor": true,
      "motor_id": 0,
      "accel_val": 2000,
      "base_duration_us": 1842233
    },
    {
      "id": "M_717",
      "pitch": 74,
      "t_note_us": 175577612,
      "t_trigger_us": 175441649,
      "is_ai": false,
      "track_id": 0,
      "velocity": 0,
      "is_motor": true,
      "motor_id": 2,
      "accel_val": 2000,
      "base_duration_us": 2167332
    },
    {
      "id": "M_718",
      "pitch": 71,
      "t_note_us": 175577612,
      "t_trigger_us": 175441649,
      "is_ai": false,
      "track_id": 0,
      "velocity": 0,
      "is_motor": true,
      "motor_id": 0,
      "accel_val": 2000,
      "base_duration_us": 2167332
    },
    {
      "id": "M_719",
      "pitch": 67,
      "t_note_us": 175577612,
      "t_trigger_us": 175441649,
      "is_ai": false,
      "track_id": 0,
      "velocity": 0,
      "is_motor": true,
      "motor_id": 0,
      "accel_val": 2000,
      "base_duration_us": 2167332
    },
    {
      "id": "M_710",
      "pitch": 69,
      "t_note_us": 176580634,
      "t_trigger_us": 176444671,
      "is_ai": false,
      "track_id": 0,
      "velocity": 0,
      "is_motor": true,
      "motor_id": 0,
      "accel_val": 2000,
      "base_duration_us": 0
    },
    {
      "id": "M_711",
      "pitch": 76,
      "t_note_us": 176580634,
      "t_trigger_us": 176444671,
      "is_ai": false,
      "track_id": 0,
      "velocity": 0,
      "is_motor": true,
      "motor_id": 0,
      "accel_val": 2000,
      "base_duration_us": 0
    },
    {
      "id": "M_714",
      "pitch": 69,
      "t_note_us": 176580634,
      "t_trigger_us": 176444671,
      "is_ai": false,
      "track_id": 0,
      "velocity": 0,
      "is_motor": true,
      "motor_id": 0,
      "accel_val": 2000,
      "base_duration_us": 1164310
    },
    {
      "id": "M_728",
      "pitch": 69,
      "t_note_us": 177744944,
      "t_trigger_us": 177608981,
      "is_ai": false,
      "track_id": 0,
      "velocity": 0,
      "is_motor": true,
      "motor_id": 1,
      "accel_val": 2000,
      "base_duration_us": 2004781
    },
    {
      "id": "M_720",
      "pitch": 76,
      "t_note_us": 178043582,
      "t_trigger_us": 177907619,
      "is_ai": false,
      "track_id": 0,
      "velocity": 0,
      "is_motor": true,
      "motor_id": 2,
      "accel_val": 2000,
      "base_duration_us": 0
    },
    {
      "id": "M_721",
      "pitch": 71,
      "t_note_us": 178286777,
      "t_trigger_us": 178150814,
      "is_ai": false,
      "track_id": 0,
      "velocity": 0,
      "is_motor": true,
      "motor_id": 2,
      "accel_val": 2000,
      "base_duration_us": 0
    },
    {
      "id": "M_722",
      "pitch": 96,
      "t_note_us": 178531232,
      "t_trigger_us": 178395269,
      "is_ai": true,
      "track_id": 10,
      "velocity": 0,
      "is_motor": false,
      "motor_id": 0,
      "accel_val": 2000,
      "base_duration_us": 0
    },
    {
      "id": "M_730",
      "pitch": 72,
      "t_note_us": 178531232,
      "t_trigger_us": 178395269,
      "is_ai": false,
      "track_id": 0,
      "velocity": 0,
      "is_motor": true,
      "motor_id": 0,
      "accel_val": 2000,
      "base_duration_us": 4009561
    },
    {
      "id": "M_723",
      "pitch": 76,
      "t_note_us": 178747965,
      "t_trigger_us": 178612002,
      "is_ai": false,
      "track_id": 0,
      "velocity": 0,
      "is_motor": true,
      "motor_id": 2,
      "accel_val": 2000,
      "base_duration_us": 0
    },
    {
      "id": "M_724",
      "pitch": 93,
      "t_note_us": 178991160,
      "t_trigger_us": 178855197,
      "is_ai": true,
      "track_id": 8,
      "velocity": 0,
      "is_motor": false,
      "motor_id": 0,
      "accel_val": 2000,
      "base_duration_us": 54183
    },
    {
      "id": "M_725",
      "pitch": 71,
      "t_note_us": 179209153,
      "t_trigger_us": 179073190,
      "is_ai": false,
      "track_id": 0,
      "velocity": 0,
      "is_motor": true,
      "motor_id": 2,
      "accel_val": 2000,
      "base_duration_us": 0
    },
    {
      "id": "M_726",
      "pitch": 96,
      "t_note_us": 179452348,
      "t_trigger_us": 179316385,
      "is_ai": true,
      "track_id": 10,
      "velocity": 0,
      "is_motor": false,
      "motor_id": 0,
      "accel_val": 2000,
      "base_duration_us": 0
    },
    {
      "id": "M_727",
      "pitch": 98,
      "t_note_us": 179723264,
      "t_trigger_us": 179587301,
      "is_ai": true,
      "track_id": 11,
      "velocity": 0,
      "is_motor": false,
      "motor_id": 0,
      "accel_val": 2000,
      "base_duration_us": 0
    },
    {
      "id": "M_740",
      "pitch": 57,
      "t_note_us": 179749725,
      "t_trigger_us": 179613762,
      "is_ai": false,
      "track_id": 0,
      "velocity": 0,
      "is_motor": true,
      "motor_id": 1,
      "accel_val": 2000,
      "base_duration_us": 10621192
    },
    {
      "id": "M_737",
      "pitch": 103,
      "t_note_us": 179777446,
      "t_trigger_us": 179641483,
      "is_ai": true,
      "track_id": 14,
      "velocity": 0,
      "is_motor": false,
      "motor_id": 0,
      "accel_val": 2000,
      "base_duration_us": 10593471
    },
    {
      "id": "M_734",
      "pitch": 64,
      "t_note_us": 180184451,
      "t_trigger_us": 180048488,
      "is_ai": false,
      "track_id": 0,
      "velocity": 0,
      "is_motor": true,
      "motor_id": 2,
      "accel_val": 2000,
      "base_duration_us": 10186466
    },
    {
      "id": "M_739",
      "pitch": 71,
      "t_note_us": 180536012,
      "t_trigger_us": 180400049,
      "is_ai": false,
      "track_id": 0,
      "velocity": 0,
      "is_motor": true,
      "motor_id": 3,
      "accel_val": 2000,
      "base_duration_us": 9834905
    },
    {
      "id": "M_732",
      "pitch": 72,
      "t_note_us": 180887573,
      "t_trigger_us": 180751610,
      "is_ai": false,
      "track_id": 0,
      "velocity": 0,
      "is_motor": true,
      "motor_id": 0,
      "accel_val": 2000,
      "base_duration_us": 9483344
    },
    {
      "id": "M_736",
      "pitch": 74,
      "t_note_us": 181213933,
      "t_trigger_us": 181077970,
      "is_ai": false,
      "track_id": 0,
      "velocity": 0,
      "is_motor": true,
      "motor_id": 0,
      "accel_val": 2000,
      "base_duration_us": 9156984
    },
    {
      "id": "M_741",
      "pitch": 76,
      "t_note_us": 181564234,
      "t_trigger_us": 181428271,
      "is_ai": false,
      "track_id": 0,
      "velocity": 0,
      "is_motor": true,
      "motor_id": 0,
      "accel_val": 2000,
      "base_duration_us": 8806683
    },
    {
      "id": "M_729",
      "pitch": 69,
      "t_note_us": 181998960,
      "t_trigger_us": 181862997,
      "is_ai": false,
      "track_id": 0,
      "velocity": 0,
      "is_motor": true,
      "motor_id": 0,
      "accel_val": 2000,
      "base_duration_us": 0
    },
    {
      "id": "M_735",
      "pitch": 69,
      "t_note_us": 181998960,
      "t_trigger_us": 181862997,
      "is_ai": false,
      "track_id": 0,
      "velocity": 0,
      "is_motor": true,
      "motor_id": 0,
      "accel_val": 2000,
      "base_duration_us": 8371957
    },
    {
      "id": "M_733",
      "pitch": 84,
      "t_note_us": 182540793,
      "t_trigger_us": 182404830,
      "is_ai": true,
      "track_id": 3,
      "velocity": 0,
      "is_motor": false,
      "motor_id": 0,
      "accel_val": 2000,
      "base_duration_us": 7830124
    },
    {
      "id": "M_738",
      "pitch": 71,
      "t_note_us": 183678643,
      "t_trigger_us": 183542680,
      "is_ai": false,
      "track_id": 0,
      "velocity": 0,
      "is_motor": true,
      "motor_id": 0,
      "accel_val": 2000,
      "base_duration_us": 6692274
    }
  ]
}