{
  "config": {
    "mode_idx": 0,
    "active_motors": [
      0,
      1,
      2,
      3
    ],
    "transpose": 0,
    "arp_speed_ms": 10,
    "gate_time": 100
  },
  "sustain_multiplier": 1.0,
  "notes": [
    {
      "id": "M_0",
      "pitch": 93,
      "t_note_us": 1224489,
      "t_trigger_us": 1088526,
      "is_ai": true,
      "track_id": 8,
      "velocity": 0,
      "is_motor": false,
      "motor_id": 0,
      "accel_val": 2000,
      "base_duration_us": 306122
    },
    {
      "id": "M_1",
      "pitch": 92,
      "t_note_us": 1530611,
      "t_trigger_us": 1394648,
      "is_ai": true,
      "track_id": 0,
      "velocity": 0,
      "is_motor": true,
      "motor_id": 3,
      "accel_val": 2000,
      "base_duration_us": 306122
    },
    {
      "id": "M_2",
      "pitch": 93,
      "t_note_us": 1836733,
      "t_trigger_us": 1700770,
      "is_ai": true,
      "track_id": 8,
      "velocity": 0,
      "is_motor": false,
      "motor_id": 0,
      "accel_val": 2000,
      "base_duration_us": 306122
    },
    {
      "id": "M_3",
      "pitch": 92,
      "t_note_us": 2142855,
      "t_trigger_us": 2006892,
      "is_ai": true,
      "track_id": 0,
      "velocity": 0,
      "is_motor": true,
      "motor_id": 3,
      "accel_val": 2000,
      "base_duration_us": 306122
    },
    {
      "id": "M_4",
      "pitch": 93,
      "t_note_us": 2448977,
      "t_trigger_us": 2313014,
      "is_ai": true,
      "track_id": 8,
      "velocity": 0,
      "is_motor": false,
      "motor_id": 0,
      "accel_val": 2000,
      "base_duration_us": 306122
    },
    {
      "id": "M_5",
      "pitch": 88,
      "t_note_us": 2755099,
      "t_trigger_us": 2619136,
      "is_ai": true,
      "track_id": 5,
      "velocity": 0,
      "is_motor": false,
      "motor_id": 0,
      "accel_val": 2000,
      "base_duration_us": 306122
    },
    {
      "id": "M_6",
      "pitch": 91,
      "t_note_us": 3061221,
      "t_trigger_us": 2925258,
      "is_ai": true,
      "track_id": 7,
      "velocity": 0,
      "is_motor": false,
      "motor_id": 0,
      "accel_val": 2000,
      "base_duration_us": 306122
    },
    {
      "id": "M_7",
      "pitch": 89,
      "t_note_us": 3367343,
      "t_trigger_us": 3231380,
      "is_ai": true,
      "track_id": 6,
      "velocity": 0,
      "is_motor": false,
      "motor_id": 0,
      "accel_val": 2000,
      "base_duration_us": 306122
    },
    {
      "id": "M_8",
      "pitch": 62,
      "t_note_us": 3673465,
      "t_trigger_us": 3537502,
      "is_ai": false,
      "track_id": 0,
      "velocity": 0,
      "is_motor": true,
      "motor_id": 1,
      "accel_val": 2000,
      "base_duration_us": 306122
    },
    {
      "id": "M_10",
      "pitch": 74,
      "t_note_us": 3673465,
      "t_trigger_us": 3537502,
      "is_ai": false,
      "track_id": 0,
      "velocity": 0,
      "is_motor": true,
      "motor_id": 0,
      "accel_val": 2000,
      "base_duration_us": 612244
    },
    {
      "id": "M_9",
      "pitch": 69,
      "t_note_us": 3979587,
      "t_trigger_us": 3843624,
      "is_ai": false,
      "track_id": 0,
      "velocity": 0,
      "is_motor": true,
      "motor_id": 1,
      "accel_val": 2000,
      "base_duration_us": 306122
    },
    {
      "id": "M_11",
      "pitch": 74,
      "t_note_us": 4285709,
      "t_trigger_us": 4149746,
      "is_ai": false,
      "track_id": 0,
      "velocity": 0,
      "is_motor": true,
      "motor_id": 1,
      "accel_val": 2000,
      "base_duration_us": 306122
    },
    {
      "id": "M_12",
      "pitch": 77,
      "t_note_us": 4591831,
      "t_trigger_us": 4455868,
      "is_ai": false,
      "track_id": 0,
      "velocity": 0,
      "is_motor": true,
      "motor_id": 2,
      "accel_val": 2000,
      "base_duration_us": 306122
    },
    {
      "id": "M_13",
      "pitch": 69,
      "t_note_us": 4897953,
      "t_trigger_us": 4761990,
      "is_ai": false,
      "track_id": 0,
      "velocity": 0,
      "is_motor": true,
      "motor_id": 1,
      "accel_val": 2000,
      "base_duration_us": 306122
    },
    {
      "id": "M_14",
      "pitch": 74,
      "t_note_us": 5204075,
      "t_trigger_us": 5068112,
      "is_ai": false,
      "track_id": 0,
      "velocity": 0,
      "is_motor": true,
      "motor_id": 1,
      "accel_val": 2000,
      "base_duration_us": 306122
    },
    {
      "id": "M_15",
      "pitch": 57,
      "t_note_us": 5510197,
      "t_trigger_us": 5374234,
      "is_ai": false,
      "track_id": 0,
      "velocity": 0,
      "is_motor": true,
      "motor_id": 0,
      "accel_val": 2000,
      "base_duration_us": 306122
    },
    {
      "id": "M_17",
      "pitch": 76,
      "t_note_us": 5510197,
      "t_trigger_us": 5374234,
      "is_ai": false,
      "track_id": 0,
      "velocity": 0,
      "is_motor": true,
      "motor_id": 2,
      "accel_val": 2000,
      "base_duration_us": 612244
    },
    {
      "id": "M_16",
      "pitch": 69,
      "t_note_us": 5816319,
      "t_trigger_us": 5680356,
      "is_ai": false,
      "track_id": 0,
      "velocity": 0,
      "is_motor": true,
      "motor_id": 1,
      "accel_val": 2000,
      "base_duration_us": 306122
    },
    {
      "id": "M_18",
      "pitch": 73,
      "t_note_us": 6122441,
      "t_trigger_us": 5986478,
      "is_ai": false,
      "track_id": 0,
      "velocity": 0,
      "is_motor": true,
      "motor_id": 1,
      "accel_val": 2000,
      "base_duration_us": 306122
    },
    {
      "id": "M_19",
      "pitch": 69,
      "t_note_us": 6428563,
      "t_trigger_us": 6292600,
      "is_ai": false,
      "track_id": 0,
      "velocity": 0,
      "is_motor": true,
      "motor_id": 1,
      "accel_val": 2000,
      "base_duration_us": 306122
    },
    {
      "id": "M_20",
      "pitch": 73,
      "t_note_us": 6734685,
      "t_trigger_us": 6598722,
      "is_ai": false,
      "track_id": 0,
      "velocity": 0,
      "is_motor": true,
      "motor_id": 1,
      "accel_val": 2000,
      "base_duration_us": 306122
    },
    {
      "id": "M_21",
      "pitch": 88,
      "t_note_us": 7040807,
      "t_trigger_us": 6904844,
      "is_ai": true,
      "track_id": 5,
      "velocity": 0,
      "is_motor": false,
      "motor_id": 0,
      "accel_val": 2000,
      "base_duration_us": 306122
    },
    {
      "id": "M_22",
      "pitch": 62,
      "t_note_us": 7346929,
      "t_trigger_us": 7210966,
      "is_ai": false,
      "track_id": 0,
      "velocity": 0,
      "is_motor": true,
      "motor_id": 1,
      "accel_val": 2000,
      "base_duration_us": 306122
    },
    {
      "id": "M_24",
      "pitch": 77,
      "t_note_us": 7346929,
      "t_trigger_us": 7210966,
      "is_ai": false,
      "track_id": 0,
      "velocity": 0,
      "is_motor": true,
      "motor_id": 2,
      "accel_val": 2000,
      "base_duration_us": 612244
    },
    {
      "id": "M_23",
      "pitch": 69,
      "t_note_us": 7653051,
      "t_trigger_us": 7517088,
      "is_ai": false,
      "track_id": 0,
      "velocity": 0,
      "is_motor": true,
      "motor_id": 1,
      "accel_val": 2000,
      "base_duration_us": 306122
    },
    {
      "id": "M_25",
      "pitch": 74,
      "t_note_us": 7959173,
      "t_trigger_us": 7823210,
      "is_ai": false,
      "track_id": 0,
      "velocity": 0,
      "is_motor": true,
      "motor_id": 1,
      "accel_val": 2000,
      "base_duration_us": 306122
    },
    {
      "id": "M_26",
      "pitch": 69,
      "t_note_us": 8265295,
      "t_trigger_us": 8129332,
      "is_ai": false,
      "track_id": 0,
      "velocity": 0,
      "is_motor": true,
      "motor_id": 1,
      "accel_val": 2000,
      "base_duration_us": 306122
    },
    {
      "id": "M_27",
      "pitch": 93,
      "t_note_us": 8571417,
      "t_trigger_us": 8435454,
      "is_ai": true,
      "track_id": 8,
      "velocity": 0,
      "is_motor": false,
      "motor_id": 0,
      "accel_val": 2000,
      "base_duration_us": 306122
    },
    {
      "id": "M_28",
      "pitch": 92,
      "t_note_us": 8877539,
      "t_trigger_us": 8741576,
      "is_ai": true,
      "track_id": 0,
      "velocity": 0,
      "is_motor": true,
      "motor_id": 3,
      "accel_val": 2000,
      "base_duration_us": 306122
    },
    {
      "id": "M_29",
      "pitch": 93,
      "t_note_us": 9183661,
      "t_trigger_us": 9047698,
      "is_ai": true,
      "track_id": 8,
      "velocity": 0,
      "is_motor": false,
      "motor_id": 0,
      "accel_val": 2000,
      "base_duration_us": 306122
    },
    {
      "id": "M_30",
      "pitch": 92,
      "t_note_us": 9489783,
      "t_trigger_us": 9353820,
      "is_ai": true,
      "track_id": 0,
      "velocity": 0,
      "is_motor": true,
      "motor_id": 3,
      "accel_val": 2000,
      "base_duration_us": 306122
    },
    {
      "id": "M_31",
      "pitch": 93,
      "t_note_us": 9795905,
      "t_trigger_us": 9659942,
      "is_ai": true,
      "track_id": 8,
      "velocity": 0,
      "is_motor": false,
      "motor_id": 0,
      "accel_val": 2000,
      "base_duration_us": 306122
    },
    {
      "id": "M_32",
      "pitch": 88,
      "t_note_us": 10102027,
      "t_trigger_us": 9966064,
      "is_ai": true,
      "track_id": 5,
      "velocity": 0,
      "is_motor": false,
      "motor_id": 0,
      "accel_val": 2000,
      "base_duration_us": 306122
    },
    {
      "id": "M_33",
      "pitch": 91,
      "t_note_us": 10408149,
      "t_trigger_us": 10272186,
      "is_ai": true,
      "track_id": 7,
      "velocity": 0,
      "is_motor": false,
      "motor_id": 0,
      "accel_val": 2000,
      "base_duration_us": 306122
    },
    {
      "id": "M_34",
      "pitch": 89,
      "t_note_us": 10714271,
      "t_trigger_us": 10578308,
      "is_ai": true,
      "track_id": 6,
      "velocity": 0,
      "is_motor": false,
      "motor_id": 0,
      "accel_val": 2000,
      "base_duration_us": 306122
    },
    {
      "id": "M_35",
      "pitch": 62,
      "t_note_us": 11020393,
      "t_trigger_us": 10884430,
      "is_ai": false,
      "track_id": 0,
      "velocity": 0,
      "is_motor": true,
      "motor_id": 1,
      "accel_val": 2000,
      "base_duration_us": 306122
    },
    {
      "id": "M_37",
      "pitch": 74,
      "t_note_us": 11020393,
      "t_trigger_us": 10884430,
      "is_ai": false,
      "track_id": 0,
      "velocity": 0,
      "is_motor": true,
      "motor_id": 0,
      "accel_val": 2000,
      "base_duration_us": 612244
    },
    {
      "id": "M_36",
      "pitch": 69,
      "t_note_us": 11326515,
      "t_trigger_us": 11190552,
      "is_ai": false,
      "track_id": 0,
      "velocity": 0,
      "is_motor": true,
      "motor_id": 1,
      "accel_val": 2000,
      "base_duration_us": 306122
    },
    {
      "id": "M_38",
      "pitch": 74,
      "t_note_us": 11632637,
      "t_trigger_us": 11496674,
      "is_ai": false,
      "track_id": 0,
      "velocity": 0,
      "is_motor": true,
      "motor_id": 1,
      "accel_val": 2000,
      "base_duration_us": 306122
    },
    {
      "id": "M_39",
      "pitch": 77,
      "t_note_us": 11938759,
      "t_trigger_us": 11802796,
      "is_ai": false,
      "track_id": 0,
      "velocity": 0,
      "is_motor": true,
      "motor_id": 2,
      "accel_val": 2000,
      "base_duration_us": 306122
    },
    {
      "id": "M_40",
      "pitch": 69,
      "t_note_us": 12244881,
      "t_trigger_us": 12108918,
      "is_ai": false,
      "track_id": 0,
      "velocity": 0,
      "is_motor": true,
      "motor_id": 1,
      "accel_val": 2000,
      "base_duration_us": 306122
    },
    {
      "id": "M_41",
      "pitch": 74,
      "t_note_us": 12551003,
      "t_trigger_us": 12415040,
      "is_ai": false,
      "track_id": 0,
      "velocity": 0,
      "is_motor": true,
      "motor_id": 1,
      "accel_val": 2000,
      "base_duration_us": 306122
    },
    {
      "id": "M_42",
      "pitch": 57,
      "t_note_us": 12857125,
      "t_trigger_us": 12721162,
      "is_ai": false,
      "track_id": 0,
      "velocity": 0,
      "is_motor": true,
      "motor_id": 0,
      "accel_val": 2000,
      "base_duration_us": 306122
    },
    {
      "id": "M_44",
      "pitch": 76,
      "t_note_us": 12857125,
      "t_trigger_us": 12721162,
      "is_ai": false,
      "track_id": 0,
      "velocity": 0,
      "is_motor": true,
      "motor_id": 2,
      "accel_val": 2000,
      "base_duration_us": 612244
    },
    {
      "id": "M_43",
      "pitch": 69,
      "t_note_us": 13163247,
      "t_trigger_us": 13027284,
      "is_ai": false,
      "track_id": 0,
      "velocity": 0,
      "is_motor": true,
      "motor_id": 1,
      "accel_val": 2000,
      "base_duration_us": 306122
    },
    {
      "id": "M_45",
      "pitch": 73,
      "t_note_us": 13469369,
      "t_trigger_us": 13333406,
      "is_ai": false,
      "track_id": 0,
      "velocity": 0,
      "is_motor": true,
      "motor_id": 1,
      "accel_val": 2000,
      "base_duration_us": 306122
    },
    {
      "id": "M_46",
      "pitch": 69,
      "t_note_us": 13775491,
      "t_trigger_us": 13639528,
      "is_ai": false,
      "track_id": 0,
      "velocity": 0,
      "is_motor": true,
      "motor_id": 1,
      "accel_val": 2000,
      "base_duration_us": 306122
    },
    {
      "id": "M_47",
      "pitch": 89,
      "t_note_us": 14081613,
      "t_trigger_us": 13945650,
      "is_ai": true,
      "track_id": 6,
      "velocity": 0,
      "is_motor": false,
      "motor_id": 0,
      "accel_val": 2000,
      "base_duration_us": 306122
    },
    {
      "id": "M_48",
      "pitch": 88,
      "t_note_us": 14387735,
      "t_trigger_us": 14251772,
      "is_ai": true,
      "track_id": 5,
      "velocity": 0,
      "is_motor": false,
      "motor_id": 0,
      "accel_val": 2000,
      "base_duration_us": 306122
    },
    {
      "id": "M_49",
      "pitch": 62,
      "t_note_us": 14693857,
      "t_trigger_us": 14557894,
      "is_ai": false,
      "track_id": 0,
      "velocity": 0,
      "is_motor": true,
      "motor_id": 1,
      "accel_val": 2000,
      "base_duration_us": 306122
    },
    {
      "id": "M_51",
      "pitch": 74,
      "t_note_us": 14693857,
      "t_trigger_us": 14557894,
      "is_ai": false,
      "track_id": 0,
      "velocity": 0,
      "is_motor": true,
      "motor_id": 0,
      "accel_val": 2000,
      "base_duration_us": 612244
    },
    {
      "id": "M_50",
      "pitch": 69,
      "t_note_us": 14999979,
      "t_trigger_us": 14864016,
      "is_ai": false,
      "track_id": 0,
      "velocity": 0,
      "is_motor": true,
      "motor_id": 1,
      "accel_val": 2000,
      "base_duration_us": 306122
    },
    {
      "id": "M_52",
      "pitch": 74,
      "t_note_us": 15306101,
      "t_trigger_us": 15170138,
      "is_ai": false,
      "track_id": 0,
      "velocity": 0,
      "is_motor": true,
      "motor_id": 1,
      "accel_val": 2000,
      "base_duration_us": 306122
    },
    {
      "id": "M_53",
      "pitch": 93,
      "t_note_us": 15918345,
      "t_trigger_us": 15782382,
      "is_ai": true,
      "track_id": 8,
      "velocity": 0,
      "is_motor": false,
      "motor_id": 0,
      "accel_val": 2000,
      "base_duration_us": 306122
    },
    {
      "id": "M_54",
      "pitch": 92,
      "t_note_us": 16224467,
      "t_trigger_us": 16088504,
      "is_ai": true,
      "track_id": 0,
      "velocity": 0,
      "is_motor": true,
      "motor_id": 3,
      "accel_val": 2000,
      "base_duration_us": 306122
    },
    {
      "id": "M_55",
      "pitch": 93,
      "t_note_us": 16530589,
      "t_trigger_us": 16394626,
      "is_ai": true,
      "track_id": 8,
      "velocity": 0,
      "is_motor": false,
      "motor_id": 0,
      "accel_val": 2000,
      "base_duration_us": 306122
    },
    {
      "id": "M_56",
      "pitch": 92,
      "t_note_us": 16836711,
      "t_trigger_us": 16700748,
      "is_ai": true,
      "track_id": 0,
      "velocity": 0,
      "is_motor": true,
      "motor_id": 3,
      "accel_val": 2000,
      "base_duration_us": 306122
    },
    {
      "id": "M_57",
      "pitch": 93,
      "t_note_us": 17142833,
      "t_trigger_us": 17006870,
      "is_ai": true,
      "track_id": 8,
      "velocity": 0,
      "is_motor": false,
      "motor_id": 0,
      "accel_val": 2000,
      "base_duration_us": 306122
    },
    {
      "id": "M_58",
      "pitch": 88,
      "t_note_us": 17448955,
      "t_trigger_us": 17312992,
      "is_ai": true,
      "track_id": 5,
      "velocity": 0,
      "is_motor": false,
      "motor_id": 0,
      "accel_val": 2000,
      "base_duration_us": 306122
    },
    {
      "id": "M_59",
      "pitch": 91,
      "t_note_us": 17755077,
      "t_trigger_us": 17619114,
      "is_ai": true,
      "track_id": 7,
      "velocity": 0,
      "is_motor": false,
      "motor_id": 0,
      "accel_val": 2000,
      "base_duration_us": 306122
    },
    {
      "id": "M_60",
      "pitch": 89,
      "t_note_us": 18061199,
      "t_trigger_us": 17925236,
      "is_ai": true,
      "track_id": 6,
      "velocity": 0,
      "is_motor": false,
      "motor_id": 0,
      "accel_val": 2000,
      "base_duration_us": 306122
    },
    {
      "id": "M_61",
      "pitch": 62,
      "t_note_us": 18367321,
      "t_trigger_us": 18231358,
      "is_ai": false,
      "track_id": 0,
      "velocity": 0,
      "is_motor": true,
      "motor_id": 1,
      "accel_val": 2000,
      "base_duration_us": 306122
    },
    {
      "id": "M_63",
      "pitch": 74,
      "t_note_us": 18367321,
      "t_trigger_us": 18231358,
      "is_ai": false,
      "track_id": 0,
      "velocity": 0,
      "is_motor": true,
      "motor_id": 0,
      "accel_val": 2000,
      "base_duration_us": 612244
    },
    {
      "id": "M_62",
      "pitch": 69,
      "t_note_us": 18673443,
      "t_trigger_us": 18537480,
      "is_ai": false,
      "track_id": 0,
      "velocity": 0,
      "is_motor": true,
      "motor_id": 1,
      "accel_val": 2000,
      "base_duration_us": 306122
    },
    {
      "id": "M_64",
      "pitch": 74,
      "t_note_us": 18979565,
      "t_trigger_us": 18843602,
      "is_ai": false,
      "track_id": 0,
      "velocity": 0,
      "is_motor": true,
      "motor_id": 1,
      "accel_val": 2000,
      "base_duration_us": 306122
    },
    {
      "id": "M_65",
      "pitch": 77,
      "t_note_us": 19285687,
      "t_trigger_us": 19149724,
      "is_ai": false,
      "track_id": 0,
      "velocity": 0,
      "is_motor": true,
      "motor_id": 2,
      "accel_val": 2000,
      "base_duration_us": 306122
    },
    {
      "id": "M_66",
      "pitch": 69,
      "t_note_us": 19591809,
      "t_trigger_us": 19455846,
      "is_ai": false,
      "track_id": 0,
      "velocity": 0,
      "is_motor": true,
      "motor_id": 1,
      "accel_val": 2000,
      "base_duration_us": 306122
    },
    {
      "id": "M_67",
      "pitch": 74,
      "t_note_us": 19897931,
      "t_trigger_us": 19761968,
      "is_ai": false,
      "track_id": 0,
      "velocity": 0,
      "is_motor": true,
      "motor_id": 1,
      "accel_val": 2000,
      "base_duration_us": 306122
    },
    {
      "id": "M_68",
      "pitch": 57,
      "t_note_us": 20204053,
      "t_trigger_us": 20068090,
      "is_ai": false,
      "track_id": 0,
      "velocity": 0,
      "is_motor": true,
      "motor_id": 0,
      "accel_val": 2000,
      "base_duration_us": 306122
    },
    {
      "id": "M_70",
      "pitch": 76,
      "t_note_us": 20204053,
      "t_trigger_us": 20068090,
      "is_ai": false,
      "track_id": 0,
      "velocity": 0,
      "is_motor": true,
      "motor_id": 2,
      "accel_val": 2000,
      "base_duration_us": 612244
    },
    {
      "id": "M_69",
      "pitch": 69,
      "t_note_us": 20510175,
      "t_trigger_us": 20374212,
      "is_ai": false,
      "track_id": 0,
      "velocity": 0,
      "is_motor": true,
      "motor_id": 1,
      "accel_val": 2000,
      "base_duration_us": 306122
    },
    {
      "id": "M_71",
      "pitch": 73,
      "t_note_us": 20816297,
      "t_trigger_us": 20680334,
      "is_ai": false,
      "track_id": 0,
      "velocity": 0,
      "is_motor": true,
      "motor_id": 1,
      "accel_val": 2000,
      "base_duration_us": 306122
    },
    {
      "id": "M_72",
      "pitch": 69,
      "t_note_us": 21122419,
      "t_trigger_us": 20986456,
      "is_ai": false,
      "track_id": 0,
      "velocity": 0,
      "is_motor": true,
      "motor_id": 1,
      "accel_val": 2000,
      "base_duration_us": 306122
    },
    {
      "id": "M_73",
      "pitch": 73,
      "t_note_us": 21428541,
      "t_trigger_us": 21292578,
      "is_ai": false,
      "track_id": 0,
      "velocity": 0,
      "is_motor": true,
      "motor_id": 1,
      "accel_val": 2000,
      "base_duration_us": 306122
    },
    {
      "id": "M_74",
      "pitch": 88,
      "t_note_us": 21734663,
      "t_trigger_us": 21598700,
      "is_ai": true,
      "track_id": 5,
      "velocity": 0,
      "is_motor": false,
      "motor_id": 0,
      "accel_val": 2000,
      "base_duration_us": 306122
    },
    {
      "id": "M_75",
      "pitch": 62,
      "t_note_us": 22040785,
      "t_trigger_us": 21904822,
      "is_ai": false,
      "track_id": 0,
      "velocity": 0,
      "is_motor": true,
      "motor_id": 1,
      "accel_val": 2000,
      "base_duration_us": 306122
    },
    {
      "id": "M_77",
      "pitch": 77,
      "t_note_us": 22040785,
      "t_trigger_us": 21904822,
      "is_ai": false,
      "track_id": 0,
      "velocity": 0,
      "is_motor": true,
      "motor_id": 2,
      "accel_val": 2000,
      "base_duration_us": 612244
    },
    {
      "id": "M_76",
      "pitch": 69,
      "t_note_us": 22346907,
      "t_trigger_us": 22210944,
      "is_ai": false,
      "track_id": 0,
      "velocity": 0,
      "is_motor": true,
      "motor_id": 1,
      "accel_val": 2000,
      "base_duration_us": 306122
    },
    {
      "id": "M_78",
      "pitch": 74,
      "t_note_us": 22653029,
      "t_trigger_us": 22517066,
      "is_ai": false,
      "track_id": 0,
      "velocity": 0,
      "is_motor": true,
      "motor_id": 1,
      "accel_val": 2000,
      "base_duration_us": 306122
    },
    {
      "id": "M_79",
      "pitch": 69,
      "t_note_us": 22959151,
      "t_trigger_us": 22823188,
      "is_ai": false,
      "track_id": 0,
      "velocity": 0,
      "is_motor": true,
      "motor_id": 1,
      "accel_val": 2000,
      "base_duration_us": 306122
    },
    {
      "id": "M_80",
      "pitch": 93,
      "t_note_us": 23265273,
      "t_trigger_us": 23129310,
      "is_ai": true,
      "track_id": 8,
      "velocity": 0,
      "is_motor": false,
      "motor_id": 0,
      "accel_val": 2000,
      "base_duration_us": 306122
    },
    {
      "id": "M_81",
      "pitch": 92,
      "t_note_us": 23571395,
      "t_trigger_us": 23435432,
      "is_ai": true,
      "track_id": 0,
      "velocity": 0,
      "is_motor": true,
      "motor_id": 3,
      "accel_val": 2000,
      "base_duration_us": 306122
    },
    {
      "id": "M_82",
      "pitch": 93,
      "t_note_us": 23877517,
      "t_trigger_us": 23741554,
      "is_ai": true,
      "track_id": 8,
      "velocity": 0,
      "is_motor": false,
      "motor_id": 0,
      "accel_val": 2000,
      "base_duration_us": 306122
    },
    {
      "id": "M_83",
      "pitch": 92,
      "t_note_us": 24183639,
      "t_trigger_us": 24047676,
      "is_ai": true,
      "track_id": 0,
      "velocity": 0,
      "is_motor": true,
      "motor_id": 3,
      "accel_val": 2000,
      "base_duration_us": 306122
    },
    {
      "id": "M_84",
      "pitch": 93,
      "t_note_us": 24489761,
      "t_trigger_us": 24353798,
      "is_ai": true,
      "track_id": 8,
      "velocity": 0,
      "is_motor": false,
      "motor_id": 0,
      "accel_val": 2000,
      "base_duration_us": 306122
    },
    {
      "id": "M_85",
      "pitch": 88,
      "t_note_us": 24795883,
      "t_trigger_us": 24659920,
      "is_ai": true,
      "track_id": 5,
      "velocity": 0,
      "is_motor": false,
      "motor_id": 0,
      "accel_val": 2000,
      "base_duration_us": 306122
    },
    {
      "id": "M_86",
      "pitch": 91,
      "t_note_us": 25102005,
      "t_trigger_us": 24966042,
      "is_ai": true,
      "track_id": 7,
      "velocity": 0,
      "is_motor": false,
      "motor_id": 0,
      "accel_val": 2000,
      "base_duration_us": 306122
    },
    {
      "id": "M_87",
      "pitch": 89,
      "t_note_us": 25408127,
      "t_trigger_us": 25272164,
      "is_ai": true,
      "track_id": 6,
      "velocity": 0,
      "is_motor": false,
      "motor_id": 0,
      "accel_val": 2000,
      "base_duration_us": 306122
    },
    {
      "id": "M_88",
      "pitch": 62,
      "t_note_us": 25714249,
      "t_trigger_us": 25578286,
      "is_ai": false,
      "track_id": 0,
      "velocity": 0,
      "is_motor": true,
      "motor_id": 1,
      "accel_val": 2000,
      "base_duration_us": 306122
    },
    {
      "id": "M_90",
      "pitch": 74,
      "t_note_us": 25714249,
      "t_trigger_us": 25578286,
      "is_ai": false,
      "track_id": 0,
      "velocity": 0,
      "is_motor": true,
      "motor_id": 0,
      "accel_val": 2000,
      "base_duration_us": 612244
    },
    {
      "id": "M_89",
      "pitch": 69,
      "t_note_us": 26020371,
      "t_trigger_us": 25884408,
      "is_ai": false,
      "track_id": 0,
      "velocity": 0,
      "is_motor": true,
      "motor_id": 1,
      "accel_val": 2000,
      "base_duration_us": 306122
    },
    {
      "id": "M_91",
      "pitch": 74,
      "t_note_us": 26326493,
      "t_trigger_us": 26190530,
      "is_ai": false,
      "track_id": 0,
      "velocity": 0,
      "is_motor": true,
      "motor_id": 1,
      "accel_val": 2000,
      "base_duration_us": 306122
    },
    {
      "id": "M_92",
      "pitch": 77,
      "t_note_us": 26632615,
      "t_trigger_us": 26496652,
      "is_ai": false,
      "track_id": 0,
      "velocity": 0,
      "is_motor": true,
      "motor_id": 2,
      "accel_val": 2000,
      "base_duration_us": 306122
    },
    {
      "id": "M_93",
      "pitch": 69,
      "t_note_us": 26938737,
      "t_trigger_us": 26802774,
      "is_ai": false,
      "track_id": 0,
      "velocity": 0,
      "is_motor": true,
      "motor_id": 1,
      "accel_val": 2000,
      "base_duration_us": 306122
    },
    {
      "id": "M_94",
      "pitch": 74,
      "t_note_us": 27244859,
      "t_trigger_us": 27108896,
      "is_ai": false,
      "track_id": 0,
      "velocity": 0,
      "is_motor": true,
      "motor_id": 1,
      "accel_val": 2000,
      "base_duration_us": 306122
    },
    {
      "id": "M_95",
      "pitch": 57,
      "t_note_us": 27550981,
      "t_trigger_us": 27415018,
      "is_ai": false,
      "track_id": 0,
      "velocity": 0,
      "is_motor": true,
      "motor_id": 0,
      "accel_val": 2000,
      "base_duration_us": 306122
    },
    {
      "id": "M_97",
      "pitch": 76,
      "t_note_us": 27550981,
      "t_trigger_us": 27415018,
      "is_ai": false,
      "track_id": 0,
      "velocity": 0,
      "is_motor": true,
      "motor_id": 2,
      "accel_val": 2000,
      "base_duration_us": 612244
    },
    {
      "id": "M_96",
      "pitch": 69,
      "t_note_us": 27857103,
      "t_trigger_us": 27721140,
      "is_ai": false,
      "track_id": 0,
      "velocity": 0,
      "is_motor": true,
      "motor_id": 1,
      "accel_val": 2000,
      "base_duration_us": 306122
    },
    {
      "id": "M_98",
      "pitch": 73,
      "t_note_us": 28163225,
      "t_trigger_us": 28027262,
      "is_ai": false,
      "track_id": 0,
      "velocity": 0,
      "is_motor": true,
      "motor_id": 1,
      "accel_val": 2000,
      "base_duration_us": 306122
    },
    {
      "id": "M_99",
      "pitch": 69,
      "t_note_us": 28469347,
      "t_trigger_us": 28333384,
      "is_ai": false,
      "track_id": 0,
      "velocity": 0,
      "is_motor": true,
      "motor_id": 1,
      "accel_val": 2000,
      "base_duration_us": 306122
    },
    {
      "id": "M_100",
      "pitch": 89,
      "t_note_us": 28775469,
      "t_trigger_us": 28639506,
      "is_ai": true,
      "track_id": 6,
      "velocity": 0,
      "is_motor": false,
      "motor_id": 0,
      "accel_val": 2000,
      "base_duration_us": 306122
    },
    {
      "id": "M_101",
      "pitch": 88,
      "t_note_us": 29081591,
      "t_trigger_us": 28945628,
      "is_ai": true,
      "track_id": 5,
      "velocity": 0,
      "is_motor": false,
      "motor_id": 0,
      "accel_val": 2000,
      "base_duration_us": 306122
    },
    {
      "id": "M_102",
      "pitch": 62,
      "t_note_us": 29387713,
      "t_trigger_us": 29251750,
      "is_ai": false,
      "track_id": 0,
      "velocity": 0,
      "is_motor": true,
      "motor_id": 1,
      "accel_val": 2000,
      "base_duration_us": 306122
    },
    {
      "id": "M_104",
      "pitch": 74,
      "t_note_us": 29387713,
      "t_trigger_us": 29251750,
      "is_ai": false,
      "track_id": 0,
      "velocity": 0,
      "is_motor": true,
      "motor_id": 0,
      "accel_val": 2000,
      "base_duration_us": 612244
    },
    {
      "id": "M_103",
      "pitch": 69,
      "t_note_us": 29693835,
      "t_trigger_us": 29557872,
      "is_ai": false,
      "track_id": 0,
      "velocity": 0,
      "is_motor": true,
      "motor_id": 1,
      "accel_val": 2000,
      "base_duration_us": 306122
    },
    {
      "id": "M_105",
      "pitch": 74,
      "t_note_us": 29999957,
      "t_trigger_us": 29863994,
      "is_ai": false,
      "track_id": 0,
      "velocity": 0,
      "is_motor": true,
      "motor_id": 1,
      "accel_val": 2000,
      "base_duration_us": 306122
    },
    {
      "id": "M_106",
      "pitch": 88,
      "t_note_us": 30306079,
      "t_trigger_us": 30170116,
      "is_ai": true,
      "track_id": 5,
      "velocity": 0,
      "is_motor": false,
      "motor_id": 0,
      "accel_val": 2000,
      "base_duration_us": 306122
    },
    {
      "id": "M_107",
      "pitch": 77,
      "t_note_us": 30612201,
      "t_trigger_us": 30476238,
      "is_ai": false,
      "track_id": 0,
      "velocity": 0,
      "is_motor": true,
      "motor_id": 2,
      "accel_val": 2000,
      "base_duration_us": 306122
    },
    {
      "id": "M_108",
      "pitch": 91,
      "t_note_us": 30918323,
      "t_trigger_us": 30782360,
      "is_ai": true,
      "track_id": 7,
      "velocity": 0,
      "is_motor": false,
      "motor_id": 0,
      "accel_val": 2000,
      "base_duration_us": 306122
    },
    {
      "id": "M_112",
      "pitch": 93,
      "t_note_us": 31224445,
      "t_trigger_us": 31088482,
      "is_ai": true,
      "track_id": 8,
      "velocity": 0,
      "is_motor": false,
      "motor_id": 0,
      "accel_val": 2000,
      "base_duration_us": 918366
    },
    {
      "id": "M_109",
      "pitch": 65,
      "t_note_us": 31224445,
      "t_trigger_us": 31088482,
      "is_ai": false,
      "track_id": 0,
      "velocity": 0,
      "is_motor": true,
      "motor_id": 1,
      "accel_val": 2000,
      "base_duration_us": 306122
    },
    {
      "id": "M_110",
      "pitch": 72,
      "t_note_us": 31530567,
      "t_trigger_us": 31394604,
      "is_ai": false,
      "track_id": 0,
      "velocity": 0,
      "is_motor": true,
      "motor_id": 1,
      "accel_val": 2000,
      "base_duration_us": 306122
    },
    {
      "id": "M_111",
      "pitch": 77,
      "t_note_us": 31836689,
      "t_trigger_us": 31700726,
      "is_ai": false,
      "track_id": 0,
      "velocity": 0,
      "is_motor": true,
      "motor_id": 2,
      "accel_val": 2000,
      "base_duration_us": 306122
    },
    {
      "id": "M_113",
      "pitch": 72,
      "t_note_us": 32142811,
      "t_trigger_us": 32006848,
      "is_ai": false,
      "track_id": 0,
      "velocity": 0,
      "is_motor": true,
      "motor_id": 1,
      "accel_val": 2000,
      "base_duration_us": 306122
    },
    {
      "id": "M_114",
      "pitch": 94,
      "t_note_us": 32448933,
      "t_trigger_us": 32312970,
      "is_ai": true,
      "track_id": 0,
      "velocity": 0,
      "is_motor": true,
      "motor_id": 3,
      "accel_val": 2000,
      "base_duration_us": 306122
    },
    {
      "id": "M_115",
      "pitch": 93,
      "t_note_us": 32755055,
      "t_trigger_us": 32619092,
      "is_ai": true,
      "track_id": 8,
      "velocity": 0,
      "is_motor": false,
      "motor_id": 0,
      "accel_val": 2000,
      "base_duration_us": 306122
    },
    {
      "id": "M_119",
      "pitch": 91,
      "t_note_us": 33061177,
      "t_trigger_us": 32925214,
      "is_ai": true,
      "track_id": 7,
      "velocity": 0,
      "is_motor": false,
      "motor_id": 0,
      "accel_val": 2000,
      "base_duration_us": 918366
    },
    {
      "id": "M_116",
      "pitch": 60,
      "t_note_us": 33061177,
      "t_trigger_us": 32925214,
      "is_ai": false,
      "track_id": 0,
      "velocity": 0,
      "is_motor": true,
      "motor_id": 1,
      "accel_val": 2000,
      "base_duration_us": 306122
    },
    {
      "id": "M_117",
      "pitch": 72,
      "t_note_us": 33367299,
      "t_trigger_us": 33231336,
      "is_ai": false,
      "track_id": 0,
      "velocity": 0,
      "is_motor": true,
      "motor_id": 1,
      "accel_val": 2000,
      "base_duration_us": 306122
    },
    {
      "id": "M_118",
      "pitch": 76,
      "t_note_us": 33673421,
      "t_trigger_us": 33537458,
      "is_ai": false,
      "track_id": 0,
      "velocity": 0,
      "is_motor": true,
      "motor_id": 2,
      "accel_val": 2000,
      "base_duration_us": 306122
    },
    {
      "id": "M_120",
      "pitch": 70,
      "t_note_us": 33979543,
      "t_trigger_us": 33843580,
      "is_ai": false,
      "track_id": 0,
      "velocity": 0,
      "is_motor": true,
      "motor_id": 1,
      "accel_val": 2000,
      "base_duration_us": 306122
    },
    {
      "id": "M_121",
      "pitch": 93,
      "t_note_us": 34285665,
      "t_trigger_us": 34149702,
      "is_ai": true,
      "track_id": 8,
      "velocity": 0,
      "is_motor": false,
      "motor_id": 0,
      "accel_val": 2000,
      "base_duration_us": 306122
    },
    {
      "id": "M_122",
      "pitch": 91,
      "t_note_us": 34591787,
      "t_trigger_us": 34455824,
      "is_ai": true,
      "track_id": 7,
      "velocity": 0,
      "is_motor": false,
      "motor_id": 0,
      "accel_val": 2000,
      "base_duration_us": 306122
    },
    {
      "id": "M_126",
      "pitch": 89,
      "t_note_us": 34897909,
      "t_trigger_us": 34761946,
      "is_ai": true,
      "track_id": 6,
      "velocity": 0,
      "is_motor": false,
      "motor_id": 0,
      "accel_val": 2000,
      "base_duration_us": 918366
    },
    {
      "id": "M_123",
      "pitch": 62,
      "t_note_us": 34897909,
      "t_trigger_us": 34761946,
      "is_ai": false,
      "track_id": 0,
      "velocity": 0,
      "is_motor": true,
      "motor_id": 1,
      "accel_val": 2000,
      "base_duration_us": 306122
    },
    {
      "id": "M_124",
      "pitch": 69,
      "t_note_us": 35204031,
      "t_trigger_us": 35068068,
      "is_ai": false,
      "track_id": 0,
      "velocity": 0,
      "is_motor": true,
      "motor_id": 1,
      "accel_val": 2000,
      "base_duration_us": 306122
    },
    {
      "id": "M_125",
      "pitch": 74,
      "t_note_us": 35510153,
      "t_trigger_us": 35374190,
      "is_ai": false,
      "track_id": 0,
      "velocity": 0,
      "is_motor": true,
      "motor_id": 1,
      "accel_val": 2000,
      "base_duration_us": 306122
    },
    {
      "id": "M_127",
      "pitch": 69,
      "t_note_us": 35816275,
      "t_trigger_us": 35680312,
      "is_ai": false,
      "track_id": 0,
      "velocity": 0,
      "is_motor": true,
      "motor_id": 1,
      "accel_val": 2000,
      "base_duration_us": 306122
    },
    {
      "id": "M_128",
      "pitch": 91,
      "t_note_us": 36122397,
      "t_trigger_us": 35986434,
      "is_ai": true,
      "track_id": 7,
      "velocity": 0,
      "is_motor": false,
      "motor_id": 0,
      "accel_val": 2000,
      "base_duration_us": 306122
    },
    {
      "id": "M_129",
      "pitch": 89,
      "t_note_us": 36428519,
      "t_trigger_us": 36292556,
      "is_ai": true,
      "track_id": 6,
      "velocity": 0,
      "is_motor": false,
      "motor_id": 0,
      "accel_val": 2000,
      "base_duration_us": 306122
    },
    {
      "id": "M_130",
      "pitch": 57,
      "t_note_us": 36734641,
      "t_trigger_us": 36598678,
      "is_ai": false,
      "track_id": 0,
      "velocity": 0,
      "is_motor": true,
      "motor_id": 0,
      "accel_val": 2000,
      "base_duration_us": 306122
    },
    {
      "id": "M_132",
      "pitch": 76,
      "t_note_us": 36734641,
      "t_trigger_us": 36598678,
      "is_ai": false,
      "track_id": 0,
      "velocity": 0,
      "is_motor": true,
      "motor_id": 2,
      "accel_val": 2000,
      "base_duration_us": 612244
    },
    {
      "id": "M_131",
      "pitch": 69,
      "t_note_us": 37040763,
      "t_trigger_us": 36904800,
      "is_ai": false,
      "track_id": 0,
      "velocity": 0,
      "is_motor": true,
      "motor_id": 1,
      "accel_val": 2000,
      "base_duration_us": 306122
    },
    {
      "id": "M_133",
      "pitch": 69,
      "t_note_us": 37346885,
      "t_trigger_us": 37210922,
      "is_ai": false,
      "track_id": 0,
      "velocity": 0,
      "is_motor": true,
      "motor_id": 1,
      "accel_val": 2000,
      "base_duration_us": 306122
    },
    {
      "id": "M_134",
      "pitch": 69,
      "t_note_us": 37653007,
      "t_trigger_us": 37517044,
      "is_ai": false,
      "track_id": 0,
      "velocity": 0,
      "is_motor": true,
      "motor_id": 1,
      "accel_val": 2000,
      "base_duration_us": 306122
    },
    {
      "id": "M_135",
      "pitch": 93,
      "t_note_us": 37959129,
      "t_trigger_us": 37823166,
      "is_ai": true,
      "track_id": 8,
      "velocity": 0,
      "is_motor": false,
      "motor_id": 0,
      "accel_val": 2000,
      "base_duration_us": 306122
    },
    {
      "id": "M_136",
      "pitch": 69,
      "t_note_us": 38265251,
      "t_trigger_us": 38129288,
      "is_ai": false,
      "track_id": 0,
      "velocity": 0,
      "is_motor": true,
      "motor_id": 1,
      "accel_val": 2000,
      "base_duration_us": 306122
    },
    {
      "id": "M_137",
      "pitch": 93,
      "t_note_us": 38571373,
      "t_trigger_us": 38435410,
      "is_ai": true,
      "track_id": 8,
      "velocity": 0,
      "is_motor": false,
      "motor_id": 0,
      "accel_val": 2000,
      "base_duration_us": 306122
    },
    {
      "id": "M_138",
      "pitch": 93,
      "t_note_us": 38877495,
      "t_trigger_us": 38741532,
      "is_ai": true,
      "track_id": 8,
      "velocity": 0,
      "is_motor": false,
      "motor_id": 0,
      "accel_val": 2000,
      "base_duration_us": 306122
    },
    {
      "id": "M_139",
      "pitch": 69,
      "t_note_us": 39183617,
      "t_trigger_us": 39047654,
      "is_ai": false,
      "track_id": 0,
      "velocity": 0,
      "is_motor": true,
      "motor_id": 1,
      "accel_val": 2000,
      "base_duration_us": 306122
    },
    {
      "id": "M_140",
      "pitch": 92,
      "t_note_us": 39489739,
      "t_trigger_us": 39353776,
      "is_ai": true,
      "track_id": 0,
      "velocity": 0,
      "is_motor": true,
      "motor_id": 3,
      "accel_val": 2000,
      "base_duration_us": 306122
    },
    {
      "id": "M_141",
      "pitch": 93,
      "t_note_us": 39795861,
      "t_trigger_us": 39659898,
      "is_ai": true,
      "track_id": 8,
      "velocity": 0,
      "is_motor": false,
      "motor_id": 0,
      "accel_val": 2000,
      "base_duration_us": 306122
    },
    {
      "id": "M_142",
      "pitch": 92,
      "t_note_us": 40101983,
      "t_trigger_us": 39966020,
      "is_ai": true,
      "track_id": 0,
      "velocity": 0,
      "is_motor": true,
      "motor_id": 3,
      "accel_val": 2000,
      "base_duration_us": 306122
    },
    {
      "id": "M_143",
      "pitch": 93,
      "t_note_us": 40408105,
      "t_trigger_us": 40272142,
      "is_ai": true,
      "track_id": 8,
      "velocity": 0,
      "is_motor": false,
      "motor_id": 0,
      "accel_val": 2000,
      "base_duration_us": 306122
    },
    {
      "id": "M_144",
      "pitch": 68,
      "t_note_us": 40714227,
      "t_trigger_us": 40578264,
      "is_ai": false,
      "track_id": 0,
      "velocity": 0,
      "is_motor": true,
      "motor_id": 1,
      "accel_val": 2000,
      "base_duration_us": 306122
    },
    {
      "id": "M_145",
      "pitch": 93,
      "t_note_us": 41020349,
      "t_trigger_us": 40884386,
      "is_ai": true,
      "track_id": 8,
      "velocity": 0,
      "is_motor": false,
      "motor_id": 0,
      "accel_val": 2000,
      "base_duration_us": 306122
    },
    {
      "id": "M_146",
      "pitch": 92,
      "t_note_us": 41326471,
      "t_trigger_us": 41190508,
      "is_ai": true,
      "track_id": 0,
      "velocity": 0,
      "is_motor": true,
      "motor_id": 3,
      "accel_val": 2000,
      "base_duration_us": 306122
    },
    {
      "id": "M_147",
      "pitch": 93,
      "t_note_us": 41632593,
      "t_trigger_us": 41496630,
      "is_ai": true,
      "track_id": 8,
      "velocity": 0,
      "is_motor": false,
      "motor_id": 0,
      "accel_val": 2000,
      "base_duration_us": 306122
    },
    {
      "id": "M_148",
      "pitch": 92,
      "t_note_us": 41938715,
      "t_trigger_us": 41802752,
      "is_ai": true,
      "track_id": 0,
      "velocity": 0,
      "is_motor": true,
      "motor_id": 3,
      "accel_val": 2000,
      "base_duration_us": 306122
    },
    {
      "id": "M_149",
      "pitch": 93,
      "t_note_us": 42244837,
      "t_trigger_us": 42108874,
      "is_ai": true,
      "track_id": 8,
      "velocity": 0,
      "is_motor": false,
      "motor_id": 0,
      "accel_val": 2000,
      "base_duration_us": 306122
    },
    {
      "id": "M_150",
      "pitch": 68,
      "t_note_us": 42550959,
      "t_trigger_us": 42414996,
      "is_ai": false,
      "track_id": 0,
      "velocity": 0,
      "is_motor": true,
      "motor_id": 1,
      "accel_val": 2000,
      "base_duration_us": 306122
    },
    {
      "id": "M_151",
      "pitch": 93,
      "t_note_us": 42857081,
      "t_trigger_us": 42721118,
      "is_ai": true,
      "track_id": 8,
      "velocity": 0,
      "is_motor": false,
      "motor_id": 0,
      "accel_val": 2000,
      "base_duration_us": 306122
    },
    {
      "id": "M_152",
      "pitch": 88,
      "t_note_us": 43163203,
      "t_trigger_us": 43027240,
      "is_ai": true,
      "track_id": 5,
      "velocity": 0,
      "is_motor": false,
      "motor_id": 0,
      "accel_val": 2000,
      "base_duration_us": 306122
    },
    {
      "id": "M_153",
      "pitch": 91,
      "t_note_us": 43469325,
      "t_trigger_us": 43333362,
      "is_ai": true,
      "track_id": 7,
      "velocity": 0,
      "is_motor": false,
      "motor_id": 0,
      "accel_val": 2000,
      "base_duration_us": 306122
    },
    {
      "id": "M_154",
      "pitch": 89,
      "t_note_us": 43775447,
      "t_trigger_us": 43639484,
      "is_ai": true,
      "track_id": 6,
      "velocity": 0,
      "is_motor": false,
      "motor_id": 0,
      "accel_val": 2000,
      "base_duration_us": 306122
    },
    {
      "id": "M_155",
      "pitch": 62,
      "t_note_us": 44081569,
      "t_trigger_us": 43945606,
      "is_ai": false,
      "track_id": 0,
      "velocity": 0,
      "is_motor": true,
      "motor_id": 1,
      "accel_val": 2000,
      "base_duration_us": 306122
    },
    {
      "id": "M_157",
      "pitch": 74,
      "t_note_us": 44081569,
      "t_trigger_us": 43945606,
      "is_ai": false,
      "track_id": 0,
      "velocity": 0,
      "is_motor": true,
      "motor_id": 0,
      "accel_val": 2000,
      "base_duration_us": 612244
    },
    {
      "id": "M_156",
      "pitch": 69,
      "t_note_us": 44387691,
      "t_trigger_us": 44251728,
      "is_ai": false,
      "track_id": 0,
      "velocity": 0,
      "is_motor": true,
      "motor_id": 1,
      "accel_val": 2000,
      "base_duration_us": 306122
    },
    {
      "id": "M_158",
      "pitch": 74,
      "t_note_us": 44693813,
      "t_trigger_us": 44557850,
      "is_ai": false,
      "track_id": 0,
      "velocity": 0,
      "is_motor": true,
      "motor_id": 1,
      "accel_val": 2000,
      "base_duration_us": 306122
    },
    {
      "id": "M_159",
      "pitch": 77,
      "t_note_us": 44999935,
      "t_trigger_us": 44863972,
      "is_ai": false,
      "track_id": 0,
      "velocity": 0,
      "is_motor": true,
      "motor_id": 2,
      "accel_val": 2000,
      "base_duration_us": 306122
    },
    {
      "id": "M_160",
      "pitch": 69,
      "t_note_us": 45306057,
      "t_trigger_us": 45170094,
      "is_ai": false,
      "track_id": 0,
      "velocity": 0,
      "is_motor": true,
      "motor_id": 1,
      "accel_val": 2000,
      "base_duration_us": 306122
    },
    {
      "id": "M_161",
      "pitch": 74,
      "t_note_us": 45612179,
      "t_trigger_us": 45476216,
      "is_ai": false,
      "track_id": 0,
      "velocity": 0,
      "is_motor": true,
      "motor_id": 1,
      "accel_val": 2000,
      "base_duration_us": 306122
    },
    {
      "id": "M_162",
      "pitch": 57,
      "t_note_us": 45918301,
      "t_trigger_us": 45782338,
      "is_ai": false,
      "track_id": 0,
      "velocity": 0,
      "is_motor": true,
      "motor_id": 0,
      "accel_val": 2000,
      "base_duration_us": 306122
    },
    {
      "id": "M_164",
      "pitch": 76,
      "t_note_us": 45918301,
      "t_trigger_us": 45782338,
      "is_ai": false,
      "track_id": 0,
      "velocity": 0,
      "is_motor": true,
      "motor_id": 2,
      "accel_val": 2000,
      "base_duration_us": 612244
    },
    {
      "id": "M_163",
      "pitch": 69,
      "t_note_us": 46224423,
      "t_trigger_us": 46088460,
      "is_ai": false,
      "track_id": 0,
      "velocity": 0,
      "is_motor": true,
      "motor_id": 1,
      "accel_val": 2000,
      "base_duration_us": 306122
    },
    {
      "id": "M_165",
      "pitch": 73,
      "t_note_us": 46530545,
      "t_trigger_us": 46394582,
      "is_ai": false,
      "track_id": 0,
      "velocity": 0,
      "is_motor": true,
      "motor_id": 1,
      "accel_val": 2000,
      "base_duration_us": 306122
    },
    {
      "id": "M_166",
      "pitch": 69,
      "t_note_us": 46836667,
      "t_trigger_us": 46700704,
      "is_ai": false,
      "track_id": 0,
      "velocity": 0,
      "is_motor": true,
      "motor_id": 1,
      "accel_val": 2000,
      "base_duration_us": 306122
    },
    {
      "id": "M_167",
      "pitch": 73,
      "t_note_us": 47142789,
      "t_trigger_us": 47006826,
      "is_ai": false,
      "track_id": 0,
      "velocity": 0,
      "is_motor": true,
      "motor_id": 1,
      "accel_val": 2000,
      "base_duration_us": 306122
    },
    {
      "id": "M_168",
      "pitch": 88,
      "t_note_us": 47448911,
      "t_trigger_us": 47312948,
      "is_ai": true,
      "track_id": 5,
      "velocity": 0,
      "is_motor": false,
      "motor_id": 0,
      "accel_val": 2000,
      "base_duration_us": 306122
    },
    {
      "id": "M_171",
      "pitch": 89,
      "t_note_us": 47755033,
      "t_trigger_us": 47619070,
      "is_ai": true,
      "track_id": 6,
      "velocity": 0,
      "is_motor": false,
      "motor_id": 0,
      "accel_val": 2000,
      "base_duration_us": 612244
    },
    {
      "id": "M_169",
      "pitch": 62,
      "t_note_us": 47755033,
      "t_trigger_us": 47619070,
      "is_ai": false,
      "track_id": 0,
      "velocity": 0,
      "is_motor": true,
      "motor_id": 1,
      "accel_val": 2000,
      "base_duration_us": 306122
    },
    {
      "id": "M_170",
      "pitch": 69,
      "t_note_us": 48061155,
      "t_trigger_us": 47925192,
      "is_ai": false,
      "track_id": 0,
      "velocity": 0,
      "is_motor": true,
      "motor_id": 1,
      "accel_val": 2000,
      "base_duration_us": 306122
    },
    {
      "id": "M_172",
      "pitch": 74,
      "t_note_us": 48367277,
      "t_trigger_us": 48231314,
      "is_ai": false,
      "track_id": 0,
      "velocity": 0,
      "is_motor": true,
      "motor_id": 1,
      "accel_val": 2000,
      "base_duration_us": 306122
    },
    {
      "id": "M_173",
      "pitch": 69,
      "t_note_us": 48673399,
      "t_trigger_us": 48537436,
      "is_ai": false,
      "track_id": 0,
      "velocity": 0,
      "is_motor": true,
      "motor_id": 1,
      "accel_val": 2000,
      "base_duration_us": 306122
    },
    {
      "id": "M_174",
      "pitch": 93,
      "t_note_us": 48979521,
      "t_trigger_us": 48843558,
      "is_ai": true,
      "track_id": 8,
      "velocity": 0,
      "is_motor": false,
      "motor_id": 0,
      "accel_val": 2000,
      "base_duration_us": 306122
    },
    {
      "id": "M_175",
      "pitch": 92,
      "t_note_us": 49285643,
      "t_trigger_us": 49149680,
      "is_ai": true,
      "track_id": 0,
      "velocity": 0,
      "is_motor": true,
      "motor_id": 3,
      "accel_val": 2000,
      "base_duration_us": 306122
    },
    {
      "id": "M_176",
      "pitch": 93,
      "t_note_us": 49591765,
      "t_trigger_us": 49455802,
      "is_ai": true,
      "track_id": 8,
      "velocity": 0,
      "is_motor": false,
      "motor_id": 0,
      "accel_val": 2000,
      "base_duration_us": 306122
    },
    {
      "id": "M_177",
      "pitch": 92,
      "t_note_us": 49897887,
      "t_trigger_us": 49761924,
      "is_ai": true,
      "track_id": 0,
      "velocity": 0,
      "is_motor": true,
      "motor_id": 3,
      "accel_val": 2000,
      "base_duration_us": 306122
    },
    {
      "id": "M_178",
      "pitch": 93,
      "t_note_us": 50204009,
      "t_trigger_us": 50068046,
      "is_ai": true,
      "track_id": 8,
      "velocity": 0,
      "is_motor": false,
      "motor_id": 0,
      "accel_val": 2000,
      "base_duration_us": 306122
    },
    {
      "id": "M_179",
      "pitch": 76,
      "t_note_us": 50510131,
      "t_trigger_us": 50374168,
      "is_ai": false,
      "track_id": 0,
      "velocity": 0,
      "is_motor": true,
      "motor_id": 2,
      "accel_val": 2000,
      "base_duration_us": 306122
    },
    {
      "id": "M_180",
      "pitch": 91,
      "t_note_us": 50816253,
      "t_trigger_us": 50680290,
      "is_ai": true,
      "track_id": 7,
      "velocity": 0,
      "is_motor": false,
      "motor_id": 0,
      "accel_val": 2000,
      "base_duration_us": 306122
    },
    {
      "id": "M_181",
      "pitch": 89,
      "t_note_us": 51122375,
      "t_trigger_us": 50986412,
      "is_ai": true,
      "track_id": 6,
      "velocity": 0,
      "is_motor": false,
      "motor_id": 0,
      "accel_val": 2000,
      "base_duration_us": 306122
    },
    {
      "id": "M_182",
      "pitch": 62,
      "t_note_us": 51428497,
      "t_trigger_us": 51292534,
      "is_ai": false,
      "track_id": 0,
      "velocity": 0,
      "is_motor": true,
      "motor_id": 1,
      "accel_val": 2000,
      "base_duration_us": 306122
    },
    {
      "id": "M_184",
      "pitch": 74,
      "t_note_us": 51428497,
      "t_trigger_us": 51292534,
      "is_ai": false,
      "track_id": 0,
      "velocity": 0,
      "is_motor": true,
      "motor_id": 0,
      "accel_val": 2000,
      "base_duration_us": 612244
    },
    {
      "id": "M_183",
      "pitch": 69,
      "t_note_us": 51734619,
      "t_trigger_us": 51598656,
      "is_ai": false,
      "track_id": 0,
      "velocity": 0,
      "is_motor": true,
      "motor_id": 1,
      "accel_val": 2000,
      "base_duration_us": 306122
    },
    {
      "id": "M_185",
      "pitch": 74,
      "t_note_us": 52040741,
      "t_trigger_us": 51904778,
      "is_ai": false,
      "track_id": 0,
      "velocity": 0,
      "is_motor": true,
      "motor_id": 1,
      "accel_val": 2000,
      "base_duration_us": 306122
    },
    {
      "id": "M_186",
      "pitch": 77,
      "t_note_us": 52346863,
      "t_trigger_us": 52210900,
      "is_ai": false,
      "track_id": 0,
      "velocity": 0,
      "is_motor": true,
      "motor_id": 2,
      "accel_val": 2000,
      "base_duration_us": 306122
    },
    {
      "id": "M_187",
      "pitch": 69,
      "t_note_us": 52652985,
      "t_trigger_us": 52517022,
      "is_ai": false,
      "track_id": 0,
      "velocity": 0,
      "is_motor": true,
      "motor_id": 1,
      "accel_val": 2000,
      "base_duration_us": 306122
    },
    {
      "id": "M_188",
      "pitch": 74,
      "t_note_us": 52959107,
      "t_trigger_us": 52823144,
      "is_ai": false,
      "track_id": 0,
      "velocity": 0,
      "is_motor": true,
      "motor_id": 1,
      "accel_val": 2000,
      "base_duration_us": 306122
    },
    {
      "id": "M_189",
      "pitch": 57,
      "t_note_us": 53265229,
      "t_trigger_us": 53129266,
      "is_ai": false,
      "track_id": 0,
      "velocity": 0,
      "is_motor": true,
      "motor_id": 0,
      "accel_val": 2000,
      "base_duration_us": 306122
    },
    {
      "id": "M_191",
      "pitch": 76,
      "t_note_us": 53265229,
      "t_trigger_us": 53129266,
      "is_ai": false,
      "track_id": 0,
      "velocity": 0,
      "is_motor": true,
      "motor_id": 2,
      "accel_val": 2000,
      "base_duration_us": 612244
    },
    {
      "id": "M_190",
      "pitch": 69,
      "t_note_us": 53571351,
      "t_trigger_us": 53435388,
      "is_ai": false,
      "track_id": 0,
      "velocity": 0,
      "is_motor": true,
      "motor_id": 1,
      "accel_val": 2000,
      "base_duration_us": 306122
    },
    {
      "id": "M_192",
      "pitch": 73,
      "t_note_us": 53877473,
      "t_trigger_us": 53741510,
      "is_ai": false,
      "track_id": 0,
      "velocity": 0,
      "is_motor": true,
      "motor_id": 1,
      "accel_val": 2000,
      "base_duration_us": 306122
    },
    {
      "id": "M_193",
      "pitch": 69,
      "t_note_us": 54183595,
      "t_trigger_us": 54047632,
      "is_ai": false,
      "track_id": 0,
      "velocity": 0,
      "is_motor": true,
      "motor_id": 1,
      "accel_val": 2000,
      "base_duration_us": 306122
    },
    {
      "id": "M_194",
      "pitch": 89,
      "t_note_us": 54489717,
      "t_trigger_us": 54353754,
      "is_ai": true,
      "track_id": 6,
      "velocity": 0,
      "is_motor": false,
      "motor_id": 0,
      "accel_val": 2000,
      "base_duration_us": 306122
    },
    {
      "id": "M_195",
      "pitch": 88,
      "t_note_us": 54795839,
      "t_trigger_us": 54659876,
      "is_ai": true,
      "track_id": 5,
      "velocity": 0,
      "is_motor": false,
      "motor_id": 0,
      "accel_val": 2000,
      "base_duration_us": 306122
    },
    {
      "id": "M_196",
      "pitch": 62,
      "t_note_us": 55101961,
      "t_trigger_us": 54965998,
      "is_ai": false,
      "track_id": 0,
      "velocity": 0,
      "is_motor": true,
      "motor_id": 1,
      "accel_val": 2000,
      "base_duration_us": 306122
    },
    {
      "id": "M_198",
      "pitch": 74,
      "t_note_us": 55101961,
      "t_trigger_us": 54965998,
      "is_ai": false,
      "track_id": 0,
      "velocity": 0,
      "is_motor": true,
      "motor_id": 0,
      "accel_val": 2000,
      "base_duration_us": 612244
    },
    {
      "id": "M_197",
      "pitch": 69,
      "t_note_us": 55408083,
      "t_trigger_us": 55272120,
      "is_ai": false,
      "track_id": 0,
      "velocity": 0,
      "is_motor": true,
      "motor_id": 1,
      "accel_val": 2000,
      "base_duration_us": 306122
    },
    {
      "id": "M_199",
      "pitch": 74,
      "t_note_us": 55714205,
      "t_trigger_us": 55578242,
      "is_ai": false,
      "track_id": 0,
      "velocity": 0,
      "is_motor": true,
      "motor_id": 1,
      "accel_val": 2000,
      "base_duration_us": 306122
    },
    {
      "id": "M_200",
      "pitch": 88,
      "t_note_us": 56020327,
      "t_trigger_us": 55884364,
      "is_ai": true,
      "track_id": 5,
      "velocity": 0,
      "is_motor": false,
      "motor_id": 0,
      "accel_val": 2000,
      "base_duration_us": 306122
    },
    {
      "id": "M_201",
      "pitch": 77,
      "t_note_us": 56326449,
      "t_trigger_us": 56190486,
      "is_ai": false,
      "track_id": 0,
      "velocity": 0,
      "is_motor": true,
      "motor_id": 2,
      "accel_val": 2000,
      "base_duration_us": 306122
    },
    {
      "id": "M_202",
      "pitch": 91,
      "t_note_us": 56632571,
      "t_trigger_us": 56496608,
      "is_ai": true,
      "track_id": 7,
      "velocity": 0,
      "is_motor": false,
      "motor_id": 0,
      "accel_val": 2000,
      "base_duration_us": 306122
    },
    {
      "id": "M_206",
      "pitch": 93,
      "t_note_us": 56938693,
      "t_trigger_us": 56802730,
      "is_ai": true,
      "track_id": 8,
      "velocity": 0,
      "is_motor": false,
      "motor_id": 0,
      "accel_val": 2000,
      "base_duration_us": 918366
    },
    {
      "id": "M_203",
      "pitch": 65,
      "t_note_us": 56938693,
      "t_trigger_us": 56802730,
      "is_ai": false,
      "track_id": 0,
      "velocity": 0,
      "is_motor": true,
      "motor_id": 1,
      "accel_val": 2000,
      "base_duration_us": 306122
    },
    {
      "id": "M_204",
      "pitch": 72,
      "t_note_us": 57244815,
      "t_trigger_us": 57108852,
      "is_ai": false,
      "track_id": 0,
      "velocity": 0,
      "is_motor": true,
      "motor_id": 1,
      "accel_val": 2000,
      "base_duration_us": 306122
    },
    {
      "id": "M_205",
      "pitch": 77,
      "t_note_us": 57550937,
      "t_trigger_us": 57414974,
      "is_ai": false,
      "track_id": 0,
      "velocity": 0,
      "is_motor": true,
      "motor_id": 2,
      "accel_val": 2000,
      "base_duration_us": 306122
    },
    {
      "id": "M_207",
      "pitch": 72,
      "t_note_us": 57857059,
      "t_trigger_us": 57721096,
      "is_ai": false,
      "track_id": 0,
      "velocity": 0,
      "is_motor": true,
      "motor_id": 1,
      "accel_val": 2000,
      "base_duration_us": 306122
    },
    {
      "id": "M_208",
      "pitch": 94,
      "t_note_us": 58163181,
      "t_trigger_us": 58027218,
      "is_ai": true,
      "track_id": 0,
      "velocity": 0,
      "is_motor": true,
      "motor_id": 3,
      "accel_val": 2000,
      "base_duration_us": 306122
    },
    {
      "id": "M_209",
      "pitch": 93,
      "t_note_us": 58469303,
      "t_trigger_us": 58333340,
      "is_ai": true,
      "track_id": 8,
      "velocity": 0,
      "is_motor": false,
      "motor_id": 0,
      "accel_val": 2000,
      "base_duration_us": 306122
    },
    {
      "id": "M_213",
      "pitch": 91,
      "t_note_us": 58775425,
      "t_trigger_us": 58639462,
      "is_ai": true,
      "track_id": 7,
      "velocity": 0,
      "is_motor": false,
      "motor_id": 0,
      "accel_val": 2000,
      "base_duration_us": 918366
    },
    {
      "id": "M_210",
      "pitch": 60,
      "t_note_us": 58775425,
      "t_trigger_us": 58639462,
      "is_ai": false,
      "track_id": 0,
      "velocity": 0,
      "is_motor": true,
      "motor_id": 1,
      "accel_val": 2000,
      "base_duration_us": 306122
    },
    {
      "id": "M_211",
      "pitch": 72,
      "t_note_us": 59081547,
      "t_trigger_us": 58945584,
      "is_ai": false,
      "track_id": 0,
      "velocity": 0,
      "is_motor": true,
      "motor_id": 1,
      "accel_val": 2000,
      "base_duration_us": 306122
    },
    {
      "id": "M_212",
      "pitch": 76,
      "t_note_us": 59387669,
      "t_trigger_us": 59251706,
      "is_ai": false,
      "track_id": 0,
      "velocity": 0,
      "is_motor": true,
      "motor_id": 2,
      "accel_val": 2000,
      "base_duration_us": 306122
    },
    {
      "id": "M_214",
      "pitch": 70,
      "t_note_us": 59693791,
      "t_trigger_us": 59557828,
      "is_ai": false,
      "track_id": 0,
      "velocity": 0,
      "is_motor": true,
      "motor_id": 1,
      "accel_val": 2000,
      "base_duration_us": 306122
    },
    {
      "id": "M_215",
      "pitch": 93,
      "t_note_us": 59999913,
      "t_trigger_us": 59863950,
      "is_ai": true,
      "track_id": 8,
      "velocity": 0,
      "is_motor": false,
      "motor_id": 0,
      "accel_val": 2000,
      "base_duration_us": 306122
    },
    {
      "id": "M_216",
      "pitch": 91,
      "t_note_us": 60306035,
      "t_trigger_us": 60170072,
      "is_ai": true,
      "track_id": 7,
      "velocity": 0,
      "is_motor": false,
      "motor_id": 0,
      "accel_val": 2000,
      "base_duration_us": 306122
    },
    {
      "id": "M_220",
      "pitch": 89,
      "t_note_us": 60612157,
      "t_trigger_us": 60476194,
      "is_ai": true,
      "track_id": 6,
      "velocity": 0,
      "is_motor": false,
      "motor_id": 0,
      "accel_val": 2000,
      "base_duration_us": 918366
    },
    {
      "id": "M_217",
      "pitch": 62,
      "t_note_us": 60612157,
      "t_trigger_us": 60476194,
      "is_ai": false,
      "track_id": 0,
      "velocity": 0,
      "is_motor": true,
      "motor_id": 1,
      "accel_val": 2000,
      "base_duration_us": 306122
    },
    {
      "id": "M_218",
      "pitch": 69,
      "t_note_us": 60918279,
      "t_trigger_us": 60782316,
      "is_ai": false,
      "track_id": 0,
      "velocity": 0,
      "is_motor": true,
      "motor_id": 1,
      "accel_val": 2000,
      "base_duration_us": 306122
    },
    {
      "id": "M_219",
      "pitch": 74,
      "t_note_us": 61224401,
      "t_trigger_us": 61088438,
      "is_ai": false,
      "track_id": 0,
      "velocity": 0,
      "is_motor": true,
      "motor_id": 1,
      "accel_val": 2000,
      "base_duration_us": 306122
    },
    {
      "id": "M_221",
      "pitch": 69,
      "t_note_us": 61530523,
      "t_trigger_us": 61394560,
      "is_ai": false,
      "track_id": 0,
      "velocity": 0,
      "is_motor": true,
      "motor_id": 1,
      "accel_val": 2000,
      "base_duration_us": 306122
    },
    {
      "id": "M_222",
      "pitch": 91,
      "t_note_us": 61836645,
      "t_trigger_us": 61700682,
      "is_ai": true,
      "track_id": 7,
      "velocity": 0,
      "is_motor": false,
      "motor_id": 0,
      "accel_val": 2000,
      "base_duration_us": 306122
    },
    {
      "id": "M_223",
      "pitch": 89,
      "t_note_us": 62142767,
      "t_trigger_us": 62006804,
      "is_ai": true,
      "track_id": 6,
      "velocity": 0,
      "is_motor": false,
      "motor_id": 0,
      "accel_val": 2000,
      "base_duration_us": 306122
    },
    {
      "id": "M_226",
      "pitch": 88,
      "t_note_us": 62448889,
      "t_trigger_us": 62312926,
      "is_ai": true,
      "track_id": 5,
      "velocity": 0,
      "is_motor": false,
      "motor_id": 0,
      "accel_val": 2000,
      "base_duration_us": 612244
    },
    {
      "id": "M_224",
      "pitch": 57,
      "t_note_us": 62448889,
      "t_trigger_us": 62312926,
      "is_ai": false,
      "track_id": 0,
      "velocity": 0,
      "is_motor": true,
      "motor_id": 0,
      "accel_val": 2000,
      "base_duration_us": 306122
    },
    {
      "id": "M_225",
      "pitch": 69,
      "t_note_us": 62755011,
      "t_trigger_us": 62619048,
      "is_ai": false,
      "track_id": 0,
      "velocity": 0,
      "is_motor": true,
      "motor_id": 1,
      "accel_val": 2000,
      "base_duration_us": 306122
    },
    {
      "id": "M_227",
      "pitch": 69,
      "t_note_us": 63061133,
      "t_trigger_us": 62925170,
      "is_ai": false,
      "track_id": 0,
      "velocity": 0,
      "is_motor": true,
      "motor_id": 1,
      "accel_val": 2000,
      "base_duration_us": 306122
    },
    {
      "id": "M_228",
      "pitch": 69,
      "t_note_us": 63367255,
      "t_trigger_us": 63231292,
      "is_ai": false,
      "track_id": 0,
      "velocity": 0,
      "is_motor": true,
      "motor_id": 1,
      "accel_val": 2000,
      "base_duration_us": 306122
    },
    {
      "id": "M_229",
      "pitch": 93,
      "t_note_us": 63673377,
      "t_trigger_us": 63537414,
      "is_ai": true,
      "track_id": 8,
      "velocity": 0,
      "is_motor": false,
      "motor_id": 0,
      "accel_val": 2000,
      "base_duration_us": 306122
    },
    {
      "id": "M_230",
      "pitch": 69,
      "t_note_us": 63979499,
      "t_trigger_us": 63843536,
      "is_ai": false,
      "track_id": 0,
      "velocity": 0,
      "is_motor": true,
      "motor_id": 1,
      "accel_val": 2000,
      "base_duration_us": 306122
    },
    {
      "id": "M_231",
      "pitch": 93,
      "t_note_us": 64285621,
      "t_trigger_us": 64149658,
      "is_ai": true,
      "track_id": 8,
      "velocity": 0,
      "is_motor": false,
      "motor_id": 0,
      "accel_val": 2000,
      "base_duration_us": 306122
    },
    {
      "id": "M_232",
      "pitch": 93,
      "t_note_us": 64591743,
      "t_trigger_us": 64455780,
      "is_ai": true,
      "track_id": 8,
      "velocity": 0,
      "is_motor": false,
      "motor_id": 0,
      "accel_val": 2000,
      "base_duration_us": 306122
    },
    {
      "id": "M_233",
      "pitch": 69,
      "t_note_us": 64897865,
      "t_trigger_us": 64761902,
      "is_ai": false,
      "track_id": 0,
      "velocity": 0,
      "is_motor": true,
      "motor_id": 1,
      "accel_val": 2000,
      "base_duration_us": 306122
    },
    {
      "id": "M_234",
      "pitch": 92,
      "t_note_us": 65203987,
      "t_trigger_us": 65068024,
      "is_ai": true,
      "track_id": 0,
      "velocity": 0,
      "is_motor": true,
      "motor_id": 3,
      "accel_val": 2000,
      "base_duration_us": 306122
    },
    {
      "id": "M_235",
      "pitch": 93,
      "t_note_us": 65510109,
      "t_trigger_us": 65374146,
      "is_ai": true,
      "track_id": 8,
      "velocity": 0,
      "is_motor": false,
      "motor_id": 0,
      "accel_val": 2000,
      "base_duration_us": 306122
    },
    {
      "id": "M_236",
      "pitch": 92,
      "t_note_us": 65816231,
      "t_trigger_us": 65680268,
      "is_ai": true,
      "track_id": 0,
      "velocity": 0,
      "is_motor": true,
      "motor_id": 3,
      "accel_val": 2000,
      "base_duration_us": 306122
    },
    {
      "id": "M_237",
      "pitch": 93,
      "t_note_us": 66122353,
      "t_trigger_us": 65986390,
      "is_ai": true,
      "track_id": 8,
      "velocity": 0,
      "is_motor": false,
      "motor_id": 0,
      "accel_val": 2000,
      "base_duration_us": 306122
    },
    {
      "id": "M_238",
      "pitch": 92,
      "t_note_us": 66428475,
      "t_trigger_us": 66292512,
      "is_ai": true,
      "track_id": 0,
      "velocity": 0,
      "is_motor": true,
      "motor_id": 3,
      "accel_val": 2000,
      "base_duration_us": 306122
    },
    {
      "id": "M_239",
      "pitch": 93,
      "t_note_us": 66734597,
      "t_trigger_us": 66598634,
      "is_ai": true,
      "track_id": 8,
      "velocity": 0,
      "is_motor": false,
      "motor_id": 0,
      "accel_val": 2000,
      "base_duration_us": 306122
    },
    {
      "id": "M_240",
      "pitch": 92,
      "t_note_us": 67040719,
      "t_trigger_us": 66904756,
      "is_ai": true,
      "track_id": 0,
      "velocity": 0,
      "is_motor": true,
      "motor_id": 3,
      "accel_val": 2000,
      "base_duration_us": 306122
    },
    {
      "id": "M_241",
      "pitch": 93,
      "t_note_us": 67346841,
      "t_trigger_us": 67210878,
      "is_ai": true,
      "track_id": 8,
      "velocity": 0,
      "is_motor": false,
      "motor_id": 0,
      "accel_val": 2000,
      "base_duration_us": 306122
    },
    {
      "id": "M_242",
      "pitch": 92,
      "t_note_us": 67652963,
      "t_trigger_us": 67517000,
      "is_ai": true,
      "track_id": 0,
      "velocity": 0,
      "is_motor": true,
      "motor_id": 3,
      "accel_val": 2000,
      "base_duration_us": 306122
    },
    {
      "id": "M_243",
      "pitch": 93,
      "t_note_us": 67959085,
      "t_trigger_us": 67823122,
      "is_ai": true,
      "track_id": 8,
      "velocity": 0,
      "is_motor": false,
      "motor_id": 0,
      "accel_val": 2000,
      "base_duration_us": 306122
    },
    {
      "id": "M_244",
      "pitch": 92,
      "t_note_us": 68265207,
      "t_trigger_us": 68129244,
      "is_ai": true,
      "track_id": 0,
      "velocity": 0,
      "is_motor": true,
      "motor_id": 3,
      "accel_val": 2000,
      "base_duration_us": 306122
    },
    {
      "id": "M_245",
      "pitch": 93,
      "t_note_us": 68571329,
      "t_trigger_us": 68435366,
      "is_ai": true,
      "track_id": 8,
      "velocity": 0,
      "is_motor": false,
      "motor_id": 0,
      "accel_val": 2000,
      "base_duration_us": 306122
    },
    {
      "id": "M_246",
      "pitch": 76,
      "t_note_us": 68877451,
      "t_trigger_us": 68741488,
      "is_ai": false,
      "track_id": 0,
      "velocity": 0,
      "is_motor": true,
      "motor_id": 2,
      "accel_val": 2000,
      "base_duration_us": 306122
    },
    {
      "id": "M_247",
      "pitch": 91,
      "t_note_us": 69183573,
      "t_trigger_us": 69047610,
      "is_ai": true,
      "track_id": 7,
      "velocity": 0,
      "is_motor": false,
      "motor_id": 0,
      "accel_val": 2000,
      "base_duration_us": 306122
    },
    {
      "id": "M_248",
      "pitch": 89,
      "t_note_us": 69489695,
      "t_trigger_us": 69353732,
      "is_ai": true,
      "track_id": 6,
      "velocity": 0,
      "is_motor": false,
      "motor_id": 0,
      "accel_val": 2000,
      "base_duration_us": 306122
    },
    {
      "id": "M_249",
      "pitch": 62,
      "t_note_us": 69795817,
      "t_trigger_us": 69659854,
      "is_ai": false,
      "track_id": 0,
      "velocity": 0,
      "is_motor": true,
      "motor_id": 1,
      "accel_val": 2000,
      "base_duration_us": 306122
    },
    {
      "id": "M_251",
      "pitch": 74,
      "t_note_us": 69795817,
      "t_trigger_us": 69659854,
      "is_ai": false,
      "track_id": 0,
      "velocity": 0,
      "is_motor": true,
      "motor_id": 0,
      "accel_val": 2000,
      "base_duration_us": 612244
    },
    {
      "id": "M_250",
      "pitch": 69,
      "t_note_us": 70101939,
      "t_trigger_us": 69965976,
      "is_ai": false,
      "track_id": 0,
      "velocity": 0,
      "is_motor": true,
      "motor_id": 1,
      "accel_val": 2000,
      "base_duration_us": 306122
    },
    {
      "id": "M_252",
      "pitch": 74,
      "t_note_us": 70408061,
      "t_trigger_us": 70272098,
      "is_ai": false,
      "track_id": 0,
      "velocity": 0,
      "is_motor": true,
      "motor_id": 1,
      "accel_val": 2000,
      "base_duration_us": 306122
    },
    {
      "id": "M_253",
      "pitch": 77,
      "t_note_us": 70714183,
      "t_trigger_us": 70578220,
      "is_ai": false,
      "track_id": 0,
      "velocity": 0,
      "is_motor": true,
      "motor_id": 2,
      "accel_val": 2000,
      "base_duration_us": 306122
    },
    {
      "id": "M_254",
      "pitch": 69,
      "t_note_us": 71020305,
      "t_trigger_us": 70884342,
      "is_ai": false,
      "track_id": 0,
      "velocity": 0,
      "is_motor": true,
      "motor_id": 1,
      "accel_val": 2000,
      "base_duration_us": 306122
    },
    {
      "id": "M_255",
      "pitch": 74,
      "t_note_us": 71326427,
      "t_trigger_us": 71190464,
      "is_ai": false,
      "track_id": 0,
      "velocity": 0,
      "is_motor": true,
      "motor_id": 1,
      "accel_val": 2000,
      "base_duration_us": 306122
    },
    {
      "id": "M_256",
      "pitch": 57,
      "t_note_us": 71632549,
      "t_trigger_us": 71496586,
      "is_ai": false,
      "track_id": 0,
      "velocity": 0,
      "is_motor": true,
      "motor_id": 0,
      "accel_val": 2000,
      "base_duration_us": 306122
    },
    {
      "id": "M_258",
      "pitch": 76,
      "t_note_us": 71632549,
      "t_trigger_us": 71496586,
      "is_ai": false,
      "track_id": 0,
      "velocity": 0,
      "is_motor": true,
      "motor_id": 2,
      "accel_val": 2000,
      "base_duration_us": 612244
    },
    {
      "id": "M_257",
      "pitch": 69,
      "t_note_us": 71938671,
      "t_trigger_us": 71802708,
      "is_ai": false,
      "track_id": 0,
      "velocity": 0,
      "is_motor": true,
      "motor_id": 1,
      "accel_val": 2000,
      "base_duration_us": 306122
    },
    {
      "id": "M_259",
      "pitch": 73,
      "t_note_us": 72244793,
      "t_trigger_us": 72108830,
      "is_ai": false,
      "track_id": 0,
      "velocity": 0,
      "is_motor": true,
      "motor_id": 1,
      "accel_val": 2000,
      "base_duration_us": 306122
    },
    {
      "id": "M_260",
      "pitch": 69,
      "t_note_us": 72550915,
      "t_trigger_us": 72414952,
      "is_ai": false,
      "track_id": 0,
      "velocity": 0,
      "is_motor": true,
      "motor_id": 1,
      "accel_val": 2000,
      "base_duration_us": 306122
    },
    {
      "id": "M_261",
      "pitch": 73,
      "t_note_us": 72857037,
      "t_trigger_us": 72721074,
      "is_ai": false,
      "track_id": 0,
      "velocity": 0,
      "is_motor": true,
      "motor_id": 1,
      "accel_val": 2000,
      "base_duration_us": 306122
    },
    {
      "id": "M_262",
      "pitch": 88,
      "t_note_us": 73163159,
      "t_trigger_us": 73027196,
      "is_ai": true,
      "track_id": 5,
      "velocity": 0,
      "is_motor": false,
      "motor_id": 0,
      "accel_val": 2000,
      "base_duration_us": 306122
    },
    {
      "id": "M_265",
      "pitch": 89,
      "t_note_us": 73469281,
      "t_trigger_us": 73333318,
      "is_ai": true,
      "track_id": 6,
      "velocity": 0,
      "is_motor": false,
      "motor_id": 0,
      "accel_val": 2000,
      "base_duration_us": 612244
    },
    {
      "id": "M_263",
      "pitch": 62,
      "t_note_us": 73469281,
      "t_trigger_us": 73333318,
      "is_ai": false,
      "track_id": 0,
      "velocity": 0,
      "is_motor": true,
      "motor_id": 1,
      "accel_val": 2000,
      "base_duration_us": 306122
    },
    {
      "id": "M_264",
      "pitch": 69,
      "t_note_us": 73775403,
      "t_trigger_us": 73639440,
      "is_ai": false,
      "track_id": 0,
      "velocity": 0,
      "is_motor": true,
      "motor_id": 1,
      "accel_val": 2000,
      "base_duration_us": 306122
    },
    {
      "id": "M_266",
      "pitch": 74,
      "t_note_us": 74081525,
      "t_trigger_us": 73945562,
      "is_ai": false,
      "track_id": 0,
      "velocity": 0,
      "is_motor": true,
      "motor_id": 1,
      "accel_val": 2000,
      "base_duration_us": 306122
    },
    {
      "id": "M_267",
      "pitch": 69,
      "t_note_us": 74387647,
      "t_trigger_us": 74251684,
      "is_ai": false,
      "track_id": 0,
      "velocity": 0,
      "is_motor": true,
      "motor_id": 1,
      "accel_val": 2000,
      "base_duration_us": 306122
    },
    {
      "id": "M_268",
      "pitch": 93,
      "t_note_us": 74693769,
      "t_trigger_us": 74557806,
      "is_ai": true,
      "track_id": 8,
      "velocity": 0,
      "is_motor": false,
      "motor_id": 0,
      "accel_val": 2000,
      "base_duration_us": 306122
    },
    {
      "id": "M_269",
      "pitch": 92,
      "t_note_us": 74999891,
      "t_trigger_us": 74863928,
      "is_ai": true,
      "track_id": 0,
      "velocity": 0,
      "is_motor": true,
      "motor_id": 3,
      "accel_val": 2000,
      "base_duration_us": 306122
    },
    {
      "id": "M_270",
      "pitch": 93,
      "t_note_us": 75306013,
      "t_trigger_us": 75170050,
      "is_ai": true,
      "track_id": 8,
      "velocity": 0,
      "is_motor": false,
      "motor_id": 0,
      "accel_val": 2000,
      "base_duration_us": 306122
    },
    {
      "id": "M_271",
      "pitch": 92,
      "t_note_us": 75612135,
      "t_trigger_us": 75476172,
      "is_ai": true,
      "track_id": 0,
      "velocity": 0,
      "is_motor": true,
      "motor_id": 3,
      "accel_val": 2000,
      "base_duration_us": 306122
    },
    {
      "id": "M_272",
      "pitch": 93,
      "t_note_us": 75918257,
      "t_trigger_us": 75782294,
      "is_ai": true,
      "track_id": 8,
      "velocity": 0,
      "is_motor": false,
      "motor_id": 0,
      "accel_val": 2000,
      "base_duration_us": 306122
    },
    {
      "id": "M_273",
      "pitch": 88,
      "t_note_us": 76224379,
      "t_trigger_us": 76088416,
      "is_ai": true,
      "track_id": 5,
      "velocity": 0,
      "is_motor": false,
      "motor_id": 0,
      "accel_val": 2000,
      "base_duration_us": 306122
    },
    {
      "id": "M_274",
      "pitch": 91,
      "t_note_us": 76530501,
      "t_trigger_us": 76394538,
      "is_ai": true,
      "track_id": 7,
      "velocity": 0,
      "is_motor": false,
      "motor_id": 0,
      "accel_val": 2000,
      "base_duration_us": 306122
    },
    {
      "id": "M_275",
      "pitch": 89,
      "t_note_us": 76836623,
      "t_trigger_us": 76700660,
      "is_ai": true,
      "track_id": 6,
      "velocity": 0,
      "is_motor": false,
      "motor_id": 0,
      "accel_val": 2000,
      "base_duration_us": 306122
    },
    {
      "id": "M_276",
      "pitch": 62,
      "t_note_us": 77142745,
      "t_trigger_us": 77006782,
      "is_ai": false,
      "track_id": 0,
      "velocity": 0,
      "is_motor": true,
      "motor_id": 1,
      "accel_val": 2000,
      "base_duration_us": 306122
    },
    {
      "id": "M_278",
      "pitch": 74,
      "t_note_us": 77142745,
      "t_trigger_us": 77006782,
      "is_ai": false,
      "track_id": 0,
      "velocity": 0,
      "is_motor": true,
      "motor_id": 0,
      "accel_val": 2000,
      "base_duration_us": 612244
    },
    {
      "id": "M_277",
      "pitch": 69,
      "t_note_us": 77448867,
      "t_trigger_us": 77312904,
      "is_ai": false,
      "track_id": 0,
      "velocity": 0,
      "is_motor": true,
      "motor_id": 1,
      "accel_val": 2000,
      "base_duration_us": 306122
    },
    {
      "id": "M_279",
      "pitch": 74,
      "t_note_us": 77754989,
      "t_trigger_us": 77619026,
      "is_ai": false,
      "track_id": 0,
      "velocity": 0,
      "is_motor": true,
      "motor_id": 1,
      "accel_val": 2000,
      "base_duration_us": 306122
    },
    {
      "id": "M_280",
      "pitch": 77,
      "t_note_us": 78061111,
      "t_trigger_us": 77925148,
      "is_ai": false,
      "track_id": 0,
      "velocity": 0,
      "is_motor": true,
      "motor_id": 2,
      "accel_val": 2000,
      "base_duration_us": 306122
    },
    {
      "id": "M_281",
      "pitch": 69,
      "t_note_us": 78367233,
      "t_trigger_us": 78231270,
      "is_ai": false,
      "track_id": 0,
      "velocity": 0,
      "is_motor": true,
      "motor_id": 1,
      "accel_val": 2000,
      "base_duration_us": 306122
    },
    {
      "id": "M_282",
      "pitch": 74,
      "t_note_us": 78673355,
      "t_trigger_us": 78537392,
      "is_ai": false,
      "track_id": 0,
      "velocity": 0,
      "is_motor": true,
      "motor_id": 1,
      "accel_val": 2000,
      "base_duration_us": 306122
    },
    {
      "id": "M_283",
      "pitch": 57,
      "t_note_us": 78979477,
      "t_trigger_us": 78843514,
      "is_ai": false,
      "track_id": 0,
      "velocity": 0,
      "is_motor": true,
      "motor_id": 0,
      "accel_val": 2000,
      "base_duration_us": 306122
    },
    {
      "id": "M_285",
      "pitch": 76,
      "t_note_us": 78979477,
      "t_trigger_us": 78843514,
      "is_ai": false,
      "track_id": 0,
      "velocity": 0,
      "is_motor": true,
      "motor_id": 2,
      "accel_val": 2000,
      "base_duration_us": 612244
    },
    {
      "id": "M_284",
      "pitch": 69,
      "t_note_us": 79285599,
      "t_trigger_us": 79149636,
      "is_ai": false,
      "track_id": 0,
      "velocity": 0,
      "is_motor": true,
      "motor_id": 1,
      "accel_val": 2000,
      "base_duration_us": 306122
    },
    {
      "id": "M_286",
      "pitch": 73,
      "t_note_us": 79591721,
      "t_trigger_us": 79455758,
      "is_ai": false,
      "track_id": 0,
      "velocity": 0,
      "is_motor": true,
      "motor_id": 1,
      "accel_val": 2000,
      "base_duration_us": 306122
    },
    {
      "id": "M_287",
      "pitch": 69,
      "t_note_us": 79897843,
      "t_trigger_us": 79761880,
      "is_ai": false,
      "track_id": 0,
      "velocity": 0,
      "is_motor": true,
      "motor_id": 1,
      "accel_val": 2000,
      "base_duration_us": 306122
    },
    {
      "id": "M_288",
      "pitch": 89,
      "t_note_us": 80203965,
      "t_trigger_us": 80068002,
      "is_ai": true,
      "track_id": 6,
      "velocity": 0,
      "is_motor": false,
      "motor_id": 0,
      "accel_val": 2000,
      "base_duration_us": 306122
    },
    {
      "id": "M_289",
      "pitch": 76,
      "t_note_us": 80510087,
      "t_trigger_us": 80374124,
      "is_ai": false,
      "track_id": 0,
      "velocity": 0,
      "is_motor": true,
      "motor_id": 2,
      "accel_val": 2000,
      "base_duration_us": 306122
    },
    {
      "id": "M_290",
      "pitch": 62,
      "t_note_us": 80816209,
      "t_trigger_us": 80680246,
      "is_ai": false,
      "track_id": 0,
      "velocity": 0,
      "is_motor": true,
      "motor_id": 1,
      "accel_val": 2000,
      "base_duration_us": 306122
    },
    {
      "id": "M_292",
      "pitch": 74,
      "t_note_us": 80816209,
      "t_trigger_us": 80680246,
      "is_ai": false,
      "track_id": 0,
      "velocity": 0,
      "is_motor": true,
      "motor_id": 0,
      "accel_val": 2000,
      "base_duration_us": 612244
    },
    {
      "id": "M_291",
      "pitch": 69,
      "t_note_us": 81122331,
      "t_trigger_us": 80986368,
      "is_ai": false,
      "track_id": 0,
      "velocity": 0,
      "is_motor": true,
      "motor_id": 1,
      "accel_val": 2000,
      "base_duration_us": 306122
    },
    {
      "id": "M_293",
      "pitch": 74,
      "t_note_us": 81428453,
      "t_trigger_us": 81292490,
      "is_ai": false,
      "track_id": 0,
      "velocity": 0,
      "is_motor": true,
      "motor_id": 1,
      "accel_val": 2000,
      "base_duration_us": 306122
    },
    {
      "id": "M_297",
      "pitch": 89,
      "t_note_us": 81734575,
      "t_trigger_us": 81598612,
      "is_ai": true,
      "track_id": 6,
      "velocity": 0,
      "is_motor": false,
      "motor_id": 0,
      "accel_val": 2000,
      "base_duration_us": 306122
    },
    {
      "id": "M_294",
      "pitch": 75,
      "t_note_us": 81734575,
      "t_trigger_us": 81598612,
      "is_ai": false,
      "track_id": 0,
      "velocity": 0,
      "is_motor": true,
      "motor_id": 2,
      "accel_val": 2000,
      "base_duration_us": 306122
    },
    {
      "id": "M_295",
      "pitch": 77,
      "t_note_us": 81734575,
      "t_trigger_us": 81598612,
      "is_ai": false,
      "track_id": 0,
      "velocity": 0,
      "is_motor": true,
      "motor_id": 1,
      "accel_val": 2000,
      "base_duration_us": 306122
    },
    {
      "id": "M_296",
      "pitch": 69,
      "t_note_us": 81734575,
      "t_trigger_us": 81598612,
      "is_ai": false,
      "track_id": 0,
      "velocity": 0,
      "is_motor": true,
      "motor_id": 0,
      "accel_val": 2000,
      "base_duration_us": 306122
    },
    {
      "id": "M_298",
      "pitch": 74,
      "t_note_us": 82040697,
      "t_trigger_us": 81904734,
      "is_ai": false,
      "track_id": 0,
      "velocity": 0,
      "is_motor": true,
      "motor_id": 1,
      "accel_val": 2000,
      "base_duration_us": 306122
    },
    {
      "id": "M_299",
      "pitch": 77,
      "t_note_us": 82040697,
      "t_trigger_us": 81904734,
      "is_ai": false,
      "track_id": 0,
      "velocity": 0,
      "is_motor": true,
      "motor_id": 2,
      "accel_val": 2000,
      "base_duration_us": 306122
    },
    {
      "id": "M_300",
      "pitch": 70,
      "t_note_us": 82040697,
      "t_trigger_us": 81904734,
      "is_ai": false,
      "track_id": 0,
      "velocity": 0,
      "is_motor": true,
      "motor_id": 0,
      "accel_val": 2000,
      "base_duration_us": 306122
    },
    {
      "id": "M_301",
      "pitch": 77,
      "t_note_us": 82040697,
      "t_trigger_us": 81904734,
      "is_ai": false,
      "track_id": 0,
      "velocity": 0,
      "is_motor": true,
      "motor_id": 3,
      "accel_val": 2000,
      "base_duration_us": 306122
    },
    {
      "id": "M_302",
      "pitch": 72,
      "t_note_us": 82346819,
      "t_trigger_us": 82210856,
      "is_ai": false,
      "track_id": 0,
      "velocity": 0,
      "is_motor": true,
      "motor_id": 1,
      "accel_val": 2000,
      "base_duration_us": 306121
    },
    {
      "id": "M_303",
      "pitch": 75,
      "t_note_us": 82346819,
      "t_trigger_us": 82210856,
      "is_ai": false,
      "track_id": 0,
      "velocity": 0,
      "is_motor": true,
      "motor_id": 2,
      "accel_val": 2000,
      "base_duration_us": 306121
    },
    {
      "id": "M_304",
      "pitch": 77,
      "t_note_us": 82346819,
      "t_trigger_us": 82210856,
      "is_ai": false,
      "track_id": 0,
      "velocity": 0,
      "is_motor": true,
      "motor_id": 3,
      "accel_val": 2000,
      "base_duration_us": 306121
    },
    {
      "id": "M_305",
      "pitch": 69,
      "t_note_us": 82346819,
      "t_trigger_us": 82210856,
      "is_ai": false,
      "track_id": 0,
      "velocity": 0,
      "is_motor": true,
      "motor_id": 0,
      "accel_val": 2000,
      "base_duration_us": 306121
    },
    {
      "id": "M_306",
      "pitch": 72,
      "t_note_us": 82346819,
      "t_trigger_us": 82210856,
      "is_ai": false,
      "track_id": 0,
      "velocity": 0,
      "is_motor": true,
      "motor_id": 0,
      "accel_val": 2000,
      "base_duration_us": 306121
    },
    {
      "id": "M_307",
      "pitch": 77,
      "t_note_us": 82346819,
      "t_trigger_us": 82210856,
      "is_ai": false,
      "track_id": 0,
      "velocity": 0,
      "is_motor": true,
      "motor_id": 0,
      "accel_val": 2000,
      "base_duration_us": 306121
    },
    {
      "id": "M_308",
      "pitch": 70,
      "t_note_us": 82652940,
      "t_trigger_us": 82516977,
      "is_ai": false,
      "track_id": 0,
      "velocity": 0,
      "is_motor": true,
      "motor_id": 1,
      "accel_val": 2000,
      "base_duration_us": 306122
    },
    {
      "id": "M_312",
      "pitch": 77,
      "t_note_us": 82652940,
      "t_trigger_us": 82516977,
      "is_ai": false,
      "track_id": 0,
      "velocity": 0,
      "is_motor": true,
      "motor_id": 2,
      "accel_val": 2000,
      "base_duration_us": 1224488
    },
    {
      "id": "M_309",
      "pitch": 74,
      "t_note_us": 82959062,
      "t_trigger_us": 82823099,
      "is_ai": false,
      "track_id": 0,
      "velocity": 0,
      "is_motor": true,
      "motor_id": 1,
      "accel_val": 2000,
      "base_duration_us": 306122
    },
    {
      "id": "M_310",
      "pitch": 77,
      "t_note_us": 83265184,
      "t_trigger_us": 83129221,
      "is_ai": false,
      "track_id": 0,
      "velocity": 0,
      "is_motor": true,
      "motor_id": 1,
      "accel_val": 2000,
      "base_duration_us": 306122
    },
    {
      "id": "M_311",
      "pitch": 74,
      "t_note_us": 83571306,
      "t_trigger_us": 83435343,
      "is_ai": false,
      "track_id": 0,
      "velocity": 0,
      "is_motor": true,
      "motor_id": 1,
      "accel_val": 2000,
      "base_duration_us": 306122
    },
    {
      "id": "M_315",
      "pitch": 94,
      "t_note_us": 83877428,
      "t_trigger_us": 83741465,
      "is_ai": true,
      "track_id": 0,
      "velocity": 0,
      "is_motor": true,
      "motor_id": 3,
      "accel_val": 2000,
      "base_duration_us": 612244
    },
    {
      "id": "M_313",
      "pitch": 77,
      "t_note_us": 83877428,
      "t_trigger_us": 83741465,
      "is_ai": false,
      "track_id": 0,
      "velocity": 0,
      "is_motor": true,
      "motor_id": 2,
      "accel_val": 2000,
      "base_duration_us": 306122
    },
    {
      "id": "M_314",
      "pitch": 74,
      "t_note_us": 84183550,
      "t_trigger_us": 84047587,
      "is_ai": false,
      "track_id": 0,
      "velocity": 0,
      "is_motor": true,
      "motor_id": 1,
      "accel_val": 2000,
      "base_duration_us": 306122
    },
    {
      "id": "M_316",
      "pitch": 93,
      "t_note_us": 84489672,
      "t_trigger_us": 84353709,
      "is_ai": true,
      "track_id": 8,
      "velocity": 0,
      "is_motor": false,
      "motor_id": 0,
      "accel_val": 2000,
      "base_duration_us": 153061
    },
    {
      "id": "M_317",
      "pitch": 70,
      "t_note_us": 84489672,
      "t_trigger_us": 84353709,
      "is_ai": false,
      "track_id": 0,
      "velocity": 0,
      "is_motor": true,
      "motor_id": 1,
      "accel_val": 2000,
      "base_duration_us": 306122
    },
    {
      "id": "M_318",
      "pitch": 75,
      "t_note_us": 84795794,
      "t_trigger_us": 84659831,
      "is_ai": false,
      "track_id": 0,
      "velocity": 0,
      "is_motor": true,
      "motor_id": 2,
      "accel_val": 2000,
      "base_duration_us": 306122
    },
    {
      "id": "M_321",
      "pitch": 91,
      "t_note_us": 85101916,
      "t_trigger_us": 84965953,
      "is_ai": true,
      "track_id": 7,
      "velocity": 0,
      "is_motor": false,
      "motor_id": 0,
      "accel_val": 2000,
      "base_duration_us": 612244
    },
    {
      "id": "M_319",
      "pitch": 67,
      "t_note_us": 85101916,
      "t_trigger_us": 84965953,
      "is_ai": false,
      "track_id": 0,
      "velocity": 0,
      "is_motor": true,
      "motor_id": 1,
      "accel_val": 2000,
      "base_duration_us": 306122
    },
    {
      "id": "M_320",
      "pitch": 75,
      "t_note_us": 85408038,
      "t_trigger_us": 85272075,
      "is_ai": false,
      "track_id": 0,
      "velocity": 0,
      "is_motor": true,
      "motor_id": 2,
      "accel_val": 2000,
      "base_duration_us": 306122
    },
    {
      "id": "M_324",
      "pitch": 99,
      "t_note_us": 85714160,
      "t_trigger_us": 85578197,
      "is_ai": true,
      "track_id": 0,
      "velocity": 0,
      "is_motor": true,
      "motor_id": 3,
      "accel_val": 2000,
      "base_duration_us": 612244
    },
    {
      "id": "M_322",
      "pitch": 67,
      "t_note_us": 85714160,
      "t_trigger_us": 85578197,
      "is_ai": false,
      "track_id": 0,
      "velocity": 0,
      "is_motor": true,
      "motor_id": 1,
      "accel_val": 2000,
      "base_duration_us": 306122
    },
    {
      "id": "M_323",
      "pitch": 75,
      "t_note_us": 86020282,
      "t_trigger_us": 85884319,
      "is_ai": false,
      "track_id": 0,
      "velocity": 0,
      "is_motor": true,
      "motor_id": 2,
      "accel_val": 2000,
      "base_duration_us": 306122
    },
    {
      "id": "M_325",
      "pitch": 98,
      "t_note_us": 86326404,
      "t_trigger_us": 86190441,
      "is_ai": true,
      "track_id": 11,
      "velocity": 0,
      "is_motor": false,
      "motor_id": 0,
      "accel_val": 2000,
      "base_duration_us": 153061
    },
    {
      "id": "M_326",
      "pitch": 70,
      "t_note_us": 86326404,
      "t_trigger_us": 86190441,
      "is_ai": false,
      "track_id": 0,
      "velocity": 0,
      "is_motor": true,
      "motor_id": 1,
      "accel_val": 2000,
      "base_duration_us": 306122
    },
    {
      "id": "M_328",
      "pitch": 96,
      "t_note_us": 86632526,
      "t_trigger_us": 86496563,
      "is_ai": true,
      "track_id": 10,
      "velocity": 0,
      "is_motor": false,
      "motor_id": 0,
      "accel_val": 2000,
      "base_duration_us": 306122
    },
    {
      "id": "M_327",
      "pitch": 69,
      "t_note_us": 86632526,
      "t_trigger_us": 86496563,
      "is_ai": false,
      "track_id": 0,
      "velocity": 0,
      "is_motor": true,
      "motor_id": 1,
      "accel_val": 2000,
      "base_duration_us": 306122
    },
    {
      "id": "M_332",
      "pitch": 94,
      "t_note_us": 86938648,
      "t_trigger_us": 86802685,
      "is_ai": true,
      "track_id": 0,
      "velocity": 0,
      "is_motor": true,
      "motor_id": 3,
      "accel_val": 2000,
      "base_duration_us": 306122
    },
    {
      "id": "M_329",
      "pitch": 70,
      "t_note_us": 86938648,
      "t_trigger_us": 86802685,
      "is_ai": false,
      "track_id": 0,
      "velocity": 0,
      "is_motor": true,
      "motor_id": 1,
      "accel_val": 2000,
      "base_duration_us": 306122
    },
    {
      "id": "M_330",
      "pitch": 75,
      "t_note_us": 86938648,
      "t_trigger_us": 86802685,
      "is_ai": false,
      "track_id": 0,
      "velocity": 0,
      "is_motor": true,
      "motor_id": 2,
      "accel_val": 2000,
      "base_duration_us": 306122
    },
    {
      "id": "M_331",
      "pitch": 72,
      "t_note_us": 86938648,
      "t_trigger_us": 86802685,
      "is_ai": false,
      "track_id": 0,
      "velocity": 0,
      "is_motor": true,
      "motor_id": 0,
      "accel_val": 2000,
      "base_duration_us": 306122
    },
    {
      "id": "M_334",
      "pitch": 93,
      "t_note_us": 87244770,
      "t_trigger_us": 87108807,
      "is_ai": true,
      "track_id": 8,
      "velocity": 0,
      "is_motor": false,
      "motor_id": 0,
      "accel_val": 2000,
      "base_duration_us": 306122
    },
    {
      "id": "M_333",
      "pitch": 69,
      "t_note_us": 87244770,
      "t_trigger_us": 87108807,
      "is_ai": false,
      "track_id": 0,
      "velocity": 0,
      "is_motor": true,
      "motor_id": 1,
      "accel_val": 2000,
      "base_duration_us": 306122
    },
    {
      "id": "M_338",
      "pitch": 91,
      "t_note_us": 87550892,
      "t_trigger_us": 87414929,
      "is_ai": true,
      "track_id": 7,
      "velocity": 0,
      "is_motor": false,
      "motor_id": 0,
      "accel_val": 2000,
      "base_duration_us": 306122
    },
    {
      "id": "M_335",
      "pitch": 70,
      "t_note_us": 87550892,
      "t_trigger_us": 87414929,
      "is_ai": false,
      "track_id": 0,
      "velocity": 0,
      "is_motor": true,
      "motor_id": 1,
      "accel_val": 2000,
      "base_duration_us": 306122
    },
    {
      "id": "M_336",
      "pitch": 72,
      "t_note_us": 87550892,
      "t_trigger_us": 87414929,
      "is_ai": false,
      "track_id": 0,
      "velocity": 0,
      "is_motor": true,
      "motor_id": 0,
      "accel_val": 2000,
      "base_duration_us": 306122
    },
    {
      "id": "M_337",
      "pitch": 75,
      "t_note_us": 87550892,
      "t_trigger_us": 87414929,
      "is_ai": false,
      "track_id": 0,
      "velocity": 0,
      "is_motor": true,
      "motor_id": 2,
      "accel_val": 2000,
      "base_duration_us": 306122
    },
    {
      "id": "M_340",
      "pitch": 89,
      "t_note_us": 87857014,
      "t_trigger_us": 87721051,
      "is_ai": true,
      "track_id": 6,
      "velocity": 0,
      "is_motor": false,
      "motor_id": 0,
      "accel_val": 2000,
      "base_duration_us": 306122
    },
    {
      "id": "M_339",
      "pitch": 69,
      "t_note_us": 87857014,
      "t_trigger_us": 87721051,
      "is_ai": false,
      "track_id": 0,
      "velocity": 0,
      "is_motor": true,
      "motor_id": 1,
      "accel_val": 2000,
      "base_duration_us": 306122
    },
    {
      "id": "M_341",
      "pitch": 70,
      "t_note_us": 88163136,
      "t_trigger_us": 88027173,
      "is_ai": false,
      "track_id": 0,
      "velocity": 0,
      "is_motor": true,
      "motor_id": 1,
      "accel_val": 2000,
      "base_duration_us": 306122
    },
    {
      "id": "M_343",
      "pitch": 75,
      "t_note_us": 88163136,
      "t_trigger_us": 88027173,
      "is_ai": false,
      "track_id": 0,
      "velocity": 0,
      "is_motor": true,
      "motor_id": 2,
      "accel_val": 2000,
      "base_duration_us": 612244
    },
    {
      "id": "M_342",
      "pitch": 74,
      "t_note_us": 88469258,
      "t_trigger_us": 88333295,
      "is_ai": false,
      "track_id": 0,
      "velocity": 0,
      "is_motor": true,
      "motor_id": 1,
      "accel_val": 2000,
      "base_duration_us": 306122
    },
    {
      "id": "M_344",
      "pitch": 77,
      "t_note_us": 88775380,
      "t_trigger_us": 88639417,
      "is_ai": false,
      "track_id": 0,
      "velocity": 0,
      "is_motor": true,
      "motor_id": 2,
      "accel_val": 2000,
      "base_duration_us": 306122
    },
    {
      "id": "M_346",
      "pitch": 74,
      "t_note_us": 88775380,
      "t_trigger_us": 88639417,
      "is_ai": false,
      "track_id": 0,
      "velocity": 0,
      "is_motor": true,
      "motor_id": 1,
      "accel_val": 2000,
      "base_duration_us": 612243
    },
    {
      "id": "M_345",
      "pitch": 74,
      "t_note_us": 89081502,
      "t_trigger_us": 88945539,
      "is_ai": false,
      "track_id": 0,
      "velocity": 0,
      "is_motor": true,
      "motor_id": 0,
      "accel_val": 2000,
      "base_duration_us": 306121
    },
    {
      "id": "M_347",
      "pitch": 77,
      "t_note_us": 89387623,
      "t_trigger_us": 89251660,
      "is_ai": false,
      "track_id": 0,
      "velocity": 0,
      "is_motor": true,
      "motor_id": 2,
      "accel_val": 2000,
      "base_duration_us": 306122
    },
    {
      "id": "M_348",
      "pitch": 74,
      "t_note_us": 89387623,
      "t_trigger_us": 89251660,
      "is_ai": false,
      "track_id": 0,
      "velocity": 0,
      "is_motor": true,
      "motor_id": 1,
      "accel_val": 2000,
      "base_duration_us": 306122
    },
    {
      "id": "M_349",
      "pitch": 72,
      "t_note_us": 89540684,
      "t_trigger_us": 89404721,
      "is_ai": false,
      "track_id": 0,
      "velocity": 0,
      "is_motor": true,
      "motor_id": 0,
      "accel_val": 2000,
      "base_duration_us": 306122
    },
    {
      "id": "M_350",
      "pitch": 74,
      "t_note_us": 89693745,
      "t_trigger_us": 89557782,
      "is_ai": false,
      "track_id": 0,
      "velocity": 0,
      "is_motor": true,
      "motor_id": 1,
      "accel_val": 2000,
      "base_duration_us": 306122
    },
    {
      "id": "M_351",
      "pitch": 74,
      "t_note_us": 89693745,
      "t_trigger_us": 89557782,
      "is_ai": false,
      "track_id": 0,
      "velocity": 0,
      "is_motor": true,
      "motor_id": 2,
      "accel_val": 2000,
      "base_duration_us": 306122
    },
    {
      "id": "M_352",
      "pitch": 75,
      "t_note_us": 89846806,
      "t_trigger_us": 89710843,
      "is_ai": false,
      "track_id": 0,
      "velocity": 0,
      "is_motor": true,
      "motor_id": 3,
      "accel_val": 2000,
      "base_duration_us": 306122
    },
    {
      "id": "M_357",
      "pitch": 89,
      "t_note_us": 89999867,
      "t_trigger_us": 89863904,
      "is_ai": true,
      "track_id": 6,
      "velocity": 0,
      "is_motor": false,
      "motor_id": 0,
      "accel_val": 2000,
      "base_duration_us": 1224488
    },
    {
      "id": "M_353",
      "pitch": 70,
      "t_note_us": 89999867,
      "t_trigger_us": 89863904,
      "is_ai": false,
      "track_id": 0,
      "velocity": 0,
      "is_motor": true,
      "motor_id": 1,
      "accel_val": 2000,
      "base_duration_us": 306122
    },
    {
      "id": "M_354",
      "pitch": 74,
      "t_note_us": 90305989,
      "t_trigger_us": 90170026,
      "is_ai": false,
      "track_id": 0,
      "velocity": 0,
      "is_motor": true,
      "motor_id": 1,
      "accel_val": 2000,
      "base_duration_us": 306122
    },
    {
      "id": "M_355",
      "pitch": 77,
      "t_note_us": 90612111,
      "t_trigger_us": 90476148,
      "is_ai": false,
      "track_id": 0,
      "velocity": 0,
      "is_motor": true,
      "motor_id": 2,
      "accel_val": 2000,
      "base_duration_us": 306122
    },
    {
      "id": "M_356",
      "pitch": 74,
      "t_note_us": 90918233,
      "t_trigger_us": 90782270,
      "is_ai": false,
      "track_id": 0,
      "velocity": 0,
      "is_motor": true,
      "motor_id": 1,
      "accel_val": 2000,
      "base_duration_us": 306122
    },
    {
      "id": "M_359",
      "pitch": 91,
      "t_note_us": 91224355,
      "t_trigger_us": 91088392,
      "is_ai": true,
      "track_id": 7,
      "velocity": 0,
      "is_motor": false,
      "motor_id": 0,
      "accel_val": 2000,
      "base_duration_us": 306122
    },
    {
      "id": "M_358",
      "pitch": 77,
      "t_note_us": 91224355,
      "t_trigger_us": 91088392,
      "is_ai": false,
      "track_id": 0,
      "velocity": 0,
      "is_motor": true,
      "motor_id": 2,
      "accel_val": 2000,
      "base_duration_us": 306122
    },
    {
      "id": "M_361",
      "pitch": 92,
      "t_note_us": 91530477,
      "t_trigger_us": 91394514,
      "is_ai": true,
      "track_id": 0,
      "velocity": 0,
      "is_motor": true,
      "motor_id": 3,
      "accel_val": 2000,
      "base_duration_us": 306122
    },
    {
      "id": "M_360",
      "pitch": 74,
      "t_note_us": 91530477,
      "t_trigger_us": 91394514,
      "is_ai": false,
      "track_id": 0,
      "velocity": 0,
      "is_motor": true,
      "motor_id": 1,
      "accel_val": 2000,
      "base_duration_us": 306122
    },
    {
      "id": "M_365",
      "pitch": 93,
      "t_note_us": 91836599,
      "t_trigger_us": 91700636,
      "is_ai": true,
      "track_id": 8,
      "velocity": 0,
      "is_motor": false,
      "motor_id": 0,
      "accel_val": 2000,
      "base_duration_us": 918366
    },
    {
      "id": "M_362",
      "pitch": 69,
      "t_note_us": 91836599,
      "t_trigger_us": 91700636,
      "is_ai": false,
      "track_id": 0,
      "velocity": 0,
      "is_motor": true,
      "motor_id": 1,
      "accel_val": 2000,
      "base_duration_us": 306122
    },
    {
      "id": "M_363",
      "pitch": 74,
      "t_note_us": 92142721,
      "t_trigger_us": 92006758,
      "is_ai": false,
      "track_id": 0,
      "velocity": 0,
      "is_motor": true,
      "motor_id": 1,
      "accel_val": 2000,
      "base_duration_us": 306122
    },
    {
      "id": "M_364",
      "pitch": 77,
      "t_note_us": 92448843,
      "t_trigger_us": 92312880,
      "is_ai": false,
      "track_id": 0,
      "velocity": 0,
      "is_motor": true,
      "motor_id": 2,
      "accel_val": 2000,
      "base_duration_us": 306122
    },
    {
      "id": "M_367",
      "pitch": 93,
      "t_note_us": 92754965,
      "t_trigger_us": 92619002,
      "is_ai": true,
      "track_id": 8,
      "velocity": 0,
      "is_motor": false,
      "motor_id": 0,
      "accel_val": 2000,
      "base_duration_us": 306122
    },
    {
      "id": "M_366",
      "pitch": 74,
      "t_note_us": 92754965,
      "t_trigger_us": 92619002,
      "is_ai": false,
      "track_id": 0,
      "velocity": 0,
      "is_motor": true,
      "motor_id": 1,
      "accel_val": 2000,
      "base_duration_us": 306122
    },
    {
      "id": "M_370",
      "pitch": 94,
      "t_note_us": 93061087,
      "t_trigger_us": 92925124,
      "is_ai": true,
      "track_id": 0,
      "velocity": 0,
      "is_motor": true,
      "motor_id": 3,
      "accel_val": 2000,
      "base_duration_us": 306122
    },
    {
      "id": "M_368",
      "pitch": 67,
      "t_note_us": 93061087,
      "t_trigger_us": 92925124,
      "is_ai": false,
      "track_id": 0,
      "velocity": 0,
      "is_motor": true,
      "motor_id": 1,
      "accel_val": 2000,
      "base_duration_us": 306122
    },
    {
      "id": "M_369",
      "pitch": 67,
      "t_note_us": 93061087,
      "t_trigger_us": 92925124,
      "is_ai": false,
      "track_id": 0,
      "velocity": 0,
      "is_motor": true,
      "motor_id": 2,
      "accel_val": 2000,
      "base_duration_us": 306122
    },
    {
      "id": "M_371",
      "pitch": 70,
      "t_note_us": 93367209,
      "t_trigger_us": 93231246,
      "is_ai": false,
      "track_id": 0,
      "velocity": 0,
      "is_motor": true,
      "motor_id": 1,
      "accel_val": 2000,
      "base_duration_us": 306122
    },
    {
      "id": "M_372",
      "pitch": 74,
      "t_note_us": 93367209,
      "t_trigger_us": 93231246,
      "is_ai": false,
      "track_id": 0,
      "velocity": 0,
      "is_motor": true,
      "motor_id": 0,
      "accel_val": 2000,
      "base_duration_us": 306122
    },
    {
      "id": "M_377",
      "pitch": 89,
      "t_note_us": 93673331,
      "t_trigger_us": 93537368,
      "is_ai": true,
      "track_id": 6,
      "velocity": 0,
      "is_motor": false,
      "motor_id": 0,
      "accel_val": 2000,
      "base_duration_us": 1224488
    },
    {
      "id": "M_373",
      "pitch": 72,
      "t_note_us": 93673331,
      "t_trigger_us": 93537368,
      "is_ai": false,
      "track_id": 0,
      "velocity": 0,
      "is_motor": true,
      "motor_id": 1,
      "accel_val": 2000,
      "base_duration_us": 306122
    },
    {
      "id": "M_374",
      "pitch": 69,
      "t_note_us": 93979453,
      "t_trigger_us": 93843490,
      "is_ai": false,
      "track_id": 0,
      "velocity": 0,
      "is_motor": true,
      "motor_id": 1,
      "accel_val": 2000,
      "base_duration_us": 306122
    },
    {
      "id": "M_375",
      "pitch": 72,
      "t_note_us": 94285575,
      "t_trigger_us": 94149612,
      "is_ai": false,
      "track_id": 0,
      "velocity": 0,
      "is_motor": true,
      "motor_id": 1,
      "accel_val": 2000,
      "base_duration_us": 306122
    },
    {
      "id": "M_376",
      "pitch": 69,
      "t_note_us": 94591697,
      "t_trigger_us": 94455734,
      "is_ai": false,
      "track_id": 0,
      "velocity": 0,
      "is_motor": true,
      "motor_id": 1,
      "accel_val": 2000,
      "base_duration_us": 306122
    },
    {
      "id": "M_380",
      "pitch": 91,
      "t_note_us": 94897819,
      "t_trigger_us": 94761856,
      "is_ai": true,
      "track_id": 7,
      "velocity": 0,
      "is_motor": false,
      "motor_id": 0,
      "accel_val": 2000,
      "base_duration_us": 612244
    },
    {
      "id": "M_378",
      "pitch": 72,
      "t_note_us": 94897819,
      "t_trigger_us": 94761856,
      "is_ai": false,
      "track_id": 0,
      "velocity": 0,
      "is_motor": true,
      "motor_id": 1,
      "accel_val": 2000,
      "base_duration_us": 306122
    },
    {
      "id": "M_379",
      "pitch": 70,
      "t_note_us": 95203941,
      "t_trigger_us": 95067978,
      "is_ai": false,
      "track_id": 0,
      "velocity": 0,
      "is_motor": true,
      "motor_id": 1,
      "accel_val": 2000,
      "base_duration_us": 306122
    },
    {
      "id": "M_381",
      "pitch": 88,
      "t_note_us": 95357002,
      "t_trigger_us": 95221039,
      "is_ai": true,
      "track_id": 5,
      "velocity": 0,
      "is_motor": false,
      "motor_id": 0,
      "accel_val": 2000,
      "base_duration_us": 306122
    },
    {
      "id": "M_382",
      "pitch": 89,
      "t_note_us": 95510063,
      "t_trigger_us": 95374100,
      "is_ai": true,
      "track_id": 6,
      "velocity": 0,
      "is_motor": false,
      "motor_id": 0,
      "accel_val": 2000,
      "base_duration_us": 306122
    },
    {
      "id": "M_385",
      "pitch": 77,
      "t_note_us": 95510063,
      "t_trigger_us": 95374100,
      "is_ai": false,
      "track_id": 0,
      "velocity": 0,
      "is_motor": true,
      "motor_id": 2,
      "accel_val": 2000,
      "base_duration_us": 612244
    },
    {
      "id": "M_386",
      "pitch": 69,
      "t_note_us": 95510063,
      "t_trigger_us": 95374100,
      "is_ai": false,
      "track_id": 0,
      "velocity": 0,
      "is_motor": true,
      "motor_id": 1,
      "accel_val": 2000,
      "base_duration_us": 612244
    },
    {
      "id": "M_383",
      "pitch": 96,
      "t_note_us": 95663124,
      "t_trigger_us": 95527161,
      "is_ai": true,
      "track_id": 10,
      "velocity": 0,
      "is_motor": false,
      "motor_id": 0,
      "accel_val": 2000,
      "base_duration_us": 306122
    },
    {
      "id": "M_384",
      "pitch": 72,
      "t_note_us": 95816185,
      "t_trigger_us": 95680222,
      "is_ai": false,
      "track_id": 0,
      "velocity": 0,
      "is_motor": true,
      "motor_id": 0,
      "accel_val": 2000,
      "base_duration_us": 306122
    },
    {
      "id": "M_387",
      "pitch": 96,
      "t_note_us": 95969246,
      "t_trigger_us": 95833283,
      "is_ai": true,
      "track_id": 10,
      "velocity": 0,
      "is_motor": false,
      "motor_id": 0,
      "accel_val": 2000,
      "base_duration_us": 306122
    },
    {
      "id": "M_388",
      "pitch": 86,
      "t_note_us": 96122307,
      "t_trigger_us": 95986344,
      "is_ai": true,
      "track_id": 4,
      "velocity": 0,
      "is_motor": false,
      "motor_id": 0,
      "accel_val": 2000,
      "base_duration_us": 306122
    },
    {
      "id": "M_389",
      "pitch": 96,
      "t_note_us": 96275368,
      "t_trigger_us": 96139405,
      "is_ai": true,
      "track_id": 10,
      "velocity": 0,
      "is_motor": false,
      "motor_id": 0,
      "accel_val": 2000,
      "base_duration_us": 306122
    },
    {
      "id": "M_392",
      "pitch": 88,
      "t_note_us": 96428429,
      "t_trigger_us": 96292466,
      "is_ai": true,
      "track_id": 5,
      "velocity": 0,
      "is_motor": false,
      "motor_id": 0,
      "accel_val": 2000,
      "base_duration_us": 306122
    },
    {
      "id": "M_390",
      "pitch": 70,
      "t_note_us": 96428429,
      "t_trigger_us": 96292466,
      "is_ai": false,
      "track_id": 0,
      "velocity": 0,
      "is_motor": true,
      "motor_id": 1,
      "accel_val": 2000,
      "base_duration_us": 306122
    },
    {
      "id": "M_391",
      "pitch": 72,
      "t_note_us": 96428429,
      "t_trigger_us": 96292466,
      "is_ai": false,
      "track_id": 0,
      "velocity": 0,
      "is_motor": true,
      "motor_id": 0,
      "accel_val": 2000,
      "base_duration_us": 306122
    },
    {
      "id": "M_393",
      "pitch": 96,
      "t_note_us": 96581490,
      "t_trigger_us": 96445527,
      "is_ai": true,
      "track_id": 10,
      "velocity": 0,
      "is_motor": false,
      "motor_id": 0,
      "accel_val": 2000,
      "base_duration_us": 306122
    },
    {
      "id": "M_396",
      "pitch": 89,
      "t_note_us": 96734551,
      "t_trigger_us": 96598588,
      "is_ai": true,
      "track_id": 6,
      "velocity": 0,
      "is_motor": false,
      "motor_id": 0,
      "accel_val": 2000,
      "base_duration_us": 306122
    },
    {
      "id": "M_394",
      "pitch": 69,
      "t_note_us": 96734551,
      "t_trigger_us": 96598588,
      "is_ai": false,
      "track_id": 0,
      "velocity": 0,
      "is_motor": true,
      "motor_id": 1,
      "accel_val": 2000,
      "base_duration_us": 306122
    },
    {
      "id": "M_395",
      "pitch": 72,
      "t_note_us": 96734551,
      "t_trigger_us": 96598588,
      "is_ai": false,
      "track_id": 0,
      "velocity": 0,
      "is_motor": true,
      "motor_id": 0,
      "accel_val": 2000,
      "base_duration_us": 306122
    },
    {
      "id": "M_397",
      "pitch": 96,
      "t_note_us": 96887612,
      "t_trigger_us": 96751649,
      "is_ai": true,
      "track_id": 10,
      "velocity": 0,
      "is_motor": false,
      "motor_id": 0,
      "accel_val": 2000,
      "base_duration_us": 306122
    },
    {
      "id": "M_401",
      "pitch": 91,
      "t_note_us": 97040673,
      "t_trigger_us": 96904710,
      "is_ai": true,
      "track_id": 7,
      "velocity": 0,
      "is_motor": false,
      "motor_id": 0,
      "accel_val": 2000,
      "base_duration_us": 306122
    },
    {
      "id": "M_398",
      "pitch": 67,
      "t_note_us": 97040673,
      "t_trigger_us": 96904710,
      "is_ai": false,
      "track_id": 0,
      "velocity": 0,
      "is_motor": true,
      "motor_id": 1,
      "accel_val": 2000,
      "base_duration_us": 306122
    },
    {
      "id": "M_399",
      "pitch": 70,
      "t_note_us": 97040673,
      "t_trigger_us": 96904710,
      "is_ai": false,
      "track_id": 0,
      "velocity": 0,
      "is_motor": true,
      "motor_id": 2,
      "accel_val": 2000,
      "base_duration_us": 306122
    },
    {
      "id": "M_400",
      "pitch": 72,
      "t_note_us": 97040673,
      "t_trigger_us": 96904710,
      "is_ai": false,
      "track_id": 0,
      "velocity": 0,
      "is_motor": true,
      "motor_id": 0,
      "accel_val": 2000,
      "base_duration_us": 306122
    },
    {
      "id": "M_402",
      "pitch": 96,
      "t_note_us": 97193734,
      "t_trigger_us": 97057771,
      "is_ai": true,
      "track_id": 10,
      "velocity": 0,
      "is_motor": false,
      "motor_id": 0,
      "accel_val": 2000,
      "base_duration_us": 306122
    },
    {
      "id": "M_403",
      "pitch": 93,
      "t_note_us": 97346795,
      "t_trigger_us": 97210832,
      "is_ai": true,
      "track_id": 8,
      "velocity": 0,
      "is_motor": false,
      "motor_id": 0,
      "accel_val": 2000,
      "base_duration_us": 306122
    },
    {
      "id": "M_406",
      "pitch": 77,
      "t_note_us": 97346795,
      "t_trigger_us": 97210832,
      "is_ai": false,
      "track_id": 0,
      "velocity": 0,
      "is_motor": true,
      "motor_id": 2,
      "accel_val": 2000,
      "base_duration_us": 612244
    },
    {
      "id": "M_407",
      "pitch": 69,
      "t_note_us": 97346795,
      "t_trigger_us": 97210832,
      "is_ai": false,
      "track_id": 0,
      "velocity": 0,
      "is_motor": true,
      "motor_id": 1,
      "accel_val": 2000,
      "base_duration_us": 612244
    },
    {
      "id": "M_408",
      "pitch": 72,
      "t_note_us": 97346795,
      "t_trigger_us": 97210832,
      "is_ai": false,
      "track_id": 0,
      "velocity": 0,
      "is_motor": true,
      "motor_id": 0,
      "accel_val": 2000,
      "base_duration_us": 612244
    },
    {
      "id": "M_404",
      "pitch": 96,
      "t_note_us": 97499856,
      "t_trigger_us": 97363893,
      "is_ai": true,
      "track_id": 10,
      "velocity": 0,
      "is_motor": false,
      "motor_id": 0,
      "accel_val": 2000,
      "base_duration_us": 306122
    },
    {
      "id": "M_405",
      "pitch": 77,
      "t_note_us": 97652917,
      "t_trigger_us": 97516954,
      "is_ai": false,
      "track_id": 0,
      "velocity": 0,
      "is_motor": true,
      "motor_id": 3,
      "accel_val": 2000,
      "base_duration_us": 306122
    },
    {
      "id": "M_409",
      "pitch": 100,
      "t_note_us": 97805978,
      "t_trigger_us": 97670015,
      "is_ai": true,
      "track_id": 12,
      "velocity": 0,
      "is_motor": false,
      "motor_id": 0,
      "accel_val": 2000,
      "base_duration_us": 306122
    },
    {
      "id": "M_410",
      "pitch": 98,
      "t_note_us": 97959039,
      "t_trigger_us": 97823076,
      "is_ai": true,
      "track_id": 11,
      "velocity": 0,
      "is_motor": false,
      "motor_id": 0,
      "accel_val": 2000,
      "base_duration_us": 306122
    },
    {
      "id": "M_413",
      "pitch": 70,
      "t_note_us": 97959039,
      "t_trigger_us": 97823076,
      "is_ai": false,
      "track_id": 0,
      "velocity": 0,
      "is_motor": true,
      "motor_id": 1,
      "accel_val": 2000,
      "base_duration_us": 612244
    },
    {
      "id": "M_414",
      "pitch": 74,
      "t_note_us": 97959039,
      "t_trigger_us": 97823076,
      "is_ai": false,
      "track_id": 0,
      "velocity": 0,
      "is_motor": true,
      "motor_id": 0,
      "accel_val": 2000,
      "base_duration_us": 612244
    },
    {
      "id": "M_411",
      "pitch": 96,
      "t_note_us": 98112100,
      "t_trigger_us": 97976137,
      "is_ai": true,
      "track_id": 10,
      "velocity": 0,
      "is_motor": false,
      "motor_id": 0,
      "accel_val": 2000,
      "base_duration_us": 306122
    },
    {
      "id": "M_412",
      "pitch": 94,
      "t_note_us": 98265161,
      "t_trigger_us": 98129198,
      "is_ai": true,
      "track_id": 0,
      "velocity": 0,
      "is_motor": true,
      "motor_id": 3,
      "accel_val": 2000,
      "base_duration_us": 306122
    },
    {
      "id": "M_415",
      "pitch": 93,
      "t_note_us": 98418222,
      "t_trigger_us": 98282259,
      "is_ai": true,
      "track_id": 8,
      "velocity": 0,
      "is_motor": false,
      "motor_id": 0,
      "accel_val": 2000,
      "base_duration_us": 306122
    },
    {
      "id": "M_416",
      "pitch": 91,
      "t_note_us": 98571283,
      "t_trigger_us": 98435320,
      "is_ai": true,
      "track_id": 7,
      "velocity": 0,
      "is_motor": false,
      "motor_id": 0,
      "accel_val": 2000,
      "base_duration_us": 306122
    },
    {
      "id": "M_419",
      "pitch": 72,
      "t_note_us": 98571283,
      "t_trigger_us": 98435320,
      "is_ai": false,
      "track_id": 0,
      "velocity": 0,
      "is_motor": true,
      "motor_id": 1,
      "accel_val": 2000,
      "base_duration_us": 612244
    },
    {
      "id": "M_420",
      "pitch": 76,
      "t_note_us": 98571283,
      "t_trigger_us": 98435320,
      "is_ai": false,
      "track_id": 0,
      "velocity": 0,
      "is_motor": true,
      "motor_id": 2,
      "accel_val": 2000,
      "base_duration_us": 612244
    },
    {
      "id": "M_417",
      "pitch": 96,
      "t_note_us": 98724344,
      "t_trigger_us": 98588381,
      "is_ai": true,
      "track_id": 10,
      "velocity": 0,
      "is_motor": false,
      "motor_id": 0,
      "accel_val": 2000,
      "base_duration_us": 306122
    },
    {
      "id": "M_418",
      "pitch": 94,
      "t_note_us": 98877405,
      "t_trigger_us": 98741442,
      "is_ai": true,
      "track_id": 0,
      "velocity": 0,
      "is_motor": true,
      "motor_id": 3,
      "accel_val": 2000,
      "base_duration_us": 306122
    },
    {
      "id": "M_421",
      "pitch": 91,
      "t_note_us": 99030466,
      "t_trigger_us": 98894503,
      "is_ai": true,
      "track_id": 7,
      "velocity": 0,
      "is_motor": false,
      "motor_id": 0,
      "accel_val": 2000,
      "base_duration_us": 306122
    },
    {
      "id": "M_422",
      "pitch": 89,
      "t_note_us": 99183527,
      "t_trigger_us": 99047564,
      "is_ai": true,
      "track_id": 6,
      "velocity": 0,
      "is_motor": false,
      "motor_id": 0,
      "accel_val": 2000,
      "base_duration_us": 306122
    },
    {
      "id": "M_425",
      "pitch": 77,
      "t_note_us": 99183527,
      "t_trigger_us": 99047564,
      "is_ai": false,
      "track_id": 0,
      "velocity": 0,
      "is_motor": true,
      "motor_id": 2,
      "accel_val": 2000,
      "base_duration_us": 612244
    },
    {
      "id": "M_426",
      "pitch": 69,
      "t_note_us": 99183527,
      "t_trigger_us": 99047564,
      "is_ai": false,
      "track_id": 0,
      "velocity": 0,
      "is_motor": true,
      "motor_id": 1,
      "accel_val": 2000,
      "base_duration_us": 612244
    },
    {
      "id": "M_423",
      "pitch": 96,
      "t_note_us": 99336588,
      "t_trigger_us": 99200625,
      "is_ai": true,
      "track_id": 10,
      "velocity": 0,
      "is_motor": false,
      "motor_id": 0,
      "accel_val": 2000,
      "base_duration_us": 306122
    },
    {
      "id": "M_424",
      "pitch": 72,
      "t_note_us": 99489649,
      "t_trigger_us": 99353686,
      "is_ai": false,
      "track_id": 0,
      "velocity": 0,
      "is_motor": true,
      "motor_id": 0,
      "accel_val": 2000,
      "base_duration_us": 306122
    },
    {
      "id": "M_427",
      "pitch": 96,
      "t_note_us": 99642710,
      "t_trigger_us": 99506747,
      "is_ai": true,
      "track_id": 10,
      "velocity": 0,
      "is_motor": false,
      "motor_id": 0,
      "accel_val": 2000,
      "base_duration_us": 306122
    },
    {
      "id": "M_428",
      "pitch": 86,
      "t_note_us": 99795771,
      "t_trigger_us": 99659808,
      "is_ai": true,
      "track_id": 4,
      "velocity": 0,
      "is_motor": false,
      "motor_id": 0,
      "accel_val": 2000,
      "base_duration_us": 306122
    },
    {
      "id": "M_429",
      "pitch": 96,
      "t_note_us": 99948832,
      "t_trigger_us": 99812869,
      "is_ai": true,
      "track_id": 10,
      "velocity": 0,
      "is_motor": false,
      "motor_id": 0,
      "accel_val": 2000,
      "base_duration_us": 306122
    },
    {
      "id": "M_430",
      "pitch": 70,
      "t_note_us": 100101893,
      "t_trigger_us": 99965930,
      "is_ai": false,
      "track_id": 0,
      "velocity": 0,
      "is_motor": true,
      "motor_id": 1,
      "accel_val": 2000,
      "base_duration_us": 306122
    },
    {
      "id": "M_431",
      "pitch": 72,
      "t_note_us": 100101893,
      "t_trigger_us": 99965930,
      "is_ai": false,
      "track_id": 0,
      "velocity": 0,
      "is_motor": true,
      "motor_id": 0,
      "accel_val": 2000,
      "base_duration_us": 306122
    },
    {
      "id": "M_432",
      "pitch": 76,
      "t_note_us": 100101893,
      "t_trigger_us": 99965930,
      "is_ai": false,
      "track_id": 0,
      "velocity": 0,
      "is_motor": true,
      "motor_id": 2,
      "accel_val": 2000,
      "base_duration_us": 306122
    },
    {
      "id": "M_433",
      "pitch": 96,
      "t_note_us": 100254954,
      "t_trigger_us": 100118991,
      "is_ai": true,
      "track_id": 10,
      "velocity": 0,
      "is_motor": false,
      "motor_id": 0,
      "accel_val": 2000,
      "base_duration_us": 306122
    },
    {
      "id": "M_436",
      "pitch": 89,
      "t_note_us": 100408015,
      "t_trigger_us": 100272052,
      "is_ai": true,
      "track_id": 6,
      "velocity": 0,
      "is_motor": false,
      "motor_id": 0,
      "accel_val": 2000,
      "base_duration_us": 306122
    },
    {
      "id": "M_434",
      "pitch": 69,
      "t_note_us": 100408015,
      "t_trigger_us": 100272052,
      "is_ai": false,
      "track_id": 0,
      "velocity": 0,
      "is_motor": true,
      "motor_id": 1,
      "accel_val": 2000,
      "base_duration_us": 306122
    },
    {
      "id": "M_435",
      "pitch": 72,
      "t_note_us": 100408015,
      "t_trigger_us": 100272052,
      "is_ai": false,
      "track_id": 0,
      "velocity": 0,
      "is_motor": true,
      "motor_id": 0,
      "accel_val": 2000,
      "base_duration_us": 306122
    },
    {
      "id": "M_437",
      "pitch": 96,
      "t_note_us": 100561076,
      "t_trigger_us": 100425113,
      "is_ai": true,
      "track_id": 10,
      "velocity": 0,
      "is_motor": false,
      "motor_id": 0,
      "accel_val": 2000,
      "base_duration_us": 306122
    },
    {
      "id": "M_441",
      "pitch": 91,
      "t_note_us": 100714137,
      "t_trigger_us": 100578174,
      "is_ai": true,
      "track_id": 7,
      "velocity": 0,
      "is_motor": false,
      "motor_id": 0,
      "accel_val": 2000,
      "base_duration_us": 306122
    },
    {
      "id": "M_438",
      "pitch": 67,
      "t_note_us": 100714137,
      "t_trigger_us": 100578174,
      "is_ai": false,
      "track_id": 0,
      "velocity": 0,
      "is_motor": true,
      "motor_id": 1,
      "accel_val": 2000,
      "base_duration_us": 306122
    },
    {
      "id": "M_439",
      "pitch": 70,
      "t_note_us": 100714137,
      "t_trigger_us": 100578174,
      "is_ai": false,
      "track_id": 0,
      "velocity": 0,
      "is_motor": true,
      "motor_id": 2,
      "accel_val": 2000,
      "base_duration_us": 306122
    },
    {
      "id": "M_440",
      "pitch": 72,
      "t_note_us": 100714137,
      "t_trigger_us": 100578174,
      "is_ai": false,
      "track_id": 0,
      "velocity": 0,
      "is_motor": true,
      "motor_id": 0,
      "accel_val": 2000,
      "base_duration_us": 306122
    },
    {
      "id": "M_442",
      "pitch": 96,
      "t_note_us": 100867198,
      "t_trigger_us": 100731235,
      "is_ai": true,
      "track_id": 10,
      "velocity": 0,
      "is_motor": false,
      "motor_id": 0,
      "accel_val": 2000,
      "base_duration_us": 306122
    },
    {
      "id": "M_443",
      "pitch": 93,
      "t_note_us": 101020259,
      "t_trigger_us": 100884296,
      "is_ai": true,
      "track_id": 8,
      "velocity": 0,
      "is_motor": false,
      "motor_id": 0,
      "accel_val": 2000,
      "base_duration_us": 306122
    },
    {
      "id": "M_446",
      "pitch": 77,
      "t_note_us": 101020259,
      "t_trigger_us": 100884296,
      "is_ai": false,
      "track_id": 0,
      "velocity": 0,
      "is_motor": true,
      "motor_id": 2,
      "accel_val": 2000,
      "base_duration_us": 612244
    },
    {
      "id": "M_447",
      "pitch": 69,
      "t_note_us": 101020259,
      "t_trigger_us": 100884296,
      "is_ai": false,
      "track_id": 0,
      "velocity": 0,
      "is_motor": true,
      "motor_id": 1,
      "accel_val": 2000,
      "base_duration_us": 612244
    },
    {
      "id": "M_448",
      "pitch": 72,
      "t_note_us": 101020259,
      "t_trigger_us": 100884296,
      "is_ai": false,
      "track_id": 0,
      "velocity": 0,
      "is_motor": true,
      "motor_id": 0,
      "accel_val": 2000,
      "base_duration_us": 612244
    },
    {
      "id": "M_444",
      "pitch": 96,
      "t_note_us": 101173320,
      "t_trigger_us": 101037357,
      "is_ai": true,
      "track_id": 10,
      "velocity": 0,
      "is_motor": false,
      "motor_id": 0,
      "accel_val": 2000,
      "base_duration_us": 306122
    },
    {
      "id": "M_445",
      "pitch": 77,
      "t_note_us": 101326381,
      "t_trigger_us": 101190418,
      "is_ai": false,
      "track_id": 0,
      "velocity": 0,
      "is_motor": true,
      "motor_id": 3,
      "accel_val": 2000,
      "base_duration_us": 306122
    },
    {
      "id": "M_449",
      "pitch": 100,
      "t_note_us": 101479442,
      "t_trigger_us": 101343479,
      "is_ai": true,
      "track_id": 12,
      "velocity": 0,
      "is_motor": false,
      "motor_id": 0,
      "accel_val": 2000,
      "base_duration_us": 306122
    },
    {
      "id": "M_450",
      "pitch": 98,
      "t_note_us": 101632503,
      "t_trigger_us": 101496540,
      "is_ai": true,
      "track_id": 11,
      "velocity": 0,
      "is_motor": false,
      "motor_id": 0,
      "accel_val": 2000,
      "base_duration_us": 306122
    },
    {
      "id": "M_453",
      "pitch": 70,
      "t_note_us": 101632503,
      "t_trigger_us": 101496540,
      "is_ai": false,
      "track_id": 0,
      "velocity": 0,
      "is_motor": true,
      "motor_id": 1,
      "accel_val": 2000,
      "base_duration_us": 612244
    },
    {
      "id": "M_454",
      "pitch": 74,
      "t_note_us": 101632503,
      "t_trigger_us": 101496540,
      "is_ai": false,
      "track_id": 0,
      "velocity": 0,
      "is_motor": true,
      "motor_id": 0,
      "accel_val": 2000,
      "base_duration_us": 612244
    },
    {
      "id": "M_451",
      "pitch": 96,
      "t_note_us": 101785564,
      "t_trigger_us": 101649601,
      "is_ai": true,
      "track_id": 10,
      "velocity": 0,
      "is_motor": false,
      "motor_id": 0,
      "accel_val": 2000,
      "base_duration_us": 306122
    },
    {
      "id": "M_452",
      "pitch": 94,
      "t_note_us": 101938625,
      "t_trigger_us": 101802662,
      "is_ai": true,
      "track_id": 0,
      "velocity": 0,
      "is_motor": true,
      "motor_id": 3,
      "accel_val": 2000,
      "base_duration_us": 306122
    },
    {
      "id": "M_455",
      "pitch": 93,
      "t_note_us": 102091686,
      "t_trigger_us": 101955723,
      "is_ai": true,
      "track_id": 8,
      "velocity": 0,
      "is_motor": false,
      "motor_id": 0,
      "accel_val": 2000,
      "base_duration_us": 306122
    },
    {
      "id": "M_456",
      "pitch": 91,
      "t_note_us": 102244747,
      "t_trigger_us": 102108784,
      "is_ai": true,
      "track_id": 7,
      "velocity": 0,
      "is_motor": false,
      "motor_id": 0,
      "accel_val": 2000,
      "base_duration_us": 306122
    },
    {
      "id": "M_459",
      "pitch": 72,
      "t_note_us": 102244747,
      "t_trigger_us": 102108784,
      "is_ai": false,
      "track_id": 0,
      "velocity": 0,
      "is_motor": true,
      "motor_id": 1,
      "accel_val": 2000,
      "base_duration_us": 612244
    },
    {
      "id": "M_460",
      "pitch": 76,
      "t_note_us": 102244747,
      "t_trigger_us": 102108784,
      "is_ai": false,
      "track_id": 0,
      "velocity": 0,
      "is_motor": true,
      "motor_id": 2,
      "accel_val": 2000,
      "base_duration_us": 612244
    },
    {
      "id": "M_457",
      "pitch": 96,
      "t_note_us": 102397808,
      "t_trigger_us": 102261845,
      "is_ai": true,
      "track_id": 10,
      "velocity": 0,
      "is_motor": false,
      "motor_id": 0,
      "accel_val": 2000,
      "base_duration_us": 306122
    },
    {
      "id": "M_458",
      "pitch": 94,
      "t_note_us": 102550869,
      "t_trigger_us": 102414906,
      "is_ai": true,
      "track_id": 0,
      "velocity": 0,
      "is_motor": true,
      "motor_id": 3,
      "accel_val": 2000,
      "base_duration_us": 306122
    },
    {
      "id": "M_461",
      "pitch": 91,
      "t_note_us": 102703930,
      "t_trigger_us": 102567967,
      "is_ai": true,
      "track_id": 7,
      "velocity": 0,
      "is_motor": false,
      "motor_id": 0,
      "accel_val": 2000,
      "base_duration_us": 306122
    },
    {
      "id": "M_462",
      "pitch": 93,
      "t_note_us": 102856991,
      "t_trigger_us": 102721028,
      "is_ai": true,
      "track_id": 8,
      "velocity": 0,
      "is_motor": false,
      "motor_id": 0,
      "accel_val": 2000,
      "base_duration_us": 306122
    },
    {
      "id": "M_465",
      "pitch": 76,
      "t_note_us": 102856991,
      "t_trigger_us": 102721028,
      "is_ai": false,
      "track_id": 0,
      "velocity": 0,
      "is_motor": true,
      "motor_id": 2,
      "accel_val": 2000,
      "base_duration_us": 612244
    },
    {
      "id": "M_466",
      "pitch": 73,
      "t_note_us": 102856991,
      "t_trigger_us": 102721028,
      "is_ai": false,
      "track_id": 0,
      "velocity": 0,
      "is_motor": true,
      "motor_id": 1,
      "accel_val": 2000,
      "base_duration_us": 612244
    },
    {
      "id": "M_463",
      "pitch": 94,
      "t_note_us": 103010052,
      "t_trigger_us": 102874089,
      "is_ai": true,
      "track_id": 0,
      "velocity": 0,
      "is_motor": true,
      "motor_id": 3,
      "accel_val": 2000,
      "base_duration_us": 306122
    },
    {
      "id": "M_464",
      "pitch": 93,
      "t_note_us": 103163113,
      "t_trigger_us": 103027150,
      "is_ai": true,
      "track_id": 8,
      "velocity": 0,
      "is_motor": false,
      "motor_id": 0,
      "accel_val": 2000,
      "base_duration_us": 306122
    },
    {
      "id": "M_467",
      "pitch": 92,
      "t_note_us": 103316174,
      "t_trigger_us": 103180211,
      "is_ai": true,
      "track_id": 0,
      "velocity": 0,
      "is_motor": true,
      "motor_id": 3,
      "accel_val": 2000,
      "base_duration_us": 306122
    },
    {
      "id": "M_468",
      "pitch": 93,
      "t_note_us": 103469235,
      "t_trigger_us": 103333272,
      "is_ai": true,
      "track_id": 8,
      "velocity": 0,
      "is_motor": false,
      "motor_id": 0,
      "accel_val": 2000,
      "base_duration_us": 306122
    },
    {
      "id": "M_469",
      "pitch": 88,
      "t_note_us": 103622296,
      "t_trigger_us": 103486333,
      "is_ai": true,
      "track_id": 5,
      "velocity": 0,
      "is_motor": false,
      "motor_id": 0,
      "accel_val": 2000,
      "base_duration_us": 306122
    },
    {
      "id": "M_470",
      "pitch": 93,
      "t_note_us": 103775357,
      "t_trigger_us": 103639394,
      "is_ai": true,
      "track_id": 8,
      "velocity": 0,
      "is_motor": false,
      "motor_id": 0,
      "accel_val": 2000,
      "base_duration_us": 306122
    },
    {
      "id": "M_471",
      "pitch": 92,
      "t_note_us": 103928418,
      "t_trigger_us": 103792455,
      "is_ai": true,
      "track_id": 0,
      "velocity": 0,
      "is_motor": true,
      "motor_id": 3,
      "accel_val": 2000,
      "base_duration_us": 306122
    },
    {
      "id": "M_472",
      "pitch": 93,
      "t_note_us": 104081479,
      "t_trigger_us": 103945516,
      "is_ai": true,
      "track_id": 8,
      "velocity": 0,
      "is_motor": false,
      "motor_id": 0,
      "accel_val": 2000,
      "base_duration_us": 306122
    },
    {
      "id": "M_473",
      "pitch": 76,
      "t_note_us": 104234540,
      "t_trigger_us": 104098577,
      "is_ai": false,
      "track_id": 0,
      "velocity": 0,
      "is_motor": true,
      "motor_id": 2,
      "accel_val": 2000,
      "base_duration_us": 306122
    },
    {
      "id": "M_474",
      "pitch": 93,
      "t_note_us": 104387601,
      "t_trigger_us": 104251638,
      "is_ai": true,
      "track_id": 8,
      "velocity": 0,
      "is_motor": false,
      "motor_id": 0,
      "accel_val": 2000,
      "base_duration_us": 306122
    },
    {
      "id": "M_475",
      "pitch": 68,
      "t_note_us": 104540662,
      "t_trigger_us": 104404699,
      "is_ai": false,
      "track_id": 0,
      "velocity": 0,
      "is_motor": true,
      "motor_id": 1,
      "accel_val": 2000,
      "base_duration_us": 306122
    },
    {
      "id": "M_476",
      "pitch": 93,
      "t_note_us": 104693723,
      "t_trigger_us": 104557760,
      "is_ai": true,
      "track_id": 8,
      "velocity": 0,
      "is_motor": false,
      "motor_id": 0,
      "accel_val": 2000,
      "base_duration_us": 918366
    },
    {
      "id": "M_477",
      "pitch": 88,
      "t_note_us": 105612089,
      "t_trigger_us": 105476126,
      "is_ai": true,
      "track_id": 5,
      "velocity": 0,
      "is_motor": false,
      "motor_id": 0,
      "accel_val": 2000,
      "base_duration_us": 306122
    },
    {
      "id": "M_478",
      "pitch": 93,
      "t_note_us": 105918211,
      "t_trigger_us": 105782248,
      "is_ai": true,
      "track_id": 8,
      "velocity": 0,
      "is_motor": false,
      "motor_id": 0,
      "accel_val": 2000,
      "base_duration_us": 306122
    },
    {
      "id": "M_479",
      "pitch": 92,
      "t_note_us": 106224333,
      "t_trigger_us": 106088370,
      "is_ai": true,
      "track_id": 0,
      "velocity": 0,
      "is_motor": true,
      "motor_id": 3,
      "accel_val": 2000,
      "base_duration_us": 306122
    },
    {
      "id": "M_480",
      "pitch": 93,
      "t_note_us": 106530455,
      "t_trigger_us": 106394492,
      "is_ai": true,
      "track_id": 8,
      "velocity": 0,
      "is_motor": false,
      "motor_id": 0,
      "accel_val": 2000,
      "base_duration_us": 918366
    },
    {
      "id": "M_481",
      "pitch": 88,
      "t_note_us": 107448821,
      "t_trigger_us": 107312858,
      "is_ai": true,
      "track_id": 5,
      "velocity": 0,
      "is_motor": false,
      "motor_id": 0,
      "accel_val": 2000,
      "base_duration_us": 306122
    },
    {
      "id": "M_482",
      "pitch": 93,
      "t_note_us": 107754943,
      "t_trigger_us": 107618980,
      "is_ai": true,
      "track_id": 8,
      "velocity": 0,
      "is_motor": false,
      "motor_id": 0,
      "accel_val": 2000,
      "base_duration_us": 306122
    },
    {
      "id": "M_483",
      "pitch": 92,
      "t_note_us": 108061065,
      "t_trigger_us": 107925102,
      "is_ai": true,
      "track_id": 0,
      "velocity": 0,
      "is_motor": true,
      "motor_id": 3,
      "accel_val": 2000,
      "base_duration_us": 306122
    },
    {
      "id": "M_484",
      "pitch": 93,
      "t_note_us": 108367187,
      "t_trigger_us": 108231224,
      "is_ai": true,
      "track_id": 8,
      "velocity": 0,
      "is_motor": false,
      "motor_id": 0,
      "accel_val": 2000,
      "base_duration_us": 306122
    },
    {
      "id": "M_485",
      "pitch": 68,
      "t_note_us": 108673309,
      "t_trigger_us": 108537346,
      "is_ai": false,
      "track_id": 0,
      "velocity": 0,
      "is_motor": true,
      "motor_id": 1,
      "accel_val": 2000,
      "base_duration_us": 306122
    },
    {
      "id": "M_486",
      "pitch": 93,
      "t_note_us": 108979431,
      "t_trigger_us": 108843468,
      "is_ai": true,
      "track_id": 8,
      "velocity": 0,
      "is_motor": false,
      "motor_id": 0,
      "accel_val": 2000,
      "base_duration_us": 306122
    },
    {
      "id": "M_487",
      "pitch": 92,
      "t_note_us": 109285553,
      "t_trigger_us": 109149590,
      "is_ai": true,
      "track_id": 0,
      "velocity": 0,
      "is_motor": true,
      "motor_id": 3,
      "accel_val": 2000,
      "base_duration_us": 306122
    },
    {
      "id": "M_488",
      "pitch": 93,
      "t_note_us": 109591675,
      "t_trigger_us": 109455712,
      "is_ai": true,
      "track_id": 8,
      "velocity": 0,
      "is_motor": false,
      "motor_id": 0,
      "accel_val": 2000,
      "base_duration_us": 306122
    },
    {
      "id": "M_489",
      "pitch": 92,
      "t_note_us": 109897797,
      "t_trigger_us": 109761834,
      "is_ai": true,
      "track_id": 0,
      "velocity": 0,
      "is_motor": true,
      "motor_id": 3,
      "accel_val": 2000,
      "base_duration_us": 306122
    },
    {
      "id": "M_490",
      "pitch": 93,
      "t_note_us": 110203919,
      "t_trigger_us": 110067956,
      "is_ai": true,
      "track_id": 8,
      "velocity": 0,
      "is_motor": false,
      "motor_id": 0,
      "accel_val": 2000,
      "base_duration_us": 306122
    },
    {
      "id": "M_491",
      "pitch": 68,
      "t_note_us": 110510041,
      "t_trigger_us": 110374078,
      "is_ai": false,
      "track_id": 0,
      "velocity": 0,
      "is_motor": true,
      "motor_id": 1,
      "accel_val": 2000,
      "base_duration_us": 306122
    },
    {
      "id": "M_492",
      "pitch": 93,
      "t_note_us": 110816163,
      "t_trigger_us": 110680200,
      "is_ai": true,
      "track_id": 8,
      "velocity": 0,
      "is_motor": false,
      "motor_id": 0,
      "accel_val": 2000,
      "base_duration_us": 306122
    },
    {
      "id": "M_493",
      "pitch": 88,
      "t_note_us": 111122285,
      "t_trigger_us": 110986322,
      "is_ai": true,
      "track_id": 5,
      "velocity": 0,
      "is_motor": false,
      "motor_id": 0,
      "accel_val": 2000,
      "base_duration_us": 306122
    },
    {
      "id": "M_494",
      "pitch": 91,
      "t_note_us": 111428407,
      "t_trigger_us": 111292444,
      "is_ai": true,
      "track_id": 7,
      "velocity": 0,
      "is_motor": false,
      "motor_id": 0,
      "accel_val": 2000,
      "base_duration_us": 306122
    },
    {
      "id": "M_495",
      "pitch": 89,
      "t_note_us": 111734529,
      "t_trigger_us": 111598566,
      "is_ai": true,
      "track_id": 6,
      "velocity": 0,
      "is_motor": false,
      "motor_id": 0,
      "accel_val": 2000,
      "base_duration_us": 306122
    },
    {
      "id": "M_496",
      "pitch": 62,
      "t_note_us": 112040651,
      "t_trigger_us": 111904688,
      "is_ai": false,
      "track_id": 0,
      "velocity": 0,
      "is_motor": true,
      "motor_id": 1,
      "accel_val": 2000,
      "base_duration_us": 306122
    },
    {
      "id": "M_498",
      "pitch": 74,
      "t_note_us": 112040651,
      "t_trigger_us": 111904688,
      "is_ai": false,
      "track_id": 0,
      "velocity": 0,
      "is_motor": true,
      "motor_id": 0,
      "accel_val": 2000,
      "base_duration_us": 612244
    },
    {
      "id": "M_497",
      "pitch": 69,
      "t_note_us": 112346773,
      "t_trigger_us": 112210810,
      "is_ai": false,
      "track_id": 0,
      "velocity": 0,
      "is_motor": true,
      "motor_id": 1,
      "accel_val": 2000,
      "base_duration_us": 306122
    },
    {
      "id": "M_499",
      "pitch": 74,
      "t_note_us": 112652895,
      "t_trigger_us": 112516932,
      "is_ai": false,
      "track_id": 0,
      "velocity": 0,
      "is_motor": true,
      "motor_id": 1,
      "accel_val": 2000,
      "base_duration_us": 306122
    },
    {
      "id": "M_500",
      "pitch": 77,
      "t_note_us": 112959017,
      "t_trigger_us": 112823054,
      "is_ai": false,
      "track_id": 0,
      "velocity": 0,
      "is_motor": true,
      "motor_id": 2,
      "accel_val": 2000,
      "base_duration_us": 306122
    },
    {
      "id": "M_501",
      "pitch": 69,
      "t_note_us": 113265139,
      "t_trigger_us": 113129176,
      "is_ai": false,
      "track_id": 0,
      "velocity": 0,
      "is_motor": true,
      "motor_id": 1,
      "accel_val": 2000,
      "base_duration_us": 306122
    },
    {
      "id": "M_502",
      "pitch": 74,
      "t_note_us": 113571261,
      "t_trigger_us": 113435298,
      "is_ai": false,
      "track_id": 0,
      "velocity": 0,
      "is_motor": true,
      "motor_id": 1,
      "accel_val": 2000,
      "base_duration_us": 306122
    },
    {
      "id": "M_503",
      "pitch": 57,
      "t_note_us": 113877383,
      "t_trigger_us": 113741420,
      "is_ai": false,
      "track_id": 0,
      "velocity": 0,
      "is_motor": true,
      "motor_id": 0,
      "accel_val": 2000,
      "base_duration_us": 306122
    },
    {
      "id": "M_505",
      "pitch": 76,
      "t_note_us": 113877383,
      "t_trigger_us": 113741420,
      "is_ai": false,
      "track_id": 0,
      "velocity": 0,
      "is_motor": true,
      "motor_id": 2,
      "accel_val": 2000,
      "base_duration_us": 612244
    },
    {
      "id": "M_504",
      "pitch": 69,
      "t_note_us": 114183505,
      "t_trigger_us": 114047542,
      "is_ai": false,
      "track_id": 0,
      "velocity": 0,
      "is_motor": true,
      "motor_id": 1,
      "accel_val": 2000,
      "base_duration_us": 306122
    },
    {
      "id": "M_506",
      "pitch": 73,
      "t_note_us": 114489627,
      "t_trigger_us": 114353664,
      "is_ai": false,
      "track_id": 0,
      "velocity": 0,
      "is_motor": true,
      "motor_id": 1,
      "accel_val": 2000,
      "base_duration_us": 306122
    },
    {
      "id": "M_507",
      "pitch": 69,
      "t_note_us": 114795749,
      "t_trigger_us": 114659786,
      "is_ai": false,
      "track_id": 0,
      "velocity": 0,
      "is_motor": true,
      "motor_id": 1,
      "accel_val": 2000,
      "base_duration_us": 306122
    },
    {
      "id": "M_508",
      "pitch": 73,
      "t_note_us": 115101871,
      "t_trigger_us": 114965908,
      "is_ai": false,
      "track_id": 0,
      "velocity": 0,
      "is_motor": true,
      "motor_id": 1,
      "accel_val": 2000,
      "base_duration_us": 306122
    },
    {
      "id": "M_509",
      "pitch": 88,
      "t_note_us": 115407993,
      "t_trigger_us": 115272030,
      "is_ai": true,
      "track_id": 5,
      "velocity": 0,
      "is_motor": false,
      "motor_id": 0,
      "accel_val": 2000,
      "base_duration_us": 306122
    },
    {
      "id": "M_512",
      "pitch": 89,
      "t_note_us": 115714115,
      "t_trigger_us": 115578152,
      "is_ai": true,
      "track_id": 6,
      "velocity": 0,
      "is_motor": false,
      "motor_id": 0,
      "accel_val": 2000,
      "base_duration_us": 612244
    },
    {
      "id": "M_510",
      "pitch": 62,
      "t_note_us": 115714115,
      "t_trigger_us": 115578152,
      "is_ai": false,
      "track_id": 0,
      "velocity": 0,
      "is_motor": true,
      "motor_id": 1,
      "accel_val": 2000,
      "base_duration_us": 306122
    },
    {
      "id": "M_511",
      "pitch": 69,
      "t_note_us": 116020237,
      "t_trigger_us": 115884274,
      "is_ai": false,
      "track_id": 0,
      "velocity": 0,
      "is_motor": true,
      "motor_id": 1,
      "accel_val": 2000,
      "base_duration_us": 306122
    },
    {
      "id": "M_513",
      "pitch": 74,
      "t_note_us": 116326359,
      "t_trigger_us": 116190396,
      "is_ai": false,
      "track_id": 0,
      "velocity": 0,
      "is_motor": true,
      "motor_id": 1,
      "accel_val": 2000,
      "base_duration_us": 306122
    },
    {
      "id": "M_514",
      "pitch": 69,
      "t_note_us": 116632481,
      "t_trigger_us": 116496518,
      "is_ai": false,
      "track_id": 0,
      "velocity": 0,
      "is_motor": true,
      "motor_id": 1,
      "accel_val": 2000,
      "base_duration_us": 306122
    },
    {
      "id": "M_515",
      "pitch": 93,
      "t_note_us": 116938603,
      "t_trigger_us": 116802640,
      "is_ai": true,
      "track_id": 8,
      "velocity": 0,
      "is_motor": false,
      "motor_id": 0,
      "accel_val": 2000,
      "base_duration_us": 306122
    },
    {
      "id": "M_516",
      "pitch": 92,
      "t_note_us": 117244725,
      "t_trigger_us": 117108762,
      "is_ai": true,
      "track_id": 0,
      "velocity": 0,
      "is_motor": true,
      "motor_id": 3,
      "accel_val": 2000,
      "base_duration_us": 306122
    },
    {
      "id": "M_517",
      "pitch": 93,
      "t_note_us": 117550847,
      "t_trigger_us": 117414884,
      "is_ai": true,
      "track_id": 8,
      "velocity": 0,
      "is_motor": false,
      "motor_id": 0,
      "accel_val": 2000,
      "base_duration_us": 306122
    },
    {
      "id": "M_518",
      "pitch": 92,
      "t_note_us": 117856969,
      "t_trigger_us": 117721006,
      "is_ai": true,
      "track_id": 0,
      "velocity": 0,
      "is_motor": true,
      "motor_id": 3,
      "accel_val": 2000,
      "base_duration_us": 306122
    },
    {
      "id": "M_519",
      "pitch": 93,
      "t_note_us": 118163091,
      "t_trigger_us": 118027128,
      "is_ai": true,
      "track_id": 8,
      "velocity": 0,
      "is_motor": false,
      "motor_id": 0,
      "accel_val": 2000,
      "base_duration_us": 306122
    },
    {
      "id": "M_520",
      "pitch": 88,
      "t_note_us": 118469213,
      "t_trigger_us": 118333250,
      "is_ai": true,
      "track_id": 5,
      "velocity": 0,
      "is_motor": false,
      "motor_id": 0,
      "accel_val": 2000,
      "base_duration_us": 306122
    },
    {
      "id": "M_521",
      "pitch": 91,
      "t_note_us": 118775335,
      "t_trigger_us": 118639372,
      "is_ai": true,
      "track_id": 7,
      "velocity": 0,
      "is_motor": false,
      "motor_id": 0,
      "accel_val": 2000,
      "base_duration_us": 306122
    },
    {
      "id": "M_522",
      "pitch": 89,
      "t_note_us": 119081457,
      "t_trigger_us": 118945494,
      "is_ai": true,
      "track_id": 6,
      "velocity": 0,
      "is_motor": false,
      "motor_id": 0,
      "accel_val": 2000,
      "base_duration_us": 306122
    },
    {
      "id": "M_525",
      "pitch": 86,
      "t_note_us": 119387579,
      "t_trigger_us": 119251616,
      "is_ai": true,
      "track_id": 4,
      "velocity": 0,
      "is_motor": false,
      "motor_id": 0,
      "accel_val": 2000,
      "base_duration_us": 612244
    },
    {
      "id": "M_523",
      "pitch": 62,
      "t_note_us": 119387579,
      "t_trigger_us": 119251616,
      "is_ai": false,
      "track_id": 0,
      "velocity": 0,
      "is_motor": true,
      "motor_id": 1,
      "accel_val": 2000,
      "base_duration_us": 306122
    },
    {
      "id": "M_524",
      "pitch": 69,
      "t_note_us": 119693701,
      "t_trigger_us": 119557738,
      "is_ai": false,
      "track_id": 0,
      "velocity": 0,
      "is_motor": true,
      "motor_id": 1,
      "accel_val": 2000,
      "base_duration_us": 306122
    },
    {
      "id": "M_526",
      "pitch": 74,
      "t_note_us": 119999823,
      "t_trigger_us": 119863860,
      "is_ai": false,
      "track_id": 0,
      "velocity": 0,
      "is_motor": true,
      "motor_id": 1,
      "accel_val": 2000,
      "base_duration_us": 306122
    },
    {
      "id": "M_527",
      "pitch": 77,
      "t_note_us": 120305945,
      "t_trigger_us": 120169982,
      "is_ai": false,
      "track_id": 0,
      "velocity": 0,
      "is_motor": true,
      "motor_id": 2,
      "accel_val": 2000,
      "base_duration_us": 306122
    },
    {
      "id": "M_528",
      "pitch": 69,
      "t_note_us": 120612067,
      "t_trigger_us": 120476104,
      "is_ai": false,
      "track_id": 0,
      "velocity": 0,
      "is_motor": true,
      "motor_id": 1,
      "accel_val": 2000,
      "base_duration_us": 306122
    },
    {
      "id": "M_529",
      "pitch": 86,
      "t_note_us": 120918189,
      "t_trigger_us": 120782226,
      "is_ai": true,
      "track_id": 4,
      "velocity": 0,
      "is_motor": false,
      "motor_id": 0,
      "accel_val": 2000,
      "base_duration_us": 306122
    },
    {
      "id": "M_532",
      "pitch": 88,
      "t_note_us": 121224311,
      "t_trigger_us": 121088348,
      "is_ai": true,
      "track_id": 5,
      "velocity": 0,
      "is_motor": false,
      "motor_id": 0,
      "accel_val": 2000,
      "base_duration_us": 612244
    },
    {
      "id": "M_530",
      "pitch": 57,
      "t_note_us": 121224311,
      "t_trigger_us": 121088348,
      "is_ai": false,
      "track_id": 0,
      "velocity": 0,
      "is_motor": true,
      "motor_id": 0,
      "accel_val": 2000,
      "base_duration_us": 306122
    },
    {
      "id": "M_531",
      "pitch": 69,
      "t_note_us": 121530433,
      "t_trigger_us": 121394470,
      "is_ai": false,
      "track_id": 0,
      "velocity": 0,
      "is_motor": true,
      "motor_id": 1,
      "accel_val": 2000,
      "base_duration_us": 306122
    },
    {
      "id": "M_533",
      "pitch": 73,
      "t_note_us": 121836555,
      "t_trigger_us": 121700592,
      "is_ai": false,
      "track_id": 0,
      "velocity": 0,
      "is_motor": true,
      "motor_id": 1,
      "accel_val": 2000,
      "base_duration_us": 306122
    },
    {
      "id": "M_534",
      "pitch": 69,
      "t_note_us": 122142677,
      "t_trigger_us": 122006714,
      "is_ai": false,
      "track_id": 0,
      "velocity": 0,
      "is_motor": true,
      "motor_id": 1,
      "accel_val": 2000,
      "base_duration_us": 306122
    },
    {
      "id": "M_535",
      "pitch": 89,
      "t_note_us": 122448799,
      "t_trigger_us": 122312836,
      "is_ai": true,
      "track_id": 6,
      "velocity": 0,
      "is_motor": false,
      "motor_id": 0,
      "accel_val": 2000,
      "base_duration_us": 306122
    },
    {
      "id": "M_536",
      "pitch": 88,
      "t_note_us": 122754921,
      "t_trigger_us": 122618958,
      "is_ai": true,
      "track_id": 5,
      "velocity": 0,
      "is_motor": false,
      "motor_id": 0,
      "accel_val": 2000,
      "base_duration_us": 306122
    },
    {
      "id": "M_539",
      "pitch": 86,
      "t_note_us": 123061043,
      "t_trigger_us": 122925080,
      "is_ai": true,
      "track_id": 4,
      "velocity": 0,
      "is_motor": false,
      "motor_id": 0,
      "accel_val": 2000,
      "base_duration_us": 612244
    },
    {
      "id": "M_537",
      "pitch": 62,
      "t_note_us": 123061043,
      "t_trigger_us": 122925080,
      "is_ai": false,
      "track_id": 0,
      "velocity": 0,
      "is_motor": true,
      "motor_id": 1,
      "accel_val": 2000,
      "base_duration_us": 306122
    },
    {
      "id": "M_538",
      "pitch": 69,
      "t_note_us": 123367165,
      "t_trigger_us": 123231202,
      "is_ai": false,
      "track_id": 0,
      "velocity": 0,
      "is_motor": true,
      "motor_id": 1,
      "accel_val": 2000,
      "base_duration_us": 306122
    },
    {
      "id": "M_540",
      "pitch": 74,
      "t_note_us": 123673287,
      "t_trigger_us": 123537324,
      "is_ai": false,
      "track_id": 0,
      "velocity": 0,
      "is_motor": true,
      "motor_id": 1,
      "accel_val": 2000,
      "base_duration_us": 306122
    },
    {
      "id": "M_541",
      "pitch": 88,
      "t_note_us": 123979409,
      "t_trigger_us": 123843446,
      "is_ai": true,
      "track_id": 5,
      "velocity": 0,
      "is_motor": false,
      "motor_id": 0,
      "accel_val": 2000,
      "base_duration_us": 306122
    },
    {
      "id": "M_542",
      "pitch": 89,
      "t_note_us": 124285531,
      "t_trigger_us": 124149568,
      "is_ai": true,
      "track_id": 6,
      "velocity": 0,
      "is_motor": false,
      "motor_id": 0,
      "accel_val": 2000,
      "base_duration_us": 306122
    },
    {
      "id": "M_543",
      "pitch": 91,
      "t_note_us": 124591653,
      "t_trigger_us": 124455690,
      "is_ai": true,
      "track_id": 7,
      "velocity": 0,
      "is_motor": false,
      "motor_id": 0,
      "accel_val": 2000,
      "base_duration_us": 306122
    },
    {
      "id": "M_547",
      "pitch": 93,
      "t_note_us": 124897775,
      "t_trigger_us": 124761812,
      "is_ai": true,
      "track_id": 8,
      "velocity": 0,
      "is_motor": false,
      "motor_id": 0,
      "accel_val": 2000,
      "base_duration_us": 918366
    },
    {
      "id": "M_544",
      "pitch": 65,
      "t_note_us": 124897775,
      "t_trigger_us": 124761812,
      "is_ai": false,
      "track_id": 0,
      "velocity": 0,
      "is_motor": true,
      "motor_id": 1,
      "accel_val": 2000,
      "base_duration_us": 306122
    },
    {
      "id": "M_545",
      "pitch": 72,
      "t_note_us": 125203897,
      "t_trigger_us": 125067934,
      "is_ai": false,
      "track_id": 0,
      "velocity": 0,
      "is_motor": true,
      "motor_id": 1,
      "accel_val": 2000,
      "base_duration_us": 306122
    },
    {
      "id": "M_546",
      "pitch": 77,
      "t_note_us": 125510019,
      "t_trigger_us": 125374056,
      "is_ai": false,
      "track_id": 0,
      "velocity": 0,
      "is_motor": true,
      "motor_id": 2,
      "accel_val": 2000,
      "base_duration_us": 306122
    },
    {
      "id": "M_548",
      "pitch": 72,
      "t_note_us": 125816141,
      "t_trigger_us": 125680178,
      "is_ai": false,
      "track_id": 0,
      "velocity": 0,
      "is_motor": true,
      "motor_id": 1,
      "accel_val": 2000,
      "base_duration_us": 306122
    },
    {
      "id": "M_549",
      "pitch": 94,
      "t_note_us": 126122263,
      "t_trigger_us": 125986300,
      "is_ai": true,
      "track_id": 0,
      "velocity": 0,
      "is_motor": true,
      "motor_id": 3,
      "accel_val": 2000,
      "base_duration_us": 306122
    },
    {
      "id": "M_550",
      "pitch": 93,
      "t_note_us": 126428385,
      "t_trigger_us": 126292422,
      "is_ai": true,
      "track_id": 8,
      "velocity": 0,
      "is_motor": false,
      "motor_id": 0,
      "accel_val": 2000,
      "base_duration_us": 306122
    },
    {
      "id": "M_554",
      "pitch": 91,
      "t_note_us": 126734507,
      "t_trigger_us": 126598544,
      "is_ai": true,
      "track_id": 7,
      "velocity": 0,
      "is_motor": false,
      "motor_id": 0,
      "accel_val": 2000,
      "base_duration_us": 918366
    },
    {
      "id": "M_551",
      "pitch": 60,
      "t_note_us": 126734507,
      "t_trigger_us": 126598544,
      "is_ai": false,
      "track_id": 0,
      "velocity": 0,
      "is_motor": true,
      "motor_id": 1,
      "accel_val": 2000,
      "base_duration_us": 306122
    },
    {
      "id": "M_552",
      "pitch": 72,
      "t_note_us": 127040629,
      "t_trigger_us": 126904666,
      "is_ai": false,
      "track_id": 0,
      "velocity": 0,
      "is_motor": true,
      "motor_id": 1,
      "accel_val": 2000,
      "base_duration_us": 306122
    },
    {
      "id": "M_553",
      "pitch": 76,
      "t_note_us": 127346751,
      "t_trigger_us": 127210788,
      "is_ai": false,
      "track_id": 0,
      "velocity": 0,
      "is_motor": true,
      "motor_id": 2,
      "accel_val": 2000,
      "base_duration_us": 306122
    },
    {
      "id": "M_555",
      "pitch": 70,
      "t_note_us": 127652873,
      "t_trigger_us": 127516910,
      "is_ai": false,
      "track_id": 0,
      "velocity": 0,
      "is_motor": true,
      "motor_id": 1,
      "accel_val": 2000,
      "base_duration_us": 306122
    },
    {
      "id": "M_556",
      "pitch": 93,
      "t_note_us": 127958995,
      "t_trigger_us": 127823032,
      "is_ai": true,
      "track_id": 8,
      "velocity": 0,
      "is_motor": false,
      "motor_id": 0,
      "accel_val": 2000,
      "base_duration_us": 306122
    },
    {
      "id": "M_557",
      "pitch": 91,
      "t_note_us": 128265117,
      "t_trigger_us": 128129154,
      "is_ai": true,
      "track_id": 7,
      "velocity": 0,
      "is_motor": false,
      "motor_id": 0,
      "accel_val": 2000,
      "base_duration_us": 306122
    },
    {
      "id": "M_561",
      "pitch": 89,
      "t_note_us": 128571239,
      "t_trigger_us": 128435276,
      "is_ai": true,
      "track_id": 6,
      "velocity": 0,
      "is_motor": false,
      "motor_id": 0,
      "accel_val": 2000,
      "base_duration_us": 918366
    },
    {
      "id": "M_558",
      "pitch": 62,
      "t_note_us": 128571239,
      "t_trigger_us": 128435276,
      "is_ai": false,
      "track_id": 0,
      "velocity": 0,
      "is_motor": true,
      "motor_id": 1,
      "accel_val": 2000,
      "base_duration_us": 306122
    },
    {
      "id": "M_559",
      "pitch": 69,
      "t_note_us": 128877361,
      "t_trigger_us": 128741398,
      "is_ai": false,
      "track_id": 0,
      "velocity": 0,
      "is_motor": true,
      "motor_id": 1,
      "accel_val": 2000,
      "base_duration_us": 306122
    },
    {
      "id": "M_560",
      "pitch": 74,
      "t_note_us": 129183483,
      "t_trigger_us": 129047520,
      "is_ai": false,
      "track_id": 0,
      "velocity": 0,
      "is_motor": true,
      "motor_id": 1,
      "accel_val": 2000,
      "base_duration_us": 306122
    },
    {
      "id": "M_562",
      "pitch": 69,
      "t_note_us": 129489605,
      "t_trigger_us": 129353642,
      "is_ai": false,
      "track_id": 0,
      "velocity": 0,
      "is_motor": true,
      "motor_id": 1,
      "accel_val": 2000,
      "base_duration_us": 306122
    },
    {
      "id": "M_563",
      "pitch": 91,
      "t_note_us": 129795727,
      "t_trigger_us": 129659764,
      "is_ai": true,
      "track_id": 7,
      "velocity": 0,
      "is_motor": false,
      "motor_id": 0,
      "accel_val": 2000,
      "base_duration_us": 306122
    },
    {
      "id": "M_564",
      "pitch": 89,
      "t_note_us": 130101849,
      "t_trigger_us": 129965886,
      "is_ai": true,
      "track_id": 6,
      "velocity": 0,
      "is_motor": false,
      "motor_id": 0,
      "accel_val": 2000,
      "base_duration_us": 306122
    },
    {
      "id": "M_567",
      "pitch": 88,
      "t_note_us": 130407971,
      "t_trigger_us": 130272008,
      "is_ai": true,
      "track_id": 5,
      "velocity": 0,
      "is_motor": false,
      "motor_id": 0,
      "accel_val": 2000,
      "base_duration_us": 612244
    },
    {
      "id": "M_565",
      "pitch": 57,
      "t_note_us": 130407971,
      "t_trigger_us": 130272008,
      "is_ai": false,
      "track_id": 0,
      "velocity": 0,
      "is_motor": true,
      "motor_id": 0,
      "accel_val": 2000,
      "base_duration_us": 306122
    },
    {
      "id": "M_566",
      "pitch": 69,
      "t_note_us": 130714093,
      "t_trigger_us": 130578130,
      "is_ai": false,
      "track_id": 0,
      "velocity": 0,
      "is_motor": true,
      "motor_id": 1,
      "accel_val": 2000,
      "base_duration_us": 306122
    },
    {
      "id": "M_568",
      "pitch": 69,
      "t_note_us": 131020215,
      "t_trigger_us": 130884252,
      "is_ai": false,
      "track_id": 0,
      "velocity": 0,
      "is_motor": true,
      "motor_id": 1,
      "accel_val": 2000,
      "base_duration_us": 306122
    },
    {
      "id": "M_569",
      "pitch": 69,
      "t_note_us": 131326337,
      "t_trigger_us": 131190374,
      "is_ai": false,
      "track_id": 0,
      "velocity": 0,
      "is_motor": true,
      "motor_id": 1,
      "accel_val": 2000,
      "base_duration_us": 306122
    },
    {
      "id": "M_570",
      "pitch": 93,
      "t_note_us": 131632459,
      "t_trigger_us": 131496496,
      "is_ai": true,
      "track_id": 8,
      "velocity": 0,
      "is_motor": false,
      "motor_id": 0,
      "accel_val": 2000,
      "base_duration_us": 306122
    },
    {
      "id": "M_571",
      "pitch": 69,
      "t_note_us": 131938581,
      "t_trigger_us": 131802618,
      "is_ai": false,
      "track_id": 0,
      "velocity": 0,
      "is_motor": true,
      "motor_id": 1,
      "accel_val": 2000,
      "base_duration_us": 306122
    },
    {
      "id": "M_572",
      "pitch": 93,
      "t_note_us": 132244703,
      "t_trigger_us": 132108740,
      "is_ai": true,
      "track_id": 8,
      "velocity": 0,
      "is_motor": false,
      "motor_id": 0,
      "accel_val": 2000,
      "base_duration_us": 306122
    },
    {
      "id": "M_573",
      "pitch": 93,
      "t_note_us": 132550825,
      "t_trigger_us": 132414862,
      "is_ai": true,
      "track_id": 8,
      "velocity": 0,
      "is_motor": false,
      "motor_id": 0,
      "accel_val": 2000,
      "base_duration_us": 306122
    },
    {
      "id": "M_574",
      "pitch": 93,
      "t_note_us": 132856947,
      "t_trigger_us": 132720984,
      "is_ai": true,
      "track_id": 8,
      "velocity": 0,
      "is_motor": false,
      "motor_id": 0,
      "accel_val": 2000,
      "base_duration_us": 306122
    },
    {
      "id": "M_575",
      "pitch": 92,
      "t_note_us": 133163069,
      "t_trigger_us": 133027106,
      "is_ai": true,
      "track_id": 0,
      "velocity": 0,
      "is_motor": true,
      "motor_id": 3,
      "accel_val": 2000,
      "base_duration_us": 306122
    },
    {
      "id": "M_576",
      "pitch": 93,
      "t_note_us": 133469191,
      "t_trigger_us": 133333228,
      "is_ai": true,
      "track_id": 8,
      "velocity": 0,
      "is_motor": false,
      "motor_id": 0,
      "accel_val": 2000,
      "base_duration_us": 306122
    },
    {
      "id": "M_577",
      "pitch": 92,
      "t_note_us": 133775313,
      "t_trigger_us": 133639350,
      "is_ai": true,
      "track_id": 0,
      "velocity": 0,
      "is_motor": true,
      "motor_id": 3,
      "accel_val": 2000,
      "base_duration_us": 306122
    },
    {
      "id": "M_578",
      "pitch": 93,
      "t_note_us": 134081435,
      "t_trigger_us": 133945472,
      "is_ai": true,
      "track_id": 8,
      "velocity": 0,
      "is_motor": false,
      "motor_id": 0,
      "accel_val": 2000,
      "base_duration_us": 306122
    },
    {
      "id": "M_579",
      "pitch": 92,
      "t_note_us": 134387557,
      "t_trigger_us": 134251594,
      "is_ai": true,
      "track_id": 0,
      "velocity": 0,
      "is_motor": true,
      "motor_id": 3,
      "accel_val": 2000,
      "base_duration_us": 306122
    },
    {
      "id": "M_580",
      "pitch": 93,
      "t_note_us": 134693679,
      "t_trigger_us": 134557716,
      "is_ai": true,
      "track_id": 8,
      "velocity": 0,
      "is_motor": false,
      "motor_id": 0,
      "accel_val": 2000,
      "base_duration_us": 306122
    },
    {
      "id": "M_581",
      "pitch": 92,
      "t_note_us": 134999801,
      "t_trigger_us": 134863838,
      "is_ai": true,
      "track_id": 0,
      "velocity": 0,
      "is_motor": true,
      "motor_id": 3,
      "accel_val": 2000,
      "base_duration_us": 306122
    },
    {
      "id": "M_582",
      "pitch": 93,
      "t_note_us": 135305923,
      "t_trigger_us": 135169960,
      "is_ai": true,
      "track_id": 8,
      "velocity": 0,
      "is_motor": false,
      "motor_id": 0,
      "accel_val": 2000,
      "base_duration_us": 306122
    },
    {
      "id": "M_583",
      "pitch": 92,
      "t_note_us": 135612045,
      "t_trigger_us": 135476082,
      "is_ai": true,
      "track_id": 0,
      "velocity": 0,
      "is_motor": true,
      "motor_id": 3,
      "accel_val": 2000,
      "base_duration_us": 306122
    },
    {
      "id": "M_584",
      "pitch": 93,
      "t_note_us": 135918167,
      "t_trigger_us": 135782204,
      "is_ai": true,
      "track_id": 8,
      "velocity": 0,
      "is_motor": false,
      "motor_id": 0,
      "accel_val": 2000,
      "base_duration_us": 306122
    },
    {
      "id": "M_585",
      "pitch": 92,
      "t_note_us": 136224289,
      "t_trigger_us": 136088326,
      "is_ai": true,
      "track_id": 0,
      "velocity": 0,
      "is_motor": true,
      "motor_id": 3,
      "accel_val": 2000,
      "base_duration_us": 306122
    },
    {
      "id": "M_586",
      "pitch": 93,
      "t_note_us": 136530411,
      "t_trigger_us": 136394448,
      "is_ai": true,
      "track_id": 8,
      "velocity": 0,
      "is_motor": false,
      "motor_id": 0,
      "accel_val": 2000,
      "base_duration_us": 306122
    },
    {
      "id": "M_587",
      "pitch": 88,
      "t_note_us": 136836533,
      "t_trigger_us": 136700570,
      "is_ai": true,
      "track_id": 5,
      "velocity": 0,
      "is_motor": false,
      "motor_id": 0,
      "accel_val": 2000,
      "base_duration_us": 306122
    },
    {
      "id": "M_588",
      "pitch": 91,
      "t_note_us": 137142655,
      "t_trigger_us": 137006692,
      "is_ai": true,
      "track_id": 7,
      "velocity": 0,
      "is_motor": false,
      "motor_id": 0,
      "accel_val": 2000,
      "base_duration_us": 306122
    },
    {
      "id": "M_589",
      "pitch": 89,
      "t_note_us": 137448777,
      "t_trigger_us": 137312814,
      "is_ai": true,
      "track_id": 6,
      "velocity": 0,
      "is_motor": false,
      "motor_id": 0,
      "accel_val": 2000,
      "base_duration_us": 306122
    },
    {
      "id": "M_592",
      "pitch": 86,
      "t_note_us": 137754899,
      "t_trigger_us": 137618936,
      "is_ai": true,
      "track_id": 4,
      "velocity": 0,
      "is_motor": false,
      "motor_id": 0,
      "accel_val": 2000,
      "base_duration_us": 612244
    },
    {
      "id": "M_590",
      "pitch": 62,
      "t_note_us": 137754899,
      "t_trigger_us": 137618936,
      "is_ai": false,
      "track_id": 0,
      "velocity": 0,
      "is_motor": true,
      "motor_id": 1,
      "accel_val": 2000,
      "base_duration_us": 306122
    },
    {
      "id": "M_591",
      "pitch": 69,
      "t_note_us": 138061021,
      "t_trigger_us": 137925058,
      "is_ai": false,
      "track_id": 0,
      "velocity": 0,
      "is_motor": true,
      "motor_id": 1,
      "accel_val": 2000,
      "base_duration_us": 306122
    },
    {
      "id": "M_593",
      "pitch": 74,
      "t_note_us": 138367143,
      "t_trigger_us": 138231180,
      "is_ai": false,
      "track_id": 0,
      "velocity": 0,
      "is_motor": true,
      "motor_id": 1,
      "accel_val": 2000,
      "base_duration_us": 306122
    },
    {
      "id": "M_594",
      "pitch": 77,
      "t_note_us": 138673265,
      "t_trigger_us": 138537302,
      "is_ai": false,
      "track_id": 0,
      "velocity": 0,
      "is_motor": true,
      "motor_id": 2,
      "accel_val": 2000,
      "base_duration_us": 306122
    },
    {
      "id": "M_595",
      "pitch": 69,
      "t_note_us": 138979387,
      "t_trigger_us": 138843424,
      "is_ai": false,
      "track_id": 0,
      "velocity": 0,
      "is_motor": true,
      "motor_id": 1,
      "accel_val": 2000,
      "base_duration_us": 306122
    },
    {
      "id": "M_596",
      "pitch": 86,
      "t_note_us": 139285509,
      "t_trigger_us": 139149546,
      "is_ai": true,
      "track_id": 4,
      "velocity": 0,
      "is_motor": false,
      "motor_id": 0,
      "accel_val": 2000,
      "base_duration_us": 306122
    },
    {
      "id": "M_599",
      "pitch": 88,
      "t_note_us": 139591631,
      "t_trigger_us": 139455668,
      "is_ai": true,
      "track_id": 5,
      "velocity": 0,
      "is_motor": false,
      "motor_id": 0,
      "accel_val": 2000,
      "base_duration_us": 612244
    },
    {
      "id": "M_597",
      "pitch": 57,
      "t_note_us": 139591631,
      "t_trigger_us": 139455668,
      "is_ai": false,
      "track_id": 0,
      "velocity": 0,
      "is_motor": true,
      "motor_id": 0,
      "accel_val": 2000,
      "base_duration_us": 306122
    },
    {
      "id": "M_598",
      "pitch": 69,
      "t_note_us": 139897753,
      "t_trigger_us": 139761790,
      "is_ai": false,
      "track_id": 0,
      "velocity": 0,
      "is_motor": true,
      "motor_id": 1,
      "accel_val": 2000,
      "base_duration_us": 306122
    },
    {
      "id": "M_600",
      "pitch": 73,
      "t_note_us": 140203875,
      "t_trigger_us": 140067912,
      "is_ai": false,
      "track_id": 0,
      "velocity": 0,
      "is_motor": true,
      "motor_id": 1,
      "accel_val": 2000,
      "base_duration_us": 306122
    },
    {
      "id": "M_601",
      "pitch": 69,
      "t_note_us": 140509997,
      "t_trigger_us": 140374034,
      "is_ai": false,
      "track_id": 0,
      "velocity": 0,
      "is_motor": true,
      "motor_id": 1,
      "accel_val": 2000,
      "base_duration_us": 306122
    },
    {
      "id": "M_602",
      "pitch": 73,
      "t_note_us": 140816119,
      "t_trigger_us": 140680156,
      "is_ai": false,
      "track_id": 0,
      "velocity": 0,
      "is_motor": true,
      "motor_id": 1,
      "accel_val": 2000,
      "base_duration_us": 306122
    },
    {
      "id": "M_603",
      "pitch": 88,
      "t_note_us": 141122241,
      "t_trigger_us": 140986278,
      "is_ai": true,
      "track_id": 5,
      "velocity": 0,
      "is_motor": false,
      "motor_id": 0,
      "accel_val": 2000,
      "base_duration_us": 306122
    },
    {
      "id": "M_606",
      "pitch": 89,
      "t_note_us": 141428363,
      "t_trigger_us": 141292400,
      "is_ai": true,
      "track_id": 6,
      "velocity": 0,
      "is_motor": false,
      "motor_id": 0,
      "accel_val": 2000,
      "base_duration_us": 612244
    },
    {
      "id": "M_604",
      "pitch": 62,
      "t_note_us": 141428363,
      "t_trigger_us": 141292400,
      "is_ai": false,
      "track_id": 0,
      "velocity": 0,
      "is_motor": true,
      "motor_id": 1,
      "accel_val": 2000,
      "base_duration_us": 306122
    },
    {
      "id": "M_605",
      "pitch": 69,
      "t_note_us": 141734485,
      "t_trigger_us": 141598522,
      "is_ai": false,
      "track_id": 0,
      "velocity": 0,
      "is_motor": true,
      "motor_id": 1,
      "accel_val": 2000,
      "base_duration_us": 306122
    },
    {
      "id": "M_607",
      "pitch": 74,
      "t_note_us": 142040607,
      "t_trigger_us": 141904644,
      "is_ai": false,
      "track_id": 0,
      "velocity": 0,
      "is_motor": true,
      "motor_id": 1,
      "accel_val": 2000,
      "base_duration_us": 306122
    },
    {
      "id": "M_608",
      "pitch": 69,
      "t_note_us": 142346729,
      "t_trigger_us": 142210766,
      "is_ai": false,
      "track_id": 0,
      "velocity": 0,
      "is_motor": true,
      "motor_id": 1,
      "accel_val": 2000,
      "base_duration_us": 306122
    },
    {
      "id": "M_609",
      "pitch": 93,
      "t_note_us": 142652851,
      "t_trigger_us": 142516888,
      "is_ai": true,
      "track_id": 8,
      "velocity": 0,
      "is_motor": false,
      "motor_id": 0,
      "accel_val": 2000,
      "base_duration_us": 306122
    },
    {
      "id": "M_610",
      "pitch": 92,
      "t_note_us": 142958973,
      "t_trigger_us": 142823010,
      "is_ai": true,
      "track_id": 0,
      "velocity": 0,
      "is_motor": true,
      "motor_id": 3,
      "accel_val": 2000,
      "base_duration_us": 306122
    },
    {
      "id": "M_611",
      "pitch": 93,
      "t_note_us": 143265095,
      "t_trigger_us": 143129132,
      "is_ai": true,
      "track_id": 8,
      "velocity": 0,
      "is_motor": false,
      "motor_id": 0,
      "accel_val": 2000,
      "base_duration_us": 306122
    },
    {
      "id": "M_612",
      "pitch": 92,
      "t_note_us": 143571217,
      "t_trigger_us": 143435254,
      "is_ai": true,
      "track_id": 0,
      "velocity": 0,
      "is_motor": true,
      "motor_id": 3,
      "accel_val": 2000,
      "base_duration_us": 306122
    },
    {
      "id": "M_613",
      "pitch": 93,
      "t_note_us": 143877339,
      "t_trigger_us": 143741376,
      "is_ai": true,
      "track_id": 8,
      "velocity": 0,
      "is_motor": false,
      "motor_id": 0,
      "accel_val": 2000,
      "base_duration_us": 306122
    },
    {
      "id": "M_614",
      "pitch": 88,
      "t_note_us": 144183461,
      "t_trigger_us": 144047498,
      "is_ai": true,
      "track_id": 5,
      "velocity": 0,
      "is_motor": false,
      "motor_id": 0,
      "accel_val": 2000,
      "base_duration_us": 306122
    },
    {
      "id": "M_615",
      "pitch": 91,
      "t_note_us": 144489583,
      "t_trigger_us": 144353620,
      "is_ai": true,
      "track_id": 7,
      "velocity": 0,
      "is_motor": false,
      "motor_id": 0,
      "accel_val": 2000,
      "base_duration_us": 306122
    },
    {
      "id": "M_616",
      "pitch": 89,
      "t_note_us": 144795705,
      "t_trigger_us": 144659742,
      "is_ai": true,
      "track_id": 6,
      "velocity": 0,
      "is_motor": false,
      "motor_id": 0,
      "accel_val": 2000,
      "base_duration_us": 306122
    },
    {
      "id": "M_619",
      "pitch": 86,
      "t_note_us": 145101827,
      "t_trigger_us": 144965864,
      "is_ai": true,
      "track_id": 4,
      "velocity": 0,
      "is_motor": false,
      "motor_id": 0,
      "accel_val": 2000,
      "base_duration_us": 612244
    },
    {
      "id": "M_617",
      "pitch": 62,
      "t_note_us": 145101827,
      "t_trigger_us": 144965864,
      "is_ai": false,
      "track_id": 0,
      "velocity": 0,
      "is_motor": true,
      "motor_id": 1,
      "accel_val": 2000,
      "base_duration_us": 306122
    },
    {
      "id": "M_618",
      "pitch": 69,
      "t_note_us": 145407949,
      "t_trigger_us": 145271986,
      "is_ai": false,
      "track_id": 0,
      "velocity": 0,
      "is_motor": true,
      "motor_id": 1,
      "accel_val": 2000,
      "base_duration_us": 306122
    },
    {
      "id": "M_620",
      "pitch": 74,
      "t_note_us": 145714071,
      "t_trigger_us": 145578108,
      "is_ai": false,
      "track_id": 0,
      "velocity": 0,
      "is_motor": true,
      "motor_id": 1,
      "accel_val": 2000,
      "base_duration_us": 306122
    },
    {
      "id": "M_621",
      "pitch": 77,
      "t_note_us": 146020193,
      "t_trigger_us": 145884230,
      "is_ai": false,
      "track_id": 0,
      "velocity": 0,
      "is_motor": true,
      "motor_id": 2,
      "accel_val": 2000,
      "base_duration_us": 306122
    },
    {
      "id": "M_622",
      "pitch": 69,
      "t_note_us": 146326315,
      "t_trigger_us": 146190352,
      "is_ai": false,
      "track_id": 0,
      "velocity": 0,
      "is_motor": true,
      "motor_id": 1,
      "accel_val": 2000,
      "base_duration_us": 306122
    },
    {
      "id": "M_623",
      "pitch": 86,
      "t_note_us": 146632437,
      "t_trigger_us": 146496474,
      "is_ai": true,
      "track_id": 4,
      "velocity": 0,
      "is_motor": false,
      "motor_id": 0,
      "accel_val": 2000,
      "base_duration_us": 306122
    },
    {
      "id": "M_626",
      "pitch": 88,
      "t_note_us": 146938559,
      "t_trigger_us": 146802596,
      "is_ai": true,
      "track_id": 5,
      "velocity": 0,
      "is_motor": false,
      "motor_id": 0,
      "accel_val": 2000,
      "base_duration_us": 612244
    },
    {
      "id": "M_624",
      "pitch": 57,
      "t_note_us": 146938559,
      "t_trigger_us": 146802596,
      "is_ai": false,
      "track_id": 0,
      "velocity": 0,
      "is_motor": true,
      "motor_id": 0,
      "accel_val": 2000,
      "base_duration_us": 306122
    },
    {
      "id": "M_625",
      "pitch": 69,
      "t_note_us": 147244681,
      "t_trigger_us": 147108718,
      "is_ai": false,
      "track_id": 0,
      "velocity": 0,
      "is_motor": true,
      "motor_id": 1,
      "accel_val": 2000,
      "base_duration_us": 306122
    },
    {
      "id": "M_627",
      "pitch": 73,
      "t_note_us": 147550803,
      "t_trigger_us": 147414840,
      "is_ai": false,
      "track_id": 0,
      "velocity": 0,
      "is_motor": true,
      "motor_id": 1,
      "accel_val": 2000,
      "base_duration_us": 306122
    },
    {
      "id": "M_628",
      "pitch": 69,
      "t_note_us": 147856925,
      "t_trigger_us": 147720962,
      "is_ai": false,
      "track_id": 0,
      "velocity": 0,
      "is_motor": true,
      "motor_id": 1,
      "accel_val": 2000,
      "base_duration_us": 306122
    },
    {
      "id": "M_629",
      "pitch": 89,
      "t_note_us": 148163047,
      "t_trigger_us": 148027084,
      "is_ai": true,
      "track_id": 6,
      "velocity": 0,
      "is_motor": false,
      "motor_id": 0,
      "accel_val": 2000,
      "base_duration_us": 306122
    },
    {
      "id": "M_630",
      "pitch": 88,
      "t_note_us": 148469169,
      "t_trigger_us": 148333206,
      "is_ai": true,
      "track_id": 5,
      "velocity": 0,
      "is_motor": false,
      "motor_id": 0,
      "accel_val": 2000,
      "base_duration_us": 306122
    },
    {
      "id": "M_631",
      "pitch": 62,
      "t_note_us": 148775291,
      "t_trigger_us": 148639328,
      "is_ai": false,
      "track_id": 0,
      "velocity": 0,
      "is_motor": true,
      "motor_id": 1,
      "accel_val": 2000,
      "base_duration_us": 306122
    },
    {
      "id": "M_633",
      "pitch": 74,
      "t_note_us": 148775291,
      "t_trigger_us": 148639328,
      "is_ai": false,
      "track_id": 0,
      "velocity": 0,
      "is_motor": true,
      "motor_id": 0,
      "accel_val": 2000,
      "base_duration_us": 612244
    },
    {
      "id": "M_632",
      "pitch": 62,
      "t_note_us": 149081413,
      "t_trigger_us": 148945450,
      "is_ai": false,
      "track_id": 0,
      "velocity": 0,
      "is_motor": true,
      "motor_id": 1,
      "accel_val": 2000,
      "base_duration_us": 306122
    },
    {
      "id": "M_634",
      "pitch": 62,
      "t_note_us": 149387535,
      "t_trigger_us": 149251572,
      "is_ai": false,
      "track_id": 0,
      "velocity": 0,
      "is_motor": true,
      "motor_id": 1,
      "accel_val": 2000,
      "base_duration_us": 306122
    },
    {
      "id": "M_635",
      "pitch": 62,
      "t_note_us": 149693657,
      "t_trigger_us": 149557694,
      "is_ai": false,
      "track_id": 0,
      "velocity": 0,
      "is_motor": true,
      "motor_id": 1,
      "accel_val": 2000,
      "base_duration_us": 306122
    },
    {
      "id": "M_636",
      "pitch": 62,
      "t_note_us": 149999779,
      "t_trigger_us": 149863816,
      "is_ai": false,
      "track_id": 0,
      "velocity": 0,
      "is_motor": true,
      "motor_id": 1,
      "accel_val": 2000,
      "base_duration_us": 306122
    },
    {
      "id": "M_637",
      "pitch": 62,
      "t_note_us": 150305901,
      "t_trigger_us": 150169938,
      "is_ai": false,
      "track_id": 0,
      "velocity": 0,
      "is_motor": true,
      "motor_id": 1,
      "accel_val": 2000,
      "base_duration_us": 306122
    },
    {
      "id": "M_638",
      "pitch": 62,
      "t_note_us": 150612023,
      "t_trigger_us": 150476060,
      "is_ai": false,
      "track_id": 0,
      "velocity": 0,
      "is_motor": true,
      "motor_id": 1,
      "accel_val": 2000,
      "base_duration_us": 306122
    },
    {
      "id": "M_644",
      "pitch": 75,
      "t_note_us": 150612023,
      "t_trigger_us": 150476060,
      "is_ai": false,
      "track_id": 0,
      "velocity": 0,
      "is_motor": true,
      "motor_id": 2,
      "accel_val": 2000,
      "base_duration_us": 1836732
    },
    {
      "id": "M_645",
      "pitch": 72,
      "t_note_us": 150612023,
      "t_trigger_us": 150476060,
      "is_ai": false,
      "track_id": 0,
      "velocity": 0,
      "is_motor": true,
      "motor_id": 0,
      "accel_val": 2000,
      "base_duration_us": 1836732
    },
    {
      "id": "M_646",
      "pitch": 69,
      "t_note_us": 150612023,
      "t_trigger_us": 150476060,
      "is_ai": false,
      "track_id": 0,
      "velocity": 0,
      "is_motor": true,
      "motor_id": 3,
      "accel_val": 2000,
      "base_duration_us": 1836732
    },
    {
      "id": "M_647",
      "pitch": 78,
      "t_note_us": 150612023,
      "t_trigger_us": 150476060,
      "is_ai": false,
      "track_id": 0,
      "velocity": 0,
      "is_motor": true,
      "motor_id": 0,
      "accel_val": 2000,
      "base_duration_us": 1836732
    },
    {
      "id": "M_639",
      "pitch": 62,
      "t_note_us": 150918145,
      "t_trigger_us": 150782182,
      "is_ai": false,
      "track_id": 0,
      "velocity": 0,
      "is_motor": true,
      "motor_id": 1,
      "accel_val": 2000,
      "base_duration_us": 306122
    },
    {
      "id": "M_640",
      "pitch": 62,
      "t_note_us": 151224267,
      "t_trigger_us": 151088304,
      "is_ai": false,
      "track_id": 0,
      "velocity": 0,
      "is_motor": true,
      "motor_id": 1,
      "accel_val": 2000,
      "base_duration_us": 306122
    },
    {
      "id": "M_641",
      "pitch": 62,
      "t_note_us": 151530389,
      "t_trigger_us": 151394426,
      "is_ai": false,
      "track_id": 0,
      "velocity": 0,
      "is_motor": true,
      "motor_id": 1,
      "accel_val": 2000,
      "base_duration_us": 306122
    },
    {
      "id": "M_642",
      "pitch": 62,
      "t_note_us": 151836511,
      "t_trigger_us": 151700548,
      "is_ai": false,
      "track_id": 0,
      "velocity": 0,
      "is_motor": true,
      "motor_id": 1,
      "accel_val": 2000,
      "base_duration_us": 306122
    },
    {
      "id": "M_643",
      "pitch": 62,
      "t_note_us": 152142633,
      "t_trigger_us": 152006670,
      "is_ai": false,
      "track_id": 0,
      "velocity": 0,
      "is_motor": true,
      "motor_id": 1,
      "accel_val": 2000,
      "base_duration_us": 306122
    },
    {
      "id": "M_654",
      "pitch": 91,
      "t_note_us": 152448755,
      "t_trigger_us": 152312792,
      "is_ai": true,
      "track_id": 7,
      "velocity": 0,
      "is_motor": false,
      "motor_id": 0,
      "accel_val": 2000,
      "base_duration_us": 1224488
    },
    {
      "id": "M_648",
      "pitch": 62,
      "t_note_us": 152448755,
      "t_trigger_us": 152312792,
      "is_ai": false,
      "track_id": 0,
      "velocity": 0,
      "is_motor": true,
      "motor_id": 1,
      "accel_val": 2000,
      "base_duration_us": 306122
    },
    {
      "id": "M_652",
      "pitch": 70,
      "t_note_us": 152448755,
      "t_trigger_us": 152312792,
      "is_ai": false,
      "track_id": 0,
      "velocity": 0,
      "is_motor": true,
      "motor_id": 2,
      "accel_val": 2000,
      "base_duration_us": 1224488
    },
    {
      "id": "M_653",
      "pitch": 74,
      "t_note_us": 152448755,
      "t_trigger_us": 152312792,
      "is_ai": false,
      "track_id": 0,
      "velocity": 0,
      "is_motor": true,
      "motor_id": 0,
      "accel_val": 2000,
      "base_duration_us": 1224488
    },
    {
      "id": "M_649",
      "pitch": 62,
      "t_note_us": 152754877,
      "t_trigger_us": 152618914,
      "is_ai": false,
      "track_id": 0,
      "velocity": 0,
      "is_motor": true,
      "motor_id": 1,
      "accel_val": 2000,
      "base_duration_us": 306122
    },
    {
      "id": "M_650",
      "pitch": 62,
      "t_note_us": 153060999,
      "t_trigger_us": 152925036,
      "is_ai": false,
      "track_id": 0,
      "velocity": 0,
      "is_motor": true,
      "motor_id": 1,
      "accel_val": 2000,
      "base_duration_us": 306122
    },
    {
      "id": "M_651",
      "pitch": 62,
      "t_note_us": 153367121,
      "t_trigger_us": 153231158,
      "is_ai": false,
      "track_id": 0,
      "velocity": 0,
      "is_motor": true,
      "motor_id": 1,
      "accel_val": 2000,
      "base_duration_us": 306122
    },
    {
      "id": "M_656",
      "pitch": 90,
      "t_note_us": 153673243,
      "t_trigger_us": 153537280,
      "is_ai": true,
      "track_id": 0,
      "velocity": 0,
      "is_motor": true,
      "motor_id": 3,
      "accel_val": 2000,
      "base_duration_us": 306122
    },
    {
      "id": "M_657",
      "pitch": 93,
      "t_note_us": 153673243,
      "t_trigger_us": 153537280,
      "is_ai": true,
      "track_id": 8,
      "velocity": 0,
      "is_motor": false,
      "motor_id": 0,
      "accel_val": 2000,
      "base_duration_us": 306122
    },
    {
      "id": "M_655",
      "pitch": 62,
      "t_note_us": 153673243,
      "t_trigger_us": 153537280,
      "is_ai": false,
      "track_id": 0,
      "velocity": 0,
      "is_motor": true,
      "motor_id": 1,
      "accel_val": 2000,
      "base_duration_us": 306122
    },
    {
      "id": "M_659",
      "pitch": 91,
      "t_note_us": 153979365,
      "t_trigger_us": 153843402,
      "is_ai": true,
      "track_id": 7,
      "velocity": 0,
      "is_motor": false,
      "motor_id": 0,
      "accel_val": 2000,
      "base_duration_us": 306122
    },
    {
      "id": "M_660",
      "pitch": 94,
      "t_note_us": 153979365,
      "t_trigger_us": 153843402,
      "is_ai": true,
      "track_id": 0,
      "velocity": 0,
      "is_motor": true,
      "motor_id": 3,
      "accel_val": 2000,
      "base_duration_us": 306122
    },
    {
      "id": "M_658",
      "pitch": 62,
      "t_note_us": 153979365,
      "t_trigger_us": 153843402,
      "is_ai": false,
      "track_id": 0,
      "velocity": 0,
      "is_motor": true,
      "motor_id": 1,
      "accel_val": 2000,
      "base_duration_us": 306122
    },
    {
      "id": "M_666",
      "pitch": 91,
      "t_note_us": 154285487,
      "t_trigger_us": 154149524,
      "is_ai": true,
      "track_id": 7,
      "velocity": 0,
      "is_motor": false,
      "motor_id": 0,
      "accel_val": 2000,
      "base_duration_us": 1224488
    },
    {
      "id": "M_667",
      "pitch": 94,
      "t_note_us": 154285487,
      "t_trigger_us": 154149524,
      "is_ai": true,
      "track_id": 0,
      "velocity": 0,
      "is_motor": true,
      "motor_id": 3,
      "accel_val": 2000,
      "base_duration_us": 1224488
    },
    {
      "id": "M_661",
      "pitch": 62,
      "t_note_us": 154285487,
      "t_trigger_us": 154149524,
      "is_ai": false,
      "track_id": 0,
      "velocity": 0,
      "is_motor": true,
      "motor_id": 1,
      "accel_val": 2000,
      "base_duration_us": 306122
    },
    {
      "id": "M_665",
      "pitch": 73,
      "t_note_us": 154285487,
      "t_trigger_us": 154149524,
      "is_ai": false,
      "track_id": 0,
      "velocity": 0,
      "is_motor": true,
      "motor_id": 0,
      "accel_val": 2000,
      "base_duration_us": 1224488
    },
    {
      "id": "M_662",
      "pitch": 62,
      "t_note_us": 154591609,
      "t_trigger_us": 154455646,
      "is_ai": false,
      "track_id": 0,
      "velocity": 0,
      "is_motor": true,
      "motor_id": 1,
      "accel_val": 2000,
      "base_duration_us": 306122
    },
    {
      "id": "M_663",
      "pitch": 62,
      "t_note_us": 154897731,
      "t_trigger_us": 154761768,
      "is_ai": false,
      "track_id": 0,
      "velocity": 0,
      "is_motor": true,
      "motor_id": 1,
      "accel_val": 2000,
      "base_duration_us": 306122
    },
    {
      "id": "M_664",
      "pitch": 62,
      "t_note_us": 155203853,
      "t_trigger_us": 155067890,
      "is_ai": false,
      "track_id": 0,
      "velocity": 0,
      "is_motor": true,
      "motor_id": 1,
      "accel_val": 2000,
      "base_duration_us": 306122
    },
    {
      "id": "M_671",
      "pitch": 91,
      "t_note_us": 155509975,
      "t_trigger_us": 155374012,
      "is_ai": true,
      "track_id": 7,
      "velocity": 0,
      "is_motor": false,
      "motor_id": 0,
      "accel_val": 2000,
      "base_duration_us": 612244
    },
    {
      "id": "M_672",
      "pitch": 94,
      "t_note_us": 155509975,
      "t_trigger_us": 155374012,
      "is_ai": true,
      "track_id": 0,
      "velocity": 0,
      "is_motor": true,
      "motor_id": 3,
      "accel_val": 2000,
      "base_duration_us": 612244
    },
    {
      "id": "M_668",
      "pitch": 62,
      "t_note_us": 155509975,
      "t_trigger_us": 155374012,
      "is_ai": false,
      "track_id": 0,
      "velocity": 0,
      "is_motor": true,
      "motor_id": 1,
      "accel_val": 2000,
      "base_duration_us": 306122
    },
    {
      "id": "M_670",
      "pitch": 73,
      "t_note_us": 155509975,
      "t_trigger_us": 155374012,
      "is_ai": false,
      "track_id": 0,
      "velocity": 0,
      "is_motor": true,
      "motor_id": 0,
      "accel_val": 2000,
      "base_duration_us": 612244
    },
    {
      "id": "M_669",
      "pitch": 62,
      "t_note_us": 155816097,
      "t_trigger_us": 155680134,
      "is_ai": false,
      "track_id": 0,
      "velocity": 0,
      "is_motor": true,
      "motor_id": 1,
      "accel_val": 2000,
      "base_duration_us": 306122
    },
    {
      "id": "M_673",
      "pitch": 62,
      "t_note_us": 156122219,
      "t_trigger_us": 155986256,
      "is_ai": false,
      "track_id": 0,
      "velocity": 0,
      "is_motor": true,
      "motor_id": 1,
      "accel_val": 2000,
      "base_duration_us": 306122
    },
    {
      "id": "M_679",
      "pitch": 74,
      "t_note_us": 156122219,
      "t_trigger_us": 155986256,
      "is_ai": false,
      "track_id": 0,
      "velocity": 0,
      "is_motor": true,
      "motor_id": 0,
      "accel_val": 2000,
      "base_duration_us": 1836732
    },
    {
      "id": "M_680",
      "pitch": 77,
      "t_note_us": 156122219,
      "t_trigger_us": 155986256,
      "is_ai": false,
      "track_id": 0,
      "velocity": 0,
      "is_motor": true,
      "motor_id": 2,
      "accel_val": 2000,
      "base_duration_us": 1836732
    },
    {
      "id": "M_681",
      "pitch": 69,
      "t_note_us": 156122219,
      "t_trigger_us": 155986256,
      "is_ai": false,
      "track_id": 0,
      "velocity": 0,
      "is_motor": true,
      "motor_id": 3,
      "accel_val": 2000,
      "base_duration_us": 1836732
    },
    {
      "id": "M_674",
      "pitch": 62,
      "t_note_us": 156428341,
      "t_trigger_us": 156292378,
      "is_ai": false,
      "track_id": 0,
      "velocity": 0,
      "is_motor": true,
      "motor_id": 1,
      "accel_val": 2000,
      "base_duration_us": 306122
    },
    {
      "id": "M_675",
      "pitch": 62,
      "t_note_us": 156734463,
      "t_trigger_us": 156598500,
      "is_ai": false,
      "track_id": 0,
      "velocity": 0,
      "is_motor": true,
      "motor_id": 1,
      "accel_val": 2000,
      "base_duration_us": 306122
    },
    {
      "id": "M_676",
      "pitch": 62,
      "t_note_us": 157040585,
      "t_trigger_us": 156904622,
      "is_ai": false,
      "track_id": 0,
      "velocity": 0,
      "is_motor": true,
      "motor_id": 1,
      "accel_val": 2000,
      "base_duration_us": 306122
    },
    {
      "id": "M_677",
      "pitch": 62,
      "t_note_us": 157346707,
      "t_trigger_us": 157210744,
      "is_ai": false,
      "track_id": 0,
      "velocity": 0,
      "is_motor": true,
      "motor_id": 1,
      "accel_val": 2000,
      "base_duration_us": 306122
    },
    {
      "id": "M_678",
      "pitch": 62,
      "t_note_us": 157652829,
      "t_trigger_us": 157516866,
      "is_ai": false,
      "track_id": 0,
      "velocity": 0,
      "is_motor": true,
      "motor_id": 1,
      "accel_val": 2000,
      "base_duration_us": 306122
    },
    {
      "id": "M_691",
      "pitch": 91,
      "t_note_us": 157958951,
      "t_trigger_us": 157822988,
      "is_ai": true,
      "track_id": 7,
      "velocity": 0,
      "is_motor": false,
      "motor_id": 0,
      "accel_val": 2000,
      "base_duration_us": 1224488
    },
    {
      "id": "M_682",
      "pitch": 55,
      "t_note_us": 157958951,
      "t_trigger_us": 157822988,
      "is_ai": false,
      "track_id": 0,
      "velocity": 0,
      "is_motor": true,
      "motor_id": 0,
      "accel_val": 2000,
      "base_duration_us": 306122
    },
    {
      "id": "M_683",
      "pitch": 62,
      "t_note_us": 157958951,
      "t_trigger_us": 157822988,
      "is_ai": false,
      "track_id": 0,
      "velocity": 0,
      "is_motor": true,
      "motor_id": 1,
      "accel_val": 2000,
      "base_duration_us": 306122
    },
    {
      "id": "M_690",
      "pitch": 70,
      "t_note_us": 157958951,
      "t_trigger_us": 157822988,
      "is_ai": false,
      "track_id": 0,
      "velocity": 0,
      "is_motor": true,
      "motor_id": 2,
      "accel_val": 2000,
      "base_duration_us": 1224488
    },
    {
      "id": "M_684",
      "pitch": 55,
      "t_note_us": 158265073,
      "t_trigger_us": 158129110,
      "is_ai": false,
      "track_id": 0,
      "velocity": 0,
      "is_motor": true,
      "motor_id": 0,
      "accel_val": 2000,
      "base_duration_us": 306122
    },
    {
      "id": "M_685",
      "pitch": 62,
      "t_note_us": 158265073,
      "t_trigger_us": 158129110,
      "is_ai": false,
      "track_id": 0,
      "velocity": 0,
      "is_motor": true,
      "motor_id": 1,
      "accel_val": 2000,
      "base_duration_us": 306122
    },
    {
      "id": "M_686",
      "pitch": 55,
      "t_note_us": 158571195,
      "t_trigger_us": 158435232,
      "is_ai": false,
      "track_id": 0,
      "velocity": 0,
      "is_motor": true,
      "motor_id": 0,
      "accel_val": 2000,
      "base_duration_us": 306122
    },
    {
      "id": "M_687",
      "pitch": 62,
      "t_note_us": 158571195,
      "t_trigger_us": 158435232,
      "is_ai": false,
      "track_id": 0,
      "velocity": 0,
      "is_motor": true,
      "motor_id": 1,
      "accel_val": 2000,
      "base_duration_us": 306122
    },
    {
      "id": "M_688",
      "pitch": 55,
      "t_note_us": 158877317,
      "t_trigger_us": 158741354,
      "is_ai": false,
      "track_id": 0,
      "velocity": 0,
      "is_motor": true,
      "motor_id": 0,
      "accel_val": 2000,
      "base_duration_us": 306122
    },
    {
      "id": "M_689",
      "pitch": 62,
      "t_note_us": 158877317,
      "t_trigger_us": 158741354,
      "is_ai": false,
      "track_id": 0,
      "velocity": 0,
      "is_motor": true,
      "motor_id": 1,
      "accel_val": 2000,
      "base_duration_us": 306122
    },
    {
      "id": "M_695",
      "pitch": 89,
      "t_note_us": 159183439,
      "t_trigger_us": 159047476,
      "is_ai": true,
      "track_id": 6,
      "velocity": 0,
      "is_motor": false,
      "motor_id": 0,
      "accel_val": 2000,
      "base_duration_us": 306122
    },
    {
      "id": "M_692",
      "pitch": 55,
      "t_note_us": 159183439,
      "t_trigger_us": 159047476,
      "is_ai": false,
      "track_id": 0,
      "velocity": 0,
      "is_motor": true,
      "motor_id": 0,
      "accel_val": 2000,
      "base_duration_us": 306122
    },
    {
      "id": "M_693",
      "pitch": 62,
      "t_note_us": 159183439,
      "t_trigger_us": 159047476,
      "is_ai": false,
      "track_id": 0,
      "velocity": 0,
      "is_motor": true,
      "motor_id": 1,
      "accel_val": 2000,
      "base_duration_us": 306122
    },
    {
      "id": "M_694",
      "pitch": 69,
      "t_note_us": 159183439,
      "t_trigger_us": 159047476,
      "is_ai": false,
      "track_id": 0,
      "velocity": 0,
      "is_motor": true,
      "motor_id": 2,
      "accel_val": 2000,
      "base_duration_us": 306122
    },
    {
      "id": "M_699",
      "pitch": 88,
      "t_note_us": 159489561,
      "t_trigger_us": 159353598,
      "is_ai": true,
      "track_id": 5,
      "velocity": 0,
      "is_motor": false,
      "motor_id": 0,
      "accel_val": 2000,
      "base_duration_us": 306122
    },
    {
      "id": "M_696",
      "pitch": 55,
      "t_note_us": 159489561,
      "t_trigger_us": 159353598,
      "is_ai": false,
      "track_id": 0,
      "velocity": 0,
      "is_motor": true,
      "motor_id": 0,
      "accel_val": 2000,
      "base_duration_us": 306122
    },
    {
      "id": "M_697",
      "pitch": 62,
      "t_note_us": 159489561,
      "t_trigger_us": 159353598,
      "is_ai": false,
      "track_id": 0,
      "velocity": 0,
      "is_motor": true,
      "motor_id": 1,
      "accel_val": 2000,
      "base_duration_us": 306122
    },
    {
      "id": "M_698",
      "pitch": 67,
      "t_note_us": 159489561,
      "t_trigger_us": 159353598,
      "is_ai": false,
      "track_id": 0,
      "velocity": 0,
      "is_motor": true,
      "motor_id": 2,
      "accel_val": 2000,
      "base_duration_us": 306122
    },
    {
      "id": "M_710",
      "pitch": 86,
      "t_note_us": 159795683,
      "t_trigger_us": 159659720,
      "is_ai": true,
      "track_id": 4,
      "velocity": 0,
      "is_motor": false,
      "motor_id": 0,
      "accel_val": 2000,
      "base_duration_us": 1224488
    },
    {
      "id": "M_700",
      "pitch": 56,
      "t_note_us": 159795683,
      "t_trigger_us": 159659720,
      "is_ai": false,
      "track_id": 0,
      "velocity": 0,
      "is_motor": true,
      "motor_id": 0,
      "accel_val": 2000,
      "base_duration_us": 306122
    },
    {
      "id": "M_701",
      "pitch": 62,
      "t_note_us": 159795683,
      "t_trigger_us": 159659720,
      "is_ai": false,
      "track_id": 0,
      "velocity": 0,
      "is_motor": true,
      "motor_id": 1,
      "accel_val": 2000,
      "base_duration_us": 306122
    },
    {
      "id": "M_708",
      "pitch": 77,
      "t_note_us": 159795683,
      "t_trigger_us": 159659720,
      "is_ai": false,
      "track_id": 0,
      "velocity": 0,
      "is_motor": true,
      "motor_id": 2,
      "accel_val": 2000,
      "base_duration_us": 1224488
    },
    {
      "id": "M_709",
      "pitch": 71,
      "t_note_us": 159795683,
      "t_trigger_us": 159659720,
      "is_ai": false,
      "track_id": 0,
      "velocity": 0,
      "is_motor": true,
      "motor_id": 3,
      "accel_val": 2000,
      "base_duration_us": 1224488
    },
    {
      "id": "M_702",
      "pitch": 56,
      "t_note_us": 160101805,
      "t_trigger_us": 159965842,
      "is_ai": false,
      "track_id": 0,
      "velocity": 0,
      "is_motor": true,
      "motor_id": 0,
      "accel_val": 2000,
      "base_duration_us": 306122
    },
    {
      "id": "M_703",
      "pitch": 62,
      "t_note_us": 160101805,
      "t_trigger_us": 159965842,
      "is_ai": false,
      "track_id": 0,
      "velocity": 0,
      "is_motor": true,
      "motor_id": 1,
      "accel_val": 2000,
      "base_duration_us": 306122
    },
    {
      "id": "M_704",
      "pitch": 56,
      "t_note_us": 160407927,
      "t_trigger_us": 160271964,
      "is_ai": false,
      "track_id": 0,
      "velocity": 0,
      "is_motor": true,
      "motor_id": 0,
      "accel_val": 2000,
      "base_duration_us": 306122
    },
    {
      "id": "M_705",
      "pitch": 62,
      "t_note_us": 160407927,
      "t_trigger_us": 160271964,
      "is_ai": false,
      "track_id": 0,
      "velocity": 0,
      "is_motor": true,
      "motor_id": 1,
      "accel_val": 2000,
      "base_duration_us": 306122
    },
    {
      "id": "M_706",
      "pitch": 56,
      "t_note_us": 160714049,
      "t_trigger_us": 160578086,
      "is_ai": false,
      "track_id": 0,
      "velocity": 0,
      "is_motor": true,
      "motor_id": 0,
      "accel_val": 2000,
      "base_duration_us": 306122
    },
    {
      "id": "M_707",
      "pitch": 62,
      "t_note_us": 160714049,
      "t_trigger_us": 160578086,
      "is_ai": false,
      "track_id": 0,
      "velocity": 0,
      "is_motor": true,
      "motor_id": 1,
      "accel_val": 2000,
      "base_duration_us": 306122
    },
    {
      "id": "M_716",
      "pitch": 86,
      "t_note_us": 161020171,
      "t_trigger_us": 160884208,
      "is_ai": true,
      "track_id": 4,
      "velocity": 0,
      "is_motor": false,
      "motor_id": 0,
      "accel_val": 2000,
      "base_duration_us": 612244
    },
    {
      "id": "M_711",
      "pitch": 56,
      "t_note_us": 161020171,
      "t_trigger_us": 160884208,
      "is_ai": false,
      "track_id": 0,
      "velocity": 0,
      "is_motor": true,
      "motor_id": 0,
      "accel_val": 2000,
      "base_duration_us": 306122
    },
    {
      "id": "M_712",
      "pitch": 62,
      "t_note_us": 161020171,
      "t_trigger_us": 160884208,
      "is_ai": false,
      "track_id": 0,
      "velocity": 0,
      "is_motor": true,
      "motor_id": 1,
      "accel_val": 2000,
      "base_duration_us": 306122
    },
    {
      "id": "M_715",
      "pitch": 77,
      "t_note_us": 161020171,
      "t_trigger_us": 160884208,
      "is_ai": false,
      "track_id": 0,
      "velocity": 0,
      "is_motor": true,
      "motor_id": 2,
      "accel_val": 2000,
      "base_duration_us": 612244
    },
    {
      "id": "M_713",
      "pitch": 56,
      "t_note_us": 161326293,
      "t_trigger_us": 161190330,
      "is_ai": false,
      "track_id": 0,
      "velocity": 0,
      "is_motor": true,
      "motor_id": 0,
      "accel_val": 2000,
      "base_duration_us": 306122
    },
    {
      "id": "M_714",
      "pitch": 62,
      "t_note_us": 161326293,
      "t_trigger_us": 161190330,
      "is_ai": false,
      "track_id": 0,
      "velocity": 0,
      "is_motor": true,
      "motor_id": 1,
      "accel_val": 2000,
      "base_duration_us": 306122
    },
    {
      "id": "M_722",
      "pitch": 86,
      "t_note_us": 161632415,
      "t_trigger_us": 161496452,
      "is_ai": true,
      "track_id": 4,
      "velocity": 0,
      "is_motor": false,
      "motor_id": 0,
      "accel_val": 2000,
      "base_duration_us": 612244
    },
    {
      "id": "M_717",
      "pitch": 57,
      "t_note_us": 161632415,
      "t_trigger_us": 161496452,
      "is_ai": false,
      "track_id": 0,
      "velocity": 0,
      "is_motor": true,
      "motor_id": 0,
      "accel_val": 2000,
      "base_duration_us": 306122
    },
    {
      "id": "M_718",
      "pitch": 62,
      "t_note_us": 161632415,
      "t_trigger_us": 161496452,
      "is_ai": false,
      "track_id": 0,
      "velocity": 0,
      "is_motor": true,
      "motor_id": 1,
      "accel_val": 2000,
      "base_duration_us": 306122
    },
    {
      "id": "M_721",
      "pitch": 77,
      "t_note_us": 161632415,
      "t_trigger_us": 161496452,
      "is_ai": false,
      "track_id": 0,
      "velocity": 0,
      "is_motor": true,
      "motor_id": 2,
      "accel_val": 2000,
      "base_duration_us": 612244
    },
    {
      "id": "M_719",
      "pitch": 57,
      "t_note_us": 161938537,
      "t_trigger_us": 161802574,
      "is_ai": false,
      "track_id": 0,
      "velocity": 0,
      "is_motor": true,
      "motor_id": 0,
      "accel_val": 2000,
      "base_duration_us": 306122
    },
    {
      "id": "M_720",
      "pitch": 62,
      "t_note_us": 161938537,
      "t_trigger_us": 161802574,
      "is_ai": false,
      "track_id": 0,
      "velocity": 0,
      "is_motor": true,
      "motor_id": 1,
      "accel_val": 2000,
      "base_duration_us": 306122
    },
    {
      "id": "M_728",
      "pitch": 89,
      "t_note_us": 162244659,
      "t_trigger_us": 162108696,
      "is_ai": true,
      "track_id": 6,
      "velocity": 0,
      "is_motor": false,
      "motor_id": 0,
      "accel_val": 2000,
      "base_duration_us": 612244
    },
    {
      "id": "M_723",
      "pitch": 57,
      "t_note_us": 162244659,
      "t_trigger_us": 162108696,
      "is_ai": false,
      "track_id": 0,
      "velocity": 0,
      "is_motor": true,
      "motor_id": 0,
      "accel_val": 2000,
      "base_duration_us": 306122
    },
    {
      "id": "M_724",
      "pitch": 62,
      "t_note_us": 162244659,
      "t_trigger_us": 162108696,
      "is_ai": false,
      "track_id": 0,
      "velocity": 0,
      "is_motor": true,
      "motor_id": 1,
      "accel_val": 2000,
      "base_duration_us": 306122
    },
    {
      "id": "M_727",
      "pitch": 69,
      "t_note_us": 162244659,
      "t_trigger_us": 162108696,
      "is_ai": false,
      "track_id": 0,
      "velocity": 0,
      "is_motor": true,
      "motor_id": 2,
      "accel_val": 2000,
      "base_duration_us": 612244
    },
    {
      "id": "M_725",
      "pitch": 57,
      "t_note_us": 162550781,
      "t_trigger_us": 162414818,
      "is_ai": false,
      "track_id": 0,
      "velocity": 0,
      "is_motor": true,
      "motor_id": 0,
      "accel_val": 2000,
      "base_duration_us": 306122
    },
    {
      "id": "M_726",
      "pitch": 62,
      "t_note_us": 162550781,
      "t_trigger_us": 162414818,
      "is_ai": false,
      "track_id": 0,
      "velocity": 0,
      "is_motor": true,
      "motor_id": 1,
      "accel_val": 2000,
      "base_duration_us": 306122
    },
    {
      "id": "M_734",
      "pitch": 88,
      "t_note_us": 162856903,
      "t_trigger_us": 162720940,
      "is_ai": true,
      "track_id": 5,
      "velocity": 0,
      "is_motor": false,
      "motor_id": 0,
      "accel_val": 2000,
      "base_duration_us": 612244
    },
    {
      "id": "M_729",
      "pitch": 61,
      "t_note_us": 162856903,
      "t_trigger_us": 162720940,
      "is_ai": false,
      "track_id": 0,
      "velocity": 0,
      "is_motor": true,
      "motor_id": 1,
      "accel_val": 2000,
      "base_duration_us": 306122
    },
    {
      "id": "M_730",
      "pitch": 57,
      "t_note_us": 162856903,
      "t_trigger_us": 162720940,
      "is_ai": false,
      "track_id": 0,
      "velocity": 0,
      "is_motor": true,
      "motor_id": 0,
      "accel_val": 2000,
      "base_duration_us": 306122
    },
    {
      "id": "M_733",
      "pitch": 67,
      "t_note_us": 162856903,
      "t_trigger_us": 162720940,
      "is_ai": false,
      "track_id": 0,
      "velocity": 0,
      "is_motor": true,
      "motor_id": 2,
      "accel_val": 2000,
      "base_duration_us": 612244
    },
    {
      "id": "M_731",
      "pitch": 61,
      "t_note_us": 163163025,
      "t_trigger_us": 163027062,
      "is_ai": false,
      "track_id": 0,
      "velocity": 0,
      "is_motor": true,
      "motor_id": 1,
      "accel_val": 2000,
      "base_duration_us": 306122
    },
    {
      "id": "M_732",
      "pitch": 57,
      "t_note_us": 163163025,
      "t_trigger_us": 163027062,
      "is_ai": false,
      "track_id": 0,
      "velocity": 0,
      "is_motor": true,
      "motor_id": 0,
      "accel_val": 2000,
      "base_duration_us": 306122
    },
    {
      "id": "M_735",
      "pitch": 50,
      "t_note_us": 163469147,
      "t_trigger_us": 163333184,
      "is_ai": false,
      "track_id": 0,
      "velocity": 0,
      "is_motor": true,
      "motor_id": 0,
      "accel_val": 2000,
      "base_duration_us": 306122
    },
    {
      "id": "M_736",
      "pitch": 62,
      "t_note_us": 163469147,
      "t_trigger_us": 163333184,
      "is_ai": false,
      "track_id": 0,
      "velocity": 0,
      "is_motor": true,
      "motor_id": 1,
      "accel_val": 2000,
      "base_duration_us": 306122
    },
    {
      "id": "M_742",
      "pitch": 77,
      "t_note_us": 163469147,
      "t_trigger_us": 163333184,
      "is_ai": false,
      "track_id": 0,
      "velocity": 0,
      "is_motor": true,
      "motor_id": 2,
      "accel_val": 2000,
      "base_duration_us": 1836732
    },
    {
      "id": "M_743",
      "pitch": 74,
      "t_note_us": 163469147,
      "t_trigger_us": 163333184,
      "is_ai": false,
      "track_id": 0,
      "velocity": 0,
      "is_motor": true,
      "motor_id": 3,
      "accel_val": 2000,
      "base_duration_us": 1836732
    },
    {
      "id": "M_737",
      "pitch": 62,
      "t_note_us": 163775269,
      "t_trigger_us": 163639306,
      "is_ai": false,
      "track_id": 0,
      "velocity": 0,
      "is_motor": true,
      "motor_id": 1,
      "accel_val": 2000,
      "base_duration_us": 306122
    },
    {
      "id": "M_738",
      "pitch": 62,
      "t_note_us": 164081391,
      "t_trigger_us": 163945428,
      "is_ai": false,
      "track_id": 0,
      "velocity": 0,
      "is_motor": true,
      "motor_id": 1,
      "accel_val": 2000,
      "base_duration_us": 306122
    },
    {
      "id": "M_739",
      "pitch": 62,
      "t_note_us": 164387513,
      "t_trigger_us": 164251550,
      "is_ai": false,
      "track_id": 0,
      "velocity": 0,
      "is_motor": true,
      "motor_id": 1,
      "accel_val": 2000,
      "base_duration_us": 306122
    },
    {
      "id": "M_740",
      "pitch": 62,
      "t_note_us": 164693635,
      "t_trigger_us": 164557672,
      "is_ai": false,
      "track_id": 0,
      "velocity": 0,
      "is_motor": true,
      "motor_id": 1,
      "accel_val": 2000,
      "base_duration_us": 306122
    },
    {
      "id": "M_741",
      "pitch": 62,
      "t_note_us": 164999757,
      "t_trigger_us": 164863794,
      "is_ai": false,
      "track_id": 0,
      "velocity": 0,
      "is_motor": true,
      "motor_id": 1,
      "accel_val": 2000,
      "base_duration_us": 306122
    },
    {
      "id": "M_744",
      "pitch": 62,
      "t_note_us": 165305879,
      "t_trigger_us": 165169916,
      "is_ai": false,
      "track_id": 0,
      "velocity": 0,
      "is_motor": true,
      "motor_id": 1,
      "accel_val": 2000,
      "base_duration_us": 306122
    },
    {
      "id": "M_750",
      "pitch": 75,
      "t_note_us": 165305879,
      "t_trigger_us": 165169916,
      "is_ai": false,
      "track_id": 0,
      "velocity": 0,
      "is_motor": true,
      "motor_id": 2,
      "accel_val": 2000,
      "base_duration_us": 1836732
    },
    {
      "id": "M_751",
      "pitch": 72,
      "t_note_us": 165305879,
      "t_trigger_us": 165169916,
      "is_ai": false,
      "track_id": 0,
      "velocity": 0,
      "is_motor": true,
      "motor_id": 0,
      "accel_val": 2000,
      "base_duration_us": 1836732
    },
    {
      "id": "M_752",
      "pitch": 69,
      "t_note_us": 165305879,
      "t_trigger_us": 165169916,
      "is_ai": false,
      "track_id": 0,
      "velocity": 0,
      "is_motor": true,
      "motor_id": 3,
      "accel_val": 2000,
      "base_duration_us": 1836732
    },
    {
      "id": "M_753",
      "pitch": 78,
      "t_note_us": 165305879,
      "t_trigger_us": 165169916,
      "is_ai": false,
      "track_id": 0,
      "velocity": 0,
      "is_motor": true,
      "motor_id": 0,
      "accel_val": 2000,
      "base_duration_us": 1836732
    },
    {
      "id": "M_745",
      "pitch": 62,
      "t_note_us": 165612001,
      "t_trigger_us": 165476038,
      "is_ai": false,
      "track_id": 0,
      "velocity": 0,
      "is_motor": true,
      "motor_id": 1,
      "accel_val": 2000,
      "base_duration_us": 306122
    },
    {
      "id": "M_746",
      "pitch": 62,
      "t_note_us": 165918123,
      "t_trigger_us": 165782160,
      "is_ai": false,
      "track_id": 0,
      "velocity": 0,
      "is_motor": true,
      "motor_id": 1,
      "accel_val": 2000,
      "base_duration_us": 306122
    },
    {
      "id": "M_747",
      "pitch": 62,
      "t_note_us": 166224245,
      "t_trigger_us": 166088282,
      "is_ai": false,
      "track_id": 0,
      "velocity": 0,
      "is_motor": true,
      "motor_id": 1,
      "accel_val": 2000,
      "base_duration_us": 306122
    },
    {
      "id": "M_748",
      "pitch": 62,
      "t_note_us": 166530367,
      "t_trigger_us": 166394404,
      "is_ai": false,
      "track_id": 0,
      "velocity": 0,
      "is_motor": true,
      "motor_id": 1,
      "accel_val": 2000,
      "base_duration_us": 306122
    },
    {
      "id": "M_749",
      "pitch": 62,
      "t_note_us": 166836489,
      "t_trigger_us": 166700526,
      "is_ai": false,
      "track_id": 0,
      "velocity": 0,
      "is_motor": true,
      "motor_id": 1,
      "accel_val": 2000,
      "base_duration_us": 306122
    },
    {
      "id": "M_760",
      "pitch": 91,
      "t_note_us": 167142611,
      "t_trigger_us": 167006648,
      "is_ai": true,
      "track_id": 7,
      "velocity": 0,
      "is_motor": false,
      "motor_id": 0,
      "accel_val": 2000,
      "base_duration_us": 1224488
    },
    {
      "id": "M_754",
      "pitch": 62,
      "t_note_us": 167142611,
      "t_trigger_us": 167006648,
      "is_ai": false,
      "track_id": 0,
      "velocity": 0,
      "is_motor": true,
      "motor_id": 1,
      "accel_val": 2000,
      "base_duration_us": 306122
    },
    {
      "id": "M_758",
      "pitch": 70,
      "t_note_us": 167142611,
      "t_trigger_us": 167006648,
      "is_ai": false,
      "track_id": 0,
      "velocity": 0,
      "is_motor": true,
      "motor_id": 2,
      "accel_val": 2000,
      "base_duration_us": 1224488
    },
    {
      "id": "M_759",
      "pitch": 74,
      "t_note_us": 167142611,
      "t_trigger_us": 167006648,
      "is_ai": false,
      "track_id": 0,
      "velocity": 0,
      "is_motor": true,
      "motor_id": 0,
      "accel_val": 2000,
      "base_duration_us": 1224488
    },
    {
      "id": "M_755",
      "pitch": 62,
      "t_note_us": 167448733,
      "t_trigger_us": 167312770,
      "is_ai": false,
      "track_id": 0,
      "velocity": 0,
      "is_motor": true,
      "motor_id": 1,
      "accel_val": 2000,
      "base_duration_us": 306122
    },
    {
      "id": "M_756",
      "pitch": 62,
      "t_note_us": 167754855,
      "t_trigger_us": 167618892,
      "is_ai": false,
      "track_id": 0,
      "velocity": 0,
      "is_motor": true,
      "motor_id": 1,
      "accel_val": 2000,
      "base_duration_us": 306122
    },
    {
      "id": "M_757",
      "pitch": 62,
      "t_note_us": 168060977,
      "t_trigger_us": 167925014,
      "is_ai": false,
      "track_id": 0,
      "velocity": 0,
      "is_motor": true,
      "motor_id": 1,
      "accel_val": 2000,
      "base_duration_us": 306122
    },
    {
      "id": "M_762",
      "pitch": 90,
      "t_note_us": 168367099,
      "t_trigger_us": 168231136,
      "is_ai": true,
      "track_id": 0,
      "velocity": 0,
      "is_motor": true,
      "motor_id": 3,
      "accel_val": 2000,
      "base_duration_us": 306122
    },
    {
      "id": "M_763",
      "pitch": 93,
      "t_note_us": 168367099,
      "t_trigger_us": 168231136,
      "is_ai": true,
      "track_id": 8,
      "velocity": 0,
      "is_motor": false,
      "motor_id": 0,
      "accel_val": 2000,
      "base_duration_us": 306122
    },
    {
      "id": "M_761",
      "pitch": 62,
      "t_note_us": 168367099,
      "t_trigger_us": 168231136,
      "is_ai": false,
      "track_id": 0,
      "velocity": 0,
      "is_motor": true,
      "motor_id": 1,
      "accel_val": 2000,
      "base_duration_us": 306122
    },
    {
      "id": "M_765",
      "pitch": 91,
      "t_note_us": 168673221,
      "t_trigger_us": 168537258,
      "is_ai": true,
      "track_id": 7,
      "velocity": 0,
      "is_motor": false,
      "motor_id": 0,
      "accel_val": 2000,
      "base_duration_us": 306122
    },
    {
      "id": "M_766",
      "pitch": 94,
      "t_note_us": 168673221,
      "t_trigger_us": 168537258,
      "is_ai": true,
      "track_id": 0,
      "velocity": 0,
      "is_motor": true,
      "motor_id": 3,
      "accel_val": 2000,
      "base_duration_us": 306122
    },
    {
      "id": "M_764",
      "pitch": 62,
      "t_note_us": 168673221,
      "t_trigger_us": 168537258,
      "is_ai": false,
      "track_id": 0,
      "velocity": 0,
      "is_motor": true,
      "motor_id": 1,
      "accel_val": 2000,
      "base_duration_us": 306122
    },
    {
      "id": "M_771",
      "pitch": 91,
      "t_note_us": 168979343,
      "t_trigger_us": 168843380,
      "is_ai": true,
      "track_id": 7,
      "velocity": 0,
      "is_motor": false,
      "motor_id": 0,
      "accel_val": 2000,
      "base_duration_us": 1224488
    },
    {
      "id": "M_772",
      "pitch": 94,
      "t_note_us": 168979343,
      "t_trigger_us": 168843380,
      "is_ai": true,
      "track_id": 0,
      "velocity": 0,
      "is_motor": true,
      "motor_id": 3,
      "accel_val": 2000,
      "base_duration_us": 1224488
    },
    {
      "id": "M_767",
      "pitch": 62,
      "t_note_us": 168979343,
      "t_trigger_us": 168843380,
      "is_ai": false,
      "track_id": 0,
      "velocity": 0,
      "is_motor": true,
      "motor_id": 1,
      "accel_val": 2000,
      "base_duration_us": 306122
    },
    {
      "id": "M_768",
      "pitch": 62,
      "t_note_us": 169285465,
      "t_trigger_us": 169149502,
      "is_ai": false,
      "track_id": 0,
      "velocity": 0,
      "is_motor": true,
      "motor_id": 1,
      "accel_val": 2000,
      "base_duration_us": 306122
    },
    {
      "id": "M_769",
      "pitch": 62,
      "t_note_us": 169591587,
      "t_trigger_us": 169455624,
      "is_ai": false,
      "track_id": 0,
      "velocity": 0,
      "is_motor": true,
      "motor_id": 1,
      "accel_val": 2000,
      "base_duration_us": 306122
    },
    {
      "id": "M_770",
      "pitch": 62,
      "t_note_us": 169897709,
      "t_trigger_us": 169761746,
      "is_ai": false,
      "track_id": 0,
      "velocity": 0,
      "is_motor": true,
      "motor_id": 1,
      "accel_val": 2000,
      "base_duration_us": 306122
    },
    {
      "id": "M_775",
      "pitch": 91,
      "t_note_us": 170203831,
      "t_trigger_us": 170067868,
      "is_ai": true,
      "track_id": 7,
      "velocity": 0,
      "is_motor": false,
      "motor_id": 0,
      "accel_val": 2000,
      "base_duration_us": 612244
    },
    {
      "id": "M_776",
      "pitch": 94,
      "t_note_us": 170203831,
      "t_trigger_us": 170067868,
      "is_ai": true,
      "track_id": 0,
      "velocity": 0,
      "is_motor": true,
      "motor_id": 3,
      "accel_val": 2000,
      "base_duration_us": 612244
    },
    {
      "id": "M_773",
      "pitch": 62,
      "t_note_us": 170203831,
      "t_trigger_us": 170067868,
      "is_ai": false,
      "track_id": 0,
      "velocity": 0,
      "is_motor": true,
      "motor_id": 1,
      "accel_val": 2000,
      "base_duration_us": 306122
    },
    {
      "id": "M_774",
      "pitch": 62,
      "t_note_us": 170509953,
      "t_trigger_us": 170373990,
      "is_ai": false,
      "track_id": 0,
      "velocity": 0,
      "is_motor": true,
      "motor_id": 1,
      "accel_val": 2000,
      "base_duration_us": 306122
    },
    {
      "id": "M_783",
      "pitch": 91,
      "t_note_us": 170816075,
      "t_trigger_us": 170680112,
      "is_ai": true,
      "track_id": 7,
      "velocity": 0,
      "is_motor": false,
      "motor_id": 0,
      "accel_val": 2000,
      "base_duration_us": 1836732
    },
    {
      "id": "M_777",
      "pitch": 63,
      "t_note_us": 170816075,
      "t_trigger_us": 170680112,
      "is_ai": false,
      "track_id": 0,
      "velocity": 0,
      "is_motor": true,
      "motor_id": 1,
      "accel_val": 2000,
      "base_duration_us": 306122
    },
    {
      "id": "M_784",
      "pitch": 70,
      "t_note_us": 170816075,
      "t_trigger_us": 170680112,
      "is_ai": false,
      "track_id": 0,
      "velocity": 0,
      "is_motor": true,
      "motor_id": 2,
      "accel_val": 2000,
      "base_duration_us": 1836732
    },
    {
      "id": "M_778",
      "pitch": 63,
      "t_note_us": 171122197,
      "t_trigger_us": 170986234,
      "is_ai": false,
      "track_id": 0,
      "velocity": 0,
      "is_motor": true,
      "motor_id": 1,
      "accel_val": 2000,
      "base_duration_us": 306122
    },
    {
      "id": "M_779",
      "pitch": 63,
      "t_note_us": 171428319,
      "t_trigger_us": 171292356,
      "is_ai": false,
      "track_id": 0,
      "velocity": 0,
      "is_motor": true,
      "motor_id": 1,
      "accel_val": 2000,
      "base_duration_us": 306122
    },
    {
      "id": "M_780",
      "pitch": 63,
      "t_note_us": 171734441,
      "t_trigger_us": 171598478,
      "is_ai": false,
      "track_id": 0,
      "velocity": 0,
      "is_motor": true,
      "motor_id": 1,
      "accel_val": 2000,
      "base_duration_us": 306122
    },
    {
      "id": "M_781",
      "pitch": 63,
      "t_note_us": 172040563,
      "t_trigger_us": 171904600,
      "is_ai": false,
      "track_id": 0,
      "velocity": 0,
      "is_motor": true,
      "motor_id": 1,
      "accel_val": 2000,
      "base_duration_us": 306122
    },
    {
      "id": "M_782",
      "pitch": 63,
      "t_note_us": 172346685,
      "t_trigger_us": 172210722,
      "is_ai": false,
      "track_id": 0,
      "velocity": 0,
      "is_motor": true,
      "motor_id": 1,
      "accel_val": 2000,
      "base_duration_us": 306122
    },
    {
      "id": "M_785",
      "pitch": 63,
      "t_note_us": 172652807,
      "t_trigger_us": 172516844,
      "is_ai": false,
      "track_id": 0,
      "velocity": 0,
      "is_motor": true,
      "motor_id": 1,
      "accel_val": 2000,
      "base_duration_us": 306122
    },
    {
      "id": "M_789",
      "pitch": 72,
      "t_note_us": 172652807,
      "t_trigger_us": 172516844,
      "is_ai": false,
      "track_id": 0,
      "velocity": 0,
      "is_motor": true,
      "motor_id": 0,
      "accel_val": 2000,
      "base_duration_us": 1224488
    },
    {
      "id": "M_790",
      "pitch": 68,
      "t_note_us": 172652807,
      "t_trigger_us": 172516844,
      "is_ai": false,
      "track_id": 0,
      "velocity": 0,
      "is_motor": true,
      "motor_id": 2,
      "accel_val": 2000,
      "base_duration_us": 1224488
    },
    {
      "id": "M_786",
      "pitch": 63,
      "t_note_us": 172958929,
      "t_trigger_us": 172822966,
      "is_ai": false,
      "track_id": 0,
      "velocity": 0,
      "is_motor": true,
      "motor_id": 1,
      "accel_val": 2000,
      "base_duration_us": 306122
    },
    {
      "id": "M_787",
      "pitch": 63,
      "t_note_us": 173265051,
      "t_trigger_us": 173129088,
      "is_ai": false,
      "track_id": 0,
      "velocity": 0,
      "is_motor": true,
      "motor_id": 1,
      "accel_val": 2000,
      "base_duration_us": 306122
    },
    {
      "id": "M_788",
      "pitch": 63,
      "t_note_us": 173571173,
      "t_trigger_us": 173435210,
      "is_ai": false,
      "track_id": 0,
      "velocity": 0,
      "is_motor": true,
      "motor_id": 1,
      "accel_val": 2000,
      "base_duration_us": 306122
    },
    {
      "id": "M_793",
      "pitch": 91,
      "t_note_us": 173877295,
      "t_trigger_us": 173741332,
      "is_ai": true,
      "track_id": 7,
      "velocity": 0,
      "is_motor": false,
      "motor_id": 0,
      "accel_val": 2000,
      "base_duration_us": 306122
    },
    {
      "id": "M_791",
      "pitch": 63,
      "t_note_us": 173877295,
      "t_trigger_us": 173741332,
      "is_ai": false,
      "track_id": 0,
      "velocity": 0,
      "is_motor": true,
      "motor_id": 1,
      "accel_val": 2000,
      "base_duration_us": 306122
    },
    {
      "id": "M_792",
      "pitch": 70,
      "t_note_us": 173877295,
      "t_trigger_us": 173741332,
      "is_ai": false,
      "track_id": 0,
      "velocity": 0,
      "is_motor": true,
      "motor_id": 2,
      "accel_val": 2000,
      "base_duration_us": 306122
    },
    {
      "id": "M_796",
      "pitch": 89,
      "t_note_us": 174183417,
      "t_trigger_us": 174047454,
      "is_ai": true,
      "track_id": 6,
      "velocity": 0,
      "is_motor": false,
      "motor_id": 0,
      "accel_val": 2000,
      "base_duration_us": 306122
    },
    {
      "id": "M_794",
      "pitch": 63,
      "t_note_us": 174183417,
      "t_trigger_us": 174047454,
      "is_ai": false,
      "track_id": 0,
      "velocity": 0,
      "is_motor": true,
      "motor_id": 1,
      "accel_val": 2000,
      "base_duration_us": 306122
    },
    {
      "id": "M_795",
      "pitch": 68,
      "t_note_us": 174183417,
      "t_trigger_us": 174047454,
      "is_ai": false,
      "track_id": 0,
      "velocity": 0,
      "is_motor": true,
      "motor_id": 2,
      "accel_val": 2000,
      "base_duration_us": 306122
    },
    {
      "id": "M_797",
      "pitch": 63,
      "t_note_us": 174489539,
      "t_trigger_us": 174353576,
      "is_ai": false,
      "track_id": 0,
      "velocity": 0,
      "is_motor": true,
      "motor_id": 1,
      "accel_val": 2000,
      "base_duration_us": 306122
    },
    {
      "id": "M_801",
      "pitch": 67,
      "t_note_us": 174489539,
      "t_trigger_us": 174353576,
      "is_ai": false,
      "track_id": 0,
      "velocity": 0,
      "is_motor": true,
      "motor_id": 2,
      "accel_val": 2000,
      "base_duration_us": 1224488
    },
    {
      "id": "M_802",
      "pitch": 70,
      "t_note_us": 174489539,
      "t_trigger_us": 174353576,
      "is_ai": false,
      "track_id": 0,
      "velocity": 0,
      "is_motor": true,
      "motor_id": 0,
      "accel_val": 2000,
      "base_duration_us": 1224488
    },
    {
      "id": "M_803",
      "pitch": 75,
      "t_note_us": 174489539,
      "t_trigger_us": 174353576,
      "is_ai": false,
      "track_id": 0,
      "velocity": 0,
      "is_motor": true,
      "motor_id": 3,
      "accel_val": 2000,
      "base_duration_us": 1224488
    },
    {
      "id": "M_798",
      "pitch": 63,
      "t_note_us": 174795661,
      "t_trigger_us": 174659698,
      "is_ai": false,
      "track_id": 0,
      "velocity": 0,
      "is_motor": true,
      "motor_id": 1,
      "accel_val": 2000,
      "base_duration_us": 306122
    },
    {
      "id": "M_799",
      "pitch": 63,
      "t_note_us": 175101783,
      "t_trigger_us": 174965820,
      "is_ai": false,
      "track_id": 0,
      "velocity": 0,
      "is_motor": true,
      "motor_id": 1,
      "accel_val": 2000,
      "base_duration_us": 306122
    },
    {
      "id": "M_800",
      "pitch": 63,
      "t_note_us": 175407905,
      "t_trigger_us": 175271942,
      "is_ai": false,
      "track_id": 0,
      "velocity": 0,
      "is_motor": true,
      "motor_id": 1,
      "accel_val": 2000,
      "base_duration_us": 306122
    },
    {
      "id": "M_808",
      "pitch": 86,
      "t_note_us": 175714027,
      "t_trigger_us": 175578064,
      "is_ai": true,
      "track_id": 4,
      "velocity": 0,
      "is_motor": false,
      "motor_id": 0,
      "accel_val": 2000,
      "base_duration_us": 612244
    },
    {
      "id": "M_804",
      "pitch": 63,
      "t_note_us": 175714027,
      "t_trigger_us": 175578064,
      "is_ai": false,
      "track_id": 0,
      "velocity": 0,
      "is_motor": true,
      "motor_id": 1,
      "accel_val": 2000,
      "base_duration_us": 306122
    },
    {
      "id": "M_806",
      "pitch": 70,
      "t_note_us": 175714027,
      "t_trigger_us": 175578064,
      "is_ai": false,
      "track_id": 0,
      "velocity": 0,
      "is_motor": true,
      "motor_id": 2,
      "accel_val": 2000,
      "base_duration_us": 612244
    },
    {
      "id": "M_807",
      "pitch": 67,
      "t_note_us": 175714027,
      "t_trigger_us": 175578064,
      "is_ai": false,
      "track_id": 0,
      "velocity": 0,
      "is_motor": true,
      "motor_id": 0,
      "accel_val": 2000,
      "base_duration_us": 612244
    },
    {
      "id": "M_805",
      "pitch": 63,
      "t_note_us": 176020149,
      "t_trigger_us": 175884186,
      "is_ai": false,
      "track_id": 0,
      "velocity": 0,
      "is_motor": true,
      "motor_id": 1,
      "accel_val": 2000,
      "base_duration_us": 306122
    },
    {
      "id": "M_809",
      "pitch": 64,
      "t_note_us": 176326271,
      "t_trigger_us": 176190308,
      "is_ai": false,
      "track_id": 0,
      "velocity": 0,
      "is_motor": true,
      "motor_id": 1,
      "accel_val": 2000,
      "base_duration_us": 306122
    },
    {
      "id": "M_813",
      "pitch": 70,
      "t_note_us": 176326271,
      "t_trigger_us": 176190308,
      "is_ai": false,
      "track_id": 0,
      "velocity": 0,
      "is_motor": true,
      "motor_id": 2,
      "accel_val": 2000,
      "base_duration_us": 1224488
    },
    {
      "id": "M_814",
      "pitch": 67,
      "t_note_us": 176326271,
      "t_trigger_us": 176190308,
      "is_ai": false,
      "track_id": 0,
      "velocity": 0,
      "is_motor": true,
      "motor_id": 0,
      "accel_val": 2000,
      "base_duration_us": 1224488
    },
    {
      "id": "M_815",
      "pitch": 73,
      "t_note_us": 176326271,
      "t_trigger_us": 176190308,
      "is_ai": false,
      "track_id": 0,
      "velocity": 0,
      "is_motor": true,
      "motor_id": 3,
      "accel_val": 2000,
      "base_duration_us": 1224488
    },
    {
      "id": "M_810",
      "pitch": 64,
      "t_note_us": 176632393,
      "t_trigger_us": 176496430,
      "is_ai": false,
      "track_id": 0,
      "velocity": 0,
      "is_motor": true,
      "motor_id": 1,
      "accel_val": 2000,
      "base_duration_us": 306122
    },
    {
      "id": "M_811",
      "pitch": 64,
      "t_note_us": 176938515,
      "t_trigger_us": 176802552,
      "is_ai": false,
      "track_id": 0,
      "velocity": 0,
      "is_motor": true,
      "motor_id": 1,
      "accel_val": 2000,
      "base_duration_us": 306122
    },
    {
      "id": "M_812",
      "pitch": 64,
      "t_note_us": 177244637,
      "t_trigger_us": 177108674,
      "is_ai": false,
      "track_id": 0,
      "velocity": 0,
      "is_motor": true,
      "motor_id": 1,
      "accel_val": 2000,
      "base_duration_us": 306122
    },
    {
      "id": "M_816",
      "pitch": 64,
      "t_note_us": 177550759,
      "t_trigger_us": 177414796,
      "is_ai": false,
      "track_id": 0,
      "velocity": 0,
      "is_motor": true,
      "motor_id": 1,
      "accel_val": 2000,
      "base_duration_us": 306122
    },
    {
      "id": "M_818",
      "pitch": 70,
      "t_note_us": 177550759,
      "t_trigger_us": 177414796,
      "is_ai": false,
      "track_id": 0,
      "velocity": 0,
      "is_motor": true,
      "motor_id": 2,
      "accel_val": 2000,
      "base_duration_us": 612244
    },
    {
      "id": "M_819",
      "pitch": 67,
      "t_note_us": 177550759,
      "t_trigger_us": 177414796,
      "is_ai": false,
      "track_id": 0,
      "velocity": 0,
      "is_motor": true,
      "motor_id": 0,
      "accel_val": 2000,
      "base_duration_us": 612244
    },
    {
      "id": "M_820",
      "pitch": 73,
      "t_note_us": 177550759,
      "t_trigger_us": 177414796,
      "is_ai": false,
      "track_id": 0,
      "velocity": 0,
      "is_motor": true,
      "motor_id": 3,
      "accel_val": 2000,
      "base_duration_us": 612244
    },
    {
      "id": "M_817",
      "pitch": 64,
      "t_note_us": 177856881,
      "t_trigger_us": 177720918,
      "is_ai": false,
      "track_id": 0,
      "velocity": 0,
      "is_motor": true,
      "motor_id": 1,
      "accel_val": 2000,
      "base_duration_us": 306122
    },
    {
      "id": "M_821",
      "pitch": 65,
      "t_note_us": 178163003,
      "t_trigger_us": 178027040,
      "is_ai": false,
      "track_id": 0,
      "velocity": 0,
      "is_motor": true,
      "motor_id": 1,
      "accel_val": 2000,
      "base_duration_us": 1224489
    },
    {
      "id": "M_822",
      "pitch": 69,
      "t_note_us": 178163003,
      "t_trigger_us": 178027040,
      "is_ai": false,
      "track_id": 0,
      "velocity": 0,
      "is_motor": true,
      "motor_id": 2,
      "accel_val": 2000,
      "base_duration_us": 1224489
    },
    {
      "id": "M_823",
      "pitch": 77,
      "t_note_us": 178163003,
      "t_trigger_us": 178027040,
      "is_ai": false,
      "track_id": 0,
      "velocity": 0,
      "is_motor": true,
      "motor_id": 3,
      "accel_val": 2000,
      "base_duration_us": 1224489
    },
    {
      "id": "M_824",
      "pitch": 74,
      "t_note_us": 178163003,
      "t_trigger_us": 178027040,
      "is_ai": false,
      "track_id": 0,
      "velocity": 0,
      "is_motor": true,
      "motor_id": 0,
      "accel_val": 2000,
      "base_duration_us": 1224489
    },
    {
      "id": "M_828",
      "pitch": 88,
      "t_note_us": 179999736,
      "t_trigger_us": 179863773,
      "is_ai": true,
      "track_id": 5,
      "velocity": 0,
      "is_motor": false,
      "motor_id": 0,
      "accel_val": 2000,
      "base_duration_us": 612244
    },
    {
      "id": "M_825",
      "pitch": 69,
      "t_note_us": 179999736,
      "t_trigger_us": 179863773,
      "is_ai": false,
      "track_id": 0,
      "velocity": 0,
      "is_motor": true,
      "motor_id": 1,
      "accel_val": 2000,
      "base_duration_us": 612244
    },
    {
      "id": "M_826",
      "pitch": 73,
      "t_note_us": 179999736,
      "t_trigger_us": 179863773,
      "is_ai": false,
      "track_id": 0,
      "velocity": 0,
      "is_motor": true,
      "motor_id": 0,
      "accel_val": 2000,
      "base_duration_us": 612244
    },
    {
      "id": "M_827",
      "pitch": 69,
      "t_note_us": 179999736,
      "t_trigger_us": 179863773,
      "is_ai": false,
      "track_id": 0,
      "velocity": 0,
      "is_motor": true,
      "motor_id": 2,
      "accel_val": 2000,
      "base_duration_us": 612244
    },
    {
      "id": "M_829",
      "pitch": 74,
      "t_note_us": 181836469,
      "t_trigger_us": 181700506,
      "is_ai": false,
      "track_id": 0,
      "velocity": 0,
      "is_motor": true,
      "motor_id": 1,
      "accel_val": 2000,
      "base_duration_us": 306121
    },
    {
      "id": "M_831",
      "pitch": 50,
      "t_note_us": 181836469,
      "t_trigger_us": 181700506,
      "is_ai": false,
      "track_id": 0,
      "velocity": 0,
      "is_motor": true,
      "motor_id": 0,
      "accel_val": 2000,
      "base_duration_us": 615430
    },
    {
      "id": "M_830",
      "pitch": 77,
      "t_note_us": 182040550,
      "t_trigger_us": 181904587,
      "is_ai": false,
      "track_id": 0,
      "velocity": 0,
      "is_motor": true,
      "motor_id": 2,
      "accel_val": 2000,
      "base_duration_us": 309309
    },
    {
      "id": "M_832",
      "pitch": 69,
      "t_note_us": 182244630,
      "t_trigger_us": 182108667,
      "is_ai": false,
      "track_id": 0,
      "velocity": 0,
      "is_motor": true,
      "motor_id": 1,
      "accel_val": 2000,
      "base_duration_us": 309309
    },
    {
      "id": "M_833",
      "pitch": 86,
      "t_note_us": 182451899,
      "t_trigger_us": 182315936,
      "is_ai": true,
      "track_id": 4,
      "velocity": 0,
      "is_motor": false,
      "motor_id": 0,
      "accel_val": 2000,
      "base_duration_us": 309309
    },
    {
      "id": "M_834",
      "pitch": 89,
      "t_note_us": 182659168,
      "t_trigger_us": 182523205,
      "is_ai": true,
      "track_id": 6,
      "velocity": 0,
      "is_motor": false,
      "motor_id": 0,
      "accel_val": 2000,
      "base_duration_us": 309309
    },
    {
      "id": "M_835",
      "pitch": 93,
      "t_note_us": 182863248,
      "t_trigger_us": 182727285,
      "is_ai": true,
      "track_id": 8,
      "velocity": 0,
      "is_motor": false,
      "motor_id": 0,
      "accel_val": 2000,
      "base_duration_us": 309309
    },
    {
      "id": "M_836",
      "pitch": 91,
      "t_note_us": 183070517,
      "t_trigger_us": 182934554,
      "is_ai": true,
      "track_id": 7,
      "velocity": 0,
      "is_motor": false,
      "motor_id": 0,
      "accel_val": 2000,
      "base_duration_us": 309309
    },
    {
      "id": "M_838",
      "pitch": 69,
      "t_note_us": 183070517,
      "t_trigger_us": 182934554,
      "is_ai": false,
      "track_id": 0,
      "velocity": 0,
      "is_motor": true,
      "motor_id": 1,
      "accel_val": 2000,
      "base_duration_us": 618618
    },
    {
      "id": "M_839",
      "pitch": 77,
      "t_note_us": 183070517,
      "t_trigger_us": 182934554,
      "is_ai": false,
      "track_id": 0,
      "velocity": 0,
      "is_motor": true,
      "motor_id": 2,
      "accel_val": 2000,
      "base_duration_us": 618618
    },
    {
      "id": "M_840",
      "pitch": 74,
      "t_note_us": 183070517,
      "t_trigger_us": 182934554,
      "is_ai": false,
      "track_id": 0,
      "velocity": 0,
      "is_motor": true,
      "motor_id": 0,
      "accel_val": 2000,
      "base_duration_us": 618618
    },
    {
      "id": "M_837",
      "pitch": 89,
      "t_note_us": 183277786,
      "t_trigger_us": 183141823,
      "is_ai": true,
      "track_id": 6,
      "velocity": 0,
      "is_motor": false,
      "motor_id": 0,
      "accel_val": 2000,
      "base_duration_us": 309309
    },
    {
      "id": "M_841",
      "pitch": 88,
      "t_note_us": 183481866,
      "t_trigger_us": 183345903,
      "is_ai": true,
      "track_id": 5,
      "velocity": 0,
      "is_motor": false,
      "motor_id": 0,
      "accel_val": 2000,
      "base_duration_us": 309309
    },
    {
      "id": "M_842",
      "pitch": 86,
      "t_note_us": 183689135,
      "t_trigger_us": 183553172,
      "is_ai": true,
      "track_id": 4,
      "velocity": 0,
      "is_motor": false,
      "motor_id": 0,
      "accel_val": 2000,
      "base_duration_us": 309309
    },
    {
      "id": "M_844",
      "pitch": 69,
      "t_note_us": 183689135,
      "t_trigger_us": 183553172,
      "is_ai": false,
      "track_id": 0,
      "velocity": 0,
      "is_motor": true,
      "motor_id": 1,
      "accel_val": 2000,
      "base_duration_us": 618618
    },
    {
      "id": "M_845",
      "pitch": 77,
      "t_note_us": 183689135,
      "t_trigger_us": 183553172,
      "is_ai": false,
      "track_id": 0,
      "velocity": 0,
      "is_motor": true,
      "motor_id": 2,
      "accel_val": 2000,
      "base_duration_us": 618618
    },
    {
      "id": "M_846",
      "pitch": 74,
      "t_note_us": 183689135,
      "t_trigger_us": 183553172,
      "is_ai": false,
      "track_id": 0,
      "velocity": 0,
      "is_motor": true,
      "motor_id": 0,
      "accel_val": 2000,
      "base_duration_us": 618618
    },
    {
      "id": "M_843",
      "pitch": 89,
      "t_note_us": 183896404,
      "t_trigger_us": 183760441,
      "is_ai": true,
      "track_id": 6,
      "velocity": 0,
      "is_motor": false,
      "motor_id": 0,
      "accel_val": 2000,
      "base_duration_us": 309309
    },
    {
      "id": "M_847",
      "pitch": 93,
      "t_note_us": 184100484,
      "t_trigger_us": 183964521,
      "is_ai": true,
      "track_id": 8,
      "velocity": 0,
      "is_motor": false,
      "motor_id": 0,
      "accel_val": 2000,
      "base_duration_us": 309309
    },
    {
      "id": "M_848",
      "pitch": 98,
      "t_note_us": 184307753,
      "t_trigger_us": 184171790,
      "is_ai": true,
      "track_id": 11,
      "velocity": 0,
      "is_motor": false,
      "motor_id": 0,
      "accel_val": 2000,
      "base_duration_us": 309309
    },
    {
      "id": "M_849",
      "pitch": 101,
      "t_note_us": 184515022,
      "t_trigger_us": 184379059,
      "is_ai": true,
      "track_id": 13,
      "velocity": 0,
      "is_motor": false,
      "motor_id": 0,
      "accel_val": 2000,
      "base_duration_us": 309309
    },
    {
      "id": "M_850",
      "pitch": 93,
      "t_note_us": 184719102,
      "t_trigger_us": 184583139,
      "is_ai": true,
      "track_id": 8,
      "velocity": 0,
      "is_motor": false,
      "motor_id": 0,
      "accel_val": 2000,
      "base_duration_us": 309309
    },
    {
      "id": "M_851",
      "pitch": 103,
      "t_note_us": 184926371,
      "t_trigger_us": 184790408,
      "is_ai": true,
      "track_id": 14,
      "velocity": 0,
      "is_motor": false,
      "motor_id": 0,
      "accel_val": 2000,
      "base_duration_us": 309309
    },
    {
      "id": "M_853",
      "pitch": 69,
      "t_note_us": 184926371,
      "t_trigger_us": 184790408,
      "is_ai": false,
      "track_id": 0,
      "velocity": 0,
      "is_motor": true,
      "motor_id": 1,
      "accel_val": 2000,
      "base_duration_us": 618618
    },
    {
      "id": "M_854",
      "pitch": 77,
      "t_note_us": 184926371,
      "t_trigger_us": 184790408,
      "is_ai": false,
      "track_id": 0,
      "velocity": 0,
      "is_motor": true,
      "motor_id": 2,
      "accel_val": 2000,
      "base_duration_us": 618618
    },
    {
      "id": "M_855",
      "pitch": 74,
      "t_note_us": 184926371,
      "t_trigger_us": 184790408,
      "is_ai": false,
      "track_id": 0,
      "velocity": 0,
      "is_motor": true,
      "motor_id": 0,
      "accel_val": 2000,
      "base_duration_us": 618618
    },
    {
      "id": "M_852",
      "pitch": 101,
      "t_note_us": 185133640,
      "t_trigger_us": 184997677,
      "is_ai": true,
      "track_id": 13,
      "velocity": 0,
      "is_motor": false,
      "motor_id": 0,
      "accel_val": 2000,
      "base_duration_us": 309309
    },
    {
      "id": "M_856",
      "pitch": 100,
      "t_note_us": 185337720,
      "t_trigger_us": 185201757,
      "is_ai": true,
      "track_id": 12,
      "velocity": 0,
      "is_motor": false,
      "motor_id": 0,
      "accel_val": 2000,
      "base_duration_us": 309309
    },
    {
      "id": "M_857",
      "pitch": 98,
      "t_note_us": 185544989,
      "t_trigger_us": 185409026,
      "is_ai": true,
      "track_id": 11,
      "velocity": 0,
      "is_motor": false,
      "motor_id": 0,
      "accel_val": 2000,
      "base_duration_us": 309309
    },
    {
      "id": "M_859",
      "pitch": 69,
      "t_note_us": 185544989,
      "t_trigger_us": 185409026,
      "is_ai": false,
      "track_id": 0,
      "velocity": 0,
      "is_motor": true,
      "motor_id": 1,
      "accel_val": 2000,
      "base_duration_us": 618618
    },
    {
      "id": "M_860",
      "pitch": 77,
      "t_note_us": 185544989,
      "t_trigger_us": 185409026,
      "is_ai": false,
      "track_id": 0,
      "velocity": 0,
      "is_motor": true,
      "motor_id": 2,
      "accel_val": 2000,
      "base_duration_us": 618618
    },
    {
      "id": "M_861",
      "pitch": 74,
      "t_note_us": 185544989,
      "t_trigger_us": 185409026,
      "is_ai": false,
      "track_id": 0,
      "velocity": 0,
      "is_motor": true,
      "motor_id": 0,
      "accel_val": 2000,
      "base_duration_us": 618618
    },
    {
      "id": "M_858",
      "pitch": 101,
      "t_note_us": 185752258,
      "t_trigger_us": 185616295,
      "is_ai": true,
      "track_id": 13,
      "velocity": 0,
      "is_motor": false,
      "motor_id": 0,
      "accel_val": 2000,
      "base_duration_us": 309309
    },
    {
      "id": "M_862",
      "pitch": 93,
      "t_note_us": 185956338,
      "t_trigger_us": 185820375,
      "is_ai": true,
      "track_id": 8,
      "velocity": 0,
      "is_motor": false,
      "motor_id": 0,
      "accel_val": 2000,
      "base_duration_us": 309309
    },
    {
      "id": "M_863",
      "pitch": 98,
      "t_note_us": 186163607,
      "t_trigger_us": 186027644,
      "is_ai": true,
      "track_id": 11,
      "velocity": 0,
      "is_motor": false,
      "motor_id": 0,
      "accel_val": 2000,
      "base_duration_us": 309309
    },
    {
      "id": "M_864",
      "pitch": 101,
      "t_note_us": 186370876,
      "t_trigger_us": 186234913,
      "is_ai": true,
      "track_id": 13,
      "velocity": 0,
      "is_motor": false,
      "motor_id": 0,
      "accel_val": 2000,
      "base_duration_us": 309309
    },
    {
      "id": "M_865",
      "pitch": 93,
      "t_note_us": 186574956,
      "t_trigger_us": 186438993,
      "is_ai": true,
      "track_id": 8,
      "velocity": 0,
      "is_motor": false,
      "motor_id": 0,
      "accel_val": 2000,
      "base_duration_us": 309309
    },
    {
      "id": "M_866",
      "pitch": 103,
      "t_note_us": 186782225,
      "t_trigger_us": 186646262,
      "is_ai": true,
      "track_id": 14,
      "velocity": 0,
      "is_motor": false,
      "motor_id": 0,
      "accel_val": 2000,
      "base_duration_us": 309309
    },
    {
      "id": "M_868",
      "pitch": 69,
      "t_note_us": 186782225,
      "t_trigger_us": 186646262,
      "is_ai": false,
      "track_id": 0,
      "velocity": 0,
      "is_motor": true,
      "motor_id": 1,
      "accel_val": 2000,
      "base_duration_us": 618618
    },
    {
      "id": "M_869",
      "pitch": 77,
      "t_note_us": 186782225,
      "t_trigger_us": 186646262,
      "is_ai": false,
      "track_id": 0,
      "velocity": 0,
      "is_motor": true,
      "motor_id": 2,
      "accel_val": 2000,
      "base_duration_us": 618618
    },
    {
      "id": "M_870",
      "pitch": 74,
      "t_note_us": 186782225,
      "t_trigger_us": 186646262,
      "is_ai": false,
      "track_id": 0,
      "velocity": 0,
      "is_motor": true,
      "motor_id": 0,
      "accel_val": 2000,
      "base_duration_us": 618618
    },
    {
      "id": "M_867",
      "pitch": 101,
      "t_note_us": 186989494,
      "t_trigger_us": 186853531,
      "is_ai": true,
      "track_id": 13,
      "velocity": 0,
      "is_motor": false,
      "motor_id": 0,
      "accel_val": 2000,
      "base_duration_us": 309309
    },
    {
      "id": "M_871",
      "pitch": 100,
      "t_note_us": 187193574,
      "t_trigger_us": 187057611,
      "is_ai": true,
      "track_id": 12,
      "velocity": 0,
      "is_motor": false,
      "motor_id": 0,
      "accel_val": 2000,
      "base_duration_us": 309309
    },
    {
      "id": "M_872",
      "pitch": 99,
      "t_note_us": 187400843,
      "t_trigger_us": 187264880,
      "is_ai": true,
      "track_id": 0,
      "velocity": 0,
      "is_motor": true,
      "motor_id": 3,
      "accel_val": 2000,
      "base_duration_us": 309309
    },
    {
      "id": "M_874",
      "pitch": 69,
      "t_note_us": 187400843,
      "t_trigger_us": 187264880,
      "is_ai": false,
      "track_id": 0,
      "velocity": 0,
      "is_motor": true,
      "motor_id": 1,
      "accel_val": 2000,
      "base_duration_us": 618618
    },
    {
      "id": "M_875",
      "pitch": 77,
      "t_note_us": 187400843,
      "t_trigger_us": 187264880,
      "is_ai": false,
      "track_id": 0,
      "velocity": 0,
      "is_motor": true,
      "motor_id": 2,
      "accel_val": 2000,
      "base_duration_us": 618618
    },
    {
      "id": "M_876",
      "pitch": 74,
      "t_note_us": 187400843,
      "t_trigger_us": 187264880,
      "is_ai": false,
      "track_id": 0,
      "velocity": 0,
      "is_motor": true,
      "motor_id": 0,
      "accel_val": 2000,
      "base_duration_us": 618618
    },
    {
      "id": "M_873",
      "pitch": 98,
      "t_note_us": 187608112,
      "t_trigger_us": 187472149,
      "is_ai": true,
      "track_id": 11,
      "velocity": 0,
      "is_motor": false,
      "motor_id": 0,
      "accel_val": 2000,
      "base_duration_us": 309309
    },
    {
      "id": "M_877",
      "pitch": 97,
      "t_note_us": 187812192,
      "t_trigger_us": 187676229,
      "is_ai": true,
      "track_id": 0,
      "velocity": 0,
      "is_motor": true,
      "motor_id": 3,
      "accel_val": 2000,
      "base_duration_us": 309309
    },
    {
      "id": "M_878",
      "pitch": 96,
      "t_note_us": 188019461,
      "t_trigger_us": 187883498,
      "is_ai": true,
      "track_id": 10,
      "velocity": 0,
      "is_motor": false,
      "motor_id": 0,
      "accel_val": 2000,
      "base_duration_us": 309309
    },
    {
      "id": "M_879",
      "pitch": 95,
      "t_note_us": 188226730,
      "t_trigger_us": 188090767,
      "is_ai": true,
      "track_id": 9,
      "velocity": 0,
      "is_motor": false,
      "motor_id": 0,
      "accel_val": 2000,
      "base_duration_us": 309309
    },
    {
      "id": "M_880",
      "pitch": 94,
      "t_note_us": 188430810,
      "t_trigger_us": 188294847,
      "is_ai": true,
      "track_id": 0,
      "velocity": 0,
      "is_motor": true,
      "motor_id": 3,
      "accel_val": 2000,
      "base_duration_us": 309309
    },
    {
      "id": "M_881",
      "pitch": 93,
      "t_note_us": 188638079,
      "t_trigger_us": 188502116,
      "is_ai": true,
      "track_id": 8,
      "velocity": 0,
      "is_motor": false,
      "motor_id": 0,
      "accel_val": 2000,
      "base_duration_us": 309309
    },
    {
      "id": "M_882",
      "pitch": 92,
      "t_note_us": 188845348,
      "t_trigger_us": 188709385,
      "is_ai": true,
      "track_id": 0,
      "velocity": 0,
      "is_motor": true,
      "motor_id": 3,
      "accel_val": 2000,
      "base_duration_us": 309309
    },
    {
      "id": "M_883",
      "pitch": 103,
      "t_note_us": 189049428,
      "t_trigger_us": 188913465,
      "is_ai": true,
      "track_id": 14,
      "velocity": 0,
      "is_motor": false,
      "motor_id": 0,
      "accel_val": 2000,
      "base_duration_us": 309309
    },
    {
      "id": "M_884",
      "pitch": 102,
      "t_note_us": 189256697,
      "t_trigger_us": 189120734,
      "is_ai": true,
      "track_id": 0,
      "velocity": 0,
      "is_motor": true,
      "motor_id": 3,
      "accel_val": 2000,
      "base_duration_us": 309309
    },
    {
      "id": "M_885",
      "pitch": 101,
      "t_note_us": 189463966,
      "t_trigger_us": 189328003,
      "is_ai": true,
      "track_id": 13,
      "velocity": 0,
      "is_motor": false,
      "motor_id": 0,
      "accel_val": 2000,
      "base_duration_us": 309309
    },
    {
      "id": "M_886",
      "pitch": 100,
      "t_note_us": 189668046,
      "t_trigger_us": 189532083,
      "is_ai": true,
      "track_id": 12,
      "velocity": 0,
      "is_motor": false,
      "motor_id": 0,
      "accel_val": 2000,
      "base_duration_us": 309309
    },
    {
      "id": "M_887",
      "pitch": 99,
      "t_note_us": 189875315,
      "t_trigger_us": 189739352,
      "is_ai": true,
      "track_id": 0,
      "velocity": 0,
      "is_motor": true,
      "motor_id": 3,
      "accel_val": 2000,
      "base_duration_us": 309309
    },
    {
      "id": "M_888",
      "pitch": 98,
      "t_note_us": 190082584,
      "t_trigger_us": 189946621,
      "is_ai": true,
      "track_id": 11,
      "velocity": 0,
      "is_motor": false,
      "motor_id": 0,
      "accel_val": 2000,
      "base_duration_us": 309309
    },
    {
      "id": "M_889",
      "pitch": 97,
      "t_note_us": 190286664,
      "t_trigger_us": 190150701,
      "is_ai": true,
      "track_id": 0,
      "velocity": 0,
      "is_motor": true,
      "motor_id": 3,
      "accel_val": 2000,
      "base_duration_us": 309309
    },
    {
      "id": "M_890",
      "pitch": 96,
      "t_note_us": 190493933,
      "t_trigger_us": 190357970,
      "is_ai": true,
      "track_id": 10,
      "velocity": 0,
      "is_motor": false,
      "motor_id": 0,
      "accel_val": 2000,
      "base_duration_us": 309309
    },
    {
      "id": "M_891",
      "pitch": 95,
      "t_note_us": 190701202,
      "t_trigger_us": 190565239,
      "is_ai": true,
      "track_id": 9,
      "velocity": 0,
      "is_motor": false,
      "motor_id": 0,
      "accel_val": 2000,
      "base_duration_us": 309309
    },
    {
      "id": "M_892",
      "pitch": 94,
      "t_note_us": 190905282,
      "t_trigger_us": 190769319,
      "is_ai": true,
      "track_id": 0,
      "velocity": 0,
      "is_motor": true,
      "motor_id": 3,
      "accel_val": 2000,
      "base_duration_us": 309309
    },
    {
      "id": "M_893",
      "pitch": 93,
      "t_note_us": 191112551,
      "t_trigger_us": 190976588,
      "is_ai": true,
      "track_id": 8,
      "velocity": 0,
      "is_motor": false,
      "motor_id": 0,
      "accel_val": 2000,
      "base_duration_us": 306121
    },
    {
      "id": "M_894",
      "pitch": 92,
      "t_note_us": 191418672,
      "t_trigger_us": 191282709,
      "is_ai": true,
      "track_id": 0,
      "velocity": 0,
      "is_motor": true,
      "motor_id": 3,
      "accel_val": 2000,
      "base_duration_us": 306122
    },
    {
      "id": "M_895",
      "pitch": 93,
      "t_note_us": 191724794,
      "t_trigger_us": 191588831,
      "is_ai": true,
      "track_id": 8,
      "velocity": 0,
      "is_motor": false,
      "motor_id": 0,
      "accel_val": 2000,
      "base_duration_us": 306122
    },
    {
      "id": "M_896",
      "pitch": 88,
      "t_note_us": 192030916,
      "t_trigger_us": 191894953,
      "is_ai": true,
      "track_id": 5,
      "velocity": 0,
      "is_motor": false,
      "motor_id": 0,
      "accel_val": 2000,
      "base_duration_us": 306122
    },
    {
      "id": "M_897",
      "pitch": 91,
      "t_note_us": 192337038,
      "t_trigger_us": 192201075,
      "is_ai": true,
      "track_id": 7,
      "velocity": 0,
      "is_motor": false,
      "motor_id": 0,
      "accel_val": 2000,
      "base_duration_us": 306122
    },
    {
      "id": "M_898",
      "pitch": 89,
      "t_note_us": 192643160,
      "t_trigger_us": 192507197,
      "is_ai": true,
      "track_id": 6,
      "velocity": 0,
      "is_motor": false,
      "motor_id": 0,
      "accel_val": 2000,
      "base_duration_us": 306122
    },
    {
      "id": "M_899",
      "pitch": 62,
      "t_note_us": 192949282,
      "t_trigger_us": 192813319,
      "is_ai": false,
      "track_id": 0,
      "velocity": 0,
      "is_motor": true,
      "motor_id": 1,
      "accel_val": 2000,
      "base_duration_us": 306122
    },
    {
      "id": "M_901",
      "pitch": 74,
      "t_note_us": 192949282,
      "t_trigger_us": 192813319,
      "is_ai": false,
      "track_id": 0,
      "velocity": 0,
      "is_motor": true,
      "motor_id": 0,
      "accel_val": 2000,
      "base_duration_us": 612244
    },
    {
      "id": "M_900",
      "pitch": 69,
      "t_note_us": 193255404,
      "t_trigger_us": 193119441,
      "is_ai": false,
      "track_id": 0,
      "velocity": 0,
      "is_motor": true,
      "motor_id": 1,
      "accel_val": 2000,
      "base_duration_us": 306122
    },
    {
      "id": "M_902",
      "pitch": 74,
      "t_note_us": 193561526,
      "t_trigger_us": 193425563,
      "is_ai": false,
      "track_id": 0,
      "velocity": 0,
      "is_motor": true,
      "motor_id": 1,
      "accel_val": 2000,
      "base_duration_us": 306122
    },
    {
      "id": "M_903",
      "pitch": 77,
      "t_note_us": 193867648,
      "t_trigger_us": 193731685,
      "is_ai": false,
      "track_id": 0,
      "velocity": 0,
      "is_motor": true,
      "motor_id": 2,
      "accel_val": 2000,
      "base_duration_us": 306122
    },
    {
      "id": "M_904",
      "pitch": 69,
      "t_note_us": 194173770,
      "t_trigger_us": 194037807,
      "is_ai": false,
      "track_id": 0,
      "velocity": 0,
      "is_motor": true,
      "motor_id": 1,
      "accel_val": 2000,
      "base_duration_us": 306122
    },
    {
      "id": "M_905",
      "pitch": 86,
      "t_note_us": 194479892,
      "t_trigger_us": 194343929,
      "is_ai": true,
      "track_id": 4,
      "velocity": 0,
      "is_motor": false,
      "motor_id": 0,
      "accel_val": 2000,
      "base_duration_us": 306122
    },
    {
      "id": "M_908",
      "pitch": 88,
      "t_note_us": 194786014,
      "t_trigger_us": 194650051,
      "is_ai": true,
      "track_id": 5,
      "velocity": 0,
      "is_motor": false,
      "motor_id": 0,
      "accel_val": 2000,
      "base_duration_us": 612244
    },
    {
      "id": "M_906",
      "pitch": 57,
      "t_note_us": 194786014,
      "t_trigger_us": 194650051,
      "is_ai": false,
      "track_id": 0,
      "velocity": 0,
      "is_motor": true,
      "motor_id": 0,
      "accel_val": 2000,
      "base_duration_us": 306122
    },
    {
      "id": "M_907",
      "pitch": 69,
      "t_note_us": 195092136,
      "t_trigger_us": 194956173,
      "is_ai": false,
      "track_id": 0,
      "velocity": 0,
      "is_motor": true,
      "motor_id": 1,
      "accel_val": 2000,
      "base_duration_us": 306122
    },
    {
      "id": "M_909",
      "pitch": 73,
      "t_note_us": 195398258,
      "t_trigger_us": 195262295,
      "is_ai": false,
      "track_id": 0,
      "velocity": 0,
      "is_motor": true,
      "motor_id": 1,
      "accel_val": 2000,
      "base_duration_us": 306122
    },
    {
      "id": "M_910",
      "pitch": 69,
      "t_note_us": 195704380,
      "t_trigger_us": 195568417,
      "is_ai": false,
      "track_id": 0,
      "velocity": 0,
      "is_motor": true,
      "motor_id": 1,
      "accel_val": 2000,
      "base_duration_us": 306122
    },
    {
      "id": "M_911",
      "pitch": 85,
      "t_note_us": 196010502,
      "t_trigger_us": 195874539,
      "is_ai": true,
      "track_id": 0,
      "velocity": 0,
      "is_motor": true,
      "motor_id": 3,
      "accel_val": 2000,
      "base_duration_us": 306122
    },
    {
      "id": "M_912",
      "pitch": 88,
      "t_note_us": 196316624,
      "t_trigger_us": 196180661,
      "is_ai": true,
      "track_id": 5,
      "velocity": 0,
      "is_motor": false,
      "motor_id": 0,
      "accel_val": 2000,
      "base_duration_us": 306122
    },
    {
      "id": "M_915",
      "pitch": 89,
      "t_note_us": 196622746,
      "t_trigger_us": 196486783,
      "is_ai": true,
      "track_id": 6,
      "velocity": 0,
      "is_motor": false,
      "motor_id": 0,
      "accel_val": 2000,
      "base_duration_us": 612244
    },
    {
      "id": "M_913",
      "pitch": 62,
      "t_note_us": 196622746,
      "t_trigger_us": 196486783,
      "is_ai": false,
      "track_id": 0,
      "velocity": 0,
      "is_motor": true,
      "motor_id": 1,
      "accel_val": 2000,
      "base_duration_us": 306122
    },
    {
      "id": "M_914",
      "pitch": 69,
      "t_note_us": 196928868,
      "t_trigger_us": 196792905,
      "is_ai": false,
      "track_id": 0,
      "velocity": 0,
      "is_motor": true,
      "motor_id": 1,
      "accel_val": 2000,
      "base_duration_us": 306122
    },
    {
      "id": "M_916",
      "pitch": 74,
      "t_note_us": 197234990,
      "t_trigger_us": 197099027,
      "is_ai": false,
      "track_id": 0,
      "velocity": 0,
      "is_motor": true,
      "motor_id": 1,
      "accel_val": 2000,
      "base_duration_us": 306122
    },
    {
      "id": "M_917",
      "pitch": 69,
      "t_note_us": 197541112,
      "t_trigger_us": 197405149,
      "is_ai": false,
      "track_id": 0,
      "velocity": 0,
      "is_motor": true,
      "motor_id": 1,
      "accel_val": 2000,
      "base_duration_us": 306122
    },
    {
      "id": "M_918",
      "pitch": 93,
      "t_note_us": 197847234,
      "t_trigger_us": 197711271,
      "is_ai": true,
      "track_id": 8,
      "velocity": 0,
      "is_motor": false,
      "motor_id": 0,
      "accel_val": 2000,
      "base_duration_us": 306122
    },
    {
      "id": "M_919",
      "pitch": 92,
      "t_note_us": 198153356,
      "t_trigger_us": 198017393,
      "is_ai": true,
      "track_id": 0,
      "velocity": 0,
      "is_motor": true,
      "motor_id": 3,
      "accel_val": 2000,
      "base_duration_us": 306122
    },
    {
      "id": "M_920",
      "pitch": 93,
      "t_note_us": 198459478,
      "t_trigger_us": 198323515,
      "is_ai": true,
      "track_id": 8,
      "velocity": 0,
      "is_motor": false,
      "motor_id": 0,
      "accel_val": 2000,
      "base_duration_us": 306122
    },
    {
      "id": "M_921",
      "pitch": 92,
      "t_note_us": 198765600,
      "t_trigger_us": 198629637,
      "is_ai": true,
      "track_id": 0,
      "velocity": 0,
      "is_motor": true,
      "motor_id": 3,
      "accel_val": 2000,
      "base_duration_us": 306122
    },
    {
      "id": "M_922",
      "pitch": 93,
      "t_note_us": 199071722,
      "t_trigger_us": 198935759,
      "is_ai": true,
      "track_id": 8,
      "velocity": 0,
      "is_motor": false,
      "motor_id": 0,
      "accel_val": 2000,
      "base_duration_us": 306122
    },
    {
      "id": "M_923",
      "pitch": 88,
      "t_note_us": 199377844,
      "t_trigger_us": 199241881,
      "is_ai": true,
      "track_id": 5,
      "velocity": 0,
      "is_motor": false,
      "motor_id": 0,
      "accel_val": 2000,
      "base_duration_us": 306122
    },
    {
      "id": "M_924",
      "pitch": 91,
      "t_note_us": 199683966,
      "t_trigger_us": 199548003,
      "is_ai": true,
      "track_id": 7,
      "velocity": 0,
      "is_motor": false,
      "motor_id": 0,
      "accel_val": 2000,
      "base_duration_us": 306122
    },
    {
      "id": "M_925",
      "pitch": 89,
      "t_note_us": 199990088,
      "t_trigger_us": 199854125,
      "is_ai": true,
      "track_id": 6,
      "velocity": 0,
      "is_motor": false,
      "motor_id": 0,
      "accel_val": 2000,
      "base_duration_us": 306122
    },
    {
      "id": "M_926",
      "pitch": 62,
      "t_note_us": 200296210,
      "t_trigger_us": 200160247,
      "is_ai": false,
      "track_id": 0,
      "velocity": 0,
      "is_motor": true,
      "motor_id": 1,
      "accel_val": 2000,
      "base_duration_us": 306122
    },
    {
      "id": "M_928",
      "pitch": 74,
      "t_note_us": 200296210,
      "t_trigger_us": 200160247,
      "is_ai": false,
      "track_id": 0,
      "velocity": 0,
      "is_motor": true,
      "motor_id": 0,
      "accel_val": 2000,
      "base_duration_us": 612244
    },
    {
      "id": "M_927",
      "pitch": 69,
      "t_note_us": 200602332,
      "t_trigger_us": 200466369,
      "is_ai": false,
      "track_id": 0,
      "velocity": 0,
      "is_motor": true,
      "motor_id": 1,
      "accel_val": 2000,
      "base_duration_us": 306122
    },
    {
      "id": "M_929",
      "pitch": 74,
      "t_note_us": 200908454,
      "t_trigger_us": 200772491,
      "is_ai": false,
      "track_id": 0,
      "velocity": 0,
      "is_motor": true,
      "motor_id": 1,
      "accel_val": 2000,
      "base_duration_us": 306122
    },
    {
      "id": "M_930",
      "pitch": 77,
      "t_note_us": 201214576,
      "t_trigger_us": 201078613,
      "is_ai": false,
      "track_id": 0,
      "velocity": 0,
      "is_motor": true,
      "motor_id": 2,
      "accel_val": 2000,
      "base_duration_us": 306122
    },
    {
      "id": "M_931",
      "pitch": 69,
      "t_note_us": 201520698,
      "t_trigger_us": 201384735,
      "is_ai": false,
      "track_id": 0,
      "velocity": 0,
      "is_motor": true,
      "motor_id": 1,
      "accel_val": 2000,
      "base_duration_us": 306122
    },
    {
      "id": "M_932",
      "pitch": 86,
      "t_note_us": 201826820,
      "t_trigger_us": 201690857,
      "is_ai": true,
      "track_id": 4,
      "velocity": 0,
      "is_motor": false,
      "motor_id": 0,
      "accel_val": 2000,
      "base_duration_us": 306122
    },
    {
      "id": "M_935",
      "pitch": 88,
      "t_note_us": 202132942,
      "t_trigger_us": 201996979,
      "is_ai": true,
      "track_id": 5,
      "velocity": 0,
      "is_motor": false,
      "motor_id": 0,
      "accel_val": 2000,
      "base_duration_us": 612244
    },
    {
      "id": "M_933",
      "pitch": 57,
      "t_note_us": 202132942,
      "t_trigger_us": 201996979,
      "is_ai": false,
      "track_id": 0,
      "velocity": 0,
      "is_motor": true,
      "motor_id": 0,
      "accel_val": 2000,
      "base_duration_us": 306122
    },
    {
      "id": "M_934",
      "pitch": 69,
      "t_note_us": 202439064,
      "t_trigger_us": 202303101,
      "is_ai": false,
      "track_id": 0,
      "velocity": 0,
      "is_motor": true,
      "motor_id": 1,
      "accel_val": 2000,
      "base_duration_us": 306122
    },
    {
      "id": "M_936",
      "pitch": 73,
      "t_note_us": 202745186,
      "t_trigger_us": 202609223,
      "is_ai": false,
      "track_id": 0,
      "velocity": 0,
      "is_motor": true,
      "motor_id": 1,
      "accel_val": 2000,
      "base_duration_us": 306122
    },
    {
      "id": "M_937",
      "pitch": 69,
      "t_note_us": 203051308,
      "t_trigger_us": 202915345,
      "is_ai": false,
      "track_id": 0,
      "velocity": 0,
      "is_motor": true,
      "motor_id": 1,
      "accel_val": 2000,
      "base_duration_us": 306122
    },
    {
      "id": "M_938",
      "pitch": 89,
      "t_note_us": 203357430,
      "t_trigger_us": 203221467,
      "is_ai": true,
      "track_id": 6,
      "velocity": 0,
      "is_motor": false,
      "motor_id": 0,
      "accel_val": 2000,
      "base_duration_us": 306122
    },
    {
      "id": "M_939",
      "pitch": 88,
      "t_note_us": 203663552,
      "t_trigger_us": 203527589,
      "is_ai": true,
      "track_id": 5,
      "velocity": 0,
      "is_motor": false,
      "motor_id": 0,
      "accel_val": 2000,
      "base_duration_us": 306122
    },
    {
      "id": "M_942",
      "pitch": 86,
      "t_note_us": 203969674,
      "t_trigger_us": 203833711,
      "is_ai": true,
      "track_id": 4,
      "velocity": 0,
      "is_motor": false,
      "motor_id": 0,
      "accel_val": 2000,
      "base_duration_us": 612244
    },
    {
      "id": "M_940",
      "pitch": 62,
      "t_note_us": 203969674,
      "t_trigger_us": 203833711,
      "is_ai": false,
      "track_id": 0,
      "velocity": 0,
      "is_motor": true,
      "motor_id": 1,
      "accel_val": 2000,
      "base_duration_us": 306122
    },
    {
      "id": "M_941",
      "pitch": 69,
      "t_note_us": 204275796,
      "t_trigger_us": 204139833,
      "is_ai": false,
      "track_id": 0,
      "velocity": 0,
      "is_motor": true,
      "motor_id": 1,
      "accel_val": 2000,
      "base_duration_us": 306122
    },
    {
      "id": "M_943",
      "pitch": 74,
      "t_note_us": 204581918,
      "t_trigger_us": 204445955,
      "is_ai": false,
      "track_id": 0,
      "velocity": 0,
      "is_motor": true,
      "motor_id": 1,
      "accel_val": 2000,
      "base_duration_us": 306122
    },
    {
      "id": "M_944",
      "pitch": 88,
      "t_note_us": 204888040,
      "t_trigger_us": 204752077,
      "is_ai": true,
      "track_id": 5,
      "velocity": 0,
      "is_motor": false,
      "motor_id": 0,
      "accel_val": 2000,
      "base_duration_us": 306122
    },
    {
      "id": "M_945",
      "pitch": 89,
      "t_note_us": 205194162,
      "t_trigger_us": 205058199,
      "is_ai": true,
      "track_id": 6,
      "velocity": 0,
      "is_motor": false,
      "motor_id": 0,
      "accel_val": 2000,
      "base_duration_us": 306122
    },
    {
      "id": "M_946",
      "pitch": 91,
      "t_note_us": 205500284,
      "t_trigger_us": 205364321,
      "is_ai": true,
      "track_id": 7,
      "velocity": 0,
      "is_motor": false,
      "motor_id": 0,
      "accel_val": 2000,
      "base_duration_us": 306122
    },
    {
      "id": "M_950",
      "pitch": 93,
      "t_note_us": 205806406,
      "t_trigger_us": 205670443,
      "is_ai": true,
      "track_id": 8,
      "velocity": 0,
      "is_motor": false,
      "motor_id": 0,
      "accel_val": 2000,
      "base_duration_us": 918366
    },
    {
      "id": "M_947",
      "pitch": 65,
      "t_note_us": 205806406,
      "t_trigger_us": 205670443,
      "is_ai": false,
      "track_id": 0,
      "velocity": 0,
      "is_motor": true,
      "motor_id": 1,
      "accel_val": 2000,
      "base_duration_us": 306122
    },
    {
      "id": "M_948",
      "pitch": 72,
      "t_note_us": 206112528,
      "t_trigger_us": 205976565,
      "is_ai": false,
      "track_id": 0,
      "velocity": 0,
      "is_motor": true,
      "motor_id": 1,
      "accel_val": 2000,
      "base_duration_us": 306122
    },
    {
      "id": "M_949",
      "pitch": 77,
      "t_note_us": 206418650,
      "t_trigger_us": 206282687,
      "is_ai": false,
      "track_id": 0,
      "velocity": 0,
      "is_motor": true,
      "motor_id": 2,
      "accel_val": 2000,
      "base_duration_us": 306122
    },
    {
      "id": "M_951",
      "pitch": 84,
      "t_note_us": 206724772,
      "t_trigger_us": 206588809,
      "is_ai": true,
      "track_id": 3,
      "velocity": 0,
      "is_motor": false,
      "motor_id": 0,
      "accel_val": 2000,
      "base_duration_us": 306122
    },
    {
      "id": "M_952",
      "pitch": 94,
      "t_note_us": 207030894,
      "t_trigger_us": 206894931,
      "is_ai": true,
      "track_id": 0,
      "velocity": 0,
      "is_motor": true,
      "motor_id": 3,
      "accel_val": 2000,
      "base_duration_us": 306122
    },
    {
      "id": "M_953",
      "pitch": 93,
      "t_note_us": 207337016,
      "t_trigger_us": 207201053,
      "is_ai": true,
      "track_id": 8,
      "velocity": 0,
      "is_motor": false,
      "motor_id": 0,
      "accel_val": 2000,
      "base_duration_us": 306122
    },
    {
      "id": "M_957",
      "pitch": 91,
      "t_note_us": 207643138,
      "t_trigger_us": 207507175,
      "is_ai": true,
      "track_id": 7,
      "velocity": 0,
      "is_motor": false,
      "motor_id": 0,
      "accel_val": 2000,
      "base_duration_us": 918366
    },
    {
      "id": "M_954",
      "pitch": 60,
      "t_note_us": 207643138,
      "t_trigger_us": 207507175,
      "is_ai": false,
      "track_id": 0,
      "velocity": 0,
      "is_motor": true,
      "motor_id": 1,
      "accel_val": 2000,
      "base_duration_us": 306122
    },
    {
      "id": "M_955",
      "pitch": 72,
      "t_note_us": 207949260,
      "t_trigger_us": 207813297,
      "is_ai": false,
      "track_id": 0,
      "velocity": 0,
      "is_motor": true,
      "motor_id": 1,
      "accel_val": 2000,
      "base_duration_us": 306122
    },
    {
      "id": "M_956",
      "pitch": 76,
      "t_note_us": 208255382,
      "t_trigger_us": 208119419,
      "is_ai": false,
      "track_id": 0,
      "velocity": 0,
      "is_motor": true,
      "motor_id": 2,
      "accel_val": 2000,
      "base_duration_us": 306122
    },
    {
      "id": "M_958",
      "pitch": 70,
      "t_note_us": 208561504,
      "t_trigger_us": 208425541,
      "is_ai": false,
      "track_id": 0,
      "velocity": 0,
      "is_motor": true,
      "motor_id": 1,
      "accel_val": 2000,
      "base_duration_us": 306122
    },
    {
      "id": "M_959",
      "pitch": 93,
      "t_note_us": 208867626,
      "t_trigger_us": 208731663,
      "is_ai": true,
      "track_id": 8,
      "velocity": 0,
      "is_motor": false,
      "motor_id": 0,
      "accel_val": 2000,
      "base_duration_us": 306122
    },
    {
      "id": "M_960",
      "pitch": 91,
      "t_note_us": 209173748,
      "t_trigger_us": 209037785,
      "is_ai": true,
      "track_id": 7,
      "velocity": 0,
      "is_motor": false,
      "motor_id": 0,
      "accel_val": 2000,
      "base_duration_us": 306122
    },
    {
      "id": "M_964",
      "pitch": 89,
      "t_note_us": 209479870,
      "t_trigger_us": 209343907,
      "is_ai": true,
      "track_id": 6,
      "velocity": 0,
      "is_motor": false,
      "motor_id": 0,
      "accel_val": 2000,
      "base_duration_us": 918366
    },
    {
      "id": "M_961",
      "pitch": 62,
      "t_note_us": 209479870,
      "t_trigger_us": 209343907,
      "is_ai": false,
      "track_id": 0,
      "velocity": 0,
      "is_motor": true,
      "motor_id": 1,
      "accel_val": 2000,
      "base_duration_us": 306122
    },
    {
      "id": "M_962",
      "pitch": 69,
      "t_note_us": 209785992,
      "t_trigger_us": 209650029,
      "is_ai": false,
      "track_id": 0,
      "velocity": 0,
      "is_motor": true,
      "motor_id": 1,
      "accel_val": 2000,
      "base_duration_us": 306122
    },
    {
      "id": "M_963",
      "pitch": 74,
      "t_note_us": 210092114,
      "t_trigger_us": 209956151,
      "is_ai": false,
      "track_id": 0,
      "velocity": 0,
      "is_motor": true,
      "motor_id": 1,
      "accel_val": 2000,
      "base_duration_us": 306122
    },
    {
      "id": "M_965",
      "pitch": 69,
      "t_note_us": 210398236,
      "t_trigger_us": 210262273,
      "is_ai": false,
      "track_id": 0,
      "velocity": 0,
      "is_motor": true,
      "motor_id": 1,
      "accel_val": 2000,
      "base_duration_us": 306122
    },
    {
      "id": "M_966",
      "pitch": 91,
      "t_note_us": 210704358,
      "t_trigger_us": 210568395,
      "is_ai": true,
      "track_id": 7,
      "velocity": 0,
      "is_motor": false,
      "motor_id": 0,
      "accel_val": 2000,
      "base_duration_us": 306122
    },
    {
      "id": "M_967",
      "pitch": 89,
      "t_note_us": 211010480,
      "t_trigger_us": 210874517,
      "is_ai": true,
      "track_id": 6,
      "velocity": 0,
      "is_motor": false,
      "motor_id": 0,
      "accel_val": 2000,
      "base_duration_us": 306122
    },
    {
      "id": "M_970",
      "pitch": 88,
      "t_note_us": 211316602,
      "t_trigger_us": 211180639,
      "is_ai": true,
      "track_id": 5,
      "velocity": 0,
      "is_motor": false,
      "motor_id": 0,
      "accel_val": 2000,
      "base_duration_us": 612244
    },
    {
      "id": "M_968",
      "pitch": 57,
      "t_note_us": 211316602,
      "t_trigger_us": 211180639,
      "is_ai": false,
      "track_id": 0,
      "velocity": 0,
      "is_motor": true,
      "motor_id": 0,
      "accel_val": 2000,
      "base_duration_us": 306122
    },
    {
      "id": "M_969",
      "pitch": 69,
      "t_note_us": 211622724,
      "t_trigger_us": 211486761,
      "is_ai": false,
      "track_id": 0,
      "velocity": 0,
      "is_motor": true,
      "motor_id": 1,
      "accel_val": 2000,
      "base_duration_us": 306122
    },
    {
      "id": "M_971",
      "pitch": 69,
      "t_note_us": 211928846,
      "t_trigger_us": 211792883,
      "is_ai": false,
      "track_id": 0,
      "velocity": 0,
      "is_motor": true,
      "motor_id": 1,
      "accel_val": 2000,
      "base_duration_us": 306122
    },
    {
      "id": "M_972",
      "pitch": 69,
      "t_note_us": 212234968,
      "t_trigger_us": 212099005,
      "is_ai": false,
      "track_id": 0,
      "velocity": 0,
      "is_motor": true,
      "motor_id": 1,
      "accel_val": 2000,
      "base_duration_us": 306122
    },
    {
      "id": "M_973",
      "pitch": 93,
      "t_note_us": 212541090,
      "t_trigger_us": 212405127,
      "is_ai": true,
      "track_id": 8,
      "velocity": 0,
      "is_motor": false,
      "motor_id": 0,
      "accel_val": 2000,
      "base_duration_us": 306122
    },
    {
      "id": "M_974",
      "pitch": 69,
      "t_note_us": 212847212,
      "t_trigger_us": 212711249,
      "is_ai": false,
      "track_id": 0,
      "velocity": 0,
      "is_motor": true,
      "motor_id": 1,
      "accel_val": 2000,
      "base_duration_us": 306122
    },
    {
      "id": "M_975",
      "pitch": 93,
      "t_note_us": 213153334,
      "t_trigger_us": 213017371,
      "is_ai": true,
      "track_id": 8,
      "velocity": 0,
      "is_motor": false,
      "motor_id": 0,
      "accel_val": 2000,
      "base_duration_us": 306122
    },
    {
      "id": "M_976",
      "pitch": 93,
      "t_note_us": 213459456,
      "t_trigger_us": 213323493,
      "is_ai": true,
      "track_id": 8,
      "velocity": 0,
      "is_motor": false,
      "motor_id": 0,
      "accel_val": 2000,
      "base_duration_us": 306122
    },
    {
      "id": "M_977",
      "pitch": 93,
      "t_note_us": 213765578,
      "t_trigger_us": 213629615,
      "is_ai": true,
      "track_id": 8,
      "velocity": 0,
      "is_motor": false,
      "motor_id": 0,
      "accel_val": 2000,
      "base_duration_us": 306122
    },
    {
      "id": "M_978",
      "pitch": 92,
      "t_note_us": 214071700,
      "t_trigger_us": 213935737,
      "is_ai": true,
      "track_id": 0,
      "velocity": 0,
      "is_motor": true,
      "motor_id": 3,
      "accel_val": 2000,
      "base_duration_us": 306122
    },
    {
      "id": "M_979",
      "pitch": 93,
      "t_note_us": 214377822,
      "t_trigger_us": 214241859,
      "is_ai": true,
      "track_id": 8,
      "velocity": 0,
      "is_motor": false,
      "motor_id": 0,
      "accel_val": 2000,
      "base_duration_us": 306122
    },
    {
      "id": "M_980",
      "pitch": 92,
      "t_note_us": 214683944,
      "t_trigger_us": 214547981,
      "is_ai": true,
      "track_id": 0,
      "velocity": 0,
      "is_motor": true,
      "motor_id": 3,
      "accel_val": 2000,
      "base_duration_us": 306122
    },
    {
      "id": "M_981",
      "pitch": 93,
      "t_note_us": 214990066,
      "t_trigger_us": 214854103,
      "is_ai": true,
      "track_id": 8,
      "velocity": 0,
      "is_motor": false,
      "motor_id": 0,
      "accel_val": 2000,
      "base_duration_us": 306122
    },
    {
      "id": "M_982",
      "pitch": 92,
      "t_note_us": 215296188,
      "t_trigger_us": 215160225,
      "is_ai": true,
      "track_id": 0,
      "velocity": 0,
      "is_motor": true,
      "motor_id": 3,
      "accel_val": 2000,
      "base_duration_us": 306122
    },
    {
      "id": "M_983",
      "pitch": 93,
      "t_note_us": 215602310,
      "t_trigger_us": 215466347,
      "is_ai": true,
      "track_id": 8,
      "velocity": 0,
      "is_motor": false,
      "motor_id": 0,
      "accel_val": 2000,
      "base_duration_us": 306122
    },
    {
      "id": "M_984",
      "pitch": 92,
      "t_note_us": 215908432,
      "t_trigger_us": 215772469,
      "is_ai": true,
      "track_id": 0,
      "velocity": 0,
      "is_motor": true,
      "motor_id": 3,
      "accel_val": 2000,
      "base_duration_us": 306122
    },
    {
      "id": "M_985",
      "pitch": 93,
      "t_note_us": 216214554,
      "t_trigger_us": 216078591,
      "is_ai": true,
      "track_id": 8,
      "velocity": 0,
      "is_motor": false,
      "motor_id": 0,
      "accel_val": 2000,
      "base_duration_us": 306122
    },
    {
      "id": "M_986",
      "pitch": 92,
      "t_note_us": 216520676,
      "t_trigger_us": 216384713,
      "is_ai": true,
      "track_id": 0,
      "velocity": 0,
      "is_motor": true,
      "motor_id": 3,
      "accel_val": 2000,
      "base_duration_us": 306122
    },
    {
      "id": "M_987",
      "pitch": 93,
      "t_note_us": 216826798,
      "t_trigger_us": 216690835,
      "is_ai": true,
      "track_id": 8,
      "velocity": 0,
      "is_motor": false,
      "motor_id": 0,
      "accel_val": 2000,
      "base_duration_us": 306122
    },
    {
      "id": "M_988",
      "pitch": 92,
      "t_note_us": 217132920,
      "t_trigger_us": 216996957,
      "is_ai": true,
      "track_id": 0,
      "velocity": 0,
      "is_motor": true,
      "motor_id": 3,
      "accel_val": 2000,
      "base_duration_us": 306122
    },
    {
      "id": "M_989",
      "pitch": 93,
      "t_note_us": 217439042,
      "t_trigger_us": 217303079,
      "is_ai": true,
      "track_id": 8,
      "velocity": 0,
      "is_motor": false,
      "motor_id": 0,
      "accel_val": 2000,
      "base_duration_us": 306122
    },
    {
      "id": "M_990",
      "pitch": 88,
      "t_note_us": 217745164,
      "t_trigger_us": 217609201,
      "is_ai": true,
      "track_id": 5,
      "velocity": 0,
      "is_motor": false,
      "motor_id": 0,
      "accel_val": 2000,
      "base_duration_us": 306122
    },
    {
      "id": "M_991",
      "pitch": 91,
      "t_note_us": 218051286,
      "t_trigger_us": 217915323,
      "is_ai": true,
      "track_id": 7,
      "velocity": 0,
      "is_motor": false,
      "motor_id": 0,
      "accel_val": 2000,
      "base_duration_us": 306122
    },
    {
      "id": "M_992",
      "pitch": 89,
      "t_note_us": 218357408,
      "t_trigger_us": 218221445,
      "is_ai": true,
      "track_id": 6,
      "velocity": 0,
      "is_motor": false,
      "motor_id": 0,
      "accel_val": 2000,
      "base_duration_us": 306122
    },
    {
      "id": "M_993",
      "pitch": 62,
      "t_note_us": 218663530,
      "t_trigger_us": 218527567,
      "is_ai": false,
      "track_id": 0,
      "velocity": 0,
      "is_motor": true,
      "motor_id": 1,
      "accel_val": 2000,
      "base_duration_us": 306122
    },
    {
      "id": "M_995",
      "pitch": 74,
      "t_note_us": 218663530,
      "t_trigger_us": 218527567,
      "is_ai": false,
      "track_id": 0,
      "velocity": 0,
      "is_motor": true,
      "motor_id": 0,
      "accel_val": 2000,
      "base_duration_us": 612244
    },
    {
      "id": "M_994",
      "pitch": 69,
      "t_note_us": 218969652,
      "t_trigger_us": 218833689,
      "is_ai": false,
      "track_id": 0,
      "velocity": 0,
      "is_motor": true,
      "motor_id": 1,
      "accel_val": 2000,
      "base_duration_us": 306122
    },
    {
      "id": "M_996",
      "pitch": 74,
      "t_note_us": 219275774,
      "t_trigger_us": 219139811,
      "is_ai": false,
      "track_id": 0,
      "velocity": 0,
      "is_motor": true,
      "motor_id": 1,
      "accel_val": 2000,
      "base_duration_us": 306122
    },
    {
      "id": "M_997",
      "pitch": 77,
      "t_note_us": 219581896,
      "t_trigger_us": 219445933,
      "is_ai": false,
      "track_id": 0,
      "velocity": 0,
      "is_motor": true,
      "motor_id": 2,
      "accel_val": 2000,
      "base_duration_us": 306122
    },
    {
      "id": "M_998",
      "pitch": 69,
      "t_note_us": 219888018,
      "t_trigger_us": 219752055,
      "is_ai": false,
      "track_id": 0,
      "velocity": 0,
      "is_motor": true,
      "motor_id": 1,
      "accel_val": 2000,
      "base_duration_us": 306122
    },
    {
      "id": "M_999",
      "pitch": 86,
      "t_note_us": 220194140,
      "t_trigger_us": 220058177,
      "is_ai": true,
      "track_id": 4,
      "velocity": 0,
      "is_motor": false,
      "motor_id": 0,
      "accel_val": 2000,
      "base_duration_us": 306122
    },
    {
      "id": "M_1002",
      "pitch": 88,
      "t_note_us": 220500262,
      "t_trigger_us": 220364299,
      "is_ai": true,
      "track_id": 5,
      "velocity": 0,
      "is_motor": false,
      "motor_id": 0,
      "accel_val": 2000,
      "base_duration_us": 612244
    },
    {
      "id": "M_1000",
      "pitch": 57,
      "t_note_us": 220500262,
      "t_trigger_us": 220364299,
      "is_ai": false,
      "track_id": 0,
      "velocity": 0,
      "is_motor": true,
      "motor_id": 0,
      "accel_val": 2000,
      "base_duration_us": 306122
    },
    {
      "id": "M_1001",
      "pitch": 69,
      "t_note_us": 220806384,
      "t_trigger_us": 220670421,
      "is_ai": false,
      "track_id": 0,
      "velocity": 0,
      "is_motor": true,
      "motor_id": 1,
      "accel_val": 2000,
      "base_duration_us": 306122
    },
    {
      "id": "M_1003",
      "pitch": 73,
      "t_note_us": 221112506,
      "t_trigger_us": 220976543,
      "is_ai": false,
      "track_id": 0,
      "velocity": 0,
      "is_motor": true,
      "motor_id": 1,
      "accel_val": 2000,
      "base_duration_us": 306122
    },
    {
      "id": "M_1004",
      "pitch": 69,
      "t_note_us": 221418628,
      "t_trigger_us": 221282665,
      "is_ai": false,
      "track_id": 0,
      "velocity": 0,
      "is_motor": true,
      "motor_id": 1,
      "accel_val": 2000,
      "base_duration_us": 306122
    },
    {
      "id": "M_1005",
      "pitch": 85,
      "t_note_us": 221724750,
      "t_trigger_us": 221588787,
      "is_ai": true,
      "track_id": 0,
      "velocity": 0,
      "is_motor": true,
      "motor_id": 3,
      "accel_val": 2000,
      "base_duration_us": 306122
    },
    {
      "id": "M_1006",
      "pitch": 88,
      "t_note_us": 222030872,
      "t_trigger_us": 221894909,
      "is_ai": true,
      "track_id": 5,
      "velocity": 0,
      "is_motor": false,
      "motor_id": 0,
      "accel_val": 2000,
      "base_duration_us": 306122
    },
    {
      "id": "M_1009",
      "pitch": 89,
      "t_note_us": 222336994,
      "t_trigger_us": 222201031,
      "is_ai": true,
      "track_id": 6,
      "velocity": 0,
      "is_motor": false,
      "motor_id": 0,
      "accel_val": 2000,
      "base_duration_us": 612244
    },
    {
      "id": "M_1007",
      "pitch": 62,
      "t_note_us": 222336994,
      "t_trigger_us": 222201031,
      "is_ai": false,
      "track_id": 0,
      "velocity": 0,
      "is_motor": true,
      "motor_id": 1,
      "accel_val": 2000,
      "base_duration_us": 306122
    },
    {
      "id": "M_1008",
      "pitch": 69,
      "t_note_us": 222643116,
      "t_trigger_us": 222507153,
      "is_ai": false,
      "track_id": 0,
      "velocity": 0,
      "is_motor": true,
      "motor_id": 1,
      "accel_val": 2000,
      "base_duration_us": 306122
    },
    {
      "id": "M_1010",
      "pitch": 74,
      "t_note_us": 222949238,
      "t_trigger_us": 222813275,
      "is_ai": false,
      "track_id": 0,
      "velocity": 0,
      "is_motor": true,
      "motor_id": 1,
      "accel_val": 2000,
      "base_duration_us": 306122
    },
    {
      "id": "M_1011",
      "pitch": 69,
      "t_note_us": 223255360,
      "t_trigger_us": 223119397,
      "is_ai": false,
      "track_id": 0,
      "velocity": 0,
      "is_motor": true,
      "motor_id": 1,
      "accel_val": 2000,
      "base_duration_us": 306122
    },
    {
      "id": "M_1012",
      "pitch": 93,
      "t_note_us": 223561482,
      "t_trigger_us": 223425519,
      "is_ai": true,
      "track_id": 8,
      "velocity": 0,
      "is_motor": false,
      "motor_id": 0,
      "accel_val": 2000,
      "base_duration_us": 306122
    },
    {
      "id": "M_1013",
      "pitch": 92,
      "t_note_us": 223867604,
      "t_trigger_us": 223731641,
      "is_ai": true,
      "track_id": 0,
      "velocity": 0,
      "is_motor": true,
      "motor_id": 3,
      "accel_val": 2000,
      "base_duration_us": 306122
    },
    {
      "id": "M_1014",
      "pitch": 93,
      "t_note_us": 224173726,
      "t_trigger_us": 224037763,
      "is_ai": true,
      "track_id": 8,
      "velocity": 0,
      "is_motor": false,
      "motor_id": 0,
      "accel_val": 2000,
      "base_duration_us": 306122
    },
    {
      "id": "M_1015",
      "pitch": 92,
      "t_note_us": 224479848,
      "t_trigger_us": 224343885,
      "is_ai": true,
      "track_id": 0,
      "velocity": 0,
      "is_motor": true,
      "motor_id": 3,
      "accel_val": 2000,
      "base_duration_us": 306122
    },
    {
      "id": "M_1016",
      "pitch": 93,
      "t_note_us": 224785970,
      "t_trigger_us": 224650007,
      "is_ai": true,
      "track_id": 8,
      "velocity": 0,
      "is_motor": false,
      "motor_id": 0,
      "accel_val": 2000,
      "base_duration_us": 306122
    },
    {
      "id": "M_1017",
      "pitch": 88,
      "t_note_us": 225092092,
      "t_trigger_us": 224956129,
      "is_ai": true,
      "track_id": 5,
      "velocity": 0,
      "is_motor": false,
      "motor_id": 0,
      "accel_val": 2000,
      "base_duration_us": 306122
    },
    {
      "id": "M_1018",
      "pitch": 91,
      "t_note_us": 225398214,
      "t_trigger_us": 225262251,
      "is_ai": true,
      "track_id": 7,
      "velocity": 0,
      "is_motor": false,
      "motor_id": 0,
      "accel_val": 2000,
      "base_duration_us": 306122
    },
    {
      "id": "M_1019",
      "pitch": 89,
      "t_note_us": 225704336,
      "t_trigger_us": 225568373,
      "is_ai": true,
      "track_id": 6,
      "velocity": 0,
      "is_motor": false,
      "motor_id": 0,
      "accel_val": 2000,
      "base_duration_us": 306122
    },
    {
      "id": "M_1020",
      "pitch": 62,
      "t_note_us": 226010458,
      "t_trigger_us": 225874495,
      "is_ai": false,
      "track_id": 0,
      "velocity": 0,
      "is_motor": true,
      "motor_id": 1,
      "accel_val": 2000,
      "base_duration_us": 306122
    },
    {
      "id": "M_1022",
      "pitch": 74,
      "t_note_us": 226010458,
      "t_trigger_us": 225874495,
      "is_ai": false,
      "track_id": 0,
      "velocity": 0,
      "is_motor": true,
      "motor_id": 0,
      "accel_val": 2000,
      "base_duration_us": 612244
    },
    {
      "id": "M_1021",
      "pitch": 69,
      "t_note_us": 226316580,
      "t_trigger_us": 226180617,
      "is_ai": false,
      "track_id": 0,
      "velocity": 0,
      "is_motor": true,
      "motor_id": 1,
      "accel_val": 2000,
      "base_duration_us": 306122
    },
    {
      "id": "M_1023",
      "pitch": 74,
      "t_note_us": 226622702,
      "t_trigger_us": 226486739,
      "is_ai": false,
      "track_id": 0,
      "velocity": 0,
      "is_motor": true,
      "motor_id": 1,
      "accel_val": 2000,
      "base_duration_us": 306122
    },
    {
      "id": "M_1024",
      "pitch": 89,
      "t_note_us": 226928824,
      "t_trigger_us": 226792861,
      "is_ai": true,
      "track_id": 6,
      "velocity": 0,
      "is_motor": false,
      "motor_id": 0,
      "accel_val": 2000,
      "base_duration_us": 306122
    },
    {
      "id": "M_1025",
      "pitch": 81,
      "t_note_us": 227234946,
      "t_trigger_us": 227098983,
      "is_ai": true,
      "track_id": 1,
      "velocity": 0,
      "is_motor": false,
      "motor_id": 0,
      "accel_val": 2000,
      "base_duration_us": 306122
    },
    {
      "id": "M_1026",
      "pitch": 86,
      "t_note_us": 227541068,
      "t_trigger_us": 227405105,
      "is_ai": true,
      "track_id": 4,
      "velocity": 0,
      "is_motor": false,
      "motor_id": 0,
      "accel_val": 2000,
      "base_duration_us": 306122
    },
    {
      "id": "M_1027",
      "pitch": 81,
      "t_note_us": 227847190,
      "t_trigger_us": 227711227,
      "is_ai": true,
      "track_id": 1,
      "velocity": 0,
      "is_motor": false,
      "motor_id": 0,
      "accel_val": 2000,
      "base_duration_us": 306122
    },
    {
      "id": "M_1029",
      "pitch": 88,
      "t_note_us": 227847190,
      "t_trigger_us": 227711227,
      "is_ai": true,
      "track_id": 5,
      "velocity": 0,
      "is_motor": false,
      "motor_id": 0,
      "accel_val": 2000,
      "base_duration_us": 612244
    },
    {
      "id": "M_1028",
      "pitch": 81,
      "t_note_us": 228153312,
      "t_trigger_us": 228017349,
      "is_ai": true,
      "track_id": 1,
      "velocity": 0,
      "is_motor": false,
      "motor_id": 0,
      "accel_val": 2000,
      "base_duration_us": 306122
    },
    {
      "id": "M_1030",
      "pitch": 85,
      "t_note_us": 228459434,
      "t_trigger_us": 228323471,
      "is_ai": true,
      "track_id": 0,
      "velocity": 0,
      "is_motor": true,
      "motor_id": 3,
      "accel_val": 2000,
      "base_duration_us": 306122
    },
    {
      "id": "M_1031",
      "pitch": 81,
      "t_note_us": 228765556,
      "t_trigger_us": 228629593,
      "is_ai": true,
      "track_id": 1,
      "velocity": 0,
      "is_motor": false,
      "motor_id": 0,
      "accel_val": 2000,
      "base_duration_us": 306122
    },
    {
      "id": "M_1032",
      "pitch": 89,
      "t_note_us": 229071678,
      "t_trigger_us": 228935715,
      "is_ai": true,
      "track_id": 6,
      "velocity": 0,
      "is_motor": false,
      "motor_id": 0,
      "accel_val": 2000,
      "base_duration_us": 306122
    },
    {
      "id": "M_1033",
      "pitch": 88,
      "t_note_us": 229377800,
      "t_trigger_us": 229241837,
      "is_ai": true,
      "track_id": 5,
      "velocity": 0,
      "is_motor": false,
      "motor_id": 0,
      "accel_val": 2000,
      "base_duration_us": 306122
    },
    {
      "id": "M_1036",
      "pitch": 86,
      "t_note_us": 229683922,
      "t_trigger_us": 229547959,
      "is_ai": true,
      "track_id": 4,
      "velocity": 0,
      "is_motor": false,
      "motor_id": 0,
      "accel_val": 2000,
      "base_duration_us": 612244
    },
    {
      "id": "M_1034",
      "pitch": 50,
      "t_note_us": 229683922,
      "t_trigger_us": 229547959,
      "is_ai": false,
      "track_id": 0,
      "velocity": 0,
      "is_motor": true,
      "motor_id": 0,
      "accel_val": 2000,
      "base_duration_us": 612244
    },
    {
      "id": "M_1035",
      "pitch": 62,
      "t_note_us": 229683922,
      "t_trigger_us": 229547959,
      "is_ai": false,
      "track_id": 0,
      "velocity": 0,
      "is_motor": true,
      "motor_id": 1,
      "accel_val": 2000,
      "base_duration_us": 612244
    }
  ]
}