{
  "config": {
    "mode_idx": 0,
    "active_motors": [
      0,
      1,
      2,
      3
    ],
    "transpose": 0,
    "arp_speed_ms": 10,
    "gate_time": 100
  },
  "sustain_multiplier": 1.0,
  "notes": [
    {
      "id": "M_3",
      "pitch": 72,
      "t_note_us": 0,
      "t_trigger_us": 1,
      "is_ai": false,
      "track_id": 0,
      "velocity": 0,
      "is_motor": true,
      "motor_id": 1,
      "accel_val": 2000,
      "base_duration_us": 1000000
    },
    {
      "id": "M_0",
      "pitch": 76,
      "t_note_us": 250000,
      "t_trigger_us": 114037,
      "is_ai": false,
      "track_id": 0,
      "velocity": 0,
      "is_motor": true,
      "motor_id": 2,
      "accel_val": 2000,
      "base_duration_us": 250000
    },
    {
      "id": "M_1",
      "pitch": 67,
      "t_note_us": 500000,
      "t_trigger_us": 364037,
      "is_ai": false,
      "track_id": 0,
      "velocity": 0,
      "is_motor": true,
      "motor_id": 2,
      "accel_val": 2000,
      "base_duration_us": 250000
    },
    {
      "id": "M_2",
      "pitch": 84,
      "t_note_us": 750000,
      "t_trigger_us": 614037,
      "is_ai": true,
      "track_id": 3,
      "velocity": 0,
      "is_motor": false,
      "motor_id": 0,
      "accel_val": 2000,
      "base_duration_us": 250000
    },
    {
      "id": "M_7",
      "pitch": 67,
      "t_note_us": 1000000,
      "t_trigger_us": 864037,
      "is_ai": false,
      "track_id": 0,
      "velocity": 0,
      "is_motor": true,
      "motor_id": 2,
      "accel_val": 2000,
      "base_duration_us": 1000000
    },
    {
      "id": "M_4",
      "pitch": 74,
      "t_note_us": 1250000,
      "t_trigger_us": 1114037,
      "is_ai": false,
      "track_id": 0,
      "velocity": 0,
      "is_motor": true,
      "motor_id": 1,
      "accel_val": 2000,
      "base_duration_us": 250000
    },
    {
      "id": "M_5",
      "pitch": 79,
      "t_note_us": 1500000,
      "t_trigger_us": 1364037,
      "is_ai": true,
      "track_id": 0,
      "velocity": 0,
      "is_motor": false,
      "motor_id": 0,
      "accel_val": 2000,
      "base_duration_us": 250000
    },
    {
      "id": "M_6",
      "pitch": 83,
      "t_note_us": 1750000,
      "t_trigger_us": 1614037,
      "is_ai": true,
      "track_id": 2,
      "velocity": 0,
      "is_motor": false,
      "motor_id": 0,
      "accel_val": 2000,
      "base_duration_us": 250000
    },
    {
      "id": "M_11",
      "pitch": 69,
      "t_note_us": 2000000,
      "t_trigger_us": 1864037,
      "is_ai": false,
      "track_id": 0,
      "velocity": 0,
      "is_motor": true,
      "motor_id": 1,
      "accel_val": 2000,
      "base_duration_us": 1000000
    },
    {
      "id": "M_8",
      "pitch": 72,
      "t_note_us": 2250000,
      "t_trigger_us": 2114037,
      "is_ai": false,
      "track_id": 0,
      "velocity": 0,
      "is_motor": true,
      "motor_id": 0,
      "accel_val": 2000,
      "base_duration_us": 250000
    },
    {
      "id": "M_9",
      "pitch": 76,
      "t_note_us": 2500000,
      "t_trigger_us": 2364037,
      "is_ai": false,
      "track_id": 0,
      "velocity": 0,
      "is_motor": true,
      "motor_id": 2,
      "accel_val": 2000,
      "base_duration_us": 250000
    },
    {
      "id": "M_10",
      "pitch": 81,
      "t_note_us": 2750000,
      "t_trigger_us": 2614037,
      "is_ai": true,
      "track_id": 1,
      "velocity": 0,
      "is_motor": false,
      "motor_id": 0,
      "accel_val": 2000,
      "base_duration_us": 250000
    },
    {
      "id": "M_15",
      "pitch": 64,
      "t_note_us": 3000000,
      "t_trigger_us": 2864037,
      "is_ai": false,
      "track_id": 0,
      "velocity": 0,
      "is_motor": true,
      "motor_id": 1,
      "accel_val": 2000,
      "base_duration_us": 1000000
    },
    {
      "id": "M_12",
      "pitch": 71,
      "t_note_us": 3250000,
      "t_trigger_us": 3114037,
      "is_ai": false,
      "track_id": 0,
      "velocity": 0,
      "is_motor": true,
      "motor_id": 2,
      "accel_val": 2000,
      "base_duration_us": 250000
    },
    {
      "id": "M_13",
      "pitch": 76,
      "t_note_us": 3500000,
      "t_trigger_us": 3364037,
      "is_ai": false,
      "track_id": 0,
      "velocity": 0,
      "is_motor": true,
      "motor_id": 2,
      "accel_val": 2000,
      "base_duration_us": 250000
    },
    {
      "id": "M_14",
      "pitch": 79,
      "t_note_us": 3750000,
      "t_trigger_us": 3614037,
      "is_ai": true,
      "track_id": 0,
      "velocity": 0,
      "is_motor": false,
      "motor_id": 0,
      "accel_val": 2000,
      "base_duration_us": 250000
    },
    {
      "id": "M_19",
      "pitch": 65,
      "t_note_us": 4000000,
      "t_trigger_us": 3864037,
      "is_ai": false,
      "track_id": 0,
      "velocity": 0,
      "is_motor": true,
      "motor_id": 1,
      "accel_val": 2000,
      "base_duration_us": 1000000
    },
    {
      "id": "M_16",
      "pitch": 69,
      "t_note_us": 4250000,
      "t_trigger_us": 4114037,
      "is_ai": false,
      "track_id": 0,
      "velocity": 0,
      "is_motor": true,
      "motor_id": 2,
      "accel_val": 2000,
      "base_duration_us": 250000
    },
    {
      "id": "M_17",
      "pitch": 72,
      "t_note_us": 4500000,
      "t_trigger_us": 4364037,
      "is_ai": false,
      "track_id": 0,
      "velocity": 0,
      "is_motor": true,
      "motor_id": 0,
      "accel_val": 2000,
      "base_duration_us": 250000
    },
    {
      "id": "M_18",
      "pitch": 77,
      "t_note_us": 4750000,
      "t_trigger_us": 4614037,
      "is_ai": false,
      "track_id": 0,
      "velocity": 0,
      "is_motor": true,
      "motor_id": 2,
      "accel_val": 2000,
      "base_duration_us": 250000
    },
    {
      "id": "M_23",
      "pitch": 60,
      "t_note_us": 5000000,
      "t_trigger_us": 4864037,
      "is_ai": false,
      "track_id": 0,
      "velocity": 0,
      "is_motor": true,
      "motor_id": 1,
      "accel_val": 2000,
      "base_duration_us": 1000000
    },
    {
      "id": "M_20",
      "pitch": 67,
      "t_note_us": 5250000,
      "t_trigger_us": 5114037,
      "is_ai": false,
      "track_id": 0,
      "velocity": 0,
      "is_motor": true,
      "motor_id": 2,
      "accel_val": 2000,
      "base_duration_us": 250000
    },
    {
      "id": "M_21",
      "pitch": 72,
      "t_note_us": 5500000,
      "t_trigger_us": 5364037,
      "is_ai": false,
      "track_id": 0,
      "velocity": 0,
      "is_motor": true,
      "motor_id": 0,
      "accel_val": 2000,
      "base_duration_us": 250000
    },
    {
      "id": "M_22",
      "pitch": 76,
      "t_note_us": 5750000,
      "t_trigger_us": 5614037,
      "is_ai": false,
      "track_id": 0,
      "velocity": 0,
      "is_motor": true,
      "motor_id": 2,
      "accel_val": 2000,
      "base_duration_us": 250000
    },
    {
      "id": "M_27",
      "pitch": 65,
      "t_note_us": 6000000,
      "t_trigger_us": 5864037,
      "is_ai": false,
      "track_id": 0,
      "velocity": 0,
      "is_motor": true,
      "motor_id": 1,
      "accel_val": 2000,
      "base_duration_us": 1000000
    },
    {
      "id": "M_24",
      "pitch": 69,
      "t_note_us": 6250000,
      "t_trigger_us": 6114037,
      "is_ai": false,
      "track_id": 0,
      "velocity": 0,
      "is_motor": true,
      "motor_id": 2,
      "accel_val": 2000,
      "base_duration_us": 250000
    },
    {
      "id": "M_25",
      "pitch": 72,
      "t_note_us": 6500000,
      "t_trigger_us": 6364037,
      "is_ai": false,
      "track_id": 0,
      "velocity": 0,
      "is_motor": true,
      "motor_id": 0,
      "accel_val": 2000,
      "base_duration_us": 250000
    },
    {
      "id": "M_26",
      "pitch": 77,
      "t_note_us": 6750000,
      "t_trigger_us": 6614037,
      "is_ai": false,
      "track_id": 0,
      "velocity": 0,
      "is_motor": true,
      "motor_id": 2,
      "accel_val": 2000,
      "base_duration_us": 250000
    },
    {
      "id": "M_31",
      "pitch": 67,
      "t_note_us": 7000000,
      "t_trigger_us": 6864037,
      "is_ai": false,
      "track_id": 0,
      "velocity": 0,
      "is_motor": true,
      "motor_id": 1,
      "accel_val": 2000,
      "base_duration_us": 1000000
    },
    {
      "id": "M_28",
      "pitch": 74,
      "t_note_us": 7250000,
      "t_trigger_us": 7114037,
      "is_ai": false,
      "track_id": 0,
      "velocity": 0,
      "is_motor": true,
      "motor_id": 0,
      "accel_val": 2000,
      "base_duration_us": 250000
    },
    {
      "id": "M_29",
      "pitch": 79,
      "t_note_us": 7500000,
      "t_trigger_us": 7364037,
      "is_ai": true,
      "track_id": 0,
      "velocity": 0,
      "is_motor": false,
      "motor_id": 0,
      "accel_val": 2000,
      "base_duration_us": 250000
    },
    {
      "id": "M_30",
      "pitch": 83,
      "t_note_us": 7750000,
      "t_trigger_us": 7614037,
      "is_ai": true,
      "track_id": 2,
      "velocity": 0,
      "is_motor": false,
      "motor_id": 0,
      "accel_val": 2000,
      "base_duration_us": 250000
    },
    {
      "id": "M_32",
      "pitch": 88,
      "t_note_us": 8000000,
      "t_trigger_us": 7864037,
      "is_ai": true,
      "track_id": 5,
      "velocity": 0,
      "is_motor": false,
      "motor_id": 0,
      "accel_val": 2000,
      "base_duration_us": 250000
    },
    {
      "id": "M_36",
      "pitch": 72,
      "t_note_us": 8000000,
      "t_trigger_us": 7864037,
      "is_ai": false,
      "track_id": 0,
      "velocity": 0,
      "is_motor": true,
      "motor_id": 1,
      "accel_val": 2000,
      "base_duration_us": 1000000
    },
    {
      "id": "M_33",
      "pitch": 67,
      "t_note_us": 8250000,
      "t_trigger_us": 8114037,
      "is_ai": false,
      "track_id": 0,
      "velocity": 0,
      "is_motor": true,
      "motor_id": 2,
      "accel_val": 2000,
      "base_duration_us": 250000
    },
    {
      "id": "M_34",
      "pitch": 84,
      "t_note_us": 8500000,
      "t_trigger_us": 8364037,
      "is_ai": true,
      "track_id": 3,
      "velocity": 0,
      "is_motor": false,
      "motor_id": 0,
      "accel_val": 2000,
      "base_duration_us": 250000
    },
    {
      "id": "M_35",
      "pitch": 67,
      "t_note_us": 8750000,
      "t_trigger_us": 8614037,
      "is_ai": false,
      "track_id": 0,
      "velocity": 0,
      "is_motor": true,
      "motor_id": 2,
      "accel_val": 2000,
      "base_duration_us": 250000
    },
    {
      "id": "M_37",
      "pitch": 86,
      "t_note_us": 9000000,
      "t_trigger_us": 8864037,
      "is_ai": true,
      "track_id": 4,
      "velocity": 0,
      "is_motor": false,
      "motor_id": 0,
      "accel_val": 2000,
      "base_duration_us": 250000
    },
    {
      "id": "M_41",
      "pitch": 67,
      "t_note_us": 9000000,
      "t_trigger_us": 8864037,
      "is_ai": false,
      "track_id": 0,
      "velocity": 0,
      "is_motor": true,
      "motor_id": 1,
      "accel_val": 2000,
      "base_duration_us": 1000000
    },
    {
      "id": "M_38",
      "pitch": 67,
      "t_note_us": 9250000,
      "t_trigger_us": 9114037,
      "is_ai": false,
      "track_id": 0,
      "velocity": 0,
      "is_motor": true,
      "motor_id": 2,
      "accel_val": 2000,
      "base_duration_us": 250000
    },
    {
      "id": "M_39",
      "pitch": 83,
      "t_note_us": 9500000,
      "t_trigger_us": 9364037,
      "is_ai": true,
      "track_id": 2,
      "velocity": 0,
      "is_motor": false,
      "motor_id": 0,
      "accel_val": 2000,
      "base_duration_us": 250000
    },
    {
      "id": "M_40",
      "pitch": 79,
      "t_note_us": 9750000,
      "t_trigger_us": 9614037,
      "is_ai": true,
      "track_id": 0,
      "velocity": 0,
      "is_motor": false,
      "motor_id": 0,
      "accel_val": 2000,
      "base_duration_us": 250000
    },
    {
      "id": "M_42",
      "pitch": 84,
      "t_note_us": 10000000,
      "t_trigger_us": 9864037,
      "is_ai": true,
      "track_id": 3,
      "velocity": 0,
      "is_motor": false,
      "motor_id": 0,
      "accel_val": 2000,
      "base_duration_us": 250000
    },
    {
      "id": "M_46",
      "pitch": 69,
      "t_note_us": 10000000,
      "t_trigger_us": 9864037,
      "is_ai": false,
      "track_id": 0,
      "velocity": 0,
      "is_motor": true,
      "motor_id": 1,
      "accel_val": 2000,
      "base_duration_us": 1000000
    },
    {
      "id": "M_43",
      "pitch": 76,
      "t_note_us": 10250000,
      "t_trigger_us": 10114037,
      "is_ai": false,
      "track_id": 0,
      "velocity": 0,
      "is_motor": true,
      "motor_id": 2,
      "accel_val": 2000,
      "base_duration_us": 250000
    },
    {
      "id": "M_44",
      "pitch": 81,
      "t_note_us": 10500000,
      "t_trigger_us": 10364037,
      "is_ai": true,
      "track_id": 1,
      "velocity": 0,
      "is_motor": false,
      "motor_id": 0,
      "accel_val": 2000,
      "base_duration_us": 250000
    },
    {
      "id": "M_45",
      "pitch": 76,
      "t_note_us": 10750000,
      "t_trigger_us": 10614037,
      "is_ai": false,
      "track_id": 0,
      "velocity": 0,
      "is_motor": true,
      "motor_id": 2,
      "accel_val": 2000,
      "base_duration_us": 250000
    },
    {
      "id": "M_47",
      "pitch": 83,
      "t_note_us": 11000000,
      "t_trigger_us": 10864037,
      "is_ai": true,
      "track_id": 2,
      "velocity": 0,
      "is_motor": false,
      "motor_id": 0,
      "accel_val": 2000,
      "base_duration_us": 250000
    },
    {
      "id": "M_51",
      "pitch": 64,
      "t_note_us": 11000000,
      "t_trigger_us": 10864037,
      "is_ai": false,
      "track_id": 0,
      "velocity": 0,
      "is_motor": true,
      "motor_id": 1,
      "accel_val": 2000,
      "base_duration_us": 1000000
    },
    {
      "id": "M_48",
      "pitch": 76,
      "t_note_us": 11250000,
      "t_trigger_us": 11114037,
      "is_ai": false,
      "track_id": 0,
      "velocity": 0,
      "is_motor": true,
      "motor_id": 2,
      "accel_val": 2000,
      "base_duration_us": 250000
    },
    {
      "id": "M_49",
      "pitch": 79,
      "t_note_us": 11500000,
      "t_trigger_us": 11364037,
      "is_ai": true,
      "track_id": 0,
      "velocity": 0,
      "is_motor": false,
      "motor_id": 0,
      "accel_val": 2000,
      "base_duration_us": 250000
    },
    {
      "id": "M_50",
      "pitch": 76,
      "t_note_us": 11750000,
      "t_trigger_us": 11614037,
      "is_ai": false,
      "track_id": 0,
      "velocity": 0,
      "is_motor": true,
      "motor_id": 2,
      "accel_val": 2000,
      "base_duration_us": 250000
    },
    {
      "id": "M_52",
      "pitch": 81,
      "t_note_us": 12000000,
      "t_trigger_us": 11864037,
      "is_ai": true,
      "track_id": 1,
      "velocity": 0,
      "is_motor": false,
      "motor_id": 0,
      "accel_val": 2000,
      "base_duration_us": 250000
    },
    {
      "id": "M_56",
      "pitch": 65,
      "t_note_us": 12000000,
      "t_trigger_us": 11864037,
      "is_ai": false,
      "track_id": 0,
      "velocity": 0,
      "is_motor": true,
      "motor_id": 1,
      "accel_val": 2000,
      "base_duration_us": 1000000
    },
    {
      "id": "M_53",
      "pitch": 72,
      "t_note_us": 12250000,
      "t_trigger_us": 12114037,
      "is_ai": false,
      "track_id": 0,
      "velocity": 0,
      "is_motor": true,
      "motor_id": 0,
      "accel_val": 2000,
      "base_duration_us": 250000
    },
    {
      "id": "M_54",
      "pitch": 77,
      "t_note_us": 12500000,
      "t_trigger_us": 12364037,
      "is_ai": false,
      "track_id": 0,
      "velocity": 0,
      "is_motor": true,
      "motor_id": 2,
      "accel_val": 2000,
      "base_duration_us": 250000
    },
    {
      "id": "M_55",
      "pitch": 72,
      "t_note_us": 12750000,
      "t_trigger_us": 12614037,
      "is_ai": false,
      "track_id": 0,
      "velocity": 0,
      "is_motor": true,
      "motor_id": 0,
      "accel_val": 2000,
      "base_duration_us": 250000
    },
    {
      "id": "M_57",
      "pitch": 79,
      "t_note_us": 13000000,
      "t_trigger_us": 12864037,
      "is_ai": true,
      "track_id": 0,
      "velocity": 0,
      "is_motor": false,
      "motor_id": 0,
      "accel_val": 2000,
      "base_duration_us": 250000
    },
    {
      "id": "M_61",
      "pitch": 60,
      "t_note_us": 13000000,
      "t_trigger_us": 12864037,
      "is_ai": false,
      "track_id": 0,
      "velocity": 0,
      "is_motor": true,
      "motor_id": 1,
      "accel_val": 2000,
      "base_duration_us": 1000000
    },
    {
      "id": "M_58",
      "pitch": 72,
      "t_note_us": 13250000,
      "t_trigger_us": 13114037,
      "is_ai": false,
      "track_id": 0,
      "velocity": 0,
      "is_motor": true,
      "motor_id": 0,
      "accel_val": 2000,
      "base_duration_us": 250000
    },
    {
      "id": "M_59",
      "pitch": 76,
      "t_note_us": 13500000,
      "t_trigger_us": 13364037,
      "is_ai": false,
      "track_id": 0,
      "velocity": 0,
      "is_motor": true,
      "motor_id": 2,
      "accel_val": 2000,
      "base_duration_us": 250000
    },
    {
      "id": "M_60",
      "pitch": 72,
      "t_note_us": 13750000,
      "t_trigger_us": 13614037,
      "is_ai": false,
      "track_id": 0,
      "velocity": 0,
      "is_motor": true,
      "motor_id": 0,
      "accel_val": 2000,
      "base_duration_us": 250000
    },
    {
      "id": "M_62",
      "pitch": 81,
      "t_note_us": 14000000,
      "t_trigger_us": 13864037,
      "is_ai": true,
      "track_id": 1,
      "velocity": 0,
      "is_motor": false,
      "motor_id": 0,
      "accel_val": 2000,
      "base_duration_us": 250000
    },
    {
      "id": "M_66",
      "pitch": 65,
      "t_note_us": 14000000,
      "t_trigger_us": 13864037,
      "is_ai": false,
      "track_id": 0,
      "velocity": 0,
      "is_motor": true,
      "motor_id": 1,
      "accel_val": 2000,
      "base_duration_us": 1000000
    },
    {
      "id": "M_63",
      "pitch": 72,
      "t_note_us": 14250000,
      "t_trigger_us": 14114037,
      "is_ai": false,
      "track_id": 0,
      "velocity": 0,
      "is_motor": true,
      "motor_id": 0,
      "accel_val": 2000,
      "base_duration_us": 250000
    },
    {
      "id": "M_64",
      "pitch": 77,
      "t_note_us": 14500000,
      "t_trigger_us": 14364037,
      "is_ai": false,
      "track_id": 0,
      "velocity": 0,
      "is_motor": true,
      "motor_id": 2,
      "accel_val": 2000,
      "base_duration_us": 250000
    },
    {
      "id": "M_65",
      "pitch": 72,
      "t_note_us": 14750000,
      "t_trigger_us": 14614037,
      "is_ai": false,
      "track_id": 0,
      "velocity": 0,
      "is_motor": true,
      "motor_id": 0,
      "accel_val": 2000,
      "base_duration_us": 250000
    },
    {
      "id": "M_67",
      "pitch": 83,
      "t_note_us": 15000000,
      "t_trigger_us": 14864037,
      "is_ai": true,
      "track_id": 2,
      "velocity": 0,
      "is_motor": false,
      "motor_id": 0,
      "accel_val": 2000,
      "base_duration_us": 250000
    },
    {
      "id": "M_71",
      "pitch": 67,
      "t_note_us": 15000000,
      "t_trigger_us": 14864037,
      "is_ai": false,
      "track_id": 0,
      "velocity": 0,
      "is_motor": true,
      "motor_id": 1,
      "accel_val": 2000,
      "base_duration_us": 1000000
    },
    {
      "id": "M_68",
      "pitch": 74,
      "t_note_us": 15250000,
      "t_trigger_us": 15114037,
      "is_ai": false,
      "track_id": 0,
      "velocity": 0,
      "is_motor": true,
      "motor_id": 0,
      "accel_val": 2000,
      "base_duration_us": 250000
    },
    {
      "id": "M_69",
      "pitch": 79,
      "t_note_us": 15500000,
      "t_trigger_us": 15364037,
      "is_ai": true,
      "track_id": 0,
      "velocity": 0,
      "is_motor": false,
      "motor_id": 0,
      "accel_val": 2000,
      "base_duration_us": 250000
    },
    {
      "id": "M_70",
      "pitch": 74,
      "t_note_us": 15750000,
      "t_trigger_us": 15614037,
      "is_ai": false,
      "track_id": 0,
      "velocity": 0,
      "is_motor": true,
      "motor_id": 0,
      "accel_val": 2000,
      "base_duration_us": 250000
    },
    {
      "id": "M_72",
      "pitch": 84,
      "t_note_us": 16000000,
      "t_trigger_us": 15864037,
      "is_ai": true,
      "track_id": 3,
      "velocity": 0,
      "is_motor": false,
      "motor_id": 0,
      "accel_val": 2000,
      "base_duration_us": 250000
    },
    {
      "id": "M_74",
      "pitch": 72,
      "t_note_us": 16000000,
      "t_trigger_us": 15864037,
      "is_ai": false,
      "track_id": 0,
      "velocity": 0,
      "is_motor": true,
      "motor_id": 1,
      "accel_val": 2000,
      "base_duration_us": 500000
    },
    {
      "id": "M_73",
      "pitch": 83,
      "t_note_us": 16250000,
      "t_trigger_us": 16114037,
      "is_ai": true,
      "track_id": 2,
      "velocity": 0,
      "is_motor": false,
      "motor_id": 0,
      "accel_val": 2000,
      "base_duration_us": 250000
    },
    {
      "id": "M_75",
      "pitch": 84,
      "t_note_us": 16500000,
      "t_trigger_us": 16364037,
      "is_ai": true,
      "track_id": 3,
      "velocity": 0,
      "is_motor": false,
      "motor_id": 0,
      "accel_val": 2000,
      "base_duration_us": 250000
    },
    {
      "id": "M_78",
      "pitch": 76,
      "t_note_us": 16500000,
      "t_trigger_us": 16364037,
      "is_ai": false,
      "track_id": 0,
      "velocity": 0,
      "is_motor": true,
      "motor_id": 2,
      "accel_val": 2000,
      "base_duration_us": 500000
    },
    {
      "id": "M_76",
      "pitch": 71,
      "t_note_us": 16750000,
      "t_trigger_us": 16614037,
      "is_ai": false,
      "track_id": 0,
      "velocity": 0,
      "is_motor": true,
      "motor_id": 1,
      "accel_val": 2000,
      "base_duration_us": 125000
    },
    {
      "id": "M_77",
      "pitch": 84,
      "t_note_us": 16875000,
      "t_trigger_us": 16739037,
      "is_ai": true,
      "track_id": 3,
      "velocity": 0,
      "is_motor": false,
      "motor_id": 0,
      "accel_val": 2000,
      "base_duration_us": 125000
    },
    {
      "id": "M_83",
      "pitch": 83,
      "t_note_us": 17000000,
      "t_trigger_us": 16864037,
      "is_ai": true,
      "track_id": 2,
      "velocity": 0,
      "is_motor": false,
      "motor_id": 0,
      "accel_val": 2000,
      "base_duration_us": 1000000
    },
    {
      "id": "M_79",
      "pitch": 67,
      "t_note_us": 17000000,
      "t_trigger_us": 16864037,
      "is_ai": false,
      "track_id": 0,
      "velocity": 0,
      "is_motor": true,
      "motor_id": 1,
      "accel_val": 2000,
      "base_duration_us": 250000
    },
    {
      "id": "M_80",
      "pitch": 71,
      "t_note_us": 17250000,
      "t_trigger_us": 17114037,
      "is_ai": false,
      "track_id": 0,
      "velocity": 0,
      "is_motor": true,
      "motor_id": 1,
      "accel_val": 2000,
      "base_duration_us": 250000
    },
    {
      "id": "M_81",
      "pitch": 74,
      "t_note_us": 17500000,
      "t_trigger_us": 17364037,
      "is_ai": false,
      "track_id": 0,
      "velocity": 0,
      "is_motor": true,
      "motor_id": 1,
      "accel_val": 2000,
      "base_duration_us": 250000
    },
    {
      "id": "M_82",
      "pitch": 71,
      "t_note_us": 17750000,
      "t_trigger_us": 17614037,
      "is_ai": false,
      "track_id": 0,
      "velocity": 0,
      "is_motor": true,
      "motor_id": 1,
      "accel_val": 2000,
      "base_duration_us": 250000
    },
    {
      "id": "M_86",
      "pitch": 84,
      "t_note_us": 18000000,
      "t_trigger_us": 17864037,
      "is_ai": true,
      "track_id": 3,
      "velocity": 0,
      "is_motor": false,
      "motor_id": 0,
      "accel_val": 2000,
      "base_duration_us": 500000
    },
    {
      "id": "M_84",
      "pitch": 69,
      "t_note_us": 18000000,
      "t_trigger_us": 17864037,
      "is_ai": false,
      "track_id": 0,
      "velocity": 0,
      "is_motor": true,
      "motor_id": 1,
      "accel_val": 2000,
      "base_duration_us": 250000
    },
    {
      "id": "M_85",
      "pitch": 72,
      "t_note_us": 18250000,
      "t_trigger_us": 18114037,
      "is_ai": false,
      "track_id": 0,
      "velocity": 0,
      "is_motor": true,
      "motor_id": 1,
      "accel_val": 2000,
      "base_duration_us": 250000
    },
    {
      "id": "M_89",
      "pitch": 88,
      "t_note_us": 18500000,
      "t_trigger_us": 18364037,
      "is_ai": true,
      "track_id": 5,
      "velocity": 0,
      "is_motor": false,
      "motor_id": 0,
      "accel_val": 2000,
      "base_duration_us": 500000
    },
    {
      "id": "M_87",
      "pitch": 76,
      "t_note_us": 18500000,
      "t_trigger_us": 18364037,
      "is_ai": false,
      "track_id": 0,
      "velocity": 0,
      "is_motor": true,
      "motor_id": 2,
      "accel_val": 2000,
      "base_duration_us": 250000
    },
    {
      "id": "M_88",
      "pitch": 72,
      "t_note_us": 18750000,
      "t_trigger_us": 18614037,
      "is_ai": false,
      "track_id": 0,
      "velocity": 0,
      "is_motor": true,
      "motor_id": 1,
      "accel_val": 2000,
      "base_duration_us": 250000
    },
    {
      "id": "M_93",
      "pitch": 91,
      "t_note_us": 19000000,
      "t_trigger_us": 18864037,
      "is_ai": true,
      "track_id": 7,
      "velocity": 0,
      "is_motor": false,
      "motor_id": 0,
      "accel_val": 2000,
      "base_duration_us": 750000
    },
    {
      "id": "M_90",
      "pitch": 64,
      "t_note_us": 19000000,
      "t_trigger_us": 18864037,
      "is_ai": false,
      "track_id": 0,
      "velocity": 0,
      "is_motor": true,
      "motor_id": 1,
      "accel_val": 2000,
      "base_duration_us": 250000
    },
    {
      "id": "M_91",
      "pitch": 67,
      "t_note_us": 19250000,
      "t_trigger_us": 19114037,
      "is_ai": false,
      "track_id": 0,
      "velocity": 0,
      "is_motor": true,
      "motor_id": 1,
      "accel_val": 2000,
      "base_duration_us": 250000
    },
    {
      "id": "M_92",
      "pitch": 71,
      "t_note_us": 19500000,
      "t_trigger_us": 19364037,
      "is_ai": false,
      "track_id": 0,
      "velocity": 0,
      "is_motor": true,
      "motor_id": 1,
      "accel_val": 2000,
      "base_duration_us": 125000
    },
    {
      "id": "M_94",
      "pitch": 93,
      "t_note_us": 19750000,
      "t_trigger_us": 19614037,
      "is_ai": true,
      "track_id": 8,
      "velocity": 0,
      "is_motor": false,
      "motor_id": 0,
      "accel_val": 2000,
      "base_duration_us": 125000
    },
    {
      "id": "M_96",
      "pitch": 89,
      "t_note_us": 20000000,
      "t_trigger_us": 19864037,
      "is_ai": true,
      "track_id": 6,
      "velocity": 0,
      "is_motor": false,
      "motor_id": 0,
      "accel_val": 2000,
      "base_duration_us": 250000
    },
    {
      "id": "M_95",
      "pitch": 65,
      "t_note_us": 20000000,
      "t_trigger_us": 19864037,
      "is_ai": false,
      "track_id": 0,
      "velocity": 0,
      "is_motor": true,
      "motor_id": 1,
      "accel_val": 2000,
      "base_duration_us": 250000
    },
    {
      "id": "M_98",
      "pitch": 88,
      "t_note_us": 20250000,
      "t_trigger_us": 20114037,
      "is_ai": true,
      "track_id": 5,
      "velocity": 0,
      "is_motor": false,
      "motor_id": 0,
      "accel_val": 2000,
      "base_duration_us": 250000
    },
    {
      "id": "M_97",
      "pitch": 69,
      "t_note_us": 20250000,
      "t_trigger_us": 20114037,
      "is_ai": false,
      "track_id": 0,
      "velocity": 0,
      "is_motor": true,
      "motor_id": 1,
      "accel_val": 2000,
      "base_duration_us": 250000
    },
    {
      "id": "M_100",
      "pitch": 86,
      "t_note_us": 20500000,
      "t_trigger_us": 20364037,
      "is_ai": true,
      "track_id": 4,
      "velocity": 0,
      "is_motor": false,
      "motor_id": 0,
      "accel_val": 2000,
      "base_duration_us": 250000
    },
    {
      "id": "M_99",
      "pitch": 72,
      "t_note_us": 20500000,
      "t_trigger_us": 20364037,
      "is_ai": false,
      "track_id": 0,
      "velocity": 0,
      "is_motor": true,
      "motor_id": 1,
      "accel_val": 2000,
      "base_duration_us": 125000
    },
    {
      "id": "M_101",
      "pitch": 89,
      "t_note_us": 20750000,
      "t_trigger_us": 20614037,
      "is_ai": true,
      "track_id": 6,
      "velocity": 0,
      "is_motor": false,
      "motor_id": 0,
      "accel_val": 2000,
      "base_duration_us": 250000
    },
    {
      "id": "M_103",
      "pitch": 88,
      "t_note_us": 21000000,
      "t_trigger_us": 20864037,
      "is_ai": true,
      "track_id": 5,
      "velocity": 0,
      "is_motor": false,
      "motor_id": 0,
      "accel_val": 2000,
      "base_duration_us": 250000
    },
    {
      "id": "M_102",
      "pitch": 60,
      "t_note_us": 21000000,
      "t_trigger_us": 20864037,
      "is_ai": false,
      "track_id": 0,
      "velocity": 0,
      "is_motor": true,
      "motor_id": 1,
      "accel_val": 2000,
      "base_duration_us": 250000
    },
    {
      "id": "M_105",
      "pitch": 86,
      "t_note_us": 21250000,
      "t_trigger_us": 21114037,
      "is_ai": true,
      "track_id": 4,
      "velocity": 0,
      "is_motor": false,
      "motor_id": 0,
      "accel_val": 2000,
      "base_duration_us": 250000
    },
    {
      "id": "M_104",
      "pitch": 64,
      "t_note_us": 21250000,
      "t_trigger_us": 21114037,
      "is_ai": false,
      "track_id": 0,
      "velocity": 0,
      "is_motor": true,
      "motor_id": 1,
      "accel_val": 2000,
      "base_duration_us": 250000
    },
    {
      "id": "M_107",
      "pitch": 84,
      "t_note_us": 21500000,
      "t_trigger_us": 21364037,
      "is_ai": true,
      "track_id": 3,
      "velocity": 0,
      "is_motor": false,
      "motor_id": 0,
      "accel_val": 2000,
      "base_duration_us": 250000
    },
    {
      "id": "M_106",
      "pitch": 67,
      "t_note_us": 21500000,
      "t_trigger_us": 21364037,
      "is_ai": false,
      "track_id": 0,
      "velocity": 0,
      "is_motor": true,
      "motor_id": 1,
      "accel_val": 2000,
      "base_duration_us": 125000
    },
    {
      "id": "M_108",
      "pitch": 83,
      "t_note_us": 21750000,
      "t_trigger_us": 21614037,
      "is_ai": true,
      "track_id": 2,
      "velocity": 0,
      "is_motor": false,
      "motor_id": 0,
      "accel_val": 2000,
      "base_duration_us": 250000
    },
    {
      "id": "M_109",
      "pitch": 81,
      "t_note_us": 22000000,
      "t_trigger_us": 21864037,
      "is_ai": true,
      "track_id": 1,
      "velocity": 0,
      "is_motor": false,
      "motor_id": 0,
      "accel_val": 2000,
      "base_duration_us": 250000
    },
    {
      "id": "M_113",
      "pitch": 65,
      "t_note_us": 22000000,
      "t_trigger_us": 21864037,
      "is_ai": false,
      "track_id": 0,
      "velocity": 0,
      "is_motor": true,
      "motor_id": 1,
      "accel_val": 2000,
      "base_duration_us": 1000000
    },
    {
      "id": "M_110",
      "pitch": 67,
      "t_note_us": 22250000,
      "t_trigger_us": 22114037,
      "is_ai": false,
      "track_id": 0,
      "velocity": 0,
      "is_motor": true,
      "motor_id": 2,
      "accel_val": 2000,
      "base_duration_us": 250000
    },
    {
      "id": "M_111",
      "pitch": 77,
      "t_note_us": 22500000,
      "t_trigger_us": 22364037,
      "is_ai": false,
      "track_id": 0,
      "velocity": 0,
      "is_motor": true,
      "motor_id": 2,
      "accel_val": 2000,
      "base_duration_us": 250000
    },
    {
      "id": "M_112",
      "pitch": 76,
      "t_note_us": 22750000,
      "t_trigger_us": 22614037,
      "is_ai": false,
      "track_id": 0,
      "velocity": 0,
      "is_motor": true,
      "motor_id": 2,
      "accel_val": 2000,
      "base_duration_us": 250000
    },
    {
      "id": "M_114",
      "pitch": 71,
      "t_note_us": 23000000,
      "t_trigger_us": 22864037,
      "is_ai": false,
      "track_id": 0,
      "velocity": 0,
      "is_motor": true,
      "motor_id": 1,
      "accel_val": 2000,
      "base_duration_us": 250000
    },
    {
      "id": "M_115",
      "pitch": 74,
      "t_note_us": 23000000,
      "t_trigger_us": 22864037,
      "is_ai": false,
      "track_id": 0,
      "velocity": 0,
      "is_motor": true,
      "motor_id": 0,
      "accel_val": 2000,
      "base_duration_us": 250000
    },
    {
      "id": "M_119",
      "pitch": 67,
      "t_note_us": 23000000,
      "t_trigger_us": 22864037,
      "is_ai": false,
      "track_id": 0,
      "velocity": 0,
      "is_motor": true,
      "motor_id": 2,
      "accel_val": 2000,
      "base_duration_us": 1000000
    },
    {
      "id": "M_116",
      "pitch": 77,
      "t_note_us": 23250000,
      "t_trigger_us": 23114037,
      "is_ai": false,
      "track_id": 0,
      "velocity": 0,
      "is_motor": true,
      "motor_id": 1,
      "accel_val": 2000,
      "base_duration_us": 250000
    },
    {
      "id": "M_117",
      "pitch": 76,
      "t_note_us": 23500000,
      "t_trigger_us": 23364037,
      "is_ai": false,
      "track_id": 0,
      "velocity": 0,
      "is_motor": true,
      "motor_id": 1,
      "accel_val": 2000,
      "base_duration_us": 250000
    },
    {
      "id": "M_118",
      "pitch": 74,
      "t_note_us": 23750000,
      "t_trigger_us": 23614037,
      "is_ai": false,
      "track_id": 0,
      "velocity": 0,
      "is_motor": true,
      "motor_id": 1,
      "accel_val": 2000,
      "base_duration_us": 250000
    },
    {
      "id": "M_120",
      "pitch": 72,
      "t_note_us": 24000000,
      "t_trigger_us": 23864037,
      "is_ai": false,
      "track_id": 0,
      "velocity": 0,
      "is_motor": true,
      "motor_id": 1,
      "accel_val": 2000,
      "base_duration_us": 250000
    },
    {
      "id": "M_124",
      "pitch": 60,
      "t_note_us": 24000000,
      "t_trigger_us": 23864037,
      "is_ai": false,
      "track_id": 0,
      "velocity": 0,
      "is_motor": true,
      "motor_id": 0,
      "accel_val": 2000,
      "base_duration_us": 1000000
    },
    {
      "id": "M_121",
      "pitch": 74,
      "t_note_us": 24250000,
      "t_trigger_us": 24114037,
      "is_ai": false,
      "track_id": 0,
      "velocity": 0,
      "is_motor": true,
      "motor_id": 1,
      "accel_val": 2000,
      "base_duration_us": 250000
    },
    {
      "id": "M_122",
      "pitch": 76,
      "t_note_us": 24500000,
      "t_trigger_us": 24364037,
      "is_ai": false,
      "track_id": 0,
      "velocity": 0,
      "is_motor": true,
      "motor_id": 2,
      "accel_val": 2000,
      "base_duration_us": 250000
    },
    {
      "id": "M_123",
      "pitch": 77,
      "t_note_us": 24750000,
      "t_trigger_us": 24614037,
      "is_ai": false,
      "track_id": 0,
      "velocity": 0,
      "is_motor": true,
      "motor_id": 2,
      "accel_val": 2000,
      "base_duration_us": 250000
    },
    {
      "id": "M_125",
      "pitch": 71,
      "t_note_us": 25000000,
      "t_trigger_us": 24864037,
      "is_ai": false,
      "track_id": 0,
      "velocity": 0,
      "is_motor": true,
      "motor_id": 1,
      "accel_val": 2000,
      "base_duration_us": 500000
    },
    {
      "id": "M_126",
      "pitch": 67,
      "t_note_us": 25000000,
      "t_trigger_us": 24864037,
      "is_ai": false,
      "track_id": 0,
      "velocity": 0,
      "is_motor": true,
      "motor_id": 2,
      "accel_val": 2000,
      "base_duration_us": 500000
    },
    {
      "id": "M_129",
      "pitch": 55,
      "t_note_us": 25000000,
      "t_trigger_us": 24864037,
      "is_ai": false,
      "track_id": 0,
      "velocity": 0,
      "is_motor": true,
      "motor_id": 0,
      "accel_val": 2000,
      "base_duration_us": 1000000
    },
    {
      "id": "M_127",
      "pitch": 79,
      "t_note_us": 25500000,
      "t_trigger_us": 25364037,
      "is_ai": true,
      "track_id": 0,
      "velocity": 0,
      "is_motor": false,
      "motor_id": 0,
      "accel_val": 2000,
      "base_duration_us": 250000
    },
    {
      "id": "M_128",
      "pitch": 77,
      "t_note_us": 25750000,
      "t_trigger_us": 25614037,
      "is_ai": false,
      "track_id": 0,
      "velocity": 0,
      "is_motor": true,
      "motor_id": 2,
      "accel_val": 2000,
      "base_duration_us": 250000
    },
    {
      "id": "M_130",
      "pitch": 72,
      "t_note_us": 26000000,
      "t_trigger_us": 25864037,
      "is_ai": false,
      "track_id": 0,
      "velocity": 0,
      "is_motor": true,
      "motor_id": 1,
      "accel_val": 2000,
      "base_duration_us": 250000
    },
    {
      "id": "M_131",
      "pitch": 76,
      "t_note_us": 26000000,
      "t_trigger_us": 25864037,
      "is_ai": false,
      "track_id": 0,
      "velocity": 0,
      "is_motor": true,
      "motor_id": 2,
      "accel_val": 2000,
      "base_duration_us": 250000
    },
    {
      "id": "M_135",
      "pitch": 57,
      "t_note_us": 26000000,
      "t_trigger_us": 25864037,
      "is_ai": false,
      "track_id": 0,
      "velocity": 0,
      "is_motor": true,
      "motor_id": 0,
      "accel_val": 2000,
      "base_duration_us": 1000000
    },
    {
      "id": "M_132",
      "pitch": 81,
      "t_note_us": 26250000,
      "t_trigger_us": 26114037,
      "is_ai": true,
      "track_id": 1,
      "velocity": 0,
      "is_motor": false,
      "motor_id": 0,
      "accel_val": 2000,
      "base_duration_us": 250000
    },
    {
      "id": "M_133",
      "pitch": 67,
      "t_note_us": 26500000,
      "t_trigger_us": 26364037,
      "is_ai": false,
      "track_id": 0,
      "velocity": 0,
      "is_motor": true,
      "motor_id": 1,
      "accel_val": 2000,
      "base_duration_us": 250000
    },
    {
      "id": "M_134",
      "pitch": 77,
      "t_note_us": 26750000,
      "t_trigger_us": 26614037,
      "is_ai": false,
      "track_id": 0,
      "velocity": 0,
      "is_motor": true,
      "motor_id": 2,
      "accel_val": 2000,
      "base_duration_us": 250000
    },
    {
      "id": "M_136",
      "pitch": 79,
      "t_note_us": 27000000,
      "t_trigger_us": 26864037,
      "is_ai": true,
      "track_id": 0,
      "velocity": 0,
      "is_motor": false,
      "motor_id": 0,
      "accel_val": 2000,
      "base_duration_us": 250000
    },
    {
      "id": "M_140",
      "pitch": 52,
      "t_note_us": 27000000,
      "t_trigger_us": 26864037,
      "is_ai": false,
      "track_id": 0,
      "velocity": 0,
      "is_motor": true,
      "motor_id": 0,
      "accel_val": 2000,
      "base_duration_us": 1000000
    },
    {
      "id": "M_137",
      "pitch": 77,
      "t_note_us": 27250000,
      "t_trigger_us": 27114037,
      "is_ai": false,
      "track_id": 0,
      "velocity": 0,
      "is_motor": true,
      "motor_id": 2,
      "accel_val": 2000,
      "base_duration_us": 250000
    },
    {
      "id": "M_138",
      "pitch": 76,
      "t_note_us": 27500000,
      "t_trigger_us": 27364037,
      "is_ai": false,
      "track_id": 0,
      "velocity": 0,
      "is_motor": true,
      "motor_id": 2,
      "accel_val": 2000,
      "base_duration_us": 250000
    },
    {
      "id": "M_139",
      "pitch": 74,
      "t_note_us": 27750000,
      "t_trigger_us": 27614037,
      "is_ai": false,
      "track_id": 0,
      "velocity": 0,
      "is_motor": true,
      "motor_id": 1,
      "accel_val": 2000,
      "base_duration_us": 250000
    },
    {
      "id": "M_141",
      "pitch": 72,
      "t_note_us": 28000000,
      "t_trigger_us": 27864037,
      "is_ai": false,
      "track_id": 0,
      "velocity": 0,
      "is_motor": true,
      "motor_id": 1,
      "accel_val": 2000,
      "base_duration_us": 500000
    },
    {
      "id": "M_144",
      "pitch": 53,
      "t_note_us": 28000000,
      "t_trigger_us": 27864037,
      "is_ai": false,
      "track_id": 0,
      "velocity": 0,
      "is_motor": true,
      "motor_id": 0,
      "accel_val": 2000,
      "base_duration_us": 1000000
    },
    {
      "id": "M_142",
      "pitch": 81,
      "t_note_us": 28500000,
      "t_trigger_us": 28364037,
      "is_ai": true,
      "track_id": 1,
      "velocity": 0,
      "is_motor": false,
      "motor_id": 0,
      "accel_val": 2000,
      "base_duration_us": 250000
    },
    {
      "id": "M_143",
      "pitch": 83,
      "t_note_us": 28750000,
      "t_trigger_us": 28614037,
      "is_ai": true,
      "track_id": 2,
      "velocity": 0,
      "is_motor": false,
      "motor_id": 0,
      "accel_val": 2000,
      "base_duration_us": 250000
    },
    {
      "id": "M_146",
      "pitch": 84,
      "t_note_us": 29000000,
      "t_trigger_us": 28864037,
      "is_ai": true,
      "track_id": 3,
      "velocity": 0,
      "is_motor": false,
      "motor_id": 0,
      "accel_val": 2000,
      "base_duration_us": 250000
    },
    {
      "id": "M_145",
      "pitch": 76,
      "t_note_us": 29000000,
      "t_trigger_us": 28864037,
      "is_ai": false,
      "track_id": 0,
      "velocity": 0,
      "is_motor": true,
      "motor_id": 2,
      "accel_val": 2000,
      "base_duration_us": 250000
    },
    {
      "id": "M_150",
      "pitch": 48,
      "t_note_us": 29000000,
      "t_trigger_us": 28864037,
      "is_ai": false,
      "track_id": 0,
      "velocity": 0,
      "is_motor": true,
      "motor_id": 0,
      "accel_val": 2000,
      "base_duration_us": 1000000
    },
    {
      "id": "M_147",
      "pitch": 83,
      "t_note_us": 29250000,
      "t_trigger_us": 29114037,
      "is_ai": true,
      "track_id": 2,
      "velocity": 0,
      "is_motor": false,
      "motor_id": 0,
      "accel_val": 2000,
      "base_duration_us": 250000
    },
    {
      "id": "M_148",
      "pitch": 81,
      "t_note_us": 29500000,
      "t_trigger_us": 29364037,
      "is_ai": true,
      "track_id": 1,
      "velocity": 0,
      "is_motor": false,
      "motor_id": 0,
      "accel_val": 2000,
      "base_duration_us": 250000
    },
    {
      "id": "M_149",
      "pitch": 79,
      "t_note_us": 29750000,
      "t_trigger_us": 29614037,
      "is_ai": true,
      "track_id": 0,
      "velocity": 0,
      "is_motor": false,
      "motor_id": 0,
      "accel_val": 2000,
      "base_duration_us": 250000
    },
    {
      "id": "M_151",
      "pitch": 81,
      "t_note_us": 30000000,
      "t_trigger_us": 29864037,
      "is_ai": true,
      "track_id": 1,
      "velocity": 0,
      "is_motor": false,
      "motor_id": 0,
      "accel_val": 2000,
      "base_duration_us": 500000
    },
    {
      "id": "M_152",
      "pitch": 77,
      "t_note_us": 30000000,
      "t_trigger_us": 29864037,
      "is_ai": false,
      "track_id": 0,
      "velocity": 0,
      "is_motor": true,
      "motor_id": 2,
      "accel_val": 2000,
      "base_duration_us": 500000
    },
    {
      "id": "M_155",
      "pitch": 53,
      "t_note_us": 30000000,
      "t_trigger_us": 29864037,
      "is_ai": false,
      "track_id": 0,
      "velocity": 0,
      "is_motor": true,
      "motor_id": 0,
      "accel_val": 2000,
      "base_duration_us": 1000000
    },
    {
      "id": "M_153",
      "pitch": 71,
      "t_note_us": 30500000,
      "t_trigger_us": 30364037,
      "is_ai": false,
      "track_id": 0,
      "velocity": 0,
      "is_motor": true,
      "motor_id": 1,
      "accel_val": 2000,
      "base_duration_us": 250000
    },
    {
      "id": "M_154",
      "pitch": 84,
      "t_note_us": 30750000,
      "t_trigger_us": 30614037,
      "is_ai": true,
      "track_id": 3,
      "velocity": 0,
      "is_motor": false,
      "motor_id": 0,
      "accel_val": 2000,
      "base_duration_us": 250000
    },
    {
      "id": "M_156",
      "pitch": 83,
      "t_note_us": 31000000,
      "t_trigger_us": 30864037,
      "is_ai": true,
      "track_id": 2,
      "velocity": 0,
      "is_motor": false,
      "motor_id": 0,
      "accel_val": 2000,
      "base_duration_us": 125000
    },
    {
      "id": "M_164",
      "pitch": 55,
      "t_note_us": 31000000,
      "t_trigger_us": 30864037,
      "is_ai": false,
      "track_id": 0,
      "velocity": 0,
      "is_motor": true,
      "motor_id": 0,
      "accel_val": 2000,
      "base_duration_us": 1000000
    },
    {
      "id": "M_157",
      "pitch": 67,
      "t_note_us": 31125000,
      "t_trigger_us": 30989037,
      "is_ai": false,
      "track_id": 0,
      "velocity": 0,
      "is_motor": true,
      "motor_id": 1,
      "accel_val": 2000,
      "base_duration_us": 125000
    },
    {
      "id": "M_158",
      "pitch": 69,
      "t_note_us": 31250000,
      "t_trigger_us": 31114037,
      "is_ai": false,
      "track_id": 0,
      "velocity": 0,
      "is_motor": true,
      "motor_id": 1,
      "accel_val": 2000,
      "base_duration_us": 125000
    },
    {
      "id": "M_159",
      "pitch": 83,
      "t_note_us": 31375000,
      "t_trigger_us": 31239037,
      "is_ai": true,
      "track_id": 2,
      "velocity": 0,
      "is_motor": false,
      "motor_id": 0,
      "accel_val": 2000,
      "base_duration_us": 125000
    },
    {
      "id": "M_160",
      "pitch": 84,
      "t_note_us": 31500000,
      "t_trigger_us": 31364037,
      "is_ai": true,
      "track_id": 3,
      "velocity": 0,
      "is_motor": false,
      "motor_id": 0,
      "accel_val": 2000,
      "base_duration_us": 125000
    },
    {
      "id": "M_161",
      "pitch": 86,
      "t_note_us": 31625000,
      "t_trigger_us": 31489037,
      "is_ai": true,
      "track_id": 4,
      "velocity": 0,
      "is_motor": false,
      "motor_id": 0,
      "accel_val": 2000,
      "base_duration_us": 125000
    },
    {
      "id": "M_162",
      "pitch": 88,
      "t_note_us": 31750000,
      "t_trigger_us": 31614037,
      "is_ai": true,
      "track_id": 5,
      "velocity": 0,
      "is_motor": false,
      "motor_id": 0,
      "accel_val": 2000,
      "base_duration_us": 125000
    },
    {
      "id": "M_163",
      "pitch": 89,
      "t_note_us": 31875000,
      "t_trigger_us": 31739037,
      "is_ai": true,
      "track_id": 6,
      "velocity": 0,
      "is_motor": false,
      "motor_id": 0,
      "accel_val": 2000,
      "base_duration_us": 125000
    },
    {
      "id": "M_165",
      "pitch": 91,
      "t_note_us": 32000000,
      "t_trigger_us": 31864037,
      "is_ai": true,
      "track_id": 7,
      "velocity": 0,
      "is_motor": false,
      "motor_id": 0,
      "accel_val": 2000,
      "base_duration_us": 250000
    },
    {
      "id": "M_171",
      "pitch": 72,
      "t_note_us": 32000000,
      "t_trigger_us": 31864037,
      "is_ai": false,
      "track_id": 0,
      "velocity": 0,
      "is_motor": true,
      "motor_id": 1,
      "accel_val": 2000,
      "base_duration_us": 1000000
    },
    {
      "id": "M_166",
      "pitch": 88,
      "t_note_us": 32250000,
      "t_trigger_us": 32114037,
      "is_ai": true,
      "track_id": 5,
      "velocity": 0,
      "is_motor": false,
      "motor_id": 0,
      "accel_val": 2000,
      "base_duration_us": 125000
    },
    {
      "id": "M_167",
      "pitch": 89,
      "t_note_us": 32375000,
      "t_trigger_us": 32239037,
      "is_ai": true,
      "track_id": 6,
      "velocity": 0,
      "is_motor": false,
      "motor_id": 0,
      "accel_val": 2000,
      "base_duration_us": 125000
    },
    {
      "id": "M_168",
      "pitch": 91,
      "t_note_us": 32500000,
      "t_trigger_us": 32364037,
      "is_ai": true,
      "track_id": 7,
      "velocity": 0,
      "is_motor": false,
      "motor_id": 0,
      "accel_val": 2000,
      "base_duration_us": 250000
    },
    {
      "id": "M_169",
      "pitch": 88,
      "t_note_us": 32750000,
      "t_trigger_us": 32614037,
      "is_ai": true,
      "track_id": 5,
      "velocity": 0,
      "is_motor": false,
      "motor_id": 0,
      "accel_val": 2000,
      "base_duration_us": 125000
    },
    {
      "id": "M_170",
      "pitch": 89,
      "t_note_us": 32875000,
      "t_trigger_us": 32739037,
      "is_ai": true,
      "track_id": 6,
      "velocity": 0,
      "is_motor": false,
      "motor_id": 0,
      "accel_val": 2000,
      "base_duration_us": 125000
    },
    {
      "id": "M_172",
      "pitch": 91,
      "t_note_us": 33000000,
      "t_trigger_us": 32864037,
      "is_ai": true,
      "track_id": 7,
      "velocity": 0,
      "is_motor": false,
      "motor_id": 0,
      "accel_val": 2000,
      "base_duration_us": 125000
    },
    {
      "id": "M_180",
      "pitch": 67,
      "t_note_us": 33000000,
      "t_trigger_us": 32864037,
      "is_ai": false,
      "track_id": 0,
      "velocity": 0,
      "is_motor": true,
      "motor_id": 1,
      "accel_val": 2000,
      "base_duration_us": 1000000
    },
    {
      "id": "M_173",
      "pitch": 67,
      "t_note_us": 33125000,
      "t_trigger_us": 32989037,
      "is_ai": false,
      "track_id": 0,
      "velocity": 0,
      "is_motor": true,
      "motor_id": 2,
      "accel_val": 2000,
      "base_duration_us": 125000
    },
    {
      "id": "M_174",
      "pitch": 69,
      "t_note_us": 33250000,
      "t_trigger_us": 33114037,
      "is_ai": false,
      "track_id": 0,
      "velocity": 0,
      "is_motor": true,
      "motor_id": 2,
      "accel_val": 2000,
      "base_duration_us": 125000
    },
    {
      "id": "M_175",
      "pitch": 83,
      "t_note_us": 33375000,
      "t_trigger_us": 33239037,
      "is_ai": true,
      "track_id": 2,
      "velocity": 0,
      "is_motor": false,
      "motor_id": 0,
      "accel_val": 2000,
      "base_duration_us": 125000
    },
    {
      "id": "M_176",
      "pitch": 84,
      "t_note_us": 33500000,
      "t_trigger_us": 33364037,
      "is_ai": true,
      "track_id": 3,
      "velocity": 0,
      "is_motor": false,
      "motor_id": 0,
      "accel_val": 2000,
      "base_duration_us": 125000
    },
    {
      "id": "M_177",
      "pitch": 86,
      "t_note_us": 33625000,
      "t_trigger_us": 33489037,
      "is_ai": true,
      "track_id": 4,
      "velocity": 0,
      "is_motor": false,
      "motor_id": 0,
      "accel_val": 2000,
      "base_duration_us": 125000
    },
    {
      "id": "M_178",
      "pitch": 88,
      "t_note_us": 33750000,
      "t_trigger_us": 33614037,
      "is_ai": true,
      "track_id": 5,
      "velocity": 0,
      "is_motor": false,
      "motor_id": 0,
      "accel_val": 2000,
      "base_duration_us": 125000
    },
    {
      "id": "M_179",
      "pitch": 89,
      "t_note_us": 33875000,
      "t_trigger_us": 33739037,
      "is_ai": true,
      "track_id": 6,
      "velocity": 0,
      "is_motor": false,
      "motor_id": 0,
      "accel_val": 2000,
      "base_duration_us": 125000
    },
    {
      "id": "M_181",
      "pitch": 88,
      "t_note_us": 34000000,
      "t_trigger_us": 33864037,
      "is_ai": true,
      "track_id": 5,
      "velocity": 0,
      "is_motor": false,
      "motor_id": 0,
      "accel_val": 2000,
      "base_duration_us": 250000
    },
    {
      "id": "M_187",
      "pitch": 69,
      "t_note_us": 34000000,
      "t_trigger_us": 33864037,
      "is_ai": false,
      "track_id": 0,
      "velocity": 0,
      "is_motor": true,
      "motor_id": 1,
      "accel_val": 2000,
      "base_duration_us": 1000000
    },
    {
      "id": "M_182",
      "pitch": 84,
      "t_note_us": 34250000,
      "t_trigger_us": 34114037,
      "is_ai": true,
      "track_id": 3,
      "velocity": 0,
      "is_motor": false,
      "motor_id": 0,
      "accel_val": 2000,
      "base_duration_us": 125000
    },
    {
      "id": "M_183",
      "pitch": 86,
      "t_note_us": 34375000,
      "t_trigger_us": 34239037,
      "is_ai": true,
      "track_id": 4,
      "velocity": 0,
      "is_motor": false,
      "motor_id": 0,
      "accel_val": 2000,
      "base_duration_us": 125000
    },
    {
      "id": "M_184",
      "pitch": 88,
      "t_note_us": 34500000,
      "t_trigger_us": 34364037,
      "is_ai": true,
      "track_id": 5,
      "velocity": 0,
      "is_motor": false,
      "motor_id": 0,
      "accel_val": 2000,
      "base_duration_us": 250000
    },
    {
      "id": "M_185",
      "pitch": 76,
      "t_note_us": 34750000,
      "t_trigger_us": 34614037,
      "is_ai": false,
      "track_id": 0,
      "velocity": 0,
      "is_motor": true,
      "motor_id": 2,
      "accel_val": 2000,
      "base_duration_us": 125000
    },
    {
      "id": "M_186",
      "pitch": 77,
      "t_note_us": 34875000,
      "t_trigger_us": 34739037,
      "is_ai": false,
      "track_id": 0,
      "velocity": 0,
      "is_motor": true,
      "motor_id": 2,
      "accel_val": 2000,
      "base_duration_us": 125000
    },
    {
      "id": "M_188",
      "pitch": 67,
      "t_note_us": 35000000,
      "t_trigger_us": 34864037,
      "is_ai": false,
      "track_id": 0,
      "velocity": 0,
      "is_motor": true,
      "motor_id": 1,
      "accel_val": 2000,
      "base_duration_us": 125000
    },
    {
      "id": "M_196",
      "pitch": 64,
      "t_note_us": 35000000,
      "t_trigger_us": 34864037,
      "is_ai": false,
      "track_id": 0,
      "velocity": 0,
      "is_motor": true,
      "motor_id": 0,
      "accel_val": 2000,
      "base_duration_us": 1000000
    },
    {
      "id": "M_189",
      "pitch": 69,
      "t_note_us": 35125000,
      "t_trigger_us": 34989037,
      "is_ai": false,
      "track_id": 0,
      "velocity": 0,
      "is_motor": true,
      "motor_id": 1,
      "accel_val": 2000,
      "base_duration_us": 125000
    },
    {
      "id": "M_190",
      "pitch": 67,
      "t_note_us": 35250000,
      "t_trigger_us": 35114037,
      "is_ai": false,
      "track_id": 0,
      "velocity": 0,
      "is_motor": true,
      "motor_id": 1,
      "accel_val": 2000,
      "base_duration_us": 125000
    },
    {
      "id": "M_191",
      "pitch": 77,
      "t_note_us": 35375000,
      "t_trigger_us": 35239037,
      "is_ai": false,
      "track_id": 0,
      "velocity": 0,
      "is_motor": true,
      "motor_id": 2,
      "accel_val": 2000,
      "base_duration_us": 125000
    },
    {
      "id": "M_192",
      "pitch": 67,
      "t_note_us": 35500000,
      "t_trigger_us": 35364037,
      "is_ai": false,
      "track_id": 0,
      "velocity": 0,
      "is_motor": true,
      "motor_id": 1,
      "accel_val": 2000,
      "base_duration_us": 125000
    },
    {
      "id": "M_193",
      "pitch": 84,
      "t_note_us": 35625000,
      "t_trigger_us": 35489037,
      "is_ai": true,
      "track_id": 3,
      "velocity": 0,
      "is_motor": false,
      "motor_id": 0,
      "accel_val": 2000,
      "base_duration_us": 125000
    },
    {
      "id": "M_194",
      "pitch": 83,
      "t_note_us": 35750000,
      "t_trigger_us": 35614037,
      "is_ai": true,
      "track_id": 2,
      "velocity": 0,
      "is_motor": false,
      "motor_id": 0,
      "accel_val": 2000,
      "base_duration_us": 125000
    },
    {
      "id": "M_195",
      "pitch": 84,
      "t_note_us": 35875000,
      "t_trigger_us": 35739037,
      "is_ai": true,
      "track_id": 3,
      "velocity": 0,
      "is_motor": false,
      "motor_id": 0,
      "accel_val": 2000,
      "base_duration_us": 125000
    },
    {
      "id": "M_197",
      "pitch": 81,
      "t_note_us": 36000000,
      "t_trigger_us": 35864037,
      "is_ai": true,
      "track_id": 1,
      "velocity": 0,
      "is_motor": false,
      "motor_id": 0,
      "accel_val": 2000,
      "base_duration_us": 250000
    },
    {
      "id": "M_203",
      "pitch": 65,
      "t_note_us": 36000000,
      "t_trigger_us": 35864037,
      "is_ai": false,
      "track_id": 0,
      "velocity": 0,
      "is_motor": true,
      "motor_id": 1,
      "accel_val": 2000,
      "base_duration_us": 1000000
    },
    {
      "id": "M_198",
      "pitch": 84,
      "t_note_us": 36250000,
      "t_trigger_us": 36114037,
      "is_ai": true,
      "track_id": 3,
      "velocity": 0,
      "is_motor": false,
      "motor_id": 0,
      "accel_val": 2000,
      "base_duration_us": 125000
    },
    {
      "id": "M_199",
      "pitch": 83,
      "t_note_us": 36375000,
      "t_trigger_us": 36239037,
      "is_ai": true,
      "track_id": 2,
      "velocity": 0,
      "is_motor": false,
      "motor_id": 0,
      "accel_val": 2000,
      "base_duration_us": 125000
    },
    {
      "id": "M_200",
      "pitch": 81,
      "t_note_us": 36500000,
      "t_trigger_us": 36364037,
      "is_ai": true,
      "track_id": 1,
      "velocity": 0,
      "is_motor": false,
      "motor_id": 0,
      "accel_val": 2000,
      "base_duration_us": 250000
    },
    {
      "id": "M_201",
      "pitch": 67,
      "t_note_us": 36750000,
      "t_trigger_us": 36614037,
      "is_ai": false,
      "track_id": 0,
      "velocity": 0,
      "is_motor": true,
      "motor_id": 2,
      "accel_val": 2000,
      "base_duration_us": 125000
    },
    {
      "id": "M_202",
      "pitch": 77,
      "t_note_us": 36875000,
      "t_trigger_us": 36739037,
      "is_ai": false,
      "track_id": 0,
      "velocity": 0,
      "is_motor": true,
      "motor_id": 2,
      "accel_val": 2000,
      "base_duration_us": 125000
    },
    {
      "id": "M_204",
      "pitch": 67,
      "t_note_us": 37000000,
      "t_trigger_us": 36864037,
      "is_ai": false,
      "track_id": 0,
      "velocity": 0,
      "is_motor": true,
      "motor_id": 1,
      "accel_val": 2000,
      "base_duration_us": 125000
    },
    {
      "id": "M_212",
      "pitch": 60,
      "t_note_us": 37000000,
      "t_trigger_us": 36864037,
      "is_ai": false,
      "track_id": 0,
      "velocity": 0,
      "is_motor": true,
      "motor_id": 0,
      "accel_val": 2000,
      "base_duration_us": 1000000
    },
    {
      "id": "M_205",
      "pitch": 77,
      "t_note_us": 37125000,
      "t_trigger_us": 36989037,
      "is_ai": false,
      "track_id": 0,
      "velocity": 0,
      "is_motor": true,
      "motor_id": 2,
      "accel_val": 2000,
      "base_duration_us": 125000
    },
    {
      "id": "M_206",
      "pitch": 76,
      "t_note_us": 37250000,
      "t_trigger_us": 37114037,
      "is_ai": false,
      "track_id": 0,
      "velocity": 0,
      "is_motor": true,
      "motor_id": 2,
      "accel_val": 2000,
      "base_duration_us": 125000
    },
    {
      "id": "M_207",
      "pitch": 77,
      "t_note_us": 37375000,
      "t_trigger_us": 37239037,
      "is_ai": false,
      "track_id": 0,
      "velocity": 0,
      "is_motor": true,
      "motor_id": 2,
      "accel_val": 2000,
      "base_duration_us": 125000
    },
    {
      "id": "M_208",
      "pitch": 67,
      "t_note_us": 37500000,
      "t_trigger_us": 37364037,
      "is_ai": false,
      "track_id": 0,
      "velocity": 0,
      "is_motor": true,
      "motor_id": 1,
      "accel_val": 2000,
      "base_duration_us": 125000
    },
    {
      "id": "M_209",
      "pitch": 81,
      "t_note_us": 37625000,
      "t_trigger_us": 37489037,
      "is_ai": true,
      "track_id": 1,
      "velocity": 0,
      "is_motor": false,
      "motor_id": 0,
      "accel_val": 2000,
      "base_duration_us": 125000
    },
    {
      "id": "M_210",
      "pitch": 83,
      "t_note_us": 37750000,
      "t_trigger_us": 37614037,
      "is_ai": true,
      "track_id": 2,
      "velocity": 0,
      "is_motor": false,
      "motor_id": 0,
      "accel_val": 2000,
      "base_duration_us": 125000
    },
    {
      "id": "M_211",
      "pitch": 84,
      "t_note_us": 37875000,
      "t_trigger_us": 37739037,
      "is_ai": true,
      "track_id": 3,
      "velocity": 0,
      "is_motor": false,
      "motor_id": 0,
      "accel_val": 2000,
      "base_duration_us": 125000
    },
    {
      "id": "M_213",
      "pitch": 81,
      "t_note_us": 38000000,
      "t_trigger_us": 37864037,
      "is_ai": true,
      "track_id": 1,
      "velocity": 0,
      "is_motor": false,
      "motor_id": 0,
      "accel_val": 2000,
      "base_duration_us": 250000
    },
    {
      "id": "M_218",
      "pitch": 65,
      "t_note_us": 38000000,
      "t_trigger_us": 37864037,
      "is_ai": false,
      "track_id": 0,
      "velocity": 0,
      "is_motor": true,
      "motor_id": 1,
      "accel_val": 2000,
      "base_duration_us": 1000000
    },
    {
      "id": "M_214",
      "pitch": 84,
      "t_note_us": 38250000,
      "t_trigger_us": 38114037,
      "is_ai": true,
      "track_id": 3,
      "velocity": 0,
      "is_motor": false,
      "motor_id": 0,
      "accel_val": 2000,
      "base_duration_us": 125000
    },
    {
      "id": "M_215",
      "pitch": 83,
      "t_note_us": 38375000,
      "t_trigger_us": 38239037,
      "is_ai": true,
      "track_id": 2,
      "velocity": 0,
      "is_motor": false,
      "motor_id": 0,
      "accel_val": 2000,
      "base_duration_us": 125000
    },
    {
      "id": "M_216",
      "pitch": 84,
      "t_note_us": 38500000,
      "t_trigger_us": 38364037,
      "is_ai": true,
      "track_id": 3,
      "velocity": 0,
      "is_motor": false,
      "motor_id": 0,
      "accel_val": 2000,
      "base_duration_us": 250000
    },
    {
      "id": "M_217",
      "pitch": 84,
      "t_note_us": 38750000,
      "t_trigger_us": 38614037,
      "is_ai": true,
      "track_id": 3,
      "velocity": 0,
      "is_motor": false,
      "motor_id": 0,
      "accel_val": 2000,
      "base_duration_us": 250000
    },
    {
      "id": "M_219",
      "pitch": 83,
      "t_note_us": 39000000,
      "t_trigger_us": 38864037,
      "is_ai": true,
      "track_id": 2,
      "velocity": 0,
      "is_motor": false,
      "motor_id": 0,
      "accel_val": 2000,
      "base_duration_us": 125000
    },
    {
      "id": "M_227",
      "pitch": 67,
      "t_note_us": 39000000,
      "t_trigger_us": 38864037,
      "is_ai": false,
      "track_id": 0,
      "velocity": 0,
      "is_motor": true,
      "motor_id": 1,
      "accel_val": 2000,
      "base_duration_us": 1000000
    },
    {
      "id": "M_220",
      "pitch": 67,
      "t_note_us": 39125000,
      "t_trigger_us": 38989037,
      "is_ai": false,
      "track_id": 0,
      "velocity": 0,
      "is_motor": true,
      "motor_id": 2,
      "accel_val": 2000,
      "base_duration_us": 125000
    },
    {
      "id": "M_221",
      "pitch": 69,
      "t_note_us": 39250000,
      "t_trigger_us": 39114037,
      "is_ai": false,
      "track_id": 0,
      "velocity": 0,
      "is_motor": true,
      "motor_id": 2,
      "accel_val": 2000,
      "base_duration_us": 125000
    },
    {
      "id": "M_222",
      "pitch": 83,
      "t_note_us": 39375000,
      "t_trigger_us": 39239037,
      "is_ai": true,
      "track_id": 2,
      "velocity": 0,
      "is_motor": false,
      "motor_id": 0,
      "accel_val": 2000,
      "base_duration_us": 125000
    },
    {
      "id": "M_223",
      "pitch": 84,
      "t_note_us": 39500000,
      "t_trigger_us": 39364037,
      "is_ai": true,
      "track_id": 3,
      "velocity": 0,
      "is_motor": false,
      "motor_id": 0,
      "accel_val": 2000,
      "base_duration_us": 125000
    },
    {
      "id": "M_224",
      "pitch": 86,
      "t_note_us": 39625000,
      "t_trigger_us": 39489037,
      "is_ai": true,
      "track_id": 4,
      "velocity": 0,
      "is_motor": false,
      "motor_id": 0,
      "accel_val": 2000,
      "base_duration_us": 125000
    },
    {
      "id": "M_225",
      "pitch": 88,
      "t_note_us": 39750000,
      "t_trigger_us": 39614037,
      "is_ai": true,
      "track_id": 5,
      "velocity": 0,
      "is_motor": false,
      "motor_id": 0,
      "accel_val": 2000,
      "base_duration_us": 125000
    },
    {
      "id": "M_226",
      "pitch": 89,
      "t_note_us": 39875000,
      "t_trigger_us": 39739037,
      "is_ai": true,
      "track_id": 6,
      "velocity": 0,
      "is_motor": false,
      "motor_id": 0,
      "accel_val": 2000,
      "base_duration_us": 125000
    },
    {
      "id": "M_228",
      "pitch": 91,
      "t_note_us": 40000000,
      "t_trigger_us": 39864037,
      "is_ai": true,
      "track_id": 7,
      "velocity": 0,
      "is_motor": false,
      "motor_id": 0,
      "accel_val": 2000,
      "base_duration_us": 250000
    },
    {
      "id": "M_233",
      "pitch": 72,
      "t_note_us": 40000000,
      "t_trigger_us": 39864037,
      "is_ai": false,
      "track_id": 0,
      "velocity": 0,
      "is_motor": true,
      "motor_id": 1,
      "accel_val": 2000,
      "base_duration_us": 1000000
    },
    {
      "id": "M_229",
      "pitch": 88,
      "t_note_us": 40250000,
      "t_trigger_us": 40114037,
      "is_ai": true,
      "track_id": 5,
      "velocity": 0,
      "is_motor": false,
      "motor_id": 0,
      "accel_val": 2000,
      "base_duration_us": 125000
    },
    {
      "id": "M_230",
      "pitch": 89,
      "t_note_us": 40375000,
      "t_trigger_us": 40239037,
      "is_ai": true,
      "track_id": 6,
      "velocity": 0,
      "is_motor": false,
      "motor_id": 0,
      "accel_val": 2000,
      "base_duration_us": 125000
    },
    {
      "id": "M_231",
      "pitch": 91,
      "t_note_us": 40500000,
      "t_trigger_us": 40364037,
      "is_ai": true,
      "track_id": 7,
      "velocity": 0,
      "is_motor": false,
      "motor_id": 0,
      "accel_val": 2000,
      "base_duration_us": 250000
    },
    {
      "id": "M_232",
      "pitch": 91,
      "t_note_us": 40750000,
      "t_trigger_us": 40614037,
      "is_ai": true,
      "track_id": 7,
      "velocity": 0,
      "is_motor": false,
      "motor_id": 0,
      "accel_val": 2000,
      "base_duration_us": 250000
    },
    {
      "id": "M_234",
      "pitch": 88,
      "t_note_us": 41000000,
      "t_trigger_us": 40864037,
      "is_ai": true,
      "track_id": 5,
      "velocity": 0,
      "is_motor": false,
      "motor_id": 0,
      "accel_val": 2000,
      "base_duration_us": 500000
    },
    {
      "id": "M_235",
      "pitch": 91,
      "t_note_us": 41000000,
      "t_trigger_us": 40864037,
      "is_ai": true,
      "track_id": 7,
      "velocity": 0,
      "is_motor": false,
      "motor_id": 0,
      "accel_val": 2000,
      "base_duration_us": 500000
    },
    {
      "id": "M_238",
      "pitch": 67,
      "t_note_us": 41000000,
      "t_trigger_us": 40864037,
      "is_ai": false,
      "track_id": 0,
      "velocity": 0,
      "is_motor": true,
      "motor_id": 1,
      "accel_val": 2000,
      "base_duration_us": 1000000
    },
    {
      "id": "M_236",
      "pitch": 86,
      "t_note_us": 41500000,
      "t_trigger_us": 41364037,
      "is_ai": true,
      "track_id": 4,
      "velocity": 0,
      "is_motor": false,
      "motor_id": 0,
      "accel_val": 2000,
      "base_duration_us": 500000
    },
    {
      "id": "M_237",
      "pitch": 89,
      "t_note_us": 41500000,
      "t_trigger_us": 41364037,
      "is_ai": true,
      "track_id": 6,
      "velocity": 0,
      "is_motor": false,
      "motor_id": 0,
      "accel_val": 2000,
      "base_duration_us": 500000
    },
    {
      "id": "M_239",
      "pitch": 88,
      "t_note_us": 42000000,
      "t_trigger_us": 41864037,
      "is_ai": true,
      "track_id": 5,
      "velocity": 0,
      "is_motor": false,
      "motor_id": 0,
      "accel_val": 2000,
      "base_duration_us": 250000
    },
    {
      "id": "M_244",
      "pitch": 69,
      "t_note_us": 42000000,
      "t_trigger_us": 41864037,
      "is_ai": false,
      "track_id": 0,
      "velocity": 0,
      "is_motor": true,
      "motor_id": 1,
      "accel_val": 2000,
      "base_duration_us": 1000000
    },
    {
      "id": "M_240",
      "pitch": 84,
      "t_note_us": 42250000,
      "t_trigger_us": 42114037,
      "is_ai": true,
      "track_id": 3,
      "velocity": 0,
      "is_motor": false,
      "motor_id": 0,
      "accel_val": 2000,
      "base_duration_us": 125000
    },
    {
      "id": "M_241",
      "pitch": 86,
      "t_note_us": 42375000,
      "t_trigger_us": 42239037,
      "is_ai": true,
      "track_id": 4,
      "velocity": 0,
      "is_motor": false,
      "motor_id": 0,
      "accel_val": 2000,
      "base_duration_us": 125000
    },
    {
      "id": "M_242",
      "pitch": 88,
      "t_note_us": 42500000,
      "t_trigger_us": 42364037,
      "is_ai": true,
      "track_id": 5,
      "velocity": 0,
      "is_motor": false,
      "motor_id": 0,
      "accel_val": 2000,
      "base_duration_us": 250000
    },
    {
      "id": "M_243",
      "pitch": 88,
      "t_note_us": 42750000,
      "t_trigger_us": 42614037,
      "is_ai": true,
      "track_id": 5,
      "velocity": 0,
      "is_motor": false,
      "motor_id": 0,
      "accel_val": 2000,
      "base_duration_us": 250000
    },
    {
      "id": "M_245",
      "pitch": 84,
      "t_note_us": 43000000,
      "t_trigger_us": 42864037,
      "is_ai": true,
      "track_id": 3,
      "velocity": 0,
      "is_motor": false,
      "motor_id": 0,
      "accel_val": 2000,
      "base_duration_us": 500000
    },
    {
      "id": "M_246",
      "pitch": 88,
      "t_note_us": 43000000,
      "t_trigger_us": 42864037,
      "is_ai": true,
      "track_id": 5,
      "velocity": 0,
      "is_motor": false,
      "motor_id": 0,
      "accel_val": 2000,
      "base_duration_us": 500000
    },
    {
      "id": "M_249",
      "pitch": 64,
      "t_note_us": 43000000,
      "t_trigger_us": 42864037,
      "is_ai": false,
      "track_id": 0,
      "velocity": 0,
      "is_motor": true,
      "motor_id": 1,
      "accel_val": 2000,
      "base_duration_us": 1000000
    },
    {
      "id": "M_247",
      "pitch": 83,
      "t_note_us": 43500000,
      "t_trigger_us": 43364037,
      "is_ai": true,
      "track_id": 2,
      "velocity": 0,
      "is_motor": false,
      "motor_id": 0,
      "accel_val": 2000,
      "base_duration_us": 500000
    },
    {
      "id": "M_248",
      "pitch": 86,
      "t_note_us": 43500000,
      "t_trigger_us": 43364037,
      "is_ai": true,
      "track_id": 4,
      "velocity": 0,
      "is_motor": false,
      "motor_id": 0,
      "accel_val": 2000,
      "base_duration_us": 500000
    },
    {
      "id": "M_250",
      "pitch": 84,
      "t_note_us": 44000000,
      "t_trigger_us": 43864037,
      "is_ai": true,
      "track_id": 3,
      "velocity": 0,
      "is_motor": false,
      "motor_id": 0,
      "accel_val": 2000,
      "base_duration_us": 250000
    },
    {
      "id": "M_256",
      "pitch": 65,
      "t_note_us": 44000000,
      "t_trigger_us": 43864037,
      "is_ai": false,
      "track_id": 0,
      "velocity": 0,
      "is_motor": true,
      "motor_id": 1,
      "accel_val": 2000,
      "base_duration_us": 1000000
    },
    {
      "id": "M_251",
      "pitch": 84,
      "t_note_us": 44250000,
      "t_trigger_us": 44114037,
      "is_ai": true,
      "track_id": 3,
      "velocity": 0,
      "is_motor": false,
      "motor_id": 0,
      "accel_val": 2000,
      "base_duration_us": 125000
    },
    {
      "id": "M_252",
      "pitch": 83,
      "t_note_us": 44375000,
      "t_trigger_us": 44239037,
      "is_ai": true,
      "track_id": 2,
      "velocity": 0,
      "is_motor": false,
      "motor_id": 0,
      "accel_val": 2000,
      "base_duration_us": 125000
    },
    {
      "id": "M_253",
      "pitch": 81,
      "t_note_us": 44500000,
      "t_trigger_us": 44364037,
      "is_ai": true,
      "track_id": 1,
      "velocity": 0,
      "is_motor": false,
      "motor_id": 0,
      "accel_val": 2000,
      "base_duration_us": 250000
    },
    {
      "id": "M_254",
      "pitch": 67,
      "t_note_us": 44750000,
      "t_trigger_us": 44614037,
      "is_ai": false,
      "track_id": 0,
      "velocity": 0,
      "is_motor": true,
      "motor_id": 2,
      "accel_val": 2000,
      "base_duration_us": 125000
    },
    {
      "id": "M_255",
      "pitch": 77,
      "t_note_us": 44875000,
      "t_trigger_us": 44739037,
      "is_ai": false,
      "track_id": 0,
      "velocity": 0,
      "is_motor": true,
      "motor_id": 2,
      "accel_val": 2000,
      "base_duration_us": 125000
    },
    {
      "id": "M_257",
      "pitch": 67,
      "t_note_us": 45000000,
      "t_trigger_us": 44864037,
      "is_ai": false,
      "track_id": 0,
      "velocity": 0,
      "is_motor": true,
      "motor_id": 1,
      "accel_val": 2000,
      "base_duration_us": 125000
    },
    {
      "id": "M_265",
      "pitch": 60,
      "t_note_us": 45000000,
      "t_trigger_us": 44864037,
      "is_ai": false,
      "track_id": 0,
      "velocity": 0,
      "is_motor": true,
      "motor_id": 0,
      "accel_val": 2000,
      "base_duration_us": 1000000
    },
    {
      "id": "M_258",
      "pitch": 77,
      "t_note_us": 45125000,
      "t_trigger_us": 44989037,
      "is_ai": false,
      "track_id": 0,
      "velocity": 0,
      "is_motor": true,
      "motor_id": 2,
      "accel_val": 2000,
      "base_duration_us": 125000
    },
    {
      "id": "M_259",
      "pitch": 76,
      "t_note_us": 45250000,
      "t_trigger_us": 45114037,
      "is_ai": false,
      "track_id": 0,
      "velocity": 0,
      "is_motor": true,
      "motor_id": 2,
      "accel_val": 2000,
      "base_duration_us": 125000
    },
    {
      "id": "M_260",
      "pitch": 77,
      "t_note_us": 45375000,
      "t_trigger_us": 45239037,
      "is_ai": false,
      "track_id": 0,
      "velocity": 0,
      "is_motor": true,
      "motor_id": 2,
      "accel_val": 2000,
      "base_duration_us": 125000
    },
    {
      "id": "M_261",
      "pitch": 67,
      "t_note_us": 45500000,
      "t_trigger_us": 45364037,
      "is_ai": false,
      "track_id": 0,
      "velocity": 0,
      "is_motor": true,
      "motor_id": 1,
      "accel_val": 2000,
      "base_duration_us": 125000
    },
    {
      "id": "M_262",
      "pitch": 81,
      "t_note_us": 45625000,
      "t_trigger_us": 45489037,
      "is_ai": true,
      "track_id": 1,
      "velocity": 0,
      "is_motor": false,
      "motor_id": 0,
      "accel_val": 2000,
      "base_duration_us": 125000
    },
    {
      "id": "M_263",
      "pitch": 83,
      "t_note_us": 45750000,
      "t_trigger_us": 45614037,
      "is_ai": true,
      "track_id": 2,
      "velocity": 0,
      "is_motor": false,
      "motor_id": 0,
      "accel_val": 2000,
      "base_duration_us": 125000
    },
    {
      "id": "M_264",
      "pitch": 84,
      "t_note_us": 45875000,
      "t_trigger_us": 45739037,
      "is_ai": true,
      "track_id": 3,
      "velocity": 0,
      "is_motor": false,
      "motor_id": 0,
      "accel_val": 2000,
      "base_duration_us": 125000
    },
    {
      "id": "M_266",
      "pitch": 81,
      "t_note_us": 46000000,
      "t_trigger_us": 45864037,
      "is_ai": true,
      "track_id": 1,
      "velocity": 0,
      "is_motor": false,
      "motor_id": 0,
      "accel_val": 2000,
      "base_duration_us": 250000
    },
    {
      "id": "M_271",
      "pitch": 65,
      "t_note_us": 46000000,
      "t_trigger_us": 45864037,
      "is_ai": false,
      "track_id": 0,
      "velocity": 0,
      "is_motor": true,
      "motor_id": 1,
      "accel_val": 2000,
      "base_duration_us": 1000000
    },
    {
      "id": "M_267",
      "pitch": 84,
      "t_note_us": 46250000,
      "t_trigger_us": 46114037,
      "is_ai": true,
      "track_id": 3,
      "velocity": 0,
      "is_motor": false,
      "motor_id": 0,
      "accel_val": 2000,
      "base_duration_us": 125000
    },
    {
      "id": "M_268",
      "pitch": 83,
      "t_note_us": 46375000,
      "t_trigger_us": 46239037,
      "is_ai": true,
      "track_id": 2,
      "velocity": 0,
      "is_motor": false,
      "motor_id": 0,
      "accel_val": 2000,
      "base_duration_us": 125000
    },
    {
      "id": "M_269",
      "pitch": 84,
      "t_note_us": 46500000,
      "t_trigger_us": 46364037,
      "is_ai": true,
      "track_id": 3,
      "velocity": 0,
      "is_motor": false,
      "motor_id": 0,
      "accel_val": 2000,
      "base_duration_us": 250000
    },
    {
      "id": "M_270",
      "pitch": 84,
      "t_note_us": 46750000,
      "t_trigger_us": 46614037,
      "is_ai": true,
      "track_id": 3,
      "velocity": 0,
      "is_motor": false,
      "motor_id": 0,
      "accel_val": 2000,
      "base_duration_us": 250000
    },
    {
      "id": "M_272",
      "pitch": 83,
      "t_note_us": 47000000,
      "t_trigger_us": 46864037,
      "is_ai": true,
      "track_id": 2,
      "velocity": 0,
      "is_motor": false,
      "motor_id": 0,
      "accel_val": 2000,
      "base_duration_us": 500000
    },
    {
      "id": "M_274",
      "pitch": 67,
      "t_note_us": 47000000,
      "t_trigger_us": 46864037,
      "is_ai": false,
      "track_id": 0,
      "velocity": 0,
      "is_motor": true,
      "motor_id": 1,
      "accel_val": 2000,
      "base_duration_us": 1000000
    },
    {
      "id": "M_273",
      "pitch": 67,
      "t_note_us": 47500000,
      "t_trigger_us": 47364037,
      "is_ai": false,
      "track_id": 0,
      "velocity": 0,
      "is_motor": true,
      "motor_id": 2,
      "accel_val": 2000,
      "base_duration_us": 500000
    },
    {
      "id": "M_277",
      "pitch": 91,
      "t_note_us": 48000000,
      "t_trigger_us": 47864037,
      "is_ai": true,
      "track_id": 7,
      "velocity": 0,
      "is_motor": false,
      "motor_id": 0,
      "accel_val": 2000,
      "base_duration_us": 750000
    },
    {
      "id": "M_275",
      "pitch": 60,
      "t_note_us": 48000000,
      "t_trigger_us": 47864037,
      "is_ai": false,
      "track_id": 0,
      "velocity": 0,
      "is_motor": true,
      "motor_id": 1,
      "accel_val": 2000,
      "base_duration_us": 250000
    },
    {
      "id": "M_276",
      "pitch": 64,
      "t_note_us": 48250000,
      "t_trigger_us": 48114037,
      "is_ai": false,
      "track_id": 0,
      "velocity": 0,
      "is_motor": true,
      "motor_id": 1,
      "accel_val": 2000,
      "base_duration_us": 250000
    },
    {
      "id": "M_279",
      "pitch": 67,
      "t_note_us": 48500000,
      "t_trigger_us": 48364037,
      "is_ai": false,
      "track_id": 0,
      "velocity": 0,
      "is_motor": true,
      "motor_id": 1,
      "accel_val": 2000,
      "base_duration_us": 500000
    },
    {
      "id": "M_278",
      "pitch": 91,
      "t_note_us": 48750000,
      "t_trigger_us": 48614037,
      "is_ai": true,
      "track_id": 7,
      "velocity": 0,
      "is_motor": false,
      "motor_id": 0,
      "accel_val": 2000,
      "base_duration_us": 250000
    },
    {
      "id": "M_280",
      "pitch": 91,
      "t_note_us": 49000000,
      "t_trigger_us": 48864037,
      "is_ai": true,
      "track_id": 7,
      "velocity": 0,
      "is_motor": false,
      "motor_id": 0,
      "accel_val": 2000,
      "base_duration_us": 250000
    },
    {
      "id": "M_282",
      "pitch": 74,
      "t_note_us": 49000000,
      "t_trigger_us": 48864037,
      "is_ai": false,
      "track_id": 0,
      "velocity": 0,
      "is_motor": true,
      "motor_id": 1,
      "accel_val": 2000,
      "base_duration_us": 500000
    },
    {
      "id": "M_283",
      "pitch": 71,
      "t_note_us": 49000000,
      "t_trigger_us": 48864037,
      "is_ai": false,
      "track_id": 0,
      "velocity": 0,
      "is_motor": true,
      "motor_id": 2,
      "accel_val": 2000,
      "base_duration_us": 500000
    },
    {
      "id": "M_281",
      "pitch": 93,
      "t_note_us": 49250000,
      "t_trigger_us": 49114037,
      "is_ai": true,
      "track_id": 8,
      "velocity": 0,
      "is_motor": false,
      "motor_id": 0,
      "accel_val": 2000,
      "base_duration_us": 250000
    },
    {
      "id": "M_284",
      "pitch": 91,
      "t_note_us": 49500000,
      "t_trigger_us": 49364037,
      "is_ai": true,
      "track_id": 7,
      "velocity": 0,
      "is_motor": false,
      "motor_id": 0,
      "accel_val": 2000,
      "base_duration_us": 250000
    },
    {
      "id": "M_286",
      "pitch": 74,
      "t_note_us": 49500000,
      "t_trigger_us": 49364037,
      "is_ai": false,
      "track_id": 0,
      "velocity": 0,
      "is_motor": true,
      "motor_id": 1,
      "accel_val": 2000,
      "base_duration_us": 500000
    },
    {
      "id": "M_287",
      "pitch": 71,
      "t_note_us": 49500000,
      "t_trigger_us": 49364037,
      "is_ai": false,
      "track_id": 0,
      "velocity": 0,
      "is_motor": true,
      "motor_id": 2,
      "accel_val": 2000,
      "base_duration_us": 500000
    },
    {
      "id": "M_285",
      "pitch": 89,
      "t_note_us": 49750000,
      "t_trigger_us": 49614037,
      "is_ai": true,
      "track_id": 6,
      "velocity": 0,
      "is_motor": false,
      "motor_id": 0,
      "accel_val": 2000,
      "base_duration_us": 250000
    },
    {
      "id": "M_290",
      "pitch": 88,
      "t_note_us": 50000000,
      "t_trigger_us": 49864037,
      "is_ai": true,
      "track_id": 5,
      "velocity": 0,
      "is_motor": false,
      "motor_id": 0,
      "accel_val": 2000,
      "base_duration_us": 750000
    },
    {
      "id": "M_288",
      "pitch": 72,
      "t_note_us": 50000000,
      "t_trigger_us": 49864037,
      "is_ai": false,
      "track_id": 0,
      "velocity": 0,
      "is_motor": true,
      "motor_id": 1,
      "accel_val": 2000,
      "base_duration_us": 500000
    },
    {
      "id": "M_289",
      "pitch": 69,
      "t_note_us": 50000000,
      "t_trigger_us": 49864037,
      "is_ai": false,
      "track_id": 0,
      "velocity": 0,
      "is_motor": true,
      "motor_id": 2,
      "accel_val": 2000,
      "base_duration_us": 500000
    },
    {
      "id": "M_292",
      "pitch": 72,
      "t_note_us": 50500000,
      "t_trigger_us": 50364037,
      "is_ai": false,
      "track_id": 0,
      "velocity": 0,
      "is_motor": true,
      "motor_id": 1,
      "accel_val": 2000,
      "base_duration_us": 500000
    },
    {
      "id": "M_293",
      "pitch": 69,
      "t_note_us": 50500000,
      "t_trigger_us": 50364037,
      "is_ai": false,
      "track_id": 0,
      "velocity": 0,
      "is_motor": true,
      "motor_id": 2,
      "accel_val": 2000,
      "base_duration_us": 500000
    },
    {
      "id": "M_291",
      "pitch": 88,
      "t_note_us": 50750000,
      "t_trigger_us": 50614037,
      "is_ai": true,
      "track_id": 5,
      "velocity": 0,
      "is_motor": false,
      "motor_id": 0,
      "accel_val": 2000,
      "base_duration_us": 250000
    },
    {
      "id": "M_294",
      "pitch": 88,
      "t_note_us": 51000000,
      "t_trigger_us": 50864037,
      "is_ai": true,
      "track_id": 5,
      "velocity": 0,
      "is_motor": false,
      "motor_id": 0,
      "accel_val": 2000,
      "base_duration_us": 250000
    },
    {
      "id": "M_296",
      "pitch": 71,
      "t_note_us": 51000000,
      "t_trigger_us": 50864037,
      "is_ai": false,
      "track_id": 0,
      "velocity": 0,
      "is_motor": true,
      "motor_id": 1,
      "accel_val": 2000,
      "base_duration_us": 500000
    },
    {
      "id": "M_297",
      "pitch": 67,
      "t_note_us": 51000000,
      "t_trigger_us": 50864037,
      "is_ai": false,
      "track_id": 0,
      "velocity": 0,
      "is_motor": true,
      "motor_id": 2,
      "accel_val": 2000,
      "base_duration_us": 500000
    },
    {
      "id": "M_295",
      "pitch": 89,
      "t_note_us": 51250000,
      "t_trigger_us": 51114037,
      "is_ai": true,
      "track_id": 6,
      "velocity": 0,
      "is_motor": false,
      "motor_id": 0,
      "accel_val": 2000,
      "base_duration_us": 250000
    },
    {
      "id": "M_298",
      "pitch": 88,
      "t_note_us": 51500000,
      "t_trigger_us": 51364037,
      "is_ai": true,
      "track_id": 5,
      "velocity": 0,
      "is_motor": false,
      "motor_id": 0,
      "accel_val": 2000,
      "base_duration_us": 250000
    },
    {
      "id": "M_300",
      "pitch": 71,
      "t_note_us": 51500000,
      "t_trigger_us": 51364037,
      "is_ai": false,
      "track_id": 0,
      "velocity": 0,
      "is_motor": true,
      "motor_id": 1,
      "accel_val": 2000,
      "base_duration_us": 500000
    },
    {
      "id": "M_301",
      "pitch": 67,
      "t_note_us": 51500000,
      "t_trigger_us": 51364037,
      "is_ai": false,
      "track_id": 0,
      "velocity": 0,
      "is_motor": true,
      "motor_id": 2,
      "accel_val": 2000,
      "base_duration_us": 500000
    },
    {
      "id": "M_299",
      "pitch": 86,
      "t_note_us": 51750000,
      "t_trigger_us": 51614037,
      "is_ai": true,
      "track_id": 4,
      "velocity": 0,
      "is_motor": false,
      "motor_id": 0,
      "accel_val": 2000,
      "base_duration_us": 250000
    },
    {
      "id": "M_302",
      "pitch": 84,
      "t_note_us": 52000000,
      "t_trigger_us": 51864037,
      "is_ai": true,
      "track_id": 3,
      "velocity": 0,
      "is_motor": false,
      "motor_id": 0,
      "accel_val": 2000,
      "base_duration_us": 250000
    },
    {
      "id": "M_304",
      "pitch": 69,
      "t_note_us": 52000000,
      "t_trigger_us": 51864037,
      "is_ai": false,
      "track_id": 0,
      "velocity": 0,
      "is_motor": true,
      "motor_id": 1,
      "accel_val": 2000,
      "base_duration_us": 500000
    },
    {
      "id": "M_305",
      "pitch": 65,
      "t_note_us": 52000000,
      "t_trigger_us": 51864037,
      "is_ai": false,
      "track_id": 0,
      "velocity": 0,
      "is_motor": true,
      "motor_id": 0,
      "accel_val": 2000,
      "base_duration_us": 500000
    },
    {
      "id": "M_303",
      "pitch": 83,
      "t_note_us": 52250000,
      "t_trigger_us": 52114037,
      "is_ai": true,
      "track_id": 2,
      "velocity": 0,
      "is_motor": false,
      "motor_id": 0,
      "accel_val": 2000,
      "base_duration_us": 250000
    },
    {
      "id": "M_306",
      "pitch": 81,
      "t_note_us": 52500000,
      "t_trigger_us": 52364037,
      "is_ai": true,
      "track_id": 1,
      "velocity": 0,
      "is_motor": false,
      "motor_id": 0,
      "accel_val": 2000,
      "base_duration_us": 250000
    },
    {
      "id": "M_308",
      "pitch": 69,
      "t_note_us": 52500000,
      "t_trigger_us": 52364037,
      "is_ai": false,
      "track_id": 0,
      "velocity": 0,
      "is_motor": true,
      "motor_id": 1,
      "accel_val": 2000,
      "base_duration_us": 500000
    },
    {
      "id": "M_309",
      "pitch": 65,
      "t_note_us": 52500000,
      "t_trigger_us": 52364037,
      "is_ai": false,
      "track_id": 0,
      "velocity": 0,
      "is_motor": true,
      "motor_id": 0,
      "accel_val": 2000,
      "base_duration_us": 500000
    },
    {
      "id": "M_307",
      "pitch": 83,
      "t_note_us": 52750000,
      "t_trigger_us": 52614037,
      "is_ai": true,
      "track_id": 2,
      "velocity": 0,
      "is_motor": false,
      "motor_id": 0,
      "accel_val": 2000,
      "base_duration_us": 250000
    },
    {
      "id": "M_314",
      "pitch": 84,
      "t_note_us": 53000000,
      "t_trigger_us": 52864037,
      "is_ai": true,
      "track_id": 3,
      "velocity": 0,
      "is_motor": false,
      "motor_id": 0,
      "accel_val": 2000,
      "base_duration_us": 1000000
    },
    {
      "id": "M_310",
      "pitch": 64,
      "t_note_us": 53000000,
      "t_trigger_us": 52864037,
      "is_ai": false,
      "track_id": 0,
      "velocity": 0,
      "is_motor": true,
      "motor_id": 1,
      "accel_val": 2000,
      "base_duration_us": 500000
    },
    {
      "id": "M_311",
      "pitch": 67,
      "t_note_us": 53000000,
      "t_trigger_us": 52864037,
      "is_ai": false,
      "track_id": 0,
      "velocity": 0,
      "is_motor": true,
      "motor_id": 2,
      "accel_val": 2000,
      "base_duration_us": 500000
    },
    {
      "id": "M_312",
      "pitch": 64,
      "t_note_us": 53500000,
      "t_trigger_us": 53364037,
      "is_ai": false,
      "track_id": 0,
      "velocity": 0,
      "is_motor": true,
      "motor_id": 1,
      "accel_val": 2000,
      "base_duration_us": 500000
    },
    {
      "id": "M_313",
      "pitch": 67,
      "t_note_us": 53500000,
      "t_trigger_us": 53364037,
      "is_ai": false,
      "track_id": 0,
      "velocity": 0,
      "is_motor": true,
      "motor_id": 2,
      "accel_val": 2000,
      "base_duration_us": 500000
    },
    {
      "id": "M_315",
      "pitch": 84,
      "t_note_us": 54000000,
      "t_trigger_us": 53864037,
      "is_ai": true,
      "track_id": 3,
      "velocity": 0,
      "is_motor": false,
      "motor_id": 0,
      "accel_val": 2000,
      "base_duration_us": 250000
    },
    {
      "id": "M_317",
      "pitch": 69,
      "t_note_us": 54000000,
      "t_trigger_us": 53864037,
      "is_ai": false,
      "track_id": 0,
      "velocity": 0,
      "is_motor": true,
      "motor_id": 1,
      "accel_val": 2000,
      "base_duration_us": 500000
    },
    {
      "id": "M_318",
      "pitch": 65,
      "t_note_us": 54000000,
      "t_trigger_us": 53864037,
      "is_ai": false,
      "track_id": 0,
      "velocity": 0,
      "is_motor": true,
      "motor_id": 0,
      "accel_val": 2000,
      "base_duration_us": 500000
    },
    {
      "id": "M_316",
      "pitch": 83,
      "t_note_us": 54250000,
      "t_trigger_us": 54114037,
      "is_ai": true,
      "track_id": 2,
      "velocity": 0,
      "is_motor": false,
      "motor_id": 0,
      "accel_val": 2000,
      "base_duration_us": 250000
    },
    {
      "id": "M_321",
      "pitch": 84,
      "t_note_us": 54500000,
      "t_trigger_us": 54364037,
      "is_ai": true,
      "track_id": 3,
      "velocity": 0,
      "is_motor": false,
      "motor_id": 0,
      "accel_val": 2000,
      "base_duration_us": 500000
    },
    {
      "id": "M_319",
      "pitch": 69,
      "t_note_us": 54500000,
      "t_trigger_us": 54364037,
      "is_ai": false,
      "track_id": 0,
      "velocity": 0,
      "is_motor": true,
      "motor_id": 1,
      "accel_val": 2000,
      "base_duration_us": 500000
    },
    {
      "id": "M_320",
      "pitch": 65,
      "t_note_us": 54500000,
      "t_trigger_us": 54364037,
      "is_ai": false,
      "track_id": 0,
      "velocity": 0,
      "is_motor": true,
      "motor_id": 0,
      "accel_val": 2000,
      "base_duration_us": 500000
    },
    {
      "id": "M_324",
      "pitch": 83,
      "t_note_us": 55000000,
      "t_trigger_us": 54864037,
      "is_ai": true,
      "track_id": 2,
      "velocity": 0,
      "is_motor": false,
      "motor_id": 0,
      "accel_val": 2000,
      "base_duration_us": 1000000
    },
    {
      "id": "M_322",
      "pitch": 67,
      "t_note_us": 55000000,
      "t_trigger_us": 54864037,
      "is_ai": false,
      "track_id": 0,
      "velocity": 0,
      "is_motor": true,
      "motor_id": 1,
      "accel_val": 2000,
      "base_duration_us": 500000
    },
    {
      "id": "M_323",
      "pitch": 55,
      "t_note_us": 55500000,
      "t_trigger_us": 55364037,
      "is_ai": false,
      "track_id": 0,
      "velocity": 0,
      "is_motor": true,
      "motor_id": 0,
      "accel_val": 2000,
      "base_duration_us": 500000
    },
    {
      "id": "M_327",
      "pitch": 84,
      "t_note_us": 56000000,
      "t_trigger_us": 55864037,
      "is_ai": true,
      "track_id": 3,
      "velocity": 0,
      "is_motor": false,
      "motor_id": 0,
      "accel_val": 2000,
      "base_duration_us": 750000
    },
    {
      "id": "M_325",
      "pitch": 60,
      "t_note_us": 56000000,
      "t_trigger_us": 55864037,
      "is_ai": false,
      "track_id": 0,
      "velocity": 0,
      "is_motor": true,
      "motor_id": 1,
      "accel_val": 2000,
      "base_duration_us": 250000
    },
    {
      "id": "M_326",
      "pitch": 64,
      "t_note_us": 56250000,
      "t_trigger_us": 56114037,
      "is_ai": false,
      "track_id": 0,
      "velocity": 0,
      "is_motor": true,
      "motor_id": 1,
      "accel_val": 2000,
      "base_duration_us": 250000
    },
    {
      "id": "M_329",
      "pitch": 67,
      "t_note_us": 56500000,
      "t_trigger_us": 56364037,
      "is_ai": false,
      "track_id": 0,
      "velocity": 0,
      "is_motor": true,
      "motor_id": 1,
      "accel_val": 2000,
      "base_duration_us": 500000
    },
    {
      "id": "M_328",
      "pitch": 67,
      "t_note_us": 56750000,
      "t_trigger_us": 56614037,
      "is_ai": false,
      "track_id": 0,
      "velocity": 0,
      "is_motor": true,
      "motor_id": 2,
      "accel_val": 2000,
      "base_duration_us": 250000
    },
    {
      "id": "M_330",
      "pitch": 79,
      "t_note_us": 57000000,
      "t_trigger_us": 56864037,
      "is_ai": true,
      "track_id": 0,
      "velocity": 0,
      "is_motor": false,
      "motor_id": 0,
      "accel_val": 2000,
      "base_duration_us": 250000
    },
    {
      "id": "M_332",
      "pitch": 74,
      "t_note_us": 57000000,
      "t_trigger_us": 56864037,
      "is_ai": false,
      "track_id": 0,
      "velocity": 0,
      "is_motor": true,
      "motor_id": 1,
      "accel_val": 2000,
      "base_duration_us": 500000
    },
    {
      "id": "M_333",
      "pitch": 71,
      "t_note_us": 57000000,
      "t_trigger_us": 56864037,
      "is_ai": false,
      "track_id": 0,
      "velocity": 0,
      "is_motor": true,
      "motor_id": 2,
      "accel_val": 2000,
      "base_duration_us": 500000
    },
    {
      "id": "M_331",
      "pitch": 81,
      "t_note_us": 57250000,
      "t_trigger_us": 57114037,
      "is_ai": true,
      "track_id": 1,
      "velocity": 0,
      "is_motor": false,
      "motor_id": 0,
      "accel_val": 2000,
      "base_duration_us": 250000
    },
    {
      "id": "M_334",
      "pitch": 79,
      "t_note_us": 57500000,
      "t_trigger_us": 57364037,
      "is_ai": true,
      "track_id": 0,
      "velocity": 0,
      "is_motor": false,
      "motor_id": 0,
      "accel_val": 2000,
      "base_duration_us": 250000
    },
    {
      "id": "M_336",
      "pitch": 74,
      "t_note_us": 57500000,
      "t_trigger_us": 57364037,
      "is_ai": false,
      "track_id": 0,
      "velocity": 0,
      "is_motor": true,
      "motor_id": 1,
      "accel_val": 2000,
      "base_duration_us": 500000
    },
    {
      "id": "M_337",
      "pitch": 71,
      "t_note_us": 57500000,
      "t_trigger_us": 57364037,
      "is_ai": false,
      "track_id": 0,
      "velocity": 0,
      "is_motor": true,
      "motor_id": 2,
      "accel_val": 2000,
      "base_duration_us": 500000
    },
    {
      "id": "M_335",
      "pitch": 77,
      "t_note_us": 57750000,
      "t_trigger_us": 57614037,
      "is_ai": false,
      "track_id": 0,
      "velocity": 0,
      "is_motor": true,
      "motor_id": 3,
      "accel_val": 2000,
      "base_duration_us": 250000
    },
    {
      "id": "M_338",
      "pitch": 72,
      "t_note_us": 58000000,
      "t_trigger_us": 57864037,
      "is_ai": false,
      "track_id": 0,
      "velocity": 0,
      "is_motor": true,
      "motor_id": 1,
      "accel_val": 2000,
      "base_duration_us": 500000
    },
    {
      "id": "M_339",
      "pitch": 69,
      "t_note_us": 58000000,
      "t_trigger_us": 57864037,
      "is_ai": false,
      "track_id": 0,
      "velocity": 0,
      "is_motor": true,
      "motor_id": 2,
      "accel_val": 2000,
      "base_duration_us": 500000
    },
    {
      "id": "M_340",
      "pitch": 76,
      "t_note_us": 58000000,
      "t_trigger_us": 57864037,
      "is_ai": false,
      "track_id": 0,
      "velocity": 0,
      "is_motor": true,
      "motor_id": 3,
      "accel_val": 2000,
      "base_duration_us": 750000
    },
    {
      "id": "M_342",
      "pitch": 72,
      "t_note_us": 58500000,
      "t_trigger_us": 58364037,
      "is_ai": false,
      "track_id": 0,
      "velocity": 0,
      "is_motor": true,
      "motor_id": 1,
      "accel_val": 2000,
      "base_duration_us": 500000
    },
    {
      "id": "M_343",
      "pitch": 69,
      "t_note_us": 58500000,
      "t_trigger_us": 58364037,
      "is_ai": false,
      "track_id": 0,
      "velocity": 0,
      "is_motor": true,
      "motor_id": 2,
      "accel_val": 2000,
      "base_duration_us": 500000
    },
    {
      "id": "M_341",
      "pitch": 76,
      "t_note_us": 58750000,
      "t_trigger_us": 58614037,
      "is_ai": false,
      "track_id": 0,
      "velocity": 0,
      "is_motor": true,
      "motor_id": 3,
      "accel_val": 2000,
      "base_duration_us": 250000
    },
    {
      "id": "M_344",
      "pitch": 76,
      "t_note_us": 59000000,
      "t_trigger_us": 58864037,
      "is_ai": false,
      "track_id": 0,
      "velocity": 0,
      "is_motor": true,
      "motor_id": 2,
      "accel_val": 2000,
      "base_duration_us": 250000
    },
    {
      "id": "M_346",
      "pitch": 71,
      "t_note_us": 59000000,
      "t_trigger_us": 58864037,
      "is_ai": false,
      "track_id": 0,
      "velocity": 0,
      "is_motor": true,
      "motor_id": 1,
      "accel_val": 2000,
      "base_duration_us": 500000
    },
    {
      "id": "M_347",
      "pitch": 67,
      "t_note_us": 59000000,
      "t_trigger_us": 58864037,
      "is_ai": false,
      "track_id": 0,
      "velocity": 0,
      "is_motor": true,
      "motor_id": 0,
      "accel_val": 2000,
      "base_duration_us": 500000
    },
    {
      "id": "M_345",
      "pitch": 77,
      "t_note_us": 59250000,
      "t_trigger_us": 59114037,
      "is_ai": false,
      "track_id": 0,
      "velocity": 0,
      "is_motor": true,
      "motor_id": 2,
      "accel_val": 2000,
      "base_duration_us": 250000
    },
    {
      "id": "M_348",
      "pitch": 76,
      "t_note_us": 59500000,
      "t_trigger_us": 59364037,
      "is_ai": false,
      "track_id": 0,
      "velocity": 0,
      "is_motor": true,
      "motor_id": 2,
      "accel_val": 2000,
      "base_duration_us": 250000
    },
    {
      "id": "M_350",
      "pitch": 71,
      "t_note_us": 59500000,
      "t_trigger_us": 59364037,
      "is_ai": false,
      "track_id": 0,
      "velocity": 0,
      "is_motor": true,
      "motor_id": 1,
      "accel_val": 2000,
      "base_duration_us": 500000
    },
    {
      "id": "M_351",
      "pitch": 67,
      "t_note_us": 59500000,
      "t_trigger_us": 59364037,
      "is_ai": false,
      "track_id": 0,
      "velocity": 0,
      "is_motor": true,
      "motor_id": 0,
      "accel_val": 2000,
      "base_duration_us": 500000
    },
    {
      "id": "M_349",
      "pitch": 74,
      "t_note_us": 59750000,
      "t_trigger_us": 59614037,
      "is_ai": false,
      "track_id": 0,
      "velocity": 0,
      "is_motor": true,
      "motor_id": 2,
      "accel_val": 2000,
      "base_duration_us": 250000
    },
    {
      "id": "M_352",
      "pitch": 72,
      "t_note_us": 60000000,
      "t_trigger_us": 59864037,
      "is_ai": false,
      "track_id": 0,
      "velocity": 0,
      "is_motor": true,
      "motor_id": 1,
      "accel_val": 2000,
      "base_duration_us": 250000
    },
    {
      "id": "M_354",
      "pitch": 69,
      "t_note_us": 60000000,
      "t_trigger_us": 59864037,
      "is_ai": false,
      "track_id": 0,
      "velocity": 0,
      "is_motor": true,
      "motor_id": 2,
      "accel_val": 2000,
      "base_duration_us": 500000
    },
    {
      "id": "M_355",
      "pitch": 65,
      "t_note_us": 60000000,
      "t_trigger_us": 59864037,
      "is_ai": false,
      "track_id": 0,
      "velocity": 0,
      "is_motor": true,
      "motor_id": 0,
      "accel_val": 2000,
      "base_duration_us": 500000
    },
    {
      "id": "M_353",
      "pitch": 71,
      "t_note_us": 60250000,
      "t_trigger_us": 60114037,
      "is_ai": false,
      "track_id": 0,
      "velocity": 0,
      "is_motor": true,
      "motor_id": 1,
      "accel_val": 2000,
      "base_duration_us": 250000
    },
    {
      "id": "M_356",
      "pitch": 69,
      "t_note_us": 60500000,
      "t_trigger_us": 60364037,
      "is_ai": false,
      "track_id": 0,
      "velocity": 0,
      "is_motor": true,
      "motor_id": 1,
      "accel_val": 2000,
      "base_duration_us": 250000
    },
    {
      "id": "M_358",
      "pitch": 65,
      "t_note_us": 60500000,
      "t_trigger_us": 60364037,
      "is_ai": false,
      "track_id": 0,
      "velocity": 0,
      "is_motor": true,
      "motor_id": 0,
      "accel_val": 2000,
      "base_duration_us": 500000
    },
    {
      "id": "M_357",
      "pitch": 71,
      "t_note_us": 60750000,
      "t_trigger_us": 60614037,
      "is_ai": false,
      "track_id": 0,
      "velocity": 0,
      "is_motor": true,
      "motor_id": 1,
      "accel_val": 2000,
      "base_duration_us": 250000
    },
    {
      "id": "M_359",
      "pitch": 67,
      "t_note_us": 61000000,
      "t_trigger_us": 60864037,
      "is_ai": false,
      "track_id": 0,
      "velocity": 0,
      "is_motor": true,
      "motor_id": 1,
      "accel_val": 2000,
      "base_duration_us": 500000
    },
    {
      "id": "M_360",
      "pitch": 64,
      "t_note_us": 61000000,
      "t_trigger_us": 60864037,
      "is_ai": false,
      "track_id": 0,
      "velocity": 0,
      "is_motor": true,
      "motor_id": 0,
      "accel_val": 2000,
      "base_duration_us": 500000
    },
    {
      "id": "M_363",
      "pitch": 72,
      "t_note_us": 61000000,
      "t_trigger_us": 60864037,
      "is_ai": false,
      "track_id": 0,
      "velocity": 0,
      "is_motor": true,
      "motor_id": 2,
      "accel_val": 2000,
      "base_duration_us": 1000000
    },
    {
      "id": "M_361",
      "pitch": 67,
      "t_note_us": 61500000,
      "t_trigger_us": 61364037,
      "is_ai": false,
      "track_id": 0,
      "velocity": 0,
      "is_motor": true,
      "motor_id": 1,
      "accel_val": 2000,
      "base_duration_us": 500000
    },
    {
      "id": "M_362",
      "pitch": 64,
      "t_note_us": 61500000,
      "t_trigger_us": 61364037,
      "is_ai": false,
      "track_id": 0,
      "velocity": 0,
      "is_motor": true,
      "motor_id": 0,
      "accel_val": 2000,
      "base_duration_us": 500000
    },
    {
      "id": "M_364",
      "pitch": 72,
      "t_note_us": 62000000,
      "t_trigger_us": 61864037,
      "is_ai": false,
      "track_id": 0,
      "velocity": 0,
      "is_motor": true,
      "motor_id": 1,
      "accel_val": 2000,
      "base_duration_us": 250000
    },
    {
      "id": "M_366",
      "pitch": 69,
      "t_note_us": 62000000,
      "t_trigger_us": 61864037,
      "is_ai": false,
      "track_id": 0,
      "velocity": 0,
      "is_motor": true,
      "motor_id": 2,
      "accel_val": 2000,
      "base_duration_us": 500000
    },
    {
      "id": "M_367",
      "pitch": 65,
      "t_note_us": 62000000,
      "t_trigger_us": 61864037,
      "is_ai": false,
      "track_id": 0,
      "velocity": 0,
      "is_motor": true,
      "motor_id": 0,
      "accel_val": 2000,
      "base_duration_us": 500000
    },
    {
      "id": "M_365",
      "pitch": 71,
      "t_note_us": 62250000,
      "t_trigger_us": 62114037,
      "is_ai": false,
      "track_id": 0,
      "velocity": 0,
      "is_motor": true,
      "motor_id": 1,
      "accel_val": 2000,
      "base_duration_us": 250000
    },
    {
      "id": "M_368",
      "pitch": 69,
      "t_note_us": 62500000,
      "t_trigger_us": 62364037,
      "is_ai": false,
      "track_id": 0,
      "velocity": 0,
      "is_motor": true,
      "motor_id": 1,
      "accel_val": 2000,
      "base_duration_us": 500000
    },
    {
      "id": "M_369",
      "pitch": 65,
      "t_note_us": 62500000,
      "t_trigger_us": 62364037,
      "is_ai": false,
      "track_id": 0,
      "velocity": 0,
      "is_motor": true,
      "motor_id": 0,
      "accel_val": 2000,
      "base_duration_us": 500000
    },
    {
      "id": "M_370",
      "pitch": 72,
      "t_note_us": 62500000,
      "t_trigger_us": 62364037,
      "is_ai": false,
      "track_id": 0,
      "velocity": 0,
      "is_motor": true,
      "motor_id": 2,
      "accel_val": 2000,
      "base_duration_us": 500000
    },
    {
      "id": "M_371",
      "pitch": 67,
      "t_note_us": 63000000,
      "t_trigger_us": 62864037,
      "is_ai": false,
      "track_id": 0,
      "velocity": 0,
      "is_motor": true,
      "motor_id": 1,
      "accel_val": 2000,
      "base_duration_us": 500000
    },
    {
      "id": "M_373",
      "pitch": 71,
      "t_note_us": 63000000,
      "t_trigger_us": 62864037,
      "is_ai": false,
      "track_id": 0,
      "velocity": 0,
      "is_motor": true,
      "motor_id": 2,
      "accel_val": 2000,
      "base_duration_us": 1000000
    },
    {
      "id": "M_372",
      "pitch": 55,
      "t_note_us": 63500000,
      "t_trigger_us": 63364037,
      "is_ai": false,
      "track_id": 0,
      "velocity": 0,
      "is_motor": true,
      "motor_id": 0,
      "accel_val": 2000,
      "base_duration_us": 500000
    },
    {
      "id": "M_374",
      "pitch": 60,
      "t_note_us": 64000000,
      "t_trigger_us": 63864037,
      "is_ai": false,
      "track_id": 0,
      "velocity": 0,
      "is_motor": true,
      "motor_id": 1,
      "accel_val": 2000,
      "base_duration_us": 250000
    },
    {
      "id": "M_376",
      "pitch": 72,
      "t_note_us": 64000000,
      "t_trigger_us": 63864037,
      "is_ai": false,
      "track_id": 0,
      "velocity": 0,
      "is_motor": true,
      "motor_id": 0,
      "accel_val": 2000,
      "base_duration_us": 500000
    },
    {
      "id": "M_375",
      "pitch": 67,
      "t_note_us": 64250000,
      "t_trigger_us": 64114037,
      "is_ai": false,
      "track_id": 0,
      "velocity": 0,
      "is_motor": true,
      "motor_id": 1,
      "accel_val": 2000,
      "base_duration_us": 250000
    },
    {
      "id": "M_377",
      "pitch": 88,
      "t_note_us": 64500000,
      "t_trigger_us": 64364037,
      "is_ai": true,
      "track_id": 5,
      "velocity": 0,
      "is_motor": false,
      "motor_id": 0,
      "accel_val": 2000,
      "base_duration_us": 500000
    },
    {
      "id": "M_378",
      "pitch": 84,
      "t_note_us": 64500000,
      "t_trigger_us": 64364037,
      "is_ai": true,
      "track_id": 3,
      "velocity": 0,
      "is_motor": false,
      "motor_id": 0,
      "accel_val": 2000,
      "base_duration_us": 500000
    },
    {
      "id": "M_379",
      "pitch": 55,
      "t_note_us": 65000000,
      "t_trigger_us": 64864037,
      "is_ai": false,
      "track_id": 0,
      "velocity": 0,
      "is_motor": true,
      "motor_id": 0,
      "accel_val": 2000,
      "base_duration_us": 250000
    },
    {
      "id": "M_380",
      "pitch": 62,
      "t_note_us": 65250000,
      "t_trigger_us": 65114037,
      "is_ai": false,
      "track_id": 0,
      "velocity": 0,
      "is_motor": true,
      "motor_id": 1,
      "accel_val": 2000,
      "base_duration_us": 250000
    },
    {
      "id": "M_381",
      "pitch": 86,
      "t_note_us": 65500000,
      "t_trigger_us": 65364037,
      "is_ai": true,
      "track_id": 4,
      "velocity": 0,
      "is_motor": false,
      "motor_id": 0,
      "accel_val": 2000,
      "base_duration_us": 500000
    },
    {
      "id": "M_382",
      "pitch": 83,
      "t_note_us": 65500000,
      "t_trigger_us": 65364037,
      "is_ai": true,
      "track_id": 2,
      "velocity": 0,
      "is_motor": false,
      "motor_id": 0,
      "accel_val": 2000,
      "base_duration_us": 500000
    },
    {
      "id": "M_383",
      "pitch": 57,
      "t_note_us": 66000000,
      "t_trigger_us": 65864037,
      "is_ai": false,
      "track_id": 0,
      "velocity": 0,
      "is_motor": true,
      "motor_id": 0,
      "accel_val": 2000,
      "base_duration_us": 250000
    },
    {
      "id": "M_384",
      "pitch": 64,
      "t_note_us": 66250000,
      "t_trigger_us": 66114037,
      "is_ai": false,
      "track_id": 0,
      "velocity": 0,
      "is_motor": true,
      "motor_id": 1,
      "accel_val": 2000,
      "base_duration_us": 250000
    },
    {
      "id": "M_385",
      "pitch": 84,
      "t_note_us": 66500000,
      "t_trigger_us": 66364037,
      "is_ai": true,
      "track_id": 3,
      "velocity": 0,
      "is_motor": false,
      "motor_id": 0,
      "accel_val": 2000,
      "base_duration_us": 500000
    },
    {
      "id": "M_386",
      "pitch": 81,
      "t_note_us": 66500000,
      "t_trigger_us": 66364037,
      "is_ai": true,
      "track_id": 1,
      "velocity": 0,
      "is_motor": false,
      "motor_id": 0,
      "accel_val": 2000,
      "base_duration_us": 500000
    },
    {
      "id": "M_387",
      "pitch": 52,
      "t_note_us": 67000000,
      "t_trigger_us": 66864037,
      "is_ai": false,
      "track_id": 0,
      "velocity": 0,
      "is_motor": true,
      "motor_id": 0,
      "accel_val": 2000,
      "base_duration_us": 250000
    },
    {
      "id": "M_388",
      "pitch": 59,
      "t_note_us": 67250000,
      "t_trigger_us": 67114037,
      "is_ai": false,
      "track_id": 0,
      "velocity": 0,
      "is_motor": true,
      "motor_id": 0,
      "accel_val": 2000,
      "base_duration_us": 250000
    },
    {
      "id": "M_389",
      "pitch": 83,
      "t_note_us": 67500000,
      "t_trigger_us": 67364037,
      "is_ai": true,
      "track_id": 2,
      "velocity": 0,
      "is_motor": false,
      "motor_id": 0,
      "accel_val": 2000,
      "base_duration_us": 500000
    },
    {
      "id": "M_390",
      "pitch": 67,
      "t_note_us": 67500000,
      "t_trigger_us": 67364037,
      "is_ai": false,
      "track_id": 0,
      "velocity": 0,
      "is_motor": true,
      "motor_id": 1,
      "accel_val": 2000,
      "base_duration_us": 500000
    },
    {
      "id": "M_391",
      "pitch": 53,
      "t_note_us": 68000000,
      "t_trigger_us": 67864037,
      "is_ai": false,
      "track_id": 0,
      "velocity": 0,
      "is_motor": true,
      "motor_id": 0,
      "accel_val": 2000,
      "base_duration_us": 250000
    },
    {
      "id": "M_392",
      "pitch": 60,
      "t_note_us": 68250000,
      "t_trigger_us": 68114037,
      "is_ai": false,
      "track_id": 0,
      "velocity": 0,
      "is_motor": true,
      "motor_id": 1,
      "accel_val": 2000,
      "base_duration_us": 250000
    },
    {
      "id": "M_393",
      "pitch": 81,
      "t_note_us": 68500000,
      "t_trigger_us": 68364037,
      "is_ai": true,
      "track_id": 1,
      "velocity": 0,
      "is_motor": false,
      "motor_id": 0,
      "accel_val": 2000,
      "base_duration_us": 500000
    },
    {
      "id": "M_394",
      "pitch": 77,
      "t_note_us": 68500000,
      "t_trigger_us": 68364037,
      "is_ai": false,
      "track_id": 0,
      "velocity": 0,
      "is_motor": true,
      "motor_id": 2,
      "accel_val": 2000,
      "base_duration_us": 500000
    },
    {
      "id": "M_395",
      "pitch": 48,
      "t_note_us": 69000000,
      "t_trigger_us": 68864037,
      "is_ai": false,
      "track_id": 0,
      "velocity": 0,
      "is_motor": true,
      "motor_id": 0,
      "accel_val": 2000,
      "base_duration_us": 250000
    },
    {
      "id": "M_396",
      "pitch": 55,
      "t_note_us": 69250000,
      "t_trigger_us": 69114037,
      "is_ai": false,
      "track_id": 0,
      "velocity": 0,
      "is_motor": true,
      "motor_id": 0,
      "accel_val": 2000,
      "base_duration_us": 250000
    },
    {
      "id": "M_397",
      "pitch": 67,
      "t_note_us": 69500000,
      "t_trigger_us": 69364037,
      "is_ai": false,
      "track_id": 0,
      "velocity": 0,
      "is_motor": true,
      "motor_id": 1,
      "accel_val": 2000,
      "base_duration_us": 500000
    },
    {
      "id": "M_398",
      "pitch": 76,
      "t_note_us": 69500000,
      "t_trigger_us": 69364037,
      "is_ai": false,
      "track_id": 0,
      "velocity": 0,
      "is_motor": true,
      "motor_id": 2,
      "accel_val": 2000,
      "base_duration_us": 500000
    },
    {
      "id": "M_399",
      "pitch": 53,
      "t_note_us": 70000000,
      "t_trigger_us": 69864037,
      "is_ai": false,
      "track_id": 0,
      "velocity": 0,
      "is_motor": true,
      "motor_id": 0,
      "accel_val": 2000,
      "base_duration_us": 250000
    },
    {
      "id": "M_400",
      "pitch": 60,
      "t_note_us": 70250000,
      "t_trigger_us": 70114037,
      "is_ai": false,
      "track_id": 0,
      "velocity": 0,
      "is_motor": true,
      "motor_id": 1,
      "accel_val": 2000,
      "base_duration_us": 250000
    },
    {
      "id": "M_401",
      "pitch": 81,
      "t_note_us": 70500000,
      "t_trigger_us": 70364037,
      "is_ai": true,
      "track_id": 1,
      "velocity": 0,
      "is_motor": false,
      "motor_id": 0,
      "accel_val": 2000,
      "base_duration_us": 500000
    },
    {
      "id": "M_402",
      "pitch": 77,
      "t_note_us": 70500000,
      "t_trigger_us": 70364037,
      "is_ai": false,
      "track_id": 0,
      "velocity": 0,
      "is_motor": true,
      "motor_id": 2,
      "accel_val": 2000,
      "base_duration_us": 500000
    },
    {
      "id": "M_403",
      "pitch": 55,
      "t_note_us": 71000000,
      "t_trigger_us": 70864037,
      "is_ai": false,
      "track_id": 0,
      "velocity": 0,
      "is_motor": true,
      "motor_id": 0,
      "accel_val": 2000,
      "base_duration_us": 250000
    },
    {
      "id": "M_404",
      "pitch": 62,
      "t_note_us": 71250000,
      "t_trigger_us": 71114037,
      "is_ai": false,
      "track_id": 0,
      "velocity": 0,
      "is_motor": true,
      "motor_id": 1,
      "accel_val": 2000,
      "base_duration_us": 250000
    },
    {
      "id": "M_405",
      "pitch": 83,
      "t_note_us": 71500000,
      "t_trigger_us": 71364037,
      "is_ai": true,
      "track_id": 2,
      "velocity": 0,
      "is_motor": false,
      "motor_id": 0,
      "accel_val": 2000,
      "base_duration_us": 500000
    },
    {
      "id": "M_406",
      "pitch": 67,
      "t_note_us": 71500000,
      "t_trigger_us": 71364037,
      "is_ai": false,
      "track_id": 0,
      "velocity": 0,
      "is_motor": true,
      "motor_id": 1,
      "accel_val": 2000,
      "base_duration_us": 500000
    },
    {
      "id": "M_408",
      "pitch": 84,
      "t_note_us": 72000000,
      "t_trigger_us": 71864037,
      "is_ai": true,
      "track_id": 3,
      "velocity": 0,
      "is_motor": false,
      "motor_id": 0,
      "accel_val": 2000,
      "base_duration_us": 1000000
    },
    {
      "id": "M_407",
      "pitch": 60,
      "t_note_us": 72000000,
      "t_trigger_us": 71864037,
      "is_ai": false,
      "track_id": 0,
      "velocity": 0,
      "is_motor": true,
      "motor_id": 1,
      "accel_val": 2000,
      "base_duration_us": 1000000
    },
    {
      "id": "M_409",
      "pitch": 76,
      "t_note_us": 72000000,
      "t_trigger_us": 71864037,
      "is_ai": false,
      "track_id": 0,
      "velocity": 0,
      "is_motor": true,
      "motor_id": 2,
      "accel_val": 2000,
      "base_duration_us": 1000000
    },
    {
      "id": "M_411",
      "pitch": 83,
      "t_note_us": 73000000,
      "t_trigger_us": 72864037,
      "is_ai": true,
      "track_id": 2,
      "velocity": 0,
      "is_motor": false,
      "motor_id": 0,
      "accel_val": 2000,
      "base_duration_us": 1000000
    },
    {
      "id": "M_410",
      "pitch": 55,
      "t_note_us": 73000000,
      "t_trigger_us": 72864037,
      "is_ai": false,
      "track_id": 0,
      "velocity": 0,
      "is_motor": true,
      "motor_id": 0,
      "accel_val": 2000,
      "base_duration_us": 1000000
    },
    {
      "id": "M_412",
      "pitch": 74,
      "t_note_us": 73000000,
      "t_trigger_us": 72864037,
      "is_ai": false,
      "track_id": 0,
      "velocity": 0,
      "is_motor": true,
      "motor_id": 1,
      "accel_val": 2000,
      "base_duration_us": 1000000
    },
    {
      "id": "M_414",
      "pitch": 81,
      "t_note_us": 74000000,
      "t_trigger_us": 73864037,
      "is_ai": true,
      "track_id": 1,
      "velocity": 0,
      "is_motor": false,
      "motor_id": 0,
      "accel_val": 2000,
      "base_duration_us": 1000000
    },
    {
      "id": "M_413",
      "pitch": 57,
      "t_note_us": 74000000,
      "t_trigger_us": 73864037,
      "is_ai": false,
      "track_id": 0,
      "velocity": 0,
      "is_motor": true,
      "motor_id": 0,
      "accel_val": 2000,
      "base_duration_us": 1000000
    },
    {
      "id": "M_415",
      "pitch": 72,
      "t_note_us": 74000000,
      "t_trigger_us": 73864037,
      "is_ai": false,
      "track_id": 0,
      "velocity": 0,
      "is_motor": true,
      "motor_id": 1,
      "accel_val": 2000,
      "base_duration_us": 1000000
    },
    {
      "id": "M_416",
      "pitch": 52,
      "t_note_us": 75000000,
      "t_trigger_us": 74864037,
      "is_ai": false,
      "track_id": 0,
      "velocity": 0,
      "is_motor": true,
      "motor_id": 0,
      "accel_val": 2000,
      "base_duration_us": 1000000
    },
    {
      "id": "M_417",
      "pitch": 67,
      "t_note_us": 75000000,
      "t_trigger_us": 74864037,
      "is_ai": false,
      "track_id": 0,
      "velocity": 0,
      "is_motor": true,
      "motor_id": 1,
      "accel_val": 2000,
      "base_duration_us": 1000000
    },
    {
      "id": "M_418",
      "pitch": 71,
      "t_note_us": 75000000,
      "t_trigger_us": 74864037,
      "is_ai": false,
      "track_id": 0,
      "velocity": 0,
      "is_motor": true,
      "motor_id": 2,
      "accel_val": 2000,
      "base_duration_us": 1000000
    },
    {
      "id": "M_419",
      "pitch": 53,
      "t_note_us": 76000000,
      "t_trigger_us": 75864037,
      "is_ai": false,
      "track_id": 0,
      "velocity": 0,
      "is_motor": true,
      "motor_id": 0,
      "accel_val": 2000,
      "base_duration_us": 1000000
    },
    {
      "id": "M_420",
      "pitch": 69,
      "t_note_us": 76000000,
      "t_trigger_us": 75864037,
      "is_ai": false,
      "track_id": 0,
      "velocity": 0,
      "is_motor": true,
      "motor_id": 1,
      "accel_val": 2000,
      "base_duration_us": 1000000
    },
    {
      "id": "M_421",
      "pitch": 77,
      "t_note_us": 76000000,
      "t_trigger_us": 75864037,
      "is_ai": false,
      "track_id": 0,
      "velocity": 0,
      "is_motor": true,
      "motor_id": 2,
      "accel_val": 2000,
      "base_duration_us": 1000000
    },
    {
      "id": "M_422",
      "pitch": 48,
      "t_note_us": 77000000,
      "t_trigger_us": 76864037,
      "is_ai": false,
      "track_id": 0,
      "velocity": 0,
      "is_motor": true,
      "motor_id": 0,
      "accel_val": 2000,
      "base_duration_us": 1000000
    },
    {
      "id": "M_423",
      "pitch": 72,
      "t_note_us": 77000000,
      "t_trigger_us": 76864037,
      "is_ai": false,
      "track_id": 0,
      "velocity": 0,
      "is_motor": true,
      "motor_id": 1,
      "accel_val": 2000,
      "base_duration_us": 1000000
    },
    {
      "id": "M_424",
      "pitch": 76,
      "t_note_us": 77000000,
      "t_trigger_us": 76864037,
      "is_ai": false,
      "track_id": 0,
      "velocity": 0,
      "is_motor": true,
      "motor_id": 2,
      "accel_val": 2000,
      "base_duration_us": 1000000
    },
    {
      "id": "M_425",
      "pitch": 53,
      "t_note_us": 78000000,
      "t_trigger_us": 77864037,
      "is_ai": false,
      "track_id": 0,
      "velocity": 0,
      "is_motor": true,
      "motor_id": 0,
      "accel_val": 2000,
      "base_duration_us": 1000000
    },
    {
      "id": "M_426",
      "pitch": 69,
      "t_note_us": 78000000,
      "t_trigger_us": 77864037,
      "is_ai": false,
      "track_id": 0,
      "velocity": 0,
      "is_motor": true,
      "motor_id": 1,
      "accel_val": 2000,
      "base_duration_us": 1000000
    },
    {
      "id": "M_427",
      "pitch": 77,
      "t_note_us": 78000000,
      "t_trigger_us": 77864037,
      "is_ai": false,
      "track_id": 0,
      "velocity": 0,
      "is_motor": true,
      "motor_id": 2,
      "accel_val": 2000,
      "base_duration_us": 1000000
    },
    {
      "id": "M_428",
      "pitch": 72,
      "t_note_us": 79000000,
      "t_trigger_us": 78864037,
      "is_ai": false,
      "track_id": 0,
      "velocity": 0,
      "is_motor": true,
      "motor_id": 1,
      "accel_val": 2000,
      "base_duration_us": 500000
    },
    {
      "id": "M_430",
      "pitch": 55,
      "t_note_us": 79000000,
      "t_trigger_us": 78864037,
      "is_ai": false,
      "track_id": 0,
      "velocity": 0,
      "is_motor": true,
      "motor_id": 0,
      "accel_val": 2000,
      "base_duration_us": 1000000
    },
    {
      "id": "M_431",
      "pitch": 67,
      "t_note_us": 79000000,
      "t_trigger_us": 78864037,
      "is_ai": false,
      "track_id": 0,
      "velocity": 0,
      "is_motor": true,
      "motor_id": 2,
      "accel_val": 2000,
      "base_duration_us": 1000000
    },
    {
      "id": "M_429",
      "pitch": 71,
      "t_note_us": 79500000,
      "t_trigger_us": 79364037,
      "is_ai": false,
      "track_id": 0,
      "velocity": 0,
      "is_motor": true,
      "motor_id": 1,
      "accel_val": 2000,
      "base_duration_us": 500000
    },
    {
      "id": "M_432",
      "pitch": 67,
      "t_note_us": 80000000,
      "t_trigger_us": 79864037,
      "is_ai": false,
      "track_id": 0,
      "velocity": 0,
      "is_motor": true,
      "motor_id": 1,
      "accel_val": 2000,
      "base_duration_us": 2000000
    },
    {
      "id": "M_433",
      "pitch": 76,
      "t_note_us": 80000000,
      "t_trigger_us": 79864037,
      "is_ai": false,
      "track_id": 0,
      "velocity": 0,
      "is_motor": true,
      "motor_id": 2,
      "accel_val": 2000,
      "base_duration_us": 2000000
    },
    {
      "id": "M_434",
      "pitch": 72,
      "t_note_us": 80000000,
      "t_trigger_us": 79864037,
      "is_ai": false,
      "track_id": 0,
      "velocity": 0,
      "is_motor": true,
      "motor_id": 0,
      "accel_val": 2000,
      "base_duration_us": 2000000
    },
    {
      "id": "M_435",
      "pitch": 48,
      "t_note_us": 80000000,
      "t_trigger_us": 79864037,
      "is_ai": false,
      "track_id": 0,
      "velocity": 0,
      "is_motor": true,
      "motor_id": 3,
      "accel_val": 2000,
      "base_duration_us": 2000000
    }
  ]
}