{
  "config": {
    "mode_idx": 0,
    "active_motors": [
      0,
      1,
      2,
      3
    ],
    "transpose": 0,
    "arp_speed_ms": 10,
    "gate_time": 100
  },
  "sustain_multiplier": 1.0,
  "notes": [
    {
      "id": "M_0",
      "pitch": 98,
      "t_note_us": 115384,
      "t_trigger_us": 1,
      "is_ai": true,
      "track_id": 11,
      "velocity": 0,
      "is_motor": false,
      "motor_id": 0,
      "accel_val": 2000,
      "base_duration_us": 288461
    },
    {
      "id": "M_1",
      "pitch": 100,
      "t_note_us": 403845,
      "t_trigger_us": 267882,
      "is_ai": true,
      "track_id": 12,
      "velocity": 0,
      "is_motor": false,
      "motor_id": 0,
      "accel_val": 2000,
      "base_duration_us": 295672
    },
    {
      "id": "M_2",
      "pitch": 98,
      "t_note_us": 692306,
      "t_trigger_us": 556343,
      "is_ai": true,
      "track_id": 11,
      "velocity": 0,
      "is_motor": false,
      "motor_id": 0,
      "accel_val": 2000,
      "base_duration_us": 347354
    },
    {
      "id": "M_3",
      "pitch": 96,
      "t_note_us": 1031247,
      "t_trigger_us": 895284,
      "is_ai": true,
      "track_id": 10,
      "velocity": 0,
      "is_motor": false,
      "motor_id": 0,
      "accel_val": 2000,
      "base_duration_us": 325720
    },
    {
      "id": "M_8",
      "pitch": 93,
      "t_note_us": 1328121,
      "t_trigger_us": 1192158,
      "is_ai": true,
      "track_id": 8,
      "velocity": 0,
      "is_motor": false,
      "motor_id": 0,
      "accel_val": 2000,
      "base_duration_us": 472354
    },
    {
      "id": "M_4",
      "pitch": 72,
      "t_note_us": 1328121,
      "t_trigger_us": 1192158,
      "is_ai": false,
      "track_id": 0,
      "velocity": 0,
      "is_motor": true,
      "motor_id": 1,
      "accel_val": 2000,
      "base_duration_us": 295672
    },
    {
      "id": "M_5",
      "pitch": 76,
      "t_note_us": 1328121,
      "t_trigger_us": 1192158,
      "is_ai": false,
      "track_id": 0,
      "velocity": 0,
      "is_motor": true,
      "motor_id": 2,
      "accel_val": 2000,
      "base_duration_us": 324518
    },
    {
      "id": "M_6",
      "pitch": 69,
      "t_note_us": 1328121,
      "t_trigger_us": 1192158,
      "is_ai": false,
      "track_id": 0,
      "velocity": 0,
      "is_motor": true,
      "motor_id": 0,
      "accel_val": 2000,
      "base_duration_us": 324518
    },
    {
      "id": "M_7",
      "pitch": 65,
      "t_note_us": 1328121,
      "t_trigger_us": 1192158,
      "is_ai": false,
      "track_id": 0,
      "velocity": 0,
      "is_motor": true,
      "motor_id": 3,
      "accel_val": 2000,
      "base_duration_us": 324518
    },
    {
      "id": "M_9",
      "pitch": 72,
      "t_note_us": 1623793,
      "t_trigger_us": 1487830,
      "is_ai": false,
      "track_id": 0,
      "velocity": 0,
      "is_motor": true,
      "motor_id": 1,
      "accel_val": 2000,
      "base_duration_us": 176682
    },
    {
      "id": "M_12",
      "pitch": 96,
      "t_note_us": 1770427,
      "t_trigger_us": 1634464,
      "is_ai": true,
      "track_id": 10,
      "velocity": 0,
      "is_motor": false,
      "motor_id": 0,
      "accel_val": 2000,
      "base_duration_us": 473556
    },
    {
      "id": "M_10",
      "pitch": 76,
      "t_note_us": 1770427,
      "t_trigger_us": 1634464,
      "is_ai": false,
      "track_id": 0,
      "velocity": 0,
      "is_motor": true,
      "motor_id": 2,
      "accel_val": 2000,
      "base_duration_us": 149038
    },
    {
      "id": "M_11",
      "pitch": 69,
      "t_note_us": 1919465,
      "t_trigger_us": 1783502,
      "is_ai": false,
      "track_id": 0,
      "velocity": 0,
      "is_motor": true,
      "motor_id": 1,
      "accel_val": 2000,
      "base_duration_us": 295672
    },
    {
      "id": "M_13",
      "pitch": 88,
      "t_note_us": 2215137,
      "t_trigger_us": 2079174,
      "is_ai": true,
      "track_id": 5,
      "velocity": 0,
      "is_motor": false,
      "motor_id": 0,
      "accel_val": 2000,
      "base_duration_us": 443508
    },
    {
      "id": "M_16",
      "pitch": 95,
      "t_note_us": 2215137,
      "t_trigger_us": 2079174,
      "is_ai": true,
      "track_id": 9,
      "velocity": 0,
      "is_motor": false,
      "motor_id": 0,
      "accel_val": 2000,
      "base_duration_us": 473556
    },
    {
      "id": "M_18",
      "pitch": 92,
      "t_note_us": 2215137,
      "t_trigger_us": 2079174,
      "is_ai": true,
      "track_id": 0,
      "velocity": 0,
      "is_motor": true,
      "motor_id": 3,
      "accel_val": 2000,
      "base_duration_us": 502402
    },
    {
      "id": "M_19",
      "pitch": 76,
      "t_note_us": 2215137,
      "t_trigger_us": 2079174,
      "is_ai": false,
      "track_id": 0,
      "velocity": 0,
      "is_motor": true,
      "motor_id": 2,
      "accel_val": 2000,
      "base_duration_us": 502402
    },
    {
      "id": "M_14",
      "pitch": 68,
      "t_note_us": 2362973,
      "t_trigger_us": 2227010,
      "is_ai": false,
      "track_id": 0,
      "velocity": 0,
      "is_motor": true,
      "motor_id": 1,
      "accel_val": 2000,
      "base_duration_us": 325720
    },
    {
      "id": "M_15",
      "pitch": 64,
      "t_note_us": 2362973,
      "t_trigger_us": 2227010,
      "is_ai": false,
      "track_id": 0,
      "velocity": 0,
      "is_motor": true,
      "motor_id": 0,
      "accel_val": 2000,
      "base_duration_us": 325720
    },
    {
      "id": "M_17",
      "pitch": 71,
      "t_note_us": 2362973,
      "t_trigger_us": 2227010,
      "is_ai": false,
      "track_id": 0,
      "velocity": 0,
      "is_motor": true,
      "motor_id": 0,
      "accel_val": 2000,
      "base_duration_us": 354566
    },
    {
      "id": "M_20",
      "pitch": 93,
      "t_note_us": 2658645,
      "t_trigger_us": 2522682,
      "is_ai": true,
      "track_id": 8,
      "velocity": 0,
      "is_motor": false,
      "motor_id": 0,
      "accel_val": 2000,
      "base_duration_us": 324518
    },
    {
      "id": "M_21",
      "pitch": 88,
      "t_note_us": 2658645,
      "t_trigger_us": 2522682,
      "is_ai": true,
      "track_id": 5,
      "velocity": 0,
      "is_motor": false,
      "motor_id": 0,
      "accel_val": 2000,
      "base_duration_us": 443508
    },
    {
      "id": "M_24",
      "pitch": 76,
      "t_note_us": 2806481,
      "t_trigger_us": 2670518,
      "is_ai": false,
      "track_id": 0,
      "velocity": 0,
      "is_motor": true,
      "motor_id": 2,
      "accel_val": 2000,
      "base_duration_us": 887016
    },
    {
      "id": "M_25",
      "pitch": 71,
      "t_note_us": 3102153,
      "t_trigger_us": 2966190,
      "is_ai": false,
      "track_id": 0,
      "velocity": 0,
      "is_motor": true,
      "motor_id": 1,
      "accel_val": 2000,
      "base_duration_us": 591344
    },
    {
      "id": "M_26",
      "pitch": 68,
      "t_note_us": 3102153,
      "t_trigger_us": 2966190,
      "is_ai": false,
      "track_id": 0,
      "velocity": 0,
      "is_motor": true,
      "motor_id": 0,
      "accel_val": 2000,
      "base_duration_us": 591344
    },
    {
      "id": "M_22",
      "pitch": 92,
      "t_note_us": 3397825,
      "t_trigger_us": 3261862,
      "is_ai": true,
      "track_id": 0,
      "velocity": 0,
      "is_motor": true,
      "motor_id": 3,
      "accel_val": 2000,
      "base_duration_us": 0
    },
    {
      "id": "M_23",
      "pitch": 88,
      "t_note_us": 3397825,
      "t_trigger_us": 3261862,
      "is_ai": true,
      "track_id": 5,
      "velocity": 0,
      "is_motor": false,
      "motor_id": 0,
      "accel_val": 2000,
      "base_duration_us": 0
    },
    {
      "id": "M_31",
      "pitch": 93,
      "t_note_us": 3693497,
      "t_trigger_us": 3557534,
      "is_ai": true,
      "track_id": 8,
      "velocity": 0,
      "is_motor": false,
      "motor_id": 0,
      "accel_val": 2000,
      "base_duration_us": 680286
    },
    {
      "id": "M_27",
      "pitch": 72,
      "t_note_us": 3693497,
      "t_trigger_us": 3557534,
      "is_ai": false,
      "track_id": 0,
      "velocity": 0,
      "is_motor": true,
      "motor_id": 1,
      "accel_val": 2000,
      "base_duration_us": 266826
    },
    {
      "id": "M_28",
      "pitch": 69,
      "t_note_us": 3693497,
      "t_trigger_us": 3557534,
      "is_ai": false,
      "track_id": 0,
      "velocity": 0,
      "is_motor": true,
      "motor_id": 2,
      "accel_val": 2000,
      "base_duration_us": 266826
    },
    {
      "id": "M_29",
      "pitch": 76,
      "t_note_us": 3693497,
      "t_trigger_us": 3557534,
      "is_ai": false,
      "track_id": 0,
      "velocity": 0,
      "is_motor": true,
      "motor_id": 3,
      "accel_val": 2000,
      "base_duration_us": 295672
    },
    {
      "id": "M_30",
      "pitch": 64,
      "t_note_us": 3693497,
      "t_trigger_us": 3557534,
      "is_ai": false,
      "track_id": 0,
      "velocity": 0,
      "is_motor": true,
      "motor_id": 0,
      "accel_val": 2000,
      "base_duration_us": 295672
    },
    {
      "id": "M_33",
      "pitch": 64,
      "t_note_us": 3989169,
      "t_trigger_us": 3853206,
      "is_ai": false,
      "track_id": 0,
      "velocity": 0,
      "is_motor": true,
      "motor_id": 1,
      "accel_val": 2000,
      "base_duration_us": 384614
    },
    {
      "id": "M_35",
      "pitch": 96,
      "t_note_us": 4137005,
      "t_trigger_us": 4001042,
      "is_ai": true,
      "track_id": 10,
      "velocity": 0,
      "is_motor": false,
      "motor_id": 0,
      "accel_val": 2000,
      "base_duration_us": 265624
    },
    {
      "id": "M_36",
      "pitch": 88,
      "t_note_us": 4137005,
      "t_trigger_us": 4001042,
      "is_ai": true,
      "track_id": 5,
      "velocity": 0,
      "is_motor": false,
      "motor_id": 0,
      "accel_val": 2000,
      "base_duration_us": 265624
    },
    {
      "id": "M_32",
      "pitch": 69,
      "t_note_us": 4137005,
      "t_trigger_us": 4001042,
      "is_ai": false,
      "track_id": 0,
      "velocity": 0,
      "is_motor": true,
      "motor_id": 2,
      "accel_val": 2000,
      "base_duration_us": 236778
    },
    {
      "id": "M_34",
      "pitch": 72,
      "t_note_us": 4284841,
      "t_trigger_us": 4148878,
      "is_ai": false,
      "track_id": 0,
      "velocity": 0,
      "is_motor": true,
      "motor_id": 0,
      "accel_val": 2000,
      "base_duration_us": 117788
    },
    {
      "id": "M_37",
      "pitch": 88,
      "t_note_us": 4609359,
      "t_trigger_us": 4473396,
      "is_ai": true,
      "track_id": 5,
      "velocity": 0,
      "is_motor": false,
      "motor_id": 0,
      "accel_val": 2000,
      "base_duration_us": 207932
    },
    {
      "id": "M_39",
      "pitch": 98,
      "t_note_us": 4609359,
      "t_trigger_us": 4473396,
      "is_ai": true,
      "track_id": 11,
      "velocity": 0,
      "is_motor": false,
      "motor_id": 0,
      "accel_val": 2000,
      "base_duration_us": 503604
    },
    {
      "id": "M_38",
      "pitch": 67,
      "t_note_us": 4609359,
      "t_trigger_us": 4473396,
      "is_ai": false,
      "track_id": 0,
      "velocity": 0,
      "is_motor": true,
      "motor_id": 1,
      "accel_val": 2000,
      "base_duration_us": 473556
    },
    {
      "id": "M_40",
      "pitch": 72,
      "t_note_us": 4609359,
      "t_trigger_us": 4473396,
      "is_ai": false,
      "track_id": 0,
      "velocity": 0,
      "is_motor": true,
      "motor_id": 0,
      "accel_val": 2000,
      "base_duration_us": 503604
    },
    {
      "id": "M_41",
      "pitch": 64,
      "t_note_us": 4609359,
      "t_trigger_us": 4473396,
      "is_ai": false,
      "track_id": 0,
      "velocity": 0,
      "is_motor": true,
      "motor_id": 2,
      "accel_val": 2000,
      "base_duration_us": 503604
    },
    {
      "id": "M_43",
      "pitch": 76,
      "t_note_us": 4609359,
      "t_trigger_us": 4473396,
      "is_ai": false,
      "track_id": 0,
      "velocity": 0,
      "is_motor": true,
      "motor_id": 3,
      "accel_val": 2000,
      "base_duration_us": 769228
    },
    {
      "id": "M_45",
      "pitch": 96,
      "t_note_us": 5052867,
      "t_trigger_us": 4916904,
      "is_ai": true,
      "track_id": 10,
      "velocity": 0,
      "is_motor": false,
      "motor_id": 0,
      "accel_val": 2000,
      "base_duration_us": 975958
    },
    {
      "id": "M_46",
      "pitch": 91,
      "t_note_us": 5052867,
      "t_trigger_us": 4916904,
      "is_ai": true,
      "track_id": 7,
      "velocity": 0,
      "is_motor": false,
      "motor_id": 0,
      "accel_val": 2000,
      "base_duration_us": 975958
    },
    {
      "id": "M_47",
      "pitch": 88,
      "t_note_us": 5052867,
      "t_trigger_us": 4916904,
      "is_ai": true,
      "track_id": 5,
      "velocity": 0,
      "is_motor": false,
      "motor_id": 0,
      "accel_val": 2000,
      "base_duration_us": 975958
    },
    {
      "id": "M_42",
      "pitch": 64,
      "t_note_us": 5201905,
      "t_trigger_us": 5065942,
      "is_ai": false,
      "track_id": 0,
      "velocity": 0,
      "is_motor": true,
      "motor_id": 1,
      "accel_val": 2000,
      "base_duration_us": 146634
    },
    {
      "id": "M_48",
      "pitch": 72,
      "t_note_us": 5496375,
      "t_trigger_us": 5360412,
      "is_ai": false,
      "track_id": 0,
      "velocity": 0,
      "is_motor": true,
      "motor_id": 1,
      "accel_val": 2000,
      "base_duration_us": 532450
    },
    {
      "id": "M_44",
      "pitch": 67,
      "t_note_us": 5645413,
      "t_trigger_us": 5509450,
      "is_ai": false,
      "track_id": 0,
      "velocity": 0,
      "is_motor": true,
      "motor_id": 2,
      "accel_val": 2000,
      "base_duration_us": 0
    },
    {
      "id": "M_49",
      "pitch": 64,
      "t_note_us": 5792047,
      "t_trigger_us": 5656084,
      "is_ai": false,
      "track_id": 0,
      "velocity": 0,
      "is_motor": true,
      "motor_id": 0,
      "accel_val": 2000,
      "base_duration_us": 236778
    },
    {
      "id": "M_50",
      "pitch": 98,
      "t_note_us": 6087719,
      "t_trigger_us": 5951756,
      "is_ai": true,
      "track_id": 11,
      "velocity": 0,
      "is_motor": false,
      "motor_id": 0,
      "accel_val": 2000,
      "base_duration_us": 266826
    },
    {
      "id": "M_51",
      "pitch": 93,
      "t_note_us": 6087719,
      "t_trigger_us": 5951756,
      "is_ai": true,
      "track_id": 8,
      "velocity": 0,
      "is_motor": false,
      "motor_id": 0,
      "accel_val": 2000,
      "base_duration_us": 266826
    },
    {
      "id": "M_52",
      "pitch": 89,
      "t_note_us": 6087719,
      "t_trigger_us": 5951756,
      "is_ai": true,
      "track_id": 6,
      "velocity": 0,
      "is_motor": false,
      "motor_id": 0,
      "accel_val": 2000,
      "base_duration_us": 266826
    },
    {
      "id": "M_53",
      "pitch": 76,
      "t_note_us": 6087719,
      "t_trigger_us": 5951756,
      "is_ai": false,
      "track_id": 0,
      "velocity": 0,
      "is_motor": true,
      "motor_id": 2,
      "accel_val": 2000,
      "base_duration_us": 266826
    },
    {
      "id": "M_54",
      "pitch": 72,
      "t_note_us": 6087719,
      "t_trigger_us": 5951756,
      "is_ai": false,
      "track_id": 0,
      "velocity": 0,
      "is_motor": true,
      "motor_id": 1,
      "accel_val": 2000,
      "base_duration_us": 266826
    },
    {
      "id": "M_55",
      "pitch": 69,
      "t_note_us": 6087719,
      "t_trigger_us": 5951756,
      "is_ai": false,
      "track_id": 0,
      "velocity": 0,
      "is_motor": true,
      "motor_id": 0,
      "accel_val": 2000,
      "base_duration_us": 266826
    },
    {
      "id": "M_56",
      "pitch": 65,
      "t_note_us": 6087719,
      "t_trigger_us": 5951756,
      "is_ai": false,
      "track_id": 0,
      "velocity": 0,
      "is_motor": true,
      "motor_id": 3,
      "accel_val": 2000,
      "base_duration_us": 266826
    },
    {
      "id": "M_57",
      "pitch": 98,
      "t_note_us": 6384593,
      "t_trigger_us": 6248630,
      "is_ai": true,
      "track_id": 11,
      "velocity": 0,
      "is_motor": false,
      "motor_id": 0,
      "accel_val": 2000,
      "base_duration_us": 146634
    },
    {
      "id": "M_58",
      "pitch": 89,
      "t_note_us": 6384593,
      "t_trigger_us": 6248630,
      "is_ai": true,
      "track_id": 6,
      "velocity": 0,
      "is_motor": false,
      "motor_id": 0,
      "accel_val": 2000,
      "base_duration_us": 146634
    },
    {
      "id": "M_59",
      "pitch": 72,
      "t_note_us": 6384593,
      "t_trigger_us": 6248630,
      "is_ai": false,
      "track_id": 0,
      "velocity": 0,
      "is_motor": true,
      "motor_id": 1,
      "accel_val": 2000,
      "base_duration_us": 206730
    },
    {
      "id": "M_60",
      "pitch": 89,
      "t_note_us": 6531227,
      "t_trigger_us": 6395264,
      "is_ai": true,
      "track_id": 6,
      "velocity": 0,
      "is_motor": false,
      "motor_id": 0,
      "accel_val": 2000,
      "base_duration_us": 177884
    },
    {
      "id": "M_62",
      "pitch": 98,
      "t_note_us": 6531227,
      "t_trigger_us": 6395264,
      "is_ai": true,
      "track_id": 11,
      "velocity": 0,
      "is_motor": false,
      "motor_id": 0,
      "accel_val": 2000,
      "base_duration_us": 206730
    },
    {
      "id": "M_61",
      "pitch": 76,
      "t_note_us": 6531227,
      "t_trigger_us": 6395264,
      "is_ai": false,
      "track_id": 0,
      "velocity": 0,
      "is_motor": true,
      "motor_id": 2,
      "accel_val": 2000,
      "base_duration_us": 177884
    },
    {
      "id": "M_63",
      "pitch": 69,
      "t_note_us": 6679063,
      "t_trigger_us": 6543100,
      "is_ai": false,
      "track_id": 0,
      "velocity": 0,
      "is_motor": true,
      "motor_id": 1,
      "accel_val": 2000,
      "base_duration_us": 503604
    },
    {
      "id": "M_65",
      "pitch": 96,
      "t_note_us": 6826899,
      "t_trigger_us": 6690936,
      "is_ai": true,
      "track_id": 10,
      "velocity": 0,
      "is_motor": false,
      "motor_id": 0,
      "accel_val": 2000,
      "base_duration_us": 384614
    },
    {
      "id": "M_66",
      "pitch": 89,
      "t_note_us": 6826899,
      "t_trigger_us": 6690936,
      "is_ai": true,
      "track_id": 6,
      "velocity": 0,
      "is_motor": false,
      "motor_id": 0,
      "accel_val": 2000,
      "base_duration_us": 384614
    },
    {
      "id": "M_64",
      "pitch": 76,
      "t_note_us": 6974735,
      "t_trigger_us": 6838772,
      "is_ai": false,
      "track_id": 0,
      "velocity": 0,
      "is_motor": true,
      "motor_id": 2,
      "accel_val": 2000,
      "base_duration_us": 236778
    },
    {
      "id": "M_69",
      "pitch": 98,
      "t_note_us": 7123773,
      "t_trigger_us": 6987810,
      "is_ai": true,
      "track_id": 11,
      "velocity": 0,
      "is_motor": false,
      "motor_id": 0,
      "accel_val": 2000,
      "base_duration_us": 739181
    },
    {
      "id": "M_70",
      "pitch": 77,
      "t_note_us": 7270407,
      "t_trigger_us": 7134444,
      "is_ai": false,
      "track_id": 0,
      "velocity": 0,
      "is_motor": true,
      "motor_id": 2,
      "accel_val": 2000,
      "base_duration_us": 592547
    },
    {
      "id": "M_71",
      "pitch": 74,
      "t_note_us": 7270407,
      "t_trigger_us": 7134444,
      "is_ai": false,
      "track_id": 0,
      "velocity": 0,
      "is_motor": true,
      "motor_id": 1,
      "accel_val": 2000,
      "base_duration_us": 592547
    },
    {
      "id": "M_72",
      "pitch": 71,
      "t_note_us": 7270407,
      "t_trigger_us": 7134444,
      "is_ai": false,
      "track_id": 0,
      "velocity": 0,
      "is_motor": true,
      "motor_id": 0,
      "accel_val": 2000,
      "base_duration_us": 592547
    },
    {
      "id": "M_73",
      "pitch": 67,
      "t_note_us": 7270407,
      "t_trigger_us": 7134444,
      "is_ai": false,
      "track_id": 0,
      "velocity": 0,
      "is_motor": true,
      "motor_id": 3,
      "accel_val": 2000,
      "base_duration_us": 592547
    },
    {
      "id": "M_67",
      "pitch": 91,
      "t_note_us": 7419445,
      "t_trigger_us": 7283482,
      "is_ai": true,
      "track_id": 7,
      "velocity": 0,
      "is_motor": false,
      "motor_id": 0,
      "accel_val": 2000,
      "base_duration_us": 0
    },
    {
      "id": "M_68",
      "pitch": 100,
      "t_note_us": 7419445,
      "t_trigger_us": 7283482,
      "is_ai": true,
      "track_id": 12,
      "velocity": 0,
      "is_motor": false,
      "motor_id": 0,
      "accel_val": 2000,
      "base_duration_us": 443509
    },
    {
      "id": "M_75",
      "pitch": 98,
      "t_note_us": 7862954,
      "t_trigger_us": 7726991,
      "is_ai": true,
      "track_id": 11,
      "velocity": 0,
      "is_motor": false,
      "motor_id": 0,
      "accel_val": 2000,
      "base_duration_us": 442306
    },
    {
      "id": "M_76",
      "pitch": 77,
      "t_note_us": 7862954,
      "t_trigger_us": 7726991,
      "is_ai": false,
      "track_id": 0,
      "velocity": 0,
      "is_motor": true,
      "motor_id": 2,
      "accel_val": 2000,
      "base_duration_us": 442306
    },
    {
      "id": "M_77",
      "pitch": 74,
      "t_note_us": 7862954,
      "t_trigger_us": 7726991,
      "is_ai": false,
      "track_id": 0,
      "velocity": 0,
      "is_motor": true,
      "motor_id": 1,
      "accel_val": 2000,
      "base_duration_us": 442306
    },
    {
      "id": "M_78",
      "pitch": 71,
      "t_note_us": 7862954,
      "t_trigger_us": 7726991,
      "is_ai": false,
      "track_id": 0,
      "velocity": 0,
      "is_motor": true,
      "motor_id": 0,
      "accel_val": 2000,
      "base_duration_us": 442306
    },
    {
      "id": "M_79",
      "pitch": 68,
      "t_note_us": 7862954,
      "t_trigger_us": 7726991,
      "is_ai": false,
      "track_id": 0,
      "velocity": 0,
      "is_motor": true,
      "motor_id": 3,
      "accel_val": 2000,
      "base_duration_us": 442306
    },
    {
      "id": "M_74",
      "pitch": 91,
      "t_note_us": 8187472,
      "t_trigger_us": 8051509,
      "is_ai": true,
      "track_id": 7,
      "velocity": 0,
      "is_motor": false,
      "motor_id": 0,
      "accel_val": 2000,
      "base_duration_us": 0
    },
    {
      "id": "M_80",
      "pitch": 96,
      "t_note_us": 8187472,
      "t_trigger_us": 8051509,
      "is_ai": true,
      "track_id": 10,
      "velocity": 0,
      "is_motor": false,
      "motor_id": 0,
      "accel_val": 2000,
      "base_duration_us": 325720
    },
    {
      "id": "M_81",
      "pitch": 98,
      "t_note_us": 8483144,
      "t_trigger_us": 8347181,
      "is_ai": true,
      "track_id": 11,
      "velocity": 0,
      "is_motor": false,
      "motor_id": 0,
      "accel_val": 2000,
      "base_duration_us": 295672
    },
    {
      "id": "M_82",
      "pitch": 76,
      "t_note_us": 8483144,
      "t_trigger_us": 8347181,
      "is_ai": false,
      "track_id": 0,
      "velocity": 0,
      "is_motor": true,
      "motor_id": 2,
      "accel_val": 2000,
      "base_duration_us": 384614
    },
    {
      "id": "M_83",
      "pitch": 72,
      "t_note_us": 8483144,
      "t_trigger_us": 8347181,
      "is_ai": false,
      "track_id": 0,
      "velocity": 0,
      "is_motor": true,
      "motor_id": 1,
      "accel_val": 2000,
      "base_duration_us": 384614
    },
    {
      "id": "M_84",
      "pitch": 69,
      "t_note_us": 8483144,
      "t_trigger_us": 8347181,
      "is_ai": false,
      "track_id": 0,
      "velocity": 0,
      "is_motor": true,
      "motor_id": 0,
      "accel_val": 2000,
      "base_duration_us": 384614
    },
    {
      "id": "M_86",
      "pitch": 67,
      "t_note_us": 8483144,
      "t_trigger_us": 8347181,
      "is_ai": false,
      "track_id": 0,
      "velocity": 0,
      "is_motor": true,
      "motor_id": 3,
      "accel_val": 2000,
      "base_duration_us": 414662
    },
    {
      "id": "M_85",
      "pitch": 98,
      "t_note_us": 8778816,
      "t_trigger_us": 8642853,
      "is_ai": true,
      "track_id": 11,
      "velocity": 0,
      "is_motor": false,
      "motor_id": 0,
      "accel_val": 2000,
      "base_duration_us": 88942
    },
    {
      "id": "M_88",
      "pitch": 98,
      "t_note_us": 8926652,
      "t_trigger_us": 8790689,
      "is_ai": true,
      "track_id": 11,
      "velocity": 0,
      "is_motor": false,
      "motor_id": 0,
      "accel_val": 2000,
      "base_duration_us": 443508
    },
    {
      "id": "M_89",
      "pitch": 78,
      "t_note_us": 8926652,
      "t_trigger_us": 8790689,
      "is_ai": false,
      "track_id": 0,
      "velocity": 0,
      "is_motor": true,
      "motor_id": 2,
      "accel_val": 2000,
      "base_duration_us": 443508
    },
    {
      "id": "M_90",
      "pitch": 75,
      "t_note_us": 8926652,
      "t_trigger_us": 8790689,
      "is_ai": false,
      "track_id": 0,
      "velocity": 0,
      "is_motor": true,
      "motor_id": 1,
      "accel_val": 2000,
      "base_duration_us": 443508
    },
    {
      "id": "M_91",
      "pitch": 71,
      "t_note_us": 8926652,
      "t_trigger_us": 8790689,
      "is_ai": false,
      "track_id": 0,
      "velocity": 0,
      "is_motor": true,
      "motor_id": 0,
      "accel_val": 2000,
      "base_duration_us": 443508
    },
    {
      "id": "M_92",
      "pitch": 68,
      "t_note_us": 8926652,
      "t_trigger_us": 8790689,
      "is_ai": false,
      "track_id": 0,
      "velocity": 0,
      "is_motor": true,
      "motor_id": 3,
      "accel_val": 2000,
      "base_duration_us": 443508
    },
    {
      "id": "M_87",
      "pitch": 91,
      "t_note_us": 9222324,
      "t_trigger_us": 9086361,
      "is_ai": true,
      "track_id": 7,
      "velocity": 0,
      "is_motor": false,
      "motor_id": 0,
      "accel_val": 2000,
      "base_duration_us": 0
    },
    {
      "id": "M_97",
      "pitch": 96,
      "t_note_us": 9222324,
      "t_trigger_us": 9086361,
      "is_ai": true,
      "track_id": 10,
      "velocity": 0,
      "is_motor": false,
      "motor_id": 0,
      "accel_val": 2000,
      "base_duration_us": 472354
    },
    {
      "id": "M_93",
      "pitch": 77,
      "t_note_us": 9370160,
      "t_trigger_us": 9234197,
      "is_ai": false,
      "track_id": 0,
      "velocity": 0,
      "is_motor": true,
      "motor_id": 2,
      "accel_val": 2000,
      "base_duration_us": 324518
    },
    {
      "id": "M_94",
      "pitch": 74,
      "t_note_us": 9370160,
      "t_trigger_us": 9234197,
      "is_ai": false,
      "track_id": 0,
      "velocity": 0,
      "is_motor": true,
      "motor_id": 1,
      "accel_val": 2000,
      "base_duration_us": 324518
    },
    {
      "id": "M_95",
      "pitch": 70,
      "t_note_us": 9370160,
      "t_trigger_us": 9234197,
      "is_ai": false,
      "track_id": 0,
      "velocity": 0,
      "is_motor": true,
      "motor_id": 0,
      "accel_val": 2000,
      "base_duration_us": 324518
    },
    {
      "id": "M_96",
      "pitch": 67,
      "t_note_us": 9370160,
      "t_trigger_us": 9234197,
      "is_ai": false,
      "track_id": 0,
      "velocity": 0,
      "is_motor": true,
      "motor_id": 3,
      "accel_val": 2000,
      "base_duration_us": 324518
    },
    {
      "id": "M_98",
      "pitch": 98,
      "t_note_us": 9517996,
      "t_trigger_us": 9382033,
      "is_ai": true,
      "track_id": 11,
      "velocity": 0,
      "is_motor": false,
      "motor_id": 0,
      "accel_val": 2000,
      "base_duration_us": 176682
    },
    {
      "id": "M_99",
      "pitch": 91,
      "t_note_us": 9517996,
      "t_trigger_us": 9382033,
      "is_ai": true,
      "track_id": 7,
      "velocity": 0,
      "is_motor": false,
      "motor_id": 0,
      "accel_val": 2000,
      "base_duration_us": 176682
    },
    {
      "id": "M_100",
      "pitch": 100,
      "t_note_us": 9813668,
      "t_trigger_us": 9677705,
      "is_ai": true,
      "track_id": 12,
      "velocity": 0,
      "is_motor": false,
      "motor_id": 0,
      "accel_val": 2000,
      "base_duration_us": 325720
    },
    {
      "id": "M_105",
      "pitch": 91,
      "t_note_us": 9813668,
      "t_trigger_us": 9677705,
      "is_ai": true,
      "track_id": 7,
      "velocity": 0,
      "is_motor": false,
      "motor_id": 0,
      "accel_val": 2000,
      "base_duration_us": 384614
    },
    {
      "id": "M_101",
      "pitch": 76,
      "t_note_us": 9813668,
      "t_trigger_us": 9677705,
      "is_ai": false,
      "track_id": 0,
      "velocity": 0,
      "is_motor": true,
      "motor_id": 2,
      "accel_val": 2000,
      "base_duration_us": 325720
    },
    {
      "id": "M_102",
      "pitch": 72,
      "t_note_us": 9813668,
      "t_trigger_us": 9677705,
      "is_ai": false,
      "track_id": 0,
      "velocity": 0,
      "is_motor": true,
      "motor_id": 1,
      "accel_val": 2000,
      "base_duration_us": 325720
    },
    {
      "id": "M_103",
      "pitch": 69,
      "t_note_us": 9813668,
      "t_trigger_us": 9677705,
      "is_ai": false,
      "track_id": 0,
      "velocity": 0,
      "is_motor": true,
      "motor_id": 0,
      "accel_val": 2000,
      "base_duration_us": 325720
    },
    {
      "id": "M_104",
      "pitch": 66,
      "t_note_us": 9813668,
      "t_trigger_us": 9677705,
      "is_ai": false,
      "track_id": 0,
      "velocity": 0,
      "is_motor": true,
      "motor_id": 3,
      "accel_val": 2000,
      "base_duration_us": 325720
    },
    {
      "id": "M_108",
      "pitch": 76,
      "t_note_us": 10257176,
      "t_trigger_us": 10121213,
      "is_ai": false,
      "track_id": 0,
      "velocity": 0,
      "is_motor": true,
      "motor_id": 2,
      "accel_val": 2000,
      "base_duration_us": 473556
    },
    {
      "id": "M_109",
      "pitch": 72,
      "t_note_us": 10257176,
      "t_trigger_us": 10121213,
      "is_ai": false,
      "track_id": 0,
      "velocity": 0,
      "is_motor": true,
      "motor_id": 1,
      "accel_val": 2000,
      "base_duration_us": 473556
    },
    {
      "id": "M_110",
      "pitch": 69,
      "t_note_us": 10257176,
      "t_trigger_us": 10121213,
      "is_ai": false,
      "track_id": 0,
      "velocity": 0,
      "is_motor": true,
      "motor_id": 0,
      "accel_val": 2000,
      "base_duration_us": 473556
    },
    {
      "id": "M_111",
      "pitch": 66,
      "t_note_us": 10257176,
      "t_trigger_us": 10121213,
      "is_ai": false,
      "track_id": 0,
      "velocity": 0,
      "is_motor": true,
      "motor_id": 3,
      "accel_val": 2000,
      "base_duration_us": 473556
    },
    {
      "id": "M_106",
      "pitch": 91,
      "t_note_us": 10405012,
      "t_trigger_us": 10269049,
      "is_ai": true,
      "track_id": 7,
      "velocity": 0,
      "is_motor": false,
      "motor_id": 0,
      "accel_val": 2000,
      "base_duration_us": 0
    },
    {
      "id": "M_107",
      "pitch": 91,
      "t_note_us": 10700684,
      "t_trigger_us": 10564721,
      "is_ai": true,
      "track_id": 7,
      "velocity": 0,
      "is_motor": false,
      "motor_id": 0,
      "accel_val": 2000,
      "base_duration_us": 0
    },
    {
      "id": "M_119",
      "pitch": 53,
      "t_note_us": 10848520,
      "t_trigger_us": 10712557,
      "is_ai": false,
      "track_id": 0,
      "velocity": 0,
      "is_motor": true,
      "motor_id": 0,
      "accel_val": 2000,
      "base_duration_us": 945909
    },
    {
      "id": "M_112",
      "pitch": 65,
      "t_note_us": 11144192,
      "t_trigger_us": 11008229,
      "is_ai": false,
      "track_id": 0,
      "velocity": 0,
      "is_motor": true,
      "motor_id": 1,
      "accel_val": 2000,
      "base_duration_us": 0
    },
    {
      "id": "M_114",
      "pitch": 78,
      "t_note_us": 11203086,
      "t_trigger_us": 11067123,
      "is_ai": false,
      "track_id": 0,
      "velocity": 0,
      "is_motor": true,
      "motor_id": 2,
      "accel_val": 2000,
      "base_duration_us": 115384
    },
    {
      "id": "M_117",
      "pitch": 89,
      "t_note_us": 11292028,
      "t_trigger_us": 11156065,
      "is_ai": true,
      "track_id": 6,
      "velocity": 0,
      "is_motor": false,
      "motor_id": 0,
      "accel_val": 2000,
      "base_duration_us": 502401
    },
    {
      "id": "M_113",
      "pitch": 72,
      "t_note_us": 11292028,
      "t_trigger_us": 11156065,
      "is_ai": false,
      "track_id": 0,
      "velocity": 0,
      "is_motor": true,
      "motor_id": 1,
      "accel_val": 2000,
      "base_duration_us": 0
    },
    {
      "id": "M_115",
      "pitch": 93,
      "t_note_us": 11322075,
      "t_trigger_us": 11186112,
      "is_ai": true,
      "track_id": 8,
      "velocity": 0,
      "is_motor": false,
      "motor_id": 0,
      "accel_val": 2000,
      "base_duration_us": 0
    },
    {
      "id": "M_118",
      "pitch": 96,
      "t_note_us": 11322075,
      "t_trigger_us": 11186112,
      "is_ai": true,
      "track_id": 10,
      "velocity": 0,
      "is_motor": false,
      "motor_id": 0,
      "accel_val": 2000,
      "base_duration_us": 472354
    },
    {
      "id": "M_121",
      "pitch": 76,
      "t_note_us": 11439863,
      "t_trigger_us": 11303900,
      "is_ai": false,
      "track_id": 0,
      "velocity": 0,
      "is_motor": true,
      "motor_id": 2,
      "accel_val": 2000,
      "base_duration_us": 354566
    },
    {
      "id": "M_116",
      "pitch": 72,
      "t_note_us": 11617747,
      "t_trigger_us": 11481784,
      "is_ai": false,
      "track_id": 0,
      "velocity": 0,
      "is_motor": true,
      "motor_id": 1,
      "accel_val": 2000,
      "base_duration_us": 0
    },
    {
      "id": "M_124",
      "pitch": 92,
      "t_note_us": 11735535,
      "t_trigger_us": 11599572,
      "is_ai": true,
      "track_id": 0,
      "velocity": 0,
      "is_motor": true,
      "motor_id": 3,
      "accel_val": 2000,
      "base_duration_us": 915862
    },
    {
      "id": "M_130",
      "pitch": 95,
      "t_note_us": 11735535,
      "t_trigger_us": 11599572,
      "is_ai": true,
      "track_id": 9,
      "velocity": 0,
      "is_motor": false,
      "motor_id": 0,
      "accel_val": 2000,
      "base_duration_us": 1389418
    },
    {
      "id": "M_120",
      "pitch": 65,
      "t_note_us": 11765583,
      "t_trigger_us": 11629620,
      "is_ai": false,
      "track_id": 0,
      "velocity": 0,
      "is_motor": true,
      "motor_id": 1,
      "accel_val": 2000,
      "base_duration_us": 28846
    },
    {
      "id": "M_123",
      "pitch": 64,
      "t_note_us": 11912217,
      "t_trigger_us": 11776254,
      "is_ai": false,
      "track_id": 0,
      "velocity": 0,
      "is_motor": true,
      "motor_id": 1,
      "accel_val": 2000,
      "base_duration_us": 443508
    },
    {
      "id": "M_129",
      "pitch": 52,
      "t_note_us": 11912217,
      "t_trigger_us": 11776254,
      "is_ai": false,
      "track_id": 0,
      "velocity": 0,
      "is_motor": true,
      "motor_id": 0,
      "accel_val": 2000,
      "base_duration_us": 1212736
    },
    {
      "id": "M_122",
      "pitch": 86,
      "t_note_us": 12209091,
      "t_trigger_us": 12073128,
      "is_ai": true,
      "track_id": 4,
      "velocity": 0,
      "is_motor": false,
      "motor_id": 0,
      "accel_val": 2000,
      "base_duration_us": 0
    },
    {
      "id": "M_134",
      "pitch": 93,
      "t_note_us": 12209091,
      "t_trigger_us": 12073128,
      "is_ai": true,
      "track_id": 8,
      "velocity": 0,
      "is_motor": false,
      "motor_id": 0,
      "accel_val": 2000,
      "base_duration_us": 945910
    },
    {
      "id": "M_125",
      "pitch": 68,
      "t_note_us": 12504763,
      "t_trigger_us": 12368800,
      "is_ai": false,
      "track_id": 0,
      "velocity": 0,
      "is_motor": true,
      "motor_id": 1,
      "accel_val": 2000,
      "base_duration_us": 443508
    },
    {
      "id": "M_132",
      "pitch": 76,
      "t_note_us": 12651397,
      "t_trigger_us": 12515434,
      "is_ai": false,
      "track_id": 0,
      "velocity": 0,
      "is_motor": true,
      "motor_id": 2,
      "accel_val": 2000,
      "base_duration_us": 473556
    },
    {
      "id": "M_133",
      "pitch": 71,
      "t_note_us": 12651397,
      "t_trigger_us": 12515434,
      "is_ai": false,
      "track_id": 0,
      "velocity": 0,
      "is_motor": true,
      "motor_id": 3,
      "accel_val": 2000,
      "base_duration_us": 473556
    },
    {
      "id": "M_126",
      "pitch": 92,
      "t_note_us": 12948271,
      "t_trigger_us": 12812308,
      "is_ai": true,
      "track_id": 0,
      "velocity": 0,
      "is_motor": true,
      "motor_id": 1,
      "accel_val": 2000,
      "base_duration_us": 0
    },
    {
      "id": "M_127",
      "pitch": 86,
      "t_note_us": 12948271,
      "t_trigger_us": 12812308,
      "is_ai": true,
      "track_id": 4,
      "velocity": 0,
      "is_motor": false,
      "motor_id": 0,
      "accel_val": 2000,
      "base_duration_us": 0
    },
    {
      "id": "M_131",
      "pitch": 68,
      "t_note_us": 12948271,
      "t_trigger_us": 12812308,
      "is_ai": false,
      "track_id": 0,
      "velocity": 0,
      "is_motor": true,
      "motor_id": 0,
      "accel_val": 2000,
      "base_duration_us": 176682
    },
    {
      "id": "M_128",
      "pitch": 64,
      "t_note_us": 13094905,
      "t_trigger_us": 12958942,
      "is_ai": false,
      "track_id": 0,
      "velocity": 0,
      "is_motor": true,
      "motor_id": 1,
      "accel_val": 2000,
      "base_duration_us": 0
    },
    {
      "id": "M_140",
      "pitch": 93,
      "t_note_us": 13243943,
      "t_trigger_us": 13107980,
      "is_ai": true,
      "track_id": 8,
      "velocity": 0,
      "is_motor": false,
      "motor_id": 0,
      "accel_val": 2000,
      "base_duration_us": 1092544
    },
    {
      "id": "M_135",
      "pitch": 69,
      "t_note_us": 13243943,
      "t_trigger_us": 13107980,
      "is_ai": false,
      "track_id": 0,
      "velocity": 0,
      "is_motor": true,
      "motor_id": 1,
      "accel_val": 2000,
      "base_duration_us": 295672
    },
    {
      "id": "M_136",
      "pitch": 72,
      "t_note_us": 13243943,
      "t_trigger_us": 13107980,
      "is_ai": false,
      "track_id": 0,
      "velocity": 0,
      "is_motor": true,
      "motor_id": 0,
      "accel_val": 2000,
      "base_duration_us": 443508
    },
    {
      "id": "M_141",
      "pitch": 57,
      "t_note_us": 13243943,
      "t_trigger_us": 13107980,
      "is_ai": false,
      "track_id": 0,
      "velocity": 0,
      "is_motor": true,
      "motor_id": 2,
      "accel_val": 2000,
      "base_duration_us": 1092544
    },
    {
      "id": "M_139",
      "pitch": 69,
      "t_note_us": 13539615,
      "t_trigger_us": 13403652,
      "is_ai": false,
      "track_id": 0,
      "velocity": 0,
      "is_motor": true,
      "motor_id": 1,
      "accel_val": 2000,
      "base_duration_us": 768026
    },
    {
      "id": "M_138",
      "pitch": 96,
      "t_note_us": 13687451,
      "t_trigger_us": 13551488,
      "is_ai": true,
      "track_id": 10,
      "velocity": 0,
      "is_motor": false,
      "motor_id": 0,
      "accel_val": 2000,
      "base_duration_us": 620190
    },
    {
      "id": "M_142",
      "pitch": 72,
      "t_note_us": 13687451,
      "t_trigger_us": 13551488,
      "is_ai": false,
      "track_id": 0,
      "velocity": 0,
      "is_motor": true,
      "motor_id": 0,
      "accel_val": 2000,
      "base_duration_us": 649036
    },
    {
      "id": "M_150",
      "pitch": 69,
      "t_note_us": 13835287,
      "t_trigger_us": 13699324,
      "is_ai": false,
      "track_id": 0,
      "velocity": 0,
      "is_motor": true,
      "motor_id": 3,
      "accel_val": 2000,
      "base_duration_us": 1772830
    },
    {
      "id": "M_137",
      "pitch": 76,
      "t_note_us": 13983123,
      "t_trigger_us": 13847160,
      "is_ai": false,
      "track_id": 0,
      "velocity": 0,
      "is_motor": true,
      "motor_id": 0,
      "accel_val": 2000,
      "base_duration_us": 0
    },
    {
      "id": "M_143",
      "pitch": 86,
      "t_note_us": 14129757,
      "t_trigger_us": 13993794,
      "is_ai": true,
      "track_id": 4,
      "velocity": 0,
      "is_motor": false,
      "motor_id": 0,
      "accel_val": 2000,
      "base_duration_us": 296874
    },
    {
      "id": "M_144",
      "pitch": 90,
      "t_note_us": 14129757,
      "t_trigger_us": 13993794,
      "is_ai": true,
      "track_id": 0,
      "velocity": 0,
      "is_motor": true,
      "motor_id": 0,
      "accel_val": 2000,
      "base_duration_us": 444710
    },
    {
      "id": "M_147",
      "pitch": 98,
      "t_note_us": 14129757,
      "t_trigger_us": 13993794,
      "is_ai": true,
      "track_id": 11,
      "velocity": 0,
      "is_motor": false,
      "motor_id": 0,
      "accel_val": 2000,
      "base_duration_us": 1478360
    },
    {
      "id": "M_145",
      "pitch": 62,
      "t_note_us": 14278795,
      "t_trigger_us": 14142832,
      "is_ai": false,
      "track_id": 0,
      "velocity": 0,
      "is_motor": true,
      "motor_id": 0,
      "accel_val": 2000,
      "base_duration_us": 472354
    },
    {
      "id": "M_148",
      "pitch": 50,
      "t_note_us": 14278795,
      "t_trigger_us": 14142832,
      "is_ai": false,
      "track_id": 0,
      "velocity": 0,
      "is_motor": true,
      "motor_id": 0,
      "accel_val": 2000,
      "base_duration_us": 1329322
    },
    {
      "id": "M_152",
      "pitch": 90,
      "t_note_us": 14574467,
      "t_trigger_us": 14438504,
      "is_ai": true,
      "track_id": 0,
      "velocity": 0,
      "is_motor": true,
      "motor_id": 2,
      "accel_val": 2000,
      "base_duration_us": 1033650
    },
    {
      "id": "M_153",
      "pitch": 72,
      "t_note_us": 14574467,
      "t_trigger_us": 14438504,
      "is_ai": false,
      "track_id": 0,
      "velocity": 0,
      "is_motor": true,
      "motor_id": 1,
      "accel_val": 2000,
      "base_duration_us": 1033650
    },
    {
      "id": "M_154",
      "pitch": 69,
      "t_note_us": 14868937,
      "t_trigger_us": 14732974,
      "is_ai": false,
      "track_id": 0,
      "velocity": 0,
      "is_motor": true,
      "motor_id": 0,
      "accel_val": 2000,
      "base_duration_us": 739180
    },
    {
      "id": "M_149",
      "pitch": 74,
      "t_note_us": 15017975,
      "t_trigger_us": 14882012,
      "is_ai": false,
      "track_id": 0,
      "velocity": 0,
      "is_motor": true,
      "motor_id": 0,
      "accel_val": 2000,
      "base_duration_us": 590142
    },
    {
      "id": "M_146",
      "pitch": 62,
      "t_note_us": 15342493,
      "t_trigger_us": 15206530,
      "is_ai": false,
      "track_id": 0,
      "velocity": 0,
      "is_motor": true,
      "motor_id": 0,
      "accel_val": 2000,
      "base_duration_us": 0
    },
    {
      "id": "M_151",
      "pitch": 96,
      "t_note_us": 15608117,
      "t_trigger_us": 15472154,
      "is_ai": true,
      "track_id": 10,
      "velocity": 0,
      "is_motor": false,
      "motor_id": 0,
      "accel_val": 2000,
      "base_duration_us": 0
    },
    {
      "id": "M_157",
      "pitch": 86,
      "t_note_us": 15608117,
      "t_trigger_us": 15472154,
      "is_ai": true,
      "track_id": 4,
      "velocity": 0,
      "is_motor": false,
      "motor_id": 0,
      "accel_val": 2000,
      "base_duration_us": 355768
    },
    {
      "id": "M_155",
      "pitch": 93,
      "t_note_us": 15638165,
      "t_trigger_us": 15502202,
      "is_ai": true,
      "track_id": 8,
      "velocity": 0,
      "is_motor": false,
      "motor_id": 0,
      "accel_val": 2000,
      "base_duration_us": 325720
    },
    {
      "id": "M_156",
      "pitch": 89,
      "t_note_us": 15638165,
      "t_trigger_us": 15502202,
      "is_ai": true,
      "track_id": 6,
      "velocity": 0,
      "is_motor": false,
      "motor_id": 0,
      "accel_val": 2000,
      "base_duration_us": 325720
    },
    {
      "id": "M_159",
      "pitch": 100,
      "t_note_us": 15638165,
      "t_trigger_us": 15502202,
      "is_ai": true,
      "track_id": 12,
      "velocity": 0,
      "is_motor": false,
      "motor_id": 0,
      "accel_val": 2000,
      "base_duration_us": 1212737
    },
    {
      "id": "M_158",
      "pitch": 88,
      "t_note_us": 16081673,
      "t_trigger_us": 15945710,
      "is_ai": true,
      "track_id": 5,
      "velocity": 0,
      "is_motor": false,
      "motor_id": 0,
      "accel_val": 2000,
      "base_duration_us": 444711
    },
    {
      "id": "M_162",
      "pitch": 98,
      "t_note_us": 16081673,
      "t_trigger_us": 15945710,
      "is_ai": true,
      "track_id": 11,
      "velocity": 0,
      "is_motor": false,
      "motor_id": 0,
      "accel_val": 2000,
      "base_duration_us": 769229
    },
    {
      "id": "M_163",
      "pitch": 95,
      "t_note_us": 16081673,
      "t_trigger_us": 15945710,
      "is_ai": true,
      "track_id": 9,
      "velocity": 0,
      "is_motor": false,
      "motor_id": 0,
      "accel_val": 2000,
      "base_duration_us": 769229
    },
    {
      "id": "M_164",
      "pitch": 91,
      "t_note_us": 16081673,
      "t_trigger_us": 15945710,
      "is_ai": true,
      "track_id": 7,
      "velocity": 0,
      "is_motor": false,
      "motor_id": 0,
      "accel_val": 2000,
      "base_duration_us": 769229
    },
    {
      "id": "M_160",
      "pitch": 93,
      "t_note_us": 16526384,
      "t_trigger_us": 16390421,
      "is_ai": true,
      "track_id": 8,
      "velocity": 0,
      "is_motor": false,
      "motor_id": 0,
      "accel_val": 2000,
      "base_duration_us": 324518
    },
    {
      "id": "M_161",
      "pitch": 89,
      "t_note_us": 16526384,
      "t_trigger_us": 16390421,
      "is_ai": true,
      "track_id": 6,
      "velocity": 0,
      "is_motor": false,
      "motor_id": 0,
      "accel_val": 2000,
      "base_duration_us": 324518
    },
    {
      "id": "M_165",
      "pitch": 101,
      "t_note_us": 16526384,
      "t_trigger_us": 16390421,
      "is_ai": true,
      "track_id": 13,
      "velocity": 0,
      "is_motor": false,
      "motor_id": 0,
      "accel_val": 2000,
      "base_duration_us": 472354
    },
    {
      "id": "M_167",
      "pitch": 95,
      "t_note_us": 16968690,
      "t_trigger_us": 16832727,
      "is_ai": true,
      "track_id": 9,
      "velocity": 0,
      "is_motor": false,
      "motor_id": 0,
      "accel_val": 2000,
      "base_duration_us": 680287
    },
    {
      "id": "M_184",
      "pitch": 100,
      "t_note_us": 16968690,
      "t_trigger_us": 16832727,
      "is_ai": true,
      "track_id": 12,
      "velocity": 0,
      "is_motor": false,
      "motor_id": 0,
      "accel_val": 2000,
      "base_duration_us": 1862975
    },
    {
      "id": "M_225",
      "pitch": 91,
      "t_note_us": 16968690,
      "t_trigger_us": 16832727,
      "is_ai": true,
      "track_id": 7,
      "velocity": 0,
      "is_motor": false,
      "motor_id": 0,
      "accel_val": 2000,
      "base_duration_us": 5765605
    },
    {
      "id": "M_166",
      "pitch": 98,
      "t_note_us": 17412199,
      "t_trigger_us": 17276236,
      "is_ai": true,
      "track_id": 11,
      "velocity": 0,
      "is_motor": false,
      "motor_id": 0,
      "accel_val": 2000,
      "base_duration_us": 206730
    },
    {
      "id": "M_168",
      "pitch": 96,
      "t_note_us": 17618929,
      "t_trigger_us": 17482966,
      "is_ai": true,
      "track_id": 10,
      "velocity": 0,
      "is_motor": false,
      "motor_id": 0,
      "accel_val": 2000,
      "base_duration_us": 118990
    },
    {
      "id": "M_169",
      "pitch": 96,
      "t_note_us": 17825659,
      "t_trigger_us": 17689696,
      "is_ai": true,
      "track_id": 10,
      "velocity": 0,
      "is_motor": false,
      "motor_id": 0,
      "accel_val": 2000,
      "base_duration_us": 149038
    },
    {
      "id": "M_183",
      "pitch": 53,
      "t_note_us": 18003543,
      "t_trigger_us": 17867580,
      "is_ai": false,
      "track_id": 0,
      "velocity": 0,
      "is_motor": true,
      "motor_id": 0,
      "accel_val": 2000,
      "base_duration_us": 798074
    },
    {
      "id": "M_170",
      "pitch": 84,
      "t_note_us": 18299215,
      "t_trigger_us": 18163252,
      "is_ai": true,
      "track_id": 3,
      "velocity": 0,
      "is_motor": false,
      "motor_id": 0,
      "accel_val": 2000,
      "base_duration_us": 0
    },
    {
      "id": "M_171",
      "pitch": 69,
      "t_note_us": 18299215,
      "t_trigger_us": 18163252,
      "is_ai": false,
      "track_id": 0,
      "velocity": 0,
      "is_motor": true,
      "motor_id": 1,
      "accel_val": 2000,
      "base_duration_us": 0
    },
    {
      "id": "M_172",
      "pitch": 77,
      "t_note_us": 18299215,
      "t_trigger_us": 18163252,
      "is_ai": false,
      "track_id": 0,
      "velocity": 0,
      "is_motor": true,
      "motor_id": 2,
      "accel_val": 2000,
      "base_duration_us": 0
    },
    {
      "id": "M_173",
      "pitch": 65,
      "t_note_us": 18299215,
      "t_trigger_us": 18163252,
      "is_ai": false,
      "track_id": 0,
      "velocity": 0,
      "is_motor": true,
      "motor_id": 3,
      "accel_val": 2000,
      "base_duration_us": 0
    },
    {
      "id": "M_174",
      "pitch": 72,
      "t_note_us": 18447051,
      "t_trigger_us": 18311088,
      "is_ai": false,
      "track_id": 0,
      "velocity": 0,
      "is_motor": true,
      "motor_id": 1,
      "accel_val": 2000,
      "base_duration_us": 0
    },
    {
      "id": "M_175",
      "pitch": 69,
      "t_note_us": 18447051,
      "t_trigger_us": 18311088,
      "is_ai": false,
      "track_id": 0,
      "velocity": 0,
      "is_motor": true,
      "motor_id": 2,
      "accel_val": 2000,
      "base_duration_us": 0
    },
    {
      "id": "M_176",
      "pitch": 77,
      "t_note_us": 18447051,
      "t_trigger_us": 18311088,
      "is_ai": false,
      "track_id": 0,
      "velocity": 0,
      "is_motor": true,
      "motor_id": 3,
      "accel_val": 2000,
      "base_duration_us": 0
    },
    {
      "id": "M_186",
      "pitch": 69,
      "t_note_us": 18447051,
      "t_trigger_us": 18311088,
      "is_ai": false,
      "track_id": 0,
      "velocity": 0,
      "is_motor": true,
      "motor_id": 0,
      "accel_val": 2000,
      "base_duration_us": 384614
    },
    {
      "id": "M_177",
      "pitch": 72,
      "t_note_us": 18594887,
      "t_trigger_us": 18458924,
      "is_ai": false,
      "track_id": 0,
      "velocity": 0,
      "is_motor": true,
      "motor_id": 1,
      "accel_val": 2000,
      "base_duration_us": 0
    },
    {
      "id": "M_178",
      "pitch": 69,
      "t_note_us": 18594887,
      "t_trigger_us": 18458924,
      "is_ai": false,
      "track_id": 0,
      "velocity": 0,
      "is_motor": true,
      "motor_id": 2,
      "accel_val": 2000,
      "base_duration_us": 0
    },
    {
      "id": "M_179",
      "pitch": 77,
      "t_note_us": 18594887,
      "t_trigger_us": 18458924,
      "is_ai": false,
      "track_id": 0,
      "velocity": 0,
      "is_motor": true,
      "motor_id": 3,
      "accel_val": 2000,
      "base_duration_us": 0
    },
    {
      "id": "M_185",
      "pitch": 72,
      "t_note_us": 18594887,
      "t_trigger_us": 18458924,
      "is_ai": false,
      "track_id": 0,
      "velocity": 0,
      "is_motor": true,
      "motor_id": 0,
      "accel_val": 2000,
      "base_duration_us": 236778
    },
    {
      "id": "M_180",
      "pitch": 72,
      "t_note_us": 18743925,
      "t_trigger_us": 18607962,
      "is_ai": false,
      "track_id": 0,
      "velocity": 0,
      "is_motor": true,
      "motor_id": 1,
      "accel_val": 2000,
      "base_duration_us": 0
    },
    {
      "id": "M_181",
      "pitch": 69,
      "t_note_us": 18743925,
      "t_trigger_us": 18607962,
      "is_ai": false,
      "track_id": 0,
      "velocity": 0,
      "is_motor": true,
      "motor_id": 2,
      "accel_val": 2000,
      "base_duration_us": 0
    },
    {
      "id": "M_182",
      "pitch": 77,
      "t_note_us": 18772771,
      "t_trigger_us": 18636808,
      "is_ai": false,
      "track_id": 0,
      "velocity": 0,
      "is_motor": true,
      "motor_id": 2,
      "accel_val": 2000,
      "base_duration_us": 0
    },
    {
      "id": "M_187",
      "pitch": 76,
      "t_note_us": 18772771,
      "t_trigger_us": 18636808,
      "is_ai": false,
      "track_id": 0,
      "velocity": 0,
      "is_motor": true,
      "motor_id": 1,
      "accel_val": 2000,
      "base_duration_us": 88942
    },
    {
      "id": "M_189",
      "pitch": 68,
      "t_note_us": 19038395,
      "t_trigger_us": 18902432,
      "is_ai": false,
      "track_id": 0,
      "velocity": 0,
      "is_motor": true,
      "motor_id": 1,
      "accel_val": 2000,
      "base_duration_us": 444710
    },
    {
      "id": "M_199",
      "pitch": 59,
      "t_note_us": 19068443,
      "t_trigger_us": 18932480,
      "is_ai": false,
      "track_id": 0,
      "velocity": 0,
      "is_motor": true,
      "motor_id": 0,
      "accel_val": 2000,
      "base_duration_us": 1300476
    },
    {
      "id": "M_200",
      "pitch": 52,
      "t_note_us": 19068443,
      "t_trigger_us": 18932480,
      "is_ai": false,
      "track_id": 0,
      "velocity": 0,
      "is_motor": true,
      "motor_id": 2,
      "accel_val": 2000,
      "base_duration_us": 1300476
    },
    {
      "id": "M_188",
      "pitch": 64,
      "t_note_us": 19364115,
      "t_trigger_us": 19228152,
      "is_ai": false,
      "track_id": 0,
      "velocity": 0,
      "is_motor": true,
      "motor_id": 3,
      "accel_val": 2000,
      "base_duration_us": 0
    },
    {
      "id": "M_190",
      "pitch": 76,
      "t_note_us": 19511951,
      "t_trigger_us": 19375988,
      "is_ai": false,
      "track_id": 0,
      "velocity": 0,
      "is_motor": true,
      "motor_id": 1,
      "accel_val": 2000,
      "base_duration_us": 0
    },
    {
      "id": "M_198",
      "pitch": 71,
      "t_note_us": 19659787,
      "t_trigger_us": 19523824,
      "is_ai": false,
      "track_id": 0,
      "velocity": 0,
      "is_motor": true,
      "motor_id": 1,
      "accel_val": 2000,
      "base_duration_us": 709132
    },
    {
      "id": "M_191",
      "pitch": 76,
      "t_note_us": 19807623,
      "t_trigger_us": 19671660,
      "is_ai": false,
      "track_id": 0,
      "velocity": 0,
      "is_motor": true,
      "motor_id": 3,
      "accel_val": 2000,
      "base_duration_us": 0
    },
    {
      "id": "M_192",
      "pitch": 68,
      "t_note_us": 19807623,
      "t_trigger_us": 19671660,
      "is_ai": false,
      "track_id": 0,
      "velocity": 0,
      "is_motor": true,
      "motor_id": 0,
      "accel_val": 2000,
      "base_duration_us": 0
    },
    {
      "id": "M_197",
      "pitch": 74,
      "t_note_us": 19807623,
      "t_trigger_us": 19671660,
      "is_ai": false,
      "track_id": 0,
      "velocity": 0,
      "is_motor": true,
      "motor_id": 0,
      "accel_val": 2000,
      "base_duration_us": 561296
    },
    {
      "id": "M_193",
      "pitch": 76,
      "t_note_us": 20103295,
      "t_trigger_us": 19967332,
      "is_ai": false,
      "track_id": 0,
      "velocity": 0,
      "is_motor": true,
      "motor_id": 3,
      "accel_val": 2000,
      "base_duration_us": 0
    },
    {
      "id": "M_194",
      "pitch": 68,
      "t_note_us": 20103295,
      "t_trigger_us": 19967332,
      "is_ai": false,
      "track_id": 0,
      "velocity": 0,
      "is_motor": true,
      "motor_id": 0,
      "accel_val": 2000,
      "base_duration_us": 0
    },
    {
      "id": "M_195",
      "pitch": 64,
      "t_note_us": 20103295,
      "t_trigger_us": 19967332,
      "is_ai": false,
      "track_id": 0,
      "velocity": 0,
      "is_motor": true,
      "motor_id": 0,
      "accel_val": 2000,
      "base_duration_us": 0
    },
    {
      "id": "M_196",
      "pitch": 71,
      "t_note_us": 20103295,
      "t_trigger_us": 19967332,
      "is_ai": false,
      "track_id": 0,
      "velocity": 0,
      "is_motor": true,
      "motor_id": 0,
      "accel_val": 2000,
      "base_duration_us": 265624
    },
    {
      "id": "M_206",
      "pitch": 45,
      "t_note_us": 20398967,
      "t_trigger_us": 20263004,
      "is_ai": false,
      "track_id": 0,
      "velocity": 0,
      "is_motor": true,
      "motor_id": 0,
      "accel_val": 2000,
      "base_duration_us": 856968
    },
    {
      "id": "M_201",
      "pitch": 84,
      "t_note_us": 20694639,
      "t_trigger_us": 20558676,
      "is_ai": true,
      "track_id": 3,
      "velocity": 0,
      "is_motor": true,
      "motor_id": 3,
      "accel_val": 2000,
      "base_duration_us": 0
    },
    {
      "id": "M_202",
      "pitch": 67,
      "t_note_us": 20694639,
      "t_trigger_us": 20558676,
      "is_ai": false,
      "track_id": 0,
      "velocity": 0,
      "is_motor": true,
      "motor_id": 1,
      "accel_val": 2000,
      "base_duration_us": 0
    },
    {
      "id": "M_203",
      "pitch": 76,
      "t_note_us": 20694639,
      "t_trigger_us": 20558676,
      "is_ai": false,
      "track_id": 0,
      "velocity": 0,
      "is_motor": true,
      "motor_id": 2,
      "accel_val": 2000,
      "base_duration_us": 0
    },
    {
      "id": "M_204",
      "pitch": 57,
      "t_note_us": 20694639,
      "t_trigger_us": 20558676,
      "is_ai": false,
      "track_id": 0,
      "velocity": 0,
      "is_motor": true,
      "motor_id": 3,
      "accel_val": 2000,
      "base_duration_us": 0
    },
    {
      "id": "M_211",
      "pitch": 64,
      "t_note_us": 20842475,
      "t_trigger_us": 20706512,
      "is_ai": false,
      "track_id": 0,
      "velocity": 0,
      "is_motor": true,
      "motor_id": 1,
      "accel_val": 2000,
      "base_duration_us": 413460
    },
    {
      "id": "M_205",
      "pitch": 72,
      "t_note_us": 20989109,
      "t_trigger_us": 20853146,
      "is_ai": false,
      "track_id": 0,
      "velocity": 0,
      "is_motor": true,
      "motor_id": 2,
      "accel_val": 2000,
      "base_duration_us": 0
    },
    {
      "id": "M_207",
      "pitch": 67,
      "t_note_us": 20989109,
      "t_trigger_us": 20853146,
      "is_ai": false,
      "track_id": 0,
      "velocity": 0,
      "is_motor": true,
      "motor_id": 3,
      "accel_val": 2000,
      "base_duration_us": 266826
    },
    {
      "id": "M_208",
      "pitch": 69,
      "t_note_us": 20989109,
      "t_trigger_us": 20853146,
      "is_ai": false,
      "track_id": 0,
      "velocity": 0,
      "is_motor": true,
      "motor_id": 0,
      "accel_val": 2000,
      "base_duration_us": 266826
    },
    {
      "id": "M_209",
      "pitch": 72,
      "t_note_us": 21138147,
      "t_trigger_us": 21002184,
      "is_ai": false,
      "track_id": 0,
      "velocity": 0,
      "is_motor": true,
      "motor_id": 2,
      "accel_val": 2000,
      "base_duration_us": 117788
    },
    {
      "id": "M_210",
      "pitch": 76,
      "t_note_us": 21138147,
      "t_trigger_us": 21002184,
      "is_ai": false,
      "track_id": 0,
      "velocity": 0,
      "is_motor": true,
      "motor_id": 0,
      "accel_val": 2000,
      "base_duration_us": 117788
    },
    {
      "id": "M_212",
      "pitch": 72,
      "t_note_us": 21138147,
      "t_trigger_us": 21002184,
      "is_ai": false,
      "track_id": 0,
      "velocity": 0,
      "is_motor": true,
      "motor_id": 0,
      "accel_val": 2000,
      "base_duration_us": 147836
    },
    {
      "id": "M_226",
      "pitch": 84,
      "t_note_us": 21433819,
      "t_trigger_us": 21297856,
      "is_ai": true,
      "track_id": 3,
      "velocity": 0,
      "is_motor": true,
      "motor_id": 3,
      "accel_val": 2000,
      "base_duration_us": 1300476
    },
    {
      "id": "M_213",
      "pitch": 62,
      "t_note_us": 21433819,
      "t_trigger_us": 21297856,
      "is_ai": false,
      "track_id": 0,
      "velocity": 0,
      "is_motor": true,
      "motor_id": 1,
      "accel_val": 2000,
      "base_duration_us": 294470
    },
    {
      "id": "M_227",
      "pitch": 50,
      "t_note_us": 21433819,
      "t_trigger_us": 21297856,
      "is_ai": false,
      "track_id": 0,
      "velocity": 0,
      "is_motor": true,
      "motor_id": 0,
      "accel_val": 2000,
      "base_duration_us": 1300476
    },
    {
      "id": "M_214",
      "pitch": 78,
      "t_note_us": 21877327,
      "t_trigger_us": 21741364,
      "is_ai": false,
      "track_id": 0,
      "velocity": 0,
      "is_motor": true,
      "motor_id": 2,
      "accel_val": 2000,
      "base_duration_us": 0
    },
    {
      "id": "M_215",
      "pitch": 74,
      "t_note_us": 21877327,
      "t_trigger_us": 21741364,
      "is_ai": false,
      "track_id": 0,
      "velocity": 0,
      "is_motor": true,
      "motor_id": 1,
      "accel_val": 2000,
      "base_duration_us": 0
    },
    {
      "id": "M_216",
      "pitch": 69,
      "t_note_us": 22172999,
      "t_trigger_us": 22037036,
      "is_ai": false,
      "track_id": 0,
      "velocity": 0,
      "is_motor": true,
      "motor_id": 1,
      "accel_val": 2000,
      "base_duration_us": 0
    },
    {
      "id": "M_217",
      "pitch": 78,
      "t_note_us": 22172999,
      "t_trigger_us": 22037036,
      "is_ai": false,
      "track_id": 0,
      "velocity": 0,
      "is_motor": true,
      "motor_id": 2,
      "accel_val": 2000,
      "base_duration_us": 0
    },
    {
      "id": "M_218",
      "pitch": 74,
      "t_note_us": 22172999,
      "t_trigger_us": 22037036,
      "is_ai": false,
      "track_id": 0,
      "velocity": 0,
      "is_motor": true,
      "motor_id": 3,
      "accel_val": 2000,
      "base_duration_us": 0
    },
    {
      "id": "M_219",
      "pitch": 62,
      "t_note_us": 22349681,
      "t_trigger_us": 22213718,
      "is_ai": false,
      "track_id": 0,
      "velocity": 0,
      "is_motor": true,
      "motor_id": 1,
      "accel_val": 2000,
      "base_duration_us": 0
    },
    {
      "id": "M_220",
      "pitch": 69,
      "t_note_us": 22468671,
      "t_trigger_us": 22332708,
      "is_ai": false,
      "track_id": 0,
      "velocity": 0,
      "is_motor": true,
      "motor_id": 1,
      "accel_val": 2000,
      "base_duration_us": 0
    },
    {
      "id": "M_221",
      "pitch": 78,
      "t_note_us": 22468671,
      "t_trigger_us": 22332708,
      "is_ai": false,
      "track_id": 0,
      "velocity": 0,
      "is_motor": true,
      "motor_id": 2,
      "accel_val": 2000,
      "base_duration_us": 0
    },
    {
      "id": "M_222",
      "pitch": 74,
      "t_note_us": 22468671,
      "t_trigger_us": 22332708,
      "is_ai": false,
      "track_id": 0,
      "velocity": 0,
      "is_motor": true,
      "motor_id": 3,
      "accel_val": 2000,
      "base_duration_us": 0
    },
    {
      "id": "M_223",
      "pitch": 69,
      "t_note_us": 22497517,
      "t_trigger_us": 22361554,
      "is_ai": false,
      "track_id": 0,
      "velocity": 0,
      "is_motor": true,
      "motor_id": 1,
      "accel_val": 2000,
      "base_duration_us": 0
    },
    {
      "id": "M_224",
      "pitch": 66,
      "t_note_us": 22497517,
      "t_trigger_us": 22361554,
      "is_ai": false,
      "track_id": 0,
      "velocity": 0,
      "is_motor": true,
      "motor_id": 2,
      "accel_val": 2000,
      "base_duration_us": 0
    },
    {
      "id": "M_232",
      "pitch": 69,
      "t_note_us": 22764343,
      "t_trigger_us": 22628380,
      "is_ai": false,
      "track_id": 0,
      "velocity": 0,
      "is_motor": true,
      "motor_id": 1,
      "accel_val": 2000,
      "base_duration_us": 324518
    },
    {
      "id": "M_233",
      "pitch": 77,
      "t_note_us": 22764343,
      "t_trigger_us": 22628380,
      "is_ai": false,
      "track_id": 0,
      "velocity": 0,
      "is_motor": true,
      "motor_id": 2,
      "accel_val": 2000,
      "base_duration_us": 324518
    },
    {
      "id": "M_234",
      "pitch": 74,
      "t_note_us": 22764343,
      "t_trigger_us": 22628380,
      "is_ai": false,
      "track_id": 0,
      "velocity": 0,
      "is_motor": true,
      "motor_id": 0,
      "accel_val": 2000,
      "base_duration_us": 324518
    },
    {
      "id": "M_229",
      "pitch": 72,
      "t_note_us": 22793189,
      "t_trigger_us": 22657226,
      "is_ai": false,
      "track_id": 0,
      "velocity": 0,
      "is_motor": true,
      "motor_id": 3,
      "accel_val": 2000,
      "base_duration_us": 295672
    },
    {
      "id": "M_230",
      "pitch": 62,
      "t_note_us": 22793189,
      "t_trigger_us": 22657226,
      "is_ai": false,
      "track_id": 0,
      "velocity": 0,
      "is_motor": true,
      "motor_id": 0,
      "accel_val": 2000,
      "base_duration_us": 295672
    },
    {
      "id": "M_231",
      "pitch": 50,
      "t_note_us": 22793189,
      "t_trigger_us": 22657226,
      "is_ai": false,
      "track_id": 0,
      "velocity": 0,
      "is_motor": true,
      "motor_id": 0,
      "accel_val": 2000,
      "base_duration_us": 295672
    },
    {
      "id": "M_228",
      "pitch": 57,
      "t_note_us": 22941025,
      "t_trigger_us": 22805062,
      "is_ai": false,
      "track_id": 0,
      "velocity": 0,
      "is_motor": true,
      "motor_id": 0,
      "accel_val": 2000,
      "base_duration_us": 147836
    },
    {
      "id": "M_237",
      "pitch": 71,
      "t_note_us": 23236697,
      "t_trigger_us": 23100734,
      "is_ai": false,
      "track_id": 0,
      "velocity": 0,
      "is_motor": true,
      "motor_id": 1,
      "accel_val": 2000,
      "base_duration_us": 325720
    },
    {
      "id": "M_238",
      "pitch": 67,
      "t_note_us": 23236697,
      "t_trigger_us": 23100734,
      "is_ai": false,
      "track_id": 0,
      "velocity": 0,
      "is_motor": true,
      "motor_id": 2,
      "accel_val": 2000,
      "base_duration_us": 325720
    },
    {
      "id": "M_239",
      "pitch": 76,
      "t_note_us": 23236697,
      "t_trigger_us": 23100734,
      "is_ai": false,
      "track_id": 0,
      "velocity": 0,
      "is_motor": true,
      "motor_id": 3,
      "accel_val": 2000,
      "base_duration_us": 325720
    },
    {
      "id": "M_240",
      "pitch": 52,
      "t_note_us": 23236697,
      "t_trigger_us": 23100734,
      "is_ai": false,
      "track_id": 0,
      "velocity": 0,
      "is_motor": true,
      "motor_id": 0,
      "accel_val": 2000,
      "base_duration_us": 325720
    },
    {
      "id": "M_236",
      "pitch": 59,
      "t_note_us": 23385735,
      "t_trigger_us": 23249772,
      "is_ai": false,
      "track_id": 0,
      "velocity": 0,
      "is_motor": true,
      "motor_id": 0,
      "accel_val": 2000,
      "base_duration_us": 176682
    },
    {
      "id": "M_235",
      "pitch": 64,
      "t_note_us": 23532369,
      "t_trigger_us": 23396406,
      "is_ai": false,
      "track_id": 0,
      "velocity": 0,
      "is_motor": true,
      "motor_id": 0,
      "accel_val": 2000,
      "base_duration_us": 0
    },
    {
      "id": "M_241",
      "pitch": 53,
      "t_note_us": 23681407,
      "t_trigger_us": 23545444,
      "is_ai": false,
      "track_id": 0,
      "velocity": 0,
      "is_motor": true,
      "motor_id": 0,
      "accel_val": 2000,
      "base_duration_us": 294470
    },
    {
      "id": "M_242",
      "pitch": 69,
      "t_note_us": 23681407,
      "t_trigger_us": 23545444,
      "is_ai": false,
      "track_id": 0,
      "velocity": 0,
      "is_motor": true,
      "motor_id": 1,
      "accel_val": 2000,
      "base_duration_us": 383412
    },
    {
      "id": "M_243",
      "pitch": 77,
      "t_note_us": 23681407,
      "t_trigger_us": 23545444,
      "is_ai": false,
      "track_id": 0,
      "velocity": 0,
      "is_motor": true,
      "motor_id": 2,
      "accel_val": 2000,
      "base_duration_us": 383412
    },
    {
      "id": "M_244",
      "pitch": 65,
      "t_note_us": 23681407,
      "t_trigger_us": 23545444,
      "is_ai": false,
      "track_id": 0,
      "velocity": 0,
      "is_motor": true,
      "motor_id": 3,
      "accel_val": 2000,
      "base_duration_us": 383412
    },
    {
      "id": "M_256",
      "pitch": 72,
      "t_note_us": 23681407,
      "t_trigger_us": 23545444,
      "is_ai": false,
      "track_id": 0,
      "velocity": 0,
      "is_motor": true,
      "motor_id": 0,
      "accel_val": 2000,
      "base_duration_us": 1448313
    },
    {
      "id": "M_246",
      "pitch": 60,
      "t_note_us": 23828041,
      "t_trigger_us": 23692078,
      "is_ai": false,
      "track_id": 0,
      "velocity": 0,
      "is_motor": true,
      "motor_id": 0,
      "accel_val": 2000,
      "base_duration_us": 266826
    },
    {
      "id": "M_245",
      "pitch": 53,
      "t_note_us": 23975877,
      "t_trigger_us": 23839914,
      "is_ai": false,
      "track_id": 0,
      "velocity": 0,
      "is_motor": true,
      "motor_id": 0,
      "accel_val": 2000,
      "base_duration_us": 88942
    },
    {
      "id": "M_247",
      "pitch": 96,
      "t_note_us": 24124915,
      "t_trigger_us": 23988952,
      "is_ai": true,
      "track_id": 10,
      "velocity": 0,
      "is_motor": false,
      "motor_id": 0,
      "accel_val": 2000,
      "base_duration_us": 442307
    },
    {
      "id": "M_248",
      "pitch": 89,
      "t_note_us": 24124915,
      "t_trigger_us": 23988952,
      "is_ai": true,
      "track_id": 6,
      "velocity": 0,
      "is_motor": false,
      "motor_id": 0,
      "accel_val": 2000,
      "base_duration_us": 442307
    },
    {
      "id": "M_249",
      "pitch": 55,
      "t_note_us": 24124915,
      "t_trigger_us": 23988952,
      "is_ai": false,
      "track_id": 0,
      "velocity": 0,
      "is_motor": true,
      "motor_id": 0,
      "accel_val": 2000,
      "base_duration_us": 442307
    },
    {
      "id": "M_250",
      "pitch": 43,
      "t_note_us": 24124915,
      "t_trigger_us": 23988952,
      "is_ai": false,
      "track_id": 0,
      "velocity": 0,
      "is_motor": true,
      "motor_id": 1,
      "accel_val": 2000,
      "base_duration_us": 442307
    },
    {
      "id": "M_258",
      "pitch": 43,
      "t_note_us": 24567222,
      "t_trigger_us": 24431259,
      "is_ai": false,
      "track_id": 0,
      "velocity": 0,
      "is_motor": true,
      "motor_id": 0,
      "accel_val": 2000,
      "base_duration_us": 562498
    },
    {
      "id": "M_251",
      "pitch": 89,
      "t_note_us": 24715058,
      "t_trigger_us": 24579095,
      "is_ai": true,
      "track_id": 6,
      "velocity": 0,
      "is_motor": false,
      "motor_id": 0,
      "accel_val": 2000,
      "base_duration_us": 0
    },
    {
      "id": "M_283",
      "pitch": 91,
      "t_note_us": 24715058,
      "t_trigger_us": 24579095,
      "is_ai": true,
      "track_id": 7,
      "velocity": 0,
      "is_motor": false,
      "motor_id": 0,
      "accel_val": 2000,
      "base_duration_us": 2749991
    },
    {
      "id": "M_252",
      "pitch": 55,
      "t_note_us": 24715058,
      "t_trigger_us": 24579095,
      "is_ai": false,
      "track_id": 0,
      "velocity": 0,
      "is_motor": true,
      "motor_id": 1,
      "accel_val": 2000,
      "base_duration_us": 0
    },
    {
      "id": "M_253",
      "pitch": 89,
      "t_note_us": 24864096,
      "t_trigger_us": 24728133,
      "is_ai": true,
      "track_id": 6,
      "velocity": 0,
      "is_motor": false,
      "motor_id": 0,
      "accel_val": 2000,
      "base_duration_us": 0
    },
    {
      "id": "M_255",
      "pitch": 96,
      "t_note_us": 24864096,
      "t_trigger_us": 24728133,
      "is_ai": true,
      "track_id": 10,
      "velocity": 0,
      "is_motor": false,
      "motor_id": 0,
      "accel_val": 2000,
      "base_duration_us": 0
    },
    {
      "id": "M_254",
      "pitch": 55,
      "t_note_us": 24864096,
      "t_trigger_us": 24728133,
      "is_ai": false,
      "track_id": 0,
      "velocity": 0,
      "is_motor": true,
      "motor_id": 1,
      "accel_val": 2000,
      "base_duration_us": 0
    },
    {
      "id": "M_257",
      "pitch": 55,
      "t_note_us": 25010730,
      "t_trigger_us": 24874767,
      "is_ai": false,
      "track_id": 0,
      "velocity": 0,
      "is_motor": true,
      "motor_id": 1,
      "accel_val": 2000,
      "base_duration_us": 118990
    },
    {
      "id": "M_259",
      "pitch": 69,
      "t_note_us": 25159768,
      "t_trigger_us": 25023805,
      "is_ai": false,
      "track_id": 0,
      "velocity": 0,
      "is_motor": true,
      "motor_id": 1,
      "accel_val": 2000,
      "base_duration_us": 235576
    },
    {
      "id": "M_260",
      "pitch": 72,
      "t_note_us": 25159768,
      "t_trigger_us": 25023805,
      "is_ai": false,
      "track_id": 0,
      "velocity": 0,
      "is_motor": true,
      "motor_id": 0,
      "accel_val": 2000,
      "base_duration_us": 264422
    },
    {
      "id": "M_261",
      "pitch": 76,
      "t_note_us": 25159768,
      "t_trigger_us": 25023805,
      "is_ai": false,
      "track_id": 0,
      "velocity": 0,
      "is_motor": true,
      "motor_id": 2,
      "accel_val": 2000,
      "base_duration_us": 264422
    },
    {
      "id": "M_262",
      "pitch": 72,
      "t_note_us": 25159768,
      "t_trigger_us": 25023805,
      "is_ai": false,
      "track_id": 0,
      "velocity": 0,
      "is_motor": true,
      "motor_id": 3,
      "accel_val": 2000,
      "base_duration_us": 264422
    },
    {
      "id": "M_263",
      "pitch": 57,
      "t_note_us": 25159768,
      "t_trigger_us": 25023805,
      "is_ai": false,
      "track_id": 0,
      "velocity": 0,
      "is_motor": true,
      "motor_id": 0,
      "accel_val": 2000,
      "base_duration_us": 264422
    },
    {
      "id": "M_264",
      "pitch": 45,
      "t_note_us": 25159768,
      "t_trigger_us": 25023805,
      "is_ai": false,
      "track_id": 0,
      "velocity": 0,
      "is_motor": true,
      "motor_id": 0,
      "accel_val": 2000,
      "base_duration_us": 264422
    },
    {
      "id": "M_265",
      "pitch": 69,
      "t_note_us": 25603276,
      "t_trigger_us": 25467313,
      "is_ai": false,
      "track_id": 0,
      "velocity": 0,
      "is_motor": true,
      "motor_id": 1,
      "accel_val": 2000,
      "base_duration_us": 206730
    },
    {
      "id": "M_266",
      "pitch": 69,
      "t_note_us": 25603276,
      "t_trigger_us": 25467313,
      "is_ai": false,
      "track_id": 0,
      "velocity": 0,
      "is_motor": true,
      "motor_id": 2,
      "accel_val": 2000,
      "base_duration_us": 206730
    },
    {
      "id": "M_267",
      "pitch": 76,
      "t_note_us": 25603276,
      "t_trigger_us": 25467313,
      "is_ai": false,
      "track_id": 0,
      "velocity": 0,
      "is_motor": true,
      "motor_id": 3,
      "accel_val": 2000,
      "base_duration_us": 235576
    },
    {
      "id": "M_268",
      "pitch": 72,
      "t_note_us": 25603276,
      "t_trigger_us": 25467313,
      "is_ai": false,
      "track_id": 0,
      "velocity": 0,
      "is_motor": true,
      "motor_id": 0,
      "accel_val": 2000,
      "base_duration_us": 235576
    },
    {
      "id": "M_269",
      "pitch": 57,
      "t_note_us": 25603276,
      "t_trigger_us": 25467313,
      "is_ai": false,
      "track_id": 0,
      "velocity": 0,
      "is_motor": true,
      "motor_id": 0,
      "accel_val": 2000,
      "base_duration_us": 235576
    },
    {
      "id": "M_270",
      "pitch": 72,
      "t_note_us": 25603276,
      "t_trigger_us": 25467313,
      "is_ai": false,
      "track_id": 0,
      "velocity": 0,
      "is_motor": true,
      "motor_id": 0,
      "accel_val": 2000,
      "base_duration_us": 265624
    },
    {
      "id": "M_271",
      "pitch": 69,
      "t_note_us": 26045582,
      "t_trigger_us": 25909619,
      "is_ai": false,
      "track_id": 0,
      "velocity": 0,
      "is_motor": true,
      "motor_id": 1,
      "accel_val": 2000,
      "base_duration_us": 236778
    },
    {
      "id": "M_273",
      "pitch": 76,
      "t_note_us": 26045582,
      "t_trigger_us": 25909619,
      "is_ai": false,
      "track_id": 0,
      "velocity": 0,
      "is_motor": true,
      "motor_id": 2,
      "accel_val": 2000,
      "base_duration_us": 266826
    },
    {
      "id": "M_276",
      "pitch": 72,
      "t_note_us": 26045582,
      "t_trigger_us": 25909619,
      "is_ai": false,
      "track_id": 0,
      "velocity": 0,
      "is_motor": true,
      "motor_id": 0,
      "accel_val": 2000,
      "base_duration_us": 443508
    },
    {
      "id": "M_272",
      "pitch": 72,
      "t_note_us": 26075630,
      "t_trigger_us": 25939667,
      "is_ai": false,
      "track_id": 0,
      "velocity": 0,
      "is_motor": true,
      "motor_id": 3,
      "accel_val": 2000,
      "base_duration_us": 206730
    },
    {
      "id": "M_274",
      "pitch": 57,
      "t_note_us": 26075630,
      "t_trigger_us": 25939667,
      "is_ai": false,
      "track_id": 0,
      "velocity": 0,
      "is_motor": true,
      "motor_id": 0,
      "accel_val": 2000,
      "base_duration_us": 236778
    },
    {
      "id": "M_275",
      "pitch": 45,
      "t_note_us": 26075630,
      "t_trigger_us": 25939667,
      "is_ai": false,
      "track_id": 0,
      "velocity": 0,
      "is_motor": true,
      "motor_id": 0,
      "accel_val": 2000,
      "base_duration_us": 236778
    },
    {
      "id": "M_284",
      "pitch": 88,
      "t_note_us": 26489090,
      "t_trigger_us": 26353127,
      "is_ai": true,
      "track_id": 5,
      "velocity": 0,
      "is_motor": false,
      "motor_id": 0,
      "accel_val": 2000,
      "base_duration_us": 975959
    },
    {
      "id": "M_277",
      "pitch": 96,
      "t_note_us": 26519138,
      "t_trigger_us": 26383175,
      "is_ai": true,
      "track_id": 10,
      "velocity": 0,
      "is_motor": false,
      "motor_id": 0,
      "accel_val": 2000,
      "base_duration_us": 265624
    },
    {
      "id": "M_280",
      "pitch": 45,
      "t_note_us": 26519138,
      "t_trigger_us": 26383175,
      "is_ai": false,
      "track_id": 0,
      "velocity": 0,
      "is_motor": true,
      "motor_id": 0,
      "accel_val": 2000,
      "base_duration_us": 945911
    },
    {
      "id": "M_278",
      "pitch": 72,
      "t_note_us": 26578032,
      "t_trigger_us": 26442069,
      "is_ai": false,
      "track_id": 0,
      "velocity": 0,
      "is_motor": true,
      "motor_id": 1,
      "accel_val": 2000,
      "base_duration_us": 887017
    },
    {
      "id": "M_279",
      "pitch": 93,
      "t_note_us": 26695820,
      "t_trigger_us": 26559857,
      "is_ai": true,
      "track_id": 8,
      "velocity": 0,
      "is_motor": false,
      "motor_id": 0,
      "accel_val": 2000,
      "base_duration_us": 769229
    },
    {
      "id": "M_282",
      "pitch": 96,
      "t_note_us": 26784762,
      "t_trigger_us": 26648799,
      "is_ai": true,
      "track_id": 10,
      "velocity": 0,
      "is_motor": false,
      "motor_id": 0,
      "accel_val": 2000,
      "base_duration_us": 680287
    },
    {
      "id": "M_327",
      "pitch": 100,
      "t_note_us": 26902550,
      "t_trigger_us": 26766587,
      "is_ai": true,
      "track_id": 12,
      "velocity": 0,
      "is_motor": false,
      "motor_id": 0,
      "accel_val": 2000,
      "base_duration_us": 5382193
    },
    {
      "id": "M_281",
      "pitch": 93,
      "t_note_us": 26932598,
      "t_trigger_us": 26796635,
      "is_ai": true,
      "track_id": 8,
      "velocity": 0,
      "is_motor": false,
      "motor_id": 0,
      "accel_val": 2000,
      "base_duration_us": 532451
    },
    {
      "id": "M_285",
      "pitch": 96,
      "t_note_us": 27021540,
      "t_trigger_us": 26885577,
      "is_ai": true,
      "track_id": 10,
      "velocity": 0,
      "is_motor": false,
      "motor_id": 0,
      "accel_val": 2000,
      "base_duration_us": 443509
    },
    {
      "id": "M_286",
      "pitch": 52,
      "t_note_us": 27553991,
      "t_trigger_us": 27418028,
      "is_ai": false,
      "track_id": 0,
      "velocity": 0,
      "is_motor": true,
      "motor_id": 0,
      "accel_val": 2000,
      "base_duration_us": 206730
    },
    {
      "id": "M_287",
      "pitch": 69,
      "t_note_us": 27553991,
      "t_trigger_us": 27418028,
      "is_ai": false,
      "track_id": 0,
      "velocity": 0,
      "is_motor": true,
      "motor_id": 1,
      "accel_val": 2000,
      "base_duration_us": 325720
    },
    {
      "id": "M_288",
      "pitch": 52,
      "t_note_us": 27849663,
      "t_trigger_us": 27713700,
      "is_ai": false,
      "track_id": 0,
      "velocity": 0,
      "is_motor": true,
      "motor_id": 0,
      "accel_val": 2000,
      "base_duration_us": 177884
    },
    {
      "id": "M_289",
      "pitch": 55,
      "t_note_us": 27997499,
      "t_trigger_us": 27861536,
      "is_ai": false,
      "track_id": 0,
      "velocity": 0,
      "is_motor": true,
      "motor_id": 1,
      "accel_val": 2000,
      "base_duration_us": 147836
    },
    {
      "id": "M_291",
      "pitch": 67,
      "t_note_us": 27997499,
      "t_trigger_us": 27861536,
      "is_ai": false,
      "track_id": 0,
      "velocity": 0,
      "is_motor": true,
      "motor_id": 2,
      "accel_val": 2000,
      "base_duration_us": 354566
    },
    {
      "id": "M_290",
      "pitch": 59,
      "t_note_us": 28145335,
      "t_trigger_us": 28009372,
      "is_ai": false,
      "track_id": 0,
      "velocity": 0,
      "is_motor": true,
      "motor_id": 0,
      "accel_val": 2000,
      "base_duration_us": 206730
    },
    {
      "id": "M_292",
      "pitch": 62,
      "t_note_us": 28293171,
      "t_trigger_us": 28157208,
      "is_ai": false,
      "track_id": 0,
      "velocity": 0,
      "is_motor": true,
      "motor_id": 1,
      "accel_val": 2000,
      "base_duration_us": 147836
    },
    {
      "id": "M_295",
      "pitch": 75,
      "t_note_us": 28441007,
      "t_trigger_us": 28305044,
      "is_ai": false,
      "track_id": 0,
      "velocity": 0,
      "is_motor": true,
      "motor_id": 2,
      "accel_val": 2000,
      "base_duration_us": 265624
    },
    {
      "id": "M_293",
      "pitch": 64,
      "t_note_us": 28588843,
      "t_trigger_us": 28452880,
      "is_ai": false,
      "track_id": 0,
      "velocity": 0,
      "is_motor": true,
      "motor_id": 1,
      "accel_val": 2000,
      "base_duration_us": 117788
    },
    {
      "id": "M_294",
      "pitch": 52,
      "t_note_us": 28588843,
      "t_trigger_us": 28452880,
      "is_ai": false,
      "track_id": 0,
      "velocity": 0,
      "is_motor": true,
      "motor_id": 0,
      "accel_val": 2000,
      "base_duration_us": 117788
    },
    {
      "id": "M_296",
      "pitch": 52,
      "t_note_us": 28884515,
      "t_trigger_us": 28748552,
      "is_ai": false,
      "track_id": 0,
      "velocity": 0,
      "is_motor": true,
      "motor_id": 0,
      "accel_val": 2000,
      "base_duration_us": 117788
    },
    {
      "id": "M_297",
      "pitch": 64,
      "t_note_us": 28884515,
      "t_trigger_us": 28748552,
      "is_ai": false,
      "track_id": 0,
      "velocity": 0,
      "is_motor": true,
      "motor_id": 1,
      "accel_val": 2000,
      "base_duration_us": 147836
    },
    {
      "id": "M_298",
      "pitch": 74,
      "t_note_us": 28884515,
      "t_trigger_us": 28748552,
      "is_ai": false,
      "track_id": 0,
      "velocity": 0,
      "is_motor": true,
      "motor_id": 2,
      "accel_val": 2000,
      "base_duration_us": 207932
    },
    {
      "id": "M_299",
      "pitch": 72,
      "t_note_us": 29180187,
      "t_trigger_us": 29044224,
      "is_ai": false,
      "track_id": 0,
      "velocity": 0,
      "is_motor": true,
      "motor_id": 1,
      "accel_val": 2000,
      "base_duration_us": 147836
    },
    {
      "id": "M_300",
      "pitch": 67,
      "t_note_us": 29180187,
      "t_trigger_us": 29044224,
      "is_ai": false,
      "track_id": 0,
      "velocity": 0,
      "is_motor": true,
      "motor_id": 2,
      "accel_val": 2000,
      "base_duration_us": 176682
    },
    {
      "id": "M_301",
      "pitch": 55,
      "t_note_us": 29180187,
      "t_trigger_us": 29044224,
      "is_ai": false,
      "track_id": 0,
      "velocity": 0,
      "is_motor": true,
      "motor_id": 0,
      "accel_val": 2000,
      "base_duration_us": 176682
    },
    {
      "id": "M_302",
      "pitch": 74,
      "t_note_us": 29328023,
      "t_trigger_us": 29192060,
      "is_ai": false,
      "track_id": 0,
      "velocity": 0,
      "is_motor": true,
      "motor_id": 1,
      "accel_val": 2000,
      "base_duration_us": 177884
    },
    {
      "id": "M_303",
      "pitch": 72,
      "t_note_us": 29475859,
      "t_trigger_us": 29339896,
      "is_ai": false,
      "track_id": 0,
      "velocity": 0,
      "is_motor": true,
      "motor_id": 0,
      "accel_val": 2000,
      "base_duration_us": 176682
    },
    {
      "id": "M_304",
      "pitch": 65,
      "t_note_us": 29475859,
      "t_trigger_us": 29339896,
      "is_ai": false,
      "track_id": 0,
      "velocity": 0,
      "is_motor": true,
      "motor_id": 2,
      "accel_val": 2000,
      "base_duration_us": 236778
    },
    {
      "id": "M_305",
      "pitch": 53,
      "t_note_us": 29475859,
      "t_trigger_us": 29339896,
      "is_ai": false,
      "track_id": 0,
      "velocity": 0,
      "is_motor": true,
      "motor_id": 3,
      "accel_val": 2000,
      "base_duration_us": 236778
    },
    {
      "id": "M_306",
      "pitch": 74,
      "t_note_us": 29623695,
      "t_trigger_us": 29487732,
      "is_ai": false,
      "track_id": 0,
      "velocity": 0,
      "is_motor": true,
      "motor_id": 1,
      "accel_val": 2000,
      "base_duration_us": 177884
    },
    {
      "id": "M_307",
      "pitch": 72,
      "t_note_us": 29771531,
      "t_trigger_us": 29635568,
      "is_ai": false,
      "track_id": 0,
      "velocity": 0,
      "is_motor": true,
      "motor_id": 0,
      "accel_val": 2000,
      "base_duration_us": 147836
    },
    {
      "id": "M_308",
      "pitch": 52,
      "t_note_us": 29919367,
      "t_trigger_us": 29783404,
      "is_ai": false,
      "track_id": 0,
      "velocity": 0,
      "is_motor": true,
      "motor_id": 0,
      "accel_val": 2000,
      "base_duration_us": 147836
    },
    {
      "id": "M_309",
      "pitch": 74,
      "t_note_us": 29919367,
      "t_trigger_us": 29783404,
      "is_ai": false,
      "track_id": 0,
      "velocity": 0,
      "is_motor": true,
      "motor_id": 1,
      "accel_val": 2000,
      "base_duration_us": 177884
    },
    {
      "id": "M_310",
      "pitch": 72,
      "t_note_us": 30067203,
      "t_trigger_us": 29931240,
      "is_ai": false,
      "track_id": 0,
      "velocity": 0,
      "is_motor": true,
      "motor_id": 0,
      "accel_val": 2000,
      "base_duration_us": 177884
    },
    {
      "id": "M_311",
      "pitch": 64,
      "t_note_us": 30245087,
      "t_trigger_us": 30109124,
      "is_ai": false,
      "track_id": 0,
      "velocity": 0,
      "is_motor": true,
      "motor_id": 1,
      "accel_val": 2000,
      "base_duration_us": 176682
    },
    {
      "id": "M_312",
      "pitch": 52,
      "t_note_us": 30245087,
      "t_trigger_us": 30109124,
      "is_ai": false,
      "track_id": 0,
      "velocity": 0,
      "is_motor": true,
      "motor_id": 0,
      "accel_val": 2000,
      "base_duration_us": 176682
    },
    {
      "id": "M_313",
      "pitch": 74,
      "t_note_us": 30334029,
      "t_trigger_us": 30198066,
      "is_ai": false,
      "track_id": 0,
      "velocity": 0,
      "is_motor": true,
      "motor_id": 2,
      "accel_val": 2000,
      "base_duration_us": 117788
    },
    {
      "id": "M_314",
      "pitch": 55,
      "t_note_us": 30362875,
      "t_trigger_us": 30226912,
      "is_ai": false,
      "track_id": 0,
      "velocity": 0,
      "is_motor": true,
      "motor_id": 3,
      "accel_val": 2000,
      "base_duration_us": 177884
    },
    {
      "id": "M_317",
      "pitch": 76,
      "t_note_us": 30391721,
      "t_trigger_us": 30255758,
      "is_ai": false,
      "track_id": 0,
      "velocity": 0,
      "is_motor": true,
      "motor_id": 0,
      "accel_val": 2000,
      "base_duration_us": 355768
    },
    {
      "id": "M_316",
      "pitch": 59,
      "t_note_us": 30540759,
      "t_trigger_us": 30404796,
      "is_ai": false,
      "track_id": 0,
      "velocity": 0,
      "is_motor": true,
      "motor_id": 0,
      "accel_val": 2000,
      "base_duration_us": 206730
    },
    {
      "id": "M_315",
      "pitch": 62,
      "t_note_us": 30688595,
      "t_trigger_us": 30552632,
      "is_ai": false,
      "track_id": 0,
      "velocity": 0,
      "is_motor": true,
      "motor_id": 1,
      "accel_val": 2000,
      "base_duration_us": 58894
    },
    {
      "id": "M_318",
      "pitch": 52,
      "t_note_us": 30984267,
      "t_trigger_us": 30848304,
      "is_ai": false,
      "track_id": 0,
      "velocity": 0,
      "is_motor": true,
      "motor_id": 0,
      "accel_val": 2000,
      "base_duration_us": 28846
    },
    {
      "id": "M_319",
      "pitch": 64,
      "t_note_us": 30984267,
      "t_trigger_us": 30848304,
      "is_ai": false,
      "track_id": 0,
      "velocity": 0,
      "is_motor": true,
      "motor_id": 1,
      "accel_val": 2000,
      "base_duration_us": 58894
    },
    {
      "id": "M_320",
      "pitch": 59,
      "t_note_us": 31279939,
      "t_trigger_us": 31143976,
      "is_ai": false,
      "track_id": 0,
      "velocity": 0,
      "is_motor": true,
      "motor_id": 0,
      "accel_val": 2000,
      "base_duration_us": 117788
    },
    {
      "id": "M_321",
      "pitch": 96,
      "t_note_us": 31427775,
      "t_trigger_us": 31291812,
      "is_ai": true,
      "track_id": 10,
      "velocity": 0,
      "is_motor": false,
      "motor_id": 0,
      "accel_val": 2000,
      "base_duration_us": 0
    },
    {
      "id": "M_322",
      "pitch": 96,
      "t_note_us": 31427775,
      "t_trigger_us": 31291812,
      "is_ai": true,
      "track_id": 10,
      "velocity": 0,
      "is_motor": false,
      "motor_id": 0,
      "accel_val": 2000,
      "base_duration_us": 0
    },
    {
      "id": "M_323",
      "pitch": 52,
      "t_note_us": 31723447,
      "t_trigger_us": 31587484,
      "is_ai": false,
      "track_id": 0,
      "velocity": 0,
      "is_motor": true,
      "motor_id": 0,
      "accel_val": 2000,
      "base_duration_us": 0
    },
    {
      "id": "M_328",
      "pitch": 93,
      "t_note_us": 31870081,
      "t_trigger_us": 31734118,
      "is_ai": true,
      "track_id": 8,
      "velocity": 0,
      "is_motor": false,
      "motor_id": 0,
      "accel_val": 2000,
      "base_duration_us": 414662
    },
    {
      "id": "M_329",
      "pitch": 59,
      "t_note_us": 31870081,
      "t_trigger_us": 31734118,
      "is_ai": false,
      "track_id": 0,
      "velocity": 0,
      "is_motor": true,
      "motor_id": 0,
      "accel_val": 2000,
      "base_duration_us": 414662
    },
    {
      "id": "M_324",
      "pitch": 96,
      "t_note_us": 32019119,
      "t_trigger_us": 31883156,
      "is_ai": true,
      "track_id": 10,
      "velocity": 0,
      "is_motor": false,
      "motor_id": 0,
      "accel_val": 2000,
      "base_duration_us": 0
    },
    {
      "id": "M_325",
      "pitch": 96,
      "t_note_us": 32019119,
      "t_trigger_us": 31883156,
      "is_ai": true,
      "track_id": 10,
      "velocity": 0,
      "is_motor": false,
      "motor_id": 0,
      "accel_val": 2000,
      "base_duration_us": 0
    },
    {
      "id": "M_326",
      "pitch": 64,
      "t_note_us": 32019119,
      "t_trigger_us": 31883156,
      "is_ai": false,
      "track_id": 0,
      "velocity": 0,
      "is_motor": true,
      "motor_id": 1,
      "accel_val": 2000,
      "base_duration_us": 0
    },
    {
      "id": "M_330",
      "pitch": 69,
      "t_note_us": 32314791,
      "t_trigger_us": 32178828,
      "is_ai": false,
      "track_id": 0,
      "velocity": 0,
      "is_motor": true,
      "motor_id": 1,
      "accel_val": 2000,
      "base_duration_us": 265624
    },
    {
      "id": "M_331",
      "pitch": 52,
      "t_note_us": 32314791,
      "t_trigger_us": 32178828,
      "is_ai": false,
      "track_id": 0,
      "velocity": 0,
      "is_motor": true,
      "motor_id": 0,
      "accel_val": 2000,
      "base_duration_us": 265624
    },
    {
      "id": "M_332",
      "pitch": 52,
      "t_note_us": 32609261,
      "t_trigger_us": 32473298,
      "is_ai": false,
      "track_id": 0,
      "velocity": 0,
      "is_motor": true,
      "motor_id": 0,
      "accel_val": 2000,
      "base_duration_us": 179086
    },
    {
      "id": "M_333",
      "pitch": 55,
      "t_note_us": 32758299,
      "t_trigger_us": 32622336,
      "is_ai": false,
      "track_id": 0,
      "velocity": 0,
      "is_motor": true,
      "motor_id": 1,
      "accel_val": 2000,
      "base_duration_us": 176682
    },
    {
      "id": "M_335",
      "pitch": 67,
      "t_note_us": 32758299,
      "t_trigger_us": 32622336,
      "is_ai": false,
      "track_id": 0,
      "velocity": 0,
      "is_motor": true,
      "motor_id": 2,
      "accel_val": 2000,
      "base_duration_us": 324518
    },
    {
      "id": "M_334",
      "pitch": 59,
      "t_note_us": 32934981,
      "t_trigger_us": 32799018,
      "is_ai": false,
      "track_id": 0,
      "velocity": 0,
      "is_motor": true,
      "motor_id": 0,
      "accel_val": 2000,
      "base_duration_us": 147836
    },
    {
      "id": "M_336",
      "pitch": 62,
      "t_note_us": 33052769,
      "t_trigger_us": 32916806,
      "is_ai": false,
      "track_id": 0,
      "velocity": 0,
      "is_motor": true,
      "motor_id": 1,
      "accel_val": 2000,
      "base_duration_us": 149038
    },
    {
      "id": "M_339",
      "pitch": 76,
      "t_note_us": 33201807,
      "t_trigger_us": 33065844,
      "is_ai": false,
      "track_id": 0,
      "velocity": 0,
      "is_motor": true,
      "motor_id": 2,
      "accel_val": 2000,
      "base_duration_us": 265624
    },
    {
      "id": "M_337",
      "pitch": 64,
      "t_note_us": 33348441,
      "t_trigger_us": 33212478,
      "is_ai": false,
      "track_id": 0,
      "velocity": 0,
      "is_motor": true,
      "motor_id": 1,
      "accel_val": 2000,
      "base_duration_us": 88942
    },
    {
      "id": "M_338",
      "pitch": 52,
      "t_note_us": 33378489,
      "t_trigger_us": 33242526,
      "is_ai": false,
      "track_id": 0,
      "velocity": 0,
      "is_motor": true,
      "motor_id": 0,
      "accel_val": 2000,
      "base_duration_us": 88942
    },
    {
      "id": "M_342",
      "pitch": 74,
      "t_note_us": 33645315,
      "t_trigger_us": 33509352,
      "is_ai": false,
      "track_id": 0,
      "velocity": 0,
      "is_motor": true,
      "motor_id": 1,
      "accel_val": 2000,
      "base_duration_us": 206730
    },
    {
      "id": "M_340",
      "pitch": 64,
      "t_note_us": 33674161,
      "t_trigger_us": 33538198,
      "is_ai": false,
      "track_id": 0,
      "velocity": 0,
      "is_motor": true,
      "motor_id": 0,
      "accel_val": 2000,
      "base_duration_us": 147836
    },
    {
      "id": "M_341",
      "pitch": 52,
      "t_note_us": 33674161,
      "t_trigger_us": 33538198,
      "is_ai": false,
      "track_id": 0,
      "velocity": 0,
      "is_motor": true,
      "motor_id": 2,
      "accel_val": 2000,
      "base_duration_us": 147836
    },
    {
      "id": "M_343",
      "pitch": 72,
      "t_note_us": 33940987,
      "t_trigger_us": 33805024,
      "is_ai": false,
      "track_id": 0,
      "velocity": 0,
      "is_motor": true,
      "motor_id": 1,
      "accel_val": 2000,
      "base_duration_us": 146634
    },
    {
      "id": "M_344",
      "pitch": 67,
      "t_note_us": 33940987,
      "t_trigger_us": 33805024,
      "is_ai": false,
      "track_id": 0,
      "velocity": 0,
      "is_motor": true,
      "motor_id": 2,
      "accel_val": 2000,
      "base_duration_us": 146634
    },
    {
      "id": "M_345",
      "pitch": 55,
      "t_note_us": 33969833,
      "t_trigger_us": 33833870,
      "is_ai": false,
      "track_id": 0,
      "velocity": 0,
      "is_motor": true,
      "motor_id": 0,
      "accel_val": 2000,
      "base_duration_us": 324518
    },
    {
      "id": "M_346",
      "pitch": 74,
      "t_note_us": 34087621,
      "t_trigger_us": 33951658,
      "is_ai": false,
      "track_id": 0,
      "velocity": 0,
      "is_motor": true,
      "motor_id": 1,
      "accel_val": 2000,
      "base_duration_us": 206730
    },
    {
      "id": "M_347",
      "pitch": 72,
      "t_note_us": 34265505,
      "t_trigger_us": 34129542,
      "is_ai": false,
      "track_id": 0,
      "velocity": 0,
      "is_motor": true,
      "motor_id": 2,
      "accel_val": 2000,
      "base_duration_us": 118990
    },
    {
      "id": "M_348",
      "pitch": 53,
      "t_note_us": 34265505,
      "t_trigger_us": 34129542,
      "is_ai": false,
      "track_id": 0,
      "velocity": 0,
      "is_motor": true,
      "motor_id": 3,
      "accel_val": 2000,
      "base_duration_us": 177884
    },
    {
      "id": "M_349",
      "pitch": 74,
      "t_note_us": 34384495,
      "t_trigger_us": 34248532,
      "is_ai": false,
      "track_id": 0,
      "velocity": 0,
      "is_motor": true,
      "motor_id": 1,
      "accel_val": 2000,
      "base_duration_us": 146634
    },
    {
      "id": "M_350",
      "pitch": 72,
      "t_note_us": 34561177,
      "t_trigger_us": 34425214,
      "is_ai": false,
      "track_id": 0,
      "velocity": 0,
      "is_motor": true,
      "motor_id": 1,
      "accel_val": 2000,
      "base_duration_us": 88942
    },
    {
      "id": "M_351",
      "pitch": 72,
      "t_note_us": 34709013,
      "t_trigger_us": 34573050,
      "is_ai": false,
      "track_id": 0,
      "velocity": 0,
      "is_motor": true,
      "motor_id": 1,
      "accel_val": 2000,
      "base_duration_us": 117788
    },
    {
      "id": "M_352",
      "pitch": 52,
      "t_note_us": 34709013,
      "t_trigger_us": 34573050,
      "is_ai": false,
      "track_id": 0,
      "velocity": 0,
      "is_motor": true,
      "motor_id": 0,
      "accel_val": 2000,
      "base_duration_us": 147836
    },
    {
      "id": "M_353",
      "pitch": 72,
      "t_note_us": 35005887,
      "t_trigger_us": 34869924,
      "is_ai": false,
      "track_id": 0,
      "velocity": 0,
      "is_motor": true,
      "motor_id": 1,
      "accel_val": 2000,
      "base_duration_us": 87740
    },
    {
      "id": "M_354",
      "pitch": 69,
      "t_note_us": 35152521,
      "t_trigger_us": 35016558,
      "is_ai": false,
      "track_id": 0,
      "velocity": 0,
      "is_motor": true,
      "motor_id": 1,
      "accel_val": 2000,
      "base_duration_us": 118990
    },
    {
      "id": "M_355",
      "pitch": 55,
      "t_note_us": 35152521,
      "t_trigger_us": 35016558,
      "is_ai": false,
      "track_id": 0,
      "velocity": 0,
      "is_motor": true,
      "motor_id": 0,
      "accel_val": 2000,
      "base_duration_us": 325720
    },
    {
      "id": "M_357",
      "pitch": 59,
      "t_note_us": 35300357,
      "t_trigger_us": 35164394,
      "is_ai": false,
      "track_id": 0,
      "velocity": 0,
      "is_motor": true,
      "motor_id": 1,
      "accel_val": 2000,
      "base_duration_us": 177884
    },
    {
      "id": "M_356",
      "pitch": 62,
      "t_note_us": 35448193,
      "t_trigger_us": 35312230,
      "is_ai": false,
      "track_id": 0,
      "velocity": 0,
      "is_motor": true,
      "motor_id": 2,
      "accel_val": 2000,
      "base_duration_us": 30048
    },
    {
      "id": "M_358",
      "pitch": 67,
      "t_note_us": 35448193,
      "t_trigger_us": 35312230,
      "is_ai": false,
      "track_id": 0,
      "velocity": 0,
      "is_motor": true,
      "motor_id": 3,
      "accel_val": 2000,
      "base_duration_us": 266826
    },
    {
      "id": "M_359",
      "pitch": 64,
      "t_note_us": 35743865,
      "t_trigger_us": 35607902,
      "is_ai": false,
      "track_id": 0,
      "velocity": 0,
      "is_motor": true,
      "motor_id": 1,
      "accel_val": 2000,
      "base_duration_us": 147836
    },
    {
      "id": "M_360",
      "pitch": 52,
      "t_note_us": 35743865,
      "t_trigger_us": 35607902,
      "is_ai": false,
      "track_id": 0,
      "velocity": 0,
      "is_motor": true,
      "motor_id": 0,
      "accel_val": 2000,
      "base_duration_us": 147836
    },
    {
      "id": "M_361",
      "pitch": 59,
      "t_note_us": 36039537,
      "t_trigger_us": 35903574,
      "is_ai": false,
      "track_id": 0,
      "velocity": 0,
      "is_motor": true,
      "motor_id": 0,
      "accel_val": 2000,
      "base_duration_us": 118990
    },
    {
      "id": "M_362",
      "pitch": 96,
      "t_note_us": 36187373,
      "t_trigger_us": 36051410,
      "is_ai": true,
      "track_id": 10,
      "velocity": 0,
      "is_motor": false,
      "motor_id": 0,
      "accel_val": 2000,
      "base_duration_us": 0
    },
    {
      "id": "M_363",
      "pitch": 96,
      "t_note_us": 36187373,
      "t_trigger_us": 36051410,
      "is_ai": true,
      "track_id": 10,
      "velocity": 0,
      "is_motor": false,
      "motor_id": 0,
      "accel_val": 2000,
      "base_duration_us": 0
    },
    {
      "id": "M_364",
      "pitch": 53,
      "t_note_us": 36335209,
      "t_trigger_us": 36199246,
      "is_ai": false,
      "track_id": 0,
      "velocity": 0,
      "is_motor": true,
      "motor_id": 0,
      "accel_val": 2000,
      "base_duration_us": 149038
    },
    {
      "id": "M_368",
      "pitch": 93,
      "t_note_us": 36630881,
      "t_trigger_us": 36494918,
      "is_ai": true,
      "track_id": 8,
      "velocity": 0,
      "is_motor": false,
      "motor_id": 0,
      "accel_val": 2000,
      "base_duration_us": 443508
    },
    {
      "id": "M_365",
      "pitch": 96,
      "t_note_us": 36778717,
      "t_trigger_us": 36642754,
      "is_ai": true,
      "track_id": 10,
      "velocity": 0,
      "is_motor": false,
      "motor_id": 0,
      "accel_val": 2000,
      "base_duration_us": 0
    },
    {
      "id": "M_366",
      "pitch": 96,
      "t_note_us": 36778717,
      "t_trigger_us": 36642754,
      "is_ai": true,
      "track_id": 10,
      "velocity": 0,
      "is_motor": false,
      "motor_id": 0,
      "accel_val": 2000,
      "base_duration_us": 0
    },
    {
      "id": "M_367",
      "pitch": 52,
      "t_note_us": 36778717,
      "t_trigger_us": 36642754,
      "is_ai": false,
      "track_id": 0,
      "velocity": 0,
      "is_motor": true,
      "motor_id": 0,
      "accel_val": 2000,
      "base_duration_us": 0
    },
    {
      "id": "M_369",
      "pitch": 69,
      "t_note_us": 37074389,
      "t_trigger_us": 36938426,
      "is_ai": false,
      "track_id": 0,
      "velocity": 0,
      "is_motor": true,
      "motor_id": 1,
      "accel_val": 2000,
      "base_duration_us": 325720
    },
    {
      "id": "M_370",
      "pitch": 52,
      "t_note_us": 37400109,
      "t_trigger_us": 37264146,
      "is_ai": false,
      "track_id": 0,
      "velocity": 0,
      "is_motor": true,
      "motor_id": 0,
      "accel_val": 2000,
      "base_duration_us": 0
    },
    {
      "id": "M_371",
      "pitch": 55,
      "t_note_us": 37547945,
      "t_trigger_us": 37411982,
      "is_ai": false,
      "track_id": 0,
      "velocity": 0,
      "is_motor": true,
      "motor_id": 0,
      "accel_val": 2000,
      "base_duration_us": 295672
    },
    {
      "id": "M_373",
      "pitch": 67,
      "t_note_us": 37547945,
      "t_trigger_us": 37411982,
      "is_ai": false,
      "track_id": 0,
      "velocity": 0,
      "is_motor": true,
      "motor_id": 1,
      "accel_val": 2000,
      "base_duration_us": 324518
    },
    {
      "id": "M_372",
      "pitch": 59,
      "t_note_us": 37695781,
      "t_trigger_us": 37559818,
      "is_ai": false,
      "track_id": 0,
      "velocity": 0,
      "is_motor": true,
      "motor_id": 2,
      "accel_val": 2000,
      "base_duration_us": 176682
    },
    {
      "id": "M_374",
      "pitch": 62,
      "t_note_us": 37843617,
      "t_trigger_us": 37707654,
      "is_ai": false,
      "track_id": 0,
      "velocity": 0,
      "is_motor": true,
      "motor_id": 0,
      "accel_val": 2000,
      "base_duration_us": 88942
    },
    {
      "id": "M_377",
      "pitch": 70,
      "t_note_us": 37990251,
      "t_trigger_us": 37854288,
      "is_ai": false,
      "track_id": 0,
      "velocity": 0,
      "is_motor": true,
      "motor_id": 1,
      "accel_val": 2000,
      "base_duration_us": 266826
    },
    {
      "id": "M_375",
      "pitch": 64,
      "t_note_us": 38139289,
      "t_trigger_us": 38003326,
      "is_ai": false,
      "track_id": 0,
      "velocity": 0,
      "is_motor": true,
      "motor_id": 0,
      "accel_val": 2000,
      "base_duration_us": 87740
    },
    {
      "id": "M_376",
      "pitch": 52,
      "t_note_us": 38139289,
      "t_trigger_us": 38003326,
      "is_ai": false,
      "track_id": 0,
      "velocity": 0,
      "is_motor": true,
      "motor_id": 2,
      "accel_val": 2000,
      "base_duration_us": 87740
    },
    {
      "id": "M_379",
      "pitch": 64,
      "t_note_us": 38434961,
      "t_trigger_us": 38298998,
      "is_ai": false,
      "track_id": 0,
      "velocity": 0,
      "is_motor": true,
      "motor_id": 1,
      "accel_val": 2000,
      "base_duration_us": 206730
    },
    {
      "id": "M_380",
      "pitch": 52,
      "t_note_us": 38434961,
      "t_trigger_us": 38298998,
      "is_ai": false,
      "track_id": 0,
      "velocity": 0,
      "is_motor": true,
      "motor_id": 0,
      "accel_val": 2000,
      "base_duration_us": 206730
    },
    {
      "id": "M_378",
      "pitch": 69,
      "t_note_us": 38582797,
      "t_trigger_us": 38446834,
      "is_ai": false,
      "track_id": 0,
      "velocity": 0,
      "is_motor": true,
      "motor_id": 2,
      "accel_val": 2000,
      "base_duration_us": 0
    },
    {
      "id": "M_381",
      "pitch": 67,
      "t_note_us": 38730633,
      "t_trigger_us": 38594670,
      "is_ai": false,
      "track_id": 0,
      "velocity": 0,
      "is_motor": true,
      "motor_id": 1,
      "accel_val": 2000,
      "base_duration_us": 147836
    },
    {
      "id": "M_382",
      "pitch": 67,
      "t_note_us": 38730633,
      "t_trigger_us": 38594670,
      "is_ai": false,
      "track_id": 0,
      "velocity": 0,
      "is_motor": true,
      "motor_id": 2,
      "accel_val": 2000,
      "base_duration_us": 147836
    },
    {
      "id": "M_383",
      "pitch": 55,
      "t_note_us": 38730633,
      "t_trigger_us": 38594670,
      "is_ai": false,
      "track_id": 0,
      "velocity": 0,
      "is_motor": true,
      "motor_id": 0,
      "accel_val": 2000,
      "base_duration_us": 147836
    },
    {
      "id": "M_384",
      "pitch": 69,
      "t_note_us": 38878469,
      "t_trigger_us": 38742506,
      "is_ai": false,
      "track_id": 0,
      "velocity": 0,
      "is_motor": true,
      "motor_id": 1,
      "accel_val": 2000,
      "base_duration_us": 117788
    },
    {
      "id": "M_385",
      "pitch": 67,
      "t_note_us": 39026305,
      "t_trigger_us": 38890342,
      "is_ai": false,
      "track_id": 0,
      "velocity": 0,
      "is_motor": true,
      "motor_id": 1,
      "accel_val": 2000,
      "base_duration_us": 147836
    },
    {
      "id": "M_386",
      "pitch": 65,
      "t_note_us": 39026305,
      "t_trigger_us": 38890342,
      "is_ai": false,
      "track_id": 0,
      "velocity": 0,
      "is_motor": true,
      "motor_id": 0,
      "accel_val": 2000,
      "base_duration_us": 206730
    },
    {
      "id": "M_387",
      "pitch": 53,
      "t_note_us": 39026305,
      "t_trigger_us": 38890342,
      "is_ai": false,
      "track_id": 0,
      "velocity": 0,
      "is_motor": true,
      "motor_id": 2,
      "accel_val": 2000,
      "base_duration_us": 206730
    },
    {
      "id": "M_388",
      "pitch": 69,
      "t_note_us": 39174141,
      "t_trigger_us": 39038178,
      "is_ai": false,
      "track_id": 0,
      "velocity": 0,
      "is_motor": true,
      "motor_id": 1,
      "accel_val": 2000,
      "base_duration_us": 147836
    },
    {
      "id": "M_389",
      "pitch": 67,
      "t_note_us": 39321977,
      "t_trigger_us": 39186014,
      "is_ai": false,
      "track_id": 0,
      "velocity": 0,
      "is_motor": true,
      "motor_id": 1,
      "accel_val": 2000,
      "base_duration_us": 117788
    },
    {
      "id": "M_390",
      "pitch": 69,
      "t_note_us": 39468611,
      "t_trigger_us": 39332648,
      "is_ai": false,
      "track_id": 0,
      "velocity": 0,
      "is_motor": true,
      "motor_id": 1,
      "accel_val": 2000,
      "base_duration_us": 207932
    },
    {
      "id": "M_392",
      "pitch": 67,
      "t_note_us": 39617649,
      "t_trigger_us": 39481686,
      "is_ai": false,
      "track_id": 0,
      "velocity": 0,
      "is_motor": true,
      "motor_id": 2,
      "accel_val": 2000,
      "base_duration_us": 176682
    },
    {
      "id": "M_391",
      "pitch": 52,
      "t_note_us": 39765485,
      "t_trigger_us": 39629522,
      "is_ai": false,
      "track_id": 0,
      "velocity": 0,
      "is_motor": true,
      "motor_id": 0,
      "accel_val": 2000,
      "base_duration_us": 0
    },
    {
      "id": "M_393",
      "pitch": 55,
      "t_note_us": 39913321,
      "t_trigger_us": 39777358,
      "is_ai": false,
      "track_id": 0,
      "velocity": 0,
      "is_motor": true,
      "motor_id": 0,
      "accel_val": 2000,
      "base_duration_us": 176682
    },
    {
      "id": "M_394",
      "pitch": 76,
      "t_note_us": 39913321,
      "t_trigger_us": 39777358,
      "is_ai": false,
      "track_id": 0,
      "velocity": 0,
      "is_motor": true,
      "motor_id": 2,
      "accel_val": 2000,
      "base_duration_us": 324518
    },
    {
      "id": "M_395",
      "pitch": 59,
      "t_note_us": 40061157,
      "t_trigger_us": 39925194,
      "is_ai": false,
      "track_id": 0,
      "velocity": 0,
      "is_motor": true,
      "motor_id": 1,
      "accel_val": 2000,
      "base_duration_us": 206730
    },
    {
      "id": "M_396",
      "pitch": 62,
      "t_note_us": 40208993,
      "t_trigger_us": 40073030,
      "is_ai": false,
      "track_id": 0,
      "velocity": 0,
      "is_motor": true,
      "motor_id": 0,
      "accel_val": 2000,
      "base_duration_us": 117788
    },
    {
      "id": "M_397",
      "pitch": 64,
      "t_note_us": 40504665,
      "t_trigger_us": 40368702,
      "is_ai": false,
      "track_id": 0,
      "velocity": 0,
      "is_motor": true,
      "motor_id": 1,
      "accel_val": 2000,
      "base_duration_us": 147836
    },
    {
      "id": "M_398",
      "pitch": 52,
      "t_note_us": 40504665,
      "t_trigger_us": 40368702,
      "is_ai": false,
      "track_id": 0,
      "velocity": 0,
      "is_motor": true,
      "motor_id": 0,
      "accel_val": 2000,
      "base_duration_us": 147836
    },
    {
      "id": "M_400",
      "pitch": 96,
      "t_note_us": 40652501,
      "t_trigger_us": 40516538,
      "is_ai": true,
      "track_id": 10,
      "velocity": 0,
      "is_motor": false,
      "motor_id": 0,
      "accel_val": 2000,
      "base_duration_us": 266826
    },
    {
      "id": "M_399",
      "pitch": 59,
      "t_note_us": 40829183,
      "t_trigger_us": 40693220,
      "is_ai": false,
      "track_id": 0,
      "velocity": 0,
      "is_motor": true,
      "motor_id": 0,
      "accel_val": 2000,
      "base_duration_us": 60096
    },
    {
      "id": "M_401",
      "pitch": 93,
      "t_note_us": 40948173,
      "t_trigger_us": 40812210,
      "is_ai": true,
      "track_id": 8,
      "velocity": 0,
      "is_motor": false,
      "motor_id": 0,
      "accel_val": 2000,
      "base_duration_us": 58894
    },
    {
      "id": "M_402",
      "pitch": 96,
      "t_note_us": 41096009,
      "t_trigger_us": 40960046,
      "is_ai": true,
      "track_id": 10,
      "velocity": 0,
      "is_motor": false,
      "motor_id": 0,
      "accel_val": 2000,
      "base_duration_us": 0
    },
    {
      "id": "M_403",
      "pitch": 52,
      "t_note_us": 41126057,
      "t_trigger_us": 40990094,
      "is_ai": false,
      "track_id": 0,
      "velocity": 0,
      "is_motor": true,
      "motor_id": 0,
      "accel_val": 2000,
      "base_duration_us": 146634
    },
    {
      "id": "M_407",
      "pitch": 52,
      "t_note_us": 41272691,
      "t_trigger_us": 41136728,
      "is_ai": false,
      "track_id": 0,
      "velocity": 0,
      "is_motor": true,
      "motor_id": 0,
      "accel_val": 2000,
      "base_duration_us": 325720
    },
    {
      "id": "M_404",
      "pitch": 93,
      "t_note_us": 41421729,
      "t_trigger_us": 41285766,
      "is_ai": true,
      "track_id": 8,
      "velocity": 0,
      "is_motor": false,
      "motor_id": 0,
      "accel_val": 2000,
      "base_duration_us": 28846
    },
    {
      "id": "M_409",
      "pitch": 59,
      "t_note_us": 41421729,
      "t_trigger_us": 41285766,
      "is_ai": false,
      "track_id": 0,
      "velocity": 0,
      "is_motor": true,
      "motor_id": 1,
      "accel_val": 2000,
      "base_duration_us": 383412
    },
    {
      "id": "M_405",
      "pitch": 96,
      "t_note_us": 41568363,
      "t_trigger_us": 41432400,
      "is_ai": true,
      "track_id": 10,
      "velocity": 0,
      "is_motor": false,
      "motor_id": 0,
      "accel_val": 2000,
      "base_duration_us": 0
    },
    {
      "id": "M_406",
      "pitch": 96,
      "t_note_us": 41568363,
      "t_trigger_us": 41432400,
      "is_ai": true,
      "track_id": 10,
      "velocity": 0,
      "is_motor": false,
      "motor_id": 0,
      "accel_val": 2000,
      "base_duration_us": 0
    },
    {
      "id": "M_408",
      "pitch": 64,
      "t_note_us": 41568363,
      "t_trigger_us": 41432400,
      "is_ai": false,
      "track_id": 0,
      "velocity": 0,
      "is_motor": true,
      "motor_id": 2,
      "accel_val": 2000,
      "base_duration_us": 207932
    },
    {
      "id": "M_410",
      "pitch": 69,
      "t_note_us": 41835189,
      "t_trigger_us": 41699226,
      "is_ai": false,
      "track_id": 0,
      "velocity": 0,
      "is_motor": true,
      "motor_id": 1,
      "accel_val": 2000,
      "base_duration_us": 295672
    },
    {
      "id": "M_411",
      "pitch": 52,
      "t_note_us": 41865237,
      "t_trigger_us": 41729274,
      "is_ai": false,
      "track_id": 0,
      "velocity": 0,
      "is_motor": true,
      "motor_id": 0,
      "accel_val": 2000,
      "base_duration_us": 265624
    },
    {
      "id": "M_412",
      "pitch": 55,
      "t_note_us": 42307543,
      "t_trigger_us": 42171580,
      "is_ai": false,
      "track_id": 0,
      "velocity": 0,
      "is_motor": true,
      "motor_id": 0,
      "accel_val": 2000,
      "base_duration_us": 296874
    },
    {
      "id": "M_414",
      "pitch": 67,
      "t_note_us": 42307543,
      "t_trigger_us": 42171580,
      "is_ai": false,
      "track_id": 0,
      "velocity": 0,
      "is_motor": true,
      "motor_id": 1,
      "accel_val": 2000,
      "base_duration_us": 355768
    },
    {
      "id": "M_413",
      "pitch": 59,
      "t_note_us": 42455379,
      "t_trigger_us": 42319416,
      "is_ai": false,
      "track_id": 0,
      "velocity": 0,
      "is_motor": true,
      "motor_id": 2,
      "accel_val": 2000,
      "base_duration_us": 207932
    },
    {
      "id": "M_415",
      "pitch": 62,
      "t_note_us": 42604417,
      "t_trigger_us": 42468454,
      "is_ai": false,
      "track_id": 0,
      "velocity": 0,
      "is_motor": true,
      "motor_id": 0,
      "accel_val": 2000,
      "base_duration_us": 146634
    },
    {
      "id": "M_418",
      "pitch": 76,
      "t_note_us": 42751051,
      "t_trigger_us": 42615088,
      "is_ai": false,
      "track_id": 0,
      "velocity": 0,
      "is_motor": true,
      "motor_id": 2,
      "accel_val": 2000,
      "base_duration_us": 266826
    },
    {
      "id": "M_416",
      "pitch": 64,
      "t_note_us": 42898887,
      "t_trigger_us": 42762924,
      "is_ai": false,
      "track_id": 0,
      "velocity": 0,
      "is_motor": true,
      "motor_id": 1,
      "accel_val": 2000,
      "base_duration_us": 118990
    },
    {
      "id": "M_417",
      "pitch": 52,
      "t_note_us": 42898887,
      "t_trigger_us": 42762924,
      "is_ai": false,
      "track_id": 0,
      "velocity": 0,
      "is_motor": true,
      "motor_id": 0,
      "accel_val": 2000,
      "base_duration_us": 118990
    },
    {
      "id": "M_419",
      "pitch": 52,
      "t_note_us": 43194559,
      "t_trigger_us": 43058596,
      "is_ai": false,
      "track_id": 0,
      "velocity": 0,
      "is_motor": true,
      "motor_id": 0,
      "accel_val": 2000,
      "base_duration_us": 88942
    },
    {
      "id": "M_420",
      "pitch": 74,
      "t_note_us": 43194559,
      "t_trigger_us": 43058596,
      "is_ai": false,
      "track_id": 0,
      "velocity": 0,
      "is_motor": true,
      "motor_id": 1,
      "accel_val": 2000,
      "base_duration_us": 149038
    },
    {
      "id": "M_421",
      "pitch": 64,
      "t_note_us": 43194559,
      "t_trigger_us": 43058596,
      "is_ai": false,
      "track_id": 0,
      "velocity": 0,
      "is_motor": true,
      "motor_id": 2,
      "accel_val": 2000,
      "base_duration_us": 177884
    },
    {
      "id": "M_422",
      "pitch": 74,
      "t_note_us": 43343597,
      "t_trigger_us": 43207634,
      "is_ai": false,
      "track_id": 0,
      "velocity": 0,
      "is_motor": true,
      "motor_id": 1,
      "accel_val": 2000,
      "base_duration_us": 176682
    },
    {
      "id": "M_423",
      "pitch": 72,
      "t_note_us": 43490231,
      "t_trigger_us": 43354268,
      "is_ai": false,
      "track_id": 0,
      "velocity": 0,
      "is_motor": true,
      "motor_id": 0,
      "accel_val": 2000,
      "base_duration_us": 149038
    },
    {
      "id": "M_424",
      "pitch": 67,
      "t_note_us": 43490231,
      "t_trigger_us": 43354268,
      "is_ai": false,
      "track_id": 0,
      "velocity": 0,
      "is_motor": true,
      "motor_id": 2,
      "accel_val": 2000,
      "base_duration_us": 149038
    },
    {
      "id": "M_425",
      "pitch": 55,
      "t_note_us": 43490231,
      "t_trigger_us": 43354268,
      "is_ai": false,
      "track_id": 0,
      "velocity": 0,
      "is_motor": true,
      "motor_id": 3,
      "accel_val": 2000,
      "base_duration_us": 149038
    },
    {
      "id": "M_426",
      "pitch": 74,
      "t_note_us": 43639269,
      "t_trigger_us": 43503306,
      "is_ai": false,
      "track_id": 0,
      "velocity": 0,
      "is_motor": true,
      "motor_id": 1,
      "accel_val": 2000,
      "base_duration_us": 146634
    },
    {
      "id": "M_427",
      "pitch": 72,
      "t_note_us": 43785903,
      "t_trigger_us": 43649940,
      "is_ai": false,
      "track_id": 0,
      "velocity": 0,
      "is_motor": true,
      "motor_id": 1,
      "accel_val": 2000,
      "base_duration_us": 118990
    },
    {
      "id": "M_428",
      "pitch": 53,
      "t_note_us": 43785903,
      "t_trigger_us": 43649940,
      "is_ai": false,
      "track_id": 0,
      "velocity": 0,
      "is_motor": true,
      "motor_id": 0,
      "accel_val": 2000,
      "base_duration_us": 236778
    },
    {
      "id": "M_429",
      "pitch": 65,
      "t_note_us": 43785903,
      "t_trigger_us": 43649940,
      "is_ai": false,
      "track_id": 0,
      "velocity": 0,
      "is_motor": true,
      "motor_id": 2,
      "accel_val": 2000,
      "base_duration_us": 266826
    },
    {
      "id": "M_430",
      "pitch": 74,
      "t_note_us": 43933739,
      "t_trigger_us": 43797776,
      "is_ai": false,
      "track_id": 0,
      "velocity": 0,
      "is_motor": true,
      "motor_id": 1,
      "accel_val": 2000,
      "base_duration_us": 118990
    },
    {
      "id": "M_431",
      "pitch": 72,
      "t_note_us": 44082777,
      "t_trigger_us": 43946814,
      "is_ai": false,
      "track_id": 0,
      "velocity": 0,
      "is_motor": true,
      "motor_id": 1,
      "accel_val": 2000,
      "base_duration_us": 117788
    },
    {
      "id": "M_432",
      "pitch": 74,
      "t_note_us": 44200565,
      "t_trigger_us": 44064602,
      "is_ai": false,
      "track_id": 0,
      "velocity": 0,
      "is_motor": true,
      "motor_id": 1,
      "accel_val": 2000,
      "base_duration_us": 58894
    },
    {
      "id": "M_433",
      "pitch": 76,
      "t_note_us": 44229411,
      "t_trigger_us": 44093448,
      "is_ai": false,
      "track_id": 0,
      "velocity": 0,
      "is_motor": true,
      "motor_id": 2,
      "accel_val": 2000,
      "base_duration_us": 118990
    },
    {
      "id": "M_434",
      "pitch": 64,
      "t_note_us": 44229411,
      "t_trigger_us": 44093448,
      "is_ai": false,
      "track_id": 0,
      "velocity": 0,
      "is_motor": true,
      "motor_id": 0,
      "accel_val": 2000,
      "base_duration_us": 118990
    },
    {
      "id": "M_435",
      "pitch": 52,
      "t_note_us": 44229411,
      "t_trigger_us": 44093448,
      "is_ai": false,
      "track_id": 0,
      "velocity": 0,
      "is_motor": true,
      "motor_id": 3,
      "accel_val": 2000,
      "base_duration_us": 118990
    },
    {
      "id": "M_437",
      "pitch": 76,
      "t_note_us": 44525083,
      "t_trigger_us": 44389120,
      "is_ai": false,
      "track_id": 0,
      "velocity": 0,
      "is_motor": true,
      "motor_id": 2,
      "accel_val": 2000,
      "base_duration_us": 147836
    },
    {
      "id": "M_436",
      "pitch": 64,
      "t_note_us": 44555131,
      "t_trigger_us": 44419168,
      "is_ai": false,
      "track_id": 0,
      "velocity": 0,
      "is_motor": true,
      "motor_id": 1,
      "accel_val": 2000,
      "base_duration_us": 117788
    },
    {
      "id": "M_438",
      "pitch": 52,
      "t_note_us": 44555131,
      "t_trigger_us": 44419168,
      "is_ai": false,
      "track_id": 0,
      "velocity": 0,
      "is_motor": true,
      "motor_id": 0,
      "accel_val": 2000,
      "base_duration_us": 147836
    },
    {
      "id": "M_439",
      "pitch": 69,
      "t_note_us": 44702967,
      "t_trigger_us": 44567004,
      "is_ai": false,
      "track_id": 0,
      "velocity": 0,
      "is_motor": true,
      "motor_id": 1,
      "accel_val": 2000,
      "base_duration_us": 30048
    },
    {
      "id": "M_440",
      "pitch": 55,
      "t_note_us": 44702967,
      "t_trigger_us": 44567004,
      "is_ai": false,
      "track_id": 0,
      "velocity": 0,
      "is_motor": true,
      "motor_id": 0,
      "accel_val": 2000,
      "base_duration_us": 147836
    },
    {
      "id": "M_441",
      "pitch": 59,
      "t_note_us": 44850803,
      "t_trigger_us": 44714840,
      "is_ai": false,
      "track_id": 0,
      "velocity": 0,
      "is_motor": true,
      "motor_id": 0,
      "accel_val": 2000,
      "base_duration_us": 177884
    },
    {
      "id": "M_442",
      "pitch": 62,
      "t_note_us": 44998639,
      "t_trigger_us": 44862676,
      "is_ai": false,
      "track_id": 0,
      "velocity": 0,
      "is_motor": true,
      "motor_id": 1,
      "accel_val": 2000,
      "base_duration_us": 88942
    },
    {
      "id": "M_443",
      "pitch": 67,
      "t_note_us": 44998639,
      "t_trigger_us": 44862676,
      "is_ai": false,
      "track_id": 0,
      "velocity": 0,
      "is_motor": true,
      "motor_id": 2,
      "accel_val": 2000,
      "base_duration_us": 118990
    },
    {
      "id": "M_444",
      "pitch": 67,
      "t_note_us": 45294311,
      "t_trigger_us": 45158348,
      "is_ai": false,
      "track_id": 0,
      "velocity": 0,
      "is_motor": true,
      "motor_id": 1,
      "accel_val": 2000,
      "base_duration_us": 236778
    },
    {
      "id": "M_445",
      "pitch": 64,
      "t_note_us": 45294311,
      "t_trigger_us": 45158348,
      "is_ai": false,
      "track_id": 0,
      "velocity": 0,
      "is_motor": true,
      "motor_id": 0,
      "accel_val": 2000,
      "base_duration_us": 236778
    },
    {
      "id": "M_446",
      "pitch": 52,
      "t_note_us": 45294311,
      "t_trigger_us": 45158348,
      "is_ai": false,
      "track_id": 0,
      "velocity": 0,
      "is_motor": true,
      "motor_id": 2,
      "accel_val": 2000,
      "base_duration_us": 236778
    },
    {
      "id": "M_449",
      "pitch": 98,
      "t_note_us": 46327962,
      "t_trigger_us": 46191999,
      "is_ai": true,
      "track_id": 11,
      "velocity": 0,
      "is_motor": false,
      "motor_id": 0,
      "accel_val": 2000,
      "base_duration_us": 177884
    },
    {
      "id": "M_450",
      "pitch": 86,
      "t_note_us": 46327962,
      "t_trigger_us": 46191999,
      "is_ai": true,
      "track_id": 4,
      "velocity": 0,
      "is_motor": false,
      "motor_id": 0,
      "accel_val": 2000,
      "base_duration_us": 177884
    },
    {
      "id": "M_447",
      "pitch": 96,
      "t_note_us": 46475798,
      "t_trigger_us": 46339835,
      "is_ai": true,
      "track_id": 10,
      "velocity": 0,
      "is_motor": false,
      "motor_id": 0,
      "accel_val": 2000,
      "base_duration_us": 0
    },
    {
      "id": "M_448",
      "pitch": 72,
      "t_note_us": 46475798,
      "t_trigger_us": 46339835,
      "is_ai": false,
      "track_id": 0,
      "velocity": 0,
      "is_motor": true,
      "motor_id": 1,
      "accel_val": 2000,
      "base_duration_us": 0
    },
    {
      "id": "M_461",
      "pitch": 60,
      "t_note_us": 46623634,
      "t_trigger_us": 46487671,
      "is_ai": false,
      "track_id": 0,
      "velocity": 0,
      "is_motor": true,
      "motor_id": 1,
      "accel_val": 2000,
      "base_duration_us": 917064
    },
    {
      "id": "M_462",
      "pitch": 53,
      "t_note_us": 46623634,
      "t_trigger_us": 46487671,
      "is_ai": false,
      "track_id": 0,
      "velocity": 0,
      "is_motor": true,
      "motor_id": 0,
      "accel_val": 2000,
      "base_duration_us": 917064
    },
    {
      "id": "M_451",
      "pitch": 96,
      "t_note_us": 46919306,
      "t_trigger_us": 46783343,
      "is_ai": true,
      "track_id": 10,
      "velocity": 0,
      "is_motor": false,
      "motor_id": 0,
      "accel_val": 2000,
      "base_duration_us": 0
    },
    {
      "id": "M_452",
      "pitch": 98,
      "t_note_us": 47067142,
      "t_trigger_us": 46931179,
      "is_ai": true,
      "track_id": 11,
      "velocity": 0,
      "is_motor": false,
      "motor_id": 0,
      "accel_val": 2000,
      "base_duration_us": 0
    },
    {
      "id": "M_458",
      "pitch": 76,
      "t_note_us": 47214978,
      "t_trigger_us": 47079015,
      "is_ai": false,
      "track_id": 0,
      "velocity": 0,
      "is_motor": true,
      "motor_id": 2,
      "accel_val": 2000,
      "base_duration_us": 325720
    },
    {
      "id": "M_459",
      "pitch": 72,
      "t_note_us": 47214978,
      "t_trigger_us": 47079015,
      "is_ai": false,
      "track_id": 0,
      "velocity": 0,
      "is_motor": true,
      "motor_id": 3,
      "accel_val": 2000,
      "base_duration_us": 325720
    },
    {
      "id": "M_460",
      "pitch": 69,
      "t_note_us": 47214978,
      "t_trigger_us": 47079015,
      "is_ai": false,
      "track_id": 0,
      "velocity": 0,
      "is_motor": true,
      "motor_id": 0,
      "accel_val": 2000,
      "base_duration_us": 325720
    },
    {
      "id": "M_453",
      "pitch": 96,
      "t_note_us": 47362814,
      "t_trigger_us": 47226851,
      "is_ai": true,
      "track_id": 10,
      "velocity": 0,
      "is_motor": false,
      "motor_id": 0,
      "accel_val": 2000,
      "base_duration_us": 0
    },
    {
      "id": "M_454",
      "pitch": 72,
      "t_note_us": 47362814,
      "t_trigger_us": 47226851,
      "is_ai": false,
      "track_id": 0,
      "velocity": 0,
      "is_motor": true,
      "motor_id": 0,
      "accel_val": 2000,
      "base_duration_us": 0
    },
    {
      "id": "M_455",
      "pitch": 98,
      "t_note_us": 47510650,
      "t_trigger_us": 47374687,
      "is_ai": true,
      "track_id": 11,
      "velocity": 0,
      "is_motor": false,
      "motor_id": 0,
      "accel_val": 2000,
      "base_duration_us": 0
    },
    {
      "id": "M_456",
      "pitch": 86,
      "t_note_us": 47510650,
      "t_trigger_us": 47374687,
      "is_ai": true,
      "track_id": 4,
      "velocity": 0,
      "is_motor": false,
      "motor_id": 0,
      "accel_val": 2000,
      "base_duration_us": 0
    },
    {
      "id": "M_457",
      "pitch": 65,
      "t_note_us": 47510650,
      "t_trigger_us": 47374687,
      "is_ai": false,
      "track_id": 0,
      "velocity": 0,
      "is_motor": true,
      "motor_id": 0,
      "accel_val": 2000,
      "base_duration_us": 0
    },
    {
      "id": "M_471",
      "pitch": 59,
      "t_note_us": 47658486,
      "t_trigger_us": 47522523,
      "is_ai": false,
      "track_id": 0,
      "velocity": 0,
      "is_motor": true,
      "motor_id": 0,
      "accel_val": 2000,
      "base_duration_us": 1300476
    },
    {
      "id": "M_476",
      "pitch": 52,
      "t_note_us": 47688534,
      "t_trigger_us": 47552571,
      "is_ai": false,
      "track_id": 0,
      "velocity": 0,
      "is_motor": true,
      "motor_id": 1,
      "accel_val": 2000,
      "base_duration_us": 1270428
    },
    {
      "id": "M_468",
      "pitch": 100,
      "t_note_us": 47806322,
      "t_trigger_us": 47670359,
      "is_ai": true,
      "track_id": 12,
      "velocity": 0,
      "is_motor": false,
      "motor_id": 0,
      "accel_val": 2000,
      "base_duration_us": 1152640
    },
    {
      "id": "M_469",
      "pitch": 92,
      "t_note_us": 47806322,
      "t_trigger_us": 47670359,
      "is_ai": true,
      "track_id": 0,
      "velocity": 0,
      "is_motor": true,
      "motor_id": 3,
      "accel_val": 2000,
      "base_duration_us": 1152640
    },
    {
      "id": "M_470",
      "pitch": 88,
      "t_note_us": 47806322,
      "t_trigger_us": 47670359,
      "is_ai": true,
      "track_id": 5,
      "velocity": 0,
      "is_motor": false,
      "motor_id": 0,
      "accel_val": 2000,
      "base_duration_us": 1152640
    },
    {
      "id": "M_463",
      "pitch": 64,
      "t_note_us": 48101994,
      "t_trigger_us": 47966031,
      "is_ai": false,
      "track_id": 0,
      "velocity": 0,
      "is_motor": true,
      "motor_id": 2,
      "accel_val": 2000,
      "base_duration_us": 0
    },
    {
      "id": "M_466",
      "pitch": 74,
      "t_note_us": 48397666,
      "t_trigger_us": 48261703,
      "is_ai": false,
      "track_id": 0,
      "velocity": 0,
      "is_motor": true,
      "motor_id": 2,
      "accel_val": 2000,
      "base_duration_us": 561296
    },
    {
      "id": "M_467",
      "pitch": 71,
      "t_note_us": 48397666,
      "t_trigger_us": 48261703,
      "is_ai": false,
      "track_id": 0,
      "velocity": 0,
      "is_motor": true,
      "motor_id": 0,
      "accel_val": 2000,
      "base_duration_us": 561296
    },
    {
      "id": "M_475",
      "pitch": 68,
      "t_note_us": 48427714,
      "t_trigger_us": 48291751,
      "is_ai": false,
      "track_id": 0,
      "velocity": 0,
      "is_motor": true,
      "motor_id": 0,
      "accel_val": 2000,
      "base_duration_us": 531248
    },
    {
      "id": "M_464",
      "pitch": 96,
      "t_note_us": 48575550,
      "t_trigger_us": 48439587,
      "is_ai": true,
      "track_id": 10,
      "velocity": 0,
      "is_motor": false,
      "motor_id": 0,
      "accel_val": 2000,
      "base_duration_us": 294470
    },
    {
      "id": "M_465",
      "pitch": 72,
      "t_note_us": 48575550,
      "t_trigger_us": 48439587,
      "is_ai": false,
      "track_id": 0,
      "velocity": 0,
      "is_motor": true,
      "motor_id": 0,
      "accel_val": 2000,
      "base_duration_us": 294470
    },
    {
      "id": "M_472",
      "pitch": 98,
      "t_note_us": 48723386,
      "t_trigger_us": 48587423,
      "is_ai": true,
      "track_id": 11,
      "velocity": 0,
      "is_motor": false,
      "motor_id": 0,
      "accel_val": 2000,
      "base_duration_us": 235576
    },
    {
      "id": "M_473",
      "pitch": 86,
      "t_note_us": 48723386,
      "t_trigger_us": 48587423,
      "is_ai": true,
      "track_id": 4,
      "velocity": 0,
      "is_motor": false,
      "motor_id": 0,
      "accel_val": 2000,
      "base_duration_us": 235576
    },
    {
      "id": "M_474",
      "pitch": 64,
      "t_note_us": 48723386,
      "t_trigger_us": 48587423,
      "is_ai": false,
      "track_id": 0,
      "velocity": 0,
      "is_motor": true,
      "motor_id": 0,
      "accel_val": 2000,
      "base_duration_us": 235576
    },
    {
      "id": "M_477",
      "pitch": 84,
      "t_note_us": 48870020,
      "t_trigger_us": 48734057,
      "is_ai": true,
      "track_id": 3,
      "velocity": 0,
      "is_motor": false,
      "motor_id": 0,
      "accel_val": 2000,
      "base_duration_us": 88942
    },
    {
      "id": "M_478",
      "pitch": 57,
      "t_note_us": 49019058,
      "t_trigger_us": 48883095,
      "is_ai": false,
      "track_id": 0,
      "velocity": 0,
      "is_motor": true,
      "motor_id": 0,
      "accel_val": 2000,
      "base_duration_us": 294470
    },
    {
      "id": "M_486",
      "pitch": 45,
      "t_note_us": 49019058,
      "t_trigger_us": 48883095,
      "is_ai": false,
      "track_id": 0,
      "velocity": 0,
      "is_motor": true,
      "motor_id": 1,
      "accel_val": 2000,
      "base_duration_us": 1063698
    },
    {
      "id": "M_479",
      "pitch": 96,
      "t_note_us": 49313528,
      "t_trigger_us": 49177565,
      "is_ai": true,
      "track_id": 10,
      "velocity": 0,
      "is_motor": false,
      "motor_id": 0,
      "accel_val": 2000,
      "base_duration_us": 0
    },
    {
      "id": "M_480",
      "pitch": 98,
      "t_note_us": 49462566,
      "t_trigger_us": 49326603,
      "is_ai": true,
      "track_id": 11,
      "velocity": 0,
      "is_motor": false,
      "motor_id": 0,
      "accel_val": 2000,
      "base_duration_us": 0
    },
    {
      "id": "M_481",
      "pitch": 86,
      "t_note_us": 49462566,
      "t_trigger_us": 49326603,
      "is_ai": true,
      "track_id": 4,
      "velocity": 0,
      "is_motor": false,
      "motor_id": 0,
      "accel_val": 2000,
      "base_duration_us": 0
    },
    {
      "id": "M_487",
      "pitch": 69,
      "t_note_us": 49609200,
      "t_trigger_us": 49473237,
      "is_ai": false,
      "track_id": 0,
      "velocity": 0,
      "is_motor": true,
      "motor_id": 2,
      "accel_val": 2000,
      "base_duration_us": 473556
    },
    {
      "id": "M_488",
      "pitch": 64,
      "t_note_us": 49609200,
      "t_trigger_us": 49473237,
      "is_ai": false,
      "track_id": 0,
      "velocity": 0,
      "is_motor": true,
      "motor_id": 0,
      "accel_val": 2000,
      "base_duration_us": 473556
    },
    {
      "id": "M_482",
      "pitch": 96,
      "t_note_us": 49758238,
      "t_trigger_us": 49622275,
      "is_ai": true,
      "track_id": 10,
      "velocity": 0,
      "is_motor": false,
      "motor_id": 0,
      "accel_val": 2000,
      "base_duration_us": 0
    },
    {
      "id": "M_483",
      "pitch": 72,
      "t_note_us": 49758238,
      "t_trigger_us": 49622275,
      "is_ai": false,
      "track_id": 0,
      "velocity": 0,
      "is_motor": true,
      "motor_id": 3,
      "accel_val": 2000,
      "base_duration_us": 0
    },
    {
      "id": "M_485",
      "pitch": 88,
      "t_note_us": 49906074,
      "t_trigger_us": 49770111,
      "is_ai": true,
      "track_id": 5,
      "velocity": 0,
      "is_motor": false,
      "motor_id": 0,
      "accel_val": 2000,
      "base_duration_us": 176682
    },
    {
      "id": "M_493",
      "pitch": 100,
      "t_note_us": 49906074,
      "t_trigger_us": 49770111,
      "is_ai": true,
      "track_id": 12,
      "velocity": 0,
      "is_motor": false,
      "motor_id": 0,
      "accel_val": 2000,
      "base_duration_us": 1448312
    },
    {
      "id": "M_484",
      "pitch": 57,
      "t_note_us": 49906074,
      "t_trigger_us": 49770111,
      "is_ai": false,
      "track_id": 0,
      "velocity": 0,
      "is_motor": true,
      "motor_id": 3,
      "accel_val": 2000,
      "base_duration_us": 0
    },
    {
      "id": "M_500",
      "pitch": 48,
      "t_note_us": 50053910,
      "t_trigger_us": 49917947,
      "is_ai": false,
      "track_id": 0,
      "velocity": 0,
      "is_motor": true,
      "motor_id": 3,
      "accel_val": 2000,
      "base_duration_us": 1300476
    },
    {
      "id": "M_498",
      "pitch": 93,
      "t_note_us": 50201746,
      "t_trigger_us": 50065783,
      "is_ai": true,
      "track_id": 8,
      "velocity": 0,
      "is_motor": false,
      "motor_id": 0,
      "accel_val": 2000,
      "base_duration_us": 1152640
    },
    {
      "id": "M_499",
      "pitch": 88,
      "t_note_us": 50201746,
      "t_trigger_us": 50065783,
      "is_ai": true,
      "track_id": 5,
      "velocity": 0,
      "is_motor": false,
      "motor_id": 0,
      "accel_val": 2000,
      "base_duration_us": 1152640
    },
    {
      "id": "M_489",
      "pitch": 60,
      "t_note_us": 50497418,
      "t_trigger_us": 50361455,
      "is_ai": false,
      "track_id": 0,
      "velocity": 0,
      "is_motor": true,
      "motor_id": 1,
      "accel_val": 2000,
      "base_duration_us": 0
    },
    {
      "id": "M_497",
      "pitch": 67,
      "t_note_us": 50497418,
      "t_trigger_us": 50361455,
      "is_ai": false,
      "track_id": 0,
      "velocity": 0,
      "is_motor": true,
      "motor_id": 2,
      "accel_val": 2000,
      "base_duration_us": 856968
    },
    {
      "id": "M_490",
      "pitch": 69,
      "t_note_us": 50645254,
      "t_trigger_us": 50509291,
      "is_ai": false,
      "track_id": 0,
      "velocity": 0,
      "is_motor": true,
      "motor_id": 1,
      "accel_val": 2000,
      "base_duration_us": 0
    },
    {
      "id": "M_495",
      "pitch": 72,
      "t_note_us": 50793090,
      "t_trigger_us": 50657127,
      "is_ai": false,
      "track_id": 0,
      "velocity": 0,
      "is_motor": true,
      "motor_id": 1,
      "accel_val": 2000,
      "base_duration_us": 561296
    },
    {
      "id": "M_496",
      "pitch": 67,
      "t_note_us": 50793090,
      "t_trigger_us": 50657127,
      "is_ai": false,
      "track_id": 0,
      "velocity": 0,
      "is_motor": true,
      "motor_id": 0,
      "accel_val": 2000,
      "base_duration_us": 561296
    },
    {
      "id": "M_494",
      "pitch": 86,
      "t_note_us": 50940926,
      "t_trigger_us": 50804963,
      "is_ai": true,
      "track_id": 4,
      "velocity": 0,
      "is_motor": false,
      "motor_id": 0,
      "accel_val": 2000,
      "base_duration_us": 413460
    },
    {
      "id": "M_491",
      "pitch": 72,
      "t_note_us": 51087560,
      "t_trigger_us": 50951597,
      "is_ai": false,
      "track_id": 0,
      "velocity": 0,
      "is_motor": true,
      "motor_id": 0,
      "accel_val": 2000,
      "base_duration_us": 0
    },
    {
      "id": "M_492",
      "pitch": 60,
      "t_note_us": 51087560,
      "t_trigger_us": 50951597,
      "is_ai": false,
      "track_id": 0,
      "velocity": 0,
      "is_motor": true,
      "motor_id": 0,
      "accel_val": 2000,
      "base_duration_us": 0
    },
    {
      "id": "M_507",
      "pitch": 53,
      "t_note_us": 51384434,
      "t_trigger_us": 51248471,
      "is_ai": false,
      "track_id": 0,
      "velocity": 0,
      "is_motor": true,
      "motor_id": 0,
      "accel_val": 2000,
      "base_duration_us": 1063698
    },
    {
      "id": "M_501",
      "pitch": 65,
      "t_note_us": 51708952,
      "t_trigger_us": 51572989,
      "is_ai": false,
      "track_id": 0,
      "velocity": 0,
      "is_motor": true,
      "motor_id": 1,
      "accel_val": 2000,
      "base_duration_us": 0
    },
    {
      "id": "M_503",
      "pitch": 72,
      "t_note_us": 51708952,
      "t_trigger_us": 51572989,
      "is_ai": false,
      "track_id": 0,
      "velocity": 0,
      "is_motor": true,
      "motor_id": 2,
      "accel_val": 2000,
      "base_duration_us": 296874
    },
    {
      "id": "M_506",
      "pitch": 69,
      "t_note_us": 51856788,
      "t_trigger_us": 51720825,
      "is_ai": false,
      "track_id": 0,
      "velocity": 0,
      "is_motor": true,
      "motor_id": 1,
      "accel_val": 2000,
      "base_duration_us": 591344
    },
    {
      "id": "M_502",
      "pitch": 96,
      "t_note_us": 51975778,
      "t_trigger_us": 51839815,
      "is_ai": true,
      "track_id": 10,
      "velocity": 0,
      "is_motor": false,
      "motor_id": 0,
      "accel_val": 2000,
      "base_duration_us": 0
    },
    {
      "id": "M_509",
      "pitch": 72,
      "t_note_us": 51975778,
      "t_trigger_us": 51839815,
      "is_ai": false,
      "track_id": 0,
      "velocity": 0,
      "is_motor": true,
      "motor_id": 3,
      "accel_val": 2000,
      "base_duration_us": 502402
    },
    {
      "id": "M_508",
      "pitch": 76,
      "t_note_us": 52123614,
      "t_trigger_us": 51987651,
      "is_ai": false,
      "track_id": 0,
      "velocity": 0,
      "is_motor": true,
      "motor_id": 2,
      "accel_val": 2000,
      "base_duration_us": 354566
    },
    {
      "id": "M_504",
      "pitch": 96,
      "t_note_us": 52271450,
      "t_trigger_us": 52135487,
      "is_ai": true,
      "track_id": 10,
      "velocity": 0,
      "is_motor": false,
      "motor_id": 0,
      "accel_val": 2000,
      "base_duration_us": 0
    },
    {
      "id": "M_505",
      "pitch": 72,
      "t_note_us": 52271450,
      "t_trigger_us": 52135487,
      "is_ai": false,
      "track_id": 0,
      "velocity": 0,
      "is_motor": true,
      "motor_id": 0,
      "accel_val": 2000,
      "base_duration_us": 0
    },
    {
      "id": "M_515",
      "pitch": 52,
      "t_note_us": 52448132,
      "t_trigger_us": 52312169,
      "is_ai": false,
      "track_id": 0,
      "velocity": 0,
      "is_motor": true,
      "motor_id": 0,
      "accel_val": 2000,
      "base_duration_us": 1301678
    },
    {
      "id": "M_521",
      "pitch": 59,
      "t_note_us": 52448132,
      "t_trigger_us": 52312169,
      "is_ai": false,
      "track_id": 0,
      "velocity": 0,
      "is_motor": true,
      "motor_id": 1,
      "accel_val": 2000,
      "base_duration_us": 1330524
    },
    {
      "id": "M_519",
      "pitch": 95,
      "t_note_us": 52595968,
      "t_trigger_us": 52460005,
      "is_ai": true,
      "track_id": 9,
      "velocity": 0,
      "is_motor": false,
      "motor_id": 0,
      "accel_val": 2000,
      "base_duration_us": 1182688
    },
    {
      "id": "M_520",
      "pitch": 71,
      "t_note_us": 52595968,
      "t_trigger_us": 52460005,
      "is_ai": false,
      "track_id": 0,
      "velocity": 0,
      "is_motor": true,
      "motor_id": 2,
      "accel_val": 2000,
      "base_duration_us": 1182688
    },
    {
      "id": "M_513",
      "pitch": 93,
      "t_note_us": 52891640,
      "t_trigger_us": 52755677,
      "is_ai": true,
      "track_id": 8,
      "velocity": 0,
      "is_motor": false,
      "motor_id": 0,
      "accel_val": 2000,
      "base_duration_us": 592546
    },
    {
      "id": "M_510",
      "pitch": 64,
      "t_note_us": 52891640,
      "t_trigger_us": 52755677,
      "is_ai": false,
      "track_id": 0,
      "velocity": 0,
      "is_motor": true,
      "motor_id": 3,
      "accel_val": 2000,
      "base_duration_us": 0
    },
    {
      "id": "M_514",
      "pitch": 69,
      "t_note_us": 52891640,
      "t_trigger_us": 52755677,
      "is_ai": false,
      "track_id": 0,
      "velocity": 0,
      "is_motor": true,
      "motor_id": 0,
      "accel_val": 2000,
      "base_duration_us": 592546
    },
    {
      "id": "M_512",
      "pitch": 68,
      "t_note_us": 53039476,
      "t_trigger_us": 52903513,
      "is_ai": false,
      "track_id": 0,
      "velocity": 0,
      "is_motor": true,
      "motor_id": 3,
      "accel_val": 2000,
      "base_duration_us": 444710
    },
    {
      "id": "M_511",
      "pitch": 92,
      "t_note_us": 53187312,
      "t_trigger_us": 53051349,
      "is_ai": true,
      "track_id": 0,
      "velocity": 0,
      "is_motor": true,
      "motor_id": 0,
      "accel_val": 2000,
      "base_duration_us": 0
    },
    {
      "id": "M_517",
      "pitch": 68,
      "t_note_us": 53187312,
      "t_trigger_us": 53051349,
      "is_ai": false,
      "track_id": 0,
      "velocity": 0,
      "is_motor": true,
      "motor_id": 0,
      "accel_val": 2000,
      "base_duration_us": 591344
    },
    {
      "id": "M_518",
      "pitch": 74,
      "t_note_us": 53187312,
      "t_trigger_us": 53051349,
      "is_ai": false,
      "track_id": 0,
      "velocity": 0,
      "is_motor": true,
      "motor_id": 0,
      "accel_val": 2000,
      "base_duration_us": 591344
    },
    {
      "id": "M_526",
      "pitch": 93,
      "t_note_us": 53484186,
      "t_trigger_us": 53348223,
      "is_ai": true,
      "track_id": 8,
      "velocity": 0,
      "is_motor": false,
      "motor_id": 0,
      "accel_val": 2000,
      "base_duration_us": 1270428
    },
    {
      "id": "M_516",
      "pitch": 68,
      "t_note_us": 53484186,
      "t_trigger_us": 53348223,
      "is_ai": false,
      "track_id": 0,
      "velocity": 0,
      "is_motor": true,
      "motor_id": 3,
      "accel_val": 2000,
      "base_duration_us": 265624
    },
    {
      "id": "M_527",
      "pitch": 69,
      "t_note_us": 53484186,
      "t_trigger_us": 53348223,
      "is_ai": false,
      "track_id": 0,
      "velocity": 0,
      "is_motor": true,
      "motor_id": 0,
      "accel_val": 2000,
      "base_duration_us": 1270428
    },
    {
      "id": "M_529",
      "pitch": 45,
      "t_note_us": 53778656,
      "t_trigger_us": 53642693,
      "is_ai": false,
      "track_id": 0,
      "velocity": 0,
      "is_motor": true,
      "motor_id": 0,
      "accel_val": 2000,
      "base_duration_us": 975958
    },
    {
      "id": "M_522",
      "pitch": 96,
      "t_note_us": 54370000,
      "t_trigger_us": 54234037,
      "is_ai": true,
      "track_id": 10,
      "velocity": 0,
      "is_motor": false,
      "motor_id": 0,
      "accel_val": 2000,
      "base_duration_us": 0
    },
    {
      "id": "M_523",
      "pitch": 72,
      "t_note_us": 54370000,
      "t_trigger_us": 54234037,
      "is_ai": false,
      "track_id": 0,
      "velocity": 0,
      "is_motor": true,
      "motor_id": 1,
      "accel_val": 2000,
      "base_duration_us": 0
    },
    {
      "id": "M_528",
      "pitch": 69,
      "t_note_us": 54370000,
      "t_trigger_us": 54234037,
      "is_ai": false,
      "track_id": 0,
      "velocity": 0,
      "is_motor": true,
      "motor_id": 2,
      "accel_val": 2000,
      "base_duration_us": 384614
    },
    {
      "id": "M_524",
      "pitch": 64,
      "t_note_us": 54517836,
      "t_trigger_us": 54381873,
      "is_ai": false,
      "track_id": 0,
      "velocity": 0,
      "is_motor": true,
      "motor_id": 1,
      "accel_val": 2000,
      "base_duration_us": 0
    },
    {
      "id": "M_537",
      "pitch": 98,
      "t_note_us": 54665672,
      "t_trigger_us": 54529709,
      "is_ai": true,
      "track_id": 11,
      "velocity": 0,
      "is_motor": false,
      "motor_id": 0,
      "accel_val": 2000,
      "base_duration_us": 1478361
    },
    {
      "id": "M_538",
      "pitch": 74,
      "t_note_us": 54665672,
      "t_trigger_us": 54529709,
      "is_ai": false,
      "track_id": 0,
      "velocity": 0,
      "is_motor": true,
      "motor_id": 1,
      "accel_val": 2000,
      "base_duration_us": 1478361
    },
    {
      "id": "M_525",
      "pitch": 57,
      "t_note_us": 54695720,
      "t_trigger_us": 54559757,
      "is_ai": false,
      "track_id": 0,
      "velocity": 0,
      "is_motor": true,
      "motor_id": 3,
      "accel_val": 2000,
      "base_duration_us": 0
    },
    {
      "id": "M_535",
      "pitch": 48,
      "t_note_us": 54813508,
      "t_trigger_us": 54677545,
      "is_ai": false,
      "track_id": 0,
      "velocity": 0,
      "is_motor": true,
      "motor_id": 0,
      "accel_val": 2000,
      "base_duration_us": 1330525
    },
    {
      "id": "M_533",
      "pitch": 88,
      "t_note_us": 55257017,
      "t_trigger_us": 55121054,
      "is_ai": true,
      "track_id": 5,
      "velocity": 0,
      "is_motor": false,
      "motor_id": 0,
      "accel_val": 2000,
      "base_duration_us": 887016
    },
    {
      "id": "M_540",
      "pitch": 96,
      "t_note_us": 55257017,
      "t_trigger_us": 55121054,
      "is_ai": true,
      "track_id": 10,
      "velocity": 0,
      "is_motor": false,
      "motor_id": 0,
      "accel_val": 2000,
      "base_duration_us": 917064
    },
    {
      "id": "M_530",
      "pitch": 60,
      "t_note_us": 55257017,
      "t_trigger_us": 55121054,
      "is_ai": false,
      "track_id": 0,
      "velocity": 0,
      "is_motor": true,
      "motor_id": 2,
      "accel_val": 2000,
      "base_duration_us": 0
    },
    {
      "id": "M_534",
      "pitch": 72,
      "t_note_us": 55257017,
      "t_trigger_us": 55121054,
      "is_ai": false,
      "track_id": 0,
      "velocity": 0,
      "is_motor": true,
      "motor_id": 3,
      "accel_val": 2000,
      "base_duration_us": 887016
    },
    {
      "id": "M_531",
      "pitch": 67,
      "t_note_us": 55404853,
      "t_trigger_us": 55268890,
      "is_ai": false,
      "track_id": 0,
      "velocity": 0,
      "is_motor": true,
      "motor_id": 2,
      "accel_val": 2000,
      "base_duration_us": 296874
    },
    {
      "id": "M_532",
      "pitch": 72,
      "t_note_us": 55552689,
      "t_trigger_us": 55416726,
      "is_ai": false,
      "track_id": 0,
      "velocity": 0,
      "is_motor": true,
      "motor_id": 0,
      "accel_val": 2000,
      "base_duration_us": 591344
    },
    {
      "id": "M_539",
      "pitch": 67,
      "t_note_us": 55701727,
      "t_trigger_us": 55565764,
      "is_ai": false,
      "track_id": 0,
      "velocity": 0,
      "is_motor": true,
      "motor_id": 2,
      "accel_val": 2000,
      "base_duration_us": 442306
    },
    {
      "id": "M_536",
      "pitch": 60,
      "t_note_us": 55878409,
      "t_trigger_us": 55742446,
      "is_ai": false,
      "track_id": 0,
      "velocity": 0,
      "is_motor": true,
      "motor_id": 0,
      "accel_val": 2000,
      "base_duration_us": 265624
    },
    {
      "id": "M_541",
      "pitch": 64,
      "t_note_us": 56174081,
      "t_trigger_us": 56038118,
      "is_ai": false,
      "track_id": 0,
      "velocity": 0,
      "is_motor": true,
      "motor_id": 1,
      "accel_val": 2000,
      "base_duration_us": 383413
    },
    {
      "id": "M_542",
      "pitch": 52,
      "t_note_us": 56174081,
      "t_trigger_us": 56038118,
      "is_ai": false,
      "track_id": 0,
      "velocity": 0,
      "is_motor": true,
      "motor_id": 0,
      "accel_val": 2000,
      "base_duration_us": 413461
    },
    {
      "id": "M_543",
      "pitch": 59,
      "t_note_us": 56617590,
      "t_trigger_us": 56481627,
      "is_ai": false,
      "track_id": 0,
      "velocity": 0,
      "is_motor": true,
      "motor_id": 0,
      "accel_val": 2000,
      "base_duration_us": 88942
    },
    {
      "id": "M_544",
      "pitch": 52,
      "t_note_us": 56617590,
      "t_trigger_us": 56481627,
      "is_ai": false,
      "track_id": 0,
      "velocity": 0,
      "is_motor": true,
      "motor_id": 1,
      "accel_val": 2000,
      "base_duration_us": 117788
    },
    {
      "id": "M_545",
      "pitch": 59,
      "t_note_us": 56913262,
      "t_trigger_us": 56777299,
      "is_ai": false,
      "track_id": 0,
      "velocity": 0,
      "is_motor": true,
      "motor_id": 0,
      "accel_val": 2000,
      "base_duration_us": 176682
    },
    {
      "id": "M_546",
      "pitch": 52,
      "t_note_us": 57061098,
      "t_trigger_us": 56925135,
      "is_ai": false,
      "track_id": 0,
      "velocity": 0,
      "is_motor": true,
      "motor_id": 1,
      "accel_val": 2000,
      "base_duration_us": 58894
    },
    {
      "id": "M_547",
      "pitch": 62,
      "t_note_us": 57061098,
      "t_trigger_us": 56925135,
      "is_ai": false,
      "track_id": 0,
      "velocity": 0,
      "is_motor": true,
      "motor_id": 2,
      "accel_val": 2000,
      "base_duration_us": 88942
    },
    {
      "id": "M_549",
      "pitch": 52,
      "t_note_us": 57356770,
      "t_trigger_us": 57220807,
      "is_ai": false,
      "track_id": 0,
      "velocity": 0,
      "is_motor": true,
      "motor_id": 0,
      "accel_val": 2000,
      "base_duration_us": 413460
    },
    {
      "id": "M_548",
      "pitch": 64,
      "t_note_us": 57652442,
      "t_trigger_us": 57516479,
      "is_ai": false,
      "track_id": 0,
      "velocity": 0,
      "is_motor": true,
      "motor_id": 1,
      "accel_val": 2000,
      "base_duration_us": 0
    },
    {
      "id": "M_550",
      "pitch": 67,
      "t_note_us": 57800278,
      "t_trigger_us": 57664315,
      "is_ai": false,
      "track_id": 0,
      "velocity": 0,
      "is_motor": true,
      "motor_id": 1,
      "accel_val": 2000,
      "base_duration_us": 58894
    },
    {
      "id": "M_551",
      "pitch": 67,
      "t_note_us": 58095950,
      "t_trigger_us": 57959987,
      "is_ai": false,
      "track_id": 0,
      "velocity": 0,
      "is_motor": true,
      "motor_id": 1,
      "accel_val": 2000,
      "base_duration_us": 206730
    },
    {
      "id": "M_553",
      "pitch": 65,
      "t_note_us": 58243786,
      "t_trigger_us": 58107823,
      "is_ai": false,
      "track_id": 0,
      "velocity": 0,
      "is_motor": true,
      "motor_id": 0,
      "accel_val": 2000,
      "base_duration_us": 88942
    },
    {
      "id": "M_552",
      "pitch": 52,
      "t_note_us": 58272632,
      "t_trigger_us": 58136669,
      "is_ai": false,
      "track_id": 0,
      "velocity": 0,
      "is_motor": true,
      "motor_id": 2,
      "accel_val": 2000,
      "base_duration_us": 60096
    },
    {
      "id": "M_554",
      "pitch": 64,
      "t_note_us": 58539458,
      "t_trigger_us": 58403495,
      "is_ai": false,
      "track_id": 0,
      "velocity": 0,
      "is_motor": true,
      "motor_id": 1,
      "accel_val": 2000,
      "base_duration_us": 472355
    },
    {
      "id": "M_555",
      "pitch": 52,
      "t_note_us": 58539458,
      "t_trigger_us": 58403495,
      "is_ai": false,
      "track_id": 0,
      "velocity": 0,
      "is_motor": true,
      "motor_id": 0,
      "accel_val": 2000,
      "base_duration_us": 472355
    },
    {
      "id": "M_556",
      "pitch": 59,
      "t_note_us": 59011813,
      "t_trigger_us": 58875850,
      "is_ai": false,
      "track_id": 0,
      "velocity": 0,
      "is_motor": true,
      "motor_id": 0,
      "accel_val": 2000,
      "base_duration_us": 60096
    },
    {
      "id": "M_557",
      "pitch": 52,
      "t_note_us": 59011813,
      "t_trigger_us": 58875850,
      "is_ai": false,
      "track_id": 0,
      "velocity": 0,
      "is_motor": true,
      "motor_id": 1,
      "accel_val": 2000,
      "base_duration_us": 60096
    },
    {
      "id": "M_558",
      "pitch": 59,
      "t_note_us": 59307485,
      "t_trigger_us": 59171522,
      "is_ai": false,
      "track_id": 0,
      "velocity": 0,
      "is_motor": true,
      "motor_id": 0,
      "accel_val": 2000,
      "base_duration_us": 118990
    },
    {
      "id": "M_559",
      "pitch": 52,
      "t_note_us": 59455321,
      "t_trigger_us": 59319358,
      "is_ai": false,
      "track_id": 0,
      "velocity": 0,
      "is_motor": true,
      "motor_id": 0,
      "accel_val": 2000,
      "base_duration_us": 60096
    },
    {
      "id": "M_560",
      "pitch": 62,
      "t_note_us": 59455321,
      "t_trigger_us": 59319358,
      "is_ai": false,
      "track_id": 0,
      "velocity": 0,
      "is_motor": true,
      "motor_id": 1,
      "accel_val": 2000,
      "base_duration_us": 118990
    },
    {
      "id": "M_561",
      "pitch": 64,
      "t_note_us": 59750993,
      "t_trigger_us": 59615030,
      "is_ai": false,
      "track_id": 0,
      "velocity": 0,
      "is_motor": true,
      "motor_id": 1,
      "accel_val": 2000,
      "base_duration_us": 355768
    },
    {
      "id": "M_562",
      "pitch": 52,
      "t_note_us": 59750993,
      "t_trigger_us": 59615030,
      "is_ai": false,
      "track_id": 0,
      "velocity": 0,
      "is_motor": true,
      "motor_id": 0,
      "accel_val": 2000,
      "base_duration_us": 355768
    },
    {
      "id": "M_563",
      "pitch": 100,
      "t_note_us": 60046665,
      "t_trigger_us": 59910702,
      "is_ai": true,
      "track_id": 12,
      "velocity": 0,
      "is_motor": false,
      "motor_id": 0,
      "accel_val": 2000,
      "base_duration_us": 88942
    },
    {
      "id": "M_566",
      "pitch": 100,
      "t_note_us": 60343539,
      "t_trigger_us": 60207576,
      "is_ai": true,
      "track_id": 12,
      "velocity": 0,
      "is_motor": false,
      "motor_id": 0,
      "accel_val": 2000,
      "base_duration_us": 265624
    },
    {
      "id": "M_564",
      "pitch": 52,
      "t_note_us": 60343539,
      "t_trigger_us": 60207576,
      "is_ai": false,
      "track_id": 0,
      "velocity": 0,
      "is_motor": true,
      "motor_id": 0,
      "accel_val": 2000,
      "base_duration_us": 0
    },
    {
      "id": "M_565",
      "pitch": 100,
      "t_note_us": 60490173,
      "t_trigger_us": 60354210,
      "is_ai": true,
      "track_id": 12,
      "velocity": 0,
      "is_motor": false,
      "motor_id": 0,
      "accel_val": 2000,
      "base_duration_us": 0
    },
    {
      "id": "M_572",
      "pitch": 100,
      "t_note_us": 60639211,
      "t_trigger_us": 60503248,
      "is_ai": true,
      "track_id": 12,
      "velocity": 0,
      "is_motor": false,
      "motor_id": 0,
      "accel_val": 2000,
      "base_duration_us": 1389418
    },
    {
      "id": "M_567",
      "pitch": 52,
      "t_note_us": 60639211,
      "t_trigger_us": 60503248,
      "is_ai": false,
      "track_id": 0,
      "velocity": 0,
      "is_motor": true,
      "motor_id": 0,
      "accel_val": 2000,
      "base_duration_us": 0
    },
    {
      "id": "M_568",
      "pitch": 71,
      "t_note_us": 61377189,
      "t_trigger_us": 61241226,
      "is_ai": false,
      "track_id": 0,
      "velocity": 0,
      "is_motor": true,
      "motor_id": 1,
      "accel_val": 2000,
      "base_duration_us": 0
    },
    {
      "id": "M_569",
      "pitch": 52,
      "t_note_us": 61377189,
      "t_trigger_us": 61241226,
      "is_ai": false,
      "track_id": 0,
      "velocity": 0,
      "is_motor": true,
      "motor_id": 0,
      "accel_val": 2000,
      "base_duration_us": 0
    },
    {
      "id": "M_573",
      "pitch": 91,
      "t_note_us": 61672861,
      "t_trigger_us": 61536898,
      "is_ai": true,
      "track_id": 7,
      "velocity": 0,
      "is_motor": false,
      "motor_id": 0,
      "accel_val": 2000,
      "base_duration_us": 355768
    },
    {
      "id": "M_574",
      "pitch": 88,
      "t_note_us": 61672861,
      "t_trigger_us": 61536898,
      "is_ai": true,
      "track_id": 5,
      "velocity": 0,
      "is_motor": false,
      "motor_id": 0,
      "accel_val": 2000,
      "base_duration_us": 355768
    },
    {
      "id": "M_576",
      "pitch": 95,
      "t_note_us": 61672861,
      "t_trigger_us": 61536898,
      "is_ai": true,
      "track_id": 9,
      "velocity": 0,
      "is_motor": false,
      "motor_id": 0,
      "accel_val": 2000,
      "base_duration_us": 443508
    },
    {
      "id": "M_570",
      "pitch": 52,
      "t_note_us": 61672861,
      "t_trigger_us": 61536898,
      "is_ai": false,
      "track_id": 0,
      "velocity": 0,
      "is_motor": true,
      "motor_id": 0,
      "accel_val": 2000,
      "base_duration_us": 0
    },
    {
      "id": "M_575",
      "pitch": 52,
      "t_note_us": 61821899,
      "t_trigger_us": 61685936,
      "is_ai": false,
      "track_id": 0,
      "velocity": 0,
      "is_motor": true,
      "motor_id": 0,
      "accel_val": 2000,
      "base_duration_us": 206730
    },
    {
      "id": "M_571",
      "pitch": 71,
      "t_note_us": 61968533,
      "t_trigger_us": 61832570,
      "is_ai": false,
      "track_id": 0,
      "velocity": 0,
      "is_motor": true,
      "motor_id": 1,
      "accel_val": 2000,
      "base_duration_us": 0
    },
    {
      "id": "M_577",
      "pitch": 88,
      "t_note_us": 62116369,
      "t_trigger_us": 61980406,
      "is_ai": true,
      "track_id": 5,
      "velocity": 0,
      "is_motor": false,
      "motor_id": 0,
      "accel_val": 2000,
      "base_duration_us": 295672
    },
    {
      "id": "M_579",
      "pitch": 90,
      "t_note_us": 62116369,
      "t_trigger_us": 61980406,
      "is_ai": true,
      "track_id": 0,
      "velocity": 0,
      "is_motor": true,
      "motor_id": 3,
      "accel_val": 2000,
      "base_duration_us": 325720
    },
    {
      "id": "M_581",
      "pitch": 93,
      "t_note_us": 62116369,
      "t_trigger_us": 61980406,
      "is_ai": true,
      "track_id": 8,
      "velocity": 0,
      "is_motor": false,
      "motor_id": 0,
      "accel_val": 2000,
      "base_duration_us": 444710
    },
    {
      "id": "M_578",
      "pitch": 52,
      "t_note_us": 62116369,
      "t_trigger_us": 61980406,
      "is_ai": false,
      "track_id": 0,
      "velocity": 0,
      "is_motor": true,
      "motor_id": 0,
      "accel_val": 2000,
      "base_duration_us": 295672
    },
    {
      "id": "M_580",
      "pitch": 71,
      "t_note_us": 62412041,
      "t_trigger_us": 62276078,
      "is_ai": false,
      "track_id": 0,
      "velocity": 0,
      "is_motor": true,
      "motor_id": 1,
      "accel_val": 2000,
      "base_duration_us": 88942
    },
    {
      "id": "M_584",
      "pitch": 91,
      "t_note_us": 62561079,
      "t_trigger_us": 62425116,
      "is_ai": true,
      "track_id": 7,
      "velocity": 0,
      "is_motor": false,
      "motor_id": 0,
      "accel_val": 2000,
      "base_duration_us": 620190
    },
    {
      "id": "M_585",
      "pitch": 88,
      "t_note_us": 62561079,
      "t_trigger_us": 62425116,
      "is_ai": true,
      "track_id": 5,
      "velocity": 0,
      "is_motor": false,
      "motor_id": 0,
      "accel_val": 2000,
      "base_duration_us": 620190
    },
    {
      "id": "M_582",
      "pitch": 52,
      "t_note_us": 62561079,
      "t_trigger_us": 62425116,
      "is_ai": false,
      "track_id": 0,
      "velocity": 0,
      "is_motor": true,
      "motor_id": 0,
      "accel_val": 2000,
      "base_duration_us": 472354
    },
    {
      "id": "M_583",
      "pitch": 71,
      "t_note_us": 62856751,
      "t_trigger_us": 62720788,
      "is_ai": false,
      "track_id": 0,
      "velocity": 0,
      "is_motor": true,
      "motor_id": 1,
      "accel_val": 2000,
      "base_duration_us": 324518
    },
    {
      "id": "M_586",
      "pitch": 90,
      "t_note_us": 63033433,
      "t_trigger_us": 62897470,
      "is_ai": true,
      "track_id": 0,
      "velocity": 0,
      "is_motor": true,
      "motor_id": 3,
      "accel_val": 2000,
      "base_duration_us": 147836
    },
    {
      "id": "M_587",
      "pitch": 52,
      "t_note_us": 63033433,
      "t_trigger_us": 62897470,
      "is_ai": false,
      "track_id": 0,
      "velocity": 0,
      "is_motor": true,
      "motor_id": 0,
      "accel_val": 2000,
      "base_duration_us": 147836
    },
    {
      "id": "M_591",
      "pitch": 88,
      "t_note_us": 63300259,
      "t_trigger_us": 63164296,
      "is_ai": true,
      "track_id": 5,
      "velocity": 0,
      "is_motor": false,
      "motor_id": 0,
      "accel_val": 2000,
      "base_duration_us": 1122594
    },
    {
      "id": "M_592",
      "pitch": 71,
      "t_note_us": 63300259,
      "t_trigger_us": 63164296,
      "is_ai": false,
      "track_id": 0,
      "velocity": 0,
      "is_motor": true,
      "motor_id": 1,
      "accel_val": 2000,
      "base_duration_us": 1122594
    },
    {
      "id": "M_590",
      "pitch": 52,
      "t_note_us": 63329105,
      "t_trigger_us": 63193142,
      "is_ai": false,
      "track_id": 0,
      "velocity": 0,
      "is_motor": true,
      "motor_id": 0,
      "accel_val": 2000,
      "base_duration_us": 1093748
    },
    {
      "id": "M_588",
      "pitch": 98,
      "t_note_us": 63920450,
      "t_trigger_us": 63784487,
      "is_ai": true,
      "track_id": 11,
      "velocity": 0,
      "is_motor": false,
      "motor_id": 0,
      "accel_val": 2000,
      "base_duration_us": 502403
    },
    {
      "id": "M_589",
      "pitch": 86,
      "t_note_us": 63920450,
      "t_trigger_us": 63784487,
      "is_ai": true,
      "track_id": 4,
      "velocity": 0,
      "is_motor": false,
      "motor_id": 0,
      "accel_val": 2000,
      "base_duration_us": 502403
    },
    {
      "id": "M_599",
      "pitch": 100,
      "t_note_us": 64807467,
      "t_trigger_us": 64671504,
      "is_ai": true,
      "track_id": 12,
      "velocity": 0,
      "is_motor": false,
      "motor_id": 0,
      "accel_val": 2000,
      "base_duration_us": 856968
    },
    {
      "id": "M_600",
      "pitch": 91,
      "t_note_us": 64807467,
      "t_trigger_us": 64671504,
      "is_ai": true,
      "track_id": 7,
      "velocity": 0,
      "is_motor": false,
      "motor_id": 0,
      "accel_val": 2000,
      "base_duration_us": 856968
    },
    {
      "id": "M_593",
      "pitch": 98,
      "t_note_us": 65103139,
      "t_trigger_us": 64967176,
      "is_ai": true,
      "track_id": 11,
      "velocity": 0,
      "is_motor": false,
      "motor_id": 0,
      "accel_val": 2000,
      "base_duration_us": 0
    },
    {
      "id": "M_594",
      "pitch": 89,
      "t_note_us": 65103139,
      "t_trigger_us": 64967176,
      "is_ai": true,
      "track_id": 6,
      "velocity": 0,
      "is_motor": false,
      "motor_id": 0,
      "accel_val": 2000,
      "base_duration_us": 0
    },
    {
      "id": "M_595",
      "pitch": 74,
      "t_note_us": 65103139,
      "t_trigger_us": 64967176,
      "is_ai": false,
      "track_id": 0,
      "velocity": 0,
      "is_motor": true,
      "motor_id": 1,
      "accel_val": 2000,
      "base_duration_us": 0
    },
    {
      "id": "M_596",
      "pitch": 88,
      "t_note_us": 65398811,
      "t_trigger_us": 65262848,
      "is_ai": true,
      "track_id": 5,
      "velocity": 0,
      "is_motor": false,
      "motor_id": 0,
      "accel_val": 2000,
      "base_duration_us": 0
    },
    {
      "id": "M_597",
      "pitch": 96,
      "t_note_us": 65398811,
      "t_trigger_us": 65262848,
      "is_ai": true,
      "track_id": 10,
      "velocity": 0,
      "is_motor": false,
      "motor_id": 0,
      "accel_val": 2000,
      "base_duration_us": 265624
    },
    {
      "id": "M_598",
      "pitch": 72,
      "t_note_us": 65398811,
      "t_trigger_us": 65262848,
      "is_ai": false,
      "track_id": 0,
      "velocity": 0,
      "is_motor": true,
      "motor_id": 1,
      "accel_val": 2000,
      "base_duration_us": 265624
    },
    {
      "id": "M_602",
      "pitch": 93,
      "t_note_us": 65694483,
      "t_trigger_us": 65558520,
      "is_ai": true,
      "track_id": 8,
      "velocity": 0,
      "is_motor": false,
      "motor_id": 0,
      "accel_val": 2000,
      "base_duration_us": 443508
    },
    {
      "id": "M_603",
      "pitch": 72,
      "t_note_us": 65694483,
      "t_trigger_us": 65558520,
      "is_ai": false,
      "track_id": 0,
      "velocity": 0,
      "is_motor": true,
      "motor_id": 1,
      "accel_val": 2000,
      "base_duration_us": 443508
    },
    {
      "id": "M_605",
      "pitch": 60,
      "t_note_us": 65694483,
      "t_trigger_us": 65558520,
      "is_ai": false,
      "track_id": 0,
      "velocity": 0,
      "is_motor": true,
      "motor_id": 0,
      "accel_val": 2000,
      "base_duration_us": 975958
    },
    {
      "id": "M_606",
      "pitch": 53,
      "t_note_us": 65694483,
      "t_trigger_us": 65558520,
      "is_ai": false,
      "track_id": 0,
      "velocity": 0,
      "is_motor": true,
      "motor_id": 2,
      "accel_val": 2000,
      "base_duration_us": 975958
    },
    {
      "id": "M_601",
      "pitch": 65,
      "t_note_us": 65990155,
      "t_trigger_us": 65854192,
      "is_ai": false,
      "track_id": 0,
      "velocity": 0,
      "is_motor": true,
      "motor_id": 3,
      "accel_val": 2000,
      "base_duration_us": 0
    },
    {
      "id": "M_608",
      "pitch": 96,
      "t_note_us": 66137991,
      "t_trigger_us": 66002028,
      "is_ai": true,
      "track_id": 10,
      "velocity": 0,
      "is_motor": false,
      "motor_id": 0,
      "accel_val": 2000,
      "base_duration_us": 532450
    },
    {
      "id": "M_609",
      "pitch": 93,
      "t_note_us": 66137991,
      "t_trigger_us": 66002028,
      "is_ai": true,
      "track_id": 8,
      "velocity": 0,
      "is_motor": false,
      "motor_id": 0,
      "accel_val": 2000,
      "base_duration_us": 532450
    },
    {
      "id": "M_610",
      "pitch": 72,
      "t_note_us": 66137991,
      "t_trigger_us": 66002028,
      "is_ai": false,
      "track_id": 0,
      "velocity": 0,
      "is_motor": true,
      "motor_id": 1,
      "accel_val": 2000,
      "base_duration_us": 532450
    },
    {
      "id": "M_611",
      "pitch": 69,
      "t_note_us": 66137991,
      "t_trigger_us": 66002028,
      "is_ai": false,
      "track_id": 0,
      "velocity": 0,
      "is_motor": true,
      "motor_id": 3,
      "accel_val": 2000,
      "base_duration_us": 532450
    },
    {
      "id": "M_604",
      "pitch": 72,
      "t_note_us": 66285827,
      "t_trigger_us": 66149864,
      "is_ai": false,
      "track_id": 0,
      "velocity": 0,
      "is_motor": true,
      "motor_id": 0,
      "accel_val": 2000,
      "base_duration_us": 384614
    },
    {
      "id": "M_607",
      "pitch": 77,
      "t_note_us": 66433663,
      "t_trigger_us": 66297700,
      "is_ai": false,
      "track_id": 0,
      "velocity": 0,
      "is_motor": true,
      "motor_id": 0,
      "accel_val": 2000,
      "base_duration_us": 236778
    },
    {
      "id": "M_612",
      "pitch": 88,
      "t_note_us": 66581499,
      "t_trigger_us": 66445536,
      "is_ai": true,
      "track_id": 5,
      "velocity": 0,
      "is_motor": false,
      "motor_id": 0,
      "accel_val": 2000,
      "base_duration_us": 443508
    },
    {
      "id": "M_620",
      "pitch": 95,
      "t_note_us": 66581499,
      "t_trigger_us": 66445536,
      "is_ai": true,
      "track_id": 9,
      "velocity": 0,
      "is_motor": false,
      "motor_id": 0,
      "accel_val": 2000,
      "base_duration_us": 1478360
    },
    {
      "id": "M_624",
      "pitch": 59,
      "t_note_us": 66759383,
      "t_trigger_us": 66623420,
      "is_ai": false,
      "track_id": 0,
      "velocity": 0,
      "is_motor": true,
      "motor_id": 0,
      "accel_val": 2000,
      "base_duration_us": 1300476
    },
    {
      "id": "M_622",
      "pitch": 93,
      "t_note_us": 67025007,
      "t_trigger_us": 66889044,
      "is_ai": true,
      "track_id": 8,
      "velocity": 0,
      "is_motor": false,
      "motor_id": 0,
      "accel_val": 2000,
      "base_duration_us": 1034852
    },
    {
      "id": "M_613",
      "pitch": 64,
      "t_note_us": 67202891,
      "t_trigger_us": 67066928,
      "is_ai": false,
      "track_id": 0,
      "velocity": 0,
      "is_motor": true,
      "motor_id": 1,
      "accel_val": 2000,
      "base_duration_us": 0
    },
    {
      "id": "M_616",
      "pitch": 68,
      "t_note_us": 67349525,
      "t_trigger_us": 67213562,
      "is_ai": false,
      "track_id": 0,
      "velocity": 0,
      "is_motor": true,
      "motor_id": 1,
      "accel_val": 2000,
      "base_duration_us": 296874
    },
    {
      "id": "M_614",
      "pitch": 92,
      "t_note_us": 67468515,
      "t_trigger_us": 67332552,
      "is_ai": true,
      "track_id": 0,
      "velocity": 0,
      "is_motor": true,
      "motor_id": 3,
      "accel_val": 2000,
      "base_duration_us": 0
    },
    {
      "id": "M_615",
      "pitch": 88,
      "t_note_us": 67468515,
      "t_trigger_us": 67332552,
      "is_ai": true,
      "track_id": 5,
      "velocity": 0,
      "is_motor": false,
      "motor_id": 0,
      "accel_val": 2000,
      "base_duration_us": 0
    },
    {
      "id": "M_621",
      "pitch": 71,
      "t_note_us": 67498563,
      "t_trigger_us": 67362600,
      "is_ai": false,
      "track_id": 0,
      "velocity": 0,
      "is_motor": true,
      "motor_id": 2,
      "accel_val": 2000,
      "base_duration_us": 561296
    },
    {
      "id": "M_623",
      "pitch": 68,
      "t_note_us": 67646399,
      "t_trigger_us": 67510436,
      "is_ai": false,
      "track_id": 0,
      "velocity": 0,
      "is_motor": true,
      "motor_id": 1,
      "accel_val": 2000,
      "base_duration_us": 413460
    },
    {
      "id": "M_619",
      "pitch": 92,
      "t_note_us": 67794235,
      "t_trigger_us": 67658272,
      "is_ai": true,
      "track_id": 0,
      "velocity": 0,
      "is_motor": true,
      "motor_id": 3,
      "accel_val": 2000,
      "base_duration_us": 265624
    },
    {
      "id": "M_617",
      "pitch": 64,
      "t_note_us": 67794235,
      "t_trigger_us": 67658272,
      "is_ai": false,
      "track_id": 0,
      "velocity": 0,
      "is_motor": true,
      "motor_id": 0,
      "accel_val": 2000,
      "base_duration_us": 0
    },
    {
      "id": "M_618",
      "pitch": 52,
      "t_note_us": 67942071,
      "t_trigger_us": 67806108,
      "is_ai": false,
      "track_id": 0,
      "velocity": 0,
      "is_motor": true,
      "motor_id": 0,
      "accel_val": 2000,
      "base_duration_us": 0
    },
    {
      "id": "M_626",
      "pitch": 88,
      "t_note_us": 68088705,
      "t_trigger_us": 67952742,
      "is_ai": true,
      "track_id": 5,
      "velocity": 0,
      "is_motor": false,
      "motor_id": 0,
      "accel_val": 2000,
      "base_duration_us": 444710
    },
    {
      "id": "M_630",
      "pitch": 93,
      "t_note_us": 68088705,
      "t_trigger_us": 67952742,
      "is_ai": true,
      "track_id": 8,
      "velocity": 0,
      "is_motor": false,
      "motor_id": 0,
      "accel_val": 2000,
      "base_duration_us": 975958
    },
    {
      "id": "M_625",
      "pitch": 57,
      "t_note_us": 68088705,
      "t_trigger_us": 67952742,
      "is_ai": false,
      "track_id": 0,
      "velocity": 0,
      "is_motor": true,
      "motor_id": 0,
      "accel_val": 2000,
      "base_duration_us": 296874
    },
    {
      "id": "M_627",
      "pitch": 72,
      "t_note_us": 68088705,
      "t_trigger_us": 67952742,
      "is_ai": false,
      "track_id": 0,
      "velocity": 0,
      "is_motor": true,
      "motor_id": 1,
      "accel_val": 2000,
      "base_duration_us": 444710
    },
    {
      "id": "M_631",
      "pitch": 45,
      "t_note_us": 68088705,
      "t_trigger_us": 67952742,
      "is_ai": false,
      "track_id": 0,
      "velocity": 0,
      "is_motor": true,
      "motor_id": 2,
      "accel_val": 2000,
      "base_duration_us": 975958
    },
    {
      "id": "M_633",
      "pitch": 88,
      "t_note_us": 68533415,
      "t_trigger_us": 68397452,
      "is_ai": true,
      "track_id": 5,
      "velocity": 0,
      "is_motor": false,
      "motor_id": 0,
      "accel_val": 2000,
      "base_duration_us": 531248
    },
    {
      "id": "M_634",
      "pitch": 72,
      "t_note_us": 68533415,
      "t_trigger_us": 68397452,
      "is_ai": false,
      "track_id": 0,
      "velocity": 0,
      "is_motor": true,
      "motor_id": 1,
      "accel_val": 2000,
      "base_duration_us": 561296
    },
    {
      "id": "M_632",
      "pitch": 69,
      "t_note_us": 68681251,
      "t_trigger_us": 68545288,
      "is_ai": false,
      "track_id": 0,
      "velocity": 0,
      "is_motor": true,
      "motor_id": 0,
      "accel_val": 2000,
      "base_duration_us": 383412
    },
    {
      "id": "M_628",
      "pitch": 64,
      "t_note_us": 68827885,
      "t_trigger_us": 68691922,
      "is_ai": false,
      "track_id": 0,
      "velocity": 0,
      "is_motor": true,
      "motor_id": 3,
      "accel_val": 2000,
      "base_duration_us": 0
    },
    {
      "id": "M_639",
      "pitch": 98,
      "t_note_us": 68976923,
      "t_trigger_us": 68840960,
      "is_ai": true,
      "track_id": 11,
      "velocity": 0,
      "is_motor": false,
      "motor_id": 0,
      "accel_val": 2000,
      "base_duration_us": 1448312
    },
    {
      "id": "M_640",
      "pitch": 89,
      "t_note_us": 68976923,
      "t_trigger_us": 68840960,
      "is_ai": true,
      "track_id": 6,
      "velocity": 0,
      "is_motor": false,
      "motor_id": 0,
      "accel_val": 2000,
      "base_duration_us": 1448312
    },
    {
      "id": "M_629",
      "pitch": 57,
      "t_note_us": 68976923,
      "t_trigger_us": 68840960,
      "is_ai": false,
      "track_id": 0,
      "velocity": 0,
      "is_motor": true,
      "motor_id": 3,
      "accel_val": 2000,
      "base_duration_us": 0
    },
    {
      "id": "M_641",
      "pitch": 74,
      "t_note_us": 68976923,
      "t_trigger_us": 68840960,
      "is_ai": false,
      "track_id": 0,
      "velocity": 0,
      "is_motor": true,
      "motor_id": 0,
      "accel_val": 2000,
      "base_duration_us": 1448312
    },
    {
      "id": "M_635",
      "pitch": 60,
      "t_note_us": 69124759,
      "t_trigger_us": 68988796,
      "is_ai": false,
      "track_id": 0,
      "velocity": 0,
      "is_motor": true,
      "motor_id": 1,
      "accel_val": 2000,
      "base_duration_us": 442306
    },
    {
      "id": "M_644",
      "pitch": 48,
      "t_note_us": 69153605,
      "t_trigger_us": 69017642,
      "is_ai": false,
      "track_id": 0,
      "velocity": 0,
      "is_motor": true,
      "motor_id": 0,
      "accel_val": 2000,
      "base_duration_us": 1271630
    },
    {
      "id": "M_642",
      "pitch": 96,
      "t_note_us": 69420431,
      "t_trigger_us": 69284468,
      "is_ai": true,
      "track_id": 10,
      "velocity": 0,
      "is_motor": false,
      "motor_id": 0,
      "accel_val": 2000,
      "base_duration_us": 1004804
    },
    {
      "id": "M_643",
      "pitch": 88,
      "t_note_us": 69420431,
      "t_trigger_us": 69284468,
      "is_ai": true,
      "track_id": 5,
      "velocity": 0,
      "is_motor": false,
      "motor_id": 0,
      "accel_val": 2000,
      "base_duration_us": 1004804
    },
    {
      "id": "M_645",
      "pitch": 72,
      "t_note_us": 69420431,
      "t_trigger_us": 69284468,
      "is_ai": false,
      "track_id": 0,
      "velocity": 0,
      "is_motor": true,
      "motor_id": 2,
      "accel_val": 2000,
      "base_duration_us": 1034852
    },
    {
      "id": "M_638",
      "pitch": 72,
      "t_note_us": 69863939,
      "t_trigger_us": 69727976,
      "is_ai": false,
      "track_id": 0,
      "velocity": 0,
      "is_motor": true,
      "motor_id": 1,
      "accel_val": 2000,
      "base_duration_us": 561296
    },
    {
      "id": "M_636",
      "pitch": 67,
      "t_note_us": 70010573,
      "t_trigger_us": 69874610,
      "is_ai": false,
      "track_id": 0,
      "velocity": 0,
      "is_motor": true,
      "motor_id": 3,
      "accel_val": 2000,
      "base_duration_us": 0
    },
    {
      "id": "M_637",
      "pitch": 60,
      "t_note_us": 70159611,
      "t_trigger_us": 70023648,
      "is_ai": false,
      "track_id": 0,
      "velocity": 0,
      "is_motor": true,
      "motor_id": 3,
      "accel_val": 2000,
      "base_duration_us": 0
    },
    {
      "id": "M_655",
      "pitch": 93,
      "t_note_us": 70455283,
      "t_trigger_us": 70319320,
      "is_ai": true,
      "track_id": 8,
      "velocity": 0,
      "is_motor": false,
      "motor_id": 0,
      "accel_val": 2000,
      "base_duration_us": 1034852
    },
    {
      "id": "M_656",
      "pitch": 53,
      "t_note_us": 70455283,
      "t_trigger_us": 70319320,
      "is_ai": false,
      "track_id": 0,
      "velocity": 0,
      "is_motor": true,
      "motor_id": 0,
      "accel_val": 2000,
      "base_duration_us": 1034852
    },
    {
      "id": "M_646",
      "pitch": 98,
      "t_note_us": 70749753,
      "t_trigger_us": 70613790,
      "is_ai": true,
      "track_id": 11,
      "velocity": 0,
      "is_motor": false,
      "motor_id": 0,
      "accel_val": 2000,
      "base_duration_us": 0
    },
    {
      "id": "M_654",
      "pitch": 65,
      "t_note_us": 70779801,
      "t_trigger_us": 70643838,
      "is_ai": false,
      "track_id": 0,
      "velocity": 0,
      "is_motor": true,
      "motor_id": 1,
      "accel_val": 2000,
      "base_duration_us": 710334
    },
    {
      "id": "M_647",
      "pitch": 98,
      "t_note_us": 70898791,
      "t_trigger_us": 70762828,
      "is_ai": true,
      "track_id": 11,
      "velocity": 0,
      "is_motor": false,
      "motor_id": 0,
      "accel_val": 2000,
      "base_duration_us": 0
    },
    {
      "id": "M_648",
      "pitch": 89,
      "t_note_us": 70898791,
      "t_trigger_us": 70762828,
      "is_ai": true,
      "track_id": 6,
      "velocity": 0,
      "is_motor": false,
      "motor_id": 0,
      "accel_val": 2000,
      "base_duration_us": 0
    },
    {
      "id": "M_652",
      "pitch": 69,
      "t_note_us": 70927637,
      "t_trigger_us": 70791674,
      "is_ai": false,
      "track_id": 0,
      "velocity": 0,
      "is_motor": true,
      "motor_id": 2,
      "accel_val": 2000,
      "base_duration_us": 562498
    },
    {
      "id": "M_653",
      "pitch": 72,
      "t_note_us": 71045425,
      "t_trigger_us": 70909462,
      "is_ai": false,
      "track_id": 0,
      "velocity": 0,
      "is_motor": true,
      "motor_id": 3,
      "accel_val": 2000,
      "base_duration_us": 444710
    },
    {
      "id": "M_649",
      "pitch": 89,
      "t_note_us": 71223309,
      "t_trigger_us": 71087346,
      "is_ai": true,
      "track_id": 6,
      "velocity": 0,
      "is_motor": false,
      "motor_id": 0,
      "accel_val": 2000,
      "base_duration_us": 0
    },
    {
      "id": "M_650",
      "pitch": 96,
      "t_note_us": 71223309,
      "t_trigger_us": 71087346,
      "is_ai": true,
      "track_id": 10,
      "velocity": 0,
      "is_motor": false,
      "motor_id": 0,
      "accel_val": 2000,
      "base_duration_us": 266826
    },
    {
      "id": "M_651",
      "pitch": 77,
      "t_note_us": 71223309,
      "t_trigger_us": 71087346,
      "is_ai": false,
      "track_id": 0,
      "velocity": 0,
      "is_motor": true,
      "motor_id": 0,
      "accel_val": 2000,
      "base_duration_us": 266826
    },
    {
      "id": "M_658",
      "pitch": 98,
      "t_note_us": 71518981,
      "t_trigger_us": 71383018,
      "is_ai": true,
      "track_id": 11,
      "velocity": 0,
      "is_motor": false,
      "motor_id": 0,
      "accel_val": 2000,
      "base_duration_us": 147836
    },
    {
      "id": "M_657",
      "pitch": 62,
      "t_note_us": 71518981,
      "t_trigger_us": 71383018,
      "is_ai": false,
      "track_id": 0,
      "velocity": 0,
      "is_motor": true,
      "motor_id": 1,
      "accel_val": 2000,
      "base_duration_us": 58894
    },
    {
      "id": "M_659",
      "pitch": 67,
      "t_note_us": 71518981,
      "t_trigger_us": 71383018,
      "is_ai": false,
      "track_id": 0,
      "velocity": 0,
      "is_motor": true,
      "motor_id": 2,
      "accel_val": 2000,
      "base_duration_us": 147836
    },
    {
      "id": "M_660",
      "pitch": 55,
      "t_note_us": 71518981,
      "t_trigger_us": 71383018,
      "is_ai": false,
      "track_id": 0,
      "velocity": 0,
      "is_motor": true,
      "motor_id": 0,
      "accel_val": 2000,
      "base_duration_us": 177884
    },
    {
      "id": "M_661",
      "pitch": 91,
      "t_note_us": 71814653,
      "t_trigger_us": 71678690,
      "is_ai": true,
      "track_id": 7,
      "velocity": 0,
      "is_motor": false,
      "motor_id": 0,
      "accel_val": 2000,
      "base_duration_us": 0
    },
    {
      "id": "M_666",
      "pitch": 100,
      "t_note_us": 71814653,
      "t_trigger_us": 71678690,
      "is_ai": true,
      "track_id": 12,
      "velocity": 0,
      "is_motor": false,
      "motor_id": 0,
      "accel_val": 2000,
      "base_duration_us": 680286
    },
    {
      "id": "M_662",
      "pitch": 55,
      "t_note_us": 72110325,
      "t_trigger_us": 71974362,
      "is_ai": false,
      "track_id": 0,
      "velocity": 0,
      "is_motor": true,
      "motor_id": 0,
      "accel_val": 2000,
      "base_duration_us": 0
    },
    {
      "id": "M_667",
      "pitch": 98,
      "t_note_us": 72258161,
      "t_trigger_us": 72122198,
      "is_ai": true,
      "track_id": 11,
      "velocity": 0,
      "is_motor": false,
      "motor_id": 0,
      "accel_val": 2000,
      "base_duration_us": 295672
    },
    {
      "id": "M_663",
      "pitch": 62,
      "t_note_us": 72258161,
      "t_trigger_us": 72122198,
      "is_ai": false,
      "track_id": 0,
      "velocity": 0,
      "is_motor": true,
      "motor_id": 1,
      "accel_val": 2000,
      "base_duration_us": 0
    },
    {
      "id": "M_664",
      "pitch": 55,
      "t_note_us": 72405997,
      "t_trigger_us": 72270034,
      "is_ai": false,
      "track_id": 0,
      "velocity": 0,
      "is_motor": true,
      "motor_id": 0,
      "accel_val": 2000,
      "base_duration_us": 0
    },
    {
      "id": "M_665",
      "pitch": 67,
      "t_note_us": 72405997,
      "t_trigger_us": 72270034,
      "is_ai": false,
      "track_id": 0,
      "velocity": 0,
      "is_motor": true,
      "motor_id": 1,
      "accel_val": 2000,
      "base_duration_us": 0
    },
    {
      "id": "M_668",
      "pitch": 91,
      "t_note_us": 72553833,
      "t_trigger_us": 72417870,
      "is_ai": true,
      "track_id": 7,
      "velocity": 0,
      "is_motor": false,
      "motor_id": 0,
      "accel_val": 2000,
      "base_duration_us": 0
    },
    {
      "id": "M_669",
      "pitch": 96,
      "t_note_us": 72553833,
      "t_trigger_us": 72417870,
      "is_ai": true,
      "track_id": 10,
      "velocity": 0,
      "is_motor": false,
      "motor_id": 0,
      "accel_val": 2000,
      "base_duration_us": 266826
    },
    {
      "id": "M_670",
      "pitch": 56,
      "t_note_us": 72553833,
      "t_trigger_us": 72417870,
      "is_ai": false,
      "track_id": 0,
      "velocity": 0,
      "is_motor": true,
      "motor_id": 0,
      "accel_val": 2000,
      "base_duration_us": 266826
    },
    {
      "id": "M_671",
      "pitch": 68,
      "t_note_us": 72553833,
      "t_trigger_us": 72417870,
      "is_ai": false,
      "track_id": 0,
      "velocity": 0,
      "is_motor": true,
      "motor_id": 1,
      "accel_val": 2000,
      "base_duration_us": 295672
    },
    {
      "id": "M_676",
      "pitch": 93,
      "t_note_us": 72849505,
      "t_trigger_us": 72713542,
      "is_ai": true,
      "track_id": 8,
      "velocity": 0,
      "is_motor": false,
      "motor_id": 0,
      "accel_val": 2000,
      "base_duration_us": 443508
    },
    {
      "id": "M_677",
      "pitch": 69,
      "t_note_us": 72849505,
      "t_trigger_us": 72713542,
      "is_ai": false,
      "track_id": 0,
      "velocity": 0,
      "is_motor": true,
      "motor_id": 1,
      "accel_val": 2000,
      "base_duration_us": 443508
    },
    {
      "id": "M_678",
      "pitch": 57,
      "t_note_us": 72849505,
      "t_trigger_us": 72713542,
      "is_ai": false,
      "track_id": 0,
      "velocity": 0,
      "is_motor": true,
      "motor_id": 0,
      "accel_val": 2000,
      "base_duration_us": 443508
    },
    {
      "id": "M_673",
      "pitch": 64,
      "t_note_us": 72997341,
      "t_trigger_us": 72861378,
      "is_ai": false,
      "track_id": 0,
      "velocity": 0,
      "is_motor": true,
      "motor_id": 2,
      "accel_val": 2000,
      "base_duration_us": 295672
    },
    {
      "id": "M_672",
      "pitch": 98,
      "t_note_us": 73145177,
      "t_trigger_us": 73009214,
      "is_ai": true,
      "track_id": 11,
      "velocity": 0,
      "is_motor": false,
      "motor_id": 0,
      "accel_val": 2000,
      "base_duration_us": 0
    },
    {
      "id": "M_674",
      "pitch": 98,
      "t_note_us": 73293013,
      "t_trigger_us": 73157050,
      "is_ai": true,
      "track_id": 11,
      "velocity": 0,
      "is_motor": false,
      "motor_id": 0,
      "accel_val": 2000,
      "base_duration_us": 0
    },
    {
      "id": "M_675",
      "pitch": 88,
      "t_note_us": 73293013,
      "t_trigger_us": 73157050,
      "is_ai": true,
      "track_id": 5,
      "velocity": 0,
      "is_motor": false,
      "motor_id": 0,
      "accel_val": 2000,
      "base_duration_us": 0
    },
    {
      "id": "M_683",
      "pitch": 92,
      "t_note_us": 73293013,
      "t_trigger_us": 73157050,
      "is_ai": true,
      "track_id": 0,
      "velocity": 0,
      "is_motor": true,
      "motor_id": 3,
      "accel_val": 2000,
      "base_duration_us": 502402
    },
    {
      "id": "M_681",
      "pitch": 56,
      "t_note_us": 73323061,
      "t_trigger_us": 73187098,
      "is_ai": false,
      "track_id": 0,
      "velocity": 0,
      "is_motor": true,
      "motor_id": 0,
      "accel_val": 2000,
      "base_duration_us": 265624
    },
    {
      "id": "M_682",
      "pitch": 63,
      "t_note_us": 73442051,
      "t_trigger_us": 73306088,
      "is_ai": false,
      "track_id": 0,
      "velocity": 0,
      "is_motor": true,
      "motor_id": 1,
      "accel_val": 2000,
      "base_duration_us": 176682
    },
    {
      "id": "M_679",
      "pitch": 88,
      "t_note_us": 73588685,
      "t_trigger_us": 73452722,
      "is_ai": true,
      "track_id": 5,
      "velocity": 0,
      "is_motor": false,
      "motor_id": 0,
      "accel_val": 2000,
      "base_duration_us": 0
    },
    {
      "id": "M_684",
      "pitch": 96,
      "t_note_us": 73588685,
      "t_trigger_us": 73452722,
      "is_ai": true,
      "track_id": 10,
      "velocity": 0,
      "is_motor": false,
      "motor_id": 0,
      "accel_val": 2000,
      "base_duration_us": 236778
    },
    {
      "id": "M_680",
      "pitch": 68,
      "t_note_us": 73588685,
      "t_trigger_us": 73452722,
      "is_ai": false,
      "track_id": 0,
      "velocity": 0,
      "is_motor": true,
      "motor_id": 2,
      "accel_val": 2000,
      "base_duration_us": 0
    },
    {
      "id": "M_685",
      "pitch": 55,
      "t_note_us": 73736521,
      "t_trigger_us": 73600558,
      "is_ai": false,
      "track_id": 0,
      "velocity": 0,
      "is_motor": true,
      "motor_id": 0,
      "accel_val": 2000,
      "base_duration_us": 147836
    },
    {
      "id": "M_686",
      "pitch": 88,
      "t_note_us": 73884357,
      "t_trigger_us": 73748394,
      "is_ai": true,
      "track_id": 5,
      "velocity": 0,
      "is_motor": false,
      "motor_id": 0,
      "accel_val": 2000,
      "base_duration_us": 147836
    },
    {
      "id": "M_688",
      "pitch": 98,
      "t_note_us": 73884357,
      "t_trigger_us": 73748394,
      "is_ai": true,
      "track_id": 11,
      "velocity": 0,
      "is_motor": false,
      "motor_id": 0,
      "accel_val": 2000,
      "base_duration_us": 621392
    },
    {
      "id": "M_689",
      "pitch": 91,
      "t_note_us": 73884357,
      "t_trigger_us": 73748394,
      "is_ai": true,
      "track_id": 7,
      "velocity": 0,
      "is_motor": false,
      "motor_id": 0,
      "accel_val": 2000,
      "base_duration_us": 621392
    },
    {
      "id": "M_690",
      "pitch": 88,
      "t_note_us": 74181231,
      "t_trigger_us": 74045268,
      "is_ai": true,
      "track_id": 5,
      "velocity": 0,
      "is_motor": false,
      "motor_id": 0,
      "accel_val": 2000,
      "base_duration_us": 324518
    },
    {
      "id": "M_687",
      "pitch": 67,
      "t_note_us": 74181231,
      "t_trigger_us": 74045268,
      "is_ai": false,
      "track_id": 0,
      "velocity": 0,
      "is_motor": true,
      "motor_id": 1,
      "accel_val": 2000,
      "base_duration_us": 0
    },
    {
      "id": "M_691",
      "pitch": 62,
      "t_note_us": 74181231,
      "t_trigger_us": 74045268,
      "is_ai": false,
      "track_id": 0,
      "velocity": 0,
      "is_motor": true,
      "motor_id": 0,
      "accel_val": 2000,
      "base_duration_us": 324518
    },
    {
      "id": "M_692",
      "pitch": 55,
      "t_note_us": 74181231,
      "t_trigger_us": 74045268,
      "is_ai": false,
      "track_id": 0,
      "velocity": 0,
      "is_motor": true,
      "motor_id": 2,
      "accel_val": 2000,
      "base_duration_us": 324518
    },
    {
      "id": "M_693",
      "pitch": 100,
      "t_note_us": 74210077,
      "t_trigger_us": 74074114,
      "is_ai": true,
      "track_id": 12,
      "velocity": 0,
      "is_motor": false,
      "motor_id": 0,
      "accel_val": 2000,
      "base_duration_us": 324518
    },
    {
      "id": "M_697",
      "pitch": 54,
      "t_note_us": 74505749,
      "t_trigger_us": 74369786,
      "is_ai": false,
      "track_id": 0,
      "velocity": 0,
      "is_motor": true,
      "motor_id": 0,
      "accel_val": 2000,
      "base_duration_us": 680286
    },
    {
      "id": "M_694",
      "pitch": 91,
      "t_note_us": 74801421,
      "t_trigger_us": 74665458,
      "is_ai": true,
      "track_id": 7,
      "velocity": 0,
      "is_motor": false,
      "motor_id": 0,
      "accel_val": 2000,
      "base_duration_us": 0
    },
    {
      "id": "M_695",
      "pitch": 66,
      "t_note_us": 74948055,
      "t_trigger_us": 74812092,
      "is_ai": false,
      "track_id": 0,
      "velocity": 0,
      "is_motor": true,
      "motor_id": 1,
      "accel_val": 2000,
      "base_duration_us": 0
    },
    {
      "id": "M_696",
      "pitch": 91,
      "t_note_us": 75097093,
      "t_trigger_us": 74961130,
      "is_ai": true,
      "track_id": 7,
      "velocity": 0,
      "is_motor": false,
      "motor_id": 0,
      "accel_val": 2000,
      "base_duration_us": 0
    },
    {
      "id": "M_698",
      "pitch": 60,
      "t_note_us": 75097093,
      "t_trigger_us": 74961130,
      "is_ai": false,
      "track_id": 0,
      "velocity": 0,
      "is_motor": true,
      "motor_id": 1,
      "accel_val": 2000,
      "base_duration_us": 147836
    },
    {
      "id": "M_702",
      "pitch": 93,
      "t_note_us": 75244929,
      "t_trigger_us": 75108966,
      "is_ai": true,
      "track_id": 8,
      "velocity": 0,
      "is_motor": false,
      "motor_id": 0,
      "accel_val": 2000,
      "base_duration_us": 1004804
    },
    {
      "id": "M_700",
      "pitch": 72,
      "t_note_us": 75244929,
      "t_trigger_us": 75108966,
      "is_ai": false,
      "track_id": 0,
      "velocity": 0,
      "is_motor": true,
      "motor_id": 1,
      "accel_val": 2000,
      "base_duration_us": 442306
    },
    {
      "id": "M_703",
      "pitch": 53,
      "t_note_us": 75244929,
      "t_trigger_us": 75108966,
      "is_ai": false,
      "track_id": 0,
      "velocity": 0,
      "is_motor": true,
      "motor_id": 0,
      "accel_val": 2000,
      "base_duration_us": 1004804
    },
    {
      "id": "M_699",
      "pitch": 65,
      "t_note_us": 75540601,
      "t_trigger_us": 75404638,
      "is_ai": false,
      "track_id": 0,
      "velocity": 0,
      "is_motor": true,
      "motor_id": 2,
      "accel_val": 2000,
      "base_duration_us": 0
    },
    {
      "id": "M_704",
      "pitch": 96,
      "t_note_us": 75687235,
      "t_trigger_us": 75551272,
      "is_ai": true,
      "track_id": 10,
      "velocity": 0,
      "is_motor": false,
      "motor_id": 0,
      "accel_val": 2000,
      "base_duration_us": 562498
    },
    {
      "id": "M_705",
      "pitch": 72,
      "t_note_us": 75687235,
      "t_trigger_us": 75551272,
      "is_ai": false,
      "track_id": 0,
      "velocity": 0,
      "is_motor": true,
      "motor_id": 1,
      "accel_val": 2000,
      "base_duration_us": 562498
    },
    {
      "id": "M_706",
      "pitch": 69,
      "t_note_us": 75687235,
      "t_trigger_us": 75551272,
      "is_ai": false,
      "track_id": 0,
      "velocity": 0,
      "is_motor": true,
      "motor_id": 2,
      "accel_val": 2000,
      "base_duration_us": 562498
    },
    {
      "id": "M_701",
      "pitch": 72,
      "t_note_us": 75836273,
      "t_trigger_us": 75700310,
      "is_ai": false,
      "track_id": 0,
      "velocity": 0,
      "is_motor": true,
      "motor_id": 3,
      "accel_val": 2000,
      "base_duration_us": 413460
    },
    {
      "id": "M_707",
      "pitch": 77,
      "t_note_us": 75984109,
      "t_trigger_us": 75848146,
      "is_ai": false,
      "track_id": 0,
      "velocity": 0,
      "is_motor": true,
      "motor_id": 0,
      "accel_val": 2000,
      "base_duration_us": 265624
    },
    {
      "id": "M_708",
      "pitch": 88,
      "t_note_us": 76131945,
      "t_trigger_us": 75995982,
      "is_ai": true,
      "track_id": 5,
      "velocity": 0,
      "is_motor": false,
      "motor_id": 0,
      "accel_val": 2000,
      "base_duration_us": 443508
    },
    {
      "id": "M_717",
      "pitch": 95,
      "t_note_us": 76131945,
      "t_trigger_us": 75995982,
      "is_ai": true,
      "track_id": 9,
      "velocity": 0,
      "is_motor": false,
      "motor_id": 0,
      "accel_val": 2000,
      "base_duration_us": 1448312
    },
    {
      "id": "M_720",
      "pitch": 59,
      "t_note_us": 76279781,
      "t_trigger_us": 76143818,
      "is_ai": false,
      "track_id": 0,
      "velocity": 0,
      "is_motor": true,
      "motor_id": 0,
      "accel_val": 2000,
      "base_duration_us": 1300476
    },
    {
      "id": "M_719",
      "pitch": 93,
      "t_note_us": 76575453,
      "t_trigger_us": 76439490,
      "is_ai": true,
      "track_id": 8,
      "velocity": 0,
      "is_motor": false,
      "motor_id": 0,
      "accel_val": 2000,
      "base_duration_us": 1004804
    },
    {
      "id": "M_709",
      "pitch": 64,
      "t_note_us": 76723289,
      "t_trigger_us": 76587326,
      "is_ai": false,
      "track_id": 0,
      "velocity": 0,
      "is_motor": true,
      "motor_id": 1,
      "accel_val": 2000,
      "base_duration_us": 0
    },
    {
      "id": "M_718",
      "pitch": 68,
      "t_note_us": 76871125,
      "t_trigger_us": 76735162,
      "is_ai": false,
      "track_id": 0,
      "velocity": 0,
      "is_motor": true,
      "motor_id": 1,
      "accel_val": 2000,
      "base_duration_us": 709132
    },
    {
      "id": "M_710",
      "pitch": 92,
      "t_note_us": 77018961,
      "t_trigger_us": 76882998,
      "is_ai": true,
      "track_id": 0,
      "velocity": 0,
      "is_motor": true,
      "motor_id": 3,
      "accel_val": 2000,
      "base_duration_us": 0
    },
    {
      "id": "M_711",
      "pitch": 88,
      "t_note_us": 77018961,
      "t_trigger_us": 76882998,
      "is_ai": true,
      "track_id": 5,
      "velocity": 0,
      "is_motor": false,
      "motor_id": 0,
      "accel_val": 2000,
      "base_duration_us": 0
    },
    {
      "id": "M_716",
      "pitch": 71,
      "t_note_us": 77018961,
      "t_trigger_us": 76882998,
      "is_ai": false,
      "track_id": 0,
      "velocity": 0,
      "is_motor": true,
      "motor_id": 2,
      "accel_val": 2000,
      "base_duration_us": 561296
    },
    {
      "id": "M_712",
      "pitch": 92,
      "t_note_us": 77314633,
      "t_trigger_us": 77178670,
      "is_ai": true,
      "track_id": 0,
      "velocity": 0,
      "is_motor": true,
      "motor_id": 3,
      "accel_val": 2000,
      "base_duration_us": 0
    },
    {
      "id": "M_713",
      "pitch": 88,
      "t_note_us": 77314633,
      "t_trigger_us": 77178670,
      "is_ai": true,
      "track_id": 5,
      "velocity": 0,
      "is_motor": false,
      "motor_id": 0,
      "accel_val": 2000,
      "base_duration_us": 0
    },
    {
      "id": "M_714",
      "pitch": 64,
      "t_note_us": 77314633,
      "t_trigger_us": 77178670,
      "is_ai": false,
      "track_id": 0,
      "velocity": 0,
      "is_motor": true,
      "motor_id": 0,
      "accel_val": 2000,
      "base_duration_us": 0
    },
    {
      "id": "M_715",
      "pitch": 52,
      "t_note_us": 77491315,
      "t_trigger_us": 77355352,
      "is_ai": false,
      "track_id": 0,
      "velocity": 0,
      "is_motor": true,
      "motor_id": 3,
      "accel_val": 2000,
      "base_duration_us": 0
    },
    {
      "id": "M_725",
      "pitch": 88,
      "t_note_us": 77610305,
      "t_trigger_us": 77474342,
      "is_ai": true,
      "track_id": 5,
      "velocity": 0,
      "is_motor": false,
      "motor_id": 0,
      "accel_val": 2000,
      "base_duration_us": 1004804
    },
    {
      "id": "M_722",
      "pitch": 72,
      "t_note_us": 77610305,
      "t_trigger_us": 77474342,
      "is_ai": false,
      "track_id": 0,
      "velocity": 0,
      "is_motor": true,
      "motor_id": 1,
      "accel_val": 2000,
      "base_duration_us": 443508
    },
    {
      "id": "M_728",
      "pitch": 45,
      "t_note_us": 77640353,
      "t_trigger_us": 77504390,
      "is_ai": false,
      "track_id": 0,
      "velocity": 0,
      "is_motor": true,
      "motor_id": 0,
      "accel_val": 2000,
      "base_duration_us": 1033650
    },
    {
      "id": "M_721",
      "pitch": 57,
      "t_note_us": 77905977,
      "t_trigger_us": 77770014,
      "is_ai": false,
      "track_id": 0,
      "velocity": 0,
      "is_motor": true,
      "motor_id": 2,
      "accel_val": 2000,
      "base_duration_us": 0
    },
    {
      "id": "M_726",
      "pitch": 96,
      "t_note_us": 78053813,
      "t_trigger_us": 77917850,
      "is_ai": true,
      "track_id": 10,
      "velocity": 0,
      "is_motor": false,
      "motor_id": 0,
      "accel_val": 2000,
      "base_duration_us": 590142
    },
    {
      "id": "M_727",
      "pitch": 69,
      "t_note_us": 78230495,
      "t_trigger_us": 78094532,
      "is_ai": false,
      "track_id": 0,
      "velocity": 0,
      "is_motor": true,
      "motor_id": 1,
      "accel_val": 2000,
      "base_duration_us": 443508
    },
    {
      "id": "M_723",
      "pitch": 64,
      "t_note_us": 78349485,
      "t_trigger_us": 78213522,
      "is_ai": false,
      "track_id": 0,
      "velocity": 0,
      "is_motor": true,
      "motor_id": 2,
      "accel_val": 2000,
      "base_duration_us": 0
    },
    {
      "id": "M_729",
      "pitch": 90,
      "t_note_us": 78526167,
      "t_trigger_us": 78390204,
      "is_ai": true,
      "track_id": 0,
      "velocity": 0,
      "is_motor": true,
      "motor_id": 3,
      "accel_val": 2000,
      "base_duration_us": 443508
    },
    {
      "id": "M_733",
      "pitch": 98,
      "t_note_us": 78526167,
      "t_trigger_us": 78390204,
      "is_ai": true,
      "track_id": 11,
      "velocity": 0,
      "is_motor": false,
      "motor_id": 0,
      "accel_val": 2000,
      "base_duration_us": 1478360
    },
    {
      "id": "M_724",
      "pitch": 57,
      "t_note_us": 78526167,
      "t_trigger_us": 78390204,
      "is_ai": false,
      "track_id": 0,
      "velocity": 0,
      "is_motor": true,
      "motor_id": 2,
      "accel_val": 2000,
      "base_duration_us": 0
    },
    {
      "id": "M_734",
      "pitch": 74,
      "t_note_us": 78526167,
      "t_trigger_us": 78390204,
      "is_ai": false,
      "track_id": 0,
      "velocity": 0,
      "is_motor": true,
      "motor_id": 0,
      "accel_val": 2000,
      "base_duration_us": 1478360
    },
    {
      "id": "M_732",
      "pitch": 62,
      "t_note_us": 78674003,
      "t_trigger_us": 78538040,
      "is_ai": false,
      "track_id": 0,
      "velocity": 0,
      "is_motor": true,
      "motor_id": 1,
      "accel_val": 2000,
      "base_duration_us": 1034852
    },
    {
      "id": "M_736",
      "pitch": 50,
      "t_note_us": 78674003,
      "t_trigger_us": 78538040,
      "is_ai": false,
      "track_id": 0,
      "velocity": 0,
      "is_motor": true,
      "motor_id": 0,
      "accel_val": 2000,
      "base_duration_us": 1330524
    },
    {
      "id": "M_735",
      "pitch": 90,
      "t_note_us": 78969675,
      "t_trigger_us": 78833712,
      "is_ai": true,
      "track_id": 0,
      "velocity": 0,
      "is_motor": true,
      "motor_id": 3,
      "accel_val": 2000,
      "base_duration_us": 1034852
    },
    {
      "id": "M_742",
      "pitch": 96,
      "t_note_us": 78969675,
      "t_trigger_us": 78833712,
      "is_ai": true,
      "track_id": 10,
      "velocity": 0,
      "is_motor": false,
      "motor_id": 0,
      "accel_val": 2000,
      "base_duration_us": 1390620
    },
    {
      "id": "M_730",
      "pitch": 72,
      "t_note_us": 78969675,
      "t_trigger_us": 78833712,
      "is_ai": false,
      "track_id": 0,
      "velocity": 0,
      "is_motor": true,
      "motor_id": 2,
      "accel_val": 2000,
      "base_duration_us": 0
    },
    {
      "id": "M_731",
      "pitch": 66,
      "t_note_us": 79265347,
      "t_trigger_us": 79129384,
      "is_ai": false,
      "track_id": 0,
      "velocity": 0,
      "is_motor": true,
      "motor_id": 2,
      "accel_val": 2000,
      "base_duration_us": 296874
    },
    {
      "id": "M_739",
      "pitch": 74,
      "t_note_us": 79413183,
      "t_trigger_us": 79277220,
      "is_ai": false,
      "track_id": 0,
      "velocity": 0,
      "is_motor": true,
      "motor_id": 0,
      "accel_val": 2000,
      "base_duration_us": 591344
    },
    {
      "id": "M_740",
      "pitch": 69,
      "t_note_us": 79413183,
      "t_trigger_us": 79277220,
      "is_ai": false,
      "track_id": 0,
      "velocity": 0,
      "is_motor": true,
      "motor_id": 0,
      "accel_val": 2000,
      "base_duration_us": 591344
    },
    {
      "id": "M_737",
      "pitch": 66,
      "t_note_us": 79562221,
      "t_trigger_us": 79426258,
      "is_ai": false,
      "track_id": 0,
      "velocity": 0,
      "is_motor": true,
      "motor_id": 2,
      "accel_val": 2000,
      "base_duration_us": 442306
    },
    {
      "id": "M_743",
      "pitch": 89,
      "t_note_us": 80004527,
      "t_trigger_us": 79868564,
      "is_ai": true,
      "track_id": 6,
      "velocity": 0,
      "is_motor": false,
      "motor_id": 0,
      "accel_val": 2000,
      "base_duration_us": 355768
    },
    {
      "id": "M_745",
      "pitch": 100,
      "t_note_us": 80004527,
      "t_trigger_us": 79868564,
      "is_ai": true,
      "track_id": 12,
      "velocity": 0,
      "is_motor": false,
      "motor_id": 0,
      "accel_val": 2000,
      "base_duration_us": 384614
    },
    {
      "id": "M_752",
      "pitch": 93,
      "t_note_us": 80004527,
      "t_trigger_us": 79868564,
      "is_ai": true,
      "track_id": 8,
      "velocity": 0,
      "is_motor": false,
      "motor_id": 0,
      "accel_val": 2000,
      "base_duration_us": 829324
    },
    {
      "id": "M_738",
      "pitch": 62,
      "t_note_us": 80004527,
      "t_trigger_us": 79868564,
      "is_ai": false,
      "track_id": 0,
      "velocity": 0,
      "is_motor": true,
      "motor_id": 1,
      "accel_val": 2000,
      "base_duration_us": 0
    },
    {
      "id": "M_744",
      "pitch": 50,
      "t_note_us": 80004527,
      "t_trigger_us": 79868564,
      "is_ai": false,
      "track_id": 0,
      "velocity": 0,
      "is_motor": true,
      "motor_id": 0,
      "accel_val": 2000,
      "base_duration_us": 355768
    },
    {
      "id": "M_741",
      "pitch": 57,
      "t_note_us": 80152363,
      "t_trigger_us": 80016400,
      "is_ai": false,
      "track_id": 0,
      "velocity": 0,
      "is_motor": true,
      "motor_id": 1,
      "accel_val": 2000,
      "base_duration_us": 207932
    },
    {
      "id": "M_746",
      "pitch": 62,
      "t_note_us": 80301401,
      "t_trigger_us": 80165438,
      "is_ai": false,
      "track_id": 0,
      "velocity": 0,
      "is_motor": true,
      "motor_id": 2,
      "accel_val": 2000,
      "base_duration_us": 87740
    },
    {
      "id": "M_750",
      "pitch": 91,
      "t_note_us": 80448035,
      "t_trigger_us": 80312072,
      "is_ai": true,
      "track_id": 7,
      "velocity": 0,
      "is_motor": false,
      "motor_id": 0,
      "accel_val": 2000,
      "base_duration_us": 385816
    },
    {
      "id": "M_751",
      "pitch": 88,
      "t_note_us": 80448035,
      "t_trigger_us": 80312072,
      "is_ai": true,
      "track_id": 5,
      "velocity": 0,
      "is_motor": false,
      "motor_id": 0,
      "accel_val": 2000,
      "base_duration_us": 385816
    },
    {
      "id": "M_753",
      "pitch": 98,
      "t_note_us": 80448035,
      "t_trigger_us": 80312072,
      "is_ai": true,
      "track_id": 11,
      "velocity": 0,
      "is_motor": false,
      "motor_id": 0,
      "accel_val": 2000,
      "base_duration_us": 473556
    },
    {
      "id": "M_748",
      "pitch": 52,
      "t_note_us": 80448035,
      "t_trigger_us": 80312072,
      "is_ai": false,
      "track_id": 0,
      "velocity": 0,
      "is_motor": true,
      "motor_id": 0,
      "accel_val": 2000,
      "base_duration_us": 355768
    },
    {
      "id": "M_749",
      "pitch": 59,
      "t_note_us": 80595871,
      "t_trigger_us": 80459908,
      "is_ai": false,
      "track_id": 0,
      "velocity": 0,
      "is_motor": true,
      "motor_id": 1,
      "accel_val": 2000,
      "base_duration_us": 207932
    },
    {
      "id": "M_747",
      "pitch": 64,
      "t_note_us": 80743707,
      "t_trigger_us": 80607744,
      "is_ai": false,
      "track_id": 0,
      "velocity": 0,
      "is_motor": true,
      "motor_id": 2,
      "accel_val": 2000,
      "base_duration_us": 0
    },
    {
      "id": "M_755",
      "pitch": 101,
      "t_note_us": 80891543,
      "t_trigger_us": 80755580,
      "is_ai": true,
      "track_id": 13,
      "velocity": 0,
      "is_motor": false,
      "motor_id": 0,
      "accel_val": 2000,
      "base_duration_us": 355768
    },
    {
      "id": "M_756",
      "pitch": 93,
      "t_note_us": 80891543,
      "t_trigger_us": 80755580,
      "is_ai": true,
      "track_id": 8,
      "velocity": 0,
      "is_motor": false,
      "motor_id": 0,
      "accel_val": 2000,
      "base_duration_us": 355768
    },
    {
      "id": "M_757",
      "pitch": 89,
      "t_note_us": 80891543,
      "t_trigger_us": 80755580,
      "is_ai": true,
      "track_id": 6,
      "velocity": 0,
      "is_motor": false,
      "motor_id": 0,
      "accel_val": 2000,
      "base_duration_us": 355768
    },
    {
      "id": "M_758",
      "pitch": 65,
      "t_note_us": 80891543,
      "t_trigger_us": 80755580,
      "is_ai": false,
      "track_id": 0,
      "velocity": 0,
      "is_motor": true,
      "motor_id": 1,
      "accel_val": 2000,
      "base_duration_us": 355768
    },
    {
      "id": "M_759",
      "pitch": 53,
      "t_note_us": 80891543,
      "t_trigger_us": 80755580,
      "is_ai": false,
      "track_id": 0,
      "velocity": 0,
      "is_motor": true,
      "motor_id": 0,
      "accel_val": 2000,
      "base_duration_us": 355768
    },
    {
      "id": "M_754",
      "pitch": 60,
      "t_note_us": 81040581,
      "t_trigger_us": 80904618,
      "is_ai": false,
      "track_id": 0,
      "velocity": 0,
      "is_motor": true,
      "motor_id": 2,
      "accel_val": 2000,
      "base_duration_us": 206730
    },
    {
      "id": "M_761",
      "pitch": 100,
      "t_note_us": 81336253,
      "t_trigger_us": 81200290,
      "is_ai": true,
      "track_id": 12,
      "velocity": 0,
      "is_motor": false,
      "motor_id": 0,
      "accel_val": 2000,
      "base_duration_us": 561296
    },
    {
      "id": "M_762",
      "pitch": 88,
      "t_note_us": 81336253,
      "t_trigger_us": 81200290,
      "is_ai": true,
      "track_id": 5,
      "velocity": 0,
      "is_motor": false,
      "motor_id": 0,
      "accel_val": 2000,
      "base_duration_us": 561296
    },
    {
      "id": "M_763",
      "pitch": 67,
      "t_note_us": 81336253,
      "t_trigger_us": 81200290,
      "is_ai": false,
      "track_id": 0,
      "velocity": 0,
      "is_motor": true,
      "motor_id": 1,
      "accel_val": 2000,
      "base_duration_us": 561296
    },
    {
      "id": "M_764",
      "pitch": 55,
      "t_note_us": 81336253,
      "t_trigger_us": 81200290,
      "is_ai": false,
      "track_id": 0,
      "velocity": 0,
      "is_motor": true,
      "motor_id": 0,
      "accel_val": 2000,
      "base_duration_us": 561296
    },
    {
      "id": "M_760",
      "pitch": 43,
      "t_note_us": 81630723,
      "t_trigger_us": 81494760,
      "is_ai": false,
      "track_id": 0,
      "velocity": 0,
      "is_motor": true,
      "motor_id": 2,
      "accel_val": 2000,
      "base_duration_us": 266826
    },
    {
      "id": "M_765",
      "pitch": 89,
      "t_note_us": 81779761,
      "t_trigger_us": 81643798,
      "is_ai": true,
      "track_id": 6,
      "velocity": 0,
      "is_motor": false,
      "motor_id": 0,
      "accel_val": 2000,
      "base_duration_us": 117788
    },
    {
      "id": "M_769",
      "pitch": 86,
      "t_note_us": 81779761,
      "t_trigger_us": 81643798,
      "is_ai": true,
      "track_id": 4,
      "velocity": 0,
      "is_motor": false,
      "motor_id": 0,
      "accel_val": 2000,
      "base_duration_us": 442306
    },
    {
      "id": "M_771",
      "pitch": 98,
      "t_note_us": 81808607,
      "t_trigger_us": 81672644,
      "is_ai": true,
      "track_id": 11,
      "velocity": 0,
      "is_motor": false,
      "motor_id": 0,
      "accel_val": 2000,
      "base_duration_us": 5258406
    },
    {
      "id": "M_766",
      "pitch": 88,
      "t_note_us": 81986491,
      "t_trigger_us": 81850528,
      "is_ai": true,
      "track_id": 5,
      "velocity": 0,
      "is_motor": false,
      "motor_id": 0,
      "accel_val": 2000,
      "base_duration_us": 117788
    },
    {
      "id": "M_767",
      "pitch": 96,
      "t_note_us": 82193221,
      "t_trigger_us": 82057258,
      "is_ai": true,
      "track_id": 10,
      "velocity": 0,
      "is_motor": false,
      "motor_id": 0,
      "accel_val": 2000,
      "base_duration_us": 0
    },
    {
      "id": "M_770",
      "pitch": 88,
      "t_note_us": 82193221,
      "t_trigger_us": 82057258,
      "is_ai": true,
      "track_id": 5,
      "velocity": 0,
      "is_motor": false,
      "motor_id": 0,
      "accel_val": 2000,
      "base_duration_us": 265624
    },
    {
      "id": "M_768",
      "pitch": 72,
      "t_note_us": 82193221,
      "t_trigger_us": 82057258,
      "is_ai": false,
      "track_id": 0,
      "velocity": 0,
      "is_motor": true,
      "motor_id": 1,
      "accel_val": 2000,
      "base_duration_us": 0
    }
  ]
}