{
  "config": {
    "mode_idx": 0,
    "active_motors": [
      0,
      1,
      2,
      3
    ],
    "transpose": 0,
    "arp_speed_ms": 10,
    "gate_time": 100
  },
  "sustain_multiplier": 1.0,
  "notes": [
    {
      "id": "M_0",
      "pitch": 67,
      "t_note_us": 508474,
      "t_trigger_us": 372511,
      "is_ai": false,
      "track_id": 0,
      "velocity": 0,
      "is_motor": true,
      "motor_id": 1,
      "accel_val": 2000,
      "base_duration_us": 1525421
    },
    {
      "id": "M_1",
      "pitch": 76,
      "t_note_us": 508474,
      "t_trigger_us": 372511,
      "is_ai": false,
      "track_id": 0,
      "velocity": 0,
      "is_motor": true,
      "motor_id": 2,
      "accel_val": 2000,
      "base_duration_us": 1525421
    },
    {
      "id": "M_2",
      "pitch": 64,
      "t_note_us": 2542369,
      "t_trigger_us": 2406406,
      "is_ai": false,
      "track_id": 0,
      "velocity": 0,
      "is_motor": true,
      "motor_id": 1,
      "accel_val": 2000,
      "base_duration_us": 127118
    },
    {
      "id": "M_3",
      "pitch": 71,
      "t_note_us": 2711859,
      "t_trigger_us": 2575896,
      "is_ai": false,
      "track_id": 0,
      "velocity": 0,
      "is_motor": true,
      "motor_id": 1,
      "accel_val": 2000,
      "base_duration_us": 127117
    },
    {
      "id": "M_4",
      "pitch": 71,
      "t_note_us": 2796604,
      "t_trigger_us": 2660641,
      "is_ai": false,
      "track_id": 0,
      "velocity": 0,
      "is_motor": true,
      "motor_id": 2,
      "accel_val": 2000,
      "base_duration_us": 127117
    },
    {
      "id": "M_5",
      "pitch": 76,
      "t_note_us": 2966093,
      "t_trigger_us": 2830130,
      "is_ai": false,
      "track_id": 0,
      "velocity": 0,
      "is_motor": true,
      "motor_id": 2,
      "accel_val": 2000,
      "base_duration_us": 127117
    },
    {
      "id": "M_6",
      "pitch": 67,
      "t_note_us": 3050838,
      "t_trigger_us": 2914875,
      "is_ai": false,
      "track_id": 0,
      "velocity": 0,
      "is_motor": true,
      "motor_id": 1,
      "accel_val": 2000,
      "base_duration_us": 127117
    },
    {
      "id": "M_7",
      "pitch": 76,
      "t_note_us": 3220327,
      "t_trigger_us": 3084364,
      "is_ai": false,
      "track_id": 0,
      "velocity": 0,
      "is_motor": true,
      "motor_id": 2,
      "accel_val": 2000,
      "base_duration_us": 127117
    },
    {
      "id": "M_8",
      "pitch": 74,
      "t_note_us": 3305072,
      "t_trigger_us": 3169109,
      "is_ai": false,
      "track_id": 0,
      "velocity": 0,
      "is_motor": true,
      "motor_id": 1,
      "accel_val": 2000,
      "base_duration_us": 254236
    },
    {
      "id": "M_9",
      "pitch": 66,
      "t_note_us": 3559308,
      "t_trigger_us": 3423345,
      "is_ai": false,
      "track_id": 0,
      "velocity": 0,
      "is_motor": true,
      "motor_id": 1,
      "accel_val": 2000,
      "base_duration_us": 127118
    },
    {
      "id": "M_10",
      "pitch": 71,
      "t_note_us": 3728798,
      "t_trigger_us": 3592835,
      "is_ai": false,
      "track_id": 0,
      "velocity": 0,
      "is_motor": true,
      "motor_id": 1,
      "accel_val": 2000,
      "base_duration_us": 127117
    },
    {
      "id": "M_11",
      "pitch": 69,
      "t_note_us": 3813543,
      "t_trigger_us": 3677580,
      "is_ai": false,
      "track_id": 0,
      "velocity": 0,
      "is_motor": true,
      "motor_id": 2,
      "accel_val": 2000,
      "base_duration_us": 127117
    },
    {
      "id": "M_12",
      "pitch": 75,
      "t_note_us": 3983032,
      "t_trigger_us": 3847069,
      "is_ai": false,
      "track_id": 0,
      "velocity": 0,
      "is_motor": true,
      "motor_id": 2,
      "accel_val": 2000,
      "base_duration_us": 127117
    },
    {
      "id": "M_13",
      "pitch": 78,
      "t_note_us": 4067777,
      "t_trigger_us": 3931814,
      "is_ai": false,
      "track_id": 0,
      "velocity": 0,
      "is_motor": true,
      "motor_id": 3,
      "accel_val": 2000,
      "base_duration_us": 254236
    },
    {
      "id": "M_14",
      "pitch": 75,
      "t_note_us": 4322013,
      "t_trigger_us": 4186050,
      "is_ai": false,
      "track_id": 0,
      "velocity": 0,
      "is_motor": true,
      "motor_id": 2,
      "accel_val": 2000,
      "base_duration_us": 127118
    },
    {
      "id": "M_15",
      "pitch": 64,
      "t_note_us": 4576249,
      "t_trigger_us": 4440286,
      "is_ai": false,
      "track_id": 0,
      "velocity": 0,
      "is_motor": true,
      "motor_id": 1,
      "accel_val": 2000,
      "base_duration_us": 127118
    },
    {
      "id": "M_16",
      "pitch": 71,
      "t_note_us": 4745739,
      "t_trigger_us": 4609776,
      "is_ai": false,
      "track_id": 0,
      "velocity": 0,
      "is_motor": true,
      "motor_id": 1,
      "accel_val": 2000,
      "base_duration_us": 127117
    },
    {
      "id": "M_17",
      "pitch": 74,
      "t_note_us": 4830484,
      "t_trigger_us": 4694521,
      "is_ai": false,
      "track_id": 0,
      "velocity": 0,
      "is_motor": true,
      "motor_id": 0,
      "accel_val": 2000,
      "base_duration_us": 127117
    },
    {
      "id": "M_18",
      "pitch": 74,
      "t_note_us": 4999973,
      "t_trigger_us": 4864010,
      "is_ai": false,
      "track_id": 0,
      "velocity": 0,
      "is_motor": true,
      "motor_id": 1,
      "accel_val": 2000,
      "base_duration_us": 127117
    },
    {
      "id": "M_19",
      "pitch": 91,
      "t_note_us": 5084718,
      "t_trigger_us": 4948755,
      "is_ai": true,
      "track_id": 7,
      "velocity": 0,
      "is_motor": true,
      "motor_id": 3,
      "accel_val": 2000,
      "base_duration_us": 254236
    },
    {
      "id": "M_20",
      "pitch": 76,
      "t_note_us": 5338954,
      "t_trigger_us": 5202991,
      "is_ai": false,
      "track_id": 0,
      "velocity": 0,
      "is_motor": true,
      "motor_id": 2,
      "accel_val": 2000,
      "base_duration_us": 127118
    },
    {
      "id": "M_21",
      "pitch": 74,
      "t_note_us": 5508444,
      "t_trigger_us": 5372481,
      "is_ai": false,
      "track_id": 0,
      "velocity": 0,
      "is_motor": true,
      "motor_id": 1,
      "accel_val": 2000,
      "base_duration_us": 127117
    },
    {
      "id": "M_22",
      "pitch": 67,
      "t_note_us": 5593189,
      "t_trigger_us": 5457226,
      "is_ai": false,
      "track_id": 0,
      "velocity": 0,
      "is_motor": true,
      "motor_id": 2,
      "accel_val": 2000,
      "base_duration_us": 127117
    },
    {
      "id": "M_23",
      "pitch": 71,
      "t_note_us": 5762678,
      "t_trigger_us": 5626715,
      "is_ai": false,
      "track_id": 0,
      "velocity": 0,
      "is_motor": true,
      "motor_id": 1,
      "accel_val": 2000,
      "base_duration_us": 127117
    },
    {
      "id": "M_24",
      "pitch": 71,
      "t_note_us": 5847423,
      "t_trigger_us": 5711460,
      "is_ai": false,
      "track_id": 0,
      "velocity": 0,
      "is_motor": true,
      "motor_id": 2,
      "accel_val": 2000,
      "base_duration_us": 127117
    },
    {
      "id": "M_25",
      "pitch": 77,
      "t_note_us": 6016912,
      "t_trigger_us": 5880949,
      "is_ai": false,
      "track_id": 0,
      "velocity": 0,
      "is_motor": true,
      "motor_id": 2,
      "accel_val": 2000,
      "base_duration_us": 127117
    },
    {
      "id": "M_26",
      "pitch": 67,
      "t_note_us": 6101657,
      "t_trigger_us": 5965694,
      "is_ai": false,
      "track_id": 0,
      "velocity": 0,
      "is_motor": true,
      "motor_id": 1,
      "accel_val": 2000,
      "base_duration_us": 254236
    },
    {
      "id": "M_27",
      "pitch": 76,
      "t_note_us": 6355893,
      "t_trigger_us": 6219930,
      "is_ai": false,
      "track_id": 0,
      "velocity": 0,
      "is_motor": true,
      "motor_id": 2,
      "accel_val": 2000,
      "base_duration_us": 127118
    },
    {
      "id": "M_28",
      "pitch": 74,
      "t_note_us": 6525383,
      "t_trigger_us": 6389420,
      "is_ai": false,
      "track_id": 0,
      "velocity": 0,
      "is_motor": true,
      "motor_id": 1,
      "accel_val": 2000,
      "base_duration_us": 127117
    },
    {
      "id": "M_29",
      "pitch": 64,
      "t_note_us": 6610128,
      "t_trigger_us": 6474165,
      "is_ai": false,
      "track_id": 0,
      "velocity": 0,
      "is_motor": true,
      "motor_id": 0,
      "accel_val": 2000,
      "base_duration_us": 127117
    },
    {
      "id": "M_30",
      "pitch": 71,
      "t_note_us": 6779617,
      "t_trigger_us": 6643654,
      "is_ai": false,
      "track_id": 0,
      "velocity": 0,
      "is_motor": true,
      "motor_id": 1,
      "accel_val": 2000,
      "base_duration_us": 127117
    },
    {
      "id": "M_31",
      "pitch": 71,
      "t_note_us": 6864362,
      "t_trigger_us": 6728399,
      "is_ai": false,
      "track_id": 0,
      "velocity": 0,
      "is_motor": true,
      "motor_id": 2,
      "accel_val": 2000,
      "base_duration_us": 127117
    },
    {
      "id": "M_32",
      "pitch": 76,
      "t_note_us": 7033851,
      "t_trigger_us": 6897888,
      "is_ai": false,
      "track_id": 0,
      "velocity": 0,
      "is_motor": true,
      "motor_id": 2,
      "accel_val": 2000,
      "base_duration_us": 127117
    },
    {
      "id": "M_33",
      "pitch": 67,
      "t_note_us": 7118596,
      "t_trigger_us": 6982633,
      "is_ai": false,
      "track_id": 0,
      "velocity": 0,
      "is_motor": true,
      "motor_id": 1,
      "accel_val": 2000,
      "base_duration_us": 127117
    },
    {
      "id": "M_34",
      "pitch": 78,
      "t_note_us": 7288085,
      "t_trigger_us": 7152122,
      "is_ai": false,
      "track_id": 0,
      "velocity": 0,
      "is_motor": true,
      "motor_id": 2,
      "accel_val": 2000,
      "base_duration_us": 127117
    },
    {
      "id": "M_35",
      "pitch": 74,
      "t_note_us": 7372830,
      "t_trigger_us": 7236867,
      "is_ai": false,
      "track_id": 0,
      "velocity": 0,
      "is_motor": true,
      "motor_id": 1,
      "accel_val": 2000,
      "base_duration_us": 127117
    },
    {
      "id": "M_36",
      "pitch": 71,
      "t_note_us": 7542319,
      "t_trigger_us": 7406356,
      "is_ai": false,
      "track_id": 0,
      "velocity": 0,
      "is_motor": true,
      "motor_id": 1,
      "accel_val": 2000,
      "base_duration_us": 127117
    },
    {
      "id": "M_37",
      "pitch": 66,
      "t_note_us": 7627064,
      "t_trigger_us": 7491101,
      "is_ai": false,
      "track_id": 0,
      "velocity": 0,
      "is_motor": true,
      "motor_id": 2,
      "accel_val": 2000,
      "base_duration_us": 127117
    },
    {
      "id": "M_38",
      "pitch": 71,
      "t_note_us": 7796553,
      "t_trigger_us": 7660590,
      "is_ai": false,
      "track_id": 0,
      "velocity": 0,
      "is_motor": true,
      "motor_id": 1,
      "accel_val": 2000,
      "base_duration_us": 127117
    },
    {
      "id": "M_39",
      "pitch": 69,
      "t_note_us": 7881298,
      "t_trigger_us": 7745335,
      "is_ai": false,
      "track_id": 0,
      "velocity": 0,
      "is_motor": true,
      "motor_id": 2,
      "accel_val": 2000,
      "base_duration_us": 127117
    },
    {
      "id": "M_40",
      "pitch": 75,
      "t_note_us": 8050787,
      "t_trigger_us": 7914824,
      "is_ai": false,
      "track_id": 0,
      "velocity": 0,
      "is_motor": true,
      "motor_id": 2,
      "accel_val": 2000,
      "base_duration_us": 127117
    },
    {
      "id": "M_41",
      "pitch": 67,
      "t_note_us": 8135532,
      "t_trigger_us": 7999569,
      "is_ai": false,
      "track_id": 0,
      "velocity": 0,
      "is_motor": true,
      "motor_id": 1,
      "accel_val": 2000,
      "base_duration_us": 127117
    },
    {
      "id": "M_42",
      "pitch": 78,
      "t_note_us": 8305021,
      "t_trigger_us": 8169058,
      "is_ai": false,
      "track_id": 0,
      "velocity": 0,
      "is_motor": true,
      "motor_id": 2,
      "accel_val": 2000,
      "base_duration_us": 127117
    },
    {
      "id": "M_43",
      "pitch": 75,
      "t_note_us": 8389766,
      "t_trigger_us": 8253803,
      "is_ai": false,
      "track_id": 0,
      "velocity": 0,
      "is_motor": true,
      "motor_id": 1,
      "accel_val": 2000,
      "base_duration_us": 254236
    },
    {
      "id": "M_44",
      "pitch": 64,
      "t_note_us": 8644002,
      "t_trigger_us": 8508039,
      "is_ai": false,
      "track_id": 0,
      "velocity": 0,
      "is_motor": true,
      "motor_id": 1,
      "accel_val": 2000,
      "base_duration_us": 127118
    },
    {
      "id": "M_45",
      "pitch": 71,
      "t_note_us": 8813492,
      "t_trigger_us": 8677529,
      "is_ai": false,
      "track_id": 0,
      "velocity": 0,
      "is_motor": true,
      "motor_id": 1,
      "accel_val": 2000,
      "base_duration_us": 127117
    },
    {
      "id": "M_46",
      "pitch": 74,
      "t_note_us": 8898237,
      "t_trigger_us": 8762274,
      "is_ai": false,
      "track_id": 0,
      "velocity": 0,
      "is_motor": true,
      "motor_id": 0,
      "accel_val": 2000,
      "base_duration_us": 127117
    },
    {
      "id": "M_47",
      "pitch": 69,
      "t_note_us": 9067726,
      "t_trigger_us": 8931763,
      "is_ai": false,
      "track_id": 0,
      "velocity": 0,
      "is_motor": true,
      "motor_id": 1,
      "accel_val": 2000,
      "base_duration_us": 127117
    },
    {
      "id": "M_48",
      "pitch": 67,
      "t_note_us": 9152471,
      "t_trigger_us": 9016508,
      "is_ai": false,
      "track_id": 0,
      "velocity": 0,
      "is_motor": true,
      "motor_id": 2,
      "accel_val": 2000,
      "base_duration_us": 127117
    },
    {
      "id": "M_49",
      "pitch": 78,
      "t_note_us": 9321960,
      "t_trigger_us": 9185997,
      "is_ai": false,
      "track_id": 0,
      "velocity": 0,
      "is_motor": true,
      "motor_id": 2,
      "accel_val": 2000,
      "base_duration_us": 127117
    },
    {
      "id": "M_50",
      "pitch": 74,
      "t_note_us": 9406705,
      "t_trigger_us": 9270742,
      "is_ai": false,
      "track_id": 0,
      "velocity": 0,
      "is_motor": true,
      "motor_id": 1,
      "accel_val": 2000,
      "base_duration_us": 127117
    },
    {
      "id": "M_51",
      "pitch": 71,
      "t_note_us": 9576194,
      "t_trigger_us": 9440231,
      "is_ai": false,
      "track_id": 0,
      "velocity": 0,
      "is_motor": true,
      "motor_id": 1,
      "accel_val": 2000,
      "base_duration_us": 127117
    },
    {
      "id": "M_52",
      "pitch": 74,
      "t_note_us": 9660939,
      "t_trigger_us": 9524976,
      "is_ai": false,
      "track_id": 0,
      "velocity": 0,
      "is_motor": true,
      "motor_id": 0,
      "accel_val": 2000,
      "base_duration_us": 127117
    },
    {
      "id": "M_53",
      "pitch": 67,
      "t_note_us": 9660939,
      "t_trigger_us": 9524976,
      "is_ai": false,
      "track_id": 0,
      "velocity": 0,
      "is_motor": true,
      "motor_id": 2,
      "accel_val": 2000,
      "base_duration_us": 127117
    },
    {
      "id": "M_54",
      "pitch": 91,
      "t_note_us": 10170734,
      "t_trigger_us": 10034771,
      "is_ai": true,
      "track_id": 7,
      "velocity": 0,
      "is_motor": false,
      "motor_id": 0,
      "accel_val": 2000,
      "base_duration_us": 254237
    },
    {
      "id": "M_55",
      "pitch": 48,
      "t_note_us": 10677883,
      "t_trigger_us": 10541920,
      "is_ai": false,
      "track_id": 0,
      "velocity": 0,
      "is_motor": true,
      "motor_id": 0,
      "accel_val": 2000,
      "base_duration_us": 127118
    },
    {
      "id": "M_56",
      "pitch": 64,
      "t_note_us": 10847373,
      "t_trigger_us": 10711410,
      "is_ai": false,
      "track_id": 0,
      "velocity": 0,
      "is_motor": true,
      "motor_id": 1,
      "accel_val": 2000,
      "base_duration_us": 254237
    },
    {
      "id": "M_57",
      "pitch": 60,
      "t_note_us": 10847373,
      "t_trigger_us": 10711410,
      "is_ai": false,
      "track_id": 0,
      "velocity": 0,
      "is_motor": true,
      "motor_id": 0,
      "accel_val": 2000,
      "base_duration_us": 254237
    },
    {
      "id": "M_58",
      "pitch": 55,
      "t_note_us": 11101610,
      "t_trigger_us": 10965647,
      "is_ai": false,
      "track_id": 0,
      "velocity": 0,
      "is_motor": true,
      "motor_id": 0,
      "accel_val": 2000,
      "base_duration_us": 127117
    },
    {
      "id": "M_59",
      "pitch": 60,
      "t_note_us": 11186355,
      "t_trigger_us": 11050392,
      "is_ai": false,
      "track_id": 0,
      "velocity": 0,
      "is_motor": true,
      "motor_id": 1,
      "accel_val": 2000,
      "base_duration_us": 127117
    },
    {
      "id": "M_60",
      "pitch": 98,
      "t_note_us": 11187679,
      "t_trigger_us": 11051716,
      "is_ai": true,
      "track_id": 11,
      "velocity": 0,
      "is_motor": false,
      "motor_id": 0,
      "accel_val": 2000,
      "base_duration_us": 127117
    },
    {
      "id": "M_61",
      "pitch": 64,
      "t_note_us": 11355844,
      "t_trigger_us": 11219881,
      "is_ai": false,
      "track_id": 0,
      "velocity": 0,
      "is_motor": true,
      "motor_id": 1,
      "accel_val": 2000,
      "base_duration_us": 127117
    },
    {
      "id": "M_62",
      "pitch": 96,
      "t_note_us": 11357168,
      "t_trigger_us": 11221205,
      "is_ai": true,
      "track_id": 10,
      "velocity": 0,
      "is_motor": false,
      "motor_id": 0,
      "accel_val": 2000,
      "base_duration_us": 127117
    },
    {
      "id": "M_64",
      "pitch": 48,
      "t_note_us": 11440589,
      "t_trigger_us": 11304626,
      "is_ai": false,
      "track_id": 0,
      "velocity": 0,
      "is_motor": true,
      "motor_id": 0,
      "accel_val": 2000,
      "base_duration_us": 254234
    },
    {
      "id": "M_63",
      "pitch": 95,
      "t_note_us": 11441913,
      "t_trigger_us": 11305950,
      "is_ai": true,
      "track_id": 9,
      "velocity": 0,
      "is_motor": false,
      "motor_id": 0,
      "accel_val": 2000,
      "base_duration_us": 127117
    },
    {
      "id": "M_65",
      "pitch": 69,
      "t_note_us": 11611402,
      "t_trigger_us": 11475439,
      "is_ai": false,
      "track_id": 0,
      "velocity": 0,
      "is_motor": true,
      "motor_id": 1,
      "accel_val": 2000,
      "base_duration_us": 127117
    },
    {
      "id": "M_66",
      "pitch": 47,
      "t_note_us": 11694823,
      "t_trigger_us": 11558860,
      "is_ai": false,
      "track_id": 0,
      "velocity": 0,
      "is_motor": true,
      "motor_id": 0,
      "accel_val": 2000,
      "base_duration_us": 127117
    },
    {
      "id": "M_67",
      "pitch": 63,
      "t_note_us": 11864312,
      "t_trigger_us": 11728349,
      "is_ai": false,
      "track_id": 0,
      "velocity": 0,
      "is_motor": true,
      "motor_id": 1,
      "accel_val": 2000,
      "base_duration_us": 254237
    },
    {
      "id": "M_68",
      "pitch": 59,
      "t_note_us": 11864312,
      "t_trigger_us": 11728349,
      "is_ai": false,
      "track_id": 0,
      "velocity": 0,
      "is_motor": true,
      "motor_id": 0,
      "accel_val": 2000,
      "base_duration_us": 254237
    },
    {
      "id": "M_69",
      "pitch": 54,
      "t_note_us": 12118549,
      "t_trigger_us": 11982586,
      "is_ai": false,
      "track_id": 0,
      "velocity": 0,
      "is_motor": true,
      "motor_id": 0,
      "accel_val": 2000,
      "base_duration_us": 127117
    },
    {
      "id": "M_70",
      "pitch": 59,
      "t_note_us": 12203294,
      "t_trigger_us": 12067331,
      "is_ai": false,
      "track_id": 0,
      "velocity": 0,
      "is_motor": true,
      "motor_id": 1,
      "accel_val": 2000,
      "base_duration_us": 127117
    },
    {
      "id": "M_71",
      "pitch": 67,
      "t_note_us": 12204618,
      "t_trigger_us": 12068655,
      "is_ai": false,
      "track_id": 0,
      "velocity": 0,
      "is_motor": true,
      "motor_id": 2,
      "accel_val": 2000,
      "base_duration_us": 127117
    },
    {
      "id": "M_72",
      "pitch": 63,
      "t_note_us": 12372783,
      "t_trigger_us": 12236820,
      "is_ai": false,
      "track_id": 0,
      "velocity": 0,
      "is_motor": true,
      "motor_id": 1,
      "accel_val": 2000,
      "base_duration_us": 127117
    },
    {
      "id": "M_73",
      "pitch": 68,
      "t_note_us": 12374107,
      "t_trigger_us": 12238144,
      "is_ai": false,
      "track_id": 0,
      "velocity": 0,
      "is_motor": true,
      "motor_id": 2,
      "accel_val": 2000,
      "base_duration_us": 127117
    },
    {
      "id": "M_75",
      "pitch": 47,
      "t_note_us": 12457528,
      "t_trigger_us": 12321565,
      "is_ai": false,
      "track_id": 0,
      "velocity": 0,
      "is_motor": true,
      "motor_id": 0,
      "accel_val": 2000,
      "base_duration_us": 254234
    },
    {
      "id": "M_74",
      "pitch": 69,
      "t_note_us": 12458852,
      "t_trigger_us": 12322889,
      "is_ai": false,
      "track_id": 0,
      "velocity": 0,
      "is_motor": true,
      "motor_id": 3,
      "accel_val": 2000,
      "base_duration_us": 127117
    },
    {
      "id": "M_76",
      "pitch": 95,
      "t_note_us": 12628341,
      "t_trigger_us": 12492378,
      "is_ai": true,
      "track_id": 9,
      "velocity": 0,
      "is_motor": true,
      "motor_id": 3,
      "accel_val": 2000,
      "base_duration_us": 127117
    },
    {
      "id": "M_77",
      "pitch": 52,
      "t_note_us": 12711762,
      "t_trigger_us": 12575799,
      "is_ai": false,
      "track_id": 0,
      "velocity": 0,
      "is_motor": true,
      "motor_id": 0,
      "accel_val": 2000,
      "base_duration_us": 127117
    },
    {
      "id": "M_78",
      "pitch": 67,
      "t_note_us": 12881251,
      "t_trigger_us": 12745288,
      "is_ai": false,
      "track_id": 0,
      "velocity": 0,
      "is_motor": true,
      "motor_id": 1,
      "accel_val": 2000,
      "base_duration_us": 254237
    },
    {
      "id": "M_79",
      "pitch": 64,
      "t_note_us": 12881251,
      "t_trigger_us": 12745288,
      "is_ai": false,
      "track_id": 0,
      "velocity": 0,
      "is_motor": true,
      "motor_id": 0,
      "accel_val": 2000,
      "base_duration_us": 254237
    },
    {
      "id": "M_80",
      "pitch": 59,
      "t_note_us": 13135488,
      "t_trigger_us": 12999525,
      "is_ai": false,
      "track_id": 0,
      "velocity": 0,
      "is_motor": true,
      "motor_id": 0,
      "accel_val": 2000,
      "base_duration_us": 127117
    },
    {
      "id": "M_81",
      "pitch": 64,
      "t_note_us": 13220233,
      "t_trigger_us": 13084270,
      "is_ai": false,
      "track_id": 0,
      "velocity": 0,
      "is_motor": true,
      "motor_id": 1,
      "accel_val": 2000,
      "base_duration_us": 127117
    },
    {
      "id": "M_82",
      "pitch": 71,
      "t_note_us": 13221557,
      "t_trigger_us": 13085594,
      "is_ai": false,
      "track_id": 0,
      "velocity": 0,
      "is_motor": true,
      "motor_id": 2,
      "accel_val": 2000,
      "base_duration_us": 127117
    },
    {
      "id": "M_83",
      "pitch": 67,
      "t_note_us": 13389722,
      "t_trigger_us": 13253759,
      "is_ai": false,
      "track_id": 0,
      "velocity": 0,
      "is_motor": true,
      "motor_id": 1,
      "accel_val": 2000,
      "base_duration_us": 127117
    },
    {
      "id": "M_84",
      "pitch": 69,
      "t_note_us": 13391046,
      "t_trigger_us": 13255083,
      "is_ai": false,
      "track_id": 0,
      "velocity": 0,
      "is_motor": true,
      "motor_id": 2,
      "accel_val": 2000,
      "base_duration_us": 127117
    },
    {
      "id": "M_86",
      "pitch": 52,
      "t_note_us": 13474467,
      "t_trigger_us": 13338504,
      "is_ai": false,
      "track_id": 0,
      "velocity": 0,
      "is_motor": true,
      "motor_id": 0,
      "accel_val": 2000,
      "base_duration_us": 254234
    },
    {
      "id": "M_85",
      "pitch": 96,
      "t_note_us": 13475791,
      "t_trigger_us": 13339828,
      "is_ai": true,
      "track_id": 10,
      "velocity": 0,
      "is_motor": false,
      "motor_id": 0,
      "accel_val": 2000,
      "base_duration_us": 127117
    },
    {
      "id": "M_87",
      "pitch": 95,
      "t_note_us": 13645280,
      "t_trigger_us": 13509317,
      "is_ai": true,
      "track_id": 9,
      "velocity": 0,
      "is_motor": false,
      "motor_id": 0,
      "accel_val": 2000,
      "base_duration_us": 127117
    },
    {
      "id": "M_88",
      "pitch": 55,
      "t_note_us": 13728701,
      "t_trigger_us": 13592738,
      "is_ai": false,
      "track_id": 0,
      "velocity": 0,
      "is_motor": true,
      "motor_id": 0,
      "accel_val": 2000,
      "base_duration_us": 127117
    },
    {
      "id": "M_89",
      "pitch": 65,
      "t_note_us": 13898190,
      "t_trigger_us": 13762227,
      "is_ai": false,
      "track_id": 0,
      "velocity": 0,
      "is_motor": true,
      "motor_id": 1,
      "accel_val": 2000,
      "base_duration_us": 254237
    },
    {
      "id": "M_90",
      "pitch": 71,
      "t_note_us": 13898190,
      "t_trigger_us": 13762227,
      "is_ai": false,
      "track_id": 0,
      "velocity": 0,
      "is_motor": true,
      "motor_id": 2,
      "accel_val": 2000,
      "base_duration_us": 254237
    },
    {
      "id": "M_91",
      "pitch": 62,
      "t_note_us": 14152427,
      "t_trigger_us": 14016464,
      "is_ai": false,
      "track_id": 0,
      "velocity": 0,
      "is_motor": true,
      "motor_id": 1,
      "accel_val": 2000,
      "base_duration_us": 127117
    },
    {
      "id": "M_92",
      "pitch": 71,
      "t_note_us": 14153751,
      "t_trigger_us": 14017788,
      "is_ai": false,
      "track_id": 0,
      "velocity": 0,
      "is_motor": true,
      "motor_id": 2,
      "accel_val": 2000,
      "base_duration_us": 127117
    },
    {
      "id": "M_93",
      "pitch": 65,
      "t_note_us": 14237172,
      "t_trigger_us": 14101209,
      "is_ai": false,
      "track_id": 0,
      "velocity": 0,
      "is_motor": true,
      "motor_id": 0,
      "accel_val": 2000,
      "base_duration_us": 127117
    },
    {
      "id": "M_94",
      "pitch": 69,
      "t_note_us": 14238496,
      "t_trigger_us": 14102533,
      "is_ai": false,
      "track_id": 0,
      "velocity": 0,
      "is_motor": true,
      "motor_id": 3,
      "accel_val": 2000,
      "base_duration_us": 127117
    },
    {
      "id": "M_95",
      "pitch": 71,
      "t_note_us": 14406661,
      "t_trigger_us": 14270698,
      "is_ai": false,
      "track_id": 0,
      "velocity": 0,
      "is_motor": true,
      "motor_id": 1,
      "accel_val": 2000,
      "base_duration_us": 127117
    },
    {
      "id": "M_96",
      "pitch": 67,
      "t_note_us": 14407985,
      "t_trigger_us": 14272022,
      "is_ai": false,
      "track_id": 0,
      "velocity": 0,
      "is_motor": true,
      "motor_id": 2,
      "accel_val": 2000,
      "base_duration_us": 127117
    },
    {
      "id": "M_98",
      "pitch": 55,
      "t_note_us": 14491406,
      "t_trigger_us": 14355443,
      "is_ai": false,
      "track_id": 0,
      "velocity": 0,
      "is_motor": true,
      "motor_id": 0,
      "accel_val": 2000,
      "base_duration_us": 254234
    },
    {
      "id": "M_97",
      "pitch": 78,
      "t_note_us": 14492730,
      "t_trigger_us": 14356767,
      "is_ai": false,
      "track_id": 0,
      "velocity": 0,
      "is_motor": true,
      "motor_id": 3,
      "accel_val": 2000,
      "base_duration_us": 127117
    },
    {
      "id": "M_99",
      "pitch": 67,
      "t_note_us": 14662219,
      "t_trigger_us": 14526256,
      "is_ai": false,
      "track_id": 0,
      "velocity": 0,
      "is_motor": true,
      "motor_id": 1,
      "accel_val": 2000,
      "base_duration_us": 127117
    },
    {
      "id": "M_100",
      "pitch": 48,
      "t_note_us": 14745640,
      "t_trigger_us": 14609677,
      "is_ai": false,
      "track_id": 0,
      "velocity": 0,
      "is_motor": true,
      "motor_id": 0,
      "accel_val": 2000,
      "base_duration_us": 127117
    },
    {
      "id": "M_101",
      "pitch": 64,
      "t_note_us": 14915129,
      "t_trigger_us": 14779166,
      "is_ai": false,
      "track_id": 0,
      "velocity": 0,
      "is_motor": true,
      "motor_id": 1,
      "accel_val": 2000,
      "base_duration_us": 254237
    },
    {
      "id": "M_102",
      "pitch": 60,
      "t_note_us": 14915129,
      "t_trigger_us": 14779166,
      "is_ai": false,
      "track_id": 0,
      "velocity": 0,
      "is_motor": true,
      "motor_id": 0,
      "accel_val": 2000,
      "base_duration_us": 254237
    },
    {
      "id": "M_103",
      "pitch": 55,
      "t_note_us": 15169366,
      "t_trigger_us": 15033403,
      "is_ai": false,
      "track_id": 0,
      "velocity": 0,
      "is_motor": true,
      "motor_id": 0,
      "accel_val": 2000,
      "base_duration_us": 127117
    },
    {
      "id": "M_104",
      "pitch": 60,
      "t_note_us": 15254111,
      "t_trigger_us": 15118148,
      "is_ai": false,
      "track_id": 0,
      "velocity": 0,
      "is_motor": true,
      "motor_id": 1,
      "accel_val": 2000,
      "base_duration_us": 127117
    },
    {
      "id": "M_105",
      "pitch": 98,
      "t_note_us": 15255435,
      "t_trigger_us": 15119472,
      "is_ai": true,
      "track_id": 11,
      "velocity": 0,
      "is_motor": false,
      "motor_id": 0,
      "accel_val": 2000,
      "base_duration_us": 127117
    },
    {
      "id": "M_106",
      "pitch": 64,
      "t_note_us": 15423600,
      "t_trigger_us": 15287637,
      "is_ai": false,
      "track_id": 0,
      "velocity": 0,
      "is_motor": true,
      "motor_id": 1,
      "accel_val": 2000,
      "base_duration_us": 127117
    },
    {
      "id": "M_107",
      "pitch": 96,
      "t_note_us": 15424924,
      "t_trigger_us": 15288961,
      "is_ai": true,
      "track_id": 10,
      "velocity": 0,
      "is_motor": false,
      "motor_id": 0,
      "accel_val": 2000,
      "base_duration_us": 127117
    },
    {
      "id": "M_109",
      "pitch": 48,
      "t_note_us": 15508345,
      "t_trigger_us": 15372382,
      "is_ai": false,
      "track_id": 0,
      "velocity": 0,
      "is_motor": true,
      "motor_id": 0,
      "accel_val": 2000,
      "base_duration_us": 254234
    },
    {
      "id": "M_108",
      "pitch": 95,
      "t_note_us": 15509669,
      "t_trigger_us": 15373706,
      "is_ai": true,
      "track_id": 9,
      "velocity": 0,
      "is_motor": false,
      "motor_id": 0,
      "accel_val": 2000,
      "base_duration_us": 127117
    },
    {
      "id": "M_110",
      "pitch": 69,
      "t_note_us": 15679158,
      "t_trigger_us": 15543195,
      "is_ai": false,
      "track_id": 0,
      "velocity": 0,
      "is_motor": true,
      "motor_id": 1,
      "accel_val": 2000,
      "base_duration_us": 127117
    },
    {
      "id": "M_111",
      "pitch": 54,
      "t_note_us": 15762579,
      "t_trigger_us": 15626616,
      "is_ai": false,
      "track_id": 0,
      "velocity": 0,
      "is_motor": true,
      "motor_id": 0,
      "accel_val": 2000,
      "base_duration_us": 127117
    },
    {
      "id": "M_112",
      "pitch": 69,
      "t_note_us": 15932068,
      "t_trigger_us": 15796105,
      "is_ai": false,
      "track_id": 0,
      "velocity": 0,
      "is_motor": true,
      "motor_id": 1,
      "accel_val": 2000,
      "base_duration_us": 254237
    },
    {
      "id": "M_113",
      "pitch": 66,
      "t_note_us": 15932068,
      "t_trigger_us": 15796105,
      "is_ai": false,
      "track_id": 0,
      "velocity": 0,
      "is_motor": true,
      "motor_id": 2,
      "accel_val": 2000,
      "base_duration_us": 254237
    },
    {
      "id": "M_114",
      "pitch": 59,
      "t_note_us": 16186305,
      "t_trigger_us": 16050342,
      "is_ai": false,
      "track_id": 0,
      "velocity": 0,
      "is_motor": true,
      "motor_id": 0,
      "accel_val": 2000,
      "base_duration_us": 127117
    },
    {
      "id": "M_115",
      "pitch": 66,
      "t_note_us": 16271050,
      "t_trigger_us": 16135087,
      "is_ai": false,
      "track_id": 0,
      "velocity": 0,
      "is_motor": true,
      "motor_id": 1,
      "accel_val": 2000,
      "base_duration_us": 127117
    },
    {
      "id": "M_116",
      "pitch": 67,
      "t_note_us": 16272374,
      "t_trigger_us": 16136411,
      "is_ai": false,
      "track_id": 0,
      "velocity": 0,
      "is_motor": true,
      "motor_id": 2,
      "accel_val": 2000,
      "base_duration_us": 127117
    },
    {
      "id": "M_117",
      "pitch": 69,
      "t_note_us": 16440539,
      "t_trigger_us": 16304576,
      "is_ai": false,
      "track_id": 0,
      "velocity": 0,
      "is_motor": true,
      "motor_id": 1,
      "accel_val": 2000,
      "base_duration_us": 127117
    },
    {
      "id": "M_118",
      "pitch": 68,
      "t_note_us": 16441863,
      "t_trigger_us": 16305900,
      "is_ai": false,
      "track_id": 0,
      "velocity": 0,
      "is_motor": true,
      "motor_id": 2,
      "accel_val": 2000,
      "base_duration_us": 127117
    },
    {
      "id": "M_120",
      "pitch": 54,
      "t_note_us": 16525284,
      "t_trigger_us": 16389321,
      "is_ai": false,
      "track_id": 0,
      "velocity": 0,
      "is_motor": true,
      "motor_id": 0,
      "accel_val": 2000,
      "base_duration_us": 254234
    },
    {
      "id": "M_119",
      "pitch": 69,
      "t_note_us": 16526608,
      "t_trigger_us": 16390645,
      "is_ai": false,
      "track_id": 0,
      "velocity": 0,
      "is_motor": true,
      "motor_id": 3,
      "accel_val": 2000,
      "base_duration_us": 127117
    },
    {
      "id": "M_121",
      "pitch": 95,
      "t_note_us": 16696097,
      "t_trigger_us": 16560134,
      "is_ai": true,
      "track_id": 9,
      "velocity": 0,
      "is_motor": false,
      "motor_id": 0,
      "accel_val": 2000,
      "base_duration_us": 127117
    },
    {
      "id": "M_122",
      "pitch": 52,
      "t_note_us": 16779518,
      "t_trigger_us": 16643555,
      "is_ai": false,
      "track_id": 0,
      "velocity": 0,
      "is_motor": true,
      "motor_id": 0,
      "accel_val": 2000,
      "base_duration_us": 127117
    },
    {
      "id": "M_123",
      "pitch": 67,
      "t_note_us": 16949007,
      "t_trigger_us": 16813044,
      "is_ai": false,
      "track_id": 0,
      "velocity": 0,
      "is_motor": true,
      "motor_id": 1,
      "accel_val": 2000,
      "base_duration_us": 254237
    },
    {
      "id": "M_124",
      "pitch": 64,
      "t_note_us": 16949007,
      "t_trigger_us": 16813044,
      "is_ai": false,
      "track_id": 0,
      "velocity": 0,
      "is_motor": true,
      "motor_id": 0,
      "accel_val": 2000,
      "base_duration_us": 254237
    },
    {
      "id": "M_125",
      "pitch": 59,
      "t_note_us": 17203244,
      "t_trigger_us": 17067281,
      "is_ai": false,
      "track_id": 0,
      "velocity": 0,
      "is_motor": true,
      "motor_id": 0,
      "accel_val": 2000,
      "base_duration_us": 127117
    },
    {
      "id": "M_126",
      "pitch": 64,
      "t_note_us": 17287989,
      "t_trigger_us": 17152026,
      "is_ai": false,
      "track_id": 0,
      "velocity": 0,
      "is_motor": true,
      "motor_id": 1,
      "accel_val": 2000,
      "base_duration_us": 127117
    },
    {
      "id": "M_127",
      "pitch": 95,
      "t_note_us": 17289313,
      "t_trigger_us": 17153350,
      "is_ai": true,
      "track_id": 9,
      "velocity": 0,
      "is_motor": false,
      "motor_id": 0,
      "accel_val": 2000,
      "base_duration_us": 127117
    },
    {
      "id": "M_128",
      "pitch": 67,
      "t_note_us": 17457478,
      "t_trigger_us": 17321515,
      "is_ai": false,
      "track_id": 0,
      "velocity": 0,
      "is_motor": true,
      "motor_id": 1,
      "accel_val": 2000,
      "base_duration_us": 127117
    },
    {
      "id": "M_129",
      "pitch": 69,
      "t_note_us": 17458802,
      "t_trigger_us": 17322839,
      "is_ai": false,
      "track_id": 0,
      "velocity": 0,
      "is_motor": true,
      "motor_id": 2,
      "accel_val": 2000,
      "base_duration_us": 127117
    },
    {
      "id": "M_131",
      "pitch": 52,
      "t_note_us": 17542223,
      "t_trigger_us": 17406260,
      "is_ai": false,
      "track_id": 0,
      "velocity": 0,
      "is_motor": true,
      "motor_id": 0,
      "accel_val": 2000,
      "base_duration_us": 254234
    },
    {
      "id": "M_130",
      "pitch": 96,
      "t_note_us": 17543547,
      "t_trigger_us": 17407584,
      "is_ai": true,
      "track_id": 10,
      "velocity": 0,
      "is_motor": false,
      "motor_id": 0,
      "accel_val": 2000,
      "base_duration_us": 127117
    },
    {
      "id": "M_132",
      "pitch": 95,
      "t_note_us": 17713036,
      "t_trigger_us": 17577073,
      "is_ai": true,
      "track_id": 9,
      "velocity": 0,
      "is_motor": false,
      "motor_id": 0,
      "accel_val": 2000,
      "base_duration_us": 127117
    },
    {
      "id": "M_133",
      "pitch": 55,
      "t_note_us": 17796457,
      "t_trigger_us": 17660494,
      "is_ai": false,
      "track_id": 0,
      "velocity": 0,
      "is_motor": true,
      "motor_id": 0,
      "accel_val": 2000,
      "base_duration_us": 127117
    },
    {
      "id": "M_134",
      "pitch": 65,
      "t_note_us": 17965946,
      "t_trigger_us": 17829983,
      "is_ai": false,
      "track_id": 0,
      "velocity": 0,
      "is_motor": true,
      "motor_id": 1,
      "accel_val": 2000,
      "base_duration_us": 254237
    },
    {
      "id": "M_135",
      "pitch": 71,
      "t_note_us": 17965946,
      "t_trigger_us": 17829983,
      "is_ai": false,
      "track_id": 0,
      "velocity": 0,
      "is_motor": true,
      "motor_id": 2,
      "accel_val": 2000,
      "base_duration_us": 254237
    },
    {
      "id": "M_136",
      "pitch": 62,
      "t_note_us": 18220183,
      "t_trigger_us": 18084220,
      "is_ai": false,
      "track_id": 0,
      "velocity": 0,
      "is_motor": true,
      "motor_id": 1,
      "accel_val": 2000,
      "base_duration_us": 127117
    },
    {
      "id": "M_137",
      "pitch": 71,
      "t_note_us": 18221507,
      "t_trigger_us": 18085544,
      "is_ai": false,
      "track_id": 0,
      "velocity": 0,
      "is_motor": true,
      "motor_id": 2,
      "accel_val": 2000,
      "base_duration_us": 127117
    },
    {
      "id": "M_138",
      "pitch": 65,
      "t_note_us": 18304928,
      "t_trigger_us": 18168965,
      "is_ai": false,
      "track_id": 0,
      "velocity": 0,
      "is_motor": true,
      "motor_id": 0,
      "accel_val": 2000,
      "base_duration_us": 127117
    },
    {
      "id": "M_139",
      "pitch": 69,
      "t_note_us": 18306252,
      "t_trigger_us": 18170289,
      "is_ai": false,
      "track_id": 0,
      "velocity": 0,
      "is_motor": true,
      "motor_id": 3,
      "accel_val": 2000,
      "base_duration_us": 127117
    },
    {
      "id": "M_140",
      "pitch": 71,
      "t_note_us": 18474417,
      "t_trigger_us": 18338454,
      "is_ai": false,
      "track_id": 0,
      "velocity": 0,
      "is_motor": true,
      "motor_id": 1,
      "accel_val": 2000,
      "base_duration_us": 127117
    },
    {
      "id": "M_141",
      "pitch": 96,
      "t_note_us": 18475741,
      "t_trigger_us": 18339778,
      "is_ai": true,
      "track_id": 10,
      "velocity": 0,
      "is_motor": false,
      "motor_id": 0,
      "accel_val": 2000,
      "base_duration_us": 127117
    },
    {
      "id": "M_142",
      "pitch": 55,
      "t_note_us": 18559162,
      "t_trigger_us": 18423199,
      "is_ai": false,
      "track_id": 0,
      "velocity": 0,
      "is_motor": true,
      "motor_id": 0,
      "accel_val": 2000,
      "base_duration_us": 254236
    },
    {
      "id": "M_143",
      "pitch": 95,
      "t_note_us": 18560486,
      "t_trigger_us": 18424523,
      "is_ai": true,
      "track_id": 9,
      "velocity": 0,
      "is_motor": false,
      "motor_id": 0,
      "accel_val": 2000,
      "base_duration_us": 254236
    },
    {
      "id": "M_144",
      "pitch": 48,
      "t_note_us": 18813398,
      "t_trigger_us": 18677435,
      "is_ai": false,
      "track_id": 0,
      "velocity": 0,
      "is_motor": true,
      "motor_id": 0,
      "accel_val": 2000,
      "base_duration_us": 127118
    },
    {
      "id": "M_145",
      "pitch": 64,
      "t_note_us": 18982888,
      "t_trigger_us": 18846925,
      "is_ai": false,
      "track_id": 0,
      "velocity": 0,
      "is_motor": true,
      "motor_id": 1,
      "accel_val": 2000,
      "base_duration_us": 254237
    },
    {
      "id": "M_146",
      "pitch": 60,
      "t_note_us": 18982888,
      "t_trigger_us": 18846925,
      "is_ai": false,
      "track_id": 0,
      "velocity": 0,
      "is_motor": true,
      "motor_id": 0,
      "accel_val": 2000,
      "base_duration_us": 254237
    },
    {
      "id": "M_147",
      "pitch": 55,
      "t_note_us": 19237125,
      "t_trigger_us": 19101162,
      "is_ai": false,
      "track_id": 0,
      "velocity": 0,
      "is_motor": true,
      "motor_id": 0,
      "accel_val": 2000,
      "base_duration_us": 127117
    },
    {
      "id": "M_148",
      "pitch": 60,
      "t_note_us": 19321870,
      "t_trigger_us": 19185907,
      "is_ai": false,
      "track_id": 0,
      "velocity": 0,
      "is_motor": true,
      "motor_id": 1,
      "accel_val": 2000,
      "base_duration_us": 127117
    },
    {
      "id": "M_149",
      "pitch": 98,
      "t_note_us": 19323194,
      "t_trigger_us": 19187231,
      "is_ai": true,
      "track_id": 11,
      "velocity": 0,
      "is_motor": false,
      "motor_id": 0,
      "accel_val": 2000,
      "base_duration_us": 127117
    },
    {
      "id": "M_150",
      "pitch": 64,
      "t_note_us": 19491359,
      "t_trigger_us": 19355396,
      "is_ai": false,
      "track_id": 0,
      "velocity": 0,
      "is_motor": true,
      "motor_id": 1,
      "accel_val": 2000,
      "base_duration_us": 127117
    },
    {
      "id": "M_151",
      "pitch": 96,
      "t_note_us": 19492683,
      "t_trigger_us": 19356720,
      "is_ai": true,
      "track_id": 10,
      "velocity": 0,
      "is_motor": false,
      "motor_id": 0,
      "accel_val": 2000,
      "base_duration_us": 127117
    },
    {
      "id": "M_153",
      "pitch": 48,
      "t_note_us": 19576104,
      "t_trigger_us": 19440141,
      "is_ai": false,
      "track_id": 0,
      "velocity": 0,
      "is_motor": true,
      "motor_id": 0,
      "accel_val": 2000,
      "base_duration_us": 254234
    },
    {
      "id": "M_152",
      "pitch": 95,
      "t_note_us": 19577428,
      "t_trigger_us": 19441465,
      "is_ai": true,
      "track_id": 9,
      "velocity": 0,
      "is_motor": false,
      "motor_id": 0,
      "accel_val": 2000,
      "base_duration_us": 127117
    },
    {
      "id": "M_154",
      "pitch": 69,
      "t_note_us": 19746917,
      "t_trigger_us": 19610954,
      "is_ai": false,
      "track_id": 0,
      "velocity": 0,
      "is_motor": true,
      "motor_id": 1,
      "accel_val": 2000,
      "base_duration_us": 127117
    },
    {
      "id": "M_155",
      "pitch": 47,
      "t_note_us": 19830338,
      "t_trigger_us": 19694375,
      "is_ai": false,
      "track_id": 0,
      "velocity": 0,
      "is_motor": true,
      "motor_id": 0,
      "accel_val": 2000,
      "base_duration_us": 127117
    },
    {
      "id": "M_156",
      "pitch": 63,
      "t_note_us": 19999827,
      "t_trigger_us": 19863864,
      "is_ai": false,
      "track_id": 0,
      "velocity": 0,
      "is_motor": true,
      "motor_id": 1,
      "accel_val": 2000,
      "base_duration_us": 254237
    },
    {
      "id": "M_157",
      "pitch": 59,
      "t_note_us": 19999827,
      "t_trigger_us": 19863864,
      "is_ai": false,
      "track_id": 0,
      "velocity": 0,
      "is_motor": true,
      "motor_id": 0,
      "accel_val": 2000,
      "base_duration_us": 254237
    },
    {
      "id": "M_158",
      "pitch": 54,
      "t_note_us": 20254064,
      "t_trigger_us": 20118101,
      "is_ai": false,
      "track_id": 0,
      "velocity": 0,
      "is_motor": true,
      "motor_id": 0,
      "accel_val": 2000,
      "base_duration_us": 127117
    },
    {
      "id": "M_159",
      "pitch": 59,
      "t_note_us": 20338809,
      "t_trigger_us": 20202846,
      "is_ai": false,
      "track_id": 0,
      "velocity": 0,
      "is_motor": true,
      "motor_id": 1,
      "accel_val": 2000,
      "base_duration_us": 127117
    },
    {
      "id": "M_160",
      "pitch": 67,
      "t_note_us": 20340133,
      "t_trigger_us": 20204170,
      "is_ai": false,
      "track_id": 0,
      "velocity": 0,
      "is_motor": true,
      "motor_id": 2,
      "accel_val": 2000,
      "base_duration_us": 127117
    },
    {
      "id": "M_161",
      "pitch": 63,
      "t_note_us": 20508298,
      "t_trigger_us": 20372335,
      "is_ai": false,
      "track_id": 0,
      "velocity": 0,
      "is_motor": true,
      "motor_id": 1,
      "accel_val": 2000,
      "base_duration_us": 127117
    },
    {
      "id": "M_162",
      "pitch": 68,
      "t_note_us": 20509622,
      "t_trigger_us": 20373659,
      "is_ai": false,
      "track_id": 0,
      "velocity": 0,
      "is_motor": true,
      "motor_id": 2,
      "accel_val": 2000,
      "base_duration_us": 127117
    },
    {
      "id": "M_164",
      "pitch": 47,
      "t_note_us": 20593043,
      "t_trigger_us": 20457080,
      "is_ai": false,
      "track_id": 0,
      "velocity": 0,
      "is_motor": true,
      "motor_id": 0,
      "accel_val": 2000,
      "base_duration_us": 254234
    },
    {
      "id": "M_163",
      "pitch": 69,
      "t_note_us": 20594367,
      "t_trigger_us": 20458404,
      "is_ai": false,
      "track_id": 0,
      "velocity": 0,
      "is_motor": true,
      "motor_id": 3,
      "accel_val": 2000,
      "base_duration_us": 127117
    },
    {
      "id": "M_165",
      "pitch": 95,
      "t_note_us": 20763856,
      "t_trigger_us": 20627893,
      "is_ai": true,
      "track_id": 9,
      "velocity": 0,
      "is_motor": false,
      "motor_id": 0,
      "accel_val": 2000,
      "base_duration_us": 127117
    },
    {
      "id": "M_166",
      "pitch": 52,
      "t_note_us": 20847277,
      "t_trigger_us": 20711314,
      "is_ai": false,
      "track_id": 0,
      "velocity": 0,
      "is_motor": true,
      "motor_id": 0,
      "accel_val": 2000,
      "base_duration_us": 127117
    },
    {
      "id": "M_167",
      "pitch": 67,
      "t_note_us": 21016766,
      "t_trigger_us": 20880803,
      "is_ai": false,
      "track_id": 0,
      "velocity": 0,
      "is_motor": true,
      "motor_id": 1,
      "accel_val": 2000,
      "base_duration_us": 254237
    },
    {
      "id": "M_168",
      "pitch": 64,
      "t_note_us": 21016766,
      "t_trigger_us": 20880803,
      "is_ai": false,
      "track_id": 0,
      "velocity": 0,
      "is_motor": true,
      "motor_id": 0,
      "accel_val": 2000,
      "base_duration_us": 254237
    },
    {
      "id": "M_169",
      "pitch": 59,
      "t_note_us": 21271003,
      "t_trigger_us": 21135040,
      "is_ai": false,
      "track_id": 0,
      "velocity": 0,
      "is_motor": true,
      "motor_id": 0,
      "accel_val": 2000,
      "base_duration_us": 127117
    },
    {
      "id": "M_170",
      "pitch": 64,
      "t_note_us": 21355748,
      "t_trigger_us": 21219785,
      "is_ai": false,
      "track_id": 0,
      "velocity": 0,
      "is_motor": true,
      "motor_id": 1,
      "accel_val": 2000,
      "base_duration_us": 127117
    },
    {
      "id": "M_171",
      "pitch": 95,
      "t_note_us": 21357072,
      "t_trigger_us": 21221109,
      "is_ai": true,
      "track_id": 9,
      "velocity": 0,
      "is_motor": false,
      "motor_id": 0,
      "accel_val": 2000,
      "base_duration_us": 127117
    },
    {
      "id": "M_172",
      "pitch": 67,
      "t_note_us": 21525237,
      "t_trigger_us": 21389274,
      "is_ai": false,
      "track_id": 0,
      "velocity": 0,
      "is_motor": true,
      "motor_id": 1,
      "accel_val": 2000,
      "base_duration_us": 127117
    },
    {
      "id": "M_173",
      "pitch": 69,
      "t_note_us": 21526561,
      "t_trigger_us": 21390598,
      "is_ai": false,
      "track_id": 0,
      "velocity": 0,
      "is_motor": true,
      "motor_id": 2,
      "accel_val": 2000,
      "base_duration_us": 127117
    },
    {
      "id": "M_175",
      "pitch": 52,
      "t_note_us": 21609982,
      "t_trigger_us": 21474019,
      "is_ai": false,
      "track_id": 0,
      "velocity": 0,
      "is_motor": true,
      "motor_id": 0,
      "accel_val": 2000,
      "base_duration_us": 254234
    },
    {
      "id": "M_174",
      "pitch": 96,
      "t_note_us": 21611306,
      "t_trigger_us": 21475343,
      "is_ai": true,
      "track_id": 10,
      "velocity": 0,
      "is_motor": false,
      "motor_id": 0,
      "accel_val": 2000,
      "base_duration_us": 127117
    },
    {
      "id": "M_176",
      "pitch": 95,
      "t_note_us": 21780795,
      "t_trigger_us": 21644832,
      "is_ai": true,
      "track_id": 9,
      "velocity": 0,
      "is_motor": false,
      "motor_id": 0,
      "accel_val": 2000,
      "base_duration_us": 127117
    },
    {
      "id": "M_177",
      "pitch": 55,
      "t_note_us": 21864216,
      "t_trigger_us": 21728253,
      "is_ai": false,
      "track_id": 0,
      "velocity": 0,
      "is_motor": true,
      "motor_id": 0,
      "accel_val": 2000,
      "base_duration_us": 127117
    },
    {
      "id": "M_178",
      "pitch": 65,
      "t_note_us": 22033705,
      "t_trigger_us": 21897742,
      "is_ai": false,
      "track_id": 0,
      "velocity": 0,
      "is_motor": true,
      "motor_id": 1,
      "accel_val": 2000,
      "base_duration_us": 254237
    },
    {
      "id": "M_179",
      "pitch": 71,
      "t_note_us": 22033705,
      "t_trigger_us": 21897742,
      "is_ai": false,
      "track_id": 0,
      "velocity": 0,
      "is_motor": true,
      "motor_id": 2,
      "accel_val": 2000,
      "base_duration_us": 254237
    },
    {
      "id": "M_180",
      "pitch": 62,
      "t_note_us": 22287942,
      "t_trigger_us": 22151979,
      "is_ai": false,
      "track_id": 0,
      "velocity": 0,
      "is_motor": true,
      "motor_id": 1,
      "accel_val": 2000,
      "base_duration_us": 127117
    },
    {
      "id": "M_181",
      "pitch": 95,
      "t_note_us": 22289266,
      "t_trigger_us": 22153303,
      "is_ai": true,
      "track_id": 9,
      "velocity": 0,
      "is_motor": false,
      "motor_id": 0,
      "accel_val": 2000,
      "base_duration_us": 127117
    },
    {
      "id": "M_182",
      "pitch": 65,
      "t_note_us": 22372687,
      "t_trigger_us": 22236724,
      "is_ai": false,
      "track_id": 0,
      "velocity": 0,
      "is_motor": true,
      "motor_id": 0,
      "accel_val": 2000,
      "base_duration_us": 127117
    },
    {
      "id": "M_183",
      "pitch": 69,
      "t_note_us": 22374011,
      "t_trigger_us": 22238048,
      "is_ai": false,
      "track_id": 0,
      "velocity": 0,
      "is_motor": true,
      "motor_id": 2,
      "accel_val": 2000,
      "base_duration_us": 127117
    },
    {
      "id": "M_184",
      "pitch": 71,
      "t_note_us": 22542176,
      "t_trigger_us": 22406213,
      "is_ai": false,
      "track_id": 0,
      "velocity": 0,
      "is_motor": true,
      "motor_id": 1,
      "accel_val": 2000,
      "base_duration_us": 127117
    },
    {
      "id": "M_185",
      "pitch": 67,
      "t_note_us": 22543500,
      "t_trigger_us": 22407537,
      "is_ai": false,
      "track_id": 0,
      "velocity": 0,
      "is_motor": true,
      "motor_id": 2,
      "accel_val": 2000,
      "base_duration_us": 127117
    },
    {
      "id": "M_187",
      "pitch": 55,
      "t_note_us": 22626921,
      "t_trigger_us": 22490958,
      "is_ai": false,
      "track_id": 0,
      "velocity": 0,
      "is_motor": true,
      "motor_id": 0,
      "accel_val": 2000,
      "base_duration_us": 254234
    },
    {
      "id": "M_186",
      "pitch": 78,
      "t_note_us": 22628245,
      "t_trigger_us": 22492282,
      "is_ai": false,
      "track_id": 0,
      "velocity": 0,
      "is_motor": true,
      "motor_id": 3,
      "accel_val": 2000,
      "base_duration_us": 127117
    },
    {
      "id": "M_188",
      "pitch": 67,
      "t_note_us": 22797734,
      "t_trigger_us": 22661771,
      "is_ai": false,
      "track_id": 0,
      "velocity": 0,
      "is_motor": true,
      "motor_id": 1,
      "accel_val": 2000,
      "base_duration_us": 127117
    },
    {
      "id": "M_189",
      "pitch": 48,
      "t_note_us": 22881155,
      "t_trigger_us": 22745192,
      "is_ai": false,
      "track_id": 0,
      "velocity": 0,
      "is_motor": true,
      "motor_id": 0,
      "accel_val": 2000,
      "base_duration_us": 127117
    },
    {
      "id": "M_190",
      "pitch": 64,
      "t_note_us": 23050644,
      "t_trigger_us": 22914681,
      "is_ai": false,
      "track_id": 0,
      "velocity": 0,
      "is_motor": true,
      "motor_id": 1,
      "accel_val": 2000,
      "base_duration_us": 254237
    },
    {
      "id": "M_191",
      "pitch": 60,
      "t_note_us": 23050644,
      "t_trigger_us": 22914681,
      "is_ai": false,
      "track_id": 0,
      "velocity": 0,
      "is_motor": true,
      "motor_id": 0,
      "accel_val": 2000,
      "base_duration_us": 254237
    },
    {
      "id": "M_192",
      "pitch": 55,
      "t_note_us": 23304881,
      "t_trigger_us": 23168918,
      "is_ai": false,
      "track_id": 0,
      "velocity": 0,
      "is_motor": true,
      "motor_id": 0,
      "accel_val": 2000,
      "base_duration_us": 127117
    },
    {
      "id": "M_193",
      "pitch": 60,
      "t_note_us": 23389626,
      "t_trigger_us": 23253663,
      "is_ai": false,
      "track_id": 0,
      "velocity": 0,
      "is_motor": true,
      "motor_id": 1,
      "accel_val": 2000,
      "base_duration_us": 127117
    },
    {
      "id": "M_194",
      "pitch": 98,
      "t_note_us": 23390950,
      "t_trigger_us": 23254987,
      "is_ai": true,
      "track_id": 11,
      "velocity": 0,
      "is_motor": false,
      "motor_id": 0,
      "accel_val": 2000,
      "base_duration_us": 127117
    },
    {
      "id": "M_195",
      "pitch": 64,
      "t_note_us": 23559115,
      "t_trigger_us": 23423152,
      "is_ai": false,
      "track_id": 0,
      "velocity": 0,
      "is_motor": true,
      "motor_id": 1,
      "accel_val": 2000,
      "base_duration_us": 127117
    },
    {
      "id": "M_196",
      "pitch": 96,
      "t_note_us": 23560439,
      "t_trigger_us": 23424476,
      "is_ai": true,
      "track_id": 10,
      "velocity": 0,
      "is_motor": false,
      "motor_id": 0,
      "accel_val": 2000,
      "base_duration_us": 127117
    },
    {
      "id": "M_198",
      "pitch": 48,
      "t_note_us": 23643860,
      "t_trigger_us": 23507897,
      "is_ai": false,
      "track_id": 0,
      "velocity": 0,
      "is_motor": true,
      "motor_id": 0,
      "accel_val": 2000,
      "base_duration_us": 254234
    },
    {
      "id": "M_197",
      "pitch": 95,
      "t_note_us": 23645184,
      "t_trigger_us": 23509221,
      "is_ai": true,
      "track_id": 9,
      "velocity": 0,
      "is_motor": false,
      "motor_id": 0,
      "accel_val": 2000,
      "base_duration_us": 127117
    },
    {
      "id": "M_199",
      "pitch": 69,
      "t_note_us": 23814673,
      "t_trigger_us": 23678710,
      "is_ai": false,
      "track_id": 0,
      "velocity": 0,
      "is_motor": true,
      "motor_id": 1,
      "accel_val": 2000,
      "base_duration_us": 127117
    },
    {
      "id": "M_200",
      "pitch": 54,
      "t_note_us": 23898094,
      "t_trigger_us": 23762131,
      "is_ai": false,
      "track_id": 0,
      "velocity": 0,
      "is_motor": true,
      "motor_id": 0,
      "accel_val": 2000,
      "base_duration_us": 127117
    },
    {
      "id": "M_201",
      "pitch": 69,
      "t_note_us": 24067583,
      "t_trigger_us": 23931620,
      "is_ai": false,
      "track_id": 0,
      "velocity": 0,
      "is_motor": true,
      "motor_id": 1,
      "accel_val": 2000,
      "base_duration_us": 254237
    },
    {
      "id": "M_202",
      "pitch": 66,
      "t_note_us": 24067583,
      "t_trigger_us": 23931620,
      "is_ai": false,
      "track_id": 0,
      "velocity": 0,
      "is_motor": true,
      "motor_id": 2,
      "accel_val": 2000,
      "base_duration_us": 254237
    },
    {
      "id": "M_203",
      "pitch": 59,
      "t_note_us": 24321820,
      "t_trigger_us": 24185857,
      "is_ai": false,
      "track_id": 0,
      "velocity": 0,
      "is_motor": true,
      "motor_id": 0,
      "accel_val": 2000,
      "base_duration_us": 127117
    },
    {
      "id": "M_204",
      "pitch": 66,
      "t_note_us": 24406565,
      "t_trigger_us": 24270602,
      "is_ai": false,
      "track_id": 0,
      "velocity": 0,
      "is_motor": true,
      "motor_id": 1,
      "accel_val": 2000,
      "base_duration_us": 127117
    },
    {
      "id": "M_205",
      "pitch": 67,
      "t_note_us": 24407889,
      "t_trigger_us": 24271926,
      "is_ai": false,
      "track_id": 0,
      "velocity": 0,
      "is_motor": true,
      "motor_id": 2,
      "accel_val": 2000,
      "base_duration_us": 127117
    },
    {
      "id": "M_206",
      "pitch": 69,
      "t_note_us": 24576054,
      "t_trigger_us": 24440091,
      "is_ai": false,
      "track_id": 0,
      "velocity": 0,
      "is_motor": true,
      "motor_id": 1,
      "accel_val": 2000,
      "base_duration_us": 127117
    },
    {
      "id": "M_207",
      "pitch": 68,
      "t_note_us": 24577378,
      "t_trigger_us": 24441415,
      "is_ai": false,
      "track_id": 0,
      "velocity": 0,
      "is_motor": true,
      "motor_id": 2,
      "accel_val": 2000,
      "base_duration_us": 127117
    },
    {
      "id": "M_209",
      "pitch": 54,
      "t_note_us": 24660799,
      "t_trigger_us": 24524836,
      "is_ai": false,
      "track_id": 0,
      "velocity": 0,
      "is_motor": true,
      "motor_id": 0,
      "accel_val": 2000,
      "base_duration_us": 254234
    },
    {
      "id": "M_208",
      "pitch": 69,
      "t_note_us": 24662123,
      "t_trigger_us": 24526160,
      "is_ai": false,
      "track_id": 0,
      "velocity": 0,
      "is_motor": true,
      "motor_id": 3,
      "accel_val": 2000,
      "base_duration_us": 127117
    },
    {
      "id": "M_210",
      "pitch": 95,
      "t_note_us": 24831612,
      "t_trigger_us": 24695649,
      "is_ai": true,
      "track_id": 9,
      "velocity": 0,
      "is_motor": false,
      "motor_id": 0,
      "accel_val": 2000,
      "base_duration_us": 127117
    },
    {
      "id": "M_211",
      "pitch": 52,
      "t_note_us": 24915033,
      "t_trigger_us": 24779070,
      "is_ai": false,
      "track_id": 0,
      "velocity": 0,
      "is_motor": true,
      "motor_id": 0,
      "accel_val": 2000,
      "base_duration_us": 127117
    },
    {
      "id": "M_212",
      "pitch": 67,
      "t_note_us": 25084522,
      "t_trigger_us": 24948559,
      "is_ai": false,
      "track_id": 0,
      "velocity": 0,
      "is_motor": true,
      "motor_id": 1,
      "accel_val": 2000,
      "base_duration_us": 254237
    },
    {
      "id": "M_213",
      "pitch": 64,
      "t_note_us": 25084522,
      "t_trigger_us": 24948559,
      "is_ai": false,
      "track_id": 0,
      "velocity": 0,
      "is_motor": true,
      "motor_id": 0,
      "accel_val": 2000,
      "base_duration_us": 254237
    },
    {
      "id": "M_214",
      "pitch": 59,
      "t_note_us": 25338759,
      "t_trigger_us": 25202796,
      "is_ai": false,
      "track_id": 0,
      "velocity": 0,
      "is_motor": true,
      "motor_id": 0,
      "accel_val": 2000,
      "base_duration_us": 127117
    },
    {
      "id": "M_215",
      "pitch": 64,
      "t_note_us": 25423504,
      "t_trigger_us": 25287541,
      "is_ai": false,
      "track_id": 0,
      "velocity": 0,
      "is_motor": true,
      "motor_id": 1,
      "accel_val": 2000,
      "base_duration_us": 127117
    },
    {
      "id": "M_216",
      "pitch": 95,
      "t_note_us": 25424828,
      "t_trigger_us": 25288865,
      "is_ai": true,
      "track_id": 9,
      "velocity": 0,
      "is_motor": false,
      "motor_id": 0,
      "accel_val": 2000,
      "base_duration_us": 127117
    },
    {
      "id": "M_217",
      "pitch": 67,
      "t_note_us": 25592993,
      "t_trigger_us": 25457030,
      "is_ai": false,
      "track_id": 0,
      "velocity": 0,
      "is_motor": true,
      "motor_id": 1,
      "accel_val": 2000,
      "base_duration_us": 127117
    },
    {
      "id": "M_218",
      "pitch": 69,
      "t_note_us": 25594317,
      "t_trigger_us": 25458354,
      "is_ai": false,
      "track_id": 0,
      "velocity": 0,
      "is_motor": true,
      "motor_id": 2,
      "accel_val": 2000,
      "base_duration_us": 127117
    },
    {
      "id": "M_220",
      "pitch": 52,
      "t_note_us": 25677738,
      "t_trigger_us": 25541775,
      "is_ai": false,
      "track_id": 0,
      "velocity": 0,
      "is_motor": true,
      "motor_id": 0,
      "accel_val": 2000,
      "base_duration_us": 254234
    },
    {
      "id": "M_219",
      "pitch": 96,
      "t_note_us": 25679062,
      "t_trigger_us": 25543099,
      "is_ai": true,
      "track_id": 10,
      "velocity": 0,
      "is_motor": false,
      "motor_id": 0,
      "accel_val": 2000,
      "base_duration_us": 127117
    },
    {
      "id": "M_221",
      "pitch": 95,
      "t_note_us": 25848551,
      "t_trigger_us": 25712588,
      "is_ai": true,
      "track_id": 9,
      "velocity": 0,
      "is_motor": false,
      "motor_id": 0,
      "accel_val": 2000,
      "base_duration_us": 127117
    },
    {
      "id": "M_222",
      "pitch": 55,
      "t_note_us": 25931972,
      "t_trigger_us": 25796009,
      "is_ai": false,
      "track_id": 0,
      "velocity": 0,
      "is_motor": true,
      "motor_id": 0,
      "accel_val": 2000,
      "base_duration_us": 127117
    },
    {
      "id": "M_223",
      "pitch": 65,
      "t_note_us": 26101461,
      "t_trigger_us": 25965498,
      "is_ai": false,
      "track_id": 0,
      "velocity": 0,
      "is_motor": true,
      "motor_id": 1,
      "accel_val": 2000,
      "base_duration_us": 254237
    },
    {
      "id": "M_224",
      "pitch": 71,
      "t_note_us": 26101461,
      "t_trigger_us": 25965498,
      "is_ai": false,
      "track_id": 0,
      "velocity": 0,
      "is_motor": true,
      "motor_id": 2,
      "accel_val": 2000,
      "base_duration_us": 254237
    },
    {
      "id": "M_225",
      "pitch": 62,
      "t_note_us": 26355698,
      "t_trigger_us": 26219735,
      "is_ai": false,
      "track_id": 0,
      "velocity": 0,
      "is_motor": true,
      "motor_id": 1,
      "accel_val": 2000,
      "base_duration_us": 127117
    },
    {
      "id": "M_226",
      "pitch": 95,
      "t_note_us": 26357022,
      "t_trigger_us": 26221059,
      "is_ai": true,
      "track_id": 9,
      "velocity": 0,
      "is_motor": false,
      "motor_id": 0,
      "accel_val": 2000,
      "base_duration_us": 127117
    },
    {
      "id": "M_228",
      "pitch": 55,
      "t_note_us": 26440443,
      "t_trigger_us": 26304480,
      "is_ai": false,
      "track_id": 0,
      "velocity": 0,
      "is_motor": true,
      "motor_id": 0,
      "accel_val": 2000,
      "base_duration_us": 254234
    },
    {
      "id": "M_227",
      "pitch": 69,
      "t_note_us": 26441767,
      "t_trigger_us": 26305804,
      "is_ai": false,
      "track_id": 0,
      "velocity": 0,
      "is_motor": true,
      "motor_id": 2,
      "accel_val": 2000,
      "base_duration_us": 127117
    },
    {
      "id": "M_229",
      "pitch": 67,
      "t_note_us": 26611256,
      "t_trigger_us": 26475293,
      "is_ai": false,
      "track_id": 0,
      "velocity": 0,
      "is_motor": true,
      "motor_id": 1,
      "accel_val": 2000,
      "base_duration_us": 127117
    },
    {
      "id": "M_230",
      "pitch": 71,
      "t_note_us": 26694677,
      "t_trigger_us": 26558714,
      "is_ai": false,
      "track_id": 0,
      "velocity": 0,
      "is_motor": true,
      "motor_id": 2,
      "accel_val": 2000,
      "base_duration_us": 254236
    },
    {
      "id": "M_231",
      "pitch": 65,
      "t_note_us": 26694677,
      "t_trigger_us": 26558714,
      "is_ai": false,
      "track_id": 0,
      "velocity": 0,
      "is_motor": true,
      "motor_id": 0,
      "accel_val": 2000,
      "base_duration_us": 254236
    },
    {
      "id": "M_232",
      "pitch": 78,
      "t_note_us": 26696001,
      "t_trigger_us": 26560038,
      "is_ai": false,
      "track_id": 0,
      "velocity": 0,
      "is_motor": true,
      "motor_id": 3,
      "accel_val": 2000,
      "base_duration_us": 254236
    },
    {
      "id": "M_233",
      "pitch": 64,
      "t_note_us": 26948913,
      "t_trigger_us": 26812950,
      "is_ai": false,
      "track_id": 0,
      "velocity": 0,
      "is_motor": true,
      "motor_id": 1,
      "accel_val": 2000,
      "base_duration_us": 127118
    },
    {
      "id": "M_234",
      "pitch": 71,
      "t_note_us": 27118403,
      "t_trigger_us": 26982440,
      "is_ai": false,
      "track_id": 0,
      "velocity": 0,
      "is_motor": true,
      "motor_id": 1,
      "accel_val": 2000,
      "base_duration_us": 127117
    },
    {
      "id": "M_235",
      "pitch": 71,
      "t_note_us": 27203148,
      "t_trigger_us": 27067185,
      "is_ai": false,
      "track_id": 0,
      "velocity": 0,
      "is_motor": true,
      "motor_id": 2,
      "accel_val": 2000,
      "base_duration_us": 127117
    },
    {
      "id": "M_236",
      "pitch": 76,
      "t_note_us": 27372637,
      "t_trigger_us": 27236674,
      "is_ai": false,
      "track_id": 0,
      "velocity": 0,
      "is_motor": true,
      "motor_id": 2,
      "accel_val": 2000,
      "base_duration_us": 127117
    },
    {
      "id": "M_237",
      "pitch": 71,
      "t_note_us": 27458706,
      "t_trigger_us": 27322743,
      "is_ai": false,
      "track_id": 0,
      "velocity": 0,
      "is_motor": true,
      "motor_id": 1,
      "accel_val": 2000,
      "base_duration_us": 254236
    },
    {
      "id": "M_238",
      "pitch": 69,
      "t_note_us": 27712942,
      "t_trigger_us": 27576979,
      "is_ai": false,
      "track_id": 0,
      "velocity": 0,
      "is_motor": true,
      "motor_id": 1,
      "accel_val": 2000,
      "base_duration_us": 254236
    },
    {
      "id": "M_239",
      "pitch": 66,
      "t_note_us": 27965854,
      "t_trigger_us": 27829891,
      "is_ai": false,
      "track_id": 0,
      "velocity": 0,
      "is_motor": true,
      "motor_id": 2,
      "accel_val": 2000,
      "base_duration_us": 127118
    },
    {
      "id": "M_240",
      "pitch": 71,
      "t_note_us": 28135344,
      "t_trigger_us": 27999381,
      "is_ai": false,
      "track_id": 0,
      "velocity": 0,
      "is_motor": true,
      "motor_id": 1,
      "accel_val": 2000,
      "base_duration_us": 127117
    },
    {
      "id": "M_241",
      "pitch": 69,
      "t_note_us": 28220089,
      "t_trigger_us": 28084126,
      "is_ai": false,
      "track_id": 0,
      "velocity": 0,
      "is_motor": true,
      "motor_id": 2,
      "accel_val": 2000,
      "base_duration_us": 127117
    },
    {
      "id": "M_242",
      "pitch": 75,
      "t_note_us": 28389578,
      "t_trigger_us": 28253615,
      "is_ai": false,
      "track_id": 0,
      "velocity": 0,
      "is_motor": true,
      "motor_id": 2,
      "accel_val": 2000,
      "base_duration_us": 127117
    },
    {
      "id": "M_243",
      "pitch": 69,
      "t_note_us": 28475647,
      "t_trigger_us": 28339684,
      "is_ai": false,
      "track_id": 0,
      "velocity": 0,
      "is_motor": true,
      "motor_id": 1,
      "accel_val": 2000,
      "base_duration_us": 127117
    },
    {
      "id": "M_244",
      "pitch": 71,
      "t_note_us": 28645136,
      "t_trigger_us": 28509173,
      "is_ai": false,
      "track_id": 0,
      "velocity": 0,
      "is_motor": true,
      "motor_id": 1,
      "accel_val": 2000,
      "base_duration_us": 127117
    },
    {
      "id": "M_245",
      "pitch": 67,
      "t_note_us": 28729881,
      "t_trigger_us": 28593918,
      "is_ai": false,
      "track_id": 0,
      "velocity": 0,
      "is_motor": true,
      "motor_id": 2,
      "accel_val": 2000,
      "base_duration_us": 254236
    },
    {
      "id": "M_246",
      "pitch": 64,
      "t_note_us": 28982793,
      "t_trigger_us": 28846830,
      "is_ai": false,
      "track_id": 0,
      "velocity": 0,
      "is_motor": true,
      "motor_id": 1,
      "accel_val": 2000,
      "base_duration_us": 127118
    },
    {
      "id": "M_247",
      "pitch": 71,
      "t_note_us": 29152283,
      "t_trigger_us": 29016320,
      "is_ai": false,
      "track_id": 0,
      "velocity": 0,
      "is_motor": true,
      "motor_id": 1,
      "accel_val": 2000,
      "base_duration_us": 127117
    },
    {
      "id": "M_248",
      "pitch": 74,
      "t_note_us": 29237028,
      "t_trigger_us": 29101065,
      "is_ai": false,
      "track_id": 0,
      "velocity": 0,
      "is_motor": true,
      "motor_id": 0,
      "accel_val": 2000,
      "base_duration_us": 127117
    },
    {
      "id": "M_249",
      "pitch": 74,
      "t_note_us": 29406517,
      "t_trigger_us": 29270554,
      "is_ai": false,
      "track_id": 0,
      "velocity": 0,
      "is_motor": true,
      "motor_id": 1,
      "accel_val": 2000,
      "base_duration_us": 127117
    },
    {
      "id": "M_250",
      "pitch": 69,
      "t_note_us": 29407841,
      "t_trigger_us": 29271878,
      "is_ai": false,
      "track_id": 0,
      "velocity": 0,
      "is_motor": true,
      "motor_id": 2,
      "accel_val": 2000,
      "base_duration_us": 127117
    },
    {
      "id": "M_251",
      "pitch": 76,
      "t_note_us": 29492586,
      "t_trigger_us": 29356623,
      "is_ai": false,
      "track_id": 0,
      "velocity": 0,
      "is_motor": true,
      "motor_id": 3,
      "accel_val": 2000,
      "base_duration_us": 254236
    },
    {
      "id": "M_252",
      "pitch": 74,
      "t_note_us": 29746822,
      "t_trigger_us": 29610859,
      "is_ai": false,
      "track_id": 0,
      "velocity": 0,
      "is_motor": true,
      "motor_id": 1,
      "accel_val": 2000,
      "base_duration_us": 254236
    },
    {
      "id": "M_253",
      "pitch": 67,
      "t_note_us": 29999734,
      "t_trigger_us": 29863771,
      "is_ai": false,
      "track_id": 0,
      "velocity": 0,
      "is_motor": true,
      "motor_id": 2,
      "accel_val": 2000,
      "base_duration_us": 127118
    },
    {
      "id": "M_254",
      "pitch": 71,
      "t_note_us": 30169224,
      "t_trigger_us": 30033261,
      "is_ai": false,
      "track_id": 0,
      "velocity": 0,
      "is_motor": true,
      "motor_id": 1,
      "accel_val": 2000,
      "base_duration_us": 127117
    },
    {
      "id": "M_255",
      "pitch": 71,
      "t_note_us": 30253969,
      "t_trigger_us": 30118006,
      "is_ai": false,
      "track_id": 0,
      "velocity": 0,
      "is_motor": true,
      "motor_id": 2,
      "accel_val": 2000,
      "base_duration_us": 127117
    },
    {
      "id": "M_256",
      "pitch": 77,
      "t_note_us": 30423458,
      "t_trigger_us": 30287495,
      "is_ai": false,
      "track_id": 0,
      "velocity": 0,
      "is_motor": true,
      "motor_id": 2,
      "accel_val": 2000,
      "base_duration_us": 127117
    },
    {
      "id": "M_257",
      "pitch": 67,
      "t_note_us": 30424782,
      "t_trigger_us": 30288819,
      "is_ai": false,
      "track_id": 0,
      "velocity": 0,
      "is_motor": true,
      "motor_id": 1,
      "accel_val": 2000,
      "base_duration_us": 127117
    },
    {
      "id": "M_258",
      "pitch": 71,
      "t_note_us": 30509527,
      "t_trigger_us": 30373564,
      "is_ai": false,
      "track_id": 0,
      "velocity": 0,
      "is_motor": true,
      "motor_id": 0,
      "accel_val": 2000,
      "base_duration_us": 254236
    },
    {
      "id": "M_259",
      "pitch": 67,
      "t_note_us": 30763763,
      "t_trigger_us": 30627800,
      "is_ai": false,
      "track_id": 0,
      "velocity": 0,
      "is_motor": true,
      "motor_id": 1,
      "accel_val": 2000,
      "base_duration_us": 254236
    },
    {
      "id": "M_260",
      "pitch": 64,
      "t_note_us": 31016675,
      "t_trigger_us": 30880712,
      "is_ai": false,
      "track_id": 0,
      "velocity": 0,
      "is_motor": true,
      "motor_id": 0,
      "accel_val": 2000,
      "base_duration_us": 127118
    },
    {
      "id": "M_261",
      "pitch": 71,
      "t_note_us": 31186165,
      "t_trigger_us": 31050202,
      "is_ai": false,
      "track_id": 0,
      "velocity": 0,
      "is_motor": true,
      "motor_id": 1,
      "accel_val": 2000,
      "base_duration_us": 127117
    },
    {
      "id": "M_262",
      "pitch": 71,
      "t_note_us": 31270910,
      "t_trigger_us": 31134947,
      "is_ai": false,
      "track_id": 0,
      "velocity": 0,
      "is_motor": true,
      "motor_id": 2,
      "accel_val": 2000,
      "base_duration_us": 127117
    },
    {
      "id": "M_263",
      "pitch": 76,
      "t_note_us": 31440399,
      "t_trigger_us": 31304436,
      "is_ai": false,
      "track_id": 0,
      "velocity": 0,
      "is_motor": true,
      "motor_id": 2,
      "accel_val": 2000,
      "base_duration_us": 127118
    },
    {
      "id": "M_264",
      "pitch": 66,
      "t_note_us": 32033618,
      "t_trigger_us": 31897655,
      "is_ai": false,
      "track_id": 0,
      "velocity": 0,
      "is_motor": true,
      "motor_id": 1,
      "accel_val": 2000,
      "base_duration_us": 127118
    },
    {
      "id": "M_265",
      "pitch": 71,
      "t_note_us": 32203108,
      "t_trigger_us": 32067145,
      "is_ai": false,
      "track_id": 0,
      "velocity": 0,
      "is_motor": true,
      "motor_id": 1,
      "accel_val": 2000,
      "base_duration_us": 127117
    },
    {
      "id": "M_266",
      "pitch": 69,
      "t_note_us": 32287853,
      "t_trigger_us": 32151890,
      "is_ai": false,
      "track_id": 0,
      "velocity": 0,
      "is_motor": true,
      "motor_id": 2,
      "accel_val": 2000,
      "base_duration_us": 127117
    },
    {
      "id": "M_267",
      "pitch": 78,
      "t_note_us": 32289177,
      "t_trigger_us": 32153214,
      "is_ai": false,
      "track_id": 0,
      "velocity": 0,
      "is_motor": true,
      "motor_id": 3,
      "accel_val": 2000,
      "base_duration_us": 254234
    },
    {
      "id": "M_268",
      "pitch": 75,
      "t_note_us": 32457342,
      "t_trigger_us": 32321379,
      "is_ai": false,
      "track_id": 0,
      "velocity": 0,
      "is_motor": true,
      "motor_id": 2,
      "accel_val": 2000,
      "base_duration_us": 127117
    },
    {
      "id": "M_269",
      "pitch": 69,
      "t_note_us": 32543411,
      "t_trigger_us": 32407448,
      "is_ai": false,
      "track_id": 0,
      "velocity": 0,
      "is_motor": true,
      "motor_id": 1,
      "accel_val": 2000,
      "base_duration_us": 254236
    },
    {
      "id": "M_270",
      "pitch": 78,
      "t_note_us": 32797647,
      "t_trigger_us": 32661684,
      "is_ai": false,
      "track_id": 0,
      "velocity": 0,
      "is_motor": true,
      "motor_id": 2,
      "accel_val": 2000,
      "base_duration_us": 254236
    },
    {
      "id": "M_271",
      "pitch": 64,
      "t_note_us": 33050559,
      "t_trigger_us": 32914596,
      "is_ai": false,
      "track_id": 0,
      "velocity": 0,
      "is_motor": true,
      "motor_id": 1,
      "accel_val": 2000,
      "base_duration_us": 127118
    },
    {
      "id": "M_274",
      "pitch": 67,
      "t_note_us": 33051883,
      "t_trigger_us": 32915920,
      "is_ai": false,
      "track_id": 0,
      "velocity": 0,
      "is_motor": true,
      "motor_id": 2,
      "accel_val": 2000,
      "base_duration_us": 508469
    },
    {
      "id": "M_272",
      "pitch": 71,
      "t_note_us": 33220049,
      "t_trigger_us": 33084086,
      "is_ai": false,
      "track_id": 0,
      "velocity": 0,
      "is_motor": true,
      "motor_id": 1,
      "accel_val": 2000,
      "base_duration_us": 127117
    },
    {
      "id": "M_273",
      "pitch": 74,
      "t_note_us": 33304794,
      "t_trigger_us": 33168831,
      "is_ai": false,
      "track_id": 0,
      "velocity": 0,
      "is_motor": true,
      "motor_id": 0,
      "accel_val": 2000,
      "base_duration_us": 127117
    },
    {
      "id": "M_275",
      "pitch": 69,
      "t_note_us": 33474283,
      "t_trigger_us": 33338320,
      "is_ai": false,
      "track_id": 0,
      "velocity": 0,
      "is_motor": true,
      "motor_id": 1,
      "accel_val": 2000,
      "base_duration_us": 127117
    },
    {
      "id": "M_276",
      "pitch": 74,
      "t_note_us": 33560352,
      "t_trigger_us": 33424389,
      "is_ai": false,
      "track_id": 0,
      "velocity": 0,
      "is_motor": true,
      "motor_id": 0,
      "accel_val": 2000,
      "base_duration_us": 508473
    },
    {
      "id": "M_277",
      "pitch": 67,
      "t_note_us": 34067501,
      "t_trigger_us": 33931538,
      "is_ai": false,
      "track_id": 0,
      "velocity": 0,
      "is_motor": true,
      "motor_id": 1,
      "accel_val": 2000,
      "base_duration_us": 127118
    },
    {
      "id": "M_280",
      "pitch": 72,
      "t_note_us": 34068825,
      "t_trigger_us": 33932862,
      "is_ai": false,
      "track_id": 0,
      "velocity": 0,
      "is_motor": true,
      "motor_id": 0,
      "accel_val": 2000,
      "base_duration_us": 508469
    },
    {
      "id": "M_278",
      "pitch": 71,
      "t_note_us": 34236991,
      "t_trigger_us": 34101028,
      "is_ai": false,
      "track_id": 0,
      "velocity": 0,
      "is_motor": true,
      "motor_id": 1,
      "accel_val": 2000,
      "base_duration_us": 127117
    },
    {
      "id": "M_279",
      "pitch": 77,
      "t_note_us": 34321736,
      "t_trigger_us": 34185773,
      "is_ai": false,
      "track_id": 0,
      "velocity": 0,
      "is_motor": true,
      "motor_id": 2,
      "accel_val": 2000,
      "base_duration_us": 127117
    },
    {
      "id": "M_281",
      "pitch": 67,
      "t_note_us": 34491225,
      "t_trigger_us": 34355262,
      "is_ai": false,
      "track_id": 0,
      "velocity": 0,
      "is_motor": true,
      "motor_id": 1,
      "accel_val": 2000,
      "base_duration_us": 127117
    },
    {
      "id": "M_282",
      "pitch": 71,
      "t_note_us": 34577294,
      "t_trigger_us": 34441331,
      "is_ai": false,
      "track_id": 0,
      "velocity": 0,
      "is_motor": true,
      "motor_id": 2,
      "accel_val": 2000,
      "base_duration_us": 508473
    },
    {
      "id": "M_283",
      "pitch": 64,
      "t_note_us": 35084443,
      "t_trigger_us": 34948480,
      "is_ai": false,
      "track_id": 0,
      "velocity": 0,
      "is_motor": true,
      "motor_id": 1,
      "accel_val": 2000,
      "base_duration_us": 127118
    },
    {
      "id": "M_284",
      "pitch": 71,
      "t_note_us": 35253933,
      "t_trigger_us": 35117970,
      "is_ai": false,
      "track_id": 0,
      "velocity": 0,
      "is_motor": true,
      "motor_id": 1,
      "accel_val": 2000,
      "base_duration_us": 127117
    },
    {
      "id": "M_285",
      "pitch": 71,
      "t_note_us": 35338678,
      "t_trigger_us": 35202715,
      "is_ai": false,
      "track_id": 0,
      "velocity": 0,
      "is_motor": true,
      "motor_id": 2,
      "accel_val": 2000,
      "base_duration_us": 127117
    },
    {
      "id": "M_286",
      "pitch": 76,
      "t_note_us": 35508167,
      "t_trigger_us": 35372204,
      "is_ai": false,
      "track_id": 0,
      "velocity": 0,
      "is_motor": true,
      "motor_id": 2,
      "accel_val": 2000,
      "base_duration_us": 127117
    },
    {
      "id": "M_287",
      "pitch": 95,
      "t_note_us": 35594236,
      "t_trigger_us": 35458273,
      "is_ai": true,
      "track_id": 9,
      "velocity": 0,
      "is_motor": true,
      "motor_id": 3,
      "accel_val": 2000,
      "base_duration_us": 254236
    },
    {
      "id": "M_288",
      "pitch": 69,
      "t_note_us": 35848472,
      "t_trigger_us": 35712509,
      "is_ai": false,
      "track_id": 0,
      "velocity": 0,
      "is_motor": true,
      "motor_id": 1,
      "accel_val": 2000,
      "base_duration_us": 254236
    },
    {
      "id": "M_289",
      "pitch": 66,
      "t_note_us": 36101384,
      "t_trigger_us": 35965421,
      "is_ai": false,
      "track_id": 0,
      "velocity": 0,
      "is_motor": true,
      "motor_id": 2,
      "accel_val": 2000,
      "base_duration_us": 127118
    },
    {
      "id": "M_290",
      "pitch": 71,
      "t_note_us": 36270874,
      "t_trigger_us": 36134911,
      "is_ai": false,
      "track_id": 0,
      "velocity": 0,
      "is_motor": true,
      "motor_id": 1,
      "accel_val": 2000,
      "base_duration_us": 127117
    },
    {
      "id": "M_291",
      "pitch": 69,
      "t_note_us": 36355619,
      "t_trigger_us": 36219656,
      "is_ai": false,
      "track_id": 0,
      "velocity": 0,
      "is_motor": true,
      "motor_id": 2,
      "accel_val": 2000,
      "base_duration_us": 127117
    },
    {
      "id": "M_292",
      "pitch": 75,
      "t_note_us": 36525108,
      "t_trigger_us": 36389145,
      "is_ai": false,
      "track_id": 0,
      "velocity": 0,
      "is_motor": true,
      "motor_id": 2,
      "accel_val": 2000,
      "base_duration_us": 127117
    },
    {
      "id": "M_293",
      "pitch": 69,
      "t_note_us": 36611177,
      "t_trigger_us": 36475214,
      "is_ai": false,
      "track_id": 0,
      "velocity": 0,
      "is_motor": true,
      "motor_id": 1,
      "accel_val": 2000,
      "base_duration_us": 127117
    },
    {
      "id": "M_294",
      "pitch": 71,
      "t_note_us": 36780666,
      "t_trigger_us": 36644703,
      "is_ai": false,
      "track_id": 0,
      "velocity": 0,
      "is_motor": true,
      "motor_id": 1,
      "accel_val": 2000,
      "base_duration_us": 127117
    },
    {
      "id": "M_295",
      "pitch": 67,
      "t_note_us": 36865411,
      "t_trigger_us": 36729448,
      "is_ai": false,
      "track_id": 0,
      "velocity": 0,
      "is_motor": true,
      "motor_id": 2,
      "accel_val": 2000,
      "base_duration_us": 254236
    },
    {
      "id": "M_296",
      "pitch": 64,
      "t_note_us": 37118323,
      "t_trigger_us": 36982360,
      "is_ai": false,
      "track_id": 0,
      "velocity": 0,
      "is_motor": true,
      "motor_id": 1,
      "accel_val": 2000,
      "base_duration_us": 127118
    },
    {
      "id": "M_297",
      "pitch": 71,
      "t_note_us": 37287813,
      "t_trigger_us": 37151850,
      "is_ai": false,
      "track_id": 0,
      "velocity": 0,
      "is_motor": true,
      "motor_id": 1,
      "accel_val": 2000,
      "base_duration_us": 127117
    },
    {
      "id": "M_298",
      "pitch": 74,
      "t_note_us": 37372558,
      "t_trigger_us": 37236595,
      "is_ai": false,
      "track_id": 0,
      "velocity": 0,
      "is_motor": true,
      "motor_id": 0,
      "accel_val": 2000,
      "base_duration_us": 127117
    },
    {
      "id": "M_299",
      "pitch": 74,
      "t_note_us": 37542047,
      "t_trigger_us": 37406084,
      "is_ai": false,
      "track_id": 0,
      "velocity": 0,
      "is_motor": true,
      "motor_id": 1,
      "accel_val": 2000,
      "base_duration_us": 127117
    },
    {
      "id": "M_300",
      "pitch": 76,
      "t_note_us": 37628116,
      "t_trigger_us": 37492153,
      "is_ai": false,
      "track_id": 0,
      "velocity": 0,
      "is_motor": true,
      "motor_id": 2,
      "accel_val": 2000,
      "base_duration_us": 127117
    },
    {
      "id": "M_301",
      "pitch": 74,
      "t_note_us": 37882350,
      "t_trigger_us": 37746387,
      "is_ai": false,
      "track_id": 0,
      "velocity": 0,
      "is_motor": true,
      "motor_id": 1,
      "accel_val": 2000,
      "base_duration_us": 42372
    },
    {
      "id": "M_302",
      "pitch": 67,
      "t_note_us": 38135262,
      "t_trigger_us": 37999299,
      "is_ai": false,
      "track_id": 0,
      "velocity": 0,
      "is_motor": true,
      "motor_id": 1,
      "accel_val": 2000,
      "base_duration_us": 127118
    },
    {
      "id": "M_303",
      "pitch": 71,
      "t_note_us": 38304752,
      "t_trigger_us": 38168789,
      "is_ai": false,
      "track_id": 0,
      "velocity": 0,
      "is_motor": true,
      "motor_id": 1,
      "accel_val": 2000,
      "base_duration_us": 127117
    },
    {
      "id": "M_304",
      "pitch": 71,
      "t_note_us": 38389497,
      "t_trigger_us": 38253534,
      "is_ai": false,
      "track_id": 0,
      "velocity": 0,
      "is_motor": true,
      "motor_id": 2,
      "accel_val": 2000,
      "base_duration_us": 127117
    },
    {
      "id": "M_305",
      "pitch": 77,
      "t_note_us": 38558986,
      "t_trigger_us": 38423023,
      "is_ai": false,
      "track_id": 0,
      "velocity": 0,
      "is_motor": true,
      "motor_id": 2,
      "accel_val": 2000,
      "base_duration_us": 127117
    },
    {
      "id": "M_306",
      "pitch": 69,
      "t_note_us": 38645055,
      "t_trigger_us": 38509092,
      "is_ai": false,
      "track_id": 0,
      "velocity": 0,
      "is_motor": true,
      "motor_id": 1,
      "accel_val": 2000,
      "base_duration_us": 127117
    },
    {
      "id": "M_307",
      "pitch": 71,
      "t_note_us": 38814544,
      "t_trigger_us": 38678581,
      "is_ai": false,
      "track_id": 0,
      "velocity": 0,
      "is_motor": true,
      "motor_id": 1,
      "accel_val": 2000,
      "base_duration_us": 127117
    },
    {
      "id": "M_308",
      "pitch": 67,
      "t_note_us": 38899289,
      "t_trigger_us": 38763326,
      "is_ai": false,
      "track_id": 0,
      "velocity": 0,
      "is_motor": true,
      "motor_id": 2,
      "accel_val": 2000,
      "base_duration_us": 254236
    },
    {
      "id": "M_309",
      "pitch": 64,
      "t_note_us": 39152201,
      "t_trigger_us": 39016238,
      "is_ai": false,
      "track_id": 0,
      "velocity": 0,
      "is_motor": true,
      "motor_id": 1,
      "accel_val": 2000,
      "base_duration_us": 127118
    },
    {
      "id": "M_310",
      "pitch": 71,
      "t_note_us": 39321691,
      "t_trigger_us": 39185728,
      "is_ai": false,
      "track_id": 0,
      "velocity": 0,
      "is_motor": true,
      "motor_id": 1,
      "accel_val": 2000,
      "base_duration_us": 127117
    },
    {
      "id": "M_311",
      "pitch": 71,
      "t_note_us": 39406436,
      "t_trigger_us": 39270473,
      "is_ai": false,
      "track_id": 0,
      "velocity": 0,
      "is_motor": true,
      "motor_id": 2,
      "accel_val": 2000,
      "base_duration_us": 127117
    },
    {
      "id": "M_312",
      "pitch": 76,
      "t_note_us": 39575925,
      "t_trigger_us": 39439962,
      "is_ai": false,
      "track_id": 0,
      "velocity": 0,
      "is_motor": true,
      "motor_id": 2,
      "accel_val": 2000,
      "base_duration_us": 127118
    },
    {
      "id": "M_313",
      "pitch": 66,
      "t_note_us": 40169144,
      "t_trigger_us": 40033181,
      "is_ai": false,
      "track_id": 0,
      "velocity": 0,
      "is_motor": true,
      "motor_id": 1,
      "accel_val": 2000,
      "base_duration_us": 127118
    },
    {
      "id": "M_314",
      "pitch": 71,
      "t_note_us": 40338634,
      "t_trigger_us": 40202671,
      "is_ai": false,
      "track_id": 0,
      "velocity": 0,
      "is_motor": true,
      "motor_id": 1,
      "accel_val": 2000,
      "base_duration_us": 127117
    },
    {
      "id": "M_315",
      "pitch": 69,
      "t_note_us": 40423379,
      "t_trigger_us": 40287416,
      "is_ai": false,
      "track_id": 0,
      "velocity": 0,
      "is_motor": true,
      "motor_id": 2,
      "accel_val": 2000,
      "base_duration_us": 127117
    },
    {
      "id": "M_316",
      "pitch": 78,
      "t_note_us": 40424703,
      "t_trigger_us": 40288740,
      "is_ai": false,
      "track_id": 0,
      "velocity": 0,
      "is_motor": true,
      "motor_id": 3,
      "accel_val": 2000,
      "base_duration_us": 254234
    },
    {
      "id": "M_317",
      "pitch": 75,
      "t_note_us": 40592868,
      "t_trigger_us": 40456905,
      "is_ai": false,
      "track_id": 0,
      "velocity": 0,
      "is_motor": true,
      "motor_id": 2,
      "accel_val": 2000,
      "base_duration_us": 127117
    },
    {
      "id": "M_318",
      "pitch": 69,
      "t_note_us": 40678937,
      "t_trigger_us": 40542974,
      "is_ai": false,
      "track_id": 0,
      "velocity": 0,
      "is_motor": true,
      "motor_id": 1,
      "accel_val": 2000,
      "base_duration_us": 254236
    },
    {
      "id": "M_319",
      "pitch": 78,
      "t_note_us": 40933173,
      "t_trigger_us": 40797210,
      "is_ai": false,
      "track_id": 0,
      "velocity": 0,
      "is_motor": true,
      "motor_id": 2,
      "accel_val": 2000,
      "base_duration_us": 254236
    },
    {
      "id": "M_320",
      "pitch": 64,
      "t_note_us": 41186085,
      "t_trigger_us": 41050122,
      "is_ai": false,
      "track_id": 0,
      "velocity": 0,
      "is_motor": true,
      "motor_id": 1,
      "accel_val": 2000,
      "base_duration_us": 127118
    },
    {
      "id": "M_323",
      "pitch": 67,
      "t_note_us": 41187409,
      "t_trigger_us": 41051446,
      "is_ai": false,
      "track_id": 0,
      "velocity": 0,
      "is_motor": true,
      "motor_id": 2,
      "accel_val": 2000,
      "base_duration_us": 508469
    },
    {
      "id": "M_321",
      "pitch": 71,
      "t_note_us": 41355575,
      "t_trigger_us": 41219612,
      "is_ai": false,
      "track_id": 0,
      "velocity": 0,
      "is_motor": true,
      "motor_id": 1,
      "accel_val": 2000,
      "base_duration_us": 127117
    },
    {
      "id": "M_322",
      "pitch": 74,
      "t_note_us": 41440320,
      "t_trigger_us": 41304357,
      "is_ai": false,
      "track_id": 0,
      "velocity": 0,
      "is_motor": true,
      "motor_id": 0,
      "accel_val": 2000,
      "base_duration_us": 127117
    },
    {
      "id": "M_324",
      "pitch": 69,
      "t_note_us": 41609809,
      "t_trigger_us": 41473846,
      "is_ai": false,
      "track_id": 0,
      "velocity": 0,
      "is_motor": true,
      "motor_id": 1,
      "accel_val": 2000,
      "base_duration_us": 127117
    },
    {
      "id": "M_325",
      "pitch": 74,
      "t_note_us": 41695878,
      "t_trigger_us": 41559915,
      "is_ai": false,
      "track_id": 0,
      "velocity": 0,
      "is_motor": true,
      "motor_id": 0,
      "accel_val": 2000,
      "base_duration_us": 381354
    },
    {
      "id": "M_326",
      "pitch": 74,
      "t_note_us": 42119604,
      "t_trigger_us": 41983641,
      "is_ai": false,
      "track_id": 0,
      "velocity": 0,
      "is_motor": true,
      "motor_id": 1,
      "accel_val": 2000,
      "base_duration_us": 127117
    },
    {
      "id": "M_327",
      "pitch": 67,
      "t_note_us": 42203025,
      "t_trigger_us": 42067062,
      "is_ai": false,
      "track_id": 0,
      "velocity": 0,
      "is_motor": true,
      "motor_id": 2,
      "accel_val": 2000,
      "base_duration_us": 127117
    },
    {
      "id": "M_330",
      "pitch": 69,
      "t_note_us": 42204349,
      "t_trigger_us": 42068386,
      "is_ai": false,
      "track_id": 0,
      "velocity": 0,
      "is_motor": true,
      "motor_id": 0,
      "accel_val": 2000,
      "base_duration_us": 508468
    },
    {
      "id": "M_328",
      "pitch": 71,
      "t_note_us": 42372514,
      "t_trigger_us": 42236551,
      "is_ai": false,
      "track_id": 0,
      "velocity": 0,
      "is_motor": true,
      "motor_id": 1,
      "accel_val": 2000,
      "base_duration_us": 127117
    },
    {
      "id": "M_329",
      "pitch": 77,
      "t_note_us": 42457259,
      "t_trigger_us": 42321296,
      "is_ai": false,
      "track_id": 0,
      "velocity": 0,
      "is_motor": true,
      "motor_id": 2,
      "accel_val": 2000,
      "base_duration_us": 127117
    },
    {
      "id": "M_331",
      "pitch": 67,
      "t_note_us": 42626748,
      "t_trigger_us": 42490785,
      "is_ai": false,
      "track_id": 0,
      "velocity": 0,
      "is_motor": true,
      "motor_id": 1,
      "accel_val": 2000,
      "base_duration_us": 127117
    },
    {
      "id": "M_332",
      "pitch": 77,
      "t_note_us": 42711493,
      "t_trigger_us": 42575530,
      "is_ai": false,
      "track_id": 0,
      "velocity": 0,
      "is_motor": true,
      "motor_id": 2,
      "accel_val": 2000,
      "base_duration_us": 381354
    },
    {
      "id": "M_333",
      "pitch": 74,
      "t_note_us": 42711493,
      "t_trigger_us": 42575530,
      "is_ai": false,
      "track_id": 0,
      "velocity": 0,
      "is_motor": true,
      "motor_id": 3,
      "accel_val": 2000,
      "base_duration_us": 381354
    },
    {
      "id": "M_334",
      "pitch": 67,
      "t_note_us": 42712817,
      "t_trigger_us": 42576854,
      "is_ai": false,
      "track_id": 0,
      "velocity": 0,
      "is_motor": true,
      "motor_id": 0,
      "accel_val": 2000,
      "base_duration_us": 508471
    },
    {
      "id": "M_335",
      "pitch": 74,
      "t_note_us": 43135219,
      "t_trigger_us": 42999256,
      "is_ai": false,
      "track_id": 0,
      "velocity": 0,
      "is_motor": true,
      "motor_id": 1,
      "accel_val": 2000,
      "base_duration_us": 127117
    },
    {
      "id": "M_336",
      "pitch": 48,
      "t_note_us": 43219964,
      "t_trigger_us": 43084001,
      "is_ai": false,
      "track_id": 0,
      "velocity": 0,
      "is_motor": true,
      "motor_id": 2,
      "accel_val": 2000,
      "base_duration_us": 127117
    },
    {
      "id": "M_337",
      "pitch": 64,
      "t_note_us": 43389453,
      "t_trigger_us": 43253490,
      "is_ai": false,
      "track_id": 0,
      "velocity": 0,
      "is_motor": true,
      "motor_id": 1,
      "accel_val": 2000,
      "base_duration_us": 254237
    },
    {
      "id": "M_338",
      "pitch": 60,
      "t_note_us": 43389453,
      "t_trigger_us": 43253490,
      "is_ai": false,
      "track_id": 0,
      "velocity": 0,
      "is_motor": true,
      "motor_id": 0,
      "accel_val": 2000,
      "base_duration_us": 254237
    },
    {
      "id": "M_339",
      "pitch": 55,
      "t_note_us": 43643690,
      "t_trigger_us": 43507727,
      "is_ai": false,
      "track_id": 0,
      "velocity": 0,
      "is_motor": true,
      "motor_id": 0,
      "accel_val": 2000,
      "base_duration_us": 127117
    },
    {
      "id": "M_340",
      "pitch": 60,
      "t_note_us": 43728435,
      "t_trigger_us": 43592472,
      "is_ai": false,
      "track_id": 0,
      "velocity": 0,
      "is_motor": true,
      "motor_id": 1,
      "accel_val": 2000,
      "base_duration_us": 127117
    },
    {
      "id": "M_341",
      "pitch": 98,
      "t_note_us": 43729759,
      "t_trigger_us": 43593796,
      "is_ai": true,
      "track_id": 11,
      "velocity": 0,
      "is_motor": false,
      "motor_id": 0,
      "accel_val": 2000,
      "base_duration_us": 127117
    },
    {
      "id": "M_342",
      "pitch": 64,
      "t_note_us": 43897924,
      "t_trigger_us": 43761961,
      "is_ai": false,
      "track_id": 0,
      "velocity": 0,
      "is_motor": true,
      "motor_id": 1,
      "accel_val": 2000,
      "base_duration_us": 127117
    },
    {
      "id": "M_343",
      "pitch": 96,
      "t_note_us": 43899248,
      "t_trigger_us": 43763285,
      "is_ai": true,
      "track_id": 10,
      "velocity": 0,
      "is_motor": false,
      "motor_id": 0,
      "accel_val": 2000,
      "base_duration_us": 127117
    },
    {
      "id": "M_345",
      "pitch": 48,
      "t_note_us": 43982669,
      "t_trigger_us": 43846706,
      "is_ai": false,
      "track_id": 0,
      "velocity": 0,
      "is_motor": true,
      "motor_id": 0,
      "accel_val": 2000,
      "base_duration_us": 254234
    },
    {
      "id": "M_344",
      "pitch": 95,
      "t_note_us": 43983993,
      "t_trigger_us": 43848030,
      "is_ai": true,
      "track_id": 9,
      "velocity": 0,
      "is_motor": false,
      "motor_id": 0,
      "accel_val": 2000,
      "base_duration_us": 127117
    },
    {
      "id": "M_346",
      "pitch": 69,
      "t_note_us": 44153482,
      "t_trigger_us": 44017519,
      "is_ai": false,
      "track_id": 0,
      "velocity": 0,
      "is_motor": true,
      "motor_id": 1,
      "accel_val": 2000,
      "base_duration_us": 127117
    },
    {
      "id": "M_347",
      "pitch": 47,
      "t_note_us": 44236903,
      "t_trigger_us": 44100940,
      "is_ai": false,
      "track_id": 0,
      "velocity": 0,
      "is_motor": true,
      "motor_id": 0,
      "accel_val": 2000,
      "base_duration_us": 127117
    },
    {
      "id": "M_348",
      "pitch": 63,
      "t_note_us": 44406392,
      "t_trigger_us": 44270429,
      "is_ai": false,
      "track_id": 0,
      "velocity": 0,
      "is_motor": true,
      "motor_id": 1,
      "accel_val": 2000,
      "base_duration_us": 254237
    },
    {
      "id": "M_349",
      "pitch": 59,
      "t_note_us": 44406392,
      "t_trigger_us": 44270429,
      "is_ai": false,
      "track_id": 0,
      "velocity": 0,
      "is_motor": true,
      "motor_id": 0,
      "accel_val": 2000,
      "base_duration_us": 254237
    },
    {
      "id": "M_350",
      "pitch": 54,
      "t_note_us": 44660629,
      "t_trigger_us": 44524666,
      "is_ai": false,
      "track_id": 0,
      "velocity": 0,
      "is_motor": true,
      "motor_id": 0,
      "accel_val": 2000,
      "base_duration_us": 127117
    },
    {
      "id": "M_351",
      "pitch": 59,
      "t_note_us": 44745374,
      "t_trigger_us": 44609411,
      "is_ai": false,
      "track_id": 0,
      "velocity": 0,
      "is_motor": true,
      "motor_id": 1,
      "accel_val": 2000,
      "base_duration_us": 127117
    },
    {
      "id": "M_352",
      "pitch": 67,
      "t_note_us": 44746698,
      "t_trigger_us": 44610735,
      "is_ai": false,
      "track_id": 0,
      "velocity": 0,
      "is_motor": true,
      "motor_id": 2,
      "accel_val": 2000,
      "base_duration_us": 127117
    },
    {
      "id": "M_353",
      "pitch": 63,
      "t_note_us": 44914863,
      "t_trigger_us": 44778900,
      "is_ai": false,
      "track_id": 0,
      "velocity": 0,
      "is_motor": true,
      "motor_id": 1,
      "accel_val": 2000,
      "base_duration_us": 127117
    },
    {
      "id": "M_354",
      "pitch": 68,
      "t_note_us": 44916187,
      "t_trigger_us": 44780224,
      "is_ai": false,
      "track_id": 0,
      "velocity": 0,
      "is_motor": true,
      "motor_id": 2,
      "accel_val": 2000,
      "base_duration_us": 127117
    },
    {
      "id": "M_356",
      "pitch": 47,
      "t_note_us": 44999608,
      "t_trigger_us": 44863645,
      "is_ai": false,
      "track_id": 0,
      "velocity": 0,
      "is_motor": true,
      "motor_id": 0,
      "accel_val": 2000,
      "base_duration_us": 254234
    },
    {
      "id": "M_355",
      "pitch": 69,
      "t_note_us": 45000932,
      "t_trigger_us": 44864969,
      "is_ai": false,
      "track_id": 0,
      "velocity": 0,
      "is_motor": true,
      "motor_id": 3,
      "accel_val": 2000,
      "base_duration_us": 127117
    },
    {
      "id": "M_357",
      "pitch": 71,
      "t_note_us": 45170421,
      "t_trigger_us": 45034458,
      "is_ai": false,
      "track_id": 0,
      "velocity": 0,
      "is_motor": true,
      "motor_id": 1,
      "accel_val": 2000,
      "base_duration_us": 127117
    },
    {
      "id": "M_358",
      "pitch": 52,
      "t_note_us": 45253842,
      "t_trigger_us": 45117879,
      "is_ai": false,
      "track_id": 0,
      "velocity": 0,
      "is_motor": true,
      "motor_id": 0,
      "accel_val": 2000,
      "base_duration_us": 127117
    },
    {
      "id": "M_359",
      "pitch": 67,
      "t_note_us": 45423331,
      "t_trigger_us": 45287368,
      "is_ai": false,
      "track_id": 0,
      "velocity": 0,
      "is_motor": true,
      "motor_id": 1,
      "accel_val": 2000,
      "base_duration_us": 254237
    },
    {
      "id": "M_360",
      "pitch": 64,
      "t_note_us": 45423331,
      "t_trigger_us": 45287368,
      "is_ai": false,
      "track_id": 0,
      "velocity": 0,
      "is_motor": true,
      "motor_id": 0,
      "accel_val": 2000,
      "base_duration_us": 254237
    },
    {
      "id": "M_361",
      "pitch": 59,
      "t_note_us": 45677568,
      "t_trigger_us": 45541605,
      "is_ai": false,
      "track_id": 0,
      "velocity": 0,
      "is_motor": true,
      "motor_id": 0,
      "accel_val": 2000,
      "base_duration_us": 127117
    },
    {
      "id": "M_362",
      "pitch": 64,
      "t_note_us": 45762313,
      "t_trigger_us": 45626350,
      "is_ai": false,
      "track_id": 0,
      "velocity": 0,
      "is_motor": true,
      "motor_id": 1,
      "accel_val": 2000,
      "base_duration_us": 127117
    },
    {
      "id": "M_363",
      "pitch": 95,
      "t_note_us": 45763637,
      "t_trigger_us": 45627674,
      "is_ai": true,
      "track_id": 9,
      "velocity": 0,
      "is_motor": false,
      "motor_id": 0,
      "accel_val": 2000,
      "base_duration_us": 127117
    },
    {
      "id": "M_364",
      "pitch": 67,
      "t_note_us": 45931802,
      "t_trigger_us": 45795839,
      "is_ai": false,
      "track_id": 0,
      "velocity": 0,
      "is_motor": true,
      "motor_id": 1,
      "accel_val": 2000,
      "base_duration_us": 127117
    },
    {
      "id": "M_365",
      "pitch": 69,
      "t_note_us": 45933126,
      "t_trigger_us": 45797163,
      "is_ai": false,
      "track_id": 0,
      "velocity": 0,
      "is_motor": true,
      "motor_id": 2,
      "accel_val": 2000,
      "base_duration_us": 127117
    },
    {
      "id": "M_367",
      "pitch": 52,
      "t_note_us": 46016547,
      "t_trigger_us": 45880584,
      "is_ai": false,
      "track_id": 0,
      "velocity": 0,
      "is_motor": true,
      "motor_id": 0,
      "accel_val": 2000,
      "base_duration_us": 254234
    },
    {
      "id": "M_366",
      "pitch": 96,
      "t_note_us": 46017871,
      "t_trigger_us": 45881908,
      "is_ai": true,
      "track_id": 10,
      "velocity": 0,
      "is_motor": false,
      "motor_id": 0,
      "accel_val": 2000,
      "base_duration_us": 127117
    },
    {
      "id": "M_368",
      "pitch": 71,
      "t_note_us": 46187360,
      "t_trigger_us": 46051397,
      "is_ai": false,
      "track_id": 0,
      "velocity": 0,
      "is_motor": true,
      "motor_id": 1,
      "accel_val": 2000,
      "base_duration_us": 127117
    },
    {
      "id": "M_369",
      "pitch": 55,
      "t_note_us": 46270781,
      "t_trigger_us": 46134818,
      "is_ai": false,
      "track_id": 0,
      "velocity": 0,
      "is_motor": true,
      "motor_id": 0,
      "accel_val": 2000,
      "base_duration_us": 127117
    },
    {
      "id": "M_370",
      "pitch": 65,
      "t_note_us": 46440270,
      "t_trigger_us": 46304307,
      "is_ai": false,
      "track_id": 0,
      "velocity": 0,
      "is_motor": true,
      "motor_id": 1,
      "accel_val": 2000,
      "base_duration_us": 254237
    },
    {
      "id": "M_371",
      "pitch": 71,
      "t_note_us": 46440270,
      "t_trigger_us": 46304307,
      "is_ai": false,
      "track_id": 0,
      "velocity": 0,
      "is_motor": true,
      "motor_id": 2,
      "accel_val": 2000,
      "base_duration_us": 254237
    },
    {
      "id": "M_372",
      "pitch": 62,
      "t_note_us": 46694507,
      "t_trigger_us": 46558544,
      "is_ai": false,
      "track_id": 0,
      "velocity": 0,
      "is_motor": true,
      "motor_id": 1,
      "accel_val": 2000,
      "base_duration_us": 127117
    },
    {
      "id": "M_373",
      "pitch": 95,
      "t_note_us": 46695831,
      "t_trigger_us": 46559868,
      "is_ai": true,
      "track_id": 9,
      "velocity": 0,
      "is_motor": false,
      "motor_id": 0,
      "accel_val": 2000,
      "base_duration_us": 127117
    },
    {
      "id": "M_374",
      "pitch": 65,
      "t_note_us": 46779252,
      "t_trigger_us": 46643289,
      "is_ai": false,
      "track_id": 0,
      "velocity": 0,
      "is_motor": true,
      "motor_id": 0,
      "accel_val": 2000,
      "base_duration_us": 127117
    },
    {
      "id": "M_375",
      "pitch": 69,
      "t_note_us": 46780576,
      "t_trigger_us": 46644613,
      "is_ai": false,
      "track_id": 0,
      "velocity": 0,
      "is_motor": true,
      "motor_id": 2,
      "accel_val": 2000,
      "base_duration_us": 127117
    },
    {
      "id": "M_376",
      "pitch": 71,
      "t_note_us": 46948741,
      "t_trigger_us": 46812778,
      "is_ai": false,
      "track_id": 0,
      "velocity": 0,
      "is_motor": true,
      "motor_id": 1,
      "accel_val": 2000,
      "base_duration_us": 127117
    },
    {
      "id": "M_377",
      "pitch": 67,
      "t_note_us": 46950065,
      "t_trigger_us": 46814102,
      "is_ai": false,
      "track_id": 0,
      "velocity": 0,
      "is_motor": true,
      "motor_id": 2,
      "accel_val": 2000,
      "base_duration_us": 127117
    },
    {
      "id": "M_379",
      "pitch": 55,
      "t_note_us": 47033486,
      "t_trigger_us": 46897523,
      "is_ai": false,
      "track_id": 0,
      "velocity": 0,
      "is_motor": true,
      "motor_id": 0,
      "accel_val": 2000,
      "base_duration_us": 254234
    },
    {
      "id": "M_378",
      "pitch": 78,
      "t_note_us": 47034810,
      "t_trigger_us": 46898847,
      "is_ai": false,
      "track_id": 0,
      "velocity": 0,
      "is_motor": true,
      "motor_id": 3,
      "accel_val": 2000,
      "base_duration_us": 127117
    },
    {
      "id": "M_380",
      "pitch": 67,
      "t_note_us": 47204299,
      "t_trigger_us": 47068336,
      "is_ai": false,
      "track_id": 0,
      "velocity": 0,
      "is_motor": true,
      "motor_id": 1,
      "accel_val": 2000,
      "base_duration_us": 127117
    },
    {
      "id": "M_381",
      "pitch": 48,
      "t_note_us": 47287720,
      "t_trigger_us": 47151757,
      "is_ai": false,
      "track_id": 0,
      "velocity": 0,
      "is_motor": true,
      "motor_id": 0,
      "accel_val": 2000,
      "base_duration_us": 127117
    },
    {
      "id": "M_382",
      "pitch": 64,
      "t_note_us": 47457209,
      "t_trigger_us": 47321246,
      "is_ai": false,
      "track_id": 0,
      "velocity": 0,
      "is_motor": true,
      "motor_id": 1,
      "accel_val": 2000,
      "base_duration_us": 254237
    },
    {
      "id": "M_383",
      "pitch": 60,
      "t_note_us": 47457209,
      "t_trigger_us": 47321246,
      "is_ai": false,
      "track_id": 0,
      "velocity": 0,
      "is_motor": true,
      "motor_id": 0,
      "accel_val": 2000,
      "base_duration_us": 254237
    },
    {
      "id": "M_384",
      "pitch": 55,
      "t_note_us": 47711446,
      "t_trigger_us": 47575483,
      "is_ai": false,
      "track_id": 0,
      "velocity": 0,
      "is_motor": true,
      "motor_id": 0,
      "accel_val": 2000,
      "base_duration_us": 127117
    },
    {
      "id": "M_385",
      "pitch": 60,
      "t_note_us": 47796191,
      "t_trigger_us": 47660228,
      "is_ai": false,
      "track_id": 0,
      "velocity": 0,
      "is_motor": true,
      "motor_id": 1,
      "accel_val": 2000,
      "base_duration_us": 127117
    },
    {
      "id": "M_386",
      "pitch": 98,
      "t_note_us": 47797515,
      "t_trigger_us": 47661552,
      "is_ai": true,
      "track_id": 11,
      "velocity": 0,
      "is_motor": false,
      "motor_id": 0,
      "accel_val": 2000,
      "base_duration_us": 127117
    },
    {
      "id": "M_387",
      "pitch": 64,
      "t_note_us": 47965680,
      "t_trigger_us": 47829717,
      "is_ai": false,
      "track_id": 0,
      "velocity": 0,
      "is_motor": true,
      "motor_id": 1,
      "accel_val": 2000,
      "base_duration_us": 127117
    },
    {
      "id": "M_388",
      "pitch": 96,
      "t_note_us": 47967004,
      "t_trigger_us": 47831041,
      "is_ai": true,
      "track_id": 10,
      "velocity": 0,
      "is_motor": false,
      "motor_id": 0,
      "accel_val": 2000,
      "base_duration_us": 127117
    },
    {
      "id": "M_390",
      "pitch": 48,
      "t_note_us": 48050425,
      "t_trigger_us": 47914462,
      "is_ai": false,
      "track_id": 0,
      "velocity": 0,
      "is_motor": true,
      "motor_id": 0,
      "accel_val": 2000,
      "base_duration_us": 254234
    },
    {
      "id": "M_389",
      "pitch": 95,
      "t_note_us": 48051749,
      "t_trigger_us": 47915786,
      "is_ai": true,
      "track_id": 9,
      "velocity": 0,
      "is_motor": false,
      "motor_id": 0,
      "accel_val": 2000,
      "base_duration_us": 127117
    },
    {
      "id": "M_391",
      "pitch": 69,
      "t_note_us": 48221238,
      "t_trigger_us": 48085275,
      "is_ai": false,
      "track_id": 0,
      "velocity": 0,
      "is_motor": true,
      "motor_id": 1,
      "accel_val": 2000,
      "base_duration_us": 127117
    },
    {
      "id": "M_392",
      "pitch": 54,
      "t_note_us": 48304659,
      "t_trigger_us": 48168696,
      "is_ai": false,
      "track_id": 0,
      "velocity": 0,
      "is_motor": true,
      "motor_id": 0,
      "accel_val": 2000,
      "base_duration_us": 127117
    },
    {
      "id": "M_393",
      "pitch": 69,
      "t_note_us": 48474148,
      "t_trigger_us": 48338185,
      "is_ai": false,
      "track_id": 0,
      "velocity": 0,
      "is_motor": true,
      "motor_id": 1,
      "accel_val": 2000,
      "base_duration_us": 254237
    },
    {
      "id": "M_394",
      "pitch": 66,
      "t_note_us": 48474148,
      "t_trigger_us": 48338185,
      "is_ai": false,
      "track_id": 0,
      "velocity": 0,
      "is_motor": true,
      "motor_id": 2,
      "accel_val": 2000,
      "base_duration_us": 254237
    },
    {
      "id": "M_395",
      "pitch": 59,
      "t_note_us": 48728385,
      "t_trigger_us": 48592422,
      "is_ai": false,
      "track_id": 0,
      "velocity": 0,
      "is_motor": true,
      "motor_id": 0,
      "accel_val": 2000,
      "base_duration_us": 127117
    },
    {
      "id": "M_396",
      "pitch": 66,
      "t_note_us": 48813130,
      "t_trigger_us": 48677167,
      "is_ai": false,
      "track_id": 0,
      "velocity": 0,
      "is_motor": true,
      "motor_id": 1,
      "accel_val": 2000,
      "base_duration_us": 127117
    },
    {
      "id": "M_397",
      "pitch": 67,
      "t_note_us": 48814454,
      "t_trigger_us": 48678491,
      "is_ai": false,
      "track_id": 0,
      "velocity": 0,
      "is_motor": true,
      "motor_id": 2,
      "accel_val": 2000,
      "base_duration_us": 127117
    },
    {
      "id": "M_398",
      "pitch": 69,
      "t_note_us": 48982619,
      "t_trigger_us": 48846656,
      "is_ai": false,
      "track_id": 0,
      "velocity": 0,
      "is_motor": true,
      "motor_id": 1,
      "accel_val": 2000,
      "base_duration_us": 127117
    },
    {
      "id": "M_399",
      "pitch": 68,
      "t_note_us": 48983943,
      "t_trigger_us": 48847980,
      "is_ai": false,
      "track_id": 0,
      "velocity": 0,
      "is_motor": true,
      "motor_id": 2,
      "accel_val": 2000,
      "base_duration_us": 127117
    },
    {
      "id": "M_401",
      "pitch": 54,
      "t_note_us": 49067364,
      "t_trigger_us": 48931401,
      "is_ai": false,
      "track_id": 0,
      "velocity": 0,
      "is_motor": true,
      "motor_id": 0,
      "accel_val": 2000,
      "base_duration_us": 254234
    },
    {
      "id": "M_400",
      "pitch": 69,
      "t_note_us": 49068688,
      "t_trigger_us": 48932725,
      "is_ai": false,
      "track_id": 0,
      "velocity": 0,
      "is_motor": true,
      "motor_id": 3,
      "accel_val": 2000,
      "base_duration_us": 127117
    },
    {
      "id": "M_402",
      "pitch": 71,
      "t_note_us": 49238177,
      "t_trigger_us": 49102214,
      "is_ai": false,
      "track_id": 0,
      "velocity": 0,
      "is_motor": true,
      "motor_id": 1,
      "accel_val": 2000,
      "base_duration_us": 127117
    },
    {
      "id": "M_403",
      "pitch": 52,
      "t_note_us": 49321598,
      "t_trigger_us": 49185635,
      "is_ai": false,
      "track_id": 0,
      "velocity": 0,
      "is_motor": true,
      "motor_id": 0,
      "accel_val": 2000,
      "base_duration_us": 127117
    },
    {
      "id": "M_404",
      "pitch": 67,
      "t_note_us": 49491087,
      "t_trigger_us": 49355124,
      "is_ai": false,
      "track_id": 0,
      "velocity": 0,
      "is_motor": true,
      "motor_id": 1,
      "accel_val": 2000,
      "base_duration_us": 254237
    },
    {
      "id": "M_405",
      "pitch": 64,
      "t_note_us": 49491087,
      "t_trigger_us": 49355124,
      "is_ai": false,
      "track_id": 0,
      "velocity": 0,
      "is_motor": true,
      "motor_id": 0,
      "accel_val": 2000,
      "base_duration_us": 254237
    },
    {
      "id": "M_406",
      "pitch": 59,
      "t_note_us": 49745324,
      "t_trigger_us": 49609361,
      "is_ai": false,
      "track_id": 0,
      "velocity": 0,
      "is_motor": true,
      "motor_id": 0,
      "accel_val": 2000,
      "base_duration_us": 127117
    },
    {
      "id": "M_407",
      "pitch": 64,
      "t_note_us": 49830069,
      "t_trigger_us": 49694106,
      "is_ai": false,
      "track_id": 0,
      "velocity": 0,
      "is_motor": true,
      "motor_id": 1,
      "accel_val": 2000,
      "base_duration_us": 127117
    },
    {
      "id": "M_408",
      "pitch": 95,
      "t_note_us": 49831393,
      "t_trigger_us": 49695430,
      "is_ai": true,
      "track_id": 9,
      "velocity": 0,
      "is_motor": false,
      "motor_id": 0,
      "accel_val": 2000,
      "base_duration_us": 127117
    },
    {
      "id": "M_409",
      "pitch": 67,
      "t_note_us": 49999558,
      "t_trigger_us": 49863595,
      "is_ai": false,
      "track_id": 0,
      "velocity": 0,
      "is_motor": true,
      "motor_id": 1,
      "accel_val": 2000,
      "base_duration_us": 127117
    },
    {
      "id": "M_410",
      "pitch": 69,
      "t_note_us": 50000882,
      "t_trigger_us": 49864919,
      "is_ai": false,
      "track_id": 0,
      "velocity": 0,
      "is_motor": true,
      "motor_id": 2,
      "accel_val": 2000,
      "base_duration_us": 127117
    },
    {
      "id": "M_412",
      "pitch": 52,
      "t_note_us": 50084303,
      "t_trigger_us": 49948340,
      "is_ai": false,
      "track_id": 0,
      "velocity": 0,
      "is_motor": true,
      "motor_id": 0,
      "accel_val": 2000,
      "base_duration_us": 254234
    },
    {
      "id": "M_411",
      "pitch": 72,
      "t_note_us": 50085627,
      "t_trigger_us": 49949664,
      "is_ai": false,
      "track_id": 0,
      "velocity": 0,
      "is_motor": true,
      "motor_id": 3,
      "accel_val": 2000,
      "base_duration_us": 127117
    },
    {
      "id": "M_413",
      "pitch": 95,
      "t_note_us": 50255116,
      "t_trigger_us": 50119153,
      "is_ai": true,
      "track_id": 9,
      "velocity": 0,
      "is_motor": false,
      "motor_id": 0,
      "accel_val": 2000,
      "base_duration_us": 127117
    },
    {
      "id": "M_414",
      "pitch": 55,
      "t_note_us": 50338537,
      "t_trigger_us": 50202574,
      "is_ai": false,
      "track_id": 0,
      "velocity": 0,
      "is_motor": true,
      "motor_id": 0,
      "accel_val": 2000,
      "base_duration_us": 127117
    },
    {
      "id": "M_415",
      "pitch": 65,
      "t_note_us": 50508026,
      "t_trigger_us": 50372063,
      "is_ai": false,
      "track_id": 0,
      "velocity": 0,
      "is_motor": true,
      "motor_id": 1,
      "accel_val": 2000,
      "base_duration_us": 254237
    },
    {
      "id": "M_416",
      "pitch": 71,
      "t_note_us": 50508026,
      "t_trigger_us": 50372063,
      "is_ai": false,
      "track_id": 0,
      "velocity": 0,
      "is_motor": true,
      "motor_id": 2,
      "accel_val": 2000,
      "base_duration_us": 254237
    },
    {
      "id": "M_417",
      "pitch": 62,
      "t_note_us": 50762263,
      "t_trigger_us": 50626300,
      "is_ai": false,
      "track_id": 0,
      "velocity": 0,
      "is_motor": true,
      "motor_id": 1,
      "accel_val": 2000,
      "base_duration_us": 127117
    },
    {
      "id": "M_418",
      "pitch": 95,
      "t_note_us": 50763587,
      "t_trigger_us": 50627624,
      "is_ai": true,
      "track_id": 9,
      "velocity": 0,
      "is_motor": false,
      "motor_id": 0,
      "accel_val": 2000,
      "base_duration_us": 127117
    },
    {
      "id": "M_419",
      "pitch": 65,
      "t_note_us": 50847008,
      "t_trigger_us": 50711045,
      "is_ai": false,
      "track_id": 0,
      "velocity": 0,
      "is_motor": true,
      "motor_id": 0,
      "accel_val": 2000,
      "base_duration_us": 127117
    },
    {
      "id": "M_420",
      "pitch": 69,
      "t_note_us": 50848332,
      "t_trigger_us": 50712369,
      "is_ai": false,
      "track_id": 0,
      "velocity": 0,
      "is_motor": true,
      "motor_id": 2,
      "accel_val": 2000,
      "base_duration_us": 127117
    },
    {
      "id": "M_421",
      "pitch": 71,
      "t_note_us": 51016497,
      "t_trigger_us": 50880534,
      "is_ai": false,
      "track_id": 0,
      "velocity": 0,
      "is_motor": true,
      "motor_id": 1,
      "accel_val": 2000,
      "base_duration_us": 127117
    },
    {
      "id": "M_422",
      "pitch": 96,
      "t_note_us": 51017821,
      "t_trigger_us": 50881858,
      "is_ai": true,
      "track_id": 10,
      "velocity": 0,
      "is_motor": false,
      "motor_id": 0,
      "accel_val": 2000,
      "base_duration_us": 127117
    },
    {
      "id": "M_423",
      "pitch": 55,
      "t_note_us": 51101242,
      "t_trigger_us": 50965279,
      "is_ai": false,
      "track_id": 0,
      "velocity": 0,
      "is_motor": true,
      "motor_id": 0,
      "accel_val": 2000,
      "base_duration_us": 254236
    },
    {
      "id": "M_424",
      "pitch": 95,
      "t_note_us": 51102566,
      "t_trigger_us": 50966603,
      "is_ai": true,
      "track_id": 9,
      "velocity": 0,
      "is_motor": false,
      "motor_id": 0,
      "accel_val": 2000,
      "base_duration_us": 254236
    },
    {
      "id": "M_425",
      "pitch": 48,
      "t_note_us": 51355478,
      "t_trigger_us": 51219515,
      "is_ai": false,
      "track_id": 0,
      "velocity": 0,
      "is_motor": true,
      "motor_id": 0,
      "accel_val": 2000,
      "base_duration_us": 127118
    },
    {
      "id": "M_426",
      "pitch": 64,
      "t_note_us": 51524968,
      "t_trigger_us": 51389005,
      "is_ai": false,
      "track_id": 0,
      "velocity": 0,
      "is_motor": true,
      "motor_id": 1,
      "accel_val": 2000,
      "base_duration_us": 254237
    },
    {
      "id": "M_427",
      "pitch": 60,
      "t_note_us": 51524968,
      "t_trigger_us": 51389005,
      "is_ai": false,
      "track_id": 0,
      "velocity": 0,
      "is_motor": true,
      "motor_id": 0,
      "accel_val": 2000,
      "base_duration_us": 254237
    },
    {
      "id": "M_428",
      "pitch": 55,
      "t_note_us": 51779205,
      "t_trigger_us": 51643242,
      "is_ai": false,
      "track_id": 0,
      "velocity": 0,
      "is_motor": true,
      "motor_id": 0,
      "accel_val": 2000,
      "base_duration_us": 127117
    },
    {
      "id": "M_429",
      "pitch": 60,
      "t_note_us": 51863950,
      "t_trigger_us": 51727987,
      "is_ai": false,
      "track_id": 0,
      "velocity": 0,
      "is_motor": true,
      "motor_id": 1,
      "accel_val": 2000,
      "base_duration_us": 127117
    },
    {
      "id": "M_430",
      "pitch": 98,
      "t_note_us": 51865274,
      "t_trigger_us": 51729311,
      "is_ai": true,
      "track_id": 11,
      "velocity": 0,
      "is_motor": false,
      "motor_id": 0,
      "accel_val": 2000,
      "base_duration_us": 127117
    },
    {
      "id": "M_431",
      "pitch": 64,
      "t_note_us": 52033439,
      "t_trigger_us": 51897476,
      "is_ai": false,
      "track_id": 0,
      "velocity": 0,
      "is_motor": true,
      "motor_id": 1,
      "accel_val": 2000,
      "base_duration_us": 127117
    },
    {
      "id": "M_432",
      "pitch": 72,
      "t_note_us": 52034763,
      "t_trigger_us": 51898800,
      "is_ai": false,
      "track_id": 0,
      "velocity": 0,
      "is_motor": true,
      "motor_id": 0,
      "accel_val": 2000,
      "base_duration_us": 127117
    },
    {
      "id": "M_434",
      "pitch": 48,
      "t_note_us": 52118184,
      "t_trigger_us": 51982221,
      "is_ai": false,
      "track_id": 0,
      "velocity": 0,
      "is_motor": true,
      "motor_id": 2,
      "accel_val": 2000,
      "base_duration_us": 254234
    },
    {
      "id": "M_433",
      "pitch": 71,
      "t_note_us": 52119508,
      "t_trigger_us": 51983545,
      "is_ai": false,
      "track_id": 0,
      "velocity": 0,
      "is_motor": true,
      "motor_id": 3,
      "accel_val": 2000,
      "base_duration_us": 127117
    },
    {
      "id": "M_435",
      "pitch": 69,
      "t_note_us": 52288997,
      "t_trigger_us": 52153034,
      "is_ai": false,
      "track_id": 0,
      "velocity": 0,
      "is_motor": true,
      "motor_id": 1,
      "accel_val": 2000,
      "base_duration_us": 127117
    },
    {
      "id": "M_436",
      "pitch": 47,
      "t_note_us": 52372418,
      "t_trigger_us": 52236455,
      "is_ai": false,
      "track_id": 0,
      "velocity": 0,
      "is_motor": true,
      "motor_id": 0,
      "accel_val": 2000,
      "base_duration_us": 127117
    },
    {
      "id": "M_437",
      "pitch": 63,
      "t_note_us": 52541907,
      "t_trigger_us": 52405944,
      "is_ai": false,
      "track_id": 0,
      "velocity": 0,
      "is_motor": true,
      "motor_id": 1,
      "accel_val": 2000,
      "base_duration_us": 254237
    },
    {
      "id": "M_438",
      "pitch": 59,
      "t_note_us": 52541907,
      "t_trigger_us": 52405944,
      "is_ai": false,
      "track_id": 0,
      "velocity": 0,
      "is_motor": true,
      "motor_id": 0,
      "accel_val": 2000,
      "base_duration_us": 254237
    },
    {
      "id": "M_439",
      "pitch": 54,
      "t_note_us": 52796144,
      "t_trigger_us": 52660181,
      "is_ai": false,
      "track_id": 0,
      "velocity": 0,
      "is_motor": true,
      "motor_id": 0,
      "accel_val": 2000,
      "base_duration_us": 127117
    },
    {
      "id": "M_440",
      "pitch": 59,
      "t_note_us": 52880889,
      "t_trigger_us": 52744926,
      "is_ai": false,
      "track_id": 0,
      "velocity": 0,
      "is_motor": true,
      "motor_id": 1,
      "accel_val": 2000,
      "base_duration_us": 127117
    },
    {
      "id": "M_441",
      "pitch": 67,
      "t_note_us": 52882213,
      "t_trigger_us": 52746250,
      "is_ai": false,
      "track_id": 0,
      "velocity": 0,
      "is_motor": true,
      "motor_id": 2,
      "accel_val": 2000,
      "base_duration_us": 127117
    },
    {
      "id": "M_442",
      "pitch": 63,
      "t_note_us": 53050378,
      "t_trigger_us": 52914415,
      "is_ai": false,
      "track_id": 0,
      "velocity": 0,
      "is_motor": true,
      "motor_id": 1,
      "accel_val": 2000,
      "base_duration_us": 127117
    },
    {
      "id": "M_443",
      "pitch": 68,
      "t_note_us": 53051702,
      "t_trigger_us": 52915739,
      "is_ai": false,
      "track_id": 0,
      "velocity": 0,
      "is_motor": true,
      "motor_id": 2,
      "accel_val": 2000,
      "base_duration_us": 127117
    },
    {
      "id": "M_445",
      "pitch": 47,
      "t_note_us": 53135123,
      "t_trigger_us": 52999160,
      "is_ai": false,
      "track_id": 0,
      "velocity": 0,
      "is_motor": true,
      "motor_id": 0,
      "accel_val": 2000,
      "base_duration_us": 254234
    },
    {
      "id": "M_444",
      "pitch": 69,
      "t_note_us": 53136447,
      "t_trigger_us": 53000484,
      "is_ai": false,
      "track_id": 0,
      "velocity": 0,
      "is_motor": true,
      "motor_id": 3,
      "accel_val": 2000,
      "base_duration_us": 127117
    },
    {
      "id": "M_446",
      "pitch": 95,
      "t_note_us": 53305936,
      "t_trigger_us": 53169973,
      "is_ai": true,
      "track_id": 9,
      "velocity": 0,
      "is_motor": false,
      "motor_id": 0,
      "accel_val": 2000,
      "base_duration_us": 127117
    },
    {
      "id": "M_447",
      "pitch": 52,
      "t_note_us": 53389357,
      "t_trigger_us": 53253394,
      "is_ai": false,
      "track_id": 0,
      "velocity": 0,
      "is_motor": true,
      "motor_id": 0,
      "accel_val": 2000,
      "base_duration_us": 127117
    },
    {
      "id": "M_448",
      "pitch": 67,
      "t_note_us": 53558846,
      "t_trigger_us": 53422883,
      "is_ai": false,
      "track_id": 0,
      "velocity": 0,
      "is_motor": true,
      "motor_id": 1,
      "accel_val": 2000,
      "base_duration_us": 254237
    },
    {
      "id": "M_449",
      "pitch": 64,
      "t_note_us": 53558846,
      "t_trigger_us": 53422883,
      "is_ai": false,
      "track_id": 0,
      "velocity": 0,
      "is_motor": true,
      "motor_id": 0,
      "accel_val": 2000,
      "base_duration_us": 254237
    },
    {
      "id": "M_450",
      "pitch": 59,
      "t_note_us": 53813083,
      "t_trigger_us": 53677120,
      "is_ai": false,
      "track_id": 0,
      "velocity": 0,
      "is_motor": true,
      "motor_id": 0,
      "accel_val": 2000,
      "base_duration_us": 127117
    },
    {
      "id": "M_451",
      "pitch": 64,
      "t_note_us": 53897828,
      "t_trigger_us": 53761865,
      "is_ai": false,
      "track_id": 0,
      "velocity": 0,
      "is_motor": true,
      "motor_id": 1,
      "accel_val": 2000,
      "base_duration_us": 127117
    },
    {
      "id": "M_452",
      "pitch": 95,
      "t_note_us": 53899152,
      "t_trigger_us": 53763189,
      "is_ai": true,
      "track_id": 9,
      "velocity": 0,
      "is_motor": false,
      "motor_id": 0,
      "accel_val": 2000,
      "base_duration_us": 127117
    },
    {
      "id": "M_453",
      "pitch": 67,
      "t_note_us": 54067317,
      "t_trigger_us": 53931354,
      "is_ai": false,
      "track_id": 0,
      "velocity": 0,
      "is_motor": true,
      "motor_id": 1,
      "accel_val": 2000,
      "base_duration_us": 127117
    },
    {
      "id": "M_454",
      "pitch": 69,
      "t_note_us": 54068641,
      "t_trigger_us": 53932678,
      "is_ai": false,
      "track_id": 0,
      "velocity": 0,
      "is_motor": true,
      "motor_id": 2,
      "accel_val": 2000,
      "base_duration_us": 127117
    },
    {
      "id": "M_456",
      "pitch": 52,
      "t_note_us": 54152062,
      "t_trigger_us": 54016099,
      "is_ai": false,
      "track_id": 0,
      "velocity": 0,
      "is_motor": true,
      "motor_id": 0,
      "accel_val": 2000,
      "base_duration_us": 254234
    },
    {
      "id": "M_455",
      "pitch": 96,
      "t_note_us": 54153386,
      "t_trigger_us": 54017423,
      "is_ai": true,
      "track_id": 10,
      "velocity": 0,
      "is_motor": false,
      "motor_id": 0,
      "accel_val": 2000,
      "base_duration_us": 127117
    },
    {
      "id": "M_457",
      "pitch": 95,
      "t_note_us": 54322875,
      "t_trigger_us": 54186912,
      "is_ai": true,
      "track_id": 9,
      "velocity": 0,
      "is_motor": false,
      "motor_id": 0,
      "accel_val": 2000,
      "base_duration_us": 127117
    },
    {
      "id": "M_458",
      "pitch": 55,
      "t_note_us": 54406296,
      "t_trigger_us": 54270333,
      "is_ai": false,
      "track_id": 0,
      "velocity": 0,
      "is_motor": true,
      "motor_id": 0,
      "accel_val": 2000,
      "base_duration_us": 127117
    },
    {
      "id": "M_459",
      "pitch": 65,
      "t_note_us": 54575785,
      "t_trigger_us": 54439822,
      "is_ai": false,
      "track_id": 0,
      "velocity": 0,
      "is_motor": true,
      "motor_id": 1,
      "accel_val": 2000,
      "base_duration_us": 254237
    },
    {
      "id": "M_460",
      "pitch": 71,
      "t_note_us": 54575785,
      "t_trigger_us": 54439822,
      "is_ai": false,
      "track_id": 0,
      "velocity": 0,
      "is_motor": true,
      "motor_id": 2,
      "accel_val": 2000,
      "base_duration_us": 254237
    },
    {
      "id": "M_461",
      "pitch": 62,
      "t_note_us": 54830022,
      "t_trigger_us": 54694059,
      "is_ai": false,
      "track_id": 0,
      "velocity": 0,
      "is_motor": true,
      "motor_id": 1,
      "accel_val": 2000,
      "base_duration_us": 127117
    },
    {
      "id": "M_462",
      "pitch": 95,
      "t_note_us": 54831346,
      "t_trigger_us": 54695383,
      "is_ai": true,
      "track_id": 9,
      "velocity": 0,
      "is_motor": false,
      "motor_id": 0,
      "accel_val": 2000,
      "base_duration_us": 127117
    },
    {
      "id": "M_463",
      "pitch": 65,
      "t_note_us": 54914767,
      "t_trigger_us": 54778804,
      "is_ai": false,
      "track_id": 0,
      "velocity": 0,
      "is_motor": true,
      "motor_id": 0,
      "accel_val": 2000,
      "base_duration_us": 127117
    },
    {
      "id": "M_464",
      "pitch": 69,
      "t_note_us": 54916091,
      "t_trigger_us": 54780128,
      "is_ai": false,
      "track_id": 0,
      "velocity": 0,
      "is_motor": true,
      "motor_id": 2,
      "accel_val": 2000,
      "base_duration_us": 127117
    },
    {
      "id": "M_465",
      "pitch": 71,
      "t_note_us": 55084256,
      "t_trigger_us": 54948293,
      "is_ai": false,
      "track_id": 0,
      "velocity": 0,
      "is_motor": true,
      "motor_id": 1,
      "accel_val": 2000,
      "base_duration_us": 127117
    },
    {
      "id": "M_466",
      "pitch": 67,
      "t_note_us": 55085580,
      "t_trigger_us": 54949617,
      "is_ai": false,
      "track_id": 0,
      "velocity": 0,
      "is_motor": true,
      "motor_id": 2,
      "accel_val": 2000,
      "base_duration_us": 127117
    },
    {
      "id": "M_468",
      "pitch": 55,
      "t_note_us": 55169001,
      "t_trigger_us": 55033038,
      "is_ai": false,
      "track_id": 0,
      "velocity": 0,
      "is_motor": true,
      "motor_id": 0,
      "accel_val": 2000,
      "base_duration_us": 254234
    },
    {
      "id": "M_467",
      "pitch": 78,
      "t_note_us": 55170325,
      "t_trigger_us": 55034362,
      "is_ai": false,
      "track_id": 0,
      "velocity": 0,
      "is_motor": true,
      "motor_id": 3,
      "accel_val": 2000,
      "base_duration_us": 127117
    },
    {
      "id": "M_469",
      "pitch": 67,
      "t_note_us": 55339814,
      "t_trigger_us": 55203851,
      "is_ai": false,
      "track_id": 0,
      "velocity": 0,
      "is_motor": true,
      "motor_id": 1,
      "accel_val": 2000,
      "base_duration_us": 127117
    },
    {
      "id": "M_470",
      "pitch": 48,
      "t_note_us": 55423235,
      "t_trigger_us": 55287272,
      "is_ai": false,
      "track_id": 0,
      "velocity": 0,
      "is_motor": true,
      "motor_id": 0,
      "accel_val": 2000,
      "base_duration_us": 127117
    },
    {
      "id": "M_471",
      "pitch": 64,
      "t_note_us": 55592724,
      "t_trigger_us": 55456761,
      "is_ai": false,
      "track_id": 0,
      "velocity": 0,
      "is_motor": true,
      "motor_id": 1,
      "accel_val": 2000,
      "base_duration_us": 254237
    },
    {
      "id": "M_472",
      "pitch": 60,
      "t_note_us": 55592724,
      "t_trigger_us": 55456761,
      "is_ai": false,
      "track_id": 0,
      "velocity": 0,
      "is_motor": true,
      "motor_id": 0,
      "accel_val": 2000,
      "base_duration_us": 254237
    },
    {
      "id": "M_473",
      "pitch": 55,
      "t_note_us": 55846961,
      "t_trigger_us": 55710998,
      "is_ai": false,
      "track_id": 0,
      "velocity": 0,
      "is_motor": true,
      "motor_id": 0,
      "accel_val": 2000,
      "base_duration_us": 127117
    },
    {
      "id": "M_474",
      "pitch": 60,
      "t_note_us": 55931706,
      "t_trigger_us": 55795743,
      "is_ai": false,
      "track_id": 0,
      "velocity": 0,
      "is_motor": true,
      "motor_id": 1,
      "accel_val": 2000,
      "base_duration_us": 127117
    },
    {
      "id": "M_475",
      "pitch": 98,
      "t_note_us": 55933030,
      "t_trigger_us": 55797067,
      "is_ai": true,
      "track_id": 11,
      "velocity": 0,
      "is_motor": false,
      "motor_id": 0,
      "accel_val": 2000,
      "base_duration_us": 127117
    },
    {
      "id": "M_476",
      "pitch": 64,
      "t_note_us": 56101195,
      "t_trigger_us": 55965232,
      "is_ai": false,
      "track_id": 0,
      "velocity": 0,
      "is_motor": true,
      "motor_id": 1,
      "accel_val": 2000,
      "base_duration_us": 127117
    },
    {
      "id": "M_477",
      "pitch": 72,
      "t_note_us": 56102519,
      "t_trigger_us": 55966556,
      "is_ai": false,
      "track_id": 0,
      "velocity": 0,
      "is_motor": true,
      "motor_id": 0,
      "accel_val": 2000,
      "base_duration_us": 127117
    },
    {
      "id": "M_479",
      "pitch": 48,
      "t_note_us": 56185940,
      "t_trigger_us": 56049977,
      "is_ai": false,
      "track_id": 0,
      "velocity": 0,
      "is_motor": true,
      "motor_id": 2,
      "accel_val": 2000,
      "base_duration_us": 254234
    },
    {
      "id": "M_478",
      "pitch": 71,
      "t_note_us": 56187264,
      "t_trigger_us": 56051301,
      "is_ai": false,
      "track_id": 0,
      "velocity": 0,
      "is_motor": true,
      "motor_id": 3,
      "accel_val": 2000,
      "base_duration_us": 127117
    },
    {
      "id": "M_480",
      "pitch": 69,
      "t_note_us": 56356753,
      "t_trigger_us": 56220790,
      "is_ai": false,
      "track_id": 0,
      "velocity": 0,
      "is_motor": true,
      "motor_id": 1,
      "accel_val": 2000,
      "base_duration_us": 127117
    },
    {
      "id": "M_481",
      "pitch": 54,
      "t_note_us": 56440174,
      "t_trigger_us": 56304211,
      "is_ai": false,
      "track_id": 0,
      "velocity": 0,
      "is_motor": true,
      "motor_id": 0,
      "accel_val": 2000,
      "base_duration_us": 127117
    },
    {
      "id": "M_482",
      "pitch": 69,
      "t_note_us": 56609663,
      "t_trigger_us": 56473700,
      "is_ai": false,
      "track_id": 0,
      "velocity": 0,
      "is_motor": true,
      "motor_id": 1,
      "accel_val": 2000,
      "base_duration_us": 254237
    },
    {
      "id": "M_483",
      "pitch": 66,
      "t_note_us": 56609663,
      "t_trigger_us": 56473700,
      "is_ai": false,
      "track_id": 0,
      "velocity": 0,
      "is_motor": true,
      "motor_id": 2,
      "accel_val": 2000,
      "base_duration_us": 254237
    },
    {
      "id": "M_484",
      "pitch": 59,
      "t_note_us": 56863900,
      "t_trigger_us": 56727937,
      "is_ai": false,
      "track_id": 0,
      "velocity": 0,
      "is_motor": true,
      "motor_id": 0,
      "accel_val": 2000,
      "base_duration_us": 127117
    },
    {
      "id": "M_485",
      "pitch": 66,
      "t_note_us": 56948645,
      "t_trigger_us": 56812682,
      "is_ai": false,
      "track_id": 0,
      "velocity": 0,
      "is_motor": true,
      "motor_id": 1,
      "accel_val": 2000,
      "base_duration_us": 127117
    },
    {
      "id": "M_486",
      "pitch": 67,
      "t_note_us": 56949969,
      "t_trigger_us": 56814006,
      "is_ai": false,
      "track_id": 0,
      "velocity": 0,
      "is_motor": true,
      "motor_id": 2,
      "accel_val": 2000,
      "base_duration_us": 127117
    },
    {
      "id": "M_487",
      "pitch": 69,
      "t_note_us": 57118134,
      "t_trigger_us": 56982171,
      "is_ai": false,
      "track_id": 0,
      "velocity": 0,
      "is_motor": true,
      "motor_id": 1,
      "accel_val": 2000,
      "base_duration_us": 127117
    },
    {
      "id": "M_488",
      "pitch": 68,
      "t_note_us": 57119458,
      "t_trigger_us": 56983495,
      "is_ai": false,
      "track_id": 0,
      "velocity": 0,
      "is_motor": true,
      "motor_id": 2,
      "accel_val": 2000,
      "base_duration_us": 127117
    },
    {
      "id": "M_490",
      "pitch": 54,
      "t_note_us": 57202879,
      "t_trigger_us": 57066916,
      "is_ai": false,
      "track_id": 0,
      "velocity": 0,
      "is_motor": true,
      "motor_id": 0,
      "accel_val": 2000,
      "base_duration_us": 254234
    },
    {
      "id": "M_489",
      "pitch": 69,
      "t_note_us": 57204203,
      "t_trigger_us": 57068240,
      "is_ai": false,
      "track_id": 0,
      "velocity": 0,
      "is_motor": true,
      "motor_id": 3,
      "accel_val": 2000,
      "base_duration_us": 127117
    },
    {
      "id": "M_491",
      "pitch": 95,
      "t_note_us": 57373692,
      "t_trigger_us": 57237729,
      "is_ai": true,
      "track_id": 9,
      "velocity": 0,
      "is_motor": false,
      "motor_id": 0,
      "accel_val": 2000,
      "base_duration_us": 127117
    },
    {
      "id": "M_492",
      "pitch": 52,
      "t_note_us": 57457113,
      "t_trigger_us": 57321150,
      "is_ai": false,
      "track_id": 0,
      "velocity": 0,
      "is_motor": true,
      "motor_id": 0,
      "accel_val": 2000,
      "base_duration_us": 127117
    },
    {
      "id": "M_493",
      "pitch": 67,
      "t_note_us": 57626602,
      "t_trigger_us": 57490639,
      "is_ai": false,
      "track_id": 0,
      "velocity": 0,
      "is_motor": true,
      "motor_id": 1,
      "accel_val": 2000,
      "base_duration_us": 254237
    },
    {
      "id": "M_494",
      "pitch": 64,
      "t_note_us": 57626602,
      "t_trigger_us": 57490639,
      "is_ai": false,
      "track_id": 0,
      "velocity": 0,
      "is_motor": true,
      "motor_id": 0,
      "accel_val": 2000,
      "base_duration_us": 254237
    },
    {
      "id": "M_495",
      "pitch": 59,
      "t_note_us": 57880839,
      "t_trigger_us": 57744876,
      "is_ai": false,
      "track_id": 0,
      "velocity": 0,
      "is_motor": true,
      "motor_id": 0,
      "accel_val": 2000,
      "base_duration_us": 127117
    },
    {
      "id": "M_496",
      "pitch": 64,
      "t_note_us": 57965584,
      "t_trigger_us": 57829621,
      "is_ai": false,
      "track_id": 0,
      "velocity": 0,
      "is_motor": true,
      "motor_id": 1,
      "accel_val": 2000,
      "base_duration_us": 127117
    },
    {
      "id": "M_497",
      "pitch": 95,
      "t_note_us": 57966908,
      "t_trigger_us": 57830945,
      "is_ai": true,
      "track_id": 9,
      "velocity": 0,
      "is_motor": false,
      "motor_id": 0,
      "accel_val": 2000,
      "base_duration_us": 127117
    },
    {
      "id": "M_498",
      "pitch": 67,
      "t_note_us": 58135073,
      "t_trigger_us": 57999110,
      "is_ai": false,
      "track_id": 0,
      "velocity": 0,
      "is_motor": true,
      "motor_id": 1,
      "accel_val": 2000,
      "base_duration_us": 127117
    },
    {
      "id": "M_499",
      "pitch": 69,
      "t_note_us": 58136397,
      "t_trigger_us": 58000434,
      "is_ai": false,
      "track_id": 0,
      "velocity": 0,
      "is_motor": true,
      "motor_id": 2,
      "accel_val": 2000,
      "base_duration_us": 127117
    },
    {
      "id": "M_501",
      "pitch": 52,
      "t_note_us": 58219818,
      "t_trigger_us": 58083855,
      "is_ai": false,
      "track_id": 0,
      "velocity": 0,
      "is_motor": true,
      "motor_id": 0,
      "accel_val": 2000,
      "base_duration_us": 254234
    },
    {
      "id": "M_500",
      "pitch": 96,
      "t_note_us": 58221142,
      "t_trigger_us": 58085179,
      "is_ai": true,
      "track_id": 10,
      "velocity": 0,
      "is_motor": false,
      "motor_id": 0,
      "accel_val": 2000,
      "base_duration_us": 127117
    },
    {
      "id": "M_502",
      "pitch": 95,
      "t_note_us": 58390631,
      "t_trigger_us": 58254668,
      "is_ai": true,
      "track_id": 9,
      "velocity": 0,
      "is_motor": false,
      "motor_id": 0,
      "accel_val": 2000,
      "base_duration_us": 127117
    },
    {
      "id": "M_503",
      "pitch": 55,
      "t_note_us": 58474052,
      "t_trigger_us": 58338089,
      "is_ai": false,
      "track_id": 0,
      "velocity": 0,
      "is_motor": true,
      "motor_id": 0,
      "accel_val": 2000,
      "base_duration_us": 127117
    },
    {
      "id": "M_504",
      "pitch": 62,
      "t_note_us": 58643541,
      "t_trigger_us": 58507578,
      "is_ai": false,
      "track_id": 0,
      "velocity": 0,
      "is_motor": true,
      "motor_id": 1,
      "accel_val": 2000,
      "base_duration_us": 254237
    },
    {
      "id": "M_505",
      "pitch": 62,
      "t_note_us": 58897778,
      "t_trigger_us": 58761815,
      "is_ai": false,
      "track_id": 0,
      "velocity": 0,
      "is_motor": true,
      "motor_id": 1,
      "accel_val": 2000,
      "base_duration_us": 127117
    },
    {
      "id": "M_506",
      "pitch": 67,
      "t_note_us": 58982523,
      "t_trigger_us": 58846560,
      "is_ai": false,
      "track_id": 0,
      "velocity": 0,
      "is_motor": true,
      "motor_id": 2,
      "accel_val": 2000,
      "base_duration_us": 254236
    },
    {
      "id": "M_507",
      "pitch": 59,
      "t_note_us": 59236759,
      "t_trigger_us": 59100796,
      "is_ai": false,
      "track_id": 0,
      "velocity": 0,
      "is_motor": true,
      "motor_id": 0,
      "accel_val": 2000,
      "base_duration_us": 127118
    },
    {
      "id": "M_508",
      "pitch": 62,
      "t_note_us": 59406249,
      "t_trigger_us": 59270286,
      "is_ai": false,
      "track_id": 0,
      "velocity": 0,
      "is_motor": true,
      "motor_id": 1,
      "accel_val": 2000,
      "base_duration_us": 127117
    },
    {
      "id": "M_509",
      "pitch": 64,
      "t_note_us": 59490994,
      "t_trigger_us": 59355031,
      "is_ai": false,
      "track_id": 0,
      "velocity": 0,
      "is_motor": true,
      "motor_id": 0,
      "accel_val": 2000,
      "base_duration_us": 127117
    },
    {
      "id": "M_510",
      "pitch": 71,
      "t_note_us": 59660483,
      "t_trigger_us": 59524520,
      "is_ai": false,
      "track_id": 0,
      "velocity": 0,
      "is_motor": true,
      "motor_id": 1,
      "accel_val": 2000,
      "base_duration_us": 127117
    },
    {
      "id": "M_511",
      "pitch": 71,
      "t_note_us": 59745228,
      "t_trigger_us": 59609265,
      "is_ai": false,
      "track_id": 0,
      "velocity": 0,
      "is_motor": true,
      "motor_id": 2,
      "accel_val": 2000,
      "base_duration_us": 127117
    },
    {
      "id": "M_512",
      "pitch": 76,
      "t_note_us": 59914717,
      "t_trigger_us": 59778754,
      "is_ai": false,
      "track_id": 0,
      "velocity": 0,
      "is_motor": true,
      "motor_id": 2,
      "accel_val": 2000,
      "base_duration_us": 127117
    },
    {
      "id": "M_513",
      "pitch": 95,
      "t_note_us": 60000786,
      "t_trigger_us": 59864823,
      "is_ai": true,
      "track_id": 9,
      "velocity": 0,
      "is_motor": false,
      "motor_id": 0,
      "accel_val": 2000,
      "base_duration_us": 254235
    },
    {
      "id": "M_514",
      "pitch": 88,
      "t_note_us": 60000786,
      "t_trigger_us": 59864823,
      "is_ai": true,
      "track_id": 5,
      "velocity": 0,
      "is_motor": false,
      "motor_id": 0,
      "accel_val": 2000,
      "base_duration_us": 254235
    },
    {
      "id": "M_515",
      "pitch": 76,
      "t_note_us": 60168952,
      "t_trigger_us": 60032989,
      "is_ai": false,
      "track_id": 0,
      "velocity": 0,
      "is_motor": true,
      "motor_id": 2,
      "accel_val": 2000,
      "base_duration_us": 127117
    },
    {
      "id": "M_516",
      "pitch": 67,
      "t_note_us": 60253697,
      "t_trigger_us": 60117734,
      "is_ai": false,
      "track_id": 0,
      "velocity": 0,
      "is_motor": true,
      "motor_id": 1,
      "accel_val": 2000,
      "base_duration_us": 254236
    },
    {
      "id": "M_517",
      "pitch": 93,
      "t_note_us": 60255021,
      "t_trigger_us": 60119058,
      "is_ai": true,
      "track_id": 8,
      "velocity": 0,
      "is_motor": false,
      "motor_id": 0,
      "accel_val": 2000,
      "base_duration_us": 254236
    },
    {
      "id": "M_518",
      "pitch": 76,
      "t_note_us": 60255021,
      "t_trigger_us": 60119058,
      "is_ai": false,
      "track_id": 0,
      "velocity": 0,
      "is_motor": true,
      "motor_id": 3,
      "accel_val": 2000,
      "base_duration_us": 254236
    },
    {
      "id": "M_519",
      "pitch": 66,
      "t_note_us": 60507933,
      "t_trigger_us": 60371970,
      "is_ai": false,
      "track_id": 0,
      "velocity": 0,
      "is_motor": true,
      "motor_id": 1,
      "accel_val": 2000,
      "base_duration_us": 127118
    },
    {
      "id": "M_520",
      "pitch": 71,
      "t_note_us": 60677423,
      "t_trigger_us": 60541460,
      "is_ai": false,
      "track_id": 0,
      "velocity": 0,
      "is_motor": true,
      "motor_id": 1,
      "accel_val": 2000,
      "base_duration_us": 127117
    },
    {
      "id": "M_521",
      "pitch": 69,
      "t_note_us": 60762168,
      "t_trigger_us": 60626205,
      "is_ai": false,
      "track_id": 0,
      "velocity": 0,
      "is_motor": true,
      "motor_id": 2,
      "accel_val": 2000,
      "base_duration_us": 127117
    },
    {
      "id": "M_522",
      "pitch": 75,
      "t_note_us": 60931657,
      "t_trigger_us": 60795694,
      "is_ai": false,
      "track_id": 0,
      "velocity": 0,
      "is_motor": true,
      "motor_id": 2,
      "accel_val": 2000,
      "base_duration_us": 127117
    },
    {
      "id": "M_523",
      "pitch": 93,
      "t_note_us": 61017726,
      "t_trigger_us": 60881763,
      "is_ai": true,
      "track_id": 8,
      "velocity": 0,
      "is_motor": false,
      "motor_id": 0,
      "accel_val": 2000,
      "base_duration_us": 127117
    },
    {
      "id": "M_524",
      "pitch": 90,
      "t_note_us": 61017726,
      "t_trigger_us": 60881763,
      "is_ai": true,
      "track_id": 0,
      "velocity": 0,
      "is_motor": true,
      "motor_id": 3,
      "accel_val": 2000,
      "base_duration_us": 127117
    },
    {
      "id": "M_525",
      "pitch": 75,
      "t_note_us": 61185891,
      "t_trigger_us": 61049928,
      "is_ai": false,
      "track_id": 0,
      "velocity": 0,
      "is_motor": true,
      "motor_id": 2,
      "accel_val": 2000,
      "base_duration_us": 127117
    },
    {
      "id": "M_526",
      "pitch": 95,
      "t_note_us": 61187215,
      "t_trigger_us": 61051252,
      "is_ai": true,
      "track_id": 9,
      "velocity": 0,
      "is_motor": false,
      "motor_id": 0,
      "accel_val": 2000,
      "base_duration_us": 127117
    },
    {
      "id": "M_527",
      "pitch": 78,
      "t_note_us": 61270636,
      "t_trigger_us": 61134673,
      "is_ai": false,
      "track_id": 0,
      "velocity": 0,
      "is_motor": true,
      "motor_id": 3,
      "accel_val": 2000,
      "base_duration_us": 254236
    },
    {
      "id": "M_528",
      "pitch": 91,
      "t_note_us": 61271960,
      "t_trigger_us": 61135997,
      "is_ai": true,
      "track_id": 7,
      "velocity": 0,
      "is_motor": false,
      "motor_id": 0,
      "accel_val": 2000,
      "base_duration_us": 254236
    },
    {
      "id": "M_529",
      "pitch": 86,
      "t_note_us": 61271960,
      "t_trigger_us": 61135997,
      "is_ai": true,
      "track_id": 4,
      "velocity": 0,
      "is_motor": false,
      "motor_id": 0,
      "accel_val": 2000,
      "base_duration_us": 254236
    },
    {
      "id": "M_530",
      "pitch": 64,
      "t_note_us": 61524872,
      "t_trigger_us": 61388909,
      "is_ai": false,
      "track_id": 0,
      "velocity": 0,
      "is_motor": true,
      "motor_id": 1,
      "accel_val": 2000,
      "base_duration_us": 127118
    },
    {
      "id": "M_531",
      "pitch": 71,
      "t_note_us": 61694362,
      "t_trigger_us": 61558399,
      "is_ai": false,
      "track_id": 0,
      "velocity": 0,
      "is_motor": true,
      "motor_id": 1,
      "accel_val": 2000,
      "base_duration_us": 127117
    },
    {
      "id": "M_532",
      "pitch": 86,
      "t_note_us": 61779107,
      "t_trigger_us": 61643144,
      "is_ai": true,
      "track_id": 4,
      "velocity": 0,
      "is_motor": false,
      "motor_id": 0,
      "accel_val": 2000,
      "base_duration_us": 127117
    },
    {
      "id": "M_533",
      "pitch": 74,
      "t_note_us": 61948596,
      "t_trigger_us": 61812633,
      "is_ai": false,
      "track_id": 0,
      "velocity": 0,
      "is_motor": true,
      "motor_id": 1,
      "accel_val": 2000,
      "base_duration_us": 127117
    },
    {
      "id": "M_534",
      "pitch": 91,
      "t_note_us": 62034665,
      "t_trigger_us": 61898702,
      "is_ai": true,
      "track_id": 7,
      "velocity": 0,
      "is_motor": false,
      "motor_id": 0,
      "accel_val": 2000,
      "base_duration_us": 42372
    },
    {
      "id": "M_535",
      "pitch": 100,
      "t_note_us": 62034665,
      "t_trigger_us": 61898702,
      "is_ai": true,
      "track_id": 12,
      "velocity": 0,
      "is_motor": false,
      "motor_id": 0,
      "accel_val": 2000,
      "base_duration_us": 254235
    },
    {
      "id": "M_536",
      "pitch": 67,
      "t_note_us": 62202831,
      "t_trigger_us": 62066868,
      "is_ai": false,
      "track_id": 0,
      "velocity": 0,
      "is_motor": true,
      "motor_id": 1,
      "accel_val": 2000,
      "base_duration_us": 127117
    },
    {
      "id": "M_537",
      "pitch": 71,
      "t_note_us": 62287576,
      "t_trigger_us": 62151613,
      "is_ai": false,
      "track_id": 0,
      "velocity": 0,
      "is_motor": true,
      "motor_id": 2,
      "accel_val": 2000,
      "base_duration_us": 254236
    },
    {
      "id": "M_538",
      "pitch": 98,
      "t_note_us": 62288900,
      "t_trigger_us": 62152937,
      "is_ai": true,
      "track_id": 11,
      "velocity": 0,
      "is_motor": false,
      "motor_id": 0,
      "accel_val": 2000,
      "base_duration_us": 254236
    },
    {
      "id": "M_539",
      "pitch": 91,
      "t_note_us": 62288900,
      "t_trigger_us": 62152937,
      "is_ai": true,
      "track_id": 7,
      "velocity": 0,
      "is_motor": false,
      "motor_id": 0,
      "accel_val": 2000,
      "base_duration_us": 254236
    },
    {
      "id": "M_540",
      "pitch": 67,
      "t_note_us": 62541812,
      "t_trigger_us": 62405849,
      "is_ai": false,
      "track_id": 0,
      "velocity": 0,
      "is_motor": true,
      "motor_id": 1,
      "accel_val": 2000,
      "base_duration_us": 127118
    },
    {
      "id": "M_541",
      "pitch": 71,
      "t_note_us": 62711302,
      "t_trigger_us": 62575339,
      "is_ai": false,
      "track_id": 0,
      "velocity": 0,
      "is_motor": true,
      "motor_id": 1,
      "accel_val": 2000,
      "base_duration_us": 127117
    },
    {
      "id": "M_542",
      "pitch": 71,
      "t_note_us": 62796047,
      "t_trigger_us": 62660084,
      "is_ai": false,
      "track_id": 0,
      "velocity": 0,
      "is_motor": true,
      "motor_id": 2,
      "accel_val": 2000,
      "base_duration_us": 127117
    },
    {
      "id": "M_543",
      "pitch": 77,
      "t_note_us": 62965536,
      "t_trigger_us": 62829573,
      "is_ai": false,
      "track_id": 0,
      "velocity": 0,
      "is_motor": true,
      "motor_id": 2,
      "accel_val": 2000,
      "base_duration_us": 127117
    },
    {
      "id": "M_544",
      "pitch": 69,
      "t_note_us": 62966860,
      "t_trigger_us": 62830897,
      "is_ai": false,
      "track_id": 0,
      "velocity": 0,
      "is_motor": true,
      "motor_id": 1,
      "accel_val": 2000,
      "base_duration_us": 127117
    },
    {
      "id": "M_545",
      "pitch": 95,
      "t_note_us": 63051605,
      "t_trigger_us": 62915642,
      "is_ai": true,
      "track_id": 9,
      "velocity": 0,
      "is_motor": false,
      "motor_id": 0,
      "accel_val": 2000,
      "base_duration_us": 254235
    },
    {
      "id": "M_546",
      "pitch": 91,
      "t_note_us": 63051605,
      "t_trigger_us": 62915642,
      "is_ai": true,
      "track_id": 7,
      "velocity": 0,
      "is_motor": false,
      "motor_id": 0,
      "accel_val": 2000,
      "base_duration_us": 254235
    },
    {
      "id": "M_547",
      "pitch": 77,
      "t_note_us": 63219771,
      "t_trigger_us": 63083808,
      "is_ai": false,
      "track_id": 0,
      "velocity": 0,
      "is_motor": true,
      "motor_id": 2,
      "accel_val": 2000,
      "base_duration_us": 127117
    },
    {
      "id": "M_548",
      "pitch": 67,
      "t_note_us": 63304516,
      "t_trigger_us": 63168553,
      "is_ai": false,
      "track_id": 0,
      "velocity": 0,
      "is_motor": true,
      "motor_id": 1,
      "accel_val": 2000,
      "base_duration_us": 254236
    },
    {
      "id": "M_549",
      "pitch": 91,
      "t_note_us": 63305840,
      "t_trigger_us": 63169877,
      "is_ai": true,
      "track_id": 7,
      "velocity": 0,
      "is_motor": false,
      "motor_id": 0,
      "accel_val": 2000,
      "base_duration_us": 254236
    },
    {
      "id": "M_550",
      "pitch": 86,
      "t_note_us": 63305840,
      "t_trigger_us": 63169877,
      "is_ai": true,
      "track_id": 4,
      "velocity": 0,
      "is_motor": false,
      "motor_id": 0,
      "accel_val": 2000,
      "base_duration_us": 254236
    },
    {
      "id": "M_551",
      "pitch": 64,
      "t_note_us": 63558752,
      "t_trigger_us": 63422789,
      "is_ai": false,
      "track_id": 0,
      "velocity": 0,
      "is_motor": true,
      "motor_id": 1,
      "accel_val": 2000,
      "base_duration_us": 127118
    },
    {
      "id": "M_552",
      "pitch": 71,
      "t_note_us": 63728242,
      "t_trigger_us": 63592279,
      "is_ai": false,
      "track_id": 0,
      "velocity": 0,
      "is_motor": true,
      "motor_id": 1,
      "accel_val": 2000,
      "base_duration_us": 127117
    },
    {
      "id": "M_553",
      "pitch": 71,
      "t_note_us": 63812987,
      "t_trigger_us": 63677024,
      "is_ai": false,
      "track_id": 0,
      "velocity": 0,
      "is_motor": true,
      "motor_id": 2,
      "accel_val": 2000,
      "base_duration_us": 127117
    },
    {
      "id": "M_554",
      "pitch": 76,
      "t_note_us": 63982476,
      "t_trigger_us": 63846513,
      "is_ai": false,
      "track_id": 0,
      "velocity": 0,
      "is_motor": true,
      "motor_id": 2,
      "accel_val": 2000,
      "base_duration_us": 127118
    },
    {
      "id": "M_555",
      "pitch": 76,
      "t_note_us": 64236712,
      "t_trigger_us": 64100749,
      "is_ai": false,
      "track_id": 0,
      "velocity": 0,
      "is_motor": true,
      "motor_id": 2,
      "accel_val": 2000,
      "base_duration_us": 127117
    },
    {
      "id": "M_556",
      "pitch": 67,
      "t_note_us": 64321457,
      "t_trigger_us": 64185494,
      "is_ai": false,
      "track_id": 0,
      "velocity": 0,
      "is_motor": true,
      "motor_id": 1,
      "accel_val": 2000,
      "base_duration_us": 254236
    },
    {
      "id": "M_557",
      "pitch": 66,
      "t_note_us": 64575693,
      "t_trigger_us": 64439730,
      "is_ai": false,
      "track_id": 0,
      "velocity": 0,
      "is_motor": true,
      "motor_id": 1,
      "accel_val": 2000,
      "base_duration_us": 127118
    },
    {
      "id": "M_558",
      "pitch": 71,
      "t_note_us": 64745183,
      "t_trigger_us": 64609220,
      "is_ai": false,
      "track_id": 0,
      "velocity": 0,
      "is_motor": true,
      "motor_id": 1,
      "accel_val": 2000,
      "base_duration_us": 127117
    },
    {
      "id": "M_559",
      "pitch": 69,
      "t_note_us": 64829928,
      "t_trigger_us": 64693965,
      "is_ai": false,
      "track_id": 0,
      "velocity": 0,
      "is_motor": true,
      "motor_id": 2,
      "accel_val": 2000,
      "base_duration_us": 127117
    },
    {
      "id": "M_560",
      "pitch": 90,
      "t_note_us": 64831252,
      "t_trigger_us": 64695289,
      "is_ai": true,
      "track_id": 0,
      "velocity": 0,
      "is_motor": true,
      "motor_id": 3,
      "accel_val": 2000,
      "base_duration_us": 254234
    },
    {
      "id": "M_561",
      "pitch": 87,
      "t_note_us": 64831252,
      "t_trigger_us": 64695289,
      "is_ai": true,
      "track_id": 0,
      "velocity": 0,
      "is_motor": true,
      "motor_id": 0,
      "accel_val": 2000,
      "base_duration_us": 254234
    },
    {
      "id": "M_562",
      "pitch": 75,
      "t_note_us": 64999417,
      "t_trigger_us": 64863454,
      "is_ai": false,
      "track_id": 0,
      "velocity": 0,
      "is_motor": true,
      "motor_id": 2,
      "accel_val": 2000,
      "base_duration_us": 127117
    },
    {
      "id": "M_563",
      "pitch": 87,
      "t_note_us": 65085486,
      "t_trigger_us": 64949523,
      "is_ai": true,
      "track_id": 0,
      "velocity": 0,
      "is_motor": true,
      "motor_id": 3,
      "accel_val": 2000,
      "base_duration_us": 254235
    },
    {
      "id": "M_564",
      "pitch": 93,
      "t_note_us": 65085486,
      "t_trigger_us": 64949523,
      "is_ai": true,
      "track_id": 8,
      "velocity": 0,
      "is_motor": false,
      "motor_id": 0,
      "accel_val": 2000,
      "base_duration_us": 254235
    },
    {
      "id": "M_565",
      "pitch": 75,
      "t_note_us": 65253652,
      "t_trigger_us": 65117689,
      "is_ai": false,
      "track_id": 0,
      "velocity": 0,
      "is_motor": true,
      "motor_id": 2,
      "accel_val": 2000,
      "base_duration_us": 127117
    },
    {
      "id": "M_566",
      "pitch": 78,
      "t_note_us": 65338397,
      "t_trigger_us": 65202434,
      "is_ai": false,
      "track_id": 0,
      "velocity": 0,
      "is_motor": true,
      "motor_id": 1,
      "accel_val": 2000,
      "base_duration_us": 254236
    },
    {
      "id": "M_567",
      "pitch": 87,
      "t_note_us": 65339721,
      "t_trigger_us": 65203758,
      "is_ai": true,
      "track_id": 0,
      "velocity": 0,
      "is_motor": true,
      "motor_id": 3,
      "accel_val": 2000,
      "base_duration_us": 254236
    },
    {
      "id": "M_568",
      "pitch": 90,
      "t_note_us": 65339721,
      "t_trigger_us": 65203758,
      "is_ai": true,
      "track_id": 0,
      "velocity": 0,
      "is_motor": true,
      "motor_id": 0,
      "accel_val": 2000,
      "base_duration_us": 254236
    },
    {
      "id": "M_569",
      "pitch": 64,
      "t_note_us": 65592633,
      "t_trigger_us": 65456670,
      "is_ai": false,
      "track_id": 0,
      "velocity": 0,
      "is_motor": true,
      "motor_id": 1,
      "accel_val": 2000,
      "base_duration_us": 127118
    },
    {
      "id": "M_572",
      "pitch": 91,
      "t_note_us": 65593957,
      "t_trigger_us": 65457994,
      "is_ai": true,
      "track_id": 7,
      "velocity": 0,
      "is_motor": false,
      "motor_id": 0,
      "accel_val": 2000,
      "base_duration_us": 508469
    },
    {
      "id": "M_573",
      "pitch": 86,
      "t_note_us": 65593957,
      "t_trigger_us": 65457994,
      "is_ai": true,
      "track_id": 4,
      "velocity": 0,
      "is_motor": false,
      "motor_id": 0,
      "accel_val": 2000,
      "base_duration_us": 508469
    },
    {
      "id": "M_570",
      "pitch": 71,
      "t_note_us": 65762123,
      "t_trigger_us": 65626160,
      "is_ai": false,
      "track_id": 0,
      "velocity": 0,
      "is_motor": true,
      "motor_id": 1,
      "accel_val": 2000,
      "base_duration_us": 127117
    },
    {
      "id": "M_571",
      "pitch": 74,
      "t_note_us": 65846868,
      "t_trigger_us": 65710905,
      "is_ai": false,
      "track_id": 0,
      "velocity": 0,
      "is_motor": true,
      "motor_id": 0,
      "accel_val": 2000,
      "base_duration_us": 127117
    },
    {
      "id": "M_574",
      "pitch": 69,
      "t_note_us": 66016357,
      "t_trigger_us": 65880394,
      "is_ai": false,
      "track_id": 0,
      "velocity": 0,
      "is_motor": true,
      "motor_id": 1,
      "accel_val": 2000,
      "base_duration_us": 127117
    },
    {
      "id": "M_577",
      "pitch": 86,
      "t_note_us": 66102426,
      "t_trigger_us": 65966463,
      "is_ai": true,
      "track_id": 4,
      "velocity": 0,
      "is_motor": false,
      "motor_id": 0,
      "accel_val": 2000,
      "base_duration_us": 508471
    },
    {
      "id": "M_578",
      "pitch": 71,
      "t_note_us": 66102426,
      "t_trigger_us": 65966463,
      "is_ai": false,
      "track_id": 0,
      "velocity": 0,
      "is_motor": true,
      "motor_id": 2,
      "accel_val": 2000,
      "base_duration_us": 508471
    },
    {
      "id": "M_575",
      "pitch": 71,
      "t_note_us": 66270592,
      "t_trigger_us": 66134629,
      "is_ai": false,
      "track_id": 0,
      "velocity": 0,
      "is_motor": true,
      "motor_id": 1,
      "accel_val": 2000,
      "base_duration_us": 127117
    },
    {
      "id": "M_576",
      "pitch": 74,
      "t_note_us": 66355337,
      "t_trigger_us": 66219374,
      "is_ai": false,
      "track_id": 0,
      "velocity": 0,
      "is_motor": true,
      "motor_id": 0,
      "accel_val": 2000,
      "base_duration_us": 254236
    },
    {
      "id": "M_579",
      "pitch": 67,
      "t_note_us": 66609573,
      "t_trigger_us": 66473610,
      "is_ai": false,
      "track_id": 0,
      "velocity": 0,
      "is_motor": true,
      "motor_id": 1,
      "accel_val": 2000,
      "base_duration_us": 127118
    },
    {
      "id": "M_582",
      "pitch": 72,
      "t_note_us": 66610897,
      "t_trigger_us": 66474934,
      "is_ai": false,
      "track_id": 0,
      "velocity": 0,
      "is_motor": true,
      "motor_id": 0,
      "accel_val": 2000,
      "base_duration_us": 508469
    },
    {
      "id": "M_583",
      "pitch": 69,
      "t_note_us": 66610897,
      "t_trigger_us": 66474934,
      "is_ai": false,
      "track_id": 0,
      "velocity": 0,
      "is_motor": true,
      "motor_id": 2,
      "accel_val": 2000,
      "base_duration_us": 508469
    },
    {
      "id": "M_580",
      "pitch": 71,
      "t_note_us": 66779063,
      "t_trigger_us": 66643100,
      "is_ai": false,
      "track_id": 0,
      "velocity": 0,
      "is_motor": true,
      "motor_id": 1,
      "accel_val": 2000,
      "base_duration_us": 127117
    },
    {
      "id": "M_581",
      "pitch": 77,
      "t_note_us": 66863808,
      "t_trigger_us": 66727845,
      "is_ai": false,
      "track_id": 0,
      "velocity": 0,
      "is_motor": true,
      "motor_id": 3,
      "accel_val": 2000,
      "base_duration_us": 127117
    },
    {
      "id": "M_584",
      "pitch": 67,
      "t_note_us": 67033297,
      "t_trigger_us": 66897334,
      "is_ai": false,
      "track_id": 0,
      "velocity": 0,
      "is_motor": true,
      "motor_id": 1,
      "accel_val": 2000,
      "base_duration_us": 127117
    },
    {
      "id": "M_587",
      "pitch": 71,
      "t_note_us": 67119366,
      "t_trigger_us": 66983403,
      "is_ai": false,
      "track_id": 0,
      "velocity": 0,
      "is_motor": true,
      "motor_id": 2,
      "accel_val": 2000,
      "base_duration_us": 508471
    },
    {
      "id": "M_588",
      "pitch": 67,
      "t_note_us": 67119366,
      "t_trigger_us": 66983403,
      "is_ai": false,
      "track_id": 0,
      "velocity": 0,
      "is_motor": true,
      "motor_id": 0,
      "accel_val": 2000,
      "base_duration_us": 508471
    },
    {
      "id": "M_585",
      "pitch": 74,
      "t_note_us": 67287532,
      "t_trigger_us": 67151569,
      "is_ai": false,
      "track_id": 0,
      "velocity": 0,
      "is_motor": true,
      "motor_id": 1,
      "accel_val": 2000,
      "base_duration_us": 127117
    },
    {
      "id": "M_586",
      "pitch": 77,
      "t_note_us": 67372277,
      "t_trigger_us": 67236314,
      "is_ai": false,
      "track_id": 0,
      "velocity": 0,
      "is_motor": true,
      "motor_id": 3,
      "accel_val": 2000,
      "base_duration_us": 254236
    },
    {
      "id": "M_589",
      "pitch": 64,
      "t_note_us": 67626513,
      "t_trigger_us": 67490550,
      "is_ai": false,
      "track_id": 0,
      "velocity": 0,
      "is_motor": true,
      "motor_id": 1,
      "accel_val": 2000,
      "base_duration_us": 127118
    },
    {
      "id": "M_590",
      "pitch": 71,
      "t_note_us": 67796003,
      "t_trigger_us": 67660040,
      "is_ai": false,
      "track_id": 0,
      "velocity": 0,
      "is_motor": true,
      "motor_id": 1,
      "accel_val": 2000,
      "base_duration_us": 127117
    },
    {
      "id": "M_591",
      "pitch": 71,
      "t_note_us": 67880748,
      "t_trigger_us": 67744785,
      "is_ai": false,
      "track_id": 0,
      "velocity": 0,
      "is_motor": true,
      "motor_id": 2,
      "accel_val": 2000,
      "base_duration_us": 127117
    },
    {
      "id": "M_592",
      "pitch": 76,
      "t_note_us": 68050237,
      "t_trigger_us": 67914274,
      "is_ai": false,
      "track_id": 0,
      "velocity": 0,
      "is_motor": true,
      "motor_id": 2,
      "accel_val": 2000,
      "base_duration_us": 127117
    },
    {
      "id": "M_593",
      "pitch": 95,
      "t_note_us": 68136306,
      "t_trigger_us": 68000343,
      "is_ai": true,
      "track_id": 9,
      "velocity": 0,
      "is_motor": false,
      "motor_id": 0,
      "accel_val": 2000,
      "base_duration_us": 254235
    },
    {
      "id": "M_594",
      "pitch": 88,
      "t_note_us": 68136306,
      "t_trigger_us": 68000343,
      "is_ai": true,
      "track_id": 5,
      "velocity": 0,
      "is_motor": false,
      "motor_id": 0,
      "accel_val": 2000,
      "base_duration_us": 254235
    },
    {
      "id": "M_595",
      "pitch": 76,
      "t_note_us": 68304472,
      "t_trigger_us": 68168509,
      "is_ai": false,
      "track_id": 0,
      "velocity": 0,
      "is_motor": true,
      "motor_id": 2,
      "accel_val": 2000,
      "base_duration_us": 127117
    },
    {
      "id": "M_596",
      "pitch": 67,
      "t_note_us": 68389217,
      "t_trigger_us": 68253254,
      "is_ai": false,
      "track_id": 0,
      "velocity": 0,
      "is_motor": true,
      "motor_id": 1,
      "accel_val": 2000,
      "base_duration_us": 254236
    },
    {
      "id": "M_597",
      "pitch": 93,
      "t_note_us": 68390541,
      "t_trigger_us": 68254578,
      "is_ai": true,
      "track_id": 8,
      "velocity": 0,
      "is_motor": false,
      "motor_id": 0,
      "accel_val": 2000,
      "base_duration_us": 254236
    },
    {
      "id": "M_598",
      "pitch": 88,
      "t_note_us": 68390541,
      "t_trigger_us": 68254578,
      "is_ai": true,
      "track_id": 5,
      "velocity": 0,
      "is_motor": false,
      "motor_id": 0,
      "accel_val": 2000,
      "base_duration_us": 254236
    },
    {
      "id": "M_599",
      "pitch": 66,
      "t_note_us": 68643453,
      "t_trigger_us": 68507490,
      "is_ai": false,
      "track_id": 0,
      "velocity": 0,
      "is_motor": true,
      "motor_id": 1,
      "accel_val": 2000,
      "base_duration_us": 127118
    },
    {
      "id": "M_600",
      "pitch": 71,
      "t_note_us": 68812943,
      "t_trigger_us": 68676980,
      "is_ai": false,
      "track_id": 0,
      "velocity": 0,
      "is_motor": true,
      "motor_id": 1,
      "accel_val": 2000,
      "base_duration_us": 127117
    },
    {
      "id": "M_601",
      "pitch": 69,
      "t_note_us": 68897688,
      "t_trigger_us": 68761725,
      "is_ai": false,
      "track_id": 0,
      "velocity": 0,
      "is_motor": true,
      "motor_id": 2,
      "accel_val": 2000,
      "base_duration_us": 127117
    },
    {
      "id": "M_602",
      "pitch": 75,
      "t_note_us": 69067177,
      "t_trigger_us": 68931214,
      "is_ai": false,
      "track_id": 0,
      "velocity": 0,
      "is_motor": true,
      "motor_id": 2,
      "accel_val": 2000,
      "base_duration_us": 127117
    },
    {
      "id": "M_603",
      "pitch": 90,
      "t_note_us": 69153246,
      "t_trigger_us": 69017283,
      "is_ai": true,
      "track_id": 0,
      "velocity": 0,
      "is_motor": true,
      "motor_id": 3,
      "accel_val": 2000,
      "base_duration_us": 127117
    },
    {
      "id": "M_604",
      "pitch": 75,
      "t_note_us": 69153246,
      "t_trigger_us": 69017283,
      "is_ai": false,
      "track_id": 0,
      "velocity": 0,
      "is_motor": true,
      "motor_id": 1,
      "accel_val": 2000,
      "base_duration_us": 127117
    },
    {
      "id": "M_605",
      "pitch": 75,
      "t_note_us": 69321411,
      "t_trigger_us": 69185448,
      "is_ai": false,
      "track_id": 0,
      "velocity": 0,
      "is_motor": true,
      "motor_id": 2,
      "accel_val": 2000,
      "base_duration_us": 127117
    },
    {
      "id": "M_606",
      "pitch": 90,
      "t_note_us": 69322735,
      "t_trigger_us": 69186772,
      "is_ai": true,
      "track_id": 0,
      "velocity": 0,
      "is_motor": true,
      "motor_id": 3,
      "accel_val": 2000,
      "base_duration_us": 127117
    },
    {
      "id": "M_607",
      "pitch": 78,
      "t_note_us": 69406156,
      "t_trigger_us": 69270193,
      "is_ai": false,
      "track_id": 0,
      "velocity": 0,
      "is_motor": true,
      "motor_id": 1,
      "accel_val": 2000,
      "base_duration_us": 254236
    },
    {
      "id": "M_608",
      "pitch": 88,
      "t_note_us": 69407480,
      "t_trigger_us": 69271517,
      "is_ai": true,
      "track_id": 5,
      "velocity": 0,
      "is_motor": false,
      "motor_id": 0,
      "accel_val": 2000,
      "base_duration_us": 254236
    },
    {
      "id": "M_609",
      "pitch": 91,
      "t_note_us": 69407480,
      "t_trigger_us": 69271517,
      "is_ai": true,
      "track_id": 7,
      "velocity": 0,
      "is_motor": false,
      "motor_id": 0,
      "accel_val": 2000,
      "base_duration_us": 254236
    },
    {
      "id": "M_610",
      "pitch": 64,
      "t_note_us": 69660392,
      "t_trigger_us": 69524429,
      "is_ai": false,
      "track_id": 0,
      "velocity": 0,
      "is_motor": true,
      "motor_id": 1,
      "accel_val": 2000,
      "base_duration_us": 127118
    },
    {
      "id": "M_611",
      "pitch": 71,
      "t_note_us": 69829882,
      "t_trigger_us": 69693919,
      "is_ai": false,
      "track_id": 0,
      "velocity": 0,
      "is_motor": true,
      "motor_id": 1,
      "accel_val": 2000,
      "base_duration_us": 127117
    },
    {
      "id": "M_612",
      "pitch": 86,
      "t_note_us": 69914627,
      "t_trigger_us": 69778664,
      "is_ai": true,
      "track_id": 4,
      "velocity": 0,
      "is_motor": false,
      "motor_id": 0,
      "accel_val": 2000,
      "base_duration_us": 127117
    },
    {
      "id": "M_613",
      "pitch": 74,
      "t_note_us": 70084116,
      "t_trigger_us": 69948153,
      "is_ai": false,
      "track_id": 0,
      "velocity": 0,
      "is_motor": true,
      "motor_id": 1,
      "accel_val": 2000,
      "base_duration_us": 127117
    },
    {
      "id": "M_614",
      "pitch": 100,
      "t_note_us": 70170185,
      "t_trigger_us": 70034222,
      "is_ai": true,
      "track_id": 12,
      "velocity": 0,
      "is_motor": false,
      "motor_id": 0,
      "accel_val": 2000,
      "base_duration_us": 127117
    },
    {
      "id": "M_615",
      "pitch": 91,
      "t_note_us": 70170185,
      "t_trigger_us": 70034222,
      "is_ai": true,
      "track_id": 7,
      "velocity": 0,
      "is_motor": false,
      "motor_id": 0,
      "accel_val": 2000,
      "base_duration_us": 127117
    },
    {
      "id": "M_616",
      "pitch": 67,
      "t_note_us": 70338350,
      "t_trigger_us": 70202387,
      "is_ai": false,
      "track_id": 0,
      "velocity": 0,
      "is_motor": true,
      "motor_id": 1,
      "accel_val": 2000,
      "base_duration_us": 127117
    },
    {
      "id": "M_618",
      "pitch": 71,
      "t_note_us": 70423095,
      "t_trigger_us": 70287132,
      "is_ai": false,
      "track_id": 0,
      "velocity": 0,
      "is_motor": true,
      "motor_id": 2,
      "accel_val": 2000,
      "base_duration_us": 254236
    },
    {
      "id": "M_617",
      "pitch": 98,
      "t_note_us": 70424419,
      "t_trigger_us": 70288456,
      "is_ai": true,
      "track_id": 11,
      "velocity": 0,
      "is_motor": false,
      "motor_id": 0,
      "accel_val": 2000,
      "base_duration_us": 42372
    },
    {
      "id": "M_619",
      "pitch": 91,
      "t_note_us": 70424419,
      "t_trigger_us": 70288456,
      "is_ai": true,
      "track_id": 7,
      "velocity": 0,
      "is_motor": false,
      "motor_id": 0,
      "accel_val": 2000,
      "base_duration_us": 254236
    },
    {
      "id": "M_620",
      "pitch": 67,
      "t_note_us": 70677331,
      "t_trigger_us": 70541368,
      "is_ai": false,
      "track_id": 0,
      "velocity": 0,
      "is_motor": true,
      "motor_id": 1,
      "accel_val": 2000,
      "base_duration_us": 127118
    },
    {
      "id": "M_621",
      "pitch": 71,
      "t_note_us": 70846821,
      "t_trigger_us": 70710858,
      "is_ai": false,
      "track_id": 0,
      "velocity": 0,
      "is_motor": true,
      "motor_id": 1,
      "accel_val": 2000,
      "base_duration_us": 127117
    },
    {
      "id": "M_622",
      "pitch": 71,
      "t_note_us": 70931566,
      "t_trigger_us": 70795603,
      "is_ai": false,
      "track_id": 0,
      "velocity": 0,
      "is_motor": true,
      "motor_id": 2,
      "accel_val": 2000,
      "base_duration_us": 127117
    },
    {
      "id": "M_623",
      "pitch": 77,
      "t_note_us": 71101055,
      "t_trigger_us": 70965092,
      "is_ai": false,
      "track_id": 0,
      "velocity": 0,
      "is_motor": true,
      "motor_id": 2,
      "accel_val": 2000,
      "base_duration_us": 127117
    },
    {
      "id": "M_624",
      "pitch": 96,
      "t_note_us": 71102379,
      "t_trigger_us": 70966416,
      "is_ai": true,
      "track_id": 10,
      "velocity": 0,
      "is_motor": false,
      "motor_id": 0,
      "accel_val": 2000,
      "base_duration_us": 127117
    },
    {
      "id": "M_625",
      "pitch": 95,
      "t_note_us": 71187124,
      "t_trigger_us": 71051161,
      "is_ai": true,
      "track_id": 9,
      "velocity": 0,
      "is_motor": false,
      "motor_id": 0,
      "accel_val": 2000,
      "base_duration_us": 127117
    },
    {
      "id": "M_626",
      "pitch": 86,
      "t_note_us": 71187124,
      "t_trigger_us": 71051161,
      "is_ai": true,
      "track_id": 4,
      "velocity": 0,
      "is_motor": false,
      "motor_id": 0,
      "accel_val": 2000,
      "base_duration_us": 127117
    },
    {
      "id": "M_627",
      "pitch": 77,
      "t_note_us": 71355289,
      "t_trigger_us": 71219326,
      "is_ai": false,
      "track_id": 0,
      "velocity": 0,
      "is_motor": true,
      "motor_id": 2,
      "accel_val": 2000,
      "base_duration_us": 127117
    },
    {
      "id": "M_628",
      "pitch": 93,
      "t_note_us": 71356613,
      "t_trigger_us": 71220650,
      "is_ai": true,
      "track_id": 8,
      "velocity": 0,
      "is_motor": false,
      "motor_id": 0,
      "accel_val": 2000,
      "base_duration_us": 127117
    },
    {
      "id": "M_629",
      "pitch": 67,
      "t_note_us": 71440034,
      "t_trigger_us": 71304071,
      "is_ai": false,
      "track_id": 0,
      "velocity": 0,
      "is_motor": true,
      "motor_id": 1,
      "accel_val": 2000,
      "base_duration_us": 254236
    },
    {
      "id": "M_630",
      "pitch": 91,
      "t_note_us": 71441358,
      "t_trigger_us": 71305395,
      "is_ai": true,
      "track_id": 7,
      "velocity": 0,
      "is_motor": false,
      "motor_id": 0,
      "accel_val": 2000,
      "base_duration_us": 254236
    },
    {
      "id": "M_631",
      "pitch": 86,
      "t_note_us": 71441358,
      "t_trigger_us": 71305395,
      "is_ai": true,
      "track_id": 4,
      "velocity": 0,
      "is_motor": false,
      "motor_id": 0,
      "accel_val": 2000,
      "base_duration_us": 254236
    },
    {
      "id": "M_632",
      "pitch": 64,
      "t_note_us": 71694270,
      "t_trigger_us": 71558307,
      "is_ai": false,
      "track_id": 0,
      "velocity": 0,
      "is_motor": true,
      "motor_id": 1,
      "accel_val": 2000,
      "base_duration_us": 127118
    },
    {
      "id": "M_633",
      "pitch": 71,
      "t_note_us": 71863760,
      "t_trigger_us": 71727797,
      "is_ai": false,
      "track_id": 0,
      "velocity": 0,
      "is_motor": true,
      "motor_id": 1,
      "accel_val": 2000,
      "base_duration_us": 127117
    },
    {
      "id": "M_634",
      "pitch": 71,
      "t_note_us": 71948505,
      "t_trigger_us": 71812542,
      "is_ai": false,
      "track_id": 0,
      "velocity": 0,
      "is_motor": true,
      "motor_id": 2,
      "accel_val": 2000,
      "base_duration_us": 127117
    },
    {
      "id": "M_635",
      "pitch": 76,
      "t_note_us": 72117994,
      "t_trigger_us": 71982031,
      "is_ai": false,
      "track_id": 0,
      "velocity": 0,
      "is_motor": true,
      "motor_id": 2,
      "accel_val": 2000,
      "base_duration_us": 127118
    },
    {
      "id": "M_636",
      "pitch": 76,
      "t_note_us": 72372230,
      "t_trigger_us": 72236267,
      "is_ai": false,
      "track_id": 0,
      "velocity": 0,
      "is_motor": true,
      "motor_id": 2,
      "accel_val": 2000,
      "base_duration_us": 127117
    },
    {
      "id": "M_637",
      "pitch": 67,
      "t_note_us": 72456975,
      "t_trigger_us": 72321012,
      "is_ai": false,
      "track_id": 0,
      "velocity": 0,
      "is_motor": true,
      "motor_id": 1,
      "accel_val": 2000,
      "base_duration_us": 254236
    },
    {
      "id": "M_638",
      "pitch": 66,
      "t_note_us": 72711211,
      "t_trigger_us": 72575248,
      "is_ai": false,
      "track_id": 0,
      "velocity": 0,
      "is_motor": true,
      "motor_id": 1,
      "accel_val": 2000,
      "base_duration_us": 127118
    },
    {
      "id": "M_639",
      "pitch": 71,
      "t_note_us": 72880701,
      "t_trigger_us": 72744738,
      "is_ai": false,
      "track_id": 0,
      "velocity": 0,
      "is_motor": true,
      "motor_id": 1,
      "accel_val": 2000,
      "base_duration_us": 127117
    },
    {
      "id": "M_640",
      "pitch": 69,
      "t_note_us": 72965446,
      "t_trigger_us": 72829483,
      "is_ai": false,
      "track_id": 0,
      "velocity": 0,
      "is_motor": true,
      "motor_id": 2,
      "accel_val": 2000,
      "base_duration_us": 127117
    },
    {
      "id": "M_641",
      "pitch": 91,
      "t_note_us": 72966770,
      "t_trigger_us": 72830807,
      "is_ai": true,
      "track_id": 7,
      "velocity": 0,
      "is_motor": false,
      "motor_id": 0,
      "accel_val": 2000,
      "base_duration_us": 254234
    },
    {
      "id": "M_642",
      "pitch": 87,
      "t_note_us": 72966770,
      "t_trigger_us": 72830807,
      "is_ai": true,
      "track_id": 0,
      "velocity": 0,
      "is_motor": true,
      "motor_id": 3,
      "accel_val": 2000,
      "base_duration_us": 254234
    },
    {
      "id": "M_643",
      "pitch": 75,
      "t_note_us": 73134935,
      "t_trigger_us": 72998972,
      "is_ai": false,
      "track_id": 0,
      "velocity": 0,
      "is_motor": true,
      "motor_id": 2,
      "accel_val": 2000,
      "base_duration_us": 127117
    },
    {
      "id": "M_644",
      "pitch": 87,
      "t_note_us": 73221004,
      "t_trigger_us": 73085041,
      "is_ai": true,
      "track_id": 0,
      "velocity": 0,
      "is_motor": true,
      "motor_id": 3,
      "accel_val": 2000,
      "base_duration_us": 254235
    },
    {
      "id": "M_645",
      "pitch": 93,
      "t_note_us": 73221004,
      "t_trigger_us": 73085041,
      "is_ai": true,
      "track_id": 8,
      "velocity": 0,
      "is_motor": false,
      "motor_id": 0,
      "accel_val": 2000,
      "base_duration_us": 254235
    },
    {
      "id": "M_646",
      "pitch": 75,
      "t_note_us": 73389170,
      "t_trigger_us": 73253207,
      "is_ai": false,
      "track_id": 0,
      "velocity": 0,
      "is_motor": true,
      "motor_id": 2,
      "accel_val": 2000,
      "base_duration_us": 127117
    },
    {
      "id": "M_647",
      "pitch": 78,
      "t_note_us": 73473915,
      "t_trigger_us": 73337952,
      "is_ai": false,
      "track_id": 0,
      "velocity": 0,
      "is_motor": true,
      "motor_id": 1,
      "accel_val": 2000,
      "base_duration_us": 254236
    },
    {
      "id": "M_648",
      "pitch": 87,
      "t_note_us": 73475239,
      "t_trigger_us": 73339276,
      "is_ai": true,
      "track_id": 0,
      "velocity": 0,
      "is_motor": true,
      "motor_id": 3,
      "accel_val": 2000,
      "base_duration_us": 254236
    },
    {
      "id": "M_649",
      "pitch": 90,
      "t_note_us": 73475239,
      "t_trigger_us": 73339276,
      "is_ai": true,
      "track_id": 0,
      "velocity": 0,
      "is_motor": true,
      "motor_id": 0,
      "accel_val": 2000,
      "base_duration_us": 254236
    },
    {
      "id": "M_650",
      "pitch": 64,
      "t_note_us": 73728151,
      "t_trigger_us": 73592188,
      "is_ai": false,
      "track_id": 0,
      "velocity": 0,
      "is_motor": true,
      "motor_id": 1,
      "accel_val": 2000,
      "base_duration_us": 127118
    },
    {
      "id": "M_653",
      "pitch": 88,
      "t_note_us": 73729475,
      "t_trigger_us": 73593512,
      "is_ai": true,
      "track_id": 5,
      "velocity": 0,
      "is_motor": false,
      "motor_id": 0,
      "accel_val": 2000,
      "base_duration_us": 508469
    },
    {
      "id": "M_654",
      "pitch": 91,
      "t_note_us": 73729475,
      "t_trigger_us": 73593512,
      "is_ai": true,
      "track_id": 7,
      "velocity": 0,
      "is_motor": false,
      "motor_id": 0,
      "accel_val": 2000,
      "base_duration_us": 508469
    },
    {
      "id": "M_651",
      "pitch": 71,
      "t_note_us": 73897641,
      "t_trigger_us": 73761678,
      "is_ai": false,
      "track_id": 0,
      "velocity": 0,
      "is_motor": true,
      "motor_id": 1,
      "accel_val": 2000,
      "base_duration_us": 127117
    },
    {
      "id": "M_652",
      "pitch": 74,
      "t_note_us": 73982386,
      "t_trigger_us": 73846423,
      "is_ai": false,
      "track_id": 0,
      "velocity": 0,
      "is_motor": true,
      "motor_id": 0,
      "accel_val": 2000,
      "base_duration_us": 127117
    },
    {
      "id": "M_655",
      "pitch": 69,
      "t_note_us": 74151875,
      "t_trigger_us": 74015912,
      "is_ai": false,
      "track_id": 0,
      "velocity": 0,
      "is_motor": true,
      "motor_id": 1,
      "accel_val": 2000,
      "base_duration_us": 127117
    },
    {
      "id": "M_658",
      "pitch": 88,
      "t_note_us": 74237944,
      "t_trigger_us": 74101981,
      "is_ai": true,
      "track_id": 5,
      "velocity": 0,
      "is_motor": false,
      "motor_id": 0,
      "accel_val": 2000,
      "base_duration_us": 508469
    },
    {
      "id": "M_659",
      "pitch": 93,
      "t_note_us": 74237944,
      "t_trigger_us": 74101981,
      "is_ai": true,
      "track_id": 8,
      "velocity": 0,
      "is_motor": false,
      "motor_id": 0,
      "accel_val": 2000,
      "base_duration_us": 508469
    },
    {
      "id": "M_656",
      "pitch": 67,
      "t_note_us": 74406110,
      "t_trigger_us": 74270147,
      "is_ai": false,
      "track_id": 0,
      "velocity": 0,
      "is_motor": true,
      "motor_id": 1,
      "accel_val": 2000,
      "base_duration_us": 127117
    },
    {
      "id": "M_657",
      "pitch": 71,
      "t_note_us": 74490855,
      "t_trigger_us": 74354892,
      "is_ai": false,
      "track_id": 0,
      "velocity": 0,
      "is_motor": true,
      "motor_id": 2,
      "accel_val": 2000,
      "base_duration_us": 127117
    },
    {
      "id": "M_660",
      "pitch": 74,
      "t_note_us": 74660344,
      "t_trigger_us": 74524381,
      "is_ai": false,
      "track_id": 0,
      "velocity": 0,
      "is_motor": true,
      "motor_id": 1,
      "accel_val": 2000,
      "base_duration_us": 127117
    },
    {
      "id": "M_661",
      "pitch": 67,
      "t_note_us": 74745089,
      "t_trigger_us": 74609126,
      "is_ai": false,
      "track_id": 0,
      "velocity": 0,
      "is_motor": true,
      "motor_id": 2,
      "accel_val": 2000,
      "base_duration_us": 127117
    },
    {
      "id": "M_664",
      "pitch": 91,
      "t_note_us": 74746413,
      "t_trigger_us": 74610450,
      "is_ai": true,
      "track_id": 7,
      "velocity": 0,
      "is_motor": false,
      "motor_id": 0,
      "accel_val": 2000,
      "base_duration_us": 508468
    },
    {
      "id": "M_665",
      "pitch": 95,
      "t_note_us": 74746413,
      "t_trigger_us": 74610450,
      "is_ai": true,
      "track_id": 9,
      "velocity": 0,
      "is_motor": false,
      "motor_id": 0,
      "accel_val": 2000,
      "base_duration_us": 508468
    },
    {
      "id": "M_662",
      "pitch": 71,
      "t_note_us": 74914578,
      "t_trigger_us": 74778615,
      "is_ai": false,
      "track_id": 0,
      "velocity": 0,
      "is_motor": true,
      "motor_id": 1,
      "accel_val": 2000,
      "base_duration_us": 127117
    },
    {
      "id": "M_663",
      "pitch": 77,
      "t_note_us": 74999323,
      "t_trigger_us": 74863360,
      "is_ai": false,
      "track_id": 0,
      "velocity": 0,
      "is_motor": true,
      "motor_id": 2,
      "accel_val": 2000,
      "base_duration_us": 127117
    },
    {
      "id": "M_666",
      "pitch": 67,
      "t_note_us": 75168812,
      "t_trigger_us": 75032849,
      "is_ai": false,
      "track_id": 0,
      "velocity": 0,
      "is_motor": true,
      "motor_id": 1,
      "accel_val": 2000,
      "base_duration_us": 127117
    },
    {
      "id": "M_667",
      "pitch": 77,
      "t_note_us": 75253557,
      "t_trigger_us": 75117594,
      "is_ai": false,
      "track_id": 0,
      "velocity": 0,
      "is_motor": true,
      "motor_id": 2,
      "accel_val": 2000,
      "base_duration_us": 508473
    },
    {
      "id": "M_668",
      "pitch": 74,
      "t_note_us": 75253557,
      "t_trigger_us": 75117594,
      "is_ai": false,
      "track_id": 0,
      "velocity": 0,
      "is_motor": true,
      "motor_id": 0,
      "accel_val": 2000,
      "base_duration_us": 508473
    },
    {
      "id": "M_669",
      "pitch": 91,
      "t_note_us": 75254881,
      "t_trigger_us": 75118918,
      "is_ai": true,
      "track_id": 7,
      "velocity": 0,
      "is_motor": false,
      "motor_id": 0,
      "accel_val": 2000,
      "base_duration_us": 508473
    },
    {
      "id": "M_670",
      "pitch": 96,
      "t_note_us": 75254881,
      "t_trigger_us": 75118918,
      "is_ai": true,
      "track_id": 10,
      "velocity": 0,
      "is_motor": false,
      "motor_id": 0,
      "accel_val": 2000,
      "base_duration_us": 508473
    },
    {
      "id": "M_680",
      "pitch": 86,
      "t_note_us": 75762030,
      "t_trigger_us": 75626067,
      "is_ai": true,
      "track_id": 4,
      "velocity": 0,
      "is_motor": false,
      "motor_id": 0,
      "accel_val": 2000,
      "base_duration_us": 2033888
    },
    {
      "id": "M_681",
      "pitch": 71,
      "t_note_us": 75762030,
      "t_trigger_us": 75626067,
      "is_ai": false,
      "track_id": 0,
      "velocity": 0,
      "is_motor": true,
      "motor_id": 1,
      "accel_val": 2000,
      "base_duration_us": 2033888
    },
    {
      "id": "M_682",
      "pitch": 67,
      "t_note_us": 75762030,
      "t_trigger_us": 75626067,
      "is_ai": false,
      "track_id": 0,
      "velocity": 0,
      "is_motor": true,
      "motor_id": 2,
      "accel_val": 2000,
      "base_duration_us": 2033888
    },
    {
      "id": "M_683",
      "pitch": 76,
      "t_note_us": 75762030,
      "t_trigger_us": 75626067,
      "is_ai": false,
      "track_id": 0,
      "velocity": 0,
      "is_motor": true,
      "motor_id": 3,
      "accel_val": 2000,
      "base_duration_us": 2033888
    },
    {
      "id": "M_671",
      "pitch": 98,
      "t_note_us": 75763354,
      "t_trigger_us": 75627391,
      "is_ai": true,
      "track_id": 11,
      "velocity": 0,
      "is_motor": false,
      "motor_id": 0,
      "accel_val": 2000,
      "base_duration_us": 508473
    },
    {
      "id": "M_672",
      "pitch": 98,
      "t_note_us": 76270503,
      "t_trigger_us": 76134540,
      "is_ai": true,
      "track_id": 11,
      "velocity": 0,
      "is_motor": false,
      "motor_id": 0,
      "accel_val": 2000,
      "base_duration_us": 127118
    },
    {
      "id": "M_673",
      "pitch": 93,
      "t_note_us": 76271827,
      "t_trigger_us": 76135864,
      "is_ai": true,
      "track_id": 8,
      "velocity": 0,
      "is_motor": false,
      "motor_id": 0,
      "accel_val": 2000,
      "base_duration_us": 254235
    },
    {
      "id": "M_674",
      "pitch": 103,
      "t_note_us": 76439993,
      "t_trigger_us": 76304030,
      "is_ai": true,
      "track_id": 14,
      "velocity": 0,
      "is_motor": false,
      "motor_id": 0,
      "accel_val": 2000,
      "base_duration_us": 127117
    },
    {
      "id": "M_675",
      "pitch": 69,
      "t_note_us": 76524738,
      "t_trigger_us": 76388775,
      "is_ai": false,
      "track_id": 0,
      "velocity": 0,
      "is_motor": true,
      "motor_id": 0,
      "accel_val": 2000,
      "base_duration_us": 127117
    },
    {
      "id": "M_676",
      "pitch": 93,
      "t_note_us": 76526062,
      "t_trigger_us": 76390099,
      "is_ai": true,
      "track_id": 8,
      "velocity": 0,
      "is_motor": false,
      "motor_id": 0,
      "accel_val": 2000,
      "base_duration_us": 254234
    },
    {
      "id": "M_677",
      "pitch": 67,
      "t_note_us": 76694227,
      "t_trigger_us": 76558264,
      "is_ai": false,
      "track_id": 0,
      "velocity": 0,
      "is_motor": true,
      "motor_id": 0,
      "accel_val": 2000,
      "base_duration_us": 127117
    },
    {
      "id": "M_678",
      "pitch": 91,
      "t_note_us": 76780296,
      "t_trigger_us": 76644333,
      "is_ai": true,
      "track_id": 7,
      "velocity": 0,
      "is_motor": false,
      "motor_id": 0,
      "accel_val": 2000,
      "base_duration_us": 508473
    },
    {
      "id": "M_679",
      "pitch": 86,
      "t_note_us": 77288769,
      "t_trigger_us": 77152806,
      "is_ai": true,
      "track_id": 4,
      "velocity": 0,
      "is_motor": false,
      "motor_id": 0,
      "accel_val": 2000,
      "base_duration_us": 254237
    },
    {
      "id": "M_684",
      "pitch": 98,
      "t_note_us": 77543006,
      "t_trigger_us": 77407043,
      "is_ai": true,
      "track_id": 11,
      "velocity": 0,
      "is_motor": false,
      "motor_id": 0,
      "accel_val": 2000,
      "base_duration_us": 508473
    },
    {
      "id": "M_694",
      "pitch": 72,
      "t_note_us": 77795918,
      "t_trigger_us": 77659955,
      "is_ai": false,
      "track_id": 0,
      "velocity": 0,
      "is_motor": true,
      "motor_id": 1,
      "accel_val": 2000,
      "base_duration_us": 2033887
    },
    {
      "id": "M_695",
      "pitch": 69,
      "t_note_us": 77795918,
      "t_trigger_us": 77659955,
      "is_ai": false,
      "track_id": 0,
      "velocity": 0,
      "is_motor": true,
      "motor_id": 2,
      "accel_val": 2000,
      "base_duration_us": 2033887
    },
    {
      "id": "M_696",
      "pitch": 78,
      "t_note_us": 77795918,
      "t_trigger_us": 77659955,
      "is_ai": false,
      "track_id": 0,
      "velocity": 0,
      "is_motor": true,
      "motor_id": 3,
      "accel_val": 2000,
      "base_duration_us": 2033887
    },
    {
      "id": "M_697",
      "pitch": 74,
      "t_note_us": 77795918,
      "t_trigger_us": 77659955,
      "is_ai": false,
      "track_id": 0,
      "velocity": 0,
      "is_motor": true,
      "motor_id": 0,
      "accel_val": 2000,
      "base_duration_us": 2033887
    },
    {
      "id": "M_685",
      "pitch": 98,
      "t_note_us": 78051479,
      "t_trigger_us": 77915516,
      "is_ai": true,
      "track_id": 11,
      "velocity": 0,
      "is_motor": false,
      "motor_id": 0,
      "accel_val": 2000,
      "base_duration_us": 254236
    },
    {
      "id": "M_686",
      "pitch": 93,
      "t_note_us": 78304391,
      "t_trigger_us": 78168428,
      "is_ai": true,
      "track_id": 8,
      "velocity": 0,
      "is_motor": false,
      "motor_id": 0,
      "accel_val": 2000,
      "base_duration_us": 127118
    },
    {
      "id": "M_687",
      "pitch": 93,
      "t_note_us": 78305715,
      "t_trigger_us": 78169752,
      "is_ai": true,
      "track_id": 8,
      "velocity": 0,
      "is_motor": false,
      "motor_id": 0,
      "accel_val": 2000,
      "base_duration_us": 254235
    },
    {
      "id": "M_688",
      "pitch": 103,
      "t_note_us": 78473881,
      "t_trigger_us": 78337918,
      "is_ai": true,
      "track_id": 14,
      "velocity": 0,
      "is_motor": false,
      "motor_id": 0,
      "accel_val": 2000,
      "base_duration_us": 127117
    },
    {
      "id": "M_689",
      "pitch": 74,
      "t_note_us": 78558626,
      "t_trigger_us": 78422663,
      "is_ai": false,
      "track_id": 0,
      "velocity": 0,
      "is_motor": true,
      "motor_id": 0,
      "accel_val": 2000,
      "base_duration_us": 127117
    },
    {
      "id": "M_690",
      "pitch": 93,
      "t_note_us": 78559950,
      "t_trigger_us": 78423987,
      "is_ai": true,
      "track_id": 8,
      "velocity": 0,
      "is_motor": false,
      "motor_id": 0,
      "accel_val": 2000,
      "base_duration_us": 254234
    },
    {
      "id": "M_691",
      "pitch": 95,
      "t_note_us": 78728115,
      "t_trigger_us": 78592152,
      "is_ai": true,
      "track_id": 9,
      "velocity": 0,
      "is_motor": false,
      "motor_id": 0,
      "accel_val": 2000,
      "base_duration_us": 127117
    },
    {
      "id": "M_692",
      "pitch": 90,
      "t_note_us": 78814184,
      "t_trigger_us": 78678221,
      "is_ai": true,
      "track_id": 0,
      "velocity": 0,
      "is_motor": true,
      "motor_id": 0,
      "accel_val": 2000,
      "base_duration_us": 381354
    },
    {
      "id": "M_693",
      "pitch": 91,
      "t_note_us": 79237910,
      "t_trigger_us": 79101947,
      "is_ai": true,
      "track_id": 7,
      "velocity": 0,
      "is_motor": false,
      "motor_id": 0,
      "accel_val": 2000,
      "base_duration_us": 381355
    },
    {
      "id": "M_706",
      "pitch": 71,
      "t_note_us": 79829805,
      "t_trigger_us": 79693842,
      "is_ai": false,
      "track_id": 0,
      "velocity": 0,
      "is_motor": true,
      "motor_id": 1,
      "accel_val": 2000,
      "base_duration_us": 2033889
    },
    {
      "id": "M_707",
      "pitch": 67,
      "t_note_us": 79829805,
      "t_trigger_us": 79693842,
      "is_ai": false,
      "track_id": 0,
      "velocity": 0,
      "is_motor": true,
      "motor_id": 2,
      "accel_val": 2000,
      "base_duration_us": 2033889
    },
    {
      "id": "M_708",
      "pitch": 76,
      "t_note_us": 79829805,
      "t_trigger_us": 79693842,
      "is_ai": false,
      "track_id": 0,
      "velocity": 0,
      "is_motor": true,
      "motor_id": 3,
      "accel_val": 2000,
      "base_duration_us": 2033889
    },
    {
      "id": "M_709",
      "pitch": 72,
      "t_note_us": 79829805,
      "t_trigger_us": 79693842,
      "is_ai": false,
      "track_id": 0,
      "velocity": 0,
      "is_motor": true,
      "motor_id": 0,
      "accel_val": 2000,
      "base_duration_us": 2033889
    },
    {
      "id": "M_698",
      "pitch": 100,
      "t_note_us": 80338279,
      "t_trigger_us": 80202316,
      "is_ai": true,
      "track_id": 12,
      "velocity": 0,
      "is_motor": false,
      "motor_id": 0,
      "accel_val": 2000,
      "base_duration_us": 127118
    },
    {
      "id": "M_699",
      "pitch": 93,
      "t_note_us": 80339603,
      "t_trigger_us": 80203640,
      "is_ai": true,
      "track_id": 8,
      "velocity": 0,
      "is_motor": false,
      "motor_id": 0,
      "accel_val": 2000,
      "base_duration_us": 254235
    },
    {
      "id": "M_700",
      "pitch": 95,
      "t_note_us": 80507769,
      "t_trigger_us": 80371806,
      "is_ai": true,
      "track_id": 9,
      "velocity": 0,
      "is_motor": false,
      "motor_id": 0,
      "accel_val": 2000,
      "base_duration_us": 127117
    },
    {
      "id": "M_701",
      "pitch": 78,
      "t_note_us": 80592514,
      "t_trigger_us": 80456551,
      "is_ai": false,
      "track_id": 0,
      "velocity": 0,
      "is_motor": true,
      "motor_id": 0,
      "accel_val": 2000,
      "base_duration_us": 127117
    },
    {
      "id": "M_702",
      "pitch": 91,
      "t_note_us": 80593838,
      "t_trigger_us": 80457875,
      "is_ai": true,
      "track_id": 7,
      "velocity": 0,
      "is_motor": false,
      "motor_id": 0,
      "accel_val": 2000,
      "base_duration_us": 254234
    },
    {
      "id": "M_703",
      "pitch": 103,
      "t_note_us": 80762003,
      "t_trigger_us": 80626040,
      "is_ai": true,
      "track_id": 14,
      "velocity": 0,
      "is_motor": false,
      "motor_id": 0,
      "accel_val": 2000,
      "base_duration_us": 127117
    },
    {
      "id": "M_704",
      "pitch": 93,
      "t_note_us": 80848072,
      "t_trigger_us": 80712109,
      "is_ai": true,
      "track_id": 8,
      "velocity": 0,
      "is_motor": false,
      "motor_id": 0,
      "accel_val": 2000,
      "base_duration_us": 254236
    },
    {
      "id": "M_705",
      "pitch": 91,
      "t_note_us": 81102308,
      "t_trigger_us": 80966345,
      "is_ai": true,
      "track_id": 7,
      "velocity": 0,
      "is_motor": false,
      "motor_id": 0,
      "accel_val": 2000,
      "base_duration_us": 508474
    },
    {
      "id": "M_710",
      "pitch": 98,
      "t_note_us": 81610782,
      "t_trigger_us": 81474819,
      "is_ai": true,
      "track_id": 11,
      "velocity": 0,
      "is_motor": false,
      "motor_id": 0,
      "accel_val": 2000,
      "base_duration_us": 254236
    },
    {
      "id": "M_721",
      "pitch": 69,
      "t_note_us": 81863694,
      "t_trigger_us": 81727731,
      "is_ai": false,
      "track_id": 0,
      "velocity": 0,
      "is_motor": true,
      "motor_id": 1,
      "accel_val": 2000,
      "base_duration_us": 2033886
    },
    {
      "id": "M_722",
      "pitch": 78,
      "t_note_us": 81863694,
      "t_trigger_us": 81727731,
      "is_ai": false,
      "track_id": 0,
      "velocity": 0,
      "is_motor": true,
      "motor_id": 2,
      "accel_val": 2000,
      "base_duration_us": 2033886
    },
    {
      "id": "M_723",
      "pitch": 74,
      "t_note_us": 81863694,
      "t_trigger_us": 81727731,
      "is_ai": false,
      "track_id": 0,
      "velocity": 0,
      "is_motor": true,
      "motor_id": 0,
      "accel_val": 2000,
      "base_duration_us": 2033886
    },
    {
      "id": "M_724",
      "pitch": 71,
      "t_note_us": 81863694,
      "t_trigger_us": 81727731,
      "is_ai": false,
      "track_id": 0,
      "velocity": 0,
      "is_motor": true,
      "motor_id": 3,
      "accel_val": 2000,
      "base_duration_us": 2033886
    },
    {
      "id": "M_711",
      "pitch": 96,
      "t_note_us": 82119255,
      "t_trigger_us": 81983292,
      "is_ai": true,
      "track_id": 10,
      "velocity": 0,
      "is_motor": false,
      "motor_id": 0,
      "accel_val": 2000,
      "base_duration_us": 254236
    },
    {
      "id": "M_712",
      "pitch": 93,
      "t_note_us": 82372167,
      "t_trigger_us": 82236204,
      "is_ai": true,
      "track_id": 8,
      "velocity": 0,
      "is_motor": false,
      "motor_id": 0,
      "accel_val": 2000,
      "base_duration_us": 127118
    },
    {
      "id": "M_713",
      "pitch": 95,
      "t_note_us": 82373491,
      "t_trigger_us": 82237528,
      "is_ai": true,
      "track_id": 9,
      "velocity": 0,
      "is_motor": false,
      "motor_id": 0,
      "accel_val": 2000,
      "base_duration_us": 254235
    },
    {
      "id": "M_714",
      "pitch": 103,
      "t_note_us": 82541657,
      "t_trigger_us": 82405694,
      "is_ai": true,
      "track_id": 14,
      "velocity": 0,
      "is_motor": false,
      "motor_id": 0,
      "accel_val": 2000,
      "base_duration_us": 127117
    },
    {
      "id": "M_715",
      "pitch": 69,
      "t_note_us": 82626402,
      "t_trigger_us": 82490439,
      "is_ai": false,
      "track_id": 0,
      "velocity": 0,
      "is_motor": true,
      "motor_id": 0,
      "accel_val": 2000,
      "base_duration_us": 127117
    },
    {
      "id": "M_719",
      "pitch": 78,
      "t_note_us": 82627726,
      "t_trigger_us": 82491763,
      "is_ai": false,
      "track_id": 0,
      "velocity": 0,
      "is_motor": true,
      "motor_id": 0,
      "accel_val": 2000,
      "base_duration_us": 762705
    },
    {
      "id": "M_716",
      "pitch": 95,
      "t_note_us": 82795891,
      "t_trigger_us": 82659928,
      "is_ai": true,
      "track_id": 9,
      "velocity": 0,
      "is_motor": false,
      "motor_id": 0,
      "accel_val": 2000,
      "base_duration_us": 127117
    },
    {
      "id": "M_717",
      "pitch": 74,
      "t_note_us": 82880636,
      "t_trigger_us": 82744673,
      "is_ai": false,
      "track_id": 0,
      "velocity": 0,
      "is_motor": true,
      "motor_id": 0,
      "accel_val": 2000,
      "base_duration_us": 254236
    },
    {
      "id": "M_718",
      "pitch": 95,
      "t_note_us": 83134872,
      "t_trigger_us": 82998909,
      "is_ai": true,
      "track_id": 9,
      "velocity": 0,
      "is_motor": false,
      "motor_id": 0,
      "accel_val": 2000,
      "base_duration_us": 127118
    },
    {
      "id": "M_720",
      "pitch": 93,
      "t_note_us": 83304362,
      "t_trigger_us": 83168399,
      "is_ai": true,
      "track_id": 8,
      "velocity": 0,
      "is_motor": false,
      "motor_id": 0,
      "accel_val": 2000,
      "base_duration_us": 254236
    },
    {
      "id": "M_725",
      "pitch": 103,
      "t_note_us": 83558598,
      "t_trigger_us": 83422635,
      "is_ai": true,
      "track_id": 14,
      "velocity": 0,
      "is_motor": false,
      "motor_id": 0,
      "accel_val": 2000,
      "base_duration_us": 381354
    },
    {
      "id": "M_736",
      "pitch": 67,
      "t_note_us": 83897580,
      "t_trigger_us": 83761617,
      "is_ai": false,
      "track_id": 0,
      "velocity": 0,
      "is_motor": true,
      "motor_id": 1,
      "accel_val": 2000,
      "base_duration_us": 2033892
    },
    {
      "id": "M_737",
      "pitch": 76,
      "t_note_us": 83897580,
      "t_trigger_us": 83761617,
      "is_ai": false,
      "track_id": 0,
      "velocity": 0,
      "is_motor": true,
      "motor_id": 2,
      "accel_val": 2000,
      "base_duration_us": 2033892
    },
    {
      "id": "M_738",
      "pitch": 72,
      "t_note_us": 83897580,
      "t_trigger_us": 83761617,
      "is_ai": false,
      "track_id": 0,
      "velocity": 0,
      "is_motor": true,
      "motor_id": 0,
      "accel_val": 2000,
      "base_duration_us": 2033892
    },
    {
      "id": "M_739",
      "pitch": 69,
      "t_note_us": 83897580,
      "t_trigger_us": 83761617,
      "is_ai": false,
      "track_id": 0,
      "velocity": 0,
      "is_motor": true,
      "motor_id": 3,
      "accel_val": 2000,
      "base_duration_us": 2033892
    },
    {
      "id": "M_726",
      "pitch": 84,
      "t_note_us": 83898904,
      "t_trigger_us": 83762941,
      "is_ai": true,
      "track_id": 3,
      "velocity": 0,
      "is_motor": false,
      "motor_id": 0,
      "accel_val": 2000,
      "base_duration_us": 381354
    },
    {
      "id": "M_727",
      "pitch": 91,
      "t_note_us": 83898904,
      "t_trigger_us": 83762941,
      "is_ai": true,
      "track_id": 7,
      "velocity": 0,
      "is_motor": false,
      "motor_id": 0,
      "accel_val": 2000,
      "base_duration_us": 381354
    },
    {
      "id": "M_728",
      "pitch": 84,
      "t_note_us": 84280258,
      "t_trigger_us": 84144295,
      "is_ai": true,
      "track_id": 3,
      "velocity": 0,
      "is_motor": false,
      "motor_id": 0,
      "accel_val": 2000,
      "base_duration_us": 381355
    },
    {
      "id": "M_729",
      "pitch": 90,
      "t_note_us": 84280258,
      "t_trigger_us": 84144295,
      "is_ai": true,
      "track_id": 0,
      "velocity": 0,
      "is_motor": true,
      "motor_id": 0,
      "accel_val": 2000,
      "base_duration_us": 381355
    },
    {
      "id": "M_731",
      "pitch": 91,
      "t_note_us": 84661613,
      "t_trigger_us": 84525650,
      "is_ai": true,
      "track_id": 7,
      "velocity": 0,
      "is_motor": false,
      "motor_id": 0,
      "accel_val": 2000,
      "base_duration_us": 254237
    },
    {
      "id": "M_730",
      "pitch": 72,
      "t_note_us": 84661613,
      "t_trigger_us": 84525650,
      "is_ai": false,
      "track_id": 0,
      "velocity": 0,
      "is_motor": true,
      "motor_id": 0,
      "accel_val": 2000,
      "base_duration_us": 254237
    },
    {
      "id": "M_732",
      "pitch": 88,
      "t_note_us": 84915850,
      "t_trigger_us": 84779887,
      "is_ai": true,
      "track_id": 5,
      "velocity": 0,
      "is_motor": false,
      "motor_id": 0,
      "accel_val": 2000,
      "base_duration_us": 381355
    },
    {
      "id": "M_733",
      "pitch": 72,
      "t_note_us": 84915850,
      "t_trigger_us": 84779887,
      "is_ai": false,
      "track_id": 0,
      "velocity": 0,
      "is_motor": true,
      "motor_id": 0,
      "accel_val": 2000,
      "base_duration_us": 381355
    },
    {
      "id": "M_734",
      "pitch": 90,
      "t_note_us": 85297205,
      "t_trigger_us": 85161242,
      "is_ai": true,
      "track_id": 0,
      "velocity": 0,
      "is_motor": true,
      "motor_id": 0,
      "accel_val": 2000,
      "base_duration_us": 381355
    },
    {
      "id": "M_735",
      "pitch": 84,
      "t_note_us": 85297205,
      "t_trigger_us": 85161242,
      "is_ai": true,
      "track_id": 3,
      "velocity": 0,
      "is_motor": false,
      "motor_id": 0,
      "accel_val": 2000,
      "base_duration_us": 381355
    },
    {
      "id": "M_740",
      "pitch": 84,
      "t_note_us": 85678560,
      "t_trigger_us": 85542597,
      "is_ai": true,
      "track_id": 3,
      "velocity": 0,
      "is_motor": false,
      "motor_id": 0,
      "accel_val": 2000,
      "base_duration_us": 254236
    },
    {
      "id": "M_741",
      "pitch": 91,
      "t_note_us": 85678560,
      "t_trigger_us": 85542597,
      "is_ai": true,
      "track_id": 7,
      "velocity": 0,
      "is_motor": false,
      "motor_id": 0,
      "accel_val": 2000,
      "base_duration_us": 254236
    },
    {
      "id": "M_752",
      "pitch": 69,
      "t_note_us": 85931472,
      "t_trigger_us": 85795509,
      "is_ai": false,
      "track_id": 0,
      "velocity": 0,
      "is_motor": true,
      "motor_id": 1,
      "accel_val": 2000,
      "base_duration_us": 2033893
    },
    {
      "id": "M_753",
      "pitch": 78,
      "t_note_us": 85931472,
      "t_trigger_us": 85795509,
      "is_ai": false,
      "track_id": 0,
      "velocity": 0,
      "is_motor": true,
      "motor_id": 2,
      "accel_val": 2000,
      "base_duration_us": 2033893
    },
    {
      "id": "M_754",
      "pitch": 74,
      "t_note_us": 85931472,
      "t_trigger_us": 85795509,
      "is_ai": false,
      "track_id": 0,
      "velocity": 0,
      "is_motor": true,
      "motor_id": 0,
      "accel_val": 2000,
      "base_duration_us": 2033893
    },
    {
      "id": "M_755",
      "pitch": 71,
      "t_note_us": 85931472,
      "t_trigger_us": 85795509,
      "is_ai": false,
      "track_id": 0,
      "velocity": 0,
      "is_motor": true,
      "motor_id": 3,
      "accel_val": 2000,
      "base_duration_us": 2033893
    },
    {
      "id": "M_742",
      "pitch": 86,
      "t_note_us": 85932796,
      "t_trigger_us": 85796833,
      "is_ai": true,
      "track_id": 4,
      "velocity": 0,
      "is_motor": false,
      "motor_id": 0,
      "accel_val": 2000,
      "base_duration_us": 381355
    },
    {
      "id": "M_743",
      "pitch": 93,
      "t_note_us": 85932796,
      "t_trigger_us": 85796833,
      "is_ai": true,
      "track_id": 8,
      "velocity": 0,
      "is_motor": false,
      "motor_id": 0,
      "accel_val": 2000,
      "base_duration_us": 381355
    },
    {
      "id": "M_744",
      "pitch": 86,
      "t_note_us": 86314151,
      "t_trigger_us": 86178188,
      "is_ai": true,
      "track_id": 4,
      "velocity": 0,
      "is_motor": false,
      "motor_id": 0,
      "accel_val": 2000,
      "base_duration_us": 381355
    },
    {
      "id": "M_745",
      "pitch": 91,
      "t_note_us": 86314151,
      "t_trigger_us": 86178188,
      "is_ai": true,
      "track_id": 7,
      "velocity": 0,
      "is_motor": false,
      "motor_id": 0,
      "accel_val": 2000,
      "base_duration_us": 381355
    },
    {
      "id": "M_746",
      "pitch": 86,
      "t_note_us": 86695506,
      "t_trigger_us": 86559543,
      "is_ai": true,
      "track_id": 4,
      "velocity": 0,
      "is_motor": false,
      "motor_id": 0,
      "accel_val": 2000,
      "base_duration_us": 254237
    },
    {
      "id": "M_747",
      "pitch": 93,
      "t_note_us": 86695506,
      "t_trigger_us": 86559543,
      "is_ai": true,
      "track_id": 8,
      "velocity": 0,
      "is_motor": false,
      "motor_id": 0,
      "accel_val": 2000,
      "base_duration_us": 254237
    },
    {
      "id": "M_748",
      "pitch": 90,
      "t_note_us": 86949743,
      "t_trigger_us": 86813780,
      "is_ai": true,
      "track_id": 0,
      "velocity": 0,
      "is_motor": true,
      "motor_id": 0,
      "accel_val": 2000,
      "base_duration_us": 381355
    },
    {
      "id": "M_749",
      "pitch": 86,
      "t_note_us": 86949743,
      "t_trigger_us": 86813780,
      "is_ai": true,
      "track_id": 4,
      "velocity": 0,
      "is_motor": false,
      "motor_id": 0,
      "accel_val": 2000,
      "base_duration_us": 381355
    },
    {
      "id": "M_750",
      "pitch": 91,
      "t_note_us": 87331098,
      "t_trigger_us": 87195135,
      "is_ai": true,
      "track_id": 7,
      "velocity": 0,
      "is_motor": false,
      "motor_id": 0,
      "accel_val": 2000,
      "base_duration_us": 381355
    },
    {
      "id": "M_751",
      "pitch": 86,
      "t_note_us": 87331098,
      "t_trigger_us": 87195135,
      "is_ai": true,
      "track_id": 4,
      "velocity": 0,
      "is_motor": false,
      "motor_id": 0,
      "accel_val": 2000,
      "base_duration_us": 381355
    },
    {
      "id": "M_756",
      "pitch": 86,
      "t_note_us": 87712453,
      "t_trigger_us": 87576490,
      "is_ai": true,
      "track_id": 4,
      "velocity": 0,
      "is_motor": false,
      "motor_id": 0,
      "accel_val": 2000,
      "base_duration_us": 254236
    },
    {
      "id": "M_757",
      "pitch": 93,
      "t_note_us": 87712453,
      "t_trigger_us": 87576490,
      "is_ai": true,
      "track_id": 8,
      "velocity": 0,
      "is_motor": false,
      "motor_id": 0,
      "accel_val": 2000,
      "base_duration_us": 254236
    },
    {
      "id": "M_762",
      "pitch": 72,
      "t_note_us": 87965365,
      "t_trigger_us": 87829402,
      "is_ai": false,
      "track_id": 0,
      "velocity": 0,
      "is_motor": true,
      "motor_id": 1,
      "accel_val": 2000,
      "base_duration_us": 1016946
    },
    {
      "id": "M_763",
      "pitch": 71,
      "t_note_us": 87965365,
      "t_trigger_us": 87829402,
      "is_ai": false,
      "track_id": 0,
      "velocity": 0,
      "is_motor": true,
      "motor_id": 2,
      "accel_val": 2000,
      "base_duration_us": 1016946
    },
    {
      "id": "M_764",
      "pitch": 67,
      "t_note_us": 87965365,
      "t_trigger_us": 87829402,
      "is_ai": false,
      "track_id": 0,
      "velocity": 0,
      "is_motor": true,
      "motor_id": 0,
      "accel_val": 2000,
      "base_duration_us": 1016946
    },
    {
      "id": "M_765",
      "pitch": 76,
      "t_note_us": 87965365,
      "t_trigger_us": 87829402,
      "is_ai": false,
      "track_id": 0,
      "velocity": 0,
      "is_motor": true,
      "motor_id": 3,
      "accel_val": 2000,
      "base_duration_us": 1016946
    },
    {
      "id": "M_758",
      "pitch": 95,
      "t_note_us": 87966689,
      "t_trigger_us": 87830726,
      "is_ai": true,
      "track_id": 9,
      "velocity": 0,
      "is_motor": false,
      "motor_id": 0,
      "accel_val": 2000,
      "base_duration_us": 381355
    },
    {
      "id": "M_759",
      "pitch": 88,
      "t_note_us": 87966689,
      "t_trigger_us": 87830726,
      "is_ai": true,
      "track_id": 5,
      "velocity": 0,
      "is_motor": false,
      "motor_id": 0,
      "accel_val": 2000,
      "base_duration_us": 381355
    },
    {
      "id": "M_760",
      "pitch": 88,
      "t_note_us": 88348044,
      "t_trigger_us": 88212081,
      "is_ai": true,
      "track_id": 5,
      "velocity": 0,
      "is_motor": false,
      "motor_id": 0,
      "accel_val": 2000,
      "base_duration_us": 381355
    },
    {
      "id": "M_761",
      "pitch": 93,
      "t_note_us": 88348044,
      "t_trigger_us": 88212081,
      "is_ai": true,
      "track_id": 8,
      "velocity": 0,
      "is_motor": false,
      "motor_id": 0,
      "accel_val": 2000,
      "base_duration_us": 381355
    },
    {
      "id": "M_766",
      "pitch": 91,
      "t_note_us": 88729399,
      "t_trigger_us": 88593436,
      "is_ai": true,
      "track_id": 7,
      "velocity": 0,
      "is_motor": false,
      "motor_id": 0,
      "accel_val": 2000,
      "base_duration_us": 254236
    },
    {
      "id": "M_767",
      "pitch": 76,
      "t_note_us": 88729399,
      "t_trigger_us": 88593436,
      "is_ai": false,
      "track_id": 0,
      "velocity": 0,
      "is_motor": true,
      "motor_id": 0,
      "accel_val": 2000,
      "base_duration_us": 254236
    },
    {
      "id": "M_772",
      "pitch": 75,
      "t_note_us": 88982311,
      "t_trigger_us": 88846348,
      "is_ai": false,
      "track_id": 0,
      "velocity": 0,
      "is_motor": true,
      "motor_id": 2,
      "accel_val": 2000,
      "base_duration_us": 1016946
    },
    {
      "id": "M_773",
      "pitch": 71,
      "t_note_us": 88982311,
      "t_trigger_us": 88846348,
      "is_ai": false,
      "track_id": 0,
      "velocity": 0,
      "is_motor": true,
      "motor_id": 1,
      "accel_val": 2000,
      "base_duration_us": 1016946
    },
    {
      "id": "M_774",
      "pitch": 67,
      "t_note_us": 88982311,
      "t_trigger_us": 88846348,
      "is_ai": false,
      "track_id": 0,
      "velocity": 0,
      "is_motor": true,
      "motor_id": 0,
      "accel_val": 2000,
      "base_duration_us": 1016946
    },
    {
      "id": "M_775",
      "pitch": 72,
      "t_note_us": 88982311,
      "t_trigger_us": 88846348,
      "is_ai": false,
      "track_id": 0,
      "velocity": 0,
      "is_motor": true,
      "motor_id": 3,
      "accel_val": 2000,
      "base_duration_us": 1016946
    },
    {
      "id": "M_768",
      "pitch": 98,
      "t_note_us": 88983635,
      "t_trigger_us": 88847672,
      "is_ai": true,
      "track_id": 11,
      "velocity": 0,
      "is_motor": false,
      "motor_id": 0,
      "accel_val": 2000,
      "base_duration_us": 381355
    },
    {
      "id": "M_769",
      "pitch": 91,
      "t_note_us": 88983635,
      "t_trigger_us": 88847672,
      "is_ai": true,
      "track_id": 7,
      "velocity": 0,
      "is_motor": false,
      "motor_id": 0,
      "accel_val": 2000,
      "base_duration_us": 381355
    },
    {
      "id": "M_770",
      "pitch": 91,
      "t_note_us": 89364990,
      "t_trigger_us": 89229027,
      "is_ai": true,
      "track_id": 7,
      "velocity": 0,
      "is_motor": false,
      "motor_id": 0,
      "accel_val": 2000,
      "base_duration_us": 381355
    },
    {
      "id": "M_771",
      "pitch": 96,
      "t_note_us": 89364990,
      "t_trigger_us": 89229027,
      "is_ai": true,
      "track_id": 10,
      "velocity": 0,
      "is_motor": false,
      "motor_id": 0,
      "accel_val": 2000,
      "base_duration_us": 381355
    },
    {
      "id": "M_776",
      "pitch": 95,
      "t_note_us": 89746345,
      "t_trigger_us": 89610382,
      "is_ai": true,
      "track_id": 9,
      "velocity": 0,
      "is_motor": false,
      "motor_id": 0,
      "accel_val": 2000,
      "base_duration_us": 254236
    },
    {
      "id": "M_777",
      "pitch": 91,
      "t_note_us": 89746345,
      "t_trigger_us": 89610382,
      "is_ai": true,
      "track_id": 7,
      "velocity": 0,
      "is_motor": false,
      "motor_id": 0,
      "accel_val": 2000,
      "base_duration_us": 254236
    },
    {
      "id": "M_782",
      "pitch": 71,
      "t_note_us": 89999257,
      "t_trigger_us": 89863294,
      "is_ai": false,
      "track_id": 0,
      "velocity": 0,
      "is_motor": true,
      "motor_id": 1,
      "accel_val": 2000,
      "base_duration_us": 1016946
    },
    {
      "id": "M_783",
      "pitch": 67,
      "t_note_us": 89999257,
      "t_trigger_us": 89863294,
      "is_ai": false,
      "track_id": 0,
      "velocity": 0,
      "is_motor": true,
      "motor_id": 2,
      "accel_val": 2000,
      "base_duration_us": 1016946
    },
    {
      "id": "M_784",
      "pitch": 78,
      "t_note_us": 89999257,
      "t_trigger_us": 89863294,
      "is_ai": false,
      "track_id": 0,
      "velocity": 0,
      "is_motor": true,
      "motor_id": 3,
      "accel_val": 2000,
      "base_duration_us": 1016946
    },
    {
      "id": "M_785",
      "pitch": 74,
      "t_note_us": 89999257,
      "t_trigger_us": 89863294,
      "is_ai": false,
      "track_id": 0,
      "velocity": 0,
      "is_motor": true,
      "motor_id": 0,
      "accel_val": 2000,
      "base_duration_us": 1016946
    },
    {
      "id": "M_778",
      "pitch": 91,
      "t_note_us": 90000581,
      "t_trigger_us": 89864618,
      "is_ai": true,
      "track_id": 7,
      "velocity": 0,
      "is_motor": false,
      "motor_id": 0,
      "accel_val": 2000,
      "base_duration_us": 381355
    },
    {
      "id": "M_779",
      "pitch": 95,
      "t_note_us": 90000581,
      "t_trigger_us": 89864618,
      "is_ai": true,
      "track_id": 9,
      "velocity": 0,
      "is_motor": false,
      "motor_id": 0,
      "accel_val": 2000,
      "base_duration_us": 381355
    },
    {
      "id": "M_780",
      "pitch": 91,
      "t_note_us": 90381936,
      "t_trigger_us": 90245973,
      "is_ai": true,
      "track_id": 7,
      "velocity": 0,
      "is_motor": false,
      "motor_id": 0,
      "accel_val": 2000,
      "base_duration_us": 381355
    },
    {
      "id": "M_781",
      "pitch": 96,
      "t_note_us": 90381936,
      "t_trigger_us": 90245973,
      "is_ai": true,
      "track_id": 10,
      "velocity": 0,
      "is_motor": false,
      "motor_id": 0,
      "accel_val": 2000,
      "base_duration_us": 381355
    },
    {
      "id": "M_786",
      "pitch": 91,
      "t_note_us": 90763291,
      "t_trigger_us": 90627328,
      "is_ai": true,
      "track_id": 7,
      "velocity": 0,
      "is_motor": false,
      "motor_id": 0,
      "accel_val": 2000,
      "base_duration_us": 254236
    },
    {
      "id": "M_787",
      "pitch": 98,
      "t_note_us": 90763291,
      "t_trigger_us": 90627328,
      "is_ai": true,
      "track_id": 11,
      "velocity": 0,
      "is_motor": false,
      "motor_id": 0,
      "accel_val": 2000,
      "base_duration_us": 254236
    },
    {
      "id": "M_792",
      "pitch": 71,
      "t_note_us": 91016203,
      "t_trigger_us": 90880240,
      "is_ai": false,
      "track_id": 0,
      "velocity": 0,
      "is_motor": true,
      "motor_id": 1,
      "accel_val": 2000,
      "base_duration_us": 1016946
    },
    {
      "id": "M_793",
      "pitch": 69,
      "t_note_us": 91016203,
      "t_trigger_us": 90880240,
      "is_ai": false,
      "track_id": 0,
      "velocity": 0,
      "is_motor": true,
      "motor_id": 2,
      "accel_val": 2000,
      "base_duration_us": 1016946
    },
    {
      "id": "M_794",
      "pitch": 77,
      "t_note_us": 91016203,
      "t_trigger_us": 90880240,
      "is_ai": false,
      "track_id": 0,
      "velocity": 0,
      "is_motor": true,
      "motor_id": 3,
      "accel_val": 2000,
      "base_duration_us": 1016946
    },
    {
      "id": "M_795",
      "pitch": 74,
      "t_note_us": 91016203,
      "t_trigger_us": 90880240,
      "is_ai": false,
      "track_id": 0,
      "velocity": 0,
      "is_motor": true,
      "motor_id": 0,
      "accel_val": 2000,
      "base_duration_us": 1016946
    },
    {
      "id": "M_789",
      "pitch": 95,
      "t_note_us": 91017527,
      "t_trigger_us": 90881564,
      "is_ai": true,
      "track_id": 9,
      "velocity": 0,
      "is_motor": false,
      "motor_id": 0,
      "accel_val": 2000,
      "base_duration_us": 508473
    },
    {
      "id": "M_790",
      "pitch": 89,
      "t_note_us": 91017527,
      "t_trigger_us": 90881564,
      "is_ai": true,
      "track_id": 6,
      "velocity": 0,
      "is_motor": false,
      "motor_id": 0,
      "accel_val": 2000,
      "base_duration_us": 508473
    },
    {
      "id": "M_788",
      "pitch": 62,
      "t_note_us": 91270439,
      "t_trigger_us": 91134476,
      "is_ai": false,
      "track_id": 0,
      "velocity": 0,
      "is_motor": true,
      "motor_id": 0,
      "accel_val": 2000,
      "base_duration_us": 254237
    },
    {
      "id": "M_791",
      "pitch": 69,
      "t_note_us": 91524676,
      "t_trigger_us": 91388713,
      "is_ai": false,
      "track_id": 0,
      "velocity": 0,
      "is_motor": true,
      "motor_id": 0,
      "accel_val": 2000,
      "base_duration_us": 254236
    },
    {
      "id": "M_796",
      "pitch": 48,
      "t_note_us": 92033149,
      "t_trigger_us": 91897186,
      "is_ai": false,
      "track_id": 0,
      "velocity": 0,
      "is_motor": true,
      "motor_id": 0,
      "accel_val": 2000,
      "base_duration_us": 254237
    },
    {
      "id": "M_797",
      "pitch": 64,
      "t_note_us": 92287386,
      "t_trigger_us": 92151423,
      "is_ai": false,
      "track_id": 0,
      "velocity": 0,
      "is_motor": true,
      "motor_id": 1,
      "accel_val": 2000,
      "base_duration_us": 254236
    },
    {
      "id": "M_798",
      "pitch": 60,
      "t_note_us": 92287386,
      "t_trigger_us": 92151423,
      "is_ai": false,
      "track_id": 0,
      "velocity": 0,
      "is_motor": true,
      "motor_id": 0,
      "accel_val": 2000,
      "base_duration_us": 254236
    },
    {
      "id": "M_799",
      "pitch": 91,
      "t_note_us": 92288710,
      "t_trigger_us": 92152747,
      "is_ai": true,
      "track_id": 7,
      "velocity": 0,
      "is_motor": false,
      "motor_id": 0,
      "accel_val": 2000,
      "base_duration_us": 254236
    },
    {
      "id": "M_800",
      "pitch": 76,
      "t_note_us": 92288710,
      "t_trigger_us": 92152747,
      "is_ai": false,
      "track_id": 0,
      "velocity": 0,
      "is_motor": true,
      "motor_id": 2,
      "accel_val": 2000,
      "base_duration_us": 254236
    },
    {
      "id": "M_801",
      "pitch": 55,
      "t_note_us": 92541622,
      "t_trigger_us": 92405659,
      "is_ai": false,
      "track_id": 0,
      "velocity": 0,
      "is_motor": true,
      "motor_id": 0,
      "accel_val": 2000,
      "base_duration_us": 127118
    },
    {
      "id": "M_804",
      "pitch": 98,
      "t_note_us": 92542946,
      "t_trigger_us": 92406983,
      "is_ai": true,
      "track_id": 11,
      "velocity": 0,
      "is_motor": false,
      "motor_id": 0,
      "accel_val": 2000,
      "base_duration_us": 508471
    },
    {
      "id": "M_805",
      "pitch": 91,
      "t_note_us": 92542946,
      "t_trigger_us": 92406983,
      "is_ai": true,
      "track_id": 7,
      "velocity": 0,
      "is_motor": false,
      "motor_id": 0,
      "accel_val": 2000,
      "base_duration_us": 508471
    },
    {
      "id": "M_802",
      "pitch": 64,
      "t_note_us": 92711112,
      "t_trigger_us": 92575149,
      "is_ai": false,
      "track_id": 0,
      "velocity": 0,
      "is_motor": true,
      "motor_id": 1,
      "accel_val": 2000,
      "base_duration_us": 127117
    },
    {
      "id": "M_803",
      "pitch": 48,
      "t_note_us": 92795857,
      "t_trigger_us": 92659894,
      "is_ai": false,
      "track_id": 0,
      "velocity": 0,
      "is_motor": true,
      "motor_id": 0,
      "accel_val": 2000,
      "base_duration_us": 254236
    },
    {
      "id": "M_806",
      "pitch": 47,
      "t_note_us": 93050093,
      "t_trigger_us": 92914130,
      "is_ai": false,
      "track_id": 0,
      "velocity": 0,
      "is_motor": true,
      "motor_id": 0,
      "accel_val": 2000,
      "base_duration_us": 254236
    },
    {
      "id": "M_807",
      "pitch": 90,
      "t_note_us": 93051417,
      "t_trigger_us": 92915454,
      "is_ai": true,
      "track_id": 0,
      "velocity": 0,
      "is_motor": true,
      "motor_id": 3,
      "accel_val": 2000,
      "base_duration_us": 254236
    },
    {
      "id": "M_808",
      "pitch": 98,
      "t_note_us": 93051417,
      "t_trigger_us": 92915454,
      "is_ai": true,
      "track_id": 11,
      "velocity": 0,
      "is_motor": false,
      "motor_id": 0,
      "accel_val": 2000,
      "base_duration_us": 254236
    },
    {
      "id": "M_809",
      "pitch": 63,
      "t_note_us": 93304329,
      "t_trigger_us": 93168366,
      "is_ai": false,
      "track_id": 0,
      "velocity": 0,
      "is_motor": true,
      "motor_id": 1,
      "accel_val": 2000,
      "base_duration_us": 254236
    },
    {
      "id": "M_810",
      "pitch": 59,
      "t_note_us": 93304329,
      "t_trigger_us": 93168366,
      "is_ai": false,
      "track_id": 0,
      "velocity": 0,
      "is_motor": true,
      "motor_id": 0,
      "accel_val": 2000,
      "base_duration_us": 254236
    },
    {
      "id": "M_811",
      "pitch": 90,
      "t_note_us": 93305653,
      "t_trigger_us": 93169690,
      "is_ai": true,
      "track_id": 0,
      "velocity": 0,
      "is_motor": true,
      "motor_id": 3,
      "accel_val": 2000,
      "base_duration_us": 254236
    },
    {
      "id": "M_812",
      "pitch": 96,
      "t_note_us": 93305653,
      "t_trigger_us": 93169690,
      "is_ai": true,
      "track_id": 10,
      "velocity": 0,
      "is_motor": false,
      "motor_id": 0,
      "accel_val": 2000,
      "base_duration_us": 254236
    },
    {
      "id": "M_813",
      "pitch": 54,
      "t_note_us": 93558565,
      "t_trigger_us": 93422602,
      "is_ai": false,
      "track_id": 0,
      "velocity": 0,
      "is_motor": true,
      "motor_id": 0,
      "accel_val": 2000,
      "base_duration_us": 127118
    },
    {
      "id": "M_814",
      "pitch": 95,
      "t_note_us": 93559889,
      "t_trigger_us": 93423926,
      "is_ai": true,
      "track_id": 9,
      "velocity": 0,
      "is_motor": false,
      "motor_id": 0,
      "accel_val": 2000,
      "base_duration_us": 254235
    },
    {
      "id": "M_815",
      "pitch": 98,
      "t_note_us": 93559889,
      "t_trigger_us": 93423926,
      "is_ai": true,
      "track_id": 11,
      "velocity": 0,
      "is_motor": false,
      "motor_id": 0,
      "accel_val": 2000,
      "base_duration_us": 254235
    },
    {
      "id": "M_816",
      "pitch": 63,
      "t_note_us": 93728055,
      "t_trigger_us": 93592092,
      "is_ai": false,
      "track_id": 0,
      "velocity": 0,
      "is_motor": true,
      "motor_id": 1,
      "accel_val": 2000,
      "base_duration_us": 127117
    },
    {
      "id": "M_817",
      "pitch": 47,
      "t_note_us": 93812800,
      "t_trigger_us": 93676837,
      "is_ai": false,
      "track_id": 0,
      "velocity": 0,
      "is_motor": true,
      "motor_id": 0,
      "accel_val": 2000,
      "base_duration_us": 254236
    },
    {
      "id": "M_818",
      "pitch": 95,
      "t_note_us": 93814124,
      "t_trigger_us": 93678161,
      "is_ai": true,
      "track_id": 9,
      "velocity": 0,
      "is_motor": false,
      "motor_id": 0,
      "accel_val": 2000,
      "base_duration_us": 254236
    },
    {
      "id": "M_819",
      "pitch": 102,
      "t_note_us": 93814124,
      "t_trigger_us": 93678161,
      "is_ai": true,
      "track_id": 0,
      "velocity": 0,
      "is_motor": true,
      "motor_id": 3,
      "accel_val": 2000,
      "base_duration_us": 254236
    },
    {
      "id": "M_820",
      "pitch": 52,
      "t_note_us": 94067036,
      "t_trigger_us": 93931073,
      "is_ai": false,
      "track_id": 0,
      "velocity": 0,
      "is_motor": true,
      "motor_id": 0,
      "accel_val": 2000,
      "base_duration_us": 254236
    },
    {
      "id": "M_821",
      "pitch": 103,
      "t_note_us": 94068360,
      "t_trigger_us": 93932397,
      "is_ai": true,
      "track_id": 14,
      "velocity": 0,
      "is_motor": false,
      "motor_id": 0,
      "accel_val": 2000,
      "base_duration_us": 254236
    },
    {
      "id": "M_822",
      "pitch": 100,
      "t_note_us": 94068360,
      "t_trigger_us": 93932397,
      "is_ai": true,
      "track_id": 12,
      "velocity": 0,
      "is_motor": false,
      "motor_id": 0,
      "accel_val": 2000,
      "base_duration_us": 254236
    },
    {
      "id": "M_823",
      "pitch": 95,
      "t_note_us": 94068360,
      "t_trigger_us": 93932397,
      "is_ai": true,
      "track_id": 9,
      "velocity": 0,
      "is_motor": false,
      "motor_id": 0,
      "accel_val": 2000,
      "base_duration_us": 254236
    },
    {
      "id": "M_824",
      "pitch": 67,
      "t_note_us": 94321272,
      "t_trigger_us": 94185309,
      "is_ai": false,
      "track_id": 0,
      "velocity": 0,
      "is_motor": true,
      "motor_id": 1,
      "accel_val": 2000,
      "base_duration_us": 254236
    },
    {
      "id": "M_825",
      "pitch": 64,
      "t_note_us": 94321272,
      "t_trigger_us": 94185309,
      "is_ai": false,
      "track_id": 0,
      "velocity": 0,
      "is_motor": true,
      "motor_id": 0,
      "accel_val": 2000,
      "base_duration_us": 254236
    },
    {
      "id": "M_826",
      "pitch": 95,
      "t_note_us": 94322596,
      "t_trigger_us": 94186633,
      "is_ai": true,
      "track_id": 9,
      "velocity": 0,
      "is_motor": false,
      "motor_id": 0,
      "accel_val": 2000,
      "base_duration_us": 254236
    },
    {
      "id": "M_827",
      "pitch": 59,
      "t_note_us": 94575508,
      "t_trigger_us": 94439545,
      "is_ai": false,
      "track_id": 0,
      "velocity": 0,
      "is_motor": true,
      "motor_id": 0,
      "accel_val": 2000,
      "base_duration_us": 127118
    },
    {
      "id": "M_830",
      "pitch": 95,
      "t_note_us": 94576832,
      "t_trigger_us": 94440869,
      "is_ai": true,
      "track_id": 9,
      "velocity": 0,
      "is_motor": false,
      "motor_id": 0,
      "accel_val": 2000,
      "base_duration_us": 508471
    },
    {
      "id": "M_828",
      "pitch": 67,
      "t_note_us": 94744998,
      "t_trigger_us": 94609035,
      "is_ai": false,
      "track_id": 0,
      "velocity": 0,
      "is_motor": true,
      "motor_id": 1,
      "accel_val": 2000,
      "base_duration_us": 127117
    },
    {
      "id": "M_829",
      "pitch": 52,
      "t_note_us": 94829743,
      "t_trigger_us": 94693780,
      "is_ai": false,
      "track_id": 0,
      "velocity": 0,
      "is_motor": true,
      "motor_id": 0,
      "accel_val": 2000,
      "base_duration_us": 254236
    },
    {
      "id": "M_831",
      "pitch": 55,
      "t_note_us": 95083979,
      "t_trigger_us": 94948016,
      "is_ai": false,
      "track_id": 0,
      "velocity": 0,
      "is_motor": true,
      "motor_id": 0,
      "accel_val": 2000,
      "base_duration_us": 254236
    },
    {
      "id": "M_832",
      "pitch": 103,
      "t_note_us": 95085303,
      "t_trigger_us": 94949340,
      "is_ai": true,
      "track_id": 14,
      "velocity": 0,
      "is_motor": false,
      "motor_id": 0,
      "accel_val": 2000,
      "base_duration_us": 254236
    },
    {
      "id": "M_833",
      "pitch": 98,
      "t_note_us": 95085303,
      "t_trigger_us": 94949340,
      "is_ai": true,
      "track_id": 11,
      "velocity": 0,
      "is_motor": false,
      "motor_id": 0,
      "accel_val": 2000,
      "base_duration_us": 254236
    },
    {
      "id": "M_834",
      "pitch": 95,
      "t_note_us": 95085303,
      "t_trigger_us": 94949340,
      "is_ai": true,
      "track_id": 9,
      "velocity": 0,
      "is_motor": false,
      "motor_id": 0,
      "accel_val": 2000,
      "base_duration_us": 254236
    },
    {
      "id": "M_835",
      "pitch": 65,
      "t_note_us": 95338215,
      "t_trigger_us": 95202252,
      "is_ai": false,
      "track_id": 0,
      "velocity": 0,
      "is_motor": true,
      "motor_id": 1,
      "accel_val": 2000,
      "base_duration_us": 254236
    },
    {
      "id": "M_836",
      "pitch": 71,
      "t_note_us": 95338215,
      "t_trigger_us": 95202252,
      "is_ai": false,
      "track_id": 0,
      "velocity": 0,
      "is_motor": true,
      "motor_id": 2,
      "accel_val": 2000,
      "base_duration_us": 254236
    },
    {
      "id": "M_837",
      "pitch": 95,
      "t_note_us": 95339539,
      "t_trigger_us": 95203576,
      "is_ai": true,
      "track_id": 9,
      "velocity": 0,
      "is_motor": false,
      "motor_id": 0,
      "accel_val": 2000,
      "base_duration_us": 254236
    },
    {
      "id": "M_838",
      "pitch": 62,
      "t_note_us": 95592451,
      "t_trigger_us": 95456488,
      "is_ai": false,
      "track_id": 0,
      "velocity": 0,
      "is_motor": true,
      "motor_id": 1,
      "accel_val": 2000,
      "base_duration_us": 127118
    },
    {
      "id": "M_841",
      "pitch": 95,
      "t_note_us": 95593775,
      "t_trigger_us": 95457812,
      "is_ai": true,
      "track_id": 9,
      "velocity": 0,
      "is_motor": false,
      "motor_id": 0,
      "accel_val": 2000,
      "base_duration_us": 508471
    },
    {
      "id": "M_839",
      "pitch": 71,
      "t_note_us": 95761941,
      "t_trigger_us": 95625978,
      "is_ai": false,
      "track_id": 0,
      "velocity": 0,
      "is_motor": true,
      "motor_id": 1,
      "accel_val": 2000,
      "base_duration_us": 127117
    },
    {
      "id": "M_840",
      "pitch": 55,
      "t_note_us": 95846686,
      "t_trigger_us": 95710723,
      "is_ai": false,
      "track_id": 0,
      "velocity": 0,
      "is_motor": true,
      "motor_id": 0,
      "accel_val": 2000,
      "base_duration_us": 254236
    },
    {
      "id": "M_842",
      "pitch": 48,
      "t_note_us": 96100922,
      "t_trigger_us": 95964959,
      "is_ai": false,
      "track_id": 0,
      "velocity": 0,
      "is_motor": true,
      "motor_id": 0,
      "accel_val": 2000,
      "base_duration_us": 254236
    },
    {
      "id": "M_843",
      "pitch": 64,
      "t_note_us": 96355158,
      "t_trigger_us": 96219195,
      "is_ai": false,
      "track_id": 0,
      "velocity": 0,
      "is_motor": true,
      "motor_id": 1,
      "accel_val": 2000,
      "base_duration_us": 254236
    },
    {
      "id": "M_844",
      "pitch": 60,
      "t_note_us": 96355158,
      "t_trigger_us": 96219195,
      "is_ai": false,
      "track_id": 0,
      "velocity": 0,
      "is_motor": true,
      "motor_id": 0,
      "accel_val": 2000,
      "base_duration_us": 254236
    },
    {
      "id": "M_845",
      "pitch": 91,
      "t_note_us": 96356482,
      "t_trigger_us": 96220519,
      "is_ai": true,
      "track_id": 7,
      "velocity": 0,
      "is_motor": false,
      "motor_id": 0,
      "accel_val": 2000,
      "base_duration_us": 254236
    },
    {
      "id": "M_846",
      "pitch": 76,
      "t_note_us": 96356482,
      "t_trigger_us": 96220519,
      "is_ai": false,
      "track_id": 0,
      "velocity": 0,
      "is_motor": true,
      "motor_id": 2,
      "accel_val": 2000,
      "base_duration_us": 254236
    },
    {
      "id": "M_847",
      "pitch": 55,
      "t_note_us": 96609394,
      "t_trigger_us": 96473431,
      "is_ai": false,
      "track_id": 0,
      "velocity": 0,
      "is_motor": true,
      "motor_id": 0,
      "accel_val": 2000,
      "base_duration_us": 127118
    },
    {
      "id": "M_850",
      "pitch": 98,
      "t_note_us": 96610718,
      "t_trigger_us": 96474755,
      "is_ai": true,
      "track_id": 11,
      "velocity": 0,
      "is_motor": false,
      "motor_id": 0,
      "accel_val": 2000,
      "base_duration_us": 508471
    },
    {
      "id": "M_851",
      "pitch": 91,
      "t_note_us": 96610718,
      "t_trigger_us": 96474755,
      "is_ai": true,
      "track_id": 7,
      "velocity": 0,
      "is_motor": false,
      "motor_id": 0,
      "accel_val": 2000,
      "base_duration_us": 508471
    },
    {
      "id": "M_848",
      "pitch": 64,
      "t_note_us": 96778884,
      "t_trigger_us": 96642921,
      "is_ai": false,
      "track_id": 0,
      "velocity": 0,
      "is_motor": true,
      "motor_id": 1,
      "accel_val": 2000,
      "base_duration_us": 127117
    },
    {
      "id": "M_849",
      "pitch": 48,
      "t_note_us": 96863629,
      "t_trigger_us": 96727666,
      "is_ai": false,
      "track_id": 0,
      "velocity": 0,
      "is_motor": true,
      "motor_id": 0,
      "accel_val": 2000,
      "base_duration_us": 254236
    },
    {
      "id": "M_852",
      "pitch": 54,
      "t_note_us": 97117865,
      "t_trigger_us": 96981902,
      "is_ai": false,
      "track_id": 0,
      "velocity": 0,
      "is_motor": true,
      "motor_id": 0,
      "accel_val": 2000,
      "base_duration_us": 254236
    },
    {
      "id": "M_853",
      "pitch": 96,
      "t_note_us": 97119189,
      "t_trigger_us": 96983226,
      "is_ai": true,
      "track_id": 10,
      "velocity": 0,
      "is_motor": false,
      "motor_id": 0,
      "accel_val": 2000,
      "base_duration_us": 254236
    },
    {
      "id": "M_854",
      "pitch": 90,
      "t_note_us": 97119189,
      "t_trigger_us": 96983226,
      "is_ai": true,
      "track_id": 0,
      "velocity": 0,
      "is_motor": true,
      "motor_id": 3,
      "accel_val": 2000,
      "base_duration_us": 254236
    },
    {
      "id": "M_855",
      "pitch": 69,
      "t_note_us": 97372101,
      "t_trigger_us": 97236138,
      "is_ai": false,
      "track_id": 0,
      "velocity": 0,
      "is_motor": true,
      "motor_id": 1,
      "accel_val": 2000,
      "base_duration_us": 254236
    },
    {
      "id": "M_856",
      "pitch": 66,
      "t_note_us": 97372101,
      "t_trigger_us": 97236138,
      "is_ai": false,
      "track_id": 0,
      "velocity": 0,
      "is_motor": true,
      "motor_id": 2,
      "accel_val": 2000,
      "base_duration_us": 254236
    },
    {
      "id": "M_857",
      "pitch": 95,
      "t_note_us": 97373425,
      "t_trigger_us": 97237462,
      "is_ai": true,
      "track_id": 9,
      "velocity": 0,
      "is_motor": false,
      "motor_id": 0,
      "accel_val": 2000,
      "base_duration_us": 254236
    },
    {
      "id": "M_858",
      "pitch": 90,
      "t_note_us": 97373425,
      "t_trigger_us": 97237462,
      "is_ai": true,
      "track_id": 0,
      "velocity": 0,
      "is_motor": true,
      "motor_id": 3,
      "accel_val": 2000,
      "base_duration_us": 254236
    },
    {
      "id": "M_859",
      "pitch": 63,
      "t_note_us": 97626337,
      "t_trigger_us": 97490374,
      "is_ai": false,
      "track_id": 0,
      "velocity": 0,
      "is_motor": true,
      "motor_id": 1,
      "accel_val": 2000,
      "base_duration_us": 127118
    },
    {
      "id": "M_860",
      "pitch": 95,
      "t_note_us": 97627661,
      "t_trigger_us": 97491698,
      "is_ai": true,
      "track_id": 9,
      "velocity": 0,
      "is_motor": false,
      "motor_id": 0,
      "accel_val": 2000,
      "base_duration_us": 254235
    },
    {
      "id": "M_861",
      "pitch": 90,
      "t_note_us": 97627661,
      "t_trigger_us": 97491698,
      "is_ai": true,
      "track_id": 0,
      "velocity": 0,
      "is_motor": true,
      "motor_id": 3,
      "accel_val": 2000,
      "base_duration_us": 254235
    },
    {
      "id": "M_862",
      "pitch": 69,
      "t_note_us": 97795827,
      "t_trigger_us": 97659864,
      "is_ai": false,
      "track_id": 0,
      "velocity": 0,
      "is_motor": true,
      "motor_id": 1,
      "accel_val": 2000,
      "base_duration_us": 127117
    },
    {
      "id": "M_863",
      "pitch": 54,
      "t_note_us": 97880572,
      "t_trigger_us": 97744609,
      "is_ai": false,
      "track_id": 0,
      "velocity": 0,
      "is_motor": true,
      "motor_id": 0,
      "accel_val": 2000,
      "base_duration_us": 254236
    },
    {
      "id": "M_864",
      "pitch": 93,
      "t_note_us": 97881896,
      "t_trigger_us": 97745933,
      "is_ai": true,
      "track_id": 8,
      "velocity": 0,
      "is_motor": false,
      "motor_id": 0,
      "accel_val": 2000,
      "base_duration_us": 254236
    },
    {
      "id": "M_865",
      "pitch": 90,
      "t_note_us": 97881896,
      "t_trigger_us": 97745933,
      "is_ai": true,
      "track_id": 0,
      "velocity": 0,
      "is_motor": true,
      "motor_id": 3,
      "accel_val": 2000,
      "base_duration_us": 254236
    },
    {
      "id": "M_866",
      "pitch": 52,
      "t_note_us": 98134808,
      "t_trigger_us": 97998845,
      "is_ai": false,
      "track_id": 0,
      "velocity": 0,
      "is_motor": true,
      "motor_id": 0,
      "accel_val": 2000,
      "base_duration_us": 254236
    },
    {
      "id": "M_867",
      "pitch": 88,
      "t_note_us": 98136132,
      "t_trigger_us": 98000169,
      "is_ai": true,
      "track_id": 5,
      "velocity": 0,
      "is_motor": false,
      "motor_id": 0,
      "accel_val": 2000,
      "base_duration_us": 254236
    },
    {
      "id": "M_868",
      "pitch": 95,
      "t_note_us": 98136132,
      "t_trigger_us": 98000169,
      "is_ai": true,
      "track_id": 9,
      "velocity": 0,
      "is_motor": false,
      "motor_id": 0,
      "accel_val": 2000,
      "base_duration_us": 254236
    },
    {
      "id": "M_869",
      "pitch": 67,
      "t_note_us": 98389044,
      "t_trigger_us": 98253081,
      "is_ai": false,
      "track_id": 0,
      "velocity": 0,
      "is_motor": true,
      "motor_id": 1,
      "accel_val": 2000,
      "base_duration_us": 254236
    },
    {
      "id": "M_870",
      "pitch": 64,
      "t_note_us": 98389044,
      "t_trigger_us": 98253081,
      "is_ai": false,
      "track_id": 0,
      "velocity": 0,
      "is_motor": true,
      "motor_id": 0,
      "accel_val": 2000,
      "base_duration_us": 254236
    },
    {
      "id": "M_871",
      "pitch": 91,
      "t_note_us": 98390368,
      "t_trigger_us": 98254405,
      "is_ai": true,
      "track_id": 7,
      "velocity": 0,
      "is_motor": false,
      "motor_id": 0,
      "accel_val": 2000,
      "base_duration_us": 254236
    },
    {
      "id": "M_872",
      "pitch": 88,
      "t_note_us": 98390368,
      "t_trigger_us": 98254405,
      "is_ai": true,
      "track_id": 5,
      "velocity": 0,
      "is_motor": false,
      "motor_id": 0,
      "accel_val": 2000,
      "base_duration_us": 254236
    },
    {
      "id": "M_873",
      "pitch": 59,
      "t_note_us": 98643280,
      "t_trigger_us": 98507317,
      "is_ai": false,
      "track_id": 0,
      "velocity": 0,
      "is_motor": true,
      "motor_id": 0,
      "accel_val": 2000,
      "base_duration_us": 127118
    },
    {
      "id": "M_875",
      "pitch": 91,
      "t_note_us": 98644604,
      "t_trigger_us": 98508641,
      "is_ai": true,
      "track_id": 7,
      "velocity": 0,
      "is_motor": false,
      "motor_id": 0,
      "accel_val": 2000,
      "base_duration_us": 254235
    },
    {
      "id": "M_874",
      "pitch": 76,
      "t_note_us": 98644604,
      "t_trigger_us": 98508641,
      "is_ai": false,
      "track_id": 0,
      "velocity": 0,
      "is_motor": true,
      "motor_id": 2,
      "accel_val": 2000,
      "base_duration_us": 254235
    },
    {
      "id": "M_876",
      "pitch": 67,
      "t_note_us": 98812770,
      "t_trigger_us": 98676807,
      "is_ai": false,
      "track_id": 0,
      "velocity": 0,
      "is_motor": true,
      "motor_id": 1,
      "accel_val": 2000,
      "base_duration_us": 127117
    },
    {
      "id": "M_877",
      "pitch": 52,
      "t_note_us": 98897515,
      "t_trigger_us": 98761552,
      "is_ai": false,
      "track_id": 0,
      "velocity": 0,
      "is_motor": true,
      "motor_id": 0,
      "accel_val": 2000,
      "base_duration_us": 254236
    },
    {
      "id": "M_879",
      "pitch": 93,
      "t_note_us": 98898839,
      "t_trigger_us": 98762876,
      "is_ai": true,
      "track_id": 8,
      "velocity": 0,
      "is_motor": false,
      "motor_id": 0,
      "accel_val": 2000,
      "base_duration_us": 508473
    },
    {
      "id": "M_880",
      "pitch": 86,
      "t_note_us": 98898839,
      "t_trigger_us": 98762876,
      "is_ai": true,
      "track_id": 4,
      "velocity": 0,
      "is_motor": false,
      "motor_id": 0,
      "accel_val": 2000,
      "base_duration_us": 508473
    },
    {
      "id": "M_878",
      "pitch": 55,
      "t_note_us": 99151751,
      "t_trigger_us": 99015788,
      "is_ai": false,
      "track_id": 0,
      "velocity": 0,
      "is_motor": true,
      "motor_id": 0,
      "accel_val": 2000,
      "base_duration_us": 254237
    },
    {
      "id": "M_881",
      "pitch": 65,
      "t_note_us": 99405988,
      "t_trigger_us": 99270025,
      "is_ai": false,
      "track_id": 0,
      "velocity": 0,
      "is_motor": true,
      "motor_id": 1,
      "accel_val": 2000,
      "base_duration_us": 254236
    },
    {
      "id": "M_882",
      "pitch": 71,
      "t_note_us": 99405988,
      "t_trigger_us": 99270025,
      "is_ai": false,
      "track_id": 0,
      "velocity": 0,
      "is_motor": true,
      "motor_id": 2,
      "accel_val": 2000,
      "base_duration_us": 254236
    },
    {
      "id": "M_883",
      "pitch": 86,
      "t_note_us": 99407312,
      "t_trigger_us": 99271349,
      "is_ai": true,
      "track_id": 4,
      "velocity": 0,
      "is_motor": false,
      "motor_id": 0,
      "accel_val": 2000,
      "base_duration_us": 254236
    },
    {
      "id": "M_884",
      "pitch": 95,
      "t_note_us": 99407312,
      "t_trigger_us": 99271349,
      "is_ai": true,
      "track_id": 9,
      "velocity": 0,
      "is_motor": false,
      "motor_id": 0,
      "accel_val": 2000,
      "base_duration_us": 254236
    },
    {
      "id": "M_885",
      "pitch": 62,
      "t_note_us": 99660224,
      "t_trigger_us": 99524261,
      "is_ai": false,
      "track_id": 0,
      "velocity": 0,
      "is_motor": true,
      "motor_id": 1,
      "accel_val": 2000,
      "base_duration_us": 127118
    },
    {
      "id": "M_886",
      "pitch": 86,
      "t_note_us": 99661548,
      "t_trigger_us": 99525585,
      "is_ai": true,
      "track_id": 4,
      "velocity": 0,
      "is_motor": false,
      "motor_id": 0,
      "accel_val": 2000,
      "base_duration_us": 254235
    },
    {
      "id": "M_887",
      "pitch": 93,
      "t_note_us": 99661548,
      "t_trigger_us": 99525585,
      "is_ai": true,
      "track_id": 8,
      "velocity": 0,
      "is_motor": false,
      "motor_id": 0,
      "accel_val": 2000,
      "base_duration_us": 254235
    },
    {
      "id": "M_888",
      "pitch": 71,
      "t_note_us": 99829714,
      "t_trigger_us": 99693751,
      "is_ai": false,
      "track_id": 0,
      "velocity": 0,
      "is_motor": true,
      "motor_id": 1,
      "accel_val": 2000,
      "base_duration_us": 127117
    },
    {
      "id": "M_889",
      "pitch": 55,
      "t_note_us": 99914459,
      "t_trigger_us": 99778496,
      "is_ai": false,
      "track_id": 0,
      "velocity": 0,
      "is_motor": true,
      "motor_id": 0,
      "accel_val": 2000,
      "base_duration_us": 254236
    },
    {
      "id": "M_890",
      "pitch": 86,
      "t_note_us": 99915783,
      "t_trigger_us": 99779820,
      "is_ai": true,
      "track_id": 4,
      "velocity": 0,
      "is_motor": false,
      "motor_id": 0,
      "accel_val": 2000,
      "base_duration_us": 254236
    },
    {
      "id": "M_891",
      "pitch": 91,
      "t_note_us": 99915783,
      "t_trigger_us": 99779820,
      "is_ai": true,
      "track_id": 7,
      "velocity": 0,
      "is_motor": false,
      "motor_id": 0,
      "accel_val": 2000,
      "base_duration_us": 254236
    },
    {
      "id": "M_892",
      "pitch": 48,
      "t_note_us": 100168695,
      "t_trigger_us": 100032732,
      "is_ai": false,
      "track_id": 0,
      "velocity": 0,
      "is_motor": true,
      "motor_id": 0,
      "accel_val": 2000,
      "base_duration_us": 254236
    },
    {
      "id": "M_893",
      "pitch": 64,
      "t_note_us": 100422931,
      "t_trigger_us": 100286968,
      "is_ai": false,
      "track_id": 0,
      "velocity": 0,
      "is_motor": true,
      "motor_id": 1,
      "accel_val": 2000,
      "base_duration_us": 254236
    },
    {
      "id": "M_894",
      "pitch": 60,
      "t_note_us": 100422931,
      "t_trigger_us": 100286968,
      "is_ai": false,
      "track_id": 0,
      "velocity": 0,
      "is_motor": true,
      "motor_id": 0,
      "accel_val": 2000,
      "base_duration_us": 254236
    },
    {
      "id": "M_895",
      "pitch": 91,
      "t_note_us": 100424255,
      "t_trigger_us": 100288292,
      "is_ai": true,
      "track_id": 7,
      "velocity": 0,
      "is_motor": false,
      "motor_id": 0,
      "accel_val": 2000,
      "base_duration_us": 254236
    },
    {
      "id": "M_896",
      "pitch": 88,
      "t_note_us": 100424255,
      "t_trigger_us": 100288292,
      "is_ai": true,
      "track_id": 5,
      "velocity": 0,
      "is_motor": false,
      "motor_id": 0,
      "accel_val": 2000,
      "base_duration_us": 254236
    },
    {
      "id": "M_897",
      "pitch": 55,
      "t_note_us": 100677167,
      "t_trigger_us": 100541204,
      "is_ai": false,
      "track_id": 0,
      "velocity": 0,
      "is_motor": true,
      "motor_id": 0,
      "accel_val": 2000,
      "base_duration_us": 127118
    },
    {
      "id": "M_900",
      "pitch": 98,
      "t_note_us": 100678491,
      "t_trigger_us": 100542528,
      "is_ai": true,
      "track_id": 11,
      "velocity": 0,
      "is_motor": false,
      "motor_id": 0,
      "accel_val": 2000,
      "base_duration_us": 508471
    },
    {
      "id": "M_901",
      "pitch": 91,
      "t_note_us": 100678491,
      "t_trigger_us": 100542528,
      "is_ai": true,
      "track_id": 7,
      "velocity": 0,
      "is_motor": false,
      "motor_id": 0,
      "accel_val": 2000,
      "base_duration_us": 508471
    },
    {
      "id": "M_898",
      "pitch": 64,
      "t_note_us": 100846657,
      "t_trigger_us": 100710694,
      "is_ai": false,
      "track_id": 0,
      "velocity": 0,
      "is_motor": true,
      "motor_id": 1,
      "accel_val": 2000,
      "base_duration_us": 127117
    },
    {
      "id": "M_899",
      "pitch": 48,
      "t_note_us": 100931402,
      "t_trigger_us": 100795439,
      "is_ai": false,
      "track_id": 0,
      "velocity": 0,
      "is_motor": true,
      "motor_id": 0,
      "accel_val": 2000,
      "base_duration_us": 254236
    },
    {
      "id": "M_902",
      "pitch": 47,
      "t_note_us": 101185638,
      "t_trigger_us": 101049675,
      "is_ai": false,
      "track_id": 0,
      "velocity": 0,
      "is_motor": true,
      "motor_id": 0,
      "accel_val": 2000,
      "base_duration_us": 254236
    },
    {
      "id": "M_903",
      "pitch": 90,
      "t_note_us": 101186962,
      "t_trigger_us": 101050999,
      "is_ai": true,
      "track_id": 0,
      "velocity": 0,
      "is_motor": true,
      "motor_id": 3,
      "accel_val": 2000,
      "base_duration_us": 254236
    },
    {
      "id": "M_904",
      "pitch": 98,
      "t_note_us": 101186962,
      "t_trigger_us": 101050999,
      "is_ai": true,
      "track_id": 11,
      "velocity": 0,
      "is_motor": false,
      "motor_id": 0,
      "accel_val": 2000,
      "base_duration_us": 254236
    },
    {
      "id": "M_905",
      "pitch": 63,
      "t_note_us": 101439874,
      "t_trigger_us": 101303911,
      "is_ai": false,
      "track_id": 0,
      "velocity": 0,
      "is_motor": true,
      "motor_id": 1,
      "accel_val": 2000,
      "base_duration_us": 254236
    },
    {
      "id": "M_906",
      "pitch": 59,
      "t_note_us": 101439874,
      "t_trigger_us": 101303911,
      "is_ai": false,
      "track_id": 0,
      "velocity": 0,
      "is_motor": true,
      "motor_id": 0,
      "accel_val": 2000,
      "base_duration_us": 254236
    },
    {
      "id": "M_907",
      "pitch": 90,
      "t_note_us": 101441198,
      "t_trigger_us": 101305235,
      "is_ai": true,
      "track_id": 0,
      "velocity": 0,
      "is_motor": true,
      "motor_id": 3,
      "accel_val": 2000,
      "base_duration_us": 254236
    },
    {
      "id": "M_908",
      "pitch": 96,
      "t_note_us": 101441198,
      "t_trigger_us": 101305235,
      "is_ai": true,
      "track_id": 10,
      "velocity": 0,
      "is_motor": false,
      "motor_id": 0,
      "accel_val": 2000,
      "base_duration_us": 254236
    },
    {
      "id": "M_909",
      "pitch": 54,
      "t_note_us": 101694110,
      "t_trigger_us": 101558147,
      "is_ai": false,
      "track_id": 0,
      "velocity": 0,
      "is_motor": true,
      "motor_id": 0,
      "accel_val": 2000,
      "base_duration_us": 127118
    },
    {
      "id": "M_910",
      "pitch": 95,
      "t_note_us": 101695434,
      "t_trigger_us": 101559471,
      "is_ai": true,
      "track_id": 9,
      "velocity": 0,
      "is_motor": false,
      "motor_id": 0,
      "accel_val": 2000,
      "base_duration_us": 254235
    },
    {
      "id": "M_911",
      "pitch": 98,
      "t_note_us": 101695434,
      "t_trigger_us": 101559471,
      "is_ai": true,
      "track_id": 11,
      "velocity": 0,
      "is_motor": false,
      "motor_id": 0,
      "accel_val": 2000,
      "base_duration_us": 254235
    },
    {
      "id": "M_912",
      "pitch": 63,
      "t_note_us": 101863600,
      "t_trigger_us": 101727637,
      "is_ai": false,
      "track_id": 0,
      "velocity": 0,
      "is_motor": true,
      "motor_id": 1,
      "accel_val": 2000,
      "base_duration_us": 127117
    },
    {
      "id": "M_913",
      "pitch": 47,
      "t_note_us": 101948345,
      "t_trigger_us": 101812382,
      "is_ai": false,
      "track_id": 0,
      "velocity": 0,
      "is_motor": true,
      "motor_id": 0,
      "accel_val": 2000,
      "base_duration_us": 254236
    },
    {
      "id": "M_914",
      "pitch": 95,
      "t_note_us": 101949669,
      "t_trigger_us": 101813706,
      "is_ai": true,
      "track_id": 9,
      "velocity": 0,
      "is_motor": false,
      "motor_id": 0,
      "accel_val": 2000,
      "base_duration_us": 254236
    },
    {
      "id": "M_915",
      "pitch": 102,
      "t_note_us": 101949669,
      "t_trigger_us": 101813706,
      "is_ai": true,
      "track_id": 0,
      "velocity": 0,
      "is_motor": true,
      "motor_id": 3,
      "accel_val": 2000,
      "base_duration_us": 254236
    },
    {
      "id": "M_916",
      "pitch": 52,
      "t_note_us": 102202581,
      "t_trigger_us": 102066618,
      "is_ai": false,
      "track_id": 0,
      "velocity": 0,
      "is_motor": true,
      "motor_id": 0,
      "accel_val": 2000,
      "base_duration_us": 254236
    },
    {
      "id": "M_917",
      "pitch": 103,
      "t_note_us": 102203905,
      "t_trigger_us": 102067942,
      "is_ai": true,
      "track_id": 14,
      "velocity": 0,
      "is_motor": false,
      "motor_id": 0,
      "accel_val": 2000,
      "base_duration_us": 254236
    },
    {
      "id": "M_918",
      "pitch": 100,
      "t_note_us": 102203905,
      "t_trigger_us": 102067942,
      "is_ai": true,
      "track_id": 12,
      "velocity": 0,
      "is_motor": false,
      "motor_id": 0,
      "accel_val": 2000,
      "base_duration_us": 254236
    },
    {
      "id": "M_919",
      "pitch": 95,
      "t_note_us": 102203905,
      "t_trigger_us": 102067942,
      "is_ai": true,
      "track_id": 9,
      "velocity": 0,
      "is_motor": false,
      "motor_id": 0,
      "accel_val": 2000,
      "base_duration_us": 254236
    },
    {
      "id": "M_920",
      "pitch": 67,
      "t_note_us": 102456817,
      "t_trigger_us": 102320854,
      "is_ai": false,
      "track_id": 0,
      "velocity": 0,
      "is_motor": true,
      "motor_id": 1,
      "accel_val": 2000,
      "base_duration_us": 254236
    },
    {
      "id": "M_921",
      "pitch": 64,
      "t_note_us": 102456817,
      "t_trigger_us": 102320854,
      "is_ai": false,
      "track_id": 0,
      "velocity": 0,
      "is_motor": true,
      "motor_id": 0,
      "accel_val": 2000,
      "base_duration_us": 254236
    },
    {
      "id": "M_922",
      "pitch": 91,
      "t_note_us": 102458141,
      "t_trigger_us": 102322178,
      "is_ai": true,
      "track_id": 7,
      "velocity": 0,
      "is_motor": false,
      "motor_id": 0,
      "accel_val": 2000,
      "base_duration_us": 254236
    },
    {
      "id": "M_923",
      "pitch": 98,
      "t_note_us": 102458141,
      "t_trigger_us": 102322178,
      "is_ai": true,
      "track_id": 11,
      "velocity": 0,
      "is_motor": false,
      "motor_id": 0,
      "accel_val": 2000,
      "base_duration_us": 254236
    },
    {
      "id": "M_924",
      "pitch": 59,
      "t_note_us": 102711053,
      "t_trigger_us": 102575090,
      "is_ai": false,
      "track_id": 0,
      "velocity": 0,
      "is_motor": true,
      "motor_id": 0,
      "accel_val": 2000,
      "base_duration_us": 127118
    },
    {
      "id": "M_925",
      "pitch": 98,
      "t_note_us": 102712377,
      "t_trigger_us": 102576414,
      "is_ai": true,
      "track_id": 11,
      "velocity": 0,
      "is_motor": false,
      "motor_id": 0,
      "accel_val": 2000,
      "base_duration_us": 254235
    },
    {
      "id": "M_926",
      "pitch": 91,
      "t_note_us": 102712377,
      "t_trigger_us": 102576414,
      "is_ai": true,
      "track_id": 7,
      "velocity": 0,
      "is_motor": false,
      "motor_id": 0,
      "accel_val": 2000,
      "base_duration_us": 254235
    },
    {
      "id": "M_927",
      "pitch": 67,
      "t_note_us": 102880543,
      "t_trigger_us": 102744580,
      "is_ai": false,
      "track_id": 0,
      "velocity": 0,
      "is_motor": true,
      "motor_id": 1,
      "accel_val": 2000,
      "base_duration_us": 127117
    },
    {
      "id": "M_928",
      "pitch": 52,
      "t_note_us": 102965288,
      "t_trigger_us": 102829325,
      "is_ai": false,
      "track_id": 0,
      "velocity": 0,
      "is_motor": true,
      "motor_id": 0,
      "accel_val": 2000,
      "base_duration_us": 254236
    },
    {
      "id": "M_929",
      "pitch": 96,
      "t_note_us": 102966612,
      "t_trigger_us": 102830649,
      "is_ai": true,
      "track_id": 10,
      "velocity": 0,
      "is_motor": false,
      "motor_id": 0,
      "accel_val": 2000,
      "base_duration_us": 254236
    },
    {
      "id": "M_930",
      "pitch": 91,
      "t_note_us": 102966612,
      "t_trigger_us": 102830649,
      "is_ai": true,
      "track_id": 7,
      "velocity": 0,
      "is_motor": false,
      "motor_id": 0,
      "accel_val": 2000,
      "base_duration_us": 254236
    },
    {
      "id": "M_931",
      "pitch": 55,
      "t_note_us": 103219524,
      "t_trigger_us": 103083561,
      "is_ai": false,
      "track_id": 0,
      "velocity": 0,
      "is_motor": true,
      "motor_id": 0,
      "accel_val": 2000,
      "base_duration_us": 254236
    },
    {
      "id": "M_932",
      "pitch": 86,
      "t_note_us": 103220848,
      "t_trigger_us": 103084885,
      "is_ai": true,
      "track_id": 4,
      "velocity": 0,
      "is_motor": false,
      "motor_id": 0,
      "accel_val": 2000,
      "base_duration_us": 254236
    },
    {
      "id": "M_933",
      "pitch": 96,
      "t_note_us": 103220848,
      "t_trigger_us": 103084885,
      "is_ai": true,
      "track_id": 10,
      "velocity": 0,
      "is_motor": false,
      "motor_id": 0,
      "accel_val": 2000,
      "base_duration_us": 254236
    },
    {
      "id": "M_934",
      "pitch": 91,
      "t_note_us": 103220848,
      "t_trigger_us": 103084885,
      "is_ai": true,
      "track_id": 7,
      "velocity": 0,
      "is_motor": false,
      "motor_id": 0,
      "accel_val": 2000,
      "base_duration_us": 254236
    },
    {
      "id": "M_935",
      "pitch": 65,
      "t_note_us": 103473760,
      "t_trigger_us": 103337797,
      "is_ai": false,
      "track_id": 0,
      "velocity": 0,
      "is_motor": true,
      "motor_id": 1,
      "accel_val": 2000,
      "base_duration_us": 254236
    },
    {
      "id": "M_936",
      "pitch": 71,
      "t_note_us": 103473760,
      "t_trigger_us": 103337797,
      "is_ai": false,
      "track_id": 0,
      "velocity": 0,
      "is_motor": true,
      "motor_id": 2,
      "accel_val": 2000,
      "base_duration_us": 254236
    },
    {
      "id": "M_937",
      "pitch": 95,
      "t_note_us": 103475084,
      "t_trigger_us": 103339121,
      "is_ai": true,
      "track_id": 9,
      "velocity": 0,
      "is_motor": false,
      "motor_id": 0,
      "accel_val": 2000,
      "base_duration_us": 254236
    },
    {
      "id": "M_938",
      "pitch": 91,
      "t_note_us": 103475084,
      "t_trigger_us": 103339121,
      "is_ai": true,
      "track_id": 7,
      "velocity": 0,
      "is_motor": false,
      "motor_id": 0,
      "accel_val": 2000,
      "base_duration_us": 254236
    },
    {
      "id": "M_939",
      "pitch": 62,
      "t_note_us": 103727996,
      "t_trigger_us": 103592033,
      "is_ai": false,
      "track_id": 0,
      "velocity": 0,
      "is_motor": true,
      "motor_id": 1,
      "accel_val": 2000,
      "base_duration_us": 127118
    },
    {
      "id": "M_942",
      "pitch": 86,
      "t_note_us": 103729320,
      "t_trigger_us": 103593357,
      "is_ai": true,
      "track_id": 4,
      "velocity": 0,
      "is_motor": false,
      "motor_id": 0,
      "accel_val": 2000,
      "base_duration_us": 508471
    },
    {
      "id": "M_943",
      "pitch": 95,
      "t_note_us": 103729320,
      "t_trigger_us": 103593357,
      "is_ai": true,
      "track_id": 9,
      "velocity": 0,
      "is_motor": false,
      "motor_id": 0,
      "accel_val": 2000,
      "base_duration_us": 508471
    },
    {
      "id": "M_940",
      "pitch": 71,
      "t_note_us": 103897486,
      "t_trigger_us": 103761523,
      "is_ai": false,
      "track_id": 0,
      "velocity": 0,
      "is_motor": true,
      "motor_id": 1,
      "accel_val": 2000,
      "base_duration_us": 127117
    },
    {
      "id": "M_941",
      "pitch": 55,
      "t_note_us": 103982231,
      "t_trigger_us": 103846268,
      "is_ai": false,
      "track_id": 0,
      "velocity": 0,
      "is_motor": true,
      "motor_id": 0,
      "accel_val": 2000,
      "base_duration_us": 254236
    },
    {
      "id": "M_944",
      "pitch": 48,
      "t_note_us": 104236467,
      "t_trigger_us": 104100504,
      "is_ai": false,
      "track_id": 0,
      "velocity": 0,
      "is_motor": true,
      "motor_id": 0,
      "accel_val": 2000,
      "base_duration_us": 254236
    },
    {
      "id": "M_945",
      "pitch": 64,
      "t_note_us": 104490703,
      "t_trigger_us": 104354740,
      "is_ai": false,
      "track_id": 0,
      "velocity": 0,
      "is_motor": true,
      "motor_id": 1,
      "accel_val": 2000,
      "base_duration_us": 254236
    },
    {
      "id": "M_946",
      "pitch": 60,
      "t_note_us": 104490703,
      "t_trigger_us": 104354740,
      "is_ai": false,
      "track_id": 0,
      "velocity": 0,
      "is_motor": true,
      "motor_id": 0,
      "accel_val": 2000,
      "base_duration_us": 254236
    },
    {
      "id": "M_947",
      "pitch": 91,
      "t_note_us": 104492027,
      "t_trigger_us": 104356064,
      "is_ai": true,
      "track_id": 7,
      "velocity": 0,
      "is_motor": false,
      "motor_id": 0,
      "accel_val": 2000,
      "base_duration_us": 254236
    },
    {
      "id": "M_948",
      "pitch": 88,
      "t_note_us": 104492027,
      "t_trigger_us": 104356064,
      "is_ai": true,
      "track_id": 5,
      "velocity": 0,
      "is_motor": false,
      "motor_id": 0,
      "accel_val": 2000,
      "base_duration_us": 254236
    },
    {
      "id": "M_949",
      "pitch": 55,
      "t_note_us": 104744939,
      "t_trigger_us": 104608976,
      "is_ai": false,
      "track_id": 0,
      "velocity": 0,
      "is_motor": true,
      "motor_id": 0,
      "accel_val": 2000,
      "base_duration_us": 127118
    },
    {
      "id": "M_952",
      "pitch": 98,
      "t_note_us": 104746263,
      "t_trigger_us": 104610300,
      "is_ai": true,
      "track_id": 11,
      "velocity": 0,
      "is_motor": false,
      "motor_id": 0,
      "accel_val": 2000,
      "base_duration_us": 508471
    },
    {
      "id": "M_953",
      "pitch": 91,
      "t_note_us": 104746263,
      "t_trigger_us": 104610300,
      "is_ai": true,
      "track_id": 7,
      "velocity": 0,
      "is_motor": false,
      "motor_id": 0,
      "accel_val": 2000,
      "base_duration_us": 508471
    },
    {
      "id": "M_950",
      "pitch": 64,
      "t_note_us": 104914429,
      "t_trigger_us": 104778466,
      "is_ai": false,
      "track_id": 0,
      "velocity": 0,
      "is_motor": true,
      "motor_id": 1,
      "accel_val": 2000,
      "base_duration_us": 127117
    },
    {
      "id": "M_951",
      "pitch": 48,
      "t_note_us": 104999174,
      "t_trigger_us": 104863211,
      "is_ai": false,
      "track_id": 0,
      "velocity": 0,
      "is_motor": true,
      "motor_id": 0,
      "accel_val": 2000,
      "base_duration_us": 254236
    },
    {
      "id": "M_954",
      "pitch": 54,
      "t_note_us": 105253410,
      "t_trigger_us": 105117447,
      "is_ai": false,
      "track_id": 0,
      "velocity": 0,
      "is_motor": true,
      "motor_id": 0,
      "accel_val": 2000,
      "base_duration_us": 254236
    },
    {
      "id": "M_955",
      "pitch": 96,
      "t_note_us": 105254734,
      "t_trigger_us": 105118771,
      "is_ai": true,
      "track_id": 10,
      "velocity": 0,
      "is_motor": false,
      "motor_id": 0,
      "accel_val": 2000,
      "base_duration_us": 254236
    },
    {
      "id": "M_956",
      "pitch": 90,
      "t_note_us": 105254734,
      "t_trigger_us": 105118771,
      "is_ai": true,
      "track_id": 0,
      "velocity": 0,
      "is_motor": true,
      "motor_id": 3,
      "accel_val": 2000,
      "base_duration_us": 254236
    },
    {
      "id": "M_957",
      "pitch": 69,
      "t_note_us": 105507646,
      "t_trigger_us": 105371683,
      "is_ai": false,
      "track_id": 0,
      "velocity": 0,
      "is_motor": true,
      "motor_id": 1,
      "accel_val": 2000,
      "base_duration_us": 254236
    },
    {
      "id": "M_958",
      "pitch": 66,
      "t_note_us": 105507646,
      "t_trigger_us": 105371683,
      "is_ai": false,
      "track_id": 0,
      "velocity": 0,
      "is_motor": true,
      "motor_id": 2,
      "accel_val": 2000,
      "base_duration_us": 254236
    },
    {
      "id": "M_959",
      "pitch": 95,
      "t_note_us": 105508970,
      "t_trigger_us": 105373007,
      "is_ai": true,
      "track_id": 9,
      "velocity": 0,
      "is_motor": false,
      "motor_id": 0,
      "accel_val": 2000,
      "base_duration_us": 254236
    },
    {
      "id": "M_960",
      "pitch": 90,
      "t_note_us": 105508970,
      "t_trigger_us": 105373007,
      "is_ai": true,
      "track_id": 0,
      "velocity": 0,
      "is_motor": true,
      "motor_id": 3,
      "accel_val": 2000,
      "base_duration_us": 254236
    },
    {
      "id": "M_961",
      "pitch": 63,
      "t_note_us": 105761882,
      "t_trigger_us": 105625919,
      "is_ai": false,
      "track_id": 0,
      "velocity": 0,
      "is_motor": true,
      "motor_id": 1,
      "accel_val": 2000,
      "base_duration_us": 127118
    },
    {
      "id": "M_962",
      "pitch": 95,
      "t_note_us": 105763206,
      "t_trigger_us": 105627243,
      "is_ai": true,
      "track_id": 9,
      "velocity": 0,
      "is_motor": false,
      "motor_id": 0,
      "accel_val": 2000,
      "base_duration_us": 254235
    },
    {
      "id": "M_963",
      "pitch": 90,
      "t_note_us": 105763206,
      "t_trigger_us": 105627243,
      "is_ai": true,
      "track_id": 0,
      "velocity": 0,
      "is_motor": true,
      "motor_id": 3,
      "accel_val": 2000,
      "base_duration_us": 254235
    },
    {
      "id": "M_964",
      "pitch": 69,
      "t_note_us": 105931372,
      "t_trigger_us": 105795409,
      "is_ai": false,
      "track_id": 0,
      "velocity": 0,
      "is_motor": true,
      "motor_id": 1,
      "accel_val": 2000,
      "base_duration_us": 127117
    },
    {
      "id": "M_965",
      "pitch": 54,
      "t_note_us": 106016117,
      "t_trigger_us": 105880154,
      "is_ai": false,
      "track_id": 0,
      "velocity": 0,
      "is_motor": true,
      "motor_id": 0,
      "accel_val": 2000,
      "base_duration_us": 254236
    },
    {
      "id": "M_966",
      "pitch": 93,
      "t_note_us": 106017441,
      "t_trigger_us": 105881478,
      "is_ai": true,
      "track_id": 8,
      "velocity": 0,
      "is_motor": false,
      "motor_id": 0,
      "accel_val": 2000,
      "base_duration_us": 254236
    },
    {
      "id": "M_967",
      "pitch": 90,
      "t_note_us": 106017441,
      "t_trigger_us": 105881478,
      "is_ai": true,
      "track_id": 0,
      "velocity": 0,
      "is_motor": true,
      "motor_id": 3,
      "accel_val": 2000,
      "base_duration_us": 254236
    },
    {
      "id": "M_968",
      "pitch": 52,
      "t_note_us": 106270353,
      "t_trigger_us": 106134390,
      "is_ai": false,
      "track_id": 0,
      "velocity": 0,
      "is_motor": true,
      "motor_id": 0,
      "accel_val": 2000,
      "base_duration_us": 254236
    },
    {
      "id": "M_970",
      "pitch": 95,
      "t_note_us": 106271677,
      "t_trigger_us": 106135714,
      "is_ai": true,
      "track_id": 9,
      "velocity": 0,
      "is_motor": false,
      "motor_id": 0,
      "accel_val": 2000,
      "base_duration_us": 254236
    },
    {
      "id": "M_969",
      "pitch": 76,
      "t_note_us": 106271677,
      "t_trigger_us": 106135714,
      "is_ai": false,
      "track_id": 0,
      "velocity": 0,
      "is_motor": true,
      "motor_id": 2,
      "accel_val": 2000,
      "base_duration_us": 254236
    },
    {
      "id": "M_971",
      "pitch": 67,
      "t_note_us": 106524589,
      "t_trigger_us": 106388626,
      "is_ai": false,
      "track_id": 0,
      "velocity": 0,
      "is_motor": true,
      "motor_id": 1,
      "accel_val": 2000,
      "base_duration_us": 254236
    },
    {
      "id": "M_972",
      "pitch": 64,
      "t_note_us": 106524589,
      "t_trigger_us": 106388626,
      "is_ai": false,
      "track_id": 0,
      "velocity": 0,
      "is_motor": true,
      "motor_id": 0,
      "accel_val": 2000,
      "base_duration_us": 254236
    },
    {
      "id": "M_973",
      "pitch": 91,
      "t_note_us": 106525913,
      "t_trigger_us": 106389950,
      "is_ai": true,
      "track_id": 7,
      "velocity": 0,
      "is_motor": false,
      "motor_id": 0,
      "accel_val": 2000,
      "base_duration_us": 254236
    },
    {
      "id": "M_974",
      "pitch": 76,
      "t_note_us": 106525913,
      "t_trigger_us": 106389950,
      "is_ai": false,
      "track_id": 0,
      "velocity": 0,
      "is_motor": true,
      "motor_id": 2,
      "accel_val": 2000,
      "base_duration_us": 254236
    },
    {
      "id": "M_975",
      "pitch": 59,
      "t_note_us": 106778825,
      "t_trigger_us": 106642862,
      "is_ai": false,
      "track_id": 0,
      "velocity": 0,
      "is_motor": true,
      "motor_id": 0,
      "accel_val": 2000,
      "base_duration_us": 127118
    },
    {
      "id": "M_977",
      "pitch": 86,
      "t_note_us": 106780149,
      "t_trigger_us": 106644186,
      "is_ai": true,
      "track_id": 4,
      "velocity": 0,
      "is_motor": false,
      "motor_id": 0,
      "accel_val": 2000,
      "base_duration_us": 254235
    },
    {
      "id": "M_976",
      "pitch": 67,
      "t_note_us": 106780149,
      "t_trigger_us": 106644186,
      "is_ai": false,
      "track_id": 0,
      "velocity": 0,
      "is_motor": true,
      "motor_id": 1,
      "accel_val": 2000,
      "base_duration_us": 254235
    },
    {
      "id": "M_978",
      "pitch": 67,
      "t_note_us": 106948315,
      "t_trigger_us": 106812352,
      "is_ai": false,
      "track_id": 0,
      "velocity": 0,
      "is_motor": true,
      "motor_id": 2,
      "accel_val": 2000,
      "base_duration_us": 127117
    },
    {
      "id": "M_979",
      "pitch": 52,
      "t_note_us": 107033060,
      "t_trigger_us": 106897097,
      "is_ai": false,
      "track_id": 0,
      "velocity": 0,
      "is_motor": true,
      "motor_id": 0,
      "accel_val": 2000,
      "base_duration_us": 254236
    },
    {
      "id": "M_980",
      "pitch": 67,
      "t_note_us": 107034384,
      "t_trigger_us": 106898421,
      "is_ai": false,
      "track_id": 0,
      "velocity": 0,
      "is_motor": true,
      "motor_id": 1,
      "accel_val": 2000,
      "base_duration_us": 254236
    },
    {
      "id": "M_981",
      "pitch": 72,
      "t_note_us": 107034384,
      "t_trigger_us": 106898421,
      "is_ai": false,
      "track_id": 0,
      "velocity": 0,
      "is_motor": true,
      "motor_id": 3,
      "accel_val": 2000,
      "base_duration_us": 254236
    },
    {
      "id": "M_982",
      "pitch": 55,
      "t_note_us": 107287296,
      "t_trigger_us": 107151333,
      "is_ai": false,
      "track_id": 0,
      "velocity": 0,
      "is_motor": true,
      "motor_id": 0,
      "accel_val": 2000,
      "base_duration_us": 127118
    },
    {
      "id": "M_983",
      "pitch": 72,
      "t_note_us": 107288620,
      "t_trigger_us": 107152657,
      "is_ai": false,
      "track_id": 0,
      "velocity": 0,
      "is_motor": true,
      "motor_id": 1,
      "accel_val": 2000,
      "base_duration_us": 254235
    },
    {
      "id": "M_984",
      "pitch": 62,
      "t_note_us": 107456786,
      "t_trigger_us": 107320823,
      "is_ai": false,
      "track_id": 0,
      "velocity": 0,
      "is_motor": true,
      "motor_id": 0,
      "accel_val": 2000,
      "base_duration_us": 254236
    },
    {
      "id": "M_985",
      "pitch": 71,
      "t_note_us": 107542855,
      "t_trigger_us": 107406892,
      "is_ai": false,
      "track_id": 0,
      "velocity": 0,
      "is_motor": true,
      "motor_id": 1,
      "accel_val": 2000,
      "base_duration_us": 254236
    },
    {
      "id": "M_986",
      "pitch": 62,
      "t_note_us": 107711022,
      "t_trigger_us": 107575059,
      "is_ai": false,
      "track_id": 0,
      "velocity": 0,
      "is_motor": true,
      "motor_id": 0,
      "accel_val": 2000,
      "base_duration_us": 127117
    },
    {
      "id": "M_987",
      "pitch": 67,
      "t_note_us": 107795767,
      "t_trigger_us": 107659804,
      "is_ai": false,
      "track_id": 0,
      "velocity": 0,
      "is_motor": true,
      "motor_id": 2,
      "accel_val": 2000,
      "base_duration_us": 254236
    },
    {
      "id": "M_989",
      "pitch": 71,
      "t_note_us": 107797091,
      "t_trigger_us": 107661128,
      "is_ai": false,
      "track_id": 0,
      "velocity": 0,
      "is_motor": true,
      "motor_id": 1,
      "accel_val": 2000,
      "base_duration_us": 508471
    },
    {
      "id": "M_988",
      "pitch": 59,
      "t_note_us": 108050003,
      "t_trigger_us": 107914040,
      "is_ai": false,
      "track_id": 0,
      "velocity": 0,
      "is_motor": true,
      "motor_id": 0,
      "accel_val": 2000,
      "base_duration_us": 127118
    },
    {
      "id": "M_990",
      "pitch": 62,
      "t_note_us": 108219493,
      "t_trigger_us": 108083530,
      "is_ai": false,
      "track_id": 0,
      "velocity": 0,
      "is_motor": true,
      "motor_id": 0,
      "accel_val": 2000,
      "base_duration_us": 127117
    },
    {
      "id": "M_991",
      "pitch": 48,
      "t_note_us": 108304238,
      "t_trigger_us": 108168275,
      "is_ai": false,
      "track_id": 0,
      "velocity": 0,
      "is_motor": true,
      "motor_id": 2,
      "accel_val": 2000,
      "base_duration_us": 254236
    },
    {
      "id": "M_992",
      "pitch": 64,
      "t_note_us": 108558474,
      "t_trigger_us": 108422511,
      "is_ai": false,
      "track_id": 0,
      "velocity": 0,
      "is_motor": true,
      "motor_id": 1,
      "accel_val": 2000,
      "base_duration_us": 254236
    },
    {
      "id": "M_993",
      "pitch": 60,
      "t_note_us": 108558474,
      "t_trigger_us": 108422511,
      "is_ai": false,
      "track_id": 0,
      "velocity": 0,
      "is_motor": true,
      "motor_id": 0,
      "accel_val": 2000,
      "base_duration_us": 254236
    },
    {
      "id": "M_994",
      "pitch": 91,
      "t_note_us": 108559798,
      "t_trigger_us": 108423835,
      "is_ai": true,
      "track_id": 7,
      "velocity": 0,
      "is_motor": false,
      "motor_id": 0,
      "accel_val": 2000,
      "base_duration_us": 254236
    },
    {
      "id": "M_995",
      "pitch": 55,
      "t_note_us": 108812710,
      "t_trigger_us": 108676747,
      "is_ai": false,
      "track_id": 0,
      "velocity": 0,
      "is_motor": true,
      "motor_id": 0,
      "accel_val": 2000,
      "base_duration_us": 127118
    },
    {
      "id": "M_996",
      "pitch": 78,
      "t_note_us": 108814034,
      "t_trigger_us": 108678071,
      "is_ai": false,
      "track_id": 0,
      "velocity": 0,
      "is_motor": true,
      "motor_id": 2,
      "accel_val": 2000,
      "base_duration_us": 127118
    },
    {
      "id": "M_997",
      "pitch": 64,
      "t_note_us": 108982200,
      "t_trigger_us": 108846237,
      "is_ai": false,
      "track_id": 0,
      "velocity": 0,
      "is_motor": true,
      "motor_id": 1,
      "accel_val": 2000,
      "base_duration_us": 127117
    },
    {
      "id": "M_998",
      "pitch": 91,
      "t_note_us": 108983524,
      "t_trigger_us": 108847561,
      "is_ai": true,
      "track_id": 7,
      "velocity": 0,
      "is_motor": false,
      "motor_id": 0,
      "accel_val": 2000,
      "base_duration_us": 254235
    },
    {
      "id": "M_999",
      "pitch": 48,
      "t_note_us": 109066945,
      "t_trigger_us": 108930982,
      "is_ai": false,
      "track_id": 0,
      "velocity": 0,
      "is_motor": true,
      "motor_id": 0,
      "accel_val": 2000,
      "base_duration_us": 254235
    },
    {
      "id": "M_1000",
      "pitch": 93,
      "t_note_us": 109237759,
      "t_trigger_us": 109101796,
      "is_ai": true,
      "track_id": 8,
      "velocity": 0,
      "is_motor": false,
      "motor_id": 0,
      "accel_val": 2000,
      "base_duration_us": 254236
    },
    {
      "id": "M_1001",
      "pitch": 47,
      "t_note_us": 109321180,
      "t_trigger_us": 109185217,
      "is_ai": false,
      "track_id": 0,
      "velocity": 0,
      "is_motor": true,
      "motor_id": 0,
      "accel_val": 2000,
      "base_duration_us": 254236
    },
    {
      "id": "M_1002",
      "pitch": 91,
      "t_note_us": 109491995,
      "t_trigger_us": 109356032,
      "is_ai": true,
      "track_id": 7,
      "velocity": 0,
      "is_motor": false,
      "motor_id": 0,
      "accel_val": 2000,
      "base_duration_us": 254236
    },
    {
      "id": "M_1003",
      "pitch": 63,
      "t_note_us": 109575416,
      "t_trigger_us": 109439453,
      "is_ai": false,
      "track_id": 0,
      "velocity": 0,
      "is_motor": true,
      "motor_id": 1,
      "accel_val": 2000,
      "base_duration_us": 254236
    },
    {
      "id": "M_1004",
      "pitch": 59,
      "t_note_us": 109575416,
      "t_trigger_us": 109439453,
      "is_ai": false,
      "track_id": 0,
      "velocity": 0,
      "is_motor": true,
      "motor_id": 0,
      "accel_val": 2000,
      "base_duration_us": 254236
    },
    {
      "id": "M_1005",
      "pitch": 91,
      "t_note_us": 109746231,
      "t_trigger_us": 109610268,
      "is_ai": true,
      "track_id": 7,
      "velocity": 0,
      "is_motor": false,
      "motor_id": 0,
      "accel_val": 2000,
      "base_duration_us": 127117
    },
    {
      "id": "M_1006",
      "pitch": 54,
      "t_note_us": 109829652,
      "t_trigger_us": 109693689,
      "is_ai": false,
      "track_id": 0,
      "velocity": 0,
      "is_motor": true,
      "motor_id": 0,
      "accel_val": 2000,
      "base_duration_us": 127117
    },
    {
      "id": "M_1007",
      "pitch": 90,
      "t_note_us": 109830976,
      "t_trigger_us": 109695013,
      "is_ai": true,
      "track_id": 0,
      "velocity": 0,
      "is_motor": true,
      "motor_id": 3,
      "accel_val": 2000,
      "base_duration_us": 254234
    },
    {
      "id": "M_1008",
      "pitch": 63,
      "t_note_us": 109999141,
      "t_trigger_us": 109863178,
      "is_ai": false,
      "track_id": 0,
      "velocity": 0,
      "is_motor": true,
      "motor_id": 1,
      "accel_val": 2000,
      "base_duration_us": 127117
    },
    {
      "id": "M_1009",
      "pitch": 47,
      "t_note_us": 110083886,
      "t_trigger_us": 109947923,
      "is_ai": false,
      "track_id": 0,
      "velocity": 0,
      "is_motor": true,
      "motor_id": 0,
      "accel_val": 2000,
      "base_duration_us": 254236
    },
    {
      "id": "M_1010",
      "pitch": 91,
      "t_note_us": 110085210,
      "t_trigger_us": 109949247,
      "is_ai": true,
      "track_id": 7,
      "velocity": 0,
      "is_motor": false,
      "motor_id": 0,
      "accel_val": 2000,
      "base_duration_us": 254236
    },
    {
      "id": "M_1011",
      "pitch": 52,
      "t_note_us": 110338122,
      "t_trigger_us": 110202159,
      "is_ai": false,
      "track_id": 0,
      "velocity": 0,
      "is_motor": true,
      "motor_id": 0,
      "accel_val": 2000,
      "base_duration_us": 254236
    },
    {
      "id": "M_1012",
      "pitch": 67,
      "t_note_us": 110592358,
      "t_trigger_us": 110456395,
      "is_ai": false,
      "track_id": 0,
      "velocity": 0,
      "is_motor": true,
      "motor_id": 1,
      "accel_val": 2000,
      "base_duration_us": 254236
    },
    {
      "id": "M_1013",
      "pitch": 64,
      "t_note_us": 110592358,
      "t_trigger_us": 110456395,
      "is_ai": false,
      "track_id": 0,
      "velocity": 0,
      "is_motor": true,
      "motor_id": 0,
      "accel_val": 2000,
      "base_duration_us": 254236
    },
    {
      "id": "M_1014",
      "pitch": 71,
      "t_note_us": 110593682,
      "t_trigger_us": 110457719,
      "is_ai": false,
      "track_id": 0,
      "velocity": 0,
      "is_motor": true,
      "motor_id": 2,
      "accel_val": 2000,
      "base_duration_us": 254236
    },
    {
      "id": "M_1015",
      "pitch": 59,
      "t_note_us": 110846594,
      "t_trigger_us": 110710631,
      "is_ai": false,
      "track_id": 0,
      "velocity": 0,
      "is_motor": true,
      "motor_id": 0,
      "accel_val": 2000,
      "base_duration_us": 127118
    },
    {
      "id": "M_1016",
      "pitch": 70,
      "t_note_us": 110847918,
      "t_trigger_us": 110711955,
      "is_ai": false,
      "track_id": 0,
      "velocity": 0,
      "is_motor": true,
      "motor_id": 1,
      "accel_val": 2000,
      "base_duration_us": 127118
    },
    {
      "id": "M_1017",
      "pitch": 67,
      "t_note_us": 111016084,
      "t_trigger_us": 110880121,
      "is_ai": false,
      "track_id": 0,
      "velocity": 0,
      "is_motor": true,
      "motor_id": 1,
      "accel_val": 2000,
      "base_duration_us": 127117
    },
    {
      "id": "M_1018",
      "pitch": 71,
      "t_note_us": 111017408,
      "t_trigger_us": 110881445,
      "is_ai": false,
      "track_id": 0,
      "velocity": 0,
      "is_motor": true,
      "motor_id": 2,
      "accel_val": 2000,
      "base_duration_us": 254235
    },
    {
      "id": "M_1019",
      "pitch": 52,
      "t_note_us": 111100829,
      "t_trigger_us": 110964866,
      "is_ai": false,
      "track_id": 0,
      "velocity": 0,
      "is_motor": true,
      "motor_id": 0,
      "accel_val": 2000,
      "base_duration_us": 254235
    },
    {
      "id": "M_1020",
      "pitch": 67,
      "t_note_us": 111271643,
      "t_trigger_us": 111135680,
      "is_ai": false,
      "track_id": 0,
      "velocity": 0,
      "is_motor": true,
      "motor_id": 1,
      "accel_val": 2000,
      "base_duration_us": 254236
    },
    {
      "id": "M_1021",
      "pitch": 55,
      "t_note_us": 111355064,
      "t_trigger_us": 111219101,
      "is_ai": false,
      "track_id": 0,
      "velocity": 0,
      "is_motor": true,
      "motor_id": 0,
      "accel_val": 2000,
      "base_duration_us": 254236
    },
    {
      "id": "M_1022",
      "pitch": 67,
      "t_note_us": 111525879,
      "t_trigger_us": 111389916,
      "is_ai": false,
      "track_id": 0,
      "velocity": 0,
      "is_motor": true,
      "motor_id": 1,
      "accel_val": 2000,
      "base_duration_us": 254236
    },
    {
      "id": "M_1023",
      "pitch": 65,
      "t_note_us": 111609300,
      "t_trigger_us": 111473337,
      "is_ai": false,
      "track_id": 0,
      "velocity": 0,
      "is_motor": true,
      "motor_id": 0,
      "accel_val": 2000,
      "base_duration_us": 254236
    },
    {
      "id": "M_1024",
      "pitch": 71,
      "t_note_us": 111609300,
      "t_trigger_us": 111473337,
      "is_ai": false,
      "track_id": 0,
      "velocity": 0,
      "is_motor": true,
      "motor_id": 2,
      "accel_val": 2000,
      "base_duration_us": 254236
    },
    {
      "id": "M_1025",
      "pitch": 67,
      "t_note_us": 111780115,
      "t_trigger_us": 111644152,
      "is_ai": false,
      "track_id": 0,
      "velocity": 0,
      "is_motor": true,
      "motor_id": 1,
      "accel_val": 2000,
      "base_duration_us": 127117
    },
    {
      "id": "M_1026",
      "pitch": 62,
      "t_note_us": 111863536,
      "t_trigger_us": 111727573,
      "is_ai": false,
      "track_id": 0,
      "velocity": 0,
      "is_motor": true,
      "motor_id": 0,
      "accel_val": 2000,
      "base_duration_us": 127117
    },
    {
      "id": "M_1027",
      "pitch": 69,
      "t_note_us": 111864860,
      "t_trigger_us": 111728897,
      "is_ai": false,
      "track_id": 0,
      "velocity": 0,
      "is_motor": true,
      "motor_id": 2,
      "accel_val": 2000,
      "base_duration_us": 254234
    },
    {
      "id": "M_1028",
      "pitch": 71,
      "t_note_us": 112033025,
      "t_trigger_us": 111897062,
      "is_ai": false,
      "track_id": 0,
      "velocity": 0,
      "is_motor": true,
      "motor_id": 1,
      "accel_val": 2000,
      "base_duration_us": 127117
    },
    {
      "id": "M_1029",
      "pitch": 55,
      "t_note_us": 112117770,
      "t_trigger_us": 111981807,
      "is_ai": false,
      "track_id": 0,
      "velocity": 0,
      "is_motor": true,
      "motor_id": 0,
      "accel_val": 2000,
      "base_duration_us": 254236
    },
    {
      "id": "M_1030",
      "pitch": 67,
      "t_note_us": 112119094,
      "t_trigger_us": 111983131,
      "is_ai": false,
      "track_id": 0,
      "velocity": 0,
      "is_motor": true,
      "motor_id": 2,
      "accel_val": 2000,
      "base_duration_us": 254236
    },
    {
      "id": "M_1031",
      "pitch": 48,
      "t_note_us": 112372006,
      "t_trigger_us": 112236043,
      "is_ai": false,
      "track_id": 0,
      "velocity": 0,
      "is_motor": true,
      "motor_id": 0,
      "accel_val": 2000,
      "base_duration_us": 254236
    },
    {
      "id": "M_1032",
      "pitch": 64,
      "t_note_us": 112626242,
      "t_trigger_us": 112490279,
      "is_ai": false,
      "track_id": 0,
      "velocity": 0,
      "is_motor": true,
      "motor_id": 1,
      "accel_val": 2000,
      "base_duration_us": 254236
    },
    {
      "id": "M_1033",
      "pitch": 60,
      "t_note_us": 112626242,
      "t_trigger_us": 112490279,
      "is_ai": false,
      "track_id": 0,
      "velocity": 0,
      "is_motor": true,
      "motor_id": 0,
      "accel_val": 2000,
      "base_duration_us": 254236
    },
    {
      "id": "M_1034",
      "pitch": 91,
      "t_note_us": 112627566,
      "t_trigger_us": 112491603,
      "is_ai": true,
      "track_id": 7,
      "velocity": 0,
      "is_motor": false,
      "motor_id": 0,
      "accel_val": 2000,
      "base_duration_us": 254236
    },
    {
      "id": "M_1035",
      "pitch": 55,
      "t_note_us": 112880478,
      "t_trigger_us": 112744515,
      "is_ai": false,
      "track_id": 0,
      "velocity": 0,
      "is_motor": true,
      "motor_id": 0,
      "accel_val": 2000,
      "base_duration_us": 127118
    },
    {
      "id": "M_1036",
      "pitch": 90,
      "t_note_us": 112881802,
      "t_trigger_us": 112745839,
      "is_ai": true,
      "track_id": 0,
      "velocity": 0,
      "is_motor": true,
      "motor_id": 3,
      "accel_val": 2000,
      "base_duration_us": 127118
    },
    {
      "id": "M_1037",
      "pitch": 64,
      "t_note_us": 113049968,
      "t_trigger_us": 112914005,
      "is_ai": false,
      "track_id": 0,
      "velocity": 0,
      "is_motor": true,
      "motor_id": 1,
      "accel_val": 2000,
      "base_duration_us": 127117
    },
    {
      "id": "M_1038",
      "pitch": 91,
      "t_note_us": 113051292,
      "t_trigger_us": 112915329,
      "is_ai": true,
      "track_id": 7,
      "velocity": 0,
      "is_motor": false,
      "motor_id": 0,
      "accel_val": 2000,
      "base_duration_us": 254235
    },
    {
      "id": "M_1039",
      "pitch": 48,
      "t_note_us": 113134713,
      "t_trigger_us": 112998750,
      "is_ai": false,
      "track_id": 0,
      "velocity": 0,
      "is_motor": true,
      "motor_id": 0,
      "accel_val": 2000,
      "base_duration_us": 254235
    },
    {
      "id": "M_1040",
      "pitch": 93,
      "t_note_us": 113305527,
      "t_trigger_us": 113169564,
      "is_ai": true,
      "track_id": 8,
      "velocity": 0,
      "is_motor": false,
      "motor_id": 0,
      "accel_val": 2000,
      "base_duration_us": 254236
    },
    {
      "id": "M_1041",
      "pitch": 54,
      "t_note_us": 113388948,
      "t_trigger_us": 113252985,
      "is_ai": false,
      "track_id": 0,
      "velocity": 0,
      "is_motor": true,
      "motor_id": 0,
      "accel_val": 2000,
      "base_duration_us": 254236
    },
    {
      "id": "M_1042",
      "pitch": 91,
      "t_note_us": 113559763,
      "t_trigger_us": 113423800,
      "is_ai": true,
      "track_id": 7,
      "velocity": 0,
      "is_motor": false,
      "motor_id": 0,
      "accel_val": 2000,
      "base_duration_us": 254236
    },
    {
      "id": "M_1043",
      "pitch": 69,
      "t_note_us": 113643184,
      "t_trigger_us": 113507221,
      "is_ai": false,
      "track_id": 0,
      "velocity": 0,
      "is_motor": true,
      "motor_id": 1,
      "accel_val": 2000,
      "base_duration_us": 254236
    },
    {
      "id": "M_1044",
      "pitch": 66,
      "t_note_us": 113643184,
      "t_trigger_us": 113507221,
      "is_ai": false,
      "track_id": 0,
      "velocity": 0,
      "is_motor": true,
      "motor_id": 2,
      "accel_val": 2000,
      "base_duration_us": 254236
    },
    {
      "id": "M_1045",
      "pitch": 91,
      "t_note_us": 113813999,
      "t_trigger_us": 113678036,
      "is_ai": true,
      "track_id": 7,
      "velocity": 0,
      "is_motor": false,
      "motor_id": 0,
      "accel_val": 2000,
      "base_duration_us": 127117
    },
    {
      "id": "M_1046",
      "pitch": 63,
      "t_note_us": 113897420,
      "t_trigger_us": 113761457,
      "is_ai": false,
      "track_id": 0,
      "velocity": 0,
      "is_motor": true,
      "motor_id": 1,
      "accel_val": 2000,
      "base_duration_us": 127117
    },
    {
      "id": "M_1047",
      "pitch": 90,
      "t_note_us": 113898744,
      "t_trigger_us": 113762781,
      "is_ai": true,
      "track_id": 0,
      "velocity": 0,
      "is_motor": true,
      "motor_id": 3,
      "accel_val": 2000,
      "base_duration_us": 254234
    },
    {
      "id": "M_1048",
      "pitch": 69,
      "t_note_us": 114066909,
      "t_trigger_us": 113930946,
      "is_ai": false,
      "track_id": 0,
      "velocity": 0,
      "is_motor": true,
      "motor_id": 1,
      "accel_val": 2000,
      "base_duration_us": 127117
    },
    {
      "id": "M_1049",
      "pitch": 54,
      "t_note_us": 114151654,
      "t_trigger_us": 114015691,
      "is_ai": false,
      "track_id": 0,
      "velocity": 0,
      "is_motor": true,
      "motor_id": 0,
      "accel_val": 2000,
      "base_duration_us": 254236
    },
    {
      "id": "M_1050",
      "pitch": 91,
      "t_note_us": 114152978,
      "t_trigger_us": 114017015,
      "is_ai": true,
      "track_id": 7,
      "velocity": 0,
      "is_motor": false,
      "motor_id": 0,
      "accel_val": 2000,
      "base_duration_us": 254236
    },
    {
      "id": "M_1051",
      "pitch": 52,
      "t_note_us": 114405890,
      "t_trigger_us": 114269927,
      "is_ai": false,
      "track_id": 0,
      "velocity": 0,
      "is_motor": true,
      "motor_id": 0,
      "accel_val": 2000,
      "base_duration_us": 254236
    },
    {
      "id": "M_1052",
      "pitch": 71,
      "t_note_us": 114407214,
      "t_trigger_us": 114271251,
      "is_ai": false,
      "track_id": 0,
      "velocity": 0,
      "is_motor": true,
      "motor_id": 1,
      "accel_val": 2000,
      "base_duration_us": 254236
    },
    {
      "id": "M_1054",
      "pitch": 67,
      "t_note_us": 114660126,
      "t_trigger_us": 114524163,
      "is_ai": false,
      "track_id": 0,
      "velocity": 0,
      "is_motor": true,
      "motor_id": 2,
      "accel_val": 2000,
      "base_duration_us": 254235
    },
    {
      "id": "M_1055",
      "pitch": 64,
      "t_note_us": 114660126,
      "t_trigger_us": 114524163,
      "is_ai": false,
      "track_id": 0,
      "velocity": 0,
      "is_motor": true,
      "motor_id": 0,
      "accel_val": 2000,
      "base_duration_us": 254235
    },
    {
      "id": "M_1053",
      "pitch": 70,
      "t_note_us": 114661450,
      "t_trigger_us": 114525487,
      "is_ai": false,
      "track_id": 0,
      "velocity": 0,
      "is_motor": true,
      "motor_id": 1,
      "accel_val": 2000,
      "base_duration_us": 127118
    },
    {
      "id": "M_1056",
      "pitch": 71,
      "t_note_us": 114830940,
      "t_trigger_us": 114694977,
      "is_ai": false,
      "track_id": 0,
      "velocity": 0,
      "is_motor": true,
      "motor_id": 1,
      "accel_val": 2000,
      "base_duration_us": 127117
    },
    {
      "id": "M_1057",
      "pitch": 59,
      "t_note_us": 114914361,
      "t_trigger_us": 114778398,
      "is_ai": false,
      "track_id": 0,
      "velocity": 0,
      "is_motor": true,
      "motor_id": 0,
      "accel_val": 2000,
      "base_duration_us": 127117
    },
    {
      "id": "M_1058",
      "pitch": 88,
      "t_note_us": 114915685,
      "t_trigger_us": 114779722,
      "is_ai": true,
      "track_id": 5,
      "velocity": 0,
      "is_motor": false,
      "motor_id": 0,
      "accel_val": 2000,
      "base_duration_us": 254234
    },
    {
      "id": "M_1059",
      "pitch": 67,
      "t_note_us": 115083850,
      "t_trigger_us": 114947887,
      "is_ai": false,
      "track_id": 0,
      "velocity": 0,
      "is_motor": true,
      "motor_id": 1,
      "accel_val": 2000,
      "base_duration_us": 127117
    },
    {
      "id": "M_1060",
      "pitch": 52,
      "t_note_us": 115168595,
      "t_trigger_us": 115032632,
      "is_ai": false,
      "track_id": 0,
      "velocity": 0,
      "is_motor": true,
      "motor_id": 0,
      "accel_val": 2000,
      "base_duration_us": 254236
    },
    {
      "id": "M_1061",
      "pitch": 71,
      "t_note_us": 115169919,
      "t_trigger_us": 115033956,
      "is_ai": false,
      "track_id": 0,
      "velocity": 0,
      "is_motor": true,
      "motor_id": 2,
      "accel_val": 2000,
      "base_duration_us": 254236
    },
    {
      "id": "M_1062",
      "pitch": 55,
      "t_note_us": 115422831,
      "t_trigger_us": 115286868,
      "is_ai": false,
      "track_id": 0,
      "velocity": 0,
      "is_motor": true,
      "motor_id": 0,
      "accel_val": 2000,
      "base_duration_us": 254236
    },
    {
      "id": "M_1063",
      "pitch": 72,
      "t_note_us": 115424155,
      "t_trigger_us": 115288192,
      "is_ai": false,
      "track_id": 0,
      "velocity": 0,
      "is_motor": true,
      "motor_id": 1,
      "accel_val": 2000,
      "base_duration_us": 254236
    },
    {
      "id": "M_1064",
      "pitch": 65,
      "t_note_us": 115677067,
      "t_trigger_us": 115541104,
      "is_ai": false,
      "track_id": 0,
      "velocity": 0,
      "is_motor": true,
      "motor_id": 0,
      "accel_val": 2000,
      "base_duration_us": 254236
    },
    {
      "id": "M_1065",
      "pitch": 71,
      "t_note_us": 115677067,
      "t_trigger_us": 115541104,
      "is_ai": false,
      "track_id": 0,
      "velocity": 0,
      "is_motor": true,
      "motor_id": 2,
      "accel_val": 2000,
      "base_duration_us": 254236
    },
    {
      "id": "M_1066",
      "pitch": 71,
      "t_note_us": 115678391,
      "t_trigger_us": 115542428,
      "is_ai": false,
      "track_id": 0,
      "velocity": 0,
      "is_motor": true,
      "motor_id": 1,
      "accel_val": 2000,
      "base_duration_us": 254236
    },
    {
      "id": "M_1067",
      "pitch": 62,
      "t_note_us": 115931303,
      "t_trigger_us": 115795340,
      "is_ai": false,
      "track_id": 0,
      "velocity": 0,
      "is_motor": true,
      "motor_id": 0,
      "accel_val": 2000,
      "base_duration_us": 127118
    },
    {
      "id": "M_1068",
      "pitch": 69,
      "t_note_us": 115932627,
      "t_trigger_us": 115796664,
      "is_ai": false,
      "track_id": 0,
      "velocity": 0,
      "is_motor": true,
      "motor_id": 1,
      "accel_val": 2000,
      "base_duration_us": 254235
    },
    {
      "id": "M_1069",
      "pitch": 71,
      "t_note_us": 116100793,
      "t_trigger_us": 115964830,
      "is_ai": false,
      "track_id": 0,
      "velocity": 0,
      "is_motor": true,
      "motor_id": 2,
      "accel_val": 2000,
      "base_duration_us": 127117
    },
    {
      "id": "M_1070",
      "pitch": 55,
      "t_note_us": 116185538,
      "t_trigger_us": 116049575,
      "is_ai": false,
      "track_id": 0,
      "velocity": 0,
      "is_motor": true,
      "motor_id": 0,
      "accel_val": 2000,
      "base_duration_us": 254236
    },
    {
      "id": "M_1071",
      "pitch": 67,
      "t_note_us": 116186862,
      "t_trigger_us": 116050899,
      "is_ai": false,
      "track_id": 0,
      "velocity": 0,
      "is_motor": true,
      "motor_id": 1,
      "accel_val": 2000,
      "base_duration_us": 254236
    },
    {
      "id": "M_1072",
      "pitch": 48,
      "t_note_us": 116439774,
      "t_trigger_us": 116303811,
      "is_ai": false,
      "track_id": 0,
      "velocity": 0,
      "is_motor": true,
      "motor_id": 0,
      "accel_val": 2000,
      "base_duration_us": 254236
    },
    {
      "id": "M_1073",
      "pitch": 64,
      "t_note_us": 116694010,
      "t_trigger_us": 116558047,
      "is_ai": false,
      "track_id": 0,
      "velocity": 0,
      "is_motor": true,
      "motor_id": 1,
      "accel_val": 2000,
      "base_duration_us": 254236
    },
    {
      "id": "M_1074",
      "pitch": 60,
      "t_note_us": 116694010,
      "t_trigger_us": 116558047,
      "is_ai": false,
      "track_id": 0,
      "velocity": 0,
      "is_motor": true,
      "motor_id": 0,
      "accel_val": 2000,
      "base_duration_us": 254236
    },
    {
      "id": "M_1075",
      "pitch": 91,
      "t_note_us": 116695334,
      "t_trigger_us": 116559371,
      "is_ai": true,
      "track_id": 7,
      "velocity": 0,
      "is_motor": false,
      "motor_id": 0,
      "accel_val": 2000,
      "base_duration_us": 254236
    },
    {
      "id": "M_1076",
      "pitch": 55,
      "t_note_us": 116948246,
      "t_trigger_us": 116812283,
      "is_ai": false,
      "track_id": 0,
      "velocity": 0,
      "is_motor": true,
      "motor_id": 0,
      "accel_val": 2000,
      "base_duration_us": 127118
    },
    {
      "id": "M_1077",
      "pitch": 90,
      "t_note_us": 116949570,
      "t_trigger_us": 116813607,
      "is_ai": true,
      "track_id": 0,
      "velocity": 0,
      "is_motor": true,
      "motor_id": 3,
      "accel_val": 2000,
      "base_duration_us": 127118
    },
    {
      "id": "M_1078",
      "pitch": 64,
      "t_note_us": 117117736,
      "t_trigger_us": 116981773,
      "is_ai": false,
      "track_id": 0,
      "velocity": 0,
      "is_motor": true,
      "motor_id": 1,
      "accel_val": 2000,
      "base_duration_us": 127117
    },
    {
      "id": "M_1079",
      "pitch": 91,
      "t_note_us": 117119060,
      "t_trigger_us": 116983097,
      "is_ai": true,
      "track_id": 7,
      "velocity": 0,
      "is_motor": false,
      "motor_id": 0,
      "accel_val": 2000,
      "base_duration_us": 254235
    },
    {
      "id": "M_1080",
      "pitch": 48,
      "t_note_us": 117202481,
      "t_trigger_us": 117066518,
      "is_ai": false,
      "track_id": 0,
      "velocity": 0,
      "is_motor": true,
      "motor_id": 0,
      "accel_val": 2000,
      "base_duration_us": 254235
    },
    {
      "id": "M_1081",
      "pitch": 93,
      "t_note_us": 117373295,
      "t_trigger_us": 117237332,
      "is_ai": true,
      "track_id": 8,
      "velocity": 0,
      "is_motor": false,
      "motor_id": 0,
      "accel_val": 2000,
      "base_duration_us": 254236
    },
    {
      "id": "M_1082",
      "pitch": 47,
      "t_note_us": 117456716,
      "t_trigger_us": 117320753,
      "is_ai": false,
      "track_id": 0,
      "velocity": 0,
      "is_motor": true,
      "motor_id": 0,
      "accel_val": 2000,
      "base_duration_us": 254236
    },
    {
      "id": "M_1083",
      "pitch": 91,
      "t_note_us": 117627531,
      "t_trigger_us": 117491568,
      "is_ai": true,
      "track_id": 7,
      "velocity": 0,
      "is_motor": false,
      "motor_id": 0,
      "accel_val": 2000,
      "base_duration_us": 254236
    },
    {
      "id": "M_1084",
      "pitch": 63,
      "t_note_us": 117710952,
      "t_trigger_us": 117574989,
      "is_ai": false,
      "track_id": 0,
      "velocity": 0,
      "is_motor": true,
      "motor_id": 1,
      "accel_val": 2000,
      "base_duration_us": 254236
    },
    {
      "id": "M_1085",
      "pitch": 59,
      "t_note_us": 117710952,
      "t_trigger_us": 117574989,
      "is_ai": false,
      "track_id": 0,
      "velocity": 0,
      "is_motor": true,
      "motor_id": 0,
      "accel_val": 2000,
      "base_duration_us": 254236
    },
    {
      "id": "M_1086",
      "pitch": 91,
      "t_note_us": 117881767,
      "t_trigger_us": 117745804,
      "is_ai": true,
      "track_id": 7,
      "velocity": 0,
      "is_motor": false,
      "motor_id": 0,
      "accel_val": 2000,
      "base_duration_us": 127117
    },
    {
      "id": "M_1087",
      "pitch": 54,
      "t_note_us": 117965188,
      "t_trigger_us": 117829225,
      "is_ai": false,
      "track_id": 0,
      "velocity": 0,
      "is_motor": true,
      "motor_id": 0,
      "accel_val": 2000,
      "base_duration_us": 127117
    },
    {
      "id": "M_1088",
      "pitch": 90,
      "t_note_us": 117966512,
      "t_trigger_us": 117830549,
      "is_ai": true,
      "track_id": 0,
      "velocity": 0,
      "is_motor": true,
      "motor_id": 3,
      "accel_val": 2000,
      "base_duration_us": 254234
    },
    {
      "id": "M_1089",
      "pitch": 63,
      "t_note_us": 118134677,
      "t_trigger_us": 117998714,
      "is_ai": false,
      "track_id": 0,
      "velocity": 0,
      "is_motor": true,
      "motor_id": 1,
      "accel_val": 2000,
      "base_duration_us": 127117
    },
    {
      "id": "M_1090",
      "pitch": 47,
      "t_note_us": 118219422,
      "t_trigger_us": 118083459,
      "is_ai": false,
      "track_id": 0,
      "velocity": 0,
      "is_motor": true,
      "motor_id": 0,
      "accel_val": 2000,
      "base_duration_us": 254236
    },
    {
      "id": "M_1091",
      "pitch": 91,
      "t_note_us": 118220746,
      "t_trigger_us": 118084783,
      "is_ai": true,
      "track_id": 7,
      "velocity": 0,
      "is_motor": false,
      "motor_id": 0,
      "accel_val": 2000,
      "base_duration_us": 254236
    },
    {
      "id": "M_1093",
      "pitch": 52,
      "t_note_us": 118473658,
      "t_trigger_us": 118337695,
      "is_ai": false,
      "track_id": 0,
      "velocity": 0,
      "is_motor": true,
      "motor_id": 0,
      "accel_val": 2000,
      "base_duration_us": 254235
    },
    {
      "id": "M_1092",
      "pitch": 91,
      "t_note_us": 118474982,
      "t_trigger_us": 118339019,
      "is_ai": true,
      "track_id": 7,
      "velocity": 0,
      "is_motor": false,
      "motor_id": 0,
      "accel_val": 2000,
      "base_duration_us": 127118
    },
    {
      "id": "M_1094",
      "pitch": 78,
      "t_note_us": 118644472,
      "t_trigger_us": 118508509,
      "is_ai": false,
      "track_id": 0,
      "velocity": 0,
      "is_motor": true,
      "motor_id": 2,
      "accel_val": 2000,
      "base_duration_us": 127117
    },
    {
      "id": "M_1096",
      "pitch": 67,
      "t_note_us": 118727893,
      "t_trigger_us": 118591930,
      "is_ai": false,
      "track_id": 0,
      "velocity": 0,
      "is_motor": true,
      "motor_id": 1,
      "accel_val": 2000,
      "base_duration_us": 254234
    },
    {
      "id": "M_1097",
      "pitch": 64,
      "t_note_us": 118727893,
      "t_trigger_us": 118591930,
      "is_ai": false,
      "track_id": 0,
      "velocity": 0,
      "is_motor": true,
      "motor_id": 0,
      "accel_val": 2000,
      "base_duration_us": 254234
    },
    {
      "id": "M_1095",
      "pitch": 74,
      "t_note_us": 118729217,
      "t_trigger_us": 118593254,
      "is_ai": false,
      "track_id": 0,
      "velocity": 0,
      "is_motor": true,
      "motor_id": 3,
      "accel_val": 2000,
      "base_duration_us": 127117
    },
    {
      "id": "M_1100",
      "pitch": 69,
      "t_note_us": 118898706,
      "t_trigger_us": 118762743,
      "is_ai": false,
      "track_id": 0,
      "velocity": 0,
      "is_motor": true,
      "motor_id": 2,
      "accel_val": 2000,
      "base_duration_us": 381352
    },
    {
      "id": "M_1098",
      "pitch": 59,
      "t_note_us": 118982127,
      "t_trigger_us": 118846164,
      "is_ai": false,
      "track_id": 0,
      "velocity": 0,
      "is_motor": true,
      "motor_id": 0,
      "accel_val": 2000,
      "base_duration_us": 127118
    },
    {
      "id": "M_1099",
      "pitch": 67,
      "t_note_us": 119151617,
      "t_trigger_us": 119015654,
      "is_ai": false,
      "track_id": 0,
      "velocity": 0,
      "is_motor": true,
      "motor_id": 1,
      "accel_val": 2000,
      "base_duration_us": 127117
    },
    {
      "id": "M_1101",
      "pitch": 52,
      "t_note_us": 119236362,
      "t_trigger_us": 119100399,
      "is_ai": false,
      "track_id": 0,
      "velocity": 0,
      "is_motor": true,
      "motor_id": 0,
      "accel_val": 2000,
      "base_duration_us": 254236
    },
    {
      "id": "M_1102",
      "pitch": 67,
      "t_note_us": 119237686,
      "t_trigger_us": 119101723,
      "is_ai": false,
      "track_id": 0,
      "velocity": 0,
      "is_motor": true,
      "motor_id": 3,
      "accel_val": 2000,
      "base_duration_us": 254236
    },
    {
      "id": "M_1103",
      "pitch": 55,
      "t_note_us": 119490598,
      "t_trigger_us": 119354635,
      "is_ai": false,
      "track_id": 0,
      "velocity": 0,
      "is_motor": true,
      "motor_id": 0,
      "accel_val": 2000,
      "base_duration_us": 254236
    },
    {
      "id": "M_1104",
      "pitch": 78,
      "t_note_us": 119491922,
      "t_trigger_us": 119355959,
      "is_ai": false,
      "track_id": 0,
      "velocity": 0,
      "is_motor": true,
      "motor_id": 2,
      "accel_val": 2000,
      "base_duration_us": 381354
    },
    {
      "id": "M_1105",
      "pitch": 65,
      "t_note_us": 119744834,
      "t_trigger_us": 119608871,
      "is_ai": false,
      "track_id": 0,
      "velocity": 0,
      "is_motor": true,
      "motor_id": 1,
      "accel_val": 2000,
      "base_duration_us": 254235
    },
    {
      "id": "M_1106",
      "pitch": 71,
      "t_note_us": 119744834,
      "t_trigger_us": 119608871,
      "is_ai": false,
      "track_id": 0,
      "velocity": 0,
      "is_motor": true,
      "motor_id": 0,
      "accel_val": 2000,
      "base_duration_us": 254235
    },
    {
      "id": "M_1108",
      "pitch": 67,
      "t_note_us": 119915648,
      "t_trigger_us": 119779685,
      "is_ai": false,
      "track_id": 0,
      "velocity": 0,
      "is_motor": true,
      "motor_id": 2,
      "accel_val": 2000,
      "base_duration_us": 254235
    },
    {
      "id": "M_1107",
      "pitch": 62,
      "t_note_us": 119999069,
      "t_trigger_us": 119863106,
      "is_ai": false,
      "track_id": 0,
      "velocity": 0,
      "is_motor": true,
      "motor_id": 1,
      "accel_val": 2000,
      "base_duration_us": 127118
    },
    {
      "id": "M_1109",
      "pitch": 71,
      "t_note_us": 120168559,
      "t_trigger_us": 120032596,
      "is_ai": false,
      "track_id": 0,
      "velocity": 0,
      "is_motor": true,
      "motor_id": 1,
      "accel_val": 2000,
      "base_duration_us": 127117
    },
    {
      "id": "M_1110",
      "pitch": 78,
      "t_note_us": 120169883,
      "t_trigger_us": 120033920,
      "is_ai": false,
      "track_id": 0,
      "velocity": 0,
      "is_motor": true,
      "motor_id": 2,
      "accel_val": 2000,
      "base_duration_us": 127117
    },
    {
      "id": "M_1112",
      "pitch": 55,
      "t_note_us": 120253304,
      "t_trigger_us": 120117341,
      "is_ai": false,
      "track_id": 0,
      "velocity": 0,
      "is_motor": true,
      "motor_id": 0,
      "accel_val": 2000,
      "base_duration_us": 254234
    },
    {
      "id": "M_1111",
      "pitch": 67,
      "t_note_us": 120254628,
      "t_trigger_us": 120118665,
      "is_ai": false,
      "track_id": 0,
      "velocity": 0,
      "is_motor": true,
      "motor_id": 3,
      "accel_val": 2000,
      "base_duration_us": 127117
    },
    {
      "id": "M_1113",
      "pitch": 78,
      "t_note_us": 120424117,
      "t_trigger_us": 120288154,
      "is_ai": false,
      "track_id": 0,
      "velocity": 0,
      "is_motor": true,
      "motor_id": 2,
      "accel_val": 2000,
      "base_duration_us": 127117
    },
    {
      "id": "M_1114",
      "pitch": 48,
      "t_note_us": 120507538,
      "t_trigger_us": 120371575,
      "is_ai": false,
      "track_id": 0,
      "velocity": 0,
      "is_motor": true,
      "motor_id": 0,
      "accel_val": 2000,
      "base_duration_us": 254236
    },
    {
      "id": "M_1118",
      "pitch": 74,
      "t_note_us": 120508862,
      "t_trigger_us": 120372899,
      "is_ai": false,
      "track_id": 0,
      "velocity": 0,
      "is_motor": true,
      "motor_id": 1,
      "accel_val": 2000,
      "base_duration_us": 762708
    },
    {
      "id": "M_1115",
      "pitch": 64,
      "t_note_us": 120761774,
      "t_trigger_us": 120625811,
      "is_ai": false,
      "track_id": 0,
      "velocity": 0,
      "is_motor": true,
      "motor_id": 0,
      "accel_val": 2000,
      "base_duration_us": 254237
    },
    {
      "id": "M_1116",
      "pitch": 60,
      "t_note_us": 120761774,
      "t_trigger_us": 120625811,
      "is_ai": false,
      "track_id": 0,
      "velocity": 0,
      "is_motor": true,
      "motor_id": 2,
      "accel_val": 2000,
      "base_duration_us": 254237
    },
    {
      "id": "M_1117",
      "pitch": 55,
      "t_note_us": 121016011,
      "t_trigger_us": 120880048,
      "is_ai": false,
      "track_id": 0,
      "velocity": 0,
      "is_motor": true,
      "motor_id": 0,
      "accel_val": 2000,
      "base_duration_us": 127118
    },
    {
      "id": "M_1119",
      "pitch": 64,
      "t_note_us": 121185501,
      "t_trigger_us": 121049538,
      "is_ai": false,
      "track_id": 0,
      "velocity": 0,
      "is_motor": true,
      "motor_id": 0,
      "accel_val": 2000,
      "base_duration_us": 127117
    },
    {
      "id": "M_1121",
      "pitch": 48,
      "t_note_us": 121270246,
      "t_trigger_us": 121134283,
      "is_ai": false,
      "track_id": 0,
      "velocity": 0,
      "is_motor": true,
      "motor_id": 2,
      "accel_val": 2000,
      "base_duration_us": 254234
    },
    {
      "id": "M_1120",
      "pitch": 76,
      "t_note_us": 121271570,
      "t_trigger_us": 121135607,
      "is_ai": false,
      "track_id": 0,
      "velocity": 0,
      "is_motor": true,
      "motor_id": 1,
      "accel_val": 2000,
      "base_duration_us": 127117
    },
    {
      "id": "M_1127",
      "pitch": 74,
      "t_note_us": 121441059,
      "t_trigger_us": 121305096,
      "is_ai": false,
      "track_id": 0,
      "velocity": 0,
      "is_motor": true,
      "motor_id": 1,
      "accel_val": 2000,
      "base_duration_us": 889826
    },
    {
      "id": "M_1122",
      "pitch": 54,
      "t_note_us": 121524480,
      "t_trigger_us": 121388517,
      "is_ai": false,
      "track_id": 0,
      "velocity": 0,
      "is_motor": true,
      "motor_id": 0,
      "accel_val": 2000,
      "base_duration_us": 254237
    },
    {
      "id": "M_1123",
      "pitch": 69,
      "t_note_us": 121778717,
      "t_trigger_us": 121642754,
      "is_ai": false,
      "track_id": 0,
      "velocity": 0,
      "is_motor": true,
      "motor_id": 2,
      "accel_val": 2000,
      "base_duration_us": 254237
    },
    {
      "id": "M_1124",
      "pitch": 66,
      "t_note_us": 121778717,
      "t_trigger_us": 121642754,
      "is_ai": false,
      "track_id": 0,
      "velocity": 0,
      "is_motor": true,
      "motor_id": 0,
      "accel_val": 2000,
      "base_duration_us": 254237
    },
    {
      "id": "M_1125",
      "pitch": 63,
      "t_note_us": 122032954,
      "t_trigger_us": 121896991,
      "is_ai": false,
      "track_id": 0,
      "velocity": 0,
      "is_motor": true,
      "motor_id": 0,
      "accel_val": 2000,
      "base_duration_us": 127118
    },
    {
      "id": "M_1126",
      "pitch": 69,
      "t_note_us": 122202444,
      "t_trigger_us": 122066481,
      "is_ai": false,
      "track_id": 0,
      "velocity": 0,
      "is_motor": true,
      "motor_id": 2,
      "accel_val": 2000,
      "base_duration_us": 127117
    },
    {
      "id": "M_1128",
      "pitch": 54,
      "t_note_us": 122287189,
      "t_trigger_us": 122151226,
      "is_ai": false,
      "track_id": 0,
      "velocity": 0,
      "is_motor": true,
      "motor_id": 0,
      "accel_val": 2000,
      "base_duration_us": 254236
    },
    {
      "id": "M_1130",
      "pitch": 52,
      "t_note_us": 122541425,
      "t_trigger_us": 122405462,
      "is_ai": false,
      "track_id": 0,
      "velocity": 0,
      "is_motor": true,
      "motor_id": 0,
      "accel_val": 2000,
      "base_duration_us": 254235
    },
    {
      "id": "M_1129",
      "pitch": 91,
      "t_note_us": 122542749,
      "t_trigger_us": 122406786,
      "is_ai": true,
      "track_id": 7,
      "velocity": 0,
      "is_motor": false,
      "motor_id": 0,
      "accel_val": 2000,
      "base_duration_us": 127118
    },
    {
      "id": "M_1131",
      "pitch": 78,
      "t_note_us": 122712239,
      "t_trigger_us": 122576276,
      "is_ai": false,
      "track_id": 0,
      "velocity": 0,
      "is_motor": true,
      "motor_id": 2,
      "accel_val": 2000,
      "base_duration_us": 127117
    },
    {
      "id": "M_1133",
      "pitch": 67,
      "t_note_us": 122795660,
      "t_trigger_us": 122659697,
      "is_ai": false,
      "track_id": 0,
      "velocity": 0,
      "is_motor": true,
      "motor_id": 1,
      "accel_val": 2000,
      "base_duration_us": 254234
    },
    {
      "id": "M_1134",
      "pitch": 64,
      "t_note_us": 122795660,
      "t_trigger_us": 122659697,
      "is_ai": false,
      "track_id": 0,
      "velocity": 0,
      "is_motor": true,
      "motor_id": 0,
      "accel_val": 2000,
      "base_duration_us": 254234
    },
    {
      "id": "M_1132",
      "pitch": 91,
      "t_note_us": 122883052,
      "t_trigger_us": 122747089,
      "is_ai": true,
      "track_id": 7,
      "velocity": 0,
      "is_motor": false,
      "motor_id": 0,
      "accel_val": 2000,
      "base_duration_us": 127118
    },
    {
      "id": "M_1135",
      "pitch": 59,
      "t_note_us": 123049894,
      "t_trigger_us": 122913931,
      "is_ai": false,
      "track_id": 0,
      "velocity": 0,
      "is_motor": true,
      "motor_id": 0,
      "accel_val": 2000,
      "base_duration_us": 127118
    },
    {
      "id": "M_1136",
      "pitch": 93,
      "t_note_us": 123052542,
      "t_trigger_us": 122916579,
      "is_ai": true,
      "track_id": 8,
      "velocity": 0,
      "is_motor": false,
      "motor_id": 0,
      "accel_val": 2000,
      "base_duration_us": 127118
    },
    {
      "id": "M_1137",
      "pitch": 67,
      "t_note_us": 123219384,
      "t_trigger_us": 123083421,
      "is_ai": false,
      "track_id": 0,
      "velocity": 0,
      "is_motor": true,
      "motor_id": 1,
      "accel_val": 2000,
      "base_duration_us": 127117
    },
    {
      "id": "M_1138",
      "pitch": 91,
      "t_note_us": 123222032,
      "t_trigger_us": 123086069,
      "is_ai": true,
      "track_id": 7,
      "velocity": 0,
      "is_motor": false,
      "motor_id": 0,
      "accel_val": 2000,
      "base_duration_us": 127117
    },
    {
      "id": "M_1140",
      "pitch": 52,
      "t_note_us": 123304129,
      "t_trigger_us": 123168166,
      "is_ai": false,
      "track_id": 0,
      "velocity": 0,
      "is_motor": true,
      "motor_id": 0,
      "accel_val": 2000,
      "base_duration_us": 254234
    },
    {
      "id": "M_1139",
      "pitch": 93,
      "t_note_us": 123392845,
      "t_trigger_us": 123256882,
      "is_ai": true,
      "track_id": 8,
      "velocity": 0,
      "is_motor": false,
      "motor_id": 0,
      "accel_val": 2000,
      "base_duration_us": 127118
    },
    {
      "id": "M_1142",
      "pitch": 55,
      "t_note_us": 123558363,
      "t_trigger_us": 123422400,
      "is_ai": false,
      "track_id": 0,
      "velocity": 0,
      "is_motor": true,
      "motor_id": 0,
      "accel_val": 2000,
      "base_duration_us": 254235
    },
    {
      "id": "M_1141",
      "pitch": 95,
      "t_note_us": 123562335,
      "t_trigger_us": 123426372,
      "is_ai": true,
      "track_id": 9,
      "velocity": 0,
      "is_motor": false,
      "motor_id": 0,
      "accel_val": 2000,
      "base_duration_us": 127118
    },
    {
      "id": "M_1143",
      "pitch": 93,
      "t_note_us": 123731825,
      "t_trigger_us": 123595862,
      "is_ai": true,
      "track_id": 8,
      "velocity": 0,
      "is_motor": false,
      "motor_id": 0,
      "accel_val": 2000,
      "base_duration_us": 127118
    },
    {
      "id": "M_1144",
      "pitch": 65,
      "t_note_us": 123812598,
      "t_trigger_us": 123676635,
      "is_ai": false,
      "track_id": 0,
      "velocity": 0,
      "is_motor": true,
      "motor_id": 1,
      "accel_val": 2000,
      "base_duration_us": 127117
    },
    {
      "id": "M_1145",
      "pitch": 71,
      "t_note_us": 123812598,
      "t_trigger_us": 123676635,
      "is_ai": false,
      "track_id": 0,
      "velocity": 0,
      "is_motor": true,
      "motor_id": 2,
      "accel_val": 2000,
      "base_duration_us": 127117
    },
    {
      "id": "M_1146",
      "pitch": 95,
      "t_note_us": 123902639,
      "t_trigger_us": 123766676,
      "is_ai": true,
      "track_id": 9,
      "velocity": 0,
      "is_motor": false,
      "motor_id": 0,
      "accel_val": 2000,
      "base_duration_us": 127117
    },
    {
      "id": "M_1147",
      "pitch": 62,
      "t_note_us": 123982087,
      "t_trigger_us": 123846124,
      "is_ai": false,
      "track_id": 0,
      "velocity": 0,
      "is_motor": true,
      "motor_id": 1,
      "accel_val": 2000,
      "base_duration_us": 127117
    },
    {
      "id": "M_1148",
      "pitch": 55,
      "t_note_us": 124066832,
      "t_trigger_us": 123930869,
      "is_ai": false,
      "track_id": 0,
      "velocity": 0,
      "is_motor": true,
      "motor_id": 0,
      "accel_val": 2000,
      "base_duration_us": 254236
    },
    {
      "id": "M_1151",
      "pitch": 96,
      "t_note_us": 124072128,
      "t_trigger_us": 123936165,
      "is_ai": true,
      "track_id": 10,
      "velocity": 0,
      "is_motor": false,
      "motor_id": 0,
      "accel_val": 2000,
      "base_duration_us": 508473
    },
    {
      "id": "M_1149",
      "pitch": 71,
      "t_note_us": 124321068,
      "t_trigger_us": 124185105,
      "is_ai": false,
      "track_id": 0,
      "velocity": 0,
      "is_motor": true,
      "motor_id": 1,
      "accel_val": 2000,
      "base_duration_us": 254237
    },
    {
      "id": "M_1150",
      "pitch": 65,
      "t_note_us": 124321068,
      "t_trigger_us": 124185105,
      "is_ai": false,
      "track_id": 0,
      "velocity": 0,
      "is_motor": true,
      "motor_id": 0,
      "accel_val": 2000,
      "base_duration_us": 254237
    },
    {
      "id": "M_1152",
      "pitch": 64,
      "t_note_us": 124575305,
      "t_trigger_us": 124439342,
      "is_ai": false,
      "track_id": 0,
      "velocity": 0,
      "is_motor": true,
      "motor_id": 1,
      "accel_val": 2000,
      "base_duration_us": 127117
    },
    {
      "id": "M_1153",
      "pitch": 71,
      "t_note_us": 124744794,
      "t_trigger_us": 124608831,
      "is_ai": false,
      "track_id": 0,
      "velocity": 0,
      "is_motor": true,
      "motor_id": 1,
      "accel_val": 2000,
      "base_duration_us": 127117
    },
    {
      "id": "M_1154",
      "pitch": 71,
      "t_note_us": 124829539,
      "t_trigger_us": 124693576,
      "is_ai": false,
      "track_id": 0,
      "velocity": 0,
      "is_motor": true,
      "motor_id": 2,
      "accel_val": 2000,
      "base_duration_us": 127117
    },
    {
      "id": "M_1155",
      "pitch": 91,
      "t_note_us": 124834835,
      "t_trigger_us": 124698872,
      "is_ai": true,
      "track_id": 7,
      "velocity": 0,
      "is_motor": false,
      "motor_id": 0,
      "accel_val": 2000,
      "base_duration_us": 254235
    },
    {
      "id": "M_1156",
      "pitch": 76,
      "t_note_us": 124999028,
      "t_trigger_us": 124863065,
      "is_ai": false,
      "track_id": 0,
      "velocity": 0,
      "is_motor": true,
      "motor_id": 2,
      "accel_val": 2000,
      "base_duration_us": 127118
    },
    {
      "id": "M_1157",
      "pitch": 95,
      "t_note_us": 125089070,
      "t_trigger_us": 124953107,
      "is_ai": true,
      "track_id": 9,
      "velocity": 0,
      "is_motor": false,
      "motor_id": 0,
      "accel_val": 2000,
      "base_duration_us": 254235
    },
    {
      "id": "M_1158",
      "pitch": 76,
      "t_note_us": 125253264,
      "t_trigger_us": 125117301,
      "is_ai": false,
      "track_id": 0,
      "velocity": 0,
      "is_motor": true,
      "motor_id": 2,
      "accel_val": 2000,
      "base_duration_us": 127117
    },
    {
      "id": "M_1160",
      "pitch": 67,
      "t_note_us": 125338009,
      "t_trigger_us": 125202046,
      "is_ai": false,
      "track_id": 0,
      "velocity": 0,
      "is_motor": true,
      "motor_id": 1,
      "accel_val": 2000,
      "base_duration_us": 254235
    },
    {
      "id": "M_1159",
      "pitch": 95,
      "t_note_us": 125343305,
      "t_trigger_us": 125207342,
      "is_ai": true,
      "track_id": 9,
      "velocity": 0,
      "is_motor": false,
      "motor_id": 0,
      "accel_val": 2000,
      "base_duration_us": 127118
    },
    {
      "id": "M_1162",
      "pitch": 93,
      "t_note_us": 125512795,
      "t_trigger_us": 125376832,
      "is_ai": true,
      "track_id": 8,
      "velocity": 0,
      "is_motor": false,
      "motor_id": 0,
      "accel_val": 2000,
      "base_duration_us": 254235
    },
    {
      "id": "M_1161",
      "pitch": 66,
      "t_note_us": 125592244,
      "t_trigger_us": 125456281,
      "is_ai": false,
      "track_id": 0,
      "velocity": 0,
      "is_motor": true,
      "motor_id": 1,
      "accel_val": 2000,
      "base_duration_us": 127118
    },
    {
      "id": "M_1163",
      "pitch": 71,
      "t_note_us": 125761734,
      "t_trigger_us": 125625771,
      "is_ai": false,
      "track_id": 0,
      "velocity": 0,
      "is_motor": true,
      "motor_id": 1,
      "accel_val": 2000,
      "base_duration_us": 127117
    },
    {
      "id": "M_1165",
      "pitch": 69,
      "t_note_us": 125846479,
      "t_trigger_us": 125710516,
      "is_ai": false,
      "track_id": 0,
      "velocity": 0,
      "is_motor": true,
      "motor_id": 2,
      "accel_val": 2000,
      "base_duration_us": 127117
    },
    {
      "id": "M_1164",
      "pitch": 93,
      "t_note_us": 125851775,
      "t_trigger_us": 125715812,
      "is_ai": true,
      "track_id": 8,
      "velocity": 0,
      "is_motor": false,
      "motor_id": 0,
      "accel_val": 2000,
      "base_duration_us": 42372
    },
    {
      "id": "M_1166",
      "pitch": 75,
      "t_note_us": 126015968,
      "t_trigger_us": 125880005,
      "is_ai": false,
      "track_id": 0,
      "velocity": 0,
      "is_motor": true,
      "motor_id": 2,
      "accel_val": 2000,
      "base_duration_us": 127118
    },
    {
      "id": "M_1167",
      "pitch": 95,
      "t_note_us": 126106010,
      "t_trigger_us": 125970047,
      "is_ai": true,
      "track_id": 9,
      "velocity": 0,
      "is_motor": false,
      "motor_id": 0,
      "accel_val": 2000,
      "base_duration_us": 254235
    },
    {
      "id": "M_1168",
      "pitch": 75,
      "t_note_us": 126270204,
      "t_trigger_us": 126134241,
      "is_ai": false,
      "track_id": 0,
      "velocity": 0,
      "is_motor": true,
      "motor_id": 2,
      "accel_val": 2000,
      "base_duration_us": 127117
    },
    {
      "id": "M_1169",
      "pitch": 78,
      "t_note_us": 126354949,
      "t_trigger_us": 126218986,
      "is_ai": false,
      "track_id": 0,
      "velocity": 0,
      "is_motor": true,
      "motor_id": 3,
      "accel_val": 2000,
      "base_duration_us": 254236
    },
    {
      "id": "M_1170",
      "pitch": 93,
      "t_note_us": 126360245,
      "t_trigger_us": 126224282,
      "is_ai": true,
      "track_id": 8,
      "velocity": 0,
      "is_motor": false,
      "motor_id": 0,
      "accel_val": 2000,
      "base_duration_us": 254236
    },
    {
      "id": "M_1171",
      "pitch": 64,
      "t_note_us": 126609185,
      "t_trigger_us": 126473222,
      "is_ai": false,
      "track_id": 0,
      "velocity": 0,
      "is_motor": true,
      "motor_id": 1,
      "accel_val": 2000,
      "base_duration_us": 127117
    },
    {
      "id": "M_1172",
      "pitch": 91,
      "t_note_us": 126614481,
      "t_trigger_us": 126478518,
      "is_ai": true,
      "track_id": 7,
      "velocity": 0,
      "is_motor": false,
      "motor_id": 0,
      "accel_val": 2000,
      "base_duration_us": 254234
    },
    {
      "id": "M_1173",
      "pitch": 71,
      "t_note_us": 126778674,
      "t_trigger_us": 126642711,
      "is_ai": false,
      "track_id": 0,
      "velocity": 0,
      "is_motor": true,
      "motor_id": 1,
      "accel_val": 2000,
      "base_duration_us": 127117
    },
    {
      "id": "M_1174",
      "pitch": 86,
      "t_note_us": 126863419,
      "t_trigger_us": 126727456,
      "is_ai": true,
      "track_id": 4,
      "velocity": 0,
      "is_motor": false,
      "motor_id": 0,
      "accel_val": 2000,
      "base_duration_us": 127117
    },
    {
      "id": "M_1175",
      "pitch": 74,
      "t_note_us": 127032908,
      "t_trigger_us": 126896945,
      "is_ai": false,
      "track_id": 0,
      "velocity": 0,
      "is_motor": true,
      "motor_id": 1,
      "accel_val": 2000,
      "base_duration_us": 127118
    },
    {
      "id": "M_1176",
      "pitch": 100,
      "t_note_us": 127122950,
      "t_trigger_us": 126986987,
      "is_ai": true,
      "track_id": 12,
      "velocity": 0,
      "is_motor": false,
      "motor_id": 0,
      "accel_val": 2000,
      "base_duration_us": 254235
    },
    {
      "id": "M_1177",
      "pitch": 67,
      "t_note_us": 127287144,
      "t_trigger_us": 127151181,
      "is_ai": false,
      "track_id": 0,
      "velocity": 0,
      "is_motor": true,
      "motor_id": 1,
      "accel_val": 2000,
      "base_duration_us": 127117
    },
    {
      "id": "M_1178",
      "pitch": 71,
      "t_note_us": 127371889,
      "t_trigger_us": 127235926,
      "is_ai": false,
      "track_id": 0,
      "velocity": 0,
      "is_motor": true,
      "motor_id": 2,
      "accel_val": 2000,
      "base_duration_us": 254236
    },
    {
      "id": "M_1179",
      "pitch": 98,
      "t_note_us": 127377185,
      "t_trigger_us": 127241222,
      "is_ai": true,
      "track_id": 11,
      "velocity": 0,
      "is_motor": false,
      "motor_id": 0,
      "accel_val": 2000,
      "base_duration_us": 254236
    },
    {
      "id": "M_1180",
      "pitch": 67,
      "t_note_us": 127626125,
      "t_trigger_us": 127490162,
      "is_ai": false,
      "track_id": 0,
      "velocity": 0,
      "is_motor": true,
      "motor_id": 1,
      "accel_val": 2000,
      "base_duration_us": 127117
    },
    {
      "id": "M_1181",
      "pitch": 98,
      "t_note_us": 127631421,
      "t_trigger_us": 127495458,
      "is_ai": true,
      "track_id": 11,
      "velocity": 0,
      "is_motor": false,
      "motor_id": 0,
      "accel_val": 2000,
      "base_duration_us": 254234
    },
    {
      "id": "M_1182",
      "pitch": 71,
      "t_note_us": 127795614,
      "t_trigger_us": 127659651,
      "is_ai": false,
      "track_id": 0,
      "velocity": 0,
      "is_motor": true,
      "motor_id": 1,
      "accel_val": 2000,
      "base_duration_us": 127117
    },
    {
      "id": "M_1183",
      "pitch": 71,
      "t_note_us": 127880359,
      "t_trigger_us": 127744396,
      "is_ai": false,
      "track_id": 0,
      "velocity": 0,
      "is_motor": true,
      "motor_id": 2,
      "accel_val": 2000,
      "base_duration_us": 127117
    },
    {
      "id": "M_1184",
      "pitch": 77,
      "t_note_us": 128049848,
      "t_trigger_us": 127913885,
      "is_ai": false,
      "track_id": 0,
      "velocity": 0,
      "is_motor": true,
      "motor_id": 2,
      "accel_val": 2000,
      "base_duration_us": 127118
    },
    {
      "id": "M_1185",
      "pitch": 93,
      "t_note_us": 128139890,
      "t_trigger_us": 128003927,
      "is_ai": true,
      "track_id": 8,
      "velocity": 0,
      "is_motor": false,
      "motor_id": 0,
      "accel_val": 2000,
      "base_duration_us": 254235
    },
    {
      "id": "M_1186",
      "pitch": 77,
      "t_note_us": 128304084,
      "t_trigger_us": 128168121,
      "is_ai": false,
      "track_id": 0,
      "velocity": 0,
      "is_motor": true,
      "motor_id": 2,
      "accel_val": 2000,
      "base_duration_us": 127117
    },
    {
      "id": "M_1187",
      "pitch": 67,
      "t_note_us": 128388829,
      "t_trigger_us": 128252866,
      "is_ai": false,
      "track_id": 0,
      "velocity": 0,
      "is_motor": true,
      "motor_id": 1,
      "accel_val": 2000,
      "base_duration_us": 254236
    },
    {
      "id": "M_1188",
      "pitch": 95,
      "t_note_us": 128394125,
      "t_trigger_us": 128258162,
      "is_ai": true,
      "track_id": 9,
      "velocity": 0,
      "is_motor": false,
      "motor_id": 0,
      "accel_val": 2000,
      "base_duration_us": 254236
    },
    {
      "id": "M_1189",
      "pitch": 64,
      "t_note_us": 128643065,
      "t_trigger_us": 128507102,
      "is_ai": false,
      "track_id": 0,
      "velocity": 0,
      "is_motor": true,
      "motor_id": 1,
      "accel_val": 2000,
      "base_duration_us": 127117
    },
    {
      "id": "M_1190",
      "pitch": 91,
      "t_note_us": 128648361,
      "t_trigger_us": 128512398,
      "is_ai": true,
      "track_id": 7,
      "velocity": 0,
      "is_motor": false,
      "motor_id": 0,
      "accel_val": 2000,
      "base_duration_us": 254234
    },
    {
      "id": "M_1191",
      "pitch": 71,
      "t_note_us": 128812554,
      "t_trigger_us": 128676591,
      "is_ai": false,
      "track_id": 0,
      "velocity": 0,
      "is_motor": true,
      "motor_id": 1,
      "accel_val": 2000,
      "base_duration_us": 127117
    },
    {
      "id": "M_1192",
      "pitch": 71,
      "t_note_us": 128897299,
      "t_trigger_us": 128761336,
      "is_ai": false,
      "track_id": 0,
      "velocity": 0,
      "is_motor": true,
      "motor_id": 2,
      "accel_val": 2000,
      "base_duration_us": 127117
    },
    {
      "id": "M_1193",
      "pitch": 76,
      "t_note_us": 129066788,
      "t_trigger_us": 128930825,
      "is_ai": false,
      "track_id": 0,
      "velocity": 0,
      "is_motor": true,
      "motor_id": 2,
      "accel_val": 2000,
      "base_duration_us": 127118
    },
    {
      "id": "M_1194",
      "pitch": 76,
      "t_note_us": 129321024,
      "t_trigger_us": 129185061,
      "is_ai": false,
      "track_id": 0,
      "velocity": 0,
      "is_motor": true,
      "motor_id": 2,
      "accel_val": 2000,
      "base_duration_us": 127117
    },
    {
      "id": "M_1195",
      "pitch": 67,
      "t_note_us": 129405769,
      "t_trigger_us": 129269806,
      "is_ai": false,
      "track_id": 0,
      "velocity": 0,
      "is_motor": true,
      "motor_id": 1,
      "accel_val": 2000,
      "base_duration_us": 254236
    },
    {
      "id": "M_1196",
      "pitch": 66,
      "t_note_us": 129660005,
      "t_trigger_us": 129524042,
      "is_ai": false,
      "track_id": 0,
      "velocity": 0,
      "is_motor": true,
      "motor_id": 1,
      "accel_val": 2000,
      "base_duration_us": 127118
    },
    {
      "id": "M_1197",
      "pitch": 71,
      "t_note_us": 129829495,
      "t_trigger_us": 129693532,
      "is_ai": false,
      "track_id": 0,
      "velocity": 0,
      "is_motor": true,
      "motor_id": 1,
      "accel_val": 2000,
      "base_duration_us": 127117
    },
    {
      "id": "M_1198",
      "pitch": 69,
      "t_note_us": 129914240,
      "t_trigger_us": 129778277,
      "is_ai": false,
      "track_id": 0,
      "velocity": 0,
      "is_motor": true,
      "motor_id": 2,
      "accel_val": 2000,
      "base_duration_us": 127117
    },
    {
      "id": "M_1199",
      "pitch": 90,
      "t_note_us": 129919536,
      "t_trigger_us": 129783573,
      "is_ai": true,
      "track_id": 0,
      "velocity": 0,
      "is_motor": true,
      "motor_id": 3,
      "accel_val": 2000,
      "base_duration_us": 254235
    },
    {
      "id": "M_1200",
      "pitch": 75,
      "t_note_us": 130083729,
      "t_trigger_us": 129947766,
      "is_ai": false,
      "track_id": 0,
      "velocity": 0,
      "is_motor": true,
      "motor_id": 2,
      "accel_val": 2000,
      "base_duration_us": 127118
    },
    {
      "id": "M_1201",
      "pitch": 93,
      "t_note_us": 130173771,
      "t_trigger_us": 130037808,
      "is_ai": true,
      "track_id": 8,
      "velocity": 0,
      "is_motor": false,
      "motor_id": 0,
      "accel_val": 2000,
      "base_duration_us": 254235
    },
    {
      "id": "M_1202",
      "pitch": 75,
      "t_note_us": 130337965,
      "t_trigger_us": 130202002,
      "is_ai": false,
      "track_id": 0,
      "velocity": 0,
      "is_motor": true,
      "motor_id": 2,
      "accel_val": 2000,
      "base_duration_us": 127117
    },
    {
      "id": "M_1203",
      "pitch": 78,
      "t_note_us": 130422710,
      "t_trigger_us": 130286747,
      "is_ai": false,
      "track_id": 0,
      "velocity": 0,
      "is_motor": true,
      "motor_id": 3,
      "accel_val": 2000,
      "base_duration_us": 254236
    },
    {
      "id": "M_1204",
      "pitch": 90,
      "t_note_us": 130428006,
      "t_trigger_us": 130292043,
      "is_ai": true,
      "track_id": 0,
      "velocity": 0,
      "is_motor": true,
      "motor_id": 1,
      "accel_val": 2000,
      "base_duration_us": 254236
    },
    {
      "id": "M_1205",
      "pitch": 64,
      "t_note_us": 130676946,
      "t_trigger_us": 130540983,
      "is_ai": false,
      "track_id": 0,
      "velocity": 0,
      "is_motor": true,
      "motor_id": 0,
      "accel_val": 2000,
      "base_duration_us": 127117
    },
    {
      "id": "M_1208",
      "pitch": 91,
      "t_note_us": 130682242,
      "t_trigger_us": 130546279,
      "is_ai": true,
      "track_id": 7,
      "velocity": 0,
      "is_motor": false,
      "motor_id": 0,
      "accel_val": 2000,
      "base_duration_us": 508469
    },
    {
      "id": "M_1206",
      "pitch": 71,
      "t_note_us": 130846435,
      "t_trigger_us": 130710472,
      "is_ai": false,
      "track_id": 0,
      "velocity": 0,
      "is_motor": true,
      "motor_id": 1,
      "accel_val": 2000,
      "base_duration_us": 127117
    },
    {
      "id": "M_1207",
      "pitch": 74,
      "t_note_us": 130931180,
      "t_trigger_us": 130795217,
      "is_ai": false,
      "track_id": 0,
      "velocity": 0,
      "is_motor": true,
      "motor_id": 0,
      "accel_val": 2000,
      "base_duration_us": 127117
    },
    {
      "id": "M_1209",
      "pitch": 69,
      "t_note_us": 131100669,
      "t_trigger_us": 130964706,
      "is_ai": false,
      "track_id": 0,
      "velocity": 0,
      "is_motor": true,
      "motor_id": 1,
      "accel_val": 2000,
      "base_duration_us": 127118
    },
    {
      "id": "M_1212",
      "pitch": 86,
      "t_note_us": 131190711,
      "t_trigger_us": 131054748,
      "is_ai": true,
      "track_id": 4,
      "velocity": 0,
      "is_motor": false,
      "motor_id": 0,
      "accel_val": 2000,
      "base_duration_us": 508471
    },
    {
      "id": "M_1210",
      "pitch": 71,
      "t_note_us": 131354905,
      "t_trigger_us": 131218942,
      "is_ai": false,
      "track_id": 0,
      "velocity": 0,
      "is_motor": true,
      "motor_id": 1,
      "accel_val": 2000,
      "base_duration_us": 127117
    },
    {
      "id": "M_1211",
      "pitch": 74,
      "t_note_us": 131439650,
      "t_trigger_us": 131303687,
      "is_ai": false,
      "track_id": 0,
      "velocity": 0,
      "is_motor": true,
      "motor_id": 0,
      "accel_val": 2000,
      "base_duration_us": 254236
    },
    {
      "id": "M_1213",
      "pitch": 67,
      "t_note_us": 131693886,
      "t_trigger_us": 131557923,
      "is_ai": false,
      "track_id": 0,
      "velocity": 0,
      "is_motor": true,
      "motor_id": 1,
      "accel_val": 2000,
      "base_duration_us": 127117
    },
    {
      "id": "M_1216",
      "pitch": 72,
      "t_note_us": 131699182,
      "t_trigger_us": 131563219,
      "is_ai": false,
      "track_id": 0,
      "velocity": 0,
      "is_motor": true,
      "motor_id": 0,
      "accel_val": 2000,
      "base_duration_us": 508469
    },
    {
      "id": "M_1214",
      "pitch": 71,
      "t_note_us": 131863375,
      "t_trigger_us": 131727412,
      "is_ai": false,
      "track_id": 0,
      "velocity": 0,
      "is_motor": true,
      "motor_id": 1,
      "accel_val": 2000,
      "base_duration_us": 127117
    },
    {
      "id": "M_1215",
      "pitch": 77,
      "t_note_us": 131948120,
      "t_trigger_us": 131812157,
      "is_ai": false,
      "track_id": 0,
      "velocity": 0,
      "is_motor": true,
      "motor_id": 2,
      "accel_val": 2000,
      "base_duration_us": 127117
    },
    {
      "id": "M_1217",
      "pitch": 67,
      "t_note_us": 132117609,
      "t_trigger_us": 131981646,
      "is_ai": false,
      "track_id": 0,
      "velocity": 0,
      "is_motor": true,
      "motor_id": 1,
      "accel_val": 2000,
      "base_duration_us": 127118
    },
    {
      "id": "M_1220",
      "pitch": 71,
      "t_note_us": 132207651,
      "t_trigger_us": 132071688,
      "is_ai": false,
      "track_id": 0,
      "velocity": 0,
      "is_motor": true,
      "motor_id": 2,
      "accel_val": 2000,
      "base_duration_us": 508471
    },
    {
      "id": "M_1218",
      "pitch": 74,
      "t_note_us": 132371845,
      "t_trigger_us": 132235882,
      "is_ai": false,
      "track_id": 0,
      "velocity": 0,
      "is_motor": true,
      "motor_id": 1,
      "accel_val": 2000,
      "base_duration_us": 127117
    },
    {
      "id": "M_1219",
      "pitch": 77,
      "t_note_us": 132456590,
      "t_trigger_us": 132320627,
      "is_ai": false,
      "track_id": 0,
      "velocity": 0,
      "is_motor": true,
      "motor_id": 3,
      "accel_val": 2000,
      "base_duration_us": 254236
    },
    {
      "id": "M_1221",
      "pitch": 64,
      "t_note_us": 132710826,
      "t_trigger_us": 132574863,
      "is_ai": false,
      "track_id": 0,
      "velocity": 0,
      "is_motor": true,
      "motor_id": 1,
      "accel_val": 2000,
      "base_duration_us": 127117
    },
    {
      "id": "M_1222",
      "pitch": 71,
      "t_note_us": 132880315,
      "t_trigger_us": 132744352,
      "is_ai": false,
      "track_id": 0,
      "velocity": 0,
      "is_motor": true,
      "motor_id": 1,
      "accel_val": 2000,
      "base_duration_us": 127117
    },
    {
      "id": "M_1223",
      "pitch": 71,
      "t_note_us": 132965060,
      "t_trigger_us": 132829097,
      "is_ai": false,
      "track_id": 0,
      "velocity": 0,
      "is_motor": true,
      "motor_id": 2,
      "accel_val": 2000,
      "base_duration_us": 127117
    },
    {
      "id": "M_1224",
      "pitch": 88,
      "t_note_us": 132970356,
      "t_trigger_us": 132834393,
      "is_ai": true,
      "track_id": 5,
      "velocity": 0,
      "is_motor": false,
      "motor_id": 0,
      "accel_val": 2000,
      "base_duration_us": 254235
    },
    {
      "id": "M_1225",
      "pitch": 91,
      "t_note_us": 132970356,
      "t_trigger_us": 132834393,
      "is_ai": true,
      "track_id": 7,
      "velocity": 0,
      "is_motor": false,
      "motor_id": 0,
      "accel_val": 2000,
      "base_duration_us": 254235
    },
    {
      "id": "M_1226",
      "pitch": 76,
      "t_note_us": 133134549,
      "t_trigger_us": 132998586,
      "is_ai": false,
      "track_id": 0,
      "velocity": 0,
      "is_motor": true,
      "motor_id": 2,
      "accel_val": 2000,
      "base_duration_us": 127118
    },
    {
      "id": "M_1227",
      "pitch": 88,
      "t_note_us": 133224591,
      "t_trigger_us": 133088628,
      "is_ai": true,
      "track_id": 5,
      "velocity": 0,
      "is_motor": false,
      "motor_id": 0,
      "accel_val": 2000,
      "base_duration_us": 254235
    },
    {
      "id": "M_1228",
      "pitch": 95,
      "t_note_us": 133224591,
      "t_trigger_us": 133088628,
      "is_ai": true,
      "track_id": 9,
      "velocity": 0,
      "is_motor": false,
      "motor_id": 0,
      "accel_val": 2000,
      "base_duration_us": 254235
    },
    {
      "id": "M_1229",
      "pitch": 76,
      "t_note_us": 133388785,
      "t_trigger_us": 133252822,
      "is_ai": false,
      "track_id": 0,
      "velocity": 0,
      "is_motor": true,
      "motor_id": 2,
      "accel_val": 2000,
      "base_duration_us": 127117
    },
    {
      "id": "M_1232",
      "pitch": 67,
      "t_note_us": 133473530,
      "t_trigger_us": 133337567,
      "is_ai": false,
      "track_id": 0,
      "velocity": 0,
      "is_motor": true,
      "motor_id": 1,
      "accel_val": 2000,
      "base_duration_us": 254235
    },
    {
      "id": "M_1230",
      "pitch": 88,
      "t_note_us": 133478826,
      "t_trigger_us": 133342863,
      "is_ai": true,
      "track_id": 5,
      "velocity": 0,
      "is_motor": false,
      "motor_id": 0,
      "accel_val": 2000,
      "base_duration_us": 127118
    },
    {
      "id": "M_1231",
      "pitch": 95,
      "t_note_us": 133478826,
      "t_trigger_us": 133342863,
      "is_ai": true,
      "track_id": 9,
      "velocity": 0,
      "is_motor": false,
      "motor_id": 0,
      "accel_val": 2000,
      "base_duration_us": 127118
    },
    {
      "id": "M_1234",
      "pitch": 90,
      "t_note_us": 133648316,
      "t_trigger_us": 133512353,
      "is_ai": true,
      "track_id": 0,
      "velocity": 0,
      "is_motor": true,
      "motor_id": 3,
      "accel_val": 2000,
      "base_duration_us": 254235
    },
    {
      "id": "M_1235",
      "pitch": 93,
      "t_note_us": 133648316,
      "t_trigger_us": 133512353,
      "is_ai": true,
      "track_id": 8,
      "velocity": 0,
      "is_motor": false,
      "motor_id": 0,
      "accel_val": 2000,
      "base_duration_us": 254235
    },
    {
      "id": "M_1233",
      "pitch": 66,
      "t_note_us": 133727765,
      "t_trigger_us": 133591802,
      "is_ai": false,
      "track_id": 0,
      "velocity": 0,
      "is_motor": true,
      "motor_id": 1,
      "accel_val": 2000,
      "base_duration_us": 127118
    },
    {
      "id": "M_1236",
      "pitch": 71,
      "t_note_us": 133897255,
      "t_trigger_us": 133761292,
      "is_ai": false,
      "track_id": 0,
      "velocity": 0,
      "is_motor": true,
      "motor_id": 1,
      "accel_val": 2000,
      "base_duration_us": 127117
    },
    {
      "id": "M_1239",
      "pitch": 69,
      "t_note_us": 133982000,
      "t_trigger_us": 133846037,
      "is_ai": false,
      "track_id": 0,
      "velocity": 0,
      "is_motor": true,
      "motor_id": 2,
      "accel_val": 2000,
      "base_duration_us": 127117
    },
    {
      "id": "M_1238",
      "pitch": 93,
      "t_note_us": 133987296,
      "t_trigger_us": 133851333,
      "is_ai": true,
      "track_id": 8,
      "velocity": 0,
      "is_motor": false,
      "motor_id": 0,
      "accel_val": 2000,
      "base_duration_us": 42372
    },
    {
      "id": "M_1237",
      "pitch": 78,
      "t_note_us": 133987296,
      "t_trigger_us": 133851333,
      "is_ai": false,
      "track_id": 0,
      "velocity": 0,
      "is_motor": true,
      "motor_id": 3,
      "accel_val": 2000,
      "base_duration_us": 42372
    },
    {
      "id": "M_1240",
      "pitch": 75,
      "t_note_us": 134151489,
      "t_trigger_us": 134015526,
      "is_ai": false,
      "track_id": 0,
      "velocity": 0,
      "is_motor": true,
      "motor_id": 2,
      "accel_val": 2000,
      "base_duration_us": 127118
    },
    {
      "id": "M_1241",
      "pitch": 90,
      "t_note_us": 134241531,
      "t_trigger_us": 134105568,
      "is_ai": true,
      "track_id": 0,
      "velocity": 0,
      "is_motor": true,
      "motor_id": 3,
      "accel_val": 2000,
      "base_duration_us": 254235
    },
    {
      "id": "M_1242",
      "pitch": 95,
      "t_note_us": 134241531,
      "t_trigger_us": 134105568,
      "is_ai": true,
      "track_id": 9,
      "velocity": 0,
      "is_motor": false,
      "motor_id": 0,
      "accel_val": 2000,
      "base_duration_us": 254235
    },
    {
      "id": "M_1243",
      "pitch": 75,
      "t_note_us": 134405725,
      "t_trigger_us": 134269762,
      "is_ai": false,
      "track_id": 0,
      "velocity": 0,
      "is_motor": true,
      "motor_id": 2,
      "accel_val": 2000,
      "base_duration_us": 127117
    },
    {
      "id": "M_1244",
      "pitch": 78,
      "t_note_us": 134490470,
      "t_trigger_us": 134354507,
      "is_ai": false,
      "track_id": 0,
      "velocity": 0,
      "is_motor": true,
      "motor_id": 1,
      "accel_val": 2000,
      "base_duration_us": 254236
    },
    {
      "id": "M_1245",
      "pitch": 90,
      "t_note_us": 134495766,
      "t_trigger_us": 134359803,
      "is_ai": true,
      "track_id": 0,
      "velocity": 0,
      "is_motor": true,
      "motor_id": 3,
      "accel_val": 2000,
      "base_duration_us": 254236
    },
    {
      "id": "M_1246",
      "pitch": 93,
      "t_note_us": 134495766,
      "t_trigger_us": 134359803,
      "is_ai": true,
      "track_id": 8,
      "velocity": 0,
      "is_motor": false,
      "motor_id": 0,
      "accel_val": 2000,
      "base_duration_us": 254236
    },
    {
      "id": "M_1247",
      "pitch": 64,
      "t_note_us": 134744706,
      "t_trigger_us": 134608743,
      "is_ai": false,
      "track_id": 0,
      "velocity": 0,
      "is_motor": true,
      "motor_id": 1,
      "accel_val": 2000,
      "base_duration_us": 127117
    },
    {
      "id": "M_1248",
      "pitch": 88,
      "t_note_us": 134750002,
      "t_trigger_us": 134614039,
      "is_ai": true,
      "track_id": 5,
      "velocity": 0,
      "is_motor": false,
      "motor_id": 0,
      "accel_val": 2000,
      "base_duration_us": 254234
    },
    {
      "id": "M_1249",
      "pitch": 91,
      "t_note_us": 134750002,
      "t_trigger_us": 134614039,
      "is_ai": true,
      "track_id": 7,
      "velocity": 0,
      "is_motor": false,
      "motor_id": 0,
      "accel_val": 2000,
      "base_duration_us": 254234
    },
    {
      "id": "M_1250",
      "pitch": 71,
      "t_note_us": 134914195,
      "t_trigger_us": 134778232,
      "is_ai": false,
      "track_id": 0,
      "velocity": 0,
      "is_motor": true,
      "motor_id": 1,
      "accel_val": 2000,
      "base_duration_us": 127117
    },
    {
      "id": "M_1251",
      "pitch": 74,
      "t_note_us": 134998940,
      "t_trigger_us": 134862977,
      "is_ai": false,
      "track_id": 0,
      "velocity": 0,
      "is_motor": true,
      "motor_id": 0,
      "accel_val": 2000,
      "base_duration_us": 127117
    },
    {
      "id": "M_1252",
      "pitch": 74,
      "t_note_us": 135168429,
      "t_trigger_us": 135032466,
      "is_ai": false,
      "track_id": 0,
      "velocity": 0,
      "is_motor": true,
      "motor_id": 1,
      "accel_val": 2000,
      "base_duration_us": 127118
    },
    {
      "id": "M_1253",
      "pitch": 91,
      "t_note_us": 135258471,
      "t_trigger_us": 135122508,
      "is_ai": true,
      "track_id": 7,
      "velocity": 0,
      "is_motor": false,
      "motor_id": 0,
      "accel_val": 2000,
      "base_duration_us": 254235
    },
    {
      "id": "M_1254",
      "pitch": 100,
      "t_note_us": 135258471,
      "t_trigger_us": 135122508,
      "is_ai": true,
      "track_id": 12,
      "velocity": 0,
      "is_motor": false,
      "motor_id": 0,
      "accel_val": 2000,
      "base_duration_us": 254235
    },
    {
      "id": "M_1255",
      "pitch": 67,
      "t_note_us": 135422665,
      "t_trigger_us": 135286702,
      "is_ai": false,
      "track_id": 0,
      "velocity": 0,
      "is_motor": true,
      "motor_id": 1,
      "accel_val": 2000,
      "base_duration_us": 127117
    },
    {
      "id": "M_1256",
      "pitch": 71,
      "t_note_us": 135507410,
      "t_trigger_us": 135371447,
      "is_ai": false,
      "track_id": 0,
      "velocity": 0,
      "is_motor": true,
      "motor_id": 2,
      "accel_val": 2000,
      "base_duration_us": 254236
    },
    {
      "id": "M_1257",
      "pitch": 91,
      "t_note_us": 135512706,
      "t_trigger_us": 135376743,
      "is_ai": true,
      "track_id": 7,
      "velocity": 0,
      "is_motor": false,
      "motor_id": 0,
      "accel_val": 2000,
      "base_duration_us": 254236
    },
    {
      "id": "M_1258",
      "pitch": 98,
      "t_note_us": 135512706,
      "t_trigger_us": 135376743,
      "is_ai": true,
      "track_id": 11,
      "velocity": 0,
      "is_motor": false,
      "motor_id": 0,
      "accel_val": 2000,
      "base_duration_us": 254236
    },
    {
      "id": "M_1259",
      "pitch": 67,
      "t_note_us": 135761646,
      "t_trigger_us": 135625683,
      "is_ai": false,
      "track_id": 0,
      "velocity": 0,
      "is_motor": true,
      "motor_id": 1,
      "accel_val": 2000,
      "base_duration_us": 127117
    },
    {
      "id": "M_1260",
      "pitch": 91,
      "t_note_us": 135766942,
      "t_trigger_us": 135630979,
      "is_ai": true,
      "track_id": 7,
      "velocity": 0,
      "is_motor": false,
      "motor_id": 0,
      "accel_val": 2000,
      "base_duration_us": 254234
    },
    {
      "id": "M_1261",
      "pitch": 98,
      "t_note_us": 135766942,
      "t_trigger_us": 135630979,
      "is_ai": true,
      "track_id": 11,
      "velocity": 0,
      "is_motor": false,
      "motor_id": 0,
      "accel_val": 2000,
      "base_duration_us": 254234
    },
    {
      "id": "M_1262",
      "pitch": 71,
      "t_note_us": 135931135,
      "t_trigger_us": 135795172,
      "is_ai": false,
      "track_id": 0,
      "velocity": 0,
      "is_motor": true,
      "motor_id": 1,
      "accel_val": 2000,
      "base_duration_us": 127117
    },
    {
      "id": "M_1263",
      "pitch": 71,
      "t_note_us": 136015880,
      "t_trigger_us": 135879917,
      "is_ai": false,
      "track_id": 0,
      "velocity": 0,
      "is_motor": true,
      "motor_id": 2,
      "accel_val": 2000,
      "base_duration_us": 127117
    },
    {
      "id": "M_1264",
      "pitch": 77,
      "t_note_us": 136185369,
      "t_trigger_us": 136049406,
      "is_ai": false,
      "track_id": 0,
      "velocity": 0,
      "is_motor": true,
      "motor_id": 2,
      "accel_val": 2000,
      "base_duration_us": 127118
    },
    {
      "id": "M_1265",
      "pitch": 91,
      "t_note_us": 136275411,
      "t_trigger_us": 136139448,
      "is_ai": true,
      "track_id": 7,
      "velocity": 0,
      "is_motor": false,
      "motor_id": 0,
      "accel_val": 2000,
      "base_duration_us": 254235
    },
    {
      "id": "M_1266",
      "pitch": 93,
      "t_note_us": 136275411,
      "t_trigger_us": 136139448,
      "is_ai": true,
      "track_id": 8,
      "velocity": 0,
      "is_motor": false,
      "motor_id": 0,
      "accel_val": 2000,
      "base_duration_us": 254235
    },
    {
      "id": "M_1267",
      "pitch": 77,
      "t_note_us": 136439605,
      "t_trigger_us": 136303642,
      "is_ai": false,
      "track_id": 0,
      "velocity": 0,
      "is_motor": true,
      "motor_id": 2,
      "accel_val": 2000,
      "base_duration_us": 127117
    },
    {
      "id": "M_1268",
      "pitch": 67,
      "t_note_us": 136524350,
      "t_trigger_us": 136388387,
      "is_ai": false,
      "track_id": 0,
      "velocity": 0,
      "is_motor": true,
      "motor_id": 1,
      "accel_val": 2000,
      "base_duration_us": 254236
    },
    {
      "id": "M_1269",
      "pitch": 91,
      "t_note_us": 136529646,
      "t_trigger_us": 136393683,
      "is_ai": true,
      "track_id": 7,
      "velocity": 0,
      "is_motor": false,
      "motor_id": 0,
      "accel_val": 2000,
      "base_duration_us": 254236
    },
    {
      "id": "M_1270",
      "pitch": 95,
      "t_note_us": 136529646,
      "t_trigger_us": 136393683,
      "is_ai": true,
      "track_id": 9,
      "velocity": 0,
      "is_motor": false,
      "motor_id": 0,
      "accel_val": 2000,
      "base_duration_us": 254236
    },
    {
      "id": "M_1271",
      "pitch": 64,
      "t_note_us": 136778586,
      "t_trigger_us": 136642623,
      "is_ai": false,
      "track_id": 0,
      "velocity": 0,
      "is_motor": true,
      "motor_id": 1,
      "accel_val": 2000,
      "base_duration_us": 127117
    },
    {
      "id": "M_1272",
      "pitch": 95,
      "t_note_us": 136783882,
      "t_trigger_us": 136647919,
      "is_ai": true,
      "track_id": 9,
      "velocity": 0,
      "is_motor": false,
      "motor_id": 0,
      "accel_val": 2000,
      "base_duration_us": 254234
    },
    {
      "id": "M_1273",
      "pitch": 91,
      "t_note_us": 136783882,
      "t_trigger_us": 136647919,
      "is_ai": true,
      "track_id": 7,
      "velocity": 0,
      "is_motor": false,
      "motor_id": 0,
      "accel_val": 2000,
      "base_duration_us": 254234
    },
    {
      "id": "M_1274",
      "pitch": 71,
      "t_note_us": 136948075,
      "t_trigger_us": 136812112,
      "is_ai": false,
      "track_id": 0,
      "velocity": 0,
      "is_motor": true,
      "motor_id": 1,
      "accel_val": 2000,
      "base_duration_us": 127117
    },
    {
      "id": "M_1275",
      "pitch": 71,
      "t_note_us": 137032820,
      "t_trigger_us": 136896857,
      "is_ai": false,
      "track_id": 0,
      "velocity": 0,
      "is_motor": true,
      "motor_id": 2,
      "accel_val": 2000,
      "base_duration_us": 127117
    },
    {
      "id": "M_1276",
      "pitch": 76,
      "t_note_us": 137202309,
      "t_trigger_us": 137066346,
      "is_ai": false,
      "track_id": 0,
      "velocity": 0,
      "is_motor": true,
      "motor_id": 2,
      "accel_val": 2000,
      "base_duration_us": 127118
    },
    {
      "id": "M_1277",
      "pitch": 76,
      "t_note_us": 137456545,
      "t_trigger_us": 137320582,
      "is_ai": false,
      "track_id": 0,
      "velocity": 0,
      "is_motor": true,
      "motor_id": 2,
      "accel_val": 2000,
      "base_duration_us": 127117
    },
    {
      "id": "M_1278",
      "pitch": 67,
      "t_note_us": 137541290,
      "t_trigger_us": 137405327,
      "is_ai": false,
      "track_id": 0,
      "velocity": 0,
      "is_motor": true,
      "motor_id": 1,
      "accel_val": 2000,
      "base_duration_us": 254236
    },
    {
      "id": "M_1279",
      "pitch": 66,
      "t_note_us": 137795526,
      "t_trigger_us": 137659563,
      "is_ai": false,
      "track_id": 0,
      "velocity": 0,
      "is_motor": true,
      "motor_id": 1,
      "accel_val": 2000,
      "base_duration_us": 127118
    },
    {
      "id": "M_1280",
      "pitch": 71,
      "t_note_us": 137965016,
      "t_trigger_us": 137829053,
      "is_ai": false,
      "track_id": 0,
      "velocity": 0,
      "is_motor": true,
      "motor_id": 1,
      "accel_val": 2000,
      "base_duration_us": 127117
    },
    {
      "id": "M_1281",
      "pitch": 69,
      "t_note_us": 138049761,
      "t_trigger_us": 137913798,
      "is_ai": false,
      "track_id": 0,
      "velocity": 0,
      "is_motor": true,
      "motor_id": 2,
      "accel_val": 2000,
      "base_duration_us": 127117
    },
    {
      "id": "M_1282",
      "pitch": 91,
      "t_note_us": 138055057,
      "t_trigger_us": 137919094,
      "is_ai": true,
      "track_id": 7,
      "velocity": 0,
      "is_motor": false,
      "motor_id": 0,
      "accel_val": 2000,
      "base_duration_us": 254235
    },
    {
      "id": "M_1283",
      "pitch": 75,
      "t_note_us": 138055057,
      "t_trigger_us": 137919094,
      "is_ai": false,
      "track_id": 0,
      "velocity": 0,
      "is_motor": true,
      "motor_id": 3,
      "accel_val": 2000,
      "base_duration_us": 254235
    },
    {
      "id": "M_1284",
      "pitch": 75,
      "t_note_us": 138219250,
      "t_trigger_us": 138083287,
      "is_ai": false,
      "track_id": 0,
      "velocity": 0,
      "is_motor": true,
      "motor_id": 2,
      "accel_val": 2000,
      "base_duration_us": 127118
    },
    {
      "id": "M_1285",
      "pitch": 78,
      "t_note_us": 138309292,
      "t_trigger_us": 138173329,
      "is_ai": false,
      "track_id": 0,
      "velocity": 0,
      "is_motor": true,
      "motor_id": 3,
      "accel_val": 2000,
      "base_duration_us": 254235
    },
    {
      "id": "M_1286",
      "pitch": 75,
      "t_note_us": 138309292,
      "t_trigger_us": 138173329,
      "is_ai": false,
      "track_id": 0,
      "velocity": 0,
      "is_motor": true,
      "motor_id": 1,
      "accel_val": 2000,
      "base_duration_us": 254235
    },
    {
      "id": "M_1287",
      "pitch": 75,
      "t_note_us": 138473486,
      "t_trigger_us": 138337523,
      "is_ai": false,
      "track_id": 0,
      "velocity": 0,
      "is_motor": true,
      "motor_id": 2,
      "accel_val": 2000,
      "base_duration_us": 127117
    },
    {
      "id": "M_1288",
      "pitch": 78,
      "t_note_us": 138558231,
      "t_trigger_us": 138422268,
      "is_ai": false,
      "track_id": 0,
      "velocity": 0,
      "is_motor": true,
      "motor_id": 0,
      "accel_val": 2000,
      "base_duration_us": 254236
    },
    {
      "id": "M_1289",
      "pitch": 91,
      "t_note_us": 138563527,
      "t_trigger_us": 138427564,
      "is_ai": true,
      "track_id": 7,
      "velocity": 0,
      "is_motor": false,
      "motor_id": 0,
      "accel_val": 2000,
      "base_duration_us": 254236
    },
    {
      "id": "M_1290",
      "pitch": 75,
      "t_note_us": 138563527,
      "t_trigger_us": 138427564,
      "is_ai": false,
      "track_id": 0,
      "velocity": 0,
      "is_motor": true,
      "motor_id": 1,
      "accel_val": 2000,
      "base_duration_us": 254236
    },
    {
      "id": "M_1291",
      "pitch": 64,
      "t_note_us": 138812467,
      "t_trigger_us": 138676504,
      "is_ai": false,
      "track_id": 0,
      "velocity": 0,
      "is_motor": true,
      "motor_id": 0,
      "accel_val": 2000,
      "base_duration_us": 127117
    },
    {
      "id": "M_1294",
      "pitch": 88,
      "t_note_us": 138817763,
      "t_trigger_us": 138681800,
      "is_ai": true,
      "track_id": 5,
      "velocity": 0,
      "is_motor": false,
      "motor_id": 0,
      "accel_val": 2000,
      "base_duration_us": 508469
    },
    {
      "id": "M_1295",
      "pitch": 91,
      "t_note_us": 138817763,
      "t_trigger_us": 138681800,
      "is_ai": true,
      "track_id": 7,
      "velocity": 0,
      "is_motor": false,
      "motor_id": 0,
      "accel_val": 2000,
      "base_duration_us": 508469
    },
    {
      "id": "M_1292",
      "pitch": 71,
      "t_note_us": 138981956,
      "t_trigger_us": 138845993,
      "is_ai": false,
      "track_id": 0,
      "velocity": 0,
      "is_motor": true,
      "motor_id": 1,
      "accel_val": 2000,
      "base_duration_us": 127117
    },
    {
      "id": "M_1293",
      "pitch": 74,
      "t_note_us": 139066701,
      "t_trigger_us": 138930738,
      "is_ai": false,
      "track_id": 0,
      "velocity": 0,
      "is_motor": true,
      "motor_id": 0,
      "accel_val": 2000,
      "base_duration_us": 127117
    },
    {
      "id": "M_1296",
      "pitch": 69,
      "t_note_us": 139236190,
      "t_trigger_us": 139100227,
      "is_ai": false,
      "track_id": 0,
      "velocity": 0,
      "is_motor": true,
      "motor_id": 1,
      "accel_val": 2000,
      "base_duration_us": 127118
    },
    {
      "id": "M_1299",
      "pitch": 88,
      "t_note_us": 139326232,
      "t_trigger_us": 139190269,
      "is_ai": true,
      "track_id": 5,
      "velocity": 0,
      "is_motor": false,
      "motor_id": 0,
      "accel_val": 2000,
      "base_duration_us": 381352
    },
    {
      "id": "M_1300",
      "pitch": 93,
      "t_note_us": 139326232,
      "t_trigger_us": 139190269,
      "is_ai": true,
      "track_id": 8,
      "velocity": 0,
      "is_motor": false,
      "motor_id": 0,
      "accel_val": 2000,
      "base_duration_us": 381352
    },
    {
      "id": "M_1297",
      "pitch": 67,
      "t_note_us": 139490426,
      "t_trigger_us": 139354463,
      "is_ai": false,
      "track_id": 0,
      "velocity": 0,
      "is_motor": true,
      "motor_id": 1,
      "accel_val": 2000,
      "base_duration_us": 127117
    },
    {
      "id": "M_1298",
      "pitch": 71,
      "t_note_us": 139575171,
      "t_trigger_us": 139439208,
      "is_ai": false,
      "track_id": 0,
      "velocity": 0,
      "is_motor": true,
      "motor_id": 2,
      "accel_val": 2000,
      "base_duration_us": 127117
    },
    {
      "id": "M_1301",
      "pitch": 74,
      "t_note_us": 139744660,
      "t_trigger_us": 139608697,
      "is_ai": false,
      "track_id": 0,
      "velocity": 0,
      "is_motor": true,
      "motor_id": 1,
      "accel_val": 2000,
      "base_duration_us": 127117
    },
    {
      "id": "M_1302",
      "pitch": 93,
      "t_note_us": 139749956,
      "t_trigger_us": 139613993,
      "is_ai": true,
      "track_id": 8,
      "velocity": 0,
      "is_motor": false,
      "motor_id": 0,
      "accel_val": 2000,
      "base_duration_us": 127117
    },
    {
      "id": "M_1303",
      "pitch": 76,
      "t_note_us": 139749956,
      "t_trigger_us": 139613993,
      "is_ai": false,
      "track_id": 0,
      "velocity": 0,
      "is_motor": true,
      "motor_id": 2,
      "accel_val": 2000,
      "base_duration_us": 127117
    },
    {
      "id": "M_1304",
      "pitch": 67,
      "t_note_us": 139829405,
      "t_trigger_us": 139693442,
      "is_ai": false,
      "track_id": 0,
      "velocity": 0,
      "is_motor": true,
      "motor_id": 0,
      "accel_val": 2000,
      "base_duration_us": 127117
    },
    {
      "id": "M_1307",
      "pitch": 91,
      "t_note_us": 139834701,
      "t_trigger_us": 139698738,
      "is_ai": true,
      "track_id": 7,
      "velocity": 0,
      "is_motor": false,
      "motor_id": 0,
      "accel_val": 2000,
      "base_duration_us": 508468
    },
    {
      "id": "M_1308",
      "pitch": 95,
      "t_note_us": 139834701,
      "t_trigger_us": 139698738,
      "is_ai": true,
      "track_id": 9,
      "velocity": 0,
      "is_motor": false,
      "motor_id": 0,
      "accel_val": 2000,
      "base_duration_us": 508468
    },
    {
      "id": "M_1305",
      "pitch": 71,
      "t_note_us": 139998894,
      "t_trigger_us": 139862931,
      "is_ai": false,
      "track_id": 0,
      "velocity": 0,
      "is_motor": true,
      "motor_id": 1,
      "accel_val": 2000,
      "base_duration_us": 127117
    },
    {
      "id": "M_1306",
      "pitch": 77,
      "t_note_us": 140083639,
      "t_trigger_us": 139947676,
      "is_ai": false,
      "track_id": 0,
      "velocity": 0,
      "is_motor": true,
      "motor_id": 2,
      "accel_val": 2000,
      "base_duration_us": 127117
    },
    {
      "id": "M_1309",
      "pitch": 67,
      "t_note_us": 140253128,
      "t_trigger_us": 140117165,
      "is_ai": false,
      "track_id": 0,
      "velocity": 0,
      "is_motor": true,
      "motor_id": 1,
      "accel_val": 2000,
      "base_duration_us": 127117
    },
    {
      "id": "M_1310",
      "pitch": 77,
      "t_note_us": 140337873,
      "t_trigger_us": 140201910,
      "is_ai": false,
      "track_id": 0,
      "velocity": 0,
      "is_motor": true,
      "motor_id": 2,
      "accel_val": 2000,
      "base_duration_us": 508473
    },
    {
      "id": "M_1311",
      "pitch": 74,
      "t_note_us": 140337873,
      "t_trigger_us": 140201910,
      "is_ai": false,
      "track_id": 0,
      "velocity": 0,
      "is_motor": true,
      "motor_id": 0,
      "accel_val": 2000,
      "base_duration_us": 508473
    },
    {
      "id": "M_1312",
      "pitch": 91,
      "t_note_us": 140343169,
      "t_trigger_us": 140207206,
      "is_ai": true,
      "track_id": 7,
      "velocity": 0,
      "is_motor": false,
      "motor_id": 0,
      "accel_val": 2000,
      "base_duration_us": 508473
    },
    {
      "id": "M_1313",
      "pitch": 96,
      "t_note_us": 140343169,
      "t_trigger_us": 140207206,
      "is_ai": true,
      "track_id": 10,
      "velocity": 0,
      "is_motor": false,
      "motor_id": 0,
      "accel_val": 2000,
      "base_duration_us": 508473
    },
    {
      "id": "M_1324",
      "pitch": 74,
      "t_note_us": 140846346,
      "t_trigger_us": 140710383,
      "is_ai": false,
      "track_id": 0,
      "velocity": 0,
      "is_motor": true,
      "motor_id": 1,
      "accel_val": 2000,
      "base_duration_us": 2033886
    },
    {
      "id": "M_1325",
      "pitch": 71,
      "t_note_us": 140846346,
      "t_trigger_us": 140710383,
      "is_ai": false,
      "track_id": 0,
      "velocity": 0,
      "is_motor": true,
      "motor_id": 2,
      "accel_val": 2000,
      "base_duration_us": 2033886
    },
    {
      "id": "M_1326",
      "pitch": 67,
      "t_note_us": 140846346,
      "t_trigger_us": 140710383,
      "is_ai": false,
      "track_id": 0,
      "velocity": 0,
      "is_motor": true,
      "motor_id": 0,
      "accel_val": 2000,
      "base_duration_us": 2033886
    },
    {
      "id": "M_1327",
      "pitch": 76,
      "t_note_us": 140846346,
      "t_trigger_us": 140710383,
      "is_ai": false,
      "track_id": 0,
      "velocity": 0,
      "is_motor": true,
      "motor_id": 3,
      "accel_val": 2000,
      "base_duration_us": 2033886
    },
    {
      "id": "M_1314",
      "pitch": 98,
      "t_note_us": 140851642,
      "t_trigger_us": 140715679,
      "is_ai": true,
      "track_id": 11,
      "velocity": 0,
      "is_motor": false,
      "motor_id": 0,
      "accel_val": 2000,
      "base_duration_us": 508473
    },
    {
      "id": "M_1315",
      "pitch": 98,
      "t_note_us": 141354819,
      "t_trigger_us": 141218856,
      "is_ai": true,
      "track_id": 11,
      "velocity": 0,
      "is_motor": false,
      "motor_id": 0,
      "accel_val": 2000,
      "base_duration_us": 127117
    },
    {
      "id": "M_1316",
      "pitch": 93,
      "t_note_us": 141360115,
      "t_trigger_us": 141224152,
      "is_ai": true,
      "track_id": 8,
      "velocity": 0,
      "is_motor": false,
      "motor_id": 0,
      "accel_val": 2000,
      "base_duration_us": 254234
    },
    {
      "id": "M_1317",
      "pitch": 103,
      "t_note_us": 141524308,
      "t_trigger_us": 141388345,
      "is_ai": true,
      "track_id": 14,
      "velocity": 0,
      "is_motor": false,
      "motor_id": 0,
      "accel_val": 2000,
      "base_duration_us": 127117
    },
    {
      "id": "M_1318",
      "pitch": 93,
      "t_note_us": 141609053,
      "t_trigger_us": 141473090,
      "is_ai": true,
      "track_id": 8,
      "velocity": 0,
      "is_motor": false,
      "motor_id": 0,
      "accel_val": 2000,
      "base_duration_us": 127117
    },
    {
      "id": "M_1319",
      "pitch": 93,
      "t_note_us": 141614349,
      "t_trigger_us": 141478386,
      "is_ai": true,
      "track_id": 8,
      "velocity": 0,
      "is_motor": false,
      "motor_id": 0,
      "accel_val": 2000,
      "base_duration_us": 127117
    },
    {
      "id": "M_1320",
      "pitch": 103,
      "t_note_us": 141778542,
      "t_trigger_us": 141642579,
      "is_ai": true,
      "track_id": 14,
      "velocity": 0,
      "is_motor": false,
      "motor_id": 0,
      "accel_val": 2000,
      "base_duration_us": 127117
    },
    {
      "id": "M_1321",
      "pitch": 91,
      "t_note_us": 141783838,
      "t_trigger_us": 141647875,
      "is_ai": true,
      "track_id": 7,
      "velocity": 0,
      "is_motor": false,
      "motor_id": 0,
      "accel_val": 2000,
      "base_duration_us": 508473
    },
    {
      "id": "M_1322",
      "pitch": 91,
      "t_note_us": 142292311,
      "t_trigger_us": 142156348,
      "is_ai": true,
      "track_id": 7,
      "velocity": 0,
      "is_motor": false,
      "motor_id": 0,
      "accel_val": 2000,
      "base_duration_us": 127117
    },
    {
      "id": "M_1323",
      "pitch": 86,
      "t_note_us": 142377056,
      "t_trigger_us": 142241093,
      "is_ai": true,
      "track_id": 4,
      "velocity": 0,
      "is_motor": false,
      "motor_id": 0,
      "accel_val": 2000,
      "base_duration_us": 254236
    },
    {
      "id": "M_1328",
      "pitch": 98,
      "t_note_us": 142631292,
      "t_trigger_us": 142495329,
      "is_ai": true,
      "track_id": 11,
      "velocity": 0,
      "is_motor": false,
      "motor_id": 0,
      "accel_val": 2000,
      "base_duration_us": 508473
    },
    {
      "id": "M_1339",
      "pitch": 72,
      "t_note_us": 142880232,
      "t_trigger_us": 142744269,
      "is_ai": false,
      "track_id": 0,
      "velocity": 0,
      "is_motor": true,
      "motor_id": 1,
      "accel_val": 2000,
      "base_duration_us": 2033885
    },
    {
      "id": "M_1340",
      "pitch": 69,
      "t_note_us": 142880232,
      "t_trigger_us": 142744269,
      "is_ai": false,
      "track_id": 0,
      "velocity": 0,
      "is_motor": true,
      "motor_id": 2,
      "accel_val": 2000,
      "base_duration_us": 2033885
    },
    {
      "id": "M_1341",
      "pitch": 78,
      "t_note_us": 142880232,
      "t_trigger_us": 142744269,
      "is_ai": false,
      "track_id": 0,
      "velocity": 0,
      "is_motor": true,
      "motor_id": 3,
      "accel_val": 2000,
      "base_duration_us": 2033885
    },
    {
      "id": "M_1342",
      "pitch": 74,
      "t_note_us": 142880232,
      "t_trigger_us": 142744269,
      "is_ai": false,
      "track_id": 0,
      "velocity": 0,
      "is_motor": true,
      "motor_id": 0,
      "accel_val": 2000,
      "base_duration_us": 2033885
    },
    {
      "id": "M_1329",
      "pitch": 98,
      "t_note_us": 143139765,
      "t_trigger_us": 143003802,
      "is_ai": true,
      "track_id": 11,
      "velocity": 0,
      "is_motor": false,
      "motor_id": 0,
      "accel_val": 2000,
      "base_duration_us": 254236
    },
    {
      "id": "M_1330",
      "pitch": 93,
      "t_note_us": 143388705,
      "t_trigger_us": 143252742,
      "is_ai": true,
      "track_id": 8,
      "velocity": 0,
      "is_motor": false,
      "motor_id": 0,
      "accel_val": 2000,
      "base_duration_us": 127117
    },
    {
      "id": "M_1331",
      "pitch": 93,
      "t_note_us": 143394001,
      "t_trigger_us": 143258038,
      "is_ai": true,
      "track_id": 8,
      "velocity": 0,
      "is_motor": false,
      "motor_id": 0,
      "accel_val": 2000,
      "base_duration_us": 254234
    },
    {
      "id": "M_1332",
      "pitch": 103,
      "t_note_us": 143558194,
      "t_trigger_us": 143422231,
      "is_ai": true,
      "track_id": 14,
      "velocity": 0,
      "is_motor": false,
      "motor_id": 0,
      "accel_val": 2000,
      "base_duration_us": 127117
    },
    {
      "id": "M_1333",
      "pitch": 98,
      "t_note_us": 143642939,
      "t_trigger_us": 143506976,
      "is_ai": true,
      "track_id": 11,
      "velocity": 0,
      "is_motor": false,
      "motor_id": 0,
      "accel_val": 2000,
      "base_duration_us": 127117
    },
    {
      "id": "M_1334",
      "pitch": 93,
      "t_note_us": 143648235,
      "t_trigger_us": 143512272,
      "is_ai": true,
      "track_id": 8,
      "velocity": 0,
      "is_motor": false,
      "motor_id": 0,
      "accel_val": 2000,
      "base_duration_us": 127117
    },
    {
      "id": "M_1335",
      "pitch": 95,
      "t_note_us": 143812428,
      "t_trigger_us": 143676465,
      "is_ai": true,
      "track_id": 9,
      "velocity": 0,
      "is_motor": false,
      "motor_id": 0,
      "accel_val": 2000,
      "base_duration_us": 127117
    },
    {
      "id": "M_1336",
      "pitch": 93,
      "t_note_us": 143817724,
      "t_trigger_us": 143681761,
      "is_ai": true,
      "track_id": 8,
      "velocity": 0,
      "is_motor": false,
      "motor_id": 0,
      "accel_val": 2000,
      "base_duration_us": 127117
    },
    {
      "id": "M_1337",
      "pitch": 90,
      "t_note_us": 143902469,
      "t_trigger_us": 143766506,
      "is_ai": true,
      "track_id": 0,
      "velocity": 0,
      "is_motor": true,
      "motor_id": 0,
      "accel_val": 2000,
      "base_duration_us": 381354
    },
    {
      "id": "M_1338",
      "pitch": 91,
      "t_note_us": 144326195,
      "t_trigger_us": 144190232,
      "is_ai": true,
      "track_id": 7,
      "velocity": 0,
      "is_motor": false,
      "motor_id": 0,
      "accel_val": 2000,
      "base_duration_us": 381355
    },
    {
      "id": "M_1352",
      "pitch": 71,
      "t_note_us": 144914117,
      "t_trigger_us": 144778154,
      "is_ai": false,
      "track_id": 0,
      "velocity": 0,
      "is_motor": true,
      "motor_id": 1,
      "accel_val": 2000,
      "base_duration_us": 2033889
    },
    {
      "id": "M_1353",
      "pitch": 67,
      "t_note_us": 144914117,
      "t_trigger_us": 144778154,
      "is_ai": false,
      "track_id": 0,
      "velocity": 0,
      "is_motor": true,
      "motor_id": 2,
      "accel_val": 2000,
      "base_duration_us": 2033889
    },
    {
      "id": "M_1354",
      "pitch": 76,
      "t_note_us": 144914117,
      "t_trigger_us": 144778154,
      "is_ai": false,
      "track_id": 0,
      "velocity": 0,
      "is_motor": true,
      "motor_id": 3,
      "accel_val": 2000,
      "base_duration_us": 2033889
    },
    {
      "id": "M_1355",
      "pitch": 72,
      "t_note_us": 144914117,
      "t_trigger_us": 144778154,
      "is_ai": false,
      "track_id": 0,
      "velocity": 0,
      "is_motor": true,
      "motor_id": 0,
      "accel_val": 2000,
      "base_duration_us": 2033889
    },
    {
      "id": "M_1343",
      "pitch": 100,
      "t_note_us": 145422591,
      "t_trigger_us": 145286628,
      "is_ai": true,
      "track_id": 12,
      "velocity": 0,
      "is_motor": false,
      "motor_id": 0,
      "accel_val": 2000,
      "base_duration_us": 127117
    },
    {
      "id": "M_1344",
      "pitch": 93,
      "t_note_us": 145427887,
      "t_trigger_us": 145291924,
      "is_ai": true,
      "track_id": 8,
      "velocity": 0,
      "is_motor": false,
      "motor_id": 0,
      "accel_val": 2000,
      "base_duration_us": 254234
    },
    {
      "id": "M_1345",
      "pitch": 95,
      "t_note_us": 145592080,
      "t_trigger_us": 145456117,
      "is_ai": true,
      "track_id": 9,
      "velocity": 0,
      "is_motor": false,
      "motor_id": 0,
      "accel_val": 2000,
      "base_duration_us": 127117
    },
    {
      "id": "M_1346",
      "pitch": 78,
      "t_note_us": 145676825,
      "t_trigger_us": 145540862,
      "is_ai": false,
      "track_id": 0,
      "velocity": 0,
      "is_motor": true,
      "motor_id": 0,
      "accel_val": 2000,
      "base_duration_us": 127117
    },
    {
      "id": "M_1347",
      "pitch": 91,
      "t_note_us": 145682121,
      "t_trigger_us": 145546158,
      "is_ai": true,
      "track_id": 7,
      "velocity": 0,
      "is_motor": false,
      "motor_id": 0,
      "accel_val": 2000,
      "base_duration_us": 254235
    },
    {
      "id": "M_1348",
      "pitch": 103,
      "t_note_us": 145846314,
      "t_trigger_us": 145710351,
      "is_ai": true,
      "track_id": 14,
      "velocity": 0,
      "is_motor": false,
      "motor_id": 0,
      "accel_val": 2000,
      "base_duration_us": 127118
    },
    {
      "id": "M_1349",
      "pitch": 93,
      "t_note_us": 145936356,
      "t_trigger_us": 145800393,
      "is_ai": true,
      "track_id": 8,
      "velocity": 0,
      "is_motor": false,
      "motor_id": 0,
      "accel_val": 2000,
      "base_duration_us": 254236
    },
    {
      "id": "M_1350",
      "pitch": 91,
      "t_note_us": 146190592,
      "t_trigger_us": 146054629,
      "is_ai": true,
      "track_id": 7,
      "velocity": 0,
      "is_motor": false,
      "motor_id": 0,
      "accel_val": 2000,
      "base_duration_us": 254237
    },
    {
      "id": "M_1351",
      "pitch": 86,
      "t_note_us": 146444829,
      "t_trigger_us": 146308866,
      "is_ai": true,
      "track_id": 4,
      "velocity": 0,
      "is_motor": false,
      "motor_id": 0,
      "accel_val": 2000,
      "base_duration_us": 254237
    },
    {
      "id": "M_1356",
      "pitch": 98,
      "t_note_us": 146699066,
      "t_trigger_us": 146563103,
      "is_ai": true,
      "track_id": 11,
      "velocity": 0,
      "is_motor": false,
      "motor_id": 0,
      "accel_val": 2000,
      "base_duration_us": 254236
    },
    {
      "id": "M_1367",
      "pitch": 69,
      "t_note_us": 146948006,
      "t_trigger_us": 146812043,
      "is_ai": false,
      "track_id": 0,
      "velocity": 0,
      "is_motor": true,
      "motor_id": 1,
      "accel_val": 2000,
      "base_duration_us": 2033885
    },
    {
      "id": "M_1368",
      "pitch": 78,
      "t_note_us": 146948006,
      "t_trigger_us": 146812043,
      "is_ai": false,
      "track_id": 0,
      "velocity": 0,
      "is_motor": true,
      "motor_id": 2,
      "accel_val": 2000,
      "base_duration_us": 2033885
    },
    {
      "id": "M_1369",
      "pitch": 74,
      "t_note_us": 146948006,
      "t_trigger_us": 146812043,
      "is_ai": false,
      "track_id": 0,
      "velocity": 0,
      "is_motor": true,
      "motor_id": 0,
      "accel_val": 2000,
      "base_duration_us": 2033885
    },
    {
      "id": "M_1370",
      "pitch": 71,
      "t_note_us": 146948006,
      "t_trigger_us": 146812043,
      "is_ai": false,
      "track_id": 0,
      "velocity": 0,
      "is_motor": true,
      "motor_id": 3,
      "accel_val": 2000,
      "base_duration_us": 2033885
    },
    {
      "id": "M_1357",
      "pitch": 96,
      "t_note_us": 147207539,
      "t_trigger_us": 147071576,
      "is_ai": true,
      "track_id": 10,
      "velocity": 0,
      "is_motor": false,
      "motor_id": 0,
      "accel_val": 2000,
      "base_duration_us": 254236
    },
    {
      "id": "M_1358",
      "pitch": 93,
      "t_note_us": 147456479,
      "t_trigger_us": 147320516,
      "is_ai": true,
      "track_id": 8,
      "velocity": 0,
      "is_motor": false,
      "motor_id": 0,
      "accel_val": 2000,
      "base_duration_us": 127117
    },
    {
      "id": "M_1359",
      "pitch": 95,
      "t_note_us": 147461775,
      "t_trigger_us": 147325812,
      "is_ai": true,
      "track_id": 9,
      "velocity": 0,
      "is_motor": false,
      "motor_id": 0,
      "accel_val": 2000,
      "base_duration_us": 254234
    },
    {
      "id": "M_1360",
      "pitch": 103,
      "t_note_us": 147625968,
      "t_trigger_us": 147490005,
      "is_ai": true,
      "track_id": 14,
      "velocity": 0,
      "is_motor": false,
      "motor_id": 0,
      "accel_val": 2000,
      "base_duration_us": 127117
    },
    {
      "id": "M_1361",
      "pitch": 93,
      "t_note_us": 147710713,
      "t_trigger_us": 147574750,
      "is_ai": true,
      "track_id": 8,
      "velocity": 0,
      "is_motor": false,
      "motor_id": 0,
      "accel_val": 2000,
      "base_duration_us": 127117
    },
    {
      "id": "M_1365",
      "pitch": 90,
      "t_note_us": 147716009,
      "t_trigger_us": 147580046,
      "is_ai": true,
      "track_id": 0,
      "velocity": 0,
      "is_motor": true,
      "motor_id": 0,
      "accel_val": 2000,
      "base_duration_us": 762706
    },
    {
      "id": "M_1362",
      "pitch": 95,
      "t_note_us": 147880202,
      "t_trigger_us": 147744239,
      "is_ai": true,
      "track_id": 9,
      "velocity": 0,
      "is_motor": false,
      "motor_id": 0,
      "accel_val": 2000,
      "base_duration_us": 127117
    },
    {
      "id": "M_1363",
      "pitch": 98,
      "t_note_us": 147964947,
      "t_trigger_us": 147828984,
      "is_ai": true,
      "track_id": 11,
      "velocity": 0,
      "is_motor": false,
      "motor_id": 0,
      "accel_val": 2000,
      "base_duration_us": 254236
    },
    {
      "id": "M_1364",
      "pitch": 95,
      "t_note_us": 148219183,
      "t_trigger_us": 148083220,
      "is_ai": true,
      "track_id": 9,
      "velocity": 0,
      "is_motor": false,
      "motor_id": 0,
      "accel_val": 2000,
      "base_duration_us": 127118
    },
    {
      "id": "M_1366",
      "pitch": 93,
      "t_note_us": 148388673,
      "t_trigger_us": 148252710,
      "is_ai": true,
      "track_id": 8,
      "velocity": 0,
      "is_motor": false,
      "motor_id": 0,
      "accel_val": 2000,
      "base_duration_us": 254236
    },
    {
      "id": "M_1371",
      "pitch": 103,
      "t_note_us": 148642909,
      "t_trigger_us": 148506946,
      "is_ai": true,
      "track_id": 14,
      "velocity": 0,
      "is_motor": false,
      "motor_id": 0,
      "accel_val": 2000,
      "base_duration_us": 381354
    },
    {
      "id": "M_1382",
      "pitch": 67,
      "t_note_us": 148981891,
      "t_trigger_us": 148845928,
      "is_ai": false,
      "track_id": 0,
      "velocity": 0,
      "is_motor": true,
      "motor_id": 1,
      "accel_val": 2000,
      "base_duration_us": 2033893
    },
    {
      "id": "M_1383",
      "pitch": 76,
      "t_note_us": 148981891,
      "t_trigger_us": 148845928,
      "is_ai": false,
      "track_id": 0,
      "velocity": 0,
      "is_motor": true,
      "motor_id": 2,
      "accel_val": 2000,
      "base_duration_us": 2033893
    },
    {
      "id": "M_1384",
      "pitch": 72,
      "t_note_us": 148981891,
      "t_trigger_us": 148845928,
      "is_ai": false,
      "track_id": 0,
      "velocity": 0,
      "is_motor": true,
      "motor_id": 0,
      "accel_val": 2000,
      "base_duration_us": 2033893
    },
    {
      "id": "M_1385",
      "pitch": 69,
      "t_note_us": 148981891,
      "t_trigger_us": 148845928,
      "is_ai": false,
      "track_id": 0,
      "velocity": 0,
      "is_motor": true,
      "motor_id": 3,
      "accel_val": 2000,
      "base_duration_us": 2033893
    },
    {
      "id": "M_1373",
      "pitch": 91,
      "t_note_us": 148987187,
      "t_trigger_us": 148851224,
      "is_ai": true,
      "track_id": 7,
      "velocity": 0,
      "is_motor": false,
      "motor_id": 0,
      "accel_val": 2000,
      "base_duration_us": 381355
    },
    {
      "id": "M_1372",
      "pitch": 72,
      "t_note_us": 148987187,
      "t_trigger_us": 148851224,
      "is_ai": false,
      "track_id": 0,
      "velocity": 0,
      "is_motor": true,
      "motor_id": 0,
      "accel_val": 2000,
      "base_duration_us": 381355
    },
    {
      "id": "M_1375",
      "pitch": 90,
      "t_note_us": 149368542,
      "t_trigger_us": 149232579,
      "is_ai": true,
      "track_id": 0,
      "velocity": 0,
      "is_motor": true,
      "motor_id": 0,
      "accel_val": 2000,
      "base_duration_us": 381355
    },
    {
      "id": "M_1374",
      "pitch": 72,
      "t_note_us": 149368542,
      "t_trigger_us": 149232579,
      "is_ai": false,
      "track_id": 0,
      "velocity": 0,
      "is_motor": true,
      "motor_id": 0,
      "accel_val": 2000,
      "base_duration_us": 381355
    },
    {
      "id": "M_1377",
      "pitch": 91,
      "t_note_us": 149749897,
      "t_trigger_us": 149613934,
      "is_ai": true,
      "track_id": 7,
      "velocity": 0,
      "is_motor": false,
      "motor_id": 0,
      "accel_val": 2000,
      "base_duration_us": 254237
    },
    {
      "id": "M_1376",
      "pitch": 72,
      "t_note_us": 149749897,
      "t_trigger_us": 149613934,
      "is_ai": false,
      "track_id": 0,
      "velocity": 0,
      "is_motor": true,
      "motor_id": 0,
      "accel_val": 2000,
      "base_duration_us": 254237
    },
    {
      "id": "M_1378",
      "pitch": 88,
      "t_note_us": 150004134,
      "t_trigger_us": 149868171,
      "is_ai": true,
      "track_id": 5,
      "velocity": 0,
      "is_motor": false,
      "motor_id": 0,
      "accel_val": 2000,
      "base_duration_us": 381355
    },
    {
      "id": "M_1379",
      "pitch": 72,
      "t_note_us": 150004134,
      "t_trigger_us": 149868171,
      "is_ai": false,
      "track_id": 0,
      "velocity": 0,
      "is_motor": true,
      "motor_id": 0,
      "accel_val": 2000,
      "base_duration_us": 381355
    },
    {
      "id": "M_1380",
      "pitch": 90,
      "t_note_us": 150385489,
      "t_trigger_us": 150249526,
      "is_ai": true,
      "track_id": 0,
      "velocity": 0,
      "is_motor": true,
      "motor_id": 0,
      "accel_val": 2000,
      "base_duration_us": 381355
    },
    {
      "id": "M_1381",
      "pitch": 84,
      "t_note_us": 150385489,
      "t_trigger_us": 150249526,
      "is_ai": true,
      "track_id": 3,
      "velocity": 0,
      "is_motor": false,
      "motor_id": 0,
      "accel_val": 2000,
      "base_duration_us": 381355
    },
    {
      "id": "M_1386",
      "pitch": 84,
      "t_note_us": 150766844,
      "t_trigger_us": 150630881,
      "is_ai": true,
      "track_id": 3,
      "velocity": 0,
      "is_motor": false,
      "motor_id": 0,
      "accel_val": 2000,
      "base_duration_us": 254236
    },
    {
      "id": "M_1387",
      "pitch": 91,
      "t_note_us": 150766844,
      "t_trigger_us": 150630881,
      "is_ai": true,
      "track_id": 7,
      "velocity": 0,
      "is_motor": false,
      "motor_id": 0,
      "accel_val": 2000,
      "base_duration_us": 254236
    },
    {
      "id": "M_1398",
      "pitch": 69,
      "t_note_us": 151015784,
      "t_trigger_us": 150879821,
      "is_ai": false,
      "track_id": 0,
      "velocity": 0,
      "is_motor": true,
      "motor_id": 1,
      "accel_val": 2000,
      "base_duration_us": 2033893
    },
    {
      "id": "M_1399",
      "pitch": 78,
      "t_note_us": 151015784,
      "t_trigger_us": 150879821,
      "is_ai": false,
      "track_id": 0,
      "velocity": 0,
      "is_motor": true,
      "motor_id": 2,
      "accel_val": 2000,
      "base_duration_us": 2033893
    },
    {
      "id": "M_1400",
      "pitch": 74,
      "t_note_us": 151015784,
      "t_trigger_us": 150879821,
      "is_ai": false,
      "track_id": 0,
      "velocity": 0,
      "is_motor": true,
      "motor_id": 0,
      "accel_val": 2000,
      "base_duration_us": 2033893
    },
    {
      "id": "M_1401",
      "pitch": 71,
      "t_note_us": 151015784,
      "t_trigger_us": 150879821,
      "is_ai": false,
      "track_id": 0,
      "velocity": 0,
      "is_motor": true,
      "motor_id": 3,
      "accel_val": 2000,
      "base_duration_us": 2033893
    },
    {
      "id": "M_1388",
      "pitch": 86,
      "t_note_us": 151021080,
      "t_trigger_us": 150885117,
      "is_ai": true,
      "track_id": 4,
      "velocity": 0,
      "is_motor": false,
      "motor_id": 0,
      "accel_val": 2000,
      "base_duration_us": 381355
    },
    {
      "id": "M_1389",
      "pitch": 93,
      "t_note_us": 151021080,
      "t_trigger_us": 150885117,
      "is_ai": true,
      "track_id": 8,
      "velocity": 0,
      "is_motor": false,
      "motor_id": 0,
      "accel_val": 2000,
      "base_duration_us": 381355
    },
    {
      "id": "M_1390",
      "pitch": 86,
      "t_note_us": 151402435,
      "t_trigger_us": 151266472,
      "is_ai": true,
      "track_id": 4,
      "velocity": 0,
      "is_motor": false,
      "motor_id": 0,
      "accel_val": 2000,
      "base_duration_us": 381355
    },
    {
      "id": "M_1391",
      "pitch": 91,
      "t_note_us": 151402435,
      "t_trigger_us": 151266472,
      "is_ai": true,
      "track_id": 7,
      "velocity": 0,
      "is_motor": false,
      "motor_id": 0,
      "accel_val": 2000,
      "base_duration_us": 381355
    },
    {
      "id": "M_1392",
      "pitch": 86,
      "t_note_us": 151783790,
      "t_trigger_us": 151647827,
      "is_ai": true,
      "track_id": 4,
      "velocity": 0,
      "is_motor": false,
      "motor_id": 0,
      "accel_val": 2000,
      "base_duration_us": 254237
    },
    {
      "id": "M_1393",
      "pitch": 93,
      "t_note_us": 151783790,
      "t_trigger_us": 151647827,
      "is_ai": true,
      "track_id": 8,
      "velocity": 0,
      "is_motor": false,
      "motor_id": 0,
      "accel_val": 2000,
      "base_duration_us": 254237
    },
    {
      "id": "M_1394",
      "pitch": 90,
      "t_note_us": 152038027,
      "t_trigger_us": 151902064,
      "is_ai": true,
      "track_id": 0,
      "velocity": 0,
      "is_motor": true,
      "motor_id": 0,
      "accel_val": 2000,
      "base_duration_us": 381355
    },
    {
      "id": "M_1395",
      "pitch": 86,
      "t_note_us": 152038027,
      "t_trigger_us": 151902064,
      "is_ai": true,
      "track_id": 4,
      "velocity": 0,
      "is_motor": false,
      "motor_id": 0,
      "accel_val": 2000,
      "base_duration_us": 381355
    },
    {
      "id": "M_1396",
      "pitch": 91,
      "t_note_us": 152419382,
      "t_trigger_us": 152283419,
      "is_ai": true,
      "track_id": 7,
      "velocity": 0,
      "is_motor": false,
      "motor_id": 0,
      "accel_val": 2000,
      "base_duration_us": 381355
    },
    {
      "id": "M_1397",
      "pitch": 86,
      "t_note_us": 152419382,
      "t_trigger_us": 152283419,
      "is_ai": true,
      "track_id": 4,
      "velocity": 0,
      "is_motor": false,
      "motor_id": 0,
      "accel_val": 2000,
      "base_duration_us": 381355
    },
    {
      "id": "M_1402",
      "pitch": 86,
      "t_note_us": 152800737,
      "t_trigger_us": 152664774,
      "is_ai": true,
      "track_id": 4,
      "velocity": 0,
      "is_motor": false,
      "motor_id": 0,
      "accel_val": 2000,
      "base_duration_us": 254236
    },
    {
      "id": "M_1403",
      "pitch": 93,
      "t_note_us": 152800737,
      "t_trigger_us": 152664774,
      "is_ai": true,
      "track_id": 8,
      "velocity": 0,
      "is_motor": false,
      "motor_id": 0,
      "accel_val": 2000,
      "base_duration_us": 254236
    },
    {
      "id": "M_1408",
      "pitch": 72,
      "t_note_us": 153049677,
      "t_trigger_us": 152913714,
      "is_ai": false,
      "track_id": 0,
      "velocity": 0,
      "is_motor": true,
      "motor_id": 1,
      "accel_val": 2000,
      "base_duration_us": 1016946
    },
    {
      "id": "M_1409",
      "pitch": 71,
      "t_note_us": 153049677,
      "t_trigger_us": 152913714,
      "is_ai": false,
      "track_id": 0,
      "velocity": 0,
      "is_motor": true,
      "motor_id": 2,
      "accel_val": 2000,
      "base_duration_us": 1016946
    },
    {
      "id": "M_1410",
      "pitch": 67,
      "t_note_us": 153049677,
      "t_trigger_us": 152913714,
      "is_ai": false,
      "track_id": 0,
      "velocity": 0,
      "is_motor": true,
      "motor_id": 0,
      "accel_val": 2000,
      "base_duration_us": 1016946
    },
    {
      "id": "M_1411",
      "pitch": 76,
      "t_note_us": 153049677,
      "t_trigger_us": 152913714,
      "is_ai": false,
      "track_id": 0,
      "velocity": 0,
      "is_motor": true,
      "motor_id": 3,
      "accel_val": 2000,
      "base_duration_us": 1016946
    },
    {
      "id": "M_1404",
      "pitch": 95,
      "t_note_us": 153054973,
      "t_trigger_us": 152919010,
      "is_ai": true,
      "track_id": 9,
      "velocity": 0,
      "is_motor": false,
      "motor_id": 0,
      "accel_val": 2000,
      "base_duration_us": 381355
    },
    {
      "id": "M_1405",
      "pitch": 88,
      "t_note_us": 153054973,
      "t_trigger_us": 152919010,
      "is_ai": true,
      "track_id": 5,
      "velocity": 0,
      "is_motor": false,
      "motor_id": 0,
      "accel_val": 2000,
      "base_duration_us": 381355
    },
    {
      "id": "M_1406",
      "pitch": 88,
      "t_note_us": 153436328,
      "t_trigger_us": 153300365,
      "is_ai": true,
      "track_id": 5,
      "velocity": 0,
      "is_motor": false,
      "motor_id": 0,
      "accel_val": 2000,
      "base_duration_us": 381355
    },
    {
      "id": "M_1407",
      "pitch": 93,
      "t_note_us": 153436328,
      "t_trigger_us": 153300365,
      "is_ai": true,
      "track_id": 8,
      "velocity": 0,
      "is_motor": false,
      "motor_id": 0,
      "accel_val": 2000,
      "base_duration_us": 381355
    },
    {
      "id": "M_1412",
      "pitch": 91,
      "t_note_us": 153817683,
      "t_trigger_us": 153681720,
      "is_ai": true,
      "track_id": 7,
      "velocity": 0,
      "is_motor": false,
      "motor_id": 0,
      "accel_val": 2000,
      "base_duration_us": 254236
    },
    {
      "id": "M_1413",
      "pitch": 88,
      "t_note_us": 153817683,
      "t_trigger_us": 153681720,
      "is_ai": true,
      "track_id": 5,
      "velocity": 0,
      "is_motor": false,
      "motor_id": 0,
      "accel_val": 2000,
      "base_duration_us": 254236
    },
    {
      "id": "M_1418",
      "pitch": 75,
      "t_note_us": 154066623,
      "t_trigger_us": 153930660,
      "is_ai": false,
      "track_id": 0,
      "velocity": 0,
      "is_motor": true,
      "motor_id": 2,
      "accel_val": 2000,
      "base_duration_us": 1016946
    },
    {
      "id": "M_1419",
      "pitch": 71,
      "t_note_us": 154066623,
      "t_trigger_us": 153930660,
      "is_ai": false,
      "track_id": 0,
      "velocity": 0,
      "is_motor": true,
      "motor_id": 1,
      "accel_val": 2000,
      "base_duration_us": 1016946
    },
    {
      "id": "M_1420",
      "pitch": 67,
      "t_note_us": 154066623,
      "t_trigger_us": 153930660,
      "is_ai": false,
      "track_id": 0,
      "velocity": 0,
      "is_motor": true,
      "motor_id": 0,
      "accel_val": 2000,
      "base_duration_us": 1016946
    },
    {
      "id": "M_1421",
      "pitch": 72,
      "t_note_us": 154066623,
      "t_trigger_us": 153930660,
      "is_ai": false,
      "track_id": 0,
      "velocity": 0,
      "is_motor": true,
      "motor_id": 3,
      "accel_val": 2000,
      "base_duration_us": 1016946
    },
    {
      "id": "M_1414",
      "pitch": 98,
      "t_note_us": 154071919,
      "t_trigger_us": 153935956,
      "is_ai": true,
      "track_id": 11,
      "velocity": 0,
      "is_motor": false,
      "motor_id": 0,
      "accel_val": 2000,
      "base_duration_us": 381355
    },
    {
      "id": "M_1415",
      "pitch": 91,
      "t_note_us": 154071919,
      "t_trigger_us": 153935956,
      "is_ai": true,
      "track_id": 7,
      "velocity": 0,
      "is_motor": false,
      "motor_id": 0,
      "accel_val": 2000,
      "base_duration_us": 381355
    },
    {
      "id": "M_1416",
      "pitch": 91,
      "t_note_us": 154453274,
      "t_trigger_us": 154317311,
      "is_ai": true,
      "track_id": 7,
      "velocity": 0,
      "is_motor": false,
      "motor_id": 0,
      "accel_val": 2000,
      "base_duration_us": 381355
    },
    {
      "id": "M_1417",
      "pitch": 96,
      "t_note_us": 154453274,
      "t_trigger_us": 154317311,
      "is_ai": true,
      "track_id": 10,
      "velocity": 0,
      "is_motor": false,
      "motor_id": 0,
      "accel_val": 2000,
      "base_duration_us": 381355
    },
    {
      "id": "M_1422",
      "pitch": 95,
      "t_note_us": 154834629,
      "t_trigger_us": 154698666,
      "is_ai": true,
      "track_id": 9,
      "velocity": 0,
      "is_motor": false,
      "motor_id": 0,
      "accel_val": 2000,
      "base_duration_us": 254236
    },
    {
      "id": "M_1423",
      "pitch": 91,
      "t_note_us": 154834629,
      "t_trigger_us": 154698666,
      "is_ai": true,
      "track_id": 7,
      "velocity": 0,
      "is_motor": false,
      "motor_id": 0,
      "accel_val": 2000,
      "base_duration_us": 254236
    },
    {
      "id": "M_1424",
      "pitch": 74,
      "t_note_us": 155083569,
      "t_trigger_us": 154947606,
      "is_ai": false,
      "track_id": 0,
      "velocity": 0,
      "is_motor": true,
      "motor_id": 1,
      "accel_val": 2000,
      "base_duration_us": 127117
    },
    {
      "id": "M_1432",
      "pitch": 71,
      "t_note_us": 155083569,
      "t_trigger_us": 154947606,
      "is_ai": false,
      "track_id": 0,
      "velocity": 0,
      "is_motor": true,
      "motor_id": 2,
      "accel_val": 2000,
      "base_duration_us": 1016940
    },
    {
      "id": "M_1433",
      "pitch": 67,
      "t_note_us": 155083569,
      "t_trigger_us": 154947606,
      "is_ai": false,
      "track_id": 0,
      "velocity": 0,
      "is_motor": true,
      "motor_id": 0,
      "accel_val": 2000,
      "base_duration_us": 1016940
    },
    {
      "id": "M_1434",
      "pitch": 78,
      "t_note_us": 155083569,
      "t_trigger_us": 154947606,
      "is_ai": false,
      "track_id": 0,
      "velocity": 0,
      "is_motor": true,
      "motor_id": 3,
      "accel_val": 2000,
      "base_duration_us": 1016940
    },
    {
      "id": "M_1425",
      "pitch": 91,
      "t_note_us": 155088865,
      "t_trigger_us": 154952902,
      "is_ai": true,
      "track_id": 7,
      "velocity": 0,
      "is_motor": false,
      "motor_id": 0,
      "accel_val": 2000,
      "base_duration_us": 381353
    },
    {
      "id": "M_1426",
      "pitch": 95,
      "t_note_us": 155088865,
      "t_trigger_us": 154952902,
      "is_ai": true,
      "track_id": 9,
      "velocity": 0,
      "is_motor": false,
      "motor_id": 0,
      "accel_val": 2000,
      "base_duration_us": 381353
    },
    {
      "id": "M_1427",
      "pitch": 74,
      "t_note_us": 155253058,
      "t_trigger_us": 155117095,
      "is_ai": false,
      "track_id": 0,
      "velocity": 0,
      "is_motor": true,
      "motor_id": 1,
      "accel_val": 2000,
      "base_duration_us": 254236
    },
    {
      "id": "M_1429",
      "pitch": 91,
      "t_note_us": 155470218,
      "t_trigger_us": 155334255,
      "is_ai": true,
      "track_id": 7,
      "velocity": 0,
      "is_motor": false,
      "motor_id": 0,
      "accel_val": 2000,
      "base_duration_us": 381353
    },
    {
      "id": "M_1430",
      "pitch": 96,
      "t_note_us": 155470218,
      "t_trigger_us": 155334255,
      "is_ai": true,
      "track_id": 10,
      "velocity": 0,
      "is_motor": false,
      "motor_id": 0,
      "accel_val": 2000,
      "base_duration_us": 381353
    },
    {
      "id": "M_1428",
      "pitch": 74,
      "t_note_us": 155592039,
      "t_trigger_us": 155456076,
      "is_ai": false,
      "track_id": 0,
      "velocity": 0,
      "is_motor": true,
      "motor_id": 1,
      "accel_val": 2000,
      "base_duration_us": 42372
    },
    {
      "id": "M_1431",
      "pitch": 74,
      "t_note_us": 155846275,
      "t_trigger_us": 155710312,
      "is_ai": false,
      "track_id": 0,
      "velocity": 0,
      "is_motor": true,
      "motor_id": 1,
      "accel_val": 2000,
      "base_duration_us": 127117
    },
    {
      "id": "M_1435",
      "pitch": 91,
      "t_note_us": 155851571,
      "t_trigger_us": 155715608,
      "is_ai": true,
      "track_id": 7,
      "velocity": 0,
      "is_motor": false,
      "motor_id": 0,
      "accel_val": 2000,
      "base_duration_us": 254234
    },
    {
      "id": "M_1436",
      "pitch": 98,
      "t_note_us": 155851571,
      "t_trigger_us": 155715608,
      "is_ai": true,
      "track_id": 11,
      "velocity": 0,
      "is_motor": false,
      "motor_id": 0,
      "accel_val": 2000,
      "base_duration_us": 254234
    },
    {
      "id": "M_1437",
      "pitch": 74,
      "t_note_us": 156015764,
      "t_trigger_us": 155879801,
      "is_ai": false,
      "track_id": 0,
      "velocity": 0,
      "is_motor": true,
      "motor_id": 1,
      "accel_val": 2000,
      "base_duration_us": 254235
    },
    {
      "id": "M_1444",
      "pitch": 71,
      "t_note_us": 156100509,
      "t_trigger_us": 155964546,
      "is_ai": false,
      "track_id": 0,
      "velocity": 0,
      "is_motor": true,
      "motor_id": 2,
      "accel_val": 2000,
      "base_duration_us": 1016945
    },
    {
      "id": "M_1445",
      "pitch": 69,
      "t_note_us": 156100509,
      "t_trigger_us": 155964546,
      "is_ai": false,
      "track_id": 0,
      "velocity": 0,
      "is_motor": true,
      "motor_id": 0,
      "accel_val": 2000,
      "base_duration_us": 1016945
    },
    {
      "id": "M_1446",
      "pitch": 77,
      "t_note_us": 156100509,
      "t_trigger_us": 155964546,
      "is_ai": false,
      "track_id": 0,
      "velocity": 0,
      "is_motor": true,
      "motor_id": 3,
      "accel_val": 2000,
      "base_duration_us": 1016945
    },
    {
      "id": "M_1439",
      "pitch": 95,
      "t_note_us": 156105805,
      "t_trigger_us": 155969842,
      "is_ai": true,
      "track_id": 9,
      "velocity": 0,
      "is_motor": false,
      "motor_id": 0,
      "accel_val": 2000,
      "base_duration_us": 508472
    },
    {
      "id": "M_1440",
      "pitch": 89,
      "t_note_us": 156105805,
      "t_trigger_us": 155969842,
      "is_ai": true,
      "track_id": 6,
      "velocity": 0,
      "is_motor": false,
      "motor_id": 0,
      "accel_val": 2000,
      "base_duration_us": 508472
    },
    {
      "id": "M_1438",
      "pitch": 74,
      "t_note_us": 156269999,
      "t_trigger_us": 156134036,
      "is_ai": false,
      "track_id": 0,
      "velocity": 0,
      "is_motor": true,
      "motor_id": 1,
      "accel_val": 2000,
      "base_duration_us": 254237
    },
    {
      "id": "M_1441",
      "pitch": 74,
      "t_note_us": 156524236,
      "t_trigger_us": 156388273,
      "is_ai": false,
      "track_id": 0,
      "velocity": 0,
      "is_motor": true,
      "motor_id": 1,
      "accel_val": 2000,
      "base_duration_us": 127117
    },
    {
      "id": "M_1442",
      "pitch": 69,
      "t_note_us": 156608981,
      "t_trigger_us": 156473018,
      "is_ai": false,
      "track_id": 0,
      "velocity": 0,
      "is_motor": true,
      "motor_id": 0,
      "accel_val": 2000,
      "base_duration_us": 254236
    },
    {
      "id": "M_1443",
      "pitch": 62,
      "t_note_us": 156863217,
      "t_trigger_us": 156727254,
      "is_ai": false,
      "track_id": 0,
      "velocity": 0,
      "is_motor": true,
      "motor_id": 1,
      "accel_val": 2000,
      "base_duration_us": 254237
    },
    {
      "id": "M_1447",
      "pitch": 48,
      "t_note_us": 157117454,
      "t_trigger_us": 156981491,
      "is_ai": false,
      "track_id": 0,
      "velocity": 0,
      "is_motor": true,
      "motor_id": 0,
      "accel_val": 2000,
      "base_duration_us": 254237
    },
    {
      "id": "M_1448",
      "pitch": 64,
      "t_note_us": 157371691,
      "t_trigger_us": 157235728,
      "is_ai": false,
      "track_id": 0,
      "velocity": 0,
      "is_motor": true,
      "motor_id": 1,
      "accel_val": 2000,
      "base_duration_us": 254236
    },
    {
      "id": "M_1449",
      "pitch": 60,
      "t_note_us": 157371691,
      "t_trigger_us": 157235728,
      "is_ai": false,
      "track_id": 0,
      "velocity": 0,
      "is_motor": true,
      "motor_id": 0,
      "accel_val": 2000,
      "base_duration_us": 254236
    },
    {
      "id": "M_1450",
      "pitch": 91,
      "t_note_us": 157376987,
      "t_trigger_us": 157241024,
      "is_ai": true,
      "track_id": 7,
      "velocity": 0,
      "is_motor": false,
      "motor_id": 0,
      "accel_val": 2000,
      "base_duration_us": 254236
    },
    {
      "id": "M_1451",
      "pitch": 88,
      "t_note_us": 157376987,
      "t_trigger_us": 157241024,
      "is_ai": true,
      "track_id": 5,
      "velocity": 0,
      "is_motor": false,
      "motor_id": 0,
      "accel_val": 2000,
      "base_duration_us": 254236
    },
    {
      "id": "M_1452",
      "pitch": 55,
      "t_note_us": 157625927,
      "t_trigger_us": 157489964,
      "is_ai": false,
      "track_id": 0,
      "velocity": 0,
      "is_motor": true,
      "motor_id": 0,
      "accel_val": 2000,
      "base_duration_us": 127117
    },
    {
      "id": "M_1455",
      "pitch": 98,
      "t_note_us": 157631223,
      "t_trigger_us": 157495260,
      "is_ai": true,
      "track_id": 11,
      "velocity": 0,
      "is_motor": false,
      "motor_id": 0,
      "accel_val": 2000,
      "base_duration_us": 508470
    },
    {
      "id": "M_1456",
      "pitch": 91,
      "t_note_us": 157631223,
      "t_trigger_us": 157495260,
      "is_ai": true,
      "track_id": 7,
      "velocity": 0,
      "is_motor": false,
      "motor_id": 0,
      "accel_val": 2000,
      "base_duration_us": 508470
    },
    {
      "id": "M_1453",
      "pitch": 64,
      "t_note_us": 157795416,
      "t_trigger_us": 157659453,
      "is_ai": false,
      "track_id": 0,
      "velocity": 0,
      "is_motor": true,
      "motor_id": 1,
      "accel_val": 2000,
      "base_duration_us": 127117
    },
    {
      "id": "M_1454",
      "pitch": 48,
      "t_note_us": 157880161,
      "t_trigger_us": 157744198,
      "is_ai": false,
      "track_id": 0,
      "velocity": 0,
      "is_motor": true,
      "motor_id": 0,
      "accel_val": 2000,
      "base_duration_us": 254236
    },
    {
      "id": "M_1457",
      "pitch": 47,
      "t_note_us": 158134397,
      "t_trigger_us": 157998434,
      "is_ai": false,
      "track_id": 0,
      "velocity": 0,
      "is_motor": true,
      "motor_id": 0,
      "accel_val": 2000,
      "base_duration_us": 254236
    },
    {
      "id": "M_1458",
      "pitch": 90,
      "t_note_us": 158139693,
      "t_trigger_us": 158003730,
      "is_ai": true,
      "track_id": 0,
      "velocity": 0,
      "is_motor": true,
      "motor_id": 3,
      "accel_val": 2000,
      "base_duration_us": 254236
    },
    {
      "id": "M_1459",
      "pitch": 98,
      "t_note_us": 158139693,
      "t_trigger_us": 158003730,
      "is_ai": true,
      "track_id": 11,
      "velocity": 0,
      "is_motor": false,
      "motor_id": 0,
      "accel_val": 2000,
      "base_duration_us": 254236
    },
    {
      "id": "M_1460",
      "pitch": 63,
      "t_note_us": 158388633,
      "t_trigger_us": 158252670,
      "is_ai": false,
      "track_id": 0,
      "velocity": 0,
      "is_motor": true,
      "motor_id": 1,
      "accel_val": 2000,
      "base_duration_us": 254236
    },
    {
      "id": "M_1461",
      "pitch": 59,
      "t_note_us": 158388633,
      "t_trigger_us": 158252670,
      "is_ai": false,
      "track_id": 0,
      "velocity": 0,
      "is_motor": true,
      "motor_id": 0,
      "accel_val": 2000,
      "base_duration_us": 254236
    },
    {
      "id": "M_1462",
      "pitch": 90,
      "t_note_us": 158393929,
      "t_trigger_us": 158257966,
      "is_ai": true,
      "track_id": 0,
      "velocity": 0,
      "is_motor": true,
      "motor_id": 3,
      "accel_val": 2000,
      "base_duration_us": 254236
    },
    {
      "id": "M_1463",
      "pitch": 96,
      "t_note_us": 158393929,
      "t_trigger_us": 158257966,
      "is_ai": true,
      "track_id": 10,
      "velocity": 0,
      "is_motor": false,
      "motor_id": 0,
      "accel_val": 2000,
      "base_duration_us": 254236
    },
    {
      "id": "M_1464",
      "pitch": 54,
      "t_note_us": 158642869,
      "t_trigger_us": 158506906,
      "is_ai": false,
      "track_id": 0,
      "velocity": 0,
      "is_motor": true,
      "motor_id": 0,
      "accel_val": 2000,
      "base_duration_us": 127117
    },
    {
      "id": "M_1465",
      "pitch": 95,
      "t_note_us": 158648165,
      "t_trigger_us": 158512202,
      "is_ai": true,
      "track_id": 9,
      "velocity": 0,
      "is_motor": false,
      "motor_id": 0,
      "accel_val": 2000,
      "base_duration_us": 254234
    },
    {
      "id": "M_1466",
      "pitch": 98,
      "t_note_us": 158648165,
      "t_trigger_us": 158512202,
      "is_ai": true,
      "track_id": 11,
      "velocity": 0,
      "is_motor": false,
      "motor_id": 0,
      "accel_val": 2000,
      "base_duration_us": 254234
    },
    {
      "id": "M_1467",
      "pitch": 63,
      "t_note_us": 158812358,
      "t_trigger_us": 158676395,
      "is_ai": false,
      "track_id": 0,
      "velocity": 0,
      "is_motor": true,
      "motor_id": 1,
      "accel_val": 2000,
      "base_duration_us": 127117
    },
    {
      "id": "M_1468",
      "pitch": 47,
      "t_note_us": 158897103,
      "t_trigger_us": 158761140,
      "is_ai": false,
      "track_id": 0,
      "velocity": 0,
      "is_motor": true,
      "motor_id": 0,
      "accel_val": 2000,
      "base_duration_us": 254236
    },
    {
      "id": "M_1469",
      "pitch": 95,
      "t_note_us": 158902399,
      "t_trigger_us": 158766436,
      "is_ai": true,
      "track_id": 9,
      "velocity": 0,
      "is_motor": false,
      "motor_id": 0,
      "accel_val": 2000,
      "base_duration_us": 254236
    },
    {
      "id": "M_1470",
      "pitch": 102,
      "t_note_us": 158902399,
      "t_trigger_us": 158766436,
      "is_ai": true,
      "track_id": 0,
      "velocity": 0,
      "is_motor": true,
      "motor_id": 3,
      "accel_val": 2000,
      "base_duration_us": 254236
    },
    {
      "id": "M_1471",
      "pitch": 52,
      "t_note_us": 159151339,
      "t_trigger_us": 159015376,
      "is_ai": false,
      "track_id": 0,
      "velocity": 0,
      "is_motor": true,
      "motor_id": 0,
      "accel_val": 2000,
      "base_duration_us": 254236
    },
    {
      "id": "M_1472",
      "pitch": 103,
      "t_note_us": 159156635,
      "t_trigger_us": 159020672,
      "is_ai": true,
      "track_id": 14,
      "velocity": 0,
      "is_motor": false,
      "motor_id": 0,
      "accel_val": 2000,
      "base_duration_us": 254236
    },
    {
      "id": "M_1473",
      "pitch": 100,
      "t_note_us": 159156635,
      "t_trigger_us": 159020672,
      "is_ai": true,
      "track_id": 12,
      "velocity": 0,
      "is_motor": false,
      "motor_id": 0,
      "accel_val": 2000,
      "base_duration_us": 254236
    },
    {
      "id": "M_1474",
      "pitch": 95,
      "t_note_us": 159156635,
      "t_trigger_us": 159020672,
      "is_ai": true,
      "track_id": 9,
      "velocity": 0,
      "is_motor": false,
      "motor_id": 0,
      "accel_val": 2000,
      "base_duration_us": 254236
    },
    {
      "id": "M_1475",
      "pitch": 67,
      "t_note_us": 159405575,
      "t_trigger_us": 159269612,
      "is_ai": false,
      "track_id": 0,
      "velocity": 0,
      "is_motor": true,
      "motor_id": 1,
      "accel_val": 2000,
      "base_duration_us": 254236
    },
    {
      "id": "M_1476",
      "pitch": 64,
      "t_note_us": 159405575,
      "t_trigger_us": 159269612,
      "is_ai": false,
      "track_id": 0,
      "velocity": 0,
      "is_motor": true,
      "motor_id": 0,
      "accel_val": 2000,
      "base_duration_us": 254236
    },
    {
      "id": "M_1477",
      "pitch": 95,
      "t_note_us": 159410871,
      "t_trigger_us": 159274908,
      "is_ai": true,
      "track_id": 9,
      "velocity": 0,
      "is_motor": false,
      "motor_id": 0,
      "accel_val": 2000,
      "base_duration_us": 254236
    },
    {
      "id": "M_1478",
      "pitch": 59,
      "t_note_us": 159659811,
      "t_trigger_us": 159523848,
      "is_ai": false,
      "track_id": 0,
      "velocity": 0,
      "is_motor": true,
      "motor_id": 0,
      "accel_val": 2000,
      "base_duration_us": 127117
    },
    {
      "id": "M_1481",
      "pitch": 95,
      "t_note_us": 159665107,
      "t_trigger_us": 159529144,
      "is_ai": true,
      "track_id": 9,
      "velocity": 0,
      "is_motor": false,
      "motor_id": 0,
      "accel_val": 2000,
      "base_duration_us": 508470
    },
    {
      "id": "M_1479",
      "pitch": 67,
      "t_note_us": 159829300,
      "t_trigger_us": 159693337,
      "is_ai": false,
      "track_id": 0,
      "velocity": 0,
      "is_motor": true,
      "motor_id": 1,
      "accel_val": 2000,
      "base_duration_us": 127117
    },
    {
      "id": "M_1480",
      "pitch": 52,
      "t_note_us": 159914045,
      "t_trigger_us": 159778082,
      "is_ai": false,
      "track_id": 0,
      "velocity": 0,
      "is_motor": true,
      "motor_id": 0,
      "accel_val": 2000,
      "base_duration_us": 254236
    },
    {
      "id": "M_1482",
      "pitch": 55,
      "t_note_us": 160168281,
      "t_trigger_us": 160032318,
      "is_ai": false,
      "track_id": 0,
      "velocity": 0,
      "is_motor": true,
      "motor_id": 0,
      "accel_val": 2000,
      "base_duration_us": 254236
    },
    {
      "id": "M_1483",
      "pitch": 103,
      "t_note_us": 160173577,
      "t_trigger_us": 160037614,
      "is_ai": true,
      "track_id": 14,
      "velocity": 0,
      "is_motor": false,
      "motor_id": 0,
      "accel_val": 2000,
      "base_duration_us": 254236
    },
    {
      "id": "M_1484",
      "pitch": 98,
      "t_note_us": 160173577,
      "t_trigger_us": 160037614,
      "is_ai": true,
      "track_id": 11,
      "velocity": 0,
      "is_motor": false,
      "motor_id": 0,
      "accel_val": 2000,
      "base_duration_us": 254236
    },
    {
      "id": "M_1485",
      "pitch": 95,
      "t_note_us": 160173577,
      "t_trigger_us": 160037614,
      "is_ai": true,
      "track_id": 9,
      "velocity": 0,
      "is_motor": false,
      "motor_id": 0,
      "accel_val": 2000,
      "base_duration_us": 254236
    },
    {
      "id": "M_1486",
      "pitch": 65,
      "t_note_us": 160422517,
      "t_trigger_us": 160286554,
      "is_ai": false,
      "track_id": 0,
      "velocity": 0,
      "is_motor": true,
      "motor_id": 1,
      "accel_val": 2000,
      "base_duration_us": 254236
    },
    {
      "id": "M_1487",
      "pitch": 71,
      "t_note_us": 160422517,
      "t_trigger_us": 160286554,
      "is_ai": false,
      "track_id": 0,
      "velocity": 0,
      "is_motor": true,
      "motor_id": 2,
      "accel_val": 2000,
      "base_duration_us": 254236
    },
    {
      "id": "M_1488",
      "pitch": 95,
      "t_note_us": 160427813,
      "t_trigger_us": 160291850,
      "is_ai": true,
      "track_id": 9,
      "velocity": 0,
      "is_motor": false,
      "motor_id": 0,
      "accel_val": 2000,
      "base_duration_us": 254236
    },
    {
      "id": "M_1489",
      "pitch": 62,
      "t_note_us": 160676753,
      "t_trigger_us": 160540790,
      "is_ai": false,
      "track_id": 0,
      "velocity": 0,
      "is_motor": true,
      "motor_id": 1,
      "accel_val": 2000,
      "base_duration_us": 127117
    },
    {
      "id": "M_1492",
      "pitch": 95,
      "t_note_us": 160682049,
      "t_trigger_us": 160546086,
      "is_ai": true,
      "track_id": 9,
      "velocity": 0,
      "is_motor": false,
      "motor_id": 0,
      "accel_val": 2000,
      "base_duration_us": 508470
    },
    {
      "id": "M_1490",
      "pitch": 71,
      "t_note_us": 160846242,
      "t_trigger_us": 160710279,
      "is_ai": false,
      "track_id": 0,
      "velocity": 0,
      "is_motor": true,
      "motor_id": 1,
      "accel_val": 2000,
      "base_duration_us": 127117
    },
    {
      "id": "M_1491",
      "pitch": 55,
      "t_note_us": 160930987,
      "t_trigger_us": 160795024,
      "is_ai": false,
      "track_id": 0,
      "velocity": 0,
      "is_motor": true,
      "motor_id": 0,
      "accel_val": 2000,
      "base_duration_us": 254236
    },
    {
      "id": "M_1493",
      "pitch": 48,
      "t_note_us": 161185223,
      "t_trigger_us": 161049260,
      "is_ai": false,
      "track_id": 0,
      "velocity": 0,
      "is_motor": true,
      "motor_id": 0,
      "accel_val": 2000,
      "base_duration_us": 254236
    },
    {
      "id": "M_1494",
      "pitch": 64,
      "t_note_us": 161439459,
      "t_trigger_us": 161303496,
      "is_ai": false,
      "track_id": 0,
      "velocity": 0,
      "is_motor": true,
      "motor_id": 1,
      "accel_val": 2000,
      "base_duration_us": 254236
    },
    {
      "id": "M_1495",
      "pitch": 60,
      "t_note_us": 161439459,
      "t_trigger_us": 161303496,
      "is_ai": false,
      "track_id": 0,
      "velocity": 0,
      "is_motor": true,
      "motor_id": 0,
      "accel_val": 2000,
      "base_duration_us": 254236
    },
    {
      "id": "M_1496",
      "pitch": 91,
      "t_note_us": 161444755,
      "t_trigger_us": 161308792,
      "is_ai": true,
      "track_id": 7,
      "velocity": 0,
      "is_motor": false,
      "motor_id": 0,
      "accel_val": 2000,
      "base_duration_us": 254236
    },
    {
      "id": "M_1497",
      "pitch": 88,
      "t_note_us": 161444755,
      "t_trigger_us": 161308792,
      "is_ai": true,
      "track_id": 5,
      "velocity": 0,
      "is_motor": false,
      "motor_id": 0,
      "accel_val": 2000,
      "base_duration_us": 254236
    },
    {
      "id": "M_1498",
      "pitch": 55,
      "t_note_us": 161693695,
      "t_trigger_us": 161557732,
      "is_ai": false,
      "track_id": 0,
      "velocity": 0,
      "is_motor": true,
      "motor_id": 0,
      "accel_val": 2000,
      "base_duration_us": 127117
    },
    {
      "id": "M_1501",
      "pitch": 98,
      "t_note_us": 161698991,
      "t_trigger_us": 161563028,
      "is_ai": true,
      "track_id": 11,
      "velocity": 0,
      "is_motor": false,
      "motor_id": 0,
      "accel_val": 2000,
      "base_duration_us": 508470
    },
    {
      "id": "M_1502",
      "pitch": 91,
      "t_note_us": 161698991,
      "t_trigger_us": 161563028,
      "is_ai": true,
      "track_id": 7,
      "velocity": 0,
      "is_motor": false,
      "motor_id": 0,
      "accel_val": 2000,
      "base_duration_us": 508470
    },
    {
      "id": "M_1499",
      "pitch": 64,
      "t_note_us": 161863184,
      "t_trigger_us": 161727221,
      "is_ai": false,
      "track_id": 0,
      "velocity": 0,
      "is_motor": true,
      "motor_id": 1,
      "accel_val": 2000,
      "base_duration_us": 127117
    },
    {
      "id": "M_1500",
      "pitch": 48,
      "t_note_us": 161947929,
      "t_trigger_us": 161811966,
      "is_ai": false,
      "track_id": 0,
      "velocity": 0,
      "is_motor": true,
      "motor_id": 0,
      "accel_val": 2000,
      "base_duration_us": 254236
    },
    {
      "id": "M_1503",
      "pitch": 54,
      "t_note_us": 162202165,
      "t_trigger_us": 162066202,
      "is_ai": false,
      "track_id": 0,
      "velocity": 0,
      "is_motor": true,
      "motor_id": 0,
      "accel_val": 2000,
      "base_duration_us": 254236
    },
    {
      "id": "M_1504",
      "pitch": 96,
      "t_note_us": 162207461,
      "t_trigger_us": 162071498,
      "is_ai": true,
      "track_id": 10,
      "velocity": 0,
      "is_motor": false,
      "motor_id": 0,
      "accel_val": 2000,
      "base_duration_us": 254236
    },
    {
      "id": "M_1505",
      "pitch": 90,
      "t_note_us": 162207461,
      "t_trigger_us": 162071498,
      "is_ai": true,
      "track_id": 0,
      "velocity": 0,
      "is_motor": true,
      "motor_id": 3,
      "accel_val": 2000,
      "base_duration_us": 254236
    },
    {
      "id": "M_1506",
      "pitch": 69,
      "t_note_us": 162456401,
      "t_trigger_us": 162320438,
      "is_ai": false,
      "track_id": 0,
      "velocity": 0,
      "is_motor": true,
      "motor_id": 1,
      "accel_val": 2000,
      "base_duration_us": 254236
    },
    {
      "id": "M_1507",
      "pitch": 66,
      "t_note_us": 162456401,
      "t_trigger_us": 162320438,
      "is_ai": false,
      "track_id": 0,
      "velocity": 0,
      "is_motor": true,
      "motor_id": 2,
      "accel_val": 2000,
      "base_duration_us": 254236
    },
    {
      "id": "M_1508",
      "pitch": 95,
      "t_note_us": 162461697,
      "t_trigger_us": 162325734,
      "is_ai": true,
      "track_id": 9,
      "velocity": 0,
      "is_motor": false,
      "motor_id": 0,
      "accel_val": 2000,
      "base_duration_us": 254236
    },
    {
      "id": "M_1509",
      "pitch": 90,
      "t_note_us": 162461697,
      "t_trigger_us": 162325734,
      "is_ai": true,
      "track_id": 0,
      "velocity": 0,
      "is_motor": true,
      "motor_id": 3,
      "accel_val": 2000,
      "base_duration_us": 254236
    },
    {
      "id": "M_1510",
      "pitch": 63,
      "t_note_us": 162710637,
      "t_trigger_us": 162574674,
      "is_ai": false,
      "track_id": 0,
      "velocity": 0,
      "is_motor": true,
      "motor_id": 1,
      "accel_val": 2000,
      "base_duration_us": 127117
    },
    {
      "id": "M_1511",
      "pitch": 95,
      "t_note_us": 162715933,
      "t_trigger_us": 162579970,
      "is_ai": true,
      "track_id": 9,
      "velocity": 0,
      "is_motor": false,
      "motor_id": 0,
      "accel_val": 2000,
      "base_duration_us": 254234
    },
    {
      "id": "M_1512",
      "pitch": 90,
      "t_note_us": 162715933,
      "t_trigger_us": 162579970,
      "is_ai": true,
      "track_id": 0,
      "velocity": 0,
      "is_motor": true,
      "motor_id": 3,
      "accel_val": 2000,
      "base_duration_us": 254234
    },
    {
      "id": "M_1513",
      "pitch": 69,
      "t_note_us": 162880126,
      "t_trigger_us": 162744163,
      "is_ai": false,
      "track_id": 0,
      "velocity": 0,
      "is_motor": true,
      "motor_id": 1,
      "accel_val": 2000,
      "base_duration_us": 127117
    },
    {
      "id": "M_1514",
      "pitch": 54,
      "t_note_us": 162964871,
      "t_trigger_us": 162828908,
      "is_ai": false,
      "track_id": 0,
      "velocity": 0,
      "is_motor": true,
      "motor_id": 0,
      "accel_val": 2000,
      "base_duration_us": 254236
    },
    {
      "id": "M_1515",
      "pitch": 93,
      "t_note_us": 162970167,
      "t_trigger_us": 162834204,
      "is_ai": true,
      "track_id": 8,
      "velocity": 0,
      "is_motor": false,
      "motor_id": 0,
      "accel_val": 2000,
      "base_duration_us": 254236
    },
    {
      "id": "M_1516",
      "pitch": 90,
      "t_note_us": 162970167,
      "t_trigger_us": 162834204,
      "is_ai": true,
      "track_id": 0,
      "velocity": 0,
      "is_motor": true,
      "motor_id": 3,
      "accel_val": 2000,
      "base_duration_us": 254236
    },
    {
      "id": "M_1517",
      "pitch": 52,
      "t_note_us": 163219107,
      "t_trigger_us": 163083144,
      "is_ai": false,
      "track_id": 0,
      "velocity": 0,
      "is_motor": true,
      "motor_id": 0,
      "accel_val": 2000,
      "base_duration_us": 254236
    },
    {
      "id": "M_1518",
      "pitch": 88,
      "t_note_us": 163224403,
      "t_trigger_us": 163088440,
      "is_ai": true,
      "track_id": 5,
      "velocity": 0,
      "is_motor": false,
      "motor_id": 0,
      "accel_val": 2000,
      "base_duration_us": 254236
    },
    {
      "id": "M_1519",
      "pitch": 95,
      "t_note_us": 163224403,
      "t_trigger_us": 163088440,
      "is_ai": true,
      "track_id": 9,
      "velocity": 0,
      "is_motor": false,
      "motor_id": 0,
      "accel_val": 2000,
      "base_duration_us": 254236
    },
    {
      "id": "M_1520",
      "pitch": 67,
      "t_note_us": 163473343,
      "t_trigger_us": 163337380,
      "is_ai": false,
      "track_id": 0,
      "velocity": 0,
      "is_motor": true,
      "motor_id": 1,
      "accel_val": 2000,
      "base_duration_us": 254236
    },
    {
      "id": "M_1521",
      "pitch": 64,
      "t_note_us": 163473343,
      "t_trigger_us": 163337380,
      "is_ai": false,
      "track_id": 0,
      "velocity": 0,
      "is_motor": true,
      "motor_id": 0,
      "accel_val": 2000,
      "base_duration_us": 254236
    },
    {
      "id": "M_1522",
      "pitch": 91,
      "t_note_us": 163478639,
      "t_trigger_us": 163342676,
      "is_ai": true,
      "track_id": 7,
      "velocity": 0,
      "is_motor": false,
      "motor_id": 0,
      "accel_val": 2000,
      "base_duration_us": 254236
    },
    {
      "id": "M_1523",
      "pitch": 88,
      "t_note_us": 163478639,
      "t_trigger_us": 163342676,
      "is_ai": true,
      "track_id": 5,
      "velocity": 0,
      "is_motor": false,
      "motor_id": 0,
      "accel_val": 2000,
      "base_duration_us": 254236
    },
    {
      "id": "M_1524",
      "pitch": 59,
      "t_note_us": 163727579,
      "t_trigger_us": 163591616,
      "is_ai": false,
      "track_id": 0,
      "velocity": 0,
      "is_motor": true,
      "motor_id": 0,
      "accel_val": 2000,
      "base_duration_us": 127117
    },
    {
      "id": "M_1525",
      "pitch": 88,
      "t_note_us": 163732875,
      "t_trigger_us": 163596912,
      "is_ai": true,
      "track_id": 5,
      "velocity": 0,
      "is_motor": false,
      "motor_id": 0,
      "accel_val": 2000,
      "base_duration_us": 254234
    },
    {
      "id": "M_1526",
      "pitch": 91,
      "t_note_us": 163732875,
      "t_trigger_us": 163596912,
      "is_ai": true,
      "track_id": 7,
      "velocity": 0,
      "is_motor": false,
      "motor_id": 0,
      "accel_val": 2000,
      "base_duration_us": 254234
    },
    {
      "id": "M_1527",
      "pitch": 67,
      "t_note_us": 163897068,
      "t_trigger_us": 163761105,
      "is_ai": false,
      "track_id": 0,
      "velocity": 0,
      "is_motor": true,
      "motor_id": 1,
      "accel_val": 2000,
      "base_duration_us": 127117
    },
    {
      "id": "M_1528",
      "pitch": 52,
      "t_note_us": 163981813,
      "t_trigger_us": 163845850,
      "is_ai": false,
      "track_id": 0,
      "velocity": 0,
      "is_motor": true,
      "motor_id": 0,
      "accel_val": 2000,
      "base_duration_us": 254236
    },
    {
      "id": "M_1530",
      "pitch": 93,
      "t_note_us": 163987109,
      "t_trigger_us": 163851146,
      "is_ai": true,
      "track_id": 8,
      "velocity": 0,
      "is_motor": false,
      "motor_id": 0,
      "accel_val": 2000,
      "base_duration_us": 508473
    },
    {
      "id": "M_1531",
      "pitch": 86,
      "t_note_us": 163987109,
      "t_trigger_us": 163851146,
      "is_ai": true,
      "track_id": 4,
      "velocity": 0,
      "is_motor": false,
      "motor_id": 0,
      "accel_val": 2000,
      "base_duration_us": 508473
    },
    {
      "id": "M_1529",
      "pitch": 55,
      "t_note_us": 164236049,
      "t_trigger_us": 164100086,
      "is_ai": false,
      "track_id": 0,
      "velocity": 0,
      "is_motor": true,
      "motor_id": 0,
      "accel_val": 2000,
      "base_duration_us": 254237
    },
    {
      "id": "M_1532",
      "pitch": 65,
      "t_note_us": 164490286,
      "t_trigger_us": 164354323,
      "is_ai": false,
      "track_id": 0,
      "velocity": 0,
      "is_motor": true,
      "motor_id": 1,
      "accel_val": 2000,
      "base_duration_us": 254236
    },
    {
      "id": "M_1533",
      "pitch": 71,
      "t_note_us": 164490286,
      "t_trigger_us": 164354323,
      "is_ai": false,
      "track_id": 0,
      "velocity": 0,
      "is_motor": true,
      "motor_id": 2,
      "accel_val": 2000,
      "base_duration_us": 254236
    },
    {
      "id": "M_1534",
      "pitch": 86,
      "t_note_us": 164495582,
      "t_trigger_us": 164359619,
      "is_ai": true,
      "track_id": 4,
      "velocity": 0,
      "is_motor": false,
      "motor_id": 0,
      "accel_val": 2000,
      "base_duration_us": 254236
    },
    {
      "id": "M_1535",
      "pitch": 95,
      "t_note_us": 164495582,
      "t_trigger_us": 164359619,
      "is_ai": true,
      "track_id": 9,
      "velocity": 0,
      "is_motor": false,
      "motor_id": 0,
      "accel_val": 2000,
      "base_duration_us": 254236
    },
    {
      "id": "M_1536",
      "pitch": 62,
      "t_note_us": 164744522,
      "t_trigger_us": 164608559,
      "is_ai": false,
      "track_id": 0,
      "velocity": 0,
      "is_motor": true,
      "motor_id": 1,
      "accel_val": 2000,
      "base_duration_us": 127117
    },
    {
      "id": "M_1537",
      "pitch": 86,
      "t_note_us": 164749818,
      "t_trigger_us": 164613855,
      "is_ai": true,
      "track_id": 4,
      "velocity": 0,
      "is_motor": false,
      "motor_id": 0,
      "accel_val": 2000,
      "base_duration_us": 254234
    },
    {
      "id": "M_1538",
      "pitch": 69,
      "t_note_us": 164749818,
      "t_trigger_us": 164613855,
      "is_ai": false,
      "track_id": 0,
      "velocity": 0,
      "is_motor": true,
      "motor_id": 2,
      "accel_val": 2000,
      "base_duration_us": 254234
    },
    {
      "id": "M_1539",
      "pitch": 71,
      "t_note_us": 164914011,
      "t_trigger_us": 164778048,
      "is_ai": false,
      "track_id": 0,
      "velocity": 0,
      "is_motor": true,
      "motor_id": 1,
      "accel_val": 2000,
      "base_duration_us": 127117
    },
    {
      "id": "M_1540",
      "pitch": 55,
      "t_note_us": 164998756,
      "t_trigger_us": 164862793,
      "is_ai": false,
      "track_id": 0,
      "velocity": 0,
      "is_motor": true,
      "motor_id": 0,
      "accel_val": 2000,
      "base_duration_us": 254236
    },
    {
      "id": "M_1541",
      "pitch": 86,
      "t_note_us": 165004052,
      "t_trigger_us": 164868089,
      "is_ai": true,
      "track_id": 4,
      "velocity": 0,
      "is_motor": false,
      "motor_id": 0,
      "accel_val": 2000,
      "base_duration_us": 254236
    },
    {
      "id": "M_1542",
      "pitch": 91,
      "t_note_us": 165004052,
      "t_trigger_us": 164868089,
      "is_ai": true,
      "track_id": 7,
      "velocity": 0,
      "is_motor": false,
      "motor_id": 0,
      "accel_val": 2000,
      "base_duration_us": 254236
    },
    {
      "id": "M_1543",
      "pitch": 48,
      "t_note_us": 165252992,
      "t_trigger_us": 165117029,
      "is_ai": false,
      "track_id": 0,
      "velocity": 0,
      "is_motor": true,
      "motor_id": 0,
      "accel_val": 2000,
      "base_duration_us": 254236
    },
    {
      "id": "M_1544",
      "pitch": 64,
      "t_note_us": 165507228,
      "t_trigger_us": 165371265,
      "is_ai": false,
      "track_id": 0,
      "velocity": 0,
      "is_motor": true,
      "motor_id": 1,
      "accel_val": 2000,
      "base_duration_us": 254236
    },
    {
      "id": "M_1545",
      "pitch": 60,
      "t_note_us": 165507228,
      "t_trigger_us": 165371265,
      "is_ai": false,
      "track_id": 0,
      "velocity": 0,
      "is_motor": true,
      "motor_id": 0,
      "accel_val": 2000,
      "base_duration_us": 254236
    },
    {
      "id": "M_1546",
      "pitch": 91,
      "t_note_us": 165512524,
      "t_trigger_us": 165376561,
      "is_ai": true,
      "track_id": 7,
      "velocity": 0,
      "is_motor": false,
      "motor_id": 0,
      "accel_val": 2000,
      "base_duration_us": 254236
    },
    {
      "id": "M_1547",
      "pitch": 88,
      "t_note_us": 165512524,
      "t_trigger_us": 165376561,
      "is_ai": true,
      "track_id": 5,
      "velocity": 0,
      "is_motor": false,
      "motor_id": 0,
      "accel_val": 2000,
      "base_duration_us": 254236
    },
    {
      "id": "M_1548",
      "pitch": 55,
      "t_note_us": 165761464,
      "t_trigger_us": 165625501,
      "is_ai": false,
      "track_id": 0,
      "velocity": 0,
      "is_motor": true,
      "motor_id": 0,
      "accel_val": 2000,
      "base_duration_us": 127117
    },
    {
      "id": "M_1551",
      "pitch": 98,
      "t_note_us": 165766760,
      "t_trigger_us": 165630797,
      "is_ai": true,
      "track_id": 11,
      "velocity": 0,
      "is_motor": false,
      "motor_id": 0,
      "accel_val": 2000,
      "base_duration_us": 508470
    },
    {
      "id": "M_1552",
      "pitch": 91,
      "t_note_us": 165766760,
      "t_trigger_us": 165630797,
      "is_ai": true,
      "track_id": 7,
      "velocity": 0,
      "is_motor": false,
      "motor_id": 0,
      "accel_val": 2000,
      "base_duration_us": 508470
    },
    {
      "id": "M_1549",
      "pitch": 64,
      "t_note_us": 165930953,
      "t_trigger_us": 165794990,
      "is_ai": false,
      "track_id": 0,
      "velocity": 0,
      "is_motor": true,
      "motor_id": 1,
      "accel_val": 2000,
      "base_duration_us": 127117
    },
    {
      "id": "M_1550",
      "pitch": 48,
      "t_note_us": 166015698,
      "t_trigger_us": 165879735,
      "is_ai": false,
      "track_id": 0,
      "velocity": 0,
      "is_motor": true,
      "motor_id": 0,
      "accel_val": 2000,
      "base_duration_us": 254236
    },
    {
      "id": "M_1553",
      "pitch": 47,
      "t_note_us": 166269934,
      "t_trigger_us": 166133971,
      "is_ai": false,
      "track_id": 0,
      "velocity": 0,
      "is_motor": true,
      "motor_id": 0,
      "accel_val": 2000,
      "base_duration_us": 254236
    },
    {
      "id": "M_1555",
      "pitch": 98,
      "t_note_us": 166275230,
      "t_trigger_us": 166139267,
      "is_ai": true,
      "track_id": 11,
      "velocity": 0,
      "is_motor": false,
      "motor_id": 0,
      "accel_val": 2000,
      "base_duration_us": 254236
    },
    {
      "id": "M_1554",
      "pitch": 78,
      "t_note_us": 166275230,
      "t_trigger_us": 166139267,
      "is_ai": false,
      "track_id": 0,
      "velocity": 0,
      "is_motor": true,
      "motor_id": 2,
      "accel_val": 2000,
      "base_duration_us": 254236
    },
    {
      "id": "M_1556",
      "pitch": 63,
      "t_note_us": 166524170,
      "t_trigger_us": 166388207,
      "is_ai": false,
      "track_id": 0,
      "velocity": 0,
      "is_motor": true,
      "motor_id": 1,
      "accel_val": 2000,
      "base_duration_us": 254236
    },
    {
      "id": "M_1557",
      "pitch": 59,
      "t_note_us": 166524170,
      "t_trigger_us": 166388207,
      "is_ai": false,
      "track_id": 0,
      "velocity": 0,
      "is_motor": true,
      "motor_id": 0,
      "accel_val": 2000,
      "base_duration_us": 254236
    },
    {
      "id": "M_1559",
      "pitch": 96,
      "t_note_us": 166529466,
      "t_trigger_us": 166393503,
      "is_ai": true,
      "track_id": 10,
      "velocity": 0,
      "is_motor": false,
      "motor_id": 0,
      "accel_val": 2000,
      "base_duration_us": 254236
    },
    {
      "id": "M_1558",
      "pitch": 78,
      "t_note_us": 166529466,
      "t_trigger_us": 166393503,
      "is_ai": false,
      "track_id": 0,
      "velocity": 0,
      "is_motor": true,
      "motor_id": 2,
      "accel_val": 2000,
      "base_duration_us": 254236
    },
    {
      "id": "M_1560",
      "pitch": 54,
      "t_note_us": 166778406,
      "t_trigger_us": 166642443,
      "is_ai": false,
      "track_id": 0,
      "velocity": 0,
      "is_motor": true,
      "motor_id": 0,
      "accel_val": 2000,
      "base_duration_us": 127117
    },
    {
      "id": "M_1561",
      "pitch": 95,
      "t_note_us": 166783702,
      "t_trigger_us": 166647739,
      "is_ai": true,
      "track_id": 9,
      "velocity": 0,
      "is_motor": false,
      "motor_id": 0,
      "accel_val": 2000,
      "base_duration_us": 254234
    },
    {
      "id": "M_1562",
      "pitch": 98,
      "t_note_us": 166783702,
      "t_trigger_us": 166647739,
      "is_ai": true,
      "track_id": 11,
      "velocity": 0,
      "is_motor": false,
      "motor_id": 0,
      "accel_val": 2000,
      "base_duration_us": 254234
    },
    {
      "id": "M_1563",
      "pitch": 63,
      "t_note_us": 166947895,
      "t_trigger_us": 166811932,
      "is_ai": false,
      "track_id": 0,
      "velocity": 0,
      "is_motor": true,
      "motor_id": 1,
      "accel_val": 2000,
      "base_duration_us": 127117
    },
    {
      "id": "M_1564",
      "pitch": 47,
      "t_note_us": 167032640,
      "t_trigger_us": 166896677,
      "is_ai": false,
      "track_id": 0,
      "velocity": 0,
      "is_motor": true,
      "motor_id": 0,
      "accel_val": 2000,
      "base_duration_us": 254236
    },
    {
      "id": "M_1565",
      "pitch": 95,
      "t_note_us": 167037936,
      "t_trigger_us": 166901973,
      "is_ai": true,
      "track_id": 9,
      "velocity": 0,
      "is_motor": false,
      "motor_id": 0,
      "accel_val": 2000,
      "base_duration_us": 254236
    },
    {
      "id": "M_1566",
      "pitch": 102,
      "t_note_us": 167037936,
      "t_trigger_us": 166901973,
      "is_ai": true,
      "track_id": 0,
      "velocity": 0,
      "is_motor": true,
      "motor_id": 3,
      "accel_val": 2000,
      "base_duration_us": 254236
    },
    {
      "id": "M_1567",
      "pitch": 52,
      "t_note_us": 167286876,
      "t_trigger_us": 167150913,
      "is_ai": false,
      "track_id": 0,
      "velocity": 0,
      "is_motor": true,
      "motor_id": 0,
      "accel_val": 2000,
      "base_duration_us": 254236
    },
    {
      "id": "M_1568",
      "pitch": 103,
      "t_note_us": 167292172,
      "t_trigger_us": 167156209,
      "is_ai": true,
      "track_id": 14,
      "velocity": 0,
      "is_motor": false,
      "motor_id": 0,
      "accel_val": 2000,
      "base_duration_us": 254236
    },
    {
      "id": "M_1569",
      "pitch": 100,
      "t_note_us": 167292172,
      "t_trigger_us": 167156209,
      "is_ai": true,
      "track_id": 12,
      "velocity": 0,
      "is_motor": false,
      "motor_id": 0,
      "accel_val": 2000,
      "base_duration_us": 254236
    },
    {
      "id": "M_1570",
      "pitch": 95,
      "t_note_us": 167292172,
      "t_trigger_us": 167156209,
      "is_ai": true,
      "track_id": 9,
      "velocity": 0,
      "is_motor": false,
      "motor_id": 0,
      "accel_val": 2000,
      "base_duration_us": 254236
    },
    {
      "id": "M_1571",
      "pitch": 67,
      "t_note_us": 167541112,
      "t_trigger_us": 167405149,
      "is_ai": false,
      "track_id": 0,
      "velocity": 0,
      "is_motor": true,
      "motor_id": 1,
      "accel_val": 2000,
      "base_duration_us": 254236
    },
    {
      "id": "M_1572",
      "pitch": 64,
      "t_note_us": 167541112,
      "t_trigger_us": 167405149,
      "is_ai": false,
      "track_id": 0,
      "velocity": 0,
      "is_motor": true,
      "motor_id": 0,
      "accel_val": 2000,
      "base_duration_us": 254236
    },
    {
      "id": "M_1573",
      "pitch": 91,
      "t_note_us": 167546408,
      "t_trigger_us": 167410445,
      "is_ai": true,
      "track_id": 7,
      "velocity": 0,
      "is_motor": false,
      "motor_id": 0,
      "accel_val": 2000,
      "base_duration_us": 254236
    },
    {
      "id": "M_1574",
      "pitch": 98,
      "t_note_us": 167546408,
      "t_trigger_us": 167410445,
      "is_ai": true,
      "track_id": 11,
      "velocity": 0,
      "is_motor": false,
      "motor_id": 0,
      "accel_val": 2000,
      "base_duration_us": 254236
    },
    {
      "id": "M_1575",
      "pitch": 59,
      "t_note_us": 167795348,
      "t_trigger_us": 167659385,
      "is_ai": false,
      "track_id": 0,
      "velocity": 0,
      "is_motor": true,
      "motor_id": 0,
      "accel_val": 2000,
      "base_duration_us": 127117
    },
    {
      "id": "M_1576",
      "pitch": 98,
      "t_note_us": 167800644,
      "t_trigger_us": 167664681,
      "is_ai": true,
      "track_id": 11,
      "velocity": 0,
      "is_motor": false,
      "motor_id": 0,
      "accel_val": 2000,
      "base_duration_us": 254234
    },
    {
      "id": "M_1577",
      "pitch": 91,
      "t_note_us": 167800644,
      "t_trigger_us": 167664681,
      "is_ai": true,
      "track_id": 7,
      "velocity": 0,
      "is_motor": false,
      "motor_id": 0,
      "accel_val": 2000,
      "base_duration_us": 254234
    },
    {
      "id": "M_1578",
      "pitch": 67,
      "t_note_us": 167964837,
      "t_trigger_us": 167828874,
      "is_ai": false,
      "track_id": 0,
      "velocity": 0,
      "is_motor": true,
      "motor_id": 1,
      "accel_val": 2000,
      "base_duration_us": 127117
    },
    {
      "id": "M_1579",
      "pitch": 52,
      "t_note_us": 168049582,
      "t_trigger_us": 167913619,
      "is_ai": false,
      "track_id": 0,
      "velocity": 0,
      "is_motor": true,
      "motor_id": 0,
      "accel_val": 2000,
      "base_duration_us": 254236
    },
    {
      "id": "M_1580",
      "pitch": 96,
      "t_note_us": 168054878,
      "t_trigger_us": 167918915,
      "is_ai": true,
      "track_id": 10,
      "velocity": 0,
      "is_motor": false,
      "motor_id": 0,
      "accel_val": 2000,
      "base_duration_us": 254236
    },
    {
      "id": "M_1581",
      "pitch": 91,
      "t_note_us": 168054878,
      "t_trigger_us": 167918915,
      "is_ai": true,
      "track_id": 7,
      "velocity": 0,
      "is_motor": false,
      "motor_id": 0,
      "accel_val": 2000,
      "base_duration_us": 254236
    },
    {
      "id": "M_1582",
      "pitch": 55,
      "t_note_us": 168303818,
      "t_trigger_us": 168167855,
      "is_ai": false,
      "track_id": 0,
      "velocity": 0,
      "is_motor": true,
      "motor_id": 0,
      "accel_val": 2000,
      "base_duration_us": 254236
    },
    {
      "id": "M_1584",
      "pitch": 96,
      "t_note_us": 168309114,
      "t_trigger_us": 168173151,
      "is_ai": true,
      "track_id": 10,
      "velocity": 0,
      "is_motor": false,
      "motor_id": 0,
      "accel_val": 2000,
      "base_duration_us": 254236
    },
    {
      "id": "M_1585",
      "pitch": 91,
      "t_note_us": 168309114,
      "t_trigger_us": 168173151,
      "is_ai": true,
      "track_id": 7,
      "velocity": 0,
      "is_motor": false,
      "motor_id": 0,
      "accel_val": 2000,
      "base_duration_us": 254236
    },
    {
      "id": "M_1583",
      "pitch": 74,
      "t_note_us": 168309114,
      "t_trigger_us": 168173151,
      "is_ai": false,
      "track_id": 0,
      "velocity": 0,
      "is_motor": true,
      "motor_id": 1,
      "accel_val": 2000,
      "base_duration_us": 254236
    },
    {
      "id": "M_1586",
      "pitch": 65,
      "t_note_us": 168558054,
      "t_trigger_us": 168422091,
      "is_ai": false,
      "track_id": 0,
      "velocity": 0,
      "is_motor": true,
      "motor_id": 0,
      "accel_val": 2000,
      "base_duration_us": 254236
    },
    {
      "id": "M_1587",
      "pitch": 71,
      "t_note_us": 168558054,
      "t_trigger_us": 168422091,
      "is_ai": false,
      "track_id": 0,
      "velocity": 0,
      "is_motor": true,
      "motor_id": 2,
      "accel_val": 2000,
      "base_duration_us": 254236
    },
    {
      "id": "M_1588",
      "pitch": 95,
      "t_note_us": 168563350,
      "t_trigger_us": 168427387,
      "is_ai": true,
      "track_id": 9,
      "velocity": 0,
      "is_motor": false,
      "motor_id": 0,
      "accel_val": 2000,
      "base_duration_us": 254236
    },
    {
      "id": "M_1589",
      "pitch": 91,
      "t_note_us": 168563350,
      "t_trigger_us": 168427387,
      "is_ai": true,
      "track_id": 7,
      "velocity": 0,
      "is_motor": false,
      "motor_id": 0,
      "accel_val": 2000,
      "base_duration_us": 254236
    },
    {
      "id": "M_1590",
      "pitch": 62,
      "t_note_us": 168812290,
      "t_trigger_us": 168676327,
      "is_ai": false,
      "track_id": 0,
      "velocity": 0,
      "is_motor": true,
      "motor_id": 1,
      "accel_val": 2000,
      "base_duration_us": 127117
    },
    {
      "id": "M_1593",
      "pitch": 86,
      "t_note_us": 168817586,
      "t_trigger_us": 168681623,
      "is_ai": true,
      "track_id": 4,
      "velocity": 0,
      "is_motor": false,
      "motor_id": 0,
      "accel_val": 2000,
      "base_duration_us": 508470
    },
    {
      "id": "M_1594",
      "pitch": 95,
      "t_note_us": 168817586,
      "t_trigger_us": 168681623,
      "is_ai": true,
      "track_id": 9,
      "velocity": 0,
      "is_motor": false,
      "motor_id": 0,
      "accel_val": 2000,
      "base_duration_us": 508470
    },
    {
      "id": "M_1591",
      "pitch": 71,
      "t_note_us": 168981779,
      "t_trigger_us": 168845816,
      "is_ai": false,
      "track_id": 0,
      "velocity": 0,
      "is_motor": true,
      "motor_id": 1,
      "accel_val": 2000,
      "base_duration_us": 127117
    },
    {
      "id": "M_1592",
      "pitch": 55,
      "t_note_us": 169066524,
      "t_trigger_us": 168930561,
      "is_ai": false,
      "track_id": 0,
      "velocity": 0,
      "is_motor": true,
      "motor_id": 0,
      "accel_val": 2000,
      "base_duration_us": 254236
    },
    {
      "id": "M_1595",
      "pitch": 48,
      "t_note_us": 169320760,
      "t_trigger_us": 169184797,
      "is_ai": false,
      "track_id": 0,
      "velocity": 0,
      "is_motor": true,
      "motor_id": 0,
      "accel_val": 2000,
      "base_duration_us": 254236
    },
    {
      "id": "M_1596",
      "pitch": 64,
      "t_note_us": 169574996,
      "t_trigger_us": 169439033,
      "is_ai": false,
      "track_id": 0,
      "velocity": 0,
      "is_motor": true,
      "motor_id": 1,
      "accel_val": 2000,
      "base_duration_us": 254236
    },
    {
      "id": "M_1597",
      "pitch": 60,
      "t_note_us": 169574996,
      "t_trigger_us": 169439033,
      "is_ai": false,
      "track_id": 0,
      "velocity": 0,
      "is_motor": true,
      "motor_id": 0,
      "accel_val": 2000,
      "base_duration_us": 254236
    },
    {
      "id": "M_1598",
      "pitch": 91,
      "t_note_us": 169580292,
      "t_trigger_us": 169444329,
      "is_ai": true,
      "track_id": 7,
      "velocity": 0,
      "is_motor": false,
      "motor_id": 0,
      "accel_val": 2000,
      "base_duration_us": 254236
    },
    {
      "id": "M_1599",
      "pitch": 88,
      "t_note_us": 169580292,
      "t_trigger_us": 169444329,
      "is_ai": true,
      "track_id": 5,
      "velocity": 0,
      "is_motor": false,
      "motor_id": 0,
      "accel_val": 2000,
      "base_duration_us": 254236
    },
    {
      "id": "M_1600",
      "pitch": 55,
      "t_note_us": 169829232,
      "t_trigger_us": 169693269,
      "is_ai": false,
      "track_id": 0,
      "velocity": 0,
      "is_motor": true,
      "motor_id": 0,
      "accel_val": 2000,
      "base_duration_us": 127117
    },
    {
      "id": "M_1603",
      "pitch": 98,
      "t_note_us": 169834528,
      "t_trigger_us": 169698565,
      "is_ai": true,
      "track_id": 11,
      "velocity": 0,
      "is_motor": false,
      "motor_id": 0,
      "accel_val": 2000,
      "base_duration_us": 508470
    },
    {
      "id": "M_1604",
      "pitch": 91,
      "t_note_us": 169834528,
      "t_trigger_us": 169698565,
      "is_ai": true,
      "track_id": 7,
      "velocity": 0,
      "is_motor": false,
      "motor_id": 0,
      "accel_val": 2000,
      "base_duration_us": 508470
    },
    {
      "id": "M_1601",
      "pitch": 64,
      "t_note_us": 169998721,
      "t_trigger_us": 169862758,
      "is_ai": false,
      "track_id": 0,
      "velocity": 0,
      "is_motor": true,
      "motor_id": 1,
      "accel_val": 2000,
      "base_duration_us": 127117
    },
    {
      "id": "M_1602",
      "pitch": 48,
      "t_note_us": 170083466,
      "t_trigger_us": 169947503,
      "is_ai": false,
      "track_id": 0,
      "velocity": 0,
      "is_motor": true,
      "motor_id": 0,
      "accel_val": 2000,
      "base_duration_us": 254236
    },
    {
      "id": "M_1605",
      "pitch": 54,
      "t_note_us": 170337702,
      "t_trigger_us": 170201739,
      "is_ai": false,
      "track_id": 0,
      "velocity": 0,
      "is_motor": true,
      "motor_id": 0,
      "accel_val": 2000,
      "base_duration_us": 254236
    },
    {
      "id": "M_1606",
      "pitch": 96,
      "t_note_us": 170342998,
      "t_trigger_us": 170207035,
      "is_ai": true,
      "track_id": 10,
      "velocity": 0,
      "is_motor": false,
      "motor_id": 0,
      "accel_val": 2000,
      "base_duration_us": 254236
    },
    {
      "id": "M_1607",
      "pitch": 78,
      "t_note_us": 170342998,
      "t_trigger_us": 170207035,
      "is_ai": false,
      "track_id": 0,
      "velocity": 0,
      "is_motor": true,
      "motor_id": 2,
      "accel_val": 2000,
      "base_duration_us": 254236
    },
    {
      "id": "M_1608",
      "pitch": 69,
      "t_note_us": 170591938,
      "t_trigger_us": 170455975,
      "is_ai": false,
      "track_id": 0,
      "velocity": 0,
      "is_motor": true,
      "motor_id": 1,
      "accel_val": 2000,
      "base_duration_us": 254236
    },
    {
      "id": "M_1609",
      "pitch": 66,
      "t_note_us": 170591938,
      "t_trigger_us": 170455975,
      "is_ai": false,
      "track_id": 0,
      "velocity": 0,
      "is_motor": true,
      "motor_id": 0,
      "accel_val": 2000,
      "base_duration_us": 254236
    },
    {
      "id": "M_1610",
      "pitch": 95,
      "t_note_us": 170597234,
      "t_trigger_us": 170461271,
      "is_ai": true,
      "track_id": 9,
      "velocity": 0,
      "is_motor": false,
      "motor_id": 0,
      "accel_val": 2000,
      "base_duration_us": 254236
    },
    {
      "id": "M_1611",
      "pitch": 78,
      "t_note_us": 170597234,
      "t_trigger_us": 170461271,
      "is_ai": false,
      "track_id": 0,
      "velocity": 0,
      "is_motor": true,
      "motor_id": 2,
      "accel_val": 2000,
      "base_duration_us": 254236
    },
    {
      "id": "M_1612",
      "pitch": 63,
      "t_note_us": 170846174,
      "t_trigger_us": 170710211,
      "is_ai": false,
      "track_id": 0,
      "velocity": 0,
      "is_motor": true,
      "motor_id": 1,
      "accel_val": 2000,
      "base_duration_us": 127117
    },
    {
      "id": "M_1613",
      "pitch": 95,
      "t_note_us": 170851470,
      "t_trigger_us": 170715507,
      "is_ai": true,
      "track_id": 9,
      "velocity": 0,
      "is_motor": false,
      "motor_id": 0,
      "accel_val": 2000,
      "base_duration_us": 254234
    },
    {
      "id": "M_1614",
      "pitch": 90,
      "t_note_us": 170851470,
      "t_trigger_us": 170715507,
      "is_ai": true,
      "track_id": 0,
      "velocity": 0,
      "is_motor": true,
      "motor_id": 3,
      "accel_val": 2000,
      "base_duration_us": 254234
    },
    {
      "id": "M_1615",
      "pitch": 69,
      "t_note_us": 171015663,
      "t_trigger_us": 170879700,
      "is_ai": false,
      "track_id": 0,
      "velocity": 0,
      "is_motor": true,
      "motor_id": 1,
      "accel_val": 2000,
      "base_duration_us": 127117
    },
    {
      "id": "M_1616",
      "pitch": 54,
      "t_note_us": 171100408,
      "t_trigger_us": 170964445,
      "is_ai": false,
      "track_id": 0,
      "velocity": 0,
      "is_motor": true,
      "motor_id": 0,
      "accel_val": 2000,
      "base_duration_us": 254236
    },
    {
      "id": "M_1617",
      "pitch": 93,
      "t_note_us": 171105704,
      "t_trigger_us": 170969741,
      "is_ai": true,
      "track_id": 8,
      "velocity": 0,
      "is_motor": false,
      "motor_id": 0,
      "accel_val": 2000,
      "base_duration_us": 254236
    },
    {
      "id": "M_1618",
      "pitch": 90,
      "t_note_us": 171105704,
      "t_trigger_us": 170969741,
      "is_ai": true,
      "track_id": 0,
      "velocity": 0,
      "is_motor": true,
      "motor_id": 3,
      "accel_val": 2000,
      "base_duration_us": 254236
    },
    {
      "id": "M_1619",
      "pitch": 52,
      "t_note_us": 171354644,
      "t_trigger_us": 171218681,
      "is_ai": false,
      "track_id": 0,
      "velocity": 0,
      "is_motor": true,
      "motor_id": 0,
      "accel_val": 2000,
      "base_duration_us": 254236
    },
    {
      "id": "M_1620",
      "pitch": 88,
      "t_note_us": 171359940,
      "t_trigger_us": 171223977,
      "is_ai": true,
      "track_id": 5,
      "velocity": 0,
      "is_motor": false,
      "motor_id": 0,
      "accel_val": 2000,
      "base_duration_us": 254236
    },
    {
      "id": "M_1621",
      "pitch": 95,
      "t_note_us": 171359940,
      "t_trigger_us": 171223977,
      "is_ai": true,
      "track_id": 9,
      "velocity": 0,
      "is_motor": false,
      "motor_id": 0,
      "accel_val": 2000,
      "base_duration_us": 254236
    },
    {
      "id": "M_1622",
      "pitch": 67,
      "t_note_us": 171608880,
      "t_trigger_us": 171472917,
      "is_ai": false,
      "track_id": 0,
      "velocity": 0,
      "is_motor": true,
      "motor_id": 1,
      "accel_val": 2000,
      "base_duration_us": 254236
    },
    {
      "id": "M_1623",
      "pitch": 64,
      "t_note_us": 171608880,
      "t_trigger_us": 171472917,
      "is_ai": false,
      "track_id": 0,
      "velocity": 0,
      "is_motor": true,
      "motor_id": 0,
      "accel_val": 2000,
      "base_duration_us": 254236
    },
    {
      "id": "M_1624",
      "pitch": 91,
      "t_note_us": 171614176,
      "t_trigger_us": 171478213,
      "is_ai": true,
      "track_id": 7,
      "velocity": 0,
      "is_motor": false,
      "motor_id": 0,
      "accel_val": 2000,
      "base_duration_us": 254236
    },
    {
      "id": "M_1625",
      "pitch": 88,
      "t_note_us": 171614176,
      "t_trigger_us": 171478213,
      "is_ai": true,
      "track_id": 5,
      "velocity": 0,
      "is_motor": false,
      "motor_id": 0,
      "accel_val": 2000,
      "base_duration_us": 254236
    },
    {
      "id": "M_1626",
      "pitch": 59,
      "t_note_us": 171863116,
      "t_trigger_us": 171727153,
      "is_ai": false,
      "track_id": 0,
      "velocity": 0,
      "is_motor": true,
      "motor_id": 0,
      "accel_val": 2000,
      "base_duration_us": 127117
    },
    {
      "id": "M_1628",
      "pitch": 86,
      "t_note_us": 171868412,
      "t_trigger_us": 171732449,
      "is_ai": true,
      "track_id": 4,
      "velocity": 0,
      "is_motor": false,
      "motor_id": 0,
      "accel_val": 2000,
      "base_duration_us": 254234
    },
    {
      "id": "M_1627",
      "pitch": 67,
      "t_note_us": 171868412,
      "t_trigger_us": 171732449,
      "is_ai": false,
      "track_id": 0,
      "velocity": 0,
      "is_motor": true,
      "motor_id": 1,
      "accel_val": 2000,
      "base_duration_us": 254234
    },
    {
      "id": "M_1629",
      "pitch": 67,
      "t_note_us": 172032605,
      "t_trigger_us": 171896642,
      "is_ai": false,
      "track_id": 0,
      "velocity": 0,
      "is_motor": true,
      "motor_id": 2,
      "accel_val": 2000,
      "base_duration_us": 127117
    },
    {
      "id": "M_1630",
      "pitch": 52,
      "t_note_us": 172117350,
      "t_trigger_us": 171981387,
      "is_ai": false,
      "track_id": 0,
      "velocity": 0,
      "is_motor": true,
      "motor_id": 0,
      "accel_val": 2000,
      "base_duration_us": 254236
    },
    {
      "id": "M_1631",
      "pitch": 67,
      "t_note_us": 172122646,
      "t_trigger_us": 171986683,
      "is_ai": false,
      "track_id": 0,
      "velocity": 0,
      "is_motor": true,
      "motor_id": 1,
      "accel_val": 2000,
      "base_duration_us": 254236
    },
    {
      "id": "M_1632",
      "pitch": 72,
      "t_note_us": 172122646,
      "t_trigger_us": 171986683,
      "is_ai": false,
      "track_id": 0,
      "velocity": 0,
      "is_motor": true,
      "motor_id": 3,
      "accel_val": 2000,
      "base_duration_us": 254236
    },
    {
      "id": "M_1633",
      "pitch": 55,
      "t_note_us": 172371586,
      "t_trigger_us": 172235623,
      "is_ai": false,
      "track_id": 0,
      "velocity": 0,
      "is_motor": true,
      "motor_id": 0,
      "accel_val": 2000,
      "base_duration_us": 254236
    },
    {
      "id": "M_1634",
      "pitch": 86,
      "t_note_us": 172376882,
      "t_trigger_us": 172240919,
      "is_ai": true,
      "track_id": 4,
      "velocity": 0,
      "is_motor": false,
      "motor_id": 0,
      "accel_val": 2000,
      "base_duration_us": 254236
    },
    {
      "id": "M_1635",
      "pitch": 93,
      "t_note_us": 172376882,
      "t_trigger_us": 172240919,
      "is_ai": true,
      "track_id": 8,
      "velocity": 0,
      "is_motor": false,
      "motor_id": 0,
      "accel_val": 2000,
      "base_duration_us": 254236
    },
    {
      "id": "M_1636",
      "pitch": 67,
      "t_note_us": 172625822,
      "t_trigger_us": 172489859,
      "is_ai": false,
      "track_id": 0,
      "velocity": 0,
      "is_motor": true,
      "motor_id": 1,
      "accel_val": 2000,
      "base_duration_us": 254236
    },
    {
      "id": "M_1637",
      "pitch": 71,
      "t_note_us": 172625822,
      "t_trigger_us": 172489859,
      "is_ai": false,
      "track_id": 0,
      "velocity": 0,
      "is_motor": true,
      "motor_id": 2,
      "accel_val": 2000,
      "base_duration_us": 254236
    },
    {
      "id": "M_1638",
      "pitch": 86,
      "t_note_us": 172631118,
      "t_trigger_us": 172495155,
      "is_ai": true,
      "track_id": 4,
      "velocity": 0,
      "is_motor": false,
      "motor_id": 0,
      "accel_val": 2000,
      "base_duration_us": 254236
    },
    {
      "id": "M_1639",
      "pitch": 91,
      "t_note_us": 172631118,
      "t_trigger_us": 172495155,
      "is_ai": true,
      "track_id": 7,
      "velocity": 0,
      "is_motor": false,
      "motor_id": 0,
      "accel_val": 2000,
      "base_duration_us": 254236
    },
    {
      "id": "M_1640",
      "pitch": 62,
      "t_note_us": 172880058,
      "t_trigger_us": 172744095,
      "is_ai": false,
      "track_id": 0,
      "velocity": 0,
      "is_motor": true,
      "motor_id": 1,
      "accel_val": 2000,
      "base_duration_us": 127117
    },
    {
      "id": "M_1643",
      "pitch": 86,
      "t_note_us": 172885354,
      "t_trigger_us": 172749391,
      "is_ai": true,
      "track_id": 4,
      "velocity": 0,
      "is_motor": false,
      "motor_id": 0,
      "accel_val": 2000,
      "base_duration_us": 508470
    },
    {
      "id": "M_1644",
      "pitch": 91,
      "t_note_us": 172885354,
      "t_trigger_us": 172749391,
      "is_ai": true,
      "track_id": 7,
      "velocity": 0,
      "is_motor": false,
      "motor_id": 0,
      "accel_val": 2000,
      "base_duration_us": 508470
    },
    {
      "id": "M_1641",
      "pitch": 71,
      "t_note_us": 173049547,
      "t_trigger_us": 172913584,
      "is_ai": false,
      "track_id": 0,
      "velocity": 0,
      "is_motor": true,
      "motor_id": 1,
      "accel_val": 2000,
      "base_duration_us": 127117
    },
    {
      "id": "M_1642",
      "pitch": 67,
      "t_note_us": 173134292,
      "t_trigger_us": 172998329,
      "is_ai": false,
      "track_id": 0,
      "velocity": 0,
      "is_motor": true,
      "motor_id": 2,
      "accel_val": 2000,
      "base_duration_us": 254236
    },
    {
      "id": "M_1645",
      "pitch": 48,
      "t_note_us": 173388528,
      "t_trigger_us": 173252565,
      "is_ai": false,
      "track_id": 0,
      "velocity": 0,
      "is_motor": true,
      "motor_id": 0,
      "accel_val": 2000,
      "base_duration_us": 127117
    },
    {
      "id": "M_1646",
      "pitch": 64,
      "t_note_us": 173558017,
      "t_trigger_us": 173422054,
      "is_ai": false,
      "track_id": 0,
      "velocity": 0,
      "is_motor": true,
      "motor_id": 1,
      "accel_val": 2000,
      "base_duration_us": 254237
    },
    {
      "id": "M_1647",
      "pitch": 60,
      "t_note_us": 173558017,
      "t_trigger_us": 173422054,
      "is_ai": false,
      "track_id": 0,
      "velocity": 0,
      "is_motor": true,
      "motor_id": 0,
      "accel_val": 2000,
      "base_duration_us": 254237
    },
    {
      "id": "M_1648",
      "pitch": 55,
      "t_note_us": 173812254,
      "t_trigger_us": 173676291,
      "is_ai": false,
      "track_id": 0,
      "velocity": 0,
      "is_motor": true,
      "motor_id": 0,
      "accel_val": 2000,
      "base_duration_us": 127117
    },
    {
      "id": "M_1649",
      "pitch": 60,
      "t_note_us": 173896999,
      "t_trigger_us": 173761036,
      "is_ai": false,
      "track_id": 0,
      "velocity": 0,
      "is_motor": true,
      "motor_id": 1,
      "accel_val": 2000,
      "base_duration_us": 127117
    },
    {
      "id": "M_1650",
      "pitch": 95,
      "t_note_us": 173902295,
      "t_trigger_us": 173766332,
      "is_ai": true,
      "track_id": 9,
      "velocity": 0,
      "is_motor": false,
      "motor_id": 0,
      "accel_val": 2000,
      "base_duration_us": 127117
    },
    {
      "id": "M_1651",
      "pitch": 64,
      "t_note_us": 174066488,
      "t_trigger_us": 173930525,
      "is_ai": false,
      "track_id": 0,
      "velocity": 0,
      "is_motor": true,
      "motor_id": 1,
      "accel_val": 2000,
      "base_duration_us": 127117
    },
    {
      "id": "M_1652",
      "pitch": 94,
      "t_note_us": 174071784,
      "t_trigger_us": 173935821,
      "is_ai": true,
      "track_id": 0,
      "velocity": 0,
      "is_motor": true,
      "motor_id": 3,
      "accel_val": 2000,
      "base_duration_us": 127117
    },
    {
      "id": "M_1654",
      "pitch": 48,
      "t_note_us": 174151233,
      "t_trigger_us": 174015270,
      "is_ai": false,
      "track_id": 0,
      "velocity": 0,
      "is_motor": true,
      "motor_id": 0,
      "accel_val": 2000,
      "base_duration_us": 254234
    },
    {
      "id": "M_1653",
      "pitch": 95,
      "t_note_us": 174156529,
      "t_trigger_us": 174020566,
      "is_ai": true,
      "track_id": 9,
      "velocity": 0,
      "is_motor": false,
      "motor_id": 0,
      "accel_val": 2000,
      "base_duration_us": 127117
    },
    {
      "id": "M_1656",
      "pitch": 78,
      "t_note_us": 174326018,
      "t_trigger_us": 174190055,
      "is_ai": false,
      "track_id": 0,
      "velocity": 0,
      "is_motor": true,
      "motor_id": 2,
      "accel_val": 2000,
      "base_duration_us": 381353
    },
    {
      "id": "M_1655",
      "pitch": 47,
      "t_note_us": 174405467,
      "t_trigger_us": 174269504,
      "is_ai": false,
      "track_id": 0,
      "velocity": 0,
      "is_motor": true,
      "motor_id": 0,
      "accel_val": 2000,
      "base_duration_us": 127118
    },
    {
      "id": "M_1658",
      "pitch": 63,
      "t_note_us": 174574957,
      "t_trigger_us": 174438994,
      "is_ai": false,
      "track_id": 0,
      "velocity": 0,
      "is_motor": true,
      "motor_id": 1,
      "accel_val": 2000,
      "base_duration_us": 254235
    },
    {
      "id": "M_1659",
      "pitch": 59,
      "t_note_us": 174574957,
      "t_trigger_us": 174438994,
      "is_ai": false,
      "track_id": 0,
      "velocity": 0,
      "is_motor": true,
      "motor_id": 0,
      "accel_val": 2000,
      "base_duration_us": 254235
    },
    {
      "id": "M_1657",
      "pitch": 76,
      "t_note_us": 174664999,
      "t_trigger_us": 174529036,
      "is_ai": false,
      "track_id": 0,
      "velocity": 0,
      "is_motor": true,
      "motor_id": 3,
      "accel_val": 2000,
      "base_duration_us": 127117
    },
    {
      "id": "M_1660",
      "pitch": 54,
      "t_note_us": 174829192,
      "t_trigger_us": 174693229,
      "is_ai": false,
      "track_id": 0,
      "velocity": 0,
      "is_motor": true,
      "motor_id": 0,
      "accel_val": 2000,
      "base_duration_us": 127117
    },
    {
      "id": "M_1661",
      "pitch": 59,
      "t_note_us": 174913937,
      "t_trigger_us": 174777974,
      "is_ai": false,
      "track_id": 0,
      "velocity": 0,
      "is_motor": true,
      "motor_id": 1,
      "accel_val": 2000,
      "base_duration_us": 127117
    },
    {
      "id": "M_1662",
      "pitch": 71,
      "t_note_us": 174919233,
      "t_trigger_us": 174783270,
      "is_ai": false,
      "track_id": 0,
      "velocity": 0,
      "is_motor": true,
      "motor_id": 2,
      "accel_val": 2000,
      "base_duration_us": 127117
    },
    {
      "id": "M_1663",
      "pitch": 63,
      "t_note_us": 175083426,
      "t_trigger_us": 174947463,
      "is_ai": false,
      "track_id": 0,
      "velocity": 0,
      "is_motor": true,
      "motor_id": 1,
      "accel_val": 2000,
      "base_duration_us": 127117
    },
    {
      "id": "M_1664",
      "pitch": 78,
      "t_note_us": 175088722,
      "t_trigger_us": 174952759,
      "is_ai": false,
      "track_id": 0,
      "velocity": 0,
      "is_motor": true,
      "motor_id": 2,
      "accel_val": 2000,
      "base_duration_us": 127117
    },
    {
      "id": "M_1665",
      "pitch": 47,
      "t_note_us": 175168171,
      "t_trigger_us": 175032208,
      "is_ai": false,
      "track_id": 0,
      "velocity": 0,
      "is_motor": true,
      "motor_id": 0,
      "accel_val": 2000,
      "base_duration_us": 254235
    },
    {
      "id": "M_1667",
      "pitch": 86,
      "t_note_us": 175342957,
      "t_trigger_us": 175206994,
      "is_ai": true,
      "track_id": 4,
      "velocity": 0,
      "is_motor": false,
      "motor_id": 0,
      "accel_val": 2000,
      "base_duration_us": 381353
    },
    {
      "id": "M_1666",
      "pitch": 52,
      "t_note_us": 175422406,
      "t_trigger_us": 175286443,
      "is_ai": false,
      "track_id": 0,
      "velocity": 0,
      "is_motor": true,
      "motor_id": 0,
      "accel_val": 2000,
      "base_duration_us": 127118
    },
    {
      "id": "M_1669",
      "pitch": 67,
      "t_note_us": 175591896,
      "t_trigger_us": 175455933,
      "is_ai": false,
      "track_id": 0,
      "velocity": 0,
      "is_motor": true,
      "motor_id": 1,
      "accel_val": 2000,
      "base_duration_us": 254234
    },
    {
      "id": "M_1670",
      "pitch": 64,
      "t_note_us": 175591896,
      "t_trigger_us": 175455933,
      "is_ai": false,
      "track_id": 0,
      "velocity": 0,
      "is_motor": true,
      "motor_id": 0,
      "accel_val": 2000,
      "base_duration_us": 254234
    },
    {
      "id": "M_1668",
      "pitch": 93,
      "t_note_us": 175681938,
      "t_trigger_us": 175545975,
      "is_ai": true,
      "track_id": 8,
      "velocity": 0,
      "is_motor": true,
      "motor_id": 3,
      "accel_val": 2000,
      "base_duration_us": 128440
    },
    {
      "id": "M_1671",
      "pitch": 91,
      "t_note_us": 175768006,
      "t_trigger_us": 175632043,
      "is_ai": true,
      "track_id": 7,
      "velocity": 0,
      "is_motor": true,
      "motor_id": 2,
      "accel_val": 2000,
      "base_duration_us": 128440
    },
    {
      "id": "M_1672",
      "pitch": 59,
      "t_note_us": 175846130,
      "t_trigger_us": 175710167,
      "is_ai": false,
      "track_id": 0,
      "velocity": 0,
      "is_motor": true,
      "motor_id": 0,
      "accel_val": 2000,
      "base_duration_us": 127114
    },
    {
      "id": "M_1673",
      "pitch": 90,
      "t_note_us": 175852750,
      "t_trigger_us": 175716787,
      "is_ai": true,
      "track_id": 0,
      "velocity": 0,
      "is_motor": true,
      "motor_id": 3,
      "accel_val": 2000,
      "base_duration_us": 128438
    },
    {
      "id": "M_1674",
      "pitch": 64,
      "t_note_us": 175930873,
      "t_trigger_us": 175794910,
      "is_ai": false,
      "track_id": 0,
      "velocity": 0,
      "is_motor": true,
      "motor_id": 1,
      "accel_val": 2000,
      "base_duration_us": 127115
    },
    {
      "id": "M_1675",
      "pitch": 91,
      "t_note_us": 175938817,
      "t_trigger_us": 175802854,
      "is_ai": true,
      "track_id": 7,
      "velocity": 0,
      "is_motor": true,
      "motor_id": 2,
      "accel_val": 2000,
      "base_duration_us": 127115
    },
    {
      "id": "M_1676",
      "pitch": 67,
      "t_note_us": 176100359,
      "t_trigger_us": 175964396,
      "is_ai": false,
      "track_id": 0,
      "velocity": 0,
      "is_motor": true,
      "motor_id": 1,
      "accel_val": 2000,
      "base_duration_us": 127116
    },
    {
      "id": "M_1677",
      "pitch": 78,
      "t_note_us": 176108303,
      "t_trigger_us": 175972340,
      "is_ai": false,
      "track_id": 0,
      "velocity": 0,
      "is_motor": true,
      "motor_id": 2,
      "accel_val": 2000,
      "base_duration_us": 127116
    },
    {
      "id": "M_1678",
      "pitch": 52,
      "t_note_us": 176185103,
      "t_trigger_us": 176049140,
      "is_ai": false,
      "track_id": 0,
      "velocity": 0,
      "is_motor": true,
      "motor_id": 0,
      "accel_val": 2000,
      "base_duration_us": 254234
    },
    {
      "id": "M_1680",
      "pitch": 74,
      "t_note_us": 176362537,
      "t_trigger_us": 176226574,
      "is_ai": false,
      "track_id": 0,
      "velocity": 0,
      "is_motor": true,
      "motor_id": 1,
      "accel_val": 2000,
      "base_duration_us": 254234
    },
    {
      "id": "M_1679",
      "pitch": 55,
      "t_note_us": 176439337,
      "t_trigger_us": 176303374,
      "is_ai": false,
      "track_id": 0,
      "velocity": 0,
      "is_motor": true,
      "motor_id": 0,
      "accel_val": 2000,
      "base_duration_us": 127118
    },
    {
      "id": "M_1682",
      "pitch": 65,
      "t_note_us": 176608827,
      "t_trigger_us": 176472864,
      "is_ai": false,
      "track_id": 0,
      "velocity": 0,
      "is_motor": true,
      "motor_id": 0,
      "accel_val": 2000,
      "base_duration_us": 254233
    },
    {
      "id": "M_1683",
      "pitch": 71,
      "t_note_us": 176608827,
      "t_trigger_us": 176472864,
      "is_ai": false,
      "track_id": 0,
      "velocity": 0,
      "is_motor": true,
      "motor_id": 2,
      "accel_val": 2000,
      "base_duration_us": 254233
    },
    {
      "id": "M_1681",
      "pitch": 78,
      "t_note_us": 176701516,
      "t_trigger_us": 176565553,
      "is_ai": false,
      "track_id": 0,
      "velocity": 0,
      "is_motor": true,
      "motor_id": 3,
      "accel_val": 2000,
      "base_duration_us": 127117
    },
    {
      "id": "M_1684",
      "pitch": 91,
      "t_note_us": 176786261,
      "t_trigger_us": 176650298,
      "is_ai": true,
      "track_id": 7,
      "velocity": 0,
      "is_motor": true,
      "motor_id": 1,
      "accel_val": 2000,
      "base_duration_us": 128439
    },
    {
      "id": "M_1685",
      "pitch": 62,
      "t_note_us": 176863060,
      "t_trigger_us": 176727097,
      "is_ai": false,
      "track_id": 0,
      "velocity": 0,
      "is_motor": true,
      "motor_id": 0,
      "accel_val": 2000,
      "base_duration_us": 127115
    },
    {
      "id": "M_1686",
      "pitch": 69,
      "t_note_us": 176871004,
      "t_trigger_us": 176735041,
      "is_ai": false,
      "track_id": 0,
      "velocity": 0,
      "is_motor": true,
      "motor_id": 2,
      "accel_val": 2000,
      "base_duration_us": 128440
    },
    {
      "id": "M_1687",
      "pitch": 65,
      "t_note_us": 176947803,
      "t_trigger_us": 176811840,
      "is_ai": false,
      "track_id": 0,
      "velocity": 0,
      "is_motor": true,
      "motor_id": 1,
      "accel_val": 2000,
      "base_duration_us": 127117
    },
    {
      "id": "M_1688",
      "pitch": 74,
      "t_note_us": 176957072,
      "t_trigger_us": 176821109,
      "is_ai": false,
      "track_id": 0,
      "velocity": 0,
      "is_motor": true,
      "motor_id": 3,
      "accel_val": 2000,
      "base_duration_us": 127117
    },
    {
      "id": "M_1689",
      "pitch": 71,
      "t_note_us": 177117292,
      "t_trigger_us": 176981329,
      "is_ai": false,
      "track_id": 0,
      "velocity": 0,
      "is_motor": true,
      "motor_id": 1,
      "accel_val": 2000,
      "base_duration_us": 127117
    },
    {
      "id": "M_1690",
      "pitch": 69,
      "t_note_us": 177126561,
      "t_trigger_us": 176990598,
      "is_ai": false,
      "track_id": 0,
      "velocity": 0,
      "is_motor": true,
      "motor_id": 2,
      "accel_val": 2000,
      "base_duration_us": 127117
    },
    {
      "id": "M_1691",
      "pitch": 55,
      "t_note_us": 177202037,
      "t_trigger_us": 177066074,
      "is_ai": false,
      "track_id": 0,
      "velocity": 0,
      "is_motor": true,
      "motor_id": 0,
      "accel_val": 2000,
      "base_duration_us": 254235
    },
    {
      "id": "M_1692",
      "pitch": 91,
      "t_note_us": 177380796,
      "t_trigger_us": 177244833,
      "is_ai": true,
      "track_id": 7,
      "velocity": 0,
      "is_motor": true,
      "motor_id": 3,
      "accel_val": 2000,
      "base_duration_us": 127117
    },
    {
      "id": "M_1693",
      "pitch": 48,
      "t_note_us": 177456272,
      "t_trigger_us": 177320309,
      "is_ai": false,
      "track_id": 0,
      "velocity": 0,
      "is_motor": true,
      "motor_id": 0,
      "accel_val": 2000,
      "base_duration_us": 127117
    },
    {
      "id": "M_1695",
      "pitch": 64,
      "t_note_us": 177625761,
      "t_trigger_us": 177489798,
      "is_ai": false,
      "track_id": 0,
      "velocity": 0,
      "is_motor": true,
      "motor_id": 1,
      "accel_val": 2000,
      "base_duration_us": 254235
    },
    {
      "id": "M_1696",
      "pitch": 60,
      "t_note_us": 177625761,
      "t_trigger_us": 177489798,
      "is_ai": false,
      "track_id": 0,
      "velocity": 0,
      "is_motor": true,
      "motor_id": 0,
      "accel_val": 2000,
      "base_duration_us": 254235
    },
    {
      "id": "M_1694",
      "pitch": 93,
      "t_note_us": 177719775,
      "t_trigger_us": 177583812,
      "is_ai": true,
      "track_id": 8,
      "velocity": 0,
      "is_motor": true,
      "motor_id": 3,
      "accel_val": 2000,
      "base_duration_us": 127118
    },
    {
      "id": "M_1697",
      "pitch": 55,
      "t_note_us": 177879996,
      "t_trigger_us": 177744033,
      "is_ai": false,
      "track_id": 0,
      "velocity": 0,
      "is_motor": true,
      "motor_id": 0,
      "accel_val": 2000,
      "base_duration_us": 127117
    },
    {
      "id": "M_1698",
      "pitch": 93,
      "t_note_us": 177889265,
      "t_trigger_us": 177753302,
      "is_ai": true,
      "track_id": 8,
      "velocity": 0,
      "is_motor": true,
      "motor_id": 3,
      "accel_val": 2000,
      "base_duration_us": 127117
    },
    {
      "id": "M_1699",
      "pitch": 60,
      "t_note_us": 177964741,
      "t_trigger_us": 177828778,
      "is_ai": false,
      "track_id": 0,
      "velocity": 0,
      "is_motor": true,
      "motor_id": 1,
      "accel_val": 2000,
      "base_duration_us": 127117
    },
    {
      "id": "M_1700",
      "pitch": 91,
      "t_note_us": 177974010,
      "t_trigger_us": 177838047,
      "is_ai": true,
      "track_id": 7,
      "velocity": 0,
      "is_motor": true,
      "motor_id": 2,
      "accel_val": 2000,
      "base_duration_us": 127117
    },
    {
      "id": "M_1701",
      "pitch": 64,
      "t_note_us": 178134230,
      "t_trigger_us": 177998267,
      "is_ai": false,
      "track_id": 0,
      "velocity": 0,
      "is_motor": true,
      "motor_id": 1,
      "accel_val": 2000,
      "base_duration_us": 127117
    },
    {
      "id": "M_1702",
      "pitch": 78,
      "t_note_us": 178143499,
      "t_trigger_us": 178007536,
      "is_ai": false,
      "track_id": 0,
      "velocity": 0,
      "is_motor": true,
      "motor_id": 2,
      "accel_val": 2000,
      "base_duration_us": 127117
    },
    {
      "id": "M_1703",
      "pitch": 48,
      "t_note_us": 178218975,
      "t_trigger_us": 178083012,
      "is_ai": false,
      "track_id": 0,
      "velocity": 0,
      "is_motor": true,
      "motor_id": 0,
      "accel_val": 2000,
      "base_duration_us": 254235
    },
    {
      "id": "M_1704",
      "pitch": 78,
      "t_note_us": 178397734,
      "t_trigger_us": 178261771,
      "is_ai": false,
      "track_id": 0,
      "velocity": 0,
      "is_motor": true,
      "motor_id": 2,
      "accel_val": 2000,
      "base_duration_us": 127117
    },
    {
      "id": "M_1705",
      "pitch": 54,
      "t_note_us": 178473210,
      "t_trigger_us": 178337247,
      "is_ai": false,
      "track_id": 0,
      "velocity": 0,
      "is_motor": true,
      "motor_id": 0,
      "accel_val": 2000,
      "base_duration_us": 127117
    },
    {
      "id": "M_1707",
      "pitch": 69,
      "t_note_us": 178642699,
      "t_trigger_us": 178506736,
      "is_ai": false,
      "track_id": 0,
      "velocity": 0,
      "is_motor": true,
      "motor_id": 1,
      "accel_val": 2000,
      "base_duration_us": 254236
    },
    {
      "id": "M_1708",
      "pitch": 66,
      "t_note_us": 178642699,
      "t_trigger_us": 178506736,
      "is_ai": false,
      "track_id": 0,
      "velocity": 0,
      "is_motor": true,
      "motor_id": 2,
      "accel_val": 2000,
      "base_duration_us": 254236
    },
    {
      "id": "M_1706",
      "pitch": 78,
      "t_note_us": 178651968,
      "t_trigger_us": 178516005,
      "is_ai": false,
      "track_id": 0,
      "velocity": 0,
      "is_motor": true,
      "motor_id": 3,
      "accel_val": 2000,
      "base_duration_us": 127118
    },
    {
      "id": "M_1709",
      "pitch": 59,
      "t_note_us": 178896935,
      "t_trigger_us": 178760972,
      "is_ai": false,
      "track_id": 0,
      "velocity": 0,
      "is_motor": true,
      "motor_id": 0,
      "accel_val": 2000,
      "base_duration_us": 127117
    },
    {
      "id": "M_1710",
      "pitch": 78,
      "t_note_us": 178906204,
      "t_trigger_us": 178770241,
      "is_ai": false,
      "track_id": 0,
      "velocity": 0,
      "is_motor": true,
      "motor_id": 2,
      "accel_val": 2000,
      "base_duration_us": 127117
    },
    {
      "id": "M_1711",
      "pitch": 66,
      "t_note_us": 178981680,
      "t_trigger_us": 178845717,
      "is_ai": false,
      "track_id": 0,
      "velocity": 0,
      "is_motor": true,
      "motor_id": 1,
      "accel_val": 2000,
      "base_duration_us": 127117
    },
    {
      "id": "M_1712",
      "pitch": 91,
      "t_note_us": 178990949,
      "t_trigger_us": 178854986,
      "is_ai": true,
      "track_id": 7,
      "velocity": 0,
      "is_motor": true,
      "motor_id": 3,
      "accel_val": 2000,
      "base_duration_us": 254234
    },
    {
      "id": "M_1713",
      "pitch": 69,
      "t_note_us": 179151169,
      "t_trigger_us": 179015206,
      "is_ai": false,
      "track_id": 0,
      "velocity": 0,
      "is_motor": true,
      "motor_id": 1,
      "accel_val": 2000,
      "base_duration_us": 127117
    },
    {
      "id": "M_1714",
      "pitch": 54,
      "t_note_us": 179235914,
      "t_trigger_us": 179099951,
      "is_ai": false,
      "track_id": 0,
      "velocity": 0,
      "is_motor": true,
      "motor_id": 0,
      "accel_val": 2000,
      "base_duration_us": 254236
    },
    {
      "id": "M_1715",
      "pitch": 90,
      "t_note_us": 179245183,
      "t_trigger_us": 179109220,
      "is_ai": true,
      "track_id": 0,
      "velocity": 0,
      "is_motor": true,
      "motor_id": 3,
      "accel_val": 2000,
      "base_duration_us": 254236
    },
    {
      "id": "M_1716",
      "pitch": 52,
      "t_note_us": 179490150,
      "t_trigger_us": 179354187,
      "is_ai": false,
      "track_id": 0,
      "velocity": 0,
      "is_motor": true,
      "motor_id": 0,
      "accel_val": 2000,
      "base_duration_us": 127118
    },
    {
      "id": "M_1717",
      "pitch": 67,
      "t_note_us": 179659640,
      "t_trigger_us": 179523677,
      "is_ai": false,
      "track_id": 0,
      "velocity": 0,
      "is_motor": true,
      "motor_id": 1,
      "accel_val": 2000,
      "base_duration_us": 254237
    },
    {
      "id": "M_1718",
      "pitch": 64,
      "t_note_us": 179659640,
      "t_trigger_us": 179523677,
      "is_ai": false,
      "track_id": 0,
      "velocity": 0,
      "is_motor": true,
      "motor_id": 0,
      "accel_val": 2000,
      "base_duration_us": 254237
    },
    {
      "id": "M_1719",
      "pitch": 59,
      "t_note_us": 179913877,
      "t_trigger_us": 179777914,
      "is_ai": false,
      "track_id": 0,
      "velocity": 0,
      "is_motor": true,
      "motor_id": 0,
      "accel_val": 2000,
      "base_duration_us": 127117
    },
    {
      "id": "M_1720",
      "pitch": 64,
      "t_note_us": 179998622,
      "t_trigger_us": 179862659,
      "is_ai": false,
      "track_id": 0,
      "velocity": 0,
      "is_motor": true,
      "motor_id": 1,
      "accel_val": 2000,
      "base_duration_us": 127117
    },
    {
      "id": "M_1721",
      "pitch": 98,
      "t_note_us": 180007891,
      "t_trigger_us": 179871928,
      "is_ai": true,
      "track_id": 11,
      "velocity": 0,
      "is_motor": false,
      "motor_id": 0,
      "accel_val": 2000,
      "base_duration_us": 127117
    },
    {
      "id": "M_1722",
      "pitch": 67,
      "t_note_us": 180168111,
      "t_trigger_us": 180032148,
      "is_ai": false,
      "track_id": 0,
      "velocity": 0,
      "is_motor": true,
      "motor_id": 1,
      "accel_val": 2000,
      "base_duration_us": 127117
    },
    {
      "id": "M_1723",
      "pitch": 96,
      "t_note_us": 180177380,
      "t_trigger_us": 180041417,
      "is_ai": true,
      "track_id": 10,
      "velocity": 0,
      "is_motor": false,
      "motor_id": 0,
      "accel_val": 2000,
      "base_duration_us": 127117
    },
    {
      "id": "M_1724",
      "pitch": 52,
      "t_note_us": 180252856,
      "t_trigger_us": 180116893,
      "is_ai": false,
      "track_id": 0,
      "velocity": 0,
      "is_motor": true,
      "motor_id": 0,
      "accel_val": 2000,
      "base_duration_us": 254235
    },
    {
      "id": "M_1725",
      "pitch": 95,
      "t_note_us": 180431615,
      "t_trigger_us": 180295652,
      "is_ai": true,
      "track_id": 9,
      "velocity": 0,
      "is_motor": false,
      "motor_id": 0,
      "accel_val": 2000,
      "base_duration_us": 127117
    },
    {
      "id": "M_1726",
      "pitch": 55,
      "t_note_us": 180507091,
      "t_trigger_us": 180371128,
      "is_ai": false,
      "track_id": 0,
      "velocity": 0,
      "is_motor": true,
      "motor_id": 0,
      "accel_val": 2000,
      "base_duration_us": 127117
    },
    {
      "id": "M_1728",
      "pitch": 65,
      "t_note_us": 180676580,
      "t_trigger_us": 180540617,
      "is_ai": false,
      "track_id": 0,
      "velocity": 0,
      "is_motor": true,
      "motor_id": 1,
      "accel_val": 2000,
      "base_duration_us": 254236
    },
    {
      "id": "M_1729",
      "pitch": 71,
      "t_note_us": 180676580,
      "t_trigger_us": 180540617,
      "is_ai": false,
      "track_id": 0,
      "velocity": 0,
      "is_motor": true,
      "motor_id": 2,
      "accel_val": 2000,
      "base_duration_us": 254236
    },
    {
      "id": "M_1727",
      "pitch": 95,
      "t_note_us": 180685849,
      "t_trigger_us": 180549886,
      "is_ai": true,
      "track_id": 9,
      "velocity": 0,
      "is_motor": false,
      "motor_id": 0,
      "accel_val": 2000,
      "base_duration_us": 127118
    },
    {
      "id": "M_1730",
      "pitch": 62,
      "t_note_us": 180930816,
      "t_trigger_us": 180794853,
      "is_ai": false,
      "track_id": 0,
      "velocity": 0,
      "is_motor": true,
      "motor_id": 1,
      "accel_val": 2000,
      "base_duration_us": 127117
    },
    {
      "id": "M_1731",
      "pitch": 71,
      "t_note_us": 180940085,
      "t_trigger_us": 180804122,
      "is_ai": false,
      "track_id": 0,
      "velocity": 0,
      "is_motor": true,
      "motor_id": 2,
      "accel_val": 2000,
      "base_duration_us": 127117
    },
    {
      "id": "M_1732",
      "pitch": 65,
      "t_note_us": 181015561,
      "t_trigger_us": 180879598,
      "is_ai": false,
      "track_id": 0,
      "velocity": 0,
      "is_motor": true,
      "motor_id": 0,
      "accel_val": 2000,
      "base_duration_us": 127117
    },
    {
      "id": "M_1733",
      "pitch": 96,
      "t_note_us": 181024830,
      "t_trigger_us": 180888867,
      "is_ai": true,
      "track_id": 10,
      "velocity": 0,
      "is_motor": false,
      "motor_id": 0,
      "accel_val": 2000,
      "base_duration_us": 254234
    },
    {
      "id": "M_1734",
      "pitch": 71,
      "t_note_us": 181185050,
      "t_trigger_us": 181049087,
      "is_ai": false,
      "track_id": 0,
      "velocity": 0,
      "is_motor": true,
      "motor_id": 1,
      "accel_val": 2000,
      "base_duration_us": 127117
    },
    {
      "id": "M_1735",
      "pitch": 55,
      "t_note_us": 181269795,
      "t_trigger_us": 181133832,
      "is_ai": false,
      "track_id": 0,
      "velocity": 0,
      "is_motor": true,
      "motor_id": 0,
      "accel_val": 2000,
      "base_duration_us": 254236
    },
    {
      "id": "M_1736",
      "pitch": 95,
      "t_note_us": 181279064,
      "t_trigger_us": 181143101,
      "is_ai": true,
      "track_id": 9,
      "velocity": 0,
      "is_motor": false,
      "motor_id": 0,
      "accel_val": 2000,
      "base_duration_us": 254236
    },
    {
      "id": "M_1737",
      "pitch": 48,
      "t_note_us": 181524031,
      "t_trigger_us": 181388068,
      "is_ai": false,
      "track_id": 0,
      "velocity": 0,
      "is_motor": true,
      "motor_id": 0,
      "accel_val": 2000,
      "base_duration_us": 127118
    },
    {
      "id": "M_1738",
      "pitch": 95,
      "t_note_us": 181533300,
      "t_trigger_us": 181397337,
      "is_ai": true,
      "track_id": 9,
      "velocity": 0,
      "is_motor": false,
      "motor_id": 0,
      "accel_val": 2000,
      "base_duration_us": 127118
    },
    {
      "id": "M_1741",
      "pitch": 64,
      "t_note_us": 181693521,
      "t_trigger_us": 181557558,
      "is_ai": false,
      "track_id": 0,
      "velocity": 0,
      "is_motor": true,
      "motor_id": 1,
      "accel_val": 2000,
      "base_duration_us": 254234
    },
    {
      "id": "M_1742",
      "pitch": 60,
      "t_note_us": 181693521,
      "t_trigger_us": 181557558,
      "is_ai": false,
      "track_id": 0,
      "velocity": 0,
      "is_motor": true,
      "motor_id": 0,
      "accel_val": 2000,
      "base_duration_us": 254234
    },
    {
      "id": "M_1739",
      "pitch": 96,
      "t_note_us": 181702790,
      "t_trigger_us": 181566827,
      "is_ai": true,
      "track_id": 10,
      "velocity": 0,
      "is_motor": false,
      "motor_id": 0,
      "accel_val": 2000,
      "base_duration_us": 127117
    },
    {
      "id": "M_1740",
      "pitch": 103,
      "t_note_us": 181787535,
      "t_trigger_us": 181651572,
      "is_ai": true,
      "track_id": 14,
      "velocity": 0,
      "is_motor": false,
      "motor_id": 0,
      "accel_val": 2000,
      "base_duration_us": 127117
    },
    {
      "id": "M_1743",
      "pitch": 55,
      "t_note_us": 181947755,
      "t_trigger_us": 181811792,
      "is_ai": false,
      "track_id": 0,
      "velocity": 0,
      "is_motor": true,
      "motor_id": 0,
      "accel_val": 2000,
      "base_duration_us": 127117
    },
    {
      "id": "M_1744",
      "pitch": 95,
      "t_note_us": 181957024,
      "t_trigger_us": 181821061,
      "is_ai": true,
      "track_id": 9,
      "velocity": 0,
      "is_motor": false,
      "motor_id": 0,
      "accel_val": 2000,
      "base_duration_us": 127117
    },
    {
      "id": "M_1745",
      "pitch": 60,
      "t_note_us": 182032500,
      "t_trigger_us": 181896537,
      "is_ai": false,
      "track_id": 0,
      "velocity": 0,
      "is_motor": true,
      "motor_id": 1,
      "accel_val": 2000,
      "base_duration_us": 127117
    },
    {
      "id": "M_1746",
      "pitch": 96,
      "t_note_us": 182041769,
      "t_trigger_us": 181905806,
      "is_ai": true,
      "track_id": 10,
      "velocity": 0,
      "is_motor": false,
      "motor_id": 0,
      "accel_val": 2000,
      "base_duration_us": 127117
    },
    {
      "id": "M_1747",
      "pitch": 64,
      "t_note_us": 182201989,
      "t_trigger_us": 182066026,
      "is_ai": false,
      "track_id": 0,
      "velocity": 0,
      "is_motor": true,
      "motor_id": 1,
      "accel_val": 2000,
      "base_duration_us": 127117
    },
    {
      "id": "M_1748",
      "pitch": 103,
      "t_note_us": 182211258,
      "t_trigger_us": 182075295,
      "is_ai": true,
      "track_id": 14,
      "velocity": 0,
      "is_motor": false,
      "motor_id": 0,
      "accel_val": 2000,
      "base_duration_us": 127117
    },
    {
      "id": "M_1750",
      "pitch": 48,
      "t_note_us": 182286734,
      "t_trigger_us": 182150771,
      "is_ai": false,
      "track_id": 0,
      "velocity": 0,
      "is_motor": true,
      "motor_id": 0,
      "accel_val": 2000,
      "base_duration_us": 254234
    },
    {
      "id": "M_1749",
      "pitch": 95,
      "t_note_us": 182296003,
      "t_trigger_us": 182160040,
      "is_ai": true,
      "track_id": 9,
      "velocity": 0,
      "is_motor": false,
      "motor_id": 0,
      "accel_val": 2000,
      "base_duration_us": 127117
    },
    {
      "id": "M_1751",
      "pitch": 96,
      "t_note_us": 182465492,
      "t_trigger_us": 182329529,
      "is_ai": true,
      "track_id": 10,
      "velocity": 0,
      "is_motor": false,
      "motor_id": 0,
      "accel_val": 2000,
      "base_duration_us": 127117
    },
    {
      "id": "M_1752",
      "pitch": 47,
      "t_note_us": 182540968,
      "t_trigger_us": 182405005,
      "is_ai": false,
      "track_id": 0,
      "velocity": 0,
      "is_motor": true,
      "motor_id": 0,
      "accel_val": 2000,
      "base_duration_us": 127117
    },
    {
      "id": "M_1753",
      "pitch": 103,
      "t_note_us": 182550237,
      "t_trigger_us": 182414274,
      "is_ai": true,
      "track_id": 14,
      "velocity": 0,
      "is_motor": false,
      "motor_id": 0,
      "accel_val": 2000,
      "base_duration_us": 127117
    },
    {
      "id": "M_1756",
      "pitch": 63,
      "t_note_us": 182710457,
      "t_trigger_us": 182574494,
      "is_ai": false,
      "track_id": 0,
      "velocity": 0,
      "is_motor": true,
      "motor_id": 1,
      "accel_val": 2000,
      "base_duration_us": 254234
    },
    {
      "id": "M_1757",
      "pitch": 59,
      "t_note_us": 182710457,
      "t_trigger_us": 182574494,
      "is_ai": false,
      "track_id": 0,
      "velocity": 0,
      "is_motor": true,
      "motor_id": 0,
      "accel_val": 2000,
      "base_duration_us": 254234
    },
    {
      "id": "M_1754",
      "pitch": 95,
      "t_note_us": 182719726,
      "t_trigger_us": 182583763,
      "is_ai": true,
      "track_id": 9,
      "velocity": 0,
      "is_motor": false,
      "motor_id": 0,
      "accel_val": 2000,
      "base_duration_us": 127117
    },
    {
      "id": "M_1755",
      "pitch": 96,
      "t_note_us": 182804471,
      "t_trigger_us": 182668508,
      "is_ai": true,
      "track_id": 10,
      "velocity": 0,
      "is_motor": false,
      "motor_id": 0,
      "accel_val": 2000,
      "base_duration_us": 127117
    },
    {
      "id": "M_1758",
      "pitch": 54,
      "t_note_us": 182964691,
      "t_trigger_us": 182828728,
      "is_ai": false,
      "track_id": 0,
      "velocity": 0,
      "is_motor": true,
      "motor_id": 0,
      "accel_val": 2000,
      "base_duration_us": 127117
    },
    {
      "id": "M_1759",
      "pitch": 67,
      "t_note_us": 182973960,
      "t_trigger_us": 182837997,
      "is_ai": false,
      "track_id": 0,
      "velocity": 0,
      "is_motor": true,
      "motor_id": 1,
      "accel_val": 2000,
      "base_duration_us": 127117
    },
    {
      "id": "M_1760",
      "pitch": 59,
      "t_note_us": 183049436,
      "t_trigger_us": 182913473,
      "is_ai": false,
      "track_id": 0,
      "velocity": 0,
      "is_motor": true,
      "motor_id": 2,
      "accel_val": 2000,
      "base_duration_us": 127117
    },
    {
      "id": "M_1761",
      "pitch": 95,
      "t_note_us": 183058705,
      "t_trigger_us": 182922742,
      "is_ai": true,
      "track_id": 9,
      "velocity": 0,
      "is_motor": false,
      "motor_id": 0,
      "accel_val": 2000,
      "base_duration_us": 127117
    },
    {
      "id": "M_1762",
      "pitch": 63,
      "t_note_us": 183218925,
      "t_trigger_us": 183082962,
      "is_ai": false,
      "track_id": 0,
      "velocity": 0,
      "is_motor": true,
      "motor_id": 1,
      "accel_val": 2000,
      "base_duration_us": 127117
    },
    {
      "id": "M_1763",
      "pitch": 96,
      "t_note_us": 183228194,
      "t_trigger_us": 183092231,
      "is_ai": true,
      "track_id": 10,
      "velocity": 0,
      "is_motor": false,
      "motor_id": 0,
      "accel_val": 2000,
      "base_duration_us": 127117
    },
    {
      "id": "M_1764",
      "pitch": 47,
      "t_note_us": 183303670,
      "t_trigger_us": 183167707,
      "is_ai": false,
      "track_id": 0,
      "velocity": 0,
      "is_motor": true,
      "motor_id": 0,
      "accel_val": 2000,
      "base_duration_us": 254235
    },
    {
      "id": "M_1765",
      "pitch": 95,
      "t_note_us": 183482429,
      "t_trigger_us": 183346466,
      "is_ai": true,
      "track_id": 9,
      "velocity": 0,
      "is_motor": false,
      "motor_id": 0,
      "accel_val": 2000,
      "base_duration_us": 127117
    },
    {
      "id": "M_1766",
      "pitch": 52,
      "t_note_us": 183557905,
      "t_trigger_us": 183421942,
      "is_ai": false,
      "track_id": 0,
      "velocity": 0,
      "is_motor": true,
      "motor_id": 0,
      "accel_val": 2000,
      "base_duration_us": 127117
    },
    {
      "id": "M_1768",
      "pitch": 67,
      "t_note_us": 183727394,
      "t_trigger_us": 183591431,
      "is_ai": false,
      "track_id": 0,
      "velocity": 0,
      "is_motor": true,
      "motor_id": 1,
      "accel_val": 2000,
      "base_duration_us": 254236
    },
    {
      "id": "M_1769",
      "pitch": 64,
      "t_note_us": 183727394,
      "t_trigger_us": 183591431,
      "is_ai": false,
      "track_id": 0,
      "velocity": 0,
      "is_motor": true,
      "motor_id": 0,
      "accel_val": 2000,
      "base_duration_us": 254236
    },
    {
      "id": "M_1767",
      "pitch": 96,
      "t_note_us": 183736663,
      "t_trigger_us": 183600700,
      "is_ai": true,
      "track_id": 10,
      "velocity": 0,
      "is_motor": false,
      "motor_id": 0,
      "accel_val": 2000,
      "base_duration_us": 127118
    },
    {
      "id": "M_1770",
      "pitch": 59,
      "t_note_us": 183981630,
      "t_trigger_us": 183845667,
      "is_ai": false,
      "track_id": 0,
      "velocity": 0,
      "is_motor": true,
      "motor_id": 0,
      "accel_val": 2000,
      "base_duration_us": 127117
    },
    {
      "id": "M_1771",
      "pitch": 95,
      "t_note_us": 183990899,
      "t_trigger_us": 183854936,
      "is_ai": true,
      "track_id": 9,
      "velocity": 0,
      "is_motor": false,
      "motor_id": 0,
      "accel_val": 2000,
      "base_duration_us": 127117
    },
    {
      "id": "M_1772",
      "pitch": 64,
      "t_note_us": 184066375,
      "t_trigger_us": 183930412,
      "is_ai": false,
      "track_id": 0,
      "velocity": 0,
      "is_motor": true,
      "motor_id": 1,
      "accel_val": 2000,
      "base_duration_us": 127117
    },
    {
      "id": "M_1773",
      "pitch": 96,
      "t_note_us": 184075644,
      "t_trigger_us": 183939681,
      "is_ai": true,
      "track_id": 10,
      "velocity": 0,
      "is_motor": false,
      "motor_id": 0,
      "accel_val": 2000,
      "base_duration_us": 127117
    },
    {
      "id": "M_1774",
      "pitch": 67,
      "t_note_us": 184235864,
      "t_trigger_us": 184099901,
      "is_ai": false,
      "track_id": 0,
      "velocity": 0,
      "is_motor": true,
      "motor_id": 1,
      "accel_val": 2000,
      "base_duration_us": 127117
    },
    {
      "id": "M_1776",
      "pitch": 52,
      "t_note_us": 184320609,
      "t_trigger_us": 184184646,
      "is_ai": false,
      "track_id": 0,
      "velocity": 0,
      "is_motor": true,
      "motor_id": 0,
      "accel_val": 2000,
      "base_duration_us": 254235
    },
    {
      "id": "M_1775",
      "pitch": 96,
      "t_note_us": 184329878,
      "t_trigger_us": 184193915,
      "is_ai": true,
      "track_id": 10,
      "velocity": 0,
      "is_motor": false,
      "motor_id": 0,
      "accel_val": 2000,
      "base_duration_us": 127117
    },
    {
      "id": "M_1777",
      "pitch": 55,
      "t_note_us": 184574844,
      "t_trigger_us": 184438881,
      "is_ai": false,
      "track_id": 0,
      "velocity": 0,
      "is_motor": true,
      "motor_id": 0,
      "accel_val": 2000,
      "base_duration_us": 127118
    },
    {
      "id": "M_1778",
      "pitch": 98,
      "t_note_us": 184584113,
      "t_trigger_us": 184448150,
      "is_ai": true,
      "track_id": 11,
      "velocity": 0,
      "is_motor": false,
      "motor_id": 0,
      "accel_val": 2000,
      "base_duration_us": 127118
    },
    {
      "id": "M_1781",
      "pitch": 65,
      "t_note_us": 184744334,
      "t_trigger_us": 184608371,
      "is_ai": false,
      "track_id": 0,
      "velocity": 0,
      "is_motor": true,
      "motor_id": 1,
      "accel_val": 2000,
      "base_duration_us": 254234
    },
    {
      "id": "M_1782",
      "pitch": 71,
      "t_note_us": 184744334,
      "t_trigger_us": 184608371,
      "is_ai": false,
      "track_id": 0,
      "velocity": 0,
      "is_motor": true,
      "motor_id": 2,
      "accel_val": 2000,
      "base_duration_us": 254234
    },
    {
      "id": "M_1779",
      "pitch": 95,
      "t_note_us": 184753603,
      "t_trigger_us": 184617640,
      "is_ai": true,
      "track_id": 9,
      "velocity": 0,
      "is_motor": false,
      "motor_id": 0,
      "accel_val": 2000,
      "base_duration_us": 127117
    },
    {
      "id": "M_1780",
      "pitch": 98,
      "t_note_us": 184838348,
      "t_trigger_us": 184702385,
      "is_ai": true,
      "track_id": 11,
      "velocity": 0,
      "is_motor": false,
      "motor_id": 0,
      "accel_val": 2000,
      "base_duration_us": 127117
    },
    {
      "id": "M_1783",
      "pitch": 62,
      "t_note_us": 184998568,
      "t_trigger_us": 184862605,
      "is_ai": false,
      "track_id": 0,
      "velocity": 0,
      "is_motor": true,
      "motor_id": 1,
      "accel_val": 2000,
      "base_duration_us": 127117
    },
    {
      "id": "M_1784",
      "pitch": 98,
      "t_note_us": 185007837,
      "t_trigger_us": 184871874,
      "is_ai": true,
      "track_id": 11,
      "velocity": 0,
      "is_motor": false,
      "motor_id": 0,
      "accel_val": 2000,
      "base_duration_us": 127117
    },
    {
      "id": "M_1785",
      "pitch": 65,
      "t_note_us": 185083313,
      "t_trigger_us": 184947350,
      "is_ai": false,
      "track_id": 0,
      "velocity": 0,
      "is_motor": true,
      "motor_id": 0,
      "accel_val": 2000,
      "base_duration_us": 127117
    },
    {
      "id": "M_1786",
      "pitch": 71,
      "t_note_us": 185252802,
      "t_trigger_us": 185116839,
      "is_ai": false,
      "track_id": 0,
      "velocity": 0,
      "is_motor": true,
      "motor_id": 1,
      "accel_val": 2000,
      "base_duration_us": 127117
    },
    {
      "id": "M_1787",
      "pitch": 98,
      "t_note_us": 185262071,
      "t_trigger_us": 185126108,
      "is_ai": true,
      "track_id": 11,
      "velocity": 0,
      "is_motor": false,
      "motor_id": 0,
      "accel_val": 2000,
      "base_duration_us": 254235
    },
    {
      "id": "M_1788",
      "pitch": 55,
      "t_note_us": 185337547,
      "t_trigger_us": 185201584,
      "is_ai": false,
      "track_id": 0,
      "velocity": 0,
      "is_motor": true,
      "motor_id": 0,
      "accel_val": 2000,
      "base_duration_us": 254235
    },
    {
      "id": "M_1789",
      "pitch": 48,
      "t_note_us": 185591782,
      "t_trigger_us": 185455819,
      "is_ai": false,
      "track_id": 0,
      "velocity": 0,
      "is_motor": true,
      "motor_id": 0,
      "accel_val": 2000,
      "base_duration_us": 127118
    },
    {
      "id": "M_1790",
      "pitch": 98,
      "t_note_us": 185601051,
      "t_trigger_us": 185465088,
      "is_ai": true,
      "track_id": 11,
      "velocity": 0,
      "is_motor": false,
      "motor_id": 0,
      "accel_val": 2000,
      "base_duration_us": 127118
    },
    {
      "id": "M_1793",
      "pitch": 64,
      "t_note_us": 185761272,
      "t_trigger_us": 185625309,
      "is_ai": false,
      "track_id": 0,
      "velocity": 0,
      "is_motor": true,
      "motor_id": 1,
      "accel_val": 2000,
      "base_duration_us": 254234
    },
    {
      "id": "M_1794",
      "pitch": 60,
      "t_note_us": 185761272,
      "t_trigger_us": 185625309,
      "is_ai": false,
      "track_id": 0,
      "velocity": 0,
      "is_motor": true,
      "motor_id": 0,
      "accel_val": 2000,
      "base_duration_us": 254234
    },
    {
      "id": "M_1791",
      "pitch": 96,
      "t_note_us": 185770541,
      "t_trigger_us": 185634578,
      "is_ai": true,
      "track_id": 10,
      "velocity": 0,
      "is_motor": false,
      "motor_id": 0,
      "accel_val": 2000,
      "base_duration_us": 127117
    },
    {
      "id": "M_1792",
      "pitch": 95,
      "t_note_us": 185855286,
      "t_trigger_us": 185719323,
      "is_ai": true,
      "track_id": 9,
      "velocity": 0,
      "is_motor": false,
      "motor_id": 0,
      "accel_val": 2000,
      "base_duration_us": 127117
    },
    {
      "id": "M_1795",
      "pitch": 55,
      "t_note_us": 186015506,
      "t_trigger_us": 185879543,
      "is_ai": false,
      "track_id": 0,
      "velocity": 0,
      "is_motor": true,
      "motor_id": 0,
      "accel_val": 2000,
      "base_duration_us": 127117
    },
    {
      "id": "M_1796",
      "pitch": 93,
      "t_note_us": 186024775,
      "t_trigger_us": 185888812,
      "is_ai": true,
      "track_id": 8,
      "velocity": 0,
      "is_motor": false,
      "motor_id": 0,
      "accel_val": 2000,
      "base_duration_us": 127117
    },
    {
      "id": "M_1797",
      "pitch": 60,
      "t_note_us": 186100251,
      "t_trigger_us": 185964288,
      "is_ai": false,
      "track_id": 0,
      "velocity": 0,
      "is_motor": true,
      "motor_id": 1,
      "accel_val": 2000,
      "base_duration_us": 127117
    },
    {
      "id": "M_1798",
      "pitch": 98,
      "t_note_us": 186109520,
      "t_trigger_us": 185973557,
      "is_ai": true,
      "track_id": 11,
      "velocity": 0,
      "is_motor": false,
      "motor_id": 0,
      "accel_val": 2000,
      "base_duration_us": 127117
    },
    {
      "id": "M_1799",
      "pitch": 64,
      "t_note_us": 186269740,
      "t_trigger_us": 186133777,
      "is_ai": false,
      "track_id": 0,
      "velocity": 0,
      "is_motor": true,
      "motor_id": 1,
      "accel_val": 2000,
      "base_duration_us": 127117
    },
    {
      "id": "M_1800",
      "pitch": 72,
      "t_note_us": 186279009,
      "t_trigger_us": 186143046,
      "is_ai": false,
      "track_id": 0,
      "velocity": 0,
      "is_motor": true,
      "motor_id": 0,
      "accel_val": 2000,
      "base_duration_us": 127117
    },
    {
      "id": "M_1802",
      "pitch": 48,
      "t_note_us": 186354485,
      "t_trigger_us": 186218522,
      "is_ai": false,
      "track_id": 0,
      "velocity": 0,
      "is_motor": true,
      "motor_id": 2,
      "accel_val": 2000,
      "base_duration_us": 254234
    },
    {
      "id": "M_1801",
      "pitch": 95,
      "t_note_us": 186363754,
      "t_trigger_us": 186227791,
      "is_ai": true,
      "track_id": 9,
      "velocity": 0,
      "is_motor": false,
      "motor_id": 0,
      "accel_val": 2000,
      "base_duration_us": 127117
    },
    {
      "id": "M_1803",
      "pitch": 69,
      "t_note_us": 186533243,
      "t_trigger_us": 186397280,
      "is_ai": false,
      "track_id": 0,
      "velocity": 0,
      "is_motor": true,
      "motor_id": 1,
      "accel_val": 2000,
      "base_duration_us": 127117
    },
    {
      "id": "M_1804",
      "pitch": 54,
      "t_note_us": 186608719,
      "t_trigger_us": 186472756,
      "is_ai": false,
      "track_id": 0,
      "velocity": 0,
      "is_motor": true,
      "motor_id": 0,
      "accel_val": 2000,
      "base_duration_us": 127117
    },
    {
      "id": "M_1805",
      "pitch": 91,
      "t_note_us": 186617988,
      "t_trigger_us": 186482025,
      "is_ai": true,
      "track_id": 7,
      "velocity": 0,
      "is_motor": false,
      "motor_id": 0,
      "accel_val": 2000,
      "base_duration_us": 127117
    },
    {
      "id": "M_1808",
      "pitch": 69,
      "t_note_us": 186778208,
      "t_trigger_us": 186642245,
      "is_ai": false,
      "track_id": 0,
      "velocity": 0,
      "is_motor": true,
      "motor_id": 1,
      "accel_val": 2000,
      "base_duration_us": 254234
    },
    {
      "id": "M_1809",
      "pitch": 66,
      "t_note_us": 186778208,
      "t_trigger_us": 186642245,
      "is_ai": false,
      "track_id": 0,
      "velocity": 0,
      "is_motor": true,
      "motor_id": 2,
      "accel_val": 2000,
      "base_duration_us": 254234
    },
    {
      "id": "M_1806",
      "pitch": 92,
      "t_note_us": 186787477,
      "t_trigger_us": 186651514,
      "is_ai": true,
      "track_id": 0,
      "velocity": 0,
      "is_motor": true,
      "motor_id": 3,
      "accel_val": 2000,
      "base_duration_us": 127117
    },
    {
      "id": "M_1807",
      "pitch": 69,
      "t_note_us": 186872222,
      "t_trigger_us": 186736259,
      "is_ai": false,
      "track_id": 0,
      "velocity": 0,
      "is_motor": true,
      "motor_id": 0,
      "accel_val": 2000,
      "base_duration_us": 127117
    },
    {
      "id": "M_1810",
      "pitch": 59,
      "t_note_us": 187032442,
      "t_trigger_us": 186896479,
      "is_ai": false,
      "track_id": 0,
      "velocity": 0,
      "is_motor": true,
      "motor_id": 0,
      "accel_val": 2000,
      "base_duration_us": 127117
    },
    {
      "id": "M_1811",
      "pitch": 95,
      "t_note_us": 187041711,
      "t_trigger_us": 186905748,
      "is_ai": true,
      "track_id": 9,
      "velocity": 0,
      "is_motor": false,
      "motor_id": 0,
      "accel_val": 2000,
      "base_duration_us": 127117
    },
    {
      "id": "M_1812",
      "pitch": 66,
      "t_note_us": 187117187,
      "t_trigger_us": 186981224,
      "is_ai": false,
      "track_id": 0,
      "velocity": 0,
      "is_motor": true,
      "motor_id": 1,
      "accel_val": 2000,
      "base_duration_us": 127117
    },
    {
      "id": "M_1813",
      "pitch": 103,
      "t_note_us": 187126456,
      "t_trigger_us": 186990493,
      "is_ai": true,
      "track_id": 14,
      "velocity": 0,
      "is_motor": false,
      "motor_id": 0,
      "accel_val": 2000,
      "base_duration_us": 127117
    },
    {
      "id": "M_1814",
      "pitch": 69,
      "t_note_us": 187286676,
      "t_trigger_us": 187150713,
      "is_ai": false,
      "track_id": 0,
      "velocity": 0,
      "is_motor": true,
      "motor_id": 1,
      "accel_val": 2000,
      "base_duration_us": 127117
    },
    {
      "id": "M_1815",
      "pitch": 68,
      "t_note_us": 187295945,
      "t_trigger_us": 187159982,
      "is_ai": false,
      "track_id": 0,
      "velocity": 0,
      "is_motor": true,
      "motor_id": 2,
      "accel_val": 2000,
      "base_duration_us": 127117
    },
    {
      "id": "M_1817",
      "pitch": 54,
      "t_note_us": 187371421,
      "t_trigger_us": 187235458,
      "is_ai": false,
      "track_id": 0,
      "velocity": 0,
      "is_motor": true,
      "motor_id": 0,
      "accel_val": 2000,
      "base_duration_us": 254234
    },
    {
      "id": "M_1816",
      "pitch": 93,
      "t_note_us": 187380690,
      "t_trigger_us": 187244727,
      "is_ai": true,
      "track_id": 8,
      "velocity": 0,
      "is_motor": false,
      "motor_id": 0,
      "accel_val": 2000,
      "base_duration_us": 127117
    },
    {
      "id": "M_1818",
      "pitch": 95,
      "t_note_us": 187550179,
      "t_trigger_us": 187414216,
      "is_ai": true,
      "track_id": 9,
      "velocity": 0,
      "is_motor": false,
      "motor_id": 0,
      "accel_val": 2000,
      "base_duration_us": 127117
    },
    {
      "id": "M_1819",
      "pitch": 52,
      "t_note_us": 187625655,
      "t_trigger_us": 187489692,
      "is_ai": false,
      "track_id": 0,
      "velocity": 0,
      "is_motor": true,
      "motor_id": 0,
      "accel_val": 2000,
      "base_duration_us": 127117
    },
    {
      "id": "M_1820",
      "pitch": 95,
      "t_note_us": 187634924,
      "t_trigger_us": 187498961,
      "is_ai": true,
      "track_id": 9,
      "velocity": 0,
      "is_motor": false,
      "motor_id": 0,
      "accel_val": 2000,
      "base_duration_us": 127117
    },
    {
      "id": "M_1823",
      "pitch": 67,
      "t_note_us": 187795144,
      "t_trigger_us": 187659181,
      "is_ai": false,
      "track_id": 0,
      "velocity": 0,
      "is_motor": true,
      "motor_id": 1,
      "accel_val": 2000,
      "base_duration_us": 254234
    },
    {
      "id": "M_1824",
      "pitch": 64,
      "t_note_us": 187795144,
      "t_trigger_us": 187659181,
      "is_ai": false,
      "track_id": 0,
      "velocity": 0,
      "is_motor": true,
      "motor_id": 0,
      "accel_val": 2000,
      "base_duration_us": 254234
    },
    {
      "id": "M_1821",
      "pitch": 93,
      "t_note_us": 187804413,
      "t_trigger_us": 187668450,
      "is_ai": true,
      "track_id": 8,
      "velocity": 0,
      "is_motor": false,
      "motor_id": 0,
      "accel_val": 2000,
      "base_duration_us": 127117
    },
    {
      "id": "M_1822",
      "pitch": 96,
      "t_note_us": 187889158,
      "t_trigger_us": 187753195,
      "is_ai": true,
      "track_id": 10,
      "velocity": 0,
      "is_motor": false,
      "motor_id": 0,
      "accel_val": 2000,
      "base_duration_us": 127117
    },
    {
      "id": "M_1825",
      "pitch": 59,
      "t_note_us": 188049378,
      "t_trigger_us": 187913415,
      "is_ai": false,
      "track_id": 0,
      "velocity": 0,
      "is_motor": true,
      "motor_id": 0,
      "accel_val": 2000,
      "base_duration_us": 127117
    },
    {
      "id": "M_1826",
      "pitch": 95,
      "t_note_us": 188058647,
      "t_trigger_us": 187922684,
      "is_ai": true,
      "track_id": 9,
      "velocity": 0,
      "is_motor": false,
      "motor_id": 0,
      "accel_val": 2000,
      "base_duration_us": 127117
    },
    {
      "id": "M_1827",
      "pitch": 64,
      "t_note_us": 188134123,
      "t_trigger_us": 187998160,
      "is_ai": false,
      "track_id": 0,
      "velocity": 0,
      "is_motor": true,
      "motor_id": 1,
      "accel_val": 2000,
      "base_duration_us": 127117
    },
    {
      "id": "M_1828",
      "pitch": 95,
      "t_note_us": 188143392,
      "t_trigger_us": 188007429,
      "is_ai": true,
      "track_id": 9,
      "velocity": 0,
      "is_motor": false,
      "motor_id": 0,
      "accel_val": 2000,
      "base_duration_us": 127117
    },
    {
      "id": "M_1829",
      "pitch": 67,
      "t_note_us": 188303612,
      "t_trigger_us": 188167649,
      "is_ai": false,
      "track_id": 0,
      "velocity": 0,
      "is_motor": true,
      "motor_id": 1,
      "accel_val": 2000,
      "base_duration_us": 127117
    },
    {
      "id": "M_1830",
      "pitch": 69,
      "t_note_us": 188312881,
      "t_trigger_us": 188176918,
      "is_ai": false,
      "track_id": 0,
      "velocity": 0,
      "is_motor": true,
      "motor_id": 2,
      "accel_val": 2000,
      "base_duration_us": 127117
    },
    {
      "id": "M_1832",
      "pitch": 52,
      "t_note_us": 188388357,
      "t_trigger_us": 188252394,
      "is_ai": false,
      "track_id": 0,
      "velocity": 0,
      "is_motor": true,
      "motor_id": 0,
      "accel_val": 2000,
      "base_duration_us": 254234
    },
    {
      "id": "M_1831",
      "pitch": 96,
      "t_note_us": 188397626,
      "t_trigger_us": 188261663,
      "is_ai": true,
      "track_id": 10,
      "velocity": 0,
      "is_motor": false,
      "motor_id": 0,
      "accel_val": 2000,
      "base_duration_us": 127117
    },
    {
      "id": "M_1833",
      "pitch": 95,
      "t_note_us": 188567115,
      "t_trigger_us": 188431152,
      "is_ai": true,
      "track_id": 9,
      "velocity": 0,
      "is_motor": false,
      "motor_id": 0,
      "accel_val": 2000,
      "base_duration_us": 127117
    },
    {
      "id": "M_1834",
      "pitch": 55,
      "t_note_us": 188642591,
      "t_trigger_us": 188506628,
      "is_ai": false,
      "track_id": 0,
      "velocity": 0,
      "is_motor": true,
      "motor_id": 0,
      "accel_val": 2000,
      "base_duration_us": 127117
    },
    {
      "id": "M_1835",
      "pitch": 69,
      "t_note_us": 188651860,
      "t_trigger_us": 188515897,
      "is_ai": false,
      "track_id": 0,
      "velocity": 0,
      "is_motor": true,
      "motor_id": 1,
      "accel_val": 2000,
      "base_duration_us": 127117
    },
    {
      "id": "M_1838",
      "pitch": 65,
      "t_note_us": 188812080,
      "t_trigger_us": 188676117,
      "is_ai": false,
      "track_id": 0,
      "velocity": 0,
      "is_motor": true,
      "motor_id": 1,
      "accel_val": 2000,
      "base_duration_us": 254234
    },
    {
      "id": "M_1839",
      "pitch": 71,
      "t_note_us": 188812080,
      "t_trigger_us": 188676117,
      "is_ai": false,
      "track_id": 0,
      "velocity": 0,
      "is_motor": true,
      "motor_id": 2,
      "accel_val": 2000,
      "base_duration_us": 254234
    },
    {
      "id": "M_1836",
      "pitch": 91,
      "t_note_us": 188821349,
      "t_trigger_us": 188685386,
      "is_ai": true,
      "track_id": 7,
      "velocity": 0,
      "is_motor": false,
      "motor_id": 0,
      "accel_val": 2000,
      "base_duration_us": 127117
    },
    {
      "id": "M_1837",
      "pitch": 78,
      "t_note_us": 188906094,
      "t_trigger_us": 188770131,
      "is_ai": false,
      "track_id": 0,
      "velocity": 0,
      "is_motor": true,
      "motor_id": 3,
      "accel_val": 2000,
      "base_duration_us": 127117
    },
    {
      "id": "M_1840",
      "pitch": 62,
      "t_note_us": 189066314,
      "t_trigger_us": 188930351,
      "is_ai": false,
      "track_id": 0,
      "velocity": 0,
      "is_motor": true,
      "motor_id": 1,
      "accel_val": 2000,
      "base_duration_us": 127117
    },
    {
      "id": "M_1844",
      "pitch": 91,
      "t_note_us": 189075583,
      "t_trigger_us": 188939620,
      "is_ai": true,
      "track_id": 7,
      "velocity": 0,
      "is_motor": false,
      "motor_id": 0,
      "accel_val": 2000,
      "base_duration_us": 635590
    },
    {
      "id": "M_1841",
      "pitch": 55,
      "t_note_us": 189151059,
      "t_trigger_us": 189015096,
      "is_ai": false,
      "track_id": 0,
      "velocity": 0,
      "is_motor": true,
      "motor_id": 0,
      "accel_val": 2000,
      "base_duration_us": 254236
    },
    {
      "id": "M_1842",
      "pitch": 71,
      "t_note_us": 189405295,
      "t_trigger_us": 189269332,
      "is_ai": false,
      "track_id": 0,
      "velocity": 0,
      "is_motor": true,
      "motor_id": 1,
      "accel_val": 2000,
      "base_duration_us": 254237
    },
    {
      "id": "M_1843",
      "pitch": 65,
      "t_note_us": 189405295,
      "t_trigger_us": 189269332,
      "is_ai": false,
      "track_id": 0,
      "velocity": 0,
      "is_motor": true,
      "motor_id": 0,
      "accel_val": 2000,
      "base_duration_us": 254237
    },
    {
      "id": "M_1845",
      "pitch": 67,
      "t_note_us": 189659532,
      "t_trigger_us": 189523569,
      "is_ai": false,
      "track_id": 0,
      "velocity": 0,
      "is_motor": true,
      "motor_id": 1,
      "accel_val": 2000,
      "base_duration_us": 762709
    },
    {
      "id": "M_1851",
      "pitch": 71,
      "t_note_us": 189659532,
      "t_trigger_us": 189523569,
      "is_ai": false,
      "track_id": 0,
      "velocity": 0,
      "is_motor": true,
      "motor_id": 2,
      "accel_val": 2000,
      "base_duration_us": 2033891
    },
    {
      "id": "M_1852",
      "pitch": 74,
      "t_note_us": 189659532,
      "t_trigger_us": 189523569,
      "is_ai": false,
      "track_id": 0,
      "velocity": 0,
      "is_motor": true,
      "motor_id": 0,
      "accel_val": 2000,
      "base_duration_us": 2033891
    },
    {
      "id": "M_1853",
      "pitch": 76,
      "t_note_us": 189659532,
      "t_trigger_us": 189523569,
      "is_ai": false,
      "track_id": 0,
      "velocity": 0,
      "is_motor": true,
      "motor_id": 3,
      "accel_val": 2000,
      "base_duration_us": 2033891
    },
    {
      "id": "M_1846",
      "pitch": 91,
      "t_note_us": 190177274,
      "t_trigger_us": 190041311,
      "is_ai": true,
      "track_id": 7,
      "velocity": 0,
      "is_motor": false,
      "motor_id": 0,
      "accel_val": 2000,
      "base_duration_us": 254236
    },
    {
      "id": "M_1850",
      "pitch": 67,
      "t_note_us": 190422241,
      "t_trigger_us": 190286278,
      "is_ai": false,
      "track_id": 0,
      "velocity": 0,
      "is_motor": true,
      "motor_id": 1,
      "accel_val": 2000,
      "base_duration_us": 1271182
    },
    {
      "id": "M_1847",
      "pitch": 91,
      "t_note_us": 190431510,
      "t_trigger_us": 190295547,
      "is_ai": true,
      "track_id": 7,
      "velocity": 0,
      "is_motor": false,
      "motor_id": 0,
      "accel_val": 2000,
      "base_duration_us": 254237
    },
    {
      "id": "M_1848",
      "pitch": 98,
      "t_note_us": 190685747,
      "t_trigger_us": 190549784,
      "is_ai": true,
      "track_id": 11,
      "velocity": 0,
      "is_motor": false,
      "motor_id": 0,
      "accel_val": 2000,
      "base_duration_us": 381355
    },
    {
      "id": "M_1849",
      "pitch": 96,
      "t_note_us": 191109474,
      "t_trigger_us": 190973511,
      "is_ai": true,
      "track_id": 10,
      "velocity": 0,
      "is_motor": false,
      "motor_id": 0,
      "accel_val": 2000,
      "base_duration_us": 381354
    },
    {
      "id": "M_1854",
      "pitch": 95,
      "t_note_us": 191448456,
      "t_trigger_us": 191312493,
      "is_ai": true,
      "track_id": 9,
      "velocity": 0,
      "is_motor": false,
      "motor_id": 0,
      "accel_val": 2000,
      "base_duration_us": 508473
    },
    {
      "id": "M_1856",
      "pitch": 69,
      "t_note_us": 191693423,
      "t_trigger_us": 191557460,
      "is_ai": false,
      "track_id": 0,
      "velocity": 0,
      "is_motor": true,
      "motor_id": 1,
      "accel_val": 2000,
      "base_duration_us": 762710
    },
    {
      "id": "M_1859",
      "pitch": 72,
      "t_note_us": 191693423,
      "t_trigger_us": 191557460,
      "is_ai": false,
      "track_id": 0,
      "velocity": 0,
      "is_motor": true,
      "motor_id": 0,
      "accel_val": 2000,
      "base_duration_us": 2033894
    },
    {
      "id": "M_1860",
      "pitch": 78,
      "t_note_us": 191693423,
      "t_trigger_us": 191557460,
      "is_ai": false,
      "track_id": 0,
      "velocity": 0,
      "is_motor": true,
      "motor_id": 2,
      "accel_val": 2000,
      "base_duration_us": 2033894
    },
    {
      "id": "M_1861",
      "pitch": 74,
      "t_note_us": 191693423,
      "t_trigger_us": 191557460,
      "is_ai": false,
      "track_id": 0,
      "velocity": 0,
      "is_motor": true,
      "motor_id": 3,
      "accel_val": 2000,
      "base_duration_us": 2033894
    },
    {
      "id": "M_1855",
      "pitch": 96,
      "t_note_us": 191956929,
      "t_trigger_us": 191820966,
      "is_ai": true,
      "track_id": 10,
      "velocity": 0,
      "is_motor": false,
      "motor_id": 0,
      "accel_val": 2000,
      "base_duration_us": 254237
    },
    {
      "id": "M_1857",
      "pitch": 95,
      "t_note_us": 192211166,
      "t_trigger_us": 192075203,
      "is_ai": true,
      "track_id": 9,
      "velocity": 0,
      "is_motor": false,
      "motor_id": 0,
      "accel_val": 2000,
      "base_duration_us": 254236
    },
    {
      "id": "M_1858",
      "pitch": 69,
      "t_note_us": 192456133,
      "t_trigger_us": 192320170,
      "is_ai": false,
      "track_id": 0,
      "velocity": 0,
      "is_motor": true,
      "motor_id": 1,
      "accel_val": 2000,
      "base_duration_us": 1271184
    },
    {
      "id": "M_1862",
      "pitch": 90,
      "t_note_us": 192465402,
      "t_trigger_us": 192329439,
      "is_ai": true,
      "track_id": 0,
      "velocity": 0,
      "is_motor": true,
      "motor_id": 0,
      "accel_val": 2000,
      "base_duration_us": 1271184
    },
    {
      "id": "M_1863",
      "pitch": 72,
      "t_note_us": 193727317,
      "t_trigger_us": 193591354,
      "is_ai": false,
      "track_id": 0,
      "velocity": 0,
      "is_motor": true,
      "motor_id": 1,
      "accel_val": 2000,
      "base_duration_us": 254236
    },
    {
      "id": "M_1864",
      "pitch": 71,
      "t_note_us": 193727317,
      "t_trigger_us": 193591354,
      "is_ai": false,
      "track_id": 0,
      "velocity": 0,
      "is_motor": true,
      "motor_id": 2,
      "accel_val": 2000,
      "base_duration_us": 762709
    },
    {
      "id": "M_1872",
      "pitch": 67,
      "t_note_us": 193727317,
      "t_trigger_us": 193591354,
      "is_ai": false,
      "track_id": 0,
      "velocity": 0,
      "is_motor": true,
      "motor_id": 0,
      "accel_val": 2000,
      "base_duration_us": 2033891
    },
    {
      "id": "M_1873",
      "pitch": 76,
      "t_note_us": 193727317,
      "t_trigger_us": 193591354,
      "is_ai": false,
      "track_id": 0,
      "velocity": 0,
      "is_motor": true,
      "motor_id": 3,
      "accel_val": 2000,
      "base_duration_us": 2033891
    },
    {
      "id": "M_1868",
      "pitch": 72,
      "t_note_us": 193981553,
      "t_trigger_us": 193845590,
      "is_ai": false,
      "track_id": 0,
      "velocity": 0,
      "is_motor": true,
      "motor_id": 1,
      "accel_val": 2000,
      "base_duration_us": 1271182
    },
    {
      "id": "M_1865",
      "pitch": 91,
      "t_note_us": 194245059,
      "t_trigger_us": 194109096,
      "is_ai": true,
      "track_id": 7,
      "velocity": 0,
      "is_motor": false,
      "motor_id": 0,
      "accel_val": 2000,
      "base_duration_us": 254236
    },
    {
      "id": "M_1871",
      "pitch": 71,
      "t_note_us": 194490026,
      "t_trigger_us": 194354063,
      "is_ai": false,
      "track_id": 0,
      "velocity": 0,
      "is_motor": true,
      "motor_id": 2,
      "accel_val": 2000,
      "base_duration_us": 1271182
    },
    {
      "id": "M_1866",
      "pitch": 91,
      "t_note_us": 194499295,
      "t_trigger_us": 194363332,
      "is_ai": true,
      "track_id": 7,
      "velocity": 0,
      "is_motor": false,
      "motor_id": 0,
      "accel_val": 2000,
      "base_duration_us": 254237
    },
    {
      "id": "M_1867",
      "pitch": 98,
      "t_note_us": 194753532,
      "t_trigger_us": 194617569,
      "is_ai": true,
      "track_id": 11,
      "velocity": 0,
      "is_motor": false,
      "motor_id": 0,
      "accel_val": 2000,
      "base_duration_us": 381355
    },
    {
      "id": "M_1869",
      "pitch": 96,
      "t_note_us": 195177259,
      "t_trigger_us": 195041296,
      "is_ai": true,
      "track_id": 10,
      "velocity": 0,
      "is_motor": false,
      "motor_id": 0,
      "accel_val": 2000,
      "base_duration_us": 381354
    },
    {
      "id": "M_1870",
      "pitch": 72,
      "t_note_us": 195252735,
      "t_trigger_us": 195116772,
      "is_ai": false,
      "track_id": 0,
      "velocity": 0,
      "is_motor": true,
      "motor_id": 1,
      "accel_val": 2000,
      "base_duration_us": 508473
    },
    {
      "id": "M_1874",
      "pitch": 98,
      "t_note_us": 195516241,
      "t_trigger_us": 195380278,
      "is_ai": true,
      "track_id": 11,
      "velocity": 0,
      "is_motor": false,
      "motor_id": 0,
      "accel_val": 2000,
      "base_duration_us": 508473
    },
    {
      "id": "M_1875",
      "pitch": 74,
      "t_note_us": 195761208,
      "t_trigger_us": 195625245,
      "is_ai": false,
      "track_id": 0,
      "velocity": 0,
      "is_motor": true,
      "motor_id": 1,
      "accel_val": 2000,
      "base_duration_us": 381355
    },
    {
      "id": "M_1883",
      "pitch": 69,
      "t_note_us": 195761208,
      "t_trigger_us": 195625245,
      "is_ai": false,
      "track_id": 0,
      "velocity": 0,
      "is_motor": true,
      "motor_id": 2,
      "accel_val": 2000,
      "base_duration_us": 2033890
    },
    {
      "id": "M_1884",
      "pitch": 78,
      "t_note_us": 195761208,
      "t_trigger_us": 195625245,
      "is_ai": false,
      "track_id": 0,
      "velocity": 0,
      "is_motor": true,
      "motor_id": 3,
      "accel_val": 2000,
      "base_duration_us": 2033890
    },
    {
      "id": "M_1885",
      "pitch": 71,
      "t_note_us": 195761208,
      "t_trigger_us": 195625245,
      "is_ai": false,
      "track_id": 0,
      "velocity": 0,
      "is_motor": true,
      "motor_id": 0,
      "accel_val": 2000,
      "base_duration_us": 2033890
    },
    {
      "id": "M_1876",
      "pitch": 103,
      "t_note_us": 196024714,
      "t_trigger_us": 195888751,
      "is_ai": true,
      "track_id": 14,
      "velocity": 0,
      "is_motor": false,
      "motor_id": 0,
      "accel_val": 2000,
      "base_duration_us": 254235
    },
    {
      "id": "M_1877",
      "pitch": 78,
      "t_note_us": 196278949,
      "t_trigger_us": 196142986,
      "is_ai": false,
      "track_id": 0,
      "velocity": 0,
      "is_motor": true,
      "motor_id": 1,
      "accel_val": 2000,
      "base_duration_us": 254236
    },
    {
      "id": "M_1882",
      "pitch": 71,
      "t_note_us": 196523916,
      "t_trigger_us": 196387953,
      "is_ai": false,
      "track_id": 0,
      "velocity": 0,
      "is_motor": true,
      "motor_id": 0,
      "accel_val": 2000,
      "base_duration_us": 1271182
    },
    {
      "id": "M_1878",
      "pitch": 67,
      "t_note_us": 196533185,
      "t_trigger_us": 196397222,
      "is_ai": false,
      "track_id": 0,
      "velocity": 0,
      "is_motor": true,
      "motor_id": 1,
      "accel_val": 2000,
      "base_duration_us": 508474
    },
    {
      "id": "M_1879",
      "pitch": 98,
      "t_note_us": 197041659,
      "t_trigger_us": 196905696,
      "is_ai": true,
      "track_id": 11,
      "velocity": 0,
      "is_motor": false,
      "motor_id": 0,
      "accel_val": 2000,
      "base_duration_us": 254236
    },
    {
      "id": "M_1880",
      "pitch": 74,
      "t_note_us": 197286626,
      "t_trigger_us": 197150663,
      "is_ai": false,
      "track_id": 0,
      "velocity": 0,
      "is_motor": true,
      "motor_id": 1,
      "accel_val": 2000,
      "base_duration_us": 42372
    },
    {
      "id": "M_1881",
      "pitch": 96,
      "t_note_us": 197295895,
      "t_trigger_us": 197159932,
      "is_ai": true,
      "track_id": 10,
      "velocity": 0,
      "is_motor": false,
      "motor_id": 0,
      "accel_val": 2000,
      "base_duration_us": 254236
    },
    {
      "id": "M_1886",
      "pitch": 95,
      "t_note_us": 197550131,
      "t_trigger_us": 197414168,
      "is_ai": true,
      "track_id": 9,
      "velocity": 0,
      "is_motor": false,
      "motor_id": 0,
      "accel_val": 2000,
      "base_duration_us": 254236
    },
    {
      "id": "M_1892",
      "pitch": 76,
      "t_note_us": 197795098,
      "t_trigger_us": 197659135,
      "is_ai": false,
      "track_id": 0,
      "velocity": 0,
      "is_motor": true,
      "motor_id": 2,
      "accel_val": 2000,
      "base_duration_us": 1271181
    },
    {
      "id": "M_1895",
      "pitch": 72,
      "t_note_us": 197795098,
      "t_trigger_us": 197659135,
      "is_ai": false,
      "track_id": 0,
      "velocity": 0,
      "is_motor": true,
      "motor_id": 1,
      "accel_val": 2000,
      "base_duration_us": 1525416
    },
    {
      "id": "M_1902",
      "pitch": 67,
      "t_note_us": 197795098,
      "t_trigger_us": 197659135,
      "is_ai": false,
      "track_id": 0,
      "velocity": 0,
      "is_motor": true,
      "motor_id": 0,
      "accel_val": 2000,
      "base_duration_us": 2033889
    },
    {
      "id": "M_1903",
      "pitch": 69,
      "t_note_us": 197795098,
      "t_trigger_us": 197659135,
      "is_ai": false,
      "track_id": 0,
      "velocity": 0,
      "is_motor": true,
      "motor_id": 3,
      "accel_val": 2000,
      "base_duration_us": 2033889
    },
    {
      "id": "M_1887",
      "pitch": 88,
      "t_note_us": 197804367,
      "t_trigger_us": 197668404,
      "is_ai": true,
      "track_id": 5,
      "velocity": 0,
      "is_motor": false,
      "motor_id": 0,
      "accel_val": 2000,
      "base_duration_us": 381355
    },
    {
      "id": "M_1888",
      "pitch": 95,
      "t_note_us": 197804367,
      "t_trigger_us": 197668404,
      "is_ai": true,
      "track_id": 9,
      "velocity": 0,
      "is_motor": false,
      "motor_id": 0,
      "accel_val": 2000,
      "base_duration_us": 381355
    },
    {
      "id": "M_1890",
      "pitch": 93,
      "t_note_us": 198228094,
      "t_trigger_us": 198092131,
      "is_ai": true,
      "track_id": 8,
      "velocity": 0,
      "is_motor": false,
      "motor_id": 0,
      "accel_val": 2000,
      "base_duration_us": 381354
    },
    {
      "id": "M_1901",
      "pitch": 69,
      "t_note_us": 198557807,
      "t_trigger_us": 198421844,
      "is_ai": false,
      "track_id": 0,
      "velocity": 0,
      "is_motor": true,
      "motor_id": 0,
      "accel_val": 2000,
      "base_duration_us": 1271180
    },
    {
      "id": "M_1889",
      "pitch": 88,
      "t_note_us": 198567076,
      "t_trigger_us": 198431113,
      "is_ai": true,
      "track_id": 5,
      "velocity": 0,
      "is_motor": false,
      "motor_id": 0,
      "accel_val": 2000,
      "base_duration_us": 42372
    },
    {
      "id": "M_1891",
      "pitch": 91,
      "t_note_us": 198567076,
      "t_trigger_us": 198431113,
      "is_ai": true,
      "track_id": 7,
      "velocity": 0,
      "is_motor": false,
      "motor_id": 0,
      "accel_val": 2000,
      "base_duration_us": 254236
    },
    {
      "id": "M_1893",
      "pitch": 88,
      "t_note_us": 198821312,
      "t_trigger_us": 198685349,
      "is_ai": true,
      "track_id": 5,
      "velocity": 0,
      "is_motor": false,
      "motor_id": 0,
      "accel_val": 2000,
      "base_duration_us": 381354
    },
    {
      "id": "M_1894",
      "pitch": 91,
      "t_note_us": 198821312,
      "t_trigger_us": 198685349,
      "is_ai": true,
      "track_id": 7,
      "velocity": 0,
      "is_motor": false,
      "motor_id": 0,
      "accel_val": 2000,
      "base_duration_us": 381354
    },
    {
      "id": "M_1900",
      "pitch": 76,
      "t_note_us": 199066279,
      "t_trigger_us": 198930316,
      "is_ai": false,
      "track_id": 0,
      "velocity": 0,
      "is_motor": true,
      "motor_id": 2,
      "accel_val": 2000,
      "base_duration_us": 762708
    },
    {
      "id": "M_1897",
      "pitch": 90,
      "t_note_us": 199245038,
      "t_trigger_us": 199109075,
      "is_ai": true,
      "track_id": 0,
      "velocity": 0,
      "is_motor": true,
      "motor_id": 0,
      "accel_val": 2000,
      "base_duration_us": 381354
    },
    {
      "id": "M_1899",
      "pitch": 72,
      "t_note_us": 199320514,
      "t_trigger_us": 199184551,
      "is_ai": false,
      "track_id": 0,
      "velocity": 0,
      "is_motor": true,
      "motor_id": 1,
      "accel_val": 2000,
      "base_duration_us": 508473
    },
    {
      "id": "M_1898",
      "pitch": 67,
      "t_note_us": 199574751,
      "t_trigger_us": 199438788,
      "is_ai": false,
      "track_id": 0,
      "velocity": 0,
      "is_motor": true,
      "motor_id": 0,
      "accel_val": 2000,
      "base_duration_us": 254236
    },
    {
      "id": "M_1896",
      "pitch": 88,
      "t_note_us": 199584020,
      "t_trigger_us": 199448057,
      "is_ai": true,
      "track_id": 5,
      "velocity": 0,
      "is_motor": false,
      "motor_id": 0,
      "accel_val": 2000,
      "base_duration_us": 42372
    },
    {
      "id": "M_1904",
      "pitch": 91,
      "t_note_us": 199584020,
      "t_trigger_us": 199448057,
      "is_ai": true,
      "track_id": 7,
      "velocity": 0,
      "is_motor": false,
      "motor_id": 0,
      "accel_val": 2000,
      "base_duration_us": 254236
    },
    {
      "id": "M_1911",
      "pitch": 78,
      "t_note_us": 199828987,
      "t_trigger_us": 199693024,
      "is_ai": false,
      "track_id": 0,
      "velocity": 0,
      "is_motor": true,
      "motor_id": 2,
      "accel_val": 2000,
      "base_duration_us": 1271181
    },
    {
      "id": "M_1914",
      "pitch": 74,
      "t_note_us": 199828987,
      "t_trigger_us": 199693024,
      "is_ai": false,
      "track_id": 0,
      "velocity": 0,
      "is_motor": true,
      "motor_id": 1,
      "accel_val": 2000,
      "base_duration_us": 1525416
    },
    {
      "id": "M_1920",
      "pitch": 69,
      "t_note_us": 199828987,
      "t_trigger_us": 199693024,
      "is_ai": false,
      "track_id": 0,
      "velocity": 0,
      "is_motor": true,
      "motor_id": 0,
      "accel_val": 2000,
      "base_duration_us": 2033889
    },
    {
      "id": "M_1921",
      "pitch": 71,
      "t_note_us": 199828987,
      "t_trigger_us": 199693024,
      "is_ai": false,
      "track_id": 0,
      "velocity": 0,
      "is_motor": true,
      "motor_id": 3,
      "accel_val": 2000,
      "base_duration_us": 2033889
    },
    {
      "id": "M_1905",
      "pitch": 90,
      "t_note_us": 199838256,
      "t_trigger_us": 199702293,
      "is_ai": true,
      "track_id": 0,
      "velocity": 0,
      "is_motor": true,
      "motor_id": 0,
      "accel_val": 2000,
      "base_duration_us": 381355
    },
    {
      "id": "M_1906",
      "pitch": 98,
      "t_note_us": 199838256,
      "t_trigger_us": 199702293,
      "is_ai": true,
      "track_id": 11,
      "velocity": 0,
      "is_motor": false,
      "motor_id": 0,
      "accel_val": 2000,
      "base_duration_us": 381355
    },
    {
      "id": "M_1908",
      "pitch": 96,
      "t_note_us": 200261983,
      "t_trigger_us": 200126020,
      "is_ai": true,
      "track_id": 10,
      "velocity": 0,
      "is_motor": false,
      "motor_id": 0,
      "accel_val": 2000,
      "base_duration_us": 381354
    },
    {
      "id": "M_1910",
      "pitch": 71,
      "t_note_us": 200591696,
      "t_trigger_us": 200455733,
      "is_ai": false,
      "track_id": 0,
      "velocity": 0,
      "is_motor": true,
      "motor_id": 0,
      "accel_val": 2000,
      "base_duration_us": 508472
    },
    {
      "id": "M_1907",
      "pitch": 90,
      "t_note_us": 200600965,
      "t_trigger_us": 200465002,
      "is_ai": true,
      "track_id": 0,
      "velocity": 0,
      "is_motor": true,
      "motor_id": 0,
      "accel_val": 2000,
      "base_duration_us": 42372
    },
    {
      "id": "M_1909",
      "pitch": 95,
      "t_note_us": 200600965,
      "t_trigger_us": 200465002,
      "is_ai": true,
      "track_id": 9,
      "velocity": 0,
      "is_motor": false,
      "motor_id": 0,
      "accel_val": 2000,
      "base_duration_us": 254236
    },
    {
      "id": "M_1912",
      "pitch": 86,
      "t_note_us": 200855201,
      "t_trigger_us": 200719238,
      "is_ai": true,
      "track_id": 4,
      "velocity": 0,
      "is_motor": false,
      "motor_id": 0,
      "accel_val": 2000,
      "base_duration_us": 381354
    },
    {
      "id": "M_1913",
      "pitch": 95,
      "t_note_us": 200855201,
      "t_trigger_us": 200719238,
      "is_ai": true,
      "track_id": 9,
      "velocity": 0,
      "is_motor": false,
      "motor_id": 0,
      "accel_val": 2000,
      "base_duration_us": 381354
    },
    {
      "id": "M_1919",
      "pitch": 78,
      "t_note_us": 201100168,
      "t_trigger_us": 200964205,
      "is_ai": false,
      "track_id": 0,
      "velocity": 0,
      "is_motor": true,
      "motor_id": 2,
      "accel_val": 2000,
      "base_duration_us": 762708
    },
    {
      "id": "M_1916",
      "pitch": 93,
      "t_note_us": 201278927,
      "t_trigger_us": 201142964,
      "is_ai": true,
      "track_id": 8,
      "velocity": 0,
      "is_motor": false,
      "motor_id": 0,
      "accel_val": 2000,
      "base_duration_us": 381354
    },
    {
      "id": "M_1918",
      "pitch": 74,
      "t_note_us": 201354403,
      "t_trigger_us": 201218440,
      "is_ai": false,
      "track_id": 0,
      "velocity": 0,
      "is_motor": true,
      "motor_id": 1,
      "accel_val": 2000,
      "base_duration_us": 508473
    },
    {
      "id": "M_1917",
      "pitch": 69,
      "t_note_us": 201608640,
      "t_trigger_us": 201472677,
      "is_ai": false,
      "track_id": 0,
      "velocity": 0,
      "is_motor": true,
      "motor_id": 0,
      "accel_val": 2000,
      "base_duration_us": 254236
    },
    {
      "id": "M_1915",
      "pitch": 86,
      "t_note_us": 201617909,
      "t_trigger_us": 201481946,
      "is_ai": true,
      "track_id": 4,
      "velocity": 0,
      "is_motor": false,
      "motor_id": 0,
      "accel_val": 2000,
      "base_duration_us": 42372
    },
    {
      "id": "M_1922",
      "pitch": 91,
      "t_note_us": 201617909,
      "t_trigger_us": 201481946,
      "is_ai": true,
      "track_id": 7,
      "velocity": 0,
      "is_motor": false,
      "motor_id": 0,
      "accel_val": 2000,
      "base_duration_us": 254236
    },
    {
      "id": "M_1925",
      "pitch": 72,
      "t_note_us": 201862876,
      "t_trigger_us": 201726913,
      "is_ai": false,
      "track_id": 0,
      "velocity": 0,
      "is_motor": true,
      "motor_id": 1,
      "accel_val": 2000,
      "base_duration_us": 762710
    },
    {
      "id": "M_1929",
      "pitch": 71,
      "t_note_us": 201862876,
      "t_trigger_us": 201726913,
      "is_ai": false,
      "track_id": 0,
      "velocity": 0,
      "is_motor": true,
      "motor_id": 2,
      "accel_val": 2000,
      "base_duration_us": 1016946
    },
    {
      "id": "M_1930",
      "pitch": 67,
      "t_note_us": 201862876,
      "t_trigger_us": 201726913,
      "is_ai": false,
      "track_id": 0,
      "velocity": 0,
      "is_motor": true,
      "motor_id": 0,
      "accel_val": 2000,
      "base_duration_us": 1016946
    },
    {
      "id": "M_1931",
      "pitch": 76,
      "t_note_us": 201862876,
      "t_trigger_us": 201726913,
      "is_ai": false,
      "track_id": 0,
      "velocity": 0,
      "is_motor": true,
      "motor_id": 3,
      "accel_val": 2000,
      "base_duration_us": 1016946
    },
    {
      "id": "M_1923",
      "pitch": 95,
      "t_note_us": 201872145,
      "t_trigger_us": 201736182,
      "is_ai": true,
      "track_id": 9,
      "velocity": 0,
      "is_motor": false,
      "motor_id": 0,
      "accel_val": 2000,
      "base_duration_us": 381355
    },
    {
      "id": "M_1924",
      "pitch": 88,
      "t_note_us": 201872145,
      "t_trigger_us": 201736182,
      "is_ai": true,
      "track_id": 5,
      "velocity": 0,
      "is_motor": false,
      "motor_id": 0,
      "accel_val": 2000,
      "base_duration_us": 381355
    },
    {
      "id": "M_1926",
      "pitch": 88,
      "t_note_us": 202253500,
      "t_trigger_us": 202117537,
      "is_ai": true,
      "track_id": 5,
      "velocity": 0,
      "is_motor": false,
      "motor_id": 0,
      "accel_val": 2000,
      "base_duration_us": 381355
    },
    {
      "id": "M_1927",
      "pitch": 93,
      "t_note_us": 202253500,
      "t_trigger_us": 202117537,
      "is_ai": true,
      "track_id": 8,
      "velocity": 0,
      "is_motor": false,
      "motor_id": 0,
      "accel_val": 2000,
      "base_duration_us": 381355
    },
    {
      "id": "M_1928",
      "pitch": 72,
      "t_note_us": 202625586,
      "t_trigger_us": 202489623,
      "is_ai": false,
      "track_id": 0,
      "velocity": 0,
      "is_motor": true,
      "motor_id": 1,
      "accel_val": 2000,
      "base_duration_us": 254236
    },
    {
      "id": "M_1932",
      "pitch": 91,
      "t_note_us": 202634855,
      "t_trigger_us": 202498892,
      "is_ai": true,
      "track_id": 7,
      "velocity": 0,
      "is_motor": false,
      "motor_id": 0,
      "accel_val": 2000,
      "base_duration_us": 254236
    },
    {
      "id": "M_1933",
      "pitch": 76,
      "t_note_us": 202634855,
      "t_trigger_us": 202498892,
      "is_ai": false,
      "track_id": 0,
      "velocity": 0,
      "is_motor": true,
      "motor_id": 0,
      "accel_val": 2000,
      "base_duration_us": 254236
    },
    {
      "id": "M_1938",
      "pitch": 75,
      "t_note_us": 202879822,
      "t_trigger_us": 202743859,
      "is_ai": false,
      "track_id": 0,
      "velocity": 0,
      "is_motor": true,
      "motor_id": 2,
      "accel_val": 2000,
      "base_duration_us": 1016946
    },
    {
      "id": "M_1939",
      "pitch": 71,
      "t_note_us": 202879822,
      "t_trigger_us": 202743859,
      "is_ai": false,
      "track_id": 0,
      "velocity": 0,
      "is_motor": true,
      "motor_id": 1,
      "accel_val": 2000,
      "base_duration_us": 1016946
    },
    {
      "id": "M_1940",
      "pitch": 67,
      "t_note_us": 202879822,
      "t_trigger_us": 202743859,
      "is_ai": false,
      "track_id": 0,
      "velocity": 0,
      "is_motor": true,
      "motor_id": 0,
      "accel_val": 2000,
      "base_duration_us": 1016946
    },
    {
      "id": "M_1941",
      "pitch": 72,
      "t_note_us": 202879822,
      "t_trigger_us": 202743859,
      "is_ai": false,
      "track_id": 0,
      "velocity": 0,
      "is_motor": true,
      "motor_id": 3,
      "accel_val": 2000,
      "base_duration_us": 1016946
    },
    {
      "id": "M_1934",
      "pitch": 98,
      "t_note_us": 202889091,
      "t_trigger_us": 202753128,
      "is_ai": true,
      "track_id": 11,
      "velocity": 0,
      "is_motor": false,
      "motor_id": 0,
      "accel_val": 2000,
      "base_duration_us": 381355
    },
    {
      "id": "M_1935",
      "pitch": 91,
      "t_note_us": 202889091,
      "t_trigger_us": 202753128,
      "is_ai": true,
      "track_id": 7,
      "velocity": 0,
      "is_motor": false,
      "motor_id": 0,
      "accel_val": 2000,
      "base_duration_us": 381355
    },
    {
      "id": "M_1936",
      "pitch": 91,
      "t_note_us": 203270446,
      "t_trigger_us": 203134483,
      "is_ai": true,
      "track_id": 7,
      "velocity": 0,
      "is_motor": false,
      "motor_id": 0,
      "accel_val": 2000,
      "base_duration_us": 381355
    },
    {
      "id": "M_1937",
      "pitch": 96,
      "t_note_us": 203270446,
      "t_trigger_us": 203134483,
      "is_ai": true,
      "track_id": 10,
      "velocity": 0,
      "is_motor": false,
      "motor_id": 0,
      "accel_val": 2000,
      "base_duration_us": 381355
    },
    {
      "id": "M_1942",
      "pitch": 95,
      "t_note_us": 203651801,
      "t_trigger_us": 203515838,
      "is_ai": true,
      "track_id": 9,
      "velocity": 0,
      "is_motor": false,
      "motor_id": 0,
      "accel_val": 2000,
      "base_duration_us": 254236
    },
    {
      "id": "M_1943",
      "pitch": 91,
      "t_note_us": 203651801,
      "t_trigger_us": 203515838,
      "is_ai": true,
      "track_id": 7,
      "velocity": 0,
      "is_motor": false,
      "motor_id": 0,
      "accel_val": 2000,
      "base_duration_us": 254236
    },
    {
      "id": "M_1949",
      "pitch": 71,
      "t_note_us": 203896768,
      "t_trigger_us": 203760805,
      "is_ai": false,
      "track_id": 0,
      "velocity": 0,
      "is_motor": true,
      "motor_id": 1,
      "accel_val": 2000,
      "base_duration_us": 1016946
    },
    {
      "id": "M_1950",
      "pitch": 67,
      "t_note_us": 203896768,
      "t_trigger_us": 203760805,
      "is_ai": false,
      "track_id": 0,
      "velocity": 0,
      "is_motor": true,
      "motor_id": 2,
      "accel_val": 2000,
      "base_duration_us": 1016946
    },
    {
      "id": "M_1951",
      "pitch": 78,
      "t_note_us": 203896768,
      "t_trigger_us": 203760805,
      "is_ai": false,
      "track_id": 0,
      "velocity": 0,
      "is_motor": true,
      "motor_id": 3,
      "accel_val": 2000,
      "base_duration_us": 1016946
    },
    {
      "id": "M_1952",
      "pitch": 74,
      "t_note_us": 203896768,
      "t_trigger_us": 203760805,
      "is_ai": false,
      "track_id": 0,
      "velocity": 0,
      "is_motor": true,
      "motor_id": 0,
      "accel_val": 2000,
      "base_duration_us": 1016946
    },
    {
      "id": "M_1944",
      "pitch": 91,
      "t_note_us": 203906037,
      "t_trigger_us": 203770074,
      "is_ai": true,
      "track_id": 7,
      "velocity": 0,
      "is_motor": false,
      "motor_id": 0,
      "accel_val": 2000,
      "base_duration_us": 381355
    },
    {
      "id": "M_1945",
      "pitch": 95,
      "t_note_us": 203906037,
      "t_trigger_us": 203770074,
      "is_ai": true,
      "track_id": 9,
      "velocity": 0,
      "is_motor": false,
      "motor_id": 0,
      "accel_val": 2000,
      "base_duration_us": 381355
    },
    {
      "id": "M_1946",
      "pitch": 91,
      "t_note_us": 204287392,
      "t_trigger_us": 204151429,
      "is_ai": true,
      "track_id": 7,
      "velocity": 0,
      "is_motor": false,
      "motor_id": 0,
      "accel_val": 2000,
      "base_duration_us": 381355
    },
    {
      "id": "M_1947",
      "pitch": 96,
      "t_note_us": 204287392,
      "t_trigger_us": 204151429,
      "is_ai": true,
      "track_id": 10,
      "velocity": 0,
      "is_motor": false,
      "motor_id": 0,
      "accel_val": 2000,
      "base_duration_us": 381355
    },
    {
      "id": "M_1948",
      "pitch": 71,
      "t_note_us": 204659478,
      "t_trigger_us": 204523515,
      "is_ai": false,
      "track_id": 0,
      "velocity": 0,
      "is_motor": true,
      "motor_id": 0,
      "accel_val": 2000,
      "base_duration_us": 254236
    },
    {
      "id": "M_1953",
      "pitch": 91,
      "t_note_us": 204668747,
      "t_trigger_us": 204532784,
      "is_ai": true,
      "track_id": 7,
      "velocity": 0,
      "is_motor": false,
      "motor_id": 0,
      "accel_val": 2000,
      "base_duration_us": 254236
    },
    {
      "id": "M_1954",
      "pitch": 98,
      "t_note_us": 204668747,
      "t_trigger_us": 204532784,
      "is_ai": true,
      "track_id": 11,
      "velocity": 0,
      "is_motor": false,
      "motor_id": 0,
      "accel_val": 2000,
      "base_duration_us": 254236
    },
    {
      "id": "M_1960",
      "pitch": 71,
      "t_note_us": 204913714,
      "t_trigger_us": 204777751,
      "is_ai": false,
      "track_id": 0,
      "velocity": 0,
      "is_motor": true,
      "motor_id": 1,
      "accel_val": 2000,
      "base_duration_us": 1016943
    },
    {
      "id": "M_1961",
      "pitch": 69,
      "t_note_us": 204913714,
      "t_trigger_us": 204777751,
      "is_ai": false,
      "track_id": 0,
      "velocity": 0,
      "is_motor": true,
      "motor_id": 2,
      "accel_val": 2000,
      "base_duration_us": 1016943
    },
    {
      "id": "M_1962",
      "pitch": 77,
      "t_note_us": 204913714,
      "t_trigger_us": 204777751,
      "is_ai": false,
      "track_id": 0,
      "velocity": 0,
      "is_motor": true,
      "motor_id": 3,
      "accel_val": 2000,
      "base_duration_us": 1016943
    },
    {
      "id": "M_1963",
      "pitch": 74,
      "t_note_us": 204913714,
      "t_trigger_us": 204777751,
      "is_ai": false,
      "track_id": 0,
      "velocity": 0,
      "is_motor": true,
      "motor_id": 0,
      "accel_val": 2000,
      "base_duration_us": 1016943
    },
    {
      "id": "M_1955",
      "pitch": 95,
      "t_note_us": 204922983,
      "t_trigger_us": 204787020,
      "is_ai": true,
      "track_id": 9,
      "velocity": 0,
      "is_motor": false,
      "motor_id": 0,
      "accel_val": 2000,
      "base_duration_us": 508473
    },
    {
      "id": "M_1956",
      "pitch": 89,
      "t_note_us": 204922983,
      "t_trigger_us": 204787020,
      "is_ai": true,
      "track_id": 6,
      "velocity": 0,
      "is_motor": false,
      "motor_id": 0,
      "accel_val": 2000,
      "base_duration_us": 508473
    },
    {
      "id": "M_1957",
      "pitch": 62,
      "t_note_us": 205337442,
      "t_trigger_us": 205201479,
      "is_ai": false,
      "track_id": 0,
      "velocity": 0,
      "is_motor": true,
      "motor_id": 0,
      "accel_val": 2000,
      "base_duration_us": 127117
    },
    {
      "id": "M_1958",
      "pitch": 69,
      "t_note_us": 205422187,
      "t_trigger_us": 205286224,
      "is_ai": false,
      "track_id": 0,
      "velocity": 0,
      "is_motor": true,
      "motor_id": 0,
      "accel_val": 2000,
      "base_duration_us": 127117
    },
    {
      "id": "M_1959",
      "pitch": 69,
      "t_note_us": 205676421,
      "t_trigger_us": 205540458,
      "is_ai": false,
      "track_id": 0,
      "velocity": 0,
      "is_motor": true,
      "motor_id": 0,
      "accel_val": 2000,
      "base_duration_us": 42372
    },
    {
      "id": "M_1964",
      "pitch": 48,
      "t_note_us": 205930657,
      "t_trigger_us": 205794694,
      "is_ai": false,
      "track_id": 0,
      "velocity": 0,
      "is_motor": true,
      "motor_id": 0,
      "accel_val": 2000,
      "base_duration_us": 254237
    },
    {
      "id": "M_1965",
      "pitch": 64,
      "t_note_us": 206184894,
      "t_trigger_us": 206048931,
      "is_ai": false,
      "track_id": 0,
      "velocity": 0,
      "is_motor": true,
      "motor_id": 1,
      "accel_val": 2000,
      "base_duration_us": 254236
    },
    {
      "id": "M_1966",
      "pitch": 60,
      "t_note_us": 206184894,
      "t_trigger_us": 206048931,
      "is_ai": false,
      "track_id": 0,
      "velocity": 0,
      "is_motor": true,
      "motor_id": 0,
      "accel_val": 2000,
      "base_duration_us": 254236
    },
    {
      "id": "M_1967",
      "pitch": 91,
      "t_note_us": 206194163,
      "t_trigger_us": 206058200,
      "is_ai": true,
      "track_id": 7,
      "velocity": 0,
      "is_motor": false,
      "motor_id": 0,
      "accel_val": 2000,
      "base_duration_us": 254236
    },
    {
      "id": "M_1968",
      "pitch": 88,
      "t_note_us": 206194163,
      "t_trigger_us": 206058200,
      "is_ai": true,
      "track_id": 5,
      "velocity": 0,
      "is_motor": false,
      "motor_id": 0,
      "accel_val": 2000,
      "base_duration_us": 254236
    },
    {
      "id": "M_1969",
      "pitch": 55,
      "t_note_us": 206439130,
      "t_trigger_us": 206303167,
      "is_ai": false,
      "track_id": 0,
      "velocity": 0,
      "is_motor": true,
      "motor_id": 0,
      "accel_val": 2000,
      "base_duration_us": 127118
    },
    {
      "id": "M_1972",
      "pitch": 98,
      "t_note_us": 206448399,
      "t_trigger_us": 206312436,
      "is_ai": true,
      "track_id": 11,
      "velocity": 0,
      "is_motor": false,
      "motor_id": 0,
      "accel_val": 2000,
      "base_duration_us": 508471
    },
    {
      "id": "M_1973",
      "pitch": 91,
      "t_note_us": 206448399,
      "t_trigger_us": 206312436,
      "is_ai": true,
      "track_id": 7,
      "velocity": 0,
      "is_motor": false,
      "motor_id": 0,
      "accel_val": 2000,
      "base_duration_us": 508471
    },
    {
      "id": "M_1970",
      "pitch": 64,
      "t_note_us": 206608620,
      "t_trigger_us": 206472657,
      "is_ai": false,
      "track_id": 0,
      "velocity": 0,
      "is_motor": true,
      "motor_id": 1,
      "accel_val": 2000,
      "base_duration_us": 127117
    },
    {
      "id": "M_1971",
      "pitch": 48,
      "t_note_us": 206693365,
      "t_trigger_us": 206557402,
      "is_ai": false,
      "track_id": 0,
      "velocity": 0,
      "is_motor": true,
      "motor_id": 0,
      "accel_val": 2000,
      "base_duration_us": 254236
    },
    {
      "id": "M_1974",
      "pitch": 47,
      "t_note_us": 206947601,
      "t_trigger_us": 206811638,
      "is_ai": false,
      "track_id": 0,
      "velocity": 0,
      "is_motor": true,
      "motor_id": 0,
      "accel_val": 2000,
      "base_duration_us": 254236
    },
    {
      "id": "M_1975",
      "pitch": 90,
      "t_note_us": 206956870,
      "t_trigger_us": 206820907,
      "is_ai": true,
      "track_id": 0,
      "velocity": 0,
      "is_motor": true,
      "motor_id": 3,
      "accel_val": 2000,
      "base_duration_us": 254236
    },
    {
      "id": "M_1976",
      "pitch": 98,
      "t_note_us": 206956870,
      "t_trigger_us": 206820907,
      "is_ai": true,
      "track_id": 11,
      "velocity": 0,
      "is_motor": false,
      "motor_id": 0,
      "accel_val": 2000,
      "base_duration_us": 254236
    },
    {
      "id": "M_1977",
      "pitch": 63,
      "t_note_us": 207201837,
      "t_trigger_us": 207065874,
      "is_ai": false,
      "track_id": 0,
      "velocity": 0,
      "is_motor": true,
      "motor_id": 1,
      "accel_val": 2000,
      "base_duration_us": 254236
    },
    {
      "id": "M_1978",
      "pitch": 59,
      "t_note_us": 207201837,
      "t_trigger_us": 207065874,
      "is_ai": false,
      "track_id": 0,
      "velocity": 0,
      "is_motor": true,
      "motor_id": 0,
      "accel_val": 2000,
      "base_duration_us": 254236
    },
    {
      "id": "M_1979",
      "pitch": 90,
      "t_note_us": 207211106,
      "t_trigger_us": 207075143,
      "is_ai": true,
      "track_id": 0,
      "velocity": 0,
      "is_motor": true,
      "motor_id": 3,
      "accel_val": 2000,
      "base_duration_us": 254236
    },
    {
      "id": "M_1980",
      "pitch": 96,
      "t_note_us": 207211106,
      "t_trigger_us": 207075143,
      "is_ai": true,
      "track_id": 10,
      "velocity": 0,
      "is_motor": false,
      "motor_id": 0,
      "accel_val": 2000,
      "base_duration_us": 254236
    },
    {
      "id": "M_1981",
      "pitch": 54,
      "t_note_us": 207456073,
      "t_trigger_us": 207320110,
      "is_ai": false,
      "track_id": 0,
      "velocity": 0,
      "is_motor": true,
      "motor_id": 0,
      "accel_val": 2000,
      "base_duration_us": 127118
    },
    {
      "id": "M_1982",
      "pitch": 95,
      "t_note_us": 207465342,
      "t_trigger_us": 207329379,
      "is_ai": true,
      "track_id": 9,
      "velocity": 0,
      "is_motor": false,
      "motor_id": 0,
      "accel_val": 2000,
      "base_duration_us": 254235
    },
    {
      "id": "M_1983",
      "pitch": 98,
      "t_note_us": 207465342,
      "t_trigger_us": 207329379,
      "is_ai": true,
      "track_id": 11,
      "velocity": 0,
      "is_motor": false,
      "motor_id": 0,
      "accel_val": 2000,
      "base_duration_us": 254235
    },
    {
      "id": "M_1984",
      "pitch": 63,
      "t_note_us": 207625563,
      "t_trigger_us": 207489600,
      "is_ai": false,
      "track_id": 0,
      "velocity": 0,
      "is_motor": true,
      "motor_id": 1,
      "accel_val": 2000,
      "base_duration_us": 127117
    },
    {
      "id": "M_1985",
      "pitch": 47,
      "t_note_us": 207710308,
      "t_trigger_us": 207574345,
      "is_ai": false,
      "track_id": 0,
      "velocity": 0,
      "is_motor": true,
      "motor_id": 0,
      "accel_val": 2000,
      "base_duration_us": 254236
    },
    {
      "id": "M_1986",
      "pitch": 95,
      "t_note_us": 207719577,
      "t_trigger_us": 207583614,
      "is_ai": true,
      "track_id": 9,
      "velocity": 0,
      "is_motor": false,
      "motor_id": 0,
      "accel_val": 2000,
      "base_duration_us": 254236
    },
    {
      "id": "M_1987",
      "pitch": 78,
      "t_note_us": 207719577,
      "t_trigger_us": 207583614,
      "is_ai": false,
      "track_id": 0,
      "velocity": 0,
      "is_motor": true,
      "motor_id": 2,
      "accel_val": 2000,
      "base_duration_us": 254236
    },
    {
      "id": "M_1988",
      "pitch": 52,
      "t_note_us": 207964544,
      "t_trigger_us": 207828581,
      "is_ai": false,
      "track_id": 0,
      "velocity": 0,
      "is_motor": true,
      "motor_id": 0,
      "accel_val": 2000,
      "base_duration_us": 254236
    },
    {
      "id": "M_1989",
      "pitch": 103,
      "t_note_us": 207973813,
      "t_trigger_us": 207837850,
      "is_ai": true,
      "track_id": 14,
      "velocity": 0,
      "is_motor": false,
      "motor_id": 0,
      "accel_val": 2000,
      "base_duration_us": 254236
    },
    {
      "id": "M_1990",
      "pitch": 100,
      "t_note_us": 207973813,
      "t_trigger_us": 207837850,
      "is_ai": true,
      "track_id": 12,
      "velocity": 0,
      "is_motor": false,
      "motor_id": 0,
      "accel_val": 2000,
      "base_duration_us": 254236
    },
    {
      "id": "M_1991",
      "pitch": 95,
      "t_note_us": 207973813,
      "t_trigger_us": 207837850,
      "is_ai": true,
      "track_id": 9,
      "velocity": 0,
      "is_motor": false,
      "motor_id": 0,
      "accel_val": 2000,
      "base_duration_us": 254236
    },
    {
      "id": "M_1992",
      "pitch": 67,
      "t_note_us": 208218780,
      "t_trigger_us": 208082817,
      "is_ai": false,
      "track_id": 0,
      "velocity": 0,
      "is_motor": true,
      "motor_id": 1,
      "accel_val": 2000,
      "base_duration_us": 254236
    },
    {
      "id": "M_1993",
      "pitch": 64,
      "t_note_us": 208218780,
      "t_trigger_us": 208082817,
      "is_ai": false,
      "track_id": 0,
      "velocity": 0,
      "is_motor": true,
      "motor_id": 0,
      "accel_val": 2000,
      "base_duration_us": 254236
    },
    {
      "id": "M_1994",
      "pitch": 95,
      "t_note_us": 208228049,
      "t_trigger_us": 208092086,
      "is_ai": true,
      "track_id": 9,
      "velocity": 0,
      "is_motor": false,
      "motor_id": 0,
      "accel_val": 2000,
      "base_duration_us": 254236
    },
    {
      "id": "M_1995",
      "pitch": 59,
      "t_note_us": 208473016,
      "t_trigger_us": 208337053,
      "is_ai": false,
      "track_id": 0,
      "velocity": 0,
      "is_motor": true,
      "motor_id": 0,
      "accel_val": 2000,
      "base_duration_us": 127118
    },
    {
      "id": "M_1998",
      "pitch": 95,
      "t_note_us": 208482285,
      "t_trigger_us": 208346322,
      "is_ai": true,
      "track_id": 9,
      "velocity": 0,
      "is_motor": false,
      "motor_id": 0,
      "accel_val": 2000,
      "base_duration_us": 508471
    },
    {
      "id": "M_1996",
      "pitch": 67,
      "t_note_us": 208642506,
      "t_trigger_us": 208506543,
      "is_ai": false,
      "track_id": 0,
      "velocity": 0,
      "is_motor": true,
      "motor_id": 1,
      "accel_val": 2000,
      "base_duration_us": 127117
    },
    {
      "id": "M_1997",
      "pitch": 52,
      "t_note_us": 208727251,
      "t_trigger_us": 208591288,
      "is_ai": false,
      "track_id": 0,
      "velocity": 0,
      "is_motor": true,
      "motor_id": 0,
      "accel_val": 2000,
      "base_duration_us": 254236
    },
    {
      "id": "M_1999",
      "pitch": 55,
      "t_note_us": 208981487,
      "t_trigger_us": 208845524,
      "is_ai": false,
      "track_id": 0,
      "velocity": 0,
      "is_motor": true,
      "motor_id": 0,
      "accel_val": 2000,
      "base_duration_us": 254236
    },
    {
      "id": "M_2001",
      "pitch": 98,
      "t_note_us": 208990756,
      "t_trigger_us": 208854793,
      "is_ai": true,
      "track_id": 11,
      "velocity": 0,
      "is_motor": false,
      "motor_id": 0,
      "accel_val": 2000,
      "base_duration_us": 254236
    },
    {
      "id": "M_2002",
      "pitch": 95,
      "t_note_us": 208990756,
      "t_trigger_us": 208854793,
      "is_ai": true,
      "track_id": 9,
      "velocity": 0,
      "is_motor": false,
      "motor_id": 0,
      "accel_val": 2000,
      "base_duration_us": 254236
    },
    {
      "id": "M_2000",
      "pitch": 67,
      "t_note_us": 208990756,
      "t_trigger_us": 208854793,
      "is_ai": false,
      "track_id": 0,
      "velocity": 0,
      "is_motor": true,
      "motor_id": 1,
      "accel_val": 2000,
      "base_duration_us": 254236
    },
    {
      "id": "M_2003",
      "pitch": 65,
      "t_note_us": 209235723,
      "t_trigger_us": 209099760,
      "is_ai": false,
      "track_id": 0,
      "velocity": 0,
      "is_motor": true,
      "motor_id": 0,
      "accel_val": 2000,
      "base_duration_us": 254236
    },
    {
      "id": "M_2004",
      "pitch": 71,
      "t_note_us": 209235723,
      "t_trigger_us": 209099760,
      "is_ai": false,
      "track_id": 0,
      "velocity": 0,
      "is_motor": true,
      "motor_id": 2,
      "accel_val": 2000,
      "base_duration_us": 254236
    },
    {
      "id": "M_2005",
      "pitch": 95,
      "t_note_us": 209244992,
      "t_trigger_us": 209109029,
      "is_ai": true,
      "track_id": 9,
      "velocity": 0,
      "is_motor": false,
      "motor_id": 0,
      "accel_val": 2000,
      "base_duration_us": 254236
    },
    {
      "id": "M_2006",
      "pitch": 62,
      "t_note_us": 209489959,
      "t_trigger_us": 209353996,
      "is_ai": false,
      "track_id": 0,
      "velocity": 0,
      "is_motor": true,
      "motor_id": 1,
      "accel_val": 2000,
      "base_duration_us": 127118
    },
    {
      "id": "M_2009",
      "pitch": 95,
      "t_note_us": 209499228,
      "t_trigger_us": 209363265,
      "is_ai": true,
      "track_id": 9,
      "velocity": 0,
      "is_motor": false,
      "motor_id": 0,
      "accel_val": 2000,
      "base_duration_us": 508471
    },
    {
      "id": "M_2007",
      "pitch": 71,
      "t_note_us": 209659449,
      "t_trigger_us": 209523486,
      "is_ai": false,
      "track_id": 0,
      "velocity": 0,
      "is_motor": true,
      "motor_id": 1,
      "accel_val": 2000,
      "base_duration_us": 127117
    },
    {
      "id": "M_2008",
      "pitch": 55,
      "t_note_us": 209744194,
      "t_trigger_us": 209608231,
      "is_ai": false,
      "track_id": 0,
      "velocity": 0,
      "is_motor": true,
      "motor_id": 0,
      "accel_val": 2000,
      "base_duration_us": 254236
    },
    {
      "id": "M_2010",
      "pitch": 48,
      "t_note_us": 209998430,
      "t_trigger_us": 209862467,
      "is_ai": false,
      "track_id": 0,
      "velocity": 0,
      "is_motor": true,
      "motor_id": 0,
      "accel_val": 2000,
      "base_duration_us": 254236
    },
    {
      "id": "M_2011",
      "pitch": 64,
      "t_note_us": 210252666,
      "t_trigger_us": 210116703,
      "is_ai": false,
      "track_id": 0,
      "velocity": 0,
      "is_motor": true,
      "motor_id": 1,
      "accel_val": 2000,
      "base_duration_us": 254236
    },
    {
      "id": "M_2012",
      "pitch": 60,
      "t_note_us": 210252666,
      "t_trigger_us": 210116703,
      "is_ai": false,
      "track_id": 0,
      "velocity": 0,
      "is_motor": true,
      "motor_id": 0,
      "accel_val": 2000,
      "base_duration_us": 254236
    },
    {
      "id": "M_2013",
      "pitch": 91,
      "t_note_us": 210261935,
      "t_trigger_us": 210125972,
      "is_ai": true,
      "track_id": 7,
      "velocity": 0,
      "is_motor": false,
      "motor_id": 0,
      "accel_val": 2000,
      "base_duration_us": 254236
    },
    {
      "id": "M_2014",
      "pitch": 76,
      "t_note_us": 210261935,
      "t_trigger_us": 210125972,
      "is_ai": false,
      "track_id": 0,
      "velocity": 0,
      "is_motor": true,
      "motor_id": 2,
      "accel_val": 2000,
      "base_duration_us": 254236
    },
    {
      "id": "M_2015",
      "pitch": 55,
      "t_note_us": 210506902,
      "t_trigger_us": 210370939,
      "is_ai": false,
      "track_id": 0,
      "velocity": 0,
      "is_motor": true,
      "motor_id": 0,
      "accel_val": 2000,
      "base_duration_us": 127118
    },
    {
      "id": "M_2018",
      "pitch": 98,
      "t_note_us": 210516171,
      "t_trigger_us": 210380208,
      "is_ai": true,
      "track_id": 11,
      "velocity": 0,
      "is_motor": false,
      "motor_id": 0,
      "accel_val": 2000,
      "base_duration_us": 508471
    },
    {
      "id": "M_2019",
      "pitch": 91,
      "t_note_us": 210516171,
      "t_trigger_us": 210380208,
      "is_ai": true,
      "track_id": 7,
      "velocity": 0,
      "is_motor": false,
      "motor_id": 0,
      "accel_val": 2000,
      "base_duration_us": 508471
    },
    {
      "id": "M_2016",
      "pitch": 64,
      "t_note_us": 210676392,
      "t_trigger_us": 210540429,
      "is_ai": false,
      "track_id": 0,
      "velocity": 0,
      "is_motor": true,
      "motor_id": 1,
      "accel_val": 2000,
      "base_duration_us": 127117
    },
    {
      "id": "M_2017",
      "pitch": 48,
      "t_note_us": 210761137,
      "t_trigger_us": 210625174,
      "is_ai": false,
      "track_id": 0,
      "velocity": 0,
      "is_motor": true,
      "motor_id": 0,
      "accel_val": 2000,
      "base_duration_us": 254236
    },
    {
      "id": "M_2020",
      "pitch": 54,
      "t_note_us": 211015373,
      "t_trigger_us": 210879410,
      "is_ai": false,
      "track_id": 0,
      "velocity": 0,
      "is_motor": true,
      "motor_id": 0,
      "accel_val": 2000,
      "base_duration_us": 254236
    },
    {
      "id": "M_2021",
      "pitch": 96,
      "t_note_us": 211024642,
      "t_trigger_us": 210888679,
      "is_ai": true,
      "track_id": 10,
      "velocity": 0,
      "is_motor": false,
      "motor_id": 0,
      "accel_val": 2000,
      "base_duration_us": 254236
    },
    {
      "id": "M_2022",
      "pitch": 90,
      "t_note_us": 211024642,
      "t_trigger_us": 210888679,
      "is_ai": true,
      "track_id": 0,
      "velocity": 0,
      "is_motor": true,
      "motor_id": 3,
      "accel_val": 2000,
      "base_duration_us": 254236
    },
    {
      "id": "M_2023",
      "pitch": 69,
      "t_note_us": 211269609,
      "t_trigger_us": 211133646,
      "is_ai": false,
      "track_id": 0,
      "velocity": 0,
      "is_motor": true,
      "motor_id": 1,
      "accel_val": 2000,
      "base_duration_us": 254236
    },
    {
      "id": "M_2024",
      "pitch": 66,
      "t_note_us": 211269609,
      "t_trigger_us": 211133646,
      "is_ai": false,
      "track_id": 0,
      "velocity": 0,
      "is_motor": true,
      "motor_id": 2,
      "accel_val": 2000,
      "base_duration_us": 254236
    },
    {
      "id": "M_2025",
      "pitch": 95,
      "t_note_us": 211278878,
      "t_trigger_us": 211142915,
      "is_ai": true,
      "track_id": 9,
      "velocity": 0,
      "is_motor": false,
      "motor_id": 0,
      "accel_val": 2000,
      "base_duration_us": 254236
    },
    {
      "id": "M_2026",
      "pitch": 90,
      "t_note_us": 211278878,
      "t_trigger_us": 211142915,
      "is_ai": true,
      "track_id": 0,
      "velocity": 0,
      "is_motor": true,
      "motor_id": 3,
      "accel_val": 2000,
      "base_duration_us": 254236
    },
    {
      "id": "M_2027",
      "pitch": 63,
      "t_note_us": 211523845,
      "t_trigger_us": 211387882,
      "is_ai": false,
      "track_id": 0,
      "velocity": 0,
      "is_motor": true,
      "motor_id": 1,
      "accel_val": 2000,
      "base_duration_us": 127118
    },
    {
      "id": "M_2028",
      "pitch": 95,
      "t_note_us": 211533114,
      "t_trigger_us": 211397151,
      "is_ai": true,
      "track_id": 9,
      "velocity": 0,
      "is_motor": false,
      "motor_id": 0,
      "accel_val": 2000,
      "base_duration_us": 254235
    },
    {
      "id": "M_2029",
      "pitch": 90,
      "t_note_us": 211533114,
      "t_trigger_us": 211397151,
      "is_ai": true,
      "track_id": 0,
      "velocity": 0,
      "is_motor": true,
      "motor_id": 3,
      "accel_val": 2000,
      "base_duration_us": 254235
    },
    {
      "id": "M_2030",
      "pitch": 69,
      "t_note_us": 211693335,
      "t_trigger_us": 211557372,
      "is_ai": false,
      "track_id": 0,
      "velocity": 0,
      "is_motor": true,
      "motor_id": 1,
      "accel_val": 2000,
      "base_duration_us": 127117
    },
    {
      "id": "M_2031",
      "pitch": 54,
      "t_note_us": 211778080,
      "t_trigger_us": 211642117,
      "is_ai": false,
      "track_id": 0,
      "velocity": 0,
      "is_motor": true,
      "motor_id": 0,
      "accel_val": 2000,
      "base_duration_us": 254236
    },
    {
      "id": "M_2032",
      "pitch": 93,
      "t_note_us": 211787349,
      "t_trigger_us": 211651386,
      "is_ai": true,
      "track_id": 8,
      "velocity": 0,
      "is_motor": false,
      "motor_id": 0,
      "accel_val": 2000,
      "base_duration_us": 254236
    },
    {
      "id": "M_2033",
      "pitch": 90,
      "t_note_us": 211787349,
      "t_trigger_us": 211651386,
      "is_ai": true,
      "track_id": 0,
      "velocity": 0,
      "is_motor": true,
      "motor_id": 3,
      "accel_val": 2000,
      "base_duration_us": 254236
    },
    {
      "id": "M_2034",
      "pitch": 52,
      "t_note_us": 212032316,
      "t_trigger_us": 211896353,
      "is_ai": false,
      "track_id": 0,
      "velocity": 0,
      "is_motor": true,
      "motor_id": 0,
      "accel_val": 2000,
      "base_duration_us": 254236
    },
    {
      "id": "M_2035",
      "pitch": 88,
      "t_note_us": 212041585,
      "t_trigger_us": 211905622,
      "is_ai": true,
      "track_id": 5,
      "velocity": 0,
      "is_motor": false,
      "motor_id": 0,
      "accel_val": 2000,
      "base_duration_us": 254236
    },
    {
      "id": "M_2036",
      "pitch": 95,
      "t_note_us": 212041585,
      "t_trigger_us": 211905622,
      "is_ai": true,
      "track_id": 9,
      "velocity": 0,
      "is_motor": false,
      "motor_id": 0,
      "accel_val": 2000,
      "base_duration_us": 254236
    },
    {
      "id": "M_2037",
      "pitch": 67,
      "t_note_us": 212286552,
      "t_trigger_us": 212150589,
      "is_ai": false,
      "track_id": 0,
      "velocity": 0,
      "is_motor": true,
      "motor_id": 1,
      "accel_val": 2000,
      "base_duration_us": 254236
    },
    {
      "id": "M_2038",
      "pitch": 64,
      "t_note_us": 212286552,
      "t_trigger_us": 212150589,
      "is_ai": false,
      "track_id": 0,
      "velocity": 0,
      "is_motor": true,
      "motor_id": 0,
      "accel_val": 2000,
      "base_duration_us": 254236
    },
    {
      "id": "M_2039",
      "pitch": 91,
      "t_note_us": 212295821,
      "t_trigger_us": 212159858,
      "is_ai": true,
      "track_id": 7,
      "velocity": 0,
      "is_motor": false,
      "motor_id": 0,
      "accel_val": 2000,
      "base_duration_us": 254236
    },
    {
      "id": "M_2040",
      "pitch": 76,
      "t_note_us": 212295821,
      "t_trigger_us": 212159858,
      "is_ai": false,
      "track_id": 0,
      "velocity": 0,
      "is_motor": true,
      "motor_id": 2,
      "accel_val": 2000,
      "base_duration_us": 254236
    },
    {
      "id": "M_2041",
      "pitch": 59,
      "t_note_us": 212540788,
      "t_trigger_us": 212404825,
      "is_ai": false,
      "track_id": 0,
      "velocity": 0,
      "is_motor": true,
      "motor_id": 0,
      "accel_val": 2000,
      "base_duration_us": 127118
    },
    {
      "id": "M_2043",
      "pitch": 91,
      "t_note_us": 212550057,
      "t_trigger_us": 212414094,
      "is_ai": true,
      "track_id": 7,
      "velocity": 0,
      "is_motor": false,
      "motor_id": 0,
      "accel_val": 2000,
      "base_duration_us": 254235
    },
    {
      "id": "M_2042",
      "pitch": 76,
      "t_note_us": 212550057,
      "t_trigger_us": 212414094,
      "is_ai": false,
      "track_id": 0,
      "velocity": 0,
      "is_motor": true,
      "motor_id": 2,
      "accel_val": 2000,
      "base_duration_us": 254235
    },
    {
      "id": "M_2044",
      "pitch": 67,
      "t_note_us": 212710278,
      "t_trigger_us": 212574315,
      "is_ai": false,
      "track_id": 0,
      "velocity": 0,
      "is_motor": true,
      "motor_id": 1,
      "accel_val": 2000,
      "base_duration_us": 127117
    },
    {
      "id": "M_2045",
      "pitch": 52,
      "t_note_us": 212795023,
      "t_trigger_us": 212659060,
      "is_ai": false,
      "track_id": 0,
      "velocity": 0,
      "is_motor": true,
      "motor_id": 0,
      "accel_val": 2000,
      "base_duration_us": 254236
    },
    {
      "id": "M_2047",
      "pitch": 69,
      "t_note_us": 212804292,
      "t_trigger_us": 212668329,
      "is_ai": false,
      "track_id": 0,
      "velocity": 0,
      "is_motor": true,
      "motor_id": 2,
      "accel_val": 2000,
      "base_duration_us": 508473
    },
    {
      "id": "M_2048",
      "pitch": 74,
      "t_note_us": 212804292,
      "t_trigger_us": 212668329,
      "is_ai": false,
      "track_id": 0,
      "velocity": 0,
      "is_motor": true,
      "motor_id": 3,
      "accel_val": 2000,
      "base_duration_us": 508473
    },
    {
      "id": "M_2046",
      "pitch": 55,
      "t_note_us": 213049259,
      "t_trigger_us": 212913296,
      "is_ai": false,
      "track_id": 0,
      "velocity": 0,
      "is_motor": true,
      "motor_id": 0,
      "accel_val": 2000,
      "base_duration_us": 254237
    },
    {
      "id": "M_2049",
      "pitch": 65,
      "t_note_us": 213303496,
      "t_trigger_us": 213167533,
      "is_ai": false,
      "track_id": 0,
      "velocity": 0,
      "is_motor": true,
      "motor_id": 1,
      "accel_val": 2000,
      "base_duration_us": 254236
    },
    {
      "id": "M_2050",
      "pitch": 71,
      "t_note_us": 213303496,
      "t_trigger_us": 213167533,
      "is_ai": false,
      "track_id": 0,
      "velocity": 0,
      "is_motor": true,
      "motor_id": 0,
      "accel_val": 2000,
      "base_duration_us": 254236
    },
    {
      "id": "M_2051",
      "pitch": 74,
      "t_note_us": 213312765,
      "t_trigger_us": 213176802,
      "is_ai": false,
      "track_id": 0,
      "velocity": 0,
      "is_motor": true,
      "motor_id": 2,
      "accel_val": 2000,
      "base_duration_us": 254236
    },
    {
      "id": "M_2052",
      "pitch": 71,
      "t_note_us": 213312765,
      "t_trigger_us": 213176802,
      "is_ai": false,
      "track_id": 0,
      "velocity": 0,
      "is_motor": true,
      "motor_id": 3,
      "accel_val": 2000,
      "base_duration_us": 254236
    },
    {
      "id": "M_2053",
      "pitch": 62,
      "t_note_us": 213557732,
      "t_trigger_us": 213421769,
      "is_ai": false,
      "track_id": 0,
      "velocity": 0,
      "is_motor": true,
      "motor_id": 1,
      "accel_val": 2000,
      "base_duration_us": 127118
    },
    {
      "id": "M_2054",
      "pitch": 74,
      "t_note_us": 213567001,
      "t_trigger_us": 213431038,
      "is_ai": false,
      "track_id": 0,
      "velocity": 0,
      "is_motor": true,
      "motor_id": 0,
      "accel_val": 2000,
      "base_duration_us": 254235
    },
    {
      "id": "M_2055",
      "pitch": 69,
      "t_note_us": 213567001,
      "t_trigger_us": 213431038,
      "is_ai": false,
      "track_id": 0,
      "velocity": 0,
      "is_motor": true,
      "motor_id": 2,
      "accel_val": 2000,
      "base_duration_us": 254235
    },
    {
      "id": "M_2056",
      "pitch": 71,
      "t_note_us": 213727222,
      "t_trigger_us": 213591259,
      "is_ai": false,
      "track_id": 0,
      "velocity": 0,
      "is_motor": true,
      "motor_id": 1,
      "accel_val": 2000,
      "base_duration_us": 127117
    },
    {
      "id": "M_2057",
      "pitch": 55,
      "t_note_us": 213811967,
      "t_trigger_us": 213676004,
      "is_ai": false,
      "track_id": 0,
      "velocity": 0,
      "is_motor": true,
      "motor_id": 3,
      "accel_val": 2000,
      "base_duration_us": 254236
    },
    {
      "id": "M_2058",
      "pitch": 74,
      "t_note_us": 213821236,
      "t_trigger_us": 213685273,
      "is_ai": false,
      "track_id": 0,
      "velocity": 0,
      "is_motor": true,
      "motor_id": 0,
      "accel_val": 2000,
      "base_duration_us": 254236
    },
    {
      "id": "M_2059",
      "pitch": 67,
      "t_note_us": 213821236,
      "t_trigger_us": 213685273,
      "is_ai": false,
      "track_id": 0,
      "velocity": 0,
      "is_motor": true,
      "motor_id": 2,
      "accel_val": 2000,
      "base_duration_us": 254236
    },
    {
      "id": "M_2060",
      "pitch": 48,
      "t_note_us": 214066203,
      "t_trigger_us": 213930240,
      "is_ai": false,
      "track_id": 0,
      "velocity": 0,
      "is_motor": true,
      "motor_id": 1,
      "accel_val": 2000,
      "base_duration_us": 254236
    },
    {
      "id": "M_2061",
      "pitch": 64,
      "t_note_us": 214320439,
      "t_trigger_us": 214184476,
      "is_ai": false,
      "track_id": 0,
      "velocity": 0,
      "is_motor": true,
      "motor_id": 1,
      "accel_val": 2000,
      "base_duration_us": 254236
    },
    {
      "id": "M_2062",
      "pitch": 60,
      "t_note_us": 214320439,
      "t_trigger_us": 214184476,
      "is_ai": false,
      "track_id": 0,
      "velocity": 0,
      "is_motor": true,
      "motor_id": 0,
      "accel_val": 2000,
      "base_duration_us": 254236
    },
    {
      "id": "M_2063",
      "pitch": 67,
      "t_note_us": 214329708,
      "t_trigger_us": 214193745,
      "is_ai": false,
      "track_id": 0,
      "velocity": 0,
      "is_motor": true,
      "motor_id": 2,
      "accel_val": 2000,
      "base_duration_us": 254236
    },
    {
      "id": "M_2064",
      "pitch": 76,
      "t_note_us": 214329708,
      "t_trigger_us": 214193745,
      "is_ai": false,
      "track_id": 0,
      "velocity": 0,
      "is_motor": true,
      "motor_id": 3,
      "accel_val": 2000,
      "base_duration_us": 254236
    },
    {
      "id": "M_2065",
      "pitch": 55,
      "t_note_us": 214574675,
      "t_trigger_us": 214438712,
      "is_ai": false,
      "track_id": 0,
      "velocity": 0,
      "is_motor": true,
      "motor_id": 0,
      "accel_val": 2000,
      "base_duration_us": 127118
    },
    {
      "id": "M_2068",
      "pitch": 74,
      "t_note_us": 214583944,
      "t_trigger_us": 214447981,
      "is_ai": false,
      "track_id": 0,
      "velocity": 0,
      "is_motor": true,
      "motor_id": 1,
      "accel_val": 2000,
      "base_duration_us": 508471
    },
    {
      "id": "M_2069",
      "pitch": 67,
      "t_note_us": 214583944,
      "t_trigger_us": 214447981,
      "is_ai": false,
      "track_id": 0,
      "velocity": 0,
      "is_motor": true,
      "motor_id": 2,
      "accel_val": 2000,
      "base_duration_us": 508471
    },
    {
      "id": "M_2066",
      "pitch": 64,
      "t_note_us": 214744165,
      "t_trigger_us": 214608202,
      "is_ai": false,
      "track_id": 0,
      "velocity": 0,
      "is_motor": true,
      "motor_id": 0,
      "accel_val": 2000,
      "base_duration_us": 127117
    },
    {
      "id": "M_2067",
      "pitch": 48,
      "t_note_us": 214828910,
      "t_trigger_us": 214692947,
      "is_ai": false,
      "track_id": 0,
      "velocity": 0,
      "is_motor": true,
      "motor_id": 3,
      "accel_val": 2000,
      "base_duration_us": 254236
    },
    {
      "id": "M_2070",
      "pitch": 47,
      "t_note_us": 215083146,
      "t_trigger_us": 214947183,
      "is_ai": false,
      "track_id": 0,
      "velocity": 0,
      "is_motor": true,
      "motor_id": 0,
      "accel_val": 2000,
      "base_duration_us": 254236
    },
    {
      "id": "M_2071",
      "pitch": 78,
      "t_note_us": 215092415,
      "t_trigger_us": 214956452,
      "is_ai": false,
      "track_id": 0,
      "velocity": 0,
      "is_motor": true,
      "motor_id": 2,
      "accel_val": 2000,
      "base_duration_us": 254236
    },
    {
      "id": "M_2072",
      "pitch": 74,
      "t_note_us": 215092415,
      "t_trigger_us": 214956452,
      "is_ai": false,
      "track_id": 0,
      "velocity": 0,
      "is_motor": true,
      "motor_id": 1,
      "accel_val": 2000,
      "base_duration_us": 254236
    },
    {
      "id": "M_2073",
      "pitch": 63,
      "t_note_us": 215337382,
      "t_trigger_us": 215201419,
      "is_ai": false,
      "track_id": 0,
      "velocity": 0,
      "is_motor": true,
      "motor_id": 0,
      "accel_val": 2000,
      "base_duration_us": 254236
    },
    {
      "id": "M_2074",
      "pitch": 59,
      "t_note_us": 215337382,
      "t_trigger_us": 215201419,
      "is_ai": false,
      "track_id": 0,
      "velocity": 0,
      "is_motor": true,
      "motor_id": 3,
      "accel_val": 2000,
      "base_duration_us": 254236
    },
    {
      "id": "M_2075",
      "pitch": 78,
      "t_note_us": 215346651,
      "t_trigger_us": 215210688,
      "is_ai": false,
      "track_id": 0,
      "velocity": 0,
      "is_motor": true,
      "motor_id": 2,
      "accel_val": 2000,
      "base_duration_us": 254236
    },
    {
      "id": "M_2076",
      "pitch": 72,
      "t_note_us": 215346651,
      "t_trigger_us": 215210688,
      "is_ai": false,
      "track_id": 0,
      "velocity": 0,
      "is_motor": true,
      "motor_id": 1,
      "accel_val": 2000,
      "base_duration_us": 254236
    },
    {
      "id": "M_2077",
      "pitch": 54,
      "t_note_us": 215591618,
      "t_trigger_us": 215455655,
      "is_ai": false,
      "track_id": 0,
      "velocity": 0,
      "is_motor": true,
      "motor_id": 0,
      "accel_val": 2000,
      "base_duration_us": 127118
    },
    {
      "id": "M_2078",
      "pitch": 71,
      "t_note_us": 215600887,
      "t_trigger_us": 215464924,
      "is_ai": false,
      "track_id": 0,
      "velocity": 0,
      "is_motor": true,
      "motor_id": 1,
      "accel_val": 2000,
      "base_duration_us": 254235
    },
    {
      "id": "M_2079",
      "pitch": 74,
      "t_note_us": 215600887,
      "t_trigger_us": 215464924,
      "is_ai": false,
      "track_id": 0,
      "velocity": 0,
      "is_motor": true,
      "motor_id": 2,
      "accel_val": 2000,
      "base_duration_us": 254235
    },
    {
      "id": "M_2080",
      "pitch": 63,
      "t_note_us": 215761108,
      "t_trigger_us": 215625145,
      "is_ai": false,
      "track_id": 0,
      "velocity": 0,
      "is_motor": true,
      "motor_id": 0,
      "accel_val": 2000,
      "base_duration_us": 127117
    },
    {
      "id": "M_2081",
      "pitch": 47,
      "t_note_us": 215845853,
      "t_trigger_us": 215709890,
      "is_ai": false,
      "track_id": 0,
      "velocity": 0,
      "is_motor": true,
      "motor_id": 3,
      "accel_val": 2000,
      "base_duration_us": 254236
    },
    {
      "id": "M_2082",
      "pitch": 71,
      "t_note_us": 215855122,
      "t_trigger_us": 215719159,
      "is_ai": false,
      "track_id": 0,
      "velocity": 0,
      "is_motor": true,
      "motor_id": 1,
      "accel_val": 2000,
      "base_duration_us": 254236
    },
    {
      "id": "M_2083",
      "pitch": 78,
      "t_note_us": 215855122,
      "t_trigger_us": 215719159,
      "is_ai": false,
      "track_id": 0,
      "velocity": 0,
      "is_motor": true,
      "motor_id": 2,
      "accel_val": 2000,
      "base_duration_us": 254236
    },
    {
      "id": "M_2084",
      "pitch": 52,
      "t_note_us": 216100089,
      "t_trigger_us": 215964126,
      "is_ai": false,
      "track_id": 0,
      "velocity": 0,
      "is_motor": true,
      "motor_id": 0,
      "accel_val": 2000,
      "base_duration_us": 254236
    },
    {
      "id": "M_2085",
      "pitch": 67,
      "t_note_us": 216109358,
      "t_trigger_us": 215973395,
      "is_ai": false,
      "track_id": 0,
      "velocity": 0,
      "is_motor": true,
      "motor_id": 1,
      "accel_val": 2000,
      "base_duration_us": 254236
    },
    {
      "id": "M_2086",
      "pitch": 76,
      "t_note_us": 216109358,
      "t_trigger_us": 215973395,
      "is_ai": false,
      "track_id": 0,
      "velocity": 0,
      "is_motor": true,
      "motor_id": 2,
      "accel_val": 2000,
      "base_duration_us": 254236
    },
    {
      "id": "M_2087",
      "pitch": 71,
      "t_note_us": 216109358,
      "t_trigger_us": 215973395,
      "is_ai": false,
      "track_id": 0,
      "velocity": 0,
      "is_motor": true,
      "motor_id": 3,
      "accel_val": 2000,
      "base_duration_us": 254236
    },
    {
      "id": "M_2088",
      "pitch": 67,
      "t_note_us": 216354325,
      "t_trigger_us": 216218362,
      "is_ai": false,
      "track_id": 0,
      "velocity": 0,
      "is_motor": true,
      "motor_id": 0,
      "accel_val": 2000,
      "base_duration_us": 254236
    },
    {
      "id": "M_2089",
      "pitch": 64,
      "t_note_us": 216354325,
      "t_trigger_us": 216218362,
      "is_ai": false,
      "track_id": 0,
      "velocity": 0,
      "is_motor": true,
      "motor_id": 0,
      "accel_val": 2000,
      "base_duration_us": 254236
    },
    {
      "id": "M_2090",
      "pitch": 67,
      "t_note_us": 216363594,
      "t_trigger_us": 216227631,
      "is_ai": false,
      "track_id": 0,
      "velocity": 0,
      "is_motor": true,
      "motor_id": 1,
      "accel_val": 2000,
      "base_duration_us": 254236
    },
    {
      "id": "M_2091",
      "pitch": 74,
      "t_note_us": 216363594,
      "t_trigger_us": 216227631,
      "is_ai": false,
      "track_id": 0,
      "velocity": 0,
      "is_motor": true,
      "motor_id": 2,
      "accel_val": 2000,
      "base_duration_us": 254236
    },
    {
      "id": "M_2092",
      "pitch": 59,
      "t_note_us": 216608561,
      "t_trigger_us": 216472598,
      "is_ai": false,
      "track_id": 0,
      "velocity": 0,
      "is_motor": true,
      "motor_id": 0,
      "accel_val": 2000,
      "base_duration_us": 127118
    },
    {
      "id": "M_2093",
      "pitch": 74,
      "t_note_us": 216617830,
      "t_trigger_us": 216481867,
      "is_ai": false,
      "track_id": 0,
      "velocity": 0,
      "is_motor": true,
      "motor_id": 1,
      "accel_val": 2000,
      "base_duration_us": 254235
    },
    {
      "id": "M_2094",
      "pitch": 67,
      "t_note_us": 216617830,
      "t_trigger_us": 216481867,
      "is_ai": false,
      "track_id": 0,
      "velocity": 0,
      "is_motor": true,
      "motor_id": 2,
      "accel_val": 2000,
      "base_duration_us": 254235
    },
    {
      "id": "M_2095",
      "pitch": 67,
      "t_note_us": 216778051,
      "t_trigger_us": 216642088,
      "is_ai": false,
      "track_id": 0,
      "velocity": 0,
      "is_motor": true,
      "motor_id": 0,
      "accel_val": 2000,
      "base_duration_us": 127117
    },
    {
      "id": "M_2096",
      "pitch": 52,
      "t_note_us": 216862796,
      "t_trigger_us": 216726833,
      "is_ai": false,
      "track_id": 0,
      "velocity": 0,
      "is_motor": true,
      "motor_id": 3,
      "accel_val": 2000,
      "base_duration_us": 254236
    },
    {
      "id": "M_2097",
      "pitch": 72,
      "t_note_us": 216872065,
      "t_trigger_us": 216736102,
      "is_ai": false,
      "track_id": 0,
      "velocity": 0,
      "is_motor": true,
      "motor_id": 1,
      "accel_val": 2000,
      "base_duration_us": 254236
    },
    {
      "id": "M_2098",
      "pitch": 67,
      "t_note_us": 216872065,
      "t_trigger_us": 216736102,
      "is_ai": false,
      "track_id": 0,
      "velocity": 0,
      "is_motor": true,
      "motor_id": 2,
      "accel_val": 2000,
      "base_duration_us": 254236
    },
    {
      "id": "M_2099",
      "pitch": 55,
      "t_note_us": 217117032,
      "t_trigger_us": 216981069,
      "is_ai": false,
      "track_id": 0,
      "velocity": 0,
      "is_motor": true,
      "motor_id": 0,
      "accel_val": 2000,
      "base_duration_us": 254236
    },
    {
      "id": "M_2100",
      "pitch": 74,
      "t_note_us": 217126301,
      "t_trigger_us": 216990338,
      "is_ai": false,
      "track_id": 0,
      "velocity": 0,
      "is_motor": true,
      "motor_id": 1,
      "accel_val": 2000,
      "base_duration_us": 254236
    },
    {
      "id": "M_2101",
      "pitch": 72,
      "t_note_us": 217126301,
      "t_trigger_us": 216990338,
      "is_ai": false,
      "track_id": 0,
      "velocity": 0,
      "is_motor": true,
      "motor_id": 2,
      "accel_val": 2000,
      "base_duration_us": 254236
    },
    {
      "id": "M_2102",
      "pitch": 67,
      "t_note_us": 217126301,
      "t_trigger_us": 216990338,
      "is_ai": false,
      "track_id": 0,
      "velocity": 0,
      "is_motor": true,
      "motor_id": 3,
      "accel_val": 2000,
      "base_duration_us": 254236
    },
    {
      "id": "M_2103",
      "pitch": 65,
      "t_note_us": 217371268,
      "t_trigger_us": 217235305,
      "is_ai": false,
      "track_id": 0,
      "velocity": 0,
      "is_motor": true,
      "motor_id": 0,
      "accel_val": 2000,
      "base_duration_us": 254236
    },
    {
      "id": "M_2104",
      "pitch": 71,
      "t_note_us": 217371268,
      "t_trigger_us": 217235305,
      "is_ai": false,
      "track_id": 0,
      "velocity": 0,
      "is_motor": true,
      "motor_id": 0,
      "accel_val": 2000,
      "base_duration_us": 254236
    },
    {
      "id": "M_2105",
      "pitch": 71,
      "t_note_us": 217380537,
      "t_trigger_us": 217244574,
      "is_ai": false,
      "track_id": 0,
      "velocity": 0,
      "is_motor": true,
      "motor_id": 1,
      "accel_val": 2000,
      "base_duration_us": 254236
    },
    {
      "id": "M_2106",
      "pitch": 67,
      "t_note_us": 217380537,
      "t_trigger_us": 217244574,
      "is_ai": false,
      "track_id": 0,
      "velocity": 0,
      "is_motor": true,
      "motor_id": 2,
      "accel_val": 2000,
      "base_duration_us": 254236
    },
    {
      "id": "M_2107",
      "pitch": 62,
      "t_note_us": 217625504,
      "t_trigger_us": 217489541,
      "is_ai": false,
      "track_id": 0,
      "velocity": 0,
      "is_motor": true,
      "motor_id": 0,
      "accel_val": 2000,
      "base_duration_us": 127118
    },
    {
      "id": "M_2110",
      "pitch": 74,
      "t_note_us": 217634773,
      "t_trigger_us": 217498810,
      "is_ai": false,
      "track_id": 0,
      "velocity": 0,
      "is_motor": true,
      "motor_id": 1,
      "accel_val": 2000,
      "base_duration_us": 508471
    },
    {
      "id": "M_2111",
      "pitch": 71,
      "t_note_us": 217634773,
      "t_trigger_us": 217498810,
      "is_ai": false,
      "track_id": 0,
      "velocity": 0,
      "is_motor": true,
      "motor_id": 2,
      "accel_val": 2000,
      "base_duration_us": 508471
    },
    {
      "id": "M_2108",
      "pitch": 71,
      "t_note_us": 217794994,
      "t_trigger_us": 217659031,
      "is_ai": false,
      "track_id": 0,
      "velocity": 0,
      "is_motor": true,
      "motor_id": 0,
      "accel_val": 2000,
      "base_duration_us": 127117
    },
    {
      "id": "M_2109",
      "pitch": 55,
      "t_note_us": 217879739,
      "t_trigger_us": 217743776,
      "is_ai": false,
      "track_id": 0,
      "velocity": 0,
      "is_motor": true,
      "motor_id": 3,
      "accel_val": 2000,
      "base_duration_us": 254236
    },
    {
      "id": "M_2112",
      "pitch": 48,
      "t_note_us": 218133975,
      "t_trigger_us": 217998012,
      "is_ai": false,
      "track_id": 0,
      "velocity": 0,
      "is_motor": true,
      "motor_id": 0,
      "accel_val": 2000,
      "base_duration_us": 254236
    },
    {
      "id": "M_2113",
      "pitch": 64,
      "t_note_us": 218388211,
      "t_trigger_us": 218252248,
      "is_ai": false,
      "track_id": 0,
      "velocity": 0,
      "is_motor": true,
      "motor_id": 1,
      "accel_val": 2000,
      "base_duration_us": 254236
    },
    {
      "id": "M_2114",
      "pitch": 60,
      "t_note_us": 218388211,
      "t_trigger_us": 218252248,
      "is_ai": false,
      "track_id": 0,
      "velocity": 0,
      "is_motor": true,
      "motor_id": 0,
      "accel_val": 2000,
      "base_duration_us": 254236
    },
    {
      "id": "M_2115",
      "pitch": 67,
      "t_note_us": 218397480,
      "t_trigger_us": 218261517,
      "is_ai": false,
      "track_id": 0,
      "velocity": 0,
      "is_motor": true,
      "motor_id": 2,
      "accel_val": 2000,
      "base_duration_us": 254236
    },
    {
      "id": "M_2116",
      "pitch": 76,
      "t_note_us": 218397480,
      "t_trigger_us": 218261517,
      "is_ai": false,
      "track_id": 0,
      "velocity": 0,
      "is_motor": true,
      "motor_id": 3,
      "accel_val": 2000,
      "base_duration_us": 254236
    },
    {
      "id": "M_2117",
      "pitch": 55,
      "t_note_us": 218642447,
      "t_trigger_us": 218506484,
      "is_ai": false,
      "track_id": 0,
      "velocity": 0,
      "is_motor": true,
      "motor_id": 0,
      "accel_val": 2000,
      "base_duration_us": 127118
    },
    {
      "id": "M_2120",
      "pitch": 74,
      "t_note_us": 218651716,
      "t_trigger_us": 218515753,
      "is_ai": false,
      "track_id": 0,
      "velocity": 0,
      "is_motor": true,
      "motor_id": 1,
      "accel_val": 2000,
      "base_duration_us": 508471
    },
    {
      "id": "M_2121",
      "pitch": 67,
      "t_note_us": 218651716,
      "t_trigger_us": 218515753,
      "is_ai": false,
      "track_id": 0,
      "velocity": 0,
      "is_motor": true,
      "motor_id": 2,
      "accel_val": 2000,
      "base_duration_us": 508471
    },
    {
      "id": "M_2118",
      "pitch": 64,
      "t_note_us": 218811937,
      "t_trigger_us": 218675974,
      "is_ai": false,
      "track_id": 0,
      "velocity": 0,
      "is_motor": true,
      "motor_id": 0,
      "accel_val": 2000,
      "base_duration_us": 127117
    },
    {
      "id": "M_2119",
      "pitch": 48,
      "t_note_us": 218896682,
      "t_trigger_us": 218760719,
      "is_ai": false,
      "track_id": 0,
      "velocity": 0,
      "is_motor": true,
      "motor_id": 3,
      "accel_val": 2000,
      "base_duration_us": 254236
    },
    {
      "id": "M_2122",
      "pitch": 54,
      "t_note_us": 219150918,
      "t_trigger_us": 219014955,
      "is_ai": false,
      "track_id": 0,
      "velocity": 0,
      "is_motor": true,
      "motor_id": 0,
      "accel_val": 2000,
      "base_duration_us": 254236
    },
    {
      "id": "M_2123",
      "pitch": 72,
      "t_note_us": 219160187,
      "t_trigger_us": 219024224,
      "is_ai": false,
      "track_id": 0,
      "velocity": 0,
      "is_motor": true,
      "motor_id": 1,
      "accel_val": 2000,
      "base_duration_us": 254236
    },
    {
      "id": "M_2124",
      "pitch": 78,
      "t_note_us": 219160187,
      "t_trigger_us": 219024224,
      "is_ai": false,
      "track_id": 0,
      "velocity": 0,
      "is_motor": true,
      "motor_id": 2,
      "accel_val": 2000,
      "base_duration_us": 254236
    },
    {
      "id": "M_2125",
      "pitch": 69,
      "t_note_us": 219405154,
      "t_trigger_us": 219269191,
      "is_ai": false,
      "track_id": 0,
      "velocity": 0,
      "is_motor": true,
      "motor_id": 0,
      "accel_val": 2000,
      "base_duration_us": 254236
    },
    {
      "id": "M_2126",
      "pitch": 66,
      "t_note_us": 219405154,
      "t_trigger_us": 219269191,
      "is_ai": false,
      "track_id": 0,
      "velocity": 0,
      "is_motor": true,
      "motor_id": 3,
      "accel_val": 2000,
      "base_duration_us": 254236
    },
    {
      "id": "M_2127",
      "pitch": 71,
      "t_note_us": 219414423,
      "t_trigger_us": 219278460,
      "is_ai": false,
      "track_id": 0,
      "velocity": 0,
      "is_motor": true,
      "motor_id": 1,
      "accel_val": 2000,
      "base_duration_us": 254236
    },
    {
      "id": "M_2128",
      "pitch": 78,
      "t_note_us": 219414423,
      "t_trigger_us": 219278460,
      "is_ai": false,
      "track_id": 0,
      "velocity": 0,
      "is_motor": true,
      "motor_id": 2,
      "accel_val": 2000,
      "base_duration_us": 254236
    },
    {
      "id": "M_2129",
      "pitch": 63,
      "t_note_us": 219659390,
      "t_trigger_us": 219523427,
      "is_ai": false,
      "track_id": 0,
      "velocity": 0,
      "is_motor": true,
      "motor_id": 0,
      "accel_val": 2000,
      "base_duration_us": 127118
    },
    {
      "id": "M_2130",
      "pitch": 71,
      "t_note_us": 219668659,
      "t_trigger_us": 219532696,
      "is_ai": false,
      "track_id": 0,
      "velocity": 0,
      "is_motor": true,
      "motor_id": 1,
      "accel_val": 2000,
      "base_duration_us": 254235
    },
    {
      "id": "M_2131",
      "pitch": 78,
      "t_note_us": 219668659,
      "t_trigger_us": 219532696,
      "is_ai": false,
      "track_id": 0,
      "velocity": 0,
      "is_motor": true,
      "motor_id": 2,
      "accel_val": 2000,
      "base_duration_us": 254235
    },
    {
      "id": "M_2132",
      "pitch": 69,
      "t_note_us": 219828880,
      "t_trigger_us": 219692917,
      "is_ai": false,
      "track_id": 0,
      "velocity": 0,
      "is_motor": true,
      "motor_id": 0,
      "accel_val": 2000,
      "base_duration_us": 127117
    },
    {
      "id": "M_2133",
      "pitch": 54,
      "t_note_us": 219913625,
      "t_trigger_us": 219777662,
      "is_ai": false,
      "track_id": 0,
      "velocity": 0,
      "is_motor": true,
      "motor_id": 3,
      "accel_val": 2000,
      "base_duration_us": 254236
    },
    {
      "id": "M_2134",
      "pitch": 69,
      "t_note_us": 219922894,
      "t_trigger_us": 219786931,
      "is_ai": false,
      "track_id": 0,
      "velocity": 0,
      "is_motor": true,
      "motor_id": 1,
      "accel_val": 2000,
      "base_duration_us": 254236
    },
    {
      "id": "M_2135",
      "pitch": 78,
      "t_note_us": 219922894,
      "t_trigger_us": 219786931,
      "is_ai": false,
      "track_id": 0,
      "velocity": 0,
      "is_motor": true,
      "motor_id": 2,
      "accel_val": 2000,
      "base_duration_us": 254236
    },
    {
      "id": "M_2136",
      "pitch": 52,
      "t_note_us": 220167861,
      "t_trigger_us": 220031898,
      "is_ai": false,
      "track_id": 0,
      "velocity": 0,
      "is_motor": true,
      "motor_id": 0,
      "accel_val": 2000,
      "base_duration_us": 254236
    },
    {
      "id": "M_2137",
      "pitch": 76,
      "t_note_us": 220177130,
      "t_trigger_us": 220041167,
      "is_ai": false,
      "track_id": 0,
      "velocity": 0,
      "is_motor": true,
      "motor_id": 2,
      "accel_val": 2000,
      "base_duration_us": 254236
    },
    {
      "id": "M_2138",
      "pitch": 71,
      "t_note_us": 220177130,
      "t_trigger_us": 220041167,
      "is_ai": false,
      "track_id": 0,
      "velocity": 0,
      "is_motor": true,
      "motor_id": 1,
      "accel_val": 2000,
      "base_duration_us": 254236
    },
    {
      "id": "M_2139",
      "pitch": 67,
      "t_note_us": 220422097,
      "t_trigger_us": 220286134,
      "is_ai": false,
      "track_id": 0,
      "velocity": 0,
      "is_motor": true,
      "motor_id": 0,
      "accel_val": 2000,
      "base_duration_us": 254236
    },
    {
      "id": "M_2140",
      "pitch": 64,
      "t_note_us": 220422097,
      "t_trigger_us": 220286134,
      "is_ai": false,
      "track_id": 0,
      "velocity": 0,
      "is_motor": true,
      "motor_id": 3,
      "accel_val": 2000,
      "base_duration_us": 254236
    },
    {
      "id": "M_2141",
      "pitch": 67,
      "t_note_us": 220431366,
      "t_trigger_us": 220295403,
      "is_ai": false,
      "track_id": 0,
      "velocity": 0,
      "is_motor": true,
      "motor_id": 1,
      "accel_val": 2000,
      "base_duration_us": 254236
    },
    {
      "id": "M_2142",
      "pitch": 76,
      "t_note_us": 220431366,
      "t_trigger_us": 220295403,
      "is_ai": false,
      "track_id": 0,
      "velocity": 0,
      "is_motor": true,
      "motor_id": 2,
      "accel_val": 2000,
      "base_duration_us": 254236
    },
    {
      "id": "M_2143",
      "pitch": 59,
      "t_note_us": 220676333,
      "t_trigger_us": 220540370,
      "is_ai": false,
      "track_id": 0,
      "velocity": 0,
      "is_motor": true,
      "motor_id": 0,
      "accel_val": 2000,
      "base_duration_us": 127118
    },
    {
      "id": "M_2144",
      "pitch": 76,
      "t_note_us": 220685602,
      "t_trigger_us": 220549639,
      "is_ai": false,
      "track_id": 0,
      "velocity": 0,
      "is_motor": true,
      "motor_id": 2,
      "accel_val": 2000,
      "base_duration_us": 254235
    },
    {
      "id": "M_2145",
      "pitch": 69,
      "t_note_us": 220685602,
      "t_trigger_us": 220549639,
      "is_ai": false,
      "track_id": 0,
      "velocity": 0,
      "is_motor": true,
      "motor_id": 1,
      "accel_val": 2000,
      "base_duration_us": 254235
    },
    {
      "id": "M_2146",
      "pitch": 67,
      "t_note_us": 220845823,
      "t_trigger_us": 220709860,
      "is_ai": false,
      "track_id": 0,
      "velocity": 0,
      "is_motor": true,
      "motor_id": 0,
      "accel_val": 2000,
      "base_duration_us": 127117
    },
    {
      "id": "M_2147",
      "pitch": 52,
      "t_note_us": 220930568,
      "t_trigger_us": 220794605,
      "is_ai": false,
      "track_id": 0,
      "velocity": 0,
      "is_motor": true,
      "motor_id": 3,
      "accel_val": 2000,
      "base_duration_us": 254236
    },
    {
      "id": "M_2148",
      "pitch": 76,
      "t_note_us": 220939837,
      "t_trigger_us": 220803874,
      "is_ai": false,
      "track_id": 0,
      "velocity": 0,
      "is_motor": true,
      "motor_id": 2,
      "accel_val": 2000,
      "base_duration_us": 254236
    },
    {
      "id": "M_2149",
      "pitch": 67,
      "t_note_us": 220939837,
      "t_trigger_us": 220803874,
      "is_ai": false,
      "track_id": 0,
      "velocity": 0,
      "is_motor": true,
      "motor_id": 1,
      "accel_val": 2000,
      "base_duration_us": 254236
    },
    {
      "id": "M_2150",
      "pitch": 55,
      "t_note_us": 221184804,
      "t_trigger_us": 221048841,
      "is_ai": false,
      "track_id": 0,
      "velocity": 0,
      "is_motor": true,
      "motor_id": 0,
      "accel_val": 2000,
      "base_duration_us": 127118
    },
    {
      "id": "M_2151",
      "pitch": 74,
      "t_note_us": 221194073,
      "t_trigger_us": 221058110,
      "is_ai": false,
      "track_id": 0,
      "velocity": 0,
      "is_motor": true,
      "motor_id": 1,
      "accel_val": 2000,
      "base_duration_us": 254235
    },
    {
      "id": "M_2152",
      "pitch": 69,
      "t_note_us": 221194073,
      "t_trigger_us": 221058110,
      "is_ai": false,
      "track_id": 0,
      "velocity": 0,
      "is_motor": true,
      "motor_id": 2,
      "accel_val": 2000,
      "base_duration_us": 254235
    },
    {
      "id": "M_2153",
      "pitch": 62,
      "t_note_us": 221354294,
      "t_trigger_us": 221218331,
      "is_ai": false,
      "track_id": 0,
      "velocity": 0,
      "is_motor": true,
      "motor_id": 0,
      "accel_val": 2000,
      "base_duration_us": 254236
    },
    {
      "id": "M_2154",
      "pitch": 74,
      "t_note_us": 221448308,
      "t_trigger_us": 221312345,
      "is_ai": false,
      "track_id": 0,
      "velocity": 0,
      "is_motor": true,
      "motor_id": 1,
      "accel_val": 2000,
      "base_duration_us": 254236
    },
    {
      "id": "M_2155",
      "pitch": 67,
      "t_note_us": 221448308,
      "t_trigger_us": 221312345,
      "is_ai": false,
      "track_id": 0,
      "velocity": 0,
      "is_motor": true,
      "motor_id": 2,
      "accel_val": 2000,
      "base_duration_us": 254236
    },
    {
      "id": "M_2156",
      "pitch": 62,
      "t_note_us": 221608530,
      "t_trigger_us": 221472567,
      "is_ai": false,
      "track_id": 0,
      "velocity": 0,
      "is_motor": true,
      "motor_id": 0,
      "accel_val": 2000,
      "base_duration_us": 127117
    },
    {
      "id": "M_2157",
      "pitch": 71,
      "t_note_us": 221693275,
      "t_trigger_us": 221557312,
      "is_ai": false,
      "track_id": 0,
      "velocity": 0,
      "is_motor": true,
      "motor_id": 3,
      "accel_val": 2000,
      "base_duration_us": 254236
    },
    {
      "id": "M_2158",
      "pitch": 67,
      "t_note_us": 221693275,
      "t_trigger_us": 221557312,
      "is_ai": false,
      "track_id": 0,
      "velocity": 0,
      "is_motor": true,
      "motor_id": 0,
      "accel_val": 2000,
      "base_duration_us": 254236
    },
    {
      "id": "M_2159",
      "pitch": 74,
      "t_note_us": 221702544,
      "t_trigger_us": 221566581,
      "is_ai": false,
      "track_id": 0,
      "velocity": 0,
      "is_motor": true,
      "motor_id": 1,
      "accel_val": 2000,
      "base_duration_us": 254236
    },
    {
      "id": "M_2160",
      "pitch": 69,
      "t_note_us": 221702544,
      "t_trigger_us": 221566581,
      "is_ai": false,
      "track_id": 0,
      "velocity": 0,
      "is_motor": true,
      "motor_id": 2,
      "accel_val": 2000,
      "base_duration_us": 254236
    },
    {
      "id": "M_2161",
      "pitch": 59,
      "t_note_us": 221947511,
      "t_trigger_us": 221811548,
      "is_ai": false,
      "track_id": 0,
      "velocity": 0,
      "is_motor": true,
      "motor_id": 0,
      "accel_val": 2000,
      "base_duration_us": 127118
    },
    {
      "id": "M_2162",
      "pitch": 74,
      "t_note_us": 221956780,
      "t_trigger_us": 221820817,
      "is_ai": false,
      "track_id": 0,
      "velocity": 0,
      "is_motor": true,
      "motor_id": 1,
      "accel_val": 2000,
      "base_duration_us": 254236
    },
    {
      "id": "M_2163",
      "pitch": 71,
      "t_note_us": 221956780,
      "t_trigger_us": 221820817,
      "is_ai": false,
      "track_id": 0,
      "velocity": 0,
      "is_motor": true,
      "motor_id": 2,
      "accel_val": 2000,
      "base_duration_us": 254236
    },
    {
      "id": "M_2164",
      "pitch": 48,
      "t_note_us": 222201747,
      "t_trigger_us": 222065784,
      "is_ai": false,
      "track_id": 0,
      "velocity": 0,
      "is_motor": true,
      "motor_id": 0,
      "accel_val": 2000,
      "base_duration_us": 127118
    },
    {
      "id": "M_2165",
      "pitch": 64,
      "t_note_us": 222371237,
      "t_trigger_us": 222235274,
      "is_ai": false,
      "track_id": 0,
      "velocity": 0,
      "is_motor": true,
      "motor_id": 1,
      "accel_val": 2000,
      "base_duration_us": 254236
    },
    {
      "id": "M_2166",
      "pitch": 60,
      "t_note_us": 222371237,
      "t_trigger_us": 222235274,
      "is_ai": false,
      "track_id": 0,
      "velocity": 0,
      "is_motor": true,
      "motor_id": 0,
      "accel_val": 2000,
      "base_duration_us": 254236
    },
    {
      "id": "M_2167",
      "pitch": 67,
      "t_note_us": 222465251,
      "t_trigger_us": 222329288,
      "is_ai": false,
      "track_id": 0,
      "velocity": 0,
      "is_motor": true,
      "motor_id": 2,
      "accel_val": 2000,
      "base_duration_us": 254236
    },
    {
      "id": "M_2168",
      "pitch": 76,
      "t_note_us": 222465251,
      "t_trigger_us": 222329288,
      "is_ai": false,
      "track_id": 0,
      "velocity": 0,
      "is_motor": true,
      "motor_id": 3,
      "accel_val": 2000,
      "base_duration_us": 254236
    },
    {
      "id": "M_2169",
      "pitch": 55,
      "t_note_us": 222625473,
      "t_trigger_us": 222489510,
      "is_ai": false,
      "track_id": 0,
      "velocity": 0,
      "is_motor": true,
      "motor_id": 0,
      "accel_val": 2000,
      "base_duration_us": 127117
    },
    {
      "id": "M_2170",
      "pitch": 60,
      "t_note_us": 222710218,
      "t_trigger_us": 222574255,
      "is_ai": false,
      "track_id": 0,
      "velocity": 0,
      "is_motor": true,
      "motor_id": 1,
      "accel_val": 2000,
      "base_duration_us": 127117
    },
    {
      "id": "M_2173",
      "pitch": 74,
      "t_note_us": 222719487,
      "t_trigger_us": 222583524,
      "is_ai": false,
      "track_id": 0,
      "velocity": 0,
      "is_motor": true,
      "motor_id": 2,
      "accel_val": 2000,
      "base_duration_us": 508470
    },
    {
      "id": "M_2174",
      "pitch": 67,
      "t_note_us": 222719487,
      "t_trigger_us": 222583524,
      "is_ai": false,
      "track_id": 0,
      "velocity": 0,
      "is_motor": true,
      "motor_id": 3,
      "accel_val": 2000,
      "base_duration_us": 508470
    },
    {
      "id": "M_2171",
      "pitch": 64,
      "t_note_us": 222879707,
      "t_trigger_us": 222743744,
      "is_ai": false,
      "track_id": 0,
      "velocity": 0,
      "is_motor": true,
      "motor_id": 1,
      "accel_val": 2000,
      "base_duration_us": 127117
    },
    {
      "id": "M_2172",
      "pitch": 48,
      "t_note_us": 222964452,
      "t_trigger_us": 222828489,
      "is_ai": false,
      "track_id": 0,
      "velocity": 0,
      "is_motor": true,
      "motor_id": 0,
      "accel_val": 2000,
      "base_duration_us": 254236
    },
    {
      "id": "M_2175",
      "pitch": 47,
      "t_note_us": 223218688,
      "t_trigger_us": 223082725,
      "is_ai": false,
      "track_id": 0,
      "velocity": 0,
      "is_motor": true,
      "motor_id": 0,
      "accel_val": 2000,
      "base_duration_us": 127118
    },
    {
      "id": "M_2176",
      "pitch": 78,
      "t_note_us": 223227957,
      "t_trigger_us": 223091994,
      "is_ai": false,
      "track_id": 0,
      "velocity": 0,
      "is_motor": true,
      "motor_id": 2,
      "accel_val": 2000,
      "base_duration_us": 254235
    },
    {
      "id": "M_2177",
      "pitch": 74,
      "t_note_us": 223227957,
      "t_trigger_us": 223091994,
      "is_ai": false,
      "track_id": 0,
      "velocity": 0,
      "is_motor": true,
      "motor_id": 1,
      "accel_val": 2000,
      "base_duration_us": 254235
    },
    {
      "id": "M_2178",
      "pitch": 63,
      "t_note_us": 223388178,
      "t_trigger_us": 223252215,
      "is_ai": false,
      "track_id": 0,
      "velocity": 0,
      "is_motor": true,
      "motor_id": 0,
      "accel_val": 2000,
      "base_duration_us": 254236
    },
    {
      "id": "M_2179",
      "pitch": 59,
      "t_note_us": 223388178,
      "t_trigger_us": 223252215,
      "is_ai": false,
      "track_id": 0,
      "velocity": 0,
      "is_motor": true,
      "motor_id": 3,
      "accel_val": 2000,
      "base_duration_us": 254236
    },
    {
      "id": "M_2181",
      "pitch": 96,
      "t_note_us": 223482192,
      "t_trigger_us": 223346229,
      "is_ai": true,
      "track_id": 10,
      "velocity": 0,
      "is_motor": true,
      "motor_id": 2,
      "accel_val": 2000,
      "base_duration_us": 254236
    },
    {
      "id": "M_2180",
      "pitch": 78,
      "t_note_us": 223482192,
      "t_trigger_us": 223346229,
      "is_ai": false,
      "track_id": 0,
      "velocity": 0,
      "is_motor": true,
      "motor_id": 1,
      "accel_val": 2000,
      "base_duration_us": 254236
    },
    {
      "id": "M_2182",
      "pitch": 54,
      "t_note_us": 223642414,
      "t_trigger_us": 223506451,
      "is_ai": false,
      "track_id": 0,
      "velocity": 0,
      "is_motor": true,
      "motor_id": 0,
      "accel_val": 2000,
      "base_duration_us": 127117
    },
    {
      "id": "M_2183",
      "pitch": 59,
      "t_note_us": 223727159,
      "t_trigger_us": 223591196,
      "is_ai": false,
      "track_id": 0,
      "velocity": 0,
      "is_motor": true,
      "motor_id": 3,
      "accel_val": 2000,
      "base_duration_us": 127117
    },
    {
      "id": "M_2184",
      "pitch": 71,
      "t_note_us": 223736428,
      "t_trigger_us": 223600465,
      "is_ai": false,
      "track_id": 0,
      "velocity": 0,
      "is_motor": true,
      "motor_id": 1,
      "accel_val": 2000,
      "base_duration_us": 254234
    },
    {
      "id": "M_2185",
      "pitch": 74,
      "t_note_us": 223736428,
      "t_trigger_us": 223600465,
      "is_ai": false,
      "track_id": 0,
      "velocity": 0,
      "is_motor": true,
      "motor_id": 2,
      "accel_val": 2000,
      "base_duration_us": 254234
    },
    {
      "id": "M_2186",
      "pitch": 63,
      "t_note_us": 223896648,
      "t_trigger_us": 223760685,
      "is_ai": false,
      "track_id": 0,
      "velocity": 0,
      "is_motor": true,
      "motor_id": 0,
      "accel_val": 2000,
      "base_duration_us": 127117
    },
    {
      "id": "M_2187",
      "pitch": 47,
      "t_note_us": 223981393,
      "t_trigger_us": 223845430,
      "is_ai": false,
      "track_id": 0,
      "velocity": 0,
      "is_motor": true,
      "motor_id": 3,
      "accel_val": 2000,
      "base_duration_us": 254236
    },
    {
      "id": "M_2188",
      "pitch": 71,
      "t_note_us": 223990662,
      "t_trigger_us": 223854699,
      "is_ai": false,
      "track_id": 0,
      "velocity": 0,
      "is_motor": true,
      "motor_id": 1,
      "accel_val": 2000,
      "base_duration_us": 254236
    },
    {
      "id": "M_2189",
      "pitch": 78,
      "t_note_us": 223990662,
      "t_trigger_us": 223854699,
      "is_ai": false,
      "track_id": 0,
      "velocity": 0,
      "is_motor": true,
      "motor_id": 2,
      "accel_val": 2000,
      "base_duration_us": 254236
    },
    {
      "id": "M_2190",
      "pitch": 52,
      "t_note_us": 224235629,
      "t_trigger_us": 224099666,
      "is_ai": false,
      "track_id": 0,
      "velocity": 0,
      "is_motor": true,
      "motor_id": 0,
      "accel_val": 2000,
      "base_duration_us": 127118
    },
    {
      "id": "M_2191",
      "pitch": 67,
      "t_note_us": 224244898,
      "t_trigger_us": 224108935,
      "is_ai": false,
      "track_id": 0,
      "velocity": 0,
      "is_motor": true,
      "motor_id": 1,
      "accel_val": 2000,
      "base_duration_us": 254235
    },
    {
      "id": "M_2192",
      "pitch": 76,
      "t_note_us": 224244898,
      "t_trigger_us": 224108935,
      "is_ai": false,
      "track_id": 0,
      "velocity": 0,
      "is_motor": true,
      "motor_id": 2,
      "accel_val": 2000,
      "base_duration_us": 254235
    },
    {
      "id": "M_2193",
      "pitch": 71,
      "t_note_us": 224244898,
      "t_trigger_us": 224108935,
      "is_ai": false,
      "track_id": 0,
      "velocity": 0,
      "is_motor": true,
      "motor_id": 3,
      "accel_val": 2000,
      "base_duration_us": 254235
    },
    {
      "id": "M_2194",
      "pitch": 67,
      "t_note_us": 224405119,
      "t_trigger_us": 224269156,
      "is_ai": false,
      "track_id": 0,
      "velocity": 0,
      "is_motor": true,
      "motor_id": 0,
      "accel_val": 2000,
      "base_duration_us": 254236
    },
    {
      "id": "M_2195",
      "pitch": 64,
      "t_note_us": 224405119,
      "t_trigger_us": 224269156,
      "is_ai": false,
      "track_id": 0,
      "velocity": 0,
      "is_motor": true,
      "motor_id": 0,
      "accel_val": 2000,
      "base_duration_us": 254236
    },
    {
      "id": "M_2196",
      "pitch": 71,
      "t_note_us": 224499133,
      "t_trigger_us": 224363170,
      "is_ai": false,
      "track_id": 0,
      "velocity": 0,
      "is_motor": true,
      "motor_id": 1,
      "accel_val": 2000,
      "base_duration_us": 254236
    },
    {
      "id": "M_2197",
      "pitch": 59,
      "t_note_us": 224659355,
      "t_trigger_us": 224523392,
      "is_ai": false,
      "track_id": 0,
      "velocity": 0,
      "is_motor": true,
      "motor_id": 0,
      "accel_val": 2000,
      "base_duration_us": 127117
    },
    {
      "id": "M_2198",
      "pitch": 64,
      "t_note_us": 224744100,
      "t_trigger_us": 224608137,
      "is_ai": false,
      "track_id": 0,
      "velocity": 0,
      "is_motor": true,
      "motor_id": 2,
      "accel_val": 2000,
      "base_duration_us": 127117
    },
    {
      "id": "M_2201",
      "pitch": 71,
      "t_note_us": 224753369,
      "t_trigger_us": 224617406,
      "is_ai": false,
      "track_id": 0,
      "velocity": 0,
      "is_motor": true,
      "motor_id": 1,
      "accel_val": 2000,
      "base_duration_us": 508470
    },
    {
      "id": "M_2199",
      "pitch": 67,
      "t_note_us": 224913589,
      "t_trigger_us": 224777626,
      "is_ai": false,
      "track_id": 0,
      "velocity": 0,
      "is_motor": true,
      "motor_id": 2,
      "accel_val": 2000,
      "base_duration_us": 127117
    },
    {
      "id": "M_2200",
      "pitch": 52,
      "t_note_us": 224998334,
      "t_trigger_us": 224862371,
      "is_ai": false,
      "track_id": 0,
      "velocity": 0,
      "is_motor": true,
      "motor_id": 0,
      "accel_val": 2000,
      "base_duration_us": 254236
    },
    {
      "id": "M_2202",
      "pitch": 55,
      "t_note_us": 225252570,
      "t_trigger_us": 225116607,
      "is_ai": false,
      "track_id": 0,
      "velocity": 0,
      "is_motor": true,
      "motor_id": 0,
      "accel_val": 2000,
      "base_duration_us": 127118
    },
    {
      "id": "M_2203",
      "pitch": 67,
      "t_note_us": 225261839,
      "t_trigger_us": 225125876,
      "is_ai": false,
      "track_id": 0,
      "velocity": 0,
      "is_motor": true,
      "motor_id": 1,
      "accel_val": 2000,
      "base_duration_us": 254235
    },
    {
      "id": "M_2204",
      "pitch": 74,
      "t_note_us": 225261839,
      "t_trigger_us": 225125876,
      "is_ai": false,
      "track_id": 0,
      "velocity": 0,
      "is_motor": true,
      "motor_id": 2,
      "accel_val": 2000,
      "base_duration_us": 254235
    },
    {
      "id": "M_2205",
      "pitch": 71,
      "t_note_us": 225261839,
      "t_trigger_us": 225125876,
      "is_ai": false,
      "track_id": 0,
      "velocity": 0,
      "is_motor": true,
      "motor_id": 3,
      "accel_val": 2000,
      "base_duration_us": 254235
    },
    {
      "id": "M_2206",
      "pitch": 65,
      "t_note_us": 225422060,
      "t_trigger_us": 225286097,
      "is_ai": false,
      "track_id": 0,
      "velocity": 0,
      "is_motor": true,
      "motor_id": 0,
      "accel_val": 2000,
      "base_duration_us": 254236
    },
    {
      "id": "M_2207",
      "pitch": 71,
      "t_note_us": 225422060,
      "t_trigger_us": 225286097,
      "is_ai": false,
      "track_id": 0,
      "velocity": 0,
      "is_motor": true,
      "motor_id": 0,
      "accel_val": 2000,
      "base_duration_us": 254236
    },
    {
      "id": "M_2208",
      "pitch": 71,
      "t_note_us": 225516074,
      "t_trigger_us": 225380111,
      "is_ai": false,
      "track_id": 0,
      "velocity": 0,
      "is_motor": true,
      "motor_id": 1,
      "accel_val": 2000,
      "base_duration_us": 254236
    },
    {
      "id": "M_2209",
      "pitch": 62,
      "t_note_us": 225676296,
      "t_trigger_us": 225540333,
      "is_ai": false,
      "track_id": 0,
      "velocity": 0,
      "is_motor": true,
      "motor_id": 0,
      "accel_val": 2000,
      "base_duration_us": 127117
    },
    {
      "id": "M_2210",
      "pitch": 65,
      "t_note_us": 225761041,
      "t_trigger_us": 225625078,
      "is_ai": false,
      "track_id": 0,
      "velocity": 0,
      "is_motor": true,
      "motor_id": 2,
      "accel_val": 2000,
      "base_duration_us": 127117
    },
    {
      "id": "M_2213",
      "pitch": 71,
      "t_note_us": 225770310,
      "t_trigger_us": 225634347,
      "is_ai": false,
      "track_id": 0,
      "velocity": 0,
      "is_motor": true,
      "motor_id": 1,
      "accel_val": 2000,
      "base_duration_us": 508470
    },
    {
      "id": "M_2211",
      "pitch": 71,
      "t_note_us": 225930530,
      "t_trigger_us": 225794567,
      "is_ai": false,
      "track_id": 0,
      "velocity": 0,
      "is_motor": true,
      "motor_id": 2,
      "accel_val": 2000,
      "base_duration_us": 127117
    },
    {
      "id": "M_2212",
      "pitch": 55,
      "t_note_us": 226015275,
      "t_trigger_us": 225879312,
      "is_ai": false,
      "track_id": 0,
      "velocity": 0,
      "is_motor": true,
      "motor_id": 0,
      "accel_val": 2000,
      "base_duration_us": 254236
    },
    {
      "id": "M_2214",
      "pitch": 48,
      "t_note_us": 226269511,
      "t_trigger_us": 226133548,
      "is_ai": false,
      "track_id": 0,
      "velocity": 0,
      "is_motor": true,
      "motor_id": 0,
      "accel_val": 2000,
      "base_duration_us": 127118
    },
    {
      "id": "M_2215",
      "pitch": 64,
      "t_note_us": 226439001,
      "t_trigger_us": 226303038,
      "is_ai": false,
      "track_id": 0,
      "velocity": 0,
      "is_motor": true,
      "motor_id": 1,
      "accel_val": 2000,
      "base_duration_us": 254236
    },
    {
      "id": "M_2216",
      "pitch": 60,
      "t_note_us": 226439001,
      "t_trigger_us": 226303038,
      "is_ai": false,
      "track_id": 0,
      "velocity": 0,
      "is_motor": true,
      "motor_id": 0,
      "accel_val": 2000,
      "base_duration_us": 254236
    },
    {
      "id": "M_2217",
      "pitch": 67,
      "t_note_us": 226533015,
      "t_trigger_us": 226397052,
      "is_ai": false,
      "track_id": 0,
      "velocity": 0,
      "is_motor": true,
      "motor_id": 2,
      "accel_val": 2000,
      "base_duration_us": 254236
    },
    {
      "id": "M_2218",
      "pitch": 76,
      "t_note_us": 226533015,
      "t_trigger_us": 226397052,
      "is_ai": false,
      "track_id": 0,
      "velocity": 0,
      "is_motor": true,
      "motor_id": 3,
      "accel_val": 2000,
      "base_duration_us": 254236
    },
    {
      "id": "M_2219",
      "pitch": 55,
      "t_note_us": 226693237,
      "t_trigger_us": 226557274,
      "is_ai": false,
      "track_id": 0,
      "velocity": 0,
      "is_motor": true,
      "motor_id": 0,
      "accel_val": 2000,
      "base_duration_us": 127117
    },
    {
      "id": "M_2220",
      "pitch": 60,
      "t_note_us": 226777982,
      "t_trigger_us": 226642019,
      "is_ai": false,
      "track_id": 0,
      "velocity": 0,
      "is_motor": true,
      "motor_id": 1,
      "accel_val": 2000,
      "base_duration_us": 127117
    },
    {
      "id": "M_2223",
      "pitch": 74,
      "t_note_us": 226787251,
      "t_trigger_us": 226651288,
      "is_ai": false,
      "track_id": 0,
      "velocity": 0,
      "is_motor": true,
      "motor_id": 2,
      "accel_val": 2000,
      "base_duration_us": 508470
    },
    {
      "id": "M_2224",
      "pitch": 67,
      "t_note_us": 226787251,
      "t_trigger_us": 226651288,
      "is_ai": false,
      "track_id": 0,
      "velocity": 0,
      "is_motor": true,
      "motor_id": 3,
      "accel_val": 2000,
      "base_duration_us": 508470
    },
    {
      "id": "M_2221",
      "pitch": 64,
      "t_note_us": 226947471,
      "t_trigger_us": 226811508,
      "is_ai": false,
      "track_id": 0,
      "velocity": 0,
      "is_motor": true,
      "motor_id": 1,
      "accel_val": 2000,
      "base_duration_us": 127117
    },
    {
      "id": "M_2222",
      "pitch": 48,
      "t_note_us": 227032216,
      "t_trigger_us": 226896253,
      "is_ai": false,
      "track_id": 0,
      "velocity": 0,
      "is_motor": true,
      "motor_id": 0,
      "accel_val": 2000,
      "base_duration_us": 254236
    },
    {
      "id": "M_2225",
      "pitch": 54,
      "t_note_us": 227286452,
      "t_trigger_us": 227150489,
      "is_ai": false,
      "track_id": 0,
      "velocity": 0,
      "is_motor": true,
      "motor_id": 0,
      "accel_val": 2000,
      "base_duration_us": 127118
    },
    {
      "id": "M_2226",
      "pitch": 72,
      "t_note_us": 227295721,
      "t_trigger_us": 227159758,
      "is_ai": false,
      "track_id": 0,
      "velocity": 0,
      "is_motor": true,
      "motor_id": 1,
      "accel_val": 2000,
      "base_duration_us": 254235
    },
    {
      "id": "M_2227",
      "pitch": 78,
      "t_note_us": 227295721,
      "t_trigger_us": 227159758,
      "is_ai": false,
      "track_id": 0,
      "velocity": 0,
      "is_motor": true,
      "motor_id": 2,
      "accel_val": 2000,
      "base_duration_us": 254235
    },
    {
      "id": "M_2228",
      "pitch": 69,
      "t_note_us": 227455942,
      "t_trigger_us": 227319979,
      "is_ai": false,
      "track_id": 0,
      "velocity": 0,
      "is_motor": true,
      "motor_id": 0,
      "accel_val": 2000,
      "base_duration_us": 254236
    },
    {
      "id": "M_2229",
      "pitch": 66,
      "t_note_us": 227455942,
      "t_trigger_us": 227319979,
      "is_ai": false,
      "track_id": 0,
      "velocity": 0,
      "is_motor": true,
      "motor_id": 3,
      "accel_val": 2000,
      "base_duration_us": 254236
    },
    {
      "id": "M_2230",
      "pitch": 71,
      "t_note_us": 227549956,
      "t_trigger_us": 227413993,
      "is_ai": false,
      "track_id": 0,
      "velocity": 0,
      "is_motor": true,
      "motor_id": 1,
      "accel_val": 2000,
      "base_duration_us": 254236
    },
    {
      "id": "M_2231",
      "pitch": 78,
      "t_note_us": 227549956,
      "t_trigger_us": 227413993,
      "is_ai": false,
      "track_id": 0,
      "velocity": 0,
      "is_motor": true,
      "motor_id": 2,
      "accel_val": 2000,
      "base_duration_us": 254236
    },
    {
      "id": "M_2232",
      "pitch": 59,
      "t_note_us": 227710178,
      "t_trigger_us": 227574215,
      "is_ai": false,
      "track_id": 0,
      "velocity": 0,
      "is_motor": true,
      "motor_id": 0,
      "accel_val": 2000,
      "base_duration_us": 127117
    },
    {
      "id": "M_2233",
      "pitch": 66,
      "t_note_us": 227794923,
      "t_trigger_us": 227658960,
      "is_ai": false,
      "track_id": 0,
      "velocity": 0,
      "is_motor": true,
      "motor_id": 3,
      "accel_val": 2000,
      "base_duration_us": 127117
    },
    {
      "id": "M_2234",
      "pitch": 71,
      "t_note_us": 227804192,
      "t_trigger_us": 227668229,
      "is_ai": false,
      "track_id": 0,
      "velocity": 0,
      "is_motor": true,
      "motor_id": 1,
      "accel_val": 2000,
      "base_duration_us": 254234
    },
    {
      "id": "M_2235",
      "pitch": 78,
      "t_note_us": 227804192,
      "t_trigger_us": 227668229,
      "is_ai": false,
      "track_id": 0,
      "velocity": 0,
      "is_motor": true,
      "motor_id": 2,
      "accel_val": 2000,
      "base_duration_us": 254234
    },
    {
      "id": "M_2236",
      "pitch": 69,
      "t_note_us": 227964412,
      "t_trigger_us": 227828449,
      "is_ai": false,
      "track_id": 0,
      "velocity": 0,
      "is_motor": true,
      "motor_id": 0,
      "accel_val": 2000,
      "base_duration_us": 127117
    },
    {
      "id": "M_2237",
      "pitch": 54,
      "t_note_us": 228049157,
      "t_trigger_us": 227913194,
      "is_ai": false,
      "track_id": 0,
      "velocity": 0,
      "is_motor": true,
      "motor_id": 3,
      "accel_val": 2000,
      "base_duration_us": 254236
    },
    {
      "id": "M_2238",
      "pitch": 69,
      "t_note_us": 228058426,
      "t_trigger_us": 227922463,
      "is_ai": false,
      "track_id": 0,
      "velocity": 0,
      "is_motor": true,
      "motor_id": 1,
      "accel_val": 2000,
      "base_duration_us": 254236
    },
    {
      "id": "M_2239",
      "pitch": 78,
      "t_note_us": 228058426,
      "t_trigger_us": 227922463,
      "is_ai": false,
      "track_id": 0,
      "velocity": 0,
      "is_motor": true,
      "motor_id": 2,
      "accel_val": 2000,
      "base_duration_us": 254236
    },
    {
      "id": "M_2240",
      "pitch": 52,
      "t_note_us": 228303393,
      "t_trigger_us": 228167430,
      "is_ai": false,
      "track_id": 0,
      "velocity": 0,
      "is_motor": true,
      "motor_id": 0,
      "accel_val": 2000,
      "base_duration_us": 127118
    },
    {
      "id": "M_2241",
      "pitch": 76,
      "t_note_us": 228312662,
      "t_trigger_us": 228176699,
      "is_ai": false,
      "track_id": 0,
      "velocity": 0,
      "is_motor": true,
      "motor_id": 2,
      "accel_val": 2000,
      "base_duration_us": 254235
    },
    {
      "id": "M_2242",
      "pitch": 71,
      "t_note_us": 228312662,
      "t_trigger_us": 228176699,
      "is_ai": false,
      "track_id": 0,
      "velocity": 0,
      "is_motor": true,
      "motor_id": 1,
      "accel_val": 2000,
      "base_duration_us": 254235
    },
    {
      "id": "M_2243",
      "pitch": 67,
      "t_note_us": 228472883,
      "t_trigger_us": 228336920,
      "is_ai": false,
      "track_id": 0,
      "velocity": 0,
      "is_motor": true,
      "motor_id": 0,
      "accel_val": 2000,
      "base_duration_us": 254236
    },
    {
      "id": "M_2244",
      "pitch": 64,
      "t_note_us": 228472883,
      "t_trigger_us": 228336920,
      "is_ai": false,
      "track_id": 0,
      "velocity": 0,
      "is_motor": true,
      "motor_id": 3,
      "accel_val": 2000,
      "base_duration_us": 254236
    },
    {
      "id": "M_2245",
      "pitch": 67,
      "t_note_us": 228566897,
      "t_trigger_us": 228430934,
      "is_ai": false,
      "track_id": 0,
      "velocity": 0,
      "is_motor": true,
      "motor_id": 1,
      "accel_val": 2000,
      "base_duration_us": 254236
    },
    {
      "id": "M_2246",
      "pitch": 76,
      "t_note_us": 228566897,
      "t_trigger_us": 228430934,
      "is_ai": false,
      "track_id": 0,
      "velocity": 0,
      "is_motor": true,
      "motor_id": 2,
      "accel_val": 2000,
      "base_duration_us": 254236
    },
    {
      "id": "M_2247",
      "pitch": 59,
      "t_note_us": 228727119,
      "t_trigger_us": 228591156,
      "is_ai": false,
      "track_id": 0,
      "velocity": 0,
      "is_motor": true,
      "motor_id": 0,
      "accel_val": 2000,
      "base_duration_us": 127117
    },
    {
      "id": "M_2248",
      "pitch": 64,
      "t_note_us": 228811864,
      "t_trigger_us": 228675901,
      "is_ai": false,
      "track_id": 0,
      "velocity": 0,
      "is_motor": true,
      "motor_id": 3,
      "accel_val": 2000,
      "base_duration_us": 127117
    },
    {
      "id": "M_2249",
      "pitch": 76,
      "t_note_us": 228821133,
      "t_trigger_us": 228685170,
      "is_ai": false,
      "track_id": 0,
      "velocity": 0,
      "is_motor": true,
      "motor_id": 2,
      "accel_val": 2000,
      "base_duration_us": 254234
    },
    {
      "id": "M_2250",
      "pitch": 67,
      "t_note_us": 228821133,
      "t_trigger_us": 228685170,
      "is_ai": false,
      "track_id": 0,
      "velocity": 0,
      "is_motor": true,
      "motor_id": 1,
      "accel_val": 2000,
      "base_duration_us": 254234
    },
    {
      "id": "M_2251",
      "pitch": 67,
      "t_note_us": 228981353,
      "t_trigger_us": 228845390,
      "is_ai": false,
      "track_id": 0,
      "velocity": 0,
      "is_motor": true,
      "motor_id": 0,
      "accel_val": 2000,
      "base_duration_us": 127117
    },
    {
      "id": "M_2252",
      "pitch": 52,
      "t_note_us": 229066098,
      "t_trigger_us": 228930135,
      "is_ai": false,
      "track_id": 0,
      "velocity": 0,
      "is_motor": true,
      "motor_id": 3,
      "accel_val": 2000,
      "base_duration_us": 254236
    },
    {
      "id": "M_2254",
      "pitch": 69,
      "t_note_us": 229075367,
      "t_trigger_us": 228939404,
      "is_ai": false,
      "track_id": 0,
      "velocity": 0,
      "is_motor": true,
      "motor_id": 1,
      "accel_val": 2000,
      "base_duration_us": 508471
    },
    {
      "id": "M_2255",
      "pitch": 74,
      "t_note_us": 229075367,
      "t_trigger_us": 228939404,
      "is_ai": false,
      "track_id": 0,
      "velocity": 0,
      "is_motor": true,
      "motor_id": 2,
      "accel_val": 2000,
      "base_duration_us": 508471
    },
    {
      "id": "M_2253",
      "pitch": 55,
      "t_note_us": 229320334,
      "t_trigger_us": 229184371,
      "is_ai": false,
      "track_id": 0,
      "velocity": 0,
      "is_motor": true,
      "motor_id": 0,
      "accel_val": 2000,
      "base_duration_us": 127118
    },
    {
      "id": "M_2256",
      "pitch": 65,
      "t_note_us": 229489824,
      "t_trigger_us": 229353861,
      "is_ai": false,
      "track_id": 0,
      "velocity": 0,
      "is_motor": true,
      "motor_id": 0,
      "accel_val": 2000,
      "base_duration_us": 254236
    },
    {
      "id": "M_2257",
      "pitch": 71,
      "t_note_us": 229489824,
      "t_trigger_us": 229353861,
      "is_ai": false,
      "track_id": 0,
      "velocity": 0,
      "is_motor": true,
      "motor_id": 3,
      "accel_val": 2000,
      "base_duration_us": 254236
    },
    {
      "id": "M_2258",
      "pitch": 74,
      "t_note_us": 229583838,
      "t_trigger_us": 229447875,
      "is_ai": false,
      "track_id": 0,
      "velocity": 0,
      "is_motor": true,
      "motor_id": 1,
      "accel_val": 2000,
      "base_duration_us": 254236
    },
    {
      "id": "M_2259",
      "pitch": 71,
      "t_note_us": 229583838,
      "t_trigger_us": 229447875,
      "is_ai": false,
      "track_id": 0,
      "velocity": 0,
      "is_motor": true,
      "motor_id": 2,
      "accel_val": 2000,
      "base_duration_us": 254236
    },
    {
      "id": "M_2260",
      "pitch": 62,
      "t_note_us": 229744060,
      "t_trigger_us": 229608097,
      "is_ai": false,
      "track_id": 0,
      "velocity": 0,
      "is_motor": true,
      "motor_id": 0,
      "accel_val": 2000,
      "base_duration_us": 127117
    },
    {
      "id": "M_2261",
      "pitch": 65,
      "t_note_us": 229828805,
      "t_trigger_us": 229692842,
      "is_ai": false,
      "track_id": 0,
      "velocity": 0,
      "is_motor": true,
      "motor_id": 3,
      "accel_val": 2000,
      "base_duration_us": 127117
    },
    {
      "id": "M_2262",
      "pitch": 74,
      "t_note_us": 229838074,
      "t_trigger_us": 229702111,
      "is_ai": false,
      "track_id": 0,
      "velocity": 0,
      "is_motor": true,
      "motor_id": 1,
      "accel_val": 2000,
      "base_duration_us": 254234
    },
    {
      "id": "M_2263",
      "pitch": 69,
      "t_note_us": 229838074,
      "t_trigger_us": 229702111,
      "is_ai": false,
      "track_id": 0,
      "velocity": 0,
      "is_motor": true,
      "motor_id": 2,
      "accel_val": 2000,
      "base_duration_us": 254234
    },
    {
      "id": "M_2264",
      "pitch": 71,
      "t_note_us": 229998294,
      "t_trigger_us": 229862331,
      "is_ai": false,
      "track_id": 0,
      "velocity": 0,
      "is_motor": true,
      "motor_id": 0,
      "accel_val": 2000,
      "base_duration_us": 127117
    },
    {
      "id": "M_2265",
      "pitch": 55,
      "t_note_us": 230083039,
      "t_trigger_us": 229947076,
      "is_ai": false,
      "track_id": 0,
      "velocity": 0,
      "is_motor": true,
      "motor_id": 3,
      "accel_val": 2000,
      "base_duration_us": 254236
    },
    {
      "id": "M_2266",
      "pitch": 74,
      "t_note_us": 230092308,
      "t_trigger_us": 229956345,
      "is_ai": false,
      "track_id": 0,
      "velocity": 0,
      "is_motor": true,
      "motor_id": 1,
      "accel_val": 2000,
      "base_duration_us": 254236
    },
    {
      "id": "M_2267",
      "pitch": 67,
      "t_note_us": 230092308,
      "t_trigger_us": 229956345,
      "is_ai": false,
      "track_id": 0,
      "velocity": 0,
      "is_motor": true,
      "motor_id": 2,
      "accel_val": 2000,
      "base_duration_us": 254236
    },
    {
      "id": "M_2268",
      "pitch": 48,
      "t_note_us": 230337275,
      "t_trigger_us": 230201312,
      "is_ai": false,
      "track_id": 0,
      "velocity": 0,
      "is_motor": true,
      "motor_id": 0,
      "accel_val": 2000,
      "base_duration_us": 127118
    },
    {
      "id": "M_2269",
      "pitch": 64,
      "t_note_us": 230506765,
      "t_trigger_us": 230370802,
      "is_ai": false,
      "track_id": 0,
      "velocity": 0,
      "is_motor": true,
      "motor_id": 1,
      "accel_val": 2000,
      "base_duration_us": 254236
    },
    {
      "id": "M_2270",
      "pitch": 60,
      "t_note_us": 230506765,
      "t_trigger_us": 230370802,
      "is_ai": false,
      "track_id": 0,
      "velocity": 0,
      "is_motor": true,
      "motor_id": 0,
      "accel_val": 2000,
      "base_duration_us": 254236
    },
    {
      "id": "M_2271",
      "pitch": 67,
      "t_note_us": 230600779,
      "t_trigger_us": 230464816,
      "is_ai": false,
      "track_id": 0,
      "velocity": 0,
      "is_motor": true,
      "motor_id": 2,
      "accel_val": 2000,
      "base_duration_us": 254236
    },
    {
      "id": "M_2272",
      "pitch": 76,
      "t_note_us": 230600779,
      "t_trigger_us": 230464816,
      "is_ai": false,
      "track_id": 0,
      "velocity": 0,
      "is_motor": true,
      "motor_id": 3,
      "accel_val": 2000,
      "base_duration_us": 254236
    },
    {
      "id": "M_2273",
      "pitch": 55,
      "t_note_us": 230761001,
      "t_trigger_us": 230625038,
      "is_ai": false,
      "track_id": 0,
      "velocity": 0,
      "is_motor": true,
      "motor_id": 0,
      "accel_val": 2000,
      "base_duration_us": 127117
    },
    {
      "id": "M_2274",
      "pitch": 60,
      "t_note_us": 230845746,
      "t_trigger_us": 230709783,
      "is_ai": false,
      "track_id": 0,
      "velocity": 0,
      "is_motor": true,
      "motor_id": 1,
      "accel_val": 2000,
      "base_duration_us": 127117
    },
    {
      "id": "M_2277",
      "pitch": 74,
      "t_note_us": 230855015,
      "t_trigger_us": 230719052,
      "is_ai": false,
      "track_id": 0,
      "velocity": 0,
      "is_motor": true,
      "motor_id": 2,
      "accel_val": 2000,
      "base_duration_us": 508470
    },
    {
      "id": "M_2278",
      "pitch": 67,
      "t_note_us": 230855015,
      "t_trigger_us": 230719052,
      "is_ai": false,
      "track_id": 0,
      "velocity": 0,
      "is_motor": true,
      "motor_id": 3,
      "accel_val": 2000,
      "base_duration_us": 508470
    },
    {
      "id": "M_2275",
      "pitch": 64,
      "t_note_us": 231015235,
      "t_trigger_us": 230879272,
      "is_ai": false,
      "track_id": 0,
      "velocity": 0,
      "is_motor": true,
      "motor_id": 1,
      "accel_val": 2000,
      "base_duration_us": 127117
    },
    {
      "id": "M_2276",
      "pitch": 48,
      "t_note_us": 231099980,
      "t_trigger_us": 230964017,
      "is_ai": false,
      "track_id": 0,
      "velocity": 0,
      "is_motor": true,
      "motor_id": 0,
      "accel_val": 2000,
      "base_duration_us": 254236
    },
    {
      "id": "M_2279",
      "pitch": 47,
      "t_note_us": 231354216,
      "t_trigger_us": 231218253,
      "is_ai": false,
      "track_id": 0,
      "velocity": 0,
      "is_motor": true,
      "motor_id": 0,
      "accel_val": 2000,
      "base_duration_us": 127118
    },
    {
      "id": "M_2280",
      "pitch": 78,
      "t_note_us": 231363485,
      "t_trigger_us": 231227522,
      "is_ai": false,
      "track_id": 0,
      "velocity": 0,
      "is_motor": true,
      "motor_id": 2,
      "accel_val": 2000,
      "base_duration_us": 254235
    },
    {
      "id": "M_2281",
      "pitch": 74,
      "t_note_us": 231363485,
      "t_trigger_us": 231227522,
      "is_ai": false,
      "track_id": 0,
      "velocity": 0,
      "is_motor": true,
      "motor_id": 1,
      "accel_val": 2000,
      "base_duration_us": 254235
    },
    {
      "id": "M_2282",
      "pitch": 63,
      "t_note_us": 231523706,
      "t_trigger_us": 231387743,
      "is_ai": false,
      "track_id": 0,
      "velocity": 0,
      "is_motor": true,
      "motor_id": 0,
      "accel_val": 2000,
      "base_duration_us": 254236
    },
    {
      "id": "M_2283",
      "pitch": 59,
      "t_note_us": 231523706,
      "t_trigger_us": 231387743,
      "is_ai": false,
      "track_id": 0,
      "velocity": 0,
      "is_motor": true,
      "motor_id": 3,
      "accel_val": 2000,
      "base_duration_us": 254236
    },
    {
      "id": "M_2284",
      "pitch": 78,
      "t_note_us": 231617720,
      "t_trigger_us": 231481757,
      "is_ai": false,
      "track_id": 0,
      "velocity": 0,
      "is_motor": true,
      "motor_id": 2,
      "accel_val": 2000,
      "base_duration_us": 254236
    },
    {
      "id": "M_2285",
      "pitch": 72,
      "t_note_us": 231617720,
      "t_trigger_us": 231481757,
      "is_ai": false,
      "track_id": 0,
      "velocity": 0,
      "is_motor": true,
      "motor_id": 1,
      "accel_val": 2000,
      "base_duration_us": 254236
    },
    {
      "id": "M_2286",
      "pitch": 54,
      "t_note_us": 231777942,
      "t_trigger_us": 231641979,
      "is_ai": false,
      "track_id": 0,
      "velocity": 0,
      "is_motor": true,
      "motor_id": 0,
      "accel_val": 2000,
      "base_duration_us": 127117
    },
    {
      "id": "M_2287",
      "pitch": 59,
      "t_note_us": 231862687,
      "t_trigger_us": 231726724,
      "is_ai": false,
      "track_id": 0,
      "velocity": 0,
      "is_motor": true,
      "motor_id": 3,
      "accel_val": 2000,
      "base_duration_us": 127117
    },
    {
      "id": "M_2288",
      "pitch": 71,
      "t_note_us": 231871956,
      "t_trigger_us": 231735993,
      "is_ai": false,
      "track_id": 0,
      "velocity": 0,
      "is_motor": true,
      "motor_id": 1,
      "accel_val": 2000,
      "base_duration_us": 254234
    },
    {
      "id": "M_2289",
      "pitch": 74,
      "t_note_us": 231871956,
      "t_trigger_us": 231735993,
      "is_ai": false,
      "track_id": 0,
      "velocity": 0,
      "is_motor": true,
      "motor_id": 2,
      "accel_val": 2000,
      "base_duration_us": 254234
    },
    {
      "id": "M_2290",
      "pitch": 63,
      "t_note_us": 232032176,
      "t_trigger_us": 231896213,
      "is_ai": false,
      "track_id": 0,
      "velocity": 0,
      "is_motor": true,
      "motor_id": 0,
      "accel_val": 2000,
      "base_duration_us": 127117
    },
    {
      "id": "M_2291",
      "pitch": 47,
      "t_note_us": 232116921,
      "t_trigger_us": 231980958,
      "is_ai": false,
      "track_id": 0,
      "velocity": 0,
      "is_motor": true,
      "motor_id": 3,
      "accel_val": 2000,
      "base_duration_us": 254236
    },
    {
      "id": "M_2292",
      "pitch": 71,
      "t_note_us": 232126190,
      "t_trigger_us": 231990227,
      "is_ai": false,
      "track_id": 0,
      "velocity": 0,
      "is_motor": true,
      "motor_id": 1,
      "accel_val": 2000,
      "base_duration_us": 254236
    },
    {
      "id": "M_2293",
      "pitch": 78,
      "t_note_us": 232126190,
      "t_trigger_us": 231990227,
      "is_ai": false,
      "track_id": 0,
      "velocity": 0,
      "is_motor": true,
      "motor_id": 2,
      "accel_val": 2000,
      "base_duration_us": 254236
    },
    {
      "id": "M_2294",
      "pitch": 52,
      "t_note_us": 232371157,
      "t_trigger_us": 232235194,
      "is_ai": false,
      "track_id": 0,
      "velocity": 0,
      "is_motor": true,
      "motor_id": 0,
      "accel_val": 2000,
      "base_duration_us": 127118
    },
    {
      "id": "M_2295",
      "pitch": 67,
      "t_note_us": 232380426,
      "t_trigger_us": 232244463,
      "is_ai": false,
      "track_id": 0,
      "velocity": 0,
      "is_motor": true,
      "motor_id": 1,
      "accel_val": 2000,
      "base_duration_us": 254235
    },
    {
      "id": "M_2296",
      "pitch": 76,
      "t_note_us": 232380426,
      "t_trigger_us": 232244463,
      "is_ai": false,
      "track_id": 0,
      "velocity": 0,
      "is_motor": true,
      "motor_id": 2,
      "accel_val": 2000,
      "base_duration_us": 254235
    },
    {
      "id": "M_2297",
      "pitch": 71,
      "t_note_us": 232380426,
      "t_trigger_us": 232244463,
      "is_ai": false,
      "track_id": 0,
      "velocity": 0,
      "is_motor": true,
      "motor_id": 3,
      "accel_val": 2000,
      "base_duration_us": 254235
    },
    {
      "id": "M_2298",
      "pitch": 67,
      "t_note_us": 232540647,
      "t_trigger_us": 232404684,
      "is_ai": false,
      "track_id": 0,
      "velocity": 0,
      "is_motor": true,
      "motor_id": 0,
      "accel_val": 2000,
      "base_duration_us": 254236
    },
    {
      "id": "M_2299",
      "pitch": 64,
      "t_note_us": 232540647,
      "t_trigger_us": 232404684,
      "is_ai": false,
      "track_id": 0,
      "velocity": 0,
      "is_motor": true,
      "motor_id": 0,
      "accel_val": 2000,
      "base_duration_us": 254236
    },
    {
      "id": "M_2300",
      "pitch": 67,
      "t_note_us": 232634661,
      "t_trigger_us": 232498698,
      "is_ai": false,
      "track_id": 0,
      "velocity": 0,
      "is_motor": true,
      "motor_id": 1,
      "accel_val": 2000,
      "base_duration_us": 254236
    },
    {
      "id": "M_2301",
      "pitch": 74,
      "t_note_us": 232634661,
      "t_trigger_us": 232498698,
      "is_ai": false,
      "track_id": 0,
      "velocity": 0,
      "is_motor": true,
      "motor_id": 2,
      "accel_val": 2000,
      "base_duration_us": 254236
    },
    {
      "id": "M_2302",
      "pitch": 59,
      "t_note_us": 232794883,
      "t_trigger_us": 232658920,
      "is_ai": false,
      "track_id": 0,
      "velocity": 0,
      "is_motor": true,
      "motor_id": 0,
      "accel_val": 2000,
      "base_duration_us": 127117
    },
    {
      "id": "M_2303",
      "pitch": 64,
      "t_note_us": 232879628,
      "t_trigger_us": 232743665,
      "is_ai": false,
      "track_id": 0,
      "velocity": 0,
      "is_motor": true,
      "motor_id": 3,
      "accel_val": 2000,
      "base_duration_us": 127117
    },
    {
      "id": "M_2304",
      "pitch": 74,
      "t_note_us": 232888897,
      "t_trigger_us": 232752934,
      "is_ai": false,
      "track_id": 0,
      "velocity": 0,
      "is_motor": true,
      "motor_id": 1,
      "accel_val": 2000,
      "base_duration_us": 254234
    },
    {
      "id": "M_2305",
      "pitch": 67,
      "t_note_us": 232888897,
      "t_trigger_us": 232752934,
      "is_ai": false,
      "track_id": 0,
      "velocity": 0,
      "is_motor": true,
      "motor_id": 2,
      "accel_val": 2000,
      "base_duration_us": 254234
    },
    {
      "id": "M_2306",
      "pitch": 67,
      "t_note_us": 233049117,
      "t_trigger_us": 232913154,
      "is_ai": false,
      "track_id": 0,
      "velocity": 0,
      "is_motor": true,
      "motor_id": 0,
      "accel_val": 2000,
      "base_duration_us": 127117
    },
    {
      "id": "M_2307",
      "pitch": 52,
      "t_note_us": 233133862,
      "t_trigger_us": 232997899,
      "is_ai": false,
      "track_id": 0,
      "velocity": 0,
      "is_motor": true,
      "motor_id": 3,
      "accel_val": 2000,
      "base_duration_us": 254236
    },
    {
      "id": "M_2308",
      "pitch": 72,
      "t_note_us": 233143131,
      "t_trigger_us": 233007168,
      "is_ai": false,
      "track_id": 0,
      "velocity": 0,
      "is_motor": true,
      "motor_id": 1,
      "accel_val": 2000,
      "base_duration_us": 254236
    },
    {
      "id": "M_2309",
      "pitch": 67,
      "t_note_us": 233143131,
      "t_trigger_us": 233007168,
      "is_ai": false,
      "track_id": 0,
      "velocity": 0,
      "is_motor": true,
      "motor_id": 2,
      "accel_val": 2000,
      "base_duration_us": 254236
    },
    {
      "id": "M_2310",
      "pitch": 55,
      "t_note_us": 233388098,
      "t_trigger_us": 233252135,
      "is_ai": false,
      "track_id": 0,
      "velocity": 0,
      "is_motor": true,
      "motor_id": 0,
      "accel_val": 2000,
      "base_duration_us": 127118
    },
    {
      "id": "M_2311",
      "pitch": 71,
      "t_note_us": 233397367,
      "t_trigger_us": 233261404,
      "is_ai": false,
      "track_id": 0,
      "velocity": 0,
      "is_motor": true,
      "motor_id": 1,
      "accel_val": 2000,
      "base_duration_us": 254235
    },
    {
      "id": "M_2312",
      "pitch": 69,
      "t_note_us": 233397367,
      "t_trigger_us": 233261404,
      "is_ai": false,
      "track_id": 0,
      "velocity": 0,
      "is_motor": true,
      "motor_id": 2,
      "accel_val": 2000,
      "base_duration_us": 254235
    },
    {
      "id": "M_2313",
      "pitch": 65,
      "t_note_us": 233557588,
      "t_trigger_us": 233421625,
      "is_ai": false,
      "track_id": 0,
      "velocity": 0,
      "is_motor": true,
      "motor_id": 0,
      "accel_val": 2000,
      "base_duration_us": 254236
    },
    {
      "id": "M_2314",
      "pitch": 71,
      "t_note_us": 233557588,
      "t_trigger_us": 233421625,
      "is_ai": false,
      "track_id": 0,
      "velocity": 0,
      "is_motor": true,
      "motor_id": 3,
      "accel_val": 2000,
      "base_duration_us": 254236
    },
    {
      "id": "M_2315",
      "pitch": 71,
      "t_note_us": 233651602,
      "t_trigger_us": 233515639,
      "is_ai": false,
      "track_id": 0,
      "velocity": 0,
      "is_motor": true,
      "motor_id": 1,
      "accel_val": 2000,
      "base_duration_us": 254236
    },
    {
      "id": "M_2316",
      "pitch": 67,
      "t_note_us": 233651602,
      "t_trigger_us": 233515639,
      "is_ai": false,
      "track_id": 0,
      "velocity": 0,
      "is_motor": true,
      "motor_id": 2,
      "accel_val": 2000,
      "base_duration_us": 254236
    },
    {
      "id": "M_2317",
      "pitch": 62,
      "t_note_us": 233811824,
      "t_trigger_us": 233675861,
      "is_ai": false,
      "track_id": 0,
      "velocity": 0,
      "is_motor": true,
      "motor_id": 0,
      "accel_val": 2000,
      "base_duration_us": 127117
    },
    {
      "id": "M_2318",
      "pitch": 65,
      "t_note_us": 233896569,
      "t_trigger_us": 233760606,
      "is_ai": false,
      "track_id": 0,
      "velocity": 0,
      "is_motor": true,
      "motor_id": 3,
      "accel_val": 2000,
      "base_duration_us": 127117
    },
    {
      "id": "M_2321",
      "pitch": 71,
      "t_note_us": 233905838,
      "t_trigger_us": 233769875,
      "is_ai": false,
      "track_id": 0,
      "velocity": 0,
      "is_motor": true,
      "motor_id": 1,
      "accel_val": 2000,
      "base_duration_us": 508470
    },
    {
      "id": "M_2322",
      "pitch": 67,
      "t_note_us": 233905838,
      "t_trigger_us": 233769875,
      "is_ai": false,
      "track_id": 0,
      "velocity": 0,
      "is_motor": true,
      "motor_id": 2,
      "accel_val": 2000,
      "base_duration_us": 508470
    },
    {
      "id": "M_2319",
      "pitch": 71,
      "t_note_us": 234066058,
      "t_trigger_us": 233930095,
      "is_ai": false,
      "track_id": 0,
      "velocity": 0,
      "is_motor": true,
      "motor_id": 0,
      "accel_val": 2000,
      "base_duration_us": 127117
    },
    {
      "id": "M_2320",
      "pitch": 55,
      "t_note_us": 234150803,
      "t_trigger_us": 234014840,
      "is_ai": false,
      "track_id": 0,
      "velocity": 0,
      "is_motor": true,
      "motor_id": 3,
      "accel_val": 2000,
      "base_duration_us": 254236
    },
    {
      "id": "M_2323",
      "pitch": 48,
      "t_note_us": 234405039,
      "t_trigger_us": 234269076,
      "is_ai": false,
      "track_id": 0,
      "velocity": 0,
      "is_motor": true,
      "motor_id": 0,
      "accel_val": 2000,
      "base_duration_us": 127118
    },
    {
      "id": "M_2324",
      "pitch": 64,
      "t_note_us": 234574529,
      "t_trigger_us": 234438566,
      "is_ai": false,
      "track_id": 0,
      "velocity": 0,
      "is_motor": true,
      "motor_id": 1,
      "accel_val": 2000,
      "base_duration_us": 254236
    },
    {
      "id": "M_2325",
      "pitch": 60,
      "t_note_us": 234574529,
      "t_trigger_us": 234438566,
      "is_ai": false,
      "track_id": 0,
      "velocity": 0,
      "is_motor": true,
      "motor_id": 0,
      "accel_val": 2000,
      "base_duration_us": 254236
    },
    {
      "id": "M_2326",
      "pitch": 67,
      "t_note_us": 234668543,
      "t_trigger_us": 234532580,
      "is_ai": false,
      "track_id": 0,
      "velocity": 0,
      "is_motor": true,
      "motor_id": 2,
      "accel_val": 2000,
      "base_duration_us": 254236
    },
    {
      "id": "M_2327",
      "pitch": 76,
      "t_note_us": 234668543,
      "t_trigger_us": 234532580,
      "is_ai": false,
      "track_id": 0,
      "velocity": 0,
      "is_motor": true,
      "motor_id": 3,
      "accel_val": 2000,
      "base_duration_us": 254236
    },
    {
      "id": "M_2328",
      "pitch": 55,
      "t_note_us": 234828765,
      "t_trigger_us": 234692802,
      "is_ai": false,
      "track_id": 0,
      "velocity": 0,
      "is_motor": true,
      "motor_id": 0,
      "accel_val": 2000,
      "base_duration_us": 127117
    },
    {
      "id": "M_2329",
      "pitch": 60,
      "t_note_us": 234913510,
      "t_trigger_us": 234777547,
      "is_ai": false,
      "track_id": 0,
      "velocity": 0,
      "is_motor": true,
      "motor_id": 1,
      "accel_val": 2000,
      "base_duration_us": 127117
    },
    {
      "id": "M_2332",
      "pitch": 74,
      "t_note_us": 234922779,
      "t_trigger_us": 234786816,
      "is_ai": false,
      "track_id": 0,
      "velocity": 0,
      "is_motor": true,
      "motor_id": 2,
      "accel_val": 2000,
      "base_duration_us": 508470
    },
    {
      "id": "M_2333",
      "pitch": 67,
      "t_note_us": 234922779,
      "t_trigger_us": 234786816,
      "is_ai": false,
      "track_id": 0,
      "velocity": 0,
      "is_motor": true,
      "motor_id": 3,
      "accel_val": 2000,
      "base_duration_us": 508470
    },
    {
      "id": "M_2330",
      "pitch": 64,
      "t_note_us": 235082999,
      "t_trigger_us": 234947036,
      "is_ai": false,
      "track_id": 0,
      "velocity": 0,
      "is_motor": true,
      "motor_id": 1,
      "accel_val": 2000,
      "base_duration_us": 127117
    },
    {
      "id": "M_2331",
      "pitch": 48,
      "t_note_us": 235167744,
      "t_trigger_us": 235031781,
      "is_ai": false,
      "track_id": 0,
      "velocity": 0,
      "is_motor": true,
      "motor_id": 0,
      "accel_val": 2000,
      "base_duration_us": 254236
    },
    {
      "id": "M_2334",
      "pitch": 54,
      "t_note_us": 235421980,
      "t_trigger_us": 235286017,
      "is_ai": false,
      "track_id": 0,
      "velocity": 0,
      "is_motor": true,
      "motor_id": 0,
      "accel_val": 2000,
      "base_duration_us": 127118
    },
    {
      "id": "M_2335",
      "pitch": 96,
      "t_note_us": 235431249,
      "t_trigger_us": 235295286,
      "is_ai": true,
      "track_id": 10,
      "velocity": 0,
      "is_motor": true,
      "motor_id": 3,
      "accel_val": 2000,
      "base_duration_us": 254235
    },
    {
      "id": "M_2336",
      "pitch": 78,
      "t_note_us": 235431249,
      "t_trigger_us": 235295286,
      "is_ai": false,
      "track_id": 0,
      "velocity": 0,
      "is_motor": true,
      "motor_id": 2,
      "accel_val": 2000,
      "base_duration_us": 254235
    },
    {
      "id": "M_2337",
      "pitch": 69,
      "t_note_us": 235591470,
      "t_trigger_us": 235455507,
      "is_ai": false,
      "track_id": 0,
      "velocity": 0,
      "is_motor": true,
      "motor_id": 1,
      "accel_val": 2000,
      "base_duration_us": 254236
    },
    {
      "id": "M_2338",
      "pitch": 66,
      "t_note_us": 235591470,
      "t_trigger_us": 235455507,
      "is_ai": false,
      "track_id": 0,
      "velocity": 0,
      "is_motor": true,
      "motor_id": 0,
      "accel_val": 2000,
      "base_duration_us": 254236
    },
    {
      "id": "M_2339",
      "pitch": 71,
      "t_note_us": 235685484,
      "t_trigger_us": 235549521,
      "is_ai": false,
      "track_id": 0,
      "velocity": 0,
      "is_motor": true,
      "motor_id": 2,
      "accel_val": 2000,
      "base_duration_us": 254236
    },
    {
      "id": "M_2340",
      "pitch": 78,
      "t_note_us": 235685484,
      "t_trigger_us": 235549521,
      "is_ai": false,
      "track_id": 0,
      "velocity": 0,
      "is_motor": true,
      "motor_id": 3,
      "accel_val": 2000,
      "base_duration_us": 254236
    },
    {
      "id": "M_2341",
      "pitch": 59,
      "t_note_us": 235845706,
      "t_trigger_us": 235709743,
      "is_ai": false,
      "track_id": 0,
      "velocity": 0,
      "is_motor": true,
      "motor_id": 0,
      "accel_val": 2000,
      "base_duration_us": 127117
    },
    {
      "id": "M_2342",
      "pitch": 66,
      "t_note_us": 235930451,
      "t_trigger_us": 235794488,
      "is_ai": false,
      "track_id": 0,
      "velocity": 0,
      "is_motor": true,
      "motor_id": 1,
      "accel_val": 2000,
      "base_duration_us": 127117
    },
    {
      "id": "M_2343",
      "pitch": 71,
      "t_note_us": 235939720,
      "t_trigger_us": 235803757,
      "is_ai": false,
      "track_id": 0,
      "velocity": 0,
      "is_motor": true,
      "motor_id": 2,
      "accel_val": 2000,
      "base_duration_us": 254234
    },
    {
      "id": "M_2344",
      "pitch": 78,
      "t_note_us": 235939720,
      "t_trigger_us": 235803757,
      "is_ai": false,
      "track_id": 0,
      "velocity": 0,
      "is_motor": true,
      "motor_id": 3,
      "accel_val": 2000,
      "base_duration_us": 254234
    },
    {
      "id": "M_2345",
      "pitch": 69,
      "t_note_us": 236099940,
      "t_trigger_us": 235963977,
      "is_ai": false,
      "track_id": 0,
      "velocity": 0,
      "is_motor": true,
      "motor_id": 1,
      "accel_val": 2000,
      "base_duration_us": 127117
    },
    {
      "id": "M_2346",
      "pitch": 54,
      "t_note_us": 236184685,
      "t_trigger_us": 236048722,
      "is_ai": false,
      "track_id": 0,
      "velocity": 0,
      "is_motor": true,
      "motor_id": 0,
      "accel_val": 2000,
      "base_duration_us": 254236
    },
    {
      "id": "M_2347",
      "pitch": 69,
      "t_note_us": 236193954,
      "t_trigger_us": 236057991,
      "is_ai": false,
      "track_id": 0,
      "velocity": 0,
      "is_motor": true,
      "motor_id": 2,
      "accel_val": 2000,
      "base_duration_us": 254236
    },
    {
      "id": "M_2348",
      "pitch": 78,
      "t_note_us": 236193954,
      "t_trigger_us": 236057991,
      "is_ai": false,
      "track_id": 0,
      "velocity": 0,
      "is_motor": true,
      "motor_id": 3,
      "accel_val": 2000,
      "base_duration_us": 254236
    },
    {
      "id": "M_2349",
      "pitch": 52,
      "t_note_us": 236438921,
      "t_trigger_us": 236302958,
      "is_ai": false,
      "track_id": 0,
      "velocity": 0,
      "is_motor": true,
      "motor_id": 0,
      "accel_val": 2000,
      "base_duration_us": 127118
    },
    {
      "id": "M_2350",
      "pitch": 76,
      "t_note_us": 236448190,
      "t_trigger_us": 236312227,
      "is_ai": false,
      "track_id": 0,
      "velocity": 0,
      "is_motor": true,
      "motor_id": 2,
      "accel_val": 2000,
      "base_duration_us": 254235
    },
    {
      "id": "M_2351",
      "pitch": 71,
      "t_note_us": 236448190,
      "t_trigger_us": 236312227,
      "is_ai": false,
      "track_id": 0,
      "velocity": 0,
      "is_motor": true,
      "motor_id": 1,
      "accel_val": 2000,
      "base_duration_us": 254235
    },
    {
      "id": "M_2352",
      "pitch": 67,
      "t_note_us": 236608411,
      "t_trigger_us": 236472448,
      "is_ai": false,
      "track_id": 0,
      "velocity": 0,
      "is_motor": true,
      "motor_id": 0,
      "accel_val": 2000,
      "base_duration_us": 254236
    },
    {
      "id": "M_2353",
      "pitch": 64,
      "t_note_us": 236608411,
      "t_trigger_us": 236472448,
      "is_ai": false,
      "track_id": 0,
      "velocity": 0,
      "is_motor": true,
      "motor_id": 3,
      "accel_val": 2000,
      "base_duration_us": 254236
    },
    {
      "id": "M_2354",
      "pitch": 67,
      "t_note_us": 236702425,
      "t_trigger_us": 236566462,
      "is_ai": false,
      "track_id": 0,
      "velocity": 0,
      "is_motor": true,
      "motor_id": 1,
      "accel_val": 2000,
      "base_duration_us": 254236
    },
    {
      "id": "M_2355",
      "pitch": 76,
      "t_note_us": 236702425,
      "t_trigger_us": 236566462,
      "is_ai": false,
      "track_id": 0,
      "velocity": 0,
      "is_motor": true,
      "motor_id": 2,
      "accel_val": 2000,
      "base_duration_us": 254236
    },
    {
      "id": "M_2356",
      "pitch": 59,
      "t_note_us": 236862647,
      "t_trigger_us": 236726684,
      "is_ai": false,
      "track_id": 0,
      "velocity": 0,
      "is_motor": true,
      "motor_id": 0,
      "accel_val": 2000,
      "base_duration_us": 127117
    },
    {
      "id": "M_2357",
      "pitch": 64,
      "t_note_us": 236947392,
      "t_trigger_us": 236811429,
      "is_ai": false,
      "track_id": 0,
      "velocity": 0,
      "is_motor": true,
      "motor_id": 3,
      "accel_val": 2000,
      "base_duration_us": 127117
    },
    {
      "id": "M_2358",
      "pitch": 67,
      "t_note_us": 236956661,
      "t_trigger_us": 236820698,
      "is_ai": false,
      "track_id": 0,
      "velocity": 0,
      "is_motor": true,
      "motor_id": 1,
      "accel_val": 2000,
      "base_duration_us": 254234
    },
    {
      "id": "M_2359",
      "pitch": 74,
      "t_note_us": 236956661,
      "t_trigger_us": 236820698,
      "is_ai": false,
      "track_id": 0,
      "velocity": 0,
      "is_motor": true,
      "motor_id": 2,
      "accel_val": 2000,
      "base_duration_us": 254234
    },
    {
      "id": "M_2360",
      "pitch": 67,
      "t_note_us": 237116881,
      "t_trigger_us": 236980918,
      "is_ai": false,
      "track_id": 0,
      "velocity": 0,
      "is_motor": true,
      "motor_id": 0,
      "accel_val": 2000,
      "base_duration_us": 127117
    },
    {
      "id": "M_2361",
      "pitch": 59,
      "t_note_us": 237201626,
      "t_trigger_us": 237065663,
      "is_ai": false,
      "track_id": 0,
      "velocity": 0,
      "is_motor": true,
      "motor_id": 3,
      "accel_val": 2000,
      "base_duration_us": 254236
    },
    {
      "id": "M_2362",
      "pitch": 67,
      "t_note_us": 237210895,
      "t_trigger_us": 237074932,
      "is_ai": false,
      "track_id": 0,
      "velocity": 0,
      "is_motor": true,
      "motor_id": 1,
      "accel_val": 2000,
      "base_duration_us": 254236
    },
    {
      "id": "M_2363",
      "pitch": 72,
      "t_note_us": 237210895,
      "t_trigger_us": 237074932,
      "is_ai": false,
      "track_id": 0,
      "velocity": 0,
      "is_motor": true,
      "motor_id": 2,
      "accel_val": 2000,
      "base_duration_us": 254236
    },
    {
      "id": "M_2364",
      "pitch": 62,
      "t_note_us": 237455862,
      "t_trigger_us": 237319899,
      "is_ai": false,
      "track_id": 0,
      "velocity": 0,
      "is_motor": true,
      "motor_id": 0,
      "accel_val": 2000,
      "base_duration_us": 127118
    },
    {
      "id": "M_2365",
      "pitch": 72,
      "t_note_us": 237465131,
      "t_trigger_us": 237329168,
      "is_ai": false,
      "track_id": 0,
      "velocity": 0,
      "is_motor": true,
      "motor_id": 1,
      "accel_val": 2000,
      "base_duration_us": 254235
    },
    {
      "id": "M_2366",
      "pitch": 67,
      "t_note_us": 237710097,
      "t_trigger_us": 237574134,
      "is_ai": false,
      "track_id": 0,
      "velocity": 0,
      "is_motor": true,
      "motor_id": 2,
      "accel_val": 2000,
      "base_duration_us": 42372
    },
    {
      "id": "M_2367",
      "pitch": 71,
      "t_note_us": 237719366,
      "t_trigger_us": 237583403,
      "is_ai": false,
      "track_id": 0,
      "velocity": 0,
      "is_motor": true,
      "motor_id": 1,
      "accel_val": 2000,
      "base_duration_us": 254236
    },
    {
      "id": "M_2368",
      "pitch": 62,
      "t_note_us": 237964333,
      "t_trigger_us": 237828370,
      "is_ai": false,
      "track_id": 0,
      "velocity": 0,
      "is_motor": true,
      "motor_id": 0,
      "accel_val": 2000,
      "base_duration_us": 254236
    },
    {
      "id": "M_2369",
      "pitch": 71,
      "t_note_us": 237973602,
      "t_trigger_us": 237837639,
      "is_ai": false,
      "track_id": 0,
      "velocity": 0,
      "is_motor": true,
      "motor_id": 1,
      "accel_val": 2000,
      "base_duration_us": 254236
    },
    {
      "id": "M_2370",
      "pitch": 59,
      "t_note_us": 238218569,
      "t_trigger_us": 238082606,
      "is_ai": false,
      "track_id": 0,
      "velocity": 0,
      "is_motor": true,
      "motor_id": 0,
      "accel_val": 2000,
      "base_duration_us": 254236
    },
    {
      "id": "M_2371",
      "pitch": 72,
      "t_note_us": 238227838,
      "t_trigger_us": 238091875,
      "is_ai": false,
      "track_id": 0,
      "velocity": 0,
      "is_motor": true,
      "motor_id": 1,
      "accel_val": 2000,
      "base_duration_us": 254236
    },
    {
      "id": "M_2372",
      "pitch": 48,
      "t_note_us": 238472805,
      "t_trigger_us": 238336842,
      "is_ai": false,
      "track_id": 0,
      "velocity": 0,
      "is_motor": true,
      "motor_id": 0,
      "accel_val": 2000,
      "base_duration_us": 127118
    },
    {
      "id": "M_2393",
      "pitch": 71,
      "t_note_us": 238482074,
      "t_trigger_us": 238346111,
      "is_ai": false,
      "track_id": 0,
      "velocity": 0,
      "is_motor": true,
      "motor_id": 1,
      "accel_val": 2000,
      "base_duration_us": 2033879
    },
    {
      "id": "M_2373",
      "pitch": 64,
      "t_note_us": 238642295,
      "t_trigger_us": 238506332,
      "is_ai": false,
      "track_id": 0,
      "velocity": 0,
      "is_motor": true,
      "motor_id": 0,
      "accel_val": 2000,
      "base_duration_us": 254237
    },
    {
      "id": "M_2374",
      "pitch": 60,
      "t_note_us": 238642295,
      "t_trigger_us": 238506332,
      "is_ai": false,
      "track_id": 0,
      "velocity": 0,
      "is_motor": true,
      "motor_id": 2,
      "accel_val": 2000,
      "base_duration_us": 254237
    },
    {
      "id": "M_2375",
      "pitch": 55,
      "t_note_us": 238896532,
      "t_trigger_us": 238760569,
      "is_ai": false,
      "track_id": 0,
      "velocity": 0,
      "is_motor": true,
      "motor_id": 0,
      "accel_val": 2000,
      "base_duration_us": 127117
    },
    {
      "id": "M_2376",
      "pitch": 60,
      "t_note_us": 238981277,
      "t_trigger_us": 238845314,
      "is_ai": false,
      "track_id": 0,
      "velocity": 0,
      "is_motor": true,
      "motor_id": 2,
      "accel_val": 2000,
      "base_duration_us": 127117
    },
    {
      "id": "M_2377",
      "pitch": 74,
      "t_note_us": 238990546,
      "t_trigger_us": 238854583,
      "is_ai": false,
      "track_id": 0,
      "velocity": 0,
      "is_motor": true,
      "motor_id": 3,
      "accel_val": 2000,
      "base_duration_us": 127117
    },
    {
      "id": "M_2378",
      "pitch": 64,
      "t_note_us": 239150766,
      "t_trigger_us": 239014803,
      "is_ai": false,
      "track_id": 0,
      "velocity": 0,
      "is_motor": true,
      "motor_id": 0,
      "accel_val": 2000,
      "base_duration_us": 127117
    },
    {
      "id": "M_2379",
      "pitch": 72,
      "t_note_us": 239160035,
      "t_trigger_us": 239024072,
      "is_ai": false,
      "track_id": 0,
      "velocity": 0,
      "is_motor": true,
      "motor_id": 2,
      "accel_val": 2000,
      "base_duration_us": 127117
    },
    {
      "id": "M_2381",
      "pitch": 48,
      "t_note_us": 239235511,
      "t_trigger_us": 239099548,
      "is_ai": false,
      "track_id": 0,
      "velocity": 0,
      "is_motor": true,
      "motor_id": 3,
      "accel_val": 2000,
      "base_duration_us": 254234
    },
    {
      "id": "M_2380",
      "pitch": 71,
      "t_note_us": 239244780,
      "t_trigger_us": 239108817,
      "is_ai": false,
      "track_id": 0,
      "velocity": 0,
      "is_motor": true,
      "motor_id": 0,
      "accel_val": 2000,
      "base_duration_us": 127117
    },
    {
      "id": "M_2382",
      "pitch": 69,
      "t_note_us": 239414269,
      "t_trigger_us": 239278306,
      "is_ai": false,
      "track_id": 0,
      "velocity": 0,
      "is_motor": true,
      "motor_id": 2,
      "accel_val": 2000,
      "base_duration_us": 127117
    },
    {
      "id": "M_2383",
      "pitch": 47,
      "t_note_us": 239489745,
      "t_trigger_us": 239353782,
      "is_ai": false,
      "track_id": 0,
      "velocity": 0,
      "is_motor": true,
      "motor_id": 0,
      "accel_val": 2000,
      "base_duration_us": 127117
    },
    {
      "id": "M_2384",
      "pitch": 63,
      "t_note_us": 239659234,
      "t_trigger_us": 239523271,
      "is_ai": false,
      "track_id": 0,
      "velocity": 0,
      "is_motor": true,
      "motor_id": 0,
      "accel_val": 2000,
      "base_duration_us": 254237
    },
    {
      "id": "M_2385",
      "pitch": 59,
      "t_note_us": 239659234,
      "t_trigger_us": 239523271,
      "is_ai": false,
      "track_id": 0,
      "velocity": 0,
      "is_motor": true,
      "motor_id": 2,
      "accel_val": 2000,
      "base_duration_us": 254237
    },
    {
      "id": "M_2386",
      "pitch": 54,
      "t_note_us": 239913471,
      "t_trigger_us": 239777508,
      "is_ai": false,
      "track_id": 0,
      "velocity": 0,
      "is_motor": true,
      "motor_id": 0,
      "accel_val": 2000,
      "base_duration_us": 127117
    },
    {
      "id": "M_2387",
      "pitch": 59,
      "t_note_us": 239998216,
      "t_trigger_us": 239862253,
      "is_ai": false,
      "track_id": 0,
      "velocity": 0,
      "is_motor": true,
      "motor_id": 2,
      "accel_val": 2000,
      "base_duration_us": 127117
    },
    {
      "id": "M_2388",
      "pitch": 67,
      "t_note_us": 240007485,
      "t_trigger_us": 239871522,
      "is_ai": false,
      "track_id": 0,
      "velocity": 0,
      "is_motor": true,
      "motor_id": 3,
      "accel_val": 2000,
      "base_duration_us": 127117
    },
    {
      "id": "M_2389",
      "pitch": 63,
      "t_note_us": 240167705,
      "t_trigger_us": 240031742,
      "is_ai": false,
      "track_id": 0,
      "velocity": 0,
      "is_motor": true,
      "motor_id": 0,
      "accel_val": 2000,
      "base_duration_us": 127117
    },
    {
      "id": "M_2390",
      "pitch": 68,
      "t_note_us": 240176974,
      "t_trigger_us": 240041011,
      "is_ai": false,
      "track_id": 0,
      "velocity": 0,
      "is_motor": true,
      "motor_id": 2,
      "accel_val": 2000,
      "base_duration_us": 127117
    },
    {
      "id": "M_2392",
      "pitch": 47,
      "t_note_us": 240252450,
      "t_trigger_us": 240116487,
      "is_ai": false,
      "track_id": 0,
      "velocity": 0,
      "is_motor": true,
      "motor_id": 3,
      "accel_val": 2000,
      "base_duration_us": 254234
    },
    {
      "id": "M_2391",
      "pitch": 69,
      "t_note_us": 240261719,
      "t_trigger_us": 240125756,
      "is_ai": false,
      "track_id": 0,
      "velocity": 0,
      "is_motor": true,
      "motor_id": 0,
      "accel_val": 2000,
      "base_duration_us": 127117
    },
    {
      "id": "M_2394",
      "pitch": 71,
      "t_note_us": 240431208,
      "t_trigger_us": 240295245,
      "is_ai": false,
      "track_id": 0,
      "velocity": 0,
      "is_motor": true,
      "motor_id": 2,
      "accel_val": 2000,
      "base_duration_us": 127117
    },
    {
      "id": "M_2395",
      "pitch": 52,
      "t_note_us": 240506684,
      "t_trigger_us": 240370721,
      "is_ai": false,
      "track_id": 0,
      "velocity": 0,
      "is_motor": true,
      "motor_id": 0,
      "accel_val": 2000,
      "base_duration_us": 127117
    },
    {
      "id": "M_2396",
      "pitch": 67,
      "t_note_us": 240676173,
      "t_trigger_us": 240540210,
      "is_ai": false,
      "track_id": 0,
      "velocity": 0,
      "is_motor": true,
      "motor_id": 1,
      "accel_val": 2000,
      "base_duration_us": 254237
    },
    {
      "id": "M_2397",
      "pitch": 64,
      "t_note_us": 240676173,
      "t_trigger_us": 240540210,
      "is_ai": false,
      "track_id": 0,
      "velocity": 0,
      "is_motor": true,
      "motor_id": 0,
      "accel_val": 2000,
      "base_duration_us": 254237
    },
    {
      "id": "M_2398",
      "pitch": 59,
      "t_note_us": 240930410,
      "t_trigger_us": 240794447,
      "is_ai": false,
      "track_id": 0,
      "velocity": 0,
      "is_motor": true,
      "motor_id": 0,
      "accel_val": 2000,
      "base_duration_us": 127117
    },
    {
      "id": "M_2399",
      "pitch": 64,
      "t_note_us": 241015155,
      "t_trigger_us": 240879192,
      "is_ai": false,
      "track_id": 0,
      "velocity": 0,
      "is_motor": true,
      "motor_id": 1,
      "accel_val": 2000,
      "base_duration_us": 127117
    },
    {
      "id": "M_2400",
      "pitch": 71,
      "t_note_us": 241024424,
      "t_trigger_us": 240888461,
      "is_ai": false,
      "track_id": 0,
      "velocity": 0,
      "is_motor": true,
      "motor_id": 2,
      "accel_val": 2000,
      "base_duration_us": 127117
    },
    {
      "id": "M_2401",
      "pitch": 67,
      "t_note_us": 241184644,
      "t_trigger_us": 241048681,
      "is_ai": false,
      "track_id": 0,
      "velocity": 0,
      "is_motor": true,
      "motor_id": 1,
      "accel_val": 2000,
      "base_duration_us": 127117
    },
    {
      "id": "M_2402",
      "pitch": 69,
      "t_note_us": 241193913,
      "t_trigger_us": 241057950,
      "is_ai": false,
      "track_id": 0,
      "velocity": 0,
      "is_motor": true,
      "motor_id": 2,
      "accel_val": 2000,
      "base_duration_us": 127117
    },
    {
      "id": "M_2404",
      "pitch": 52,
      "t_note_us": 241269389,
      "t_trigger_us": 241133426,
      "is_ai": false,
      "track_id": 0,
      "velocity": 0,
      "is_motor": true,
      "motor_id": 0,
      "accel_val": 2000,
      "base_duration_us": 254234
    },
    {
      "id": "M_2403",
      "pitch": 72,
      "t_note_us": 241278658,
      "t_trigger_us": 241142695,
      "is_ai": false,
      "track_id": 0,
      "velocity": 0,
      "is_motor": true,
      "motor_id": 3,
      "accel_val": 2000,
      "base_duration_us": 127117
    },
    {
      "id": "M_2405",
      "pitch": 71,
      "t_note_us": 241448147,
      "t_trigger_us": 241312184,
      "is_ai": false,
      "track_id": 0,
      "velocity": 0,
      "is_motor": true,
      "motor_id": 1,
      "accel_val": 2000,
      "base_duration_us": 127117
    },
    {
      "id": "M_2406",
      "pitch": 55,
      "t_note_us": 241523623,
      "t_trigger_us": 241387660,
      "is_ai": false,
      "track_id": 0,
      "velocity": 0,
      "is_motor": true,
      "motor_id": 0,
      "accel_val": 2000,
      "base_duration_us": 127117
    },
    {
      "id": "M_2407",
      "pitch": 65,
      "t_note_us": 241693112,
      "t_trigger_us": 241557149,
      "is_ai": false,
      "track_id": 0,
      "velocity": 0,
      "is_motor": true,
      "motor_id": 1,
      "accel_val": 2000,
      "base_duration_us": 254237
    },
    {
      "id": "M_2408",
      "pitch": 71,
      "t_note_us": 241693112,
      "t_trigger_us": 241557149,
      "is_ai": false,
      "track_id": 0,
      "velocity": 0,
      "is_motor": true,
      "motor_id": 2,
      "accel_val": 2000,
      "base_duration_us": 254237
    },
    {
      "id": "M_2409",
      "pitch": 62,
      "t_note_us": 241947349,
      "t_trigger_us": 241811386,
      "is_ai": false,
      "track_id": 0,
      "velocity": 0,
      "is_motor": true,
      "motor_id": 1,
      "accel_val": 2000,
      "base_duration_us": 127117
    },
    {
      "id": "M_2410",
      "pitch": 71,
      "t_note_us": 241956618,
      "t_trigger_us": 241820655,
      "is_ai": false,
      "track_id": 0,
      "velocity": 0,
      "is_motor": true,
      "motor_id": 2,
      "accel_val": 2000,
      "base_duration_us": 127117
    },
    {
      "id": "M_2411",
      "pitch": 65,
      "t_note_us": 242032094,
      "t_trigger_us": 241896131,
      "is_ai": false,
      "track_id": 0,
      "velocity": 0,
      "is_motor": true,
      "motor_id": 0,
      "accel_val": 2000,
      "base_duration_us": 127117
    },
    {
      "id": "M_2412",
      "pitch": 69,
      "t_note_us": 242041363,
      "t_trigger_us": 241905400,
      "is_ai": false,
      "track_id": 0,
      "velocity": 0,
      "is_motor": true,
      "motor_id": 3,
      "accel_val": 2000,
      "base_duration_us": 127117
    },
    {
      "id": "M_2413",
      "pitch": 71,
      "t_note_us": 242201583,
      "t_trigger_us": 242065620,
      "is_ai": false,
      "track_id": 0,
      "velocity": 0,
      "is_motor": true,
      "motor_id": 1,
      "accel_val": 2000,
      "base_duration_us": 127117
    },
    {
      "id": "M_2414",
      "pitch": 67,
      "t_note_us": 242210852,
      "t_trigger_us": 242074889,
      "is_ai": false,
      "track_id": 0,
      "velocity": 0,
      "is_motor": true,
      "motor_id": 2,
      "accel_val": 2000,
      "base_duration_us": 127117
    },
    {
      "id": "M_2416",
      "pitch": 55,
      "t_note_us": 242286328,
      "t_trigger_us": 242150365,
      "is_ai": false,
      "track_id": 0,
      "velocity": 0,
      "is_motor": true,
      "motor_id": 0,
      "accel_val": 2000,
      "base_duration_us": 254234
    },
    {
      "id": "M_2415",
      "pitch": 78,
      "t_note_us": 242295597,
      "t_trigger_us": 242159634,
      "is_ai": false,
      "track_id": 0,
      "velocity": 0,
      "is_motor": true,
      "motor_id": 3,
      "accel_val": 2000,
      "base_duration_us": 127117
    },
    {
      "id": "M_2417",
      "pitch": 67,
      "t_note_us": 242465086,
      "t_trigger_us": 242329123,
      "is_ai": false,
      "track_id": 0,
      "velocity": 0,
      "is_motor": true,
      "motor_id": 1,
      "accel_val": 2000,
      "base_duration_us": 127117
    },
    {
      "id": "M_2418",
      "pitch": 48,
      "t_note_us": 242540562,
      "t_trigger_us": 242404599,
      "is_ai": false,
      "track_id": 0,
      "velocity": 0,
      "is_motor": true,
      "motor_id": 0,
      "accel_val": 2000,
      "base_duration_us": 127117
    },
    {
      "id": "M_2419",
      "pitch": 64,
      "t_note_us": 242710051,
      "t_trigger_us": 242574088,
      "is_ai": false,
      "track_id": 0,
      "velocity": 0,
      "is_motor": true,
      "motor_id": 1,
      "accel_val": 2000,
      "base_duration_us": 254237
    },
    {
      "id": "M_2420",
      "pitch": 60,
      "t_note_us": 242710051,
      "t_trigger_us": 242574088,
      "is_ai": false,
      "track_id": 0,
      "velocity": 0,
      "is_motor": true,
      "motor_id": 0,
      "accel_val": 2000,
      "base_duration_us": 254237
    },
    {
      "id": "M_2421",
      "pitch": 55,
      "t_note_us": 242964288,
      "t_trigger_us": 242828325,
      "is_ai": false,
      "track_id": 0,
      "velocity": 0,
      "is_motor": true,
      "motor_id": 0,
      "accel_val": 2000,
      "base_duration_us": 127117
    },
    {
      "id": "M_2422",
      "pitch": 60,
      "t_note_us": 243049033,
      "t_trigger_us": 242913070,
      "is_ai": false,
      "track_id": 0,
      "velocity": 0,
      "is_motor": true,
      "motor_id": 1,
      "accel_val": 2000,
      "base_duration_us": 127117
    },
    {
      "id": "M_2423",
      "pitch": 74,
      "t_note_us": 243058302,
      "t_trigger_us": 242922339,
      "is_ai": false,
      "track_id": 0,
      "velocity": 0,
      "is_motor": true,
      "motor_id": 2,
      "accel_val": 2000,
      "base_duration_us": 127117
    },
    {
      "id": "M_2424",
      "pitch": 64,
      "t_note_us": 243218522,
      "t_trigger_us": 243082559,
      "is_ai": false,
      "track_id": 0,
      "velocity": 0,
      "is_motor": true,
      "motor_id": 1,
      "accel_val": 2000,
      "base_duration_us": 127117
    },
    {
      "id": "M_2425",
      "pitch": 72,
      "t_note_us": 243227791,
      "t_trigger_us": 243091828,
      "is_ai": false,
      "track_id": 0,
      "velocity": 0,
      "is_motor": true,
      "motor_id": 0,
      "accel_val": 2000,
      "base_duration_us": 127117
    },
    {
      "id": "M_2427",
      "pitch": 48,
      "t_note_us": 243303267,
      "t_trigger_us": 243167304,
      "is_ai": false,
      "track_id": 0,
      "velocity": 0,
      "is_motor": true,
      "motor_id": 2,
      "accel_val": 2000,
      "base_duration_us": 254234
    },
    {
      "id": "M_2426",
      "pitch": 71,
      "t_note_us": 243312536,
      "t_trigger_us": 243176573,
      "is_ai": false,
      "track_id": 0,
      "velocity": 0,
      "is_motor": true,
      "motor_id": 3,
      "accel_val": 2000,
      "base_duration_us": 127117
    },
    {
      "id": "M_2428",
      "pitch": 69,
      "t_note_us": 243482025,
      "t_trigger_us": 243346062,
      "is_ai": false,
      "track_id": 0,
      "velocity": 0,
      "is_motor": true,
      "motor_id": 1,
      "accel_val": 2000,
      "base_duration_us": 127117
    },
    {
      "id": "M_2429",
      "pitch": 54,
      "t_note_us": 243557501,
      "t_trigger_us": 243421538,
      "is_ai": false,
      "track_id": 0,
      "velocity": 0,
      "is_motor": true,
      "motor_id": 0,
      "accel_val": 2000,
      "base_duration_us": 127117
    },
    {
      "id": "M_2430",
      "pitch": 69,
      "t_note_us": 243726990,
      "t_trigger_us": 243591027,
      "is_ai": false,
      "track_id": 0,
      "velocity": 0,
      "is_motor": true,
      "motor_id": 1,
      "accel_val": 2000,
      "base_duration_us": 254237
    },
    {
      "id": "M_2431",
      "pitch": 66,
      "t_note_us": 243726990,
      "t_trigger_us": 243591027,
      "is_ai": false,
      "track_id": 0,
      "velocity": 0,
      "is_motor": true,
      "motor_id": 2,
      "accel_val": 2000,
      "base_duration_us": 254237
    },
    {
      "id": "M_2432",
      "pitch": 59,
      "t_note_us": 243981227,
      "t_trigger_us": 243845264,
      "is_ai": false,
      "track_id": 0,
      "velocity": 0,
      "is_motor": true,
      "motor_id": 0,
      "accel_val": 2000,
      "base_duration_us": 127117
    },
    {
      "id": "M_2433",
      "pitch": 66,
      "t_note_us": 244065972,
      "t_trigger_us": 243930009,
      "is_ai": false,
      "track_id": 0,
      "velocity": 0,
      "is_motor": true,
      "motor_id": 1,
      "accel_val": 2000,
      "base_duration_us": 127117
    },
    {
      "id": "M_2434",
      "pitch": 67,
      "t_note_us": 244075241,
      "t_trigger_us": 243939278,
      "is_ai": false,
      "track_id": 0,
      "velocity": 0,
      "is_motor": true,
      "motor_id": 2,
      "accel_val": 2000,
      "base_duration_us": 127117
    },
    {
      "id": "M_2435",
      "pitch": 69,
      "t_note_us": 244235461,
      "t_trigger_us": 244099498,
      "is_ai": false,
      "track_id": 0,
      "velocity": 0,
      "is_motor": true,
      "motor_id": 1,
      "accel_val": 2000,
      "base_duration_us": 127117
    },
    {
      "id": "M_2436",
      "pitch": 68,
      "t_note_us": 244244730,
      "t_trigger_us": 244108767,
      "is_ai": false,
      "track_id": 0,
      "velocity": 0,
      "is_motor": true,
      "motor_id": 2,
      "accel_val": 2000,
      "base_duration_us": 127117
    },
    {
      "id": "M_2438",
      "pitch": 54,
      "t_note_us": 244320206,
      "t_trigger_us": 244184243,
      "is_ai": false,
      "track_id": 0,
      "velocity": 0,
      "is_motor": true,
      "motor_id": 0,
      "accel_val": 2000,
      "base_duration_us": 254234
    },
    {
      "id": "M_2437",
      "pitch": 69,
      "t_note_us": 244329475,
      "t_trigger_us": 244193512,
      "is_ai": false,
      "track_id": 0,
      "velocity": 0,
      "is_motor": true,
      "motor_id": 3,
      "accel_val": 2000,
      "base_duration_us": 127117
    },
    {
      "id": "M_2439",
      "pitch": 71,
      "t_note_us": 244498964,
      "t_trigger_us": 244363001,
      "is_ai": false,
      "track_id": 0,
      "velocity": 0,
      "is_motor": true,
      "motor_id": 1,
      "accel_val": 2000,
      "base_duration_us": 127117
    },
    {
      "id": "M_2440",
      "pitch": 52,
      "t_note_us": 244574440,
      "t_trigger_us": 244438477,
      "is_ai": false,
      "track_id": 0,
      "velocity": 0,
      "is_motor": true,
      "motor_id": 0,
      "accel_val": 2000,
      "base_duration_us": 127117
    },
    {
      "id": "M_2441",
      "pitch": 67,
      "t_note_us": 244743929,
      "t_trigger_us": 244607966,
      "is_ai": false,
      "track_id": 0,
      "velocity": 0,
      "is_motor": true,
      "motor_id": 1,
      "accel_val": 2000,
      "base_duration_us": 254237
    },
    {
      "id": "M_2442",
      "pitch": 64,
      "t_note_us": 244743929,
      "t_trigger_us": 244607966,
      "is_ai": false,
      "track_id": 0,
      "velocity": 0,
      "is_motor": true,
      "motor_id": 0,
      "accel_val": 2000,
      "base_duration_us": 254237
    },
    {
      "id": "M_2443",
      "pitch": 59,
      "t_note_us": 244998166,
      "t_trigger_us": 244862203,
      "is_ai": false,
      "track_id": 0,
      "velocity": 0,
      "is_motor": true,
      "motor_id": 0,
      "accel_val": 2000,
      "base_duration_us": 127117
    },
    {
      "id": "M_2444",
      "pitch": 64,
      "t_note_us": 245082911,
      "t_trigger_us": 244946948,
      "is_ai": false,
      "track_id": 0,
      "velocity": 0,
      "is_motor": true,
      "motor_id": 1,
      "accel_val": 2000,
      "base_duration_us": 127117
    },
    {
      "id": "M_2445",
      "pitch": 71,
      "t_note_us": 245092180,
      "t_trigger_us": 244956217,
      "is_ai": false,
      "track_id": 0,
      "velocity": 0,
      "is_motor": true,
      "motor_id": 2,
      "accel_val": 2000,
      "base_duration_us": 127117
    },
    {
      "id": "M_2446",
      "pitch": 67,
      "t_note_us": 245252400,
      "t_trigger_us": 245116437,
      "is_ai": false,
      "track_id": 0,
      "velocity": 0,
      "is_motor": true,
      "motor_id": 1,
      "accel_val": 2000,
      "base_duration_us": 127117
    },
    {
      "id": "M_2447",
      "pitch": 69,
      "t_note_us": 245261669,
      "t_trigger_us": 245125706,
      "is_ai": false,
      "track_id": 0,
      "velocity": 0,
      "is_motor": true,
      "motor_id": 2,
      "accel_val": 2000,
      "base_duration_us": 127117
    },
    {
      "id": "M_2449",
      "pitch": 52,
      "t_note_us": 245337145,
      "t_trigger_us": 245201182,
      "is_ai": false,
      "track_id": 0,
      "velocity": 0,
      "is_motor": true,
      "motor_id": 0,
      "accel_val": 2000,
      "base_duration_us": 254234
    },
    {
      "id": "M_2448",
      "pitch": 72,
      "t_note_us": 245346414,
      "t_trigger_us": 245210451,
      "is_ai": false,
      "track_id": 0,
      "velocity": 0,
      "is_motor": true,
      "motor_id": 3,
      "accel_val": 2000,
      "base_duration_us": 127117
    },
    {
      "id": "M_2450",
      "pitch": 71,
      "t_note_us": 245515903,
      "t_trigger_us": 245379940,
      "is_ai": false,
      "track_id": 0,
      "velocity": 0,
      "is_motor": true,
      "motor_id": 1,
      "accel_val": 2000,
      "base_duration_us": 127117
    },
    {
      "id": "M_2451",
      "pitch": 55,
      "t_note_us": 245591379,
      "t_trigger_us": 245455416,
      "is_ai": false,
      "track_id": 0,
      "velocity": 0,
      "is_motor": true,
      "motor_id": 0,
      "accel_val": 2000,
      "base_duration_us": 127117
    },
    {
      "id": "M_2452",
      "pitch": 65,
      "t_note_us": 245760868,
      "t_trigger_us": 245624905,
      "is_ai": false,
      "track_id": 0,
      "velocity": 0,
      "is_motor": true,
      "motor_id": 1,
      "accel_val": 2000,
      "base_duration_us": 254237
    },
    {
      "id": "M_2453",
      "pitch": 71,
      "t_note_us": 245760868,
      "t_trigger_us": 245624905,
      "is_ai": false,
      "track_id": 0,
      "velocity": 0,
      "is_motor": true,
      "motor_id": 2,
      "accel_val": 2000,
      "base_duration_us": 254237
    },
    {
      "id": "M_2454",
      "pitch": 62,
      "t_note_us": 246015105,
      "t_trigger_us": 245879142,
      "is_ai": false,
      "track_id": 0,
      "velocity": 0,
      "is_motor": true,
      "motor_id": 1,
      "accel_val": 2000,
      "base_duration_us": 127117
    },
    {
      "id": "M_2455",
      "pitch": 71,
      "t_note_us": 246024374,
      "t_trigger_us": 245888411,
      "is_ai": false,
      "track_id": 0,
      "velocity": 0,
      "is_motor": true,
      "motor_id": 2,
      "accel_val": 2000,
      "base_duration_us": 127117
    },
    {
      "id": "M_2456",
      "pitch": 65,
      "t_note_us": 246099850,
      "t_trigger_us": 245963887,
      "is_ai": false,
      "track_id": 0,
      "velocity": 0,
      "is_motor": true,
      "motor_id": 0,
      "accel_val": 2000,
      "base_duration_us": 127117
    },
    {
      "id": "M_2457",
      "pitch": 69,
      "t_note_us": 246109119,
      "t_trigger_us": 245973156,
      "is_ai": false,
      "track_id": 0,
      "velocity": 0,
      "is_motor": true,
      "motor_id": 3,
      "accel_val": 2000,
      "base_duration_us": 127117
    },
    {
      "id": "M_2458",
      "pitch": 71,
      "t_note_us": 246269339,
      "t_trigger_us": 246133376,
      "is_ai": false,
      "track_id": 0,
      "velocity": 0,
      "is_motor": true,
      "motor_id": 1,
      "accel_val": 2000,
      "base_duration_us": 127117
    },
    {
      "id": "M_2459",
      "pitch": 72,
      "t_note_us": 246278608,
      "t_trigger_us": 246142645,
      "is_ai": false,
      "track_id": 0,
      "velocity": 0,
      "is_motor": true,
      "motor_id": 0,
      "accel_val": 2000,
      "base_duration_us": 127117
    },
    {
      "id": "M_2460",
      "pitch": 55,
      "t_note_us": 246354084,
      "t_trigger_us": 246218121,
      "is_ai": false,
      "track_id": 0,
      "velocity": 0,
      "is_motor": true,
      "motor_id": 2,
      "accel_val": 2000,
      "base_duration_us": 254236
    },
    {
      "id": "M_2461",
      "pitch": 71,
      "t_note_us": 246363353,
      "t_trigger_us": 246227390,
      "is_ai": false,
      "track_id": 0,
      "velocity": 0,
      "is_motor": true,
      "motor_id": 3,
      "accel_val": 2000,
      "base_duration_us": 254236
    },
    {
      "id": "M_2462",
      "pitch": 48,
      "t_note_us": 246608320,
      "t_trigger_us": 246472357,
      "is_ai": false,
      "track_id": 0,
      "velocity": 0,
      "is_motor": true,
      "motor_id": 0,
      "accel_val": 2000,
      "base_duration_us": 127118
    },
    {
      "id": "M_2463",
      "pitch": 64,
      "t_note_us": 246777810,
      "t_trigger_us": 246641847,
      "is_ai": false,
      "track_id": 0,
      "velocity": 0,
      "is_motor": true,
      "motor_id": 1,
      "accel_val": 2000,
      "base_duration_us": 254237
    },
    {
      "id": "M_2464",
      "pitch": 60,
      "t_note_us": 246777810,
      "t_trigger_us": 246641847,
      "is_ai": false,
      "track_id": 0,
      "velocity": 0,
      "is_motor": true,
      "motor_id": 0,
      "accel_val": 2000,
      "base_duration_us": 254237
    },
    {
      "id": "M_2465",
      "pitch": 55,
      "t_note_us": 247032047,
      "t_trigger_us": 246896084,
      "is_ai": false,
      "track_id": 0,
      "velocity": 0,
      "is_motor": true,
      "motor_id": 0,
      "accel_val": 2000,
      "base_duration_us": 127117
    },
    {
      "id": "M_2466",
      "pitch": 60,
      "t_note_us": 247116792,
      "t_trigger_us": 246980829,
      "is_ai": false,
      "track_id": 0,
      "velocity": 0,
      "is_motor": true,
      "motor_id": 1,
      "accel_val": 2000,
      "base_duration_us": 127117
    },
    {
      "id": "M_2467",
      "pitch": 74,
      "t_note_us": 247126061,
      "t_trigger_us": 246990098,
      "is_ai": false,
      "track_id": 0,
      "velocity": 0,
      "is_motor": true,
      "motor_id": 2,
      "accel_val": 2000,
      "base_duration_us": 127117
    },
    {
      "id": "M_2468",
      "pitch": 64,
      "t_note_us": 247286281,
      "t_trigger_us": 247150318,
      "is_ai": false,
      "track_id": 0,
      "velocity": 0,
      "is_motor": true,
      "motor_id": 1,
      "accel_val": 2000,
      "base_duration_us": 127117
    },
    {
      "id": "M_2469",
      "pitch": 72,
      "t_note_us": 247295550,
      "t_trigger_us": 247159587,
      "is_ai": false,
      "track_id": 0,
      "velocity": 0,
      "is_motor": true,
      "motor_id": 0,
      "accel_val": 2000,
      "base_duration_us": 127117
    },
    {
      "id": "M_2471",
      "pitch": 48,
      "t_note_us": 247371026,
      "t_trigger_us": 247235063,
      "is_ai": false,
      "track_id": 0,
      "velocity": 0,
      "is_motor": true,
      "motor_id": 2,
      "accel_val": 2000,
      "base_duration_us": 254234
    },
    {
      "id": "M_2470",
      "pitch": 71,
      "t_note_us": 247380295,
      "t_trigger_us": 247244332,
      "is_ai": false,
      "track_id": 0,
      "velocity": 0,
      "is_motor": true,
      "motor_id": 3,
      "accel_val": 2000,
      "base_duration_us": 127117
    },
    {
      "id": "M_2472",
      "pitch": 69,
      "t_note_us": 247549784,
      "t_trigger_us": 247413821,
      "is_ai": false,
      "track_id": 0,
      "velocity": 0,
      "is_motor": true,
      "motor_id": 1,
      "accel_val": 2000,
      "base_duration_us": 127117
    },
    {
      "id": "M_2473",
      "pitch": 47,
      "t_note_us": 247625260,
      "t_trigger_us": 247489297,
      "is_ai": false,
      "track_id": 0,
      "velocity": 0,
      "is_motor": true,
      "motor_id": 0,
      "accel_val": 2000,
      "base_duration_us": 127117
    },
    {
      "id": "M_2474",
      "pitch": 63,
      "t_note_us": 247794749,
      "t_trigger_us": 247658786,
      "is_ai": false,
      "track_id": 0,
      "velocity": 0,
      "is_motor": true,
      "motor_id": 1,
      "accel_val": 2000,
      "base_duration_us": 254237
    },
    {
      "id": "M_2475",
      "pitch": 59,
      "t_note_us": 247794749,
      "t_trigger_us": 247658786,
      "is_ai": false,
      "track_id": 0,
      "velocity": 0,
      "is_motor": true,
      "motor_id": 0,
      "accel_val": 2000,
      "base_duration_us": 254237
    },
    {
      "id": "M_2476",
      "pitch": 54,
      "t_note_us": 248048986,
      "t_trigger_us": 247913023,
      "is_ai": false,
      "track_id": 0,
      "velocity": 0,
      "is_motor": true,
      "motor_id": 0,
      "accel_val": 2000,
      "base_duration_us": 127117
    },
    {
      "id": "M_2477",
      "pitch": 59,
      "t_note_us": 248133731,
      "t_trigger_us": 247997768,
      "is_ai": false,
      "track_id": 0,
      "velocity": 0,
      "is_motor": true,
      "motor_id": 1,
      "accel_val": 2000,
      "base_duration_us": 127117
    },
    {
      "id": "M_2478",
      "pitch": 67,
      "t_note_us": 248143000,
      "t_trigger_us": 248007037,
      "is_ai": false,
      "track_id": 0,
      "velocity": 0,
      "is_motor": true,
      "motor_id": 2,
      "accel_val": 2000,
      "base_duration_us": 127117
    },
    {
      "id": "M_2479",
      "pitch": 63,
      "t_note_us": 248303220,
      "t_trigger_us": 248167257,
      "is_ai": false,
      "track_id": 0,
      "velocity": 0,
      "is_motor": true,
      "motor_id": 1,
      "accel_val": 2000,
      "base_duration_us": 127117
    },
    {
      "id": "M_2480",
      "pitch": 68,
      "t_note_us": 248312489,
      "t_trigger_us": 248176526,
      "is_ai": false,
      "track_id": 0,
      "velocity": 0,
      "is_motor": true,
      "motor_id": 2,
      "accel_val": 2000,
      "base_duration_us": 127117
    },
    {
      "id": "M_2482",
      "pitch": 47,
      "t_note_us": 248387965,
      "t_trigger_us": 248252002,
      "is_ai": false,
      "track_id": 0,
      "velocity": 0,
      "is_motor": true,
      "motor_id": 0,
      "accel_val": 2000,
      "base_duration_us": 254234
    },
    {
      "id": "M_2481",
      "pitch": 69,
      "t_note_us": 248397234,
      "t_trigger_us": 248261271,
      "is_ai": false,
      "track_id": 0,
      "velocity": 0,
      "is_motor": true,
      "motor_id": 3,
      "accel_val": 2000,
      "base_duration_us": 127117
    },
    {
      "id": "M_2483",
      "pitch": 71,
      "t_note_us": 248566723,
      "t_trigger_us": 248430760,
      "is_ai": false,
      "track_id": 0,
      "velocity": 0,
      "is_motor": true,
      "motor_id": 1,
      "accel_val": 2000,
      "base_duration_us": 127117
    },
    {
      "id": "M_2484",
      "pitch": 52,
      "t_note_us": 248642199,
      "t_trigger_us": 248506236,
      "is_ai": false,
      "track_id": 0,
      "velocity": 0,
      "is_motor": true,
      "motor_id": 0,
      "accel_val": 2000,
      "base_duration_us": 127117
    },
    {
      "id": "M_2485",
      "pitch": 67,
      "t_note_us": 248811688,
      "t_trigger_us": 248675725,
      "is_ai": false,
      "track_id": 0,
      "velocity": 0,
      "is_motor": true,
      "motor_id": 1,
      "accel_val": 2000,
      "base_duration_us": 254237
    },
    {
      "id": "M_2486",
      "pitch": 64,
      "t_note_us": 248811688,
      "t_trigger_us": 248675725,
      "is_ai": false,
      "track_id": 0,
      "velocity": 0,
      "is_motor": true,
      "motor_id": 0,
      "accel_val": 2000,
      "base_duration_us": 254237
    },
    {
      "id": "M_2487",
      "pitch": 59,
      "t_note_us": 249065925,
      "t_trigger_us": 248929962,
      "is_ai": false,
      "track_id": 0,
      "velocity": 0,
      "is_motor": true,
      "motor_id": 0,
      "accel_val": 2000,
      "base_duration_us": 127117
    },
    {
      "id": "M_2488",
      "pitch": 64,
      "t_note_us": 249150670,
      "t_trigger_us": 249014707,
      "is_ai": false,
      "track_id": 0,
      "velocity": 0,
      "is_motor": true,
      "motor_id": 1,
      "accel_val": 2000,
      "base_duration_us": 127117
    },
    {
      "id": "M_2489",
      "pitch": 71,
      "t_note_us": 249159939,
      "t_trigger_us": 249023976,
      "is_ai": false,
      "track_id": 0,
      "velocity": 0,
      "is_motor": true,
      "motor_id": 2,
      "accel_val": 2000,
      "base_duration_us": 127117
    },
    {
      "id": "M_2490",
      "pitch": 67,
      "t_note_us": 249320159,
      "t_trigger_us": 249184196,
      "is_ai": false,
      "track_id": 0,
      "velocity": 0,
      "is_motor": true,
      "motor_id": 1,
      "accel_val": 2000,
      "base_duration_us": 127117
    },
    {
      "id": "M_2491",
      "pitch": 69,
      "t_note_us": 249329428,
      "t_trigger_us": 249193465,
      "is_ai": false,
      "track_id": 0,
      "velocity": 0,
      "is_motor": true,
      "motor_id": 2,
      "accel_val": 2000,
      "base_duration_us": 127117
    },
    {
      "id": "M_2493",
      "pitch": 52,
      "t_note_us": 249404904,
      "t_trigger_us": 249268941,
      "is_ai": false,
      "track_id": 0,
      "velocity": 0,
      "is_motor": true,
      "motor_id": 0,
      "accel_val": 2000,
      "base_duration_us": 254234
    },
    {
      "id": "M_2492",
      "pitch": 96,
      "t_note_us": 249414173,
      "t_trigger_us": 249278210,
      "is_ai": true,
      "track_id": 10,
      "velocity": 0,
      "is_motor": false,
      "motor_id": 0,
      "accel_val": 2000,
      "base_duration_us": 127117
    },
    {
      "id": "M_2494",
      "pitch": 71,
      "t_note_us": 249583662,
      "t_trigger_us": 249447699,
      "is_ai": false,
      "track_id": 0,
      "velocity": 0,
      "is_motor": true,
      "motor_id": 1,
      "accel_val": 2000,
      "base_duration_us": 127117
    },
    {
      "id": "M_2495",
      "pitch": 55,
      "t_note_us": 249659138,
      "t_trigger_us": 249523175,
      "is_ai": false,
      "track_id": 0,
      "velocity": 0,
      "is_motor": true,
      "motor_id": 0,
      "accel_val": 2000,
      "base_duration_us": 127117
    },
    {
      "id": "M_2496",
      "pitch": 65,
      "t_note_us": 249828627,
      "t_trigger_us": 249692664,
      "is_ai": false,
      "track_id": 0,
      "velocity": 0,
      "is_motor": true,
      "motor_id": 1,
      "accel_val": 2000,
      "base_duration_us": 254237
    },
    {
      "id": "M_2497",
      "pitch": 71,
      "t_note_us": 249828627,
      "t_trigger_us": 249692664,
      "is_ai": false,
      "track_id": 0,
      "velocity": 0,
      "is_motor": true,
      "motor_id": 2,
      "accel_val": 2000,
      "base_duration_us": 254237
    },
    {
      "id": "M_2498",
      "pitch": 62,
      "t_note_us": 250082864,
      "t_trigger_us": 249946901,
      "is_ai": false,
      "track_id": 0,
      "velocity": 0,
      "is_motor": true,
      "motor_id": 1,
      "accel_val": 2000,
      "base_duration_us": 127117
    },
    {
      "id": "M_2499",
      "pitch": 71,
      "t_note_us": 250092133,
      "t_trigger_us": 249956170,
      "is_ai": false,
      "track_id": 0,
      "velocity": 0,
      "is_motor": true,
      "motor_id": 2,
      "accel_val": 2000,
      "base_duration_us": 127117
    },
    {
      "id": "M_2500",
      "pitch": 65,
      "t_note_us": 250167609,
      "t_trigger_us": 250031646,
      "is_ai": false,
      "track_id": 0,
      "velocity": 0,
      "is_motor": true,
      "motor_id": 0,
      "accel_val": 2000,
      "base_duration_us": 127117
    },
    {
      "id": "M_2501",
      "pitch": 69,
      "t_note_us": 250176878,
      "t_trigger_us": 250040915,
      "is_ai": false,
      "track_id": 0,
      "velocity": 0,
      "is_motor": true,
      "motor_id": 3,
      "accel_val": 2000,
      "base_duration_us": 127117
    },
    {
      "id": "M_2502",
      "pitch": 71,
      "t_note_us": 250337098,
      "t_trigger_us": 250201135,
      "is_ai": false,
      "track_id": 0,
      "velocity": 0,
      "is_motor": true,
      "motor_id": 1,
      "accel_val": 2000,
      "base_duration_us": 127117
    },
    {
      "id": "M_2503",
      "pitch": 67,
      "t_note_us": 250346367,
      "t_trigger_us": 250210404,
      "is_ai": false,
      "track_id": 0,
      "velocity": 0,
      "is_motor": true,
      "motor_id": 2,
      "accel_val": 2000,
      "base_duration_us": 127117
    },
    {
      "id": "M_2505",
      "pitch": 55,
      "t_note_us": 250421843,
      "t_trigger_us": 250285880,
      "is_ai": false,
      "track_id": 0,
      "velocity": 0,
      "is_motor": true,
      "motor_id": 0,
      "accel_val": 2000,
      "base_duration_us": 254234
    },
    {
      "id": "M_2504",
      "pitch": 78,
      "t_note_us": 250431112,
      "t_trigger_us": 250295149,
      "is_ai": false,
      "track_id": 0,
      "velocity": 0,
      "is_motor": true,
      "motor_id": 3,
      "accel_val": 2000,
      "base_duration_us": 127117
    },
    {
      "id": "M_2506",
      "pitch": 67,
      "t_note_us": 250600601,
      "t_trigger_us": 250464638,
      "is_ai": false,
      "track_id": 0,
      "velocity": 0,
      "is_motor": true,
      "motor_id": 1,
      "accel_val": 2000,
      "base_duration_us": 127117
    },
    {
      "id": "M_2507",
      "pitch": 48,
      "t_note_us": 250676077,
      "t_trigger_us": 250540114,
      "is_ai": false,
      "track_id": 0,
      "velocity": 0,
      "is_motor": true,
      "motor_id": 0,
      "accel_val": 2000,
      "base_duration_us": 127117
    },
    {
      "id": "M_2508",
      "pitch": 64,
      "t_note_us": 250845566,
      "t_trigger_us": 250709603,
      "is_ai": false,
      "track_id": 0,
      "velocity": 0,
      "is_motor": true,
      "motor_id": 1,
      "accel_val": 2000,
      "base_duration_us": 254237
    },
    {
      "id": "M_2509",
      "pitch": 60,
      "t_note_us": 250845566,
      "t_trigger_us": 250709603,
      "is_ai": false,
      "track_id": 0,
      "velocity": 0,
      "is_motor": true,
      "motor_id": 0,
      "accel_val": 2000,
      "base_duration_us": 254237
    },
    {
      "id": "M_2510",
      "pitch": 55,
      "t_note_us": 251099803,
      "t_trigger_us": 250963840,
      "is_ai": false,
      "track_id": 0,
      "velocity": 0,
      "is_motor": true,
      "motor_id": 0,
      "accel_val": 2000,
      "base_duration_us": 127117
    },
    {
      "id": "M_2511",
      "pitch": 60,
      "t_note_us": 251184548,
      "t_trigger_us": 251048585,
      "is_ai": false,
      "track_id": 0,
      "velocity": 0,
      "is_motor": true,
      "motor_id": 1,
      "accel_val": 2000,
      "base_duration_us": 127117
    },
    {
      "id": "M_2512",
      "pitch": 74,
      "t_note_us": 251193817,
      "t_trigger_us": 251057854,
      "is_ai": false,
      "track_id": 0,
      "velocity": 0,
      "is_motor": true,
      "motor_id": 2,
      "accel_val": 2000,
      "base_duration_us": 127117
    },
    {
      "id": "M_2513",
      "pitch": 64,
      "t_note_us": 251354037,
      "t_trigger_us": 251218074,
      "is_ai": false,
      "track_id": 0,
      "velocity": 0,
      "is_motor": true,
      "motor_id": 1,
      "accel_val": 2000,
      "base_duration_us": 127117
    },
    {
      "id": "M_2514",
      "pitch": 72,
      "t_note_us": 251363306,
      "t_trigger_us": 251227343,
      "is_ai": false,
      "track_id": 0,
      "velocity": 0,
      "is_motor": true,
      "motor_id": 0,
      "accel_val": 2000,
      "base_duration_us": 127117
    },
    {
      "id": "M_2516",
      "pitch": 48,
      "t_note_us": 251438782,
      "t_trigger_us": 251302819,
      "is_ai": false,
      "track_id": 0,
      "velocity": 0,
      "is_motor": true,
      "motor_id": 2,
      "accel_val": 2000,
      "base_duration_us": 254234
    },
    {
      "id": "M_2515",
      "pitch": 71,
      "t_note_us": 251448051,
      "t_trigger_us": 251312088,
      "is_ai": false,
      "track_id": 0,
      "velocity": 0,
      "is_motor": true,
      "motor_id": 3,
      "accel_val": 2000,
      "base_duration_us": 127117
    },
    {
      "id": "M_2517",
      "pitch": 69,
      "t_note_us": 251617540,
      "t_trigger_us": 251481577,
      "is_ai": false,
      "track_id": 0,
      "velocity": 0,
      "is_motor": true,
      "motor_id": 1,
      "accel_val": 2000,
      "base_duration_us": 127117
    },
    {
      "id": "M_2518",
      "pitch": 54,
      "t_note_us": 251693016,
      "t_trigger_us": 251557053,
      "is_ai": false,
      "track_id": 0,
      "velocity": 0,
      "is_motor": true,
      "motor_id": 0,
      "accel_val": 2000,
      "base_duration_us": 127117
    },
    {
      "id": "M_2519",
      "pitch": 69,
      "t_note_us": 251862505,
      "t_trigger_us": 251726542,
      "is_ai": false,
      "track_id": 0,
      "velocity": 0,
      "is_motor": true,
      "motor_id": 1,
      "accel_val": 2000,
      "base_duration_us": 254237
    },
    {
      "id": "M_2520",
      "pitch": 66,
      "t_note_us": 251862505,
      "t_trigger_us": 251726542,
      "is_ai": false,
      "track_id": 0,
      "velocity": 0,
      "is_motor": true,
      "motor_id": 2,
      "accel_val": 2000,
      "base_duration_us": 254237
    },
    {
      "id": "M_2521",
      "pitch": 59,
      "t_note_us": 252116742,
      "t_trigger_us": 251980779,
      "is_ai": false,
      "track_id": 0,
      "velocity": 0,
      "is_motor": true,
      "motor_id": 0,
      "accel_val": 2000,
      "base_duration_us": 127117
    },
    {
      "id": "M_2522",
      "pitch": 66,
      "t_note_us": 252201487,
      "t_trigger_us": 252065524,
      "is_ai": false,
      "track_id": 0,
      "velocity": 0,
      "is_motor": true,
      "motor_id": 1,
      "accel_val": 2000,
      "base_duration_us": 127117
    },
    {
      "id": "M_2523",
      "pitch": 67,
      "t_note_us": 252210756,
      "t_trigger_us": 252074793,
      "is_ai": false,
      "track_id": 0,
      "velocity": 0,
      "is_motor": true,
      "motor_id": 2,
      "accel_val": 2000,
      "base_duration_us": 127117
    },
    {
      "id": "M_2524",
      "pitch": 69,
      "t_note_us": 252370976,
      "t_trigger_us": 252235013,
      "is_ai": false,
      "track_id": 0,
      "velocity": 0,
      "is_motor": true,
      "motor_id": 1,
      "accel_val": 2000,
      "base_duration_us": 127117
    },
    {
      "id": "M_2525",
      "pitch": 68,
      "t_note_us": 252380245,
      "t_trigger_us": 252244282,
      "is_ai": false,
      "track_id": 0,
      "velocity": 0,
      "is_motor": true,
      "motor_id": 2,
      "accel_val": 2000,
      "base_duration_us": 127117
    },
    {
      "id": "M_2527",
      "pitch": 54,
      "t_note_us": 252455721,
      "t_trigger_us": 252319758,
      "is_ai": false,
      "track_id": 0,
      "velocity": 0,
      "is_motor": true,
      "motor_id": 0,
      "accel_val": 2000,
      "base_duration_us": 254234
    },
    {
      "id": "M_2526",
      "pitch": 69,
      "t_note_us": 252464990,
      "t_trigger_us": 252329027,
      "is_ai": false,
      "track_id": 0,
      "velocity": 0,
      "is_motor": true,
      "motor_id": 3,
      "accel_val": 2000,
      "base_duration_us": 127117
    },
    {
      "id": "M_2528",
      "pitch": 71,
      "t_note_us": 252634479,
      "t_trigger_us": 252498516,
      "is_ai": false,
      "track_id": 0,
      "velocity": 0,
      "is_motor": true,
      "motor_id": 1,
      "accel_val": 2000,
      "base_duration_us": 127117
    },
    {
      "id": "M_2529",
      "pitch": 52,
      "t_note_us": 252709955,
      "t_trigger_us": 252573992,
      "is_ai": false,
      "track_id": 0,
      "velocity": 0,
      "is_motor": true,
      "motor_id": 0,
      "accel_val": 2000,
      "base_duration_us": 127117
    },
    {
      "id": "M_2530",
      "pitch": 67,
      "t_note_us": 252879444,
      "t_trigger_us": 252743481,
      "is_ai": false,
      "track_id": 0,
      "velocity": 0,
      "is_motor": true,
      "motor_id": 1,
      "accel_val": 2000,
      "base_duration_us": 254237
    },
    {
      "id": "M_2531",
      "pitch": 64,
      "t_note_us": 252879444,
      "t_trigger_us": 252743481,
      "is_ai": false,
      "track_id": 0,
      "velocity": 0,
      "is_motor": true,
      "motor_id": 0,
      "accel_val": 2000,
      "base_duration_us": 254237
    },
    {
      "id": "M_2532",
      "pitch": 59,
      "t_note_us": 253133681,
      "t_trigger_us": 252997718,
      "is_ai": false,
      "track_id": 0,
      "velocity": 0,
      "is_motor": true,
      "motor_id": 0,
      "accel_val": 2000,
      "base_duration_us": 127117
    },
    {
      "id": "M_2533",
      "pitch": 64,
      "t_note_us": 253218426,
      "t_trigger_us": 253082463,
      "is_ai": false,
      "track_id": 0,
      "velocity": 0,
      "is_motor": true,
      "motor_id": 1,
      "accel_val": 2000,
      "base_duration_us": 127117
    },
    {
      "id": "M_2534",
      "pitch": 71,
      "t_note_us": 253227695,
      "t_trigger_us": 253091732,
      "is_ai": false,
      "track_id": 0,
      "velocity": 0,
      "is_motor": true,
      "motor_id": 2,
      "accel_val": 2000,
      "base_duration_us": 127117
    },
    {
      "id": "M_2535",
      "pitch": 67,
      "t_note_us": 253387915,
      "t_trigger_us": 253251952,
      "is_ai": false,
      "track_id": 0,
      "velocity": 0,
      "is_motor": true,
      "motor_id": 1,
      "accel_val": 2000,
      "base_duration_us": 127117
    },
    {
      "id": "M_2536",
      "pitch": 69,
      "t_note_us": 253397184,
      "t_trigger_us": 253261221,
      "is_ai": false,
      "track_id": 0,
      "velocity": 0,
      "is_motor": true,
      "motor_id": 2,
      "accel_val": 2000,
      "base_duration_us": 127117
    },
    {
      "id": "M_2538",
      "pitch": 52,
      "t_note_us": 253472660,
      "t_trigger_us": 253336697,
      "is_ai": false,
      "track_id": 0,
      "velocity": 0,
      "is_motor": true,
      "motor_id": 0,
      "accel_val": 2000,
      "base_duration_us": 254234
    },
    {
      "id": "M_2537",
      "pitch": 96,
      "t_note_us": 253481929,
      "t_trigger_us": 253345966,
      "is_ai": true,
      "track_id": 10,
      "velocity": 0,
      "is_motor": false,
      "motor_id": 0,
      "accel_val": 2000,
      "base_duration_us": 127117
    },
    {
      "id": "M_2539",
      "pitch": 71,
      "t_note_us": 253651418,
      "t_trigger_us": 253515455,
      "is_ai": false,
      "track_id": 0,
      "velocity": 0,
      "is_motor": true,
      "motor_id": 1,
      "accel_val": 2000,
      "base_duration_us": 127117
    },
    {
      "id": "M_2540",
      "pitch": 55,
      "t_note_us": 253726894,
      "t_trigger_us": 253590931,
      "is_ai": false,
      "track_id": 0,
      "velocity": 0,
      "is_motor": true,
      "motor_id": 0,
      "accel_val": 2000,
      "base_duration_us": 127117
    },
    {
      "id": "M_2541",
      "pitch": 65,
      "t_note_us": 253896383,
      "t_trigger_us": 253760420,
      "is_ai": false,
      "track_id": 0,
      "velocity": 0,
      "is_motor": true,
      "motor_id": 1,
      "accel_val": 2000,
      "base_duration_us": 254237
    },
    {
      "id": "M_2542",
      "pitch": 71,
      "t_note_us": 253896383,
      "t_trigger_us": 253760420,
      "is_ai": false,
      "track_id": 0,
      "velocity": 0,
      "is_motor": true,
      "motor_id": 2,
      "accel_val": 2000,
      "base_duration_us": 254237
    },
    {
      "id": "M_2543",
      "pitch": 62,
      "t_note_us": 254150620,
      "t_trigger_us": 254014657,
      "is_ai": false,
      "track_id": 0,
      "velocity": 0,
      "is_motor": true,
      "motor_id": 1,
      "accel_val": 2000,
      "base_duration_us": 127117
    },
    {
      "id": "M_2544",
      "pitch": 71,
      "t_note_us": 254159889,
      "t_trigger_us": 254023926,
      "is_ai": false,
      "track_id": 0,
      "velocity": 0,
      "is_motor": true,
      "motor_id": 2,
      "accel_val": 2000,
      "base_duration_us": 127117
    },
    {
      "id": "M_2546",
      "pitch": 55,
      "t_note_us": 254235365,
      "t_trigger_us": 254099402,
      "is_ai": false,
      "track_id": 0,
      "velocity": 0,
      "is_motor": true,
      "motor_id": 0,
      "accel_val": 2000,
      "base_duration_us": 254234
    },
    {
      "id": "M_2545",
      "pitch": 69,
      "t_note_us": 254244634,
      "t_trigger_us": 254108671,
      "is_ai": false,
      "track_id": 0,
      "velocity": 0,
      "is_motor": true,
      "motor_id": 3,
      "accel_val": 2000,
      "base_duration_us": 127117
    },
    {
      "id": "M_2547",
      "pitch": 67,
      "t_note_us": 254414123,
      "t_trigger_us": 254278160,
      "is_ai": false,
      "track_id": 0,
      "velocity": 0,
      "is_motor": true,
      "motor_id": 1,
      "accel_val": 2000,
      "base_duration_us": 127117
    },
    {
      "id": "M_2548",
      "pitch": 71,
      "t_note_us": 254489599,
      "t_trigger_us": 254353636,
      "is_ai": false,
      "track_id": 0,
      "velocity": 0,
      "is_motor": true,
      "motor_id": 2,
      "accel_val": 2000,
      "base_duration_us": 254236
    },
    {
      "id": "M_2549",
      "pitch": 65,
      "t_note_us": 254489599,
      "t_trigger_us": 254353636,
      "is_ai": false,
      "track_id": 0,
      "velocity": 0,
      "is_motor": true,
      "motor_id": 0,
      "accel_val": 2000,
      "base_duration_us": 254236
    },
    {
      "id": "M_2550",
      "pitch": 78,
      "t_note_us": 254498868,
      "t_trigger_us": 254362905,
      "is_ai": false,
      "track_id": 0,
      "velocity": 0,
      "is_motor": true,
      "motor_id": 3,
      "accel_val": 2000,
      "base_duration_us": 254236
    },
    {
      "id": "M_2551",
      "pitch": 64,
      "t_note_us": 254743835,
      "t_trigger_us": 254607872,
      "is_ai": false,
      "track_id": 0,
      "velocity": 0,
      "is_motor": true,
      "motor_id": 1,
      "accel_val": 2000,
      "base_duration_us": 127118
    },
    {
      "id": "M_2552",
      "pitch": 71,
      "t_note_us": 254913325,
      "t_trigger_us": 254777362,
      "is_ai": false,
      "track_id": 0,
      "velocity": 0,
      "is_motor": true,
      "motor_id": 1,
      "accel_val": 2000,
      "base_duration_us": 127117
    },
    {
      "id": "M_2553",
      "pitch": 71,
      "t_note_us": 254998070,
      "t_trigger_us": 254862107,
      "is_ai": false,
      "track_id": 0,
      "velocity": 0,
      "is_motor": true,
      "motor_id": 2,
      "accel_val": 2000,
      "base_duration_us": 127117
    },
    {
      "id": "M_2554",
      "pitch": 76,
      "t_note_us": 255167559,
      "t_trigger_us": 255031596,
      "is_ai": false,
      "track_id": 0,
      "velocity": 0,
      "is_motor": true,
      "motor_id": 2,
      "accel_val": 2000,
      "base_duration_us": 127117
    },
    {
      "id": "M_2555",
      "pitch": 67,
      "t_note_us": 255261573,
      "t_trigger_us": 255125610,
      "is_ai": false,
      "track_id": 0,
      "velocity": 0,
      "is_motor": true,
      "motor_id": 1,
      "accel_val": 2000,
      "base_duration_us": 127117
    },
    {
      "id": "M_2556",
      "pitch": 76,
      "t_note_us": 255431062,
      "t_trigger_us": 255295099,
      "is_ai": false,
      "track_id": 0,
      "velocity": 0,
      "is_motor": true,
      "motor_id": 2,
      "accel_val": 2000,
      "base_duration_us": 127117
    },
    {
      "id": "M_2557",
      "pitch": 74,
      "t_note_us": 255515807,
      "t_trigger_us": 255379844,
      "is_ai": false,
      "track_id": 0,
      "velocity": 0,
      "is_motor": true,
      "motor_id": 1,
      "accel_val": 2000,
      "base_duration_us": 254236
    },
    {
      "id": "M_2558",
      "pitch": 66,
      "t_note_us": 255760774,
      "t_trigger_us": 255624811,
      "is_ai": false,
      "track_id": 0,
      "velocity": 0,
      "is_motor": true,
      "motor_id": 2,
      "accel_val": 2000,
      "base_duration_us": 127118
    },
    {
      "id": "M_2559",
      "pitch": 71,
      "t_note_us": 255930264,
      "t_trigger_us": 255794301,
      "is_ai": false,
      "track_id": 0,
      "velocity": 0,
      "is_motor": true,
      "motor_id": 1,
      "accel_val": 2000,
      "base_duration_us": 127117
    },
    {
      "id": "M_2560",
      "pitch": 81,
      "t_note_us": 256015009,
      "t_trigger_us": 255879046,
      "is_ai": true,
      "track_id": 1,
      "velocity": 0,
      "is_motor": false,
      "motor_id": 0,
      "accel_val": 2000,
      "base_duration_us": 127117
    },
    {
      "id": "M_2561",
      "pitch": 75,
      "t_note_us": 256184498,
      "t_trigger_us": 256048535,
      "is_ai": false,
      "track_id": 0,
      "velocity": 0,
      "is_motor": true,
      "motor_id": 2,
      "accel_val": 2000,
      "base_duration_us": 127117
    },
    {
      "id": "M_2562",
      "pitch": 90,
      "t_note_us": 256278512,
      "t_trigger_us": 256142549,
      "is_ai": true,
      "track_id": 0,
      "velocity": 0,
      "is_motor": true,
      "motor_id": 3,
      "accel_val": 2000,
      "base_duration_us": 254236
    },
    {
      "id": "M_2563",
      "pitch": 87,
      "t_note_us": 256532748,
      "t_trigger_us": 256396785,
      "is_ai": true,
      "track_id": 0,
      "velocity": 0,
      "is_motor": true,
      "motor_id": 3,
      "accel_val": 2000,
      "base_duration_us": 127118
    },
    {
      "id": "M_2564",
      "pitch": 64,
      "t_note_us": 256777715,
      "t_trigger_us": 256641752,
      "is_ai": false,
      "track_id": 0,
      "velocity": 0,
      "is_motor": true,
      "motor_id": 1,
      "accel_val": 2000,
      "base_duration_us": 127118
    },
    {
      "id": "M_2565",
      "pitch": 71,
      "t_note_us": 256947205,
      "t_trigger_us": 256811242,
      "is_ai": false,
      "track_id": 0,
      "velocity": 0,
      "is_motor": true,
      "motor_id": 1,
      "accel_val": 2000,
      "base_duration_us": 127117
    },
    {
      "id": "M_2566",
      "pitch": 86,
      "t_note_us": 257031950,
      "t_trigger_us": 256895987,
      "is_ai": true,
      "track_id": 4,
      "velocity": 0,
      "is_motor": false,
      "motor_id": 0,
      "accel_val": 2000,
      "base_duration_us": 127117
    },
    {
      "id": "M_2567",
      "pitch": 74,
      "t_note_us": 257201439,
      "t_trigger_us": 257065476,
      "is_ai": false,
      "track_id": 0,
      "velocity": 0,
      "is_motor": true,
      "motor_id": 1,
      "accel_val": 2000,
      "base_duration_us": 127117
    },
    {
      "id": "M_2568",
      "pitch": 91,
      "t_note_us": 257295453,
      "t_trigger_us": 257159490,
      "is_ai": true,
      "track_id": 7,
      "velocity": 0,
      "is_motor": false,
      "motor_id": 0,
      "accel_val": 2000,
      "base_duration_us": 254236
    },
    {
      "id": "M_2569",
      "pitch": 88,
      "t_note_us": 257549689,
      "t_trigger_us": 257413726,
      "is_ai": true,
      "track_id": 5,
      "velocity": 0,
      "is_motor": false,
      "motor_id": 0,
      "accel_val": 2000,
      "base_duration_us": 127118
    },
    {
      "id": "M_2570",
      "pitch": 86,
      "t_note_us": 257719179,
      "t_trigger_us": 257583216,
      "is_ai": true,
      "track_id": 4,
      "velocity": 0,
      "is_motor": false,
      "motor_id": 0,
      "accel_val": 2000,
      "base_duration_us": 127117
    },
    {
      "id": "M_2571",
      "pitch": 67,
      "t_note_us": 257794655,
      "t_trigger_us": 257658692,
      "is_ai": false,
      "track_id": 0,
      "velocity": 0,
      "is_motor": true,
      "motor_id": 1,
      "accel_val": 2000,
      "base_duration_us": 127117
    },
    {
      "id": "M_2572",
      "pitch": 71,
      "t_note_us": 257964144,
      "t_trigger_us": 257828181,
      "is_ai": false,
      "track_id": 0,
      "velocity": 0,
      "is_motor": true,
      "motor_id": 1,
      "accel_val": 2000,
      "base_duration_us": 127117
    },
    {
      "id": "M_2573",
      "pitch": 83,
      "t_note_us": 258048889,
      "t_trigger_us": 257912926,
      "is_ai": true,
      "track_id": 2,
      "velocity": 0,
      "is_motor": false,
      "motor_id": 0,
      "accel_val": 2000,
      "base_duration_us": 127117
    },
    {
      "id": "M_2574",
      "pitch": 77,
      "t_note_us": 258218378,
      "t_trigger_us": 258082415,
      "is_ai": false,
      "track_id": 0,
      "velocity": 0,
      "is_motor": true,
      "motor_id": 2,
      "accel_val": 2000,
      "base_duration_us": 127117
    },
    {
      "id": "M_2575",
      "pitch": 91,
      "t_note_us": 258312392,
      "t_trigger_us": 258176429,
      "is_ai": true,
      "track_id": 7,
      "velocity": 0,
      "is_motor": false,
      "motor_id": 0,
      "accel_val": 2000,
      "base_duration_us": 254236
    },
    {
      "id": "M_2576",
      "pitch": 88,
      "t_note_us": 258566628,
      "t_trigger_us": 258430665,
      "is_ai": true,
      "track_id": 5,
      "velocity": 0,
      "is_motor": false,
      "motor_id": 0,
      "accel_val": 2000,
      "base_duration_us": 127118
    },
    {
      "id": "M_2577",
      "pitch": 86,
      "t_note_us": 258736118,
      "t_trigger_us": 258600155,
      "is_ai": true,
      "track_id": 4,
      "velocity": 0,
      "is_motor": false,
      "motor_id": 0,
      "accel_val": 2000,
      "base_duration_us": 127117
    },
    {
      "id": "M_2578",
      "pitch": 64,
      "t_note_us": 258811594,
      "t_trigger_us": 258675631,
      "is_ai": false,
      "track_id": 0,
      "velocity": 0,
      "is_motor": true,
      "motor_id": 1,
      "accel_val": 2000,
      "base_duration_us": 127117
    },
    {
      "id": "M_2579",
      "pitch": 71,
      "t_note_us": 258981083,
      "t_trigger_us": 258845120,
      "is_ai": false,
      "track_id": 0,
      "velocity": 0,
      "is_motor": true,
      "motor_id": 1,
      "accel_val": 2000,
      "base_duration_us": 127117
    },
    {
      "id": "M_2580",
      "pitch": 83,
      "t_note_us": 259065828,
      "t_trigger_us": 258929865,
      "is_ai": true,
      "track_id": 2,
      "velocity": 0,
      "is_motor": false,
      "motor_id": 0,
      "accel_val": 2000,
      "base_duration_us": 127117
    },
    {
      "id": "M_2581",
      "pitch": 76,
      "t_note_us": 259235317,
      "t_trigger_us": 259099354,
      "is_ai": false,
      "track_id": 0,
      "velocity": 0,
      "is_motor": true,
      "motor_id": 2,
      "accel_val": 2000,
      "base_duration_us": 127117
    },
    {
      "id": "M_2582",
      "pitch": 91,
      "t_note_us": 259329331,
      "t_trigger_us": 259193368,
      "is_ai": true,
      "track_id": 7,
      "velocity": 0,
      "is_motor": false,
      "motor_id": 0,
      "accel_val": 2000,
      "base_duration_us": 127117
    },
    {
      "id": "M_2583",
      "pitch": 90,
      "t_note_us": 259498820,
      "t_trigger_us": 259362857,
      "is_ai": true,
      "track_id": 0,
      "velocity": 0,
      "is_motor": true,
      "motor_id": 3,
      "accel_val": 2000,
      "base_duration_us": 127117
    },
    {
      "id": "M_2584",
      "pitch": 86,
      "t_note_us": 259583565,
      "t_trigger_us": 259447602,
      "is_ai": true,
      "track_id": 4,
      "velocity": 0,
      "is_motor": false,
      "motor_id": 0,
      "accel_val": 2000,
      "base_duration_us": 127117
    },
    {
      "id": "M_2585",
      "pitch": 83,
      "t_note_us": 259753054,
      "t_trigger_us": 259617091,
      "is_ai": true,
      "track_id": 2,
      "velocity": 0,
      "is_motor": false,
      "motor_id": 0,
      "accel_val": 2000,
      "base_duration_us": 127117
    },
    {
      "id": "M_2586",
      "pitch": 66,
      "t_note_us": 259828530,
      "t_trigger_us": 259692567,
      "is_ai": false,
      "track_id": 0,
      "velocity": 0,
      "is_motor": true,
      "motor_id": 1,
      "accel_val": 2000,
      "base_duration_us": 127117
    },
    {
      "id": "M_2587",
      "pitch": 71,
      "t_note_us": 259998019,
      "t_trigger_us": 259862056,
      "is_ai": false,
      "track_id": 0,
      "velocity": 0,
      "is_motor": true,
      "motor_id": 1,
      "accel_val": 2000,
      "base_duration_us": 127117
    },
    {
      "id": "M_2588",
      "pitch": 81,
      "t_note_us": 260082764,
      "t_trigger_us": 259946801,
      "is_ai": true,
      "track_id": 1,
      "velocity": 0,
      "is_motor": false,
      "motor_id": 0,
      "accel_val": 2000,
      "base_duration_us": 127117
    },
    {
      "id": "M_2589",
      "pitch": 75,
      "t_note_us": 260252253,
      "t_trigger_us": 260116290,
      "is_ai": false,
      "track_id": 0,
      "velocity": 0,
      "is_motor": true,
      "motor_id": 2,
      "accel_val": 2000,
      "base_duration_us": 127117
    },
    {
      "id": "M_2590",
      "pitch": 91,
      "t_note_us": 260346267,
      "t_trigger_us": 260210304,
      "is_ai": true,
      "track_id": 7,
      "velocity": 0,
      "is_motor": false,
      "motor_id": 0,
      "accel_val": 2000,
      "base_duration_us": 127117
    },
    {
      "id": "M_2591",
      "pitch": 90,
      "t_note_us": 260515756,
      "t_trigger_us": 260379793,
      "is_ai": true,
      "track_id": 0,
      "velocity": 0,
      "is_motor": true,
      "motor_id": 3,
      "accel_val": 2000,
      "base_duration_us": 127117
    },
    {
      "id": "M_2592",
      "pitch": 87,
      "t_note_us": 260600501,
      "t_trigger_us": 260464538,
      "is_ai": true,
      "track_id": 0,
      "velocity": 0,
      "is_motor": true,
      "motor_id": 2,
      "accel_val": 2000,
      "base_duration_us": 254236
    },
    {
      "id": "M_2593",
      "pitch": 64,
      "t_note_us": 260845468,
      "t_trigger_us": 260709505,
      "is_ai": false,
      "track_id": 0,
      "velocity": 0,
      "is_motor": true,
      "motor_id": 1,
      "accel_val": 2000,
      "base_duration_us": 127118
    },
    {
      "id": "M_2594",
      "pitch": 71,
      "t_note_us": 261014958,
      "t_trigger_us": 260878995,
      "is_ai": false,
      "track_id": 0,
      "velocity": 0,
      "is_motor": true,
      "motor_id": 1,
      "accel_val": 2000,
      "base_duration_us": 127117
    },
    {
      "id": "M_2595",
      "pitch": 74,
      "t_note_us": 261099703,
      "t_trigger_us": 260963740,
      "is_ai": false,
      "track_id": 0,
      "velocity": 0,
      "is_motor": true,
      "motor_id": 0,
      "accel_val": 2000,
      "base_duration_us": 127117
    },
    {
      "id": "M_2596",
      "pitch": 81,
      "t_note_us": 261269192,
      "t_trigger_us": 261133229,
      "is_ai": true,
      "track_id": 1,
      "velocity": 0,
      "is_motor": false,
      "motor_id": 0,
      "accel_val": 2000,
      "base_duration_us": 127117
    },
    {
      "id": "M_2597",
      "pitch": 91,
      "t_note_us": 261363206,
      "t_trigger_us": 261227243,
      "is_ai": true,
      "track_id": 7,
      "velocity": 0,
      "is_motor": false,
      "motor_id": 0,
      "accel_val": 2000,
      "base_duration_us": 127117
    },
    {
      "id": "M_2598",
      "pitch": 90,
      "t_note_us": 261532695,
      "t_trigger_us": 261396732,
      "is_ai": true,
      "track_id": 0,
      "velocity": 0,
      "is_motor": true,
      "motor_id": 3,
      "accel_val": 2000,
      "base_duration_us": 127117
    },
    {
      "id": "M_2599",
      "pitch": 86,
      "t_note_us": 261617440,
      "t_trigger_us": 261481477,
      "is_ai": true,
      "track_id": 4,
      "velocity": 0,
      "is_motor": false,
      "motor_id": 0,
      "accel_val": 2000,
      "base_duration_us": 127117
    },
    {
      "id": "M_2600",
      "pitch": 83,
      "t_note_us": 261786929,
      "t_trigger_us": 261650966,
      "is_ai": true,
      "track_id": 2,
      "velocity": 0,
      "is_motor": false,
      "motor_id": 0,
      "accel_val": 2000,
      "base_duration_us": 127117
    },
    {
      "id": "M_2601",
      "pitch": 67,
      "t_note_us": 261862405,
      "t_trigger_us": 261726442,
      "is_ai": false,
      "track_id": 0,
      "velocity": 0,
      "is_motor": true,
      "motor_id": 1,
      "accel_val": 2000,
      "base_duration_us": 127117
    },
    {
      "id": "M_2602",
      "pitch": 71,
      "t_note_us": 262031894,
      "t_trigger_us": 261895931,
      "is_ai": false,
      "track_id": 0,
      "velocity": 0,
      "is_motor": true,
      "motor_id": 1,
      "accel_val": 2000,
      "base_duration_us": 127117
    },
    {
      "id": "M_2603",
      "pitch": 77,
      "t_note_us": 262116639,
      "t_trigger_us": 261980676,
      "is_ai": false,
      "track_id": 0,
      "velocity": 0,
      "is_motor": true,
      "motor_id": 2,
      "accel_val": 2000,
      "base_duration_us": 127117
    },
    {
      "id": "M_2604",
      "pitch": 67,
      "t_note_us": 262286128,
      "t_trigger_us": 262150165,
      "is_ai": false,
      "track_id": 0,
      "velocity": 0,
      "is_motor": true,
      "motor_id": 1,
      "accel_val": 2000,
      "base_duration_us": 127118
    },
    {
      "id": "M_2605",
      "pitch": 64,
      "t_note_us": 262879347,
      "t_trigger_us": 262743384,
      "is_ai": false,
      "track_id": 0,
      "velocity": 0,
      "is_motor": true,
      "motor_id": 1,
      "accel_val": 2000,
      "base_duration_us": 127118
    },
    {
      "id": "M_2606",
      "pitch": 71,
      "t_note_us": 263048837,
      "t_trigger_us": 262912874,
      "is_ai": false,
      "track_id": 0,
      "velocity": 0,
      "is_motor": true,
      "motor_id": 1,
      "accel_val": 2000,
      "base_duration_us": 127117
    },
    {
      "id": "M_2607",
      "pitch": 83,
      "t_note_us": 263133582,
      "t_trigger_us": 262997619,
      "is_ai": true,
      "track_id": 2,
      "velocity": 0,
      "is_motor": false,
      "motor_id": 0,
      "accel_val": 2000,
      "base_duration_us": 127117
    },
    {
      "id": "M_2608",
      "pitch": 76,
      "t_note_us": 263303071,
      "t_trigger_us": 263167108,
      "is_ai": false,
      "track_id": 0,
      "velocity": 0,
      "is_motor": true,
      "motor_id": 2,
      "accel_val": 2000,
      "base_duration_us": 127117
    },
    {
      "id": "M_2609",
      "pitch": 91,
      "t_note_us": 263397085,
      "t_trigger_us": 263261122,
      "is_ai": true,
      "track_id": 7,
      "velocity": 0,
      "is_motor": false,
      "motor_id": 0,
      "accel_val": 2000,
      "base_duration_us": 127117
    },
    {
      "id": "M_2610",
      "pitch": 88,
      "t_note_us": 263566574,
      "t_trigger_us": 263430611,
      "is_ai": true,
      "track_id": 5,
      "velocity": 0,
      "is_motor": false,
      "motor_id": 0,
      "accel_val": 2000,
      "base_duration_us": 127117
    },
    {
      "id": "M_2611",
      "pitch": 86,
      "t_note_us": 263651319,
      "t_trigger_us": 263515356,
      "is_ai": true,
      "track_id": 4,
      "velocity": 0,
      "is_motor": false,
      "motor_id": 0,
      "accel_val": 2000,
      "base_duration_us": 254236
    },
    {
      "id": "M_2612",
      "pitch": 66,
      "t_note_us": 263896286,
      "t_trigger_us": 263760323,
      "is_ai": false,
      "track_id": 0,
      "velocity": 0,
      "is_motor": true,
      "motor_id": 1,
      "accel_val": 2000,
      "base_duration_us": 127118
    },
    {
      "id": "M_2613",
      "pitch": 71,
      "t_note_us": 264065776,
      "t_trigger_us": 263929813,
      "is_ai": false,
      "track_id": 0,
      "velocity": 0,
      "is_motor": true,
      "motor_id": 1,
      "accel_val": 2000,
      "base_duration_us": 127117
    },
    {
      "id": "M_2614",
      "pitch": 81,
      "t_note_us": 264150521,
      "t_trigger_us": 264014558,
      "is_ai": true,
      "track_id": 1,
      "velocity": 0,
      "is_motor": false,
      "motor_id": 0,
      "accel_val": 2000,
      "base_duration_us": 127117
    },
    {
      "id": "M_2615",
      "pitch": 75,
      "t_note_us": 264320010,
      "t_trigger_us": 264184047,
      "is_ai": false,
      "track_id": 0,
      "velocity": 0,
      "is_motor": true,
      "motor_id": 2,
      "accel_val": 2000,
      "base_duration_us": 127117
    },
    {
      "id": "M_2616",
      "pitch": 90,
      "t_note_us": 264414024,
      "t_trigger_us": 264278061,
      "is_ai": true,
      "track_id": 0,
      "velocity": 0,
      "is_motor": true,
      "motor_id": 3,
      "accel_val": 2000,
      "base_duration_us": 254236
    },
    {
      "id": "M_2617",
      "pitch": 87,
      "t_note_us": 264668260,
      "t_trigger_us": 264532297,
      "is_ai": true,
      "track_id": 0,
      "velocity": 0,
      "is_motor": true,
      "motor_id": 3,
      "accel_val": 2000,
      "base_duration_us": 127118
    },
    {
      "id": "M_2618",
      "pitch": 64,
      "t_note_us": 264913227,
      "t_trigger_us": 264777264,
      "is_ai": false,
      "track_id": 0,
      "velocity": 0,
      "is_motor": true,
      "motor_id": 1,
      "accel_val": 2000,
      "base_duration_us": 127118
    },
    {
      "id": "M_2619",
      "pitch": 71,
      "t_note_us": 265082717,
      "t_trigger_us": 264946754,
      "is_ai": false,
      "track_id": 0,
      "velocity": 0,
      "is_motor": true,
      "motor_id": 1,
      "accel_val": 2000,
      "base_duration_us": 127117
    },
    {
      "id": "M_2620",
      "pitch": 86,
      "t_note_us": 265167462,
      "t_trigger_us": 265031499,
      "is_ai": true,
      "track_id": 4,
      "velocity": 0,
      "is_motor": false,
      "motor_id": 0,
      "accel_val": 2000,
      "base_duration_us": 127117
    },
    {
      "id": "M_2621",
      "pitch": 74,
      "t_note_us": 265336951,
      "t_trigger_us": 265200988,
      "is_ai": false,
      "track_id": 0,
      "velocity": 0,
      "is_motor": true,
      "motor_id": 1,
      "accel_val": 2000,
      "base_duration_us": 127117
    },
    {
      "id": "M_2622",
      "pitch": 91,
      "t_note_us": 265430965,
      "t_trigger_us": 265295002,
      "is_ai": true,
      "track_id": 7,
      "velocity": 0,
      "is_motor": false,
      "motor_id": 0,
      "accel_val": 2000,
      "base_duration_us": 254236
    },
    {
      "id": "M_2623",
      "pitch": 88,
      "t_note_us": 265685201,
      "t_trigger_us": 265549238,
      "is_ai": true,
      "track_id": 5,
      "velocity": 0,
      "is_motor": false,
      "motor_id": 0,
      "accel_val": 2000,
      "base_duration_us": 127118
    },
    {
      "id": "M_2624",
      "pitch": 86,
      "t_note_us": 265854691,
      "t_trigger_us": 265718728,
      "is_ai": true,
      "track_id": 4,
      "velocity": 0,
      "is_motor": false,
      "motor_id": 0,
      "accel_val": 2000,
      "base_duration_us": 127117
    },
    {
      "id": "M_2625",
      "pitch": 67,
      "t_note_us": 265930167,
      "t_trigger_us": 265794204,
      "is_ai": false,
      "track_id": 0,
      "velocity": 0,
      "is_motor": true,
      "motor_id": 1,
      "accel_val": 2000,
      "base_duration_us": 127117
    },
    {
      "id": "M_2626",
      "pitch": 71,
      "t_note_us": 266099656,
      "t_trigger_us": 265963693,
      "is_ai": false,
      "track_id": 0,
      "velocity": 0,
      "is_motor": true,
      "motor_id": 1,
      "accel_val": 2000,
      "base_duration_us": 127117
    },
    {
      "id": "M_2627",
      "pitch": 83,
      "t_note_us": 266184401,
      "t_trigger_us": 266048438,
      "is_ai": true,
      "track_id": 2,
      "velocity": 0,
      "is_motor": false,
      "motor_id": 0,
      "accel_val": 2000,
      "base_duration_us": 127117
    },
    {
      "id": "M_2628",
      "pitch": 77,
      "t_note_us": 266353890,
      "t_trigger_us": 266217927,
      "is_ai": false,
      "track_id": 0,
      "velocity": 0,
      "is_motor": true,
      "motor_id": 2,
      "accel_val": 2000,
      "base_duration_us": 127117
    },
    {
      "id": "M_2629",
      "pitch": 91,
      "t_note_us": 266447904,
      "t_trigger_us": 266311941,
      "is_ai": true,
      "track_id": 7,
      "velocity": 0,
      "is_motor": false,
      "motor_id": 0,
      "accel_val": 2000,
      "base_duration_us": 254236
    },
    {
      "id": "M_2630",
      "pitch": 88,
      "t_note_us": 266702140,
      "t_trigger_us": 266566177,
      "is_ai": true,
      "track_id": 5,
      "velocity": 0,
      "is_motor": false,
      "motor_id": 0,
      "accel_val": 2000,
      "base_duration_us": 127118
    },
    {
      "id": "M_2631",
      "pitch": 86,
      "t_note_us": 266871630,
      "t_trigger_us": 266735667,
      "is_ai": true,
      "track_id": 4,
      "velocity": 0,
      "is_motor": false,
      "motor_id": 0,
      "accel_val": 2000,
      "base_duration_us": 127117
    },
    {
      "id": "M_2632",
      "pitch": 64,
      "t_note_us": 266947106,
      "t_trigger_us": 266811143,
      "is_ai": false,
      "track_id": 0,
      "velocity": 0,
      "is_motor": true,
      "motor_id": 1,
      "accel_val": 2000,
      "base_duration_us": 127117
    },
    {
      "id": "M_2633",
      "pitch": 71,
      "t_note_us": 267116595,
      "t_trigger_us": 266980632,
      "is_ai": false,
      "track_id": 0,
      "velocity": 0,
      "is_motor": true,
      "motor_id": 1,
      "accel_val": 2000,
      "base_duration_us": 127117
    },
    {
      "id": "M_2634",
      "pitch": 83,
      "t_note_us": 267201340,
      "t_trigger_us": 267065377,
      "is_ai": true,
      "track_id": 2,
      "velocity": 0,
      "is_motor": false,
      "motor_id": 0,
      "accel_val": 2000,
      "base_duration_us": 127117
    },
    {
      "id": "M_2635",
      "pitch": 76,
      "t_note_us": 267370829,
      "t_trigger_us": 267234866,
      "is_ai": false,
      "track_id": 0,
      "velocity": 0,
      "is_motor": true,
      "motor_id": 2,
      "accel_val": 2000,
      "base_duration_us": 127117
    },
    {
      "id": "M_2636",
      "pitch": 91,
      "t_note_us": 267464843,
      "t_trigger_us": 267328880,
      "is_ai": true,
      "track_id": 7,
      "velocity": 0,
      "is_motor": false,
      "motor_id": 0,
      "accel_val": 2000,
      "base_duration_us": 127117
    },
    {
      "id": "M_2637",
      "pitch": 90,
      "t_note_us": 267634332,
      "t_trigger_us": 267498369,
      "is_ai": true,
      "track_id": 0,
      "velocity": 0,
      "is_motor": true,
      "motor_id": 3,
      "accel_val": 2000,
      "base_duration_us": 127117
    },
    {
      "id": "M_2638",
      "pitch": 86,
      "t_note_us": 267719077,
      "t_trigger_us": 267583114,
      "is_ai": true,
      "track_id": 4,
      "velocity": 0,
      "is_motor": false,
      "motor_id": 0,
      "accel_val": 2000,
      "base_duration_us": 127117
    },
    {
      "id": "M_2639",
      "pitch": 83,
      "t_note_us": 267888566,
      "t_trigger_us": 267752603,
      "is_ai": true,
      "track_id": 2,
      "velocity": 0,
      "is_motor": false,
      "motor_id": 0,
      "accel_val": 2000,
      "base_duration_us": 127117
    },
    {
      "id": "M_2640",
      "pitch": 66,
      "t_note_us": 267964042,
      "t_trigger_us": 267828079,
      "is_ai": false,
      "track_id": 0,
      "velocity": 0,
      "is_motor": true,
      "motor_id": 1,
      "accel_val": 2000,
      "base_duration_us": 127117
    },
    {
      "id": "M_2641",
      "pitch": 71,
      "t_note_us": 268133531,
      "t_trigger_us": 267997568,
      "is_ai": false,
      "track_id": 0,
      "velocity": 0,
      "is_motor": true,
      "motor_id": 1,
      "accel_val": 2000,
      "base_duration_us": 127117
    },
    {
      "id": "M_2642",
      "pitch": 81,
      "t_note_us": 268218276,
      "t_trigger_us": 268082313,
      "is_ai": true,
      "track_id": 1,
      "velocity": 0,
      "is_motor": false,
      "motor_id": 0,
      "accel_val": 2000,
      "base_duration_us": 127117
    },
    {
      "id": "M_2643",
      "pitch": 75,
      "t_note_us": 268387765,
      "t_trigger_us": 268251802,
      "is_ai": false,
      "track_id": 0,
      "velocity": 0,
      "is_motor": true,
      "motor_id": 2,
      "accel_val": 2000,
      "base_duration_us": 127117
    },
    {
      "id": "M_2644",
      "pitch": 91,
      "t_note_us": 268481779,
      "t_trigger_us": 268345816,
      "is_ai": true,
      "track_id": 7,
      "velocity": 0,
      "is_motor": false,
      "motor_id": 0,
      "accel_val": 2000,
      "base_duration_us": 127117
    },
    {
      "id": "M_2645",
      "pitch": 90,
      "t_note_us": 268651268,
      "t_trigger_us": 268515305,
      "is_ai": true,
      "track_id": 0,
      "velocity": 0,
      "is_motor": true,
      "motor_id": 3,
      "accel_val": 2000,
      "base_duration_us": 127117
    },
    {
      "id": "M_2646",
      "pitch": 87,
      "t_note_us": 268736013,
      "t_trigger_us": 268600050,
      "is_ai": true,
      "track_id": 0,
      "velocity": 0,
      "is_motor": true,
      "motor_id": 2,
      "accel_val": 2000,
      "base_duration_us": 254236
    },
    {
      "id": "M_2647",
      "pitch": 64,
      "t_note_us": 268980980,
      "t_trigger_us": 268845017,
      "is_ai": false,
      "track_id": 0,
      "velocity": 0,
      "is_motor": true,
      "motor_id": 1,
      "accel_val": 2000,
      "base_duration_us": 127118
    },
    {
      "id": "M_2648",
      "pitch": 71,
      "t_note_us": 269150470,
      "t_trigger_us": 269014507,
      "is_ai": false,
      "track_id": 0,
      "velocity": 0,
      "is_motor": true,
      "motor_id": 1,
      "accel_val": 2000,
      "base_duration_us": 127117
    },
    {
      "id": "M_2649",
      "pitch": 74,
      "t_note_us": 269235215,
      "t_trigger_us": 269099252,
      "is_ai": false,
      "track_id": 0,
      "velocity": 0,
      "is_motor": true,
      "motor_id": 0,
      "accel_val": 2000,
      "base_duration_us": 127117
    },
    {
      "id": "M_2650",
      "pitch": 81,
      "t_note_us": 269404704,
      "t_trigger_us": 269268741,
      "is_ai": true,
      "track_id": 1,
      "velocity": 0,
      "is_motor": false,
      "motor_id": 0,
      "accel_val": 2000,
      "base_duration_us": 127117
    },
    {
      "id": "M_2651",
      "pitch": 91,
      "t_note_us": 269498718,
      "t_trigger_us": 269362755,
      "is_ai": true,
      "track_id": 7,
      "velocity": 0,
      "is_motor": false,
      "motor_id": 0,
      "accel_val": 2000,
      "base_duration_us": 127117
    },
    {
      "id": "M_2652",
      "pitch": 90,
      "t_note_us": 269668207,
      "t_trigger_us": 269532244,
      "is_ai": true,
      "track_id": 0,
      "velocity": 0,
      "is_motor": true,
      "motor_id": 3,
      "accel_val": 2000,
      "base_duration_us": 127117
    },
    {
      "id": "M_2653",
      "pitch": 86,
      "t_note_us": 269752952,
      "t_trigger_us": 269616989,
      "is_ai": true,
      "track_id": 4,
      "velocity": 0,
      "is_motor": false,
      "motor_id": 0,
      "accel_val": 2000,
      "base_duration_us": 127117
    },
    {
      "id": "M_2654",
      "pitch": 83,
      "t_note_us": 269922441,
      "t_trigger_us": 269786478,
      "is_ai": true,
      "track_id": 2,
      "velocity": 0,
      "is_motor": false,
      "motor_id": 0,
      "accel_val": 2000,
      "base_duration_us": 127117
    },
    {
      "id": "M_2655",
      "pitch": 74,
      "t_note_us": 269997917,
      "t_trigger_us": 269861954,
      "is_ai": false,
      "track_id": 0,
      "velocity": 0,
      "is_motor": true,
      "motor_id": 1,
      "accel_val": 2000,
      "base_duration_us": 127117
    },
    {
      "id": "M_2656",
      "pitch": 67,
      "t_note_us": 269997917,
      "t_trigger_us": 269861954,
      "is_ai": false,
      "track_id": 0,
      "velocity": 0,
      "is_motor": true,
      "motor_id": 2,
      "accel_val": 2000,
      "base_duration_us": 127117
    },
    {
      "id": "M_2657",
      "pitch": 88,
      "t_note_us": 270516981,
      "t_trigger_us": 270381018,
      "is_ai": true,
      "track_id": 5,
      "velocity": 0,
      "is_motor": false,
      "motor_id": 0,
      "accel_val": 2000,
      "base_duration_us": 254237
    }
  ]
}