{
  "config": {
    "mode_idx": 0,
    "active_motors": [
      0,
      1,
      2,
      3
    ],
    "transpose": 0,
    "arp_speed_ms": 10,
    "gate_time": 100
  },
  "sustain_multiplier": 1.0,
  "notes": [
    {
      "id": "M_4",
      "pitch": 86,
      "t_note_us": 0,
      "t_trigger_us": 1,
      "is_ai": true,
      "track_id": 4,
      "velocity": 0,
      "is_motor": false,
      "motor_id": 0,
      "accel_val": 2000,
      "base_duration_us": 600000
    },
    {
      "id": "M_0",
      "pitch": 58,
      "t_note_us": 0,
      "t_trigger_us": 1,
      "is_ai": false,
      "track_id": 0,
      "velocity": 0,
      "is_motor": true,
      "motor_id": 0,
      "accel_val": 2000,
      "base_duration_us": 150000
    },
    {
      "id": "M_1",
      "pitch": 65,
      "t_note_us": 150000,
      "t_trigger_us": 14037,
      "is_ai": false,
      "track_id": 0,
      "velocity": 0,
      "is_motor": true,
      "motor_id": 1,
      "accel_val": 2000,
      "base_duration_us": 150000
    },
    {
      "id": "M_2",
      "pitch": 69,
      "t_note_us": 300000,
      "t_trigger_us": 164037,
      "is_ai": false,
      "track_id": 0,
      "velocity": 0,
      "is_motor": true,
      "motor_id": 1,
      "accel_val": 2000,
      "base_duration_us": 150000
    },
    {
      "id": "M_3",
      "pitch": 74,
      "t_note_us": 450000,
      "t_trigger_us": 314037,
      "is_ai": false,
      "track_id": 0,
      "velocity": 0,
      "is_motor": true,
      "motor_id": 1,
      "accel_val": 2000,
      "base_duration_us": 150000
    },
    {
      "id": "M_9",
      "pitch": 93,
      "t_note_us": 600000,
      "t_trigger_us": 464037,
      "is_ai": true,
      "track_id": 8,
      "velocity": 0,
      "is_motor": false,
      "motor_id": 0,
      "accel_val": 2000,
      "base_duration_us": 600000
    },
    {
      "id": "M_5",
      "pitch": 69,
      "t_note_us": 600000,
      "t_trigger_us": 464037,
      "is_ai": false,
      "track_id": 0,
      "velocity": 0,
      "is_motor": true,
      "motor_id": 1,
      "accel_val": 2000,
      "base_duration_us": 150000
    },
    {
      "id": "M_6",
      "pitch": 65,
      "t_note_us": 750000,
      "t_trigger_us": 614037,
      "is_ai": false,
      "track_id": 0,
      "velocity": 0,
      "is_motor": true,
      "motor_id": 1,
      "accel_val": 2000,
      "base_duration_us": 150000
    },
    {
      "id": "M_7",
      "pitch": 58,
      "t_note_us": 900000,
      "t_trigger_us": 764037,
      "is_ai": false,
      "track_id": 0,
      "velocity": 0,
      "is_motor": true,
      "motor_id": 0,
      "accel_val": 2000,
      "base_duration_us": 150000
    },
    {
      "id": "M_8",
      "pitch": 65,
      "t_note_us": 1050000,
      "t_trigger_us": 914037,
      "is_ai": false,
      "track_id": 0,
      "velocity": 0,
      "is_motor": true,
      "motor_id": 1,
      "accel_val": 2000,
      "base_duration_us": 150000
    },
    {
      "id": "M_10",
      "pitch": 69,
      "t_note_us": 1200000,
      "t_trigger_us": 1064037,
      "is_ai": false,
      "track_id": 0,
      "velocity": 0,
      "is_motor": true,
      "motor_id": 1,
      "accel_val": 2000,
      "base_duration_us": 150000
    },
    {
      "id": "M_13",
      "pitch": 74,
      "t_note_us": 1350000,
      "t_trigger_us": 1214037,
      "is_ai": false,
      "track_id": 0,
      "velocity": 0,
      "is_motor": true,
      "motor_id": 1,
      "accel_val": 2000,
      "base_duration_us": 450000
    },
    {
      "id": "M_11",
      "pitch": 69,
      "t_note_us": 1500000,
      "t_trigger_us": 1364037,
      "is_ai": false,
      "track_id": 0,
      "velocity": 0,
      "is_motor": true,
      "motor_id": 2,
      "accel_val": 2000,
      "base_duration_us": 150000
    },
    {
      "id": "M_12",
      "pitch": 65,
      "t_note_us": 1650000,
      "t_trigger_us": 1514037,
      "is_ai": false,
      "track_id": 0,
      "velocity": 0,
      "is_motor": true,
      "motor_id": 0,
      "accel_val": 2000,
      "base_duration_us": 150000
    },
    {
      "id": "M_18",
      "pitch": 86,
      "t_note_us": 1800000,
      "t_trigger_us": 1664037,
      "is_ai": true,
      "track_id": 4,
      "velocity": 0,
      "is_motor": false,
      "motor_id": 0,
      "accel_val": 2000,
      "base_duration_us": 600000
    },
    {
      "id": "M_14",
      "pitch": 58,
      "t_note_us": 1800000,
      "t_trigger_us": 1664037,
      "is_ai": false,
      "track_id": 0,
      "velocity": 0,
      "is_motor": true,
      "motor_id": 0,
      "accel_val": 2000,
      "base_duration_us": 150000
    },
    {
      "id": "M_15",
      "pitch": 65,
      "t_note_us": 1950000,
      "t_trigger_us": 1814037,
      "is_ai": false,
      "track_id": 0,
      "velocity": 0,
      "is_motor": true,
      "motor_id": 1,
      "accel_val": 2000,
      "base_duration_us": 150000
    },
    {
      "id": "M_16",
      "pitch": 69,
      "t_note_us": 2100000,
      "t_trigger_us": 1964037,
      "is_ai": false,
      "track_id": 0,
      "velocity": 0,
      "is_motor": true,
      "motor_id": 1,
      "accel_val": 2000,
      "base_duration_us": 150000
    },
    {
      "id": "M_17",
      "pitch": 74,
      "t_note_us": 2250000,
      "t_trigger_us": 2114037,
      "is_ai": false,
      "track_id": 0,
      "velocity": 0,
      "is_motor": true,
      "motor_id": 1,
      "accel_val": 2000,
      "base_duration_us": 150000
    },
    {
      "id": "M_23",
      "pitch": 93,
      "t_note_us": 2400000,
      "t_trigger_us": 2264037,
      "is_ai": true,
      "track_id": 8,
      "velocity": 0,
      "is_motor": false,
      "motor_id": 0,
      "accel_val": 2000,
      "base_duration_us": 600000
    },
    {
      "id": "M_19",
      "pitch": 69,
      "t_note_us": 2400000,
      "t_trigger_us": 2264037,
      "is_ai": false,
      "track_id": 0,
      "velocity": 0,
      "is_motor": true,
      "motor_id": 1,
      "accel_val": 2000,
      "base_duration_us": 150000
    },
    {
      "id": "M_20",
      "pitch": 65,
      "t_note_us": 2550000,
      "t_trigger_us": 2414037,
      "is_ai": false,
      "track_id": 0,
      "velocity": 0,
      "is_motor": true,
      "motor_id": 1,
      "accel_val": 2000,
      "base_duration_us": 150000
    },
    {
      "id": "M_21",
      "pitch": 58,
      "t_note_us": 2700000,
      "t_trigger_us": 2564037,
      "is_ai": false,
      "track_id": 0,
      "velocity": 0,
      "is_motor": true,
      "motor_id": 0,
      "accel_val": 2000,
      "base_duration_us": 150000
    },
    {
      "id": "M_22",
      "pitch": 65,
      "t_note_us": 2850000,
      "t_trigger_us": 2714037,
      "is_ai": false,
      "track_id": 0,
      "velocity": 0,
      "is_motor": true,
      "motor_id": 1,
      "accel_val": 2000,
      "base_duration_us": 150000
    },
    {
      "id": "M_24",
      "pitch": 69,
      "t_note_us": 3000000,
      "t_trigger_us": 2864037,
      "is_ai": false,
      "track_id": 0,
      "velocity": 0,
      "is_motor": true,
      "motor_id": 1,
      "accel_val": 2000,
      "base_duration_us": 150000
    },
    {
      "id": "M_27",
      "pitch": 74,
      "t_note_us": 3150000,
      "t_trigger_us": 3014037,
      "is_ai": false,
      "track_id": 0,
      "velocity": 0,
      "is_motor": true,
      "motor_id": 1,
      "accel_val": 2000,
      "base_duration_us": 450000
    },
    {
      "id": "M_25",
      "pitch": 69,
      "t_note_us": 3300000,
      "t_trigger_us": 3164037,
      "is_ai": false,
      "track_id": 0,
      "velocity": 0,
      "is_motor": true,
      "motor_id": 2,
      "accel_val": 2000,
      "base_duration_us": 150000
    },
    {
      "id": "M_26",
      "pitch": 65,
      "t_note_us": 3450000,
      "t_trigger_us": 3314037,
      "is_ai": false,
      "track_id": 0,
      "velocity": 0,
      "is_motor": true,
      "motor_id": 0,
      "accel_val": 2000,
      "base_duration_us": 150000
    },
    {
      "id": "M_31",
      "pitch": 88,
      "t_note_us": 3600000,
      "t_trigger_us": 3464037,
      "is_ai": true,
      "track_id": 5,
      "velocity": 0,
      "is_motor": false,
      "motor_id": 0,
      "accel_val": 2000,
      "base_duration_us": 450000
    },
    {
      "id": "M_28",
      "pitch": 60,
      "t_note_us": 3600000,
      "t_trigger_us": 3464037,
      "is_ai": false,
      "track_id": 0,
      "velocity": 0,
      "is_motor": true,
      "motor_id": 1,
      "accel_val": 2000,
      "base_duration_us": 150000
    },
    {
      "id": "M_29",
      "pitch": 67,
      "t_note_us": 3750000,
      "t_trigger_us": 3614037,
      "is_ai": false,
      "track_id": 0,
      "velocity": 0,
      "is_motor": true,
      "motor_id": 1,
      "accel_val": 2000,
      "base_duration_us": 150000
    },
    {
      "id": "M_30",
      "pitch": 69,
      "t_note_us": 3900000,
      "t_trigger_us": 3764037,
      "is_ai": false,
      "track_id": 0,
      "velocity": 0,
      "is_motor": true,
      "motor_id": 1,
      "accel_val": 2000,
      "base_duration_us": 150000
    },
    {
      "id": "M_32",
      "pitch": 76,
      "t_note_us": 4050000,
      "t_trigger_us": 3914037,
      "is_ai": false,
      "track_id": 0,
      "velocity": 0,
      "is_motor": true,
      "motor_id": 2,
      "accel_val": 2000,
      "base_duration_us": 150000
    },
    {
      "id": "M_37",
      "pitch": 93,
      "t_note_us": 4200000,
      "t_trigger_us": 4064037,
      "is_ai": true,
      "track_id": 8,
      "velocity": 0,
      "is_motor": false,
      "motor_id": 0,
      "accel_val": 2000,
      "base_duration_us": 600000
    },
    {
      "id": "M_33",
      "pitch": 69,
      "t_note_us": 4200000,
      "t_trigger_us": 4064037,
      "is_ai": false,
      "track_id": 0,
      "velocity": 0,
      "is_motor": true,
      "motor_id": 1,
      "accel_val": 2000,
      "base_duration_us": 150000
    },
    {
      "id": "M_34",
      "pitch": 67,
      "t_note_us": 4350000,
      "t_trigger_us": 4214037,
      "is_ai": false,
      "track_id": 0,
      "velocity": 0,
      "is_motor": true,
      "motor_id": 1,
      "accel_val": 2000,
      "base_duration_us": 150000
    },
    {
      "id": "M_35",
      "pitch": 60,
      "t_note_us": 4500000,
      "t_trigger_us": 4364037,
      "is_ai": false,
      "track_id": 0,
      "velocity": 0,
      "is_motor": true,
      "motor_id": 1,
      "accel_val": 2000,
      "base_duration_us": 150000
    },
    {
      "id": "M_36",
      "pitch": 67,
      "t_note_us": 4650000,
      "t_trigger_us": 4514037,
      "is_ai": false,
      "track_id": 0,
      "velocity": 0,
      "is_motor": true,
      "motor_id": 1,
      "accel_val": 2000,
      "base_duration_us": 150000
    },
    {
      "id": "M_38",
      "pitch": 69,
      "t_note_us": 4800000,
      "t_trigger_us": 4664037,
      "is_ai": false,
      "track_id": 0,
      "velocity": 0,
      "is_motor": true,
      "motor_id": 1,
      "accel_val": 2000,
      "base_duration_us": 150000
    },
    {
      "id": "M_41",
      "pitch": 76,
      "t_note_us": 4950000,
      "t_trigger_us": 4814037,
      "is_ai": false,
      "track_id": 0,
      "velocity": 0,
      "is_motor": true,
      "motor_id": 2,
      "accel_val": 2000,
      "base_duration_us": 450000
    },
    {
      "id": "M_39",
      "pitch": 69,
      "t_note_us": 5100000,
      "t_trigger_us": 4964037,
      "is_ai": false,
      "track_id": 0,
      "velocity": 0,
      "is_motor": true,
      "motor_id": 1,
      "accel_val": 2000,
      "base_duration_us": 150000
    },
    {
      "id": "M_40",
      "pitch": 67,
      "t_note_us": 5250000,
      "t_trigger_us": 5114037,
      "is_ai": false,
      "track_id": 0,
      "velocity": 0,
      "is_motor": true,
      "motor_id": 1,
      "accel_val": 2000,
      "base_duration_us": 150000
    },
    {
      "id": "M_45",
      "pitch": 88,
      "t_note_us": 5400000,
      "t_trigger_us": 5264037,
      "is_ai": true,
      "track_id": 5,
      "velocity": 0,
      "is_motor": false,
      "motor_id": 0,
      "accel_val": 2000,
      "base_duration_us": 450000
    },
    {
      "id": "M_42",
      "pitch": 60,
      "t_note_us": 5400000,
      "t_trigger_us": 5264037,
      "is_ai": false,
      "track_id": 0,
      "velocity": 0,
      "is_motor": true,
      "motor_id": 1,
      "accel_val": 2000,
      "base_duration_us": 150000
    },
    {
      "id": "M_43",
      "pitch": 67,
      "t_note_us": 5550000,
      "t_trigger_us": 5414037,
      "is_ai": false,
      "track_id": 0,
      "velocity": 0,
      "is_motor": true,
      "motor_id": 1,
      "accel_val": 2000,
      "base_duration_us": 150000
    },
    {
      "id": "M_44",
      "pitch": 69,
      "t_note_us": 5700000,
      "t_trigger_us": 5564037,
      "is_ai": false,
      "track_id": 0,
      "velocity": 0,
      "is_motor": true,
      "motor_id": 1,
      "accel_val": 2000,
      "base_duration_us": 150000
    },
    {
      "id": "M_46",
      "pitch": 76,
      "t_note_us": 5850000,
      "t_trigger_us": 5714037,
      "is_ai": false,
      "track_id": 0,
      "velocity": 0,
      "is_motor": true,
      "motor_id": 2,
      "accel_val": 2000,
      "base_duration_us": 150000
    },
    {
      "id": "M_51",
      "pitch": 93,
      "t_note_us": 6000000,
      "t_trigger_us": 5864037,
      "is_ai": true,
      "track_id": 8,
      "velocity": 0,
      "is_motor": false,
      "motor_id": 0,
      "accel_val": 2000,
      "base_duration_us": 600000
    },
    {
      "id": "M_47",
      "pitch": 69,
      "t_note_us": 6000000,
      "t_trigger_us": 5864037,
      "is_ai": false,
      "track_id": 0,
      "velocity": 0,
      "is_motor": true,
      "motor_id": 1,
      "accel_val": 2000,
      "base_duration_us": 150000
    },
    {
      "id": "M_48",
      "pitch": 67,
      "t_note_us": 6150000,
      "t_trigger_us": 6014037,
      "is_ai": false,
      "track_id": 0,
      "velocity": 0,
      "is_motor": true,
      "motor_id": 1,
      "accel_val": 2000,
      "base_duration_us": 150000
    },
    {
      "id": "M_49",
      "pitch": 60,
      "t_note_us": 6300000,
      "t_trigger_us": 6164037,
      "is_ai": false,
      "track_id": 0,
      "velocity": 0,
      "is_motor": true,
      "motor_id": 1,
      "accel_val": 2000,
      "base_duration_us": 150000
    },
    {
      "id": "M_50",
      "pitch": 67,
      "t_note_us": 6450000,
      "t_trigger_us": 6314037,
      "is_ai": false,
      "track_id": 0,
      "velocity": 0,
      "is_motor": true,
      "motor_id": 1,
      "accel_val": 2000,
      "base_duration_us": 150000
    },
    {
      "id": "M_52",
      "pitch": 69,
      "t_note_us": 6600000,
      "t_trigger_us": 6464037,
      "is_ai": false,
      "track_id": 0,
      "velocity": 0,
      "is_motor": true,
      "motor_id": 1,
      "accel_val": 2000,
      "base_duration_us": 150000
    },
    {
      "id": "M_55",
      "pitch": 76,
      "t_note_us": 6750000,
      "t_trigger_us": 6614037,
      "is_ai": false,
      "track_id": 0,
      "velocity": 0,
      "is_motor": true,
      "motor_id": 2,
      "accel_val": 2000,
      "base_duration_us": 450000
    },
    {
      "id": "M_53",
      "pitch": 69,
      "t_note_us": 6900000,
      "t_trigger_us": 6764037,
      "is_ai": false,
      "track_id": 0,
      "velocity": 0,
      "is_motor": true,
      "motor_id": 1,
      "accel_val": 2000,
      "base_duration_us": 150000
    },
    {
      "id": "M_54",
      "pitch": 67,
      "t_note_us": 7050000,
      "t_trigger_us": 6914037,
      "is_ai": false,
      "track_id": 0,
      "velocity": 0,
      "is_motor": true,
      "motor_id": 1,
      "accel_val": 2000,
      "base_duration_us": 150000
    },
    {
      "id": "M_60",
      "pitch": 89,
      "t_note_us": 7200000,
      "t_trigger_us": 7064037,
      "is_ai": true,
      "track_id": 6,
      "velocity": 0,
      "is_motor": false,
      "motor_id": 0,
      "accel_val": 2000,
      "base_duration_us": 600000
    },
    {
      "id": "M_56",
      "pitch": 62,
      "t_note_us": 7200000,
      "t_trigger_us": 7064037,
      "is_ai": false,
      "track_id": 0,
      "velocity": 0,
      "is_motor": true,
      "motor_id": 1,
      "accel_val": 2000,
      "base_duration_us": 150000
    },
    {
      "id": "M_57",
      "pitch": 65,
      "t_note_us": 7350000,
      "t_trigger_us": 7214037,
      "is_ai": false,
      "track_id": 0,
      "velocity": 0,
      "is_motor": true,
      "motor_id": 1,
      "accel_val": 2000,
      "base_duration_us": 150000
    },
    {
      "id": "M_58",
      "pitch": 69,
      "t_note_us": 7500000,
      "t_trigger_us": 7364037,
      "is_ai": false,
      "track_id": 0,
      "velocity": 0,
      "is_motor": true,
      "motor_id": 1,
      "accel_val": 2000,
      "base_duration_us": 150000
    },
    {
      "id": "M_59",
      "pitch": 77,
      "t_note_us": 7650000,
      "t_trigger_us": 7514037,
      "is_ai": false,
      "track_id": 0,
      "velocity": 0,
      "is_motor": true,
      "motor_id": 2,
      "accel_val": 2000,
      "base_duration_us": 150000
    },
    {
      "id": "M_65",
      "pitch": 93,
      "t_note_us": 7800000,
      "t_trigger_us": 7664037,
      "is_ai": true,
      "track_id": 8,
      "velocity": 0,
      "is_motor": false,
      "motor_id": 0,
      "accel_val": 2000,
      "base_duration_us": 600000
    },
    {
      "id": "M_61",
      "pitch": 69,
      "t_note_us": 7800000,
      "t_trigger_us": 7664037,
      "is_ai": false,
      "track_id": 0,
      "velocity": 0,
      "is_motor": true,
      "motor_id": 1,
      "accel_val": 2000,
      "base_duration_us": 150000
    },
    {
      "id": "M_62",
      "pitch": 65,
      "t_note_us": 7950000,
      "t_trigger_us": 7814037,
      "is_ai": false,
      "track_id": 0,
      "velocity": 0,
      "is_motor": true,
      "motor_id": 1,
      "accel_val": 2000,
      "base_duration_us": 150000
    },
    {
      "id": "M_63",
      "pitch": 62,
      "t_note_us": 8100000,
      "t_trigger_us": 7964037,
      "is_ai": false,
      "track_id": 0,
      "velocity": 0,
      "is_motor": true,
      "motor_id": 1,
      "accel_val": 2000,
      "base_duration_us": 150000
    },
    {
      "id": "M_64",
      "pitch": 65,
      "t_note_us": 8250000,
      "t_trigger_us": 8114037,
      "is_ai": false,
      "track_id": 0,
      "velocity": 0,
      "is_motor": true,
      "motor_id": 1,
      "accel_val": 2000,
      "base_duration_us": 150000
    },
    {
      "id": "M_66",
      "pitch": 69,
      "t_note_us": 8400000,
      "t_trigger_us": 8264037,
      "is_ai": false,
      "track_id": 0,
      "velocity": 0,
      "is_motor": true,
      "motor_id": 1,
      "accel_val": 2000,
      "base_duration_us": 150000
    },
    {
      "id": "M_69",
      "pitch": 77,
      "t_note_us": 8550000,
      "t_trigger_us": 8414037,
      "is_ai": false,
      "track_id": 0,
      "velocity": 0,
      "is_motor": true,
      "motor_id": 2,
      "accel_val": 2000,
      "base_duration_us": 450000
    },
    {
      "id": "M_67",
      "pitch": 69,
      "t_note_us": 8700000,
      "t_trigger_us": 8564037,
      "is_ai": false,
      "track_id": 0,
      "velocity": 0,
      "is_motor": true,
      "motor_id": 1,
      "accel_val": 2000,
      "base_duration_us": 150000
    },
    {
      "id": "M_68",
      "pitch": 65,
      "t_note_us": 8850000,
      "t_trigger_us": 8714037,
      "is_ai": false,
      "track_id": 0,
      "velocity": 0,
      "is_motor": true,
      "motor_id": 1,
      "accel_val": 2000,
      "base_duration_us": 150000
    },
    {
      "id": "M_74",
      "pitch": 89,
      "t_note_us": 9000000,
      "t_trigger_us": 8864037,
      "is_ai": true,
      "track_id": 6,
      "velocity": 0,
      "is_motor": false,
      "motor_id": 0,
      "accel_val": 2000,
      "base_duration_us": 600000
    },
    {
      "id": "M_70",
      "pitch": 62,
      "t_note_us": 9000000,
      "t_trigger_us": 8864037,
      "is_ai": false,
      "track_id": 0,
      "velocity": 0,
      "is_motor": true,
      "motor_id": 1,
      "accel_val": 2000,
      "base_duration_us": 150000
    },
    {
      "id": "M_71",
      "pitch": 65,
      "t_note_us": 9150000,
      "t_trigger_us": 9014037,
      "is_ai": false,
      "track_id": 0,
      "velocity": 0,
      "is_motor": true,
      "motor_id": 1,
      "accel_val": 2000,
      "base_duration_us": 150000
    },
    {
      "id": "M_72",
      "pitch": 69,
      "t_note_us": 9300000,
      "t_trigger_us": 9164037,
      "is_ai": false,
      "track_id": 0,
      "velocity": 0,
      "is_motor": true,
      "motor_id": 1,
      "accel_val": 2000,
      "base_duration_us": 150000
    },
    {
      "id": "M_73",
      "pitch": 77,
      "t_note_us": 9450000,
      "t_trigger_us": 9314037,
      "is_ai": false,
      "track_id": 0,
      "velocity": 0,
      "is_motor": true,
      "motor_id": 2,
      "accel_val": 2000,
      "base_duration_us": 150000
    },
    {
      "id": "M_79",
      "pitch": 93,
      "t_note_us": 9600000,
      "t_trigger_us": 9464037,
      "is_ai": true,
      "track_id": 8,
      "velocity": 0,
      "is_motor": false,
      "motor_id": 0,
      "accel_val": 2000,
      "base_duration_us": 600000
    },
    {
      "id": "M_75",
      "pitch": 69,
      "t_note_us": 9600000,
      "t_trigger_us": 9464037,
      "is_ai": false,
      "track_id": 0,
      "velocity": 0,
      "is_motor": true,
      "motor_id": 1,
      "accel_val": 2000,
      "base_duration_us": 150000
    },
    {
      "id": "M_76",
      "pitch": 65,
      "t_note_us": 9750000,
      "t_trigger_us": 9614037,
      "is_ai": false,
      "track_id": 0,
      "velocity": 0,
      "is_motor": true,
      "motor_id": 1,
      "accel_val": 2000,
      "base_duration_us": 150000
    },
    {
      "id": "M_77",
      "pitch": 62,
      "t_note_us": 9900000,
      "t_trigger_us": 9764037,
      "is_ai": false,
      "track_id": 0,
      "velocity": 0,
      "is_motor": true,
      "motor_id": 1,
      "accel_val": 2000,
      "base_duration_us": 150000
    },
    {
      "id": "M_78",
      "pitch": 65,
      "t_note_us": 10050000,
      "t_trigger_us": 9914037,
      "is_ai": false,
      "track_id": 0,
      "velocity": 0,
      "is_motor": true,
      "motor_id": 1,
      "accel_val": 2000,
      "base_duration_us": 150000
    },
    {
      "id": "M_80",
      "pitch": 69,
      "t_note_us": 10200000,
      "t_trigger_us": 10064037,
      "is_ai": false,
      "track_id": 0,
      "velocity": 0,
      "is_motor": true,
      "motor_id": 1,
      "accel_val": 2000,
      "base_duration_us": 150000
    },
    {
      "id": "M_83",
      "pitch": 77,
      "t_note_us": 10350000,
      "t_trigger_us": 10214037,
      "is_ai": false,
      "track_id": 0,
      "velocity": 0,
      "is_motor": true,
      "motor_id": 2,
      "accel_val": 2000,
      "base_duration_us": 450000
    },
    {
      "id": "M_81",
      "pitch": 69,
      "t_note_us": 10500000,
      "t_trigger_us": 10364037,
      "is_ai": false,
      "track_id": 0,
      "velocity": 0,
      "is_motor": true,
      "motor_id": 1,
      "accel_val": 2000,
      "base_duration_us": 150000
    },
    {
      "id": "M_82",
      "pitch": 65,
      "t_note_us": 10650000,
      "t_trigger_us": 10514037,
      "is_ai": false,
      "track_id": 0,
      "velocity": 0,
      "is_motor": true,
      "motor_id": 1,
      "accel_val": 2000,
      "base_duration_us": 150000
    },
    {
      "id": "M_88",
      "pitch": 91,
      "t_note_us": 10800000,
      "t_trigger_us": 10664037,
      "is_ai": true,
      "track_id": 7,
      "velocity": 0,
      "is_motor": false,
      "motor_id": 0,
      "accel_val": 2000,
      "base_duration_us": 600000
    },
    {
      "id": "M_84",
      "pitch": 60,
      "t_note_us": 10800000,
      "t_trigger_us": 10664037,
      "is_ai": false,
      "track_id": 0,
      "velocity": 0,
      "is_motor": true,
      "motor_id": 1,
      "accel_val": 2000,
      "base_duration_us": 150000
    },
    {
      "id": "M_85",
      "pitch": 67,
      "t_note_us": 10950000,
      "t_trigger_us": 10814037,
      "is_ai": false,
      "track_id": 0,
      "velocity": 0,
      "is_motor": true,
      "motor_id": 1,
      "accel_val": 2000,
      "base_duration_us": 150000
    },
    {
      "id": "M_86",
      "pitch": 69,
      "t_note_us": 11100000,
      "t_trigger_us": 10964037,
      "is_ai": false,
      "track_id": 0,
      "velocity": 0,
      "is_motor": true,
      "motor_id": 1,
      "accel_val": 2000,
      "base_duration_us": 150000
    },
    {
      "id": "M_87",
      "pitch": 76,
      "t_note_us": 11250000,
      "t_trigger_us": 11114037,
      "is_ai": false,
      "track_id": 0,
      "velocity": 0,
      "is_motor": true,
      "motor_id": 2,
      "accel_val": 2000,
      "base_duration_us": 150000
    },
    {
      "id": "M_93",
      "pitch": 93,
      "t_note_us": 11400000,
      "t_trigger_us": 11264037,
      "is_ai": true,
      "track_id": 8,
      "velocity": 0,
      "is_motor": false,
      "motor_id": 0,
      "accel_val": 2000,
      "base_duration_us": 600000
    },
    {
      "id": "M_89",
      "pitch": 69,
      "t_note_us": 11400000,
      "t_trigger_us": 11264037,
      "is_ai": false,
      "track_id": 0,
      "velocity": 0,
      "is_motor": true,
      "motor_id": 1,
      "accel_val": 2000,
      "base_duration_us": 150000
    },
    {
      "id": "M_94",
      "pitch": 69,
      "t_note_us": 11400000,
      "t_trigger_us": 11264037,
      "is_ai": false,
      "track_id": 0,
      "velocity": 0,
      "is_motor": true,
      "motor_id": 2,
      "accel_val": 2000,
      "base_duration_us": 600000
    },
    {
      "id": "M_90",
      "pitch": 67,
      "t_note_us": 11550000,
      "t_trigger_us": 11414037,
      "is_ai": false,
      "track_id": 0,
      "velocity": 0,
      "is_motor": true,
      "motor_id": 1,
      "accel_val": 2000,
      "base_duration_us": 150000
    },
    {
      "id": "M_91",
      "pitch": 60,
      "t_note_us": 11700000,
      "t_trigger_us": 11564037,
      "is_ai": false,
      "track_id": 0,
      "velocity": 0,
      "is_motor": true,
      "motor_id": 1,
      "accel_val": 2000,
      "base_duration_us": 150000
    },
    {
      "id": "M_92",
      "pitch": 67,
      "t_note_us": 11850000,
      "t_trigger_us": 11714037,
      "is_ai": false,
      "track_id": 0,
      "velocity": 0,
      "is_motor": true,
      "motor_id": 1,
      "accel_val": 2000,
      "base_duration_us": 150000
    },
    {
      "id": "M_95",
      "pitch": 69,
      "t_note_us": 12000000,
      "t_trigger_us": 11864037,
      "is_ai": false,
      "track_id": 0,
      "velocity": 0,
      "is_motor": true,
      "motor_id": 1,
      "accel_val": 2000,
      "base_duration_us": 150000
    },
    {
      "id": "M_98",
      "pitch": 76,
      "t_note_us": 12150000,
      "t_trigger_us": 12014037,
      "is_ai": false,
      "track_id": 0,
      "velocity": 0,
      "is_motor": true,
      "motor_id": 2,
      "accel_val": 2000,
      "base_duration_us": 450000
    },
    {
      "id": "M_96",
      "pitch": 69,
      "t_note_us": 12300000,
      "t_trigger_us": 12164037,
      "is_ai": false,
      "track_id": 0,
      "velocity": 0,
      "is_motor": true,
      "motor_id": 1,
      "accel_val": 2000,
      "base_duration_us": 150000
    },
    {
      "id": "M_97",
      "pitch": 67,
      "t_note_us": 12450000,
      "t_trigger_us": 12314037,
      "is_ai": false,
      "track_id": 0,
      "velocity": 0,
      "is_motor": true,
      "motor_id": 1,
      "accel_val": 2000,
      "base_duration_us": 150000
    },
    {
      "id": "M_103",
      "pitch": 91,
      "t_note_us": 12600000,
      "t_trigger_us": 12464037,
      "is_ai": true,
      "track_id": 7,
      "velocity": 0,
      "is_motor": false,
      "motor_id": 0,
      "accel_val": 2000,
      "base_duration_us": 600000
    },
    {
      "id": "M_99",
      "pitch": 60,
      "t_note_us": 12600000,
      "t_trigger_us": 12464037,
      "is_ai": false,
      "track_id": 0,
      "velocity": 0,
      "is_motor": true,
      "motor_id": 1,
      "accel_val": 2000,
      "base_duration_us": 150000
    },
    {
      "id": "M_100",
      "pitch": 67,
      "t_note_us": 12750000,
      "t_trigger_us": 12614037,
      "is_ai": false,
      "track_id": 0,
      "velocity": 0,
      "is_motor": true,
      "motor_id": 1,
      "accel_val": 2000,
      "base_duration_us": 150000
    },
    {
      "id": "M_101",
      "pitch": 69,
      "t_note_us": 12900000,
      "t_trigger_us": 12764037,
      "is_ai": false,
      "track_id": 0,
      "velocity": 0,
      "is_motor": true,
      "motor_id": 1,
      "accel_val": 2000,
      "base_duration_us": 150000
    },
    {
      "id": "M_102",
      "pitch": 76,
      "t_note_us": 13050000,
      "t_trigger_us": 12914037,
      "is_ai": false,
      "track_id": 0,
      "velocity": 0,
      "is_motor": true,
      "motor_id": 2,
      "accel_val": 2000,
      "base_duration_us": 150000
    },
    {
      "id": "M_108",
      "pitch": 93,
      "t_note_us": 13200000,
      "t_trigger_us": 13064037,
      "is_ai": true,
      "track_id": 8,
      "velocity": 0,
      "is_motor": false,
      "motor_id": 0,
      "accel_val": 2000,
      "base_duration_us": 600000
    },
    {
      "id": "M_104",
      "pitch": 69,
      "t_note_us": 13200000,
      "t_trigger_us": 13064037,
      "is_ai": false,
      "track_id": 0,
      "velocity": 0,
      "is_motor": true,
      "motor_id": 1,
      "accel_val": 2000,
      "base_duration_us": 150000
    },
    {
      "id": "M_109",
      "pitch": 69,
      "t_note_us": 13200000,
      "t_trigger_us": 13064037,
      "is_ai": false,
      "track_id": 0,
      "velocity": 0,
      "is_motor": true,
      "motor_id": 2,
      "accel_val": 2000,
      "base_duration_us": 600000
    },
    {
      "id": "M_105",
      "pitch": 67,
      "t_note_us": 13350000,
      "t_trigger_us": 13214037,
      "is_ai": false,
      "track_id": 0,
      "velocity": 0,
      "is_motor": true,
      "motor_id": 1,
      "accel_val": 2000,
      "base_duration_us": 150000
    },
    {
      "id": "M_106",
      "pitch": 60,
      "t_note_us": 13500000,
      "t_trigger_us": 13364037,
      "is_ai": false,
      "track_id": 0,
      "velocity": 0,
      "is_motor": true,
      "motor_id": 1,
      "accel_val": 2000,
      "base_duration_us": 150000
    },
    {
      "id": "M_107",
      "pitch": 67,
      "t_note_us": 13650000,
      "t_trigger_us": 13514037,
      "is_ai": false,
      "track_id": 0,
      "velocity": 0,
      "is_motor": true,
      "motor_id": 1,
      "accel_val": 2000,
      "base_duration_us": 150000
    },
    {
      "id": "M_110",
      "pitch": 69,
      "t_note_us": 13800000,
      "t_trigger_us": 13664037,
      "is_ai": false,
      "track_id": 0,
      "velocity": 0,
      "is_motor": true,
      "motor_id": 1,
      "accel_val": 2000,
      "base_duration_us": 150000
    },
    {
      "id": "M_113",
      "pitch": 76,
      "t_note_us": 13950000,
      "t_trigger_us": 13814037,
      "is_ai": false,
      "track_id": 0,
      "velocity": 0,
      "is_motor": true,
      "motor_id": 2,
      "accel_val": 2000,
      "base_duration_us": 450000
    },
    {
      "id": "M_111",
      "pitch": 69,
      "t_note_us": 14100000,
      "t_trigger_us": 13964037,
      "is_ai": false,
      "track_id": 0,
      "velocity": 0,
      "is_motor": true,
      "motor_id": 1,
      "accel_val": 2000,
      "base_duration_us": 150000
    },
    {
      "id": "M_112",
      "pitch": 67,
      "t_note_us": 14250000,
      "t_trigger_us": 14114037,
      "is_ai": false,
      "track_id": 0,
      "velocity": 0,
      "is_motor": true,
      "motor_id": 1,
      "accel_val": 2000,
      "base_duration_us": 150000
    },
    {
      "id": "M_115",
      "pitch": 86,
      "t_note_us": 14400000,
      "t_trigger_us": 14264037,
      "is_ai": true,
      "track_id": 4,
      "velocity": 0,
      "is_motor": false,
      "motor_id": 0,
      "accel_val": 2000,
      "base_duration_us": 150000
    },
    {
      "id": "M_114",
      "pitch": 58,
      "t_note_us": 14400000,
      "t_trigger_us": 14264037,
      "is_ai": false,
      "track_id": 0,
      "velocity": 0,
      "is_motor": true,
      "motor_id": 0,
      "accel_val": 2000,
      "base_duration_us": 150000
    },
    {
      "id": "M_116",
      "pitch": 65,
      "t_note_us": 14550000,
      "t_trigger_us": 14414037,
      "is_ai": false,
      "track_id": 0,
      "velocity": 0,
      "is_motor": true,
      "motor_id": 1,
      "accel_val": 2000,
      "base_duration_us": 150000
    },
    {
      "id": "M_117",
      "pitch": 70,
      "t_note_us": 14550000,
      "t_trigger_us": 14414037,
      "is_ai": false,
      "track_id": 0,
      "velocity": 0,
      "is_motor": true,
      "motor_id": 2,
      "accel_val": 2000,
      "base_duration_us": 150000
    },
    {
      "id": "M_118",
      "pitch": 69,
      "t_note_us": 14700000,
      "t_trigger_us": 14564037,
      "is_ai": false,
      "track_id": 0,
      "velocity": 0,
      "is_motor": true,
      "motor_id": 1,
      "accel_val": 2000,
      "base_duration_us": 150000
    },
    {
      "id": "M_119",
      "pitch": 69,
      "t_note_us": 14700000,
      "t_trigger_us": 14564037,
      "is_ai": false,
      "track_id": 0,
      "velocity": 0,
      "is_motor": true,
      "motor_id": 2,
      "accel_val": 2000,
      "base_duration_us": 150000
    },
    {
      "id": "M_120",
      "pitch": 74,
      "t_note_us": 14850000,
      "t_trigger_us": 14714037,
      "is_ai": false,
      "track_id": 0,
      "velocity": 0,
      "is_motor": true,
      "motor_id": 1,
      "accel_val": 2000,
      "base_duration_us": 150000
    },
    {
      "id": "M_121",
      "pitch": 77,
      "t_note_us": 14850000,
      "t_trigger_us": 14714037,
      "is_ai": false,
      "track_id": 0,
      "velocity": 0,
      "is_motor": true,
      "motor_id": 2,
      "accel_val": 2000,
      "base_duration_us": 150000
    },
    {
      "id": "M_122",
      "pitch": 93,
      "t_note_us": 15000000,
      "t_trigger_us": 14864037,
      "is_ai": true,
      "track_id": 8,
      "velocity": 0,
      "is_motor": false,
      "motor_id": 0,
      "accel_val": 2000,
      "base_duration_us": 150000
    },
    {
      "id": "M_123",
      "pitch": 93,
      "t_note_us": 15000000,
      "t_trigger_us": 14864037,
      "is_ai": true,
      "track_id": 8,
      "velocity": 0,
      "is_motor": false,
      "motor_id": 0,
      "accel_val": 2000,
      "base_duration_us": 150000
    },
    {
      "id": "M_124",
      "pitch": 69,
      "t_note_us": 15000000,
      "t_trigger_us": 14864037,
      "is_ai": false,
      "track_id": 0,
      "velocity": 0,
      "is_motor": true,
      "motor_id": 1,
      "accel_val": 2000,
      "base_duration_us": 150000
    },
    {
      "id": "M_125",
      "pitch": 65,
      "t_note_us": 15150000,
      "t_trigger_us": 15014037,
      "is_ai": false,
      "track_id": 0,
      "velocity": 0,
      "is_motor": true,
      "motor_id": 1,
      "accel_val": 2000,
      "base_duration_us": 150000
    },
    {
      "id": "M_126",
      "pitch": 77,
      "t_note_us": 15150000,
      "t_trigger_us": 15014037,
      "is_ai": false,
      "track_id": 0,
      "velocity": 0,
      "is_motor": true,
      "motor_id": 2,
      "accel_val": 2000,
      "base_duration_us": 150000
    },
    {
      "id": "M_127",
      "pitch": 58,
      "t_note_us": 15300000,
      "t_trigger_us": 15164037,
      "is_ai": false,
      "track_id": 0,
      "velocity": 0,
      "is_motor": true,
      "motor_id": 0,
      "accel_val": 2000,
      "base_duration_us": 150000
    },
    {
      "id": "M_128",
      "pitch": 69,
      "t_note_us": 15300000,
      "t_trigger_us": 15164037,
      "is_ai": false,
      "track_id": 0,
      "velocity": 0,
      "is_motor": true,
      "motor_id": 1,
      "accel_val": 2000,
      "base_duration_us": 150000
    },
    {
      "id": "M_129",
      "pitch": 65,
      "t_note_us": 15450000,
      "t_trigger_us": 15314037,
      "is_ai": false,
      "track_id": 0,
      "velocity": 0,
      "is_motor": true,
      "motor_id": 1,
      "accel_val": 2000,
      "base_duration_us": 150000
    },
    {
      "id": "M_130",
      "pitch": 70,
      "t_note_us": 15450000,
      "t_trigger_us": 15314037,
      "is_ai": false,
      "track_id": 0,
      "velocity": 0,
      "is_motor": true,
      "motor_id": 2,
      "accel_val": 2000,
      "base_duration_us": 150000
    },
    {
      "id": "M_131",
      "pitch": 69,
      "t_note_us": 15600000,
      "t_trigger_us": 15464037,
      "is_ai": false,
      "track_id": 0,
      "velocity": 0,
      "is_motor": true,
      "motor_id": 1,
      "accel_val": 2000,
      "base_duration_us": 150000
    },
    {
      "id": "M_132",
      "pitch": 74,
      "t_note_us": 15600000,
      "t_trigger_us": 15464037,
      "is_ai": false,
      "track_id": 0,
      "velocity": 0,
      "is_motor": true,
      "motor_id": 0,
      "accel_val": 2000,
      "base_duration_us": 150000
    },
    {
      "id": "M_133",
      "pitch": 74,
      "t_note_us": 15750000,
      "t_trigger_us": 15614037,
      "is_ai": false,
      "track_id": 0,
      "velocity": 0,
      "is_motor": true,
      "motor_id": 1,
      "accel_val": 2000,
      "base_duration_us": 150000
    },
    {
      "id": "M_134",
      "pitch": 70,
      "t_note_us": 15750000,
      "t_trigger_us": 15614037,
      "is_ai": false,
      "track_id": 0,
      "velocity": 0,
      "is_motor": true,
      "motor_id": 2,
      "accel_val": 2000,
      "base_duration_us": 150000
    },
    {
      "id": "M_135",
      "pitch": 69,
      "t_note_us": 15900000,
      "t_trigger_us": 15764037,
      "is_ai": false,
      "track_id": 0,
      "velocity": 0,
      "is_motor": true,
      "motor_id": 1,
      "accel_val": 2000,
      "base_duration_us": 150000
    },
    {
      "id": "M_136",
      "pitch": 69,
      "t_note_us": 15900000,
      "t_trigger_us": 15764037,
      "is_ai": false,
      "track_id": 0,
      "velocity": 0,
      "is_motor": true,
      "motor_id": 2,
      "accel_val": 2000,
      "base_duration_us": 150000
    },
    {
      "id": "M_137",
      "pitch": 65,
      "t_note_us": 16050000,
      "t_trigger_us": 15914037,
      "is_ai": false,
      "track_id": 0,
      "velocity": 0,
      "is_motor": true,
      "motor_id": 1,
      "accel_val": 2000,
      "base_duration_us": 150000
    },
    {
      "id": "M_138",
      "pitch": 77,
      "t_note_us": 16050000,
      "t_trigger_us": 15914037,
      "is_ai": false,
      "track_id": 0,
      "velocity": 0,
      "is_motor": true,
      "motor_id": 2,
      "accel_val": 2000,
      "base_duration_us": 150000
    },
    {
      "id": "M_139",
      "pitch": 58,
      "t_note_us": 16200000,
      "t_trigger_us": 16064037,
      "is_ai": false,
      "track_id": 0,
      "velocity": 0,
      "is_motor": true,
      "motor_id": 0,
      "accel_val": 2000,
      "base_duration_us": 150000
    },
    {
      "id": "M_140",
      "pitch": 74,
      "t_note_us": 16200000,
      "t_trigger_us": 16064037,
      "is_ai": false,
      "track_id": 0,
      "velocity": 0,
      "is_motor": true,
      "motor_id": 1,
      "accel_val": 2000,
      "base_duration_us": 150000
    },
    {
      "id": "M_141",
      "pitch": 65,
      "t_note_us": 16350000,
      "t_trigger_us": 16214037,
      "is_ai": false,
      "track_id": 0,
      "velocity": 0,
      "is_motor": true,
      "motor_id": 1,
      "accel_val": 2000,
      "base_duration_us": 150000
    },
    {
      "id": "M_142",
      "pitch": 70,
      "t_note_us": 16350000,
      "t_trigger_us": 16214037,
      "is_ai": false,
      "track_id": 0,
      "velocity": 0,
      "is_motor": true,
      "motor_id": 2,
      "accel_val": 2000,
      "base_duration_us": 150000
    },
    {
      "id": "M_143",
      "pitch": 69,
      "t_note_us": 16500000,
      "t_trigger_us": 16364037,
      "is_ai": false,
      "track_id": 0,
      "velocity": 0,
      "is_motor": true,
      "motor_id": 1,
      "accel_val": 2000,
      "base_duration_us": 150000
    },
    {
      "id": "M_144",
      "pitch": 69,
      "t_note_us": 16500000,
      "t_trigger_us": 16364037,
      "is_ai": false,
      "track_id": 0,
      "velocity": 0,
      "is_motor": true,
      "motor_id": 2,
      "accel_val": 2000,
      "base_duration_us": 150000
    },
    {
      "id": "M_145",
      "pitch": 74,
      "t_note_us": 16650000,
      "t_trigger_us": 16514037,
      "is_ai": false,
      "track_id": 0,
      "velocity": 0,
      "is_motor": true,
      "motor_id": 1,
      "accel_val": 2000,
      "base_duration_us": 150000
    },
    {
      "id": "M_146",
      "pitch": 77,
      "t_note_us": 16650000,
      "t_trigger_us": 16514037,
      "is_ai": false,
      "track_id": 0,
      "velocity": 0,
      "is_motor": true,
      "motor_id": 2,
      "accel_val": 2000,
      "base_duration_us": 150000
    },
    {
      "id": "M_147",
      "pitch": 93,
      "t_note_us": 16800000,
      "t_trigger_us": 16664037,
      "is_ai": true,
      "track_id": 8,
      "velocity": 0,
      "is_motor": false,
      "motor_id": 0,
      "accel_val": 2000,
      "base_duration_us": 150000
    },
    {
      "id": "M_148",
      "pitch": 93,
      "t_note_us": 16800000,
      "t_trigger_us": 16664037,
      "is_ai": true,
      "track_id": 8,
      "velocity": 0,
      "is_motor": false,
      "motor_id": 0,
      "accel_val": 2000,
      "base_duration_us": 150000
    },
    {
      "id": "M_149",
      "pitch": 69,
      "t_note_us": 16800000,
      "t_trigger_us": 16664037,
      "is_ai": false,
      "track_id": 0,
      "velocity": 0,
      "is_motor": true,
      "motor_id": 1,
      "accel_val": 2000,
      "base_duration_us": 150000
    },
    {
      "id": "M_150",
      "pitch": 65,
      "t_note_us": 16950000,
      "t_trigger_us": 16814037,
      "is_ai": false,
      "track_id": 0,
      "velocity": 0,
      "is_motor": true,
      "motor_id": 1,
      "accel_val": 2000,
      "base_duration_us": 150000
    },
    {
      "id": "M_151",
      "pitch": 77,
      "t_note_us": 16950000,
      "t_trigger_us": 16814037,
      "is_ai": false,
      "track_id": 0,
      "velocity": 0,
      "is_motor": true,
      "motor_id": 2,
      "accel_val": 2000,
      "base_duration_us": 150000
    },
    {
      "id": "M_152",
      "pitch": 58,
      "t_note_us": 17100000,
      "t_trigger_us": 16964037,
      "is_ai": false,
      "track_id": 0,
      "velocity": 0,
      "is_motor": true,
      "motor_id": 0,
      "accel_val": 2000,
      "base_duration_us": 150000
    },
    {
      "id": "M_153",
      "pitch": 69,
      "t_note_us": 17100000,
      "t_trigger_us": 16964037,
      "is_ai": false,
      "track_id": 0,
      "velocity": 0,
      "is_motor": true,
      "motor_id": 1,
      "accel_val": 2000,
      "base_duration_us": 150000
    },
    {
      "id": "M_154",
      "pitch": 65,
      "t_note_us": 17250000,
      "t_trigger_us": 17114037,
      "is_ai": false,
      "track_id": 0,
      "velocity": 0,
      "is_motor": true,
      "motor_id": 1,
      "accel_val": 2000,
      "base_duration_us": 150000
    },
    {
      "id": "M_155",
      "pitch": 70,
      "t_note_us": 17250000,
      "t_trigger_us": 17114037,
      "is_ai": false,
      "track_id": 0,
      "velocity": 0,
      "is_motor": true,
      "motor_id": 2,
      "accel_val": 2000,
      "base_duration_us": 150000
    },
    {
      "id": "M_157",
      "pitch": 86,
      "t_note_us": 17400000,
      "t_trigger_us": 17264037,
      "is_ai": true,
      "track_id": 4,
      "velocity": 0,
      "is_motor": false,
      "motor_id": 0,
      "accel_val": 2000,
      "base_duration_us": 150000
    },
    {
      "id": "M_156",
      "pitch": 69,
      "t_note_us": 17400000,
      "t_trigger_us": 17264037,
      "is_ai": false,
      "track_id": 0,
      "velocity": 0,
      "is_motor": true,
      "motor_id": 1,
      "accel_val": 2000,
      "base_duration_us": 150000
    },
    {
      "id": "M_158",
      "pitch": 74,
      "t_note_us": 17550000,
      "t_trigger_us": 17414037,
      "is_ai": false,
      "track_id": 0,
      "velocity": 0,
      "is_motor": true,
      "motor_id": 1,
      "accel_val": 2000,
      "base_duration_us": 150000
    },
    {
      "id": "M_159",
      "pitch": 70,
      "t_note_us": 17550000,
      "t_trigger_us": 17414037,
      "is_ai": false,
      "track_id": 0,
      "velocity": 0,
      "is_motor": true,
      "motor_id": 2,
      "accel_val": 2000,
      "base_duration_us": 150000
    },
    {
      "id": "M_160",
      "pitch": 69,
      "t_note_us": 17700000,
      "t_trigger_us": 17564037,
      "is_ai": false,
      "track_id": 0,
      "velocity": 0,
      "is_motor": true,
      "motor_id": 1,
      "accel_val": 2000,
      "base_duration_us": 150000
    },
    {
      "id": "M_161",
      "pitch": 69,
      "t_note_us": 17700000,
      "t_trigger_us": 17564037,
      "is_ai": false,
      "track_id": 0,
      "velocity": 0,
      "is_motor": true,
      "motor_id": 2,
      "accel_val": 2000,
      "base_duration_us": 150000
    },
    {
      "id": "M_162",
      "pitch": 65,
      "t_note_us": 17850000,
      "t_trigger_us": 17714037,
      "is_ai": false,
      "track_id": 0,
      "velocity": 0,
      "is_motor": true,
      "motor_id": 1,
      "accel_val": 2000,
      "base_duration_us": 150000
    },
    {
      "id": "M_163",
      "pitch": 77,
      "t_note_us": 17850000,
      "t_trigger_us": 17714037,
      "is_ai": false,
      "track_id": 0,
      "velocity": 0,
      "is_motor": true,
      "motor_id": 2,
      "accel_val": 2000,
      "base_duration_us": 150000
    },
    {
      "id": "M_165",
      "pitch": 88,
      "t_note_us": 18000000,
      "t_trigger_us": 17864037,
      "is_ai": true,
      "track_id": 5,
      "velocity": 0,
      "is_motor": false,
      "motor_id": 0,
      "accel_val": 2000,
      "base_duration_us": 150000
    },
    {
      "id": "M_164",
      "pitch": 60,
      "t_note_us": 18000000,
      "t_trigger_us": 17864037,
      "is_ai": false,
      "track_id": 0,
      "velocity": 0,
      "is_motor": true,
      "motor_id": 1,
      "accel_val": 2000,
      "base_duration_us": 150000
    },
    {
      "id": "M_166",
      "pitch": 67,
      "t_note_us": 18150000,
      "t_trigger_us": 18014037,
      "is_ai": false,
      "track_id": 0,
      "velocity": 0,
      "is_motor": true,
      "motor_id": 1,
      "accel_val": 2000,
      "base_duration_us": 150000
    },
    {
      "id": "M_167",
      "pitch": 72,
      "t_note_us": 18150000,
      "t_trigger_us": 18014037,
      "is_ai": false,
      "track_id": 0,
      "velocity": 0,
      "is_motor": true,
      "motor_id": 0,
      "accel_val": 2000,
      "base_duration_us": 150000
    },
    {
      "id": "M_168",
      "pitch": 69,
      "t_note_us": 18300000,
      "t_trigger_us": 18164037,
      "is_ai": false,
      "track_id": 0,
      "velocity": 0,
      "is_motor": true,
      "motor_id": 1,
      "accel_val": 2000,
      "base_duration_us": 150000
    },
    {
      "id": "M_169",
      "pitch": 69,
      "t_note_us": 18300000,
      "t_trigger_us": 18164037,
      "is_ai": false,
      "track_id": 0,
      "velocity": 0,
      "is_motor": true,
      "motor_id": 2,
      "accel_val": 2000,
      "base_duration_us": 150000
    },
    {
      "id": "M_170",
      "pitch": 76,
      "t_note_us": 18450000,
      "t_trigger_us": 18314037,
      "is_ai": false,
      "track_id": 0,
      "velocity": 0,
      "is_motor": true,
      "motor_id": 2,
      "accel_val": 2000,
      "base_duration_us": 150000
    },
    {
      "id": "M_171",
      "pitch": 67,
      "t_note_us": 18450000,
      "t_trigger_us": 18314037,
      "is_ai": false,
      "track_id": 0,
      "velocity": 0,
      "is_motor": true,
      "motor_id": 1,
      "accel_val": 2000,
      "base_duration_us": 150000
    },
    {
      "id": "M_172",
      "pitch": 93,
      "t_note_us": 18600000,
      "t_trigger_us": 18464037,
      "is_ai": true,
      "track_id": 8,
      "velocity": 0,
      "is_motor": false,
      "motor_id": 0,
      "accel_val": 2000,
      "base_duration_us": 150000
    },
    {
      "id": "M_173",
      "pitch": 93,
      "t_note_us": 18600000,
      "t_trigger_us": 18464037,
      "is_ai": true,
      "track_id": 8,
      "velocity": 0,
      "is_motor": false,
      "motor_id": 0,
      "accel_val": 2000,
      "base_duration_us": 150000
    },
    {
      "id": "M_174",
      "pitch": 69,
      "t_note_us": 18600000,
      "t_trigger_us": 18464037,
      "is_ai": false,
      "track_id": 0,
      "velocity": 0,
      "is_motor": true,
      "motor_id": 1,
      "accel_val": 2000,
      "base_duration_us": 150000
    },
    {
      "id": "M_175",
      "pitch": 67,
      "t_note_us": 18750000,
      "t_trigger_us": 18614037,
      "is_ai": false,
      "track_id": 0,
      "velocity": 0,
      "is_motor": true,
      "motor_id": 1,
      "accel_val": 2000,
      "base_duration_us": 150000
    },
    {
      "id": "M_176",
      "pitch": 67,
      "t_note_us": 18750000,
      "t_trigger_us": 18614037,
      "is_ai": false,
      "track_id": 0,
      "velocity": 0,
      "is_motor": true,
      "motor_id": 2,
      "accel_val": 2000,
      "base_duration_us": 150000
    },
    {
      "id": "M_177",
      "pitch": 60,
      "t_note_us": 18900000,
      "t_trigger_us": 18764037,
      "is_ai": false,
      "track_id": 0,
      "velocity": 0,
      "is_motor": true,
      "motor_id": 1,
      "accel_val": 2000,
      "base_duration_us": 150000
    },
    {
      "id": "M_178",
      "pitch": 69,
      "t_note_us": 18900000,
      "t_trigger_us": 18764037,
      "is_ai": false,
      "track_id": 0,
      "velocity": 0,
      "is_motor": true,
      "motor_id": 2,
      "accel_val": 2000,
      "base_duration_us": 150000
    },
    {
      "id": "M_179",
      "pitch": 67,
      "t_note_us": 19050000,
      "t_trigger_us": 18914037,
      "is_ai": false,
      "track_id": 0,
      "velocity": 0,
      "is_motor": true,
      "motor_id": 1,
      "accel_val": 2000,
      "base_duration_us": 150000
    },
    {
      "id": "M_180",
      "pitch": 72,
      "t_note_us": 19050000,
      "t_trigger_us": 18914037,
      "is_ai": false,
      "track_id": 0,
      "velocity": 0,
      "is_motor": true,
      "motor_id": 0,
      "accel_val": 2000,
      "base_duration_us": 150000
    },
    {
      "id": "M_182",
      "pitch": 88,
      "t_note_us": 19200000,
      "t_trigger_us": 19064037,
      "is_ai": true,
      "track_id": 5,
      "velocity": 0,
      "is_motor": false,
      "motor_id": 0,
      "accel_val": 2000,
      "base_duration_us": 150000
    },
    {
      "id": "M_181",
      "pitch": 69,
      "t_note_us": 19200000,
      "t_trigger_us": 19064037,
      "is_ai": false,
      "track_id": 0,
      "velocity": 0,
      "is_motor": true,
      "motor_id": 1,
      "accel_val": 2000,
      "base_duration_us": 150000
    },
    {
      "id": "M_183",
      "pitch": 76,
      "t_note_us": 19350000,
      "t_trigger_us": 19214037,
      "is_ai": false,
      "track_id": 0,
      "velocity": 0,
      "is_motor": true,
      "motor_id": 2,
      "accel_val": 2000,
      "base_duration_us": 150000
    },
    {
      "id": "M_184",
      "pitch": 72,
      "t_note_us": 19350000,
      "t_trigger_us": 19214037,
      "is_ai": false,
      "track_id": 0,
      "velocity": 0,
      "is_motor": true,
      "motor_id": 1,
      "accel_val": 2000,
      "base_duration_us": 150000
    },
    {
      "id": "M_185",
      "pitch": 69,
      "t_note_us": 19500000,
      "t_trigger_us": 19364037,
      "is_ai": false,
      "track_id": 0,
      "velocity": 0,
      "is_motor": true,
      "motor_id": 1,
      "accel_val": 2000,
      "base_duration_us": 150000
    },
    {
      "id": "M_186",
      "pitch": 69,
      "t_note_us": 19500000,
      "t_trigger_us": 19364037,
      "is_ai": false,
      "track_id": 0,
      "velocity": 0,
      "is_motor": true,
      "motor_id": 2,
      "accel_val": 2000,
      "base_duration_us": 150000
    },
    {
      "id": "M_187",
      "pitch": 67,
      "t_note_us": 19650000,
      "t_trigger_us": 19514037,
      "is_ai": false,
      "track_id": 0,
      "velocity": 0,
      "is_motor": true,
      "motor_id": 1,
      "accel_val": 2000,
      "base_duration_us": 150000
    },
    {
      "id": "M_188",
      "pitch": 67,
      "t_note_us": 19650000,
      "t_trigger_us": 19514037,
      "is_ai": false,
      "track_id": 0,
      "velocity": 0,
      "is_motor": true,
      "motor_id": 2,
      "accel_val": 2000,
      "base_duration_us": 150000
    },
    {
      "id": "M_190",
      "pitch": 88,
      "t_note_us": 19800000,
      "t_trigger_us": 19664037,
      "is_ai": true,
      "track_id": 5,
      "velocity": 0,
      "is_motor": false,
      "motor_id": 0,
      "accel_val": 2000,
      "base_duration_us": 150000
    },
    {
      "id": "M_189",
      "pitch": 60,
      "t_note_us": 19800000,
      "t_trigger_us": 19664037,
      "is_ai": false,
      "track_id": 0,
      "velocity": 0,
      "is_motor": true,
      "motor_id": 1,
      "accel_val": 2000,
      "base_duration_us": 150000
    },
    {
      "id": "M_191",
      "pitch": 67,
      "t_note_us": 19950000,
      "t_trigger_us": 19814037,
      "is_ai": false,
      "track_id": 0,
      "velocity": 0,
      "is_motor": true,
      "motor_id": 1,
      "accel_val": 2000,
      "base_duration_us": 150000
    },
    {
      "id": "M_192",
      "pitch": 72,
      "t_note_us": 19950000,
      "t_trigger_us": 19814037,
      "is_ai": false,
      "track_id": 0,
      "velocity": 0,
      "is_motor": true,
      "motor_id": 0,
      "accel_val": 2000,
      "base_duration_us": 150000
    },
    {
      "id": "M_193",
      "pitch": 69,
      "t_note_us": 20100000,
      "t_trigger_us": 19964037,
      "is_ai": false,
      "track_id": 0,
      "velocity": 0,
      "is_motor": true,
      "motor_id": 1,
      "accel_val": 2000,
      "base_duration_us": 150000
    },
    {
      "id": "M_194",
      "pitch": 69,
      "t_note_us": 20100000,
      "t_trigger_us": 19964037,
      "is_ai": false,
      "track_id": 0,
      "velocity": 0,
      "is_motor": true,
      "motor_id": 2,
      "accel_val": 2000,
      "base_duration_us": 150000
    },
    {
      "id": "M_195",
      "pitch": 76,
      "t_note_us": 20250000,
      "t_trigger_us": 20114037,
      "is_ai": false,
      "track_id": 0,
      "velocity": 0,
      "is_motor": true,
      "motor_id": 2,
      "accel_val": 2000,
      "base_duration_us": 150000
    },
    {
      "id": "M_196",
      "pitch": 67,
      "t_note_us": 20250000,
      "t_trigger_us": 20114037,
      "is_ai": false,
      "track_id": 0,
      "velocity": 0,
      "is_motor": true,
      "motor_id": 1,
      "accel_val": 2000,
      "base_duration_us": 150000
    },
    {
      "id": "M_197",
      "pitch": 93,
      "t_note_us": 20400000,
      "t_trigger_us": 20264037,
      "is_ai": true,
      "track_id": 8,
      "velocity": 0,
      "is_motor": false,
      "motor_id": 0,
      "accel_val": 2000,
      "base_duration_us": 150000
    },
    {
      "id": "M_198",
      "pitch": 93,
      "t_note_us": 20400000,
      "t_trigger_us": 20264037,
      "is_ai": true,
      "track_id": 8,
      "velocity": 0,
      "is_motor": false,
      "motor_id": 0,
      "accel_val": 2000,
      "base_duration_us": 150000
    },
    {
      "id": "M_199",
      "pitch": 69,
      "t_note_us": 20400000,
      "t_trigger_us": 20264037,
      "is_ai": false,
      "track_id": 0,
      "velocity": 0,
      "is_motor": true,
      "motor_id": 1,
      "accel_val": 2000,
      "base_duration_us": 150000
    },
    {
      "id": "M_200",
      "pitch": 67,
      "t_note_us": 20550000,
      "t_trigger_us": 20414037,
      "is_ai": false,
      "track_id": 0,
      "velocity": 0,
      "is_motor": true,
      "motor_id": 1,
      "accel_val": 2000,
      "base_duration_us": 150000
    },
    {
      "id": "M_201",
      "pitch": 67,
      "t_note_us": 20550000,
      "t_trigger_us": 20414037,
      "is_ai": false,
      "track_id": 0,
      "velocity": 0,
      "is_motor": true,
      "motor_id": 2,
      "accel_val": 2000,
      "base_duration_us": 150000
    },
    {
      "id": "M_202",
      "pitch": 60,
      "t_note_us": 20700000,
      "t_trigger_us": 20564037,
      "is_ai": false,
      "track_id": 0,
      "velocity": 0,
      "is_motor": true,
      "motor_id": 1,
      "accel_val": 2000,
      "base_duration_us": 150000
    },
    {
      "id": "M_203",
      "pitch": 69,
      "t_note_us": 20700000,
      "t_trigger_us": 20564037,
      "is_ai": false,
      "track_id": 0,
      "velocity": 0,
      "is_motor": true,
      "motor_id": 2,
      "accel_val": 2000,
      "base_duration_us": 150000
    },
    {
      "id": "M_204",
      "pitch": 67,
      "t_note_us": 20850000,
      "t_trigger_us": 20714037,
      "is_ai": false,
      "track_id": 0,
      "velocity": 0,
      "is_motor": true,
      "motor_id": 1,
      "accel_val": 2000,
      "base_duration_us": 150000
    },
    {
      "id": "M_205",
      "pitch": 72,
      "t_note_us": 20850000,
      "t_trigger_us": 20714037,
      "is_ai": false,
      "track_id": 0,
      "velocity": 0,
      "is_motor": true,
      "motor_id": 0,
      "accel_val": 2000,
      "base_duration_us": 150000
    },
    {
      "id": "M_207",
      "pitch": 88,
      "t_note_us": 21000000,
      "t_trigger_us": 20864037,
      "is_ai": true,
      "track_id": 5,
      "velocity": 0,
      "is_motor": false,
      "motor_id": 0,
      "accel_val": 2000,
      "base_duration_us": 150000
    },
    {
      "id": "M_206",
      "pitch": 69,
      "t_note_us": 21000000,
      "t_trigger_us": 20864037,
      "is_ai": false,
      "track_id": 0,
      "velocity": 0,
      "is_motor": true,
      "motor_id": 1,
      "accel_val": 2000,
      "base_duration_us": 150000
    },
    {
      "id": "M_208",
      "pitch": 76,
      "t_note_us": 21150000,
      "t_trigger_us": 21014037,
      "is_ai": false,
      "track_id": 0,
      "velocity": 0,
      "is_motor": true,
      "motor_id": 2,
      "accel_val": 2000,
      "base_duration_us": 150000
    },
    {
      "id": "M_209",
      "pitch": 72,
      "t_note_us": 21150000,
      "t_trigger_us": 21014037,
      "is_ai": false,
      "track_id": 0,
      "velocity": 0,
      "is_motor": true,
      "motor_id": 1,
      "accel_val": 2000,
      "base_duration_us": 150000
    },
    {
      "id": "M_210",
      "pitch": 69,
      "t_note_us": 21300000,
      "t_trigger_us": 21164037,
      "is_ai": false,
      "track_id": 0,
      "velocity": 0,
      "is_motor": true,
      "motor_id": 1,
      "accel_val": 2000,
      "base_duration_us": 150000
    },
    {
      "id": "M_211",
      "pitch": 69,
      "t_note_us": 21300000,
      "t_trigger_us": 21164037,
      "is_ai": false,
      "track_id": 0,
      "velocity": 0,
      "is_motor": true,
      "motor_id": 2,
      "accel_val": 2000,
      "base_duration_us": 150000
    },
    {
      "id": "M_212",
      "pitch": 67,
      "t_note_us": 21450000,
      "t_trigger_us": 21314037,
      "is_ai": false,
      "track_id": 0,
      "velocity": 0,
      "is_motor": true,
      "motor_id": 1,
      "accel_val": 2000,
      "base_duration_us": 150000
    },
    {
      "id": "M_213",
      "pitch": 67,
      "t_note_us": 21450000,
      "t_trigger_us": 21314037,
      "is_ai": false,
      "track_id": 0,
      "velocity": 0,
      "is_motor": true,
      "motor_id": 2,
      "accel_val": 2000,
      "base_duration_us": 150000
    },
    {
      "id": "M_215",
      "pitch": 89,
      "t_note_us": 21600000,
      "t_trigger_us": 21464037,
      "is_ai": true,
      "track_id": 6,
      "velocity": 0,
      "is_motor": false,
      "motor_id": 0,
      "accel_val": 2000,
      "base_duration_us": 150000
    },
    {
      "id": "M_214",
      "pitch": 62,
      "t_note_us": 21600000,
      "t_trigger_us": 21464037,
      "is_ai": false,
      "track_id": 0,
      "velocity": 0,
      "is_motor": true,
      "motor_id": 1,
      "accel_val": 2000,
      "base_duration_us": 150000
    },
    {
      "id": "M_216",
      "pitch": 65,
      "t_note_us": 21750000,
      "t_trigger_us": 21614037,
      "is_ai": false,
      "track_id": 0,
      "velocity": 0,
      "is_motor": true,
      "motor_id": 1,
      "accel_val": 2000,
      "base_duration_us": 150000
    },
    {
      "id": "M_217",
      "pitch": 74,
      "t_note_us": 21750000,
      "t_trigger_us": 21614037,
      "is_ai": false,
      "track_id": 0,
      "velocity": 0,
      "is_motor": true,
      "motor_id": 0,
      "accel_val": 2000,
      "base_duration_us": 150000
    },
    {
      "id": "M_218",
      "pitch": 69,
      "t_note_us": 21900000,
      "t_trigger_us": 21764037,
      "is_ai": false,
      "track_id": 0,
      "velocity": 0,
      "is_motor": true,
      "motor_id": 1,
      "accel_val": 2000,
      "base_duration_us": 150000
    },
    {
      "id": "M_219",
      "pitch": 69,
      "t_note_us": 21900000,
      "t_trigger_us": 21764037,
      "is_ai": false,
      "track_id": 0,
      "velocity": 0,
      "is_motor": true,
      "motor_id": 2,
      "accel_val": 2000,
      "base_duration_us": 150000
    },
    {
      "id": "M_220",
      "pitch": 74,
      "t_note_us": 22050000,
      "t_trigger_us": 21914037,
      "is_ai": false,
      "track_id": 0,
      "velocity": 0,
      "is_motor": true,
      "motor_id": 1,
      "accel_val": 2000,
      "base_duration_us": 150000
    },
    {
      "id": "M_221",
      "pitch": 77,
      "t_note_us": 22050000,
      "t_trigger_us": 21914037,
      "is_ai": false,
      "track_id": 0,
      "velocity": 0,
      "is_motor": true,
      "motor_id": 2,
      "accel_val": 2000,
      "base_duration_us": 150000
    },
    {
      "id": "M_222",
      "pitch": 93,
      "t_note_us": 22200000,
      "t_trigger_us": 22064037,
      "is_ai": true,
      "track_id": 8,
      "velocity": 0,
      "is_motor": false,
      "motor_id": 0,
      "accel_val": 2000,
      "base_duration_us": 150000
    },
    {
      "id": "M_223",
      "pitch": 93,
      "t_note_us": 22200000,
      "t_trigger_us": 22064037,
      "is_ai": true,
      "track_id": 8,
      "velocity": 0,
      "is_motor": false,
      "motor_id": 0,
      "accel_val": 2000,
      "base_duration_us": 150000
    },
    {
      "id": "M_224",
      "pitch": 69,
      "t_note_us": 22200000,
      "t_trigger_us": 22064037,
      "is_ai": false,
      "track_id": 0,
      "velocity": 0,
      "is_motor": true,
      "motor_id": 1,
      "accel_val": 2000,
      "base_duration_us": 150000
    },
    {
      "id": "M_225",
      "pitch": 65,
      "t_note_us": 22350000,
      "t_trigger_us": 22214037,
      "is_ai": false,
      "track_id": 0,
      "velocity": 0,
      "is_motor": true,
      "motor_id": 1,
      "accel_val": 2000,
      "base_duration_us": 150000
    },
    {
      "id": "M_226",
      "pitch": 77,
      "t_note_us": 22350000,
      "t_trigger_us": 22214037,
      "is_ai": false,
      "track_id": 0,
      "velocity": 0,
      "is_motor": true,
      "motor_id": 2,
      "accel_val": 2000,
      "base_duration_us": 150000
    },
    {
      "id": "M_227",
      "pitch": 62,
      "t_note_us": 22500000,
      "t_trigger_us": 22364037,
      "is_ai": false,
      "track_id": 0,
      "velocity": 0,
      "is_motor": true,
      "motor_id": 1,
      "accel_val": 2000,
      "base_duration_us": 150000
    },
    {
      "id": "M_228",
      "pitch": 69,
      "t_note_us": 22500000,
      "t_trigger_us": 22364037,
      "is_ai": false,
      "track_id": 0,
      "velocity": 0,
      "is_motor": true,
      "motor_id": 2,
      "accel_val": 2000,
      "base_duration_us": 150000
    },
    {
      "id": "M_230",
      "pitch": 86,
      "t_note_us": 22650000,
      "t_trigger_us": 22514037,
      "is_ai": true,
      "track_id": 4,
      "velocity": 0,
      "is_motor": false,
      "motor_id": 0,
      "accel_val": 2000,
      "base_duration_us": 150000
    },
    {
      "id": "M_229",
      "pitch": 65,
      "t_note_us": 22650000,
      "t_trigger_us": 22514037,
      "is_ai": false,
      "track_id": 0,
      "velocity": 0,
      "is_motor": true,
      "motor_id": 1,
      "accel_val": 2000,
      "base_duration_us": 150000
    },
    {
      "id": "M_232",
      "pitch": 89,
      "t_note_us": 22800000,
      "t_trigger_us": 22664037,
      "is_ai": true,
      "track_id": 6,
      "velocity": 0,
      "is_motor": false,
      "motor_id": 0,
      "accel_val": 2000,
      "base_duration_us": 150000
    },
    {
      "id": "M_231",
      "pitch": 69,
      "t_note_us": 22800000,
      "t_trigger_us": 22664037,
      "is_ai": false,
      "track_id": 0,
      "velocity": 0,
      "is_motor": true,
      "motor_id": 1,
      "accel_val": 2000,
      "base_duration_us": 150000
    },
    {
      "id": "M_233",
      "pitch": 74,
      "t_note_us": 22950000,
      "t_trigger_us": 22814037,
      "is_ai": false,
      "track_id": 0,
      "velocity": 0,
      "is_motor": true,
      "motor_id": 1,
      "accel_val": 2000,
      "base_duration_us": 150000
    },
    {
      "id": "M_234",
      "pitch": 74,
      "t_note_us": 22950000,
      "t_trigger_us": 22814037,
      "is_ai": false,
      "track_id": 0,
      "velocity": 0,
      "is_motor": true,
      "motor_id": 0,
      "accel_val": 2000,
      "base_duration_us": 150000
    },
    {
      "id": "M_235",
      "pitch": 69,
      "t_note_us": 23100000,
      "t_trigger_us": 22964037,
      "is_ai": false,
      "track_id": 0,
      "velocity": 0,
      "is_motor": true,
      "motor_id": 1,
      "accel_val": 2000,
      "base_duration_us": 150000
    },
    {
      "id": "M_236",
      "pitch": 69,
      "t_note_us": 23100000,
      "t_trigger_us": 22964037,
      "is_ai": false,
      "track_id": 0,
      "velocity": 0,
      "is_motor": true,
      "motor_id": 2,
      "accel_val": 2000,
      "base_duration_us": 150000
    },
    {
      "id": "M_237",
      "pitch": 65,
      "t_note_us": 23250000,
      "t_trigger_us": 23114037,
      "is_ai": false,
      "track_id": 0,
      "velocity": 0,
      "is_motor": true,
      "motor_id": 1,
      "accel_val": 2000,
      "base_duration_us": 150000
    },
    {
      "id": "M_238",
      "pitch": 77,
      "t_note_us": 23250000,
      "t_trigger_us": 23114037,
      "is_ai": false,
      "track_id": 0,
      "velocity": 0,
      "is_motor": true,
      "motor_id": 2,
      "accel_val": 2000,
      "base_duration_us": 150000
    },
    {
      "id": "M_240",
      "pitch": 89,
      "t_note_us": 23400000,
      "t_trigger_us": 23264037,
      "is_ai": true,
      "track_id": 6,
      "velocity": 0,
      "is_motor": false,
      "motor_id": 0,
      "accel_val": 2000,
      "base_duration_us": 150000
    },
    {
      "id": "M_239",
      "pitch": 62,
      "t_note_us": 23400000,
      "t_trigger_us": 23264037,
      "is_ai": false,
      "track_id": 0,
      "velocity": 0,
      "is_motor": true,
      "motor_id": 1,
      "accel_val": 2000,
      "base_duration_us": 150000
    },
    {
      "id": "M_241",
      "pitch": 65,
      "t_note_us": 23550000,
      "t_trigger_us": 23414037,
      "is_ai": false,
      "track_id": 0,
      "velocity": 0,
      "is_motor": true,
      "motor_id": 1,
      "accel_val": 2000,
      "base_duration_us": 150000
    },
    {
      "id": "M_242",
      "pitch": 74,
      "t_note_us": 23550000,
      "t_trigger_us": 23414037,
      "is_ai": false,
      "track_id": 0,
      "velocity": 0,
      "is_motor": true,
      "motor_id": 0,
      "accel_val": 2000,
      "base_duration_us": 150000
    },
    {
      "id": "M_243",
      "pitch": 69,
      "t_note_us": 23700000,
      "t_trigger_us": 23564037,
      "is_ai": false,
      "track_id": 0,
      "velocity": 0,
      "is_motor": true,
      "motor_id": 1,
      "accel_val": 2000,
      "base_duration_us": 150000
    },
    {
      "id": "M_244",
      "pitch": 69,
      "t_note_us": 23700000,
      "t_trigger_us": 23564037,
      "is_ai": false,
      "track_id": 0,
      "velocity": 0,
      "is_motor": true,
      "motor_id": 2,
      "accel_val": 2000,
      "base_duration_us": 150000
    },
    {
      "id": "M_245",
      "pitch": 74,
      "t_note_us": 23850000,
      "t_trigger_us": 23714037,
      "is_ai": false,
      "track_id": 0,
      "velocity": 0,
      "is_motor": true,
      "motor_id": 1,
      "accel_val": 2000,
      "base_duration_us": 150000
    },
    {
      "id": "M_246",
      "pitch": 77,
      "t_note_us": 23850000,
      "t_trigger_us": 23714037,
      "is_ai": false,
      "track_id": 0,
      "velocity": 0,
      "is_motor": true,
      "motor_id": 2,
      "accel_val": 2000,
      "base_duration_us": 150000
    },
    {
      "id": "M_247",
      "pitch": 93,
      "t_note_us": 24000000,
      "t_trigger_us": 23864037,
      "is_ai": true,
      "track_id": 8,
      "velocity": 0,
      "is_motor": false,
      "motor_id": 0,
      "accel_val": 2000,
      "base_duration_us": 150000
    },
    {
      "id": "M_248",
      "pitch": 93,
      "t_note_us": 24000000,
      "t_trigger_us": 23864037,
      "is_ai": true,
      "track_id": 8,
      "velocity": 0,
      "is_motor": false,
      "motor_id": 0,
      "accel_val": 2000,
      "base_duration_us": 150000
    },
    {
      "id": "M_249",
      "pitch": 69,
      "t_note_us": 24000000,
      "t_trigger_us": 23864037,
      "is_ai": false,
      "track_id": 0,
      "velocity": 0,
      "is_motor": true,
      "motor_id": 1,
      "accel_val": 2000,
      "base_duration_us": 150000
    },
    {
      "id": "M_250",
      "pitch": 65,
      "t_note_us": 24150000,
      "t_trigger_us": 24014037,
      "is_ai": false,
      "track_id": 0,
      "velocity": 0,
      "is_motor": true,
      "motor_id": 1,
      "accel_val": 2000,
      "base_duration_us": 150000
    },
    {
      "id": "M_251",
      "pitch": 77,
      "t_note_us": 24150000,
      "t_trigger_us": 24014037,
      "is_ai": false,
      "track_id": 0,
      "velocity": 0,
      "is_motor": true,
      "motor_id": 2,
      "accel_val": 2000,
      "base_duration_us": 150000
    },
    {
      "id": "M_252",
      "pitch": 62,
      "t_note_us": 24300000,
      "t_trigger_us": 24164037,
      "is_ai": false,
      "track_id": 0,
      "velocity": 0,
      "is_motor": true,
      "motor_id": 1,
      "accel_val": 2000,
      "base_duration_us": 150000
    },
    {
      "id": "M_253",
      "pitch": 69,
      "t_note_us": 24300000,
      "t_trigger_us": 24164037,
      "is_ai": false,
      "track_id": 0,
      "velocity": 0,
      "is_motor": true,
      "motor_id": 2,
      "accel_val": 2000,
      "base_duration_us": 150000
    },
    {
      "id": "M_255",
      "pitch": 86,
      "t_note_us": 24450000,
      "t_trigger_us": 24314037,
      "is_ai": true,
      "track_id": 4,
      "velocity": 0,
      "is_motor": false,
      "motor_id": 0,
      "accel_val": 2000,
      "base_duration_us": 150000
    },
    {
      "id": "M_254",
      "pitch": 65,
      "t_note_us": 24450000,
      "t_trigger_us": 24314037,
      "is_ai": false,
      "track_id": 0,
      "velocity": 0,
      "is_motor": true,
      "motor_id": 1,
      "accel_val": 2000,
      "base_duration_us": 150000
    },
    {
      "id": "M_257",
      "pitch": 89,
      "t_note_us": 24600000,
      "t_trigger_us": 24464037,
      "is_ai": true,
      "track_id": 6,
      "velocity": 0,
      "is_motor": false,
      "motor_id": 0,
      "accel_val": 2000,
      "base_duration_us": 150000
    },
    {
      "id": "M_256",
      "pitch": 69,
      "t_note_us": 24600000,
      "t_trigger_us": 24464037,
      "is_ai": false,
      "track_id": 0,
      "velocity": 0,
      "is_motor": true,
      "motor_id": 1,
      "accel_val": 2000,
      "base_duration_us": 150000
    },
    {
      "id": "M_258",
      "pitch": 74,
      "t_note_us": 24750000,
      "t_trigger_us": 24614037,
      "is_ai": false,
      "track_id": 0,
      "velocity": 0,
      "is_motor": true,
      "motor_id": 1,
      "accel_val": 2000,
      "base_duration_us": 150000
    },
    {
      "id": "M_259",
      "pitch": 74,
      "t_note_us": 24750000,
      "t_trigger_us": 24614037,
      "is_ai": false,
      "track_id": 0,
      "velocity": 0,
      "is_motor": true,
      "motor_id": 0,
      "accel_val": 2000,
      "base_duration_us": 150000
    },
    {
      "id": "M_260",
      "pitch": 69,
      "t_note_us": 24900000,
      "t_trigger_us": 24764037,
      "is_ai": false,
      "track_id": 0,
      "velocity": 0,
      "is_motor": true,
      "motor_id": 1,
      "accel_val": 2000,
      "base_duration_us": 150000
    },
    {
      "id": "M_261",
      "pitch": 69,
      "t_note_us": 24900000,
      "t_trigger_us": 24764037,
      "is_ai": false,
      "track_id": 0,
      "velocity": 0,
      "is_motor": true,
      "motor_id": 2,
      "accel_val": 2000,
      "base_duration_us": 150000
    },
    {
      "id": "M_262",
      "pitch": 65,
      "t_note_us": 25050000,
      "t_trigger_us": 24914037,
      "is_ai": false,
      "track_id": 0,
      "velocity": 0,
      "is_motor": true,
      "motor_id": 1,
      "accel_val": 2000,
      "base_duration_us": 150000
    },
    {
      "id": "M_263",
      "pitch": 77,
      "t_note_us": 25050000,
      "t_trigger_us": 24914037,
      "is_ai": false,
      "track_id": 0,
      "velocity": 0,
      "is_motor": true,
      "motor_id": 2,
      "accel_val": 2000,
      "base_duration_us": 150000
    },
    {
      "id": "M_265",
      "pitch": 91,
      "t_note_us": 25200000,
      "t_trigger_us": 25064037,
      "is_ai": true,
      "track_id": 7,
      "velocity": 0,
      "is_motor": false,
      "motor_id": 0,
      "accel_val": 2000,
      "base_duration_us": 150000
    },
    {
      "id": "M_264",
      "pitch": 62,
      "t_note_us": 25200000,
      "t_trigger_us": 25064037,
      "is_ai": false,
      "track_id": 0,
      "velocity": 0,
      "is_motor": true,
      "motor_id": 1,
      "accel_val": 2000,
      "base_duration_us": 150000
    },
    {
      "id": "M_266",
      "pitch": 67,
      "t_note_us": 25350000,
      "t_trigger_us": 25214037,
      "is_ai": false,
      "track_id": 0,
      "velocity": 0,
      "is_motor": true,
      "motor_id": 1,
      "accel_val": 2000,
      "base_duration_us": 150000
    },
    {
      "id": "M_267",
      "pitch": 72,
      "t_note_us": 25350000,
      "t_trigger_us": 25214037,
      "is_ai": false,
      "track_id": 0,
      "velocity": 0,
      "is_motor": true,
      "motor_id": 0,
      "accel_val": 2000,
      "base_duration_us": 150000
    },
    {
      "id": "M_268",
      "pitch": 69,
      "t_note_us": 25500000,
      "t_trigger_us": 25364037,
      "is_ai": false,
      "track_id": 0,
      "velocity": 0,
      "is_motor": true,
      "motor_id": 1,
      "accel_val": 2000,
      "base_duration_us": 150000
    },
    {
      "id": "M_269",
      "pitch": 69,
      "t_note_us": 25500000,
      "t_trigger_us": 25364037,
      "is_ai": false,
      "track_id": 0,
      "velocity": 0,
      "is_motor": true,
      "motor_id": 2,
      "accel_val": 2000,
      "base_duration_us": 150000
    },
    {
      "id": "M_270",
      "pitch": 76,
      "t_note_us": 25650000,
      "t_trigger_us": 25514037,
      "is_ai": false,
      "track_id": 0,
      "velocity": 0,
      "is_motor": true,
      "motor_id": 2,
      "accel_val": 2000,
      "base_duration_us": 150000
    },
    {
      "id": "M_271",
      "pitch": 67,
      "t_note_us": 25650000,
      "t_trigger_us": 25514037,
      "is_ai": false,
      "track_id": 0,
      "velocity": 0,
      "is_motor": true,
      "motor_id": 1,
      "accel_val": 2000,
      "base_duration_us": 150000
    },
    {
      "id": "M_272",
      "pitch": 93,
      "t_note_us": 25800000,
      "t_trigger_us": 25664037,
      "is_ai": true,
      "track_id": 8,
      "velocity": 0,
      "is_motor": false,
      "motor_id": 0,
      "accel_val": 2000,
      "base_duration_us": 150000
    },
    {
      "id": "M_274",
      "pitch": 93,
      "t_note_us": 25800000,
      "t_trigger_us": 25664037,
      "is_ai": true,
      "track_id": 8,
      "velocity": 0,
      "is_motor": false,
      "motor_id": 0,
      "accel_val": 2000,
      "base_duration_us": 150000
    },
    {
      "id": "M_273",
      "pitch": 69,
      "t_note_us": 25800000,
      "t_trigger_us": 25664037,
      "is_ai": false,
      "track_id": 0,
      "velocity": 0,
      "is_motor": true,
      "motor_id": 1,
      "accel_val": 2000,
      "base_duration_us": 150000
    },
    {
      "id": "M_275",
      "pitch": 67,
      "t_note_us": 25950000,
      "t_trigger_us": 25814037,
      "is_ai": false,
      "track_id": 0,
      "velocity": 0,
      "is_motor": true,
      "motor_id": 1,
      "accel_val": 2000,
      "base_duration_us": 150000
    },
    {
      "id": "M_276",
      "pitch": 67,
      "t_note_us": 25950000,
      "t_trigger_us": 25814037,
      "is_ai": false,
      "track_id": 0,
      "velocity": 0,
      "is_motor": true,
      "motor_id": 2,
      "accel_val": 2000,
      "base_duration_us": 150000
    },
    {
      "id": "M_277",
      "pitch": 62,
      "t_note_us": 26100000,
      "t_trigger_us": 25964037,
      "is_ai": false,
      "track_id": 0,
      "velocity": 0,
      "is_motor": true,
      "motor_id": 1,
      "accel_val": 2000,
      "base_duration_us": 150000
    },
    {
      "id": "M_278",
      "pitch": 69,
      "t_note_us": 26100000,
      "t_trigger_us": 25964037,
      "is_ai": false,
      "track_id": 0,
      "velocity": 0,
      "is_motor": true,
      "motor_id": 2,
      "accel_val": 2000,
      "base_duration_us": 150000
    },
    {
      "id": "M_279",
      "pitch": 67,
      "t_note_us": 26250000,
      "t_trigger_us": 26114037,
      "is_ai": false,
      "track_id": 0,
      "velocity": 0,
      "is_motor": true,
      "motor_id": 1,
      "accel_val": 2000,
      "base_duration_us": 150000
    },
    {
      "id": "M_281",
      "pitch": 91,
      "t_note_us": 26400000,
      "t_trigger_us": 26264037,
      "is_ai": true,
      "track_id": 7,
      "velocity": 0,
      "is_motor": false,
      "motor_id": 0,
      "accel_val": 2000,
      "base_duration_us": 150000
    },
    {
      "id": "M_280",
      "pitch": 69,
      "t_note_us": 26400000,
      "t_trigger_us": 26264037,
      "is_ai": false,
      "track_id": 0,
      "velocity": 0,
      "is_motor": true,
      "motor_id": 1,
      "accel_val": 2000,
      "base_duration_us": 150000
    },
    {
      "id": "M_282",
      "pitch": 76,
      "t_note_us": 26550000,
      "t_trigger_us": 26414037,
      "is_ai": false,
      "track_id": 0,
      "velocity": 0,
      "is_motor": true,
      "motor_id": 2,
      "accel_val": 2000,
      "base_duration_us": 150000
    },
    {
      "id": "M_283",
      "pitch": 72,
      "t_note_us": 26550000,
      "t_trigger_us": 26414037,
      "is_ai": false,
      "track_id": 0,
      "velocity": 0,
      "is_motor": true,
      "motor_id": 1,
      "accel_val": 2000,
      "base_duration_us": 150000
    },
    {
      "id": "M_284",
      "pitch": 69,
      "t_note_us": 26700000,
      "t_trigger_us": 26564037,
      "is_ai": false,
      "track_id": 0,
      "velocity": 0,
      "is_motor": true,
      "motor_id": 1,
      "accel_val": 2000,
      "base_duration_us": 150000
    },
    {
      "id": "M_285",
      "pitch": 69,
      "t_note_us": 26700000,
      "t_trigger_us": 26564037,
      "is_ai": false,
      "track_id": 0,
      "velocity": 0,
      "is_motor": true,
      "motor_id": 2,
      "accel_val": 2000,
      "base_duration_us": 150000
    },
    {
      "id": "M_286",
      "pitch": 67,
      "t_note_us": 26850000,
      "t_trigger_us": 26714037,
      "is_ai": false,
      "track_id": 0,
      "velocity": 0,
      "is_motor": true,
      "motor_id": 1,
      "accel_val": 2000,
      "base_duration_us": 150000
    },
    {
      "id": "M_287",
      "pitch": 67,
      "t_note_us": 26850000,
      "t_trigger_us": 26714037,
      "is_ai": false,
      "track_id": 0,
      "velocity": 0,
      "is_motor": true,
      "motor_id": 2,
      "accel_val": 2000,
      "base_duration_us": 150000
    },
    {
      "id": "M_289",
      "pitch": 91,
      "t_note_us": 27000000,
      "t_trigger_us": 26864037,
      "is_ai": true,
      "track_id": 7,
      "velocity": 0,
      "is_motor": false,
      "motor_id": 0,
      "accel_val": 2000,
      "base_duration_us": 150000
    },
    {
      "id": "M_288",
      "pitch": 62,
      "t_note_us": 27000000,
      "t_trigger_us": 26864037,
      "is_ai": false,
      "track_id": 0,
      "velocity": 0,
      "is_motor": true,
      "motor_id": 1,
      "accel_val": 2000,
      "base_duration_us": 150000
    },
    {
      "id": "M_290",
      "pitch": 67,
      "t_note_us": 27150000,
      "t_trigger_us": 27014037,
      "is_ai": false,
      "track_id": 0,
      "velocity": 0,
      "is_motor": true,
      "motor_id": 1,
      "accel_val": 2000,
      "base_duration_us": 150000
    },
    {
      "id": "M_291",
      "pitch": 72,
      "t_note_us": 27150000,
      "t_trigger_us": 27014037,
      "is_ai": false,
      "track_id": 0,
      "velocity": 0,
      "is_motor": true,
      "motor_id": 0,
      "accel_val": 2000,
      "base_duration_us": 150000
    },
    {
      "id": "M_292",
      "pitch": 69,
      "t_note_us": 27300000,
      "t_trigger_us": 27164037,
      "is_ai": false,
      "track_id": 0,
      "velocity": 0,
      "is_motor": true,
      "motor_id": 1,
      "accel_val": 2000,
      "base_duration_us": 150000
    },
    {
      "id": "M_293",
      "pitch": 69,
      "t_note_us": 27300000,
      "t_trigger_us": 27164037,
      "is_ai": false,
      "track_id": 0,
      "velocity": 0,
      "is_motor": true,
      "motor_id": 2,
      "accel_val": 2000,
      "base_duration_us": 150000
    },
    {
      "id": "M_294",
      "pitch": 76,
      "t_note_us": 27450000,
      "t_trigger_us": 27314037,
      "is_ai": false,
      "track_id": 0,
      "velocity": 0,
      "is_motor": true,
      "motor_id": 2,
      "accel_val": 2000,
      "base_duration_us": 150000
    },
    {
      "id": "M_295",
      "pitch": 67,
      "t_note_us": 27450000,
      "t_trigger_us": 27314037,
      "is_ai": false,
      "track_id": 0,
      "velocity": 0,
      "is_motor": true,
      "motor_id": 1,
      "accel_val": 2000,
      "base_duration_us": 150000
    },
    {
      "id": "M_296",
      "pitch": 93,
      "t_note_us": 27600000,
      "t_trigger_us": 27464037,
      "is_ai": true,
      "track_id": 8,
      "velocity": 0,
      "is_motor": false,
      "motor_id": 0,
      "accel_val": 2000,
      "base_duration_us": 150000
    },
    {
      "id": "M_297",
      "pitch": 93,
      "t_note_us": 27600000,
      "t_trigger_us": 27464037,
      "is_ai": true,
      "track_id": 8,
      "velocity": 0,
      "is_motor": false,
      "motor_id": 0,
      "accel_val": 2000,
      "base_duration_us": 150000
    },
    {
      "id": "M_298",
      "pitch": 69,
      "t_note_us": 27600000,
      "t_trigger_us": 27464037,
      "is_ai": false,
      "track_id": 0,
      "velocity": 0,
      "is_motor": true,
      "motor_id": 1,
      "accel_val": 2000,
      "base_duration_us": 150000
    },
    {
      "id": "M_299",
      "pitch": 67,
      "t_note_us": 27750000,
      "t_trigger_us": 27614037,
      "is_ai": false,
      "track_id": 0,
      "velocity": 0,
      "is_motor": true,
      "motor_id": 1,
      "accel_val": 2000,
      "base_duration_us": 150000
    },
    {
      "id": "M_300",
      "pitch": 67,
      "t_note_us": 27750000,
      "t_trigger_us": 27614037,
      "is_ai": false,
      "track_id": 0,
      "velocity": 0,
      "is_motor": true,
      "motor_id": 2,
      "accel_val": 2000,
      "base_duration_us": 150000
    },
    {
      "id": "M_301",
      "pitch": 62,
      "t_note_us": 27900000,
      "t_trigger_us": 27764037,
      "is_ai": false,
      "track_id": 0,
      "velocity": 0,
      "is_motor": true,
      "motor_id": 1,
      "accel_val": 2000,
      "base_duration_us": 150000
    },
    {
      "id": "M_302",
      "pitch": 69,
      "t_note_us": 27900000,
      "t_trigger_us": 27764037,
      "is_ai": false,
      "track_id": 0,
      "velocity": 0,
      "is_motor": true,
      "motor_id": 2,
      "accel_val": 2000,
      "base_duration_us": 150000
    },
    {
      "id": "M_303",
      "pitch": 67,
      "t_note_us": 28050000,
      "t_trigger_us": 27914037,
      "is_ai": false,
      "track_id": 0,
      "velocity": 0,
      "is_motor": true,
      "motor_id": 1,
      "accel_val": 2000,
      "base_duration_us": 150000
    },
    {
      "id": "M_304",
      "pitch": 72,
      "t_note_us": 28050000,
      "t_trigger_us": 27914037,
      "is_ai": false,
      "track_id": 0,
      "velocity": 0,
      "is_motor": true,
      "motor_id": 0,
      "accel_val": 2000,
      "base_duration_us": 150000
    },
    {
      "id": "M_306",
      "pitch": 91,
      "t_note_us": 28200000,
      "t_trigger_us": 28064037,
      "is_ai": true,
      "track_id": 7,
      "velocity": 0,
      "is_motor": false,
      "motor_id": 0,
      "accel_val": 2000,
      "base_duration_us": 150000
    },
    {
      "id": "M_305",
      "pitch": 69,
      "t_note_us": 28200000,
      "t_trigger_us": 28064037,
      "is_ai": false,
      "track_id": 0,
      "velocity": 0,
      "is_motor": true,
      "motor_id": 1,
      "accel_val": 2000,
      "base_duration_us": 150000
    },
    {
      "id": "M_307",
      "pitch": 76,
      "t_note_us": 28350000,
      "t_trigger_us": 28214037,
      "is_ai": false,
      "track_id": 0,
      "velocity": 0,
      "is_motor": true,
      "motor_id": 2,
      "accel_val": 2000,
      "base_duration_us": 150000
    },
    {
      "id": "M_308",
      "pitch": 72,
      "t_note_us": 28350000,
      "t_trigger_us": 28214037,
      "is_ai": false,
      "track_id": 0,
      "velocity": 0,
      "is_motor": true,
      "motor_id": 1,
      "accel_val": 2000,
      "base_duration_us": 150000
    },
    {
      "id": "M_309",
      "pitch": 69,
      "t_note_us": 28500000,
      "t_trigger_us": 28364037,
      "is_ai": false,
      "track_id": 0,
      "velocity": 0,
      "is_motor": true,
      "motor_id": 1,
      "accel_val": 2000,
      "base_duration_us": 150000
    },
    {
      "id": "M_310",
      "pitch": 69,
      "t_note_us": 28500000,
      "t_trigger_us": 28364037,
      "is_ai": false,
      "track_id": 0,
      "velocity": 0,
      "is_motor": true,
      "motor_id": 2,
      "accel_val": 2000,
      "base_duration_us": 150000
    },
    {
      "id": "M_311",
      "pitch": 67,
      "t_note_us": 28650000,
      "t_trigger_us": 28514037,
      "is_ai": false,
      "track_id": 0,
      "velocity": 0,
      "is_motor": true,
      "motor_id": 1,
      "accel_val": 2000,
      "base_duration_us": 150000
    },
    {
      "id": "M_312",
      "pitch": 67,
      "t_note_us": 28650000,
      "t_trigger_us": 28514037,
      "is_ai": false,
      "track_id": 0,
      "velocity": 0,
      "is_motor": true,
      "motor_id": 2,
      "accel_val": 2000,
      "base_duration_us": 150000
    },
    {
      "id": "M_313",
      "pitch": 58,
      "t_note_us": 28800000,
      "t_trigger_us": 28664037,
      "is_ai": false,
      "track_id": 0,
      "velocity": 0,
      "is_motor": true,
      "motor_id": 0,
      "accel_val": 2000,
      "base_duration_us": 75000
    },
    {
      "id": "M_321",
      "pitch": 74,
      "t_note_us": 28800000,
      "t_trigger_us": 28664037,
      "is_ai": false,
      "track_id": 0,
      "velocity": 0,
      "is_motor": true,
      "motor_id": 1,
      "accel_val": 2000,
      "base_duration_us": 600000
    },
    {
      "id": "M_314",
      "pitch": 65,
      "t_note_us": 28875000,
      "t_trigger_us": 28739037,
      "is_ai": false,
      "track_id": 0,
      "velocity": 0,
      "is_motor": true,
      "motor_id": 0,
      "accel_val": 2000,
      "base_duration_us": 75000
    },
    {
      "id": "M_315",
      "pitch": 69,
      "t_note_us": 28950000,
      "t_trigger_us": 28814037,
      "is_ai": false,
      "track_id": 0,
      "velocity": 0,
      "is_motor": true,
      "motor_id": 2,
      "accel_val": 2000,
      "base_duration_us": 75000
    },
    {
      "id": "M_316",
      "pitch": 74,
      "t_note_us": 29025000,
      "t_trigger_us": 28889037,
      "is_ai": false,
      "track_id": 0,
      "velocity": 0,
      "is_motor": true,
      "motor_id": 0,
      "accel_val": 2000,
      "base_duration_us": 75000
    },
    {
      "id": "M_317",
      "pitch": 69,
      "t_note_us": 29100000,
      "t_trigger_us": 28964037,
      "is_ai": false,
      "track_id": 0,
      "velocity": 0,
      "is_motor": true,
      "motor_id": 2,
      "accel_val": 2000,
      "base_duration_us": 75000
    },
    {
      "id": "M_318",
      "pitch": 65,
      "t_note_us": 29175000,
      "t_trigger_us": 29039037,
      "is_ai": false,
      "track_id": 0,
      "velocity": 0,
      "is_motor": true,
      "motor_id": 0,
      "accel_val": 2000,
      "base_duration_us": 75000
    },
    {
      "id": "M_319",
      "pitch": 58,
      "t_note_us": 29250000,
      "t_trigger_us": 29114037,
      "is_ai": false,
      "track_id": 0,
      "velocity": 0,
      "is_motor": true,
      "motor_id": 0,
      "accel_val": 2000,
      "base_duration_us": 75000
    },
    {
      "id": "M_320",
      "pitch": 65,
      "t_note_us": 29325000,
      "t_trigger_us": 29189037,
      "is_ai": false,
      "track_id": 0,
      "velocity": 0,
      "is_motor": true,
      "motor_id": 0,
      "accel_val": 2000,
      "base_duration_us": 75000
    },
    {
      "id": "M_330",
      "pitch": 93,
      "t_note_us": 29400000,
      "t_trigger_us": 29264037,
      "is_ai": true,
      "track_id": 8,
      "velocity": 0,
      "is_motor": false,
      "motor_id": 0,
      "accel_val": 2000,
      "base_duration_us": 600000
    },
    {
      "id": "M_331",
      "pitch": 93,
      "t_note_us": 29400000,
      "t_trigger_us": 29264037,
      "is_ai": true,
      "track_id": 8,
      "velocity": 0,
      "is_motor": false,
      "motor_id": 0,
      "accel_val": 2000,
      "base_duration_us": 600000
    },
    {
      "id": "M_322",
      "pitch": 69,
      "t_note_us": 29400000,
      "t_trigger_us": 29264037,
      "is_ai": false,
      "track_id": 0,
      "velocity": 0,
      "is_motor": true,
      "motor_id": 1,
      "accel_val": 2000,
      "base_duration_us": 75000
    },
    {
      "id": "M_323",
      "pitch": 74,
      "t_note_us": 29475000,
      "t_trigger_us": 29339037,
      "is_ai": false,
      "track_id": 0,
      "velocity": 0,
      "is_motor": true,
      "motor_id": 1,
      "accel_val": 2000,
      "base_duration_us": 75000
    },
    {
      "id": "M_324",
      "pitch": 69,
      "t_note_us": 29550000,
      "t_trigger_us": 29414037,
      "is_ai": false,
      "track_id": 0,
      "velocity": 0,
      "is_motor": true,
      "motor_id": 1,
      "accel_val": 2000,
      "base_duration_us": 75000
    },
    {
      "id": "M_325",
      "pitch": 65,
      "t_note_us": 29625000,
      "t_trigger_us": 29489037,
      "is_ai": false,
      "track_id": 0,
      "velocity": 0,
      "is_motor": true,
      "motor_id": 1,
      "accel_val": 2000,
      "base_duration_us": 75000
    },
    {
      "id": "M_326",
      "pitch": 58,
      "t_note_us": 29700000,
      "t_trigger_us": 29564037,
      "is_ai": false,
      "track_id": 0,
      "velocity": 0,
      "is_motor": true,
      "motor_id": 0,
      "accel_val": 2000,
      "base_duration_us": 75000
    },
    {
      "id": "M_327",
      "pitch": 65,
      "t_note_us": 29775000,
      "t_trigger_us": 29639037,
      "is_ai": false,
      "track_id": 0,
      "velocity": 0,
      "is_motor": true,
      "motor_id": 1,
      "accel_val": 2000,
      "base_duration_us": 75000
    },
    {
      "id": "M_328",
      "pitch": 69,
      "t_note_us": 29850000,
      "t_trigger_us": 29714037,
      "is_ai": false,
      "track_id": 0,
      "velocity": 0,
      "is_motor": true,
      "motor_id": 1,
      "accel_val": 2000,
      "base_duration_us": 75000
    },
    {
      "id": "M_329",
      "pitch": 74,
      "t_note_us": 29925000,
      "t_trigger_us": 29789037,
      "is_ai": false,
      "track_id": 0,
      "velocity": 0,
      "is_motor": true,
      "motor_id": 1,
      "accel_val": 2000,
      "base_duration_us": 75000
    },
    {
      "id": "M_332",
      "pitch": 69,
      "t_note_us": 30000000,
      "t_trigger_us": 29864037,
      "is_ai": false,
      "track_id": 0,
      "velocity": 0,
      "is_motor": true,
      "motor_id": 1,
      "accel_val": 2000,
      "base_duration_us": 75000
    },
    {
      "id": "M_333",
      "pitch": 65,
      "t_note_us": 30075000,
      "t_trigger_us": 29939037,
      "is_ai": false,
      "track_id": 0,
      "velocity": 0,
      "is_motor": true,
      "motor_id": 1,
      "accel_val": 2000,
      "base_duration_us": 75000
    },
    {
      "id": "M_334",
      "pitch": 58,
      "t_note_us": 30150000,
      "t_trigger_us": 30014037,
      "is_ai": false,
      "track_id": 0,
      "velocity": 0,
      "is_motor": true,
      "motor_id": 0,
      "accel_val": 2000,
      "base_duration_us": 75000
    },
    {
      "id": "M_335",
      "pitch": 65,
      "t_note_us": 30225000,
      "t_trigger_us": 30089037,
      "is_ai": false,
      "track_id": 0,
      "velocity": 0,
      "is_motor": true,
      "motor_id": 1,
      "accel_val": 2000,
      "base_duration_us": 75000
    },
    {
      "id": "M_336",
      "pitch": 69,
      "t_note_us": 30300000,
      "t_trigger_us": 30164037,
      "is_ai": false,
      "track_id": 0,
      "velocity": 0,
      "is_motor": true,
      "motor_id": 1,
      "accel_val": 2000,
      "base_duration_us": 75000
    },
    {
      "id": "M_337",
      "pitch": 74,
      "t_note_us": 30375000,
      "t_trigger_us": 30239037,
      "is_ai": false,
      "track_id": 0,
      "velocity": 0,
      "is_motor": true,
      "motor_id": 1,
      "accel_val": 2000,
      "base_duration_us": 75000
    },
    {
      "id": "M_338",
      "pitch": 69,
      "t_note_us": 30450000,
      "t_trigger_us": 30314037,
      "is_ai": false,
      "track_id": 0,
      "velocity": 0,
      "is_motor": true,
      "motor_id": 1,
      "accel_val": 2000,
      "base_duration_us": 75000
    },
    {
      "id": "M_339",
      "pitch": 65,
      "t_note_us": 30525000,
      "t_trigger_us": 30389037,
      "is_ai": false,
      "track_id": 0,
      "velocity": 0,
      "is_motor": true,
      "motor_id": 1,
      "accel_val": 2000,
      "base_duration_us": 75000
    },
    {
      "id": "M_348",
      "pitch": 86,
      "t_note_us": 30600000,
      "t_trigger_us": 30464037,
      "is_ai": true,
      "track_id": 4,
      "velocity": 0,
      "is_motor": false,
      "motor_id": 0,
      "accel_val": 2000,
      "base_duration_us": 600000
    },
    {
      "id": "M_340",
      "pitch": 58,
      "t_note_us": 30600000,
      "t_trigger_us": 30464037,
      "is_ai": false,
      "track_id": 0,
      "velocity": 0,
      "is_motor": true,
      "motor_id": 0,
      "accel_val": 2000,
      "base_duration_us": 75000
    },
    {
      "id": "M_341",
      "pitch": 65,
      "t_note_us": 30675000,
      "t_trigger_us": 30539037,
      "is_ai": false,
      "track_id": 0,
      "velocity": 0,
      "is_motor": true,
      "motor_id": 1,
      "accel_val": 2000,
      "base_duration_us": 75000
    },
    {
      "id": "M_342",
      "pitch": 69,
      "t_note_us": 30750000,
      "t_trigger_us": 30614037,
      "is_ai": false,
      "track_id": 0,
      "velocity": 0,
      "is_motor": true,
      "motor_id": 1,
      "accel_val": 2000,
      "base_duration_us": 75000
    },
    {
      "id": "M_343",
      "pitch": 74,
      "t_note_us": 30825000,
      "t_trigger_us": 30689037,
      "is_ai": false,
      "track_id": 0,
      "velocity": 0,
      "is_motor": true,
      "motor_id": 1,
      "accel_val": 2000,
      "base_duration_us": 75000
    },
    {
      "id": "M_344",
      "pitch": 69,
      "t_note_us": 30900000,
      "t_trigger_us": 30764037,
      "is_ai": false,
      "track_id": 0,
      "velocity": 0,
      "is_motor": true,
      "motor_id": 1,
      "accel_val": 2000,
      "base_duration_us": 75000
    },
    {
      "id": "M_345",
      "pitch": 65,
      "t_note_us": 30975000,
      "t_trigger_us": 30839037,
      "is_ai": false,
      "track_id": 0,
      "velocity": 0,
      "is_motor": true,
      "motor_id": 1,
      "accel_val": 2000,
      "base_duration_us": 75000
    },
    {
      "id": "M_346",
      "pitch": 58,
      "t_note_us": 31050000,
      "t_trigger_us": 30914037,
      "is_ai": false,
      "track_id": 0,
      "velocity": 0,
      "is_motor": true,
      "motor_id": 0,
      "accel_val": 2000,
      "base_duration_us": 75000
    },
    {
      "id": "M_347",
      "pitch": 65,
      "t_note_us": 31125000,
      "t_trigger_us": 30989037,
      "is_ai": false,
      "track_id": 0,
      "velocity": 0,
      "is_motor": true,
      "motor_id": 1,
      "accel_val": 2000,
      "base_duration_us": 75000
    },
    {
      "id": "M_357",
      "pitch": 93,
      "t_note_us": 31200000,
      "t_trigger_us": 31064037,
      "is_ai": true,
      "track_id": 8,
      "velocity": 0,
      "is_motor": false,
      "motor_id": 0,
      "accel_val": 2000,
      "base_duration_us": 600000
    },
    {
      "id": "M_358",
      "pitch": 93,
      "t_note_us": 31200000,
      "t_trigger_us": 31064037,
      "is_ai": true,
      "track_id": 8,
      "velocity": 0,
      "is_motor": false,
      "motor_id": 0,
      "accel_val": 2000,
      "base_duration_us": 600000
    },
    {
      "id": "M_349",
      "pitch": 69,
      "t_note_us": 31200000,
      "t_trigger_us": 31064037,
      "is_ai": false,
      "track_id": 0,
      "velocity": 0,
      "is_motor": true,
      "motor_id": 1,
      "accel_val": 2000,
      "base_duration_us": 75000
    },
    {
      "id": "M_350",
      "pitch": 74,
      "t_note_us": 31275000,
      "t_trigger_us": 31139037,
      "is_ai": false,
      "track_id": 0,
      "velocity": 0,
      "is_motor": true,
      "motor_id": 1,
      "accel_val": 2000,
      "base_duration_us": 75000
    },
    {
      "id": "M_351",
      "pitch": 69,
      "t_note_us": 31350000,
      "t_trigger_us": 31214037,
      "is_ai": false,
      "track_id": 0,
      "velocity": 0,
      "is_motor": true,
      "motor_id": 1,
      "accel_val": 2000,
      "base_duration_us": 75000
    },
    {
      "id": "M_352",
      "pitch": 65,
      "t_note_us": 31425000,
      "t_trigger_us": 31289037,
      "is_ai": false,
      "track_id": 0,
      "velocity": 0,
      "is_motor": true,
      "motor_id": 1,
      "accel_val": 2000,
      "base_duration_us": 75000
    },
    {
      "id": "M_353",
      "pitch": 58,
      "t_note_us": 31500000,
      "t_trigger_us": 31364037,
      "is_ai": false,
      "track_id": 0,
      "velocity": 0,
      "is_motor": true,
      "motor_id": 0,
      "accel_val": 2000,
      "base_duration_us": 75000
    },
    {
      "id": "M_354",
      "pitch": 65,
      "t_note_us": 31575000,
      "t_trigger_us": 31439037,
      "is_ai": false,
      "track_id": 0,
      "velocity": 0,
      "is_motor": true,
      "motor_id": 1,
      "accel_val": 2000,
      "base_duration_us": 75000
    },
    {
      "id": "M_355",
      "pitch": 69,
      "t_note_us": 31650000,
      "t_trigger_us": 31514037,
      "is_ai": false,
      "track_id": 0,
      "velocity": 0,
      "is_motor": true,
      "motor_id": 1,
      "accel_val": 2000,
      "base_duration_us": 75000
    },
    {
      "id": "M_356",
      "pitch": 74,
      "t_note_us": 31725000,
      "t_trigger_us": 31589037,
      "is_ai": false,
      "track_id": 0,
      "velocity": 0,
      "is_motor": true,
      "motor_id": 1,
      "accel_val": 2000,
      "base_duration_us": 75000
    },
    {
      "id": "M_359",
      "pitch": 69,
      "t_note_us": 31800000,
      "t_trigger_us": 31664037,
      "is_ai": false,
      "track_id": 0,
      "velocity": 0,
      "is_motor": true,
      "motor_id": 1,
      "accel_val": 2000,
      "base_duration_us": 75000
    },
    {
      "id": "M_360",
      "pitch": 65,
      "t_note_us": 31875000,
      "t_trigger_us": 31739037,
      "is_ai": false,
      "track_id": 0,
      "velocity": 0,
      "is_motor": true,
      "motor_id": 1,
      "accel_val": 2000,
      "base_duration_us": 75000
    },
    {
      "id": "M_361",
      "pitch": 58,
      "t_note_us": 31950000,
      "t_trigger_us": 31814037,
      "is_ai": false,
      "track_id": 0,
      "velocity": 0,
      "is_motor": true,
      "motor_id": 0,
      "accel_val": 2000,
      "base_duration_us": 75000
    },
    {
      "id": "M_362",
      "pitch": 65,
      "t_note_us": 32025000,
      "t_trigger_us": 31889037,
      "is_ai": false,
      "track_id": 0,
      "velocity": 0,
      "is_motor": true,
      "motor_id": 1,
      "accel_val": 2000,
      "base_duration_us": 75000
    },
    {
      "id": "M_363",
      "pitch": 69,
      "t_note_us": 32100000,
      "t_trigger_us": 31964037,
      "is_ai": false,
      "track_id": 0,
      "velocity": 0,
      "is_motor": true,
      "motor_id": 1,
      "accel_val": 2000,
      "base_duration_us": 75000
    },
    {
      "id": "M_364",
      "pitch": 74,
      "t_note_us": 32175000,
      "t_trigger_us": 32039037,
      "is_ai": false,
      "track_id": 0,
      "velocity": 0,
      "is_motor": true,
      "motor_id": 1,
      "accel_val": 2000,
      "base_duration_us": 75000
    },
    {
      "id": "M_365",
      "pitch": 69,
      "t_note_us": 32250000,
      "t_trigger_us": 32114037,
      "is_ai": false,
      "track_id": 0,
      "velocity": 0,
      "is_motor": true,
      "motor_id": 1,
      "accel_val": 2000,
      "base_duration_us": 75000
    },
    {
      "id": "M_366",
      "pitch": 65,
      "t_note_us": 32325000,
      "t_trigger_us": 32189037,
      "is_ai": false,
      "track_id": 0,
      "velocity": 0,
      "is_motor": true,
      "motor_id": 1,
      "accel_val": 2000,
      "base_duration_us": 75000
    },
    {
      "id": "M_373",
      "pitch": 88,
      "t_note_us": 32400000,
      "t_trigger_us": 32264037,
      "is_ai": true,
      "track_id": 5,
      "velocity": 0,
      "is_motor": false,
      "motor_id": 0,
      "accel_val": 2000,
      "base_duration_us": 450000
    },
    {
      "id": "M_367",
      "pitch": 60,
      "t_note_us": 32400000,
      "t_trigger_us": 32264037,
      "is_ai": false,
      "track_id": 0,
      "velocity": 0,
      "is_motor": true,
      "motor_id": 1,
      "accel_val": 2000,
      "base_duration_us": 75000
    },
    {
      "id": "M_368",
      "pitch": 67,
      "t_note_us": 32475000,
      "t_trigger_us": 32339037,
      "is_ai": false,
      "track_id": 0,
      "velocity": 0,
      "is_motor": true,
      "motor_id": 1,
      "accel_val": 2000,
      "base_duration_us": 75000
    },
    {
      "id": "M_369",
      "pitch": 69,
      "t_note_us": 32550000,
      "t_trigger_us": 32414037,
      "is_ai": false,
      "track_id": 0,
      "velocity": 0,
      "is_motor": true,
      "motor_id": 1,
      "accel_val": 2000,
      "base_duration_us": 75000
    },
    {
      "id": "M_370",
      "pitch": 76,
      "t_note_us": 32625000,
      "t_trigger_us": 32489037,
      "is_ai": false,
      "track_id": 0,
      "velocity": 0,
      "is_motor": true,
      "motor_id": 2,
      "accel_val": 2000,
      "base_duration_us": 75000
    },
    {
      "id": "M_371",
      "pitch": 69,
      "t_note_us": 32700000,
      "t_trigger_us": 32564037,
      "is_ai": false,
      "track_id": 0,
      "velocity": 0,
      "is_motor": true,
      "motor_id": 1,
      "accel_val": 2000,
      "base_duration_us": 75000
    },
    {
      "id": "M_372",
      "pitch": 67,
      "t_note_us": 32775000,
      "t_trigger_us": 32639037,
      "is_ai": false,
      "track_id": 0,
      "velocity": 0,
      "is_motor": true,
      "motor_id": 1,
      "accel_val": 2000,
      "base_duration_us": 75000
    },
    {
      "id": "M_374",
      "pitch": 60,
      "t_note_us": 32850000,
      "t_trigger_us": 32714037,
      "is_ai": false,
      "track_id": 0,
      "velocity": 0,
      "is_motor": true,
      "motor_id": 1,
      "accel_val": 2000,
      "base_duration_us": 75000
    },
    {
      "id": "M_375",
      "pitch": 67,
      "t_note_us": 32925000,
      "t_trigger_us": 32789037,
      "is_ai": false,
      "track_id": 0,
      "velocity": 0,
      "is_motor": true,
      "motor_id": 1,
      "accel_val": 2000,
      "base_duration_us": 75000
    },
    {
      "id": "M_384",
      "pitch": 93,
      "t_note_us": 33000000,
      "t_trigger_us": 32864037,
      "is_ai": true,
      "track_id": 8,
      "velocity": 0,
      "is_motor": false,
      "motor_id": 0,
      "accel_val": 2000,
      "base_duration_us": 600000
    },
    {
      "id": "M_385",
      "pitch": 93,
      "t_note_us": 33000000,
      "t_trigger_us": 32864037,
      "is_ai": true,
      "track_id": 8,
      "velocity": 0,
      "is_motor": false,
      "motor_id": 0,
      "accel_val": 2000,
      "base_duration_us": 600000
    },
    {
      "id": "M_376",
      "pitch": 69,
      "t_note_us": 33000000,
      "t_trigger_us": 32864037,
      "is_ai": false,
      "track_id": 0,
      "velocity": 0,
      "is_motor": true,
      "motor_id": 1,
      "accel_val": 2000,
      "base_duration_us": 75000
    },
    {
      "id": "M_377",
      "pitch": 76,
      "t_note_us": 33075000,
      "t_trigger_us": 32939037,
      "is_ai": false,
      "track_id": 0,
      "velocity": 0,
      "is_motor": true,
      "motor_id": 2,
      "accel_val": 2000,
      "base_duration_us": 75000
    },
    {
      "id": "M_378",
      "pitch": 69,
      "t_note_us": 33150000,
      "t_trigger_us": 33014037,
      "is_ai": false,
      "track_id": 0,
      "velocity": 0,
      "is_motor": true,
      "motor_id": 1,
      "accel_val": 2000,
      "base_duration_us": 75000
    },
    {
      "id": "M_379",
      "pitch": 67,
      "t_note_us": 33225000,
      "t_trigger_us": 33089037,
      "is_ai": false,
      "track_id": 0,
      "velocity": 0,
      "is_motor": true,
      "motor_id": 1,
      "accel_val": 2000,
      "base_duration_us": 75000
    },
    {
      "id": "M_380",
      "pitch": 60,
      "t_note_us": 33300000,
      "t_trigger_us": 33164037,
      "is_ai": false,
      "track_id": 0,
      "velocity": 0,
      "is_motor": true,
      "motor_id": 1,
      "accel_val": 2000,
      "base_duration_us": 75000
    },
    {
      "id": "M_381",
      "pitch": 67,
      "t_note_us": 33375000,
      "t_trigger_us": 33239037,
      "is_ai": false,
      "track_id": 0,
      "velocity": 0,
      "is_motor": true,
      "motor_id": 1,
      "accel_val": 2000,
      "base_duration_us": 75000
    },
    {
      "id": "M_382",
      "pitch": 69,
      "t_note_us": 33450000,
      "t_trigger_us": 33314037,
      "is_ai": false,
      "track_id": 0,
      "velocity": 0,
      "is_motor": true,
      "motor_id": 1,
      "accel_val": 2000,
      "base_duration_us": 75000
    },
    {
      "id": "M_383",
      "pitch": 76,
      "t_note_us": 33525000,
      "t_trigger_us": 33389037,
      "is_ai": false,
      "track_id": 0,
      "velocity": 0,
      "is_motor": true,
      "motor_id": 2,
      "accel_val": 2000,
      "base_duration_us": 75000
    },
    {
      "id": "M_386",
      "pitch": 69,
      "t_note_us": 33600000,
      "t_trigger_us": 33464037,
      "is_ai": false,
      "track_id": 0,
      "velocity": 0,
      "is_motor": true,
      "motor_id": 1,
      "accel_val": 2000,
      "base_duration_us": 75000
    },
    {
      "id": "M_387",
      "pitch": 67,
      "t_note_us": 33675000,
      "t_trigger_us": 33539037,
      "is_ai": false,
      "track_id": 0,
      "velocity": 0,
      "is_motor": true,
      "motor_id": 1,
      "accel_val": 2000,
      "base_duration_us": 75000
    },
    {
      "id": "M_388",
      "pitch": 60,
      "t_note_us": 33750000,
      "t_trigger_us": 33614037,
      "is_ai": false,
      "track_id": 0,
      "velocity": 0,
      "is_motor": true,
      "motor_id": 1,
      "accel_val": 2000,
      "base_duration_us": 75000
    },
    {
      "id": "M_389",
      "pitch": 67,
      "t_note_us": 33825000,
      "t_trigger_us": 33689037,
      "is_ai": false,
      "track_id": 0,
      "velocity": 0,
      "is_motor": true,
      "motor_id": 1,
      "accel_val": 2000,
      "base_duration_us": 75000
    },
    {
      "id": "M_390",
      "pitch": 69,
      "t_note_us": 33900000,
      "t_trigger_us": 33764037,
      "is_ai": false,
      "track_id": 0,
      "velocity": 0,
      "is_motor": true,
      "motor_id": 1,
      "accel_val": 2000,
      "base_duration_us": 75000
    },
    {
      "id": "M_391",
      "pitch": 76,
      "t_note_us": 33975000,
      "t_trigger_us": 33839037,
      "is_ai": false,
      "track_id": 0,
      "velocity": 0,
      "is_motor": true,
      "motor_id": 2,
      "accel_val": 2000,
      "base_duration_us": 75000
    },
    {
      "id": "M_392",
      "pitch": 69,
      "t_note_us": 34050000,
      "t_trigger_us": 33914037,
      "is_ai": false,
      "track_id": 0,
      "velocity": 0,
      "is_motor": true,
      "motor_id": 1,
      "accel_val": 2000,
      "base_duration_us": 75000
    },
    {
      "id": "M_393",
      "pitch": 67,
      "t_note_us": 34125000,
      "t_trigger_us": 33989037,
      "is_ai": false,
      "track_id": 0,
      "velocity": 0,
      "is_motor": true,
      "motor_id": 1,
      "accel_val": 2000,
      "base_duration_us": 75000
    },
    {
      "id": "M_400",
      "pitch": 88,
      "t_note_us": 34200000,
      "t_trigger_us": 34064037,
      "is_ai": true,
      "track_id": 5,
      "velocity": 0,
      "is_motor": false,
      "motor_id": 0,
      "accel_val": 2000,
      "base_duration_us": 450000
    },
    {
      "id": "M_394",
      "pitch": 60,
      "t_note_us": 34200000,
      "t_trigger_us": 34064037,
      "is_ai": false,
      "track_id": 0,
      "velocity": 0,
      "is_motor": true,
      "motor_id": 1,
      "accel_val": 2000,
      "base_duration_us": 75000
    },
    {
      "id": "M_395",
      "pitch": 67,
      "t_note_us": 34275000,
      "t_trigger_us": 34139037,
      "is_ai": false,
      "track_id": 0,
      "velocity": 0,
      "is_motor": true,
      "motor_id": 1,
      "accel_val": 2000,
      "base_duration_us": 75000
    },
    {
      "id": "M_396",
      "pitch": 69,
      "t_note_us": 34350000,
      "t_trigger_us": 34214037,
      "is_ai": false,
      "track_id": 0,
      "velocity": 0,
      "is_motor": true,
      "motor_id": 1,
      "accel_val": 2000,
      "base_duration_us": 75000
    },
    {
      "id": "M_397",
      "pitch": 76,
      "t_note_us": 34425000,
      "t_trigger_us": 34289037,
      "is_ai": false,
      "track_id": 0,
      "velocity": 0,
      "is_motor": true,
      "motor_id": 2,
      "accel_val": 2000,
      "base_duration_us": 75000
    },
    {
      "id": "M_398",
      "pitch": 69,
      "t_note_us": 34500000,
      "t_trigger_us": 34364037,
      "is_ai": false,
      "track_id": 0,
      "velocity": 0,
      "is_motor": true,
      "motor_id": 1,
      "accel_val": 2000,
      "base_duration_us": 75000
    },
    {
      "id": "M_399",
      "pitch": 67,
      "t_note_us": 34575000,
      "t_trigger_us": 34439037,
      "is_ai": false,
      "track_id": 0,
      "velocity": 0,
      "is_motor": true,
      "motor_id": 1,
      "accel_val": 2000,
      "base_duration_us": 75000
    },
    {
      "id": "M_401",
      "pitch": 60,
      "t_note_us": 34650000,
      "t_trigger_us": 34514037,
      "is_ai": false,
      "track_id": 0,
      "velocity": 0,
      "is_motor": true,
      "motor_id": 1,
      "accel_val": 2000,
      "base_duration_us": 75000
    },
    {
      "id": "M_402",
      "pitch": 67,
      "t_note_us": 34725000,
      "t_trigger_us": 34589037,
      "is_ai": false,
      "track_id": 0,
      "velocity": 0,
      "is_motor": true,
      "motor_id": 1,
      "accel_val": 2000,
      "base_duration_us": 75000
    },
    {
      "id": "M_411",
      "pitch": 93,
      "t_note_us": 34800000,
      "t_trigger_us": 34664037,
      "is_ai": true,
      "track_id": 8,
      "velocity": 0,
      "is_motor": false,
      "motor_id": 0,
      "accel_val": 2000,
      "base_duration_us": 600000
    },
    {
      "id": "M_412",
      "pitch": 93,
      "t_note_us": 34800000,
      "t_trigger_us": 34664037,
      "is_ai": true,
      "track_id": 8,
      "velocity": 0,
      "is_motor": false,
      "motor_id": 0,
      "accel_val": 2000,
      "base_duration_us": 600000
    },
    {
      "id": "M_403",
      "pitch": 69,
      "t_note_us": 34800000,
      "t_trigger_us": 34664037,
      "is_ai": false,
      "track_id": 0,
      "velocity": 0,
      "is_motor": true,
      "motor_id": 1,
      "accel_val": 2000,
      "base_duration_us": 75000
    },
    {
      "id": "M_404",
      "pitch": 76,
      "t_note_us": 34875000,
      "t_trigger_us": 34739037,
      "is_ai": false,
      "track_id": 0,
      "velocity": 0,
      "is_motor": true,
      "motor_id": 2,
      "accel_val": 2000,
      "base_duration_us": 75000
    },
    {
      "id": "M_405",
      "pitch": 69,
      "t_note_us": 34950000,
      "t_trigger_us": 34814037,
      "is_ai": false,
      "track_id": 0,
      "velocity": 0,
      "is_motor": true,
      "motor_id": 1,
      "accel_val": 2000,
      "base_duration_us": 75000
    },
    {
      "id": "M_406",
      "pitch": 67,
      "t_note_us": 35025000,
      "t_trigger_us": 34889037,
      "is_ai": false,
      "track_id": 0,
      "velocity": 0,
      "is_motor": true,
      "motor_id": 1,
      "accel_val": 2000,
      "base_duration_us": 75000
    },
    {
      "id": "M_407",
      "pitch": 60,
      "t_note_us": 35100000,
      "t_trigger_us": 34964037,
      "is_ai": false,
      "track_id": 0,
      "velocity": 0,
      "is_motor": true,
      "motor_id": 1,
      "accel_val": 2000,
      "base_duration_us": 75000
    },
    {
      "id": "M_408",
      "pitch": 67,
      "t_note_us": 35175000,
      "t_trigger_us": 35039037,
      "is_ai": false,
      "track_id": 0,
      "velocity": 0,
      "is_motor": true,
      "motor_id": 1,
      "accel_val": 2000,
      "base_duration_us": 75000
    },
    {
      "id": "M_409",
      "pitch": 69,
      "t_note_us": 35250000,
      "t_trigger_us": 35114037,
      "is_ai": false,
      "track_id": 0,
      "velocity": 0,
      "is_motor": true,
      "motor_id": 1,
      "accel_val": 2000,
      "base_duration_us": 75000
    },
    {
      "id": "M_410",
      "pitch": 76,
      "t_note_us": 35325000,
      "t_trigger_us": 35189037,
      "is_ai": false,
      "track_id": 0,
      "velocity": 0,
      "is_motor": true,
      "motor_id": 2,
      "accel_val": 2000,
      "base_duration_us": 75000
    },
    {
      "id": "M_413",
      "pitch": 69,
      "t_note_us": 35400000,
      "t_trigger_us": 35264037,
      "is_ai": false,
      "track_id": 0,
      "velocity": 0,
      "is_motor": true,
      "motor_id": 1,
      "accel_val": 2000,
      "base_duration_us": 75000
    },
    {
      "id": "M_414",
      "pitch": 67,
      "t_note_us": 35475000,
      "t_trigger_us": 35339037,
      "is_ai": false,
      "track_id": 0,
      "velocity": 0,
      "is_motor": true,
      "motor_id": 1,
      "accel_val": 2000,
      "base_duration_us": 75000
    },
    {
      "id": "M_415",
      "pitch": 60,
      "t_note_us": 35550000,
      "t_trigger_us": 35414037,
      "is_ai": false,
      "track_id": 0,
      "velocity": 0,
      "is_motor": true,
      "motor_id": 1,
      "accel_val": 2000,
      "base_duration_us": 75000
    },
    {
      "id": "M_416",
      "pitch": 67,
      "t_note_us": 35625000,
      "t_trigger_us": 35489037,
      "is_ai": false,
      "track_id": 0,
      "velocity": 0,
      "is_motor": true,
      "motor_id": 1,
      "accel_val": 2000,
      "base_duration_us": 75000
    },
    {
      "id": "M_417",
      "pitch": 69,
      "t_note_us": 35700000,
      "t_trigger_us": 35564037,
      "is_ai": false,
      "track_id": 0,
      "velocity": 0,
      "is_motor": true,
      "motor_id": 1,
      "accel_val": 2000,
      "base_duration_us": 75000
    },
    {
      "id": "M_418",
      "pitch": 76,
      "t_note_us": 35775000,
      "t_trigger_us": 35639037,
      "is_ai": false,
      "track_id": 0,
      "velocity": 0,
      "is_motor": true,
      "motor_id": 2,
      "accel_val": 2000,
      "base_duration_us": 75000
    },
    {
      "id": "M_419",
      "pitch": 69,
      "t_note_us": 35850000,
      "t_trigger_us": 35714037,
      "is_ai": false,
      "track_id": 0,
      "velocity": 0,
      "is_motor": true,
      "motor_id": 1,
      "accel_val": 2000,
      "base_duration_us": 75000
    },
    {
      "id": "M_420",
      "pitch": 67,
      "t_note_us": 35925000,
      "t_trigger_us": 35789037,
      "is_ai": false,
      "track_id": 0,
      "velocity": 0,
      "is_motor": true,
      "motor_id": 1,
      "accel_val": 2000,
      "base_duration_us": 75000
    },
    {
      "id": "M_429",
      "pitch": 89,
      "t_note_us": 36000000,
      "t_trigger_us": 35864037,
      "is_ai": true,
      "track_id": 6,
      "velocity": 0,
      "is_motor": false,
      "motor_id": 0,
      "accel_val": 2000,
      "base_duration_us": 600000
    },
    {
      "id": "M_421",
      "pitch": 62,
      "t_note_us": 36000000,
      "t_trigger_us": 35864037,
      "is_ai": false,
      "track_id": 0,
      "velocity": 0,
      "is_motor": true,
      "motor_id": 1,
      "accel_val": 2000,
      "base_duration_us": 75000
    },
    {
      "id": "M_422",
      "pitch": 65,
      "t_note_us": 36075000,
      "t_trigger_us": 35939037,
      "is_ai": false,
      "track_id": 0,
      "velocity": 0,
      "is_motor": true,
      "motor_id": 1,
      "accel_val": 2000,
      "base_duration_us": 75000
    },
    {
      "id": "M_423",
      "pitch": 69,
      "t_note_us": 36150000,
      "t_trigger_us": 36014037,
      "is_ai": false,
      "track_id": 0,
      "velocity": 0,
      "is_motor": true,
      "motor_id": 1,
      "accel_val": 2000,
      "base_duration_us": 75000
    },
    {
      "id": "M_424",
      "pitch": 77,
      "t_note_us": 36225000,
      "t_trigger_us": 36089037,
      "is_ai": false,
      "track_id": 0,
      "velocity": 0,
      "is_motor": true,
      "motor_id": 2,
      "accel_val": 2000,
      "base_duration_us": 75000
    },
    {
      "id": "M_425",
      "pitch": 69,
      "t_note_us": 36300000,
      "t_trigger_us": 36164037,
      "is_ai": false,
      "track_id": 0,
      "velocity": 0,
      "is_motor": true,
      "motor_id": 1,
      "accel_val": 2000,
      "base_duration_us": 75000
    },
    {
      "id": "M_426",
      "pitch": 65,
      "t_note_us": 36375000,
      "t_trigger_us": 36239037,
      "is_ai": false,
      "track_id": 0,
      "velocity": 0,
      "is_motor": true,
      "motor_id": 1,
      "accel_val": 2000,
      "base_duration_us": 75000
    },
    {
      "id": "M_427",
      "pitch": 62,
      "t_note_us": 36450000,
      "t_trigger_us": 36314037,
      "is_ai": false,
      "track_id": 0,
      "velocity": 0,
      "is_motor": true,
      "motor_id": 1,
      "accel_val": 2000,
      "base_duration_us": 75000
    },
    {
      "id": "M_428",
      "pitch": 65,
      "t_note_us": 36525000,
      "t_trigger_us": 36389037,
      "is_ai": false,
      "track_id": 0,
      "velocity": 0,
      "is_motor": true,
      "motor_id": 1,
      "accel_val": 2000,
      "base_duration_us": 75000
    },
    {
      "id": "M_438",
      "pitch": 93,
      "t_note_us": 36600000,
      "t_trigger_us": 36464037,
      "is_ai": true,
      "track_id": 8,
      "velocity": 0,
      "is_motor": false,
      "motor_id": 0,
      "accel_val": 2000,
      "base_duration_us": 600000
    },
    {
      "id": "M_439",
      "pitch": 93,
      "t_note_us": 36600000,
      "t_trigger_us": 36464037,
      "is_ai": true,
      "track_id": 8,
      "velocity": 0,
      "is_motor": false,
      "motor_id": 0,
      "accel_val": 2000,
      "base_duration_us": 600000
    },
    {
      "id": "M_430",
      "pitch": 69,
      "t_note_us": 36600000,
      "t_trigger_us": 36464037,
      "is_ai": false,
      "track_id": 0,
      "velocity": 0,
      "is_motor": true,
      "motor_id": 1,
      "accel_val": 2000,
      "base_duration_us": 75000
    },
    {
      "id": "M_431",
      "pitch": 77,
      "t_note_us": 36675000,
      "t_trigger_us": 36539037,
      "is_ai": false,
      "track_id": 0,
      "velocity": 0,
      "is_motor": true,
      "motor_id": 2,
      "accel_val": 2000,
      "base_duration_us": 75000
    },
    {
      "id": "M_432",
      "pitch": 69,
      "t_note_us": 36750000,
      "t_trigger_us": 36614037,
      "is_ai": false,
      "track_id": 0,
      "velocity": 0,
      "is_motor": true,
      "motor_id": 1,
      "accel_val": 2000,
      "base_duration_us": 75000
    },
    {
      "id": "M_433",
      "pitch": 65,
      "t_note_us": 36825000,
      "t_trigger_us": 36689037,
      "is_ai": false,
      "track_id": 0,
      "velocity": 0,
      "is_motor": true,
      "motor_id": 1,
      "accel_val": 2000,
      "base_duration_us": 75000
    },
    {
      "id": "M_434",
      "pitch": 62,
      "t_note_us": 36900000,
      "t_trigger_us": 36764037,
      "is_ai": false,
      "track_id": 0,
      "velocity": 0,
      "is_motor": true,
      "motor_id": 1,
      "accel_val": 2000,
      "base_duration_us": 75000
    },
    {
      "id": "M_435",
      "pitch": 65,
      "t_note_us": 36975000,
      "t_trigger_us": 36839037,
      "is_ai": false,
      "track_id": 0,
      "velocity": 0,
      "is_motor": true,
      "motor_id": 1,
      "accel_val": 2000,
      "base_duration_us": 75000
    },
    {
      "id": "M_436",
      "pitch": 69,
      "t_note_us": 37050000,
      "t_trigger_us": 36914037,
      "is_ai": false,
      "track_id": 0,
      "velocity": 0,
      "is_motor": true,
      "motor_id": 1,
      "accel_val": 2000,
      "base_duration_us": 75000
    },
    {
      "id": "M_437",
      "pitch": 77,
      "t_note_us": 37125000,
      "t_trigger_us": 36989037,
      "is_ai": false,
      "track_id": 0,
      "velocity": 0,
      "is_motor": true,
      "motor_id": 2,
      "accel_val": 2000,
      "base_duration_us": 75000
    },
    {
      "id": "M_440",
      "pitch": 69,
      "t_note_us": 37200000,
      "t_trigger_us": 37064037,
      "is_ai": false,
      "track_id": 0,
      "velocity": 0,
      "is_motor": true,
      "motor_id": 1,
      "accel_val": 2000,
      "base_duration_us": 75000
    },
    {
      "id": "M_441",
      "pitch": 65,
      "t_note_us": 37275000,
      "t_trigger_us": 37139037,
      "is_ai": false,
      "track_id": 0,
      "velocity": 0,
      "is_motor": true,
      "motor_id": 1,
      "accel_val": 2000,
      "base_duration_us": 75000
    },
    {
      "id": "M_442",
      "pitch": 62,
      "t_note_us": 37350000,
      "t_trigger_us": 37214037,
      "is_ai": false,
      "track_id": 0,
      "velocity": 0,
      "is_motor": true,
      "motor_id": 1,
      "accel_val": 2000,
      "base_duration_us": 75000
    },
    {
      "id": "M_443",
      "pitch": 65,
      "t_note_us": 37425000,
      "t_trigger_us": 37289037,
      "is_ai": false,
      "track_id": 0,
      "velocity": 0,
      "is_motor": true,
      "motor_id": 1,
      "accel_val": 2000,
      "base_duration_us": 75000
    },
    {
      "id": "M_444",
      "pitch": 69,
      "t_note_us": 37500000,
      "t_trigger_us": 37364037,
      "is_ai": false,
      "track_id": 0,
      "velocity": 0,
      "is_motor": true,
      "motor_id": 1,
      "accel_val": 2000,
      "base_duration_us": 75000
    },
    {
      "id": "M_445",
      "pitch": 77,
      "t_note_us": 37575000,
      "t_trigger_us": 37439037,
      "is_ai": false,
      "track_id": 0,
      "velocity": 0,
      "is_motor": true,
      "motor_id": 2,
      "accel_val": 2000,
      "base_duration_us": 75000
    },
    {
      "id": "M_446",
      "pitch": 69,
      "t_note_us": 37650000,
      "t_trigger_us": 37514037,
      "is_ai": false,
      "track_id": 0,
      "velocity": 0,
      "is_motor": true,
      "motor_id": 1,
      "accel_val": 2000,
      "base_duration_us": 75000
    },
    {
      "id": "M_447",
      "pitch": 65,
      "t_note_us": 37725000,
      "t_trigger_us": 37589037,
      "is_ai": false,
      "track_id": 0,
      "velocity": 0,
      "is_motor": true,
      "motor_id": 1,
      "accel_val": 2000,
      "base_duration_us": 75000
    },
    {
      "id": "M_456",
      "pitch": 89,
      "t_note_us": 37800000,
      "t_trigger_us": 37664037,
      "is_ai": true,
      "track_id": 6,
      "velocity": 0,
      "is_motor": false,
      "motor_id": 0,
      "accel_val": 2000,
      "base_duration_us": 600000
    },
    {
      "id": "M_448",
      "pitch": 62,
      "t_note_us": 37800000,
      "t_trigger_us": 37664037,
      "is_ai": false,
      "track_id": 0,
      "velocity": 0,
      "is_motor": true,
      "motor_id": 1,
      "accel_val": 2000,
      "base_duration_us": 75000
    },
    {
      "id": "M_449",
      "pitch": 65,
      "t_note_us": 37875000,
      "t_trigger_us": 37739037,
      "is_ai": false,
      "track_id": 0,
      "velocity": 0,
      "is_motor": true,
      "motor_id": 1,
      "accel_val": 2000,
      "base_duration_us": 75000
    },
    {
      "id": "M_450",
      "pitch": 69,
      "t_note_us": 37950000,
      "t_trigger_us": 37814037,
      "is_ai": false,
      "track_id": 0,
      "velocity": 0,
      "is_motor": true,
      "motor_id": 1,
      "accel_val": 2000,
      "base_duration_us": 75000
    },
    {
      "id": "M_451",
      "pitch": 77,
      "t_note_us": 38025000,
      "t_trigger_us": 37889037,
      "is_ai": false,
      "track_id": 0,
      "velocity": 0,
      "is_motor": true,
      "motor_id": 2,
      "accel_val": 2000,
      "base_duration_us": 75000
    },
    {
      "id": "M_452",
      "pitch": 69,
      "t_note_us": 38100000,
      "t_trigger_us": 37964037,
      "is_ai": false,
      "track_id": 0,
      "velocity": 0,
      "is_motor": true,
      "motor_id": 1,
      "accel_val": 2000,
      "base_duration_us": 75000
    },
    {
      "id": "M_453",
      "pitch": 65,
      "t_note_us": 38175000,
      "t_trigger_us": 38039037,
      "is_ai": false,
      "track_id": 0,
      "velocity": 0,
      "is_motor": true,
      "motor_id": 1,
      "accel_val": 2000,
      "base_duration_us": 75000
    },
    {
      "id": "M_454",
      "pitch": 62,
      "t_note_us": 38250000,
      "t_trigger_us": 38114037,
      "is_ai": false,
      "track_id": 0,
      "velocity": 0,
      "is_motor": true,
      "motor_id": 1,
      "accel_val": 2000,
      "base_duration_us": 75000
    },
    {
      "id": "M_455",
      "pitch": 65,
      "t_note_us": 38325000,
      "t_trigger_us": 38189037,
      "is_ai": false,
      "track_id": 0,
      "velocity": 0,
      "is_motor": true,
      "motor_id": 1,
      "accel_val": 2000,
      "base_duration_us": 75000
    },
    {
      "id": "M_465",
      "pitch": 93,
      "t_note_us": 38400000,
      "t_trigger_us": 38264037,
      "is_ai": true,
      "track_id": 8,
      "velocity": 0,
      "is_motor": false,
      "motor_id": 0,
      "accel_val": 2000,
      "base_duration_us": 600000
    },
    {
      "id": "M_466",
      "pitch": 93,
      "t_note_us": 38400000,
      "t_trigger_us": 38264037,
      "is_ai": true,
      "track_id": 8,
      "velocity": 0,
      "is_motor": false,
      "motor_id": 0,
      "accel_val": 2000,
      "base_duration_us": 600000
    },
    {
      "id": "M_457",
      "pitch": 69,
      "t_note_us": 38400000,
      "t_trigger_us": 38264037,
      "is_ai": false,
      "track_id": 0,
      "velocity": 0,
      "is_motor": true,
      "motor_id": 1,
      "accel_val": 2000,
      "base_duration_us": 75000
    },
    {
      "id": "M_458",
      "pitch": 77,
      "t_note_us": 38475000,
      "t_trigger_us": 38339037,
      "is_ai": false,
      "track_id": 0,
      "velocity": 0,
      "is_motor": true,
      "motor_id": 2,
      "accel_val": 2000,
      "base_duration_us": 75000
    },
    {
      "id": "M_459",
      "pitch": 69,
      "t_note_us": 38550000,
      "t_trigger_us": 38414037,
      "is_ai": false,
      "track_id": 0,
      "velocity": 0,
      "is_motor": true,
      "motor_id": 1,
      "accel_val": 2000,
      "base_duration_us": 75000
    },
    {
      "id": "M_460",
      "pitch": 65,
      "t_note_us": 38625000,
      "t_trigger_us": 38489037,
      "is_ai": false,
      "track_id": 0,
      "velocity": 0,
      "is_motor": true,
      "motor_id": 1,
      "accel_val": 2000,
      "base_duration_us": 75000
    },
    {
      "id": "M_461",
      "pitch": 62,
      "t_note_us": 38700000,
      "t_trigger_us": 38564037,
      "is_ai": false,
      "track_id": 0,
      "velocity": 0,
      "is_motor": true,
      "motor_id": 1,
      "accel_val": 2000,
      "base_duration_us": 75000
    },
    {
      "id": "M_462",
      "pitch": 65,
      "t_note_us": 38775000,
      "t_trigger_us": 38639037,
      "is_ai": false,
      "track_id": 0,
      "velocity": 0,
      "is_motor": true,
      "motor_id": 1,
      "accel_val": 2000,
      "base_duration_us": 75000
    },
    {
      "id": "M_463",
      "pitch": 69,
      "t_note_us": 38850000,
      "t_trigger_us": 38714037,
      "is_ai": false,
      "track_id": 0,
      "velocity": 0,
      "is_motor": true,
      "motor_id": 1,
      "accel_val": 2000,
      "base_duration_us": 75000
    },
    {
      "id": "M_464",
      "pitch": 77,
      "t_note_us": 38925000,
      "t_trigger_us": 38789037,
      "is_ai": false,
      "track_id": 0,
      "velocity": 0,
      "is_motor": true,
      "motor_id": 2,
      "accel_val": 2000,
      "base_duration_us": 75000
    },
    {
      "id": "M_467",
      "pitch": 69,
      "t_note_us": 39000000,
      "t_trigger_us": 38864037,
      "is_ai": false,
      "track_id": 0,
      "velocity": 0,
      "is_motor": true,
      "motor_id": 1,
      "accel_val": 2000,
      "base_duration_us": 75000
    },
    {
      "id": "M_468",
      "pitch": 65,
      "t_note_us": 39075000,
      "t_trigger_us": 38939037,
      "is_ai": false,
      "track_id": 0,
      "velocity": 0,
      "is_motor": true,
      "motor_id": 1,
      "accel_val": 2000,
      "base_duration_us": 75000
    },
    {
      "id": "M_469",
      "pitch": 62,
      "t_note_us": 39150000,
      "t_trigger_us": 39014037,
      "is_ai": false,
      "track_id": 0,
      "velocity": 0,
      "is_motor": true,
      "motor_id": 1,
      "accel_val": 2000,
      "base_duration_us": 75000
    },
    {
      "id": "M_470",
      "pitch": 65,
      "t_note_us": 39225000,
      "t_trigger_us": 39089037,
      "is_ai": false,
      "track_id": 0,
      "velocity": 0,
      "is_motor": true,
      "motor_id": 1,
      "accel_val": 2000,
      "base_duration_us": 75000
    },
    {
      "id": "M_471",
      "pitch": 69,
      "t_note_us": 39300000,
      "t_trigger_us": 39164037,
      "is_ai": false,
      "track_id": 0,
      "velocity": 0,
      "is_motor": true,
      "motor_id": 1,
      "accel_val": 2000,
      "base_duration_us": 75000
    },
    {
      "id": "M_472",
      "pitch": 77,
      "t_note_us": 39375000,
      "t_trigger_us": 39239037,
      "is_ai": false,
      "track_id": 0,
      "velocity": 0,
      "is_motor": true,
      "motor_id": 2,
      "accel_val": 2000,
      "base_duration_us": 75000
    },
    {
      "id": "M_473",
      "pitch": 69,
      "t_note_us": 39450000,
      "t_trigger_us": 39314037,
      "is_ai": false,
      "track_id": 0,
      "velocity": 0,
      "is_motor": true,
      "motor_id": 1,
      "accel_val": 2000,
      "base_duration_us": 75000
    },
    {
      "id": "M_474",
      "pitch": 65,
      "t_note_us": 39525000,
      "t_trigger_us": 39389037,
      "is_ai": false,
      "track_id": 0,
      "velocity": 0,
      "is_motor": true,
      "motor_id": 1,
      "accel_val": 2000,
      "base_duration_us": 75000
    },
    {
      "id": "M_484",
      "pitch": 91,
      "t_note_us": 39600000,
      "t_trigger_us": 39464037,
      "is_ai": true,
      "track_id": 7,
      "velocity": 0,
      "is_motor": false,
      "motor_id": 0,
      "accel_val": 2000,
      "base_duration_us": 600000
    },
    {
      "id": "M_475",
      "pitch": 60,
      "t_note_us": 39600000,
      "t_trigger_us": 39464037,
      "is_ai": false,
      "track_id": 0,
      "velocity": 0,
      "is_motor": true,
      "motor_id": 1,
      "accel_val": 2000,
      "base_duration_us": 75000
    },
    {
      "id": "M_483",
      "pitch": 67,
      "t_note_us": 39600000,
      "t_trigger_us": 39464037,
      "is_ai": false,
      "track_id": 0,
      "velocity": 0,
      "is_motor": true,
      "motor_id": 2,
      "accel_val": 2000,
      "base_duration_us": 600000
    },
    {
      "id": "M_476",
      "pitch": 67,
      "t_note_us": 39675000,
      "t_trigger_us": 39539037,
      "is_ai": false,
      "track_id": 0,
      "velocity": 0,
      "is_motor": true,
      "motor_id": 1,
      "accel_val": 2000,
      "base_duration_us": 75000
    },
    {
      "id": "M_477",
      "pitch": 69,
      "t_note_us": 39750000,
      "t_trigger_us": 39614037,
      "is_ai": false,
      "track_id": 0,
      "velocity": 0,
      "is_motor": true,
      "motor_id": 1,
      "accel_val": 2000,
      "base_duration_us": 75000
    },
    {
      "id": "M_478",
      "pitch": 76,
      "t_note_us": 39825000,
      "t_trigger_us": 39689037,
      "is_ai": false,
      "track_id": 0,
      "velocity": 0,
      "is_motor": true,
      "motor_id": 1,
      "accel_val": 2000,
      "base_duration_us": 75000
    },
    {
      "id": "M_479",
      "pitch": 69,
      "t_note_us": 39900000,
      "t_trigger_us": 39764037,
      "is_ai": false,
      "track_id": 0,
      "velocity": 0,
      "is_motor": true,
      "motor_id": 1,
      "accel_val": 2000,
      "base_duration_us": 75000
    },
    {
      "id": "M_480",
      "pitch": 67,
      "t_note_us": 39975000,
      "t_trigger_us": 39839037,
      "is_ai": false,
      "track_id": 0,
      "velocity": 0,
      "is_motor": true,
      "motor_id": 1,
      "accel_val": 2000,
      "base_duration_us": 75000
    },
    {
      "id": "M_481",
      "pitch": 60,
      "t_note_us": 40050000,
      "t_trigger_us": 39914037,
      "is_ai": false,
      "track_id": 0,
      "velocity": 0,
      "is_motor": true,
      "motor_id": 1,
      "accel_val": 2000,
      "base_duration_us": 75000
    },
    {
      "id": "M_482",
      "pitch": 67,
      "t_note_us": 40125000,
      "t_trigger_us": 39989037,
      "is_ai": false,
      "track_id": 0,
      "velocity": 0,
      "is_motor": true,
      "motor_id": 1,
      "accel_val": 2000,
      "base_duration_us": 75000
    },
    {
      "id": "M_493",
      "pitch": 93,
      "t_note_us": 40200000,
      "t_trigger_us": 40064037,
      "is_ai": true,
      "track_id": 8,
      "velocity": 0,
      "is_motor": false,
      "motor_id": 0,
      "accel_val": 2000,
      "base_duration_us": 600000
    },
    {
      "id": "M_485",
      "pitch": 69,
      "t_note_us": 40200000,
      "t_trigger_us": 40064037,
      "is_ai": false,
      "track_id": 0,
      "velocity": 0,
      "is_motor": true,
      "motor_id": 1,
      "accel_val": 2000,
      "base_duration_us": 75000
    },
    {
      "id": "M_494",
      "pitch": 69,
      "t_note_us": 40200000,
      "t_trigger_us": 40064037,
      "is_ai": false,
      "track_id": 0,
      "velocity": 0,
      "is_motor": true,
      "motor_id": 2,
      "accel_val": 2000,
      "base_duration_us": 600000
    },
    {
      "id": "M_486",
      "pitch": 76,
      "t_note_us": 40275000,
      "t_trigger_us": 40139037,
      "is_ai": false,
      "track_id": 0,
      "velocity": 0,
      "is_motor": true,
      "motor_id": 1,
      "accel_val": 2000,
      "base_duration_us": 75000
    },
    {
      "id": "M_487",
      "pitch": 69,
      "t_note_us": 40350000,
      "t_trigger_us": 40214037,
      "is_ai": false,
      "track_id": 0,
      "velocity": 0,
      "is_motor": true,
      "motor_id": 1,
      "accel_val": 2000,
      "base_duration_us": 75000
    },
    {
      "id": "M_488",
      "pitch": 67,
      "t_note_us": 40425000,
      "t_trigger_us": 40289037,
      "is_ai": false,
      "track_id": 0,
      "velocity": 0,
      "is_motor": true,
      "motor_id": 1,
      "accel_val": 2000,
      "base_duration_us": 75000
    },
    {
      "id": "M_489",
      "pitch": 60,
      "t_note_us": 40500000,
      "t_trigger_us": 40364037,
      "is_ai": false,
      "track_id": 0,
      "velocity": 0,
      "is_motor": true,
      "motor_id": 1,
      "accel_val": 2000,
      "base_duration_us": 75000
    },
    {
      "id": "M_490",
      "pitch": 67,
      "t_note_us": 40575000,
      "t_trigger_us": 40439037,
      "is_ai": false,
      "track_id": 0,
      "velocity": 0,
      "is_motor": true,
      "motor_id": 1,
      "accel_val": 2000,
      "base_duration_us": 75000
    },
    {
      "id": "M_491",
      "pitch": 69,
      "t_note_us": 40650000,
      "t_trigger_us": 40514037,
      "is_ai": false,
      "track_id": 0,
      "velocity": 0,
      "is_motor": true,
      "motor_id": 1,
      "accel_val": 2000,
      "base_duration_us": 75000
    },
    {
      "id": "M_492",
      "pitch": 76,
      "t_note_us": 40725000,
      "t_trigger_us": 40589037,
      "is_ai": false,
      "track_id": 0,
      "velocity": 0,
      "is_motor": true,
      "motor_id": 1,
      "accel_val": 2000,
      "base_duration_us": 75000
    },
    {
      "id": "M_495",
      "pitch": 69,
      "t_note_us": 40800000,
      "t_trigger_us": 40664037,
      "is_ai": false,
      "track_id": 0,
      "velocity": 0,
      "is_motor": true,
      "motor_id": 1,
      "accel_val": 2000,
      "base_duration_us": 75000
    },
    {
      "id": "M_496",
      "pitch": 67,
      "t_note_us": 40875000,
      "t_trigger_us": 40739037,
      "is_ai": false,
      "track_id": 0,
      "velocity": 0,
      "is_motor": true,
      "motor_id": 1,
      "accel_val": 2000,
      "base_duration_us": 75000
    },
    {
      "id": "M_497",
      "pitch": 60,
      "t_note_us": 40950000,
      "t_trigger_us": 40814037,
      "is_ai": false,
      "track_id": 0,
      "velocity": 0,
      "is_motor": true,
      "motor_id": 1,
      "accel_val": 2000,
      "base_duration_us": 75000
    },
    {
      "id": "M_498",
      "pitch": 67,
      "t_note_us": 41025000,
      "t_trigger_us": 40889037,
      "is_ai": false,
      "track_id": 0,
      "velocity": 0,
      "is_motor": true,
      "motor_id": 1,
      "accel_val": 2000,
      "base_duration_us": 75000
    },
    {
      "id": "M_499",
      "pitch": 69,
      "t_note_us": 41100000,
      "t_trigger_us": 40964037,
      "is_ai": false,
      "track_id": 0,
      "velocity": 0,
      "is_motor": true,
      "motor_id": 1,
      "accel_val": 2000,
      "base_duration_us": 75000
    },
    {
      "id": "M_500",
      "pitch": 76,
      "t_note_us": 41175000,
      "t_trigger_us": 41039037,
      "is_ai": false,
      "track_id": 0,
      "velocity": 0,
      "is_motor": true,
      "motor_id": 2,
      "accel_val": 2000,
      "base_duration_us": 75000
    },
    {
      "id": "M_501",
      "pitch": 69,
      "t_note_us": 41250000,
      "t_trigger_us": 41114037,
      "is_ai": false,
      "track_id": 0,
      "velocity": 0,
      "is_motor": true,
      "motor_id": 1,
      "accel_val": 2000,
      "base_duration_us": 75000
    },
    {
      "id": "M_502",
      "pitch": 67,
      "t_note_us": 41325000,
      "t_trigger_us": 41189037,
      "is_ai": false,
      "track_id": 0,
      "velocity": 0,
      "is_motor": true,
      "motor_id": 1,
      "accel_val": 2000,
      "base_duration_us": 75000
    },
    {
      "id": "M_512",
      "pitch": 91,
      "t_note_us": 41400000,
      "t_trigger_us": 41264037,
      "is_ai": true,
      "track_id": 7,
      "velocity": 0,
      "is_motor": false,
      "motor_id": 0,
      "accel_val": 2000,
      "base_duration_us": 600000
    },
    {
      "id": "M_503",
      "pitch": 60,
      "t_note_us": 41400000,
      "t_trigger_us": 41264037,
      "is_ai": false,
      "track_id": 0,
      "velocity": 0,
      "is_motor": true,
      "motor_id": 1,
      "accel_val": 2000,
      "base_duration_us": 75000
    },
    {
      "id": "M_511",
      "pitch": 67,
      "t_note_us": 41400000,
      "t_trigger_us": 41264037,
      "is_ai": false,
      "track_id": 0,
      "velocity": 0,
      "is_motor": true,
      "motor_id": 2,
      "accel_val": 2000,
      "base_duration_us": 600000
    },
    {
      "id": "M_504",
      "pitch": 67,
      "t_note_us": 41475000,
      "t_trigger_us": 41339037,
      "is_ai": false,
      "track_id": 0,
      "velocity": 0,
      "is_motor": true,
      "motor_id": 1,
      "accel_val": 2000,
      "base_duration_us": 75000
    },
    {
      "id": "M_505",
      "pitch": 69,
      "t_note_us": 41550000,
      "t_trigger_us": 41414037,
      "is_ai": false,
      "track_id": 0,
      "velocity": 0,
      "is_motor": true,
      "motor_id": 1,
      "accel_val": 2000,
      "base_duration_us": 75000
    },
    {
      "id": "M_506",
      "pitch": 76,
      "t_note_us": 41625000,
      "t_trigger_us": 41489037,
      "is_ai": false,
      "track_id": 0,
      "velocity": 0,
      "is_motor": true,
      "motor_id": 1,
      "accel_val": 2000,
      "base_duration_us": 75000
    },
    {
      "id": "M_507",
      "pitch": 69,
      "t_note_us": 41700000,
      "t_trigger_us": 41564037,
      "is_ai": false,
      "track_id": 0,
      "velocity": 0,
      "is_motor": true,
      "motor_id": 1,
      "accel_val": 2000,
      "base_duration_us": 75000
    },
    {
      "id": "M_508",
      "pitch": 67,
      "t_note_us": 41775000,
      "t_trigger_us": 41639037,
      "is_ai": false,
      "track_id": 0,
      "velocity": 0,
      "is_motor": true,
      "motor_id": 1,
      "accel_val": 2000,
      "base_duration_us": 75000
    },
    {
      "id": "M_509",
      "pitch": 60,
      "t_note_us": 41850000,
      "t_trigger_us": 41714037,
      "is_ai": false,
      "track_id": 0,
      "velocity": 0,
      "is_motor": true,
      "motor_id": 1,
      "accel_val": 2000,
      "base_duration_us": 75000
    },
    {
      "id": "M_510",
      "pitch": 67,
      "t_note_us": 41925000,
      "t_trigger_us": 41789037,
      "is_ai": false,
      "track_id": 0,
      "velocity": 0,
      "is_motor": true,
      "motor_id": 1,
      "accel_val": 2000,
      "base_duration_us": 75000
    },
    {
      "id": "M_513",
      "pitch": 69,
      "t_note_us": 42000000,
      "t_trigger_us": 41864037,
      "is_ai": false,
      "track_id": 0,
      "velocity": 0,
      "is_motor": true,
      "motor_id": 1,
      "accel_val": 2000,
      "base_duration_us": 75000
    },
    {
      "id": "M_521",
      "pitch": 69,
      "t_note_us": 42000000,
      "t_trigger_us": 41864037,
      "is_ai": false,
      "track_id": 0,
      "velocity": 0,
      "is_motor": true,
      "motor_id": 2,
      "accel_val": 2000,
      "base_duration_us": 600000
    },
    {
      "id": "M_522",
      "pitch": 69,
      "t_note_us": 42000000,
      "t_trigger_us": 41864037,
      "is_ai": false,
      "track_id": 0,
      "velocity": 0,
      "is_motor": true,
      "motor_id": 0,
      "accel_val": 2000,
      "base_duration_us": 600000
    },
    {
      "id": "M_514",
      "pitch": 76,
      "t_note_us": 42075000,
      "t_trigger_us": 41939037,
      "is_ai": false,
      "track_id": 0,
      "velocity": 0,
      "is_motor": true,
      "motor_id": 1,
      "accel_val": 2000,
      "base_duration_us": 75000
    },
    {
      "id": "M_515",
      "pitch": 69,
      "t_note_us": 42150000,
      "t_trigger_us": 42014037,
      "is_ai": false,
      "track_id": 0,
      "velocity": 0,
      "is_motor": true,
      "motor_id": 1,
      "accel_val": 2000,
      "base_duration_us": 75000
    },
    {
      "id": "M_516",
      "pitch": 67,
      "t_note_us": 42225000,
      "t_trigger_us": 42089037,
      "is_ai": false,
      "track_id": 0,
      "velocity": 0,
      "is_motor": true,
      "motor_id": 1,
      "accel_val": 2000,
      "base_duration_us": 75000
    },
    {
      "id": "M_517",
      "pitch": 60,
      "t_note_us": 42300000,
      "t_trigger_us": 42164037,
      "is_ai": false,
      "track_id": 0,
      "velocity": 0,
      "is_motor": true,
      "motor_id": 1,
      "accel_val": 2000,
      "base_duration_us": 75000
    },
    {
      "id": "M_518",
      "pitch": 67,
      "t_note_us": 42375000,
      "t_trigger_us": 42239037,
      "is_ai": false,
      "track_id": 0,
      "velocity": 0,
      "is_motor": true,
      "motor_id": 1,
      "accel_val": 2000,
      "base_duration_us": 75000
    },
    {
      "id": "M_519",
      "pitch": 69,
      "t_note_us": 42450000,
      "t_trigger_us": 42314037,
      "is_ai": false,
      "track_id": 0,
      "velocity": 0,
      "is_motor": true,
      "motor_id": 1,
      "accel_val": 2000,
      "base_duration_us": 75000
    },
    {
      "id": "M_520",
      "pitch": 76,
      "t_note_us": 42525000,
      "t_trigger_us": 42389037,
      "is_ai": false,
      "track_id": 0,
      "velocity": 0,
      "is_motor": true,
      "motor_id": 1,
      "accel_val": 2000,
      "base_duration_us": 75000
    },
    {
      "id": "M_523",
      "pitch": 69,
      "t_note_us": 42600000,
      "t_trigger_us": 42464037,
      "is_ai": false,
      "track_id": 0,
      "velocity": 0,
      "is_motor": true,
      "motor_id": 1,
      "accel_val": 2000,
      "base_duration_us": 75000
    },
    {
      "id": "M_524",
      "pitch": 67,
      "t_note_us": 42675000,
      "t_trigger_us": 42539037,
      "is_ai": false,
      "track_id": 0,
      "velocity": 0,
      "is_motor": true,
      "motor_id": 1,
      "accel_val": 2000,
      "base_duration_us": 75000
    },
    {
      "id": "M_525",
      "pitch": 60,
      "t_note_us": 42750000,
      "t_trigger_us": 42614037,
      "is_ai": false,
      "track_id": 0,
      "velocity": 0,
      "is_motor": true,
      "motor_id": 1,
      "accel_val": 2000,
      "base_duration_us": 75000
    },
    {
      "id": "M_526",
      "pitch": 67,
      "t_note_us": 42825000,
      "t_trigger_us": 42689037,
      "is_ai": false,
      "track_id": 0,
      "velocity": 0,
      "is_motor": true,
      "motor_id": 1,
      "accel_val": 2000,
      "base_duration_us": 75000
    },
    {
      "id": "M_527",
      "pitch": 69,
      "t_note_us": 42900000,
      "t_trigger_us": 42764037,
      "is_ai": false,
      "track_id": 0,
      "velocity": 0,
      "is_motor": true,
      "motor_id": 1,
      "accel_val": 2000,
      "base_duration_us": 75000
    },
    {
      "id": "M_528",
      "pitch": 76,
      "t_note_us": 42975000,
      "t_trigger_us": 42839037,
      "is_ai": false,
      "track_id": 0,
      "velocity": 0,
      "is_motor": true,
      "motor_id": 2,
      "accel_val": 2000,
      "base_duration_us": 75000
    },
    {
      "id": "M_529",
      "pitch": 69,
      "t_note_us": 43050000,
      "t_trigger_us": 42914037,
      "is_ai": false,
      "track_id": 0,
      "velocity": 0,
      "is_motor": true,
      "motor_id": 1,
      "accel_val": 2000,
      "base_duration_us": 75000
    },
    {
      "id": "M_530",
      "pitch": 67,
      "t_note_us": 43125000,
      "t_trigger_us": 42989037,
      "is_ai": false,
      "track_id": 0,
      "velocity": 0,
      "is_motor": true,
      "motor_id": 1,
      "accel_val": 2000,
      "base_duration_us": 75000
    },
    {
      "id": "M_531",
      "pitch": 70,
      "t_note_us": 43200000,
      "t_trigger_us": 43064037,
      "is_ai": false,
      "track_id": 0,
      "velocity": 0,
      "is_motor": true,
      "motor_id": 1,
      "accel_val": 2000,
      "base_duration_us": 75000
    },
    {
      "id": "M_533",
      "pitch": 70,
      "t_note_us": 43200000,
      "t_trigger_us": 43064037,
      "is_ai": false,
      "track_id": 0,
      "velocity": 0,
      "is_motor": true,
      "motor_id": 2,
      "accel_val": 2000,
      "base_duration_us": 150000
    },
    {
      "id": "M_541",
      "pitch": 50,
      "t_note_us": 43200000,
      "t_trigger_us": 43064037,
      "is_ai": false,
      "track_id": 0,
      "velocity": 0,
      "is_motor": true,
      "motor_id": 0,
      "accel_val": 2000,
      "base_duration_us": 600000
    },
    {
      "id": "M_542",
      "pitch": 74,
      "t_note_us": 43200000,
      "t_trigger_us": 43064037,
      "is_ai": false,
      "track_id": 0,
      "velocity": 0,
      "is_motor": true,
      "motor_id": 3,
      "accel_val": 2000,
      "base_duration_us": 600000
    },
    {
      "id": "M_532",
      "pitch": 77,
      "t_note_us": 43275000,
      "t_trigger_us": 43139037,
      "is_ai": false,
      "track_id": 0,
      "velocity": 0,
      "is_motor": true,
      "motor_id": 1,
      "accel_val": 2000,
      "base_duration_us": 75000
    },
    {
      "id": "M_535",
      "pitch": 101,
      "t_note_us": 43350000,
      "t_trigger_us": 43214037,
      "is_ai": true,
      "track_id": 13,
      "velocity": 0,
      "is_motor": false,
      "motor_id": 0,
      "accel_val": 2000,
      "base_duration_us": 150000
    },
    {
      "id": "M_534",
      "pitch": 69,
      "t_note_us": 43350000,
      "t_trigger_us": 43214037,
      "is_ai": false,
      "track_id": 0,
      "velocity": 0,
      "is_motor": true,
      "motor_id": 1,
      "accel_val": 2000,
      "base_duration_us": 75000
    },
    {
      "id": "M_538",
      "pitch": 93,
      "t_note_us": 43500000,
      "t_trigger_us": 43364037,
      "is_ai": true,
      "track_id": 8,
      "velocity": 0,
      "is_motor": false,
      "motor_id": 0,
      "accel_val": 2000,
      "base_duration_us": 150000
    },
    {
      "id": "M_536",
      "pitch": 69,
      "t_note_us": 43500000,
      "t_trigger_us": 43364037,
      "is_ai": false,
      "track_id": 0,
      "velocity": 0,
      "is_motor": true,
      "motor_id": 1,
      "accel_val": 2000,
      "base_duration_us": 75000
    },
    {
      "id": "M_537",
      "pitch": 77,
      "t_note_us": 43575000,
      "t_trigger_us": 43439037,
      "is_ai": false,
      "track_id": 0,
      "velocity": 0,
      "is_motor": true,
      "motor_id": 2,
      "accel_val": 2000,
      "base_duration_us": 75000
    },
    {
      "id": "M_539",
      "pitch": 70,
      "t_note_us": 43650000,
      "t_trigger_us": 43514037,
      "is_ai": false,
      "track_id": 0,
      "velocity": 0,
      "is_motor": true,
      "motor_id": 1,
      "accel_val": 2000,
      "base_duration_us": 75000
    },
    {
      "id": "M_540",
      "pitch": 77,
      "t_note_us": 43725000,
      "t_trigger_us": 43589037,
      "is_ai": false,
      "track_id": 0,
      "velocity": 0,
      "is_motor": true,
      "motor_id": 2,
      "accel_val": 2000,
      "base_duration_us": 75000
    },
    {
      "id": "M_544",
      "pitch": 93,
      "t_note_us": 43800000,
      "t_trigger_us": 43664037,
      "is_ai": true,
      "track_id": 8,
      "velocity": 0,
      "is_motor": false,
      "motor_id": 0,
      "accel_val": 2000,
      "base_duration_us": 150000
    },
    {
      "id": "M_543",
      "pitch": 69,
      "t_note_us": 43800000,
      "t_trigger_us": 43664037,
      "is_ai": false,
      "track_id": 0,
      "velocity": 0,
      "is_motor": true,
      "motor_id": 1,
      "accel_val": 2000,
      "base_duration_us": 75000
    },
    {
      "id": "M_553",
      "pitch": 69,
      "t_note_us": 43800000,
      "t_trigger_us": 43664037,
      "is_ai": false,
      "track_id": 0,
      "velocity": 0,
      "is_motor": true,
      "motor_id": 2,
      "accel_val": 2000,
      "base_duration_us": 600000
    },
    {
      "id": "M_547",
      "pitch": 101,
      "t_note_us": 43950000,
      "t_trigger_us": 43814037,
      "is_ai": true,
      "track_id": 13,
      "velocity": 0,
      "is_motor": false,
      "motor_id": 0,
      "accel_val": 2000,
      "base_duration_us": 150000
    },
    {
      "id": "M_545",
      "pitch": 69,
      "t_note_us": 43950000,
      "t_trigger_us": 43814037,
      "is_ai": false,
      "track_id": 0,
      "velocity": 0,
      "is_motor": true,
      "motor_id": 1,
      "accel_val": 2000,
      "base_duration_us": 75000
    },
    {
      "id": "M_546",
      "pitch": 77,
      "t_note_us": 44025000,
      "t_trigger_us": 43889037,
      "is_ai": false,
      "track_id": 0,
      "velocity": 0,
      "is_motor": true,
      "motor_id": 1,
      "accel_val": 2000,
      "base_duration_us": 75000
    },
    {
      "id": "M_548",
      "pitch": 70,
      "t_note_us": 44100000,
      "t_trigger_us": 43964037,
      "is_ai": false,
      "track_id": 0,
      "velocity": 0,
      "is_motor": true,
      "motor_id": 1,
      "accel_val": 2000,
      "base_duration_us": 75000
    },
    {
      "id": "M_550",
      "pitch": 70,
      "t_note_us": 44100000,
      "t_trigger_us": 43964037,
      "is_ai": false,
      "track_id": 0,
      "velocity": 0,
      "is_motor": true,
      "motor_id": 0,
      "accel_val": 2000,
      "base_duration_us": 150000
    },
    {
      "id": "M_549",
      "pitch": 77,
      "t_note_us": 44175000,
      "t_trigger_us": 44039037,
      "is_ai": false,
      "track_id": 0,
      "velocity": 0,
      "is_motor": true,
      "motor_id": 1,
      "accel_val": 2000,
      "base_duration_us": 75000
    },
    {
      "id": "M_552",
      "pitch": 101,
      "t_note_us": 44250000,
      "t_trigger_us": 44114037,
      "is_ai": true,
      "track_id": 13,
      "velocity": 0,
      "is_motor": false,
      "motor_id": 0,
      "accel_val": 2000,
      "base_duration_us": 150000
    },
    {
      "id": "M_551",
      "pitch": 69,
      "t_note_us": 44250000,
      "t_trigger_us": 44114037,
      "is_ai": false,
      "track_id": 0,
      "velocity": 0,
      "is_motor": true,
      "motor_id": 1,
      "accel_val": 2000,
      "base_duration_us": 75000
    },
    {
      "id": "M_556",
      "pitch": 93,
      "t_note_us": 44400000,
      "t_trigger_us": 44264037,
      "is_ai": true,
      "track_id": 8,
      "velocity": 0,
      "is_motor": false,
      "motor_id": 0,
      "accel_val": 2000,
      "base_duration_us": 150000
    },
    {
      "id": "M_554",
      "pitch": 69,
      "t_note_us": 44400000,
      "t_trigger_us": 44264037,
      "is_ai": false,
      "track_id": 0,
      "velocity": 0,
      "is_motor": true,
      "motor_id": 1,
      "accel_val": 2000,
      "base_duration_us": 75000
    },
    {
      "id": "M_555",
      "pitch": 77,
      "t_note_us": 44475000,
      "t_trigger_us": 44339037,
      "is_ai": false,
      "track_id": 0,
      "velocity": 0,
      "is_motor": true,
      "motor_id": 2,
      "accel_val": 2000,
      "base_duration_us": 75000
    },
    {
      "id": "M_557",
      "pitch": 70,
      "t_note_us": 44550000,
      "t_trigger_us": 44414037,
      "is_ai": false,
      "track_id": 0,
      "velocity": 0,
      "is_motor": true,
      "motor_id": 1,
      "accel_val": 2000,
      "base_duration_us": 75000
    },
    {
      "id": "M_558",
      "pitch": 77,
      "t_note_us": 44625000,
      "t_trigger_us": 44489037,
      "is_ai": false,
      "track_id": 0,
      "velocity": 0,
      "is_motor": true,
      "motor_id": 2,
      "accel_val": 2000,
      "base_duration_us": 75000
    },
    {
      "id": "M_560",
      "pitch": 93,
      "t_note_us": 44700000,
      "t_trigger_us": 44564037,
      "is_ai": true,
      "track_id": 8,
      "velocity": 0,
      "is_motor": false,
      "motor_id": 0,
      "accel_val": 2000,
      "base_duration_us": 150000
    },
    {
      "id": "M_559",
      "pitch": 69,
      "t_note_us": 44700000,
      "t_trigger_us": 44564037,
      "is_ai": false,
      "track_id": 0,
      "velocity": 0,
      "is_motor": true,
      "motor_id": 1,
      "accel_val": 2000,
      "base_duration_us": 75000
    },
    {
      "id": "M_563",
      "pitch": 101,
      "t_note_us": 44850000,
      "t_trigger_us": 44714037,
      "is_ai": true,
      "track_id": 13,
      "velocity": 0,
      "is_motor": false,
      "motor_id": 0,
      "accel_val": 2000,
      "base_duration_us": 150000
    },
    {
      "id": "M_561",
      "pitch": 69,
      "t_note_us": 44850000,
      "t_trigger_us": 44714037,
      "is_ai": false,
      "track_id": 0,
      "velocity": 0,
      "is_motor": true,
      "motor_id": 1,
      "accel_val": 2000,
      "base_duration_us": 75000
    },
    {
      "id": "M_562",
      "pitch": 77,
      "t_note_us": 44925000,
      "t_trigger_us": 44789037,
      "is_ai": false,
      "track_id": 0,
      "velocity": 0,
      "is_motor": true,
      "motor_id": 2,
      "accel_val": 2000,
      "base_duration_us": 75000
    },
    {
      "id": "M_564",
      "pitch": 70,
      "t_note_us": 45000000,
      "t_trigger_us": 44864037,
      "is_ai": false,
      "track_id": 0,
      "velocity": 0,
      "is_motor": true,
      "motor_id": 1,
      "accel_val": 2000,
      "base_duration_us": 75000
    },
    {
      "id": "M_566",
      "pitch": 70,
      "t_note_us": 45000000,
      "t_trigger_us": 44864037,
      "is_ai": false,
      "track_id": 0,
      "velocity": 0,
      "is_motor": true,
      "motor_id": 2,
      "accel_val": 2000,
      "base_duration_us": 150000
    },
    {
      "id": "M_574",
      "pitch": 50,
      "t_note_us": 45000000,
      "t_trigger_us": 44864037,
      "is_ai": false,
      "track_id": 0,
      "velocity": 0,
      "is_motor": true,
      "motor_id": 0,
      "accel_val": 2000,
      "base_duration_us": 600000
    },
    {
      "id": "M_575",
      "pitch": 74,
      "t_note_us": 45000000,
      "t_trigger_us": 44864037,
      "is_ai": false,
      "track_id": 0,
      "velocity": 0,
      "is_motor": true,
      "motor_id": 3,
      "accel_val": 2000,
      "base_duration_us": 600000
    },
    {
      "id": "M_565",
      "pitch": 77,
      "t_note_us": 45075000,
      "t_trigger_us": 44939037,
      "is_ai": false,
      "track_id": 0,
      "velocity": 0,
      "is_motor": true,
      "motor_id": 1,
      "accel_val": 2000,
      "base_duration_us": 75000
    },
    {
      "id": "M_568",
      "pitch": 101,
      "t_note_us": 45150000,
      "t_trigger_us": 45014037,
      "is_ai": true,
      "track_id": 13,
      "velocity": 0,
      "is_motor": false,
      "motor_id": 0,
      "accel_val": 2000,
      "base_duration_us": 150000
    },
    {
      "id": "M_567",
      "pitch": 69,
      "t_note_us": 45150000,
      "t_trigger_us": 45014037,
      "is_ai": false,
      "track_id": 0,
      "velocity": 0,
      "is_motor": true,
      "motor_id": 1,
      "accel_val": 2000,
      "base_duration_us": 75000
    },
    {
      "id": "M_571",
      "pitch": 93,
      "t_note_us": 45300000,
      "t_trigger_us": 45164037,
      "is_ai": true,
      "track_id": 8,
      "velocity": 0,
      "is_motor": false,
      "motor_id": 0,
      "accel_val": 2000,
      "base_duration_us": 150000
    },
    {
      "id": "M_569",
      "pitch": 69,
      "t_note_us": 45300000,
      "t_trigger_us": 45164037,
      "is_ai": false,
      "track_id": 0,
      "velocity": 0,
      "is_motor": true,
      "motor_id": 1,
      "accel_val": 2000,
      "base_duration_us": 75000
    },
    {
      "id": "M_570",
      "pitch": 77,
      "t_note_us": 45375000,
      "t_trigger_us": 45239037,
      "is_ai": false,
      "track_id": 0,
      "velocity": 0,
      "is_motor": true,
      "motor_id": 2,
      "accel_val": 2000,
      "base_duration_us": 75000
    },
    {
      "id": "M_572",
      "pitch": 70,
      "t_note_us": 45450000,
      "t_trigger_us": 45314037,
      "is_ai": false,
      "track_id": 0,
      "velocity": 0,
      "is_motor": true,
      "motor_id": 1,
      "accel_val": 2000,
      "base_duration_us": 75000
    },
    {
      "id": "M_573",
      "pitch": 77,
      "t_note_us": 45525000,
      "t_trigger_us": 45389037,
      "is_ai": false,
      "track_id": 0,
      "velocity": 0,
      "is_motor": true,
      "motor_id": 2,
      "accel_val": 2000,
      "base_duration_us": 75000
    },
    {
      "id": "M_577",
      "pitch": 93,
      "t_note_us": 45600000,
      "t_trigger_us": 45464037,
      "is_ai": true,
      "track_id": 8,
      "velocity": 0,
      "is_motor": false,
      "motor_id": 0,
      "accel_val": 2000,
      "base_duration_us": 150000
    },
    {
      "id": "M_576",
      "pitch": 69,
      "t_note_us": 45600000,
      "t_trigger_us": 45464037,
      "is_ai": false,
      "track_id": 0,
      "velocity": 0,
      "is_motor": true,
      "motor_id": 1,
      "accel_val": 2000,
      "base_duration_us": 75000
    },
    {
      "id": "M_586",
      "pitch": 69,
      "t_note_us": 45600000,
      "t_trigger_us": 45464037,
      "is_ai": false,
      "track_id": 0,
      "velocity": 0,
      "is_motor": true,
      "motor_id": 2,
      "accel_val": 2000,
      "base_duration_us": 600000
    },
    {
      "id": "M_580",
      "pitch": 101,
      "t_note_us": 45750000,
      "t_trigger_us": 45614037,
      "is_ai": true,
      "track_id": 13,
      "velocity": 0,
      "is_motor": false,
      "motor_id": 0,
      "accel_val": 2000,
      "base_duration_us": 150000
    },
    {
      "id": "M_578",
      "pitch": 69,
      "t_note_us": 45750000,
      "t_trigger_us": 45614037,
      "is_ai": false,
      "track_id": 0,
      "velocity": 0,
      "is_motor": true,
      "motor_id": 1,
      "accel_val": 2000,
      "base_duration_us": 75000
    },
    {
      "id": "M_579",
      "pitch": 77,
      "t_note_us": 45825000,
      "t_trigger_us": 45689037,
      "is_ai": false,
      "track_id": 0,
      "velocity": 0,
      "is_motor": true,
      "motor_id": 1,
      "accel_val": 2000,
      "base_duration_us": 75000
    },
    {
      "id": "M_581",
      "pitch": 70,
      "t_note_us": 45900000,
      "t_trigger_us": 45764037,
      "is_ai": false,
      "track_id": 0,
      "velocity": 0,
      "is_motor": true,
      "motor_id": 1,
      "accel_val": 2000,
      "base_duration_us": 75000
    },
    {
      "id": "M_583",
      "pitch": 70,
      "t_note_us": 45900000,
      "t_trigger_us": 45764037,
      "is_ai": false,
      "track_id": 0,
      "velocity": 0,
      "is_motor": true,
      "motor_id": 0,
      "accel_val": 2000,
      "base_duration_us": 150000
    },
    {
      "id": "M_582",
      "pitch": 77,
      "t_note_us": 45975000,
      "t_trigger_us": 45839037,
      "is_ai": false,
      "track_id": 0,
      "velocity": 0,
      "is_motor": true,
      "motor_id": 1,
      "accel_val": 2000,
      "base_duration_us": 75000
    },
    {
      "id": "M_585",
      "pitch": 101,
      "t_note_us": 46050000,
      "t_trigger_us": 45914037,
      "is_ai": true,
      "track_id": 13,
      "velocity": 0,
      "is_motor": false,
      "motor_id": 0,
      "accel_val": 2000,
      "base_duration_us": 150000
    },
    {
      "id": "M_584",
      "pitch": 69,
      "t_note_us": 46050000,
      "t_trigger_us": 45914037,
      "is_ai": false,
      "track_id": 0,
      "velocity": 0,
      "is_motor": true,
      "motor_id": 1,
      "accel_val": 2000,
      "base_duration_us": 75000
    },
    {
      "id": "M_589",
      "pitch": 93,
      "t_note_us": 46200000,
      "t_trigger_us": 46064037,
      "is_ai": true,
      "track_id": 8,
      "velocity": 0,
      "is_motor": false,
      "motor_id": 0,
      "accel_val": 2000,
      "base_duration_us": 150000
    },
    {
      "id": "M_587",
      "pitch": 69,
      "t_note_us": 46200000,
      "t_trigger_us": 46064037,
      "is_ai": false,
      "track_id": 0,
      "velocity": 0,
      "is_motor": true,
      "motor_id": 1,
      "accel_val": 2000,
      "base_duration_us": 75000
    },
    {
      "id": "M_588",
      "pitch": 77,
      "t_note_us": 46275000,
      "t_trigger_us": 46139037,
      "is_ai": false,
      "track_id": 0,
      "velocity": 0,
      "is_motor": true,
      "motor_id": 2,
      "accel_val": 2000,
      "base_duration_us": 75000
    },
    {
      "id": "M_590",
      "pitch": 70,
      "t_note_us": 46350000,
      "t_trigger_us": 46214037,
      "is_ai": false,
      "track_id": 0,
      "velocity": 0,
      "is_motor": true,
      "motor_id": 1,
      "accel_val": 2000,
      "base_duration_us": 75000
    },
    {
      "id": "M_591",
      "pitch": 77,
      "t_note_us": 46425000,
      "t_trigger_us": 46289037,
      "is_ai": false,
      "track_id": 0,
      "velocity": 0,
      "is_motor": true,
      "motor_id": 2,
      "accel_val": 2000,
      "base_duration_us": 75000
    },
    {
      "id": "M_593",
      "pitch": 93,
      "t_note_us": 46500000,
      "t_trigger_us": 46364037,
      "is_ai": true,
      "track_id": 8,
      "velocity": 0,
      "is_motor": false,
      "motor_id": 0,
      "accel_val": 2000,
      "base_duration_us": 150000
    },
    {
      "id": "M_592",
      "pitch": 69,
      "t_note_us": 46500000,
      "t_trigger_us": 46364037,
      "is_ai": false,
      "track_id": 0,
      "velocity": 0,
      "is_motor": true,
      "motor_id": 1,
      "accel_val": 2000,
      "base_duration_us": 75000
    },
    {
      "id": "M_596",
      "pitch": 101,
      "t_note_us": 46650000,
      "t_trigger_us": 46514037,
      "is_ai": true,
      "track_id": 13,
      "velocity": 0,
      "is_motor": false,
      "motor_id": 0,
      "accel_val": 2000,
      "base_duration_us": 150000
    },
    {
      "id": "M_594",
      "pitch": 69,
      "t_note_us": 46650000,
      "t_trigger_us": 46514037,
      "is_ai": false,
      "track_id": 0,
      "velocity": 0,
      "is_motor": true,
      "motor_id": 1,
      "accel_val": 2000,
      "base_duration_us": 75000
    },
    {
      "id": "M_595",
      "pitch": 77,
      "t_note_us": 46725000,
      "t_trigger_us": 46589037,
      "is_ai": false,
      "track_id": 0,
      "velocity": 0,
      "is_motor": true,
      "motor_id": 2,
      "accel_val": 2000,
      "base_duration_us": 75000
    },
    {
      "id": "M_599",
      "pitch": 96,
      "t_note_us": 46800000,
      "t_trigger_us": 46664037,
      "is_ai": true,
      "track_id": 10,
      "velocity": 0,
      "is_motor": false,
      "motor_id": 0,
      "accel_val": 2000,
      "base_duration_us": 150000
    },
    {
      "id": "M_597",
      "pitch": 72,
      "t_note_us": 46800000,
      "t_trigger_us": 46664037,
      "is_ai": false,
      "track_id": 0,
      "velocity": 0,
      "is_motor": true,
      "motor_id": 1,
      "accel_val": 2000,
      "base_duration_us": 75000
    },
    {
      "id": "M_605",
      "pitch": 52,
      "t_note_us": 46800000,
      "t_trigger_us": 46664037,
      "is_ai": false,
      "track_id": 0,
      "velocity": 0,
      "is_motor": true,
      "motor_id": 0,
      "accel_val": 2000,
      "base_duration_us": 450000
    },
    {
      "id": "M_606",
      "pitch": 76,
      "t_note_us": 46800000,
      "t_trigger_us": 46664037,
      "is_ai": false,
      "track_id": 0,
      "velocity": 0,
      "is_motor": true,
      "motor_id": 2,
      "accel_val": 2000,
      "base_duration_us": 450000
    },
    {
      "id": "M_598",
      "pitch": 67,
      "t_note_us": 46875000,
      "t_trigger_us": 46739037,
      "is_ai": false,
      "track_id": 0,
      "velocity": 0,
      "is_motor": true,
      "motor_id": 1,
      "accel_val": 2000,
      "base_duration_us": 75000
    },
    {
      "id": "M_600",
      "pitch": 69,
      "t_note_us": 46950000,
      "t_trigger_us": 46814037,
      "is_ai": false,
      "track_id": 0,
      "velocity": 0,
      "is_motor": true,
      "motor_id": 1,
      "accel_val": 2000,
      "base_duration_us": 75000
    },
    {
      "id": "M_601",
      "pitch": 67,
      "t_note_us": 46950000,
      "t_trigger_us": 46814037,
      "is_ai": false,
      "track_id": 0,
      "velocity": 0,
      "is_motor": true,
      "motor_id": 3,
      "accel_val": 2000,
      "base_duration_us": 150000
    },
    {
      "id": "M_604",
      "pitch": 93,
      "t_note_us": 47100000,
      "t_trigger_us": 46964037,
      "is_ai": true,
      "track_id": 8,
      "velocity": 0,
      "is_motor": false,
      "motor_id": 0,
      "accel_val": 2000,
      "base_duration_us": 150000
    },
    {
      "id": "M_602",
      "pitch": 69,
      "t_note_us": 47100000,
      "t_trigger_us": 46964037,
      "is_ai": false,
      "track_id": 0,
      "velocity": 0,
      "is_motor": true,
      "motor_id": 1,
      "accel_val": 2000,
      "base_duration_us": 75000
    },
    {
      "id": "M_603",
      "pitch": 67,
      "t_note_us": 47175000,
      "t_trigger_us": 47039037,
      "is_ai": false,
      "track_id": 0,
      "velocity": 0,
      "is_motor": true,
      "motor_id": 1,
      "accel_val": 2000,
      "base_duration_us": 75000
    },
    {
      "id": "M_607",
      "pitch": 72,
      "t_note_us": 47250000,
      "t_trigger_us": 47114037,
      "is_ai": false,
      "track_id": 0,
      "velocity": 0,
      "is_motor": true,
      "motor_id": 1,
      "accel_val": 2000,
      "base_duration_us": 75000
    },
    {
      "id": "M_608",
      "pitch": 67,
      "t_note_us": 47325000,
      "t_trigger_us": 47189037,
      "is_ai": false,
      "track_id": 0,
      "velocity": 0,
      "is_motor": true,
      "motor_id": 1,
      "accel_val": 2000,
      "base_duration_us": 75000
    },
    {
      "id": "M_610",
      "pitch": 93,
      "t_note_us": 47400000,
      "t_trigger_us": 47264037,
      "is_ai": true,
      "track_id": 8,
      "velocity": 0,
      "is_motor": false,
      "motor_id": 0,
      "accel_val": 2000,
      "base_duration_us": 150000
    },
    {
      "id": "M_609",
      "pitch": 69,
      "t_note_us": 47400000,
      "t_trigger_us": 47264037,
      "is_ai": false,
      "track_id": 0,
      "velocity": 0,
      "is_motor": true,
      "motor_id": 1,
      "accel_val": 2000,
      "base_duration_us": 75000
    },
    {
      "id": "M_619",
      "pitch": 69,
      "t_note_us": 47400000,
      "t_trigger_us": 47264037,
      "is_ai": false,
      "track_id": 0,
      "velocity": 0,
      "is_motor": true,
      "motor_id": 2,
      "accel_val": 2000,
      "base_duration_us": 600000
    },
    {
      "id": "M_613",
      "pitch": 103,
      "t_note_us": 47550000,
      "t_trigger_us": 47414037,
      "is_ai": true,
      "track_id": 14,
      "velocity": 0,
      "is_motor": false,
      "motor_id": 0,
      "accel_val": 2000,
      "base_duration_us": 150000
    },
    {
      "id": "M_611",
      "pitch": 69,
      "t_note_us": 47550000,
      "t_trigger_us": 47414037,
      "is_ai": false,
      "track_id": 0,
      "velocity": 0,
      "is_motor": true,
      "motor_id": 1,
      "accel_val": 2000,
      "base_duration_us": 75000
    },
    {
      "id": "M_612",
      "pitch": 67,
      "t_note_us": 47625000,
      "t_trigger_us": 47489037,
      "is_ai": false,
      "track_id": 0,
      "velocity": 0,
      "is_motor": true,
      "motor_id": 1,
      "accel_val": 2000,
      "base_duration_us": 75000
    },
    {
      "id": "M_616",
      "pitch": 96,
      "t_note_us": 47700000,
      "t_trigger_us": 47564037,
      "is_ai": true,
      "track_id": 10,
      "velocity": 0,
      "is_motor": false,
      "motor_id": 0,
      "accel_val": 2000,
      "base_duration_us": 150000
    },
    {
      "id": "M_614",
      "pitch": 72,
      "t_note_us": 47700000,
      "t_trigger_us": 47564037,
      "is_ai": false,
      "track_id": 0,
      "velocity": 0,
      "is_motor": true,
      "motor_id": 1,
      "accel_val": 2000,
      "base_duration_us": 75000
    },
    {
      "id": "M_615",
      "pitch": 67,
      "t_note_us": 47775000,
      "t_trigger_us": 47639037,
      "is_ai": false,
      "track_id": 0,
      "velocity": 0,
      "is_motor": true,
      "motor_id": 1,
      "accel_val": 2000,
      "base_duration_us": 75000
    },
    {
      "id": "M_618",
      "pitch": 103,
      "t_note_us": 47850000,
      "t_trigger_us": 47714037,
      "is_ai": true,
      "track_id": 14,
      "velocity": 0,
      "is_motor": false,
      "motor_id": 0,
      "accel_val": 2000,
      "base_duration_us": 150000
    },
    {
      "id": "M_617",
      "pitch": 69,
      "t_note_us": 47850000,
      "t_trigger_us": 47714037,
      "is_ai": false,
      "track_id": 0,
      "velocity": 0,
      "is_motor": true,
      "motor_id": 1,
      "accel_val": 2000,
      "base_duration_us": 75000
    },
    {
      "id": "M_620",
      "pitch": 69,
      "t_note_us": 48000000,
      "t_trigger_us": 47864037,
      "is_ai": false,
      "track_id": 0,
      "velocity": 0,
      "is_motor": true,
      "motor_id": 1,
      "accel_val": 2000,
      "base_duration_us": 75000
    },
    {
      "id": "M_622",
      "pitch": 69,
      "t_note_us": 48000000,
      "t_trigger_us": 47864037,
      "is_ai": false,
      "track_id": 0,
      "velocity": 0,
      "is_motor": true,
      "motor_id": 2,
      "accel_val": 2000,
      "base_duration_us": 150000
    },
    {
      "id": "M_621",
      "pitch": 67,
      "t_note_us": 48075000,
      "t_trigger_us": 47939037,
      "is_ai": false,
      "track_id": 0,
      "velocity": 0,
      "is_motor": true,
      "motor_id": 1,
      "accel_val": 2000,
      "base_duration_us": 75000
    },
    {
      "id": "M_623",
      "pitch": 72,
      "t_note_us": 48150000,
      "t_trigger_us": 48014037,
      "is_ai": false,
      "track_id": 0,
      "velocity": 0,
      "is_motor": true,
      "motor_id": 1,
      "accel_val": 2000,
      "base_duration_us": 75000
    },
    {
      "id": "M_624",
      "pitch": 67,
      "t_note_us": 48225000,
      "t_trigger_us": 48089037,
      "is_ai": false,
      "track_id": 0,
      "velocity": 0,
      "is_motor": true,
      "motor_id": 1,
      "accel_val": 2000,
      "base_duration_us": 75000
    },
    {
      "id": "M_626",
      "pitch": 93,
      "t_note_us": 48300000,
      "t_trigger_us": 48164037,
      "is_ai": true,
      "track_id": 8,
      "velocity": 0,
      "is_motor": false,
      "motor_id": 0,
      "accel_val": 2000,
      "base_duration_us": 150000
    },
    {
      "id": "M_625",
      "pitch": 69,
      "t_note_us": 48300000,
      "t_trigger_us": 48164037,
      "is_ai": false,
      "track_id": 0,
      "velocity": 0,
      "is_motor": true,
      "motor_id": 1,
      "accel_val": 2000,
      "base_duration_us": 75000
    },
    {
      "id": "M_629",
      "pitch": 103,
      "t_note_us": 48450000,
      "t_trigger_us": 48314037,
      "is_ai": true,
      "track_id": 14,
      "velocity": 0,
      "is_motor": false,
      "motor_id": 0,
      "accel_val": 2000,
      "base_duration_us": 150000
    },
    {
      "id": "M_627",
      "pitch": 69,
      "t_note_us": 48450000,
      "t_trigger_us": 48314037,
      "is_ai": false,
      "track_id": 0,
      "velocity": 0,
      "is_motor": true,
      "motor_id": 1,
      "accel_val": 2000,
      "base_duration_us": 75000
    },
    {
      "id": "M_628",
      "pitch": 67,
      "t_note_us": 48525000,
      "t_trigger_us": 48389037,
      "is_ai": false,
      "track_id": 0,
      "velocity": 0,
      "is_motor": true,
      "motor_id": 1,
      "accel_val": 2000,
      "base_duration_us": 75000
    },
    {
      "id": "M_632",
      "pitch": 96,
      "t_note_us": 48600000,
      "t_trigger_us": 48464037,
      "is_ai": true,
      "track_id": 10,
      "velocity": 0,
      "is_motor": false,
      "motor_id": 0,
      "accel_val": 2000,
      "base_duration_us": 150000
    },
    {
      "id": "M_630",
      "pitch": 72,
      "t_note_us": 48600000,
      "t_trigger_us": 48464037,
      "is_ai": false,
      "track_id": 0,
      "velocity": 0,
      "is_motor": true,
      "motor_id": 1,
      "accel_val": 2000,
      "base_duration_us": 75000
    },
    {
      "id": "M_638",
      "pitch": 52,
      "t_note_us": 48600000,
      "t_trigger_us": 48464037,
      "is_ai": false,
      "track_id": 0,
      "velocity": 0,
      "is_motor": true,
      "motor_id": 0,
      "accel_val": 2000,
      "base_duration_us": 450000
    },
    {
      "id": "M_639",
      "pitch": 76,
      "t_note_us": 48600000,
      "t_trigger_us": 48464037,
      "is_ai": false,
      "track_id": 0,
      "velocity": 0,
      "is_motor": true,
      "motor_id": 2,
      "accel_val": 2000,
      "base_duration_us": 450000
    },
    {
      "id": "M_631",
      "pitch": 67,
      "t_note_us": 48675000,
      "t_trigger_us": 48539037,
      "is_ai": false,
      "track_id": 0,
      "velocity": 0,
      "is_motor": true,
      "motor_id": 1,
      "accel_val": 2000,
      "base_duration_us": 75000
    },
    {
      "id": "M_634",
      "pitch": 103,
      "t_note_us": 48750000,
      "t_trigger_us": 48614037,
      "is_ai": true,
      "track_id": 14,
      "velocity": 0,
      "is_motor": false,
      "motor_id": 0,
      "accel_val": 2000,
      "base_duration_us": 150000
    },
    {
      "id": "M_633",
      "pitch": 69,
      "t_note_us": 48750000,
      "t_trigger_us": 48614037,
      "is_ai": false,
      "track_id": 0,
      "velocity": 0,
      "is_motor": true,
      "motor_id": 1,
      "accel_val": 2000,
      "base_duration_us": 75000
    },
    {
      "id": "M_637",
      "pitch": 93,
      "t_note_us": 48900000,
      "t_trigger_us": 48764037,
      "is_ai": true,
      "track_id": 8,
      "velocity": 0,
      "is_motor": false,
      "motor_id": 0,
      "accel_val": 2000,
      "base_duration_us": 150000
    },
    {
      "id": "M_635",
      "pitch": 69,
      "t_note_us": 48900000,
      "t_trigger_us": 48764037,
      "is_ai": false,
      "track_id": 0,
      "velocity": 0,
      "is_motor": true,
      "motor_id": 1,
      "accel_val": 2000,
      "base_duration_us": 75000
    },
    {
      "id": "M_636",
      "pitch": 67,
      "t_note_us": 48975000,
      "t_trigger_us": 48839037,
      "is_ai": false,
      "track_id": 0,
      "velocity": 0,
      "is_motor": true,
      "motor_id": 1,
      "accel_val": 2000,
      "base_duration_us": 75000
    },
    {
      "id": "M_640",
      "pitch": 72,
      "t_note_us": 49050000,
      "t_trigger_us": 48914037,
      "is_ai": false,
      "track_id": 0,
      "velocity": 0,
      "is_motor": true,
      "motor_id": 1,
      "accel_val": 2000,
      "base_duration_us": 75000
    },
    {
      "id": "M_641",
      "pitch": 67,
      "t_note_us": 49125000,
      "t_trigger_us": 48989037,
      "is_ai": false,
      "track_id": 0,
      "velocity": 0,
      "is_motor": true,
      "motor_id": 1,
      "accel_val": 2000,
      "base_duration_us": 75000
    },
    {
      "id": "M_643",
      "pitch": 93,
      "t_note_us": 49200000,
      "t_trigger_us": 49064037,
      "is_ai": true,
      "track_id": 8,
      "velocity": 0,
      "is_motor": false,
      "motor_id": 0,
      "accel_val": 2000,
      "base_duration_us": 150000
    },
    {
      "id": "M_642",
      "pitch": 69,
      "t_note_us": 49200000,
      "t_trigger_us": 49064037,
      "is_ai": false,
      "track_id": 0,
      "velocity": 0,
      "is_motor": true,
      "motor_id": 1,
      "accel_val": 2000,
      "base_duration_us": 75000
    },
    {
      "id": "M_652",
      "pitch": 69,
      "t_note_us": 49200000,
      "t_trigger_us": 49064037,
      "is_ai": false,
      "track_id": 0,
      "velocity": 0,
      "is_motor": true,
      "motor_id": 2,
      "accel_val": 2000,
      "base_duration_us": 600000
    },
    {
      "id": "M_646",
      "pitch": 103,
      "t_note_us": 49350000,
      "t_trigger_us": 49214037,
      "is_ai": true,
      "track_id": 14,
      "velocity": 0,
      "is_motor": false,
      "motor_id": 0,
      "accel_val": 2000,
      "base_duration_us": 150000
    },
    {
      "id": "M_644",
      "pitch": 69,
      "t_note_us": 49350000,
      "t_trigger_us": 49214037,
      "is_ai": false,
      "track_id": 0,
      "velocity": 0,
      "is_motor": true,
      "motor_id": 1,
      "accel_val": 2000,
      "base_duration_us": 75000
    },
    {
      "id": "M_645",
      "pitch": 67,
      "t_note_us": 49425000,
      "t_trigger_us": 49289037,
      "is_ai": false,
      "track_id": 0,
      "velocity": 0,
      "is_motor": true,
      "motor_id": 1,
      "accel_val": 2000,
      "base_duration_us": 75000
    },
    {
      "id": "M_649",
      "pitch": 96,
      "t_note_us": 49500000,
      "t_trigger_us": 49364037,
      "is_ai": true,
      "track_id": 10,
      "velocity": 0,
      "is_motor": false,
      "motor_id": 0,
      "accel_val": 2000,
      "base_duration_us": 150000
    },
    {
      "id": "M_647",
      "pitch": 72,
      "t_note_us": 49500000,
      "t_trigger_us": 49364037,
      "is_ai": false,
      "track_id": 0,
      "velocity": 0,
      "is_motor": true,
      "motor_id": 1,
      "accel_val": 2000,
      "base_duration_us": 75000
    },
    {
      "id": "M_648",
      "pitch": 67,
      "t_note_us": 49575000,
      "t_trigger_us": 49439037,
      "is_ai": false,
      "track_id": 0,
      "velocity": 0,
      "is_motor": true,
      "motor_id": 1,
      "accel_val": 2000,
      "base_duration_us": 75000
    },
    {
      "id": "M_651",
      "pitch": 103,
      "t_note_us": 49650000,
      "t_trigger_us": 49514037,
      "is_ai": true,
      "track_id": 14,
      "velocity": 0,
      "is_motor": false,
      "motor_id": 0,
      "accel_val": 2000,
      "base_duration_us": 150000
    },
    {
      "id": "M_650",
      "pitch": 69,
      "t_note_us": 49650000,
      "t_trigger_us": 49514037,
      "is_ai": false,
      "track_id": 0,
      "velocity": 0,
      "is_motor": true,
      "motor_id": 1,
      "accel_val": 2000,
      "base_duration_us": 75000
    },
    {
      "id": "M_655",
      "pitch": 93,
      "t_note_us": 49800000,
      "t_trigger_us": 49664037,
      "is_ai": true,
      "track_id": 8,
      "velocity": 0,
      "is_motor": false,
      "motor_id": 0,
      "accel_val": 2000,
      "base_duration_us": 150000
    },
    {
      "id": "M_653",
      "pitch": 69,
      "t_note_us": 49800000,
      "t_trigger_us": 49664037,
      "is_ai": false,
      "track_id": 0,
      "velocity": 0,
      "is_motor": true,
      "motor_id": 1,
      "accel_val": 2000,
      "base_duration_us": 75000
    },
    {
      "id": "M_654",
      "pitch": 67,
      "t_note_us": 49875000,
      "t_trigger_us": 49739037,
      "is_ai": false,
      "track_id": 0,
      "velocity": 0,
      "is_motor": true,
      "motor_id": 1,
      "accel_val": 2000,
      "base_duration_us": 75000
    },
    {
      "id": "M_656",
      "pitch": 72,
      "t_note_us": 49950000,
      "t_trigger_us": 49814037,
      "is_ai": false,
      "track_id": 0,
      "velocity": 0,
      "is_motor": true,
      "motor_id": 1,
      "accel_val": 2000,
      "base_duration_us": 75000
    },
    {
      "id": "M_657",
      "pitch": 67,
      "t_note_us": 50025000,
      "t_trigger_us": 49889037,
      "is_ai": false,
      "track_id": 0,
      "velocity": 0,
      "is_motor": true,
      "motor_id": 1,
      "accel_val": 2000,
      "base_duration_us": 75000
    },
    {
      "id": "M_658",
      "pitch": 69,
      "t_note_us": 50100000,
      "t_trigger_us": 49964037,
      "is_ai": false,
      "track_id": 0,
      "velocity": 0,
      "is_motor": true,
      "motor_id": 1,
      "accel_val": 2000,
      "base_duration_us": 75000
    },
    {
      "id": "M_659",
      "pitch": 69,
      "t_note_us": 50100000,
      "t_trigger_us": 49964037,
      "is_ai": false,
      "track_id": 0,
      "velocity": 0,
      "is_motor": true,
      "motor_id": 2,
      "accel_val": 2000,
      "base_duration_us": 150000
    },
    {
      "id": "M_662",
      "pitch": 103,
      "t_note_us": 50250000,
      "t_trigger_us": 50114037,
      "is_ai": true,
      "track_id": 14,
      "velocity": 0,
      "is_motor": false,
      "motor_id": 0,
      "accel_val": 2000,
      "base_duration_us": 150000
    },
    {
      "id": "M_660",
      "pitch": 69,
      "t_note_us": 50250000,
      "t_trigger_us": 50114037,
      "is_ai": false,
      "track_id": 0,
      "velocity": 0,
      "is_motor": true,
      "motor_id": 1,
      "accel_val": 2000,
      "base_duration_us": 75000
    },
    {
      "id": "M_661",
      "pitch": 67,
      "t_note_us": 50325000,
      "t_trigger_us": 50189037,
      "is_ai": false,
      "track_id": 0,
      "velocity": 0,
      "is_motor": true,
      "motor_id": 1,
      "accel_val": 2000,
      "base_duration_us": 75000
    },
    {
      "id": "M_665",
      "pitch": 98,
      "t_note_us": 50400000,
      "t_trigger_us": 50264037,
      "is_ai": true,
      "track_id": 11,
      "velocity": 0,
      "is_motor": false,
      "motor_id": 0,
      "accel_val": 2000,
      "base_duration_us": 150000
    },
    {
      "id": "M_663",
      "pitch": 74,
      "t_note_us": 50400000,
      "t_trigger_us": 50264037,
      "is_ai": false,
      "track_id": 0,
      "velocity": 0,
      "is_motor": true,
      "motor_id": 1,
      "accel_val": 2000,
      "base_duration_us": 75000
    },
    {
      "id": "M_673",
      "pitch": 53,
      "t_note_us": 50400000,
      "t_trigger_us": 50264037,
      "is_ai": false,
      "track_id": 0,
      "velocity": 0,
      "is_motor": true,
      "motor_id": 0,
      "accel_val": 2000,
      "base_duration_us": 600000
    },
    {
      "id": "M_674",
      "pitch": 77,
      "t_note_us": 50400000,
      "t_trigger_us": 50264037,
      "is_ai": false,
      "track_id": 0,
      "velocity": 0,
      "is_motor": true,
      "motor_id": 2,
      "accel_val": 2000,
      "base_duration_us": 600000
    },
    {
      "id": "M_664",
      "pitch": 77,
      "t_note_us": 50475000,
      "t_trigger_us": 50339037,
      "is_ai": false,
      "track_id": 0,
      "velocity": 0,
      "is_motor": true,
      "motor_id": 1,
      "accel_val": 2000,
      "base_duration_us": 75000
    },
    {
      "id": "M_667",
      "pitch": 101,
      "t_note_us": 50550000,
      "t_trigger_us": 50414037,
      "is_ai": true,
      "track_id": 13,
      "velocity": 0,
      "is_motor": false,
      "motor_id": 0,
      "accel_val": 2000,
      "base_duration_us": 150000
    },
    {
      "id": "M_666",
      "pitch": 69,
      "t_note_us": 50550000,
      "t_trigger_us": 50414037,
      "is_ai": false,
      "track_id": 0,
      "velocity": 0,
      "is_motor": true,
      "motor_id": 1,
      "accel_val": 2000,
      "base_duration_us": 75000
    },
    {
      "id": "M_670",
      "pitch": 93,
      "t_note_us": 50700000,
      "t_trigger_us": 50564037,
      "is_ai": true,
      "track_id": 8,
      "velocity": 0,
      "is_motor": false,
      "motor_id": 0,
      "accel_val": 2000,
      "base_duration_us": 150000
    },
    {
      "id": "M_668",
      "pitch": 69,
      "t_note_us": 50700000,
      "t_trigger_us": 50564037,
      "is_ai": false,
      "track_id": 0,
      "velocity": 0,
      "is_motor": true,
      "motor_id": 1,
      "accel_val": 2000,
      "base_duration_us": 75000
    },
    {
      "id": "M_669",
      "pitch": 77,
      "t_note_us": 50775000,
      "t_trigger_us": 50639037,
      "is_ai": false,
      "track_id": 0,
      "velocity": 0,
      "is_motor": true,
      "motor_id": 1,
      "accel_val": 2000,
      "base_duration_us": 75000
    },
    {
      "id": "M_671",
      "pitch": 74,
      "t_note_us": 50850000,
      "t_trigger_us": 50714037,
      "is_ai": false,
      "track_id": 0,
      "velocity": 0,
      "is_motor": true,
      "motor_id": 1,
      "accel_val": 2000,
      "base_duration_us": 75000
    },
    {
      "id": "M_672",
      "pitch": 77,
      "t_note_us": 50925000,
      "t_trigger_us": 50789037,
      "is_ai": false,
      "track_id": 0,
      "velocity": 0,
      "is_motor": true,
      "motor_id": 1,
      "accel_val": 2000,
      "base_duration_us": 75000
    },
    {
      "id": "M_676",
      "pitch": 93,
      "t_note_us": 51000000,
      "t_trigger_us": 50864037,
      "is_ai": true,
      "track_id": 8,
      "velocity": 0,
      "is_motor": false,
      "motor_id": 0,
      "accel_val": 2000,
      "base_duration_us": 150000
    },
    {
      "id": "M_675",
      "pitch": 69,
      "t_note_us": 51000000,
      "t_trigger_us": 50864037,
      "is_ai": false,
      "track_id": 0,
      "velocity": 0,
      "is_motor": true,
      "motor_id": 1,
      "accel_val": 2000,
      "base_duration_us": 75000
    },
    {
      "id": "M_685",
      "pitch": 69,
      "t_note_us": 51000000,
      "t_trigger_us": 50864037,
      "is_ai": false,
      "track_id": 0,
      "velocity": 0,
      "is_motor": true,
      "motor_id": 2,
      "accel_val": 2000,
      "base_duration_us": 600000
    },
    {
      "id": "M_679",
      "pitch": 101,
      "t_note_us": 51150000,
      "t_trigger_us": 51014037,
      "is_ai": true,
      "track_id": 13,
      "velocity": 0,
      "is_motor": false,
      "motor_id": 0,
      "accel_val": 2000,
      "base_duration_us": 150000
    },
    {
      "id": "M_677",
      "pitch": 69,
      "t_note_us": 51150000,
      "t_trigger_us": 51014037,
      "is_ai": false,
      "track_id": 0,
      "velocity": 0,
      "is_motor": true,
      "motor_id": 1,
      "accel_val": 2000,
      "base_duration_us": 75000
    },
    {
      "id": "M_678",
      "pitch": 77,
      "t_note_us": 51225000,
      "t_trigger_us": 51089037,
      "is_ai": false,
      "track_id": 0,
      "velocity": 0,
      "is_motor": true,
      "motor_id": 1,
      "accel_val": 2000,
      "base_duration_us": 75000
    },
    {
      "id": "M_682",
      "pitch": 98,
      "t_note_us": 51300000,
      "t_trigger_us": 51164037,
      "is_ai": true,
      "track_id": 11,
      "velocity": 0,
      "is_motor": false,
      "motor_id": 0,
      "accel_val": 2000,
      "base_duration_us": 150000
    },
    {
      "id": "M_680",
      "pitch": 74,
      "t_note_us": 51300000,
      "t_trigger_us": 51164037,
      "is_ai": false,
      "track_id": 0,
      "velocity": 0,
      "is_motor": true,
      "motor_id": 1,
      "accel_val": 2000,
      "base_duration_us": 75000
    },
    {
      "id": "M_681",
      "pitch": 77,
      "t_note_us": 51375000,
      "t_trigger_us": 51239037,
      "is_ai": false,
      "track_id": 0,
      "velocity": 0,
      "is_motor": true,
      "motor_id": 1,
      "accel_val": 2000,
      "base_duration_us": 75000
    },
    {
      "id": "M_684",
      "pitch": 101,
      "t_note_us": 51450000,
      "t_trigger_us": 51314037,
      "is_ai": true,
      "track_id": 13,
      "velocity": 0,
      "is_motor": false,
      "motor_id": 0,
      "accel_val": 2000,
      "base_duration_us": 150000
    },
    {
      "id": "M_683",
      "pitch": 69,
      "t_note_us": 51450000,
      "t_trigger_us": 51314037,
      "is_ai": false,
      "track_id": 0,
      "velocity": 0,
      "is_motor": true,
      "motor_id": 1,
      "accel_val": 2000,
      "base_duration_us": 75000
    },
    {
      "id": "M_688",
      "pitch": 93,
      "t_note_us": 51600000,
      "t_trigger_us": 51464037,
      "is_ai": true,
      "track_id": 8,
      "velocity": 0,
      "is_motor": false,
      "motor_id": 0,
      "accel_val": 2000,
      "base_duration_us": 150000
    },
    {
      "id": "M_686",
      "pitch": 69,
      "t_note_us": 51600000,
      "t_trigger_us": 51464037,
      "is_ai": false,
      "track_id": 0,
      "velocity": 0,
      "is_motor": true,
      "motor_id": 1,
      "accel_val": 2000,
      "base_duration_us": 75000
    },
    {
      "id": "M_687",
      "pitch": 77,
      "t_note_us": 51675000,
      "t_trigger_us": 51539037,
      "is_ai": false,
      "track_id": 0,
      "velocity": 0,
      "is_motor": true,
      "motor_id": 2,
      "accel_val": 2000,
      "base_duration_us": 75000
    },
    {
      "id": "M_689",
      "pitch": 74,
      "t_note_us": 51750000,
      "t_trigger_us": 51614037,
      "is_ai": false,
      "track_id": 0,
      "velocity": 0,
      "is_motor": true,
      "motor_id": 1,
      "accel_val": 2000,
      "base_duration_us": 75000
    },
    {
      "id": "M_690",
      "pitch": 77,
      "t_note_us": 51825000,
      "t_trigger_us": 51689037,
      "is_ai": false,
      "track_id": 0,
      "velocity": 0,
      "is_motor": true,
      "motor_id": 2,
      "accel_val": 2000,
      "base_duration_us": 75000
    },
    {
      "id": "M_692",
      "pitch": 93,
      "t_note_us": 51900000,
      "t_trigger_us": 51764037,
      "is_ai": true,
      "track_id": 8,
      "velocity": 0,
      "is_motor": false,
      "motor_id": 0,
      "accel_val": 2000,
      "base_duration_us": 150000
    },
    {
      "id": "M_691",
      "pitch": 69,
      "t_note_us": 51900000,
      "t_trigger_us": 51764037,
      "is_ai": false,
      "track_id": 0,
      "velocity": 0,
      "is_motor": true,
      "motor_id": 1,
      "accel_val": 2000,
      "base_duration_us": 75000
    },
    {
      "id": "M_695",
      "pitch": 101,
      "t_note_us": 52050000,
      "t_trigger_us": 51914037,
      "is_ai": true,
      "track_id": 13,
      "velocity": 0,
      "is_motor": false,
      "motor_id": 0,
      "accel_val": 2000,
      "base_duration_us": 150000
    },
    {
      "id": "M_693",
      "pitch": 69,
      "t_note_us": 52050000,
      "t_trigger_us": 51914037,
      "is_ai": false,
      "track_id": 0,
      "velocity": 0,
      "is_motor": true,
      "motor_id": 1,
      "accel_val": 2000,
      "base_duration_us": 75000
    },
    {
      "id": "M_694",
      "pitch": 77,
      "t_note_us": 52125000,
      "t_trigger_us": 51989037,
      "is_ai": false,
      "track_id": 0,
      "velocity": 0,
      "is_motor": true,
      "motor_id": 2,
      "accel_val": 2000,
      "base_duration_us": 75000
    },
    {
      "id": "M_698",
      "pitch": 98,
      "t_note_us": 52200000,
      "t_trigger_us": 52064037,
      "is_ai": true,
      "track_id": 11,
      "velocity": 0,
      "is_motor": false,
      "motor_id": 0,
      "accel_val": 2000,
      "base_duration_us": 150000
    },
    {
      "id": "M_696",
      "pitch": 74,
      "t_note_us": 52200000,
      "t_trigger_us": 52064037,
      "is_ai": false,
      "track_id": 0,
      "velocity": 0,
      "is_motor": true,
      "motor_id": 1,
      "accel_val": 2000,
      "base_duration_us": 75000
    },
    {
      "id": "M_706",
      "pitch": 53,
      "t_note_us": 52200000,
      "t_trigger_us": 52064037,
      "is_ai": false,
      "track_id": 0,
      "velocity": 0,
      "is_motor": true,
      "motor_id": 0,
      "accel_val": 2000,
      "base_duration_us": 600000
    },
    {
      "id": "M_707",
      "pitch": 77,
      "t_note_us": 52200000,
      "t_trigger_us": 52064037,
      "is_ai": false,
      "track_id": 0,
      "velocity": 0,
      "is_motor": true,
      "motor_id": 2,
      "accel_val": 2000,
      "base_duration_us": 600000
    },
    {
      "id": "M_697",
      "pitch": 77,
      "t_note_us": 52275000,
      "t_trigger_us": 52139037,
      "is_ai": false,
      "track_id": 0,
      "velocity": 0,
      "is_motor": true,
      "motor_id": 1,
      "accel_val": 2000,
      "base_duration_us": 75000
    },
    {
      "id": "M_700",
      "pitch": 101,
      "t_note_us": 52350000,
      "t_trigger_us": 52214037,
      "is_ai": true,
      "track_id": 13,
      "velocity": 0,
      "is_motor": false,
      "motor_id": 0,
      "accel_val": 2000,
      "base_duration_us": 150000
    },
    {
      "id": "M_699",
      "pitch": 69,
      "t_note_us": 52350000,
      "t_trigger_us": 52214037,
      "is_ai": false,
      "track_id": 0,
      "velocity": 0,
      "is_motor": true,
      "motor_id": 1,
      "accel_val": 2000,
      "base_duration_us": 75000
    },
    {
      "id": "M_703",
      "pitch": 93,
      "t_note_us": 52500000,
      "t_trigger_us": 52364037,
      "is_ai": true,
      "track_id": 8,
      "velocity": 0,
      "is_motor": false,
      "motor_id": 0,
      "accel_val": 2000,
      "base_duration_us": 150000
    },
    {
      "id": "M_701",
      "pitch": 69,
      "t_note_us": 52500000,
      "t_trigger_us": 52364037,
      "is_ai": false,
      "track_id": 0,
      "velocity": 0,
      "is_motor": true,
      "motor_id": 1,
      "accel_val": 2000,
      "base_duration_us": 75000
    },
    {
      "id": "M_702",
      "pitch": 77,
      "t_note_us": 52575000,
      "t_trigger_us": 52439037,
      "is_ai": false,
      "track_id": 0,
      "velocity": 0,
      "is_motor": true,
      "motor_id": 1,
      "accel_val": 2000,
      "base_duration_us": 75000
    },
    {
      "id": "M_704",
      "pitch": 74,
      "t_note_us": 52650000,
      "t_trigger_us": 52514037,
      "is_ai": false,
      "track_id": 0,
      "velocity": 0,
      "is_motor": true,
      "motor_id": 1,
      "accel_val": 2000,
      "base_duration_us": 75000
    },
    {
      "id": "M_705",
      "pitch": 77,
      "t_note_us": 52725000,
      "t_trigger_us": 52589037,
      "is_ai": false,
      "track_id": 0,
      "velocity": 0,
      "is_motor": true,
      "motor_id": 1,
      "accel_val": 2000,
      "base_duration_us": 75000
    },
    {
      "id": "M_709",
      "pitch": 93,
      "t_note_us": 52800000,
      "t_trigger_us": 52664037,
      "is_ai": true,
      "track_id": 8,
      "velocity": 0,
      "is_motor": false,
      "motor_id": 0,
      "accel_val": 2000,
      "base_duration_us": 150000
    },
    {
      "id": "M_708",
      "pitch": 69,
      "t_note_us": 52800000,
      "t_trigger_us": 52664037,
      "is_ai": false,
      "track_id": 0,
      "velocity": 0,
      "is_motor": true,
      "motor_id": 1,
      "accel_val": 2000,
      "base_duration_us": 75000
    },
    {
      "id": "M_718",
      "pitch": 69,
      "t_note_us": 52800000,
      "t_trigger_us": 52664037,
      "is_ai": false,
      "track_id": 0,
      "velocity": 0,
      "is_motor": true,
      "motor_id": 2,
      "accel_val": 2000,
      "base_duration_us": 600000
    },
    {
      "id": "M_712",
      "pitch": 101,
      "t_note_us": 52950000,
      "t_trigger_us": 52814037,
      "is_ai": true,
      "track_id": 13,
      "velocity": 0,
      "is_motor": false,
      "motor_id": 0,
      "accel_val": 2000,
      "base_duration_us": 150000
    },
    {
      "id": "M_710",
      "pitch": 69,
      "t_note_us": 52950000,
      "t_trigger_us": 52814037,
      "is_ai": false,
      "track_id": 0,
      "velocity": 0,
      "is_motor": true,
      "motor_id": 1,
      "accel_val": 2000,
      "base_duration_us": 75000
    },
    {
      "id": "M_711",
      "pitch": 77,
      "t_note_us": 53025000,
      "t_trigger_us": 52889037,
      "is_ai": false,
      "track_id": 0,
      "velocity": 0,
      "is_motor": true,
      "motor_id": 1,
      "accel_val": 2000,
      "base_duration_us": 75000
    },
    {
      "id": "M_715",
      "pitch": 98,
      "t_note_us": 53100000,
      "t_trigger_us": 52964037,
      "is_ai": true,
      "track_id": 11,
      "velocity": 0,
      "is_motor": false,
      "motor_id": 0,
      "accel_val": 2000,
      "base_duration_us": 150000
    },
    {
      "id": "M_713",
      "pitch": 74,
      "t_note_us": 53100000,
      "t_trigger_us": 52964037,
      "is_ai": false,
      "track_id": 0,
      "velocity": 0,
      "is_motor": true,
      "motor_id": 1,
      "accel_val": 2000,
      "base_duration_us": 75000
    },
    {
      "id": "M_714",
      "pitch": 77,
      "t_note_us": 53175000,
      "t_trigger_us": 53039037,
      "is_ai": false,
      "track_id": 0,
      "velocity": 0,
      "is_motor": true,
      "motor_id": 1,
      "accel_val": 2000,
      "base_duration_us": 75000
    },
    {
      "id": "M_717",
      "pitch": 101,
      "t_note_us": 53250000,
      "t_trigger_us": 53114037,
      "is_ai": true,
      "track_id": 13,
      "velocity": 0,
      "is_motor": false,
      "motor_id": 0,
      "accel_val": 2000,
      "base_duration_us": 150000
    },
    {
      "id": "M_716",
      "pitch": 69,
      "t_note_us": 53250000,
      "t_trigger_us": 53114037,
      "is_ai": false,
      "track_id": 0,
      "velocity": 0,
      "is_motor": true,
      "motor_id": 1,
      "accel_val": 2000,
      "base_duration_us": 75000
    },
    {
      "id": "M_721",
      "pitch": 93,
      "t_note_us": 53400000,
      "t_trigger_us": 53264037,
      "is_ai": true,
      "track_id": 8,
      "velocity": 0,
      "is_motor": false,
      "motor_id": 0,
      "accel_val": 2000,
      "base_duration_us": 150000
    },
    {
      "id": "M_719",
      "pitch": 69,
      "t_note_us": 53400000,
      "t_trigger_us": 53264037,
      "is_ai": false,
      "track_id": 0,
      "velocity": 0,
      "is_motor": true,
      "motor_id": 1,
      "accel_val": 2000,
      "base_duration_us": 75000
    },
    {
      "id": "M_720",
      "pitch": 77,
      "t_note_us": 53475000,
      "t_trigger_us": 53339037,
      "is_ai": false,
      "track_id": 0,
      "velocity": 0,
      "is_motor": true,
      "motor_id": 2,
      "accel_val": 2000,
      "base_duration_us": 75000
    },
    {
      "id": "M_722",
      "pitch": 74,
      "t_note_us": 53550000,
      "t_trigger_us": 53414037,
      "is_ai": false,
      "track_id": 0,
      "velocity": 0,
      "is_motor": true,
      "motor_id": 1,
      "accel_val": 2000,
      "base_duration_us": 75000
    },
    {
      "id": "M_723",
      "pitch": 77,
      "t_note_us": 53625000,
      "t_trigger_us": 53489037,
      "is_ai": false,
      "track_id": 0,
      "velocity": 0,
      "is_motor": true,
      "motor_id": 2,
      "accel_val": 2000,
      "base_duration_us": 75000
    },
    {
      "id": "M_725",
      "pitch": 93,
      "t_note_us": 53700000,
      "t_trigger_us": 53564037,
      "is_ai": true,
      "track_id": 8,
      "velocity": 0,
      "is_motor": false,
      "motor_id": 0,
      "accel_val": 2000,
      "base_duration_us": 150000
    },
    {
      "id": "M_724",
      "pitch": 69,
      "t_note_us": 53700000,
      "t_trigger_us": 53564037,
      "is_ai": false,
      "track_id": 0,
      "velocity": 0,
      "is_motor": true,
      "motor_id": 1,
      "accel_val": 2000,
      "base_duration_us": 75000
    },
    {
      "id": "M_728",
      "pitch": 101,
      "t_note_us": 53850000,
      "t_trigger_us": 53714037,
      "is_ai": true,
      "track_id": 13,
      "velocity": 0,
      "is_motor": false,
      "motor_id": 0,
      "accel_val": 2000,
      "base_duration_us": 150000
    },
    {
      "id": "M_726",
      "pitch": 69,
      "t_note_us": 53850000,
      "t_trigger_us": 53714037,
      "is_ai": false,
      "track_id": 0,
      "velocity": 0,
      "is_motor": true,
      "motor_id": 1,
      "accel_val": 2000,
      "base_duration_us": 75000
    },
    {
      "id": "M_727",
      "pitch": 77,
      "t_note_us": 53925000,
      "t_trigger_us": 53789037,
      "is_ai": false,
      "track_id": 0,
      "velocity": 0,
      "is_motor": true,
      "motor_id": 2,
      "accel_val": 2000,
      "base_duration_us": 75000
    },
    {
      "id": "M_729",
      "pitch": 72,
      "t_note_us": 54000000,
      "t_trigger_us": 53864037,
      "is_ai": false,
      "track_id": 0,
      "velocity": 0,
      "is_motor": true,
      "motor_id": 1,
      "accel_val": 2000,
      "base_duration_us": 75000
    },
    {
      "id": "M_731",
      "pitch": 72,
      "t_note_us": 54000000,
      "t_trigger_us": 53864037,
      "is_ai": false,
      "track_id": 0,
      "velocity": 0,
      "is_motor": true,
      "motor_id": 0,
      "accel_val": 2000,
      "base_duration_us": 150000
    },
    {
      "id": "M_739",
      "pitch": 55,
      "t_note_us": 54000000,
      "t_trigger_us": 53864037,
      "is_ai": false,
      "track_id": 0,
      "velocity": 0,
      "is_motor": true,
      "motor_id": 2,
      "accel_val": 2000,
      "base_duration_us": 600000
    },
    {
      "id": "M_740",
      "pitch": 67,
      "t_note_us": 54000000,
      "t_trigger_us": 53864037,
      "is_ai": false,
      "track_id": 0,
      "velocity": 0,
      "is_motor": true,
      "motor_id": 3,
      "accel_val": 2000,
      "base_duration_us": 600000
    },
    {
      "id": "M_730",
      "pitch": 67,
      "t_note_us": 54075000,
      "t_trigger_us": 53939037,
      "is_ai": false,
      "track_id": 0,
      "velocity": 0,
      "is_motor": true,
      "motor_id": 1,
      "accel_val": 2000,
      "base_duration_us": 75000
    },
    {
      "id": "M_732",
      "pitch": 69,
      "t_note_us": 54150000,
      "t_trigger_us": 54014037,
      "is_ai": false,
      "track_id": 0,
      "velocity": 0,
      "is_motor": true,
      "motor_id": 1,
      "accel_val": 2000,
      "base_duration_us": 75000
    },
    {
      "id": "M_733",
      "pitch": 67,
      "t_note_us": 54150000,
      "t_trigger_us": 54014037,
      "is_ai": false,
      "track_id": 0,
      "velocity": 0,
      "is_motor": true,
      "motor_id": 0,
      "accel_val": 2000,
      "base_duration_us": 150000
    },
    {
      "id": "M_736",
      "pitch": 93,
      "t_note_us": 54300000,
      "t_trigger_us": 54164037,
      "is_ai": true,
      "track_id": 8,
      "velocity": 0,
      "is_motor": false,
      "motor_id": 0,
      "accel_val": 2000,
      "base_duration_us": 150000
    },
    {
      "id": "M_734",
      "pitch": 69,
      "t_note_us": 54300000,
      "t_trigger_us": 54164037,
      "is_ai": false,
      "track_id": 0,
      "velocity": 0,
      "is_motor": true,
      "motor_id": 1,
      "accel_val": 2000,
      "base_duration_us": 75000
    },
    {
      "id": "M_735",
      "pitch": 67,
      "t_note_us": 54375000,
      "t_trigger_us": 54239037,
      "is_ai": false,
      "track_id": 0,
      "velocity": 0,
      "is_motor": true,
      "motor_id": 1,
      "accel_val": 2000,
      "base_duration_us": 75000
    },
    {
      "id": "M_737",
      "pitch": 72,
      "t_note_us": 54450000,
      "t_trigger_us": 54314037,
      "is_ai": false,
      "track_id": 0,
      "velocity": 0,
      "is_motor": true,
      "motor_id": 1,
      "accel_val": 2000,
      "base_duration_us": 75000
    },
    {
      "id": "M_738",
      "pitch": 67,
      "t_note_us": 54525000,
      "t_trigger_us": 54389037,
      "is_ai": false,
      "track_id": 0,
      "velocity": 0,
      "is_motor": true,
      "motor_id": 1,
      "accel_val": 2000,
      "base_duration_us": 75000
    },
    {
      "id": "M_742",
      "pitch": 93,
      "t_note_us": 54600000,
      "t_trigger_us": 54464037,
      "is_ai": true,
      "track_id": 8,
      "velocity": 0,
      "is_motor": false,
      "motor_id": 0,
      "accel_val": 2000,
      "base_duration_us": 150000
    },
    {
      "id": "M_741",
      "pitch": 69,
      "t_note_us": 54600000,
      "t_trigger_us": 54464037,
      "is_ai": false,
      "track_id": 0,
      "velocity": 0,
      "is_motor": true,
      "motor_id": 1,
      "accel_val": 2000,
      "base_duration_us": 75000
    },
    {
      "id": "M_751",
      "pitch": 69,
      "t_note_us": 54600000,
      "t_trigger_us": 54464037,
      "is_ai": false,
      "track_id": 0,
      "velocity": 0,
      "is_motor": true,
      "motor_id": 2,
      "accel_val": 2000,
      "base_duration_us": 600000
    },
    {
      "id": "M_745",
      "pitch": 103,
      "t_note_us": 54750000,
      "t_trigger_us": 54614037,
      "is_ai": true,
      "track_id": 14,
      "velocity": 0,
      "is_motor": false,
      "motor_id": 0,
      "accel_val": 2000,
      "base_duration_us": 150000
    },
    {
      "id": "M_743",
      "pitch": 69,
      "t_note_us": 54750000,
      "t_trigger_us": 54614037,
      "is_ai": false,
      "track_id": 0,
      "velocity": 0,
      "is_motor": true,
      "motor_id": 1,
      "accel_val": 2000,
      "base_duration_us": 75000
    },
    {
      "id": "M_744",
      "pitch": 67,
      "t_note_us": 54825000,
      "t_trigger_us": 54689037,
      "is_ai": false,
      "track_id": 0,
      "velocity": 0,
      "is_motor": true,
      "motor_id": 1,
      "accel_val": 2000,
      "base_duration_us": 75000
    },
    {
      "id": "M_748",
      "pitch": 96,
      "t_note_us": 54900000,
      "t_trigger_us": 54764037,
      "is_ai": true,
      "track_id": 10,
      "velocity": 0,
      "is_motor": false,
      "motor_id": 0,
      "accel_val": 2000,
      "base_duration_us": 150000
    },
    {
      "id": "M_746",
      "pitch": 72,
      "t_note_us": 54900000,
      "t_trigger_us": 54764037,
      "is_ai": false,
      "track_id": 0,
      "velocity": 0,
      "is_motor": true,
      "motor_id": 1,
      "accel_val": 2000,
      "base_duration_us": 75000
    },
    {
      "id": "M_747",
      "pitch": 67,
      "t_note_us": 54975000,
      "t_trigger_us": 54839037,
      "is_ai": false,
      "track_id": 0,
      "velocity": 0,
      "is_motor": true,
      "motor_id": 1,
      "accel_val": 2000,
      "base_duration_us": 75000
    },
    {
      "id": "M_750",
      "pitch": 103,
      "t_note_us": 55050000,
      "t_trigger_us": 54914037,
      "is_ai": true,
      "track_id": 14,
      "velocity": 0,
      "is_motor": false,
      "motor_id": 0,
      "accel_val": 2000,
      "base_duration_us": 150000
    },
    {
      "id": "M_749",
      "pitch": 69,
      "t_note_us": 55050000,
      "t_trigger_us": 54914037,
      "is_ai": false,
      "track_id": 0,
      "velocity": 0,
      "is_motor": true,
      "motor_id": 1,
      "accel_val": 2000,
      "base_duration_us": 75000
    },
    {
      "id": "M_754",
      "pitch": 93,
      "t_note_us": 55200000,
      "t_trigger_us": 55064037,
      "is_ai": true,
      "track_id": 8,
      "velocity": 0,
      "is_motor": false,
      "motor_id": 0,
      "accel_val": 2000,
      "base_duration_us": 150000
    },
    {
      "id": "M_752",
      "pitch": 69,
      "t_note_us": 55200000,
      "t_trigger_us": 55064037,
      "is_ai": false,
      "track_id": 0,
      "velocity": 0,
      "is_motor": true,
      "motor_id": 1,
      "accel_val": 2000,
      "base_duration_us": 75000
    },
    {
      "id": "M_753",
      "pitch": 67,
      "t_note_us": 55275000,
      "t_trigger_us": 55139037,
      "is_ai": false,
      "track_id": 0,
      "velocity": 0,
      "is_motor": true,
      "motor_id": 1,
      "accel_val": 2000,
      "base_duration_us": 75000
    },
    {
      "id": "M_755",
      "pitch": 72,
      "t_note_us": 55350000,
      "t_trigger_us": 55214037,
      "is_ai": false,
      "track_id": 0,
      "velocity": 0,
      "is_motor": true,
      "motor_id": 1,
      "accel_val": 2000,
      "base_duration_us": 75000
    },
    {
      "id": "M_756",
      "pitch": 67,
      "t_note_us": 55425000,
      "t_trigger_us": 55289037,
      "is_ai": false,
      "track_id": 0,
      "velocity": 0,
      "is_motor": true,
      "motor_id": 1,
      "accel_val": 2000,
      "base_duration_us": 75000
    },
    {
      "id": "M_758",
      "pitch": 93,
      "t_note_us": 55500000,
      "t_trigger_us": 55364037,
      "is_ai": true,
      "track_id": 8,
      "velocity": 0,
      "is_motor": false,
      "motor_id": 0,
      "accel_val": 2000,
      "base_duration_us": 150000
    },
    {
      "id": "M_757",
      "pitch": 69,
      "t_note_us": 55500000,
      "t_trigger_us": 55364037,
      "is_ai": false,
      "track_id": 0,
      "velocity": 0,
      "is_motor": true,
      "motor_id": 1,
      "accel_val": 2000,
      "base_duration_us": 75000
    },
    {
      "id": "M_761",
      "pitch": 103,
      "t_note_us": 55650000,
      "t_trigger_us": 55514037,
      "is_ai": true,
      "track_id": 14,
      "velocity": 0,
      "is_motor": false,
      "motor_id": 0,
      "accel_val": 2000,
      "base_duration_us": 150000
    },
    {
      "id": "M_759",
      "pitch": 69,
      "t_note_us": 55650000,
      "t_trigger_us": 55514037,
      "is_ai": false,
      "track_id": 0,
      "velocity": 0,
      "is_motor": true,
      "motor_id": 1,
      "accel_val": 2000,
      "base_duration_us": 75000
    },
    {
      "id": "M_760",
      "pitch": 67,
      "t_note_us": 55725000,
      "t_trigger_us": 55589037,
      "is_ai": false,
      "track_id": 0,
      "velocity": 0,
      "is_motor": true,
      "motor_id": 1,
      "accel_val": 2000,
      "base_duration_us": 75000
    },
    {
      "id": "M_764",
      "pitch": 96,
      "t_note_us": 55800000,
      "t_trigger_us": 55664037,
      "is_ai": true,
      "track_id": 10,
      "velocity": 0,
      "is_motor": false,
      "motor_id": 0,
      "accel_val": 2000,
      "base_duration_us": 150000
    },
    {
      "id": "M_762",
      "pitch": 72,
      "t_note_us": 55800000,
      "t_trigger_us": 55664037,
      "is_ai": false,
      "track_id": 0,
      "velocity": 0,
      "is_motor": true,
      "motor_id": 1,
      "accel_val": 2000,
      "base_duration_us": 75000
    },
    {
      "id": "M_772",
      "pitch": 55,
      "t_note_us": 55800000,
      "t_trigger_us": 55664037,
      "is_ai": false,
      "track_id": 0,
      "velocity": 0,
      "is_motor": true,
      "motor_id": 0,
      "accel_val": 2000,
      "base_duration_us": 600000
    },
    {
      "id": "M_773",
      "pitch": 67,
      "t_note_us": 55800000,
      "t_trigger_us": 55664037,
      "is_ai": false,
      "track_id": 0,
      "velocity": 0,
      "is_motor": true,
      "motor_id": 2,
      "accel_val": 2000,
      "base_duration_us": 600000
    },
    {
      "id": "M_763",
      "pitch": 67,
      "t_note_us": 55875000,
      "t_trigger_us": 55739037,
      "is_ai": false,
      "track_id": 0,
      "velocity": 0,
      "is_motor": true,
      "motor_id": 1,
      "accel_val": 2000,
      "base_duration_us": 75000
    },
    {
      "id": "M_765",
      "pitch": 69,
      "t_note_us": 55950000,
      "t_trigger_us": 55814037,
      "is_ai": false,
      "track_id": 0,
      "velocity": 0,
      "is_motor": true,
      "motor_id": 1,
      "accel_val": 2000,
      "base_duration_us": 75000
    },
    {
      "id": "M_766",
      "pitch": 67,
      "t_note_us": 55950000,
      "t_trigger_us": 55814037,
      "is_ai": false,
      "track_id": 0,
      "velocity": 0,
      "is_motor": true,
      "motor_id": 3,
      "accel_val": 2000,
      "base_duration_us": 150000
    },
    {
      "id": "M_767",
      "pitch": 69,
      "t_note_us": 56100000,
      "t_trigger_us": 55964037,
      "is_ai": false,
      "track_id": 0,
      "velocity": 0,
      "is_motor": true,
      "motor_id": 1,
      "accel_val": 2000,
      "base_duration_us": 75000
    },
    {
      "id": "M_769",
      "pitch": 69,
      "t_note_us": 56100000,
      "t_trigger_us": 55964037,
      "is_ai": false,
      "track_id": 0,
      "velocity": 0,
      "is_motor": true,
      "motor_id": 3,
      "accel_val": 2000,
      "base_duration_us": 150000
    },
    {
      "id": "M_768",
      "pitch": 67,
      "t_note_us": 56175000,
      "t_trigger_us": 56039037,
      "is_ai": false,
      "track_id": 0,
      "velocity": 0,
      "is_motor": true,
      "motor_id": 1,
      "accel_val": 2000,
      "base_duration_us": 75000
    },
    {
      "id": "M_770",
      "pitch": 72,
      "t_note_us": 56250000,
      "t_trigger_us": 56114037,
      "is_ai": false,
      "track_id": 0,
      "velocity": 0,
      "is_motor": true,
      "motor_id": 1,
      "accel_val": 2000,
      "base_duration_us": 75000
    },
    {
      "id": "M_771",
      "pitch": 67,
      "t_note_us": 56325000,
      "t_trigger_us": 56189037,
      "is_ai": false,
      "track_id": 0,
      "velocity": 0,
      "is_motor": true,
      "motor_id": 1,
      "accel_val": 2000,
      "base_duration_us": 75000
    },
    {
      "id": "M_775",
      "pitch": 93,
      "t_note_us": 56400000,
      "t_trigger_us": 56264037,
      "is_ai": true,
      "track_id": 8,
      "velocity": 0,
      "is_motor": false,
      "motor_id": 0,
      "accel_val": 2000,
      "base_duration_us": 150000
    },
    {
      "id": "M_774",
      "pitch": 69,
      "t_note_us": 56400000,
      "t_trigger_us": 56264037,
      "is_ai": false,
      "track_id": 0,
      "velocity": 0,
      "is_motor": true,
      "motor_id": 1,
      "accel_val": 2000,
      "base_duration_us": 75000
    },
    {
      "id": "M_784",
      "pitch": 69,
      "t_note_us": 56400000,
      "t_trigger_us": 56264037,
      "is_ai": false,
      "track_id": 0,
      "velocity": 0,
      "is_motor": true,
      "motor_id": 2,
      "accel_val": 2000,
      "base_duration_us": 600000
    },
    {
      "id": "M_778",
      "pitch": 103,
      "t_note_us": 56550000,
      "t_trigger_us": 56414037,
      "is_ai": true,
      "track_id": 14,
      "velocity": 0,
      "is_motor": false,
      "motor_id": 0,
      "accel_val": 2000,
      "base_duration_us": 150000
    },
    {
      "id": "M_776",
      "pitch": 69,
      "t_note_us": 56550000,
      "t_trigger_us": 56414037,
      "is_ai": false,
      "track_id": 0,
      "velocity": 0,
      "is_motor": true,
      "motor_id": 1,
      "accel_val": 2000,
      "base_duration_us": 75000
    },
    {
      "id": "M_777",
      "pitch": 67,
      "t_note_us": 56625000,
      "t_trigger_us": 56489037,
      "is_ai": false,
      "track_id": 0,
      "velocity": 0,
      "is_motor": true,
      "motor_id": 1,
      "accel_val": 2000,
      "base_duration_us": 75000
    },
    {
      "id": "M_781",
      "pitch": 96,
      "t_note_us": 56700000,
      "t_trigger_us": 56564037,
      "is_ai": true,
      "track_id": 10,
      "velocity": 0,
      "is_motor": false,
      "motor_id": 0,
      "accel_val": 2000,
      "base_duration_us": 150000
    },
    {
      "id": "M_779",
      "pitch": 72,
      "t_note_us": 56700000,
      "t_trigger_us": 56564037,
      "is_ai": false,
      "track_id": 0,
      "velocity": 0,
      "is_motor": true,
      "motor_id": 1,
      "accel_val": 2000,
      "base_duration_us": 75000
    },
    {
      "id": "M_780",
      "pitch": 67,
      "t_note_us": 56775000,
      "t_trigger_us": 56639037,
      "is_ai": false,
      "track_id": 0,
      "velocity": 0,
      "is_motor": true,
      "motor_id": 1,
      "accel_val": 2000,
      "base_duration_us": 75000
    },
    {
      "id": "M_783",
      "pitch": 103,
      "t_note_us": 56850000,
      "t_trigger_us": 56714037,
      "is_ai": true,
      "track_id": 14,
      "velocity": 0,
      "is_motor": false,
      "motor_id": 0,
      "accel_val": 2000,
      "base_duration_us": 150000
    },
    {
      "id": "M_782",
      "pitch": 69,
      "t_note_us": 56850000,
      "t_trigger_us": 56714037,
      "is_ai": false,
      "track_id": 0,
      "velocity": 0,
      "is_motor": true,
      "motor_id": 1,
      "accel_val": 2000,
      "base_duration_us": 75000
    },
    {
      "id": "M_787",
      "pitch": 93,
      "t_note_us": 57000000,
      "t_trigger_us": 56864037,
      "is_ai": true,
      "track_id": 8,
      "velocity": 0,
      "is_motor": false,
      "motor_id": 0,
      "accel_val": 2000,
      "base_duration_us": 150000
    },
    {
      "id": "M_785",
      "pitch": 69,
      "t_note_us": 57000000,
      "t_trigger_us": 56864037,
      "is_ai": false,
      "track_id": 0,
      "velocity": 0,
      "is_motor": true,
      "motor_id": 1,
      "accel_val": 2000,
      "base_duration_us": 75000
    },
    {
      "id": "M_786",
      "pitch": 67,
      "t_note_us": 57075000,
      "t_trigger_us": 56939037,
      "is_ai": false,
      "track_id": 0,
      "velocity": 0,
      "is_motor": true,
      "motor_id": 1,
      "accel_val": 2000,
      "base_duration_us": 75000
    },
    {
      "id": "M_788",
      "pitch": 72,
      "t_note_us": 57150000,
      "t_trigger_us": 57014037,
      "is_ai": false,
      "track_id": 0,
      "velocity": 0,
      "is_motor": true,
      "motor_id": 1,
      "accel_val": 2000,
      "base_duration_us": 75000
    },
    {
      "id": "M_789",
      "pitch": 67,
      "t_note_us": 57225000,
      "t_trigger_us": 57089037,
      "is_ai": false,
      "track_id": 0,
      "velocity": 0,
      "is_motor": true,
      "motor_id": 1,
      "accel_val": 2000,
      "base_duration_us": 75000
    },
    {
      "id": "M_791",
      "pitch": 93,
      "t_note_us": 57300000,
      "t_trigger_us": 57164037,
      "is_ai": true,
      "track_id": 8,
      "velocity": 0,
      "is_motor": false,
      "motor_id": 0,
      "accel_val": 2000,
      "base_duration_us": 150000
    },
    {
      "id": "M_790",
      "pitch": 69,
      "t_note_us": 57300000,
      "t_trigger_us": 57164037,
      "is_ai": false,
      "track_id": 0,
      "velocity": 0,
      "is_motor": true,
      "motor_id": 1,
      "accel_val": 2000,
      "base_duration_us": 75000
    },
    {
      "id": "M_792",
      "pitch": 69,
      "t_note_us": 57450000,
      "t_trigger_us": 57314037,
      "is_ai": false,
      "track_id": 0,
      "velocity": 0,
      "is_motor": true,
      "motor_id": 1,
      "accel_val": 2000,
      "base_duration_us": 75000
    },
    {
      "id": "M_793",
      "pitch": 67,
      "t_note_us": 57525000,
      "t_trigger_us": 57389037,
      "is_ai": false,
      "track_id": 0,
      "velocity": 0,
      "is_motor": true,
      "motor_id": 1,
      "accel_val": 2000,
      "base_duration_us": 75000
    }
  ]
}