{
  "config": {
    "mode_idx": 0,
    "active_motors": [
      0,
      1,
      2,
      3
    ],
    "transpose": 0,
    "arp_speed_ms": 10,
    "gate_time": 100
  },
  "sustain_multiplier": 1.0,
  "notes": [
    {
      "id": "M_0",
      "pitch": 67,
      "t_note_us": 1200000,
      "t_trigger_us": 1064037,
      "is_ai": false,
      "track_id": 0,
      "velocity": 0,
      "is_motor": true,
      "motor_id": 1,
      "accel_val": 2000,
      "base_duration_us": 600000
    },
    {
      "id": "M_1",
      "pitch": 86,
      "t_note_us": 1800000,
      "t_trigger_us": 1664037,
      "is_ai": true,
      "track_id": 4,
      "velocity": 0,
      "is_motor": false,
      "motor_id": 0,
      "accel_val": 2000,
      "base_duration_us": 1184375
    },
    {
      "id": "M_2",
      "pitch": 64,
      "t_note_us": 1800000,
      "t_trigger_us": 1664037,
      "is_ai": false,
      "track_id": 0,
      "velocity": 0,
      "is_motor": true,
      "motor_id": 1,
      "accel_val": 2000,
      "base_duration_us": 1184375
    },
    {
      "id": "M_3",
      "pitch": 59,
      "t_note_us": 1800000,
      "t_trigger_us": 1664037,
      "is_ai": false,
      "track_id": 0,
      "velocity": 0,
      "is_motor": true,
      "motor_id": 0,
      "accel_val": 2000,
      "base_duration_us": 1184375
    },
    {
      "id": "M_4",
      "pitch": 48,
      "t_note_us": 1800000,
      "t_trigger_us": 1664037,
      "is_ai": false,
      "track_id": 0,
      "velocity": 0,
      "is_motor": true,
      "motor_id": 2,
      "accel_val": 2000,
      "base_duration_us": 1184375
    },
    {
      "id": "M_5",
      "pitch": 84,
      "t_note_us": 2999999,
      "t_trigger_us": 2864036,
      "is_ai": true,
      "track_id": 3,
      "velocity": 0,
      "is_motor": false,
      "motor_id": 0,
      "accel_val": 2000,
      "base_duration_us": 600000
    },
    {
      "id": "M_6",
      "pitch": 57,
      "t_note_us": 2999999,
      "t_trigger_us": 2864036,
      "is_ai": false,
      "track_id": 0,
      "velocity": 0,
      "is_motor": true,
      "motor_id": 0,
      "accel_val": 2000,
      "base_duration_us": 607812
    },
    {
      "id": "M_8",
      "pitch": 88,
      "t_note_us": 3599999,
      "t_trigger_us": 3464036,
      "is_ai": true,
      "track_id": 5,
      "velocity": 0,
      "is_motor": false,
      "motor_id": 0,
      "accel_val": 2000,
      "base_duration_us": 1217186
    },
    {
      "id": "M_7",
      "pitch": 55,
      "t_note_us": 3599999,
      "t_trigger_us": 3464036,
      "is_ai": false,
      "track_id": 0,
      "velocity": 0,
      "is_motor": true,
      "motor_id": 1,
      "accel_val": 2000,
      "base_duration_us": 1199999
    },
    {
      "id": "M_9",
      "pitch": 86,
      "t_note_us": 4799998,
      "t_trigger_us": 4664035,
      "is_ai": true,
      "track_id": 4,
      "velocity": 0,
      "is_motor": false,
      "motor_id": 0,
      "accel_val": 2000,
      "base_duration_us": 599999
    },
    {
      "id": "M_10",
      "pitch": 54,
      "t_note_us": 4799998,
      "t_trigger_us": 4664035,
      "is_ai": false,
      "track_id": 0,
      "velocity": 0,
      "is_motor": true,
      "motor_id": 0,
      "accel_val": 2000,
      "base_duration_us": 599999
    },
    {
      "id": "M_11",
      "pitch": 84,
      "t_note_us": 5399997,
      "t_trigger_us": 5264034,
      "is_ai": true,
      "track_id": 3,
      "velocity": 0,
      "is_motor": false,
      "motor_id": 0,
      "accel_val": 2000,
      "base_duration_us": 1199999
    },
    {
      "id": "M_14",
      "pitch": 81,
      "t_note_us": 5399997,
      "t_trigger_us": 5264034,
      "is_ai": true,
      "track_id": 1,
      "velocity": 0,
      "is_motor": false,
      "motor_id": 0,
      "accel_val": 2000,
      "base_duration_us": 1217186
    },
    {
      "id": "M_12",
      "pitch": 53,
      "t_note_us": 5399997,
      "t_trigger_us": 5264034,
      "is_ai": false,
      "track_id": 0,
      "velocity": 0,
      "is_motor": true,
      "motor_id": 0,
      "accel_val": 2000,
      "base_duration_us": 1199999
    },
    {
      "id": "M_13",
      "pitch": 64,
      "t_note_us": 5423434,
      "t_trigger_us": 5287471,
      "is_ai": false,
      "track_id": 0,
      "velocity": 0,
      "is_motor": true,
      "motor_id": 1,
      "accel_val": 2000,
      "base_duration_us": 1185937
    },
    {
      "id": "M_15",
      "pitch": 79,
      "t_note_us": 6599996,
      "t_trigger_us": 6464033,
      "is_ai": true,
      "track_id": 0,
      "velocity": 0,
      "is_motor": false,
      "motor_id": 0,
      "accel_val": 2000,
      "base_duration_us": 576562
    },
    {
      "id": "M_16",
      "pitch": 62,
      "t_note_us": 6599996,
      "t_trigger_us": 6464033,
      "is_ai": false,
      "track_id": 0,
      "velocity": 0,
      "is_motor": true,
      "motor_id": 0,
      "accel_val": 2000,
      "base_duration_us": 599999
    },
    {
      "id": "M_19",
      "pitch": 89,
      "t_note_us": 7199995,
      "t_trigger_us": 7064032,
      "is_ai": true,
      "track_id": 6,
      "velocity": 0,
      "is_motor": false,
      "motor_id": 0,
      "accel_val": 2000,
      "base_duration_us": 1823435
    },
    {
      "id": "M_17",
      "pitch": 60,
      "t_note_us": 7199995,
      "t_trigger_us": 7064032,
      "is_ai": false,
      "track_id": 0,
      "velocity": 0,
      "is_motor": true,
      "motor_id": 1,
      "accel_val": 2000,
      "base_duration_us": 1200000
    },
    {
      "id": "M_18",
      "pitch": 59,
      "t_note_us": 8399995,
      "t_trigger_us": 8264032,
      "is_ai": false,
      "track_id": 0,
      "velocity": 0,
      "is_motor": true,
      "motor_id": 0,
      "accel_val": 2000,
      "base_duration_us": 599998
    },
    {
      "id": "M_21",
      "pitch": 83,
      "t_note_us": 8899994,
      "t_trigger_us": 8764031,
      "is_ai": true,
      "track_id": 2,
      "velocity": 0,
      "is_motor": false,
      "motor_id": 0,
      "accel_val": 2000,
      "base_duration_us": 1299998
    },
    {
      "id": "M_22",
      "pitch": 79,
      "t_note_us": 8999993,
      "t_trigger_us": 8864030,
      "is_ai": true,
      "track_id": 0,
      "velocity": 0,
      "is_motor": false,
      "motor_id": 0,
      "accel_val": 2000,
      "base_duration_us": 1199999
    },
    {
      "id": "M_20",
      "pitch": 52,
      "t_note_us": 8999993,
      "t_trigger_us": 8864030,
      "is_ai": false,
      "track_id": 0,
      "velocity": 0,
      "is_motor": true,
      "motor_id": 0,
      "accel_val": 2000,
      "base_duration_us": 599999
    },
    {
      "id": "M_23",
      "pitch": 59,
      "t_note_us": 9599992,
      "t_trigger_us": 9464029,
      "is_ai": false,
      "track_id": 0,
      "velocity": 0,
      "is_motor": true,
      "motor_id": 0,
      "accel_val": 2000,
      "base_duration_us": 600000
    },
    {
      "id": "M_24",
      "pitch": 88,
      "t_note_us": 10199992,
      "t_trigger_us": 10064029,
      "is_ai": true,
      "track_id": 5,
      "velocity": 0,
      "is_motor": false,
      "motor_id": 0,
      "accel_val": 2000,
      "base_duration_us": 600000
    },
    {
      "id": "M_25",
      "pitch": 62,
      "t_note_us": 10199992,
      "t_trigger_us": 10064029,
      "is_ai": false,
      "track_id": 0,
      "velocity": 0,
      "is_motor": true,
      "motor_id": 1,
      "accel_val": 2000,
      "base_duration_us": 600000
    },
    {
      "id": "M_28",
      "pitch": 84,
      "t_note_us": 10799992,
      "t_trigger_us": 10664029,
      "is_ai": true,
      "track_id": 3,
      "velocity": 0,
      "is_motor": false,
      "motor_id": 0,
      "accel_val": 2000,
      "base_duration_us": 1799998
    },
    {
      "id": "M_26",
      "pitch": 57,
      "t_note_us": 10799992,
      "t_trigger_us": 10664029,
      "is_ai": false,
      "track_id": 0,
      "velocity": 0,
      "is_motor": true,
      "motor_id": 0,
      "accel_val": 2000,
      "base_duration_us": 600000
    },
    {
      "id": "M_27",
      "pitch": 60,
      "t_note_us": 11399992,
      "t_trigger_us": 11264029,
      "is_ai": false,
      "track_id": 0,
      "velocity": 0,
      "is_motor": true,
      "motor_id": 1,
      "accel_val": 2000,
      "base_duration_us": 600000
    },
    {
      "id": "M_29",
      "pitch": 64,
      "t_note_us": 11999992,
      "t_trigger_us": 11864029,
      "is_ai": false,
      "track_id": 0,
      "velocity": 0,
      "is_motor": true,
      "motor_id": 1,
      "accel_val": 2000,
      "base_duration_us": 599998
    },
    {
      "id": "M_30",
      "pitch": 67,
      "t_note_us": 11999992,
      "t_trigger_us": 11864029,
      "is_ai": false,
      "track_id": 0,
      "velocity": 0,
      "is_motor": true,
      "motor_id": 2,
      "accel_val": 2000,
      "base_duration_us": 599998
    },
    {
      "id": "M_33",
      "pitch": 83,
      "t_note_us": 12499991,
      "t_trigger_us": 12364028,
      "is_ai": true,
      "track_id": 2,
      "velocity": 0,
      "is_motor": false,
      "motor_id": 0,
      "accel_val": 2000,
      "base_duration_us": 999999
    },
    {
      "id": "M_32",
      "pitch": 79,
      "t_note_us": 12599990,
      "t_trigger_us": 12464027,
      "is_ai": true,
      "track_id": 0,
      "velocity": 0,
      "is_motor": false,
      "motor_id": 0,
      "accel_val": 2000,
      "base_duration_us": 900000
    },
    {
      "id": "M_31",
      "pitch": 52,
      "t_note_us": 12599990,
      "t_trigger_us": 12464027,
      "is_ai": false,
      "track_id": 0,
      "velocity": 0,
      "is_motor": true,
      "motor_id": 0,
      "accel_val": 2000,
      "base_duration_us": 600000
    },
    {
      "id": "M_35",
      "pitch": 59,
      "t_note_us": 13199990,
      "t_trigger_us": 13064027,
      "is_ai": false,
      "track_id": 0,
      "velocity": 0,
      "is_motor": true,
      "motor_id": 0,
      "accel_val": 2000,
      "base_duration_us": 600000
    },
    {
      "id": "M_34",
      "pitch": 88,
      "t_note_us": 13499990,
      "t_trigger_us": 13364027,
      "is_ai": true,
      "track_id": 5,
      "velocity": 0,
      "is_motor": false,
      "motor_id": 0,
      "accel_val": 2000,
      "base_duration_us": 300000
    },
    {
      "id": "M_36",
      "pitch": 79,
      "t_note_us": 13799990,
      "t_trigger_us": 13664027,
      "is_ai": true,
      "track_id": 0,
      "velocity": 0,
      "is_motor": false,
      "motor_id": 0,
      "accel_val": 2000,
      "base_duration_us": 300000
    },
    {
      "id": "M_38",
      "pitch": 62,
      "t_note_us": 13799990,
      "t_trigger_us": 13664027,
      "is_ai": false,
      "track_id": 0,
      "velocity": 0,
      "is_motor": true,
      "motor_id": 1,
      "accel_val": 2000,
      "base_duration_us": 600000
    },
    {
      "id": "M_37",
      "pitch": 88,
      "t_note_us": 14099990,
      "t_trigger_us": 13964027,
      "is_ai": true,
      "track_id": 5,
      "velocity": 0,
      "is_motor": false,
      "motor_id": 0,
      "accel_val": 2000,
      "base_duration_us": 300000
    },
    {
      "id": "M_39",
      "pitch": 86,
      "t_note_us": 14399990,
      "t_trigger_us": 14264027,
      "is_ai": true,
      "track_id": 4,
      "velocity": 0,
      "is_motor": false,
      "motor_id": 0,
      "accel_val": 2000,
      "base_duration_us": 600000
    },
    {
      "id": "M_40",
      "pitch": 57,
      "t_note_us": 14399990,
      "t_trigger_us": 14264027,
      "is_ai": false,
      "track_id": 0,
      "velocity": 0,
      "is_motor": true,
      "motor_id": 0,
      "accel_val": 2000,
      "base_duration_us": 600000
    },
    {
      "id": "M_42",
      "pitch": 84,
      "t_note_us": 14999990,
      "t_trigger_us": 14864027,
      "is_ai": true,
      "track_id": 3,
      "velocity": 0,
      "is_motor": false,
      "motor_id": 0,
      "accel_val": 2000,
      "base_duration_us": 900000
    },
    {
      "id": "M_41",
      "pitch": 60,
      "t_note_us": 14999990,
      "t_trigger_us": 14864027,
      "is_ai": false,
      "track_id": 0,
      "velocity": 0,
      "is_motor": true,
      "motor_id": 1,
      "accel_val": 2000,
      "base_duration_us": 600000
    },
    {
      "id": "M_44",
      "pitch": 64,
      "t_note_us": 15599990,
      "t_trigger_us": 15464027,
      "is_ai": false,
      "track_id": 0,
      "velocity": 0,
      "is_motor": true,
      "motor_id": 1,
      "accel_val": 2000,
      "base_duration_us": 600000
    },
    {
      "id": "M_43",
      "pitch": 83,
      "t_note_us": 15899990,
      "t_trigger_us": 15764027,
      "is_ai": true,
      "track_id": 2,
      "velocity": 0,
      "is_motor": false,
      "motor_id": 0,
      "accel_val": 2000,
      "base_duration_us": 300000
    },
    {
      "id": "M_45",
      "pitch": 60,
      "t_note_us": 16199990,
      "t_trigger_us": 16064027,
      "is_ai": false,
      "track_id": 0,
      "velocity": 0,
      "is_motor": true,
      "motor_id": 1,
      "accel_val": 2000,
      "base_duration_us": 1792187
    },
    {
      "id": "M_46",
      "pitch": 54,
      "t_note_us": 16199990,
      "t_trigger_us": 16064027,
      "is_ai": false,
      "track_id": 0,
      "velocity": 0,
      "is_motor": true,
      "motor_id": 0,
      "accel_val": 2000,
      "base_duration_us": 1792187
    },
    {
      "id": "M_47",
      "pitch": 64,
      "t_note_us": 16199990,
      "t_trigger_us": 16064027,
      "is_ai": false,
      "track_id": 0,
      "velocity": 0,
      "is_motor": true,
      "motor_id": 2,
      "accel_val": 2000,
      "base_duration_us": 1799999
    },
    {
      "id": "M_48",
      "pitch": 69,
      "t_note_us": 16199990,
      "t_trigger_us": 16064027,
      "is_ai": false,
      "track_id": 0,
      "velocity": 0,
      "is_motor": true,
      "motor_id": 3,
      "accel_val": 2000,
      "base_duration_us": 1799999
    },
    {
      "id": "M_49",
      "pitch": 62,
      "t_note_us": 17999989,
      "t_trigger_us": 17864026,
      "is_ai": false,
      "track_id": 0,
      "velocity": 0,
      "is_motor": true,
      "motor_id": 1,
      "accel_val": 2000,
      "base_duration_us": 1200000
    },
    {
      "id": "M_50",
      "pitch": 67,
      "t_note_us": 17999989,
      "t_trigger_us": 17864026,
      "is_ai": false,
      "track_id": 0,
      "velocity": 0,
      "is_motor": true,
      "motor_id": 2,
      "accel_val": 2000,
      "base_duration_us": 1200000
    },
    {
      "id": "M_52",
      "pitch": 57,
      "t_note_us": 17999989,
      "t_trigger_us": 17864026,
      "is_ai": false,
      "track_id": 0,
      "velocity": 0,
      "is_motor": true,
      "motor_id": 0,
      "accel_val": 2000,
      "base_duration_us": 1800000
    },
    {
      "id": "M_53",
      "pitch": 53,
      "t_note_us": 17999989,
      "t_trigger_us": 17864026,
      "is_ai": false,
      "track_id": 0,
      "velocity": 0,
      "is_motor": true,
      "motor_id": 3,
      "accel_val": 2000,
      "base_duration_us": 1800000
    },
    {
      "id": "M_51",
      "pitch": 65,
      "t_note_us": 19199989,
      "t_trigger_us": 19064026,
      "is_ai": false,
      "track_id": 0,
      "velocity": 0,
      "is_motor": true,
      "motor_id": 1,
      "accel_val": 2000,
      "base_duration_us": 600000
    },
    {
      "id": "M_54",
      "pitch": 47,
      "t_note_us": 19799989,
      "t_trigger_us": 19664026,
      "is_ai": false,
      "track_id": 0,
      "velocity": 0,
      "is_motor": true,
      "motor_id": 0,
      "accel_val": 2000,
      "base_duration_us": 300000
    },
    {
      "id": "M_57",
      "pitch": 64,
      "t_note_us": 19799989,
      "t_trigger_us": 19664026,
      "is_ai": false,
      "track_id": 0,
      "velocity": 0,
      "is_motor": true,
      "motor_id": 1,
      "accel_val": 2000,
      "base_duration_us": 1200000
    },
    {
      "id": "M_55",
      "pitch": 54,
      "t_note_us": 20099989,
      "t_trigger_us": 19964026,
      "is_ai": false,
      "track_id": 0,
      "velocity": 0,
      "is_motor": true,
      "motor_id": 0,
      "accel_val": 2000,
      "base_duration_us": 300000
    },
    {
      "id": "M_56",
      "pitch": 57,
      "t_note_us": 20399989,
      "t_trigger_us": 20264026,
      "is_ai": false,
      "track_id": 0,
      "velocity": 0,
      "is_motor": true,
      "motor_id": 0,
      "accel_val": 2000,
      "base_duration_us": 300000
    },
    {
      "id": "M_58",
      "pitch": 59,
      "t_note_us": 20699989,
      "t_trigger_us": 20564026,
      "is_ai": false,
      "track_id": 0,
      "velocity": 0,
      "is_motor": true,
      "motor_id": 0,
      "accel_val": 2000,
      "base_duration_us": 864062
    },
    {
      "id": "M_59",
      "pitch": 64,
      "t_note_us": 20999989,
      "t_trigger_us": 20864026,
      "is_ai": false,
      "track_id": 0,
      "velocity": 0,
      "is_motor": true,
      "motor_id": 1,
      "accel_val": 2000,
      "base_duration_us": 578124
    },
    {
      "id": "M_60",
      "pitch": 45,
      "t_note_us": 21599988,
      "t_trigger_us": 21464025,
      "is_ai": false,
      "track_id": 0,
      "velocity": 0,
      "is_motor": true,
      "motor_id": 0,
      "accel_val": 2000,
      "base_duration_us": 300000
    },
    {
      "id": "M_61",
      "pitch": 54,
      "t_note_us": 21899988,
      "t_trigger_us": 21764025,
      "is_ai": false,
      "track_id": 0,
      "velocity": 0,
      "is_motor": true,
      "motor_id": 0,
      "accel_val": 2000,
      "base_duration_us": 300000
    },
    {
      "id": "M_62",
      "pitch": 57,
      "t_note_us": 22199988,
      "t_trigger_us": 22064025,
      "is_ai": false,
      "track_id": 0,
      "velocity": 0,
      "is_motor": true,
      "motor_id": 0,
      "accel_val": 2000,
      "base_duration_us": 300000
    },
    {
      "id": "M_64",
      "pitch": 59,
      "t_note_us": 22499988,
      "t_trigger_us": 22364025,
      "is_ai": false,
      "track_id": 0,
      "velocity": 0,
      "is_motor": true,
      "motor_id": 0,
      "accel_val": 2000,
      "base_duration_us": 900000
    },
    {
      "id": "M_63",
      "pitch": 64,
      "t_note_us": 22799988,
      "t_trigger_us": 22664025,
      "is_ai": false,
      "track_id": 0,
      "velocity": 0,
      "is_motor": true,
      "motor_id": 1,
      "accel_val": 2000,
      "base_duration_us": 600000
    },
    {
      "id": "M_65",
      "pitch": 43,
      "t_note_us": 23399988,
      "t_trigger_us": 23264025,
      "is_ai": false,
      "track_id": 0,
      "velocity": 0,
      "is_motor": true,
      "motor_id": 0,
      "accel_val": 2000,
      "base_duration_us": 300000
    },
    {
      "id": "M_66",
      "pitch": 53,
      "t_note_us": 23699988,
      "t_trigger_us": 23564025,
      "is_ai": false,
      "track_id": 0,
      "velocity": 0,
      "is_motor": true,
      "motor_id": 0,
      "accel_val": 2000,
      "base_duration_us": 300000
    },
    {
      "id": "M_67",
      "pitch": 53,
      "t_note_us": 23999988,
      "t_trigger_us": 23864025,
      "is_ai": false,
      "track_id": 0,
      "velocity": 0,
      "is_motor": true,
      "motor_id": 0,
      "accel_val": 2000,
      "base_duration_us": 300000
    },
    {
      "id": "M_68",
      "pitch": 57,
      "t_note_us": 24299988,
      "t_trigger_us": 24164025,
      "is_ai": false,
      "track_id": 0,
      "velocity": 0,
      "is_motor": true,
      "motor_id": 0,
      "accel_val": 2000,
      "base_duration_us": 300000
    },
    {
      "id": "M_70",
      "pitch": 59,
      "t_note_us": 24599988,
      "t_trigger_us": 24464025,
      "is_ai": false,
      "track_id": 0,
      "velocity": 0,
      "is_motor": true,
      "motor_id": 0,
      "accel_val": 2000,
      "base_duration_us": 600000
    },
    {
      "id": "M_69",
      "pitch": 64,
      "t_note_us": 24899988,
      "t_trigger_us": 24764025,
      "is_ai": false,
      "track_id": 0,
      "velocity": 0,
      "is_motor": true,
      "motor_id": 1,
      "accel_val": 2000,
      "base_duration_us": 300000
    },
    {
      "id": "M_71",
      "pitch": 62,
      "t_note_us": 25199988,
      "t_trigger_us": 25064025,
      "is_ai": false,
      "track_id": 0,
      "velocity": 0,
      "is_motor": true,
      "motor_id": 1,
      "accel_val": 2000,
      "base_duration_us": 1200000
    },
    {
      "id": "M_72",
      "pitch": 67,
      "t_note_us": 26399988,
      "t_trigger_us": 26264025,
      "is_ai": false,
      "track_id": 0,
      "velocity": 0,
      "is_motor": true,
      "motor_id": 1,
      "accel_val": 2000,
      "base_duration_us": 300000
    },
    {
      "id": "M_73",
      "pitch": 88,
      "t_note_us": 26699988,
      "t_trigger_us": 26564025,
      "is_ai": true,
      "track_id": 5,
      "velocity": 0,
      "is_motor": false,
      "motor_id": 0,
      "accel_val": 2000,
      "base_duration_us": 300000
    },
    {
      "id": "M_77",
      "pitch": 88,
      "t_note_us": 26999988,
      "t_trigger_us": 26864025,
      "is_ai": true,
      "track_id": 5,
      "velocity": 0,
      "is_motor": false,
      "motor_id": 0,
      "accel_val": 2000,
      "base_duration_us": 1200000
    },
    {
      "id": "M_74",
      "pitch": 48,
      "t_note_us": 26999988,
      "t_trigger_us": 26864025,
      "is_ai": false,
      "track_id": 0,
      "velocity": 0,
      "is_motor": true,
      "motor_id": 0,
      "accel_val": 2000,
      "base_duration_us": 300000
    },
    {
      "id": "M_75",
      "pitch": 55,
      "t_note_us": 27299988,
      "t_trigger_us": 27164025,
      "is_ai": false,
      "track_id": 0,
      "velocity": 0,
      "is_motor": true,
      "motor_id": 0,
      "accel_val": 2000,
      "base_duration_us": 300000
    },
    {
      "id": "M_76",
      "pitch": 60,
      "t_note_us": 27599988,
      "t_trigger_us": 27464025,
      "is_ai": false,
      "track_id": 0,
      "velocity": 0,
      "is_motor": true,
      "motor_id": 1,
      "accel_val": 2000,
      "base_duration_us": 300000
    },
    {
      "id": "M_78",
      "pitch": 62,
      "t_note_us": 27899988,
      "t_trigger_us": 27764025,
      "is_ai": false,
      "track_id": 0,
      "velocity": 0,
      "is_motor": true,
      "motor_id": 1,
      "accel_val": 2000,
      "base_duration_us": 300000
    },
    {
      "id": "M_79",
      "pitch": 86,
      "t_note_us": 28199988,
      "t_trigger_us": 28064025,
      "is_ai": true,
      "track_id": 4,
      "velocity": 0,
      "is_motor": false,
      "motor_id": 0,
      "accel_val": 2000,
      "base_duration_us": 300000
    },
    {
      "id": "M_80",
      "pitch": 60,
      "t_note_us": 28199988,
      "t_trigger_us": 28064025,
      "is_ai": false,
      "track_id": 0,
      "velocity": 0,
      "is_motor": true,
      "motor_id": 1,
      "accel_val": 2000,
      "base_duration_us": 300000
    },
    {
      "id": "M_81",
      "pitch": 84,
      "t_note_us": 28499988,
      "t_trigger_us": 28364025,
      "is_ai": true,
      "track_id": 3,
      "velocity": 0,
      "is_motor": false,
      "motor_id": 0,
      "accel_val": 2000,
      "base_duration_us": 285937
    },
    {
      "id": "M_82",
      "pitch": 55,
      "t_note_us": 28499988,
      "t_trigger_us": 28364025,
      "is_ai": false,
      "track_id": 0,
      "velocity": 0,
      "is_motor": true,
      "motor_id": 0,
      "accel_val": 2000,
      "base_duration_us": 299999
    },
    {
      "id": "M_86",
      "pitch": 88,
      "t_note_us": 28799987,
      "t_trigger_us": 28664024,
      "is_ai": true,
      "track_id": 5,
      "velocity": 0,
      "is_motor": false,
      "motor_id": 0,
      "accel_val": 2000,
      "base_duration_us": 1200000
    },
    {
      "id": "M_83",
      "pitch": 48,
      "t_note_us": 28799987,
      "t_trigger_us": 28664024,
      "is_ai": false,
      "track_id": 0,
      "velocity": 0,
      "is_motor": true,
      "motor_id": 0,
      "accel_val": 2000,
      "base_duration_us": 300000
    },
    {
      "id": "M_84",
      "pitch": 55,
      "t_note_us": 29099987,
      "t_trigger_us": 28964024,
      "is_ai": false,
      "track_id": 0,
      "velocity": 0,
      "is_motor": true,
      "motor_id": 0,
      "accel_val": 2000,
      "base_duration_us": 300000
    },
    {
      "id": "M_85",
      "pitch": 60,
      "t_note_us": 29399987,
      "t_trigger_us": 29264024,
      "is_ai": false,
      "track_id": 0,
      "velocity": 0,
      "is_motor": true,
      "motor_id": 1,
      "accel_val": 2000,
      "base_duration_us": 300000
    },
    {
      "id": "M_87",
      "pitch": 62,
      "t_note_us": 29699987,
      "t_trigger_us": 29564024,
      "is_ai": false,
      "track_id": 0,
      "velocity": 0,
      "is_motor": true,
      "motor_id": 1,
      "accel_val": 2000,
      "base_duration_us": 300000
    },
    {
      "id": "M_89",
      "pitch": 79,
      "t_note_us": 29999987,
      "t_trigger_us": 29864024,
      "is_ai": true,
      "track_id": 0,
      "velocity": 0,
      "is_motor": false,
      "motor_id": 0,
      "accel_val": 2000,
      "base_duration_us": 600000
    },
    {
      "id": "M_88",
      "pitch": 60,
      "t_note_us": 29999987,
      "t_trigger_us": 29864024,
      "is_ai": false,
      "track_id": 0,
      "velocity": 0,
      "is_motor": true,
      "motor_id": 1,
      "accel_val": 2000,
      "base_duration_us": 300000
    },
    {
      "id": "M_90",
      "pitch": 55,
      "t_note_us": 30299987,
      "t_trigger_us": 30164024,
      "is_ai": false,
      "track_id": 0,
      "velocity": 0,
      "is_motor": true,
      "motor_id": 0,
      "accel_val": 2000,
      "base_duration_us": 300000
    },
    {
      "id": "M_97",
      "pitch": 88,
      "t_note_us": 30599987,
      "t_trigger_us": 30464024,
      "is_ai": true,
      "track_id": 5,
      "velocity": 0,
      "is_motor": false,
      "motor_id": 0,
      "accel_val": 2000,
      "base_duration_us": 1799999
    },
    {
      "id": "M_91",
      "pitch": 45,
      "t_note_us": 30599987,
      "t_trigger_us": 30464024,
      "is_ai": false,
      "track_id": 0,
      "velocity": 0,
      "is_motor": true,
      "motor_id": 0,
      "accel_val": 2000,
      "base_duration_us": 300000
    },
    {
      "id": "M_92",
      "pitch": 55,
      "t_note_us": 30899987,
      "t_trigger_us": 30764024,
      "is_ai": false,
      "track_id": 0,
      "velocity": 0,
      "is_motor": true,
      "motor_id": 0,
      "accel_val": 2000,
      "base_duration_us": 300000
    },
    {
      "id": "M_93",
      "pitch": 60,
      "t_note_us": 31199987,
      "t_trigger_us": 31064024,
      "is_ai": false,
      "track_id": 0,
      "velocity": 0,
      "is_motor": true,
      "motor_id": 1,
      "accel_val": 2000,
      "base_duration_us": 300000
    },
    {
      "id": "M_94",
      "pitch": 62,
      "t_note_us": 31499987,
      "t_trigger_us": 31364024,
      "is_ai": false,
      "track_id": 0,
      "velocity": 0,
      "is_motor": true,
      "motor_id": 1,
      "accel_val": 2000,
      "base_duration_us": 300000
    },
    {
      "id": "M_95",
      "pitch": 60,
      "t_note_us": 31799987,
      "t_trigger_us": 31664024,
      "is_ai": false,
      "track_id": 0,
      "velocity": 0,
      "is_motor": true,
      "motor_id": 1,
      "accel_val": 2000,
      "base_duration_us": 300000
    },
    {
      "id": "M_96",
      "pitch": 55,
      "t_note_us": 32099987,
      "t_trigger_us": 31964024,
      "is_ai": false,
      "track_id": 0,
      "velocity": 0,
      "is_motor": true,
      "motor_id": 0,
      "accel_val": 2000,
      "base_duration_us": 287500
    },
    {
      "id": "M_98",
      "pitch": 45,
      "t_note_us": 32399986,
      "t_trigger_us": 32264023,
      "is_ai": false,
      "track_id": 0,
      "velocity": 0,
      "is_motor": true,
      "motor_id": 0,
      "accel_val": 2000,
      "base_duration_us": 300000
    },
    {
      "id": "M_99",
      "pitch": 55,
      "t_note_us": 32699986,
      "t_trigger_us": 32564023,
      "is_ai": false,
      "track_id": 0,
      "velocity": 0,
      "is_motor": true,
      "motor_id": 0,
      "accel_val": 2000,
      "base_duration_us": 300000
    },
    {
      "id": "M_100",
      "pitch": 60,
      "t_note_us": 32999986,
      "t_trigger_us": 32864023,
      "is_ai": false,
      "track_id": 0,
      "velocity": 0,
      "is_motor": true,
      "motor_id": 1,
      "accel_val": 2000,
      "base_duration_us": 300000
    },
    {
      "id": "M_101",
      "pitch": 62,
      "t_note_us": 33299986,
      "t_trigger_us": 33164023,
      "is_ai": false,
      "track_id": 0,
      "velocity": 0,
      "is_motor": true,
      "motor_id": 1,
      "accel_val": 2000,
      "base_duration_us": 300000
    },
    {
      "id": "M_102",
      "pitch": 88,
      "t_note_us": 33599986,
      "t_trigger_us": 33464023,
      "is_ai": true,
      "track_id": 5,
      "velocity": 0,
      "is_motor": false,
      "motor_id": 0,
      "accel_val": 2000,
      "base_duration_us": 300000
    },
    {
      "id": "M_103",
      "pitch": 60,
      "t_note_us": 33599986,
      "t_trigger_us": 33464023,
      "is_ai": false,
      "track_id": 0,
      "velocity": 0,
      "is_motor": true,
      "motor_id": 1,
      "accel_val": 2000,
      "base_duration_us": 300000
    },
    {
      "id": "M_105",
      "pitch": 79,
      "t_note_us": 33899986,
      "t_trigger_us": 33764023,
      "is_ai": true,
      "track_id": 0,
      "velocity": 0,
      "is_motor": false,
      "motor_id": 0,
      "accel_val": 2000,
      "base_duration_us": 299999
    },
    {
      "id": "M_104",
      "pitch": 55,
      "t_note_us": 33899986,
      "t_trigger_us": 33764023,
      "is_ai": false,
      "track_id": 0,
      "velocity": 0,
      "is_motor": true,
      "motor_id": 0,
      "accel_val": 2000,
      "base_duration_us": 287500
    },
    {
      "id": "M_109",
      "pitch": 89,
      "t_note_us": 34199985,
      "t_trigger_us": 34064022,
      "is_ai": true,
      "track_id": 6,
      "velocity": 0,
      "is_motor": false,
      "motor_id": 0,
      "accel_val": 2000,
      "base_duration_us": 1200000
    },
    {
      "id": "M_106",
      "pitch": 50,
      "t_note_us": 34199985,
      "t_trigger_us": 34064022,
      "is_ai": false,
      "track_id": 0,
      "velocity": 0,
      "is_motor": true,
      "motor_id": 0,
      "accel_val": 2000,
      "base_duration_us": 300000
    },
    {
      "id": "M_107",
      "pitch": 57,
      "t_note_us": 34499985,
      "t_trigger_us": 34364022,
      "is_ai": false,
      "track_id": 0,
      "velocity": 0,
      "is_motor": true,
      "motor_id": 0,
      "accel_val": 2000,
      "base_duration_us": 300000
    },
    {
      "id": "M_108",
      "pitch": 60,
      "t_note_us": 34799985,
      "t_trigger_us": 34664022,
      "is_ai": false,
      "track_id": 0,
      "velocity": 0,
      "is_motor": true,
      "motor_id": 1,
      "accel_val": 2000,
      "base_duration_us": 300000
    },
    {
      "id": "M_110",
      "pitch": 62,
      "t_note_us": 35099985,
      "t_trigger_us": 34964022,
      "is_ai": false,
      "track_id": 0,
      "velocity": 0,
      "is_motor": true,
      "motor_id": 1,
      "accel_val": 2000,
      "base_duration_us": 300000
    },
    {
      "id": "M_112",
      "pitch": 81,
      "t_note_us": 35399985,
      "t_trigger_us": 35264022,
      "is_ai": true,
      "track_id": 1,
      "velocity": 0,
      "is_motor": false,
      "motor_id": 0,
      "accel_val": 2000,
      "base_duration_us": 600000
    },
    {
      "id": "M_111",
      "pitch": 60,
      "t_note_us": 35399985,
      "t_trigger_us": 35264022,
      "is_ai": false,
      "track_id": 0,
      "velocity": 0,
      "is_motor": true,
      "motor_id": 1,
      "accel_val": 2000,
      "base_duration_us": 300000
    },
    {
      "id": "M_113",
      "pitch": 57,
      "t_note_us": 35699985,
      "t_trigger_us": 35564022,
      "is_ai": false,
      "track_id": 0,
      "velocity": 0,
      "is_motor": true,
      "motor_id": 0,
      "accel_val": 2000,
      "base_duration_us": 300000
    },
    {
      "id": "M_117",
      "pitch": 81,
      "t_note_us": 35999985,
      "t_trigger_us": 35864022,
      "is_ai": true,
      "track_id": 1,
      "velocity": 0,
      "is_motor": false,
      "motor_id": 0,
      "accel_val": 2000,
      "base_duration_us": 1200000
    },
    {
      "id": "M_114",
      "pitch": 50,
      "t_note_us": 35999985,
      "t_trigger_us": 35864022,
      "is_ai": false,
      "track_id": 0,
      "velocity": 0,
      "is_motor": true,
      "motor_id": 0,
      "accel_val": 2000,
      "base_duration_us": 300000
    },
    {
      "id": "M_115",
      "pitch": 57,
      "t_note_us": 36299985,
      "t_trigger_us": 36164022,
      "is_ai": false,
      "track_id": 0,
      "velocity": 0,
      "is_motor": true,
      "motor_id": 0,
      "accel_val": 2000,
      "base_duration_us": 300000
    },
    {
      "id": "M_116",
      "pitch": 60,
      "t_note_us": 36599985,
      "t_trigger_us": 36464022,
      "is_ai": false,
      "track_id": 0,
      "velocity": 0,
      "is_motor": true,
      "motor_id": 1,
      "accel_val": 2000,
      "base_duration_us": 300000
    },
    {
      "id": "M_118",
      "pitch": 62,
      "t_note_us": 36899985,
      "t_trigger_us": 36764022,
      "is_ai": false,
      "track_id": 0,
      "velocity": 0,
      "is_motor": true,
      "motor_id": 1,
      "accel_val": 2000,
      "base_duration_us": 300000
    },
    {
      "id": "M_119",
      "pitch": 88,
      "t_note_us": 37199985,
      "t_trigger_us": 37064022,
      "is_ai": true,
      "track_id": 5,
      "velocity": 0,
      "is_motor": false,
      "motor_id": 0,
      "accel_val": 2000,
      "base_duration_us": 300000
    },
    {
      "id": "M_120",
      "pitch": 60,
      "t_note_us": 37199985,
      "t_trigger_us": 37064022,
      "is_ai": false,
      "track_id": 0,
      "velocity": 0,
      "is_motor": true,
      "motor_id": 1,
      "accel_val": 2000,
      "base_duration_us": 300000
    },
    {
      "id": "M_121",
      "pitch": 86,
      "t_note_us": 37499985,
      "t_trigger_us": 37364022,
      "is_ai": true,
      "track_id": 4,
      "velocity": 0,
      "is_motor": false,
      "motor_id": 0,
      "accel_val": 2000,
      "base_duration_us": 300000
    },
    {
      "id": "M_122",
      "pitch": 57,
      "t_note_us": 37499985,
      "t_trigger_us": 37364022,
      "is_ai": false,
      "track_id": 0,
      "velocity": 0,
      "is_motor": true,
      "motor_id": 0,
      "accel_val": 2000,
      "base_duration_us": 300000
    },
    {
      "id": "M_128",
      "pitch": 86,
      "t_note_us": 37799985,
      "t_trigger_us": 37664022,
      "is_ai": true,
      "track_id": 4,
      "velocity": 0,
      "is_motor": false,
      "motor_id": 0,
      "accel_val": 2000,
      "base_duration_us": 1800000
    },
    {
      "id": "M_123",
      "pitch": 43,
      "t_note_us": 37799985,
      "t_trigger_us": 37664022,
      "is_ai": false,
      "track_id": 0,
      "velocity": 0,
      "is_motor": true,
      "motor_id": 0,
      "accel_val": 2000,
      "base_duration_us": 300000
    },
    {
      "id": "M_124",
      "pitch": 55,
      "t_note_us": 38099985,
      "t_trigger_us": 37964022,
      "is_ai": false,
      "track_id": 0,
      "velocity": 0,
      "is_motor": true,
      "motor_id": 0,
      "accel_val": 2000,
      "base_duration_us": 300000
    },
    {
      "id": "M_125",
      "pitch": 60,
      "t_note_us": 38399985,
      "t_trigger_us": 38264022,
      "is_ai": false,
      "track_id": 0,
      "velocity": 0,
      "is_motor": true,
      "motor_id": 1,
      "accel_val": 2000,
      "base_duration_us": 300000
    },
    {
      "id": "M_126",
      "pitch": 62,
      "t_note_us": 38699985,
      "t_trigger_us": 38564022,
      "is_ai": false,
      "track_id": 0,
      "velocity": 0,
      "is_motor": true,
      "motor_id": 1,
      "accel_val": 2000,
      "base_duration_us": 300000
    },
    {
      "id": "M_127",
      "pitch": 60,
      "t_note_us": 38999985,
      "t_trigger_us": 38864022,
      "is_ai": false,
      "track_id": 0,
      "velocity": 0,
      "is_motor": true,
      "motor_id": 1,
      "accel_val": 2000,
      "base_duration_us": 300000
    },
    {
      "id": "M_129",
      "pitch": 55,
      "t_note_us": 39299985,
      "t_trigger_us": 39164022,
      "is_ai": false,
      "track_id": 0,
      "velocity": 0,
      "is_motor": true,
      "motor_id": 0,
      "accel_val": 2000,
      "base_duration_us": 300000
    },
    {
      "id": "M_130",
      "pitch": 43,
      "t_note_us": 39599985,
      "t_trigger_us": 39464022,
      "is_ai": false,
      "track_id": 0,
      "velocity": 0,
      "is_motor": true,
      "motor_id": 0,
      "accel_val": 2000,
      "base_duration_us": 300000
    },
    {
      "id": "M_131",
      "pitch": 55,
      "t_note_us": 39899985,
      "t_trigger_us": 39764022,
      "is_ai": false,
      "track_id": 0,
      "velocity": 0,
      "is_motor": true,
      "motor_id": 0,
      "accel_val": 2000,
      "base_duration_us": 300000
    },
    {
      "id": "M_132",
      "pitch": 60,
      "t_note_us": 40199985,
      "t_trigger_us": 40064022,
      "is_ai": false,
      "track_id": 0,
      "velocity": 0,
      "is_motor": true,
      "motor_id": 1,
      "accel_val": 2000,
      "base_duration_us": 300000
    },
    {
      "id": "M_133",
      "pitch": 62,
      "t_note_us": 40499985,
      "t_trigger_us": 40364022,
      "is_ai": false,
      "track_id": 0,
      "velocity": 0,
      "is_motor": true,
      "motor_id": 1,
      "accel_val": 2000,
      "base_duration_us": 300000
    },
    {
      "id": "M_134",
      "pitch": 67,
      "t_note_us": 40799985,
      "t_trigger_us": 40664022,
      "is_ai": false,
      "track_id": 0,
      "velocity": 0,
      "is_motor": true,
      "motor_id": 1,
      "accel_val": 2000,
      "base_duration_us": 300000
    },
    {
      "id": "M_135",
      "pitch": 60,
      "t_note_us": 40799985,
      "t_trigger_us": 40664022,
      "is_ai": false,
      "track_id": 0,
      "velocity": 0,
      "is_motor": true,
      "motor_id": 0,
      "accel_val": 2000,
      "base_duration_us": 300000
    },
    {
      "id": "M_136",
      "pitch": 88,
      "t_note_us": 41099985,
      "t_trigger_us": 40964022,
      "is_ai": true,
      "track_id": 5,
      "velocity": 0,
      "is_motor": false,
      "motor_id": 0,
      "accel_val": 2000,
      "base_duration_us": 300000
    },
    {
      "id": "M_137",
      "pitch": 55,
      "t_note_us": 41099985,
      "t_trigger_us": 40964022,
      "is_ai": false,
      "track_id": 0,
      "velocity": 0,
      "is_motor": true,
      "motor_id": 0,
      "accel_val": 2000,
      "base_duration_us": 300000
    },
    {
      "id": "M_141",
      "pitch": 88,
      "t_note_us": 41399985,
      "t_trigger_us": 41264022,
      "is_ai": true,
      "track_id": 5,
      "velocity": 0,
      "is_motor": false,
      "motor_id": 0,
      "accel_val": 2000,
      "base_duration_us": 1200000
    },
    {
      "id": "M_138",
      "pitch": 48,
      "t_note_us": 41399985,
      "t_trigger_us": 41264022,
      "is_ai": false,
      "track_id": 0,
      "velocity": 0,
      "is_motor": true,
      "motor_id": 0,
      "accel_val": 2000,
      "base_duration_us": 300000
    },
    {
      "id": "M_139",
      "pitch": 55,
      "t_note_us": 41699985,
      "t_trigger_us": 41564022,
      "is_ai": false,
      "track_id": 0,
      "velocity": 0,
      "is_motor": true,
      "motor_id": 0,
      "accel_val": 2000,
      "base_duration_us": 300000
    },
    {
      "id": "M_140",
      "pitch": 60,
      "t_note_us": 41999985,
      "t_trigger_us": 41864022,
      "is_ai": false,
      "track_id": 0,
      "velocity": 0,
      "is_motor": true,
      "motor_id": 1,
      "accel_val": 2000,
      "base_duration_us": 300000
    },
    {
      "id": "M_142",
      "pitch": 62,
      "t_note_us": 42299985,
      "t_trigger_us": 42164022,
      "is_ai": false,
      "track_id": 0,
      "velocity": 0,
      "is_motor": true,
      "motor_id": 1,
      "accel_val": 2000,
      "base_duration_us": 300000
    },
    {
      "id": "M_143",
      "pitch": 86,
      "t_note_us": 42599985,
      "t_trigger_us": 42464022,
      "is_ai": true,
      "track_id": 4,
      "velocity": 0,
      "is_motor": false,
      "motor_id": 0,
      "accel_val": 2000,
      "base_duration_us": 300000
    },
    {
      "id": "M_144",
      "pitch": 60,
      "t_note_us": 42599985,
      "t_trigger_us": 42464022,
      "is_ai": false,
      "track_id": 0,
      "velocity": 0,
      "is_motor": true,
      "motor_id": 1,
      "accel_val": 2000,
      "base_duration_us": 300000
    },
    {
      "id": "M_145",
      "pitch": 84,
      "t_note_us": 42899985,
      "t_trigger_us": 42764022,
      "is_ai": true,
      "track_id": 3,
      "velocity": 0,
      "is_motor": false,
      "motor_id": 0,
      "accel_val": 2000,
      "base_duration_us": 300000
    },
    {
      "id": "M_146",
      "pitch": 55,
      "t_note_us": 42899985,
      "t_trigger_us": 42764022,
      "is_ai": false,
      "track_id": 0,
      "velocity": 0,
      "is_motor": true,
      "motor_id": 0,
      "accel_val": 2000,
      "base_duration_us": 300000
    },
    {
      "id": "M_150",
      "pitch": 88,
      "t_note_us": 43199985,
      "t_trigger_us": 43064022,
      "is_ai": true,
      "track_id": 5,
      "velocity": 0,
      "is_motor": false,
      "motor_id": 0,
      "accel_val": 2000,
      "base_duration_us": 1200000
    },
    {
      "id": "M_147",
      "pitch": 48,
      "t_note_us": 43199985,
      "t_trigger_us": 43064022,
      "is_ai": false,
      "track_id": 0,
      "velocity": 0,
      "is_motor": true,
      "motor_id": 0,
      "accel_val": 2000,
      "base_duration_us": 300000
    },
    {
      "id": "M_148",
      "pitch": 55,
      "t_note_us": 43499985,
      "t_trigger_us": 43364022,
      "is_ai": false,
      "track_id": 0,
      "velocity": 0,
      "is_motor": true,
      "motor_id": 0,
      "accel_val": 2000,
      "base_duration_us": 300000
    },
    {
      "id": "M_149",
      "pitch": 60,
      "t_note_us": 43799985,
      "t_trigger_us": 43664022,
      "is_ai": false,
      "track_id": 0,
      "velocity": 0,
      "is_motor": true,
      "motor_id": 1,
      "accel_val": 2000,
      "base_duration_us": 300000
    },
    {
      "id": "M_151",
      "pitch": 62,
      "t_note_us": 44099985,
      "t_trigger_us": 43964022,
      "is_ai": false,
      "track_id": 0,
      "velocity": 0,
      "is_motor": true,
      "motor_id": 1,
      "accel_val": 2000,
      "base_duration_us": 300000
    },
    {
      "id": "M_152",
      "pitch": 88,
      "t_note_us": 44399985,
      "t_trigger_us": 44264022,
      "is_ai": true,
      "track_id": 5,
      "velocity": 0,
      "is_motor": false,
      "motor_id": 0,
      "accel_val": 2000,
      "base_duration_us": 300000
    },
    {
      "id": "M_153",
      "pitch": 60,
      "t_note_us": 44399985,
      "t_trigger_us": 44264022,
      "is_ai": false,
      "track_id": 0,
      "velocity": 0,
      "is_motor": true,
      "motor_id": 1,
      "accel_val": 2000,
      "base_duration_us": 300000
    },
    {
      "id": "M_155",
      "pitch": 79,
      "t_note_us": 44699985,
      "t_trigger_us": 44564022,
      "is_ai": true,
      "track_id": 0,
      "velocity": 0,
      "is_motor": false,
      "motor_id": 0,
      "accel_val": 2000,
      "base_duration_us": 299999
    },
    {
      "id": "M_154",
      "pitch": 55,
      "t_note_us": 44699985,
      "t_trigger_us": 44564022,
      "is_ai": false,
      "track_id": 0,
      "velocity": 0,
      "is_motor": true,
      "motor_id": 0,
      "accel_val": 2000,
      "base_duration_us": 287500
    },
    {
      "id": "M_161",
      "pitch": 79,
      "t_note_us": 44999984,
      "t_trigger_us": 44864021,
      "is_ai": true,
      "track_id": 0,
      "velocity": 0,
      "is_motor": false,
      "motor_id": 0,
      "accel_val": 2000,
      "base_duration_us": 1800000
    },
    {
      "id": "M_156",
      "pitch": 52,
      "t_note_us": 44999984,
      "t_trigger_us": 44864021,
      "is_ai": false,
      "track_id": 0,
      "velocity": 0,
      "is_motor": true,
      "motor_id": 0,
      "accel_val": 2000,
      "base_duration_us": 300000
    },
    {
      "id": "M_157",
      "pitch": 55,
      "t_note_us": 45299984,
      "t_trigger_us": 45164021,
      "is_ai": false,
      "track_id": 0,
      "velocity": 0,
      "is_motor": true,
      "motor_id": 0,
      "accel_val": 2000,
      "base_duration_us": 300000
    },
    {
      "id": "M_158",
      "pitch": 59,
      "t_note_us": 45599984,
      "t_trigger_us": 45464021,
      "is_ai": false,
      "track_id": 0,
      "velocity": 0,
      "is_motor": true,
      "motor_id": 0,
      "accel_val": 2000,
      "base_duration_us": 300000
    },
    {
      "id": "M_159",
      "pitch": 55,
      "t_note_us": 45899984,
      "t_trigger_us": 45764021,
      "is_ai": false,
      "track_id": 0,
      "velocity": 0,
      "is_motor": true,
      "motor_id": 0,
      "accel_val": 2000,
      "base_duration_us": 300000
    },
    {
      "id": "M_160",
      "pitch": 62,
      "t_note_us": 46199984,
      "t_trigger_us": 46064021,
      "is_ai": false,
      "track_id": 0,
      "velocity": 0,
      "is_motor": true,
      "motor_id": 1,
      "accel_val": 2000,
      "base_duration_us": 300000
    },
    {
      "id": "M_162",
      "pitch": 59,
      "t_note_us": 46499984,
      "t_trigger_us": 46364021,
      "is_ai": false,
      "track_id": 0,
      "velocity": 0,
      "is_motor": true,
      "motor_id": 0,
      "accel_val": 2000,
      "base_duration_us": 300000
    },
    {
      "id": "M_163",
      "pitch": 67,
      "t_note_us": 46799984,
      "t_trigger_us": 46664021,
      "is_ai": false,
      "track_id": 0,
      "velocity": 0,
      "is_motor": true,
      "motor_id": 1,
      "accel_val": 2000,
      "base_duration_us": 300000
    },
    {
      "id": "M_164",
      "pitch": 64,
      "t_note_us": 47099984,
      "t_trigger_us": 46964021,
      "is_ai": false,
      "track_id": 0,
      "velocity": 0,
      "is_motor": true,
      "motor_id": 1,
      "accel_val": 2000,
      "base_duration_us": 300000
    },
    {
      "id": "M_165",
      "pitch": 59,
      "t_note_us": 47399984,
      "t_trigger_us": 47264021,
      "is_ai": false,
      "track_id": 0,
      "velocity": 0,
      "is_motor": true,
      "motor_id": 0,
      "accel_val": 2000,
      "base_duration_us": 300000
    },
    {
      "id": "M_166",
      "pitch": 55,
      "t_note_us": 47699984,
      "t_trigger_us": 47564021,
      "is_ai": false,
      "track_id": 0,
      "velocity": 0,
      "is_motor": true,
      "motor_id": 0,
      "accel_val": 2000,
      "base_duration_us": 300000
    },
    {
      "id": "M_168",
      "pitch": 79,
      "t_note_us": 47999984,
      "t_trigger_us": 47864021,
      "is_ai": true,
      "track_id": 0,
      "velocity": 0,
      "is_motor": false,
      "motor_id": 0,
      "accel_val": 2000,
      "base_duration_us": 600000
    },
    {
      "id": "M_167",
      "pitch": 59,
      "t_note_us": 47999984,
      "t_trigger_us": 47864021,
      "is_ai": false,
      "track_id": 0,
      "velocity": 0,
      "is_motor": true,
      "motor_id": 0,
      "accel_val": 2000,
      "base_duration_us": 300000
    },
    {
      "id": "M_169",
      "pitch": 55,
      "t_note_us": 48299984,
      "t_trigger_us": 48164021,
      "is_ai": false,
      "track_id": 0,
      "velocity": 0,
      "is_motor": true,
      "motor_id": 0,
      "accel_val": 2000,
      "base_duration_us": 300000
    },
    {
      "id": "M_171",
      "pitch": 89,
      "t_note_us": 48599984,
      "t_trigger_us": 48464021,
      "is_ai": true,
      "track_id": 6,
      "velocity": 0,
      "is_motor": false,
      "motor_id": 0,
      "accel_val": 2000,
      "base_duration_us": 600000
    },
    {
      "id": "M_170",
      "pitch": 50,
      "t_note_us": 48599984,
      "t_trigger_us": 48464021,
      "is_ai": false,
      "track_id": 0,
      "velocity": 0,
      "is_motor": true,
      "motor_id": 0,
      "accel_val": 2000,
      "base_duration_us": 300000
    },
    {
      "id": "M_172",
      "pitch": 57,
      "t_note_us": 48899984,
      "t_trigger_us": 48764021,
      "is_ai": false,
      "track_id": 0,
      "velocity": 0,
      "is_motor": true,
      "motor_id": 0,
      "accel_val": 2000,
      "base_duration_us": 300000
    },
    {
      "id": "M_174",
      "pitch": 88,
      "t_note_us": 49199984,
      "t_trigger_us": 49064021,
      "is_ai": true,
      "track_id": 5,
      "velocity": 0,
      "is_motor": false,
      "motor_id": 0,
      "accel_val": 2000,
      "base_duration_us": 600000
    },
    {
      "id": "M_173",
      "pitch": 60,
      "t_note_us": 49199984,
      "t_trigger_us": 49064021,
      "is_ai": false,
      "track_id": 0,
      "velocity": 0,
      "is_motor": true,
      "motor_id": 1,
      "accel_val": 2000,
      "base_duration_us": 300000
    },
    {
      "id": "M_175",
      "pitch": 57,
      "t_note_us": 49499984,
      "t_trigger_us": 49364021,
      "is_ai": false,
      "track_id": 0,
      "velocity": 0,
      "is_motor": true,
      "motor_id": 0,
      "accel_val": 2000,
      "base_duration_us": 300000
    },
    {
      "id": "M_177",
      "pitch": 81,
      "t_note_us": 49799984,
      "t_trigger_us": 49664021,
      "is_ai": true,
      "track_id": 1,
      "velocity": 0,
      "is_motor": false,
      "motor_id": 0,
      "accel_val": 2000,
      "base_duration_us": 600000
    },
    {
      "id": "M_176",
      "pitch": 60,
      "t_note_us": 49799984,
      "t_trigger_us": 49664021,
      "is_ai": false,
      "track_id": 0,
      "velocity": 0,
      "is_motor": true,
      "motor_id": 1,
      "accel_val": 2000,
      "base_duration_us": 300000
    },
    {
      "id": "M_178",
      "pitch": 57,
      "t_note_us": 50099984,
      "t_trigger_us": 49964021,
      "is_ai": false,
      "track_id": 0,
      "velocity": 0,
      "is_motor": true,
      "motor_id": 0,
      "accel_val": 2000,
      "base_duration_us": 300000
    },
    {
      "id": "M_182",
      "pitch": 88,
      "t_note_us": 50399984,
      "t_trigger_us": 50264021,
      "is_ai": true,
      "track_id": 5,
      "velocity": 0,
      "is_motor": false,
      "motor_id": 0,
      "accel_val": 2000,
      "base_duration_us": 1200000
    },
    {
      "id": "M_179",
      "pitch": 43,
      "t_note_us": 50399984,
      "t_trigger_us": 50264021,
      "is_ai": false,
      "track_id": 0,
      "velocity": 0,
      "is_motor": true,
      "motor_id": 0,
      "accel_val": 2000,
      "base_duration_us": 300000
    },
    {
      "id": "M_180",
      "pitch": 55,
      "t_note_us": 50699984,
      "t_trigger_us": 50564021,
      "is_ai": false,
      "track_id": 0,
      "velocity": 0,
      "is_motor": true,
      "motor_id": 0,
      "accel_val": 2000,
      "base_duration_us": 300000
    },
    {
      "id": "M_181",
      "pitch": 59,
      "t_note_us": 50999984,
      "t_trigger_us": 50864021,
      "is_ai": false,
      "track_id": 0,
      "velocity": 0,
      "is_motor": true,
      "motor_id": 0,
      "accel_val": 2000,
      "base_duration_us": 300000
    },
    {
      "id": "M_183",
      "pitch": 55,
      "t_note_us": 51299984,
      "t_trigger_us": 51164021,
      "is_ai": false,
      "track_id": 0,
      "velocity": 0,
      "is_motor": true,
      "motor_id": 0,
      "accel_val": 2000,
      "base_duration_us": 300000
    },
    {
      "id": "M_184",
      "pitch": 86,
      "t_note_us": 51599984,
      "t_trigger_us": 51464021,
      "is_ai": true,
      "track_id": 4,
      "velocity": 0,
      "is_motor": false,
      "motor_id": 0,
      "accel_val": 2000,
      "base_duration_us": 300000
    },
    {
      "id": "M_185",
      "pitch": 62,
      "t_note_us": 51599984,
      "t_trigger_us": 51464021,
      "is_ai": false,
      "track_id": 0,
      "velocity": 0,
      "is_motor": true,
      "motor_id": 1,
      "accel_val": 2000,
      "base_duration_us": 300000
    },
    {
      "id": "M_186",
      "pitch": 84,
      "t_note_us": 51899984,
      "t_trigger_us": 51764021,
      "is_ai": true,
      "track_id": 3,
      "velocity": 0,
      "is_motor": false,
      "motor_id": 0,
      "accel_val": 2000,
      "base_duration_us": 300000
    },
    {
      "id": "M_187",
      "pitch": 55,
      "t_note_us": 51899984,
      "t_trigger_us": 51764021,
      "is_ai": false,
      "track_id": 0,
      "velocity": 0,
      "is_motor": true,
      "motor_id": 0,
      "accel_val": 2000,
      "base_duration_us": 300000
    },
    {
      "id": "M_188",
      "pitch": 48,
      "t_note_us": 52199984,
      "t_trigger_us": 52064021,
      "is_ai": false,
      "track_id": 0,
      "velocity": 0,
      "is_motor": true,
      "motor_id": 0,
      "accel_val": 2000,
      "base_duration_us": 300000
    },
    {
      "id": "M_197",
      "pitch": 72,
      "t_note_us": 52199984,
      "t_trigger_us": 52064021,
      "is_ai": false,
      "track_id": 0,
      "velocity": 0,
      "is_motor": true,
      "motor_id": 1,
      "accel_val": 2000,
      "base_duration_us": 3000000
    },
    {
      "id": "M_189",
      "pitch": 55,
      "t_note_us": 52499984,
      "t_trigger_us": 52364021,
      "is_ai": false,
      "track_id": 0,
      "velocity": 0,
      "is_motor": true,
      "motor_id": 0,
      "accel_val": 2000,
      "base_duration_us": 300000
    },
    {
      "id": "M_190",
      "pitch": 60,
      "t_note_us": 52799984,
      "t_trigger_us": 52664021,
      "is_ai": false,
      "track_id": 0,
      "velocity": 0,
      "is_motor": true,
      "motor_id": 0,
      "accel_val": 2000,
      "base_duration_us": 300000
    },
    {
      "id": "M_191",
      "pitch": 62,
      "t_note_us": 53099984,
      "t_trigger_us": 52964021,
      "is_ai": false,
      "track_id": 0,
      "velocity": 0,
      "is_motor": true,
      "motor_id": 0,
      "accel_val": 2000,
      "base_duration_us": 300000
    },
    {
      "id": "M_192",
      "pitch": 64,
      "t_note_us": 53399984,
      "t_trigger_us": 53264021,
      "is_ai": false,
      "track_id": 0,
      "velocity": 0,
      "is_motor": true,
      "motor_id": 0,
      "accel_val": 2000,
      "base_duration_us": 300000
    },
    {
      "id": "M_193",
      "pitch": 55,
      "t_note_us": 53699984,
      "t_trigger_us": 53564021,
      "is_ai": false,
      "track_id": 0,
      "velocity": 0,
      "is_motor": true,
      "motor_id": 0,
      "accel_val": 2000,
      "base_duration_us": 300000
    },
    {
      "id": "M_194",
      "pitch": 60,
      "t_note_us": 53999984,
      "t_trigger_us": 53864021,
      "is_ai": false,
      "track_id": 0,
      "velocity": 0,
      "is_motor": true,
      "motor_id": 0,
      "accel_val": 2000,
      "base_duration_us": 300000
    },
    {
      "id": "M_195",
      "pitch": 55,
      "t_note_us": 54299984,
      "t_trigger_us": 54164021,
      "is_ai": false,
      "track_id": 0,
      "velocity": 0,
      "is_motor": true,
      "motor_id": 0,
      "accel_val": 2000,
      "base_duration_us": 300000
    },
    {
      "id": "M_196",
      "pitch": 62,
      "t_note_us": 54599984,
      "t_trigger_us": 54464021,
      "is_ai": false,
      "track_id": 0,
      "velocity": 0,
      "is_motor": true,
      "motor_id": 0,
      "accel_val": 2000,
      "base_duration_us": 300000
    },
    {
      "id": "M_198",
      "pitch": 55,
      "t_note_us": 54899984,
      "t_trigger_us": 54764021,
      "is_ai": false,
      "track_id": 0,
      "velocity": 0,
      "is_motor": true,
      "motor_id": 0,
      "accel_val": 2000,
      "base_duration_us": 300000
    },
    {
      "id": "M_200",
      "pitch": 79,
      "t_note_us": 55199984,
      "t_trigger_us": 55064021,
      "is_ai": true,
      "track_id": 0,
      "velocity": 0,
      "is_motor": false,
      "motor_id": 0,
      "accel_val": 2000,
      "base_duration_us": 600000
    },
    {
      "id": "M_199",
      "pitch": 64,
      "t_note_us": 55199984,
      "t_trigger_us": 55064021,
      "is_ai": false,
      "track_id": 0,
      "velocity": 0,
      "is_motor": true,
      "motor_id": 1,
      "accel_val": 2000,
      "base_duration_us": 300000
    },
    {
      "id": "M_201",
      "pitch": 55,
      "t_note_us": 55499984,
      "t_trigger_us": 55364021,
      "is_ai": false,
      "track_id": 0,
      "velocity": 0,
      "is_motor": true,
      "motor_id": 0,
      "accel_val": 2000,
      "base_duration_us": 300000
    },
    {
      "id": "M_204",
      "pitch": 81,
      "t_note_us": 56159358,
      "t_trigger_us": 56023395,
      "is_ai": true,
      "track_id": 1,
      "velocity": 0,
      "is_motor": false,
      "motor_id": 0,
      "accel_val": 2000,
      "base_duration_us": 1660934
    },
    {
      "id": "M_208",
      "pitch": 53,
      "t_note_us": 56190607,
      "t_trigger_us": 56054644,
      "is_ai": false,
      "track_id": 0,
      "velocity": 0,
      "is_motor": true,
      "motor_id": 0,
      "accel_val": 2000,
      "base_duration_us": 1629685
    },
    {
      "id": "M_203",
      "pitch": 65,
      "t_note_us": 56734356,
      "t_trigger_us": 56598393,
      "is_ai": false,
      "track_id": 0,
      "velocity": 0,
      "is_motor": true,
      "motor_id": 1,
      "accel_val": 2000,
      "base_duration_us": 1085936
    },
    {
      "id": "M_202",
      "pitch": 60,
      "t_note_us": 56989043,
      "t_trigger_us": 56853080,
      "is_ai": false,
      "track_id": 0,
      "velocity": 0,
      "is_motor": true,
      "motor_id": 2,
      "accel_val": 2000,
      "base_duration_us": 0
    },
    {
      "id": "M_206",
      "pitch": 64,
      "t_note_us": 57278105,
      "t_trigger_us": 57142142,
      "is_ai": false,
      "track_id": 0,
      "velocity": 0,
      "is_motor": true,
      "motor_id": 2,
      "accel_val": 2000,
      "base_duration_us": 542187
    },
    {
      "id": "M_207",
      "pitch": 60,
      "t_note_us": 57532792,
      "t_trigger_us": 57396829,
      "is_ai": false,
      "track_id": 0,
      "velocity": 0,
      "is_motor": true,
      "motor_id": 3,
      "accel_val": 2000,
      "base_duration_us": 287500
    },
    {
      "id": "M_205",
      "pitch": 84,
      "t_note_us": 57820292,
      "t_trigger_us": 57684329,
      "is_ai": true,
      "track_id": 3,
      "velocity": 0,
      "is_motor": false,
      "motor_id": 0,
      "accel_val": 2000,
      "base_duration_us": 0
    },
    {
      "id": "M_212",
      "pitch": 62,
      "t_note_us": 57820292,
      "t_trigger_us": 57684329,
      "is_ai": false,
      "track_id": 0,
      "velocity": 0,
      "is_motor": true,
      "motor_id": 1,
      "accel_val": 2000,
      "base_duration_us": 1629685
    },
    {
      "id": "M_213",
      "pitch": 83,
      "t_note_us": 58364041,
      "t_trigger_us": 58228078,
      "is_ai": true,
      "track_id": 2,
      "velocity": 0,
      "is_motor": false,
      "motor_id": 0,
      "accel_val": 2000,
      "base_duration_us": 1085936
    },
    {
      "id": "M_209",
      "pitch": 60,
      "t_note_us": 58618728,
      "t_trigger_us": 58482765,
      "is_ai": false,
      "track_id": 0,
      "velocity": 0,
      "is_motor": true,
      "motor_id": 0,
      "accel_val": 2000,
      "base_duration_us": 0
    },
    {
      "id": "M_211",
      "pitch": 84,
      "t_note_us": 58906228,
      "t_trigger_us": 58770265,
      "is_ai": true,
      "track_id": 3,
      "velocity": 0,
      "is_motor": false,
      "motor_id": 0,
      "accel_val": 2000,
      "base_duration_us": 543749
    },
    {
      "id": "M_210",
      "pitch": 67,
      "t_note_us": 58906228,
      "t_trigger_us": 58770265,
      "is_ai": false,
      "track_id": 0,
      "velocity": 0,
      "is_motor": true,
      "motor_id": 2,
      "accel_val": 2000,
      "base_duration_us": 0
    },
    {
      "id": "M_214",
      "pitch": 60,
      "t_note_us": 59162477,
      "t_trigger_us": 59026514,
      "is_ai": false,
      "track_id": 0,
      "velocity": 0,
      "is_motor": true,
      "motor_id": 0,
      "accel_val": 2000,
      "base_duration_us": 287500
    },
    {
      "id": "M_217",
      "pitch": 79,
      "t_note_us": 59449977,
      "t_trigger_us": 59314014,
      "is_ai": true,
      "track_id": 0,
      "velocity": 0,
      "is_motor": false,
      "motor_id": 0,
      "accel_val": 2000,
      "base_duration_us": 1629684
    },
    {
      "id": "M_218",
      "pitch": 52,
      "t_note_us": 59449977,
      "t_trigger_us": 59314014,
      "is_ai": false,
      "track_id": 0,
      "velocity": 0,
      "is_motor": true,
      "motor_id": 0,
      "accel_val": 2000,
      "base_duration_us": 1629684
    },
    {
      "id": "M_219",
      "pitch": 62,
      "t_note_us": 59993726,
      "t_trigger_us": 59857763,
      "is_ai": false,
      "track_id": 0,
      "velocity": 0,
      "is_motor": true,
      "motor_id": 1,
      "accel_val": 2000,
      "base_duration_us": 1085935
    },
    {
      "id": "M_215",
      "pitch": 60,
      "t_note_us": 60249975,
      "t_trigger_us": 60114012,
      "is_ai": false,
      "track_id": 0,
      "velocity": 0,
      "is_motor": true,
      "motor_id": 2,
      "accel_val": 2000,
      "base_duration_us": 0
    },
    {
      "id": "M_216",
      "pitch": 59,
      "t_note_us": 60535912,
      "t_trigger_us": 60399949,
      "is_ai": false,
      "track_id": 0,
      "velocity": 0,
      "is_motor": true,
      "motor_id": 2,
      "accel_val": 2000,
      "base_duration_us": 543749
    },
    {
      "id": "M_220",
      "pitch": 60,
      "t_note_us": 60823412,
      "t_trigger_us": 60687449,
      "is_ai": false,
      "track_id": 0,
      "velocity": 0,
      "is_motor": true,
      "motor_id": 3,
      "accel_val": 2000,
      "base_duration_us": 256249
    },
    {
      "id": "M_226",
      "pitch": 52,
      "t_note_us": 61079661,
      "t_trigger_us": 60943698,
      "is_ai": false,
      "track_id": 0,
      "velocity": 0,
      "is_motor": true,
      "motor_id": 0,
      "accel_val": 2000,
      "base_duration_us": 1629684
    },
    {
      "id": "M_222",
      "pitch": 67,
      "t_note_us": 61367161,
      "t_trigger_us": 61231198,
      "is_ai": false,
      "track_id": 0,
      "velocity": 0,
      "is_motor": true,
      "motor_id": 1,
      "accel_val": 2000,
      "base_duration_us": 543749
    },
    {
      "id": "M_223",
      "pitch": 60,
      "t_note_us": 61367161,
      "t_trigger_us": 61231198,
      "is_ai": false,
      "track_id": 0,
      "velocity": 0,
      "is_motor": true,
      "motor_id": 2,
      "accel_val": 2000,
      "base_duration_us": 543749
    },
    {
      "id": "M_221",
      "pitch": 84,
      "t_note_us": 61621848,
      "t_trigger_us": 61485885,
      "is_ai": true,
      "track_id": 3,
      "velocity": 0,
      "is_motor": false,
      "motor_id": 0,
      "accel_val": 2000,
      "base_duration_us": 0
    },
    {
      "id": "M_225",
      "pitch": 62,
      "t_note_us": 61621848,
      "t_trigger_us": 61485885,
      "is_ai": false,
      "track_id": 0,
      "velocity": 0,
      "is_motor": true,
      "motor_id": 3,
      "accel_val": 2000,
      "base_duration_us": 1087497
    },
    {
      "id": "M_230",
      "pitch": 67,
      "t_note_us": 61910910,
      "t_trigger_us": 61774947,
      "is_ai": false,
      "track_id": 0,
      "velocity": 0,
      "is_motor": true,
      "motor_id": 1,
      "accel_val": 2000,
      "base_duration_us": 798435
    },
    {
      "id": "M_227",
      "pitch": 84,
      "t_note_us": 62167159,
      "t_trigger_us": 62031196,
      "is_ai": true,
      "track_id": 3,
      "velocity": 0,
      "is_motor": false,
      "motor_id": 0,
      "accel_val": 2000,
      "base_duration_us": 542186
    },
    {
      "id": "M_228",
      "pitch": 59,
      "t_note_us": 62167159,
      "t_trigger_us": 62031196,
      "is_ai": false,
      "track_id": 0,
      "velocity": 0,
      "is_motor": true,
      "motor_id": 2,
      "accel_val": 2000,
      "base_duration_us": 542186
    },
    {
      "id": "M_224",
      "pitch": 60,
      "t_note_us": 62453096,
      "t_trigger_us": 62317133,
      "is_ai": false,
      "track_id": 0,
      "velocity": 0,
      "is_motor": true,
      "motor_id": 0,
      "accel_val": 2000,
      "base_duration_us": 0
    },
    {
      "id": "M_229",
      "pitch": 79,
      "t_note_us": 62709345,
      "t_trigger_us": 62573382,
      "is_ai": true,
      "track_id": 0,
      "velocity": 0,
      "is_motor": false,
      "motor_id": 0,
      "accel_val": 2000,
      "base_duration_us": 0
    },
    {
      "id": "M_235",
      "pitch": 50,
      "t_note_us": 62709345,
      "t_trigger_us": 62573382,
      "is_ai": false,
      "track_id": 0,
      "velocity": 0,
      "is_motor": true,
      "motor_id": 0,
      "accel_val": 2000,
      "base_duration_us": 1629682
    },
    {
      "id": "M_237",
      "pitch": 89,
      "t_note_us": 63253094,
      "t_trigger_us": 63117131,
      "is_ai": true,
      "track_id": 6,
      "velocity": 0,
      "is_motor": false,
      "motor_id": 0,
      "accel_val": 2000,
      "base_duration_us": 1085933
    },
    {
      "id": "M_238",
      "pitch": 89,
      "t_note_us": 63253094,
      "t_trigger_us": 63117131,
      "is_ai": true,
      "track_id": 6,
      "velocity": 0,
      "is_motor": false,
      "motor_id": 0,
      "accel_val": 2000,
      "base_duration_us": 1085933
    },
    {
      "id": "M_233",
      "pitch": 65,
      "t_note_us": 63284343,
      "t_trigger_us": 63148380,
      "is_ai": false,
      "track_id": 0,
      "velocity": 0,
      "is_motor": true,
      "motor_id": 1,
      "accel_val": 2000,
      "base_duration_us": 1054684
    },
    {
      "id": "M_231",
      "pitch": 57,
      "t_note_us": 63539030,
      "t_trigger_us": 63403067,
      "is_ai": false,
      "track_id": 0,
      "velocity": 0,
      "is_motor": true,
      "motor_id": 2,
      "accel_val": 2000,
      "base_duration_us": 0
    },
    {
      "id": "M_234",
      "pitch": 88,
      "t_note_us": 63795279,
      "t_trigger_us": 63659316,
      "is_ai": true,
      "track_id": 5,
      "velocity": 0,
      "is_motor": false,
      "motor_id": 0,
      "accel_val": 2000,
      "base_duration_us": 543748
    },
    {
      "id": "M_236",
      "pitch": 60,
      "t_note_us": 63828091,
      "t_trigger_us": 63692128,
      "is_ai": false,
      "track_id": 0,
      "velocity": 0,
      "is_motor": true,
      "motor_id": 2,
      "accel_val": 2000,
      "base_duration_us": 510936
    },
    {
      "id": "M_232",
      "pitch": 57,
      "t_note_us": 64084340,
      "t_trigger_us": 63948377,
      "is_ai": false,
      "track_id": 0,
      "velocity": 0,
      "is_motor": true,
      "motor_id": 3,
      "accel_val": 2000,
      "base_duration_us": 0
    },
    {
      "id": "M_244",
      "pitch": 86,
      "t_note_us": 64339027,
      "t_trigger_us": 64203064,
      "is_ai": true,
      "track_id": 4,
      "velocity": 0,
      "is_motor": false,
      "motor_id": 0,
      "accel_val": 2000,
      "base_duration_us": 1629682
    },
    {
      "id": "M_243",
      "pitch": 57,
      "t_note_us": 64626527,
      "t_trigger_us": 64490564,
      "is_ai": false,
      "track_id": 0,
      "velocity": 0,
      "is_motor": true,
      "motor_id": 0,
      "accel_val": 2000,
      "base_duration_us": 1342182
    },
    {
      "id": "M_245",
      "pitch": 88,
      "t_note_us": 64882776,
      "t_trigger_us": 64746813,
      "is_ai": true,
      "track_id": 5,
      "velocity": 0,
      "is_motor": false,
      "motor_id": 0,
      "accel_val": 2000,
      "base_duration_us": 1085933
    },
    {
      "id": "M_239",
      "pitch": 55,
      "t_note_us": 65170274,
      "t_trigger_us": 65034311,
      "is_ai": false,
      "track_id": 0,
      "velocity": 0,
      "is_motor": true,
      "motor_id": 1,
      "accel_val": 2000,
      "base_duration_us": 0
    },
    {
      "id": "M_241",
      "pitch": 89,
      "t_note_us": 65426523,
      "t_trigger_us": 65290560,
      "is_ai": true,
      "track_id": 6,
      "velocity": 0,
      "is_motor": false,
      "motor_id": 0,
      "accel_val": 2000,
      "base_duration_us": 542186
    },
    {
      "id": "M_246",
      "pitch": 89,
      "t_note_us": 65426523,
      "t_trigger_us": 65290560,
      "is_ai": true,
      "track_id": 6,
      "velocity": 0,
      "is_motor": false,
      "motor_id": 0,
      "accel_val": 2000,
      "base_duration_us": 574998
    },
    {
      "id": "M_242",
      "pitch": 62,
      "t_note_us": 65426523,
      "t_trigger_us": 65290560,
      "is_ai": false,
      "track_id": 0,
      "velocity": 0,
      "is_motor": true,
      "motor_id": 1,
      "accel_val": 2000,
      "base_duration_us": 542186
    },
    {
      "id": "M_240",
      "pitch": 59,
      "t_note_us": 65712460,
      "t_trigger_us": 65576497,
      "is_ai": false,
      "track_id": 0,
      "velocity": 0,
      "is_motor": true,
      "motor_id": 2,
      "accel_val": 2000,
      "base_duration_us": 0
    },
    {
      "id": "M_254",
      "pitch": 79,
      "t_note_us": 65968709,
      "t_trigger_us": 65832746,
      "is_ai": true,
      "track_id": 0,
      "velocity": 0,
      "is_motor": false,
      "motor_id": 0,
      "accel_val": 2000,
      "base_duration_us": 1660933
    },
    {
      "id": "M_252",
      "pitch": 52,
      "t_note_us": 65968709,
      "t_trigger_us": 65832746,
      "is_ai": false,
      "track_id": 0,
      "velocity": 0,
      "is_motor": true,
      "motor_id": 0,
      "accel_val": 2000,
      "base_duration_us": 1629684
    },
    {
      "id": "M_247",
      "pitch": 59,
      "t_note_us": 66256208,
      "t_trigger_us": 66120245,
      "is_ai": false,
      "track_id": 0,
      "velocity": 0,
      "is_motor": true,
      "motor_id": 1,
      "accel_val": 2000,
      "base_duration_us": 543749
    },
    {
      "id": "M_250",
      "pitch": 84,
      "t_note_us": 66543708,
      "t_trigger_us": 66407745,
      "is_ai": true,
      "track_id": 3,
      "velocity": 0,
      "is_motor": false,
      "motor_id": 0,
      "accel_val": 2000,
      "base_duration_us": 1054685
    },
    {
      "id": "M_251",
      "pitch": 64,
      "t_note_us": 66543708,
      "t_trigger_us": 66407745,
      "is_ai": false,
      "track_id": 0,
      "velocity": 0,
      "is_motor": true,
      "motor_id": 2,
      "accel_val": 2000,
      "base_duration_us": 1054685
    },
    {
      "id": "M_248",
      "pitch": 59,
      "t_note_us": 66799957,
      "t_trigger_us": 66663994,
      "is_ai": false,
      "track_id": 0,
      "velocity": 0,
      "is_motor": true,
      "motor_id": 1,
      "accel_val": 2000,
      "base_duration_us": 543749
    },
    {
      "id": "M_255",
      "pitch": 86,
      "t_note_us": 67087457,
      "t_trigger_us": 66951494,
      "is_ai": true,
      "track_id": 4,
      "velocity": 0,
      "is_motor": false,
      "motor_id": 0,
      "accel_val": 2000,
      "base_duration_us": 542185
    },
    {
      "id": "M_253",
      "pitch": 62,
      "t_note_us": 67087457,
      "t_trigger_us": 66951494,
      "is_ai": false,
      "track_id": 0,
      "velocity": 0,
      "is_motor": true,
      "motor_id": 3,
      "accel_val": 2000,
      "base_duration_us": 510936
    },
    {
      "id": "M_249",
      "pitch": 59,
      "t_note_us": 67343706,
      "t_trigger_us": 67207743,
      "is_ai": false,
      "track_id": 0,
      "velocity": 0,
      "is_motor": true,
      "motor_id": 1,
      "accel_val": 2000,
      "base_duration_us": 254687
    },
    {
      "id": "M_261",
      "pitch": 88,
      "t_note_us": 67629642,
      "t_trigger_us": 67493679,
      "is_ai": true,
      "track_id": 5,
      "velocity": 0,
      "is_motor": false,
      "motor_id": 0,
      "accel_val": 2000,
      "base_duration_us": 1631245
    },
    {
      "id": "M_262",
      "pitch": 48,
      "t_note_us": 67629642,
      "t_trigger_us": 67493679,
      "is_ai": false,
      "track_id": 0,
      "velocity": 0,
      "is_motor": true,
      "motor_id": 0,
      "accel_val": 2000,
      "base_duration_us": 1631245
    },
    {
      "id": "M_256",
      "pitch": 58,
      "t_note_us": 67885891,
      "t_trigger_us": 67749928,
      "is_ai": false,
      "track_id": 0,
      "velocity": 0,
      "is_motor": true,
      "motor_id": 1,
      "accel_val": 2000,
      "base_duration_us": 543749
    },
    {
      "id": "M_263",
      "pitch": 89,
      "t_note_us": 68173391,
      "t_trigger_us": 68037428,
      "is_ai": true,
      "track_id": 6,
      "velocity": 0,
      "is_motor": false,
      "motor_id": 0,
      "accel_val": 2000,
      "base_duration_us": 1087496
    },
    {
      "id": "M_264",
      "pitch": 62,
      "t_note_us": 68173391,
      "t_trigger_us": 68037428,
      "is_ai": false,
      "track_id": 0,
      "velocity": 0,
      "is_motor": true,
      "motor_id": 2,
      "accel_val": 2000,
      "base_duration_us": 1087496
    },
    {
      "id": "M_258",
      "pitch": 79,
      "t_note_us": 68684327,
      "t_trigger_us": 68548364,
      "is_ai": true,
      "track_id": 0,
      "velocity": 0,
      "is_motor": false,
      "motor_id": 0,
      "accel_val": 2000,
      "base_duration_us": 576560
    },
    {
      "id": "M_259",
      "pitch": 91,
      "t_note_us": 68717139,
      "t_trigger_us": 68581176,
      "is_ai": true,
      "track_id": 7,
      "velocity": 0,
      "is_motor": false,
      "motor_id": 0,
      "accel_val": 2000,
      "base_duration_us": 543748
    },
    {
      "id": "M_260",
      "pitch": 64,
      "t_note_us": 68717139,
      "t_trigger_us": 68581176,
      "is_ai": false,
      "track_id": 0,
      "velocity": 0,
      "is_motor": true,
      "motor_id": 1,
      "accel_val": 2000,
      "base_duration_us": 543748
    },
    {
      "id": "M_257",
      "pitch": 58,
      "t_note_us": 68971826,
      "t_trigger_us": 68835863,
      "is_ai": false,
      "track_id": 0,
      "velocity": 0,
      "is_motor": true,
      "motor_id": 3,
      "accel_val": 2000,
      "base_duration_us": 0
    },
    {
      "id": "M_265",
      "pitch": 60,
      "t_note_us": 69515574,
      "t_trigger_us": 69379611,
      "is_ai": false,
      "track_id": 0,
      "velocity": 0,
      "is_motor": true,
      "motor_id": 1,
      "accel_val": 2000,
      "base_duration_us": 543749
    },
    {
      "id": "M_267",
      "pitch": 62,
      "t_note_us": 69803074,
      "t_trigger_us": 69667111,
      "is_ai": false,
      "track_id": 0,
      "velocity": 0,
      "is_motor": true,
      "motor_id": 0,
      "accel_val": 2000,
      "base_duration_us": 1085936
    },
    {
      "id": "M_275",
      "pitch": 84,
      "t_note_us": 70346823,
      "t_trigger_us": 70210860,
      "is_ai": true,
      "track_id": 3,
      "velocity": 0,
      "is_motor": false,
      "motor_id": 0,
      "accel_val": 2000,
      "base_duration_us": 2171870
    },
    {
      "id": "M_269",
      "pitch": 64,
      "t_note_us": 70346823,
      "t_trigger_us": 70210860,
      "is_ai": false,
      "track_id": 0,
      "velocity": 0,
      "is_motor": true,
      "motor_id": 1,
      "accel_val": 2000,
      "base_duration_us": 542187
    },
    {
      "id": "M_266",
      "pitch": 60,
      "t_note_us": 70601510,
      "t_trigger_us": 70465547,
      "is_ai": false,
      "track_id": 0,
      "velocity": 0,
      "is_motor": true,
      "motor_id": 2,
      "accel_val": 2000,
      "base_duration_us": 0
    },
    {
      "id": "M_268",
      "pitch": 81,
      "t_note_us": 70889010,
      "t_trigger_us": 70753047,
      "is_ai": true,
      "track_id": 1,
      "velocity": 0,
      "is_motor": false,
      "motor_id": 0,
      "accel_val": 2000,
      "base_duration_us": 0
    },
    {
      "id": "M_270",
      "pitch": 53,
      "t_note_us": 70889010,
      "t_trigger_us": 70753047,
      "is_ai": false,
      "track_id": 0,
      "velocity": 0,
      "is_motor": true,
      "motor_id": 0,
      "accel_val": 2000,
      "base_duration_us": 0
    },
    {
      "id": "M_274",
      "pitch": 83,
      "t_note_us": 71432759,
      "t_trigger_us": 71296796,
      "is_ai": true,
      "track_id": 2,
      "velocity": 0,
      "is_motor": false,
      "motor_id": 0,
      "accel_val": 2000,
      "base_duration_us": 1085934
    },
    {
      "id": "M_272",
      "pitch": 61,
      "t_note_us": 71432759,
      "t_trigger_us": 71296796,
      "is_ai": false,
      "track_id": 0,
      "velocity": 0,
      "is_motor": true,
      "motor_id": 1,
      "accel_val": 2000,
      "base_duration_us": 574998
    },
    {
      "id": "M_271",
      "pitch": 59,
      "t_note_us": 71687446,
      "t_trigger_us": 71551483,
      "is_ai": false,
      "track_id": 0,
      "velocity": 0,
      "is_motor": true,
      "motor_id": 0,
      "accel_val": 2000,
      "base_duration_us": 0
    },
    {
      "id": "M_276",
      "pitch": 81,
      "t_note_us": 71976508,
      "t_trigger_us": 71840545,
      "is_ai": true,
      "track_id": 1,
      "velocity": 0,
      "is_motor": false,
      "motor_id": 0,
      "accel_val": 2000,
      "base_duration_us": 542185
    },
    {
      "id": "M_277",
      "pitch": 62,
      "t_note_us": 71976508,
      "t_trigger_us": 71840545,
      "is_ai": false,
      "track_id": 0,
      "velocity": 0,
      "is_motor": true,
      "motor_id": 0,
      "accel_val": 2000,
      "base_duration_us": 542185
    },
    {
      "id": "M_273",
      "pitch": 59,
      "t_note_us": 72232756,
      "t_trigger_us": 72096793,
      "is_ai": false,
      "track_id": 0,
      "velocity": 0,
      "is_motor": true,
      "motor_id": 1,
      "accel_val": 2000,
      "base_duration_us": 0
    },
    {
      "id": "M_281",
      "pitch": 79,
      "t_note_us": 72518693,
      "t_trigger_us": 72382730,
      "is_ai": true,
      "track_id": 0,
      "velocity": 0,
      "is_motor": false,
      "motor_id": 0,
      "accel_val": 2000,
      "base_duration_us": 1631247
    },
    {
      "id": "M_282",
      "pitch": 52,
      "t_note_us": 72518693,
      "t_trigger_us": 72382730,
      "is_ai": false,
      "track_id": 0,
      "velocity": 0,
      "is_motor": true,
      "motor_id": 0,
      "accel_val": 2000,
      "base_duration_us": 1631247
    },
    {
      "id": "M_283",
      "pitch": 83,
      "t_note_us": 73062442,
      "t_trigger_us": 72926479,
      "is_ai": true,
      "track_id": 2,
      "velocity": 0,
      "is_motor": false,
      "motor_id": 0,
      "accel_val": 2000,
      "base_duration_us": 1087498
    },
    {
      "id": "M_284",
      "pitch": 62,
      "t_note_us": 73062442,
      "t_trigger_us": 72926479,
      "is_ai": false,
      "track_id": 0,
      "velocity": 0,
      "is_motor": true,
      "motor_id": 1,
      "accel_val": 2000,
      "base_duration_us": 1087498
    },
    {
      "id": "M_279",
      "pitch": 60,
      "t_note_us": 73349942,
      "t_trigger_us": 73213979,
      "is_ai": false,
      "track_id": 0,
      "velocity": 0,
      "is_motor": true,
      "motor_id": 2,
      "accel_val": 2000,
      "base_duration_us": 543749
    },
    {
      "id": "M_280",
      "pitch": 84,
      "t_note_us": 73604629,
      "t_trigger_us": 73468666,
      "is_ai": true,
      "track_id": 3,
      "velocity": 0,
      "is_motor": false,
      "motor_id": 0,
      "accel_val": 2000,
      "base_duration_us": 545311
    },
    {
      "id": "M_278",
      "pitch": 59,
      "t_note_us": 73604629,
      "t_trigger_us": 73468666,
      "is_ai": false,
      "track_id": 0,
      "velocity": 0,
      "is_motor": true,
      "motor_id": 3,
      "accel_val": 2000,
      "base_duration_us": 0
    },
    {
      "id": "M_285",
      "pitch": 60,
      "t_note_us": 73893691,
      "t_trigger_us": 73757728,
      "is_ai": false,
      "track_id": 0,
      "velocity": 0,
      "is_motor": true,
      "motor_id": 2,
      "accel_val": 2000,
      "base_duration_us": 256249
    },
    {
      "id": "M_291",
      "pitch": 79,
      "t_note_us": 74149940,
      "t_trigger_us": 74013977,
      "is_ai": true,
      "track_id": 0,
      "velocity": 0,
      "is_motor": false,
      "motor_id": 0,
      "accel_val": 2000,
      "base_duration_us": 1628121
    },
    {
      "id": "M_292",
      "pitch": 57,
      "t_note_us": 74149940,
      "t_trigger_us": 74013977,
      "is_ai": false,
      "track_id": 0,
      "velocity": 0,
      "is_motor": true,
      "motor_id": 0,
      "accel_val": 2000,
      "base_duration_us": 1628121
    },
    {
      "id": "M_286",
      "pitch": 60,
      "t_note_us": 74435877,
      "t_trigger_us": 74299914,
      "is_ai": false,
      "track_id": 0,
      "velocity": 0,
      "is_motor": true,
      "motor_id": 1,
      "accel_val": 2000,
      "base_duration_us": 543749
    },
    {
      "id": "M_288",
      "pitch": 64,
      "t_note_us": 74692126,
      "t_trigger_us": 74556163,
      "is_ai": false,
      "track_id": 0,
      "velocity": 0,
      "is_motor": true,
      "motor_id": 2,
      "accel_val": 2000,
      "base_duration_us": 1085935
    },
    {
      "id": "M_289",
      "pitch": 81,
      "t_note_us": 75235875,
      "t_trigger_us": 75099912,
      "is_ai": true,
      "track_id": 1,
      "velocity": 0,
      "is_motor": false,
      "motor_id": 0,
      "accel_val": 2000,
      "base_duration_us": 542186
    },
    {
      "id": "M_290",
      "pitch": 59,
      "t_note_us": 75235875,
      "t_trigger_us": 75099912,
      "is_ai": false,
      "track_id": 0,
      "velocity": 0,
      "is_motor": true,
      "motor_id": 1,
      "accel_val": 2000,
      "base_duration_us": 542186
    },
    {
      "id": "M_287",
      "pitch": 60,
      "t_note_us": 75521812,
      "t_trigger_us": 75385849,
      "is_ai": false,
      "track_id": 0,
      "velocity": 0,
      "is_motor": true,
      "motor_id": 3,
      "accel_val": 2000,
      "base_duration_us": 0
    },
    {
      "id": "M_296",
      "pitch": 89,
      "t_note_us": 75778061,
      "t_trigger_us": 75642098,
      "is_ai": true,
      "track_id": 6,
      "velocity": 0,
      "is_motor": false,
      "motor_id": 0,
      "accel_val": 2000,
      "base_duration_us": 1631245
    },
    {
      "id": "M_297",
      "pitch": 89,
      "t_note_us": 75778061,
      "t_trigger_us": 75642098,
      "is_ai": true,
      "track_id": 6,
      "velocity": 0,
      "is_motor": false,
      "motor_id": 0,
      "accel_val": 2000,
      "base_duration_us": 1631245
    },
    {
      "id": "M_298",
      "pitch": 50,
      "t_note_us": 75778061,
      "t_trigger_us": 75642098,
      "is_ai": false,
      "track_id": 0,
      "velocity": 0,
      "is_motor": true,
      "motor_id": 0,
      "accel_val": 2000,
      "base_duration_us": 1631245
    },
    {
      "id": "M_299",
      "pitch": 79,
      "t_note_us": 76321810,
      "t_trigger_us": 76185847,
      "is_ai": true,
      "track_id": 0,
      "velocity": 0,
      "is_motor": false,
      "motor_id": 0,
      "accel_val": 2000,
      "base_duration_us": 1087496
    },
    {
      "id": "M_295",
      "pitch": 64,
      "t_note_us": 76353059,
      "t_trigger_us": 76217096,
      "is_ai": false,
      "track_id": 0,
      "velocity": 0,
      "is_motor": true,
      "motor_id": 1,
      "accel_val": 2000,
      "base_duration_us": 1056247
    },
    {
      "id": "M_293",
      "pitch": 57,
      "t_note_us": 76609308,
      "t_trigger_us": 76473345,
      "is_ai": false,
      "track_id": 0,
      "velocity": 0,
      "is_motor": true,
      "motor_id": 2,
      "accel_val": 2000,
      "base_duration_us": 0
    },
    {
      "id": "M_300",
      "pitch": 81,
      "t_note_us": 76865557,
      "t_trigger_us": 76729594,
      "is_ai": true,
      "track_id": 1,
      "velocity": 0,
      "is_motor": false,
      "motor_id": 0,
      "accel_val": 2000,
      "base_duration_us": 543749
    },
    {
      "id": "M_301",
      "pitch": 62,
      "t_note_us": 76865557,
      "t_trigger_us": 76729594,
      "is_ai": false,
      "track_id": 0,
      "velocity": 0,
      "is_motor": true,
      "motor_id": 2,
      "accel_val": 2000,
      "base_duration_us": 543749
    },
    {
      "id": "M_294",
      "pitch": 57,
      "t_note_us": 77153057,
      "t_trigger_us": 77017094,
      "is_ai": false,
      "track_id": 0,
      "velocity": 0,
      "is_motor": true,
      "motor_id": 3,
      "accel_val": 2000,
      "base_duration_us": 256249
    },
    {
      "id": "M_307",
      "pitch": 81,
      "t_note_us": 77409306,
      "t_trigger_us": 77273343,
      "is_ai": true,
      "track_id": 1,
      "velocity": 0,
      "is_motor": false,
      "motor_id": 0,
      "accel_val": 2000,
      "base_duration_us": 1628118
    },
    {
      "id": "M_308",
      "pitch": 61,
      "t_note_us": 77438993,
      "t_trigger_us": 77303030,
      "is_ai": false,
      "track_id": 0,
      "velocity": 0,
      "is_motor": true,
      "motor_id": 1,
      "accel_val": 2000,
      "base_duration_us": 1598431
    },
    {
      "id": "M_302",
      "pitch": 57,
      "t_note_us": 77695242,
      "t_trigger_us": 77559279,
      "is_ai": false,
      "track_id": 0,
      "velocity": 0,
      "is_motor": true,
      "motor_id": 0,
      "accel_val": 2000,
      "base_duration_us": 543748
    },
    {
      "id": "M_305",
      "pitch": 79,
      "t_note_us": 77951491,
      "t_trigger_us": 77815528,
      "is_ai": true,
      "track_id": 0,
      "velocity": 0,
      "is_motor": false,
      "motor_id": 0,
      "accel_val": 2000,
      "base_duration_us": 1085933
    },
    {
      "id": "M_310",
      "pitch": 62,
      "t_note_us": 77984303,
      "t_trigger_us": 77848340,
      "is_ai": false,
      "track_id": 0,
      "velocity": 0,
      "is_motor": true,
      "motor_id": 2,
      "accel_val": 2000,
      "base_duration_us": 1053121
    },
    {
      "id": "M_303",
      "pitch": 57,
      "t_note_us": 78238990,
      "t_trigger_us": 78103027,
      "is_ai": false,
      "track_id": 0,
      "velocity": 0,
      "is_motor": true,
      "motor_id": 0,
      "accel_val": 2000,
      "base_duration_us": 798434
    },
    {
      "id": "M_306",
      "pitch": 89,
      "t_note_us": 78495239,
      "t_trigger_us": 78359276,
      "is_ai": true,
      "track_id": 6,
      "velocity": 0,
      "is_motor": false,
      "motor_id": 0,
      "accel_val": 2000,
      "base_duration_us": 542185
    },
    {
      "id": "M_311",
      "pitch": 89,
      "t_note_us": 78495239,
      "t_trigger_us": 78359276,
      "is_ai": true,
      "track_id": 6,
      "velocity": 0,
      "is_motor": false,
      "motor_id": 0,
      "accel_val": 2000,
      "base_duration_us": 574997
    },
    {
      "id": "M_309",
      "pitch": 60,
      "t_note_us": 78526488,
      "t_trigger_us": 78390525,
      "is_ai": false,
      "track_id": 0,
      "velocity": 0,
      "is_motor": true,
      "motor_id": 3,
      "accel_val": 2000,
      "base_duration_us": 510936
    },
    {
      "id": "M_304",
      "pitch": 69,
      "t_note_us": 78782737,
      "t_trigger_us": 78646774,
      "is_ai": false,
      "track_id": 0,
      "velocity": 0,
      "is_motor": true,
      "motor_id": 0,
      "accel_val": 2000,
      "base_duration_us": 254687
    },
    {
      "id": "M_316",
      "pitch": 84,
      "t_note_us": 79037424,
      "t_trigger_us": 78901461,
      "is_ai": true,
      "track_id": 3,
      "velocity": 0,
      "is_motor": false,
      "motor_id": 0,
      "accel_val": 2000,
      "base_duration_us": 1724998
    },
    {
      "id": "M_320",
      "pitch": 55,
      "t_note_us": 79070236,
      "t_trigger_us": 78934273,
      "is_ai": false,
      "track_id": 0,
      "velocity": 0,
      "is_motor": true,
      "motor_id": 0,
      "accel_val": 2000,
      "base_duration_us": 1692186
    },
    {
      "id": "M_313",
      "pitch": 57,
      "t_note_us": 79324923,
      "t_trigger_us": 79188960,
      "is_ai": false,
      "track_id": 0,
      "velocity": 0,
      "is_motor": true,
      "motor_id": 1,
      "accel_val": 2000,
      "base_duration_us": 1437499
    },
    {
      "id": "M_318",
      "pitch": 83,
      "t_note_us": 79612423,
      "t_trigger_us": 79476460,
      "is_ai": true,
      "track_id": 2,
      "velocity": 0,
      "is_motor": false,
      "motor_id": 0,
      "accel_val": 2000,
      "base_duration_us": 1149999
    },
    {
      "id": "M_319",
      "pitch": 60,
      "t_note_us": 79612423,
      "t_trigger_us": 79476460,
      "is_ai": false,
      "track_id": 0,
      "velocity": 0,
      "is_motor": true,
      "motor_id": 2,
      "accel_val": 2000,
      "base_duration_us": 1149999
    },
    {
      "id": "M_317",
      "pitch": 65,
      "t_note_us": 79901485,
      "t_trigger_us": 79765522,
      "is_ai": false,
      "track_id": 0,
      "velocity": 0,
      "is_motor": true,
      "motor_id": 3,
      "accel_val": 2000,
      "base_duration_us": 860937
    },
    {
      "id": "M_312",
      "pitch": 88,
      "t_note_us": 80187422,
      "t_trigger_us": 80051459,
      "is_ai": true,
      "track_id": 5,
      "velocity": 0,
      "is_motor": false,
      "motor_id": 0,
      "accel_val": 2000,
      "base_duration_us": 0
    },
    {
      "id": "M_314",
      "pitch": 81,
      "t_note_us": 80187422,
      "t_trigger_us": 80051459,
      "is_ai": true,
      "track_id": 1,
      "velocity": 0,
      "is_motor": false,
      "motor_id": 0,
      "accel_val": 2000,
      "base_duration_us": 575000
    },
    {
      "id": "M_315",
      "pitch": 64,
      "t_note_us": 80187422,
      "t_trigger_us": 80051459,
      "is_ai": false,
      "track_id": 0,
      "velocity": 0,
      "is_motor": true,
      "motor_id": 0,
      "accel_val": 2000,
      "base_duration_us": 575000
    },
    {
      "id": "M_321",
      "pitch": 62,
      "t_note_us": 80474922,
      "t_trigger_us": 80338959,
      "is_ai": false,
      "track_id": 0,
      "velocity": 0,
      "is_motor": true,
      "motor_id": 0,
      "accel_val": 2000,
      "base_duration_us": 287500
    },
    {
      "id": "M_323",
      "pitch": 79,
      "t_note_us": 80762422,
      "t_trigger_us": 80626459,
      "is_ai": true,
      "track_id": 0,
      "velocity": 0,
      "is_motor": false,
      "motor_id": 0,
      "accel_val": 2000,
      "base_duration_us": 1887499
    },
    {
      "id": "M_324",
      "pitch": 86,
      "t_note_us": 80762422,
      "t_trigger_us": 80626459,
      "is_ai": true,
      "track_id": 4,
      "velocity": 0,
      "is_motor": false,
      "motor_id": 0,
      "accel_val": 2000,
      "base_duration_us": 1887499
    },
    {
      "id": "M_322",
      "pitch": 67,
      "t_note_us": 80762422,
      "t_trigger_us": 80626459,
      "is_ai": false,
      "track_id": 0,
      "velocity": 0,
      "is_motor": true,
      "motor_id": 1,
      "accel_val": 2000,
      "base_duration_us": 1248437
    },
    {
      "id": "M_325",
      "pitch": 59,
      "t_note_us": 80762422,
      "t_trigger_us": 80626459,
      "is_ai": false,
      "track_id": 0,
      "velocity": 0,
      "is_motor": true,
      "motor_id": 0,
      "accel_val": 2000,
      "base_duration_us": 1887499
    },
    {
      "id": "M_326",
      "pitch": 79,
      "t_note_us": 82010859,
      "t_trigger_us": 81874896,
      "is_ai": true,
      "track_id": 0,
      "velocity": 0,
      "is_motor": false,
      "motor_id": 0,
      "accel_val": 2000,
      "base_duration_us": 639062
    },
    {
      "id": "M_327",
      "pitch": 88,
      "t_note_us": 82331171,
      "t_trigger_us": 82195208,
      "is_ai": true,
      "track_id": 5,
      "velocity": 0,
      "is_motor": false,
      "motor_id": 0,
      "accel_val": 2000,
      "base_duration_us": 318750
    },
    {
      "id": "M_330",
      "pitch": 55,
      "t_note_us": 82937421,
      "t_trigger_us": 82801458,
      "is_ai": false,
      "track_id": 0,
      "velocity": 0,
      "is_motor": true,
      "motor_id": 0,
      "accel_val": 2000,
      "base_duration_us": 1085933
    },
    {
      "id": "M_329",
      "pitch": 60,
      "t_note_us": 83224920,
      "t_trigger_us": 83088957,
      "is_ai": false,
      "track_id": 0,
      "velocity": 0,
      "is_motor": true,
      "motor_id": 1,
      "accel_val": 2000,
      "base_duration_us": 543747
    },
    {
      "id": "M_335",
      "pitch": 62,
      "t_note_us": 83481169,
      "t_trigger_us": 83345206,
      "is_ai": false,
      "track_id": 0,
      "velocity": 0,
      "is_motor": true,
      "motor_id": 2,
      "accel_val": 2000,
      "base_duration_us": 798434
    },
    {
      "id": "M_328",
      "pitch": 86,
      "t_note_us": 83737418,
      "t_trigger_us": 83601455,
      "is_ai": true,
      "track_id": 4,
      "velocity": 0,
      "is_motor": false,
      "motor_id": 0,
      "accel_val": 2000,
      "base_duration_us": 0
    },
    {
      "id": "M_332",
      "pitch": 67,
      "t_note_us": 83768667,
      "t_trigger_us": 83632704,
      "is_ai": false,
      "track_id": 0,
      "velocity": 0,
      "is_motor": true,
      "motor_id": 1,
      "accel_val": 2000,
      "base_duration_us": 510936
    },
    {
      "id": "M_333",
      "pitch": 60,
      "t_note_us": 83768667,
      "t_trigger_us": 83632704,
      "is_ai": false,
      "track_id": 0,
      "velocity": 0,
      "is_motor": true,
      "motor_id": 3,
      "accel_val": 2000,
      "base_duration_us": 510936
    },
    {
      "id": "M_331",
      "pitch": 84,
      "t_note_us": 84023354,
      "t_trigger_us": 83887391,
      "is_ai": true,
      "track_id": 3,
      "velocity": 0,
      "is_motor": false,
      "motor_id": 0,
      "accel_val": 2000,
      "base_duration_us": 0
    },
    {
      "id": "M_334",
      "pitch": 55,
      "t_note_us": 84023354,
      "t_trigger_us": 83887391,
      "is_ai": false,
      "track_id": 0,
      "velocity": 0,
      "is_motor": true,
      "motor_id": 0,
      "accel_val": 2000,
      "base_duration_us": 256249
    },
    {
      "id": "M_336",
      "pitch": 88,
      "t_note_us": 84279603,
      "t_trigger_us": 84143640,
      "is_ai": true,
      "track_id": 5,
      "velocity": 0,
      "is_motor": false,
      "motor_id": 0,
      "accel_val": 2000,
      "base_duration_us": 0
    },
    {
      "id": "M_337",
      "pitch": 48,
      "t_note_us": 84279603,
      "t_trigger_us": 84143640,
      "is_ai": false,
      "track_id": 0,
      "velocity": 0,
      "is_motor": true,
      "motor_id": 0,
      "accel_val": 2000,
      "base_duration_us": 0
    },
    {
      "id": "M_341",
      "pitch": 86,
      "t_note_us": 84310852,
      "t_trigger_us": 84174889,
      "is_ai": true,
      "track_id": 4,
      "velocity": 0,
      "is_motor": false,
      "motor_id": 0,
      "accel_val": 2000,
      "base_duration_us": 1629683
    },
    {
      "id": "M_339",
      "pitch": 55,
      "t_note_us": 84567101,
      "t_trigger_us": 84431138,
      "is_ai": false,
      "track_id": 0,
      "velocity": 0,
      "is_motor": true,
      "motor_id": 0,
      "accel_val": 2000,
      "base_duration_us": 1087497
    },
    {
      "id": "M_342",
      "pitch": 84,
      "t_note_us": 84854601,
      "t_trigger_us": 84718638,
      "is_ai": true,
      "track_id": 3,
      "velocity": 0,
      "is_motor": false,
      "motor_id": 0,
      "accel_val": 2000,
      "base_duration_us": 1085934
    },
    {
      "id": "M_338",
      "pitch": 60,
      "t_note_us": 84854601,
      "t_trigger_us": 84718638,
      "is_ai": false,
      "track_id": 0,
      "velocity": 0,
      "is_motor": true,
      "motor_id": 1,
      "accel_val": 2000,
      "base_duration_us": 543748
    },
    {
      "id": "M_345",
      "pitch": 62,
      "t_note_us": 85109288,
      "t_trigger_us": 84973325,
      "is_ai": false,
      "track_id": 0,
      "velocity": 0,
      "is_motor": true,
      "motor_id": 2,
      "accel_val": 2000,
      "base_duration_us": 831247
    },
    {
      "id": "M_340",
      "pitch": 79,
      "t_note_us": 85365537,
      "t_trigger_us": 85229574,
      "is_ai": true,
      "track_id": 0,
      "velocity": 0,
      "is_motor": false,
      "motor_id": 0,
      "accel_val": 2000,
      "base_duration_us": 574998
    },
    {
      "id": "M_343",
      "pitch": 67,
      "t_note_us": 85398349,
      "t_trigger_us": 85262386,
      "is_ai": false,
      "track_id": 0,
      "velocity": 0,
      "is_motor": true,
      "motor_id": 1,
      "accel_val": 2000,
      "base_duration_us": 542186
    },
    {
      "id": "M_344",
      "pitch": 60,
      "t_note_us": 85398349,
      "t_trigger_us": 85262386,
      "is_ai": false,
      "track_id": 0,
      "velocity": 0,
      "is_motor": true,
      "motor_id": 3,
      "accel_val": 2000,
      "base_duration_us": 542186
    },
    {
      "id": "M_346",
      "pitch": 55,
      "t_note_us": 85654598,
      "t_trigger_us": 85518635,
      "is_ai": false,
      "track_id": 0,
      "velocity": 0,
      "is_motor": true,
      "motor_id": 0,
      "accel_val": 2000,
      "base_duration_us": 285937
    },
    {
      "id": "M_349",
      "pitch": 86,
      "t_note_us": 85940535,
      "t_trigger_us": 85804572,
      "is_ai": true,
      "track_id": 4,
      "velocity": 0,
      "is_motor": false,
      "motor_id": 0,
      "accel_val": 2000,
      "base_duration_us": 1598433
    },
    {
      "id": "M_355",
      "pitch": 88,
      "t_note_us": 85940535,
      "t_trigger_us": 85804572,
      "is_ai": true,
      "track_id": 5,
      "velocity": 0,
      "is_motor": false,
      "motor_id": 0,
      "accel_val": 2000,
      "base_duration_us": 2717181
    },
    {
      "id": "M_351",
      "pitch": 45,
      "t_note_us": 85940535,
      "t_trigger_us": 85804572,
      "is_ai": false,
      "track_id": 0,
      "velocity": 0,
      "is_motor": true,
      "motor_id": 0,
      "accel_val": 2000,
      "base_duration_us": 1631245
    },
    {
      "id": "M_348",
      "pitch": 55,
      "t_note_us": 86196784,
      "t_trigger_us": 86060821,
      "is_ai": false,
      "track_id": 0,
      "velocity": 0,
      "is_motor": true,
      "motor_id": 1,
      "accel_val": 2000,
      "base_duration_us": 1085935
    },
    {
      "id": "M_352",
      "pitch": 84,
      "t_note_us": 86484284,
      "t_trigger_us": 86348321,
      "is_ai": true,
      "track_id": 3,
      "velocity": 0,
      "is_motor": false,
      "motor_id": 0,
      "accel_val": 2000,
      "base_duration_us": 1087496
    },
    {
      "id": "M_354",
      "pitch": 62,
      "t_note_us": 86740533,
      "t_trigger_us": 86604570,
      "is_ai": false,
      "track_id": 0,
      "velocity": 0,
      "is_motor": true,
      "motor_id": 2,
      "accel_val": 2000,
      "base_duration_us": 831247
    },
    {
      "id": "M_347",
      "pitch": 60,
      "t_note_us": 87026470,
      "t_trigger_us": 86890507,
      "is_ai": false,
      "track_id": 0,
      "velocity": 0,
      "is_motor": true,
      "motor_id": 3,
      "accel_val": 2000,
      "base_duration_us": 0
    },
    {
      "id": "M_350",
      "pitch": 67,
      "t_note_us": 87026470,
      "t_trigger_us": 86890507,
      "is_ai": false,
      "track_id": 0,
      "velocity": 0,
      "is_motor": true,
      "motor_id": 0,
      "accel_val": 2000,
      "base_duration_us": 545310
    },
    {
      "id": "M_353",
      "pitch": 55,
      "t_note_us": 87282719,
      "t_trigger_us": 87146756,
      "is_ai": false,
      "track_id": 0,
      "velocity": 0,
      "is_motor": true,
      "motor_id": 1,
      "accel_val": 2000,
      "base_duration_us": 289061
    },
    {
      "id": "M_363",
      "pitch": 86,
      "t_note_us": 87571780,
      "t_trigger_us": 87435817,
      "is_ai": true,
      "track_id": 4,
      "velocity": 0,
      "is_motor": false,
      "motor_id": 0,
      "accel_val": 2000,
      "base_duration_us": 1628123
    },
    {
      "id": "M_364",
      "pitch": 45,
      "t_note_us": 87571780,
      "t_trigger_us": 87435817,
      "is_ai": false,
      "track_id": 0,
      "velocity": 0,
      "is_motor": true,
      "motor_id": 0,
      "accel_val": 2000,
      "base_duration_us": 1628123
    },
    {
      "id": "M_357",
      "pitch": 55,
      "t_note_us": 87826467,
      "t_trigger_us": 87690504,
      "is_ai": false,
      "track_id": 0,
      "velocity": 0,
      "is_motor": true,
      "motor_id": 1,
      "accel_val": 2000,
      "base_duration_us": 1085936
    },
    {
      "id": "M_359",
      "pitch": 84,
      "t_note_us": 88113967,
      "t_trigger_us": 87978004,
      "is_ai": true,
      "track_id": 3,
      "velocity": 0,
      "is_motor": false,
      "motor_id": 0,
      "accel_val": 2000,
      "base_duration_us": 1085936
    },
    {
      "id": "M_356",
      "pitch": 60,
      "t_note_us": 88113967,
      "t_trigger_us": 87978004,
      "is_ai": false,
      "track_id": 0,
      "velocity": 0,
      "is_motor": true,
      "motor_id": 2,
      "accel_val": 2000,
      "base_duration_us": 543749
    },
    {
      "id": "M_358",
      "pitch": 62,
      "t_note_us": 88401467,
      "t_trigger_us": 88265504,
      "is_ai": false,
      "track_id": 0,
      "velocity": 0,
      "is_motor": true,
      "motor_id": 3,
      "accel_val": 2000,
      "base_duration_us": 798436
    },
    {
      "id": "M_360",
      "pitch": 88,
      "t_note_us": 88657716,
      "t_trigger_us": 88521753,
      "is_ai": true,
      "track_id": 5,
      "velocity": 0,
      "is_motor": false,
      "motor_id": 0,
      "accel_val": 2000,
      "base_duration_us": 542187
    },
    {
      "id": "M_361",
      "pitch": 67,
      "t_note_us": 88657716,
      "t_trigger_us": 88521753,
      "is_ai": false,
      "track_id": 0,
      "velocity": 0,
      "is_motor": true,
      "motor_id": 2,
      "accel_val": 2000,
      "base_duration_us": 542187
    },
    {
      "id": "M_362",
      "pitch": 60,
      "t_note_us": 88657716,
      "t_trigger_us": 88521753,
      "is_ai": false,
      "track_id": 0,
      "velocity": 0,
      "is_motor": true,
      "motor_id": 0,
      "accel_val": 2000,
      "base_duration_us": 542187
    },
    {
      "id": "M_365",
      "pitch": 79,
      "t_note_us": 88912403,
      "t_trigger_us": 88776440,
      "is_ai": true,
      "track_id": 0,
      "velocity": 0,
      "is_motor": false,
      "motor_id": 0,
      "accel_val": 2000,
      "base_duration_us": 287500
    },
    {
      "id": "M_366",
      "pitch": 55,
      "t_note_us": 88912403,
      "t_trigger_us": 88776440,
      "is_ai": false,
      "track_id": 0,
      "velocity": 0,
      "is_motor": true,
      "motor_id": 1,
      "accel_val": 2000,
      "base_duration_us": 287500
    },
    {
      "id": "M_371",
      "pitch": 89,
      "t_note_us": 89199903,
      "t_trigger_us": 89063940,
      "is_ai": true,
      "track_id": 6,
      "velocity": 0,
      "is_motor": false,
      "motor_id": 0,
      "accel_val": 2000,
      "base_duration_us": 1631247
    },
    {
      "id": "M_375",
      "pitch": 89,
      "t_note_us": 89199903,
      "t_trigger_us": 89063940,
      "is_ai": true,
      "track_id": 6,
      "velocity": 0,
      "is_motor": false,
      "motor_id": 0,
      "accel_val": 2000,
      "base_duration_us": 1660934
    },
    {
      "id": "M_372",
      "pitch": 50,
      "t_note_us": 89199903,
      "t_trigger_us": 89063940,
      "is_ai": false,
      "track_id": 0,
      "velocity": 0,
      "is_motor": true,
      "motor_id": 0,
      "accel_val": 2000,
      "base_duration_us": 1631247
    },
    {
      "id": "M_368",
      "pitch": 57,
      "t_note_us": 89488965,
      "t_trigger_us": 89353002,
      "is_ai": false,
      "track_id": 0,
      "velocity": 0,
      "is_motor": true,
      "motor_id": 1,
      "accel_val": 2000,
      "base_duration_us": 1085936
    },
    {
      "id": "M_367",
      "pitch": 60,
      "t_note_us": 89743652,
      "t_trigger_us": 89607689,
      "is_ai": false,
      "track_id": 0,
      "velocity": 0,
      "is_motor": true,
      "motor_id": 2,
      "accel_val": 2000,
      "base_duration_us": 543749
    },
    {
      "id": "M_369",
      "pitch": 62,
      "t_note_us": 90031152,
      "t_trigger_us": 89895189,
      "is_ai": false,
      "track_id": 0,
      "velocity": 0,
      "is_motor": true,
      "motor_id": 3,
      "accel_val": 2000,
      "base_duration_us": 799998
    },
    {
      "id": "M_373",
      "pitch": 81,
      "t_note_us": 90287401,
      "t_trigger_us": 90151438,
      "is_ai": true,
      "track_id": 1,
      "velocity": 0,
      "is_motor": false,
      "motor_id": 0,
      "accel_val": 2000,
      "base_duration_us": 543749
    },
    {
      "id": "M_374",
      "pitch": 60,
      "t_note_us": 90287401,
      "t_trigger_us": 90151438,
      "is_ai": false,
      "track_id": 0,
      "velocity": 0,
      "is_motor": true,
      "motor_id": 2,
      "accel_val": 2000,
      "base_duration_us": 543749
    },
    {
      "id": "M_370",
      "pitch": 57,
      "t_note_us": 90574901,
      "t_trigger_us": 90438938,
      "is_ai": false,
      "track_id": 0,
      "velocity": 0,
      "is_motor": true,
      "motor_id": 1,
      "accel_val": 2000,
      "base_duration_us": 256249
    },
    {
      "id": "M_377",
      "pitch": 88,
      "t_note_us": 90831150,
      "t_trigger_us": 90695187,
      "is_ai": true,
      "track_id": 5,
      "velocity": 0,
      "is_motor": false,
      "motor_id": 0,
      "accel_val": 2000,
      "base_duration_us": 1085934
    },
    {
      "id": "M_378",
      "pitch": 69,
      "t_note_us": 90831150,
      "t_trigger_us": 90695187,
      "is_ai": false,
      "track_id": 0,
      "velocity": 0,
      "is_motor": true,
      "motor_id": 1,
      "accel_val": 2000,
      "base_duration_us": 1085934
    },
    {
      "id": "M_386",
      "pitch": 50,
      "t_note_us": 90831150,
      "t_trigger_us": 90695187,
      "is_ai": false,
      "track_id": 0,
      "velocity": 0,
      "is_motor": true,
      "motor_id": 0,
      "accel_val": 2000,
      "base_duration_us": 1628121
    },
    {
      "id": "M_379",
      "pitch": 57,
      "t_note_us": 91117086,
      "t_trigger_us": 90981123,
      "is_ai": false,
      "track_id": 0,
      "velocity": 0,
      "is_motor": true,
      "motor_id": 2,
      "accel_val": 2000,
      "base_duration_us": 1087498
    },
    {
      "id": "M_376",
      "pitch": 60,
      "t_note_us": 91373335,
      "t_trigger_us": 91237372,
      "is_ai": false,
      "track_id": 0,
      "velocity": 0,
      "is_motor": true,
      "motor_id": 3,
      "accel_val": 2000,
      "base_duration_us": 543749
    },
    {
      "id": "M_381",
      "pitch": 62,
      "t_note_us": 91660835,
      "t_trigger_us": 91524872,
      "is_ai": false,
      "track_id": 0,
      "velocity": 0,
      "is_motor": true,
      "motor_id": 0,
      "accel_val": 2000,
      "base_duration_us": 798436
    },
    {
      "id": "M_384",
      "pitch": 81,
      "t_note_us": 91917084,
      "t_trigger_us": 91781121,
      "is_ai": true,
      "track_id": 1,
      "velocity": 0,
      "is_motor": false,
      "motor_id": 0,
      "accel_val": 2000,
      "base_duration_us": 542187
    },
    {
      "id": "M_385",
      "pitch": 60,
      "t_note_us": 91917084,
      "t_trigger_us": 91781121,
      "is_ai": false,
      "track_id": 0,
      "velocity": 0,
      "is_motor": true,
      "motor_id": 1,
      "accel_val": 2000,
      "base_duration_us": 542187
    },
    {
      "id": "M_380",
      "pitch": 86,
      "t_note_us": 92204584,
      "t_trigger_us": 92068621,
      "is_ai": true,
      "track_id": 4,
      "velocity": 0,
      "is_motor": false,
      "motor_id": 0,
      "accel_val": 2000,
      "base_duration_us": 0
    },
    {
      "id": "M_382",
      "pitch": 57,
      "t_note_us": 92204584,
      "t_trigger_us": 92068621,
      "is_ai": false,
      "track_id": 0,
      "velocity": 0,
      "is_motor": true,
      "motor_id": 2,
      "accel_val": 2000,
      "base_duration_us": 254687
    },
    {
      "id": "M_383",
      "pitch": 88,
      "t_note_us": 92459271,
      "t_trigger_us": 92323308,
      "is_ai": true,
      "track_id": 5,
      "velocity": 0,
      "is_motor": false,
      "motor_id": 0,
      "accel_val": 2000,
      "base_duration_us": 0
    },
    {
      "id": "M_387",
      "pitch": 86,
      "t_note_us": 92459271,
      "t_trigger_us": 92323308,
      "is_ai": true,
      "track_id": 4,
      "velocity": 0,
      "is_motor": false,
      "motor_id": 0,
      "accel_val": 2000,
      "base_duration_us": 543749
    },
    {
      "id": "M_392",
      "pitch": 43,
      "t_note_us": 92459271,
      "t_trigger_us": 92323308,
      "is_ai": false,
      "track_id": 0,
      "velocity": 0,
      "is_motor": true,
      "motor_id": 0,
      "accel_val": 2000,
      "base_duration_us": 1629684
    },
    {
      "id": "M_389",
      "pitch": 55,
      "t_note_us": 92746771,
      "t_trigger_us": 92610808,
      "is_ai": false,
      "track_id": 0,
      "velocity": 0,
      "is_motor": true,
      "motor_id": 1,
      "accel_val": 2000,
      "base_duration_us": 1085935
    },
    {
      "id": "M_393",
      "pitch": 86,
      "t_note_us": 93003020,
      "t_trigger_us": 92867057,
      "is_ai": true,
      "track_id": 4,
      "velocity": 0,
      "is_motor": false,
      "motor_id": 0,
      "accel_val": 2000,
      "base_duration_us": 1085935
    },
    {
      "id": "M_388",
      "pitch": 60,
      "t_note_us": 93003020,
      "t_trigger_us": 92867057,
      "is_ai": false,
      "track_id": 0,
      "velocity": 0,
      "is_motor": true,
      "motor_id": 2,
      "accel_val": 2000,
      "base_duration_us": 543749
    },
    {
      "id": "M_391",
      "pitch": 62,
      "t_note_us": 93290520,
      "t_trigger_us": 93154557,
      "is_ai": false,
      "track_id": 0,
      "velocity": 0,
      "is_motor": true,
      "motor_id": 3,
      "accel_val": 2000,
      "base_duration_us": 798435
    },
    {
      "id": "M_394",
      "pitch": 81,
      "t_note_us": 93546769,
      "t_trigger_us": 93410806,
      "is_ai": true,
      "track_id": 1,
      "velocity": 0,
      "is_motor": false,
      "motor_id": 0,
      "accel_val": 2000,
      "base_duration_us": 542186
    },
    {
      "id": "M_395",
      "pitch": 60,
      "t_note_us": 93546769,
      "t_trigger_us": 93410806,
      "is_ai": false,
      "track_id": 0,
      "velocity": 0,
      "is_motor": true,
      "motor_id": 2,
      "accel_val": 2000,
      "base_duration_us": 542186
    },
    {
      "id": "M_390",
      "pitch": 55,
      "t_note_us": 93832706,
      "t_trigger_us": 93696743,
      "is_ai": false,
      "track_id": 0,
      "velocity": 0,
      "is_motor": true,
      "motor_id": 1,
      "accel_val": 2000,
      "base_duration_us": 256249
    },
    {
      "id": "M_404",
      "pitch": 43,
      "t_note_us": 94088955,
      "t_trigger_us": 93952992,
      "is_ai": false,
      "track_id": 0,
      "velocity": 0,
      "is_motor": true,
      "motor_id": 0,
      "accel_val": 2000,
      "base_duration_us": 1631246
    },
    {
      "id": "M_397",
      "pitch": 55,
      "t_note_us": 94376455,
      "t_trigger_us": 94240492,
      "is_ai": false,
      "track_id": 0,
      "velocity": 0,
      "is_motor": true,
      "motor_id": 1,
      "accel_val": 2000,
      "base_duration_us": 1087497
    },
    {
      "id": "M_405",
      "pitch": 86,
      "t_note_us": 94632704,
      "t_trigger_us": 94496741,
      "is_ai": true,
      "track_id": 4,
      "velocity": 0,
      "is_motor": false,
      "motor_id": 0,
      "accel_val": 2000,
      "base_duration_us": 1087497
    },
    {
      "id": "M_396",
      "pitch": 59,
      "t_note_us": 94665516,
      "t_trigger_us": 94529553,
      "is_ai": false,
      "track_id": 0,
      "velocity": 0,
      "is_motor": true,
      "motor_id": 2,
      "accel_val": 2000,
      "base_duration_us": 509374
    },
    {
      "id": "M_399",
      "pitch": 62,
      "t_note_us": 94920203,
      "t_trigger_us": 94784240,
      "is_ai": false,
      "track_id": 0,
      "velocity": 0,
      "is_motor": true,
      "motor_id": 3,
      "accel_val": 2000,
      "base_duration_us": 799998
    },
    {
      "id": "M_402",
      "pitch": 67,
      "t_note_us": 95174890,
      "t_trigger_us": 95038927,
      "is_ai": false,
      "track_id": 0,
      "velocity": 0,
      "is_motor": true,
      "motor_id": 2,
      "accel_val": 2000,
      "base_duration_us": 545311
    },
    {
      "id": "M_403",
      "pitch": 59,
      "t_note_us": 95174890,
      "t_trigger_us": 95038927,
      "is_ai": false,
      "track_id": 0,
      "velocity": 0,
      "is_motor": true,
      "motor_id": 0,
      "accel_val": 2000,
      "base_duration_us": 545311
    },
    {
      "id": "M_398",
      "pitch": 88,
      "t_note_us": 95463952,
      "t_trigger_us": 95327989,
      "is_ai": true,
      "track_id": 5,
      "velocity": 0,
      "is_motor": false,
      "motor_id": 0,
      "accel_val": 2000,
      "base_duration_us": 0
    },
    {
      "id": "M_401",
      "pitch": 55,
      "t_note_us": 95463952,
      "t_trigger_us": 95327989,
      "is_ai": false,
      "track_id": 0,
      "velocity": 0,
      "is_motor": true,
      "motor_id": 1,
      "accel_val": 2000,
      "base_duration_us": 256249
    },
    {
      "id": "M_400",
      "pitch": 88,
      "t_note_us": 95720201,
      "t_trigger_us": 95584238,
      "is_ai": true,
      "track_id": 5,
      "velocity": 0,
      "is_motor": false,
      "motor_id": 0,
      "accel_val": 2000,
      "base_duration_us": 0
    },
    {
      "id": "M_407",
      "pitch": 48,
      "t_note_us": 95720201,
      "t_trigger_us": 95584238,
      "is_ai": false,
      "track_id": 0,
      "velocity": 0,
      "is_motor": true,
      "motor_id": 0,
      "accel_val": 2000,
      "base_duration_us": 1117182
    },
    {
      "id": "M_409",
      "pitch": 55,
      "t_note_us": 96006138,
      "t_trigger_us": 95870175,
      "is_ai": false,
      "track_id": 0,
      "velocity": 0,
      "is_motor": true,
      "motor_id": 1,
      "accel_val": 2000,
      "base_duration_us": 831245
    },
    {
      "id": "M_406",
      "pitch": 84,
      "t_note_us": 96262387,
      "t_trigger_us": 96126424,
      "is_ai": true,
      "track_id": 3,
      "velocity": 0,
      "is_motor": false,
      "motor_id": 0,
      "accel_val": 2000,
      "base_duration_us": 574996
    },
    {
      "id": "M_408",
      "pitch": 60,
      "t_note_us": 96293636,
      "t_trigger_us": 96157673,
      "is_ai": false,
      "track_id": 0,
      "velocity": 0,
      "is_motor": true,
      "motor_id": 2,
      "accel_val": 2000,
      "base_duration_us": 543747
    },
    {
      "id": "M_416",
      "pitch": 62,
      "t_note_us": 96549885,
      "t_trigger_us": 96413922,
      "is_ai": false,
      "track_id": 0,
      "velocity": 0,
      "is_motor": true,
      "motor_id": 3,
      "accel_val": 2000,
      "base_duration_us": 831246
    },
    {
      "id": "M_411",
      "pitch": 79,
      "t_note_us": 96806134,
      "t_trigger_us": 96670171,
      "is_ai": true,
      "track_id": 0,
      "velocity": 0,
      "is_motor": false,
      "motor_id": 0,
      "accel_val": 2000,
      "base_duration_us": 574997
    },
    {
      "id": "M_412",
      "pitch": 86,
      "t_note_us": 96806134,
      "t_trigger_us": 96670171,
      "is_ai": true,
      "track_id": 4,
      "velocity": 0,
      "is_motor": false,
      "motor_id": 0,
      "accel_val": 2000,
      "base_duration_us": 574997
    },
    {
      "id": "M_413",
      "pitch": 60,
      "t_note_us": 96837383,
      "t_trigger_us": 96701420,
      "is_ai": false,
      "track_id": 0,
      "velocity": 0,
      "is_motor": true,
      "motor_id": 1,
      "accel_val": 2000,
      "base_duration_us": 543748
    },
    {
      "id": "M_414",
      "pitch": 84,
      "t_note_us": 97092070,
      "t_trigger_us": 96956107,
      "is_ai": true,
      "track_id": 3,
      "velocity": 0,
      "is_motor": false,
      "motor_id": 0,
      "accel_val": 2000,
      "base_duration_us": 289061
    },
    {
      "id": "M_415",
      "pitch": 55,
      "t_note_us": 97092070,
      "t_trigger_us": 96956107,
      "is_ai": false,
      "track_id": 0,
      "velocity": 0,
      "is_motor": true,
      "motor_id": 0,
      "accel_val": 2000,
      "base_duration_us": 289061
    },
    {
      "id": "M_410",
      "pitch": 86,
      "t_note_us": 97348319,
      "t_trigger_us": 97212356,
      "is_ai": true,
      "track_id": 4,
      "velocity": 0,
      "is_motor": false,
      "motor_id": 0,
      "accel_val": 2000,
      "base_duration_us": 0
    },
    {
      "id": "M_422",
      "pitch": 88,
      "t_note_us": 97381131,
      "t_trigger_us": 97245168,
      "is_ai": true,
      "track_id": 5,
      "velocity": 0,
      "is_motor": false,
      "motor_id": 0,
      "accel_val": 2000,
      "base_duration_us": 1628121
    },
    {
      "id": "M_423",
      "pitch": 48,
      "t_note_us": 97381131,
      "t_trigger_us": 97245168,
      "is_ai": false,
      "track_id": 0,
      "velocity": 0,
      "is_motor": true,
      "motor_id": 0,
      "accel_val": 2000,
      "base_duration_us": 1628121
    },
    {
      "id": "M_418",
      "pitch": 55,
      "t_note_us": 97637380,
      "t_trigger_us": 97501417,
      "is_ai": false,
      "track_id": 0,
      "velocity": 0,
      "is_motor": true,
      "motor_id": 1,
      "accel_val": 2000,
      "base_duration_us": 1085935
    },
    {
      "id": "M_419",
      "pitch": 84,
      "t_note_us": 97923317,
      "t_trigger_us": 97787354,
      "is_ai": true,
      "track_id": 3,
      "velocity": 0,
      "is_motor": false,
      "motor_id": 0,
      "accel_val": 2000,
      "base_duration_us": 1085935
    },
    {
      "id": "M_417",
      "pitch": 60,
      "t_note_us": 97923317,
      "t_trigger_us": 97787354,
      "is_ai": false,
      "track_id": 0,
      "velocity": 0,
      "is_motor": true,
      "motor_id": 2,
      "accel_val": 2000,
      "base_duration_us": 543749
    },
    {
      "id": "M_424",
      "pitch": 62,
      "t_note_us": 98179566,
      "t_trigger_us": 98043603,
      "is_ai": false,
      "track_id": 0,
      "velocity": 0,
      "is_motor": true,
      "motor_id": 3,
      "accel_val": 2000,
      "base_duration_us": 829686
    },
    {
      "id": "M_421",
      "pitch": 60,
      "t_note_us": 98467066,
      "t_trigger_us": 98331103,
      "is_ai": false,
      "track_id": 0,
      "velocity": 0,
      "is_motor": true,
      "motor_id": 2,
      "accel_val": 2000,
      "base_duration_us": 542186
    },
    {
      "id": "M_425",
      "pitch": 55,
      "t_note_us": 98723315,
      "t_trigger_us": 98587352,
      "is_ai": false,
      "track_id": 0,
      "velocity": 0,
      "is_motor": true,
      "motor_id": 1,
      "accel_val": 2000,
      "base_duration_us": 285937
    },
    {
      "id": "M_420",
      "pitch": 79,
      "t_note_us": 99009252,
      "t_trigger_us": 98873289,
      "is_ai": true,
      "track_id": 0,
      "velocity": 0,
      "is_motor": false,
      "motor_id": 0,
      "accel_val": 2000,
      "base_duration_us": 0
    },
    {
      "id": "M_429",
      "pitch": 86,
      "t_note_us": 99009252,
      "t_trigger_us": 98873289,
      "is_ai": true,
      "track_id": 4,
      "velocity": 0,
      "is_motor": false,
      "motor_id": 0,
      "accel_val": 2000,
      "base_duration_us": 1631247
    },
    {
      "id": "M_430",
      "pitch": 52,
      "t_note_us": 99009252,
      "t_trigger_us": 98873289,
      "is_ai": false,
      "track_id": 0,
      "velocity": 0,
      "is_motor": true,
      "motor_id": 0,
      "accel_val": 2000,
      "base_duration_us": 1631247
    },
    {
      "id": "M_426",
      "pitch": 55,
      "t_note_us": 99265501,
      "t_trigger_us": 99129538,
      "is_ai": false,
      "track_id": 0,
      "velocity": 0,
      "is_motor": true,
      "motor_id": 1,
      "accel_val": 2000,
      "base_duration_us": 543749
    },
    {
      "id": "M_433",
      "pitch": 83,
      "t_note_us": 99554563,
      "t_trigger_us": 99418600,
      "is_ai": true,
      "track_id": 2,
      "velocity": 0,
      "is_motor": false,
      "motor_id": 0,
      "accel_val": 2000,
      "base_duration_us": 1085936
    },
    {
      "id": "M_428",
      "pitch": 55,
      "t_note_us": 99809250,
      "t_trigger_us": 99673287,
      "is_ai": false,
      "track_id": 0,
      "velocity": 0,
      "is_motor": true,
      "motor_id": 1,
      "accel_val": 2000,
      "base_duration_us": 798437
    },
    {
      "id": "M_431",
      "pitch": 79,
      "t_note_us": 100096750,
      "t_trigger_us": 99960787,
      "is_ai": true,
      "track_id": 0,
      "velocity": 0,
      "is_motor": false,
      "motor_id": 0,
      "accel_val": 2000,
      "base_duration_us": 543749
    },
    {
      "id": "M_432",
      "pitch": 64,
      "t_note_us": 100096750,
      "t_trigger_us": 99960787,
      "is_ai": false,
      "track_id": 0,
      "velocity": 0,
      "is_motor": true,
      "motor_id": 2,
      "accel_val": 2000,
      "base_duration_us": 543749
    },
    {
      "id": "M_427",
      "pitch": 59,
      "t_note_us": 100384250,
      "t_trigger_us": 100248287,
      "is_ai": false,
      "track_id": 0,
      "velocity": 0,
      "is_motor": true,
      "motor_id": 3,
      "accel_val": 2000,
      "base_duration_us": 0
    },
    {
      "id": "M_440",
      "pitch": 86,
      "t_note_us": 100640499,
      "t_trigger_us": 100504536,
      "is_ai": true,
      "track_id": 4,
      "velocity": 0,
      "is_motor": false,
      "motor_id": 0,
      "accel_val": 2000,
      "base_duration_us": 1629684
    },
    {
      "id": "M_441",
      "pitch": 52,
      "t_note_us": 100640499,
      "t_trigger_us": 100504536,
      "is_ai": false,
      "track_id": 0,
      "velocity": 0,
      "is_motor": true,
      "motor_id": 0,
      "accel_val": 2000,
      "base_duration_us": 1629684
    },
    {
      "id": "M_434",
      "pitch": 59,
      "t_note_us": 100926436,
      "t_trigger_us": 100790473,
      "is_ai": false,
      "track_id": 0,
      "velocity": 0,
      "is_motor": true,
      "motor_id": 1,
      "accel_val": 2000,
      "base_duration_us": 545311
    },
    {
      "id": "M_436",
      "pitch": 83,
      "t_note_us": 101182685,
      "t_trigger_us": 101046722,
      "is_ai": true,
      "track_id": 2,
      "velocity": 0,
      "is_motor": false,
      "motor_id": 0,
      "accel_val": 2000,
      "base_duration_us": 1087498
    },
    {
      "id": "M_437",
      "pitch": 62,
      "t_note_us": 101182685,
      "t_trigger_us": 101046722,
      "is_ai": false,
      "track_id": 0,
      "velocity": 0,
      "is_motor": true,
      "motor_id": 2,
      "accel_val": 2000,
      "base_duration_us": 1087498
    },
    {
      "id": "M_438",
      "pitch": 79,
      "t_note_us": 101726434,
      "t_trigger_us": 101590471,
      "is_ai": true,
      "track_id": 0,
      "velocity": 0,
      "is_motor": false,
      "motor_id": 0,
      "accel_val": 2000,
      "base_duration_us": 543749
    },
    {
      "id": "M_439",
      "pitch": 67,
      "t_note_us": 101726434,
      "t_trigger_us": 101590471,
      "is_ai": false,
      "track_id": 0,
      "velocity": 0,
      "is_motor": true,
      "motor_id": 1,
      "accel_val": 2000,
      "base_duration_us": 543749
    },
    {
      "id": "M_435",
      "pitch": 59,
      "t_note_us": 102013934,
      "t_trigger_us": 101877971,
      "is_ai": false,
      "track_id": 0,
      "velocity": 0,
      "is_motor": true,
      "motor_id": 3,
      "accel_val": 2000,
      "base_duration_us": 0
    },
    {
      "id": "M_445",
      "pitch": 89,
      "t_note_us": 102270183,
      "t_trigger_us": 102134220,
      "is_ai": true,
      "track_id": 6,
      "velocity": 0,
      "is_motor": false,
      "motor_id": 0,
      "accel_val": 2000,
      "base_duration_us": 1629684
    },
    {
      "id": "M_450",
      "pitch": 89,
      "t_note_us": 102270183,
      "t_trigger_us": 102134220,
      "is_ai": true,
      "track_id": 6,
      "velocity": 0,
      "is_motor": false,
      "motor_id": 0,
      "accel_val": 2000,
      "base_duration_us": 1660933
    },
    {
      "id": "M_446",
      "pitch": 50,
      "t_note_us": 102270183,
      "t_trigger_us": 102134220,
      "is_ai": false,
      "track_id": 0,
      "velocity": 0,
      "is_motor": true,
      "motor_id": 0,
      "accel_val": 2000,
      "base_duration_us": 1629684
    },
    {
      "id": "M_447",
      "pitch": 88,
      "t_note_us": 102813932,
      "t_trigger_us": 102677969,
      "is_ai": true,
      "track_id": 5,
      "velocity": 0,
      "is_motor": false,
      "motor_id": 0,
      "accel_val": 2000,
      "base_duration_us": 1085935
    },
    {
      "id": "M_448",
      "pitch": 60,
      "t_note_us": 102813932,
      "t_trigger_us": 102677969,
      "is_ai": false,
      "track_id": 0,
      "velocity": 0,
      "is_motor": true,
      "motor_id": 1,
      "accel_val": 2000,
      "base_duration_us": 1085935
    },
    {
      "id": "M_442",
      "pitch": 57,
      "t_note_us": 103099869,
      "t_trigger_us": 102963906,
      "is_ai": false,
      "track_id": 0,
      "velocity": 0,
      "is_motor": true,
      "motor_id": 2,
      "accel_val": 2000,
      "base_duration_us": 0
    },
    {
      "id": "M_444",
      "pitch": 69,
      "t_note_us": 103356118,
      "t_trigger_us": 103220155,
      "is_ai": false,
      "track_id": 0,
      "velocity": 0,
      "is_motor": true,
      "motor_id": 2,
      "accel_val": 2000,
      "base_duration_us": 543749
    },
    {
      "id": "M_449",
      "pitch": 65,
      "t_note_us": 103356118,
      "t_trigger_us": 103220155,
      "is_ai": false,
      "track_id": 0,
      "velocity": 0,
      "is_motor": true,
      "motor_id": 3,
      "accel_val": 2000,
      "base_duration_us": 574998
    },
    {
      "id": "M_443",
      "pitch": 57,
      "t_note_us": 103643618,
      "t_trigger_us": 103507655,
      "is_ai": false,
      "track_id": 0,
      "velocity": 0,
      "is_motor": true,
      "motor_id": 0,
      "accel_val": 2000,
      "base_duration_us": 256249
    },
    {
      "id": "M_453",
      "pitch": 88,
      "t_note_us": 103899867,
      "t_trigger_us": 103763904,
      "is_ai": true,
      "track_id": 5,
      "velocity": 0,
      "is_motor": false,
      "motor_id": 0,
      "accel_val": 2000,
      "base_duration_us": 1631248
    },
    {
      "id": "M_454",
      "pitch": 59,
      "t_note_us": 103899867,
      "t_trigger_us": 103763904,
      "is_ai": false,
      "track_id": 0,
      "velocity": 0,
      "is_motor": true,
      "motor_id": 0,
      "accel_val": 2000,
      "base_duration_us": 1662497
    },
    {
      "id": "M_455",
      "pitch": 55,
      "t_note_us": 103899867,
      "t_trigger_us": 103763904,
      "is_ai": false,
      "track_id": 0,
      "velocity": 0,
      "is_motor": true,
      "motor_id": 1,
      "accel_val": 2000,
      "base_duration_us": 1662497
    },
    {
      "id": "M_452",
      "pitch": 86,
      "t_note_us": 104987366,
      "t_trigger_us": 104851403,
      "is_ai": true,
      "track_id": 4,
      "velocity": 0,
      "is_motor": false,
      "motor_id": 0,
      "accel_val": 2000,
      "base_duration_us": 543749
    },
    {
      "id": "M_451",
      "pitch": 84,
      "t_note_us": 105274866,
      "t_trigger_us": 105138903,
      "is_ai": true,
      "track_id": 3,
      "velocity": 0,
      "is_motor": false,
      "motor_id": 0,
      "accel_val": 2000,
      "base_duration_us": 256249
    },
    {
      "id": "M_457",
      "pitch": 80,
      "t_note_us": 105531115,
      "t_trigger_us": 105395152,
      "is_ai": true,
      "track_id": 0,
      "velocity": 0,
      "is_motor": true,
      "motor_id": 2,
      "accel_val": 2000,
      "base_duration_us": 1085934
    },
    {
      "id": "M_463",
      "pitch": 84,
      "t_note_us": 105531115,
      "t_trigger_us": 105395152,
      "is_ai": true,
      "track_id": 3,
      "velocity": 0,
      "is_motor": false,
      "motor_id": 0,
      "accel_val": 2000,
      "base_duration_us": 1628121
    },
    {
      "id": "M_468",
      "pitch": 41,
      "t_note_us": 105531115,
      "t_trigger_us": 105395152,
      "is_ai": false,
      "track_id": 0,
      "velocity": 0,
      "is_motor": true,
      "motor_id": 3,
      "accel_val": 2000,
      "base_duration_us": 1660933
    },
    {
      "id": "M_464",
      "pitch": 48,
      "t_note_us": 105817051,
      "t_trigger_us": 105681088,
      "is_ai": false,
      "track_id": 0,
      "velocity": 0,
      "is_motor": true,
      "motor_id": 0,
      "accel_val": 2000,
      "base_duration_us": 1374997
    },
    {
      "id": "M_456",
      "pitch": 84,
      "t_note_us": 106073300,
      "t_trigger_us": 105937337,
      "is_ai": true,
      "track_id": 3,
      "velocity": 0,
      "is_motor": false,
      "motor_id": 0,
      "accel_val": 2000,
      "base_duration_us": 0
    },
    {
      "id": "M_459",
      "pitch": 82,
      "t_note_us": 106073300,
      "t_trigger_us": 105937337,
      "is_ai": true,
      "track_id": 0,
      "velocity": 0,
      "is_motor": true,
      "motor_id": 1,
      "accel_val": 2000,
      "base_duration_us": 1085936
    },
    {
      "id": "M_460",
      "pitch": 79,
      "t_note_us": 106073300,
      "t_trigger_us": 105937337,
      "is_ai": true,
      "track_id": 0,
      "velocity": 0,
      "is_motor": false,
      "motor_id": 0,
      "accel_val": 2000,
      "base_duration_us": 1085936
    },
    {
      "id": "M_466",
      "pitch": 53,
      "t_note_us": 106073300,
      "t_trigger_us": 105937337,
      "is_ai": false,
      "track_id": 0,
      "velocity": 0,
      "is_motor": true,
      "motor_id": 0,
      "accel_val": 2000,
      "base_duration_us": 1118748
    },
    {
      "id": "M_465",
      "pitch": 56,
      "t_note_us": 106360800,
      "t_trigger_us": 106224837,
      "is_ai": false,
      "track_id": 0,
      "velocity": 0,
      "is_motor": true,
      "motor_id": 0,
      "accel_val": 2000,
      "base_duration_us": 831248
    },
    {
      "id": "M_462",
      "pitch": 84,
      "t_note_us": 106617049,
      "t_trigger_us": 106481086,
      "is_ai": true,
      "track_id": 3,
      "velocity": 0,
      "is_motor": false,
      "motor_id": 0,
      "accel_val": 2000,
      "base_duration_us": 542187
    },
    {
      "id": "M_467",
      "pitch": 80,
      "t_note_us": 106617049,
      "t_trigger_us": 106481086,
      "is_ai": true,
      "track_id": 0,
      "velocity": 0,
      "is_motor": true,
      "motor_id": 2,
      "accel_val": 2000,
      "base_duration_us": 574999
    },
    {
      "id": "M_458",
      "pitch": 62,
      "t_note_us": 106904549,
      "t_trigger_us": 106768586,
      "is_ai": false,
      "track_id": 0,
      "velocity": 0,
      "is_motor": true,
      "motor_id": 0,
      "accel_val": 2000,
      "base_duration_us": 254687
    },
    {
      "id": "M_461",
      "pitch": 89,
      "t_note_us": 107159236,
      "t_trigger_us": 107023273,
      "is_ai": true,
      "track_id": 6,
      "velocity": 0,
      "is_motor": false,
      "motor_id": 0,
      "accel_val": 2000,
      "base_duration_us": 0
    },
    {
      "id": "M_471",
      "pitch": 79,
      "t_note_us": 107159236,
      "t_trigger_us": 107023273,
      "is_ai": true,
      "track_id": 0,
      "velocity": 0,
      "is_motor": false,
      "motor_id": 0,
      "accel_val": 2000,
      "base_duration_us": 1153124
    },
    {
      "id": "M_473",
      "pitch": 87,
      "t_note_us": 107159236,
      "t_trigger_us": 107023273,
      "is_ai": true,
      "track_id": 0,
      "velocity": 0,
      "is_motor": true,
      "motor_id": 1,
      "accel_val": 2000,
      "base_duration_us": 1184373
    },
    {
      "id": "M_475",
      "pitch": 65,
      "t_note_us": 107192048,
      "t_trigger_us": 107056085,
      "is_ai": false,
      "track_id": 0,
      "velocity": 0,
      "is_motor": true,
      "motor_id": 0,
      "accel_val": 2000,
      "base_duration_us": 1757810
    },
    {
      "id": "M_469",
      "pitch": 89,
      "t_note_us": 107735798,
      "t_trigger_us": 107599835,
      "is_ai": true,
      "track_id": 6,
      "velocity": 0,
      "is_motor": false,
      "motor_id": 0,
      "accel_val": 2000,
      "base_duration_us": 0
    },
    {
      "id": "M_470",
      "pitch": 89,
      "t_note_us": 107735798,
      "t_trigger_us": 107599835,
      "is_ai": true,
      "track_id": 6,
      "velocity": 0,
      "is_motor": false,
      "motor_id": 0,
      "accel_val": 2000,
      "base_duration_us": 576562
    },
    {
      "id": "M_472",
      "pitch": 86,
      "t_note_us": 107735798,
      "t_trigger_us": 107599835,
      "is_ai": true,
      "track_id": 4,
      "velocity": 0,
      "is_motor": false,
      "motor_id": 0,
      "accel_val": 2000,
      "base_duration_us": 607811
    },
    {
      "id": "M_482",
      "pitch": 89,
      "t_note_us": 108312360,
      "t_trigger_us": 108176397,
      "is_ai": true,
      "track_id": 6,
      "velocity": 0,
      "is_motor": false,
      "motor_id": 0,
      "accel_val": 2000,
      "base_duration_us": 2682809
    },
    {
      "id": "M_483",
      "pitch": 79,
      "t_note_us": 108312360,
      "t_trigger_us": 108176397,
      "is_ai": true,
      "track_id": 0,
      "velocity": 0,
      "is_motor": false,
      "motor_id": 0,
      "accel_val": 2000,
      "base_duration_us": 2682809
    },
    {
      "id": "M_484",
      "pitch": 89,
      "t_note_us": 108312360,
      "t_trigger_us": 108176397,
      "is_ai": true,
      "track_id": 6,
      "velocity": 0,
      "is_motor": false,
      "motor_id": 0,
      "accel_val": 2000,
      "base_duration_us": 2682809
    },
    {
      "id": "M_474",
      "pitch": 48,
      "t_note_us": 108312360,
      "t_trigger_us": 108176397,
      "is_ai": false,
      "track_id": 0,
      "velocity": 0,
      "is_motor": true,
      "motor_id": 2,
      "accel_val": 2000,
      "base_duration_us": 606249
    },
    {
      "id": "M_476",
      "pitch": 55,
      "t_note_us": 108631109,
      "t_trigger_us": 108495146,
      "is_ai": false,
      "track_id": 0,
      "velocity": 0,
      "is_motor": true,
      "motor_id": 1,
      "accel_val": 2000,
      "base_duration_us": 318749
    },
    {
      "id": "M_477",
      "pitch": 60,
      "t_note_us": 108949858,
      "t_trigger_us": 108813895,
      "is_ai": false,
      "track_id": 0,
      "velocity": 0,
      "is_motor": true,
      "motor_id": 1,
      "accel_val": 2000,
      "base_duration_us": 639062
    },
    {
      "id": "M_478",
      "pitch": 65,
      "t_note_us": 109270170,
      "t_trigger_us": 109134207,
      "is_ai": false,
      "track_id": 0,
      "velocity": 0,
      "is_motor": true,
      "motor_id": 0,
      "accel_val": 2000,
      "base_duration_us": 1724999
    },
    {
      "id": "M_479",
      "pitch": 88,
      "t_note_us": 109588920,
      "t_trigger_us": 109452957,
      "is_ai": true,
      "track_id": 5,
      "velocity": 0,
      "is_motor": false,
      "motor_id": 0,
      "accel_val": 2000,
      "base_duration_us": 1406249
    },
    {
      "id": "M_480",
      "pitch": 64,
      "t_note_us": 109588920,
      "t_trigger_us": 109452957,
      "is_ai": false,
      "track_id": 0,
      "velocity": 0,
      "is_motor": true,
      "motor_id": 1,
      "accel_val": 2000,
      "base_duration_us": 1406249
    },
    {
      "id": "M_481",
      "pitch": 60,
      "t_note_us": 109588920,
      "t_trigger_us": 109452957,
      "is_ai": false,
      "track_id": 0,
      "velocity": 0,
      "is_motor": true,
      "motor_id": 2,
      "accel_val": 2000,
      "base_duration_us": 1406249
    },
    {
      "id": "M_485",
      "pitch": 81,
      "t_note_us": 110995169,
      "t_trigger_us": 110859206,
      "is_ai": true,
      "track_id": 1,
      "velocity": 0,
      "is_motor": false,
      "motor_id": 0,
      "accel_val": 2000,
      "base_duration_us": 1696874
    },
    {
      "id": "M_486",
      "pitch": 83,
      "t_note_us": 111571731,
      "t_trigger_us": 111435768,
      "is_ai": true,
      "track_id": 2,
      "velocity": 0,
      "is_motor": false,
      "motor_id": 0,
      "accel_val": 2000,
      "base_duration_us": 1120312
    },
    {
      "id": "M_487",
      "pitch": 84,
      "t_note_us": 112115481,
      "t_trigger_us": 111979518,
      "is_ai": true,
      "track_id": 3,
      "velocity": 0,
      "is_motor": false,
      "motor_id": 0,
      "accel_val": 2000,
      "base_duration_us": 576562
    },
    {
      "id": "M_489",
      "pitch": 89,
      "t_note_us": 112692043,
      "t_trigger_us": 112556080,
      "is_ai": true,
      "track_id": 6,
      "velocity": 0,
      "is_motor": false,
      "motor_id": 0,
      "accel_val": 2000,
      "base_duration_us": 1695310
    },
    {
      "id": "M_493",
      "pitch": 88,
      "t_note_us": 112692043,
      "t_trigger_us": 112556080,
      "is_ai": true,
      "track_id": 5,
      "velocity": 0,
      "is_motor": false,
      "motor_id": 0,
      "accel_val": 2000,
      "base_duration_us": 1728122
    },
    {
      "id": "M_488",
      "pitch": 65,
      "t_note_us": 112692043,
      "t_trigger_us": 112556080,
      "is_ai": false,
      "track_id": 0,
      "velocity": 0,
      "is_motor": true,
      "motor_id": 1,
      "accel_val": 2000,
      "base_duration_us": 1153124
    },
    {
      "id": "M_490",
      "pitch": 50,
      "t_note_us": 112692043,
      "t_trigger_us": 112556080,
      "is_ai": false,
      "track_id": 0,
      "velocity": 0,
      "is_motor": true,
      "motor_id": 0,
      "accel_val": 2000,
      "base_duration_us": 1695310
    },
    {
      "id": "M_495",
      "pitch": 57,
      "t_note_us": 113268605,
      "t_trigger_us": 113132642,
      "is_ai": false,
      "track_id": 0,
      "velocity": 0,
      "is_motor": true,
      "motor_id": 2,
      "accel_val": 2000,
      "base_duration_us": 1151560
    },
    {
      "id": "M_491",
      "pitch": 64,
      "t_note_us": 113556105,
      "t_trigger_us": 113420142,
      "is_ai": false,
      "track_id": 0,
      "velocity": 0,
      "is_motor": true,
      "motor_id": 3,
      "accel_val": 2000,
      "base_duration_us": 831248
    },
    {
      "id": "M_494",
      "pitch": 65,
      "t_note_us": 113845167,
      "t_trigger_us": 113709204,
      "is_ai": false,
      "track_id": 0,
      "velocity": 0,
      "is_motor": true,
      "motor_id": 1,
      "accel_val": 2000,
      "base_duration_us": 574998
    },
    {
      "id": "M_492",
      "pitch": 81,
      "t_note_us": 114131104,
      "t_trigger_us": 113995141,
      "is_ai": true,
      "track_id": 1,
      "velocity": 0,
      "is_motor": false,
      "motor_id": 0,
      "accel_val": 2000,
      "base_duration_us": 289061
    },
    {
      "id": "M_499",
      "pitch": 86,
      "t_note_us": 114420165,
      "t_trigger_us": 114284202,
      "is_ai": true,
      "track_id": 4,
      "velocity": 0,
      "is_motor": false,
      "motor_id": 0,
      "accel_val": 2000,
      "base_duration_us": 1726561
    },
    {
      "id": "M_496",
      "pitch": 59,
      "t_note_us": 114420165,
      "t_trigger_us": 114284202,
      "is_ai": false,
      "track_id": 0,
      "velocity": 0,
      "is_motor": true,
      "motor_id": 0,
      "accel_val": 2000,
      "base_duration_us": 1695312
    },
    {
      "id": "M_500",
      "pitch": 68,
      "t_note_us": 114420165,
      "t_trigger_us": 114284202,
      "is_ai": false,
      "track_id": 0,
      "velocity": 0,
      "is_motor": true,
      "motor_id": 1,
      "accel_val": 2000,
      "base_duration_us": 1726561
    },
    {
      "id": "M_501",
      "pitch": 52,
      "t_note_us": 114420165,
      "t_trigger_us": 114284202,
      "is_ai": false,
      "track_id": 0,
      "velocity": 0,
      "is_motor": true,
      "motor_id": 2,
      "accel_val": 2000,
      "base_duration_us": 1726561
    },
    {
      "id": "M_497",
      "pitch": 84,
      "t_note_us": 114995165,
      "t_trigger_us": 114859202,
      "is_ai": true,
      "track_id": 3,
      "velocity": 0,
      "is_motor": false,
      "motor_id": 0,
      "accel_val": 2000,
      "base_duration_us": 1151561
    },
    {
      "id": "M_498",
      "pitch": 83,
      "t_note_us": 115571727,
      "t_trigger_us": 115435764,
      "is_ai": true,
      "track_id": 2,
      "velocity": 0,
      "is_motor": false,
      "motor_id": 0,
      "accel_val": 2000,
      "base_duration_us": 574999
    },
    {
      "id": "M_502",
      "pitch": 59,
      "t_note_us": 116146726,
      "t_trigger_us": 116010763,
      "is_ai": false,
      "track_id": 0,
      "velocity": 0,
      "is_motor": true,
      "motor_id": 0,
      "accel_val": 2000,
      "base_duration_us": 832812
    },
    {
      "id": "M_503",
      "pitch": 60,
      "t_note_us": 116146726,
      "t_trigger_us": 116010763,
      "is_ai": false,
      "track_id": 0,
      "velocity": 0,
      "is_motor": true,
      "motor_id": 1,
      "accel_val": 2000,
      "base_duration_us": 1120312
    },
    {
      "id": "M_505",
      "pitch": 57,
      "t_note_us": 116146726,
      "t_trigger_us": 116010763,
      "is_ai": false,
      "track_id": 0,
      "velocity": 0,
      "is_motor": true,
      "motor_id": 2,
      "accel_val": 2000,
      "base_duration_us": 1695312
    },
    {
      "id": "M_507",
      "pitch": 59,
      "t_note_us": 116979538,
      "t_trigger_us": 116843575,
      "is_ai": false,
      "track_id": 0,
      "velocity": 0,
      "is_motor": true,
      "motor_id": 0,
      "accel_val": 2000,
      "base_duration_us": 862500
    },
    {
      "id": "M_506",
      "pitch": 60,
      "t_note_us": 117267038,
      "t_trigger_us": 117131075,
      "is_ai": false,
      "track_id": 0,
      "velocity": 0,
      "is_motor": true,
      "motor_id": 1,
      "accel_val": 2000,
      "base_duration_us": 575000
    },
    {
      "id": "M_504",
      "pitch": 64,
      "t_note_us": 117554538,
      "t_trigger_us": 117418575,
      "is_ai": false,
      "track_id": 0,
      "velocity": 0,
      "is_motor": true,
      "motor_id": 3,
      "accel_val": 2000,
      "base_duration_us": 0
    },
    {
      "id": "M_508",
      "pitch": 67,
      "t_note_us": 117842038,
      "t_trigger_us": 117706075,
      "is_ai": false,
      "track_id": 0,
      "velocity": 0,
      "is_motor": true,
      "motor_id": 1,
      "accel_val": 2000,
      "base_duration_us": 1729686
    },
    {
      "id": "M_509",
      "pitch": 62,
      "t_note_us": 117842038,
      "t_trigger_us": 117706075,
      "is_ai": false,
      "track_id": 0,
      "velocity": 0,
      "is_motor": true,
      "motor_id": 0,
      "accel_val": 2000,
      "base_duration_us": 1729686
    },
    {
      "id": "M_510",
      "pitch": 58,
      "t_note_us": 117842038,
      "t_trigger_us": 117706075,
      "is_ai": false,
      "track_id": 0,
      "velocity": 0,
      "is_motor": true,
      "motor_id": 2,
      "accel_val": 2000,
      "base_duration_us": 1729686
    },
    {
      "id": "M_511",
      "pitch": 53,
      "t_note_us": 117842038,
      "t_trigger_us": 117706075,
      "is_ai": false,
      "track_id": 0,
      "velocity": 0,
      "is_motor": true,
      "motor_id": 3,
      "accel_val": 2000,
      "base_duration_us": 1729686
    },
    {
      "id": "M_512",
      "pitch": 81,
      "t_note_us": 118418600,
      "t_trigger_us": 118282637,
      "is_ai": true,
      "track_id": 1,
      "velocity": 0,
      "is_motor": false,
      "motor_id": 0,
      "accel_val": 2000,
      "base_duration_us": 1153124
    },
    {
      "id": "M_513",
      "pitch": 84,
      "t_note_us": 118995162,
      "t_trigger_us": 118859199,
      "is_ai": true,
      "track_id": 3,
      "velocity": 0,
      "is_motor": false,
      "motor_id": 0,
      "accel_val": 2000,
      "base_duration_us": 576562
    },
    {
      "id": "M_514",
      "pitch": 64,
      "t_note_us": 118995162,
      "t_trigger_us": 118859199,
      "is_ai": false,
      "track_id": 0,
      "velocity": 0,
      "is_motor": true,
      "motor_id": 0,
      "accel_val": 2000,
      "base_duration_us": 576562
    },
    {
      "id": "M_521",
      "pitch": 88,
      "t_note_us": 119571724,
      "t_trigger_us": 119435761,
      "is_ai": true,
      "track_id": 5,
      "velocity": 0,
      "is_motor": false,
      "motor_id": 0,
      "accel_val": 2000,
      "base_duration_us": 1724998
    },
    {
      "id": "M_515",
      "pitch": 48,
      "t_note_us": 119859224,
      "t_trigger_us": 119723261,
      "is_ai": false,
      "track_id": 0,
      "velocity": 0,
      "is_motor": true,
      "motor_id": 0,
      "accel_val": 2000,
      "base_duration_us": 543749
    },
    {
      "id": "M_517",
      "pitch": 79,
      "t_note_us": 120113911,
      "t_trigger_us": 119977948,
      "is_ai": true,
      "track_id": 0,
      "velocity": 0,
      "is_motor": false,
      "motor_id": 0,
      "accel_val": 2000,
      "base_duration_us": 1151562
    },
    {
      "id": "M_518",
      "pitch": 57,
      "t_note_us": 120113911,
      "t_trigger_us": 119977948,
      "is_ai": false,
      "track_id": 0,
      "velocity": 0,
      "is_motor": true,
      "motor_id": 1,
      "accel_val": 2000,
      "base_duration_us": 1151562
    },
    {
      "id": "M_516",
      "pitch": 48,
      "t_note_us": 120402973,
      "t_trigger_us": 120267010,
      "is_ai": false,
      "track_id": 0,
      "velocity": 0,
      "is_motor": true,
      "motor_id": 0,
      "accel_val": 2000,
      "base_duration_us": 575000
    },
    {
      "id": "M_522",
      "pitch": 83,
      "t_note_us": 120690473,
      "t_trigger_us": 120554510,
      "is_ai": true,
      "track_id": 2,
      "velocity": 0,
      "is_motor": false,
      "motor_id": 0,
      "accel_val": 2000,
      "base_duration_us": 606249
    },
    {
      "id": "M_523",
      "pitch": 55,
      "t_note_us": 120690473,
      "t_trigger_us": 120554510,
      "is_ai": false,
      "track_id": 0,
      "velocity": 0,
      "is_motor": true,
      "motor_id": 2,
      "accel_val": 2000,
      "base_duration_us": 606249
    },
    {
      "id": "M_520",
      "pitch": 48,
      "t_note_us": 120977973,
      "t_trigger_us": 120842010,
      "is_ai": false,
      "track_id": 0,
      "velocity": 0,
      "is_motor": true,
      "motor_id": 0,
      "accel_val": 2000,
      "base_duration_us": 287500
    },
    {
      "id": "M_519",
      "pitch": 41,
      "t_note_us": 121265473,
      "t_trigger_us": 121129510,
      "is_ai": false,
      "track_id": 0,
      "velocity": 0,
      "is_motor": true,
      "motor_id": 0,
      "accel_val": 2000,
      "base_duration_us": 0
    },
    {
      "id": "M_526",
      "pitch": 69,
      "t_note_us": 121265473,
      "t_trigger_us": 121129510,
      "is_ai": false,
      "track_id": 0,
      "velocity": 0,
      "is_motor": true,
      "motor_id": 1,
      "accel_val": 2000,
      "base_duration_us": 1693747
    },
    {
      "id": "M_527",
      "pitch": 67,
      "t_note_us": 121840471,
      "t_trigger_us": 121704508,
      "is_ai": false,
      "track_id": 0,
      "velocity": 0,
      "is_motor": true,
      "motor_id": 2,
      "accel_val": 2000,
      "base_duration_us": 1118749
    },
    {
      "id": "M_528",
      "pitch": 59,
      "t_note_us": 121840471,
      "t_trigger_us": 121704508,
      "is_ai": false,
      "track_id": 0,
      "velocity": 0,
      "is_motor": true,
      "motor_id": 0,
      "accel_val": 2000,
      "base_duration_us": 1118749
    },
    {
      "id": "M_524",
      "pitch": 50,
      "t_note_us": 122127971,
      "t_trigger_us": 121992008,
      "is_ai": false,
      "track_id": 0,
      "velocity": 0,
      "is_motor": true,
      "motor_id": 3,
      "accel_val": 2000,
      "base_duration_us": 0
    },
    {
      "id": "M_531",
      "pitch": 81,
      "t_note_us": 122415471,
      "t_trigger_us": 122279508,
      "is_ai": true,
      "track_id": 1,
      "velocity": 0,
      "is_motor": false,
      "motor_id": 0,
      "accel_val": 2000,
      "base_duration_us": 2267182
    },
    {
      "id": "M_525",
      "pitch": 55,
      "t_note_us": 122415471,
      "t_trigger_us": 122279508,
      "is_ai": false,
      "track_id": 0,
      "velocity": 0,
      "is_motor": true,
      "motor_id": 3,
      "accel_val": 2000,
      "base_duration_us": 543749
    },
    {
      "id": "M_529",
      "pitch": 50,
      "t_note_us": 122702971,
      "t_trigger_us": 122567008,
      "is_ai": false,
      "track_id": 0,
      "velocity": 0,
      "is_motor": true,
      "motor_id": 0,
      "accel_val": 2000,
      "base_duration_us": 256249
    },
    {
      "id": "M_533",
      "pitch": 40,
      "t_note_us": 122988907,
      "t_trigger_us": 122852944,
      "is_ai": false,
      "track_id": 0,
      "velocity": 0,
      "is_motor": true,
      "motor_id": 0,
      "accel_val": 2000,
      "base_duration_us": 1693746
    },
    {
      "id": "M_532",
      "pitch": 47,
      "t_note_us": 123277969,
      "t_trigger_us": 123142006,
      "is_ai": false,
      "track_id": 0,
      "velocity": 0,
      "is_motor": true,
      "motor_id": 1,
      "accel_val": 2000,
      "base_duration_us": 1404684
    },
    {
      "id": "M_536",
      "pitch": 83,
      "t_note_us": 123563906,
      "t_trigger_us": 123427943,
      "is_ai": true,
      "track_id": 2,
      "velocity": 0,
      "is_motor": false,
      "motor_id": 0,
      "accel_val": 2000,
      "base_duration_us": 1118747
    },
    {
      "id": "M_537",
      "pitch": 52,
      "t_note_us": 123563906,
      "t_trigger_us": 123427943,
      "is_ai": false,
      "track_id": 0,
      "velocity": 0,
      "is_motor": true,
      "motor_id": 2,
      "accel_val": 2000,
      "base_duration_us": 1118747
    },
    {
      "id": "M_530",
      "pitch": 55,
      "t_note_us": 123852968,
      "t_trigger_us": 123717005,
      "is_ai": false,
      "track_id": 0,
      "velocity": 0,
      "is_motor": true,
      "motor_id": 3,
      "accel_val": 2000,
      "base_duration_us": 543748
    },
    {
      "id": "M_538",
      "pitch": 59,
      "t_note_us": 124107655,
      "t_trigger_us": 123971692,
      "is_ai": false,
      "track_id": 0,
      "velocity": 0,
      "is_motor": true,
      "motor_id": 0,
      "accel_val": 2000,
      "base_duration_us": 574998
    },
    {
      "id": "M_535",
      "pitch": 55,
      "t_note_us": 124396716,
      "t_trigger_us": 124260753,
      "is_ai": false,
      "track_id": 0,
      "velocity": 0,
      "is_motor": true,
      "motor_id": 3,
      "accel_val": 2000,
      "base_duration_us": 285937
    },
    {
      "id": "M_534",
      "pitch": 79,
      "t_note_us": 124682653,
      "t_trigger_us": 124546690,
      "is_ai": true,
      "track_id": 0,
      "velocity": 0,
      "is_motor": false,
      "motor_id": 0,
      "accel_val": 2000,
      "base_duration_us": 0
    },
    {
      "id": "M_541",
      "pitch": 86,
      "t_note_us": 124682653,
      "t_trigger_us": 124546690,
      "is_ai": true,
      "track_id": 4,
      "velocity": 0,
      "is_motor": false,
      "motor_id": 0,
      "accel_val": 2000,
      "base_duration_us": 1726560
    },
    {
      "id": "M_542",
      "pitch": 86,
      "t_note_us": 124682653,
      "t_trigger_us": 124546690,
      "is_ai": true,
      "track_id": 4,
      "velocity": 0,
      "is_motor": false,
      "motor_id": 0,
      "accel_val": 2000,
      "base_duration_us": 1726560
    },
    {
      "id": "M_543",
      "pitch": 62,
      "t_note_us": 124682653,
      "t_trigger_us": 124546690,
      "is_ai": false,
      "track_id": 0,
      "velocity": 0,
      "is_motor": true,
      "motor_id": 1,
      "accel_val": 2000,
      "base_duration_us": 1726560
    },
    {
      "id": "M_540",
      "pitch": 52,
      "t_note_us": 124971715,
      "t_trigger_us": 124835752,
      "is_ai": false,
      "track_id": 0,
      "velocity": 0,
      "is_motor": true,
      "motor_id": 0,
      "accel_val": 2000,
      "base_duration_us": 1437498
    },
    {
      "id": "M_548",
      "pitch": 59,
      "t_note_us": 125257652,
      "t_trigger_us": 125121689,
      "is_ai": false,
      "track_id": 0,
      "velocity": 0,
      "is_motor": true,
      "motor_id": 2,
      "accel_val": 2000,
      "base_duration_us": 1151561
    },
    {
      "id": "M_547",
      "pitch": 60,
      "t_note_us": 125545152,
      "t_trigger_us": 125409189,
      "is_ai": false,
      "track_id": 0,
      "velocity": 0,
      "is_motor": true,
      "motor_id": 3,
      "accel_val": 2000,
      "base_duration_us": 864061
    },
    {
      "id": "M_544",
      "pitch": 84,
      "t_note_us": 125834214,
      "t_trigger_us": 125698251,
      "is_ai": true,
      "track_id": 3,
      "velocity": 0,
      "is_motor": false,
      "motor_id": 0,
      "accel_val": 2000,
      "base_duration_us": 574999
    },
    {
      "id": "M_545",
      "pitch": 84,
      "t_note_us": 125834214,
      "t_trigger_us": 125698251,
      "is_ai": true,
      "track_id": 3,
      "velocity": 0,
      "is_motor": false,
      "motor_id": 0,
      "accel_val": 2000,
      "base_duration_us": 574999
    },
    {
      "id": "M_546",
      "pitch": 64,
      "t_note_us": 125834214,
      "t_trigger_us": 125698251,
      "is_ai": false,
      "track_id": 0,
      "velocity": 0,
      "is_motor": true,
      "motor_id": 0,
      "accel_val": 2000,
      "base_duration_us": 574999
    },
    {
      "id": "M_539",
      "pitch": 67,
      "t_note_us": 126120151,
      "t_trigger_us": 125984188,
      "is_ai": false,
      "track_id": 0,
      "velocity": 0,
      "is_motor": true,
      "motor_id": 0,
      "accel_val": 2000,
      "base_duration_us": 289062
    },
    {
      "id": "M_554",
      "pitch": 83,
      "t_note_us": 126409213,
      "t_trigger_us": 126273250,
      "is_ai": true,
      "track_id": 2,
      "velocity": 0,
      "is_motor": false,
      "motor_id": 0,
      "accel_val": 2000,
      "base_duration_us": 1723435
    },
    {
      "id": "M_555",
      "pitch": 90,
      "t_note_us": 126409213,
      "t_trigger_us": 126273250,
      "is_ai": true,
      "track_id": 0,
      "velocity": 0,
      "is_motor": true,
      "motor_id": 3,
      "accel_val": 2000,
      "base_duration_us": 1723435
    },
    {
      "id": "M_552",
      "pitch": 54,
      "t_note_us": 126409213,
      "t_trigger_us": 126273250,
      "is_ai": false,
      "track_id": 0,
      "velocity": 0,
      "is_motor": true,
      "motor_id": 0,
      "accel_val": 2000,
      "base_duration_us": 1692186
    },
    {
      "id": "M_556",
      "pitch": 71,
      "t_note_us": 126409213,
      "t_trigger_us": 126273250,
      "is_ai": false,
      "track_id": 0,
      "velocity": 0,
      "is_motor": true,
      "motor_id": 1,
      "accel_val": 2000,
      "base_duration_us": 1723435
    },
    {
      "id": "M_549",
      "pitch": 60,
      "t_note_us": 126695150,
      "t_trigger_us": 126559187,
      "is_ai": false,
      "track_id": 0,
      "velocity": 0,
      "is_motor": true,
      "motor_id": 2,
      "accel_val": 2000,
      "base_duration_us": 575000
    },
    {
      "id": "M_550",
      "pitch": 64,
      "t_note_us": 126982650,
      "t_trigger_us": 126846687,
      "is_ai": false,
      "track_id": 0,
      "velocity": 0,
      "is_motor": true,
      "motor_id": 0,
      "accel_val": 2000,
      "base_duration_us": 575000
    },
    {
      "id": "M_553",
      "pitch": 64,
      "t_note_us": 127557650,
      "t_trigger_us": 127421687,
      "is_ai": false,
      "track_id": 0,
      "velocity": 0,
      "is_motor": true,
      "motor_id": 2,
      "accel_val": 2000,
      "base_duration_us": 574998
    },
    {
      "id": "M_551",
      "pitch": 60,
      "t_note_us": 127846712,
      "t_trigger_us": 127710749,
      "is_ai": false,
      "track_id": 0,
      "velocity": 0,
      "is_motor": true,
      "motor_id": 0,
      "accel_val": 2000,
      "base_duration_us": 0
    },
    {
      "id": "M_564",
      "pitch": 79,
      "t_note_us": 128101399,
      "t_trigger_us": 127965436,
      "is_ai": true,
      "track_id": 0,
      "velocity": 0,
      "is_motor": false,
      "motor_id": 0,
      "accel_val": 2000,
      "base_duration_us": 1724998
    },
    {
      "id": "M_565",
      "pitch": 75,
      "t_note_us": 128101399,
      "t_trigger_us": 127965436,
      "is_ai": false,
      "track_id": 0,
      "velocity": 0,
      "is_motor": true,
      "motor_id": 0,
      "accel_val": 2000,
      "base_duration_us": 1724998
    },
    {
      "id": "M_566",
      "pitch": 69,
      "t_note_us": 128101399,
      "t_trigger_us": 127965436,
      "is_ai": false,
      "track_id": 0,
      "velocity": 0,
      "is_motor": true,
      "motor_id": 0,
      "accel_val": 2000,
      "base_duration_us": 1724998
    },
    {
      "id": "M_560",
      "pitch": 53,
      "t_note_us": 128132648,
      "t_trigger_us": 127996685,
      "is_ai": false,
      "track_id": 0,
      "velocity": 0,
      "is_motor": true,
      "motor_id": 1,
      "accel_val": 2000,
      "base_duration_us": 1693749
    },
    {
      "id": "M_557",
      "pitch": 60,
      "t_note_us": 128420148,
      "t_trigger_us": 128284185,
      "is_ai": false,
      "track_id": 0,
      "velocity": 0,
      "is_motor": true,
      "motor_id": 2,
      "accel_val": 2000,
      "base_duration_us": 543749
    },
    {
      "id": "M_558",
      "pitch": 63,
      "t_note_us": 128707648,
      "t_trigger_us": 128571685,
      "is_ai": false,
      "track_id": 0,
      "velocity": 0,
      "is_motor": true,
      "motor_id": 3,
      "accel_val": 2000,
      "base_duration_us": 543749
    },
    {
      "id": "M_561",
      "pitch": 90,
      "t_note_us": 129251397,
      "t_trigger_us": 129115434,
      "is_ai": true,
      "track_id": 0,
      "velocity": 0,
      "is_motor": true,
      "motor_id": 3,
      "accel_val": 2000,
      "base_duration_us": 575000
    },
    {
      "id": "M_562",
      "pitch": 63,
      "t_note_us": 129251397,
      "t_trigger_us": 129115434,
      "is_ai": false,
      "track_id": 0,
      "velocity": 0,
      "is_motor": true,
      "motor_id": 2,
      "accel_val": 2000,
      "base_duration_us": 575000
    },
    {
      "id": "M_559",
      "pitch": 60,
      "t_note_us": 129538897,
      "t_trigger_us": 129402934,
      "is_ai": false,
      "track_id": 0,
      "velocity": 0,
      "is_motor": true,
      "motor_id": 0,
      "accel_val": 2000,
      "base_duration_us": 0
    },
    {
      "id": "M_563",
      "pitch": 81,
      "t_note_us": 129826397,
      "t_trigger_us": 129690434,
      "is_ai": true,
      "track_id": 1,
      "velocity": 0,
      "is_motor": false,
      "motor_id": 0,
      "accel_val": 2000,
      "base_duration_us": 0
    },
    {
      "id": "M_569",
      "pitch": 88,
      "t_note_us": 129826397,
      "t_trigger_us": 129690434,
      "is_ai": true,
      "track_id": 5,
      "velocity": 0,
      "is_motor": false,
      "motor_id": 0,
      "accel_val": 2000,
      "base_duration_us": 1725000
    },
    {
      "id": "M_570",
      "pitch": 71,
      "t_note_us": 129826397,
      "t_trigger_us": 129690434,
      "is_ai": false,
      "track_id": 0,
      "velocity": 0,
      "is_motor": true,
      "motor_id": 1,
      "accel_val": 2000,
      "base_duration_us": 1725000
    },
    {
      "id": "M_571",
      "pitch": 52,
      "t_note_us": 129826397,
      "t_trigger_us": 129690434,
      "is_ai": false,
      "track_id": 0,
      "velocity": 0,
      "is_motor": true,
      "motor_id": 0,
      "accel_val": 2000,
      "base_duration_us": 1725000
    },
    {
      "id": "M_568",
      "pitch": 62,
      "t_note_us": 130401397,
      "t_trigger_us": 130265434,
      "is_ai": false,
      "track_id": 0,
      "velocity": 0,
      "is_motor": true,
      "motor_id": 2,
      "accel_val": 2000,
      "base_duration_us": 575000
    },
    {
      "id": "M_567",
      "pitch": 59,
      "t_note_us": 130688897,
      "t_trigger_us": 130552934,
      "is_ai": false,
      "track_id": 0,
      "velocity": 0,
      "is_motor": true,
      "motor_id": 3,
      "accel_val": 2000,
      "base_duration_us": 0
    },
    {
      "id": "M_583",
      "pitch": 79,
      "t_note_us": 130976397,
      "t_trigger_us": 130840434,
      "is_ai": true,
      "track_id": 0,
      "velocity": 0,
      "is_motor": false,
      "motor_id": 0,
      "accel_val": 2000,
      "base_duration_us": 2268747
    },
    {
      "id": "M_573",
      "pitch": 62,
      "t_note_us": 130976397,
      "t_trigger_us": 130840434,
      "is_ai": false,
      "track_id": 0,
      "velocity": 0,
      "is_motor": true,
      "motor_id": 2,
      "accel_val": 2000,
      "base_duration_us": 575000
    },
    {
      "id": "M_572",
      "pitch": 59,
      "t_note_us": 131263897,
      "t_trigger_us": 131127934,
      "is_ai": false,
      "track_id": 0,
      "velocity": 0,
      "is_motor": true,
      "motor_id": 3,
      "accel_val": 2000,
      "base_duration_us": 287500
    },
    {
      "id": "M_577",
      "pitch": 89,
      "t_note_us": 131551397,
      "t_trigger_us": 131415434,
      "is_ai": true,
      "track_id": 6,
      "velocity": 0,
      "is_motor": false,
      "motor_id": 0,
      "accel_val": 2000,
      "base_duration_us": 1693747
    },
    {
      "id": "M_578",
      "pitch": 73,
      "t_note_us": 131551397,
      "t_trigger_us": 131415434,
      "is_ai": false,
      "track_id": 0,
      "velocity": 0,
      "is_motor": true,
      "motor_id": 1,
      "accel_val": 2000,
      "base_duration_us": 1693747
    },
    {
      "id": "M_579",
      "pitch": 67,
      "t_note_us": 131551397,
      "t_trigger_us": 131415434,
      "is_ai": false,
      "track_id": 0,
      "velocity": 0,
      "is_motor": true,
      "motor_id": 2,
      "accel_val": 2000,
      "base_duration_us": 1693747
    },
    {
      "id": "M_580",
      "pitch": 51,
      "t_note_us": 131551397,
      "t_trigger_us": 131415434,
      "is_ai": false,
      "track_id": 0,
      "velocity": 0,
      "is_motor": true,
      "motor_id": 0,
      "accel_val": 2000,
      "base_duration_us": 1693747
    },
    {
      "id": "M_574",
      "pitch": 58,
      "t_note_us": 131838897,
      "t_trigger_us": 131702934,
      "is_ai": false,
      "track_id": 0,
      "velocity": 0,
      "is_motor": true,
      "motor_id": 3,
      "accel_val": 2000,
      "base_duration_us": 543749
    },
    {
      "id": "M_576",
      "pitch": 58,
      "t_note_us": 132382646,
      "t_trigger_us": 132246683,
      "is_ai": false,
      "track_id": 0,
      "velocity": 0,
      "is_motor": true,
      "motor_id": 3,
      "accel_val": 2000,
      "base_duration_us": 574998
    },
    {
      "id": "M_582",
      "pitch": 88,
      "t_note_us": 132670146,
      "t_trigger_us": 132534183,
      "is_ai": true,
      "track_id": 5,
      "velocity": 0,
      "is_motor": false,
      "motor_id": 0,
      "accel_val": 2000,
      "base_duration_us": 574998
    },
    {
      "id": "M_575",
      "pitch": 61,
      "t_note_us": 132701395,
      "t_trigger_us": 132565432,
      "is_ai": false,
      "track_id": 0,
      "velocity": 0,
      "is_motor": true,
      "motor_id": 0,
      "accel_val": 2000,
      "base_duration_us": 0
    },
    {
      "id": "M_581",
      "pitch": 58,
      "t_note_us": 132957644,
      "t_trigger_us": 132821681,
      "is_ai": false,
      "track_id": 0,
      "velocity": 0,
      "is_motor": true,
      "motor_id": 3,
      "accel_val": 2000,
      "base_duration_us": 287500
    },
    {
      "id": "M_586",
      "pitch": 87,
      "t_note_us": 133245144,
      "t_trigger_us": 133109181,
      "is_ai": true,
      "track_id": 0,
      "velocity": 0,
      "is_motor": true,
      "motor_id": 3,
      "accel_val": 2000,
      "base_duration_us": 1756249
    },
    {
      "id": "M_587",
      "pitch": 84,
      "t_note_us": 133245144,
      "t_trigger_us": 133109181,
      "is_ai": true,
      "track_id": 3,
      "velocity": 0,
      "is_motor": false,
      "motor_id": 0,
      "accel_val": 2000,
      "base_duration_us": 1756249
    },
    {
      "id": "M_588",
      "pitch": 68,
      "t_note_us": 133245144,
      "t_trigger_us": 133109181,
      "is_ai": false,
      "track_id": 0,
      "velocity": 0,
      "is_motor": true,
      "motor_id": 1,
      "accel_val": 2000,
      "base_duration_us": 1756249
    },
    {
      "id": "M_589",
      "pitch": 66,
      "t_note_us": 133245144,
      "t_trigger_us": 133109181,
      "is_ai": false,
      "track_id": 0,
      "velocity": 0,
      "is_motor": true,
      "motor_id": 2,
      "accel_val": 2000,
      "base_duration_us": 1756249
    },
    {
      "id": "M_590",
      "pitch": 50,
      "t_note_us": 133245144,
      "t_trigger_us": 133109181,
      "is_ai": false,
      "track_id": 0,
      "velocity": 0,
      "is_motor": true,
      "motor_id": 0,
      "accel_val": 2000,
      "base_duration_us": 1756249
    },
    {
      "id": "M_591",
      "pitch": 54,
      "t_note_us": 133531081,
      "t_trigger_us": 133395118,
      "is_ai": false,
      "track_id": 0,
      "velocity": 0,
      "is_motor": true,
      "motor_id": 0,
      "accel_val": 2000,
      "base_duration_us": 1470312
    },
    {
      "id": "M_593",
      "pitch": 86,
      "t_note_us": 134426393,
      "t_trigger_us": 134290430,
      "is_ai": true,
      "track_id": 4,
      "velocity": 0,
      "is_motor": false,
      "motor_id": 0,
      "accel_val": 2000,
      "base_duration_us": 1820311
    },
    {
      "id": "M_584",
      "pitch": 60,
      "t_note_us": 134426393,
      "t_trigger_us": 134290430,
      "is_ai": false,
      "track_id": 0,
      "velocity": 0,
      "is_motor": true,
      "motor_id": 0,
      "accel_val": 2000,
      "base_duration_us": 0
    },
    {
      "id": "M_585",
      "pitch": 56,
      "t_note_us": 134713893,
      "t_trigger_us": 134577930,
      "is_ai": false,
      "track_id": 0,
      "velocity": 0,
      "is_motor": true,
      "motor_id": 0,
      "accel_val": 2000,
      "base_duration_us": 0
    },
    {
      "id": "M_595",
      "pitch": 60,
      "t_note_us": 135001393,
      "t_trigger_us": 134865430,
      "is_ai": false,
      "track_id": 0,
      "velocity": 0,
      "is_motor": true,
      "motor_id": 1,
      "accel_val": 2000,
      "base_duration_us": 1245311
    },
    {
      "id": "M_592",
      "pitch": 56,
      "t_note_us": 135320143,
      "t_trigger_us": 135184180,
      "is_ai": false,
      "track_id": 0,
      "velocity": 0,
      "is_motor": true,
      "motor_id": 0,
      "accel_val": 2000,
      "base_duration_us": 606249
    },
    {
      "id": "M_598",
      "pitch": 62,
      "t_note_us": 135640455,
      "t_trigger_us": 135504492,
      "is_ai": false,
      "track_id": 0,
      "velocity": 0,
      "is_motor": true,
      "motor_id": 2,
      "accel_val": 2000,
      "base_duration_us": 1276561
    },
    {
      "id": "M_594",
      "pitch": 56,
      "t_note_us": 135926392,
      "t_trigger_us": 135790429,
      "is_ai": false,
      "track_id": 0,
      "velocity": 0,
      "is_motor": true,
      "motor_id": 0,
      "accel_val": 2000,
      "base_duration_us": 320312
    },
    {
      "id": "M_602",
      "pitch": 87,
      "t_note_us": 136246704,
      "t_trigger_us": 136110741,
      "is_ai": true,
      "track_id": 0,
      "velocity": 0,
      "is_motor": true,
      "motor_id": 3,
      "accel_val": 2000,
      "base_duration_us": 4829683
    },
    {
      "id": "M_596",
      "pitch": 43,
      "t_note_us": 136246704,
      "t_trigger_us": 136110741,
      "is_ai": false,
      "track_id": 0,
      "velocity": 0,
      "is_motor": true,
      "motor_id": 0,
      "accel_val": 2000,
      "base_duration_us": 637500
    },
    {
      "id": "M_603",
      "pitch": 71,
      "t_note_us": 136246704,
      "t_trigger_us": 136110741,
      "is_ai": false,
      "track_id": 0,
      "velocity": 0,
      "is_motor": true,
      "motor_id": 1,
      "accel_val": 2000,
      "base_duration_us": 4829683
    },
    {
      "id": "M_604",
      "pitch": 68,
      "t_note_us": 136246704,
      "t_trigger_us": 136110741,
      "is_ai": false,
      "track_id": 0,
      "velocity": 0,
      "is_motor": true,
      "motor_id": 0,
      "accel_val": 2000,
      "base_duration_us": 4829683
    },
    {
      "id": "M_605",
      "pitch": 65,
      "t_note_us": 136246704,
      "t_trigger_us": 136110741,
      "is_ai": false,
      "track_id": 0,
      "velocity": 0,
      "is_motor": true,
      "motor_id": 0,
      "accel_val": 2000,
      "base_duration_us": 4829683
    },
    {
      "id": "M_597",
      "pitch": 53,
      "t_note_us": 136565454,
      "t_trigger_us": 136429491,
      "is_ai": false,
      "track_id": 0,
      "velocity": 0,
      "is_motor": true,
      "motor_id": 0,
      "accel_val": 2000,
      "base_duration_us": 318750
    },
    {
      "id": "M_606",
      "pitch": 56,
      "t_note_us": 136884204,
      "t_trigger_us": 136748241,
      "is_ai": false,
      "track_id": 0,
      "velocity": 0,
      "is_motor": true,
      "motor_id": 0,
      "accel_val": 2000,
      "base_duration_us": 4192183
    },
    {
      "id": "M_600",
      "pitch": 62,
      "t_note_us": 137556078,
      "t_trigger_us": 137420115,
      "is_ai": false,
      "track_id": 0,
      "velocity": 0,
      "is_motor": true,
      "motor_id": 2,
      "accel_val": 2000,
      "base_duration_us": 671874
    },
    {
      "id": "M_599",
      "pitch": 59,
      "t_note_us": 137874828,
      "t_trigger_us": 137738865,
      "is_ai": false,
      "track_id": 0,
      "velocity": 0,
      "is_motor": true,
      "motor_id": 0,
      "accel_val": 2000,
      "base_duration_us": 0
    },
    {
      "id": "M_601",
      "pitch": 55,
      "t_note_us": 138227952,
      "t_trigger_us": 138091989,
      "is_ai": false,
      "track_id": 0,
      "velocity": 0,
      "is_motor": true,
      "motor_id": 2,
      "accel_val": 2000,
      "base_duration_us": 2110937
    },
    {
      "id": "M_608",
      "pitch": 74,
      "t_note_us": 138227952,
      "t_trigger_us": 138091989,
      "is_ai": false,
      "track_id": 0,
      "velocity": 0,
      "is_motor": true,
      "motor_id": 0,
      "accel_val": 2000,
      "base_duration_us": 2848435
    },
    {
      "id": "M_609",
      "pitch": 62,
      "t_note_us": 138227952,
      "t_trigger_us": 138091989,
      "is_ai": false,
      "track_id": 0,
      "velocity": 0,
      "is_motor": true,
      "motor_id": 0,
      "accel_val": 2000,
      "base_duration_us": 2848435
    },
    {
      "id": "M_610",
      "pitch": 59,
      "t_note_us": 138227952,
      "t_trigger_us": 138091989,
      "is_ai": false,
      "track_id": 0,
      "velocity": 0,
      "is_motor": true,
      "motor_id": 0,
      "accel_val": 2000,
      "base_duration_us": 2848435
    },
    {
      "id": "M_611",
      "pitch": 53,
      "t_note_us": 138227952,
      "t_trigger_us": 138091989,
      "is_ai": false,
      "track_id": 0,
      "velocity": 0,
      "is_motor": true,
      "motor_id": 0,
      "accel_val": 2000,
      "base_duration_us": 2848435
    },
    {
      "id": "M_612",
      "pitch": 55,
      "t_note_us": 140338889,
      "t_trigger_us": 140202926,
      "is_ai": false,
      "track_id": 0,
      "velocity": 0,
      "is_motor": true,
      "motor_id": 2,
      "accel_val": 2000,
      "base_duration_us": 737498
    },
    {
      "id": "M_607",
      "pitch": 64,
      "t_note_us": 141076387,
      "t_trigger_us": 140940424,
      "is_ai": false,
      "track_id": 0,
      "velocity": 0,
      "is_motor": true,
      "motor_id": 1,
      "accel_val": 2000,
      "base_duration_us": 0
    },
    {
      "id": "M_613",
      "pitch": 79,
      "t_note_us": 141363887,
      "t_trigger_us": 141227924,
      "is_ai": true,
      "track_id": 0,
      "velocity": 0,
      "is_motor": false,
      "motor_id": 0,
      "accel_val": 2000,
      "base_duration_us": 543749
    },
    {
      "id": "M_617",
      "pitch": 84,
      "t_note_us": 141620136,
      "t_trigger_us": 141484173,
      "is_ai": true,
      "track_id": 3,
      "velocity": 0,
      "is_motor": false,
      "motor_id": 0,
      "accel_val": 2000,
      "base_duration_us": 1087498
    },
    {
      "id": "M_614",
      "pitch": 79,
      "t_note_us": 141907636,
      "t_trigger_us": 141771673,
      "is_ai": true,
      "track_id": 0,
      "velocity": 0,
      "is_motor": false,
      "motor_id": 0,
      "accel_val": 2000,
      "base_duration_us": 543749
    },
    {
      "id": "M_616",
      "pitch": 62,
      "t_note_us": 142162323,
      "t_trigger_us": 142026360,
      "is_ai": false,
      "track_id": 0,
      "velocity": 0,
      "is_motor": true,
      "motor_id": 1,
      "accel_val": 2000,
      "base_duration_us": 545311
    },
    {
      "id": "M_618",
      "pitch": 79,
      "t_note_us": 142451385,
      "t_trigger_us": 142315422,
      "is_ai": true,
      "track_id": 0,
      "velocity": 0,
      "is_motor": false,
      "motor_id": 0,
      "accel_val": 2000,
      "base_duration_us": 285936
    },
    {
      "id": "M_615",
      "pitch": 60,
      "t_note_us": 142451385,
      "t_trigger_us": 142315422,
      "is_ai": false,
      "track_id": 0,
      "velocity": 0,
      "is_motor": true,
      "motor_id": 0,
      "accel_val": 2000,
      "base_duration_us": 0
    },
    {
      "id": "M_619",
      "pitch": 79,
      "t_note_us": 142993570,
      "t_trigger_us": 142857607,
      "is_ai": true,
      "track_id": 0,
      "velocity": 0,
      "is_motor": false,
      "motor_id": 0,
      "accel_val": 2000,
      "base_duration_us": 543749
    },
    {
      "id": "M_621",
      "pitch": 84,
      "t_note_us": 143249819,
      "t_trigger_us": 143113856,
      "is_ai": true,
      "track_id": 3,
      "velocity": 0,
      "is_motor": false,
      "motor_id": 0,
      "accel_val": 2000,
      "base_duration_us": 1085935
    },
    {
      "id": "M_622",
      "pitch": 67,
      "t_note_us": 143793568,
      "t_trigger_us": 143657605,
      "is_ai": false,
      "track_id": 0,
      "velocity": 0,
      "is_motor": true,
      "motor_id": 1,
      "accel_val": 2000,
      "base_duration_us": 542186
    },
    {
      "id": "M_620",
      "pitch": 79,
      "t_note_us": 144079505,
      "t_trigger_us": 143943542,
      "is_ai": true,
      "track_id": 0,
      "velocity": 0,
      "is_motor": false,
      "motor_id": 0,
      "accel_val": 2000,
      "base_duration_us": 0
    },
    {
      "id": "M_623",
      "pitch": 64,
      "t_note_us": 144335754,
      "t_trigger_us": 144199791,
      "is_ai": false,
      "track_id": 0,
      "velocity": 0,
      "is_motor": true,
      "motor_id": 1,
      "accel_val": 2000,
      "base_duration_us": 0
    },
    {
      "id": "M_624",
      "pitch": 60,
      "t_note_us": 144335754,
      "t_trigger_us": 144199791,
      "is_ai": false,
      "track_id": 0,
      "velocity": 0,
      "is_motor": true,
      "motor_id": 0,
      "accel_val": 2000,
      "base_duration_us": 0
    },
    {
      "id": "M_628",
      "pitch": 84,
      "t_note_us": 144879503,
      "t_trigger_us": 144743540,
      "is_ai": true,
      "track_id": 3,
      "velocity": 0,
      "is_motor": false,
      "motor_id": 0,
      "accel_val": 2000,
      "base_duration_us": 1629684
    },
    {
      "id": "M_625",
      "pitch": 79,
      "t_note_us": 145167003,
      "t_trigger_us": 145031040,
      "is_ai": true,
      "track_id": 0,
      "velocity": 0,
      "is_motor": false,
      "motor_id": 0,
      "accel_val": 2000,
      "base_duration_us": 0
    },
    {
      "id": "M_626",
      "pitch": 91,
      "t_note_us": 145423252,
      "t_trigger_us": 145287289,
      "is_ai": true,
      "track_id": 7,
      "velocity": 0,
      "is_motor": false,
      "motor_id": 0,
      "accel_val": 2000,
      "base_duration_us": 543749
    },
    {
      "id": "M_634",
      "pitch": 91,
      "t_note_us": 145967001,
      "t_trigger_us": 145831038,
      "is_ai": true,
      "track_id": 7,
      "velocity": 0,
      "is_motor": false,
      "motor_id": 0,
      "accel_val": 2000,
      "base_duration_us": 1660934
    },
    {
      "id": "M_627",
      "pitch": 79,
      "t_note_us": 146252938,
      "t_trigger_us": 146116975,
      "is_ai": true,
      "track_id": 0,
      "velocity": 0,
      "is_motor": false,
      "motor_id": 0,
      "accel_val": 2000,
      "base_duration_us": 0
    },
    {
      "id": "M_632",
      "pitch": 84,
      "t_note_us": 146509187,
      "t_trigger_us": 146373224,
      "is_ai": true,
      "track_id": 3,
      "velocity": 0,
      "is_motor": false,
      "motor_id": 0,
      "accel_val": 2000,
      "base_duration_us": 1118748
    },
    {
      "id": "M_629",
      "pitch": 79,
      "t_note_us": 146796687,
      "t_trigger_us": 146660724,
      "is_ai": true,
      "track_id": 0,
      "velocity": 0,
      "is_motor": false,
      "motor_id": 0,
      "accel_val": 2000,
      "base_duration_us": 543749
    },
    {
      "id": "M_633",
      "pitch": 64,
      "t_note_us": 147052936,
      "t_trigger_us": 146916973,
      "is_ai": false,
      "track_id": 0,
      "velocity": 0,
      "is_motor": true,
      "motor_id": 1,
      "accel_val": 2000,
      "base_duration_us": 574999
    },
    {
      "id": "M_630",
      "pitch": 79,
      "t_note_us": 147340436,
      "t_trigger_us": 147204473,
      "is_ai": true,
      "track_id": 0,
      "velocity": 0,
      "is_motor": false,
      "motor_id": 0,
      "accel_val": 2000,
      "base_duration_us": 287499
    },
    {
      "id": "M_631",
      "pitch": 67,
      "t_note_us": 147340436,
      "t_trigger_us": 147204473,
      "is_ai": false,
      "track_id": 0,
      "velocity": 0,
      "is_motor": true,
      "motor_id": 2,
      "accel_val": 2000,
      "base_duration_us": 287499
    },
    {
      "id": "M_639",
      "pitch": 62,
      "t_note_us": 147595123,
      "t_trigger_us": 147459160,
      "is_ai": false,
      "track_id": 0,
      "velocity": 0,
      "is_motor": true,
      "motor_id": 0,
      "accel_val": 2000,
      "base_duration_us": 1662494
    },
    {
      "id": "M_643",
      "pitch": 65,
      "t_note_us": 147627935,
      "t_trigger_us": 147491972,
      "is_ai": false,
      "track_id": 0,
      "velocity": 0,
      "is_motor": true,
      "motor_id": 1,
      "accel_val": 2000,
      "base_duration_us": 3259365
    },
    {
      "id": "M_635",
      "pitch": 79,
      "t_note_us": 147882622,
      "t_trigger_us": 147746659,
      "is_ai": true,
      "track_id": 0,
      "velocity": 0,
      "is_motor": false,
      "motor_id": 0,
      "accel_val": 2000,
      "base_duration_us": 543749
    },
    {
      "id": "M_640",
      "pitch": 84,
      "t_note_us": 148170122,
      "t_trigger_us": 148034159,
      "is_ai": true,
      "track_id": 3,
      "velocity": 0,
      "is_motor": false,
      "motor_id": 0,
      "accel_val": 2000,
      "base_duration_us": 1631244
    },
    {
      "id": "M_638",
      "pitch": 91,
      "t_note_us": 148713869,
      "t_trigger_us": 148577906,
      "is_ai": true,
      "track_id": 7,
      "velocity": 0,
      "is_motor": false,
      "motor_id": 0,
      "accel_val": 2000,
      "base_duration_us": 543748
    },
    {
      "id": "M_636",
      "pitch": 79,
      "t_note_us": 148968556,
      "t_trigger_us": 148832593,
      "is_ai": true,
      "track_id": 0,
      "velocity": 0,
      "is_motor": false,
      "motor_id": 0,
      "accel_val": 2000,
      "base_duration_us": 0
    },
    {
      "id": "M_637",
      "pitch": 57,
      "t_note_us": 149224805,
      "t_trigger_us": 149088842,
      "is_ai": false,
      "track_id": 0,
      "velocity": 0,
      "is_motor": true,
      "motor_id": 2,
      "accel_val": 2000,
      "base_duration_us": 0
    },
    {
      "id": "M_645",
      "pitch": 91,
      "t_note_us": 149257617,
      "t_trigger_us": 149121654,
      "is_ai": true,
      "track_id": 7,
      "velocity": 0,
      "is_motor": false,
      "motor_id": 0,
      "accel_val": 2000,
      "base_duration_us": 1629683
    },
    {
      "id": "M_646",
      "pitch": 53,
      "t_note_us": 149257617,
      "t_trigger_us": 149121654,
      "is_ai": false,
      "track_id": 0,
      "velocity": 0,
      "is_motor": true,
      "motor_id": 0,
      "accel_val": 2000,
      "base_duration_us": 1629683
    },
    {
      "id": "M_641",
      "pitch": 79,
      "t_note_us": 149512304,
      "t_trigger_us": 149376341,
      "is_ai": true,
      "track_id": 0,
      "velocity": 0,
      "is_motor": false,
      "motor_id": 0,
      "accel_val": 2000,
      "base_duration_us": 543749
    },
    {
      "id": "M_647",
      "pitch": 84,
      "t_note_us": 149801366,
      "t_trigger_us": 149665403,
      "is_ai": true,
      "track_id": 3,
      "velocity": 0,
      "is_motor": false,
      "motor_id": 0,
      "accel_val": 2000,
      "base_duration_us": 1085934
    },
    {
      "id": "M_642",
      "pitch": 79,
      "t_note_us": 150056053,
      "t_trigger_us": 149920090,
      "is_ai": true,
      "track_id": 0,
      "velocity": 0,
      "is_motor": false,
      "motor_id": 0,
      "accel_val": 2000,
      "base_duration_us": 543749
    },
    {
      "id": "M_644",
      "pitch": 64,
      "t_note_us": 150343553,
      "t_trigger_us": 150207590,
      "is_ai": false,
      "track_id": 0,
      "velocity": 0,
      "is_motor": true,
      "motor_id": 2,
      "accel_val": 2000,
      "base_duration_us": 543747
    },
    {
      "id": "M_648",
      "pitch": 62,
      "t_note_us": 150887300,
      "t_trigger_us": 150751337,
      "is_ai": false,
      "track_id": 0,
      "velocity": 0,
      "is_motor": true,
      "motor_id": 1,
      "accel_val": 2000,
      "base_duration_us": 0
    },
    {
      "id": "M_655",
      "pitch": 60,
      "t_note_us": 150887300,
      "t_trigger_us": 150751337,
      "is_ai": false,
      "track_id": 0,
      "velocity": 0,
      "is_motor": true,
      "motor_id": 0,
      "accel_val": 2000,
      "base_duration_us": 1629685
    },
    {
      "id": "M_656",
      "pitch": 55,
      "t_note_us": 150887300,
      "t_trigger_us": 150751337,
      "is_ai": false,
      "track_id": 0,
      "velocity": 0,
      "is_motor": true,
      "motor_id": 2,
      "accel_val": 2000,
      "base_duration_us": 1629685
    },
    {
      "id": "M_649",
      "pitch": 79,
      "t_note_us": 151141987,
      "t_trigger_us": 151006024,
      "is_ai": true,
      "track_id": 0,
      "velocity": 0,
      "is_motor": false,
      "motor_id": 0,
      "accel_val": 2000,
      "base_duration_us": 0
    },
    {
      "id": "M_651",
      "pitch": 86,
      "t_note_us": 151429487,
      "t_trigger_us": 151293524,
      "is_ai": true,
      "track_id": 4,
      "velocity": 0,
      "is_motor": false,
      "motor_id": 0,
      "accel_val": 2000,
      "base_duration_us": 1087498
    },
    {
      "id": "M_652",
      "pitch": 59,
      "t_note_us": 151429487,
      "t_trigger_us": 151293524,
      "is_ai": false,
      "track_id": 0,
      "velocity": 0,
      "is_motor": true,
      "motor_id": 1,
      "accel_val": 2000,
      "base_duration_us": 1087498
    },
    {
      "id": "M_653",
      "pitch": 91,
      "t_note_us": 151973236,
      "t_trigger_us": 151837273,
      "is_ai": true,
      "track_id": 7,
      "velocity": 0,
      "is_motor": false,
      "motor_id": 0,
      "accel_val": 2000,
      "base_duration_us": 543749
    },
    {
      "id": "M_654",
      "pitch": 57,
      "t_note_us": 151973236,
      "t_trigger_us": 151837273,
      "is_ai": false,
      "track_id": 0,
      "velocity": 0,
      "is_motor": true,
      "motor_id": 3,
      "accel_val": 2000,
      "base_duration_us": 543749
    },
    {
      "id": "M_650",
      "pitch": 79,
      "t_note_us": 152227923,
      "t_trigger_us": 152091960,
      "is_ai": true,
      "track_id": 0,
      "velocity": 0,
      "is_motor": false,
      "motor_id": 0,
      "accel_val": 2000,
      "base_duration_us": 0
    },
    {
      "id": "M_657",
      "pitch": 79,
      "t_note_us": 152516985,
      "t_trigger_us": 152381022,
      "is_ai": true,
      "track_id": 0,
      "velocity": 0,
      "is_motor": false,
      "motor_id": 0,
      "accel_val": 2000,
      "base_duration_us": 0
    },
    {
      "id": "M_664",
      "pitch": 91,
      "t_note_us": 152516985,
      "t_trigger_us": 152381022,
      "is_ai": true,
      "track_id": 7,
      "velocity": 0,
      "is_motor": false,
      "motor_id": 0,
      "accel_val": 2000,
      "base_duration_us": 1629682
    },
    {
      "id": "M_665",
      "pitch": 55,
      "t_note_us": 152516985,
      "t_trigger_us": 152381022,
      "is_ai": false,
      "track_id": 0,
      "velocity": 0,
      "is_motor": true,
      "motor_id": 0,
      "accel_val": 2000,
      "base_duration_us": 1629682
    },
    {
      "id": "M_666",
      "pitch": 43,
      "t_note_us": 152516985,
      "t_trigger_us": 152381022,
      "is_ai": false,
      "track_id": 0,
      "velocity": 0,
      "is_motor": true,
      "motor_id": 1,
      "accel_val": 2000,
      "base_duration_us": 1629682
    },
    {
      "id": "M_668",
      "pitch": 89,
      "t_note_us": 152773234,
      "t_trigger_us": 152637271,
      "is_ai": true,
      "track_id": 6,
      "velocity": 0,
      "is_motor": false,
      "motor_id": 0,
      "accel_val": 2000,
      "base_duration_us": 1373433
    },
    {
      "id": "M_661",
      "pitch": 50,
      "t_note_us": 152804483,
      "t_trigger_us": 152668520,
      "is_ai": false,
      "track_id": 0,
      "velocity": 0,
      "is_motor": true,
      "motor_id": 2,
      "accel_val": 2000,
      "base_duration_us": 1342184
    },
    {
      "id": "M_662",
      "pitch": 84,
      "t_note_us": 153059170,
      "t_trigger_us": 152923207,
      "is_ai": true,
      "track_id": 3,
      "velocity": 0,
      "is_motor": false,
      "motor_id": 0,
      "accel_val": 2000,
      "base_duration_us": 1087497
    },
    {
      "id": "M_663",
      "pitch": 53,
      "t_note_us": 153059170,
      "t_trigger_us": 152923207,
      "is_ai": false,
      "track_id": 0,
      "velocity": 0,
      "is_motor": true,
      "motor_id": 3,
      "accel_val": 2000,
      "base_duration_us": 1087497
    },
    {
      "id": "M_667",
      "pitch": 81,
      "t_note_us": 153315419,
      "t_trigger_us": 153179456,
      "is_ai": true,
      "track_id": 1,
      "velocity": 0,
      "is_motor": false,
      "motor_id": 0,
      "accel_val": 2000,
      "base_duration_us": 831248
    },
    {
      "id": "M_660",
      "pitch": 57,
      "t_note_us": 153346668,
      "t_trigger_us": 153210705,
      "is_ai": false,
      "track_id": 0,
      "velocity": 0,
      "is_motor": true,
      "motor_id": 0,
      "accel_val": 2000,
      "base_duration_us": 799999
    },
    {
      "id": "M_658",
      "pitch": 79,
      "t_note_us": 153602917,
      "t_trigger_us": 153466954,
      "is_ai": true,
      "track_id": 0,
      "velocity": 0,
      "is_motor": false,
      "motor_id": 0,
      "accel_val": 2000,
      "base_duration_us": 0
    },
    {
      "id": "M_659",
      "pitch": 62,
      "t_note_us": 153602917,
      "t_trigger_us": 153466954,
      "is_ai": false,
      "track_id": 0,
      "velocity": 0,
      "is_motor": true,
      "motor_id": 0,
      "accel_val": 2000,
      "base_duration_us": 543750
    },
    {
      "id": "M_671",
      "pitch": 88,
      "t_note_us": 154146667,
      "t_trigger_us": 154010704,
      "is_ai": true,
      "track_id": 5,
      "velocity": 0,
      "is_motor": false,
      "motor_id": 0,
      "accel_val": 2000,
      "base_duration_us": 1631246
    },
    {
      "id": "M_672",
      "pitch": 48,
      "t_note_us": 154146667,
      "t_trigger_us": 154010704,
      "is_ai": false,
      "track_id": 0,
      "velocity": 0,
      "is_motor": true,
      "motor_id": 0,
      "accel_val": 2000,
      "base_duration_us": 1631246
    },
    {
      "id": "M_670",
      "pitch": 55,
      "t_note_us": 154435729,
      "t_trigger_us": 154299766,
      "is_ai": false,
      "track_id": 0,
      "velocity": 0,
      "is_motor": true,
      "motor_id": 1,
      "accel_val": 2000,
      "base_duration_us": 1085935
    },
    {
      "id": "M_675",
      "pitch": 62,
      "t_note_us": 154977915,
      "t_trigger_us": 154841952,
      "is_ai": false,
      "track_id": 0,
      "velocity": 0,
      "is_motor": true,
      "motor_id": 2,
      "accel_val": 2000,
      "base_duration_us": 831247
    },
    {
      "id": "M_674",
      "pitch": 86,
      "t_note_us": 155234164,
      "t_trigger_us": 155098201,
      "is_ai": true,
      "track_id": 4,
      "velocity": 0,
      "is_motor": false,
      "motor_id": 0,
      "accel_val": 2000,
      "base_duration_us": 574998
    },
    {
      "id": "M_669",
      "pitch": 60,
      "t_note_us": 155234164,
      "t_trigger_us": 155098201,
      "is_ai": false,
      "track_id": 0,
      "velocity": 0,
      "is_motor": true,
      "motor_id": 3,
      "accel_val": 2000,
      "base_duration_us": 0
    },
    {
      "id": "M_676",
      "pitch": 84,
      "t_note_us": 155521664,
      "t_trigger_us": 155385701,
      "is_ai": true,
      "track_id": 3,
      "velocity": 0,
      "is_motor": false,
      "motor_id": 0,
      "accel_val": 2000,
      "base_duration_us": 287498
    },
    {
      "id": "M_673",
      "pitch": 55,
      "t_note_us": 155521664,
      "t_trigger_us": 155385701,
      "is_ai": false,
      "track_id": 0,
      "velocity": 0,
      "is_motor": true,
      "motor_id": 1,
      "accel_val": 2000,
      "base_duration_us": 256249
    },
    {
      "id": "M_677",
      "pitch": 88,
      "t_note_us": 155777913,
      "t_trigger_us": 155641950,
      "is_ai": true,
      "track_id": 5,
      "velocity": 0,
      "is_motor": false,
      "motor_id": 0,
      "accel_val": 2000,
      "base_duration_us": 1085934
    },
    {
      "id": "M_679",
      "pitch": 48,
      "t_note_us": 155777913,
      "t_trigger_us": 155641950,
      "is_ai": false,
      "track_id": 0,
      "velocity": 0,
      "is_motor": true,
      "motor_id": 0,
      "accel_val": 2000,
      "base_duration_us": 1117183
    },
    {
      "id": "M_680",
      "pitch": 55,
      "t_note_us": 156063849,
      "t_trigger_us": 155927886,
      "is_ai": false,
      "track_id": 0,
      "velocity": 0,
      "is_motor": true,
      "motor_id": 1,
      "accel_val": 2000,
      "base_duration_us": 1087496
    },
    {
      "id": "M_678",
      "pitch": 60,
      "t_note_us": 156320098,
      "t_trigger_us": 156184135,
      "is_ai": false,
      "track_id": 0,
      "velocity": 0,
      "is_motor": true,
      "motor_id": 2,
      "accel_val": 2000,
      "base_duration_us": 574998
    },
    {
      "id": "M_684",
      "pitch": 62,
      "t_note_us": 156609160,
      "t_trigger_us": 156473197,
      "is_ai": false,
      "track_id": 0,
      "velocity": 0,
      "is_motor": true,
      "motor_id": 3,
      "accel_val": 2000,
      "base_duration_us": 798434
    },
    {
      "id": "M_681",
      "pitch": 88,
      "t_note_us": 156863847,
      "t_trigger_us": 156727884,
      "is_ai": true,
      "track_id": 5,
      "velocity": 0,
      "is_motor": false,
      "motor_id": 0,
      "accel_val": 2000,
      "base_duration_us": 543747
    },
    {
      "id": "M_685",
      "pitch": 60,
      "t_note_us": 156895096,
      "t_trigger_us": 156759133,
      "is_ai": false,
      "track_id": 0,
      "velocity": 0,
      "is_motor": true,
      "motor_id": 0,
      "accel_val": 2000,
      "base_duration_us": 512498
    },
    {
      "id": "M_686",
      "pitch": 48,
      "t_note_us": 156895096,
      "t_trigger_us": 156759133,
      "is_ai": false,
      "track_id": 0,
      "velocity": 0,
      "is_motor": true,
      "motor_id": 2,
      "accel_val": 2000,
      "base_duration_us": 512498
    },
    {
      "id": "M_683",
      "pitch": 55,
      "t_note_us": 157151345,
      "t_trigger_us": 157015382,
      "is_ai": false,
      "track_id": 0,
      "velocity": 0,
      "is_motor": true,
      "motor_id": 1,
      "accel_val": 2000,
      "base_duration_us": 256249
    },
    {
      "id": "M_682",
      "pitch": 91,
      "t_note_us": 157407594,
      "t_trigger_us": 157271631,
      "is_ai": true,
      "track_id": 7,
      "velocity": 0,
      "is_motor": false,
      "motor_id": 0,
      "accel_val": 2000,
      "base_duration_us": 0
    },
    {
      "id": "M_689",
      "pitch": 52,
      "t_note_us": 157407594,
      "t_trigger_us": 157271631,
      "is_ai": false,
      "track_id": 0,
      "velocity": 0,
      "is_motor": true,
      "motor_id": 0,
      "accel_val": 2000,
      "base_duration_us": 1628122
    },
    {
      "id": "M_687",
      "pitch": 55,
      "t_note_us": 158237280,
      "t_trigger_us": 158101317,
      "is_ai": false,
      "track_id": 0,
      "velocity": 0,
      "is_motor": true,
      "motor_id": 1,
      "accel_val": 2000,
      "base_duration_us": 0
    },
    {
      "id": "M_690",
      "pitch": 62,
      "t_note_us": 158526342,
      "t_trigger_us": 158390379,
      "is_ai": false,
      "track_id": 0,
      "velocity": 0,
      "is_motor": true,
      "motor_id": 1,
      "accel_val": 2000,
      "base_duration_us": 509374
    },
    {
      "id": "M_688",
      "pitch": 59,
      "t_note_us": 158781029,
      "t_trigger_us": 158645066,
      "is_ai": false,
      "track_id": 0,
      "velocity": 0,
      "is_motor": true,
      "motor_id": 2,
      "accel_val": 2000,
      "base_duration_us": 0
    },
    {
      "id": "M_694",
      "pitch": 67,
      "t_note_us": 159068528,
      "t_trigger_us": 158932565,
      "is_ai": false,
      "track_id": 0,
      "velocity": 0,
      "is_motor": true,
      "motor_id": 1,
      "accel_val": 2000,
      "base_duration_us": 1598433
    },
    {
      "id": "M_691",
      "pitch": 59,
      "t_note_us": 159324777,
      "t_trigger_us": 159188814,
      "is_ai": false,
      "track_id": 0,
      "velocity": 0,
      "is_motor": true,
      "motor_id": 0,
      "accel_val": 2000,
      "base_duration_us": 543749
    },
    {
      "id": "M_695",
      "pitch": 55,
      "t_note_us": 159612277,
      "t_trigger_us": 159476314,
      "is_ai": false,
      "track_id": 0,
      "velocity": 0,
      "is_motor": true,
      "motor_id": 2,
      "accel_val": 2000,
      "base_duration_us": 1054684
    },
    {
      "id": "M_698",
      "pitch": 91,
      "t_note_us": 160154463,
      "t_trigger_us": 160018500,
      "is_ai": true,
      "track_id": 7,
      "velocity": 0,
      "is_motor": false,
      "motor_id": 0,
      "accel_val": 2000,
      "base_duration_us": 2173432
    },
    {
      "id": "M_693",
      "pitch": 64,
      "t_note_us": 160154463,
      "t_trigger_us": 160018500,
      "is_ai": false,
      "track_id": 0,
      "velocity": 0,
      "is_motor": true,
      "motor_id": 0,
      "accel_val": 2000,
      "base_duration_us": 512498
    },
    {
      "id": "M_692",
      "pitch": 59,
      "t_note_us": 160410712,
      "t_trigger_us": 160274749,
      "is_ai": false,
      "track_id": 0,
      "velocity": 0,
      "is_motor": true,
      "motor_id": 3,
      "accel_val": 2000,
      "base_duration_us": 0
    },
    {
      "id": "M_699",
      "pitch": 89,
      "t_note_us": 160698210,
      "t_trigger_us": 160562247,
      "is_ai": true,
      "track_id": 6,
      "velocity": 0,
      "is_motor": false,
      "motor_id": 0,
      "accel_val": 2000,
      "base_duration_us": 1629685
    },
    {
      "id": "M_700",
      "pitch": 50,
      "t_note_us": 160698210,
      "t_trigger_us": 160562247,
      "is_ai": false,
      "track_id": 0,
      "velocity": 0,
      "is_motor": true,
      "motor_id": 0,
      "accel_val": 2000,
      "base_duration_us": 1629685
    },
    {
      "id": "M_701",
      "pitch": 88,
      "t_note_us": 161241959,
      "t_trigger_us": 161105996,
      "is_ai": true,
      "track_id": 5,
      "velocity": 0,
      "is_motor": false,
      "motor_id": 0,
      "accel_val": 2000,
      "base_duration_us": 1085936
    },
    {
      "id": "M_702",
      "pitch": 60,
      "t_note_us": 161241959,
      "t_trigger_us": 161105996,
      "is_ai": false,
      "track_id": 0,
      "velocity": 0,
      "is_motor": true,
      "motor_id": 1,
      "accel_val": 2000,
      "base_duration_us": 1085936
    },
    {
      "id": "M_696",
      "pitch": 57,
      "t_note_us": 161496646,
      "t_trigger_us": 161360683,
      "is_ai": false,
      "track_id": 0,
      "velocity": 0,
      "is_motor": true,
      "motor_id": 2,
      "accel_val": 2000,
      "base_duration_us": 0
    },
    {
      "id": "M_703",
      "pitch": 81,
      "t_note_us": 161785708,
      "t_trigger_us": 161649745,
      "is_ai": true,
      "track_id": 1,
      "velocity": 0,
      "is_motor": false,
      "motor_id": 0,
      "accel_val": 2000,
      "base_duration_us": 542187
    },
    {
      "id": "M_704",
      "pitch": 65,
      "t_note_us": 161785708,
      "t_trigger_us": 161649745,
      "is_ai": false,
      "track_id": 0,
      "velocity": 0,
      "is_motor": true,
      "motor_id": 2,
      "accel_val": 2000,
      "base_duration_us": 542187
    },
    {
      "id": "M_697",
      "pitch": 57,
      "t_note_us": 162040395,
      "t_trigger_us": 161904432,
      "is_ai": false,
      "track_id": 0,
      "velocity": 0,
      "is_motor": true,
      "motor_id": 3,
      "accel_val": 2000,
      "base_duration_us": 287500
    },
    {
      "id": "M_708",
      "pitch": 88,
      "t_note_us": 162327895,
      "t_trigger_us": 162191932,
      "is_ai": true,
      "track_id": 5,
      "velocity": 0,
      "is_motor": false,
      "motor_id": 0,
      "accel_val": 2000,
      "base_duration_us": 1631249
    },
    {
      "id": "M_709",
      "pitch": 43,
      "t_note_us": 162327895,
      "t_trigger_us": 162191932,
      "is_ai": false,
      "track_id": 0,
      "velocity": 0,
      "is_motor": true,
      "motor_id": 0,
      "accel_val": 2000,
      "base_duration_us": 1631249
    },
    {
      "id": "M_710",
      "pitch": 45,
      "t_note_us": 162871645,
      "t_trigger_us": 162735682,
      "is_ai": false,
      "track_id": 0,
      "velocity": 0,
      "is_motor": true,
      "motor_id": 1,
      "accel_val": 2000,
      "base_duration_us": 1087499
    },
    {
      "id": "M_706",
      "pitch": 86,
      "t_note_us": 163415395,
      "t_trigger_us": 163279432,
      "is_ai": true,
      "track_id": 4,
      "velocity": 0,
      "is_motor": false,
      "motor_id": 0,
      "accel_val": 2000,
      "base_duration_us": 543749
    },
    {
      "id": "M_707",
      "pitch": 47,
      "t_note_us": 163415395,
      "t_trigger_us": 163279432,
      "is_ai": false,
      "track_id": 0,
      "velocity": 0,
      "is_motor": true,
      "motor_id": 2,
      "accel_val": 2000,
      "base_duration_us": 543749
    },
    {
      "id": "M_705",
      "pitch": 84,
      "t_note_us": 163671644,
      "t_trigger_us": 163535681,
      "is_ai": true,
      "track_id": 3,
      "velocity": 0,
      "is_motor": false,
      "motor_id": 0,
      "accel_val": 2000,
      "base_duration_us": 287500
    },
    {
      "id": "M_713",
      "pitch": 86,
      "t_note_us": 163959144,
      "t_trigger_us": 163823181,
      "is_ai": true,
      "track_id": 4,
      "velocity": 0,
      "is_motor": false,
      "motor_id": 0,
      "accel_val": 2000,
      "base_duration_us": 1085936
    },
    {
      "id": "M_719",
      "pitch": 84,
      "t_note_us": 163959144,
      "t_trigger_us": 163823181,
      "is_ai": true,
      "track_id": 3,
      "velocity": 0,
      "is_motor": false,
      "motor_id": 0,
      "accel_val": 2000,
      "base_duration_us": 1629686
    },
    {
      "id": "M_714",
      "pitch": 55,
      "t_note_us": 164246644,
      "t_trigger_us": 164110681,
      "is_ai": false,
      "track_id": 0,
      "velocity": 0,
      "is_motor": true,
      "motor_id": 0,
      "accel_val": 2000,
      "base_duration_us": 1342186
    },
    {
      "id": "M_711",
      "pitch": 84,
      "t_note_us": 164502893,
      "t_trigger_us": 164366930,
      "is_ai": true,
      "track_id": 3,
      "velocity": 0,
      "is_motor": false,
      "motor_id": 0,
      "accel_val": 2000,
      "base_duration_us": 542187
    },
    {
      "id": "M_712",
      "pitch": 60,
      "t_note_us": 164502893,
      "t_trigger_us": 164366930,
      "is_ai": false,
      "track_id": 0,
      "velocity": 0,
      "is_motor": true,
      "motor_id": 1,
      "accel_val": 2000,
      "base_duration_us": 542187
    },
    {
      "id": "M_715",
      "pitch": 62,
      "t_note_us": 164790393,
      "t_trigger_us": 164654430,
      "is_ai": false,
      "track_id": 0,
      "velocity": 0,
      "is_motor": true,
      "motor_id": 2,
      "accel_val": 2000,
      "base_duration_us": 798437
    },
    {
      "id": "M_716",
      "pitch": 86,
      "t_note_us": 165045080,
      "t_trigger_us": 164909117,
      "is_ai": true,
      "track_id": 4,
      "velocity": 0,
      "is_motor": false,
      "motor_id": 0,
      "accel_val": 2000,
      "base_duration_us": 543750
    },
    {
      "id": "M_717",
      "pitch": 84,
      "t_note_us": 165045080,
      "t_trigger_us": 164909117,
      "is_ai": true,
      "track_id": 3,
      "velocity": 0,
      "is_motor": false,
      "motor_id": 0,
      "accel_val": 2000,
      "base_duration_us": 543750
    },
    {
      "id": "M_718",
      "pitch": 60,
      "t_note_us": 165045080,
      "t_trigger_us": 164909117,
      "is_ai": false,
      "track_id": 0,
      "velocity": 0,
      "is_motor": true,
      "motor_id": 1,
      "accel_val": 2000,
      "base_duration_us": 543750
    },
    {
      "id": "M_722",
      "pitch": 88,
      "t_note_us": 165588830,
      "t_trigger_us": 165452867,
      "is_ai": true,
      "track_id": 5,
      "velocity": 0,
      "is_motor": false,
      "motor_id": 0,
      "accel_val": 2000,
      "base_duration_us": 1629684
    },
    {
      "id": "M_720",
      "pitch": 48,
      "t_note_us": 165588830,
      "t_trigger_us": 165452867,
      "is_ai": false,
      "track_id": 0,
      "velocity": 0,
      "is_motor": true,
      "motor_id": 0,
      "accel_val": 2000,
      "base_duration_us": 0
    },
    {
      "id": "M_725",
      "pitch": 55,
      "t_note_us": 165876330,
      "t_trigger_us": 165740367,
      "is_ai": false,
      "track_id": 0,
      "velocity": 0,
      "is_motor": true,
      "motor_id": 0,
      "accel_val": 2000,
      "base_duration_us": 1342184
    },
    {
      "id": "M_726",
      "pitch": 89,
      "t_note_us": 166131017,
      "t_trigger_us": 165995054,
      "is_ai": true,
      "track_id": 6,
      "velocity": 0,
      "is_motor": false,
      "motor_id": 0,
      "accel_val": 2000,
      "base_duration_us": 1087497
    },
    {
      "id": "M_727",
      "pitch": 60,
      "t_note_us": 166131017,
      "t_trigger_us": 165995054,
      "is_ai": false,
      "track_id": 0,
      "velocity": 0,
      "is_motor": true,
      "motor_id": 1,
      "accel_val": 2000,
      "base_duration_us": 1087497
    },
    {
      "id": "M_723",
      "pitch": 79,
      "t_note_us": 166676328,
      "t_trigger_us": 166540365,
      "is_ai": true,
      "track_id": 0,
      "velocity": 0,
      "is_motor": false,
      "motor_id": 0,
      "accel_val": 2000,
      "base_duration_us": 542186
    },
    {
      "id": "M_724",
      "pitch": 62,
      "t_note_us": 166676328,
      "t_trigger_us": 166540365,
      "is_ai": false,
      "track_id": 0,
      "velocity": 0,
      "is_motor": true,
      "motor_id": 2,
      "accel_val": 2000,
      "base_duration_us": 542186
    },
    {
      "id": "M_721",
      "pitch": 58,
      "t_note_us": 166962265,
      "t_trigger_us": 166826302,
      "is_ai": false,
      "track_id": 0,
      "velocity": 0,
      "is_motor": true,
      "motor_id": 3,
      "accel_val": 2000,
      "base_duration_us": 0
    },
    {
      "id": "M_730",
      "pitch": 81,
      "t_note_us": 167218514,
      "t_trigger_us": 167082551,
      "is_ai": true,
      "track_id": 1,
      "velocity": 0,
      "is_motor": false,
      "motor_id": 0,
      "accel_val": 2000,
      "base_duration_us": 1660932
    },
    {
      "id": "M_731",
      "pitch": 53,
      "t_note_us": 167218514,
      "t_trigger_us": 167082551,
      "is_ai": false,
      "track_id": 0,
      "velocity": 0,
      "is_motor": true,
      "motor_id": 0,
      "accel_val": 2000,
      "base_duration_us": 1660932
    },
    {
      "id": "M_732",
      "pitch": 65,
      "t_note_us": 167762263,
      "t_trigger_us": 167626300,
      "is_ai": false,
      "track_id": 0,
      "velocity": 0,
      "is_motor": true,
      "motor_id": 1,
      "accel_val": 2000,
      "base_duration_us": 1117183
    },
    {
      "id": "M_728",
      "pitch": 60,
      "t_note_us": 168048200,
      "t_trigger_us": 167912237,
      "is_ai": false,
      "track_id": 0,
      "velocity": 0,
      "is_motor": true,
      "motor_id": 2,
      "accel_val": 2000,
      "base_duration_us": 0
    },
    {
      "id": "M_729",
      "pitch": 72,
      "t_note_us": 168304449,
      "t_trigger_us": 168168486,
      "is_ai": false,
      "track_id": 0,
      "velocity": 0,
      "is_motor": true,
      "motor_id": 2,
      "accel_val": 2000,
      "base_duration_us": 543748
    },
    {
      "id": "M_734",
      "pitch": 64,
      "t_note_us": 168337261,
      "t_trigger_us": 168201298,
      "is_ai": false,
      "track_id": 0,
      "velocity": 0,
      "is_motor": true,
      "motor_id": 3,
      "accel_val": 2000,
      "base_duration_us": 542185
    },
    {
      "id": "M_733",
      "pitch": 60,
      "t_note_us": 168593510,
      "t_trigger_us": 168457547,
      "is_ai": false,
      "track_id": 0,
      "velocity": 0,
      "is_motor": true,
      "motor_id": 0,
      "accel_val": 2000,
      "base_duration_us": 285936
    },
    {
      "id": "M_736",
      "pitch": 84,
      "t_note_us": 168848197,
      "t_trigger_us": 168712234,
      "is_ai": true,
      "track_id": 3,
      "velocity": 0,
      "is_motor": false,
      "motor_id": 0,
      "accel_val": 2000,
      "base_duration_us": 1085934
    },
    {
      "id": "M_735",
      "pitch": 62,
      "t_note_us": 168848197,
      "t_trigger_us": 168712234,
      "is_ai": false,
      "track_id": 0,
      "velocity": 0,
      "is_motor": true,
      "motor_id": 2,
      "accel_val": 2000,
      "base_duration_us": 831247
    },
    {
      "id": "M_738",
      "pitch": 60,
      "t_note_us": 169135695,
      "t_trigger_us": 168999732,
      "is_ai": false,
      "track_id": 0,
      "velocity": 0,
      "is_motor": true,
      "motor_id": 1,
      "accel_val": 2000,
      "base_duration_us": 1085934
    },
    {
      "id": "M_737",
      "pitch": 67,
      "t_note_us": 169391944,
      "t_trigger_us": 169255981,
      "is_ai": false,
      "track_id": 0,
      "velocity": 0,
      "is_motor": true,
      "motor_id": 0,
      "accel_val": 2000,
      "base_duration_us": 573436
    },
    {
      "id": "M_740",
      "pitch": 71,
      "t_note_us": 169391944,
      "t_trigger_us": 169255981,
      "is_ai": false,
      "track_id": 0,
      "velocity": 0,
      "is_motor": true,
      "motor_id": 3,
      "accel_val": 2000,
      "base_duration_us": 1085934
    },
    {
      "id": "M_742",
      "pitch": 62,
      "t_note_us": 169679444,
      "t_trigger_us": 169543481,
      "is_ai": false,
      "track_id": 0,
      "velocity": 0,
      "is_motor": true,
      "motor_id": 2,
      "accel_val": 2000,
      "base_duration_us": 798434
    },
    {
      "id": "M_739",
      "pitch": 84,
      "t_note_us": 169934131,
      "t_trigger_us": 169798168,
      "is_ai": true,
      "track_id": 3,
      "velocity": 0,
      "is_motor": false,
      "motor_id": 0,
      "accel_val": 2000,
      "base_duration_us": 543747
    },
    {
      "id": "M_743",
      "pitch": 67,
      "t_note_us": 169965380,
      "t_trigger_us": 169829417,
      "is_ai": false,
      "track_id": 0,
      "velocity": 0,
      "is_motor": true,
      "motor_id": 0,
      "accel_val": 2000,
      "base_duration_us": 512498
    },
    {
      "id": "M_741",
      "pitch": 60,
      "t_note_us": 170221629,
      "t_trigger_us": 170085666,
      "is_ai": false,
      "track_id": 0,
      "velocity": 0,
      "is_motor": true,
      "motor_id": 1,
      "accel_val": 2000,
      "base_duration_us": 256249
    },
    {
      "id": "M_747",
      "pitch": 79,
      "t_note_us": 170477878,
      "t_trigger_us": 170341915,
      "is_ai": true,
      "track_id": 0,
      "velocity": 0,
      "is_motor": false,
      "motor_id": 0,
      "accel_val": 2000,
      "base_duration_us": 1629684
    },
    {
      "id": "M_748",
      "pitch": 86,
      "t_note_us": 170477878,
      "t_trigger_us": 170341915,
      "is_ai": true,
      "track_id": 4,
      "velocity": 0,
      "is_motor": false,
      "motor_id": 0,
      "accel_val": 2000,
      "base_duration_us": 1629684
    },
    {
      "id": "M_749",
      "pitch": 52,
      "t_note_us": 170477878,
      "t_trigger_us": 170341915,
      "is_ai": false,
      "track_id": 0,
      "velocity": 0,
      "is_motor": true,
      "motor_id": 0,
      "accel_val": 2000,
      "base_duration_us": 1629684
    },
    {
      "id": "M_744",
      "pitch": 60,
      "t_note_us": 170765378,
      "t_trigger_us": 170629415,
      "is_ai": false,
      "track_id": 0,
      "velocity": 0,
      "is_motor": true,
      "motor_id": 1,
      "accel_val": 2000,
      "base_duration_us": 543748
    },
    {
      "id": "M_746",
      "pitch": 72,
      "t_note_us": 171020065,
      "t_trigger_us": 170884102,
      "is_ai": false,
      "track_id": 0,
      "velocity": 0,
      "is_motor": true,
      "motor_id": 2,
      "accel_val": 2000,
      "base_duration_us": 1087497
    },
    {
      "id": "M_750",
      "pitch": 62,
      "t_note_us": 171052877,
      "t_trigger_us": 170916914,
      "is_ai": false,
      "track_id": 0,
      "velocity": 0,
      "is_motor": true,
      "motor_id": 3,
      "accel_val": 2000,
      "base_duration_us": 1054685
    },
    {
      "id": "M_745",
      "pitch": 60,
      "t_note_us": 171309126,
      "t_trigger_us": 171173163,
      "is_ai": false,
      "track_id": 0,
      "velocity": 0,
      "is_motor": true,
      "motor_id": 1,
      "accel_val": 2000,
      "base_duration_us": 543749
    },
    {
      "id": "M_751",
      "pitch": 59,
      "t_note_us": 171596626,
      "t_trigger_us": 171460663,
      "is_ai": false,
      "track_id": 0,
      "velocity": 0,
      "is_motor": true,
      "motor_id": 0,
      "accel_val": 2000,
      "base_duration_us": 510936
    },
    {
      "id": "M_753",
      "pitch": 71,
      "t_note_us": 171596626,
      "t_trigger_us": 171460663,
      "is_ai": false,
      "track_id": 0,
      "velocity": 0,
      "is_motor": true,
      "motor_id": 0,
      "accel_val": 2000,
      "base_duration_us": 542185
    },
    {
      "id": "M_752",
      "pitch": 60,
      "t_note_us": 171852875,
      "t_trigger_us": 171716912,
      "is_ai": false,
      "track_id": 0,
      "velocity": 0,
      "is_motor": true,
      "motor_id": 1,
      "accel_val": 2000,
      "base_duration_us": 285936
    },
    {
      "id": "M_755",
      "pitch": 72,
      "t_note_us": 172107562,
      "t_trigger_us": 171971599,
      "is_ai": false,
      "track_id": 0,
      "velocity": 0,
      "is_motor": true,
      "motor_id": 0,
      "accel_val": 2000,
      "base_duration_us": 1118747
    },
    {
      "id": "M_758",
      "pitch": 52,
      "t_note_us": 172107562,
      "t_trigger_us": 171971599,
      "is_ai": false,
      "track_id": 0,
      "velocity": 0,
      "is_motor": true,
      "motor_id": 2,
      "accel_val": 2000,
      "base_duration_us": 1629683
    },
    {
      "id": "M_754",
      "pitch": 60,
      "t_note_us": 172395060,
      "t_trigger_us": 172259097,
      "is_ai": false,
      "track_id": 0,
      "velocity": 0,
      "is_motor": true,
      "motor_id": 1,
      "accel_val": 2000,
      "base_duration_us": 543749
    },
    {
      "id": "M_759",
      "pitch": 62,
      "t_note_us": 172682560,
      "t_trigger_us": 172546597,
      "is_ai": false,
      "track_id": 0,
      "velocity": 0,
      "is_motor": true,
      "motor_id": 3,
      "accel_val": 2000,
      "base_duration_us": 1054685
    },
    {
      "id": "M_760",
      "pitch": 64,
      "t_note_us": 173226309,
      "t_trigger_us": 173090346,
      "is_ai": false,
      "track_id": 0,
      "velocity": 0,
      "is_motor": true,
      "motor_id": 1,
      "accel_val": 2000,
      "base_duration_us": 510936
    },
    {
      "id": "M_757",
      "pitch": 84,
      "t_note_us": 173480996,
      "t_trigger_us": 173345033,
      "is_ai": true,
      "track_id": 3,
      "velocity": 0,
      "is_motor": false,
      "motor_id": 0,
      "accel_val": 2000,
      "base_duration_us": 0
    },
    {
      "id": "M_761",
      "pitch": 79,
      "t_note_us": 173480996,
      "t_trigger_us": 173345033,
      "is_ai": true,
      "track_id": 0,
      "velocity": 0,
      "is_motor": false,
      "motor_id": 0,
      "accel_val": 2000,
      "base_duration_us": 289061
    },
    {
      "id": "M_756",
      "pitch": 60,
      "t_note_us": 173480996,
      "t_trigger_us": 173345033,
      "is_ai": false,
      "track_id": 0,
      "velocity": 0,
      "is_motor": true,
      "motor_id": 0,
      "accel_val": 2000,
      "base_duration_us": 0
    },
    {
      "id": "M_769",
      "pitch": 79,
      "t_note_us": 173770057,
      "t_trigger_us": 173634094,
      "is_ai": true,
      "track_id": 0,
      "velocity": 0,
      "is_motor": false,
      "motor_id": 0,
      "accel_val": 2000,
      "base_duration_us": 1628123
    },
    {
      "id": "M_770",
      "pitch": 69,
      "t_note_us": 173770057,
      "t_trigger_us": 173634094,
      "is_ai": false,
      "track_id": 0,
      "velocity": 0,
      "is_motor": true,
      "motor_id": 1,
      "accel_val": 2000,
      "base_duration_us": 1628123
    },
    {
      "id": "M_771",
      "pitch": 50,
      "t_note_us": 173770057,
      "t_trigger_us": 173634094,
      "is_ai": false,
      "track_id": 0,
      "velocity": 0,
      "is_motor": true,
      "motor_id": 0,
      "accel_val": 2000,
      "base_duration_us": 1628123
    },
    {
      "id": "M_762",
      "pitch": 57,
      "t_note_us": 174024744,
      "t_trigger_us": 173888781,
      "is_ai": false,
      "track_id": 0,
      "velocity": 0,
      "is_motor": true,
      "motor_id": 2,
      "accel_val": 2000,
      "base_duration_us": 543749
    },
    {
      "id": "M_764",
      "pitch": 89,
      "t_note_us": 174312244,
      "t_trigger_us": 174176281,
      "is_ai": true,
      "track_id": 6,
      "velocity": 0,
      "is_motor": false,
      "motor_id": 0,
      "accel_val": 2000,
      "base_duration_us": 1085936
    },
    {
      "id": "M_765",
      "pitch": 89,
      "t_note_us": 174312244,
      "t_trigger_us": 174176281,
      "is_ai": true,
      "track_id": 6,
      "velocity": 0,
      "is_motor": false,
      "motor_id": 0,
      "accel_val": 2000,
      "base_duration_us": 1085936
    },
    {
      "id": "M_766",
      "pitch": 65,
      "t_note_us": 174312244,
      "t_trigger_us": 174176281,
      "is_ai": false,
      "track_id": 0,
      "velocity": 0,
      "is_motor": true,
      "motor_id": 3,
      "accel_val": 2000,
      "base_duration_us": 1085936
    },
    {
      "id": "M_767",
      "pitch": 88,
      "t_note_us": 174855993,
      "t_trigger_us": 174720030,
      "is_ai": true,
      "track_id": 5,
      "velocity": 0,
      "is_motor": false,
      "motor_id": 0,
      "accel_val": 2000,
      "base_duration_us": 542187
    },
    {
      "id": "M_768",
      "pitch": 60,
      "t_note_us": 174855993,
      "t_trigger_us": 174720030,
      "is_ai": false,
      "track_id": 0,
      "velocity": 0,
      "is_motor": true,
      "motor_id": 2,
      "accel_val": 2000,
      "base_duration_us": 542187
    },
    {
      "id": "M_763",
      "pitch": 57,
      "t_note_us": 175110680,
      "t_trigger_us": 174974717,
      "is_ai": false,
      "track_id": 0,
      "velocity": 0,
      "is_motor": true,
      "motor_id": 0,
      "accel_val": 2000,
      "base_duration_us": 0
    },
    {
      "id": "M_778",
      "pitch": 86,
      "t_note_us": 175398180,
      "t_trigger_us": 175262217,
      "is_ai": true,
      "track_id": 4,
      "velocity": 0,
      "is_motor": false,
      "motor_id": 0,
      "accel_val": 2000,
      "base_duration_us": 1629685
    },
    {
      "id": "M_779",
      "pitch": 71,
      "t_note_us": 175398180,
      "t_trigger_us": 175262217,
      "is_ai": false,
      "track_id": 0,
      "velocity": 0,
      "is_motor": true,
      "motor_id": 1,
      "accel_val": 2000,
      "base_duration_us": 1629685
    },
    {
      "id": "M_777",
      "pitch": 57,
      "t_note_us": 175654429,
      "t_trigger_us": 175518466,
      "is_ai": false,
      "track_id": 0,
      "velocity": 0,
      "is_motor": true,
      "motor_id": 0,
      "accel_val": 2000,
      "base_duration_us": 1373436
    },
    {
      "id": "M_780",
      "pitch": 88,
      "t_note_us": 175941929,
      "t_trigger_us": 175805966,
      "is_ai": true,
      "track_id": 5,
      "velocity": 0,
      "is_motor": false,
      "motor_id": 0,
      "accel_val": 2000,
      "base_duration_us": 1085936
    },
    {
      "id": "M_772",
      "pitch": 55,
      "t_note_us": 176196616,
      "t_trigger_us": 176060653,
      "is_ai": false,
      "track_id": 0,
      "velocity": 0,
      "is_motor": true,
      "motor_id": 2,
      "accel_val": 2000,
      "base_duration_us": 0
    },
    {
      "id": "M_774",
      "pitch": 89,
      "t_note_us": 176485678,
      "t_trigger_us": 176349715,
      "is_ai": true,
      "track_id": 6,
      "velocity": 0,
      "is_motor": false,
      "motor_id": 0,
      "accel_val": 2000,
      "base_duration_us": 542187
    },
    {
      "id": "M_775",
      "pitch": 89,
      "t_note_us": 176485678,
      "t_trigger_us": 176349715,
      "is_ai": true,
      "track_id": 6,
      "velocity": 0,
      "is_motor": false,
      "motor_id": 0,
      "accel_val": 2000,
      "base_duration_us": 542187
    },
    {
      "id": "M_776",
      "pitch": 62,
      "t_note_us": 176485678,
      "t_trigger_us": 176349715,
      "is_ai": false,
      "track_id": 0,
      "velocity": 0,
      "is_motor": true,
      "motor_id": 2,
      "accel_val": 2000,
      "base_duration_us": 542187
    },
    {
      "id": "M_773",
      "pitch": 59,
      "t_note_us": 176773178,
      "t_trigger_us": 176637215,
      "is_ai": false,
      "track_id": 0,
      "velocity": 0,
      "is_motor": true,
      "motor_id": 3,
      "accel_val": 2000,
      "base_duration_us": 0
    },
    {
      "id": "M_788",
      "pitch": 79,
      "t_note_us": 177027865,
      "t_trigger_us": 176891902,
      "is_ai": true,
      "track_id": 0,
      "velocity": 0,
      "is_motor": false,
      "motor_id": 0,
      "accel_val": 2000,
      "base_duration_us": 1631247
    },
    {
      "id": "M_789",
      "pitch": 86,
      "t_note_us": 177027865,
      "t_trigger_us": 176891902,
      "is_ai": true,
      "track_id": 4,
      "velocity": 0,
      "is_motor": false,
      "motor_id": 0,
      "accel_val": 2000,
      "base_duration_us": 1631247
    },
    {
      "id": "M_790",
      "pitch": 52,
      "t_note_us": 177027865,
      "t_trigger_us": 176891902,
      "is_ai": false,
      "track_id": 0,
      "velocity": 0,
      "is_motor": true,
      "motor_id": 0,
      "accel_val": 2000,
      "base_duration_us": 1631247
    },
    {
      "id": "M_781",
      "pitch": 59,
      "t_note_us": 177315365,
      "t_trigger_us": 177179402,
      "is_ai": false,
      "track_id": 0,
      "velocity": 0,
      "is_motor": true,
      "motor_id": 1,
      "accel_val": 2000,
      "base_duration_us": 543749
    },
    {
      "id": "M_783",
      "pitch": 72,
      "t_note_us": 177571614,
      "t_trigger_us": 177435651,
      "is_ai": false,
      "track_id": 0,
      "velocity": 0,
      "is_motor": true,
      "motor_id": 2,
      "accel_val": 2000,
      "base_duration_us": 1087498
    },
    {
      "id": "M_784",
      "pitch": 64,
      "t_note_us": 177571614,
      "t_trigger_us": 177435651,
      "is_ai": false,
      "track_id": 0,
      "velocity": 0,
      "is_motor": true,
      "motor_id": 3,
      "accel_val": 2000,
      "base_duration_us": 1087498
    },
    {
      "id": "M_782",
      "pitch": 59,
      "t_note_us": 177859114,
      "t_trigger_us": 177723151,
      "is_ai": false,
      "track_id": 0,
      "velocity": 0,
      "is_motor": true,
      "motor_id": 1,
      "accel_val": 2000,
      "base_duration_us": 543749
    },
    {
      "id": "M_786",
      "pitch": 71,
      "t_note_us": 178113801,
      "t_trigger_us": 177977838,
      "is_ai": false,
      "track_id": 0,
      "velocity": 0,
      "is_motor": true,
      "motor_id": 0,
      "accel_val": 2000,
      "base_duration_us": 545311
    },
    {
      "id": "M_787",
      "pitch": 62,
      "t_note_us": 178113801,
      "t_trigger_us": 177977838,
      "is_ai": false,
      "track_id": 0,
      "velocity": 0,
      "is_motor": true,
      "motor_id": 0,
      "accel_val": 2000,
      "base_duration_us": 545311
    },
    {
      "id": "M_785",
      "pitch": 59,
      "t_note_us": 178402863,
      "t_trigger_us": 178266900,
      "is_ai": false,
      "track_id": 0,
      "velocity": 0,
      "is_motor": true,
      "motor_id": 1,
      "accel_val": 2000,
      "base_duration_us": 256249
    },
    {
      "id": "M_793",
      "pitch": 84,
      "t_note_us": 178659112,
      "t_trigger_us": 178523149,
      "is_ai": true,
      "track_id": 3,
      "velocity": 0,
      "is_motor": false,
      "motor_id": 0,
      "accel_val": 2000,
      "base_duration_us": 1085934
    },
    {
      "id": "M_798",
      "pitch": 48,
      "t_note_us": 178659112,
      "t_trigger_us": 178523149,
      "is_ai": false,
      "track_id": 0,
      "velocity": 0,
      "is_motor": true,
      "motor_id": 0,
      "accel_val": 2000,
      "base_duration_us": 1628119
    },
    {
      "id": "M_792",
      "pitch": 58,
      "t_note_us": 178945048,
      "t_trigger_us": 178809085,
      "is_ai": false,
      "track_id": 0,
      "velocity": 0,
      "is_motor": true,
      "motor_id": 1,
      "accel_val": 2000,
      "base_duration_us": 543749
    },
    {
      "id": "M_795",
      "pitch": 86,
      "t_note_us": 179201297,
      "t_trigger_us": 179065334,
      "is_ai": true,
      "track_id": 4,
      "velocity": 0,
      "is_motor": false,
      "motor_id": 0,
      "accel_val": 2000,
      "base_duration_us": 1085934
    },
    {
      "id": "M_791",
      "pitch": 64,
      "t_note_us": 179201297,
      "t_trigger_us": 179065334,
      "is_ai": false,
      "track_id": 0,
      "velocity": 0,
      "is_motor": true,
      "motor_id": 2,
      "accel_val": 2000,
      "base_duration_us": 0
    },
    {
      "id": "M_796",
      "pitch": 62,
      "t_note_us": 179201297,
      "t_trigger_us": 179065334,
      "is_ai": false,
      "track_id": 0,
      "velocity": 0,
      "is_motor": true,
      "motor_id": 3,
      "accel_val": 2000,
      "base_duration_us": 1085934
    },
    {
      "id": "M_800",
      "pitch": 64,
      "t_note_us": 179776295,
      "t_trigger_us": 179640332,
      "is_ai": false,
      "track_id": 0,
      "velocity": 0,
      "is_motor": true,
      "motor_id": 1,
      "accel_val": 2000,
      "base_duration_us": 510936
    },
    {
      "id": "M_794",
      "pitch": 58,
      "t_note_us": 180030982,
      "t_trigger_us": 179895019,
      "is_ai": false,
      "track_id": 0,
      "velocity": 0,
      "is_motor": true,
      "motor_id": 2,
      "accel_val": 2000,
      "base_duration_us": 0
    },
    {
      "id": "M_797",
      "pitch": 84,
      "t_note_us": 180287231,
      "t_trigger_us": 180151268,
      "is_ai": true,
      "track_id": 3,
      "velocity": 0,
      "is_motor": false,
      "motor_id": 0,
      "accel_val": 2000,
      "base_duration_us": 0
    },
    {
      "id": "M_799",
      "pitch": 81,
      "t_note_us": 180287231,
      "t_trigger_us": 180151268,
      "is_ai": true,
      "track_id": 1,
      "velocity": 0,
      "is_motor": false,
      "motor_id": 0,
      "accel_val": 2000,
      "base_duration_us": 0
    },
    {
      "id": "M_802",
      "pitch": 69,
      "t_note_us": 180287231,
      "t_trigger_us": 180151268,
      "is_ai": false,
      "track_id": 0,
      "velocity": 0,
      "is_motor": true,
      "motor_id": 1,
      "accel_val": 2000,
      "base_duration_us": 1629683
    },
    {
      "id": "M_803",
      "pitch": 53,
      "t_note_us": 180287231,
      "t_trigger_us": 180151268,
      "is_ai": false,
      "track_id": 0,
      "velocity": 0,
      "is_motor": true,
      "motor_id": 0,
      "accel_val": 2000,
      "base_duration_us": 1629683
    },
    {
      "id": "M_804",
      "pitch": 62,
      "t_note_us": 180830980,
      "t_trigger_us": 180695017,
      "is_ai": false,
      "track_id": 0,
      "velocity": 0,
      "is_motor": true,
      "motor_id": 2,
      "accel_val": 2000,
      "base_duration_us": 1085934
    },
    {
      "id": "M_801",
      "pitch": 60,
      "t_note_us": 181118480,
      "t_trigger_us": 180982517,
      "is_ai": false,
      "track_id": 0,
      "velocity": 0,
      "is_motor": true,
      "motor_id": 3,
      "accel_val": 2000,
      "base_duration_us": 0
    },
    {
      "id": "M_805",
      "pitch": 72,
      "t_note_us": 181374729,
      "t_trigger_us": 181238766,
      "is_ai": false,
      "track_id": 0,
      "velocity": 0,
      "is_motor": true,
      "motor_id": 3,
      "accel_val": 2000,
      "base_duration_us": 542185
    },
    {
      "id": "M_807",
      "pitch": 64,
      "t_note_us": 181405978,
      "t_trigger_us": 181270015,
      "is_ai": false,
      "track_id": 0,
      "velocity": 0,
      "is_motor": true,
      "motor_id": 0,
      "accel_val": 2000,
      "base_duration_us": 510936
    },
    {
      "id": "M_806",
      "pitch": 60,
      "t_note_us": 181662227,
      "t_trigger_us": 181526264,
      "is_ai": false,
      "track_id": 0,
      "velocity": 0,
      "is_motor": true,
      "motor_id": 0,
      "accel_val": 2000,
      "base_duration_us": 254687
    },
    {
      "id": "M_809",
      "pitch": 81,
      "t_note_us": 181916914,
      "t_trigger_us": 181780951,
      "is_ai": true,
      "track_id": 1,
      "velocity": 0,
      "is_motor": false,
      "motor_id": 0,
      "accel_val": 2000,
      "base_duration_us": 1085935
    },
    {
      "id": "M_810",
      "pitch": 86,
      "t_note_us": 181916914,
      "t_trigger_us": 181780951,
      "is_ai": true,
      "track_id": 4,
      "velocity": 0,
      "is_motor": false,
      "motor_id": 0,
      "accel_val": 2000,
      "base_duration_us": 1085935
    },
    {
      "id": "M_811",
      "pitch": 62,
      "t_note_us": 181916914,
      "t_trigger_us": 181780951,
      "is_ai": false,
      "track_id": 0,
      "velocity": 0,
      "is_motor": true,
      "motor_id": 1,
      "accel_val": 2000,
      "base_duration_us": 1085935
    },
    {
      "id": "M_814",
      "pitch": 71,
      "t_note_us": 181916914,
      "t_trigger_us": 181780951,
      "is_ai": false,
      "track_id": 0,
      "velocity": 0,
      "is_motor": true,
      "motor_id": 2,
      "accel_val": 2000,
      "base_duration_us": 1629684
    },
    {
      "id": "M_808",
      "pitch": 59,
      "t_note_us": 182204414,
      "t_trigger_us": 182068451,
      "is_ai": false,
      "track_id": 0,
      "velocity": 0,
      "is_motor": true,
      "motor_id": 0,
      "accel_val": 2000,
      "base_duration_us": 543748
    },
    {
      "id": "M_817",
      "pitch": 83,
      "t_note_us": 182460663,
      "t_trigger_us": 182324700,
      "is_ai": true,
      "track_id": 2,
      "velocity": 0,
      "is_motor": false,
      "motor_id": 0,
      "accel_val": 2000,
      "base_duration_us": 1118747
    },
    {
      "id": "M_818",
      "pitch": 85,
      "t_note_us": 182460663,
      "t_trigger_us": 182324700,
      "is_ai": true,
      "track_id": 0,
      "velocity": 0,
      "is_motor": true,
      "motor_id": 3,
      "accel_val": 2000,
      "base_duration_us": 1118747
    },
    {
      "id": "M_820",
      "pitch": 61,
      "t_note_us": 182493475,
      "t_trigger_us": 182357512,
      "is_ai": false,
      "track_id": 0,
      "velocity": 0,
      "is_motor": true,
      "motor_id": 0,
      "accel_val": 2000,
      "base_duration_us": 1085935
    },
    {
      "id": "M_812",
      "pitch": 59,
      "t_note_us": 182748162,
      "t_trigger_us": 182612199,
      "is_ai": false,
      "track_id": 0,
      "velocity": 0,
      "is_motor": true,
      "motor_id": 0,
      "accel_val": 2000,
      "base_duration_us": 543749
    },
    {
      "id": "M_815",
      "pitch": 81,
      "t_note_us": 183002849,
      "t_trigger_us": 182866886,
      "is_ai": true,
      "track_id": 1,
      "velocity": 0,
      "is_motor": false,
      "motor_id": 0,
      "accel_val": 2000,
      "base_duration_us": 576561
    },
    {
      "id": "M_816",
      "pitch": 86,
      "t_note_us": 183002849,
      "t_trigger_us": 182866886,
      "is_ai": true,
      "track_id": 4,
      "velocity": 0,
      "is_motor": false,
      "motor_id": 0,
      "accel_val": 2000,
      "base_duration_us": 576561
    },
    {
      "id": "M_813",
      "pitch": 62,
      "t_note_us": 183002849,
      "t_trigger_us": 182866886,
      "is_ai": false,
      "track_id": 0,
      "velocity": 0,
      "is_motor": true,
      "motor_id": 1,
      "accel_val": 2000,
      "base_duration_us": 543749
    },
    {
      "id": "M_819",
      "pitch": 59,
      "t_note_us": 183291911,
      "t_trigger_us": 183155948,
      "is_ai": false,
      "track_id": 0,
      "velocity": 0,
      "is_motor": true,
      "motor_id": 0,
      "accel_val": 2000,
      "base_duration_us": 287499
    },
    {
      "id": "M_826",
      "pitch": 79,
      "t_note_us": 183546598,
      "t_trigger_us": 183410635,
      "is_ai": true,
      "track_id": 0,
      "velocity": 0,
      "is_motor": false,
      "motor_id": 0,
      "accel_val": 2000,
      "base_duration_us": 1629683
    },
    {
      "id": "M_821",
      "pitch": 71,
      "t_note_us": 183546598,
      "t_trigger_us": 183410635,
      "is_ai": false,
      "track_id": 0,
      "velocity": 0,
      "is_motor": true,
      "motor_id": 1,
      "accel_val": 2000,
      "base_duration_us": 574998
    },
    {
      "id": "M_822",
      "pitch": 62,
      "t_note_us": 183546598,
      "t_trigger_us": 183410635,
      "is_ai": false,
      "track_id": 0,
      "velocity": 0,
      "is_motor": true,
      "motor_id": 2,
      "accel_val": 2000,
      "base_duration_us": 574998
    },
    {
      "id": "M_827",
      "pitch": 52,
      "t_note_us": 183546598,
      "t_trigger_us": 183410635,
      "is_ai": false,
      "track_id": 0,
      "velocity": 0,
      "is_motor": true,
      "motor_id": 0,
      "accel_val": 2000,
      "base_duration_us": 1629683
    },
    {
      "id": "M_823",
      "pitch": 59,
      "t_note_us": 183835659,
      "t_trigger_us": 183699696,
      "is_ai": false,
      "track_id": 0,
      "velocity": 0,
      "is_motor": true,
      "motor_id": 0,
      "accel_val": 2000,
      "base_duration_us": 829686
    },
    {
      "id": "M_824",
      "pitch": 62,
      "t_note_us": 184121596,
      "t_trigger_us": 183985633,
      "is_ai": false,
      "track_id": 0,
      "velocity": 0,
      "is_motor": true,
      "motor_id": 1,
      "accel_val": 2000,
      "base_duration_us": 543749
    },
    {
      "id": "M_829",
      "pitch": 71,
      "t_note_us": 184121596,
      "t_trigger_us": 183985633,
      "is_ai": false,
      "track_id": 0,
      "velocity": 0,
      "is_motor": true,
      "motor_id": 2,
      "accel_val": 2000,
      "base_duration_us": 1054685
    },
    {
      "id": "M_825",
      "pitch": 60,
      "t_note_us": 184377845,
      "t_trigger_us": 184241882,
      "is_ai": false,
      "track_id": 0,
      "velocity": 0,
      "is_motor": true,
      "motor_id": 3,
      "accel_val": 2000,
      "base_duration_us": 543749
    },
    {
      "id": "M_830",
      "pitch": 84,
      "t_note_us": 184665345,
      "t_trigger_us": 184529382,
      "is_ai": true,
      "track_id": 3,
      "velocity": 0,
      "is_motor": false,
      "motor_id": 0,
      "accel_val": 2000,
      "base_duration_us": 510936
    },
    {
      "id": "M_831",
      "pitch": 62,
      "t_note_us": 184665345,
      "t_trigger_us": 184529382,
      "is_ai": false,
      "track_id": 0,
      "velocity": 0,
      "is_motor": true,
      "motor_id": 1,
      "accel_val": 2000,
      "base_duration_us": 510936
    },
    {
      "id": "M_832",
      "pitch": 59,
      "t_note_us": 184665345,
      "t_trigger_us": 184529382,
      "is_ai": false,
      "track_id": 0,
      "velocity": 0,
      "is_motor": true,
      "motor_id": 0,
      "accel_val": 2000,
      "base_duration_us": 510936
    },
    {
      "id": "M_828",
      "pitch": 60,
      "t_note_us": 184921594,
      "t_trigger_us": 184785631,
      "is_ai": false,
      "track_id": 0,
      "velocity": 0,
      "is_motor": true,
      "motor_id": 3,
      "accel_val": 2000,
      "base_duration_us": 254687
    },
    {
      "id": "M_838",
      "pitch": 79,
      "t_note_us": 185209093,
      "t_trigger_us": 185073130,
      "is_ai": true,
      "track_id": 0,
      "velocity": 0,
      "is_motor": false,
      "motor_id": 0,
      "accel_val": 2000,
      "base_duration_us": 1629685
    },
    {
      "id": "M_839",
      "pitch": 86,
      "t_note_us": 185209093,
      "t_trigger_us": 185073130,
      "is_ai": true,
      "track_id": 4,
      "velocity": 0,
      "is_motor": false,
      "motor_id": 0,
      "accel_val": 2000,
      "base_duration_us": 1629685
    },
    {
      "id": "M_840",
      "pitch": 69,
      "t_note_us": 185209093,
      "t_trigger_us": 185073130,
      "is_ai": false,
      "track_id": 0,
      "velocity": 0,
      "is_motor": true,
      "motor_id": 1,
      "accel_val": 2000,
      "base_duration_us": 1629685
    },
    {
      "id": "M_841",
      "pitch": 62,
      "t_note_us": 185209093,
      "t_trigger_us": 185073130,
      "is_ai": false,
      "track_id": 0,
      "velocity": 0,
      "is_motor": true,
      "motor_id": 0,
      "accel_val": 2000,
      "base_duration_us": 1629685
    },
    {
      "id": "M_842",
      "pitch": 57,
      "t_note_us": 185209093,
      "t_trigger_us": 185073130,
      "is_ai": false,
      "track_id": 0,
      "velocity": 0,
      "is_motor": true,
      "motor_id": 2,
      "accel_val": 2000,
      "base_duration_us": 1629685
    },
    {
      "id": "M_833",
      "pitch": 60,
      "t_note_us": 185463780,
      "t_trigger_us": 185327817,
      "is_ai": false,
      "track_id": 0,
      "velocity": 0,
      "is_motor": true,
      "motor_id": 3,
      "accel_val": 2000,
      "base_duration_us": 543749
    },
    {
      "id": "M_843",
      "pitch": 64,
      "t_note_us": 185752842,
      "t_trigger_us": 185616879,
      "is_ai": false,
      "track_id": 0,
      "velocity": 0,
      "is_motor": true,
      "motor_id": 0,
      "accel_val": 2000,
      "base_duration_us": 1085936
    },
    {
      "id": "M_834",
      "pitch": 60,
      "t_note_us": 186007529,
      "t_trigger_us": 185871566,
      "is_ai": false,
      "track_id": 0,
      "velocity": 0,
      "is_motor": true,
      "motor_id": 3,
      "accel_val": 2000,
      "base_duration_us": 543749
    },
    {
      "id": "M_836",
      "pitch": 81,
      "t_note_us": 186295029,
      "t_trigger_us": 186159066,
      "is_ai": true,
      "track_id": 1,
      "velocity": 0,
      "is_motor": false,
      "motor_id": 0,
      "accel_val": 2000,
      "base_duration_us": 543749
    },
    {
      "id": "M_837",
      "pitch": 59,
      "t_note_us": 186295029,
      "t_trigger_us": 186159066,
      "is_ai": false,
      "track_id": 0,
      "velocity": 0,
      "is_motor": true,
      "motor_id": 0,
      "accel_val": 2000,
      "base_duration_us": 543749
    },
    {
      "id": "M_835",
      "pitch": 60,
      "t_note_us": 186551278,
      "t_trigger_us": 186415315,
      "is_ai": false,
      "track_id": 0,
      "velocity": 0,
      "is_motor": true,
      "motor_id": 3,
      "accel_val": 2000,
      "base_duration_us": 287500
    },
    {
      "id": "M_849",
      "pitch": 89,
      "t_note_us": 186838778,
      "t_trigger_us": 186702815,
      "is_ai": true,
      "track_id": 6,
      "velocity": 0,
      "is_motor": false,
      "motor_id": 0,
      "accel_val": 2000,
      "base_duration_us": 1631249
    },
    {
      "id": "M_850",
      "pitch": 89,
      "t_note_us": 186838778,
      "t_trigger_us": 186702815,
      "is_ai": true,
      "track_id": 6,
      "velocity": 0,
      "is_motor": false,
      "motor_id": 0,
      "accel_val": 2000,
      "base_duration_us": 1631249
    },
    {
      "id": "M_844",
      "pitch": 64,
      "t_note_us": 186838778,
      "t_trigger_us": 186702815,
      "is_ai": false,
      "track_id": 0,
      "velocity": 0,
      "is_motor": true,
      "motor_id": 1,
      "accel_val": 2000,
      "base_duration_us": 1598437
    },
    {
      "id": "M_845",
      "pitch": 79,
      "t_note_us": 187382528,
      "t_trigger_us": 187246565,
      "is_ai": true,
      "track_id": 0,
      "velocity": 0,
      "is_motor": false,
      "motor_id": 0,
      "accel_val": 2000,
      "base_duration_us": 1087499
    },
    {
      "id": "M_846",
      "pitch": 62,
      "t_note_us": 187382528,
      "t_trigger_us": 187246565,
      "is_ai": false,
      "track_id": 0,
      "velocity": 0,
      "is_motor": true,
      "motor_id": 0,
      "accel_val": 2000,
      "base_duration_us": 1087499
    },
    {
      "id": "M_847",
      "pitch": 81,
      "t_note_us": 187926278,
      "t_trigger_us": 187790315,
      "is_ai": true,
      "track_id": 1,
      "velocity": 0,
      "is_motor": false,
      "motor_id": 0,
      "accel_val": 2000,
      "base_duration_us": 543749
    },
    {
      "id": "M_848",
      "pitch": 61,
      "t_note_us": 187926278,
      "t_trigger_us": 187790315,
      "is_ai": false,
      "track_id": 0,
      "velocity": 0,
      "is_motor": true,
      "motor_id": 2,
      "accel_val": 2000,
      "base_duration_us": 543749
    },
    {
      "id": "M_851",
      "pitch": 84,
      "t_note_us": 188470027,
      "t_trigger_us": 188334064,
      "is_ai": true,
      "track_id": 3,
      "velocity": 0,
      "is_motor": false,
      "motor_id": 0,
      "accel_val": 2000,
      "base_duration_us": 1343749
    },
    {
      "id": "M_855",
      "pitch": 84,
      "t_note_us": 188470027,
      "t_trigger_us": 188334064,
      "is_ai": true,
      "track_id": 3,
      "velocity": 0,
      "is_motor": false,
      "motor_id": 0,
      "accel_val": 2000,
      "base_duration_us": 1629685
    },
    {
      "id": "M_856",
      "pitch": 60,
      "t_note_us": 188470027,
      "t_trigger_us": 188334064,
      "is_ai": false,
      "track_id": 0,
      "velocity": 0,
      "is_motor": true,
      "motor_id": 1,
      "accel_val": 2000,
      "base_duration_us": 1629685
    },
    {
      "id": "M_857",
      "pitch": 50,
      "t_note_us": 188470027,
      "t_trigger_us": 188334064,
      "is_ai": false,
      "track_id": 0,
      "velocity": 0,
      "is_motor": true,
      "motor_id": 0,
      "accel_val": 2000,
      "base_duration_us": 1629685
    },
    {
      "id": "M_860",
      "pitch": 81,
      "t_note_us": 189013777,
      "t_trigger_us": 188877814,
      "is_ai": true,
      "track_id": 1,
      "velocity": 0,
      "is_motor": false,
      "motor_id": 0,
      "accel_val": 2000,
      "base_duration_us": 1085935
    },
    {
      "id": "M_852",
      "pitch": 89,
      "t_note_us": 189557527,
      "t_trigger_us": 189421564,
      "is_ai": true,
      "track_id": 6,
      "velocity": 0,
      "is_motor": false,
      "motor_id": 0,
      "accel_val": 2000,
      "base_duration_us": 542185
    },
    {
      "id": "M_853",
      "pitch": 89,
      "t_note_us": 189557527,
      "t_trigger_us": 189421564,
      "is_ai": true,
      "track_id": 6,
      "velocity": 0,
      "is_motor": false,
      "motor_id": 0,
      "accel_val": 2000,
      "base_duration_us": 542185
    },
    {
      "id": "M_854",
      "pitch": 57,
      "t_note_us": 189557527,
      "t_trigger_us": 189421564,
      "is_ai": false,
      "track_id": 0,
      "velocity": 0,
      "is_motor": true,
      "motor_id": 2,
      "accel_val": 2000,
      "base_duration_us": 542185
    },
    {
      "id": "M_859",
      "pitch": 84,
      "t_note_us": 189813776,
      "t_trigger_us": 189677813,
      "is_ai": true,
      "track_id": 3,
      "velocity": 0,
      "is_motor": false,
      "motor_id": 0,
      "accel_val": 2000,
      "base_duration_us": 285936
    },
    {
      "id": "M_858",
      "pitch": 59,
      "t_note_us": 189845025,
      "t_trigger_us": 189709062,
      "is_ai": false,
      "track_id": 0,
      "velocity": 0,
      "is_motor": true,
      "motor_id": 3,
      "accel_val": 2000,
      "base_duration_us": 254687
    },
    {
      "id": "M_863",
      "pitch": 77,
      "t_note_us": 190099712,
      "t_trigger_us": 189963749,
      "is_ai": false,
      "track_id": 0,
      "velocity": 0,
      "is_motor": true,
      "motor_id": 2,
      "accel_val": 2000,
      "base_duration_us": 1664061
    },
    {
      "id": "M_864",
      "pitch": 76,
      "t_note_us": 190099712,
      "t_trigger_us": 189963749,
      "is_ai": false,
      "track_id": 0,
      "velocity": 0,
      "is_motor": true,
      "motor_id": 1,
      "accel_val": 2000,
      "base_duration_us": 1664061
    },
    {
      "id": "M_865",
      "pitch": 65,
      "t_note_us": 190099712,
      "t_trigger_us": 189963749,
      "is_ai": false,
      "track_id": 0,
      "velocity": 0,
      "is_motor": true,
      "motor_id": 0,
      "accel_val": 2000,
      "base_duration_us": 1664061
    },
    {
      "id": "M_866",
      "pitch": 60,
      "t_note_us": 190099712,
      "t_trigger_us": 189963749,
      "is_ai": false,
      "track_id": 0,
      "velocity": 0,
      "is_motor": true,
      "motor_id": 3,
      "accel_val": 2000,
      "base_duration_us": 1664061
    },
    {
      "id": "M_862",
      "pitch": 57,
      "t_note_us": 190645024,
      "t_trigger_us": 190509061,
      "is_ai": false,
      "track_id": 0,
      "velocity": 0,
      "is_motor": true,
      "motor_id": 0,
      "accel_val": 2000,
      "base_duration_us": 1118749
    },
    {
      "id": "M_861",
      "pitch": 53,
      "t_note_us": 191188774,
      "t_trigger_us": 191052811,
      "is_ai": false,
      "track_id": 0,
      "velocity": 0,
      "is_motor": true,
      "motor_id": 0,
      "accel_val": 2000,
      "base_duration_us": 543750
    },
    {
      "id": "M_869",
      "pitch": 86,
      "t_note_us": 191732524,
      "t_trigger_us": 191596561,
      "is_ai": true,
      "track_id": 4,
      "velocity": 0,
      "is_motor": false,
      "motor_id": 0,
      "accel_val": 2000,
      "base_duration_us": 1631248
    },
    {
      "id": "M_867",
      "pitch": 67,
      "t_note_us": 191732524,
      "t_trigger_us": 191596561,
      "is_ai": false,
      "track_id": 0,
      "velocity": 0,
      "is_motor": true,
      "motor_id": 0,
      "accel_val": 2000,
      "base_duration_us": 1087499
    },
    {
      "id": "M_870",
      "pitch": 71,
      "t_note_us": 191732524,
      "t_trigger_us": 191596561,
      "is_ai": false,
      "track_id": 0,
      "velocity": 0,
      "is_motor": true,
      "motor_id": 0,
      "accel_val": 2000,
      "base_duration_us": 1631248
    },
    {
      "id": "M_871",
      "pitch": 53,
      "t_note_us": 191732524,
      "t_trigger_us": 191596561,
      "is_ai": false,
      "track_id": 0,
      "velocity": 0,
      "is_motor": true,
      "motor_id": 0,
      "accel_val": 2000,
      "base_duration_us": 1631248
    },
    {
      "id": "M_872",
      "pitch": 50,
      "t_note_us": 191732524,
      "t_trigger_us": 191596561,
      "is_ai": false,
      "track_id": 0,
      "velocity": 0,
      "is_motor": true,
      "motor_id": 0,
      "accel_val": 2000,
      "base_duration_us": 1631248
    },
    {
      "id": "M_873",
      "pitch": 43,
      "t_note_us": 191732524,
      "t_trigger_us": 191596561,
      "is_ai": false,
      "track_id": 0,
      "velocity": 0,
      "is_motor": true,
      "motor_id": 0,
      "accel_val": 2000,
      "base_duration_us": 1631248
    },
    {
      "id": "M_868",
      "pitch": 67,
      "t_note_us": 192820023,
      "t_trigger_us": 192684060,
      "is_ai": false,
      "track_id": 0,
      "velocity": 0,
      "is_motor": true,
      "motor_id": 1,
      "accel_val": 2000,
      "base_duration_us": 543749
    },
    {
      "id": "M_874",
      "pitch": 88,
      "t_note_us": 193363772,
      "t_trigger_us": 193227809,
      "is_ai": true,
      "track_id": 5,
      "velocity": 0,
      "is_motor": false,
      "motor_id": 0,
      "accel_val": 2000,
      "base_duration_us": 0
    },
    {
      "id": "M_877",
      "pitch": 55,
      "t_note_us": 193651270,
      "t_trigger_us": 193515307,
      "is_ai": false,
      "track_id": 0,
      "velocity": 0,
      "is_motor": true,
      "motor_id": 0,
      "accel_val": 2000,
      "base_duration_us": 1085935
    },
    {
      "id": "M_876",
      "pitch": 84,
      "t_note_us": 193905957,
      "t_trigger_us": 193769994,
      "is_ai": true,
      "track_id": 3,
      "velocity": 0,
      "is_motor": false,
      "motor_id": 0,
      "accel_val": 2000,
      "base_duration_us": 831248
    },
    {
      "id": "M_879",
      "pitch": 60,
      "t_note_us": 193905957,
      "t_trigger_us": 193769994,
      "is_ai": false,
      "track_id": 0,
      "velocity": 0,
      "is_motor": true,
      "motor_id": 1,
      "accel_val": 2000,
      "base_duration_us": 1085935
    },
    {
      "id": "M_882",
      "pitch": 62,
      "t_note_us": 194193457,
      "t_trigger_us": 194057494,
      "is_ai": false,
      "track_id": 0,
      "velocity": 0,
      "is_motor": true,
      "motor_id": 2,
      "accel_val": 2000,
      "base_duration_us": 798435
    },
    {
      "id": "M_875",
      "pitch": 86,
      "t_note_us": 194449706,
      "t_trigger_us": 194313743,
      "is_ai": true,
      "track_id": 4,
      "velocity": 0,
      "is_motor": false,
      "motor_id": 0,
      "accel_val": 2000,
      "base_duration_us": 0
    },
    {
      "id": "M_883",
      "pitch": 84,
      "t_note_us": 194737205,
      "t_trigger_us": 194601242,
      "is_ai": true,
      "track_id": 3,
      "velocity": 0,
      "is_motor": false,
      "motor_id": 0,
      "accel_val": 2000,
      "base_duration_us": 254687
    },
    {
      "id": "M_878",
      "pitch": 67,
      "t_note_us": 194737205,
      "t_trigger_us": 194601242,
      "is_ai": false,
      "track_id": 0,
      "velocity": 0,
      "is_motor": true,
      "motor_id": 0,
      "accel_val": 2000,
      "base_duration_us": 0
    },
    {
      "id": "M_884",
      "pitch": 55,
      "t_note_us": 194737205,
      "t_trigger_us": 194601242,
      "is_ai": false,
      "track_id": 0,
      "velocity": 0,
      "is_motor": true,
      "motor_id": 3,
      "accel_val": 2000,
      "base_duration_us": 254687
    },
    {
      "id": "M_880",
      "pitch": 88,
      "t_note_us": 194991892,
      "t_trigger_us": 194855929,
      "is_ai": true,
      "track_id": 5,
      "velocity": 0,
      "is_motor": false,
      "motor_id": 0,
      "accel_val": 2000,
      "base_duration_us": 0
    },
    {
      "id": "M_881",
      "pitch": 48,
      "t_note_us": 194991892,
      "t_trigger_us": 194855929,
      "is_ai": false,
      "track_id": 0,
      "velocity": 0,
      "is_motor": true,
      "motor_id": 0,
      "accel_val": 2000,
      "base_duration_us": 0
    },
    {
      "id": "M_890",
      "pitch": 86,
      "t_note_us": 195024704,
      "t_trigger_us": 194888741,
      "is_ai": true,
      "track_id": 4,
      "velocity": 0,
      "is_motor": false,
      "motor_id": 0,
      "accel_val": 2000,
      "base_duration_us": 1629683
    },
    {
      "id": "M_885",
      "pitch": 56,
      "t_note_us": 195280953,
      "t_trigger_us": 195144990,
      "is_ai": false,
      "track_id": 0,
      "velocity": 0,
      "is_motor": true,
      "motor_id": 0,
      "accel_val": 2000,
      "base_duration_us": 1085934
    },
    {
      "id": "M_891",
      "pitch": 72,
      "t_note_us": 195568453,
      "t_trigger_us": 195432490,
      "is_ai": false,
      "track_id": 0,
      "velocity": 0,
      "is_motor": true,
      "motor_id": 1,
      "accel_val": 2000,
      "base_duration_us": 1085934
    },
    {
      "id": "M_892",
      "pitch": 60,
      "t_note_us": 195568453,
      "t_trigger_us": 195432490,
      "is_ai": false,
      "track_id": 0,
      "velocity": 0,
      "is_motor": true,
      "motor_id": 2,
      "accel_val": 2000,
      "base_duration_us": 1085934
    },
    {
      "id": "M_888",
      "pitch": 62,
      "t_note_us": 195824702,
      "t_trigger_us": 195688739,
      "is_ai": false,
      "track_id": 0,
      "velocity": 0,
      "is_motor": true,
      "motor_id": 3,
      "accel_val": 2000,
      "base_duration_us": 829685
    },
    {
      "id": "M_886",
      "pitch": 80,
      "t_note_us": 196079389,
      "t_trigger_us": 195943426,
      "is_ai": true,
      "track_id": 0,
      "velocity": 0,
      "is_motor": true,
      "motor_id": 0,
      "accel_val": 2000,
      "base_duration_us": 574998
    },
    {
      "id": "M_889",
      "pitch": 68,
      "t_note_us": 196110638,
      "t_trigger_us": 195974675,
      "is_ai": false,
      "track_id": 0,
      "velocity": 0,
      "is_motor": true,
      "motor_id": 0,
      "accel_val": 2000,
      "base_duration_us": 543749
    },
    {
      "id": "M_887",
      "pitch": 56,
      "t_note_us": 196366887,
      "t_trigger_us": 196230924,
      "is_ai": false,
      "track_id": 0,
      "velocity": 0,
      "is_motor": true,
      "motor_id": 0,
      "accel_val": 2000,
      "base_duration_us": 287500
    },
    {
      "id": "M_897",
      "pitch": 86,
      "t_note_us": 196654387,
      "t_trigger_us": 196518424,
      "is_ai": true,
      "track_id": 4,
      "velocity": 0,
      "is_motor": false,
      "motor_id": 0,
      "accel_val": 2000,
      "base_duration_us": 1629685
    },
    {
      "id": "M_898",
      "pitch": 48,
      "t_note_us": 196654387,
      "t_trigger_us": 196518424,
      "is_ai": false,
      "track_id": 0,
      "velocity": 0,
      "is_motor": true,
      "motor_id": 0,
      "accel_val": 2000,
      "base_duration_us": 1629685
    },
    {
      "id": "M_896",
      "pitch": 57,
      "t_note_us": 196910636,
      "t_trigger_us": 196774673,
      "is_ai": false,
      "track_id": 0,
      "velocity": 0,
      "is_motor": true,
      "motor_id": 1,
      "accel_val": 2000,
      "base_duration_us": 1373436
    },
    {
      "id": "M_899",
      "pitch": 84,
      "t_note_us": 197198136,
      "t_trigger_us": 197062173,
      "is_ai": true,
      "track_id": 3,
      "velocity": 0,
      "is_motor": false,
      "motor_id": 0,
      "accel_val": 2000,
      "base_duration_us": 1085936
    },
    {
      "id": "M_893",
      "pitch": 60,
      "t_note_us": 197198136,
      "t_trigger_us": 197062173,
      "is_ai": false,
      "track_id": 0,
      "velocity": 0,
      "is_motor": true,
      "motor_id": 2,
      "accel_val": 2000,
      "base_duration_us": 543749
    },
    {
      "id": "M_895",
      "pitch": 62,
      "t_note_us": 197452823,
      "t_trigger_us": 197316860,
      "is_ai": false,
      "track_id": 0,
      "velocity": 0,
      "is_motor": true,
      "motor_id": 3,
      "accel_val": 2000,
      "base_duration_us": 831249
    },
    {
      "id": "M_900",
      "pitch": 67,
      "t_note_us": 197741885,
      "t_trigger_us": 197605922,
      "is_ai": false,
      "track_id": 0,
      "velocity": 0,
      "is_motor": true,
      "motor_id": 2,
      "accel_val": 2000,
      "base_duration_us": 542187
    },
    {
      "id": "M_901",
      "pitch": 60,
      "t_note_us": 197741885,
      "t_trigger_us": 197605922,
      "is_ai": false,
      "track_id": 0,
      "velocity": 0,
      "is_motor": true,
      "motor_id": 0,
      "accel_val": 2000,
      "base_duration_us": 542187
    },
    {
      "id": "M_894",
      "pitch": 88,
      "t_note_us": 197996572,
      "t_trigger_us": 197860609,
      "is_ai": true,
      "track_id": 5,
      "velocity": 0,
      "is_motor": false,
      "motor_id": 0,
      "accel_val": 2000,
      "base_duration_us": 0
    },
    {
      "id": "M_909",
      "pitch": 74,
      "t_note_us": 198284072,
      "t_trigger_us": 198148109,
      "is_ai": false,
      "track_id": 0,
      "velocity": 0,
      "is_motor": true,
      "motor_id": 1,
      "accel_val": 2000,
      "base_duration_us": 1629685
    },
    {
      "id": "M_910",
      "pitch": 48,
      "t_note_us": 198284072,
      "t_trigger_us": 198148109,
      "is_ai": false,
      "track_id": 0,
      "velocity": 0,
      "is_motor": true,
      "motor_id": 0,
      "accel_val": 2000,
      "base_duration_us": 1629685
    },
    {
      "id": "M_906",
      "pitch": 58,
      "t_note_us": 198540321,
      "t_trigger_us": 198404358,
      "is_ai": false,
      "track_id": 0,
      "velocity": 0,
      "is_motor": true,
      "motor_id": 2,
      "accel_val": 2000,
      "base_duration_us": 1373436
    },
    {
      "id": "M_911",
      "pitch": 84,
      "t_note_us": 198827821,
      "t_trigger_us": 198691858,
      "is_ai": true,
      "track_id": 3,
      "velocity": 0,
      "is_motor": false,
      "motor_id": 0,
      "accel_val": 2000,
      "base_duration_us": 1085936
    },
    {
      "id": "M_903",
      "pitch": 62,
      "t_note_us": 199082508,
      "t_trigger_us": 198946545,
      "is_ai": false,
      "track_id": 0,
      "velocity": 0,
      "is_motor": true,
      "motor_id": 3,
      "accel_val": 2000,
      "base_duration_us": 831249
    },
    {
      "id": "M_907",
      "pitch": 88,
      "t_note_us": 199370008,
      "t_trigger_us": 199234045,
      "is_ai": true,
      "track_id": 5,
      "velocity": 0,
      "is_motor": false,
      "motor_id": 0,
      "accel_val": 2000,
      "base_duration_us": 543749
    },
    {
      "id": "M_902",
      "pitch": 60,
      "t_note_us": 199370008,
      "t_trigger_us": 199234045,
      "is_ai": false,
      "track_id": 0,
      "velocity": 0,
      "is_motor": true,
      "motor_id": 0,
      "accel_val": 2000,
      "base_duration_us": 0
    },
    {
      "id": "M_908",
      "pitch": 70,
      "t_note_us": 199370008,
      "t_trigger_us": 199234045,
      "is_ai": false,
      "track_id": 0,
      "velocity": 0,
      "is_motor": true,
      "motor_id": 0,
      "accel_val": 2000,
      "base_duration_us": 543749
    },
    {
      "id": "M_904",
      "pitch": 91,
      "t_note_us": 199626257,
      "t_trigger_us": 199490294,
      "is_ai": true,
      "track_id": 7,
      "velocity": 0,
      "is_motor": false,
      "motor_id": 0,
      "accel_val": 2000,
      "base_duration_us": 287500
    },
    {
      "id": "M_905",
      "pitch": 79,
      "t_note_us": 199626257,
      "t_trigger_us": 199490294,
      "is_ai": true,
      "track_id": 0,
      "velocity": 0,
      "is_motor": false,
      "motor_id": 0,
      "accel_val": 2000,
      "base_duration_us": 287500
    },
    {
      "id": "M_918",
      "pitch": 89,
      "t_note_us": 199913757,
      "t_trigger_us": 199777794,
      "is_ai": true,
      "track_id": 6,
      "velocity": 0,
      "is_motor": false,
      "motor_id": 0,
      "accel_val": 2000,
      "base_duration_us": 1660935
    },
    {
      "id": "M_919",
      "pitch": 88,
      "t_note_us": 199913757,
      "t_trigger_us": 199777794,
      "is_ai": true,
      "track_id": 5,
      "velocity": 0,
      "is_motor": false,
      "motor_id": 0,
      "accel_val": 2000,
      "base_duration_us": 1660935
    },
    {
      "id": "M_920",
      "pitch": 89,
      "t_note_us": 199913757,
      "t_trigger_us": 199777794,
      "is_ai": true,
      "track_id": 6,
      "velocity": 0,
      "is_motor": false,
      "motor_id": 0,
      "accel_val": 2000,
      "base_duration_us": 1660935
    },
    {
      "id": "M_921",
      "pitch": 53,
      "t_note_us": 199913757,
      "t_trigger_us": 199777794,
      "is_ai": false,
      "track_id": 0,
      "velocity": 0,
      "is_motor": true,
      "motor_id": 0,
      "accel_val": 2000,
      "base_duration_us": 1660935
    },
    {
      "id": "M_916",
      "pitch": 57,
      "t_note_us": 200168444,
      "t_trigger_us": 200032481,
      "is_ai": false,
      "track_id": 0,
      "velocity": 0,
      "is_motor": true,
      "motor_id": 1,
      "accel_val": 2000,
      "base_duration_us": 1406248
    },
    {
      "id": "M_913",
      "pitch": 86,
      "t_note_us": 200457506,
      "t_trigger_us": 200321543,
      "is_ai": true,
      "track_id": 4,
      "velocity": 0,
      "is_motor": false,
      "motor_id": 0,
      "accel_val": 2000,
      "base_duration_us": 1117186
    },
    {
      "id": "M_914",
      "pitch": 60,
      "t_note_us": 200457506,
      "t_trigger_us": 200321543,
      "is_ai": false,
      "track_id": 0,
      "velocity": 0,
      "is_motor": true,
      "motor_id": 2,
      "accel_val": 2000,
      "base_duration_us": 1117186
    },
    {
      "id": "M_915",
      "pitch": 62,
      "t_note_us": 200745006,
      "t_trigger_us": 200609043,
      "is_ai": false,
      "track_id": 0,
      "velocity": 0,
      "is_motor": true,
      "motor_id": 3,
      "accel_val": 2000,
      "base_duration_us": 829686
    },
    {
      "id": "M_917",
      "pitch": 65,
      "t_note_us": 200999693,
      "t_trigger_us": 200863730,
      "is_ai": false,
      "track_id": 0,
      "velocity": 0,
      "is_motor": true,
      "motor_id": 0,
      "accel_val": 2000,
      "base_duration_us": 574999
    },
    {
      "id": "M_912",
      "pitch": 81,
      "t_note_us": 201543443,
      "t_trigger_us": 201407480,
      "is_ai": true,
      "track_id": 1,
      "velocity": 0,
      "is_motor": false,
      "motor_id": 0,
      "accel_val": 2000,
      "base_duration_us": 0
    },
    {
      "id": "M_923",
      "pitch": 88,
      "t_note_us": 201543443,
      "t_trigger_us": 201407480,
      "is_ai": true,
      "track_id": 5,
      "velocity": 0,
      "is_motor": false,
      "motor_id": 0,
      "accel_val": 2000,
      "base_duration_us": 1087496
    },
    {
      "id": "M_925",
      "pitch": 48,
      "t_note_us": 201543443,
      "t_trigger_us": 201407480,
      "is_ai": false,
      "track_id": 0,
      "velocity": 0,
      "is_motor": true,
      "motor_id": 0,
      "accel_val": 2000,
      "base_duration_us": 1629682
    },
    {
      "id": "M_922",
      "pitch": 57,
      "t_note_us": 201830941,
      "t_trigger_us": 201694978,
      "is_ai": false,
      "track_id": 0,
      "velocity": 0,
      "is_motor": true,
      "motor_id": 0,
      "accel_val": 2000,
      "base_duration_us": 543749
    },
    {
      "id": "M_931",
      "pitch": 60,
      "t_note_us": 202085628,
      "t_trigger_us": 201949665,
      "is_ai": false,
      "track_id": 0,
      "velocity": 0,
      "is_motor": true,
      "motor_id": 1,
      "accel_val": 2000,
      "base_duration_us": 1087497
    },
    {
      "id": "M_930",
      "pitch": 57,
      "t_note_us": 202374690,
      "t_trigger_us": 202238727,
      "is_ai": false,
      "track_id": 0,
      "velocity": 0,
      "is_motor": true,
      "motor_id": 0,
      "accel_val": 2000,
      "base_duration_us": 798435
    },
    {
      "id": "M_926",
      "pitch": 88,
      "t_note_us": 202630939,
      "t_trigger_us": 202494976,
      "is_ai": true,
      "track_id": 5,
      "velocity": 0,
      "is_motor": false,
      "motor_id": 0,
      "accel_val": 2000,
      "base_duration_us": 542186
    },
    {
      "id": "M_927",
      "pitch": 69,
      "t_note_us": 202630939,
      "t_trigger_us": 202494976,
      "is_ai": false,
      "track_id": 0,
      "velocity": 0,
      "is_motor": true,
      "motor_id": 2,
      "accel_val": 2000,
      "base_duration_us": 542186
    },
    {
      "id": "M_928",
      "pitch": 53,
      "t_note_us": 202630939,
      "t_trigger_us": 202494976,
      "is_ai": false,
      "track_id": 0,
      "velocity": 0,
      "is_motor": true,
      "motor_id": 3,
      "accel_val": 2000,
      "base_duration_us": 542186
    },
    {
      "id": "M_924",
      "pitch": 86,
      "t_note_us": 202916876,
      "t_trigger_us": 202780913,
      "is_ai": true,
      "track_id": 4,
      "velocity": 0,
      "is_motor": false,
      "motor_id": 0,
      "accel_val": 2000,
      "base_duration_us": 0
    },
    {
      "id": "M_929",
      "pitch": 86,
      "t_note_us": 203173125,
      "t_trigger_us": 203037162,
      "is_ai": true,
      "track_id": 4,
      "velocity": 0,
      "is_motor": false,
      "motor_id": 0,
      "accel_val": 2000,
      "base_duration_us": 0
    },
    {
      "id": "M_935",
      "pitch": 43,
      "t_note_us": 203173125,
      "t_trigger_us": 203037162,
      "is_ai": false,
      "track_id": 0,
      "velocity": 0,
      "is_motor": true,
      "motor_id": 0,
      "accel_val": 2000,
      "base_duration_us": 1629684
    },
    {
      "id": "M_936",
      "pitch": 71,
      "t_note_us": 203716874,
      "t_trigger_us": 203580911,
      "is_ai": false,
      "track_id": 0,
      "velocity": 0,
      "is_motor": true,
      "motor_id": 1,
      "accel_val": 2000,
      "base_duration_us": 1085935
    },
    {
      "id": "M_937",
      "pitch": 62,
      "t_note_us": 203716874,
      "t_trigger_us": 203580911,
      "is_ai": false,
      "track_id": 0,
      "velocity": 0,
      "is_motor": true,
      "motor_id": 2,
      "accel_val": 2000,
      "base_duration_us": 1085935
    },
    {
      "id": "M_932",
      "pitch": 55,
      "t_note_us": 204002811,
      "t_trigger_us": 203866848,
      "is_ai": false,
      "track_id": 0,
      "velocity": 0,
      "is_motor": true,
      "motor_id": 3,
      "accel_val": 2000,
      "base_duration_us": 0
    },
    {
      "id": "M_933",
      "pitch": 72,
      "t_note_us": 204259060,
      "t_trigger_us": 204123097,
      "is_ai": false,
      "track_id": 0,
      "velocity": 0,
      "is_motor": true,
      "motor_id": 3,
      "accel_val": 2000,
      "base_duration_us": 543749
    },
    {
      "id": "M_934",
      "pitch": 60,
      "t_note_us": 204259060,
      "t_trigger_us": 204123097,
      "is_ai": false,
      "track_id": 0,
      "velocity": 0,
      "is_motor": true,
      "motor_id": 0,
      "accel_val": 2000,
      "base_duration_us": 543749
    },
    {
      "id": "M_938",
      "pitch": 55,
      "t_note_us": 204548122,
      "t_trigger_us": 204412159,
      "is_ai": false,
      "track_id": 0,
      "velocity": 0,
      "is_motor": true,
      "motor_id": 0,
      "accel_val": 2000,
      "base_duration_us": 254687
    },
    {
      "id": "M_944",
      "pitch": 86,
      "t_note_us": 204802809,
      "t_trigger_us": 204666846,
      "is_ai": true,
      "track_id": 4,
      "velocity": 0,
      "is_motor": false,
      "motor_id": 0,
      "accel_val": 2000,
      "base_duration_us": 1629685
    },
    {
      "id": "M_945",
      "pitch": 43,
      "t_note_us": 204802809,
      "t_trigger_us": 204666846,
      "is_ai": false,
      "track_id": 0,
      "velocity": 0,
      "is_motor": true,
      "motor_id": 0,
      "accel_val": 2000,
      "base_duration_us": 1629685
    },
    {
      "id": "M_939",
      "pitch": 55,
      "t_note_us": 205090309,
      "t_trigger_us": 204954346,
      "is_ai": false,
      "track_id": 0,
      "velocity": 0,
      "is_motor": true,
      "motor_id": 1,
      "accel_val": 2000,
      "base_duration_us": 543749
    },
    {
      "id": "M_946",
      "pitch": 45,
      "t_note_us": 205346558,
      "t_trigger_us": 205210595,
      "is_ai": false,
      "track_id": 0,
      "velocity": 0,
      "is_motor": true,
      "motor_id": 2,
      "accel_val": 2000,
      "base_duration_us": 1085936
    },
    {
      "id": "M_940",
      "pitch": 79,
      "t_note_us": 205888745,
      "t_trigger_us": 205752782,
      "is_ai": true,
      "track_id": 0,
      "velocity": 0,
      "is_motor": false,
      "motor_id": 0,
      "accel_val": 2000,
      "base_duration_us": 0
    },
    {
      "id": "M_942",
      "pitch": 91,
      "t_note_us": 205888745,
      "t_trigger_us": 205752782,
      "is_ai": true,
      "track_id": 7,
      "velocity": 0,
      "is_motor": false,
      "motor_id": 0,
      "accel_val": 2000,
      "base_duration_us": 543749
    },
    {
      "id": "M_943",
      "pitch": 47,
      "t_note_us": 205888745,
      "t_trigger_us": 205752782,
      "is_ai": false,
      "track_id": 0,
      "velocity": 0,
      "is_motor": true,
      "motor_id": 1,
      "accel_val": 2000,
      "base_duration_us": 543749
    },
    {
      "id": "M_941",
      "pitch": 55,
      "t_note_us": 206176245,
      "t_trigger_us": 206040282,
      "is_ai": false,
      "track_id": 0,
      "velocity": 0,
      "is_motor": true,
      "motor_id": 3,
      "accel_val": 2000,
      "base_duration_us": 0
    },
    {
      "id": "M_947",
      "pitch": 88,
      "t_note_us": 206432494,
      "t_trigger_us": 206296531,
      "is_ai": true,
      "track_id": 5,
      "velocity": 0,
      "is_motor": false,
      "motor_id": 0,
      "accel_val": 2000,
      "base_duration_us": 0
    },
    {
      "id": "M_948",
      "pitch": 86,
      "t_note_us": 206432494,
      "t_trigger_us": 206296531,
      "is_ai": true,
      "track_id": 4,
      "velocity": 0,
      "is_motor": false,
      "motor_id": 0,
      "accel_val": 2000,
      "base_duration_us": 1085935
    },
    {
      "id": "M_951",
      "pitch": 48,
      "t_note_us": 206432494,
      "t_trigger_us": 206296531,
      "is_ai": false,
      "track_id": 0,
      "velocity": 0,
      "is_motor": true,
      "motor_id": 0,
      "accel_val": 2000,
      "base_duration_us": 1629683
    },
    {
      "id": "M_953",
      "pitch": 55,
      "t_note_us": 206719994,
      "t_trigger_us": 206584031,
      "is_ai": false,
      "track_id": 0,
      "velocity": 0,
      "is_motor": true,
      "motor_id": 1,
      "accel_val": 2000,
      "base_duration_us": 1373432
    },
    {
      "id": "M_950",
      "pitch": 84,
      "t_note_us": 206974681,
      "t_trigger_us": 206838718,
      "is_ai": true,
      "track_id": 3,
      "velocity": 0,
      "is_motor": false,
      "motor_id": 0,
      "accel_val": 2000,
      "base_duration_us": 832809
    },
    {
      "id": "M_949",
      "pitch": 60,
      "t_note_us": 207007493,
      "t_trigger_us": 206871530,
      "is_ai": false,
      "track_id": 0,
      "velocity": 0,
      "is_motor": true,
      "motor_id": 2,
      "accel_val": 2000,
      "base_duration_us": 543748
    },
    {
      "id": "M_954",
      "pitch": 62,
      "t_note_us": 207263742,
      "t_trigger_us": 207127779,
      "is_ai": false,
      "track_id": 0,
      "velocity": 0,
      "is_motor": true,
      "motor_id": 3,
      "accel_val": 2000,
      "base_duration_us": 829684
    },
    {
      "id": "M_952",
      "pitch": 86,
      "t_note_us": 207518429,
      "t_trigger_us": 207382466,
      "is_ai": true,
      "track_id": 4,
      "velocity": 0,
      "is_motor": false,
      "motor_id": 0,
      "accel_val": 2000,
      "base_duration_us": 574997
    },
    {
      "id": "M_956",
      "pitch": 79,
      "t_note_us": 207551241,
      "t_trigger_us": 207415278,
      "is_ai": true,
      "track_id": 0,
      "velocity": 0,
      "is_motor": false,
      "motor_id": 0,
      "accel_val": 2000,
      "base_duration_us": 542185
    },
    {
      "id": "M_957",
      "pitch": 60,
      "t_note_us": 207551241,
      "t_trigger_us": 207415278,
      "is_ai": false,
      "track_id": 0,
      "velocity": 0,
      "is_motor": true,
      "motor_id": 2,
      "accel_val": 2000,
      "base_duration_us": 542185
    },
    {
      "id": "M_955",
      "pitch": 84,
      "t_note_us": 207807490,
      "t_trigger_us": 207671527,
      "is_ai": true,
      "track_id": 3,
      "velocity": 0,
      "is_motor": false,
      "motor_id": 0,
      "accel_val": 2000,
      "base_duration_us": 285936
    },
    {
      "id": "M_958",
      "pitch": 48,
      "t_note_us": 208062177,
      "t_trigger_us": 207926214,
      "is_ai": false,
      "track_id": 0,
      "velocity": 0,
      "is_motor": true,
      "motor_id": 0,
      "accel_val": 2000,
      "base_duration_us": 1118747
    },
    {
      "id": "M_959",
      "pitch": 88,
      "t_note_us": 208093426,
      "t_trigger_us": 207957463,
      "is_ai": true,
      "track_id": 5,
      "velocity": 0,
      "is_motor": false,
      "motor_id": 0,
      "accel_val": 2000,
      "base_duration_us": 1087498
    },
    {
      "id": "M_962",
      "pitch": 55,
      "t_note_us": 208349675,
      "t_trigger_us": 208213712,
      "is_ai": false,
      "track_id": 0,
      "velocity": 0,
      "is_motor": true,
      "motor_id": 1,
      "accel_val": 2000,
      "base_duration_us": 1342185
    },
    {
      "id": "M_960",
      "pitch": 60,
      "t_note_us": 208637175,
      "t_trigger_us": 208501212,
      "is_ai": false,
      "track_id": 0,
      "velocity": 0,
      "is_motor": true,
      "motor_id": 2,
      "accel_val": 2000,
      "base_duration_us": 543749
    },
    {
      "id": "M_963",
      "pitch": 62,
      "t_note_us": 208893424,
      "t_trigger_us": 208757461,
      "is_ai": false,
      "track_id": 0,
      "velocity": 0,
      "is_motor": true,
      "motor_id": 3,
      "accel_val": 2000,
      "base_duration_us": 798436
    },
    {
      "id": "M_966",
      "pitch": 88,
      "t_note_us": 209180924,
      "t_trigger_us": 209044961,
      "is_ai": true,
      "track_id": 5,
      "velocity": 0,
      "is_motor": false,
      "motor_id": 0,
      "accel_val": 2000,
      "base_duration_us": 543748
    },
    {
      "id": "M_964",
      "pitch": 60,
      "t_note_us": 209180924,
      "t_trigger_us": 209044961,
      "is_ai": false,
      "track_id": 0,
      "velocity": 0,
      "is_motor": true,
      "motor_id": 0,
      "accel_val": 2000,
      "base_duration_us": 510936
    },
    {
      "id": "M_965",
      "pitch": 48,
      "t_note_us": 209180924,
      "t_trigger_us": 209044961,
      "is_ai": false,
      "track_id": 0,
      "velocity": 0,
      "is_motor": true,
      "motor_id": 2,
      "accel_val": 2000,
      "base_duration_us": 510936
    },
    {
      "id": "M_961",
      "pitch": 91,
      "t_note_us": 209435611,
      "t_trigger_us": 209299648,
      "is_ai": true,
      "track_id": 7,
      "velocity": 0,
      "is_motor": false,
      "motor_id": 0,
      "accel_val": 2000,
      "base_duration_us": 256249
    },
    {
      "id": "M_972",
      "pitch": 91,
      "t_note_us": 209724672,
      "t_trigger_us": 209588709,
      "is_ai": true,
      "track_id": 7,
      "velocity": 0,
      "is_motor": false,
      "motor_id": 0,
      "accel_val": 2000,
      "base_duration_us": 1628123
    },
    {
      "id": "M_973",
      "pitch": 86,
      "t_note_us": 209724672,
      "t_trigger_us": 209588709,
      "is_ai": true,
      "track_id": 4,
      "velocity": 0,
      "is_motor": false,
      "motor_id": 0,
      "accel_val": 2000,
      "base_duration_us": 1628123
    },
    {
      "id": "M_974",
      "pitch": 52,
      "t_note_us": 209724672,
      "t_trigger_us": 209588709,
      "is_ai": false,
      "track_id": 0,
      "velocity": 0,
      "is_motor": true,
      "motor_id": 0,
      "accel_val": 2000,
      "base_duration_us": 1628123
    },
    {
      "id": "M_967",
      "pitch": 55,
      "t_note_us": 209979359,
      "t_trigger_us": 209843396,
      "is_ai": false,
      "track_id": 0,
      "velocity": 0,
      "is_motor": true,
      "motor_id": 1,
      "accel_val": 2000,
      "base_duration_us": 543749
    },
    {
      "id": "M_970",
      "pitch": 83,
      "t_note_us": 210266859,
      "t_trigger_us": 210130896,
      "is_ai": true,
      "track_id": 2,
      "velocity": 0,
      "is_motor": false,
      "motor_id": 0,
      "accel_val": 2000,
      "base_duration_us": 1085936
    },
    {
      "id": "M_969",
      "pitch": 55,
      "t_note_us": 210523108,
      "t_trigger_us": 210387145,
      "is_ai": false,
      "track_id": 0,
      "velocity": 0,
      "is_motor": true,
      "motor_id": 1,
      "accel_val": 2000,
      "base_duration_us": 829687
    },
    {
      "id": "M_971",
      "pitch": 64,
      "t_note_us": 210810608,
      "t_trigger_us": 210674645,
      "is_ai": false,
      "track_id": 0,
      "velocity": 0,
      "is_motor": true,
      "motor_id": 2,
      "accel_val": 2000,
      "base_duration_us": 542187
    },
    {
      "id": "M_968",
      "pitch": 59,
      "t_note_us": 211065295,
      "t_trigger_us": 210929332,
      "is_ai": false,
      "track_id": 0,
      "velocity": 0,
      "is_motor": true,
      "motor_id": 3,
      "accel_val": 2000,
      "base_duration_us": 0
    },
    {
      "id": "M_975",
      "pitch": 88,
      "t_note_us": 211352795,
      "t_trigger_us": 211216832,
      "is_ai": true,
      "track_id": 5,
      "velocity": 0,
      "is_motor": false,
      "motor_id": 0,
      "accel_val": 2000,
      "base_duration_us": 543750
    },
    {
      "id": "M_988",
      "pitch": 67,
      "t_note_us": 211352795,
      "t_trigger_us": 211216832,
      "is_ai": false,
      "track_id": 0,
      "velocity": 0,
      "is_motor": true,
      "motor_id": 1,
      "accel_val": 2000,
      "base_duration_us": 3290619
    },
    {
      "id": "M_977",
      "pitch": 95,
      "t_note_us": 211896545,
      "t_trigger_us": 211760582,
      "is_ai": true,
      "track_id": 9,
      "velocity": 0,
      "is_motor": false,
      "motor_id": 0,
      "accel_val": 2000,
      "base_duration_us": 574999
    },
    {
      "id": "M_976",
      "pitch": 88,
      "t_note_us": 212440295,
      "t_trigger_us": 212304332,
      "is_ai": true,
      "track_id": 5,
      "velocity": 0,
      "is_motor": false,
      "motor_id": 0,
      "accel_val": 2000,
      "base_duration_us": 0
    },
    {
      "id": "M_978",
      "pitch": 83,
      "t_note_us": 212440295,
      "t_trigger_us": 212304332,
      "is_ai": true,
      "track_id": 2,
      "velocity": 0,
      "is_motor": false,
      "motor_id": 0,
      "accel_val": 2000,
      "base_duration_us": 574998
    },
    {
      "id": "M_979",
      "pitch": 91,
      "t_note_us": 212440295,
      "t_trigger_us": 212304332,
      "is_ai": true,
      "track_id": 7,
      "velocity": 0,
      "is_motor": false,
      "motor_id": 0,
      "accel_val": 2000,
      "base_duration_us": 1085935
    },
    {
      "id": "M_985",
      "pitch": 86,
      "t_note_us": 212982481,
      "t_trigger_us": 212846518,
      "is_ai": true,
      "track_id": 4,
      "velocity": 0,
      "is_motor": false,
      "motor_id": 0,
      "accel_val": 2000,
      "base_duration_us": 1631246
    },
    {
      "id": "M_986",
      "pitch": 60,
      "t_note_us": 212982481,
      "t_trigger_us": 212846518,
      "is_ai": false,
      "track_id": 0,
      "velocity": 0,
      "is_motor": true,
      "motor_id": 0,
      "accel_val": 2000,
      "base_duration_us": 1631246
    },
    {
      "id": "M_987",
      "pitch": 50,
      "t_note_us": 212982481,
      "t_trigger_us": 212846518,
      "is_ai": false,
      "track_id": 0,
      "velocity": 0,
      "is_motor": true,
      "motor_id": 2,
      "accel_val": 2000,
      "base_duration_us": 1631246
    },
    {
      "id": "M_982",
      "pitch": 91,
      "t_note_us": 213526230,
      "t_trigger_us": 213390267,
      "is_ai": true,
      "track_id": 7,
      "velocity": 0,
      "is_motor": false,
      "motor_id": 0,
      "accel_val": 2000,
      "base_duration_us": 1087497
    },
    {
      "id": "M_980",
      "pitch": 89,
      "t_note_us": 213782479,
      "t_trigger_us": 213646516,
      "is_ai": true,
      "track_id": 6,
      "velocity": 0,
      "is_motor": false,
      "motor_id": 0,
      "accel_val": 2000,
      "base_duration_us": 0
    },
    {
      "id": "M_981",
      "pitch": 81,
      "t_note_us": 214324665,
      "t_trigger_us": 214188702,
      "is_ai": true,
      "track_id": 1,
      "velocity": 0,
      "is_motor": false,
      "motor_id": 0,
      "accel_val": 2000,
      "base_duration_us": 0
    },
    {
      "id": "M_983",
      "pitch": 79,
      "t_note_us": 214613727,
      "t_trigger_us": 214477764,
      "is_ai": true,
      "track_id": 0,
      "velocity": 0,
      "is_motor": false,
      "motor_id": 0,
      "accel_val": 2000,
      "base_duration_us": 0
    },
    {
      "id": "M_984",
      "pitch": 88,
      "t_note_us": 214613727,
      "t_trigger_us": 214477764,
      "is_ai": true,
      "track_id": 5,
      "velocity": 0,
      "is_motor": false,
      "motor_id": 0,
      "accel_val": 2000,
      "base_duration_us": 0
    },
    {
      "id": "M_990",
      "pitch": 83,
      "t_note_us": 214613727,
      "t_trigger_us": 214477764,
      "is_ai": true,
      "track_id": 2,
      "velocity": 0,
      "is_motor": false,
      "motor_id": 0,
      "accel_val": 2000,
      "base_duration_us": 1629684
    },
    {
      "id": "M_991",
      "pitch": 89,
      "t_note_us": 214613727,
      "t_trigger_us": 214477764,
      "is_ai": true,
      "track_id": 6,
      "velocity": 0,
      "is_motor": false,
      "motor_id": 0,
      "accel_val": 2000,
      "base_duration_us": 1629684
    },
    {
      "id": "M_992",
      "pitch": 59,
      "t_note_us": 214613727,
      "t_trigger_us": 214477764,
      "is_ai": false,
      "track_id": 0,
      "velocity": 0,
      "is_motor": true,
      "motor_id": 0,
      "accel_val": 2000,
      "base_duration_us": 1629684
    },
    {
      "id": "M_989",
      "pitch": 86,
      "t_note_us": 215155913,
      "t_trigger_us": 215019950,
      "is_ai": true,
      "track_id": 4,
      "velocity": 0,
      "is_motor": false,
      "motor_id": 0,
      "accel_val": 2000,
      "base_duration_us": 1087498
    },
    {
      "id": "M_993",
      "pitch": 91,
      "t_note_us": 215987162,
      "t_trigger_us": 215851199,
      "is_ai": true,
      "track_id": 7,
      "velocity": 0,
      "is_motor": false,
      "motor_id": 0,
      "accel_val": 2000,
      "base_duration_us": 289061
    },
    {
      "id": "M_995",
      "pitch": 93,
      "t_note_us": 216243411,
      "t_trigger_us": 216107448,
      "is_ai": true,
      "track_id": 8,
      "velocity": 0,
      "is_motor": false,
      "motor_id": 0,
      "accel_val": 2000,
      "base_duration_us": 1629683
    },
    {
      "id": "M_996",
      "pitch": 84,
      "t_note_us": 216243411,
      "t_trigger_us": 216107448,
      "is_ai": true,
      "track_id": 3,
      "velocity": 0,
      "is_motor": false,
      "motor_id": 0,
      "accel_val": 2000,
      "base_duration_us": 1629683
    },
    {
      "id": "M_997",
      "pitch": 53,
      "t_note_us": 216243411,
      "t_trigger_us": 216107448,
      "is_ai": false,
      "track_id": 0,
      "velocity": 0,
      "is_motor": true,
      "motor_id": 0,
      "accel_val": 2000,
      "base_duration_us": 1629683
    },
    {
      "id": "M_1000",
      "pitch": 60,
      "t_note_us": 216532472,
      "t_trigger_us": 216396509,
      "is_ai": false,
      "track_id": 0,
      "velocity": 0,
      "is_motor": true,
      "motor_id": 1,
      "accel_val": 2000,
      "base_duration_us": 1340622
    },
    {
      "id": "M_994",
      "pitch": 89,
      "t_note_us": 216787159,
      "t_trigger_us": 216651196,
      "is_ai": true,
      "track_id": 6,
      "velocity": 0,
      "is_motor": false,
      "motor_id": 0,
      "accel_val": 2000,
      "base_duration_us": 831248
    },
    {
      "id": "M_998",
      "pitch": 81,
      "t_note_us": 216787159,
      "t_trigger_us": 216651196,
      "is_ai": true,
      "track_id": 1,
      "velocity": 0,
      "is_motor": false,
      "motor_id": 0,
      "accel_val": 2000,
      "base_duration_us": 1085935
    },
    {
      "id": "M_1001",
      "pitch": 65,
      "t_note_us": 216818408,
      "t_trigger_us": 216682445,
      "is_ai": false,
      "track_id": 0,
      "velocity": 0,
      "is_motor": true,
      "motor_id": 2,
      "accel_val": 2000,
      "base_duration_us": 1054686
    },
    {
      "id": "M_1002",
      "pitch": 89,
      "t_note_us": 217618407,
      "t_trigger_us": 217482444,
      "is_ai": true,
      "track_id": 6,
      "velocity": 0,
      "is_motor": false,
      "motor_id": 0,
      "accel_val": 2000,
      "base_duration_us": 285936
    },
    {
      "id": "M_999",
      "pitch": 88,
      "t_note_us": 217873094,
      "t_trigger_us": 217737131,
      "is_ai": true,
      "track_id": 5,
      "velocity": 0,
      "is_motor": false,
      "motor_id": 0,
      "accel_val": 2000,
      "base_duration_us": 0
    },
    {
      "id": "M_1003",
      "pitch": 79,
      "t_note_us": 217873094,
      "t_trigger_us": 217737131,
      "is_ai": true,
      "track_id": 0,
      "velocity": 0,
      "is_motor": false,
      "motor_id": 0,
      "accel_val": 2000,
      "base_duration_us": 1664060
    },
    {
      "id": "M_1004",
      "pitch": 59,
      "t_note_us": 217873094,
      "t_trigger_us": 217737131,
      "is_ai": false,
      "track_id": 0,
      "velocity": 0,
      "is_motor": true,
      "motor_id": 0,
      "accel_val": 2000,
      "base_duration_us": 1664060
    },
    {
      "id": "M_1005",
      "pitch": 86,
      "t_note_us": 218416842,
      "t_trigger_us": 218280879,
      "is_ai": true,
      "track_id": 4,
      "velocity": 0,
      "is_motor": false,
      "motor_id": 0,
      "accel_val": 2000,
      "base_duration_us": 1120312
    },
    {
      "id": "M_1006",
      "pitch": 83,
      "t_note_us": 218416842,
      "t_trigger_us": 218280879,
      "is_ai": true,
      "track_id": 2,
      "velocity": 0,
      "is_motor": false,
      "motor_id": 0,
      "accel_val": 2000,
      "base_duration_us": 1120312
    },
    {
      "id": "M_1010",
      "pitch": 89,
      "t_note_us": 219504342,
      "t_trigger_us": 219368379,
      "is_ai": true,
      "track_id": 6,
      "velocity": 0,
      "is_motor": false,
      "motor_id": 0,
      "accel_val": 2000,
      "base_duration_us": 1664059
    },
    {
      "id": "M_1011",
      "pitch": 89,
      "t_note_us": 219504342,
      "t_trigger_us": 219368379,
      "is_ai": true,
      "track_id": 6,
      "velocity": 0,
      "is_motor": false,
      "motor_id": 0,
      "accel_val": 2000,
      "base_duration_us": 1664059
    },
    {
      "id": "M_1007",
      "pitch": 69,
      "t_note_us": 219504342,
      "t_trigger_us": 219368379,
      "is_ai": false,
      "track_id": 0,
      "velocity": 0,
      "is_motor": true,
      "motor_id": 1,
      "accel_val": 2000,
      "base_duration_us": 543749
    },
    {
      "id": "M_1012",
      "pitch": 50,
      "t_note_us": 219504342,
      "t_trigger_us": 219368379,
      "is_ai": false,
      "track_id": 0,
      "velocity": 0,
      "is_motor": true,
      "motor_id": 2,
      "accel_val": 2000,
      "base_duration_us": 1664059
    },
    {
      "id": "M_1015",
      "pitch": 60,
      "t_note_us": 219537154,
      "t_trigger_us": 219401191,
      "is_ai": false,
      "track_id": 0,
      "velocity": 0,
      "is_motor": true,
      "motor_id": 0,
      "accel_val": 2000,
      "base_duration_us": 1631247
    },
    {
      "id": "M_1008",
      "pitch": 81,
      "t_note_us": 220048091,
      "t_trigger_us": 219912128,
      "is_ai": true,
      "track_id": 1,
      "velocity": 0,
      "is_motor": false,
      "motor_id": 0,
      "accel_val": 2000,
      "base_duration_us": 832811
    },
    {
      "id": "M_1009",
      "pitch": 88,
      "t_note_us": 220048091,
      "t_trigger_us": 219912128,
      "is_ai": true,
      "track_id": 5,
      "velocity": 0,
      "is_motor": false,
      "motor_id": 0,
      "accel_val": 2000,
      "base_duration_us": 1087498
    },
    {
      "id": "M_1014",
      "pitch": 86,
      "t_note_us": 220624653,
      "t_trigger_us": 220488690,
      "is_ai": true,
      "track_id": 4,
      "velocity": 0,
      "is_motor": false,
      "motor_id": 0,
      "accel_val": 2000,
      "base_duration_us": 543748
    },
    {
      "id": "M_1013",
      "pitch": 81,
      "t_note_us": 220880902,
      "t_trigger_us": 220744939,
      "is_ai": true,
      "track_id": 1,
      "velocity": 0,
      "is_motor": false,
      "motor_id": 0,
      "accel_val": 2000,
      "base_duration_us": 287499
    },
    {
      "id": "M_1016",
      "pitch": 88,
      "t_note_us": 221135589,
      "t_trigger_us": 220999626,
      "is_ai": true,
      "track_id": 5,
      "velocity": 0,
      "is_motor": false,
      "motor_id": 0,
      "accel_val": 2000,
      "base_duration_us": 1664061
    },
    {
      "id": "M_1019",
      "pitch": 89,
      "t_note_us": 221168401,
      "t_trigger_us": 221032438,
      "is_ai": true,
      "track_id": 6,
      "velocity": 0,
      "is_motor": false,
      "motor_id": 0,
      "accel_val": 2000,
      "base_duration_us": 1631249
    },
    {
      "id": "M_1020",
      "pitch": 65,
      "t_note_us": 221168401,
      "t_trigger_us": 221032438,
      "is_ai": false,
      "track_id": 0,
      "velocity": 0,
      "is_motor": true,
      "motor_id": 1,
      "accel_val": 2000,
      "base_duration_us": 1631249
    },
    {
      "id": "M_1021",
      "pitch": 59,
      "t_note_us": 221168401,
      "t_trigger_us": 221032438,
      "is_ai": false,
      "track_id": 0,
      "velocity": 0,
      "is_motor": true,
      "motor_id": 0,
      "accel_val": 2000,
      "base_duration_us": 1631249
    },
    {
      "id": "M_1018",
      "pitch": 86,
      "t_note_us": 222255901,
      "t_trigger_us": 222119938,
      "is_ai": true,
      "track_id": 4,
      "velocity": 0,
      "is_motor": false,
      "motor_id": 0,
      "accel_val": 2000,
      "base_duration_us": 543749
    },
    {
      "id": "M_1017",
      "pitch": 84,
      "t_note_us": 222512150,
      "t_trigger_us": 222376187,
      "is_ai": true,
      "track_id": 3,
      "velocity": 0,
      "is_motor": false,
      "motor_id": 0,
      "accel_val": 2000,
      "base_duration_us": 287500
    },
    {
      "id": "M_1024",
      "pitch": 79,
      "t_note_us": 222799650,
      "t_trigger_us": 222663687,
      "is_ai": true,
      "track_id": 0,
      "velocity": 0,
      "is_motor": false,
      "motor_id": 0,
      "accel_val": 2000,
      "base_duration_us": 1085936
    },
    {
      "id": "M_1034",
      "pitch": 87,
      "t_note_us": 222799650,
      "t_trigger_us": 222663687,
      "is_ai": true,
      "track_id": 0,
      "velocity": 0,
      "is_motor": true,
      "motor_id": 3,
      "accel_val": 2000,
      "base_duration_us": 1629686
    },
    {
      "id": "M_1035",
      "pitch": 43,
      "t_note_us": 222799650,
      "t_trigger_us": 222663687,
      "is_ai": false,
      "track_id": 0,
      "velocity": 0,
      "is_motor": true,
      "motor_id": 0,
      "accel_val": 2000,
      "base_duration_us": 1629686
    },
    {
      "id": "M_1025",
      "pitch": 56,
      "t_note_us": 223054337,
      "t_trigger_us": 222918374,
      "is_ai": false,
      "track_id": 0,
      "velocity": 0,
      "is_motor": true,
      "motor_id": 1,
      "accel_val": 2000,
      "base_duration_us": 1374999
    },
    {
      "id": "M_1023",
      "pitch": 89,
      "t_note_us": 223341837,
      "t_trigger_us": 223205874,
      "is_ai": true,
      "track_id": 6,
      "velocity": 0,
      "is_motor": false,
      "motor_id": 0,
      "accel_val": 2000,
      "base_duration_us": 543749
    },
    {
      "id": "M_1027",
      "pitch": 80,
      "t_note_us": 223341837,
      "t_trigger_us": 223205874,
      "is_ai": true,
      "track_id": 0,
      "velocity": 0,
      "is_motor": true,
      "motor_id": 2,
      "accel_val": 2000,
      "base_duration_us": 1087499
    },
    {
      "id": "M_1028",
      "pitch": 60,
      "t_note_us": 223341837,
      "t_trigger_us": 223205874,
      "is_ai": false,
      "track_id": 0,
      "velocity": 0,
      "is_motor": true,
      "motor_id": 0,
      "accel_val": 2000,
      "base_duration_us": 1087499
    },
    {
      "id": "M_1022",
      "pitch": 67,
      "t_note_us": 223598086,
      "t_trigger_us": 223462123,
      "is_ai": false,
      "track_id": 0,
      "velocity": 0,
      "is_motor": true,
      "motor_id": 0,
      "accel_val": 2000,
      "base_duration_us": 0
    },
    {
      "id": "M_1029",
      "pitch": 82,
      "t_note_us": 223885586,
      "t_trigger_us": 223749623,
      "is_ai": true,
      "track_id": 0,
      "velocity": 0,
      "is_motor": true,
      "motor_id": 0,
      "accel_val": 2000,
      "base_duration_us": 543750
    },
    {
      "id": "M_1030",
      "pitch": 79,
      "t_note_us": 223885586,
      "t_trigger_us": 223749623,
      "is_ai": true,
      "track_id": 0,
      "velocity": 0,
      "is_motor": false,
      "motor_id": 0,
      "accel_val": 2000,
      "base_duration_us": 543750
    },
    {
      "id": "M_1032",
      "pitch": 82,
      "t_note_us": 223885586,
      "t_trigger_us": 223749623,
      "is_ai": true,
      "track_id": 0,
      "velocity": 0,
      "is_motor": true,
      "motor_id": 0,
      "accel_val": 2000,
      "base_duration_us": 543750
    },
    {
      "id": "M_1033",
      "pitch": 65,
      "t_note_us": 223885586,
      "t_trigger_us": 223749623,
      "is_ai": false,
      "track_id": 0,
      "velocity": 0,
      "is_motor": true,
      "motor_id": 0,
      "accel_val": 2000,
      "base_duration_us": 543750
    },
    {
      "id": "M_1026",
      "pitch": 80,
      "t_note_us": 224429336,
      "t_trigger_us": 224293373,
      "is_ai": true,
      "track_id": 0,
      "velocity": 0,
      "is_motor": true,
      "motor_id": 2,
      "accel_val": 2000,
      "base_duration_us": 0
    },
    {
      "id": "M_1031",
      "pitch": 89,
      "t_note_us": 224429336,
      "t_trigger_us": 224293373,
      "is_ai": true,
      "track_id": 6,
      "velocity": 0,
      "is_motor": false,
      "motor_id": 0,
      "accel_val": 2000,
      "base_duration_us": 0
    },
    {
      "id": "M_1037",
      "pitch": 84,
      "t_note_us": 224429336,
      "t_trigger_us": 224293373,
      "is_ai": true,
      "track_id": 3,
      "velocity": 0,
      "is_motor": false,
      "motor_id": 0,
      "accel_val": 2000,
      "base_duration_us": 1628121
    },
    {
      "id": "M_1038",
      "pitch": 84,
      "t_note_us": 224429336,
      "t_trigger_us": 224293373,
      "is_ai": true,
      "track_id": 3,
      "velocity": 0,
      "is_motor": false,
      "motor_id": 0,
      "accel_val": 2000,
      "base_duration_us": 1628121
    },
    {
      "id": "M_1039",
      "pitch": 41,
      "t_note_us": 224429336,
      "t_trigger_us": 224293373,
      "is_ai": false,
      "track_id": 0,
      "velocity": 0,
      "is_motor": true,
      "motor_id": 0,
      "accel_val": 2000,
      "base_duration_us": 1628121
    },
    {
      "id": "M_1041",
      "pitch": 56,
      "t_note_us": 224685585,
      "t_trigger_us": 224549622,
      "is_ai": false,
      "track_id": 0,
      "velocity": 0,
      "is_motor": true,
      "motor_id": 1,
      "accel_val": 2000,
      "base_duration_us": 1371872
    },
    {
      "id": "M_1043",
      "pitch": 62,
      "t_note_us": 224971522,
      "t_trigger_us": 224835559,
      "is_ai": false,
      "track_id": 0,
      "velocity": 0,
      "is_motor": true,
      "motor_id": 2,
      "accel_val": 2000,
      "base_duration_us": 1085935
    },
    {
      "id": "M_1040",
      "pitch": 67,
      "t_note_us": 225259022,
      "t_trigger_us": 225123059,
      "is_ai": false,
      "track_id": 0,
      "velocity": 0,
      "is_motor": true,
      "motor_id": 3,
      "accel_val": 2000,
      "base_duration_us": 798435
    },
    {
      "id": "M_1036",
      "pitch": 89,
      "t_note_us": 225515271,
      "t_trigger_us": 225379308,
      "is_ai": true,
      "track_id": 6,
      "velocity": 0,
      "is_motor": false,
      "motor_id": 0,
      "accel_val": 2000,
      "base_duration_us": 542186
    },
    {
      "id": "M_1044",
      "pitch": 86,
      "t_note_us": 225515271,
      "t_trigger_us": 225379308,
      "is_ai": true,
      "track_id": 4,
      "velocity": 0,
      "is_motor": false,
      "motor_id": 0,
      "accel_val": 2000,
      "base_duration_us": 2173433
    },
    {
      "id": "M_1045",
      "pitch": 86,
      "t_note_us": 225515271,
      "t_trigger_us": 225379308,
      "is_ai": true,
      "track_id": 4,
      "velocity": 0,
      "is_motor": false,
      "motor_id": 0,
      "accel_val": 2000,
      "base_duration_us": 2173433
    },
    {
      "id": "M_1042",
      "pitch": 65,
      "t_note_us": 225546520,
      "t_trigger_us": 225410557,
      "is_ai": false,
      "track_id": 0,
      "velocity": 0,
      "is_motor": true,
      "motor_id": 0,
      "accel_val": 2000,
      "base_duration_us": 510937
    },
    {
      "id": "M_1052",
      "pitch": 48,
      "t_note_us": 226057457,
      "t_trigger_us": 225921494,
      "is_ai": false,
      "track_id": 0,
      "velocity": 0,
      "is_motor": true,
      "motor_id": 0,
      "accel_val": 2000,
      "base_duration_us": 1631247
    },
    {
      "id": "M_1051",
      "pitch": 55,
      "t_note_us": 226346519,
      "t_trigger_us": 226210556,
      "is_ai": false,
      "track_id": 0,
      "velocity": 0,
      "is_motor": true,
      "motor_id": 1,
      "accel_val": 2000,
      "base_duration_us": 1342185
    },
    {
      "id": "M_1046",
      "pitch": 91,
      "t_note_us": 226602768,
      "t_trigger_us": 226466805,
      "is_ai": true,
      "track_id": 7,
      "velocity": 0,
      "is_motor": false,
      "motor_id": 0,
      "accel_val": 2000,
      "base_duration_us": 1085936
    },
    {
      "id": "M_1047",
      "pitch": 84,
      "t_note_us": 226602768,
      "t_trigger_us": 226466805,
      "is_ai": true,
      "track_id": 3,
      "velocity": 0,
      "is_motor": false,
      "motor_id": 0,
      "accel_val": 2000,
      "base_duration_us": 1085936
    },
    {
      "id": "M_1048",
      "pitch": 79,
      "t_note_us": 226602768,
      "t_trigger_us": 226466805,
      "is_ai": true,
      "track_id": 0,
      "velocity": 0,
      "is_motor": false,
      "motor_id": 0,
      "accel_val": 2000,
      "base_duration_us": 1085936
    },
    {
      "id": "M_1049",
      "pitch": 60,
      "t_note_us": 226602768,
      "t_trigger_us": 226466805,
      "is_ai": false,
      "track_id": 0,
      "velocity": 0,
      "is_motor": true,
      "motor_id": 2,
      "accel_val": 2000,
      "base_duration_us": 1085936
    },
    {
      "id": "M_1050",
      "pitch": 62,
      "t_note_us": 226888705,
      "t_trigger_us": 226752742,
      "is_ai": false,
      "track_id": 0,
      "velocity": 0,
      "is_motor": true,
      "motor_id": 3,
      "accel_val": 2000,
      "base_duration_us": 799999
    },
    {
      "id": "M_1054",
      "pitch": 64,
      "t_note_us": 227144954,
      "t_trigger_us": 227008991,
      "is_ai": false,
      "track_id": 0,
      "velocity": 0,
      "is_motor": true,
      "motor_id": 0,
      "accel_val": 2000,
      "base_duration_us": 2173434
    },
    {
      "id": "M_1055",
      "pitch": 88,
      "t_note_us": 227974641,
      "t_trigger_us": 227838678,
      "is_ai": true,
      "track_id": 5,
      "velocity": 0,
      "is_motor": false,
      "motor_id": 0,
      "accel_val": 2000,
      "base_duration_us": 1343747
    },
    {
      "id": "M_1053",
      "pitch": 86,
      "t_note_us": 228230890,
      "t_trigger_us": 228094927,
      "is_ai": true,
      "track_id": 4,
      "velocity": 0,
      "is_motor": false,
      "motor_id": 0,
      "accel_val": 2000,
      "base_duration_us": 1087498
    },
    {
      "id": "M_1057",
      "pitch": 84,
      "t_note_us": 228519952,
      "t_trigger_us": 228383989,
      "is_ai": true,
      "track_id": 3,
      "velocity": 0,
      "is_motor": false,
      "motor_id": 0,
      "accel_val": 2000,
      "base_duration_us": 798436
    },
    {
      "id": "M_1063",
      "pitch": 79,
      "t_note_us": 228774639,
      "t_trigger_us": 228638676,
      "is_ai": true,
      "track_id": 0,
      "velocity": 0,
      "is_motor": false,
      "motor_id": 0,
      "accel_val": 2000,
      "base_duration_us": 4159372
    },
    {
      "id": "M_1056",
      "pitch": 88,
      "t_note_us": 229318388,
      "t_trigger_us": 229182425,
      "is_ai": true,
      "track_id": 5,
      "velocity": 0,
      "is_motor": false,
      "motor_id": 0,
      "accel_val": 2000,
      "base_duration_us": 0
    },
    {
      "id": "M_1058",
      "pitch": 86,
      "t_note_us": 229318388,
      "t_trigger_us": 229182425,
      "is_ai": true,
      "track_id": 4,
      "velocity": 0,
      "is_motor": false,
      "motor_id": 0,
      "accel_val": 2000,
      "base_duration_us": 1824999
    },
    {
      "id": "M_1059",
      "pitch": 83,
      "t_note_us": 229318388,
      "t_trigger_us": 229182425,
      "is_ai": true,
      "track_id": 2,
      "velocity": 0,
      "is_motor": false,
      "motor_id": 0,
      "accel_val": 2000,
      "base_duration_us": 1824999
    },
    {
      "id": "M_1060",
      "pitch": 60,
      "t_note_us": 229318388,
      "t_trigger_us": 229182425,
      "is_ai": false,
      "track_id": 0,
      "velocity": 0,
      "is_motor": true,
      "motor_id": 1,
      "accel_val": 2000,
      "base_duration_us": 1824999
    },
    {
      "id": "M_1061",
      "pitch": 84,
      "t_note_us": 230534013,
      "t_trigger_us": 230398050,
      "is_ai": true,
      "track_id": 3,
      "velocity": 0,
      "is_motor": false,
      "motor_id": 0,
      "accel_val": 2000,
      "base_duration_us": 609374
    },
    {
      "id": "M_1062",
      "pitch": 69,
      "t_note_us": 230534013,
      "t_trigger_us": 230398050,
      "is_ai": false,
      "track_id": 0,
      "velocity": 0,
      "is_motor": true,
      "motor_id": 2,
      "accel_val": 2000,
      "base_duration_us": 609374
    },
    {
      "id": "M_1067",
      "pitch": 88,
      "t_note_us": 231110575,
      "t_trigger_us": 230974612,
      "is_ai": true,
      "track_id": 5,
      "velocity": 0,
      "is_motor": false,
      "motor_id": 0,
      "accel_val": 2000,
      "base_duration_us": 1823436
    },
    {
      "id": "M_1064",
      "pitch": 79,
      "t_note_us": 231143387,
      "t_trigger_us": 231007424,
      "is_ai": true,
      "track_id": 0,
      "velocity": 0,
      "is_motor": false,
      "motor_id": 0,
      "accel_val": 2000,
      "base_duration_us": 1790624
    },
    {
      "id": "M_1065",
      "pitch": 86,
      "t_note_us": 232326199,
      "t_trigger_us": 232190236,
      "is_ai": true,
      "track_id": 4,
      "velocity": 0,
      "is_motor": false,
      "motor_id": 0,
      "accel_val": 2000,
      "base_duration_us": 607812
    },
    {
      "id": "M_1066",
      "pitch": 66,
      "t_note_us": 232326199,
      "t_trigger_us": 232190236,
      "is_ai": false,
      "track_id": 0,
      "velocity": 0,
      "is_motor": true,
      "motor_id": 1,
      "accel_val": 2000,
      "base_duration_us": 607812
    },
    {
      "id": "M_1069",
      "pitch": 93,
      "t_note_us": 232934011,
      "t_trigger_us": 232798048,
      "is_ai": true,
      "track_id": 8,
      "velocity": 0,
      "is_motor": false,
      "motor_id": 0,
      "accel_val": 2000,
      "base_duration_us": 3615623
    },
    {
      "id": "M_1070",
      "pitch": 81,
      "t_note_us": 232934011,
      "t_trigger_us": 232798048,
      "is_ai": true,
      "track_id": 1,
      "velocity": 0,
      "is_motor": false,
      "motor_id": 0,
      "accel_val": 2000,
      "base_duration_us": 3615623
    },
    {
      "id": "M_1071",
      "pitch": 65,
      "t_note_us": 232934011,
      "t_trigger_us": 232798048,
      "is_ai": false,
      "track_id": 0,
      "velocity": 0,
      "is_motor": true,
      "motor_id": 1,
      "accel_val": 2000,
      "base_duration_us": 3615623
    },
    {
      "id": "M_1072",
      "pitch": 59,
      "t_note_us": 232934011,
      "t_trigger_us": 232798048,
      "is_ai": false,
      "track_id": 0,
      "velocity": 0,
      "is_motor": true,
      "motor_id": 0,
      "accel_val": 2000,
      "base_duration_us": 3615623
    },
    {
      "id": "M_1073",
      "pitch": 53,
      "t_note_us": 232934011,
      "t_trigger_us": 232798048,
      "is_ai": false,
      "track_id": 0,
      "velocity": 0,
      "is_motor": true,
      "motor_id": 2,
      "accel_val": 2000,
      "base_duration_us": 3615623
    },
    {
      "id": "M_1068",
      "pitch": 60,
      "t_note_us": 234726198,
      "t_trigger_us": 234590235,
      "is_ai": false,
      "track_id": 0,
      "velocity": 0,
      "is_motor": true,
      "motor_id": 3,
      "accel_val": 2000,
      "base_duration_us": 1823436
    },
    {
      "id": "M_1074",
      "pitch": 88,
      "t_note_us": 236518385,
      "t_trigger_us": 236382422,
      "is_ai": true,
      "track_id": 5,
      "velocity": 0,
      "is_motor": false,
      "motor_id": 0,
      "accel_val": 2000,
      "base_duration_us": 4799999
    },
    {
      "id": "M_1075",
      "pitch": 86,
      "t_note_us": 236518385,
      "t_trigger_us": 236382422,
      "is_ai": true,
      "track_id": 4,
      "velocity": 0,
      "is_motor": false,
      "motor_id": 0,
      "accel_val": 2000,
      "base_duration_us": 4799999
    },
    {
      "id": "M_1076",
      "pitch": 84,
      "t_note_us": 236518385,
      "t_trigger_us": 236382422,
      "is_ai": true,
      "track_id": 3,
      "velocity": 0,
      "is_motor": false,
      "motor_id": 0,
      "accel_val": 2000,
      "base_duration_us": 4799999
    },
    {
      "id": "M_1077",
      "pitch": 79,
      "t_note_us": 236518385,
      "t_trigger_us": 236382422,
      "is_ai": true,
      "track_id": 0,
      "velocity": 0,
      "is_motor": false,
      "motor_id": 0,
      "accel_val": 2000,
      "base_duration_us": 4799999
    },
    {
      "id": "M_1078",
      "pitch": 55,
      "t_note_us": 236518385,
      "t_trigger_us": 236382422,
      "is_ai": false,
      "track_id": 0,
      "velocity": 0,
      "is_motor": true,
      "motor_id": 0,
      "accel_val": 2000,
      "base_duration_us": 4799999
    },
    {
      "id": "M_1079",
      "pitch": 64,
      "t_note_us": 236549634,
      "t_trigger_us": 236413671,
      "is_ai": false,
      "track_id": 0,
      "velocity": 0,
      "is_motor": true,
      "motor_id": 1,
      "accel_val": 2000,
      "base_duration_us": 4768750
    },
    {
      "id": "M_1080",
      "pitch": 60,
      "t_note_us": 236549634,
      "t_trigger_us": 236413671,
      "is_ai": false,
      "track_id": 0,
      "velocity": 0,
      "is_motor": true,
      "motor_id": 0,
      "accel_val": 2000,
      "base_duration_us": 4768750
    }
  ]
}