{
  "config": {
    "mode_idx": 0,
    "active_motors": [
      0,
      1,
      2,
      3
    ],
    "transpose": 0,
    "arp_speed_ms": 10,
    "gate_time": 100
  },
  "sustain_multiplier": 1.0,
  "notes": [
    {
      "id": "M_0",
      "pitch": 84,
      "t_note_us": 2441859,
      "t_trigger_us": 2305896,
      "is_ai": true,
      "track_id": 3,
      "velocity": 0,
      "is_motor": false,
      "motor_id": 0,
      "accel_val": 2000,
      "base_duration_us": 174418
    },
    {
      "id": "M_1",
      "pitch": 86,
      "t_note_us": 2616277,
      "t_trigger_us": 2480314,
      "is_ai": true,
      "track_id": 4,
      "velocity": 0,
      "is_motor": false,
      "motor_id": 0,
      "accel_val": 2000,
      "base_duration_us": 174418
    },
    {
      "id": "M_5",
      "pitch": 88,
      "t_note_us": 2790695,
      "t_trigger_us": 2654732,
      "is_ai": true,
      "track_id": 5,
      "velocity": 0,
      "is_motor": false,
      "motor_id": 0,
      "accel_val": 2000,
      "base_duration_us": 174418
    },
    {
      "id": "M_2",
      "pitch": 64,
      "t_note_us": 2790695,
      "t_trigger_us": 2654732,
      "is_ai": false,
      "track_id": 0,
      "velocity": 0,
      "is_motor": true,
      "motor_id": 1,
      "accel_val": 2000,
      "base_duration_us": 174418
    },
    {
      "id": "M_3",
      "pitch": 69,
      "t_note_us": 2790695,
      "t_trigger_us": 2654732,
      "is_ai": false,
      "track_id": 0,
      "velocity": 0,
      "is_motor": true,
      "motor_id": 2,
      "accel_val": 2000,
      "base_duration_us": 174418
    },
    {
      "id": "M_4",
      "pitch": 57,
      "t_note_us": 2790695,
      "t_trigger_us": 2654732,
      "is_ai": false,
      "track_id": 0,
      "velocity": 0,
      "is_motor": true,
      "motor_id": 0,
      "accel_val": 2000,
      "base_duration_us": 174418
    },
    {
      "id": "M_6",
      "pitch": 84,
      "t_note_us": 3139531,
      "t_trigger_us": 3003568,
      "is_ai": true,
      "track_id": 3,
      "velocity": 0,
      "is_motor": false,
      "motor_id": 0,
      "accel_val": 2000,
      "base_duration_us": 174418
    },
    {
      "id": "M_7",
      "pitch": 81,
      "t_note_us": 3313949,
      "t_trigger_us": 3177986,
      "is_ai": true,
      "track_id": 1,
      "velocity": 0,
      "is_motor": false,
      "motor_id": 0,
      "accel_val": 2000,
      "base_duration_us": 174418
    },
    {
      "id": "M_8",
      "pitch": 86,
      "t_note_us": 3837204,
      "t_trigger_us": 3701241,
      "is_ai": true,
      "track_id": 4,
      "velocity": 0,
      "is_motor": false,
      "motor_id": 0,
      "accel_val": 2000,
      "base_duration_us": 174418
    },
    {
      "id": "M_9",
      "pitch": 62,
      "t_note_us": 4186040,
      "t_trigger_us": 4050077,
      "is_ai": false,
      "track_id": 0,
      "velocity": 0,
      "is_motor": true,
      "motor_id": 1,
      "accel_val": 2000,
      "base_duration_us": 174418
    },
    {
      "id": "M_10",
      "pitch": 55,
      "t_note_us": 4186040,
      "t_trigger_us": 4050077,
      "is_ai": false,
      "track_id": 0,
      "velocity": 0,
      "is_motor": true,
      "motor_id": 0,
      "accel_val": 2000,
      "base_duration_us": 174418
    },
    {
      "id": "M_11",
      "pitch": 67,
      "t_note_us": 4186040,
      "t_trigger_us": 4050077,
      "is_ai": false,
      "track_id": 0,
      "velocity": 0,
      "is_motor": true,
      "motor_id": 2,
      "accel_val": 2000,
      "base_duration_us": 174418
    },
    {
      "id": "M_12",
      "pitch": 71,
      "t_note_us": 4186040,
      "t_trigger_us": 4050077,
      "is_ai": false,
      "track_id": 0,
      "velocity": 0,
      "is_motor": true,
      "motor_id": 3,
      "accel_val": 2000,
      "base_duration_us": 174418
    },
    {
      "id": "M_13",
      "pitch": 67,
      "t_note_us": 4534876,
      "t_trigger_us": 4398913,
      "is_ai": false,
      "track_id": 0,
      "velocity": 0,
      "is_motor": true,
      "motor_id": 1,
      "accel_val": 2000,
      "base_duration_us": 174418
    },
    {
      "id": "M_14",
      "pitch": 76,
      "t_note_us": 4709294,
      "t_trigger_us": 4573331,
      "is_ai": false,
      "track_id": 0,
      "velocity": 0,
      "is_motor": true,
      "motor_id": 2,
      "accel_val": 2000,
      "base_duration_us": 174418
    },
    {
      "id": "M_15",
      "pitch": 83,
      "t_note_us": 5232549,
      "t_trigger_us": 5096586,
      "is_ai": true,
      "track_id": 2,
      "velocity": 0,
      "is_motor": false,
      "motor_id": 0,
      "accel_val": 2000,
      "base_duration_us": 174418
    },
    {
      "id": "M_16",
      "pitch": 81,
      "t_note_us": 5581385,
      "t_trigger_us": 5445422,
      "is_ai": true,
      "track_id": 1,
      "velocity": 0,
      "is_motor": false,
      "motor_id": 0,
      "accel_val": 2000,
      "base_duration_us": 174418
    },
    {
      "id": "M_17",
      "pitch": 57,
      "t_note_us": 5581385,
      "t_trigger_us": 5445422,
      "is_ai": false,
      "track_id": 0,
      "velocity": 0,
      "is_motor": true,
      "motor_id": 0,
      "accel_val": 2000,
      "base_duration_us": 174418
    },
    {
      "id": "M_18",
      "pitch": 53,
      "t_note_us": 5581385,
      "t_trigger_us": 5445422,
      "is_ai": false,
      "track_id": 0,
      "velocity": 0,
      "is_motor": true,
      "motor_id": 1,
      "accel_val": 2000,
      "base_duration_us": 174418
    },
    {
      "id": "M_19",
      "pitch": 65,
      "t_note_us": 5581385,
      "t_trigger_us": 5445422,
      "is_ai": false,
      "track_id": 0,
      "velocity": 0,
      "is_motor": true,
      "motor_id": 2,
      "accel_val": 2000,
      "base_duration_us": 174418
    },
    {
      "id": "M_20",
      "pitch": 79,
      "t_note_us": 5930221,
      "t_trigger_us": 5794258,
      "is_ai": true,
      "track_id": 0,
      "velocity": 0,
      "is_motor": false,
      "motor_id": 0,
      "accel_val": 2000,
      "base_duration_us": 174418
    },
    {
      "id": "M_21",
      "pitch": 72,
      "t_note_us": 6104639,
      "t_trigger_us": 5968676,
      "is_ai": false,
      "track_id": 0,
      "velocity": 0,
      "is_motor": true,
      "motor_id": 2,
      "accel_val": 2000,
      "base_duration_us": 174418
    },
    {
      "id": "M_22",
      "pitch": 67,
      "t_note_us": 6627894,
      "t_trigger_us": 6491931,
      "is_ai": false,
      "track_id": 0,
      "velocity": 0,
      "is_motor": true,
      "motor_id": 1,
      "accel_val": 2000,
      "base_duration_us": 174418
    },
    {
      "id": "M_23",
      "pitch": 76,
      "t_note_us": 6976730,
      "t_trigger_us": 6840767,
      "is_ai": false,
      "track_id": 0,
      "velocity": 0,
      "is_motor": true,
      "motor_id": 2,
      "accel_val": 2000,
      "base_duration_us": 174418
    },
    {
      "id": "M_24",
      "pitch": 60,
      "t_note_us": 6976730,
      "t_trigger_us": 6840767,
      "is_ai": false,
      "track_id": 0,
      "velocity": 0,
      "is_motor": true,
      "motor_id": 1,
      "accel_val": 2000,
      "base_duration_us": 174418
    },
    {
      "id": "M_25",
      "pitch": 52,
      "t_note_us": 6976730,
      "t_trigger_us": 6840767,
      "is_ai": false,
      "track_id": 0,
      "velocity": 0,
      "is_motor": true,
      "motor_id": 0,
      "accel_val": 2000,
      "base_duration_us": 174418
    },
    {
      "id": "M_26",
      "pitch": 64,
      "t_note_us": 6976730,
      "t_trigger_us": 6840767,
      "is_ai": false,
      "track_id": 0,
      "velocity": 0,
      "is_motor": true,
      "motor_id": 3,
      "accel_val": 2000,
      "base_duration_us": 174418
    },
    {
      "id": "M_27",
      "pitch": 74,
      "t_note_us": 8023240,
      "t_trigger_us": 7887277,
      "is_ai": false,
      "track_id": 0,
      "velocity": 0,
      "is_motor": true,
      "motor_id": 2,
      "accel_val": 2000,
      "base_duration_us": 174418
    },
    {
      "id": "M_28",
      "pitch": 76,
      "t_note_us": 8197658,
      "t_trigger_us": 8061695,
      "is_ai": false,
      "track_id": 0,
      "velocity": 0,
      "is_motor": true,
      "motor_id": 2,
      "accel_val": 2000,
      "base_duration_us": 174418
    },
    {
      "id": "M_29",
      "pitch": 77,
      "t_note_us": 8372076,
      "t_trigger_us": 8236113,
      "is_ai": false,
      "track_id": 0,
      "velocity": 0,
      "is_motor": true,
      "motor_id": 2,
      "accel_val": 2000,
      "base_duration_us": 174418
    },
    {
      "id": "M_30",
      "pitch": 57,
      "t_note_us": 8372076,
      "t_trigger_us": 8236113,
      "is_ai": false,
      "track_id": 0,
      "velocity": 0,
      "is_motor": true,
      "motor_id": 0,
      "accel_val": 2000,
      "base_duration_us": 174418
    },
    {
      "id": "M_31",
      "pitch": 53,
      "t_note_us": 8372076,
      "t_trigger_us": 8236113,
      "is_ai": false,
      "track_id": 0,
      "velocity": 0,
      "is_motor": true,
      "motor_id": 1,
      "accel_val": 2000,
      "base_duration_us": 174418
    },
    {
      "id": "M_32",
      "pitch": 65,
      "t_note_us": 8372076,
      "t_trigger_us": 8236113,
      "is_ai": false,
      "track_id": 0,
      "velocity": 0,
      "is_motor": true,
      "motor_id": 3,
      "accel_val": 2000,
      "base_duration_us": 174418
    },
    {
      "id": "M_33",
      "pitch": 84,
      "t_note_us": 9069749,
      "t_trigger_us": 8933786,
      "is_ai": true,
      "track_id": 3,
      "velocity": 0,
      "is_motor": false,
      "motor_id": 0,
      "accel_val": 2000,
      "base_duration_us": 174418
    },
    {
      "id": "M_34",
      "pitch": 83,
      "t_note_us": 9418585,
      "t_trigger_us": 9282622,
      "is_ai": true,
      "track_id": 2,
      "velocity": 0,
      "is_motor": false,
      "motor_id": 0,
      "accel_val": 2000,
      "base_duration_us": 174418
    },
    {
      "id": "M_35",
      "pitch": 84,
      "t_note_us": 9593003,
      "t_trigger_us": 9457040,
      "is_ai": true,
      "track_id": 3,
      "velocity": 0,
      "is_motor": false,
      "motor_id": 0,
      "accel_val": 2000,
      "base_duration_us": 174418
    },
    {
      "id": "M_36",
      "pitch": 67,
      "t_note_us": 9767421,
      "t_trigger_us": 9631458,
      "is_ai": false,
      "track_id": 0,
      "velocity": 0,
      "is_motor": true,
      "motor_id": 1,
      "accel_val": 2000,
      "base_duration_us": 174418
    },
    {
      "id": "M_37",
      "pitch": 55,
      "t_note_us": 9767421,
      "t_trigger_us": 9631458,
      "is_ai": false,
      "track_id": 0,
      "velocity": 0,
      "is_motor": true,
      "motor_id": 0,
      "accel_val": 2000,
      "base_duration_us": 174418
    },
    {
      "id": "M_38",
      "pitch": 52,
      "t_note_us": 9767421,
      "t_trigger_us": 9631458,
      "is_ai": false,
      "track_id": 0,
      "velocity": 0,
      "is_motor": true,
      "motor_id": 2,
      "accel_val": 2000,
      "base_duration_us": 174418
    },
    {
      "id": "M_39",
      "pitch": 64,
      "t_note_us": 9767421,
      "t_trigger_us": 9631458,
      "is_ai": false,
      "track_id": 0,
      "velocity": 0,
      "is_motor": true,
      "motor_id": 3,
      "accel_val": 2000,
      "base_duration_us": 174418
    },
    {
      "id": "M_40",
      "pitch": 89,
      "t_note_us": 10465094,
      "t_trigger_us": 10329131,
      "is_ai": true,
      "track_id": 6,
      "velocity": 0,
      "is_motor": false,
      "motor_id": 0,
      "accel_val": 2000,
      "base_duration_us": 174418
    },
    {
      "id": "M_41",
      "pitch": 76,
      "t_note_us": 10813930,
      "t_trigger_us": 10677967,
      "is_ai": false,
      "track_id": 0,
      "velocity": 0,
      "is_motor": true,
      "motor_id": 2,
      "accel_val": 2000,
      "base_duration_us": 174418
    },
    {
      "id": "M_42",
      "pitch": 77,
      "t_note_us": 10988348,
      "t_trigger_us": 10852385,
      "is_ai": false,
      "track_id": 0,
      "velocity": 0,
      "is_motor": true,
      "motor_id": 2,
      "accel_val": 2000,
      "base_duration_us": 174418
    },
    {
      "id": "M_43",
      "pitch": 54,
      "t_note_us": 11162766,
      "t_trigger_us": 11026803,
      "is_ai": false,
      "track_id": 0,
      "velocity": 0,
      "is_motor": true,
      "motor_id": 0,
      "accel_val": 2000,
      "base_duration_us": 174418
    },
    {
      "id": "M_44",
      "pitch": 51,
      "t_note_us": 11162766,
      "t_trigger_us": 11026803,
      "is_ai": false,
      "track_id": 0,
      "velocity": 0,
      "is_motor": true,
      "motor_id": 1,
      "accel_val": 2000,
      "base_duration_us": 174418
    },
    {
      "id": "M_45",
      "pitch": 63,
      "t_note_us": 11162766,
      "t_trigger_us": 11026803,
      "is_ai": false,
      "track_id": 0,
      "velocity": 0,
      "is_motor": true,
      "motor_id": 2,
      "accel_val": 2000,
      "base_duration_us": 174418
    },
    {
      "id": "M_46",
      "pitch": 78,
      "t_note_us": 11162766,
      "t_trigger_us": 11026803,
      "is_ai": false,
      "track_id": 0,
      "velocity": 0,
      "is_motor": true,
      "motor_id": 3,
      "accel_val": 2000,
      "base_duration_us": 174418
    },
    {
      "id": "M_47",
      "pitch": 84,
      "t_note_us": 11860439,
      "t_trigger_us": 11724476,
      "is_ai": true,
      "track_id": 3,
      "velocity": 0,
      "is_motor": false,
      "motor_id": 0,
      "accel_val": 2000,
      "base_duration_us": 174418
    },
    {
      "id": "M_48",
      "pitch": 83,
      "t_note_us": 12209275,
      "t_trigger_us": 12073312,
      "is_ai": true,
      "track_id": 2,
      "velocity": 0,
      "is_motor": false,
      "motor_id": 0,
      "accel_val": 2000,
      "base_duration_us": 174418
    },
    {
      "id": "M_49",
      "pitch": 81,
      "t_note_us": 12383693,
      "t_trigger_us": 12247730,
      "is_ai": true,
      "track_id": 1,
      "velocity": 0,
      "is_motor": false,
      "motor_id": 0,
      "accel_val": 2000,
      "base_duration_us": 174418
    },
    {
      "id": "M_50",
      "pitch": 68,
      "t_note_us": 12558111,
      "t_trigger_us": 12422148,
      "is_ai": false,
      "track_id": 0,
      "velocity": 0,
      "is_motor": true,
      "motor_id": 1,
      "accel_val": 2000,
      "base_duration_us": 174418
    },
    {
      "id": "M_51",
      "pitch": 56,
      "t_note_us": 12558111,
      "t_trigger_us": 12422148,
      "is_ai": false,
      "track_id": 0,
      "velocity": 0,
      "is_motor": true,
      "motor_id": 0,
      "accel_val": 2000,
      "base_duration_us": 174418
    },
    {
      "id": "M_52",
      "pitch": 52,
      "t_note_us": 12558111,
      "t_trigger_us": 12422148,
      "is_ai": false,
      "track_id": 0,
      "velocity": 0,
      "is_motor": true,
      "motor_id": 2,
      "accel_val": 2000,
      "base_duration_us": 174418
    },
    {
      "id": "M_53",
      "pitch": 64,
      "t_note_us": 12558111,
      "t_trigger_us": 12422148,
      "is_ai": false,
      "track_id": 0,
      "velocity": 0,
      "is_motor": true,
      "motor_id": 3,
      "accel_val": 2000,
      "base_duration_us": 174418
    },
    {
      "id": "M_54",
      "pitch": 64,
      "t_note_us": 13255784,
      "t_trigger_us": 13119821,
      "is_ai": false,
      "track_id": 0,
      "velocity": 0,
      "is_motor": true,
      "motor_id": 1,
      "accel_val": 2000,
      "base_duration_us": 174418
    },
    {
      "id": "M_55",
      "pitch": 84,
      "t_note_us": 13604620,
      "t_trigger_us": 13468657,
      "is_ai": true,
      "track_id": 3,
      "velocity": 0,
      "is_motor": false,
      "motor_id": 0,
      "accel_val": 2000,
      "base_duration_us": 174418
    },
    {
      "id": "M_56",
      "pitch": 86,
      "t_note_us": 13779038,
      "t_trigger_us": 13643075,
      "is_ai": true,
      "track_id": 4,
      "velocity": 0,
      "is_motor": false,
      "motor_id": 0,
      "accel_val": 2000,
      "base_duration_us": 174418
    },
    {
      "id": "M_60",
      "pitch": 81,
      "t_note_us": 13953456,
      "t_trigger_us": 13817493,
      "is_ai": true,
      "track_id": 1,
      "velocity": 0,
      "is_motor": false,
      "motor_id": 0,
      "accel_val": 2000,
      "base_duration_us": 174418
    },
    {
      "id": "M_57",
      "pitch": 64,
      "t_note_us": 13953456,
      "t_trigger_us": 13817493,
      "is_ai": false,
      "track_id": 0,
      "velocity": 0,
      "is_motor": true,
      "motor_id": 1,
      "accel_val": 2000,
      "base_duration_us": 174418
    },
    {
      "id": "M_58",
      "pitch": 69,
      "t_note_us": 13953456,
      "t_trigger_us": 13817493,
      "is_ai": false,
      "track_id": 0,
      "velocity": 0,
      "is_motor": true,
      "motor_id": 2,
      "accel_val": 2000,
      "base_duration_us": 174418
    },
    {
      "id": "M_59",
      "pitch": 57,
      "t_note_us": 13953456,
      "t_trigger_us": 13817493,
      "is_ai": false,
      "track_id": 0,
      "velocity": 0,
      "is_motor": true,
      "motor_id": 0,
      "accel_val": 2000,
      "base_duration_us": 174418
    },
    {
      "id": "M_61",
      "pitch": 76,
      "t_note_us": 13953456,
      "t_trigger_us": 13817493,
      "is_ai": false,
      "track_id": 0,
      "velocity": 0,
      "is_motor": true,
      "motor_id": 3,
      "accel_val": 2000,
      "base_duration_us": 174418
    },
    {
      "id": "M_63",
      "pitch": 84,
      "t_note_us": 14302292,
      "t_trigger_us": 14166329,
      "is_ai": true,
      "track_id": 3,
      "velocity": 0,
      "is_motor": false,
      "motor_id": 0,
      "accel_val": 2000,
      "base_duration_us": 174418
    },
    {
      "id": "M_62",
      "pitch": 64,
      "t_note_us": 14302292,
      "t_trigger_us": 14166329,
      "is_ai": false,
      "track_id": 0,
      "velocity": 0,
      "is_motor": true,
      "motor_id": 1,
      "accel_val": 2000,
      "base_duration_us": 174418
    },
    {
      "id": "M_64",
      "pitch": 81,
      "t_note_us": 14476710,
      "t_trigger_us": 14340747,
      "is_ai": true,
      "track_id": 1,
      "velocity": 0,
      "is_motor": false,
      "motor_id": 0,
      "accel_val": 2000,
      "base_duration_us": 174418
    },
    {
      "id": "M_65",
      "pitch": 69,
      "t_note_us": 14651128,
      "t_trigger_us": 14515165,
      "is_ai": false,
      "track_id": 0,
      "velocity": 0,
      "is_motor": true,
      "motor_id": 1,
      "accel_val": 2000,
      "base_duration_us": 174418
    },
    {
      "id": "M_67",
      "pitch": 86,
      "t_note_us": 14999964,
      "t_trigger_us": 14864001,
      "is_ai": true,
      "track_id": 4,
      "velocity": 0,
      "is_motor": false,
      "motor_id": 0,
      "accel_val": 2000,
      "base_duration_us": 174418
    },
    {
      "id": "M_66",
      "pitch": 57,
      "t_note_us": 14999964,
      "t_trigger_us": 14864001,
      "is_ai": false,
      "track_id": 0,
      "velocity": 0,
      "is_motor": true,
      "motor_id": 0,
      "accel_val": 2000,
      "base_duration_us": 174418
    },
    {
      "id": "M_71",
      "pitch": 83,
      "t_note_us": 15348800,
      "t_trigger_us": 15212837,
      "is_ai": true,
      "track_id": 2,
      "velocity": 0,
      "is_motor": false,
      "motor_id": 0,
      "accel_val": 2000,
      "base_duration_us": 174418
    },
    {
      "id": "M_68",
      "pitch": 62,
      "t_note_us": 15348800,
      "t_trigger_us": 15212837,
      "is_ai": false,
      "track_id": 0,
      "velocity": 0,
      "is_motor": true,
      "motor_id": 1,
      "accel_val": 2000,
      "base_duration_us": 174418
    },
    {
      "id": "M_69",
      "pitch": 55,
      "t_note_us": 15348800,
      "t_trigger_us": 15212837,
      "is_ai": false,
      "track_id": 0,
      "velocity": 0,
      "is_motor": true,
      "motor_id": 0,
      "accel_val": 2000,
      "base_duration_us": 174418
    },
    {
      "id": "M_70",
      "pitch": 67,
      "t_note_us": 15348800,
      "t_trigger_us": 15212837,
      "is_ai": false,
      "track_id": 0,
      "velocity": 0,
      "is_motor": true,
      "motor_id": 2,
      "accel_val": 2000,
      "base_duration_us": 174418
    },
    {
      "id": "M_72",
      "pitch": 67,
      "t_note_us": 15348800,
      "t_trigger_us": 15212837,
      "is_ai": false,
      "track_id": 0,
      "velocity": 0,
      "is_motor": true,
      "motor_id": 3,
      "accel_val": 2000,
      "base_duration_us": 174418
    },
    {
      "id": "M_73",
      "pitch": 62,
      "t_note_us": 15697636,
      "t_trigger_us": 15561673,
      "is_ai": false,
      "track_id": 0,
      "velocity": 0,
      "is_motor": true,
      "motor_id": 1,
      "accel_val": 2000,
      "base_duration_us": 174418
    },
    {
      "id": "M_74",
      "pitch": 67,
      "t_note_us": 15697636,
      "t_trigger_us": 15561673,
      "is_ai": false,
      "track_id": 0,
      "velocity": 0,
      "is_motor": true,
      "motor_id": 2,
      "accel_val": 2000,
      "base_duration_us": 174418
    },
    {
      "id": "M_75",
      "pitch": 76,
      "t_note_us": 15872054,
      "t_trigger_us": 15736091,
      "is_ai": false,
      "track_id": 0,
      "velocity": 0,
      "is_motor": true,
      "motor_id": 2,
      "accel_val": 2000,
      "base_duration_us": 174418
    },
    {
      "id": "M_76",
      "pitch": 67,
      "t_note_us": 16046472,
      "t_trigger_us": 15910509,
      "is_ai": false,
      "track_id": 0,
      "velocity": 0,
      "is_motor": true,
      "motor_id": 1,
      "accel_val": 2000,
      "base_duration_us": 174418
    },
    {
      "id": "M_78",
      "pitch": 83,
      "t_note_us": 16395308,
      "t_trigger_us": 16259345,
      "is_ai": true,
      "track_id": 2,
      "velocity": 0,
      "is_motor": false,
      "motor_id": 0,
      "accel_val": 2000,
      "base_duration_us": 174418
    },
    {
      "id": "M_77",
      "pitch": 60,
      "t_note_us": 16395308,
      "t_trigger_us": 16259345,
      "is_ai": false,
      "track_id": 0,
      "velocity": 0,
      "is_motor": true,
      "motor_id": 1,
      "accel_val": 2000,
      "base_duration_us": 174418
    },
    {
      "id": "M_80",
      "pitch": 81,
      "t_note_us": 16744144,
      "t_trigger_us": 16608181,
      "is_ai": true,
      "track_id": 1,
      "velocity": 0,
      "is_motor": false,
      "motor_id": 0,
      "accel_val": 2000,
      "base_duration_us": 174418
    },
    {
      "id": "M_79",
      "pitch": 77,
      "t_note_us": 16744144,
      "t_trigger_us": 16608181,
      "is_ai": false,
      "track_id": 0,
      "velocity": 0,
      "is_motor": true,
      "motor_id": 2,
      "accel_val": 2000,
      "base_duration_us": 174418
    },
    {
      "id": "M_81",
      "pitch": 57,
      "t_note_us": 16744144,
      "t_trigger_us": 16608181,
      "is_ai": false,
      "track_id": 0,
      "velocity": 0,
      "is_motor": true,
      "motor_id": 0,
      "accel_val": 2000,
      "base_duration_us": 174418
    },
    {
      "id": "M_82",
      "pitch": 53,
      "t_note_us": 16744144,
      "t_trigger_us": 16608181,
      "is_ai": false,
      "track_id": 0,
      "velocity": 0,
      "is_motor": true,
      "motor_id": 1,
      "accel_val": 2000,
      "base_duration_us": 174418
    },
    {
      "id": "M_83",
      "pitch": 65,
      "t_note_us": 16744144,
      "t_trigger_us": 16608181,
      "is_ai": false,
      "track_id": 0,
      "velocity": 0,
      "is_motor": true,
      "motor_id": 3,
      "accel_val": 2000,
      "base_duration_us": 174418
    },
    {
      "id": "M_84",
      "pitch": 67,
      "t_note_us": 17092980,
      "t_trigger_us": 16957017,
      "is_ai": false,
      "track_id": 0,
      "velocity": 0,
      "is_motor": true,
      "motor_id": 1,
      "accel_val": 2000,
      "base_duration_us": 174418
    },
    {
      "id": "M_85",
      "pitch": 62,
      "t_note_us": 17092980,
      "t_trigger_us": 16957017,
      "is_ai": false,
      "track_id": 0,
      "velocity": 0,
      "is_motor": true,
      "motor_id": 0,
      "accel_val": 2000,
      "base_duration_us": 174418
    },
    {
      "id": "M_86",
      "pitch": 72,
      "t_note_us": 17267398,
      "t_trigger_us": 17131435,
      "is_ai": false,
      "track_id": 0,
      "velocity": 0,
      "is_motor": true,
      "motor_id": 2,
      "accel_val": 2000,
      "base_duration_us": 174418
    },
    {
      "id": "M_87",
      "pitch": 67,
      "t_note_us": 17441816,
      "t_trigger_us": 17305853,
      "is_ai": false,
      "track_id": 0,
      "velocity": 0,
      "is_motor": true,
      "motor_id": 1,
      "accel_val": 2000,
      "base_duration_us": 174418
    },
    {
      "id": "M_88",
      "pitch": 67,
      "t_note_us": 17790652,
      "t_trigger_us": 17654689,
      "is_ai": false,
      "track_id": 0,
      "velocity": 0,
      "is_motor": true,
      "motor_id": 1,
      "accel_val": 2000,
      "base_duration_us": 174418
    },
    {
      "id": "M_89",
      "pitch": 60,
      "t_note_us": 17790652,
      "t_trigger_us": 17654689,
      "is_ai": false,
      "track_id": 0,
      "velocity": 0,
      "is_motor": true,
      "motor_id": 0,
      "accel_val": 2000,
      "base_duration_us": 174418
    },
    {
      "id": "M_90",
      "pitch": 76,
      "t_note_us": 18139488,
      "t_trigger_us": 18003525,
      "is_ai": false,
      "track_id": 0,
      "velocity": 0,
      "is_motor": true,
      "motor_id": 2,
      "accel_val": 2000,
      "base_duration_us": 174418
    },
    {
      "id": "M_91",
      "pitch": 60,
      "t_note_us": 18139488,
      "t_trigger_us": 18003525,
      "is_ai": false,
      "track_id": 0,
      "velocity": 0,
      "is_motor": true,
      "motor_id": 1,
      "accel_val": 2000,
      "base_duration_us": 174418
    },
    {
      "id": "M_92",
      "pitch": 52,
      "t_note_us": 18139488,
      "t_trigger_us": 18003525,
      "is_ai": false,
      "track_id": 0,
      "velocity": 0,
      "is_motor": true,
      "motor_id": 0,
      "accel_val": 2000,
      "base_duration_us": 174418
    },
    {
      "id": "M_93",
      "pitch": 64,
      "t_note_us": 18139488,
      "t_trigger_us": 18003525,
      "is_ai": false,
      "track_id": 0,
      "velocity": 0,
      "is_motor": true,
      "motor_id": 3,
      "accel_val": 2000,
      "base_duration_us": 174418
    },
    {
      "id": "M_94",
      "pitch": 62,
      "t_note_us": 18488324,
      "t_trigger_us": 18352361,
      "is_ai": false,
      "track_id": 0,
      "velocity": 0,
      "is_motor": true,
      "motor_id": 1,
      "accel_val": 2000,
      "base_duration_us": 174418
    },
    {
      "id": "M_95",
      "pitch": 64,
      "t_note_us": 18837160,
      "t_trigger_us": 18701197,
      "is_ai": false,
      "track_id": 0,
      "velocity": 0,
      "is_motor": true,
      "motor_id": 1,
      "accel_val": 2000,
      "base_duration_us": 174418
    },
    {
      "id": "M_96",
      "pitch": 74,
      "t_note_us": 19185996,
      "t_trigger_us": 19050033,
      "is_ai": false,
      "track_id": 0,
      "velocity": 0,
      "is_motor": true,
      "motor_id": 2,
      "accel_val": 2000,
      "base_duration_us": 174418
    },
    {
      "id": "M_97",
      "pitch": 60,
      "t_note_us": 19185996,
      "t_trigger_us": 19050033,
      "is_ai": false,
      "track_id": 0,
      "velocity": 0,
      "is_motor": true,
      "motor_id": 1,
      "accel_val": 2000,
      "base_duration_us": 174418
    },
    {
      "id": "M_98",
      "pitch": 76,
      "t_note_us": 19360414,
      "t_trigger_us": 19224451,
      "is_ai": false,
      "track_id": 0,
      "velocity": 0,
      "is_motor": true,
      "motor_id": 2,
      "accel_val": 2000,
      "base_duration_us": 174418
    },
    {
      "id": "M_99",
      "pitch": 57,
      "t_note_us": 19534832,
      "t_trigger_us": 19398869,
      "is_ai": false,
      "track_id": 0,
      "velocity": 0,
      "is_motor": true,
      "motor_id": 0,
      "accel_val": 2000,
      "base_duration_us": 174418
    },
    {
      "id": "M_100",
      "pitch": 62,
      "t_note_us": 19534832,
      "t_trigger_us": 19398869,
      "is_ai": false,
      "track_id": 0,
      "velocity": 0,
      "is_motor": true,
      "motor_id": 1,
      "accel_val": 2000,
      "base_duration_us": 174418
    },
    {
      "id": "M_101",
      "pitch": 50,
      "t_note_us": 19534832,
      "t_trigger_us": 19398869,
      "is_ai": false,
      "track_id": 0,
      "velocity": 0,
      "is_motor": true,
      "motor_id": 2,
      "accel_val": 2000,
      "base_duration_us": 174418
    },
    {
      "id": "M_102",
      "pitch": 77,
      "t_note_us": 19534832,
      "t_trigger_us": 19398869,
      "is_ai": false,
      "track_id": 0,
      "velocity": 0,
      "is_motor": true,
      "motor_id": 3,
      "accel_val": 2000,
      "base_duration_us": 174418
    },
    {
      "id": "M_103",
      "pitch": 62,
      "t_note_us": 19883668,
      "t_trigger_us": 19747705,
      "is_ai": false,
      "track_id": 0,
      "velocity": 0,
      "is_motor": true,
      "motor_id": 1,
      "accel_val": 2000,
      "base_duration_us": 174418
    },
    {
      "id": "M_104",
      "pitch": 67,
      "t_note_us": 20232504,
      "t_trigger_us": 20096541,
      "is_ai": false,
      "track_id": 0,
      "velocity": 0,
      "is_motor": true,
      "motor_id": 1,
      "accel_val": 2000,
      "base_duration_us": 174418
    },
    {
      "id": "M_105",
      "pitch": 67,
      "t_note_us": 20232504,
      "t_trigger_us": 20096541,
      "is_ai": false,
      "track_id": 0,
      "velocity": 0,
      "is_motor": true,
      "motor_id": 2,
      "accel_val": 2000,
      "base_duration_us": 174418
    },
    {
      "id": "M_106",
      "pitch": 60,
      "t_note_us": 20581340,
      "t_trigger_us": 20445377,
      "is_ai": false,
      "track_id": 0,
      "velocity": 0,
      "is_motor": true,
      "motor_id": 1,
      "accel_val": 2000,
      "base_duration_us": 174418
    },
    {
      "id": "M_107",
      "pitch": 77,
      "t_note_us": 20581340,
      "t_trigger_us": 20445377,
      "is_ai": false,
      "track_id": 0,
      "velocity": 0,
      "is_motor": true,
      "motor_id": 2,
      "accel_val": 2000,
      "base_duration_us": 174418
    },
    {
      "id": "M_108",
      "pitch": 67,
      "t_note_us": 20755758,
      "t_trigger_us": 20619795,
      "is_ai": false,
      "track_id": 0,
      "velocity": 0,
      "is_motor": true,
      "motor_id": 1,
      "accel_val": 2000,
      "base_duration_us": 174418
    },
    {
      "id": "M_109",
      "pitch": 55,
      "t_note_us": 20930176,
      "t_trigger_us": 20794213,
      "is_ai": false,
      "track_id": 0,
      "velocity": 0,
      "is_motor": true,
      "motor_id": 0,
      "accel_val": 2000,
      "base_duration_us": 174418
    },
    {
      "id": "M_110",
      "pitch": 52,
      "t_note_us": 20930176,
      "t_trigger_us": 20794213,
      "is_ai": false,
      "track_id": 0,
      "velocity": 0,
      "is_motor": true,
      "motor_id": 1,
      "accel_val": 2000,
      "base_duration_us": 174418
    },
    {
      "id": "M_111",
      "pitch": 64,
      "t_note_us": 20930176,
      "t_trigger_us": 20794213,
      "is_ai": false,
      "track_id": 0,
      "velocity": 0,
      "is_motor": true,
      "motor_id": 2,
      "accel_val": 2000,
      "base_duration_us": 174418
    },
    {
      "id": "M_112",
      "pitch": 76,
      "t_note_us": 20930176,
      "t_trigger_us": 20794213,
      "is_ai": false,
      "track_id": 0,
      "velocity": 0,
      "is_motor": true,
      "motor_id": 3,
      "accel_val": 2000,
      "base_duration_us": 174418
    },
    {
      "id": "M_113",
      "pitch": 62,
      "t_note_us": 21279012,
      "t_trigger_us": 21143049,
      "is_ai": false,
      "track_id": 0,
      "velocity": 0,
      "is_motor": true,
      "motor_id": 1,
      "accel_val": 2000,
      "base_duration_us": 174418
    },
    {
      "id": "M_114",
      "pitch": 67,
      "t_note_us": 21279012,
      "t_trigger_us": 21143049,
      "is_ai": false,
      "track_id": 0,
      "velocity": 0,
      "is_motor": true,
      "motor_id": 2,
      "accel_val": 2000,
      "base_duration_us": 174418
    },
    {
      "id": "M_116",
      "pitch": 84,
      "t_note_us": 21627848,
      "t_trigger_us": 21491885,
      "is_ai": true,
      "track_id": 3,
      "velocity": 0,
      "is_motor": false,
      "motor_id": 0,
      "accel_val": 2000,
      "base_duration_us": 174418
    },
    {
      "id": "M_115",
      "pitch": 64,
      "t_note_us": 21627848,
      "t_trigger_us": 21491885,
      "is_ai": false,
      "track_id": 0,
      "velocity": 0,
      "is_motor": true,
      "motor_id": 1,
      "accel_val": 2000,
      "base_duration_us": 174418
    },
    {
      "id": "M_117",
      "pitch": 60,
      "t_note_us": 21976684,
      "t_trigger_us": 21840721,
      "is_ai": false,
      "track_id": 0,
      "velocity": 0,
      "is_motor": true,
      "motor_id": 1,
      "accel_val": 2000,
      "base_duration_us": 174418
    },
    {
      "id": "M_118",
      "pitch": 76,
      "t_note_us": 21976684,
      "t_trigger_us": 21840721,
      "is_ai": false,
      "track_id": 0,
      "velocity": 0,
      "is_motor": true,
      "motor_id": 2,
      "accel_val": 2000,
      "base_duration_us": 174418
    },
    {
      "id": "M_122",
      "pitch": 86,
      "t_note_us": 22325520,
      "t_trigger_us": 22189557,
      "is_ai": true,
      "track_id": 4,
      "velocity": 0,
      "is_motor": false,
      "motor_id": 0,
      "accel_val": 2000,
      "base_duration_us": 174418
    },
    {
      "id": "M_119",
      "pitch": 57,
      "t_note_us": 22325520,
      "t_trigger_us": 22189557,
      "is_ai": false,
      "track_id": 0,
      "velocity": 0,
      "is_motor": true,
      "motor_id": 0,
      "accel_val": 2000,
      "base_duration_us": 174418
    },
    {
      "id": "M_120",
      "pitch": 65,
      "t_note_us": 22325520,
      "t_trigger_us": 22189557,
      "is_ai": false,
      "track_id": 0,
      "velocity": 0,
      "is_motor": true,
      "motor_id": 1,
      "accel_val": 2000,
      "base_duration_us": 174418
    },
    {
      "id": "M_121",
      "pitch": 53,
      "t_note_us": 22325520,
      "t_trigger_us": 22189557,
      "is_ai": false,
      "track_id": 0,
      "velocity": 0,
      "is_motor": true,
      "motor_id": 2,
      "accel_val": 2000,
      "base_duration_us": 174418
    },
    {
      "id": "M_123",
      "pitch": 74,
      "t_note_us": 22674356,
      "t_trigger_us": 22538393,
      "is_ai": false,
      "track_id": 0,
      "velocity": 0,
      "is_motor": true,
      "motor_id": 2,
      "accel_val": 2000,
      "base_duration_us": 174418
    },
    {
      "id": "M_124",
      "pitch": 86,
      "t_note_us": 22848774,
      "t_trigger_us": 22712811,
      "is_ai": true,
      "track_id": 4,
      "velocity": 0,
      "is_motor": false,
      "motor_id": 0,
      "accel_val": 2000,
      "base_duration_us": 174418
    },
    {
      "id": "M_129",
      "pitch": 86,
      "t_note_us": 23023192,
      "t_trigger_us": 22887229,
      "is_ai": true,
      "track_id": 4,
      "velocity": 0,
      "is_motor": false,
      "motor_id": 0,
      "accel_val": 2000,
      "base_duration_us": 174418
    },
    {
      "id": "M_125",
      "pitch": 67,
      "t_note_us": 23023192,
      "t_trigger_us": 22887229,
      "is_ai": false,
      "track_id": 0,
      "velocity": 0,
      "is_motor": true,
      "motor_id": 1,
      "accel_val": 2000,
      "base_duration_us": 174418
    },
    {
      "id": "M_126",
      "pitch": 62,
      "t_note_us": 23023192,
      "t_trigger_us": 22887229,
      "is_ai": false,
      "track_id": 0,
      "velocity": 0,
      "is_motor": true,
      "motor_id": 0,
      "accel_val": 2000,
      "base_duration_us": 174418
    },
    {
      "id": "M_127",
      "pitch": 67,
      "t_note_us": 23023192,
      "t_trigger_us": 22887229,
      "is_ai": false,
      "track_id": 0,
      "velocity": 0,
      "is_motor": true,
      "motor_id": 2,
      "accel_val": 2000,
      "base_duration_us": 174418
    },
    {
      "id": "M_128",
      "pitch": 55,
      "t_note_us": 23023192,
      "t_trigger_us": 22887229,
      "is_ai": false,
      "track_id": 0,
      "velocity": 0,
      "is_motor": true,
      "motor_id": 3,
      "accel_val": 2000,
      "base_duration_us": 174418
    },
    {
      "id": "M_130",
      "pitch": 84,
      "t_note_us": 23197610,
      "t_trigger_us": 23061647,
      "is_ai": true,
      "track_id": 3,
      "velocity": 0,
      "is_motor": false,
      "motor_id": 0,
      "accel_val": 2000,
      "base_duration_us": 174418
    },
    {
      "id": "M_131",
      "pitch": 72,
      "t_note_us": 23372028,
      "t_trigger_us": 23236065,
      "is_ai": false,
      "track_id": 0,
      "velocity": 0,
      "is_motor": true,
      "motor_id": 2,
      "accel_val": 2000,
      "base_duration_us": 174418
    },
    {
      "id": "M_132",
      "pitch": 84,
      "t_note_us": 23546446,
      "t_trigger_us": 23410483,
      "is_ai": true,
      "track_id": 3,
      "velocity": 0,
      "is_motor": false,
      "motor_id": 0,
      "accel_val": 2000,
      "base_duration_us": 174418
    },
    {
      "id": "M_136",
      "pitch": 84,
      "t_note_us": 23720864,
      "t_trigger_us": 23584901,
      "is_ai": true,
      "track_id": 3,
      "velocity": 0,
      "is_motor": false,
      "motor_id": 0,
      "accel_val": 2000,
      "base_duration_us": 174418
    },
    {
      "id": "M_133",
      "pitch": 55,
      "t_note_us": 23720864,
      "t_trigger_us": 23584901,
      "is_ai": false,
      "track_id": 0,
      "velocity": 0,
      "is_motor": true,
      "motor_id": 0,
      "accel_val": 2000,
      "base_duration_us": 174418
    },
    {
      "id": "M_134",
      "pitch": 48,
      "t_note_us": 23720864,
      "t_trigger_us": 23584901,
      "is_ai": false,
      "track_id": 0,
      "velocity": 0,
      "is_motor": true,
      "motor_id": 1,
      "accel_val": 2000,
      "base_duration_us": 174418
    },
    {
      "id": "M_135",
      "pitch": 64,
      "t_note_us": 23720864,
      "t_trigger_us": 23584901,
      "is_ai": false,
      "track_id": 0,
      "velocity": 0,
      "is_motor": true,
      "motor_id": 2,
      "accel_val": 2000,
      "base_duration_us": 174418
    },
    {
      "id": "M_137",
      "pitch": 74,
      "t_note_us": 24069700,
      "t_trigger_us": 23933737,
      "is_ai": false,
      "track_id": 0,
      "velocity": 0,
      "is_motor": true,
      "motor_id": 2,
      "accel_val": 2000,
      "base_duration_us": 174418
    },
    {
      "id": "M_138",
      "pitch": 62,
      "t_note_us": 24069700,
      "t_trigger_us": 23933737,
      "is_ai": false,
      "track_id": 0,
      "velocity": 0,
      "is_motor": true,
      "motor_id": 1,
      "accel_val": 2000,
      "base_duration_us": 174418
    },
    {
      "id": "M_139",
      "pitch": 79,
      "t_note_us": 24418536,
      "t_trigger_us": 24282573,
      "is_ai": true,
      "track_id": 0,
      "velocity": 0,
      "is_motor": false,
      "motor_id": 0,
      "accel_val": 2000,
      "base_duration_us": 174418
    },
    {
      "id": "M_140",
      "pitch": 64,
      "t_note_us": 24418536,
      "t_trigger_us": 24282573,
      "is_ai": false,
      "track_id": 0,
      "velocity": 0,
      "is_motor": true,
      "motor_id": 1,
      "accel_val": 2000,
      "base_duration_us": 174418
    },
    {
      "id": "M_141",
      "pitch": 72,
      "t_note_us": 24767372,
      "t_trigger_us": 24631409,
      "is_ai": false,
      "track_id": 0,
      "velocity": 0,
      "is_motor": true,
      "motor_id": 2,
      "accel_val": 2000,
      "base_duration_us": 174418
    },
    {
      "id": "M_142",
      "pitch": 60,
      "t_note_us": 24767372,
      "t_trigger_us": 24631409,
      "is_ai": false,
      "track_id": 0,
      "velocity": 0,
      "is_motor": true,
      "motor_id": 1,
      "accel_val": 2000,
      "base_duration_us": 174418
    },
    {
      "id": "M_143",
      "pitch": 84,
      "t_note_us": 27558067,
      "t_trigger_us": 27422104,
      "is_ai": true,
      "track_id": 3,
      "velocity": 0,
      "is_motor": false,
      "motor_id": 0,
      "accel_val": 2000,
      "base_duration_us": 174418
    },
    {
      "id": "M_144",
      "pitch": 86,
      "t_note_us": 27732485,
      "t_trigger_us": 27596522,
      "is_ai": true,
      "track_id": 4,
      "velocity": 0,
      "is_motor": false,
      "motor_id": 0,
      "accel_val": 2000,
      "base_duration_us": 174418
    },
    {
      "id": "M_148",
      "pitch": 81,
      "t_note_us": 27906903,
      "t_trigger_us": 27770940,
      "is_ai": true,
      "track_id": 1,
      "velocity": 0,
      "is_motor": false,
      "motor_id": 0,
      "accel_val": 2000,
      "base_duration_us": 174418
    },
    {
      "id": "M_149",
      "pitch": 84,
      "t_note_us": 27906903,
      "t_trigger_us": 27770940,
      "is_ai": true,
      "track_id": 3,
      "velocity": 0,
      "is_motor": false,
      "motor_id": 0,
      "accel_val": 2000,
      "base_duration_us": 174418
    },
    {
      "id": "M_145",
      "pitch": 64,
      "t_note_us": 27906903,
      "t_trigger_us": 27770940,
      "is_ai": false,
      "track_id": 0,
      "velocity": 0,
      "is_motor": true,
      "motor_id": 1,
      "accel_val": 2000,
      "base_duration_us": 174418
    },
    {
      "id": "M_146",
      "pitch": 69,
      "t_note_us": 27906903,
      "t_trigger_us": 27770940,
      "is_ai": false,
      "track_id": 0,
      "velocity": 0,
      "is_motor": true,
      "motor_id": 2,
      "accel_val": 2000,
      "base_duration_us": 174418
    },
    {
      "id": "M_147",
      "pitch": 57,
      "t_note_us": 27906903,
      "t_trigger_us": 27770940,
      "is_ai": false,
      "track_id": 0,
      "velocity": 0,
      "is_motor": true,
      "motor_id": 0,
      "accel_val": 2000,
      "base_duration_us": 174418
    },
    {
      "id": "M_150",
      "pitch": 76,
      "t_note_us": 27906903,
      "t_trigger_us": 27770940,
      "is_ai": false,
      "track_id": 0,
      "velocity": 0,
      "is_motor": true,
      "motor_id": 3,
      "accel_val": 2000,
      "base_duration_us": 174418
    },
    {
      "id": "M_152",
      "pitch": 84,
      "t_note_us": 28255739,
      "t_trigger_us": 28119776,
      "is_ai": true,
      "track_id": 3,
      "velocity": 0,
      "is_motor": false,
      "motor_id": 0,
      "accel_val": 2000,
      "base_duration_us": 174418
    },
    {
      "id": "M_151",
      "pitch": 64,
      "t_note_us": 28255739,
      "t_trigger_us": 28119776,
      "is_ai": false,
      "track_id": 0,
      "velocity": 0,
      "is_motor": true,
      "motor_id": 1,
      "accel_val": 2000,
      "base_duration_us": 174418
    },
    {
      "id": "M_153",
      "pitch": 81,
      "t_note_us": 28430157,
      "t_trigger_us": 28294194,
      "is_ai": true,
      "track_id": 1,
      "velocity": 0,
      "is_motor": false,
      "motor_id": 0,
      "accel_val": 2000,
      "base_duration_us": 174418
    },
    {
      "id": "M_154",
      "pitch": 69,
      "t_note_us": 28604575,
      "t_trigger_us": 28468612,
      "is_ai": false,
      "track_id": 0,
      "velocity": 0,
      "is_motor": true,
      "motor_id": 1,
      "accel_val": 2000,
      "base_duration_us": 174418
    },
    {
      "id": "M_156",
      "pitch": 86,
      "t_note_us": 28953411,
      "t_trigger_us": 28817448,
      "is_ai": true,
      "track_id": 4,
      "velocity": 0,
      "is_motor": false,
      "motor_id": 0,
      "accel_val": 2000,
      "base_duration_us": 174418
    },
    {
      "id": "M_155",
      "pitch": 57,
      "t_note_us": 28953411,
      "t_trigger_us": 28817448,
      "is_ai": false,
      "track_id": 0,
      "velocity": 0,
      "is_motor": true,
      "motor_id": 0,
      "accel_val": 2000,
      "base_duration_us": 174418
    },
    {
      "id": "M_162",
      "pitch": 83,
      "t_note_us": 29302247,
      "t_trigger_us": 29166284,
      "is_ai": true,
      "track_id": 2,
      "velocity": 0,
      "is_motor": false,
      "motor_id": 0,
      "accel_val": 2000,
      "base_duration_us": 174418
    },
    {
      "id": "M_157",
      "pitch": 55,
      "t_note_us": 29302247,
      "t_trigger_us": 29166284,
      "is_ai": false,
      "track_id": 0,
      "velocity": 0,
      "is_motor": true,
      "motor_id": 0,
      "accel_val": 2000,
      "base_duration_us": 174418
    },
    {
      "id": "M_158",
      "pitch": 62,
      "t_note_us": 29302247,
      "t_trigger_us": 29166284,
      "is_ai": false,
      "track_id": 0,
      "velocity": 0,
      "is_motor": true,
      "motor_id": 1,
      "accel_val": 2000,
      "base_duration_us": 174418
    },
    {
      "id": "M_159",
      "pitch": 67,
      "t_note_us": 29302247,
      "t_trigger_us": 29166284,
      "is_ai": false,
      "track_id": 0,
      "velocity": 0,
      "is_motor": true,
      "motor_id": 2,
      "accel_val": 2000,
      "base_duration_us": 174418
    },
    {
      "id": "M_160",
      "pitch": 74,
      "t_note_us": 29302247,
      "t_trigger_us": 29166284,
      "is_ai": false,
      "track_id": 0,
      "velocity": 0,
      "is_motor": true,
      "motor_id": 3,
      "accel_val": 2000,
      "base_duration_us": 174418
    },
    {
      "id": "M_161",
      "pitch": 67,
      "t_note_us": 29302247,
      "t_trigger_us": 29166284,
      "is_ai": false,
      "track_id": 0,
      "velocity": 0,
      "is_motor": true,
      "motor_id": 0,
      "accel_val": 2000,
      "base_duration_us": 174418
    },
    {
      "id": "M_163",
      "pitch": 67,
      "t_note_us": 29651083,
      "t_trigger_us": 29515120,
      "is_ai": false,
      "track_id": 0,
      "velocity": 0,
      "is_motor": true,
      "motor_id": 1,
      "accel_val": 2000,
      "base_duration_us": 174418
    },
    {
      "id": "M_164",
      "pitch": 76,
      "t_note_us": 29825501,
      "t_trigger_us": 29689538,
      "is_ai": false,
      "track_id": 0,
      "velocity": 0,
      "is_motor": true,
      "motor_id": 2,
      "accel_val": 2000,
      "base_duration_us": 174418
    },
    {
      "id": "M_165",
      "pitch": 60,
      "t_note_us": 29999919,
      "t_trigger_us": 29863956,
      "is_ai": false,
      "track_id": 0,
      "velocity": 0,
      "is_motor": true,
      "motor_id": 1,
      "accel_val": 2000,
      "base_duration_us": 174418
    },
    {
      "id": "M_167",
      "pitch": 83,
      "t_note_us": 30348755,
      "t_trigger_us": 30212792,
      "is_ai": true,
      "track_id": 2,
      "velocity": 0,
      "is_motor": false,
      "motor_id": 0,
      "accel_val": 2000,
      "base_duration_us": 174418
    },
    {
      "id": "M_166",
      "pitch": 62,
      "t_note_us": 30348755,
      "t_trigger_us": 30212792,
      "is_ai": false,
      "track_id": 0,
      "velocity": 0,
      "is_motor": true,
      "motor_id": 1,
      "accel_val": 2000,
      "base_duration_us": 174418
    },
    {
      "id": "M_170",
      "pitch": 81,
      "t_note_us": 30697591,
      "t_trigger_us": 30561628,
      "is_ai": true,
      "track_id": 1,
      "velocity": 0,
      "is_motor": false,
      "motor_id": 0,
      "accel_val": 2000,
      "base_duration_us": 174418
    },
    {
      "id": "M_168",
      "pitch": 72,
      "t_note_us": 30697591,
      "t_trigger_us": 30561628,
      "is_ai": false,
      "track_id": 0,
      "velocity": 0,
      "is_motor": true,
      "motor_id": 2,
      "accel_val": 2000,
      "base_duration_us": 174418
    },
    {
      "id": "M_169",
      "pitch": 77,
      "t_note_us": 30697591,
      "t_trigger_us": 30561628,
      "is_ai": false,
      "track_id": 0,
      "velocity": 0,
      "is_motor": true,
      "motor_id": 1,
      "accel_val": 2000,
      "base_duration_us": 174418
    },
    {
      "id": "M_171",
      "pitch": 57,
      "t_note_us": 30697591,
      "t_trigger_us": 30561628,
      "is_ai": false,
      "track_id": 0,
      "velocity": 0,
      "is_motor": true,
      "motor_id": 0,
      "accel_val": 2000,
      "base_duration_us": 174418
    },
    {
      "id": "M_172",
      "pitch": 53,
      "t_note_us": 30697591,
      "t_trigger_us": 30561628,
      "is_ai": false,
      "track_id": 0,
      "velocity": 0,
      "is_motor": true,
      "motor_id": 3,
      "accel_val": 2000,
      "base_duration_us": 174418
    },
    {
      "id": "M_173",
      "pitch": 65,
      "t_note_us": 30697591,
      "t_trigger_us": 30561628,
      "is_ai": false,
      "track_id": 0,
      "velocity": 0,
      "is_motor": true,
      "motor_id": 0,
      "accel_val": 2000,
      "base_duration_us": 174418
    },
    {
      "id": "M_174",
      "pitch": 67,
      "t_note_us": 31046427,
      "t_trigger_us": 30910464,
      "is_ai": false,
      "track_id": 0,
      "velocity": 0,
      "is_motor": true,
      "motor_id": 1,
      "accel_val": 2000,
      "base_duration_us": 174418
    },
    {
      "id": "M_175",
      "pitch": 60,
      "t_note_us": 31046427,
      "t_trigger_us": 30910464,
      "is_ai": false,
      "track_id": 0,
      "velocity": 0,
      "is_motor": true,
      "motor_id": 0,
      "accel_val": 2000,
      "base_duration_us": 174418
    },
    {
      "id": "M_176",
      "pitch": 72,
      "t_note_us": 31220845,
      "t_trigger_us": 31084882,
      "is_ai": false,
      "track_id": 0,
      "velocity": 0,
      "is_motor": true,
      "motor_id": 2,
      "accel_val": 2000,
      "base_duration_us": 174418
    },
    {
      "id": "M_177",
      "pitch": 62,
      "t_note_us": 31395263,
      "t_trigger_us": 31259300,
      "is_ai": false,
      "track_id": 0,
      "velocity": 0,
      "is_motor": true,
      "motor_id": 1,
      "accel_val": 2000,
      "base_duration_us": 174418
    },
    {
      "id": "M_178",
      "pitch": 67,
      "t_note_us": 31744099,
      "t_trigger_us": 31608136,
      "is_ai": false,
      "track_id": 0,
      "velocity": 0,
      "is_motor": true,
      "motor_id": 1,
      "accel_val": 2000,
      "base_duration_us": 174418
    },
    {
      "id": "M_179",
      "pitch": 60,
      "t_note_us": 31744099,
      "t_trigger_us": 31608136,
      "is_ai": false,
      "track_id": 0,
      "velocity": 0,
      "is_motor": true,
      "motor_id": 0,
      "accel_val": 2000,
      "base_duration_us": 174418
    },
    {
      "id": "M_180",
      "pitch": 67,
      "t_note_us": 32092935,
      "t_trigger_us": 31956972,
      "is_ai": false,
      "track_id": 0,
      "velocity": 0,
      "is_motor": true,
      "motor_id": 1,
      "accel_val": 2000,
      "base_duration_us": 174418
    },
    {
      "id": "M_181",
      "pitch": 72,
      "t_note_us": 32092935,
      "t_trigger_us": 31956972,
      "is_ai": false,
      "track_id": 0,
      "velocity": 0,
      "is_motor": true,
      "motor_id": 2,
      "accel_val": 2000,
      "base_duration_us": 174418
    },
    {
      "id": "M_182",
      "pitch": 76,
      "t_note_us": 32092935,
      "t_trigger_us": 31956972,
      "is_ai": false,
      "track_id": 0,
      "velocity": 0,
      "is_motor": true,
      "motor_id": 3,
      "accel_val": 2000,
      "base_duration_us": 174418
    },
    {
      "id": "M_183",
      "pitch": 55,
      "t_note_us": 32092935,
      "t_trigger_us": 31956972,
      "is_ai": false,
      "track_id": 0,
      "velocity": 0,
      "is_motor": true,
      "motor_id": 0,
      "accel_val": 2000,
      "base_duration_us": 174418
    },
    {
      "id": "M_184",
      "pitch": 52,
      "t_note_us": 32092935,
      "t_trigger_us": 31956972,
      "is_ai": false,
      "track_id": 0,
      "velocity": 0,
      "is_motor": true,
      "motor_id": 0,
      "accel_val": 2000,
      "base_duration_us": 174418
    },
    {
      "id": "M_185",
      "pitch": 64,
      "t_note_us": 32092935,
      "t_trigger_us": 31956972,
      "is_ai": false,
      "track_id": 0,
      "velocity": 0,
      "is_motor": true,
      "motor_id": 0,
      "accel_val": 2000,
      "base_duration_us": 174418
    },
    {
      "id": "M_186",
      "pitch": 60,
      "t_note_us": 32441771,
      "t_trigger_us": 32305808,
      "is_ai": false,
      "track_id": 0,
      "velocity": 0,
      "is_motor": true,
      "motor_id": 1,
      "accel_val": 2000,
      "base_duration_us": 174418
    },
    {
      "id": "M_187",
      "pitch": 60,
      "t_note_us": 32790607,
      "t_trigger_us": 32654644,
      "is_ai": false,
      "track_id": 0,
      "velocity": 0,
      "is_motor": true,
      "motor_id": 1,
      "accel_val": 2000,
      "base_duration_us": 174418
    },
    {
      "id": "M_188",
      "pitch": 74,
      "t_note_us": 33139443,
      "t_trigger_us": 33003480,
      "is_ai": false,
      "track_id": 0,
      "velocity": 0,
      "is_motor": true,
      "motor_id": 2,
      "accel_val": 2000,
      "base_duration_us": 174418
    },
    {
      "id": "M_189",
      "pitch": 60,
      "t_note_us": 33139443,
      "t_trigger_us": 33003480,
      "is_ai": false,
      "track_id": 0,
      "velocity": 0,
      "is_motor": true,
      "motor_id": 1,
      "accel_val": 2000,
      "base_duration_us": 174418
    },
    {
      "id": "M_190",
      "pitch": 76,
      "t_note_us": 33313861,
      "t_trigger_us": 33177898,
      "is_ai": false,
      "track_id": 0,
      "velocity": 0,
      "is_motor": true,
      "motor_id": 2,
      "accel_val": 2000,
      "base_duration_us": 174418
    },
    {
      "id": "M_191",
      "pitch": 57,
      "t_note_us": 33488279,
      "t_trigger_us": 33352316,
      "is_ai": false,
      "track_id": 0,
      "velocity": 0,
      "is_motor": true,
      "motor_id": 0,
      "accel_val": 2000,
      "base_duration_us": 174418
    },
    {
      "id": "M_192",
      "pitch": 65,
      "t_note_us": 33488279,
      "t_trigger_us": 33352316,
      "is_ai": false,
      "track_id": 0,
      "velocity": 0,
      "is_motor": true,
      "motor_id": 1,
      "accel_val": 2000,
      "base_duration_us": 174418
    },
    {
      "id": "M_193",
      "pitch": 53,
      "t_note_us": 33488279,
      "t_trigger_us": 33352316,
      "is_ai": false,
      "track_id": 0,
      "velocity": 0,
      "is_motor": true,
      "motor_id": 2,
      "accel_val": 2000,
      "base_duration_us": 174418
    },
    {
      "id": "M_194",
      "pitch": 69,
      "t_note_us": 33488279,
      "t_trigger_us": 33352316,
      "is_ai": false,
      "track_id": 0,
      "velocity": 0,
      "is_motor": true,
      "motor_id": 3,
      "accel_val": 2000,
      "base_duration_us": 174418
    },
    {
      "id": "M_195",
      "pitch": 77,
      "t_note_us": 33488279,
      "t_trigger_us": 33352316,
      "is_ai": false,
      "track_id": 0,
      "velocity": 0,
      "is_motor": true,
      "motor_id": 0,
      "accel_val": 2000,
      "base_duration_us": 174418
    },
    {
      "id": "M_196",
      "pitch": 60,
      "t_note_us": 33837115,
      "t_trigger_us": 33701152,
      "is_ai": false,
      "track_id": 0,
      "velocity": 0,
      "is_motor": true,
      "motor_id": 1,
      "accel_val": 2000,
      "base_duration_us": 174418
    },
    {
      "id": "M_198",
      "pitch": 84,
      "t_note_us": 34185951,
      "t_trigger_us": 34049988,
      "is_ai": true,
      "track_id": 3,
      "velocity": 0,
      "is_motor": false,
      "motor_id": 0,
      "accel_val": 2000,
      "base_duration_us": 174418
    },
    {
      "id": "M_197",
      "pitch": 62,
      "t_note_us": 34185951,
      "t_trigger_us": 34049988,
      "is_ai": false,
      "track_id": 0,
      "velocity": 0,
      "is_motor": true,
      "motor_id": 1,
      "accel_val": 2000,
      "base_duration_us": 174418
    },
    {
      "id": "M_200",
      "pitch": 83,
      "t_note_us": 34534787,
      "t_trigger_us": 34398824,
      "is_ai": true,
      "track_id": 2,
      "velocity": 0,
      "is_motor": false,
      "motor_id": 0,
      "accel_val": 2000,
      "base_duration_us": 174418
    },
    {
      "id": "M_199",
      "pitch": 60,
      "t_note_us": 34534787,
      "t_trigger_us": 34398824,
      "is_ai": false,
      "track_id": 0,
      "velocity": 0,
      "is_motor": true,
      "motor_id": 1,
      "accel_val": 2000,
      "base_duration_us": 174418
    },
    {
      "id": "M_201",
      "pitch": 84,
      "t_note_us": 34709205,
      "t_trigger_us": 34573242,
      "is_ai": true,
      "track_id": 3,
      "velocity": 0,
      "is_motor": false,
      "motor_id": 0,
      "accel_val": 2000,
      "base_duration_us": 174418
    },
    {
      "id": "M_202",
      "pitch": 55,
      "t_note_us": 34883623,
      "t_trigger_us": 34747660,
      "is_ai": false,
      "track_id": 0,
      "velocity": 0,
      "is_motor": true,
      "motor_id": 0,
      "accel_val": 2000,
      "base_duration_us": 174418
    },
    {
      "id": "M_203",
      "pitch": 64,
      "t_note_us": 34883623,
      "t_trigger_us": 34747660,
      "is_ai": false,
      "track_id": 0,
      "velocity": 0,
      "is_motor": true,
      "motor_id": 1,
      "accel_val": 2000,
      "base_duration_us": 174418
    },
    {
      "id": "M_204",
      "pitch": 52,
      "t_note_us": 34883623,
      "t_trigger_us": 34747660,
      "is_ai": false,
      "track_id": 0,
      "velocity": 0,
      "is_motor": true,
      "motor_id": 2,
      "accel_val": 2000,
      "base_duration_us": 174418
    },
    {
      "id": "M_205",
      "pitch": 72,
      "t_note_us": 34883623,
      "t_trigger_us": 34747660,
      "is_ai": false,
      "track_id": 0,
      "velocity": 0,
      "is_motor": true,
      "motor_id": 3,
      "accel_val": 2000,
      "base_duration_us": 174418
    },
    {
      "id": "M_206",
      "pitch": 76,
      "t_note_us": 34883623,
      "t_trigger_us": 34747660,
      "is_ai": false,
      "track_id": 0,
      "velocity": 0,
      "is_motor": true,
      "motor_id": 0,
      "accel_val": 2000,
      "base_duration_us": 174418
    },
    {
      "id": "M_207",
      "pitch": 67,
      "t_note_us": 34883623,
      "t_trigger_us": 34747660,
      "is_ai": false,
      "track_id": 0,
      "velocity": 0,
      "is_motor": true,
      "motor_id": 0,
      "accel_val": 2000,
      "base_duration_us": 174418
    },
    {
      "id": "M_208",
      "pitch": 60,
      "t_note_us": 35232459,
      "t_trigger_us": 35096496,
      "is_ai": false,
      "track_id": 0,
      "velocity": 0,
      "is_motor": true,
      "motor_id": 1,
      "accel_val": 2000,
      "base_duration_us": 174418
    },
    {
      "id": "M_209",
      "pitch": 60,
      "t_note_us": 35581295,
      "t_trigger_us": 35445332,
      "is_ai": false,
      "track_id": 0,
      "velocity": 0,
      "is_motor": true,
      "motor_id": 1,
      "accel_val": 2000,
      "base_duration_us": 174418
    },
    {
      "id": "M_210",
      "pitch": 77,
      "t_note_us": 35581295,
      "t_trigger_us": 35445332,
      "is_ai": false,
      "track_id": 0,
      "velocity": 0,
      "is_motor": true,
      "motor_id": 2,
      "accel_val": 2000,
      "base_duration_us": 174418
    },
    {
      "id": "M_211",
      "pitch": 60,
      "t_note_us": 35930131,
      "t_trigger_us": 35794168,
      "is_ai": false,
      "track_id": 0,
      "velocity": 0,
      "is_motor": true,
      "motor_id": 1,
      "accel_val": 2000,
      "base_duration_us": 174418
    },
    {
      "id": "M_212",
      "pitch": 76,
      "t_note_us": 35930131,
      "t_trigger_us": 35794168,
      "is_ai": false,
      "track_id": 0,
      "velocity": 0,
      "is_motor": true,
      "motor_id": 2,
      "accel_val": 2000,
      "base_duration_us": 174418
    },
    {
      "id": "M_213",
      "pitch": 77,
      "t_note_us": 36104549,
      "t_trigger_us": 35968586,
      "is_ai": false,
      "track_id": 0,
      "velocity": 0,
      "is_motor": true,
      "motor_id": 2,
      "accel_val": 2000,
      "base_duration_us": 174418
    },
    {
      "id": "M_214",
      "pitch": 54,
      "t_note_us": 36278967,
      "t_trigger_us": 36143004,
      "is_ai": false,
      "track_id": 0,
      "velocity": 0,
      "is_motor": true,
      "motor_id": 0,
      "accel_val": 2000,
      "base_duration_us": 174418
    },
    {
      "id": "M_215",
      "pitch": 51,
      "t_note_us": 36278967,
      "t_trigger_us": 36143004,
      "is_ai": false,
      "track_id": 0,
      "velocity": 0,
      "is_motor": true,
      "motor_id": 1,
      "accel_val": 2000,
      "base_duration_us": 174418
    },
    {
      "id": "M_216",
      "pitch": 63,
      "t_note_us": 36278967,
      "t_trigger_us": 36143004,
      "is_ai": false,
      "track_id": 0,
      "velocity": 0,
      "is_motor": true,
      "motor_id": 2,
      "accel_val": 2000,
      "base_duration_us": 174418
    },
    {
      "id": "M_217",
      "pitch": 75,
      "t_note_us": 36278967,
      "t_trigger_us": 36143004,
      "is_ai": false,
      "track_id": 0,
      "velocity": 0,
      "is_motor": true,
      "motor_id": 3,
      "accel_val": 2000,
      "base_duration_us": 174418
    },
    {
      "id": "M_218",
      "pitch": 78,
      "t_note_us": 36278967,
      "t_trigger_us": 36143004,
      "is_ai": false,
      "track_id": 0,
      "velocity": 0,
      "is_motor": true,
      "motor_id": 0,
      "accel_val": 2000,
      "base_duration_us": 174418
    },
    {
      "id": "M_219",
      "pitch": 54,
      "t_note_us": 36627803,
      "t_trigger_us": 36491840,
      "is_ai": false,
      "track_id": 0,
      "velocity": 0,
      "is_motor": true,
      "motor_id": 0,
      "accel_val": 2000,
      "base_duration_us": 174418
    },
    {
      "id": "M_221",
      "pitch": 84,
      "t_note_us": 36976639,
      "t_trigger_us": 36840676,
      "is_ai": true,
      "track_id": 3,
      "velocity": 0,
      "is_motor": false,
      "motor_id": 0,
      "accel_val": 2000,
      "base_duration_us": 174418
    },
    {
      "id": "M_220",
      "pitch": 60,
      "t_note_us": 36976639,
      "t_trigger_us": 36840676,
      "is_ai": false,
      "track_id": 0,
      "velocity": 0,
      "is_motor": true,
      "motor_id": 1,
      "accel_val": 2000,
      "base_duration_us": 174418
    },
    {
      "id": "M_223",
      "pitch": 83,
      "t_note_us": 37325475,
      "t_trigger_us": 37189512,
      "is_ai": true,
      "track_id": 2,
      "velocity": 0,
      "is_motor": false,
      "motor_id": 0,
      "accel_val": 2000,
      "base_duration_us": 174418
    },
    {
      "id": "M_222",
      "pitch": 51,
      "t_note_us": 37325475,
      "t_trigger_us": 37189512,
      "is_ai": false,
      "track_id": 0,
      "velocity": 0,
      "is_motor": true,
      "motor_id": 0,
      "accel_val": 2000,
      "base_duration_us": 174418
    },
    {
      "id": "M_224",
      "pitch": 81,
      "t_note_us": 37499893,
      "t_trigger_us": 37363930,
      "is_ai": true,
      "track_id": 1,
      "velocity": 0,
      "is_motor": false,
      "motor_id": 0,
      "accel_val": 2000,
      "base_duration_us": 174418
    },
    {
      "id": "M_225",
      "pitch": 56,
      "t_note_us": 37674311,
      "t_trigger_us": 37538348,
      "is_ai": false,
      "track_id": 0,
      "velocity": 0,
      "is_motor": true,
      "motor_id": 0,
      "accel_val": 2000,
      "base_duration_us": 174418
    },
    {
      "id": "M_226",
      "pitch": 64,
      "t_note_us": 37674311,
      "t_trigger_us": 37538348,
      "is_ai": false,
      "track_id": 0,
      "velocity": 0,
      "is_motor": true,
      "motor_id": 1,
      "accel_val": 2000,
      "base_duration_us": 174418
    },
    {
      "id": "M_227",
      "pitch": 52,
      "t_note_us": 37674311,
      "t_trigger_us": 37538348,
      "is_ai": false,
      "track_id": 0,
      "velocity": 0,
      "is_motor": true,
      "motor_id": 2,
      "accel_val": 2000,
      "base_duration_us": 174418
    },
    {
      "id": "M_228",
      "pitch": 76,
      "t_note_us": 37674311,
      "t_trigger_us": 37538348,
      "is_ai": false,
      "track_id": 0,
      "velocity": 0,
      "is_motor": true,
      "motor_id": 3,
      "accel_val": 2000,
      "base_duration_us": 174418
    },
    {
      "id": "M_229",
      "pitch": 68,
      "t_note_us": 37674311,
      "t_trigger_us": 37538348,
      "is_ai": false,
      "track_id": 0,
      "velocity": 0,
      "is_motor": true,
      "motor_id": 0,
      "accel_val": 2000,
      "base_duration_us": 174418
    },
    {
      "id": "M_230",
      "pitch": 56,
      "t_note_us": 38023147,
      "t_trigger_us": 37887184,
      "is_ai": false,
      "track_id": 0,
      "velocity": 0,
      "is_motor": true,
      "motor_id": 0,
      "accel_val": 2000,
      "base_duration_us": 174418
    },
    {
      "id": "M_231",
      "pitch": 64,
      "t_note_us": 38371983,
      "t_trigger_us": 38236020,
      "is_ai": false,
      "track_id": 0,
      "velocity": 0,
      "is_motor": true,
      "motor_id": 1,
      "accel_val": 2000,
      "base_duration_us": 174418
    },
    {
      "id": "M_232",
      "pitch": 84,
      "t_note_us": 38720819,
      "t_trigger_us": 38584856,
      "is_ai": true,
      "track_id": 3,
      "velocity": 0,
      "is_motor": false,
      "motor_id": 0,
      "accel_val": 2000,
      "base_duration_us": 174418
    },
    {
      "id": "M_233",
      "pitch": 86,
      "t_note_us": 38895237,
      "t_trigger_us": 38759274,
      "is_ai": true,
      "track_id": 4,
      "velocity": 0,
      "is_motor": false,
      "motor_id": 0,
      "accel_val": 2000,
      "base_duration_us": 174418
    },
    {
      "id": "M_237",
      "pitch": 81,
      "t_note_us": 39069655,
      "t_trigger_us": 38933692,
      "is_ai": true,
      "track_id": 1,
      "velocity": 0,
      "is_motor": false,
      "motor_id": 0,
      "accel_val": 2000,
      "base_duration_us": 174418
    },
    {
      "id": "M_239",
      "pitch": 88,
      "t_note_us": 39069655,
      "t_trigger_us": 38933692,
      "is_ai": true,
      "track_id": 5,
      "velocity": 0,
      "is_motor": false,
      "motor_id": 0,
      "accel_val": 2000,
      "base_duration_us": 174418
    },
    {
      "id": "M_234",
      "pitch": 64,
      "t_note_us": 39069655,
      "t_trigger_us": 38933692,
      "is_ai": false,
      "track_id": 0,
      "velocity": 0,
      "is_motor": true,
      "motor_id": 1,
      "accel_val": 2000,
      "base_duration_us": 174418
    },
    {
      "id": "M_235",
      "pitch": 69,
      "t_note_us": 39069655,
      "t_trigger_us": 38933692,
      "is_ai": false,
      "track_id": 0,
      "velocity": 0,
      "is_motor": true,
      "motor_id": 2,
      "accel_val": 2000,
      "base_duration_us": 174418
    },
    {
      "id": "M_236",
      "pitch": 57,
      "t_note_us": 39069655,
      "t_trigger_us": 38933692,
      "is_ai": false,
      "track_id": 0,
      "velocity": 0,
      "is_motor": true,
      "motor_id": 0,
      "accel_val": 2000,
      "base_duration_us": 174418
    },
    {
      "id": "M_238",
      "pitch": 76,
      "t_note_us": 39069655,
      "t_trigger_us": 38933692,
      "is_ai": false,
      "track_id": 0,
      "velocity": 0,
      "is_motor": true,
      "motor_id": 3,
      "accel_val": 2000,
      "base_duration_us": 174418
    },
    {
      "id": "M_241",
      "pitch": 84,
      "t_note_us": 39418491,
      "t_trigger_us": 39282528,
      "is_ai": true,
      "track_id": 3,
      "velocity": 0,
      "is_motor": false,
      "motor_id": 0,
      "accel_val": 2000,
      "base_duration_us": 174418
    },
    {
      "id": "M_240",
      "pitch": 64,
      "t_note_us": 39418491,
      "t_trigger_us": 39282528,
      "is_ai": false,
      "track_id": 0,
      "velocity": 0,
      "is_motor": true,
      "motor_id": 1,
      "accel_val": 2000,
      "base_duration_us": 174418
    },
    {
      "id": "M_242",
      "pitch": 81,
      "t_note_us": 39592909,
      "t_trigger_us": 39456946,
      "is_ai": true,
      "track_id": 1,
      "velocity": 0,
      "is_motor": false,
      "motor_id": 0,
      "accel_val": 2000,
      "base_duration_us": 174418
    },
    {
      "id": "M_243",
      "pitch": 69,
      "t_note_us": 39767327,
      "t_trigger_us": 39631364,
      "is_ai": false,
      "track_id": 0,
      "velocity": 0,
      "is_motor": true,
      "motor_id": 1,
      "accel_val": 2000,
      "base_duration_us": 174418
    },
    {
      "id": "M_245",
      "pitch": 86,
      "t_note_us": 40116163,
      "t_trigger_us": 39980200,
      "is_ai": true,
      "track_id": 4,
      "velocity": 0,
      "is_motor": false,
      "motor_id": 0,
      "accel_val": 2000,
      "base_duration_us": 174418
    },
    {
      "id": "M_244",
      "pitch": 57,
      "t_note_us": 40116163,
      "t_trigger_us": 39980200,
      "is_ai": false,
      "track_id": 0,
      "velocity": 0,
      "is_motor": true,
      "motor_id": 0,
      "accel_val": 2000,
      "base_duration_us": 174418
    },
    {
      "id": "M_250",
      "pitch": 83,
      "t_note_us": 40464999,
      "t_trigger_us": 40329036,
      "is_ai": true,
      "track_id": 2,
      "velocity": 0,
      "is_motor": false,
      "motor_id": 0,
      "accel_val": 2000,
      "base_duration_us": 174418
    },
    {
      "id": "M_246",
      "pitch": 62,
      "t_note_us": 40464999,
      "t_trigger_us": 40329036,
      "is_ai": false,
      "track_id": 0,
      "velocity": 0,
      "is_motor": true,
      "motor_id": 1,
      "accel_val": 2000,
      "base_duration_us": 174418
    },
    {
      "id": "M_247",
      "pitch": 55,
      "t_note_us": 40464999,
      "t_trigger_us": 40329036,
      "is_ai": false,
      "track_id": 0,
      "velocity": 0,
      "is_motor": true,
      "motor_id": 0,
      "accel_val": 2000,
      "base_duration_us": 174418
    },
    {
      "id": "M_248",
      "pitch": 67,
      "t_note_us": 40464999,
      "t_trigger_us": 40329036,
      "is_ai": false,
      "track_id": 0,
      "velocity": 0,
      "is_motor": true,
      "motor_id": 2,
      "accel_val": 2000,
      "base_duration_us": 174418
    },
    {
      "id": "M_249",
      "pitch": 74,
      "t_note_us": 40464999,
      "t_trigger_us": 40329036,
      "is_ai": false,
      "track_id": 0,
      "velocity": 0,
      "is_motor": true,
      "motor_id": 3,
      "accel_val": 2000,
      "base_duration_us": 174418
    },
    {
      "id": "M_251",
      "pitch": 62,
      "t_note_us": 40813835,
      "t_trigger_us": 40677872,
      "is_ai": false,
      "track_id": 0,
      "velocity": 0,
      "is_motor": true,
      "motor_id": 1,
      "accel_val": 2000,
      "base_duration_us": 174418
    },
    {
      "id": "M_252",
      "pitch": 67,
      "t_note_us": 40813835,
      "t_trigger_us": 40677872,
      "is_ai": false,
      "track_id": 0,
      "velocity": 0,
      "is_motor": true,
      "motor_id": 2,
      "accel_val": 2000,
      "base_duration_us": 174418
    },
    {
      "id": "M_253",
      "pitch": 76,
      "t_note_us": 40988253,
      "t_trigger_us": 40852290,
      "is_ai": false,
      "track_id": 0,
      "velocity": 0,
      "is_motor": true,
      "motor_id": 2,
      "accel_val": 2000,
      "base_duration_us": 174418
    },
    {
      "id": "M_254",
      "pitch": 67,
      "t_note_us": 41162671,
      "t_trigger_us": 41026708,
      "is_ai": false,
      "track_id": 0,
      "velocity": 0,
      "is_motor": true,
      "motor_id": 1,
      "accel_val": 2000,
      "base_duration_us": 174418
    },
    {
      "id": "M_255",
      "pitch": 72,
      "t_note_us": 41162671,
      "t_trigger_us": 41026708,
      "is_ai": false,
      "track_id": 0,
      "velocity": 0,
      "is_motor": true,
      "motor_id": 2,
      "accel_val": 2000,
      "base_duration_us": 174418
    },
    {
      "id": "M_258",
      "pitch": 83,
      "t_note_us": 41511507,
      "t_trigger_us": 41375544,
      "is_ai": true,
      "track_id": 2,
      "velocity": 0,
      "is_motor": false,
      "motor_id": 0,
      "accel_val": 2000,
      "base_duration_us": 174418
    },
    {
      "id": "M_256",
      "pitch": 60,
      "t_note_us": 41511507,
      "t_trigger_us": 41375544,
      "is_ai": false,
      "track_id": 0,
      "velocity": 0,
      "is_motor": true,
      "motor_id": 1,
      "accel_val": 2000,
      "base_duration_us": 174418
    },
    {
      "id": "M_257",
      "pitch": 74,
      "t_note_us": 41511507,
      "t_trigger_us": 41375544,
      "is_ai": false,
      "track_id": 0,
      "velocity": 0,
      "is_motor": true,
      "motor_id": 2,
      "accel_val": 2000,
      "base_duration_us": 174418
    },
    {
      "id": "M_263",
      "pitch": 81,
      "t_note_us": 41860343,
      "t_trigger_us": 41724380,
      "is_ai": true,
      "track_id": 1,
      "velocity": 0,
      "is_motor": false,
      "motor_id": 0,
      "accel_val": 2000,
      "base_duration_us": 174418
    },
    {
      "id": "M_259",
      "pitch": 57,
      "t_note_us": 41860343,
      "t_trigger_us": 41724380,
      "is_ai": false,
      "track_id": 0,
      "velocity": 0,
      "is_motor": true,
      "motor_id": 0,
      "accel_val": 2000,
      "base_duration_us": 174418
    },
    {
      "id": "M_260",
      "pitch": 53,
      "t_note_us": 41860343,
      "t_trigger_us": 41724380,
      "is_ai": false,
      "track_id": 0,
      "velocity": 0,
      "is_motor": true,
      "motor_id": 1,
      "accel_val": 2000,
      "base_duration_us": 174418
    },
    {
      "id": "M_261",
      "pitch": 65,
      "t_note_us": 41860343,
      "t_trigger_us": 41724380,
      "is_ai": false,
      "track_id": 0,
      "velocity": 0,
      "is_motor": true,
      "motor_id": 2,
      "accel_val": 2000,
      "base_duration_us": 174418
    },
    {
      "id": "M_262",
      "pitch": 77,
      "t_note_us": 41860343,
      "t_trigger_us": 41724380,
      "is_ai": false,
      "track_id": 0,
      "velocity": 0,
      "is_motor": true,
      "motor_id": 3,
      "accel_val": 2000,
      "base_duration_us": 174418
    },
    {
      "id": "M_264",
      "pitch": 60,
      "t_note_us": 42209179,
      "t_trigger_us": 42073216,
      "is_ai": false,
      "track_id": 0,
      "velocity": 0,
      "is_motor": true,
      "motor_id": 1,
      "accel_val": 2000,
      "base_duration_us": 174418
    },
    {
      "id": "M_265",
      "pitch": 67,
      "t_note_us": 42209179,
      "t_trigger_us": 42073216,
      "is_ai": false,
      "track_id": 0,
      "velocity": 0,
      "is_motor": true,
      "motor_id": 2,
      "accel_val": 2000,
      "base_duration_us": 174418
    },
    {
      "id": "M_266",
      "pitch": 72,
      "t_note_us": 42383597,
      "t_trigger_us": 42247634,
      "is_ai": false,
      "track_id": 0,
      "velocity": 0,
      "is_motor": true,
      "motor_id": 2,
      "accel_val": 2000,
      "base_duration_us": 174418
    },
    {
      "id": "M_267",
      "pitch": 65,
      "t_note_us": 42558015,
      "t_trigger_us": 42422052,
      "is_ai": false,
      "track_id": 0,
      "velocity": 0,
      "is_motor": true,
      "motor_id": 1,
      "accel_val": 2000,
      "base_duration_us": 174418
    },
    {
      "id": "M_268",
      "pitch": 72,
      "t_note_us": 42558015,
      "t_trigger_us": 42422052,
      "is_ai": false,
      "track_id": 0,
      "velocity": 0,
      "is_motor": true,
      "motor_id": 2,
      "accel_val": 2000,
      "base_duration_us": 174418
    },
    {
      "id": "M_269",
      "pitch": 74,
      "t_note_us": 42558015,
      "t_trigger_us": 42422052,
      "is_ai": false,
      "track_id": 0,
      "velocity": 0,
      "is_motor": true,
      "motor_id": 3,
      "accel_val": 2000,
      "base_duration_us": 174418
    },
    {
      "id": "M_270",
      "pitch": 62,
      "t_note_us": 42906851,
      "t_trigger_us": 42770888,
      "is_ai": false,
      "track_id": 0,
      "velocity": 0,
      "is_motor": true,
      "motor_id": 1,
      "accel_val": 2000,
      "base_duration_us": 174418
    },
    {
      "id": "M_271",
      "pitch": 74,
      "t_note_us": 42906851,
      "t_trigger_us": 42770888,
      "is_ai": false,
      "track_id": 0,
      "velocity": 0,
      "is_motor": true,
      "motor_id": 2,
      "accel_val": 2000,
      "base_duration_us": 174418
    },
    {
      "id": "M_272",
      "pitch": 67,
      "t_note_us": 42906851,
      "t_trigger_us": 42770888,
      "is_ai": false,
      "track_id": 0,
      "velocity": 0,
      "is_motor": true,
      "motor_id": 0,
      "accel_val": 2000,
      "base_duration_us": 174418
    },
    {
      "id": "M_273",
      "pitch": 60,
      "t_note_us": 43255687,
      "t_trigger_us": 43119724,
      "is_ai": false,
      "track_id": 0,
      "velocity": 0,
      "is_motor": true,
      "motor_id": 1,
      "accel_val": 2000,
      "base_duration_us": 174418
    },
    {
      "id": "M_274",
      "pitch": 52,
      "t_note_us": 43255687,
      "t_trigger_us": 43119724,
      "is_ai": false,
      "track_id": 0,
      "velocity": 0,
      "is_motor": true,
      "motor_id": 0,
      "accel_val": 2000,
      "base_duration_us": 174418
    },
    {
      "id": "M_275",
      "pitch": 64,
      "t_note_us": 43255687,
      "t_trigger_us": 43119724,
      "is_ai": false,
      "track_id": 0,
      "velocity": 0,
      "is_motor": true,
      "motor_id": 2,
      "accel_val": 2000,
      "base_duration_us": 174418
    },
    {
      "id": "M_276",
      "pitch": 72,
      "t_note_us": 43255687,
      "t_trigger_us": 43119724,
      "is_ai": false,
      "track_id": 0,
      "velocity": 0,
      "is_motor": true,
      "motor_id": 3,
      "accel_val": 2000,
      "base_duration_us": 174418
    },
    {
      "id": "M_277",
      "pitch": 76,
      "t_note_us": 43255687,
      "t_trigger_us": 43119724,
      "is_ai": false,
      "track_id": 0,
      "velocity": 0,
      "is_motor": true,
      "motor_id": 0,
      "accel_val": 2000,
      "base_duration_us": 174418
    },
    {
      "id": "M_278",
      "pitch": 60,
      "t_note_us": 43604523,
      "t_trigger_us": 43468560,
      "is_ai": false,
      "track_id": 0,
      "velocity": 0,
      "is_motor": true,
      "motor_id": 1,
      "accel_val": 2000,
      "base_duration_us": 174418
    },
    {
      "id": "M_279",
      "pitch": 64,
      "t_note_us": 43953359,
      "t_trigger_us": 43817396,
      "is_ai": false,
      "track_id": 0,
      "velocity": 0,
      "is_motor": true,
      "motor_id": 1,
      "accel_val": 2000,
      "base_duration_us": 174418
    },
    {
      "id": "M_280",
      "pitch": 72,
      "t_note_us": 43953359,
      "t_trigger_us": 43817396,
      "is_ai": false,
      "track_id": 0,
      "velocity": 0,
      "is_motor": true,
      "motor_id": 2,
      "accel_val": 2000,
      "base_duration_us": 174418
    },
    {
      "id": "M_281",
      "pitch": 60,
      "t_note_us": 44302195,
      "t_trigger_us": 44166232,
      "is_ai": false,
      "track_id": 0,
      "velocity": 0,
      "is_motor": true,
      "motor_id": 1,
      "accel_val": 2000,
      "base_duration_us": 174418
    },
    {
      "id": "M_282",
      "pitch": 74,
      "t_note_us": 44302195,
      "t_trigger_us": 44166232,
      "is_ai": false,
      "track_id": 0,
      "velocity": 0,
      "is_motor": true,
      "motor_id": 2,
      "accel_val": 2000,
      "base_duration_us": 174418
    },
    {
      "id": "M_283",
      "pitch": 76,
      "t_note_us": 44476613,
      "t_trigger_us": 44340650,
      "is_ai": false,
      "track_id": 0,
      "velocity": 0,
      "is_motor": true,
      "motor_id": 2,
      "accel_val": 2000,
      "base_duration_us": 174418
    },
    {
      "id": "M_284",
      "pitch": 57,
      "t_note_us": 44651031,
      "t_trigger_us": 44515068,
      "is_ai": false,
      "track_id": 0,
      "velocity": 0,
      "is_motor": true,
      "motor_id": 0,
      "accel_val": 2000,
      "base_duration_us": 174418
    },
    {
      "id": "M_285",
      "pitch": 53,
      "t_note_us": 44651031,
      "t_trigger_us": 44515068,
      "is_ai": false,
      "track_id": 0,
      "velocity": 0,
      "is_motor": true,
      "motor_id": 1,
      "accel_val": 2000,
      "base_duration_us": 174418
    },
    {
      "id": "M_286",
      "pitch": 65,
      "t_note_us": 44651031,
      "t_trigger_us": 44515068,
      "is_ai": false,
      "track_id": 0,
      "velocity": 0,
      "is_motor": true,
      "motor_id": 2,
      "accel_val": 2000,
      "base_duration_us": 174418
    },
    {
      "id": "M_287",
      "pitch": 77,
      "t_note_us": 44651031,
      "t_trigger_us": 44515068,
      "is_ai": false,
      "track_id": 0,
      "velocity": 0,
      "is_motor": true,
      "motor_id": 3,
      "accel_val": 2000,
      "base_duration_us": 174418
    },
    {
      "id": "M_288",
      "pitch": 57,
      "t_note_us": 44999867,
      "t_trigger_us": 44863904,
      "is_ai": false,
      "track_id": 0,
      "velocity": 0,
      "is_motor": true,
      "motor_id": 0,
      "accel_val": 2000,
      "base_duration_us": 174418
    },
    {
      "id": "M_289",
      "pitch": 65,
      "t_note_us": 45348703,
      "t_trigger_us": 45212740,
      "is_ai": false,
      "track_id": 0,
      "velocity": 0,
      "is_motor": true,
      "motor_id": 1,
      "accel_val": 2000,
      "base_duration_us": 174418
    },
    {
      "id": "M_290",
      "pitch": 74,
      "t_note_us": 45348703,
      "t_trigger_us": 45212740,
      "is_ai": false,
      "track_id": 0,
      "velocity": 0,
      "is_motor": true,
      "motor_id": 2,
      "accel_val": 2000,
      "base_duration_us": 174418
    },
    {
      "id": "M_291",
      "pitch": 67,
      "t_note_us": 45348703,
      "t_trigger_us": 45212740,
      "is_ai": false,
      "track_id": 0,
      "velocity": 0,
      "is_motor": true,
      "motor_id": 0,
      "accel_val": 2000,
      "base_duration_us": 174418
    },
    {
      "id": "M_292",
      "pitch": 53,
      "t_note_us": 45697539,
      "t_trigger_us": 45561576,
      "is_ai": false,
      "track_id": 0,
      "velocity": 0,
      "is_motor": true,
      "motor_id": 0,
      "accel_val": 2000,
      "base_duration_us": 174418
    },
    {
      "id": "M_293",
      "pitch": 77,
      "t_note_us": 45697539,
      "t_trigger_us": 45561576,
      "is_ai": false,
      "track_id": 0,
      "velocity": 0,
      "is_motor": true,
      "motor_id": 2,
      "accel_val": 2000,
      "base_duration_us": 174418
    },
    {
      "id": "M_294",
      "pitch": 67,
      "t_note_us": 45871957,
      "t_trigger_us": 45735994,
      "is_ai": false,
      "track_id": 0,
      "velocity": 0,
      "is_motor": true,
      "motor_id": 1,
      "accel_val": 2000,
      "base_duration_us": 174418
    },
    {
      "id": "M_295",
      "pitch": 55,
      "t_note_us": 46046375,
      "t_trigger_us": 45910412,
      "is_ai": false,
      "track_id": 0,
      "velocity": 0,
      "is_motor": true,
      "motor_id": 0,
      "accel_val": 2000,
      "base_duration_us": 174418
    },
    {
      "id": "M_296",
      "pitch": 52,
      "t_note_us": 46046375,
      "t_trigger_us": 45910412,
      "is_ai": false,
      "track_id": 0,
      "velocity": 0,
      "is_motor": true,
      "motor_id": 1,
      "accel_val": 2000,
      "base_duration_us": 174418
    },
    {
      "id": "M_297",
      "pitch": 64,
      "t_note_us": 46046375,
      "t_trigger_us": 45910412,
      "is_ai": false,
      "track_id": 0,
      "velocity": 0,
      "is_motor": true,
      "motor_id": 2,
      "accel_val": 2000,
      "base_duration_us": 174418
    },
    {
      "id": "M_298",
      "pitch": 76,
      "t_note_us": 46046375,
      "t_trigger_us": 45910412,
      "is_ai": false,
      "track_id": 0,
      "velocity": 0,
      "is_motor": true,
      "motor_id": 3,
      "accel_val": 2000,
      "base_duration_us": 174418
    },
    {
      "id": "M_300",
      "pitch": 79,
      "t_note_us": 46395211,
      "t_trigger_us": 46259248,
      "is_ai": true,
      "track_id": 0,
      "velocity": 0,
      "is_motor": false,
      "motor_id": 0,
      "accel_val": 2000,
      "base_duration_us": 174418
    },
    {
      "id": "M_299",
      "pitch": 55,
      "t_note_us": 46395211,
      "t_trigger_us": 46259248,
      "is_ai": false,
      "track_id": 0,
      "velocity": 0,
      "is_motor": true,
      "motor_id": 0,
      "accel_val": 2000,
      "base_duration_us": 174418
    },
    {
      "id": "M_303",
      "pitch": 84,
      "t_note_us": 46744047,
      "t_trigger_us": 46608084,
      "is_ai": true,
      "track_id": 3,
      "velocity": 0,
      "is_motor": false,
      "motor_id": 0,
      "accel_val": 2000,
      "base_duration_us": 174418
    },
    {
      "id": "M_301",
      "pitch": 64,
      "t_note_us": 46744047,
      "t_trigger_us": 46608084,
      "is_ai": false,
      "track_id": 0,
      "velocity": 0,
      "is_motor": true,
      "motor_id": 1,
      "accel_val": 2000,
      "base_duration_us": 174418
    },
    {
      "id": "M_302",
      "pitch": 72,
      "t_note_us": 46744047,
      "t_trigger_us": 46608084,
      "is_ai": false,
      "track_id": 0,
      "velocity": 0,
      "is_motor": true,
      "motor_id": 2,
      "accel_val": 2000,
      "base_duration_us": 174418
    },
    {
      "id": "M_306",
      "pitch": 88,
      "t_note_us": 47092883,
      "t_trigger_us": 46956920,
      "is_ai": true,
      "track_id": 5,
      "velocity": 0,
      "is_motor": false,
      "motor_id": 0,
      "accel_val": 2000,
      "base_duration_us": 174418
    },
    {
      "id": "M_304",
      "pitch": 52,
      "t_note_us": 47092883,
      "t_trigger_us": 46956920,
      "is_ai": false,
      "track_id": 0,
      "velocity": 0,
      "is_motor": true,
      "motor_id": 0,
      "accel_val": 2000,
      "base_duration_us": 174418
    },
    {
      "id": "M_305",
      "pitch": 76,
      "t_note_us": 47092883,
      "t_trigger_us": 46956920,
      "is_ai": false,
      "track_id": 0,
      "velocity": 0,
      "is_motor": true,
      "motor_id": 2,
      "accel_val": 2000,
      "base_duration_us": 174418
    },
    {
      "id": "M_311",
      "pitch": 86,
      "t_note_us": 47441719,
      "t_trigger_us": 47305756,
      "is_ai": true,
      "track_id": 4,
      "velocity": 0,
      "is_motor": false,
      "motor_id": 0,
      "accel_val": 2000,
      "base_duration_us": 174418
    },
    {
      "id": "M_307",
      "pitch": 53,
      "t_note_us": 47441719,
      "t_trigger_us": 47305756,
      "is_ai": false,
      "track_id": 0,
      "velocity": 0,
      "is_motor": true,
      "motor_id": 0,
      "accel_val": 2000,
      "base_duration_us": 174418
    },
    {
      "id": "M_308",
      "pitch": 62,
      "t_note_us": 47441719,
      "t_trigger_us": 47305756,
      "is_ai": false,
      "track_id": 0,
      "velocity": 0,
      "is_motor": true,
      "motor_id": 1,
      "accel_val": 2000,
      "base_duration_us": 174418
    },
    {
      "id": "M_309",
      "pitch": 50,
      "t_note_us": 47441719,
      "t_trigger_us": 47305756,
      "is_ai": false,
      "track_id": 0,
      "velocity": 0,
      "is_motor": true,
      "motor_id": 2,
      "accel_val": 2000,
      "base_duration_us": 174418
    },
    {
      "id": "M_310",
      "pitch": 77,
      "t_note_us": 47441719,
      "t_trigger_us": 47305756,
      "is_ai": false,
      "track_id": 0,
      "velocity": 0,
      "is_motor": true,
      "motor_id": 3,
      "accel_val": 2000,
      "base_duration_us": 174418
    },
    {
      "id": "M_312",
      "pitch": 53,
      "t_note_us": 47790555,
      "t_trigger_us": 47654592,
      "is_ai": false,
      "track_id": 0,
      "velocity": 0,
      "is_motor": true,
      "motor_id": 0,
      "accel_val": 2000,
      "base_duration_us": 174418
    },
    {
      "id": "M_313",
      "pitch": 86,
      "t_note_us": 47964973,
      "t_trigger_us": 47829010,
      "is_ai": true,
      "track_id": 4,
      "velocity": 0,
      "is_motor": false,
      "motor_id": 0,
      "accel_val": 2000,
      "base_duration_us": 174418
    },
    {
      "id": "M_318",
      "pitch": 86,
      "t_note_us": 48139391,
      "t_trigger_us": 48003428,
      "is_ai": true,
      "track_id": 4,
      "velocity": 0,
      "is_motor": false,
      "motor_id": 0,
      "accel_val": 2000,
      "base_duration_us": 174418
    },
    {
      "id": "M_314",
      "pitch": 62,
      "t_note_us": 48139391,
      "t_trigger_us": 48003428,
      "is_ai": false,
      "track_id": 0,
      "velocity": 0,
      "is_motor": true,
      "motor_id": 1,
      "accel_val": 2000,
      "base_duration_us": 174418
    },
    {
      "id": "M_315",
      "pitch": 67,
      "t_note_us": 48139391,
      "t_trigger_us": 48003428,
      "is_ai": false,
      "track_id": 0,
      "velocity": 0,
      "is_motor": true,
      "motor_id": 2,
      "accel_val": 2000,
      "base_duration_us": 174418
    },
    {
      "id": "M_316",
      "pitch": 55,
      "t_note_us": 48139391,
      "t_trigger_us": 48003428,
      "is_ai": false,
      "track_id": 0,
      "velocity": 0,
      "is_motor": true,
      "motor_id": 0,
      "accel_val": 2000,
      "base_duration_us": 174418
    },
    {
      "id": "M_317",
      "pitch": 67,
      "t_note_us": 48139391,
      "t_trigger_us": 48003428,
      "is_ai": false,
      "track_id": 0,
      "velocity": 0,
      "is_motor": true,
      "motor_id": 3,
      "accel_val": 2000,
      "base_duration_us": 174418
    },
    {
      "id": "M_319",
      "pitch": 84,
      "t_note_us": 48313809,
      "t_trigger_us": 48177846,
      "is_ai": true,
      "track_id": 3,
      "velocity": 0,
      "is_motor": false,
      "motor_id": 0,
      "accel_val": 2000,
      "base_duration_us": 174418
    },
    {
      "id": "M_320",
      "pitch": 60,
      "t_note_us": 48488227,
      "t_trigger_us": 48352264,
      "is_ai": false,
      "track_id": 0,
      "velocity": 0,
      "is_motor": true,
      "motor_id": 1,
      "accel_val": 2000,
      "base_duration_us": 174418
    },
    {
      "id": "M_321",
      "pitch": 84,
      "t_note_us": 48662645,
      "t_trigger_us": 48526682,
      "is_ai": true,
      "track_id": 3,
      "velocity": 0,
      "is_motor": false,
      "motor_id": 0,
      "accel_val": 2000,
      "base_duration_us": 174418
    },
    {
      "id": "M_326",
      "pitch": 84,
      "t_note_us": 48837063,
      "t_trigger_us": 48701100,
      "is_ai": true,
      "track_id": 3,
      "velocity": 0,
      "is_motor": false,
      "motor_id": 0,
      "accel_val": 2000,
      "base_duration_us": 174418
    },
    {
      "id": "M_322",
      "pitch": 60,
      "t_note_us": 48837063,
      "t_trigger_us": 48701100,
      "is_ai": false,
      "track_id": 0,
      "velocity": 0,
      "is_motor": true,
      "motor_id": 1,
      "accel_val": 2000,
      "base_duration_us": 174418
    },
    {
      "id": "M_323",
      "pitch": 52,
      "t_note_us": 48837063,
      "t_trigger_us": 48701100,
      "is_ai": false,
      "track_id": 0,
      "velocity": 0,
      "is_motor": true,
      "motor_id": 0,
      "accel_val": 2000,
      "base_duration_us": 174418
    },
    {
      "id": "M_324",
      "pitch": 64,
      "t_note_us": 48837063,
      "t_trigger_us": 48701100,
      "is_ai": false,
      "track_id": 0,
      "velocity": 0,
      "is_motor": true,
      "motor_id": 2,
      "accel_val": 2000,
      "base_duration_us": 174418
    },
    {
      "id": "M_325",
      "pitch": 72,
      "t_note_us": 48837063,
      "t_trigger_us": 48701100,
      "is_ai": false,
      "track_id": 0,
      "velocity": 0,
      "is_motor": true,
      "motor_id": 3,
      "accel_val": 2000,
      "base_duration_us": 174418
    },
    {
      "id": "M_327",
      "pitch": 62,
      "t_note_us": 49185899,
      "t_trigger_us": 49049936,
      "is_ai": false,
      "track_id": 0,
      "velocity": 0,
      "is_motor": true,
      "motor_id": 1,
      "accel_val": 2000,
      "base_duration_us": 174418
    },
    {
      "id": "M_328",
      "pitch": 64,
      "t_note_us": 49534735,
      "t_trigger_us": 49398772,
      "is_ai": false,
      "track_id": 0,
      "velocity": 0,
      "is_motor": true,
      "motor_id": 1,
      "accel_val": 2000,
      "base_duration_us": 174418
    },
    {
      "id": "M_329",
      "pitch": 60,
      "t_note_us": 49883571,
      "t_trigger_us": 49747608,
      "is_ai": false,
      "track_id": 0,
      "velocity": 0,
      "is_motor": true,
      "motor_id": 1,
      "accel_val": 2000,
      "base_duration_us": 174418
    },
    {
      "id": "M_333",
      "pitch": 81,
      "t_note_us": 50232407,
      "t_trigger_us": 50096444,
      "is_ai": true,
      "track_id": 1,
      "velocity": 0,
      "is_motor": false,
      "motor_id": 0,
      "accel_val": 2000,
      "base_duration_us": 174418
    },
    {
      "id": "M_330",
      "pitch": 57,
      "t_note_us": 50232407,
      "t_trigger_us": 50096444,
      "is_ai": false,
      "track_id": 0,
      "velocity": 0,
      "is_motor": true,
      "motor_id": 0,
      "accel_val": 2000,
      "base_duration_us": 174418
    },
    {
      "id": "M_331",
      "pitch": 53,
      "t_note_us": 50232407,
      "t_trigger_us": 50096444,
      "is_ai": false,
      "track_id": 0,
      "velocity": 0,
      "is_motor": true,
      "motor_id": 1,
      "accel_val": 2000,
      "base_duration_us": 174418
    },
    {
      "id": "M_332",
      "pitch": 65,
      "t_note_us": 50232407,
      "t_trigger_us": 50096444,
      "is_ai": false,
      "track_id": 0,
      "velocity": 0,
      "is_motor": true,
      "motor_id": 2,
      "accel_val": 2000,
      "base_duration_us": 174418
    },
    {
      "id": "M_334",
      "pitch": 83,
      "t_note_us": 50755662,
      "t_trigger_us": 50619699,
      "is_ai": true,
      "track_id": 2,
      "velocity": 0,
      "is_motor": false,
      "motor_id": 0,
      "accel_val": 2000,
      "base_duration_us": 174418
    },
    {
      "id": "M_335",
      "pitch": 84,
      "t_note_us": 50930080,
      "t_trigger_us": 50794117,
      "is_ai": true,
      "track_id": 3,
      "velocity": 0,
      "is_motor": false,
      "motor_id": 0,
      "accel_val": 2000,
      "base_duration_us": 174418
    },
    {
      "id": "M_336",
      "pitch": 83,
      "t_note_us": 51278916,
      "t_trigger_us": 51142953,
      "is_ai": true,
      "track_id": 2,
      "velocity": 0,
      "is_motor": false,
      "motor_id": 0,
      "accel_val": 2000,
      "base_duration_us": 174418
    },
    {
      "id": "M_337",
      "pitch": 81,
      "t_note_us": 51453334,
      "t_trigger_us": 51317371,
      "is_ai": true,
      "track_id": 1,
      "velocity": 0,
      "is_motor": false,
      "motor_id": 0,
      "accel_val": 2000,
      "base_duration_us": 174418
    },
    {
      "id": "M_338",
      "pitch": 52,
      "t_note_us": 51627752,
      "t_trigger_us": 51491789,
      "is_ai": false,
      "track_id": 0,
      "velocity": 0,
      "is_motor": true,
      "motor_id": 0,
      "accel_val": 2000,
      "base_duration_us": 174418
    },
    {
      "id": "M_339",
      "pitch": 48,
      "t_note_us": 51627752,
      "t_trigger_us": 51491789,
      "is_ai": false,
      "track_id": 0,
      "velocity": 0,
      "is_motor": true,
      "motor_id": 1,
      "accel_val": 2000,
      "base_duration_us": 174418
    },
    {
      "id": "M_340",
      "pitch": 60,
      "t_note_us": 51627752,
      "t_trigger_us": 51491789,
      "is_ai": false,
      "track_id": 0,
      "velocity": 0,
      "is_motor": true,
      "motor_id": 2,
      "accel_val": 2000,
      "base_duration_us": 174418
    },
    {
      "id": "M_341",
      "pitch": 67,
      "t_note_us": 51627752,
      "t_trigger_us": 51491789,
      "is_ai": false,
      "track_id": 0,
      "velocity": 0,
      "is_motor": true,
      "motor_id": 3,
      "accel_val": 2000,
      "base_duration_us": 174418
    },
    {
      "id": "M_342",
      "pitch": 76,
      "t_note_us": 51976588,
      "t_trigger_us": 51840625,
      "is_ai": false,
      "track_id": 0,
      "velocity": 0,
      "is_motor": true,
      "motor_id": 2,
      "accel_val": 2000,
      "base_duration_us": 174418
    },
    {
      "id": "M_343",
      "pitch": 88,
      "t_note_us": 52325424,
      "t_trigger_us": 52189461,
      "is_ai": true,
      "track_id": 5,
      "velocity": 0,
      "is_motor": false,
      "motor_id": 0,
      "accel_val": 2000,
      "base_duration_us": 174418
    },
    {
      "id": "M_347",
      "pitch": 86,
      "t_note_us": 53023097,
      "t_trigger_us": 52887134,
      "is_ai": true,
      "track_id": 4,
      "velocity": 0,
      "is_motor": false,
      "motor_id": 0,
      "accel_val": 2000,
      "base_duration_us": 174418
    },
    {
      "id": "M_344",
      "pitch": 56,
      "t_note_us": 53023097,
      "t_trigger_us": 52887134,
      "is_ai": false,
      "track_id": 0,
      "velocity": 0,
      "is_motor": true,
      "motor_id": 0,
      "accel_val": 2000,
      "base_duration_us": 174418
    },
    {
      "id": "M_345",
      "pitch": 52,
      "t_note_us": 53023097,
      "t_trigger_us": 52887134,
      "is_ai": false,
      "track_id": 0,
      "velocity": 0,
      "is_motor": true,
      "motor_id": 1,
      "accel_val": 2000,
      "base_duration_us": 174418
    },
    {
      "id": "M_346",
      "pitch": 64,
      "t_note_us": 53023097,
      "t_trigger_us": 52887134,
      "is_ai": false,
      "track_id": 0,
      "velocity": 0,
      "is_motor": true,
      "motor_id": 2,
      "accel_val": 2000,
      "base_duration_us": 174418
    },
    {
      "id": "M_348",
      "pitch": 88,
      "t_note_us": 53546352,
      "t_trigger_us": 53410389,
      "is_ai": true,
      "track_id": 5,
      "velocity": 0,
      "is_motor": false,
      "motor_id": 0,
      "accel_val": 2000,
      "base_duration_us": 174418
    },
    {
      "id": "M_349",
      "pitch": 89,
      "t_note_us": 53720770,
      "t_trigger_us": 53584807,
      "is_ai": true,
      "track_id": 6,
      "velocity": 0,
      "is_motor": false,
      "motor_id": 0,
      "accel_val": 2000,
      "base_duration_us": 174418
    },
    {
      "id": "M_350",
      "pitch": 88,
      "t_note_us": 54069606,
      "t_trigger_us": 53933643,
      "is_ai": true,
      "track_id": 5,
      "velocity": 0,
      "is_motor": false,
      "motor_id": 0,
      "accel_val": 2000,
      "base_duration_us": 174418
    },
    {
      "id": "M_351",
      "pitch": 86,
      "t_note_us": 54244024,
      "t_trigger_us": 54108061,
      "is_ai": true,
      "track_id": 4,
      "velocity": 0,
      "is_motor": false,
      "motor_id": 0,
      "accel_val": 2000,
      "base_duration_us": 174418
    },
    {
      "id": "M_355",
      "pitch": 84,
      "t_note_us": 54418442,
      "t_trigger_us": 54282479,
      "is_ai": true,
      "track_id": 3,
      "velocity": 0,
      "is_motor": false,
      "motor_id": 0,
      "accel_val": 2000,
      "base_duration_us": 174418
    },
    {
      "id": "M_352",
      "pitch": 57,
      "t_note_us": 54418442,
      "t_trigger_us": 54282479,
      "is_ai": false,
      "track_id": 0,
      "velocity": 0,
      "is_motor": true,
      "motor_id": 0,
      "accel_val": 2000,
      "base_duration_us": 174418
    },
    {
      "id": "M_353",
      "pitch": 64,
      "t_note_us": 54418442,
      "t_trigger_us": 54282479,
      "is_ai": false,
      "track_id": 0,
      "velocity": 0,
      "is_motor": true,
      "motor_id": 1,
      "accel_val": 2000,
      "base_duration_us": 174418
    },
    {
      "id": "M_354",
      "pitch": 52,
      "t_note_us": 54418442,
      "t_trigger_us": 54282479,
      "is_ai": false,
      "track_id": 0,
      "velocity": 0,
      "is_motor": true,
      "motor_id": 2,
      "accel_val": 2000,
      "base_duration_us": 174418
    },
    {
      "id": "M_356",
      "pitch": 86,
      "t_note_us": 54767278,
      "t_trigger_us": 54631315,
      "is_ai": true,
      "track_id": 4,
      "velocity": 0,
      "is_motor": false,
      "motor_id": 0,
      "accel_val": 2000,
      "base_duration_us": 174418
    },
    {
      "id": "M_357",
      "pitch": 67,
      "t_note_us": 55116114,
      "t_trigger_us": 54980151,
      "is_ai": false,
      "track_id": 0,
      "velocity": 0,
      "is_motor": true,
      "motor_id": 1,
      "accel_val": 2000,
      "base_duration_us": 174418
    },
    {
      "id": "M_358",
      "pitch": 57,
      "t_note_us": 55813787,
      "t_trigger_us": 55677824,
      "is_ai": false,
      "track_id": 0,
      "velocity": 0,
      "is_motor": true,
      "motor_id": 0,
      "accel_val": 2000,
      "base_duration_us": 174418
    },
    {
      "id": "M_359",
      "pitch": 50,
      "t_note_us": 55813787,
      "t_trigger_us": 55677824,
      "is_ai": false,
      "track_id": 0,
      "velocity": 0,
      "is_motor": true,
      "motor_id": 1,
      "accel_val": 2000,
      "base_duration_us": 174418
    },
    {
      "id": "M_360",
      "pitch": 62,
      "t_note_us": 55813787,
      "t_trigger_us": 55677824,
      "is_ai": false,
      "track_id": 0,
      "velocity": 0,
      "is_motor": true,
      "motor_id": 2,
      "accel_val": 2000,
      "base_duration_us": 174418
    },
    {
      "id": "M_361",
      "pitch": 77,
      "t_note_us": 55813787,
      "t_trigger_us": 55677824,
      "is_ai": false,
      "track_id": 0,
      "velocity": 0,
      "is_motor": true,
      "motor_id": 3,
      "accel_val": 2000,
      "base_duration_us": 174418
    },
    {
      "id": "M_362",
      "pitch": 79,
      "t_note_us": 56337042,
      "t_trigger_us": 56201079,
      "is_ai": true,
      "track_id": 0,
      "velocity": 0,
      "is_motor": false,
      "motor_id": 0,
      "accel_val": 2000,
      "base_duration_us": 174418
    },
    {
      "id": "M_363",
      "pitch": 81,
      "t_note_us": 56511460,
      "t_trigger_us": 56375497,
      "is_ai": true,
      "track_id": 1,
      "velocity": 0,
      "is_motor": false,
      "motor_id": 0,
      "accel_val": 2000,
      "base_duration_us": 174418
    },
    {
      "id": "M_364",
      "pitch": 67,
      "t_note_us": 56860296,
      "t_trigger_us": 56724333,
      "is_ai": false,
      "track_id": 0,
      "velocity": 0,
      "is_motor": true,
      "motor_id": 1,
      "accel_val": 2000,
      "base_duration_us": 174418
    },
    {
      "id": "M_365",
      "pitch": 77,
      "t_note_us": 57034714,
      "t_trigger_us": 56898751,
      "is_ai": false,
      "track_id": 0,
      "velocity": 0,
      "is_motor": true,
      "motor_id": 2,
      "accel_val": 2000,
      "base_duration_us": 174418
    },
    {
      "id": "M_366",
      "pitch": 52,
      "t_note_us": 57209132,
      "t_trigger_us": 57073169,
      "is_ai": false,
      "track_id": 0,
      "velocity": 0,
      "is_motor": true,
      "motor_id": 0,
      "accel_val": 2000,
      "base_duration_us": 174418
    },
    {
      "id": "M_367",
      "pitch": 48,
      "t_note_us": 57209132,
      "t_trigger_us": 57073169,
      "is_ai": false,
      "track_id": 0,
      "velocity": 0,
      "is_motor": true,
      "motor_id": 1,
      "accel_val": 2000,
      "base_duration_us": 174418
    },
    {
      "id": "M_368",
      "pitch": 60,
      "t_note_us": 57209132,
      "t_trigger_us": 57073169,
      "is_ai": false,
      "track_id": 0,
      "velocity": 0,
      "is_motor": true,
      "motor_id": 2,
      "accel_val": 2000,
      "base_duration_us": 174418
    },
    {
      "id": "M_369",
      "pitch": 76,
      "t_note_us": 57209132,
      "t_trigger_us": 57073169,
      "is_ai": false,
      "track_id": 0,
      "velocity": 0,
      "is_motor": true,
      "motor_id": 3,
      "accel_val": 2000,
      "base_duration_us": 174418
    },
    {
      "id": "M_370",
      "pitch": 84,
      "t_note_us": 57557968,
      "t_trigger_us": 57422005,
      "is_ai": true,
      "track_id": 3,
      "velocity": 0,
      "is_motor": false,
      "motor_id": 0,
      "accel_val": 2000,
      "base_duration_us": 174418
    },
    {
      "id": "M_371",
      "pitch": 84,
      "t_note_us": 57906804,
      "t_trigger_us": 57770841,
      "is_ai": true,
      "track_id": 3,
      "velocity": 0,
      "is_motor": false,
      "motor_id": 0,
      "accel_val": 2000,
      "base_duration_us": 174418
    },
    {
      "id": "M_372",
      "pitch": 84,
      "t_note_us": 58255640,
      "t_trigger_us": 58119677,
      "is_ai": true,
      "track_id": 3,
      "velocity": 0,
      "is_motor": false,
      "motor_id": 0,
      "accel_val": 2000,
      "base_duration_us": 174418
    },
    {
      "id": "M_376",
      "pitch": 83,
      "t_note_us": 58604476,
      "t_trigger_us": 58468513,
      "is_ai": true,
      "track_id": 2,
      "velocity": 0,
      "is_motor": false,
      "motor_id": 0,
      "accel_val": 2000,
      "base_duration_us": 174418
    },
    {
      "id": "M_373",
      "pitch": 53,
      "t_note_us": 58604476,
      "t_trigger_us": 58468513,
      "is_ai": false,
      "track_id": 0,
      "velocity": 0,
      "is_motor": true,
      "motor_id": 0,
      "accel_val": 2000,
      "base_duration_us": 174418
    },
    {
      "id": "M_374",
      "pitch": 50,
      "t_note_us": 58604476,
      "t_trigger_us": 58468513,
      "is_ai": false,
      "track_id": 0,
      "velocity": 0,
      "is_motor": true,
      "motor_id": 1,
      "accel_val": 2000,
      "base_duration_us": 174418
    },
    {
      "id": "M_375",
      "pitch": 62,
      "t_note_us": 58604476,
      "t_trigger_us": 58468513,
      "is_ai": false,
      "track_id": 0,
      "velocity": 0,
      "is_motor": true,
      "motor_id": 2,
      "accel_val": 2000,
      "base_duration_us": 174418
    },
    {
      "id": "M_380",
      "pitch": 81,
      "t_note_us": 59302149,
      "t_trigger_us": 59166186,
      "is_ai": true,
      "track_id": 1,
      "velocity": 0,
      "is_motor": false,
      "motor_id": 0,
      "accel_val": 2000,
      "base_duration_us": 174418
    },
    {
      "id": "M_377",
      "pitch": 55,
      "t_note_us": 59302149,
      "t_trigger_us": 59166186,
      "is_ai": false,
      "track_id": 0,
      "velocity": 0,
      "is_motor": true,
      "motor_id": 0,
      "accel_val": 2000,
      "base_duration_us": 174418
    },
    {
      "id": "M_378",
      "pitch": 50,
      "t_note_us": 59302149,
      "t_trigger_us": 59166186,
      "is_ai": false,
      "track_id": 0,
      "velocity": 0,
      "is_motor": true,
      "motor_id": 1,
      "accel_val": 2000,
      "base_duration_us": 174418
    },
    {
      "id": "M_379",
      "pitch": 62,
      "t_note_us": 59302149,
      "t_trigger_us": 59166186,
      "is_ai": false,
      "track_id": 0,
      "velocity": 0,
      "is_motor": true,
      "motor_id": 2,
      "accel_val": 2000,
      "base_duration_us": 174418
    },
    {
      "id": "M_381",
      "pitch": 83,
      "t_note_us": 59650985,
      "t_trigger_us": 59515022,
      "is_ai": true,
      "track_id": 2,
      "velocity": 0,
      "is_motor": false,
      "motor_id": 0,
      "accel_val": 2000,
      "base_duration_us": 174418
    },
    {
      "id": "M_385",
      "pitch": 84,
      "t_note_us": 59999821,
      "t_trigger_us": 59863858,
      "is_ai": true,
      "track_id": 3,
      "velocity": 0,
      "is_motor": false,
      "motor_id": 0,
      "accel_val": 2000,
      "base_duration_us": 174418
    },
    {
      "id": "M_382",
      "pitch": 52,
      "t_note_us": 59999821,
      "t_trigger_us": 59863858,
      "is_ai": false,
      "track_id": 0,
      "velocity": 0,
      "is_motor": true,
      "motor_id": 0,
      "accel_val": 2000,
      "base_duration_us": 174418
    },
    {
      "id": "M_383",
      "pitch": 48,
      "t_note_us": 59999821,
      "t_trigger_us": 59863858,
      "is_ai": false,
      "track_id": 0,
      "velocity": 0,
      "is_motor": true,
      "motor_id": 1,
      "accel_val": 2000,
      "base_duration_us": 174418
    },
    {
      "id": "M_384",
      "pitch": 60,
      "t_note_us": 59999821,
      "t_trigger_us": 59863858,
      "is_ai": false,
      "track_id": 0,
      "velocity": 0,
      "is_motor": true,
      "motor_id": 2,
      "accel_val": 2000,
      "base_duration_us": 174418
    },
    {
      "id": "M_386",
      "pitch": 98,
      "t_note_us": 60697494,
      "t_trigger_us": 60561531,
      "is_ai": true,
      "track_id": 11,
      "velocity": 0,
      "is_motor": false,
      "motor_id": 0,
      "accel_val": 2000,
      "base_duration_us": 174418
    },
    {
      "id": "M_387",
      "pitch": 86,
      "t_note_us": 60697494,
      "t_trigger_us": 60561531,
      "is_ai": true,
      "track_id": 4,
      "velocity": 0,
      "is_motor": false,
      "motor_id": 0,
      "accel_val": 2000,
      "base_duration_us": 174418
    },
    {
      "id": "M_389",
      "pitch": 88,
      "t_note_us": 60959121,
      "t_trigger_us": 60823158,
      "is_ai": true,
      "track_id": 5,
      "velocity": 0,
      "is_motor": false,
      "motor_id": 0,
      "accel_val": 2000,
      "base_duration_us": 87209
    },
    {
      "id": "M_388",
      "pitch": 76,
      "t_note_us": 60959121,
      "t_trigger_us": 60823158,
      "is_ai": false,
      "track_id": 0,
      "velocity": 0,
      "is_motor": true,
      "motor_id": 2,
      "accel_val": 2000,
      "base_duration_us": 87209
    },
    {
      "id": "M_390",
      "pitch": 86,
      "t_note_us": 61046330,
      "t_trigger_us": 60910367,
      "is_ai": true,
      "track_id": 4,
      "velocity": 0,
      "is_motor": false,
      "motor_id": 0,
      "accel_val": 2000,
      "base_duration_us": 174418
    },
    {
      "id": "M_391",
      "pitch": 98,
      "t_note_us": 61046330,
      "t_trigger_us": 60910367,
      "is_ai": true,
      "track_id": 11,
      "velocity": 0,
      "is_motor": false,
      "motor_id": 0,
      "accel_val": 2000,
      "base_duration_us": 174418
    },
    {
      "id": "M_392",
      "pitch": 96,
      "t_note_us": 61307957,
      "t_trigger_us": 61171994,
      "is_ai": true,
      "track_id": 10,
      "velocity": 0,
      "is_motor": false,
      "motor_id": 0,
      "accel_val": 2000,
      "base_duration_us": 87209
    },
    {
      "id": "M_393",
      "pitch": 84,
      "t_note_us": 61307957,
      "t_trigger_us": 61171994,
      "is_ai": true,
      "track_id": 3,
      "velocity": 0,
      "is_motor": false,
      "motor_id": 0,
      "accel_val": 2000,
      "base_duration_us": 87209
    },
    {
      "id": "M_394",
      "pitch": 93,
      "t_note_us": 61395166,
      "t_trigger_us": 61259203,
      "is_ai": true,
      "track_id": 8,
      "velocity": 0,
      "is_motor": false,
      "motor_id": 0,
      "accel_val": 2000,
      "base_duration_us": 174418
    },
    {
      "id": "M_395",
      "pitch": 81,
      "t_note_us": 61395166,
      "t_trigger_us": 61259203,
      "is_ai": true,
      "track_id": 1,
      "velocity": 0,
      "is_motor": false,
      "motor_id": 0,
      "accel_val": 2000,
      "base_duration_us": 174418
    },
    {
      "id": "M_396",
      "pitch": 57,
      "t_note_us": 61395166,
      "t_trigger_us": 61259203,
      "is_ai": false,
      "track_id": 0,
      "velocity": 0,
      "is_motor": true,
      "motor_id": 0,
      "accel_val": 2000,
      "base_duration_us": 174418
    },
    {
      "id": "M_397",
      "pitch": 53,
      "t_note_us": 61395166,
      "t_trigger_us": 61259203,
      "is_ai": false,
      "track_id": 0,
      "velocity": 0,
      "is_motor": true,
      "motor_id": 1,
      "accel_val": 2000,
      "base_duration_us": 174418
    },
    {
      "id": "M_398",
      "pitch": 65,
      "t_note_us": 61395166,
      "t_trigger_us": 61259203,
      "is_ai": false,
      "track_id": 0,
      "velocity": 0,
      "is_motor": true,
      "motor_id": 2,
      "accel_val": 2000,
      "base_duration_us": 174418
    },
    {
      "id": "M_399",
      "pitch": 96,
      "t_note_us": 61656793,
      "t_trigger_us": 61520830,
      "is_ai": true,
      "track_id": 10,
      "velocity": 0,
      "is_motor": false,
      "motor_id": 0,
      "accel_val": 2000,
      "base_duration_us": 87209
    },
    {
      "id": "M_400",
      "pitch": 84,
      "t_note_us": 61656793,
      "t_trigger_us": 61520830,
      "is_ai": true,
      "track_id": 3,
      "velocity": 0,
      "is_motor": false,
      "motor_id": 0,
      "accel_val": 2000,
      "base_duration_us": 87209
    },
    {
      "id": "M_401",
      "pitch": 57,
      "t_note_us": 61744002,
      "t_trigger_us": 61608039,
      "is_ai": false,
      "track_id": 0,
      "velocity": 0,
      "is_motor": true,
      "motor_id": 0,
      "accel_val": 2000,
      "base_duration_us": 174418
    },
    {
      "id": "M_402",
      "pitch": 65,
      "t_note_us": 62005629,
      "t_trigger_us": 61869666,
      "is_ai": false,
      "track_id": 0,
      "velocity": 0,
      "is_motor": true,
      "motor_id": 1,
      "accel_val": 2000,
      "base_duration_us": 87209
    },
    {
      "id": "M_403",
      "pitch": 76,
      "t_note_us": 62092838,
      "t_trigger_us": 61956875,
      "is_ai": false,
      "track_id": 0,
      "velocity": 0,
      "is_motor": true,
      "motor_id": 2,
      "accel_val": 2000,
      "base_duration_us": 174418
    },
    {
      "id": "M_404",
      "pitch": 76,
      "t_note_us": 62092838,
      "t_trigger_us": 61956875,
      "is_ai": false,
      "track_id": 0,
      "velocity": 0,
      "is_motor": true,
      "motor_id": 1,
      "accel_val": 2000,
      "base_duration_us": 174418
    },
    {
      "id": "M_405",
      "pitch": 65,
      "t_note_us": 62092838,
      "t_trigger_us": 61956875,
      "is_ai": false,
      "track_id": 0,
      "velocity": 0,
      "is_motor": true,
      "motor_id": 0,
      "accel_val": 2000,
      "base_duration_us": 174418
    },
    {
      "id": "M_406",
      "pitch": 103,
      "t_note_us": 62354465,
      "t_trigger_us": 62218502,
      "is_ai": true,
      "track_id": 14,
      "velocity": 0,
      "is_motor": false,
      "motor_id": 0,
      "accel_val": 2000,
      "base_duration_us": 87209
    },
    {
      "id": "M_407",
      "pitch": 91,
      "t_note_us": 62354465,
      "t_trigger_us": 62218502,
      "is_ai": true,
      "track_id": 7,
      "velocity": 0,
      "is_motor": false,
      "motor_id": 0,
      "accel_val": 2000,
      "base_duration_us": 87209
    },
    {
      "id": "M_408",
      "pitch": 57,
      "t_note_us": 62441674,
      "t_trigger_us": 62305711,
      "is_ai": false,
      "track_id": 0,
      "velocity": 0,
      "is_motor": true,
      "motor_id": 0,
      "accel_val": 2000,
      "base_duration_us": 174418
    },
    {
      "id": "M_409",
      "pitch": 53,
      "t_note_us": 62703301,
      "t_trigger_us": 62567338,
      "is_ai": false,
      "track_id": 0,
      "velocity": 0,
      "is_motor": true,
      "motor_id": 0,
      "accel_val": 2000,
      "base_duration_us": 87209
    },
    {
      "id": "M_410",
      "pitch": 86,
      "t_note_us": 62790510,
      "t_trigger_us": 62654547,
      "is_ai": true,
      "track_id": 4,
      "velocity": 0,
      "is_motor": false,
      "motor_id": 0,
      "accel_val": 2000,
      "base_duration_us": 174418
    },
    {
      "id": "M_411",
      "pitch": 98,
      "t_note_us": 62790510,
      "t_trigger_us": 62654547,
      "is_ai": true,
      "track_id": 11,
      "velocity": 0,
      "is_motor": false,
      "motor_id": 0,
      "accel_val": 2000,
      "base_duration_us": 174418
    },
    {
      "id": "M_412",
      "pitch": 48,
      "t_note_us": 62790510,
      "t_trigger_us": 62654547,
      "is_ai": false,
      "track_id": 0,
      "velocity": 0,
      "is_motor": true,
      "motor_id": 0,
      "accel_val": 2000,
      "base_duration_us": 174418
    },
    {
      "id": "M_413",
      "pitch": 60,
      "t_note_us": 62790510,
      "t_trigger_us": 62654547,
      "is_ai": false,
      "track_id": 0,
      "velocity": 0,
      "is_motor": true,
      "motor_id": 1,
      "accel_val": 2000,
      "base_duration_us": 174418
    },
    {
      "id": "M_414",
      "pitch": 55,
      "t_note_us": 62790510,
      "t_trigger_us": 62654547,
      "is_ai": false,
      "track_id": 0,
      "velocity": 0,
      "is_motor": true,
      "motor_id": 2,
      "accel_val": 2000,
      "base_duration_us": 174418
    },
    {
      "id": "M_415",
      "pitch": 84,
      "t_note_us": 63052137,
      "t_trigger_us": 62916174,
      "is_ai": true,
      "track_id": 3,
      "velocity": 0,
      "is_motor": false,
      "motor_id": 0,
      "accel_val": 2000,
      "base_duration_us": 87209
    },
    {
      "id": "M_416",
      "pitch": 96,
      "t_note_us": 63052137,
      "t_trigger_us": 62916174,
      "is_ai": true,
      "track_id": 10,
      "velocity": 0,
      "is_motor": false,
      "motor_id": 0,
      "accel_val": 2000,
      "base_duration_us": 87209
    },
    {
      "id": "M_417",
      "pitch": 55,
      "t_note_us": 63139346,
      "t_trigger_us": 63003383,
      "is_ai": false,
      "track_id": 0,
      "velocity": 0,
      "is_motor": true,
      "motor_id": 0,
      "accel_val": 2000,
      "base_duration_us": 174418
    },
    {
      "id": "M_418",
      "pitch": 60,
      "t_note_us": 63400973,
      "t_trigger_us": 63265010,
      "is_ai": false,
      "track_id": 0,
      "velocity": 0,
      "is_motor": true,
      "motor_id": 1,
      "accel_val": 2000,
      "base_duration_us": 87209
    },
    {
      "id": "M_419",
      "pitch": 98,
      "t_note_us": 63488182,
      "t_trigger_us": 63352219,
      "is_ai": true,
      "track_id": 11,
      "velocity": 0,
      "is_motor": false,
      "motor_id": 0,
      "accel_val": 2000,
      "base_duration_us": 174418
    },
    {
      "id": "M_420",
      "pitch": 86,
      "t_note_us": 63488182,
      "t_trigger_us": 63352219,
      "is_ai": true,
      "track_id": 4,
      "velocity": 0,
      "is_motor": false,
      "motor_id": 0,
      "accel_val": 2000,
      "base_duration_us": 174418
    },
    {
      "id": "M_421",
      "pitch": 60,
      "t_note_us": 63488182,
      "t_trigger_us": 63352219,
      "is_ai": false,
      "track_id": 0,
      "velocity": 0,
      "is_motor": true,
      "motor_id": 1,
      "accel_val": 2000,
      "base_duration_us": 174418
    },
    {
      "id": "M_422",
      "pitch": 88,
      "t_note_us": 63749809,
      "t_trigger_us": 63613846,
      "is_ai": true,
      "track_id": 5,
      "velocity": 0,
      "is_motor": false,
      "motor_id": 0,
      "accel_val": 2000,
      "base_duration_us": 87209
    },
    {
      "id": "M_423",
      "pitch": 76,
      "t_note_us": 63749809,
      "t_trigger_us": 63613846,
      "is_ai": false,
      "track_id": 0,
      "velocity": 0,
      "is_motor": true,
      "motor_id": 2,
      "accel_val": 2000,
      "base_duration_us": 87209
    },
    {
      "id": "M_424",
      "pitch": 98,
      "t_note_us": 63837018,
      "t_trigger_us": 63701055,
      "is_ai": true,
      "track_id": 11,
      "velocity": 0,
      "is_motor": false,
      "motor_id": 0,
      "accel_val": 2000,
      "base_duration_us": 174418
    },
    {
      "id": "M_425",
      "pitch": 86,
      "t_note_us": 63837018,
      "t_trigger_us": 63701055,
      "is_ai": true,
      "track_id": 4,
      "velocity": 0,
      "is_motor": false,
      "motor_id": 0,
      "accel_val": 2000,
      "base_duration_us": 174418
    },
    {
      "id": "M_426",
      "pitch": 55,
      "t_note_us": 63837018,
      "t_trigger_us": 63701055,
      "is_ai": false,
      "track_id": 0,
      "velocity": 0,
      "is_motor": true,
      "motor_id": 0,
      "accel_val": 2000,
      "base_duration_us": 174418
    },
    {
      "id": "M_428",
      "pitch": 84,
      "t_note_us": 64098645,
      "t_trigger_us": 63962682,
      "is_ai": true,
      "track_id": 3,
      "velocity": 0,
      "is_motor": false,
      "motor_id": 0,
      "accel_val": 2000,
      "base_duration_us": 87209
    },
    {
      "id": "M_427",
      "pitch": 48,
      "t_note_us": 64098645,
      "t_trigger_us": 63962682,
      "is_ai": false,
      "track_id": 0,
      "velocity": 0,
      "is_motor": true,
      "motor_id": 0,
      "accel_val": 2000,
      "base_duration_us": 87209
    },
    {
      "id": "M_429",
      "pitch": 72,
      "t_note_us": 64098645,
      "t_trigger_us": 63962682,
      "is_ai": false,
      "track_id": 0,
      "velocity": 0,
      "is_motor": true,
      "motor_id": 2,
      "accel_val": 2000,
      "base_duration_us": 87209
    },
    {
      "id": "M_430",
      "pitch": 81,
      "t_note_us": 64185854,
      "t_trigger_us": 64049891,
      "is_ai": true,
      "track_id": 1,
      "velocity": 0,
      "is_motor": false,
      "motor_id": 0,
      "accel_val": 2000,
      "base_duration_us": 174418
    },
    {
      "id": "M_431",
      "pitch": 93,
      "t_note_us": 64185854,
      "t_trigger_us": 64049891,
      "is_ai": true,
      "track_id": 8,
      "velocity": 0,
      "is_motor": false,
      "motor_id": 0,
      "accel_val": 2000,
      "base_duration_us": 174418
    },
    {
      "id": "M_432",
      "pitch": 56,
      "t_note_us": 64185854,
      "t_trigger_us": 64049891,
      "is_ai": false,
      "track_id": 0,
      "velocity": 0,
      "is_motor": true,
      "motor_id": 0,
      "accel_val": 2000,
      "base_duration_us": 174418
    },
    {
      "id": "M_433",
      "pitch": 52,
      "t_note_us": 64185854,
      "t_trigger_us": 64049891,
      "is_ai": false,
      "track_id": 0,
      "velocity": 0,
      "is_motor": true,
      "motor_id": 1,
      "accel_val": 2000,
      "base_duration_us": 174418
    },
    {
      "id": "M_434",
      "pitch": 64,
      "t_note_us": 64185854,
      "t_trigger_us": 64049891,
      "is_ai": false,
      "track_id": 0,
      "velocity": 0,
      "is_motor": true,
      "motor_id": 2,
      "accel_val": 2000,
      "base_duration_us": 174418
    },
    {
      "id": "M_435",
      "pitch": 96,
      "t_note_us": 64447481,
      "t_trigger_us": 64311518,
      "is_ai": true,
      "track_id": 10,
      "velocity": 0,
      "is_motor": false,
      "motor_id": 0,
      "accel_val": 2000,
      "base_duration_us": 87209
    },
    {
      "id": "M_436",
      "pitch": 84,
      "t_note_us": 64447481,
      "t_trigger_us": 64311518,
      "is_ai": true,
      "track_id": 3,
      "velocity": 0,
      "is_motor": false,
      "motor_id": 0,
      "accel_val": 2000,
      "base_duration_us": 87209
    },
    {
      "id": "M_437",
      "pitch": 56,
      "t_note_us": 64534690,
      "t_trigger_us": 64398727,
      "is_ai": false,
      "track_id": 0,
      "velocity": 0,
      "is_motor": true,
      "motor_id": 0,
      "accel_val": 2000,
      "base_duration_us": 174418
    },
    {
      "id": "M_438",
      "pitch": 64,
      "t_note_us": 64796317,
      "t_trigger_us": 64660354,
      "is_ai": false,
      "track_id": 0,
      "velocity": 0,
      "is_motor": true,
      "motor_id": 1,
      "accel_val": 2000,
      "base_duration_us": 87209
    },
    {
      "id": "M_440",
      "pitch": 88,
      "t_note_us": 64883526,
      "t_trigger_us": 64747563,
      "is_ai": true,
      "track_id": 5,
      "velocity": 0,
      "is_motor": false,
      "motor_id": 0,
      "accel_val": 2000,
      "base_duration_us": 174418
    },
    {
      "id": "M_439",
      "pitch": 76,
      "t_note_us": 64883526,
      "t_trigger_us": 64747563,
      "is_ai": false,
      "track_id": 0,
      "velocity": 0,
      "is_motor": true,
      "motor_id": 2,
      "accel_val": 2000,
      "base_duration_us": 174418
    },
    {
      "id": "M_441",
      "pitch": 64,
      "t_note_us": 64883526,
      "t_trigger_us": 64747563,
      "is_ai": false,
      "track_id": 0,
      "velocity": 0,
      "is_motor": true,
      "motor_id": 1,
      "accel_val": 2000,
      "base_duration_us": 174418
    },
    {
      "id": "M_442",
      "pitch": 91,
      "t_note_us": 65145153,
      "t_trigger_us": 65009190,
      "is_ai": true,
      "track_id": 7,
      "velocity": 0,
      "is_motor": false,
      "motor_id": 0,
      "accel_val": 2000,
      "base_duration_us": 87209
    },
    {
      "id": "M_443",
      "pitch": 103,
      "t_note_us": 65145153,
      "t_trigger_us": 65009190,
      "is_ai": true,
      "track_id": 14,
      "velocity": 0,
      "is_motor": false,
      "motor_id": 0,
      "accel_val": 2000,
      "base_duration_us": 87209
    },
    {
      "id": "M_444",
      "pitch": 56,
      "t_note_us": 65232362,
      "t_trigger_us": 65096399,
      "is_ai": false,
      "track_id": 0,
      "velocity": 0,
      "is_motor": true,
      "motor_id": 0,
      "accel_val": 2000,
      "base_duration_us": 174418
    },
    {
      "id": "M_445",
      "pitch": 52,
      "t_note_us": 65493989,
      "t_trigger_us": 65358026,
      "is_ai": false,
      "track_id": 0,
      "velocity": 0,
      "is_motor": true,
      "motor_id": 0,
      "accel_val": 2000,
      "base_duration_us": 87209
    },
    {
      "id": "M_446",
      "pitch": 86,
      "t_note_us": 65581198,
      "t_trigger_us": 65445235,
      "is_ai": true,
      "track_id": 4,
      "velocity": 0,
      "is_motor": false,
      "motor_id": 0,
      "accel_val": 2000,
      "base_duration_us": 174418
    },
    {
      "id": "M_447",
      "pitch": 98,
      "t_note_us": 65581198,
      "t_trigger_us": 65445235,
      "is_ai": true,
      "track_id": 11,
      "velocity": 0,
      "is_motor": false,
      "motor_id": 0,
      "accel_val": 2000,
      "base_duration_us": 174418
    },
    {
      "id": "M_448",
      "pitch": 57,
      "t_note_us": 65581198,
      "t_trigger_us": 65445235,
      "is_ai": false,
      "track_id": 0,
      "velocity": 0,
      "is_motor": true,
      "motor_id": 0,
      "accel_val": 2000,
      "base_duration_us": 174418
    },
    {
      "id": "M_449",
      "pitch": 64,
      "t_note_us": 65581198,
      "t_trigger_us": 65445235,
      "is_ai": false,
      "track_id": 0,
      "velocity": 0,
      "is_motor": true,
      "motor_id": 1,
      "accel_val": 2000,
      "base_duration_us": 174418
    },
    {
      "id": "M_450",
      "pitch": 52,
      "t_note_us": 65581198,
      "t_trigger_us": 65445235,
      "is_ai": false,
      "track_id": 0,
      "velocity": 0,
      "is_motor": true,
      "motor_id": 2,
      "accel_val": 2000,
      "base_duration_us": 174418
    },
    {
      "id": "M_451",
      "pitch": 96,
      "t_note_us": 65842825,
      "t_trigger_us": 65706862,
      "is_ai": true,
      "track_id": 10,
      "velocity": 0,
      "is_motor": false,
      "motor_id": 0,
      "accel_val": 2000,
      "base_duration_us": 87209
    },
    {
      "id": "M_452",
      "pitch": 84,
      "t_note_us": 65842825,
      "t_trigger_us": 65706862,
      "is_ai": true,
      "track_id": 3,
      "velocity": 0,
      "is_motor": false,
      "motor_id": 0,
      "accel_val": 2000,
      "base_duration_us": 87209
    },
    {
      "id": "M_453",
      "pitch": 57,
      "t_note_us": 65930034,
      "t_trigger_us": 65794071,
      "is_ai": false,
      "track_id": 0,
      "velocity": 0,
      "is_motor": true,
      "motor_id": 0,
      "accel_val": 2000,
      "base_duration_us": 174418
    },
    {
      "id": "M_454",
      "pitch": 64,
      "t_note_us": 66191661,
      "t_trigger_us": 66055698,
      "is_ai": false,
      "track_id": 0,
      "velocity": 0,
      "is_motor": true,
      "motor_id": 1,
      "accel_val": 2000,
      "base_duration_us": 87209
    },
    {
      "id": "M_455",
      "pitch": 98,
      "t_note_us": 66278870,
      "t_trigger_us": 66142907,
      "is_ai": true,
      "track_id": 11,
      "velocity": 0,
      "is_motor": false,
      "motor_id": 0,
      "accel_val": 2000,
      "base_duration_us": 174418
    },
    {
      "id": "M_456",
      "pitch": 86,
      "t_note_us": 66278870,
      "t_trigger_us": 66142907,
      "is_ai": true,
      "track_id": 4,
      "velocity": 0,
      "is_motor": false,
      "motor_id": 0,
      "accel_val": 2000,
      "base_duration_us": 174418
    },
    {
      "id": "M_457",
      "pitch": 64,
      "t_note_us": 66278870,
      "t_trigger_us": 66142907,
      "is_ai": false,
      "track_id": 0,
      "velocity": 0,
      "is_motor": true,
      "motor_id": 1,
      "accel_val": 2000,
      "base_duration_us": 174418
    },
    {
      "id": "M_458",
      "pitch": 76,
      "t_note_us": 66540497,
      "t_trigger_us": 66404534,
      "is_ai": false,
      "track_id": 0,
      "velocity": 0,
      "is_motor": true,
      "motor_id": 2,
      "accel_val": 2000,
      "base_duration_us": 87209
    },
    {
      "id": "M_459",
      "pitch": 76,
      "t_note_us": 66540497,
      "t_trigger_us": 66404534,
      "is_ai": false,
      "track_id": 0,
      "velocity": 0,
      "is_motor": true,
      "motor_id": 1,
      "accel_val": 2000,
      "base_duration_us": 87209
    },
    {
      "id": "M_460",
      "pitch": 86,
      "t_note_us": 66627706,
      "t_trigger_us": 66491743,
      "is_ai": true,
      "track_id": 4,
      "velocity": 0,
      "is_motor": false,
      "motor_id": 0,
      "accel_val": 2000,
      "base_duration_us": 174418
    },
    {
      "id": "M_461",
      "pitch": 98,
      "t_note_us": 66627706,
      "t_trigger_us": 66491743,
      "is_ai": true,
      "track_id": 11,
      "velocity": 0,
      "is_motor": false,
      "motor_id": 0,
      "accel_val": 2000,
      "base_duration_us": 174418
    },
    {
      "id": "M_462",
      "pitch": 57,
      "t_note_us": 66627706,
      "t_trigger_us": 66491743,
      "is_ai": false,
      "track_id": 0,
      "velocity": 0,
      "is_motor": true,
      "motor_id": 0,
      "accel_val": 2000,
      "base_duration_us": 174418
    },
    {
      "id": "M_465",
      "pitch": 84,
      "t_note_us": 66889333,
      "t_trigger_us": 66753370,
      "is_ai": true,
      "track_id": 3,
      "velocity": 0,
      "is_motor": false,
      "motor_id": 0,
      "accel_val": 2000,
      "base_duration_us": 87209
    },
    {
      "id": "M_463",
      "pitch": 52,
      "t_note_us": 66889333,
      "t_trigger_us": 66753370,
      "is_ai": false,
      "track_id": 0,
      "velocity": 0,
      "is_motor": true,
      "motor_id": 0,
      "accel_val": 2000,
      "base_duration_us": 87209
    },
    {
      "id": "M_464",
      "pitch": 72,
      "t_note_us": 66889333,
      "t_trigger_us": 66753370,
      "is_ai": false,
      "track_id": 0,
      "velocity": 0,
      "is_motor": true,
      "motor_id": 2,
      "accel_val": 2000,
      "base_duration_us": 87209
    },
    {
      "id": "M_466",
      "pitch": 93,
      "t_note_us": 66976542,
      "t_trigger_us": 66840579,
      "is_ai": true,
      "track_id": 8,
      "velocity": 0,
      "is_motor": false,
      "motor_id": 0,
      "accel_val": 2000,
      "base_duration_us": 174418
    },
    {
      "id": "M_467",
      "pitch": 81,
      "t_note_us": 66976542,
      "t_trigger_us": 66840579,
      "is_ai": true,
      "track_id": 1,
      "velocity": 0,
      "is_motor": false,
      "motor_id": 0,
      "accel_val": 2000,
      "base_duration_us": 174418
    },
    {
      "id": "M_468",
      "pitch": 57,
      "t_note_us": 66976542,
      "t_trigger_us": 66840579,
      "is_ai": false,
      "track_id": 0,
      "velocity": 0,
      "is_motor": true,
      "motor_id": 0,
      "accel_val": 2000,
      "base_duration_us": 174418
    },
    {
      "id": "M_469",
      "pitch": 65,
      "t_note_us": 66976542,
      "t_trigger_us": 66840579,
      "is_ai": false,
      "track_id": 0,
      "velocity": 0,
      "is_motor": true,
      "motor_id": 1,
      "accel_val": 2000,
      "base_duration_us": 174418
    },
    {
      "id": "M_470",
      "pitch": 53,
      "t_note_us": 66976542,
      "t_trigger_us": 66840579,
      "is_ai": false,
      "track_id": 0,
      "velocity": 0,
      "is_motor": true,
      "motor_id": 2,
      "accel_val": 2000,
      "base_duration_us": 174418
    },
    {
      "id": "M_471",
      "pitch": 96,
      "t_note_us": 67238169,
      "t_trigger_us": 67102206,
      "is_ai": true,
      "track_id": 10,
      "velocity": 0,
      "is_motor": false,
      "motor_id": 0,
      "accel_val": 2000,
      "base_duration_us": 87209
    },
    {
      "id": "M_472",
      "pitch": 84,
      "t_note_us": 67238169,
      "t_trigger_us": 67102206,
      "is_ai": true,
      "track_id": 3,
      "velocity": 0,
      "is_motor": false,
      "motor_id": 0,
      "accel_val": 2000,
      "base_duration_us": 87209
    },
    {
      "id": "M_473",
      "pitch": 57,
      "t_note_us": 67325378,
      "t_trigger_us": 67189415,
      "is_ai": false,
      "track_id": 0,
      "velocity": 0,
      "is_motor": true,
      "motor_id": 0,
      "accel_val": 2000,
      "base_duration_us": 174418
    },
    {
      "id": "M_474",
      "pitch": 65,
      "t_note_us": 67587005,
      "t_trigger_us": 67451042,
      "is_ai": false,
      "track_id": 0,
      "velocity": 0,
      "is_motor": true,
      "motor_id": 1,
      "accel_val": 2000,
      "base_duration_us": 87209
    },
    {
      "id": "M_476",
      "pitch": 88,
      "t_note_us": 67674214,
      "t_trigger_us": 67538251,
      "is_ai": true,
      "track_id": 5,
      "velocity": 0,
      "is_motor": false,
      "motor_id": 0,
      "accel_val": 2000,
      "base_duration_us": 174418
    },
    {
      "id": "M_475",
      "pitch": 76,
      "t_note_us": 67674214,
      "t_trigger_us": 67538251,
      "is_ai": false,
      "track_id": 0,
      "velocity": 0,
      "is_motor": true,
      "motor_id": 2,
      "accel_val": 2000,
      "base_duration_us": 174418
    },
    {
      "id": "M_477",
      "pitch": 65,
      "t_note_us": 67674214,
      "t_trigger_us": 67538251,
      "is_ai": false,
      "track_id": 0,
      "velocity": 0,
      "is_motor": true,
      "motor_id": 1,
      "accel_val": 2000,
      "base_duration_us": 174418
    },
    {
      "id": "M_478",
      "pitch": 91,
      "t_note_us": 67935841,
      "t_trigger_us": 67799878,
      "is_ai": true,
      "track_id": 7,
      "velocity": 0,
      "is_motor": false,
      "motor_id": 0,
      "accel_val": 2000,
      "base_duration_us": 87209
    },
    {
      "id": "M_479",
      "pitch": 103,
      "t_note_us": 67935841,
      "t_trigger_us": 67799878,
      "is_ai": true,
      "track_id": 14,
      "velocity": 0,
      "is_motor": false,
      "motor_id": 0,
      "accel_val": 2000,
      "base_duration_us": 87209
    },
    {
      "id": "M_480",
      "pitch": 57,
      "t_note_us": 68023050,
      "t_trigger_us": 67887087,
      "is_ai": false,
      "track_id": 0,
      "velocity": 0,
      "is_motor": true,
      "motor_id": 0,
      "accel_val": 2000,
      "base_duration_us": 174418
    },
    {
      "id": "M_481",
      "pitch": 53,
      "t_note_us": 68284677,
      "t_trigger_us": 68148714,
      "is_ai": false,
      "track_id": 0,
      "velocity": 0,
      "is_motor": true,
      "motor_id": 0,
      "accel_val": 2000,
      "base_duration_us": 87209
    },
    {
      "id": "M_482",
      "pitch": 93,
      "t_note_us": 68371886,
      "t_trigger_us": 68235923,
      "is_ai": true,
      "track_id": 8,
      "velocity": 0,
      "is_motor": false,
      "motor_id": 0,
      "accel_val": 2000,
      "base_duration_us": 174418
    },
    {
      "id": "M_483",
      "pitch": 93,
      "t_note_us": 68371886,
      "t_trigger_us": 68235923,
      "is_ai": true,
      "track_id": 8,
      "velocity": 0,
      "is_motor": false,
      "motor_id": 0,
      "accel_val": 2000,
      "base_duration_us": 174418
    },
    {
      "id": "M_484",
      "pitch": 55,
      "t_note_us": 68371886,
      "t_trigger_us": 68235923,
      "is_ai": false,
      "track_id": 0,
      "velocity": 0,
      "is_motor": true,
      "motor_id": 0,
      "accel_val": 2000,
      "base_duration_us": 174418
    },
    {
      "id": "M_485",
      "pitch": 48,
      "t_note_us": 68371886,
      "t_trigger_us": 68235923,
      "is_ai": false,
      "track_id": 0,
      "velocity": 0,
      "is_motor": true,
      "motor_id": 1,
      "accel_val": 2000,
      "base_duration_us": 174418
    },
    {
      "id": "M_486",
      "pitch": 60,
      "t_note_us": 68371886,
      "t_trigger_us": 68235923,
      "is_ai": false,
      "track_id": 0,
      "velocity": 0,
      "is_motor": true,
      "motor_id": 2,
      "accel_val": 2000,
      "base_duration_us": 174418
    },
    {
      "id": "M_487",
      "pitch": 91,
      "t_note_us": 68633513,
      "t_trigger_us": 68497550,
      "is_ai": true,
      "track_id": 7,
      "velocity": 0,
      "is_motor": false,
      "motor_id": 0,
      "accel_val": 2000,
      "base_duration_us": 87209
    },
    {
      "id": "M_488",
      "pitch": 103,
      "t_note_us": 68633513,
      "t_trigger_us": 68497550,
      "is_ai": true,
      "track_id": 14,
      "velocity": 0,
      "is_motor": false,
      "motor_id": 0,
      "accel_val": 2000,
      "base_duration_us": 87209
    },
    {
      "id": "M_489",
      "pitch": 55,
      "t_note_us": 68720722,
      "t_trigger_us": 68584759,
      "is_ai": false,
      "track_id": 0,
      "velocity": 0,
      "is_motor": true,
      "motor_id": 0,
      "accel_val": 2000,
      "base_duration_us": 174418
    },
    {
      "id": "M_490",
      "pitch": 60,
      "t_note_us": 68982349,
      "t_trigger_us": 68846386,
      "is_ai": false,
      "track_id": 0,
      "velocity": 0,
      "is_motor": true,
      "motor_id": 1,
      "accel_val": 2000,
      "base_duration_us": 87209
    },
    {
      "id": "M_491",
      "pitch": 103,
      "t_note_us": 69069558,
      "t_trigger_us": 68933595,
      "is_ai": true,
      "track_id": 14,
      "velocity": 0,
      "is_motor": false,
      "motor_id": 0,
      "accel_val": 2000,
      "base_duration_us": 174418
    },
    {
      "id": "M_492",
      "pitch": 91,
      "t_note_us": 69069558,
      "t_trigger_us": 68933595,
      "is_ai": true,
      "track_id": 7,
      "velocity": 0,
      "is_motor": false,
      "motor_id": 0,
      "accel_val": 2000,
      "base_duration_us": 174418
    },
    {
      "id": "M_493",
      "pitch": 60,
      "t_note_us": 69069558,
      "t_trigger_us": 68933595,
      "is_ai": false,
      "track_id": 0,
      "velocity": 0,
      "is_motor": true,
      "motor_id": 1,
      "accel_val": 2000,
      "base_duration_us": 174418
    },
    {
      "id": "M_494",
      "pitch": 96,
      "t_note_us": 69331185,
      "t_trigger_us": 69195222,
      "is_ai": true,
      "track_id": 10,
      "velocity": 0,
      "is_motor": false,
      "motor_id": 0,
      "accel_val": 2000,
      "base_duration_us": 87209
    },
    {
      "id": "M_495",
      "pitch": 96,
      "t_note_us": 69331185,
      "t_trigger_us": 69195222,
      "is_ai": true,
      "track_id": 10,
      "velocity": 0,
      "is_motor": false,
      "motor_id": 0,
      "accel_val": 2000,
      "base_duration_us": 87209
    },
    {
      "id": "M_496",
      "pitch": 48,
      "t_note_us": 69418394,
      "t_trigger_us": 69282431,
      "is_ai": false,
      "track_id": 0,
      "velocity": 0,
      "is_motor": true,
      "motor_id": 0,
      "accel_val": 2000,
      "base_duration_us": 174418
    },
    {
      "id": "M_497",
      "pitch": 95,
      "t_note_us": 69767230,
      "t_trigger_us": 69631267,
      "is_ai": true,
      "track_id": 9,
      "velocity": 0,
      "is_motor": false,
      "motor_id": 0,
      "accel_val": 2000,
      "base_duration_us": 174418
    },
    {
      "id": "M_498",
      "pitch": 95,
      "t_note_us": 69767230,
      "t_trigger_us": 69631267,
      "is_ai": true,
      "track_id": 9,
      "velocity": 0,
      "is_motor": false,
      "motor_id": 0,
      "accel_val": 2000,
      "base_duration_us": 174418
    },
    {
      "id": "M_499",
      "pitch": 55,
      "t_note_us": 69767230,
      "t_trigger_us": 69631267,
      "is_ai": false,
      "track_id": 0,
      "velocity": 0,
      "is_motor": true,
      "motor_id": 0,
      "accel_val": 2000,
      "base_duration_us": 174418
    },
    {
      "id": "M_500",
      "pitch": 59,
      "t_note_us": 69767230,
      "t_trigger_us": 69631267,
      "is_ai": false,
      "track_id": 0,
      "velocity": 0,
      "is_motor": true,
      "motor_id": 1,
      "accel_val": 2000,
      "base_duration_us": 174418
    },
    {
      "id": "M_501",
      "pitch": 48,
      "t_note_us": 69767230,
      "t_trigger_us": 69631267,
      "is_ai": false,
      "track_id": 0,
      "velocity": 0,
      "is_motor": true,
      "motor_id": 2,
      "accel_val": 2000,
      "base_duration_us": 174418
    },
    {
      "id": "M_502",
      "pitch": 91,
      "t_note_us": 70028857,
      "t_trigger_us": 69892894,
      "is_ai": true,
      "track_id": 7,
      "velocity": 0,
      "is_motor": false,
      "motor_id": 0,
      "accel_val": 2000,
      "base_duration_us": 87209
    },
    {
      "id": "M_503",
      "pitch": 67,
      "t_note_us": 70028857,
      "t_trigger_us": 69892894,
      "is_ai": false,
      "track_id": 0,
      "velocity": 0,
      "is_motor": true,
      "motor_id": 1,
      "accel_val": 2000,
      "base_duration_us": 87209
    },
    {
      "id": "M_504",
      "pitch": 55,
      "t_note_us": 70116066,
      "t_trigger_us": 69980103,
      "is_ai": false,
      "track_id": 0,
      "velocity": 0,
      "is_motor": true,
      "motor_id": 0,
      "accel_val": 2000,
      "base_duration_us": 174418
    },
    {
      "id": "M_505",
      "pitch": 59,
      "t_note_us": 70377693,
      "t_trigger_us": 70241730,
      "is_ai": false,
      "track_id": 0,
      "velocity": 0,
      "is_motor": true,
      "motor_id": 0,
      "accel_val": 2000,
      "base_duration_us": 87209
    },
    {
      "id": "M_506",
      "pitch": 100,
      "t_note_us": 70464902,
      "t_trigger_us": 70328939,
      "is_ai": true,
      "track_id": 12,
      "velocity": 0,
      "is_motor": false,
      "motor_id": 0,
      "accel_val": 2000,
      "base_duration_us": 174418
    },
    {
      "id": "M_507",
      "pitch": 88,
      "t_note_us": 70464902,
      "t_trigger_us": 70328939,
      "is_ai": true,
      "track_id": 5,
      "velocity": 0,
      "is_motor": false,
      "motor_id": 0,
      "accel_val": 2000,
      "base_duration_us": 174418
    },
    {
      "id": "M_508",
      "pitch": 47,
      "t_note_us": 70464902,
      "t_trigger_us": 70328939,
      "is_ai": false,
      "track_id": 0,
      "velocity": 0,
      "is_motor": true,
      "motor_id": 0,
      "accel_val": 2000,
      "base_duration_us": 174418
    },
    {
      "id": "M_509",
      "pitch": 59,
      "t_note_us": 70464902,
      "t_trigger_us": 70328939,
      "is_ai": false,
      "track_id": 0,
      "velocity": 0,
      "is_motor": true,
      "motor_id": 1,
      "accel_val": 2000,
      "base_duration_us": 174418
    },
    {
      "id": "M_510",
      "pitch": 103,
      "t_note_us": 70726529,
      "t_trigger_us": 70590566,
      "is_ai": true,
      "track_id": 14,
      "velocity": 0,
      "is_motor": false,
      "motor_id": 0,
      "accel_val": 2000,
      "base_duration_us": 87209
    },
    {
      "id": "M_511",
      "pitch": 91,
      "t_note_us": 70726529,
      "t_trigger_us": 70590566,
      "is_ai": true,
      "track_id": 7,
      "velocity": 0,
      "is_motor": false,
      "motor_id": 0,
      "accel_val": 2000,
      "base_duration_us": 87209
    },
    {
      "id": "M_512",
      "pitch": 45,
      "t_note_us": 70813738,
      "t_trigger_us": 70677775,
      "is_ai": false,
      "track_id": 0,
      "velocity": 0,
      "is_motor": true,
      "motor_id": 0,
      "accel_val": 2000,
      "base_duration_us": 174418
    },
    {
      "id": "M_513",
      "pitch": 57,
      "t_note_us": 70813738,
      "t_trigger_us": 70677775,
      "is_ai": false,
      "track_id": 0,
      "velocity": 0,
      "is_motor": true,
      "motor_id": 1,
      "accel_val": 2000,
      "base_duration_us": 174418
    },
    {
      "id": "M_514",
      "pitch": 74,
      "t_note_us": 71162574,
      "t_trigger_us": 71026611,
      "is_ai": false,
      "track_id": 0,
      "velocity": 0,
      "is_motor": true,
      "motor_id": 2,
      "accel_val": 2000,
      "base_duration_us": 174418
    },
    {
      "id": "M_515",
      "pitch": 74,
      "t_note_us": 71162574,
      "t_trigger_us": 71026611,
      "is_ai": false,
      "track_id": 0,
      "velocity": 0,
      "is_motor": true,
      "motor_id": 1,
      "accel_val": 2000,
      "base_duration_us": 174418
    },
    {
      "id": "M_516",
      "pitch": 44,
      "t_note_us": 71162574,
      "t_trigger_us": 71026611,
      "is_ai": false,
      "track_id": 0,
      "velocity": 0,
      "is_motor": true,
      "motor_id": 0,
      "accel_val": 2000,
      "base_duration_us": 174418
    },
    {
      "id": "M_517",
      "pitch": 56,
      "t_note_us": 71162574,
      "t_trigger_us": 71026611,
      "is_ai": false,
      "track_id": 0,
      "velocity": 0,
      "is_motor": true,
      "motor_id": 3,
      "accel_val": 2000,
      "base_duration_us": 174418
    },
    {
      "id": "M_518",
      "pitch": 98,
      "t_note_us": 71860247,
      "t_trigger_us": 71724284,
      "is_ai": true,
      "track_id": 11,
      "velocity": 0,
      "is_motor": false,
      "motor_id": 0,
      "accel_val": 2000,
      "base_duration_us": 174418
    },
    {
      "id": "M_519",
      "pitch": 74,
      "t_note_us": 71860247,
      "t_trigger_us": 71724284,
      "is_ai": false,
      "track_id": 0,
      "velocity": 0,
      "is_motor": true,
      "motor_id": 2,
      "accel_val": 2000,
      "base_duration_us": 174418
    },
    {
      "id": "M_520",
      "pitch": 76,
      "t_note_us": 72121874,
      "t_trigger_us": 71985911,
      "is_ai": false,
      "track_id": 0,
      "velocity": 0,
      "is_motor": true,
      "motor_id": 2,
      "accel_val": 2000,
      "base_duration_us": 87209
    },
    {
      "id": "M_521",
      "pitch": 76,
      "t_note_us": 72121874,
      "t_trigger_us": 71985911,
      "is_ai": false,
      "track_id": 0,
      "velocity": 0,
      "is_motor": true,
      "motor_id": 1,
      "accel_val": 2000,
      "base_duration_us": 87209
    },
    {
      "id": "M_523",
      "pitch": 98,
      "t_note_us": 72209083,
      "t_trigger_us": 72073120,
      "is_ai": true,
      "track_id": 11,
      "velocity": 0,
      "is_motor": false,
      "motor_id": 0,
      "accel_val": 2000,
      "base_duration_us": 174418
    },
    {
      "id": "M_522",
      "pitch": 74,
      "t_note_us": 72209083,
      "t_trigger_us": 72073120,
      "is_ai": false,
      "track_id": 0,
      "velocity": 0,
      "is_motor": true,
      "motor_id": 2,
      "accel_val": 2000,
      "base_duration_us": 174418
    },
    {
      "id": "M_524",
      "pitch": 96,
      "t_note_us": 72470710,
      "t_trigger_us": 72334747,
      "is_ai": true,
      "track_id": 10,
      "velocity": 0,
      "is_motor": false,
      "motor_id": 0,
      "accel_val": 2000,
      "base_duration_us": 87209
    },
    {
      "id": "M_525",
      "pitch": 72,
      "t_note_us": 72470710,
      "t_trigger_us": 72334747,
      "is_ai": false,
      "track_id": 0,
      "velocity": 0,
      "is_motor": true,
      "motor_id": 2,
      "accel_val": 2000,
      "base_duration_us": 87209
    },
    {
      "id": "M_526",
      "pitch": 69,
      "t_note_us": 72557919,
      "t_trigger_us": 72421956,
      "is_ai": false,
      "track_id": 0,
      "velocity": 0,
      "is_motor": true,
      "motor_id": 1,
      "accel_val": 2000,
      "base_duration_us": 174418
    },
    {
      "id": "M_527",
      "pitch": 69,
      "t_note_us": 72557919,
      "t_trigger_us": 72421956,
      "is_ai": false,
      "track_id": 0,
      "velocity": 0,
      "is_motor": true,
      "motor_id": 2,
      "accel_val": 2000,
      "base_duration_us": 174418
    },
    {
      "id": "M_528",
      "pitch": 57,
      "t_note_us": 72557919,
      "t_trigger_us": 72421956,
      "is_ai": false,
      "track_id": 0,
      "velocity": 0,
      "is_motor": true,
      "motor_id": 0,
      "accel_val": 2000,
      "base_duration_us": 174418
    },
    {
      "id": "M_529",
      "pitch": 53,
      "t_note_us": 72557919,
      "t_trigger_us": 72421956,
      "is_ai": false,
      "track_id": 0,
      "velocity": 0,
      "is_motor": true,
      "motor_id": 3,
      "accel_val": 2000,
      "base_duration_us": 174418
    },
    {
      "id": "M_530",
      "pitch": 65,
      "t_note_us": 72557919,
      "t_trigger_us": 72421956,
      "is_ai": false,
      "track_id": 0,
      "velocity": 0,
      "is_motor": true,
      "motor_id": 0,
      "accel_val": 2000,
      "base_duration_us": 174418
    },
    {
      "id": "M_532",
      "pitch": 96,
      "t_note_us": 72819546,
      "t_trigger_us": 72683583,
      "is_ai": true,
      "track_id": 10,
      "velocity": 0,
      "is_motor": false,
      "motor_id": 0,
      "accel_val": 2000,
      "base_duration_us": 87209
    },
    {
      "id": "M_531",
      "pitch": 72,
      "t_note_us": 72819546,
      "t_trigger_us": 72683583,
      "is_ai": false,
      "track_id": 0,
      "velocity": 0,
      "is_motor": true,
      "motor_id": 2,
      "accel_val": 2000,
      "base_duration_us": 87209
    },
    {
      "id": "M_533",
      "pitch": 57,
      "t_note_us": 72906755,
      "t_trigger_us": 72770792,
      "is_ai": false,
      "track_id": 0,
      "velocity": 0,
      "is_motor": true,
      "motor_id": 0,
      "accel_val": 2000,
      "base_duration_us": 174418
    },
    {
      "id": "M_534",
      "pitch": 65,
      "t_note_us": 73168382,
      "t_trigger_us": 73032419,
      "is_ai": false,
      "track_id": 0,
      "velocity": 0,
      "is_motor": true,
      "motor_id": 1,
      "accel_val": 2000,
      "base_duration_us": 87209
    },
    {
      "id": "M_535",
      "pitch": 76,
      "t_note_us": 73255591,
      "t_trigger_us": 73119628,
      "is_ai": false,
      "track_id": 0,
      "velocity": 0,
      "is_motor": true,
      "motor_id": 2,
      "accel_val": 2000,
      "base_duration_us": 174418
    },
    {
      "id": "M_536",
      "pitch": 76,
      "t_note_us": 73255591,
      "t_trigger_us": 73119628,
      "is_ai": false,
      "track_id": 0,
      "velocity": 0,
      "is_motor": true,
      "motor_id": 1,
      "accel_val": 2000,
      "base_duration_us": 174418
    },
    {
      "id": "M_537",
      "pitch": 65,
      "t_note_us": 73255591,
      "t_trigger_us": 73119628,
      "is_ai": false,
      "track_id": 0,
      "velocity": 0,
      "is_motor": true,
      "motor_id": 0,
      "accel_val": 2000,
      "base_duration_us": 174418
    },
    {
      "id": "M_538",
      "pitch": 67,
      "t_note_us": 73517218,
      "t_trigger_us": 73381255,
      "is_ai": false,
      "track_id": 0,
      "velocity": 0,
      "is_motor": true,
      "motor_id": 1,
      "accel_val": 2000,
      "base_duration_us": 87209
    },
    {
      "id": "M_539",
      "pitch": 67,
      "t_note_us": 73517218,
      "t_trigger_us": 73381255,
      "is_ai": false,
      "track_id": 0,
      "velocity": 0,
      "is_motor": true,
      "motor_id": 2,
      "accel_val": 2000,
      "base_duration_us": 87209
    },
    {
      "id": "M_540",
      "pitch": 57,
      "t_note_us": 73604427,
      "t_trigger_us": 73468464,
      "is_ai": false,
      "track_id": 0,
      "velocity": 0,
      "is_motor": true,
      "motor_id": 0,
      "accel_val": 2000,
      "base_duration_us": 174418
    },
    {
      "id": "M_541",
      "pitch": 53,
      "t_note_us": 73866054,
      "t_trigger_us": 73730091,
      "is_ai": false,
      "track_id": 0,
      "velocity": 0,
      "is_motor": true,
      "motor_id": 0,
      "accel_val": 2000,
      "base_duration_us": 87209
    },
    {
      "id": "M_542",
      "pitch": 74,
      "t_note_us": 73953263,
      "t_trigger_us": 73817300,
      "is_ai": false,
      "track_id": 0,
      "velocity": 0,
      "is_motor": true,
      "motor_id": 2,
      "accel_val": 2000,
      "base_duration_us": 174418
    },
    {
      "id": "M_543",
      "pitch": 74,
      "t_note_us": 73953263,
      "t_trigger_us": 73817300,
      "is_ai": false,
      "track_id": 0,
      "velocity": 0,
      "is_motor": true,
      "motor_id": 1,
      "accel_val": 2000,
      "base_duration_us": 174418
    },
    {
      "id": "M_544",
      "pitch": 55,
      "t_note_us": 73953263,
      "t_trigger_us": 73817300,
      "is_ai": false,
      "track_id": 0,
      "velocity": 0,
      "is_motor": true,
      "motor_id": 0,
      "accel_val": 2000,
      "base_duration_us": 174418
    },
    {
      "id": "M_545",
      "pitch": 48,
      "t_note_us": 73953263,
      "t_trigger_us": 73817300,
      "is_ai": false,
      "track_id": 0,
      "velocity": 0,
      "is_motor": true,
      "motor_id": 3,
      "accel_val": 2000,
      "base_duration_us": 174418
    },
    {
      "id": "M_546",
      "pitch": 60,
      "t_note_us": 73953263,
      "t_trigger_us": 73817300,
      "is_ai": false,
      "track_id": 0,
      "velocity": 0,
      "is_motor": true,
      "motor_id": 0,
      "accel_val": 2000,
      "base_duration_us": 174418
    },
    {
      "id": "M_547",
      "pitch": 84,
      "t_note_us": 74214890,
      "t_trigger_us": 74078927,
      "is_ai": true,
      "track_id": 3,
      "velocity": 0,
      "is_motor": false,
      "motor_id": 0,
      "accel_val": 2000,
      "base_duration_us": 87209
    },
    {
      "id": "M_548",
      "pitch": 96,
      "t_note_us": 74214890,
      "t_trigger_us": 74078927,
      "is_ai": true,
      "track_id": 10,
      "velocity": 0,
      "is_motor": false,
      "motor_id": 0,
      "accel_val": 2000,
      "base_duration_us": 87209
    },
    {
      "id": "M_549",
      "pitch": 55,
      "t_note_us": 74302099,
      "t_trigger_us": 74166136,
      "is_ai": false,
      "track_id": 0,
      "velocity": 0,
      "is_motor": true,
      "motor_id": 0,
      "accel_val": 2000,
      "base_duration_us": 174418
    },
    {
      "id": "M_552",
      "pitch": 96,
      "t_note_us": 74563726,
      "t_trigger_us": 74427763,
      "is_ai": true,
      "track_id": 10,
      "velocity": 0,
      "is_motor": false,
      "motor_id": 0,
      "accel_val": 2000,
      "base_duration_us": 87209
    },
    {
      "id": "M_550",
      "pitch": 60,
      "t_note_us": 74563726,
      "t_trigger_us": 74427763,
      "is_ai": false,
      "track_id": 0,
      "velocity": 0,
      "is_motor": true,
      "motor_id": 1,
      "accel_val": 2000,
      "base_duration_us": 87209
    },
    {
      "id": "M_551",
      "pitch": 72,
      "t_note_us": 74563726,
      "t_trigger_us": 74427763,
      "is_ai": false,
      "track_id": 0,
      "velocity": 0,
      "is_motor": true,
      "motor_id": 2,
      "accel_val": 2000,
      "base_duration_us": 87209
    },
    {
      "id": "M_553",
      "pitch": 60,
      "t_note_us": 74650935,
      "t_trigger_us": 74514972,
      "is_ai": false,
      "track_id": 0,
      "velocity": 0,
      "is_motor": true,
      "motor_id": 1,
      "accel_val": 2000,
      "base_duration_us": 174418
    },
    {
      "id": "M_554",
      "pitch": 72,
      "t_note_us": 74912562,
      "t_trigger_us": 74776599,
      "is_ai": false,
      "track_id": 0,
      "velocity": 0,
      "is_motor": true,
      "motor_id": 2,
      "accel_val": 2000,
      "base_duration_us": 87209
    },
    {
      "id": "M_555",
      "pitch": 72,
      "t_note_us": 74912562,
      "t_trigger_us": 74776599,
      "is_ai": false,
      "track_id": 0,
      "velocity": 0,
      "is_motor": true,
      "motor_id": 1,
      "accel_val": 2000,
      "base_duration_us": 87209
    },
    {
      "id": "M_556",
      "pitch": 74,
      "t_note_us": 74999771,
      "t_trigger_us": 74863808,
      "is_ai": false,
      "track_id": 0,
      "velocity": 0,
      "is_motor": true,
      "motor_id": 2,
      "accel_val": 2000,
      "base_duration_us": 174418
    },
    {
      "id": "M_557",
      "pitch": 74,
      "t_note_us": 74999771,
      "t_trigger_us": 74863808,
      "is_ai": false,
      "track_id": 0,
      "velocity": 0,
      "is_motor": true,
      "motor_id": 1,
      "accel_val": 2000,
      "base_duration_us": 174418
    },
    {
      "id": "M_558",
      "pitch": 55,
      "t_note_us": 74999771,
      "t_trigger_us": 74863808,
      "is_ai": false,
      "track_id": 0,
      "velocity": 0,
      "is_motor": true,
      "motor_id": 0,
      "accel_val": 2000,
      "base_duration_us": 174418
    },
    {
      "id": "M_559",
      "pitch": 48,
      "t_note_us": 75261398,
      "t_trigger_us": 75125435,
      "is_ai": false,
      "track_id": 0,
      "velocity": 0,
      "is_motor": true,
      "motor_id": 0,
      "accel_val": 2000,
      "base_duration_us": 87209
    },
    {
      "id": "M_560",
      "pitch": 76,
      "t_note_us": 75261398,
      "t_trigger_us": 75125435,
      "is_ai": false,
      "track_id": 0,
      "velocity": 0,
      "is_motor": true,
      "motor_id": 2,
      "accel_val": 2000,
      "base_duration_us": 87209
    },
    {
      "id": "M_561",
      "pitch": 76,
      "t_note_us": 75261398,
      "t_trigger_us": 75125435,
      "is_ai": false,
      "track_id": 0,
      "velocity": 0,
      "is_motor": true,
      "motor_id": 1,
      "accel_val": 2000,
      "base_duration_us": 87209
    },
    {
      "id": "M_563",
      "pitch": 101,
      "t_note_us": 75348607,
      "t_trigger_us": 75212644,
      "is_ai": true,
      "track_id": 13,
      "velocity": 0,
      "is_motor": false,
      "motor_id": 0,
      "accel_val": 2000,
      "base_duration_us": 174418
    },
    {
      "id": "M_562",
      "pitch": 77,
      "t_note_us": 75348607,
      "t_trigger_us": 75212644,
      "is_ai": false,
      "track_id": 0,
      "velocity": 0,
      "is_motor": true,
      "motor_id": 2,
      "accel_val": 2000,
      "base_duration_us": 174418
    },
    {
      "id": "M_564",
      "pitch": 57,
      "t_note_us": 75348607,
      "t_trigger_us": 75212644,
      "is_ai": false,
      "track_id": 0,
      "velocity": 0,
      "is_motor": true,
      "motor_id": 0,
      "accel_val": 2000,
      "base_duration_us": 174418
    },
    {
      "id": "M_565",
      "pitch": 50,
      "t_note_us": 75348607,
      "t_trigger_us": 75212644,
      "is_ai": false,
      "track_id": 0,
      "velocity": 0,
      "is_motor": true,
      "motor_id": 1,
      "accel_val": 2000,
      "base_duration_us": 174418
    },
    {
      "id": "M_566",
      "pitch": 62,
      "t_note_us": 75348607,
      "t_trigger_us": 75212644,
      "is_ai": false,
      "track_id": 0,
      "velocity": 0,
      "is_motor": true,
      "motor_id": 3,
      "accel_val": 2000,
      "base_duration_us": 174418
    },
    {
      "id": "M_567",
      "pitch": 62,
      "t_note_us": 75610234,
      "t_trigger_us": 75474271,
      "is_ai": false,
      "track_id": 0,
      "velocity": 0,
      "is_motor": true,
      "motor_id": 1,
      "accel_val": 2000,
      "base_duration_us": 87209
    },
    {
      "id": "M_568",
      "pitch": 57,
      "t_note_us": 75610234,
      "t_trigger_us": 75474271,
      "is_ai": false,
      "track_id": 0,
      "velocity": 0,
      "is_motor": true,
      "motor_id": 0,
      "accel_val": 2000,
      "base_duration_us": 87209
    },
    {
      "id": "M_569",
      "pitch": 50,
      "t_note_us": 75610234,
      "t_trigger_us": 75474271,
      "is_ai": false,
      "track_id": 0,
      "velocity": 0,
      "is_motor": true,
      "motor_id": 2,
      "accel_val": 2000,
      "base_duration_us": 87209
    },
    {
      "id": "M_570",
      "pitch": 76,
      "t_note_us": 75610234,
      "t_trigger_us": 75474271,
      "is_ai": false,
      "track_id": 0,
      "velocity": 0,
      "is_motor": true,
      "motor_id": 3,
      "accel_val": 2000,
      "base_duration_us": 87209
    },
    {
      "id": "M_571",
      "pitch": 76,
      "t_note_us": 75610234,
      "t_trigger_us": 75474271,
      "is_ai": false,
      "track_id": 0,
      "velocity": 0,
      "is_motor": true,
      "motor_id": 0,
      "accel_val": 2000,
      "base_duration_us": 87209
    },
    {
      "id": "M_572",
      "pitch": 98,
      "t_note_us": 76046280,
      "t_trigger_us": 75910317,
      "is_ai": true,
      "track_id": 11,
      "velocity": 0,
      "is_motor": false,
      "motor_id": 0,
      "accel_val": 2000,
      "base_duration_us": 174418
    },
    {
      "id": "M_573",
      "pitch": 74,
      "t_note_us": 76046280,
      "t_trigger_us": 75910317,
      "is_ai": false,
      "track_id": 0,
      "velocity": 0,
      "is_motor": true,
      "motor_id": 2,
      "accel_val": 2000,
      "base_duration_us": 174418
    },
    {
      "id": "M_574",
      "pitch": 62,
      "t_note_us": 76046280,
      "t_trigger_us": 75910317,
      "is_ai": false,
      "track_id": 0,
      "velocity": 0,
      "is_motor": true,
      "motor_id": 1,
      "accel_val": 2000,
      "base_duration_us": 174418
    },
    {
      "id": "M_575",
      "pitch": 67,
      "t_note_us": 76046280,
      "t_trigger_us": 75910317,
      "is_ai": false,
      "track_id": 0,
      "velocity": 0,
      "is_motor": true,
      "motor_id": 0,
      "accel_val": 2000,
      "base_duration_us": 174418
    },
    {
      "id": "M_576",
      "pitch": 55,
      "t_note_us": 76046280,
      "t_trigger_us": 75910317,
      "is_ai": false,
      "track_id": 0,
      "velocity": 0,
      "is_motor": true,
      "motor_id": 3,
      "accel_val": 2000,
      "base_duration_us": 174418
    },
    {
      "id": "M_581",
      "pitch": 95,
      "t_note_us": 76307907,
      "t_trigger_us": 76171944,
      "is_ai": true,
      "track_id": 9,
      "velocity": 0,
      "is_motor": false,
      "motor_id": 0,
      "accel_val": 2000,
      "base_duration_us": 87209
    },
    {
      "id": "M_577",
      "pitch": 62,
      "t_note_us": 76307907,
      "t_trigger_us": 76171944,
      "is_ai": false,
      "track_id": 0,
      "velocity": 0,
      "is_motor": true,
      "motor_id": 1,
      "accel_val": 2000,
      "base_duration_us": 87209
    },
    {
      "id": "M_578",
      "pitch": 67,
      "t_note_us": 76307907,
      "t_trigger_us": 76171944,
      "is_ai": false,
      "track_id": 0,
      "velocity": 0,
      "is_motor": true,
      "motor_id": 2,
      "accel_val": 2000,
      "base_duration_us": 87209
    },
    {
      "id": "M_579",
      "pitch": 55,
      "t_note_us": 76307907,
      "t_trigger_us": 76171944,
      "is_ai": false,
      "track_id": 0,
      "velocity": 0,
      "is_motor": true,
      "motor_id": 0,
      "accel_val": 2000,
      "base_duration_us": 87209
    },
    {
      "id": "M_580",
      "pitch": 71,
      "t_note_us": 76307907,
      "t_trigger_us": 76171944,
      "is_ai": false,
      "track_id": 0,
      "velocity": 0,
      "is_motor": true,
      "motor_id": 3,
      "accel_val": 2000,
      "base_duration_us": 87209
    },
    {
      "id": "M_582",
      "pitch": 96,
      "t_note_us": 76743953,
      "t_trigger_us": 76607990,
      "is_ai": true,
      "track_id": 10,
      "velocity": 0,
      "is_motor": false,
      "motor_id": 0,
      "accel_val": 2000,
      "base_duration_us": 174418
    },
    {
      "id": "M_583",
      "pitch": 72,
      "t_note_us": 76743953,
      "t_trigger_us": 76607990,
      "is_ai": false,
      "track_id": 0,
      "velocity": 0,
      "is_motor": true,
      "motor_id": 2,
      "accel_val": 2000,
      "base_duration_us": 174418
    },
    {
      "id": "M_584",
      "pitch": 55,
      "t_note_us": 76743953,
      "t_trigger_us": 76607990,
      "is_ai": false,
      "track_id": 0,
      "velocity": 0,
      "is_motor": true,
      "motor_id": 0,
      "accel_val": 2000,
      "base_duration_us": 174418
    },
    {
      "id": "M_585",
      "pitch": 60,
      "t_note_us": 76743953,
      "t_trigger_us": 76607990,
      "is_ai": false,
      "track_id": 0,
      "velocity": 0,
      "is_motor": true,
      "motor_id": 1,
      "accel_val": 2000,
      "base_duration_us": 174418
    },
    {
      "id": "M_586",
      "pitch": 64,
      "t_note_us": 76743953,
      "t_trigger_us": 76607990,
      "is_ai": false,
      "track_id": 0,
      "velocity": 0,
      "is_motor": true,
      "motor_id": 3,
      "accel_val": 2000,
      "base_duration_us": 174418
    },
    {
      "id": "M_587",
      "pitch": 52,
      "t_note_us": 76743953,
      "t_trigger_us": 76607990,
      "is_ai": false,
      "track_id": 0,
      "velocity": 0,
      "is_motor": true,
      "motor_id": 0,
      "accel_val": 2000,
      "base_duration_us": 174418
    },
    {
      "id": "M_588",
      "pitch": 55,
      "t_note_us": 77092789,
      "t_trigger_us": 76956826,
      "is_ai": false,
      "track_id": 0,
      "velocity": 0,
      "is_motor": true,
      "motor_id": 0,
      "accel_val": 2000,
      "base_duration_us": 174418
    },
    {
      "id": "M_589",
      "pitch": 64,
      "t_note_us": 77354416,
      "t_trigger_us": 77218453,
      "is_ai": false,
      "track_id": 0,
      "velocity": 0,
      "is_motor": true,
      "motor_id": 1,
      "accel_val": 2000,
      "base_duration_us": 87209
    },
    {
      "id": "M_590",
      "pitch": 64,
      "t_note_us": 77441625,
      "t_trigger_us": 77305662,
      "is_ai": false,
      "track_id": 0,
      "velocity": 0,
      "is_motor": true,
      "motor_id": 1,
      "accel_val": 2000,
      "base_duration_us": 174418
    },
    {
      "id": "M_592",
      "pitch": 96,
      "t_note_us": 77790461,
      "t_trigger_us": 77654498,
      "is_ai": true,
      "track_id": 10,
      "velocity": 0,
      "is_motor": false,
      "motor_id": 0,
      "accel_val": 2000,
      "base_duration_us": 174418
    },
    {
      "id": "M_591",
      "pitch": 72,
      "t_note_us": 77790461,
      "t_trigger_us": 77654498,
      "is_ai": false,
      "track_id": 0,
      "velocity": 0,
      "is_motor": true,
      "motor_id": 2,
      "accel_val": 2000,
      "base_duration_us": 174418
    },
    {
      "id": "M_593",
      "pitch": 55,
      "t_note_us": 77790461,
      "t_trigger_us": 77654498,
      "is_ai": false,
      "track_id": 0,
      "velocity": 0,
      "is_motor": true,
      "motor_id": 0,
      "accel_val": 2000,
      "base_duration_us": 174418
    },
    {
      "id": "M_594",
      "pitch": 52,
      "t_note_us": 78052088,
      "t_trigger_us": 77916125,
      "is_ai": false,
      "track_id": 0,
      "velocity": 0,
      "is_motor": true,
      "motor_id": 0,
      "accel_val": 2000,
      "base_duration_us": 87209
    },
    {
      "id": "M_595",
      "pitch": 71,
      "t_note_us": 78052088,
      "t_trigger_us": 77916125,
      "is_ai": false,
      "track_id": 0,
      "velocity": 0,
      "is_motor": true,
      "motor_id": 1,
      "accel_val": 2000,
      "base_duration_us": 87209
    },
    {
      "id": "M_596",
      "pitch": 71,
      "t_note_us": 78052088,
      "t_trigger_us": 77916125,
      "is_ai": false,
      "track_id": 0,
      "velocity": 0,
      "is_motor": true,
      "motor_id": 2,
      "accel_val": 2000,
      "base_duration_us": 87209
    },
    {
      "id": "M_597",
      "pitch": 57,
      "t_note_us": 78139297,
      "t_trigger_us": 78003334,
      "is_ai": false,
      "track_id": 0,
      "velocity": 0,
      "is_motor": true,
      "motor_id": 0,
      "accel_val": 2000,
      "base_duration_us": 174418
    },
    {
      "id": "M_598",
      "pitch": 65,
      "t_note_us": 78139297,
      "t_trigger_us": 78003334,
      "is_ai": false,
      "track_id": 0,
      "velocity": 0,
      "is_motor": true,
      "motor_id": 1,
      "accel_val": 2000,
      "base_duration_us": 174418
    },
    {
      "id": "M_599",
      "pitch": 53,
      "t_note_us": 78139297,
      "t_trigger_us": 78003334,
      "is_ai": false,
      "track_id": 0,
      "velocity": 0,
      "is_motor": true,
      "motor_id": 2,
      "accel_val": 2000,
      "base_duration_us": 174418
    },
    {
      "id": "M_600",
      "pitch": 69,
      "t_note_us": 78139297,
      "t_trigger_us": 78003334,
      "is_ai": false,
      "track_id": 0,
      "velocity": 0,
      "is_motor": true,
      "motor_id": 3,
      "accel_val": 2000,
      "base_duration_us": 174418
    },
    {
      "id": "M_601",
      "pitch": 69,
      "t_note_us": 78139297,
      "t_trigger_us": 78003334,
      "is_ai": false,
      "track_id": 0,
      "velocity": 0,
      "is_motor": true,
      "motor_id": 0,
      "accel_val": 2000,
      "base_duration_us": 174418
    },
    {
      "id": "M_603",
      "pitch": 95,
      "t_note_us": 78488133,
      "t_trigger_us": 78352170,
      "is_ai": true,
      "track_id": 9,
      "velocity": 0,
      "is_motor": false,
      "motor_id": 0,
      "accel_val": 2000,
      "base_duration_us": 174418
    },
    {
      "id": "M_602",
      "pitch": 57,
      "t_note_us": 78488133,
      "t_trigger_us": 78352170,
      "is_ai": false,
      "track_id": 0,
      "velocity": 0,
      "is_motor": true,
      "motor_id": 0,
      "accel_val": 2000,
      "base_duration_us": 174418
    },
    {
      "id": "M_604",
      "pitch": 71,
      "t_note_us": 78488133,
      "t_trigger_us": 78352170,
      "is_ai": false,
      "track_id": 0,
      "velocity": 0,
      "is_motor": true,
      "motor_id": 1,
      "accel_val": 2000,
      "base_duration_us": 174418
    },
    {
      "id": "M_605",
      "pitch": 65,
      "t_note_us": 78749760,
      "t_trigger_us": 78613797,
      "is_ai": false,
      "track_id": 0,
      "velocity": 0,
      "is_motor": true,
      "motor_id": 1,
      "accel_val": 2000,
      "base_duration_us": 87209
    },
    {
      "id": "M_607",
      "pitch": 96,
      "t_note_us": 78836969,
      "t_trigger_us": 78701006,
      "is_ai": true,
      "track_id": 10,
      "velocity": 0,
      "is_motor": false,
      "motor_id": 0,
      "accel_val": 2000,
      "base_duration_us": 174418
    },
    {
      "id": "M_606",
      "pitch": 65,
      "t_note_us": 78836969,
      "t_trigger_us": 78701006,
      "is_ai": false,
      "track_id": 0,
      "velocity": 0,
      "is_motor": true,
      "motor_id": 1,
      "accel_val": 2000,
      "base_duration_us": 174418
    },
    {
      "id": "M_608",
      "pitch": 72,
      "t_note_us": 78836969,
      "t_trigger_us": 78701006,
      "is_ai": false,
      "track_id": 0,
      "velocity": 0,
      "is_motor": true,
      "motor_id": 2,
      "accel_val": 2000,
      "base_duration_us": 174418
    },
    {
      "id": "M_609",
      "pitch": 57,
      "t_note_us": 79185805,
      "t_trigger_us": 79049842,
      "is_ai": false,
      "track_id": 0,
      "velocity": 0,
      "is_motor": true,
      "motor_id": 0,
      "accel_val": 2000,
      "base_duration_us": 174418
    },
    {
      "id": "M_610",
      "pitch": 74,
      "t_note_us": 79185805,
      "t_trigger_us": 79049842,
      "is_ai": false,
      "track_id": 0,
      "velocity": 0,
      "is_motor": true,
      "motor_id": 2,
      "accel_val": 2000,
      "base_duration_us": 174418
    },
    {
      "id": "M_611",
      "pitch": 74,
      "t_note_us": 79185805,
      "t_trigger_us": 79049842,
      "is_ai": false,
      "track_id": 0,
      "velocity": 0,
      "is_motor": true,
      "motor_id": 1,
      "accel_val": 2000,
      "base_duration_us": 174418
    },
    {
      "id": "M_612",
      "pitch": 53,
      "t_note_us": 79447432,
      "t_trigger_us": 79311469,
      "is_ai": false,
      "track_id": 0,
      "velocity": 0,
      "is_motor": true,
      "motor_id": 0,
      "accel_val": 2000,
      "base_duration_us": 87209
    },
    {
      "id": "M_613",
      "pitch": 55,
      "t_note_us": 79534641,
      "t_trigger_us": 79398678,
      "is_ai": false,
      "track_id": 0,
      "velocity": 0,
      "is_motor": true,
      "motor_id": 0,
      "accel_val": 2000,
      "base_duration_us": 174418
    },
    {
      "id": "M_614",
      "pitch": 52,
      "t_note_us": 79534641,
      "t_trigger_us": 79398678,
      "is_ai": false,
      "track_id": 0,
      "velocity": 0,
      "is_motor": true,
      "motor_id": 1,
      "accel_val": 2000,
      "base_duration_us": 174418
    },
    {
      "id": "M_615",
      "pitch": 60,
      "t_note_us": 79534641,
      "t_trigger_us": 79398678,
      "is_ai": false,
      "track_id": 0,
      "velocity": 0,
      "is_motor": true,
      "motor_id": 2,
      "accel_val": 2000,
      "base_duration_us": 174418
    },
    {
      "id": "M_616",
      "pitch": 71,
      "t_note_us": 79534641,
      "t_trigger_us": 79398678,
      "is_ai": false,
      "track_id": 0,
      "velocity": 0,
      "is_motor": true,
      "motor_id": 3,
      "accel_val": 2000,
      "base_duration_us": 174418
    },
    {
      "id": "M_617",
      "pitch": 71,
      "t_note_us": 79534641,
      "t_trigger_us": 79398678,
      "is_ai": false,
      "track_id": 0,
      "velocity": 0,
      "is_motor": true,
      "motor_id": 0,
      "accel_val": 2000,
      "base_duration_us": 174418
    },
    {
      "id": "M_618",
      "pitch": 55,
      "t_note_us": 79883477,
      "t_trigger_us": 79747514,
      "is_ai": false,
      "track_id": 0,
      "velocity": 0,
      "is_motor": true,
      "motor_id": 0,
      "accel_val": 2000,
      "base_duration_us": 174418
    },
    {
      "id": "M_619",
      "pitch": 67,
      "t_note_us": 79883477,
      "t_trigger_us": 79747514,
      "is_ai": false,
      "track_id": 0,
      "velocity": 0,
      "is_motor": true,
      "motor_id": 1,
      "accel_val": 2000,
      "base_duration_us": 174418
    },
    {
      "id": "M_620",
      "pitch": 67,
      "t_note_us": 79883477,
      "t_trigger_us": 79747514,
      "is_ai": false,
      "track_id": 0,
      "velocity": 0,
      "is_motor": true,
      "motor_id": 2,
      "accel_val": 2000,
      "base_duration_us": 174418
    },
    {
      "id": "M_621",
      "pitch": 60,
      "t_note_us": 80145104,
      "t_trigger_us": 80009141,
      "is_ai": false,
      "track_id": 0,
      "velocity": 0,
      "is_motor": true,
      "motor_id": 1,
      "accel_val": 2000,
      "base_duration_us": 87209
    },
    {
      "id": "M_622",
      "pitch": 60,
      "t_note_us": 80232313,
      "t_trigger_us": 80096350,
      "is_ai": false,
      "track_id": 0,
      "velocity": 0,
      "is_motor": true,
      "motor_id": 1,
      "accel_val": 2000,
      "base_duration_us": 174418
    },
    {
      "id": "M_623",
      "pitch": 76,
      "t_note_us": 80232313,
      "t_trigger_us": 80096350,
      "is_ai": false,
      "track_id": 0,
      "velocity": 0,
      "is_motor": true,
      "motor_id": 2,
      "accel_val": 2000,
      "base_duration_us": 174418
    },
    {
      "id": "M_624",
      "pitch": 76,
      "t_note_us": 80232313,
      "t_trigger_us": 80096350,
      "is_ai": false,
      "track_id": 0,
      "velocity": 0,
      "is_motor": true,
      "motor_id": 3,
      "accel_val": 2000,
      "base_duration_us": 174418
    },
    {
      "id": "M_625",
      "pitch": 55,
      "t_note_us": 80581149,
      "t_trigger_us": 80445186,
      "is_ai": false,
      "track_id": 0,
      "velocity": 0,
      "is_motor": true,
      "motor_id": 0,
      "accel_val": 2000,
      "base_duration_us": 174418
    },
    {
      "id": "M_626",
      "pitch": 67,
      "t_note_us": 80581149,
      "t_trigger_us": 80445186,
      "is_ai": false,
      "track_id": 0,
      "velocity": 0,
      "is_motor": true,
      "motor_id": 1,
      "accel_val": 2000,
      "base_duration_us": 174418
    },
    {
      "id": "M_627",
      "pitch": 67,
      "t_note_us": 80581149,
      "t_trigger_us": 80445186,
      "is_ai": false,
      "track_id": 0,
      "velocity": 0,
      "is_motor": true,
      "motor_id": 2,
      "accel_val": 2000,
      "base_duration_us": 174418
    },
    {
      "id": "M_628",
      "pitch": 48,
      "t_note_us": 80842776,
      "t_trigger_us": 80706813,
      "is_ai": false,
      "track_id": 0,
      "velocity": 0,
      "is_motor": true,
      "motor_id": 0,
      "accel_val": 2000,
      "base_duration_us": 87209
    },
    {
      "id": "M_629",
      "pitch": 57,
      "t_note_us": 80929985,
      "t_trigger_us": 80794022,
      "is_ai": false,
      "track_id": 0,
      "velocity": 0,
      "is_motor": true,
      "motor_id": 0,
      "accel_val": 2000,
      "base_duration_us": 174418
    },
    {
      "id": "M_630",
      "pitch": 53,
      "t_note_us": 80929985,
      "t_trigger_us": 80794022,
      "is_ai": false,
      "track_id": 0,
      "velocity": 0,
      "is_motor": true,
      "motor_id": 1,
      "accel_val": 2000,
      "base_duration_us": 174418
    },
    {
      "id": "M_631",
      "pitch": 65,
      "t_note_us": 80929985,
      "t_trigger_us": 80794022,
      "is_ai": false,
      "track_id": 0,
      "velocity": 0,
      "is_motor": true,
      "motor_id": 2,
      "accel_val": 2000,
      "base_duration_us": 174418
    },
    {
      "id": "M_632",
      "pitch": 69,
      "t_note_us": 80929985,
      "t_trigger_us": 80794022,
      "is_ai": false,
      "track_id": 0,
      "velocity": 0,
      "is_motor": true,
      "motor_id": 3,
      "accel_val": 2000,
      "base_duration_us": 174418
    },
    {
      "id": "M_633",
      "pitch": 69,
      "t_note_us": 80929985,
      "t_trigger_us": 80794022,
      "is_ai": false,
      "track_id": 0,
      "velocity": 0,
      "is_motor": true,
      "motor_id": 0,
      "accel_val": 2000,
      "base_duration_us": 174418
    },
    {
      "id": "M_634",
      "pitch": 74,
      "t_note_us": 81191612,
      "t_trigger_us": 81055649,
      "is_ai": false,
      "track_id": 0,
      "velocity": 0,
      "is_motor": true,
      "motor_id": 2,
      "accel_val": 2000,
      "base_duration_us": 87209
    },
    {
      "id": "M_635",
      "pitch": 74,
      "t_note_us": 81191612,
      "t_trigger_us": 81055649,
      "is_ai": false,
      "track_id": 0,
      "velocity": 0,
      "is_motor": true,
      "motor_id": 1,
      "accel_val": 2000,
      "base_duration_us": 87209
    },
    {
      "id": "M_636",
      "pitch": 62,
      "t_note_us": 81627658,
      "t_trigger_us": 81491695,
      "is_ai": false,
      "track_id": 0,
      "velocity": 0,
      "is_motor": true,
      "motor_id": 1,
      "accel_val": 2000,
      "base_duration_us": 174418
    },
    {
      "id": "M_637",
      "pitch": 55,
      "t_note_us": 81627658,
      "t_trigger_us": 81491695,
      "is_ai": false,
      "track_id": 0,
      "velocity": 0,
      "is_motor": true,
      "motor_id": 0,
      "accel_val": 2000,
      "base_duration_us": 174418
    },
    {
      "id": "M_638",
      "pitch": 67,
      "t_note_us": 81627658,
      "t_trigger_us": 81491695,
      "is_ai": false,
      "track_id": 0,
      "velocity": 0,
      "is_motor": true,
      "motor_id": 2,
      "accel_val": 2000,
      "base_duration_us": 174418
    },
    {
      "id": "M_639",
      "pitch": 71,
      "t_note_us": 81627658,
      "t_trigger_us": 81491695,
      "is_ai": false,
      "track_id": 0,
      "velocity": 0,
      "is_motor": true,
      "motor_id": 3,
      "accel_val": 2000,
      "base_duration_us": 174418
    },
    {
      "id": "M_640",
      "pitch": 71,
      "t_note_us": 81627658,
      "t_trigger_us": 81491695,
      "is_ai": false,
      "track_id": 0,
      "velocity": 0,
      "is_motor": true,
      "motor_id": 0,
      "accel_val": 2000,
      "base_duration_us": 174418
    },
    {
      "id": "M_641",
      "pitch": 72,
      "t_note_us": 81889285,
      "t_trigger_us": 81753322,
      "is_ai": false,
      "track_id": 0,
      "velocity": 0,
      "is_motor": true,
      "motor_id": 2,
      "accel_val": 2000,
      "base_duration_us": 87209
    },
    {
      "id": "M_642",
      "pitch": 72,
      "t_note_us": 81889285,
      "t_trigger_us": 81753322,
      "is_ai": false,
      "track_id": 0,
      "velocity": 0,
      "is_motor": true,
      "motor_id": 1,
      "accel_val": 2000,
      "base_duration_us": 87209
    },
    {
      "id": "M_646",
      "pitch": 96,
      "t_note_us": 82325331,
      "t_trigger_us": 82189368,
      "is_ai": true,
      "track_id": 10,
      "velocity": 0,
      "is_motor": false,
      "motor_id": 0,
      "accel_val": 2000,
      "base_duration_us": 174418
    },
    {
      "id": "M_643",
      "pitch": 57,
      "t_note_us": 82325331,
      "t_trigger_us": 82189368,
      "is_ai": false,
      "track_id": 0,
      "velocity": 0,
      "is_motor": true,
      "motor_id": 0,
      "accel_val": 2000,
      "base_duration_us": 174418
    },
    {
      "id": "M_644",
      "pitch": 69,
      "t_note_us": 82325331,
      "t_trigger_us": 82189368,
      "is_ai": false,
      "track_id": 0,
      "velocity": 0,
      "is_motor": true,
      "motor_id": 1,
      "accel_val": 2000,
      "base_duration_us": 174418
    },
    {
      "id": "M_645",
      "pitch": 72,
      "t_note_us": 82325331,
      "t_trigger_us": 82189368,
      "is_ai": false,
      "track_id": 0,
      "velocity": 0,
      "is_motor": true,
      "motor_id": 2,
      "accel_val": 2000,
      "base_duration_us": 174418
    },
    {
      "id": "M_647",
      "pitch": 64,
      "t_note_us": 82674167,
      "t_trigger_us": 82538204,
      "is_ai": false,
      "track_id": 0,
      "velocity": 0,
      "is_motor": true,
      "motor_id": 1,
      "accel_val": 2000,
      "base_duration_us": 174418
    },
    {
      "id": "M_648",
      "pitch": 69,
      "t_note_us": 83023003,
      "t_trigger_us": 82887040,
      "is_ai": false,
      "track_id": 0,
      "velocity": 0,
      "is_motor": true,
      "motor_id": 1,
      "accel_val": 2000,
      "base_duration_us": 174418
    },
    {
      "id": "M_649",
      "pitch": 72,
      "t_note_us": 83371839,
      "t_trigger_us": 83235876,
      "is_ai": false,
      "track_id": 0,
      "velocity": 0,
      "is_motor": true,
      "motor_id": 2,
      "accel_val": 2000,
      "base_duration_us": 174418
    },
    {
      "id": "M_650",
      "pitch": 72,
      "t_note_us": 83371839,
      "t_trigger_us": 83235876,
      "is_ai": false,
      "track_id": 0,
      "velocity": 0,
      "is_motor": true,
      "motor_id": 1,
      "accel_val": 2000,
      "base_duration_us": 174418
    },
    {
      "id": "M_651",
      "pitch": 71,
      "t_note_us": 83633466,
      "t_trigger_us": 83497503,
      "is_ai": false,
      "track_id": 0,
      "velocity": 0,
      "is_motor": true,
      "motor_id": 1,
      "accel_val": 2000,
      "base_duration_us": 87209
    },
    {
      "id": "M_652",
      "pitch": 71,
      "t_note_us": 83633466,
      "t_trigger_us": 83497503,
      "is_ai": false,
      "track_id": 0,
      "velocity": 0,
      "is_motor": true,
      "motor_id": 2,
      "accel_val": 2000,
      "base_duration_us": 87209
    },
    {
      "id": "M_653",
      "pitch": 57,
      "t_note_us": 83720675,
      "t_trigger_us": 83584712,
      "is_ai": false,
      "track_id": 0,
      "velocity": 0,
      "is_motor": true,
      "motor_id": 0,
      "accel_val": 2000,
      "base_duration_us": 174418
    },
    {
      "id": "M_654",
      "pitch": 53,
      "t_note_us": 83720675,
      "t_trigger_us": 83584712,
      "is_ai": false,
      "track_id": 0,
      "velocity": 0,
      "is_motor": true,
      "motor_id": 1,
      "accel_val": 2000,
      "base_duration_us": 174418
    },
    {
      "id": "M_655",
      "pitch": 65,
      "t_note_us": 83720675,
      "t_trigger_us": 83584712,
      "is_ai": false,
      "track_id": 0,
      "velocity": 0,
      "is_motor": true,
      "motor_id": 2,
      "accel_val": 2000,
      "base_duration_us": 174418
    },
    {
      "id": "M_656",
      "pitch": 69,
      "t_note_us": 83720675,
      "t_trigger_us": 83584712,
      "is_ai": false,
      "track_id": 0,
      "velocity": 0,
      "is_motor": true,
      "motor_id": 3,
      "accel_val": 2000,
      "base_duration_us": 174418
    },
    {
      "id": "M_657",
      "pitch": 69,
      "t_note_us": 83720675,
      "t_trigger_us": 83584712,
      "is_ai": false,
      "track_id": 0,
      "velocity": 0,
      "is_motor": true,
      "motor_id": 0,
      "accel_val": 2000,
      "base_duration_us": 174418
    },
    {
      "id": "M_658",
      "pitch": 57,
      "t_note_us": 84069511,
      "t_trigger_us": 83933548,
      "is_ai": false,
      "track_id": 0,
      "velocity": 0,
      "is_motor": true,
      "motor_id": 0,
      "accel_val": 2000,
      "base_duration_us": 174418
    },
    {
      "id": "M_659",
      "pitch": 71,
      "t_note_us": 84069511,
      "t_trigger_us": 83933548,
      "is_ai": false,
      "track_id": 0,
      "velocity": 0,
      "is_motor": true,
      "motor_id": 1,
      "accel_val": 2000,
      "base_duration_us": 174418
    },
    {
      "id": "M_660",
      "pitch": 71,
      "t_note_us": 84069511,
      "t_trigger_us": 83933548,
      "is_ai": false,
      "track_id": 0,
      "velocity": 0,
      "is_motor": true,
      "motor_id": 2,
      "accel_val": 2000,
      "base_duration_us": 174418
    },
    {
      "id": "M_661",
      "pitch": 65,
      "t_note_us": 84331138,
      "t_trigger_us": 84195175,
      "is_ai": false,
      "track_id": 0,
      "velocity": 0,
      "is_motor": true,
      "motor_id": 1,
      "accel_val": 2000,
      "base_duration_us": 87209
    },
    {
      "id": "M_663",
      "pitch": 96,
      "t_note_us": 84418347,
      "t_trigger_us": 84282384,
      "is_ai": true,
      "track_id": 10,
      "velocity": 0,
      "is_motor": false,
      "motor_id": 0,
      "accel_val": 2000,
      "base_duration_us": 174418
    },
    {
      "id": "M_662",
      "pitch": 65,
      "t_note_us": 84418347,
      "t_trigger_us": 84282384,
      "is_ai": false,
      "track_id": 0,
      "velocity": 0,
      "is_motor": true,
      "motor_id": 1,
      "accel_val": 2000,
      "base_duration_us": 174418
    },
    {
      "id": "M_664",
      "pitch": 72,
      "t_note_us": 84418347,
      "t_trigger_us": 84282384,
      "is_ai": false,
      "track_id": 0,
      "velocity": 0,
      "is_motor": true,
      "motor_id": 2,
      "accel_val": 2000,
      "base_duration_us": 174418
    },
    {
      "id": "M_666",
      "pitch": 98,
      "t_note_us": 84767183,
      "t_trigger_us": 84631220,
      "is_ai": true,
      "track_id": 11,
      "velocity": 0,
      "is_motor": false,
      "motor_id": 0,
      "accel_val": 2000,
      "base_duration_us": 174418
    },
    {
      "id": "M_665",
      "pitch": 57,
      "t_note_us": 84767183,
      "t_trigger_us": 84631220,
      "is_ai": false,
      "track_id": 0,
      "velocity": 0,
      "is_motor": true,
      "motor_id": 0,
      "accel_val": 2000,
      "base_duration_us": 174418
    },
    {
      "id": "M_667",
      "pitch": 74,
      "t_note_us": 84767183,
      "t_trigger_us": 84631220,
      "is_ai": false,
      "track_id": 0,
      "velocity": 0,
      "is_motor": true,
      "motor_id": 2,
      "accel_val": 2000,
      "base_duration_us": 174418
    },
    {
      "id": "M_668",
      "pitch": 53,
      "t_note_us": 85028810,
      "t_trigger_us": 84892847,
      "is_ai": false,
      "track_id": 0,
      "velocity": 0,
      "is_motor": true,
      "motor_id": 0,
      "accel_val": 2000,
      "base_duration_us": 87209
    },
    {
      "id": "M_672",
      "pitch": 96,
      "t_note_us": 85116019,
      "t_trigger_us": 84980056,
      "is_ai": true,
      "track_id": 10,
      "velocity": 0,
      "is_motor": false,
      "motor_id": 0,
      "accel_val": 2000,
      "base_duration_us": 174418
    },
    {
      "id": "M_669",
      "pitch": 55,
      "t_note_us": 85116019,
      "t_trigger_us": 84980056,
      "is_ai": false,
      "track_id": 0,
      "velocity": 0,
      "is_motor": true,
      "motor_id": 0,
      "accel_val": 2000,
      "base_duration_us": 174418
    },
    {
      "id": "M_670",
      "pitch": 64,
      "t_note_us": 85116019,
      "t_trigger_us": 84980056,
      "is_ai": false,
      "track_id": 0,
      "velocity": 0,
      "is_motor": true,
      "motor_id": 1,
      "accel_val": 2000,
      "base_duration_us": 174418
    },
    {
      "id": "M_671",
      "pitch": 52,
      "t_note_us": 85116019,
      "t_trigger_us": 84980056,
      "is_ai": false,
      "track_id": 0,
      "velocity": 0,
      "is_motor": true,
      "motor_id": 2,
      "accel_val": 2000,
      "base_duration_us": 174418
    },
    {
      "id": "M_673",
      "pitch": 72,
      "t_note_us": 85116019,
      "t_trigger_us": 84980056,
      "is_ai": false,
      "track_id": 0,
      "velocity": 0,
      "is_motor": true,
      "motor_id": 3,
      "accel_val": 2000,
      "base_duration_us": 174418
    },
    {
      "id": "M_674",
      "pitch": 55,
      "t_note_us": 85464855,
      "t_trigger_us": 85328892,
      "is_ai": false,
      "track_id": 0,
      "velocity": 0,
      "is_motor": true,
      "motor_id": 0,
      "accel_val": 2000,
      "base_duration_us": 174418
    },
    {
      "id": "M_675",
      "pitch": 67,
      "t_note_us": 85464855,
      "t_trigger_us": 85328892,
      "is_ai": false,
      "track_id": 0,
      "velocity": 0,
      "is_motor": true,
      "motor_id": 1,
      "accel_val": 2000,
      "base_duration_us": 174418
    },
    {
      "id": "M_676",
      "pitch": 67,
      "t_note_us": 85464855,
      "t_trigger_us": 85328892,
      "is_ai": false,
      "track_id": 0,
      "velocity": 0,
      "is_motor": true,
      "motor_id": 2,
      "accel_val": 2000,
      "base_duration_us": 174418
    },
    {
      "id": "M_677",
      "pitch": 64,
      "t_note_us": 85726482,
      "t_trigger_us": 85590519,
      "is_ai": false,
      "track_id": 0,
      "velocity": 0,
      "is_motor": true,
      "motor_id": 1,
      "accel_val": 2000,
      "base_duration_us": 87209
    },
    {
      "id": "M_679",
      "pitch": 96,
      "t_note_us": 85813691,
      "t_trigger_us": 85677728,
      "is_ai": true,
      "track_id": 10,
      "velocity": 0,
      "is_motor": false,
      "motor_id": 0,
      "accel_val": 2000,
      "base_duration_us": 174418
    },
    {
      "id": "M_678",
      "pitch": 64,
      "t_note_us": 85813691,
      "t_trigger_us": 85677728,
      "is_ai": false,
      "track_id": 0,
      "velocity": 0,
      "is_motor": true,
      "motor_id": 1,
      "accel_val": 2000,
      "base_duration_us": 174418
    },
    {
      "id": "M_680",
      "pitch": 72,
      "t_note_us": 85813691,
      "t_trigger_us": 85677728,
      "is_ai": false,
      "track_id": 0,
      "velocity": 0,
      "is_motor": true,
      "motor_id": 2,
      "accel_val": 2000,
      "base_duration_us": 174418
    },
    {
      "id": "M_681",
      "pitch": 98,
      "t_note_us": 86075318,
      "t_trigger_us": 85939355,
      "is_ai": true,
      "track_id": 11,
      "velocity": 0,
      "is_motor": false,
      "motor_id": 0,
      "accel_val": 2000,
      "base_duration_us": 87209
    },
    {
      "id": "M_682",
      "pitch": 74,
      "t_note_us": 86075318,
      "t_trigger_us": 85939355,
      "is_ai": false,
      "track_id": 0,
      "velocity": 0,
      "is_motor": true,
      "motor_id": 2,
      "accel_val": 2000,
      "base_duration_us": 87209
    },
    {
      "id": "M_683",
      "pitch": 55,
      "t_note_us": 86162527,
      "t_trigger_us": 86026564,
      "is_ai": false,
      "track_id": 0,
      "velocity": 0,
      "is_motor": true,
      "motor_id": 0,
      "accel_val": 2000,
      "base_duration_us": 174418
    },
    {
      "id": "M_684",
      "pitch": 48,
      "t_note_us": 86424154,
      "t_trigger_us": 86288191,
      "is_ai": false,
      "track_id": 0,
      "velocity": 0,
      "is_motor": true,
      "motor_id": 0,
      "accel_val": 2000,
      "base_duration_us": 87209
    },
    {
      "id": "M_685",
      "pitch": 57,
      "t_note_us": 86511363,
      "t_trigger_us": 86375400,
      "is_ai": false,
      "track_id": 0,
      "velocity": 0,
      "is_motor": true,
      "motor_id": 0,
      "accel_val": 2000,
      "base_duration_us": 174418
    },
    {
      "id": "M_686",
      "pitch": 62,
      "t_note_us": 86511363,
      "t_trigger_us": 86375400,
      "is_ai": false,
      "track_id": 0,
      "velocity": 0,
      "is_motor": true,
      "motor_id": 1,
      "accel_val": 2000,
      "base_duration_us": 174418
    },
    {
      "id": "M_687",
      "pitch": 50,
      "t_note_us": 86511363,
      "t_trigger_us": 86375400,
      "is_ai": false,
      "track_id": 0,
      "velocity": 0,
      "is_motor": true,
      "motor_id": 2,
      "accel_val": 2000,
      "base_duration_us": 174418
    },
    {
      "id": "M_688",
      "pitch": 76,
      "t_note_us": 86511363,
      "t_trigger_us": 86375400,
      "is_ai": false,
      "track_id": 0,
      "velocity": 0,
      "is_motor": true,
      "motor_id": 3,
      "accel_val": 2000,
      "base_duration_us": 174418
    },
    {
      "id": "M_689",
      "pitch": 76,
      "t_note_us": 86511363,
      "t_trigger_us": 86375400,
      "is_ai": false,
      "track_id": 0,
      "velocity": 0,
      "is_motor": true,
      "motor_id": 0,
      "accel_val": 2000,
      "base_duration_us": 174418
    },
    {
      "id": "M_691",
      "pitch": 101,
      "t_note_us": 86772990,
      "t_trigger_us": 86637027,
      "is_ai": true,
      "track_id": 13,
      "velocity": 0,
      "is_motor": false,
      "motor_id": 0,
      "accel_val": 2000,
      "base_duration_us": 87209
    },
    {
      "id": "M_690",
      "pitch": 77,
      "t_note_us": 86772990,
      "t_trigger_us": 86637027,
      "is_ai": false,
      "track_id": 0,
      "velocity": 0,
      "is_motor": true,
      "motor_id": 2,
      "accel_val": 2000,
      "base_duration_us": 87209
    },
    {
      "id": "M_692",
      "pitch": 62,
      "t_note_us": 87209036,
      "t_trigger_us": 87073073,
      "is_ai": false,
      "track_id": 0,
      "velocity": 0,
      "is_motor": true,
      "motor_id": 1,
      "accel_val": 2000,
      "base_duration_us": 174418
    },
    {
      "id": "M_693",
      "pitch": 67,
      "t_note_us": 87209036,
      "t_trigger_us": 87073073,
      "is_ai": false,
      "track_id": 0,
      "velocity": 0,
      "is_motor": true,
      "motor_id": 2,
      "accel_val": 2000,
      "base_duration_us": 174418
    },
    {
      "id": "M_694",
      "pitch": 55,
      "t_note_us": 87209036,
      "t_trigger_us": 87073073,
      "is_ai": false,
      "track_id": 0,
      "velocity": 0,
      "is_motor": true,
      "motor_id": 0,
      "accel_val": 2000,
      "base_duration_us": 174418
    },
    {
      "id": "M_695",
      "pitch": 74,
      "t_note_us": 87209036,
      "t_trigger_us": 87073073,
      "is_ai": false,
      "track_id": 0,
      "velocity": 0,
      "is_motor": true,
      "motor_id": 3,
      "accel_val": 2000,
      "base_duration_us": 174418
    },
    {
      "id": "M_696",
      "pitch": 74,
      "t_note_us": 87209036,
      "t_trigger_us": 87073073,
      "is_ai": false,
      "track_id": 0,
      "velocity": 0,
      "is_motor": true,
      "motor_id": 0,
      "accel_val": 2000,
      "base_duration_us": 174418
    },
    {
      "id": "M_698",
      "pitch": 96,
      "t_note_us": 87470663,
      "t_trigger_us": 87334700,
      "is_ai": true,
      "track_id": 10,
      "velocity": 0,
      "is_motor": false,
      "motor_id": 0,
      "accel_val": 2000,
      "base_duration_us": 87209
    },
    {
      "id": "M_697",
      "pitch": 72,
      "t_note_us": 87470663,
      "t_trigger_us": 87334700,
      "is_ai": false,
      "track_id": 0,
      "velocity": 0,
      "is_motor": true,
      "motor_id": 2,
      "accel_val": 2000,
      "base_duration_us": 87209
    },
    {
      "id": "M_699",
      "pitch": 52,
      "t_note_us": 87906709,
      "t_trigger_us": 87770746,
      "is_ai": false,
      "track_id": 0,
      "velocity": 0,
      "is_motor": true,
      "motor_id": 0,
      "accel_val": 2000,
      "base_duration_us": 174418
    },
    {
      "id": "M_700",
      "pitch": 60,
      "t_note_us": 87906709,
      "t_trigger_us": 87770746,
      "is_ai": false,
      "track_id": 0,
      "velocity": 0,
      "is_motor": true,
      "motor_id": 1,
      "accel_val": 2000,
      "base_duration_us": 174418
    },
    {
      "id": "M_701",
      "pitch": 48,
      "t_note_us": 87906709,
      "t_trigger_us": 87770746,
      "is_ai": false,
      "track_id": 0,
      "velocity": 0,
      "is_motor": true,
      "motor_id": 2,
      "accel_val": 2000,
      "base_duration_us": 174418
    },
    {
      "id": "M_702",
      "pitch": 72,
      "t_note_us": 87906709,
      "t_trigger_us": 87770746,
      "is_ai": false,
      "track_id": 0,
      "velocity": 0,
      "is_motor": true,
      "motor_id": 3,
      "accel_val": 2000,
      "base_duration_us": 174418
    },
    {
      "id": "M_703",
      "pitch": 72,
      "t_note_us": 87906709,
      "t_trigger_us": 87770746,
      "is_ai": false,
      "track_id": 0,
      "velocity": 0,
      "is_motor": true,
      "motor_id": 0,
      "accel_val": 2000,
      "base_duration_us": 174418
    }
  ]
}