{
  "config": {
    "mode_idx": 0,
    "active_motors": [
      0,
      1,
      2,
      3
    ],
    "transpose": 0,
    "arp_speed_ms": 10,
    "gate_time": 100
  },
  "sustain_multiplier": 1.0,
  "notes": [
    {
      "id": "M_3",
      "pitch": 91,
      "t_note_us": 1592919,
      "t_trigger_us": 1456956,
      "is_ai": true,
      "track_id": 7,
      "velocity": 0,
      "is_motor": false,
      "motor_id": 0,
      "accel_val": 2000,
      "base_duration_us": 796458
    },
    {
      "id": "M_4",
      "pitch": 103,
      "t_note_us": 1592919,
      "t_trigger_us": 1456956,
      "is_ai": true,
      "track_id": 14,
      "velocity": 0,
      "is_motor": false,
      "motor_id": 0,
      "accel_val": 2000,
      "base_duration_us": 796458
    },
    {
      "id": "M_0",
      "pitch": 60,
      "t_note_us": 1592919,
      "t_trigger_us": 1456956,
      "is_ai": false,
      "track_id": 0,
      "velocity": 0,
      "is_motor": true,
      "motor_id": 1,
      "accel_val": 2000,
      "base_duration_us": 398229
    },
    {
      "id": "M_5",
      "pitch": 67,
      "t_note_us": 1592919,
      "t_trigger_us": 1456956,
      "is_ai": false,
      "track_id": 0,
      "velocity": 0,
      "is_motor": true,
      "motor_id": 2,
      "accel_val": 2000,
      "base_duration_us": 796458
    },
    {
      "id": "M_6",
      "pitch": 72,
      "t_note_us": 1592919,
      "t_trigger_us": 1456956,
      "is_ai": false,
      "track_id": 0,
      "velocity": 0,
      "is_motor": true,
      "motor_id": 0,
      "accel_val": 2000,
      "base_duration_us": 796458
    },
    {
      "id": "M_7",
      "pitch": 64,
      "t_note_us": 1592919,
      "t_trigger_us": 1456956,
      "is_ai": false,
      "track_id": 0,
      "velocity": 0,
      "is_motor": true,
      "motor_id": 3,
      "accel_val": 2000,
      "base_duration_us": 796458
    },
    {
      "id": "M_1",
      "pitch": 60,
      "t_note_us": 1991148,
      "t_trigger_us": 1855185,
      "is_ai": false,
      "track_id": 0,
      "velocity": 0,
      "is_motor": true,
      "motor_id": 1,
      "accel_val": 2000,
      "base_duration_us": 132743
    },
    {
      "id": "M_2",
      "pitch": 60,
      "t_note_us": 2123891,
      "t_trigger_us": 1987928,
      "is_ai": false,
      "track_id": 0,
      "velocity": 0,
      "is_motor": true,
      "motor_id": 1,
      "accel_val": 2000,
      "base_duration_us": 265486
    },
    {
      "id": "M_10",
      "pitch": 93,
      "t_note_us": 2389377,
      "t_trigger_us": 2253414,
      "is_ai": true,
      "track_id": 8,
      "velocity": 0,
      "is_motor": false,
      "motor_id": 0,
      "accel_val": 2000,
      "base_duration_us": 796459
    },
    {
      "id": "M_8",
      "pitch": 62,
      "t_note_us": 2389377,
      "t_trigger_us": 2253414,
      "is_ai": false,
      "track_id": 0,
      "velocity": 0,
      "is_motor": true,
      "motor_id": 1,
      "accel_val": 2000,
      "base_duration_us": 530973
    },
    {
      "id": "M_14",
      "pitch": 69,
      "t_note_us": 2389377,
      "t_trigger_us": 2253414,
      "is_ai": false,
      "track_id": 0,
      "velocity": 0,
      "is_motor": true,
      "motor_id": 2,
      "accel_val": 2000,
      "base_duration_us": 1327431
    },
    {
      "id": "M_15",
      "pitch": 74,
      "t_note_us": 2389377,
      "t_trigger_us": 2253414,
      "is_ai": false,
      "track_id": 0,
      "velocity": 0,
      "is_motor": true,
      "motor_id": 0,
      "accel_val": 2000,
      "base_duration_us": 1327431
    },
    {
      "id": "M_16",
      "pitch": 66,
      "t_note_us": 2389377,
      "t_trigger_us": 2253414,
      "is_ai": false,
      "track_id": 0,
      "velocity": 0,
      "is_motor": true,
      "motor_id": 3,
      "accel_val": 2000,
      "base_duration_us": 1327431
    },
    {
      "id": "M_9",
      "pitch": 62,
      "t_note_us": 2920350,
      "t_trigger_us": 2784387,
      "is_ai": false,
      "track_id": 0,
      "velocity": 0,
      "is_motor": true,
      "motor_id": 1,
      "accel_val": 2000,
      "base_duration_us": 265486
    },
    {
      "id": "M_11",
      "pitch": 62,
      "t_note_us": 3185836,
      "t_trigger_us": 3049873,
      "is_ai": false,
      "track_id": 0,
      "velocity": 0,
      "is_motor": true,
      "motor_id": 1,
      "accel_val": 2000,
      "base_duration_us": 265486
    },
    {
      "id": "M_13",
      "pitch": 74,
      "t_note_us": 3185836,
      "t_trigger_us": 3049873,
      "is_ai": false,
      "track_id": 0,
      "velocity": 0,
      "is_motor": true,
      "motor_id": 0,
      "accel_val": 2000,
      "base_duration_us": 530972
    },
    {
      "id": "M_12",
      "pitch": 62,
      "t_note_us": 3451322,
      "t_trigger_us": 3315359,
      "is_ai": false,
      "track_id": 0,
      "velocity": 0,
      "is_motor": true,
      "motor_id": 1,
      "accel_val": 2000,
      "base_duration_us": 265486
    },
    {
      "id": "M_23",
      "pitch": 93,
      "t_note_us": 3716808,
      "t_trigger_us": 3580845,
      "is_ai": true,
      "track_id": 8,
      "velocity": 0,
      "is_motor": false,
      "motor_id": 0,
      "accel_val": 2000,
      "base_duration_us": 796458
    },
    {
      "id": "M_17",
      "pitch": 59,
      "t_note_us": 3716808,
      "t_trigger_us": 3580845,
      "is_ai": false,
      "track_id": 0,
      "velocity": 0,
      "is_motor": true,
      "motor_id": 0,
      "accel_val": 2000,
      "base_duration_us": 398229
    },
    {
      "id": "M_20",
      "pitch": 66,
      "t_note_us": 3716808,
      "t_trigger_us": 3580845,
      "is_ai": false,
      "track_id": 0,
      "velocity": 0,
      "is_motor": true,
      "motor_id": 1,
      "accel_val": 2000,
      "base_duration_us": 796458
    },
    {
      "id": "M_21",
      "pitch": 74,
      "t_note_us": 3716808,
      "t_trigger_us": 3580845,
      "is_ai": false,
      "track_id": 0,
      "velocity": 0,
      "is_motor": true,
      "motor_id": 2,
      "accel_val": 2000,
      "base_duration_us": 796458
    },
    {
      "id": "M_22",
      "pitch": 71,
      "t_note_us": 3716808,
      "t_trigger_us": 3580845,
      "is_ai": false,
      "track_id": 0,
      "velocity": 0,
      "is_motor": true,
      "motor_id": 3,
      "accel_val": 2000,
      "base_duration_us": 796458
    },
    {
      "id": "M_18",
      "pitch": 59,
      "t_note_us": 4115037,
      "t_trigger_us": 3979074,
      "is_ai": false,
      "track_id": 0,
      "velocity": 0,
      "is_motor": true,
      "motor_id": 0,
      "accel_val": 2000,
      "base_duration_us": 132743
    },
    {
      "id": "M_19",
      "pitch": 59,
      "t_note_us": 4247780,
      "t_trigger_us": 4111817,
      "is_ai": false,
      "track_id": 0,
      "velocity": 0,
      "is_motor": true,
      "motor_id": 0,
      "accel_val": 2000,
      "base_duration_us": 265486
    },
    {
      "id": "M_26",
      "pitch": 95,
      "t_note_us": 4513266,
      "t_trigger_us": 4377303,
      "is_ai": true,
      "track_id": 9,
      "velocity": 0,
      "is_motor": false,
      "motor_id": 0,
      "accel_val": 2000,
      "base_duration_us": 796459
    },
    {
      "id": "M_24",
      "pitch": 52,
      "t_note_us": 4513266,
      "t_trigger_us": 4377303,
      "is_ai": false,
      "track_id": 0,
      "velocity": 0,
      "is_motor": true,
      "motor_id": 0,
      "accel_val": 2000,
      "base_duration_us": 530973
    },
    {
      "id": "M_34",
      "pitch": 67,
      "t_note_us": 4513266,
      "t_trigger_us": 4377303,
      "is_ai": false,
      "track_id": 0,
      "velocity": 0,
      "is_motor": true,
      "motor_id": 1,
      "accel_val": 2000,
      "base_duration_us": 1327431
    },
    {
      "id": "M_35",
      "pitch": 71,
      "t_note_us": 4513266,
      "t_trigger_us": 4377303,
      "is_ai": false,
      "track_id": 0,
      "velocity": 0,
      "is_motor": true,
      "motor_id": 2,
      "accel_val": 2000,
      "base_duration_us": 1327431
    },
    {
      "id": "M_36",
      "pitch": 76,
      "t_note_us": 4513266,
      "t_trigger_us": 4377303,
      "is_ai": false,
      "track_id": 0,
      "velocity": 0,
      "is_motor": true,
      "motor_id": 3,
      "accel_val": 2000,
      "base_duration_us": 1327431
    },
    {
      "id": "M_25",
      "pitch": 52,
      "t_note_us": 5044239,
      "t_trigger_us": 4908276,
      "is_ai": false,
      "track_id": 0,
      "velocity": 0,
      "is_motor": true,
      "motor_id": 0,
      "accel_val": 2000,
      "base_duration_us": 265486
    },
    {
      "id": "M_27",
      "pitch": 98,
      "t_note_us": 5309725,
      "t_trigger_us": 5173762,
      "is_ai": true,
      "track_id": 11,
      "velocity": 0,
      "is_motor": false,
      "motor_id": 0,
      "accel_val": 2000,
      "base_duration_us": 132743
    },
    {
      "id": "M_30",
      "pitch": 52,
      "t_note_us": 5309725,
      "t_trigger_us": 5173762,
      "is_ai": false,
      "track_id": 0,
      "velocity": 0,
      "is_motor": true,
      "motor_id": 0,
      "accel_val": 2000,
      "base_duration_us": 265486
    },
    {
      "id": "M_28",
      "pitch": 96,
      "t_note_us": 5442468,
      "t_trigger_us": 5306505,
      "is_ai": true,
      "track_id": 10,
      "velocity": 0,
      "is_motor": false,
      "motor_id": 0,
      "accel_val": 2000,
      "base_duration_us": 132743
    },
    {
      "id": "M_29",
      "pitch": 96,
      "t_note_us": 5442468,
      "t_trigger_us": 5306505,
      "is_ai": true,
      "track_id": 10,
      "velocity": 0,
      "is_motor": false,
      "motor_id": 0,
      "accel_val": 2000,
      "base_duration_us": 132743
    },
    {
      "id": "M_31",
      "pitch": 95,
      "t_note_us": 5575211,
      "t_trigger_us": 5439248,
      "is_ai": true,
      "track_id": 9,
      "velocity": 0,
      "is_motor": false,
      "motor_id": 0,
      "accel_val": 2000,
      "base_duration_us": 265486
    },
    {
      "id": "M_33",
      "pitch": 95,
      "t_note_us": 5575211,
      "t_trigger_us": 5439248,
      "is_ai": true,
      "track_id": 9,
      "velocity": 0,
      "is_motor": false,
      "motor_id": 0,
      "accel_val": 2000,
      "base_duration_us": 265486
    },
    {
      "id": "M_32",
      "pitch": 52,
      "t_note_us": 5575211,
      "t_trigger_us": 5439248,
      "is_ai": false,
      "track_id": 0,
      "velocity": 0,
      "is_motor": true,
      "motor_id": 0,
      "accel_val": 2000,
      "base_duration_us": 265486
    },
    {
      "id": "M_42",
      "pitch": 103,
      "t_note_us": 5840697,
      "t_trigger_us": 5704734,
      "is_ai": true,
      "track_id": 14,
      "velocity": 0,
      "is_motor": false,
      "motor_id": 0,
      "accel_val": 2000,
      "base_duration_us": 796458
    },
    {
      "id": "M_44",
      "pitch": 91,
      "t_note_us": 5840697,
      "t_trigger_us": 5704734,
      "is_ai": true,
      "track_id": 7,
      "velocity": 0,
      "is_motor": false,
      "motor_id": 0,
      "accel_val": 2000,
      "base_duration_us": 796458
    },
    {
      "id": "M_37",
      "pitch": 60,
      "t_note_us": 5840697,
      "t_trigger_us": 5704734,
      "is_ai": false,
      "track_id": 0,
      "velocity": 0,
      "is_motor": true,
      "motor_id": 1,
      "accel_val": 2000,
      "base_duration_us": 398229
    },
    {
      "id": "M_40",
      "pitch": 67,
      "t_note_us": 5840697,
      "t_trigger_us": 5704734,
      "is_ai": false,
      "track_id": 0,
      "velocity": 0,
      "is_motor": true,
      "motor_id": 2,
      "accel_val": 2000,
      "base_duration_us": 796458
    },
    {
      "id": "M_41",
      "pitch": 64,
      "t_note_us": 5840697,
      "t_trigger_us": 5704734,
      "is_ai": false,
      "track_id": 0,
      "velocity": 0,
      "is_motor": true,
      "motor_id": 0,
      "accel_val": 2000,
      "base_duration_us": 796458
    },
    {
      "id": "M_43",
      "pitch": 72,
      "t_note_us": 5840697,
      "t_trigger_us": 5704734,
      "is_ai": false,
      "track_id": 0,
      "velocity": 0,
      "is_motor": true,
      "motor_id": 3,
      "accel_val": 2000,
      "base_duration_us": 796458
    },
    {
      "id": "M_38",
      "pitch": 60,
      "t_note_us": 6238926,
      "t_trigger_us": 6102963,
      "is_ai": false,
      "track_id": 0,
      "velocity": 0,
      "is_motor": true,
      "motor_id": 1,
      "accel_val": 2000,
      "base_duration_us": 132743
    },
    {
      "id": "M_39",
      "pitch": 60,
      "t_note_us": 6371669,
      "t_trigger_us": 6235706,
      "is_ai": false,
      "track_id": 0,
      "velocity": 0,
      "is_motor": true,
      "motor_id": 1,
      "accel_val": 2000,
      "base_duration_us": 265486
    },
    {
      "id": "M_47",
      "pitch": 93,
      "t_note_us": 6637155,
      "t_trigger_us": 6501192,
      "is_ai": true,
      "track_id": 8,
      "velocity": 0,
      "is_motor": false,
      "motor_id": 0,
      "accel_val": 2000,
      "base_duration_us": 796459
    },
    {
      "id": "M_45",
      "pitch": 62,
      "t_note_us": 6637155,
      "t_trigger_us": 6501192,
      "is_ai": false,
      "track_id": 0,
      "velocity": 0,
      "is_motor": true,
      "motor_id": 1,
      "accel_val": 2000,
      "base_duration_us": 530973
    },
    {
      "id": "M_50",
      "pitch": 69,
      "t_note_us": 6637155,
      "t_trigger_us": 6501192,
      "is_ai": false,
      "track_id": 0,
      "velocity": 0,
      "is_motor": true,
      "motor_id": 2,
      "accel_val": 2000,
      "base_duration_us": 1327431
    },
    {
      "id": "M_51",
      "pitch": 74,
      "t_note_us": 6637155,
      "t_trigger_us": 6501192,
      "is_ai": false,
      "track_id": 0,
      "velocity": 0,
      "is_motor": true,
      "motor_id": 0,
      "accel_val": 2000,
      "base_duration_us": 1327431
    },
    {
      "id": "M_52",
      "pitch": 66,
      "t_note_us": 6637155,
      "t_trigger_us": 6501192,
      "is_ai": false,
      "track_id": 0,
      "velocity": 0,
      "is_motor": true,
      "motor_id": 3,
      "accel_val": 2000,
      "base_duration_us": 1327431
    },
    {
      "id": "M_46",
      "pitch": 57,
      "t_note_us": 7168128,
      "t_trigger_us": 7032165,
      "is_ai": false,
      "track_id": 0,
      "velocity": 0,
      "is_motor": true,
      "motor_id": 1,
      "accel_val": 2000,
      "base_duration_us": 265486
    },
    {
      "id": "M_59",
      "pitch": 86,
      "t_note_us": 7433614,
      "t_trigger_us": 7297651,
      "is_ai": true,
      "track_id": 4,
      "velocity": 0,
      "is_motor": false,
      "motor_id": 0,
      "accel_val": 2000,
      "base_duration_us": 1327430
    },
    {
      "id": "M_48",
      "pitch": 62,
      "t_note_us": 7433614,
      "t_trigger_us": 7297651,
      "is_ai": false,
      "track_id": 0,
      "velocity": 0,
      "is_motor": true,
      "motor_id": 1,
      "accel_val": 2000,
      "base_duration_us": 265486
    },
    {
      "id": "M_49",
      "pitch": 57,
      "t_note_us": 7699100,
      "t_trigger_us": 7563137,
      "is_ai": false,
      "track_id": 0,
      "velocity": 0,
      "is_motor": true,
      "motor_id": 1,
      "accel_val": 2000,
      "base_duration_us": 265486
    },
    {
      "id": "M_53",
      "pitch": 59,
      "t_note_us": 7964586,
      "t_trigger_us": 7828623,
      "is_ai": false,
      "track_id": 0,
      "velocity": 0,
      "is_motor": true,
      "motor_id": 0,
      "accel_val": 2000,
      "base_duration_us": 398229
    },
    {
      "id": "M_56",
      "pitch": 74,
      "t_note_us": 7964586,
      "t_trigger_us": 7828623,
      "is_ai": false,
      "track_id": 0,
      "velocity": 0,
      "is_motor": true,
      "motor_id": 1,
      "accel_val": 2000,
      "base_duration_us": 796458
    },
    {
      "id": "M_57",
      "pitch": 71,
      "t_note_us": 7964586,
      "t_trigger_us": 7828623,
      "is_ai": false,
      "track_id": 0,
      "velocity": 0,
      "is_motor": true,
      "motor_id": 2,
      "accel_val": 2000,
      "base_duration_us": 796458
    },
    {
      "id": "M_58",
      "pitch": 66,
      "t_note_us": 7964586,
      "t_trigger_us": 7828623,
      "is_ai": false,
      "track_id": 0,
      "velocity": 0,
      "is_motor": true,
      "motor_id": 3,
      "accel_val": 2000,
      "base_duration_us": 796458
    },
    {
      "id": "M_54",
      "pitch": 59,
      "t_note_us": 8362815,
      "t_trigger_us": 8226852,
      "is_ai": false,
      "track_id": 0,
      "velocity": 0,
      "is_motor": true,
      "motor_id": 0,
      "accel_val": 2000,
      "base_duration_us": 132743
    },
    {
      "id": "M_55",
      "pitch": 59,
      "t_note_us": 8495558,
      "t_trigger_us": 8359595,
      "is_ai": false,
      "track_id": 0,
      "velocity": 0,
      "is_motor": true,
      "motor_id": 0,
      "accel_val": 2000,
      "base_duration_us": 265486
    },
    {
      "id": "M_60",
      "pitch": 52,
      "t_note_us": 8761044,
      "t_trigger_us": 8625081,
      "is_ai": false,
      "track_id": 0,
      "velocity": 0,
      "is_motor": true,
      "motor_id": 0,
      "accel_val": 2000,
      "base_duration_us": 530973
    },
    {
      "id": "M_74",
      "pitch": 71,
      "t_note_us": 8761044,
      "t_trigger_us": 8625081,
      "is_ai": false,
      "track_id": 0,
      "velocity": 0,
      "is_motor": true,
      "motor_id": 1,
      "accel_val": 2000,
      "base_duration_us": 1327431
    },
    {
      "id": "M_75",
      "pitch": 67,
      "t_note_us": 8761044,
      "t_trigger_us": 8625081,
      "is_ai": false,
      "track_id": 0,
      "velocity": 0,
      "is_motor": true,
      "motor_id": 2,
      "accel_val": 2000,
      "base_duration_us": 1327431
    },
    {
      "id": "M_76",
      "pitch": 76,
      "t_note_us": 8761044,
      "t_trigger_us": 8625081,
      "is_ai": false,
      "track_id": 0,
      "velocity": 0,
      "is_motor": true,
      "motor_id": 3,
      "accel_val": 2000,
      "base_duration_us": 1327431
    },
    {
      "id": "M_61",
      "pitch": 98,
      "t_note_us": 9292017,
      "t_trigger_us": 9156054,
      "is_ai": true,
      "track_id": 11,
      "velocity": 0,
      "is_motor": false,
      "motor_id": 0,
      "accel_val": 2000,
      "base_duration_us": 132743
    },
    {
      "id": "M_62",
      "pitch": 74,
      "t_note_us": 9292017,
      "t_trigger_us": 9156054,
      "is_ai": false,
      "track_id": 0,
      "velocity": 0,
      "is_motor": true,
      "motor_id": 0,
      "accel_val": 2000,
      "base_duration_us": 132743
    },
    {
      "id": "M_65",
      "pitch": 52,
      "t_note_us": 9292017,
      "t_trigger_us": 9156054,
      "is_ai": false,
      "track_id": 0,
      "velocity": 0,
      "is_motor": true,
      "motor_id": 0,
      "accel_val": 2000,
      "base_duration_us": 265486
    },
    {
      "id": "M_63",
      "pitch": 86,
      "t_note_us": 9424760,
      "t_trigger_us": 9288797,
      "is_ai": true,
      "track_id": 4,
      "velocity": 0,
      "is_motor": false,
      "motor_id": 0,
      "accel_val": 2000,
      "base_duration_us": 132743
    },
    {
      "id": "M_64",
      "pitch": 98,
      "t_note_us": 9424760,
      "t_trigger_us": 9288797,
      "is_ai": true,
      "track_id": 11,
      "velocity": 0,
      "is_motor": false,
      "motor_id": 0,
      "accel_val": 2000,
      "base_duration_us": 132743
    },
    {
      "id": "M_66",
      "pitch": 100,
      "t_note_us": 9557503,
      "t_trigger_us": 9421540,
      "is_ai": true,
      "track_id": 12,
      "velocity": 0,
      "is_motor": false,
      "motor_id": 0,
      "accel_val": 2000,
      "base_duration_us": 132743
    },
    {
      "id": "M_67",
      "pitch": 88,
      "t_note_us": 9557503,
      "t_trigger_us": 9421540,
      "is_ai": true,
      "track_id": 5,
      "velocity": 0,
      "is_motor": false,
      "motor_id": 0,
      "accel_val": 2000,
      "base_duration_us": 132743
    },
    {
      "id": "M_68",
      "pitch": 55,
      "t_note_us": 9557503,
      "t_trigger_us": 9421540,
      "is_ai": false,
      "track_id": 0,
      "velocity": 0,
      "is_motor": true,
      "motor_id": 0,
      "accel_val": 2000,
      "base_duration_us": 265486
    },
    {
      "id": "M_69",
      "pitch": 103,
      "t_note_us": 9690246,
      "t_trigger_us": 9554283,
      "is_ai": true,
      "track_id": 14,
      "velocity": 0,
      "is_motor": false,
      "motor_id": 0,
      "accel_val": 2000,
      "base_duration_us": 265486
    },
    {
      "id": "M_70",
      "pitch": 91,
      "t_note_us": 9690246,
      "t_trigger_us": 9554283,
      "is_ai": true,
      "track_id": 7,
      "velocity": 0,
      "is_motor": false,
      "motor_id": 0,
      "accel_val": 2000,
      "base_duration_us": 265486
    },
    {
      "id": "M_73",
      "pitch": 59,
      "t_note_us": 9822989,
      "t_trigger_us": 9687026,
      "is_ai": false,
      "track_id": 0,
      "velocity": 0,
      "is_motor": true,
      "motor_id": 0,
      "accel_val": 2000,
      "base_duration_us": 265486
    },
    {
      "id": "M_71",
      "pitch": 91,
      "t_note_us": 9955732,
      "t_trigger_us": 9819769,
      "is_ai": true,
      "track_id": 7,
      "velocity": 0,
      "is_motor": false,
      "motor_id": 0,
      "accel_val": 2000,
      "base_duration_us": 132743
    },
    {
      "id": "M_72",
      "pitch": 103,
      "t_note_us": 9955732,
      "t_trigger_us": 9819769,
      "is_ai": true,
      "track_id": 14,
      "velocity": 0,
      "is_motor": false,
      "motor_id": 0,
      "accel_val": 2000,
      "base_duration_us": 132743
    },
    {
      "id": "M_80",
      "pitch": 91,
      "t_note_us": 10088475,
      "t_trigger_us": 9952512,
      "is_ai": true,
      "track_id": 7,
      "velocity": 0,
      "is_motor": false,
      "motor_id": 0,
      "accel_val": 2000,
      "base_duration_us": 796458
    },
    {
      "id": "M_81",
      "pitch": 103,
      "t_note_us": 10088475,
      "t_trigger_us": 9952512,
      "is_ai": true,
      "track_id": 14,
      "velocity": 0,
      "is_motor": false,
      "motor_id": 0,
      "accel_val": 2000,
      "base_duration_us": 796458
    },
    {
      "id": "M_77",
      "pitch": 60,
      "t_note_us": 10088475,
      "t_trigger_us": 9952512,
      "is_ai": false,
      "track_id": 0,
      "velocity": 0,
      "is_motor": true,
      "motor_id": 1,
      "accel_val": 2000,
      "base_duration_us": 398229
    },
    {
      "id": "M_82",
      "pitch": 72,
      "t_note_us": 10088475,
      "t_trigger_us": 9952512,
      "is_ai": false,
      "track_id": 0,
      "velocity": 0,
      "is_motor": true,
      "motor_id": 0,
      "accel_val": 2000,
      "base_duration_us": 796458
    },
    {
      "id": "M_83",
      "pitch": 67,
      "t_note_us": 10088475,
      "t_trigger_us": 9952512,
      "is_ai": false,
      "track_id": 0,
      "velocity": 0,
      "is_motor": true,
      "motor_id": 2,
      "accel_val": 2000,
      "base_duration_us": 796458
    },
    {
      "id": "M_84",
      "pitch": 64,
      "t_note_us": 10088475,
      "t_trigger_us": 9952512,
      "is_ai": false,
      "track_id": 0,
      "velocity": 0,
      "is_motor": true,
      "motor_id": 3,
      "accel_val": 2000,
      "base_duration_us": 796458
    },
    {
      "id": "M_78",
      "pitch": 60,
      "t_note_us": 10486704,
      "t_trigger_us": 10350741,
      "is_ai": false,
      "track_id": 0,
      "velocity": 0,
      "is_motor": true,
      "motor_id": 1,
      "accel_val": 2000,
      "base_duration_us": 132743
    },
    {
      "id": "M_79",
      "pitch": 60,
      "t_note_us": 10619447,
      "t_trigger_us": 10483484,
      "is_ai": false,
      "track_id": 0,
      "velocity": 0,
      "is_motor": true,
      "motor_id": 1,
      "accel_val": 2000,
      "base_duration_us": 265486
    },
    {
      "id": "M_87",
      "pitch": 93,
      "t_note_us": 10884933,
      "t_trigger_us": 10748970,
      "is_ai": true,
      "track_id": 8,
      "velocity": 0,
      "is_motor": false,
      "motor_id": 0,
      "accel_val": 2000,
      "base_duration_us": 796459
    },
    {
      "id": "M_85",
      "pitch": 62,
      "t_note_us": 10884933,
      "t_trigger_us": 10748970,
      "is_ai": false,
      "track_id": 0,
      "velocity": 0,
      "is_motor": true,
      "motor_id": 1,
      "accel_val": 2000,
      "base_duration_us": 530973
    },
    {
      "id": "M_91",
      "pitch": 69,
      "t_note_us": 10884933,
      "t_trigger_us": 10748970,
      "is_ai": false,
      "track_id": 0,
      "velocity": 0,
      "is_motor": true,
      "motor_id": 2,
      "accel_val": 2000,
      "base_duration_us": 1327431
    },
    {
      "id": "M_92",
      "pitch": 66,
      "t_note_us": 10884933,
      "t_trigger_us": 10748970,
      "is_ai": false,
      "track_id": 0,
      "velocity": 0,
      "is_motor": true,
      "motor_id": 0,
      "accel_val": 2000,
      "base_duration_us": 1327431
    },
    {
      "id": "M_93",
      "pitch": 74,
      "t_note_us": 10884933,
      "t_trigger_us": 10748970,
      "is_ai": false,
      "track_id": 0,
      "velocity": 0,
      "is_motor": true,
      "motor_id": 3,
      "accel_val": 2000,
      "base_duration_us": 1327431
    },
    {
      "id": "M_86",
      "pitch": 62,
      "t_note_us": 11415906,
      "t_trigger_us": 11279943,
      "is_ai": false,
      "track_id": 0,
      "velocity": 0,
      "is_motor": true,
      "motor_id": 1,
      "accel_val": 2000,
      "base_duration_us": 265486
    },
    {
      "id": "M_90",
      "pitch": 86,
      "t_note_us": 11681392,
      "t_trigger_us": 11545429,
      "is_ai": true,
      "track_id": 4,
      "velocity": 0,
      "is_motor": false,
      "motor_id": 0,
      "accel_val": 2000,
      "base_duration_us": 530972
    },
    {
      "id": "M_88",
      "pitch": 62,
      "t_note_us": 11681392,
      "t_trigger_us": 11545429,
      "is_ai": false,
      "track_id": 0,
      "velocity": 0,
      "is_motor": true,
      "motor_id": 1,
      "accel_val": 2000,
      "base_duration_us": 265486
    },
    {
      "id": "M_89",
      "pitch": 62,
      "t_note_us": 11946878,
      "t_trigger_us": 11810915,
      "is_ai": false,
      "track_id": 0,
      "velocity": 0,
      "is_motor": true,
      "motor_id": 1,
      "accel_val": 2000,
      "base_duration_us": 265486
    },
    {
      "id": "M_97",
      "pitch": 93,
      "t_note_us": 12212364,
      "t_trigger_us": 12076401,
      "is_ai": true,
      "track_id": 8,
      "velocity": 0,
      "is_motor": false,
      "motor_id": 0,
      "accel_val": 2000,
      "base_duration_us": 796458
    },
    {
      "id": "M_94",
      "pitch": 59,
      "t_note_us": 12212364,
      "t_trigger_us": 12076401,
      "is_ai": false,
      "track_id": 0,
      "velocity": 0,
      "is_motor": true,
      "motor_id": 0,
      "accel_val": 2000,
      "base_duration_us": 398229
    },
    {
      "id": "M_98",
      "pitch": 74,
      "t_note_us": 12212364,
      "t_trigger_us": 12076401,
      "is_ai": false,
      "track_id": 0,
      "velocity": 0,
      "is_motor": true,
      "motor_id": 1,
      "accel_val": 2000,
      "base_duration_us": 796458
    },
    {
      "id": "M_99",
      "pitch": 71,
      "t_note_us": 12212364,
      "t_trigger_us": 12076401,
      "is_ai": false,
      "track_id": 0,
      "velocity": 0,
      "is_motor": true,
      "motor_id": 2,
      "accel_val": 2000,
      "base_duration_us": 796458
    },
    {
      "id": "M_100",
      "pitch": 66,
      "t_note_us": 12212364,
      "t_trigger_us": 12076401,
      "is_ai": false,
      "track_id": 0,
      "velocity": 0,
      "is_motor": true,
      "motor_id": 3,
      "accel_val": 2000,
      "base_duration_us": 796458
    },
    {
      "id": "M_95",
      "pitch": 59,
      "t_note_us": 12610593,
      "t_trigger_us": 12474630,
      "is_ai": false,
      "track_id": 0,
      "velocity": 0,
      "is_motor": true,
      "motor_id": 0,
      "accel_val": 2000,
      "base_duration_us": 132743
    },
    {
      "id": "M_96",
      "pitch": 59,
      "t_note_us": 12743336,
      "t_trigger_us": 12607373,
      "is_ai": false,
      "track_id": 0,
      "velocity": 0,
      "is_motor": true,
      "motor_id": 0,
      "accel_val": 2000,
      "base_duration_us": 265486
    },
    {
      "id": "M_103",
      "pitch": 95,
      "t_note_us": 13008822,
      "t_trigger_us": 12872859,
      "is_ai": true,
      "track_id": 9,
      "velocity": 0,
      "is_motor": false,
      "motor_id": 0,
      "accel_val": 2000,
      "base_duration_us": 796459
    },
    {
      "id": "M_101",
      "pitch": 52,
      "t_note_us": 13008822,
      "t_trigger_us": 12872859,
      "is_ai": false,
      "track_id": 0,
      "velocity": 0,
      "is_motor": true,
      "motor_id": 0,
      "accel_val": 2000,
      "base_duration_us": 530973
    },
    {
      "id": "M_111",
      "pitch": 71,
      "t_note_us": 13008822,
      "t_trigger_us": 12872859,
      "is_ai": false,
      "track_id": 0,
      "velocity": 0,
      "is_motor": true,
      "motor_id": 1,
      "accel_val": 2000,
      "base_duration_us": 1327431
    },
    {
      "id": "M_112",
      "pitch": 67,
      "t_note_us": 13008822,
      "t_trigger_us": 12872859,
      "is_ai": false,
      "track_id": 0,
      "velocity": 0,
      "is_motor": true,
      "motor_id": 2,
      "accel_val": 2000,
      "base_duration_us": 1327431
    },
    {
      "id": "M_113",
      "pitch": 76,
      "t_note_us": 13008822,
      "t_trigger_us": 12872859,
      "is_ai": false,
      "track_id": 0,
      "velocity": 0,
      "is_motor": true,
      "motor_id": 3,
      "accel_val": 2000,
      "base_duration_us": 1327431
    },
    {
      "id": "M_102",
      "pitch": 52,
      "t_note_us": 13539795,
      "t_trigger_us": 13403832,
      "is_ai": false,
      "track_id": 0,
      "velocity": 0,
      "is_motor": true,
      "motor_id": 0,
      "accel_val": 2000,
      "base_duration_us": 265486
    },
    {
      "id": "M_104",
      "pitch": 98,
      "t_note_us": 13805281,
      "t_trigger_us": 13669318,
      "is_ai": true,
      "track_id": 11,
      "velocity": 0,
      "is_motor": false,
      "motor_id": 0,
      "accel_val": 2000,
      "base_duration_us": 132743
    },
    {
      "id": "M_107",
      "pitch": 52,
      "t_note_us": 13805281,
      "t_trigger_us": 13669318,
      "is_ai": false,
      "track_id": 0,
      "velocity": 0,
      "is_motor": true,
      "motor_id": 0,
      "accel_val": 2000,
      "base_duration_us": 265486
    },
    {
      "id": "M_105",
      "pitch": 96,
      "t_note_us": 13938024,
      "t_trigger_us": 13802061,
      "is_ai": true,
      "track_id": 10,
      "velocity": 0,
      "is_motor": false,
      "motor_id": 0,
      "accel_val": 2000,
      "base_duration_us": 132743
    },
    {
      "id": "M_106",
      "pitch": 96,
      "t_note_us": 13938024,
      "t_trigger_us": 13802061,
      "is_ai": true,
      "track_id": 10,
      "velocity": 0,
      "is_motor": false,
      "motor_id": 0,
      "accel_val": 2000,
      "base_duration_us": 132743
    },
    {
      "id": "M_109",
      "pitch": 95,
      "t_note_us": 14070767,
      "t_trigger_us": 13934804,
      "is_ai": true,
      "track_id": 9,
      "velocity": 0,
      "is_motor": false,
      "motor_id": 0,
      "accel_val": 2000,
      "base_duration_us": 265486
    },
    {
      "id": "M_110",
      "pitch": 95,
      "t_note_us": 14070767,
      "t_trigger_us": 13934804,
      "is_ai": true,
      "track_id": 9,
      "velocity": 0,
      "is_motor": false,
      "motor_id": 0,
      "accel_val": 2000,
      "base_duration_us": 265486
    },
    {
      "id": "M_108",
      "pitch": 52,
      "t_note_us": 14070767,
      "t_trigger_us": 13934804,
      "is_ai": false,
      "track_id": 0,
      "velocity": 0,
      "is_motor": true,
      "motor_id": 0,
      "accel_val": 2000,
      "base_duration_us": 265486
    },
    {
      "id": "M_117",
      "pitch": 91,
      "t_note_us": 14336253,
      "t_trigger_us": 14200290,
      "is_ai": true,
      "track_id": 7,
      "velocity": 0,
      "is_motor": false,
      "motor_id": 0,
      "accel_val": 2000,
      "base_duration_us": 796458
    },
    {
      "id": "M_118",
      "pitch": 103,
      "t_note_us": 14336253,
      "t_trigger_us": 14200290,
      "is_ai": true,
      "track_id": 14,
      "velocity": 0,
      "is_motor": false,
      "motor_id": 0,
      "accel_val": 2000,
      "base_duration_us": 796458
    },
    {
      "id": "M_114",
      "pitch": 60,
      "t_note_us": 14336253,
      "t_trigger_us": 14200290,
      "is_ai": false,
      "track_id": 0,
      "velocity": 0,
      "is_motor": true,
      "motor_id": 1,
      "accel_val": 2000,
      "base_duration_us": 398229
    },
    {
      "id": "M_119",
      "pitch": 64,
      "t_note_us": 14336253,
      "t_trigger_us": 14200290,
      "is_ai": false,
      "track_id": 0,
      "velocity": 0,
      "is_motor": true,
      "motor_id": 0,
      "accel_val": 2000,
      "base_duration_us": 796458
    },
    {
      "id": "M_120",
      "pitch": 72,
      "t_note_us": 14336253,
      "t_trigger_us": 14200290,
      "is_ai": false,
      "track_id": 0,
      "velocity": 0,
      "is_motor": true,
      "motor_id": 2,
      "accel_val": 2000,
      "base_duration_us": 796458
    },
    {
      "id": "M_121",
      "pitch": 67,
      "t_note_us": 14336253,
      "t_trigger_us": 14200290,
      "is_ai": false,
      "track_id": 0,
      "velocity": 0,
      "is_motor": true,
      "motor_id": 3,
      "accel_val": 2000,
      "base_duration_us": 796458
    },
    {
      "id": "M_115",
      "pitch": 60,
      "t_note_us": 14734482,
      "t_trigger_us": 14598519,
      "is_ai": false,
      "track_id": 0,
      "velocity": 0,
      "is_motor": true,
      "motor_id": 1,
      "accel_val": 2000,
      "base_duration_us": 132743
    },
    {
      "id": "M_116",
      "pitch": 60,
      "t_note_us": 14867225,
      "t_trigger_us": 14731262,
      "is_ai": false,
      "track_id": 0,
      "velocity": 0,
      "is_motor": true,
      "motor_id": 1,
      "accel_val": 2000,
      "base_duration_us": 265486
    },
    {
      "id": "M_124",
      "pitch": 93,
      "t_note_us": 15132711,
      "t_trigger_us": 14996748,
      "is_ai": true,
      "track_id": 8,
      "velocity": 0,
      "is_motor": false,
      "motor_id": 0,
      "accel_val": 2000,
      "base_duration_us": 796459
    },
    {
      "id": "M_122",
      "pitch": 62,
      "t_note_us": 15132711,
      "t_trigger_us": 14996748,
      "is_ai": false,
      "track_id": 0,
      "velocity": 0,
      "is_motor": true,
      "motor_id": 1,
      "accel_val": 2000,
      "base_duration_us": 530973
    },
    {
      "id": "M_127",
      "pitch": 66,
      "t_note_us": 15132711,
      "t_trigger_us": 14996748,
      "is_ai": false,
      "track_id": 0,
      "velocity": 0,
      "is_motor": true,
      "motor_id": 2,
      "accel_val": 2000,
      "base_duration_us": 1327431
    },
    {
      "id": "M_128",
      "pitch": 69,
      "t_note_us": 15132711,
      "t_trigger_us": 14996748,
      "is_ai": false,
      "track_id": 0,
      "velocity": 0,
      "is_motor": true,
      "motor_id": 0,
      "accel_val": 2000,
      "base_duration_us": 1327431
    },
    {
      "id": "M_129",
      "pitch": 74,
      "t_note_us": 15132711,
      "t_trigger_us": 14996748,
      "is_ai": false,
      "track_id": 0,
      "velocity": 0,
      "is_motor": true,
      "motor_id": 3,
      "accel_val": 2000,
      "base_duration_us": 1327431
    },
    {
      "id": "M_123",
      "pitch": 57,
      "t_note_us": 15663684,
      "t_trigger_us": 15527721,
      "is_ai": false,
      "track_id": 0,
      "velocity": 0,
      "is_motor": true,
      "motor_id": 1,
      "accel_val": 2000,
      "base_duration_us": 265486
    },
    {
      "id": "M_138",
      "pitch": 86,
      "t_note_us": 15929170,
      "t_trigger_us": 15793207,
      "is_ai": true,
      "track_id": 4,
      "velocity": 0,
      "is_motor": false,
      "motor_id": 0,
      "accel_val": 2000,
      "base_duration_us": 1327430
    },
    {
      "id": "M_125",
      "pitch": 62,
      "t_note_us": 15929170,
      "t_trigger_us": 15793207,
      "is_ai": false,
      "track_id": 0,
      "velocity": 0,
      "is_motor": true,
      "motor_id": 1,
      "accel_val": 2000,
      "base_duration_us": 265486
    },
    {
      "id": "M_126",
      "pitch": 57,
      "t_note_us": 16194656,
      "t_trigger_us": 16058693,
      "is_ai": false,
      "track_id": 0,
      "velocity": 0,
      "is_motor": true,
      "motor_id": 1,
      "accel_val": 2000,
      "base_duration_us": 265486
    },
    {
      "id": "M_130",
      "pitch": 90,
      "t_note_us": 16460142,
      "t_trigger_us": 16324179,
      "is_ai": true,
      "track_id": 0,
      "velocity": 0,
      "is_motor": true,
      "motor_id": 3,
      "accel_val": 2000,
      "base_duration_us": 265486
    },
    {
      "id": "M_131",
      "pitch": 59,
      "t_note_us": 16460142,
      "t_trigger_us": 16324179,
      "is_ai": false,
      "track_id": 0,
      "velocity": 0,
      "is_motor": true,
      "motor_id": 0,
      "accel_val": 2000,
      "base_duration_us": 398229
    },
    {
      "id": "M_134",
      "pitch": 74,
      "t_note_us": 16460142,
      "t_trigger_us": 16324179,
      "is_ai": false,
      "track_id": 0,
      "velocity": 0,
      "is_motor": true,
      "motor_id": 1,
      "accel_val": 2000,
      "base_duration_us": 530972
    },
    {
      "id": "M_135",
      "pitch": 71,
      "t_note_us": 16460142,
      "t_trigger_us": 16324179,
      "is_ai": false,
      "track_id": 0,
      "velocity": 0,
      "is_motor": true,
      "motor_id": 2,
      "accel_val": 2000,
      "base_duration_us": 530972
    },
    {
      "id": "M_136",
      "pitch": 66,
      "t_note_us": 16460142,
      "t_trigger_us": 16324179,
      "is_ai": false,
      "track_id": 0,
      "velocity": 0,
      "is_motor": true,
      "motor_id": 0,
      "accel_val": 2000,
      "base_duration_us": 530972
    },
    {
      "id": "M_133",
      "pitch": 91,
      "t_note_us": 16725628,
      "t_trigger_us": 16589665,
      "is_ai": true,
      "track_id": 7,
      "velocity": 0,
      "is_motor": false,
      "motor_id": 0,
      "accel_val": 2000,
      "base_duration_us": 265486
    },
    {
      "id": "M_132",
      "pitch": 59,
      "t_note_us": 16858371,
      "t_trigger_us": 16722408,
      "is_ai": false,
      "track_id": 0,
      "velocity": 0,
      "is_motor": true,
      "motor_id": 0,
      "accel_val": 2000,
      "base_duration_us": 132743
    },
    {
      "id": "M_139",
      "pitch": 91,
      "t_note_us": 16991114,
      "t_trigger_us": 16855151,
      "is_ai": true,
      "track_id": 7,
      "velocity": 0,
      "is_motor": false,
      "motor_id": 0,
      "accel_val": 2000,
      "base_duration_us": 530972
    },
    {
      "id": "M_137",
      "pitch": 52,
      "t_note_us": 16991114,
      "t_trigger_us": 16855151,
      "is_ai": false,
      "track_id": 0,
      "velocity": 0,
      "is_motor": true,
      "motor_id": 0,
      "accel_val": 2000,
      "base_duration_us": 265486
    },
    {
      "id": "M_150",
      "pitch": 71,
      "t_note_us": 16991114,
      "t_trigger_us": 16855151,
      "is_ai": false,
      "track_id": 0,
      "velocity": 0,
      "is_motor": true,
      "motor_id": 1,
      "accel_val": 2000,
      "base_duration_us": 1592916
    },
    {
      "id": "M_151",
      "pitch": 67,
      "t_note_us": 16991114,
      "t_trigger_us": 16855151,
      "is_ai": false,
      "track_id": 0,
      "velocity": 0,
      "is_motor": true,
      "motor_id": 2,
      "accel_val": 2000,
      "base_duration_us": 1592916
    },
    {
      "id": "M_152",
      "pitch": 76,
      "t_note_us": 16991114,
      "t_trigger_us": 16855151,
      "is_ai": false,
      "track_id": 0,
      "velocity": 0,
      "is_motor": true,
      "motor_id": 3,
      "accel_val": 2000,
      "base_duration_us": 1592916
    },
    {
      "id": "M_140",
      "pitch": 52,
      "t_note_us": 17256600,
      "t_trigger_us": 17120637,
      "is_ai": false,
      "track_id": 0,
      "velocity": 0,
      "is_motor": true,
      "motor_id": 0,
      "accel_val": 2000,
      "base_duration_us": 530972
    },
    {
      "id": "M_141",
      "pitch": 52,
      "t_note_us": 17787572,
      "t_trigger_us": 17651609,
      "is_ai": false,
      "track_id": 0,
      "velocity": 0,
      "is_motor": true,
      "motor_id": 0,
      "accel_val": 2000,
      "base_duration_us": 265486
    },
    {
      "id": "M_142",
      "pitch": 91,
      "t_note_us": 18053058,
      "t_trigger_us": 17917095,
      "is_ai": true,
      "track_id": 7,
      "velocity": 0,
      "is_motor": false,
      "motor_id": 0,
      "accel_val": 2000,
      "base_duration_us": 132743
    },
    {
      "id": "M_143",
      "pitch": 103,
      "t_note_us": 18053058,
      "t_trigger_us": 17917095,
      "is_ai": true,
      "track_id": 14,
      "velocity": 0,
      "is_motor": false,
      "motor_id": 0,
      "accel_val": 2000,
      "base_duration_us": 132743
    },
    {
      "id": "M_144",
      "pitch": 55,
      "t_note_us": 18053058,
      "t_trigger_us": 17917095,
      "is_ai": false,
      "track_id": 0,
      "velocity": 0,
      "is_motor": true,
      "motor_id": 0,
      "accel_val": 2000,
      "base_duration_us": 265486
    },
    {
      "id": "M_145",
      "pitch": 103,
      "t_note_us": 18185801,
      "t_trigger_us": 18049838,
      "is_ai": true,
      "track_id": 14,
      "velocity": 0,
      "is_motor": false,
      "motor_id": 0,
      "accel_val": 2000,
      "base_duration_us": 265486
    },
    {
      "id": "M_146",
      "pitch": 91,
      "t_note_us": 18185801,
      "t_trigger_us": 18049838,
      "is_ai": true,
      "track_id": 7,
      "velocity": 0,
      "is_motor": false,
      "motor_id": 0,
      "accel_val": 2000,
      "base_duration_us": 265486
    },
    {
      "id": "M_149",
      "pitch": 59,
      "t_note_us": 18318544,
      "t_trigger_us": 18182581,
      "is_ai": false,
      "track_id": 0,
      "velocity": 0,
      "is_motor": true,
      "motor_id": 0,
      "accel_val": 2000,
      "base_duration_us": 265486
    },
    {
      "id": "M_147",
      "pitch": 91,
      "t_note_us": 18451287,
      "t_trigger_us": 18315324,
      "is_ai": true,
      "track_id": 7,
      "velocity": 0,
      "is_motor": false,
      "motor_id": 0,
      "accel_val": 2000,
      "base_duration_us": 132743
    },
    {
      "id": "M_148",
      "pitch": 103,
      "t_note_us": 18451287,
      "t_trigger_us": 18315324,
      "is_ai": true,
      "track_id": 14,
      "velocity": 0,
      "is_motor": false,
      "motor_id": 0,
      "accel_val": 2000,
      "base_duration_us": 132743
    },
    {
      "id": "M_162",
      "pitch": 67,
      "t_note_us": 18584030,
      "t_trigger_us": 18448067,
      "is_ai": false,
      "track_id": 0,
      "velocity": 0,
      "is_motor": true,
      "motor_id": 1,
      "accel_val": 2000,
      "base_duration_us": 1858403
    },
    {
      "id": "M_153",
      "pitch": 60,
      "t_note_us": 19115003,
      "t_trigger_us": 18979040,
      "is_ai": false,
      "track_id": 0,
      "velocity": 0,
      "is_motor": true,
      "motor_id": 0,
      "accel_val": 2000,
      "base_duration_us": 265486
    },
    {
      "id": "M_154",
      "pitch": 76,
      "t_note_us": 19115003,
      "t_trigger_us": 18979040,
      "is_ai": false,
      "track_id": 0,
      "velocity": 0,
      "is_motor": true,
      "motor_id": 2,
      "accel_val": 2000,
      "base_duration_us": 265486
    },
    {
      "id": "M_155",
      "pitch": 60,
      "t_note_us": 19380489,
      "t_trigger_us": 19244526,
      "is_ai": false,
      "track_id": 0,
      "velocity": 0,
      "is_motor": true,
      "motor_id": 0,
      "accel_val": 2000,
      "base_duration_us": 265486
    },
    {
      "id": "M_156",
      "pitch": 78,
      "t_note_us": 19380489,
      "t_trigger_us": 19244526,
      "is_ai": false,
      "track_id": 0,
      "velocity": 0,
      "is_motor": true,
      "motor_id": 2,
      "accel_val": 2000,
      "base_duration_us": 265486
    },
    {
      "id": "M_157",
      "pitch": 67,
      "t_note_us": 19645975,
      "t_trigger_us": 19510012,
      "is_ai": false,
      "track_id": 0,
      "velocity": 0,
      "is_motor": true,
      "motor_id": 2,
      "accel_val": 2000,
      "base_duration_us": 265486
    },
    {
      "id": "M_158",
      "pitch": 67,
      "t_note_us": 19911461,
      "t_trigger_us": 19775498,
      "is_ai": false,
      "track_id": 0,
      "velocity": 0,
      "is_motor": true,
      "motor_id": 2,
      "accel_val": 2000,
      "base_duration_us": 265486
    },
    {
      "id": "M_159",
      "pitch": 60,
      "t_note_us": 19911461,
      "t_trigger_us": 19775498,
      "is_ai": false,
      "track_id": 0,
      "velocity": 0,
      "is_motor": true,
      "motor_id": 0,
      "accel_val": 2000,
      "base_duration_us": 265486
    },
    {
      "id": "M_160",
      "pitch": 60,
      "t_note_us": 20176947,
      "t_trigger_us": 20040984,
      "is_ai": false,
      "track_id": 0,
      "velocity": 0,
      "is_motor": true,
      "motor_id": 0,
      "accel_val": 2000,
      "base_duration_us": 265486
    },
    {
      "id": "M_161",
      "pitch": 69,
      "t_note_us": 20176947,
      "t_trigger_us": 20040984,
      "is_ai": false,
      "track_id": 0,
      "velocity": 0,
      "is_motor": true,
      "motor_id": 2,
      "accel_val": 2000,
      "base_duration_us": 265486
    },
    {
      "id": "M_163",
      "pitch": 90,
      "t_note_us": 20442433,
      "t_trigger_us": 20306470,
      "is_ai": true,
      "track_id": 0,
      "velocity": 0,
      "is_motor": true,
      "motor_id": 3,
      "accel_val": 2000,
      "base_duration_us": 398229
    },
    {
      "id": "M_170",
      "pitch": 69,
      "t_note_us": 20442433,
      "t_trigger_us": 20306470,
      "is_ai": false,
      "track_id": 0,
      "velocity": 0,
      "is_motor": true,
      "motor_id": 1,
      "accel_val": 2000,
      "base_duration_us": 1858402
    },
    {
      "id": "M_164",
      "pitch": 76,
      "t_note_us": 20840662,
      "t_trigger_us": 20704699,
      "is_ai": false,
      "track_id": 0,
      "velocity": 0,
      "is_motor": true,
      "motor_id": 2,
      "accel_val": 2000,
      "base_duration_us": 132743
    },
    {
      "id": "M_165",
      "pitch": 62,
      "t_note_us": 20973405,
      "t_trigger_us": 20837442,
      "is_ai": false,
      "track_id": 0,
      "velocity": 0,
      "is_motor": true,
      "motor_id": 0,
      "accel_val": 2000,
      "base_duration_us": 265486
    },
    {
      "id": "M_169",
      "pitch": 74,
      "t_note_us": 20973405,
      "t_trigger_us": 20837442,
      "is_ai": false,
      "track_id": 0,
      "velocity": 0,
      "is_motor": true,
      "motor_id": 2,
      "accel_val": 2000,
      "base_duration_us": 1327430
    },
    {
      "id": "M_166",
      "pitch": 62,
      "t_note_us": 21238891,
      "t_trigger_us": 21102928,
      "is_ai": false,
      "track_id": 0,
      "velocity": 0,
      "is_motor": true,
      "motor_id": 0,
      "accel_val": 2000,
      "base_duration_us": 265486
    },
    {
      "id": "M_167",
      "pitch": 62,
      "t_note_us": 21769863,
      "t_trigger_us": 21633900,
      "is_ai": false,
      "track_id": 0,
      "velocity": 0,
      "is_motor": true,
      "motor_id": 0,
      "accel_val": 2000,
      "base_duration_us": 265486
    },
    {
      "id": "M_168",
      "pitch": 62,
      "t_note_us": 22035349,
      "t_trigger_us": 21899386,
      "is_ai": false,
      "track_id": 0,
      "velocity": 0,
      "is_motor": true,
      "motor_id": 0,
      "accel_val": 2000,
      "base_duration_us": 265486
    },
    {
      "id": "M_171",
      "pitch": 61,
      "t_note_us": 22300835,
      "t_trigger_us": 22164872,
      "is_ai": false,
      "track_id": 0,
      "velocity": 0,
      "is_motor": true,
      "motor_id": 1,
      "accel_val": 2000,
      "base_duration_us": 530972
    },
    {
      "id": "M_172",
      "pitch": 76,
      "t_note_us": 22300835,
      "t_trigger_us": 22164872,
      "is_ai": false,
      "track_id": 0,
      "velocity": 0,
      "is_motor": true,
      "motor_id": 2,
      "accel_val": 2000,
      "base_duration_us": 530972
    },
    {
      "id": "M_173",
      "pitch": 69,
      "t_note_us": 22300835,
      "t_trigger_us": 22164872,
      "is_ai": false,
      "track_id": 0,
      "velocity": 0,
      "is_motor": true,
      "motor_id": 0,
      "accel_val": 2000,
      "base_duration_us": 530972
    },
    {
      "id": "M_184",
      "pitch": 67,
      "t_note_us": 22831807,
      "t_trigger_us": 22695844,
      "is_ai": false,
      "track_id": 0,
      "velocity": 0,
      "is_motor": true,
      "motor_id": 1,
      "accel_val": 2000,
      "base_duration_us": 2123889
    },
    {
      "id": "M_174",
      "pitch": 60,
      "t_note_us": 23097293,
      "t_trigger_us": 22961330,
      "is_ai": false,
      "track_id": 0,
      "velocity": 0,
      "is_motor": true,
      "motor_id": 0,
      "accel_val": 2000,
      "base_duration_us": 265486
    },
    {
      "id": "M_175",
      "pitch": 76,
      "t_note_us": 23097293,
      "t_trigger_us": 22961330,
      "is_ai": false,
      "track_id": 0,
      "velocity": 0,
      "is_motor": true,
      "motor_id": 2,
      "accel_val": 2000,
      "base_duration_us": 265486
    },
    {
      "id": "M_176",
      "pitch": 76,
      "t_note_us": 23362779,
      "t_trigger_us": 23226816,
      "is_ai": false,
      "track_id": 0,
      "velocity": 0,
      "is_motor": true,
      "motor_id": 2,
      "accel_val": 2000,
      "base_duration_us": 265486
    },
    {
      "id": "M_177",
      "pitch": 60,
      "t_note_us": 23362779,
      "t_trigger_us": 23226816,
      "is_ai": false,
      "track_id": 0,
      "velocity": 0,
      "is_motor": true,
      "motor_id": 0,
      "accel_val": 2000,
      "base_duration_us": 265486
    },
    {
      "id": "M_178",
      "pitch": 78,
      "t_note_us": 23628265,
      "t_trigger_us": 23492302,
      "is_ai": false,
      "track_id": 0,
      "velocity": 0,
      "is_motor": true,
      "motor_id": 2,
      "accel_val": 2000,
      "base_duration_us": 265486
    },
    {
      "id": "M_179",
      "pitch": 67,
      "t_note_us": 23893751,
      "t_trigger_us": 23757788,
      "is_ai": false,
      "track_id": 0,
      "velocity": 0,
      "is_motor": true,
      "motor_id": 2,
      "accel_val": 2000,
      "base_duration_us": 265486
    },
    {
      "id": "M_180",
      "pitch": 60,
      "t_note_us": 23893751,
      "t_trigger_us": 23757788,
      "is_ai": false,
      "track_id": 0,
      "velocity": 0,
      "is_motor": true,
      "motor_id": 0,
      "accel_val": 2000,
      "base_duration_us": 265486
    },
    {
      "id": "M_181",
      "pitch": 76,
      "t_note_us": 24159237,
      "t_trigger_us": 24023274,
      "is_ai": false,
      "track_id": 0,
      "velocity": 0,
      "is_motor": true,
      "motor_id": 2,
      "accel_val": 2000,
      "base_duration_us": 530973
    },
    {
      "id": "M_182",
      "pitch": 60,
      "t_note_us": 24159237,
      "t_trigger_us": 24023274,
      "is_ai": false,
      "track_id": 0,
      "velocity": 0,
      "is_motor": true,
      "motor_id": 0,
      "accel_val": 2000,
      "base_duration_us": 530973
    },
    {
      "id": "M_183",
      "pitch": 74,
      "t_note_us": 24690210,
      "t_trigger_us": 24554247,
      "is_ai": false,
      "track_id": 0,
      "velocity": 0,
      "is_motor": true,
      "motor_id": 0,
      "accel_val": 2000,
      "base_duration_us": 265486
    },
    {
      "id": "M_188",
      "pitch": 86,
      "t_note_us": 24955696,
      "t_trigger_us": 24819733,
      "is_ai": true,
      "track_id": 4,
      "velocity": 0,
      "is_motor": false,
      "motor_id": 0,
      "accel_val": 2000,
      "base_duration_us": 265486
    },
    {
      "id": "M_189",
      "pitch": 98,
      "t_note_us": 24955696,
      "t_trigger_us": 24819733,
      "is_ai": true,
      "track_id": 11,
      "velocity": 0,
      "is_motor": false,
      "motor_id": 0,
      "accel_val": 2000,
      "base_duration_us": 265486
    },
    {
      "id": "M_185",
      "pitch": 74,
      "t_note_us": 24955696,
      "t_trigger_us": 24819733,
      "is_ai": false,
      "track_id": 0,
      "velocity": 0,
      "is_motor": true,
      "motor_id": 1,
      "accel_val": 2000,
      "base_duration_us": 265486
    },
    {
      "id": "M_186",
      "pitch": 62,
      "t_note_us": 24955696,
      "t_trigger_us": 24819733,
      "is_ai": false,
      "track_id": 0,
      "velocity": 0,
      "is_motor": true,
      "motor_id": 0,
      "accel_val": 2000,
      "base_duration_us": 265486
    },
    {
      "id": "M_187",
      "pitch": 69,
      "t_note_us": 24955696,
      "t_trigger_us": 24819733,
      "is_ai": false,
      "track_id": 0,
      "velocity": 0,
      "is_motor": true,
      "motor_id": 2,
      "accel_val": 2000,
      "base_duration_us": 265486
    },
    {
      "id": "M_190",
      "pitch": 62,
      "t_note_us": 25486668,
      "t_trigger_us": 25350705,
      "is_ai": false,
      "track_id": 0,
      "velocity": 0,
      "is_motor": true,
      "motor_id": 1,
      "accel_val": 2000,
      "base_duration_us": 265486
    },
    {
      "id": "M_191",
      "pitch": 74,
      "t_note_us": 25486668,
      "t_trigger_us": 25350705,
      "is_ai": false,
      "track_id": 0,
      "velocity": 0,
      "is_motor": true,
      "motor_id": 0,
      "accel_val": 2000,
      "base_duration_us": 265486
    },
    {
      "id": "M_192",
      "pitch": 62,
      "t_note_us": 25752154,
      "t_trigger_us": 25616191,
      "is_ai": false,
      "track_id": 0,
      "velocity": 0,
      "is_motor": true,
      "motor_id": 1,
      "accel_val": 2000,
      "base_duration_us": 265486
    },
    {
      "id": "M_193",
      "pitch": 69,
      "t_note_us": 25752154,
      "t_trigger_us": 25616191,
      "is_ai": false,
      "track_id": 0,
      "velocity": 0,
      "is_motor": true,
      "motor_id": 2,
      "accel_val": 2000,
      "base_duration_us": 265486
    },
    {
      "id": "M_194",
      "pitch": 86,
      "t_note_us": 26017640,
      "t_trigger_us": 25881677,
      "is_ai": true,
      "track_id": 4,
      "velocity": 0,
      "is_motor": false,
      "motor_id": 0,
      "accel_val": 2000,
      "base_duration_us": 265486
    },
    {
      "id": "M_195",
      "pitch": 62,
      "t_note_us": 26283126,
      "t_trigger_us": 26147163,
      "is_ai": false,
      "track_id": 0,
      "velocity": 0,
      "is_motor": true,
      "motor_id": 1,
      "accel_val": 2000,
      "base_duration_us": 265486
    },
    {
      "id": "M_196",
      "pitch": 69,
      "t_note_us": 26283126,
      "t_trigger_us": 26147163,
      "is_ai": false,
      "track_id": 0,
      "velocity": 0,
      "is_motor": true,
      "motor_id": 2,
      "accel_val": 2000,
      "base_duration_us": 265486
    },
    {
      "id": "M_197",
      "pitch": 98,
      "t_note_us": 26548612,
      "t_trigger_us": 26412649,
      "is_ai": true,
      "track_id": 11,
      "velocity": 0,
      "is_motor": false,
      "motor_id": 0,
      "accel_val": 2000,
      "base_duration_us": 265486
    },
    {
      "id": "M_199",
      "pitch": 62,
      "t_note_us": 26548612,
      "t_trigger_us": 26412649,
      "is_ai": false,
      "track_id": 0,
      "velocity": 0,
      "is_motor": true,
      "motor_id": 1,
      "accel_val": 2000,
      "base_duration_us": 530972
    },
    {
      "id": "M_198",
      "pitch": 93,
      "t_note_us": 26814098,
      "t_trigger_us": 26678135,
      "is_ai": true,
      "track_id": 8,
      "velocity": 0,
      "is_motor": false,
      "motor_id": 0,
      "accel_val": 2000,
      "base_duration_us": 265486
    },
    {
      "id": "M_200",
      "pitch": 64,
      "t_note_us": 27345070,
      "t_trigger_us": 27209107,
      "is_ai": false,
      "track_id": 0,
      "velocity": 0,
      "is_motor": true,
      "motor_id": 1,
      "accel_val": 2000,
      "base_duration_us": 265486
    },
    {
      "id": "M_201",
      "pitch": 60,
      "t_note_us": 27345070,
      "t_trigger_us": 27209107,
      "is_ai": false,
      "track_id": 0,
      "velocity": 0,
      "is_motor": true,
      "motor_id": 0,
      "accel_val": 2000,
      "base_duration_us": 265486
    },
    {
      "id": "M_202",
      "pitch": 76,
      "t_note_us": 27345070,
      "t_trigger_us": 27209107,
      "is_ai": false,
      "track_id": 0,
      "velocity": 0,
      "is_motor": true,
      "motor_id": 2,
      "accel_val": 2000,
      "base_duration_us": 265486
    },
    {
      "id": "M_203",
      "pitch": 64,
      "t_note_us": 27610556,
      "t_trigger_us": 27474593,
      "is_ai": false,
      "track_id": 0,
      "velocity": 0,
      "is_motor": true,
      "motor_id": 1,
      "accel_val": 2000,
      "base_duration_us": 265486
    },
    {
      "id": "M_204",
      "pitch": 60,
      "t_note_us": 27610556,
      "t_trigger_us": 27474593,
      "is_ai": false,
      "track_id": 0,
      "velocity": 0,
      "is_motor": true,
      "motor_id": 0,
      "accel_val": 2000,
      "base_duration_us": 265486
    },
    {
      "id": "M_205",
      "pitch": 76,
      "t_note_us": 27610556,
      "t_trigger_us": 27474593,
      "is_ai": false,
      "track_id": 0,
      "velocity": 0,
      "is_motor": true,
      "motor_id": 2,
      "accel_val": 2000,
      "base_duration_us": 265486
    },
    {
      "id": "M_206",
      "pitch": 78,
      "t_note_us": 27876042,
      "t_trigger_us": 27740079,
      "is_ai": false,
      "track_id": 0,
      "velocity": 0,
      "is_motor": true,
      "motor_id": 2,
      "accel_val": 2000,
      "base_duration_us": 265486
    },
    {
      "id": "M_207",
      "pitch": 66,
      "t_note_us": 27876042,
      "t_trigger_us": 27740079,
      "is_ai": false,
      "track_id": 0,
      "velocity": 0,
      "is_motor": true,
      "motor_id": 1,
      "accel_val": 2000,
      "base_duration_us": 265486
    },
    {
      "id": "M_208",
      "pitch": 60,
      "t_note_us": 28141528,
      "t_trigger_us": 28005565,
      "is_ai": false,
      "track_id": 0,
      "velocity": 0,
      "is_motor": true,
      "motor_id": 1,
      "accel_val": 2000,
      "base_duration_us": 265486
    },
    {
      "id": "M_209",
      "pitch": 67,
      "t_note_us": 28141528,
      "t_trigger_us": 28005565,
      "is_ai": false,
      "track_id": 0,
      "velocity": 0,
      "is_motor": true,
      "motor_id": 2,
      "accel_val": 2000,
      "base_duration_us": 265486
    },
    {
      "id": "M_210",
      "pitch": 67,
      "t_note_us": 28141528,
      "t_trigger_us": 28005565,
      "is_ai": false,
      "track_id": 0,
      "velocity": 0,
      "is_motor": true,
      "motor_id": 0,
      "accel_val": 2000,
      "base_duration_us": 265486
    },
    {
      "id": "M_211",
      "pitch": 76,
      "t_note_us": 28407014,
      "t_trigger_us": 28271051,
      "is_ai": false,
      "track_id": 0,
      "velocity": 0,
      "is_motor": true,
      "motor_id": 2,
      "accel_val": 2000,
      "base_duration_us": 265486
    },
    {
      "id": "M_212",
      "pitch": 64,
      "t_note_us": 28407014,
      "t_trigger_us": 28271051,
      "is_ai": false,
      "track_id": 0,
      "velocity": 0,
      "is_motor": true,
      "motor_id": 1,
      "accel_val": 2000,
      "base_duration_us": 265486
    },
    {
      "id": "M_215",
      "pitch": 60,
      "t_note_us": 28407014,
      "t_trigger_us": 28271051,
      "is_ai": false,
      "track_id": 0,
      "velocity": 0,
      "is_motor": true,
      "motor_id": 0,
      "accel_val": 2000,
      "base_duration_us": 530972
    },
    {
      "id": "M_213",
      "pitch": 67,
      "t_note_us": 28672500,
      "t_trigger_us": 28536537,
      "is_ai": false,
      "track_id": 0,
      "velocity": 0,
      "is_motor": true,
      "motor_id": 1,
      "accel_val": 2000,
      "base_duration_us": 265486
    },
    {
      "id": "M_214",
      "pitch": 67,
      "t_note_us": 28672500,
      "t_trigger_us": 28536537,
      "is_ai": false,
      "track_id": 0,
      "velocity": 0,
      "is_motor": true,
      "motor_id": 2,
      "accel_val": 2000,
      "base_duration_us": 265486
    },
    {
      "id": "M_216",
      "pitch": 69,
      "t_note_us": 28937986,
      "t_trigger_us": 28802023,
      "is_ai": false,
      "track_id": 0,
      "velocity": 0,
      "is_motor": true,
      "motor_id": 1,
      "accel_val": 2000,
      "base_duration_us": 265486
    },
    {
      "id": "M_217",
      "pitch": 69,
      "t_note_us": 28937986,
      "t_trigger_us": 28802023,
      "is_ai": false,
      "track_id": 0,
      "velocity": 0,
      "is_motor": true,
      "motor_id": 2,
      "accel_val": 2000,
      "base_duration_us": 265486
    },
    {
      "id": "M_227",
      "pitch": 69,
      "t_note_us": 29203472,
      "t_trigger_us": 29067509,
      "is_ai": false,
      "track_id": 0,
      "velocity": 0,
      "is_motor": true,
      "motor_id": 1,
      "accel_val": 2000,
      "base_duration_us": 1592916
    },
    {
      "id": "M_218",
      "pitch": 78,
      "t_note_us": 29468958,
      "t_trigger_us": 29332995,
      "is_ai": false,
      "track_id": 0,
      "velocity": 0,
      "is_motor": true,
      "motor_id": 2,
      "accel_val": 2000,
      "base_duration_us": 265486
    },
    {
      "id": "M_219",
      "pitch": 66,
      "t_note_us": 29468958,
      "t_trigger_us": 29332995,
      "is_ai": false,
      "track_id": 0,
      "velocity": 0,
      "is_motor": true,
      "motor_id": 0,
      "accel_val": 2000,
      "base_duration_us": 265486
    },
    {
      "id": "M_220",
      "pitch": 62,
      "t_note_us": 29468958,
      "t_trigger_us": 29332995,
      "is_ai": false,
      "track_id": 0,
      "velocity": 0,
      "is_motor": true,
      "motor_id": 3,
      "accel_val": 2000,
      "base_duration_us": 265486
    },
    {
      "id": "M_221",
      "pitch": 62,
      "t_note_us": 29734444,
      "t_trigger_us": 29598481,
      "is_ai": false,
      "track_id": 0,
      "velocity": 0,
      "is_motor": true,
      "motor_id": 0,
      "accel_val": 2000,
      "base_duration_us": 265486
    },
    {
      "id": "M_222",
      "pitch": 76,
      "t_note_us": 29734444,
      "t_trigger_us": 29598481,
      "is_ai": false,
      "track_id": 0,
      "velocity": 0,
      "is_motor": true,
      "motor_id": 2,
      "accel_val": 2000,
      "base_duration_us": 265486
    },
    {
      "id": "M_223",
      "pitch": 64,
      "t_note_us": 29734444,
      "t_trigger_us": 29598481,
      "is_ai": false,
      "track_id": 0,
      "velocity": 0,
      "is_motor": true,
      "motor_id": 3,
      "accel_val": 2000,
      "base_duration_us": 265486
    },
    {
      "id": "M_226",
      "pitch": 74,
      "t_note_us": 29999930,
      "t_trigger_us": 29863967,
      "is_ai": false,
      "track_id": 0,
      "velocity": 0,
      "is_motor": true,
      "motor_id": 0,
      "accel_val": 2000,
      "base_duration_us": 796458
    },
    {
      "id": "M_224",
      "pitch": 62,
      "t_note_us": 30265416,
      "t_trigger_us": 30129453,
      "is_ai": false,
      "track_id": 0,
      "velocity": 0,
      "is_motor": true,
      "motor_id": 2,
      "accel_val": 2000,
      "base_duration_us": 265486
    },
    {
      "id": "M_225",
      "pitch": 62,
      "t_note_us": 30530902,
      "t_trigger_us": 30394939,
      "is_ai": false,
      "track_id": 0,
      "velocity": 0,
      "is_motor": true,
      "motor_id": 2,
      "accel_val": 2000,
      "base_duration_us": 265486
    },
    {
      "id": "M_228",
      "pitch": 61,
      "t_note_us": 30796388,
      "t_trigger_us": 30660425,
      "is_ai": false,
      "track_id": 0,
      "velocity": 0,
      "is_motor": true,
      "motor_id": 1,
      "accel_val": 2000,
      "base_duration_us": 530972
    },
    {
      "id": "M_229",
      "pitch": 69,
      "t_note_us": 30796388,
      "t_trigger_us": 30660425,
      "is_ai": false,
      "track_id": 0,
      "velocity": 0,
      "is_motor": true,
      "motor_id": 2,
      "accel_val": 2000,
      "base_duration_us": 530972
    },
    {
      "id": "M_230",
      "pitch": 76,
      "t_note_us": 30796388,
      "t_trigger_us": 30660425,
      "is_ai": false,
      "track_id": 0,
      "velocity": 0,
      "is_motor": true,
      "motor_id": 3,
      "accel_val": 2000,
      "base_duration_us": 530972
    },
    {
      "id": "M_239",
      "pitch": 67,
      "t_note_us": 31327360,
      "t_trigger_us": 31191397,
      "is_ai": false,
      "track_id": 0,
      "velocity": 0,
      "is_motor": true,
      "motor_id": 1,
      "accel_val": 2000,
      "base_duration_us": 1061944
    },
    {
      "id": "M_231",
      "pitch": 76,
      "t_note_us": 31592846,
      "t_trigger_us": 31456883,
      "is_ai": false,
      "track_id": 0,
      "velocity": 0,
      "is_motor": true,
      "motor_id": 2,
      "accel_val": 2000,
      "base_duration_us": 265486
    },
    {
      "id": "M_232",
      "pitch": 64,
      "t_note_us": 31592846,
      "t_trigger_us": 31456883,
      "is_ai": false,
      "track_id": 0,
      "velocity": 0,
      "is_motor": true,
      "motor_id": 0,
      "accel_val": 2000,
      "base_duration_us": 265486
    },
    {
      "id": "M_233",
      "pitch": 60,
      "t_note_us": 31592846,
      "t_trigger_us": 31456883,
      "is_ai": false,
      "track_id": 0,
      "velocity": 0,
      "is_motor": true,
      "motor_id": 3,
      "accel_val": 2000,
      "base_duration_us": 265486
    },
    {
      "id": "M_234",
      "pitch": 64,
      "t_note_us": 31858332,
      "t_trigger_us": 31722369,
      "is_ai": false,
      "track_id": 0,
      "velocity": 0,
      "is_motor": true,
      "motor_id": 0,
      "accel_val": 2000,
      "base_duration_us": 265486
    },
    {
      "id": "M_235",
      "pitch": 60,
      "t_note_us": 31858332,
      "t_trigger_us": 31722369,
      "is_ai": false,
      "track_id": 0,
      "velocity": 0,
      "is_motor": true,
      "motor_id": 2,
      "accel_val": 2000,
      "base_duration_us": 265486
    },
    {
      "id": "M_236",
      "pitch": 76,
      "t_note_us": 31858332,
      "t_trigger_us": 31722369,
      "is_ai": false,
      "track_id": 0,
      "velocity": 0,
      "is_motor": true,
      "motor_id": 3,
      "accel_val": 2000,
      "base_duration_us": 265486
    },
    {
      "id": "M_237",
      "pitch": 66,
      "t_note_us": 32123818,
      "t_trigger_us": 31987855,
      "is_ai": false,
      "track_id": 0,
      "velocity": 0,
      "is_motor": true,
      "motor_id": 2,
      "accel_val": 2000,
      "base_duration_us": 265486
    },
    {
      "id": "M_238",
      "pitch": 78,
      "t_note_us": 32123818,
      "t_trigger_us": 31987855,
      "is_ai": false,
      "track_id": 0,
      "velocity": 0,
      "is_motor": true,
      "motor_id": 3,
      "accel_val": 2000,
      "base_duration_us": 265486
    },
    {
      "id": "M_240",
      "pitch": 79,
      "t_note_us": 32389304,
      "t_trigger_us": 32253341,
      "is_ai": true,
      "track_id": 0,
      "velocity": 0,
      "is_motor": false,
      "motor_id": 0,
      "accel_val": 2000,
      "base_duration_us": 265486
    },
    {
      "id": "M_241",
      "pitch": 57,
      "t_note_us": 32389304,
      "t_trigger_us": 32253341,
      "is_ai": false,
      "track_id": 0,
      "velocity": 0,
      "is_motor": true,
      "motor_id": 0,
      "accel_val": 2000,
      "base_duration_us": 265486
    },
    {
      "id": "M_242",
      "pitch": 67,
      "t_note_us": 32389304,
      "t_trigger_us": 32253341,
      "is_ai": false,
      "track_id": 0,
      "velocity": 0,
      "is_motor": true,
      "motor_id": 1,
      "accel_val": 2000,
      "base_duration_us": 265486
    },
    {
      "id": "M_248",
      "pitch": 69,
      "t_note_us": 32389304,
      "t_trigger_us": 32253341,
      "is_ai": false,
      "track_id": 0,
      "velocity": 0,
      "is_motor": true,
      "motor_id": 2,
      "accel_val": 2000,
      "base_duration_us": 1061944
    },
    {
      "id": "M_249",
      "pitch": 60,
      "t_note_us": 32389304,
      "t_trigger_us": 32253341,
      "is_ai": false,
      "track_id": 0,
      "velocity": 0,
      "is_motor": true,
      "motor_id": 3,
      "accel_val": 2000,
      "base_duration_us": 1061944
    },
    {
      "id": "M_243",
      "pitch": 64,
      "t_note_us": 32654790,
      "t_trigger_us": 32518827,
      "is_ai": false,
      "track_id": 0,
      "velocity": 0,
      "is_motor": true,
      "motor_id": 1,
      "accel_val": 2000,
      "base_duration_us": 265486
    },
    {
      "id": "M_244",
      "pitch": 76,
      "t_note_us": 32654790,
      "t_trigger_us": 32518827,
      "is_ai": false,
      "track_id": 0,
      "velocity": 0,
      "is_motor": true,
      "motor_id": 0,
      "accel_val": 2000,
      "base_duration_us": 265486
    },
    {
      "id": "M_245",
      "pitch": 57,
      "t_note_us": 32654790,
      "t_trigger_us": 32518827,
      "is_ai": false,
      "track_id": 0,
      "velocity": 0,
      "is_motor": true,
      "motor_id": 0,
      "accel_val": 2000,
      "base_duration_us": 530972
    },
    {
      "id": "M_246",
      "pitch": 62,
      "t_note_us": 32920276,
      "t_trigger_us": 32784313,
      "is_ai": false,
      "track_id": 0,
      "velocity": 0,
      "is_motor": true,
      "motor_id": 1,
      "accel_val": 2000,
      "base_duration_us": 530972
    },
    {
      "id": "M_247",
      "pitch": 74,
      "t_note_us": 32920276,
      "t_trigger_us": 32784313,
      "is_ai": false,
      "track_id": 0,
      "velocity": 0,
      "is_motor": true,
      "motor_id": 0,
      "accel_val": 2000,
      "base_duration_us": 530972
    },
    {
      "id": "M_250",
      "pitch": 62,
      "t_note_us": 33451248,
      "t_trigger_us": 33315285,
      "is_ai": false,
      "track_id": 0,
      "velocity": 0,
      "is_motor": true,
      "motor_id": 1,
      "accel_val": 2000,
      "base_duration_us": 265486
    },
    {
      "id": "M_251",
      "pitch": 69,
      "t_note_us": 33451248,
      "t_trigger_us": 33315285,
      "is_ai": false,
      "track_id": 0,
      "velocity": 0,
      "is_motor": true,
      "motor_id": 2,
      "accel_val": 2000,
      "base_duration_us": 265486
    },
    {
      "id": "M_252",
      "pitch": 69,
      "t_note_us": 33451248,
      "t_trigger_us": 33315285,
      "is_ai": false,
      "track_id": 0,
      "velocity": 0,
      "is_motor": true,
      "motor_id": 0,
      "accel_val": 2000,
      "base_duration_us": 265486
    },
    {
      "id": "M_264",
      "pitch": 78,
      "t_note_us": 33451248,
      "t_trigger_us": 33315285,
      "is_ai": false,
      "track_id": 0,
      "velocity": 0,
      "is_motor": true,
      "motor_id": 3,
      "accel_val": 2000,
      "base_duration_us": 1592917
    },
    {
      "id": "M_253",
      "pitch": 69,
      "t_note_us": 33716734,
      "t_trigger_us": 33580771,
      "is_ai": false,
      "track_id": 0,
      "velocity": 0,
      "is_motor": true,
      "motor_id": 1,
      "accel_val": 2000,
      "base_duration_us": 265486
    },
    {
      "id": "M_254",
      "pitch": 69,
      "t_note_us": 33716734,
      "t_trigger_us": 33580771,
      "is_ai": false,
      "track_id": 0,
      "velocity": 0,
      "is_motor": true,
      "motor_id": 2,
      "accel_val": 2000,
      "base_duration_us": 265486
    },
    {
      "id": "M_255",
      "pitch": 62,
      "t_note_us": 33716734,
      "t_trigger_us": 33580771,
      "is_ai": false,
      "track_id": 0,
      "velocity": 0,
      "is_motor": true,
      "motor_id": 0,
      "accel_val": 2000,
      "base_duration_us": 265486
    },
    {
      "id": "M_256",
      "pitch": 69,
      "t_note_us": 33982220,
      "t_trigger_us": 33846257,
      "is_ai": false,
      "track_id": 0,
      "velocity": 0,
      "is_motor": true,
      "motor_id": 1,
      "accel_val": 2000,
      "base_duration_us": 265486
    },
    {
      "id": "M_257",
      "pitch": 69,
      "t_note_us": 33982220,
      "t_trigger_us": 33846257,
      "is_ai": false,
      "track_id": 0,
      "velocity": 0,
      "is_motor": true,
      "motor_id": 2,
      "accel_val": 2000,
      "base_duration_us": 265486
    },
    {
      "id": "M_258",
      "pitch": 71,
      "t_note_us": 34247706,
      "t_trigger_us": 34111743,
      "is_ai": false,
      "track_id": 0,
      "velocity": 0,
      "is_motor": true,
      "motor_id": 1,
      "accel_val": 2000,
      "base_duration_us": 265486
    },
    {
      "id": "M_259",
      "pitch": 71,
      "t_note_us": 34247706,
      "t_trigger_us": 34111743,
      "is_ai": false,
      "track_id": 0,
      "velocity": 0,
      "is_motor": true,
      "motor_id": 2,
      "accel_val": 2000,
      "base_duration_us": 265486
    },
    {
      "id": "M_260",
      "pitch": 62,
      "t_note_us": 34247706,
      "t_trigger_us": 34111743,
      "is_ai": false,
      "track_id": 0,
      "velocity": 0,
      "is_motor": true,
      "motor_id": 0,
      "accel_val": 2000,
      "base_duration_us": 265486
    },
    {
      "id": "M_261",
      "pitch": 69,
      "t_note_us": 34513192,
      "t_trigger_us": 34377229,
      "is_ai": false,
      "track_id": 0,
      "velocity": 0,
      "is_motor": true,
      "motor_id": 1,
      "accel_val": 2000,
      "base_duration_us": 530973
    },
    {
      "id": "M_262",
      "pitch": 69,
      "t_note_us": 34513192,
      "t_trigger_us": 34377229,
      "is_ai": false,
      "track_id": 0,
      "velocity": 0,
      "is_motor": true,
      "motor_id": 2,
      "accel_val": 2000,
      "base_duration_us": 530973
    },
    {
      "id": "M_263",
      "pitch": 62,
      "t_note_us": 34513192,
      "t_trigger_us": 34377229,
      "is_ai": false,
      "track_id": 0,
      "velocity": 0,
      "is_motor": true,
      "motor_id": 0,
      "accel_val": 2000,
      "base_duration_us": 530973
    },
    {
      "id": "M_265",
      "pitch": 76,
      "t_note_us": 35044165,
      "t_trigger_us": 34908202,
      "is_ai": false,
      "track_id": 0,
      "velocity": 0,
      "is_motor": true,
      "motor_id": 2,
      "accel_val": 2000,
      "base_duration_us": 530973
    },
    {
      "id": "M_266",
      "pitch": 61,
      "t_note_us": 35044165,
      "t_trigger_us": 34908202,
      "is_ai": false,
      "track_id": 0,
      "velocity": 0,
      "is_motor": true,
      "motor_id": 1,
      "accel_val": 2000,
      "base_duration_us": 530973
    },
    {
      "id": "M_267",
      "pitch": 69,
      "t_note_us": 35044165,
      "t_trigger_us": 34908202,
      "is_ai": false,
      "track_id": 0,
      "velocity": 0,
      "is_motor": true,
      "motor_id": 0,
      "accel_val": 2000,
      "base_duration_us": 530973
    },
    {
      "id": "M_273",
      "pitch": 91,
      "t_note_us": 35575138,
      "t_trigger_us": 35439175,
      "is_ai": true,
      "track_id": 7,
      "velocity": 0,
      "is_motor": false,
      "motor_id": 0,
      "accel_val": 2000,
      "base_duration_us": 1327430
    },
    {
      "id": "M_268",
      "pitch": 60,
      "t_note_us": 35575138,
      "t_trigger_us": 35439175,
      "is_ai": false,
      "track_id": 0,
      "velocity": 0,
      "is_motor": true,
      "motor_id": 1,
      "accel_val": 2000,
      "base_duration_us": 265486
    },
    {
      "id": "M_274",
      "pitch": 67,
      "t_note_us": 35575138,
      "t_trigger_us": 35439175,
      "is_ai": false,
      "track_id": 0,
      "velocity": 0,
      "is_motor": true,
      "motor_id": 2,
      "accel_val": 2000,
      "base_duration_us": 1327430
    },
    {
      "id": "M_284",
      "pitch": 64,
      "t_note_us": 35575138,
      "t_trigger_us": 35439175,
      "is_ai": false,
      "track_id": 0,
      "velocity": 0,
      "is_motor": true,
      "motor_id": 0,
      "accel_val": 2000,
      "base_duration_us": 2123888
    },
    {
      "id": "M_269",
      "pitch": 67,
      "t_note_us": 35840624,
      "t_trigger_us": 35704661,
      "is_ai": false,
      "track_id": 0,
      "velocity": 0,
      "is_motor": true,
      "motor_id": 1,
      "accel_val": 2000,
      "base_duration_us": 265486
    },
    {
      "id": "M_270",
      "pitch": 60,
      "t_note_us": 36106110,
      "t_trigger_us": 35970147,
      "is_ai": false,
      "track_id": 0,
      "velocity": 0,
      "is_motor": true,
      "motor_id": 1,
      "accel_val": 2000,
      "base_duration_us": 265486
    },
    {
      "id": "M_271",
      "pitch": 67,
      "t_note_us": 36371596,
      "t_trigger_us": 36235633,
      "is_ai": false,
      "track_id": 0,
      "velocity": 0,
      "is_motor": true,
      "motor_id": 1,
      "accel_val": 2000,
      "base_duration_us": 265486
    },
    {
      "id": "M_272",
      "pitch": 60,
      "t_note_us": 36637082,
      "t_trigger_us": 36501119,
      "is_ai": false,
      "track_id": 0,
      "velocity": 0,
      "is_motor": true,
      "motor_id": 1,
      "accel_val": 2000,
      "base_duration_us": 265486
    },
    {
      "id": "M_276",
      "pitch": 93,
      "t_note_us": 36902568,
      "t_trigger_us": 36766605,
      "is_ai": true,
      "track_id": 8,
      "velocity": 0,
      "is_motor": false,
      "motor_id": 0,
      "accel_val": 2000,
      "base_duration_us": 265486
    },
    {
      "id": "M_275",
      "pitch": 67,
      "t_note_us": 36902568,
      "t_trigger_us": 36766605,
      "is_ai": false,
      "track_id": 0,
      "velocity": 0,
      "is_motor": true,
      "motor_id": 1,
      "accel_val": 2000,
      "base_duration_us": 265486
    },
    {
      "id": "M_277",
      "pitch": 69,
      "t_note_us": 36902568,
      "t_trigger_us": 36766605,
      "is_ai": false,
      "track_id": 0,
      "velocity": 0,
      "is_motor": true,
      "motor_id": 2,
      "accel_val": 2000,
      "base_duration_us": 265486
    },
    {
      "id": "M_278",
      "pitch": 95,
      "t_note_us": 37168054,
      "t_trigger_us": 37032091,
      "is_ai": true,
      "track_id": 9,
      "velocity": 0,
      "is_motor": false,
      "motor_id": 0,
      "accel_val": 2000,
      "base_duration_us": 265486
    },
    {
      "id": "M_279",
      "pitch": 71,
      "t_note_us": 37168054,
      "t_trigger_us": 37032091,
      "is_ai": false,
      "track_id": 0,
      "velocity": 0,
      "is_motor": true,
      "motor_id": 1,
      "accel_val": 2000,
      "base_duration_us": 265486
    },
    {
      "id": "M_280",
      "pitch": 60,
      "t_note_us": 37168054,
      "t_trigger_us": 37032091,
      "is_ai": false,
      "track_id": 0,
      "velocity": 0,
      "is_motor": true,
      "motor_id": 2,
      "accel_val": 2000,
      "base_duration_us": 265486
    },
    {
      "id": "M_282",
      "pitch": 91,
      "t_note_us": 37433540,
      "t_trigger_us": 37297577,
      "is_ai": true,
      "track_id": 7,
      "velocity": 0,
      "is_motor": false,
      "motor_id": 0,
      "accel_val": 2000,
      "base_duration_us": 265486
    },
    {
      "id": "M_281",
      "pitch": 67,
      "t_note_us": 37433540,
      "t_trigger_us": 37297577,
      "is_ai": false,
      "track_id": 0,
      "velocity": 0,
      "is_motor": true,
      "motor_id": 1,
      "accel_val": 2000,
      "base_duration_us": 265486
    },
    {
      "id": "M_283",
      "pitch": 67,
      "t_note_us": 37433540,
      "t_trigger_us": 37297577,
      "is_ai": false,
      "track_id": 0,
      "velocity": 0,
      "is_motor": true,
      "motor_id": 2,
      "accel_val": 2000,
      "base_duration_us": 265486
    },
    {
      "id": "M_285",
      "pitch": 93,
      "t_note_us": 37699026,
      "t_trigger_us": 37563063,
      "is_ai": true,
      "track_id": 8,
      "velocity": 0,
      "is_motor": false,
      "motor_id": 0,
      "accel_val": 2000,
      "base_duration_us": 265486
    },
    {
      "id": "M_286",
      "pitch": 93,
      "t_note_us": 37699026,
      "t_trigger_us": 37563063,
      "is_ai": true,
      "track_id": 8,
      "velocity": 0,
      "is_motor": false,
      "motor_id": 0,
      "accel_val": 2000,
      "base_duration_us": 265486
    },
    {
      "id": "M_287",
      "pitch": 69,
      "t_note_us": 37699026,
      "t_trigger_us": 37563063,
      "is_ai": false,
      "track_id": 0,
      "velocity": 0,
      "is_motor": true,
      "motor_id": 1,
      "accel_val": 2000,
      "base_duration_us": 265486
    },
    {
      "id": "M_288",
      "pitch": 62,
      "t_note_us": 37699026,
      "t_trigger_us": 37563063,
      "is_ai": false,
      "track_id": 0,
      "velocity": 0,
      "is_motor": true,
      "motor_id": 0,
      "accel_val": 2000,
      "base_duration_us": 265486
    },
    {
      "id": "M_311",
      "pitch": 66,
      "t_note_us": 37699026,
      "t_trigger_us": 37563063,
      "is_ai": false,
      "track_id": 0,
      "velocity": 0,
      "is_motor": true,
      "motor_id": 2,
      "accel_val": 2000,
      "base_duration_us": 2123888
    },
    {
      "id": "M_291",
      "pitch": 93,
      "t_note_us": 37964512,
      "t_trigger_us": 37828549,
      "is_ai": true,
      "track_id": 8,
      "velocity": 0,
      "is_motor": false,
      "motor_id": 0,
      "accel_val": 2000,
      "base_duration_us": 265486
    },
    {
      "id": "M_292",
      "pitch": 93,
      "t_note_us": 37964512,
      "t_trigger_us": 37828549,
      "is_ai": true,
      "track_id": 8,
      "velocity": 0,
      "is_motor": false,
      "motor_id": 0,
      "accel_val": 2000,
      "base_duration_us": 265486
    },
    {
      "id": "M_289",
      "pitch": 69,
      "t_note_us": 37964512,
      "t_trigger_us": 37828549,
      "is_ai": false,
      "track_id": 0,
      "velocity": 0,
      "is_motor": true,
      "motor_id": 1,
      "accel_val": 2000,
      "base_duration_us": 265486
    },
    {
      "id": "M_290",
      "pitch": 69,
      "t_note_us": 37964512,
      "t_trigger_us": 37828549,
      "is_ai": false,
      "track_id": 0,
      "velocity": 0,
      "is_motor": true,
      "motor_id": 0,
      "accel_val": 2000,
      "base_duration_us": 265486
    },
    {
      "id": "M_293",
      "pitch": 81,
      "t_note_us": 38229998,
      "t_trigger_us": 38094035,
      "is_ai": true,
      "track_id": 1,
      "velocity": 0,
      "is_motor": false,
      "motor_id": 0,
      "accel_val": 2000,
      "base_duration_us": 265486
    },
    {
      "id": "M_294",
      "pitch": 93,
      "t_note_us": 38229998,
      "t_trigger_us": 38094035,
      "is_ai": true,
      "track_id": 8,
      "velocity": 0,
      "is_motor": false,
      "motor_id": 0,
      "accel_val": 2000,
      "base_duration_us": 265486
    },
    {
      "id": "M_295",
      "pitch": 93,
      "t_note_us": 38229998,
      "t_trigger_us": 38094035,
      "is_ai": true,
      "track_id": 8,
      "velocity": 0,
      "is_motor": false,
      "motor_id": 0,
      "accel_val": 2000,
      "base_duration_us": 265486
    },
    {
      "id": "M_296",
      "pitch": 62,
      "t_note_us": 38229998,
      "t_trigger_us": 38094035,
      "is_ai": false,
      "track_id": 0,
      "velocity": 0,
      "is_motor": true,
      "motor_id": 1,
      "accel_val": 2000,
      "base_duration_us": 265486
    },
    {
      "id": "M_298",
      "pitch": 83,
      "t_note_us": 38495484,
      "t_trigger_us": 38359521,
      "is_ai": true,
      "track_id": 2,
      "velocity": 0,
      "is_motor": false,
      "motor_id": 0,
      "accel_val": 2000,
      "base_duration_us": 265486
    },
    {
      "id": "M_299",
      "pitch": 95,
      "t_note_us": 38495484,
      "t_trigger_us": 38359521,
      "is_ai": true,
      "track_id": 9,
      "velocity": 0,
      "is_motor": false,
      "motor_id": 0,
      "accel_val": 2000,
      "base_duration_us": 265486
    },
    {
      "id": "M_300",
      "pitch": 95,
      "t_note_us": 38495484,
      "t_trigger_us": 38359521,
      "is_ai": true,
      "track_id": 9,
      "velocity": 0,
      "is_motor": false,
      "motor_id": 0,
      "accel_val": 2000,
      "base_duration_us": 265486
    },
    {
      "id": "M_297",
      "pitch": 69,
      "t_note_us": 38495484,
      "t_trigger_us": 38359521,
      "is_ai": false,
      "track_id": 0,
      "velocity": 0,
      "is_motor": true,
      "motor_id": 1,
      "accel_val": 2000,
      "base_duration_us": 265486
    },
    {
      "id": "M_303",
      "pitch": 93,
      "t_note_us": 38760970,
      "t_trigger_us": 38625007,
      "is_ai": true,
      "track_id": 8,
      "velocity": 0,
      "is_motor": false,
      "motor_id": 0,
      "accel_val": 2000,
      "base_duration_us": 530972
    },
    {
      "id": "M_305",
      "pitch": 93,
      "t_note_us": 38760970,
      "t_trigger_us": 38625007,
      "is_ai": true,
      "track_id": 8,
      "velocity": 0,
      "is_motor": false,
      "motor_id": 0,
      "accel_val": 2000,
      "base_duration_us": 530972
    },
    {
      "id": "M_301",
      "pitch": 62,
      "t_note_us": 38760970,
      "t_trigger_us": 38625007,
      "is_ai": false,
      "track_id": 0,
      "velocity": 0,
      "is_motor": true,
      "motor_id": 1,
      "accel_val": 2000,
      "base_duration_us": 265486
    },
    {
      "id": "M_304",
      "pitch": 69,
      "t_note_us": 38760970,
      "t_trigger_us": 38625007,
      "is_ai": false,
      "track_id": 0,
      "velocity": 0,
      "is_motor": true,
      "motor_id": 0,
      "accel_val": 2000,
      "base_duration_us": 530972
    },
    {
      "id": "M_302",
      "pitch": 69,
      "t_note_us": 39026456,
      "t_trigger_us": 38890493,
      "is_ai": false,
      "track_id": 0,
      "velocity": 0,
      "is_motor": true,
      "motor_id": 1,
      "accel_val": 2000,
      "base_duration_us": 265486
    },
    {
      "id": "M_310",
      "pitch": 98,
      "t_note_us": 39291942,
      "t_trigger_us": 39155979,
      "is_ai": true,
      "track_id": 11,
      "velocity": 0,
      "is_motor": false,
      "motor_id": 0,
      "accel_val": 2000,
      "base_duration_us": 530972
    },
    {
      "id": "M_306",
      "pitch": 62,
      "t_note_us": 39291942,
      "t_trigger_us": 39155979,
      "is_ai": false,
      "track_id": 0,
      "velocity": 0,
      "is_motor": true,
      "motor_id": 1,
      "accel_val": 2000,
      "base_duration_us": 265486
    },
    {
      "id": "M_308",
      "pitch": 74,
      "t_note_us": 39291942,
      "t_trigger_us": 39155979,
      "is_ai": false,
      "track_id": 0,
      "velocity": 0,
      "is_motor": true,
      "motor_id": 0,
      "accel_val": 2000,
      "base_duration_us": 530972
    },
    {
      "id": "M_309",
      "pitch": 74,
      "t_note_us": 39291942,
      "t_trigger_us": 39155979,
      "is_ai": false,
      "track_id": 0,
      "velocity": 0,
      "is_motor": true,
      "motor_id": 3,
      "accel_val": 2000,
      "base_duration_us": 530972
    },
    {
      "id": "M_307",
      "pitch": 69,
      "t_note_us": 39557428,
      "t_trigger_us": 39421465,
      "is_ai": false,
      "track_id": 0,
      "velocity": 0,
      "is_motor": true,
      "motor_id": 1,
      "accel_val": 2000,
      "base_duration_us": 265486
    },
    {
      "id": "M_312",
      "pitch": 60,
      "t_note_us": 39822914,
      "t_trigger_us": 39686951,
      "is_ai": false,
      "track_id": 0,
      "velocity": 0,
      "is_motor": true,
      "motor_id": 1,
      "accel_val": 2000,
      "base_duration_us": 265486
    },
    {
      "id": "M_316",
      "pitch": 64,
      "t_note_us": 39822914,
      "t_trigger_us": 39686951,
      "is_ai": false,
      "track_id": 0,
      "velocity": 0,
      "is_motor": true,
      "motor_id": 0,
      "accel_val": 2000,
      "base_duration_us": 1061944
    },
    {
      "id": "M_317",
      "pitch": 67,
      "t_note_us": 39822914,
      "t_trigger_us": 39686951,
      "is_ai": false,
      "track_id": 0,
      "velocity": 0,
      "is_motor": true,
      "motor_id": 2,
      "accel_val": 2000,
      "base_duration_us": 1061944
    },
    {
      "id": "M_313",
      "pitch": 67,
      "t_note_us": 40088400,
      "t_trigger_us": 39952437,
      "is_ai": false,
      "track_id": 0,
      "velocity": 0,
      "is_motor": true,
      "motor_id": 1,
      "accel_val": 2000,
      "base_duration_us": 265486
    },
    {
      "id": "M_314",
      "pitch": 60,
      "t_note_us": 40353886,
      "t_trigger_us": 40217923,
      "is_ai": false,
      "track_id": 0,
      "velocity": 0,
      "is_motor": true,
      "motor_id": 1,
      "accel_val": 2000,
      "base_duration_us": 265486
    },
    {
      "id": "M_315",
      "pitch": 67,
      "t_note_us": 40619372,
      "t_trigger_us": 40483409,
      "is_ai": false,
      "track_id": 0,
      "velocity": 0,
      "is_motor": true,
      "motor_id": 1,
      "accel_val": 2000,
      "base_duration_us": 265486
    },
    {
      "id": "M_320",
      "pitch": 88,
      "t_note_us": 40884858,
      "t_trigger_us": 40748895,
      "is_ai": true,
      "track_id": 5,
      "velocity": 0,
      "is_motor": false,
      "motor_id": 0,
      "accel_val": 2000,
      "base_duration_us": 265486
    },
    {
      "id": "M_318",
      "pitch": 57,
      "t_note_us": 40884858,
      "t_trigger_us": 40748895,
      "is_ai": false,
      "track_id": 0,
      "velocity": 0,
      "is_motor": true,
      "motor_id": 0,
      "accel_val": 2000,
      "base_duration_us": 265486
    },
    {
      "id": "M_319",
      "pitch": 76,
      "t_note_us": 40884858,
      "t_trigger_us": 40748895,
      "is_ai": false,
      "track_id": 0,
      "velocity": 0,
      "is_motor": true,
      "motor_id": 2,
      "accel_val": 2000,
      "base_duration_us": 265486
    },
    {
      "id": "M_330",
      "pitch": 60,
      "t_note_us": 40884858,
      "t_trigger_us": 40748895,
      "is_ai": false,
      "track_id": 0,
      "velocity": 0,
      "is_motor": true,
      "motor_id": 1,
      "accel_val": 2000,
      "base_duration_us": 1061944
    },
    {
      "id": "M_331",
      "pitch": 69,
      "t_note_us": 40884858,
      "t_trigger_us": 40748895,
      "is_ai": false,
      "track_id": 0,
      "velocity": 0,
      "is_motor": true,
      "motor_id": 3,
      "accel_val": 2000,
      "base_duration_us": 1061944
    },
    {
      "id": "M_321",
      "pitch": 90,
      "t_note_us": 41150344,
      "t_trigger_us": 41014381,
      "is_ai": true,
      "track_id": 0,
      "velocity": 0,
      "is_motor": true,
      "motor_id": 2,
      "accel_val": 2000,
      "base_duration_us": 265486
    },
    {
      "id": "M_322",
      "pitch": 64,
      "t_note_us": 41150344,
      "t_trigger_us": 41014381,
      "is_ai": false,
      "track_id": 0,
      "velocity": 0,
      "is_motor": true,
      "motor_id": 0,
      "accel_val": 2000,
      "base_duration_us": 265486
    },
    {
      "id": "M_323",
      "pitch": 78,
      "t_note_us": 41150344,
      "t_trigger_us": 41014381,
      "is_ai": false,
      "track_id": 0,
      "velocity": 0,
      "is_motor": true,
      "motor_id": 0,
      "accel_val": 2000,
      "base_duration_us": 265486
    },
    {
      "id": "M_326",
      "pitch": 91,
      "t_note_us": 41415830,
      "t_trigger_us": 41279867,
      "is_ai": true,
      "track_id": 7,
      "velocity": 0,
      "is_motor": false,
      "motor_id": 0,
      "accel_val": 2000,
      "base_duration_us": 265486
    },
    {
      "id": "M_324",
      "pitch": 67,
      "t_note_us": 41415830,
      "t_trigger_us": 41279867,
      "is_ai": false,
      "track_id": 0,
      "velocity": 0,
      "is_motor": true,
      "motor_id": 2,
      "accel_val": 2000,
      "base_duration_us": 265486
    },
    {
      "id": "M_325",
      "pitch": 57,
      "t_note_us": 41415830,
      "t_trigger_us": 41279867,
      "is_ai": false,
      "track_id": 0,
      "velocity": 0,
      "is_motor": true,
      "motor_id": 0,
      "accel_val": 2000,
      "base_duration_us": 265486
    },
    {
      "id": "M_328",
      "pitch": 88,
      "t_note_us": 41681316,
      "t_trigger_us": 41545353,
      "is_ai": true,
      "track_id": 5,
      "velocity": 0,
      "is_motor": false,
      "motor_id": 0,
      "accel_val": 2000,
      "base_duration_us": 265486
    },
    {
      "id": "M_327",
      "pitch": 76,
      "t_note_us": 41681316,
      "t_trigger_us": 41545353,
      "is_ai": false,
      "track_id": 0,
      "velocity": 0,
      "is_motor": true,
      "motor_id": 2,
      "accel_val": 2000,
      "base_duration_us": 265486
    },
    {
      "id": "M_329",
      "pitch": 64,
      "t_note_us": 41681316,
      "t_trigger_us": 41545353,
      "is_ai": false,
      "track_id": 0,
      "velocity": 0,
      "is_motor": true,
      "motor_id": 0,
      "accel_val": 2000,
      "base_duration_us": 265486
    },
    {
      "id": "M_335",
      "pitch": 86,
      "t_note_us": 41946802,
      "t_trigger_us": 41810839,
      "is_ai": true,
      "track_id": 4,
      "velocity": 0,
      "is_motor": false,
      "motor_id": 0,
      "accel_val": 2000,
      "base_duration_us": 132743
    },
    {
      "id": "M_332",
      "pitch": 69,
      "t_note_us": 41946802,
      "t_trigger_us": 41810839,
      "is_ai": false,
      "track_id": 0,
      "velocity": 0,
      "is_motor": true,
      "motor_id": 1,
      "accel_val": 2000,
      "base_duration_us": 132743
    },
    {
      "id": "M_333",
      "pitch": 62,
      "t_note_us": 41946802,
      "t_trigger_us": 41810839,
      "is_ai": false,
      "track_id": 0,
      "velocity": 0,
      "is_motor": true,
      "motor_id": 0,
      "accel_val": 2000,
      "base_duration_us": 132743
    },
    {
      "id": "M_334",
      "pitch": 66,
      "t_note_us": 41946802,
      "t_trigger_us": 41810839,
      "is_ai": false,
      "track_id": 0,
      "velocity": 0,
      "is_motor": true,
      "motor_id": 2,
      "accel_val": 2000,
      "base_duration_us": 132743
    },
    {
      "id": "M_336",
      "pitch": 74,
      "t_note_us": 41946802,
      "t_trigger_us": 41810839,
      "is_ai": false,
      "track_id": 0,
      "velocity": 0,
      "is_motor": true,
      "motor_id": 3,
      "accel_val": 2000,
      "base_duration_us": 132743
    },
    {
      "id": "M_337",
      "pitch": 93,
      "t_note_us": 42212288,
      "t_trigger_us": 42076325,
      "is_ai": true,
      "track_id": 8,
      "velocity": 0,
      "is_motor": false,
      "motor_id": 0,
      "accel_val": 2000,
      "base_duration_us": 265486
    },
    {
      "id": "M_338",
      "pitch": 93,
      "t_note_us": 42212288,
      "t_trigger_us": 42076325,
      "is_ai": true,
      "track_id": 8,
      "velocity": 0,
      "is_motor": false,
      "motor_id": 0,
      "accel_val": 2000,
      "base_duration_us": 265486
    },
    {
      "id": "M_339",
      "pitch": 69,
      "t_note_us": 42212288,
      "t_trigger_us": 42076325,
      "is_ai": false,
      "track_id": 0,
      "velocity": 0,
      "is_motor": true,
      "motor_id": 1,
      "accel_val": 2000,
      "base_duration_us": 265486
    },
    {
      "id": "M_340",
      "pitch": 83,
      "t_note_us": 42477774,
      "t_trigger_us": 42341811,
      "is_ai": true,
      "track_id": 2,
      "velocity": 0,
      "is_motor": false,
      "motor_id": 0,
      "accel_val": 2000,
      "base_duration_us": 265486
    },
    {
      "id": "M_341",
      "pitch": 95,
      "t_note_us": 42477774,
      "t_trigger_us": 42341811,
      "is_ai": true,
      "track_id": 9,
      "velocity": 0,
      "is_motor": false,
      "motor_id": 0,
      "accel_val": 2000,
      "base_duration_us": 265486
    },
    {
      "id": "M_342",
      "pitch": 95,
      "t_note_us": 42477774,
      "t_trigger_us": 42341811,
      "is_ai": true,
      "track_id": 9,
      "velocity": 0,
      "is_motor": false,
      "motor_id": 0,
      "accel_val": 2000,
      "base_duration_us": 265486
    },
    {
      "id": "M_343",
      "pitch": 93,
      "t_note_us": 42743260,
      "t_trigger_us": 42607297,
      "is_ai": true,
      "track_id": 8,
      "velocity": 0,
      "is_motor": false,
      "motor_id": 0,
      "accel_val": 2000,
      "base_duration_us": 796459
    },
    {
      "id": "M_344",
      "pitch": 93,
      "t_note_us": 42743260,
      "t_trigger_us": 42607297,
      "is_ai": true,
      "track_id": 8,
      "velocity": 0,
      "is_motor": false,
      "motor_id": 0,
      "accel_val": 2000,
      "base_duration_us": 796459
    },
    {
      "id": "M_345",
      "pitch": 69,
      "t_note_us": 42743260,
      "t_trigger_us": 42607297,
      "is_ai": false,
      "track_id": 0,
      "velocity": 0,
      "is_motor": true,
      "motor_id": 1,
      "accel_val": 2000,
      "base_duration_us": 796459
    },
    {
      "id": "M_346",
      "pitch": 98,
      "t_note_us": 43539719,
      "t_trigger_us": 43403756,
      "is_ai": true,
      "track_id": 11,
      "velocity": 0,
      "is_motor": false,
      "motor_id": 0,
      "accel_val": 2000,
      "base_duration_us": 132743
    },
    {
      "id": "M_348",
      "pitch": 86,
      "t_note_us": 43539719,
      "t_trigger_us": 43403756,
      "is_ai": true,
      "track_id": 4,
      "velocity": 0,
      "is_motor": false,
      "motor_id": 0,
      "accel_val": 2000,
      "base_duration_us": 132743
    },
    {
      "id": "M_347",
      "pitch": 74,
      "t_note_us": 43539719,
      "t_trigger_us": 43403756,
      "is_ai": false,
      "track_id": 0,
      "velocity": 0,
      "is_motor": true,
      "motor_id": 1,
      "accel_val": 2000,
      "base_duration_us": 132743
    },
    {
      "id": "M_349",
      "pitch": 88,
      "t_note_us": 43672462,
      "t_trigger_us": 43536499,
      "is_ai": true,
      "track_id": 5,
      "velocity": 0,
      "is_motor": false,
      "motor_id": 0,
      "accel_val": 2000,
      "base_duration_us": 132743
    },
    {
      "id": "M_350",
      "pitch": 100,
      "t_note_us": 43672462,
      "t_trigger_us": 43536499,
      "is_ai": true,
      "track_id": 12,
      "velocity": 0,
      "is_motor": false,
      "motor_id": 0,
      "accel_val": 2000,
      "base_duration_us": 132743
    },
    {
      "id": "M_351",
      "pitch": 76,
      "t_note_us": 43672462,
      "t_trigger_us": 43536499,
      "is_ai": false,
      "track_id": 0,
      "velocity": 0,
      "is_motor": true,
      "motor_id": 2,
      "accel_val": 2000,
      "base_duration_us": 132743
    },
    {
      "id": "M_353",
      "pitch": 103,
      "t_note_us": 43805205,
      "t_trigger_us": 43669242,
      "is_ai": true,
      "track_id": 14,
      "velocity": 0,
      "is_motor": false,
      "motor_id": 0,
      "accel_val": 2000,
      "base_duration_us": 132743
    },
    {
      "id": "M_354",
      "pitch": 91,
      "t_note_us": 43805205,
      "t_trigger_us": 43669242,
      "is_ai": true,
      "track_id": 7,
      "velocity": 0,
      "is_motor": false,
      "motor_id": 0,
      "accel_val": 2000,
      "base_duration_us": 132743
    },
    {
      "id": "M_352",
      "pitch": 67,
      "t_note_us": 43805205,
      "t_trigger_us": 43669242,
      "is_ai": false,
      "track_id": 0,
      "velocity": 0,
      "is_motor": true,
      "motor_id": 1,
      "accel_val": 2000,
      "base_duration_us": 132743
    },
    {
      "id": "M_355",
      "pitch": 88,
      "t_note_us": 43937948,
      "t_trigger_us": 43801985,
      "is_ai": true,
      "track_id": 5,
      "velocity": 0,
      "is_motor": false,
      "motor_id": 0,
      "accel_val": 2000,
      "base_duration_us": 132743
    },
    {
      "id": "M_357",
      "pitch": 100,
      "t_note_us": 43937948,
      "t_trigger_us": 43801985,
      "is_ai": true,
      "track_id": 12,
      "velocity": 0,
      "is_motor": false,
      "motor_id": 0,
      "accel_val": 2000,
      "base_duration_us": 132743
    },
    {
      "id": "M_356",
      "pitch": 76,
      "t_note_us": 43937948,
      "t_trigger_us": 43801985,
      "is_ai": false,
      "track_id": 0,
      "velocity": 0,
      "is_motor": true,
      "motor_id": 2,
      "accel_val": 2000,
      "base_duration_us": 132743
    },
    {
      "id": "M_358",
      "pitch": 83,
      "t_note_us": 44070691,
      "t_trigger_us": 43934728,
      "is_ai": true,
      "track_id": 2,
      "velocity": 0,
      "is_motor": false,
      "motor_id": 0,
      "accel_val": 2000,
      "base_duration_us": 398229
    },
    {
      "id": "M_359",
      "pitch": 95,
      "t_note_us": 44070691,
      "t_trigger_us": 43934728,
      "is_ai": true,
      "track_id": 9,
      "velocity": 0,
      "is_motor": false,
      "motor_id": 0,
      "accel_val": 2000,
      "base_duration_us": 398229
    },
    {
      "id": "M_360",
      "pitch": 95,
      "t_note_us": 44070691,
      "t_trigger_us": 43934728,
      "is_ai": true,
      "track_id": 9,
      "velocity": 0,
      "is_motor": false,
      "motor_id": 0,
      "accel_val": 2000,
      "base_duration_us": 530972
    },
    {
      "id": "M_363",
      "pitch": 48,
      "t_note_us": 44070691,
      "t_trigger_us": 43934728,
      "is_ai": false,
      "track_id": 0,
      "velocity": 0,
      "is_motor": true,
      "motor_id": 0,
      "accel_val": 2000,
      "base_duration_us": 796458
    },
    {
      "id": "M_364",
      "pitch": 55,
      "t_note_us": 44070691,
      "t_trigger_us": 43934728,
      "is_ai": false,
      "track_id": 0,
      "velocity": 0,
      "is_motor": true,
      "motor_id": 1,
      "accel_val": 2000,
      "base_duration_us": 796458
    },
    {
      "id": "M_365",
      "pitch": 67,
      "t_note_us": 44070691,
      "t_trigger_us": 43934728,
      "is_ai": false,
      "track_id": 0,
      "velocity": 0,
      "is_motor": true,
      "motor_id": 2,
      "accel_val": 2000,
      "base_duration_us": 796458
    },
    {
      "id": "M_366",
      "pitch": 64,
      "t_note_us": 44070691,
      "t_trigger_us": 43934728,
      "is_ai": false,
      "track_id": 0,
      "velocity": 0,
      "is_motor": true,
      "motor_id": 3,
      "accel_val": 2000,
      "base_duration_us": 796458
    },
    {
      "id": "M_361",
      "pitch": 95,
      "t_note_us": 44468920,
      "t_trigger_us": 44332957,
      "is_ai": true,
      "track_id": 9,
      "velocity": 0,
      "is_motor": false,
      "motor_id": 0,
      "accel_val": 2000,
      "base_duration_us": 398229
    },
    {
      "id": "M_362",
      "pitch": 83,
      "t_note_us": 44468920,
      "t_trigger_us": 44332957,
      "is_ai": true,
      "track_id": 2,
      "velocity": 0,
      "is_motor": false,
      "motor_id": 0,
      "accel_val": 2000,
      "base_duration_us": 398229
    },
    {
      "id": "M_368",
      "pitch": 93,
      "t_note_us": 44867149,
      "t_trigger_us": 44731186,
      "is_ai": true,
      "track_id": 8,
      "velocity": 0,
      "is_motor": false,
      "motor_id": 0,
      "accel_val": 2000,
      "base_duration_us": 796459
    },
    {
      "id": "M_367",
      "pitch": 69,
      "t_note_us": 44867149,
      "t_trigger_us": 44731186,
      "is_ai": false,
      "track_id": 0,
      "velocity": 0,
      "is_motor": true,
      "motor_id": 1,
      "accel_val": 2000,
      "base_duration_us": 796459
    },
    {
      "id": "M_369",
      "pitch": 69,
      "t_note_us": 44867149,
      "t_trigger_us": 44731186,
      "is_ai": false,
      "track_id": 0,
      "velocity": 0,
      "is_motor": true,
      "motor_id": 2,
      "accel_val": 2000,
      "base_duration_us": 796459
    },
    {
      "id": "M_376",
      "pitch": 66,
      "t_note_us": 44867149,
      "t_trigger_us": 44731186,
      "is_ai": false,
      "track_id": 0,
      "velocity": 0,
      "is_motor": true,
      "motor_id": 0,
      "accel_val": 2000,
      "base_duration_us": 1327431
    },
    {
      "id": "M_377",
      "pitch": 50,
      "t_note_us": 44867149,
      "t_trigger_us": 44731186,
      "is_ai": false,
      "track_id": 0,
      "velocity": 0,
      "is_motor": true,
      "motor_id": 3,
      "accel_val": 2000,
      "base_duration_us": 1327431
    },
    {
      "id": "M_378",
      "pitch": 57,
      "t_note_us": 44867149,
      "t_trigger_us": 44731186,
      "is_ai": false,
      "track_id": 0,
      "velocity": 0,
      "is_motor": true,
      "motor_id": 0,
      "accel_val": 2000,
      "base_duration_us": 1327431
    },
    {
      "id": "M_374",
      "pitch": 98,
      "t_note_us": 45663608,
      "t_trigger_us": 45527645,
      "is_ai": true,
      "track_id": 11,
      "velocity": 0,
      "is_motor": false,
      "motor_id": 0,
      "accel_val": 2000,
      "base_duration_us": 530972
    },
    {
      "id": "M_370",
      "pitch": 74,
      "t_note_us": 45663608,
      "t_trigger_us": 45527645,
      "is_ai": false,
      "track_id": 0,
      "velocity": 0,
      "is_motor": true,
      "motor_id": 1,
      "accel_val": 2000,
      "base_duration_us": 132743
    },
    {
      "id": "M_375",
      "pitch": 62,
      "t_note_us": 45663608,
      "t_trigger_us": 45527645,
      "is_ai": false,
      "track_id": 0,
      "velocity": 0,
      "is_motor": true,
      "motor_id": 2,
      "accel_val": 2000,
      "base_duration_us": 530972
    },
    {
      "id": "M_371",
      "pitch": 76,
      "t_note_us": 45796351,
      "t_trigger_us": 45660388,
      "is_ai": false,
      "track_id": 0,
      "velocity": 0,
      "is_motor": true,
      "motor_id": 1,
      "accel_val": 2000,
      "base_duration_us": 132743
    },
    {
      "id": "M_372",
      "pitch": 67,
      "t_note_us": 45929094,
      "t_trigger_us": 45793131,
      "is_ai": false,
      "track_id": 0,
      "velocity": 0,
      "is_motor": true,
      "motor_id": 1,
      "accel_val": 2000,
      "base_duration_us": 132743
    },
    {
      "id": "M_373",
      "pitch": 76,
      "t_note_us": 46061837,
      "t_trigger_us": 45925874,
      "is_ai": false,
      "track_id": 0,
      "velocity": 0,
      "is_motor": true,
      "motor_id": 1,
      "accel_val": 2000,
      "base_duration_us": 132743
    },
    {
      "id": "M_379",
      "pitch": 93,
      "t_note_us": 46194580,
      "t_trigger_us": 46058617,
      "is_ai": true,
      "track_id": 8,
      "velocity": 0,
      "is_motor": false,
      "motor_id": 0,
      "accel_val": 2000,
      "base_duration_us": 398229
    },
    {
      "id": "M_380",
      "pitch": 69,
      "t_note_us": 46194580,
      "t_trigger_us": 46058617,
      "is_ai": false,
      "track_id": 0,
      "velocity": 0,
      "is_motor": true,
      "motor_id": 1,
      "accel_val": 2000,
      "base_duration_us": 398229
    },
    {
      "id": "M_383",
      "pitch": 50,
      "t_note_us": 46194580,
      "t_trigger_us": 46058617,
      "is_ai": false,
      "track_id": 0,
      "velocity": 0,
      "is_motor": true,
      "motor_id": 0,
      "accel_val": 2000,
      "base_duration_us": 796458
    },
    {
      "id": "M_384",
      "pitch": 69,
      "t_note_us": 46194580,
      "t_trigger_us": 46058617,
      "is_ai": false,
      "track_id": 0,
      "velocity": 0,
      "is_motor": true,
      "motor_id": 2,
      "accel_val": 2000,
      "base_duration_us": 796458
    },
    {
      "id": "M_385",
      "pitch": 66,
      "t_note_us": 46194580,
      "t_trigger_us": 46058617,
      "is_ai": false,
      "track_id": 0,
      "velocity": 0,
      "is_motor": true,
      "motor_id": 3,
      "accel_val": 2000,
      "base_duration_us": 796458
    },
    {
      "id": "M_386",
      "pitch": 59,
      "t_note_us": 46194580,
      "t_trigger_us": 46058617,
      "is_ai": false,
      "track_id": 0,
      "velocity": 0,
      "is_motor": true,
      "motor_id": 0,
      "accel_val": 2000,
      "base_duration_us": 796458
    },
    {
      "id": "M_382",
      "pitch": 93,
      "t_note_us": 46592809,
      "t_trigger_us": 46456846,
      "is_ai": true,
      "track_id": 8,
      "velocity": 0,
      "is_motor": false,
      "motor_id": 0,
      "accel_val": 2000,
      "base_duration_us": 398229
    },
    {
      "id": "M_381",
      "pitch": 69,
      "t_note_us": 46592809,
      "t_trigger_us": 46456846,
      "is_ai": false,
      "track_id": 0,
      "velocity": 0,
      "is_motor": true,
      "motor_id": 1,
      "accel_val": 2000,
      "base_duration_us": 398229
    },
    {
      "id": "M_387",
      "pitch": 103,
      "t_note_us": 46991038,
      "t_trigger_us": 46855075,
      "is_ai": true,
      "track_id": 14,
      "velocity": 0,
      "is_motor": false,
      "motor_id": 0,
      "accel_val": 2000,
      "base_duration_us": 398229
    },
    {
      "id": "M_388",
      "pitch": 67,
      "t_note_us": 46991038,
      "t_trigger_us": 46855075,
      "is_ai": false,
      "track_id": 0,
      "velocity": 0,
      "is_motor": true,
      "motor_id": 1,
      "accel_val": 2000,
      "base_duration_us": 398229
    },
    {
      "id": "M_393",
      "pitch": 71,
      "t_note_us": 46991038,
      "t_trigger_us": 46855075,
      "is_ai": false,
      "track_id": 0,
      "velocity": 0,
      "is_motor": true,
      "motor_id": 2,
      "accel_val": 2000,
      "base_duration_us": 796458
    },
    {
      "id": "M_403",
      "pitch": 67,
      "t_note_us": 46991038,
      "t_trigger_us": 46855075,
      "is_ai": false,
      "track_id": 0,
      "velocity": 0,
      "is_motor": true,
      "motor_id": 0,
      "accel_val": 2000,
      "base_duration_us": 1327430
    },
    {
      "id": "M_404",
      "pitch": 59,
      "t_note_us": 46991038,
      "t_trigger_us": 46855075,
      "is_ai": false,
      "track_id": 0,
      "velocity": 0,
      "is_motor": true,
      "motor_id": 3,
      "accel_val": 2000,
      "base_duration_us": 1327430
    },
    {
      "id": "M_405",
      "pitch": 52,
      "t_note_us": 46991038,
      "t_trigger_us": 46855075,
      "is_ai": false,
      "track_id": 0,
      "velocity": 0,
      "is_motor": true,
      "motor_id": 0,
      "accel_val": 2000,
      "base_duration_us": 1327430
    },
    {
      "id": "M_390",
      "pitch": 102,
      "t_note_us": 47389267,
      "t_trigger_us": 47253304,
      "is_ai": true,
      "track_id": 0,
      "velocity": 0,
      "is_motor": true,
      "motor_id": 1,
      "accel_val": 2000,
      "base_duration_us": 132743
    },
    {
      "id": "M_389",
      "pitch": 78,
      "t_note_us": 47389267,
      "t_trigger_us": 47253304,
      "is_ai": false,
      "track_id": 0,
      "velocity": 0,
      "is_motor": true,
      "motor_id": 0,
      "accel_val": 2000,
      "base_duration_us": 132743
    },
    {
      "id": "M_392",
      "pitch": 100,
      "t_note_us": 47522010,
      "t_trigger_us": 47386047,
      "is_ai": true,
      "track_id": 12,
      "velocity": 0,
      "is_motor": false,
      "motor_id": 0,
      "accel_val": 2000,
      "base_duration_us": 265486
    },
    {
      "id": "M_391",
      "pitch": 76,
      "t_note_us": 47522010,
      "t_trigger_us": 47386047,
      "is_ai": false,
      "track_id": 0,
      "velocity": 0,
      "is_motor": true,
      "motor_id": 1,
      "accel_val": 2000,
      "base_duration_us": 265486
    },
    {
      "id": "M_394",
      "pitch": 98,
      "t_note_us": 47787496,
      "t_trigger_us": 47651533,
      "is_ai": true,
      "track_id": 11,
      "velocity": 0,
      "is_motor": false,
      "motor_id": 0,
      "accel_val": 2000,
      "base_duration_us": 132743
    },
    {
      "id": "M_395",
      "pitch": 74,
      "t_note_us": 47787496,
      "t_trigger_us": 47651533,
      "is_ai": false,
      "track_id": 0,
      "velocity": 0,
      "is_motor": true,
      "motor_id": 1,
      "accel_val": 2000,
      "base_duration_us": 132743
    },
    {
      "id": "M_396",
      "pitch": 96,
      "t_note_us": 47920239,
      "t_trigger_us": 47784276,
      "is_ai": true,
      "track_id": 10,
      "velocity": 0,
      "is_motor": false,
      "motor_id": 0,
      "accel_val": 2000,
      "base_duration_us": 132743
    },
    {
      "id": "M_397",
      "pitch": 72,
      "t_note_us": 47920239,
      "t_trigger_us": 47784276,
      "is_ai": false,
      "track_id": 0,
      "velocity": 0,
      "is_motor": true,
      "motor_id": 1,
      "accel_val": 2000,
      "base_duration_us": 132743
    },
    {
      "id": "M_398",
      "pitch": 76,
      "t_note_us": 47920239,
      "t_trigger_us": 47784276,
      "is_ai": false,
      "track_id": 0,
      "velocity": 0,
      "is_motor": true,
      "motor_id": 2,
      "accel_val": 2000,
      "base_duration_us": 132743
    },
    {
      "id": "M_401",
      "pitch": 95,
      "t_note_us": 48052982,
      "t_trigger_us": 47917019,
      "is_ai": true,
      "track_id": 9,
      "velocity": 0,
      "is_motor": false,
      "motor_id": 0,
      "accel_val": 2000,
      "base_duration_us": 265486
    },
    {
      "id": "M_399",
      "pitch": 67,
      "t_note_us": 48052982,
      "t_trigger_us": 47917019,
      "is_ai": false,
      "track_id": 0,
      "velocity": 0,
      "is_motor": true,
      "motor_id": 1,
      "accel_val": 2000,
      "base_duration_us": 132743
    },
    {
      "id": "M_402",
      "pitch": 71,
      "t_note_us": 48052982,
      "t_trigger_us": 47917019,
      "is_ai": false,
      "track_id": 0,
      "velocity": 0,
      "is_motor": true,
      "motor_id": 2,
      "accel_val": 2000,
      "base_duration_us": 265486
    },
    {
      "id": "M_400",
      "pitch": 76,
      "t_note_us": 48185725,
      "t_trigger_us": 48049762,
      "is_ai": false,
      "track_id": 0,
      "velocity": 0,
      "is_motor": true,
      "motor_id": 1,
      "accel_val": 2000,
      "base_duration_us": 132743
    },
    {
      "id": "M_406",
      "pitch": 67,
      "t_note_us": 48318468,
      "t_trigger_us": 48182505,
      "is_ai": false,
      "track_id": 0,
      "velocity": 0,
      "is_motor": true,
      "motor_id": 1,
      "accel_val": 2000,
      "base_duration_us": 530973
    },
    {
      "id": "M_408",
      "pitch": 69,
      "t_note_us": 48318468,
      "t_trigger_us": 48182505,
      "is_ai": false,
      "track_id": 0,
      "velocity": 0,
      "is_motor": true,
      "motor_id": 2,
      "accel_val": 2000,
      "base_duration_us": 796459
    },
    {
      "id": "M_409",
      "pitch": 52,
      "t_note_us": 48318468,
      "t_trigger_us": 48182505,
      "is_ai": false,
      "track_id": 0,
      "velocity": 0,
      "is_motor": true,
      "motor_id": 0,
      "accel_val": 2000,
      "base_duration_us": 796459
    },
    {
      "id": "M_410",
      "pitch": 60,
      "t_note_us": 48318468,
      "t_trigger_us": 48182505,
      "is_ai": false,
      "track_id": 0,
      "velocity": 0,
      "is_motor": true,
      "motor_id": 3,
      "accel_val": 2000,
      "base_duration_us": 796459
    },
    {
      "id": "M_411",
      "pitch": 67,
      "t_note_us": 48318468,
      "t_trigger_us": 48182505,
      "is_ai": false,
      "track_id": 0,
      "velocity": 0,
      "is_motor": true,
      "motor_id": 0,
      "accel_val": 2000,
      "base_duration_us": 796459
    },
    {
      "id": "M_407",
      "pitch": 69,
      "t_note_us": 48849441,
      "t_trigger_us": 48713478,
      "is_ai": false,
      "track_id": 0,
      "velocity": 0,
      "is_motor": true,
      "motor_id": 1,
      "accel_val": 2000,
      "base_duration_us": 265486
    },
    {
      "id": "M_412",
      "pitch": 78,
      "t_note_us": 49114927,
      "t_trigger_us": 48978964,
      "is_ai": false,
      "track_id": 0,
      "velocity": 0,
      "is_motor": true,
      "motor_id": 2,
      "accel_val": 2000,
      "base_duration_us": 398229
    },
    {
      "id": "M_414",
      "pitch": 69,
      "t_note_us": 49114927,
      "t_trigger_us": 48978964,
      "is_ai": false,
      "track_id": 0,
      "velocity": 0,
      "is_motor": true,
      "motor_id": 1,
      "accel_val": 2000,
      "base_duration_us": 796458
    },
    {
      "id": "M_418",
      "pitch": 54,
      "t_note_us": 49114927,
      "t_trigger_us": 48978964,
      "is_ai": false,
      "track_id": 0,
      "velocity": 0,
      "is_motor": true,
      "motor_id": 0,
      "accel_val": 2000,
      "base_duration_us": 1327430
    },
    {
      "id": "M_413",
      "pitch": 76,
      "t_note_us": 49513156,
      "t_trigger_us": 49377193,
      "is_ai": false,
      "track_id": 0,
      "velocity": 0,
      "is_motor": true,
      "motor_id": 2,
      "accel_val": 2000,
      "base_duration_us": 132743
    },
    {
      "id": "M_415",
      "pitch": 74,
      "t_note_us": 49645899,
      "t_trigger_us": 49509936,
      "is_ai": false,
      "track_id": 0,
      "velocity": 0,
      "is_motor": true,
      "motor_id": 2,
      "accel_val": 2000,
      "base_duration_us": 530972
    },
    {
      "id": "M_423",
      "pitch": 98,
      "t_note_us": 49911385,
      "t_trigger_us": 49775422,
      "is_ai": true,
      "track_id": 11,
      "velocity": 0,
      "is_motor": true,
      "motor_id": 3,
      "accel_val": 2000,
      "base_duration_us": 1061945
    },
    {
      "id": "M_417",
      "pitch": 62,
      "t_note_us": 49911385,
      "t_trigger_us": 49775422,
      "is_ai": false,
      "track_id": 0,
      "velocity": 0,
      "is_motor": true,
      "motor_id": 1,
      "accel_val": 2000,
      "base_duration_us": 530972
    },
    {
      "id": "M_416",
      "pitch": 74,
      "t_note_us": 50176871,
      "t_trigger_us": 50040908,
      "is_ai": false,
      "track_id": 0,
      "velocity": 0,
      "is_motor": true,
      "motor_id": 2,
      "accel_val": 2000,
      "base_duration_us": 265486
    },
    {
      "id": "M_419",
      "pitch": 71,
      "t_note_us": 50442357,
      "t_trigger_us": 50306394,
      "is_ai": false,
      "track_id": 0,
      "velocity": 0,
      "is_motor": true,
      "motor_id": 1,
      "accel_val": 2000,
      "base_duration_us": 530973
    },
    {
      "id": "M_420",
      "pitch": 62,
      "t_note_us": 50442357,
      "t_trigger_us": 50306394,
      "is_ai": false,
      "track_id": 0,
      "velocity": 0,
      "is_motor": true,
      "motor_id": 0,
      "accel_val": 2000,
      "base_duration_us": 530973
    },
    {
      "id": "M_421",
      "pitch": 69,
      "t_note_us": 50442357,
      "t_trigger_us": 50306394,
      "is_ai": false,
      "track_id": 0,
      "velocity": 0,
      "is_motor": true,
      "motor_id": 2,
      "accel_val": 2000,
      "base_duration_us": 530973
    },
    {
      "id": "M_422",
      "pitch": 54,
      "t_note_us": 50442357,
      "t_trigger_us": 50306394,
      "is_ai": false,
      "track_id": 0,
      "velocity": 0,
      "is_motor": true,
      "motor_id": 3,
      "accel_val": 2000,
      "base_duration_us": 530973
    },
    {
      "id": "M_430",
      "pitch": 67,
      "t_note_us": 50973330,
      "t_trigger_us": 50837367,
      "is_ai": false,
      "track_id": 0,
      "velocity": 0,
      "is_motor": true,
      "motor_id": 1,
      "accel_val": 2000,
      "base_duration_us": 1061945
    },
    {
      "id": "M_443",
      "pitch": 71,
      "t_note_us": 50973330,
      "t_trigger_us": 50837367,
      "is_ai": false,
      "track_id": 0,
      "velocity": 0,
      "is_motor": true,
      "motor_id": 2,
      "accel_val": 2000,
      "base_duration_us": 1592917
    },
    {
      "id": "M_444",
      "pitch": 55,
      "t_note_us": 50973330,
      "t_trigger_us": 50837367,
      "is_ai": false,
      "track_id": 0,
      "velocity": 0,
      "is_motor": true,
      "motor_id": 0,
      "accel_val": 2000,
      "base_duration_us": 1592917
    },
    {
      "id": "M_424",
      "pitch": 98,
      "t_note_us": 51769789,
      "t_trigger_us": 51633826,
      "is_ai": true,
      "track_id": 11,
      "velocity": 0,
      "is_motor": false,
      "motor_id": 0,
      "accel_val": 2000,
      "base_duration_us": 132743
    },
    {
      "id": "M_425",
      "pitch": 74,
      "t_note_us": 51769789,
      "t_trigger_us": 51633826,
      "is_ai": false,
      "track_id": 0,
      "velocity": 0,
      "is_motor": true,
      "motor_id": 3,
      "accel_val": 2000,
      "base_duration_us": 132743
    },
    {
      "id": "M_426",
      "pitch": 62,
      "t_note_us": 51769789,
      "t_trigger_us": 51633826,
      "is_ai": false,
      "track_id": 0,
      "velocity": 0,
      "is_motor": true,
      "motor_id": 0,
      "accel_val": 2000,
      "base_duration_us": 132743
    },
    {
      "id": "M_428",
      "pitch": 98,
      "t_note_us": 51902532,
      "t_trigger_us": 51766569,
      "is_ai": true,
      "track_id": 11,
      "velocity": 0,
      "is_motor": false,
      "motor_id": 0,
      "accel_val": 2000,
      "base_duration_us": 132743
    },
    {
      "id": "M_427",
      "pitch": 62,
      "t_note_us": 51902532,
      "t_trigger_us": 51766569,
      "is_ai": false,
      "track_id": 0,
      "velocity": 0,
      "is_motor": true,
      "motor_id": 3,
      "accel_val": 2000,
      "base_duration_us": 132743
    },
    {
      "id": "M_429",
      "pitch": 74,
      "t_note_us": 51902532,
      "t_trigger_us": 51766569,
      "is_ai": false,
      "track_id": 0,
      "velocity": 0,
      "is_motor": true,
      "motor_id": 0,
      "accel_val": 2000,
      "base_duration_us": 132743
    },
    {
      "id": "M_433",
      "pitch": 98,
      "t_note_us": 52035275,
      "t_trigger_us": 51899312,
      "is_ai": true,
      "track_id": 11,
      "velocity": 0,
      "is_motor": false,
      "motor_id": 0,
      "accel_val": 2000,
      "base_duration_us": 132743
    },
    {
      "id": "M_431",
      "pitch": 74,
      "t_note_us": 52035275,
      "t_trigger_us": 51899312,
      "is_ai": false,
      "track_id": 0,
      "velocity": 0,
      "is_motor": true,
      "motor_id": 1,
      "accel_val": 2000,
      "base_duration_us": 132743
    },
    {
      "id": "M_432",
      "pitch": 76,
      "t_note_us": 52035275,
      "t_trigger_us": 51899312,
      "is_ai": false,
      "track_id": 0,
      "velocity": 0,
      "is_motor": true,
      "motor_id": 3,
      "accel_val": 2000,
      "base_duration_us": 132743
    },
    {
      "id": "M_434",
      "pitch": 64,
      "t_note_us": 52035275,
      "t_trigger_us": 51899312,
      "is_ai": false,
      "track_id": 0,
      "velocity": 0,
      "is_motor": true,
      "motor_id": 0,
      "accel_val": 2000,
      "base_duration_us": 132743
    },
    {
      "id": "M_437",
      "pitch": 103,
      "t_note_us": 52168018,
      "t_trigger_us": 52032055,
      "is_ai": true,
      "track_id": 14,
      "velocity": 0,
      "is_motor": false,
      "motor_id": 0,
      "accel_val": 2000,
      "base_duration_us": 265486
    },
    {
      "id": "M_435",
      "pitch": 76,
      "t_note_us": 52168018,
      "t_trigger_us": 52032055,
      "is_ai": false,
      "track_id": 0,
      "velocity": 0,
      "is_motor": true,
      "motor_id": 1,
      "accel_val": 2000,
      "base_duration_us": 132743
    },
    {
      "id": "M_438",
      "pitch": 67,
      "t_note_us": 52168018,
      "t_trigger_us": 52032055,
      "is_ai": false,
      "track_id": 0,
      "velocity": 0,
      "is_motor": true,
      "motor_id": 3,
      "accel_val": 2000,
      "base_duration_us": 265486
    },
    {
      "id": "M_436",
      "pitch": 67,
      "t_note_us": 52300761,
      "t_trigger_us": 52164798,
      "is_ai": false,
      "track_id": 0,
      "velocity": 0,
      "is_motor": true,
      "motor_id": 1,
      "accel_val": 2000,
      "base_duration_us": 132743
    },
    {
      "id": "M_441",
      "pitch": 103,
      "t_note_us": 52433504,
      "t_trigger_us": 52297541,
      "is_ai": true,
      "track_id": 14,
      "velocity": 0,
      "is_motor": false,
      "motor_id": 0,
      "accel_val": 2000,
      "base_duration_us": 132743
    },
    {
      "id": "M_439",
      "pitch": 76,
      "t_note_us": 52433504,
      "t_trigger_us": 52297541,
      "is_ai": false,
      "track_id": 0,
      "velocity": 0,
      "is_motor": true,
      "motor_id": 1,
      "accel_val": 2000,
      "base_duration_us": 132743
    },
    {
      "id": "M_440",
      "pitch": 67,
      "t_note_us": 52433504,
      "t_trigger_us": 52297541,
      "is_ai": false,
      "track_id": 0,
      "velocity": 0,
      "is_motor": true,
      "motor_id": 3,
      "accel_val": 2000,
      "base_duration_us": 132743
    },
    {
      "id": "M_442",
      "pitch": 67,
      "t_note_us": 52433504,
      "t_trigger_us": 52297541,
      "is_ai": false,
      "track_id": 0,
      "velocity": 0,
      "is_motor": true,
      "motor_id": 0,
      "accel_val": 2000,
      "base_duration_us": 132743
    },
    {
      "id": "M_445",
      "pitch": 95,
      "t_note_us": 52566247,
      "t_trigger_us": 52430284,
      "is_ai": true,
      "track_id": 9,
      "velocity": 0,
      "is_motor": false,
      "motor_id": 0,
      "accel_val": 2000,
      "base_duration_us": 398229
    },
    {
      "id": "M_446",
      "pitch": 83,
      "t_note_us": 52566247,
      "t_trigger_us": 52430284,
      "is_ai": true,
      "track_id": 2,
      "velocity": 0,
      "is_motor": false,
      "motor_id": 0,
      "accel_val": 2000,
      "base_duration_us": 398229
    },
    {
      "id": "M_449",
      "pitch": 67,
      "t_note_us": 52566247,
      "t_trigger_us": 52430284,
      "is_ai": false,
      "track_id": 0,
      "velocity": 0,
      "is_motor": true,
      "motor_id": 1,
      "accel_val": 2000,
      "base_duration_us": 796458
    },
    {
      "id": "M_450",
      "pitch": 55,
      "t_note_us": 52566247,
      "t_trigger_us": 52430284,
      "is_ai": false,
      "track_id": 0,
      "velocity": 0,
      "is_motor": true,
      "motor_id": 0,
      "accel_val": 2000,
      "base_duration_us": 796458
    },
    {
      "id": "M_451",
      "pitch": 64,
      "t_note_us": 52566247,
      "t_trigger_us": 52430284,
      "is_ai": false,
      "track_id": 0,
      "velocity": 0,
      "is_motor": true,
      "motor_id": 2,
      "accel_val": 2000,
      "base_duration_us": 796458
    },
    {
      "id": "M_452",
      "pitch": 72,
      "t_note_us": 52566247,
      "t_trigger_us": 52430284,
      "is_ai": false,
      "track_id": 0,
      "velocity": 0,
      "is_motor": true,
      "motor_id": 3,
      "accel_val": 2000,
      "base_duration_us": 796458
    },
    {
      "id": "M_453",
      "pitch": 67,
      "t_note_us": 52566247,
      "t_trigger_us": 52430284,
      "is_ai": false,
      "track_id": 0,
      "velocity": 0,
      "is_motor": true,
      "motor_id": 0,
      "accel_val": 2000,
      "base_duration_us": 796458
    },
    {
      "id": "M_447",
      "pitch": 95,
      "t_note_us": 52964476,
      "t_trigger_us": 52828513,
      "is_ai": true,
      "track_id": 9,
      "velocity": 0,
      "is_motor": false,
      "motor_id": 0,
      "accel_val": 2000,
      "base_duration_us": 398229
    },
    {
      "id": "M_448",
      "pitch": 83,
      "t_note_us": 52964476,
      "t_trigger_us": 52828513,
      "is_ai": true,
      "track_id": 2,
      "velocity": 0,
      "is_motor": false,
      "motor_id": 0,
      "accel_val": 2000,
      "base_duration_us": 398229
    },
    {
      "id": "M_456",
      "pitch": 93,
      "t_note_us": 53362705,
      "t_trigger_us": 53226742,
      "is_ai": true,
      "track_id": 8,
      "velocity": 0,
      "is_motor": false,
      "motor_id": 0,
      "accel_val": 2000,
      "base_duration_us": 796459
    },
    {
      "id": "M_454",
      "pitch": 69,
      "t_note_us": 53362705,
      "t_trigger_us": 53226742,
      "is_ai": false,
      "track_id": 0,
      "velocity": 0,
      "is_motor": true,
      "motor_id": 1,
      "accel_val": 2000,
      "base_duration_us": 796459
    },
    {
      "id": "M_455",
      "pitch": 69,
      "t_note_us": 53362705,
      "t_trigger_us": 53226742,
      "is_ai": false,
      "track_id": 0,
      "velocity": 0,
      "is_motor": true,
      "motor_id": 2,
      "accel_val": 2000,
      "base_duration_us": 796459
    },
    {
      "id": "M_462",
      "pitch": 66,
      "t_note_us": 53362705,
      "t_trigger_us": 53226742,
      "is_ai": false,
      "track_id": 0,
      "velocity": 0,
      "is_motor": true,
      "motor_id": 0,
      "accel_val": 2000,
      "base_duration_us": 1327431
    },
    {
      "id": "M_463",
      "pitch": 57,
      "t_note_us": 53362705,
      "t_trigger_us": 53226742,
      "is_ai": false,
      "track_id": 0,
      "velocity": 0,
      "is_motor": true,
      "motor_id": 3,
      "accel_val": 2000,
      "base_duration_us": 1327431
    },
    {
      "id": "M_457",
      "pitch": 74,
      "t_note_us": 54159164,
      "t_trigger_us": 54023201,
      "is_ai": false,
      "track_id": 0,
      "velocity": 0,
      "is_motor": true,
      "motor_id": 1,
      "accel_val": 2000,
      "base_duration_us": 132743
    },
    {
      "id": "M_461",
      "pitch": 62,
      "t_note_us": 54159164,
      "t_trigger_us": 54023201,
      "is_ai": false,
      "track_id": 0,
      "velocity": 0,
      "is_motor": true,
      "motor_id": 2,
      "accel_val": 2000,
      "base_duration_us": 530972
    },
    {
      "id": "M_458",
      "pitch": 76,
      "t_note_us": 54291907,
      "t_trigger_us": 54155944,
      "is_ai": false,
      "track_id": 0,
      "velocity": 0,
      "is_motor": true,
      "motor_id": 1,
      "accel_val": 2000,
      "base_duration_us": 132743
    },
    {
      "id": "M_459",
      "pitch": 67,
      "t_note_us": 54424650,
      "t_trigger_us": 54288687,
      "is_ai": false,
      "track_id": 0,
      "velocity": 0,
      "is_motor": true,
      "motor_id": 1,
      "accel_val": 2000,
      "base_duration_us": 132743
    },
    {
      "id": "M_460",
      "pitch": 76,
      "t_note_us": 54557393,
      "t_trigger_us": 54421430,
      "is_ai": false,
      "track_id": 0,
      "velocity": 0,
      "is_motor": true,
      "motor_id": 1,
      "accel_val": 2000,
      "base_duration_us": 132743
    },
    {
      "id": "M_464",
      "pitch": 86,
      "t_note_us": 54690136,
      "t_trigger_us": 54554173,
      "is_ai": true,
      "track_id": 4,
      "velocity": 0,
      "is_motor": false,
      "motor_id": 0,
      "accel_val": 2000,
      "base_duration_us": 530973
    },
    {
      "id": "M_466",
      "pitch": 59,
      "t_note_us": 54690136,
      "t_trigger_us": 54554173,
      "is_ai": false,
      "track_id": 0,
      "velocity": 0,
      "is_motor": true,
      "motor_id": 0,
      "accel_val": 2000,
      "base_duration_us": 796459
    },
    {
      "id": "M_467",
      "pitch": 69,
      "t_note_us": 54690136,
      "t_trigger_us": 54554173,
      "is_ai": false,
      "track_id": 0,
      "velocity": 0,
      "is_motor": true,
      "motor_id": 1,
      "accel_val": 2000,
      "base_duration_us": 796459
    },
    {
      "id": "M_468",
      "pitch": 66,
      "t_note_us": 54690136,
      "t_trigger_us": 54554173,
      "is_ai": false,
      "track_id": 0,
      "velocity": 0,
      "is_motor": true,
      "motor_id": 2,
      "accel_val": 2000,
      "base_duration_us": 796459
    },
    {
      "id": "M_469",
      "pitch": 74,
      "t_note_us": 54690136,
      "t_trigger_us": 54554173,
      "is_ai": false,
      "track_id": 0,
      "velocity": 0,
      "is_motor": true,
      "motor_id": 3,
      "accel_val": 2000,
      "base_duration_us": 796459
    },
    {
      "id": "M_465",
      "pitch": 78,
      "t_note_us": 55221109,
      "t_trigger_us": 55085146,
      "is_ai": false,
      "track_id": 0,
      "velocity": 0,
      "is_motor": true,
      "motor_id": 0,
      "accel_val": 2000,
      "base_duration_us": 265486
    },
    {
      "id": "M_471",
      "pitch": 103,
      "t_note_us": 55486595,
      "t_trigger_us": 55350632,
      "is_ai": true,
      "track_id": 14,
      "velocity": 0,
      "is_motor": false,
      "motor_id": 0,
      "accel_val": 2000,
      "base_duration_us": 398229
    },
    {
      "id": "M_470",
      "pitch": 67,
      "t_note_us": 55486595,
      "t_trigger_us": 55350632,
      "is_ai": false,
      "track_id": 0,
      "velocity": 0,
      "is_motor": true,
      "motor_id": 1,
      "accel_val": 2000,
      "base_duration_us": 398229
    },
    {
      "id": "M_476",
      "pitch": 71,
      "t_note_us": 55486595,
      "t_trigger_us": 55350632,
      "is_ai": false,
      "track_id": 0,
      "velocity": 0,
      "is_motor": true,
      "motor_id": 2,
      "accel_val": 2000,
      "base_duration_us": 796458
    },
    {
      "id": "M_486",
      "pitch": 59,
      "t_note_us": 55486595,
      "t_trigger_us": 55350632,
      "is_ai": false,
      "track_id": 0,
      "velocity": 0,
      "is_motor": true,
      "motor_id": 0,
      "accel_val": 2000,
      "base_duration_us": 1327430
    },
    {
      "id": "M_487",
      "pitch": 67,
      "t_note_us": 55486595,
      "t_trigger_us": 55350632,
      "is_ai": false,
      "track_id": 0,
      "velocity": 0,
      "is_motor": true,
      "motor_id": 3,
      "accel_val": 2000,
      "base_duration_us": 1327430
    },
    {
      "id": "M_472",
      "pitch": 102,
      "t_note_us": 55884824,
      "t_trigger_us": 55748861,
      "is_ai": true,
      "track_id": 0,
      "velocity": 0,
      "is_motor": true,
      "motor_id": 1,
      "accel_val": 2000,
      "base_duration_us": 132743
    },
    {
      "id": "M_473",
      "pitch": 78,
      "t_note_us": 55884824,
      "t_trigger_us": 55748861,
      "is_ai": false,
      "track_id": 0,
      "velocity": 0,
      "is_motor": true,
      "motor_id": 0,
      "accel_val": 2000,
      "base_duration_us": 132743
    },
    {
      "id": "M_475",
      "pitch": 100,
      "t_note_us": 56017567,
      "t_trigger_us": 55881604,
      "is_ai": true,
      "track_id": 12,
      "velocity": 0,
      "is_motor": false,
      "motor_id": 0,
      "accel_val": 2000,
      "base_duration_us": 265486
    },
    {
      "id": "M_474",
      "pitch": 76,
      "t_note_us": 56017567,
      "t_trigger_us": 55881604,
      "is_ai": false,
      "track_id": 0,
      "velocity": 0,
      "is_motor": true,
      "motor_id": 1,
      "accel_val": 2000,
      "base_duration_us": 265486
    },
    {
      "id": "M_478",
      "pitch": 98,
      "t_note_us": 56283053,
      "t_trigger_us": 56147090,
      "is_ai": true,
      "track_id": 11,
      "velocity": 0,
      "is_motor": false,
      "motor_id": 0,
      "accel_val": 2000,
      "base_duration_us": 132743
    },
    {
      "id": "M_477",
      "pitch": 74,
      "t_note_us": 56283053,
      "t_trigger_us": 56147090,
      "is_ai": false,
      "track_id": 0,
      "velocity": 0,
      "is_motor": true,
      "motor_id": 1,
      "accel_val": 2000,
      "base_duration_us": 132743
    },
    {
      "id": "M_479",
      "pitch": 96,
      "t_note_us": 56415796,
      "t_trigger_us": 56279833,
      "is_ai": true,
      "track_id": 10,
      "velocity": 0,
      "is_motor": false,
      "motor_id": 0,
      "accel_val": 2000,
      "base_duration_us": 132743
    },
    {
      "id": "M_480",
      "pitch": 76,
      "t_note_us": 56415796,
      "t_trigger_us": 56279833,
      "is_ai": false,
      "track_id": 0,
      "velocity": 0,
      "is_motor": true,
      "motor_id": 2,
      "accel_val": 2000,
      "base_duration_us": 132743
    },
    {
      "id": "M_481",
      "pitch": 72,
      "t_note_us": 56415796,
      "t_trigger_us": 56279833,
      "is_ai": false,
      "track_id": 0,
      "velocity": 0,
      "is_motor": true,
      "motor_id": 1,
      "accel_val": 2000,
      "base_duration_us": 132743
    },
    {
      "id": "M_485",
      "pitch": 95,
      "t_note_us": 56548539,
      "t_trigger_us": 56412576,
      "is_ai": true,
      "track_id": 9,
      "velocity": 0,
      "is_motor": false,
      "motor_id": 0,
      "accel_val": 2000,
      "base_duration_us": 265486
    },
    {
      "id": "M_482",
      "pitch": 67,
      "t_note_us": 56548539,
      "t_trigger_us": 56412576,
      "is_ai": false,
      "track_id": 0,
      "velocity": 0,
      "is_motor": true,
      "motor_id": 1,
      "accel_val": 2000,
      "base_duration_us": 132743
    },
    {
      "id": "M_484",
      "pitch": 71,
      "t_note_us": 56548539,
      "t_trigger_us": 56412576,
      "is_ai": false,
      "track_id": 0,
      "velocity": 0,
      "is_motor": true,
      "motor_id": 2,
      "accel_val": 2000,
      "base_duration_us": 265486
    },
    {
      "id": "M_483",
      "pitch": 76,
      "t_note_us": 56681282,
      "t_trigger_us": 56545319,
      "is_ai": false,
      "track_id": 0,
      "velocity": 0,
      "is_motor": true,
      "motor_id": 1,
      "accel_val": 2000,
      "base_duration_us": 132743
    },
    {
      "id": "M_488",
      "pitch": 67,
      "t_note_us": 56814025,
      "t_trigger_us": 56678062,
      "is_ai": false,
      "track_id": 0,
      "velocity": 0,
      "is_motor": true,
      "motor_id": 1,
      "accel_val": 2000,
      "base_duration_us": 530973
    },
    {
      "id": "M_491",
      "pitch": 67,
      "t_note_us": 56814025,
      "t_trigger_us": 56678062,
      "is_ai": false,
      "track_id": 0,
      "velocity": 0,
      "is_motor": true,
      "motor_id": 2,
      "accel_val": 2000,
      "base_duration_us": 796459
    },
    {
      "id": "M_492",
      "pitch": 60,
      "t_note_us": 56814025,
      "t_trigger_us": 56678062,
      "is_ai": false,
      "track_id": 0,
      "velocity": 0,
      "is_motor": true,
      "motor_id": 0,
      "accel_val": 2000,
      "base_duration_us": 796459
    },
    {
      "id": "M_493",
      "pitch": 76,
      "t_note_us": 56814025,
      "t_trigger_us": 56678062,
      "is_ai": false,
      "track_id": 0,
      "velocity": 0,
      "is_motor": true,
      "motor_id": 3,
      "accel_val": 2000,
      "base_duration_us": 796459
    },
    {
      "id": "M_494",
      "pitch": 69,
      "t_note_us": 56814025,
      "t_trigger_us": 56678062,
      "is_ai": false,
      "track_id": 0,
      "velocity": 0,
      "is_motor": true,
      "motor_id": 0,
      "accel_val": 2000,
      "base_duration_us": 796459
    },
    {
      "id": "M_490",
      "pitch": 93,
      "t_note_us": 57344998,
      "t_trigger_us": 57209035,
      "is_ai": true,
      "track_id": 8,
      "velocity": 0,
      "is_motor": false,
      "motor_id": 0,
      "accel_val": 2000,
      "base_duration_us": 265486
    },
    {
      "id": "M_489",
      "pitch": 69,
      "t_note_us": 57344998,
      "t_trigger_us": 57209035,
      "is_ai": false,
      "track_id": 0,
      "velocity": 0,
      "is_motor": true,
      "motor_id": 1,
      "accel_val": 2000,
      "base_duration_us": 265486
    },
    {
      "id": "M_495",
      "pitch": 102,
      "t_note_us": 57610484,
      "t_trigger_us": 57474521,
      "is_ai": true,
      "track_id": 0,
      "velocity": 0,
      "is_motor": true,
      "motor_id": 3,
      "accel_val": 2000,
      "base_duration_us": 398229
    },
    {
      "id": "M_496",
      "pitch": 78,
      "t_note_us": 57610484,
      "t_trigger_us": 57474521,
      "is_ai": false,
      "track_id": 0,
      "velocity": 0,
      "is_motor": true,
      "motor_id": 2,
      "accel_val": 2000,
      "base_duration_us": 398229
    },
    {
      "id": "M_499",
      "pitch": 69,
      "t_note_us": 57610484,
      "t_trigger_us": 57474521,
      "is_ai": false,
      "track_id": 0,
      "velocity": 0,
      "is_motor": true,
      "motor_id": 1,
      "accel_val": 2000,
      "base_duration_us": 796458
    },
    {
      "id": "M_497",
      "pitch": 100,
      "t_note_us": 58008713,
      "t_trigger_us": 57872750,
      "is_ai": true,
      "track_id": 12,
      "velocity": 0,
      "is_motor": false,
      "motor_id": 0,
      "accel_val": 2000,
      "base_duration_us": 132743
    },
    {
      "id": "M_498",
      "pitch": 76,
      "t_note_us": 58008713,
      "t_trigger_us": 57872750,
      "is_ai": false,
      "track_id": 0,
      "velocity": 0,
      "is_motor": true,
      "motor_id": 2,
      "accel_val": 2000,
      "base_duration_us": 132743
    },
    {
      "id": "M_501",
      "pitch": 98,
      "t_note_us": 58141456,
      "t_trigger_us": 58005493,
      "is_ai": true,
      "track_id": 11,
      "velocity": 0,
      "is_motor": false,
      "motor_id": 0,
      "accel_val": 2000,
      "base_duration_us": 530972
    },
    {
      "id": "M_500",
      "pitch": 74,
      "t_note_us": 58141456,
      "t_trigger_us": 58005493,
      "is_ai": false,
      "track_id": 0,
      "velocity": 0,
      "is_motor": true,
      "motor_id": 0,
      "accel_val": 2000,
      "base_duration_us": 530972
    },
    {
      "id": "M_504",
      "pitch": 62,
      "t_note_us": 58406942,
      "t_trigger_us": 58270979,
      "is_ai": false,
      "track_id": 0,
      "velocity": 0,
      "is_motor": true,
      "motor_id": 1,
      "accel_val": 2000,
      "base_duration_us": 530972
    },
    {
      "id": "M_502",
      "pitch": 98,
      "t_note_us": 58672428,
      "t_trigger_us": 58536465,
      "is_ai": true,
      "track_id": 11,
      "velocity": 0,
      "is_motor": false,
      "motor_id": 0,
      "accel_val": 2000,
      "base_duration_us": 265486
    },
    {
      "id": "M_503",
      "pitch": 74,
      "t_note_us": 58672428,
      "t_trigger_us": 58536465,
      "is_ai": false,
      "track_id": 0,
      "velocity": 0,
      "is_motor": true,
      "motor_id": 0,
      "accel_val": 2000,
      "base_duration_us": 265486
    },
    {
      "id": "M_505",
      "pitch": 66,
      "t_note_us": 58937914,
      "t_trigger_us": 58801951,
      "is_ai": false,
      "track_id": 0,
      "velocity": 0,
      "is_motor": true,
      "motor_id": 1,
      "accel_val": 2000,
      "base_duration_us": 265486
    },
    {
      "id": "M_507",
      "pitch": 69,
      "t_note_us": 58937914,
      "t_trigger_us": 58801951,
      "is_ai": false,
      "track_id": 0,
      "velocity": 0,
      "is_motor": true,
      "motor_id": 2,
      "accel_val": 2000,
      "base_duration_us": 530972
    },
    {
      "id": "M_508",
      "pitch": 62,
      "t_note_us": 58937914,
      "t_trigger_us": 58801951,
      "is_ai": false,
      "track_id": 0,
      "velocity": 0,
      "is_motor": true,
      "motor_id": 0,
      "accel_val": 2000,
      "base_duration_us": 530972
    },
    {
      "id": "M_509",
      "pitch": 78,
      "t_note_us": 58937914,
      "t_trigger_us": 58801951,
      "is_ai": false,
      "track_id": 0,
      "velocity": 0,
      "is_motor": true,
      "motor_id": 3,
      "accel_val": 2000,
      "base_duration_us": 530972
    },
    {
      "id": "M_510",
      "pitch": 71,
      "t_note_us": 58937914,
      "t_trigger_us": 58801951,
      "is_ai": false,
      "track_id": 0,
      "velocity": 0,
      "is_motor": true,
      "motor_id": 0,
      "accel_val": 2000,
      "base_duration_us": 530972
    },
    {
      "id": "M_511",
      "pitch": 69,
      "t_note_us": 58937914,
      "t_trigger_us": 58801951,
      "is_ai": false,
      "track_id": 0,
      "velocity": 0,
      "is_motor": true,
      "motor_id": 0,
      "accel_val": 2000,
      "base_duration_us": 530972
    },
    {
      "id": "M_506",
      "pitch": 67,
      "t_note_us": 59203400,
      "t_trigger_us": 59067437,
      "is_ai": false,
      "track_id": 0,
      "velocity": 0,
      "is_motor": true,
      "motor_id": 1,
      "accel_val": 2000,
      "base_duration_us": 265486
    },
    {
      "id": "M_516",
      "pitch": 103,
      "t_note_us": 59468886,
      "t_trigger_us": 59332923,
      "is_ai": true,
      "track_id": 14,
      "velocity": 0,
      "is_motor": false,
      "motor_id": 0,
      "accel_val": 2000,
      "base_duration_us": 1061946
    },
    {
      "id": "M_512",
      "pitch": 67,
      "t_note_us": 59468886,
      "t_trigger_us": 59332923,
      "is_ai": false,
      "track_id": 0,
      "velocity": 0,
      "is_motor": true,
      "motor_id": 1,
      "accel_val": 2000,
      "base_duration_us": 530973
    },
    {
      "id": "M_513",
      "pitch": 67,
      "t_note_us": 59468886,
      "t_trigger_us": 59332923,
      "is_ai": false,
      "track_id": 0,
      "velocity": 0,
      "is_motor": true,
      "motor_id": 2,
      "accel_val": 2000,
      "base_duration_us": 1061946
    },
    {
      "id": "M_514",
      "pitch": 64,
      "t_note_us": 59468886,
      "t_trigger_us": 59332923,
      "is_ai": false,
      "track_id": 0,
      "velocity": 0,
      "is_motor": true,
      "motor_id": 0,
      "accel_val": 2000,
      "base_duration_us": 1061946
    },
    {
      "id": "M_515",
      "pitch": 71,
      "t_note_us": 59468886,
      "t_trigger_us": 59332923,
      "is_ai": false,
      "track_id": 0,
      "velocity": 0,
      "is_motor": true,
      "motor_id": 3,
      "accel_val": 2000,
      "base_duration_us": 1061946
    },
    {
      "id": "M_517",
      "pitch": 67,
      "t_note_us": 60530832,
      "t_trigger_us": 60394869,
      "is_ai": false,
      "track_id": 0,
      "velocity": 0,
      "is_motor": true,
      "motor_id": 1,
      "accel_val": 2000,
      "base_duration_us": 132743
    },
    {
      "id": "M_518",
      "pitch": 67,
      "t_note_us": 60663575,
      "t_trigger_us": 60527612,
      "is_ai": false,
      "track_id": 0,
      "velocity": 0,
      "is_motor": true,
      "motor_id": 1,
      "accel_val": 2000,
      "base_duration_us": 265486
    },
    {
      "id": "M_519",
      "pitch": 67,
      "t_note_us": 60929061,
      "t_trigger_us": 60793098,
      "is_ai": false,
      "track_id": 0,
      "velocity": 0,
      "is_motor": true,
      "motor_id": 1,
      "accel_val": 2000,
      "base_duration_us": 132743
    },
    {
      "id": "M_529",
      "pitch": 67,
      "t_note_us": 61061804,
      "t_trigger_us": 60925841,
      "is_ai": false,
      "track_id": 0,
      "velocity": 0,
      "is_motor": true,
      "motor_id": 1,
      "accel_val": 2000,
      "base_duration_us": 2123889
    },
    {
      "id": "M_530",
      "pitch": 60,
      "t_note_us": 61061804,
      "t_trigger_us": 60925841,
      "is_ai": false,
      "track_id": 0,
      "velocity": 0,
      "is_motor": true,
      "motor_id": 0,
      "accel_val": 2000,
      "base_duration_us": 2123889
    },
    {
      "id": "M_531",
      "pitch": 76,
      "t_note_us": 61061804,
      "t_trigger_us": 60925841,
      "is_ai": false,
      "track_id": 0,
      "velocity": 0,
      "is_motor": true,
      "motor_id": 2,
      "accel_val": 2000,
      "base_duration_us": 2123889
    },
    {
      "id": "M_520",
      "pitch": 76,
      "t_note_us": 61327290,
      "t_trigger_us": 61191327,
      "is_ai": false,
      "track_id": 0,
      "velocity": 0,
      "is_motor": true,
      "motor_id": 3,
      "accel_val": 2000,
      "base_duration_us": 265486
    },
    {
      "id": "M_521",
      "pitch": 48,
      "t_note_us": 61327290,
      "t_trigger_us": 61191327,
      "is_ai": false,
      "track_id": 0,
      "velocity": 0,
      "is_motor": true,
      "motor_id": 0,
      "accel_val": 2000,
      "base_duration_us": 265486
    },
    {
      "id": "M_522",
      "pitch": 48,
      "t_note_us": 61592776,
      "t_trigger_us": 61456813,
      "is_ai": false,
      "track_id": 0,
      "velocity": 0,
      "is_motor": true,
      "motor_id": 3,
      "accel_val": 2000,
      "base_duration_us": 265486
    },
    {
      "id": "M_523",
      "pitch": 67,
      "t_note_us": 61592776,
      "t_trigger_us": 61456813,
      "is_ai": false,
      "track_id": 0,
      "velocity": 0,
      "is_motor": true,
      "motor_id": 0,
      "accel_val": 2000,
      "base_duration_us": 265486
    },
    {
      "id": "M_524",
      "pitch": 76,
      "t_note_us": 61858262,
      "t_trigger_us": 61722299,
      "is_ai": false,
      "track_id": 0,
      "velocity": 0,
      "is_motor": true,
      "motor_id": 3,
      "accel_val": 2000,
      "base_duration_us": 265486
    },
    {
      "id": "M_525",
      "pitch": 67,
      "t_note_us": 62123748,
      "t_trigger_us": 61987785,
      "is_ai": false,
      "track_id": 0,
      "velocity": 0,
      "is_motor": true,
      "motor_id": 3,
      "accel_val": 2000,
      "base_duration_us": 265486
    },
    {
      "id": "M_526",
      "pitch": 48,
      "t_note_us": 62123748,
      "t_trigger_us": 61987785,
      "is_ai": false,
      "track_id": 0,
      "velocity": 0,
      "is_motor": true,
      "motor_id": 0,
      "accel_val": 2000,
      "base_duration_us": 265486
    },
    {
      "id": "M_527",
      "pitch": 48,
      "t_note_us": 62389234,
      "t_trigger_us": 62253271,
      "is_ai": false,
      "track_id": 0,
      "velocity": 0,
      "is_motor": true,
      "motor_id": 3,
      "accel_val": 2000,
      "base_duration_us": 530973
    },
    {
      "id": "M_528",
      "pitch": 69,
      "t_note_us": 62389234,
      "t_trigger_us": 62253271,
      "is_ai": false,
      "track_id": 0,
      "velocity": 0,
      "is_motor": true,
      "motor_id": 0,
      "accel_val": 2000,
      "base_duration_us": 530973
    },
    {
      "id": "M_538",
      "pitch": 69,
      "t_note_us": 63185693,
      "t_trigger_us": 63049730,
      "is_ai": false,
      "track_id": 0,
      "velocity": 0,
      "is_motor": true,
      "motor_id": 1,
      "accel_val": 2000,
      "base_duration_us": 1592916
    },
    {
      "id": "M_539",
      "pitch": 62,
      "t_note_us": 63185693,
      "t_trigger_us": 63049730,
      "is_ai": false,
      "track_id": 0,
      "velocity": 0,
      "is_motor": true,
      "motor_id": 0,
      "accel_val": 2000,
      "base_duration_us": 1592916
    },
    {
      "id": "M_540",
      "pitch": 78,
      "t_note_us": 63185693,
      "t_trigger_us": 63049730,
      "is_ai": false,
      "track_id": 0,
      "velocity": 0,
      "is_motor": true,
      "motor_id": 2,
      "accel_val": 2000,
      "base_duration_us": 1592916
    },
    {
      "id": "M_532",
      "pitch": 50,
      "t_note_us": 63451179,
      "t_trigger_us": 63315216,
      "is_ai": false,
      "track_id": 0,
      "velocity": 0,
      "is_motor": true,
      "motor_id": 3,
      "accel_val": 2000,
      "base_duration_us": 265486
    },
    {
      "id": "M_533",
      "pitch": 78,
      "t_note_us": 63451179,
      "t_trigger_us": 63315216,
      "is_ai": false,
      "track_id": 0,
      "velocity": 0,
      "is_motor": true,
      "motor_id": 0,
      "accel_val": 2000,
      "base_duration_us": 265486
    },
    {
      "id": "M_534",
      "pitch": 50,
      "t_note_us": 63716665,
      "t_trigger_us": 63580702,
      "is_ai": false,
      "track_id": 0,
      "velocity": 0,
      "is_motor": true,
      "motor_id": 3,
      "accel_val": 2000,
      "base_duration_us": 265486
    },
    {
      "id": "M_535",
      "pitch": 76,
      "t_note_us": 63716665,
      "t_trigger_us": 63580702,
      "is_ai": false,
      "track_id": 0,
      "velocity": 0,
      "is_motor": true,
      "motor_id": 0,
      "accel_val": 2000,
      "base_duration_us": 265486
    },
    {
      "id": "M_537",
      "pitch": 74,
      "t_note_us": 63982151,
      "t_trigger_us": 63846188,
      "is_ai": false,
      "track_id": 0,
      "velocity": 0,
      "is_motor": true,
      "motor_id": 3,
      "accel_val": 2000,
      "base_duration_us": 796458
    },
    {
      "id": "M_536",
      "pitch": 50,
      "t_note_us": 64247637,
      "t_trigger_us": 64111674,
      "is_ai": false,
      "track_id": 0,
      "velocity": 0,
      "is_motor": true,
      "motor_id": 0,
      "accel_val": 2000,
      "base_duration_us": 265486
    },
    {
      "id": "M_541",
      "pitch": 50,
      "t_note_us": 64513123,
      "t_trigger_us": 64377160,
      "is_ai": false,
      "track_id": 0,
      "velocity": 0,
      "is_motor": true,
      "motor_id": 0,
      "accel_val": 2000,
      "base_duration_us": 530972
    },
    {
      "id": "M_542",
      "pitch": 69,
      "t_note_us": 64778609,
      "t_trigger_us": 64642646,
      "is_ai": false,
      "track_id": 0,
      "velocity": 0,
      "is_motor": true,
      "motor_id": 1,
      "accel_val": 2000,
      "base_duration_us": 530972
    },
    {
      "id": "M_543",
      "pitch": 61,
      "t_note_us": 64778609,
      "t_trigger_us": 64642646,
      "is_ai": false,
      "track_id": 0,
      "velocity": 0,
      "is_motor": true,
      "motor_id": 0,
      "accel_val": 2000,
      "base_duration_us": 530972
    },
    {
      "id": "M_544",
      "pitch": 76,
      "t_note_us": 64778609,
      "t_trigger_us": 64642646,
      "is_ai": false,
      "track_id": 0,
      "velocity": 0,
      "is_motor": true,
      "motor_id": 2,
      "accel_val": 2000,
      "base_duration_us": 530972
    },
    {
      "id": "M_555",
      "pitch": 67,
      "t_note_us": 65309581,
      "t_trigger_us": 65173618,
      "is_ai": false,
      "track_id": 0,
      "velocity": 0,
      "is_motor": true,
      "motor_id": 1,
      "accel_val": 2000,
      "base_duration_us": 2123888
    },
    {
      "id": "M_556",
      "pitch": 60,
      "t_note_us": 65309581,
      "t_trigger_us": 65173618,
      "is_ai": false,
      "track_id": 0,
      "velocity": 0,
      "is_motor": true,
      "motor_id": 0,
      "accel_val": 2000,
      "base_duration_us": 2123888
    },
    {
      "id": "M_557",
      "pitch": 76,
      "t_note_us": 65309581,
      "t_trigger_us": 65173618,
      "is_ai": false,
      "track_id": 0,
      "velocity": 0,
      "is_motor": true,
      "motor_id": 2,
      "accel_val": 2000,
      "base_duration_us": 2123888
    },
    {
      "id": "M_545",
      "pitch": 76,
      "t_note_us": 65575067,
      "t_trigger_us": 65439104,
      "is_ai": false,
      "track_id": 0,
      "velocity": 0,
      "is_motor": true,
      "motor_id": 3,
      "accel_val": 2000,
      "base_duration_us": 265486
    },
    {
      "id": "M_546",
      "pitch": 48,
      "t_note_us": 65575067,
      "t_trigger_us": 65439104,
      "is_ai": false,
      "track_id": 0,
      "velocity": 0,
      "is_motor": true,
      "motor_id": 0,
      "accel_val": 2000,
      "base_duration_us": 265486
    },
    {
      "id": "M_547",
      "pitch": 76,
      "t_note_us": 65840553,
      "t_trigger_us": 65704590,
      "is_ai": false,
      "track_id": 0,
      "velocity": 0,
      "is_motor": true,
      "motor_id": 3,
      "accel_val": 2000,
      "base_duration_us": 265486
    },
    {
      "id": "M_548",
      "pitch": 48,
      "t_note_us": 65840553,
      "t_trigger_us": 65704590,
      "is_ai": false,
      "track_id": 0,
      "velocity": 0,
      "is_motor": true,
      "motor_id": 0,
      "accel_val": 2000,
      "base_duration_us": 265486
    },
    {
      "id": "M_549",
      "pitch": 78,
      "t_note_us": 66106039,
      "t_trigger_us": 65970076,
      "is_ai": false,
      "track_id": 0,
      "velocity": 0,
      "is_motor": true,
      "motor_id": 3,
      "accel_val": 2000,
      "base_duration_us": 265486
    },
    {
      "id": "M_550",
      "pitch": 48,
      "t_note_us": 66371525,
      "t_trigger_us": 66235562,
      "is_ai": false,
      "track_id": 0,
      "velocity": 0,
      "is_motor": true,
      "motor_id": 3,
      "accel_val": 2000,
      "base_duration_us": 265486
    },
    {
      "id": "M_551",
      "pitch": 67,
      "t_note_us": 66371525,
      "t_trigger_us": 66235562,
      "is_ai": false,
      "track_id": 0,
      "velocity": 0,
      "is_motor": true,
      "motor_id": 0,
      "accel_val": 2000,
      "base_duration_us": 265486
    },
    {
      "id": "M_552",
      "pitch": 76,
      "t_note_us": 66637011,
      "t_trigger_us": 66501048,
      "is_ai": false,
      "track_id": 0,
      "velocity": 0,
      "is_motor": true,
      "motor_id": 3,
      "accel_val": 2000,
      "base_duration_us": 265486
    },
    {
      "id": "M_553",
      "pitch": 48,
      "t_note_us": 66637011,
      "t_trigger_us": 66501048,
      "is_ai": false,
      "track_id": 0,
      "velocity": 0,
      "is_motor": true,
      "motor_id": 0,
      "accel_val": 2000,
      "base_duration_us": 530972
    },
    {
      "id": "M_554",
      "pitch": 74,
      "t_note_us": 66902497,
      "t_trigger_us": 66766534,
      "is_ai": false,
      "track_id": 0,
      "velocity": 0,
      "is_motor": true,
      "motor_id": 3,
      "accel_val": 2000,
      "base_duration_us": 530972
    },
    {
      "id": "M_569",
      "pitch": 90,
      "t_note_us": 67433469,
      "t_trigger_us": 67297506,
      "is_ai": true,
      "track_id": 0,
      "velocity": 0,
      "is_motor": true,
      "motor_id": 3,
      "accel_val": 2000,
      "base_duration_us": 2123888
    },
    {
      "id": "M_568",
      "pitch": 62,
      "t_note_us": 67433469,
      "t_trigger_us": 67297506,
      "is_ai": false,
      "track_id": 0,
      "velocity": 0,
      "is_motor": true,
      "motor_id": 1,
      "accel_val": 2000,
      "base_duration_us": 2123888
    },
    {
      "id": "M_570",
      "pitch": 69,
      "t_note_us": 67433469,
      "t_trigger_us": 67297506,
      "is_ai": false,
      "track_id": 0,
      "velocity": 0,
      "is_motor": true,
      "motor_id": 2,
      "accel_val": 2000,
      "base_duration_us": 2123888
    },
    {
      "id": "M_558",
      "pitch": 86,
      "t_note_us": 67698955,
      "t_trigger_us": 67562992,
      "is_ai": true,
      "track_id": 4,
      "velocity": 0,
      "is_motor": false,
      "motor_id": 0,
      "accel_val": 2000,
      "base_duration_us": 265486
    },
    {
      "id": "M_559",
      "pitch": 50,
      "t_note_us": 67698955,
      "t_trigger_us": 67562992,
      "is_ai": false,
      "track_id": 0,
      "velocity": 0,
      "is_motor": true,
      "motor_id": 0,
      "accel_val": 2000,
      "base_duration_us": 265486
    },
    {
      "id": "M_560",
      "pitch": 74,
      "t_note_us": 67964441,
      "t_trigger_us": 67828478,
      "is_ai": false,
      "track_id": 0,
      "velocity": 0,
      "is_motor": true,
      "motor_id": 0,
      "accel_val": 2000,
      "base_duration_us": 265486
    },
    {
      "id": "M_561",
      "pitch": 50,
      "t_note_us": 67964441,
      "t_trigger_us": 67828478,
      "is_ai": false,
      "track_id": 0,
      "velocity": 0,
      "is_motor": true,
      "motor_id": 0,
      "accel_val": 2000,
      "base_duration_us": 265486
    },
    {
      "id": "M_563",
      "pitch": 69,
      "t_note_us": 68229927,
      "t_trigger_us": 68093964,
      "is_ai": false,
      "track_id": 0,
      "velocity": 0,
      "is_motor": true,
      "motor_id": 0,
      "accel_val": 2000,
      "base_duration_us": 530972
    },
    {
      "id": "M_562",
      "pitch": 50,
      "t_note_us": 68495413,
      "t_trigger_us": 68359450,
      "is_ai": false,
      "track_id": 0,
      "velocity": 0,
      "is_motor": true,
      "motor_id": 0,
      "accel_val": 2000,
      "base_duration_us": 265486
    },
    {
      "id": "M_564",
      "pitch": 71,
      "t_note_us": 68760899,
      "t_trigger_us": 68624936,
      "is_ai": false,
      "track_id": 0,
      "velocity": 0,
      "is_motor": true,
      "motor_id": 0,
      "accel_val": 2000,
      "base_duration_us": 265486
    },
    {
      "id": "M_566",
      "pitch": 50,
      "t_note_us": 68760899,
      "t_trigger_us": 68624936,
      "is_ai": false,
      "track_id": 0,
      "velocity": 0,
      "is_motor": true,
      "motor_id": 0,
      "accel_val": 2000,
      "base_duration_us": 530972
    },
    {
      "id": "M_565",
      "pitch": 69,
      "t_note_us": 69026385,
      "t_trigger_us": 68890422,
      "is_ai": false,
      "track_id": 0,
      "velocity": 0,
      "is_motor": true,
      "motor_id": 0,
      "accel_val": 2000,
      "base_duration_us": 265486
    },
    {
      "id": "M_567",
      "pitch": 67,
      "t_note_us": 69291871,
      "t_trigger_us": 69155908,
      "is_ai": false,
      "track_id": 0,
      "velocity": 0,
      "is_motor": true,
      "motor_id": 0,
      "accel_val": 2000,
      "base_duration_us": 265486
    },
    {
      "id": "M_571",
      "pitch": 93,
      "t_note_us": 69557357,
      "t_trigger_us": 69421394,
      "is_ai": true,
      "track_id": 8,
      "velocity": 0,
      "is_motor": false,
      "motor_id": 0,
      "accel_val": 2000,
      "base_duration_us": 265486
    },
    {
      "id": "M_585",
      "pitch": 60,
      "t_note_us": 69557357,
      "t_trigger_us": 69421394,
      "is_ai": false,
      "track_id": 0,
      "velocity": 0,
      "is_motor": true,
      "motor_id": 1,
      "accel_val": 2000,
      "base_duration_us": 2123888
    },
    {
      "id": "M_586",
      "pitch": 67,
      "t_note_us": 69557357,
      "t_trigger_us": 69421394,
      "is_ai": false,
      "track_id": 0,
      "velocity": 0,
      "is_motor": true,
      "motor_id": 2,
      "accel_val": 2000,
      "base_duration_us": 2123888
    },
    {
      "id": "M_573",
      "pitch": 91,
      "t_note_us": 69822843,
      "t_trigger_us": 69686880,
      "is_ai": true,
      "track_id": 7,
      "velocity": 0,
      "is_motor": false,
      "motor_id": 0,
      "accel_val": 2000,
      "base_duration_us": 265486
    },
    {
      "id": "M_572",
      "pitch": 76,
      "t_note_us": 69822843,
      "t_trigger_us": 69686880,
      "is_ai": false,
      "track_id": 0,
      "velocity": 0,
      "is_motor": true,
      "motor_id": 3,
      "accel_val": 2000,
      "base_duration_us": 265486
    },
    {
      "id": "M_574",
      "pitch": 48,
      "t_note_us": 69822843,
      "t_trigger_us": 69686880,
      "is_ai": false,
      "track_id": 0,
      "velocity": 0,
      "is_motor": true,
      "motor_id": 0,
      "accel_val": 2000,
      "base_duration_us": 265486
    },
    {
      "id": "M_575",
      "pitch": 48,
      "t_note_us": 70088329,
      "t_trigger_us": 69952366,
      "is_ai": false,
      "track_id": 0,
      "velocity": 0,
      "is_motor": true,
      "motor_id": 0,
      "accel_val": 2000,
      "base_duration_us": 265486
    },
    {
      "id": "M_576",
      "pitch": 67,
      "t_note_us": 70088329,
      "t_trigger_us": 69952366,
      "is_ai": false,
      "track_id": 0,
      "velocity": 0,
      "is_motor": true,
      "motor_id": 3,
      "accel_val": 2000,
      "base_duration_us": 265486
    },
    {
      "id": "M_584",
      "pitch": 76,
      "t_note_us": 70088329,
      "t_trigger_us": 69952366,
      "is_ai": false,
      "track_id": 0,
      "velocity": 0,
      "is_motor": true,
      "motor_id": 0,
      "accel_val": 2000,
      "base_duration_us": 1592916
    },
    {
      "id": "M_577",
      "pitch": 76,
      "t_note_us": 70353815,
      "t_trigger_us": 70217852,
      "is_ai": false,
      "track_id": 0,
      "velocity": 0,
      "is_motor": true,
      "motor_id": 3,
      "accel_val": 2000,
      "base_duration_us": 265486
    },
    {
      "id": "M_578",
      "pitch": 67,
      "t_note_us": 70619301,
      "t_trigger_us": 70483338,
      "is_ai": false,
      "track_id": 0,
      "velocity": 0,
      "is_motor": true,
      "motor_id": 0,
      "accel_val": 2000,
      "base_duration_us": 265486
    },
    {
      "id": "M_579",
      "pitch": 48,
      "t_note_us": 70619301,
      "t_trigger_us": 70483338,
      "is_ai": false,
      "track_id": 0,
      "velocity": 0,
      "is_motor": true,
      "motor_id": 3,
      "accel_val": 2000,
      "base_duration_us": 265486
    },
    {
      "id": "M_580",
      "pitch": 76,
      "t_note_us": 70884787,
      "t_trigger_us": 70748824,
      "is_ai": false,
      "track_id": 0,
      "velocity": 0,
      "is_motor": true,
      "motor_id": 3,
      "accel_val": 2000,
      "base_duration_us": 265486
    },
    {
      "id": "M_582",
      "pitch": 48,
      "t_note_us": 70884787,
      "t_trigger_us": 70748824,
      "is_ai": false,
      "track_id": 0,
      "velocity": 0,
      "is_motor": true,
      "motor_id": 0,
      "accel_val": 2000,
      "base_duration_us": 530972
    },
    {
      "id": "M_581",
      "pitch": 67,
      "t_note_us": 71150273,
      "t_trigger_us": 71014310,
      "is_ai": false,
      "track_id": 0,
      "velocity": 0,
      "is_motor": true,
      "motor_id": 3,
      "accel_val": 2000,
      "base_duration_us": 265486
    },
    {
      "id": "M_583",
      "pitch": 69,
      "t_note_us": 71415759,
      "t_trigger_us": 71279796,
      "is_ai": false,
      "track_id": 0,
      "velocity": 0,
      "is_motor": true,
      "motor_id": 0,
      "accel_val": 2000,
      "base_duration_us": 265486
    },
    {
      "id": "M_593",
      "pitch": 78,
      "t_note_us": 71681245,
      "t_trigger_us": 71545282,
      "is_ai": false,
      "track_id": 0,
      "velocity": 0,
      "is_motor": true,
      "motor_id": 2,
      "accel_val": 2000,
      "base_duration_us": 1592916
    },
    {
      "id": "M_594",
      "pitch": 69,
      "t_note_us": 71681245,
      "t_trigger_us": 71545282,
      "is_ai": false,
      "track_id": 0,
      "velocity": 0,
      "is_motor": true,
      "motor_id": 1,
      "accel_val": 2000,
      "base_duration_us": 1592916
    },
    {
      "id": "M_595",
      "pitch": 62,
      "t_note_us": 71681245,
      "t_trigger_us": 71545282,
      "is_ai": false,
      "track_id": 0,
      "velocity": 0,
      "is_motor": true,
      "motor_id": 0,
      "accel_val": 2000,
      "base_duration_us": 1592916
    },
    {
      "id": "M_587",
      "pitch": 78,
      "t_note_us": 71946731,
      "t_trigger_us": 71810768,
      "is_ai": false,
      "track_id": 0,
      "velocity": 0,
      "is_motor": true,
      "motor_id": 3,
      "accel_val": 2000,
      "base_duration_us": 265486
    },
    {
      "id": "M_588",
      "pitch": 50,
      "t_note_us": 71946731,
      "t_trigger_us": 71810768,
      "is_ai": false,
      "track_id": 0,
      "velocity": 0,
      "is_motor": true,
      "motor_id": 0,
      "accel_val": 2000,
      "base_duration_us": 265486
    },
    {
      "id": "M_589",
      "pitch": 76,
      "t_note_us": 72212217,
      "t_trigger_us": 72076254,
      "is_ai": false,
      "track_id": 0,
      "velocity": 0,
      "is_motor": true,
      "motor_id": 3,
      "accel_val": 2000,
      "base_duration_us": 265486
    },
    {
      "id": "M_590",
      "pitch": 50,
      "t_note_us": 72212217,
      "t_trigger_us": 72076254,
      "is_ai": false,
      "track_id": 0,
      "velocity": 0,
      "is_motor": true,
      "motor_id": 0,
      "accel_val": 2000,
      "base_duration_us": 265486
    },
    {
      "id": "M_592",
      "pitch": 74,
      "t_note_us": 72477703,
      "t_trigger_us": 72341740,
      "is_ai": false,
      "track_id": 0,
      "velocity": 0,
      "is_motor": true,
      "motor_id": 3,
      "accel_val": 2000,
      "base_duration_us": 796458
    },
    {
      "id": "M_591",
      "pitch": 50,
      "t_note_us": 72743189,
      "t_trigger_us": 72607226,
      "is_ai": false,
      "track_id": 0,
      "velocity": 0,
      "is_motor": true,
      "motor_id": 0,
      "accel_val": 2000,
      "base_duration_us": 265486
    },
    {
      "id": "M_596",
      "pitch": 50,
      "t_note_us": 73008675,
      "t_trigger_us": 72872712,
      "is_ai": false,
      "track_id": 0,
      "velocity": 0,
      "is_motor": true,
      "motor_id": 0,
      "accel_val": 2000,
      "base_duration_us": 530972
    },
    {
      "id": "M_597",
      "pitch": 69,
      "t_note_us": 73274161,
      "t_trigger_us": 73138198,
      "is_ai": false,
      "track_id": 0,
      "velocity": 0,
      "is_motor": true,
      "motor_id": 1,
      "accel_val": 2000,
      "base_duration_us": 530972
    },
    {
      "id": "M_598",
      "pitch": 76,
      "t_note_us": 73274161,
      "t_trigger_us": 73138198,
      "is_ai": false,
      "track_id": 0,
      "velocity": 0,
      "is_motor": true,
      "motor_id": 2,
      "accel_val": 2000,
      "base_duration_us": 530972
    },
    {
      "id": "M_599",
      "pitch": 61,
      "t_note_us": 73274161,
      "t_trigger_us": 73138198,
      "is_ai": false,
      "track_id": 0,
      "velocity": 0,
      "is_motor": true,
      "motor_id": 0,
      "accel_val": 2000,
      "base_duration_us": 530972
    },
    {
      "id": "M_605",
      "pitch": 88,
      "t_note_us": 73805133,
      "t_trigger_us": 73669170,
      "is_ai": true,
      "track_id": 5,
      "velocity": 0,
      "is_motor": false,
      "motor_id": 0,
      "accel_val": 2000,
      "base_duration_us": 1061944
    },
    {
      "id": "M_606",
      "pitch": 67,
      "t_note_us": 73805133,
      "t_trigger_us": 73669170,
      "is_ai": false,
      "track_id": 0,
      "velocity": 0,
      "is_motor": true,
      "motor_id": 1,
      "accel_val": 2000,
      "base_duration_us": 1061944
    },
    {
      "id": "M_607",
      "pitch": 60,
      "t_note_us": 73805133,
      "t_trigger_us": 73669170,
      "is_ai": false,
      "track_id": 0,
      "velocity": 0,
      "is_motor": true,
      "motor_id": 0,
      "accel_val": 2000,
      "base_duration_us": 1061944
    },
    {
      "id": "M_600",
      "pitch": 76,
      "t_note_us": 74070619,
      "t_trigger_us": 73934656,
      "is_ai": false,
      "track_id": 0,
      "velocity": 0,
      "is_motor": true,
      "motor_id": 2,
      "accel_val": 2000,
      "base_duration_us": 265486
    },
    {
      "id": "M_601",
      "pitch": 48,
      "t_note_us": 74070619,
      "t_trigger_us": 73934656,
      "is_ai": false,
      "track_id": 0,
      "velocity": 0,
      "is_motor": true,
      "motor_id": 3,
      "accel_val": 2000,
      "base_duration_us": 265486
    },
    {
      "id": "M_602",
      "pitch": 48,
      "t_note_us": 74336105,
      "t_trigger_us": 74200142,
      "is_ai": false,
      "track_id": 0,
      "velocity": 0,
      "is_motor": true,
      "motor_id": 2,
      "accel_val": 2000,
      "base_duration_us": 265486
    },
    {
      "id": "M_603",
      "pitch": 76,
      "t_note_us": 74336105,
      "t_trigger_us": 74200142,
      "is_ai": false,
      "track_id": 0,
      "velocity": 0,
      "is_motor": true,
      "motor_id": 3,
      "accel_val": 2000,
      "base_duration_us": 265486
    },
    {
      "id": "M_604",
      "pitch": 78,
      "t_note_us": 74601591,
      "t_trigger_us": 74465628,
      "is_ai": false,
      "track_id": 0,
      "velocity": 0,
      "is_motor": true,
      "motor_id": 2,
      "accel_val": 2000,
      "base_duration_us": 265486
    },
    {
      "id": "M_608",
      "pitch": 67,
      "t_note_us": 74867077,
      "t_trigger_us": 74731114,
      "is_ai": false,
      "track_id": 0,
      "velocity": 0,
      "is_motor": true,
      "motor_id": 1,
      "accel_val": 2000,
      "base_duration_us": 265486
    },
    {
      "id": "M_609",
      "pitch": 45,
      "t_note_us": 74867077,
      "t_trigger_us": 74731114,
      "is_ai": false,
      "track_id": 0,
      "velocity": 0,
      "is_motor": true,
      "motor_id": 0,
      "accel_val": 2000,
      "base_duration_us": 265486
    },
    {
      "id": "M_613",
      "pitch": 76,
      "t_note_us": 74867077,
      "t_trigger_us": 74731114,
      "is_ai": false,
      "track_id": 0,
      "velocity": 0,
      "is_motor": true,
      "motor_id": 2,
      "accel_val": 2000,
      "base_duration_us": 1061944
    },
    {
      "id": "M_614",
      "pitch": 69,
      "t_note_us": 74867077,
      "t_trigger_us": 74731114,
      "is_ai": false,
      "track_id": 0,
      "velocity": 0,
      "is_motor": true,
      "motor_id": 3,
      "accel_val": 2000,
      "base_duration_us": 1061944
    },
    {
      "id": "M_615",
      "pitch": 60,
      "t_note_us": 74867077,
      "t_trigger_us": 74731114,
      "is_ai": false,
      "track_id": 0,
      "velocity": 0,
      "is_motor": true,
      "motor_id": 0,
      "accel_val": 2000,
      "base_duration_us": 1061944
    },
    {
      "id": "M_610",
      "pitch": 76,
      "t_note_us": 75132563,
      "t_trigger_us": 74996600,
      "is_ai": false,
      "track_id": 0,
      "velocity": 0,
      "is_motor": true,
      "motor_id": 1,
      "accel_val": 2000,
      "base_duration_us": 265486
    },
    {
      "id": "M_611",
      "pitch": 45,
      "t_note_us": 75132563,
      "t_trigger_us": 74996600,
      "is_ai": false,
      "track_id": 0,
      "velocity": 0,
      "is_motor": true,
      "motor_id": 0,
      "accel_val": 2000,
      "base_duration_us": 530972
    },
    {
      "id": "M_612",
      "pitch": 74,
      "t_note_us": 75398049,
      "t_trigger_us": 75262086,
      "is_ai": false,
      "track_id": 0,
      "velocity": 0,
      "is_motor": true,
      "motor_id": 1,
      "accel_val": 2000,
      "base_duration_us": 530972
    },
    {
      "id": "M_625",
      "pitch": 62,
      "t_note_us": 75929021,
      "t_trigger_us": 75793058,
      "is_ai": false,
      "track_id": 0,
      "velocity": 0,
      "is_motor": true,
      "motor_id": 1,
      "accel_val": 2000,
      "base_duration_us": 1592916
    },
    {
      "id": "M_626",
      "pitch": 69,
      "t_note_us": 75929021,
      "t_trigger_us": 75793058,
      "is_ai": false,
      "track_id": 0,
      "velocity": 0,
      "is_motor": true,
      "motor_id": 2,
      "accel_val": 2000,
      "base_duration_us": 1592916
    },
    {
      "id": "M_627",
      "pitch": 78,
      "t_note_us": 75929021,
      "t_trigger_us": 75793058,
      "is_ai": false,
      "track_id": 0,
      "velocity": 0,
      "is_motor": true,
      "motor_id": 3,
      "accel_val": 2000,
      "base_duration_us": 1592916
    },
    {
      "id": "M_618",
      "pitch": 93,
      "t_note_us": 76194507,
      "t_trigger_us": 76058544,
      "is_ai": true,
      "track_id": 8,
      "velocity": 0,
      "is_motor": false,
      "motor_id": 0,
      "accel_val": 2000,
      "base_duration_us": 265486
    },
    {
      "id": "M_616",
      "pitch": 69,
      "t_note_us": 76194507,
      "t_trigger_us": 76058544,
      "is_ai": false,
      "track_id": 0,
      "velocity": 0,
      "is_motor": true,
      "motor_id": 0,
      "accel_val": 2000,
      "base_duration_us": 265486
    },
    {
      "id": "M_617",
      "pitch": 50,
      "t_note_us": 76194507,
      "t_trigger_us": 76058544,
      "is_ai": false,
      "track_id": 0,
      "velocity": 0,
      "is_motor": true,
      "motor_id": 0,
      "accel_val": 2000,
      "base_duration_us": 265486
    },
    {
      "id": "M_621",
      "pitch": 93,
      "t_note_us": 76459993,
      "t_trigger_us": 76324030,
      "is_ai": true,
      "track_id": 8,
      "velocity": 0,
      "is_motor": false,
      "motor_id": 0,
      "accel_val": 2000,
      "base_duration_us": 265486
    },
    {
      "id": "M_619",
      "pitch": 69,
      "t_note_us": 76459993,
      "t_trigger_us": 76324030,
      "is_ai": false,
      "track_id": 0,
      "velocity": 0,
      "is_motor": true,
      "motor_id": 0,
      "accel_val": 2000,
      "base_duration_us": 265486
    },
    {
      "id": "M_620",
      "pitch": 50,
      "t_note_us": 76459993,
      "t_trigger_us": 76324030,
      "is_ai": false,
      "track_id": 0,
      "velocity": 0,
      "is_motor": true,
      "motor_id": 0,
      "accel_val": 2000,
      "base_duration_us": 265486
    },
    {
      "id": "M_623",
      "pitch": 95,
      "t_note_us": 76725479,
      "t_trigger_us": 76589516,
      "is_ai": true,
      "track_id": 9,
      "velocity": 0,
      "is_motor": false,
      "motor_id": 0,
      "accel_val": 2000,
      "base_duration_us": 530972
    },
    {
      "id": "M_624",
      "pitch": 71,
      "t_note_us": 76725479,
      "t_trigger_us": 76589516,
      "is_ai": false,
      "track_id": 0,
      "velocity": 0,
      "is_motor": true,
      "motor_id": 0,
      "accel_val": 2000,
      "base_duration_us": 530972
    },
    {
      "id": "M_622",
      "pitch": 50,
      "t_note_us": 76990965,
      "t_trigger_us": 76855002,
      "is_ai": false,
      "track_id": 0,
      "velocity": 0,
      "is_motor": true,
      "motor_id": 0,
      "accel_val": 2000,
      "base_duration_us": 265486
    },
    {
      "id": "M_633",
      "pitch": 93,
      "t_note_us": 77256451,
      "t_trigger_us": 77120488,
      "is_ai": true,
      "track_id": 8,
      "velocity": 0,
      "is_motor": false,
      "motor_id": 0,
      "accel_val": 2000,
      "base_duration_us": 796458
    },
    {
      "id": "M_628",
      "pitch": 50,
      "t_note_us": 77256451,
      "t_trigger_us": 77120488,
      "is_ai": false,
      "track_id": 0,
      "velocity": 0,
      "is_motor": true,
      "motor_id": 0,
      "accel_val": 2000,
      "base_duration_us": 530972
    },
    {
      "id": "M_632",
      "pitch": 69,
      "t_note_us": 77256451,
      "t_trigger_us": 77120488,
      "is_ai": false,
      "track_id": 0,
      "velocity": 0,
      "is_motor": true,
      "motor_id": 0,
      "accel_val": 2000,
      "base_duration_us": 796458
    },
    {
      "id": "M_629",
      "pitch": 76,
      "t_note_us": 77521937,
      "t_trigger_us": 77385974,
      "is_ai": false,
      "track_id": 0,
      "velocity": 0,
      "is_motor": true,
      "motor_id": 2,
      "accel_val": 2000,
      "base_duration_us": 530972
    },
    {
      "id": "M_630",
      "pitch": 61,
      "t_note_us": 77521937,
      "t_trigger_us": 77385974,
      "is_ai": false,
      "track_id": 0,
      "velocity": 0,
      "is_motor": true,
      "motor_id": 1,
      "accel_val": 2000,
      "base_duration_us": 530972
    },
    {
      "id": "M_631",
      "pitch": 69,
      "t_note_us": 77521937,
      "t_trigger_us": 77385974,
      "is_ai": false,
      "track_id": 0,
      "velocity": 0,
      "is_motor": true,
      "motor_id": 3,
      "accel_val": 2000,
      "base_duration_us": 530972
    },
    {
      "id": "M_634",
      "pitch": 60,
      "t_note_us": 78052909,
      "t_trigger_us": 77916946,
      "is_ai": false,
      "track_id": 0,
      "velocity": 0,
      "is_motor": true,
      "motor_id": 1,
      "accel_val": 2000,
      "base_duration_us": 265486
    },
    {
      "id": "M_639",
      "pitch": 67,
      "t_note_us": 78052909,
      "t_trigger_us": 77916946,
      "is_ai": false,
      "track_id": 0,
      "velocity": 0,
      "is_motor": true,
      "motor_id": 2,
      "accel_val": 2000,
      "base_duration_us": 1327430
    },
    {
      "id": "M_640",
      "pitch": 67,
      "t_note_us": 78052909,
      "t_trigger_us": 77916946,
      "is_ai": false,
      "track_id": 0,
      "velocity": 0,
      "is_motor": true,
      "motor_id": 0,
      "accel_val": 2000,
      "base_duration_us": 1327430
    },
    {
      "id": "M_641",
      "pitch": 67,
      "t_note_us": 78052909,
      "t_trigger_us": 77916946,
      "is_ai": false,
      "track_id": 0,
      "velocity": 0,
      "is_motor": true,
      "motor_id": 3,
      "accel_val": 2000,
      "base_duration_us": 1327430
    },
    {
      "id": "M_651",
      "pitch": 76,
      "t_note_us": 78052909,
      "t_trigger_us": 77916946,
      "is_ai": false,
      "track_id": 0,
      "velocity": 0,
      "is_motor": true,
      "motor_id": 0,
      "accel_val": 2000,
      "base_duration_us": 2123888
    },
    {
      "id": "M_635",
      "pitch": 67,
      "t_note_us": 78318395,
      "t_trigger_us": 78182432,
      "is_ai": false,
      "track_id": 0,
      "velocity": 0,
      "is_motor": true,
      "motor_id": 1,
      "accel_val": 2000,
      "base_duration_us": 265486
    },
    {
      "id": "M_636",
      "pitch": 60,
      "t_note_us": 78583881,
      "t_trigger_us": 78447918,
      "is_ai": false,
      "track_id": 0,
      "velocity": 0,
      "is_motor": true,
      "motor_id": 1,
      "accel_val": 2000,
      "base_duration_us": 265486
    },
    {
      "id": "M_637",
      "pitch": 67,
      "t_note_us": 78849367,
      "t_trigger_us": 78713404,
      "is_ai": false,
      "track_id": 0,
      "velocity": 0,
      "is_motor": true,
      "motor_id": 1,
      "accel_val": 2000,
      "base_duration_us": 265486
    },
    {
      "id": "M_638",
      "pitch": 60,
      "t_note_us": 79114853,
      "t_trigger_us": 78978890,
      "is_ai": false,
      "track_id": 0,
      "velocity": 0,
      "is_motor": true,
      "motor_id": 1,
      "accel_val": 2000,
      "base_duration_us": 265486
    },
    {
      "id": "M_642",
      "pitch": 93,
      "t_note_us": 79380339,
      "t_trigger_us": 79244376,
      "is_ai": true,
      "track_id": 8,
      "velocity": 0,
      "is_motor": false,
      "motor_id": 0,
      "accel_val": 2000,
      "base_duration_us": 265486
    },
    {
      "id": "M_645",
      "pitch": 93,
      "t_note_us": 79380339,
      "t_trigger_us": 79244376,
      "is_ai": true,
      "track_id": 8,
      "velocity": 0,
      "is_motor": false,
      "motor_id": 0,
      "accel_val": 2000,
      "base_duration_us": 265486
    },
    {
      "id": "M_643",
      "pitch": 67,
      "t_note_us": 79380339,
      "t_trigger_us": 79244376,
      "is_ai": false,
      "track_id": 0,
      "velocity": 0,
      "is_motor": true,
      "motor_id": 1,
      "accel_val": 2000,
      "base_duration_us": 265486
    },
    {
      "id": "M_644",
      "pitch": 69,
      "t_note_us": 79380339,
      "t_trigger_us": 79244376,
      "is_ai": false,
      "track_id": 0,
      "velocity": 0,
      "is_motor": true,
      "motor_id": 2,
      "accel_val": 2000,
      "base_duration_us": 265486
    },
    {
      "id": "M_646",
      "pitch": 95,
      "t_note_us": 79645825,
      "t_trigger_us": 79509862,
      "is_ai": true,
      "track_id": 9,
      "velocity": 0,
      "is_motor": false,
      "motor_id": 0,
      "accel_val": 2000,
      "base_duration_us": 265486
    },
    {
      "id": "M_648",
      "pitch": 95,
      "t_note_us": 79645825,
      "t_trigger_us": 79509862,
      "is_ai": true,
      "track_id": 9,
      "velocity": 0,
      "is_motor": false,
      "motor_id": 0,
      "accel_val": 2000,
      "base_duration_us": 265486
    },
    {
      "id": "M_647",
      "pitch": 71,
      "t_note_us": 79645825,
      "t_trigger_us": 79509862,
      "is_ai": false,
      "track_id": 0,
      "velocity": 0,
      "is_motor": true,
      "motor_id": 1,
      "accel_val": 2000,
      "base_duration_us": 265486
    },
    {
      "id": "M_649",
      "pitch": 60,
      "t_note_us": 79645825,
      "t_trigger_us": 79509862,
      "is_ai": false,
      "track_id": 0,
      "velocity": 0,
      "is_motor": true,
      "motor_id": 0,
      "accel_val": 2000,
      "base_duration_us": 265486
    },
    {
      "id": "M_654",
      "pitch": 93,
      "t_note_us": 79911311,
      "t_trigger_us": 79775348,
      "is_ai": true,
      "track_id": 8,
      "velocity": 0,
      "is_motor": false,
      "motor_id": 0,
      "accel_val": 2000,
      "base_duration_us": 530972
    },
    {
      "id": "M_655",
      "pitch": 93,
      "t_note_us": 79911311,
      "t_trigger_us": 79775348,
      "is_ai": true,
      "track_id": 8,
      "velocity": 0,
      "is_motor": false,
      "motor_id": 0,
      "accel_val": 2000,
      "base_duration_us": 530972
    },
    {
      "id": "M_650",
      "pitch": 67,
      "t_note_us": 79911311,
      "t_trigger_us": 79775348,
      "is_ai": false,
      "track_id": 0,
      "velocity": 0,
      "is_motor": true,
      "motor_id": 1,
      "accel_val": 2000,
      "base_duration_us": 265486
    },
    {
      "id": "M_652",
      "pitch": 62,
      "t_note_us": 80176797,
      "t_trigger_us": 80040834,
      "is_ai": false,
      "track_id": 0,
      "velocity": 0,
      "is_motor": true,
      "motor_id": 1,
      "accel_val": 2000,
      "base_duration_us": 265486
    },
    {
      "id": "M_653",
      "pitch": 69,
      "t_note_us": 80176797,
      "t_trigger_us": 80040834,
      "is_ai": false,
      "track_id": 0,
      "velocity": 0,
      "is_motor": true,
      "motor_id": 2,
      "accel_val": 2000,
      "base_duration_us": 265486
    },
    {
      "id": "M_681",
      "pitch": 78,
      "t_note_us": 80176797,
      "t_trigger_us": 80040834,
      "is_ai": false,
      "track_id": 0,
      "velocity": 0,
      "is_motor": true,
      "motor_id": 3,
      "accel_val": 2000,
      "base_duration_us": 2123888
    },
    {
      "id": "M_656",
      "pitch": 93,
      "t_note_us": 80442283,
      "t_trigger_us": 80306320,
      "is_ai": true,
      "track_id": 8,
      "velocity": 0,
      "is_motor": false,
      "motor_id": 0,
      "accel_val": 2000,
      "base_duration_us": 265486
    },
    {
      "id": "M_657",
      "pitch": 93,
      "t_note_us": 80442283,
      "t_trigger_us": 80306320,
      "is_ai": true,
      "track_id": 8,
      "velocity": 0,
      "is_motor": false,
      "motor_id": 0,
      "accel_val": 2000,
      "base_duration_us": 265486
    },
    {
      "id": "M_658",
      "pitch": 69,
      "t_note_us": 80442283,
      "t_trigger_us": 80306320,
      "is_ai": false,
      "track_id": 0,
      "velocity": 0,
      "is_motor": true,
      "motor_id": 1,
      "accel_val": 2000,
      "base_duration_us": 265486
    },
    {
      "id": "M_659",
      "pitch": 69,
      "t_note_us": 80442283,
      "t_trigger_us": 80306320,
      "is_ai": false,
      "track_id": 0,
      "velocity": 0,
      "is_motor": true,
      "motor_id": 2,
      "accel_val": 2000,
      "base_duration_us": 265486
    },
    {
      "id": "M_660",
      "pitch": 69,
      "t_note_us": 80707769,
      "t_trigger_us": 80571806,
      "is_ai": false,
      "track_id": 0,
      "velocity": 0,
      "is_motor": true,
      "motor_id": 1,
      "accel_val": 2000,
      "base_duration_us": 265486
    },
    {
      "id": "M_661",
      "pitch": 69,
      "t_note_us": 80707769,
      "t_trigger_us": 80571806,
      "is_ai": false,
      "track_id": 0,
      "velocity": 0,
      "is_motor": true,
      "motor_id": 2,
      "accel_val": 2000,
      "base_duration_us": 265486
    },
    {
      "id": "M_662",
      "pitch": 69,
      "t_note_us": 80707769,
      "t_trigger_us": 80571806,
      "is_ai": false,
      "track_id": 0,
      "velocity": 0,
      "is_motor": true,
      "motor_id": 0,
      "accel_val": 2000,
      "base_duration_us": 265486
    },
    {
      "id": "M_663",
      "pitch": 62,
      "t_note_us": 80707769,
      "t_trigger_us": 80571806,
      "is_ai": false,
      "track_id": 0,
      "velocity": 0,
      "is_motor": true,
      "motor_id": 0,
      "accel_val": 2000,
      "base_duration_us": 265486
    },
    {
      "id": "M_665",
      "pitch": 95,
      "t_note_us": 80973255,
      "t_trigger_us": 80837292,
      "is_ai": true,
      "track_id": 9,
      "velocity": 0,
      "is_motor": false,
      "motor_id": 0,
      "accel_val": 2000,
      "base_duration_us": 265486
    },
    {
      "id": "M_667",
      "pitch": 95,
      "t_note_us": 80973255,
      "t_trigger_us": 80837292,
      "is_ai": true,
      "track_id": 9,
      "velocity": 0,
      "is_motor": false,
      "motor_id": 0,
      "accel_val": 2000,
      "base_duration_us": 265486
    },
    {
      "id": "M_664",
      "pitch": 69,
      "t_note_us": 80973255,
      "t_trigger_us": 80837292,
      "is_ai": false,
      "track_id": 0,
      "velocity": 0,
      "is_motor": true,
      "motor_id": 1,
      "accel_val": 2000,
      "base_duration_us": 265486
    },
    {
      "id": "M_666",
      "pitch": 71,
      "t_note_us": 80973255,
      "t_trigger_us": 80837292,
      "is_ai": false,
      "track_id": 0,
      "velocity": 0,
      "is_motor": true,
      "motor_id": 2,
      "accel_val": 2000,
      "base_duration_us": 265486
    },
    {
      "id": "M_669",
      "pitch": 93,
      "t_note_us": 81238741,
      "t_trigger_us": 81102778,
      "is_ai": true,
      "track_id": 8,
      "velocity": 0,
      "is_motor": false,
      "motor_id": 0,
      "accel_val": 2000,
      "base_duration_us": 265486
    },
    {
      "id": "M_668",
      "pitch": 69,
      "t_note_us": 81238741,
      "t_trigger_us": 81102778,
      "is_ai": false,
      "track_id": 0,
      "velocity": 0,
      "is_motor": true,
      "motor_id": 1,
      "accel_val": 2000,
      "base_duration_us": 265486
    },
    {
      "id": "M_670",
      "pitch": 69,
      "t_note_us": 81238741,
      "t_trigger_us": 81102778,
      "is_ai": false,
      "track_id": 0,
      "velocity": 0,
      "is_motor": true,
      "motor_id": 2,
      "accel_val": 2000,
      "base_duration_us": 265486
    },
    {
      "id": "M_671",
      "pitch": 62,
      "t_note_us": 81238741,
      "t_trigger_us": 81102778,
      "is_ai": false,
      "track_id": 0,
      "velocity": 0,
      "is_motor": true,
      "motor_id": 0,
      "accel_val": 2000,
      "base_duration_us": 265486
    },
    {
      "id": "M_675",
      "pitch": 98,
      "t_note_us": 81504227,
      "t_trigger_us": 81368264,
      "is_ai": true,
      "track_id": 11,
      "velocity": 0,
      "is_motor": false,
      "motor_id": 0,
      "accel_val": 2000,
      "base_duration_us": 265486
    },
    {
      "id": "M_672",
      "pitch": 74,
      "t_note_us": 81504227,
      "t_trigger_us": 81368264,
      "is_ai": false,
      "track_id": 0,
      "velocity": 0,
      "is_motor": true,
      "motor_id": 1,
      "accel_val": 2000,
      "base_duration_us": 265486
    },
    {
      "id": "M_673",
      "pitch": 69,
      "t_note_us": 81504227,
      "t_trigger_us": 81368264,
      "is_ai": false,
      "track_id": 0,
      "velocity": 0,
      "is_motor": true,
      "motor_id": 2,
      "accel_val": 2000,
      "base_duration_us": 265486
    },
    {
      "id": "M_674",
      "pitch": 74,
      "t_note_us": 81504227,
      "t_trigger_us": 81368264,
      "is_ai": false,
      "track_id": 0,
      "velocity": 0,
      "is_motor": true,
      "motor_id": 0,
      "accel_val": 2000,
      "base_duration_us": 265486
    },
    {
      "id": "M_679",
      "pitch": 98,
      "t_note_us": 81769713,
      "t_trigger_us": 81633750,
      "is_ai": true,
      "track_id": 11,
      "velocity": 0,
      "is_motor": false,
      "motor_id": 0,
      "accel_val": 2000,
      "base_duration_us": 530972
    },
    {
      "id": "M_676",
      "pitch": 62,
      "t_note_us": 81769713,
      "t_trigger_us": 81633750,
      "is_ai": false,
      "track_id": 0,
      "velocity": 0,
      "is_motor": true,
      "motor_id": 1,
      "accel_val": 2000,
      "base_duration_us": 265486
    },
    {
      "id": "M_678",
      "pitch": 74,
      "t_note_us": 81769713,
      "t_trigger_us": 81633750,
      "is_ai": false,
      "track_id": 0,
      "velocity": 0,
      "is_motor": true,
      "motor_id": 0,
      "accel_val": 2000,
      "base_duration_us": 530972
    },
    {
      "id": "M_680",
      "pitch": 74,
      "t_note_us": 81769713,
      "t_trigger_us": 81633750,
      "is_ai": false,
      "track_id": 0,
      "velocity": 0,
      "is_motor": true,
      "motor_id": 2,
      "accel_val": 2000,
      "base_duration_us": 530972
    },
    {
      "id": "M_677",
      "pitch": 69,
      "t_note_us": 82035199,
      "t_trigger_us": 81899236,
      "is_ai": false,
      "track_id": 0,
      "velocity": 0,
      "is_motor": true,
      "motor_id": 1,
      "accel_val": 2000,
      "base_duration_us": 265486
    },
    {
      "id": "M_682",
      "pitch": 60,
      "t_note_us": 82300685,
      "t_trigger_us": 82164722,
      "is_ai": false,
      "track_id": 0,
      "velocity": 0,
      "is_motor": true,
      "motor_id": 1,
      "accel_val": 2000,
      "base_duration_us": 265486
    },
    {
      "id": "M_688",
      "pitch": 67,
      "t_note_us": 82300685,
      "t_trigger_us": 82164722,
      "is_ai": false,
      "track_id": 0,
      "velocity": 0,
      "is_motor": true,
      "motor_id": 2,
      "accel_val": 2000,
      "base_duration_us": 1061944
    },
    {
      "id": "M_689",
      "pitch": 76,
      "t_note_us": 82300685,
      "t_trigger_us": 82164722,
      "is_ai": false,
      "track_id": 0,
      "velocity": 0,
      "is_motor": true,
      "motor_id": 3,
      "accel_val": 2000,
      "base_duration_us": 1061944
    },
    {
      "id": "M_683",
      "pitch": 67,
      "t_note_us": 82566171,
      "t_trigger_us": 82430208,
      "is_ai": false,
      "track_id": 0,
      "velocity": 0,
      "is_motor": true,
      "motor_id": 1,
      "accel_val": 2000,
      "base_duration_us": 265486
    },
    {
      "id": "M_684",
      "pitch": 60,
      "t_note_us": 82831657,
      "t_trigger_us": 82695694,
      "is_ai": false,
      "track_id": 0,
      "velocity": 0,
      "is_motor": true,
      "motor_id": 1,
      "accel_val": 2000,
      "base_duration_us": 265486
    },
    {
      "id": "M_685",
      "pitch": 74,
      "t_note_us": 83097143,
      "t_trigger_us": 82961180,
      "is_ai": false,
      "track_id": 0,
      "velocity": 0,
      "is_motor": true,
      "motor_id": 1,
      "accel_val": 2000,
      "base_duration_us": 265486
    },
    {
      "id": "M_686",
      "pitch": 74,
      "t_note_us": 83097143,
      "t_trigger_us": 82961180,
      "is_ai": false,
      "track_id": 0,
      "velocity": 0,
      "is_motor": true,
      "motor_id": 0,
      "accel_val": 2000,
      "base_duration_us": 265486
    },
    {
      "id": "M_687",
      "pitch": 67,
      "t_note_us": 83097143,
      "t_trigger_us": 82961180,
      "is_ai": false,
      "track_id": 0,
      "velocity": 0,
      "is_motor": true,
      "motor_id": 0,
      "accel_val": 2000,
      "base_duration_us": 265486
    },
    {
      "id": "M_690",
      "pitch": 57,
      "t_note_us": 83362629,
      "t_trigger_us": 83226666,
      "is_ai": false,
      "track_id": 0,
      "velocity": 0,
      "is_motor": true,
      "motor_id": 0,
      "accel_val": 2000,
      "base_duration_us": 265486
    },
    {
      "id": "M_691",
      "pitch": 76,
      "t_note_us": 83362629,
      "t_trigger_us": 83226666,
      "is_ai": false,
      "track_id": 0,
      "velocity": 0,
      "is_motor": true,
      "motor_id": 2,
      "accel_val": 2000,
      "base_duration_us": 265486
    },
    {
      "id": "M_692",
      "pitch": 76,
      "t_note_us": 83362629,
      "t_trigger_us": 83226666,
      "is_ai": false,
      "track_id": 0,
      "velocity": 0,
      "is_motor": true,
      "motor_id": 1,
      "accel_val": 2000,
      "base_duration_us": 265486
    },
    {
      "id": "M_702",
      "pitch": 60,
      "t_note_us": 83362629,
      "t_trigger_us": 83226666,
      "is_ai": false,
      "track_id": 0,
      "velocity": 0,
      "is_motor": true,
      "motor_id": 3,
      "accel_val": 2000,
      "base_duration_us": 1061944
    },
    {
      "id": "M_703",
      "pitch": 69,
      "t_note_us": 83362629,
      "t_trigger_us": 83226666,
      "is_ai": false,
      "track_id": 0,
      "velocity": 0,
      "is_motor": true,
      "motor_id": 0,
      "accel_val": 2000,
      "base_duration_us": 1061944
    },
    {
      "id": "M_694",
      "pitch": 90,
      "t_note_us": 83628115,
      "t_trigger_us": 83492152,
      "is_ai": true,
      "track_id": 0,
      "velocity": 0,
      "is_motor": true,
      "motor_id": 2,
      "accel_val": 2000,
      "base_duration_us": 265486
    },
    {
      "id": "M_693",
      "pitch": 64,
      "t_note_us": 83628115,
      "t_trigger_us": 83492152,
      "is_ai": false,
      "track_id": 0,
      "velocity": 0,
      "is_motor": true,
      "motor_id": 1,
      "accel_val": 2000,
      "base_duration_us": 265486
    },
    {
      "id": "M_695",
      "pitch": 78,
      "t_note_us": 83628115,
      "t_trigger_us": 83492152,
      "is_ai": false,
      "track_id": 0,
      "velocity": 0,
      "is_motor": true,
      "motor_id": 0,
      "accel_val": 2000,
      "base_duration_us": 265486
    },
    {
      "id": "M_696",
      "pitch": 57,
      "t_note_us": 83893601,
      "t_trigger_us": 83757638,
      "is_ai": false,
      "track_id": 0,
      "velocity": 0,
      "is_motor": true,
      "motor_id": 0,
      "accel_val": 2000,
      "base_duration_us": 265486
    },
    {
      "id": "M_697",
      "pitch": 67,
      "t_note_us": 83893601,
      "t_trigger_us": 83757638,
      "is_ai": false,
      "track_id": 0,
      "velocity": 0,
      "is_motor": true,
      "motor_id": 1,
      "accel_val": 2000,
      "base_duration_us": 265486
    },
    {
      "id": "M_698",
      "pitch": 67,
      "t_note_us": 83893601,
      "t_trigger_us": 83757638,
      "is_ai": false,
      "track_id": 0,
      "velocity": 0,
      "is_motor": true,
      "motor_id": 2,
      "accel_val": 2000,
      "base_duration_us": 265486
    },
    {
      "id": "M_699",
      "pitch": 76,
      "t_note_us": 84159087,
      "t_trigger_us": 84023124,
      "is_ai": false,
      "track_id": 0,
      "velocity": 0,
      "is_motor": true,
      "motor_id": 2,
      "accel_val": 2000,
      "base_duration_us": 265486
    },
    {
      "id": "M_700",
      "pitch": 64,
      "t_note_us": 84159087,
      "t_trigger_us": 84023124,
      "is_ai": false,
      "track_id": 0,
      "velocity": 0,
      "is_motor": true,
      "motor_id": 1,
      "accel_val": 2000,
      "base_duration_us": 265486
    },
    {
      "id": "M_701",
      "pitch": 76,
      "t_note_us": 84159087,
      "t_trigger_us": 84023124,
      "is_ai": false,
      "track_id": 0,
      "velocity": 0,
      "is_motor": true,
      "motor_id": 0,
      "accel_val": 2000,
      "base_duration_us": 265486
    },
    {
      "id": "M_704",
      "pitch": 62,
      "t_note_us": 84424573,
      "t_trigger_us": 84288610,
      "is_ai": false,
      "track_id": 0,
      "velocity": 0,
      "is_motor": true,
      "motor_id": 1,
      "accel_val": 2000,
      "base_duration_us": 132743
    },
    {
      "id": "M_705",
      "pitch": 50,
      "t_note_us": 84424573,
      "t_trigger_us": 84288610,
      "is_ai": false,
      "track_id": 0,
      "velocity": 0,
      "is_motor": true,
      "motor_id": 0,
      "accel_val": 2000,
      "base_duration_us": 132743
    },
    {
      "id": "M_706",
      "pitch": 78,
      "t_note_us": 84424573,
      "t_trigger_us": 84288610,
      "is_ai": false,
      "track_id": 0,
      "velocity": 0,
      "is_motor": true,
      "motor_id": 2,
      "accel_val": 2000,
      "base_duration_us": 132743
    },
    {
      "id": "M_707",
      "pitch": 74,
      "t_note_us": 84424573,
      "t_trigger_us": 84288610,
      "is_ai": false,
      "track_id": 0,
      "velocity": 0,
      "is_motor": true,
      "motor_id": 3,
      "accel_val": 2000,
      "base_duration_us": 132743
    },
    {
      "id": "M_708",
      "pitch": 69,
      "t_note_us": 84424573,
      "t_trigger_us": 84288610,
      "is_ai": false,
      "track_id": 0,
      "velocity": 0,
      "is_motor": true,
      "motor_id": 0,
      "accel_val": 2000,
      "base_duration_us": 132743
    },
    {
      "id": "M_709",
      "pitch": 69,
      "t_note_us": 84690059,
      "t_trigger_us": 84554096,
      "is_ai": false,
      "track_id": 0,
      "velocity": 0,
      "is_motor": true,
      "motor_id": 1,
      "accel_val": 2000,
      "base_duration_us": 265486
    },
    {
      "id": "M_710",
      "pitch": 69,
      "t_note_us": 84690059,
      "t_trigger_us": 84554096,
      "is_ai": false,
      "track_id": 0,
      "velocity": 0,
      "is_motor": true,
      "motor_id": 2,
      "accel_val": 2000,
      "base_duration_us": 265486
    },
    {
      "id": "M_711",
      "pitch": 69,
      "t_note_us": 84690059,
      "t_trigger_us": 84554096,
      "is_ai": false,
      "track_id": 0,
      "velocity": 0,
      "is_motor": true,
      "motor_id": 0,
      "accel_val": 2000,
      "base_duration_us": 265486
    },
    {
      "id": "M_713",
      "pitch": 95,
      "t_note_us": 84955545,
      "t_trigger_us": 84819582,
      "is_ai": true,
      "track_id": 9,
      "velocity": 0,
      "is_motor": false,
      "motor_id": 0,
      "accel_val": 2000,
      "base_duration_us": 265486
    },
    {
      "id": "M_714",
      "pitch": 95,
      "t_note_us": 84955545,
      "t_trigger_us": 84819582,
      "is_ai": true,
      "track_id": 9,
      "velocity": 0,
      "is_motor": false,
      "motor_id": 0,
      "accel_val": 2000,
      "base_duration_us": 265486
    },
    {
      "id": "M_712",
      "pitch": 71,
      "t_note_us": 84955545,
      "t_trigger_us": 84819582,
      "is_ai": false,
      "track_id": 0,
      "velocity": 0,
      "is_motor": true,
      "motor_id": 1,
      "accel_val": 2000,
      "base_duration_us": 265486
    },
    {
      "id": "M_715",
      "pitch": 93,
      "t_note_us": 85221031,
      "t_trigger_us": 85085068,
      "is_ai": true,
      "track_id": 8,
      "velocity": 0,
      "is_motor": false,
      "motor_id": 0,
      "accel_val": 2000,
      "base_duration_us": 796459
    },
    {
      "id": "M_717",
      "pitch": 93,
      "t_note_us": 85221031,
      "t_trigger_us": 85085068,
      "is_ai": true,
      "track_id": 8,
      "velocity": 0,
      "is_motor": false,
      "motor_id": 0,
      "accel_val": 2000,
      "base_duration_us": 796459
    },
    {
      "id": "M_716",
      "pitch": 69,
      "t_note_us": 85221031,
      "t_trigger_us": 85085068,
      "is_ai": false,
      "track_id": 0,
      "velocity": 0,
      "is_motor": true,
      "motor_id": 1,
      "accel_val": 2000,
      "base_duration_us": 796459
    },
    {
      "id": "M_718",
      "pitch": 98,
      "t_note_us": 86017490,
      "t_trigger_us": 85881527,
      "is_ai": true,
      "track_id": 11,
      "velocity": 0,
      "is_motor": false,
      "motor_id": 0,
      "accel_val": 2000,
      "base_duration_us": 132743
    },
    {
      "id": "M_719",
      "pitch": 74,
      "t_note_us": 86017490,
      "t_trigger_us": 85881527,
      "is_ai": false,
      "track_id": 0,
      "velocity": 0,
      "is_motor": true,
      "motor_id": 1,
      "accel_val": 2000,
      "base_duration_us": 132743
    },
    {
      "id": "M_720",
      "pitch": 74,
      "t_note_us": 86017490,
      "t_trigger_us": 85881527,
      "is_ai": false,
      "track_id": 0,
      "velocity": 0,
      "is_motor": true,
      "motor_id": 0,
      "accel_val": 2000,
      "base_duration_us": 132743
    },
    {
      "id": "M_721",
      "pitch": 76,
      "t_note_us": 86150233,
      "t_trigger_us": 86014270,
      "is_ai": false,
      "track_id": 0,
      "velocity": 0,
      "is_motor": true,
      "motor_id": 2,
      "accel_val": 2000,
      "base_duration_us": 132743
    },
    {
      "id": "M_722",
      "pitch": 76,
      "t_note_us": 86150233,
      "t_trigger_us": 86014270,
      "is_ai": false,
      "track_id": 0,
      "velocity": 0,
      "is_motor": true,
      "motor_id": 1,
      "accel_val": 2000,
      "base_duration_us": 132743
    },
    {
      "id": "M_723",
      "pitch": 76,
      "t_note_us": 86150233,
      "t_trigger_us": 86014270,
      "is_ai": false,
      "track_id": 0,
      "velocity": 0,
      "is_motor": true,
      "motor_id": 3,
      "accel_val": 2000,
      "base_duration_us": 132743
    },
    {
      "id": "M_724",
      "pitch": 103,
      "t_note_us": 86282976,
      "t_trigger_us": 86147013,
      "is_ai": true,
      "track_id": 14,
      "velocity": 0,
      "is_motor": false,
      "motor_id": 0,
      "accel_val": 2000,
      "base_duration_us": 132743
    },
    {
      "id": "M_725",
      "pitch": 67,
      "t_note_us": 86282976,
      "t_trigger_us": 86147013,
      "is_ai": false,
      "track_id": 0,
      "velocity": 0,
      "is_motor": true,
      "motor_id": 1,
      "accel_val": 2000,
      "base_duration_us": 132743
    },
    {
      "id": "M_726",
      "pitch": 67,
      "t_note_us": 86282976,
      "t_trigger_us": 86147013,
      "is_ai": false,
      "track_id": 0,
      "velocity": 0,
      "is_motor": true,
      "motor_id": 2,
      "accel_val": 2000,
      "base_duration_us": 132743
    },
    {
      "id": "M_728",
      "pitch": 100,
      "t_note_us": 86415719,
      "t_trigger_us": 86279756,
      "is_ai": true,
      "track_id": 12,
      "velocity": 0,
      "is_motor": false,
      "motor_id": 0,
      "accel_val": 2000,
      "base_duration_us": 132743
    },
    {
      "id": "M_727",
      "pitch": 76,
      "t_note_us": 86415719,
      "t_trigger_us": 86279756,
      "is_ai": false,
      "track_id": 0,
      "velocity": 0,
      "is_motor": true,
      "motor_id": 2,
      "accel_val": 2000,
      "base_duration_us": 132743
    },
    {
      "id": "M_729",
      "pitch": 76,
      "t_note_us": 86415719,
      "t_trigger_us": 86279756,
      "is_ai": false,
      "track_id": 0,
      "velocity": 0,
      "is_motor": true,
      "motor_id": 1,
      "accel_val": 2000,
      "base_duration_us": 132743
    },
    {
      "id": "M_731",
      "pitch": 95,
      "t_note_us": 86548462,
      "t_trigger_us": 86412499,
      "is_ai": true,
      "track_id": 9,
      "velocity": 0,
      "is_motor": false,
      "motor_id": 0,
      "accel_val": 2000,
      "base_duration_us": 398229
    },
    {
      "id": "M_732",
      "pitch": 95,
      "t_note_us": 86548462,
      "t_trigger_us": 86412499,
      "is_ai": true,
      "track_id": 9,
      "velocity": 0,
      "is_motor": false,
      "motor_id": 0,
      "accel_val": 2000,
      "base_duration_us": 530972
    },
    {
      "id": "M_730",
      "pitch": 71,
      "t_note_us": 86548462,
      "t_trigger_us": 86412499,
      "is_ai": false,
      "track_id": 0,
      "velocity": 0,
      "is_motor": true,
      "motor_id": 1,
      "accel_val": 2000,
      "base_duration_us": 398229
    },
    {
      "id": "M_735",
      "pitch": 48,
      "t_note_us": 86548462,
      "t_trigger_us": 86412499,
      "is_ai": false,
      "track_id": 0,
      "velocity": 0,
      "is_motor": true,
      "motor_id": 0,
      "accel_val": 2000,
      "base_duration_us": 796458
    },
    {
      "id": "M_736",
      "pitch": 67,
      "t_note_us": 86548462,
      "t_trigger_us": 86412499,
      "is_ai": false,
      "track_id": 0,
      "velocity": 0,
      "is_motor": true,
      "motor_id": 2,
      "accel_val": 2000,
      "base_duration_us": 796458
    },
    {
      "id": "M_737",
      "pitch": 55,
      "t_note_us": 86548462,
      "t_trigger_us": 86412499,
      "is_ai": false,
      "track_id": 0,
      "velocity": 0,
      "is_motor": true,
      "motor_id": 3,
      "accel_val": 2000,
      "base_duration_us": 796458
    },
    {
      "id": "M_738",
      "pitch": 64,
      "t_note_us": 86548462,
      "t_trigger_us": 86412499,
      "is_ai": false,
      "track_id": 0,
      "velocity": 0,
      "is_motor": true,
      "motor_id": 0,
      "accel_val": 2000,
      "base_duration_us": 796458
    },
    {
      "id": "M_733",
      "pitch": 95,
      "t_note_us": 86946691,
      "t_trigger_us": 86810728,
      "is_ai": true,
      "track_id": 9,
      "velocity": 0,
      "is_motor": false,
      "motor_id": 0,
      "accel_val": 2000,
      "base_duration_us": 398229
    },
    {
      "id": "M_734",
      "pitch": 71,
      "t_note_us": 86946691,
      "t_trigger_us": 86810728,
      "is_ai": false,
      "track_id": 0,
      "velocity": 0,
      "is_motor": true,
      "motor_id": 1,
      "accel_val": 2000,
      "base_duration_us": 398229
    },
    {
      "id": "M_741",
      "pitch": 93,
      "t_note_us": 87344920,
      "t_trigger_us": 87208957,
      "is_ai": true,
      "track_id": 8,
      "velocity": 0,
      "is_motor": false,
      "motor_id": 0,
      "accel_val": 2000,
      "base_duration_us": 796459
    },
    {
      "id": "M_739",
      "pitch": 69,
      "t_note_us": 87344920,
      "t_trigger_us": 87208957,
      "is_ai": false,
      "track_id": 0,
      "velocity": 0,
      "is_motor": true,
      "motor_id": 1,
      "accel_val": 2000,
      "base_duration_us": 796459
    },
    {
      "id": "M_740",
      "pitch": 69,
      "t_note_us": 87344920,
      "t_trigger_us": 87208957,
      "is_ai": false,
      "track_id": 0,
      "velocity": 0,
      "is_motor": true,
      "motor_id": 2,
      "accel_val": 2000,
      "base_duration_us": 796459
    },
    {
      "id": "M_748",
      "pitch": 50,
      "t_note_us": 87344920,
      "t_trigger_us": 87208957,
      "is_ai": false,
      "track_id": 0,
      "velocity": 0,
      "is_motor": true,
      "motor_id": 0,
      "accel_val": 2000,
      "base_duration_us": 1327431
    },
    {
      "id": "M_749",
      "pitch": 66,
      "t_note_us": 87344920,
      "t_trigger_us": 87208957,
      "is_ai": false,
      "track_id": 0,
      "velocity": 0,
      "is_motor": true,
      "motor_id": 3,
      "accel_val": 2000,
      "base_duration_us": 1327431
    },
    {
      "id": "M_750",
      "pitch": 57,
      "t_note_us": 87344920,
      "t_trigger_us": 87208957,
      "is_ai": false,
      "track_id": 0,
      "velocity": 0,
      "is_motor": true,
      "motor_id": 0,
      "accel_val": 2000,
      "base_duration_us": 1327431
    },
    {
      "id": "M_747",
      "pitch": 98,
      "t_note_us": 88141379,
      "t_trigger_us": 88005416,
      "is_ai": true,
      "track_id": 11,
      "velocity": 0,
      "is_motor": false,
      "motor_id": 0,
      "accel_val": 2000,
      "base_duration_us": 530972
    },
    {
      "id": "M_742",
      "pitch": 74,
      "t_note_us": 88141379,
      "t_trigger_us": 88005416,
      "is_ai": false,
      "track_id": 0,
      "velocity": 0,
      "is_motor": true,
      "motor_id": 1,
      "accel_val": 2000,
      "base_duration_us": 132743
    },
    {
      "id": "M_746",
      "pitch": 62,
      "t_note_us": 88141379,
      "t_trigger_us": 88005416,
      "is_ai": false,
      "track_id": 0,
      "velocity": 0,
      "is_motor": true,
      "motor_id": 2,
      "accel_val": 2000,
      "base_duration_us": 530972
    },
    {
      "id": "M_743",
      "pitch": 76,
      "t_note_us": 88274122,
      "t_trigger_us": 88138159,
      "is_ai": false,
      "track_id": 0,
      "velocity": 0,
      "is_motor": true,
      "motor_id": 1,
      "accel_val": 2000,
      "base_duration_us": 132743
    },
    {
      "id": "M_744",
      "pitch": 67,
      "t_note_us": 88406865,
      "t_trigger_us": 88270902,
      "is_ai": false,
      "track_id": 0,
      "velocity": 0,
      "is_motor": true,
      "motor_id": 1,
      "accel_val": 2000,
      "base_duration_us": 132743
    },
    {
      "id": "M_745",
      "pitch": 76,
      "t_note_us": 88539608,
      "t_trigger_us": 88403645,
      "is_ai": false,
      "track_id": 0,
      "velocity": 0,
      "is_motor": true,
      "motor_id": 1,
      "accel_val": 2000,
      "base_duration_us": 132743
    },
    {
      "id": "M_751",
      "pitch": 93,
      "t_note_us": 88672351,
      "t_trigger_us": 88536388,
      "is_ai": true,
      "track_id": 8,
      "velocity": 0,
      "is_motor": false,
      "motor_id": 0,
      "accel_val": 2000,
      "base_duration_us": 398229
    },
    {
      "id": "M_752",
      "pitch": 69,
      "t_note_us": 88672351,
      "t_trigger_us": 88536388,
      "is_ai": false,
      "track_id": 0,
      "velocity": 0,
      "is_motor": true,
      "motor_id": 1,
      "accel_val": 2000,
      "base_duration_us": 398229
    },
    {
      "id": "M_755",
      "pitch": 50,
      "t_note_us": 88672351,
      "t_trigger_us": 88536388,
      "is_ai": false,
      "track_id": 0,
      "velocity": 0,
      "is_motor": true,
      "motor_id": 0,
      "accel_val": 2000,
      "base_duration_us": 796458
    },
    {
      "id": "M_756",
      "pitch": 69,
      "t_note_us": 88672351,
      "t_trigger_us": 88536388,
      "is_ai": false,
      "track_id": 0,
      "velocity": 0,
      "is_motor": true,
      "motor_id": 2,
      "accel_val": 2000,
      "base_duration_us": 796458
    },
    {
      "id": "M_757",
      "pitch": 59,
      "t_note_us": 88672351,
      "t_trigger_us": 88536388,
      "is_ai": false,
      "track_id": 0,
      "velocity": 0,
      "is_motor": true,
      "motor_id": 3,
      "accel_val": 2000,
      "base_duration_us": 796458
    },
    {
      "id": "M_758",
      "pitch": 66,
      "t_note_us": 88672351,
      "t_trigger_us": 88536388,
      "is_ai": false,
      "track_id": 0,
      "velocity": 0,
      "is_motor": true,
      "motor_id": 0,
      "accel_val": 2000,
      "base_duration_us": 796458
    },
    {
      "id": "M_753",
      "pitch": 69,
      "t_note_us": 89070580,
      "t_trigger_us": 88934617,
      "is_ai": false,
      "track_id": 0,
      "velocity": 0,
      "is_motor": true,
      "motor_id": 1,
      "accel_val": 2000,
      "base_duration_us": 398229
    },
    {
      "id": "M_754",
      "pitch": 69,
      "t_note_us": 89070580,
      "t_trigger_us": 88934617,
      "is_ai": false,
      "track_id": 0,
      "velocity": 0,
      "is_motor": true,
      "motor_id": 0,
      "accel_val": 2000,
      "base_duration_us": 398229
    },
    {
      "id": "M_759",
      "pitch": 103,
      "t_note_us": 89468809,
      "t_trigger_us": 89332846,
      "is_ai": true,
      "track_id": 14,
      "velocity": 0,
      "is_motor": false,
      "motor_id": 0,
      "accel_val": 2000,
      "base_duration_us": 398229
    },
    {
      "id": "M_760",
      "pitch": 67,
      "t_note_us": 89468809,
      "t_trigger_us": 89332846,
      "is_ai": false,
      "track_id": 0,
      "velocity": 0,
      "is_motor": true,
      "motor_id": 1,
      "accel_val": 2000,
      "base_duration_us": 398229
    },
    {
      "id": "M_765",
      "pitch": 71,
      "t_note_us": 89468809,
      "t_trigger_us": 89332846,
      "is_ai": false,
      "track_id": 0,
      "velocity": 0,
      "is_motor": true,
      "motor_id": 2,
      "accel_val": 2000,
      "base_duration_us": 796458
    },
    {
      "id": "M_775",
      "pitch": 67,
      "t_note_us": 89468809,
      "t_trigger_us": 89332846,
      "is_ai": false,
      "track_id": 0,
      "velocity": 0,
      "is_motor": true,
      "motor_id": 0,
      "accel_val": 2000,
      "base_duration_us": 1327430
    },
    {
      "id": "M_776",
      "pitch": 59,
      "t_note_us": 89468809,
      "t_trigger_us": 89332846,
      "is_ai": false,
      "track_id": 0,
      "velocity": 0,
      "is_motor": true,
      "motor_id": 3,
      "accel_val": 2000,
      "base_duration_us": 1327430
    },
    {
      "id": "M_777",
      "pitch": 52,
      "t_note_us": 89468809,
      "t_trigger_us": 89332846,
      "is_ai": false,
      "track_id": 0,
      "velocity": 0,
      "is_motor": true,
      "motor_id": 0,
      "accel_val": 2000,
      "base_duration_us": 1327430
    },
    {
      "id": "M_761",
      "pitch": 102,
      "t_note_us": 89867038,
      "t_trigger_us": 89731075,
      "is_ai": true,
      "track_id": 0,
      "velocity": 0,
      "is_motor": true,
      "motor_id": 1,
      "accel_val": 2000,
      "base_duration_us": 132743
    },
    {
      "id": "M_762",
      "pitch": 78,
      "t_note_us": 89867038,
      "t_trigger_us": 89731075,
      "is_ai": false,
      "track_id": 0,
      "velocity": 0,
      "is_motor": true,
      "motor_id": 0,
      "accel_val": 2000,
      "base_duration_us": 132743
    },
    {
      "id": "M_764",
      "pitch": 100,
      "t_note_us": 89999781,
      "t_trigger_us": 89863818,
      "is_ai": true,
      "track_id": 12,
      "velocity": 0,
      "is_motor": false,
      "motor_id": 0,
      "accel_val": 2000,
      "base_duration_us": 265486
    },
    {
      "id": "M_763",
      "pitch": 76,
      "t_note_us": 89999781,
      "t_trigger_us": 89863818,
      "is_ai": false,
      "track_id": 0,
      "velocity": 0,
      "is_motor": true,
      "motor_id": 1,
      "accel_val": 2000,
      "base_duration_us": 265486
    },
    {
      "id": "M_767",
      "pitch": 98,
      "t_note_us": 90265267,
      "t_trigger_us": 90129304,
      "is_ai": true,
      "track_id": 11,
      "velocity": 0,
      "is_motor": false,
      "motor_id": 0,
      "accel_val": 2000,
      "base_duration_us": 132743
    },
    {
      "id": "M_766",
      "pitch": 74,
      "t_note_us": 90265267,
      "t_trigger_us": 90129304,
      "is_ai": false,
      "track_id": 0,
      "velocity": 0,
      "is_motor": true,
      "motor_id": 1,
      "accel_val": 2000,
      "base_duration_us": 132743
    },
    {
      "id": "M_769",
      "pitch": 96,
      "t_note_us": 90398010,
      "t_trigger_us": 90262047,
      "is_ai": true,
      "track_id": 10,
      "velocity": 0,
      "is_motor": false,
      "motor_id": 0,
      "accel_val": 2000,
      "base_duration_us": 132743
    },
    {
      "id": "M_768",
      "pitch": 76,
      "t_note_us": 90398010,
      "t_trigger_us": 90262047,
      "is_ai": false,
      "track_id": 0,
      "velocity": 0,
      "is_motor": true,
      "motor_id": 2,
      "accel_val": 2000,
      "base_duration_us": 132743
    },
    {
      "id": "M_770",
      "pitch": 72,
      "t_note_us": 90398010,
      "t_trigger_us": 90262047,
      "is_ai": false,
      "track_id": 0,
      "velocity": 0,
      "is_motor": true,
      "motor_id": 1,
      "accel_val": 2000,
      "base_duration_us": 132743
    },
    {
      "id": "M_773",
      "pitch": 95,
      "t_note_us": 90530753,
      "t_trigger_us": 90394790,
      "is_ai": true,
      "track_id": 9,
      "velocity": 0,
      "is_motor": false,
      "motor_id": 0,
      "accel_val": 2000,
      "base_duration_us": 265486
    },
    {
      "id": "M_771",
      "pitch": 67,
      "t_note_us": 90530753,
      "t_trigger_us": 90394790,
      "is_ai": false,
      "track_id": 0,
      "velocity": 0,
      "is_motor": true,
      "motor_id": 1,
      "accel_val": 2000,
      "base_duration_us": 132743
    },
    {
      "id": "M_774",
      "pitch": 71,
      "t_note_us": 90530753,
      "t_trigger_us": 90394790,
      "is_ai": false,
      "track_id": 0,
      "velocity": 0,
      "is_motor": true,
      "motor_id": 2,
      "accel_val": 2000,
      "base_duration_us": 265486
    },
    {
      "id": "M_772",
      "pitch": 76,
      "t_note_us": 90663496,
      "t_trigger_us": 90527533,
      "is_ai": false,
      "track_id": 0,
      "velocity": 0,
      "is_motor": true,
      "motor_id": 1,
      "accel_val": 2000,
      "base_duration_us": 132743
    },
    {
      "id": "M_778",
      "pitch": 67,
      "t_note_us": 90796239,
      "t_trigger_us": 90660276,
      "is_ai": false,
      "track_id": 0,
      "velocity": 0,
      "is_motor": true,
      "motor_id": 1,
      "accel_val": 2000,
      "base_duration_us": 530973
    },
    {
      "id": "M_780",
      "pitch": 60,
      "t_note_us": 90796239,
      "t_trigger_us": 90660276,
      "is_ai": false,
      "track_id": 0,
      "velocity": 0,
      "is_motor": true,
      "motor_id": 0,
      "accel_val": 2000,
      "base_duration_us": 796459
    },
    {
      "id": "M_781",
      "pitch": 52,
      "t_note_us": 90796239,
      "t_trigger_us": 90660276,
      "is_ai": false,
      "track_id": 0,
      "velocity": 0,
      "is_motor": true,
      "motor_id": 2,
      "accel_val": 2000,
      "base_duration_us": 796459
    },
    {
      "id": "M_782",
      "pitch": 67,
      "t_note_us": 90796239,
      "t_trigger_us": 90660276,
      "is_ai": false,
      "track_id": 0,
      "velocity": 0,
      "is_motor": true,
      "motor_id": 3,
      "accel_val": 2000,
      "base_duration_us": 796459
    },
    {
      "id": "M_783",
      "pitch": 69,
      "t_note_us": 90796239,
      "t_trigger_us": 90660276,
      "is_ai": false,
      "track_id": 0,
      "velocity": 0,
      "is_motor": true,
      "motor_id": 0,
      "accel_val": 2000,
      "base_duration_us": 796459
    },
    {
      "id": "M_779",
      "pitch": 69,
      "t_note_us": 91327212,
      "t_trigger_us": 91191249,
      "is_ai": false,
      "track_id": 0,
      "velocity": 0,
      "is_motor": true,
      "motor_id": 1,
      "accel_val": 2000,
      "base_duration_us": 265486
    },
    {
      "id": "M_784",
      "pitch": 78,
      "t_note_us": 91592698,
      "t_trigger_us": 91456735,
      "is_ai": false,
      "track_id": 0,
      "velocity": 0,
      "is_motor": true,
      "motor_id": 2,
      "accel_val": 2000,
      "base_duration_us": 398229
    },
    {
      "id": "M_786",
      "pitch": 69,
      "t_note_us": 91592698,
      "t_trigger_us": 91456735,
      "is_ai": false,
      "track_id": 0,
      "velocity": 0,
      "is_motor": true,
      "motor_id": 1,
      "accel_val": 2000,
      "base_duration_us": 796458
    },
    {
      "id": "M_790",
      "pitch": 54,
      "t_note_us": 91592698,
      "t_trigger_us": 91456735,
      "is_ai": false,
      "track_id": 0,
      "velocity": 0,
      "is_motor": true,
      "motor_id": 0,
      "accel_val": 2000,
      "base_duration_us": 1327430
    },
    {
      "id": "M_785",
      "pitch": 76,
      "t_note_us": 91990927,
      "t_trigger_us": 91854964,
      "is_ai": false,
      "track_id": 0,
      "velocity": 0,
      "is_motor": true,
      "motor_id": 2,
      "accel_val": 2000,
      "base_duration_us": 132743
    },
    {
      "id": "M_787",
      "pitch": 74,
      "t_note_us": 92123670,
      "t_trigger_us": 91987707,
      "is_ai": false,
      "track_id": 0,
      "velocity": 0,
      "is_motor": true,
      "motor_id": 2,
      "accel_val": 2000,
      "base_duration_us": 530972
    },
    {
      "id": "M_795",
      "pitch": 98,
      "t_note_us": 92389156,
      "t_trigger_us": 92253193,
      "is_ai": true,
      "track_id": 11,
      "velocity": 0,
      "is_motor": false,
      "motor_id": 0,
      "accel_val": 2000,
      "base_duration_us": 1061945
    },
    {
      "id": "M_789",
      "pitch": 62,
      "t_note_us": 92389156,
      "t_trigger_us": 92253193,
      "is_ai": false,
      "track_id": 0,
      "velocity": 0,
      "is_motor": true,
      "motor_id": 1,
      "accel_val": 2000,
      "base_duration_us": 530972
    },
    {
      "id": "M_788",
      "pitch": 74,
      "t_note_us": 92654642,
      "t_trigger_us": 92518679,
      "is_ai": false,
      "track_id": 0,
      "velocity": 0,
      "is_motor": true,
      "motor_id": 2,
      "accel_val": 2000,
      "base_duration_us": 265486
    },
    {
      "id": "M_791",
      "pitch": 71,
      "t_note_us": 92920128,
      "t_trigger_us": 92784165,
      "is_ai": false,
      "track_id": 0,
      "velocity": 0,
      "is_motor": true,
      "motor_id": 1,
      "accel_val": 2000,
      "base_duration_us": 530973
    },
    {
      "id": "M_792",
      "pitch": 62,
      "t_note_us": 92920128,
      "t_trigger_us": 92784165,
      "is_ai": false,
      "track_id": 0,
      "velocity": 0,
      "is_motor": true,
      "motor_id": 0,
      "accel_val": 2000,
      "base_duration_us": 530973
    },
    {
      "id": "M_793",
      "pitch": 54,
      "t_note_us": 92920128,
      "t_trigger_us": 92784165,
      "is_ai": false,
      "track_id": 0,
      "velocity": 0,
      "is_motor": true,
      "motor_id": 2,
      "accel_val": 2000,
      "base_duration_us": 530973
    },
    {
      "id": "M_794",
      "pitch": 69,
      "t_note_us": 92920128,
      "t_trigger_us": 92784165,
      "is_ai": false,
      "track_id": 0,
      "velocity": 0,
      "is_motor": true,
      "motor_id": 3,
      "accel_val": 2000,
      "base_duration_us": 530973
    },
    {
      "id": "M_802",
      "pitch": 67,
      "t_note_us": 93451101,
      "t_trigger_us": 93315138,
      "is_ai": false,
      "track_id": 0,
      "velocity": 0,
      "is_motor": true,
      "motor_id": 1,
      "accel_val": 2000,
      "base_duration_us": 1061945
    },
    {
      "id": "M_815",
      "pitch": 55,
      "t_note_us": 93451101,
      "t_trigger_us": 93315138,
      "is_ai": false,
      "track_id": 0,
      "velocity": 0,
      "is_motor": true,
      "motor_id": 0,
      "accel_val": 2000,
      "base_duration_us": 1592917
    },
    {
      "id": "M_816",
      "pitch": 71,
      "t_note_us": 93451101,
      "t_trigger_us": 93315138,
      "is_ai": false,
      "track_id": 0,
      "velocity": 0,
      "is_motor": true,
      "motor_id": 2,
      "accel_val": 2000,
      "base_duration_us": 1592917
    },
    {
      "id": "M_796",
      "pitch": 98,
      "t_note_us": 94247560,
      "t_trigger_us": 94111597,
      "is_ai": true,
      "track_id": 11,
      "velocity": 0,
      "is_motor": false,
      "motor_id": 0,
      "accel_val": 2000,
      "base_duration_us": 132743
    },
    {
      "id": "M_797",
      "pitch": 74,
      "t_note_us": 94247560,
      "t_trigger_us": 94111597,
      "is_ai": false,
      "track_id": 0,
      "velocity": 0,
      "is_motor": true,
      "motor_id": 3,
      "accel_val": 2000,
      "base_duration_us": 132743
    },
    {
      "id": "M_798",
      "pitch": 62,
      "t_note_us": 94247560,
      "t_trigger_us": 94111597,
      "is_ai": false,
      "track_id": 0,
      "velocity": 0,
      "is_motor": true,
      "motor_id": 0,
      "accel_val": 2000,
      "base_duration_us": 132743
    },
    {
      "id": "M_801",
      "pitch": 98,
      "t_note_us": 94380303,
      "t_trigger_us": 94244340,
      "is_ai": true,
      "track_id": 11,
      "velocity": 0,
      "is_motor": false,
      "motor_id": 0,
      "accel_val": 2000,
      "base_duration_us": 132743
    },
    {
      "id": "M_799",
      "pitch": 74,
      "t_note_us": 94380303,
      "t_trigger_us": 94244340,
      "is_ai": false,
      "track_id": 0,
      "velocity": 0,
      "is_motor": true,
      "motor_id": 3,
      "accel_val": 2000,
      "base_duration_us": 132743
    },
    {
      "id": "M_800",
      "pitch": 62,
      "t_note_us": 94380303,
      "t_trigger_us": 94244340,
      "is_ai": false,
      "track_id": 0,
      "velocity": 0,
      "is_motor": true,
      "motor_id": 0,
      "accel_val": 2000,
      "base_duration_us": 132743
    },
    {
      "id": "M_806",
      "pitch": 98,
      "t_note_us": 94513046,
      "t_trigger_us": 94377083,
      "is_ai": true,
      "track_id": 11,
      "velocity": 0,
      "is_motor": false,
      "motor_id": 0,
      "accel_val": 2000,
      "base_duration_us": 132743
    },
    {
      "id": "M_803",
      "pitch": 74,
      "t_note_us": 94513046,
      "t_trigger_us": 94377083,
      "is_ai": false,
      "track_id": 0,
      "velocity": 0,
      "is_motor": true,
      "motor_id": 1,
      "accel_val": 2000,
      "base_duration_us": 132743
    },
    {
      "id": "M_804",
      "pitch": 76,
      "t_note_us": 94513046,
      "t_trigger_us": 94377083,
      "is_ai": false,
      "track_id": 0,
      "velocity": 0,
      "is_motor": true,
      "motor_id": 3,
      "accel_val": 2000,
      "base_duration_us": 132743
    },
    {
      "id": "M_805",
      "pitch": 64,
      "t_note_us": 94513046,
      "t_trigger_us": 94377083,
      "is_ai": false,
      "track_id": 0,
      "velocity": 0,
      "is_motor": true,
      "motor_id": 0,
      "accel_val": 2000,
      "base_duration_us": 132743
    },
    {
      "id": "M_807",
      "pitch": 76,
      "t_note_us": 94645789,
      "t_trigger_us": 94509826,
      "is_ai": false,
      "track_id": 0,
      "velocity": 0,
      "is_motor": true,
      "motor_id": 1,
      "accel_val": 2000,
      "base_duration_us": 132743
    },
    {
      "id": "M_809",
      "pitch": 67,
      "t_note_us": 94645789,
      "t_trigger_us": 94509826,
      "is_ai": false,
      "track_id": 0,
      "velocity": 0,
      "is_motor": true,
      "motor_id": 3,
      "accel_val": 2000,
      "base_duration_us": 265486
    },
    {
      "id": "M_810",
      "pitch": 67,
      "t_note_us": 94645789,
      "t_trigger_us": 94509826,
      "is_ai": false,
      "track_id": 0,
      "velocity": 0,
      "is_motor": true,
      "motor_id": 0,
      "accel_val": 2000,
      "base_duration_us": 265486
    },
    {
      "id": "M_808",
      "pitch": 67,
      "t_note_us": 94778532,
      "t_trigger_us": 94642569,
      "is_ai": false,
      "track_id": 0,
      "velocity": 0,
      "is_motor": true,
      "motor_id": 1,
      "accel_val": 2000,
      "base_duration_us": 132743
    },
    {
      "id": "M_811",
      "pitch": 76,
      "t_note_us": 94911275,
      "t_trigger_us": 94775312,
      "is_ai": false,
      "track_id": 0,
      "velocity": 0,
      "is_motor": true,
      "motor_id": 1,
      "accel_val": 2000,
      "base_duration_us": 132743
    },
    {
      "id": "M_812",
      "pitch": 67,
      "t_note_us": 94911275,
      "t_trigger_us": 94775312,
      "is_ai": false,
      "track_id": 0,
      "velocity": 0,
      "is_motor": true,
      "motor_id": 3,
      "accel_val": 2000,
      "base_duration_us": 132743
    },
    {
      "id": "M_813",
      "pitch": 67,
      "t_note_us": 94911275,
      "t_trigger_us": 94775312,
      "is_ai": false,
      "track_id": 0,
      "velocity": 0,
      "is_motor": true,
      "motor_id": 0,
      "accel_val": 2000,
      "base_duration_us": 132743
    },
    {
      "id": "M_814",
      "pitch": 67,
      "t_note_us": 94911275,
      "t_trigger_us": 94775312,
      "is_ai": false,
      "track_id": 0,
      "velocity": 0,
      "is_motor": true,
      "motor_id": 0,
      "accel_val": 2000,
      "base_duration_us": 132743
    },
    {
      "id": "M_817",
      "pitch": 83,
      "t_note_us": 95044018,
      "t_trigger_us": 94908055,
      "is_ai": true,
      "track_id": 2,
      "velocity": 0,
      "is_motor": false,
      "motor_id": 0,
      "accel_val": 2000,
      "base_duration_us": 398229
    },
    {
      "id": "M_818",
      "pitch": 95,
      "t_note_us": 95044018,
      "t_trigger_us": 94908055,
      "is_ai": true,
      "track_id": 9,
      "velocity": 0,
      "is_motor": false,
      "motor_id": 0,
      "accel_val": 2000,
      "base_duration_us": 398229
    },
    {
      "id": "M_821",
      "pitch": 67,
      "t_note_us": 95044018,
      "t_trigger_us": 94908055,
      "is_ai": false,
      "track_id": 0,
      "velocity": 0,
      "is_motor": true,
      "motor_id": 1,
      "accel_val": 2000,
      "base_duration_us": 796458
    },
    {
      "id": "M_822",
      "pitch": 67,
      "t_note_us": 95044018,
      "t_trigger_us": 94908055,
      "is_ai": false,
      "track_id": 0,
      "velocity": 0,
      "is_motor": true,
      "motor_id": 2,
      "accel_val": 2000,
      "base_duration_us": 796458
    },
    {
      "id": "M_823",
      "pitch": 64,
      "t_note_us": 95044018,
      "t_trigger_us": 94908055,
      "is_ai": false,
      "track_id": 0,
      "velocity": 0,
      "is_motor": true,
      "motor_id": 0,
      "accel_val": 2000,
      "base_duration_us": 796458
    },
    {
      "id": "M_824",
      "pitch": 55,
      "t_note_us": 95044018,
      "t_trigger_us": 94908055,
      "is_ai": false,
      "track_id": 0,
      "velocity": 0,
      "is_motor": true,
      "motor_id": 3,
      "accel_val": 2000,
      "base_duration_us": 796458
    },
    {
      "id": "M_825",
      "pitch": 72,
      "t_note_us": 95044018,
      "t_trigger_us": 94908055,
      "is_ai": false,
      "track_id": 0,
      "velocity": 0,
      "is_motor": true,
      "motor_id": 0,
      "accel_val": 2000,
      "base_duration_us": 796458
    },
    {
      "id": "M_820",
      "pitch": 95,
      "t_note_us": 95442247,
      "t_trigger_us": 95306284,
      "is_ai": true,
      "track_id": 9,
      "velocity": 0,
      "is_motor": false,
      "motor_id": 0,
      "accel_val": 2000,
      "base_duration_us": 398229
    },
    {
      "id": "M_819",
      "pitch": 71,
      "t_note_us": 95442247,
      "t_trigger_us": 95306284,
      "is_ai": false,
      "track_id": 0,
      "velocity": 0,
      "is_motor": true,
      "motor_id": 0,
      "accel_val": 2000,
      "base_duration_us": 398229
    },
    {
      "id": "M_827",
      "pitch": 93,
      "t_note_us": 95840476,
      "t_trigger_us": 95704513,
      "is_ai": true,
      "track_id": 8,
      "velocity": 0,
      "is_motor": false,
      "motor_id": 0,
      "accel_val": 2000,
      "base_duration_us": 796459
    },
    {
      "id": "M_826",
      "pitch": 69,
      "t_note_us": 95840476,
      "t_trigger_us": 95704513,
      "is_ai": false,
      "track_id": 0,
      "velocity": 0,
      "is_motor": true,
      "motor_id": 1,
      "accel_val": 2000,
      "base_duration_us": 796459
    },
    {
      "id": "M_828",
      "pitch": 69,
      "t_note_us": 95840476,
      "t_trigger_us": 95704513,
      "is_ai": false,
      "track_id": 0,
      "velocity": 0,
      "is_motor": true,
      "motor_id": 2,
      "accel_val": 2000,
      "base_duration_us": 796459
    },
    {
      "id": "M_834",
      "pitch": 57,
      "t_note_us": 95840476,
      "t_trigger_us": 95704513,
      "is_ai": false,
      "track_id": 0,
      "velocity": 0,
      "is_motor": true,
      "motor_id": 0,
      "accel_val": 2000,
      "base_duration_us": 1327431
    },
    {
      "id": "M_835",
      "pitch": 66,
      "t_note_us": 95840476,
      "t_trigger_us": 95704513,
      "is_ai": false,
      "track_id": 0,
      "velocity": 0,
      "is_motor": true,
      "motor_id": 3,
      "accel_val": 2000,
      "base_duration_us": 1327431
    },
    {
      "id": "M_829",
      "pitch": 74,
      "t_note_us": 96636935,
      "t_trigger_us": 96500972,
      "is_ai": false,
      "track_id": 0,
      "velocity": 0,
      "is_motor": true,
      "motor_id": 1,
      "accel_val": 2000,
      "base_duration_us": 132743
    },
    {
      "id": "M_833",
      "pitch": 62,
      "t_note_us": 96636935,
      "t_trigger_us": 96500972,
      "is_ai": false,
      "track_id": 0,
      "velocity": 0,
      "is_motor": true,
      "motor_id": 2,
      "accel_val": 2000,
      "base_duration_us": 530972
    },
    {
      "id": "M_830",
      "pitch": 76,
      "t_note_us": 96769678,
      "t_trigger_us": 96633715,
      "is_ai": false,
      "track_id": 0,
      "velocity": 0,
      "is_motor": true,
      "motor_id": 1,
      "accel_val": 2000,
      "base_duration_us": 132743
    },
    {
      "id": "M_831",
      "pitch": 67,
      "t_note_us": 96902421,
      "t_trigger_us": 96766458,
      "is_ai": false,
      "track_id": 0,
      "velocity": 0,
      "is_motor": true,
      "motor_id": 1,
      "accel_val": 2000,
      "base_duration_us": 132743
    },
    {
      "id": "M_832",
      "pitch": 76,
      "t_note_us": 97035164,
      "t_trigger_us": 96899201,
      "is_ai": false,
      "track_id": 0,
      "velocity": 0,
      "is_motor": true,
      "motor_id": 1,
      "accel_val": 2000,
      "base_duration_us": 132743
    },
    {
      "id": "M_836",
      "pitch": 74,
      "t_note_us": 97167907,
      "t_trigger_us": 97031944,
      "is_ai": false,
      "track_id": 0,
      "velocity": 0,
      "is_motor": true,
      "motor_id": 1,
      "accel_val": 2000,
      "base_duration_us": 530973
    },
    {
      "id": "M_838",
      "pitch": 59,
      "t_note_us": 97167907,
      "t_trigger_us": 97031944,
      "is_ai": false,
      "track_id": 0,
      "velocity": 0,
      "is_motor": true,
      "motor_id": 0,
      "accel_val": 2000,
      "base_duration_us": 796459
    },
    {
      "id": "M_839",
      "pitch": 74,
      "t_note_us": 97167907,
      "t_trigger_us": 97031944,
      "is_ai": false,
      "track_id": 0,
      "velocity": 0,
      "is_motor": true,
      "motor_id": 2,
      "accel_val": 2000,
      "base_duration_us": 796459
    },
    {
      "id": "M_840",
      "pitch": 66,
      "t_note_us": 97167907,
      "t_trigger_us": 97031944,
      "is_ai": false,
      "track_id": 0,
      "velocity": 0,
      "is_motor": true,
      "motor_id": 3,
      "accel_val": 2000,
      "base_duration_us": 796459
    },
    {
      "id": "M_841",
      "pitch": 69,
      "t_note_us": 97167907,
      "t_trigger_us": 97031944,
      "is_ai": false,
      "track_id": 0,
      "velocity": 0,
      "is_motor": true,
      "motor_id": 0,
      "accel_val": 2000,
      "base_duration_us": 796459
    },
    {
      "id": "M_837",
      "pitch": 78,
      "t_note_us": 97698880,
      "t_trigger_us": 97562917,
      "is_ai": false,
      "track_id": 0,
      "velocity": 0,
      "is_motor": true,
      "motor_id": 1,
      "accel_val": 2000,
      "base_duration_us": 265486
    },
    {
      "id": "M_843",
      "pitch": 103,
      "t_note_us": 97964366,
      "t_trigger_us": 97828403,
      "is_ai": true,
      "track_id": 14,
      "velocity": 0,
      "is_motor": false,
      "motor_id": 0,
      "accel_val": 2000,
      "base_duration_us": 398229
    },
    {
      "id": "M_842",
      "pitch": 67,
      "t_note_us": 97964366,
      "t_trigger_us": 97828403,
      "is_ai": false,
      "track_id": 0,
      "velocity": 0,
      "is_motor": true,
      "motor_id": 1,
      "accel_val": 2000,
      "base_duration_us": 398229
    },
    {
      "id": "M_848",
      "pitch": 71,
      "t_note_us": 97964366,
      "t_trigger_us": 97828403,
      "is_ai": false,
      "track_id": 0,
      "velocity": 0,
      "is_motor": true,
      "motor_id": 2,
      "accel_val": 2000,
      "base_duration_us": 796458
    },
    {
      "id": "M_858",
      "pitch": 67,
      "t_note_us": 97964366,
      "t_trigger_us": 97828403,
      "is_ai": false,
      "track_id": 0,
      "velocity": 0,
      "is_motor": true,
      "motor_id": 0,
      "accel_val": 2000,
      "base_duration_us": 1327430
    },
    {
      "id": "M_859",
      "pitch": 59,
      "t_note_us": 97964366,
      "t_trigger_us": 97828403,
      "is_ai": false,
      "track_id": 0,
      "velocity": 0,
      "is_motor": true,
      "motor_id": 3,
      "accel_val": 2000,
      "base_duration_us": 1327430
    },
    {
      "id": "M_844",
      "pitch": 102,
      "t_note_us": 98362595,
      "t_trigger_us": 98226632,
      "is_ai": true,
      "track_id": 0,
      "velocity": 0,
      "is_motor": true,
      "motor_id": 1,
      "accel_val": 2000,
      "base_duration_us": 132743
    },
    {
      "id": "M_845",
      "pitch": 78,
      "t_note_us": 98362595,
      "t_trigger_us": 98226632,
      "is_ai": false,
      "track_id": 0,
      "velocity": 0,
      "is_motor": true,
      "motor_id": 0,
      "accel_val": 2000,
      "base_duration_us": 132743
    },
    {
      "id": "M_846",
      "pitch": 100,
      "t_note_us": 98495338,
      "t_trigger_us": 98359375,
      "is_ai": true,
      "track_id": 12,
      "velocity": 0,
      "is_motor": false,
      "motor_id": 0,
      "accel_val": 2000,
      "base_duration_us": 265486
    },
    {
      "id": "M_847",
      "pitch": 76,
      "t_note_us": 98495338,
      "t_trigger_us": 98359375,
      "is_ai": false,
      "track_id": 0,
      "velocity": 0,
      "is_motor": true,
      "motor_id": 1,
      "accel_val": 2000,
      "base_duration_us": 265486
    },
    {
      "id": "M_850",
      "pitch": 98,
      "t_note_us": 98760824,
      "t_trigger_us": 98624861,
      "is_ai": true,
      "track_id": 11,
      "velocity": 0,
      "is_motor": false,
      "motor_id": 0,
      "accel_val": 2000,
      "base_duration_us": 132743
    },
    {
      "id": "M_849",
      "pitch": 74,
      "t_note_us": 98760824,
      "t_trigger_us": 98624861,
      "is_ai": false,
      "track_id": 0,
      "velocity": 0,
      "is_motor": true,
      "motor_id": 1,
      "accel_val": 2000,
      "base_duration_us": 132743
    },
    {
      "id": "M_853",
      "pitch": 96,
      "t_note_us": 98893567,
      "t_trigger_us": 98757604,
      "is_ai": true,
      "track_id": 10,
      "velocity": 0,
      "is_motor": false,
      "motor_id": 0,
      "accel_val": 2000,
      "base_duration_us": 132743
    },
    {
      "id": "M_851",
      "pitch": 72,
      "t_note_us": 98893567,
      "t_trigger_us": 98757604,
      "is_ai": false,
      "track_id": 0,
      "velocity": 0,
      "is_motor": true,
      "motor_id": 1,
      "accel_val": 2000,
      "base_duration_us": 132743
    },
    {
      "id": "M_852",
      "pitch": 76,
      "t_note_us": 98893567,
      "t_trigger_us": 98757604,
      "is_ai": false,
      "track_id": 0,
      "velocity": 0,
      "is_motor": true,
      "motor_id": 2,
      "accel_val": 2000,
      "base_duration_us": 132743
    },
    {
      "id": "M_856",
      "pitch": 95,
      "t_note_us": 99026310,
      "t_trigger_us": 98890347,
      "is_ai": true,
      "track_id": 9,
      "velocity": 0,
      "is_motor": false,
      "motor_id": 0,
      "accel_val": 2000,
      "base_duration_us": 265486
    },
    {
      "id": "M_854",
      "pitch": 67,
      "t_note_us": 99026310,
      "t_trigger_us": 98890347,
      "is_ai": false,
      "track_id": 0,
      "velocity": 0,
      "is_motor": true,
      "motor_id": 1,
      "accel_val": 2000,
      "base_duration_us": 132743
    },
    {
      "id": "M_857",
      "pitch": 71,
      "t_note_us": 99026310,
      "t_trigger_us": 98890347,
      "is_ai": false,
      "track_id": 0,
      "velocity": 0,
      "is_motor": true,
      "motor_id": 2,
      "accel_val": 2000,
      "base_duration_us": 265486
    },
    {
      "id": "M_855",
      "pitch": 76,
      "t_note_us": 99159053,
      "t_trigger_us": 99023090,
      "is_ai": false,
      "track_id": 0,
      "velocity": 0,
      "is_motor": true,
      "motor_id": 1,
      "accel_val": 2000,
      "base_duration_us": 132743
    },
    {
      "id": "M_860",
      "pitch": 67,
      "t_note_us": 99291796,
      "t_trigger_us": 99155833,
      "is_ai": false,
      "track_id": 0,
      "velocity": 0,
      "is_motor": true,
      "motor_id": 1,
      "accel_val": 2000,
      "base_duration_us": 530973
    },
    {
      "id": "M_863",
      "pitch": 69,
      "t_note_us": 99291796,
      "t_trigger_us": 99155833,
      "is_ai": false,
      "track_id": 0,
      "velocity": 0,
      "is_motor": true,
      "motor_id": 2,
      "accel_val": 2000,
      "base_duration_us": 796459
    },
    {
      "id": "M_864",
      "pitch": 60,
      "t_note_us": 99291796,
      "t_trigger_us": 99155833,
      "is_ai": false,
      "track_id": 0,
      "velocity": 0,
      "is_motor": true,
      "motor_id": 0,
      "accel_val": 2000,
      "base_duration_us": 796459
    },
    {
      "id": "M_865",
      "pitch": 76,
      "t_note_us": 99291796,
      "t_trigger_us": 99155833,
      "is_ai": false,
      "track_id": 0,
      "velocity": 0,
      "is_motor": true,
      "motor_id": 3,
      "accel_val": 2000,
      "base_duration_us": 796459
    },
    {
      "id": "M_866",
      "pitch": 67,
      "t_note_us": 99291796,
      "t_trigger_us": 99155833,
      "is_ai": false,
      "track_id": 0,
      "velocity": 0,
      "is_motor": true,
      "motor_id": 0,
      "accel_val": 2000,
      "base_duration_us": 796459
    },
    {
      "id": "M_862",
      "pitch": 93,
      "t_note_us": 99822769,
      "t_trigger_us": 99686806,
      "is_ai": true,
      "track_id": 8,
      "velocity": 0,
      "is_motor": false,
      "motor_id": 0,
      "accel_val": 2000,
      "base_duration_us": 265486
    },
    {
      "id": "M_861",
      "pitch": 69,
      "t_note_us": 99822769,
      "t_trigger_us": 99686806,
      "is_ai": false,
      "track_id": 0,
      "velocity": 0,
      "is_motor": true,
      "motor_id": 1,
      "accel_val": 2000,
      "base_duration_us": 265486
    },
    {
      "id": "M_868",
      "pitch": 102,
      "t_note_us": 100088255,
      "t_trigger_us": 99952292,
      "is_ai": true,
      "track_id": 0,
      "velocity": 0,
      "is_motor": true,
      "motor_id": 3,
      "accel_val": 2000,
      "base_duration_us": 398229
    },
    {
      "id": "M_867",
      "pitch": 78,
      "t_note_us": 100088255,
      "t_trigger_us": 99952292,
      "is_ai": false,
      "track_id": 0,
      "velocity": 0,
      "is_motor": true,
      "motor_id": 2,
      "accel_val": 2000,
      "base_duration_us": 398229
    },
    {
      "id": "M_871",
      "pitch": 69,
      "t_note_us": 100088255,
      "t_trigger_us": 99952292,
      "is_ai": false,
      "track_id": 0,
      "velocity": 0,
      "is_motor": true,
      "motor_id": 1,
      "accel_val": 2000,
      "base_duration_us": 796458
    },
    {
      "id": "M_870",
      "pitch": 100,
      "t_note_us": 100486484,
      "t_trigger_us": 100350521,
      "is_ai": true,
      "track_id": 12,
      "velocity": 0,
      "is_motor": false,
      "motor_id": 0,
      "accel_val": 2000,
      "base_duration_us": 132743
    },
    {
      "id": "M_869",
      "pitch": 76,
      "t_note_us": 100486484,
      "t_trigger_us": 100350521,
      "is_ai": false,
      "track_id": 0,
      "velocity": 0,
      "is_motor": true,
      "motor_id": 2,
      "accel_val": 2000,
      "base_duration_us": 132743
    },
    {
      "id": "M_872",
      "pitch": 74,
      "t_note_us": 100619227,
      "t_trigger_us": 100483264,
      "is_ai": false,
      "track_id": 0,
      "velocity": 0,
      "is_motor": true,
      "motor_id": 0,
      "accel_val": 2000,
      "base_duration_us": 530972
    },
    {
      "id": "M_873",
      "pitch": 74,
      "t_note_us": 100619227,
      "t_trigger_us": 100483264,
      "is_ai": false,
      "track_id": 0,
      "velocity": 0,
      "is_motor": true,
      "motor_id": 2,
      "accel_val": 2000,
      "base_duration_us": 530972
    },
    {
      "id": "M_876",
      "pitch": 62,
      "t_note_us": 100884713,
      "t_trigger_us": 100748750,
      "is_ai": false,
      "track_id": 0,
      "velocity": 0,
      "is_motor": true,
      "motor_id": 1,
      "accel_val": 2000,
      "base_duration_us": 530972
    },
    {
      "id": "M_874",
      "pitch": 98,
      "t_note_us": 101150199,
      "t_trigger_us": 101014236,
      "is_ai": true,
      "track_id": 11,
      "velocity": 0,
      "is_motor": false,
      "motor_id": 0,
      "accel_val": 2000,
      "base_duration_us": 265486
    },
    {
      "id": "M_875",
      "pitch": 74,
      "t_note_us": 101150199,
      "t_trigger_us": 101014236,
      "is_ai": false,
      "track_id": 0,
      "velocity": 0,
      "is_motor": true,
      "motor_id": 0,
      "accel_val": 2000,
      "base_duration_us": 265486
    },
    {
      "id": "M_882",
      "pitch": 93,
      "t_note_us": 101415685,
      "t_trigger_us": 101279722,
      "is_ai": true,
      "track_id": 8,
      "velocity": 0,
      "is_motor": false,
      "motor_id": 0,
      "accel_val": 2000,
      "base_duration_us": 530972
    },
    {
      "id": "M_877",
      "pitch": 66,
      "t_note_us": 101415685,
      "t_trigger_us": 101279722,
      "is_ai": false,
      "track_id": 0,
      "velocity": 0,
      "is_motor": true,
      "motor_id": 1,
      "accel_val": 2000,
      "base_duration_us": 265486
    },
    {
      "id": "M_879",
      "pitch": 62,
      "t_note_us": 101415685,
      "t_trigger_us": 101279722,
      "is_ai": false,
      "track_id": 0,
      "velocity": 0,
      "is_motor": true,
      "motor_id": 0,
      "accel_val": 2000,
      "base_duration_us": 530972
    },
    {
      "id": "M_880",
      "pitch": 69,
      "t_note_us": 101415685,
      "t_trigger_us": 101279722,
      "is_ai": false,
      "track_id": 0,
      "velocity": 0,
      "is_motor": true,
      "motor_id": 2,
      "accel_val": 2000,
      "base_duration_us": 530972
    },
    {
      "id": "M_881",
      "pitch": 78,
      "t_note_us": 101415685,
      "t_trigger_us": 101279722,
      "is_ai": false,
      "track_id": 0,
      "velocity": 0,
      "is_motor": true,
      "motor_id": 3,
      "accel_val": 2000,
      "base_duration_us": 530972
    },
    {
      "id": "M_883",
      "pitch": 71,
      "t_note_us": 101415685,
      "t_trigger_us": 101279722,
      "is_ai": false,
      "track_id": 0,
      "velocity": 0,
      "is_motor": true,
      "motor_id": 0,
      "accel_val": 2000,
      "base_duration_us": 530972
    },
    {
      "id": "M_878",
      "pitch": 67,
      "t_note_us": 101681171,
      "t_trigger_us": 101545208,
      "is_ai": false,
      "track_id": 0,
      "velocity": 0,
      "is_motor": true,
      "motor_id": 1,
      "accel_val": 2000,
      "base_duration_us": 265486
    },
    {
      "id": "M_886",
      "pitch": 103,
      "t_note_us": 101946657,
      "t_trigger_us": 101810694,
      "is_ai": true,
      "track_id": 14,
      "velocity": 0,
      "is_motor": false,
      "motor_id": 0,
      "accel_val": 2000,
      "base_duration_us": 1061946
    },
    {
      "id": "M_884",
      "pitch": 67,
      "t_note_us": 101946657,
      "t_trigger_us": 101810694,
      "is_ai": false,
      "track_id": 0,
      "velocity": 0,
      "is_motor": true,
      "motor_id": 1,
      "accel_val": 2000,
      "base_duration_us": 530973
    },
    {
      "id": "M_885",
      "pitch": 71,
      "t_note_us": 101946657,
      "t_trigger_us": 101810694,
      "is_ai": false,
      "track_id": 0,
      "velocity": 0,
      "is_motor": true,
      "motor_id": 2,
      "accel_val": 2000,
      "base_duration_us": 1061946
    },
    {
      "id": "M_887",
      "pitch": 64,
      "t_note_us": 101946657,
      "t_trigger_us": 101810694,
      "is_ai": false,
      "track_id": 0,
      "velocity": 0,
      "is_motor": true,
      "motor_id": 0,
      "accel_val": 2000,
      "base_duration_us": 1061946
    },
    {
      "id": "M_888",
      "pitch": 67,
      "t_note_us": 101946657,
      "t_trigger_us": 101810694,
      "is_ai": false,
      "track_id": 0,
      "velocity": 0,
      "is_motor": true,
      "motor_id": 3,
      "accel_val": 2000,
      "base_duration_us": 1061946
    },
    {
      "id": "M_889",
      "pitch": 74,
      "t_note_us": 103008603,
      "t_trigger_us": 102872640,
      "is_ai": false,
      "track_id": 0,
      "velocity": 0,
      "is_motor": true,
      "motor_id": 1,
      "accel_val": 2000,
      "base_duration_us": 132743
    },
    {
      "id": "M_890",
      "pitch": 67,
      "t_note_us": 103008603,
      "t_trigger_us": 102872640,
      "is_ai": false,
      "track_id": 0,
      "velocity": 0,
      "is_motor": true,
      "motor_id": 2,
      "accel_val": 2000,
      "base_duration_us": 132743
    },
    {
      "id": "M_896",
      "pitch": 67,
      "t_note_us": 103008603,
      "t_trigger_us": 102872640,
      "is_ai": false,
      "track_id": 0,
      "velocity": 0,
      "is_motor": true,
      "motor_id": 0,
      "accel_val": 2000,
      "base_duration_us": 530972
    },
    {
      "id": "M_891",
      "pitch": 76,
      "t_note_us": 103141346,
      "t_trigger_us": 103005383,
      "is_ai": false,
      "track_id": 0,
      "velocity": 0,
      "is_motor": true,
      "motor_id": 2,
      "accel_val": 2000,
      "base_duration_us": 132743
    },
    {
      "id": "M_893",
      "pitch": 67,
      "t_note_us": 103141346,
      "t_trigger_us": 103005383,
      "is_ai": false,
      "track_id": 0,
      "velocity": 0,
      "is_motor": true,
      "motor_id": 1,
      "accel_val": 2000,
      "base_duration_us": 265486
    },
    {
      "id": "M_892",
      "pitch": 67,
      "t_note_us": 103274089,
      "t_trigger_us": 103138126,
      "is_ai": false,
      "track_id": 0,
      "velocity": 0,
      "is_motor": true,
      "motor_id": 2,
      "accel_val": 2000,
      "base_duration_us": 132743
    },
    {
      "id": "M_894",
      "pitch": 76,
      "t_note_us": 103406832,
      "t_trigger_us": 103270869,
      "is_ai": false,
      "track_id": 0,
      "velocity": 0,
      "is_motor": true,
      "motor_id": 2,
      "accel_val": 2000,
      "base_duration_us": 132743
    },
    {
      "id": "M_895",
      "pitch": 67,
      "t_note_us": 103406832,
      "t_trigger_us": 103270869,
      "is_ai": false,
      "track_id": 0,
      "velocity": 0,
      "is_motor": true,
      "motor_id": 1,
      "accel_val": 2000,
      "base_duration_us": 132743
    },
    {
      "id": "M_899",
      "pitch": 95,
      "t_note_us": 103539575,
      "t_trigger_us": 103403612,
      "is_ai": true,
      "track_id": 9,
      "velocity": 0,
      "is_motor": false,
      "motor_id": 0,
      "accel_val": 2000,
      "base_duration_us": 398229
    },
    {
      "id": "M_897",
      "pitch": 71,
      "t_note_us": 103539575,
      "t_trigger_us": 103403612,
      "is_ai": false,
      "track_id": 0,
      "velocity": 0,
      "is_motor": true,
      "motor_id": 1,
      "accel_val": 2000,
      "base_duration_us": 398229
    },
    {
      "id": "M_898",
      "pitch": 60,
      "t_note_us": 103539575,
      "t_trigger_us": 103403612,
      "is_ai": false,
      "track_id": 0,
      "velocity": 0,
      "is_motor": true,
      "motor_id": 0,
      "accel_val": 2000,
      "base_duration_us": 398229
    },
    {
      "id": "M_904",
      "pitch": 67,
      "t_note_us": 103539575,
      "t_trigger_us": 103403612,
      "is_ai": false,
      "track_id": 0,
      "velocity": 0,
      "is_motor": true,
      "motor_id": 2,
      "accel_val": 2000,
      "base_duration_us": 796458
    },
    {
      "id": "M_905",
      "pitch": 67,
      "t_note_us": 103539575,
      "t_trigger_us": 103403612,
      "is_ai": false,
      "track_id": 0,
      "velocity": 0,
      "is_motor": true,
      "motor_id": 3,
      "accel_val": 2000,
      "base_duration_us": 796458
    },
    {
      "id": "M_906",
      "pitch": 55,
      "t_note_us": 103539575,
      "t_trigger_us": 103403612,
      "is_ai": false,
      "track_id": 0,
      "velocity": 0,
      "is_motor": true,
      "motor_id": 0,
      "accel_val": 2000,
      "base_duration_us": 796458
    },
    {
      "id": "M_907",
      "pitch": 48,
      "t_note_us": 103539575,
      "t_trigger_us": 103403612,
      "is_ai": false,
      "track_id": 0,
      "velocity": 0,
      "is_motor": true,
      "motor_id": 0,
      "accel_val": 2000,
      "base_duration_us": 796458
    },
    {
      "id": "M_908",
      "pitch": 64,
      "t_note_us": 103539575,
      "t_trigger_us": 103403612,
      "is_ai": false,
      "track_id": 0,
      "velocity": 0,
      "is_motor": true,
      "motor_id": 0,
      "accel_val": 2000,
      "base_duration_us": 796458
    },
    {
      "id": "M_903",
      "pitch": 95,
      "t_note_us": 103937804,
      "t_trigger_us": 103801841,
      "is_ai": true,
      "track_id": 9,
      "velocity": 0,
      "is_motor": false,
      "motor_id": 0,
      "accel_val": 2000,
      "base_duration_us": 398229
    },
    {
      "id": "M_900",
      "pitch": 60,
      "t_note_us": 103937804,
      "t_trigger_us": 103801841,
      "is_ai": false,
      "track_id": 0,
      "velocity": 0,
      "is_motor": true,
      "motor_id": 1,
      "accel_val": 2000,
      "base_duration_us": 132743
    },
    {
      "id": "M_902",
      "pitch": 71,
      "t_note_us": 103937804,
      "t_trigger_us": 103801841,
      "is_ai": false,
      "track_id": 0,
      "velocity": 0,
      "is_motor": true,
      "motor_id": 0,
      "accel_val": 2000,
      "base_duration_us": 398229
    },
    {
      "id": "M_901",
      "pitch": 60,
      "t_note_us": 104070547,
      "t_trigger_us": 103934584,
      "is_ai": false,
      "track_id": 0,
      "velocity": 0,
      "is_motor": true,
      "motor_id": 1,
      "accel_val": 2000,
      "base_duration_us": 265486
    },
    {
      "id": "M_912",
      "pitch": 93,
      "t_note_us": 104336033,
      "t_trigger_us": 104200070,
      "is_ai": true,
      "track_id": 8,
      "velocity": 0,
      "is_motor": false,
      "motor_id": 0,
      "accel_val": 2000,
      "base_duration_us": 796459
    },
    {
      "id": "M_913",
      "pitch": 93,
      "t_note_us": 104336033,
      "t_trigger_us": 104200070,
      "is_ai": true,
      "track_id": 8,
      "velocity": 0,
      "is_motor": false,
      "motor_id": 0,
      "accel_val": 2000,
      "base_duration_us": 796459
    },
    {
      "id": "M_909",
      "pitch": 62,
      "t_note_us": 104336033,
      "t_trigger_us": 104200070,
      "is_ai": false,
      "track_id": 0,
      "velocity": 0,
      "is_motor": true,
      "motor_id": 1,
      "accel_val": 2000,
      "base_duration_us": 530973
    },
    {
      "id": "M_911",
      "pitch": 69,
      "t_note_us": 104336033,
      "t_trigger_us": 104200070,
      "is_ai": false,
      "track_id": 0,
      "velocity": 0,
      "is_motor": true,
      "motor_id": 2,
      "accel_val": 2000,
      "base_duration_us": 796459
    },
    {
      "id": "M_914",
      "pitch": 69,
      "t_note_us": 104336033,
      "t_trigger_us": 104200070,
      "is_ai": false,
      "track_id": 0,
      "velocity": 0,
      "is_motor": true,
      "motor_id": 0,
      "accel_val": 2000,
      "base_duration_us": 796459
    },
    {
      "id": "M_923",
      "pitch": 50,
      "t_note_us": 104336033,
      "t_trigger_us": 104200070,
      "is_ai": false,
      "track_id": 0,
      "velocity": 0,
      "is_motor": true,
      "motor_id": 3,
      "accel_val": 2000,
      "base_duration_us": 1327431
    },
    {
      "id": "M_924",
      "pitch": 57,
      "t_note_us": 104336033,
      "t_trigger_us": 104200070,
      "is_ai": false,
      "track_id": 0,
      "velocity": 0,
      "is_motor": true,
      "motor_id": 0,
      "accel_val": 2000,
      "base_duration_us": 1327431
    },
    {
      "id": "M_925",
      "pitch": 66,
      "t_note_us": 104336033,
      "t_trigger_us": 104200070,
      "is_ai": false,
      "track_id": 0,
      "velocity": 0,
      "is_motor": true,
      "motor_id": 0,
      "accel_val": 2000,
      "base_duration_us": 1327431
    },
    {
      "id": "M_910",
      "pitch": 62,
      "t_note_us": 104867006,
      "t_trigger_us": 104731043,
      "is_ai": false,
      "track_id": 0,
      "velocity": 0,
      "is_motor": true,
      "motor_id": 1,
      "accel_val": 2000,
      "base_duration_us": 265486
    },
    {
      "id": "M_915",
      "pitch": 74,
      "t_note_us": 105132492,
      "t_trigger_us": 104996529,
      "is_ai": false,
      "track_id": 0,
      "velocity": 0,
      "is_motor": true,
      "motor_id": 1,
      "accel_val": 2000,
      "base_duration_us": 132743
    },
    {
      "id": "M_917",
      "pitch": 62,
      "t_note_us": 105132492,
      "t_trigger_us": 104996529,
      "is_ai": false,
      "track_id": 0,
      "velocity": 0,
      "is_motor": true,
      "motor_id": 0,
      "accel_val": 2000,
      "base_duration_us": 265486
    },
    {
      "id": "M_921",
      "pitch": 74,
      "t_note_us": 105132492,
      "t_trigger_us": 104996529,
      "is_ai": false,
      "track_id": 0,
      "velocity": 0,
      "is_motor": true,
      "motor_id": 2,
      "accel_val": 2000,
      "base_duration_us": 530972
    },
    {
      "id": "M_922",
      "pitch": 74,
      "t_note_us": 105132492,
      "t_trigger_us": 104996529,
      "is_ai": false,
      "track_id": 0,
      "velocity": 0,
      "is_motor": true,
      "motor_id": 0,
      "accel_val": 2000,
      "base_duration_us": 530972
    },
    {
      "id": "M_916",
      "pitch": 76,
      "t_note_us": 105265235,
      "t_trigger_us": 105129272,
      "is_ai": false,
      "track_id": 0,
      "velocity": 0,
      "is_motor": true,
      "motor_id": 1,
      "accel_val": 2000,
      "base_duration_us": 132743
    },
    {
      "id": "M_918",
      "pitch": 67,
      "t_note_us": 105397978,
      "t_trigger_us": 105262015,
      "is_ai": false,
      "track_id": 0,
      "velocity": 0,
      "is_motor": true,
      "motor_id": 1,
      "accel_val": 2000,
      "base_duration_us": 132743
    },
    {
      "id": "M_920",
      "pitch": 62,
      "t_note_us": 105397978,
      "t_trigger_us": 105262015,
      "is_ai": false,
      "track_id": 0,
      "velocity": 0,
      "is_motor": true,
      "motor_id": 0,
      "accel_val": 2000,
      "base_duration_us": 265486
    },
    {
      "id": "M_919",
      "pitch": 76,
      "t_note_us": 105530721,
      "t_trigger_us": 105394758,
      "is_ai": false,
      "track_id": 0,
      "velocity": 0,
      "is_motor": true,
      "motor_id": 1,
      "accel_val": 2000,
      "base_duration_us": 132743
    },
    {
      "id": "M_928",
      "pitch": 93,
      "t_note_us": 105663464,
      "t_trigger_us": 105527501,
      "is_ai": true,
      "track_id": 8,
      "velocity": 0,
      "is_motor": false,
      "motor_id": 0,
      "accel_val": 2000,
      "base_duration_us": 398229
    },
    {
      "id": "M_933",
      "pitch": 93,
      "t_note_us": 105663464,
      "t_trigger_us": 105527501,
      "is_ai": true,
      "track_id": 8,
      "velocity": 0,
      "is_motor": false,
      "motor_id": 0,
      "accel_val": 2000,
      "base_duration_us": 796458
    },
    {
      "id": "M_926",
      "pitch": 69,
      "t_note_us": 105663464,
      "t_trigger_us": 105527501,
      "is_ai": false,
      "track_id": 0,
      "velocity": 0,
      "is_motor": true,
      "motor_id": 1,
      "accel_val": 2000,
      "base_duration_us": 398229
    },
    {
      "id": "M_927",
      "pitch": 59,
      "t_note_us": 105663464,
      "t_trigger_us": 105527501,
      "is_ai": false,
      "track_id": 0,
      "velocity": 0,
      "is_motor": true,
      "motor_id": 0,
      "accel_val": 2000,
      "base_duration_us": 398229
    },
    {
      "id": "M_934",
      "pitch": 69,
      "t_note_us": 105663464,
      "t_trigger_us": 105527501,
      "is_ai": false,
      "track_id": 0,
      "velocity": 0,
      "is_motor": true,
      "motor_id": 2,
      "accel_val": 2000,
      "base_duration_us": 796458
    },
    {
      "id": "M_935",
      "pitch": 66,
      "t_note_us": 105663464,
      "t_trigger_us": 105527501,
      "is_ai": false,
      "track_id": 0,
      "velocity": 0,
      "is_motor": true,
      "motor_id": 3,
      "accel_val": 2000,
      "base_duration_us": 796458
    },
    {
      "id": "M_936",
      "pitch": 50,
      "t_note_us": 105663464,
      "t_trigger_us": 105527501,
      "is_ai": false,
      "track_id": 0,
      "velocity": 0,
      "is_motor": true,
      "motor_id": 0,
      "accel_val": 2000,
      "base_duration_us": 796458
    },
    {
      "id": "M_929",
      "pitch": 59,
      "t_note_us": 106061693,
      "t_trigger_us": 105925730,
      "is_ai": false,
      "track_id": 0,
      "velocity": 0,
      "is_motor": true,
      "motor_id": 0,
      "accel_val": 2000,
      "base_duration_us": 132743
    },
    {
      "id": "M_931",
      "pitch": 69,
      "t_note_us": 106061693,
      "t_trigger_us": 105925730,
      "is_ai": false,
      "track_id": 0,
      "velocity": 0,
      "is_motor": true,
      "motor_id": 1,
      "accel_val": 2000,
      "base_duration_us": 398229
    },
    {
      "id": "M_932",
      "pitch": 69,
      "t_note_us": 106061693,
      "t_trigger_us": 105925730,
      "is_ai": false,
      "track_id": 0,
      "velocity": 0,
      "is_motor": true,
      "motor_id": 0,
      "accel_val": 2000,
      "base_duration_us": 398229
    },
    {
      "id": "M_930",
      "pitch": 59,
      "t_note_us": 106194436,
      "t_trigger_us": 106058473,
      "is_ai": false,
      "track_id": 0,
      "velocity": 0,
      "is_motor": true,
      "motor_id": 0,
      "accel_val": 2000,
      "base_duration_us": 265486
    },
    {
      "id": "M_937",
      "pitch": 103,
      "t_note_us": 106459922,
      "t_trigger_us": 106323959,
      "is_ai": true,
      "track_id": 14,
      "velocity": 0,
      "is_motor": false,
      "motor_id": 0,
      "accel_val": 2000,
      "base_duration_us": 398229
    },
    {
      "id": "M_946",
      "pitch": 95,
      "t_note_us": 106459922,
      "t_trigger_us": 106323959,
      "is_ai": true,
      "track_id": 9,
      "velocity": 0,
      "is_motor": false,
      "motor_id": 0,
      "accel_val": 2000,
      "base_duration_us": 796458
    },
    {
      "id": "M_938",
      "pitch": 67,
      "t_note_us": 106459922,
      "t_trigger_us": 106323959,
      "is_ai": false,
      "track_id": 0,
      "velocity": 0,
      "is_motor": true,
      "motor_id": 1,
      "accel_val": 2000,
      "base_duration_us": 398229
    },
    {
      "id": "M_941",
      "pitch": 52,
      "t_note_us": 106459922,
      "t_trigger_us": 106323959,
      "is_ai": false,
      "track_id": 0,
      "velocity": 0,
      "is_motor": true,
      "motor_id": 0,
      "accel_val": 2000,
      "base_duration_us": 530972
    },
    {
      "id": "M_945",
      "pitch": 71,
      "t_note_us": 106459922,
      "t_trigger_us": 106323959,
      "is_ai": false,
      "track_id": 0,
      "velocity": 0,
      "is_motor": true,
      "motor_id": 2,
      "accel_val": 2000,
      "base_duration_us": 796458
    },
    {
      "id": "M_960",
      "pitch": 59,
      "t_note_us": 106459922,
      "t_trigger_us": 106323959,
      "is_ai": false,
      "track_id": 0,
      "velocity": 0,
      "is_motor": true,
      "motor_id": 3,
      "accel_val": 2000,
      "base_duration_us": 1327430
    },
    {
      "id": "M_961",
      "pitch": 67,
      "t_note_us": 106459922,
      "t_trigger_us": 106323959,
      "is_ai": false,
      "track_id": 0,
      "velocity": 0,
      "is_motor": true,
      "motor_id": 0,
      "accel_val": 2000,
      "base_duration_us": 1327430
    },
    {
      "id": "M_939",
      "pitch": 78,
      "t_note_us": 106858151,
      "t_trigger_us": 106722188,
      "is_ai": false,
      "track_id": 0,
      "velocity": 0,
      "is_motor": true,
      "motor_id": 1,
      "accel_val": 2000,
      "base_duration_us": 132743
    },
    {
      "id": "M_940",
      "pitch": 78,
      "t_note_us": 106858151,
      "t_trigger_us": 106722188,
      "is_ai": false,
      "track_id": 0,
      "velocity": 0,
      "is_motor": true,
      "motor_id": 0,
      "accel_val": 2000,
      "base_duration_us": 132743
    },
    {
      "id": "M_942",
      "pitch": 76,
      "t_note_us": 106990894,
      "t_trigger_us": 106854931,
      "is_ai": false,
      "track_id": 0,
      "velocity": 0,
      "is_motor": true,
      "motor_id": 1,
      "accel_val": 2000,
      "base_duration_us": 265486
    },
    {
      "id": "M_943",
      "pitch": 52,
      "t_note_us": 106990894,
      "t_trigger_us": 106854931,
      "is_ai": false,
      "track_id": 0,
      "velocity": 0,
      "is_motor": true,
      "motor_id": 0,
      "accel_val": 2000,
      "base_duration_us": 265486
    },
    {
      "id": "M_944",
      "pitch": 76,
      "t_note_us": 106990894,
      "t_trigger_us": 106854931,
      "is_ai": false,
      "track_id": 0,
      "velocity": 0,
      "is_motor": true,
      "motor_id": 0,
      "accel_val": 2000,
      "base_duration_us": 265486
    },
    {
      "id": "M_948",
      "pitch": 98,
      "t_note_us": 107256380,
      "t_trigger_us": 107120417,
      "is_ai": true,
      "track_id": 11,
      "velocity": 0,
      "is_motor": false,
      "motor_id": 0,
      "accel_val": 2000,
      "base_duration_us": 132743
    },
    {
      "id": "M_947",
      "pitch": 74,
      "t_note_us": 107256380,
      "t_trigger_us": 107120417,
      "is_ai": false,
      "track_id": 0,
      "velocity": 0,
      "is_motor": true,
      "motor_id": 1,
      "accel_val": 2000,
      "base_duration_us": 132743
    },
    {
      "id": "M_953",
      "pitch": 52,
      "t_note_us": 107256380,
      "t_trigger_us": 107120417,
      "is_ai": false,
      "track_id": 0,
      "velocity": 0,
      "is_motor": true,
      "motor_id": 0,
      "accel_val": 2000,
      "base_duration_us": 265486
    },
    {
      "id": "M_951",
      "pitch": 96,
      "t_note_us": 107389123,
      "t_trigger_us": 107253160,
      "is_ai": true,
      "track_id": 10,
      "velocity": 0,
      "is_motor": false,
      "motor_id": 0,
      "accel_val": 2000,
      "base_duration_us": 132743
    },
    {
      "id": "M_952",
      "pitch": 96,
      "t_note_us": 107389123,
      "t_trigger_us": 107253160,
      "is_ai": true,
      "track_id": 10,
      "velocity": 0,
      "is_motor": false,
      "motor_id": 0,
      "accel_val": 2000,
      "base_duration_us": 132743
    },
    {
      "id": "M_949",
      "pitch": 76,
      "t_note_us": 107389123,
      "t_trigger_us": 107253160,
      "is_ai": false,
      "track_id": 0,
      "velocity": 0,
      "is_motor": true,
      "motor_id": 2,
      "accel_val": 2000,
      "base_duration_us": 132743
    },
    {
      "id": "M_950",
      "pitch": 72,
      "t_note_us": 107389123,
      "t_trigger_us": 107253160,
      "is_ai": false,
      "track_id": 0,
      "velocity": 0,
      "is_motor": true,
      "motor_id": 1,
      "accel_val": 2000,
      "base_duration_us": 132743
    },
    {
      "id": "M_956",
      "pitch": 95,
      "t_note_us": 107521866,
      "t_trigger_us": 107385903,
      "is_ai": true,
      "track_id": 9,
      "velocity": 0,
      "is_motor": false,
      "motor_id": 0,
      "accel_val": 2000,
      "base_duration_us": 265486
    },
    {
      "id": "M_959",
      "pitch": 95,
      "t_note_us": 107521866,
      "t_trigger_us": 107385903,
      "is_ai": true,
      "track_id": 9,
      "velocity": 0,
      "is_motor": false,
      "motor_id": 0,
      "accel_val": 2000,
      "base_duration_us": 265486
    },
    {
      "id": "M_954",
      "pitch": 67,
      "t_note_us": 107521866,
      "t_trigger_us": 107385903,
      "is_ai": false,
      "track_id": 0,
      "velocity": 0,
      "is_motor": true,
      "motor_id": 1,
      "accel_val": 2000,
      "base_duration_us": 132743
    },
    {
      "id": "M_957",
      "pitch": 52,
      "t_note_us": 107521866,
      "t_trigger_us": 107385903,
      "is_ai": false,
      "track_id": 0,
      "velocity": 0,
      "is_motor": true,
      "motor_id": 0,
      "accel_val": 2000,
      "base_duration_us": 265486
    },
    {
      "id": "M_958",
      "pitch": 71,
      "t_note_us": 107521866,
      "t_trigger_us": 107385903,
      "is_ai": false,
      "track_id": 0,
      "velocity": 0,
      "is_motor": true,
      "motor_id": 2,
      "accel_val": 2000,
      "base_duration_us": 265486
    },
    {
      "id": "M_955",
      "pitch": 76,
      "t_note_us": 107654609,
      "t_trigger_us": 107518646,
      "is_ai": false,
      "track_id": 0,
      "velocity": 0,
      "is_motor": true,
      "motor_id": 1,
      "accel_val": 2000,
      "base_duration_us": 132743
    },
    {
      "id": "M_969",
      "pitch": 91,
      "t_note_us": 107787352,
      "t_trigger_us": 107651389,
      "is_ai": true,
      "track_id": 7,
      "velocity": 0,
      "is_motor": false,
      "motor_id": 0,
      "accel_val": 2000,
      "base_duration_us": 796458
    },
    {
      "id": "M_962",
      "pitch": 60,
      "t_note_us": 107787352,
      "t_trigger_us": 107651389,
      "is_ai": false,
      "track_id": 0,
      "velocity": 0,
      "is_motor": true,
      "motor_id": 1,
      "accel_val": 2000,
      "base_duration_us": 398229
    },
    {
      "id": "M_964",
      "pitch": 67,
      "t_note_us": 107787352,
      "t_trigger_us": 107651389,
      "is_ai": false,
      "track_id": 0,
      "velocity": 0,
      "is_motor": true,
      "motor_id": 2,
      "accel_val": 2000,
      "base_duration_us": 530972
    },
    {
      "id": "M_967",
      "pitch": 52,
      "t_note_us": 107787352,
      "t_trigger_us": 107651389,
      "is_ai": false,
      "track_id": 0,
      "velocity": 0,
      "is_motor": true,
      "motor_id": 0,
      "accel_val": 2000,
      "base_duration_us": 796458
    },
    {
      "id": "M_968",
      "pitch": 67,
      "t_note_us": 107787352,
      "t_trigger_us": 107651389,
      "is_ai": false,
      "track_id": 0,
      "velocity": 0,
      "is_motor": true,
      "motor_id": 3,
      "accel_val": 2000,
      "base_duration_us": 796458
    },
    {
      "id": "M_970",
      "pitch": 69,
      "t_note_us": 107787352,
      "t_trigger_us": 107651389,
      "is_ai": false,
      "track_id": 0,
      "velocity": 0,
      "is_motor": true,
      "motor_id": 0,
      "accel_val": 2000,
      "base_duration_us": 796458
    },
    {
      "id": "M_963",
      "pitch": 60,
      "t_note_us": 108185581,
      "t_trigger_us": 108049618,
      "is_ai": false,
      "track_id": 0,
      "velocity": 0,
      "is_motor": true,
      "motor_id": 1,
      "accel_val": 2000,
      "base_duration_us": 132743
    },
    {
      "id": "M_965",
      "pitch": 69,
      "t_note_us": 108318324,
      "t_trigger_us": 108182361,
      "is_ai": false,
      "track_id": 0,
      "velocity": 0,
      "is_motor": true,
      "motor_id": 1,
      "accel_val": 2000,
      "base_duration_us": 265486
    },
    {
      "id": "M_966",
      "pitch": 60,
      "t_note_us": 108318324,
      "t_trigger_us": 108182361,
      "is_ai": false,
      "track_id": 0,
      "velocity": 0,
      "is_motor": true,
      "motor_id": 2,
      "accel_val": 2000,
      "base_duration_us": 265486
    },
    {
      "id": "M_971",
      "pitch": 78,
      "t_note_us": 108583810,
      "t_trigger_us": 108447847,
      "is_ai": false,
      "track_id": 0,
      "velocity": 0,
      "is_motor": true,
      "motor_id": 2,
      "accel_val": 2000,
      "base_duration_us": 398229
    },
    {
      "id": "M_973",
      "pitch": 62,
      "t_note_us": 108583810,
      "t_trigger_us": 108447847,
      "is_ai": false,
      "track_id": 0,
      "velocity": 0,
      "is_motor": true,
      "motor_id": 1,
      "accel_val": 2000,
      "base_duration_us": 530972
    },
    {
      "id": "M_975",
      "pitch": 69,
      "t_note_us": 108583810,
      "t_trigger_us": 108447847,
      "is_ai": false,
      "track_id": 0,
      "velocity": 0,
      "is_motor": true,
      "motor_id": 0,
      "accel_val": 2000,
      "base_duration_us": 796458
    },
    {
      "id": "M_976",
      "pitch": 69,
      "t_note_us": 108583810,
      "t_trigger_us": 108447847,
      "is_ai": false,
      "track_id": 0,
      "velocity": 0,
      "is_motor": true,
      "motor_id": 3,
      "accel_val": 2000,
      "base_duration_us": 796458
    },
    {
      "id": "M_981",
      "pitch": 54,
      "t_note_us": 108583810,
      "t_trigger_us": 108447847,
      "is_ai": false,
      "track_id": 0,
      "velocity": 0,
      "is_motor": true,
      "motor_id": 0,
      "accel_val": 2000,
      "base_duration_us": 1327430
    },
    {
      "id": "M_972",
      "pitch": 76,
      "t_note_us": 108982039,
      "t_trigger_us": 108846076,
      "is_ai": false,
      "track_id": 0,
      "velocity": 0,
      "is_motor": true,
      "motor_id": 2,
      "accel_val": 2000,
      "base_duration_us": 132743
    },
    {
      "id": "M_974",
      "pitch": 57,
      "t_note_us": 109114782,
      "t_trigger_us": 108978819,
      "is_ai": false,
      "track_id": 0,
      "velocity": 0,
      "is_motor": true,
      "motor_id": 1,
      "accel_val": 2000,
      "base_duration_us": 265486
    },
    {
      "id": "M_978",
      "pitch": 74,
      "t_note_us": 109114782,
      "t_trigger_us": 108978819,
      "is_ai": false,
      "track_id": 0,
      "velocity": 0,
      "is_motor": true,
      "motor_id": 2,
      "accel_val": 2000,
      "base_duration_us": 530972
    },
    {
      "id": "M_988",
      "pitch": 98,
      "t_note_us": 109380268,
      "t_trigger_us": 109244305,
      "is_ai": true,
      "track_id": 11,
      "velocity": 0,
      "is_motor": false,
      "motor_id": 0,
      "accel_val": 2000,
      "base_duration_us": 1061944
    },
    {
      "id": "M_977",
      "pitch": 62,
      "t_note_us": 109380268,
      "t_trigger_us": 109244305,
      "is_ai": false,
      "track_id": 0,
      "velocity": 0,
      "is_motor": true,
      "motor_id": 1,
      "accel_val": 2000,
      "base_duration_us": 265486
    },
    {
      "id": "M_990",
      "pitch": 74,
      "t_note_us": 109380268,
      "t_trigger_us": 109244305,
      "is_ai": false,
      "track_id": 0,
      "velocity": 0,
      "is_motor": true,
      "motor_id": 0,
      "accel_val": 2000,
      "base_duration_us": 1327430
    },
    {
      "id": "M_979",
      "pitch": 57,
      "t_note_us": 109645754,
      "t_trigger_us": 109509791,
      "is_ai": false,
      "track_id": 0,
      "velocity": 0,
      "is_motor": true,
      "motor_id": 1,
      "accel_val": 2000,
      "base_duration_us": 265486
    },
    {
      "id": "M_980",
      "pitch": 74,
      "t_note_us": 109645754,
      "t_trigger_us": 109509791,
      "is_ai": false,
      "track_id": 0,
      "velocity": 0,
      "is_motor": true,
      "motor_id": 2,
      "accel_val": 2000,
      "base_duration_us": 265486
    },
    {
      "id": "M_982",
      "pitch": 59,
      "t_note_us": 109911240,
      "t_trigger_us": 109775277,
      "is_ai": false,
      "track_id": 0,
      "velocity": 0,
      "is_motor": true,
      "motor_id": 1,
      "accel_val": 2000,
      "base_duration_us": 398229
    },
    {
      "id": "M_984",
      "pitch": 71,
      "t_note_us": 109911240,
      "t_trigger_us": 109775277,
      "is_ai": false,
      "track_id": 0,
      "velocity": 0,
      "is_motor": true,
      "motor_id": 2,
      "accel_val": 2000,
      "base_duration_us": 530972
    },
    {
      "id": "M_985",
      "pitch": 69,
      "t_note_us": 109911240,
      "t_trigger_us": 109775277,
      "is_ai": false,
      "track_id": 0,
      "velocity": 0,
      "is_motor": true,
      "motor_id": 3,
      "accel_val": 2000,
      "base_duration_us": 530972
    },
    {
      "id": "M_986",
      "pitch": 54,
      "t_note_us": 109911240,
      "t_trigger_us": 109775277,
      "is_ai": false,
      "track_id": 0,
      "velocity": 0,
      "is_motor": true,
      "motor_id": 0,
      "accel_val": 2000,
      "base_duration_us": 530972
    },
    {
      "id": "M_987",
      "pitch": 62,
      "t_note_us": 109911240,
      "t_trigger_us": 109775277,
      "is_ai": false,
      "track_id": 0,
      "velocity": 0,
      "is_motor": true,
      "motor_id": 0,
      "accel_val": 2000,
      "base_duration_us": 530972
    },
    {
      "id": "M_983",
      "pitch": 59,
      "t_note_us": 110309469,
      "t_trigger_us": 110173506,
      "is_ai": false,
      "track_id": 0,
      "velocity": 0,
      "is_motor": true,
      "motor_id": 1,
      "accel_val": 2000,
      "base_duration_us": 132743
    },
    {
      "id": "M_989",
      "pitch": 59,
      "t_note_us": 110442212,
      "t_trigger_us": 110306249,
      "is_ai": false,
      "track_id": 0,
      "velocity": 0,
      "is_motor": true,
      "motor_id": 1,
      "accel_val": 2000,
      "base_duration_us": 265486
    },
    {
      "id": "M_991",
      "pitch": 67,
      "t_note_us": 110442212,
      "t_trigger_us": 110306249,
      "is_ai": false,
      "track_id": 0,
      "velocity": 0,
      "is_motor": true,
      "motor_id": 2,
      "accel_val": 2000,
      "base_duration_us": 530972
    },
    {
      "id": "M_1019",
      "pitch": 71,
      "t_note_us": 110442212,
      "t_trigger_us": 110306249,
      "is_ai": false,
      "track_id": 0,
      "velocity": 0,
      "is_motor": true,
      "motor_id": 3,
      "accel_val": 2000,
      "base_duration_us": 1592916
    },
    {
      "id": "M_992",
      "pitch": 52,
      "t_note_us": 110707698,
      "t_trigger_us": 110571735,
      "is_ai": false,
      "track_id": 0,
      "velocity": 0,
      "is_motor": true,
      "motor_id": 0,
      "accel_val": 2000,
      "base_duration_us": 530972
    },
    {
      "id": "M_993",
      "pitch": 74,
      "t_note_us": 111238670,
      "t_trigger_us": 111102707,
      "is_ai": false,
      "track_id": 0,
      "velocity": 0,
      "is_motor": true,
      "motor_id": 1,
      "accel_val": 2000,
      "base_duration_us": 132743
    },
    {
      "id": "M_994",
      "pitch": 74,
      "t_note_us": 111238670,
      "t_trigger_us": 111102707,
      "is_ai": false,
      "track_id": 0,
      "velocity": 0,
      "is_motor": true,
      "motor_id": 0,
      "accel_val": 2000,
      "base_duration_us": 132743
    },
    {
      "id": "M_995",
      "pitch": 62,
      "t_note_us": 111238670,
      "t_trigger_us": 111102707,
      "is_ai": false,
      "track_id": 0,
      "velocity": 0,
      "is_motor": true,
      "motor_id": 2,
      "accel_val": 2000,
      "base_duration_us": 132743
    },
    {
      "id": "M_996",
      "pitch": 74,
      "t_note_us": 111238670,
      "t_trigger_us": 111102707,
      "is_ai": false,
      "track_id": 0,
      "velocity": 0,
      "is_motor": true,
      "motor_id": 0,
      "accel_val": 2000,
      "base_duration_us": 132743
    },
    {
      "id": "M_1001",
      "pitch": 52,
      "t_note_us": 111238670,
      "t_trigger_us": 111102707,
      "is_ai": false,
      "track_id": 0,
      "velocity": 0,
      "is_motor": true,
      "motor_id": 0,
      "accel_val": 2000,
      "base_duration_us": 265486
    },
    {
      "id": "M_1000",
      "pitch": 98,
      "t_note_us": 111371413,
      "t_trigger_us": 111235450,
      "is_ai": true,
      "track_id": 11,
      "velocity": 0,
      "is_motor": false,
      "motor_id": 0,
      "accel_val": 2000,
      "base_duration_us": 132743
    },
    {
      "id": "M_997",
      "pitch": 74,
      "t_note_us": 111371413,
      "t_trigger_us": 111235450,
      "is_ai": false,
      "track_id": 0,
      "velocity": 0,
      "is_motor": true,
      "motor_id": 1,
      "accel_val": 2000,
      "base_duration_us": 132743
    },
    {
      "id": "M_998",
      "pitch": 62,
      "t_note_us": 111371413,
      "t_trigger_us": 111235450,
      "is_ai": false,
      "track_id": 0,
      "velocity": 0,
      "is_motor": true,
      "motor_id": 0,
      "accel_val": 2000,
      "base_duration_us": 132743
    },
    {
      "id": "M_999",
      "pitch": 74,
      "t_note_us": 111371413,
      "t_trigger_us": 111235450,
      "is_ai": false,
      "track_id": 0,
      "velocity": 0,
      "is_motor": true,
      "motor_id": 2,
      "accel_val": 2000,
      "base_duration_us": 132743
    },
    {
      "id": "M_1006",
      "pitch": 98,
      "t_note_us": 111504156,
      "t_trigger_us": 111368193,
      "is_ai": true,
      "track_id": 11,
      "velocity": 0,
      "is_motor": false,
      "motor_id": 0,
      "accel_val": 2000,
      "base_duration_us": 132743
    },
    {
      "id": "M_1002",
      "pitch": 64,
      "t_note_us": 111504156,
      "t_trigger_us": 111368193,
      "is_ai": false,
      "track_id": 0,
      "velocity": 0,
      "is_motor": true,
      "motor_id": 1,
      "accel_val": 2000,
      "base_duration_us": 132743
    },
    {
      "id": "M_1003",
      "pitch": 74,
      "t_note_us": 111504156,
      "t_trigger_us": 111368193,
      "is_ai": false,
      "track_id": 0,
      "velocity": 0,
      "is_motor": true,
      "motor_id": 0,
      "accel_val": 2000,
      "base_duration_us": 132743
    },
    {
      "id": "M_1004",
      "pitch": 76,
      "t_note_us": 111504156,
      "t_trigger_us": 111368193,
      "is_ai": false,
      "track_id": 0,
      "velocity": 0,
      "is_motor": true,
      "motor_id": 2,
      "accel_val": 2000,
      "base_duration_us": 132743
    },
    {
      "id": "M_1005",
      "pitch": 76,
      "t_note_us": 111504156,
      "t_trigger_us": 111368193,
      "is_ai": false,
      "track_id": 0,
      "velocity": 0,
      "is_motor": true,
      "motor_id": 0,
      "accel_val": 2000,
      "base_duration_us": 132743
    },
    {
      "id": "M_1008",
      "pitch": 55,
      "t_note_us": 111504156,
      "t_trigger_us": 111368193,
      "is_ai": false,
      "track_id": 0,
      "velocity": 0,
      "is_motor": true,
      "motor_id": 0,
      "accel_val": 2000,
      "base_duration_us": 265486
    },
    {
      "id": "M_1012",
      "pitch": 103,
      "t_note_us": 111636899,
      "t_trigger_us": 111500936,
      "is_ai": true,
      "track_id": 14,
      "velocity": 0,
      "is_motor": false,
      "motor_id": 0,
      "accel_val": 2000,
      "base_duration_us": 265486
    },
    {
      "id": "M_1007",
      "pitch": 76,
      "t_note_us": 111636899,
      "t_trigger_us": 111500936,
      "is_ai": false,
      "track_id": 0,
      "velocity": 0,
      "is_motor": true,
      "motor_id": 2,
      "accel_val": 2000,
      "base_duration_us": 132743
    },
    {
      "id": "M_1010",
      "pitch": 67,
      "t_note_us": 111636899,
      "t_trigger_us": 111500936,
      "is_ai": false,
      "track_id": 0,
      "velocity": 0,
      "is_motor": true,
      "motor_id": 1,
      "accel_val": 2000,
      "base_duration_us": 265486
    },
    {
      "id": "M_1011",
      "pitch": 67,
      "t_note_us": 111636899,
      "t_trigger_us": 111500936,
      "is_ai": false,
      "track_id": 0,
      "velocity": 0,
      "is_motor": true,
      "motor_id": 0,
      "accel_val": 2000,
      "base_duration_us": 265486
    },
    {
      "id": "M_1009",
      "pitch": 67,
      "t_note_us": 111769642,
      "t_trigger_us": 111633679,
      "is_ai": false,
      "track_id": 0,
      "velocity": 0,
      "is_motor": true,
      "motor_id": 2,
      "accel_val": 2000,
      "base_duration_us": 132743
    },
    {
      "id": "M_1018",
      "pitch": 59,
      "t_note_us": 111769642,
      "t_trigger_us": 111633679,
      "is_ai": false,
      "track_id": 0,
      "velocity": 0,
      "is_motor": true,
      "motor_id": 0,
      "accel_val": 2000,
      "base_duration_us": 265486
    },
    {
      "id": "M_1013",
      "pitch": 103,
      "t_note_us": 111902385,
      "t_trigger_us": 111766422,
      "is_ai": true,
      "track_id": 14,
      "velocity": 0,
      "is_motor": false,
      "motor_id": 0,
      "accel_val": 2000,
      "base_duration_us": 132743
    },
    {
      "id": "M_1014",
      "pitch": 67,
      "t_note_us": 111902385,
      "t_trigger_us": 111766422,
      "is_ai": false,
      "track_id": 0,
      "velocity": 0,
      "is_motor": true,
      "motor_id": 1,
      "accel_val": 2000,
      "base_duration_us": 132743
    },
    {
      "id": "M_1015",
      "pitch": 67,
      "t_note_us": 111902385,
      "t_trigger_us": 111766422,
      "is_ai": false,
      "track_id": 0,
      "velocity": 0,
      "is_motor": true,
      "motor_id": 2,
      "accel_val": 2000,
      "base_duration_us": 132743
    },
    {
      "id": "M_1016",
      "pitch": 76,
      "t_note_us": 111902385,
      "t_trigger_us": 111766422,
      "is_ai": false,
      "track_id": 0,
      "velocity": 0,
      "is_motor": true,
      "motor_id": 0,
      "accel_val": 2000,
      "base_duration_us": 132743
    },
    {
      "id": "M_1017",
      "pitch": 67,
      "t_note_us": 111902385,
      "t_trigger_us": 111766422,
      "is_ai": false,
      "track_id": 0,
      "velocity": 0,
      "is_motor": true,
      "motor_id": 0,
      "accel_val": 2000,
      "base_duration_us": 132743
    },
    {
      "id": "M_1021",
      "pitch": 95,
      "t_note_us": 112035128,
      "t_trigger_us": 111899165,
      "is_ai": true,
      "track_id": 9,
      "velocity": 0,
      "is_motor": false,
      "motor_id": 0,
      "accel_val": 2000,
      "base_duration_us": 398229
    },
    {
      "id": "M_1029",
      "pitch": 91,
      "t_note_us": 112035128,
      "t_trigger_us": 111899165,
      "is_ai": true,
      "track_id": 7,
      "velocity": 0,
      "is_motor": false,
      "motor_id": 0,
      "accel_val": 2000,
      "base_duration_us": 796458
    },
    {
      "id": "M_1020",
      "pitch": 71,
      "t_note_us": 112035128,
      "t_trigger_us": 111899165,
      "is_ai": false,
      "track_id": 0,
      "velocity": 0,
      "is_motor": true,
      "motor_id": 1,
      "accel_val": 2000,
      "base_duration_us": 398229
    },
    {
      "id": "M_1022",
      "pitch": 60,
      "t_note_us": 112035128,
      "t_trigger_us": 111899165,
      "is_ai": false,
      "track_id": 0,
      "velocity": 0,
      "is_motor": true,
      "motor_id": 0,
      "accel_val": 2000,
      "base_duration_us": 398229
    },
    {
      "id": "M_1027",
      "pitch": 67,
      "t_note_us": 112035128,
      "t_trigger_us": 111899165,
      "is_ai": false,
      "track_id": 0,
      "velocity": 0,
      "is_motor": true,
      "motor_id": 2,
      "accel_val": 2000,
      "base_duration_us": 796458
    },
    {
      "id": "M_1028",
      "pitch": 64,
      "t_note_us": 112035128,
      "t_trigger_us": 111899165,
      "is_ai": false,
      "track_id": 0,
      "velocity": 0,
      "is_motor": true,
      "motor_id": 3,
      "accel_val": 2000,
      "base_duration_us": 796458
    },
    {
      "id": "M_1030",
      "pitch": 72,
      "t_note_us": 112035128,
      "t_trigger_us": 111899165,
      "is_ai": false,
      "track_id": 0,
      "velocity": 0,
      "is_motor": true,
      "motor_id": 0,
      "accel_val": 2000,
      "base_duration_us": 796458
    },
    {
      "id": "M_1031",
      "pitch": 67,
      "t_note_us": 112035128,
      "t_trigger_us": 111899165,
      "is_ai": false,
      "track_id": 0,
      "velocity": 0,
      "is_motor": true,
      "motor_id": 0,
      "accel_val": 2000,
      "base_duration_us": 796458
    },
    {
      "id": "M_1032",
      "pitch": 55,
      "t_note_us": 112035128,
      "t_trigger_us": 111899165,
      "is_ai": false,
      "track_id": 0,
      "velocity": 0,
      "is_motor": true,
      "motor_id": 0,
      "accel_val": 2000,
      "base_duration_us": 796458
    },
    {
      "id": "M_1025",
      "pitch": 83,
      "t_note_us": 112433357,
      "t_trigger_us": 112297394,
      "is_ai": true,
      "track_id": 2,
      "velocity": 0,
      "is_motor": false,
      "motor_id": 0,
      "accel_val": 2000,
      "base_duration_us": 398229
    },
    {
      "id": "M_1026",
      "pitch": 95,
      "t_note_us": 112433357,
      "t_trigger_us": 112297394,
      "is_ai": true,
      "track_id": 9,
      "velocity": 0,
      "is_motor": false,
      "motor_id": 0,
      "accel_val": 2000,
      "base_duration_us": 398229
    },
    {
      "id": "M_1023",
      "pitch": 60,
      "t_note_us": 112433357,
      "t_trigger_us": 112297394,
      "is_ai": false,
      "track_id": 0,
      "velocity": 0,
      "is_motor": true,
      "motor_id": 1,
      "accel_val": 2000,
      "base_duration_us": 132743
    },
    {
      "id": "M_1024",
      "pitch": 60,
      "t_note_us": 112566100,
      "t_trigger_us": 112430137,
      "is_ai": false,
      "track_id": 0,
      "velocity": 0,
      "is_motor": true,
      "motor_id": 1,
      "accel_val": 2000,
      "base_duration_us": 265486
    },
    {
      "id": "M_1035",
      "pitch": 93,
      "t_note_us": 112831586,
      "t_trigger_us": 112695623,
      "is_ai": true,
      "track_id": 8,
      "velocity": 0,
      "is_motor": false,
      "motor_id": 0,
      "accel_val": 2000,
      "base_duration_us": 796459
    },
    {
      "id": "M_1037",
      "pitch": 93,
      "t_note_us": 112831586,
      "t_trigger_us": 112695623,
      "is_ai": true,
      "track_id": 8,
      "velocity": 0,
      "is_motor": false,
      "motor_id": 0,
      "accel_val": 2000,
      "base_duration_us": 796459
    },
    {
      "id": "M_1033",
      "pitch": 62,
      "t_note_us": 112831586,
      "t_trigger_us": 112695623,
      "is_ai": false,
      "track_id": 0,
      "velocity": 0,
      "is_motor": true,
      "motor_id": 1,
      "accel_val": 2000,
      "base_duration_us": 530973
    },
    {
      "id": "M_1036",
      "pitch": 69,
      "t_note_us": 112831586,
      "t_trigger_us": 112695623,
      "is_ai": false,
      "track_id": 0,
      "velocity": 0,
      "is_motor": true,
      "motor_id": 2,
      "accel_val": 2000,
      "base_duration_us": 796459
    },
    {
      "id": "M_1038",
      "pitch": 69,
      "t_note_us": 112831586,
      "t_trigger_us": 112695623,
      "is_ai": false,
      "track_id": 0,
      "velocity": 0,
      "is_motor": true,
      "motor_id": 0,
      "accel_val": 2000,
      "base_duration_us": 796459
    },
    {
      "id": "M_1046",
      "pitch": 66,
      "t_note_us": 112831586,
      "t_trigger_us": 112695623,
      "is_ai": false,
      "track_id": 0,
      "velocity": 0,
      "is_motor": true,
      "motor_id": 3,
      "accel_val": 2000,
      "base_duration_us": 1327431
    },
    {
      "id": "M_1047",
      "pitch": 57,
      "t_note_us": 112831586,
      "t_trigger_us": 112695623,
      "is_ai": false,
      "track_id": 0,
      "velocity": 0,
      "is_motor": true,
      "motor_id": 0,
      "accel_val": 2000,
      "base_duration_us": 1327431
    },
    {
      "id": "M_1034",
      "pitch": 62,
      "t_note_us": 113362559,
      "t_trigger_us": 113226596,
      "is_ai": false,
      "track_id": 0,
      "velocity": 0,
      "is_motor": true,
      "motor_id": 1,
      "accel_val": 2000,
      "base_duration_us": 265486
    },
    {
      "id": "M_1045",
      "pitch": 86,
      "t_note_us": 113628045,
      "t_trigger_us": 113492082,
      "is_ai": true,
      "track_id": 4,
      "velocity": 0,
      "is_motor": false,
      "motor_id": 0,
      "accel_val": 2000,
      "base_duration_us": 530972
    },
    {
      "id": "M_1039",
      "pitch": 74,
      "t_note_us": 113628045,
      "t_trigger_us": 113492082,
      "is_ai": false,
      "track_id": 0,
      "velocity": 0,
      "is_motor": true,
      "motor_id": 1,
      "accel_val": 2000,
      "base_duration_us": 132743
    },
    {
      "id": "M_1041",
      "pitch": 62,
      "t_note_us": 113628045,
      "t_trigger_us": 113492082,
      "is_ai": false,
      "track_id": 0,
      "velocity": 0,
      "is_motor": true,
      "motor_id": 0,
      "accel_val": 2000,
      "base_duration_us": 265486
    },
    {
      "id": "M_1040",
      "pitch": 76,
      "t_note_us": 113760788,
      "t_trigger_us": 113624825,
      "is_ai": false,
      "track_id": 0,
      "velocity": 0,
      "is_motor": true,
      "motor_id": 2,
      "accel_val": 2000,
      "base_duration_us": 132743
    },
    {
      "id": "M_1042",
      "pitch": 79,
      "t_note_us": 113893531,
      "t_trigger_us": 113757568,
      "is_ai": true,
      "track_id": 0,
      "velocity": 0,
      "is_motor": false,
      "motor_id": 0,
      "accel_val": 2000,
      "base_duration_us": 132743
    },
    {
      "id": "M_1044",
      "pitch": 62,
      "t_note_us": 113893531,
      "t_trigger_us": 113757568,
      "is_ai": false,
      "track_id": 0,
      "velocity": 0,
      "is_motor": true,
      "motor_id": 1,
      "accel_val": 2000,
      "base_duration_us": 265486
    },
    {
      "id": "M_1043",
      "pitch": 88,
      "t_note_us": 114026274,
      "t_trigger_us": 113890311,
      "is_ai": true,
      "track_id": 5,
      "velocity": 0,
      "is_motor": false,
      "motor_id": 0,
      "accel_val": 2000,
      "base_duration_us": 132743
    },
    {
      "id": "M_1050",
      "pitch": 86,
      "t_note_us": 114159017,
      "t_trigger_us": 114023054,
      "is_ai": true,
      "track_id": 4,
      "velocity": 0,
      "is_motor": false,
      "motor_id": 0,
      "accel_val": 2000,
      "base_duration_us": 530972
    },
    {
      "id": "M_1056",
      "pitch": 93,
      "t_note_us": 114159017,
      "t_trigger_us": 114023054,
      "is_ai": true,
      "track_id": 8,
      "velocity": 0,
      "is_motor": false,
      "motor_id": 0,
      "accel_val": 2000,
      "base_duration_us": 796458
    },
    {
      "id": "M_1048",
      "pitch": 59,
      "t_note_us": 114159017,
      "t_trigger_us": 114023054,
      "is_ai": false,
      "track_id": 0,
      "velocity": 0,
      "is_motor": true,
      "motor_id": 0,
      "accel_val": 2000,
      "base_duration_us": 398229
    },
    {
      "id": "M_1053",
      "pitch": 69,
      "t_note_us": 114159017,
      "t_trigger_us": 114023054,
      "is_ai": false,
      "track_id": 0,
      "velocity": 0,
      "is_motor": true,
      "motor_id": 1,
      "accel_val": 2000,
      "base_duration_us": 796458
    },
    {
      "id": "M_1054",
      "pitch": 66,
      "t_note_us": 114159017,
      "t_trigger_us": 114023054,
      "is_ai": false,
      "track_id": 0,
      "velocity": 0,
      "is_motor": true,
      "motor_id": 2,
      "accel_val": 2000,
      "base_duration_us": 796458
    },
    {
      "id": "M_1055",
      "pitch": 74,
      "t_note_us": 114159017,
      "t_trigger_us": 114023054,
      "is_ai": false,
      "track_id": 0,
      "velocity": 0,
      "is_motor": true,
      "motor_id": 3,
      "accel_val": 2000,
      "base_duration_us": 796458
    },
    {
      "id": "M_1049",
      "pitch": 59,
      "t_note_us": 114557246,
      "t_trigger_us": 114421283,
      "is_ai": false,
      "track_id": 0,
      "velocity": 0,
      "is_motor": true,
      "motor_id": 0,
      "accel_val": 2000,
      "base_duration_us": 132743
    },
    {
      "id": "M_1051",
      "pitch": 59,
      "t_note_us": 114689989,
      "t_trigger_us": 114554026,
      "is_ai": false,
      "track_id": 0,
      "velocity": 0,
      "is_motor": true,
      "motor_id": 0,
      "accel_val": 2000,
      "base_duration_us": 265486
    },
    {
      "id": "M_1052",
      "pitch": 78,
      "t_note_us": 114689989,
      "t_trigger_us": 114554026,
      "is_ai": false,
      "track_id": 0,
      "velocity": 0,
      "is_motor": true,
      "motor_id": 0,
      "accel_val": 2000,
      "base_duration_us": 265486
    },
    {
      "id": "M_1057",
      "pitch": 103,
      "t_note_us": 114955475,
      "t_trigger_us": 114819512,
      "is_ai": true,
      "track_id": 14,
      "velocity": 0,
      "is_motor": false,
      "motor_id": 0,
      "accel_val": 2000,
      "base_duration_us": 398229
    },
    {
      "id": "M_1065",
      "pitch": 95,
      "t_note_us": 114955475,
      "t_trigger_us": 114819512,
      "is_ai": true,
      "track_id": 9,
      "velocity": 0,
      "is_motor": false,
      "motor_id": 0,
      "accel_val": 2000,
      "base_duration_us": 796458
    },
    {
      "id": "M_1058",
      "pitch": 67,
      "t_note_us": 114955475,
      "t_trigger_us": 114819512,
      "is_ai": false,
      "track_id": 0,
      "velocity": 0,
      "is_motor": true,
      "motor_id": 1,
      "accel_val": 2000,
      "base_duration_us": 398229
    },
    {
      "id": "M_1061",
      "pitch": 52,
      "t_note_us": 114955475,
      "t_trigger_us": 114819512,
      "is_ai": false,
      "track_id": 0,
      "velocity": 0,
      "is_motor": true,
      "motor_id": 0,
      "accel_val": 2000,
      "base_duration_us": 530972
    },
    {
      "id": "M_1066",
      "pitch": 71,
      "t_note_us": 114955475,
      "t_trigger_us": 114819512,
      "is_ai": false,
      "track_id": 0,
      "velocity": 0,
      "is_motor": true,
      "motor_id": 2,
      "accel_val": 2000,
      "base_duration_us": 796458
    },
    {
      "id": "M_1080",
      "pitch": 59,
      "t_note_us": 114955475,
      "t_trigger_us": 114819512,
      "is_ai": false,
      "track_id": 0,
      "velocity": 0,
      "is_motor": true,
      "motor_id": 3,
      "accel_val": 2000,
      "base_duration_us": 1327430
    },
    {
      "id": "M_1081",
      "pitch": 67,
      "t_note_us": 114955475,
      "t_trigger_us": 114819512,
      "is_ai": false,
      "track_id": 0,
      "velocity": 0,
      "is_motor": true,
      "motor_id": 0,
      "accel_val": 2000,
      "base_duration_us": 1327430
    },
    {
      "id": "M_1060",
      "pitch": 102,
      "t_note_us": 115353704,
      "t_trigger_us": 115217741,
      "is_ai": true,
      "track_id": 0,
      "velocity": 0,
      "is_motor": true,
      "motor_id": 1,
      "accel_val": 2000,
      "base_duration_us": 132743
    },
    {
      "id": "M_1059",
      "pitch": 78,
      "t_note_us": 115353704,
      "t_trigger_us": 115217741,
      "is_ai": false,
      "track_id": 0,
      "velocity": 0,
      "is_motor": true,
      "motor_id": 0,
      "accel_val": 2000,
      "base_duration_us": 132743
    },
    {
      "id": "M_1064",
      "pitch": 100,
      "t_note_us": 115486447,
      "t_trigger_us": 115350484,
      "is_ai": true,
      "track_id": 12,
      "velocity": 0,
      "is_motor": false,
      "motor_id": 0,
      "accel_val": 2000,
      "base_duration_us": 265486
    },
    {
      "id": "M_1062",
      "pitch": 52,
      "t_note_us": 115486447,
      "t_trigger_us": 115350484,
      "is_ai": false,
      "track_id": 0,
      "velocity": 0,
      "is_motor": true,
      "motor_id": 0,
      "accel_val": 2000,
      "base_duration_us": 265486
    },
    {
      "id": "M_1063",
      "pitch": 76,
      "t_note_us": 115486447,
      "t_trigger_us": 115350484,
      "is_ai": false,
      "track_id": 0,
      "velocity": 0,
      "is_motor": true,
      "motor_id": 1,
      "accel_val": 2000,
      "base_duration_us": 265486
    },
    {
      "id": "M_1067",
      "pitch": 98,
      "t_note_us": 115751933,
      "t_trigger_us": 115615970,
      "is_ai": true,
      "track_id": 11,
      "velocity": 0,
      "is_motor": false,
      "motor_id": 0,
      "accel_val": 2000,
      "base_duration_us": 132743
    },
    {
      "id": "M_1068",
      "pitch": 74,
      "t_note_us": 115751933,
      "t_trigger_us": 115615970,
      "is_ai": false,
      "track_id": 0,
      "velocity": 0,
      "is_motor": true,
      "motor_id": 1,
      "accel_val": 2000,
      "base_duration_us": 132743
    },
    {
      "id": "M_1073",
      "pitch": 52,
      "t_note_us": 115751933,
      "t_trigger_us": 115615970,
      "is_ai": false,
      "track_id": 0,
      "velocity": 0,
      "is_motor": true,
      "motor_id": 0,
      "accel_val": 2000,
      "base_duration_us": 265486
    },
    {
      "id": "M_1070",
      "pitch": 96,
      "t_note_us": 115884676,
      "t_trigger_us": 115748713,
      "is_ai": true,
      "track_id": 10,
      "velocity": 0,
      "is_motor": false,
      "motor_id": 0,
      "accel_val": 2000,
      "base_duration_us": 132743
    },
    {
      "id": "M_1072",
      "pitch": 96,
      "t_note_us": 115884676,
      "t_trigger_us": 115748713,
      "is_ai": true,
      "track_id": 10,
      "velocity": 0,
      "is_motor": false,
      "motor_id": 0,
      "accel_val": 2000,
      "base_duration_us": 132743
    },
    {
      "id": "M_1069",
      "pitch": 76,
      "t_note_us": 115884676,
      "t_trigger_us": 115748713,
      "is_ai": false,
      "track_id": 0,
      "velocity": 0,
      "is_motor": true,
      "motor_id": 2,
      "accel_val": 2000,
      "base_duration_us": 132743
    },
    {
      "id": "M_1071",
      "pitch": 72,
      "t_note_us": 115884676,
      "t_trigger_us": 115748713,
      "is_ai": false,
      "track_id": 0,
      "velocity": 0,
      "is_motor": true,
      "motor_id": 1,
      "accel_val": 2000,
      "base_duration_us": 132743
    },
    {
      "id": "M_1074",
      "pitch": 79,
      "t_note_us": 116017419,
      "t_trigger_us": 115881456,
      "is_ai": true,
      "track_id": 0,
      "velocity": 0,
      "is_motor": false,
      "motor_id": 0,
      "accel_val": 2000,
      "base_duration_us": 132743
    },
    {
      "id": "M_1078",
      "pitch": 95,
      "t_note_us": 116017419,
      "t_trigger_us": 115881456,
      "is_ai": true,
      "track_id": 9,
      "velocity": 0,
      "is_motor": false,
      "motor_id": 0,
      "accel_val": 2000,
      "base_duration_us": 265486
    },
    {
      "id": "M_1079",
      "pitch": 95,
      "t_note_us": 116017419,
      "t_trigger_us": 115881456,
      "is_ai": true,
      "track_id": 9,
      "velocity": 0,
      "is_motor": false,
      "motor_id": 0,
      "accel_val": 2000,
      "base_duration_us": 265486
    },
    {
      "id": "M_1076",
      "pitch": 52,
      "t_note_us": 116017419,
      "t_trigger_us": 115881456,
      "is_ai": false,
      "track_id": 0,
      "velocity": 0,
      "is_motor": true,
      "motor_id": 0,
      "accel_val": 2000,
      "base_duration_us": 265486
    },
    {
      "id": "M_1077",
      "pitch": 71,
      "t_note_us": 116017419,
      "t_trigger_us": 115881456,
      "is_ai": false,
      "track_id": 0,
      "velocity": 0,
      "is_motor": true,
      "motor_id": 1,
      "accel_val": 2000,
      "base_duration_us": 265486
    },
    {
      "id": "M_1075",
      "pitch": 76,
      "t_note_us": 116150162,
      "t_trigger_us": 116014199,
      "is_ai": false,
      "track_id": 0,
      "velocity": 0,
      "is_motor": true,
      "motor_id": 2,
      "accel_val": 2000,
      "base_duration_us": 132743
    },
    {
      "id": "M_1091",
      "pitch": 91,
      "t_note_us": 116282905,
      "t_trigger_us": 116146942,
      "is_ai": true,
      "track_id": 7,
      "velocity": 0,
      "is_motor": false,
      "motor_id": 0,
      "accel_val": 2000,
      "base_duration_us": 796458
    },
    {
      "id": "M_1082",
      "pitch": 60,
      "t_note_us": 116282905,
      "t_trigger_us": 116146942,
      "is_ai": false,
      "track_id": 0,
      "velocity": 0,
      "is_motor": true,
      "motor_id": 1,
      "accel_val": 2000,
      "base_duration_us": 398229
    },
    {
      "id": "M_1084",
      "pitch": 67,
      "t_note_us": 116282905,
      "t_trigger_us": 116146942,
      "is_ai": false,
      "track_id": 0,
      "velocity": 0,
      "is_motor": true,
      "motor_id": 2,
      "accel_val": 2000,
      "base_duration_us": 530972
    },
    {
      "id": "M_1088",
      "pitch": 67,
      "t_note_us": 116282905,
      "t_trigger_us": 116146942,
      "is_ai": false,
      "track_id": 0,
      "velocity": 0,
      "is_motor": true,
      "motor_id": 0,
      "accel_val": 2000,
      "base_duration_us": 796458
    },
    {
      "id": "M_1089",
      "pitch": 76,
      "t_note_us": 116282905,
      "t_trigger_us": 116146942,
      "is_ai": false,
      "track_id": 0,
      "velocity": 0,
      "is_motor": true,
      "motor_id": 3,
      "accel_val": 2000,
      "base_duration_us": 796458
    },
    {
      "id": "M_1090",
      "pitch": 69,
      "t_note_us": 116282905,
      "t_trigger_us": 116146942,
      "is_ai": false,
      "track_id": 0,
      "velocity": 0,
      "is_motor": true,
      "motor_id": 0,
      "accel_val": 2000,
      "base_duration_us": 796458
    },
    {
      "id": "M_1083",
      "pitch": 60,
      "t_note_us": 116681134,
      "t_trigger_us": 116545171,
      "is_ai": false,
      "track_id": 0,
      "velocity": 0,
      "is_motor": true,
      "motor_id": 1,
      "accel_val": 2000,
      "base_duration_us": 132743
    },
    {
      "id": "M_1087",
      "pitch": 93,
      "t_note_us": 116813877,
      "t_trigger_us": 116677914,
      "is_ai": true,
      "track_id": 8,
      "velocity": 0,
      "is_motor": false,
      "motor_id": 0,
      "accel_val": 2000,
      "base_duration_us": 265486
    },
    {
      "id": "M_1085",
      "pitch": 69,
      "t_note_us": 116813877,
      "t_trigger_us": 116677914,
      "is_ai": false,
      "track_id": 0,
      "velocity": 0,
      "is_motor": true,
      "motor_id": 1,
      "accel_val": 2000,
      "base_duration_us": 265486
    },
    {
      "id": "M_1086",
      "pitch": 60,
      "t_note_us": 116813877,
      "t_trigger_us": 116677914,
      "is_ai": false,
      "track_id": 0,
      "velocity": 0,
      "is_motor": true,
      "motor_id": 2,
      "accel_val": 2000,
      "base_duration_us": 265486
    },
    {
      "id": "M_1093",
      "pitch": 102,
      "t_note_us": 117079363,
      "t_trigger_us": 116943400,
      "is_ai": true,
      "track_id": 0,
      "velocity": 0,
      "is_motor": true,
      "motor_id": 3,
      "accel_val": 2000,
      "base_duration_us": 398229
    },
    {
      "id": "M_1099",
      "pitch": 93,
      "t_note_us": 117079363,
      "t_trigger_us": 116943400,
      "is_ai": true,
      "track_id": 8,
      "velocity": 0,
      "is_motor": false,
      "motor_id": 0,
      "accel_val": 2000,
      "base_duration_us": 796458
    },
    {
      "id": "M_1092",
      "pitch": 78,
      "t_note_us": 117079363,
      "t_trigger_us": 116943400,
      "is_ai": false,
      "track_id": 0,
      "velocity": 0,
      "is_motor": true,
      "motor_id": 2,
      "accel_val": 2000,
      "base_duration_us": 398229
    },
    {
      "id": "M_1096",
      "pitch": 62,
      "t_note_us": 117079363,
      "t_trigger_us": 116943400,
      "is_ai": false,
      "track_id": 0,
      "velocity": 0,
      "is_motor": true,
      "motor_id": 1,
      "accel_val": 2000,
      "base_duration_us": 530972
    },
    {
      "id": "M_1098",
      "pitch": 69,
      "t_note_us": 117079363,
      "t_trigger_us": 116943400,
      "is_ai": false,
      "track_id": 0,
      "velocity": 0,
      "is_motor": true,
      "motor_id": 0,
      "accel_val": 2000,
      "base_duration_us": 796458
    },
    {
      "id": "M_1094",
      "pitch": 100,
      "t_note_us": 117477592,
      "t_trigger_us": 117341629,
      "is_ai": true,
      "track_id": 12,
      "velocity": 0,
      "is_motor": false,
      "motor_id": 0,
      "accel_val": 2000,
      "base_duration_us": 132743
    },
    {
      "id": "M_1095",
      "pitch": 76,
      "t_note_us": 117477592,
      "t_trigger_us": 117341629,
      "is_ai": false,
      "track_id": 0,
      "velocity": 0,
      "is_motor": true,
      "motor_id": 2,
      "accel_val": 2000,
      "base_duration_us": 132743
    },
    {
      "id": "M_1101",
      "pitch": 98,
      "t_note_us": 117610335,
      "t_trigger_us": 117474372,
      "is_ai": true,
      "track_id": 11,
      "velocity": 0,
      "is_motor": false,
      "motor_id": 0,
      "accel_val": 2000,
      "base_duration_us": 530972
    },
    {
      "id": "M_1097",
      "pitch": 57,
      "t_note_us": 117610335,
      "t_trigger_us": 117474372,
      "is_ai": false,
      "track_id": 0,
      "velocity": 0,
      "is_motor": true,
      "motor_id": 1,
      "accel_val": 2000,
      "base_duration_us": 265486
    },
    {
      "id": "M_1102",
      "pitch": 74,
      "t_note_us": 117610335,
      "t_trigger_us": 117474372,
      "is_ai": false,
      "track_id": 0,
      "velocity": 0,
      "is_motor": true,
      "motor_id": 2,
      "accel_val": 2000,
      "base_duration_us": 530972
    },
    {
      "id": "M_1106",
      "pitch": 86,
      "t_note_us": 117875821,
      "t_trigger_us": 117739858,
      "is_ai": true,
      "track_id": 4,
      "velocity": 0,
      "is_motor": false,
      "motor_id": 0,
      "accel_val": 2000,
      "base_duration_us": 530972
    },
    {
      "id": "M_1100",
      "pitch": 62,
      "t_note_us": 117875821,
      "t_trigger_us": 117739858,
      "is_ai": false,
      "track_id": 0,
      "velocity": 0,
      "is_motor": true,
      "motor_id": 1,
      "accel_val": 2000,
      "base_duration_us": 265486
    },
    {
      "id": "M_1103",
      "pitch": 86,
      "t_note_us": 118141307,
      "t_trigger_us": 118005344,
      "is_ai": true,
      "track_id": 4,
      "velocity": 0,
      "is_motor": false,
      "motor_id": 0,
      "accel_val": 2000,
      "base_duration_us": 265486
    },
    {
      "id": "M_1105",
      "pitch": 98,
      "t_note_us": 118141307,
      "t_trigger_us": 118005344,
      "is_ai": true,
      "track_id": 11,
      "velocity": 0,
      "is_motor": false,
      "motor_id": 0,
      "accel_val": 2000,
      "base_duration_us": 265486
    },
    {
      "id": "M_1104",
      "pitch": 57,
      "t_note_us": 118141307,
      "t_trigger_us": 118005344,
      "is_ai": false,
      "track_id": 0,
      "velocity": 0,
      "is_motor": true,
      "motor_id": 0,
      "accel_val": 2000,
      "base_duration_us": 265486
    },
    {
      "id": "M_1108",
      "pitch": 90,
      "t_note_us": 118406793,
      "t_trigger_us": 118270830,
      "is_ai": true,
      "track_id": 0,
      "velocity": 0,
      "is_motor": true,
      "motor_id": 3,
      "accel_val": 2000,
      "base_duration_us": 265486
    },
    {
      "id": "M_1115",
      "pitch": 93,
      "t_note_us": 118406793,
      "t_trigger_us": 118270830,
      "is_ai": true,
      "track_id": 8,
      "velocity": 0,
      "is_motor": false,
      "motor_id": 0,
      "accel_val": 2000,
      "base_duration_us": 530972
    },
    {
      "id": "M_1107",
      "pitch": 66,
      "t_note_us": 118406793,
      "t_trigger_us": 118270830,
      "is_ai": false,
      "track_id": 0,
      "velocity": 0,
      "is_motor": true,
      "motor_id": 1,
      "accel_val": 2000,
      "base_duration_us": 265486
    },
    {
      "id": "M_1109",
      "pitch": 59,
      "t_note_us": 118406793,
      "t_trigger_us": 118270830,
      "is_ai": false,
      "track_id": 0,
      "velocity": 0,
      "is_motor": true,
      "motor_id": 0,
      "accel_val": 2000,
      "base_duration_us": 398229
    },
    {
      "id": "M_1113",
      "pitch": 71,
      "t_note_us": 118406793,
      "t_trigger_us": 118270830,
      "is_ai": false,
      "track_id": 0,
      "velocity": 0,
      "is_motor": true,
      "motor_id": 2,
      "accel_val": 2000,
      "base_duration_us": 530972
    },
    {
      "id": "M_1114",
      "pitch": 69,
      "t_note_us": 118406793,
      "t_trigger_us": 118270830,
      "is_ai": false,
      "track_id": 0,
      "velocity": 0,
      "is_motor": true,
      "motor_id": 0,
      "accel_val": 2000,
      "base_duration_us": 530972
    },
    {
      "id": "M_1116",
      "pitch": 78,
      "t_note_us": 118406793,
      "t_trigger_us": 118270830,
      "is_ai": false,
      "track_id": 0,
      "velocity": 0,
      "is_motor": true,
      "motor_id": 0,
      "accel_val": 2000,
      "base_duration_us": 530972
    },
    {
      "id": "M_1117",
      "pitch": 62,
      "t_note_us": 118406793,
      "t_trigger_us": 118270830,
      "is_ai": false,
      "track_id": 0,
      "velocity": 0,
      "is_motor": true,
      "motor_id": 0,
      "accel_val": 2000,
      "base_duration_us": 530972
    },
    {
      "id": "M_1112",
      "pitch": 91,
      "t_note_us": 118672279,
      "t_trigger_us": 118536316,
      "is_ai": true,
      "track_id": 7,
      "velocity": 0,
      "is_motor": false,
      "motor_id": 0,
      "accel_val": 2000,
      "base_duration_us": 265486
    },
    {
      "id": "M_1111",
      "pitch": 67,
      "t_note_us": 118672279,
      "t_trigger_us": 118536316,
      "is_ai": false,
      "track_id": 0,
      "velocity": 0,
      "is_motor": true,
      "motor_id": 1,
      "accel_val": 2000,
      "base_duration_us": 265486
    },
    {
      "id": "M_1110",
      "pitch": 59,
      "t_note_us": 118805022,
      "t_trigger_us": 118669059,
      "is_ai": false,
      "track_id": 0,
      "velocity": 0,
      "is_motor": true,
      "motor_id": 0,
      "accel_val": 2000,
      "base_duration_us": 132743
    },
    {
      "id": "M_1121",
      "pitch": 91,
      "t_note_us": 118937765,
      "t_trigger_us": 118801802,
      "is_ai": true,
      "track_id": 7,
      "velocity": 0,
      "is_motor": false,
      "motor_id": 0,
      "accel_val": 2000,
      "base_duration_us": 530972
    },
    {
      "id": "M_1124",
      "pitch": 103,
      "t_note_us": 118937765,
      "t_trigger_us": 118801802,
      "is_ai": true,
      "track_id": 14,
      "velocity": 0,
      "is_motor": false,
      "motor_id": 0,
      "accel_val": 2000,
      "base_duration_us": 1061944
    },
    {
      "id": "M_1118",
      "pitch": 52,
      "t_note_us": 118937765,
      "t_trigger_us": 118801802,
      "is_ai": false,
      "track_id": 0,
      "velocity": 0,
      "is_motor": true,
      "motor_id": 0,
      "accel_val": 2000,
      "base_duration_us": 265486
    },
    {
      "id": "M_1119",
      "pitch": 67,
      "t_note_us": 118937765,
      "t_trigger_us": 118801802,
      "is_ai": false,
      "track_id": 0,
      "velocity": 0,
      "is_motor": true,
      "motor_id": 1,
      "accel_val": 2000,
      "base_duration_us": 530972
    },
    {
      "id": "M_1120",
      "pitch": 67,
      "t_note_us": 118937765,
      "t_trigger_us": 118801802,
      "is_ai": false,
      "track_id": 0,
      "velocity": 0,
      "is_motor": true,
      "motor_id": 2,
      "accel_val": 2000,
      "base_duration_us": 530972
    },
    {
      "id": "M_1125",
      "pitch": 64,
      "t_note_us": 118937765,
      "t_trigger_us": 118801802,
      "is_ai": false,
      "track_id": 0,
      "velocity": 0,
      "is_motor": true,
      "motor_id": 3,
      "accel_val": 2000,
      "base_duration_us": 1061944
    },
    {
      "id": "M_1126",
      "pitch": 71,
      "t_note_us": 118937765,
      "t_trigger_us": 118801802,
      "is_ai": false,
      "track_id": 0,
      "velocity": 0,
      "is_motor": true,
      "motor_id": 0,
      "accel_val": 2000,
      "base_duration_us": 1061944
    },
    {
      "id": "M_1122",
      "pitch": 52,
      "t_note_us": 119203251,
      "t_trigger_us": 119067288,
      "is_ai": false,
      "track_id": 0,
      "velocity": 0,
      "is_motor": true,
      "motor_id": 0,
      "accel_val": 2000,
      "base_duration_us": 530972
    },
    {
      "id": "M_1123",
      "pitch": 52,
      "t_note_us": 119734223,
      "t_trigger_us": 119598260,
      "is_ai": false,
      "track_id": 0,
      "velocity": 0,
      "is_motor": true,
      "motor_id": 0,
      "accel_val": 2000,
      "base_duration_us": 265486
    },
    {
      "id": "M_1128",
      "pitch": 91,
      "t_note_us": 119999709,
      "t_trigger_us": 119863746,
      "is_ai": true,
      "track_id": 7,
      "velocity": 0,
      "is_motor": false,
      "motor_id": 0,
      "accel_val": 2000,
      "base_duration_us": 132743
    },
    {
      "id": "M_1127",
      "pitch": 67,
      "t_note_us": 119999709,
      "t_trigger_us": 119863746,
      "is_ai": false,
      "track_id": 0,
      "velocity": 0,
      "is_motor": true,
      "motor_id": 1,
      "accel_val": 2000,
      "base_duration_us": 132743
    },
    {
      "id": "M_1129",
      "pitch": 55,
      "t_note_us": 119999709,
      "t_trigger_us": 119863746,
      "is_ai": false,
      "track_id": 0,
      "velocity": 0,
      "is_motor": true,
      "motor_id": 0,
      "accel_val": 2000,
      "base_duration_us": 265486
    },
    {
      "id": "M_1130",
      "pitch": 91,
      "t_note_us": 120132452,
      "t_trigger_us": 119996489,
      "is_ai": true,
      "track_id": 7,
      "velocity": 0,
      "is_motor": false,
      "motor_id": 0,
      "accel_val": 2000,
      "base_duration_us": 265486
    },
    {
      "id": "M_1131",
      "pitch": 67,
      "t_note_us": 120132452,
      "t_trigger_us": 119996489,
      "is_ai": false,
      "track_id": 0,
      "velocity": 0,
      "is_motor": true,
      "motor_id": 1,
      "accel_val": 2000,
      "base_duration_us": 265486
    },
    {
      "id": "M_1134",
      "pitch": 55,
      "t_note_us": 120265195,
      "t_trigger_us": 120129232,
      "is_ai": false,
      "track_id": 0,
      "velocity": 0,
      "is_motor": true,
      "motor_id": 0,
      "accel_val": 2000,
      "base_duration_us": 265486
    },
    {
      "id": "M_1132",
      "pitch": 91,
      "t_note_us": 120397938,
      "t_trigger_us": 120261975,
      "is_ai": true,
      "track_id": 7,
      "velocity": 0,
      "is_motor": false,
      "motor_id": 0,
      "accel_val": 2000,
      "base_duration_us": 132743
    },
    {
      "id": "M_1133",
      "pitch": 67,
      "t_note_us": 120397938,
      "t_trigger_us": 120261975,
      "is_ai": false,
      "track_id": 0,
      "velocity": 0,
      "is_motor": true,
      "motor_id": 1,
      "accel_val": 2000,
      "base_duration_us": 132743
    }
  ]
}