{
  "config": {
    "mode_idx": 0,
    "active_motors": [
      0,
      1,
      2,
      3
    ],
    "transpose": 0,
    "arp_speed_ms": 10,
    "gate_time": 100
  },
  "sustain_multiplier": 1.0,
  "notes": [
    {
      "id": "M_0",
      "pitch": 93,
      "t_note_us": 0,
      "t_trigger_us": 1,
      "is_ai": true,
      "track_id": 8,
      "velocity": 0,
      "is_motor": false,
      "motor_id": 0,
      "accel_val": 2000,
      "base_duration_us": 375000
    },
    {
      "id": "M_13",
      "pitch": 100,
      "t_note_us": 375000,
      "t_trigger_us": 239037,
      "is_ai": true,
      "track_id": 12,
      "velocity": 0,
      "is_motor": false,
      "motor_id": 0,
      "accel_val": 2000,
      "base_duration_us": 1500000
    },
    {
      "id": "M_1",
      "pitch": 65,
      "t_note_us": 375000,
      "t_trigger_us": 239037,
      "is_ai": false,
      "track_id": 0,
      "velocity": 0,
      "is_motor": true,
      "motor_id": 1,
      "accel_val": 2000,
      "base_duration_us": 187500
    },
    {
      "id": "M_2",
      "pitch": 77,
      "t_note_us": 375000,
      "t_trigger_us": 239037,
      "is_ai": false,
      "track_id": 0,
      "velocity": 0,
      "is_motor": true,
      "motor_id": 2,
      "accel_val": 2000,
      "base_duration_us": 187500
    },
    {
      "id": "M_12",
      "pitch": 76,
      "t_note_us": 375000,
      "t_trigger_us": 239037,
      "is_ai": false,
      "track_id": 0,
      "velocity": 0,
      "is_motor": true,
      "motor_id": 3,
      "accel_val": 2000,
      "base_duration_us": 1500000
    },
    {
      "id": "M_3",
      "pitch": 72,
      "t_note_us": 562500,
      "t_trigger_us": 426537,
      "is_ai": false,
      "track_id": 0,
      "velocity": 0,
      "is_motor": true,
      "motor_id": 1,
      "accel_val": 2000,
      "base_duration_us": 187500
    },
    {
      "id": "M_4",
      "pitch": 67,
      "t_note_us": 750000,
      "t_trigger_us": 614037,
      "is_ai": false,
      "track_id": 0,
      "velocity": 0,
      "is_motor": true,
      "motor_id": 1,
      "accel_val": 2000,
      "base_duration_us": 187500
    },
    {
      "id": "M_5",
      "pitch": 72,
      "t_note_us": 937500,
      "t_trigger_us": 801537,
      "is_ai": false,
      "track_id": 0,
      "velocity": 0,
      "is_motor": true,
      "motor_id": 1,
      "accel_val": 2000,
      "base_duration_us": 187500
    },
    {
      "id": "M_6",
      "pitch": 67,
      "t_note_us": 1125000,
      "t_trigger_us": 989037,
      "is_ai": false,
      "track_id": 0,
      "velocity": 0,
      "is_motor": true,
      "motor_id": 1,
      "accel_val": 2000,
      "base_duration_us": 187500
    },
    {
      "id": "M_7",
      "pitch": 96,
      "t_note_us": 1312500,
      "t_trigger_us": 1176537,
      "is_ai": true,
      "track_id": 10,
      "velocity": 0,
      "is_motor": false,
      "motor_id": 0,
      "accel_val": 2000,
      "base_duration_us": 187500
    },
    {
      "id": "M_8",
      "pitch": 101,
      "t_note_us": 1500000,
      "t_trigger_us": 1364037,
      "is_ai": true,
      "track_id": 13,
      "velocity": 0,
      "is_motor": false,
      "motor_id": 0,
      "accel_val": 2000,
      "base_duration_us": 187500
    },
    {
      "id": "M_9",
      "pitch": 69,
      "t_note_us": 1500000,
      "t_trigger_us": 1364037,
      "is_ai": false,
      "track_id": 0,
      "velocity": 0,
      "is_motor": true,
      "motor_id": 1,
      "accel_val": 2000,
      "base_duration_us": 187500
    },
    {
      "id": "M_10",
      "pitch": 96,
      "t_note_us": 1687500,
      "t_trigger_us": 1551537,
      "is_ai": true,
      "track_id": 10,
      "velocity": 0,
      "is_motor": false,
      "motor_id": 0,
      "accel_val": 2000,
      "base_duration_us": 187500
    },
    {
      "id": "M_11",
      "pitch": 93,
      "t_note_us": 1687500,
      "t_trigger_us": 1551537,
      "is_ai": true,
      "track_id": 8,
      "velocity": 0,
      "is_motor": false,
      "motor_id": 0,
      "accel_val": 2000,
      "base_duration_us": 187500
    },
    {
      "id": "M_14",
      "pitch": 67,
      "t_note_us": 1875000,
      "t_trigger_us": 1739037,
      "is_ai": false,
      "track_id": 0,
      "velocity": 0,
      "is_motor": true,
      "motor_id": 1,
      "accel_val": 2000,
      "base_duration_us": 187500
    },
    {
      "id": "M_15",
      "pitch": 67,
      "t_note_us": 1875000,
      "t_trigger_us": 1739037,
      "is_ai": false,
      "track_id": 0,
      "velocity": 0,
      "is_motor": true,
      "motor_id": 2,
      "accel_val": 2000,
      "base_duration_us": 187500
    },
    {
      "id": "M_18",
      "pitch": 67,
      "t_note_us": 1875000,
      "t_trigger_us": 1739037,
      "is_ai": false,
      "track_id": 0,
      "velocity": 0,
      "is_motor": true,
      "motor_id": 0,
      "accel_val": 2000,
      "base_duration_us": 562500
    },
    {
      "id": "M_28",
      "pitch": 76,
      "t_note_us": 1875000,
      "t_trigger_us": 1739037,
      "is_ai": false,
      "track_id": 0,
      "velocity": 0,
      "is_motor": true,
      "motor_id": 3,
      "accel_val": 2000,
      "base_duration_us": 1500000
    },
    {
      "id": "M_29",
      "pitch": 76,
      "t_note_us": 1875000,
      "t_trigger_us": 1739037,
      "is_ai": false,
      "track_id": 0,
      "velocity": 0,
      "is_motor": true,
      "motor_id": 0,
      "accel_val": 2000,
      "base_duration_us": 1500000
    },
    {
      "id": "M_16",
      "pitch": 74,
      "t_note_us": 2062500,
      "t_trigger_us": 1926537,
      "is_ai": false,
      "track_id": 0,
      "velocity": 0,
      "is_motor": true,
      "motor_id": 1,
      "accel_val": 2000,
      "base_duration_us": 187500
    },
    {
      "id": "M_17",
      "pitch": 67,
      "t_note_us": 2250000,
      "t_trigger_us": 2114037,
      "is_ai": false,
      "track_id": 0,
      "velocity": 0,
      "is_motor": true,
      "motor_id": 1,
      "accel_val": 2000,
      "base_duration_us": 187500
    },
    {
      "id": "M_20",
      "pitch": 91,
      "t_note_us": 2437500,
      "t_trigger_us": 2301537,
      "is_ai": true,
      "track_id": 7,
      "velocity": 0,
      "is_motor": false,
      "motor_id": 0,
      "accel_val": 2000,
      "base_duration_us": 187500
    },
    {
      "id": "M_19",
      "pitch": 71,
      "t_note_us": 2437500,
      "t_trigger_us": 2301537,
      "is_ai": false,
      "track_id": 0,
      "velocity": 0,
      "is_motor": true,
      "motor_id": 1,
      "accel_val": 2000,
      "base_duration_us": 187500
    },
    {
      "id": "M_23",
      "pitch": 93,
      "t_note_us": 2625000,
      "t_trigger_us": 2489037,
      "is_ai": true,
      "track_id": 8,
      "velocity": 0,
      "is_motor": false,
      "motor_id": 0,
      "accel_val": 2000,
      "base_duration_us": 375000
    },
    {
      "id": "M_21",
      "pitch": 67,
      "t_note_us": 2625000,
      "t_trigger_us": 2489037,
      "is_ai": false,
      "track_id": 0,
      "velocity": 0,
      "is_motor": true,
      "motor_id": 1,
      "accel_val": 2000,
      "base_duration_us": 187500
    },
    {
      "id": "M_22",
      "pitch": 95,
      "t_note_us": 2812500,
      "t_trigger_us": 2676537,
      "is_ai": true,
      "track_id": 9,
      "velocity": 0,
      "is_motor": false,
      "motor_id": 0,
      "accel_val": 2000,
      "base_duration_us": 187500
    },
    {
      "id": "M_24",
      "pitch": 101,
      "t_note_us": 3000000,
      "t_trigger_us": 2864037,
      "is_ai": true,
      "track_id": 13,
      "velocity": 0,
      "is_motor": false,
      "motor_id": 0,
      "accel_val": 2000,
      "base_duration_us": 187500
    },
    {
      "id": "M_25",
      "pitch": 69,
      "t_note_us": 3000000,
      "t_trigger_us": 2864037,
      "is_ai": false,
      "track_id": 0,
      "velocity": 0,
      "is_motor": true,
      "motor_id": 1,
      "accel_val": 2000,
      "base_duration_us": 187500
    },
    {
      "id": "M_26",
      "pitch": 95,
      "t_note_us": 3187500,
      "t_trigger_us": 3051537,
      "is_ai": true,
      "track_id": 9,
      "velocity": 0,
      "is_motor": false,
      "motor_id": 0,
      "accel_val": 2000,
      "base_duration_us": 187500
    },
    {
      "id": "M_27",
      "pitch": 95,
      "t_note_us": 3187500,
      "t_trigger_us": 3051537,
      "is_ai": true,
      "track_id": 9,
      "velocity": 0,
      "is_motor": false,
      "motor_id": 0,
      "accel_val": 2000,
      "base_duration_us": 187500
    },
    {
      "id": "M_33",
      "pitch": 96,
      "t_note_us": 3375000,
      "t_trigger_us": 3239037,
      "is_ai": true,
      "track_id": 10,
      "velocity": 0,
      "is_motor": false,
      "motor_id": 0,
      "accel_val": 2000,
      "base_duration_us": 375000
    },
    {
      "id": "M_44",
      "pitch": 100,
      "t_note_us": 3375000,
      "t_trigger_us": 3239037,
      "is_ai": true,
      "track_id": 12,
      "velocity": 0,
      "is_motor": false,
      "motor_id": 0,
      "accel_val": 2000,
      "base_duration_us": 1500000
    },
    {
      "id": "M_30",
      "pitch": 69,
      "t_note_us": 3375000,
      "t_trigger_us": 3239037,
      "is_ai": false,
      "track_id": 0,
      "velocity": 0,
      "is_motor": true,
      "motor_id": 1,
      "accel_val": 2000,
      "base_duration_us": 187500
    },
    {
      "id": "M_31",
      "pitch": 69,
      "t_note_us": 3375000,
      "t_trigger_us": 3239037,
      "is_ai": false,
      "track_id": 0,
      "velocity": 0,
      "is_motor": true,
      "motor_id": 2,
      "accel_val": 2000,
      "base_duration_us": 187500
    },
    {
      "id": "M_43",
      "pitch": 76,
      "t_note_us": 3375000,
      "t_trigger_us": 3239037,
      "is_ai": false,
      "track_id": 0,
      "velocity": 0,
      "is_motor": true,
      "motor_id": 3,
      "accel_val": 2000,
      "base_duration_us": 1500000
    },
    {
      "id": "M_32",
      "pitch": 76,
      "t_note_us": 3562500,
      "t_trigger_us": 3426537,
      "is_ai": false,
      "track_id": 0,
      "velocity": 0,
      "is_motor": true,
      "motor_id": 2,
      "accel_val": 2000,
      "base_duration_us": 187500
    },
    {
      "id": "M_36",
      "pitch": 95,
      "t_note_us": 3750000,
      "t_trigger_us": 3614037,
      "is_ai": true,
      "track_id": 9,
      "velocity": 0,
      "is_motor": false,
      "motor_id": 0,
      "accel_val": 2000,
      "base_duration_us": 375000
    },
    {
      "id": "M_34",
      "pitch": 67,
      "t_note_us": 3750000,
      "t_trigger_us": 3614037,
      "is_ai": false,
      "track_id": 0,
      "velocity": 0,
      "is_motor": true,
      "motor_id": 1,
      "accel_val": 2000,
      "base_duration_us": 187500
    },
    {
      "id": "M_35",
      "pitch": 71,
      "t_note_us": 3937500,
      "t_trigger_us": 3801537,
      "is_ai": false,
      "track_id": 0,
      "velocity": 0,
      "is_motor": true,
      "motor_id": 1,
      "accel_val": 2000,
      "base_duration_us": 187500
    },
    {
      "id": "M_37",
      "pitch": 93,
      "t_note_us": 4125000,
      "t_trigger_us": 3989037,
      "is_ai": true,
      "track_id": 8,
      "velocity": 0,
      "is_motor": false,
      "motor_id": 0,
      "accel_val": 2000,
      "base_duration_us": 187500
    },
    {
      "id": "M_39",
      "pitch": 93,
      "t_note_us": 4125000,
      "t_trigger_us": 3989037,
      "is_ai": true,
      "track_id": 8,
      "velocity": 0,
      "is_motor": false,
      "motor_id": 0,
      "accel_val": 2000,
      "base_duration_us": 375000
    },
    {
      "id": "M_38",
      "pitch": 96,
      "t_note_us": 4312500,
      "t_trigger_us": 4176537,
      "is_ai": true,
      "track_id": 10,
      "velocity": 0,
      "is_motor": false,
      "motor_id": 0,
      "accel_val": 2000,
      "base_duration_us": 187500
    },
    {
      "id": "M_40",
      "pitch": 100,
      "t_note_us": 4500000,
      "t_trigger_us": 4364037,
      "is_ai": true,
      "track_id": 12,
      "velocity": 0,
      "is_motor": false,
      "motor_id": 0,
      "accel_val": 2000,
      "base_duration_us": 187500
    },
    {
      "id": "M_42",
      "pitch": 67,
      "t_note_us": 4500000,
      "t_trigger_us": 4364037,
      "is_ai": false,
      "track_id": 0,
      "velocity": 0,
      "is_motor": true,
      "motor_id": 1,
      "accel_val": 2000,
      "base_duration_us": 375000
    },
    {
      "id": "M_41",
      "pitch": 96,
      "t_note_us": 4687500,
      "t_trigger_us": 4551537,
      "is_ai": true,
      "track_id": 10,
      "velocity": 0,
      "is_motor": false,
      "motor_id": 0,
      "accel_val": 2000,
      "base_duration_us": 187500
    },
    {
      "id": "M_45",
      "pitch": 96,
      "t_note_us": 4875000,
      "t_trigger_us": 4739037,
      "is_ai": true,
      "track_id": 10,
      "velocity": 0,
      "is_motor": false,
      "motor_id": 0,
      "accel_val": 2000,
      "base_duration_us": 375000
    },
    {
      "id": "M_46",
      "pitch": 100,
      "t_note_us": 4875000,
      "t_trigger_us": 4739037,
      "is_ai": true,
      "track_id": 12,
      "velocity": 0,
      "is_motor": false,
      "motor_id": 0,
      "accel_val": 2000,
      "base_duration_us": 375000
    },
    {
      "id": "M_49",
      "pitch": 100,
      "t_note_us": 4875000,
      "t_trigger_us": 4739037,
      "is_ai": true,
      "track_id": 12,
      "velocity": 0,
      "is_motor": false,
      "motor_id": 0,
      "accel_val": 2000,
      "base_duration_us": 750000
    },
    {
      "id": "M_48",
      "pitch": 98,
      "t_note_us": 5250000,
      "t_trigger_us": 5114037,
      "is_ai": true,
      "track_id": 11,
      "velocity": 0,
      "is_motor": false,
      "motor_id": 0,
      "accel_val": 2000,
      "base_duration_us": 375000
    },
    {
      "id": "M_47",
      "pitch": 71,
      "t_note_us": 5250000,
      "t_trigger_us": 5114037,
      "is_ai": false,
      "track_id": 0,
      "velocity": 0,
      "is_motor": true,
      "motor_id": 1,
      "accel_val": 2000,
      "base_duration_us": 375000
    },
    {
      "id": "M_50",
      "pitch": 93,
      "t_note_us": 5625000,
      "t_trigger_us": 5489037,
      "is_ai": true,
      "track_id": 8,
      "velocity": 0,
      "is_motor": false,
      "motor_id": 0,
      "accel_val": 2000,
      "base_duration_us": 375000
    },
    {
      "id": "M_51",
      "pitch": 96,
      "t_note_us": 5625000,
      "t_trigger_us": 5489037,
      "is_ai": true,
      "track_id": 10,
      "velocity": 0,
      "is_motor": false,
      "motor_id": 0,
      "accel_val": 2000,
      "base_duration_us": 375000
    },
    {
      "id": "M_52",
      "pitch": 91,
      "t_note_us": 5625000,
      "t_trigger_us": 5489037,
      "is_ai": true,
      "track_id": 7,
      "velocity": 0,
      "is_motor": false,
      "motor_id": 0,
      "accel_val": 2000,
      "base_duration_us": 375000
    },
    {
      "id": "M_53",
      "pitch": 103,
      "t_note_us": 6000000,
      "t_trigger_us": 5864037,
      "is_ai": true,
      "track_id": 14,
      "velocity": 0,
      "is_motor": false,
      "motor_id": 0,
      "accel_val": 2000,
      "base_duration_us": 375000
    },
    {
      "id": "M_55",
      "pitch": 93,
      "t_note_us": 6000000,
      "t_trigger_us": 5864037,
      "is_ai": true,
      "track_id": 8,
      "velocity": 0,
      "is_motor": false,
      "motor_id": 0,
      "accel_val": 2000,
      "base_duration_us": 375000
    },
    {
      "id": "M_54",
      "pitch": 71,
      "t_note_us": 6000000,
      "t_trigger_us": 5864037,
      "is_ai": false,
      "track_id": 0,
      "velocity": 0,
      "is_motor": true,
      "motor_id": 1,
      "accel_val": 2000,
      "base_duration_us": 375000
    },
    {
      "id": "M_56",
      "pitch": 100,
      "t_note_us": 6375000,
      "t_trigger_us": 6239037,
      "is_ai": true,
      "track_id": 12,
      "velocity": 0,
      "is_motor": false,
      "motor_id": 0,
      "accel_val": 2000,
      "base_duration_us": 750000
    },
    {
      "id": "M_57",
      "pitch": 88,
      "t_note_us": 6375000,
      "t_trigger_us": 6239037,
      "is_ai": true,
      "track_id": 5,
      "velocity": 0,
      "is_motor": false,
      "motor_id": 0,
      "accel_val": 2000,
      "base_duration_us": 750000
    },
    {
      "id": "M_58",
      "pitch": 96,
      "t_note_us": 6375000,
      "t_trigger_us": 6239037,
      "is_ai": true,
      "track_id": 10,
      "velocity": 0,
      "is_motor": false,
      "motor_id": 0,
      "accel_val": 2000,
      "base_duration_us": 750000
    },
    {
      "id": "M_63",
      "pitch": 65,
      "t_note_us": 6375000,
      "t_trigger_us": 6239037,
      "is_ai": false,
      "track_id": 0,
      "velocity": 0,
      "is_motor": true,
      "motor_id": 1,
      "accel_val": 2000,
      "base_duration_us": 1500000
    },
    {
      "id": "M_64",
      "pitch": 77,
      "t_note_us": 6375000,
      "t_trigger_us": 6239037,
      "is_ai": false,
      "track_id": 0,
      "velocity": 0,
      "is_motor": true,
      "motor_id": 2,
      "accel_val": 2000,
      "base_duration_us": 1500000
    },
    {
      "id": "M_59",
      "pitch": 69,
      "t_note_us": 7125000,
      "t_trigger_us": 6989037,
      "is_ai": false,
      "track_id": 0,
      "velocity": 0,
      "is_motor": true,
      "motor_id": 0,
      "accel_val": 2000,
      "base_duration_us": 375000
    },
    {
      "id": "M_61",
      "pitch": 71,
      "t_note_us": 7125000,
      "t_trigger_us": 6989037,
      "is_ai": false,
      "track_id": 0,
      "velocity": 0,
      "is_motor": true,
      "motor_id": 3,
      "accel_val": 2000,
      "base_duration_us": 750000
    },
    {
      "id": "M_62",
      "pitch": 74,
      "t_note_us": 7125000,
      "t_trigger_us": 6989037,
      "is_ai": false,
      "track_id": 0,
      "velocity": 0,
      "is_motor": true,
      "motor_id": 0,
      "accel_val": 2000,
      "base_duration_us": 750000
    },
    {
      "id": "M_60",
      "pitch": 69,
      "t_note_us": 7500000,
      "t_trigger_us": 7364037,
      "is_ai": false,
      "track_id": 0,
      "velocity": 0,
      "is_motor": true,
      "motor_id": 0,
      "accel_val": 2000,
      "base_duration_us": 375000
    },
    {
      "id": "M_65",
      "pitch": 88,
      "t_note_us": 7875000,
      "t_trigger_us": 7739037,
      "is_ai": true,
      "track_id": 5,
      "velocity": 0,
      "is_motor": false,
      "motor_id": 0,
      "accel_val": 2000,
      "base_duration_us": 375000
    },
    {
      "id": "M_66",
      "pitch": 91,
      "t_note_us": 7875000,
      "t_trigger_us": 7739037,
      "is_ai": true,
      "track_id": 7,
      "velocity": 0,
      "is_motor": false,
      "motor_id": 0,
      "accel_val": 2000,
      "base_duration_us": 375000
    },
    {
      "id": "M_68",
      "pitch": 69,
      "t_note_us": 7875000,
      "t_trigger_us": 7739037,
      "is_ai": false,
      "track_id": 0,
      "velocity": 0,
      "is_motor": true,
      "motor_id": 1,
      "accel_val": 2000,
      "base_duration_us": 750000
    },
    {
      "id": "M_69",
      "pitch": 72,
      "t_note_us": 7875000,
      "t_trigger_us": 7739037,
      "is_ai": false,
      "track_id": 0,
      "velocity": 0,
      "is_motor": true,
      "motor_id": 0,
      "accel_val": 2000,
      "base_duration_us": 750000
    },
    {
      "id": "M_74",
      "pitch": 67,
      "t_note_us": 7875000,
      "t_trigger_us": 7739037,
      "is_ai": false,
      "track_id": 0,
      "velocity": 0,
      "is_motor": true,
      "motor_id": 2,
      "accel_val": 2000,
      "base_duration_us": 1500000
    },
    {
      "id": "M_75",
      "pitch": 67,
      "t_note_us": 7875000,
      "t_trigger_us": 7739037,
      "is_ai": false,
      "track_id": 0,
      "velocity": 0,
      "is_motor": true,
      "motor_id": 3,
      "accel_val": 2000,
      "base_duration_us": 1500000
    },
    {
      "id": "M_67",
      "pitch": 93,
      "t_note_us": 8250000,
      "t_trigger_us": 8114037,
      "is_ai": true,
      "track_id": 8,
      "velocity": 0,
      "is_motor": false,
      "motor_id": 0,
      "accel_val": 2000,
      "base_duration_us": 375000
    },
    {
      "id": "M_70",
      "pitch": 88,
      "t_note_us": 8625000,
      "t_trigger_us": 8489037,
      "is_ai": true,
      "track_id": 5,
      "velocity": 0,
      "is_motor": false,
      "motor_id": 0,
      "accel_val": 2000,
      "base_duration_us": 562500
    },
    {
      "id": "M_71",
      "pitch": 69,
      "t_note_us": 8625000,
      "t_trigger_us": 8489037,
      "is_ai": false,
      "track_id": 0,
      "velocity": 0,
      "is_motor": true,
      "motor_id": 1,
      "accel_val": 2000,
      "base_duration_us": 562500
    },
    {
      "id": "M_73",
      "pitch": 71,
      "t_note_us": 8625000,
      "t_trigger_us": 8489037,
      "is_ai": false,
      "track_id": 0,
      "velocity": 0,
      "is_motor": true,
      "motor_id": 0,
      "accel_val": 2000,
      "base_duration_us": 750000
    },
    {
      "id": "M_72",
      "pitch": 69,
      "t_note_us": 9187500,
      "t_trigger_us": 9051537,
      "is_ai": false,
      "track_id": 0,
      "velocity": 0,
      "is_motor": true,
      "motor_id": 1,
      "accel_val": 2000,
      "base_duration_us": 187500
    },
    {
      "id": "M_76",
      "pitch": 88,
      "t_note_us": 9375000,
      "t_trigger_us": 9239037,
      "is_ai": true,
      "track_id": 5,
      "velocity": 0,
      "is_motor": false,
      "motor_id": 0,
      "accel_val": 2000,
      "base_duration_us": 562500
    },
    {
      "id": "M_77",
      "pitch": 69,
      "t_note_us": 9375000,
      "t_trigger_us": 9239037,
      "is_ai": false,
      "track_id": 0,
      "velocity": 0,
      "is_motor": true,
      "motor_id": 1,
      "accel_val": 2000,
      "base_duration_us": 562500
    },
    {
      "id": "M_79",
      "pitch": 69,
      "t_note_us": 9375000,
      "t_trigger_us": 9239037,
      "is_ai": false,
      "track_id": 0,
      "velocity": 0,
      "is_motor": true,
      "motor_id": 2,
      "accel_val": 2000,
      "base_duration_us": 750000
    },
    {
      "id": "M_80",
      "pitch": 76,
      "t_note_us": 9375000,
      "t_trigger_us": 9239037,
      "is_ai": false,
      "track_id": 0,
      "velocity": 0,
      "is_motor": true,
      "motor_id": 3,
      "accel_val": 2000,
      "base_duration_us": 750000
    },
    {
      "id": "M_81",
      "pitch": 69,
      "t_note_us": 9375000,
      "t_trigger_us": 9239037,
      "is_ai": false,
      "track_id": 0,
      "velocity": 0,
      "is_motor": true,
      "motor_id": 0,
      "accel_val": 2000,
      "base_duration_us": 750000
    },
    {
      "id": "M_78",
      "pitch": 96,
      "t_note_us": 9937500,
      "t_trigger_us": 9801537,
      "is_ai": true,
      "track_id": 10,
      "velocity": 0,
      "is_motor": false,
      "motor_id": 0,
      "accel_val": 2000,
      "base_duration_us": 187500
    },
    {
      "id": "M_82",
      "pitch": 86,
      "t_note_us": 10125000,
      "t_trigger_us": 9989037,
      "is_ai": true,
      "track_id": 4,
      "velocity": 0,
      "is_motor": false,
      "motor_id": 0,
      "accel_val": 2000,
      "base_duration_us": 750000
    },
    {
      "id": "M_83",
      "pitch": 91,
      "t_note_us": 10125000,
      "t_trigger_us": 9989037,
      "is_ai": true,
      "track_id": 7,
      "velocity": 0,
      "is_motor": false,
      "motor_id": 0,
      "accel_val": 2000,
      "base_duration_us": 750000
    },
    {
      "id": "M_84",
      "pitch": 96,
      "t_note_us": 10125000,
      "t_trigger_us": 9989037,
      "is_ai": true,
      "track_id": 10,
      "velocity": 0,
      "is_motor": false,
      "motor_id": 0,
      "accel_val": 2000,
      "base_duration_us": 750000
    },
    {
      "id": "M_85",
      "pitch": 74,
      "t_note_us": 10125000,
      "t_trigger_us": 9989037,
      "is_ai": false,
      "track_id": 0,
      "velocity": 0,
      "is_motor": true,
      "motor_id": 1,
      "accel_val": 2000,
      "base_duration_us": 750000
    },
    {
      "id": "M_86",
      "pitch": 78,
      "t_note_us": 10125000,
      "t_trigger_us": 9989037,
      "is_ai": false,
      "track_id": 0,
      "velocity": 0,
      "is_motor": true,
      "motor_id": 2,
      "accel_val": 2000,
      "base_duration_us": 750000
    },
    {
      "id": "M_87",
      "pitch": 72,
      "t_note_us": 10125000,
      "t_trigger_us": 9989037,
      "is_ai": false,
      "track_id": 0,
      "velocity": 0,
      "is_motor": true,
      "motor_id": 0,
      "accel_val": 2000,
      "base_duration_us": 750000
    },
    {
      "id": "M_88",
      "pitch": 91,
      "t_note_us": 10875000,
      "t_trigger_us": 10739037,
      "is_ai": true,
      "track_id": 7,
      "velocity": 0,
      "is_motor": false,
      "motor_id": 0,
      "accel_val": 2000,
      "base_duration_us": 750000
    },
    {
      "id": "M_89",
      "pitch": 95,
      "t_note_us": 10875000,
      "t_trigger_us": 10739037,
      "is_ai": true,
      "track_id": 9,
      "velocity": 0,
      "is_motor": false,
      "motor_id": 0,
      "accel_val": 2000,
      "base_duration_us": 750000
    },
    {
      "id": "M_90",
      "pitch": 100,
      "t_note_us": 10875000,
      "t_trigger_us": 10739037,
      "is_ai": true,
      "track_id": 12,
      "velocity": 0,
      "is_motor": false,
      "motor_id": 0,
      "accel_val": 2000,
      "base_duration_us": 750000
    },
    {
      "id": "M_91",
      "pitch": 76,
      "t_note_us": 10875000,
      "t_trigger_us": 10739037,
      "is_ai": false,
      "track_id": 0,
      "velocity": 0,
      "is_motor": true,
      "motor_id": 2,
      "accel_val": 2000,
      "base_duration_us": 750000
    },
    {
      "id": "M_92",
      "pitch": 69,
      "t_note_us": 10875000,
      "t_trigger_us": 10739037,
      "is_ai": false,
      "track_id": 0,
      "velocity": 0,
      "is_motor": true,
      "motor_id": 1,
      "accel_val": 2000,
      "base_duration_us": 750000
    },
    {
      "id": "M_94",
      "pitch": 100,
      "t_note_us": 11625000,
      "t_trigger_us": 11489037,
      "is_ai": true,
      "track_id": 12,
      "velocity": 0,
      "is_motor": false,
      "motor_id": 0,
      "accel_val": 2000,
      "base_duration_us": 3000000
    },
    {
      "id": "M_93",
      "pitch": 69,
      "t_note_us": 11625000,
      "t_trigger_us": 11489037,
      "is_ai": false,
      "track_id": 0,
      "velocity": 0,
      "is_motor": true,
      "motor_id": 1,
      "accel_val": 2000,
      "base_duration_us": 3000000
    },
    {
      "id": "M_95",
      "pitch": 67,
      "t_note_us": 11625000,
      "t_trigger_us": 11489037,
      "is_ai": false,
      "track_id": 0,
      "velocity": 0,
      "is_motor": true,
      "motor_id": 2,
      "accel_val": 2000,
      "base_duration_us": 3000000
    },
    {
      "id": "M_96",
      "pitch": 76,
      "t_note_us": 11625000,
      "t_trigger_us": 11489037,
      "is_ai": false,
      "track_id": 0,
      "velocity": 0,
      "is_motor": true,
      "motor_id": 3,
      "accel_val": 2000,
      "base_duration_us": 3000000
    },
    {
      "id": "M_97",
      "pitch": 68,
      "t_note_us": 11625000,
      "t_trigger_us": 11489037,
      "is_ai": false,
      "track_id": 0,
      "velocity": 0,
      "is_motor": true,
      "motor_id": 0,
      "accel_val": 2000,
      "base_duration_us": 3000000
    },
    {
      "id": "M_98",
      "pitch": 74,
      "t_note_us": 11625000,
      "t_trigger_us": 11489037,
      "is_ai": false,
      "track_id": 0,
      "velocity": 0,
      "is_motor": true,
      "motor_id": 0,
      "accel_val": 2000,
      "base_duration_us": 3000000
    },
    {
      "id": "M_99",
      "pitch": 67,
      "t_note_us": 15000000,
      "t_trigger_us": 14864037,
      "is_ai": false,
      "track_id": 0,
      "velocity": 0,
      "is_motor": true,
      "motor_id": 1,
      "accel_val": 2000,
      "base_duration_us": 187500
    },
    {
      "id": "M_100",
      "pitch": 67,
      "t_note_us": 15000000,
      "t_trigger_us": 14864037,
      "is_ai": false,
      "track_id": 0,
      "velocity": 0,
      "is_motor": true,
      "motor_id": 2,
      "accel_val": 2000,
      "base_duration_us": 187500
    },
    {
      "id": "M_101",
      "pitch": 69,
      "t_note_us": 15187500,
      "t_trigger_us": 15051537,
      "is_ai": false,
      "track_id": 0,
      "velocity": 0,
      "is_motor": true,
      "motor_id": 1,
      "accel_val": 2000,
      "base_duration_us": 187500
    },
    {
      "id": "M_102",
      "pitch": 69,
      "t_note_us": 15187500,
      "t_trigger_us": 15051537,
      "is_ai": false,
      "track_id": 0,
      "velocity": 0,
      "is_motor": true,
      "motor_id": 2,
      "accel_val": 2000,
      "base_duration_us": 187500
    },
    {
      "id": "M_103",
      "pitch": 72,
      "t_note_us": 15375000,
      "t_trigger_us": 15239037,
      "is_ai": false,
      "track_id": 0,
      "velocity": 0,
      "is_motor": true,
      "motor_id": 1,
      "accel_val": 2000,
      "base_duration_us": 187500
    },
    {
      "id": "M_104",
      "pitch": 76,
      "t_note_us": 15375000,
      "t_trigger_us": 15239037,
      "is_ai": false,
      "track_id": 0,
      "velocity": 0,
      "is_motor": true,
      "motor_id": 2,
      "accel_val": 2000,
      "base_duration_us": 187500
    },
    {
      "id": "M_105",
      "pitch": 69,
      "t_note_us": 15375000,
      "t_trigger_us": 15239037,
      "is_ai": false,
      "track_id": 0,
      "velocity": 0,
      "is_motor": true,
      "motor_id": 0,
      "accel_val": 2000,
      "base_duration_us": 187500
    },
    {
      "id": "M_106",
      "pitch": 57,
      "t_note_us": 15375000,
      "t_trigger_us": 15239037,
      "is_ai": false,
      "track_id": 0,
      "velocity": 0,
      "is_motor": true,
      "motor_id": 3,
      "accel_val": 2000,
      "base_duration_us": 187500
    },
    {
      "id": "M_107",
      "pitch": 69,
      "t_note_us": 15375000,
      "t_trigger_us": 15239037,
      "is_ai": false,
      "track_id": 0,
      "velocity": 0,
      "is_motor": true,
      "motor_id": 0,
      "accel_val": 2000,
      "base_duration_us": 187500
    },
    {
      "id": "M_108",
      "pitch": 72,
      "t_note_us": 15562500,
      "t_trigger_us": 15426537,
      "is_ai": false,
      "track_id": 0,
      "velocity": 0,
      "is_motor": true,
      "motor_id": 1,
      "accel_val": 2000,
      "base_duration_us": 187500
    },
    {
      "id": "M_109",
      "pitch": 76,
      "t_note_us": 15562500,
      "t_trigger_us": 15426537,
      "is_ai": false,
      "track_id": 0,
      "velocity": 0,
      "is_motor": true,
      "motor_id": 2,
      "accel_val": 2000,
      "base_duration_us": 187500
    },
    {
      "id": "M_110",
      "pitch": 69,
      "t_note_us": 15562500,
      "t_trigger_us": 15426537,
      "is_ai": false,
      "track_id": 0,
      "velocity": 0,
      "is_motor": true,
      "motor_id": 0,
      "accel_val": 2000,
      "base_duration_us": 187500
    },
    {
      "id": "M_111",
      "pitch": 57,
      "t_note_us": 15562500,
      "t_trigger_us": 15426537,
      "is_ai": false,
      "track_id": 0,
      "velocity": 0,
      "is_motor": true,
      "motor_id": 3,
      "accel_val": 2000,
      "base_duration_us": 187500
    },
    {
      "id": "M_112",
      "pitch": 69,
      "t_note_us": 15562500,
      "t_trigger_us": 15426537,
      "is_ai": false,
      "track_id": 0,
      "velocity": 0,
      "is_motor": true,
      "motor_id": 0,
      "accel_val": 2000,
      "base_duration_us": 187500
    },
    {
      "id": "M_113",
      "pitch": 72,
      "t_note_us": 15750000,
      "t_trigger_us": 15614037,
      "is_ai": false,
      "track_id": 0,
      "velocity": 0,
      "is_motor": true,
      "motor_id": 1,
      "accel_val": 2000,
      "base_duration_us": 187500
    },
    {
      "id": "M_114",
      "pitch": 76,
      "t_note_us": 15750000,
      "t_trigger_us": 15614037,
      "is_ai": false,
      "track_id": 0,
      "velocity": 0,
      "is_motor": true,
      "motor_id": 2,
      "accel_val": 2000,
      "base_duration_us": 187500
    },
    {
      "id": "M_115",
      "pitch": 69,
      "t_note_us": 15750000,
      "t_trigger_us": 15614037,
      "is_ai": false,
      "track_id": 0,
      "velocity": 0,
      "is_motor": true,
      "motor_id": 0,
      "accel_val": 2000,
      "base_duration_us": 187500
    },
    {
      "id": "M_116",
      "pitch": 57,
      "t_note_us": 15750000,
      "t_trigger_us": 15614037,
      "is_ai": false,
      "track_id": 0,
      "velocity": 0,
      "is_motor": true,
      "motor_id": 3,
      "accel_val": 2000,
      "base_duration_us": 187500
    },
    {
      "id": "M_117",
      "pitch": 69,
      "t_note_us": 15750000,
      "t_trigger_us": 15614037,
      "is_ai": false,
      "track_id": 0,
      "velocity": 0,
      "is_motor": true,
      "motor_id": 0,
      "accel_val": 2000,
      "base_duration_us": 187500
    },
    {
      "id": "M_118",
      "pitch": 76,
      "t_note_us": 16125000,
      "t_trigger_us": 15989037,
      "is_ai": false,
      "track_id": 0,
      "velocity": 0,
      "is_motor": true,
      "motor_id": 2,
      "accel_val": 2000,
      "base_duration_us": 562500
    },
    {
      "id": "M_119",
      "pitch": 67,
      "t_note_us": 16125000,
      "t_trigger_us": 15989037,
      "is_ai": false,
      "track_id": 0,
      "velocity": 0,
      "is_motor": true,
      "motor_id": 1,
      "accel_val": 2000,
      "base_duration_us": 562500
    },
    {
      "id": "M_120",
      "pitch": 72,
      "t_note_us": 16125000,
      "t_trigger_us": 15989037,
      "is_ai": false,
      "track_id": 0,
      "velocity": 0,
      "is_motor": true,
      "motor_id": 0,
      "accel_val": 2000,
      "base_duration_us": 562500
    },
    {
      "id": "M_121",
      "pitch": 60,
      "t_note_us": 16125000,
      "t_trigger_us": 15989037,
      "is_ai": false,
      "track_id": 0,
      "velocity": 0,
      "is_motor": true,
      "motor_id": 3,
      "accel_val": 2000,
      "base_duration_us": 562500
    },
    {
      "id": "M_122",
      "pitch": 72,
      "t_note_us": 16125000,
      "t_trigger_us": 15989037,
      "is_ai": false,
      "track_id": 0,
      "velocity": 0,
      "is_motor": true,
      "motor_id": 0,
      "accel_val": 2000,
      "base_duration_us": 562500
    },
    {
      "id": "M_123",
      "pitch": 72,
      "t_note_us": 16687500,
      "t_trigger_us": 16551537,
      "is_ai": false,
      "track_id": 0,
      "velocity": 0,
      "is_motor": true,
      "motor_id": 1,
      "accel_val": 2000,
      "base_duration_us": 187500
    },
    {
      "id": "M_124",
      "pitch": 76,
      "t_note_us": 16687500,
      "t_trigger_us": 16551537,
      "is_ai": false,
      "track_id": 0,
      "velocity": 0,
      "is_motor": true,
      "motor_id": 2,
      "accel_val": 2000,
      "base_duration_us": 187500
    },
    {
      "id": "M_125",
      "pitch": 69,
      "t_note_us": 16687500,
      "t_trigger_us": 16551537,
      "is_ai": false,
      "track_id": 0,
      "velocity": 0,
      "is_motor": true,
      "motor_id": 0,
      "accel_val": 2000,
      "base_duration_us": 187500
    },
    {
      "id": "M_126",
      "pitch": 57,
      "t_note_us": 16687500,
      "t_trigger_us": 16551537,
      "is_ai": false,
      "track_id": 0,
      "velocity": 0,
      "is_motor": true,
      "motor_id": 3,
      "accel_val": 2000,
      "base_duration_us": 187500
    },
    {
      "id": "M_127",
      "pitch": 69,
      "t_note_us": 16687500,
      "t_trigger_us": 16551537,
      "is_ai": false,
      "track_id": 0,
      "velocity": 0,
      "is_motor": true,
      "motor_id": 0,
      "accel_val": 2000,
      "base_duration_us": 187500
    },
    {
      "id": "M_128",
      "pitch": 72,
      "t_note_us": 17062500,
      "t_trigger_us": 16926537,
      "is_ai": false,
      "track_id": 0,
      "velocity": 0,
      "is_motor": true,
      "motor_id": 1,
      "accel_val": 2000,
      "base_duration_us": 187500
    },
    {
      "id": "M_129",
      "pitch": 76,
      "t_note_us": 17062500,
      "t_trigger_us": 16926537,
      "is_ai": false,
      "track_id": 0,
      "velocity": 0,
      "is_motor": true,
      "motor_id": 2,
      "accel_val": 2000,
      "base_duration_us": 187500
    },
    {
      "id": "M_130",
      "pitch": 69,
      "t_note_us": 17062500,
      "t_trigger_us": 16926537,
      "is_ai": false,
      "track_id": 0,
      "velocity": 0,
      "is_motor": true,
      "motor_id": 0,
      "accel_val": 2000,
      "base_duration_us": 187500
    },
    {
      "id": "M_131",
      "pitch": 57,
      "t_note_us": 17062500,
      "t_trigger_us": 16926537,
      "is_ai": false,
      "track_id": 0,
      "velocity": 0,
      "is_motor": true,
      "motor_id": 3,
      "accel_val": 2000,
      "base_duration_us": 187500
    },
    {
      "id": "M_132",
      "pitch": 69,
      "t_note_us": 17062500,
      "t_trigger_us": 16926537,
      "is_ai": false,
      "track_id": 0,
      "velocity": 0,
      "is_motor": true,
      "motor_id": 0,
      "accel_val": 2000,
      "base_duration_us": 187500
    },
    {
      "id": "M_133",
      "pitch": 72,
      "t_note_us": 17250000,
      "t_trigger_us": 17114037,
      "is_ai": false,
      "track_id": 0,
      "velocity": 0,
      "is_motor": true,
      "motor_id": 1,
      "accel_val": 2000,
      "base_duration_us": 187500
    },
    {
      "id": "M_134",
      "pitch": 76,
      "t_note_us": 17250000,
      "t_trigger_us": 17114037,
      "is_ai": false,
      "track_id": 0,
      "velocity": 0,
      "is_motor": true,
      "motor_id": 2,
      "accel_val": 2000,
      "base_duration_us": 187500
    },
    {
      "id": "M_135",
      "pitch": 69,
      "t_note_us": 17250000,
      "t_trigger_us": 17114037,
      "is_ai": false,
      "track_id": 0,
      "velocity": 0,
      "is_motor": true,
      "motor_id": 0,
      "accel_val": 2000,
      "base_duration_us": 187500
    },
    {
      "id": "M_136",
      "pitch": 57,
      "t_note_us": 17250000,
      "t_trigger_us": 17114037,
      "is_ai": false,
      "track_id": 0,
      "velocity": 0,
      "is_motor": true,
      "motor_id": 3,
      "accel_val": 2000,
      "base_duration_us": 187500
    },
    {
      "id": "M_137",
      "pitch": 69,
      "t_note_us": 17250000,
      "t_trigger_us": 17114037,
      "is_ai": false,
      "track_id": 0,
      "velocity": 0,
      "is_motor": true,
      "motor_id": 0,
      "accel_val": 2000,
      "base_duration_us": 187500
    },
    {
      "id": "M_138",
      "pitch": 76,
      "t_note_us": 17625000,
      "t_trigger_us": 17489037,
      "is_ai": false,
      "track_id": 0,
      "velocity": 0,
      "is_motor": true,
      "motor_id": 2,
      "accel_val": 2000,
      "base_duration_us": 375000
    },
    {
      "id": "M_139",
      "pitch": 67,
      "t_note_us": 17625000,
      "t_trigger_us": 17489037,
      "is_ai": false,
      "track_id": 0,
      "velocity": 0,
      "is_motor": true,
      "motor_id": 1,
      "accel_val": 2000,
      "base_duration_us": 375000
    },
    {
      "id": "M_140",
      "pitch": 72,
      "t_note_us": 17625000,
      "t_trigger_us": 17489037,
      "is_ai": false,
      "track_id": 0,
      "velocity": 0,
      "is_motor": true,
      "motor_id": 0,
      "accel_val": 2000,
      "base_duration_us": 375000
    },
    {
      "id": "M_141",
      "pitch": 60,
      "t_note_us": 17625000,
      "t_trigger_us": 17489037,
      "is_ai": false,
      "track_id": 0,
      "velocity": 0,
      "is_motor": true,
      "motor_id": 3,
      "accel_val": 2000,
      "base_duration_us": 375000
    },
    {
      "id": "M_142",
      "pitch": 72,
      "t_note_us": 17625000,
      "t_trigger_us": 17489037,
      "is_ai": false,
      "track_id": 0,
      "velocity": 0,
      "is_motor": true,
      "motor_id": 0,
      "accel_val": 2000,
      "base_duration_us": 375000
    },
    {
      "id": "M_143",
      "pitch": 78,
      "t_note_us": 18000000,
      "t_trigger_us": 17864037,
      "is_ai": false,
      "track_id": 0,
      "velocity": 0,
      "is_motor": true,
      "motor_id": 2,
      "accel_val": 2000,
      "base_duration_us": 375000
    },
    {
      "id": "M_144",
      "pitch": 69,
      "t_note_us": 18000000,
      "t_trigger_us": 17864037,
      "is_ai": false,
      "track_id": 0,
      "velocity": 0,
      "is_motor": true,
      "motor_id": 1,
      "accel_val": 2000,
      "base_duration_us": 375000
    },
    {
      "id": "M_145",
      "pitch": 74,
      "t_note_us": 18000000,
      "t_trigger_us": 17864037,
      "is_ai": false,
      "track_id": 0,
      "velocity": 0,
      "is_motor": true,
      "motor_id": 0,
      "accel_val": 2000,
      "base_duration_us": 375000
    },
    {
      "id": "M_146",
      "pitch": 54,
      "t_note_us": 18000000,
      "t_trigger_us": 17864037,
      "is_ai": false,
      "track_id": 0,
      "velocity": 0,
      "is_motor": true,
      "motor_id": 3,
      "accel_val": 2000,
      "base_duration_us": 375000
    },
    {
      "id": "M_147",
      "pitch": 66,
      "t_note_us": 18000000,
      "t_trigger_us": 17864037,
      "is_ai": false,
      "track_id": 0,
      "velocity": 0,
      "is_motor": true,
      "motor_id": 0,
      "accel_val": 2000,
      "base_duration_us": 375000
    },
    {
      "id": "M_148",
      "pitch": 72,
      "t_note_us": 18562500,
      "t_trigger_us": 18426537,
      "is_ai": false,
      "track_id": 0,
      "velocity": 0,
      "is_motor": true,
      "motor_id": 1,
      "accel_val": 2000,
      "base_duration_us": 187500
    },
    {
      "id": "M_149",
      "pitch": 76,
      "t_note_us": 18562500,
      "t_trigger_us": 18426537,
      "is_ai": false,
      "track_id": 0,
      "velocity": 0,
      "is_motor": true,
      "motor_id": 2,
      "accel_val": 2000,
      "base_duration_us": 187500
    },
    {
      "id": "M_150",
      "pitch": 69,
      "t_note_us": 18562500,
      "t_trigger_us": 18426537,
      "is_ai": false,
      "track_id": 0,
      "velocity": 0,
      "is_motor": true,
      "motor_id": 0,
      "accel_val": 2000,
      "base_duration_us": 187500
    },
    {
      "id": "M_151",
      "pitch": 57,
      "t_note_us": 18562500,
      "t_trigger_us": 18426537,
      "is_ai": false,
      "track_id": 0,
      "velocity": 0,
      "is_motor": true,
      "motor_id": 3,
      "accel_val": 2000,
      "base_duration_us": 187500
    },
    {
      "id": "M_152",
      "pitch": 69,
      "t_note_us": 18562500,
      "t_trigger_us": 18426537,
      "is_ai": false,
      "track_id": 0,
      "velocity": 0,
      "is_motor": true,
      "motor_id": 0,
      "accel_val": 2000,
      "base_duration_us": 187500
    },
    {
      "id": "M_153",
      "pitch": 72,
      "t_note_us": 18750000,
      "t_trigger_us": 18614037,
      "is_ai": false,
      "track_id": 0,
      "velocity": 0,
      "is_motor": true,
      "motor_id": 1,
      "accel_val": 2000,
      "base_duration_us": 187500
    },
    {
      "id": "M_154",
      "pitch": 76,
      "t_note_us": 18750000,
      "t_trigger_us": 18614037,
      "is_ai": false,
      "track_id": 0,
      "velocity": 0,
      "is_motor": true,
      "motor_id": 2,
      "accel_val": 2000,
      "base_duration_us": 187500
    },
    {
      "id": "M_155",
      "pitch": 69,
      "t_note_us": 18750000,
      "t_trigger_us": 18614037,
      "is_ai": false,
      "track_id": 0,
      "velocity": 0,
      "is_motor": true,
      "motor_id": 0,
      "accel_val": 2000,
      "base_duration_us": 187500
    },
    {
      "id": "M_156",
      "pitch": 57,
      "t_note_us": 18750000,
      "t_trigger_us": 18614037,
      "is_ai": false,
      "track_id": 0,
      "velocity": 0,
      "is_motor": true,
      "motor_id": 3,
      "accel_val": 2000,
      "base_duration_us": 187500
    },
    {
      "id": "M_157",
      "pitch": 69,
      "t_note_us": 18750000,
      "t_trigger_us": 18614037,
      "is_ai": false,
      "track_id": 0,
      "velocity": 0,
      "is_motor": true,
      "motor_id": 0,
      "accel_val": 2000,
      "base_duration_us": 187500
    },
    {
      "id": "M_158",
      "pitch": 76,
      "t_note_us": 19125000,
      "t_trigger_us": 18989037,
      "is_ai": false,
      "track_id": 0,
      "velocity": 0,
      "is_motor": true,
      "motor_id": 2,
      "accel_val": 2000,
      "base_duration_us": 562500
    },
    {
      "id": "M_159",
      "pitch": 67,
      "t_note_us": 19125000,
      "t_trigger_us": 18989037,
      "is_ai": false,
      "track_id": 0,
      "velocity": 0,
      "is_motor": true,
      "motor_id": 1,
      "accel_val": 2000,
      "base_duration_us": 562500
    },
    {
      "id": "M_160",
      "pitch": 72,
      "t_note_us": 19125000,
      "t_trigger_us": 18989037,
      "is_ai": false,
      "track_id": 0,
      "velocity": 0,
      "is_motor": true,
      "motor_id": 0,
      "accel_val": 2000,
      "base_duration_us": 562500
    },
    {
      "id": "M_161",
      "pitch": 60,
      "t_note_us": 19125000,
      "t_trigger_us": 18989037,
      "is_ai": false,
      "track_id": 0,
      "velocity": 0,
      "is_motor": true,
      "motor_id": 3,
      "accel_val": 2000,
      "base_duration_us": 562500
    },
    {
      "id": "M_162",
      "pitch": 72,
      "t_note_us": 19125000,
      "t_trigger_us": 18989037,
      "is_ai": false,
      "track_id": 0,
      "velocity": 0,
      "is_motor": true,
      "motor_id": 0,
      "accel_val": 2000,
      "base_duration_us": 562500
    },
    {
      "id": "M_163",
      "pitch": 72,
      "t_note_us": 19687500,
      "t_trigger_us": 19551537,
      "is_ai": false,
      "track_id": 0,
      "velocity": 0,
      "is_motor": true,
      "motor_id": 1,
      "accel_val": 2000,
      "base_duration_us": 187500
    },
    {
      "id": "M_164",
      "pitch": 76,
      "t_note_us": 19687500,
      "t_trigger_us": 19551537,
      "is_ai": false,
      "track_id": 0,
      "velocity": 0,
      "is_motor": true,
      "motor_id": 2,
      "accel_val": 2000,
      "base_duration_us": 187500
    },
    {
      "id": "M_165",
      "pitch": 69,
      "t_note_us": 19687500,
      "t_trigger_us": 19551537,
      "is_ai": false,
      "track_id": 0,
      "velocity": 0,
      "is_motor": true,
      "motor_id": 0,
      "accel_val": 2000,
      "base_duration_us": 187500
    },
    {
      "id": "M_166",
      "pitch": 57,
      "t_note_us": 19687500,
      "t_trigger_us": 19551537,
      "is_ai": false,
      "track_id": 0,
      "velocity": 0,
      "is_motor": true,
      "motor_id": 3,
      "accel_val": 2000,
      "base_duration_us": 187500
    },
    {
      "id": "M_167",
      "pitch": 69,
      "t_note_us": 19687500,
      "t_trigger_us": 19551537,
      "is_ai": false,
      "track_id": 0,
      "velocity": 0,
      "is_motor": true,
      "motor_id": 0,
      "accel_val": 2000,
      "base_duration_us": 187500
    },
    {
      "id": "M_168",
      "pitch": 72,
      "t_note_us": 20062500,
      "t_trigger_us": 19926537,
      "is_ai": false,
      "track_id": 0,
      "velocity": 0,
      "is_motor": true,
      "motor_id": 1,
      "accel_val": 2000,
      "base_duration_us": 187500
    },
    {
      "id": "M_169",
      "pitch": 76,
      "t_note_us": 20062500,
      "t_trigger_us": 19926537,
      "is_ai": false,
      "track_id": 0,
      "velocity": 0,
      "is_motor": true,
      "motor_id": 2,
      "accel_val": 2000,
      "base_duration_us": 187500
    },
    {
      "id": "M_170",
      "pitch": 69,
      "t_note_us": 20062500,
      "t_trigger_us": 19926537,
      "is_ai": false,
      "track_id": 0,
      "velocity": 0,
      "is_motor": true,
      "motor_id": 0,
      "accel_val": 2000,
      "base_duration_us": 187500
    },
    {
      "id": "M_171",
      "pitch": 57,
      "t_note_us": 20062500,
      "t_trigger_us": 19926537,
      "is_ai": false,
      "track_id": 0,
      "velocity": 0,
      "is_motor": true,
      "motor_id": 3,
      "accel_val": 2000,
      "base_duration_us": 187500
    },
    {
      "id": "M_172",
      "pitch": 69,
      "t_note_us": 20062500,
      "t_trigger_us": 19926537,
      "is_ai": false,
      "track_id": 0,
      "velocity": 0,
      "is_motor": true,
      "motor_id": 0,
      "accel_val": 2000,
      "base_duration_us": 187500
    },
    {
      "id": "M_173",
      "pitch": 72,
      "t_note_us": 20250000,
      "t_trigger_us": 20114037,
      "is_ai": false,
      "track_id": 0,
      "velocity": 0,
      "is_motor": true,
      "motor_id": 1,
      "accel_val": 2000,
      "base_duration_us": 187500
    },
    {
      "id": "M_174",
      "pitch": 76,
      "t_note_us": 20250000,
      "t_trigger_us": 20114037,
      "is_ai": false,
      "track_id": 0,
      "velocity": 0,
      "is_motor": true,
      "motor_id": 2,
      "accel_val": 2000,
      "base_duration_us": 187500
    },
    {
      "id": "M_175",
      "pitch": 69,
      "t_note_us": 20250000,
      "t_trigger_us": 20114037,
      "is_ai": false,
      "track_id": 0,
      "velocity": 0,
      "is_motor": true,
      "motor_id": 0,
      "accel_val": 2000,
      "base_duration_us": 187500
    },
    {
      "id": "M_176",
      "pitch": 57,
      "t_note_us": 20250000,
      "t_trigger_us": 20114037,
      "is_ai": false,
      "track_id": 0,
      "velocity": 0,
      "is_motor": true,
      "motor_id": 3,
      "accel_val": 2000,
      "base_duration_us": 187500
    },
    {
      "id": "M_177",
      "pitch": 69,
      "t_note_us": 20250000,
      "t_trigger_us": 20114037,
      "is_ai": false,
      "track_id": 0,
      "velocity": 0,
      "is_motor": true,
      "motor_id": 0,
      "accel_val": 2000,
      "base_duration_us": 187500
    },
    {
      "id": "M_178",
      "pitch": 76,
      "t_note_us": 20625000,
      "t_trigger_us": 20489037,
      "is_ai": false,
      "track_id": 0,
      "velocity": 0,
      "is_motor": true,
      "motor_id": 2,
      "accel_val": 2000,
      "base_duration_us": 187500
    },
    {
      "id": "M_179",
      "pitch": 67,
      "t_note_us": 20625000,
      "t_trigger_us": 20489037,
      "is_ai": false,
      "track_id": 0,
      "velocity": 0,
      "is_motor": true,
      "motor_id": 1,
      "accel_val": 2000,
      "base_duration_us": 187500
    },
    {
      "id": "M_180",
      "pitch": 72,
      "t_note_us": 20625000,
      "t_trigger_us": 20489037,
      "is_ai": false,
      "track_id": 0,
      "velocity": 0,
      "is_motor": true,
      "motor_id": 0,
      "accel_val": 2000,
      "base_duration_us": 187500
    },
    {
      "id": "M_181",
      "pitch": 60,
      "t_note_us": 20625000,
      "t_trigger_us": 20489037,
      "is_ai": false,
      "track_id": 0,
      "velocity": 0,
      "is_motor": true,
      "motor_id": 3,
      "accel_val": 2000,
      "base_duration_us": 187500
    },
    {
      "id": "M_182",
      "pitch": 72,
      "t_note_us": 20625000,
      "t_trigger_us": 20489037,
      "is_ai": false,
      "track_id": 0,
      "velocity": 0,
      "is_motor": true,
      "motor_id": 0,
      "accel_val": 2000,
      "base_duration_us": 187500
    },
    {
      "id": "M_183",
      "pitch": 78,
      "t_note_us": 20812500,
      "t_trigger_us": 20676537,
      "is_ai": false,
      "track_id": 0,
      "velocity": 0,
      "is_motor": true,
      "motor_id": 2,
      "accel_val": 2000,
      "base_duration_us": 562500
    },
    {
      "id": "M_184",
      "pitch": 69,
      "t_note_us": 20812500,
      "t_trigger_us": 20676537,
      "is_ai": false,
      "track_id": 0,
      "velocity": 0,
      "is_motor": true,
      "motor_id": 1,
      "accel_val": 2000,
      "base_duration_us": 562500
    },
    {
      "id": "M_185",
      "pitch": 74,
      "t_note_us": 20812500,
      "t_trigger_us": 20676537,
      "is_ai": false,
      "track_id": 0,
      "velocity": 0,
      "is_motor": true,
      "motor_id": 0,
      "accel_val": 2000,
      "base_duration_us": 562500
    },
    {
      "id": "M_186",
      "pitch": 62,
      "t_note_us": 20812500,
      "t_trigger_us": 20676537,
      "is_ai": false,
      "track_id": 0,
      "velocity": 0,
      "is_motor": true,
      "motor_id": 3,
      "accel_val": 2000,
      "base_duration_us": 562500
    },
    {
      "id": "M_187",
      "pitch": 74,
      "t_note_us": 20812500,
      "t_trigger_us": 20676537,
      "is_ai": false,
      "track_id": 0,
      "velocity": 0,
      "is_motor": true,
      "motor_id": 0,
      "accel_val": 2000,
      "base_duration_us": 562500
    },
    {
      "id": "M_188",
      "pitch": 72,
      "t_note_us": 21375000,
      "t_trigger_us": 21239037,
      "is_ai": false,
      "track_id": 0,
      "velocity": 0,
      "is_motor": true,
      "motor_id": 1,
      "accel_val": 2000,
      "base_duration_us": 187500
    },
    {
      "id": "M_189",
      "pitch": 76,
      "t_note_us": 21375000,
      "t_trigger_us": 21239037,
      "is_ai": false,
      "track_id": 0,
      "velocity": 0,
      "is_motor": true,
      "motor_id": 2,
      "accel_val": 2000,
      "base_duration_us": 187500
    },
    {
      "id": "M_190",
      "pitch": 69,
      "t_note_us": 21375000,
      "t_trigger_us": 21239037,
      "is_ai": false,
      "track_id": 0,
      "velocity": 0,
      "is_motor": true,
      "motor_id": 0,
      "accel_val": 2000,
      "base_duration_us": 187500
    },
    {
      "id": "M_191",
      "pitch": 57,
      "t_note_us": 21375000,
      "t_trigger_us": 21239037,
      "is_ai": false,
      "track_id": 0,
      "velocity": 0,
      "is_motor": true,
      "motor_id": 3,
      "accel_val": 2000,
      "base_duration_us": 187500
    },
    {
      "id": "M_192",
      "pitch": 69,
      "t_note_us": 21375000,
      "t_trigger_us": 21239037,
      "is_ai": false,
      "track_id": 0,
      "velocity": 0,
      "is_motor": true,
      "motor_id": 0,
      "accel_val": 2000,
      "base_duration_us": 187500
    },
    {
      "id": "M_193",
      "pitch": 72,
      "t_note_us": 21562500,
      "t_trigger_us": 21426537,
      "is_ai": false,
      "track_id": 0,
      "velocity": 0,
      "is_motor": true,
      "motor_id": 1,
      "accel_val": 2000,
      "base_duration_us": 187500
    },
    {
      "id": "M_194",
      "pitch": 76,
      "t_note_us": 21562500,
      "t_trigger_us": 21426537,
      "is_ai": false,
      "track_id": 0,
      "velocity": 0,
      "is_motor": true,
      "motor_id": 2,
      "accel_val": 2000,
      "base_duration_us": 187500
    },
    {
      "id": "M_195",
      "pitch": 69,
      "t_note_us": 21562500,
      "t_trigger_us": 21426537,
      "is_ai": false,
      "track_id": 0,
      "velocity": 0,
      "is_motor": true,
      "motor_id": 0,
      "accel_val": 2000,
      "base_duration_us": 187500
    },
    {
      "id": "M_196",
      "pitch": 57,
      "t_note_us": 21562500,
      "t_trigger_us": 21426537,
      "is_ai": false,
      "track_id": 0,
      "velocity": 0,
      "is_motor": true,
      "motor_id": 3,
      "accel_val": 2000,
      "base_duration_us": 187500
    },
    {
      "id": "M_197",
      "pitch": 69,
      "t_note_us": 21562500,
      "t_trigger_us": 21426537,
      "is_ai": false,
      "track_id": 0,
      "velocity": 0,
      "is_motor": true,
      "motor_id": 0,
      "accel_val": 2000,
      "base_duration_us": 187500
    },
    {
      "id": "M_198",
      "pitch": 72,
      "t_note_us": 21750000,
      "t_trigger_us": 21614037,
      "is_ai": false,
      "track_id": 0,
      "velocity": 0,
      "is_motor": true,
      "motor_id": 1,
      "accel_val": 2000,
      "base_duration_us": 187500
    },
    {
      "id": "M_199",
      "pitch": 76,
      "t_note_us": 21750000,
      "t_trigger_us": 21614037,
      "is_ai": false,
      "track_id": 0,
      "velocity": 0,
      "is_motor": true,
      "motor_id": 2,
      "accel_val": 2000,
      "base_duration_us": 187500
    },
    {
      "id": "M_200",
      "pitch": 69,
      "t_note_us": 21750000,
      "t_trigger_us": 21614037,
      "is_ai": false,
      "track_id": 0,
      "velocity": 0,
      "is_motor": true,
      "motor_id": 0,
      "accel_val": 2000,
      "base_duration_us": 187500
    },
    {
      "id": "M_201",
      "pitch": 57,
      "t_note_us": 21750000,
      "t_trigger_us": 21614037,
      "is_ai": false,
      "track_id": 0,
      "velocity": 0,
      "is_motor": true,
      "motor_id": 3,
      "accel_val": 2000,
      "base_duration_us": 187500
    },
    {
      "id": "M_202",
      "pitch": 69,
      "t_note_us": 21750000,
      "t_trigger_us": 21614037,
      "is_ai": false,
      "track_id": 0,
      "velocity": 0,
      "is_motor": true,
      "motor_id": 0,
      "accel_val": 2000,
      "base_duration_us": 187500
    },
    {
      "id": "M_203",
      "pitch": 76,
      "t_note_us": 22125000,
      "t_trigger_us": 21989037,
      "is_ai": false,
      "track_id": 0,
      "velocity": 0,
      "is_motor": true,
      "motor_id": 2,
      "accel_val": 2000,
      "base_duration_us": 562500
    },
    {
      "id": "M_204",
      "pitch": 67,
      "t_note_us": 22125000,
      "t_trigger_us": 21989037,
      "is_ai": false,
      "track_id": 0,
      "velocity": 0,
      "is_motor": true,
      "motor_id": 1,
      "accel_val": 2000,
      "base_duration_us": 562500
    },
    {
      "id": "M_205",
      "pitch": 72,
      "t_note_us": 22125000,
      "t_trigger_us": 21989037,
      "is_ai": false,
      "track_id": 0,
      "velocity": 0,
      "is_motor": true,
      "motor_id": 0,
      "accel_val": 2000,
      "base_duration_us": 562500
    },
    {
      "id": "M_206",
      "pitch": 60,
      "t_note_us": 22125000,
      "t_trigger_us": 21989037,
      "is_ai": false,
      "track_id": 0,
      "velocity": 0,
      "is_motor": true,
      "motor_id": 3,
      "accel_val": 2000,
      "base_duration_us": 562500
    },
    {
      "id": "M_207",
      "pitch": 72,
      "t_note_us": 22125000,
      "t_trigger_us": 21989037,
      "is_ai": false,
      "track_id": 0,
      "velocity": 0,
      "is_motor": true,
      "motor_id": 0,
      "accel_val": 2000,
      "base_duration_us": 562500
    },
    {
      "id": "M_208",
      "pitch": 72,
      "t_note_us": 22687500,
      "t_trigger_us": 22551537,
      "is_ai": false,
      "track_id": 0,
      "velocity": 0,
      "is_motor": true,
      "motor_id": 1,
      "accel_val": 2000,
      "base_duration_us": 187500
    },
    {
      "id": "M_209",
      "pitch": 76,
      "t_note_us": 22687500,
      "t_trigger_us": 22551537,
      "is_ai": false,
      "track_id": 0,
      "velocity": 0,
      "is_motor": true,
      "motor_id": 2,
      "accel_val": 2000,
      "base_duration_us": 187500
    },
    {
      "id": "M_210",
      "pitch": 69,
      "t_note_us": 22687500,
      "t_trigger_us": 22551537,
      "is_ai": false,
      "track_id": 0,
      "velocity": 0,
      "is_motor": true,
      "motor_id": 0,
      "accel_val": 2000,
      "base_duration_us": 187500
    },
    {
      "id": "M_211",
      "pitch": 57,
      "t_note_us": 22687500,
      "t_trigger_us": 22551537,
      "is_ai": false,
      "track_id": 0,
      "velocity": 0,
      "is_motor": true,
      "motor_id": 3,
      "accel_val": 2000,
      "base_duration_us": 187500
    },
    {
      "id": "M_212",
      "pitch": 69,
      "t_note_us": 22687500,
      "t_trigger_us": 22551537,
      "is_ai": false,
      "track_id": 0,
      "velocity": 0,
      "is_motor": true,
      "motor_id": 0,
      "accel_val": 2000,
      "base_duration_us": 187500
    },
    {
      "id": "M_213",
      "pitch": 72,
      "t_note_us": 23062500,
      "t_trigger_us": 22926537,
      "is_ai": false,
      "track_id": 0,
      "velocity": 0,
      "is_motor": true,
      "motor_id": 1,
      "accel_val": 2000,
      "base_duration_us": 187500
    },
    {
      "id": "M_214",
      "pitch": 76,
      "t_note_us": 23062500,
      "t_trigger_us": 22926537,
      "is_ai": false,
      "track_id": 0,
      "velocity": 0,
      "is_motor": true,
      "motor_id": 2,
      "accel_val": 2000,
      "base_duration_us": 187500
    },
    {
      "id": "M_215",
      "pitch": 69,
      "t_note_us": 23062500,
      "t_trigger_us": 22926537,
      "is_ai": false,
      "track_id": 0,
      "velocity": 0,
      "is_motor": true,
      "motor_id": 0,
      "accel_val": 2000,
      "base_duration_us": 187500
    },
    {
      "id": "M_216",
      "pitch": 57,
      "t_note_us": 23062500,
      "t_trigger_us": 22926537,
      "is_ai": false,
      "track_id": 0,
      "velocity": 0,
      "is_motor": true,
      "motor_id": 3,
      "accel_val": 2000,
      "base_duration_us": 187500
    },
    {
      "id": "M_217",
      "pitch": 69,
      "t_note_us": 23062500,
      "t_trigger_us": 22926537,
      "is_ai": false,
      "track_id": 0,
      "velocity": 0,
      "is_motor": true,
      "motor_id": 0,
      "accel_val": 2000,
      "base_duration_us": 187500
    },
    {
      "id": "M_218",
      "pitch": 72,
      "t_note_us": 23250000,
      "t_trigger_us": 23114037,
      "is_ai": false,
      "track_id": 0,
      "velocity": 0,
      "is_motor": true,
      "motor_id": 1,
      "accel_val": 2000,
      "base_duration_us": 187500
    },
    {
      "id": "M_219",
      "pitch": 76,
      "t_note_us": 23250000,
      "t_trigger_us": 23114037,
      "is_ai": false,
      "track_id": 0,
      "velocity": 0,
      "is_motor": true,
      "motor_id": 2,
      "accel_val": 2000,
      "base_duration_us": 187500
    },
    {
      "id": "M_220",
      "pitch": 69,
      "t_note_us": 23250000,
      "t_trigger_us": 23114037,
      "is_ai": false,
      "track_id": 0,
      "velocity": 0,
      "is_motor": true,
      "motor_id": 0,
      "accel_val": 2000,
      "base_duration_us": 187500
    },
    {
      "id": "M_221",
      "pitch": 57,
      "t_note_us": 23250000,
      "t_trigger_us": 23114037,
      "is_ai": false,
      "track_id": 0,
      "velocity": 0,
      "is_motor": true,
      "motor_id": 3,
      "accel_val": 2000,
      "base_duration_us": 187500
    },
    {
      "id": "M_222",
      "pitch": 69,
      "t_note_us": 23250000,
      "t_trigger_us": 23114037,
      "is_ai": false,
      "track_id": 0,
      "velocity": 0,
      "is_motor": true,
      "motor_id": 0,
      "accel_val": 2000,
      "base_duration_us": 187500
    },
    {
      "id": "M_223",
      "pitch": 76,
      "t_note_us": 23625000,
      "t_trigger_us": 23489037,
      "is_ai": false,
      "track_id": 0,
      "velocity": 0,
      "is_motor": true,
      "motor_id": 2,
      "accel_val": 2000,
      "base_duration_us": 375000
    },
    {
      "id": "M_224",
      "pitch": 67,
      "t_note_us": 23625000,
      "t_trigger_us": 23489037,
      "is_ai": false,
      "track_id": 0,
      "velocity": 0,
      "is_motor": true,
      "motor_id": 1,
      "accel_val": 2000,
      "base_duration_us": 375000
    },
    {
      "id": "M_225",
      "pitch": 72,
      "t_note_us": 23625000,
      "t_trigger_us": 23489037,
      "is_ai": false,
      "track_id": 0,
      "velocity": 0,
      "is_motor": true,
      "motor_id": 0,
      "accel_val": 2000,
      "base_duration_us": 375000
    },
    {
      "id": "M_226",
      "pitch": 60,
      "t_note_us": 23625000,
      "t_trigger_us": 23489037,
      "is_ai": false,
      "track_id": 0,
      "velocity": 0,
      "is_motor": true,
      "motor_id": 3,
      "accel_val": 2000,
      "base_duration_us": 375000
    },
    {
      "id": "M_227",
      "pitch": 72,
      "t_note_us": 23625000,
      "t_trigger_us": 23489037,
      "is_ai": false,
      "track_id": 0,
      "velocity": 0,
      "is_motor": true,
      "motor_id": 0,
      "accel_val": 2000,
      "base_duration_us": 375000
    },
    {
      "id": "M_228",
      "pitch": 74,
      "t_note_us": 24000000,
      "t_trigger_us": 23864037,
      "is_ai": false,
      "track_id": 0,
      "velocity": 0,
      "is_motor": true,
      "motor_id": 1,
      "accel_val": 2000,
      "base_duration_us": 375000
    },
    {
      "id": "M_229",
      "pitch": 78,
      "t_note_us": 24000000,
      "t_trigger_us": 23864037,
      "is_ai": false,
      "track_id": 0,
      "velocity": 0,
      "is_motor": true,
      "motor_id": 2,
      "accel_val": 2000,
      "base_duration_us": 375000
    },
    {
      "id": "M_230",
      "pitch": 74,
      "t_note_us": 24000000,
      "t_trigger_us": 23864037,
      "is_ai": false,
      "track_id": 0,
      "velocity": 0,
      "is_motor": true,
      "motor_id": 0,
      "accel_val": 2000,
      "base_duration_us": 375000
    },
    {
      "id": "M_231",
      "pitch": 54,
      "t_note_us": 24000000,
      "t_trigger_us": 23864037,
      "is_ai": false,
      "track_id": 0,
      "velocity": 0,
      "is_motor": true,
      "motor_id": 3,
      "accel_val": 2000,
      "base_duration_us": 375000
    },
    {
      "id": "M_232",
      "pitch": 66,
      "t_note_us": 24000000,
      "t_trigger_us": 23864037,
      "is_ai": false,
      "track_id": 0,
      "velocity": 0,
      "is_motor": true,
      "motor_id": 0,
      "accel_val": 2000,
      "base_duration_us": 375000
    },
    {
      "id": "M_249",
      "pitch": 89,
      "t_note_us": 24375000,
      "t_trigger_us": 24239037,
      "is_ai": true,
      "track_id": 6,
      "velocity": 0,
      "is_motor": false,
      "motor_id": 0,
      "accel_val": 2000,
      "base_duration_us": 1125000
    },
    {
      "id": "M_233",
      "pitch": 69,
      "t_note_us": 24375000,
      "t_trigger_us": 24239037,
      "is_ai": false,
      "track_id": 0,
      "velocity": 0,
      "is_motor": true,
      "motor_id": 1,
      "accel_val": 2000,
      "base_duration_us": 187500
    },
    {
      "id": "M_234",
      "pitch": 57,
      "t_note_us": 24375000,
      "t_trigger_us": 24239037,
      "is_ai": false,
      "track_id": 0,
      "velocity": 0,
      "is_motor": true,
      "motor_id": 0,
      "accel_val": 2000,
      "base_duration_us": 187500
    },
    {
      "id": "M_235",
      "pitch": 65,
      "t_note_us": 24375000,
      "t_trigger_us": 24239037,
      "is_ai": false,
      "track_id": 0,
      "velocity": 0,
      "is_motor": true,
      "motor_id": 2,
      "accel_val": 2000,
      "base_duration_us": 187500
    },
    {
      "id": "M_236",
      "pitch": 72,
      "t_note_us": 24562500,
      "t_trigger_us": 24426537,
      "is_ai": false,
      "track_id": 0,
      "velocity": 0,
      "is_motor": true,
      "motor_id": 1,
      "accel_val": 2000,
      "base_duration_us": 187500
    },
    {
      "id": "M_237",
      "pitch": 60,
      "t_note_us": 24562500,
      "t_trigger_us": 24426537,
      "is_ai": false,
      "track_id": 0,
      "velocity": 0,
      "is_motor": true,
      "motor_id": 0,
      "accel_val": 2000,
      "base_duration_us": 187500
    },
    {
      "id": "M_238",
      "pitch": 65,
      "t_note_us": 24562500,
      "t_trigger_us": 24426537,
      "is_ai": false,
      "track_id": 0,
      "velocity": 0,
      "is_motor": true,
      "motor_id": 2,
      "accel_val": 2000,
      "base_duration_us": 187500
    },
    {
      "id": "M_239",
      "pitch": 74,
      "t_note_us": 24750000,
      "t_trigger_us": 24614037,
      "is_ai": false,
      "track_id": 0,
      "velocity": 0,
      "is_motor": true,
      "motor_id": 1,
      "accel_val": 2000,
      "base_duration_us": 187500
    },
    {
      "id": "M_240",
      "pitch": 62,
      "t_note_us": 24750000,
      "t_trigger_us": 24614037,
      "is_ai": false,
      "track_id": 0,
      "velocity": 0,
      "is_motor": true,
      "motor_id": 0,
      "accel_val": 2000,
      "base_duration_us": 187500
    },
    {
      "id": "M_241",
      "pitch": 65,
      "t_note_us": 24750000,
      "t_trigger_us": 24614037,
      "is_ai": false,
      "track_id": 0,
      "velocity": 0,
      "is_motor": true,
      "motor_id": 2,
      "accel_val": 2000,
      "base_duration_us": 187500
    },
    {
      "id": "M_242",
      "pitch": 75,
      "t_note_us": 24937500,
      "t_trigger_us": 24801537,
      "is_ai": false,
      "track_id": 0,
      "velocity": 0,
      "is_motor": true,
      "motor_id": 2,
      "accel_val": 2000,
      "base_duration_us": 187500
    },
    {
      "id": "M_243",
      "pitch": 63,
      "t_note_us": 24937500,
      "t_trigger_us": 24801537,
      "is_ai": false,
      "track_id": 0,
      "velocity": 0,
      "is_motor": true,
      "motor_id": 1,
      "accel_val": 2000,
      "base_duration_us": 187500
    },
    {
      "id": "M_244",
      "pitch": 65,
      "t_note_us": 24937500,
      "t_trigger_us": 24801537,
      "is_ai": false,
      "track_id": 0,
      "velocity": 0,
      "is_motor": true,
      "motor_id": 0,
      "accel_val": 2000,
      "base_duration_us": 187500
    },
    {
      "id": "M_245",
      "pitch": 74,
      "t_note_us": 25125000,
      "t_trigger_us": 24989037,
      "is_ai": false,
      "track_id": 0,
      "velocity": 0,
      "is_motor": true,
      "motor_id": 1,
      "accel_val": 2000,
      "base_duration_us": 187500
    },
    {
      "id": "M_246",
      "pitch": 62,
      "t_note_us": 25125000,
      "t_trigger_us": 24989037,
      "is_ai": false,
      "track_id": 0,
      "velocity": 0,
      "is_motor": true,
      "motor_id": 0,
      "accel_val": 2000,
      "base_duration_us": 187500
    },
    {
      "id": "M_247",
      "pitch": 65,
      "t_note_us": 25125000,
      "t_trigger_us": 24989037,
      "is_ai": false,
      "track_id": 0,
      "velocity": 0,
      "is_motor": true,
      "motor_id": 2,
      "accel_val": 2000,
      "base_duration_us": 187500
    },
    {
      "id": "M_248",
      "pitch": 72,
      "t_note_us": 25312500,
      "t_trigger_us": 25176537,
      "is_ai": false,
      "track_id": 0,
      "velocity": 0,
      "is_motor": true,
      "motor_id": 1,
      "accel_val": 2000,
      "base_duration_us": 187500
    },
    {
      "id": "M_250",
      "pitch": 60,
      "t_note_us": 25312500,
      "t_trigger_us": 25176537,
      "is_ai": false,
      "track_id": 0,
      "velocity": 0,
      "is_motor": true,
      "motor_id": 0,
      "accel_val": 2000,
      "base_duration_us": 187500
    },
    {
      "id": "M_251",
      "pitch": 65,
      "t_note_us": 25312500,
      "t_trigger_us": 25176537,
      "is_ai": false,
      "track_id": 0,
      "velocity": 0,
      "is_motor": true,
      "motor_id": 2,
      "accel_val": 2000,
      "base_duration_us": 187500
    },
    {
      "id": "M_252",
      "pitch": 91,
      "t_note_us": 25500000,
      "t_trigger_us": 25364037,
      "is_ai": true,
      "track_id": 7,
      "velocity": 0,
      "is_motor": false,
      "motor_id": 0,
      "accel_val": 2000,
      "base_duration_us": 187500
    },
    {
      "id": "M_253",
      "pitch": 55,
      "t_note_us": 25500000,
      "t_trigger_us": 25364037,
      "is_ai": false,
      "track_id": 0,
      "velocity": 0,
      "is_motor": true,
      "motor_id": 0,
      "accel_val": 2000,
      "base_duration_us": 187500
    },
    {
      "id": "M_254",
      "pitch": 67,
      "t_note_us": 25500000,
      "t_trigger_us": 25364037,
      "is_ai": false,
      "track_id": 0,
      "velocity": 0,
      "is_motor": true,
      "motor_id": 1,
      "accel_val": 2000,
      "base_duration_us": 187500
    },
    {
      "id": "M_255",
      "pitch": 90,
      "t_note_us": 25687500,
      "t_trigger_us": 25551537,
      "is_ai": true,
      "track_id": 0,
      "velocity": 0,
      "is_motor": true,
      "motor_id": 3,
      "accel_val": 2000,
      "base_duration_us": 187500
    },
    {
      "id": "M_256",
      "pitch": 53,
      "t_note_us": 25687500,
      "t_trigger_us": 25551537,
      "is_ai": false,
      "track_id": 0,
      "velocity": 0,
      "is_motor": true,
      "motor_id": 0,
      "accel_val": 2000,
      "base_duration_us": 187500
    },
    {
      "id": "M_257",
      "pitch": 65,
      "t_note_us": 25687500,
      "t_trigger_us": 25551537,
      "is_ai": false,
      "track_id": 0,
      "velocity": 0,
      "is_motor": true,
      "motor_id": 1,
      "accel_val": 2000,
      "base_duration_us": 187500
    },
    {
      "id": "M_258",
      "pitch": 77,
      "t_note_us": 25875000,
      "t_trigger_us": 25739037,
      "is_ai": false,
      "track_id": 0,
      "velocity": 0,
      "is_motor": true,
      "motor_id": 2,
      "accel_val": 2000,
      "base_duration_us": 187500
    },
    {
      "id": "M_259",
      "pitch": 55,
      "t_note_us": 25875000,
      "t_trigger_us": 25739037,
      "is_ai": false,
      "track_id": 0,
      "velocity": 0,
      "is_motor": true,
      "motor_id": 0,
      "accel_val": 2000,
      "base_duration_us": 187500
    },
    {
      "id": "M_260",
      "pitch": 67,
      "t_note_us": 25875000,
      "t_trigger_us": 25739037,
      "is_ai": false,
      "track_id": 0,
      "velocity": 0,
      "is_motor": true,
      "motor_id": 1,
      "accel_val": 2000,
      "base_duration_us": 187500
    },
    {
      "id": "M_261",
      "pitch": 91,
      "t_note_us": 26062500,
      "t_trigger_us": 25926537,
      "is_ai": true,
      "track_id": 7,
      "velocity": 0,
      "is_motor": false,
      "motor_id": 0,
      "accel_val": 2000,
      "base_duration_us": 187500
    },
    {
      "id": "M_262",
      "pitch": 55,
      "t_note_us": 26062500,
      "t_trigger_us": 25926537,
      "is_ai": false,
      "track_id": 0,
      "velocity": 0,
      "is_motor": true,
      "motor_id": 0,
      "accel_val": 2000,
      "base_duration_us": 187500
    },
    {
      "id": "M_263",
      "pitch": 65,
      "t_note_us": 26062500,
      "t_trigger_us": 25926537,
      "is_ai": false,
      "track_id": 0,
      "velocity": 0,
      "is_motor": true,
      "motor_id": 1,
      "accel_val": 2000,
      "base_duration_us": 187500
    },
    {
      "id": "M_264",
      "pitch": 67,
      "t_note_us": 26250000,
      "t_trigger_us": 26114037,
      "is_ai": false,
      "track_id": 0,
      "velocity": 0,
      "is_motor": true,
      "motor_id": 1,
      "accel_val": 2000,
      "base_duration_us": 187500
    },
    {
      "id": "M_265",
      "pitch": 55,
      "t_note_us": 26250000,
      "t_trigger_us": 26114037,
      "is_ai": false,
      "track_id": 0,
      "velocity": 0,
      "is_motor": true,
      "motor_id": 0,
      "accel_val": 2000,
      "base_duration_us": 187500
    },
    {
      "id": "M_266",
      "pitch": 67,
      "t_note_us": 26250000,
      "t_trigger_us": 26114037,
      "is_ai": false,
      "track_id": 0,
      "velocity": 0,
      "is_motor": true,
      "motor_id": 2,
      "accel_val": 2000,
      "base_duration_us": 187500
    },
    {
      "id": "M_267",
      "pitch": 91,
      "t_note_us": 26437500,
      "t_trigger_us": 26301537,
      "is_ai": true,
      "track_id": 7,
      "velocity": 0,
      "is_motor": false,
      "motor_id": 0,
      "accel_val": 2000,
      "base_duration_us": 187500
    },
    {
      "id": "M_268",
      "pitch": 55,
      "t_note_us": 26437500,
      "t_trigger_us": 26301537,
      "is_ai": false,
      "track_id": 0,
      "velocity": 0,
      "is_motor": true,
      "motor_id": 0,
      "accel_val": 2000,
      "base_duration_us": 187500
    },
    {
      "id": "M_269",
      "pitch": 67,
      "t_note_us": 26437500,
      "t_trigger_us": 26301537,
      "is_ai": false,
      "track_id": 0,
      "velocity": 0,
      "is_motor": true,
      "motor_id": 1,
      "accel_val": 2000,
      "base_duration_us": 187500
    },
    {
      "id": "M_270",
      "pitch": 76,
      "t_note_us": 26625000,
      "t_trigger_us": 26489037,
      "is_ai": false,
      "track_id": 0,
      "velocity": 0,
      "is_motor": true,
      "motor_id": 2,
      "accel_val": 2000,
      "base_duration_us": 187500
    },
    {
      "id": "M_271",
      "pitch": 69,
      "t_note_us": 26625000,
      "t_trigger_us": 26489037,
      "is_ai": false,
      "track_id": 0,
      "velocity": 0,
      "is_motor": true,
      "motor_id": 1,
      "accel_val": 2000,
      "base_duration_us": 187500
    },
    {
      "id": "M_274",
      "pitch": 55,
      "t_note_us": 26625000,
      "t_trigger_us": 26489037,
      "is_ai": false,
      "track_id": 0,
      "velocity": 0,
      "is_motor": true,
      "motor_id": 0,
      "accel_val": 2000,
      "base_duration_us": 375000
    },
    {
      "id": "M_275",
      "pitch": 67,
      "t_note_us": 26625000,
      "t_trigger_us": 26489037,
      "is_ai": false,
      "track_id": 0,
      "velocity": 0,
      "is_motor": true,
      "motor_id": 3,
      "accel_val": 2000,
      "base_duration_us": 375000
    },
    {
      "id": "M_272",
      "pitch": 88,
      "t_note_us": 26812500,
      "t_trigger_us": 26676537,
      "is_ai": true,
      "track_id": 5,
      "velocity": 0,
      "is_motor": false,
      "motor_id": 0,
      "accel_val": 2000,
      "base_duration_us": 187500
    },
    {
      "id": "M_273",
      "pitch": 93,
      "t_note_us": 26812500,
      "t_trigger_us": 26676537,
      "is_ai": true,
      "track_id": 8,
      "velocity": 0,
      "is_motor": false,
      "motor_id": 0,
      "accel_val": 2000,
      "base_duration_us": 187500
    },
    {
      "id": "M_276",
      "pitch": 76,
      "t_note_us": 27000000,
      "t_trigger_us": 26864037,
      "is_ai": false,
      "track_id": 0,
      "velocity": 0,
      "is_motor": true,
      "motor_id": 2,
      "accel_val": 2000,
      "base_duration_us": 187500
    },
    {
      "id": "M_278",
      "pitch": 53,
      "t_note_us": 27000000,
      "t_trigger_us": 26864037,
      "is_ai": false,
      "track_id": 0,
      "velocity": 0,
      "is_motor": true,
      "motor_id": 0,
      "accel_val": 2000,
      "base_duration_us": 375000
    },
    {
      "id": "M_279",
      "pitch": 65,
      "t_note_us": 27000000,
      "t_trigger_us": 26864037,
      "is_ai": false,
      "track_id": 0,
      "velocity": 0,
      "is_motor": true,
      "motor_id": 1,
      "accel_val": 2000,
      "base_duration_us": 375000
    },
    {
      "id": "M_277",
      "pitch": 67,
      "t_note_us": 27187500,
      "t_trigger_us": 27051537,
      "is_ai": false,
      "track_id": 0,
      "velocity": 0,
      "is_motor": true,
      "motor_id": 2,
      "accel_val": 2000,
      "base_duration_us": 187500
    },
    {
      "id": "M_281",
      "pitch": 93,
      "t_note_us": 27375000,
      "t_trigger_us": 27239037,
      "is_ai": true,
      "track_id": 8,
      "velocity": 0,
      "is_motor": false,
      "motor_id": 0,
      "accel_val": 2000,
      "base_duration_us": 187500
    },
    {
      "id": "M_280",
      "pitch": 76,
      "t_note_us": 27375000,
      "t_trigger_us": 27239037,
      "is_ai": false,
      "track_id": 0,
      "velocity": 0,
      "is_motor": true,
      "motor_id": 2,
      "accel_val": 2000,
      "base_duration_us": 187500
    },
    {
      "id": "M_282",
      "pitch": 57,
      "t_note_us": 27375000,
      "t_trigger_us": 27239037,
      "is_ai": false,
      "track_id": 0,
      "velocity": 0,
      "is_motor": true,
      "motor_id": 0,
      "accel_val": 2000,
      "base_duration_us": 187500
    },
    {
      "id": "M_283",
      "pitch": 76,
      "t_note_us": 27562500,
      "t_trigger_us": 27426537,
      "is_ai": false,
      "track_id": 0,
      "velocity": 0,
      "is_motor": true,
      "motor_id": 2,
      "accel_val": 2000,
      "base_duration_us": 187500
    },
    {
      "id": "M_284",
      "pitch": 69,
      "t_note_us": 27562500,
      "t_trigger_us": 27426537,
      "is_ai": false,
      "track_id": 0,
      "velocity": 0,
      "is_motor": true,
      "motor_id": 1,
      "accel_val": 2000,
      "base_duration_us": 187500
    },
    {
      "id": "M_285",
      "pitch": 57,
      "t_note_us": 27562500,
      "t_trigger_us": 27426537,
      "is_ai": false,
      "track_id": 0,
      "velocity": 0,
      "is_motor": true,
      "motor_id": 0,
      "accel_val": 2000,
      "base_duration_us": 187500
    },
    {
      "id": "M_286",
      "pitch": 64,
      "t_note_us": 27750000,
      "t_trigger_us": 27614037,
      "is_ai": false,
      "track_id": 0,
      "velocity": 0,
      "is_motor": true,
      "motor_id": 1,
      "accel_val": 2000,
      "base_duration_us": 187500
    },
    {
      "id": "M_287",
      "pitch": 69,
      "t_note_us": 27750000,
      "t_trigger_us": 27614037,
      "is_ai": false,
      "track_id": 0,
      "velocity": 0,
      "is_motor": true,
      "motor_id": 2,
      "accel_val": 2000,
      "base_duration_us": 187500
    },
    {
      "id": "M_288",
      "pitch": 91,
      "t_note_us": 27937500,
      "t_trigger_us": 27801537,
      "is_ai": true,
      "track_id": 7,
      "velocity": 0,
      "is_motor": false,
      "motor_id": 0,
      "accel_val": 2000,
      "base_duration_us": 187500
    },
    {
      "id": "M_289",
      "pitch": 57,
      "t_note_us": 27937500,
      "t_trigger_us": 27801537,
      "is_ai": false,
      "track_id": 0,
      "velocity": 0,
      "is_motor": true,
      "motor_id": 0,
      "accel_val": 2000,
      "base_duration_us": 187500
    },
    {
      "id": "M_292",
      "pitch": 91,
      "t_note_us": 28125000,
      "t_trigger_us": 27989037,
      "is_ai": true,
      "track_id": 7,
      "velocity": 0,
      "is_motor": false,
      "motor_id": 0,
      "accel_val": 2000,
      "base_duration_us": 375000
    },
    {
      "id": "M_290",
      "pitch": 57,
      "t_note_us": 28125000,
      "t_trigger_us": 27989037,
      "is_ai": false,
      "track_id": 0,
      "velocity": 0,
      "is_motor": true,
      "motor_id": 0,
      "accel_val": 2000,
      "base_duration_us": 187500
    },
    {
      "id": "M_291",
      "pitch": 72,
      "t_note_us": 28125000,
      "t_trigger_us": 27989037,
      "is_ai": false,
      "track_id": 0,
      "velocity": 0,
      "is_motor": true,
      "motor_id": 1,
      "accel_val": 2000,
      "base_duration_us": 375000
    },
    {
      "id": "M_293",
      "pitch": 57,
      "t_note_us": 28312500,
      "t_trigger_us": 28176537,
      "is_ai": false,
      "track_id": 0,
      "velocity": 0,
      "is_motor": true,
      "motor_id": 0,
      "accel_val": 2000,
      "base_duration_us": 187500
    },
    {
      "id": "M_294",
      "pitch": 76,
      "t_note_us": 28500000,
      "t_trigger_us": 28364037,
      "is_ai": false,
      "track_id": 0,
      "velocity": 0,
      "is_motor": true,
      "motor_id": 2,
      "accel_val": 2000,
      "base_duration_us": 187500
    },
    {
      "id": "M_295",
      "pitch": 64,
      "t_note_us": 28500000,
      "t_trigger_us": 28364037,
      "is_ai": false,
      "track_id": 0,
      "velocity": 0,
      "is_motor": true,
      "motor_id": 1,
      "accel_val": 2000,
      "base_duration_us": 187500
    },
    {
      "id": "M_296",
      "pitch": 69,
      "t_note_us": 28500000,
      "t_trigger_us": 28364037,
      "is_ai": false,
      "track_id": 0,
      "velocity": 0,
      "is_motor": true,
      "motor_id": 0,
      "accel_val": 2000,
      "base_duration_us": 187500
    },
    {
      "id": "M_299",
      "pitch": 91,
      "t_note_us": 28687500,
      "t_trigger_us": 28551537,
      "is_ai": true,
      "track_id": 7,
      "velocity": 0,
      "is_motor": false,
      "motor_id": 0,
      "accel_val": 2000,
      "base_duration_us": 375000
    },
    {
      "id": "M_297",
      "pitch": 57,
      "t_note_us": 28687500,
      "t_trigger_us": 28551537,
      "is_ai": false,
      "track_id": 0,
      "velocity": 0,
      "is_motor": true,
      "motor_id": 0,
      "accel_val": 2000,
      "base_duration_us": 187500
    },
    {
      "id": "M_298",
      "pitch": 72,
      "t_note_us": 28687500,
      "t_trigger_us": 28551537,
      "is_ai": false,
      "track_id": 0,
      "velocity": 0,
      "is_motor": true,
      "motor_id": 1,
      "accel_val": 2000,
      "base_duration_us": 375000
    },
    {
      "id": "M_300",
      "pitch": 57,
      "t_note_us": 28875000,
      "t_trigger_us": 28739037,
      "is_ai": false,
      "track_id": 0,
      "velocity": 0,
      "is_motor": true,
      "motor_id": 0,
      "accel_val": 2000,
      "base_duration_us": 187500
    },
    {
      "id": "M_301",
      "pitch": 76,
      "t_note_us": 29062500,
      "t_trigger_us": 28926537,
      "is_ai": false,
      "track_id": 0,
      "velocity": 0,
      "is_motor": true,
      "motor_id": 2,
      "accel_val": 2000,
      "base_duration_us": 187500
    },
    {
      "id": "M_302",
      "pitch": 57,
      "t_note_us": 29062500,
      "t_trigger_us": 28926537,
      "is_ai": false,
      "track_id": 0,
      "velocity": 0,
      "is_motor": true,
      "motor_id": 0,
      "accel_val": 2000,
      "base_duration_us": 187500
    },
    {
      "id": "M_303",
      "pitch": 64,
      "t_note_us": 29250000,
      "t_trigger_us": 29114037,
      "is_ai": false,
      "track_id": 0,
      "velocity": 0,
      "is_motor": true,
      "motor_id": 1,
      "accel_val": 2000,
      "base_duration_us": 187500
    },
    {
      "id": "M_304",
      "pitch": 69,
      "t_note_us": 29250000,
      "t_trigger_us": 29114037,
      "is_ai": false,
      "track_id": 0,
      "velocity": 0,
      "is_motor": true,
      "motor_id": 2,
      "accel_val": 2000,
      "base_duration_us": 187500
    },
    {
      "id": "M_305",
      "pitch": 69,
      "t_note_us": 29250000,
      "t_trigger_us": 29114037,
      "is_ai": false,
      "track_id": 0,
      "velocity": 0,
      "is_motor": true,
      "motor_id": 0,
      "accel_val": 2000,
      "base_duration_us": 375000
    },
    {
      "id": "M_306",
      "pitch": 67,
      "t_note_us": 29250000,
      "t_trigger_us": 29114037,
      "is_ai": false,
      "track_id": 0,
      "velocity": 0,
      "is_motor": true,
      "motor_id": 3,
      "accel_val": 2000,
      "base_duration_us": 375000
    },
    {
      "id": "M_307",
      "pitch": 57,
      "t_note_us": 29437500,
      "t_trigger_us": 29301537,
      "is_ai": false,
      "track_id": 0,
      "velocity": 0,
      "is_motor": true,
      "motor_id": 1,
      "accel_val": 2000,
      "base_duration_us": 187500
    },
    {
      "id": "M_308",
      "pitch": 57,
      "t_note_us": 29625000,
      "t_trigger_us": 29489037,
      "is_ai": false,
      "track_id": 0,
      "velocity": 0,
      "is_motor": true,
      "motor_id": 0,
      "accel_val": 2000,
      "base_duration_us": 187500
    },
    {
      "id": "M_309",
      "pitch": 69,
      "t_note_us": 29625000,
      "t_trigger_us": 29489037,
      "is_ai": false,
      "track_id": 0,
      "velocity": 0,
      "is_motor": true,
      "motor_id": 1,
      "accel_val": 2000,
      "base_duration_us": 375000
    },
    {
      "id": "M_310",
      "pitch": 76,
      "t_note_us": 29625000,
      "t_trigger_us": 29489037,
      "is_ai": false,
      "track_id": 0,
      "velocity": 0,
      "is_motor": true,
      "motor_id": 2,
      "accel_val": 2000,
      "base_duration_us": 375000
    },
    {
      "id": "M_311",
      "pitch": 57,
      "t_note_us": 29812500,
      "t_trigger_us": 29676537,
      "is_ai": false,
      "track_id": 0,
      "velocity": 0,
      "is_motor": true,
      "motor_id": 0,
      "accel_val": 2000,
      "base_duration_us": 187500
    },
    {
      "id": "M_312",
      "pitch": 64,
      "t_note_us": 30000000,
      "t_trigger_us": 29864037,
      "is_ai": false,
      "track_id": 0,
      "velocity": 0,
      "is_motor": true,
      "motor_id": 1,
      "accel_val": 2000,
      "base_duration_us": 187500
    },
    {
      "id": "M_313",
      "pitch": 69,
      "t_note_us": 30000000,
      "t_trigger_us": 29864037,
      "is_ai": false,
      "track_id": 0,
      "velocity": 0,
      "is_motor": true,
      "motor_id": 2,
      "accel_val": 2000,
      "base_duration_us": 187500
    },
    {
      "id": "M_314",
      "pitch": 67,
      "t_note_us": 30000000,
      "t_trigger_us": 29864037,
      "is_ai": false,
      "track_id": 0,
      "velocity": 0,
      "is_motor": true,
      "motor_id": 0,
      "accel_val": 2000,
      "base_duration_us": 375000
    },
    {
      "id": "M_315",
      "pitch": 57,
      "t_note_us": 30187500,
      "t_trigger_us": 30051537,
      "is_ai": false,
      "track_id": 0,
      "velocity": 0,
      "is_motor": true,
      "motor_id": 1,
      "accel_val": 2000,
      "base_duration_us": 187500
    },
    {
      "id": "M_317",
      "pitch": 93,
      "t_note_us": 30375000,
      "t_trigger_us": 30239037,
      "is_ai": true,
      "track_id": 8,
      "velocity": 0,
      "is_motor": false,
      "motor_id": 0,
      "accel_val": 2000,
      "base_duration_us": 187500
    },
    {
      "id": "M_316",
      "pitch": 72,
      "t_note_us": 30375000,
      "t_trigger_us": 30239037,
      "is_ai": false,
      "track_id": 0,
      "velocity": 0,
      "is_motor": true,
      "motor_id": 1,
      "accel_val": 2000,
      "base_duration_us": 187500
    },
    {
      "id": "M_318",
      "pitch": 57,
      "t_note_us": 30375000,
      "t_trigger_us": 30239037,
      "is_ai": false,
      "track_id": 0,
      "velocity": 0,
      "is_motor": true,
      "motor_id": 0,
      "accel_val": 2000,
      "base_duration_us": 187500
    },
    {
      "id": "M_319",
      "pitch": 67,
      "t_note_us": 30562500,
      "t_trigger_us": 30426537,
      "is_ai": false,
      "track_id": 0,
      "velocity": 0,
      "is_motor": true,
      "motor_id": 1,
      "accel_val": 2000,
      "base_duration_us": 187500
    },
    {
      "id": "M_320",
      "pitch": 57,
      "t_note_us": 30562500,
      "t_trigger_us": 30426537,
      "is_ai": false,
      "track_id": 0,
      "velocity": 0,
      "is_motor": true,
      "motor_id": 0,
      "accel_val": 2000,
      "base_duration_us": 187500
    },
    {
      "id": "M_321",
      "pitch": 67,
      "t_note_us": 30750000,
      "t_trigger_us": 30614037,
      "is_ai": false,
      "track_id": 0,
      "velocity": 0,
      "is_motor": true,
      "motor_id": 1,
      "accel_val": 2000,
      "base_duration_us": 187500
    },
    {
      "id": "M_322",
      "pitch": 64,
      "t_note_us": 30750000,
      "t_trigger_us": 30614037,
      "is_ai": false,
      "track_id": 0,
      "velocity": 0,
      "is_motor": true,
      "motor_id": 0,
      "accel_val": 2000,
      "base_duration_us": 187500
    },
    {
      "id": "M_323",
      "pitch": 69,
      "t_note_us": 30750000,
      "t_trigger_us": 30614037,
      "is_ai": false,
      "track_id": 0,
      "velocity": 0,
      "is_motor": true,
      "motor_id": 2,
      "accel_val": 2000,
      "base_duration_us": 187500
    },
    {
      "id": "M_324",
      "pitch": 57,
      "t_note_us": 30937500,
      "t_trigger_us": 30801537,
      "is_ai": false,
      "track_id": 0,
      "velocity": 0,
      "is_motor": true,
      "motor_id": 0,
      "accel_val": 2000,
      "base_duration_us": 187500
    },
    {
      "id": "M_325",
      "pitch": 72,
      "t_note_us": 30937500,
      "t_trigger_us": 30801537,
      "is_ai": false,
      "track_id": 0,
      "velocity": 0,
      "is_motor": true,
      "motor_id": 1,
      "accel_val": 2000,
      "base_duration_us": 375000
    },
    {
      "id": "M_326",
      "pitch": 69,
      "t_note_us": 30937500,
      "t_trigger_us": 30801537,
      "is_ai": false,
      "track_id": 0,
      "velocity": 0,
      "is_motor": true,
      "motor_id": 2,
      "accel_val": 2000,
      "base_duration_us": 375000
    },
    {
      "id": "M_327",
      "pitch": 57,
      "t_note_us": 31125000,
      "t_trigger_us": 30989037,
      "is_ai": false,
      "track_id": 0,
      "velocity": 0,
      "is_motor": true,
      "motor_id": 0,
      "accel_val": 2000,
      "base_duration_us": 187500
    },
    {
      "id": "M_328",
      "pitch": 57,
      "t_note_us": 31312500,
      "t_trigger_us": 31176537,
      "is_ai": false,
      "track_id": 0,
      "velocity": 0,
      "is_motor": true,
      "motor_id": 0,
      "accel_val": 2000,
      "base_duration_us": 187500
    },
    {
      "id": "M_331",
      "pitch": 96,
      "t_note_us": 31500000,
      "t_trigger_us": 31364037,
      "is_ai": true,
      "track_id": 10,
      "velocity": 0,
      "is_motor": false,
      "motor_id": 0,
      "accel_val": 2000,
      "base_duration_us": 375000
    },
    {
      "id": "M_329",
      "pitch": 64,
      "t_note_us": 31500000,
      "t_trigger_us": 31364037,
      "is_ai": false,
      "track_id": 0,
      "velocity": 0,
      "is_motor": true,
      "motor_id": 1,
      "accel_val": 2000,
      "base_duration_us": 187500
    },
    {
      "id": "M_330",
      "pitch": 69,
      "t_note_us": 31500000,
      "t_trigger_us": 31364037,
      "is_ai": false,
      "track_id": 0,
      "velocity": 0,
      "is_motor": true,
      "motor_id": 2,
      "accel_val": 2000,
      "base_duration_us": 187500
    },
    {
      "id": "M_332",
      "pitch": 57,
      "t_note_us": 31687500,
      "t_trigger_us": 31551537,
      "is_ai": false,
      "track_id": 0,
      "velocity": 0,
      "is_motor": true,
      "motor_id": 0,
      "accel_val": 2000,
      "base_duration_us": 187500
    },
    {
      "id": "M_333",
      "pitch": 93,
      "t_note_us": 31875000,
      "t_trigger_us": 31739037,
      "is_ai": true,
      "track_id": 8,
      "velocity": 0,
      "is_motor": false,
      "motor_id": 0,
      "accel_val": 2000,
      "base_duration_us": 187500
    },
    {
      "id": "M_334",
      "pitch": 99,
      "t_note_us": 31875000,
      "t_trigger_us": 31739037,
      "is_ai": true,
      "track_id": 0,
      "velocity": 0,
      "is_motor": true,
      "motor_id": 3,
      "accel_val": 2000,
      "base_duration_us": 187500
    },
    {
      "id": "M_335",
      "pitch": 57,
      "t_note_us": 31875000,
      "t_trigger_us": 31739037,
      "is_ai": false,
      "track_id": 0,
      "velocity": 0,
      "is_motor": true,
      "motor_id": 0,
      "accel_val": 2000,
      "base_duration_us": 187500
    },
    {
      "id": "M_336",
      "pitch": 93,
      "t_note_us": 32062500,
      "t_trigger_us": 31926537,
      "is_ai": true,
      "track_id": 8,
      "velocity": 0,
      "is_motor": false,
      "motor_id": 0,
      "accel_val": 2000,
      "base_duration_us": 187500
    },
    {
      "id": "M_337",
      "pitch": 98,
      "t_note_us": 32062500,
      "t_trigger_us": 31926537,
      "is_ai": true,
      "track_id": 11,
      "velocity": 0,
      "is_motor": false,
      "motor_id": 0,
      "accel_val": 2000,
      "base_duration_us": 187500
    },
    {
      "id": "M_338",
      "pitch": 57,
      "t_note_us": 32062500,
      "t_trigger_us": 31926537,
      "is_ai": false,
      "track_id": 0,
      "velocity": 0,
      "is_motor": true,
      "motor_id": 0,
      "accel_val": 2000,
      "base_duration_us": 187500
    },
    {
      "id": "M_339",
      "pitch": 93,
      "t_note_us": 32250000,
      "t_trigger_us": 32114037,
      "is_ai": true,
      "track_id": 8,
      "velocity": 0,
      "is_motor": false,
      "motor_id": 0,
      "accel_val": 2000,
      "base_duration_us": 187500
    },
    {
      "id": "M_340",
      "pitch": 96,
      "t_note_us": 32250000,
      "t_trigger_us": 32114037,
      "is_ai": true,
      "track_id": 10,
      "velocity": 0,
      "is_motor": false,
      "motor_id": 0,
      "accel_val": 2000,
      "base_duration_us": 187500
    },
    {
      "id": "M_341",
      "pitch": 64,
      "t_note_us": 32250000,
      "t_trigger_us": 32114037,
      "is_ai": false,
      "track_id": 0,
      "velocity": 0,
      "is_motor": true,
      "motor_id": 1,
      "accel_val": 2000,
      "base_duration_us": 187500
    },
    {
      "id": "M_342",
      "pitch": 69,
      "t_note_us": 32250000,
      "t_trigger_us": 32114037,
      "is_ai": false,
      "track_id": 0,
      "velocity": 0,
      "is_motor": true,
      "motor_id": 2,
      "accel_val": 2000,
      "base_duration_us": 187500
    },
    {
      "id": "M_343",
      "pitch": 91,
      "t_note_us": 32437500,
      "t_trigger_us": 32301537,
      "is_ai": true,
      "track_id": 7,
      "velocity": 0,
      "is_motor": false,
      "motor_id": 0,
      "accel_val": 2000,
      "base_duration_us": 375000
    },
    {
      "id": "M_344",
      "pitch": 96,
      "t_note_us": 32437500,
      "t_trigger_us": 32301537,
      "is_ai": true,
      "track_id": 10,
      "velocity": 0,
      "is_motor": false,
      "motor_id": 0,
      "accel_val": 2000,
      "base_duration_us": 375000
    },
    {
      "id": "M_345",
      "pitch": 55,
      "t_note_us": 32437500,
      "t_trigger_us": 32301537,
      "is_ai": false,
      "track_id": 0,
      "velocity": 0,
      "is_motor": true,
      "motor_id": 0,
      "accel_val": 2000,
      "base_duration_us": 375000
    },
    {
      "id": "M_346",
      "pitch": 62,
      "t_note_us": 32437500,
      "t_trigger_us": 32301537,
      "is_ai": false,
      "track_id": 0,
      "velocity": 0,
      "is_motor": true,
      "motor_id": 1,
      "accel_val": 2000,
      "base_duration_us": 375000
    },
    {
      "id": "M_347",
      "pitch": 67,
      "t_note_us": 32437500,
      "t_trigger_us": 32301537,
      "is_ai": false,
      "track_id": 0,
      "velocity": 0,
      "is_motor": true,
      "motor_id": 2,
      "accel_val": 2000,
      "base_duration_us": 375000
    },
    {
      "id": "M_348",
      "pitch": 88,
      "t_note_us": 32812500,
      "t_trigger_us": 32676537,
      "is_ai": true,
      "track_id": 5,
      "velocity": 0,
      "is_motor": false,
      "motor_id": 0,
      "accel_val": 2000,
      "base_duration_us": 375000
    },
    {
      "id": "M_349",
      "pitch": 93,
      "t_note_us": 32812500,
      "t_trigger_us": 32676537,
      "is_ai": true,
      "track_id": 8,
      "velocity": 0,
      "is_motor": false,
      "motor_id": 0,
      "accel_val": 2000,
      "base_duration_us": 375000
    },
    {
      "id": "M_350",
      "pitch": 55,
      "t_note_us": 32812500,
      "t_trigger_us": 32676537,
      "is_ai": false,
      "track_id": 0,
      "velocity": 0,
      "is_motor": true,
      "motor_id": 0,
      "accel_val": 2000,
      "base_duration_us": 375000
    },
    {
      "id": "M_351",
      "pitch": 62,
      "t_note_us": 32812500,
      "t_trigger_us": 32676537,
      "is_ai": false,
      "track_id": 0,
      "velocity": 0,
      "is_motor": true,
      "motor_id": 1,
      "accel_val": 2000,
      "base_duration_us": 375000
    },
    {
      "id": "M_352",
      "pitch": 67,
      "t_note_us": 32812500,
      "t_trigger_us": 32676537,
      "is_ai": false,
      "track_id": 0,
      "velocity": 0,
      "is_motor": true,
      "motor_id": 2,
      "accel_val": 2000,
      "base_duration_us": 375000
    },
    {
      "id": "M_353",
      "pitch": 67,
      "t_note_us": 33187500,
      "t_trigger_us": 33051537,
      "is_ai": false,
      "track_id": 0,
      "velocity": 0,
      "is_motor": true,
      "motor_id": 1,
      "accel_val": 2000,
      "base_duration_us": 187500
    },
    {
      "id": "M_354",
      "pitch": 55,
      "t_note_us": 33187500,
      "t_trigger_us": 33051537,
      "is_ai": false,
      "track_id": 0,
      "velocity": 0,
      "is_motor": true,
      "motor_id": 0,
      "accel_val": 2000,
      "base_duration_us": 187500
    },
    {
      "id": "M_355",
      "pitch": 67,
      "t_note_us": 33187500,
      "t_trigger_us": 33051537,
      "is_ai": false,
      "track_id": 0,
      "velocity": 0,
      "is_motor": true,
      "motor_id": 2,
      "accel_val": 2000,
      "base_duration_us": 187500
    },
    {
      "id": "M_356",
      "pitch": 69,
      "t_note_us": 33375000,
      "t_trigger_us": 33239037,
      "is_ai": false,
      "track_id": 0,
      "velocity": 0,
      "is_motor": true,
      "motor_id": 1,
      "accel_val": 2000,
      "base_duration_us": 187500
    },
    {
      "id": "M_357",
      "pitch": 53,
      "t_note_us": 33375000,
      "t_trigger_us": 33239037,
      "is_ai": false,
      "track_id": 0,
      "velocity": 0,
      "is_motor": true,
      "motor_id": 0,
      "accel_val": 2000,
      "base_duration_us": 187500
    },
    {
      "id": "M_360",
      "pitch": 67,
      "t_note_us": 33375000,
      "t_trigger_us": 33239037,
      "is_ai": false,
      "track_id": 0,
      "velocity": 0,
      "is_motor": true,
      "motor_id": 2,
      "accel_val": 2000,
      "base_duration_us": 562500
    },
    {
      "id": "M_358",
      "pitch": 65,
      "t_note_us": 33562500,
      "t_trigger_us": 33426537,
      "is_ai": false,
      "track_id": 0,
      "velocity": 0,
      "is_motor": true,
      "motor_id": 1,
      "accel_val": 2000,
      "base_duration_us": 187500
    },
    {
      "id": "M_359",
      "pitch": 69,
      "t_note_us": 33750000,
      "t_trigger_us": 33614037,
      "is_ai": false,
      "track_id": 0,
      "velocity": 0,
      "is_motor": true,
      "motor_id": 1,
      "accel_val": 2000,
      "base_duration_us": 187500
    },
    {
      "id": "M_361",
      "pitch": 53,
      "t_note_us": 33750000,
      "t_trigger_us": 33614037,
      "is_ai": false,
      "track_id": 0,
      "velocity": 0,
      "is_motor": true,
      "motor_id": 0,
      "accel_val": 2000,
      "base_duration_us": 187500
    },
    {
      "id": "M_362",
      "pitch": 88,
      "t_note_us": 33937500,
      "t_trigger_us": 33801537,
      "is_ai": true,
      "track_id": 5,
      "velocity": 0,
      "is_motor": false,
      "motor_id": 0,
      "accel_val": 2000,
      "base_duration_us": 187500
    },
    {
      "id": "M_363",
      "pitch": 65,
      "t_note_us": 33937500,
      "t_trigger_us": 33801537,
      "is_ai": false,
      "track_id": 0,
      "velocity": 0,
      "is_motor": true,
      "motor_id": 1,
      "accel_val": 2000,
      "base_duration_us": 187500
    },
    {
      "id": "M_364",
      "pitch": 93,
      "t_note_us": 34125000,
      "t_trigger_us": 33989037,
      "is_ai": true,
      "track_id": 8,
      "velocity": 0,
      "is_motor": false,
      "motor_id": 0,
      "accel_val": 2000,
      "base_duration_us": 187500
    },
    {
      "id": "M_365",
      "pitch": 69,
      "t_note_us": 34125000,
      "t_trigger_us": 33989037,
      "is_ai": false,
      "track_id": 0,
      "velocity": 0,
      "is_motor": true,
      "motor_id": 1,
      "accel_val": 2000,
      "base_duration_us": 187500
    },
    {
      "id": "M_366",
      "pitch": 54,
      "t_note_us": 34125000,
      "t_trigger_us": 33989037,
      "is_ai": false,
      "track_id": 0,
      "velocity": 0,
      "is_motor": true,
      "motor_id": 0,
      "accel_val": 2000,
      "base_duration_us": 187500
    },
    {
      "id": "M_367",
      "pitch": 95,
      "t_note_us": 34312500,
      "t_trigger_us": 34176537,
      "is_ai": true,
      "track_id": 9,
      "velocity": 0,
      "is_motor": false,
      "motor_id": 0,
      "accel_val": 2000,
      "base_duration_us": 187500
    },
    {
      "id": "M_368",
      "pitch": 66,
      "t_note_us": 34312500,
      "t_trigger_us": 34176537,
      "is_ai": false,
      "track_id": 0,
      "velocity": 0,
      "is_motor": true,
      "motor_id": 1,
      "accel_val": 2000,
      "base_duration_us": 187500
    },
    {
      "id": "M_369",
      "pitch": 69,
      "t_note_us": 34500000,
      "t_trigger_us": 34364037,
      "is_ai": false,
      "track_id": 0,
      "velocity": 0,
      "is_motor": true,
      "motor_id": 1,
      "accel_val": 2000,
      "base_duration_us": 187500
    },
    {
      "id": "M_370",
      "pitch": 54,
      "t_note_us": 34500000,
      "t_trigger_us": 34364037,
      "is_ai": false,
      "track_id": 0,
      "velocity": 0,
      "is_motor": true,
      "motor_id": 0,
      "accel_val": 2000,
      "base_duration_us": 187500
    },
    {
      "id": "M_373",
      "pitch": 91,
      "t_note_us": 34687500,
      "t_trigger_us": 34551537,
      "is_ai": true,
      "track_id": 7,
      "velocity": 0,
      "is_motor": false,
      "motor_id": 0,
      "accel_val": 2000,
      "base_duration_us": 375000
    },
    {
      "id": "M_371",
      "pitch": 66,
      "t_note_us": 34687500,
      "t_trigger_us": 34551537,
      "is_ai": false,
      "track_id": 0,
      "velocity": 0,
      "is_motor": true,
      "motor_id": 1,
      "accel_val": 2000,
      "base_duration_us": 187500
    },
    {
      "id": "M_372",
      "pitch": 69,
      "t_note_us": 34875000,
      "t_trigger_us": 34739037,
      "is_ai": false,
      "track_id": 0,
      "velocity": 0,
      "is_motor": true,
      "motor_id": 1,
      "accel_val": 2000,
      "base_duration_us": 187500
    },
    {
      "id": "M_374",
      "pitch": 55,
      "t_note_us": 34875000,
      "t_trigger_us": 34739037,
      "is_ai": false,
      "track_id": 0,
      "velocity": 0,
      "is_motor": true,
      "motor_id": 0,
      "accel_val": 2000,
      "base_duration_us": 187500
    },
    {
      "id": "M_377",
      "pitch": 88,
      "t_note_us": 35062500,
      "t_trigger_us": 34926537,
      "is_ai": true,
      "track_id": 5,
      "velocity": 0,
      "is_motor": false,
      "motor_id": 0,
      "accel_val": 2000,
      "base_duration_us": 375000
    },
    {
      "id": "M_375",
      "pitch": 67,
      "t_note_us": 35062500,
      "t_trigger_us": 34926537,
      "is_ai": false,
      "track_id": 0,
      "velocity": 0,
      "is_motor": true,
      "motor_id": 1,
      "accel_val": 2000,
      "base_duration_us": 187500
    },
    {
      "id": "M_376",
      "pitch": 69,
      "t_note_us": 35250000,
      "t_trigger_us": 35114037,
      "is_ai": false,
      "track_id": 0,
      "velocity": 0,
      "is_motor": true,
      "motor_id": 1,
      "accel_val": 2000,
      "base_duration_us": 187500
    },
    {
      "id": "M_378",
      "pitch": 55,
      "t_note_us": 35250000,
      "t_trigger_us": 35114037,
      "is_ai": false,
      "track_id": 0,
      "velocity": 0,
      "is_motor": true,
      "motor_id": 0,
      "accel_val": 2000,
      "base_duration_us": 187500
    },
    {
      "id": "M_382",
      "pitch": 91,
      "t_note_us": 35437500,
      "t_trigger_us": 35301537,
      "is_ai": true,
      "track_id": 7,
      "velocity": 0,
      "is_motor": false,
      "motor_id": 0,
      "accel_val": 2000,
      "base_duration_us": 375000
    },
    {
      "id": "M_379",
      "pitch": 67,
      "t_note_us": 35437500,
      "t_trigger_us": 35301537,
      "is_ai": false,
      "track_id": 0,
      "velocity": 0,
      "is_motor": true,
      "motor_id": 1,
      "accel_val": 2000,
      "base_duration_us": 187500
    },
    {
      "id": "M_380",
      "pitch": 69,
      "t_note_us": 35625000,
      "t_trigger_us": 35489037,
      "is_ai": false,
      "track_id": 0,
      "velocity": 0,
      "is_motor": true,
      "motor_id": 1,
      "accel_val": 2000,
      "base_duration_us": 187500
    },
    {
      "id": "M_381",
      "pitch": 76,
      "t_note_us": 35625000,
      "t_trigger_us": 35489037,
      "is_ai": false,
      "track_id": 0,
      "velocity": 0,
      "is_motor": true,
      "motor_id": 2,
      "accel_val": 2000,
      "base_duration_us": 187500
    },
    {
      "id": "M_383",
      "pitch": 56,
      "t_note_us": 35625000,
      "t_trigger_us": 35489037,
      "is_ai": false,
      "track_id": 0,
      "velocity": 0,
      "is_motor": true,
      "motor_id": 0,
      "accel_val": 2000,
      "base_duration_us": 187500
    },
    {
      "id": "M_387",
      "pitch": 93,
      "t_note_us": 35812500,
      "t_trigger_us": 35676537,
      "is_ai": true,
      "track_id": 8,
      "velocity": 0,
      "is_motor": false,
      "motor_id": 0,
      "accel_val": 2000,
      "base_duration_us": 375000
    },
    {
      "id": "M_384",
      "pitch": 68,
      "t_note_us": 35812500,
      "t_trigger_us": 35676537,
      "is_ai": false,
      "track_id": 0,
      "velocity": 0,
      "is_motor": true,
      "motor_id": 1,
      "accel_val": 2000,
      "base_duration_us": 187500
    },
    {
      "id": "M_385",
      "pitch": 69,
      "t_note_us": 36000000,
      "t_trigger_us": 35864037,
      "is_ai": false,
      "track_id": 0,
      "velocity": 0,
      "is_motor": true,
      "motor_id": 1,
      "accel_val": 2000,
      "base_duration_us": 187500
    },
    {
      "id": "M_386",
      "pitch": 76,
      "t_note_us": 36000000,
      "t_trigger_us": 35864037,
      "is_ai": false,
      "track_id": 0,
      "velocity": 0,
      "is_motor": true,
      "motor_id": 2,
      "accel_val": 2000,
      "base_duration_us": 187500
    },
    {
      "id": "M_388",
      "pitch": 56,
      "t_note_us": 36000000,
      "t_trigger_us": 35864037,
      "is_ai": false,
      "track_id": 0,
      "velocity": 0,
      "is_motor": true,
      "motor_id": 0,
      "accel_val": 2000,
      "base_duration_us": 187500
    },
    {
      "id": "M_389",
      "pitch": 91,
      "t_note_us": 36187500,
      "t_trigger_us": 36051537,
      "is_ai": true,
      "track_id": 7,
      "velocity": 0,
      "is_motor": false,
      "motor_id": 0,
      "accel_val": 2000,
      "base_duration_us": 187500
    },
    {
      "id": "M_390",
      "pitch": 68,
      "t_note_us": 36187500,
      "t_trigger_us": 36051537,
      "is_ai": false,
      "track_id": 0,
      "velocity": 0,
      "is_motor": true,
      "motor_id": 1,
      "accel_val": 2000,
      "base_duration_us": 187500
    },
    {
      "id": "M_391",
      "pitch": 96,
      "t_note_us": 36375000,
      "t_trigger_us": 36239037,
      "is_ai": true,
      "track_id": 10,
      "velocity": 0,
      "is_motor": false,
      "motor_id": 0,
      "accel_val": 2000,
      "base_duration_us": 187500
    },
    {
      "id": "M_392",
      "pitch": 88,
      "t_note_us": 36375000,
      "t_trigger_us": 36239037,
      "is_ai": true,
      "track_id": 5,
      "velocity": 0,
      "is_motor": false,
      "motor_id": 0,
      "accel_val": 2000,
      "base_duration_us": 187500
    },
    {
      "id": "M_393",
      "pitch": 57,
      "t_note_us": 36375000,
      "t_trigger_us": 36239037,
      "is_ai": false,
      "track_id": 0,
      "velocity": 0,
      "is_motor": true,
      "motor_id": 0,
      "accel_val": 2000,
      "base_duration_us": 187500
    },
    {
      "id": "M_394",
      "pitch": 93,
      "t_note_us": 36562500,
      "t_trigger_us": 36426537,
      "is_ai": true,
      "track_id": 8,
      "velocity": 0,
      "is_motor": false,
      "motor_id": 0,
      "accel_val": 2000,
      "base_duration_us": 187500
    },
    {
      "id": "M_395",
      "pitch": 69,
      "t_note_us": 36562500,
      "t_trigger_us": 36426537,
      "is_ai": false,
      "track_id": 0,
      "velocity": 0,
      "is_motor": true,
      "motor_id": 1,
      "accel_val": 2000,
      "base_duration_us": 187500
    },
    {
      "id": "M_396",
      "pitch": 93,
      "t_note_us": 36750000,
      "t_trigger_us": 36614037,
      "is_ai": true,
      "track_id": 8,
      "velocity": 0,
      "is_motor": false,
      "motor_id": 0,
      "accel_val": 2000,
      "base_duration_us": 187500
    },
    {
      "id": "M_397",
      "pitch": 88,
      "t_note_us": 36750000,
      "t_trigger_us": 36614037,
      "is_ai": true,
      "track_id": 5,
      "velocity": 0,
      "is_motor": false,
      "motor_id": 0,
      "accel_val": 2000,
      "base_duration_us": 187500
    },
    {
      "id": "M_398",
      "pitch": 57,
      "t_note_us": 36750000,
      "t_trigger_us": 36614037,
      "is_ai": false,
      "track_id": 0,
      "velocity": 0,
      "is_motor": true,
      "motor_id": 0,
      "accel_val": 2000,
      "base_duration_us": 187500
    },
    {
      "id": "M_402",
      "pitch": 99,
      "t_note_us": 36937500,
      "t_trigger_us": 36801537,
      "is_ai": true,
      "track_id": 0,
      "velocity": 0,
      "is_motor": true,
      "motor_id": 3,
      "accel_val": 2000,
      "base_duration_us": 375000
    },
    {
      "id": "M_399",
      "pitch": 69,
      "t_note_us": 36937500,
      "t_trigger_us": 36801537,
      "is_ai": false,
      "track_id": 0,
      "velocity": 0,
      "is_motor": true,
      "motor_id": 1,
      "accel_val": 2000,
      "base_duration_us": 187500
    },
    {
      "id": "M_400",
      "pitch": 76,
      "t_note_us": 37125000,
      "t_trigger_us": 36989037,
      "is_ai": false,
      "track_id": 0,
      "velocity": 0,
      "is_motor": true,
      "motor_id": 2,
      "accel_val": 2000,
      "base_duration_us": 187500
    },
    {
      "id": "M_401",
      "pitch": 69,
      "t_note_us": 37125000,
      "t_trigger_us": 36989037,
      "is_ai": false,
      "track_id": 0,
      "velocity": 0,
      "is_motor": true,
      "motor_id": 1,
      "accel_val": 2000,
      "base_duration_us": 187500
    },
    {
      "id": "M_403",
      "pitch": 59,
      "t_note_us": 37125000,
      "t_trigger_us": 36989037,
      "is_ai": false,
      "track_id": 0,
      "velocity": 0,
      "is_motor": true,
      "motor_id": 0,
      "accel_val": 2000,
      "base_duration_us": 187500
    },
    {
      "id": "M_407",
      "pitch": 98,
      "t_note_us": 37312500,
      "t_trigger_us": 37176537,
      "is_ai": true,
      "track_id": 11,
      "velocity": 0,
      "is_motor": false,
      "motor_id": 0,
      "accel_val": 2000,
      "base_duration_us": 375000
    },
    {
      "id": "M_404",
      "pitch": 71,
      "t_note_us": 37312500,
      "t_trigger_us": 37176537,
      "is_ai": false,
      "track_id": 0,
      "velocity": 0,
      "is_motor": true,
      "motor_id": 1,
      "accel_val": 2000,
      "base_duration_us": 187500
    },
    {
      "id": "M_405",
      "pitch": 76,
      "t_note_us": 37500000,
      "t_trigger_us": 37364037,
      "is_ai": false,
      "track_id": 0,
      "velocity": 0,
      "is_motor": true,
      "motor_id": 2,
      "accel_val": 2000,
      "base_duration_us": 187500
    },
    {
      "id": "M_406",
      "pitch": 69,
      "t_note_us": 37500000,
      "t_trigger_us": 37364037,
      "is_ai": false,
      "track_id": 0,
      "velocity": 0,
      "is_motor": true,
      "motor_id": 1,
      "accel_val": 2000,
      "base_duration_us": 187500
    },
    {
      "id": "M_408",
      "pitch": 59,
      "t_note_us": 37500000,
      "t_trigger_us": 37364037,
      "is_ai": false,
      "track_id": 0,
      "velocity": 0,
      "is_motor": true,
      "motor_id": 0,
      "accel_val": 2000,
      "base_duration_us": 187500
    },
    {
      "id": "M_412",
      "pitch": 96,
      "t_note_us": 37687500,
      "t_trigger_us": 37551537,
      "is_ai": true,
      "track_id": 10,
      "velocity": 0,
      "is_motor": false,
      "motor_id": 0,
      "accel_val": 2000,
      "base_duration_us": 375000
    },
    {
      "id": "M_409",
      "pitch": 71,
      "t_note_us": 37687500,
      "t_trigger_us": 37551537,
      "is_ai": false,
      "track_id": 0,
      "velocity": 0,
      "is_motor": true,
      "motor_id": 1,
      "accel_val": 2000,
      "base_duration_us": 187500
    },
    {
      "id": "M_410",
      "pitch": 88,
      "t_note_us": 37875000,
      "t_trigger_us": 37739037,
      "is_ai": true,
      "track_id": 5,
      "velocity": 0,
      "is_motor": false,
      "motor_id": 0,
      "accel_val": 2000,
      "base_duration_us": 187500
    },
    {
      "id": "M_411",
      "pitch": 93,
      "t_note_us": 37875000,
      "t_trigger_us": 37739037,
      "is_ai": true,
      "track_id": 8,
      "velocity": 0,
      "is_motor": false,
      "motor_id": 0,
      "accel_val": 2000,
      "base_duration_us": 187500
    },
    {
      "id": "M_413",
      "pitch": 60,
      "t_note_us": 37875000,
      "t_trigger_us": 37739037,
      "is_ai": false,
      "track_id": 0,
      "velocity": 0,
      "is_motor": true,
      "motor_id": 1,
      "accel_val": 2000,
      "base_duration_us": 187500
    },
    {
      "id": "M_414",
      "pitch": 93,
      "t_note_us": 38062500,
      "t_trigger_us": 37926537,
      "is_ai": true,
      "track_id": 8,
      "velocity": 0,
      "is_motor": false,
      "motor_id": 0,
      "accel_val": 2000,
      "base_duration_us": 187500
    },
    {
      "id": "M_415",
      "pitch": 72,
      "t_note_us": 38062500,
      "t_trigger_us": 37926537,
      "is_ai": false,
      "track_id": 0,
      "velocity": 0,
      "is_motor": true,
      "motor_id": 1,
      "accel_val": 2000,
      "base_duration_us": 187500
    },
    {
      "id": "M_416",
      "pitch": 69,
      "t_note_us": 38250000,
      "t_trigger_us": 38114037,
      "is_ai": false,
      "track_id": 0,
      "velocity": 0,
      "is_motor": true,
      "motor_id": 1,
      "accel_val": 2000,
      "base_duration_us": 187500
    },
    {
      "id": "M_417",
      "pitch": 76,
      "t_note_us": 38250000,
      "t_trigger_us": 38114037,
      "is_ai": false,
      "track_id": 0,
      "velocity": 0,
      "is_motor": true,
      "motor_id": 2,
      "accel_val": 2000,
      "base_duration_us": 187500
    },
    {
      "id": "M_418",
      "pitch": 60,
      "t_note_us": 38250000,
      "t_trigger_us": 38114037,
      "is_ai": false,
      "track_id": 0,
      "velocity": 0,
      "is_motor": true,
      "motor_id": 0,
      "accel_val": 2000,
      "base_duration_us": 187500
    },
    {
      "id": "M_419",
      "pitch": 91,
      "t_note_us": 38437500,
      "t_trigger_us": 38301537,
      "is_ai": true,
      "track_id": 7,
      "velocity": 0,
      "is_motor": false,
      "motor_id": 0,
      "accel_val": 2000,
      "base_duration_us": 187500
    },
    {
      "id": "M_420",
      "pitch": 99,
      "t_note_us": 38437500,
      "t_trigger_us": 38301537,
      "is_ai": true,
      "track_id": 0,
      "velocity": 0,
      "is_motor": true,
      "motor_id": 3,
      "accel_val": 2000,
      "base_duration_us": 187500
    },
    {
      "id": "M_421",
      "pitch": 63,
      "t_note_us": 38437500,
      "t_trigger_us": 38301537,
      "is_ai": false,
      "track_id": 0,
      "velocity": 0,
      "is_motor": true,
      "motor_id": 1,
      "accel_val": 2000,
      "base_duration_us": 187500
    },
    {
      "id": "M_422",
      "pitch": 75,
      "t_note_us": 38437500,
      "t_trigger_us": 38301537,
      "is_ai": false,
      "track_id": 0,
      "velocity": 0,
      "is_motor": true,
      "motor_id": 2,
      "accel_val": 2000,
      "base_duration_us": 187500
    },
    {
      "id": "M_423",
      "pitch": 76,
      "t_note_us": 38625000,
      "t_trigger_us": 38489037,
      "is_ai": false,
      "track_id": 0,
      "velocity": 0,
      "is_motor": true,
      "motor_id": 2,
      "accel_val": 2000,
      "base_duration_us": 187500
    },
    {
      "id": "M_425",
      "pitch": 98,
      "t_note_us": 38812500,
      "t_trigger_us": 38676537,
      "is_ai": true,
      "track_id": 11,
      "velocity": 0,
      "is_motor": false,
      "motor_id": 0,
      "accel_val": 2000,
      "base_duration_us": 187500
    },
    {
      "id": "M_424",
      "pitch": 67,
      "t_note_us": 38812500,
      "t_trigger_us": 38676537,
      "is_ai": false,
      "track_id": 0,
      "velocity": 0,
      "is_motor": true,
      "motor_id": 1,
      "accel_val": 2000,
      "base_duration_us": 187500
    },
    {
      "id": "M_426",
      "pitch": 62,
      "t_note_us": 38812500,
      "t_trigger_us": 38676537,
      "is_ai": false,
      "track_id": 0,
      "velocity": 0,
      "is_motor": true,
      "motor_id": 0,
      "accel_val": 2000,
      "base_duration_us": 187500
    },
    {
      "id": "M_427",
      "pitch": 74,
      "t_note_us": 38812500,
      "t_trigger_us": 38676537,
      "is_ai": false,
      "track_id": 0,
      "velocity": 0,
      "is_motor": true,
      "motor_id": 2,
      "accel_val": 2000,
      "base_duration_us": 187500
    },
    {
      "id": "M_428",
      "pitch": 96,
      "t_note_us": 39187500,
      "t_trigger_us": 39051537,
      "is_ai": true,
      "track_id": 10,
      "velocity": 0,
      "is_motor": false,
      "motor_id": 0,
      "accel_val": 2000,
      "base_duration_us": 187500
    },
    {
      "id": "M_429",
      "pitch": 60,
      "t_note_us": 39187500,
      "t_trigger_us": 39051537,
      "is_ai": false,
      "track_id": 0,
      "velocity": 0,
      "is_motor": true,
      "motor_id": 1,
      "accel_val": 2000,
      "base_duration_us": 187500
    },
    {
      "id": "M_430",
      "pitch": 72,
      "t_note_us": 39187500,
      "t_trigger_us": 39051537,
      "is_ai": false,
      "track_id": 0,
      "velocity": 0,
      "is_motor": true,
      "motor_id": 0,
      "accel_val": 2000,
      "base_duration_us": 187500
    },
    {
      "id": "M_431",
      "pitch": 69,
      "t_note_us": 39375000,
      "t_trigger_us": 39239037,
      "is_ai": false,
      "track_id": 0,
      "velocity": 0,
      "is_motor": true,
      "motor_id": 1,
      "accel_val": 2000,
      "base_duration_us": 187500
    },
    {
      "id": "M_432",
      "pitch": 76,
      "t_note_us": 39375000,
      "t_trigger_us": 39239037,
      "is_ai": false,
      "track_id": 0,
      "velocity": 0,
      "is_motor": true,
      "motor_id": 2,
      "accel_val": 2000,
      "base_duration_us": 187500
    },
    {
      "id": "M_433",
      "pitch": 57,
      "t_note_us": 39375000,
      "t_trigger_us": 39239037,
      "is_ai": false,
      "track_id": 0,
      "velocity": 0,
      "is_motor": true,
      "motor_id": 0,
      "accel_val": 2000,
      "base_duration_us": 187500
    },
    {
      "id": "M_434",
      "pitch": 76,
      "t_note_us": 39562500,
      "t_trigger_us": 39426537,
      "is_ai": false,
      "track_id": 0,
      "velocity": 0,
      "is_motor": true,
      "motor_id": 2,
      "accel_val": 2000,
      "base_duration_us": 187500
    },
    {
      "id": "M_435",
      "pitch": 69,
      "t_note_us": 39562500,
      "t_trigger_us": 39426537,
      "is_ai": false,
      "track_id": 0,
      "velocity": 0,
      "is_motor": true,
      "motor_id": 1,
      "accel_val": 2000,
      "base_duration_us": 187500
    },
    {
      "id": "M_436",
      "pitch": 57,
      "t_note_us": 39562500,
      "t_trigger_us": 39426537,
      "is_ai": false,
      "track_id": 0,
      "velocity": 0,
      "is_motor": true,
      "motor_id": 0,
      "accel_val": 2000,
      "base_duration_us": 187500
    },
    {
      "id": "M_439",
      "pitch": 90,
      "t_note_us": 39750000,
      "t_trigger_us": 39614037,
      "is_ai": true,
      "track_id": 0,
      "velocity": 0,
      "is_motor": true,
      "motor_id": 3,
      "accel_val": 2000,
      "base_duration_us": 375000
    },
    {
      "id": "M_440",
      "pitch": 93,
      "t_note_us": 39750000,
      "t_trigger_us": 39614037,
      "is_ai": true,
      "track_id": 8,
      "velocity": 0,
      "is_motor": false,
      "motor_id": 0,
      "accel_val": 2000,
      "base_duration_us": 375000
    },
    {
      "id": "M_437",
      "pitch": 64,
      "t_note_us": 39750000,
      "t_trigger_us": 39614037,
      "is_ai": false,
      "track_id": 0,
      "velocity": 0,
      "is_motor": true,
      "motor_id": 1,
      "accel_val": 2000,
      "base_duration_us": 187500
    },
    {
      "id": "M_438",
      "pitch": 69,
      "t_note_us": 39750000,
      "t_trigger_us": 39614037,
      "is_ai": false,
      "track_id": 0,
      "velocity": 0,
      "is_motor": true,
      "motor_id": 2,
      "accel_val": 2000,
      "base_duration_us": 187500
    },
    {
      "id": "M_441",
      "pitch": 57,
      "t_note_us": 39937500,
      "t_trigger_us": 39801537,
      "is_ai": false,
      "track_id": 0,
      "velocity": 0,
      "is_motor": true,
      "motor_id": 0,
      "accel_val": 2000,
      "base_duration_us": 187500
    },
    {
      "id": "M_442",
      "pitch": 57,
      "t_note_us": 40125000,
      "t_trigger_us": 39989037,
      "is_ai": false,
      "track_id": 0,
      "velocity": 0,
      "is_motor": true,
      "motor_id": 0,
      "accel_val": 2000,
      "base_duration_us": 187500
    },
    {
      "id": "M_443",
      "pitch": 76,
      "t_note_us": 40312500,
      "t_trigger_us": 40176537,
      "is_ai": false,
      "track_id": 0,
      "velocity": 0,
      "is_motor": true,
      "motor_id": 2,
      "accel_val": 2000,
      "base_duration_us": 187500
    },
    {
      "id": "M_444",
      "pitch": 57,
      "t_note_us": 40312500,
      "t_trigger_us": 40176537,
      "is_ai": false,
      "track_id": 0,
      "velocity": 0,
      "is_motor": true,
      "motor_id": 0,
      "accel_val": 2000,
      "base_duration_us": 187500
    },
    {
      "id": "M_445",
      "pitch": 69,
      "t_note_us": 40500000,
      "t_trigger_us": 40364037,
      "is_ai": false,
      "track_id": 0,
      "velocity": 0,
      "is_motor": true,
      "motor_id": 1,
      "accel_val": 2000,
      "base_duration_us": 187500
    },
    {
      "id": "M_446",
      "pitch": 67,
      "t_note_us": 40500000,
      "t_trigger_us": 40364037,
      "is_ai": false,
      "track_id": 0,
      "velocity": 0,
      "is_motor": true,
      "motor_id": 2,
      "accel_val": 2000,
      "base_duration_us": 187500
    },
    {
      "id": "M_447",
      "pitch": 64,
      "t_note_us": 40500000,
      "t_trigger_us": 40364037,
      "is_ai": false,
      "track_id": 0,
      "velocity": 0,
      "is_motor": true,
      "motor_id": 0,
      "accel_val": 2000,
      "base_duration_us": 187500
    },
    {
      "id": "M_448",
      "pitch": 69,
      "t_note_us": 40500000,
      "t_trigger_us": 40364037,
      "is_ai": false,
      "track_id": 0,
      "velocity": 0,
      "is_motor": true,
      "motor_id": 3,
      "accel_val": 2000,
      "base_duration_us": 187500
    },
    {
      "id": "M_449",
      "pitch": 67,
      "t_note_us": 40687500,
      "t_trigger_us": 40551537,
      "is_ai": false,
      "track_id": 0,
      "velocity": 0,
      "is_motor": true,
      "motor_id": 1,
      "accel_val": 2000,
      "base_duration_us": 187500
    },
    {
      "id": "M_450",
      "pitch": 57,
      "t_note_us": 40687500,
      "t_trigger_us": 40551537,
      "is_ai": false,
      "track_id": 0,
      "velocity": 0,
      "is_motor": true,
      "motor_id": 0,
      "accel_val": 2000,
      "base_duration_us": 187500
    },
    {
      "id": "M_451",
      "pitch": 72,
      "t_note_us": 40875000,
      "t_trigger_us": 40739037,
      "is_ai": false,
      "track_id": 0,
      "velocity": 0,
      "is_motor": true,
      "motor_id": 1,
      "accel_val": 2000,
      "base_duration_us": 187500
    },
    {
      "id": "M_452",
      "pitch": 67,
      "t_note_us": 40875000,
      "t_trigger_us": 40739037,
      "is_ai": false,
      "track_id": 0,
      "velocity": 0,
      "is_motor": true,
      "motor_id": 2,
      "accel_val": 2000,
      "base_duration_us": 187500
    },
    {
      "id": "M_453",
      "pitch": 57,
      "t_note_us": 40875000,
      "t_trigger_us": 40739037,
      "is_ai": false,
      "track_id": 0,
      "velocity": 0,
      "is_motor": true,
      "motor_id": 0,
      "accel_val": 2000,
      "base_duration_us": 187500
    },
    {
      "id": "M_454",
      "pitch": 76,
      "t_note_us": 41062500,
      "t_trigger_us": 40926537,
      "is_ai": false,
      "track_id": 0,
      "velocity": 0,
      "is_motor": true,
      "motor_id": 2,
      "accel_val": 2000,
      "base_duration_us": 187500
    },
    {
      "id": "M_455",
      "pitch": 57,
      "t_note_us": 41062500,
      "t_trigger_us": 40926537,
      "is_ai": false,
      "track_id": 0,
      "velocity": 0,
      "is_motor": true,
      "motor_id": 0,
      "accel_val": 2000,
      "base_duration_us": 187500
    },
    {
      "id": "M_456",
      "pitch": 72,
      "t_note_us": 41250000,
      "t_trigger_us": 41114037,
      "is_ai": false,
      "track_id": 0,
      "velocity": 0,
      "is_motor": true,
      "motor_id": 1,
      "accel_val": 2000,
      "base_duration_us": 187500
    },
    {
      "id": "M_457",
      "pitch": 67,
      "t_note_us": 41250000,
      "t_trigger_us": 41114037,
      "is_ai": false,
      "track_id": 0,
      "velocity": 0,
      "is_motor": true,
      "motor_id": 2,
      "accel_val": 2000,
      "base_duration_us": 187500
    },
    {
      "id": "M_458",
      "pitch": 64,
      "t_note_us": 41250000,
      "t_trigger_us": 41114037,
      "is_ai": false,
      "track_id": 0,
      "velocity": 0,
      "is_motor": true,
      "motor_id": 0,
      "accel_val": 2000,
      "base_duration_us": 187500
    },
    {
      "id": "M_459",
      "pitch": 69,
      "t_note_us": 41250000,
      "t_trigger_us": 41114037,
      "is_ai": false,
      "track_id": 0,
      "velocity": 0,
      "is_motor": true,
      "motor_id": 3,
      "accel_val": 2000,
      "base_duration_us": 187500
    },
    {
      "id": "M_460",
      "pitch": 76,
      "t_note_us": 41437500,
      "t_trigger_us": 41301537,
      "is_ai": false,
      "track_id": 0,
      "velocity": 0,
      "is_motor": true,
      "motor_id": 2,
      "accel_val": 2000,
      "base_duration_us": 187500
    },
    {
      "id": "M_461",
      "pitch": 57,
      "t_note_us": 41437500,
      "t_trigger_us": 41301537,
      "is_ai": false,
      "track_id": 0,
      "velocity": 0,
      "is_motor": true,
      "motor_id": 0,
      "accel_val": 2000,
      "base_duration_us": 187500
    },
    {
      "id": "M_462",
      "pitch": 91,
      "t_note_us": 41625000,
      "t_trigger_us": 41489037,
      "is_ai": true,
      "track_id": 7,
      "velocity": 0,
      "is_motor": false,
      "motor_id": 0,
      "accel_val": 2000,
      "base_duration_us": 187500
    },
    {
      "id": "M_463",
      "pitch": 57,
      "t_note_us": 41625000,
      "t_trigger_us": 41489037,
      "is_ai": false,
      "track_id": 0,
      "velocity": 0,
      "is_motor": true,
      "motor_id": 0,
      "accel_val": 2000,
      "base_duration_us": 187500
    },
    {
      "id": "M_464",
      "pitch": 88,
      "t_note_us": 41812500,
      "t_trigger_us": 41676537,
      "is_ai": true,
      "track_id": 5,
      "velocity": 0,
      "is_motor": false,
      "motor_id": 0,
      "accel_val": 2000,
      "base_duration_us": 187500
    },
    {
      "id": "M_465",
      "pitch": 57,
      "t_note_us": 41812500,
      "t_trigger_us": 41676537,
      "is_ai": false,
      "track_id": 0,
      "velocity": 0,
      "is_motor": true,
      "motor_id": 0,
      "accel_val": 2000,
      "base_duration_us": 187500
    },
    {
      "id": "M_466",
      "pitch": 64,
      "t_note_us": 42000000,
      "t_trigger_us": 41864037,
      "is_ai": false,
      "track_id": 0,
      "velocity": 0,
      "is_motor": true,
      "motor_id": 1,
      "accel_val": 2000,
      "base_duration_us": 187500
    },
    {
      "id": "M_467",
      "pitch": 69,
      "t_note_us": 42000000,
      "t_trigger_us": 41864037,
      "is_ai": false,
      "track_id": 0,
      "velocity": 0,
      "is_motor": true,
      "motor_id": 2,
      "accel_val": 2000,
      "base_duration_us": 187500
    },
    {
      "id": "M_468",
      "pitch": 69,
      "t_note_us": 42000000,
      "t_trigger_us": 41864037,
      "is_ai": false,
      "track_id": 0,
      "velocity": 0,
      "is_motor": true,
      "motor_id": 0,
      "accel_val": 2000,
      "base_duration_us": 375000
    },
    {
      "id": "M_469",
      "pitch": 74,
      "t_note_us": 42000000,
      "t_trigger_us": 41864037,
      "is_ai": false,
      "track_id": 0,
      "velocity": 0,
      "is_motor": true,
      "motor_id": 3,
      "accel_val": 2000,
      "base_duration_us": 375000
    },
    {
      "id": "M_470",
      "pitch": 57,
      "t_note_us": 42187500,
      "t_trigger_us": 42051537,
      "is_ai": false,
      "track_id": 0,
      "velocity": 0,
      "is_motor": true,
      "motor_id": 1,
      "accel_val": 2000,
      "base_duration_us": 187500
    },
    {
      "id": "M_471",
      "pitch": 57,
      "t_note_us": 42375000,
      "t_trigger_us": 42239037,
      "is_ai": false,
      "track_id": 0,
      "velocity": 0,
      "is_motor": true,
      "motor_id": 0,
      "accel_val": 2000,
      "base_duration_us": 187500
    },
    {
      "id": "M_472",
      "pitch": 57,
      "t_note_us": 42562500,
      "t_trigger_us": 42426537,
      "is_ai": false,
      "track_id": 0,
      "velocity": 0,
      "is_motor": true,
      "motor_id": 0,
      "accel_val": 2000,
      "base_duration_us": 187500
    },
    {
      "id": "M_473",
      "pitch": 74,
      "t_note_us": 42562500,
      "t_trigger_us": 42426537,
      "is_ai": false,
      "track_id": 0,
      "velocity": 0,
      "is_motor": true,
      "motor_id": 1,
      "accel_val": 2000,
      "base_duration_us": 375000
    },
    {
      "id": "M_474",
      "pitch": 67,
      "t_note_us": 42562500,
      "t_trigger_us": 42426537,
      "is_ai": false,
      "track_id": 0,
      "velocity": 0,
      "is_motor": true,
      "motor_id": 2,
      "accel_val": 2000,
      "base_duration_us": 375000
    },
    {
      "id": "M_475",
      "pitch": 64,
      "t_note_us": 42750000,
      "t_trigger_us": 42614037,
      "is_ai": false,
      "track_id": 0,
      "velocity": 0,
      "is_motor": true,
      "motor_id": 0,
      "accel_val": 2000,
      "base_duration_us": 187500
    },
    {
      "id": "M_476",
      "pitch": 69,
      "t_note_us": 42750000,
      "t_trigger_us": 42614037,
      "is_ai": false,
      "track_id": 0,
      "velocity": 0,
      "is_motor": true,
      "motor_id": 3,
      "accel_val": 2000,
      "base_duration_us": 187500
    },
    {
      "id": "M_477",
      "pitch": 76,
      "t_note_us": 42937500,
      "t_trigger_us": 42801537,
      "is_ai": false,
      "track_id": 0,
      "velocity": 0,
      "is_motor": true,
      "motor_id": 2,
      "accel_val": 2000,
      "base_duration_us": 187500
    },
    {
      "id": "M_478",
      "pitch": 57,
      "t_note_us": 42937500,
      "t_trigger_us": 42801537,
      "is_ai": false,
      "track_id": 0,
      "velocity": 0,
      "is_motor": true,
      "motor_id": 0,
      "accel_val": 2000,
      "base_duration_us": 187500
    },
    {
      "id": "M_479",
      "pitch": 72,
      "t_note_us": 43125000,
      "t_trigger_us": 42989037,
      "is_ai": false,
      "track_id": 0,
      "velocity": 0,
      "is_motor": true,
      "motor_id": 1,
      "accel_val": 2000,
      "base_duration_us": 187500
    },
    {
      "id": "M_480",
      "pitch": 67,
      "t_note_us": 43125000,
      "t_trigger_us": 42989037,
      "is_ai": false,
      "track_id": 0,
      "velocity": 0,
      "is_motor": true,
      "motor_id": 2,
      "accel_val": 2000,
      "base_duration_us": 187500
    },
    {
      "id": "M_481",
      "pitch": 57,
      "t_note_us": 43125000,
      "t_trigger_us": 42989037,
      "is_ai": false,
      "track_id": 0,
      "velocity": 0,
      "is_motor": true,
      "motor_id": 0,
      "accel_val": 2000,
      "base_duration_us": 187500
    },
    {
      "id": "M_482",
      "pitch": 76,
      "t_note_us": 43312500,
      "t_trigger_us": 43176537,
      "is_ai": false,
      "track_id": 0,
      "velocity": 0,
      "is_motor": true,
      "motor_id": 2,
      "accel_val": 2000,
      "base_duration_us": 187500
    },
    {
      "id": "M_483",
      "pitch": 57,
      "t_note_us": 43312500,
      "t_trigger_us": 43176537,
      "is_ai": false,
      "track_id": 0,
      "velocity": 0,
      "is_motor": true,
      "motor_id": 0,
      "accel_val": 2000,
      "base_duration_us": 187500
    },
    {
      "id": "M_484",
      "pitch": 91,
      "t_note_us": 43500000,
      "t_trigger_us": 43364037,
      "is_ai": true,
      "track_id": 7,
      "velocity": 0,
      "is_motor": false,
      "motor_id": 0,
      "accel_val": 2000,
      "base_duration_us": 187500
    },
    {
      "id": "M_485",
      "pitch": 64,
      "t_note_us": 43500000,
      "t_trigger_us": 43364037,
      "is_ai": false,
      "track_id": 0,
      "velocity": 0,
      "is_motor": true,
      "motor_id": 1,
      "accel_val": 2000,
      "base_duration_us": 187500
    },
    {
      "id": "M_486",
      "pitch": 69,
      "t_note_us": 43500000,
      "t_trigger_us": 43364037,
      "is_ai": false,
      "track_id": 0,
      "velocity": 0,
      "is_motor": true,
      "motor_id": 2,
      "accel_val": 2000,
      "base_duration_us": 187500
    },
    {
      "id": "M_488",
      "pitch": 93,
      "t_note_us": 43687500,
      "t_trigger_us": 43551537,
      "is_ai": true,
      "track_id": 8,
      "velocity": 0,
      "is_motor": false,
      "motor_id": 0,
      "accel_val": 2000,
      "base_duration_us": 187500
    },
    {
      "id": "M_487",
      "pitch": 76,
      "t_note_us": 43687500,
      "t_trigger_us": 43551537,
      "is_ai": false,
      "track_id": 0,
      "velocity": 0,
      "is_motor": true,
      "motor_id": 2,
      "accel_val": 2000,
      "base_duration_us": 187500
    },
    {
      "id": "M_489",
      "pitch": 57,
      "t_note_us": 43687500,
      "t_trigger_us": 43551537,
      "is_ai": false,
      "track_id": 0,
      "velocity": 0,
      "is_motor": true,
      "motor_id": 0,
      "accel_val": 2000,
      "base_duration_us": 187500
    },
    {
      "id": "M_491",
      "pitch": 88,
      "t_note_us": 43875000,
      "t_trigger_us": 43739037,
      "is_ai": true,
      "track_id": 5,
      "velocity": 0,
      "is_motor": false,
      "motor_id": 0,
      "accel_val": 2000,
      "base_duration_us": 375000
    },
    {
      "id": "M_492",
      "pitch": 93,
      "t_note_us": 43875000,
      "t_trigger_us": 43739037,
      "is_ai": true,
      "track_id": 8,
      "velocity": 0,
      "is_motor": false,
      "motor_id": 0,
      "accel_val": 2000,
      "base_duration_us": 375000
    },
    {
      "id": "M_490",
      "pitch": 57,
      "t_note_us": 43875000,
      "t_trigger_us": 43739037,
      "is_ai": false,
      "track_id": 0,
      "velocity": 0,
      "is_motor": true,
      "motor_id": 0,
      "accel_val": 2000,
      "base_duration_us": 187500
    },
    {
      "id": "M_493",
      "pitch": 57,
      "t_note_us": 44062500,
      "t_trigger_us": 43926537,
      "is_ai": false,
      "track_id": 0,
      "velocity": 0,
      "is_motor": true,
      "motor_id": 0,
      "accel_val": 2000,
      "base_duration_us": 187500
    },
    {
      "id": "M_494",
      "pitch": 93,
      "t_note_us": 44250000,
      "t_trigger_us": 44114037,
      "is_ai": true,
      "track_id": 8,
      "velocity": 0,
      "is_motor": false,
      "motor_id": 0,
      "accel_val": 2000,
      "base_duration_us": 187500
    },
    {
      "id": "M_495",
      "pitch": 64,
      "t_note_us": 44250000,
      "t_trigger_us": 44114037,
      "is_ai": false,
      "track_id": 0,
      "velocity": 0,
      "is_motor": true,
      "motor_id": 1,
      "accel_val": 2000,
      "base_duration_us": 187500
    },
    {
      "id": "M_496",
      "pitch": 69,
      "t_note_us": 44250000,
      "t_trigger_us": 44114037,
      "is_ai": false,
      "track_id": 0,
      "velocity": 0,
      "is_motor": true,
      "motor_id": 2,
      "accel_val": 2000,
      "base_duration_us": 187500
    },
    {
      "id": "M_497",
      "pitch": 93,
      "t_note_us": 44437500,
      "t_trigger_us": 44301537,
      "is_ai": true,
      "track_id": 8,
      "velocity": 0,
      "is_motor": false,
      "motor_id": 0,
      "accel_val": 2000,
      "base_duration_us": 187500
    },
    {
      "id": "M_498",
      "pitch": 55,
      "t_note_us": 44437500,
      "t_trigger_us": 44301537,
      "is_ai": false,
      "track_id": 0,
      "velocity": 0,
      "is_motor": true,
      "motor_id": 0,
      "accel_val": 2000,
      "base_duration_us": 187500
    },
    {
      "id": "M_499",
      "pitch": 62,
      "t_note_us": 44437500,
      "t_trigger_us": 44301537,
      "is_ai": false,
      "track_id": 0,
      "velocity": 0,
      "is_motor": true,
      "motor_id": 1,
      "accel_val": 2000,
      "base_duration_us": 187500
    },
    {
      "id": "M_500",
      "pitch": 67,
      "t_note_us": 44437500,
      "t_trigger_us": 44301537,
      "is_ai": false,
      "track_id": 0,
      "velocity": 0,
      "is_motor": true,
      "motor_id": 2,
      "accel_val": 2000,
      "base_duration_us": 187500
    },
    {
      "id": "M_502",
      "pitch": 99,
      "t_note_us": 44625000,
      "t_trigger_us": 44489037,
      "is_ai": true,
      "track_id": 0,
      "velocity": 0,
      "is_motor": true,
      "motor_id": 3,
      "accel_val": 2000,
      "base_duration_us": 187500
    },
    {
      "id": "M_501",
      "pitch": 67,
      "t_note_us": 44625000,
      "t_trigger_us": 44489037,
      "is_ai": false,
      "track_id": 0,
      "velocity": 0,
      "is_motor": true,
      "motor_id": 1,
      "accel_val": 2000,
      "base_duration_us": 187500
    },
    {
      "id": "M_504",
      "pitch": 98,
      "t_note_us": 44812500,
      "t_trigger_us": 44676537,
      "is_ai": true,
      "track_id": 11,
      "velocity": 0,
      "is_motor": false,
      "motor_id": 0,
      "accel_val": 2000,
      "base_duration_us": 187500
    },
    {
      "id": "M_503",
      "pitch": 67,
      "t_note_us": 44812500,
      "t_trigger_us": 44676537,
      "is_ai": false,
      "track_id": 0,
      "velocity": 0,
      "is_motor": true,
      "motor_id": 1,
      "accel_val": 2000,
      "base_duration_us": 187500
    },
    {
      "id": "M_505",
      "pitch": 55,
      "t_note_us": 44812500,
      "t_trigger_us": 44676537,
      "is_ai": false,
      "track_id": 0,
      "velocity": 0,
      "is_motor": true,
      "motor_id": 0,
      "accel_val": 2000,
      "base_duration_us": 187500
    },
    {
      "id": "M_506",
      "pitch": 62,
      "t_note_us": 44812500,
      "t_trigger_us": 44676537,
      "is_ai": false,
      "track_id": 0,
      "velocity": 0,
      "is_motor": true,
      "motor_id": 2,
      "accel_val": 2000,
      "base_duration_us": 187500
    },
    {
      "id": "M_507",
      "pitch": 67,
      "t_note_us": 44812500,
      "t_trigger_us": 44676537,
      "is_ai": false,
      "track_id": 0,
      "velocity": 0,
      "is_motor": true,
      "motor_id": 3,
      "accel_val": 2000,
      "base_duration_us": 187500
    },
    {
      "id": "M_509",
      "pitch": 96,
      "t_note_us": 45000000,
      "t_trigger_us": 44864037,
      "is_ai": true,
      "track_id": 10,
      "velocity": 0,
      "is_motor": false,
      "motor_id": 0,
      "accel_val": 2000,
      "base_duration_us": 187500
    },
    {
      "id": "M_508",
      "pitch": 76,
      "t_note_us": 45000000,
      "t_trigger_us": 44864037,
      "is_ai": false,
      "track_id": 0,
      "velocity": 0,
      "is_motor": true,
      "motor_id": 2,
      "accel_val": 2000,
      "base_duration_us": 187500
    },
    {
      "id": "M_510",
      "pitch": 76,
      "t_note_us": 45187500,
      "t_trigger_us": 45051537,
      "is_ai": false,
      "track_id": 0,
      "velocity": 0,
      "is_motor": true,
      "motor_id": 2,
      "accel_val": 2000,
      "base_duration_us": 187500
    },
    {
      "id": "M_511",
      "pitch": 69,
      "t_note_us": 45187500,
      "t_trigger_us": 45051537,
      "is_ai": false,
      "track_id": 0,
      "velocity": 0,
      "is_motor": true,
      "motor_id": 1,
      "accel_val": 2000,
      "base_duration_us": 187500
    },
    {
      "id": "M_512",
      "pitch": 55,
      "t_note_us": 45187500,
      "t_trigger_us": 45051537,
      "is_ai": false,
      "track_id": 0,
      "velocity": 0,
      "is_motor": true,
      "motor_id": 0,
      "accel_val": 2000,
      "base_duration_us": 187500
    },
    {
      "id": "M_513",
      "pitch": 67,
      "t_note_us": 45187500,
      "t_trigger_us": 45051537,
      "is_ai": false,
      "track_id": 0,
      "velocity": 0,
      "is_motor": true,
      "motor_id": 3,
      "accel_val": 2000,
      "base_duration_us": 187500
    },
    {
      "id": "M_514",
      "pitch": 72,
      "t_note_us": 45375000,
      "t_trigger_us": 45239037,
      "is_ai": false,
      "track_id": 0,
      "velocity": 0,
      "is_motor": true,
      "motor_id": 1,
      "accel_val": 2000,
      "base_duration_us": 187500
    },
    {
      "id": "M_515",
      "pitch": 53,
      "t_note_us": 45375000,
      "t_trigger_us": 45239037,
      "is_ai": false,
      "track_id": 0,
      "velocity": 0,
      "is_motor": true,
      "motor_id": 0,
      "accel_val": 2000,
      "base_duration_us": 187500
    },
    {
      "id": "M_516",
      "pitch": 67,
      "t_note_us": 45375000,
      "t_trigger_us": 45239037,
      "is_ai": false,
      "track_id": 0,
      "velocity": 0,
      "is_motor": true,
      "motor_id": 2,
      "accel_val": 2000,
      "base_duration_us": 375000
    },
    {
      "id": "M_517",
      "pitch": 65,
      "t_note_us": 45562500,
      "t_trigger_us": 45426537,
      "is_ai": false,
      "track_id": 0,
      "velocity": 0,
      "is_motor": true,
      "motor_id": 1,
      "accel_val": 2000,
      "base_duration_us": 187500
    },
    {
      "id": "M_518",
      "pitch": 72,
      "t_note_us": 45750000,
      "t_trigger_us": 45614037,
      "is_ai": false,
      "track_id": 0,
      "velocity": 0,
      "is_motor": true,
      "motor_id": 1,
      "accel_val": 2000,
      "base_duration_us": 187500
    },
    {
      "id": "M_519",
      "pitch": 53,
      "t_note_us": 45750000,
      "t_trigger_us": 45614037,
      "is_ai": false,
      "track_id": 0,
      "velocity": 0,
      "is_motor": true,
      "motor_id": 0,
      "accel_val": 2000,
      "base_duration_us": 187500
    },
    {
      "id": "M_520",
      "pitch": 65,
      "t_note_us": 45937500,
      "t_trigger_us": 45801537,
      "is_ai": false,
      "track_id": 0,
      "velocity": 0,
      "is_motor": true,
      "motor_id": 1,
      "accel_val": 2000,
      "base_duration_us": 187500
    },
    {
      "id": "M_521",
      "pitch": 69,
      "t_note_us": 46125000,
      "t_trigger_us": 45989037,
      "is_ai": false,
      "track_id": 0,
      "velocity": 0,
      "is_motor": true,
      "motor_id": 1,
      "accel_val": 2000,
      "base_duration_us": 187500
    },
    {
      "id": "M_522",
      "pitch": 54,
      "t_note_us": 46125000,
      "t_trigger_us": 45989037,
      "is_ai": false,
      "track_id": 0,
      "velocity": 0,
      "is_motor": true,
      "motor_id": 0,
      "accel_val": 2000,
      "base_duration_us": 187500
    },
    {
      "id": "M_523",
      "pitch": 76,
      "t_note_us": 46125000,
      "t_trigger_us": 45989037,
      "is_ai": false,
      "track_id": 0,
      "velocity": 0,
      "is_motor": true,
      "motor_id": 2,
      "accel_val": 2000,
      "base_duration_us": 375000
    },
    {
      "id": "M_524",
      "pitch": 66,
      "t_note_us": 46312500,
      "t_trigger_us": 46176537,
      "is_ai": false,
      "track_id": 0,
      "velocity": 0,
      "is_motor": true,
      "motor_id": 1,
      "accel_val": 2000,
      "base_duration_us": 187500
    },
    {
      "id": "M_525",
      "pitch": 69,
      "t_note_us": 46500000,
      "t_trigger_us": 46364037,
      "is_ai": false,
      "track_id": 0,
      "velocity": 0,
      "is_motor": true,
      "motor_id": 1,
      "accel_val": 2000,
      "base_duration_us": 187500
    },
    {
      "id": "M_526",
      "pitch": 54,
      "t_note_us": 46500000,
      "t_trigger_us": 46364037,
      "is_ai": false,
      "track_id": 0,
      "velocity": 0,
      "is_motor": true,
      "motor_id": 0,
      "accel_val": 2000,
      "base_duration_us": 187500
    },
    {
      "id": "M_527",
      "pitch": 76,
      "t_note_us": 46500000,
      "t_trigger_us": 46364037,
      "is_ai": false,
      "track_id": 0,
      "velocity": 0,
      "is_motor": true,
      "motor_id": 2,
      "accel_val": 2000,
      "base_duration_us": 375000
    },
    {
      "id": "M_528",
      "pitch": 66,
      "t_note_us": 46687500,
      "t_trigger_us": 46551537,
      "is_ai": false,
      "track_id": 0,
      "velocity": 0,
      "is_motor": true,
      "motor_id": 1,
      "accel_val": 2000,
      "base_duration_us": 187500
    },
    {
      "id": "M_529",
      "pitch": 67,
      "t_note_us": 46875000,
      "t_trigger_us": 46739037,
      "is_ai": false,
      "track_id": 0,
      "velocity": 0,
      "is_motor": true,
      "motor_id": 1,
      "accel_val": 2000,
      "base_duration_us": 187500
    },
    {
      "id": "M_530",
      "pitch": 55,
      "t_note_us": 46875000,
      "t_trigger_us": 46739037,
      "is_ai": false,
      "track_id": 0,
      "velocity": 0,
      "is_motor": true,
      "motor_id": 0,
      "accel_val": 2000,
      "base_duration_us": 187500
    },
    {
      "id": "M_531",
      "pitch": 74,
      "t_note_us": 46875000,
      "t_trigger_us": 46739037,
      "is_ai": false,
      "track_id": 0,
      "velocity": 0,
      "is_motor": true,
      "motor_id": 2,
      "accel_val": 2000,
      "base_duration_us": 375000
    },
    {
      "id": "M_532",
      "pitch": 67,
      "t_note_us": 47062500,
      "t_trigger_us": 46926537,
      "is_ai": false,
      "track_id": 0,
      "velocity": 0,
      "is_motor": true,
      "motor_id": 1,
      "accel_val": 2000,
      "base_duration_us": 187500
    },
    {
      "id": "M_533",
      "pitch": 67,
      "t_note_us": 47250000,
      "t_trigger_us": 47114037,
      "is_ai": false,
      "track_id": 0,
      "velocity": 0,
      "is_motor": true,
      "motor_id": 1,
      "accel_val": 2000,
      "base_duration_us": 187500
    },
    {
      "id": "M_534",
      "pitch": 55,
      "t_note_us": 47250000,
      "t_trigger_us": 47114037,
      "is_ai": false,
      "track_id": 0,
      "velocity": 0,
      "is_motor": true,
      "motor_id": 0,
      "accel_val": 2000,
      "base_duration_us": 187500
    },
    {
      "id": "M_535",
      "pitch": 67,
      "t_note_us": 47250000,
      "t_trigger_us": 47114037,
      "is_ai": false,
      "track_id": 0,
      "velocity": 0,
      "is_motor": true,
      "motor_id": 2,
      "accel_val": 2000,
      "base_duration_us": 375000
    },
    {
      "id": "M_536",
      "pitch": 67,
      "t_note_us": 47437500,
      "t_trigger_us": 47301537,
      "is_ai": false,
      "track_id": 0,
      "velocity": 0,
      "is_motor": true,
      "motor_id": 1,
      "accel_val": 2000,
      "base_duration_us": 187500
    },
    {
      "id": "M_537",
      "pitch": 68,
      "t_note_us": 47625000,
      "t_trigger_us": 47489037,
      "is_ai": false,
      "track_id": 0,
      "velocity": 0,
      "is_motor": true,
      "motor_id": 1,
      "accel_val": 2000,
      "base_duration_us": 187500
    },
    {
      "id": "M_538",
      "pitch": 56,
      "t_note_us": 47625000,
      "t_trigger_us": 47489037,
      "is_ai": false,
      "track_id": 0,
      "velocity": 0,
      "is_motor": true,
      "motor_id": 0,
      "accel_val": 2000,
      "base_duration_us": 187500
    },
    {
      "id": "M_539",
      "pitch": 76,
      "t_note_us": 47625000,
      "t_trigger_us": 47489037,
      "is_ai": false,
      "track_id": 0,
      "velocity": 0,
      "is_motor": true,
      "motor_id": 2,
      "accel_val": 2000,
      "base_duration_us": 375000
    },
    {
      "id": "M_540",
      "pitch": 68,
      "t_note_us": 47812500,
      "t_trigger_us": 47676537,
      "is_ai": false,
      "track_id": 0,
      "velocity": 0,
      "is_motor": true,
      "motor_id": 1,
      "accel_val": 2000,
      "base_duration_us": 187500
    },
    {
      "id": "M_541",
      "pitch": 68,
      "t_note_us": 48000000,
      "t_trigger_us": 47864037,
      "is_ai": false,
      "track_id": 0,
      "velocity": 0,
      "is_motor": true,
      "motor_id": 1,
      "accel_val": 2000,
      "base_duration_us": 187500
    },
    {
      "id": "M_542",
      "pitch": 56,
      "t_note_us": 48000000,
      "t_trigger_us": 47864037,
      "is_ai": false,
      "track_id": 0,
      "velocity": 0,
      "is_motor": true,
      "motor_id": 0,
      "accel_val": 2000,
      "base_duration_us": 187500
    },
    {
      "id": "M_543",
      "pitch": 67,
      "t_note_us": 48187500,
      "t_trigger_us": 48051537,
      "is_ai": false,
      "track_id": 0,
      "velocity": 0,
      "is_motor": true,
      "motor_id": 1,
      "accel_val": 2000,
      "base_duration_us": 187500
    },
    {
      "id": "M_544",
      "pitch": 68,
      "t_note_us": 48187500,
      "t_trigger_us": 48051537,
      "is_ai": false,
      "track_id": 0,
      "velocity": 0,
      "is_motor": true,
      "motor_id": 2,
      "accel_val": 2000,
      "base_duration_us": 187500
    },
    {
      "id": "M_545",
      "pitch": 69,
      "t_note_us": 48375000,
      "t_trigger_us": 48239037,
      "is_ai": false,
      "track_id": 0,
      "velocity": 0,
      "is_motor": true,
      "motor_id": 1,
      "accel_val": 2000,
      "base_duration_us": 187500
    },
    {
      "id": "M_546",
      "pitch": 76,
      "t_note_us": 48375000,
      "t_trigger_us": 48239037,
      "is_ai": false,
      "track_id": 0,
      "velocity": 0,
      "is_motor": true,
      "motor_id": 2,
      "accel_val": 2000,
      "base_duration_us": 187500
    },
    {
      "id": "M_547",
      "pitch": 69,
      "t_note_us": 48375000,
      "t_trigger_us": 48239037,
      "is_ai": false,
      "track_id": 0,
      "velocity": 0,
      "is_motor": true,
      "motor_id": 0,
      "accel_val": 2000,
      "base_duration_us": 187500
    },
    {
      "id": "M_548",
      "pitch": 57,
      "t_note_us": 48375000,
      "t_trigger_us": 48239037,
      "is_ai": false,
      "track_id": 0,
      "velocity": 0,
      "is_motor": true,
      "motor_id": 3,
      "accel_val": 2000,
      "base_duration_us": 187500
    },
    {
      "id": "M_549",
      "pitch": 69,
      "t_note_us": 48562500,
      "t_trigger_us": 48426537,
      "is_ai": false,
      "track_id": 0,
      "velocity": 0,
      "is_motor": true,
      "motor_id": 1,
      "accel_val": 2000,
      "base_duration_us": 187500
    },
    {
      "id": "M_550",
      "pitch": 69,
      "t_note_us": 48562500,
      "t_trigger_us": 48426537,
      "is_ai": false,
      "track_id": 0,
      "velocity": 0,
      "is_motor": true,
      "motor_id": 2,
      "accel_val": 2000,
      "base_duration_us": 187500
    },
    {
      "id": "M_551",
      "pitch": 69,
      "t_note_us": 48750000,
      "t_trigger_us": 48614037,
      "is_ai": false,
      "track_id": 0,
      "velocity": 0,
      "is_motor": true,
      "motor_id": 1,
      "accel_val": 2000,
      "base_duration_us": 187500
    },
    {
      "id": "M_552",
      "pitch": 76,
      "t_note_us": 48750000,
      "t_trigger_us": 48614037,
      "is_ai": false,
      "track_id": 0,
      "velocity": 0,
      "is_motor": true,
      "motor_id": 2,
      "accel_val": 2000,
      "base_duration_us": 187500
    },
    {
      "id": "M_553",
      "pitch": 69,
      "t_note_us": 48750000,
      "t_trigger_us": 48614037,
      "is_ai": false,
      "track_id": 0,
      "velocity": 0,
      "is_motor": true,
      "motor_id": 0,
      "accel_val": 2000,
      "base_duration_us": 187500
    },
    {
      "id": "M_554",
      "pitch": 57,
      "t_note_us": 48750000,
      "t_trigger_us": 48614037,
      "is_ai": false,
      "track_id": 0,
      "velocity": 0,
      "is_motor": true,
      "motor_id": 3,
      "accel_val": 2000,
      "base_duration_us": 187500
    },
    {
      "id": "M_555",
      "pitch": 67,
      "t_note_us": 48937500,
      "t_trigger_us": 48801537,
      "is_ai": false,
      "track_id": 0,
      "velocity": 0,
      "is_motor": true,
      "motor_id": 1,
      "accel_val": 2000,
      "base_duration_us": 187500
    },
    {
      "id": "M_556",
      "pitch": 69,
      "t_note_us": 48937500,
      "t_trigger_us": 48801537,
      "is_ai": false,
      "track_id": 0,
      "velocity": 0,
      "is_motor": true,
      "motor_id": 2,
      "accel_val": 2000,
      "base_duration_us": 187500
    },
    {
      "id": "M_557",
      "pitch": 71,
      "t_note_us": 49125000,
      "t_trigger_us": 48989037,
      "is_ai": false,
      "track_id": 0,
      "velocity": 0,
      "is_motor": true,
      "motor_id": 1,
      "accel_val": 2000,
      "base_duration_us": 187500
    },
    {
      "id": "M_558",
      "pitch": 74,
      "t_note_us": 49125000,
      "t_trigger_us": 48989037,
      "is_ai": false,
      "track_id": 0,
      "velocity": 0,
      "is_motor": true,
      "motor_id": 0,
      "accel_val": 2000,
      "base_duration_us": 187500
    },
    {
      "id": "M_559",
      "pitch": 67,
      "t_note_us": 49125000,
      "t_trigger_us": 48989037,
      "is_ai": false,
      "track_id": 0,
      "velocity": 0,
      "is_motor": true,
      "motor_id": 2,
      "accel_val": 2000,
      "base_duration_us": 187500
    },
    {
      "id": "M_560",
      "pitch": 59,
      "t_note_us": 49125000,
      "t_trigger_us": 48989037,
      "is_ai": false,
      "track_id": 0,
      "velocity": 0,
      "is_motor": true,
      "motor_id": 3,
      "accel_val": 2000,
      "base_duration_us": 187500
    },
    {
      "id": "M_561",
      "pitch": 67,
      "t_note_us": 49312500,
      "t_trigger_us": 49176537,
      "is_ai": false,
      "track_id": 0,
      "velocity": 0,
      "is_motor": true,
      "motor_id": 1,
      "accel_val": 2000,
      "base_duration_us": 187500
    },
    {
      "id": "M_562",
      "pitch": 71,
      "t_note_us": 49312500,
      "t_trigger_us": 49176537,
      "is_ai": false,
      "track_id": 0,
      "velocity": 0,
      "is_motor": true,
      "motor_id": 2,
      "accel_val": 2000,
      "base_duration_us": 187500
    },
    {
      "id": "M_563",
      "pitch": 71,
      "t_note_us": 49500000,
      "t_trigger_us": 49364037,
      "is_ai": false,
      "track_id": 0,
      "velocity": 0,
      "is_motor": true,
      "motor_id": 1,
      "accel_val": 2000,
      "base_duration_us": 187500
    },
    {
      "id": "M_564",
      "pitch": 74,
      "t_note_us": 49500000,
      "t_trigger_us": 49364037,
      "is_ai": false,
      "track_id": 0,
      "velocity": 0,
      "is_motor": true,
      "motor_id": 0,
      "accel_val": 2000,
      "base_duration_us": 187500
    },
    {
      "id": "M_565",
      "pitch": 67,
      "t_note_us": 49500000,
      "t_trigger_us": 49364037,
      "is_ai": false,
      "track_id": 0,
      "velocity": 0,
      "is_motor": true,
      "motor_id": 2,
      "accel_val": 2000,
      "base_duration_us": 187500
    },
    {
      "id": "M_566",
      "pitch": 59,
      "t_note_us": 49500000,
      "t_trigger_us": 49364037,
      "is_ai": false,
      "track_id": 0,
      "velocity": 0,
      "is_motor": true,
      "motor_id": 3,
      "accel_val": 2000,
      "base_duration_us": 187500
    },
    {
      "id": "M_567",
      "pitch": 76,
      "t_note_us": 49687500,
      "t_trigger_us": 49551537,
      "is_ai": false,
      "track_id": 0,
      "velocity": 0,
      "is_motor": true,
      "motor_id": 2,
      "accel_val": 2000,
      "base_duration_us": 187500
    },
    {
      "id": "M_568",
      "pitch": 71,
      "t_note_us": 49687500,
      "t_trigger_us": 49551537,
      "is_ai": false,
      "track_id": 0,
      "velocity": 0,
      "is_motor": true,
      "motor_id": 1,
      "accel_val": 2000,
      "base_duration_us": 187500
    },
    {
      "id": "M_569",
      "pitch": 60,
      "t_note_us": 49875000,
      "t_trigger_us": 49739037,
      "is_ai": false,
      "track_id": 0,
      "velocity": 0,
      "is_motor": true,
      "motor_id": 1,
      "accel_val": 2000,
      "base_duration_us": 187500
    },
    {
      "id": "M_570",
      "pitch": 72,
      "t_note_us": 49875000,
      "t_trigger_us": 49739037,
      "is_ai": false,
      "track_id": 0,
      "velocity": 0,
      "is_motor": true,
      "motor_id": 0,
      "accel_val": 2000,
      "base_duration_us": 187500
    },
    {
      "id": "M_571",
      "pitch": 69,
      "t_note_us": 49875000,
      "t_trigger_us": 49739037,
      "is_ai": false,
      "track_id": 0,
      "velocity": 0,
      "is_motor": true,
      "motor_id": 2,
      "accel_val": 2000,
      "base_duration_us": 375000
    },
    {
      "id": "M_572",
      "pitch": 76,
      "t_note_us": 49875000,
      "t_trigger_us": 49739037,
      "is_ai": false,
      "track_id": 0,
      "velocity": 0,
      "is_motor": true,
      "motor_id": 3,
      "accel_val": 2000,
      "base_duration_us": 375000
    },
    {
      "id": "M_573",
      "pitch": 62,
      "t_note_us": 50062500,
      "t_trigger_us": 49926537,
      "is_ai": false,
      "track_id": 0,
      "velocity": 0,
      "is_motor": true,
      "motor_id": 1,
      "accel_val": 2000,
      "base_duration_us": 187500
    },
    {
      "id": "M_574",
      "pitch": 74,
      "t_note_us": 50062500,
      "t_trigger_us": 49926537,
      "is_ai": false,
      "track_id": 0,
      "velocity": 0,
      "is_motor": true,
      "motor_id": 0,
      "accel_val": 2000,
      "base_duration_us": 187500
    },
    {
      "id": "M_575",
      "pitch": 67,
      "t_note_us": 50250000,
      "t_trigger_us": 50114037,
      "is_ai": false,
      "track_id": 0,
      "velocity": 0,
      "is_motor": true,
      "motor_id": 1,
      "accel_val": 2000,
      "base_duration_us": 187500
    },
    {
      "id": "M_576",
      "pitch": 60,
      "t_note_us": 50250000,
      "t_trigger_us": 50114037,
      "is_ai": false,
      "track_id": 0,
      "velocity": 0,
      "is_motor": true,
      "motor_id": 0,
      "accel_val": 2000,
      "base_duration_us": 187500
    },
    {
      "id": "M_577",
      "pitch": 72,
      "t_note_us": 50250000,
      "t_trigger_us": 50114037,
      "is_ai": false,
      "track_id": 0,
      "velocity": 0,
      "is_motor": true,
      "motor_id": 2,
      "accel_val": 2000,
      "base_duration_us": 187500
    },
    {
      "id": "M_578",
      "pitch": 76,
      "t_note_us": 50437500,
      "t_trigger_us": 50301537,
      "is_ai": false,
      "track_id": 0,
      "velocity": 0,
      "is_motor": true,
      "motor_id": 2,
      "accel_val": 2000,
      "base_duration_us": 187500
    },
    {
      "id": "M_579",
      "pitch": 55,
      "t_note_us": 50437500,
      "t_trigger_us": 50301537,
      "is_ai": false,
      "track_id": 0,
      "velocity": 0,
      "is_motor": true,
      "motor_id": 0,
      "accel_val": 2000,
      "base_duration_us": 187500
    },
    {
      "id": "M_580",
      "pitch": 67,
      "t_note_us": 50437500,
      "t_trigger_us": 50301537,
      "is_ai": false,
      "track_id": 0,
      "velocity": 0,
      "is_motor": true,
      "motor_id": 1,
      "accel_val": 2000,
      "base_duration_us": 187500
    },
    {
      "id": "M_581",
      "pitch": 72,
      "t_note_us": 50625000,
      "t_trigger_us": 50489037,
      "is_ai": false,
      "track_id": 0,
      "velocity": 0,
      "is_motor": true,
      "motor_id": 1,
      "accel_val": 2000,
      "base_duration_us": 187500
    },
    {
      "id": "M_582",
      "pitch": 67,
      "t_note_us": 50625000,
      "t_trigger_us": 50489037,
      "is_ai": false,
      "track_id": 0,
      "velocity": 0,
      "is_motor": true,
      "motor_id": 2,
      "accel_val": 2000,
      "base_duration_us": 187500
    },
    {
      "id": "M_583",
      "pitch": 69,
      "t_note_us": 50812500,
      "t_trigger_us": 50676537,
      "is_ai": false,
      "track_id": 0,
      "velocity": 0,
      "is_motor": true,
      "motor_id": 1,
      "accel_val": 2000,
      "base_duration_us": 187500
    },
    {
      "id": "M_586",
      "pitch": 55,
      "t_note_us": 50812500,
      "t_trigger_us": 50676537,
      "is_ai": false,
      "track_id": 0,
      "velocity": 0,
      "is_motor": true,
      "motor_id": 0,
      "accel_val": 2000,
      "base_duration_us": 562500
    },
    {
      "id": "M_587",
      "pitch": 62,
      "t_note_us": 50812500,
      "t_trigger_us": 50676537,
      "is_ai": false,
      "track_id": 0,
      "velocity": 0,
      "is_motor": true,
      "motor_id": 2,
      "accel_val": 2000,
      "base_duration_us": 562500
    },
    {
      "id": "M_588",
      "pitch": 67,
      "t_note_us": 50812500,
      "t_trigger_us": 50676537,
      "is_ai": false,
      "track_id": 0,
      "velocity": 0,
      "is_motor": true,
      "motor_id": 3,
      "accel_val": 2000,
      "base_duration_us": 562500
    },
    {
      "id": "M_584",
      "pitch": 76,
      "t_note_us": 51000000,
      "t_trigger_us": 50864037,
      "is_ai": false,
      "track_id": 0,
      "velocity": 0,
      "is_motor": true,
      "motor_id": 1,
      "accel_val": 2000,
      "base_duration_us": 375000
    },
    {
      "id": "M_585",
      "pitch": 72,
      "t_note_us": 51000000,
      "t_trigger_us": 50864037,
      "is_ai": false,
      "track_id": 0,
      "velocity": 0,
      "is_motor": true,
      "motor_id": 0,
      "accel_val": 2000,
      "base_duration_us": 375000
    },
    {
      "id": "M_589",
      "pitch": 69,
      "t_note_us": 51375000,
      "t_trigger_us": 51239037,
      "is_ai": false,
      "track_id": 0,
      "velocity": 0,
      "is_motor": true,
      "motor_id": 1,
      "accel_val": 2000,
      "base_duration_us": 187500
    },
    {
      "id": "M_590",
      "pitch": 72,
      "t_note_us": 51375000,
      "t_trigger_us": 51239037,
      "is_ai": false,
      "track_id": 0,
      "velocity": 0,
      "is_motor": true,
      "motor_id": 0,
      "accel_val": 2000,
      "base_duration_us": 187500
    },
    {
      "id": "M_591",
      "pitch": 77,
      "t_note_us": 51375000,
      "t_trigger_us": 51239037,
      "is_ai": false,
      "track_id": 0,
      "velocity": 0,
      "is_motor": true,
      "motor_id": 2,
      "accel_val": 2000,
      "base_duration_us": 187500
    },
    {
      "id": "M_592",
      "pitch": 53,
      "t_note_us": 51375000,
      "t_trigger_us": 51239037,
      "is_ai": false,
      "track_id": 0,
      "velocity": 0,
      "is_motor": true,
      "motor_id": 3,
      "accel_val": 2000,
      "base_duration_us": 187500
    },
    {
      "id": "M_593",
      "pitch": 65,
      "t_note_us": 51375000,
      "t_trigger_us": 51239037,
      "is_ai": false,
      "track_id": 0,
      "velocity": 0,
      "is_motor": true,
      "motor_id": 0,
      "accel_val": 2000,
      "base_duration_us": 187500
    },
    {
      "id": "M_594",
      "pitch": 69,
      "t_note_us": 51375000,
      "t_trigger_us": 51239037,
      "is_ai": false,
      "track_id": 0,
      "velocity": 0,
      "is_motor": true,
      "motor_id": 0,
      "accel_val": 2000,
      "base_duration_us": 375000
    },
    {
      "id": "M_595",
      "pitch": 69,
      "t_note_us": 51750000,
      "t_trigger_us": 51614037,
      "is_ai": false,
      "track_id": 0,
      "velocity": 0,
      "is_motor": true,
      "motor_id": 1,
      "accel_val": 2000,
      "base_duration_us": 187500
    },
    {
      "id": "M_596",
      "pitch": 72,
      "t_note_us": 51750000,
      "t_trigger_us": 51614037,
      "is_ai": false,
      "track_id": 0,
      "velocity": 0,
      "is_motor": true,
      "motor_id": 0,
      "accel_val": 2000,
      "base_duration_us": 187500
    },
    {
      "id": "M_597",
      "pitch": 77,
      "t_note_us": 51750000,
      "t_trigger_us": 51614037,
      "is_ai": false,
      "track_id": 0,
      "velocity": 0,
      "is_motor": true,
      "motor_id": 2,
      "accel_val": 2000,
      "base_duration_us": 187500
    },
    {
      "id": "M_602",
      "pitch": 53,
      "t_note_us": 51750000,
      "t_trigger_us": 51614037,
      "is_ai": false,
      "track_id": 0,
      "velocity": 0,
      "is_motor": true,
      "motor_id": 3,
      "accel_val": 2000,
      "base_duration_us": 750000
    },
    {
      "id": "M_603",
      "pitch": 60,
      "t_note_us": 51750000,
      "t_trigger_us": 51614037,
      "is_ai": false,
      "track_id": 0,
      "velocity": 0,
      "is_motor": true,
      "motor_id": 0,
      "accel_val": 2000,
      "base_duration_us": 750000
    },
    {
      "id": "M_604",
      "pitch": 65,
      "t_note_us": 51750000,
      "t_trigger_us": 51614037,
      "is_ai": false,
      "track_id": 0,
      "velocity": 0,
      "is_motor": true,
      "motor_id": 0,
      "accel_val": 2000,
      "base_duration_us": 750000
    },
    {
      "id": "M_598",
      "pitch": 98,
      "t_note_us": 52125000,
      "t_trigger_us": 51989037,
      "is_ai": true,
      "track_id": 11,
      "velocity": 0,
      "is_motor": false,
      "motor_id": 0,
      "accel_val": 2000,
      "base_duration_us": 187500
    },
    {
      "id": "M_599",
      "pitch": 69,
      "t_note_us": 52125000,
      "t_trigger_us": 51989037,
      "is_ai": false,
      "track_id": 0,
      "velocity": 0,
      "is_motor": true,
      "motor_id": 1,
      "accel_val": 2000,
      "base_duration_us": 187500
    },
    {
      "id": "M_600",
      "pitch": 74,
      "t_note_us": 52312500,
      "t_trigger_us": 52176537,
      "is_ai": false,
      "track_id": 0,
      "velocity": 0,
      "is_motor": true,
      "motor_id": 1,
      "accel_val": 2000,
      "base_duration_us": 187500
    },
    {
      "id": "M_601",
      "pitch": 69,
      "t_note_us": 52312500,
      "t_trigger_us": 52176537,
      "is_ai": false,
      "track_id": 0,
      "velocity": 0,
      "is_motor": true,
      "motor_id": 2,
      "accel_val": 2000,
      "base_duration_us": 187500
    },
    {
      "id": "M_607",
      "pitch": 69,
      "t_note_us": 52500000,
      "t_trigger_us": 52364037,
      "is_ai": false,
      "track_id": 0,
      "velocity": 0,
      "is_motor": true,
      "motor_id": 1,
      "accel_val": 2000,
      "base_duration_us": 375000
    },
    {
      "id": "M_605",
      "pitch": 98,
      "t_note_us": 52687500,
      "t_trigger_us": 52551537,
      "is_ai": true,
      "track_id": 11,
      "velocity": 0,
      "is_motor": false,
      "motor_id": 0,
      "accel_val": 2000,
      "base_duration_us": 187500
    },
    {
      "id": "M_606",
      "pitch": 69,
      "t_note_us": 52687500,
      "t_trigger_us": 52551537,
      "is_ai": false,
      "track_id": 0,
      "velocity": 0,
      "is_motor": true,
      "motor_id": 2,
      "accel_val": 2000,
      "base_duration_us": 187500
    },
    {
      "id": "M_608",
      "pitch": 71,
      "t_note_us": 52875000,
      "t_trigger_us": 52739037,
      "is_ai": false,
      "track_id": 0,
      "velocity": 0,
      "is_motor": true,
      "motor_id": 1,
      "accel_val": 2000,
      "base_duration_us": 187500
    },
    {
      "id": "M_609",
      "pitch": 74,
      "t_note_us": 52875000,
      "t_trigger_us": 52739037,
      "is_ai": false,
      "track_id": 0,
      "velocity": 0,
      "is_motor": true,
      "motor_id": 0,
      "accel_val": 2000,
      "base_duration_us": 187500
    },
    {
      "id": "M_610",
      "pitch": 55,
      "t_note_us": 52875000,
      "t_trigger_us": 52739037,
      "is_ai": false,
      "track_id": 0,
      "velocity": 0,
      "is_motor": true,
      "motor_id": 2,
      "accel_val": 2000,
      "base_duration_us": 187500
    },
    {
      "id": "M_611",
      "pitch": 67,
      "t_note_us": 52875000,
      "t_trigger_us": 52739037,
      "is_ai": false,
      "track_id": 0,
      "velocity": 0,
      "is_motor": true,
      "motor_id": 3,
      "accel_val": 2000,
      "base_duration_us": 187500
    },
    {
      "id": "M_612",
      "pitch": 67,
      "t_note_us": 52875000,
      "t_trigger_us": 52739037,
      "is_ai": false,
      "track_id": 0,
      "velocity": 0,
      "is_motor": true,
      "motor_id": 0,
      "accel_val": 2000,
      "base_duration_us": 375000
    },
    {
      "id": "M_613",
      "pitch": 71,
      "t_note_us": 53250000,
      "t_trigger_us": 53114037,
      "is_ai": false,
      "track_id": 0,
      "velocity": 0,
      "is_motor": true,
      "motor_id": 1,
      "accel_val": 2000,
      "base_duration_us": 187500
    },
    {
      "id": "M_614",
      "pitch": 74,
      "t_note_us": 53250000,
      "t_trigger_us": 53114037,
      "is_ai": false,
      "track_id": 0,
      "velocity": 0,
      "is_motor": true,
      "motor_id": 0,
      "accel_val": 2000,
      "base_duration_us": 187500
    },
    {
      "id": "M_615",
      "pitch": 69,
      "t_note_us": 53250000,
      "t_trigger_us": 53114037,
      "is_ai": false,
      "track_id": 0,
      "velocity": 0,
      "is_motor": true,
      "motor_id": 2,
      "accel_val": 2000,
      "base_duration_us": 375000
    },
    {
      "id": "M_618",
      "pitch": 55,
      "t_note_us": 53250000,
      "t_trigger_us": 53114037,
      "is_ai": false,
      "track_id": 0,
      "velocity": 0,
      "is_motor": true,
      "motor_id": 3,
      "accel_val": 2000,
      "base_duration_us": 750000
    },
    {
      "id": "M_619",
      "pitch": 62,
      "t_note_us": 53250000,
      "t_trigger_us": 53114037,
      "is_ai": false,
      "track_id": 0,
      "velocity": 0,
      "is_motor": true,
      "motor_id": 0,
      "accel_val": 2000,
      "base_duration_us": 750000
    },
    {
      "id": "M_620",
      "pitch": 67,
      "t_note_us": 53250000,
      "t_trigger_us": 53114037,
      "is_ai": false,
      "track_id": 0,
      "velocity": 0,
      "is_motor": true,
      "motor_id": 0,
      "accel_val": 2000,
      "base_duration_us": 750000
    },
    {
      "id": "M_616",
      "pitch": 74,
      "t_note_us": 53625000,
      "t_trigger_us": 53489037,
      "is_ai": false,
      "track_id": 0,
      "velocity": 0,
      "is_motor": true,
      "motor_id": 1,
      "accel_val": 2000,
      "base_duration_us": 375000
    },
    {
      "id": "M_617",
      "pitch": 67,
      "t_note_us": 53625000,
      "t_trigger_us": 53489037,
      "is_ai": false,
      "track_id": 0,
      "velocity": 0,
      "is_motor": true,
      "motor_id": 2,
      "accel_val": 2000,
      "base_duration_us": 375000
    },
    {
      "id": "M_621",
      "pitch": 69,
      "t_note_us": 54000000,
      "t_trigger_us": 53864037,
      "is_ai": false,
      "track_id": 0,
      "velocity": 0,
      "is_motor": true,
      "motor_id": 1,
      "accel_val": 2000,
      "base_duration_us": 187500
    },
    {
      "id": "M_622",
      "pitch": 67,
      "t_note_us": 54375000,
      "t_trigger_us": 54239037,
      "is_ai": false,
      "track_id": 0,
      "velocity": 0,
      "is_motor": true,
      "motor_id": 1,
      "accel_val": 2000,
      "base_duration_us": 187500
    },
    {
      "id": "M_623",
      "pitch": 72,
      "t_note_us": 54375000,
      "t_trigger_us": 54239037,
      "is_ai": false,
      "track_id": 0,
      "velocity": 0,
      "is_motor": true,
      "motor_id": 0,
      "accel_val": 2000,
      "base_duration_us": 187500
    },
    {
      "id": "M_624",
      "pitch": 50,
      "t_note_us": 54375000,
      "t_trigger_us": 54239037,
      "is_ai": false,
      "track_id": 0,
      "velocity": 0,
      "is_motor": true,
      "motor_id": 2,
      "accel_val": 2000,
      "base_duration_us": 187500
    },
    {
      "id": "M_629",
      "pitch": 72,
      "t_note_us": 54375000,
      "t_trigger_us": 54239037,
      "is_ai": false,
      "track_id": 0,
      "velocity": 0,
      "is_motor": true,
      "motor_id": 3,
      "accel_val": 2000,
      "base_duration_us": 750000
    },
    {
      "id": "M_625",
      "pitch": 69,
      "t_note_us": 54562500,
      "t_trigger_us": 54426537,
      "is_ai": false,
      "track_id": 0,
      "velocity": 0,
      "is_motor": true,
      "motor_id": 1,
      "accel_val": 2000,
      "base_duration_us": 187500
    },
    {
      "id": "M_626",
      "pitch": 62,
      "t_note_us": 54562500,
      "t_trigger_us": 54426537,
      "is_ai": false,
      "track_id": 0,
      "velocity": 0,
      "is_motor": true,
      "motor_id": 0,
      "accel_val": 2000,
      "base_duration_us": 187500
    },
    {
      "id": "M_627",
      "pitch": 69,
      "t_note_us": 54750000,
      "t_trigger_us": 54614037,
      "is_ai": false,
      "track_id": 0,
      "velocity": 0,
      "is_motor": true,
      "motor_id": 1,
      "accel_val": 2000,
      "base_duration_us": 187500
    },
    {
      "id": "M_628",
      "pitch": 50,
      "t_note_us": 54750000,
      "t_trigger_us": 54614037,
      "is_ai": false,
      "track_id": 0,
      "velocity": 0,
      "is_motor": true,
      "motor_id": 0,
      "accel_val": 2000,
      "base_duration_us": 187500
    },
    {
      "id": "M_630",
      "pitch": 62,
      "t_note_us": 54937500,
      "t_trigger_us": 54801537,
      "is_ai": false,
      "track_id": 0,
      "velocity": 0,
      "is_motor": true,
      "motor_id": 1,
      "accel_val": 2000,
      "base_duration_us": 187500
    },
    {
      "id": "M_631",
      "pitch": 76,
      "t_note_us": 54937500,
      "t_trigger_us": 54801537,
      "is_ai": false,
      "track_id": 0,
      "velocity": 0,
      "is_motor": true,
      "motor_id": 2,
      "accel_val": 2000,
      "base_duration_us": 375000
    },
    {
      "id": "M_632",
      "pitch": 67,
      "t_note_us": 54937500,
      "t_trigger_us": 54801537,
      "is_ai": false,
      "track_id": 0,
      "velocity": 0,
      "is_motor": true,
      "motor_id": 0,
      "accel_val": 2000,
      "base_duration_us": 375000
    },
    {
      "id": "M_633",
      "pitch": 52,
      "t_note_us": 55125000,
      "t_trigger_us": 54989037,
      "is_ai": false,
      "track_id": 0,
      "velocity": 0,
      "is_motor": true,
      "motor_id": 1,
      "accel_val": 2000,
      "base_duration_us": 187500
    },
    {
      "id": "M_636",
      "pitch": 74,
      "t_note_us": 55125000,
      "t_trigger_us": 54989037,
      "is_ai": false,
      "track_id": 0,
      "velocity": 0,
      "is_motor": true,
      "motor_id": 3,
      "accel_val": 2000,
      "base_duration_us": 562500
    },
    {
      "id": "M_634",
      "pitch": 64,
      "t_note_us": 55312500,
      "t_trigger_us": 55176537,
      "is_ai": false,
      "track_id": 0,
      "velocity": 0,
      "is_motor": true,
      "motor_id": 1,
      "accel_val": 2000,
      "base_duration_us": 187500
    },
    {
      "id": "M_635",
      "pitch": 76,
      "t_note_us": 55312500,
      "t_trigger_us": 55176537,
      "is_ai": false,
      "track_id": 0,
      "velocity": 0,
      "is_motor": true,
      "motor_id": 2,
      "accel_val": 2000,
      "base_duration_us": 375000
    },
    {
      "id": "M_637",
      "pitch": 52,
      "t_note_us": 55500000,
      "t_trigger_us": 55364037,
      "is_ai": false,
      "track_id": 0,
      "velocity": 0,
      "is_motor": true,
      "motor_id": 0,
      "accel_val": 2000,
      "base_duration_us": 187500
    },
    {
      "id": "M_638",
      "pitch": 75,
      "t_note_us": 55687500,
      "t_trigger_us": 55551537,
      "is_ai": false,
      "track_id": 0,
      "velocity": 0,
      "is_motor": true,
      "motor_id": 2,
      "accel_val": 2000,
      "base_duration_us": 187500
    },
    {
      "id": "M_639",
      "pitch": 64,
      "t_note_us": 55687500,
      "t_trigger_us": 55551537,
      "is_ai": false,
      "track_id": 0,
      "velocity": 0,
      "is_motor": true,
      "motor_id": 1,
      "accel_val": 2000,
      "base_duration_us": 187500
    },
    {
      "id": "M_641",
      "pitch": 67,
      "t_note_us": 55687500,
      "t_trigger_us": 55551537,
      "is_ai": false,
      "track_id": 0,
      "velocity": 0,
      "is_motor": true,
      "motor_id": 0,
      "accel_val": 2000,
      "base_duration_us": 375000
    },
    {
      "id": "M_640",
      "pitch": 74,
      "t_note_us": 55875000,
      "t_trigger_us": 55739037,
      "is_ai": false,
      "track_id": 0,
      "velocity": 0,
      "is_motor": true,
      "motor_id": 1,
      "accel_val": 2000,
      "base_duration_us": 187500
    },
    {
      "id": "M_642",
      "pitch": 57,
      "t_note_us": 55875000,
      "t_trigger_us": 55739037,
      "is_ai": false,
      "track_id": 0,
      "velocity": 0,
      "is_motor": true,
      "motor_id": 2,
      "accel_val": 2000,
      "base_duration_us": 187500
    },
    {
      "id": "M_643",
      "pitch": 72,
      "t_note_us": 56062500,
      "t_trigger_us": 55926537,
      "is_ai": false,
      "track_id": 0,
      "velocity": 0,
      "is_motor": true,
      "motor_id": 1,
      "accel_val": 2000,
      "base_duration_us": 187500
    },
    {
      "id": "M_644",
      "pitch": 69,
      "t_note_us": 56062500,
      "t_trigger_us": 55926537,
      "is_ai": false,
      "track_id": 0,
      "velocity": 0,
      "is_motor": true,
      "motor_id": 2,
      "accel_val": 2000,
      "base_duration_us": 187500
    },
    {
      "id": "M_645",
      "pitch": 69,
      "t_note_us": 56062500,
      "t_trigger_us": 55926537,
      "is_ai": false,
      "track_id": 0,
      "velocity": 0,
      "is_motor": true,
      "motor_id": 0,
      "accel_val": 2000,
      "base_duration_us": 187500
    },
    {
      "id": "M_646",
      "pitch": 69,
      "t_note_us": 56250000,
      "t_trigger_us": 56114037,
      "is_ai": false,
      "track_id": 0,
      "velocity": 0,
      "is_motor": true,
      "motor_id": 1,
      "accel_val": 2000,
      "base_duration_us": 187500
    },
    {
      "id": "M_647",
      "pitch": 76,
      "t_note_us": 56250000,
      "t_trigger_us": 56114037,
      "is_ai": false,
      "track_id": 0,
      "velocity": 0,
      "is_motor": true,
      "motor_id": 2,
      "accel_val": 2000,
      "base_duration_us": 187500
    },
    {
      "id": "M_648",
      "pitch": 69,
      "t_note_us": 56250000,
      "t_trigger_us": 56114037,
      "is_ai": false,
      "track_id": 0,
      "velocity": 0,
      "is_motor": true,
      "motor_id": 0,
      "accel_val": 2000,
      "base_duration_us": 187500
    },
    {
      "id": "M_649",
      "pitch": 57,
      "t_note_us": 56250000,
      "t_trigger_us": 56114037,
      "is_ai": false,
      "track_id": 0,
      "velocity": 0,
      "is_motor": true,
      "motor_id": 3,
      "accel_val": 2000,
      "base_duration_us": 187500
    },
    {
      "id": "M_650",
      "pitch": 67,
      "t_note_us": 56437500,
      "t_trigger_us": 56301537,
      "is_ai": false,
      "track_id": 0,
      "velocity": 0,
      "is_motor": true,
      "motor_id": 1,
      "accel_val": 2000,
      "base_duration_us": 187500
    },
    {
      "id": "M_651",
      "pitch": 67,
      "t_note_us": 56437500,
      "t_trigger_us": 56301537,
      "is_ai": false,
      "track_id": 0,
      "velocity": 0,
      "is_motor": true,
      "motor_id": 2,
      "accel_val": 2000,
      "base_duration_us": 187500
    },
    {
      "id": "M_652",
      "pitch": 69,
      "t_note_us": 56437500,
      "t_trigger_us": 56301537,
      "is_ai": false,
      "track_id": 0,
      "velocity": 0,
      "is_motor": true,
      "motor_id": 0,
      "accel_val": 2000,
      "base_duration_us": 187500
    },
    {
      "id": "M_653",
      "pitch": 55,
      "t_note_us": 56625000,
      "t_trigger_us": 56489037,
      "is_ai": false,
      "track_id": 0,
      "velocity": 0,
      "is_motor": true,
      "motor_id": 0,
      "accel_val": 2000,
      "base_duration_us": 187500
    },
    {
      "id": "M_654",
      "pitch": 69,
      "t_note_us": 56625000,
      "t_trigger_us": 56489037,
      "is_ai": false,
      "track_id": 0,
      "velocity": 0,
      "is_motor": true,
      "motor_id": 1,
      "accel_val": 2000,
      "base_duration_us": 375000
    },
    {
      "id": "M_655",
      "pitch": 76,
      "t_note_us": 56625000,
      "t_trigger_us": 56489037,
      "is_ai": false,
      "track_id": 0,
      "velocity": 0,
      "is_motor": true,
      "motor_id": 2,
      "accel_val": 2000,
      "base_duration_us": 375000
    },
    {
      "id": "M_656",
      "pitch": 69,
      "t_note_us": 56625000,
      "t_trigger_us": 56489037,
      "is_ai": false,
      "track_id": 0,
      "velocity": 0,
      "is_motor": true,
      "motor_id": 3,
      "accel_val": 2000,
      "base_duration_us": 375000
    },
    {
      "id": "M_657",
      "pitch": 67,
      "t_note_us": 56812500,
      "t_trigger_us": 56676537,
      "is_ai": false,
      "track_id": 0,
      "velocity": 0,
      "is_motor": true,
      "motor_id": 0,
      "accel_val": 2000,
      "base_duration_us": 187500
    },
    {
      "id": "M_658",
      "pitch": 74,
      "t_note_us": 57000000,
      "t_trigger_us": 56864037,
      "is_ai": false,
      "track_id": 0,
      "velocity": 0,
      "is_motor": true,
      "motor_id": 1,
      "accel_val": 2000,
      "base_duration_us": 187500
    },
    {
      "id": "M_659",
      "pitch": 67,
      "t_note_us": 57000000,
      "t_trigger_us": 56864037,
      "is_ai": false,
      "track_id": 0,
      "velocity": 0,
      "is_motor": true,
      "motor_id": 2,
      "accel_val": 2000,
      "base_duration_us": 187500
    },
    {
      "id": "M_660",
      "pitch": 55,
      "t_note_us": 57000000,
      "t_trigger_us": 56864037,
      "is_ai": false,
      "track_id": 0,
      "velocity": 0,
      "is_motor": true,
      "motor_id": 0,
      "accel_val": 2000,
      "base_duration_us": 187500
    },
    {
      "id": "M_661",
      "pitch": 76,
      "t_note_us": 57187500,
      "t_trigger_us": 57051537,
      "is_ai": false,
      "track_id": 0,
      "velocity": 0,
      "is_motor": true,
      "motor_id": 2,
      "accel_val": 2000,
      "base_duration_us": 187500
    },
    {
      "id": "M_662",
      "pitch": 67,
      "t_note_us": 57187500,
      "t_trigger_us": 57051537,
      "is_ai": false,
      "track_id": 0,
      "velocity": 0,
      "is_motor": true,
      "motor_id": 1,
      "accel_val": 2000,
      "base_duration_us": 187500
    },
    {
      "id": "M_663",
      "pitch": 77,
      "t_note_us": 57375000,
      "t_trigger_us": 57239037,
      "is_ai": false,
      "track_id": 0,
      "velocity": 0,
      "is_motor": true,
      "motor_id": 2,
      "accel_val": 2000,
      "base_duration_us": 187500
    },
    {
      "id": "M_664",
      "pitch": 69,
      "t_note_us": 57375000,
      "t_trigger_us": 57239037,
      "is_ai": false,
      "track_id": 0,
      "velocity": 0,
      "is_motor": true,
      "motor_id": 1,
      "accel_val": 2000,
      "base_duration_us": 187500
    },
    {
      "id": "M_665",
      "pitch": 77,
      "t_note_us": 57375000,
      "t_trigger_us": 57239037,
      "is_ai": false,
      "track_id": 0,
      "velocity": 0,
      "is_motor": true,
      "motor_id": 3,
      "accel_val": 2000,
      "base_duration_us": 187500
    },
    {
      "id": "M_666",
      "pitch": 53,
      "t_note_us": 57375000,
      "t_trigger_us": 57239037,
      "is_ai": false,
      "track_id": 0,
      "velocity": 0,
      "is_motor": true,
      "motor_id": 0,
      "accel_val": 2000,
      "base_duration_us": 187500
    },
    {
      "id": "M_667",
      "pitch": 65,
      "t_note_us": 57375000,
      "t_trigger_us": 57239037,
      "is_ai": false,
      "track_id": 0,
      "velocity": 0,
      "is_motor": true,
      "motor_id": 0,
      "accel_val": 2000,
      "base_duration_us": 187500
    },
    {
      "id": "M_668",
      "pitch": 74,
      "t_note_us": 57375000,
      "t_trigger_us": 57239037,
      "is_ai": false,
      "track_id": 0,
      "velocity": 0,
      "is_motor": true,
      "motor_id": 0,
      "accel_val": 2000,
      "base_duration_us": 375000
    },
    {
      "id": "M_669",
      "pitch": 77,
      "t_note_us": 57750000,
      "t_trigger_us": 57614037,
      "is_ai": false,
      "track_id": 0,
      "velocity": 0,
      "is_motor": true,
      "motor_id": 2,
      "accel_val": 2000,
      "base_duration_us": 187500
    },
    {
      "id": "M_670",
      "pitch": 69,
      "t_note_us": 57750000,
      "t_trigger_us": 57614037,
      "is_ai": false,
      "track_id": 0,
      "velocity": 0,
      "is_motor": true,
      "motor_id": 1,
      "accel_val": 2000,
      "base_duration_us": 187500
    },
    {
      "id": "M_671",
      "pitch": 77,
      "t_note_us": 57750000,
      "t_trigger_us": 57614037,
      "is_ai": false,
      "track_id": 0,
      "velocity": 0,
      "is_motor": true,
      "motor_id": 3,
      "accel_val": 2000,
      "base_duration_us": 187500
    },
    {
      "id": "M_676",
      "pitch": 53,
      "t_note_us": 57750000,
      "t_trigger_us": 57614037,
      "is_ai": false,
      "track_id": 0,
      "velocity": 0,
      "is_motor": true,
      "motor_id": 0,
      "accel_val": 2000,
      "base_duration_us": 750000
    },
    {
      "id": "M_677",
      "pitch": 60,
      "t_note_us": 57750000,
      "t_trigger_us": 57614037,
      "is_ai": false,
      "track_id": 0,
      "velocity": 0,
      "is_motor": true,
      "motor_id": 0,
      "accel_val": 2000,
      "base_duration_us": 750000
    },
    {
      "id": "M_678",
      "pitch": 65,
      "t_note_us": 57750000,
      "t_trigger_us": 57614037,
      "is_ai": false,
      "track_id": 0,
      "velocity": 0,
      "is_motor": true,
      "motor_id": 0,
      "accel_val": 2000,
      "base_duration_us": 750000
    },
    {
      "id": "M_672",
      "pitch": 98,
      "t_note_us": 58125000,
      "t_trigger_us": 57989037,
      "is_ai": true,
      "track_id": 11,
      "velocity": 0,
      "is_motor": false,
      "motor_id": 0,
      "accel_val": 2000,
      "base_duration_us": 187500
    },
    {
      "id": "M_673",
      "pitch": 69,
      "t_note_us": 58125000,
      "t_trigger_us": 57989037,
      "is_ai": false,
      "track_id": 0,
      "velocity": 0,
      "is_motor": true,
      "motor_id": 1,
      "accel_val": 2000,
      "base_duration_us": 187500
    },
    {
      "id": "M_674",
      "pitch": 74,
      "t_note_us": 58312500,
      "t_trigger_us": 58176537,
      "is_ai": false,
      "track_id": 0,
      "velocity": 0,
      "is_motor": true,
      "motor_id": 1,
      "accel_val": 2000,
      "base_duration_us": 187500
    },
    {
      "id": "M_675",
      "pitch": 69,
      "t_note_us": 58312500,
      "t_trigger_us": 58176537,
      "is_ai": false,
      "track_id": 0,
      "velocity": 0,
      "is_motor": true,
      "motor_id": 2,
      "accel_val": 2000,
      "base_duration_us": 187500
    },
    {
      "id": "M_681",
      "pitch": 69,
      "t_note_us": 58500000,
      "t_trigger_us": 58364037,
      "is_ai": false,
      "track_id": 0,
      "velocity": 0,
      "is_motor": true,
      "motor_id": 1,
      "accel_val": 2000,
      "base_duration_us": 375000
    },
    {
      "id": "M_679",
      "pitch": 98,
      "t_note_us": 58687500,
      "t_trigger_us": 58551537,
      "is_ai": true,
      "track_id": 11,
      "velocity": 0,
      "is_motor": false,
      "motor_id": 0,
      "accel_val": 2000,
      "base_duration_us": 187500
    },
    {
      "id": "M_680",
      "pitch": 69,
      "t_note_us": 58687500,
      "t_trigger_us": 58551537,
      "is_ai": false,
      "track_id": 0,
      "velocity": 0,
      "is_motor": true,
      "motor_id": 2,
      "accel_val": 2000,
      "base_duration_us": 187500
    },
    {
      "id": "M_682",
      "pitch": 71,
      "t_note_us": 58875000,
      "t_trigger_us": 58739037,
      "is_ai": false,
      "track_id": 0,
      "velocity": 0,
      "is_motor": true,
      "motor_id": 1,
      "accel_val": 2000,
      "base_duration_us": 187500
    },
    {
      "id": "M_683",
      "pitch": 74,
      "t_note_us": 58875000,
      "t_trigger_us": 58739037,
      "is_ai": false,
      "track_id": 0,
      "velocity": 0,
      "is_motor": true,
      "motor_id": 0,
      "accel_val": 2000,
      "base_duration_us": 187500
    },
    {
      "id": "M_684",
      "pitch": 55,
      "t_note_us": 58875000,
      "t_trigger_us": 58739037,
      "is_ai": false,
      "track_id": 0,
      "velocity": 0,
      "is_motor": true,
      "motor_id": 2,
      "accel_val": 2000,
      "base_duration_us": 187500
    },
    {
      "id": "M_685",
      "pitch": 67,
      "t_note_us": 58875000,
      "t_trigger_us": 58739037,
      "is_ai": false,
      "track_id": 0,
      "velocity": 0,
      "is_motor": true,
      "motor_id": 3,
      "accel_val": 2000,
      "base_duration_us": 187500
    },
    {
      "id": "M_686",
      "pitch": 67,
      "t_note_us": 58875000,
      "t_trigger_us": 58739037,
      "is_ai": false,
      "track_id": 0,
      "velocity": 0,
      "is_motor": true,
      "motor_id": 0,
      "accel_val": 2000,
      "base_duration_us": 375000
    },
    {
      "id": "M_687",
      "pitch": 71,
      "t_note_us": 59250000,
      "t_trigger_us": 59114037,
      "is_ai": false,
      "track_id": 0,
      "velocity": 0,
      "is_motor": true,
      "motor_id": 1,
      "accel_val": 2000,
      "base_duration_us": 187500
    },
    {
      "id": "M_688",
      "pitch": 74,
      "t_note_us": 59250000,
      "t_trigger_us": 59114037,
      "is_ai": false,
      "track_id": 0,
      "velocity": 0,
      "is_motor": true,
      "motor_id": 0,
      "accel_val": 2000,
      "base_duration_us": 187500
    },
    {
      "id": "M_689",
      "pitch": 69,
      "t_note_us": 59250000,
      "t_trigger_us": 59114037,
      "is_ai": false,
      "track_id": 0,
      "velocity": 0,
      "is_motor": true,
      "motor_id": 2,
      "accel_val": 2000,
      "base_duration_us": 375000
    },
    {
      "id": "M_693",
      "pitch": 55,
      "t_note_us": 59250000,
      "t_trigger_us": 59114037,
      "is_ai": false,
      "track_id": 0,
      "velocity": 0,
      "is_motor": true,
      "motor_id": 3,
      "accel_val": 2000,
      "base_duration_us": 750000
    },
    {
      "id": "M_694",
      "pitch": 62,
      "t_note_us": 59250000,
      "t_trigger_us": 59114037,
      "is_ai": false,
      "track_id": 0,
      "velocity": 0,
      "is_motor": true,
      "motor_id": 0,
      "accel_val": 2000,
      "base_duration_us": 750000
    },
    {
      "id": "M_695",
      "pitch": 67,
      "t_note_us": 59250000,
      "t_trigger_us": 59114037,
      "is_ai": false,
      "track_id": 0,
      "velocity": 0,
      "is_motor": true,
      "motor_id": 0,
      "accel_val": 2000,
      "base_duration_us": 750000
    },
    {
      "id": "M_690",
      "pitch": 74,
      "t_note_us": 59625000,
      "t_trigger_us": 59489037,
      "is_ai": false,
      "track_id": 0,
      "velocity": 0,
      "is_motor": true,
      "motor_id": 1,
      "accel_val": 2000,
      "base_duration_us": 187500
    },
    {
      "id": "M_691",
      "pitch": 67,
      "t_note_us": 59625000,
      "t_trigger_us": 59489037,
      "is_ai": false,
      "track_id": 0,
      "velocity": 0,
      "is_motor": true,
      "motor_id": 2,
      "accel_val": 2000,
      "base_duration_us": 187500
    },
    {
      "id": "M_692",
      "pitch": 69,
      "t_note_us": 59812500,
      "t_trigger_us": 59676537,
      "is_ai": false,
      "track_id": 0,
      "velocity": 0,
      "is_motor": true,
      "motor_id": 1,
      "accel_val": 2000,
      "base_duration_us": 187500
    },
    {
      "id": "M_696",
      "pitch": 96,
      "t_note_us": 60000000,
      "t_trigger_us": 59864037,
      "is_ai": true,
      "track_id": 10,
      "velocity": 0,
      "is_motor": false,
      "motor_id": 0,
      "accel_val": 2000,
      "base_duration_us": 375000
    },
    {
      "id": "M_697",
      "pitch": 76,
      "t_note_us": 60000000,
      "t_trigger_us": 59864037,
      "is_ai": false,
      "track_id": 0,
      "velocity": 0,
      "is_motor": true,
      "motor_id": 2,
      "accel_val": 2000,
      "base_duration_us": 375000
    },
    {
      "id": "M_698",
      "pitch": 69,
      "t_note_us": 60000000,
      "t_trigger_us": 59864037,
      "is_ai": false,
      "track_id": 0,
      "velocity": 0,
      "is_motor": true,
      "motor_id": 1,
      "accel_val": 2000,
      "base_duration_us": 375000
    },
    {
      "id": "M_700",
      "pitch": 96,
      "t_note_us": 60375000,
      "t_trigger_us": 60239037,
      "is_ai": true,
      "track_id": 10,
      "velocity": 0,
      "is_motor": false,
      "motor_id": 0,
      "accel_val": 2000,
      "base_duration_us": 375000
    },
    {
      "id": "M_705",
      "pitch": 88,
      "t_note_us": 60375000,
      "t_trigger_us": 60239037,
      "is_ai": true,
      "track_id": 5,
      "velocity": 0,
      "is_motor": false,
      "motor_id": 0,
      "accel_val": 2000,
      "base_duration_us": 750000
    },
    {
      "id": "M_699",
      "pitch": 50,
      "t_note_us": 60375000,
      "t_trigger_us": 60239037,
      "is_ai": false,
      "track_id": 0,
      "velocity": 0,
      "is_motor": true,
      "motor_id": 0,
      "accel_val": 2000,
      "base_duration_us": 187500
    },
    {
      "id": "M_704",
      "pitch": 72,
      "t_note_us": 60375000,
      "t_trigger_us": 60239037,
      "is_ai": false,
      "track_id": 0,
      "velocity": 0,
      "is_motor": true,
      "motor_id": 1,
      "accel_val": 2000,
      "base_duration_us": 750000
    },
    {
      "id": "M_701",
      "pitch": 62,
      "t_note_us": 60562500,
      "t_trigger_us": 60426537,
      "is_ai": false,
      "track_id": 0,
      "velocity": 0,
      "is_motor": true,
      "motor_id": 0,
      "accel_val": 2000,
      "base_duration_us": 187500
    },
    {
      "id": "M_702",
      "pitch": 50,
      "t_note_us": 60750000,
      "t_trigger_us": 60614037,
      "is_ai": false,
      "track_id": 0,
      "velocity": 0,
      "is_motor": true,
      "motor_id": 0,
      "accel_val": 2000,
      "base_duration_us": 187500
    },
    {
      "id": "M_703",
      "pitch": 69,
      "t_note_us": 60750000,
      "t_trigger_us": 60614037,
      "is_ai": false,
      "track_id": 0,
      "velocity": 0,
      "is_motor": true,
      "motor_id": 2,
      "accel_val": 2000,
      "base_duration_us": 375000
    },
    {
      "id": "M_706",
      "pitch": 62,
      "t_note_us": 60937500,
      "t_trigger_us": 60801537,
      "is_ai": false,
      "track_id": 0,
      "velocity": 0,
      "is_motor": true,
      "motor_id": 0,
      "accel_val": 2000,
      "base_duration_us": 187500
    },
    {
      "id": "M_707",
      "pitch": 52,
      "t_note_us": 61125000,
      "t_trigger_us": 60989037,
      "is_ai": false,
      "track_id": 0,
      "velocity": 0,
      "is_motor": true,
      "motor_id": 0,
      "accel_val": 2000,
      "base_duration_us": 187500
    },
    {
      "id": "M_708",
      "pitch": 75,
      "t_note_us": 61125000,
      "t_trigger_us": 60989037,
      "is_ai": false,
      "track_id": 0,
      "velocity": 0,
      "is_motor": true,
      "motor_id": 2,
      "accel_val": 2000,
      "base_duration_us": 375000
    },
    {
      "id": "M_712",
      "pitch": 76,
      "t_note_us": 61125000,
      "t_trigger_us": 60989037,
      "is_ai": false,
      "track_id": 0,
      "velocity": 0,
      "is_motor": true,
      "motor_id": 1,
      "accel_val": 2000,
      "base_duration_us": 750000
    },
    {
      "id": "M_713",
      "pitch": 67,
      "t_note_us": 61125000,
      "t_trigger_us": 60989037,
      "is_ai": false,
      "track_id": 0,
      "velocity": 0,
      "is_motor": true,
      "motor_id": 3,
      "accel_val": 2000,
      "base_duration_us": 750000
    },
    {
      "id": "M_709",
      "pitch": 64,
      "t_note_us": 61312500,
      "t_trigger_us": 61176537,
      "is_ai": false,
      "track_id": 0,
      "velocity": 0,
      "is_motor": true,
      "motor_id": 0,
      "accel_val": 2000,
      "base_duration_us": 187500
    },
    {
      "id": "M_710",
      "pitch": 52,
      "t_note_us": 61500000,
      "t_trigger_us": 61364037,
      "is_ai": false,
      "track_id": 0,
      "velocity": 0,
      "is_motor": true,
      "motor_id": 0,
      "accel_val": 2000,
      "base_duration_us": 187500
    },
    {
      "id": "M_711",
      "pitch": 74,
      "t_note_us": 61500000,
      "t_trigger_us": 61364037,
      "is_ai": false,
      "track_id": 0,
      "velocity": 0,
      "is_motor": true,
      "motor_id": 2,
      "accel_val": 2000,
      "base_duration_us": 375000
    },
    {
      "id": "M_714",
      "pitch": 64,
      "t_note_us": 61687500,
      "t_trigger_us": 61551537,
      "is_ai": false,
      "track_id": 0,
      "velocity": 0,
      "is_motor": true,
      "motor_id": 0,
      "accel_val": 2000,
      "base_duration_us": 187500
    },
    {
      "id": "M_717",
      "pitch": 96,
      "t_note_us": 61875000,
      "t_trigger_us": 61739037,
      "is_ai": true,
      "track_id": 10,
      "velocity": 0,
      "is_motor": false,
      "motor_id": 0,
      "accel_val": 2000,
      "base_duration_us": 375000
    },
    {
      "id": "M_724",
      "pitch": 88,
      "t_note_us": 61875000,
      "t_trigger_us": 61739037,
      "is_ai": true,
      "track_id": 5,
      "velocity": 0,
      "is_motor": false,
      "motor_id": 0,
      "accel_val": 2000,
      "base_duration_us": 750000
    },
    {
      "id": "M_715",
      "pitch": 53,
      "t_note_us": 61875000,
      "t_trigger_us": 61739037,
      "is_ai": false,
      "track_id": 0,
      "velocity": 0,
      "is_motor": true,
      "motor_id": 0,
      "accel_val": 2000,
      "base_duration_us": 187500
    },
    {
      "id": "M_716",
      "pitch": 65,
      "t_note_us": 61875000,
      "t_trigger_us": 61739037,
      "is_ai": false,
      "track_id": 0,
      "velocity": 0,
      "is_motor": true,
      "motor_id": 1,
      "accel_val": 2000,
      "base_duration_us": 187500
    },
    {
      "id": "M_723",
      "pitch": 72,
      "t_note_us": 61875000,
      "t_trigger_us": 61739037,
      "is_ai": false,
      "track_id": 0,
      "velocity": 0,
      "is_motor": true,
      "motor_id": 2,
      "accel_val": 2000,
      "base_duration_us": 750000
    },
    {
      "id": "M_718",
      "pitch": 57,
      "t_note_us": 62062500,
      "t_trigger_us": 61926537,
      "is_ai": false,
      "track_id": 0,
      "velocity": 0,
      "is_motor": true,
      "motor_id": 0,
      "accel_val": 2000,
      "base_duration_us": 187500
    },
    {
      "id": "M_719",
      "pitch": 69,
      "t_note_us": 62062500,
      "t_trigger_us": 61926537,
      "is_ai": false,
      "track_id": 0,
      "velocity": 0,
      "is_motor": true,
      "motor_id": 1,
      "accel_val": 2000,
      "base_duration_us": 187500
    },
    {
      "id": "M_720",
      "pitch": 59,
      "t_note_us": 62250000,
      "t_trigger_us": 62114037,
      "is_ai": false,
      "track_id": 0,
      "velocity": 0,
      "is_motor": true,
      "motor_id": 0,
      "accel_val": 2000,
      "base_duration_us": 187500
    },
    {
      "id": "M_721",
      "pitch": 71,
      "t_note_us": 62250000,
      "t_trigger_us": 62114037,
      "is_ai": false,
      "track_id": 0,
      "velocity": 0,
      "is_motor": true,
      "motor_id": 1,
      "accel_val": 2000,
      "base_duration_us": 187500
    },
    {
      "id": "M_722",
      "pitch": 69,
      "t_note_us": 62250000,
      "t_trigger_us": 62114037,
      "is_ai": false,
      "track_id": 0,
      "velocity": 0,
      "is_motor": true,
      "motor_id": 3,
      "accel_val": 2000,
      "base_duration_us": 375000
    },
    {
      "id": "M_725",
      "pitch": 60,
      "t_note_us": 62437500,
      "t_trigger_us": 62301537,
      "is_ai": false,
      "track_id": 0,
      "velocity": 0,
      "is_motor": true,
      "motor_id": 1,
      "accel_val": 2000,
      "base_duration_us": 187500
    },
    {
      "id": "M_726",
      "pitch": 72,
      "t_note_us": 62437500,
      "t_trigger_us": 62301537,
      "is_ai": false,
      "track_id": 0,
      "velocity": 0,
      "is_motor": true,
      "motor_id": 0,
      "accel_val": 2000,
      "base_duration_us": 187500
    },
    {
      "id": "M_727",
      "pitch": 60,
      "t_note_us": 62625000,
      "t_trigger_us": 62489037,
      "is_ai": false,
      "track_id": 0,
      "velocity": 0,
      "is_motor": true,
      "motor_id": 1,
      "accel_val": 2000,
      "base_duration_us": 187500
    },
    {
      "id": "M_728",
      "pitch": 72,
      "t_note_us": 62625000,
      "t_trigger_us": 62489037,
      "is_ai": false,
      "track_id": 0,
      "velocity": 0,
      "is_motor": true,
      "motor_id": 0,
      "accel_val": 2000,
      "base_duration_us": 187500
    },
    {
      "id": "M_729",
      "pitch": 67,
      "t_note_us": 62625000,
      "t_trigger_us": 62489037,
      "is_ai": false,
      "track_id": 0,
      "velocity": 0,
      "is_motor": true,
      "motor_id": 2,
      "accel_val": 2000,
      "base_duration_us": 375000
    },
    {
      "id": "M_730",
      "pitch": 62,
      "t_note_us": 62812500,
      "t_trigger_us": 62676537,
      "is_ai": false,
      "track_id": 0,
      "velocity": 0,
      "is_motor": true,
      "motor_id": 1,
      "accel_val": 2000,
      "base_duration_us": 187500
    },
    {
      "id": "M_731",
      "pitch": 74,
      "t_note_us": 62812500,
      "t_trigger_us": 62676537,
      "is_ai": false,
      "track_id": 0,
      "velocity": 0,
      "is_motor": true,
      "motor_id": 0,
      "accel_val": 2000,
      "base_duration_us": 187500
    },
    {
      "id": "M_732",
      "pitch": 76,
      "t_note_us": 63000000,
      "t_trigger_us": 62864037,
      "is_ai": false,
      "track_id": 0,
      "velocity": 0,
      "is_motor": true,
      "motor_id": 2,
      "accel_val": 2000,
      "base_duration_us": 375000
    },
    {
      "id": "M_733",
      "pitch": 55,
      "t_note_us": 63000000,
      "t_trigger_us": 62864037,
      "is_ai": false,
      "track_id": 0,
      "velocity": 0,
      "is_motor": true,
      "motor_id": 0,
      "accel_val": 2000,
      "base_duration_us": 375000
    },
    {
      "id": "M_734",
      "pitch": 67,
      "t_note_us": 63000000,
      "t_trigger_us": 62864037,
      "is_ai": false,
      "track_id": 0,
      "velocity": 0,
      "is_motor": true,
      "motor_id": 1,
      "accel_val": 2000,
      "base_duration_us": 375000
    },
    {
      "id": "M_735",
      "pitch": 74,
      "t_note_us": 63375000,
      "t_trigger_us": 63239037,
      "is_ai": false,
      "track_id": 0,
      "velocity": 0,
      "is_motor": true,
      "motor_id": 1,
      "accel_val": 2000,
      "base_duration_us": 187500
    },
    {
      "id": "M_736",
      "pitch": 76,
      "t_note_us": 63375000,
      "t_trigger_us": 63239037,
      "is_ai": false,
      "track_id": 0,
      "velocity": 0,
      "is_motor": true,
      "motor_id": 2,
      "accel_val": 2000,
      "base_duration_us": 187500
    },
    {
      "id": "M_737",
      "pitch": 67,
      "t_note_us": 63375000,
      "t_trigger_us": 63239037,
      "is_ai": false,
      "track_id": 0,
      "velocity": 0,
      "is_motor": true,
      "motor_id": 0,
      "accel_val": 2000,
      "base_duration_us": 187500
    },
    {
      "id": "M_738",
      "pitch": 57,
      "t_note_us": 63375000,
      "t_trigger_us": 63239037,
      "is_ai": false,
      "track_id": 0,
      "velocity": 0,
      "is_motor": true,
      "motor_id": 3,
      "accel_val": 2000,
      "base_duration_us": 187500
    },
    {
      "id": "M_739",
      "pitch": 62,
      "t_note_us": 63375000,
      "t_trigger_us": 63239037,
      "is_ai": false,
      "track_id": 0,
      "velocity": 0,
      "is_motor": true,
      "motor_id": 0,
      "accel_val": 2000,
      "base_duration_us": 187500
    },
    {
      "id": "M_740",
      "pitch": 69,
      "t_note_us": 63375000,
      "t_trigger_us": 63239037,
      "is_ai": false,
      "track_id": 0,
      "velocity": 0,
      "is_motor": true,
      "motor_id": 0,
      "accel_val": 2000,
      "base_duration_us": 187500
    },
    {
      "id": "M_741",
      "pitch": 74,
      "t_note_us": 63562500,
      "t_trigger_us": 63426537,
      "is_ai": false,
      "track_id": 0,
      "velocity": 0,
      "is_motor": true,
      "motor_id": 1,
      "accel_val": 2000,
      "base_duration_us": 187500
    },
    {
      "id": "M_742",
      "pitch": 76,
      "t_note_us": 63562500,
      "t_trigger_us": 63426537,
      "is_ai": false,
      "track_id": 0,
      "velocity": 0,
      "is_motor": true,
      "motor_id": 2,
      "accel_val": 2000,
      "base_duration_us": 187500
    },
    {
      "id": "M_743",
      "pitch": 67,
      "t_note_us": 63562500,
      "t_trigger_us": 63426537,
      "is_ai": false,
      "track_id": 0,
      "velocity": 0,
      "is_motor": true,
      "motor_id": 0,
      "accel_val": 2000,
      "base_duration_us": 187500
    },
    {
      "id": "M_744",
      "pitch": 69,
      "t_note_us": 63562500,
      "t_trigger_us": 63426537,
      "is_ai": false,
      "track_id": 0,
      "velocity": 0,
      "is_motor": true,
      "motor_id": 3,
      "accel_val": 2000,
      "base_duration_us": 187500
    },
    {
      "id": "M_745",
      "pitch": 57,
      "t_note_us": 63562500,
      "t_trigger_us": 63426537,
      "is_ai": false,
      "track_id": 0,
      "velocity": 0,
      "is_motor": true,
      "motor_id": 0,
      "accel_val": 2000,
      "base_duration_us": 187500
    },
    {
      "id": "M_746",
      "pitch": 62,
      "t_note_us": 63562500,
      "t_trigger_us": 63426537,
      "is_ai": false,
      "track_id": 0,
      "velocity": 0,
      "is_motor": true,
      "motor_id": 0,
      "accel_val": 2000,
      "base_duration_us": 187500
    },
    {
      "id": "M_747",
      "pitch": 69,
      "t_note_us": 63562500,
      "t_trigger_us": 63426537,
      "is_ai": false,
      "track_id": 0,
      "velocity": 0,
      "is_motor": true,
      "motor_id": 0,
      "accel_val": 2000,
      "base_duration_us": 187500
    },
    {
      "id": "M_748",
      "pitch": 74,
      "t_note_us": 63750000,
      "t_trigger_us": 63614037,
      "is_ai": false,
      "track_id": 0,
      "velocity": 0,
      "is_motor": true,
      "motor_id": 1,
      "accel_val": 2000,
      "base_duration_us": 187500
    },
    {
      "id": "M_749",
      "pitch": 76,
      "t_note_us": 63750000,
      "t_trigger_us": 63614037,
      "is_ai": false,
      "track_id": 0,
      "velocity": 0,
      "is_motor": true,
      "motor_id": 2,
      "accel_val": 2000,
      "base_duration_us": 187500
    },
    {
      "id": "M_750",
      "pitch": 67,
      "t_note_us": 63750000,
      "t_trigger_us": 63614037,
      "is_ai": false,
      "track_id": 0,
      "velocity": 0,
      "is_motor": true,
      "motor_id": 0,
      "accel_val": 2000,
      "base_duration_us": 187500
    },
    {
      "id": "M_751",
      "pitch": 57,
      "t_note_us": 63750000,
      "t_trigger_us": 63614037,
      "is_ai": false,
      "track_id": 0,
      "velocity": 0,
      "is_motor": true,
      "motor_id": 3,
      "accel_val": 2000,
      "base_duration_us": 187500
    },
    {
      "id": "M_752",
      "pitch": 62,
      "t_note_us": 63750000,
      "t_trigger_us": 63614037,
      "is_ai": false,
      "track_id": 0,
      "velocity": 0,
      "is_motor": true,
      "motor_id": 0,
      "accel_val": 2000,
      "base_duration_us": 187500
    },
    {
      "id": "M_753",
      "pitch": 69,
      "t_note_us": 63750000,
      "t_trigger_us": 63614037,
      "is_ai": false,
      "track_id": 0,
      "velocity": 0,
      "is_motor": true,
      "motor_id": 0,
      "accel_val": 2000,
      "base_duration_us": 187500
    },
    {
      "id": "M_754",
      "pitch": 74,
      "t_note_us": 63937500,
      "t_trigger_us": 63801537,
      "is_ai": false,
      "track_id": 0,
      "velocity": 0,
      "is_motor": true,
      "motor_id": 1,
      "accel_val": 2000,
      "base_duration_us": 187500
    },
    {
      "id": "M_755",
      "pitch": 74,
      "t_note_us": 64125000,
      "t_trigger_us": 63989037,
      "is_ai": false,
      "track_id": 0,
      "velocity": 0,
      "is_motor": true,
      "motor_id": 1,
      "accel_val": 2000,
      "base_duration_us": 187500
    },
    {
      "id": "M_756",
      "pitch": 76,
      "t_note_us": 64125000,
      "t_trigger_us": 63989037,
      "is_ai": false,
      "track_id": 0,
      "velocity": 0,
      "is_motor": true,
      "motor_id": 2,
      "accel_val": 2000,
      "base_duration_us": 187500
    },
    {
      "id": "M_757",
      "pitch": 67,
      "t_note_us": 64125000,
      "t_trigger_us": 63989037,
      "is_ai": false,
      "track_id": 0,
      "velocity": 0,
      "is_motor": true,
      "motor_id": 0,
      "accel_val": 2000,
      "base_duration_us": 187500
    },
    {
      "id": "M_758",
      "pitch": 69,
      "t_note_us": 64125000,
      "t_trigger_us": 63989037,
      "is_ai": false,
      "track_id": 0,
      "velocity": 0,
      "is_motor": true,
      "motor_id": 3,
      "accel_val": 2000,
      "base_duration_us": 187500
    },
    {
      "id": "M_759",
      "pitch": 57,
      "t_note_us": 64125000,
      "t_trigger_us": 63989037,
      "is_ai": false,
      "track_id": 0,
      "velocity": 0,
      "is_motor": true,
      "motor_id": 0,
      "accel_val": 2000,
      "base_duration_us": 187500
    },
    {
      "id": "M_760",
      "pitch": 62,
      "t_note_us": 64125000,
      "t_trigger_us": 63989037,
      "is_ai": false,
      "track_id": 0,
      "velocity": 0,
      "is_motor": true,
      "motor_id": 0,
      "accel_val": 2000,
      "base_duration_us": 187500
    },
    {
      "id": "M_761",
      "pitch": 69,
      "t_note_us": 64125000,
      "t_trigger_us": 63989037,
      "is_ai": false,
      "track_id": 0,
      "velocity": 0,
      "is_motor": true,
      "motor_id": 0,
      "accel_val": 2000,
      "base_duration_us": 187500
    },
    {
      "id": "M_762",
      "pitch": 67,
      "t_note_us": 64312500,
      "t_trigger_us": 64176537,
      "is_ai": false,
      "track_id": 0,
      "velocity": 0,
      "is_motor": true,
      "motor_id": 1,
      "accel_val": 2000,
      "base_duration_us": 187500
    },
    {
      "id": "M_763",
      "pitch": 74,
      "t_note_us": 64500000,
      "t_trigger_us": 64364037,
      "is_ai": false,
      "track_id": 0,
      "velocity": 0,
      "is_motor": true,
      "motor_id": 1,
      "accel_val": 2000,
      "base_duration_us": 187500
    },
    {
      "id": "M_764",
      "pitch": 76,
      "t_note_us": 64500000,
      "t_trigger_us": 64364037,
      "is_ai": false,
      "track_id": 0,
      "velocity": 0,
      "is_motor": true,
      "motor_id": 2,
      "accel_val": 2000,
      "base_duration_us": 187500
    },
    {
      "id": "M_765",
      "pitch": 67,
      "t_note_us": 64500000,
      "t_trigger_us": 64364037,
      "is_ai": false,
      "track_id": 0,
      "velocity": 0,
      "is_motor": true,
      "motor_id": 0,
      "accel_val": 2000,
      "base_duration_us": 187500
    },
    {
      "id": "M_766",
      "pitch": 57,
      "t_note_us": 64500000,
      "t_trigger_us": 64364037,
      "is_ai": false,
      "track_id": 0,
      "velocity": 0,
      "is_motor": true,
      "motor_id": 3,
      "accel_val": 2000,
      "base_duration_us": 187500
    },
    {
      "id": "M_767",
      "pitch": 62,
      "t_note_us": 64500000,
      "t_trigger_us": 64364037,
      "is_ai": false,
      "track_id": 0,
      "velocity": 0,
      "is_motor": true,
      "motor_id": 0,
      "accel_val": 2000,
      "base_duration_us": 187500
    },
    {
      "id": "M_768",
      "pitch": 69,
      "t_note_us": 64500000,
      "t_trigger_us": 64364037,
      "is_ai": false,
      "track_id": 0,
      "velocity": 0,
      "is_motor": true,
      "motor_id": 0,
      "accel_val": 2000,
      "base_duration_us": 187500
    },
    {
      "id": "M_769",
      "pitch": 74,
      "t_note_us": 64687500,
      "t_trigger_us": 64551537,
      "is_ai": false,
      "track_id": 0,
      "velocity": 0,
      "is_motor": true,
      "motor_id": 1,
      "accel_val": 2000,
      "base_duration_us": 187500
    },
    {
      "id": "M_770",
      "pitch": 76,
      "t_note_us": 64687500,
      "t_trigger_us": 64551537,
      "is_ai": false,
      "track_id": 0,
      "velocity": 0,
      "is_motor": true,
      "motor_id": 2,
      "accel_val": 2000,
      "base_duration_us": 187500
    },
    {
      "id": "M_771",
      "pitch": 67,
      "t_note_us": 64687500,
      "t_trigger_us": 64551537,
      "is_ai": false,
      "track_id": 0,
      "velocity": 0,
      "is_motor": true,
      "motor_id": 0,
      "accel_val": 2000,
      "base_duration_us": 187500
    },
    {
      "id": "M_772",
      "pitch": 69,
      "t_note_us": 64687500,
      "t_trigger_us": 64551537,
      "is_ai": false,
      "track_id": 0,
      "velocity": 0,
      "is_motor": true,
      "motor_id": 3,
      "accel_val": 2000,
      "base_duration_us": 187500
    },
    {
      "id": "M_773",
      "pitch": 57,
      "t_note_us": 64687500,
      "t_trigger_us": 64551537,
      "is_ai": false,
      "track_id": 0,
      "velocity": 0,
      "is_motor": true,
      "motor_id": 0,
      "accel_val": 2000,
      "base_duration_us": 187500
    },
    {
      "id": "M_774",
      "pitch": 62,
      "t_note_us": 64687500,
      "t_trigger_us": 64551537,
      "is_ai": false,
      "track_id": 0,
      "velocity": 0,
      "is_motor": true,
      "motor_id": 0,
      "accel_val": 2000,
      "base_duration_us": 187500
    },
    {
      "id": "M_775",
      "pitch": 69,
      "t_note_us": 64687500,
      "t_trigger_us": 64551537,
      "is_ai": false,
      "track_id": 0,
      "velocity": 0,
      "is_motor": true,
      "motor_id": 0,
      "accel_val": 2000,
      "base_duration_us": 187500
    },
    {
      "id": "M_776",
      "pitch": 67,
      "t_note_us": 64875000,
      "t_trigger_us": 64739037,
      "is_ai": false,
      "track_id": 0,
      "velocity": 0,
      "is_motor": true,
      "motor_id": 1,
      "accel_val": 2000,
      "base_duration_us": 187500
    },
    {
      "id": "M_777",
      "pitch": 74,
      "t_note_us": 65062500,
      "t_trigger_us": 64926537,
      "is_ai": false,
      "track_id": 0,
      "velocity": 0,
      "is_motor": true,
      "motor_id": 1,
      "accel_val": 2000,
      "base_duration_us": 187500
    },
    {
      "id": "M_778",
      "pitch": 76,
      "t_note_us": 65062500,
      "t_trigger_us": 64926537,
      "is_ai": false,
      "track_id": 0,
      "velocity": 0,
      "is_motor": true,
      "motor_id": 2,
      "accel_val": 2000,
      "base_duration_us": 187500
    },
    {
      "id": "M_779",
      "pitch": 67,
      "t_note_us": 65062500,
      "t_trigger_us": 64926537,
      "is_ai": false,
      "track_id": 0,
      "velocity": 0,
      "is_motor": true,
      "motor_id": 0,
      "accel_val": 2000,
      "base_duration_us": 187500
    },
    {
      "id": "M_780",
      "pitch": 74,
      "t_note_us": 65062500,
      "t_trigger_us": 64926537,
      "is_ai": false,
      "track_id": 0,
      "velocity": 0,
      "is_motor": true,
      "motor_id": 3,
      "accel_val": 2000,
      "base_duration_us": 187500
    },
    {
      "id": "M_781",
      "pitch": 57,
      "t_note_us": 65062500,
      "t_trigger_us": 64926537,
      "is_ai": false,
      "track_id": 0,
      "velocity": 0,
      "is_motor": true,
      "motor_id": 0,
      "accel_val": 2000,
      "base_duration_us": 187500
    },
    {
      "id": "M_782",
      "pitch": 62,
      "t_note_us": 65062500,
      "t_trigger_us": 64926537,
      "is_ai": false,
      "track_id": 0,
      "velocity": 0,
      "is_motor": true,
      "motor_id": 0,
      "accel_val": 2000,
      "base_duration_us": 187500
    },
    {
      "id": "M_783",
      "pitch": 69,
      "t_note_us": 65062500,
      "t_trigger_us": 64926537,
      "is_ai": false,
      "track_id": 0,
      "velocity": 0,
      "is_motor": true,
      "motor_id": 0,
      "accel_val": 2000,
      "base_duration_us": 187500
    },
    {
      "id": "M_784",
      "pitch": 74,
      "t_note_us": 65250000,
      "t_trigger_us": 65114037,
      "is_ai": false,
      "track_id": 0,
      "velocity": 0,
      "is_motor": true,
      "motor_id": 1,
      "accel_val": 2000,
      "base_duration_us": 187500
    },
    {
      "id": "M_785",
      "pitch": 76,
      "t_note_us": 65250000,
      "t_trigger_us": 65114037,
      "is_ai": false,
      "track_id": 0,
      "velocity": 0,
      "is_motor": true,
      "motor_id": 2,
      "accel_val": 2000,
      "base_duration_us": 187500
    },
    {
      "id": "M_786",
      "pitch": 67,
      "t_note_us": 65250000,
      "t_trigger_us": 65114037,
      "is_ai": false,
      "track_id": 0,
      "velocity": 0,
      "is_motor": true,
      "motor_id": 0,
      "accel_val": 2000,
      "base_duration_us": 187500
    },
    {
      "id": "M_787",
      "pitch": 69,
      "t_note_us": 65250000,
      "t_trigger_us": 65114037,
      "is_ai": false,
      "track_id": 0,
      "velocity": 0,
      "is_motor": true,
      "motor_id": 3,
      "accel_val": 2000,
      "base_duration_us": 187500
    },
    {
      "id": "M_789",
      "pitch": 57,
      "t_note_us": 65250000,
      "t_trigger_us": 65114037,
      "is_ai": false,
      "track_id": 0,
      "velocity": 0,
      "is_motor": true,
      "motor_id": 0,
      "accel_val": 2000,
      "base_duration_us": 375000
    },
    {
      "id": "M_790",
      "pitch": 62,
      "t_note_us": 65250000,
      "t_trigger_us": 65114037,
      "is_ai": false,
      "track_id": 0,
      "velocity": 0,
      "is_motor": true,
      "motor_id": 0,
      "accel_val": 2000,
      "base_duration_us": 375000
    },
    {
      "id": "M_791",
      "pitch": 69,
      "t_note_us": 65250000,
      "t_trigger_us": 65114037,
      "is_ai": false,
      "track_id": 0,
      "velocity": 0,
      "is_motor": true,
      "motor_id": 0,
      "accel_val": 2000,
      "base_duration_us": 375000
    },
    {
      "id": "M_788",
      "pitch": 67,
      "t_note_us": 65437500,
      "t_trigger_us": 65301537,
      "is_ai": false,
      "track_id": 0,
      "velocity": 0,
      "is_motor": true,
      "motor_id": 1,
      "accel_val": 2000,
      "base_duration_us": 187500
    },
    {
      "id": "M_795",
      "pitch": 96,
      "t_note_us": 65625000,
      "t_trigger_us": 65489037,
      "is_ai": true,
      "track_id": 10,
      "velocity": 0,
      "is_motor": false,
      "motor_id": 0,
      "accel_val": 2000,
      "base_duration_us": 375000
    },
    {
      "id": "M_792",
      "pitch": 74,
      "t_note_us": 65625000,
      "t_trigger_us": 65489037,
      "is_ai": false,
      "track_id": 0,
      "velocity": 0,
      "is_motor": true,
      "motor_id": 1,
      "accel_val": 2000,
      "base_duration_us": 375000
    },
    {
      "id": "M_793",
      "pitch": 76,
      "t_note_us": 65625000,
      "t_trigger_us": 65489037,
      "is_ai": false,
      "track_id": 0,
      "velocity": 0,
      "is_motor": true,
      "motor_id": 2,
      "accel_val": 2000,
      "base_duration_us": 375000
    },
    {
      "id": "M_794",
      "pitch": 69,
      "t_note_us": 65625000,
      "t_trigger_us": 65489037,
      "is_ai": false,
      "track_id": 0,
      "velocity": 0,
      "is_motor": true,
      "motor_id": 0,
      "accel_val": 2000,
      "base_duration_us": 375000
    },
    {
      "id": "M_796",
      "pitch": 57,
      "t_note_us": 65625000,
      "t_trigger_us": 65489037,
      "is_ai": false,
      "track_id": 0,
      "velocity": 0,
      "is_motor": true,
      "motor_id": 3,
      "accel_val": 2000,
      "base_duration_us": 375000
    },
    {
      "id": "M_797",
      "pitch": 62,
      "t_note_us": 65625000,
      "t_trigger_us": 65489037,
      "is_ai": false,
      "track_id": 0,
      "velocity": 0,
      "is_motor": true,
      "motor_id": 0,
      "accel_val": 2000,
      "base_duration_us": 375000
    },
    {
      "id": "M_798",
      "pitch": 69,
      "t_note_us": 65625000,
      "t_trigger_us": 65489037,
      "is_ai": false,
      "track_id": 0,
      "velocity": 0,
      "is_motor": true,
      "motor_id": 0,
      "accel_val": 2000,
      "base_duration_us": 375000
    },
    {
      "id": "M_799",
      "pitch": 88,
      "t_note_us": 66000000,
      "t_trigger_us": 65864037,
      "is_ai": true,
      "track_id": 5,
      "velocity": 0,
      "is_motor": false,
      "motor_id": 0,
      "accel_val": 2000,
      "base_duration_us": 375000
    },
    {
      "id": "M_800",
      "pitch": 69,
      "t_note_us": 66000000,
      "t_trigger_us": 65864037,
      "is_ai": false,
      "track_id": 0,
      "velocity": 0,
      "is_motor": true,
      "motor_id": 1,
      "accel_val": 2000,
      "base_duration_us": 375000
    },
    {
      "id": "M_807",
      "pitch": 88,
      "t_note_us": 66375000,
      "t_trigger_us": 66239037,
      "is_ai": true,
      "track_id": 5,
      "velocity": 0,
      "is_motor": false,
      "motor_id": 0,
      "accel_val": 2000,
      "base_duration_us": 1125000
    },
    {
      "id": "M_809",
      "pitch": 96,
      "t_note_us": 66375000,
      "t_trigger_us": 66239037,
      "is_ai": true,
      "track_id": 10,
      "velocity": 0,
      "is_motor": false,
      "motor_id": 0,
      "accel_val": 2000,
      "base_duration_us": 1125000
    },
    {
      "id": "M_801",
      "pitch": 53,
      "t_note_us": 66375000,
      "t_trigger_us": 66239037,
      "is_ai": false,
      "track_id": 0,
      "velocity": 0,
      "is_motor": true,
      "motor_id": 0,
      "accel_val": 2000,
      "base_duration_us": 187500
    },
    {
      "id": "M_808",
      "pitch": 67,
      "t_note_us": 66375000,
      "t_trigger_us": 66239037,
      "is_ai": false,
      "track_id": 0,
      "velocity": 0,
      "is_motor": true,
      "motor_id": 1,
      "accel_val": 2000,
      "base_duration_us": 1125000
    },
    {
      "id": "M_810",
      "pitch": 76,
      "t_note_us": 66375000,
      "t_trigger_us": 66239037,
      "is_ai": false,
      "track_id": 0,
      "velocity": 0,
      "is_motor": true,
      "motor_id": 2,
      "accel_val": 2000,
      "base_duration_us": 1125000
    },
    {
      "id": "M_802",
      "pitch": 53,
      "t_note_us": 66562500,
      "t_trigger_us": 66426537,
      "is_ai": false,
      "track_id": 0,
      "velocity": 0,
      "is_motor": true,
      "motor_id": 0,
      "accel_val": 2000,
      "base_duration_us": 187500
    },
    {
      "id": "M_803",
      "pitch": 60,
      "t_note_us": 66750000,
      "t_trigger_us": 66614037,
      "is_ai": false,
      "track_id": 0,
      "velocity": 0,
      "is_motor": true,
      "motor_id": 0,
      "accel_val": 2000,
      "base_duration_us": 187500
    },
    {
      "id": "M_804",
      "pitch": 65,
      "t_note_us": 66750000,
      "t_trigger_us": 66614037,
      "is_ai": false,
      "track_id": 0,
      "velocity": 0,
      "is_motor": true,
      "motor_id": 3,
      "accel_val": 2000,
      "base_duration_us": 187500
    },
    {
      "id": "M_805",
      "pitch": 53,
      "t_note_us": 66937500,
      "t_trigger_us": 66801537,
      "is_ai": false,
      "track_id": 0,
      "velocity": 0,
      "is_motor": true,
      "motor_id": 0,
      "accel_val": 2000,
      "base_duration_us": 187500
    },
    {
      "id": "M_806",
      "pitch": 53,
      "t_note_us": 67125000,
      "t_trigger_us": 66989037,
      "is_ai": false,
      "track_id": 0,
      "velocity": 0,
      "is_motor": true,
      "motor_id": 0,
      "accel_val": 2000,
      "base_duration_us": 187500
    },
    {
      "id": "M_811",
      "pitch": 53,
      "t_note_us": 67312500,
      "t_trigger_us": 67176537,
      "is_ai": false,
      "track_id": 0,
      "velocity": 0,
      "is_motor": true,
      "motor_id": 0,
      "accel_val": 2000,
      "base_duration_us": 187500
    },
    {
      "id": "M_812",
      "pitch": 72,
      "t_note_us": 67500000,
      "t_trigger_us": 67364037,
      "is_ai": false,
      "track_id": 0,
      "velocity": 0,
      "is_motor": true,
      "motor_id": 1,
      "accel_val": 2000,
      "base_duration_us": 187500
    },
    {
      "id": "M_813",
      "pitch": 76,
      "t_note_us": 67500000,
      "t_trigger_us": 67364037,
      "is_ai": false,
      "track_id": 0,
      "velocity": 0,
      "is_motor": true,
      "motor_id": 2,
      "accel_val": 2000,
      "base_duration_us": 187500
    },
    {
      "id": "M_814",
      "pitch": 69,
      "t_note_us": 67500000,
      "t_trigger_us": 67364037,
      "is_ai": false,
      "track_id": 0,
      "velocity": 0,
      "is_motor": true,
      "motor_id": 0,
      "accel_val": 2000,
      "base_duration_us": 187500
    },
    {
      "id": "M_815",
      "pitch": 60,
      "t_note_us": 67500000,
      "t_trigger_us": 67364037,
      "is_ai": false,
      "track_id": 0,
      "velocity": 0,
      "is_motor": true,
      "motor_id": 3,
      "accel_val": 2000,
      "base_duration_us": 187500
    },
    {
      "id": "M_816",
      "pitch": 65,
      "t_note_us": 67500000,
      "t_trigger_us": 67364037,
      "is_ai": false,
      "track_id": 0,
      "velocity": 0,
      "is_motor": true,
      "motor_id": 0,
      "accel_val": 2000,
      "base_duration_us": 187500
    },
    {
      "id": "M_817",
      "pitch": 76,
      "t_note_us": 67687500,
      "t_trigger_us": 67551537,
      "is_ai": false,
      "track_id": 0,
      "velocity": 0,
      "is_motor": true,
      "motor_id": 2,
      "accel_val": 2000,
      "base_duration_us": 187500
    },
    {
      "id": "M_818",
      "pitch": 69,
      "t_note_us": 67687500,
      "t_trigger_us": 67551537,
      "is_ai": false,
      "track_id": 0,
      "velocity": 0,
      "is_motor": true,
      "motor_id": 1,
      "accel_val": 2000,
      "base_duration_us": 187500
    },
    {
      "id": "M_819",
      "pitch": 53,
      "t_note_us": 67687500,
      "t_trigger_us": 67551537,
      "is_ai": false,
      "track_id": 0,
      "velocity": 0,
      "is_motor": true,
      "motor_id": 0,
      "accel_val": 2000,
      "base_duration_us": 187500
    },
    {
      "id": "M_820",
      "pitch": 55,
      "t_note_us": 67875000,
      "t_trigger_us": 67739037,
      "is_ai": false,
      "track_id": 0,
      "velocity": 0,
      "is_motor": true,
      "motor_id": 0,
      "accel_val": 2000,
      "base_duration_us": 187500
    },
    {
      "id": "M_822",
      "pitch": 71,
      "t_note_us": 67875000,
      "t_trigger_us": 67739037,
      "is_ai": false,
      "track_id": 0,
      "velocity": 0,
      "is_motor": true,
      "motor_id": 1,
      "accel_val": 2000,
      "base_duration_us": 562500
    },
    {
      "id": "M_823",
      "pitch": 74,
      "t_note_us": 67875000,
      "t_trigger_us": 67739037,
      "is_ai": false,
      "track_id": 0,
      "velocity": 0,
      "is_motor": true,
      "motor_id": 2,
      "accel_val": 2000,
      "base_duration_us": 562500
    },
    {
      "id": "M_824",
      "pitch": 67,
      "t_note_us": 67875000,
      "t_trigger_us": 67739037,
      "is_ai": false,
      "track_id": 0,
      "velocity": 0,
      "is_motor": true,
      "motor_id": 3,
      "accel_val": 2000,
      "base_duration_us": 562500
    },
    {
      "id": "M_821",
      "pitch": 55,
      "t_note_us": 68062500,
      "t_trigger_us": 67926537,
      "is_ai": false,
      "track_id": 0,
      "velocity": 0,
      "is_motor": true,
      "motor_id": 0,
      "accel_val": 2000,
      "base_duration_us": 187500
    },
    {
      "id": "M_825",
      "pitch": 62,
      "t_note_us": 68250000,
      "t_trigger_us": 68114037,
      "is_ai": false,
      "track_id": 0,
      "velocity": 0,
      "is_motor": true,
      "motor_id": 0,
      "accel_val": 2000,
      "base_duration_us": 187500
    },
    {
      "id": "M_826",
      "pitch": 67,
      "t_note_us": 68250000,
      "t_trigger_us": 68114037,
      "is_ai": false,
      "track_id": 0,
      "velocity": 0,
      "is_motor": true,
      "motor_id": 0,
      "accel_val": 2000,
      "base_duration_us": 187500
    },
    {
      "id": "M_827",
      "pitch": 74,
      "t_note_us": 68437500,
      "t_trigger_us": 68301537,
      "is_ai": false,
      "track_id": 0,
      "velocity": 0,
      "is_motor": true,
      "motor_id": 1,
      "accel_val": 2000,
      "base_duration_us": 187500
    },
    {
      "id": "M_828",
      "pitch": 67,
      "t_note_us": 68437500,
      "t_trigger_us": 68301537,
      "is_ai": false,
      "track_id": 0,
      "velocity": 0,
      "is_motor": true,
      "motor_id": 2,
      "accel_val": 2000,
      "base_duration_us": 187500
    },
    {
      "id": "M_829",
      "pitch": 55,
      "t_note_us": 68437500,
      "t_trigger_us": 68301537,
      "is_ai": false,
      "track_id": 0,
      "velocity": 0,
      "is_motor": true,
      "motor_id": 0,
      "accel_val": 2000,
      "base_duration_us": 187500
    },
    {
      "id": "M_830",
      "pitch": 55,
      "t_note_us": 68625000,
      "t_trigger_us": 68489037,
      "is_ai": false,
      "track_id": 0,
      "velocity": 0,
      "is_motor": true,
      "motor_id": 0,
      "accel_val": 2000,
      "base_duration_us": 187500
    },
    {
      "id": "M_831",
      "pitch": 72,
      "t_note_us": 68625000,
      "t_trigger_us": 68489037,
      "is_ai": false,
      "track_id": 0,
      "velocity": 0,
      "is_motor": true,
      "motor_id": 1,
      "accel_val": 2000,
      "base_duration_us": 375000
    },
    {
      "id": "M_832",
      "pitch": 76,
      "t_note_us": 68625000,
      "t_trigger_us": 68489037,
      "is_ai": false,
      "track_id": 0,
      "velocity": 0,
      "is_motor": true,
      "motor_id": 2,
      "accel_val": 2000,
      "base_duration_us": 375000
    },
    {
      "id": "M_833",
      "pitch": 69,
      "t_note_us": 68625000,
      "t_trigger_us": 68489037,
      "is_ai": false,
      "track_id": 0,
      "velocity": 0,
      "is_motor": true,
      "motor_id": 3,
      "accel_val": 2000,
      "base_duration_us": 375000
    },
    {
      "id": "M_834",
      "pitch": 55,
      "t_note_us": 68812500,
      "t_trigger_us": 68676537,
      "is_ai": false,
      "track_id": 0,
      "velocity": 0,
      "is_motor": true,
      "motor_id": 0,
      "accel_val": 2000,
      "base_duration_us": 187500
    },
    {
      "id": "M_835",
      "pitch": 72,
      "t_note_us": 69000000,
      "t_trigger_us": 68864037,
      "is_ai": false,
      "track_id": 0,
      "velocity": 0,
      "is_motor": true,
      "motor_id": 1,
      "accel_val": 2000,
      "base_duration_us": 187500
    },
    {
      "id": "M_836",
      "pitch": 76,
      "t_note_us": 69000000,
      "t_trigger_us": 68864037,
      "is_ai": false,
      "track_id": 0,
      "velocity": 0,
      "is_motor": true,
      "motor_id": 2,
      "accel_val": 2000,
      "base_duration_us": 187500
    },
    {
      "id": "M_837",
      "pitch": 69,
      "t_note_us": 69000000,
      "t_trigger_us": 68864037,
      "is_ai": false,
      "track_id": 0,
      "velocity": 0,
      "is_motor": true,
      "motor_id": 0,
      "accel_val": 2000,
      "base_duration_us": 187500
    },
    {
      "id": "M_838",
      "pitch": 62,
      "t_note_us": 69000000,
      "t_trigger_us": 68864037,
      "is_ai": false,
      "track_id": 0,
      "velocity": 0,
      "is_motor": true,
      "motor_id": 3,
      "accel_val": 2000,
      "base_duration_us": 187500
    },
    {
      "id": "M_839",
      "pitch": 67,
      "t_note_us": 69000000,
      "t_trigger_us": 68864037,
      "is_ai": false,
      "track_id": 0,
      "velocity": 0,
      "is_motor": true,
      "motor_id": 0,
      "accel_val": 2000,
      "base_duration_us": 187500
    },
    {
      "id": "M_840",
      "pitch": 76,
      "t_note_us": 69187500,
      "t_trigger_us": 69051537,
      "is_ai": false,
      "track_id": 0,
      "velocity": 0,
      "is_motor": true,
      "motor_id": 2,
      "accel_val": 2000,
      "base_duration_us": 187500
    },
    {
      "id": "M_841",
      "pitch": 71,
      "t_note_us": 69187500,
      "t_trigger_us": 69051537,
      "is_ai": false,
      "track_id": 0,
      "velocity": 0,
      "is_motor": true,
      "motor_id": 1,
      "accel_val": 2000,
      "base_duration_us": 187500
    },
    {
      "id": "M_842",
      "pitch": 55,
      "t_note_us": 69187500,
      "t_trigger_us": 69051537,
      "is_ai": false,
      "track_id": 0,
      "velocity": 0,
      "is_motor": true,
      "motor_id": 0,
      "accel_val": 2000,
      "base_duration_us": 187500
    },
    {
      "id": "M_843",
      "pitch": 57,
      "t_note_us": 69375000,
      "t_trigger_us": 69239037,
      "is_ai": false,
      "track_id": 0,
      "velocity": 0,
      "is_motor": true,
      "motor_id": 0,
      "accel_val": 2000,
      "base_duration_us": 187500
    },
    {
      "id": "M_844",
      "pitch": 76,
      "t_note_us": 69375000,
      "t_trigger_us": 69239037,
      "is_ai": false,
      "track_id": 0,
      "velocity": 0,
      "is_motor": true,
      "motor_id": 2,
      "accel_val": 2000,
      "base_duration_us": 375000
    },
    {
      "id": "M_845",
      "pitch": 69,
      "t_note_us": 69375000,
      "t_trigger_us": 69239037,
      "is_ai": false,
      "track_id": 0,
      "velocity": 0,
      "is_motor": true,
      "motor_id": 1,
      "accel_val": 2000,
      "base_duration_us": 375000
    },
    {
      "id": "M_846",
      "pitch": 72,
      "t_note_us": 69375000,
      "t_trigger_us": 69239037,
      "is_ai": false,
      "track_id": 0,
      "velocity": 0,
      "is_motor": true,
      "motor_id": 3,
      "accel_val": 2000,
      "base_duration_us": 375000
    },
    {
      "id": "M_847",
      "pitch": 57,
      "t_note_us": 69562500,
      "t_trigger_us": 69426537,
      "is_ai": false,
      "track_id": 0,
      "velocity": 0,
      "is_motor": true,
      "motor_id": 0,
      "accel_val": 2000,
      "base_duration_us": 187500
    },
    {
      "id": "M_848",
      "pitch": 64,
      "t_note_us": 69750000,
      "t_trigger_us": 69614037,
      "is_ai": false,
      "track_id": 0,
      "velocity": 0,
      "is_motor": true,
      "motor_id": 1,
      "accel_val": 2000,
      "base_duration_us": 187500
    },
    {
      "id": "M_849",
      "pitch": 69,
      "t_note_us": 69750000,
      "t_trigger_us": 69614037,
      "is_ai": false,
      "track_id": 0,
      "velocity": 0,
      "is_motor": true,
      "motor_id": 2,
      "accel_val": 2000,
      "base_duration_us": 187500
    },
    {
      "id": "M_850",
      "pitch": 74,
      "t_note_us": 69750000,
      "t_trigger_us": 69614037,
      "is_ai": false,
      "track_id": 0,
      "velocity": 0,
      "is_motor": true,
      "motor_id": 0,
      "accel_val": 2000,
      "base_duration_us": 375000
    },
    {
      "id": "M_851",
      "pitch": 67,
      "t_note_us": 69750000,
      "t_trigger_us": 69614037,
      "is_ai": false,
      "track_id": 0,
      "velocity": 0,
      "is_motor": true,
      "motor_id": 3,
      "accel_val": 2000,
      "base_duration_us": 375000
    },
    {
      "id": "M_852",
      "pitch": 71,
      "t_note_us": 69750000,
      "t_trigger_us": 69614037,
      "is_ai": false,
      "track_id": 0,
      "velocity": 0,
      "is_motor": true,
      "motor_id": 0,
      "accel_val": 2000,
      "base_duration_us": 375000
    },
    {
      "id": "M_853",
      "pitch": 57,
      "t_note_us": 69937500,
      "t_trigger_us": 69801537,
      "is_ai": false,
      "track_id": 0,
      "velocity": 0,
      "is_motor": true,
      "motor_id": 1,
      "accel_val": 2000,
      "base_duration_us": 187500
    },
    {
      "id": "M_854",
      "pitch": 57,
      "t_note_us": 70125000,
      "t_trigger_us": 69989037,
      "is_ai": false,
      "track_id": 0,
      "velocity": 0,
      "is_motor": true,
      "motor_id": 0,
      "accel_val": 2000,
      "base_duration_us": 187500
    },
    {
      "id": "M_855",
      "pitch": 72,
      "t_note_us": 70125000,
      "t_trigger_us": 69989037,
      "is_ai": false,
      "track_id": 0,
      "velocity": 0,
      "is_motor": true,
      "motor_id": 1,
      "accel_val": 2000,
      "base_duration_us": 375000
    },
    {
      "id": "M_856",
      "pitch": 76,
      "t_note_us": 70125000,
      "t_trigger_us": 69989037,
      "is_ai": false,
      "track_id": 0,
      "velocity": 0,
      "is_motor": true,
      "motor_id": 2,
      "accel_val": 2000,
      "base_duration_us": 375000
    },
    {
      "id": "M_857",
      "pitch": 69,
      "t_note_us": 70125000,
      "t_trigger_us": 69989037,
      "is_ai": false,
      "track_id": 0,
      "velocity": 0,
      "is_motor": true,
      "motor_id": 3,
      "accel_val": 2000,
      "base_duration_us": 375000
    },
    {
      "id": "M_858",
      "pitch": 57,
      "t_note_us": 70312500,
      "t_trigger_us": 70176537,
      "is_ai": false,
      "track_id": 0,
      "velocity": 0,
      "is_motor": true,
      "motor_id": 0,
      "accel_val": 2000,
      "base_duration_us": 187500
    },
    {
      "id": "M_859",
      "pitch": 64,
      "t_note_us": 70500000,
      "t_trigger_us": 70364037,
      "is_ai": false,
      "track_id": 0,
      "velocity": 0,
      "is_motor": true,
      "motor_id": 1,
      "accel_val": 2000,
      "base_duration_us": 187500
    },
    {
      "id": "M_860",
      "pitch": 69,
      "t_note_us": 70500000,
      "t_trigger_us": 70364037,
      "is_ai": false,
      "track_id": 0,
      "velocity": 0,
      "is_motor": true,
      "motor_id": 2,
      "accel_val": 2000,
      "base_duration_us": 187500
    },
    {
      "id": "M_861",
      "pitch": 71,
      "t_note_us": 70500000,
      "t_trigger_us": 70364037,
      "is_ai": false,
      "track_id": 0,
      "velocity": 0,
      "is_motor": true,
      "motor_id": 0,
      "accel_val": 2000,
      "base_duration_us": 375000
    },
    {
      "id": "M_862",
      "pitch": 76,
      "t_note_us": 70500000,
      "t_trigger_us": 70364037,
      "is_ai": false,
      "track_id": 0,
      "velocity": 0,
      "is_motor": true,
      "motor_id": 3,
      "accel_val": 2000,
      "base_duration_us": 375000
    },
    {
      "id": "M_863",
      "pitch": 67,
      "t_note_us": 70500000,
      "t_trigger_us": 70364037,
      "is_ai": false,
      "track_id": 0,
      "velocity": 0,
      "is_motor": true,
      "motor_id": 0,
      "accel_val": 2000,
      "base_duration_us": 375000
    },
    {
      "id": "M_864",
      "pitch": 57,
      "t_note_us": 70687500,
      "t_trigger_us": 70551537,
      "is_ai": false,
      "track_id": 0,
      "velocity": 0,
      "is_motor": true,
      "motor_id": 1,
      "accel_val": 2000,
      "base_duration_us": 187500
    },
    {
      "id": "M_865",
      "pitch": 60,
      "t_note_us": 70875000,
      "t_trigger_us": 70739037,
      "is_ai": false,
      "track_id": 0,
      "velocity": 0,
      "is_motor": true,
      "motor_id": 1,
      "accel_val": 2000,
      "base_duration_us": 187500
    },
    {
      "id": "M_866",
      "pitch": 69,
      "t_note_us": 70875000,
      "t_trigger_us": 70739037,
      "is_ai": false,
      "track_id": 0,
      "velocity": 0,
      "is_motor": true,
      "motor_id": 2,
      "accel_val": 2000,
      "base_duration_us": 375000
    },
    {
      "id": "M_867",
      "pitch": 72,
      "t_note_us": 70875000,
      "t_trigger_us": 70739037,
      "is_ai": false,
      "track_id": 0,
      "velocity": 0,
      "is_motor": true,
      "motor_id": 0,
      "accel_val": 2000,
      "base_duration_us": 375000
    },
    {
      "id": "M_872",
      "pitch": 76,
      "t_note_us": 70875000,
      "t_trigger_us": 70739037,
      "is_ai": false,
      "track_id": 0,
      "velocity": 0,
      "is_motor": true,
      "motor_id": 3,
      "accel_val": 2000,
      "base_duration_us": 750000
    },
    {
      "id": "M_868",
      "pitch": 72,
      "t_note_us": 71062500,
      "t_trigger_us": 70926537,
      "is_ai": false,
      "track_id": 0,
      "velocity": 0,
      "is_motor": true,
      "motor_id": 1,
      "accel_val": 2000,
      "base_duration_us": 187500
    },
    {
      "id": "M_869",
      "pitch": 60,
      "t_note_us": 71250000,
      "t_trigger_us": 71114037,
      "is_ai": false,
      "track_id": 0,
      "velocity": 0,
      "is_motor": true,
      "motor_id": 1,
      "accel_val": 2000,
      "base_duration_us": 187500
    },
    {
      "id": "M_870",
      "pitch": 71,
      "t_note_us": 71250000,
      "t_trigger_us": 71114037,
      "is_ai": false,
      "track_id": 0,
      "velocity": 0,
      "is_motor": true,
      "motor_id": 2,
      "accel_val": 2000,
      "base_duration_us": 375000
    },
    {
      "id": "M_871",
      "pitch": 74,
      "t_note_us": 71250000,
      "t_trigger_us": 71114037,
      "is_ai": false,
      "track_id": 0,
      "velocity": 0,
      "is_motor": true,
      "motor_id": 0,
      "accel_val": 2000,
      "base_duration_us": 375000
    },
    {
      "id": "M_873",
      "pitch": 72,
      "t_note_us": 71437500,
      "t_trigger_us": 71301537,
      "is_ai": false,
      "track_id": 0,
      "velocity": 0,
      "is_motor": true,
      "motor_id": 1,
      "accel_val": 2000,
      "base_duration_us": 187500
    },
    {
      "id": "M_874",
      "pitch": 52,
      "t_note_us": 71625000,
      "t_trigger_us": 71489037,
      "is_ai": false,
      "track_id": 0,
      "velocity": 0,
      "is_motor": true,
      "motor_id": 0,
      "accel_val": 2000,
      "base_duration_us": 187500
    },
    {
      "id": "M_875",
      "pitch": 72,
      "t_note_us": 71625000,
      "t_trigger_us": 71489037,
      "is_ai": false,
      "track_id": 0,
      "velocity": 0,
      "is_motor": true,
      "motor_id": 1,
      "accel_val": 2000,
      "base_duration_us": 375000
    },
    {
      "id": "M_876",
      "pitch": 67,
      "t_note_us": 71625000,
      "t_trigger_us": 71489037,
      "is_ai": false,
      "track_id": 0,
      "velocity": 0,
      "is_motor": true,
      "motor_id": 2,
      "accel_val": 2000,
      "base_duration_us": 375000
    },
    {
      "id": "M_877",
      "pitch": 64,
      "t_note_us": 71812500,
      "t_trigger_us": 71676537,
      "is_ai": false,
      "track_id": 0,
      "velocity": 0,
      "is_motor": true,
      "motor_id": 0,
      "accel_val": 2000,
      "base_duration_us": 187500
    },
    {
      "id": "M_878",
      "pitch": 52,
      "t_note_us": 72000000,
      "t_trigger_us": 71864037,
      "is_ai": false,
      "track_id": 0,
      "velocity": 0,
      "is_motor": true,
      "motor_id": 0,
      "accel_val": 2000,
      "base_duration_us": 187500
    },
    {
      "id": "M_879",
      "pitch": 71,
      "t_note_us": 72000000,
      "t_trigger_us": 71864037,
      "is_ai": false,
      "track_id": 0,
      "velocity": 0,
      "is_motor": true,
      "motor_id": 1,
      "accel_val": 2000,
      "base_duration_us": 375000
    },
    {
      "id": "M_880",
      "pitch": 76,
      "t_note_us": 72000000,
      "t_trigger_us": 71864037,
      "is_ai": false,
      "track_id": 0,
      "velocity": 0,
      "is_motor": true,
      "motor_id": 2,
      "accel_val": 2000,
      "base_duration_us": 375000
    },
    {
      "id": "M_881",
      "pitch": 69,
      "t_note_us": 72000000,
      "t_trigger_us": 71864037,
      "is_ai": false,
      "track_id": 0,
      "velocity": 0,
      "is_motor": true,
      "motor_id": 3,
      "accel_val": 2000,
      "base_duration_us": 375000
    },
    {
      "id": "M_882",
      "pitch": 64,
      "t_note_us": 72187500,
      "t_trigger_us": 72051537,
      "is_ai": false,
      "track_id": 0,
      "velocity": 0,
      "is_motor": true,
      "motor_id": 0,
      "accel_val": 2000,
      "base_duration_us": 187500
    },
    {
      "id": "M_889",
      "pitch": 88,
      "t_note_us": 72375000,
      "t_trigger_us": 72239037,
      "is_ai": true,
      "track_id": 5,
      "velocity": 0,
      "is_motor": false,
      "motor_id": 0,
      "accel_val": 2000,
      "base_duration_us": 750000
    },
    {
      "id": "M_890",
      "pitch": 96,
      "t_note_us": 72375000,
      "t_trigger_us": 72239037,
      "is_ai": true,
      "track_id": 10,
      "velocity": 0,
      "is_motor": false,
      "motor_id": 0,
      "accel_val": 2000,
      "base_duration_us": 750000
    },
    {
      "id": "M_883",
      "pitch": 53,
      "t_note_us": 72375000,
      "t_trigger_us": 72239037,
      "is_ai": false,
      "track_id": 0,
      "velocity": 0,
      "is_motor": true,
      "motor_id": 0,
      "accel_val": 2000,
      "base_duration_us": 187500
    },
    {
      "id": "M_885",
      "pitch": 76,
      "t_note_us": 72375000,
      "t_trigger_us": 72239037,
      "is_ai": false,
      "track_id": 0,
      "velocity": 0,
      "is_motor": true,
      "motor_id": 2,
      "accel_val": 2000,
      "base_duration_us": 562500
    },
    {
      "id": "M_884",
      "pitch": 53,
      "t_note_us": 72562500,
      "t_trigger_us": 72426537,
      "is_ai": false,
      "track_id": 0,
      "velocity": 0,
      "is_motor": true,
      "motor_id": 0,
      "accel_val": 2000,
      "base_duration_us": 187500
    },
    {
      "id": "M_886",
      "pitch": 60,
      "t_note_us": 72750000,
      "t_trigger_us": 72614037,
      "is_ai": false,
      "track_id": 0,
      "velocity": 0,
      "is_motor": true,
      "motor_id": 1,
      "accel_val": 2000,
      "base_duration_us": 187500
    },
    {
      "id": "M_887",
      "pitch": 65,
      "t_note_us": 72750000,
      "t_trigger_us": 72614037,
      "is_ai": false,
      "track_id": 0,
      "velocity": 0,
      "is_motor": true,
      "motor_id": 0,
      "accel_val": 2000,
      "base_duration_us": 187500
    },
    {
      "id": "M_888",
      "pitch": 76,
      "t_note_us": 72937500,
      "t_trigger_us": 72801537,
      "is_ai": false,
      "track_id": 0,
      "velocity": 0,
      "is_motor": true,
      "motor_id": 2,
      "accel_val": 2000,
      "base_duration_us": 187500
    },
    {
      "id": "M_891",
      "pitch": 53,
      "t_note_us": 72937500,
      "t_trigger_us": 72801537,
      "is_ai": false,
      "track_id": 0,
      "velocity": 0,
      "is_motor": true,
      "motor_id": 0,
      "accel_val": 2000,
      "base_duration_us": 187500
    },
    {
      "id": "M_892",
      "pitch": 53,
      "t_note_us": 73125000,
      "t_trigger_us": 72989037,
      "is_ai": false,
      "track_id": 0,
      "velocity": 0,
      "is_motor": true,
      "motor_id": 0,
      "accel_val": 2000,
      "base_duration_us": 187500
    },
    {
      "id": "M_893",
      "pitch": 69,
      "t_note_us": 73125000,
      "t_trigger_us": 72989037,
      "is_ai": false,
      "track_id": 0,
      "velocity": 0,
      "is_motor": true,
      "motor_id": 1,
      "accel_val": 2000,
      "base_duration_us": 375000
    },
    {
      "id": "M_899",
      "pitch": 71,
      "t_note_us": 73125000,
      "t_trigger_us": 72989037,
      "is_ai": false,
      "track_id": 0,
      "velocity": 0,
      "is_motor": true,
      "motor_id": 2,
      "accel_val": 2000,
      "base_duration_us": 750000
    },
    {
      "id": "M_900",
      "pitch": 74,
      "t_note_us": 73125000,
      "t_trigger_us": 72989037,
      "is_ai": false,
      "track_id": 0,
      "velocity": 0,
      "is_motor": true,
      "motor_id": 3,
      "accel_val": 2000,
      "base_duration_us": 750000
    },
    {
      "id": "M_894",
      "pitch": 53,
      "t_note_us": 73312500,
      "t_trigger_us": 73176537,
      "is_ai": false,
      "track_id": 0,
      "velocity": 0,
      "is_motor": true,
      "motor_id": 0,
      "accel_val": 2000,
      "base_duration_us": 187500
    },
    {
      "id": "M_895",
      "pitch": 60,
      "t_note_us": 73500000,
      "t_trigger_us": 73364037,
      "is_ai": false,
      "track_id": 0,
      "velocity": 0,
      "is_motor": true,
      "motor_id": 1,
      "accel_val": 2000,
      "base_duration_us": 187500
    },
    {
      "id": "M_896",
      "pitch": 65,
      "t_note_us": 73500000,
      "t_trigger_us": 73364037,
      "is_ai": false,
      "track_id": 0,
      "velocity": 0,
      "is_motor": true,
      "motor_id": 0,
      "accel_val": 2000,
      "base_duration_us": 187500
    },
    {
      "id": "M_897",
      "pitch": 76,
      "t_note_us": 73500000,
      "t_trigger_us": 73364037,
      "is_ai": false,
      "track_id": 0,
      "velocity": 0,
      "is_motor": true,
      "motor_id": 0,
      "accel_val": 2000,
      "base_duration_us": 375000
    },
    {
      "id": "M_898",
      "pitch": 69,
      "t_note_us": 73500000,
      "t_trigger_us": 73364037,
      "is_ai": false,
      "track_id": 0,
      "velocity": 0,
      "is_motor": true,
      "motor_id": 0,
      "accel_val": 2000,
      "base_duration_us": 375000
    },
    {
      "id": "M_901",
      "pitch": 53,
      "t_note_us": 73687500,
      "t_trigger_us": 73551537,
      "is_ai": false,
      "track_id": 0,
      "velocity": 0,
      "is_motor": true,
      "motor_id": 0,
      "accel_val": 2000,
      "base_duration_us": 187500
    },
    {
      "id": "M_902",
      "pitch": 55,
      "t_note_us": 73875000,
      "t_trigger_us": 73739037,
      "is_ai": false,
      "track_id": 0,
      "velocity": 0,
      "is_motor": true,
      "motor_id": 0,
      "accel_val": 2000,
      "base_duration_us": 187500
    },
    {
      "id": "M_903",
      "pitch": 76,
      "t_note_us": 73875000,
      "t_trigger_us": 73739037,
      "is_ai": false,
      "track_id": 0,
      "velocity": 0,
      "is_motor": true,
      "motor_id": 2,
      "accel_val": 2000,
      "base_duration_us": 375000
    },
    {
      "id": "M_904",
      "pitch": 67,
      "t_note_us": 73875000,
      "t_trigger_us": 73739037,
      "is_ai": false,
      "track_id": 0,
      "velocity": 0,
      "is_motor": true,
      "motor_id": 1,
      "accel_val": 2000,
      "base_duration_us": 375000
    },
    {
      "id": "M_910",
      "pitch": 69,
      "t_note_us": 73875000,
      "t_trigger_us": 73739037,
      "is_ai": false,
      "track_id": 0,
      "velocity": 0,
      "is_motor": true,
      "motor_id": 3,
      "accel_val": 2000,
      "base_duration_us": 750000
    },
    {
      "id": "M_911",
      "pitch": 72,
      "t_note_us": 73875000,
      "t_trigger_us": 73739037,
      "is_ai": false,
      "track_id": 0,
      "velocity": 0,
      "is_motor": true,
      "motor_id": 0,
      "accel_val": 2000,
      "base_duration_us": 750000
    },
    {
      "id": "M_905",
      "pitch": 55,
      "t_note_us": 74062500,
      "t_trigger_us": 73926537,
      "is_ai": false,
      "track_id": 0,
      "velocity": 0,
      "is_motor": true,
      "motor_id": 0,
      "accel_val": 2000,
      "base_duration_us": 187500
    },
    {
      "id": "M_906",
      "pitch": 62,
      "t_note_us": 74250000,
      "t_trigger_us": 74114037,
      "is_ai": false,
      "track_id": 0,
      "velocity": 0,
      "is_motor": true,
      "motor_id": 1,
      "accel_val": 2000,
      "base_duration_us": 187500
    },
    {
      "id": "M_907",
      "pitch": 67,
      "t_note_us": 74250000,
      "t_trigger_us": 74114037,
      "is_ai": false,
      "track_id": 0,
      "velocity": 0,
      "is_motor": true,
      "motor_id": 2,
      "accel_val": 2000,
      "base_duration_us": 187500
    },
    {
      "id": "M_908",
      "pitch": 76,
      "t_note_us": 74250000,
      "t_trigger_us": 74114037,
      "is_ai": false,
      "track_id": 0,
      "velocity": 0,
      "is_motor": true,
      "motor_id": 0,
      "accel_val": 2000,
      "base_duration_us": 375000
    },
    {
      "id": "M_909",
      "pitch": 69,
      "t_note_us": 74250000,
      "t_trigger_us": 74114037,
      "is_ai": false,
      "track_id": 0,
      "velocity": 0,
      "is_motor": true,
      "motor_id": 0,
      "accel_val": 2000,
      "base_duration_us": 375000
    },
    {
      "id": "M_912",
      "pitch": 55,
      "t_note_us": 74437500,
      "t_trigger_us": 74301537,
      "is_ai": false,
      "track_id": 0,
      "velocity": 0,
      "is_motor": true,
      "motor_id": 1,
      "accel_val": 2000,
      "base_duration_us": 187500
    },
    {
      "id": "M_913",
      "pitch": 55,
      "t_note_us": 74625000,
      "t_trigger_us": 74489037,
      "is_ai": false,
      "track_id": 0,
      "velocity": 0,
      "is_motor": true,
      "motor_id": 0,
      "accel_val": 2000,
      "base_duration_us": 187500
    },
    {
      "id": "M_914",
      "pitch": 76,
      "t_note_us": 74625000,
      "t_trigger_us": 74489037,
      "is_ai": false,
      "track_id": 0,
      "velocity": 0,
      "is_motor": true,
      "motor_id": 2,
      "accel_val": 2000,
      "base_duration_us": 375000
    },
    {
      "id": "M_915",
      "pitch": 69,
      "t_note_us": 74625000,
      "t_trigger_us": 74489037,
      "is_ai": false,
      "track_id": 0,
      "velocity": 0,
      "is_motor": true,
      "motor_id": 1,
      "accel_val": 2000,
      "base_duration_us": 375000
    },
    {
      "id": "M_916",
      "pitch": 55,
      "t_note_us": 74812500,
      "t_trigger_us": 74676537,
      "is_ai": false,
      "track_id": 0,
      "velocity": 0,
      "is_motor": true,
      "motor_id": 0,
      "accel_val": 2000,
      "base_duration_us": 187500
    },
    {
      "id": "M_917",
      "pitch": 62,
      "t_note_us": 75000000,
      "t_trigger_us": 74864037,
      "is_ai": false,
      "track_id": 0,
      "velocity": 0,
      "is_motor": true,
      "motor_id": 1,
      "accel_val": 2000,
      "base_duration_us": 187500
    },
    {
      "id": "M_918",
      "pitch": 67,
      "t_note_us": 75000000,
      "t_trigger_us": 74864037,
      "is_ai": false,
      "track_id": 0,
      "velocity": 0,
      "is_motor": true,
      "motor_id": 2,
      "accel_val": 2000,
      "base_duration_us": 187500
    },
    {
      "id": "M_919",
      "pitch": 71,
      "t_note_us": 75187500,
      "t_trigger_us": 75051537,
      "is_ai": false,
      "track_id": 0,
      "velocity": 0,
      "is_motor": true,
      "motor_id": 1,
      "accel_val": 2000,
      "base_duration_us": 187500
    },
    {
      "id": "M_920",
      "pitch": 74,
      "t_note_us": 75187500,
      "t_trigger_us": 75051537,
      "is_ai": false,
      "track_id": 0,
      "velocity": 0,
      "is_motor": true,
      "motor_id": 0,
      "accel_val": 2000,
      "base_duration_us": 187500
    },
    {
      "id": "M_921",
      "pitch": 67,
      "t_note_us": 75187500,
      "t_trigger_us": 75051537,
      "is_ai": false,
      "track_id": 0,
      "velocity": 0,
      "is_motor": true,
      "motor_id": 2,
      "accel_val": 2000,
      "base_duration_us": 187500
    },
    {
      "id": "M_922",
      "pitch": 55,
      "t_note_us": 75187500,
      "t_trigger_us": 75051537,
      "is_ai": false,
      "track_id": 0,
      "velocity": 0,
      "is_motor": true,
      "motor_id": 3,
      "accel_val": 2000,
      "base_duration_us": 187500
    },
    {
      "id": "M_923",
      "pitch": 72,
      "t_note_us": 75375000,
      "t_trigger_us": 75239037,
      "is_ai": false,
      "track_id": 0,
      "velocity": 0,
      "is_motor": true,
      "motor_id": 1,
      "accel_val": 2000,
      "base_duration_us": 187500
    },
    {
      "id": "M_924",
      "pitch": 76,
      "t_note_us": 75375000,
      "t_trigger_us": 75239037,
      "is_ai": false,
      "track_id": 0,
      "velocity": 0,
      "is_motor": true,
      "motor_id": 2,
      "accel_val": 2000,
      "base_duration_us": 187500
    },
    {
      "id": "M_925",
      "pitch": 69,
      "t_note_us": 75375000,
      "t_trigger_us": 75239037,
      "is_ai": false,
      "track_id": 0,
      "velocity": 0,
      "is_motor": true,
      "motor_id": 0,
      "accel_val": 2000,
      "base_duration_us": 187500
    },
    {
      "id": "M_926",
      "pitch": 57,
      "t_note_us": 75375000,
      "t_trigger_us": 75239037,
      "is_ai": false,
      "track_id": 0,
      "velocity": 0,
      "is_motor": true,
      "motor_id": 3,
      "accel_val": 2000,
      "base_duration_us": 187500
    },
    {
      "id": "M_927",
      "pitch": 76,
      "t_note_us": 75562500,
      "t_trigger_us": 75426537,
      "is_ai": false,
      "track_id": 0,
      "velocity": 0,
      "is_motor": true,
      "motor_id": 2,
      "accel_val": 2000,
      "base_duration_us": 187500
    },
    {
      "id": "M_928",
      "pitch": 69,
      "t_note_us": 75562500,
      "t_trigger_us": 75426537,
      "is_ai": false,
      "track_id": 0,
      "velocity": 0,
      "is_motor": true,
      "motor_id": 1,
      "accel_val": 2000,
      "base_duration_us": 187500
    },
    {
      "id": "M_929",
      "pitch": 69,
      "t_note_us": 75562500,
      "t_trigger_us": 75426537,
      "is_ai": false,
      "track_id": 0,
      "velocity": 0,
      "is_motor": true,
      "motor_id": 0,
      "accel_val": 2000,
      "base_duration_us": 187500
    },
    {
      "id": "M_930",
      "pitch": 76,
      "t_note_us": 75750000,
      "t_trigger_us": 75614037,
      "is_ai": false,
      "track_id": 0,
      "velocity": 0,
      "is_motor": true,
      "motor_id": 2,
      "accel_val": 2000,
      "base_duration_us": 187500
    },
    {
      "id": "M_931",
      "pitch": 69,
      "t_note_us": 75750000,
      "t_trigger_us": 75614037,
      "is_ai": false,
      "track_id": 0,
      "velocity": 0,
      "is_motor": true,
      "motor_id": 1,
      "accel_val": 2000,
      "base_duration_us": 187500
    },
    {
      "id": "M_932",
      "pitch": 57,
      "t_note_us": 75750000,
      "t_trigger_us": 75614037,
      "is_ai": false,
      "track_id": 0,
      "velocity": 0,
      "is_motor": true,
      "motor_id": 0,
      "accel_val": 2000,
      "base_duration_us": 187500
    },
    {
      "id": "M_936",
      "pitch": 96,
      "t_note_us": 75937500,
      "t_trigger_us": 75801537,
      "is_ai": true,
      "track_id": 10,
      "velocity": 0,
      "is_motor": false,
      "motor_id": 0,
      "accel_val": 2000,
      "base_duration_us": 375000
    },
    {
      "id": "M_933",
      "pitch": 69,
      "t_note_us": 75937500,
      "t_trigger_us": 75801537,
      "is_ai": false,
      "track_id": 0,
      "velocity": 0,
      "is_motor": true,
      "motor_id": 1,
      "accel_val": 2000,
      "base_duration_us": 187500
    },
    {
      "id": "M_934",
      "pitch": 76,
      "t_note_us": 75937500,
      "t_trigger_us": 75801537,
      "is_ai": false,
      "track_id": 0,
      "velocity": 0,
      "is_motor": true,
      "motor_id": 2,
      "accel_val": 2000,
      "base_duration_us": 375000
    },
    {
      "id": "M_935",
      "pitch": 67,
      "t_note_us": 75937500,
      "t_trigger_us": 75801537,
      "is_ai": false,
      "track_id": 0,
      "velocity": 0,
      "is_motor": true,
      "motor_id": 0,
      "accel_val": 2000,
      "base_duration_us": 375000
    },
    {
      "id": "M_937",
      "pitch": 59,
      "t_note_us": 76125000,
      "t_trigger_us": 75989037,
      "is_ai": false,
      "track_id": 0,
      "velocity": 0,
      "is_motor": true,
      "motor_id": 1,
      "accel_val": 2000,
      "base_duration_us": 187500
    },
    {
      "id": "M_939",
      "pitch": 96,
      "t_note_us": 76312500,
      "t_trigger_us": 76176537,
      "is_ai": true,
      "track_id": 10,
      "velocity": 0,
      "is_motor": false,
      "motor_id": 0,
      "accel_val": 2000,
      "base_duration_us": 187500
    },
    {
      "id": "M_938",
      "pitch": 67,
      "t_note_us": 76312500,
      "t_trigger_us": 76176537,
      "is_ai": false,
      "track_id": 0,
      "velocity": 0,
      "is_motor": true,
      "motor_id": 1,
      "accel_val": 2000,
      "base_duration_us": 187500
    },
    {
      "id": "M_940",
      "pitch": 71,
      "t_note_us": 76312500,
      "t_trigger_us": 76176537,
      "is_ai": false,
      "track_id": 0,
      "velocity": 0,
      "is_motor": true,
      "motor_id": 2,
      "accel_val": 2000,
      "base_duration_us": 187500
    },
    {
      "id": "M_941",
      "pitch": 59,
      "t_note_us": 76500000,
      "t_trigger_us": 76364037,
      "is_ai": false,
      "track_id": 0,
      "velocity": 0,
      "is_motor": true,
      "motor_id": 0,
      "accel_val": 2000,
      "base_duration_us": 187500
    },
    {
      "id": "M_942",
      "pitch": 76,
      "t_note_us": 76500000,
      "t_trigger_us": 76364037,
      "is_ai": false,
      "track_id": 0,
      "velocity": 0,
      "is_motor": true,
      "motor_id": 2,
      "accel_val": 2000,
      "base_duration_us": 375000
    },
    {
      "id": "M_943",
      "pitch": 69,
      "t_note_us": 76500000,
      "t_trigger_us": 76364037,
      "is_ai": false,
      "track_id": 0,
      "velocity": 0,
      "is_motor": true,
      "motor_id": 1,
      "accel_val": 2000,
      "base_duration_us": 375000
    },
    {
      "id": "M_944",
      "pitch": 76,
      "t_note_us": 76500000,
      "t_trigger_us": 76364037,
      "is_ai": false,
      "track_id": 0,
      "velocity": 0,
      "is_motor": true,
      "motor_id": 3,
      "accel_val": 2000,
      "base_duration_us": 375000
    },
    {
      "id": "M_945",
      "pitch": 71,
      "t_note_us": 76687500,
      "t_trigger_us": 76551537,
      "is_ai": false,
      "track_id": 0,
      "velocity": 0,
      "is_motor": true,
      "motor_id": 0,
      "accel_val": 2000,
      "base_duration_us": 187500
    },
    {
      "id": "M_946",
      "pitch": 60,
      "t_note_us": 76875000,
      "t_trigger_us": 76739037,
      "is_ai": false,
      "track_id": 0,
      "velocity": 0,
      "is_motor": true,
      "motor_id": 1,
      "accel_val": 2000,
      "base_duration_us": 187500
    },
    {
      "id": "M_949",
      "pitch": 76,
      "t_note_us": 76875000,
      "t_trigger_us": 76739037,
      "is_ai": false,
      "track_id": 0,
      "velocity": 0,
      "is_motor": true,
      "motor_id": 2,
      "accel_val": 2000,
      "base_duration_us": 750000
    },
    {
      "id": "M_950",
      "pitch": 69,
      "t_note_us": 76875000,
      "t_trigger_us": 76739037,
      "is_ai": false,
      "track_id": 0,
      "velocity": 0,
      "is_motor": true,
      "motor_id": 0,
      "accel_val": 2000,
      "base_duration_us": 750000
    },
    {
      "id": "M_951",
      "pitch": 76,
      "t_note_us": 76875000,
      "t_trigger_us": 76739037,
      "is_ai": false,
      "track_id": 0,
      "velocity": 0,
      "is_motor": true,
      "motor_id": 3,
      "accel_val": 2000,
      "base_duration_us": 750000
    },
    {
      "id": "M_947",
      "pitch": 72,
      "t_note_us": 77062500,
      "t_trigger_us": 76926537,
      "is_ai": false,
      "track_id": 0,
      "velocity": 0,
      "is_motor": true,
      "motor_id": 1,
      "accel_val": 2000,
      "base_duration_us": 187500
    },
    {
      "id": "M_948",
      "pitch": 60,
      "t_note_us": 77250000,
      "t_trigger_us": 77114037,
      "is_ai": false,
      "track_id": 0,
      "velocity": 0,
      "is_motor": true,
      "motor_id": 1,
      "accel_val": 2000,
      "base_duration_us": 187500
    },
    {
      "id": "M_952",
      "pitch": 72,
      "t_note_us": 77437500,
      "t_trigger_us": 77301537,
      "is_ai": false,
      "track_id": 0,
      "velocity": 0,
      "is_motor": true,
      "motor_id": 1,
      "accel_val": 2000,
      "base_duration_us": 187500
    },
    {
      "id": "M_953",
      "pitch": 64,
      "t_note_us": 77625000,
      "t_trigger_us": 77489037,
      "is_ai": false,
      "track_id": 0,
      "velocity": 0,
      "is_motor": true,
      "motor_id": 1,
      "accel_val": 2000,
      "base_duration_us": 187500
    },
    {
      "id": "M_954",
      "pitch": 74,
      "t_note_us": 77625000,
      "t_trigger_us": 77489037,
      "is_ai": false,
      "track_id": 0,
      "velocity": 0,
      "is_motor": true,
      "motor_id": 0,
      "accel_val": 2000,
      "base_duration_us": 375000
    },
    {
      "id": "M_955",
      "pitch": 67,
      "t_note_us": 77625000,
      "t_trigger_us": 77489037,
      "is_ai": false,
      "track_id": 0,
      "velocity": 0,
      "is_motor": true,
      "motor_id": 2,
      "accel_val": 2000,
      "base_duration_us": 375000
    },
    {
      "id": "M_956",
      "pitch": 76,
      "t_note_us": 77812500,
      "t_trigger_us": 77676537,
      "is_ai": false,
      "track_id": 0,
      "velocity": 0,
      "is_motor": true,
      "motor_id": 1,
      "accel_val": 2000,
      "base_duration_us": 187500
    },
    {
      "id": "M_957",
      "pitch": 64,
      "t_note_us": 78000000,
      "t_trigger_us": 77864037,
      "is_ai": false,
      "track_id": 0,
      "velocity": 0,
      "is_motor": true,
      "motor_id": 1,
      "accel_val": 2000,
      "base_duration_us": 187500
    },
    {
      "id": "M_958",
      "pitch": 76,
      "t_note_us": 78000000,
      "t_trigger_us": 77864037,
      "is_ai": false,
      "track_id": 0,
      "velocity": 0,
      "is_motor": true,
      "motor_id": 2,
      "accel_val": 2000,
      "base_duration_us": 375000
    },
    {
      "id": "M_959",
      "pitch": 69,
      "t_note_us": 78000000,
      "t_trigger_us": 77864037,
      "is_ai": false,
      "track_id": 0,
      "velocity": 0,
      "is_motor": true,
      "motor_id": 0,
      "accel_val": 2000,
      "base_duration_us": 375000
    },
    {
      "id": "M_960",
      "pitch": 76,
      "t_note_us": 78187500,
      "t_trigger_us": 78051537,
      "is_ai": false,
      "track_id": 0,
      "velocity": 0,
      "is_motor": true,
      "motor_id": 1,
      "accel_val": 2000,
      "base_duration_us": 187500
    },
    {
      "id": "M_967",
      "pitch": 88,
      "t_note_us": 78375000,
      "t_trigger_us": 78239037,
      "is_ai": true,
      "track_id": 5,
      "velocity": 0,
      "is_motor": false,
      "motor_id": 0,
      "accel_val": 2000,
      "base_duration_us": 1125000
    },
    {
      "id": "M_969",
      "pitch": 96,
      "t_note_us": 78375000,
      "t_trigger_us": 78239037,
      "is_ai": true,
      "track_id": 10,
      "velocity": 0,
      "is_motor": false,
      "motor_id": 0,
      "accel_val": 2000,
      "base_duration_us": 1125000
    },
    {
      "id": "M_961",
      "pitch": 53,
      "t_note_us": 78375000,
      "t_trigger_us": 78239037,
      "is_ai": false,
      "track_id": 0,
      "velocity": 0,
      "is_motor": true,
      "motor_id": 0,
      "accel_val": 2000,
      "base_duration_us": 187500
    },
    {
      "id": "M_968",
      "pitch": 69,
      "t_note_us": 78375000,
      "t_trigger_us": 78239037,
      "is_ai": false,
      "track_id": 0,
      "velocity": 0,
      "is_motor": true,
      "motor_id": 1,
      "accel_val": 2000,
      "base_duration_us": 1125000
    },
    {
      "id": "M_970",
      "pitch": 76,
      "t_note_us": 78375000,
      "t_trigger_us": 78239037,
      "is_ai": false,
      "track_id": 0,
      "velocity": 0,
      "is_motor": true,
      "motor_id": 2,
      "accel_val": 2000,
      "base_duration_us": 1125000
    },
    {
      "id": "M_962",
      "pitch": 53,
      "t_note_us": 78562500,
      "t_trigger_us": 78426537,
      "is_ai": false,
      "track_id": 0,
      "velocity": 0,
      "is_motor": true,
      "motor_id": 0,
      "accel_val": 2000,
      "base_duration_us": 187500
    },
    {
      "id": "M_963",
      "pitch": 60,
      "t_note_us": 78750000,
      "t_trigger_us": 78614037,
      "is_ai": false,
      "track_id": 0,
      "velocity": 0,
      "is_motor": true,
      "motor_id": 0,
      "accel_val": 2000,
      "base_duration_us": 187500
    },
    {
      "id": "M_964",
      "pitch": 65,
      "t_note_us": 78750000,
      "t_trigger_us": 78614037,
      "is_ai": false,
      "track_id": 0,
      "velocity": 0,
      "is_motor": true,
      "motor_id": 3,
      "accel_val": 2000,
      "base_duration_us": 187500
    },
    {
      "id": "M_965",
      "pitch": 53,
      "t_note_us": 78937500,
      "t_trigger_us": 78801537,
      "is_ai": false,
      "track_id": 0,
      "velocity": 0,
      "is_motor": true,
      "motor_id": 0,
      "accel_val": 2000,
      "base_duration_us": 187500
    },
    {
      "id": "M_966",
      "pitch": 53,
      "t_note_us": 79125000,
      "t_trigger_us": 78989037,
      "is_ai": false,
      "track_id": 0,
      "velocity": 0,
      "is_motor": true,
      "motor_id": 0,
      "accel_val": 2000,
      "base_duration_us": 187500
    },
    {
      "id": "M_971",
      "pitch": 53,
      "t_note_us": 79312500,
      "t_trigger_us": 79176537,
      "is_ai": false,
      "track_id": 0,
      "velocity": 0,
      "is_motor": true,
      "motor_id": 0,
      "accel_val": 2000,
      "base_duration_us": 187500
    },
    {
      "id": "M_972",
      "pitch": 72,
      "t_note_us": 79500000,
      "t_trigger_us": 79364037,
      "is_ai": false,
      "track_id": 0,
      "velocity": 0,
      "is_motor": true,
      "motor_id": 1,
      "accel_val": 2000,
      "base_duration_us": 187500
    },
    {
      "id": "M_973",
      "pitch": 76,
      "t_note_us": 79500000,
      "t_trigger_us": 79364037,
      "is_ai": false,
      "track_id": 0,
      "velocity": 0,
      "is_motor": true,
      "motor_id": 2,
      "accel_val": 2000,
      "base_duration_us": 187500
    },
    {
      "id": "M_974",
      "pitch": 69,
      "t_note_us": 79500000,
      "t_trigger_us": 79364037,
      "is_ai": false,
      "track_id": 0,
      "velocity": 0,
      "is_motor": true,
      "motor_id": 0,
      "accel_val": 2000,
      "base_duration_us": 187500
    },
    {
      "id": "M_975",
      "pitch": 60,
      "t_note_us": 79500000,
      "t_trigger_us": 79364037,
      "is_ai": false,
      "track_id": 0,
      "velocity": 0,
      "is_motor": true,
      "motor_id": 3,
      "accel_val": 2000,
      "base_duration_us": 187500
    },
    {
      "id": "M_976",
      "pitch": 65,
      "t_note_us": 79500000,
      "t_trigger_us": 79364037,
      "is_ai": false,
      "track_id": 0,
      "velocity": 0,
      "is_motor": true,
      "motor_id": 0,
      "accel_val": 2000,
      "base_duration_us": 187500
    },
    {
      "id": "M_977",
      "pitch": 76,
      "t_note_us": 79687500,
      "t_trigger_us": 79551537,
      "is_ai": false,
      "track_id": 0,
      "velocity": 0,
      "is_motor": true,
      "motor_id": 2,
      "accel_val": 2000,
      "base_duration_us": 187500
    },
    {
      "id": "M_978",
      "pitch": 69,
      "t_note_us": 79687500,
      "t_trigger_us": 79551537,
      "is_ai": false,
      "track_id": 0,
      "velocity": 0,
      "is_motor": true,
      "motor_id": 1,
      "accel_val": 2000,
      "base_duration_us": 187500
    },
    {
      "id": "M_979",
      "pitch": 53,
      "t_note_us": 79687500,
      "t_trigger_us": 79551537,
      "is_ai": false,
      "track_id": 0,
      "velocity": 0,
      "is_motor": true,
      "motor_id": 0,
      "accel_val": 2000,
      "base_duration_us": 187500
    },
    {
      "id": "M_980",
      "pitch": 55,
      "t_note_us": 79875000,
      "t_trigger_us": 79739037,
      "is_ai": false,
      "track_id": 0,
      "velocity": 0,
      "is_motor": true,
      "motor_id": 0,
      "accel_val": 2000,
      "base_duration_us": 187500
    },
    {
      "id": "M_982",
      "pitch": 71,
      "t_note_us": 79875000,
      "t_trigger_us": 79739037,
      "is_ai": false,
      "track_id": 0,
      "velocity": 0,
      "is_motor": true,
      "motor_id": 1,
      "accel_val": 2000,
      "base_duration_us": 562500
    },
    {
      "id": "M_983",
      "pitch": 74,
      "t_note_us": 79875000,
      "t_trigger_us": 79739037,
      "is_ai": false,
      "track_id": 0,
      "velocity": 0,
      "is_motor": true,
      "motor_id": 2,
      "accel_val": 2000,
      "base_duration_us": 562500
    },
    {
      "id": "M_984",
      "pitch": 67,
      "t_note_us": 79875000,
      "t_trigger_us": 79739037,
      "is_ai": false,
      "track_id": 0,
      "velocity": 0,
      "is_motor": true,
      "motor_id": 3,
      "accel_val": 2000,
      "base_duration_us": 562500
    },
    {
      "id": "M_981",
      "pitch": 55,
      "t_note_us": 80062500,
      "t_trigger_us": 79926537,
      "is_ai": false,
      "track_id": 0,
      "velocity": 0,
      "is_motor": true,
      "motor_id": 0,
      "accel_val": 2000,
      "base_duration_us": 187500
    },
    {
      "id": "M_985",
      "pitch": 62,
      "t_note_us": 80250000,
      "t_trigger_us": 80114037,
      "is_ai": false,
      "track_id": 0,
      "velocity": 0,
      "is_motor": true,
      "motor_id": 0,
      "accel_val": 2000,
      "base_duration_us": 187500
    },
    {
      "id": "M_986",
      "pitch": 67,
      "t_note_us": 80250000,
      "t_trigger_us": 80114037,
      "is_ai": false,
      "track_id": 0,
      "velocity": 0,
      "is_motor": true,
      "motor_id": 0,
      "accel_val": 2000,
      "base_duration_us": 187500
    },
    {
      "id": "M_987",
      "pitch": 74,
      "t_note_us": 80437500,
      "t_trigger_us": 80301537,
      "is_ai": false,
      "track_id": 0,
      "velocity": 0,
      "is_motor": true,
      "motor_id": 1,
      "accel_val": 2000,
      "base_duration_us": 187500
    },
    {
      "id": "M_988",
      "pitch": 67,
      "t_note_us": 80437500,
      "t_trigger_us": 80301537,
      "is_ai": false,
      "track_id": 0,
      "velocity": 0,
      "is_motor": true,
      "motor_id": 2,
      "accel_val": 2000,
      "base_duration_us": 187500
    },
    {
      "id": "M_989",
      "pitch": 55,
      "t_note_us": 80437500,
      "t_trigger_us": 80301537,
      "is_ai": false,
      "track_id": 0,
      "velocity": 0,
      "is_motor": true,
      "motor_id": 0,
      "accel_val": 2000,
      "base_duration_us": 187500
    },
    {
      "id": "M_990",
      "pitch": 72,
      "t_note_us": 80625000,
      "t_trigger_us": 80489037,
      "is_ai": false,
      "track_id": 0,
      "velocity": 0,
      "is_motor": true,
      "motor_id": 1,
      "accel_val": 2000,
      "base_duration_us": 187500
    },
    {
      "id": "M_991",
      "pitch": 76,
      "t_note_us": 80625000,
      "t_trigger_us": 80489037,
      "is_ai": false,
      "track_id": 0,
      "velocity": 0,
      "is_motor": true,
      "motor_id": 2,
      "accel_val": 2000,
      "base_duration_us": 187500
    },
    {
      "id": "M_992",
      "pitch": 69,
      "t_note_us": 80625000,
      "t_trigger_us": 80489037,
      "is_ai": false,
      "track_id": 0,
      "velocity": 0,
      "is_motor": true,
      "motor_id": 0,
      "accel_val": 2000,
      "base_duration_us": 187500
    },
    {
      "id": "M_993",
      "pitch": 55,
      "t_note_us": 80625000,
      "t_trigger_us": 80489037,
      "is_ai": false,
      "track_id": 0,
      "velocity": 0,
      "is_motor": true,
      "motor_id": 3,
      "accel_val": 2000,
      "base_duration_us": 187500
    },
    {
      "id": "M_994",
      "pitch": 74,
      "t_note_us": 80812500,
      "t_trigger_us": 80676537,
      "is_ai": false,
      "track_id": 0,
      "velocity": 0,
      "is_motor": true,
      "motor_id": 1,
      "accel_val": 2000,
      "base_duration_us": 187500
    },
    {
      "id": "M_995",
      "pitch": 67,
      "t_note_us": 80812500,
      "t_trigger_us": 80676537,
      "is_ai": false,
      "track_id": 0,
      "velocity": 0,
      "is_motor": true,
      "motor_id": 2,
      "accel_val": 2000,
      "base_duration_us": 187500
    },
    {
      "id": "M_996",
      "pitch": 55,
      "t_note_us": 80812500,
      "t_trigger_us": 80676537,
      "is_ai": false,
      "track_id": 0,
      "velocity": 0,
      "is_motor": true,
      "motor_id": 0,
      "accel_val": 2000,
      "base_duration_us": 187500
    },
    {
      "id": "M_997",
      "pitch": 72,
      "t_note_us": 81000000,
      "t_trigger_us": 80864037,
      "is_ai": false,
      "track_id": 0,
      "velocity": 0,
      "is_motor": true,
      "motor_id": 1,
      "accel_val": 2000,
      "base_duration_us": 187500
    },
    {
      "id": "M_998",
      "pitch": 76,
      "t_note_us": 81000000,
      "t_trigger_us": 80864037,
      "is_ai": false,
      "track_id": 0,
      "velocity": 0,
      "is_motor": true,
      "motor_id": 2,
      "accel_val": 2000,
      "base_duration_us": 187500
    },
    {
      "id": "M_999",
      "pitch": 69,
      "t_note_us": 81000000,
      "t_trigger_us": 80864037,
      "is_ai": false,
      "track_id": 0,
      "velocity": 0,
      "is_motor": true,
      "motor_id": 0,
      "accel_val": 2000,
      "base_duration_us": 187500
    },
    {
      "id": "M_1000",
      "pitch": 62,
      "t_note_us": 81000000,
      "t_trigger_us": 80864037,
      "is_ai": false,
      "track_id": 0,
      "velocity": 0,
      "is_motor": true,
      "motor_id": 3,
      "accel_val": 2000,
      "base_duration_us": 187500
    },
    {
      "id": "M_1001",
      "pitch": 67,
      "t_note_us": 81000000,
      "t_trigger_us": 80864037,
      "is_ai": false,
      "track_id": 0,
      "velocity": 0,
      "is_motor": true,
      "motor_id": 0,
      "accel_val": 2000,
      "base_duration_us": 187500
    },
    {
      "id": "M_1002",
      "pitch": 76,
      "t_note_us": 81187500,
      "t_trigger_us": 81051537,
      "is_ai": false,
      "track_id": 0,
      "velocity": 0,
      "is_motor": true,
      "motor_id": 2,
      "accel_val": 2000,
      "base_duration_us": 187500
    },
    {
      "id": "M_1003",
      "pitch": 71,
      "t_note_us": 81187500,
      "t_trigger_us": 81051537,
      "is_ai": false,
      "track_id": 0,
      "velocity": 0,
      "is_motor": true,
      "motor_id": 1,
      "accel_val": 2000,
      "base_duration_us": 187500
    },
    {
      "id": "M_1004",
      "pitch": 55,
      "t_note_us": 81187500,
      "t_trigger_us": 81051537,
      "is_ai": false,
      "track_id": 0,
      "velocity": 0,
      "is_motor": true,
      "motor_id": 0,
      "accel_val": 2000,
      "base_duration_us": 187500
    },
    {
      "id": "M_1005",
      "pitch": 57,
      "t_note_us": 81375000,
      "t_trigger_us": 81239037,
      "is_ai": false,
      "track_id": 0,
      "velocity": 0,
      "is_motor": true,
      "motor_id": 0,
      "accel_val": 2000,
      "base_duration_us": 187500
    },
    {
      "id": "M_1006",
      "pitch": 76,
      "t_note_us": 81375000,
      "t_trigger_us": 81239037,
      "is_ai": false,
      "track_id": 0,
      "velocity": 0,
      "is_motor": true,
      "motor_id": 2,
      "accel_val": 2000,
      "base_duration_us": 375000
    },
    {
      "id": "M_1007",
      "pitch": 69,
      "t_note_us": 81375000,
      "t_trigger_us": 81239037,
      "is_ai": false,
      "track_id": 0,
      "velocity": 0,
      "is_motor": true,
      "motor_id": 1,
      "accel_val": 2000,
      "base_duration_us": 375000
    },
    {
      "id": "M_1008",
      "pitch": 72,
      "t_note_us": 81375000,
      "t_trigger_us": 81239037,
      "is_ai": false,
      "track_id": 0,
      "velocity": 0,
      "is_motor": true,
      "motor_id": 3,
      "accel_val": 2000,
      "base_duration_us": 375000
    },
    {
      "id": "M_1009",
      "pitch": 57,
      "t_note_us": 81562500,
      "t_trigger_us": 81426537,
      "is_ai": false,
      "track_id": 0,
      "velocity": 0,
      "is_motor": true,
      "motor_id": 0,
      "accel_val": 2000,
      "base_duration_us": 187500
    },
    {
      "id": "M_1010",
      "pitch": 64,
      "t_note_us": 81750000,
      "t_trigger_us": 81614037,
      "is_ai": false,
      "track_id": 0,
      "velocity": 0,
      "is_motor": true,
      "motor_id": 1,
      "accel_val": 2000,
      "base_duration_us": 187500
    },
    {
      "id": "M_1011",
      "pitch": 69,
      "t_note_us": 81750000,
      "t_trigger_us": 81614037,
      "is_ai": false,
      "track_id": 0,
      "velocity": 0,
      "is_motor": true,
      "motor_id": 2,
      "accel_val": 2000,
      "base_duration_us": 187500
    },
    {
      "id": "M_1012",
      "pitch": 74,
      "t_note_us": 81750000,
      "t_trigger_us": 81614037,
      "is_ai": false,
      "track_id": 0,
      "velocity": 0,
      "is_motor": true,
      "motor_id": 0,
      "accel_val": 2000,
      "base_duration_us": 375000
    },
    {
      "id": "M_1013",
      "pitch": 67,
      "t_note_us": 81750000,
      "t_trigger_us": 81614037,
      "is_ai": false,
      "track_id": 0,
      "velocity": 0,
      "is_motor": true,
      "motor_id": 3,
      "accel_val": 2000,
      "base_duration_us": 375000
    },
    {
      "id": "M_1014",
      "pitch": 71,
      "t_note_us": 81750000,
      "t_trigger_us": 81614037,
      "is_ai": false,
      "track_id": 0,
      "velocity": 0,
      "is_motor": true,
      "motor_id": 0,
      "accel_val": 2000,
      "base_duration_us": 375000
    },
    {
      "id": "M_1015",
      "pitch": 57,
      "t_note_us": 81937500,
      "t_trigger_us": 81801537,
      "is_ai": false,
      "track_id": 0,
      "velocity": 0,
      "is_motor": true,
      "motor_id": 1,
      "accel_val": 2000,
      "base_duration_us": 187500
    },
    {
      "id": "M_1016",
      "pitch": 57,
      "t_note_us": 82125000,
      "t_trigger_us": 81989037,
      "is_ai": false,
      "track_id": 0,
      "velocity": 0,
      "is_motor": true,
      "motor_id": 0,
      "accel_val": 2000,
      "base_duration_us": 187500
    },
    {
      "id": "M_1017",
      "pitch": 72,
      "t_note_us": 82125000,
      "t_trigger_us": 81989037,
      "is_ai": false,
      "track_id": 0,
      "velocity": 0,
      "is_motor": true,
      "motor_id": 1,
      "accel_val": 2000,
      "base_duration_us": 375000
    },
    {
      "id": "M_1018",
      "pitch": 76,
      "t_note_us": 82125000,
      "t_trigger_us": 81989037,
      "is_ai": false,
      "track_id": 0,
      "velocity": 0,
      "is_motor": true,
      "motor_id": 2,
      "accel_val": 2000,
      "base_duration_us": 375000
    },
    {
      "id": "M_1019",
      "pitch": 69,
      "t_note_us": 82125000,
      "t_trigger_us": 81989037,
      "is_ai": false,
      "track_id": 0,
      "velocity": 0,
      "is_motor": true,
      "motor_id": 3,
      "accel_val": 2000,
      "base_duration_us": 375000
    },
    {
      "id": "M_1020",
      "pitch": 57,
      "t_note_us": 82312500,
      "t_trigger_us": 82176537,
      "is_ai": false,
      "track_id": 0,
      "velocity": 0,
      "is_motor": true,
      "motor_id": 0,
      "accel_val": 2000,
      "base_duration_us": 187500
    },
    {
      "id": "M_1024",
      "pitch": 88,
      "t_note_us": 82500000,
      "t_trigger_us": 82364037,
      "is_ai": true,
      "track_id": 5,
      "velocity": 0,
      "is_motor": false,
      "motor_id": 0,
      "accel_val": 2000,
      "base_duration_us": 375000
    },
    {
      "id": "M_1025",
      "pitch": 91,
      "t_note_us": 82500000,
      "t_trigger_us": 82364037,
      "is_ai": true,
      "track_id": 7,
      "velocity": 0,
      "is_motor": false,
      "motor_id": 0,
      "accel_val": 2000,
      "base_duration_us": 375000
    },
    {
      "id": "M_1021",
      "pitch": 64,
      "t_note_us": 82500000,
      "t_trigger_us": 82364037,
      "is_ai": false,
      "track_id": 0,
      "velocity": 0,
      "is_motor": true,
      "motor_id": 1,
      "accel_val": 2000,
      "base_duration_us": 187500
    },
    {
      "id": "M_1022",
      "pitch": 69,
      "t_note_us": 82500000,
      "t_trigger_us": 82364037,
      "is_ai": false,
      "track_id": 0,
      "velocity": 0,
      "is_motor": true,
      "motor_id": 2,
      "accel_val": 2000,
      "base_duration_us": 187500
    },
    {
      "id": "M_1023",
      "pitch": 71,
      "t_note_us": 82500000,
      "t_trigger_us": 82364037,
      "is_ai": false,
      "track_id": 0,
      "velocity": 0,
      "is_motor": true,
      "motor_id": 0,
      "accel_val": 2000,
      "base_duration_us": 375000
    },
    {
      "id": "M_1026",
      "pitch": 57,
      "t_note_us": 82687500,
      "t_trigger_us": 82551537,
      "is_ai": false,
      "track_id": 0,
      "velocity": 0,
      "is_motor": true,
      "motor_id": 1,
      "accel_val": 2000,
      "base_duration_us": 187500
    },
    {
      "id": "M_1028",
      "pitch": 93,
      "t_note_us": 82875000,
      "t_trigger_us": 82739037,
      "is_ai": true,
      "track_id": 8,
      "velocity": 0,
      "is_motor": false,
      "motor_id": 0,
      "accel_val": 2000,
      "base_duration_us": 375000
    },
    {
      "id": "M_1029",
      "pitch": 96,
      "t_note_us": 82875000,
      "t_trigger_us": 82739037,
      "is_ai": true,
      "track_id": 10,
      "velocity": 0,
      "is_motor": false,
      "motor_id": 0,
      "accel_val": 2000,
      "base_duration_us": 375000
    },
    {
      "id": "M_1034",
      "pitch": 100,
      "t_note_us": 82875000,
      "t_trigger_us": 82739037,
      "is_ai": true,
      "track_id": 12,
      "velocity": 0,
      "is_motor": false,
      "motor_id": 0,
      "accel_val": 2000,
      "base_duration_us": 750000
    },
    {
      "id": "M_1027",
      "pitch": 60,
      "t_note_us": 82875000,
      "t_trigger_us": 82739037,
      "is_ai": false,
      "track_id": 0,
      "velocity": 0,
      "is_motor": true,
      "motor_id": 1,
      "accel_val": 2000,
      "base_duration_us": 187500
    },
    {
      "id": "M_1030",
      "pitch": 72,
      "t_note_us": 83062500,
      "t_trigger_us": 82926537,
      "is_ai": false,
      "track_id": 0,
      "velocity": 0,
      "is_motor": true,
      "motor_id": 1,
      "accel_val": 2000,
      "base_duration_us": 187500
    },
    {
      "id": "M_1032",
      "pitch": 95,
      "t_note_us": 83250000,
      "t_trigger_us": 83114037,
      "is_ai": true,
      "track_id": 9,
      "velocity": 0,
      "is_motor": false,
      "motor_id": 0,
      "accel_val": 2000,
      "base_duration_us": 375000
    },
    {
      "id": "M_1033",
      "pitch": 98,
      "t_note_us": 83250000,
      "t_trigger_us": 83114037,
      "is_ai": true,
      "track_id": 11,
      "velocity": 0,
      "is_motor": false,
      "motor_id": 0,
      "accel_val": 2000,
      "base_duration_us": 375000
    },
    {
      "id": "M_1031",
      "pitch": 60,
      "t_note_us": 83250000,
      "t_trigger_us": 83114037,
      "is_ai": false,
      "track_id": 0,
      "velocity": 0,
      "is_motor": true,
      "motor_id": 1,
      "accel_val": 2000,
      "base_duration_us": 187500
    },
    {
      "id": "M_1035",
      "pitch": 72,
      "t_note_us": 83437500,
      "t_trigger_us": 83301537,
      "is_ai": false,
      "track_id": 0,
      "velocity": 0,
      "is_motor": true,
      "motor_id": 1,
      "accel_val": 2000,
      "base_duration_us": 187500
    },
    {
      "id": "M_1037",
      "pitch": 84,
      "t_note_us": 83625000,
      "t_trigger_us": 83489037,
      "is_ai": true,
      "track_id": 3,
      "velocity": 0,
      "is_motor": false,
      "motor_id": 0,
      "accel_val": 2000,
      "base_duration_us": 375000
    },
    {
      "id": "M_1038",
      "pitch": 91,
      "t_note_us": 83625000,
      "t_trigger_us": 83489037,
      "is_ai": true,
      "track_id": 7,
      "velocity": 0,
      "is_motor": false,
      "motor_id": 0,
      "accel_val": 2000,
      "base_duration_us": 375000
    },
    {
      "id": "M_1036",
      "pitch": 52,
      "t_note_us": 83625000,
      "t_trigger_us": 83489037,
      "is_ai": false,
      "track_id": 0,
      "velocity": 0,
      "is_motor": true,
      "motor_id": 0,
      "accel_val": 2000,
      "base_duration_us": 187500
    },
    {
      "id": "M_1039",
      "pitch": 64,
      "t_note_us": 83812500,
      "t_trigger_us": 83676537,
      "is_ai": false,
      "track_id": 0,
      "velocity": 0,
      "is_motor": true,
      "motor_id": 1,
      "accel_val": 2000,
      "base_duration_us": 187500
    },
    {
      "id": "M_1042",
      "pitch": 88,
      "t_note_us": 84000000,
      "t_trigger_us": 83864037,
      "is_ai": true,
      "track_id": 5,
      "velocity": 0,
      "is_motor": false,
      "motor_id": 0,
      "accel_val": 2000,
      "base_duration_us": 375000
    },
    {
      "id": "M_1043",
      "pitch": 93,
      "t_note_us": 84000000,
      "t_trigger_us": 83864037,
      "is_ai": true,
      "track_id": 8,
      "velocity": 0,
      "is_motor": false,
      "motor_id": 0,
      "accel_val": 2000,
      "base_duration_us": 375000
    },
    {
      "id": "M_1040",
      "pitch": 52,
      "t_note_us": 84000000,
      "t_trigger_us": 83864037,
      "is_ai": false,
      "track_id": 0,
      "velocity": 0,
      "is_motor": true,
      "motor_id": 0,
      "accel_val": 2000,
      "base_duration_us": 187500
    },
    {
      "id": "M_1041",
      "pitch": 71,
      "t_note_us": 84000000,
      "t_trigger_us": 83864037,
      "is_ai": false,
      "track_id": 0,
      "velocity": 0,
      "is_motor": true,
      "motor_id": 1,
      "accel_val": 2000,
      "base_duration_us": 375000
    },
    {
      "id": "M_1044",
      "pitch": 64,
      "t_note_us": 84187500,
      "t_trigger_us": 84051537,
      "is_ai": false,
      "track_id": 0,
      "velocity": 0,
      "is_motor": true,
      "motor_id": 0,
      "accel_val": 2000,
      "base_duration_us": 187500
    },
    {
      "id": "M_1049",
      "pitch": 88,
      "t_note_us": 84375000,
      "t_trigger_us": 84239037,
      "is_ai": true,
      "track_id": 5,
      "velocity": 0,
      "is_motor": false,
      "motor_id": 0,
      "accel_val": 2000,
      "base_duration_us": 750000
    },
    {
      "id": "M_1050",
      "pitch": 96,
      "t_note_us": 84375000,
      "t_trigger_us": 84239037,
      "is_ai": true,
      "track_id": 10,
      "velocity": 0,
      "is_motor": false,
      "motor_id": 0,
      "accel_val": 2000,
      "base_duration_us": 750000
    },
    {
      "id": "M_1053",
      "pitch": 100,
      "t_note_us": 84375000,
      "t_trigger_us": 84239037,
      "is_ai": true,
      "track_id": 12,
      "velocity": 0,
      "is_motor": false,
      "motor_id": 0,
      "accel_val": 2000,
      "base_duration_us": 1125000
    },
    {
      "id": "M_1045",
      "pitch": 53,
      "t_note_us": 84375000,
      "t_trigger_us": 84239037,
      "is_ai": false,
      "track_id": 0,
      "velocity": 0,
      "is_motor": true,
      "motor_id": 0,
      "accel_val": 2000,
      "base_duration_us": 187500
    },
    {
      "id": "M_1046",
      "pitch": 53,
      "t_note_us": 84562500,
      "t_trigger_us": 84426537,
      "is_ai": false,
      "track_id": 0,
      "velocity": 0,
      "is_motor": true,
      "motor_id": 0,
      "accel_val": 2000,
      "base_duration_us": 187500
    },
    {
      "id": "M_1047",
      "pitch": 60,
      "t_note_us": 84750000,
      "t_trigger_us": 84614037,
      "is_ai": false,
      "track_id": 0,
      "velocity": 0,
      "is_motor": true,
      "motor_id": 1,
      "accel_val": 2000,
      "base_duration_us": 187500
    },
    {
      "id": "M_1048",
      "pitch": 65,
      "t_note_us": 84750000,
      "t_trigger_us": 84614037,
      "is_ai": false,
      "track_id": 0,
      "velocity": 0,
      "is_motor": true,
      "motor_id": 0,
      "accel_val": 2000,
      "base_duration_us": 187500
    },
    {
      "id": "M_1051",
      "pitch": 53,
      "t_note_us": 84937500,
      "t_trigger_us": 84801537,
      "is_ai": false,
      "track_id": 0,
      "velocity": 0,
      "is_motor": true,
      "motor_id": 0,
      "accel_val": 2000,
      "base_duration_us": 187500
    },
    {
      "id": "M_1061",
      "pitch": 95,
      "t_note_us": 85125000,
      "t_trigger_us": 84989037,
      "is_ai": true,
      "track_id": 9,
      "velocity": 0,
      "is_motor": false,
      "motor_id": 0,
      "accel_val": 2000,
      "base_duration_us": 750000
    },
    {
      "id": "M_1062",
      "pitch": 98,
      "t_note_us": 85125000,
      "t_trigger_us": 84989037,
      "is_ai": true,
      "track_id": 11,
      "velocity": 0,
      "is_motor": false,
      "motor_id": 0,
      "accel_val": 2000,
      "base_duration_us": 750000
    },
    {
      "id": "M_1052",
      "pitch": 53,
      "t_note_us": 85125000,
      "t_trigger_us": 84989037,
      "is_ai": false,
      "track_id": 0,
      "velocity": 0,
      "is_motor": true,
      "motor_id": 0,
      "accel_val": 2000,
      "base_duration_us": 187500
    },
    {
      "id": "M_1054",
      "pitch": 53,
      "t_note_us": 85312500,
      "t_trigger_us": 85176537,
      "is_ai": false,
      "track_id": 0,
      "velocity": 0,
      "is_motor": true,
      "motor_id": 0,
      "accel_val": 2000,
      "base_duration_us": 187500
    },
    {
      "id": "M_1055",
      "pitch": 88,
      "t_note_us": 85500000,
      "t_trigger_us": 85364037,
      "is_ai": true,
      "track_id": 5,
      "velocity": 0,
      "is_motor": false,
      "motor_id": 0,
      "accel_val": 2000,
      "base_duration_us": 187500
    },
    {
      "id": "M_1056",
      "pitch": 93,
      "t_note_us": 85500000,
      "t_trigger_us": 85364037,
      "is_ai": true,
      "track_id": 8,
      "velocity": 0,
      "is_motor": false,
      "motor_id": 0,
      "accel_val": 2000,
      "base_duration_us": 187500
    },
    {
      "id": "M_1057",
      "pitch": 60,
      "t_note_us": 85500000,
      "t_trigger_us": 85364037,
      "is_ai": false,
      "track_id": 0,
      "velocity": 0,
      "is_motor": true,
      "motor_id": 1,
      "accel_val": 2000,
      "base_duration_us": 187500
    },
    {
      "id": "M_1058",
      "pitch": 65,
      "t_note_us": 85500000,
      "t_trigger_us": 85364037,
      "is_ai": false,
      "track_id": 0,
      "velocity": 0,
      "is_motor": true,
      "motor_id": 0,
      "accel_val": 2000,
      "base_duration_us": 187500
    },
    {
      "id": "M_1059",
      "pitch": 88,
      "t_note_us": 85687500,
      "t_trigger_us": 85551537,
      "is_ai": true,
      "track_id": 5,
      "velocity": 0,
      "is_motor": false,
      "motor_id": 0,
      "accel_val": 2000,
      "base_duration_us": 187500
    },
    {
      "id": "M_1060",
      "pitch": 93,
      "t_note_us": 85687500,
      "t_trigger_us": 85551537,
      "is_ai": true,
      "track_id": 8,
      "velocity": 0,
      "is_motor": false,
      "motor_id": 0,
      "accel_val": 2000,
      "base_duration_us": 187500
    },
    {
      "id": "M_1063",
      "pitch": 53,
      "t_note_us": 85687500,
      "t_trigger_us": 85551537,
      "is_ai": false,
      "track_id": 0,
      "velocity": 0,
      "is_motor": true,
      "motor_id": 0,
      "accel_val": 2000,
      "base_duration_us": 187500
    },
    {
      "id": "M_1065",
      "pitch": 91,
      "t_note_us": 85875000,
      "t_trigger_us": 85739037,
      "is_ai": true,
      "track_id": 7,
      "velocity": 0,
      "is_motor": false,
      "motor_id": 0,
      "accel_val": 2000,
      "base_duration_us": 375000
    },
    {
      "id": "M_1070",
      "pitch": 84,
      "t_note_us": 85875000,
      "t_trigger_us": 85739037,
      "is_ai": true,
      "track_id": 3,
      "velocity": 0,
      "is_motor": false,
      "motor_id": 0,
      "accel_val": 2000,
      "base_duration_us": 750000
    },
    {
      "id": "M_1064",
      "pitch": 55,
      "t_note_us": 85875000,
      "t_trigger_us": 85739037,
      "is_ai": false,
      "track_id": 0,
      "velocity": 0,
      "is_motor": true,
      "motor_id": 0,
      "accel_val": 2000,
      "base_duration_us": 187500
    },
    {
      "id": "M_1069",
      "pitch": 69,
      "t_note_us": 85875000,
      "t_trigger_us": 85739037,
      "is_ai": false,
      "track_id": 0,
      "velocity": 0,
      "is_motor": true,
      "motor_id": 1,
      "accel_val": 2000,
      "base_duration_us": 750000
    },
    {
      "id": "M_1066",
      "pitch": 55,
      "t_note_us": 86062500,
      "t_trigger_us": 85926537,
      "is_ai": false,
      "track_id": 0,
      "velocity": 0,
      "is_motor": true,
      "motor_id": 0,
      "accel_val": 2000,
      "base_duration_us": 187500
    },
    {
      "id": "M_1067",
      "pitch": 62,
      "t_note_us": 86250000,
      "t_trigger_us": 86114037,
      "is_ai": false,
      "track_id": 0,
      "velocity": 0,
      "is_motor": true,
      "motor_id": 0,
      "accel_val": 2000,
      "base_duration_us": 187500
    },
    {
      "id": "M_1068",
      "pitch": 67,
      "t_note_us": 86250000,
      "t_trigger_us": 86114037,
      "is_ai": false,
      "track_id": 0,
      "velocity": 0,
      "is_motor": true,
      "motor_id": 2,
      "accel_val": 2000,
      "base_duration_us": 187500
    },
    {
      "id": "M_1071",
      "pitch": 55,
      "t_note_us": 86437500,
      "t_trigger_us": 86301537,
      "is_ai": false,
      "track_id": 0,
      "velocity": 0,
      "is_motor": true,
      "motor_id": 0,
      "accel_val": 2000,
      "base_duration_us": 187500
    },
    {
      "id": "M_1072",
      "pitch": 55,
      "t_note_us": 86625000,
      "t_trigger_us": 86489037,
      "is_ai": false,
      "track_id": 0,
      "velocity": 0,
      "is_motor": true,
      "motor_id": 0,
      "accel_val": 2000,
      "base_duration_us": 187500
    },
    {
      "id": "M_1078",
      "pitch": 67,
      "t_note_us": 86625000,
      "t_trigger_us": 86489037,
      "is_ai": false,
      "track_id": 0,
      "velocity": 0,
      "is_motor": true,
      "motor_id": 1,
      "accel_val": 2000,
      "base_duration_us": 750000
    },
    {
      "id": "M_1079",
      "pitch": 71,
      "t_note_us": 86625000,
      "t_trigger_us": 86489037,
      "is_ai": false,
      "track_id": 0,
      "velocity": 0,
      "is_motor": true,
      "motor_id": 2,
      "accel_val": 2000,
      "base_duration_us": 750000
    },
    {
      "id": "M_1073",
      "pitch": 55,
      "t_note_us": 86812500,
      "t_trigger_us": 86676537,
      "is_ai": false,
      "track_id": 0,
      "velocity": 0,
      "is_motor": true,
      "motor_id": 0,
      "accel_val": 2000,
      "base_duration_us": 187500
    },
    {
      "id": "M_1074",
      "pitch": 62,
      "t_note_us": 87000000,
      "t_trigger_us": 86864037,
      "is_ai": false,
      "track_id": 0,
      "velocity": 0,
      "is_motor": true,
      "motor_id": 0,
      "accel_val": 2000,
      "base_duration_us": 187500
    },
    {
      "id": "M_1075",
      "pitch": 67,
      "t_note_us": 87000000,
      "t_trigger_us": 86864037,
      "is_ai": false,
      "track_id": 0,
      "velocity": 0,
      "is_motor": true,
      "motor_id": 3,
      "accel_val": 2000,
      "base_duration_us": 187500
    },
    {
      "id": "M_1076",
      "pitch": 86,
      "t_note_us": 87187500,
      "t_trigger_us": 87051537,
      "is_ai": true,
      "track_id": 4,
      "velocity": 0,
      "is_motor": false,
      "motor_id": 0,
      "accel_val": 2000,
      "base_duration_us": 187500
    },
    {
      "id": "M_1077",
      "pitch": 91,
      "t_note_us": 87187500,
      "t_trigger_us": 87051537,
      "is_ai": true,
      "track_id": 7,
      "velocity": 0,
      "is_motor": false,
      "motor_id": 0,
      "accel_val": 2000,
      "base_duration_us": 187500
    },
    {
      "id": "M_1080",
      "pitch": 55,
      "t_note_us": 87187500,
      "t_trigger_us": 87051537,
      "is_ai": false,
      "track_id": 0,
      "velocity": 0,
      "is_motor": true,
      "motor_id": 0,
      "accel_val": 2000,
      "base_duration_us": 187500
    },
    {
      "id": "M_1081",
      "pitch": 88,
      "t_note_us": 87375000,
      "t_trigger_us": 87239037,
      "is_ai": true,
      "track_id": 5,
      "velocity": 0,
      "is_motor": false,
      "motor_id": 0,
      "accel_val": 2000,
      "base_duration_us": 187500
    },
    {
      "id": "M_1082",
      "pitch": 93,
      "t_note_us": 87375000,
      "t_trigger_us": 87239037,
      "is_ai": true,
      "track_id": 8,
      "velocity": 0,
      "is_motor": false,
      "motor_id": 0,
      "accel_val": 2000,
      "base_duration_us": 187500
    },
    {
      "id": "M_1083",
      "pitch": 57,
      "t_note_us": 87375000,
      "t_trigger_us": 87239037,
      "is_ai": false,
      "track_id": 0,
      "velocity": 0,
      "is_motor": true,
      "motor_id": 0,
      "accel_val": 2000,
      "base_duration_us": 187500
    },
    {
      "id": "M_1084",
      "pitch": 88,
      "t_note_us": 87562500,
      "t_trigger_us": 87426537,
      "is_ai": true,
      "track_id": 5,
      "velocity": 0,
      "is_motor": false,
      "motor_id": 0,
      "accel_val": 2000,
      "base_duration_us": 187500
    },
    {
      "id": "M_1085",
      "pitch": 93,
      "t_note_us": 87562500,
      "t_trigger_us": 87426537,
      "is_ai": true,
      "track_id": 8,
      "velocity": 0,
      "is_motor": false,
      "motor_id": 0,
      "accel_val": 2000,
      "base_duration_us": 187500
    },
    {
      "id": "M_1086",
      "pitch": 69,
      "t_note_us": 87562500,
      "t_trigger_us": 87426537,
      "is_ai": false,
      "track_id": 0,
      "velocity": 0,
      "is_motor": true,
      "motor_id": 1,
      "accel_val": 2000,
      "base_duration_us": 187500
    },
    {
      "id": "M_1087",
      "pitch": 88,
      "t_note_us": 87750000,
      "t_trigger_us": 87614037,
      "is_ai": true,
      "track_id": 5,
      "velocity": 0,
      "is_motor": false,
      "motor_id": 0,
      "accel_val": 2000,
      "base_duration_us": 187500
    },
    {
      "id": "M_1088",
      "pitch": 93,
      "t_note_us": 87750000,
      "t_trigger_us": 87614037,
      "is_ai": true,
      "track_id": 8,
      "velocity": 0,
      "is_motor": false,
      "motor_id": 0,
      "accel_val": 2000,
      "base_duration_us": 187500
    },
    {
      "id": "M_1089",
      "pitch": 57,
      "t_note_us": 87750000,
      "t_trigger_us": 87614037,
      "is_ai": false,
      "track_id": 0,
      "velocity": 0,
      "is_motor": true,
      "motor_id": 0,
      "accel_val": 2000,
      "base_duration_us": 187500
    },
    {
      "id": "M_1090",
      "pitch": 96,
      "t_note_us": 87937500,
      "t_trigger_us": 87801537,
      "is_ai": true,
      "track_id": 10,
      "velocity": 0,
      "is_motor": false,
      "motor_id": 0,
      "accel_val": 2000,
      "base_duration_us": 187500
    },
    {
      "id": "M_1091",
      "pitch": 69,
      "t_note_us": 87937500,
      "t_trigger_us": 87801537,
      "is_ai": false,
      "track_id": 0,
      "velocity": 0,
      "is_motor": true,
      "motor_id": 1,
      "accel_val": 2000,
      "base_duration_us": 187500
    },
    {
      "id": "M_1094",
      "pitch": 91,
      "t_note_us": 88125000,
      "t_trigger_us": 87989037,
      "is_ai": true,
      "track_id": 7,
      "velocity": 0,
      "is_motor": false,
      "motor_id": 0,
      "accel_val": 2000,
      "base_duration_us": 562500
    },
    {
      "id": "M_1095",
      "pitch": 96,
      "t_note_us": 88125000,
      "t_trigger_us": 87989037,
      "is_ai": true,
      "track_id": 10,
      "velocity": 0,
      "is_motor": false,
      "motor_id": 0,
      "accel_val": 2000,
      "base_duration_us": 562500
    },
    {
      "id": "M_1092",
      "pitch": 60,
      "t_note_us": 88125000,
      "t_trigger_us": 87989037,
      "is_ai": false,
      "track_id": 0,
      "velocity": 0,
      "is_motor": true,
      "motor_id": 1,
      "accel_val": 2000,
      "base_duration_us": 187500
    },
    {
      "id": "M_1093",
      "pitch": 72,
      "t_note_us": 88312500,
      "t_trigger_us": 88176537,
      "is_ai": false,
      "track_id": 0,
      "velocity": 0,
      "is_motor": true,
      "motor_id": 1,
      "accel_val": 2000,
      "base_duration_us": 187500
    },
    {
      "id": "M_1096",
      "pitch": 60,
      "t_note_us": 88500000,
      "t_trigger_us": 88364037,
      "is_ai": false,
      "track_id": 0,
      "velocity": 0,
      "is_motor": true,
      "motor_id": 1,
      "accel_val": 2000,
      "base_duration_us": 187500
    },
    {
      "id": "M_1097",
      "pitch": 95,
      "t_note_us": 88687500,
      "t_trigger_us": 88551537,
      "is_ai": true,
      "track_id": 9,
      "velocity": 0,
      "is_motor": false,
      "motor_id": 0,
      "accel_val": 2000,
      "base_duration_us": 187500
    },
    {
      "id": "M_1098",
      "pitch": 100,
      "t_note_us": 88687500,
      "t_trigger_us": 88551537,
      "is_ai": true,
      "track_id": 12,
      "velocity": 0,
      "is_motor": false,
      "motor_id": 0,
      "accel_val": 2000,
      "base_duration_us": 187500
    },
    {
      "id": "M_1099",
      "pitch": 72,
      "t_note_us": 88687500,
      "t_trigger_us": 88551537,
      "is_ai": false,
      "track_id": 0,
      "velocity": 0,
      "is_motor": true,
      "motor_id": 1,
      "accel_val": 2000,
      "base_duration_us": 187500
    },
    {
      "id": "M_1102",
      "pitch": 91,
      "t_note_us": 88875000,
      "t_trigger_us": 88739037,
      "is_ai": true,
      "track_id": 7,
      "velocity": 0,
      "is_motor": false,
      "motor_id": 0,
      "accel_val": 2000,
      "base_duration_us": 562500
    },
    {
      "id": "M_1103",
      "pitch": 95,
      "t_note_us": 88875000,
      "t_trigger_us": 88739037,
      "is_ai": true,
      "track_id": 9,
      "velocity": 0,
      "is_motor": false,
      "motor_id": 0,
      "accel_val": 2000,
      "base_duration_us": 562500
    },
    {
      "id": "M_1104",
      "pitch": 100,
      "t_note_us": 88875000,
      "t_trigger_us": 88739037,
      "is_ai": true,
      "track_id": 12,
      "velocity": 0,
      "is_motor": false,
      "motor_id": 0,
      "accel_val": 2000,
      "base_duration_us": 562500
    },
    {
      "id": "M_1100",
      "pitch": 64,
      "t_note_us": 88875000,
      "t_trigger_us": 88739037,
      "is_ai": false,
      "track_id": 0,
      "velocity": 0,
      "is_motor": true,
      "motor_id": 1,
      "accel_val": 2000,
      "base_duration_us": 187500
    },
    {
      "id": "M_1101",
      "pitch": 76,
      "t_note_us": 89062500,
      "t_trigger_us": 88926537,
      "is_ai": false,
      "track_id": 0,
      "velocity": 0,
      "is_motor": true,
      "motor_id": 2,
      "accel_val": 2000,
      "base_duration_us": 187500
    },
    {
      "id": "M_1105",
      "pitch": 64,
      "t_note_us": 89250000,
      "t_trigger_us": 89114037,
      "is_ai": false,
      "track_id": 0,
      "velocity": 0,
      "is_motor": true,
      "motor_id": 1,
      "accel_val": 2000,
      "base_duration_us": 187500
    },
    {
      "id": "M_1106",
      "pitch": 99,
      "t_note_us": 89437500,
      "t_trigger_us": 89301537,
      "is_ai": true,
      "track_id": 0,
      "velocity": 0,
      "is_motor": true,
      "motor_id": 3,
      "accel_val": 2000,
      "base_duration_us": 187500
    },
    {
      "id": "M_1107",
      "pitch": 76,
      "t_note_us": 89437500,
      "t_trigger_us": 89301537,
      "is_ai": false,
      "track_id": 0,
      "velocity": 0,
      "is_motor": true,
      "motor_id": 2,
      "accel_val": 2000,
      "base_duration_us": 187500
    },
    {
      "id": "M_1108",
      "pitch": 98,
      "t_note_us": 89625000,
      "t_trigger_us": 89489037,
      "is_ai": true,
      "track_id": 11,
      "velocity": 0,
      "is_motor": false,
      "motor_id": 0,
      "accel_val": 2000,
      "base_duration_us": 750000
    },
    {
      "id": "M_1111",
      "pitch": 93,
      "t_note_us": 89625000,
      "t_trigger_us": 89489037,
      "is_ai": true,
      "track_id": 8,
      "velocity": 0,
      "is_motor": false,
      "motor_id": 0,
      "accel_val": 2000,
      "base_duration_us": 1312500
    },
    {
      "id": "M_1112",
      "pitch": 103,
      "t_note_us": 89625000,
      "t_trigger_us": 89489037,
      "is_ai": true,
      "track_id": 14,
      "velocity": 0,
      "is_motor": false,
      "motor_id": 0,
      "accel_val": 2000,
      "base_duration_us": 1312500
    },
    {
      "id": "M_1109",
      "pitch": 75,
      "t_note_us": 89625000,
      "t_trigger_us": 89489037,
      "is_ai": false,
      "track_id": 0,
      "velocity": 0,
      "is_motor": true,
      "motor_id": 2,
      "accel_val": 2000,
      "base_duration_us": 750000
    },
    {
      "id": "M_1114",
      "pitch": 69,
      "t_note_us": 89625000,
      "t_trigger_us": 89489037,
      "is_ai": false,
      "track_id": 0,
      "velocity": 0,
      "is_motor": true,
      "motor_id": 1,
      "accel_val": 2000,
      "base_duration_us": 1312500
    },
    {
      "id": "M_1115",
      "pitch": 67,
      "t_note_us": 89625000,
      "t_trigger_us": 89489037,
      "is_ai": false,
      "track_id": 0,
      "velocity": 0,
      "is_motor": true,
      "motor_id": 0,
      "accel_val": 2000,
      "base_duration_us": 1312500
    },
    {
      "id": "M_1110",
      "pitch": 96,
      "t_note_us": 90375000,
      "t_trigger_us": 90239037,
      "is_ai": true,
      "track_id": 10,
      "velocity": 0,
      "is_motor": false,
      "motor_id": 0,
      "accel_val": 2000,
      "base_duration_us": 562500
    },
    {
      "id": "M_1113",
      "pitch": 72,
      "t_note_us": 90375000,
      "t_trigger_us": 90239037,
      "is_ai": false,
      "track_id": 0,
      "velocity": 0,
      "is_motor": true,
      "motor_id": 2,
      "accel_val": 2000,
      "base_duration_us": 562500
    },
    {
      "id": "M_1116",
      "pitch": 88,
      "t_note_us": 90937500,
      "t_trigger_us": 90801537,
      "is_ai": true,
      "track_id": 5,
      "velocity": 0,
      "is_motor": false,
      "motor_id": 0,
      "accel_val": 2000,
      "base_duration_us": 187500
    },
    {
      "id": "M_1117",
      "pitch": 91,
      "t_note_us": 91125000,
      "t_trigger_us": 90989037,
      "is_ai": true,
      "track_id": 7,
      "velocity": 0,
      "is_motor": false,
      "motor_id": 0,
      "accel_val": 2000,
      "base_duration_us": 187500
    },
    {
      "id": "M_1118",
      "pitch": 88,
      "t_note_us": 91312500,
      "t_trigger_us": 91176537,
      "is_ai": true,
      "track_id": 5,
      "velocity": 0,
      "is_motor": false,
      "motor_id": 0,
      "accel_val": 2000,
      "base_duration_us": 187500
    },
    {
      "id": "M_1119",
      "pitch": 88,
      "t_note_us": 91500000,
      "t_trigger_us": 91364037,
      "is_ai": true,
      "track_id": 5,
      "velocity": 0,
      "is_motor": false,
      "motor_id": 0,
      "accel_val": 2000,
      "base_duration_us": 187500
    },
    {
      "id": "M_1120",
      "pitch": 91,
      "t_note_us": 91687500,
      "t_trigger_us": 91551537,
      "is_ai": true,
      "track_id": 7,
      "velocity": 0,
      "is_motor": false,
      "motor_id": 0,
      "accel_val": 2000,
      "base_duration_us": 187500
    },
    {
      "id": "M_1122",
      "pitch": 84,
      "t_note_us": 91875000,
      "t_trigger_us": 91739037,
      "is_ai": true,
      "track_id": 3,
      "velocity": 0,
      "is_motor": false,
      "motor_id": 0,
      "accel_val": 2000,
      "base_duration_us": 187500
    },
    {
      "id": "M_1123",
      "pitch": 88,
      "t_note_us": 91875000,
      "t_trigger_us": 91739037,
      "is_ai": true,
      "track_id": 5,
      "velocity": 0,
      "is_motor": false,
      "motor_id": 0,
      "accel_val": 2000,
      "base_duration_us": 187500
    },
    {
      "id": "M_1124",
      "pitch": 93,
      "t_note_us": 91875000,
      "t_trigger_us": 91739037,
      "is_ai": true,
      "track_id": 8,
      "velocity": 0,
      "is_motor": false,
      "motor_id": 0,
      "accel_val": 2000,
      "base_duration_us": 187500
    },
    {
      "id": "M_1121",
      "pitch": 69,
      "t_note_us": 91875000,
      "t_trigger_us": 91739037,
      "is_ai": false,
      "track_id": 0,
      "velocity": 0,
      "is_motor": true,
      "motor_id": 1,
      "accel_val": 2000,
      "base_duration_us": 187500
    },
    {
      "id": "M_1125",
      "pitch": 57,
      "t_note_us": 91875000,
      "t_trigger_us": 91739037,
      "is_ai": false,
      "track_id": 0,
      "velocity": 0,
      "is_motor": true,
      "motor_id": 0,
      "accel_val": 2000,
      "base_duration_us": 187500
    },
    {
      "id": "M_1126",
      "pitch": 69,
      "t_note_us": 91875000,
      "t_trigger_us": 91739037,
      "is_ai": false,
      "track_id": 0,
      "velocity": 0,
      "is_motor": true,
      "motor_id": 2,
      "accel_val": 2000,
      "base_duration_us": 187500
    },
    {
      "id": "M_1127",
      "pitch": 72,
      "t_note_us": 92062500,
      "t_trigger_us": 91926537,
      "is_ai": false,
      "track_id": 0,
      "velocity": 0,
      "is_motor": true,
      "motor_id": 1,
      "accel_val": 2000,
      "base_duration_us": 187500
    },
    {
      "id": "M_1128",
      "pitch": 76,
      "t_note_us": 92062500,
      "t_trigger_us": 91926537,
      "is_ai": false,
      "track_id": 0,
      "velocity": 0,
      "is_motor": true,
      "motor_id": 2,
      "accel_val": 2000,
      "base_duration_us": 187500
    },
    {
      "id": "M_1129",
      "pitch": 69,
      "t_note_us": 92062500,
      "t_trigger_us": 91926537,
      "is_ai": false,
      "track_id": 0,
      "velocity": 0,
      "is_motor": true,
      "motor_id": 0,
      "accel_val": 2000,
      "base_duration_us": 187500
    },
    {
      "id": "M_1130",
      "pitch": 57,
      "t_note_us": 92062500,
      "t_trigger_us": 91926537,
      "is_ai": false,
      "track_id": 0,
      "velocity": 0,
      "is_motor": true,
      "motor_id": 3,
      "accel_val": 2000,
      "base_duration_us": 187500
    },
    {
      "id": "M_1131",
      "pitch": 69,
      "t_note_us": 92062500,
      "t_trigger_us": 91926537,
      "is_ai": false,
      "track_id": 0,
      "velocity": 0,
      "is_motor": true,
      "motor_id": 0,
      "accel_val": 2000,
      "base_duration_us": 187500
    },
    {
      "id": "M_1132",
      "pitch": 72,
      "t_note_us": 92250000,
      "t_trigger_us": 92114037,
      "is_ai": false,
      "track_id": 0,
      "velocity": 0,
      "is_motor": true,
      "motor_id": 1,
      "accel_val": 2000,
      "base_duration_us": 187500
    },
    {
      "id": "M_1133",
      "pitch": 76,
      "t_note_us": 92250000,
      "t_trigger_us": 92114037,
      "is_ai": false,
      "track_id": 0,
      "velocity": 0,
      "is_motor": true,
      "motor_id": 2,
      "accel_val": 2000,
      "base_duration_us": 187500
    },
    {
      "id": "M_1134",
      "pitch": 69,
      "t_note_us": 92250000,
      "t_trigger_us": 92114037,
      "is_ai": false,
      "track_id": 0,
      "velocity": 0,
      "is_motor": true,
      "motor_id": 0,
      "accel_val": 2000,
      "base_duration_us": 187500
    },
    {
      "id": "M_1135",
      "pitch": 57,
      "t_note_us": 92250000,
      "t_trigger_us": 92114037,
      "is_ai": false,
      "track_id": 0,
      "velocity": 0,
      "is_motor": true,
      "motor_id": 3,
      "accel_val": 2000,
      "base_duration_us": 187500
    },
    {
      "id": "M_1136",
      "pitch": 69,
      "t_note_us": 92250000,
      "t_trigger_us": 92114037,
      "is_ai": false,
      "track_id": 0,
      "velocity": 0,
      "is_motor": true,
      "motor_id": 0,
      "accel_val": 2000,
      "base_duration_us": 187500
    },
    {
      "id": "M_1139",
      "pitch": 84,
      "t_note_us": 92625000,
      "t_trigger_us": 92489037,
      "is_ai": true,
      "track_id": 3,
      "velocity": 0,
      "is_motor": false,
      "motor_id": 0,
      "accel_val": 2000,
      "base_duration_us": 562500
    },
    {
      "id": "M_1137",
      "pitch": 76,
      "t_note_us": 92625000,
      "t_trigger_us": 92489037,
      "is_ai": false,
      "track_id": 0,
      "velocity": 0,
      "is_motor": true,
      "motor_id": 2,
      "accel_val": 2000,
      "base_duration_us": 562500
    },
    {
      "id": "M_1138",
      "pitch": 67,
      "t_note_us": 92625000,
      "t_trigger_us": 92489037,
      "is_ai": false,
      "track_id": 0,
      "velocity": 0,
      "is_motor": true,
      "motor_id": 1,
      "accel_val": 2000,
      "base_duration_us": 562500
    },
    {
      "id": "M_1140",
      "pitch": 60,
      "t_note_us": 92625000,
      "t_trigger_us": 92489037,
      "is_ai": false,
      "track_id": 0,
      "velocity": 0,
      "is_motor": true,
      "motor_id": 0,
      "accel_val": 2000,
      "base_duration_us": 562500
    },
    {
      "id": "M_1141",
      "pitch": 72,
      "t_note_us": 92625000,
      "t_trigger_us": 92489037,
      "is_ai": false,
      "track_id": 0,
      "velocity": 0,
      "is_motor": true,
      "motor_id": 3,
      "accel_val": 2000,
      "base_duration_us": 562500
    },
    {
      "id": "M_1142",
      "pitch": 72,
      "t_note_us": 93187500,
      "t_trigger_us": 93051537,
      "is_ai": false,
      "track_id": 0,
      "velocity": 0,
      "is_motor": true,
      "motor_id": 1,
      "accel_val": 2000,
      "base_duration_us": 187500
    },
    {
      "id": "M_1143",
      "pitch": 76,
      "t_note_us": 93187500,
      "t_trigger_us": 93051537,
      "is_ai": false,
      "track_id": 0,
      "velocity": 0,
      "is_motor": true,
      "motor_id": 2,
      "accel_val": 2000,
      "base_duration_us": 187500
    },
    {
      "id": "M_1144",
      "pitch": 69,
      "t_note_us": 93187500,
      "t_trigger_us": 93051537,
      "is_ai": false,
      "track_id": 0,
      "velocity": 0,
      "is_motor": true,
      "motor_id": 0,
      "accel_val": 2000,
      "base_duration_us": 187500
    },
    {
      "id": "M_1145",
      "pitch": 57,
      "t_note_us": 93187500,
      "t_trigger_us": 93051537,
      "is_ai": false,
      "track_id": 0,
      "velocity": 0,
      "is_motor": true,
      "motor_id": 3,
      "accel_val": 2000,
      "base_duration_us": 187500
    },
    {
      "id": "M_1146",
      "pitch": 69,
      "t_note_us": 93187500,
      "t_trigger_us": 93051537,
      "is_ai": false,
      "track_id": 0,
      "velocity": 0,
      "is_motor": true,
      "motor_id": 0,
      "accel_val": 2000,
      "base_duration_us": 187500
    },
    {
      "id": "M_1147",
      "pitch": 72,
      "t_note_us": 93562500,
      "t_trigger_us": 93426537,
      "is_ai": false,
      "track_id": 0,
      "velocity": 0,
      "is_motor": true,
      "motor_id": 1,
      "accel_val": 2000,
      "base_duration_us": 187500
    },
    {
      "id": "M_1148",
      "pitch": 76,
      "t_note_us": 93562500,
      "t_trigger_us": 93426537,
      "is_ai": false,
      "track_id": 0,
      "velocity": 0,
      "is_motor": true,
      "motor_id": 2,
      "accel_val": 2000,
      "base_duration_us": 187500
    },
    {
      "id": "M_1149",
      "pitch": 69,
      "t_note_us": 93562500,
      "t_trigger_us": 93426537,
      "is_ai": false,
      "track_id": 0,
      "velocity": 0,
      "is_motor": true,
      "motor_id": 0,
      "accel_val": 2000,
      "base_duration_us": 187500
    },
    {
      "id": "M_1150",
      "pitch": 57,
      "t_note_us": 93562500,
      "t_trigger_us": 93426537,
      "is_ai": false,
      "track_id": 0,
      "velocity": 0,
      "is_motor": true,
      "motor_id": 3,
      "accel_val": 2000,
      "base_duration_us": 187500
    },
    {
      "id": "M_1151",
      "pitch": 69,
      "t_note_us": 93562500,
      "t_trigger_us": 93426537,
      "is_ai": false,
      "track_id": 0,
      "velocity": 0,
      "is_motor": true,
      "motor_id": 0,
      "accel_val": 2000,
      "base_duration_us": 187500
    },
    {
      "id": "M_1152",
      "pitch": 72,
      "t_note_us": 93750000,
      "t_trigger_us": 93614037,
      "is_ai": false,
      "track_id": 0,
      "velocity": 0,
      "is_motor": true,
      "motor_id": 1,
      "accel_val": 2000,
      "base_duration_us": 187500
    },
    {
      "id": "M_1153",
      "pitch": 76,
      "t_note_us": 93750000,
      "t_trigger_us": 93614037,
      "is_ai": false,
      "track_id": 0,
      "velocity": 0,
      "is_motor": true,
      "motor_id": 2,
      "accel_val": 2000,
      "base_duration_us": 187500
    },
    {
      "id": "M_1154",
      "pitch": 69,
      "t_note_us": 93750000,
      "t_trigger_us": 93614037,
      "is_ai": false,
      "track_id": 0,
      "velocity": 0,
      "is_motor": true,
      "motor_id": 0,
      "accel_val": 2000,
      "base_duration_us": 187500
    },
    {
      "id": "M_1155",
      "pitch": 57,
      "t_note_us": 93750000,
      "t_trigger_us": 93614037,
      "is_ai": false,
      "track_id": 0,
      "velocity": 0,
      "is_motor": true,
      "motor_id": 3,
      "accel_val": 2000,
      "base_duration_us": 187500
    },
    {
      "id": "M_1156",
      "pitch": 69,
      "t_note_us": 93750000,
      "t_trigger_us": 93614037,
      "is_ai": false,
      "track_id": 0,
      "velocity": 0,
      "is_motor": true,
      "motor_id": 0,
      "accel_val": 2000,
      "base_duration_us": 187500
    },
    {
      "id": "M_1159",
      "pitch": 84,
      "t_note_us": 94125000,
      "t_trigger_us": 93989037,
      "is_ai": true,
      "track_id": 3,
      "velocity": 0,
      "is_motor": false,
      "motor_id": 0,
      "accel_val": 2000,
      "base_duration_us": 375000
    },
    {
      "id": "M_1157",
      "pitch": 76,
      "t_note_us": 94125000,
      "t_trigger_us": 93989037,
      "is_ai": false,
      "track_id": 0,
      "velocity": 0,
      "is_motor": true,
      "motor_id": 2,
      "accel_val": 2000,
      "base_duration_us": 375000
    },
    {
      "id": "M_1158",
      "pitch": 67,
      "t_note_us": 94125000,
      "t_trigger_us": 93989037,
      "is_ai": false,
      "track_id": 0,
      "velocity": 0,
      "is_motor": true,
      "motor_id": 1,
      "accel_val": 2000,
      "base_duration_us": 375000
    },
    {
      "id": "M_1160",
      "pitch": 60,
      "t_note_us": 94125000,
      "t_trigger_us": 93989037,
      "is_ai": false,
      "track_id": 0,
      "velocity": 0,
      "is_motor": true,
      "motor_id": 0,
      "accel_val": 2000,
      "base_duration_us": 375000
    },
    {
      "id": "M_1161",
      "pitch": 72,
      "t_note_us": 94125000,
      "t_trigger_us": 93989037,
      "is_ai": false,
      "track_id": 0,
      "velocity": 0,
      "is_motor": true,
      "motor_id": 3,
      "accel_val": 2000,
      "base_duration_us": 375000
    },
    {
      "id": "M_1163",
      "pitch": 86,
      "t_note_us": 94500000,
      "t_trigger_us": 94364037,
      "is_ai": true,
      "track_id": 4,
      "velocity": 0,
      "is_motor": false,
      "motor_id": 0,
      "accel_val": 2000,
      "base_duration_us": 375000
    },
    {
      "id": "M_1164",
      "pitch": 93,
      "t_note_us": 94500000,
      "t_trigger_us": 94364037,
      "is_ai": true,
      "track_id": 8,
      "velocity": 0,
      "is_motor": false,
      "motor_id": 0,
      "accel_val": 2000,
      "base_duration_us": 375000
    },
    {
      "id": "M_1162",
      "pitch": 69,
      "t_note_us": 94500000,
      "t_trigger_us": 94364037,
      "is_ai": false,
      "track_id": 0,
      "velocity": 0,
      "is_motor": true,
      "motor_id": 1,
      "accel_val": 2000,
      "base_duration_us": 375000
    },
    {
      "id": "M_1165",
      "pitch": 54,
      "t_note_us": 94500000,
      "t_trigger_us": 94364037,
      "is_ai": false,
      "track_id": 0,
      "velocity": 0,
      "is_motor": true,
      "motor_id": 0,
      "accel_val": 2000,
      "base_duration_us": 375000
    },
    {
      "id": "M_1166",
      "pitch": 66,
      "t_note_us": 94500000,
      "t_trigger_us": 94364037,
      "is_ai": false,
      "track_id": 0,
      "velocity": 0,
      "is_motor": true,
      "motor_id": 2,
      "accel_val": 2000,
      "base_duration_us": 375000
    },
    {
      "id": "M_1167",
      "pitch": 72,
      "t_note_us": 95062500,
      "t_trigger_us": 94926537,
      "is_ai": false,
      "track_id": 0,
      "velocity": 0,
      "is_motor": true,
      "motor_id": 1,
      "accel_val": 2000,
      "base_duration_us": 187500
    },
    {
      "id": "M_1168",
      "pitch": 76,
      "t_note_us": 95062500,
      "t_trigger_us": 94926537,
      "is_ai": false,
      "track_id": 0,
      "velocity": 0,
      "is_motor": true,
      "motor_id": 2,
      "accel_val": 2000,
      "base_duration_us": 187500
    },
    {
      "id": "M_1169",
      "pitch": 69,
      "t_note_us": 95062500,
      "t_trigger_us": 94926537,
      "is_ai": false,
      "track_id": 0,
      "velocity": 0,
      "is_motor": true,
      "motor_id": 0,
      "accel_val": 2000,
      "base_duration_us": 187500
    },
    {
      "id": "M_1170",
      "pitch": 57,
      "t_note_us": 95062500,
      "t_trigger_us": 94926537,
      "is_ai": false,
      "track_id": 0,
      "velocity": 0,
      "is_motor": true,
      "motor_id": 3,
      "accel_val": 2000,
      "base_duration_us": 187500
    },
    {
      "id": "M_1171",
      "pitch": 69,
      "t_note_us": 95062500,
      "t_trigger_us": 94926537,
      "is_ai": false,
      "track_id": 0,
      "velocity": 0,
      "is_motor": true,
      "motor_id": 0,
      "accel_val": 2000,
      "base_duration_us": 187500
    },
    {
      "id": "M_1172",
      "pitch": 72,
      "t_note_us": 95250000,
      "t_trigger_us": 95114037,
      "is_ai": false,
      "track_id": 0,
      "velocity": 0,
      "is_motor": true,
      "motor_id": 1,
      "accel_val": 2000,
      "base_duration_us": 187500
    },
    {
      "id": "M_1173",
      "pitch": 76,
      "t_note_us": 95250000,
      "t_trigger_us": 95114037,
      "is_ai": false,
      "track_id": 0,
      "velocity": 0,
      "is_motor": true,
      "motor_id": 2,
      "accel_val": 2000,
      "base_duration_us": 187500
    },
    {
      "id": "M_1174",
      "pitch": 69,
      "t_note_us": 95250000,
      "t_trigger_us": 95114037,
      "is_ai": false,
      "track_id": 0,
      "velocity": 0,
      "is_motor": true,
      "motor_id": 0,
      "accel_val": 2000,
      "base_duration_us": 187500
    },
    {
      "id": "M_1175",
      "pitch": 57,
      "t_note_us": 95250000,
      "t_trigger_us": 95114037,
      "is_ai": false,
      "track_id": 0,
      "velocity": 0,
      "is_motor": true,
      "motor_id": 3,
      "accel_val": 2000,
      "base_duration_us": 187500
    },
    {
      "id": "M_1176",
      "pitch": 69,
      "t_note_us": 95250000,
      "t_trigger_us": 95114037,
      "is_ai": false,
      "track_id": 0,
      "velocity": 0,
      "is_motor": true,
      "motor_id": 0,
      "accel_val": 2000,
      "base_duration_us": 187500
    },
    {
      "id": "M_1179",
      "pitch": 84,
      "t_note_us": 95625000,
      "t_trigger_us": 95489037,
      "is_ai": true,
      "track_id": 3,
      "velocity": 0,
      "is_motor": false,
      "motor_id": 0,
      "accel_val": 2000,
      "base_duration_us": 562500
    },
    {
      "id": "M_1177",
      "pitch": 76,
      "t_note_us": 95625000,
      "t_trigger_us": 95489037,
      "is_ai": false,
      "track_id": 0,
      "velocity": 0,
      "is_motor": true,
      "motor_id": 2,
      "accel_val": 2000,
      "base_duration_us": 562500
    },
    {
      "id": "M_1178",
      "pitch": 67,
      "t_note_us": 95625000,
      "t_trigger_us": 95489037,
      "is_ai": false,
      "track_id": 0,
      "velocity": 0,
      "is_motor": true,
      "motor_id": 1,
      "accel_val": 2000,
      "base_duration_us": 562500
    },
    {
      "id": "M_1180",
      "pitch": 60,
      "t_note_us": 95625000,
      "t_trigger_us": 95489037,
      "is_ai": false,
      "track_id": 0,
      "velocity": 0,
      "is_motor": true,
      "motor_id": 0,
      "accel_val": 2000,
      "base_duration_us": 562500
    },
    {
      "id": "M_1181",
      "pitch": 72,
      "t_note_us": 95625000,
      "t_trigger_us": 95489037,
      "is_ai": false,
      "track_id": 0,
      "velocity": 0,
      "is_motor": true,
      "motor_id": 3,
      "accel_val": 2000,
      "base_duration_us": 562500
    },
    {
      "id": "M_1182",
      "pitch": 72,
      "t_note_us": 96187500,
      "t_trigger_us": 96051537,
      "is_ai": false,
      "track_id": 0,
      "velocity": 0,
      "is_motor": true,
      "motor_id": 1,
      "accel_val": 2000,
      "base_duration_us": 187500
    },
    {
      "id": "M_1183",
      "pitch": 76,
      "t_note_us": 96187500,
      "t_trigger_us": 96051537,
      "is_ai": false,
      "track_id": 0,
      "velocity": 0,
      "is_motor": true,
      "motor_id": 2,
      "accel_val": 2000,
      "base_duration_us": 187500
    },
    {
      "id": "M_1184",
      "pitch": 69,
      "t_note_us": 96187500,
      "t_trigger_us": 96051537,
      "is_ai": false,
      "track_id": 0,
      "velocity": 0,
      "is_motor": true,
      "motor_id": 0,
      "accel_val": 2000,
      "base_duration_us": 187500
    },
    {
      "id": "M_1185",
      "pitch": 57,
      "t_note_us": 96187500,
      "t_trigger_us": 96051537,
      "is_ai": false,
      "track_id": 0,
      "velocity": 0,
      "is_motor": true,
      "motor_id": 3,
      "accel_val": 2000,
      "base_duration_us": 187500
    },
    {
      "id": "M_1186",
      "pitch": 69,
      "t_note_us": 96187500,
      "t_trigger_us": 96051537,
      "is_ai": false,
      "track_id": 0,
      "velocity": 0,
      "is_motor": true,
      "motor_id": 0,
      "accel_val": 2000,
      "base_duration_us": 187500
    },
    {
      "id": "M_1187",
      "pitch": 72,
      "t_note_us": 96562500,
      "t_trigger_us": 96426537,
      "is_ai": false,
      "track_id": 0,
      "velocity": 0,
      "is_motor": true,
      "motor_id": 1,
      "accel_val": 2000,
      "base_duration_us": 187500
    },
    {
      "id": "M_1188",
      "pitch": 76,
      "t_note_us": 96562500,
      "t_trigger_us": 96426537,
      "is_ai": false,
      "track_id": 0,
      "velocity": 0,
      "is_motor": true,
      "motor_id": 2,
      "accel_val": 2000,
      "base_duration_us": 187500
    },
    {
      "id": "M_1189",
      "pitch": 69,
      "t_note_us": 96562500,
      "t_trigger_us": 96426537,
      "is_ai": false,
      "track_id": 0,
      "velocity": 0,
      "is_motor": true,
      "motor_id": 0,
      "accel_val": 2000,
      "base_duration_us": 187500
    },
    {
      "id": "M_1190",
      "pitch": 57,
      "t_note_us": 96562500,
      "t_trigger_us": 96426537,
      "is_ai": false,
      "track_id": 0,
      "velocity": 0,
      "is_motor": true,
      "motor_id": 3,
      "accel_val": 2000,
      "base_duration_us": 187500
    },
    {
      "id": "M_1191",
      "pitch": 69,
      "t_note_us": 96562500,
      "t_trigger_us": 96426537,
      "is_ai": false,
      "track_id": 0,
      "velocity": 0,
      "is_motor": true,
      "motor_id": 0,
      "accel_val": 2000,
      "base_duration_us": 187500
    },
    {
      "id": "M_1192",
      "pitch": 72,
      "t_note_us": 96750000,
      "t_trigger_us": 96614037,
      "is_ai": false,
      "track_id": 0,
      "velocity": 0,
      "is_motor": true,
      "motor_id": 1,
      "accel_val": 2000,
      "base_duration_us": 187500
    },
    {
      "id": "M_1193",
      "pitch": 76,
      "t_note_us": 96750000,
      "t_trigger_us": 96614037,
      "is_ai": false,
      "track_id": 0,
      "velocity": 0,
      "is_motor": true,
      "motor_id": 2,
      "accel_val": 2000,
      "base_duration_us": 187500
    },
    {
      "id": "M_1194",
      "pitch": 69,
      "t_note_us": 96750000,
      "t_trigger_us": 96614037,
      "is_ai": false,
      "track_id": 0,
      "velocity": 0,
      "is_motor": true,
      "motor_id": 0,
      "accel_val": 2000,
      "base_duration_us": 187500
    },
    {
      "id": "M_1195",
      "pitch": 72,
      "t_note_us": 96750000,
      "t_trigger_us": 96614037,
      "is_ai": false,
      "track_id": 0,
      "velocity": 0,
      "is_motor": true,
      "motor_id": 3,
      "accel_val": 2000,
      "base_duration_us": 187500
    },
    {
      "id": "M_1196",
      "pitch": 57,
      "t_note_us": 96750000,
      "t_trigger_us": 96614037,
      "is_ai": false,
      "track_id": 0,
      "velocity": 0,
      "is_motor": true,
      "motor_id": 0,
      "accel_val": 2000,
      "base_duration_us": 187500
    },
    {
      "id": "M_1197",
      "pitch": 69,
      "t_note_us": 96750000,
      "t_trigger_us": 96614037,
      "is_ai": false,
      "track_id": 0,
      "velocity": 0,
      "is_motor": true,
      "motor_id": 0,
      "accel_val": 2000,
      "base_duration_us": 187500
    },
    {
      "id": "M_1198",
      "pitch": 72,
      "t_note_us": 97125000,
      "t_trigger_us": 96989037,
      "is_ai": false,
      "track_id": 0,
      "velocity": 0,
      "is_motor": true,
      "motor_id": 1,
      "accel_val": 2000,
      "base_duration_us": 187500
    },
    {
      "id": "M_1199",
      "pitch": 76,
      "t_note_us": 97125000,
      "t_trigger_us": 96989037,
      "is_ai": false,
      "track_id": 0,
      "velocity": 0,
      "is_motor": true,
      "motor_id": 2,
      "accel_val": 2000,
      "base_duration_us": 187500
    },
    {
      "id": "M_1200",
      "pitch": 60,
      "t_note_us": 97125000,
      "t_trigger_us": 96989037,
      "is_ai": false,
      "track_id": 0,
      "velocity": 0,
      "is_motor": true,
      "motor_id": 0,
      "accel_val": 2000,
      "base_duration_us": 187500
    },
    {
      "id": "M_1201",
      "pitch": 72,
      "t_note_us": 97125000,
      "t_trigger_us": 96989037,
      "is_ai": false,
      "track_id": 0,
      "velocity": 0,
      "is_motor": true,
      "motor_id": 3,
      "accel_val": 2000,
      "base_duration_us": 187500
    },
    {
      "id": "M_1202",
      "pitch": 69,
      "t_note_us": 97125000,
      "t_trigger_us": 96989037,
      "is_ai": false,
      "track_id": 0,
      "velocity": 0,
      "is_motor": true,
      "motor_id": 0,
      "accel_val": 2000,
      "base_duration_us": 375000
    },
    {
      "id": "M_1204",
      "pitch": 74,
      "t_note_us": 97312500,
      "t_trigger_us": 97176537,
      "is_ai": false,
      "track_id": 0,
      "velocity": 0,
      "is_motor": true,
      "motor_id": 1,
      "accel_val": 2000,
      "base_duration_us": 562500
    },
    {
      "id": "M_1205",
      "pitch": 78,
      "t_note_us": 97312500,
      "t_trigger_us": 97176537,
      "is_ai": false,
      "track_id": 0,
      "velocity": 0,
      "is_motor": true,
      "motor_id": 2,
      "accel_val": 2000,
      "base_duration_us": 562500
    },
    {
      "id": "M_1206",
      "pitch": 62,
      "t_note_us": 97312500,
      "t_trigger_us": 97176537,
      "is_ai": false,
      "track_id": 0,
      "velocity": 0,
      "is_motor": true,
      "motor_id": 0,
      "accel_val": 2000,
      "base_duration_us": 562500
    },
    {
      "id": "M_1207",
      "pitch": 74,
      "t_note_us": 97312500,
      "t_trigger_us": 97176537,
      "is_ai": false,
      "track_id": 0,
      "velocity": 0,
      "is_motor": true,
      "motor_id": 3,
      "accel_val": 2000,
      "base_duration_us": 562500
    },
    {
      "id": "M_1203",
      "pitch": 88,
      "t_note_us": 97500000,
      "t_trigger_us": 97364037,
      "is_ai": true,
      "track_id": 5,
      "velocity": 0,
      "is_motor": false,
      "motor_id": 0,
      "accel_val": 2000,
      "base_duration_us": 375000
    },
    {
      "id": "M_1208",
      "pitch": 72,
      "t_note_us": 97875000,
      "t_trigger_us": 97739037,
      "is_ai": false,
      "track_id": 0,
      "velocity": 0,
      "is_motor": true,
      "motor_id": 1,
      "accel_val": 2000,
      "base_duration_us": 187500
    },
    {
      "id": "M_1209",
      "pitch": 76,
      "t_note_us": 97875000,
      "t_trigger_us": 97739037,
      "is_ai": false,
      "track_id": 0,
      "velocity": 0,
      "is_motor": true,
      "motor_id": 2,
      "accel_val": 2000,
      "base_duration_us": 187500
    },
    {
      "id": "M_1210",
      "pitch": 69,
      "t_note_us": 97875000,
      "t_trigger_us": 97739037,
      "is_ai": false,
      "track_id": 0,
      "velocity": 0,
      "is_motor": true,
      "motor_id": 0,
      "accel_val": 2000,
      "base_duration_us": 187500
    },
    {
      "id": "M_1211",
      "pitch": 57,
      "t_note_us": 97875000,
      "t_trigger_us": 97739037,
      "is_ai": false,
      "track_id": 0,
      "velocity": 0,
      "is_motor": true,
      "motor_id": 3,
      "accel_val": 2000,
      "base_duration_us": 187500
    },
    {
      "id": "M_1212",
      "pitch": 69,
      "t_note_us": 97875000,
      "t_trigger_us": 97739037,
      "is_ai": false,
      "track_id": 0,
      "velocity": 0,
      "is_motor": true,
      "motor_id": 0,
      "accel_val": 2000,
      "base_duration_us": 187500
    },
    {
      "id": "M_1213",
      "pitch": 72,
      "t_note_us": 98062500,
      "t_trigger_us": 97926537,
      "is_ai": false,
      "track_id": 0,
      "velocity": 0,
      "is_motor": true,
      "motor_id": 1,
      "accel_val": 2000,
      "base_duration_us": 187500
    },
    {
      "id": "M_1214",
      "pitch": 76,
      "t_note_us": 98062500,
      "t_trigger_us": 97926537,
      "is_ai": false,
      "track_id": 0,
      "velocity": 0,
      "is_motor": true,
      "motor_id": 2,
      "accel_val": 2000,
      "base_duration_us": 187500
    },
    {
      "id": "M_1215",
      "pitch": 69,
      "t_note_us": 98062500,
      "t_trigger_us": 97926537,
      "is_ai": false,
      "track_id": 0,
      "velocity": 0,
      "is_motor": true,
      "motor_id": 0,
      "accel_val": 2000,
      "base_duration_us": 187500
    },
    {
      "id": "M_1216",
      "pitch": 57,
      "t_note_us": 98062500,
      "t_trigger_us": 97926537,
      "is_ai": false,
      "track_id": 0,
      "velocity": 0,
      "is_motor": true,
      "motor_id": 3,
      "accel_val": 2000,
      "base_duration_us": 187500
    },
    {
      "id": "M_1217",
      "pitch": 69,
      "t_note_us": 98062500,
      "t_trigger_us": 97926537,
      "is_ai": false,
      "track_id": 0,
      "velocity": 0,
      "is_motor": true,
      "motor_id": 0,
      "accel_val": 2000,
      "base_duration_us": 187500
    },
    {
      "id": "M_1218",
      "pitch": 72,
      "t_note_us": 98250000,
      "t_trigger_us": 98114037,
      "is_ai": false,
      "track_id": 0,
      "velocity": 0,
      "is_motor": true,
      "motor_id": 1,
      "accel_val": 2000,
      "base_duration_us": 187500
    },
    {
      "id": "M_1219",
      "pitch": 76,
      "t_note_us": 98250000,
      "t_trigger_us": 98114037,
      "is_ai": false,
      "track_id": 0,
      "velocity": 0,
      "is_motor": true,
      "motor_id": 2,
      "accel_val": 2000,
      "base_duration_us": 187500
    },
    {
      "id": "M_1220",
      "pitch": 69,
      "t_note_us": 98250000,
      "t_trigger_us": 98114037,
      "is_ai": false,
      "track_id": 0,
      "velocity": 0,
      "is_motor": true,
      "motor_id": 0,
      "accel_val": 2000,
      "base_duration_us": 187500
    },
    {
      "id": "M_1221",
      "pitch": 57,
      "t_note_us": 98250000,
      "t_trigger_us": 98114037,
      "is_ai": false,
      "track_id": 0,
      "velocity": 0,
      "is_motor": true,
      "motor_id": 3,
      "accel_val": 2000,
      "base_duration_us": 187500
    },
    {
      "id": "M_1222",
      "pitch": 69,
      "t_note_us": 98250000,
      "t_trigger_us": 98114037,
      "is_ai": false,
      "track_id": 0,
      "velocity": 0,
      "is_motor": true,
      "motor_id": 0,
      "accel_val": 2000,
      "base_duration_us": 187500
    },
    {
      "id": "M_1225",
      "pitch": 84,
      "t_note_us": 98625000,
      "t_trigger_us": 98489037,
      "is_ai": true,
      "track_id": 3,
      "velocity": 0,
      "is_motor": false,
      "motor_id": 0,
      "accel_val": 2000,
      "base_duration_us": 562500
    },
    {
      "id": "M_1223",
      "pitch": 76,
      "t_note_us": 98625000,
      "t_trigger_us": 98489037,
      "is_ai": false,
      "track_id": 0,
      "velocity": 0,
      "is_motor": true,
      "motor_id": 2,
      "accel_val": 2000,
      "base_duration_us": 562500
    },
    {
      "id": "M_1224",
      "pitch": 67,
      "t_note_us": 98625000,
      "t_trigger_us": 98489037,
      "is_ai": false,
      "track_id": 0,
      "velocity": 0,
      "is_motor": true,
      "motor_id": 1,
      "accel_val": 2000,
      "base_duration_us": 562500
    },
    {
      "id": "M_1226",
      "pitch": 60,
      "t_note_us": 98625000,
      "t_trigger_us": 98489037,
      "is_ai": false,
      "track_id": 0,
      "velocity": 0,
      "is_motor": true,
      "motor_id": 0,
      "accel_val": 2000,
      "base_duration_us": 562500
    },
    {
      "id": "M_1227",
      "pitch": 72,
      "t_note_us": 98625000,
      "t_trigger_us": 98489037,
      "is_ai": false,
      "track_id": 0,
      "velocity": 0,
      "is_motor": true,
      "motor_id": 3,
      "accel_val": 2000,
      "base_duration_us": 562500
    },
    {
      "id": "M_1228",
      "pitch": 72,
      "t_note_us": 99187500,
      "t_trigger_us": 99051537,
      "is_ai": false,
      "track_id": 0,
      "velocity": 0,
      "is_motor": true,
      "motor_id": 1,
      "accel_val": 2000,
      "base_duration_us": 187500
    },
    {
      "id": "M_1229",
      "pitch": 76,
      "t_note_us": 99187500,
      "t_trigger_us": 99051537,
      "is_ai": false,
      "track_id": 0,
      "velocity": 0,
      "is_motor": true,
      "motor_id": 2,
      "accel_val": 2000,
      "base_duration_us": 187500
    },
    {
      "id": "M_1230",
      "pitch": 69,
      "t_note_us": 99187500,
      "t_trigger_us": 99051537,
      "is_ai": false,
      "track_id": 0,
      "velocity": 0,
      "is_motor": true,
      "motor_id": 0,
      "accel_val": 2000,
      "base_duration_us": 187500
    },
    {
      "id": "M_1231",
      "pitch": 57,
      "t_note_us": 99187500,
      "t_trigger_us": 99051537,
      "is_ai": false,
      "track_id": 0,
      "velocity": 0,
      "is_motor": true,
      "motor_id": 3,
      "accel_val": 2000,
      "base_duration_us": 187500
    },
    {
      "id": "M_1232",
      "pitch": 69,
      "t_note_us": 99187500,
      "t_trigger_us": 99051537,
      "is_ai": false,
      "track_id": 0,
      "velocity": 0,
      "is_motor": true,
      "motor_id": 0,
      "accel_val": 2000,
      "base_duration_us": 187500
    },
    {
      "id": "M_1233",
      "pitch": 72,
      "t_note_us": 99562500,
      "t_trigger_us": 99426537,
      "is_ai": false,
      "track_id": 0,
      "velocity": 0,
      "is_motor": true,
      "motor_id": 1,
      "accel_val": 2000,
      "base_duration_us": 187500
    },
    {
      "id": "M_1234",
      "pitch": 76,
      "t_note_us": 99562500,
      "t_trigger_us": 99426537,
      "is_ai": false,
      "track_id": 0,
      "velocity": 0,
      "is_motor": true,
      "motor_id": 2,
      "accel_val": 2000,
      "base_duration_us": 187500
    },
    {
      "id": "M_1235",
      "pitch": 69,
      "t_note_us": 99562500,
      "t_trigger_us": 99426537,
      "is_ai": false,
      "track_id": 0,
      "velocity": 0,
      "is_motor": true,
      "motor_id": 0,
      "accel_val": 2000,
      "base_duration_us": 187500
    },
    {
      "id": "M_1236",
      "pitch": 57,
      "t_note_us": 99562500,
      "t_trigger_us": 99426537,
      "is_ai": false,
      "track_id": 0,
      "velocity": 0,
      "is_motor": true,
      "motor_id": 3,
      "accel_val": 2000,
      "base_duration_us": 187500
    },
    {
      "id": "M_1237",
      "pitch": 69,
      "t_note_us": 99562500,
      "t_trigger_us": 99426537,
      "is_ai": false,
      "track_id": 0,
      "velocity": 0,
      "is_motor": true,
      "motor_id": 0,
      "accel_val": 2000,
      "base_duration_us": 187500
    },
    {
      "id": "M_1238",
      "pitch": 72,
      "t_note_us": 99750000,
      "t_trigger_us": 99614037,
      "is_ai": false,
      "track_id": 0,
      "velocity": 0,
      "is_motor": true,
      "motor_id": 1,
      "accel_val": 2000,
      "base_duration_us": 187500
    },
    {
      "id": "M_1239",
      "pitch": 76,
      "t_note_us": 99750000,
      "t_trigger_us": 99614037,
      "is_ai": false,
      "track_id": 0,
      "velocity": 0,
      "is_motor": true,
      "motor_id": 2,
      "accel_val": 2000,
      "base_duration_us": 187500
    },
    {
      "id": "M_1240",
      "pitch": 69,
      "t_note_us": 99750000,
      "t_trigger_us": 99614037,
      "is_ai": false,
      "track_id": 0,
      "velocity": 0,
      "is_motor": true,
      "motor_id": 0,
      "accel_val": 2000,
      "base_duration_us": 187500
    },
    {
      "id": "M_1241",
      "pitch": 57,
      "t_note_us": 99750000,
      "t_trigger_us": 99614037,
      "is_ai": false,
      "track_id": 0,
      "velocity": 0,
      "is_motor": true,
      "motor_id": 3,
      "accel_val": 2000,
      "base_duration_us": 187500
    },
    {
      "id": "M_1242",
      "pitch": 69,
      "t_note_us": 99750000,
      "t_trigger_us": 99614037,
      "is_ai": false,
      "track_id": 0,
      "velocity": 0,
      "is_motor": true,
      "motor_id": 0,
      "accel_val": 2000,
      "base_duration_us": 187500
    },
    {
      "id": "M_1245",
      "pitch": 84,
      "t_note_us": 100125000,
      "t_trigger_us": 99989037,
      "is_ai": true,
      "track_id": 3,
      "velocity": 0,
      "is_motor": false,
      "motor_id": 0,
      "accel_val": 2000,
      "base_duration_us": 375000
    },
    {
      "id": "M_1243",
      "pitch": 76,
      "t_note_us": 100125000,
      "t_trigger_us": 99989037,
      "is_ai": false,
      "track_id": 0,
      "velocity": 0,
      "is_motor": true,
      "motor_id": 2,
      "accel_val": 2000,
      "base_duration_us": 375000
    },
    {
      "id": "M_1244",
      "pitch": 67,
      "t_note_us": 100125000,
      "t_trigger_us": 99989037,
      "is_ai": false,
      "track_id": 0,
      "velocity": 0,
      "is_motor": true,
      "motor_id": 1,
      "accel_val": 2000,
      "base_duration_us": 375000
    },
    {
      "id": "M_1246",
      "pitch": 60,
      "t_note_us": 100125000,
      "t_trigger_us": 99989037,
      "is_ai": false,
      "track_id": 0,
      "velocity": 0,
      "is_motor": true,
      "motor_id": 0,
      "accel_val": 2000,
      "base_duration_us": 375000
    },
    {
      "id": "M_1247",
      "pitch": 72,
      "t_note_us": 100125000,
      "t_trigger_us": 99989037,
      "is_ai": false,
      "track_id": 0,
      "velocity": 0,
      "is_motor": true,
      "motor_id": 3,
      "accel_val": 2000,
      "base_duration_us": 375000
    },
    {
      "id": "M_1250",
      "pitch": 86,
      "t_note_us": 100500000,
      "t_trigger_us": 100364037,
      "is_ai": true,
      "track_id": 4,
      "velocity": 0,
      "is_motor": false,
      "motor_id": 0,
      "accel_val": 2000,
      "base_duration_us": 375000
    },
    {
      "id": "M_1248",
      "pitch": 74,
      "t_note_us": 100500000,
      "t_trigger_us": 100364037,
      "is_ai": false,
      "track_id": 0,
      "velocity": 0,
      "is_motor": true,
      "motor_id": 1,
      "accel_val": 2000,
      "base_duration_us": 375000
    },
    {
      "id": "M_1249",
      "pitch": 78,
      "t_note_us": 100500000,
      "t_trigger_us": 100364037,
      "is_ai": false,
      "track_id": 0,
      "velocity": 0,
      "is_motor": true,
      "motor_id": 2,
      "accel_val": 2000,
      "base_duration_us": 375000
    },
    {
      "id": "M_1251",
      "pitch": 54,
      "t_note_us": 100500000,
      "t_trigger_us": 100364037,
      "is_ai": false,
      "track_id": 0,
      "velocity": 0,
      "is_motor": true,
      "motor_id": 0,
      "accel_val": 2000,
      "base_duration_us": 375000
    },
    {
      "id": "M_1252",
      "pitch": 66,
      "t_note_us": 100500000,
      "t_trigger_us": 100364037,
      "is_ai": false,
      "track_id": 0,
      "velocity": 0,
      "is_motor": true,
      "motor_id": 3,
      "accel_val": 2000,
      "base_duration_us": 375000
    },
    {
      "id": "M_1275",
      "pitch": 93,
      "t_note_us": 100875000,
      "t_trigger_us": 100739037,
      "is_ai": true,
      "track_id": 8,
      "velocity": 0,
      "is_motor": false,
      "motor_id": 0,
      "accel_val": 2000,
      "base_duration_us": 1500000
    },
    {
      "id": "M_1253",
      "pitch": 69,
      "t_note_us": 100875000,
      "t_trigger_us": 100739037,
      "is_ai": false,
      "track_id": 0,
      "velocity": 0,
      "is_motor": true,
      "motor_id": 1,
      "accel_val": 2000,
      "base_duration_us": 187500
    },
    {
      "id": "M_1254",
      "pitch": 57,
      "t_note_us": 100875000,
      "t_trigger_us": 100739037,
      "is_ai": false,
      "track_id": 0,
      "velocity": 0,
      "is_motor": true,
      "motor_id": 0,
      "accel_val": 2000,
      "base_duration_us": 187500
    },
    {
      "id": "M_1255",
      "pitch": 65,
      "t_note_us": 100875000,
      "t_trigger_us": 100739037,
      "is_ai": false,
      "track_id": 0,
      "velocity": 0,
      "is_motor": true,
      "motor_id": 2,
      "accel_val": 2000,
      "base_duration_us": 187500
    },
    {
      "id": "M_1256",
      "pitch": 72,
      "t_note_us": 101062500,
      "t_trigger_us": 100926537,
      "is_ai": false,
      "track_id": 0,
      "velocity": 0,
      "is_motor": true,
      "motor_id": 1,
      "accel_val": 2000,
      "base_duration_us": 187500
    },
    {
      "id": "M_1257",
      "pitch": 60,
      "t_note_us": 101062500,
      "t_trigger_us": 100926537,
      "is_ai": false,
      "track_id": 0,
      "velocity": 0,
      "is_motor": true,
      "motor_id": 0,
      "accel_val": 2000,
      "base_duration_us": 187500
    },
    {
      "id": "M_1258",
      "pitch": 65,
      "t_note_us": 101062500,
      "t_trigger_us": 100926537,
      "is_ai": false,
      "track_id": 0,
      "velocity": 0,
      "is_motor": true,
      "motor_id": 2,
      "accel_val": 2000,
      "base_duration_us": 187500
    },
    {
      "id": "M_1259",
      "pitch": 86,
      "t_note_us": 101250000,
      "t_trigger_us": 101114037,
      "is_ai": true,
      "track_id": 4,
      "velocity": 0,
      "is_motor": false,
      "motor_id": 0,
      "accel_val": 2000,
      "base_duration_us": 187500
    },
    {
      "id": "M_1260",
      "pitch": 62,
      "t_note_us": 101250000,
      "t_trigger_us": 101114037,
      "is_ai": false,
      "track_id": 0,
      "velocity": 0,
      "is_motor": true,
      "motor_id": 1,
      "accel_val": 2000,
      "base_duration_us": 187500
    },
    {
      "id": "M_1261",
      "pitch": 65,
      "t_note_us": 101250000,
      "t_trigger_us": 101114037,
      "is_ai": false,
      "track_id": 0,
      "velocity": 0,
      "is_motor": true,
      "motor_id": 0,
      "accel_val": 2000,
      "base_duration_us": 187500
    },
    {
      "id": "M_1262",
      "pitch": 87,
      "t_note_us": 101437500,
      "t_trigger_us": 101301537,
      "is_ai": true,
      "track_id": 0,
      "velocity": 0,
      "is_motor": true,
      "motor_id": 3,
      "accel_val": 2000,
      "base_duration_us": 187500
    },
    {
      "id": "M_1263",
      "pitch": 63,
      "t_note_us": 101437500,
      "t_trigger_us": 101301537,
      "is_ai": false,
      "track_id": 0,
      "velocity": 0,
      "is_motor": true,
      "motor_id": 1,
      "accel_val": 2000,
      "base_duration_us": 187500
    },
    {
      "id": "M_1264",
      "pitch": 65,
      "t_note_us": 101437500,
      "t_trigger_us": 101301537,
      "is_ai": false,
      "track_id": 0,
      "velocity": 0,
      "is_motor": true,
      "motor_id": 0,
      "accel_val": 2000,
      "base_duration_us": 187500
    },
    {
      "id": "M_1265",
      "pitch": 86,
      "t_note_us": 101625000,
      "t_trigger_us": 101489037,
      "is_ai": true,
      "track_id": 4,
      "velocity": 0,
      "is_motor": false,
      "motor_id": 0,
      "accel_val": 2000,
      "base_duration_us": 187500
    },
    {
      "id": "M_1266",
      "pitch": 62,
      "t_note_us": 101625000,
      "t_trigger_us": 101489037,
      "is_ai": false,
      "track_id": 0,
      "velocity": 0,
      "is_motor": true,
      "motor_id": 1,
      "accel_val": 2000,
      "base_duration_us": 187500
    },
    {
      "id": "M_1267",
      "pitch": 65,
      "t_note_us": 101625000,
      "t_trigger_us": 101489037,
      "is_ai": false,
      "track_id": 0,
      "velocity": 0,
      "is_motor": true,
      "motor_id": 0,
      "accel_val": 2000,
      "base_duration_us": 187500
    },
    {
      "id": "M_1268",
      "pitch": 84,
      "t_note_us": 101812500,
      "t_trigger_us": 101676537,
      "is_ai": true,
      "track_id": 3,
      "velocity": 0,
      "is_motor": false,
      "motor_id": 0,
      "accel_val": 2000,
      "base_duration_us": 187500
    },
    {
      "id": "M_1269",
      "pitch": 60,
      "t_note_us": 101812500,
      "t_trigger_us": 101676537,
      "is_ai": false,
      "track_id": 0,
      "velocity": 0,
      "is_motor": true,
      "motor_id": 1,
      "accel_val": 2000,
      "base_duration_us": 187500
    },
    {
      "id": "M_1270",
      "pitch": 65,
      "t_note_us": 101812500,
      "t_trigger_us": 101676537,
      "is_ai": false,
      "track_id": 0,
      "velocity": 0,
      "is_motor": true,
      "motor_id": 0,
      "accel_val": 2000,
      "base_duration_us": 187500
    },
    {
      "id": "M_1271",
      "pitch": 91,
      "t_note_us": 102000000,
      "t_trigger_us": 101864037,
      "is_ai": true,
      "track_id": 7,
      "velocity": 0,
      "is_motor": false,
      "motor_id": 0,
      "accel_val": 2000,
      "base_duration_us": 187500
    },
    {
      "id": "M_1272",
      "pitch": 55,
      "t_note_us": 102000000,
      "t_trigger_us": 101864037,
      "is_ai": false,
      "track_id": 0,
      "velocity": 0,
      "is_motor": true,
      "motor_id": 0,
      "accel_val": 2000,
      "base_duration_us": 187500
    },
    {
      "id": "M_1273",
      "pitch": 67,
      "t_note_us": 102000000,
      "t_trigger_us": 101864037,
      "is_ai": false,
      "track_id": 0,
      "velocity": 0,
      "is_motor": true,
      "motor_id": 1,
      "accel_val": 2000,
      "base_duration_us": 187500
    },
    {
      "id": "M_1274",
      "pitch": 90,
      "t_note_us": 102187500,
      "t_trigger_us": 102051537,
      "is_ai": true,
      "track_id": 0,
      "velocity": 0,
      "is_motor": true,
      "motor_id": 3,
      "accel_val": 2000,
      "base_duration_us": 187500
    },
    {
      "id": "M_1276",
      "pitch": 53,
      "t_note_us": 102187500,
      "t_trigger_us": 102051537,
      "is_ai": false,
      "track_id": 0,
      "velocity": 0,
      "is_motor": true,
      "motor_id": 0,
      "accel_val": 2000,
      "base_duration_us": 187500
    },
    {
      "id": "M_1277",
      "pitch": 65,
      "t_note_us": 102187500,
      "t_trigger_us": 102051537,
      "is_ai": false,
      "track_id": 0,
      "velocity": 0,
      "is_motor": true,
      "motor_id": 1,
      "accel_val": 2000,
      "base_duration_us": 187500
    },
    {
      "id": "M_1278",
      "pitch": 89,
      "t_note_us": 102375000,
      "t_trigger_us": 102239037,
      "is_ai": true,
      "track_id": 6,
      "velocity": 0,
      "is_motor": false,
      "motor_id": 0,
      "accel_val": 2000,
      "base_duration_us": 187500
    },
    {
      "id": "M_1279",
      "pitch": 55,
      "t_note_us": 102375000,
      "t_trigger_us": 102239037,
      "is_ai": false,
      "track_id": 0,
      "velocity": 0,
      "is_motor": true,
      "motor_id": 0,
      "accel_val": 2000,
      "base_duration_us": 187500
    },
    {
      "id": "M_1280",
      "pitch": 67,
      "t_note_us": 102375000,
      "t_trigger_us": 102239037,
      "is_ai": false,
      "track_id": 0,
      "velocity": 0,
      "is_motor": true,
      "motor_id": 1,
      "accel_val": 2000,
      "base_duration_us": 187500
    },
    {
      "id": "M_1281",
      "pitch": 91,
      "t_note_us": 102562500,
      "t_trigger_us": 102426537,
      "is_ai": true,
      "track_id": 7,
      "velocity": 0,
      "is_motor": false,
      "motor_id": 0,
      "accel_val": 2000,
      "base_duration_us": 187500
    },
    {
      "id": "M_1282",
      "pitch": 55,
      "t_note_us": 102562500,
      "t_trigger_us": 102426537,
      "is_ai": false,
      "track_id": 0,
      "velocity": 0,
      "is_motor": true,
      "motor_id": 0,
      "accel_val": 2000,
      "base_duration_us": 187500
    },
    {
      "id": "M_1283",
      "pitch": 65,
      "t_note_us": 102562500,
      "t_trigger_us": 102426537,
      "is_ai": false,
      "track_id": 0,
      "velocity": 0,
      "is_motor": true,
      "motor_id": 1,
      "accel_val": 2000,
      "base_duration_us": 187500
    },
    {
      "id": "M_1284",
      "pitch": 91,
      "t_note_us": 102750000,
      "t_trigger_us": 102614037,
      "is_ai": true,
      "track_id": 7,
      "velocity": 0,
      "is_motor": false,
      "motor_id": 0,
      "accel_val": 2000,
      "base_duration_us": 187500
    },
    {
      "id": "M_1285",
      "pitch": 55,
      "t_note_us": 102750000,
      "t_trigger_us": 102614037,
      "is_ai": false,
      "track_id": 0,
      "velocity": 0,
      "is_motor": true,
      "motor_id": 0,
      "accel_val": 2000,
      "base_duration_us": 187500
    },
    {
      "id": "M_1286",
      "pitch": 67,
      "t_note_us": 102750000,
      "t_trigger_us": 102614037,
      "is_ai": false,
      "track_id": 0,
      "velocity": 0,
      "is_motor": true,
      "motor_id": 1,
      "accel_val": 2000,
      "base_duration_us": 187500
    },
    {
      "id": "M_1287",
      "pitch": 91,
      "t_note_us": 102937500,
      "t_trigger_us": 102801537,
      "is_ai": true,
      "track_id": 7,
      "velocity": 0,
      "is_motor": false,
      "motor_id": 0,
      "accel_val": 2000,
      "base_duration_us": 187500
    },
    {
      "id": "M_1288",
      "pitch": 55,
      "t_note_us": 102937500,
      "t_trigger_us": 102801537,
      "is_ai": false,
      "track_id": 0,
      "velocity": 0,
      "is_motor": true,
      "motor_id": 0,
      "accel_val": 2000,
      "base_duration_us": 187500
    },
    {
      "id": "M_1289",
      "pitch": 67,
      "t_note_us": 102937500,
      "t_trigger_us": 102801537,
      "is_ai": false,
      "track_id": 0,
      "velocity": 0,
      "is_motor": true,
      "motor_id": 1,
      "accel_val": 2000,
      "base_duration_us": 187500
    },
    {
      "id": "M_1290",
      "pitch": 88,
      "t_note_us": 103125000,
      "t_trigger_us": 102989037,
      "is_ai": true,
      "track_id": 5,
      "velocity": 0,
      "is_motor": false,
      "motor_id": 0,
      "accel_val": 2000,
      "base_duration_us": 187500
    },
    {
      "id": "M_1291",
      "pitch": 93,
      "t_note_us": 103125000,
      "t_trigger_us": 102989037,
      "is_ai": true,
      "track_id": 8,
      "velocity": 0,
      "is_motor": false,
      "motor_id": 0,
      "accel_val": 2000,
      "base_duration_us": 187500
    },
    {
      "id": "M_1294",
      "pitch": 55,
      "t_note_us": 103125000,
      "t_trigger_us": 102989037,
      "is_ai": false,
      "track_id": 0,
      "velocity": 0,
      "is_motor": true,
      "motor_id": 0,
      "accel_val": 2000,
      "base_duration_us": 375000
    },
    {
      "id": "M_1295",
      "pitch": 67,
      "t_note_us": 103125000,
      "t_trigger_us": 102989037,
      "is_ai": false,
      "track_id": 0,
      "velocity": 0,
      "is_motor": true,
      "motor_id": 1,
      "accel_val": 2000,
      "base_duration_us": 375000
    },
    {
      "id": "M_1292",
      "pitch": 88,
      "t_note_us": 103312500,
      "t_trigger_us": 103176537,
      "is_ai": true,
      "track_id": 5,
      "velocity": 0,
      "is_motor": false,
      "motor_id": 0,
      "accel_val": 2000,
      "base_duration_us": 187500
    },
    {
      "id": "M_1293",
      "pitch": 93,
      "t_note_us": 103312500,
      "t_trigger_us": 103176537,
      "is_ai": true,
      "track_id": 8,
      "velocity": 0,
      "is_motor": false,
      "motor_id": 0,
      "accel_val": 2000,
      "base_duration_us": 187500
    },
    {
      "id": "M_1296",
      "pitch": 88,
      "t_note_us": 103500000,
      "t_trigger_us": 103364037,
      "is_ai": true,
      "track_id": 5,
      "velocity": 0,
      "is_motor": false,
      "motor_id": 0,
      "accel_val": 2000,
      "base_duration_us": 187500
    },
    {
      "id": "M_1298",
      "pitch": 53,
      "t_note_us": 103500000,
      "t_trigger_us": 103364037,
      "is_ai": false,
      "track_id": 0,
      "velocity": 0,
      "is_motor": true,
      "motor_id": 0,
      "accel_val": 2000,
      "base_duration_us": 375000
    },
    {
      "id": "M_1299",
      "pitch": 65,
      "t_note_us": 103500000,
      "t_trigger_us": 103364037,
      "is_ai": false,
      "track_id": 0,
      "velocity": 0,
      "is_motor": true,
      "motor_id": 1,
      "accel_val": 2000,
      "base_duration_us": 375000
    },
    {
      "id": "M_1297",
      "pitch": 91,
      "t_note_us": 103687500,
      "t_trigger_us": 103551537,
      "is_ai": true,
      "track_id": 7,
      "velocity": 0,
      "is_motor": false,
      "motor_id": 0,
      "accel_val": 2000,
      "base_duration_us": 187500
    },
    {
      "id": "M_1300",
      "pitch": 88,
      "t_note_us": 103875000,
      "t_trigger_us": 103739037,
      "is_ai": true,
      "track_id": 5,
      "velocity": 0,
      "is_motor": false,
      "motor_id": 0,
      "accel_val": 2000,
      "base_duration_us": 187500
    },
    {
      "id": "M_1301",
      "pitch": 95,
      "t_note_us": 103875000,
      "t_trigger_us": 103739037,
      "is_ai": true,
      "track_id": 9,
      "velocity": 0,
      "is_motor": false,
      "motor_id": 0,
      "accel_val": 2000,
      "base_duration_us": 187500
    },
    {
      "id": "M_1302",
      "pitch": 57,
      "t_note_us": 103875000,
      "t_trigger_us": 103739037,
      "is_ai": false,
      "track_id": 0,
      "velocity": 0,
      "is_motor": true,
      "motor_id": 0,
      "accel_val": 2000,
      "base_duration_us": 187500
    },
    {
      "id": "M_1303",
      "pitch": 88,
      "t_note_us": 104062500,
      "t_trigger_us": 103926537,
      "is_ai": true,
      "track_id": 5,
      "velocity": 0,
      "is_motor": false,
      "motor_id": 0,
      "accel_val": 2000,
      "base_duration_us": 187500
    },
    {
      "id": "M_1304",
      "pitch": 93,
      "t_note_us": 104062500,
      "t_trigger_us": 103926537,
      "is_ai": true,
      "track_id": 8,
      "velocity": 0,
      "is_motor": false,
      "motor_id": 0,
      "accel_val": 2000,
      "base_duration_us": 187500
    },
    {
      "id": "M_1305",
      "pitch": 57,
      "t_note_us": 104062500,
      "t_trigger_us": 103926537,
      "is_ai": false,
      "track_id": 0,
      "velocity": 0,
      "is_motor": true,
      "motor_id": 0,
      "accel_val": 2000,
      "base_duration_us": 187500
    },
    {
      "id": "M_1306",
      "pitch": 64,
      "t_note_us": 104250000,
      "t_trigger_us": 104114037,
      "is_ai": false,
      "track_id": 0,
      "velocity": 0,
      "is_motor": true,
      "motor_id": 1,
      "accel_val": 2000,
      "base_duration_us": 187500
    },
    {
      "id": "M_1307",
      "pitch": 69,
      "t_note_us": 104250000,
      "t_trigger_us": 104114037,
      "is_ai": false,
      "track_id": 0,
      "velocity": 0,
      "is_motor": true,
      "motor_id": 2,
      "accel_val": 2000,
      "base_duration_us": 187500
    },
    {
      "id": "M_1308",
      "pitch": 91,
      "t_note_us": 104437500,
      "t_trigger_us": 104301537,
      "is_ai": true,
      "track_id": 7,
      "velocity": 0,
      "is_motor": false,
      "motor_id": 0,
      "accel_val": 2000,
      "base_duration_us": 187500
    },
    {
      "id": "M_1309",
      "pitch": 57,
      "t_note_us": 104437500,
      "t_trigger_us": 104301537,
      "is_ai": false,
      "track_id": 0,
      "velocity": 0,
      "is_motor": true,
      "motor_id": 0,
      "accel_val": 2000,
      "base_duration_us": 187500
    },
    {
      "id": "M_1311",
      "pitch": 84,
      "t_note_us": 104625000,
      "t_trigger_us": 104489037,
      "is_ai": true,
      "track_id": 3,
      "velocity": 0,
      "is_motor": false,
      "motor_id": 0,
      "accel_val": 2000,
      "base_duration_us": 375000
    },
    {
      "id": "M_1312",
      "pitch": 91,
      "t_note_us": 104625000,
      "t_trigger_us": 104489037,
      "is_ai": true,
      "track_id": 7,
      "velocity": 0,
      "is_motor": false,
      "motor_id": 0,
      "accel_val": 2000,
      "base_duration_us": 375000
    },
    {
      "id": "M_1310",
      "pitch": 57,
      "t_note_us": 104625000,
      "t_trigger_us": 104489037,
      "is_ai": false,
      "track_id": 0,
      "velocity": 0,
      "is_motor": true,
      "motor_id": 0,
      "accel_val": 2000,
      "base_duration_us": 187500
    },
    {
      "id": "M_1313",
      "pitch": 57,
      "t_note_us": 104812500,
      "t_trigger_us": 104676537,
      "is_ai": false,
      "track_id": 0,
      "velocity": 0,
      "is_motor": true,
      "motor_id": 0,
      "accel_val": 2000,
      "base_duration_us": 187500
    },
    {
      "id": "M_1314",
      "pitch": 88,
      "t_note_us": 105000000,
      "t_trigger_us": 104864037,
      "is_ai": true,
      "track_id": 5,
      "velocity": 0,
      "is_motor": false,
      "motor_id": 0,
      "accel_val": 2000,
      "base_duration_us": 187500
    },
    {
      "id": "M_1315",
      "pitch": 64,
      "t_note_us": 105000000,
      "t_trigger_us": 104864037,
      "is_ai": false,
      "track_id": 0,
      "velocity": 0,
      "is_motor": true,
      "motor_id": 1,
      "accel_val": 2000,
      "base_duration_us": 187500
    },
    {
      "id": "M_1316",
      "pitch": 69,
      "t_note_us": 105000000,
      "t_trigger_us": 104864037,
      "is_ai": false,
      "track_id": 0,
      "velocity": 0,
      "is_motor": true,
      "motor_id": 2,
      "accel_val": 2000,
      "base_duration_us": 187500
    },
    {
      "id": "M_1318",
      "pitch": 84,
      "t_note_us": 105187500,
      "t_trigger_us": 105051537,
      "is_ai": true,
      "track_id": 3,
      "velocity": 0,
      "is_motor": false,
      "motor_id": 0,
      "accel_val": 2000,
      "base_duration_us": 375000
    },
    {
      "id": "M_1319",
      "pitch": 91,
      "t_note_us": 105187500,
      "t_trigger_us": 105051537,
      "is_ai": true,
      "track_id": 7,
      "velocity": 0,
      "is_motor": false,
      "motor_id": 0,
      "accel_val": 2000,
      "base_duration_us": 375000
    },
    {
      "id": "M_1317",
      "pitch": 57,
      "t_note_us": 105187500,
      "t_trigger_us": 105051537,
      "is_ai": false,
      "track_id": 0,
      "velocity": 0,
      "is_motor": true,
      "motor_id": 0,
      "accel_val": 2000,
      "base_duration_us": 187500
    },
    {
      "id": "M_1320",
      "pitch": 57,
      "t_note_us": 105375000,
      "t_trigger_us": 105239037,
      "is_ai": false,
      "track_id": 0,
      "velocity": 0,
      "is_motor": true,
      "motor_id": 0,
      "accel_val": 2000,
      "base_duration_us": 187500
    },
    {
      "id": "M_1321",
      "pitch": 88,
      "t_note_us": 105562500,
      "t_trigger_us": 105426537,
      "is_ai": true,
      "track_id": 5,
      "velocity": 0,
      "is_motor": false,
      "motor_id": 0,
      "accel_val": 2000,
      "base_duration_us": 187500
    },
    {
      "id": "M_1322",
      "pitch": 57,
      "t_note_us": 105562500,
      "t_trigger_us": 105426537,
      "is_ai": false,
      "track_id": 0,
      "velocity": 0,
      "is_motor": true,
      "motor_id": 0,
      "accel_val": 2000,
      "base_duration_us": 187500
    },
    {
      "id": "M_1325",
      "pitch": 84,
      "t_note_us": 105750000,
      "t_trigger_us": 105614037,
      "is_ai": true,
      "track_id": 3,
      "velocity": 0,
      "is_motor": false,
      "motor_id": 0,
      "accel_val": 2000,
      "base_duration_us": 375000
    },
    {
      "id": "M_1326",
      "pitch": 91,
      "t_note_us": 105750000,
      "t_trigger_us": 105614037,
      "is_ai": true,
      "track_id": 7,
      "velocity": 0,
      "is_motor": false,
      "motor_id": 0,
      "accel_val": 2000,
      "base_duration_us": 375000
    },
    {
      "id": "M_1323",
      "pitch": 64,
      "t_note_us": 105750000,
      "t_trigger_us": 105614037,
      "is_ai": false,
      "track_id": 0,
      "velocity": 0,
      "is_motor": true,
      "motor_id": 1,
      "accel_val": 2000,
      "base_duration_us": 187500
    },
    {
      "id": "M_1324",
      "pitch": 69,
      "t_note_us": 105750000,
      "t_trigger_us": 105614037,
      "is_ai": false,
      "track_id": 0,
      "velocity": 0,
      "is_motor": true,
      "motor_id": 2,
      "accel_val": 2000,
      "base_duration_us": 187500
    },
    {
      "id": "M_1327",
      "pitch": 57,
      "t_note_us": 105937500,
      "t_trigger_us": 105801537,
      "is_ai": false,
      "track_id": 0,
      "velocity": 0,
      "is_motor": true,
      "motor_id": 0,
      "accel_val": 2000,
      "base_duration_us": 187500
    },
    {
      "id": "M_1328",
      "pitch": 88,
      "t_note_us": 106125000,
      "t_trigger_us": 105989037,
      "is_ai": true,
      "track_id": 5,
      "velocity": 0,
      "is_motor": false,
      "motor_id": 0,
      "accel_val": 2000,
      "base_duration_us": 187500
    },
    {
      "id": "M_1329",
      "pitch": 57,
      "t_note_us": 106125000,
      "t_trigger_us": 105989037,
      "is_ai": false,
      "track_id": 0,
      "velocity": 0,
      "is_motor": true,
      "motor_id": 0,
      "accel_val": 2000,
      "base_duration_us": 187500
    },
    {
      "id": "M_1332",
      "pitch": 91,
      "t_note_us": 106312500,
      "t_trigger_us": 106176537,
      "is_ai": true,
      "track_id": 7,
      "velocity": 0,
      "is_motor": false,
      "motor_id": 0,
      "accel_val": 2000,
      "base_duration_us": 375000
    },
    {
      "id": "M_1330",
      "pitch": 57,
      "t_note_us": 106312500,
      "t_trigger_us": 106176537,
      "is_ai": false,
      "track_id": 0,
      "velocity": 0,
      "is_motor": true,
      "motor_id": 0,
      "accel_val": 2000,
      "base_duration_us": 187500
    },
    {
      "id": "M_1331",
      "pitch": 69,
      "t_note_us": 106312500,
      "t_trigger_us": 106176537,
      "is_ai": false,
      "track_id": 0,
      "velocity": 0,
      "is_motor": true,
      "motor_id": 1,
      "accel_val": 2000,
      "base_duration_us": 375000
    },
    {
      "id": "M_1333",
      "pitch": 64,
      "t_note_us": 106500000,
      "t_trigger_us": 106364037,
      "is_ai": false,
      "track_id": 0,
      "velocity": 0,
      "is_motor": true,
      "motor_id": 0,
      "accel_val": 2000,
      "base_duration_us": 187500
    },
    {
      "id": "M_1334",
      "pitch": 69,
      "t_note_us": 106500000,
      "t_trigger_us": 106364037,
      "is_ai": false,
      "track_id": 0,
      "velocity": 0,
      "is_motor": true,
      "motor_id": 2,
      "accel_val": 2000,
      "base_duration_us": 187500
    },
    {
      "id": "M_1335",
      "pitch": 88,
      "t_note_us": 106687500,
      "t_trigger_us": 106551537,
      "is_ai": true,
      "track_id": 5,
      "velocity": 0,
      "is_motor": false,
      "motor_id": 0,
      "accel_val": 2000,
      "base_duration_us": 187500
    },
    {
      "id": "M_1336",
      "pitch": 57,
      "t_note_us": 106687500,
      "t_trigger_us": 106551537,
      "is_ai": false,
      "track_id": 0,
      "velocity": 0,
      "is_motor": true,
      "motor_id": 0,
      "accel_val": 2000,
      "base_duration_us": 187500
    },
    {
      "id": "M_1339",
      "pitch": 88,
      "t_note_us": 106875000,
      "t_trigger_us": 106739037,
      "is_ai": true,
      "track_id": 5,
      "velocity": 0,
      "is_motor": false,
      "motor_id": 0,
      "accel_val": 2000,
      "base_duration_us": 375000
    },
    {
      "id": "M_1337",
      "pitch": 57,
      "t_note_us": 106875000,
      "t_trigger_us": 106739037,
      "is_ai": false,
      "track_id": 0,
      "velocity": 0,
      "is_motor": true,
      "motor_id": 0,
      "accel_val": 2000,
      "base_duration_us": 187500
    },
    {
      "id": "M_1338",
      "pitch": 69,
      "t_note_us": 106875000,
      "t_trigger_us": 106739037,
      "is_ai": false,
      "track_id": 0,
      "velocity": 0,
      "is_motor": true,
      "motor_id": 1,
      "accel_val": 2000,
      "base_duration_us": 375000
    },
    {
      "id": "M_1340",
      "pitch": 57,
      "t_note_us": 107062500,
      "t_trigger_us": 106926537,
      "is_ai": false,
      "track_id": 0,
      "velocity": 0,
      "is_motor": true,
      "motor_id": 0,
      "accel_val": 2000,
      "base_duration_us": 187500
    },
    {
      "id": "M_1341",
      "pitch": 64,
      "t_note_us": 107250000,
      "t_trigger_us": 107114037,
      "is_ai": false,
      "track_id": 0,
      "velocity": 0,
      "is_motor": true,
      "motor_id": 1,
      "accel_val": 2000,
      "base_duration_us": 187500
    },
    {
      "id": "M_1342",
      "pitch": 69,
      "t_note_us": 107250000,
      "t_trigger_us": 107114037,
      "is_ai": false,
      "track_id": 0,
      "velocity": 0,
      "is_motor": true,
      "motor_id": 2,
      "accel_val": 2000,
      "base_duration_us": 187500
    },
    {
      "id": "M_1344",
      "pitch": 84,
      "t_note_us": 107437500,
      "t_trigger_us": 107301537,
      "is_ai": true,
      "track_id": 3,
      "velocity": 0,
      "is_motor": false,
      "motor_id": 0,
      "accel_val": 2000,
      "base_duration_us": 375000
    },
    {
      "id": "M_1345",
      "pitch": 91,
      "t_note_us": 107437500,
      "t_trigger_us": 107301537,
      "is_ai": true,
      "track_id": 7,
      "velocity": 0,
      "is_motor": false,
      "motor_id": 0,
      "accel_val": 2000,
      "base_duration_us": 375000
    },
    {
      "id": "M_1343",
      "pitch": 57,
      "t_note_us": 107437500,
      "t_trigger_us": 107301537,
      "is_ai": false,
      "track_id": 0,
      "velocity": 0,
      "is_motor": true,
      "motor_id": 0,
      "accel_val": 2000,
      "base_duration_us": 187500
    },
    {
      "id": "M_1346",
      "pitch": 57,
      "t_note_us": 107625000,
      "t_trigger_us": 107489037,
      "is_ai": false,
      "track_id": 0,
      "velocity": 0,
      "is_motor": true,
      "motor_id": 0,
      "accel_val": 2000,
      "base_duration_us": 187500
    },
    {
      "id": "M_1347",
      "pitch": 88,
      "t_note_us": 107812500,
      "t_trigger_us": 107676537,
      "is_ai": true,
      "track_id": 5,
      "velocity": 0,
      "is_motor": false,
      "motor_id": 0,
      "accel_val": 2000,
      "base_duration_us": 187500
    },
    {
      "id": "M_1348",
      "pitch": 57,
      "t_note_us": 107812500,
      "t_trigger_us": 107676537,
      "is_ai": false,
      "track_id": 0,
      "velocity": 0,
      "is_motor": true,
      "motor_id": 0,
      "accel_val": 2000,
      "base_duration_us": 187500
    },
    {
      "id": "M_1351",
      "pitch": 84,
      "t_note_us": 108000000,
      "t_trigger_us": 107864037,
      "is_ai": true,
      "track_id": 3,
      "velocity": 0,
      "is_motor": false,
      "motor_id": 0,
      "accel_val": 2000,
      "base_duration_us": 375000
    },
    {
      "id": "M_1352",
      "pitch": 91,
      "t_note_us": 108000000,
      "t_trigger_us": 107864037,
      "is_ai": true,
      "track_id": 7,
      "velocity": 0,
      "is_motor": false,
      "motor_id": 0,
      "accel_val": 2000,
      "base_duration_us": 375000
    },
    {
      "id": "M_1349",
      "pitch": 64,
      "t_note_us": 108000000,
      "t_trigger_us": 107864037,
      "is_ai": false,
      "track_id": 0,
      "velocity": 0,
      "is_motor": true,
      "motor_id": 1,
      "accel_val": 2000,
      "base_duration_us": 187500
    },
    {
      "id": "M_1350",
      "pitch": 69,
      "t_note_us": 108000000,
      "t_trigger_us": 107864037,
      "is_ai": false,
      "track_id": 0,
      "velocity": 0,
      "is_motor": true,
      "motor_id": 2,
      "accel_val": 2000,
      "base_duration_us": 187500
    },
    {
      "id": "M_1353",
      "pitch": 57,
      "t_note_us": 108187500,
      "t_trigger_us": 108051537,
      "is_ai": false,
      "track_id": 0,
      "velocity": 0,
      "is_motor": true,
      "motor_id": 0,
      "accel_val": 2000,
      "base_duration_us": 187500
    },
    {
      "id": "M_1354",
      "pitch": 93,
      "t_note_us": 108375000,
      "t_trigger_us": 108239037,
      "is_ai": true,
      "track_id": 8,
      "velocity": 0,
      "is_motor": false,
      "motor_id": 0,
      "accel_val": 2000,
      "base_duration_us": 187500
    },
    {
      "id": "M_1355",
      "pitch": 99,
      "t_note_us": 108375000,
      "t_trigger_us": 108239037,
      "is_ai": true,
      "track_id": 0,
      "velocity": 0,
      "is_motor": true,
      "motor_id": 3,
      "accel_val": 2000,
      "base_duration_us": 187500
    },
    {
      "id": "M_1356",
      "pitch": 57,
      "t_note_us": 108375000,
      "t_trigger_us": 108239037,
      "is_ai": false,
      "track_id": 0,
      "velocity": 0,
      "is_motor": true,
      "motor_id": 0,
      "accel_val": 2000,
      "base_duration_us": 187500
    },
    {
      "id": "M_1357",
      "pitch": 93,
      "t_note_us": 108562500,
      "t_trigger_us": 108426537,
      "is_ai": true,
      "track_id": 8,
      "velocity": 0,
      "is_motor": false,
      "motor_id": 0,
      "accel_val": 2000,
      "base_duration_us": 187500
    },
    {
      "id": "M_1358",
      "pitch": 98,
      "t_note_us": 108562500,
      "t_trigger_us": 108426537,
      "is_ai": true,
      "track_id": 11,
      "velocity": 0,
      "is_motor": false,
      "motor_id": 0,
      "accel_val": 2000,
      "base_duration_us": 187500
    },
    {
      "id": "M_1359",
      "pitch": 57,
      "t_note_us": 108562500,
      "t_trigger_us": 108426537,
      "is_ai": false,
      "track_id": 0,
      "velocity": 0,
      "is_motor": true,
      "motor_id": 0,
      "accel_val": 2000,
      "base_duration_us": 187500
    },
    {
      "id": "M_1360",
      "pitch": 93,
      "t_note_us": 108750000,
      "t_trigger_us": 108614037,
      "is_ai": true,
      "track_id": 8,
      "velocity": 0,
      "is_motor": false,
      "motor_id": 0,
      "accel_val": 2000,
      "base_duration_us": 187500
    },
    {
      "id": "M_1361",
      "pitch": 96,
      "t_note_us": 108750000,
      "t_trigger_us": 108614037,
      "is_ai": true,
      "track_id": 10,
      "velocity": 0,
      "is_motor": false,
      "motor_id": 0,
      "accel_val": 2000,
      "base_duration_us": 187500
    },
    {
      "id": "M_1362",
      "pitch": 64,
      "t_note_us": 108750000,
      "t_trigger_us": 108614037,
      "is_ai": false,
      "track_id": 0,
      "velocity": 0,
      "is_motor": true,
      "motor_id": 1,
      "accel_val": 2000,
      "base_duration_us": 187500
    },
    {
      "id": "M_1363",
      "pitch": 69,
      "t_note_us": 108750000,
      "t_trigger_us": 108614037,
      "is_ai": false,
      "track_id": 0,
      "velocity": 0,
      "is_motor": true,
      "motor_id": 2,
      "accel_val": 2000,
      "base_duration_us": 187500
    },
    {
      "id": "M_1364",
      "pitch": 91,
      "t_note_us": 108937500,
      "t_trigger_us": 108801537,
      "is_ai": true,
      "track_id": 7,
      "velocity": 0,
      "is_motor": false,
      "motor_id": 0,
      "accel_val": 2000,
      "base_duration_us": 375000
    },
    {
      "id": "M_1365",
      "pitch": 96,
      "t_note_us": 108937500,
      "t_trigger_us": 108801537,
      "is_ai": true,
      "track_id": 10,
      "velocity": 0,
      "is_motor": false,
      "motor_id": 0,
      "accel_val": 2000,
      "base_duration_us": 375000
    },
    {
      "id": "M_1366",
      "pitch": 55,
      "t_note_us": 108937500,
      "t_trigger_us": 108801537,
      "is_ai": false,
      "track_id": 0,
      "velocity": 0,
      "is_motor": true,
      "motor_id": 0,
      "accel_val": 2000,
      "base_duration_us": 375000
    },
    {
      "id": "M_1367",
      "pitch": 62,
      "t_note_us": 108937500,
      "t_trigger_us": 108801537,
      "is_ai": false,
      "track_id": 0,
      "velocity": 0,
      "is_motor": true,
      "motor_id": 1,
      "accel_val": 2000,
      "base_duration_us": 375000
    },
    {
      "id": "M_1368",
      "pitch": 67,
      "t_note_us": 108937500,
      "t_trigger_us": 108801537,
      "is_ai": false,
      "track_id": 0,
      "velocity": 0,
      "is_motor": true,
      "motor_id": 2,
      "accel_val": 2000,
      "base_duration_us": 375000
    },
    {
      "id": "M_1369",
      "pitch": 88,
      "t_note_us": 109312500,
      "t_trigger_us": 109176537,
      "is_ai": true,
      "track_id": 5,
      "velocity": 0,
      "is_motor": false,
      "motor_id": 0,
      "accel_val": 2000,
      "base_duration_us": 375000
    },
    {
      "id": "M_1370",
      "pitch": 93,
      "t_note_us": 109312500,
      "t_trigger_us": 109176537,
      "is_ai": true,
      "track_id": 8,
      "velocity": 0,
      "is_motor": false,
      "motor_id": 0,
      "accel_val": 2000,
      "base_duration_us": 375000
    },
    {
      "id": "M_1371",
      "pitch": 55,
      "t_note_us": 109312500,
      "t_trigger_us": 109176537,
      "is_ai": false,
      "track_id": 0,
      "velocity": 0,
      "is_motor": true,
      "motor_id": 0,
      "accel_val": 2000,
      "base_duration_us": 375000
    },
    {
      "id": "M_1372",
      "pitch": 62,
      "t_note_us": 109312500,
      "t_trigger_us": 109176537,
      "is_ai": false,
      "track_id": 0,
      "velocity": 0,
      "is_motor": true,
      "motor_id": 1,
      "accel_val": 2000,
      "base_duration_us": 375000
    },
    {
      "id": "M_1373",
      "pitch": 67,
      "t_note_us": 109312500,
      "t_trigger_us": 109176537,
      "is_ai": false,
      "track_id": 0,
      "velocity": 0,
      "is_motor": true,
      "motor_id": 2,
      "accel_val": 2000,
      "base_duration_us": 375000
    },
    {
      "id": "M_1374",
      "pitch": 91,
      "t_note_us": 109687500,
      "t_trigger_us": 109551537,
      "is_ai": true,
      "track_id": 7,
      "velocity": 0,
      "is_motor": false,
      "motor_id": 0,
      "accel_val": 2000,
      "base_duration_us": 187500
    },
    {
      "id": "M_1375",
      "pitch": 55,
      "t_note_us": 109687500,
      "t_trigger_us": 109551537,
      "is_ai": false,
      "track_id": 0,
      "velocity": 0,
      "is_motor": true,
      "motor_id": 0,
      "accel_val": 2000,
      "base_duration_us": 187500
    },
    {
      "id": "M_1376",
      "pitch": 67,
      "t_note_us": 109687500,
      "t_trigger_us": 109551537,
      "is_ai": false,
      "track_id": 0,
      "velocity": 0,
      "is_motor": true,
      "motor_id": 1,
      "accel_val": 2000,
      "base_duration_us": 187500
    },
    {
      "id": "M_1381",
      "pitch": 91,
      "t_note_us": 109875000,
      "t_trigger_us": 109739037,
      "is_ai": true,
      "track_id": 7,
      "velocity": 0,
      "is_motor": false,
      "motor_id": 0,
      "accel_val": 2000,
      "base_duration_us": 562500
    },
    {
      "id": "M_1377",
      "pitch": 69,
      "t_note_us": 109875000,
      "t_trigger_us": 109739037,
      "is_ai": false,
      "track_id": 0,
      "velocity": 0,
      "is_motor": true,
      "motor_id": 1,
      "accel_val": 2000,
      "base_duration_us": 187500
    },
    {
      "id": "M_1378",
      "pitch": 53,
      "t_note_us": 109875000,
      "t_trigger_us": 109739037,
      "is_ai": false,
      "track_id": 0,
      "velocity": 0,
      "is_motor": true,
      "motor_id": 0,
      "accel_val": 2000,
      "base_duration_us": 187500
    },
    {
      "id": "M_1379",
      "pitch": 65,
      "t_note_us": 110062500,
      "t_trigger_us": 109926537,
      "is_ai": false,
      "track_id": 0,
      "velocity": 0,
      "is_motor": true,
      "motor_id": 1,
      "accel_val": 2000,
      "base_duration_us": 187500
    },
    {
      "id": "M_1380",
      "pitch": 69,
      "t_note_us": 110250000,
      "t_trigger_us": 110114037,
      "is_ai": false,
      "track_id": 0,
      "velocity": 0,
      "is_motor": true,
      "motor_id": 1,
      "accel_val": 2000,
      "base_duration_us": 187500
    },
    {
      "id": "M_1382",
      "pitch": 53,
      "t_note_us": 110250000,
      "t_trigger_us": 110114037,
      "is_ai": false,
      "track_id": 0,
      "velocity": 0,
      "is_motor": true,
      "motor_id": 0,
      "accel_val": 2000,
      "base_duration_us": 187500
    },
    {
      "id": "M_1383",
      "pitch": 88,
      "t_note_us": 110437500,
      "t_trigger_us": 110301537,
      "is_ai": true,
      "track_id": 5,
      "velocity": 0,
      "is_motor": false,
      "motor_id": 0,
      "accel_val": 2000,
      "base_duration_us": 187500
    },
    {
      "id": "M_1384",
      "pitch": 65,
      "t_note_us": 110437500,
      "t_trigger_us": 110301537,
      "is_ai": false,
      "track_id": 0,
      "velocity": 0,
      "is_motor": true,
      "motor_id": 1,
      "accel_val": 2000,
      "base_duration_us": 187500
    },
    {
      "id": "M_1385",
      "pitch": 93,
      "t_note_us": 110625000,
      "t_trigger_us": 110489037,
      "is_ai": true,
      "track_id": 8,
      "velocity": 0,
      "is_motor": false,
      "motor_id": 0,
      "accel_val": 2000,
      "base_duration_us": 187500
    },
    {
      "id": "M_1386",
      "pitch": 69,
      "t_note_us": 110625000,
      "t_trigger_us": 110489037,
      "is_ai": false,
      "track_id": 0,
      "velocity": 0,
      "is_motor": true,
      "motor_id": 1,
      "accel_val": 2000,
      "base_duration_us": 187500
    },
    {
      "id": "M_1387",
      "pitch": 54,
      "t_note_us": 110625000,
      "t_trigger_us": 110489037,
      "is_ai": false,
      "track_id": 0,
      "velocity": 0,
      "is_motor": true,
      "motor_id": 0,
      "accel_val": 2000,
      "base_duration_us": 187500
    },
    {
      "id": "M_1388",
      "pitch": 95,
      "t_note_us": 110812500,
      "t_trigger_us": 110676537,
      "is_ai": true,
      "track_id": 9,
      "velocity": 0,
      "is_motor": false,
      "motor_id": 0,
      "accel_val": 2000,
      "base_duration_us": 187500
    },
    {
      "id": "M_1389",
      "pitch": 66,
      "t_note_us": 110812500,
      "t_trigger_us": 110676537,
      "is_ai": false,
      "track_id": 0,
      "velocity": 0,
      "is_motor": true,
      "motor_id": 1,
      "accel_val": 2000,
      "base_duration_us": 187500
    },
    {
      "id": "M_1390",
      "pitch": 69,
      "t_note_us": 111000000,
      "t_trigger_us": 110864037,
      "is_ai": false,
      "track_id": 0,
      "velocity": 0,
      "is_motor": true,
      "motor_id": 1,
      "accel_val": 2000,
      "base_duration_us": 187500
    },
    {
      "id": "M_1391",
      "pitch": 54,
      "t_note_us": 111000000,
      "t_trigger_us": 110864037,
      "is_ai": false,
      "track_id": 0,
      "velocity": 0,
      "is_motor": true,
      "motor_id": 0,
      "accel_val": 2000,
      "base_duration_us": 187500
    },
    {
      "id": "M_1392",
      "pitch": 91,
      "t_note_us": 111187500,
      "t_trigger_us": 111051537,
      "is_ai": true,
      "track_id": 7,
      "velocity": 0,
      "is_motor": false,
      "motor_id": 0,
      "accel_val": 2000,
      "base_duration_us": 187500
    },
    {
      "id": "M_1393",
      "pitch": 66,
      "t_note_us": 111187500,
      "t_trigger_us": 111051537,
      "is_ai": false,
      "track_id": 0,
      "velocity": 0,
      "is_motor": true,
      "motor_id": 1,
      "accel_val": 2000,
      "base_duration_us": 187500
    },
    {
      "id": "M_1394",
      "pitch": 91,
      "t_note_us": 111375000,
      "t_trigger_us": 111239037,
      "is_ai": true,
      "track_id": 7,
      "velocity": 0,
      "is_motor": false,
      "motor_id": 0,
      "accel_val": 2000,
      "base_duration_us": 187500
    },
    {
      "id": "M_1395",
      "pitch": 69,
      "t_note_us": 111375000,
      "t_trigger_us": 111239037,
      "is_ai": false,
      "track_id": 0,
      "velocity": 0,
      "is_motor": true,
      "motor_id": 1,
      "accel_val": 2000,
      "base_duration_us": 187500
    },
    {
      "id": "M_1396",
      "pitch": 55,
      "t_note_us": 111375000,
      "t_trigger_us": 111239037,
      "is_ai": false,
      "track_id": 0,
      "velocity": 0,
      "is_motor": true,
      "motor_id": 0,
      "accel_val": 2000,
      "base_duration_us": 187500
    },
    {
      "id": "M_1399",
      "pitch": 88,
      "t_note_us": 111562500,
      "t_trigger_us": 111426537,
      "is_ai": true,
      "track_id": 5,
      "velocity": 0,
      "is_motor": false,
      "motor_id": 0,
      "accel_val": 2000,
      "base_duration_us": 375000
    },
    {
      "id": "M_1397",
      "pitch": 67,
      "t_note_us": 111562500,
      "t_trigger_us": 111426537,
      "is_ai": false,
      "track_id": 0,
      "velocity": 0,
      "is_motor": true,
      "motor_id": 1,
      "accel_val": 2000,
      "base_duration_us": 187500
    },
    {
      "id": "M_1398",
      "pitch": 69,
      "t_note_us": 111750000,
      "t_trigger_us": 111614037,
      "is_ai": false,
      "track_id": 0,
      "velocity": 0,
      "is_motor": true,
      "motor_id": 1,
      "accel_val": 2000,
      "base_duration_us": 187500
    },
    {
      "id": "M_1400",
      "pitch": 55,
      "t_note_us": 111750000,
      "t_trigger_us": 111614037,
      "is_ai": false,
      "track_id": 0,
      "velocity": 0,
      "is_motor": true,
      "motor_id": 0,
      "accel_val": 2000,
      "base_duration_us": 187500
    },
    {
      "id": "M_1404",
      "pitch": 91,
      "t_note_us": 111937500,
      "t_trigger_us": 111801537,
      "is_ai": true,
      "track_id": 7,
      "velocity": 0,
      "is_motor": false,
      "motor_id": 0,
      "accel_val": 2000,
      "base_duration_us": 375000
    },
    {
      "id": "M_1401",
      "pitch": 67,
      "t_note_us": 111937500,
      "t_trigger_us": 111801537,
      "is_ai": false,
      "track_id": 0,
      "velocity": 0,
      "is_motor": true,
      "motor_id": 1,
      "accel_val": 2000,
      "base_duration_us": 187500
    },
    {
      "id": "M_1403",
      "pitch": 88,
      "t_note_us": 112125000,
      "t_trigger_us": 111989037,
      "is_ai": true,
      "track_id": 5,
      "velocity": 0,
      "is_motor": false,
      "motor_id": 0,
      "accel_val": 2000,
      "base_duration_us": 187500
    },
    {
      "id": "M_1402",
      "pitch": 69,
      "t_note_us": 112125000,
      "t_trigger_us": 111989037,
      "is_ai": false,
      "track_id": 0,
      "velocity": 0,
      "is_motor": true,
      "motor_id": 1,
      "accel_val": 2000,
      "base_duration_us": 187500
    },
    {
      "id": "M_1405",
      "pitch": 56,
      "t_note_us": 112125000,
      "t_trigger_us": 111989037,
      "is_ai": false,
      "track_id": 0,
      "velocity": 0,
      "is_motor": true,
      "motor_id": 0,
      "accel_val": 2000,
      "base_duration_us": 187500
    },
    {
      "id": "M_1406",
      "pitch": 93,
      "t_note_us": 112312500,
      "t_trigger_us": 112176537,
      "is_ai": true,
      "track_id": 8,
      "velocity": 0,
      "is_motor": false,
      "motor_id": 0,
      "accel_val": 2000,
      "base_duration_us": 187500
    },
    {
      "id": "M_1407",
      "pitch": 68,
      "t_note_us": 112312500,
      "t_trigger_us": 112176537,
      "is_ai": false,
      "track_id": 0,
      "velocity": 0,
      "is_motor": true,
      "motor_id": 1,
      "accel_val": 2000,
      "base_duration_us": 187500
    },
    {
      "id": "M_1408",
      "pitch": 93,
      "t_note_us": 112500000,
      "t_trigger_us": 112364037,
      "is_ai": true,
      "track_id": 8,
      "velocity": 0,
      "is_motor": false,
      "motor_id": 0,
      "accel_val": 2000,
      "base_duration_us": 187500
    },
    {
      "id": "M_1410",
      "pitch": 88,
      "t_note_us": 112500000,
      "t_trigger_us": 112364037,
      "is_ai": true,
      "track_id": 5,
      "velocity": 0,
      "is_motor": false,
      "motor_id": 0,
      "accel_val": 2000,
      "base_duration_us": 187500
    },
    {
      "id": "M_1409",
      "pitch": 69,
      "t_note_us": 112500000,
      "t_trigger_us": 112364037,
      "is_ai": false,
      "track_id": 0,
      "velocity": 0,
      "is_motor": true,
      "motor_id": 1,
      "accel_val": 2000,
      "base_duration_us": 187500
    },
    {
      "id": "M_1411",
      "pitch": 56,
      "t_note_us": 112500000,
      "t_trigger_us": 112364037,
      "is_ai": false,
      "track_id": 0,
      "velocity": 0,
      "is_motor": true,
      "motor_id": 0,
      "accel_val": 2000,
      "base_duration_us": 187500
    },
    {
      "id": "M_1412",
      "pitch": 91,
      "t_note_us": 112687500,
      "t_trigger_us": 112551537,
      "is_ai": true,
      "track_id": 7,
      "velocity": 0,
      "is_motor": false,
      "motor_id": 0,
      "accel_val": 2000,
      "base_duration_us": 187500
    },
    {
      "id": "M_1413",
      "pitch": 68,
      "t_note_us": 112687500,
      "t_trigger_us": 112551537,
      "is_ai": false,
      "track_id": 0,
      "velocity": 0,
      "is_motor": true,
      "motor_id": 1,
      "accel_val": 2000,
      "base_duration_us": 187500
    },
    {
      "id": "M_1414",
      "pitch": 96,
      "t_note_us": 112875000,
      "t_trigger_us": 112739037,
      "is_ai": true,
      "track_id": 10,
      "velocity": 0,
      "is_motor": false,
      "motor_id": 0,
      "accel_val": 2000,
      "base_duration_us": 187500
    },
    {
      "id": "M_1415",
      "pitch": 88,
      "t_note_us": 112875000,
      "t_trigger_us": 112739037,
      "is_ai": true,
      "track_id": 5,
      "velocity": 0,
      "is_motor": false,
      "motor_id": 0,
      "accel_val": 2000,
      "base_duration_us": 187500
    },
    {
      "id": "M_1416",
      "pitch": 57,
      "t_note_us": 112875000,
      "t_trigger_us": 112739037,
      "is_ai": false,
      "track_id": 0,
      "velocity": 0,
      "is_motor": true,
      "motor_id": 0,
      "accel_val": 2000,
      "base_duration_us": 187500
    },
    {
      "id": "M_1417",
      "pitch": 93,
      "t_note_us": 113062500,
      "t_trigger_us": 112926537,
      "is_ai": true,
      "track_id": 8,
      "velocity": 0,
      "is_motor": false,
      "motor_id": 0,
      "accel_val": 2000,
      "base_duration_us": 187500
    },
    {
      "id": "M_1418",
      "pitch": 69,
      "t_note_us": 113062500,
      "t_trigger_us": 112926537,
      "is_ai": false,
      "track_id": 0,
      "velocity": 0,
      "is_motor": true,
      "motor_id": 1,
      "accel_val": 2000,
      "base_duration_us": 187500
    },
    {
      "id": "M_1419",
      "pitch": 93,
      "t_note_us": 113250000,
      "t_trigger_us": 113114037,
      "is_ai": true,
      "track_id": 8,
      "velocity": 0,
      "is_motor": false,
      "motor_id": 0,
      "accel_val": 2000,
      "base_duration_us": 187500
    },
    {
      "id": "M_1420",
      "pitch": 88,
      "t_note_us": 113250000,
      "t_trigger_us": 113114037,
      "is_ai": true,
      "track_id": 5,
      "velocity": 0,
      "is_motor": false,
      "motor_id": 0,
      "accel_val": 2000,
      "base_duration_us": 187500
    },
    {
      "id": "M_1421",
      "pitch": 57,
      "t_note_us": 113250000,
      "t_trigger_us": 113114037,
      "is_ai": false,
      "track_id": 0,
      "velocity": 0,
      "is_motor": true,
      "motor_id": 0,
      "accel_val": 2000,
      "base_duration_us": 187500
    },
    {
      "id": "M_1425",
      "pitch": 99,
      "t_note_us": 113437500,
      "t_trigger_us": 113301537,
      "is_ai": true,
      "track_id": 0,
      "velocity": 0,
      "is_motor": true,
      "motor_id": 3,
      "accel_val": 2000,
      "base_duration_us": 375000
    },
    {
      "id": "M_1422",
      "pitch": 69,
      "t_note_us": 113437500,
      "t_trigger_us": 113301537,
      "is_ai": false,
      "track_id": 0,
      "velocity": 0,
      "is_motor": true,
      "motor_id": 1,
      "accel_val": 2000,
      "base_duration_us": 187500
    },
    {
      "id": "M_1423",
      "pitch": 88,
      "t_note_us": 113625000,
      "t_trigger_us": 113489037,
      "is_ai": true,
      "track_id": 5,
      "velocity": 0,
      "is_motor": false,
      "motor_id": 0,
      "accel_val": 2000,
      "base_duration_us": 187500
    },
    {
      "id": "M_1424",
      "pitch": 93,
      "t_note_us": 113625000,
      "t_trigger_us": 113489037,
      "is_ai": true,
      "track_id": 8,
      "velocity": 0,
      "is_motor": false,
      "motor_id": 0,
      "accel_val": 2000,
      "base_duration_us": 187500
    },
    {
      "id": "M_1426",
      "pitch": 59,
      "t_note_us": 113625000,
      "t_trigger_us": 113489037,
      "is_ai": false,
      "track_id": 0,
      "velocity": 0,
      "is_motor": true,
      "motor_id": 0,
      "accel_val": 2000,
      "base_duration_us": 187500
    },
    {
      "id": "M_1430",
      "pitch": 98,
      "t_note_us": 113812500,
      "t_trigger_us": 113676537,
      "is_ai": true,
      "track_id": 11,
      "velocity": 0,
      "is_motor": false,
      "motor_id": 0,
      "accel_val": 2000,
      "base_duration_us": 375000
    },
    {
      "id": "M_1427",
      "pitch": 71,
      "t_note_us": 113812500,
      "t_trigger_us": 113676537,
      "is_ai": false,
      "track_id": 0,
      "velocity": 0,
      "is_motor": true,
      "motor_id": 1,
      "accel_val": 2000,
      "base_duration_us": 187500
    },
    {
      "id": "M_1428",
      "pitch": 88,
      "t_note_us": 114000000,
      "t_trigger_us": 113864037,
      "is_ai": true,
      "track_id": 5,
      "velocity": 0,
      "is_motor": false,
      "motor_id": 0,
      "accel_val": 2000,
      "base_duration_us": 187500
    },
    {
      "id": "M_1429",
      "pitch": 93,
      "t_note_us": 114000000,
      "t_trigger_us": 113864037,
      "is_ai": true,
      "track_id": 8,
      "velocity": 0,
      "is_motor": false,
      "motor_id": 0,
      "accel_val": 2000,
      "base_duration_us": 187500
    },
    {
      "id": "M_1431",
      "pitch": 59,
      "t_note_us": 114000000,
      "t_trigger_us": 113864037,
      "is_ai": false,
      "track_id": 0,
      "velocity": 0,
      "is_motor": true,
      "motor_id": 0,
      "accel_val": 2000,
      "base_duration_us": 187500
    },
    {
      "id": "M_1435",
      "pitch": 96,
      "t_note_us": 114187500,
      "t_trigger_us": 114051537,
      "is_ai": true,
      "track_id": 10,
      "velocity": 0,
      "is_motor": false,
      "motor_id": 0,
      "accel_val": 2000,
      "base_duration_us": 375000
    },
    {
      "id": "M_1432",
      "pitch": 71,
      "t_note_us": 114187500,
      "t_trigger_us": 114051537,
      "is_ai": false,
      "track_id": 0,
      "velocity": 0,
      "is_motor": true,
      "motor_id": 1,
      "accel_val": 2000,
      "base_duration_us": 187500
    },
    {
      "id": "M_1433",
      "pitch": 88,
      "t_note_us": 114375000,
      "t_trigger_us": 114239037,
      "is_ai": true,
      "track_id": 5,
      "velocity": 0,
      "is_motor": false,
      "motor_id": 0,
      "accel_val": 2000,
      "base_duration_us": 187500
    },
    {
      "id": "M_1434",
      "pitch": 93,
      "t_note_us": 114375000,
      "t_trigger_us": 114239037,
      "is_ai": true,
      "track_id": 8,
      "velocity": 0,
      "is_motor": false,
      "motor_id": 0,
      "accel_val": 2000,
      "base_duration_us": 187500
    },
    {
      "id": "M_1436",
      "pitch": 60,
      "t_note_us": 114375000,
      "t_trigger_us": 114239037,
      "is_ai": false,
      "track_id": 0,
      "velocity": 0,
      "is_motor": true,
      "motor_id": 1,
      "accel_val": 2000,
      "base_duration_us": 187500
    },
    {
      "id": "M_1437",
      "pitch": 93,
      "t_note_us": 114562500,
      "t_trigger_us": 114426537,
      "is_ai": true,
      "track_id": 8,
      "velocity": 0,
      "is_motor": false,
      "motor_id": 0,
      "accel_val": 2000,
      "base_duration_us": 187500
    },
    {
      "id": "M_1438",
      "pitch": 72,
      "t_note_us": 114562500,
      "t_trigger_us": 114426537,
      "is_ai": false,
      "track_id": 0,
      "velocity": 0,
      "is_motor": true,
      "motor_id": 1,
      "accel_val": 2000,
      "base_duration_us": 187500
    },
    {
      "id": "M_1440",
      "pitch": 88,
      "t_note_us": 114750000,
      "t_trigger_us": 114614037,
      "is_ai": true,
      "track_id": 5,
      "velocity": 0,
      "is_motor": false,
      "motor_id": 0,
      "accel_val": 2000,
      "base_duration_us": 187500
    },
    {
      "id": "M_1439",
      "pitch": 69,
      "t_note_us": 114750000,
      "t_trigger_us": 114614037,
      "is_ai": false,
      "track_id": 0,
      "velocity": 0,
      "is_motor": true,
      "motor_id": 1,
      "accel_val": 2000,
      "base_duration_us": 187500
    },
    {
      "id": "M_1441",
      "pitch": 60,
      "t_note_us": 114750000,
      "t_trigger_us": 114614037,
      "is_ai": false,
      "track_id": 0,
      "velocity": 0,
      "is_motor": true,
      "motor_id": 0,
      "accel_val": 2000,
      "base_duration_us": 187500
    },
    {
      "id": "M_1443",
      "pitch": 87,
      "t_note_us": 114937500,
      "t_trigger_us": 114801537,
      "is_ai": true,
      "track_id": 0,
      "velocity": 0,
      "is_motor": true,
      "motor_id": 3,
      "accel_val": 2000,
      "base_duration_us": 187500
    },
    {
      "id": "M_1444",
      "pitch": 94,
      "t_note_us": 114937500,
      "t_trigger_us": 114801537,
      "is_ai": true,
      "track_id": 0,
      "velocity": 0,
      "is_motor": true,
      "motor_id": 2,
      "accel_val": 2000,
      "base_duration_us": 187500
    },
    {
      "id": "M_1442",
      "pitch": 70,
      "t_note_us": 114937500,
      "t_trigger_us": 114801537,
      "is_ai": false,
      "track_id": 0,
      "velocity": 0,
      "is_motor": true,
      "motor_id": 1,
      "accel_val": 2000,
      "base_duration_us": 187500
    },
    {
      "id": "M_1445",
      "pitch": 63,
      "t_note_us": 114937500,
      "t_trigger_us": 114801537,
      "is_ai": false,
      "track_id": 0,
      "velocity": 0,
      "is_motor": true,
      "motor_id": 0,
      "accel_val": 2000,
      "base_duration_us": 187500
    },
    {
      "id": "M_1446",
      "pitch": 75,
      "t_note_us": 114937500,
      "t_trigger_us": 114801537,
      "is_ai": false,
      "track_id": 0,
      "velocity": 0,
      "is_motor": true,
      "motor_id": 0,
      "accel_val": 2000,
      "base_duration_us": 187500
    },
    {
      "id": "M_1448",
      "pitch": 86,
      "t_note_us": 115312500,
      "t_trigger_us": 115176537,
      "is_ai": true,
      "track_id": 4,
      "velocity": 0,
      "is_motor": false,
      "motor_id": 0,
      "accel_val": 2000,
      "base_duration_us": 187500
    },
    {
      "id": "M_1449",
      "pitch": 93,
      "t_note_us": 115312500,
      "t_trigger_us": 115176537,
      "is_ai": true,
      "track_id": 8,
      "velocity": 0,
      "is_motor": false,
      "motor_id": 0,
      "accel_val": 2000,
      "base_duration_us": 187500
    },
    {
      "id": "M_1447",
      "pitch": 69,
      "t_note_us": 115312500,
      "t_trigger_us": 115176537,
      "is_ai": false,
      "track_id": 0,
      "velocity": 0,
      "is_motor": true,
      "motor_id": 1,
      "accel_val": 2000,
      "base_duration_us": 187500
    },
    {
      "id": "M_1450",
      "pitch": 62,
      "t_note_us": 115312500,
      "t_trigger_us": 115176537,
      "is_ai": false,
      "track_id": 0,
      "velocity": 0,
      "is_motor": true,
      "motor_id": 0,
      "accel_val": 2000,
      "base_duration_us": 187500
    },
    {
      "id": "M_1451",
      "pitch": 74,
      "t_note_us": 115312500,
      "t_trigger_us": 115176537,
      "is_ai": false,
      "track_id": 0,
      "velocity": 0,
      "is_motor": true,
      "motor_id": 2,
      "accel_val": 2000,
      "base_duration_us": 187500
    },
    {
      "id": "M_1453",
      "pitch": 84,
      "t_note_us": 115687500,
      "t_trigger_us": 115551537,
      "is_ai": true,
      "track_id": 3,
      "velocity": 0,
      "is_motor": false,
      "motor_id": 0,
      "accel_val": 2000,
      "base_duration_us": 187500
    },
    {
      "id": "M_1454",
      "pitch": 92,
      "t_note_us": 115687500,
      "t_trigger_us": 115551537,
      "is_ai": true,
      "track_id": 0,
      "velocity": 0,
      "is_motor": true,
      "motor_id": 3,
      "accel_val": 2000,
      "base_duration_us": 187500
    },
    {
      "id": "M_1452",
      "pitch": 68,
      "t_note_us": 115687500,
      "t_trigger_us": 115551537,
      "is_ai": false,
      "track_id": 0,
      "velocity": 0,
      "is_motor": true,
      "motor_id": 1,
      "accel_val": 2000,
      "base_duration_us": 187500
    },
    {
      "id": "M_1455",
      "pitch": 60,
      "t_note_us": 115687500,
      "t_trigger_us": 115551537,
      "is_ai": false,
      "track_id": 0,
      "velocity": 0,
      "is_motor": true,
      "motor_id": 0,
      "accel_val": 2000,
      "base_duration_us": 187500
    },
    {
      "id": "M_1456",
      "pitch": 72,
      "t_note_us": 115687500,
      "t_trigger_us": 115551537,
      "is_ai": false,
      "track_id": 0,
      "velocity": 0,
      "is_motor": true,
      "motor_id": 2,
      "accel_val": 2000,
      "base_duration_us": 187500
    },
    {
      "id": "M_1458",
      "pitch": 91,
      "t_note_us": 115875000,
      "t_trigger_us": 115739037,
      "is_ai": true,
      "track_id": 7,
      "velocity": 0,
      "is_motor": false,
      "motor_id": 0,
      "accel_val": 2000,
      "base_duration_us": 375000
    },
    {
      "id": "M_1457",
      "pitch": 67,
      "t_note_us": 115875000,
      "t_trigger_us": 115739037,
      "is_ai": false,
      "track_id": 0,
      "velocity": 0,
      "is_motor": true,
      "motor_id": 1,
      "accel_val": 2000,
      "base_duration_us": 375000
    },
    {
      "id": "M_1459",
      "pitch": 55,
      "t_note_us": 115875000,
      "t_trigger_us": 115739037,
      "is_ai": false,
      "track_id": 0,
      "velocity": 0,
      "is_motor": true,
      "motor_id": 0,
      "accel_val": 2000,
      "base_duration_us": 375000
    },
    {
      "id": "M_1460",
      "pitch": 67,
      "t_note_us": 115875000,
      "t_trigger_us": 115739037,
      "is_ai": false,
      "track_id": 0,
      "velocity": 0,
      "is_motor": true,
      "motor_id": 2,
      "accel_val": 2000,
      "base_duration_us": 375000
    },
    {
      "id": "M_1461",
      "pitch": 95,
      "t_note_us": 116250000,
      "t_trigger_us": 116114037,
      "is_ai": true,
      "track_id": 9,
      "velocity": 0,
      "is_motor": false,
      "motor_id": 0,
      "accel_val": 2000,
      "base_duration_us": 187500
    },
    {
      "id": "M_1462",
      "pitch": 88,
      "t_note_us": 116625000,
      "t_trigger_us": 116489037,
      "is_ai": true,
      "track_id": 5,
      "velocity": 0,
      "is_motor": false,
      "motor_id": 0,
      "accel_val": 2000,
      "base_duration_us": 187500
    },
    {
      "id": "M_1463",
      "pitch": 91,
      "t_note_us": 116812500,
      "t_trigger_us": 116676537,
      "is_ai": true,
      "track_id": 7,
      "velocity": 0,
      "is_motor": false,
      "motor_id": 0,
      "accel_val": 2000,
      "base_duration_us": 187500
    },
    {
      "id": "M_1464",
      "pitch": 93,
      "t_note_us": 117000000,
      "t_trigger_us": 116864037,
      "is_ai": true,
      "track_id": 8,
      "velocity": 0,
      "is_motor": false,
      "motor_id": 0,
      "accel_val": 2000,
      "base_duration_us": 187500
    },
    {
      "id": "M_1465",
      "pitch": 86,
      "t_note_us": 117187500,
      "t_trigger_us": 117051537,
      "is_ai": true,
      "track_id": 4,
      "velocity": 0,
      "is_motor": false,
      "motor_id": 0,
      "accel_val": 2000,
      "base_duration_us": 187500
    },
    {
      "id": "M_1466",
      "pitch": 91,
      "t_note_us": 117187500,
      "t_trigger_us": 117051537,
      "is_ai": true,
      "track_id": 7,
      "velocity": 0,
      "is_motor": false,
      "motor_id": 0,
      "accel_val": 2000,
      "base_duration_us": 187500
    },
    {
      "id": "M_1467",
      "pitch": 98,
      "t_note_us": 117187500,
      "t_trigger_us": 117051537,
      "is_ai": true,
      "track_id": 11,
      "velocity": 0,
      "is_motor": false,
      "motor_id": 0,
      "accel_val": 2000,
      "base_duration_us": 187500
    },
    {
      "id": "M_1468",
      "pitch": 57,
      "t_note_us": 117187500,
      "t_trigger_us": 117051537,
      "is_ai": false,
      "track_id": 0,
      "velocity": 0,
      "is_motor": true,
      "motor_id": 0,
      "accel_val": 2000,
      "base_duration_us": 375000
    },
    {
      "id": "M_1469",
      "pitch": 69,
      "t_note_us": 117187500,
      "t_trigger_us": 117051537,
      "is_ai": false,
      "track_id": 0,
      "velocity": 0,
      "is_motor": true,
      "motor_id": 1,
      "accel_val": 2000,
      "base_duration_us": 375000
    },
    {
      "id": "M_1470",
      "pitch": 91,
      "t_note_us": 117562500,
      "t_trigger_us": 117426537,
      "is_ai": true,
      "track_id": 7,
      "velocity": 0,
      "is_motor": false,
      "motor_id": 0,
      "accel_val": 2000,
      "base_duration_us": 187500
    },
    {
      "id": "M_1471",
      "pitch": 57,
      "t_note_us": 117562500,
      "t_trigger_us": 117426537,
      "is_ai": false,
      "track_id": 0,
      "velocity": 0,
      "is_motor": true,
      "motor_id": 0,
      "accel_val": 2000,
      "base_duration_us": 187500
    },
    {
      "id": "M_1472",
      "pitch": 84,
      "t_note_us": 117750000,
      "t_trigger_us": 117614037,
      "is_ai": true,
      "track_id": 3,
      "velocity": 0,
      "is_motor": false,
      "motor_id": 0,
      "accel_val": 2000,
      "base_duration_us": 187500
    },
    {
      "id": "M_1473",
      "pitch": 91,
      "t_note_us": 117750000,
      "t_trigger_us": 117614037,
      "is_ai": true,
      "track_id": 7,
      "velocity": 0,
      "is_motor": false,
      "motor_id": 0,
      "accel_val": 2000,
      "base_duration_us": 187500
    },
    {
      "id": "M_1474",
      "pitch": 64,
      "t_note_us": 117750000,
      "t_trigger_us": 117614037,
      "is_ai": false,
      "track_id": 0,
      "velocity": 0,
      "is_motor": true,
      "motor_id": 1,
      "accel_val": 2000,
      "base_duration_us": 187500
    },
    {
      "id": "M_1475",
      "pitch": 69,
      "t_note_us": 117750000,
      "t_trigger_us": 117614037,
      "is_ai": false,
      "track_id": 0,
      "velocity": 0,
      "is_motor": true,
      "motor_id": 2,
      "accel_val": 2000,
      "base_duration_us": 187500
    },
    {
      "id": "M_1476",
      "pitch": 91,
      "t_note_us": 117937500,
      "t_trigger_us": 117801537,
      "is_ai": true,
      "track_id": 7,
      "velocity": 0,
      "is_motor": false,
      "motor_id": 0,
      "accel_val": 2000,
      "base_duration_us": 187500
    },
    {
      "id": "M_1477",
      "pitch": 57,
      "t_note_us": 117937500,
      "t_trigger_us": 117801537,
      "is_ai": false,
      "track_id": 0,
      "velocity": 0,
      "is_motor": true,
      "motor_id": 0,
      "accel_val": 2000,
      "base_duration_us": 187500
    },
    {
      "id": "M_1478",
      "pitch": 84,
      "t_note_us": 118125000,
      "t_trigger_us": 117989037,
      "is_ai": true,
      "track_id": 3,
      "velocity": 0,
      "is_motor": false,
      "motor_id": 0,
      "accel_val": 2000,
      "base_duration_us": 187500
    },
    {
      "id": "M_1479",
      "pitch": 91,
      "t_note_us": 118125000,
      "t_trigger_us": 117989037,
      "is_ai": true,
      "track_id": 7,
      "velocity": 0,
      "is_motor": false,
      "motor_id": 0,
      "accel_val": 2000,
      "base_duration_us": 187500
    },
    {
      "id": "M_1480",
      "pitch": 57,
      "t_note_us": 118125000,
      "t_trigger_us": 117989037,
      "is_ai": false,
      "track_id": 0,
      "velocity": 0,
      "is_motor": true,
      "motor_id": 0,
      "accel_val": 2000,
      "base_duration_us": 187500
    },
    {
      "id": "M_1481",
      "pitch": 88,
      "t_note_us": 118312500,
      "t_trigger_us": 118176537,
      "is_ai": true,
      "track_id": 5,
      "velocity": 0,
      "is_motor": false,
      "motor_id": 0,
      "accel_val": 2000,
      "base_duration_us": 187500
    },
    {
      "id": "M_1482",
      "pitch": 57,
      "t_note_us": 118312500,
      "t_trigger_us": 118176537,
      "is_ai": false,
      "track_id": 0,
      "velocity": 0,
      "is_motor": true,
      "motor_id": 0,
      "accel_val": 2000,
      "base_duration_us": 187500
    },
    {
      "id": "M_1484",
      "pitch": 88,
      "t_note_us": 118500000,
      "t_trigger_us": 118364037,
      "is_ai": true,
      "track_id": 5,
      "velocity": 0,
      "is_motor": false,
      "motor_id": 0,
      "accel_val": 2000,
      "base_duration_us": 187500
    },
    {
      "id": "M_1483",
      "pitch": 69,
      "t_note_us": 118500000,
      "t_trigger_us": 118364037,
      "is_ai": false,
      "track_id": 0,
      "velocity": 0,
      "is_motor": true,
      "motor_id": 1,
      "accel_val": 2000,
      "base_duration_us": 187500
    },
    {
      "id": "M_1485",
      "pitch": 64,
      "t_note_us": 118500000,
      "t_trigger_us": 118364037,
      "is_ai": false,
      "track_id": 0,
      "velocity": 0,
      "is_motor": true,
      "motor_id": 0,
      "accel_val": 2000,
      "base_duration_us": 187500
    },
    {
      "id": "M_1486",
      "pitch": 69,
      "t_note_us": 118500000,
      "t_trigger_us": 118364037,
      "is_ai": false,
      "track_id": 0,
      "velocity": 0,
      "is_motor": true,
      "motor_id": 2,
      "accel_val": 2000,
      "base_duration_us": 187500
    },
    {
      "id": "M_1487",
      "pitch": 86,
      "t_note_us": 118687500,
      "t_trigger_us": 118551537,
      "is_ai": true,
      "track_id": 4,
      "velocity": 0,
      "is_motor": false,
      "motor_id": 0,
      "accel_val": 2000,
      "base_duration_us": 187500
    },
    {
      "id": "M_1488",
      "pitch": 57,
      "t_note_us": 118687500,
      "t_trigger_us": 118551537,
      "is_ai": false,
      "track_id": 0,
      "velocity": 0,
      "is_motor": true,
      "motor_id": 0,
      "accel_val": 2000,
      "base_duration_us": 187500
    },
    {
      "id": "M_1491",
      "pitch": 88,
      "t_note_us": 118875000,
      "t_trigger_us": 118739037,
      "is_ai": true,
      "track_id": 5,
      "velocity": 0,
      "is_motor": false,
      "motor_id": 0,
      "accel_val": 2000,
      "base_duration_us": 375000
    },
    {
      "id": "M_1489",
      "pitch": 57,
      "t_note_us": 118875000,
      "t_trigger_us": 118739037,
      "is_ai": false,
      "track_id": 0,
      "velocity": 0,
      "is_motor": true,
      "motor_id": 0,
      "accel_val": 2000,
      "base_duration_us": 187500
    },
    {
      "id": "M_1490",
      "pitch": 69,
      "t_note_us": 118875000,
      "t_trigger_us": 118739037,
      "is_ai": false,
      "track_id": 0,
      "velocity": 0,
      "is_motor": true,
      "motor_id": 1,
      "accel_val": 2000,
      "base_duration_us": 375000
    },
    {
      "id": "M_1492",
      "pitch": 57,
      "t_note_us": 119062500,
      "t_trigger_us": 118926537,
      "is_ai": false,
      "track_id": 0,
      "velocity": 0,
      "is_motor": true,
      "motor_id": 0,
      "accel_val": 2000,
      "base_duration_us": 187500
    },
    {
      "id": "M_1493",
      "pitch": 91,
      "t_note_us": 119250000,
      "t_trigger_us": 119114037,
      "is_ai": true,
      "track_id": 7,
      "velocity": 0,
      "is_motor": false,
      "motor_id": 0,
      "accel_val": 2000,
      "base_duration_us": 187500
    },
    {
      "id": "M_1494",
      "pitch": 64,
      "t_note_us": 119250000,
      "t_trigger_us": 119114037,
      "is_ai": false,
      "track_id": 0,
      "velocity": 0,
      "is_motor": true,
      "motor_id": 1,
      "accel_val": 2000,
      "base_duration_us": 187500
    },
    {
      "id": "M_1495",
      "pitch": 69,
      "t_note_us": 119250000,
      "t_trigger_us": 119114037,
      "is_ai": false,
      "track_id": 0,
      "velocity": 0,
      "is_motor": true,
      "motor_id": 2,
      "accel_val": 2000,
      "base_duration_us": 187500
    },
    {
      "id": "M_1496",
      "pitch": 88,
      "t_note_us": 119437500,
      "t_trigger_us": 119301537,
      "is_ai": true,
      "track_id": 5,
      "velocity": 0,
      "is_motor": false,
      "motor_id": 0,
      "accel_val": 2000,
      "base_duration_us": 187500
    },
    {
      "id": "M_1497",
      "pitch": 57,
      "t_note_us": 119437500,
      "t_trigger_us": 119301537,
      "is_ai": false,
      "track_id": 0,
      "velocity": 0,
      "is_motor": true,
      "motor_id": 0,
      "accel_val": 2000,
      "base_duration_us": 187500
    },
    {
      "id": "M_1498",
      "pitch": 91,
      "t_note_us": 119625000,
      "t_trigger_us": 119489037,
      "is_ai": true,
      "track_id": 7,
      "velocity": 0,
      "is_motor": false,
      "motor_id": 0,
      "accel_val": 2000,
      "base_duration_us": 187500
    },
    {
      "id": "M_1499",
      "pitch": 57,
      "t_note_us": 119625000,
      "t_trigger_us": 119489037,
      "is_ai": false,
      "track_id": 0,
      "velocity": 0,
      "is_motor": true,
      "motor_id": 0,
      "accel_val": 2000,
      "base_duration_us": 187500
    },
    {
      "id": "M_1500",
      "pitch": 88,
      "t_note_us": 119812500,
      "t_trigger_us": 119676537,
      "is_ai": true,
      "track_id": 5,
      "velocity": 0,
      "is_motor": false,
      "motor_id": 0,
      "accel_val": 2000,
      "base_duration_us": 187500
    },
    {
      "id": "M_1501",
      "pitch": 57,
      "t_note_us": 119812500,
      "t_trigger_us": 119676537,
      "is_ai": false,
      "track_id": 0,
      "velocity": 0,
      "is_motor": true,
      "motor_id": 0,
      "accel_val": 2000,
      "base_duration_us": 187500
    },
    {
      "id": "M_1502",
      "pitch": 84,
      "t_note_us": 120000000,
      "t_trigger_us": 119864037,
      "is_ai": true,
      "track_id": 3,
      "velocity": 0,
      "is_motor": false,
      "motor_id": 0,
      "accel_val": 2000,
      "base_duration_us": 187500
    },
    {
      "id": "M_1503",
      "pitch": 91,
      "t_note_us": 120000000,
      "t_trigger_us": 119864037,
      "is_ai": true,
      "track_id": 7,
      "velocity": 0,
      "is_motor": false,
      "motor_id": 0,
      "accel_val": 2000,
      "base_duration_us": 187500
    },
    {
      "id": "M_1504",
      "pitch": 64,
      "t_note_us": 120000000,
      "t_trigger_us": 119864037,
      "is_ai": false,
      "track_id": 0,
      "velocity": 0,
      "is_motor": true,
      "motor_id": 1,
      "accel_val": 2000,
      "base_duration_us": 187500
    },
    {
      "id": "M_1505",
      "pitch": 69,
      "t_note_us": 120000000,
      "t_trigger_us": 119864037,
      "is_ai": false,
      "track_id": 0,
      "velocity": 0,
      "is_motor": true,
      "motor_id": 2,
      "accel_val": 2000,
      "base_duration_us": 187500
    },
    {
      "id": "M_1506",
      "pitch": 93,
      "t_note_us": 120187500,
      "t_trigger_us": 120051537,
      "is_ai": true,
      "track_id": 8,
      "velocity": 0,
      "is_motor": false,
      "motor_id": 0,
      "accel_val": 2000,
      "base_duration_us": 187500
    },
    {
      "id": "M_1507",
      "pitch": 57,
      "t_note_us": 120187500,
      "t_trigger_us": 120051537,
      "is_ai": false,
      "track_id": 0,
      "velocity": 0,
      "is_motor": true,
      "motor_id": 0,
      "accel_val": 2000,
      "base_duration_us": 187500
    },
    {
      "id": "M_1510",
      "pitch": 88,
      "t_note_us": 120375000,
      "t_trigger_us": 120239037,
      "is_ai": true,
      "track_id": 5,
      "velocity": 0,
      "is_motor": false,
      "motor_id": 0,
      "accel_val": 2000,
      "base_duration_us": 562500
    },
    {
      "id": "M_1511",
      "pitch": 93,
      "t_note_us": 120375000,
      "t_trigger_us": 120239037,
      "is_ai": true,
      "track_id": 8,
      "velocity": 0,
      "is_motor": false,
      "motor_id": 0,
      "accel_val": 2000,
      "base_duration_us": 562500
    },
    {
      "id": "M_1508",
      "pitch": 57,
      "t_note_us": 120375000,
      "t_trigger_us": 120239037,
      "is_ai": false,
      "track_id": 0,
      "velocity": 0,
      "is_motor": true,
      "motor_id": 0,
      "accel_val": 2000,
      "base_duration_us": 187500
    },
    {
      "id": "M_1509",
      "pitch": 57,
      "t_note_us": 120562500,
      "t_trigger_us": 120426537,
      "is_ai": false,
      "track_id": 0,
      "velocity": 0,
      "is_motor": true,
      "motor_id": 0,
      "accel_val": 2000,
      "base_duration_us": 187500
    },
    {
      "id": "M_1512",
      "pitch": 64,
      "t_note_us": 120750000,
      "t_trigger_us": 120614037,
      "is_ai": false,
      "track_id": 0,
      "velocity": 0,
      "is_motor": true,
      "motor_id": 1,
      "accel_val": 2000,
      "base_duration_us": 187500
    },
    {
      "id": "M_1513",
      "pitch": 69,
      "t_note_us": 120750000,
      "t_trigger_us": 120614037,
      "is_ai": false,
      "track_id": 0,
      "velocity": 0,
      "is_motor": true,
      "motor_id": 2,
      "accel_val": 2000,
      "base_duration_us": 187500
    },
    {
      "id": "M_1514",
      "pitch": 93,
      "t_note_us": 120937500,
      "t_trigger_us": 120801537,
      "is_ai": true,
      "track_id": 8,
      "velocity": 0,
      "is_motor": false,
      "motor_id": 0,
      "accel_val": 2000,
      "base_duration_us": 187500
    },
    {
      "id": "M_1515",
      "pitch": 55,
      "t_note_us": 120937500,
      "t_trigger_us": 120801537,
      "is_ai": false,
      "track_id": 0,
      "velocity": 0,
      "is_motor": true,
      "motor_id": 0,
      "accel_val": 2000,
      "base_duration_us": 187500
    },
    {
      "id": "M_1516",
      "pitch": 62,
      "t_note_us": 120937500,
      "t_trigger_us": 120801537,
      "is_ai": false,
      "track_id": 0,
      "velocity": 0,
      "is_motor": true,
      "motor_id": 1,
      "accel_val": 2000,
      "base_duration_us": 187500
    },
    {
      "id": "M_1517",
      "pitch": 67,
      "t_note_us": 120937500,
      "t_trigger_us": 120801537,
      "is_ai": false,
      "track_id": 0,
      "velocity": 0,
      "is_motor": true,
      "motor_id": 2,
      "accel_val": 2000,
      "base_duration_us": 187500
    },
    {
      "id": "M_1518",
      "pitch": 93,
      "t_note_us": 121125000,
      "t_trigger_us": 120989037,
      "is_ai": true,
      "track_id": 8,
      "velocity": 0,
      "is_motor": false,
      "motor_id": 0,
      "accel_val": 2000,
      "base_duration_us": 187500
    },
    {
      "id": "M_1519",
      "pitch": 99,
      "t_note_us": 121125000,
      "t_trigger_us": 120989037,
      "is_ai": true,
      "track_id": 0,
      "velocity": 0,
      "is_motor": true,
      "motor_id": 3,
      "accel_val": 2000,
      "base_duration_us": 187500
    },
    {
      "id": "M_1520",
      "pitch": 93,
      "t_note_us": 121312500,
      "t_trigger_us": 121176537,
      "is_ai": true,
      "track_id": 8,
      "velocity": 0,
      "is_motor": false,
      "motor_id": 0,
      "accel_val": 2000,
      "base_duration_us": 187500
    },
    {
      "id": "M_1521",
      "pitch": 98,
      "t_note_us": 121312500,
      "t_trigger_us": 121176537,
      "is_ai": true,
      "track_id": 11,
      "velocity": 0,
      "is_motor": false,
      "motor_id": 0,
      "accel_val": 2000,
      "base_duration_us": 187500
    },
    {
      "id": "M_1522",
      "pitch": 55,
      "t_note_us": 121312500,
      "t_trigger_us": 121176537,
      "is_ai": false,
      "track_id": 0,
      "velocity": 0,
      "is_motor": true,
      "motor_id": 0,
      "accel_val": 2000,
      "base_duration_us": 187500
    },
    {
      "id": "M_1523",
      "pitch": 62,
      "t_note_us": 121312500,
      "t_trigger_us": 121176537,
      "is_ai": false,
      "track_id": 0,
      "velocity": 0,
      "is_motor": true,
      "motor_id": 1,
      "accel_val": 2000,
      "base_duration_us": 187500
    },
    {
      "id": "M_1524",
      "pitch": 67,
      "t_note_us": 121312500,
      "t_trigger_us": 121176537,
      "is_ai": false,
      "track_id": 0,
      "velocity": 0,
      "is_motor": true,
      "motor_id": 2,
      "accel_val": 2000,
      "base_duration_us": 187500
    },
    {
      "id": "M_1525",
      "pitch": 88,
      "t_note_us": 121500000,
      "t_trigger_us": 121364037,
      "is_ai": true,
      "track_id": 5,
      "velocity": 0,
      "is_motor": false,
      "motor_id": 0,
      "accel_val": 2000,
      "base_duration_us": 187500
    },
    {
      "id": "M_1526",
      "pitch": 96,
      "t_note_us": 121500000,
      "t_trigger_us": 121364037,
      "is_ai": true,
      "track_id": 10,
      "velocity": 0,
      "is_motor": false,
      "motor_id": 0,
      "accel_val": 2000,
      "base_duration_us": 187500
    },
    {
      "id": "M_1527",
      "pitch": 88,
      "t_note_us": 121687500,
      "t_trigger_us": 121551537,
      "is_ai": true,
      "track_id": 5,
      "velocity": 0,
      "is_motor": false,
      "motor_id": 0,
      "accel_val": 2000,
      "base_duration_us": 187500
    },
    {
      "id": "M_1528",
      "pitch": 93,
      "t_note_us": 121687500,
      "t_trigger_us": 121551537,
      "is_ai": true,
      "track_id": 8,
      "velocity": 0,
      "is_motor": false,
      "motor_id": 0,
      "accel_val": 2000,
      "base_duration_us": 187500
    },
    {
      "id": "M_1529",
      "pitch": 55,
      "t_note_us": 121687500,
      "t_trigger_us": 121551537,
      "is_ai": false,
      "track_id": 0,
      "velocity": 0,
      "is_motor": true,
      "motor_id": 0,
      "accel_val": 2000,
      "base_duration_us": 187500
    },
    {
      "id": "M_1530",
      "pitch": 67,
      "t_note_us": 121687500,
      "t_trigger_us": 121551537,
      "is_ai": false,
      "track_id": 0,
      "velocity": 0,
      "is_motor": true,
      "motor_id": 1,
      "accel_val": 2000,
      "base_duration_us": 187500
    },
    {
      "id": "M_1531",
      "pitch": 84,
      "t_note_us": 121875000,
      "t_trigger_us": 121739037,
      "is_ai": true,
      "track_id": 3,
      "velocity": 0,
      "is_motor": false,
      "motor_id": 0,
      "accel_val": 2000,
      "base_duration_us": 187500
    },
    {
      "id": "M_1533",
      "pitch": 88,
      "t_note_us": 121875000,
      "t_trigger_us": 121739037,
      "is_ai": true,
      "track_id": 5,
      "velocity": 0,
      "is_motor": false,
      "motor_id": 0,
      "accel_val": 2000,
      "base_duration_us": 375000
    },
    {
      "id": "M_1534",
      "pitch": 93,
      "t_note_us": 121875000,
      "t_trigger_us": 121739037,
      "is_ai": true,
      "track_id": 8,
      "velocity": 0,
      "is_motor": false,
      "motor_id": 0,
      "accel_val": 2000,
      "base_duration_us": 375000
    },
    {
      "id": "M_1532",
      "pitch": 53,
      "t_note_us": 121875000,
      "t_trigger_us": 121739037,
      "is_ai": false,
      "track_id": 0,
      "velocity": 0,
      "is_motor": true,
      "motor_id": 0,
      "accel_val": 2000,
      "base_duration_us": 187500
    },
    {
      "id": "M_1535",
      "pitch": 65,
      "t_note_us": 122062500,
      "t_trigger_us": 121926537,
      "is_ai": false,
      "track_id": 0,
      "velocity": 0,
      "is_motor": true,
      "motor_id": 1,
      "accel_val": 2000,
      "base_duration_us": 187500
    },
    {
      "id": "M_1536",
      "pitch": 72,
      "t_note_us": 122250000,
      "t_trigger_us": 122114037,
      "is_ai": false,
      "track_id": 0,
      "velocity": 0,
      "is_motor": true,
      "motor_id": 1,
      "accel_val": 2000,
      "base_duration_us": 187500
    },
    {
      "id": "M_1537",
      "pitch": 53,
      "t_note_us": 122250000,
      "t_trigger_us": 122114037,
      "is_ai": false,
      "track_id": 0,
      "velocity": 0,
      "is_motor": true,
      "motor_id": 0,
      "accel_val": 2000,
      "base_duration_us": 187500
    },
    {
      "id": "M_1538",
      "pitch": 65,
      "t_note_us": 122437500,
      "t_trigger_us": 122301537,
      "is_ai": false,
      "track_id": 0,
      "velocity": 0,
      "is_motor": true,
      "motor_id": 1,
      "accel_val": 2000,
      "base_duration_us": 187500
    },
    {
      "id": "M_1539",
      "pitch": 69,
      "t_note_us": 122625000,
      "t_trigger_us": 122489037,
      "is_ai": false,
      "track_id": 0,
      "velocity": 0,
      "is_motor": true,
      "motor_id": 1,
      "accel_val": 2000,
      "base_duration_us": 187500
    },
    {
      "id": "M_1540",
      "pitch": 54,
      "t_note_us": 122625000,
      "t_trigger_us": 122489037,
      "is_ai": false,
      "track_id": 0,
      "velocity": 0,
      "is_motor": true,
      "motor_id": 0,
      "accel_val": 2000,
      "base_duration_us": 187500
    },
    {
      "id": "M_1541",
      "pitch": 76,
      "t_note_us": 122625000,
      "t_trigger_us": 122489037,
      "is_ai": false,
      "track_id": 0,
      "velocity": 0,
      "is_motor": true,
      "motor_id": 2,
      "accel_val": 2000,
      "base_duration_us": 375000
    },
    {
      "id": "M_1542",
      "pitch": 66,
      "t_note_us": 122812500,
      "t_trigger_us": 122676537,
      "is_ai": false,
      "track_id": 0,
      "velocity": 0,
      "is_motor": true,
      "motor_id": 1,
      "accel_val": 2000,
      "base_duration_us": 187500
    },
    {
      "id": "M_1543",
      "pitch": 69,
      "t_note_us": 123000000,
      "t_trigger_us": 122864037,
      "is_ai": false,
      "track_id": 0,
      "velocity": 0,
      "is_motor": true,
      "motor_id": 1,
      "accel_val": 2000,
      "base_duration_us": 187500
    },
    {
      "id": "M_1544",
      "pitch": 54,
      "t_note_us": 123000000,
      "t_trigger_us": 122864037,
      "is_ai": false,
      "track_id": 0,
      "velocity": 0,
      "is_motor": true,
      "motor_id": 0,
      "accel_val": 2000,
      "base_duration_us": 187500
    },
    {
      "id": "M_1545",
      "pitch": 76,
      "t_note_us": 123000000,
      "t_trigger_us": 122864037,
      "is_ai": false,
      "track_id": 0,
      "velocity": 0,
      "is_motor": true,
      "motor_id": 2,
      "accel_val": 2000,
      "base_duration_us": 375000
    },
    {
      "id": "M_1546",
      "pitch": 66,
      "t_note_us": 123187500,
      "t_trigger_us": 123051537,
      "is_ai": false,
      "track_id": 0,
      "velocity": 0,
      "is_motor": true,
      "motor_id": 1,
      "accel_val": 2000,
      "base_duration_us": 187500
    },
    {
      "id": "M_1547",
      "pitch": 67,
      "t_note_us": 123375000,
      "t_trigger_us": 123239037,
      "is_ai": false,
      "track_id": 0,
      "velocity": 0,
      "is_motor": true,
      "motor_id": 1,
      "accel_val": 2000,
      "base_duration_us": 187500
    },
    {
      "id": "M_1548",
      "pitch": 55,
      "t_note_us": 123375000,
      "t_trigger_us": 123239037,
      "is_ai": false,
      "track_id": 0,
      "velocity": 0,
      "is_motor": true,
      "motor_id": 0,
      "accel_val": 2000,
      "base_duration_us": 187500
    },
    {
      "id": "M_1549",
      "pitch": 74,
      "t_note_us": 123375000,
      "t_trigger_us": 123239037,
      "is_ai": false,
      "track_id": 0,
      "velocity": 0,
      "is_motor": true,
      "motor_id": 2,
      "accel_val": 2000,
      "base_duration_us": 375000
    },
    {
      "id": "M_1550",
      "pitch": 67,
      "t_note_us": 123562500,
      "t_trigger_us": 123426537,
      "is_ai": false,
      "track_id": 0,
      "velocity": 0,
      "is_motor": true,
      "motor_id": 1,
      "accel_val": 2000,
      "base_duration_us": 187500
    },
    {
      "id": "M_1551",
      "pitch": 67,
      "t_note_us": 123750000,
      "t_trigger_us": 123614037,
      "is_ai": false,
      "track_id": 0,
      "velocity": 0,
      "is_motor": true,
      "motor_id": 1,
      "accel_val": 2000,
      "base_duration_us": 187500
    },
    {
      "id": "M_1552",
      "pitch": 55,
      "t_note_us": 123750000,
      "t_trigger_us": 123614037,
      "is_ai": false,
      "track_id": 0,
      "velocity": 0,
      "is_motor": true,
      "motor_id": 0,
      "accel_val": 2000,
      "base_duration_us": 187500
    },
    {
      "id": "M_1553",
      "pitch": 72,
      "t_note_us": 123750000,
      "t_trigger_us": 123614037,
      "is_ai": false,
      "track_id": 0,
      "velocity": 0,
      "is_motor": true,
      "motor_id": 2,
      "accel_val": 2000,
      "base_duration_us": 375000
    },
    {
      "id": "M_1554",
      "pitch": 67,
      "t_note_us": 123750000,
      "t_trigger_us": 123614037,
      "is_ai": false,
      "track_id": 0,
      "velocity": 0,
      "is_motor": true,
      "motor_id": 3,
      "accel_val": 2000,
      "base_duration_us": 375000
    },
    {
      "id": "M_1555",
      "pitch": 67,
      "t_note_us": 123937500,
      "t_trigger_us": 123801537,
      "is_ai": false,
      "track_id": 0,
      "velocity": 0,
      "is_motor": true,
      "motor_id": 1,
      "accel_val": 2000,
      "base_duration_us": 187500
    },
    {
      "id": "M_1556",
      "pitch": 68,
      "t_note_us": 124125000,
      "t_trigger_us": 123989037,
      "is_ai": false,
      "track_id": 0,
      "velocity": 0,
      "is_motor": true,
      "motor_id": 1,
      "accel_val": 2000,
      "base_duration_us": 187500
    },
    {
      "id": "M_1557",
      "pitch": 56,
      "t_note_us": 124125000,
      "t_trigger_us": 123989037,
      "is_ai": false,
      "track_id": 0,
      "velocity": 0,
      "is_motor": true,
      "motor_id": 0,
      "accel_val": 2000,
      "base_duration_us": 187500
    },
    {
      "id": "M_1558",
      "pitch": 72,
      "t_note_us": 124125000,
      "t_trigger_us": 123989037,
      "is_ai": false,
      "track_id": 0,
      "velocity": 0,
      "is_motor": true,
      "motor_id": 2,
      "accel_val": 2000,
      "base_duration_us": 375000
    },
    {
      "id": "M_1559",
      "pitch": 76,
      "t_note_us": 124125000,
      "t_trigger_us": 123989037,
      "is_ai": false,
      "track_id": 0,
      "velocity": 0,
      "is_motor": true,
      "motor_id": 3,
      "accel_val": 2000,
      "base_duration_us": 375000
    },
    {
      "id": "M_1560",
      "pitch": 68,
      "t_note_us": 124312500,
      "t_trigger_us": 124176537,
      "is_ai": false,
      "track_id": 0,
      "velocity": 0,
      "is_motor": true,
      "motor_id": 1,
      "accel_val": 2000,
      "base_duration_us": 187500
    },
    {
      "id": "M_1561",
      "pitch": 68,
      "t_note_us": 124500000,
      "t_trigger_us": 124364037,
      "is_ai": false,
      "track_id": 0,
      "velocity": 0,
      "is_motor": true,
      "motor_id": 1,
      "accel_val": 2000,
      "base_duration_us": 187500
    },
    {
      "id": "M_1562",
      "pitch": 56,
      "t_note_us": 124500000,
      "t_trigger_us": 124364037,
      "is_ai": false,
      "track_id": 0,
      "velocity": 0,
      "is_motor": true,
      "motor_id": 0,
      "accel_val": 2000,
      "base_duration_us": 187500
    },
    {
      "id": "M_1563",
      "pitch": 67,
      "t_note_us": 124687500,
      "t_trigger_us": 124551537,
      "is_ai": false,
      "track_id": 0,
      "velocity": 0,
      "is_motor": true,
      "motor_id": 1,
      "accel_val": 2000,
      "base_duration_us": 187500
    },
    {
      "id": "M_1564",
      "pitch": 68,
      "t_note_us": 124687500,
      "t_trigger_us": 124551537,
      "is_ai": false,
      "track_id": 0,
      "velocity": 0,
      "is_motor": true,
      "motor_id": 2,
      "accel_val": 2000,
      "base_duration_us": 187500
    },
    {
      "id": "M_1565",
      "pitch": 69,
      "t_note_us": 124875000,
      "t_trigger_us": 124739037,
      "is_ai": false,
      "track_id": 0,
      "velocity": 0,
      "is_motor": true,
      "motor_id": 1,
      "accel_val": 2000,
      "base_duration_us": 187500
    },
    {
      "id": "M_1566",
      "pitch": 76,
      "t_note_us": 124875000,
      "t_trigger_us": 124739037,
      "is_ai": false,
      "track_id": 0,
      "velocity": 0,
      "is_motor": true,
      "motor_id": 2,
      "accel_val": 2000,
      "base_duration_us": 187500
    },
    {
      "id": "M_1567",
      "pitch": 69,
      "t_note_us": 124875000,
      "t_trigger_us": 124739037,
      "is_ai": false,
      "track_id": 0,
      "velocity": 0,
      "is_motor": true,
      "motor_id": 0,
      "accel_val": 2000,
      "base_duration_us": 187500
    },
    {
      "id": "M_1568",
      "pitch": 57,
      "t_note_us": 124875000,
      "t_trigger_us": 124739037,
      "is_ai": false,
      "track_id": 0,
      "velocity": 0,
      "is_motor": true,
      "motor_id": 3,
      "accel_val": 2000,
      "base_duration_us": 187500
    },
    {
      "id": "M_1569",
      "pitch": 69,
      "t_note_us": 125062500,
      "t_trigger_us": 124926537,
      "is_ai": false,
      "track_id": 0,
      "velocity": 0,
      "is_motor": true,
      "motor_id": 1,
      "accel_val": 2000,
      "base_duration_us": 187500
    },
    {
      "id": "M_1570",
      "pitch": 69,
      "t_note_us": 125062500,
      "t_trigger_us": 124926537,
      "is_ai": false,
      "track_id": 0,
      "velocity": 0,
      "is_motor": true,
      "motor_id": 2,
      "accel_val": 2000,
      "base_duration_us": 187500
    },
    {
      "id": "M_1571",
      "pitch": 69,
      "t_note_us": 125250000,
      "t_trigger_us": 125114037,
      "is_ai": false,
      "track_id": 0,
      "velocity": 0,
      "is_motor": true,
      "motor_id": 1,
      "accel_val": 2000,
      "base_duration_us": 187500
    },
    {
      "id": "M_1572",
      "pitch": 76,
      "t_note_us": 125250000,
      "t_trigger_us": 125114037,
      "is_ai": false,
      "track_id": 0,
      "velocity": 0,
      "is_motor": true,
      "motor_id": 2,
      "accel_val": 2000,
      "base_duration_us": 187500
    },
    {
      "id": "M_1573",
      "pitch": 69,
      "t_note_us": 125250000,
      "t_trigger_us": 125114037,
      "is_ai": false,
      "track_id": 0,
      "velocity": 0,
      "is_motor": true,
      "motor_id": 0,
      "accel_val": 2000,
      "base_duration_us": 187500
    },
    {
      "id": "M_1574",
      "pitch": 57,
      "t_note_us": 125250000,
      "t_trigger_us": 125114037,
      "is_ai": false,
      "track_id": 0,
      "velocity": 0,
      "is_motor": true,
      "motor_id": 3,
      "accel_val": 2000,
      "base_duration_us": 187500
    },
    {
      "id": "M_1575",
      "pitch": 67,
      "t_note_us": 125437500,
      "t_trigger_us": 125301537,
      "is_ai": false,
      "track_id": 0,
      "velocity": 0,
      "is_motor": true,
      "motor_id": 1,
      "accel_val": 2000,
      "base_duration_us": 187500
    },
    {
      "id": "M_1576",
      "pitch": 69,
      "t_note_us": 125437500,
      "t_trigger_us": 125301537,
      "is_ai": false,
      "track_id": 0,
      "velocity": 0,
      "is_motor": true,
      "motor_id": 2,
      "accel_val": 2000,
      "base_duration_us": 187500
    },
    {
      "id": "M_1577",
      "pitch": 71,
      "t_note_us": 125625000,
      "t_trigger_us": 125489037,
      "is_ai": false,
      "track_id": 0,
      "velocity": 0,
      "is_motor": true,
      "motor_id": 1,
      "accel_val": 2000,
      "base_duration_us": 187500
    },
    {
      "id": "M_1578",
      "pitch": 74,
      "t_note_us": 125625000,
      "t_trigger_us": 125489037,
      "is_ai": false,
      "track_id": 0,
      "velocity": 0,
      "is_motor": true,
      "motor_id": 0,
      "accel_val": 2000,
      "base_duration_us": 187500
    },
    {
      "id": "M_1579",
      "pitch": 67,
      "t_note_us": 125625000,
      "t_trigger_us": 125489037,
      "is_ai": false,
      "track_id": 0,
      "velocity": 0,
      "is_motor": true,
      "motor_id": 2,
      "accel_val": 2000,
      "base_duration_us": 187500
    },
    {
      "id": "M_1580",
      "pitch": 59,
      "t_note_us": 125625000,
      "t_trigger_us": 125489037,
      "is_ai": false,
      "track_id": 0,
      "velocity": 0,
      "is_motor": true,
      "motor_id": 3,
      "accel_val": 2000,
      "base_duration_us": 187500
    },
    {
      "id": "M_1581",
      "pitch": 67,
      "t_note_us": 125812500,
      "t_trigger_us": 125676537,
      "is_ai": false,
      "track_id": 0,
      "velocity": 0,
      "is_motor": true,
      "motor_id": 1,
      "accel_val": 2000,
      "base_duration_us": 187500
    },
    {
      "id": "M_1582",
      "pitch": 71,
      "t_note_us": 125812500,
      "t_trigger_us": 125676537,
      "is_ai": false,
      "track_id": 0,
      "velocity": 0,
      "is_motor": true,
      "motor_id": 2,
      "accel_val": 2000,
      "base_duration_us": 187500
    },
    {
      "id": "M_1583",
      "pitch": 71,
      "t_note_us": 126000000,
      "t_trigger_us": 125864037,
      "is_ai": false,
      "track_id": 0,
      "velocity": 0,
      "is_motor": true,
      "motor_id": 1,
      "accel_val": 2000,
      "base_duration_us": 187500
    },
    {
      "id": "M_1584",
      "pitch": 74,
      "t_note_us": 126000000,
      "t_trigger_us": 125864037,
      "is_ai": false,
      "track_id": 0,
      "velocity": 0,
      "is_motor": true,
      "motor_id": 0,
      "accel_val": 2000,
      "base_duration_us": 187500
    },
    {
      "id": "M_1585",
      "pitch": 67,
      "t_note_us": 126000000,
      "t_trigger_us": 125864037,
      "is_ai": false,
      "track_id": 0,
      "velocity": 0,
      "is_motor": true,
      "motor_id": 2,
      "accel_val": 2000,
      "base_duration_us": 187500
    },
    {
      "id": "M_1586",
      "pitch": 59,
      "t_note_us": 126000000,
      "t_trigger_us": 125864037,
      "is_ai": false,
      "track_id": 0,
      "velocity": 0,
      "is_motor": true,
      "motor_id": 3,
      "accel_val": 2000,
      "base_duration_us": 187500
    },
    {
      "id": "M_1587",
      "pitch": 76,
      "t_note_us": 126187500,
      "t_trigger_us": 126051537,
      "is_ai": false,
      "track_id": 0,
      "velocity": 0,
      "is_motor": true,
      "motor_id": 2,
      "accel_val": 2000,
      "base_duration_us": 187500
    },
    {
      "id": "M_1588",
      "pitch": 71,
      "t_note_us": 126187500,
      "t_trigger_us": 126051537,
      "is_ai": false,
      "track_id": 0,
      "velocity": 0,
      "is_motor": true,
      "motor_id": 1,
      "accel_val": 2000,
      "base_duration_us": 187500
    },
    {
      "id": "M_1589",
      "pitch": 60,
      "t_note_us": 126375000,
      "t_trigger_us": 126239037,
      "is_ai": false,
      "track_id": 0,
      "velocity": 0,
      "is_motor": true,
      "motor_id": 1,
      "accel_val": 2000,
      "base_duration_us": 187500
    },
    {
      "id": "M_1590",
      "pitch": 72,
      "t_note_us": 126375000,
      "t_trigger_us": 126239037,
      "is_ai": false,
      "track_id": 0,
      "velocity": 0,
      "is_motor": true,
      "motor_id": 0,
      "accel_val": 2000,
      "base_duration_us": 187500
    },
    {
      "id": "M_1591",
      "pitch": 69,
      "t_note_us": 126375000,
      "t_trigger_us": 126239037,
      "is_ai": false,
      "track_id": 0,
      "velocity": 0,
      "is_motor": true,
      "motor_id": 2,
      "accel_val": 2000,
      "base_duration_us": 375000
    },
    {
      "id": "M_1592",
      "pitch": 76,
      "t_note_us": 126375000,
      "t_trigger_us": 126239037,
      "is_ai": false,
      "track_id": 0,
      "velocity": 0,
      "is_motor": true,
      "motor_id": 3,
      "accel_val": 2000,
      "base_duration_us": 375000
    },
    {
      "id": "M_1593",
      "pitch": 62,
      "t_note_us": 126562500,
      "t_trigger_us": 126426537,
      "is_ai": false,
      "track_id": 0,
      "velocity": 0,
      "is_motor": true,
      "motor_id": 1,
      "accel_val": 2000,
      "base_duration_us": 187500
    },
    {
      "id": "M_1594",
      "pitch": 74,
      "t_note_us": 126562500,
      "t_trigger_us": 126426537,
      "is_ai": false,
      "track_id": 0,
      "velocity": 0,
      "is_motor": true,
      "motor_id": 0,
      "accel_val": 2000,
      "base_duration_us": 187500
    },
    {
      "id": "M_1595",
      "pitch": 67,
      "t_note_us": 126750000,
      "t_trigger_us": 126614037,
      "is_ai": false,
      "track_id": 0,
      "velocity": 0,
      "is_motor": true,
      "motor_id": 1,
      "accel_val": 2000,
      "base_duration_us": 187500
    },
    {
      "id": "M_1596",
      "pitch": 60,
      "t_note_us": 126750000,
      "t_trigger_us": 126614037,
      "is_ai": false,
      "track_id": 0,
      "velocity": 0,
      "is_motor": true,
      "motor_id": 0,
      "accel_val": 2000,
      "base_duration_us": 187500
    },
    {
      "id": "M_1597",
      "pitch": 72,
      "t_note_us": 126750000,
      "t_trigger_us": 126614037,
      "is_ai": false,
      "track_id": 0,
      "velocity": 0,
      "is_motor": true,
      "motor_id": 2,
      "accel_val": 2000,
      "base_duration_us": 187500
    },
    {
      "id": "M_1598",
      "pitch": 76,
      "t_note_us": 126937500,
      "t_trigger_us": 126801537,
      "is_ai": false,
      "track_id": 0,
      "velocity": 0,
      "is_motor": true,
      "motor_id": 2,
      "accel_val": 2000,
      "base_duration_us": 187500
    },
    {
      "id": "M_1599",
      "pitch": 55,
      "t_note_us": 126937500,
      "t_trigger_us": 126801537,
      "is_ai": false,
      "track_id": 0,
      "velocity": 0,
      "is_motor": true,
      "motor_id": 0,
      "accel_val": 2000,
      "base_duration_us": 187500
    },
    {
      "id": "M_1600",
      "pitch": 67,
      "t_note_us": 126937500,
      "t_trigger_us": 126801537,
      "is_ai": false,
      "track_id": 0,
      "velocity": 0,
      "is_motor": true,
      "motor_id": 1,
      "accel_val": 2000,
      "base_duration_us": 187500
    },
    {
      "id": "M_1601",
      "pitch": 72,
      "t_note_us": 127125000,
      "t_trigger_us": 126989037,
      "is_ai": false,
      "track_id": 0,
      "velocity": 0,
      "is_motor": true,
      "motor_id": 1,
      "accel_val": 2000,
      "base_duration_us": 187500
    },
    {
      "id": "M_1602",
      "pitch": 67,
      "t_note_us": 127125000,
      "t_trigger_us": 126989037,
      "is_ai": false,
      "track_id": 0,
      "velocity": 0,
      "is_motor": true,
      "motor_id": 2,
      "accel_val": 2000,
      "base_duration_us": 187500
    },
    {
      "id": "M_1603",
      "pitch": 69,
      "t_note_us": 127312500,
      "t_trigger_us": 127176537,
      "is_ai": false,
      "track_id": 0,
      "velocity": 0,
      "is_motor": true,
      "motor_id": 1,
      "accel_val": 2000,
      "base_duration_us": 187500
    },
    {
      "id": "M_1606",
      "pitch": 55,
      "t_note_us": 127312500,
      "t_trigger_us": 127176537,
      "is_ai": false,
      "track_id": 0,
      "velocity": 0,
      "is_motor": true,
      "motor_id": 0,
      "accel_val": 2000,
      "base_duration_us": 562500
    },
    {
      "id": "M_1607",
      "pitch": 62,
      "t_note_us": 127312500,
      "t_trigger_us": 127176537,
      "is_ai": false,
      "track_id": 0,
      "velocity": 0,
      "is_motor": true,
      "motor_id": 2,
      "accel_val": 2000,
      "base_duration_us": 562500
    },
    {
      "id": "M_1608",
      "pitch": 67,
      "t_note_us": 127312500,
      "t_trigger_us": 127176537,
      "is_ai": false,
      "track_id": 0,
      "velocity": 0,
      "is_motor": true,
      "motor_id": 3,
      "accel_val": 2000,
      "base_duration_us": 562500
    },
    {
      "id": "M_1604",
      "pitch": 67,
      "t_note_us": 127500000,
      "t_trigger_us": 127364037,
      "is_ai": false,
      "track_id": 0,
      "velocity": 0,
      "is_motor": true,
      "motor_id": 1,
      "accel_val": 2000,
      "base_duration_us": 375000
    },
    {
      "id": "M_1605",
      "pitch": 72,
      "t_note_us": 127500000,
      "t_trigger_us": 127364037,
      "is_ai": false,
      "track_id": 0,
      "velocity": 0,
      "is_motor": true,
      "motor_id": 0,
      "accel_val": 2000,
      "base_duration_us": 375000
    },
    {
      "id": "M_1609",
      "pitch": 69,
      "t_note_us": 127875000,
      "t_trigger_us": 127739037,
      "is_ai": false,
      "track_id": 0,
      "velocity": 0,
      "is_motor": true,
      "motor_id": 1,
      "accel_val": 2000,
      "base_duration_us": 187500
    },
    {
      "id": "M_1610",
      "pitch": 72,
      "t_note_us": 127875000,
      "t_trigger_us": 127739037,
      "is_ai": false,
      "track_id": 0,
      "velocity": 0,
      "is_motor": true,
      "motor_id": 0,
      "accel_val": 2000,
      "base_duration_us": 187500
    },
    {
      "id": "M_1611",
      "pitch": 77,
      "t_note_us": 127875000,
      "t_trigger_us": 127739037,
      "is_ai": false,
      "track_id": 0,
      "velocity": 0,
      "is_motor": true,
      "motor_id": 2,
      "accel_val": 2000,
      "base_duration_us": 187500
    },
    {
      "id": "M_1612",
      "pitch": 53,
      "t_note_us": 127875000,
      "t_trigger_us": 127739037,
      "is_ai": false,
      "track_id": 0,
      "velocity": 0,
      "is_motor": true,
      "motor_id": 3,
      "accel_val": 2000,
      "base_duration_us": 187500
    },
    {
      "id": "M_1613",
      "pitch": 65,
      "t_note_us": 127875000,
      "t_trigger_us": 127739037,
      "is_ai": false,
      "track_id": 0,
      "velocity": 0,
      "is_motor": true,
      "motor_id": 0,
      "accel_val": 2000,
      "base_duration_us": 187500
    },
    {
      "id": "M_1614",
      "pitch": 69,
      "t_note_us": 127875000,
      "t_trigger_us": 127739037,
      "is_ai": false,
      "track_id": 0,
      "velocity": 0,
      "is_motor": true,
      "motor_id": 0,
      "accel_val": 2000,
      "base_duration_us": 375000
    },
    {
      "id": "M_1615",
      "pitch": 69,
      "t_note_us": 128250000,
      "t_trigger_us": 128114037,
      "is_ai": false,
      "track_id": 0,
      "velocity": 0,
      "is_motor": true,
      "motor_id": 1,
      "accel_val": 2000,
      "base_duration_us": 187500
    },
    {
      "id": "M_1616",
      "pitch": 72,
      "t_note_us": 128250000,
      "t_trigger_us": 128114037,
      "is_ai": false,
      "track_id": 0,
      "velocity": 0,
      "is_motor": true,
      "motor_id": 0,
      "accel_val": 2000,
      "base_duration_us": 187500
    },
    {
      "id": "M_1617",
      "pitch": 77,
      "t_note_us": 128250000,
      "t_trigger_us": 128114037,
      "is_ai": false,
      "track_id": 0,
      "velocity": 0,
      "is_motor": true,
      "motor_id": 2,
      "accel_val": 2000,
      "base_duration_us": 187500
    },
    {
      "id": "M_1622",
      "pitch": 53,
      "t_note_us": 128250000,
      "t_trigger_us": 128114037,
      "is_ai": false,
      "track_id": 0,
      "velocity": 0,
      "is_motor": true,
      "motor_id": 3,
      "accel_val": 2000,
      "base_duration_us": 750000
    },
    {
      "id": "M_1623",
      "pitch": 60,
      "t_note_us": 128250000,
      "t_trigger_us": 128114037,
      "is_ai": false,
      "track_id": 0,
      "velocity": 0,
      "is_motor": true,
      "motor_id": 0,
      "accel_val": 2000,
      "base_duration_us": 750000
    },
    {
      "id": "M_1624",
      "pitch": 65,
      "t_note_us": 128250000,
      "t_trigger_us": 128114037,
      "is_ai": false,
      "track_id": 0,
      "velocity": 0,
      "is_motor": true,
      "motor_id": 0,
      "accel_val": 2000,
      "base_duration_us": 750000
    },
    {
      "id": "M_1618",
      "pitch": 74,
      "t_note_us": 128625000,
      "t_trigger_us": 128489037,
      "is_ai": false,
      "track_id": 0,
      "velocity": 0,
      "is_motor": true,
      "motor_id": 1,
      "accel_val": 2000,
      "base_duration_us": 187500
    },
    {
      "id": "M_1619",
      "pitch": 69,
      "t_note_us": 128625000,
      "t_trigger_us": 128489037,
      "is_ai": false,
      "track_id": 0,
      "velocity": 0,
      "is_motor": true,
      "motor_id": 2,
      "accel_val": 2000,
      "base_duration_us": 187500
    },
    {
      "id": "M_1620",
      "pitch": 74,
      "t_note_us": 128812500,
      "t_trigger_us": 128676537,
      "is_ai": false,
      "track_id": 0,
      "velocity": 0,
      "is_motor": true,
      "motor_id": 1,
      "accel_val": 2000,
      "base_duration_us": 187500
    },
    {
      "id": "M_1621",
      "pitch": 69,
      "t_note_us": 128812500,
      "t_trigger_us": 128676537,
      "is_ai": false,
      "track_id": 0,
      "velocity": 0,
      "is_motor": true,
      "motor_id": 2,
      "accel_val": 2000,
      "base_duration_us": 187500
    },
    {
      "id": "M_1627",
      "pitch": 69,
      "t_note_us": 129000000,
      "t_trigger_us": 128864037,
      "is_ai": false,
      "track_id": 0,
      "velocity": 0,
      "is_motor": true,
      "motor_id": 1,
      "accel_val": 2000,
      "base_duration_us": 375000
    },
    {
      "id": "M_1625",
      "pitch": 74,
      "t_note_us": 129187500,
      "t_trigger_us": 129051537,
      "is_ai": false,
      "track_id": 0,
      "velocity": 0,
      "is_motor": true,
      "motor_id": 0,
      "accel_val": 2000,
      "base_duration_us": 187500
    },
    {
      "id": "M_1626",
      "pitch": 69,
      "t_note_us": 129187500,
      "t_trigger_us": 129051537,
      "is_ai": false,
      "track_id": 0,
      "velocity": 0,
      "is_motor": true,
      "motor_id": 2,
      "accel_val": 2000,
      "base_duration_us": 187500
    },
    {
      "id": "M_1628",
      "pitch": 71,
      "t_note_us": 129375000,
      "t_trigger_us": 129239037,
      "is_ai": false,
      "track_id": 0,
      "velocity": 0,
      "is_motor": true,
      "motor_id": 1,
      "accel_val": 2000,
      "base_duration_us": 187500
    },
    {
      "id": "M_1629",
      "pitch": 74,
      "t_note_us": 129375000,
      "t_trigger_us": 129239037,
      "is_ai": false,
      "track_id": 0,
      "velocity": 0,
      "is_motor": true,
      "motor_id": 0,
      "accel_val": 2000,
      "base_duration_us": 187500
    },
    {
      "id": "M_1630",
      "pitch": 55,
      "t_note_us": 129375000,
      "t_trigger_us": 129239037,
      "is_ai": false,
      "track_id": 0,
      "velocity": 0,
      "is_motor": true,
      "motor_id": 2,
      "accel_val": 2000,
      "base_duration_us": 187500
    },
    {
      "id": "M_1631",
      "pitch": 67,
      "t_note_us": 129375000,
      "t_trigger_us": 129239037,
      "is_ai": false,
      "track_id": 0,
      "velocity": 0,
      "is_motor": true,
      "motor_id": 3,
      "accel_val": 2000,
      "base_duration_us": 187500
    },
    {
      "id": "M_1632",
      "pitch": 67,
      "t_note_us": 129375000,
      "t_trigger_us": 129239037,
      "is_ai": false,
      "track_id": 0,
      "velocity": 0,
      "is_motor": true,
      "motor_id": 0,
      "accel_val": 2000,
      "base_duration_us": 375000
    },
    {
      "id": "M_1633",
      "pitch": 71,
      "t_note_us": 129750000,
      "t_trigger_us": 129614037,
      "is_ai": false,
      "track_id": 0,
      "velocity": 0,
      "is_motor": true,
      "motor_id": 1,
      "accel_val": 2000,
      "base_duration_us": 187500
    },
    {
      "id": "M_1634",
      "pitch": 74,
      "t_note_us": 129750000,
      "t_trigger_us": 129614037,
      "is_ai": false,
      "track_id": 0,
      "velocity": 0,
      "is_motor": true,
      "motor_id": 0,
      "accel_val": 2000,
      "base_duration_us": 187500
    },
    {
      "id": "M_1635",
      "pitch": 69,
      "t_note_us": 129750000,
      "t_trigger_us": 129614037,
      "is_ai": false,
      "track_id": 0,
      "velocity": 0,
      "is_motor": true,
      "motor_id": 2,
      "accel_val": 2000,
      "base_duration_us": 375000
    },
    {
      "id": "M_1638",
      "pitch": 55,
      "t_note_us": 129750000,
      "t_trigger_us": 129614037,
      "is_ai": false,
      "track_id": 0,
      "velocity": 0,
      "is_motor": true,
      "motor_id": 3,
      "accel_val": 2000,
      "base_duration_us": 750000
    },
    {
      "id": "M_1639",
      "pitch": 62,
      "t_note_us": 129750000,
      "t_trigger_us": 129614037,
      "is_ai": false,
      "track_id": 0,
      "velocity": 0,
      "is_motor": true,
      "motor_id": 0,
      "accel_val": 2000,
      "base_duration_us": 750000
    },
    {
      "id": "M_1640",
      "pitch": 67,
      "t_note_us": 129750000,
      "t_trigger_us": 129614037,
      "is_ai": false,
      "track_id": 0,
      "velocity": 0,
      "is_motor": true,
      "motor_id": 0,
      "accel_val": 2000,
      "base_duration_us": 750000
    },
    {
      "id": "M_1636",
      "pitch": 98,
      "t_note_us": 130125000,
      "t_trigger_us": 129989037,
      "is_ai": true,
      "track_id": 11,
      "velocity": 0,
      "is_motor": false,
      "motor_id": 0,
      "accel_val": 2000,
      "base_duration_us": 375000
    },
    {
      "id": "M_1637",
      "pitch": 67,
      "t_note_us": 130125000,
      "t_trigger_us": 129989037,
      "is_ai": false,
      "track_id": 0,
      "velocity": 0,
      "is_motor": true,
      "motor_id": 1,
      "accel_val": 2000,
      "base_duration_us": 375000
    },
    {
      "id": "M_1641",
      "pitch": 69,
      "t_note_us": 130500000,
      "t_trigger_us": 130364037,
      "is_ai": false,
      "track_id": 0,
      "velocity": 0,
      "is_motor": true,
      "motor_id": 1,
      "accel_val": 2000,
      "base_duration_us": 187500
    },
    {
      "id": "M_1642",
      "pitch": 67,
      "t_note_us": 130875000,
      "t_trigger_us": 130739037,
      "is_ai": false,
      "track_id": 0,
      "velocity": 0,
      "is_motor": true,
      "motor_id": 1,
      "accel_val": 2000,
      "base_duration_us": 187500
    },
    {
      "id": "M_1643",
      "pitch": 72,
      "t_note_us": 130875000,
      "t_trigger_us": 130739037,
      "is_ai": false,
      "track_id": 0,
      "velocity": 0,
      "is_motor": true,
      "motor_id": 0,
      "accel_val": 2000,
      "base_duration_us": 187500
    },
    {
      "id": "M_1644",
      "pitch": 50,
      "t_note_us": 130875000,
      "t_trigger_us": 130739037,
      "is_ai": false,
      "track_id": 0,
      "velocity": 0,
      "is_motor": true,
      "motor_id": 2,
      "accel_val": 2000,
      "base_duration_us": 187500
    },
    {
      "id": "M_1649",
      "pitch": 72,
      "t_note_us": 130875000,
      "t_trigger_us": 130739037,
      "is_ai": false,
      "track_id": 0,
      "velocity": 0,
      "is_motor": true,
      "motor_id": 3,
      "accel_val": 2000,
      "base_duration_us": 750000
    },
    {
      "id": "M_1645",
      "pitch": 69,
      "t_note_us": 131062500,
      "t_trigger_us": 130926537,
      "is_ai": false,
      "track_id": 0,
      "velocity": 0,
      "is_motor": true,
      "motor_id": 1,
      "accel_val": 2000,
      "base_duration_us": 187500
    },
    {
      "id": "M_1646",
      "pitch": 62,
      "t_note_us": 131062500,
      "t_trigger_us": 130926537,
      "is_ai": false,
      "track_id": 0,
      "velocity": 0,
      "is_motor": true,
      "motor_id": 0,
      "accel_val": 2000,
      "base_duration_us": 187500
    },
    {
      "id": "M_1647",
      "pitch": 69,
      "t_note_us": 131250000,
      "t_trigger_us": 131114037,
      "is_ai": false,
      "track_id": 0,
      "velocity": 0,
      "is_motor": true,
      "motor_id": 1,
      "accel_val": 2000,
      "base_duration_us": 187500
    },
    {
      "id": "M_1648",
      "pitch": 50,
      "t_note_us": 131250000,
      "t_trigger_us": 131114037,
      "is_ai": false,
      "track_id": 0,
      "velocity": 0,
      "is_motor": true,
      "motor_id": 0,
      "accel_val": 2000,
      "base_duration_us": 187500
    },
    {
      "id": "M_1650",
      "pitch": 62,
      "t_note_us": 131437500,
      "t_trigger_us": 131301537,
      "is_ai": false,
      "track_id": 0,
      "velocity": 0,
      "is_motor": true,
      "motor_id": 1,
      "accel_val": 2000,
      "base_duration_us": 187500
    },
    {
      "id": "M_1651",
      "pitch": 76,
      "t_note_us": 131437500,
      "t_trigger_us": 131301537,
      "is_ai": false,
      "track_id": 0,
      "velocity": 0,
      "is_motor": true,
      "motor_id": 2,
      "accel_val": 2000,
      "base_duration_us": 375000
    },
    {
      "id": "M_1652",
      "pitch": 67,
      "t_note_us": 131437500,
      "t_trigger_us": 131301537,
      "is_ai": false,
      "track_id": 0,
      "velocity": 0,
      "is_motor": true,
      "motor_id": 0,
      "accel_val": 2000,
      "base_duration_us": 375000
    },
    {
      "id": "M_1653",
      "pitch": 52,
      "t_note_us": 131625000,
      "t_trigger_us": 131489037,
      "is_ai": false,
      "track_id": 0,
      "velocity": 0,
      "is_motor": true,
      "motor_id": 1,
      "accel_val": 2000,
      "base_duration_us": 187500
    },
    {
      "id": "M_1656",
      "pitch": 74,
      "t_note_us": 131625000,
      "t_trigger_us": 131489037,
      "is_ai": false,
      "track_id": 0,
      "velocity": 0,
      "is_motor": true,
      "motor_id": 3,
      "accel_val": 2000,
      "base_duration_us": 562500
    },
    {
      "id": "M_1654",
      "pitch": 64,
      "t_note_us": 131812500,
      "t_trigger_us": 131676537,
      "is_ai": false,
      "track_id": 0,
      "velocity": 0,
      "is_motor": true,
      "motor_id": 1,
      "accel_val": 2000,
      "base_duration_us": 187500
    },
    {
      "id": "M_1655",
      "pitch": 76,
      "t_note_us": 131812500,
      "t_trigger_us": 131676537,
      "is_ai": false,
      "track_id": 0,
      "velocity": 0,
      "is_motor": true,
      "motor_id": 2,
      "accel_val": 2000,
      "base_duration_us": 375000
    },
    {
      "id": "M_1657",
      "pitch": 52,
      "t_note_us": 132000000,
      "t_trigger_us": 131864037,
      "is_ai": false,
      "track_id": 0,
      "velocity": 0,
      "is_motor": true,
      "motor_id": 0,
      "accel_val": 2000,
      "base_duration_us": 187500
    },
    {
      "id": "M_1658",
      "pitch": 75,
      "t_note_us": 132187500,
      "t_trigger_us": 132051537,
      "is_ai": false,
      "track_id": 0,
      "velocity": 0,
      "is_motor": true,
      "motor_id": 2,
      "accel_val": 2000,
      "base_duration_us": 187500
    },
    {
      "id": "M_1659",
      "pitch": 64,
      "t_note_us": 132187500,
      "t_trigger_us": 132051537,
      "is_ai": false,
      "track_id": 0,
      "velocity": 0,
      "is_motor": true,
      "motor_id": 1,
      "accel_val": 2000,
      "base_duration_us": 187500
    },
    {
      "id": "M_1661",
      "pitch": 67,
      "t_note_us": 132187500,
      "t_trigger_us": 132051537,
      "is_ai": false,
      "track_id": 0,
      "velocity": 0,
      "is_motor": true,
      "motor_id": 0,
      "accel_val": 2000,
      "base_duration_us": 375000
    },
    {
      "id": "M_1660",
      "pitch": 74,
      "t_note_us": 132375000,
      "t_trigger_us": 132239037,
      "is_ai": false,
      "track_id": 0,
      "velocity": 0,
      "is_motor": true,
      "motor_id": 1,
      "accel_val": 2000,
      "base_duration_us": 187500
    },
    {
      "id": "M_1662",
      "pitch": 57,
      "t_note_us": 132375000,
      "t_trigger_us": 132239037,
      "is_ai": false,
      "track_id": 0,
      "velocity": 0,
      "is_motor": true,
      "motor_id": 2,
      "accel_val": 2000,
      "base_duration_us": 187500
    },
    {
      "id": "M_1663",
      "pitch": 72,
      "t_note_us": 132562500,
      "t_trigger_us": 132426537,
      "is_ai": false,
      "track_id": 0,
      "velocity": 0,
      "is_motor": true,
      "motor_id": 1,
      "accel_val": 2000,
      "base_duration_us": 187500
    },
    {
      "id": "M_1664",
      "pitch": 69,
      "t_note_us": 132562500,
      "t_trigger_us": 132426537,
      "is_ai": false,
      "track_id": 0,
      "velocity": 0,
      "is_motor": true,
      "motor_id": 2,
      "accel_val": 2000,
      "base_duration_us": 187500
    },
    {
      "id": "M_1665",
      "pitch": 69,
      "t_note_us": 132562500,
      "t_trigger_us": 132426537,
      "is_ai": false,
      "track_id": 0,
      "velocity": 0,
      "is_motor": true,
      "motor_id": 0,
      "accel_val": 2000,
      "base_duration_us": 187500
    },
    {
      "id": "M_1666",
      "pitch": 69,
      "t_note_us": 132750000,
      "t_trigger_us": 132614037,
      "is_ai": false,
      "track_id": 0,
      "velocity": 0,
      "is_motor": true,
      "motor_id": 1,
      "accel_val": 2000,
      "base_duration_us": 187500
    },
    {
      "id": "M_1667",
      "pitch": 76,
      "t_note_us": 132750000,
      "t_trigger_us": 132614037,
      "is_ai": false,
      "track_id": 0,
      "velocity": 0,
      "is_motor": true,
      "motor_id": 2,
      "accel_val": 2000,
      "base_duration_us": 187500
    },
    {
      "id": "M_1668",
      "pitch": 69,
      "t_note_us": 132750000,
      "t_trigger_us": 132614037,
      "is_ai": false,
      "track_id": 0,
      "velocity": 0,
      "is_motor": true,
      "motor_id": 0,
      "accel_val": 2000,
      "base_duration_us": 187500
    },
    {
      "id": "M_1669",
      "pitch": 57,
      "t_note_us": 132750000,
      "t_trigger_us": 132614037,
      "is_ai": false,
      "track_id": 0,
      "velocity": 0,
      "is_motor": true,
      "motor_id": 3,
      "accel_val": 2000,
      "base_duration_us": 187500
    },
    {
      "id": "M_1670",
      "pitch": 67,
      "t_note_us": 132937500,
      "t_trigger_us": 132801537,
      "is_ai": false,
      "track_id": 0,
      "velocity": 0,
      "is_motor": true,
      "motor_id": 1,
      "accel_val": 2000,
      "base_duration_us": 187500
    },
    {
      "id": "M_1671",
      "pitch": 67,
      "t_note_us": 132937500,
      "t_trigger_us": 132801537,
      "is_ai": false,
      "track_id": 0,
      "velocity": 0,
      "is_motor": true,
      "motor_id": 2,
      "accel_val": 2000,
      "base_duration_us": 187500
    },
    {
      "id": "M_1672",
      "pitch": 69,
      "t_note_us": 132937500,
      "t_trigger_us": 132801537,
      "is_ai": false,
      "track_id": 0,
      "velocity": 0,
      "is_motor": true,
      "motor_id": 0,
      "accel_val": 2000,
      "base_duration_us": 187500
    },
    {
      "id": "M_1673",
      "pitch": 55,
      "t_note_us": 133125000,
      "t_trigger_us": 132989037,
      "is_ai": false,
      "track_id": 0,
      "velocity": 0,
      "is_motor": true,
      "motor_id": 0,
      "accel_val": 2000,
      "base_duration_us": 187500
    },
    {
      "id": "M_1674",
      "pitch": 69,
      "t_note_us": 133125000,
      "t_trigger_us": 132989037,
      "is_ai": false,
      "track_id": 0,
      "velocity": 0,
      "is_motor": true,
      "motor_id": 1,
      "accel_val": 2000,
      "base_duration_us": 375000
    },
    {
      "id": "M_1675",
      "pitch": 76,
      "t_note_us": 133125000,
      "t_trigger_us": 132989037,
      "is_ai": false,
      "track_id": 0,
      "velocity": 0,
      "is_motor": true,
      "motor_id": 2,
      "accel_val": 2000,
      "base_duration_us": 375000
    },
    {
      "id": "M_1676",
      "pitch": 69,
      "t_note_us": 133125000,
      "t_trigger_us": 132989037,
      "is_ai": false,
      "track_id": 0,
      "velocity": 0,
      "is_motor": true,
      "motor_id": 3,
      "accel_val": 2000,
      "base_duration_us": 375000
    },
    {
      "id": "M_1677",
      "pitch": 67,
      "t_note_us": 133312500,
      "t_trigger_us": 133176537,
      "is_ai": false,
      "track_id": 0,
      "velocity": 0,
      "is_motor": true,
      "motor_id": 0,
      "accel_val": 2000,
      "base_duration_us": 187500
    },
    {
      "id": "M_1678",
      "pitch": 74,
      "t_note_us": 133500000,
      "t_trigger_us": 133364037,
      "is_ai": false,
      "track_id": 0,
      "velocity": 0,
      "is_motor": true,
      "motor_id": 1,
      "accel_val": 2000,
      "base_duration_us": 187500
    },
    {
      "id": "M_1679",
      "pitch": 67,
      "t_note_us": 133500000,
      "t_trigger_us": 133364037,
      "is_ai": false,
      "track_id": 0,
      "velocity": 0,
      "is_motor": true,
      "motor_id": 2,
      "accel_val": 2000,
      "base_duration_us": 187500
    },
    {
      "id": "M_1680",
      "pitch": 55,
      "t_note_us": 133500000,
      "t_trigger_us": 133364037,
      "is_ai": false,
      "track_id": 0,
      "velocity": 0,
      "is_motor": true,
      "motor_id": 0,
      "accel_val": 2000,
      "base_duration_us": 187500
    },
    {
      "id": "M_1681",
      "pitch": 76,
      "t_note_us": 133687500,
      "t_trigger_us": 133551537,
      "is_ai": false,
      "track_id": 0,
      "velocity": 0,
      "is_motor": true,
      "motor_id": 2,
      "accel_val": 2000,
      "base_duration_us": 187500
    },
    {
      "id": "M_1682",
      "pitch": 67,
      "t_note_us": 133687500,
      "t_trigger_us": 133551537,
      "is_ai": false,
      "track_id": 0,
      "velocity": 0,
      "is_motor": true,
      "motor_id": 1,
      "accel_val": 2000,
      "base_duration_us": 187500
    },
    {
      "id": "M_1683",
      "pitch": 77,
      "t_note_us": 133875000,
      "t_trigger_us": 133739037,
      "is_ai": false,
      "track_id": 0,
      "velocity": 0,
      "is_motor": true,
      "motor_id": 2,
      "accel_val": 2000,
      "base_duration_us": 187500
    },
    {
      "id": "M_1684",
      "pitch": 69,
      "t_note_us": 133875000,
      "t_trigger_us": 133739037,
      "is_ai": false,
      "track_id": 0,
      "velocity": 0,
      "is_motor": true,
      "motor_id": 1,
      "accel_val": 2000,
      "base_duration_us": 187500
    },
    {
      "id": "M_1685",
      "pitch": 77,
      "t_note_us": 133875000,
      "t_trigger_us": 133739037,
      "is_ai": false,
      "track_id": 0,
      "velocity": 0,
      "is_motor": true,
      "motor_id": 3,
      "accel_val": 2000,
      "base_duration_us": 187500
    },
    {
      "id": "M_1686",
      "pitch": 53,
      "t_note_us": 133875000,
      "t_trigger_us": 133739037,
      "is_ai": false,
      "track_id": 0,
      "velocity": 0,
      "is_motor": true,
      "motor_id": 0,
      "accel_val": 2000,
      "base_duration_us": 187500
    },
    {
      "id": "M_1687",
      "pitch": 65,
      "t_note_us": 133875000,
      "t_trigger_us": 133739037,
      "is_ai": false,
      "track_id": 0,
      "velocity": 0,
      "is_motor": true,
      "motor_id": 0,
      "accel_val": 2000,
      "base_duration_us": 187500
    },
    {
      "id": "M_1688",
      "pitch": 74,
      "t_note_us": 133875000,
      "t_trigger_us": 133739037,
      "is_ai": false,
      "track_id": 0,
      "velocity": 0,
      "is_motor": true,
      "motor_id": 0,
      "accel_val": 2000,
      "base_duration_us": 375000
    },
    {
      "id": "M_1689",
      "pitch": 77,
      "t_note_us": 134250000,
      "t_trigger_us": 134114037,
      "is_ai": false,
      "track_id": 0,
      "velocity": 0,
      "is_motor": true,
      "motor_id": 2,
      "accel_val": 2000,
      "base_duration_us": 187500
    },
    {
      "id": "M_1690",
      "pitch": 69,
      "t_note_us": 134250000,
      "t_trigger_us": 134114037,
      "is_ai": false,
      "track_id": 0,
      "velocity": 0,
      "is_motor": true,
      "motor_id": 1,
      "accel_val": 2000,
      "base_duration_us": 187500
    },
    {
      "id": "M_1691",
      "pitch": 77,
      "t_note_us": 134250000,
      "t_trigger_us": 134114037,
      "is_ai": false,
      "track_id": 0,
      "velocity": 0,
      "is_motor": true,
      "motor_id": 3,
      "accel_val": 2000,
      "base_duration_us": 187500
    },
    {
      "id": "M_1696",
      "pitch": 53,
      "t_note_us": 134250000,
      "t_trigger_us": 134114037,
      "is_ai": false,
      "track_id": 0,
      "velocity": 0,
      "is_motor": true,
      "motor_id": 0,
      "accel_val": 2000,
      "base_duration_us": 750000
    },
    {
      "id": "M_1697",
      "pitch": 60,
      "t_note_us": 134250000,
      "t_trigger_us": 134114037,
      "is_ai": false,
      "track_id": 0,
      "velocity": 0,
      "is_motor": true,
      "motor_id": 0,
      "accel_val": 2000,
      "base_duration_us": 750000
    },
    {
      "id": "M_1698",
      "pitch": 65,
      "t_note_us": 134250000,
      "t_trigger_us": 134114037,
      "is_ai": false,
      "track_id": 0,
      "velocity": 0,
      "is_motor": true,
      "motor_id": 0,
      "accel_val": 2000,
      "base_duration_us": 750000
    },
    {
      "id": "M_1692",
      "pitch": 74,
      "t_note_us": 134625000,
      "t_trigger_us": 134489037,
      "is_ai": false,
      "track_id": 0,
      "velocity": 0,
      "is_motor": true,
      "motor_id": 1,
      "accel_val": 2000,
      "base_duration_us": 187500
    },
    {
      "id": "M_1693",
      "pitch": 69,
      "t_note_us": 134625000,
      "t_trigger_us": 134489037,
      "is_ai": false,
      "track_id": 0,
      "velocity": 0,
      "is_motor": true,
      "motor_id": 2,
      "accel_val": 2000,
      "base_duration_us": 187500
    },
    {
      "id": "M_1694",
      "pitch": 74,
      "t_note_us": 134812500,
      "t_trigger_us": 134676537,
      "is_ai": false,
      "track_id": 0,
      "velocity": 0,
      "is_motor": true,
      "motor_id": 1,
      "accel_val": 2000,
      "base_duration_us": 187500
    },
    {
      "id": "M_1695",
      "pitch": 69,
      "t_note_us": 134812500,
      "t_trigger_us": 134676537,
      "is_ai": false,
      "track_id": 0,
      "velocity": 0,
      "is_motor": true,
      "motor_id": 2,
      "accel_val": 2000,
      "base_duration_us": 187500
    },
    {
      "id": "M_1701",
      "pitch": 69,
      "t_note_us": 135000000,
      "t_trigger_us": 134864037,
      "is_ai": false,
      "track_id": 0,
      "velocity": 0,
      "is_motor": true,
      "motor_id": 1,
      "accel_val": 2000,
      "base_duration_us": 375000
    },
    {
      "id": "M_1699",
      "pitch": 74,
      "t_note_us": 135187500,
      "t_trigger_us": 135051537,
      "is_ai": false,
      "track_id": 0,
      "velocity": 0,
      "is_motor": true,
      "motor_id": 0,
      "accel_val": 2000,
      "base_duration_us": 187500
    },
    {
      "id": "M_1700",
      "pitch": 69,
      "t_note_us": 135187500,
      "t_trigger_us": 135051537,
      "is_ai": false,
      "track_id": 0,
      "velocity": 0,
      "is_motor": true,
      "motor_id": 2,
      "accel_val": 2000,
      "base_duration_us": 187500
    },
    {
      "id": "M_1702",
      "pitch": 71,
      "t_note_us": 135375000,
      "t_trigger_us": 135239037,
      "is_ai": false,
      "track_id": 0,
      "velocity": 0,
      "is_motor": true,
      "motor_id": 1,
      "accel_val": 2000,
      "base_duration_us": 187500
    },
    {
      "id": "M_1703",
      "pitch": 74,
      "t_note_us": 135375000,
      "t_trigger_us": 135239037,
      "is_ai": false,
      "track_id": 0,
      "velocity": 0,
      "is_motor": true,
      "motor_id": 0,
      "accel_val": 2000,
      "base_duration_us": 187500
    },
    {
      "id": "M_1704",
      "pitch": 55,
      "t_note_us": 135375000,
      "t_trigger_us": 135239037,
      "is_ai": false,
      "track_id": 0,
      "velocity": 0,
      "is_motor": true,
      "motor_id": 2,
      "accel_val": 2000,
      "base_duration_us": 187500
    },
    {
      "id": "M_1705",
      "pitch": 67,
      "t_note_us": 135375000,
      "t_trigger_us": 135239037,
      "is_ai": false,
      "track_id": 0,
      "velocity": 0,
      "is_motor": true,
      "motor_id": 3,
      "accel_val": 2000,
      "base_duration_us": 187500
    },
    {
      "id": "M_1706",
      "pitch": 67,
      "t_note_us": 135375000,
      "t_trigger_us": 135239037,
      "is_ai": false,
      "track_id": 0,
      "velocity": 0,
      "is_motor": true,
      "motor_id": 0,
      "accel_val": 2000,
      "base_duration_us": 375000
    },
    {
      "id": "M_1707",
      "pitch": 71,
      "t_note_us": 135750000,
      "t_trigger_us": 135614037,
      "is_ai": false,
      "track_id": 0,
      "velocity": 0,
      "is_motor": true,
      "motor_id": 1,
      "accel_val": 2000,
      "base_duration_us": 187500
    },
    {
      "id": "M_1708",
      "pitch": 74,
      "t_note_us": 135750000,
      "t_trigger_us": 135614037,
      "is_ai": false,
      "track_id": 0,
      "velocity": 0,
      "is_motor": true,
      "motor_id": 0,
      "accel_val": 2000,
      "base_duration_us": 187500
    },
    {
      "id": "M_1709",
      "pitch": 69,
      "t_note_us": 135750000,
      "t_trigger_us": 135614037,
      "is_ai": false,
      "track_id": 0,
      "velocity": 0,
      "is_motor": true,
      "motor_id": 2,
      "accel_val": 2000,
      "base_duration_us": 375000
    },
    {
      "id": "M_1713",
      "pitch": 55,
      "t_note_us": 135750000,
      "t_trigger_us": 135614037,
      "is_ai": false,
      "track_id": 0,
      "velocity": 0,
      "is_motor": true,
      "motor_id": 3,
      "accel_val": 2000,
      "base_duration_us": 750000
    },
    {
      "id": "M_1714",
      "pitch": 62,
      "t_note_us": 135750000,
      "t_trigger_us": 135614037,
      "is_ai": false,
      "track_id": 0,
      "velocity": 0,
      "is_motor": true,
      "motor_id": 0,
      "accel_val": 2000,
      "base_duration_us": 750000
    },
    {
      "id": "M_1715",
      "pitch": 67,
      "t_note_us": 135750000,
      "t_trigger_us": 135614037,
      "is_ai": false,
      "track_id": 0,
      "velocity": 0,
      "is_motor": true,
      "motor_id": 0,
      "accel_val": 2000,
      "base_duration_us": 750000
    },
    {
      "id": "M_1710",
      "pitch": 98,
      "t_note_us": 136125000,
      "t_trigger_us": 135989037,
      "is_ai": true,
      "track_id": 11,
      "velocity": 0,
      "is_motor": false,
      "motor_id": 0,
      "accel_val": 2000,
      "base_duration_us": 187500
    },
    {
      "id": "M_1711",
      "pitch": 67,
      "t_note_us": 136125000,
      "t_trigger_us": 135989037,
      "is_ai": false,
      "track_id": 0,
      "velocity": 0,
      "is_motor": true,
      "motor_id": 1,
      "accel_val": 2000,
      "base_duration_us": 187500
    },
    {
      "id": "M_1712",
      "pitch": 69,
      "t_note_us": 136312500,
      "t_trigger_us": 136176537,
      "is_ai": false,
      "track_id": 0,
      "velocity": 0,
      "is_motor": true,
      "motor_id": 1,
      "accel_val": 2000,
      "base_duration_us": 187500
    },
    {
      "id": "M_1716",
      "pitch": 72,
      "t_note_us": 136500000,
      "t_trigger_us": 136364037,
      "is_ai": false,
      "track_id": 0,
      "velocity": 0,
      "is_motor": true,
      "motor_id": 1,
      "accel_val": 2000,
      "base_duration_us": 375000
    },
    {
      "id": "M_1717",
      "pitch": 76,
      "t_note_us": 136500000,
      "t_trigger_us": 136364037,
      "is_ai": false,
      "track_id": 0,
      "velocity": 0,
      "is_motor": true,
      "motor_id": 2,
      "accel_val": 2000,
      "base_duration_us": 375000
    },
    {
      "id": "M_1718",
      "pitch": 69,
      "t_note_us": 136500000,
      "t_trigger_us": 136364037,
      "is_ai": false,
      "track_id": 0,
      "velocity": 0,
      "is_motor": true,
      "motor_id": 0,
      "accel_val": 2000,
      "base_duration_us": 375000
    },
    {
      "id": "M_1719",
      "pitch": 50,
      "t_note_us": 136875000,
      "t_trigger_us": 136739037,
      "is_ai": false,
      "track_id": 0,
      "velocity": 0,
      "is_motor": true,
      "motor_id": 0,
      "accel_val": 2000,
      "base_duration_us": 187500
    },
    {
      "id": "M_1720",
      "pitch": 72,
      "t_note_us": 136875000,
      "t_trigger_us": 136739037,
      "is_ai": false,
      "track_id": 0,
      "velocity": 0,
      "is_motor": true,
      "motor_id": 1,
      "accel_val": 2000,
      "base_duration_us": 375000
    },
    {
      "id": "M_1724",
      "pitch": 72,
      "t_note_us": 136875000,
      "t_trigger_us": 136739037,
      "is_ai": false,
      "track_id": 0,
      "velocity": 0,
      "is_motor": true,
      "motor_id": 2,
      "accel_val": 2000,
      "base_duration_us": 750000
    },
    {
      "id": "M_1725",
      "pitch": 76,
      "t_note_us": 136875000,
      "t_trigger_us": 136739037,
      "is_ai": false,
      "track_id": 0,
      "velocity": 0,
      "is_motor": true,
      "motor_id": 3,
      "accel_val": 2000,
      "base_duration_us": 750000
    },
    {
      "id": "M_1721",
      "pitch": 62,
      "t_note_us": 137062500,
      "t_trigger_us": 136926537,
      "is_ai": false,
      "track_id": 0,
      "velocity": 0,
      "is_motor": true,
      "motor_id": 0,
      "accel_val": 2000,
      "base_duration_us": 187500
    },
    {
      "id": "M_1722",
      "pitch": 50,
      "t_note_us": 137250000,
      "t_trigger_us": 137114037,
      "is_ai": false,
      "track_id": 0,
      "velocity": 0,
      "is_motor": true,
      "motor_id": 0,
      "accel_val": 2000,
      "base_duration_us": 187500
    },
    {
      "id": "M_1723",
      "pitch": 69,
      "t_note_us": 137250000,
      "t_trigger_us": 137114037,
      "is_ai": false,
      "track_id": 0,
      "velocity": 0,
      "is_motor": true,
      "motor_id": 1,
      "accel_val": 2000,
      "base_duration_us": 375000
    },
    {
      "id": "M_1726",
      "pitch": 62,
      "t_note_us": 137437500,
      "t_trigger_us": 137301537,
      "is_ai": false,
      "track_id": 0,
      "velocity": 0,
      "is_motor": true,
      "motor_id": 0,
      "accel_val": 2000,
      "base_duration_us": 187500
    },
    {
      "id": "M_1727",
      "pitch": 52,
      "t_note_us": 137625000,
      "t_trigger_us": 137489037,
      "is_ai": false,
      "track_id": 0,
      "velocity": 0,
      "is_motor": true,
      "motor_id": 0,
      "accel_val": 2000,
      "base_duration_us": 187500
    },
    {
      "id": "M_1728",
      "pitch": 75,
      "t_note_us": 137625000,
      "t_trigger_us": 137489037,
      "is_ai": false,
      "track_id": 0,
      "velocity": 0,
      "is_motor": true,
      "motor_id": 2,
      "accel_val": 2000,
      "base_duration_us": 375000
    },
    {
      "id": "M_1732",
      "pitch": 76,
      "t_note_us": 137625000,
      "t_trigger_us": 137489037,
      "is_ai": false,
      "track_id": 0,
      "velocity": 0,
      "is_motor": true,
      "motor_id": 1,
      "accel_val": 2000,
      "base_duration_us": 750000
    },
    {
      "id": "M_1733",
      "pitch": 67,
      "t_note_us": 137625000,
      "t_trigger_us": 137489037,
      "is_ai": false,
      "track_id": 0,
      "velocity": 0,
      "is_motor": true,
      "motor_id": 3,
      "accel_val": 2000,
      "base_duration_us": 750000
    },
    {
      "id": "M_1729",
      "pitch": 64,
      "t_note_us": 137812500,
      "t_trigger_us": 137676537,
      "is_ai": false,
      "track_id": 0,
      "velocity": 0,
      "is_motor": true,
      "motor_id": 0,
      "accel_val": 2000,
      "base_duration_us": 187500
    },
    {
      "id": "M_1730",
      "pitch": 52,
      "t_note_us": 138000000,
      "t_trigger_us": 137864037,
      "is_ai": false,
      "track_id": 0,
      "velocity": 0,
      "is_motor": true,
      "motor_id": 0,
      "accel_val": 2000,
      "base_duration_us": 187500
    },
    {
      "id": "M_1731",
      "pitch": 74,
      "t_note_us": 138000000,
      "t_trigger_us": 137864037,
      "is_ai": false,
      "track_id": 0,
      "velocity": 0,
      "is_motor": true,
      "motor_id": 2,
      "accel_val": 2000,
      "base_duration_us": 375000
    },
    {
      "id": "M_1734",
      "pitch": 64,
      "t_note_us": 138187500,
      "t_trigger_us": 138051537,
      "is_ai": false,
      "track_id": 0,
      "velocity": 0,
      "is_motor": true,
      "motor_id": 0,
      "accel_val": 2000,
      "base_duration_us": 187500
    },
    {
      "id": "M_1737",
      "pitch": 96,
      "t_note_us": 138375000,
      "t_trigger_us": 138239037,
      "is_ai": true,
      "track_id": 10,
      "velocity": 0,
      "is_motor": false,
      "motor_id": 0,
      "accel_val": 2000,
      "base_duration_us": 375000
    },
    {
      "id": "M_1735",
      "pitch": 53,
      "t_note_us": 138375000,
      "t_trigger_us": 138239037,
      "is_ai": false,
      "track_id": 0,
      "velocity": 0,
      "is_motor": true,
      "motor_id": 0,
      "accel_val": 2000,
      "base_duration_us": 187500
    },
    {
      "id": "M_1736",
      "pitch": 65,
      "t_note_us": 138375000,
      "t_trigger_us": 138239037,
      "is_ai": false,
      "track_id": 0,
      "velocity": 0,
      "is_motor": true,
      "motor_id": 1,
      "accel_val": 2000,
      "base_duration_us": 187500
    },
    {
      "id": "M_1743",
      "pitch": 72,
      "t_note_us": 138375000,
      "t_trigger_us": 138239037,
      "is_ai": false,
      "track_id": 0,
      "velocity": 0,
      "is_motor": true,
      "motor_id": 2,
      "accel_val": 2000,
      "base_duration_us": 750000
    },
    {
      "id": "M_1744",
      "pitch": 76,
      "t_note_us": 138375000,
      "t_trigger_us": 138239037,
      "is_ai": false,
      "track_id": 0,
      "velocity": 0,
      "is_motor": true,
      "motor_id": 3,
      "accel_val": 2000,
      "base_duration_us": 750000
    },
    {
      "id": "M_1738",
      "pitch": 57,
      "t_note_us": 138562500,
      "t_trigger_us": 138426537,
      "is_ai": false,
      "track_id": 0,
      "velocity": 0,
      "is_motor": true,
      "motor_id": 0,
      "accel_val": 2000,
      "base_duration_us": 187500
    },
    {
      "id": "M_1739",
      "pitch": 69,
      "t_note_us": 138562500,
      "t_trigger_us": 138426537,
      "is_ai": false,
      "track_id": 0,
      "velocity": 0,
      "is_motor": true,
      "motor_id": 1,
      "accel_val": 2000,
      "base_duration_us": 187500
    },
    {
      "id": "M_1740",
      "pitch": 59,
      "t_note_us": 138750000,
      "t_trigger_us": 138614037,
      "is_ai": false,
      "track_id": 0,
      "velocity": 0,
      "is_motor": true,
      "motor_id": 0,
      "accel_val": 2000,
      "base_duration_us": 187500
    },
    {
      "id": "M_1741",
      "pitch": 71,
      "t_note_us": 138750000,
      "t_trigger_us": 138614037,
      "is_ai": false,
      "track_id": 0,
      "velocity": 0,
      "is_motor": true,
      "motor_id": 1,
      "accel_val": 2000,
      "base_duration_us": 187500
    },
    {
      "id": "M_1742",
      "pitch": 69,
      "t_note_us": 138750000,
      "t_trigger_us": 138614037,
      "is_ai": false,
      "track_id": 0,
      "velocity": 0,
      "is_motor": true,
      "motor_id": 0,
      "accel_val": 2000,
      "base_duration_us": 375000
    },
    {
      "id": "M_1745",
      "pitch": 60,
      "t_note_us": 138937500,
      "t_trigger_us": 138801537,
      "is_ai": false,
      "track_id": 0,
      "velocity": 0,
      "is_motor": true,
      "motor_id": 1,
      "accel_val": 2000,
      "base_duration_us": 187500
    },
    {
      "id": "M_1746",
      "pitch": 72,
      "t_note_us": 138937500,
      "t_trigger_us": 138801537,
      "is_ai": false,
      "track_id": 0,
      "velocity": 0,
      "is_motor": true,
      "motor_id": 0,
      "accel_val": 2000,
      "base_duration_us": 187500
    },
    {
      "id": "M_1747",
      "pitch": 60,
      "t_note_us": 139125000,
      "t_trigger_us": 138989037,
      "is_ai": false,
      "track_id": 0,
      "velocity": 0,
      "is_motor": true,
      "motor_id": 1,
      "accel_val": 2000,
      "base_duration_us": 187500
    },
    {
      "id": "M_1748",
      "pitch": 72,
      "t_note_us": 139125000,
      "t_trigger_us": 138989037,
      "is_ai": false,
      "track_id": 0,
      "velocity": 0,
      "is_motor": true,
      "motor_id": 0,
      "accel_val": 2000,
      "base_duration_us": 187500
    },
    {
      "id": "M_1749",
      "pitch": 67,
      "t_note_us": 139125000,
      "t_trigger_us": 138989037,
      "is_ai": false,
      "track_id": 0,
      "velocity": 0,
      "is_motor": true,
      "motor_id": 2,
      "accel_val": 2000,
      "base_duration_us": 375000
    },
    {
      "id": "M_1750",
      "pitch": 62,
      "t_note_us": 139312500,
      "t_trigger_us": 139176537,
      "is_ai": false,
      "track_id": 0,
      "velocity": 0,
      "is_motor": true,
      "motor_id": 1,
      "accel_val": 2000,
      "base_duration_us": 187500
    },
    {
      "id": "M_1751",
      "pitch": 74,
      "t_note_us": 139312500,
      "t_trigger_us": 139176537,
      "is_ai": false,
      "track_id": 0,
      "velocity": 0,
      "is_motor": true,
      "motor_id": 0,
      "accel_val": 2000,
      "base_duration_us": 187500
    },
    {
      "id": "M_1752",
      "pitch": 76,
      "t_note_us": 139500000,
      "t_trigger_us": 139364037,
      "is_ai": false,
      "track_id": 0,
      "velocity": 0,
      "is_motor": true,
      "motor_id": 2,
      "accel_val": 2000,
      "base_duration_us": 375000
    },
    {
      "id": "M_1753",
      "pitch": 55,
      "t_note_us": 139500000,
      "t_trigger_us": 139364037,
      "is_ai": false,
      "track_id": 0,
      "velocity": 0,
      "is_motor": true,
      "motor_id": 0,
      "accel_val": 2000,
      "base_duration_us": 375000
    },
    {
      "id": "M_1754",
      "pitch": 67,
      "t_note_us": 139500000,
      "t_trigger_us": 139364037,
      "is_ai": false,
      "track_id": 0,
      "velocity": 0,
      "is_motor": true,
      "motor_id": 1,
      "accel_val": 2000,
      "base_duration_us": 375000
    },
    {
      "id": "M_1755",
      "pitch": 74,
      "t_note_us": 139875000,
      "t_trigger_us": 139739037,
      "is_ai": false,
      "track_id": 0,
      "velocity": 0,
      "is_motor": true,
      "motor_id": 1,
      "accel_val": 2000,
      "base_duration_us": 187500
    },
    {
      "id": "M_1756",
      "pitch": 76,
      "t_note_us": 139875000,
      "t_trigger_us": 139739037,
      "is_ai": false,
      "track_id": 0,
      "velocity": 0,
      "is_motor": true,
      "motor_id": 2,
      "accel_val": 2000,
      "base_duration_us": 187500
    },
    {
      "id": "M_1757",
      "pitch": 67,
      "t_note_us": 139875000,
      "t_trigger_us": 139739037,
      "is_ai": false,
      "track_id": 0,
      "velocity": 0,
      "is_motor": true,
      "motor_id": 0,
      "accel_val": 2000,
      "base_duration_us": 187500
    },
    {
      "id": "M_1758",
      "pitch": 57,
      "t_note_us": 139875000,
      "t_trigger_us": 139739037,
      "is_ai": false,
      "track_id": 0,
      "velocity": 0,
      "is_motor": true,
      "motor_id": 3,
      "accel_val": 2000,
      "base_duration_us": 187500
    },
    {
      "id": "M_1759",
      "pitch": 62,
      "t_note_us": 139875000,
      "t_trigger_us": 139739037,
      "is_ai": false,
      "track_id": 0,
      "velocity": 0,
      "is_motor": true,
      "motor_id": 0,
      "accel_val": 2000,
      "base_duration_us": 187500
    },
    {
      "id": "M_1760",
      "pitch": 69,
      "t_note_us": 139875000,
      "t_trigger_us": 139739037,
      "is_ai": false,
      "track_id": 0,
      "velocity": 0,
      "is_motor": true,
      "motor_id": 0,
      "accel_val": 2000,
      "base_duration_us": 187500
    },
    {
      "id": "M_1761",
      "pitch": 74,
      "t_note_us": 140062500,
      "t_trigger_us": 139926537,
      "is_ai": false,
      "track_id": 0,
      "velocity": 0,
      "is_motor": true,
      "motor_id": 1,
      "accel_val": 2000,
      "base_duration_us": 187500
    },
    {
      "id": "M_1762",
      "pitch": 76,
      "t_note_us": 140062500,
      "t_trigger_us": 139926537,
      "is_ai": false,
      "track_id": 0,
      "velocity": 0,
      "is_motor": true,
      "motor_id": 2,
      "accel_val": 2000,
      "base_duration_us": 187500
    },
    {
      "id": "M_1763",
      "pitch": 67,
      "t_note_us": 140062500,
      "t_trigger_us": 139926537,
      "is_ai": false,
      "track_id": 0,
      "velocity": 0,
      "is_motor": true,
      "motor_id": 0,
      "accel_val": 2000,
      "base_duration_us": 187500
    },
    {
      "id": "M_1764",
      "pitch": 69,
      "t_note_us": 140062500,
      "t_trigger_us": 139926537,
      "is_ai": false,
      "track_id": 0,
      "velocity": 0,
      "is_motor": true,
      "motor_id": 3,
      "accel_val": 2000,
      "base_duration_us": 187500
    },
    {
      "id": "M_1765",
      "pitch": 57,
      "t_note_us": 140062500,
      "t_trigger_us": 139926537,
      "is_ai": false,
      "track_id": 0,
      "velocity": 0,
      "is_motor": true,
      "motor_id": 0,
      "accel_val": 2000,
      "base_duration_us": 187500
    },
    {
      "id": "M_1766",
      "pitch": 62,
      "t_note_us": 140062500,
      "t_trigger_us": 139926537,
      "is_ai": false,
      "track_id": 0,
      "velocity": 0,
      "is_motor": true,
      "motor_id": 0,
      "accel_val": 2000,
      "base_duration_us": 187500
    },
    {
      "id": "M_1767",
      "pitch": 69,
      "t_note_us": 140062500,
      "t_trigger_us": 139926537,
      "is_ai": false,
      "track_id": 0,
      "velocity": 0,
      "is_motor": true,
      "motor_id": 0,
      "accel_val": 2000,
      "base_duration_us": 187500
    },
    {
      "id": "M_1768",
      "pitch": 74,
      "t_note_us": 140250000,
      "t_trigger_us": 140114037,
      "is_ai": false,
      "track_id": 0,
      "velocity": 0,
      "is_motor": true,
      "motor_id": 1,
      "accel_val": 2000,
      "base_duration_us": 187500
    },
    {
      "id": "M_1769",
      "pitch": 76,
      "t_note_us": 140250000,
      "t_trigger_us": 140114037,
      "is_ai": false,
      "track_id": 0,
      "velocity": 0,
      "is_motor": true,
      "motor_id": 2,
      "accel_val": 2000,
      "base_duration_us": 187500
    },
    {
      "id": "M_1770",
      "pitch": 67,
      "t_note_us": 140250000,
      "t_trigger_us": 140114037,
      "is_ai": false,
      "track_id": 0,
      "velocity": 0,
      "is_motor": true,
      "motor_id": 0,
      "accel_val": 2000,
      "base_duration_us": 187500
    },
    {
      "id": "M_1771",
      "pitch": 57,
      "t_note_us": 140250000,
      "t_trigger_us": 140114037,
      "is_ai": false,
      "track_id": 0,
      "velocity": 0,
      "is_motor": true,
      "motor_id": 3,
      "accel_val": 2000,
      "base_duration_us": 187500
    },
    {
      "id": "M_1772",
      "pitch": 62,
      "t_note_us": 140250000,
      "t_trigger_us": 140114037,
      "is_ai": false,
      "track_id": 0,
      "velocity": 0,
      "is_motor": true,
      "motor_id": 0,
      "accel_val": 2000,
      "base_duration_us": 187500
    },
    {
      "id": "M_1773",
      "pitch": 69,
      "t_note_us": 140250000,
      "t_trigger_us": 140114037,
      "is_ai": false,
      "track_id": 0,
      "velocity": 0,
      "is_motor": true,
      "motor_id": 0,
      "accel_val": 2000,
      "base_duration_us": 187500
    },
    {
      "id": "M_1774",
      "pitch": 74,
      "t_note_us": 140437500,
      "t_trigger_us": 140301537,
      "is_ai": false,
      "track_id": 0,
      "velocity": 0,
      "is_motor": true,
      "motor_id": 1,
      "accel_val": 2000,
      "base_duration_us": 187500
    },
    {
      "id": "M_1775",
      "pitch": 74,
      "t_note_us": 140625000,
      "t_trigger_us": 140489037,
      "is_ai": false,
      "track_id": 0,
      "velocity": 0,
      "is_motor": true,
      "motor_id": 1,
      "accel_val": 2000,
      "base_duration_us": 187500
    },
    {
      "id": "M_1776",
      "pitch": 76,
      "t_note_us": 140625000,
      "t_trigger_us": 140489037,
      "is_ai": false,
      "track_id": 0,
      "velocity": 0,
      "is_motor": true,
      "motor_id": 2,
      "accel_val": 2000,
      "base_duration_us": 187500
    },
    {
      "id": "M_1777",
      "pitch": 67,
      "t_note_us": 140625000,
      "t_trigger_us": 140489037,
      "is_ai": false,
      "track_id": 0,
      "velocity": 0,
      "is_motor": true,
      "motor_id": 0,
      "accel_val": 2000,
      "base_duration_us": 187500
    },
    {
      "id": "M_1778",
      "pitch": 69,
      "t_note_us": 140625000,
      "t_trigger_us": 140489037,
      "is_ai": false,
      "track_id": 0,
      "velocity": 0,
      "is_motor": true,
      "motor_id": 3,
      "accel_val": 2000,
      "base_duration_us": 187500
    },
    {
      "id": "M_1779",
      "pitch": 57,
      "t_note_us": 140625000,
      "t_trigger_us": 140489037,
      "is_ai": false,
      "track_id": 0,
      "velocity": 0,
      "is_motor": true,
      "motor_id": 0,
      "accel_val": 2000,
      "base_duration_us": 187500
    },
    {
      "id": "M_1780",
      "pitch": 62,
      "t_note_us": 140625000,
      "t_trigger_us": 140489037,
      "is_ai": false,
      "track_id": 0,
      "velocity": 0,
      "is_motor": true,
      "motor_id": 0,
      "accel_val": 2000,
      "base_duration_us": 187500
    },
    {
      "id": "M_1781",
      "pitch": 69,
      "t_note_us": 140625000,
      "t_trigger_us": 140489037,
      "is_ai": false,
      "track_id": 0,
      "velocity": 0,
      "is_motor": true,
      "motor_id": 0,
      "accel_val": 2000,
      "base_duration_us": 187500
    },
    {
      "id": "M_1782",
      "pitch": 67,
      "t_note_us": 140812500,
      "t_trigger_us": 140676537,
      "is_ai": false,
      "track_id": 0,
      "velocity": 0,
      "is_motor": true,
      "motor_id": 1,
      "accel_val": 2000,
      "base_duration_us": 187500
    },
    {
      "id": "M_1783",
      "pitch": 74,
      "t_note_us": 141000000,
      "t_trigger_us": 140864037,
      "is_ai": false,
      "track_id": 0,
      "velocity": 0,
      "is_motor": true,
      "motor_id": 1,
      "accel_val": 2000,
      "base_duration_us": 187500
    },
    {
      "id": "M_1784",
      "pitch": 76,
      "t_note_us": 141000000,
      "t_trigger_us": 140864037,
      "is_ai": false,
      "track_id": 0,
      "velocity": 0,
      "is_motor": true,
      "motor_id": 2,
      "accel_val": 2000,
      "base_duration_us": 187500
    },
    {
      "id": "M_1785",
      "pitch": 67,
      "t_note_us": 141000000,
      "t_trigger_us": 140864037,
      "is_ai": false,
      "track_id": 0,
      "velocity": 0,
      "is_motor": true,
      "motor_id": 0,
      "accel_val": 2000,
      "base_duration_us": 187500
    },
    {
      "id": "M_1786",
      "pitch": 57,
      "t_note_us": 141000000,
      "t_trigger_us": 140864037,
      "is_ai": false,
      "track_id": 0,
      "velocity": 0,
      "is_motor": true,
      "motor_id": 3,
      "accel_val": 2000,
      "base_duration_us": 187500
    },
    {
      "id": "M_1787",
      "pitch": 62,
      "t_note_us": 141000000,
      "t_trigger_us": 140864037,
      "is_ai": false,
      "track_id": 0,
      "velocity": 0,
      "is_motor": true,
      "motor_id": 0,
      "accel_val": 2000,
      "base_duration_us": 187500
    },
    {
      "id": "M_1788",
      "pitch": 69,
      "t_note_us": 141000000,
      "t_trigger_us": 140864037,
      "is_ai": false,
      "track_id": 0,
      "velocity": 0,
      "is_motor": true,
      "motor_id": 0,
      "accel_val": 2000,
      "base_duration_us": 187500
    },
    {
      "id": "M_1789",
      "pitch": 74,
      "t_note_us": 141187500,
      "t_trigger_us": 141051537,
      "is_ai": false,
      "track_id": 0,
      "velocity": 0,
      "is_motor": true,
      "motor_id": 1,
      "accel_val": 2000,
      "base_duration_us": 187500
    },
    {
      "id": "M_1790",
      "pitch": 76,
      "t_note_us": 141187500,
      "t_trigger_us": 141051537,
      "is_ai": false,
      "track_id": 0,
      "velocity": 0,
      "is_motor": true,
      "motor_id": 2,
      "accel_val": 2000,
      "base_duration_us": 187500
    },
    {
      "id": "M_1791",
      "pitch": 67,
      "t_note_us": 141187500,
      "t_trigger_us": 141051537,
      "is_ai": false,
      "track_id": 0,
      "velocity": 0,
      "is_motor": true,
      "motor_id": 0,
      "accel_val": 2000,
      "base_duration_us": 187500
    },
    {
      "id": "M_1792",
      "pitch": 69,
      "t_note_us": 141187500,
      "t_trigger_us": 141051537,
      "is_ai": false,
      "track_id": 0,
      "velocity": 0,
      "is_motor": true,
      "motor_id": 3,
      "accel_val": 2000,
      "base_duration_us": 187500
    },
    {
      "id": "M_1793",
      "pitch": 57,
      "t_note_us": 141187500,
      "t_trigger_us": 141051537,
      "is_ai": false,
      "track_id": 0,
      "velocity": 0,
      "is_motor": true,
      "motor_id": 0,
      "accel_val": 2000,
      "base_duration_us": 187500
    },
    {
      "id": "M_1794",
      "pitch": 62,
      "t_note_us": 141187500,
      "t_trigger_us": 141051537,
      "is_ai": false,
      "track_id": 0,
      "velocity": 0,
      "is_motor": true,
      "motor_id": 0,
      "accel_val": 2000,
      "base_duration_us": 187500
    },
    {
      "id": "M_1795",
      "pitch": 69,
      "t_note_us": 141187500,
      "t_trigger_us": 141051537,
      "is_ai": false,
      "track_id": 0,
      "velocity": 0,
      "is_motor": true,
      "motor_id": 0,
      "accel_val": 2000,
      "base_duration_us": 187500
    },
    {
      "id": "M_1796",
      "pitch": 67,
      "t_note_us": 141375000,
      "t_trigger_us": 141239037,
      "is_ai": false,
      "track_id": 0,
      "velocity": 0,
      "is_motor": true,
      "motor_id": 1,
      "accel_val": 2000,
      "base_duration_us": 187500
    },
    {
      "id": "M_1797",
      "pitch": 74,
      "t_note_us": 141562500,
      "t_trigger_us": 141426537,
      "is_ai": false,
      "track_id": 0,
      "velocity": 0,
      "is_motor": true,
      "motor_id": 1,
      "accel_val": 2000,
      "base_duration_us": 187500
    },
    {
      "id": "M_1798",
      "pitch": 76,
      "t_note_us": 141562500,
      "t_trigger_us": 141426537,
      "is_ai": false,
      "track_id": 0,
      "velocity": 0,
      "is_motor": true,
      "motor_id": 2,
      "accel_val": 2000,
      "base_duration_us": 187500
    },
    {
      "id": "M_1799",
      "pitch": 67,
      "t_note_us": 141562500,
      "t_trigger_us": 141426537,
      "is_ai": false,
      "track_id": 0,
      "velocity": 0,
      "is_motor": true,
      "motor_id": 0,
      "accel_val": 2000,
      "base_duration_us": 187500
    },
    {
      "id": "M_1800",
      "pitch": 74,
      "t_note_us": 141562500,
      "t_trigger_us": 141426537,
      "is_ai": false,
      "track_id": 0,
      "velocity": 0,
      "is_motor": true,
      "motor_id": 3,
      "accel_val": 2000,
      "base_duration_us": 187500
    },
    {
      "id": "M_1801",
      "pitch": 57,
      "t_note_us": 141562500,
      "t_trigger_us": 141426537,
      "is_ai": false,
      "track_id": 0,
      "velocity": 0,
      "is_motor": true,
      "motor_id": 0,
      "accel_val": 2000,
      "base_duration_us": 187500
    },
    {
      "id": "M_1802",
      "pitch": 62,
      "t_note_us": 141562500,
      "t_trigger_us": 141426537,
      "is_ai": false,
      "track_id": 0,
      "velocity": 0,
      "is_motor": true,
      "motor_id": 0,
      "accel_val": 2000,
      "base_duration_us": 187500
    },
    {
      "id": "M_1803",
      "pitch": 69,
      "t_note_us": 141562500,
      "t_trigger_us": 141426537,
      "is_ai": false,
      "track_id": 0,
      "velocity": 0,
      "is_motor": true,
      "motor_id": 0,
      "accel_val": 2000,
      "base_duration_us": 187500
    },
    {
      "id": "M_1804",
      "pitch": 74,
      "t_note_us": 141750000,
      "t_trigger_us": 141614037,
      "is_ai": false,
      "track_id": 0,
      "velocity": 0,
      "is_motor": true,
      "motor_id": 1,
      "accel_val": 2000,
      "base_duration_us": 187500
    },
    {
      "id": "M_1805",
      "pitch": 76,
      "t_note_us": 141750000,
      "t_trigger_us": 141614037,
      "is_ai": false,
      "track_id": 0,
      "velocity": 0,
      "is_motor": true,
      "motor_id": 2,
      "accel_val": 2000,
      "base_duration_us": 187500
    },
    {
      "id": "M_1806",
      "pitch": 67,
      "t_note_us": 141750000,
      "t_trigger_us": 141614037,
      "is_ai": false,
      "track_id": 0,
      "velocity": 0,
      "is_motor": true,
      "motor_id": 0,
      "accel_val": 2000,
      "base_duration_us": 187500
    },
    {
      "id": "M_1807",
      "pitch": 69,
      "t_note_us": 141750000,
      "t_trigger_us": 141614037,
      "is_ai": false,
      "track_id": 0,
      "velocity": 0,
      "is_motor": true,
      "motor_id": 3,
      "accel_val": 2000,
      "base_duration_us": 187500
    },
    {
      "id": "M_1809",
      "pitch": 57,
      "t_note_us": 141750000,
      "t_trigger_us": 141614037,
      "is_ai": false,
      "track_id": 0,
      "velocity": 0,
      "is_motor": true,
      "motor_id": 0,
      "accel_val": 2000,
      "base_duration_us": 375000
    },
    {
      "id": "M_1810",
      "pitch": 62,
      "t_note_us": 141750000,
      "t_trigger_us": 141614037,
      "is_ai": false,
      "track_id": 0,
      "velocity": 0,
      "is_motor": true,
      "motor_id": 0,
      "accel_val": 2000,
      "base_duration_us": 375000
    },
    {
      "id": "M_1811",
      "pitch": 69,
      "t_note_us": 141750000,
      "t_trigger_us": 141614037,
      "is_ai": false,
      "track_id": 0,
      "velocity": 0,
      "is_motor": true,
      "motor_id": 0,
      "accel_val": 2000,
      "base_duration_us": 375000
    },
    {
      "id": "M_1808",
      "pitch": 67,
      "t_note_us": 141937500,
      "t_trigger_us": 141801537,
      "is_ai": false,
      "track_id": 0,
      "velocity": 0,
      "is_motor": true,
      "motor_id": 1,
      "accel_val": 2000,
      "base_duration_us": 187500
    },
    {
      "id": "M_1812",
      "pitch": 86,
      "t_note_us": 142125000,
      "t_trigger_us": 141989037,
      "is_ai": true,
      "track_id": 4,
      "velocity": 0,
      "is_motor": false,
      "motor_id": 0,
      "accel_val": 2000,
      "base_duration_us": 375000
    },
    {
      "id": "M_1815",
      "pitch": 96,
      "t_note_us": 142125000,
      "t_trigger_us": 141989037,
      "is_ai": true,
      "track_id": 10,
      "velocity": 0,
      "is_motor": false,
      "motor_id": 0,
      "accel_val": 2000,
      "base_duration_us": 375000
    },
    {
      "id": "M_1813",
      "pitch": 76,
      "t_note_us": 142125000,
      "t_trigger_us": 141989037,
      "is_ai": false,
      "track_id": 0,
      "velocity": 0,
      "is_motor": true,
      "motor_id": 2,
      "accel_val": 2000,
      "base_duration_us": 375000
    },
    {
      "id": "M_1814",
      "pitch": 69,
      "t_note_us": 142125000,
      "t_trigger_us": 141989037,
      "is_ai": false,
      "track_id": 0,
      "velocity": 0,
      "is_motor": true,
      "motor_id": 1,
      "accel_val": 2000,
      "base_duration_us": 375000
    },
    {
      "id": "M_1816",
      "pitch": 57,
      "t_note_us": 142125000,
      "t_trigger_us": 141989037,
      "is_ai": false,
      "track_id": 0,
      "velocity": 0,
      "is_motor": true,
      "motor_id": 0,
      "accel_val": 2000,
      "base_duration_us": 375000
    },
    {
      "id": "M_1817",
      "pitch": 62,
      "t_note_us": 142125000,
      "t_trigger_us": 141989037,
      "is_ai": false,
      "track_id": 0,
      "velocity": 0,
      "is_motor": true,
      "motor_id": 3,
      "accel_val": 2000,
      "base_duration_us": 375000
    },
    {
      "id": "M_1818",
      "pitch": 69,
      "t_note_us": 142125000,
      "t_trigger_us": 141989037,
      "is_ai": false,
      "track_id": 0,
      "velocity": 0,
      "is_motor": true,
      "motor_id": 0,
      "accel_val": 2000,
      "base_duration_us": 375000
    },
    {
      "id": "M_1819",
      "pitch": 76,
      "t_note_us": 142500000,
      "t_trigger_us": 142364037,
      "is_ai": false,
      "track_id": 0,
      "velocity": 0,
      "is_motor": true,
      "motor_id": 2,
      "accel_val": 2000,
      "base_duration_us": 375000
    },
    {
      "id": "M_1820",
      "pitch": 69,
      "t_note_us": 142500000,
      "t_trigger_us": 142364037,
      "is_ai": false,
      "track_id": 0,
      "velocity": 0,
      "is_motor": true,
      "motor_id": 1,
      "accel_val": 2000,
      "base_duration_us": 375000
    },
    {
      "id": "M_1821",
      "pitch": 53,
      "t_note_us": 142875000,
      "t_trigger_us": 142739037,
      "is_ai": false,
      "track_id": 0,
      "velocity": 0,
      "is_motor": true,
      "motor_id": 0,
      "accel_val": 2000,
      "base_duration_us": 187500
    },
    {
      "id": "M_1827",
      "pitch": 76,
      "t_note_us": 142875000,
      "t_trigger_us": 142739037,
      "is_ai": false,
      "track_id": 0,
      "velocity": 0,
      "is_motor": true,
      "motor_id": 2,
      "accel_val": 2000,
      "base_duration_us": 1125000
    },
    {
      "id": "M_1828",
      "pitch": 67,
      "t_note_us": 142875000,
      "t_trigger_us": 142739037,
      "is_ai": false,
      "track_id": 0,
      "velocity": 0,
      "is_motor": true,
      "motor_id": 1,
      "accel_val": 2000,
      "base_duration_us": 1125000
    },
    {
      "id": "M_1829",
      "pitch": 72,
      "t_note_us": 142875000,
      "t_trigger_us": 142739037,
      "is_ai": false,
      "track_id": 0,
      "velocity": 0,
      "is_motor": true,
      "motor_id": 3,
      "accel_val": 2000,
      "base_duration_us": 1125000
    },
    {
      "id": "M_1830",
      "pitch": 76,
      "t_note_us": 142875000,
      "t_trigger_us": 142739037,
      "is_ai": false,
      "track_id": 0,
      "velocity": 0,
      "is_motor": true,
      "motor_id": 0,
      "accel_val": 2000,
      "base_duration_us": 1125000
    },
    {
      "id": "M_1822",
      "pitch": 53,
      "t_note_us": 143062500,
      "t_trigger_us": 142926537,
      "is_ai": false,
      "track_id": 0,
      "velocity": 0,
      "is_motor": true,
      "motor_id": 0,
      "accel_val": 2000,
      "base_duration_us": 187500
    },
    {
      "id": "M_1823",
      "pitch": 60,
      "t_note_us": 143250000,
      "t_trigger_us": 143114037,
      "is_ai": false,
      "track_id": 0,
      "velocity": 0,
      "is_motor": true,
      "motor_id": 0,
      "accel_val": 2000,
      "base_duration_us": 187500
    },
    {
      "id": "M_1824",
      "pitch": 65,
      "t_note_us": 143250000,
      "t_trigger_us": 143114037,
      "is_ai": false,
      "track_id": 0,
      "velocity": 0,
      "is_motor": true,
      "motor_id": 0,
      "accel_val": 2000,
      "base_duration_us": 187500
    },
    {
      "id": "M_1825",
      "pitch": 53,
      "t_note_us": 143437500,
      "t_trigger_us": 143301537,
      "is_ai": false,
      "track_id": 0,
      "velocity": 0,
      "is_motor": true,
      "motor_id": 0,
      "accel_val": 2000,
      "base_duration_us": 187500
    },
    {
      "id": "M_1826",
      "pitch": 53,
      "t_note_us": 143625000,
      "t_trigger_us": 143489037,
      "is_ai": false,
      "track_id": 0,
      "velocity": 0,
      "is_motor": true,
      "motor_id": 0,
      "accel_val": 2000,
      "base_duration_us": 187500
    },
    {
      "id": "M_1831",
      "pitch": 53,
      "t_note_us": 143812500,
      "t_trigger_us": 143676537,
      "is_ai": false,
      "track_id": 0,
      "velocity": 0,
      "is_motor": true,
      "motor_id": 0,
      "accel_val": 2000,
      "base_duration_us": 187500
    },
    {
      "id": "M_1832",
      "pitch": 72,
      "t_note_us": 144000000,
      "t_trigger_us": 143864037,
      "is_ai": false,
      "track_id": 0,
      "velocity": 0,
      "is_motor": true,
      "motor_id": 1,
      "accel_val": 2000,
      "base_duration_us": 187500
    },
    {
      "id": "M_1833",
      "pitch": 76,
      "t_note_us": 144000000,
      "t_trigger_us": 143864037,
      "is_ai": false,
      "track_id": 0,
      "velocity": 0,
      "is_motor": true,
      "motor_id": 2,
      "accel_val": 2000,
      "base_duration_us": 187500
    },
    {
      "id": "M_1834",
      "pitch": 69,
      "t_note_us": 144000000,
      "t_trigger_us": 143864037,
      "is_ai": false,
      "track_id": 0,
      "velocity": 0,
      "is_motor": true,
      "motor_id": 0,
      "accel_val": 2000,
      "base_duration_us": 187500
    },
    {
      "id": "M_1835",
      "pitch": 60,
      "t_note_us": 144000000,
      "t_trigger_us": 143864037,
      "is_ai": false,
      "track_id": 0,
      "velocity": 0,
      "is_motor": true,
      "motor_id": 3,
      "accel_val": 2000,
      "base_duration_us": 187500
    },
    {
      "id": "M_1836",
      "pitch": 65,
      "t_note_us": 144000000,
      "t_trigger_us": 143864037,
      "is_ai": false,
      "track_id": 0,
      "velocity": 0,
      "is_motor": true,
      "motor_id": 0,
      "accel_val": 2000,
      "base_duration_us": 187500
    },
    {
      "id": "M_1837",
      "pitch": 76,
      "t_note_us": 144187500,
      "t_trigger_us": 144051537,
      "is_ai": false,
      "track_id": 0,
      "velocity": 0,
      "is_motor": true,
      "motor_id": 2,
      "accel_val": 2000,
      "base_duration_us": 187500
    },
    {
      "id": "M_1838",
      "pitch": 69,
      "t_note_us": 144187500,
      "t_trigger_us": 144051537,
      "is_ai": false,
      "track_id": 0,
      "velocity": 0,
      "is_motor": true,
      "motor_id": 1,
      "accel_val": 2000,
      "base_duration_us": 187500
    },
    {
      "id": "M_1839",
      "pitch": 53,
      "t_note_us": 144187500,
      "t_trigger_us": 144051537,
      "is_ai": false,
      "track_id": 0,
      "velocity": 0,
      "is_motor": true,
      "motor_id": 0,
      "accel_val": 2000,
      "base_duration_us": 187500
    },
    {
      "id": "M_1840",
      "pitch": 55,
      "t_note_us": 144375000,
      "t_trigger_us": 144239037,
      "is_ai": false,
      "track_id": 0,
      "velocity": 0,
      "is_motor": true,
      "motor_id": 0,
      "accel_val": 2000,
      "base_duration_us": 187500
    },
    {
      "id": "M_1841",
      "pitch": 71,
      "t_note_us": 144375000,
      "t_trigger_us": 144239037,
      "is_ai": false,
      "track_id": 0,
      "velocity": 0,
      "is_motor": true,
      "motor_id": 1,
      "accel_val": 2000,
      "base_duration_us": 375000
    },
    {
      "id": "M_1842",
      "pitch": 74,
      "t_note_us": 144375000,
      "t_trigger_us": 144239037,
      "is_ai": false,
      "track_id": 0,
      "velocity": 0,
      "is_motor": true,
      "motor_id": 2,
      "accel_val": 2000,
      "base_duration_us": 375000
    },
    {
      "id": "M_1843",
      "pitch": 67,
      "t_note_us": 144375000,
      "t_trigger_us": 144239037,
      "is_ai": false,
      "track_id": 0,
      "velocity": 0,
      "is_motor": true,
      "motor_id": 3,
      "accel_val": 2000,
      "base_duration_us": 375000
    },
    {
      "id": "M_1844",
      "pitch": 55,
      "t_note_us": 144562500,
      "t_trigger_us": 144426537,
      "is_ai": false,
      "track_id": 0,
      "velocity": 0,
      "is_motor": true,
      "motor_id": 0,
      "accel_val": 2000,
      "base_duration_us": 187500
    },
    {
      "id": "M_1845",
      "pitch": 71,
      "t_note_us": 144750000,
      "t_trigger_us": 144614037,
      "is_ai": false,
      "track_id": 0,
      "velocity": 0,
      "is_motor": true,
      "motor_id": 1,
      "accel_val": 2000,
      "base_duration_us": 187500
    },
    {
      "id": "M_1846",
      "pitch": 74,
      "t_note_us": 144750000,
      "t_trigger_us": 144614037,
      "is_ai": false,
      "track_id": 0,
      "velocity": 0,
      "is_motor": true,
      "motor_id": 0,
      "accel_val": 2000,
      "base_duration_us": 187500
    },
    {
      "id": "M_1847",
      "pitch": 67,
      "t_note_us": 144750000,
      "t_trigger_us": 144614037,
      "is_ai": false,
      "track_id": 0,
      "velocity": 0,
      "is_motor": true,
      "motor_id": 2,
      "accel_val": 2000,
      "base_duration_us": 187500
    },
    {
      "id": "M_1848",
      "pitch": 62,
      "t_note_us": 144750000,
      "t_trigger_us": 144614037,
      "is_ai": false,
      "track_id": 0,
      "velocity": 0,
      "is_motor": true,
      "motor_id": 3,
      "accel_val": 2000,
      "base_duration_us": 187500
    },
    {
      "id": "M_1849",
      "pitch": 67,
      "t_note_us": 144750000,
      "t_trigger_us": 144614037,
      "is_ai": false,
      "track_id": 0,
      "velocity": 0,
      "is_motor": true,
      "motor_id": 0,
      "accel_val": 2000,
      "base_duration_us": 187500
    },
    {
      "id": "M_1850",
      "pitch": 74,
      "t_note_us": 144937500,
      "t_trigger_us": 144801537,
      "is_ai": false,
      "track_id": 0,
      "velocity": 0,
      "is_motor": true,
      "motor_id": 1,
      "accel_val": 2000,
      "base_duration_us": 187500
    },
    {
      "id": "M_1851",
      "pitch": 67,
      "t_note_us": 144937500,
      "t_trigger_us": 144801537,
      "is_ai": false,
      "track_id": 0,
      "velocity": 0,
      "is_motor": true,
      "motor_id": 2,
      "accel_val": 2000,
      "base_duration_us": 187500
    },
    {
      "id": "M_1852",
      "pitch": 55,
      "t_note_us": 144937500,
      "t_trigger_us": 144801537,
      "is_ai": false,
      "track_id": 0,
      "velocity": 0,
      "is_motor": true,
      "motor_id": 0,
      "accel_val": 2000,
      "base_duration_us": 187500
    },
    {
      "id": "M_1853",
      "pitch": 72,
      "t_note_us": 145125000,
      "t_trigger_us": 144989037,
      "is_ai": false,
      "track_id": 0,
      "velocity": 0,
      "is_motor": true,
      "motor_id": 1,
      "accel_val": 2000,
      "base_duration_us": 187500
    },
    {
      "id": "M_1854",
      "pitch": 76,
      "t_note_us": 145125000,
      "t_trigger_us": 144989037,
      "is_ai": false,
      "track_id": 0,
      "velocity": 0,
      "is_motor": true,
      "motor_id": 2,
      "accel_val": 2000,
      "base_duration_us": 187500
    },
    {
      "id": "M_1855",
      "pitch": 69,
      "t_note_us": 145125000,
      "t_trigger_us": 144989037,
      "is_ai": false,
      "track_id": 0,
      "velocity": 0,
      "is_motor": true,
      "motor_id": 0,
      "accel_val": 2000,
      "base_duration_us": 187500
    },
    {
      "id": "M_1856",
      "pitch": 55,
      "t_note_us": 145125000,
      "t_trigger_us": 144989037,
      "is_ai": false,
      "track_id": 0,
      "velocity": 0,
      "is_motor": true,
      "motor_id": 3,
      "accel_val": 2000,
      "base_duration_us": 187500
    },
    {
      "id": "M_1857",
      "pitch": 74,
      "t_note_us": 145312500,
      "t_trigger_us": 145176537,
      "is_ai": false,
      "track_id": 0,
      "velocity": 0,
      "is_motor": true,
      "motor_id": 1,
      "accel_val": 2000,
      "base_duration_us": 187500
    },
    {
      "id": "M_1858",
      "pitch": 67,
      "t_note_us": 145312500,
      "t_trigger_us": 145176537,
      "is_ai": false,
      "track_id": 0,
      "velocity": 0,
      "is_motor": true,
      "motor_id": 2,
      "accel_val": 2000,
      "base_duration_us": 187500
    },
    {
      "id": "M_1859",
      "pitch": 55,
      "t_note_us": 145312500,
      "t_trigger_us": 145176537,
      "is_ai": false,
      "track_id": 0,
      "velocity": 0,
      "is_motor": true,
      "motor_id": 0,
      "accel_val": 2000,
      "base_duration_us": 187500
    },
    {
      "id": "M_1860",
      "pitch": 72,
      "t_note_us": 145500000,
      "t_trigger_us": 145364037,
      "is_ai": false,
      "track_id": 0,
      "velocity": 0,
      "is_motor": true,
      "motor_id": 1,
      "accel_val": 2000,
      "base_duration_us": 187500
    },
    {
      "id": "M_1861",
      "pitch": 76,
      "t_note_us": 145500000,
      "t_trigger_us": 145364037,
      "is_ai": false,
      "track_id": 0,
      "velocity": 0,
      "is_motor": true,
      "motor_id": 2,
      "accel_val": 2000,
      "base_duration_us": 187500
    },
    {
      "id": "M_1862",
      "pitch": 69,
      "t_note_us": 145500000,
      "t_trigger_us": 145364037,
      "is_ai": false,
      "track_id": 0,
      "velocity": 0,
      "is_motor": true,
      "motor_id": 0,
      "accel_val": 2000,
      "base_duration_us": 187500
    },
    {
      "id": "M_1863",
      "pitch": 62,
      "t_note_us": 145500000,
      "t_trigger_us": 145364037,
      "is_ai": false,
      "track_id": 0,
      "velocity": 0,
      "is_motor": true,
      "motor_id": 3,
      "accel_val": 2000,
      "base_duration_us": 187500
    },
    {
      "id": "M_1864",
      "pitch": 67,
      "t_note_us": 145500000,
      "t_trigger_us": 145364037,
      "is_ai": false,
      "track_id": 0,
      "velocity": 0,
      "is_motor": true,
      "motor_id": 0,
      "accel_val": 2000,
      "base_duration_us": 187500
    },
    {
      "id": "M_1865",
      "pitch": 76,
      "t_note_us": 145687500,
      "t_trigger_us": 145551537,
      "is_ai": false,
      "track_id": 0,
      "velocity": 0,
      "is_motor": true,
      "motor_id": 2,
      "accel_val": 2000,
      "base_duration_us": 187500
    },
    {
      "id": "M_1866",
      "pitch": 71,
      "t_note_us": 145687500,
      "t_trigger_us": 145551537,
      "is_ai": false,
      "track_id": 0,
      "velocity": 0,
      "is_motor": true,
      "motor_id": 1,
      "accel_val": 2000,
      "base_duration_us": 187500
    },
    {
      "id": "M_1867",
      "pitch": 55,
      "t_note_us": 145687500,
      "t_trigger_us": 145551537,
      "is_ai": false,
      "track_id": 0,
      "velocity": 0,
      "is_motor": true,
      "motor_id": 0,
      "accel_val": 2000,
      "base_duration_us": 187500
    },
    {
      "id": "M_1871",
      "pitch": 96,
      "t_note_us": 145875000,
      "t_trigger_us": 145739037,
      "is_ai": true,
      "track_id": 10,
      "velocity": 0,
      "is_motor": false,
      "motor_id": 0,
      "accel_val": 2000,
      "base_duration_us": 375000
    },
    {
      "id": "M_1868",
      "pitch": 57,
      "t_note_us": 145875000,
      "t_trigger_us": 145739037,
      "is_ai": false,
      "track_id": 0,
      "velocity": 0,
      "is_motor": true,
      "motor_id": 0,
      "accel_val": 2000,
      "base_duration_us": 187500
    },
    {
      "id": "M_1869",
      "pitch": 76,
      "t_note_us": 145875000,
      "t_trigger_us": 145739037,
      "is_ai": false,
      "track_id": 0,
      "velocity": 0,
      "is_motor": true,
      "motor_id": 2,
      "accel_val": 2000,
      "base_duration_us": 375000
    },
    {
      "id": "M_1870",
      "pitch": 69,
      "t_note_us": 145875000,
      "t_trigger_us": 145739037,
      "is_ai": false,
      "track_id": 0,
      "velocity": 0,
      "is_motor": true,
      "motor_id": 1,
      "accel_val": 2000,
      "base_duration_us": 375000
    },
    {
      "id": "M_1872",
      "pitch": 57,
      "t_note_us": 146062500,
      "t_trigger_us": 145926537,
      "is_ai": false,
      "track_id": 0,
      "velocity": 0,
      "is_motor": true,
      "motor_id": 0,
      "accel_val": 2000,
      "base_duration_us": 187500
    },
    {
      "id": "M_1873",
      "pitch": 64,
      "t_note_us": 146250000,
      "t_trigger_us": 146114037,
      "is_ai": false,
      "track_id": 0,
      "velocity": 0,
      "is_motor": true,
      "motor_id": 1,
      "accel_val": 2000,
      "base_duration_us": 187500
    },
    {
      "id": "M_1874",
      "pitch": 69,
      "t_note_us": 146250000,
      "t_trigger_us": 146114037,
      "is_ai": false,
      "track_id": 0,
      "velocity": 0,
      "is_motor": true,
      "motor_id": 2,
      "accel_val": 2000,
      "base_duration_us": 187500
    },
    {
      "id": "M_1875",
      "pitch": 74,
      "t_note_us": 146250000,
      "t_trigger_us": 146114037,
      "is_ai": false,
      "track_id": 0,
      "velocity": 0,
      "is_motor": true,
      "motor_id": 0,
      "accel_val": 2000,
      "base_duration_us": 375000
    },
    {
      "id": "M_1876",
      "pitch": 67,
      "t_note_us": 146250000,
      "t_trigger_us": 146114037,
      "is_ai": false,
      "track_id": 0,
      "velocity": 0,
      "is_motor": true,
      "motor_id": 3,
      "accel_val": 2000,
      "base_duration_us": 375000
    },
    {
      "id": "M_1877",
      "pitch": 71,
      "t_note_us": 146250000,
      "t_trigger_us": 146114037,
      "is_ai": false,
      "track_id": 0,
      "velocity": 0,
      "is_motor": true,
      "motor_id": 0,
      "accel_val": 2000,
      "base_duration_us": 375000
    },
    {
      "id": "M_1878",
      "pitch": 57,
      "t_note_us": 146437500,
      "t_trigger_us": 146301537,
      "is_ai": false,
      "track_id": 0,
      "velocity": 0,
      "is_motor": true,
      "motor_id": 1,
      "accel_val": 2000,
      "base_duration_us": 187500
    },
    {
      "id": "M_1879",
      "pitch": 57,
      "t_note_us": 146625000,
      "t_trigger_us": 146489037,
      "is_ai": false,
      "track_id": 0,
      "velocity": 0,
      "is_motor": true,
      "motor_id": 0,
      "accel_val": 2000,
      "base_duration_us": 187500
    },
    {
      "id": "M_1880",
      "pitch": 72,
      "t_note_us": 146625000,
      "t_trigger_us": 146489037,
      "is_ai": false,
      "track_id": 0,
      "velocity": 0,
      "is_motor": true,
      "motor_id": 1,
      "accel_val": 2000,
      "base_duration_us": 375000
    },
    {
      "id": "M_1881",
      "pitch": 76,
      "t_note_us": 146625000,
      "t_trigger_us": 146489037,
      "is_ai": false,
      "track_id": 0,
      "velocity": 0,
      "is_motor": true,
      "motor_id": 2,
      "accel_val": 2000,
      "base_duration_us": 375000
    },
    {
      "id": "M_1882",
      "pitch": 69,
      "t_note_us": 146625000,
      "t_trigger_us": 146489037,
      "is_ai": false,
      "track_id": 0,
      "velocity": 0,
      "is_motor": true,
      "motor_id": 3,
      "accel_val": 2000,
      "base_duration_us": 375000
    },
    {
      "id": "M_1883",
      "pitch": 57,
      "t_note_us": 146812500,
      "t_trigger_us": 146676537,
      "is_ai": false,
      "track_id": 0,
      "velocity": 0,
      "is_motor": true,
      "motor_id": 0,
      "accel_val": 2000,
      "base_duration_us": 187500
    },
    {
      "id": "M_1884",
      "pitch": 64,
      "t_note_us": 147000000,
      "t_trigger_us": 146864037,
      "is_ai": false,
      "track_id": 0,
      "velocity": 0,
      "is_motor": true,
      "motor_id": 1,
      "accel_val": 2000,
      "base_duration_us": 187500
    },
    {
      "id": "M_1885",
      "pitch": 69,
      "t_note_us": 147000000,
      "t_trigger_us": 146864037,
      "is_ai": false,
      "track_id": 0,
      "velocity": 0,
      "is_motor": true,
      "motor_id": 2,
      "accel_val": 2000,
      "base_duration_us": 187500
    },
    {
      "id": "M_1886",
      "pitch": 71,
      "t_note_us": 147000000,
      "t_trigger_us": 146864037,
      "is_ai": false,
      "track_id": 0,
      "velocity": 0,
      "is_motor": true,
      "motor_id": 0,
      "accel_val": 2000,
      "base_duration_us": 375000
    },
    {
      "id": "M_1887",
      "pitch": 76,
      "t_note_us": 147000000,
      "t_trigger_us": 146864037,
      "is_ai": false,
      "track_id": 0,
      "velocity": 0,
      "is_motor": true,
      "motor_id": 3,
      "accel_val": 2000,
      "base_duration_us": 375000
    },
    {
      "id": "M_1888",
      "pitch": 67,
      "t_note_us": 147000000,
      "t_trigger_us": 146864037,
      "is_ai": false,
      "track_id": 0,
      "velocity": 0,
      "is_motor": true,
      "motor_id": 0,
      "accel_val": 2000,
      "base_duration_us": 375000
    },
    {
      "id": "M_1889",
      "pitch": 57,
      "t_note_us": 147187500,
      "t_trigger_us": 147051537,
      "is_ai": false,
      "track_id": 0,
      "velocity": 0,
      "is_motor": true,
      "motor_id": 1,
      "accel_val": 2000,
      "base_duration_us": 187500
    },
    {
      "id": "M_1890",
      "pitch": 60,
      "t_note_us": 147375000,
      "t_trigger_us": 147239037,
      "is_ai": false,
      "track_id": 0,
      "velocity": 0,
      "is_motor": true,
      "motor_id": 1,
      "accel_val": 2000,
      "base_duration_us": 187500
    },
    {
      "id": "M_1891",
      "pitch": 69,
      "t_note_us": 147375000,
      "t_trigger_us": 147239037,
      "is_ai": false,
      "track_id": 0,
      "velocity": 0,
      "is_motor": true,
      "motor_id": 2,
      "accel_val": 2000,
      "base_duration_us": 375000
    },
    {
      "id": "M_1892",
      "pitch": 72,
      "t_note_us": 147375000,
      "t_trigger_us": 147239037,
      "is_ai": false,
      "track_id": 0,
      "velocity": 0,
      "is_motor": true,
      "motor_id": 0,
      "accel_val": 2000,
      "base_duration_us": 375000
    },
    {
      "id": "M_1897",
      "pitch": 76,
      "t_note_us": 147375000,
      "t_trigger_us": 147239037,
      "is_ai": false,
      "track_id": 0,
      "velocity": 0,
      "is_motor": true,
      "motor_id": 3,
      "accel_val": 2000,
      "base_duration_us": 750000
    },
    {
      "id": "M_1893",
      "pitch": 72,
      "t_note_us": 147562500,
      "t_trigger_us": 147426537,
      "is_ai": false,
      "track_id": 0,
      "velocity": 0,
      "is_motor": true,
      "motor_id": 1,
      "accel_val": 2000,
      "base_duration_us": 187500
    },
    {
      "id": "M_1894",
      "pitch": 60,
      "t_note_us": 147750000,
      "t_trigger_us": 147614037,
      "is_ai": false,
      "track_id": 0,
      "velocity": 0,
      "is_motor": true,
      "motor_id": 1,
      "accel_val": 2000,
      "base_duration_us": 187500
    },
    {
      "id": "M_1895",
      "pitch": 71,
      "t_note_us": 147750000,
      "t_trigger_us": 147614037,
      "is_ai": false,
      "track_id": 0,
      "velocity": 0,
      "is_motor": true,
      "motor_id": 2,
      "accel_val": 2000,
      "base_duration_us": 375000
    },
    {
      "id": "M_1896",
      "pitch": 74,
      "t_note_us": 147750000,
      "t_trigger_us": 147614037,
      "is_ai": false,
      "track_id": 0,
      "velocity": 0,
      "is_motor": true,
      "motor_id": 0,
      "accel_val": 2000,
      "base_duration_us": 375000
    },
    {
      "id": "M_1898",
      "pitch": 72,
      "t_note_us": 147937500,
      "t_trigger_us": 147801537,
      "is_ai": false,
      "track_id": 0,
      "velocity": 0,
      "is_motor": true,
      "motor_id": 1,
      "accel_val": 2000,
      "base_duration_us": 187500
    },
    {
      "id": "M_1899",
      "pitch": 52,
      "t_note_us": 148125000,
      "t_trigger_us": 147989037,
      "is_ai": false,
      "track_id": 0,
      "velocity": 0,
      "is_motor": true,
      "motor_id": 0,
      "accel_val": 2000,
      "base_duration_us": 187500
    },
    {
      "id": "M_1900",
      "pitch": 72,
      "t_note_us": 148125000,
      "t_trigger_us": 147989037,
      "is_ai": false,
      "track_id": 0,
      "velocity": 0,
      "is_motor": true,
      "motor_id": 1,
      "accel_val": 2000,
      "base_duration_us": 375000
    },
    {
      "id": "M_1901",
      "pitch": 67,
      "t_note_us": 148125000,
      "t_trigger_us": 147989037,
      "is_ai": false,
      "track_id": 0,
      "velocity": 0,
      "is_motor": true,
      "motor_id": 2,
      "accel_val": 2000,
      "base_duration_us": 375000
    },
    {
      "id": "M_1902",
      "pitch": 64,
      "t_note_us": 148312500,
      "t_trigger_us": 148176537,
      "is_ai": false,
      "track_id": 0,
      "velocity": 0,
      "is_motor": true,
      "motor_id": 0,
      "accel_val": 2000,
      "base_duration_us": 187500
    },
    {
      "id": "M_1903",
      "pitch": 52,
      "t_note_us": 148500000,
      "t_trigger_us": 148364037,
      "is_ai": false,
      "track_id": 0,
      "velocity": 0,
      "is_motor": true,
      "motor_id": 0,
      "accel_val": 2000,
      "base_duration_us": 187500
    },
    {
      "id": "M_1904",
      "pitch": 71,
      "t_note_us": 148500000,
      "t_trigger_us": 148364037,
      "is_ai": false,
      "track_id": 0,
      "velocity": 0,
      "is_motor": true,
      "motor_id": 1,
      "accel_val": 2000,
      "base_duration_us": 375000
    },
    {
      "id": "M_1905",
      "pitch": 76,
      "t_note_us": 148500000,
      "t_trigger_us": 148364037,
      "is_ai": false,
      "track_id": 0,
      "velocity": 0,
      "is_motor": true,
      "motor_id": 2,
      "accel_val": 2000,
      "base_duration_us": 375000
    },
    {
      "id": "M_1906",
      "pitch": 69,
      "t_note_us": 148500000,
      "t_trigger_us": 148364037,
      "is_ai": false,
      "track_id": 0,
      "velocity": 0,
      "is_motor": true,
      "motor_id": 3,
      "accel_val": 2000,
      "base_duration_us": 375000
    },
    {
      "id": "M_1907",
      "pitch": 64,
      "t_note_us": 148687500,
      "t_trigger_us": 148551537,
      "is_ai": false,
      "track_id": 0,
      "velocity": 0,
      "is_motor": true,
      "motor_id": 0,
      "accel_val": 2000,
      "base_duration_us": 187500
    },
    {
      "id": "M_1908",
      "pitch": 53,
      "t_note_us": 148875000,
      "t_trigger_us": 148739037,
      "is_ai": false,
      "track_id": 0,
      "velocity": 0,
      "is_motor": true,
      "motor_id": 0,
      "accel_val": 2000,
      "base_duration_us": 187500
    },
    {
      "id": "M_1910",
      "pitch": 76,
      "t_note_us": 148875000,
      "t_trigger_us": 148739037,
      "is_ai": false,
      "track_id": 0,
      "velocity": 0,
      "is_motor": true,
      "motor_id": 2,
      "accel_val": 2000,
      "base_duration_us": 562500
    },
    {
      "id": "M_1914",
      "pitch": 76,
      "t_note_us": 148875000,
      "t_trigger_us": 148739037,
      "is_ai": false,
      "track_id": 0,
      "velocity": 0,
      "is_motor": true,
      "motor_id": 1,
      "accel_val": 2000,
      "base_duration_us": 750000
    },
    {
      "id": "M_1915",
      "pitch": 72,
      "t_note_us": 148875000,
      "t_trigger_us": 148739037,
      "is_ai": false,
      "track_id": 0,
      "velocity": 0,
      "is_motor": true,
      "motor_id": 3,
      "accel_val": 2000,
      "base_duration_us": 750000
    },
    {
      "id": "M_1909",
      "pitch": 53,
      "t_note_us": 149062500,
      "t_trigger_us": 148926537,
      "is_ai": false,
      "track_id": 0,
      "velocity": 0,
      "is_motor": true,
      "motor_id": 0,
      "accel_val": 2000,
      "base_duration_us": 187500
    },
    {
      "id": "M_1911",
      "pitch": 60,
      "t_note_us": 149250000,
      "t_trigger_us": 149114037,
      "is_ai": false,
      "track_id": 0,
      "velocity": 0,
      "is_motor": true,
      "motor_id": 0,
      "accel_val": 2000,
      "base_duration_us": 187500
    },
    {
      "id": "M_1912",
      "pitch": 65,
      "t_note_us": 149250000,
      "t_trigger_us": 149114037,
      "is_ai": false,
      "track_id": 0,
      "velocity": 0,
      "is_motor": true,
      "motor_id": 0,
      "accel_val": 2000,
      "base_duration_us": 187500
    },
    {
      "id": "M_1913",
      "pitch": 76,
      "t_note_us": 149437500,
      "t_trigger_us": 149301537,
      "is_ai": false,
      "track_id": 0,
      "velocity": 0,
      "is_motor": true,
      "motor_id": 2,
      "accel_val": 2000,
      "base_duration_us": 187500
    },
    {
      "id": "M_1916",
      "pitch": 53,
      "t_note_us": 149437500,
      "t_trigger_us": 149301537,
      "is_ai": false,
      "track_id": 0,
      "velocity": 0,
      "is_motor": true,
      "motor_id": 0,
      "accel_val": 2000,
      "base_duration_us": 187500
    },
    {
      "id": "M_1917",
      "pitch": 53,
      "t_note_us": 149625000,
      "t_trigger_us": 149489037,
      "is_ai": false,
      "track_id": 0,
      "velocity": 0,
      "is_motor": true,
      "motor_id": 0,
      "accel_val": 2000,
      "base_duration_us": 187500
    },
    {
      "id": "M_1918",
      "pitch": 69,
      "t_note_us": 149625000,
      "t_trigger_us": 149489037,
      "is_ai": false,
      "track_id": 0,
      "velocity": 0,
      "is_motor": true,
      "motor_id": 1,
      "accel_val": 2000,
      "base_duration_us": 375000
    },
    {
      "id": "M_1924",
      "pitch": 71,
      "t_note_us": 149625000,
      "t_trigger_us": 149489037,
      "is_ai": false,
      "track_id": 0,
      "velocity": 0,
      "is_motor": true,
      "motor_id": 2,
      "accel_val": 2000,
      "base_duration_us": 750000
    },
    {
      "id": "M_1925",
      "pitch": 74,
      "t_note_us": 149625000,
      "t_trigger_us": 149489037,
      "is_ai": false,
      "track_id": 0,
      "velocity": 0,
      "is_motor": true,
      "motor_id": 3,
      "accel_val": 2000,
      "base_duration_us": 750000
    },
    {
      "id": "M_1919",
      "pitch": 53,
      "t_note_us": 149812500,
      "t_trigger_us": 149676537,
      "is_ai": false,
      "track_id": 0,
      "velocity": 0,
      "is_motor": true,
      "motor_id": 0,
      "accel_val": 2000,
      "base_duration_us": 187500
    },
    {
      "id": "M_1920",
      "pitch": 60,
      "t_note_us": 150000000,
      "t_trigger_us": 149864037,
      "is_ai": false,
      "track_id": 0,
      "velocity": 0,
      "is_motor": true,
      "motor_id": 1,
      "accel_val": 2000,
      "base_duration_us": 187500
    },
    {
      "id": "M_1921",
      "pitch": 65,
      "t_note_us": 150000000,
      "t_trigger_us": 149864037,
      "is_ai": false,
      "track_id": 0,
      "velocity": 0,
      "is_motor": true,
      "motor_id": 0,
      "accel_val": 2000,
      "base_duration_us": 187500
    },
    {
      "id": "M_1922",
      "pitch": 76,
      "t_note_us": 150000000,
      "t_trigger_us": 149864037,
      "is_ai": false,
      "track_id": 0,
      "velocity": 0,
      "is_motor": true,
      "motor_id": 0,
      "accel_val": 2000,
      "base_duration_us": 375000
    },
    {
      "id": "M_1923",
      "pitch": 69,
      "t_note_us": 150000000,
      "t_trigger_us": 149864037,
      "is_ai": false,
      "track_id": 0,
      "velocity": 0,
      "is_motor": true,
      "motor_id": 0,
      "accel_val": 2000,
      "base_duration_us": 375000
    },
    {
      "id": "M_1926",
      "pitch": 53,
      "t_note_us": 150187500,
      "t_trigger_us": 150051537,
      "is_ai": false,
      "track_id": 0,
      "velocity": 0,
      "is_motor": true,
      "motor_id": 0,
      "accel_val": 2000,
      "base_duration_us": 187500
    },
    {
      "id": "M_1927",
      "pitch": 55,
      "t_note_us": 150375000,
      "t_trigger_us": 150239037,
      "is_ai": false,
      "track_id": 0,
      "velocity": 0,
      "is_motor": true,
      "motor_id": 0,
      "accel_val": 2000,
      "base_duration_us": 187500
    },
    {
      "id": "M_1928",
      "pitch": 76,
      "t_note_us": 150375000,
      "t_trigger_us": 150239037,
      "is_ai": false,
      "track_id": 0,
      "velocity": 0,
      "is_motor": true,
      "motor_id": 2,
      "accel_val": 2000,
      "base_duration_us": 375000
    },
    {
      "id": "M_1929",
      "pitch": 67,
      "t_note_us": 150375000,
      "t_trigger_us": 150239037,
      "is_ai": false,
      "track_id": 0,
      "velocity": 0,
      "is_motor": true,
      "motor_id": 1,
      "accel_val": 2000,
      "base_duration_us": 375000
    },
    {
      "id": "M_1935",
      "pitch": 69,
      "t_note_us": 150375000,
      "t_trigger_us": 150239037,
      "is_ai": false,
      "track_id": 0,
      "velocity": 0,
      "is_motor": true,
      "motor_id": 3,
      "accel_val": 2000,
      "base_duration_us": 750000
    },
    {
      "id": "M_1936",
      "pitch": 72,
      "t_note_us": 150375000,
      "t_trigger_us": 150239037,
      "is_ai": false,
      "track_id": 0,
      "velocity": 0,
      "is_motor": true,
      "motor_id": 0,
      "accel_val": 2000,
      "base_duration_us": 750000
    },
    {
      "id": "M_1930",
      "pitch": 55,
      "t_note_us": 150562500,
      "t_trigger_us": 150426537,
      "is_ai": false,
      "track_id": 0,
      "velocity": 0,
      "is_motor": true,
      "motor_id": 0,
      "accel_val": 2000,
      "base_duration_us": 187500
    },
    {
      "id": "M_1931",
      "pitch": 62,
      "t_note_us": 150750000,
      "t_trigger_us": 150614037,
      "is_ai": false,
      "track_id": 0,
      "velocity": 0,
      "is_motor": true,
      "motor_id": 1,
      "accel_val": 2000,
      "base_duration_us": 187500
    },
    {
      "id": "M_1932",
      "pitch": 67,
      "t_note_us": 150750000,
      "t_trigger_us": 150614037,
      "is_ai": false,
      "track_id": 0,
      "velocity": 0,
      "is_motor": true,
      "motor_id": 2,
      "accel_val": 2000,
      "base_duration_us": 187500
    },
    {
      "id": "M_1933",
      "pitch": 76,
      "t_note_us": 150750000,
      "t_trigger_us": 150614037,
      "is_ai": false,
      "track_id": 0,
      "velocity": 0,
      "is_motor": true,
      "motor_id": 0,
      "accel_val": 2000,
      "base_duration_us": 375000
    },
    {
      "id": "M_1934",
      "pitch": 69,
      "t_note_us": 150750000,
      "t_trigger_us": 150614037,
      "is_ai": false,
      "track_id": 0,
      "velocity": 0,
      "is_motor": true,
      "motor_id": 0,
      "accel_val": 2000,
      "base_duration_us": 375000
    },
    {
      "id": "M_1937",
      "pitch": 55,
      "t_note_us": 150937500,
      "t_trigger_us": 150801537,
      "is_ai": false,
      "track_id": 0,
      "velocity": 0,
      "is_motor": true,
      "motor_id": 1,
      "accel_val": 2000,
      "base_duration_us": 187500
    },
    {
      "id": "M_1938",
      "pitch": 55,
      "t_note_us": 151125000,
      "t_trigger_us": 150989037,
      "is_ai": false,
      "track_id": 0,
      "velocity": 0,
      "is_motor": true,
      "motor_id": 0,
      "accel_val": 2000,
      "base_duration_us": 187500
    },
    {
      "id": "M_1939",
      "pitch": 76,
      "t_note_us": 151125000,
      "t_trigger_us": 150989037,
      "is_ai": false,
      "track_id": 0,
      "velocity": 0,
      "is_motor": true,
      "motor_id": 2,
      "accel_val": 2000,
      "base_duration_us": 375000
    },
    {
      "id": "M_1940",
      "pitch": 69,
      "t_note_us": 151125000,
      "t_trigger_us": 150989037,
      "is_ai": false,
      "track_id": 0,
      "velocity": 0,
      "is_motor": true,
      "motor_id": 1,
      "accel_val": 2000,
      "base_duration_us": 375000
    },
    {
      "id": "M_1941",
      "pitch": 55,
      "t_note_us": 151312500,
      "t_trigger_us": 151176537,
      "is_ai": false,
      "track_id": 0,
      "velocity": 0,
      "is_motor": true,
      "motor_id": 0,
      "accel_val": 2000,
      "base_duration_us": 187500
    },
    {
      "id": "M_1942",
      "pitch": 62,
      "t_note_us": 151500000,
      "t_trigger_us": 151364037,
      "is_ai": false,
      "track_id": 0,
      "velocity": 0,
      "is_motor": true,
      "motor_id": 1,
      "accel_val": 2000,
      "base_duration_us": 187500
    },
    {
      "id": "M_1943",
      "pitch": 67,
      "t_note_us": 151500000,
      "t_trigger_us": 151364037,
      "is_ai": false,
      "track_id": 0,
      "velocity": 0,
      "is_motor": true,
      "motor_id": 2,
      "accel_val": 2000,
      "base_duration_us": 187500
    },
    {
      "id": "M_1944",
      "pitch": 71,
      "t_note_us": 151687500,
      "t_trigger_us": 151551537,
      "is_ai": false,
      "track_id": 0,
      "velocity": 0,
      "is_motor": true,
      "motor_id": 1,
      "accel_val": 2000,
      "base_duration_us": 187500
    },
    {
      "id": "M_1945",
      "pitch": 74,
      "t_note_us": 151687500,
      "t_trigger_us": 151551537,
      "is_ai": false,
      "track_id": 0,
      "velocity": 0,
      "is_motor": true,
      "motor_id": 0,
      "accel_val": 2000,
      "base_duration_us": 187500
    },
    {
      "id": "M_1946",
      "pitch": 67,
      "t_note_us": 151687500,
      "t_trigger_us": 151551537,
      "is_ai": false,
      "track_id": 0,
      "velocity": 0,
      "is_motor": true,
      "motor_id": 2,
      "accel_val": 2000,
      "base_duration_us": 187500
    },
    {
      "id": "M_1947",
      "pitch": 55,
      "t_note_us": 151687500,
      "t_trigger_us": 151551537,
      "is_ai": false,
      "track_id": 0,
      "velocity": 0,
      "is_motor": true,
      "motor_id": 3,
      "accel_val": 2000,
      "base_duration_us": 187500
    },
    {
      "id": "M_1948",
      "pitch": 57,
      "t_note_us": 151875000,
      "t_trigger_us": 151739037,
      "is_ai": false,
      "track_id": 0,
      "velocity": 0,
      "is_motor": true,
      "motor_id": 0,
      "accel_val": 2000,
      "base_duration_us": 187500
    },
    {
      "id": "M_1950",
      "pitch": 72,
      "t_note_us": 151875000,
      "t_trigger_us": 151739037,
      "is_ai": false,
      "track_id": 0,
      "velocity": 0,
      "is_motor": true,
      "motor_id": 1,
      "accel_val": 2000,
      "base_duration_us": 562500
    },
    {
      "id": "M_1951",
      "pitch": 76,
      "t_note_us": 151875000,
      "t_trigger_us": 151739037,
      "is_ai": false,
      "track_id": 0,
      "velocity": 0,
      "is_motor": true,
      "motor_id": 2,
      "accel_val": 2000,
      "base_duration_us": 562500
    },
    {
      "id": "M_1952",
      "pitch": 69,
      "t_note_us": 151875000,
      "t_trigger_us": 151739037,
      "is_ai": false,
      "track_id": 0,
      "velocity": 0,
      "is_motor": true,
      "motor_id": 3,
      "accel_val": 2000,
      "base_duration_us": 562500
    },
    {
      "id": "M_1949",
      "pitch": 69,
      "t_note_us": 152062500,
      "t_trigger_us": 151926537,
      "is_ai": false,
      "track_id": 0,
      "velocity": 0,
      "is_motor": true,
      "motor_id": 0,
      "accel_val": 2000,
      "base_duration_us": 187500
    },
    {
      "id": "M_1953",
      "pitch": 57,
      "t_note_us": 152250000,
      "t_trigger_us": 152114037,
      "is_ai": false,
      "track_id": 0,
      "velocity": 0,
      "is_motor": true,
      "motor_id": 0,
      "accel_val": 2000,
      "base_duration_us": 187500
    },
    {
      "id": "M_1954",
      "pitch": 76,
      "t_note_us": 152437500,
      "t_trigger_us": 152301537,
      "is_ai": false,
      "track_id": 0,
      "velocity": 0,
      "is_motor": true,
      "motor_id": 2,
      "accel_val": 2000,
      "base_duration_us": 187500
    },
    {
      "id": "M_1955",
      "pitch": 67,
      "t_note_us": 152437500,
      "t_trigger_us": 152301537,
      "is_ai": false,
      "track_id": 0,
      "velocity": 0,
      "is_motor": true,
      "motor_id": 1,
      "accel_val": 2000,
      "base_duration_us": 187500
    },
    {
      "id": "M_1956",
      "pitch": 72,
      "t_note_us": 152437500,
      "t_trigger_us": 152301537,
      "is_ai": false,
      "track_id": 0,
      "velocity": 0,
      "is_motor": true,
      "motor_id": 0,
      "accel_val": 2000,
      "base_duration_us": 187500
    },
    {
      "id": "M_1957",
      "pitch": 69,
      "t_note_us": 152437500,
      "t_trigger_us": 152301537,
      "is_ai": false,
      "track_id": 0,
      "velocity": 0,
      "is_motor": true,
      "motor_id": 3,
      "accel_val": 2000,
      "base_duration_us": 187500
    },
    {
      "id": "M_1958",
      "pitch": 59,
      "t_note_us": 152625000,
      "t_trigger_us": 152489037,
      "is_ai": false,
      "track_id": 0,
      "velocity": 0,
      "is_motor": true,
      "motor_id": 0,
      "accel_val": 2000,
      "base_duration_us": 187500
    },
    {
      "id": "M_1959",
      "pitch": 76,
      "t_note_us": 152625000,
      "t_trigger_us": 152489037,
      "is_ai": false,
      "track_id": 0,
      "velocity": 0,
      "is_motor": true,
      "motor_id": 2,
      "accel_val": 2000,
      "base_duration_us": 375000
    },
    {
      "id": "M_1960",
      "pitch": 67,
      "t_note_us": 152625000,
      "t_trigger_us": 152489037,
      "is_ai": false,
      "track_id": 0,
      "velocity": 0,
      "is_motor": true,
      "motor_id": 1,
      "accel_val": 2000,
      "base_duration_us": 375000
    },
    {
      "id": "M_1961",
      "pitch": 72,
      "t_note_us": 152625000,
      "t_trigger_us": 152489037,
      "is_ai": false,
      "track_id": 0,
      "velocity": 0,
      "is_motor": true,
      "motor_id": 3,
      "accel_val": 2000,
      "base_duration_us": 375000
    },
    {
      "id": "M_1962",
      "pitch": 71,
      "t_note_us": 152812500,
      "t_trigger_us": 152676537,
      "is_ai": false,
      "track_id": 0,
      "velocity": 0,
      "is_motor": true,
      "motor_id": 0,
      "accel_val": 2000,
      "base_duration_us": 187500
    },
    {
      "id": "M_1963",
      "pitch": 76,
      "t_note_us": 153000000,
      "t_trigger_us": 152864037,
      "is_ai": false,
      "track_id": 0,
      "velocity": 0,
      "is_motor": true,
      "motor_id": 2,
      "accel_val": 2000,
      "base_duration_us": 187500
    },
    {
      "id": "M_1964",
      "pitch": 69,
      "t_note_us": 153000000,
      "t_trigger_us": 152864037,
      "is_ai": false,
      "track_id": 0,
      "velocity": 0,
      "is_motor": true,
      "motor_id": 1,
      "accel_val": 2000,
      "base_duration_us": 187500
    },
    {
      "id": "M_1965",
      "pitch": 76,
      "t_note_us": 153000000,
      "t_trigger_us": 152864037,
      "is_ai": false,
      "track_id": 0,
      "velocity": 0,
      "is_motor": true,
      "motor_id": 3,
      "accel_val": 2000,
      "base_duration_us": 187500
    },
    {
      "id": "M_1966",
      "pitch": 59,
      "t_note_us": 153000000,
      "t_trigger_us": 152864037,
      "is_ai": false,
      "track_id": 0,
      "velocity": 0,
      "is_motor": true,
      "motor_id": 0,
      "accel_val": 2000,
      "base_duration_us": 187500
    },
    {
      "id": "M_1967",
      "pitch": 74,
      "t_note_us": 153187500,
      "t_trigger_us": 153051537,
      "is_ai": false,
      "track_id": 0,
      "velocity": 0,
      "is_motor": true,
      "motor_id": 1,
      "accel_val": 2000,
      "base_duration_us": 187500
    },
    {
      "id": "M_1968",
      "pitch": 74,
      "t_note_us": 153187500,
      "t_trigger_us": 153051537,
      "is_ai": false,
      "track_id": 0,
      "velocity": 0,
      "is_motor": true,
      "motor_id": 0,
      "accel_val": 2000,
      "base_duration_us": 187500
    },
    {
      "id": "M_1969",
      "pitch": 71,
      "t_note_us": 153187500,
      "t_trigger_us": 153051537,
      "is_ai": false,
      "track_id": 0,
      "velocity": 0,
      "is_motor": true,
      "motor_id": 2,
      "accel_val": 2000,
      "base_duration_us": 187500
    },
    {
      "id": "M_1970",
      "pitch": 60,
      "t_note_us": 153375000,
      "t_trigger_us": 153239037,
      "is_ai": false,
      "track_id": 0,
      "velocity": 0,
      "is_motor": true,
      "motor_id": 1,
      "accel_val": 2000,
      "base_duration_us": 187500
    },
    {
      "id": "M_1973",
      "pitch": 76,
      "t_note_us": 153375000,
      "t_trigger_us": 153239037,
      "is_ai": false,
      "track_id": 0,
      "velocity": 0,
      "is_motor": true,
      "motor_id": 2,
      "accel_val": 2000,
      "base_duration_us": 750000
    },
    {
      "id": "M_1974",
      "pitch": 69,
      "t_note_us": 153375000,
      "t_trigger_us": 153239037,
      "is_ai": false,
      "track_id": 0,
      "velocity": 0,
      "is_motor": true,
      "motor_id": 0,
      "accel_val": 2000,
      "base_duration_us": 750000
    },
    {
      "id": "M_1975",
      "pitch": 76,
      "t_note_us": 153375000,
      "t_trigger_us": 153239037,
      "is_ai": false,
      "track_id": 0,
      "velocity": 0,
      "is_motor": true,
      "motor_id": 3,
      "accel_val": 2000,
      "base_duration_us": 750000
    },
    {
      "id": "M_1971",
      "pitch": 72,
      "t_note_us": 153562500,
      "t_trigger_us": 153426537,
      "is_ai": false,
      "track_id": 0,
      "velocity": 0,
      "is_motor": true,
      "motor_id": 1,
      "accel_val": 2000,
      "base_duration_us": 187500
    },
    {
      "id": "M_1972",
      "pitch": 60,
      "t_note_us": 153750000,
      "t_trigger_us": 153614037,
      "is_ai": false,
      "track_id": 0,
      "velocity": 0,
      "is_motor": true,
      "motor_id": 1,
      "accel_val": 2000,
      "base_duration_us": 187500
    },
    {
      "id": "M_1976",
      "pitch": 72,
      "t_note_us": 153937500,
      "t_trigger_us": 153801537,
      "is_ai": false,
      "track_id": 0,
      "velocity": 0,
      "is_motor": true,
      "motor_id": 1,
      "accel_val": 2000,
      "base_duration_us": 187500
    },
    {
      "id": "M_1977",
      "pitch": 64,
      "t_note_us": 154125000,
      "t_trigger_us": 153989037,
      "is_ai": false,
      "track_id": 0,
      "velocity": 0,
      "is_motor": true,
      "motor_id": 1,
      "accel_val": 2000,
      "base_duration_us": 187500
    },
    {
      "id": "M_1978",
      "pitch": 74,
      "t_note_us": 154125000,
      "t_trigger_us": 153989037,
      "is_ai": false,
      "track_id": 0,
      "velocity": 0,
      "is_motor": true,
      "motor_id": 0,
      "accel_val": 2000,
      "base_duration_us": 375000
    },
    {
      "id": "M_1979",
      "pitch": 67,
      "t_note_us": 154125000,
      "t_trigger_us": 153989037,
      "is_ai": false,
      "track_id": 0,
      "velocity": 0,
      "is_motor": true,
      "motor_id": 2,
      "accel_val": 2000,
      "base_duration_us": 375000
    },
    {
      "id": "M_1980",
      "pitch": 76,
      "t_note_us": 154312500,
      "t_trigger_us": 154176537,
      "is_ai": false,
      "track_id": 0,
      "velocity": 0,
      "is_motor": true,
      "motor_id": 1,
      "accel_val": 2000,
      "base_duration_us": 187500
    },
    {
      "id": "M_1981",
      "pitch": 64,
      "t_note_us": 154500000,
      "t_trigger_us": 154364037,
      "is_ai": false,
      "track_id": 0,
      "velocity": 0,
      "is_motor": true,
      "motor_id": 1,
      "accel_val": 2000,
      "base_duration_us": 187500
    },
    {
      "id": "M_1982",
      "pitch": 76,
      "t_note_us": 154500000,
      "t_trigger_us": 154364037,
      "is_ai": false,
      "track_id": 0,
      "velocity": 0,
      "is_motor": true,
      "motor_id": 2,
      "accel_val": 2000,
      "base_duration_us": 375000
    },
    {
      "id": "M_1983",
      "pitch": 69,
      "t_note_us": 154500000,
      "t_trigger_us": 154364037,
      "is_ai": false,
      "track_id": 0,
      "velocity": 0,
      "is_motor": true,
      "motor_id": 0,
      "accel_val": 2000,
      "base_duration_us": 375000
    },
    {
      "id": "M_1984",
      "pitch": 76,
      "t_note_us": 154687500,
      "t_trigger_us": 154551537,
      "is_ai": false,
      "track_id": 0,
      "velocity": 0,
      "is_motor": true,
      "motor_id": 1,
      "accel_val": 2000,
      "base_duration_us": 187500
    },
    {
      "id": "M_1985",
      "pitch": 53,
      "t_note_us": 154875000,
      "t_trigger_us": 154739037,
      "is_ai": false,
      "track_id": 0,
      "velocity": 0,
      "is_motor": true,
      "motor_id": 0,
      "accel_val": 2000,
      "base_duration_us": 187500
    },
    {
      "id": "M_1991",
      "pitch": 76,
      "t_note_us": 154875000,
      "t_trigger_us": 154739037,
      "is_ai": false,
      "track_id": 0,
      "velocity": 0,
      "is_motor": true,
      "motor_id": 2,
      "accel_val": 2000,
      "base_duration_us": 1125000
    },
    {
      "id": "M_1992",
      "pitch": 69,
      "t_note_us": 154875000,
      "t_trigger_us": 154739037,
      "is_ai": false,
      "track_id": 0,
      "velocity": 0,
      "is_motor": true,
      "motor_id": 1,
      "accel_val": 2000,
      "base_duration_us": 1125000
    },
    {
      "id": "M_1993",
      "pitch": 72,
      "t_note_us": 154875000,
      "t_trigger_us": 154739037,
      "is_ai": false,
      "track_id": 0,
      "velocity": 0,
      "is_motor": true,
      "motor_id": 3,
      "accel_val": 2000,
      "base_duration_us": 1125000
    },
    {
      "id": "M_1994",
      "pitch": 76,
      "t_note_us": 154875000,
      "t_trigger_us": 154739037,
      "is_ai": false,
      "track_id": 0,
      "velocity": 0,
      "is_motor": true,
      "motor_id": 0,
      "accel_val": 2000,
      "base_duration_us": 1125000
    },
    {
      "id": "M_1986",
      "pitch": 53,
      "t_note_us": 155062500,
      "t_trigger_us": 154926537,
      "is_ai": false,
      "track_id": 0,
      "velocity": 0,
      "is_motor": true,
      "motor_id": 0,
      "accel_val": 2000,
      "base_duration_us": 187500
    },
    {
      "id": "M_1987",
      "pitch": 60,
      "t_note_us": 155250000,
      "t_trigger_us": 155114037,
      "is_ai": false,
      "track_id": 0,
      "velocity": 0,
      "is_motor": true,
      "motor_id": 0,
      "accel_val": 2000,
      "base_duration_us": 187500
    },
    {
      "id": "M_1988",
      "pitch": 65,
      "t_note_us": 155250000,
      "t_trigger_us": 155114037,
      "is_ai": false,
      "track_id": 0,
      "velocity": 0,
      "is_motor": true,
      "motor_id": 0,
      "accel_val": 2000,
      "base_duration_us": 187500
    },
    {
      "id": "M_1989",
      "pitch": 53,
      "t_note_us": 155437500,
      "t_trigger_us": 155301537,
      "is_ai": false,
      "track_id": 0,
      "velocity": 0,
      "is_motor": true,
      "motor_id": 0,
      "accel_val": 2000,
      "base_duration_us": 187500
    },
    {
      "id": "M_1990",
      "pitch": 53,
      "t_note_us": 155625000,
      "t_trigger_us": 155489037,
      "is_ai": false,
      "track_id": 0,
      "velocity": 0,
      "is_motor": true,
      "motor_id": 0,
      "accel_val": 2000,
      "base_duration_us": 187500
    },
    {
      "id": "M_1995",
      "pitch": 53,
      "t_note_us": 155812500,
      "t_trigger_us": 155676537,
      "is_ai": false,
      "track_id": 0,
      "velocity": 0,
      "is_motor": true,
      "motor_id": 0,
      "accel_val": 2000,
      "base_duration_us": 187500
    },
    {
      "id": "M_1996",
      "pitch": 72,
      "t_note_us": 156000000,
      "t_trigger_us": 155864037,
      "is_ai": false,
      "track_id": 0,
      "velocity": 0,
      "is_motor": true,
      "motor_id": 1,
      "accel_val": 2000,
      "base_duration_us": 187500
    },
    {
      "id": "M_1997",
      "pitch": 76,
      "t_note_us": 156000000,
      "t_trigger_us": 155864037,
      "is_ai": false,
      "track_id": 0,
      "velocity": 0,
      "is_motor": true,
      "motor_id": 2,
      "accel_val": 2000,
      "base_duration_us": 187500
    },
    {
      "id": "M_1998",
      "pitch": 69,
      "t_note_us": 156000000,
      "t_trigger_us": 155864037,
      "is_ai": false,
      "track_id": 0,
      "velocity": 0,
      "is_motor": true,
      "motor_id": 0,
      "accel_val": 2000,
      "base_duration_us": 187500
    },
    {
      "id": "M_1999",
      "pitch": 60,
      "t_note_us": 156000000,
      "t_trigger_us": 155864037,
      "is_ai": false,
      "track_id": 0,
      "velocity": 0,
      "is_motor": true,
      "motor_id": 3,
      "accel_val": 2000,
      "base_duration_us": 187500
    },
    {
      "id": "M_2000",
      "pitch": 65,
      "t_note_us": 156000000,
      "t_trigger_us": 155864037,
      "is_ai": false,
      "track_id": 0,
      "velocity": 0,
      "is_motor": true,
      "motor_id": 0,
      "accel_val": 2000,
      "base_duration_us": 187500
    },
    {
      "id": "M_2001",
      "pitch": 76,
      "t_note_us": 156187500,
      "t_trigger_us": 156051537,
      "is_ai": false,
      "track_id": 0,
      "velocity": 0,
      "is_motor": true,
      "motor_id": 2,
      "accel_val": 2000,
      "base_duration_us": 187500
    },
    {
      "id": "M_2002",
      "pitch": 69,
      "t_note_us": 156187500,
      "t_trigger_us": 156051537,
      "is_ai": false,
      "track_id": 0,
      "velocity": 0,
      "is_motor": true,
      "motor_id": 1,
      "accel_val": 2000,
      "base_duration_us": 187500
    },
    {
      "id": "M_2003",
      "pitch": 53,
      "t_note_us": 156187500,
      "t_trigger_us": 156051537,
      "is_ai": false,
      "track_id": 0,
      "velocity": 0,
      "is_motor": true,
      "motor_id": 0,
      "accel_val": 2000,
      "base_duration_us": 187500
    },
    {
      "id": "M_2004",
      "pitch": 55,
      "t_note_us": 156375000,
      "t_trigger_us": 156239037,
      "is_ai": false,
      "track_id": 0,
      "velocity": 0,
      "is_motor": true,
      "motor_id": 0,
      "accel_val": 2000,
      "base_duration_us": 187500
    },
    {
      "id": "M_2006",
      "pitch": 71,
      "t_note_us": 156375000,
      "t_trigger_us": 156239037,
      "is_ai": false,
      "track_id": 0,
      "velocity": 0,
      "is_motor": true,
      "motor_id": 1,
      "accel_val": 2000,
      "base_duration_us": 562500
    },
    {
      "id": "M_2007",
      "pitch": 74,
      "t_note_us": 156375000,
      "t_trigger_us": 156239037,
      "is_ai": false,
      "track_id": 0,
      "velocity": 0,
      "is_motor": true,
      "motor_id": 2,
      "accel_val": 2000,
      "base_duration_us": 562500
    },
    {
      "id": "M_2008",
      "pitch": 67,
      "t_note_us": 156375000,
      "t_trigger_us": 156239037,
      "is_ai": false,
      "track_id": 0,
      "velocity": 0,
      "is_motor": true,
      "motor_id": 3,
      "accel_val": 2000,
      "base_duration_us": 562500
    },
    {
      "id": "M_2005",
      "pitch": 55,
      "t_note_us": 156562500,
      "t_trigger_us": 156426537,
      "is_ai": false,
      "track_id": 0,
      "velocity": 0,
      "is_motor": true,
      "motor_id": 0,
      "accel_val": 2000,
      "base_duration_us": 187500
    },
    {
      "id": "M_2009",
      "pitch": 62,
      "t_note_us": 156750000,
      "t_trigger_us": 156614037,
      "is_ai": false,
      "track_id": 0,
      "velocity": 0,
      "is_motor": true,
      "motor_id": 0,
      "accel_val": 2000,
      "base_duration_us": 187500
    },
    {
      "id": "M_2010",
      "pitch": 67,
      "t_note_us": 156750000,
      "t_trigger_us": 156614037,
      "is_ai": false,
      "track_id": 0,
      "velocity": 0,
      "is_motor": true,
      "motor_id": 0,
      "accel_val": 2000,
      "base_duration_us": 187500
    },
    {
      "id": "M_2011",
      "pitch": 74,
      "t_note_us": 156937500,
      "t_trigger_us": 156801537,
      "is_ai": false,
      "track_id": 0,
      "velocity": 0,
      "is_motor": true,
      "motor_id": 1,
      "accel_val": 2000,
      "base_duration_us": 187500
    },
    {
      "id": "M_2012",
      "pitch": 67,
      "t_note_us": 156937500,
      "t_trigger_us": 156801537,
      "is_ai": false,
      "track_id": 0,
      "velocity": 0,
      "is_motor": true,
      "motor_id": 2,
      "accel_val": 2000,
      "base_duration_us": 187500
    },
    {
      "id": "M_2013",
      "pitch": 55,
      "t_note_us": 156937500,
      "t_trigger_us": 156801537,
      "is_ai": false,
      "track_id": 0,
      "velocity": 0,
      "is_motor": true,
      "motor_id": 0,
      "accel_val": 2000,
      "base_duration_us": 187500
    },
    {
      "id": "M_2014",
      "pitch": 72,
      "t_note_us": 157125000,
      "t_trigger_us": 156989037,
      "is_ai": false,
      "track_id": 0,
      "velocity": 0,
      "is_motor": true,
      "motor_id": 1,
      "accel_val": 2000,
      "base_duration_us": 187500
    },
    {
      "id": "M_2015",
      "pitch": 76,
      "t_note_us": 157125000,
      "t_trigger_us": 156989037,
      "is_ai": false,
      "track_id": 0,
      "velocity": 0,
      "is_motor": true,
      "motor_id": 2,
      "accel_val": 2000,
      "base_duration_us": 187500
    },
    {
      "id": "M_2016",
      "pitch": 69,
      "t_note_us": 157125000,
      "t_trigger_us": 156989037,
      "is_ai": false,
      "track_id": 0,
      "velocity": 0,
      "is_motor": true,
      "motor_id": 0,
      "accel_val": 2000,
      "base_duration_us": 187500
    },
    {
      "id": "M_2017",
      "pitch": 55,
      "t_note_us": 157125000,
      "t_trigger_us": 156989037,
      "is_ai": false,
      "track_id": 0,
      "velocity": 0,
      "is_motor": true,
      "motor_id": 3,
      "accel_val": 2000,
      "base_duration_us": 187500
    },
    {
      "id": "M_2018",
      "pitch": 74,
      "t_note_us": 157312500,
      "t_trigger_us": 157176537,
      "is_ai": false,
      "track_id": 0,
      "velocity": 0,
      "is_motor": true,
      "motor_id": 1,
      "accel_val": 2000,
      "base_duration_us": 187500
    },
    {
      "id": "M_2019",
      "pitch": 67,
      "t_note_us": 157312500,
      "t_trigger_us": 157176537,
      "is_ai": false,
      "track_id": 0,
      "velocity": 0,
      "is_motor": true,
      "motor_id": 2,
      "accel_val": 2000,
      "base_duration_us": 187500
    },
    {
      "id": "M_2020",
      "pitch": 55,
      "t_note_us": 157312500,
      "t_trigger_us": 157176537,
      "is_ai": false,
      "track_id": 0,
      "velocity": 0,
      "is_motor": true,
      "motor_id": 0,
      "accel_val": 2000,
      "base_duration_us": 187500
    },
    {
      "id": "M_2021",
      "pitch": 72,
      "t_note_us": 157500000,
      "t_trigger_us": 157364037,
      "is_ai": false,
      "track_id": 0,
      "velocity": 0,
      "is_motor": true,
      "motor_id": 1,
      "accel_val": 2000,
      "base_duration_us": 187500
    },
    {
      "id": "M_2022",
      "pitch": 76,
      "t_note_us": 157500000,
      "t_trigger_us": 157364037,
      "is_ai": false,
      "track_id": 0,
      "velocity": 0,
      "is_motor": true,
      "motor_id": 2,
      "accel_val": 2000,
      "base_duration_us": 187500
    },
    {
      "id": "M_2023",
      "pitch": 69,
      "t_note_us": 157500000,
      "t_trigger_us": 157364037,
      "is_ai": false,
      "track_id": 0,
      "velocity": 0,
      "is_motor": true,
      "motor_id": 0,
      "accel_val": 2000,
      "base_duration_us": 187500
    },
    {
      "id": "M_2024",
      "pitch": 62,
      "t_note_us": 157500000,
      "t_trigger_us": 157364037,
      "is_ai": false,
      "track_id": 0,
      "velocity": 0,
      "is_motor": true,
      "motor_id": 3,
      "accel_val": 2000,
      "base_duration_us": 187500
    },
    {
      "id": "M_2025",
      "pitch": 67,
      "t_note_us": 157500000,
      "t_trigger_us": 157364037,
      "is_ai": false,
      "track_id": 0,
      "velocity": 0,
      "is_motor": true,
      "motor_id": 0,
      "accel_val": 2000,
      "base_duration_us": 187500
    },
    {
      "id": "M_2026",
      "pitch": 76,
      "t_note_us": 157687500,
      "t_trigger_us": 157551537,
      "is_ai": false,
      "track_id": 0,
      "velocity": 0,
      "is_motor": true,
      "motor_id": 2,
      "accel_val": 2000,
      "base_duration_us": 187500
    },
    {
      "id": "M_2027",
      "pitch": 71,
      "t_note_us": 157687500,
      "t_trigger_us": 157551537,
      "is_ai": false,
      "track_id": 0,
      "velocity": 0,
      "is_motor": true,
      "motor_id": 1,
      "accel_val": 2000,
      "base_duration_us": 187500
    },
    {
      "id": "M_2028",
      "pitch": 55,
      "t_note_us": 157687500,
      "t_trigger_us": 157551537,
      "is_ai": false,
      "track_id": 0,
      "velocity": 0,
      "is_motor": true,
      "motor_id": 0,
      "accel_val": 2000,
      "base_duration_us": 187500
    },
    {
      "id": "M_2032",
      "pitch": 96,
      "t_note_us": 157875000,
      "t_trigger_us": 157739037,
      "is_ai": true,
      "track_id": 10,
      "velocity": 0,
      "is_motor": false,
      "motor_id": 0,
      "accel_val": 2000,
      "base_duration_us": 375000
    },
    {
      "id": "M_2029",
      "pitch": 57,
      "t_note_us": 157875000,
      "t_trigger_us": 157739037,
      "is_ai": false,
      "track_id": 0,
      "velocity": 0,
      "is_motor": true,
      "motor_id": 0,
      "accel_val": 2000,
      "base_duration_us": 187500
    },
    {
      "id": "M_2030",
      "pitch": 76,
      "t_note_us": 157875000,
      "t_trigger_us": 157739037,
      "is_ai": false,
      "track_id": 0,
      "velocity": 0,
      "is_motor": true,
      "motor_id": 2,
      "accel_val": 2000,
      "base_duration_us": 375000
    },
    {
      "id": "M_2031",
      "pitch": 69,
      "t_note_us": 157875000,
      "t_trigger_us": 157739037,
      "is_ai": false,
      "track_id": 0,
      "velocity": 0,
      "is_motor": true,
      "motor_id": 1,
      "accel_val": 2000,
      "base_duration_us": 375000
    },
    {
      "id": "M_2033",
      "pitch": 57,
      "t_note_us": 158062500,
      "t_trigger_us": 157926537,
      "is_ai": false,
      "track_id": 0,
      "velocity": 0,
      "is_motor": true,
      "motor_id": 0,
      "accel_val": 2000,
      "base_duration_us": 187500
    },
    {
      "id": "M_2034",
      "pitch": 64,
      "t_note_us": 158250000,
      "t_trigger_us": 158114037,
      "is_ai": false,
      "track_id": 0,
      "velocity": 0,
      "is_motor": true,
      "motor_id": 1,
      "accel_val": 2000,
      "base_duration_us": 187500
    },
    {
      "id": "M_2035",
      "pitch": 69,
      "t_note_us": 158250000,
      "t_trigger_us": 158114037,
      "is_ai": false,
      "track_id": 0,
      "velocity": 0,
      "is_motor": true,
      "motor_id": 2,
      "accel_val": 2000,
      "base_duration_us": 187500
    },
    {
      "id": "M_2036",
      "pitch": 74,
      "t_note_us": 158250000,
      "t_trigger_us": 158114037,
      "is_ai": false,
      "track_id": 0,
      "velocity": 0,
      "is_motor": true,
      "motor_id": 0,
      "accel_val": 2000,
      "base_duration_us": 375000
    },
    {
      "id": "M_2037",
      "pitch": 67,
      "t_note_us": 158250000,
      "t_trigger_us": 158114037,
      "is_ai": false,
      "track_id": 0,
      "velocity": 0,
      "is_motor": true,
      "motor_id": 3,
      "accel_val": 2000,
      "base_duration_us": 375000
    },
    {
      "id": "M_2038",
      "pitch": 71,
      "t_note_us": 158250000,
      "t_trigger_us": 158114037,
      "is_ai": false,
      "track_id": 0,
      "velocity": 0,
      "is_motor": true,
      "motor_id": 0,
      "accel_val": 2000,
      "base_duration_us": 375000
    },
    {
      "id": "M_2039",
      "pitch": 57,
      "t_note_us": 158437500,
      "t_trigger_us": 158301537,
      "is_ai": false,
      "track_id": 0,
      "velocity": 0,
      "is_motor": true,
      "motor_id": 1,
      "accel_val": 2000,
      "base_duration_us": 187500
    },
    {
      "id": "M_2040",
      "pitch": 57,
      "t_note_us": 158625000,
      "t_trigger_us": 158489037,
      "is_ai": false,
      "track_id": 0,
      "velocity": 0,
      "is_motor": true,
      "motor_id": 0,
      "accel_val": 2000,
      "base_duration_us": 187500
    },
    {
      "id": "M_2041",
      "pitch": 72,
      "t_note_us": 158625000,
      "t_trigger_us": 158489037,
      "is_ai": false,
      "track_id": 0,
      "velocity": 0,
      "is_motor": true,
      "motor_id": 1,
      "accel_val": 2000,
      "base_duration_us": 375000
    },
    {
      "id": "M_2042",
      "pitch": 76,
      "t_note_us": 158625000,
      "t_trigger_us": 158489037,
      "is_ai": false,
      "track_id": 0,
      "velocity": 0,
      "is_motor": true,
      "motor_id": 2,
      "accel_val": 2000,
      "base_duration_us": 375000
    },
    {
      "id": "M_2043",
      "pitch": 69,
      "t_note_us": 158625000,
      "t_trigger_us": 158489037,
      "is_ai": false,
      "track_id": 0,
      "velocity": 0,
      "is_motor": true,
      "motor_id": 3,
      "accel_val": 2000,
      "base_duration_us": 375000
    },
    {
      "id": "M_2044",
      "pitch": 57,
      "t_note_us": 158812500,
      "t_trigger_us": 158676537,
      "is_ai": false,
      "track_id": 0,
      "velocity": 0,
      "is_motor": true,
      "motor_id": 0,
      "accel_val": 2000,
      "base_duration_us": 187500
    },
    {
      "id": "M_2048",
      "pitch": 88,
      "t_note_us": 159000000,
      "t_trigger_us": 158864037,
      "is_ai": true,
      "track_id": 5,
      "velocity": 0,
      "is_motor": false,
      "motor_id": 0,
      "accel_val": 2000,
      "base_duration_us": 375000
    },
    {
      "id": "M_2049",
      "pitch": 91,
      "t_note_us": 159000000,
      "t_trigger_us": 158864037,
      "is_ai": true,
      "track_id": 7,
      "velocity": 0,
      "is_motor": false,
      "motor_id": 0,
      "accel_val": 2000,
      "base_duration_us": 375000
    },
    {
      "id": "M_2045",
      "pitch": 64,
      "t_note_us": 159000000,
      "t_trigger_us": 158864037,
      "is_ai": false,
      "track_id": 0,
      "velocity": 0,
      "is_motor": true,
      "motor_id": 1,
      "accel_val": 2000,
      "base_duration_us": 187500
    },
    {
      "id": "M_2046",
      "pitch": 69,
      "t_note_us": 159000000,
      "t_trigger_us": 158864037,
      "is_ai": false,
      "track_id": 0,
      "velocity": 0,
      "is_motor": true,
      "motor_id": 2,
      "accel_val": 2000,
      "base_duration_us": 187500
    },
    {
      "id": "M_2047",
      "pitch": 71,
      "t_note_us": 159000000,
      "t_trigger_us": 158864037,
      "is_ai": false,
      "track_id": 0,
      "velocity": 0,
      "is_motor": true,
      "motor_id": 0,
      "accel_val": 2000,
      "base_duration_us": 375000
    },
    {
      "id": "M_2050",
      "pitch": 57,
      "t_note_us": 159187500,
      "t_trigger_us": 159051537,
      "is_ai": false,
      "track_id": 0,
      "velocity": 0,
      "is_motor": true,
      "motor_id": 1,
      "accel_val": 2000,
      "base_duration_us": 187500
    },
    {
      "id": "M_2052",
      "pitch": 93,
      "t_note_us": 159375000,
      "t_trigger_us": 159239037,
      "is_ai": true,
      "track_id": 8,
      "velocity": 0,
      "is_motor": false,
      "motor_id": 0,
      "accel_val": 2000,
      "base_duration_us": 375000
    },
    {
      "id": "M_2053",
      "pitch": 96,
      "t_note_us": 159375000,
      "t_trigger_us": 159239037,
      "is_ai": true,
      "track_id": 10,
      "velocity": 0,
      "is_motor": false,
      "motor_id": 0,
      "accel_val": 2000,
      "base_duration_us": 375000
    },
    {
      "id": "M_2058",
      "pitch": 100,
      "t_note_us": 159375000,
      "t_trigger_us": 159239037,
      "is_ai": true,
      "track_id": 12,
      "velocity": 0,
      "is_motor": false,
      "motor_id": 0,
      "accel_val": 2000,
      "base_duration_us": 750000
    },
    {
      "id": "M_2051",
      "pitch": 60,
      "t_note_us": 159375000,
      "t_trigger_us": 159239037,
      "is_ai": false,
      "track_id": 0,
      "velocity": 0,
      "is_motor": true,
      "motor_id": 1,
      "accel_val": 2000,
      "base_duration_us": 187500
    },
    {
      "id": "M_2054",
      "pitch": 72,
      "t_note_us": 159562500,
      "t_trigger_us": 159426537,
      "is_ai": false,
      "track_id": 0,
      "velocity": 0,
      "is_motor": true,
      "motor_id": 1,
      "accel_val": 2000,
      "base_duration_us": 187500
    },
    {
      "id": "M_2056",
      "pitch": 95,
      "t_note_us": 159750000,
      "t_trigger_us": 159614037,
      "is_ai": true,
      "track_id": 9,
      "velocity": 0,
      "is_motor": false,
      "motor_id": 0,
      "accel_val": 2000,
      "base_duration_us": 375000
    },
    {
      "id": "M_2057",
      "pitch": 98,
      "t_note_us": 159750000,
      "t_trigger_us": 159614037,
      "is_ai": true,
      "track_id": 11,
      "velocity": 0,
      "is_motor": false,
      "motor_id": 0,
      "accel_val": 2000,
      "base_duration_us": 375000
    },
    {
      "id": "M_2055",
      "pitch": 60,
      "t_note_us": 159750000,
      "t_trigger_us": 159614037,
      "is_ai": false,
      "track_id": 0,
      "velocity": 0,
      "is_motor": true,
      "motor_id": 1,
      "accel_val": 2000,
      "base_duration_us": 187500
    },
    {
      "id": "M_2059",
      "pitch": 72,
      "t_note_us": 159937500,
      "t_trigger_us": 159801537,
      "is_ai": false,
      "track_id": 0,
      "velocity": 0,
      "is_motor": true,
      "motor_id": 1,
      "accel_val": 2000,
      "base_duration_us": 187500
    },
    {
      "id": "M_2061",
      "pitch": 84,
      "t_note_us": 160125000,
      "t_trigger_us": 159989037,
      "is_ai": true,
      "track_id": 3,
      "velocity": 0,
      "is_motor": false,
      "motor_id": 0,
      "accel_val": 2000,
      "base_duration_us": 375000
    },
    {
      "id": "M_2062",
      "pitch": 91,
      "t_note_us": 160125000,
      "t_trigger_us": 159989037,
      "is_ai": true,
      "track_id": 7,
      "velocity": 0,
      "is_motor": false,
      "motor_id": 0,
      "accel_val": 2000,
      "base_duration_us": 375000
    },
    {
      "id": "M_2060",
      "pitch": 52,
      "t_note_us": 160125000,
      "t_trigger_us": 159989037,
      "is_ai": false,
      "track_id": 0,
      "velocity": 0,
      "is_motor": true,
      "motor_id": 0,
      "accel_val": 2000,
      "base_duration_us": 187500
    },
    {
      "id": "M_2063",
      "pitch": 64,
      "t_note_us": 160312500,
      "t_trigger_us": 160176537,
      "is_ai": false,
      "track_id": 0,
      "velocity": 0,
      "is_motor": true,
      "motor_id": 1,
      "accel_val": 2000,
      "base_duration_us": 187500
    },
    {
      "id": "M_2066",
      "pitch": 88,
      "t_note_us": 160500000,
      "t_trigger_us": 160364037,
      "is_ai": true,
      "track_id": 5,
      "velocity": 0,
      "is_motor": false,
      "motor_id": 0,
      "accel_val": 2000,
      "base_duration_us": 375000
    },
    {
      "id": "M_2067",
      "pitch": 93,
      "t_note_us": 160500000,
      "t_trigger_us": 160364037,
      "is_ai": true,
      "track_id": 8,
      "velocity": 0,
      "is_motor": false,
      "motor_id": 0,
      "accel_val": 2000,
      "base_duration_us": 375000
    },
    {
      "id": "M_2064",
      "pitch": 52,
      "t_note_us": 160500000,
      "t_trigger_us": 160364037,
      "is_ai": false,
      "track_id": 0,
      "velocity": 0,
      "is_motor": true,
      "motor_id": 0,
      "accel_val": 2000,
      "base_duration_us": 187500
    },
    {
      "id": "M_2065",
      "pitch": 71,
      "t_note_us": 160500000,
      "t_trigger_us": 160364037,
      "is_ai": false,
      "track_id": 0,
      "velocity": 0,
      "is_motor": true,
      "motor_id": 1,
      "accel_val": 2000,
      "base_duration_us": 375000
    },
    {
      "id": "M_2068",
      "pitch": 64,
      "t_note_us": 160687500,
      "t_trigger_us": 160551537,
      "is_ai": false,
      "track_id": 0,
      "velocity": 0,
      "is_motor": true,
      "motor_id": 0,
      "accel_val": 2000,
      "base_duration_us": 187500
    },
    {
      "id": "M_2073",
      "pitch": 88,
      "t_note_us": 160875000,
      "t_trigger_us": 160739037,
      "is_ai": true,
      "track_id": 5,
      "velocity": 0,
      "is_motor": false,
      "motor_id": 0,
      "accel_val": 2000,
      "base_duration_us": 750000
    },
    {
      "id": "M_2074",
      "pitch": 96,
      "t_note_us": 160875000,
      "t_trigger_us": 160739037,
      "is_ai": true,
      "track_id": 10,
      "velocity": 0,
      "is_motor": false,
      "motor_id": 0,
      "accel_val": 2000,
      "base_duration_us": 750000
    },
    {
      "id": "M_2077",
      "pitch": 100,
      "t_note_us": 160875000,
      "t_trigger_us": 160739037,
      "is_ai": true,
      "track_id": 12,
      "velocity": 0,
      "is_motor": false,
      "motor_id": 0,
      "accel_val": 2000,
      "base_duration_us": 1125000
    },
    {
      "id": "M_2069",
      "pitch": 53,
      "t_note_us": 160875000,
      "t_trigger_us": 160739037,
      "is_ai": false,
      "track_id": 0,
      "velocity": 0,
      "is_motor": true,
      "motor_id": 0,
      "accel_val": 2000,
      "base_duration_us": 187500
    },
    {
      "id": "M_2070",
      "pitch": 53,
      "t_note_us": 161062500,
      "t_trigger_us": 160926537,
      "is_ai": false,
      "track_id": 0,
      "velocity": 0,
      "is_motor": true,
      "motor_id": 0,
      "accel_val": 2000,
      "base_duration_us": 187500
    },
    {
      "id": "M_2071",
      "pitch": 60,
      "t_note_us": 161250000,
      "t_trigger_us": 161114037,
      "is_ai": false,
      "track_id": 0,
      "velocity": 0,
      "is_motor": true,
      "motor_id": 1,
      "accel_val": 2000,
      "base_duration_us": 187500
    },
    {
      "id": "M_2072",
      "pitch": 65,
      "t_note_us": 161250000,
      "t_trigger_us": 161114037,
      "is_ai": false,
      "track_id": 0,
      "velocity": 0,
      "is_motor": true,
      "motor_id": 0,
      "accel_val": 2000,
      "base_duration_us": 187500
    },
    {
      "id": "M_2075",
      "pitch": 53,
      "t_note_us": 161437500,
      "t_trigger_us": 161301537,
      "is_ai": false,
      "track_id": 0,
      "velocity": 0,
      "is_motor": true,
      "motor_id": 0,
      "accel_val": 2000,
      "base_duration_us": 187500
    },
    {
      "id": "M_2085",
      "pitch": 95,
      "t_note_us": 161625000,
      "t_trigger_us": 161489037,
      "is_ai": true,
      "track_id": 9,
      "velocity": 0,
      "is_motor": false,
      "motor_id": 0,
      "accel_val": 2000,
      "base_duration_us": 750000
    },
    {
      "id": "M_2086",
      "pitch": 98,
      "t_note_us": 161625000,
      "t_trigger_us": 161489037,
      "is_ai": true,
      "track_id": 11,
      "velocity": 0,
      "is_motor": false,
      "motor_id": 0,
      "accel_val": 2000,
      "base_duration_us": 750000
    },
    {
      "id": "M_2076",
      "pitch": 53,
      "t_note_us": 161625000,
      "t_trigger_us": 161489037,
      "is_ai": false,
      "track_id": 0,
      "velocity": 0,
      "is_motor": true,
      "motor_id": 0,
      "accel_val": 2000,
      "base_duration_us": 187500
    },
    {
      "id": "M_2078",
      "pitch": 53,
      "t_note_us": 161812500,
      "t_trigger_us": 161676537,
      "is_ai": false,
      "track_id": 0,
      "velocity": 0,
      "is_motor": true,
      "motor_id": 0,
      "accel_val": 2000,
      "base_duration_us": 187500
    },
    {
      "id": "M_2079",
      "pitch": 88,
      "t_note_us": 162000000,
      "t_trigger_us": 161864037,
      "is_ai": true,
      "track_id": 5,
      "velocity": 0,
      "is_motor": false,
      "motor_id": 0,
      "accel_val": 2000,
      "base_duration_us": 187500
    },
    {
      "id": "M_2080",
      "pitch": 93,
      "t_note_us": 162000000,
      "t_trigger_us": 161864037,
      "is_ai": true,
      "track_id": 8,
      "velocity": 0,
      "is_motor": false,
      "motor_id": 0,
      "accel_val": 2000,
      "base_duration_us": 187500
    },
    {
      "id": "M_2081",
      "pitch": 60,
      "t_note_us": 162000000,
      "t_trigger_us": 161864037,
      "is_ai": false,
      "track_id": 0,
      "velocity": 0,
      "is_motor": true,
      "motor_id": 1,
      "accel_val": 2000,
      "base_duration_us": 187500
    },
    {
      "id": "M_2082",
      "pitch": 65,
      "t_note_us": 162000000,
      "t_trigger_us": 161864037,
      "is_ai": false,
      "track_id": 0,
      "velocity": 0,
      "is_motor": true,
      "motor_id": 0,
      "accel_val": 2000,
      "base_duration_us": 187500
    },
    {
      "id": "M_2083",
      "pitch": 88,
      "t_note_us": 162187500,
      "t_trigger_us": 162051537,
      "is_ai": true,
      "track_id": 5,
      "velocity": 0,
      "is_motor": false,
      "motor_id": 0,
      "accel_val": 2000,
      "base_duration_us": 187500
    },
    {
      "id": "M_2084",
      "pitch": 93,
      "t_note_us": 162187500,
      "t_trigger_us": 162051537,
      "is_ai": true,
      "track_id": 8,
      "velocity": 0,
      "is_motor": false,
      "motor_id": 0,
      "accel_val": 2000,
      "base_duration_us": 187500
    },
    {
      "id": "M_2087",
      "pitch": 53,
      "t_note_us": 162187500,
      "t_trigger_us": 162051537,
      "is_ai": false,
      "track_id": 0,
      "velocity": 0,
      "is_motor": true,
      "motor_id": 0,
      "accel_val": 2000,
      "base_duration_us": 187500
    },
    {
      "id": "M_2089",
      "pitch": 91,
      "t_note_us": 162375000,
      "t_trigger_us": 162239037,
      "is_ai": true,
      "track_id": 7,
      "velocity": 0,
      "is_motor": false,
      "motor_id": 0,
      "accel_val": 2000,
      "base_duration_us": 375000
    },
    {
      "id": "M_2094",
      "pitch": 84,
      "t_note_us": 162375000,
      "t_trigger_us": 162239037,
      "is_ai": true,
      "track_id": 3,
      "velocity": 0,
      "is_motor": false,
      "motor_id": 0,
      "accel_val": 2000,
      "base_duration_us": 750000
    },
    {
      "id": "M_2088",
      "pitch": 54,
      "t_note_us": 162375000,
      "t_trigger_us": 162239037,
      "is_ai": false,
      "track_id": 0,
      "velocity": 0,
      "is_motor": true,
      "motor_id": 0,
      "accel_val": 2000,
      "base_duration_us": 187500
    },
    {
      "id": "M_2093",
      "pitch": 69,
      "t_note_us": 162375000,
      "t_trigger_us": 162239037,
      "is_ai": false,
      "track_id": 0,
      "velocity": 0,
      "is_motor": true,
      "motor_id": 1,
      "accel_val": 2000,
      "base_duration_us": 750000
    },
    {
      "id": "M_2090",
      "pitch": 54,
      "t_note_us": 162562500,
      "t_trigger_us": 162426537,
      "is_ai": false,
      "track_id": 0,
      "velocity": 0,
      "is_motor": true,
      "motor_id": 0,
      "accel_val": 2000,
      "base_duration_us": 187500
    },
    {
      "id": "M_2091",
      "pitch": 61,
      "t_note_us": 162750000,
      "t_trigger_us": 162614037,
      "is_ai": false,
      "track_id": 0,
      "velocity": 0,
      "is_motor": true,
      "motor_id": 0,
      "accel_val": 2000,
      "base_duration_us": 187500
    },
    {
      "id": "M_2092",
      "pitch": 66,
      "t_note_us": 162750000,
      "t_trigger_us": 162614037,
      "is_ai": false,
      "track_id": 0,
      "velocity": 0,
      "is_motor": true,
      "motor_id": 2,
      "accel_val": 2000,
      "base_duration_us": 187500
    },
    {
      "id": "M_2095",
      "pitch": 54,
      "t_note_us": 162937500,
      "t_trigger_us": 162801537,
      "is_ai": false,
      "track_id": 0,
      "velocity": 0,
      "is_motor": true,
      "motor_id": 0,
      "accel_val": 2000,
      "base_duration_us": 187500
    },
    {
      "id": "M_2096",
      "pitch": 54,
      "t_note_us": 163125000,
      "t_trigger_us": 162989037,
      "is_ai": false,
      "track_id": 0,
      "velocity": 0,
      "is_motor": true,
      "motor_id": 0,
      "accel_val": 2000,
      "base_duration_us": 187500
    },
    {
      "id": "M_2103",
      "pitch": 67,
      "t_note_us": 163125000,
      "t_trigger_us": 162989037,
      "is_ai": false,
      "track_id": 0,
      "velocity": 0,
      "is_motor": true,
      "motor_id": 1,
      "accel_val": 2000,
      "base_duration_us": 750000
    },
    {
      "id": "M_2104",
      "pitch": 70,
      "t_note_us": 163125000,
      "t_trigger_us": 162989037,
      "is_ai": false,
      "track_id": 0,
      "velocity": 0,
      "is_motor": true,
      "motor_id": 2,
      "accel_val": 2000,
      "base_duration_us": 750000
    },
    {
      "id": "M_2097",
      "pitch": 54,
      "t_note_us": 163312500,
      "t_trigger_us": 163176537,
      "is_ai": false,
      "track_id": 0,
      "velocity": 0,
      "is_motor": true,
      "motor_id": 0,
      "accel_val": 2000,
      "base_duration_us": 187500
    },
    {
      "id": "M_2098",
      "pitch": 61,
      "t_note_us": 163500000,
      "t_trigger_us": 163364037,
      "is_ai": false,
      "track_id": 0,
      "velocity": 0,
      "is_motor": true,
      "motor_id": 0,
      "accel_val": 2000,
      "base_duration_us": 187500
    },
    {
      "id": "M_2099",
      "pitch": 66,
      "t_note_us": 163500000,
      "t_trigger_us": 163364037,
      "is_ai": false,
      "track_id": 0,
      "velocity": 0,
      "is_motor": true,
      "motor_id": 3,
      "accel_val": 2000,
      "base_duration_us": 187500
    },
    {
      "id": "M_2100",
      "pitch": 86,
      "t_note_us": 163687500,
      "t_trigger_us": 163551537,
      "is_ai": true,
      "track_id": 4,
      "velocity": 0,
      "is_motor": false,
      "motor_id": 0,
      "accel_val": 2000,
      "base_duration_us": 187500
    },
    {
      "id": "M_2101",
      "pitch": 89,
      "t_note_us": 163687500,
      "t_trigger_us": 163551537,
      "is_ai": true,
      "track_id": 6,
      "velocity": 0,
      "is_motor": false,
      "motor_id": 0,
      "accel_val": 2000,
      "base_duration_us": 187500
    },
    {
      "id": "M_2102",
      "pitch": 93,
      "t_note_us": 163687500,
      "t_trigger_us": 163551537,
      "is_ai": true,
      "track_id": 8,
      "velocity": 0,
      "is_motor": false,
      "motor_id": 0,
      "accel_val": 2000,
      "base_duration_us": 187500
    },
    {
      "id": "M_2105",
      "pitch": 55,
      "t_note_us": 163687500,
      "t_trigger_us": 163551537,
      "is_ai": false,
      "track_id": 0,
      "velocity": 0,
      "is_motor": true,
      "motor_id": 0,
      "accel_val": 2000,
      "base_duration_us": 187500
    },
    {
      "id": "M_2106",
      "pitch": 62,
      "t_note_us": 163687500,
      "t_trigger_us": 163551537,
      "is_ai": false,
      "track_id": 0,
      "velocity": 0,
      "is_motor": true,
      "motor_id": 3,
      "accel_val": 2000,
      "base_duration_us": 187500
    },
    {
      "id": "M_2107",
      "pitch": 67,
      "t_note_us": 163687500,
      "t_trigger_us": 163551537,
      "is_ai": false,
      "track_id": 0,
      "velocity": 0,
      "is_motor": true,
      "motor_id": 0,
      "accel_val": 2000,
      "base_duration_us": 187500
    },
    {
      "id": "M_2109",
      "pitch": 86,
      "t_note_us": 163875000,
      "t_trigger_us": 163739037,
      "is_ai": true,
      "track_id": 4,
      "velocity": 0,
      "is_motor": false,
      "motor_id": 0,
      "accel_val": 2000,
      "base_duration_us": 187500
    },
    {
      "id": "M_2110",
      "pitch": 89,
      "t_note_us": 163875000,
      "t_trigger_us": 163739037,
      "is_ai": true,
      "track_id": 6,
      "velocity": 0,
      "is_motor": false,
      "motor_id": 0,
      "accel_val": 2000,
      "base_duration_us": 187500
    },
    {
      "id": "M_2111",
      "pitch": 94,
      "t_note_us": 163875000,
      "t_trigger_us": 163739037,
      "is_ai": true,
      "track_id": 0,
      "velocity": 0,
      "is_motor": true,
      "motor_id": 3,
      "accel_val": 2000,
      "base_duration_us": 187500
    },
    {
      "id": "M_2108",
      "pitch": 70,
      "t_note_us": 163875000,
      "t_trigger_us": 163739037,
      "is_ai": false,
      "track_id": 0,
      "velocity": 0,
      "is_motor": true,
      "motor_id": 1,
      "accel_val": 2000,
      "base_duration_us": 187500
    },
    {
      "id": "M_2112",
      "pitch": 55,
      "t_note_us": 163875000,
      "t_trigger_us": 163739037,
      "is_ai": false,
      "track_id": 0,
      "velocity": 0,
      "is_motor": true,
      "motor_id": 0,
      "accel_val": 2000,
      "base_duration_us": 187500
    },
    {
      "id": "M_2113",
      "pitch": 62,
      "t_note_us": 163875000,
      "t_trigger_us": 163739037,
      "is_ai": false,
      "track_id": 0,
      "velocity": 0,
      "is_motor": true,
      "motor_id": 2,
      "accel_val": 2000,
      "base_duration_us": 187500
    },
    {
      "id": "M_2114",
      "pitch": 67,
      "t_note_us": 163875000,
      "t_trigger_us": 163739037,
      "is_ai": false,
      "track_id": 0,
      "velocity": 0,
      "is_motor": true,
      "motor_id": 0,
      "accel_val": 2000,
      "base_duration_us": 187500
    },
    {
      "id": "M_2117",
      "pitch": 89,
      "t_note_us": 164062500,
      "t_trigger_us": 163926537,
      "is_ai": true,
      "track_id": 6,
      "velocity": 0,
      "is_motor": false,
      "motor_id": 0,
      "accel_val": 2000,
      "base_duration_us": 187500
    },
    {
      "id": "M_2118",
      "pitch": 94,
      "t_note_us": 164062500,
      "t_trigger_us": 163926537,
      "is_ai": true,
      "track_id": 0,
      "velocity": 0,
      "is_motor": true,
      "motor_id": 3,
      "accel_val": 2000,
      "base_duration_us": 187500
    },
    {
      "id": "M_2115",
      "pitch": 70,
      "t_note_us": 164062500,
      "t_trigger_us": 163926537,
      "is_ai": false,
      "track_id": 0,
      "velocity": 0,
      "is_motor": true,
      "motor_id": 1,
      "accel_val": 2000,
      "base_duration_us": 187500
    },
    {
      "id": "M_2116",
      "pitch": 74,
      "t_note_us": 164062500,
      "t_trigger_us": 163926537,
      "is_ai": false,
      "track_id": 0,
      "velocity": 0,
      "is_motor": true,
      "motor_id": 0,
      "accel_val": 2000,
      "base_duration_us": 187500
    },
    {
      "id": "M_2119",
      "pitch": 55,
      "t_note_us": 164062500,
      "t_trigger_us": 163926537,
      "is_ai": false,
      "track_id": 0,
      "velocity": 0,
      "is_motor": true,
      "motor_id": 2,
      "accel_val": 2000,
      "base_duration_us": 187500
    },
    {
      "id": "M_2120",
      "pitch": 62,
      "t_note_us": 164062500,
      "t_trigger_us": 163926537,
      "is_ai": false,
      "track_id": 0,
      "velocity": 0,
      "is_motor": true,
      "motor_id": 0,
      "accel_val": 2000,
      "base_duration_us": 187500
    },
    {
      "id": "M_2121",
      "pitch": 67,
      "t_note_us": 164062500,
      "t_trigger_us": 163926537,
      "is_ai": false,
      "track_id": 0,
      "velocity": 0,
      "is_motor": true,
      "motor_id": 0,
      "accel_val": 2000,
      "base_duration_us": 187500
    },
    {
      "id": "M_2123",
      "pitch": 86,
      "t_note_us": 164437500,
      "t_trigger_us": 164301537,
      "is_ai": true,
      "track_id": 4,
      "velocity": 0,
      "is_motor": false,
      "motor_id": 0,
      "accel_val": 2000,
      "base_duration_us": 187500
    },
    {
      "id": "M_2124",
      "pitch": 89,
      "t_note_us": 164437500,
      "t_trigger_us": 164301537,
      "is_ai": true,
      "track_id": 6,
      "velocity": 0,
      "is_motor": false,
      "motor_id": 0,
      "accel_val": 2000,
      "base_duration_us": 187500
    },
    {
      "id": "M_2125",
      "pitch": 94,
      "t_note_us": 164437500,
      "t_trigger_us": 164301537,
      "is_ai": true,
      "track_id": 0,
      "velocity": 0,
      "is_motor": true,
      "motor_id": 3,
      "accel_val": 2000,
      "base_duration_us": 187500
    },
    {
      "id": "M_2122",
      "pitch": 70,
      "t_note_us": 164437500,
      "t_trigger_us": 164301537,
      "is_ai": false,
      "track_id": 0,
      "velocity": 0,
      "is_motor": true,
      "motor_id": 1,
      "accel_val": 2000,
      "base_duration_us": 187500
    },
    {
      "id": "M_2126",
      "pitch": 55,
      "t_note_us": 164437500,
      "t_trigger_us": 164301537,
      "is_ai": false,
      "track_id": 0,
      "velocity": 0,
      "is_motor": true,
      "motor_id": 0,
      "accel_val": 2000,
      "base_duration_us": 187500
    },
    {
      "id": "M_2127",
      "pitch": 62,
      "t_note_us": 164437500,
      "t_trigger_us": 164301537,
      "is_ai": false,
      "track_id": 0,
      "velocity": 0,
      "is_motor": true,
      "motor_id": 2,
      "accel_val": 2000,
      "base_duration_us": 187500
    },
    {
      "id": "M_2128",
      "pitch": 67,
      "t_note_us": 164437500,
      "t_trigger_us": 164301537,
      "is_ai": false,
      "track_id": 0,
      "velocity": 0,
      "is_motor": true,
      "motor_id": 0,
      "accel_val": 2000,
      "base_duration_us": 187500
    },
    {
      "id": "M_2130",
      "pitch": 86,
      "t_note_us": 164812500,
      "t_trigger_us": 164676537,
      "is_ai": true,
      "track_id": 4,
      "velocity": 0,
      "is_motor": false,
      "motor_id": 0,
      "accel_val": 2000,
      "base_duration_us": 187500
    },
    {
      "id": "M_2131",
      "pitch": 89,
      "t_note_us": 164812500,
      "t_trigger_us": 164676537,
      "is_ai": true,
      "track_id": 6,
      "velocity": 0,
      "is_motor": false,
      "motor_id": 0,
      "accel_val": 2000,
      "base_duration_us": 187500
    },
    {
      "id": "M_2129",
      "pitch": 70,
      "t_note_us": 164812500,
      "t_trigger_us": 164676537,
      "is_ai": false,
      "track_id": 0,
      "velocity": 0,
      "is_motor": true,
      "motor_id": 1,
      "accel_val": 2000,
      "base_duration_us": 187500
    },
    {
      "id": "M_2132",
      "pitch": 70,
      "t_note_us": 164812500,
      "t_trigger_us": 164676537,
      "is_ai": false,
      "track_id": 0,
      "velocity": 0,
      "is_motor": true,
      "motor_id": 2,
      "accel_val": 2000,
      "base_duration_us": 187500
    },
    {
      "id": "M_2133",
      "pitch": 55,
      "t_note_us": 164812500,
      "t_trigger_us": 164676537,
      "is_ai": false,
      "track_id": 0,
      "velocity": 0,
      "is_motor": true,
      "motor_id": 0,
      "accel_val": 2000,
      "base_duration_us": 187500
    },
    {
      "id": "M_2134",
      "pitch": 62,
      "t_note_us": 164812500,
      "t_trigger_us": 164676537,
      "is_ai": false,
      "track_id": 0,
      "velocity": 0,
      "is_motor": true,
      "motor_id": 3,
      "accel_val": 2000,
      "base_duration_us": 187500
    },
    {
      "id": "M_2135",
      "pitch": 67,
      "t_note_us": 164812500,
      "t_trigger_us": 164676537,
      "is_ai": false,
      "track_id": 0,
      "velocity": 0,
      "is_motor": true,
      "motor_id": 0,
      "accel_val": 2000,
      "base_duration_us": 187500
    },
    {
      "id": "M_2137",
      "pitch": 86,
      "t_note_us": 165187500,
      "t_trigger_us": 165051537,
      "is_ai": true,
      "track_id": 4,
      "velocity": 0,
      "is_motor": false,
      "motor_id": 0,
      "accel_val": 2000,
      "base_duration_us": 187500
    },
    {
      "id": "M_2138",
      "pitch": 89,
      "t_note_us": 165187500,
      "t_trigger_us": 165051537,
      "is_ai": true,
      "track_id": 6,
      "velocity": 0,
      "is_motor": false,
      "motor_id": 0,
      "accel_val": 2000,
      "base_duration_us": 187500
    },
    {
      "id": "M_2139",
      "pitch": 94,
      "t_note_us": 165187500,
      "t_trigger_us": 165051537,
      "is_ai": true,
      "track_id": 0,
      "velocity": 0,
      "is_motor": true,
      "motor_id": 3,
      "accel_val": 2000,
      "base_duration_us": 187500
    },
    {
      "id": "M_2136",
      "pitch": 70,
      "t_note_us": 165187500,
      "t_trigger_us": 165051537,
      "is_ai": false,
      "track_id": 0,
      "velocity": 0,
      "is_motor": true,
      "motor_id": 1,
      "accel_val": 2000,
      "base_duration_us": 187500
    },
    {
      "id": "M_2140",
      "pitch": 55,
      "t_note_us": 165187500,
      "t_trigger_us": 165051537,
      "is_ai": false,
      "track_id": 0,
      "velocity": 0,
      "is_motor": true,
      "motor_id": 0,
      "accel_val": 2000,
      "base_duration_us": 187500
    },
    {
      "id": "M_2141",
      "pitch": 62,
      "t_note_us": 165187500,
      "t_trigger_us": 165051537,
      "is_ai": false,
      "track_id": 0,
      "velocity": 0,
      "is_motor": true,
      "motor_id": 2,
      "accel_val": 2000,
      "base_duration_us": 187500
    },
    {
      "id": "M_2142",
      "pitch": 67,
      "t_note_us": 165187500,
      "t_trigger_us": 165051537,
      "is_ai": false,
      "track_id": 0,
      "velocity": 0,
      "is_motor": true,
      "motor_id": 0,
      "accel_val": 2000,
      "base_duration_us": 187500
    },
    {
      "id": "M_2145",
      "pitch": 89,
      "t_note_us": 165562500,
      "t_trigger_us": 165426537,
      "is_ai": true,
      "track_id": 6,
      "velocity": 0,
      "is_motor": false,
      "motor_id": 0,
      "accel_val": 2000,
      "base_duration_us": 187500
    },
    {
      "id": "M_2146",
      "pitch": 94,
      "t_note_us": 165562500,
      "t_trigger_us": 165426537,
      "is_ai": true,
      "track_id": 0,
      "velocity": 0,
      "is_motor": true,
      "motor_id": 3,
      "accel_val": 2000,
      "base_duration_us": 187500
    },
    {
      "id": "M_2143",
      "pitch": 70,
      "t_note_us": 165562500,
      "t_trigger_us": 165426537,
      "is_ai": false,
      "track_id": 0,
      "velocity": 0,
      "is_motor": true,
      "motor_id": 1,
      "accel_val": 2000,
      "base_duration_us": 187500
    },
    {
      "id": "M_2144",
      "pitch": 74,
      "t_note_us": 165562500,
      "t_trigger_us": 165426537,
      "is_ai": false,
      "track_id": 0,
      "velocity": 0,
      "is_motor": true,
      "motor_id": 0,
      "accel_val": 2000,
      "base_duration_us": 187500
    },
    {
      "id": "M_2147",
      "pitch": 55,
      "t_note_us": 165562500,
      "t_trigger_us": 165426537,
      "is_ai": false,
      "track_id": 0,
      "velocity": 0,
      "is_motor": true,
      "motor_id": 2,
      "accel_val": 2000,
      "base_duration_us": 187500
    },
    {
      "id": "M_2148",
      "pitch": 62,
      "t_note_us": 165562500,
      "t_trigger_us": 165426537,
      "is_ai": false,
      "track_id": 0,
      "velocity": 0,
      "is_motor": true,
      "motor_id": 0,
      "accel_val": 2000,
      "base_duration_us": 187500
    },
    {
      "id": "M_2149",
      "pitch": 67,
      "t_note_us": 165562500,
      "t_trigger_us": 165426537,
      "is_ai": false,
      "track_id": 0,
      "velocity": 0,
      "is_motor": true,
      "motor_id": 0,
      "accel_val": 2000,
      "base_duration_us": 187500
    },
    {
      "id": "M_2151",
      "pitch": 86,
      "t_note_us": 165937500,
      "t_trigger_us": 165801537,
      "is_ai": true,
      "track_id": 4,
      "velocity": 0,
      "is_motor": false,
      "motor_id": 0,
      "accel_val": 2000,
      "base_duration_us": 187500
    },
    {
      "id": "M_2152",
      "pitch": 89,
      "t_note_us": 165937500,
      "t_trigger_us": 165801537,
      "is_ai": true,
      "track_id": 6,
      "velocity": 0,
      "is_motor": false,
      "motor_id": 0,
      "accel_val": 2000,
      "base_duration_us": 187500
    },
    {
      "id": "M_2153",
      "pitch": 94,
      "t_note_us": 165937500,
      "t_trigger_us": 165801537,
      "is_ai": true,
      "track_id": 0,
      "velocity": 0,
      "is_motor": true,
      "motor_id": 3,
      "accel_val": 2000,
      "base_duration_us": 187500
    },
    {
      "id": "M_2150",
      "pitch": 70,
      "t_note_us": 165937500,
      "t_trigger_us": 165801537,
      "is_ai": false,
      "track_id": 0,
      "velocity": 0,
      "is_motor": true,
      "motor_id": 1,
      "accel_val": 2000,
      "base_duration_us": 187500
    },
    {
      "id": "M_2154",
      "pitch": 55,
      "t_note_us": 165937500,
      "t_trigger_us": 165801537,
      "is_ai": false,
      "track_id": 0,
      "velocity": 0,
      "is_motor": true,
      "motor_id": 0,
      "accel_val": 2000,
      "base_duration_us": 187500
    },
    {
      "id": "M_2155",
      "pitch": 62,
      "t_note_us": 165937500,
      "t_trigger_us": 165801537,
      "is_ai": false,
      "track_id": 0,
      "velocity": 0,
      "is_motor": true,
      "motor_id": 2,
      "accel_val": 2000,
      "base_duration_us": 187500
    },
    {
      "id": "M_2156",
      "pitch": 67,
      "t_note_us": 165937500,
      "t_trigger_us": 165801537,
      "is_ai": false,
      "track_id": 0,
      "velocity": 0,
      "is_motor": true,
      "motor_id": 0,
      "accel_val": 2000,
      "base_duration_us": 187500
    },
    {
      "id": "M_2157",
      "pitch": 82,
      "t_note_us": 166125000,
      "t_trigger_us": 165989037,
      "is_ai": true,
      "track_id": 0,
      "velocity": 0,
      "is_motor": true,
      "motor_id": 2,
      "accel_val": 2000,
      "base_duration_us": 750000
    },
    {
      "id": "M_2158",
      "pitch": 86,
      "t_note_us": 166125000,
      "t_trigger_us": 165989037,
      "is_ai": true,
      "track_id": 4,
      "velocity": 0,
      "is_motor": false,
      "motor_id": 0,
      "accel_val": 2000,
      "base_duration_us": 750000
    },
    {
      "id": "M_2159",
      "pitch": 89,
      "t_note_us": 166125000,
      "t_trigger_us": 165989037,
      "is_ai": true,
      "track_id": 6,
      "velocity": 0,
      "is_motor": false,
      "motor_id": 0,
      "accel_val": 2000,
      "base_duration_us": 750000
    },
    {
      "id": "M_2160",
      "pitch": 94,
      "t_note_us": 166125000,
      "t_trigger_us": 165989037,
      "is_ai": true,
      "track_id": 0,
      "velocity": 0,
      "is_motor": true,
      "motor_id": 3,
      "accel_val": 2000,
      "base_duration_us": 750000
    },
    {
      "id": "M_2161",
      "pitch": 55,
      "t_note_us": 166125000,
      "t_trigger_us": 165989037,
      "is_ai": false,
      "track_id": 0,
      "velocity": 0,
      "is_motor": true,
      "motor_id": 0,
      "accel_val": 2000,
      "base_duration_us": 750000
    },
    {
      "id": "M_2162",
      "pitch": 62,
      "t_note_us": 166125000,
      "t_trigger_us": 165989037,
      "is_ai": false,
      "track_id": 0,
      "velocity": 0,
      "is_motor": true,
      "motor_id": 1,
      "accel_val": 2000,
      "base_duration_us": 750000
    },
    {
      "id": "M_2163",
      "pitch": 67,
      "t_note_us": 166125000,
      "t_trigger_us": 165989037,
      "is_ai": false,
      "track_id": 0,
      "velocity": 0,
      "is_motor": true,
      "motor_id": 0,
      "accel_val": 2000,
      "base_duration_us": 750000
    },
    {
      "id": "M_2164",
      "pitch": 91,
      "t_note_us": 166875000,
      "t_trigger_us": 166739037,
      "is_ai": true,
      "track_id": 7,
      "velocity": 0,
      "is_motor": false,
      "motor_id": 0,
      "accel_val": 2000,
      "base_duration_us": 750000
    },
    {
      "id": "M_2165",
      "pitch": 96,
      "t_note_us": 166875000,
      "t_trigger_us": 166739037,
      "is_ai": true,
      "track_id": 10,
      "velocity": 0,
      "is_motor": false,
      "motor_id": 0,
      "accel_val": 2000,
      "base_duration_us": 750000
    },
    {
      "id": "M_2166",
      "pitch": 84,
      "t_note_us": 166875000,
      "t_trigger_us": 166739037,
      "is_ai": true,
      "track_id": 3,
      "velocity": 0,
      "is_motor": false,
      "motor_id": 0,
      "accel_val": 2000,
      "base_duration_us": 750000
    },
    {
      "id": "M_2167",
      "pitch": 88,
      "t_note_us": 166875000,
      "t_trigger_us": 166739037,
      "is_ai": true,
      "track_id": 5,
      "velocity": 0,
      "is_motor": false,
      "motor_id": 0,
      "accel_val": 2000,
      "base_duration_us": 750000
    },
    {
      "id": "M_2168",
      "pitch": 57,
      "t_note_us": 166875000,
      "t_trigger_us": 166739037,
      "is_ai": false,
      "track_id": 0,
      "velocity": 0,
      "is_motor": true,
      "motor_id": 0,
      "accel_val": 2000,
      "base_duration_us": 750000
    },
    {
      "id": "M_2169",
      "pitch": 64,
      "t_note_us": 166875000,
      "t_trigger_us": 166739037,
      "is_ai": false,
      "track_id": 0,
      "velocity": 0,
      "is_motor": true,
      "motor_id": 1,
      "accel_val": 2000,
      "base_duration_us": 750000
    },
    {
      "id": "M_2170",
      "pitch": 69,
      "t_note_us": 166875000,
      "t_trigger_us": 166739037,
      "is_ai": false,
      "track_id": 0,
      "velocity": 0,
      "is_motor": true,
      "motor_id": 2,
      "accel_val": 2000,
      "base_duration_us": 750000
    },
    {
      "id": "M_2171",
      "pitch": 93,
      "t_note_us": 167812500,
      "t_trigger_us": 167676537,
      "is_ai": true,
      "track_id": 8,
      "velocity": 0,
      "is_motor": false,
      "motor_id": 0,
      "accel_val": 2000,
      "base_duration_us": 375000
    },
    {
      "id": "M_2173",
      "pitch": 88,
      "t_note_us": 167812500,
      "t_trigger_us": 167676537,
      "is_ai": true,
      "track_id": 5,
      "velocity": 0,
      "is_motor": false,
      "motor_id": 0,
      "accel_val": 2000,
      "base_duration_us": 375000
    },
    {
      "id": "M_2172",
      "pitch": 69,
      "t_note_us": 167812500,
      "t_trigger_us": 167676537,
      "is_ai": false,
      "track_id": 0,
      "velocity": 0,
      "is_motor": true,
      "motor_id": 1,
      "accel_val": 2000,
      "base_duration_us": 375000
    },
    {
      "id": "M_2174",
      "pitch": 57,
      "t_note_us": 167812500,
      "t_trigger_us": 167676537,
      "is_ai": false,
      "track_id": 0,
      "velocity": 0,
      "is_motor": true,
      "motor_id": 0,
      "accel_val": 2000,
      "base_duration_us": 375000
    },
    {
      "id": "M_2175",
      "pitch": 64,
      "t_note_us": 167812500,
      "t_trigger_us": 167676537,
      "is_ai": false,
      "track_id": 0,
      "velocity": 0,
      "is_motor": true,
      "motor_id": 2,
      "accel_val": 2000,
      "base_duration_us": 375000
    },
    {
      "id": "M_2176",
      "pitch": 69,
      "t_note_us": 167812500,
      "t_trigger_us": 167676537,
      "is_ai": false,
      "track_id": 0,
      "velocity": 0,
      "is_motor": true,
      "motor_id": 3,
      "accel_val": 2000,
      "base_duration_us": 375000
    },
    {
      "id": "M_2177",
      "pitch": 93,
      "t_note_us": 168187500,
      "t_trigger_us": 168051537,
      "is_ai": true,
      "track_id": 8,
      "velocity": 0,
      "is_motor": false,
      "motor_id": 0,
      "accel_val": 2000,
      "base_duration_us": 562500
    },
    {
      "id": "M_2178",
      "pitch": 72,
      "t_note_us": 168187500,
      "t_trigger_us": 168051537,
      "is_ai": false,
      "track_id": 0,
      "velocity": 0,
      "is_motor": true,
      "motor_id": 1,
      "accel_val": 2000,
      "base_duration_us": 562500
    },
    {
      "id": "M_2179",
      "pitch": 76,
      "t_note_us": 168187500,
      "t_trigger_us": 168051537,
      "is_ai": false,
      "track_id": 0,
      "velocity": 0,
      "is_motor": true,
      "motor_id": 2,
      "accel_val": 2000,
      "base_duration_us": 562500
    },
    {
      "id": "M_2180",
      "pitch": 60,
      "t_note_us": 168187500,
      "t_trigger_us": 168051537,
      "is_ai": false,
      "track_id": 0,
      "velocity": 0,
      "is_motor": true,
      "motor_id": 0,
      "accel_val": 2000,
      "base_duration_us": 562500
    },
    {
      "id": "M_2181",
      "pitch": 67,
      "t_note_us": 168187500,
      "t_trigger_us": 168051537,
      "is_ai": false,
      "track_id": 0,
      "velocity": 0,
      "is_motor": true,
      "motor_id": 3,
      "accel_val": 2000,
      "base_duration_us": 562500
    },
    {
      "id": "M_2182",
      "pitch": 72,
      "t_note_us": 168187500,
      "t_trigger_us": 168051537,
      "is_ai": false,
      "track_id": 0,
      "velocity": 0,
      "is_motor": true,
      "motor_id": 0,
      "accel_val": 2000,
      "base_duration_us": 562500
    },
    {
      "id": "M_2183",
      "pitch": 93,
      "t_note_us": 168750000,
      "t_trigger_us": 168614037,
      "is_ai": true,
      "track_id": 8,
      "velocity": 0,
      "is_motor": false,
      "motor_id": 0,
      "accel_val": 2000,
      "base_duration_us": 375000
    },
    {
      "id": "M_2185",
      "pitch": 88,
      "t_note_us": 168750000,
      "t_trigger_us": 168614037,
      "is_ai": true,
      "track_id": 5,
      "velocity": 0,
      "is_motor": false,
      "motor_id": 0,
      "accel_val": 2000,
      "base_duration_us": 562500
    },
    {
      "id": "M_2184",
      "pitch": 72,
      "t_note_us": 168750000,
      "t_trigger_us": 168614037,
      "is_ai": false,
      "track_id": 0,
      "velocity": 0,
      "is_motor": true,
      "motor_id": 1,
      "accel_val": 2000,
      "base_duration_us": 562500
    },
    {
      "id": "M_2186",
      "pitch": 60,
      "t_note_us": 168750000,
      "t_trigger_us": 168614037,
      "is_ai": false,
      "track_id": 0,
      "velocity": 0,
      "is_motor": true,
      "motor_id": 0,
      "accel_val": 2000,
      "base_duration_us": 562500
    },
    {
      "id": "M_2187",
      "pitch": 67,
      "t_note_us": 168750000,
      "t_trigger_us": 168614037,
      "is_ai": false,
      "track_id": 0,
      "velocity": 0,
      "is_motor": true,
      "motor_id": 2,
      "accel_val": 2000,
      "base_duration_us": 562500
    },
    {
      "id": "M_2188",
      "pitch": 72,
      "t_note_us": 168750000,
      "t_trigger_us": 168614037,
      "is_ai": false,
      "track_id": 0,
      "velocity": 0,
      "is_motor": true,
      "motor_id": 3,
      "accel_val": 2000,
      "base_duration_us": 562500
    },
    {
      "id": "M_2189",
      "pitch": 91,
      "t_note_us": 169125000,
      "t_trigger_us": 168989037,
      "is_ai": true,
      "track_id": 7,
      "velocity": 0,
      "is_motor": false,
      "motor_id": 0,
      "accel_val": 2000,
      "base_duration_us": 375000
    },
    {
      "id": "M_2192",
      "pitch": 88,
      "t_note_us": 169312500,
      "t_trigger_us": 169176537,
      "is_ai": true,
      "track_id": 5,
      "velocity": 0,
      "is_motor": false,
      "motor_id": 0,
      "accel_val": 2000,
      "base_duration_us": 562500
    },
    {
      "id": "M_2191",
      "pitch": 72,
      "t_note_us": 169312500,
      "t_trigger_us": 169176537,
      "is_ai": false,
      "track_id": 0,
      "velocity": 0,
      "is_motor": true,
      "motor_id": 1,
      "accel_val": 2000,
      "base_duration_us": 562500
    },
    {
      "id": "M_2193",
      "pitch": 60,
      "t_note_us": 169312500,
      "t_trigger_us": 169176537,
      "is_ai": false,
      "track_id": 0,
      "velocity": 0,
      "is_motor": true,
      "motor_id": 0,
      "accel_val": 2000,
      "base_duration_us": 562500
    },
    {
      "id": "M_2194",
      "pitch": 67,
      "t_note_us": 169312500,
      "t_trigger_us": 169176537,
      "is_ai": false,
      "track_id": 0,
      "velocity": 0,
      "is_motor": true,
      "motor_id": 2,
      "accel_val": 2000,
      "base_duration_us": 562500
    },
    {
      "id": "M_2195",
      "pitch": 72,
      "t_note_us": 169312500,
      "t_trigger_us": 169176537,
      "is_ai": false,
      "track_id": 0,
      "velocity": 0,
      "is_motor": true,
      "motor_id": 3,
      "accel_val": 2000,
      "base_duration_us": 562500
    },
    {
      "id": "M_2190",
      "pitch": 93,
      "t_note_us": 169500000,
      "t_trigger_us": 169364037,
      "is_ai": true,
      "track_id": 8,
      "velocity": 0,
      "is_motor": false,
      "motor_id": 0,
      "accel_val": 2000,
      "base_duration_us": 375000
    },
    {
      "id": "M_2197",
      "pitch": 88,
      "t_note_us": 169875000,
      "t_trigger_us": 169739037,
      "is_ai": true,
      "track_id": 5,
      "velocity": 0,
      "is_motor": false,
      "motor_id": 0,
      "accel_val": 2000,
      "base_duration_us": 187500
    },
    {
      "id": "M_2211",
      "pitch": 93,
      "t_note_us": 169875000,
      "t_trigger_us": 169739037,
      "is_ai": true,
      "track_id": 8,
      "velocity": 0,
      "is_motor": false,
      "motor_id": 0,
      "accel_val": 2000,
      "base_duration_us": 750000
    },
    {
      "id": "M_2196",
      "pitch": 69,
      "t_note_us": 169875000,
      "t_trigger_us": 169739037,
      "is_ai": false,
      "track_id": 0,
      "velocity": 0,
      "is_motor": true,
      "motor_id": 1,
      "accel_val": 2000,
      "base_duration_us": 187500
    },
    {
      "id": "M_2198",
      "pitch": 57,
      "t_note_us": 169875000,
      "t_trigger_us": 169739037,
      "is_ai": false,
      "track_id": 0,
      "velocity": 0,
      "is_motor": true,
      "motor_id": 0,
      "accel_val": 2000,
      "base_duration_us": 187500
    },
    {
      "id": "M_2199",
      "pitch": 64,
      "t_note_us": 169875000,
      "t_trigger_us": 169739037,
      "is_ai": false,
      "track_id": 0,
      "velocity": 0,
      "is_motor": true,
      "motor_id": 2,
      "accel_val": 2000,
      "base_duration_us": 187500
    },
    {
      "id": "M_2200",
      "pitch": 69,
      "t_note_us": 169875000,
      "t_trigger_us": 169739037,
      "is_ai": false,
      "track_id": 0,
      "velocity": 0,
      "is_motor": true,
      "motor_id": 3,
      "accel_val": 2000,
      "base_duration_us": 187500
    },
    {
      "id": "M_2202",
      "pitch": 88,
      "t_note_us": 170062500,
      "t_trigger_us": 169926537,
      "is_ai": true,
      "track_id": 5,
      "velocity": 0,
      "is_motor": false,
      "motor_id": 0,
      "accel_val": 2000,
      "base_duration_us": 187500
    },
    {
      "id": "M_2201",
      "pitch": 69,
      "t_note_us": 170062500,
      "t_trigger_us": 169926537,
      "is_ai": false,
      "track_id": 0,
      "velocity": 0,
      "is_motor": true,
      "motor_id": 1,
      "accel_val": 2000,
      "base_duration_us": 187500
    },
    {
      "id": "M_2203",
      "pitch": 57,
      "t_note_us": 170062500,
      "t_trigger_us": 169926537,
      "is_ai": false,
      "track_id": 0,
      "velocity": 0,
      "is_motor": true,
      "motor_id": 0,
      "accel_val": 2000,
      "base_duration_us": 187500
    },
    {
      "id": "M_2204",
      "pitch": 64,
      "t_note_us": 170062500,
      "t_trigger_us": 169926537,
      "is_ai": false,
      "track_id": 0,
      "velocity": 0,
      "is_motor": true,
      "motor_id": 2,
      "accel_val": 2000,
      "base_duration_us": 187500
    },
    {
      "id": "M_2205",
      "pitch": 69,
      "t_note_us": 170062500,
      "t_trigger_us": 169926537,
      "is_ai": false,
      "track_id": 0,
      "velocity": 0,
      "is_motor": true,
      "motor_id": 3,
      "accel_val": 2000,
      "base_duration_us": 187500
    },
    {
      "id": "M_2207",
      "pitch": 88,
      "t_note_us": 170250000,
      "t_trigger_us": 170114037,
      "is_ai": true,
      "track_id": 5,
      "velocity": 0,
      "is_motor": false,
      "motor_id": 0,
      "accel_val": 2000,
      "base_duration_us": 187500
    },
    {
      "id": "M_2206",
      "pitch": 69,
      "t_note_us": 170250000,
      "t_trigger_us": 170114037,
      "is_ai": false,
      "track_id": 0,
      "velocity": 0,
      "is_motor": true,
      "motor_id": 1,
      "accel_val": 2000,
      "base_duration_us": 187500
    },
    {
      "id": "M_2208",
      "pitch": 57,
      "t_note_us": 170250000,
      "t_trigger_us": 170114037,
      "is_ai": false,
      "track_id": 0,
      "velocity": 0,
      "is_motor": true,
      "motor_id": 0,
      "accel_val": 2000,
      "base_duration_us": 187500
    },
    {
      "id": "M_2209",
      "pitch": 64,
      "t_note_us": 170250000,
      "t_trigger_us": 170114037,
      "is_ai": false,
      "track_id": 0,
      "velocity": 0,
      "is_motor": true,
      "motor_id": 2,
      "accel_val": 2000,
      "base_duration_us": 187500
    },
    {
      "id": "M_2210",
      "pitch": 69,
      "t_note_us": 170250000,
      "t_trigger_us": 170114037,
      "is_ai": false,
      "track_id": 0,
      "velocity": 0,
      "is_motor": true,
      "motor_id": 3,
      "accel_val": 2000,
      "base_duration_us": 187500
    },
    {
      "id": "M_2212",
      "pitch": 93,
      "t_note_us": 170812500,
      "t_trigger_us": 170676537,
      "is_ai": true,
      "track_id": 8,
      "velocity": 0,
      "is_motor": false,
      "motor_id": 0,
      "accel_val": 2000,
      "base_duration_us": 375000
    },
    {
      "id": "M_2214",
      "pitch": 88,
      "t_note_us": 170812500,
      "t_trigger_us": 170676537,
      "is_ai": true,
      "track_id": 5,
      "velocity": 0,
      "is_motor": false,
      "motor_id": 0,
      "accel_val": 2000,
      "base_duration_us": 375000
    },
    {
      "id": "M_2213",
      "pitch": 69,
      "t_note_us": 170812500,
      "t_trigger_us": 170676537,
      "is_ai": false,
      "track_id": 0,
      "velocity": 0,
      "is_motor": true,
      "motor_id": 1,
      "accel_val": 2000,
      "base_duration_us": 375000
    },
    {
      "id": "M_2215",
      "pitch": 57,
      "t_note_us": 170812500,
      "t_trigger_us": 170676537,
      "is_ai": false,
      "track_id": 0,
      "velocity": 0,
      "is_motor": true,
      "motor_id": 0,
      "accel_val": 2000,
      "base_duration_us": 375000
    },
    {
      "id": "M_2216",
      "pitch": 64,
      "t_note_us": 170812500,
      "t_trigger_us": 170676537,
      "is_ai": false,
      "track_id": 0,
      "velocity": 0,
      "is_motor": true,
      "motor_id": 2,
      "accel_val": 2000,
      "base_duration_us": 375000
    },
    {
      "id": "M_2217",
      "pitch": 69,
      "t_note_us": 170812500,
      "t_trigger_us": 170676537,
      "is_ai": false,
      "track_id": 0,
      "velocity": 0,
      "is_motor": true,
      "motor_id": 3,
      "accel_val": 2000,
      "base_duration_us": 375000
    },
    {
      "id": "M_2219",
      "pitch": 86,
      "t_note_us": 171187500,
      "t_trigger_us": 171051537,
      "is_ai": true,
      "track_id": 4,
      "velocity": 0,
      "is_motor": false,
      "motor_id": 0,
      "accel_val": 2000,
      "base_duration_us": 562500
    },
    {
      "id": "M_2223",
      "pitch": 93,
      "t_note_us": 171187500,
      "t_trigger_us": 171051537,
      "is_ai": true,
      "track_id": 8,
      "velocity": 0,
      "is_motor": false,
      "motor_id": 0,
      "accel_val": 2000,
      "base_duration_us": 937500
    },
    {
      "id": "M_2218",
      "pitch": 71,
      "t_note_us": 171187500,
      "t_trigger_us": 171051537,
      "is_ai": false,
      "track_id": 0,
      "velocity": 0,
      "is_motor": true,
      "motor_id": 1,
      "accel_val": 2000,
      "base_duration_us": 562500
    },
    {
      "id": "M_2220",
      "pitch": 55,
      "t_note_us": 171187500,
      "t_trigger_us": 171051537,
      "is_ai": false,
      "track_id": 0,
      "velocity": 0,
      "is_motor": true,
      "motor_id": 0,
      "accel_val": 2000,
      "base_duration_us": 562500
    },
    {
      "id": "M_2221",
      "pitch": 62,
      "t_note_us": 171187500,
      "t_trigger_us": 171051537,
      "is_ai": false,
      "track_id": 0,
      "velocity": 0,
      "is_motor": true,
      "motor_id": 2,
      "accel_val": 2000,
      "base_duration_us": 562500
    },
    {
      "id": "M_2222",
      "pitch": 67,
      "t_note_us": 171187500,
      "t_trigger_us": 171051537,
      "is_ai": false,
      "track_id": 0,
      "velocity": 0,
      "is_motor": true,
      "motor_id": 3,
      "accel_val": 2000,
      "base_duration_us": 562500
    },
    {
      "id": "M_2225",
      "pitch": 86,
      "t_note_us": 171750000,
      "t_trigger_us": 171614037,
      "is_ai": true,
      "track_id": 4,
      "velocity": 0,
      "is_motor": false,
      "motor_id": 0,
      "accel_val": 2000,
      "base_duration_us": 562500
    },
    {
      "id": "M_2224",
      "pitch": 71,
      "t_note_us": 171750000,
      "t_trigger_us": 171614037,
      "is_ai": false,
      "track_id": 0,
      "velocity": 0,
      "is_motor": true,
      "motor_id": 1,
      "accel_val": 2000,
      "base_duration_us": 562500
    },
    {
      "id": "M_2226",
      "pitch": 55,
      "t_note_us": 171750000,
      "t_trigger_us": 171614037,
      "is_ai": false,
      "track_id": 0,
      "velocity": 0,
      "is_motor": true,
      "motor_id": 0,
      "accel_val": 2000,
      "base_duration_us": 562500
    },
    {
      "id": "M_2227",
      "pitch": 62,
      "t_note_us": 171750000,
      "t_trigger_us": 171614037,
      "is_ai": false,
      "track_id": 0,
      "velocity": 0,
      "is_motor": true,
      "motor_id": 2,
      "accel_val": 2000,
      "base_duration_us": 562500
    },
    {
      "id": "M_2228",
      "pitch": 67,
      "t_note_us": 171750000,
      "t_trigger_us": 171614037,
      "is_ai": false,
      "track_id": 0,
      "velocity": 0,
      "is_motor": true,
      "motor_id": 3,
      "accel_val": 2000,
      "base_duration_us": 562500
    },
    {
      "id": "M_2231",
      "pitch": 91,
      "t_note_us": 172125000,
      "t_trigger_us": 171989037,
      "is_ai": true,
      "track_id": 7,
      "velocity": 0,
      "is_motor": false,
      "motor_id": 0,
      "accel_val": 2000,
      "base_duration_us": 750000
    },
    {
      "id": "M_2229",
      "pitch": 83,
      "t_note_us": 172312500,
      "t_trigger_us": 172176537,
      "is_ai": true,
      "track_id": 2,
      "velocity": 0,
      "is_motor": false,
      "motor_id": 0,
      "accel_val": 2000,
      "base_duration_us": 562500
    },
    {
      "id": "M_2230",
      "pitch": 86,
      "t_note_us": 172312500,
      "t_trigger_us": 172176537,
      "is_ai": true,
      "track_id": 4,
      "velocity": 0,
      "is_motor": false,
      "motor_id": 0,
      "accel_val": 2000,
      "base_duration_us": 562500
    },
    {
      "id": "M_2232",
      "pitch": 55,
      "t_note_us": 172312500,
      "t_trigger_us": 172176537,
      "is_ai": false,
      "track_id": 0,
      "velocity": 0,
      "is_motor": true,
      "motor_id": 0,
      "accel_val": 2000,
      "base_duration_us": 562500
    },
    {
      "id": "M_2233",
      "pitch": 62,
      "t_note_us": 172312500,
      "t_trigger_us": 172176537,
      "is_ai": false,
      "track_id": 0,
      "velocity": 0,
      "is_motor": true,
      "motor_id": 1,
      "accel_val": 2000,
      "base_duration_us": 562500
    },
    {
      "id": "M_2234",
      "pitch": 67,
      "t_note_us": 172312500,
      "t_trigger_us": 172176537,
      "is_ai": false,
      "track_id": 0,
      "velocity": 0,
      "is_motor": true,
      "motor_id": 2,
      "accel_val": 2000,
      "base_duration_us": 562500
    },
    {
      "id": "M_2236",
      "pitch": 86,
      "t_note_us": 172875000,
      "t_trigger_us": 172739037,
      "is_ai": true,
      "track_id": 4,
      "velocity": 0,
      "is_motor": false,
      "motor_id": 0,
      "accel_val": 2000,
      "base_duration_us": 187500
    },
    {
      "id": "M_2242",
      "pitch": 93,
      "t_note_us": 172875000,
      "t_trigger_us": 172739037,
      "is_ai": true,
      "track_id": 8,
      "velocity": 0,
      "is_motor": false,
      "motor_id": 0,
      "accel_val": 2000,
      "base_duration_us": 375000
    },
    {
      "id": "M_2235",
      "pitch": 69,
      "t_note_us": 172875000,
      "t_trigger_us": 172739037,
      "is_ai": false,
      "track_id": 0,
      "velocity": 0,
      "is_motor": true,
      "motor_id": 1,
      "accel_val": 2000,
      "base_duration_us": 187500
    },
    {
      "id": "M_2237",
      "pitch": 62,
      "t_note_us": 172875000,
      "t_trigger_us": 172739037,
      "is_ai": false,
      "track_id": 0,
      "velocity": 0,
      "is_motor": true,
      "motor_id": 0,
      "accel_val": 2000,
      "base_duration_us": 187500
    },
    {
      "id": "M_2238",
      "pitch": 69,
      "t_note_us": 172875000,
      "t_trigger_us": 172739037,
      "is_ai": false,
      "track_id": 0,
      "velocity": 0,
      "is_motor": true,
      "motor_id": 2,
      "accel_val": 2000,
      "base_duration_us": 187500
    },
    {
      "id": "M_2239",
      "pitch": 74,
      "t_note_us": 172875000,
      "t_trigger_us": 172739037,
      "is_ai": false,
      "track_id": 0,
      "velocity": 0,
      "is_motor": true,
      "motor_id": 3,
      "accel_val": 2000,
      "base_duration_us": 187500
    },
    {
      "id": "M_2241",
      "pitch": 86,
      "t_note_us": 173062500,
      "t_trigger_us": 172926537,
      "is_ai": true,
      "track_id": 4,
      "velocity": 0,
      "is_motor": false,
      "motor_id": 0,
      "accel_val": 2000,
      "base_duration_us": 187500
    },
    {
      "id": "M_2240",
      "pitch": 69,
      "t_note_us": 173062500,
      "t_trigger_us": 172926537,
      "is_ai": false,
      "track_id": 0,
      "velocity": 0,
      "is_motor": true,
      "motor_id": 1,
      "accel_val": 2000,
      "base_duration_us": 187500
    },
    {
      "id": "M_2243",
      "pitch": 62,
      "t_note_us": 173062500,
      "t_trigger_us": 172926537,
      "is_ai": false,
      "track_id": 0,
      "velocity": 0,
      "is_motor": true,
      "motor_id": 0,
      "accel_val": 2000,
      "base_duration_us": 187500
    },
    {
      "id": "M_2244",
      "pitch": 69,
      "t_note_us": 173062500,
      "t_trigger_us": 172926537,
      "is_ai": false,
      "track_id": 0,
      "velocity": 0,
      "is_motor": true,
      "motor_id": 2,
      "accel_val": 2000,
      "base_duration_us": 187500
    },
    {
      "id": "M_2245",
      "pitch": 74,
      "t_note_us": 173062500,
      "t_trigger_us": 172926537,
      "is_ai": false,
      "track_id": 0,
      "velocity": 0,
      "is_motor": true,
      "motor_id": 3,
      "accel_val": 2000,
      "base_duration_us": 187500
    },
    {
      "id": "M_2247",
      "pitch": 86,
      "t_note_us": 173250000,
      "t_trigger_us": 173114037,
      "is_ai": true,
      "track_id": 4,
      "velocity": 0,
      "is_motor": false,
      "motor_id": 0,
      "accel_val": 2000,
      "base_duration_us": 187500
    },
    {
      "id": "M_2251",
      "pitch": 91,
      "t_note_us": 173250000,
      "t_trigger_us": 173114037,
      "is_ai": true,
      "track_id": 7,
      "velocity": 0,
      "is_motor": false,
      "motor_id": 0,
      "accel_val": 2000,
      "base_duration_us": 375000
    },
    {
      "id": "M_2246",
      "pitch": 69,
      "t_note_us": 173250000,
      "t_trigger_us": 173114037,
      "is_ai": false,
      "track_id": 0,
      "velocity": 0,
      "is_motor": true,
      "motor_id": 1,
      "accel_val": 2000,
      "base_duration_us": 187500
    },
    {
      "id": "M_2248",
      "pitch": 62,
      "t_note_us": 173250000,
      "t_trigger_us": 173114037,
      "is_ai": false,
      "track_id": 0,
      "velocity": 0,
      "is_motor": true,
      "motor_id": 0,
      "accel_val": 2000,
      "base_duration_us": 187500
    },
    {
      "id": "M_2249",
      "pitch": 69,
      "t_note_us": 173250000,
      "t_trigger_us": 173114037,
      "is_ai": false,
      "track_id": 0,
      "velocity": 0,
      "is_motor": true,
      "motor_id": 2,
      "accel_val": 2000,
      "base_duration_us": 187500
    },
    {
      "id": "M_2250",
      "pitch": 74,
      "t_note_us": 173250000,
      "t_trigger_us": 173114037,
      "is_ai": false,
      "track_id": 0,
      "velocity": 0,
      "is_motor": true,
      "motor_id": 3,
      "accel_val": 2000,
      "base_duration_us": 187500
    },
    {
      "id": "M_2252",
      "pitch": 91,
      "t_note_us": 173625000,
      "t_trigger_us": 173489037,
      "is_ai": true,
      "track_id": 7,
      "velocity": 0,
      "is_motor": false,
      "motor_id": 0,
      "accel_val": 2000,
      "base_duration_us": 375000
    },
    {
      "id": "M_2253",
      "pitch": 88,
      "t_note_us": 174000000,
      "t_trigger_us": 173864037,
      "is_ai": true,
      "track_id": 5,
      "velocity": 0,
      "is_motor": false,
      "motor_id": 0,
      "accel_val": 2000,
      "base_duration_us": 375000
    },
    {
      "id": "M_2254",
      "pitch": 69,
      "t_note_us": 174000000,
      "t_trigger_us": 173864037,
      "is_ai": false,
      "track_id": 0,
      "velocity": 0,
      "is_motor": true,
      "motor_id": 1,
      "accel_val": 2000,
      "base_duration_us": 375000
    },
    {
      "id": "M_2255",
      "pitch": 62,
      "t_note_us": 174000000,
      "t_trigger_us": 173864037,
      "is_ai": false,
      "track_id": 0,
      "velocity": 0,
      "is_motor": true,
      "motor_id": 0,
      "accel_val": 2000,
      "base_duration_us": 375000
    },
    {
      "id": "M_2256",
      "pitch": 69,
      "t_note_us": 174000000,
      "t_trigger_us": 173864037,
      "is_ai": false,
      "track_id": 0,
      "velocity": 0,
      "is_motor": true,
      "motor_id": 2,
      "accel_val": 2000,
      "base_duration_us": 375000
    },
    {
      "id": "M_2257",
      "pitch": 74,
      "t_note_us": 174000000,
      "t_trigger_us": 173864037,
      "is_ai": false,
      "track_id": 0,
      "velocity": 0,
      "is_motor": true,
      "motor_id": 3,
      "accel_val": 2000,
      "base_duration_us": 375000
    },
    {
      "id": "M_2258",
      "pitch": 91,
      "t_note_us": 174375000,
      "t_trigger_us": 174239037,
      "is_ai": true,
      "track_id": 7,
      "velocity": 0,
      "is_motor": false,
      "motor_id": 0,
      "accel_val": 2000,
      "base_duration_us": 375000
    },
    {
      "id": "M_2260",
      "pitch": 88,
      "t_note_us": 174375000,
      "t_trigger_us": 174239037,
      "is_ai": true,
      "track_id": 5,
      "velocity": 0,
      "is_motor": false,
      "motor_id": 0,
      "accel_val": 2000,
      "base_duration_us": 375000
    },
    {
      "id": "M_2259",
      "pitch": 69,
      "t_note_us": 174375000,
      "t_trigger_us": 174239037,
      "is_ai": false,
      "track_id": 0,
      "velocity": 0,
      "is_motor": true,
      "motor_id": 1,
      "accel_val": 2000,
      "base_duration_us": 375000
    },
    {
      "id": "M_2261",
      "pitch": 64,
      "t_note_us": 174375000,
      "t_trigger_us": 174239037,
      "is_ai": false,
      "track_id": 0,
      "velocity": 0,
      "is_motor": true,
      "motor_id": 0,
      "accel_val": 2000,
      "base_duration_us": 375000
    },
    {
      "id": "M_2262",
      "pitch": 71,
      "t_note_us": 174375000,
      "t_trigger_us": 174239037,
      "is_ai": false,
      "track_id": 0,
      "velocity": 0,
      "is_motor": true,
      "motor_id": 2,
      "accel_val": 2000,
      "base_duration_us": 375000
    },
    {
      "id": "M_2263",
      "pitch": 76,
      "t_note_us": 174375000,
      "t_trigger_us": 174239037,
      "is_ai": false,
      "track_id": 0,
      "velocity": 0,
      "is_motor": true,
      "motor_id": 3,
      "accel_val": 2000,
      "base_duration_us": 375000
    },
    {
      "id": "M_2264",
      "pitch": 93,
      "t_note_us": 174750000,
      "t_trigger_us": 174614037,
      "is_ai": true,
      "track_id": 8,
      "velocity": 0,
      "is_motor": false,
      "motor_id": 0,
      "accel_val": 2000,
      "base_duration_us": 375000
    },
    {
      "id": "M_2266",
      "pitch": 88,
      "t_note_us": 174750000,
      "t_trigger_us": 174614037,
      "is_ai": true,
      "track_id": 5,
      "velocity": 0,
      "is_motor": false,
      "motor_id": 0,
      "accel_val": 2000,
      "base_duration_us": 375000
    },
    {
      "id": "M_2265",
      "pitch": 69,
      "t_note_us": 174750000,
      "t_trigger_us": 174614037,
      "is_ai": false,
      "track_id": 0,
      "velocity": 0,
      "is_motor": true,
      "motor_id": 1,
      "accel_val": 2000,
      "base_duration_us": 375000
    },
    {
      "id": "M_2267",
      "pitch": 64,
      "t_note_us": 174750000,
      "t_trigger_us": 174614037,
      "is_ai": false,
      "track_id": 0,
      "velocity": 0,
      "is_motor": true,
      "motor_id": 0,
      "accel_val": 2000,
      "base_duration_us": 375000
    },
    {
      "id": "M_2268",
      "pitch": 71,
      "t_note_us": 174750000,
      "t_trigger_us": 174614037,
      "is_ai": false,
      "track_id": 0,
      "velocity": 0,
      "is_motor": true,
      "motor_id": 2,
      "accel_val": 2000,
      "base_duration_us": 375000
    },
    {
      "id": "M_2269",
      "pitch": 76,
      "t_note_us": 174750000,
      "t_trigger_us": 174614037,
      "is_ai": false,
      "track_id": 0,
      "velocity": 0,
      "is_motor": true,
      "motor_id": 3,
      "accel_val": 2000,
      "base_duration_us": 375000
    },
    {
      "id": "M_2271",
      "pitch": 88,
      "t_note_us": 175500000,
      "t_trigger_us": 175364037,
      "is_ai": true,
      "track_id": 5,
      "velocity": 0,
      "is_motor": false,
      "motor_id": 0,
      "accel_val": 2000,
      "base_duration_us": 375000
    },
    {
      "id": "M_2277",
      "pitch": 99,
      "t_note_us": 175500000,
      "t_trigger_us": 175364037,
      "is_ai": true,
      "track_id": 0,
      "velocity": 0,
      "is_motor": true,
      "motor_id": 3,
      "accel_val": 2000,
      "base_duration_us": 750000
    },
    {
      "id": "M_2270",
      "pitch": 69,
      "t_note_us": 175500000,
      "t_trigger_us": 175364037,
      "is_ai": false,
      "track_id": 0,
      "velocity": 0,
      "is_motor": true,
      "motor_id": 1,
      "accel_val": 2000,
      "base_duration_us": 375000
    },
    {
      "id": "M_2272",
      "pitch": 64,
      "t_note_us": 175500000,
      "t_trigger_us": 175364037,
      "is_ai": false,
      "track_id": 0,
      "velocity": 0,
      "is_motor": true,
      "motor_id": 0,
      "accel_val": 2000,
      "base_duration_us": 375000
    },
    {
      "id": "M_2273",
      "pitch": 71,
      "t_note_us": 175500000,
      "t_trigger_us": 175364037,
      "is_ai": false,
      "track_id": 0,
      "velocity": 0,
      "is_motor": true,
      "motor_id": 2,
      "accel_val": 2000,
      "base_duration_us": 375000
    },
    {
      "id": "M_2274",
      "pitch": 76,
      "t_note_us": 175500000,
      "t_trigger_us": 175364037,
      "is_ai": false,
      "track_id": 0,
      "velocity": 0,
      "is_motor": true,
      "motor_id": 0,
      "accel_val": 2000,
      "base_duration_us": 375000
    },
    {
      "id": "M_2275",
      "pitch": 86,
      "t_note_us": 175875000,
      "t_trigger_us": 175739037,
      "is_ai": true,
      "track_id": 4,
      "velocity": 0,
      "is_motor": false,
      "motor_id": 0,
      "accel_val": 2000,
      "base_duration_us": 375000
    },
    {
      "id": "M_2276",
      "pitch": 89,
      "t_note_us": 175875000,
      "t_trigger_us": 175739037,
      "is_ai": true,
      "track_id": 6,
      "velocity": 0,
      "is_motor": false,
      "motor_id": 0,
      "accel_val": 2000,
      "base_duration_us": 375000
    },
    {
      "id": "M_2278",
      "pitch": 65,
      "t_note_us": 175875000,
      "t_trigger_us": 175739037,
      "is_ai": false,
      "track_id": 0,
      "velocity": 0,
      "is_motor": true,
      "motor_id": 1,
      "accel_val": 2000,
      "base_duration_us": 375000
    },
    {
      "id": "M_2279",
      "pitch": 72,
      "t_note_us": 175875000,
      "t_trigger_us": 175739037,
      "is_ai": false,
      "track_id": 0,
      "velocity": 0,
      "is_motor": true,
      "motor_id": 0,
      "accel_val": 2000,
      "base_duration_us": 375000
    },
    {
      "id": "M_2280",
      "pitch": 77,
      "t_note_us": 175875000,
      "t_trigger_us": 175739037,
      "is_ai": false,
      "track_id": 0,
      "velocity": 0,
      "is_motor": true,
      "motor_id": 2,
      "accel_val": 2000,
      "base_duration_us": 375000
    },
    {
      "id": "M_2281",
      "pitch": 98,
      "t_note_us": 176250000,
      "t_trigger_us": 176114037,
      "is_ai": true,
      "track_id": 11,
      "velocity": 0,
      "is_motor": false,
      "motor_id": 0,
      "accel_val": 2000,
      "base_duration_us": 375000
    },
    {
      "id": "M_2282",
      "pitch": 86,
      "t_note_us": 176250000,
      "t_trigger_us": 176114037,
      "is_ai": true,
      "track_id": 4,
      "velocity": 0,
      "is_motor": false,
      "motor_id": 0,
      "accel_val": 2000,
      "base_duration_us": 375000
    },
    {
      "id": "M_2283",
      "pitch": 89,
      "t_note_us": 176250000,
      "t_trigger_us": 176114037,
      "is_ai": true,
      "track_id": 6,
      "velocity": 0,
      "is_motor": false,
      "motor_id": 0,
      "accel_val": 2000,
      "base_duration_us": 375000
    },
    {
      "id": "M_2284",
      "pitch": 65,
      "t_note_us": 176250000,
      "t_trigger_us": 176114037,
      "is_ai": false,
      "track_id": 0,
      "velocity": 0,
      "is_motor": true,
      "motor_id": 1,
      "accel_val": 2000,
      "base_duration_us": 375000
    },
    {
      "id": "M_2285",
      "pitch": 72,
      "t_note_us": 176250000,
      "t_trigger_us": 176114037,
      "is_ai": false,
      "track_id": 0,
      "velocity": 0,
      "is_motor": true,
      "motor_id": 0,
      "accel_val": 2000,
      "base_duration_us": 375000
    },
    {
      "id": "M_2286",
      "pitch": 77,
      "t_note_us": 176250000,
      "t_trigger_us": 176114037,
      "is_ai": false,
      "track_id": 0,
      "velocity": 0,
      "is_motor": true,
      "motor_id": 2,
      "accel_val": 2000,
      "base_duration_us": 375000
    },
    {
      "id": "M_2287",
      "pitch": 96,
      "t_note_us": 176625000,
      "t_trigger_us": 176489037,
      "is_ai": true,
      "track_id": 10,
      "velocity": 0,
      "is_motor": false,
      "motor_id": 0,
      "accel_val": 2000,
      "base_duration_us": 375000
    },
    {
      "id": "M_2288",
      "pitch": 86,
      "t_note_us": 176625000,
      "t_trigger_us": 176489037,
      "is_ai": true,
      "track_id": 4,
      "velocity": 0,
      "is_motor": false,
      "motor_id": 0,
      "accel_val": 2000,
      "base_duration_us": 375000
    },
    {
      "id": "M_2289",
      "pitch": 89,
      "t_note_us": 176625000,
      "t_trigger_us": 176489037,
      "is_ai": true,
      "track_id": 6,
      "velocity": 0,
      "is_motor": false,
      "motor_id": 0,
      "accel_val": 2000,
      "base_duration_us": 375000
    },
    {
      "id": "M_2290",
      "pitch": 65,
      "t_note_us": 176625000,
      "t_trigger_us": 176489037,
      "is_ai": false,
      "track_id": 0,
      "velocity": 0,
      "is_motor": true,
      "motor_id": 1,
      "accel_val": 2000,
      "base_duration_us": 375000
    },
    {
      "id": "M_2291",
      "pitch": 72,
      "t_note_us": 176625000,
      "t_trigger_us": 176489037,
      "is_ai": false,
      "track_id": 0,
      "velocity": 0,
      "is_motor": true,
      "motor_id": 0,
      "accel_val": 2000,
      "base_duration_us": 375000
    },
    {
      "id": "M_2292",
      "pitch": 77,
      "t_note_us": 176625000,
      "t_trigger_us": 176489037,
      "is_ai": false,
      "track_id": 0,
      "velocity": 0,
      "is_motor": true,
      "motor_id": 2,
      "accel_val": 2000,
      "base_duration_us": 375000
    },
    {
      "id": "M_2293",
      "pitch": 93,
      "t_note_us": 177000000,
      "t_trigger_us": 176864037,
      "is_ai": true,
      "track_id": 8,
      "velocity": 0,
      "is_motor": false,
      "motor_id": 0,
      "accel_val": 2000,
      "base_duration_us": 375000
    },
    {
      "id": "M_2294",
      "pitch": 86,
      "t_note_us": 177000000,
      "t_trigger_us": 176864037,
      "is_ai": true,
      "track_id": 4,
      "velocity": 0,
      "is_motor": false,
      "motor_id": 0,
      "accel_val": 2000,
      "base_duration_us": 375000
    },
    {
      "id": "M_2295",
      "pitch": 89,
      "t_note_us": 177000000,
      "t_trigger_us": 176864037,
      "is_ai": true,
      "track_id": 6,
      "velocity": 0,
      "is_motor": false,
      "motor_id": 0,
      "accel_val": 2000,
      "base_duration_us": 375000
    },
    {
      "id": "M_2296",
      "pitch": 65,
      "t_note_us": 177000000,
      "t_trigger_us": 176864037,
      "is_ai": false,
      "track_id": 0,
      "velocity": 0,
      "is_motor": true,
      "motor_id": 1,
      "accel_val": 2000,
      "base_duration_us": 375000
    },
    {
      "id": "M_2297",
      "pitch": 72,
      "t_note_us": 177000000,
      "t_trigger_us": 176864037,
      "is_ai": false,
      "track_id": 0,
      "velocity": 0,
      "is_motor": true,
      "motor_id": 0,
      "accel_val": 2000,
      "base_duration_us": 375000
    },
    {
      "id": "M_2298",
      "pitch": 77,
      "t_note_us": 177000000,
      "t_trigger_us": 176864037,
      "is_ai": false,
      "track_id": 0,
      "velocity": 0,
      "is_motor": true,
      "motor_id": 2,
      "accel_val": 2000,
      "base_duration_us": 375000
    },
    {
      "id": "M_2300",
      "pitch": 86,
      "t_note_us": 177375000,
      "t_trigger_us": 177239037,
      "is_ai": true,
      "track_id": 4,
      "velocity": 0,
      "is_motor": false,
      "motor_id": 0,
      "accel_val": 2000,
      "base_duration_us": 375000
    },
    {
      "id": "M_2306",
      "pitch": 91,
      "t_note_us": 177375000,
      "t_trigger_us": 177239037,
      "is_ai": true,
      "track_id": 7,
      "velocity": 0,
      "is_motor": false,
      "motor_id": 0,
      "accel_val": 2000,
      "base_duration_us": 750000
    },
    {
      "id": "M_2299",
      "pitch": 67,
      "t_note_us": 177375000,
      "t_trigger_us": 177239037,
      "is_ai": false,
      "track_id": 0,
      "velocity": 0,
      "is_motor": true,
      "motor_id": 1,
      "accel_val": 2000,
      "base_duration_us": 375000
    },
    {
      "id": "M_2301",
      "pitch": 67,
      "t_note_us": 177375000,
      "t_trigger_us": 177239037,
      "is_ai": false,
      "track_id": 0,
      "velocity": 0,
      "is_motor": true,
      "motor_id": 2,
      "accel_val": 2000,
      "base_duration_us": 375000
    },
    {
      "id": "M_2302",
      "pitch": 74,
      "t_note_us": 177375000,
      "t_trigger_us": 177239037,
      "is_ai": false,
      "track_id": 0,
      "velocity": 0,
      "is_motor": true,
      "motor_id": 0,
      "accel_val": 2000,
      "base_duration_us": 375000
    },
    {
      "id": "M_2303",
      "pitch": 67,
      "t_note_us": 177375000,
      "t_trigger_us": 177239037,
      "is_ai": false,
      "track_id": 0,
      "velocity": 0,
      "is_motor": true,
      "motor_id": 3,
      "accel_val": 2000,
      "base_duration_us": 375000
    },
    {
      "id": "M_2305",
      "pitch": 86,
      "t_note_us": 177750000,
      "t_trigger_us": 177614037,
      "is_ai": true,
      "track_id": 4,
      "velocity": 0,
      "is_motor": false,
      "motor_id": 0,
      "accel_val": 2000,
      "base_duration_us": 375000
    },
    {
      "id": "M_2304",
      "pitch": 67,
      "t_note_us": 177750000,
      "t_trigger_us": 177614037,
      "is_ai": false,
      "track_id": 0,
      "velocity": 0,
      "is_motor": true,
      "motor_id": 1,
      "accel_val": 2000,
      "base_duration_us": 375000
    },
    {
      "id": "M_2307",
      "pitch": 67,
      "t_note_us": 177750000,
      "t_trigger_us": 177614037,
      "is_ai": false,
      "track_id": 0,
      "velocity": 0,
      "is_motor": true,
      "motor_id": 2,
      "accel_val": 2000,
      "base_duration_us": 375000
    },
    {
      "id": "M_2308",
      "pitch": 74,
      "t_note_us": 177750000,
      "t_trigger_us": 177614037,
      "is_ai": false,
      "track_id": 0,
      "velocity": 0,
      "is_motor": true,
      "motor_id": 0,
      "accel_val": 2000,
      "base_duration_us": 375000
    },
    {
      "id": "M_2309",
      "pitch": 67,
      "t_note_us": 177750000,
      "t_trigger_us": 177614037,
      "is_ai": false,
      "track_id": 0,
      "velocity": 0,
      "is_motor": true,
      "motor_id": 3,
      "accel_val": 2000,
      "base_duration_us": 375000
    },
    {
      "id": "M_2310",
      "pitch": 83,
      "t_note_us": 178125000,
      "t_trigger_us": 177989037,
      "is_ai": true,
      "track_id": 2,
      "velocity": 0,
      "is_motor": false,
      "motor_id": 0,
      "accel_val": 2000,
      "base_duration_us": 375000
    },
    {
      "id": "M_2311",
      "pitch": 86,
      "t_note_us": 178125000,
      "t_trigger_us": 177989037,
      "is_ai": true,
      "track_id": 4,
      "velocity": 0,
      "is_motor": false,
      "motor_id": 0,
      "accel_val": 2000,
      "base_duration_us": 375000
    },
    {
      "id": "M_2317",
      "pitch": 93,
      "t_note_us": 178125000,
      "t_trigger_us": 177989037,
      "is_ai": true,
      "track_id": 8,
      "velocity": 0,
      "is_motor": false,
      "motor_id": 0,
      "accel_val": 2000,
      "base_duration_us": 750000
    },
    {
      "id": "M_2312",
      "pitch": 67,
      "t_note_us": 178125000,
      "t_trigger_us": 177989037,
      "is_ai": false,
      "track_id": 0,
      "velocity": 0,
      "is_motor": true,
      "motor_id": 1,
      "accel_val": 2000,
      "base_duration_us": 375000
    },
    {
      "id": "M_2313",
      "pitch": 74,
      "t_note_us": 178125000,
      "t_trigger_us": 177989037,
      "is_ai": false,
      "track_id": 0,
      "velocity": 0,
      "is_motor": true,
      "motor_id": 0,
      "accel_val": 2000,
      "base_duration_us": 375000
    },
    {
      "id": "M_2314",
      "pitch": 67,
      "t_note_us": 178125000,
      "t_trigger_us": 177989037,
      "is_ai": false,
      "track_id": 0,
      "velocity": 0,
      "is_motor": true,
      "motor_id": 2,
      "accel_val": 2000,
      "base_duration_us": 375000
    },
    {
      "id": "M_2316",
      "pitch": 86,
      "t_note_us": 178500000,
      "t_trigger_us": 178364037,
      "is_ai": true,
      "track_id": 4,
      "velocity": 0,
      "is_motor": false,
      "motor_id": 0,
      "accel_val": 2000,
      "base_duration_us": 375000
    },
    {
      "id": "M_2315",
      "pitch": 71,
      "t_note_us": 178500000,
      "t_trigger_us": 178364037,
      "is_ai": false,
      "track_id": 0,
      "velocity": 0,
      "is_motor": true,
      "motor_id": 1,
      "accel_val": 2000,
      "base_duration_us": 375000
    },
    {
      "id": "M_2318",
      "pitch": 67,
      "t_note_us": 178500000,
      "t_trigger_us": 178364037,
      "is_ai": false,
      "track_id": 0,
      "velocity": 0,
      "is_motor": true,
      "motor_id": 2,
      "accel_val": 2000,
      "base_duration_us": 375000
    },
    {
      "id": "M_2319",
      "pitch": 74,
      "t_note_us": 178500000,
      "t_trigger_us": 178364037,
      "is_ai": false,
      "track_id": 0,
      "velocity": 0,
      "is_motor": true,
      "motor_id": 0,
      "accel_val": 2000,
      "base_duration_us": 375000
    },
    {
      "id": "M_2320",
      "pitch": 67,
      "t_note_us": 178500000,
      "t_trigger_us": 178364037,
      "is_ai": false,
      "track_id": 0,
      "velocity": 0,
      "is_motor": true,
      "motor_id": 3,
      "accel_val": 2000,
      "base_duration_us": 375000
    },
    {
      "id": "M_2341",
      "pitch": 93,
      "t_note_us": 178875000,
      "t_trigger_us": 178739037,
      "is_ai": true,
      "track_id": 8,
      "velocity": 0,
      "is_motor": false,
      "motor_id": 0,
      "accel_val": 2000,
      "base_duration_us": 3750000
    },
    {
      "id": "M_2321",
      "pitch": 73,
      "t_note_us": 178875000,
      "t_trigger_us": 178739037,
      "is_ai": false,
      "track_id": 0,
      "velocity": 0,
      "is_motor": true,
      "motor_id": 1,
      "accel_val": 2000,
      "base_duration_us": 375000
    },
    {
      "id": "M_2322",
      "pitch": 76,
      "t_note_us": 178875000,
      "t_trigger_us": 178739037,
      "is_ai": false,
      "track_id": 0,
      "velocity": 0,
      "is_motor": true,
      "motor_id": 2,
      "accel_val": 2000,
      "base_duration_us": 375000
    },
    {
      "id": "M_2323",
      "pitch": 74,
      "t_note_us": 179250000,
      "t_trigger_us": 179114037,
      "is_ai": false,
      "track_id": 0,
      "velocity": 0,
      "is_motor": true,
      "motor_id": 1,
      "accel_val": 2000,
      "base_duration_us": 187500
    },
    {
      "id": "M_2324",
      "pitch": 78,
      "t_note_us": 179250000,
      "t_trigger_us": 179114037,
      "is_ai": false,
      "track_id": 0,
      "velocity": 0,
      "is_motor": true,
      "motor_id": 2,
      "accel_val": 2000,
      "base_duration_us": 187500
    },
    {
      "id": "M_2325",
      "pitch": 73,
      "t_note_us": 179625000,
      "t_trigger_us": 179489037,
      "is_ai": false,
      "track_id": 0,
      "velocity": 0,
      "is_motor": true,
      "motor_id": 1,
      "accel_val": 2000,
      "base_duration_us": 187500
    },
    {
      "id": "M_2326",
      "pitch": 76,
      "t_note_us": 179625000,
      "t_trigger_us": 179489037,
      "is_ai": false,
      "track_id": 0,
      "velocity": 0,
      "is_motor": true,
      "motor_id": 2,
      "accel_val": 2000,
      "base_duration_us": 187500
    },
    {
      "id": "M_2327",
      "pitch": 74,
      "t_note_us": 180000000,
      "t_trigger_us": 179864037,
      "is_ai": false,
      "track_id": 0,
      "velocity": 0,
      "is_motor": true,
      "motor_id": 1,
      "accel_val": 2000,
      "base_duration_us": 187500
    },
    {
      "id": "M_2328",
      "pitch": 78,
      "t_note_us": 180000000,
      "t_trigger_us": 179864037,
      "is_ai": false,
      "track_id": 0,
      "velocity": 0,
      "is_motor": true,
      "motor_id": 2,
      "accel_val": 2000,
      "base_duration_us": 187500
    },
    {
      "id": "M_2329",
      "pitch": 73,
      "t_note_us": 180375000,
      "t_trigger_us": 180239037,
      "is_ai": false,
      "track_id": 0,
      "velocity": 0,
      "is_motor": true,
      "motor_id": 1,
      "accel_val": 2000,
      "base_duration_us": 187500
    },
    {
      "id": "M_2330",
      "pitch": 76,
      "t_note_us": 180375000,
      "t_trigger_us": 180239037,
      "is_ai": false,
      "track_id": 0,
      "velocity": 0,
      "is_motor": true,
      "motor_id": 2,
      "accel_val": 2000,
      "base_duration_us": 187500
    },
    {
      "id": "M_2331",
      "pitch": 74,
      "t_note_us": 180750000,
      "t_trigger_us": 180614037,
      "is_ai": false,
      "track_id": 0,
      "velocity": 0,
      "is_motor": true,
      "motor_id": 1,
      "accel_val": 2000,
      "base_duration_us": 187500
    },
    {
      "id": "M_2332",
      "pitch": 78,
      "t_note_us": 180750000,
      "t_trigger_us": 180614037,
      "is_ai": false,
      "track_id": 0,
      "velocity": 0,
      "is_motor": true,
      "motor_id": 2,
      "accel_val": 2000,
      "base_duration_us": 187500
    },
    {
      "id": "M_2333",
      "pitch": 76,
      "t_note_us": 180937500,
      "t_trigger_us": 180801537,
      "is_ai": false,
      "track_id": 0,
      "velocity": 0,
      "is_motor": true,
      "motor_id": 2,
      "accel_val": 2000,
      "base_duration_us": 375000
    },
    {
      "id": "M_2334",
      "pitch": 67,
      "t_note_us": 180937500,
      "t_trigger_us": 180801537,
      "is_ai": false,
      "track_id": 0,
      "velocity": 0,
      "is_motor": true,
      "motor_id": 1,
      "accel_val": 2000,
      "base_duration_us": 375000
    },
    {
      "id": "M_2335",
      "pitch": 74,
      "t_note_us": 181312500,
      "t_trigger_us": 181176537,
      "is_ai": false,
      "track_id": 0,
      "velocity": 0,
      "is_motor": true,
      "motor_id": 1,
      "accel_val": 2000,
      "base_duration_us": 375000
    },
    {
      "id": "M_2336",
      "pitch": 78,
      "t_note_us": 181312500,
      "t_trigger_us": 181176537,
      "is_ai": false,
      "track_id": 0,
      "velocity": 0,
      "is_motor": true,
      "motor_id": 2,
      "accel_val": 2000,
      "base_duration_us": 375000
    },
    {
      "id": "M_2337",
      "pitch": 73,
      "t_note_us": 181687500,
      "t_trigger_us": 181551537,
      "is_ai": false,
      "track_id": 0,
      "velocity": 0,
      "is_motor": true,
      "motor_id": 1,
      "accel_val": 2000,
      "base_duration_us": 375000
    },
    {
      "id": "M_2338",
      "pitch": 76,
      "t_note_us": 181687500,
      "t_trigger_us": 181551537,
      "is_ai": false,
      "track_id": 0,
      "velocity": 0,
      "is_motor": true,
      "motor_id": 2,
      "accel_val": 2000,
      "base_duration_us": 375000
    },
    {
      "id": "M_2339",
      "pitch": 74,
      "t_note_us": 182250000,
      "t_trigger_us": 182114037,
      "is_ai": false,
      "track_id": 0,
      "velocity": 0,
      "is_motor": true,
      "motor_id": 1,
      "accel_val": 2000,
      "base_duration_us": 187500
    },
    {
      "id": "M_2340",
      "pitch": 78,
      "t_note_us": 182250000,
      "t_trigger_us": 182114037,
      "is_ai": false,
      "track_id": 0,
      "velocity": 0,
      "is_motor": true,
      "motor_id": 2,
      "accel_val": 2000,
      "base_duration_us": 187500
    },
    {
      "id": "M_2342",
      "pitch": 73,
      "t_note_us": 182625000,
      "t_trigger_us": 182489037,
      "is_ai": false,
      "track_id": 0,
      "velocity": 0,
      "is_motor": true,
      "motor_id": 1,
      "accel_val": 2000,
      "base_duration_us": 187500
    },
    {
      "id": "M_2343",
      "pitch": 76,
      "t_note_us": 182625000,
      "t_trigger_us": 182489037,
      "is_ai": false,
      "track_id": 0,
      "velocity": 0,
      "is_motor": true,
      "motor_id": 2,
      "accel_val": 2000,
      "base_duration_us": 187500
    },
    {
      "id": "M_2344",
      "pitch": 74,
      "t_note_us": 183000000,
      "t_trigger_us": 182864037,
      "is_ai": false,
      "track_id": 0,
      "velocity": 0,
      "is_motor": true,
      "motor_id": 1,
      "accel_val": 2000,
      "base_duration_us": 187500
    },
    {
      "id": "M_2345",
      "pitch": 78,
      "t_note_us": 183000000,
      "t_trigger_us": 182864037,
      "is_ai": false,
      "track_id": 0,
      "velocity": 0,
      "is_motor": true,
      "motor_id": 2,
      "accel_val": 2000,
      "base_duration_us": 187500
    },
    {
      "id": "M_2346",
      "pitch": 71,
      "t_note_us": 183375000,
      "t_trigger_us": 183239037,
      "is_ai": false,
      "track_id": 0,
      "velocity": 0,
      "is_motor": true,
      "motor_id": 1,
      "accel_val": 2000,
      "base_duration_us": 187500
    },
    {
      "id": "M_2347",
      "pitch": 74,
      "t_note_us": 183375000,
      "t_trigger_us": 183239037,
      "is_ai": false,
      "track_id": 0,
      "velocity": 0,
      "is_motor": true,
      "motor_id": 0,
      "accel_val": 2000,
      "base_duration_us": 187500
    },
    {
      "id": "M_2348",
      "pitch": 73,
      "t_note_us": 183750000,
      "t_trigger_us": 183614037,
      "is_ai": false,
      "track_id": 0,
      "velocity": 0,
      "is_motor": true,
      "motor_id": 1,
      "accel_val": 2000,
      "base_duration_us": 375000
    },
    {
      "id": "M_2349",
      "pitch": 76,
      "t_note_us": 183750000,
      "t_trigger_us": 183614037,
      "is_ai": false,
      "track_id": 0,
      "velocity": 0,
      "is_motor": true,
      "motor_id": 2,
      "accel_val": 2000,
      "base_duration_us": 375000
    },
    {
      "id": "M_2350",
      "pitch": 69,
      "t_note_us": 184125000,
      "t_trigger_us": 183989037,
      "is_ai": false,
      "track_id": 0,
      "velocity": 0,
      "is_motor": true,
      "motor_id": 1,
      "accel_val": 2000,
      "base_duration_us": 562500
    },
    {
      "id": "M_2351",
      "pitch": 73,
      "t_note_us": 184125000,
      "t_trigger_us": 183989037,
      "is_ai": false,
      "track_id": 0,
      "velocity": 0,
      "is_motor": true,
      "motor_id": 0,
      "accel_val": 2000,
      "base_duration_us": 562500
    },
    {
      "id": "M_2352",
      "pitch": 88,
      "t_note_us": 184687500,
      "t_trigger_us": 184551537,
      "is_ai": true,
      "track_id": 5,
      "velocity": 0,
      "is_motor": false,
      "motor_id": 0,
      "accel_val": 2000,
      "base_duration_us": 375000
    },
    {
      "id": "M_2354",
      "pitch": 76,
      "t_note_us": 184687500,
      "t_trigger_us": 184551537,
      "is_ai": false,
      "track_id": 0,
      "velocity": 0,
      "is_motor": true,
      "motor_id": 2,
      "accel_val": 2000,
      "base_duration_us": 562500
    },
    {
      "id": "M_2355",
      "pitch": 73,
      "t_note_us": 184687500,
      "t_trigger_us": 184551537,
      "is_ai": false,
      "track_id": 0,
      "velocity": 0,
      "is_motor": true,
      "motor_id": 1,
      "accel_val": 2000,
      "base_duration_us": 562500
    },
    {
      "id": "M_2394",
      "pitch": 57,
      "t_note_us": 184687500,
      "t_trigger_us": 184551537,
      "is_ai": false,
      "track_id": 0,
      "velocity": 0,
      "is_motor": true,
      "motor_id": 0,
      "accel_val": 2000,
      "base_duration_us": 4687500
    },
    {
      "id": "M_2395",
      "pitch": 69,
      "t_note_us": 184687500,
      "t_trigger_us": 184551537,
      "is_ai": false,
      "track_id": 0,
      "velocity": 0,
      "is_motor": true,
      "motor_id": 3,
      "accel_val": 2000,
      "base_duration_us": 4687500
    },
    {
      "id": "M_2353",
      "pitch": 88,
      "t_note_us": 185062500,
      "t_trigger_us": 184926537,
      "is_ai": true,
      "track_id": 5,
      "velocity": 0,
      "is_motor": false,
      "motor_id": 0,
      "accel_val": 2000,
      "base_duration_us": 187500
    },
    {
      "id": "M_2356",
      "pitch": 90,
      "t_note_us": 185250000,
      "t_trigger_us": 185114037,
      "is_ai": true,
      "track_id": 0,
      "velocity": 0,
      "is_motor": true,
      "motor_id": 2,
      "accel_val": 2000,
      "base_duration_us": 187500
    },
    {
      "id": "M_2358",
      "pitch": 86,
      "t_note_us": 185250000,
      "t_trigger_us": 185114037,
      "is_ai": true,
      "track_id": 4,
      "velocity": 0,
      "is_motor": false,
      "motor_id": 0,
      "accel_val": 2000,
      "base_duration_us": 187500
    },
    {
      "id": "M_2357",
      "pitch": 78,
      "t_note_us": 185250000,
      "t_trigger_us": 185114037,
      "is_ai": false,
      "track_id": 0,
      "velocity": 0,
      "is_motor": true,
      "motor_id": 1,
      "accel_val": 2000,
      "base_duration_us": 187500
    },
    {
      "id": "M_2359",
      "pitch": 88,
      "t_note_us": 185437500,
      "t_trigger_us": 185301537,
      "is_ai": true,
      "track_id": 5,
      "velocity": 0,
      "is_motor": false,
      "motor_id": 0,
      "accel_val": 2000,
      "base_duration_us": 187500
    },
    {
      "id": "M_2362",
      "pitch": 88,
      "t_note_us": 185625000,
      "t_trigger_us": 185489037,
      "is_ai": true,
      "track_id": 5,
      "velocity": 0,
      "is_motor": false,
      "motor_id": 0,
      "accel_val": 2000,
      "base_duration_us": 375000
    },
    {
      "id": "M_2360",
      "pitch": 76,
      "t_note_us": 185625000,
      "t_trigger_us": 185489037,
      "is_ai": false,
      "track_id": 0,
      "velocity": 0,
      "is_motor": true,
      "motor_id": 2,
      "accel_val": 2000,
      "base_duration_us": 187500
    },
    {
      "id": "M_2361",
      "pitch": 73,
      "t_note_us": 185625000,
      "t_trigger_us": 185489037,
      "is_ai": false,
      "track_id": 0,
      "velocity": 0,
      "is_motor": true,
      "motor_id": 1,
      "accel_val": 2000,
      "base_duration_us": 187500
    },
    {
      "id": "M_2365",
      "pitch": 90,
      "t_note_us": 186000000,
      "t_trigger_us": 185864037,
      "is_ai": true,
      "track_id": 0,
      "velocity": 0,
      "is_motor": true,
      "motor_id": 2,
      "accel_val": 2000,
      "base_duration_us": 375000
    },
    {
      "id": "M_2363",
      "pitch": 78,
      "t_note_us": 186000000,
      "t_trigger_us": 185864037,
      "is_ai": false,
      "track_id": 0,
      "velocity": 0,
      "is_motor": true,
      "motor_id": 1,
      "accel_val": 2000,
      "base_duration_us": 187500
    },
    {
      "id": "M_2364",
      "pitch": 74,
      "t_note_us": 186000000,
      "t_trigger_us": 185864037,
      "is_ai": false,
      "track_id": 0,
      "velocity": 0,
      "is_motor": true,
      "motor_id": 0,
      "accel_val": 2000,
      "base_duration_us": 187500
    },
    {
      "id": "M_2367",
      "pitch": 85,
      "t_note_us": 186375000,
      "t_trigger_us": 186239037,
      "is_ai": true,
      "track_id": 0,
      "velocity": 0,
      "is_motor": true,
      "motor_id": 2,
      "accel_val": 2000,
      "base_duration_us": 187500
    },
    {
      "id": "M_2368",
      "pitch": 88,
      "t_note_us": 186375000,
      "t_trigger_us": 186239037,
      "is_ai": true,
      "track_id": 5,
      "velocity": 0,
      "is_motor": false,
      "motor_id": 0,
      "accel_val": 2000,
      "base_duration_us": 375000
    },
    {
      "id": "M_2366",
      "pitch": 76,
      "t_note_us": 186375000,
      "t_trigger_us": 186239037,
      "is_ai": false,
      "track_id": 0,
      "velocity": 0,
      "is_motor": true,
      "motor_id": 1,
      "accel_val": 2000,
      "base_duration_us": 187500
    },
    {
      "id": "M_2369",
      "pitch": 90,
      "t_note_us": 186750000,
      "t_trigger_us": 186614037,
      "is_ai": true,
      "track_id": 0,
      "velocity": 0,
      "is_motor": true,
      "motor_id": 2,
      "accel_val": 2000,
      "base_duration_us": 187500
    },
    {
      "id": "M_2371",
      "pitch": 86,
      "t_note_us": 186750000,
      "t_trigger_us": 186614037,
      "is_ai": true,
      "track_id": 4,
      "velocity": 0,
      "is_motor": false,
      "motor_id": 0,
      "accel_val": 2000,
      "base_duration_us": 187500
    },
    {
      "id": "M_2370",
      "pitch": 78,
      "t_note_us": 186750000,
      "t_trigger_us": 186614037,
      "is_ai": false,
      "track_id": 0,
      "velocity": 0,
      "is_motor": true,
      "motor_id": 1,
      "accel_val": 2000,
      "base_duration_us": 187500
    },
    {
      "id": "M_2372",
      "pitch": 91,
      "t_note_us": 186937500,
      "t_trigger_us": 186801537,
      "is_ai": true,
      "track_id": 7,
      "velocity": 0,
      "is_motor": false,
      "motor_id": 0,
      "accel_val": 2000,
      "base_duration_us": 375000
    },
    {
      "id": "M_2374",
      "pitch": 88,
      "t_note_us": 186937500,
      "t_trigger_us": 186801537,
      "is_ai": true,
      "track_id": 5,
      "velocity": 0,
      "is_motor": false,
      "motor_id": 0,
      "accel_val": 2000,
      "base_duration_us": 375000
    },
    {
      "id": "M_2373",
      "pitch": 67,
      "t_note_us": 186937500,
      "t_trigger_us": 186801537,
      "is_ai": false,
      "track_id": 0,
      "velocity": 0,
      "is_motor": true,
      "motor_id": 1,
      "accel_val": 2000,
      "base_duration_us": 375000
    },
    {
      "id": "M_2375",
      "pitch": 90,
      "t_note_us": 187312500,
      "t_trigger_us": 187176537,
      "is_ai": true,
      "track_id": 0,
      "velocity": 0,
      "is_motor": true,
      "motor_id": 2,
      "accel_val": 2000,
      "base_duration_us": 375000
    },
    {
      "id": "M_2377",
      "pitch": 86,
      "t_note_us": 187312500,
      "t_trigger_us": 187176537,
      "is_ai": true,
      "track_id": 4,
      "velocity": 0,
      "is_motor": false,
      "motor_id": 0,
      "accel_val": 2000,
      "base_duration_us": 375000
    },
    {
      "id": "M_2376",
      "pitch": 78,
      "t_note_us": 187312500,
      "t_trigger_us": 187176537,
      "is_ai": false,
      "track_id": 0,
      "velocity": 0,
      "is_motor": true,
      "motor_id": 1,
      "accel_val": 2000,
      "base_duration_us": 375000
    },
    {
      "id": "M_2378",
      "pitch": 88,
      "t_note_us": 187687500,
      "t_trigger_us": 187551537,
      "is_ai": true,
      "track_id": 5,
      "velocity": 0,
      "is_motor": false,
      "motor_id": 0,
      "accel_val": 2000,
      "base_duration_us": 375000
    },
    {
      "id": "M_2380",
      "pitch": 85,
      "t_note_us": 187687500,
      "t_trigger_us": 187551537,
      "is_ai": true,
      "track_id": 0,
      "velocity": 0,
      "is_motor": true,
      "motor_id": 2,
      "accel_val": 2000,
      "base_duration_us": 375000
    },
    {
      "id": "M_2379",
      "pitch": 76,
      "t_note_us": 187687500,
      "t_trigger_us": 187551537,
      "is_ai": false,
      "track_id": 0,
      "velocity": 0,
      "is_motor": true,
      "motor_id": 1,
      "accel_val": 2000,
      "base_duration_us": 375000
    },
    {
      "id": "M_2381",
      "pitch": 88,
      "t_note_us": 188062500,
      "t_trigger_us": 187926537,
      "is_ai": true,
      "track_id": 5,
      "velocity": 0,
      "is_motor": false,
      "motor_id": 0,
      "accel_val": 2000,
      "base_duration_us": 187500
    },
    {
      "id": "M_2382",
      "pitch": 90,
      "t_note_us": 188250000,
      "t_trigger_us": 188114037,
      "is_ai": true,
      "track_id": 0,
      "velocity": 0,
      "is_motor": true,
      "motor_id": 2,
      "accel_val": 2000,
      "base_duration_us": 187500
    },
    {
      "id": "M_2384",
      "pitch": 86,
      "t_note_us": 188250000,
      "t_trigger_us": 188114037,
      "is_ai": true,
      "track_id": 4,
      "velocity": 0,
      "is_motor": false,
      "motor_id": 0,
      "accel_val": 2000,
      "base_duration_us": 187500
    },
    {
      "id": "M_2383",
      "pitch": 78,
      "t_note_us": 188250000,
      "t_trigger_us": 188114037,
      "is_ai": false,
      "track_id": 0,
      "velocity": 0,
      "is_motor": true,
      "motor_id": 1,
      "accel_val": 2000,
      "base_duration_us": 187500
    },
    {
      "id": "M_2385",
      "pitch": 88,
      "t_note_us": 188437500,
      "t_trigger_us": 188301537,
      "is_ai": true,
      "track_id": 5,
      "velocity": 0,
      "is_motor": false,
      "motor_id": 0,
      "accel_val": 2000,
      "base_duration_us": 187500
    },
    {
      "id": "M_2386",
      "pitch": 88,
      "t_note_us": 188625000,
      "t_trigger_us": 188489037,
      "is_ai": true,
      "track_id": 5,
      "velocity": 0,
      "is_motor": false,
      "motor_id": 0,
      "accel_val": 2000,
      "base_duration_us": 187500
    },
    {
      "id": "M_2388",
      "pitch": 85,
      "t_note_us": 188625000,
      "t_trigger_us": 188489037,
      "is_ai": true,
      "track_id": 0,
      "velocity": 0,
      "is_motor": true,
      "motor_id": 2,
      "accel_val": 2000,
      "base_duration_us": 187500
    },
    {
      "id": "M_2387",
      "pitch": 76,
      "t_note_us": 188625000,
      "t_trigger_us": 188489037,
      "is_ai": false,
      "track_id": 0,
      "velocity": 0,
      "is_motor": true,
      "motor_id": 1,
      "accel_val": 2000,
      "base_duration_us": 187500
    },
    {
      "id": "M_2389",
      "pitch": 88,
      "t_note_us": 188812500,
      "t_trigger_us": 188676537,
      "is_ai": true,
      "track_id": 5,
      "velocity": 0,
      "is_motor": false,
      "motor_id": 0,
      "accel_val": 2000,
      "base_duration_us": 187500
    },
    {
      "id": "M_2390",
      "pitch": 90,
      "t_note_us": 189000000,
      "t_trigger_us": 188864037,
      "is_ai": true,
      "track_id": 0,
      "velocity": 0,
      "is_motor": true,
      "motor_id": 2,
      "accel_val": 2000,
      "base_duration_us": 187500
    },
    {
      "id": "M_2392",
      "pitch": 86,
      "t_note_us": 189000000,
      "t_trigger_us": 188864037,
      "is_ai": true,
      "track_id": 4,
      "velocity": 0,
      "is_motor": false,
      "motor_id": 0,
      "accel_val": 2000,
      "base_duration_us": 187500
    },
    {
      "id": "M_2391",
      "pitch": 78,
      "t_note_us": 189000000,
      "t_trigger_us": 188864037,
      "is_ai": false,
      "track_id": 0,
      "velocity": 0,
      "is_motor": true,
      "motor_id": 1,
      "accel_val": 2000,
      "base_duration_us": 187500
    },
    {
      "id": "M_2393",
      "pitch": 88,
      "t_note_us": 189187500,
      "t_trigger_us": 189051537,
      "is_ai": true,
      "track_id": 5,
      "velocity": 0,
      "is_motor": false,
      "motor_id": 0,
      "accel_val": 2000,
      "base_duration_us": 187500
    },
    {
      "id": "M_2396",
      "pitch": 90,
      "t_note_us": 189375000,
      "t_trigger_us": 189239037,
      "is_ai": true,
      "track_id": 0,
      "velocity": 0,
      "is_motor": true,
      "motor_id": 3,
      "accel_val": 2000,
      "base_duration_us": 187500
    },
    {
      "id": "M_2397",
      "pitch": 72,
      "t_note_us": 189375000,
      "t_trigger_us": 189239037,
      "is_ai": false,
      "track_id": 0,
      "velocity": 0,
      "is_motor": true,
      "motor_id": 1,
      "accel_val": 2000,
      "base_duration_us": 187500
    },
    {
      "id": "M_2398",
      "pitch": 60,
      "t_note_us": 189375000,
      "t_trigger_us": 189239037,
      "is_ai": false,
      "track_id": 0,
      "velocity": 0,
      "is_motor": true,
      "motor_id": 0,
      "accel_val": 2000,
      "base_duration_us": 187500
    },
    {
      "id": "M_2399",
      "pitch": 72,
      "t_note_us": 189375000,
      "t_trigger_us": 189239037,
      "is_ai": false,
      "track_id": 0,
      "velocity": 0,
      "is_motor": true,
      "motor_id": 2,
      "accel_val": 2000,
      "base_duration_us": 187500
    },
    {
      "id": "M_2400",
      "pitch": 88,
      "t_note_us": 189562500,
      "t_trigger_us": 189426537,
      "is_ai": true,
      "track_id": 5,
      "velocity": 0,
      "is_motor": false,
      "motor_id": 0,
      "accel_val": 2000,
      "base_duration_us": 187500
    },
    {
      "id": "M_2401",
      "pitch": 90,
      "t_note_us": 189750000,
      "t_trigger_us": 189614037,
      "is_ai": true,
      "track_id": 0,
      "velocity": 0,
      "is_motor": true,
      "motor_id": 3,
      "accel_val": 2000,
      "base_duration_us": 187500
    },
    {
      "id": "M_2402",
      "pitch": 72,
      "t_note_us": 189750000,
      "t_trigger_us": 189614037,
      "is_ai": false,
      "track_id": 0,
      "velocity": 0,
      "is_motor": true,
      "motor_id": 1,
      "accel_val": 2000,
      "base_duration_us": 187500
    },
    {
      "id": "M_2403",
      "pitch": 60,
      "t_note_us": 189750000,
      "t_trigger_us": 189614037,
      "is_ai": false,
      "track_id": 0,
      "velocity": 0,
      "is_motor": true,
      "motor_id": 0,
      "accel_val": 2000,
      "base_duration_us": 187500
    },
    {
      "id": "M_2404",
      "pitch": 72,
      "t_note_us": 189750000,
      "t_trigger_us": 189614037,
      "is_ai": false,
      "track_id": 0,
      "velocity": 0,
      "is_motor": true,
      "motor_id": 2,
      "accel_val": 2000,
      "base_duration_us": 187500
    },
    {
      "id": "M_2405",
      "pitch": 88,
      "t_note_us": 189937500,
      "t_trigger_us": 189801537,
      "is_ai": true,
      "track_id": 5,
      "velocity": 0,
      "is_motor": false,
      "motor_id": 0,
      "accel_val": 2000,
      "base_duration_us": 187500
    },
    {
      "id": "M_2406",
      "pitch": 99,
      "t_note_us": 190125000,
      "t_trigger_us": 189989037,
      "is_ai": true,
      "track_id": 0,
      "velocity": 0,
      "is_motor": true,
      "motor_id": 3,
      "accel_val": 2000,
      "base_duration_us": 187500
    },
    {
      "id": "M_2407",
      "pitch": 86,
      "t_note_us": 190125000,
      "t_trigger_us": 189989037,
      "is_ai": true,
      "track_id": 4,
      "velocity": 0,
      "is_motor": false,
      "motor_id": 0,
      "accel_val": 2000,
      "base_duration_us": 187500
    },
    {
      "id": "M_2408",
      "pitch": 91,
      "t_note_us": 190125000,
      "t_trigger_us": 189989037,
      "is_ai": true,
      "track_id": 7,
      "velocity": 0,
      "is_motor": false,
      "motor_id": 0,
      "accel_val": 2000,
      "base_duration_us": 187500
    },
    {
      "id": "M_2409",
      "pitch": 60,
      "t_note_us": 190125000,
      "t_trigger_us": 189989037,
      "is_ai": false,
      "track_id": 0,
      "velocity": 0,
      "is_motor": true,
      "motor_id": 1,
      "accel_val": 2000,
      "base_duration_us": 187500
    },
    {
      "id": "M_2410",
      "pitch": 67,
      "t_note_us": 190125000,
      "t_trigger_us": 189989037,
      "is_ai": false,
      "track_id": 0,
      "velocity": 0,
      "is_motor": true,
      "motor_id": 2,
      "accel_val": 2000,
      "base_duration_us": 187500
    },
    {
      "id": "M_2411",
      "pitch": 72,
      "t_note_us": 190125000,
      "t_trigger_us": 189989037,
      "is_ai": false,
      "track_id": 0,
      "velocity": 0,
      "is_motor": true,
      "motor_id": 0,
      "accel_val": 2000,
      "base_duration_us": 187500
    },
    {
      "id": "M_2412",
      "pitch": 98,
      "t_note_us": 190312500,
      "t_trigger_us": 190176537,
      "is_ai": true,
      "track_id": 11,
      "velocity": 0,
      "is_motor": false,
      "motor_id": 0,
      "accel_val": 2000,
      "base_duration_us": 187500
    },
    {
      "id": "M_2414",
      "pitch": 91,
      "t_note_us": 190500000,
      "t_trigger_us": 190364037,
      "is_ai": true,
      "track_id": 7,
      "velocity": 0,
      "is_motor": false,
      "motor_id": 0,
      "accel_val": 2000,
      "base_duration_us": 187500
    },
    {
      "id": "M_2418",
      "pitch": 96,
      "t_note_us": 190500000,
      "t_trigger_us": 190364037,
      "is_ai": true,
      "track_id": 10,
      "velocity": 0,
      "is_motor": false,
      "motor_id": 0,
      "accel_val": 2000,
      "base_duration_us": 375000
    },
    {
      "id": "M_2413",
      "pitch": 74,
      "t_note_us": 190500000,
      "t_trigger_us": 190364037,
      "is_ai": false,
      "track_id": 0,
      "velocity": 0,
      "is_motor": true,
      "motor_id": 1,
      "accel_val": 2000,
      "base_duration_us": 187500
    },
    {
      "id": "M_2415",
      "pitch": 60,
      "t_note_us": 190500000,
      "t_trigger_us": 190364037,
      "is_ai": false,
      "track_id": 0,
      "velocity": 0,
      "is_motor": true,
      "motor_id": 0,
      "accel_val": 2000,
      "base_duration_us": 187500
    },
    {
      "id": "M_2416",
      "pitch": 67,
      "t_note_us": 190500000,
      "t_trigger_us": 190364037,
      "is_ai": false,
      "track_id": 0,
      "velocity": 0,
      "is_motor": true,
      "motor_id": 2,
      "accel_val": 2000,
      "base_duration_us": 187500
    },
    {
      "id": "M_2417",
      "pitch": 72,
      "t_note_us": 190500000,
      "t_trigger_us": 190364037,
      "is_ai": false,
      "track_id": 0,
      "velocity": 0,
      "is_motor": true,
      "motor_id": 3,
      "accel_val": 2000,
      "base_duration_us": 187500
    },
    {
      "id": "M_2420",
      "pitch": 88,
      "t_note_us": 190875000,
      "t_trigger_us": 190739037,
      "is_ai": true,
      "track_id": 5,
      "velocity": 0,
      "is_motor": false,
      "motor_id": 0,
      "accel_val": 2000,
      "base_duration_us": 375000
    },
    {
      "id": "M_2422",
      "pitch": 85,
      "t_note_us": 190875000,
      "t_trigger_us": 190739037,
      "is_ai": true,
      "track_id": 0,
      "velocity": 0,
      "is_motor": true,
      "motor_id": 3,
      "accel_val": 2000,
      "base_duration_us": 375000
    },
    {
      "id": "M_2419",
      "pitch": 57,
      "t_note_us": 190875000,
      "t_trigger_us": 190739037,
      "is_ai": false,
      "track_id": 0,
      "velocity": 0,
      "is_motor": true,
      "motor_id": 0,
      "accel_val": 2000,
      "base_duration_us": 187500
    },
    {
      "id": "M_2421",
      "pitch": 76,
      "t_note_us": 190875000,
      "t_trigger_us": 190739037,
      "is_ai": false,
      "track_id": 0,
      "velocity": 0,
      "is_motor": true,
      "motor_id": 2,
      "accel_val": 2000,
      "base_duration_us": 375000
    },
    {
      "id": "M_2423",
      "pitch": 57,
      "t_note_us": 191062500,
      "t_trigger_us": 190926537,
      "is_ai": false,
      "track_id": 0,
      "velocity": 0,
      "is_motor": true,
      "motor_id": 0,
      "accel_val": 2000,
      "base_duration_us": 187500
    },
    {
      "id": "M_2425",
      "pitch": 86,
      "t_note_us": 191250000,
      "t_trigger_us": 191114037,
      "is_ai": true,
      "track_id": 4,
      "velocity": 0,
      "is_motor": false,
      "motor_id": 0,
      "accel_val": 2000,
      "base_duration_us": 187500
    },
    {
      "id": "M_2429",
      "pitch": 90,
      "t_note_us": 191250000,
      "t_trigger_us": 191114037,
      "is_ai": true,
      "track_id": 0,
      "velocity": 0,
      "is_motor": true,
      "motor_id": 3,
      "accel_val": 2000,
      "base_duration_us": 375000
    },
    {
      "id": "M_2424",
      "pitch": 78,
      "t_note_us": 191250000,
      "t_trigger_us": 191114037,
      "is_ai": false,
      "track_id": 0,
      "velocity": 0,
      "is_motor": true,
      "motor_id": 2,
      "accel_val": 2000,
      "base_duration_us": 187500
    },
    {
      "id": "M_2426",
      "pitch": 57,
      "t_note_us": 191250000,
      "t_trigger_us": 191114037,
      "is_ai": false,
      "track_id": 0,
      "velocity": 0,
      "is_motor": true,
      "motor_id": 0,
      "accel_val": 2000,
      "base_duration_us": 187500
    },
    {
      "id": "M_2427",
      "pitch": 64,
      "t_note_us": 191250000,
      "t_trigger_us": 191114037,
      "is_ai": false,
      "track_id": 0,
      "velocity": 0,
      "is_motor": true,
      "motor_id": 1,
      "accel_val": 2000,
      "base_duration_us": 187500
    },
    {
      "id": "M_2428",
      "pitch": 69,
      "t_note_us": 191250000,
      "t_trigger_us": 191114037,
      "is_ai": false,
      "track_id": 0,
      "velocity": 0,
      "is_motor": true,
      "motor_id": 0,
      "accel_val": 2000,
      "base_duration_us": 187500
    },
    {
      "id": "M_2430",
      "pitch": 57,
      "t_note_us": 191437500,
      "t_trigger_us": 191301537,
      "is_ai": false,
      "track_id": 0,
      "velocity": 0,
      "is_motor": true,
      "motor_id": 0,
      "accel_val": 2000,
      "base_duration_us": 187500
    },
    {
      "id": "M_2434",
      "pitch": 88,
      "t_note_us": 191625000,
      "t_trigger_us": 191489037,
      "is_ai": true,
      "track_id": 5,
      "velocity": 0,
      "is_motor": false,
      "motor_id": 0,
      "accel_val": 2000,
      "base_duration_us": 375000
    },
    {
      "id": "M_2431",
      "pitch": 76,
      "t_note_us": 191625000,
      "t_trigger_us": 191489037,
      "is_ai": false,
      "track_id": 0,
      "velocity": 0,
      "is_motor": true,
      "motor_id": 2,
      "accel_val": 2000,
      "base_duration_us": 187500
    },
    {
      "id": "M_2432",
      "pitch": 73,
      "t_note_us": 191625000,
      "t_trigger_us": 191489037,
      "is_ai": false,
      "track_id": 0,
      "velocity": 0,
      "is_motor": true,
      "motor_id": 1,
      "accel_val": 2000,
      "base_duration_us": 187500
    },
    {
      "id": "M_2433",
      "pitch": 57,
      "t_note_us": 191625000,
      "t_trigger_us": 191489037,
      "is_ai": false,
      "track_id": 0,
      "velocity": 0,
      "is_motor": true,
      "motor_id": 0,
      "accel_val": 2000,
      "base_duration_us": 187500
    },
    {
      "id": "M_2435",
      "pitch": 57,
      "t_note_us": 191812500,
      "t_trigger_us": 191676537,
      "is_ai": false,
      "track_id": 0,
      "velocity": 0,
      "is_motor": true,
      "motor_id": 0,
      "accel_val": 2000,
      "base_duration_us": 187500
    },
    {
      "id": "M_2441",
      "pitch": 90,
      "t_note_us": 192000000,
      "t_trigger_us": 191864037,
      "is_ai": true,
      "track_id": 0,
      "velocity": 0,
      "is_motor": true,
      "motor_id": 3,
      "accel_val": 2000,
      "base_duration_us": 375000
    },
    {
      "id": "M_2436",
      "pitch": 78,
      "t_note_us": 192000000,
      "t_trigger_us": 191864037,
      "is_ai": false,
      "track_id": 0,
      "velocity": 0,
      "is_motor": true,
      "motor_id": 2,
      "accel_val": 2000,
      "base_duration_us": 187500
    },
    {
      "id": "M_2437",
      "pitch": 74,
      "t_note_us": 192000000,
      "t_trigger_us": 191864037,
      "is_ai": false,
      "track_id": 0,
      "velocity": 0,
      "is_motor": true,
      "motor_id": 1,
      "accel_val": 2000,
      "base_duration_us": 187500
    },
    {
      "id": "M_2438",
      "pitch": 57,
      "t_note_us": 192000000,
      "t_trigger_us": 191864037,
      "is_ai": false,
      "track_id": 0,
      "velocity": 0,
      "is_motor": true,
      "motor_id": 0,
      "accel_val": 2000,
      "base_duration_us": 187500
    },
    {
      "id": "M_2439",
      "pitch": 64,
      "t_note_us": 192000000,
      "t_trigger_us": 191864037,
      "is_ai": false,
      "track_id": 0,
      "velocity": 0,
      "is_motor": true,
      "motor_id": 0,
      "accel_val": 2000,
      "base_duration_us": 187500
    },
    {
      "id": "M_2440",
      "pitch": 69,
      "t_note_us": 192000000,
      "t_trigger_us": 191864037,
      "is_ai": false,
      "track_id": 0,
      "velocity": 0,
      "is_motor": true,
      "motor_id": 0,
      "accel_val": 2000,
      "base_duration_us": 187500
    },
    {
      "id": "M_2442",
      "pitch": 57,
      "t_note_us": 192187500,
      "t_trigger_us": 192051537,
      "is_ai": false,
      "track_id": 0,
      "velocity": 0,
      "is_motor": true,
      "motor_id": 0,
      "accel_val": 2000,
      "base_duration_us": 187500
    },
    {
      "id": "M_2443",
      "pitch": 88,
      "t_note_us": 192375000,
      "t_trigger_us": 192239037,
      "is_ai": true,
      "track_id": 5,
      "velocity": 0,
      "is_motor": false,
      "motor_id": 0,
      "accel_val": 2000,
      "base_duration_us": 187500
    },
    {
      "id": "M_2445",
      "pitch": 85,
      "t_note_us": 192375000,
      "t_trigger_us": 192239037,
      "is_ai": true,
      "track_id": 0,
      "velocity": 0,
      "is_motor": true,
      "motor_id": 3,
      "accel_val": 2000,
      "base_duration_us": 187500
    },
    {
      "id": "M_2444",
      "pitch": 76,
      "t_note_us": 192375000,
      "t_trigger_us": 192239037,
      "is_ai": false,
      "track_id": 0,
      "velocity": 0,
      "is_motor": true,
      "motor_id": 2,
      "accel_val": 2000,
      "base_duration_us": 187500
    },
    {
      "id": "M_2446",
      "pitch": 57,
      "t_note_us": 192375000,
      "t_trigger_us": 192239037,
      "is_ai": false,
      "track_id": 0,
      "velocity": 0,
      "is_motor": true,
      "motor_id": 0,
      "accel_val": 2000,
      "base_duration_us": 187500
    },
    {
      "id": "M_2447",
      "pitch": 88,
      "t_note_us": 192562500,
      "t_trigger_us": 192426537,
      "is_ai": true,
      "track_id": 5,
      "velocity": 0,
      "is_motor": false,
      "motor_id": 0,
      "accel_val": 2000,
      "base_duration_us": 187500
    },
    {
      "id": "M_2448",
      "pitch": 57,
      "t_note_us": 192562500,
      "t_trigger_us": 192426537,
      "is_ai": false,
      "track_id": 0,
      "velocity": 0,
      "is_motor": true,
      "motor_id": 0,
      "accel_val": 2000,
      "base_duration_us": 187500
    },
    {
      "id": "M_2449",
      "pitch": 90,
      "t_note_us": 192750000,
      "t_trigger_us": 192614037,
      "is_ai": true,
      "track_id": 0,
      "velocity": 0,
      "is_motor": true,
      "motor_id": 3,
      "accel_val": 2000,
      "base_duration_us": 187500
    },
    {
      "id": "M_2451",
      "pitch": 86,
      "t_note_us": 192750000,
      "t_trigger_us": 192614037,
      "is_ai": true,
      "track_id": 4,
      "velocity": 0,
      "is_motor": false,
      "motor_id": 0,
      "accel_val": 2000,
      "base_duration_us": 187500
    },
    {
      "id": "M_2450",
      "pitch": 78,
      "t_note_us": 192750000,
      "t_trigger_us": 192614037,
      "is_ai": false,
      "track_id": 0,
      "velocity": 0,
      "is_motor": true,
      "motor_id": 2,
      "accel_val": 2000,
      "base_duration_us": 187500
    },
    {
      "id": "M_2452",
      "pitch": 57,
      "t_note_us": 192750000,
      "t_trigger_us": 192614037,
      "is_ai": false,
      "track_id": 0,
      "velocity": 0,
      "is_motor": true,
      "motor_id": 0,
      "accel_val": 2000,
      "base_duration_us": 187500
    },
    {
      "id": "M_2453",
      "pitch": 64,
      "t_note_us": 192750000,
      "t_trigger_us": 192614037,
      "is_ai": false,
      "track_id": 0,
      "velocity": 0,
      "is_motor": true,
      "motor_id": 1,
      "accel_val": 2000,
      "base_duration_us": 187500
    },
    {
      "id": "M_2454",
      "pitch": 69,
      "t_note_us": 192750000,
      "t_trigger_us": 192614037,
      "is_ai": false,
      "track_id": 0,
      "velocity": 0,
      "is_motor": true,
      "motor_id": 0,
      "accel_val": 2000,
      "base_duration_us": 187500
    },
    {
      "id": "M_2456",
      "pitch": 91,
      "t_note_us": 192937500,
      "t_trigger_us": 192801537,
      "is_ai": true,
      "track_id": 7,
      "velocity": 0,
      "is_motor": false,
      "motor_id": 0,
      "accel_val": 2000,
      "base_duration_us": 375000
    },
    {
      "id": "M_2458",
      "pitch": 88,
      "t_note_us": 192937500,
      "t_trigger_us": 192801537,
      "is_ai": true,
      "track_id": 5,
      "velocity": 0,
      "is_motor": false,
      "motor_id": 0,
      "accel_val": 2000,
      "base_duration_us": 375000
    },
    {
      "id": "M_2455",
      "pitch": 57,
      "t_note_us": 192937500,
      "t_trigger_us": 192801537,
      "is_ai": false,
      "track_id": 0,
      "velocity": 0,
      "is_motor": true,
      "motor_id": 0,
      "accel_val": 2000,
      "base_duration_us": 187500
    },
    {
      "id": "M_2457",
      "pitch": 67,
      "t_note_us": 192937500,
      "t_trigger_us": 192801537,
      "is_ai": false,
      "track_id": 0,
      "velocity": 0,
      "is_motor": true,
      "motor_id": 1,
      "accel_val": 2000,
      "base_duration_us": 375000
    },
    {
      "id": "M_2459",
      "pitch": 57,
      "t_note_us": 193125000,
      "t_trigger_us": 192989037,
      "is_ai": false,
      "track_id": 0,
      "velocity": 0,
      "is_motor": true,
      "motor_id": 0,
      "accel_val": 2000,
      "base_duration_us": 187500
    },
    {
      "id": "M_2461",
      "pitch": 90,
      "t_note_us": 193312500,
      "t_trigger_us": 193176537,
      "is_ai": true,
      "track_id": 0,
      "velocity": 0,
      "is_motor": true,
      "motor_id": 3,
      "accel_val": 2000,
      "base_duration_us": 375000
    },
    {
      "id": "M_2463",
      "pitch": 86,
      "t_note_us": 193312500,
      "t_trigger_us": 193176537,
      "is_ai": true,
      "track_id": 4,
      "velocity": 0,
      "is_motor": false,
      "motor_id": 0,
      "accel_val": 2000,
      "base_duration_us": 375000
    },
    {
      "id": "M_2460",
      "pitch": 57,
      "t_note_us": 193312500,
      "t_trigger_us": 193176537,
      "is_ai": false,
      "track_id": 0,
      "velocity": 0,
      "is_motor": true,
      "motor_id": 0,
      "accel_val": 2000,
      "base_duration_us": 187500
    },
    {
      "id": "M_2462",
      "pitch": 78,
      "t_note_us": 193312500,
      "t_trigger_us": 193176537,
      "is_ai": false,
      "track_id": 0,
      "velocity": 0,
      "is_motor": true,
      "motor_id": 2,
      "accel_val": 2000,
      "base_duration_us": 375000
    },
    {
      "id": "M_2464",
      "pitch": 57,
      "t_note_us": 193500000,
      "t_trigger_us": 193364037,
      "is_ai": false,
      "track_id": 0,
      "velocity": 0,
      "is_motor": true,
      "motor_id": 0,
      "accel_val": 2000,
      "base_duration_us": 187500
    },
    {
      "id": "M_2465",
      "pitch": 64,
      "t_note_us": 193500000,
      "t_trigger_us": 193364037,
      "is_ai": false,
      "track_id": 0,
      "velocity": 0,
      "is_motor": true,
      "motor_id": 1,
      "accel_val": 2000,
      "base_duration_us": 187500
    },
    {
      "id": "M_2466",
      "pitch": 69,
      "t_note_us": 193500000,
      "t_trigger_us": 193364037,
      "is_ai": false,
      "track_id": 0,
      "velocity": 0,
      "is_motor": true,
      "motor_id": 0,
      "accel_val": 2000,
      "base_duration_us": 187500
    },
    {
      "id": "M_2467",
      "pitch": 57,
      "t_note_us": 193687500,
      "t_trigger_us": 193551537,
      "is_ai": false,
      "track_id": 0,
      "velocity": 0,
      "is_motor": true,
      "motor_id": 0,
      "accel_val": 2000,
      "base_duration_us": 187500
    },
    {
      "id": "M_2468",
      "pitch": 88,
      "t_note_us": 193875000,
      "t_trigger_us": 193739037,
      "is_ai": true,
      "track_id": 5,
      "velocity": 0,
      "is_motor": false,
      "motor_id": 0,
      "accel_val": 2000,
      "base_duration_us": 187500
    },
    {
      "id": "M_2470",
      "pitch": 84,
      "t_note_us": 193875000,
      "t_trigger_us": 193739037,
      "is_ai": true,
      "track_id": 3,
      "velocity": 0,
      "is_motor": false,
      "motor_id": 0,
      "accel_val": 2000,
      "base_duration_us": 187500
    },
    {
      "id": "M_2469",
      "pitch": 76,
      "t_note_us": 193875000,
      "t_trigger_us": 193739037,
      "is_ai": false,
      "track_id": 0,
      "velocity": 0,
      "is_motor": true,
      "motor_id": 2,
      "accel_val": 2000,
      "base_duration_us": 187500
    },
    {
      "id": "M_2471",
      "pitch": 60,
      "t_note_us": 193875000,
      "t_trigger_us": 193739037,
      "is_ai": false,
      "track_id": 0,
      "velocity": 0,
      "is_motor": true,
      "motor_id": 1,
      "accel_val": 2000,
      "base_duration_us": 187500
    },
    {
      "id": "M_2472",
      "pitch": 88,
      "t_note_us": 194062500,
      "t_trigger_us": 193926537,
      "is_ai": true,
      "track_id": 5,
      "velocity": 0,
      "is_motor": false,
      "motor_id": 0,
      "accel_val": 2000,
      "base_duration_us": 187500
    },
    {
      "id": "M_2473",
      "pitch": 60,
      "t_note_us": 194062500,
      "t_trigger_us": 193926537,
      "is_ai": false,
      "track_id": 0,
      "velocity": 0,
      "is_motor": true,
      "motor_id": 1,
      "accel_val": 2000,
      "base_duration_us": 187500
    },
    {
      "id": "M_2474",
      "pitch": 90,
      "t_note_us": 194250000,
      "t_trigger_us": 194114037,
      "is_ai": true,
      "track_id": 0,
      "velocity": 0,
      "is_motor": true,
      "motor_id": 3,
      "accel_val": 2000,
      "base_duration_us": 187500
    },
    {
      "id": "M_2476",
      "pitch": 86,
      "t_note_us": 194250000,
      "t_trigger_us": 194114037,
      "is_ai": true,
      "track_id": 4,
      "velocity": 0,
      "is_motor": false,
      "motor_id": 0,
      "accel_val": 2000,
      "base_duration_us": 187500
    },
    {
      "id": "M_2475",
      "pitch": 78,
      "t_note_us": 194250000,
      "t_trigger_us": 194114037,
      "is_ai": false,
      "track_id": 0,
      "velocity": 0,
      "is_motor": true,
      "motor_id": 2,
      "accel_val": 2000,
      "base_duration_us": 187500
    },
    {
      "id": "M_2477",
      "pitch": 60,
      "t_note_us": 194250000,
      "t_trigger_us": 194114037,
      "is_ai": false,
      "track_id": 0,
      "velocity": 0,
      "is_motor": true,
      "motor_id": 1,
      "accel_val": 2000,
      "base_duration_us": 187500
    },
    {
      "id": "M_2478",
      "pitch": 67,
      "t_note_us": 194250000,
      "t_trigger_us": 194114037,
      "is_ai": false,
      "track_id": 0,
      "velocity": 0,
      "is_motor": true,
      "motor_id": 0,
      "accel_val": 2000,
      "base_duration_us": 187500
    },
    {
      "id": "M_2479",
      "pitch": 72,
      "t_note_us": 194250000,
      "t_trigger_us": 194114037,
      "is_ai": false,
      "track_id": 0,
      "velocity": 0,
      "is_motor": true,
      "motor_id": 0,
      "accel_val": 2000,
      "base_duration_us": 187500
    },
    {
      "id": "M_2480",
      "pitch": 88,
      "t_note_us": 194437500,
      "t_trigger_us": 194301537,
      "is_ai": true,
      "track_id": 5,
      "velocity": 0,
      "is_motor": false,
      "motor_id": 0,
      "accel_val": 2000,
      "base_duration_us": 187500
    },
    {
      "id": "M_2481",
      "pitch": 60,
      "t_note_us": 194437500,
      "t_trigger_us": 194301537,
      "is_ai": false,
      "track_id": 0,
      "velocity": 0,
      "is_motor": true,
      "motor_id": 1,
      "accel_val": 2000,
      "base_duration_us": 187500
    },
    {
      "id": "M_2482",
      "pitch": 88,
      "t_note_us": 194625000,
      "t_trigger_us": 194489037,
      "is_ai": true,
      "track_id": 5,
      "velocity": 0,
      "is_motor": false,
      "motor_id": 0,
      "accel_val": 2000,
      "base_duration_us": 187500
    },
    {
      "id": "M_2483",
      "pitch": 76,
      "t_note_us": 194625000,
      "t_trigger_us": 194489037,
      "is_ai": false,
      "track_id": 0,
      "velocity": 0,
      "is_motor": true,
      "motor_id": 2,
      "accel_val": 2000,
      "base_duration_us": 187500
    },
    {
      "id": "M_2484",
      "pitch": 72,
      "t_note_us": 194625000,
      "t_trigger_us": 194489037,
      "is_ai": false,
      "track_id": 0,
      "velocity": 0,
      "is_motor": true,
      "motor_id": 1,
      "accel_val": 2000,
      "base_duration_us": 187500
    },
    {
      "id": "M_2485",
      "pitch": 60,
      "t_note_us": 194625000,
      "t_trigger_us": 194489037,
      "is_ai": false,
      "track_id": 0,
      "velocity": 0,
      "is_motor": true,
      "motor_id": 0,
      "accel_val": 2000,
      "base_duration_us": 187500
    },
    {
      "id": "M_2486",
      "pitch": 88,
      "t_note_us": 194812500,
      "t_trigger_us": 194676537,
      "is_ai": true,
      "track_id": 5,
      "velocity": 0,
      "is_motor": false,
      "motor_id": 0,
      "accel_val": 2000,
      "base_duration_us": 187500
    },
    {
      "id": "M_2487",
      "pitch": 60,
      "t_note_us": 194812500,
      "t_trigger_us": 194676537,
      "is_ai": false,
      "track_id": 0,
      "velocity": 0,
      "is_motor": true,
      "motor_id": 1,
      "accel_val": 2000,
      "base_duration_us": 187500
    },
    {
      "id": "M_2488",
      "pitch": 90,
      "t_note_us": 195000000,
      "t_trigger_us": 194864037,
      "is_ai": true,
      "track_id": 0,
      "velocity": 0,
      "is_motor": true,
      "motor_id": 3,
      "accel_val": 2000,
      "base_duration_us": 187500
    },
    {
      "id": "M_2490",
      "pitch": 86,
      "t_note_us": 195000000,
      "t_trigger_us": 194864037,
      "is_ai": true,
      "track_id": 4,
      "velocity": 0,
      "is_motor": false,
      "motor_id": 0,
      "accel_val": 2000,
      "base_duration_us": 187500
    },
    {
      "id": "M_2489",
      "pitch": 78,
      "t_note_us": 195000000,
      "t_trigger_us": 194864037,
      "is_ai": false,
      "track_id": 0,
      "velocity": 0,
      "is_motor": true,
      "motor_id": 2,
      "accel_val": 2000,
      "base_duration_us": 187500
    },
    {
      "id": "M_2491",
      "pitch": 60,
      "t_note_us": 195000000,
      "t_trigger_us": 194864037,
      "is_ai": false,
      "track_id": 0,
      "velocity": 0,
      "is_motor": true,
      "motor_id": 1,
      "accel_val": 2000,
      "base_duration_us": 187500
    },
    {
      "id": "M_2492",
      "pitch": 67,
      "t_note_us": 195000000,
      "t_trigger_us": 194864037,
      "is_ai": false,
      "track_id": 0,
      "velocity": 0,
      "is_motor": true,
      "motor_id": 0,
      "accel_val": 2000,
      "base_duration_us": 187500
    },
    {
      "id": "M_2493",
      "pitch": 72,
      "t_note_us": 195000000,
      "t_trigger_us": 194864037,
      "is_ai": false,
      "track_id": 0,
      "velocity": 0,
      "is_motor": true,
      "motor_id": 0,
      "accel_val": 2000,
      "base_duration_us": 187500
    },
    {
      "id": "M_2494",
      "pitch": 88,
      "t_note_us": 195187500,
      "t_trigger_us": 195051537,
      "is_ai": true,
      "track_id": 5,
      "velocity": 0,
      "is_motor": false,
      "motor_id": 0,
      "accel_val": 2000,
      "base_duration_us": 187500
    },
    {
      "id": "M_2495",
      "pitch": 60,
      "t_note_us": 195187500,
      "t_trigger_us": 195051537,
      "is_ai": false,
      "track_id": 0,
      "velocity": 0,
      "is_motor": true,
      "motor_id": 1,
      "accel_val": 2000,
      "base_duration_us": 187500
    },
    {
      "id": "M_2496",
      "pitch": 88,
      "t_note_us": 195375000,
      "t_trigger_us": 195239037,
      "is_ai": true,
      "track_id": 5,
      "velocity": 0,
      "is_motor": false,
      "motor_id": 0,
      "accel_val": 2000,
      "base_duration_us": 187500
    },
    {
      "id": "M_2497",
      "pitch": 76,
      "t_note_us": 195375000,
      "t_trigger_us": 195239037,
      "is_ai": false,
      "track_id": 0,
      "velocity": 0,
      "is_motor": true,
      "motor_id": 2,
      "accel_val": 2000,
      "base_duration_us": 187500
    },
    {
      "id": "M_2498",
      "pitch": 72,
      "t_note_us": 195375000,
      "t_trigger_us": 195239037,
      "is_ai": false,
      "track_id": 0,
      "velocity": 0,
      "is_motor": true,
      "motor_id": 1,
      "accel_val": 2000,
      "base_duration_us": 187500
    },
    {
      "id": "M_2499",
      "pitch": 60,
      "t_note_us": 195375000,
      "t_trigger_us": 195239037,
      "is_ai": false,
      "track_id": 0,
      "velocity": 0,
      "is_motor": true,
      "motor_id": 0,
      "accel_val": 2000,
      "base_duration_us": 187500
    },
    {
      "id": "M_2500",
      "pitch": 88,
      "t_note_us": 195562500,
      "t_trigger_us": 195426537,
      "is_ai": true,
      "track_id": 5,
      "velocity": 0,
      "is_motor": false,
      "motor_id": 0,
      "accel_val": 2000,
      "base_duration_us": 187500
    },
    {
      "id": "M_2501",
      "pitch": 60,
      "t_note_us": 195562500,
      "t_trigger_us": 195426537,
      "is_ai": false,
      "track_id": 0,
      "velocity": 0,
      "is_motor": true,
      "motor_id": 1,
      "accel_val": 2000,
      "base_duration_us": 187500
    },
    {
      "id": "M_2502",
      "pitch": 90,
      "t_note_us": 195750000,
      "t_trigger_us": 195614037,
      "is_ai": true,
      "track_id": 0,
      "velocity": 0,
      "is_motor": true,
      "motor_id": 3,
      "accel_val": 2000,
      "base_duration_us": 187500
    },
    {
      "id": "M_2504",
      "pitch": 86,
      "t_note_us": 195750000,
      "t_trigger_us": 195614037,
      "is_ai": true,
      "track_id": 4,
      "velocity": 0,
      "is_motor": false,
      "motor_id": 0,
      "accel_val": 2000,
      "base_duration_us": 187500
    },
    {
      "id": "M_2503",
      "pitch": 78,
      "t_note_us": 195750000,
      "t_trigger_us": 195614037,
      "is_ai": false,
      "track_id": 0,
      "velocity": 0,
      "is_motor": true,
      "motor_id": 2,
      "accel_val": 2000,
      "base_duration_us": 187500
    },
    {
      "id": "M_2505",
      "pitch": 60,
      "t_note_us": 195750000,
      "t_trigger_us": 195614037,
      "is_ai": false,
      "track_id": 0,
      "velocity": 0,
      "is_motor": true,
      "motor_id": 1,
      "accel_val": 2000,
      "base_duration_us": 187500
    },
    {
      "id": "M_2506",
      "pitch": 67,
      "t_note_us": 195750000,
      "t_trigger_us": 195614037,
      "is_ai": false,
      "track_id": 0,
      "velocity": 0,
      "is_motor": true,
      "motor_id": 0,
      "accel_val": 2000,
      "base_duration_us": 187500
    },
    {
      "id": "M_2507",
      "pitch": 72,
      "t_note_us": 195750000,
      "t_trigger_us": 195614037,
      "is_ai": false,
      "track_id": 0,
      "velocity": 0,
      "is_motor": true,
      "motor_id": 0,
      "accel_val": 2000,
      "base_duration_us": 187500
    },
    {
      "id": "M_2509",
      "pitch": 91,
      "t_note_us": 195937500,
      "t_trigger_us": 195801537,
      "is_ai": true,
      "track_id": 7,
      "velocity": 0,
      "is_motor": false,
      "motor_id": 0,
      "accel_val": 2000,
      "base_duration_us": 375000
    },
    {
      "id": "M_2511",
      "pitch": 88,
      "t_note_us": 195937500,
      "t_trigger_us": 195801537,
      "is_ai": true,
      "track_id": 5,
      "velocity": 0,
      "is_motor": false,
      "motor_id": 0,
      "accel_val": 2000,
      "base_duration_us": 375000
    },
    {
      "id": "M_2508",
      "pitch": 60,
      "t_note_us": 195937500,
      "t_trigger_us": 195801537,
      "is_ai": false,
      "track_id": 0,
      "velocity": 0,
      "is_motor": true,
      "motor_id": 1,
      "accel_val": 2000,
      "base_duration_us": 187500
    },
    {
      "id": "M_2510",
      "pitch": 67,
      "t_note_us": 195937500,
      "t_trigger_us": 195801537,
      "is_ai": false,
      "track_id": 0,
      "velocity": 0,
      "is_motor": true,
      "motor_id": 2,
      "accel_val": 2000,
      "base_duration_us": 375000
    },
    {
      "id": "M_2512",
      "pitch": 60,
      "t_note_us": 196125000,
      "t_trigger_us": 195989037,
      "is_ai": false,
      "track_id": 0,
      "velocity": 0,
      "is_motor": true,
      "motor_id": 1,
      "accel_val": 2000,
      "base_duration_us": 187500
    },
    {
      "id": "M_2514",
      "pitch": 90,
      "t_note_us": 196312500,
      "t_trigger_us": 196176537,
      "is_ai": true,
      "track_id": 0,
      "velocity": 0,
      "is_motor": true,
      "motor_id": 3,
      "accel_val": 2000,
      "base_duration_us": 375000
    },
    {
      "id": "M_2516",
      "pitch": 86,
      "t_note_us": 196312500,
      "t_trigger_us": 196176537,
      "is_ai": true,
      "track_id": 4,
      "velocity": 0,
      "is_motor": false,
      "motor_id": 0,
      "accel_val": 2000,
      "base_duration_us": 375000
    },
    {
      "id": "M_2513",
      "pitch": 60,
      "t_note_us": 196312500,
      "t_trigger_us": 196176537,
      "is_ai": false,
      "track_id": 0,
      "velocity": 0,
      "is_motor": true,
      "motor_id": 1,
      "accel_val": 2000,
      "base_duration_us": 187500
    },
    {
      "id": "M_2515",
      "pitch": 78,
      "t_note_us": 196312500,
      "t_trigger_us": 196176537,
      "is_ai": false,
      "track_id": 0,
      "velocity": 0,
      "is_motor": true,
      "motor_id": 2,
      "accel_val": 2000,
      "base_duration_us": 375000
    },
    {
      "id": "M_2517",
      "pitch": 60,
      "t_note_us": 196500000,
      "t_trigger_us": 196364037,
      "is_ai": false,
      "track_id": 0,
      "velocity": 0,
      "is_motor": true,
      "motor_id": 1,
      "accel_val": 2000,
      "base_duration_us": 187500
    },
    {
      "id": "M_2518",
      "pitch": 67,
      "t_note_us": 196500000,
      "t_trigger_us": 196364037,
      "is_ai": false,
      "track_id": 0,
      "velocity": 0,
      "is_motor": true,
      "motor_id": 0,
      "accel_val": 2000,
      "base_duration_us": 187500
    },
    {
      "id": "M_2519",
      "pitch": 72,
      "t_note_us": 196500000,
      "t_trigger_us": 196364037,
      "is_ai": false,
      "track_id": 0,
      "velocity": 0,
      "is_motor": true,
      "motor_id": 0,
      "accel_val": 2000,
      "base_duration_us": 187500
    },
    {
      "id": "M_2520",
      "pitch": 60,
      "t_note_us": 196687500,
      "t_trigger_us": 196551537,
      "is_ai": false,
      "track_id": 0,
      "velocity": 0,
      "is_motor": true,
      "motor_id": 1,
      "accel_val": 2000,
      "base_duration_us": 187500
    },
    {
      "id": "M_2521",
      "pitch": 93,
      "t_note_us": 196875000,
      "t_trigger_us": 196739037,
      "is_ai": true,
      "track_id": 8,
      "velocity": 0,
      "is_motor": false,
      "motor_id": 0,
      "accel_val": 2000,
      "base_duration_us": 187500
    },
    {
      "id": "M_2522",
      "pitch": 69,
      "t_note_us": 196875000,
      "t_trigger_us": 196739037,
      "is_ai": false,
      "track_id": 0,
      "velocity": 0,
      "is_motor": true,
      "motor_id": 1,
      "accel_val": 2000,
      "base_duration_us": 187500
    },
    {
      "id": "M_2523",
      "pitch": 77,
      "t_note_us": 196875000,
      "t_trigger_us": 196739037,
      "is_ai": false,
      "track_id": 0,
      "velocity": 0,
      "is_motor": true,
      "motor_id": 2,
      "accel_val": 2000,
      "base_duration_us": 187500
    },
    {
      "id": "M_2524",
      "pitch": 53,
      "t_note_us": 196875000,
      "t_trigger_us": 196739037,
      "is_ai": false,
      "track_id": 0,
      "velocity": 0,
      "is_motor": true,
      "motor_id": 0,
      "accel_val": 2000,
      "base_duration_us": 187500
    },
    {
      "id": "M_2525",
      "pitch": 93,
      "t_note_us": 197062500,
      "t_trigger_us": 196926537,
      "is_ai": true,
      "track_id": 8,
      "velocity": 0,
      "is_motor": false,
      "motor_id": 0,
      "accel_val": 2000,
      "base_duration_us": 187500
    },
    {
      "id": "M_2526",
      "pitch": 53,
      "t_note_us": 197062500,
      "t_trigger_us": 196926537,
      "is_ai": false,
      "track_id": 0,
      "velocity": 0,
      "is_motor": true,
      "motor_id": 0,
      "accel_val": 2000,
      "base_duration_us": 187500
    },
    {
      "id": "M_2528",
      "pitch": 91,
      "t_note_us": 197250000,
      "t_trigger_us": 197114037,
      "is_ai": true,
      "track_id": 7,
      "velocity": 0,
      "is_motor": false,
      "motor_id": 0,
      "accel_val": 2000,
      "base_duration_us": 187500
    },
    {
      "id": "M_2532",
      "pitch": 95,
      "t_note_us": 197250000,
      "t_trigger_us": 197114037,
      "is_ai": true,
      "track_id": 9,
      "velocity": 0,
      "is_motor": false,
      "motor_id": 0,
      "accel_val": 2000,
      "base_duration_us": 375000
    },
    {
      "id": "M_2527",
      "pitch": 71,
      "t_note_us": 197250000,
      "t_trigger_us": 197114037,
      "is_ai": false,
      "track_id": 0,
      "velocity": 0,
      "is_motor": true,
      "motor_id": 1,
      "accel_val": 2000,
      "base_duration_us": 187500
    },
    {
      "id": "M_2529",
      "pitch": 53,
      "t_note_us": 197250000,
      "t_trigger_us": 197114037,
      "is_ai": false,
      "track_id": 0,
      "velocity": 0,
      "is_motor": true,
      "motor_id": 0,
      "accel_val": 2000,
      "base_duration_us": 187500
    },
    {
      "id": "M_2530",
      "pitch": 60,
      "t_note_us": 197250000,
      "t_trigger_us": 197114037,
      "is_ai": false,
      "track_id": 0,
      "velocity": 0,
      "is_motor": true,
      "motor_id": 2,
      "accel_val": 2000,
      "base_duration_us": 187500
    },
    {
      "id": "M_2531",
      "pitch": 65,
      "t_note_us": 197250000,
      "t_trigger_us": 197114037,
      "is_ai": false,
      "track_id": 0,
      "velocity": 0,
      "is_motor": true,
      "motor_id": 3,
      "accel_val": 2000,
      "base_duration_us": 187500
    },
    {
      "id": "M_2533",
      "pitch": 53,
      "t_note_us": 197437500,
      "t_trigger_us": 197301537,
      "is_ai": false,
      "track_id": 0,
      "velocity": 0,
      "is_motor": true,
      "motor_id": 0,
      "accel_val": 2000,
      "base_duration_us": 187500
    },
    {
      "id": "M_2535",
      "pitch": 89,
      "t_note_us": 197625000,
      "t_trigger_us": 197489037,
      "is_ai": true,
      "track_id": 6,
      "velocity": 0,
      "is_motor": false,
      "motor_id": 0,
      "accel_val": 2000,
      "base_duration_us": 187500
    },
    {
      "id": "M_2537",
      "pitch": 93,
      "t_note_us": 197625000,
      "t_trigger_us": 197489037,
      "is_ai": true,
      "track_id": 8,
      "velocity": 0,
      "is_motor": false,
      "motor_id": 0,
      "accel_val": 2000,
      "base_duration_us": 375000
    },
    {
      "id": "M_2534",
      "pitch": 69,
      "t_note_us": 197625000,
      "t_trigger_us": 197489037,
      "is_ai": false,
      "track_id": 0,
      "velocity": 0,
      "is_motor": true,
      "motor_id": 1,
      "accel_val": 2000,
      "base_duration_us": 187500
    },
    {
      "id": "M_2536",
      "pitch": 53,
      "t_note_us": 197625000,
      "t_trigger_us": 197489037,
      "is_ai": false,
      "track_id": 0,
      "velocity": 0,
      "is_motor": true,
      "motor_id": 0,
      "accel_val": 2000,
      "base_duration_us": 187500
    },
    {
      "id": "M_2538",
      "pitch": 53,
      "t_note_us": 197812500,
      "t_trigger_us": 197676537,
      "is_ai": false,
      "track_id": 0,
      "velocity": 0,
      "is_motor": true,
      "motor_id": 0,
      "accel_val": 2000,
      "base_duration_us": 187500
    },
    {
      "id": "M_2539",
      "pitch": 95,
      "t_note_us": 198000000,
      "t_trigger_us": 197864037,
      "is_ai": true,
      "track_id": 9,
      "velocity": 0,
      "is_motor": false,
      "motor_id": 0,
      "accel_val": 2000,
      "base_duration_us": 187500
    },
    {
      "id": "M_2541",
      "pitch": 91,
      "t_note_us": 198000000,
      "t_trigger_us": 197864037,
      "is_ai": true,
      "track_id": 7,
      "velocity": 0,
      "is_motor": false,
      "motor_id": 0,
      "accel_val": 2000,
      "base_duration_us": 187500
    },
    {
      "id": "M_2540",
      "pitch": 71,
      "t_note_us": 198000000,
      "t_trigger_us": 197864037,
      "is_ai": false,
      "track_id": 0,
      "velocity": 0,
      "is_motor": true,
      "motor_id": 1,
      "accel_val": 2000,
      "base_duration_us": 187500
    },
    {
      "id": "M_2542",
      "pitch": 53,
      "t_note_us": 198000000,
      "t_trigger_us": 197864037,
      "is_ai": false,
      "track_id": 0,
      "velocity": 0,
      "is_motor": true,
      "motor_id": 0,
      "accel_val": 2000,
      "base_duration_us": 187500
    },
    {
      "id": "M_2543",
      "pitch": 60,
      "t_note_us": 198000000,
      "t_trigger_us": 197864037,
      "is_ai": false,
      "track_id": 0,
      "velocity": 0,
      "is_motor": true,
      "motor_id": 2,
      "accel_val": 2000,
      "base_duration_us": 187500
    },
    {
      "id": "M_2544",
      "pitch": 65,
      "t_note_us": 198000000,
      "t_trigger_us": 197864037,
      "is_ai": false,
      "track_id": 0,
      "velocity": 0,
      "is_motor": true,
      "motor_id": 3,
      "accel_val": 2000,
      "base_duration_us": 187500
    },
    {
      "id": "M_2545",
      "pitch": 93,
      "t_note_us": 198187500,
      "t_trigger_us": 198051537,
      "is_ai": true,
      "track_id": 8,
      "velocity": 0,
      "is_motor": false,
      "motor_id": 0,
      "accel_val": 2000,
      "base_duration_us": 187500
    },
    {
      "id": "M_2546",
      "pitch": 53,
      "t_note_us": 198187500,
      "t_trigger_us": 198051537,
      "is_ai": false,
      "track_id": 0,
      "velocity": 0,
      "is_motor": true,
      "motor_id": 0,
      "accel_val": 2000,
      "base_duration_us": 187500
    },
    {
      "id": "M_2547",
      "pitch": 93,
      "t_note_us": 198375000,
      "t_trigger_us": 198239037,
      "is_ai": true,
      "track_id": 8,
      "velocity": 0,
      "is_motor": false,
      "motor_id": 0,
      "accel_val": 2000,
      "base_duration_us": 187500
    },
    {
      "id": "M_2549",
      "pitch": 89,
      "t_note_us": 198375000,
      "t_trigger_us": 198239037,
      "is_ai": true,
      "track_id": 6,
      "velocity": 0,
      "is_motor": false,
      "motor_id": 0,
      "accel_val": 2000,
      "base_duration_us": 187500
    },
    {
      "id": "M_2548",
      "pitch": 69,
      "t_note_us": 198375000,
      "t_trigger_us": 198239037,
      "is_ai": false,
      "track_id": 0,
      "velocity": 0,
      "is_motor": true,
      "motor_id": 1,
      "accel_val": 2000,
      "base_duration_us": 187500
    },
    {
      "id": "M_2550",
      "pitch": 53,
      "t_note_us": 198375000,
      "t_trigger_us": 198239037,
      "is_ai": false,
      "track_id": 0,
      "velocity": 0,
      "is_motor": true,
      "motor_id": 0,
      "accel_val": 2000,
      "base_duration_us": 187500
    },
    {
      "id": "M_2551",
      "pitch": 93,
      "t_note_us": 198562500,
      "t_trigger_us": 198426537,
      "is_ai": true,
      "track_id": 8,
      "velocity": 0,
      "is_motor": false,
      "motor_id": 0,
      "accel_val": 2000,
      "base_duration_us": 187500
    },
    {
      "id": "M_2552",
      "pitch": 53,
      "t_note_us": 198562500,
      "t_trigger_us": 198426537,
      "is_ai": false,
      "track_id": 0,
      "velocity": 0,
      "is_motor": true,
      "motor_id": 0,
      "accel_val": 2000,
      "base_duration_us": 187500
    },
    {
      "id": "M_2553",
      "pitch": 95,
      "t_note_us": 198750000,
      "t_trigger_us": 198614037,
      "is_ai": true,
      "track_id": 9,
      "velocity": 0,
      "is_motor": false,
      "motor_id": 0,
      "accel_val": 2000,
      "base_duration_us": 187500
    },
    {
      "id": "M_2555",
      "pitch": 91,
      "t_note_us": 198750000,
      "t_trigger_us": 198614037,
      "is_ai": true,
      "track_id": 7,
      "velocity": 0,
      "is_motor": false,
      "motor_id": 0,
      "accel_val": 2000,
      "base_duration_us": 187500
    },
    {
      "id": "M_2554",
      "pitch": 71,
      "t_note_us": 198750000,
      "t_trigger_us": 198614037,
      "is_ai": false,
      "track_id": 0,
      "velocity": 0,
      "is_motor": true,
      "motor_id": 1,
      "accel_val": 2000,
      "base_duration_us": 187500
    },
    {
      "id": "M_2556",
      "pitch": 53,
      "t_note_us": 198750000,
      "t_trigger_us": 198614037,
      "is_ai": false,
      "track_id": 0,
      "velocity": 0,
      "is_motor": true,
      "motor_id": 0,
      "accel_val": 2000,
      "base_duration_us": 187500
    },
    {
      "id": "M_2557",
      "pitch": 60,
      "t_note_us": 198750000,
      "t_trigger_us": 198614037,
      "is_ai": false,
      "track_id": 0,
      "velocity": 0,
      "is_motor": true,
      "motor_id": 2,
      "accel_val": 2000,
      "base_duration_us": 187500
    },
    {
      "id": "M_2558",
      "pitch": 65,
      "t_note_us": 198750000,
      "t_trigger_us": 198614037,
      "is_ai": false,
      "track_id": 0,
      "velocity": 0,
      "is_motor": true,
      "motor_id": 3,
      "accel_val": 2000,
      "base_duration_us": 187500
    },
    {
      "id": "M_2560",
      "pitch": 96,
      "t_note_us": 198937500,
      "t_trigger_us": 198801537,
      "is_ai": true,
      "track_id": 10,
      "velocity": 0,
      "is_motor": false,
      "motor_id": 0,
      "accel_val": 2000,
      "base_duration_us": 375000
    },
    {
      "id": "M_2562",
      "pitch": 91,
      "t_note_us": 198937500,
      "t_trigger_us": 198801537,
      "is_ai": true,
      "track_id": 7,
      "velocity": 0,
      "is_motor": false,
      "motor_id": 0,
      "accel_val": 2000,
      "base_duration_us": 375000
    },
    {
      "id": "M_2559",
      "pitch": 53,
      "t_note_us": 198937500,
      "t_trigger_us": 198801537,
      "is_ai": false,
      "track_id": 0,
      "velocity": 0,
      "is_motor": true,
      "motor_id": 0,
      "accel_val": 2000,
      "base_duration_us": 187500
    },
    {
      "id": "M_2561",
      "pitch": 72,
      "t_note_us": 198937500,
      "t_trigger_us": 198801537,
      "is_ai": false,
      "track_id": 0,
      "velocity": 0,
      "is_motor": true,
      "motor_id": 1,
      "accel_val": 2000,
      "base_duration_us": 375000
    },
    {
      "id": "M_2563",
      "pitch": 53,
      "t_note_us": 199125000,
      "t_trigger_us": 198989037,
      "is_ai": false,
      "track_id": 0,
      "velocity": 0,
      "is_motor": true,
      "motor_id": 0,
      "accel_val": 2000,
      "base_duration_us": 187500
    },
    {
      "id": "M_2564",
      "pitch": 65,
      "t_note_us": 199125000,
      "t_trigger_us": 198989037,
      "is_ai": false,
      "track_id": 0,
      "velocity": 0,
      "is_motor": true,
      "motor_id": 2,
      "accel_val": 2000,
      "base_duration_us": 187500
    },
    {
      "id": "M_2567",
      "pitch": 95,
      "t_note_us": 199312500,
      "t_trigger_us": 199176537,
      "is_ai": true,
      "track_id": 9,
      "velocity": 0,
      "is_motor": false,
      "motor_id": 0,
      "accel_val": 2000,
      "base_duration_us": 375000
    },
    {
      "id": "M_2569",
      "pitch": 91,
      "t_note_us": 199312500,
      "t_trigger_us": 199176537,
      "is_ai": true,
      "track_id": 7,
      "velocity": 0,
      "is_motor": false,
      "motor_id": 0,
      "accel_val": 2000,
      "base_duration_us": 375000
    },
    {
      "id": "M_2565",
      "pitch": 53,
      "t_note_us": 199312500,
      "t_trigger_us": 199176537,
      "is_ai": false,
      "track_id": 0,
      "velocity": 0,
      "is_motor": true,
      "motor_id": 0,
      "accel_val": 2000,
      "base_duration_us": 187500
    },
    {
      "id": "M_2566",
      "pitch": 65,
      "t_note_us": 199312500,
      "t_trigger_us": 199176537,
      "is_ai": false,
      "track_id": 0,
      "velocity": 0,
      "is_motor": true,
      "motor_id": 1,
      "accel_val": 2000,
      "base_duration_us": 187500
    },
    {
      "id": "M_2568",
      "pitch": 71,
      "t_note_us": 199312500,
      "t_trigger_us": 199176537,
      "is_ai": false,
      "track_id": 0,
      "velocity": 0,
      "is_motor": true,
      "motor_id": 2,
      "accel_val": 2000,
      "base_duration_us": 375000
    },
    {
      "id": "M_2570",
      "pitch": 53,
      "t_note_us": 199500000,
      "t_trigger_us": 199364037,
      "is_ai": false,
      "track_id": 0,
      "velocity": 0,
      "is_motor": true,
      "motor_id": 0,
      "accel_val": 2000,
      "base_duration_us": 187500
    },
    {
      "id": "M_2571",
      "pitch": 65,
      "t_note_us": 199500000,
      "t_trigger_us": 199364037,
      "is_ai": false,
      "track_id": 0,
      "velocity": 0,
      "is_motor": true,
      "motor_id": 1,
      "accel_val": 2000,
      "base_duration_us": 187500
    },
    {
      "id": "M_2572",
      "pitch": 69,
      "t_note_us": 199687500,
      "t_trigger_us": 199551537,
      "is_ai": false,
      "track_id": 0,
      "velocity": 0,
      "is_motor": true,
      "motor_id": 1,
      "accel_val": 2000,
      "base_duration_us": 187500
    },
    {
      "id": "M_2573",
      "pitch": 69,
      "t_note_us": 199687500,
      "t_trigger_us": 199551537,
      "is_ai": false,
      "track_id": 0,
      "velocity": 0,
      "is_motor": true,
      "motor_id": 2,
      "accel_val": 2000,
      "base_duration_us": 187500
    },
    {
      "id": "M_2574",
      "pitch": 53,
      "t_note_us": 199687500,
      "t_trigger_us": 199551537,
      "is_ai": false,
      "track_id": 0,
      "velocity": 0,
      "is_motor": true,
      "motor_id": 0,
      "accel_val": 2000,
      "base_duration_us": 187500
    },
    {
      "id": "M_2575",
      "pitch": 65,
      "t_note_us": 199687500,
      "t_trigger_us": 199551537,
      "is_ai": false,
      "track_id": 0,
      "velocity": 0,
      "is_motor": true,
      "motor_id": 3,
      "accel_val": 2000,
      "base_duration_us": 187500
    },
    {
      "id": "M_2576",
      "pitch": 98,
      "t_note_us": 199875000,
      "t_trigger_us": 199739037,
      "is_ai": true,
      "track_id": 11,
      "velocity": 0,
      "is_motor": false,
      "motor_id": 0,
      "accel_val": 2000,
      "base_duration_us": 187500
    },
    {
      "id": "M_2577",
      "pitch": 74,
      "t_note_us": 199875000,
      "t_trigger_us": 199739037,
      "is_ai": false,
      "track_id": 0,
      "velocity": 0,
      "is_motor": true,
      "motor_id": 1,
      "accel_val": 2000,
      "base_duration_us": 187500
    },
    {
      "id": "M_2578",
      "pitch": 67,
      "t_note_us": 199875000,
      "t_trigger_us": 199739037,
      "is_ai": false,
      "track_id": 0,
      "velocity": 0,
      "is_motor": true,
      "motor_id": 2,
      "accel_val": 2000,
      "base_duration_us": 187500
    },
    {
      "id": "M_2579",
      "pitch": 55,
      "t_note_us": 199875000,
      "t_trigger_us": 199739037,
      "is_ai": false,
      "track_id": 0,
      "velocity": 0,
      "is_motor": true,
      "motor_id": 0,
      "accel_val": 2000,
      "base_duration_us": 187500
    },
    {
      "id": "M_2580",
      "pitch": 67,
      "t_note_us": 199875000,
      "t_trigger_us": 199739037,
      "is_ai": false,
      "track_id": 0,
      "velocity": 0,
      "is_motor": true,
      "motor_id": 3,
      "accel_val": 2000,
      "base_duration_us": 187500
    },
    {
      "id": "M_2583",
      "pitch": 98,
      "t_note_us": 200062500,
      "t_trigger_us": 199926537,
      "is_ai": true,
      "track_id": 11,
      "velocity": 0,
      "is_motor": false,
      "motor_id": 0,
      "accel_val": 2000,
      "base_duration_us": 375000
    },
    {
      "id": "M_2581",
      "pitch": 55,
      "t_note_us": 200062500,
      "t_trigger_us": 199926537,
      "is_ai": false,
      "track_id": 0,
      "velocity": 0,
      "is_motor": true,
      "motor_id": 0,
      "accel_val": 2000,
      "base_duration_us": 187500
    },
    {
      "id": "M_2582",
      "pitch": 67,
      "t_note_us": 200062500,
      "t_trigger_us": 199926537,
      "is_ai": false,
      "track_id": 0,
      "velocity": 0,
      "is_motor": true,
      "motor_id": 1,
      "accel_val": 2000,
      "base_duration_us": 187500
    },
    {
      "id": "M_2584",
      "pitch": 74,
      "t_note_us": 200062500,
      "t_trigger_us": 199926537,
      "is_ai": false,
      "track_id": 0,
      "velocity": 0,
      "is_motor": true,
      "motor_id": 2,
      "accel_val": 2000,
      "base_duration_us": 375000
    },
    {
      "id": "M_2585",
      "pitch": 67,
      "t_note_us": 200062500,
      "t_trigger_us": 199926537,
      "is_ai": false,
      "track_id": 0,
      "velocity": 0,
      "is_motor": true,
      "motor_id": 3,
      "accel_val": 2000,
      "base_duration_us": 375000
    },
    {
      "id": "M_2586",
      "pitch": 55,
      "t_note_us": 200250000,
      "t_trigger_us": 200114037,
      "is_ai": false,
      "track_id": 0,
      "velocity": 0,
      "is_motor": true,
      "motor_id": 0,
      "accel_val": 2000,
      "base_duration_us": 187500
    },
    {
      "id": "M_2587",
      "pitch": 67,
      "t_note_us": 200250000,
      "t_trigger_us": 200114037,
      "is_ai": false,
      "track_id": 0,
      "velocity": 0,
      "is_motor": true,
      "motor_id": 1,
      "accel_val": 2000,
      "base_duration_us": 187500
    },
    {
      "id": "M_2588",
      "pitch": 55,
      "t_note_us": 200437500,
      "t_trigger_us": 200301537,
      "is_ai": false,
      "track_id": 0,
      "velocity": 0,
      "is_motor": true,
      "motor_id": 0,
      "accel_val": 2000,
      "base_duration_us": 187500
    },
    {
      "id": "M_2589",
      "pitch": 67,
      "t_note_us": 200437500,
      "t_trigger_us": 200301537,
      "is_ai": false,
      "track_id": 0,
      "velocity": 0,
      "is_motor": true,
      "motor_id": 1,
      "accel_val": 2000,
      "base_duration_us": 187500
    },
    {
      "id": "M_2592",
      "pitch": 93,
      "t_note_us": 200625000,
      "t_trigger_us": 200489037,
      "is_ai": true,
      "track_id": 8,
      "velocity": 0,
      "is_motor": false,
      "motor_id": 0,
      "accel_val": 2000,
      "base_duration_us": 375000
    },
    {
      "id": "M_2593",
      "pitch": 86,
      "t_note_us": 200625000,
      "t_trigger_us": 200489037,
      "is_ai": true,
      "track_id": 4,
      "velocity": 0,
      "is_motor": false,
      "motor_id": 0,
      "accel_val": 2000,
      "base_duration_us": 375000
    },
    {
      "id": "M_2590",
      "pitch": 55,
      "t_note_us": 200625000,
      "t_trigger_us": 200489037,
      "is_ai": false,
      "track_id": 0,
      "velocity": 0,
      "is_motor": true,
      "motor_id": 0,
      "accel_val": 2000,
      "base_duration_us": 187500
    },
    {
      "id": "M_2591",
      "pitch": 67,
      "t_note_us": 200625000,
      "t_trigger_us": 200489037,
      "is_ai": false,
      "track_id": 0,
      "velocity": 0,
      "is_motor": true,
      "motor_id": 1,
      "accel_val": 2000,
      "base_duration_us": 187500
    },
    {
      "id": "M_2594",
      "pitch": 55,
      "t_note_us": 200812500,
      "t_trigger_us": 200676537,
      "is_ai": false,
      "track_id": 0,
      "velocity": 0,
      "is_motor": true,
      "motor_id": 0,
      "accel_val": 2000,
      "base_duration_us": 187500
    },
    {
      "id": "M_2595",
      "pitch": 67,
      "t_note_us": 200812500,
      "t_trigger_us": 200676537,
      "is_ai": false,
      "track_id": 0,
      "velocity": 0,
      "is_motor": true,
      "motor_id": 1,
      "accel_val": 2000,
      "base_duration_us": 187500
    },
    {
      "id": "M_2598",
      "pitch": 91,
      "t_note_us": 201000000,
      "t_trigger_us": 200864037,
      "is_ai": true,
      "track_id": 7,
      "velocity": 0,
      "is_motor": false,
      "motor_id": 0,
      "accel_val": 2000,
      "base_duration_us": 375000
    },
    {
      "id": "M_2596",
      "pitch": 55,
      "t_note_us": 201000000,
      "t_trigger_us": 200864037,
      "is_ai": false,
      "track_id": 0,
      "velocity": 0,
      "is_motor": true,
      "motor_id": 0,
      "accel_val": 2000,
      "base_duration_us": 187500
    },
    {
      "id": "M_2597",
      "pitch": 67,
      "t_note_us": 201000000,
      "t_trigger_us": 200864037,
      "is_ai": false,
      "track_id": 0,
      "velocity": 0,
      "is_motor": true,
      "motor_id": 1,
      "accel_val": 2000,
      "base_duration_us": 187500
    },
    {
      "id": "M_2599",
      "pitch": 74,
      "t_note_us": 201000000,
      "t_trigger_us": 200864037,
      "is_ai": false,
      "track_id": 0,
      "velocity": 0,
      "is_motor": true,
      "motor_id": 2,
      "accel_val": 2000,
      "base_duration_us": 375000
    },
    {
      "id": "M_2600",
      "pitch": 55,
      "t_note_us": 201187500,
      "t_trigger_us": 201051537,
      "is_ai": false,
      "track_id": 0,
      "velocity": 0,
      "is_motor": true,
      "motor_id": 0,
      "accel_val": 2000,
      "base_duration_us": 187500
    },
    {
      "id": "M_2601",
      "pitch": 67,
      "t_note_us": 201187500,
      "t_trigger_us": 201051537,
      "is_ai": false,
      "track_id": 0,
      "velocity": 0,
      "is_motor": true,
      "motor_id": 1,
      "accel_val": 2000,
      "base_duration_us": 187500
    },
    {
      "id": "M_2604",
      "pitch": 93,
      "t_note_us": 201375000,
      "t_trigger_us": 201239037,
      "is_ai": true,
      "track_id": 8,
      "velocity": 0,
      "is_motor": false,
      "motor_id": 0,
      "accel_val": 2000,
      "base_duration_us": 375000
    },
    {
      "id": "M_2605",
      "pitch": 88,
      "t_note_us": 201375000,
      "t_trigger_us": 201239037,
      "is_ai": true,
      "track_id": 5,
      "velocity": 0,
      "is_motor": false,
      "motor_id": 0,
      "accel_val": 2000,
      "base_duration_us": 375000
    },
    {
      "id": "M_2602",
      "pitch": 55,
      "t_note_us": 201375000,
      "t_trigger_us": 201239037,
      "is_ai": false,
      "track_id": 0,
      "velocity": 0,
      "is_motor": true,
      "motor_id": 0,
      "accel_val": 2000,
      "base_duration_us": 187500
    },
    {
      "id": "M_2603",
      "pitch": 67,
      "t_note_us": 201375000,
      "t_trigger_us": 201239037,
      "is_ai": false,
      "track_id": 0,
      "velocity": 0,
      "is_motor": true,
      "motor_id": 1,
      "accel_val": 2000,
      "base_duration_us": 187500
    },
    {
      "id": "M_2606",
      "pitch": 55,
      "t_note_us": 201562500,
      "t_trigger_us": 201426537,
      "is_ai": false,
      "track_id": 0,
      "velocity": 0,
      "is_motor": true,
      "motor_id": 0,
      "accel_val": 2000,
      "base_duration_us": 187500
    },
    {
      "id": "M_2607",
      "pitch": 67,
      "t_note_us": 201562500,
      "t_trigger_us": 201426537,
      "is_ai": false,
      "track_id": 0,
      "velocity": 0,
      "is_motor": true,
      "motor_id": 1,
      "accel_val": 2000,
      "base_duration_us": 187500
    },
    {
      "id": "M_2608",
      "pitch": 96,
      "t_note_us": 201750000,
      "t_trigger_us": 201614037,
      "is_ai": true,
      "track_id": 10,
      "velocity": 0,
      "is_motor": false,
      "motor_id": 0,
      "accel_val": 2000,
      "base_duration_us": 187500
    },
    {
      "id": "M_2609",
      "pitch": 91,
      "t_note_us": 201750000,
      "t_trigger_us": 201614037,
      "is_ai": true,
      "track_id": 7,
      "velocity": 0,
      "is_motor": false,
      "motor_id": 0,
      "accel_val": 2000,
      "base_duration_us": 187500
    },
    {
      "id": "M_2610",
      "pitch": 55,
      "t_note_us": 201750000,
      "t_trigger_us": 201614037,
      "is_ai": false,
      "track_id": 0,
      "velocity": 0,
      "is_motor": true,
      "motor_id": 0,
      "accel_val": 2000,
      "base_duration_us": 187500
    },
    {
      "id": "M_2611",
      "pitch": 67,
      "t_note_us": 201750000,
      "t_trigger_us": 201614037,
      "is_ai": false,
      "track_id": 0,
      "velocity": 0,
      "is_motor": true,
      "motor_id": 1,
      "accel_val": 2000,
      "base_duration_us": 187500
    },
    {
      "id": "M_2614",
      "pitch": 93,
      "t_note_us": 201937500,
      "t_trigger_us": 201801537,
      "is_ai": true,
      "track_id": 8,
      "velocity": 0,
      "is_motor": false,
      "motor_id": 0,
      "accel_val": 2000,
      "base_duration_us": 375000
    },
    {
      "id": "M_2615",
      "pitch": 88,
      "t_note_us": 201937500,
      "t_trigger_us": 201801537,
      "is_ai": true,
      "track_id": 5,
      "velocity": 0,
      "is_motor": false,
      "motor_id": 0,
      "accel_val": 2000,
      "base_duration_us": 375000
    },
    {
      "id": "M_2612",
      "pitch": 55,
      "t_note_us": 201937500,
      "t_trigger_us": 201801537,
      "is_ai": false,
      "track_id": 0,
      "velocity": 0,
      "is_motor": true,
      "motor_id": 0,
      "accel_val": 2000,
      "base_duration_us": 187500
    },
    {
      "id": "M_2613",
      "pitch": 67,
      "t_note_us": 201937500,
      "t_trigger_us": 201801537,
      "is_ai": false,
      "track_id": 0,
      "velocity": 0,
      "is_motor": true,
      "motor_id": 1,
      "accel_val": 2000,
      "base_duration_us": 187500
    },
    {
      "id": "M_2616",
      "pitch": 55,
      "t_note_us": 202125000,
      "t_trigger_us": 201989037,
      "is_ai": false,
      "track_id": 0,
      "velocity": 0,
      "is_motor": true,
      "motor_id": 0,
      "accel_val": 2000,
      "base_duration_us": 187500
    },
    {
      "id": "M_2617",
      "pitch": 67,
      "t_note_us": 202125000,
      "t_trigger_us": 201989037,
      "is_ai": false,
      "track_id": 0,
      "velocity": 0,
      "is_motor": true,
      "motor_id": 1,
      "accel_val": 2000,
      "base_duration_us": 187500
    },
    {
      "id": "M_2620",
      "pitch": 96,
      "t_note_us": 202312500,
      "t_trigger_us": 202176537,
      "is_ai": true,
      "track_id": 10,
      "velocity": 0,
      "is_motor": false,
      "motor_id": 0,
      "accel_val": 2000,
      "base_duration_us": 375000
    },
    {
      "id": "M_2621",
      "pitch": 91,
      "t_note_us": 202312500,
      "t_trigger_us": 202176537,
      "is_ai": true,
      "track_id": 7,
      "velocity": 0,
      "is_motor": false,
      "motor_id": 0,
      "accel_val": 2000,
      "base_duration_us": 375000
    },
    {
      "id": "M_2618",
      "pitch": 55,
      "t_note_us": 202312500,
      "t_trigger_us": 202176537,
      "is_ai": false,
      "track_id": 0,
      "velocity": 0,
      "is_motor": true,
      "motor_id": 0,
      "accel_val": 2000,
      "base_duration_us": 187500
    },
    {
      "id": "M_2619",
      "pitch": 67,
      "t_note_us": 202312500,
      "t_trigger_us": 202176537,
      "is_ai": false,
      "track_id": 0,
      "velocity": 0,
      "is_motor": true,
      "motor_id": 1,
      "accel_val": 2000,
      "base_duration_us": 187500
    },
    {
      "id": "M_2622",
      "pitch": 55,
      "t_note_us": 202500000,
      "t_trigger_us": 202364037,
      "is_ai": false,
      "track_id": 0,
      "velocity": 0,
      "is_motor": true,
      "motor_id": 0,
      "accel_val": 2000,
      "base_duration_us": 187500
    },
    {
      "id": "M_2623",
      "pitch": 67,
      "t_note_us": 202500000,
      "t_trigger_us": 202364037,
      "is_ai": false,
      "track_id": 0,
      "velocity": 0,
      "is_motor": true,
      "motor_id": 1,
      "accel_val": 2000,
      "base_duration_us": 187500
    },
    {
      "id": "M_2624",
      "pitch": 55,
      "t_note_us": 202687500,
      "t_trigger_us": 202551537,
      "is_ai": false,
      "track_id": 0,
      "velocity": 0,
      "is_motor": true,
      "motor_id": 0,
      "accel_val": 2000,
      "base_duration_us": 187500
    },
    {
      "id": "M_2625",
      "pitch": 67,
      "t_note_us": 202687500,
      "t_trigger_us": 202551537,
      "is_ai": false,
      "track_id": 0,
      "velocity": 0,
      "is_motor": true,
      "motor_id": 1,
      "accel_val": 2000,
      "base_duration_us": 187500
    },
    {
      "id": "M_2626",
      "pitch": 100,
      "t_note_us": 202875000,
      "t_trigger_us": 202739037,
      "is_ai": true,
      "track_id": 12,
      "velocity": 0,
      "is_motor": false,
      "motor_id": 0,
      "accel_val": 2000,
      "base_duration_us": 562500
    },
    {
      "id": "M_2627",
      "pitch": 99,
      "t_note_us": 203437500,
      "t_trigger_us": 203301537,
      "is_ai": true,
      "track_id": 0,
      "velocity": 0,
      "is_motor": true,
      "motor_id": 3,
      "accel_val": 2000,
      "base_duration_us": 93750
    },
    {
      "id": "M_2628",
      "pitch": 100,
      "t_note_us": 203531250,
      "t_trigger_us": 203395287,
      "is_ai": true,
      "track_id": 12,
      "velocity": 0,
      "is_motor": false,
      "motor_id": 0,
      "accel_val": 2000,
      "base_duration_us": 93750
    },
    {
      "id": "M_2629",
      "pitch": 102,
      "t_note_us": 203625000,
      "t_trigger_us": 203489037,
      "is_ai": true,
      "track_id": 0,
      "velocity": 0,
      "is_motor": true,
      "motor_id": 3,
      "accel_val": 2000,
      "base_duration_us": 562500
    },
    {
      "id": "M_2630",
      "pitch": 100,
      "t_note_us": 204187500,
      "t_trigger_us": 204051537,
      "is_ai": true,
      "track_id": 12,
      "velocity": 0,
      "is_motor": false,
      "motor_id": 0,
      "accel_val": 2000,
      "base_duration_us": 93750
    },
    {
      "id": "M_2631",
      "pitch": 102,
      "t_note_us": 204281250,
      "t_trigger_us": 204145287,
      "is_ai": true,
      "track_id": 0,
      "velocity": 0,
      "is_motor": true,
      "motor_id": 3,
      "accel_val": 2000,
      "base_duration_us": 93750
    },
    {
      "id": "M_2632",
      "pitch": 103,
      "t_note_us": 204375000,
      "t_trigger_us": 204239037,
      "is_ai": true,
      "track_id": 14,
      "velocity": 0,
      "is_motor": false,
      "motor_id": 0,
      "accel_val": 2000,
      "base_duration_us": 562500
    },
    {
      "id": "M_2633",
      "pitch": 78,
      "t_note_us": 204937500,
      "t_trigger_us": 204801537,
      "is_ai": false,
      "track_id": 0,
      "velocity": 0,
      "is_motor": true,
      "motor_id": 2,
      "accel_val": 2000,
      "base_duration_us": 93750
    },
    {
      "id": "M_2634",
      "pitch": 103,
      "t_note_us": 205031250,
      "t_trigger_us": 204895287,
      "is_ai": true,
      "track_id": 14,
      "velocity": 0,
      "is_motor": false,
      "motor_id": 0,
      "accel_val": 2000,
      "base_duration_us": 93750
    },
    {
      "id": "M_2635",
      "pitch": 92,
      "t_note_us": 205125000,
      "t_trigger_us": 204989037,
      "is_ai": true,
      "track_id": 0,
      "velocity": 0,
      "is_motor": true,
      "motor_id": 3,
      "accel_val": 2000,
      "base_duration_us": 562500
    },
    {
      "id": "M_2638",
      "pitch": 91,
      "t_note_us": 205687500,
      "t_trigger_us": 205551537,
      "is_ai": true,
      "track_id": 7,
      "velocity": 0,
      "is_motor": false,
      "motor_id": 0,
      "accel_val": 2000,
      "base_duration_us": 375000
    },
    {
      "id": "M_2637",
      "pitch": 88,
      "t_note_us": 205875000,
      "t_trigger_us": 205739037,
      "is_ai": true,
      "track_id": 5,
      "velocity": 0,
      "is_motor": false,
      "motor_id": 0,
      "accel_val": 2000,
      "base_duration_us": 187500
    },
    {
      "id": "M_2636",
      "pitch": 69,
      "t_note_us": 205875000,
      "t_trigger_us": 205739037,
      "is_ai": false,
      "track_id": 0,
      "velocity": 0,
      "is_motor": true,
      "motor_id": 1,
      "accel_val": 2000,
      "base_duration_us": 187500
    },
    {
      "id": "M_2639",
      "pitch": 57,
      "t_note_us": 205875000,
      "t_trigger_us": 205739037,
      "is_ai": false,
      "track_id": 0,
      "velocity": 0,
      "is_motor": true,
      "motor_id": 0,
      "accel_val": 2000,
      "base_duration_us": 187500
    },
    {
      "id": "M_2640",
      "pitch": 64,
      "t_note_us": 205875000,
      "t_trigger_us": 205739037,
      "is_ai": false,
      "track_id": 0,
      "velocity": 0,
      "is_motor": true,
      "motor_id": 2,
      "accel_val": 2000,
      "base_duration_us": 187500
    },
    {
      "id": "M_2641",
      "pitch": 69,
      "t_note_us": 205875000,
      "t_trigger_us": 205739037,
      "is_ai": false,
      "track_id": 0,
      "velocity": 0,
      "is_motor": true,
      "motor_id": 3,
      "accel_val": 2000,
      "base_duration_us": 187500
    },
    {
      "id": "M_2642",
      "pitch": 93,
      "t_note_us": 206062500,
      "t_trigger_us": 205926537,
      "is_ai": true,
      "track_id": 8,
      "velocity": 0,
      "is_motor": false,
      "motor_id": 0,
      "accel_val": 2000,
      "base_duration_us": 187500
    },
    {
      "id": "M_2643",
      "pitch": 69,
      "t_note_us": 206062500,
      "t_trigger_us": 205926537,
      "is_ai": false,
      "track_id": 0,
      "velocity": 0,
      "is_motor": true,
      "motor_id": 1,
      "accel_val": 2000,
      "base_duration_us": 187500
    },
    {
      "id": "M_2644",
      "pitch": 76,
      "t_note_us": 206062500,
      "t_trigger_us": 205926537,
      "is_ai": false,
      "track_id": 0,
      "velocity": 0,
      "is_motor": true,
      "motor_id": 2,
      "accel_val": 2000,
      "base_duration_us": 187500
    },
    {
      "id": "M_2645",
      "pitch": 57,
      "t_note_us": 206062500,
      "t_trigger_us": 205926537,
      "is_ai": false,
      "track_id": 0,
      "velocity": 0,
      "is_motor": true,
      "motor_id": 0,
      "accel_val": 2000,
      "base_duration_us": 187500
    },
    {
      "id": "M_2646",
      "pitch": 69,
      "t_note_us": 206062500,
      "t_trigger_us": 205926537,
      "is_ai": false,
      "track_id": 0,
      "velocity": 0,
      "is_motor": true,
      "motor_id": 3,
      "accel_val": 2000,
      "base_duration_us": 187500
    },
    {
      "id": "M_2647",
      "pitch": 93,
      "t_note_us": 206250000,
      "t_trigger_us": 206114037,
      "is_ai": true,
      "track_id": 8,
      "velocity": 0,
      "is_motor": false,
      "motor_id": 0,
      "accel_val": 2000,
      "base_duration_us": 187500
    },
    {
      "id": "M_2648",
      "pitch": 69,
      "t_note_us": 206250000,
      "t_trigger_us": 206114037,
      "is_ai": false,
      "track_id": 0,
      "velocity": 0,
      "is_motor": true,
      "motor_id": 1,
      "accel_val": 2000,
      "base_duration_us": 187500
    },
    {
      "id": "M_2649",
      "pitch": 76,
      "t_note_us": 206250000,
      "t_trigger_us": 206114037,
      "is_ai": false,
      "track_id": 0,
      "velocity": 0,
      "is_motor": true,
      "motor_id": 2,
      "accel_val": 2000,
      "base_duration_us": 187500
    },
    {
      "id": "M_2650",
      "pitch": 57,
      "t_note_us": 206250000,
      "t_trigger_us": 206114037,
      "is_ai": false,
      "track_id": 0,
      "velocity": 0,
      "is_motor": true,
      "motor_id": 0,
      "accel_val": 2000,
      "base_duration_us": 187500
    },
    {
      "id": "M_2651",
      "pitch": 69,
      "t_note_us": 206250000,
      "t_trigger_us": 206114037,
      "is_ai": false,
      "track_id": 0,
      "velocity": 0,
      "is_motor": true,
      "motor_id": 3,
      "accel_val": 2000,
      "base_duration_us": 187500
    },
    {
      "id": "M_2652",
      "pitch": 91,
      "t_note_us": 206437500,
      "t_trigger_us": 206301537,
      "is_ai": true,
      "track_id": 7,
      "velocity": 0,
      "is_motor": false,
      "motor_id": 0,
      "accel_val": 2000,
      "base_duration_us": 187500
    },
    {
      "id": "M_2653",
      "pitch": 69,
      "t_note_us": 206625000,
      "t_trigger_us": 206489037,
      "is_ai": false,
      "track_id": 0,
      "velocity": 0,
      "is_motor": true,
      "motor_id": 1,
      "accel_val": 2000,
      "base_duration_us": 187500
    },
    {
      "id": "M_2654",
      "pitch": 69,
      "t_note_us": 206625000,
      "t_trigger_us": 206489037,
      "is_ai": false,
      "track_id": 0,
      "velocity": 0,
      "is_motor": true,
      "motor_id": 2,
      "accel_val": 2000,
      "base_duration_us": 187500
    },
    {
      "id": "M_2655",
      "pitch": 76,
      "t_note_us": 206625000,
      "t_trigger_us": 206489037,
      "is_ai": false,
      "track_id": 0,
      "velocity": 0,
      "is_motor": true,
      "motor_id": 3,
      "accel_val": 2000,
      "base_duration_us": 187500
    },
    {
      "id": "M_2656",
      "pitch": 57,
      "t_note_us": 206625000,
      "t_trigger_us": 206489037,
      "is_ai": false,
      "track_id": 0,
      "velocity": 0,
      "is_motor": true,
      "motor_id": 0,
      "accel_val": 2000,
      "base_duration_us": 187500
    },
    {
      "id": "M_2657",
      "pitch": 64,
      "t_note_us": 206625000,
      "t_trigger_us": 206489037,
      "is_ai": false,
      "track_id": 0,
      "velocity": 0,
      "is_motor": true,
      "motor_id": 0,
      "accel_val": 2000,
      "base_duration_us": 187500
    },
    {
      "id": "M_2658",
      "pitch": 69,
      "t_note_us": 206625000,
      "t_trigger_us": 206489037,
      "is_ai": false,
      "track_id": 0,
      "velocity": 0,
      "is_motor": true,
      "motor_id": 0,
      "accel_val": 2000,
      "base_duration_us": 187500
    },
    {
      "id": "M_2661",
      "pitch": 91,
      "t_note_us": 206812500,
      "t_trigger_us": 206676537,
      "is_ai": true,
      "track_id": 7,
      "velocity": 0,
      "is_motor": false,
      "motor_id": 0,
      "accel_val": 2000,
      "base_duration_us": 375000
    },
    {
      "id": "M_2659",
      "pitch": 69,
      "t_note_us": 207000000,
      "t_trigger_us": 206864037,
      "is_ai": false,
      "track_id": 0,
      "velocity": 0,
      "is_motor": true,
      "motor_id": 1,
      "accel_val": 2000,
      "base_duration_us": 187500
    },
    {
      "id": "M_2660",
      "pitch": 76,
      "t_note_us": 207000000,
      "t_trigger_us": 206864037,
      "is_ai": false,
      "track_id": 0,
      "velocity": 0,
      "is_motor": true,
      "motor_id": 2,
      "accel_val": 2000,
      "base_duration_us": 187500
    },
    {
      "id": "M_2662",
      "pitch": 57,
      "t_note_us": 207000000,
      "t_trigger_us": 206864037,
      "is_ai": false,
      "track_id": 0,
      "velocity": 0,
      "is_motor": true,
      "motor_id": 0,
      "accel_val": 2000,
      "base_duration_us": 187500
    },
    {
      "id": "M_2663",
      "pitch": 69,
      "t_note_us": 207000000,
      "t_trigger_us": 206864037,
      "is_ai": false,
      "track_id": 0,
      "velocity": 0,
      "is_motor": true,
      "motor_id": 3,
      "accel_val": 2000,
      "base_duration_us": 187500
    },
    {
      "id": "M_2664",
      "pitch": 67,
      "t_note_us": 207187500,
      "t_trigger_us": 207051537,
      "is_ai": false,
      "track_id": 0,
      "velocity": 0,
      "is_motor": true,
      "motor_id": 1,
      "accel_val": 2000,
      "base_duration_us": 187500
    },
    {
      "id": "M_2665",
      "pitch": 69,
      "t_note_us": 207187500,
      "t_trigger_us": 207051537,
      "is_ai": false,
      "track_id": 0,
      "velocity": 0,
      "is_motor": true,
      "motor_id": 2,
      "accel_val": 2000,
      "base_duration_us": 187500
    },
    {
      "id": "M_2666",
      "pitch": 76,
      "t_note_us": 207187500,
      "t_trigger_us": 207051537,
      "is_ai": false,
      "track_id": 0,
      "velocity": 0,
      "is_motor": true,
      "motor_id": 3,
      "accel_val": 2000,
      "base_duration_us": 187500
    },
    {
      "id": "M_2667",
      "pitch": 57,
      "t_note_us": 207187500,
      "t_trigger_us": 207051537,
      "is_ai": false,
      "track_id": 0,
      "velocity": 0,
      "is_motor": true,
      "motor_id": 0,
      "accel_val": 2000,
      "base_duration_us": 187500
    },
    {
      "id": "M_2668",
      "pitch": 64,
      "t_note_us": 207187500,
      "t_trigger_us": 207051537,
      "is_ai": false,
      "track_id": 0,
      "velocity": 0,
      "is_motor": true,
      "motor_id": 0,
      "accel_val": 2000,
      "base_duration_us": 187500
    },
    {
      "id": "M_2669",
      "pitch": 69,
      "t_note_us": 207187500,
      "t_trigger_us": 207051537,
      "is_ai": false,
      "track_id": 0,
      "velocity": 0,
      "is_motor": true,
      "motor_id": 0,
      "accel_val": 2000,
      "base_duration_us": 187500
    },
    {
      "id": "M_2670",
      "pitch": 67,
      "t_note_us": 207375000,
      "t_trigger_us": 207239037,
      "is_ai": false,
      "track_id": 0,
      "velocity": 0,
      "is_motor": true,
      "motor_id": 1,
      "accel_val": 2000,
      "base_duration_us": 187500
    },
    {
      "id": "M_2671",
      "pitch": 69,
      "t_note_us": 207562500,
      "t_trigger_us": 207426537,
      "is_ai": false,
      "track_id": 0,
      "velocity": 0,
      "is_motor": true,
      "motor_id": 1,
      "accel_val": 2000,
      "base_duration_us": 187500
    },
    {
      "id": "M_2672",
      "pitch": 69,
      "t_note_us": 207562500,
      "t_trigger_us": 207426537,
      "is_ai": false,
      "track_id": 0,
      "velocity": 0,
      "is_motor": true,
      "motor_id": 2,
      "accel_val": 2000,
      "base_duration_us": 187500
    },
    {
      "id": "M_2673",
      "pitch": 76,
      "t_note_us": 207562500,
      "t_trigger_us": 207426537,
      "is_ai": false,
      "track_id": 0,
      "velocity": 0,
      "is_motor": true,
      "motor_id": 3,
      "accel_val": 2000,
      "base_duration_us": 187500
    },
    {
      "id": "M_2674",
      "pitch": 57,
      "t_note_us": 207562500,
      "t_trigger_us": 207426537,
      "is_ai": false,
      "track_id": 0,
      "velocity": 0,
      "is_motor": true,
      "motor_id": 0,
      "accel_val": 2000,
      "base_duration_us": 187500
    },
    {
      "id": "M_2675",
      "pitch": 69,
      "t_note_us": 207562500,
      "t_trigger_us": 207426537,
      "is_ai": false,
      "track_id": 0,
      "velocity": 0,
      "is_motor": true,
      "motor_id": 0,
      "accel_val": 2000,
      "base_duration_us": 187500
    },
    {
      "id": "M_2677",
      "pitch": 88,
      "t_note_us": 207750000,
      "t_trigger_us": 207614037,
      "is_ai": true,
      "track_id": 5,
      "velocity": 0,
      "is_motor": false,
      "motor_id": 0,
      "accel_val": 2000,
      "base_duration_us": 187500
    },
    {
      "id": "M_2681",
      "pitch": 93,
      "t_note_us": 207750000,
      "t_trigger_us": 207614037,
      "is_ai": true,
      "track_id": 8,
      "velocity": 0,
      "is_motor": false,
      "motor_id": 0,
      "accel_val": 2000,
      "base_duration_us": 375000
    },
    {
      "id": "M_2676",
      "pitch": 69,
      "t_note_us": 207750000,
      "t_trigger_us": 207614037,
      "is_ai": false,
      "track_id": 0,
      "velocity": 0,
      "is_motor": true,
      "motor_id": 1,
      "accel_val": 2000,
      "base_duration_us": 187500
    },
    {
      "id": "M_2678",
      "pitch": 57,
      "t_note_us": 207750000,
      "t_trigger_us": 207614037,
      "is_ai": false,
      "track_id": 0,
      "velocity": 0,
      "is_motor": true,
      "motor_id": 0,
      "accel_val": 2000,
      "base_duration_us": 187500
    },
    {
      "id": "M_2679",
      "pitch": 64,
      "t_note_us": 207750000,
      "t_trigger_us": 207614037,
      "is_ai": false,
      "track_id": 0,
      "velocity": 0,
      "is_motor": true,
      "motor_id": 2,
      "accel_val": 2000,
      "base_duration_us": 187500
    },
    {
      "id": "M_2680",
      "pitch": 69,
      "t_note_us": 207750000,
      "t_trigger_us": 207614037,
      "is_ai": false,
      "track_id": 0,
      "velocity": 0,
      "is_motor": true,
      "motor_id": 3,
      "accel_val": 2000,
      "base_duration_us": 187500
    },
    {
      "id": "M_2682",
      "pitch": 88,
      "t_note_us": 208125000,
      "t_trigger_us": 207989037,
      "is_ai": true,
      "track_id": 5,
      "velocity": 0,
      "is_motor": false,
      "motor_id": 0,
      "accel_val": 2000,
      "base_duration_us": 187500
    },
    {
      "id": "M_2683",
      "pitch": 69,
      "t_note_us": 208125000,
      "t_trigger_us": 207989037,
      "is_ai": false,
      "track_id": 0,
      "velocity": 0,
      "is_motor": true,
      "motor_id": 1,
      "accel_val": 2000,
      "base_duration_us": 187500
    },
    {
      "id": "M_2684",
      "pitch": 88,
      "t_note_us": 208500000,
      "t_trigger_us": 208364037,
      "is_ai": true,
      "track_id": 5,
      "velocity": 0,
      "is_motor": false,
      "motor_id": 0,
      "accel_val": 2000,
      "base_duration_us": 375000
    },
    {
      "id": "M_2685",
      "pitch": 93,
      "t_note_us": 208500000,
      "t_trigger_us": 208364037,
      "is_ai": true,
      "track_id": 8,
      "velocity": 0,
      "is_motor": false,
      "motor_id": 0,
      "accel_val": 2000,
      "base_duration_us": 375000
    },
    {
      "id": "M_2692",
      "pitch": 88,
      "t_note_us": 208875000,
      "t_trigger_us": 208739037,
      "is_ai": true,
      "track_id": 5,
      "velocity": 0,
      "is_motor": false,
      "motor_id": 0,
      "accel_val": 2000,
      "base_duration_us": 1125000
    },
    {
      "id": "M_2693",
      "pitch": 91,
      "t_note_us": 208875000,
      "t_trigger_us": 208739037,
      "is_ai": true,
      "track_id": 7,
      "velocity": 0,
      "is_motor": false,
      "motor_id": 0,
      "accel_val": 2000,
      "base_duration_us": 1125000
    },
    {
      "id": "M_2694",
      "pitch": 96,
      "t_note_us": 208875000,
      "t_trigger_us": 208739037,
      "is_ai": true,
      "track_id": 10,
      "velocity": 0,
      "is_motor": false,
      "motor_id": 0,
      "accel_val": 2000,
      "base_duration_us": 1125000
    },
    {
      "id": "M_2695",
      "pitch": 100,
      "t_note_us": 208875000,
      "t_trigger_us": 208739037,
      "is_ai": true,
      "track_id": 12,
      "velocity": 0,
      "is_motor": false,
      "motor_id": 0,
      "accel_val": 2000,
      "base_duration_us": 1125000
    },
    {
      "id": "M_2686",
      "pitch": 53,
      "t_note_us": 208875000,
      "t_trigger_us": 208739037,
      "is_ai": false,
      "track_id": 0,
      "velocity": 0,
      "is_motor": true,
      "motor_id": 0,
      "accel_val": 2000,
      "base_duration_us": 187500
    },
    {
      "id": "M_2687",
      "pitch": 53,
      "t_note_us": 209062500,
      "t_trigger_us": 208926537,
      "is_ai": false,
      "track_id": 0,
      "velocity": 0,
      "is_motor": true,
      "motor_id": 0,
      "accel_val": 2000,
      "base_duration_us": 187500
    },
    {
      "id": "M_2688",
      "pitch": 60,
      "t_note_us": 209250000,
      "t_trigger_us": 209114037,
      "is_ai": false,
      "track_id": 0,
      "velocity": 0,
      "is_motor": true,
      "motor_id": 1,
      "accel_val": 2000,
      "base_duration_us": 187500
    },
    {
      "id": "M_2689",
      "pitch": 65,
      "t_note_us": 209250000,
      "t_trigger_us": 209114037,
      "is_ai": false,
      "track_id": 0,
      "velocity": 0,
      "is_motor": true,
      "motor_id": 0,
      "accel_val": 2000,
      "base_duration_us": 187500
    },
    {
      "id": "M_2690",
      "pitch": 53,
      "t_note_us": 209437500,
      "t_trigger_us": 209301537,
      "is_ai": false,
      "track_id": 0,
      "velocity": 0,
      "is_motor": true,
      "motor_id": 0,
      "accel_val": 2000,
      "base_duration_us": 187500
    },
    {
      "id": "M_2691",
      "pitch": 53,
      "t_note_us": 209625000,
      "t_trigger_us": 209489037,
      "is_ai": false,
      "track_id": 0,
      "velocity": 0,
      "is_motor": true,
      "motor_id": 0,
      "accel_val": 2000,
      "base_duration_us": 187500
    },
    {
      "id": "M_2696",
      "pitch": 53,
      "t_note_us": 209812500,
      "t_trigger_us": 209676537,
      "is_ai": false,
      "track_id": 0,
      "velocity": 0,
      "is_motor": true,
      "motor_id": 0,
      "accel_val": 2000,
      "base_duration_us": 187500
    },
    {
      "id": "M_2697",
      "pitch": 84,
      "t_note_us": 210000000,
      "t_trigger_us": 209864037,
      "is_ai": true,
      "track_id": 3,
      "velocity": 0,
      "is_motor": false,
      "motor_id": 0,
      "accel_val": 2000,
      "base_duration_us": 187500
    },
    {
      "id": "M_2698",
      "pitch": 76,
      "t_note_us": 210000000,
      "t_trigger_us": 209864037,
      "is_ai": false,
      "track_id": 0,
      "velocity": 0,
      "is_motor": true,
      "motor_id": 2,
      "accel_val": 2000,
      "base_duration_us": 187500
    },
    {
      "id": "M_2699",
      "pitch": 69,
      "t_note_us": 210000000,
      "t_trigger_us": 209864037,
      "is_ai": false,
      "track_id": 0,
      "velocity": 0,
      "is_motor": true,
      "motor_id": 1,
      "accel_val": 2000,
      "base_duration_us": 187500
    },
    {
      "id": "M_2700",
      "pitch": 60,
      "t_note_us": 210000000,
      "t_trigger_us": 209864037,
      "is_ai": false,
      "track_id": 0,
      "velocity": 0,
      "is_motor": true,
      "motor_id": 0,
      "accel_val": 2000,
      "base_duration_us": 187500
    },
    {
      "id": "M_2701",
      "pitch": 65,
      "t_note_us": 210000000,
      "t_trigger_us": 209864037,
      "is_ai": false,
      "track_id": 0,
      "velocity": 0,
      "is_motor": true,
      "motor_id": 3,
      "accel_val": 2000,
      "base_duration_us": 187500
    },
    {
      "id": "M_2702",
      "pitch": 76,
      "t_note_us": 210187500,
      "t_trigger_us": 210051537,
      "is_ai": false,
      "track_id": 0,
      "velocity": 0,
      "is_motor": true,
      "motor_id": 2,
      "accel_val": 2000,
      "base_duration_us": 187500
    },
    {
      "id": "M_2703",
      "pitch": 69,
      "t_note_us": 210187500,
      "t_trigger_us": 210051537,
      "is_ai": false,
      "track_id": 0,
      "velocity": 0,
      "is_motor": true,
      "motor_id": 1,
      "accel_val": 2000,
      "base_duration_us": 187500
    },
    {
      "id": "M_2704",
      "pitch": 53,
      "t_note_us": 210187500,
      "t_trigger_us": 210051537,
      "is_ai": false,
      "track_id": 0,
      "velocity": 0,
      "is_motor": true,
      "motor_id": 0,
      "accel_val": 2000,
      "base_duration_us": 187500
    },
    {
      "id": "M_2708",
      "pitch": 86,
      "t_note_us": 210375000,
      "t_trigger_us": 210239037,
      "is_ai": true,
      "track_id": 4,
      "velocity": 0,
      "is_motor": false,
      "motor_id": 0,
      "accel_val": 2000,
      "base_duration_us": 562500
    },
    {
      "id": "M_2709",
      "pitch": 91,
      "t_note_us": 210375000,
      "t_trigger_us": 210239037,
      "is_ai": true,
      "track_id": 7,
      "velocity": 0,
      "is_motor": false,
      "motor_id": 0,
      "accel_val": 2000,
      "base_duration_us": 562500
    },
    {
      "id": "M_2705",
      "pitch": 55,
      "t_note_us": 210375000,
      "t_trigger_us": 210239037,
      "is_ai": false,
      "track_id": 0,
      "velocity": 0,
      "is_motor": true,
      "motor_id": 0,
      "accel_val": 2000,
      "base_duration_us": 187500
    },
    {
      "id": "M_2707",
      "pitch": 71,
      "t_note_us": 210375000,
      "t_trigger_us": 210239037,
      "is_ai": false,
      "track_id": 0,
      "velocity": 0,
      "is_motor": true,
      "motor_id": 1,
      "accel_val": 2000,
      "base_duration_us": 562500
    },
    {
      "id": "M_2706",
      "pitch": 55,
      "t_note_us": 210562500,
      "t_trigger_us": 210426537,
      "is_ai": false,
      "track_id": 0,
      "velocity": 0,
      "is_motor": true,
      "motor_id": 0,
      "accel_val": 2000,
      "base_duration_us": 187500
    },
    {
      "id": "M_2710",
      "pitch": 62,
      "t_note_us": 210750000,
      "t_trigger_us": 210614037,
      "is_ai": false,
      "track_id": 0,
      "velocity": 0,
      "is_motor": true,
      "motor_id": 0,
      "accel_val": 2000,
      "base_duration_us": 187500
    },
    {
      "id": "M_2711",
      "pitch": 67,
      "t_note_us": 210750000,
      "t_trigger_us": 210614037,
      "is_ai": false,
      "track_id": 0,
      "velocity": 0,
      "is_motor": true,
      "motor_id": 2,
      "accel_val": 2000,
      "base_duration_us": 187500
    },
    {
      "id": "M_2712",
      "pitch": 74,
      "t_note_us": 210937500,
      "t_trigger_us": 210801537,
      "is_ai": false,
      "track_id": 0,
      "velocity": 0,
      "is_motor": true,
      "motor_id": 1,
      "accel_val": 2000,
      "base_duration_us": 187500
    },
    {
      "id": "M_2713",
      "pitch": 67,
      "t_note_us": 210937500,
      "t_trigger_us": 210801537,
      "is_ai": false,
      "track_id": 0,
      "velocity": 0,
      "is_motor": true,
      "motor_id": 2,
      "accel_val": 2000,
      "base_duration_us": 187500
    },
    {
      "id": "M_2714",
      "pitch": 55,
      "t_note_us": 210937500,
      "t_trigger_us": 210801537,
      "is_ai": false,
      "track_id": 0,
      "velocity": 0,
      "is_motor": true,
      "motor_id": 0,
      "accel_val": 2000,
      "base_duration_us": 187500
    },
    {
      "id": "M_2717",
      "pitch": 88,
      "t_note_us": 211125000,
      "t_trigger_us": 210989037,
      "is_ai": true,
      "track_id": 5,
      "velocity": 0,
      "is_motor": false,
      "motor_id": 0,
      "accel_val": 2000,
      "base_duration_us": 375000
    },
    {
      "id": "M_2718",
      "pitch": 93,
      "t_note_us": 211125000,
      "t_trigger_us": 210989037,
      "is_ai": true,
      "track_id": 8,
      "velocity": 0,
      "is_motor": false,
      "motor_id": 0,
      "accel_val": 2000,
      "base_duration_us": 375000
    },
    {
      "id": "M_2715",
      "pitch": 55,
      "t_note_us": 211125000,
      "t_trigger_us": 210989037,
      "is_ai": false,
      "track_id": 0,
      "velocity": 0,
      "is_motor": true,
      "motor_id": 0,
      "accel_val": 2000,
      "base_duration_us": 187500
    },
    {
      "id": "M_2716",
      "pitch": 72,
      "t_note_us": 211125000,
      "t_trigger_us": 210989037,
      "is_ai": false,
      "track_id": 0,
      "velocity": 0,
      "is_motor": true,
      "motor_id": 1,
      "accel_val": 2000,
      "base_duration_us": 375000
    },
    {
      "id": "M_2719",
      "pitch": 55,
      "t_note_us": 211312500,
      "t_trigger_us": 211176537,
      "is_ai": false,
      "track_id": 0,
      "velocity": 0,
      "is_motor": true,
      "motor_id": 0,
      "accel_val": 2000,
      "base_duration_us": 187500
    },
    {
      "id": "M_2720",
      "pitch": 72,
      "t_note_us": 211500000,
      "t_trigger_us": 211364037,
      "is_ai": false,
      "track_id": 0,
      "velocity": 0,
      "is_motor": true,
      "motor_id": 1,
      "accel_val": 2000,
      "base_duration_us": 187500
    },
    {
      "id": "M_2721",
      "pitch": 76,
      "t_note_us": 211500000,
      "t_trigger_us": 211364037,
      "is_ai": false,
      "track_id": 0,
      "velocity": 0,
      "is_motor": true,
      "motor_id": 2,
      "accel_val": 2000,
      "base_duration_us": 187500
    },
    {
      "id": "M_2722",
      "pitch": 69,
      "t_note_us": 211500000,
      "t_trigger_us": 211364037,
      "is_ai": false,
      "track_id": 0,
      "velocity": 0,
      "is_motor": true,
      "motor_id": 0,
      "accel_val": 2000,
      "base_duration_us": 187500
    },
    {
      "id": "M_2723",
      "pitch": 62,
      "t_note_us": 211500000,
      "t_trigger_us": 211364037,
      "is_ai": false,
      "track_id": 0,
      "velocity": 0,
      "is_motor": true,
      "motor_id": 3,
      "accel_val": 2000,
      "base_duration_us": 187500
    },
    {
      "id": "M_2724",
      "pitch": 67,
      "t_note_us": 211500000,
      "t_trigger_us": 211364037,
      "is_ai": false,
      "track_id": 0,
      "velocity": 0,
      "is_motor": true,
      "motor_id": 0,
      "accel_val": 2000,
      "base_duration_us": 187500
    },
    {
      "id": "M_2726",
      "pitch": 95,
      "t_note_us": 211687500,
      "t_trigger_us": 211551537,
      "is_ai": true,
      "track_id": 9,
      "velocity": 0,
      "is_motor": false,
      "motor_id": 0,
      "accel_val": 2000,
      "base_duration_us": 187500
    },
    {
      "id": "M_2725",
      "pitch": 76,
      "t_note_us": 211687500,
      "t_trigger_us": 211551537,
      "is_ai": false,
      "track_id": 0,
      "velocity": 0,
      "is_motor": true,
      "motor_id": 2,
      "accel_val": 2000,
      "base_duration_us": 187500
    },
    {
      "id": "M_2727",
      "pitch": 55,
      "t_note_us": 211687500,
      "t_trigger_us": 211551537,
      "is_ai": false,
      "track_id": 0,
      "velocity": 0,
      "is_motor": true,
      "motor_id": 0,
      "accel_val": 2000,
      "base_duration_us": 187500
    },
    {
      "id": "M_2729",
      "pitch": 88,
      "t_note_us": 211875000,
      "t_trigger_us": 211739037,
      "is_ai": true,
      "track_id": 5,
      "velocity": 0,
      "is_motor": false,
      "motor_id": 0,
      "accel_val": 2000,
      "base_duration_us": 375000
    },
    {
      "id": "M_2730",
      "pitch": 93,
      "t_note_us": 211875000,
      "t_trigger_us": 211739037,
      "is_ai": true,
      "track_id": 8,
      "velocity": 0,
      "is_motor": false,
      "motor_id": 0,
      "accel_val": 2000,
      "base_duration_us": 375000
    },
    {
      "id": "M_2731",
      "pitch": 96,
      "t_note_us": 211875000,
      "t_trigger_us": 211739037,
      "is_ai": true,
      "track_id": 10,
      "velocity": 0,
      "is_motor": false,
      "motor_id": 0,
      "accel_val": 2000,
      "base_duration_us": 375000
    },
    {
      "id": "M_2728",
      "pitch": 57,
      "t_note_us": 211875000,
      "t_trigger_us": 211739037,
      "is_ai": false,
      "track_id": 0,
      "velocity": 0,
      "is_motor": true,
      "motor_id": 0,
      "accel_val": 2000,
      "base_duration_us": 187500
    },
    {
      "id": "M_2732",
      "pitch": 57,
      "t_note_us": 212062500,
      "t_trigger_us": 211926537,
      "is_ai": false,
      "track_id": 0,
      "velocity": 0,
      "is_motor": true,
      "motor_id": 0,
      "accel_val": 2000,
      "base_duration_us": 187500
    },
    {
      "id": "M_2735",
      "pitch": 86,
      "t_note_us": 212250000,
      "t_trigger_us": 212114037,
      "is_ai": true,
      "track_id": 4,
      "velocity": 0,
      "is_motor": false,
      "motor_id": 0,
      "accel_val": 2000,
      "base_duration_us": 375000
    },
    {
      "id": "M_2736",
      "pitch": 91,
      "t_note_us": 212250000,
      "t_trigger_us": 212114037,
      "is_ai": true,
      "track_id": 7,
      "velocity": 0,
      "is_motor": false,
      "motor_id": 0,
      "accel_val": 2000,
      "base_duration_us": 375000
    },
    {
      "id": "M_2737",
      "pitch": 95,
      "t_note_us": 212250000,
      "t_trigger_us": 212114037,
      "is_ai": true,
      "track_id": 9,
      "velocity": 0,
      "is_motor": false,
      "motor_id": 0,
      "accel_val": 2000,
      "base_duration_us": 375000
    },
    {
      "id": "M_2733",
      "pitch": 64,
      "t_note_us": 212250000,
      "t_trigger_us": 212114037,
      "is_ai": false,
      "track_id": 0,
      "velocity": 0,
      "is_motor": true,
      "motor_id": 1,
      "accel_val": 2000,
      "base_duration_us": 187500
    },
    {
      "id": "M_2734",
      "pitch": 69,
      "t_note_us": 212250000,
      "t_trigger_us": 212114037,
      "is_ai": false,
      "track_id": 0,
      "velocity": 0,
      "is_motor": true,
      "motor_id": 2,
      "accel_val": 2000,
      "base_duration_us": 187500
    },
    {
      "id": "M_2738",
      "pitch": 57,
      "t_note_us": 212437500,
      "t_trigger_us": 212301537,
      "is_ai": false,
      "track_id": 0,
      "velocity": 0,
      "is_motor": true,
      "motor_id": 0,
      "accel_val": 2000,
      "base_duration_us": 187500
    },
    {
      "id": "M_2741",
      "pitch": 88,
      "t_note_us": 212625000,
      "t_trigger_us": 212489037,
      "is_ai": true,
      "track_id": 5,
      "velocity": 0,
      "is_motor": false,
      "motor_id": 0,
      "accel_val": 2000,
      "base_duration_us": 375000
    },
    {
      "id": "M_2742",
      "pitch": 93,
      "t_note_us": 212625000,
      "t_trigger_us": 212489037,
      "is_ai": true,
      "track_id": 8,
      "velocity": 0,
      "is_motor": false,
      "motor_id": 0,
      "accel_val": 2000,
      "base_duration_us": 375000
    },
    {
      "id": "M_2739",
      "pitch": 57,
      "t_note_us": 212625000,
      "t_trigger_us": 212489037,
      "is_ai": false,
      "track_id": 0,
      "velocity": 0,
      "is_motor": true,
      "motor_id": 0,
      "accel_val": 2000,
      "base_duration_us": 187500
    },
    {
      "id": "M_2740",
      "pitch": 72,
      "t_note_us": 212625000,
      "t_trigger_us": 212489037,
      "is_ai": false,
      "track_id": 0,
      "velocity": 0,
      "is_motor": true,
      "motor_id": 1,
      "accel_val": 2000,
      "base_duration_us": 375000
    },
    {
      "id": "M_2743",
      "pitch": 57,
      "t_note_us": 212812500,
      "t_trigger_us": 212676537,
      "is_ai": false,
      "track_id": 0,
      "velocity": 0,
      "is_motor": true,
      "motor_id": 0,
      "accel_val": 2000,
      "base_duration_us": 187500
    },
    {
      "id": "M_2747",
      "pitch": 88,
      "t_note_us": 213000000,
      "t_trigger_us": 212864037,
      "is_ai": true,
      "track_id": 5,
      "velocity": 0,
      "is_motor": false,
      "motor_id": 0,
      "accel_val": 2000,
      "base_duration_us": 375000
    },
    {
      "id": "M_2748",
      "pitch": 91,
      "t_note_us": 213000000,
      "t_trigger_us": 212864037,
      "is_ai": true,
      "track_id": 7,
      "velocity": 0,
      "is_motor": false,
      "motor_id": 0,
      "accel_val": 2000,
      "base_duration_us": 375000
    },
    {
      "id": "M_2744",
      "pitch": 64,
      "t_note_us": 213000000,
      "t_trigger_us": 212864037,
      "is_ai": false,
      "track_id": 0,
      "velocity": 0,
      "is_motor": true,
      "motor_id": 1,
      "accel_val": 2000,
      "base_duration_us": 187500
    },
    {
      "id": "M_2745",
      "pitch": 69,
      "t_note_us": 213000000,
      "t_trigger_us": 212864037,
      "is_ai": false,
      "track_id": 0,
      "velocity": 0,
      "is_motor": true,
      "motor_id": 2,
      "accel_val": 2000,
      "base_duration_us": 187500
    },
    {
      "id": "M_2746",
      "pitch": 71,
      "t_note_us": 213000000,
      "t_trigger_us": 212864037,
      "is_ai": false,
      "track_id": 0,
      "velocity": 0,
      "is_motor": true,
      "motor_id": 0,
      "accel_val": 2000,
      "base_duration_us": 375000
    },
    {
      "id": "M_2749",
      "pitch": 57,
      "t_note_us": 213187500,
      "t_trigger_us": 213051537,
      "is_ai": false,
      "track_id": 0,
      "velocity": 0,
      "is_motor": true,
      "motor_id": 1,
      "accel_val": 2000,
      "base_duration_us": 187500
    },
    {
      "id": "M_2751",
      "pitch": 93,
      "t_note_us": 213375000,
      "t_trigger_us": 213239037,
      "is_ai": true,
      "track_id": 8,
      "velocity": 0,
      "is_motor": false,
      "motor_id": 0,
      "accel_val": 2000,
      "base_duration_us": 375000
    },
    {
      "id": "M_2752",
      "pitch": 96,
      "t_note_us": 213375000,
      "t_trigger_us": 213239037,
      "is_ai": true,
      "track_id": 10,
      "velocity": 0,
      "is_motor": false,
      "motor_id": 0,
      "accel_val": 2000,
      "base_duration_us": 375000
    },
    {
      "id": "M_2757",
      "pitch": 100,
      "t_note_us": 213375000,
      "t_trigger_us": 213239037,
      "is_ai": true,
      "track_id": 12,
      "velocity": 0,
      "is_motor": false,
      "motor_id": 0,
      "accel_val": 2000,
      "base_duration_us": 750000
    },
    {
      "id": "M_2750",
      "pitch": 60,
      "t_note_us": 213375000,
      "t_trigger_us": 213239037,
      "is_ai": false,
      "track_id": 0,
      "velocity": 0,
      "is_motor": true,
      "motor_id": 1,
      "accel_val": 2000,
      "base_duration_us": 187500
    },
    {
      "id": "M_2753",
      "pitch": 72,
      "t_note_us": 213562500,
      "t_trigger_us": 213426537,
      "is_ai": false,
      "track_id": 0,
      "velocity": 0,
      "is_motor": true,
      "motor_id": 1,
      "accel_val": 2000,
      "base_duration_us": 187500
    },
    {
      "id": "M_2755",
      "pitch": 95,
      "t_note_us": 213750000,
      "t_trigger_us": 213614037,
      "is_ai": true,
      "track_id": 9,
      "velocity": 0,
      "is_motor": false,
      "motor_id": 0,
      "accel_val": 2000,
      "base_duration_us": 375000
    },
    {
      "id": "M_2756",
      "pitch": 98,
      "t_note_us": 213750000,
      "t_trigger_us": 213614037,
      "is_ai": true,
      "track_id": 11,
      "velocity": 0,
      "is_motor": false,
      "motor_id": 0,
      "accel_val": 2000,
      "base_duration_us": 375000
    },
    {
      "id": "M_2754",
      "pitch": 60,
      "t_note_us": 213750000,
      "t_trigger_us": 213614037,
      "is_ai": false,
      "track_id": 0,
      "velocity": 0,
      "is_motor": true,
      "motor_id": 1,
      "accel_val": 2000,
      "base_duration_us": 187500
    },
    {
      "id": "M_2758",
      "pitch": 72,
      "t_note_us": 213937500,
      "t_trigger_us": 213801537,
      "is_ai": false,
      "track_id": 0,
      "velocity": 0,
      "is_motor": true,
      "motor_id": 1,
      "accel_val": 2000,
      "base_duration_us": 187500
    },
    {
      "id": "M_2760",
      "pitch": 84,
      "t_note_us": 214125000,
      "t_trigger_us": 213989037,
      "is_ai": true,
      "track_id": 3,
      "velocity": 0,
      "is_motor": false,
      "motor_id": 0,
      "accel_val": 2000,
      "base_duration_us": 375000
    },
    {
      "id": "M_2761",
      "pitch": 91,
      "t_note_us": 214125000,
      "t_trigger_us": 213989037,
      "is_ai": true,
      "track_id": 7,
      "velocity": 0,
      "is_motor": false,
      "motor_id": 0,
      "accel_val": 2000,
      "base_duration_us": 375000
    },
    {
      "id": "M_2759",
      "pitch": 52,
      "t_note_us": 214125000,
      "t_trigger_us": 213989037,
      "is_ai": false,
      "track_id": 0,
      "velocity": 0,
      "is_motor": true,
      "motor_id": 0,
      "accel_val": 2000,
      "base_duration_us": 187500
    },
    {
      "id": "M_2762",
      "pitch": 64,
      "t_note_us": 214312500,
      "t_trigger_us": 214176537,
      "is_ai": false,
      "track_id": 0,
      "velocity": 0,
      "is_motor": true,
      "motor_id": 1,
      "accel_val": 2000,
      "base_duration_us": 187500
    },
    {
      "id": "M_2765",
      "pitch": 88,
      "t_note_us": 214500000,
      "t_trigger_us": 214364037,
      "is_ai": true,
      "track_id": 5,
      "velocity": 0,
      "is_motor": false,
      "motor_id": 0,
      "accel_val": 2000,
      "base_duration_us": 375000
    },
    {
      "id": "M_2766",
      "pitch": 93,
      "t_note_us": 214500000,
      "t_trigger_us": 214364037,
      "is_ai": true,
      "track_id": 8,
      "velocity": 0,
      "is_motor": false,
      "motor_id": 0,
      "accel_val": 2000,
      "base_duration_us": 375000
    },
    {
      "id": "M_2763",
      "pitch": 52,
      "t_note_us": 214500000,
      "t_trigger_us": 214364037,
      "is_ai": false,
      "track_id": 0,
      "velocity": 0,
      "is_motor": true,
      "motor_id": 0,
      "accel_val": 2000,
      "base_duration_us": 187500
    },
    {
      "id": "M_2764",
      "pitch": 71,
      "t_note_us": 214500000,
      "t_trigger_us": 214364037,
      "is_ai": false,
      "track_id": 0,
      "velocity": 0,
      "is_motor": true,
      "motor_id": 1,
      "accel_val": 2000,
      "base_duration_us": 375000
    },
    {
      "id": "M_2767",
      "pitch": 64,
      "t_note_us": 214687500,
      "t_trigger_us": 214551537,
      "is_ai": false,
      "track_id": 0,
      "velocity": 0,
      "is_motor": true,
      "motor_id": 0,
      "accel_val": 2000,
      "base_duration_us": 187500
    },
    {
      "id": "M_2772",
      "pitch": 88,
      "t_note_us": 214875000,
      "t_trigger_us": 214739037,
      "is_ai": true,
      "track_id": 5,
      "velocity": 0,
      "is_motor": false,
      "motor_id": 0,
      "accel_val": 2000,
      "base_duration_us": 750000
    },
    {
      "id": "M_2773",
      "pitch": 96,
      "t_note_us": 214875000,
      "t_trigger_us": 214739037,
      "is_ai": true,
      "track_id": 10,
      "velocity": 0,
      "is_motor": false,
      "motor_id": 0,
      "accel_val": 2000,
      "base_duration_us": 750000
    },
    {
      "id": "M_2776",
      "pitch": 100,
      "t_note_us": 214875000,
      "t_trigger_us": 214739037,
      "is_ai": true,
      "track_id": 12,
      "velocity": 0,
      "is_motor": false,
      "motor_id": 0,
      "accel_val": 2000,
      "base_duration_us": 1125000
    },
    {
      "id": "M_2768",
      "pitch": 53,
      "t_note_us": 214875000,
      "t_trigger_us": 214739037,
      "is_ai": false,
      "track_id": 0,
      "velocity": 0,
      "is_motor": true,
      "motor_id": 0,
      "accel_val": 2000,
      "base_duration_us": 187500
    },
    {
      "id": "M_2769",
      "pitch": 53,
      "t_note_us": 215062500,
      "t_trigger_us": 214926537,
      "is_ai": false,
      "track_id": 0,
      "velocity": 0,
      "is_motor": true,
      "motor_id": 0,
      "accel_val": 2000,
      "base_duration_us": 187500
    },
    {
      "id": "M_2770",
      "pitch": 60,
      "t_note_us": 215250000,
      "t_trigger_us": 215114037,
      "is_ai": false,
      "track_id": 0,
      "velocity": 0,
      "is_motor": true,
      "motor_id": 1,
      "accel_val": 2000,
      "base_duration_us": 187500
    },
    {
      "id": "M_2771",
      "pitch": 65,
      "t_note_us": 215250000,
      "t_trigger_us": 215114037,
      "is_ai": false,
      "track_id": 0,
      "velocity": 0,
      "is_motor": true,
      "motor_id": 0,
      "accel_val": 2000,
      "base_duration_us": 187500
    },
    {
      "id": "M_2774",
      "pitch": 53,
      "t_note_us": 215437500,
      "t_trigger_us": 215301537,
      "is_ai": false,
      "track_id": 0,
      "velocity": 0,
      "is_motor": true,
      "motor_id": 0,
      "accel_val": 2000,
      "base_duration_us": 187500
    },
    {
      "id": "M_2782",
      "pitch": 95,
      "t_note_us": 215625000,
      "t_trigger_us": 215489037,
      "is_ai": true,
      "track_id": 9,
      "velocity": 0,
      "is_motor": false,
      "motor_id": 0,
      "accel_val": 2000,
      "base_duration_us": 750000
    },
    {
      "id": "M_2783",
      "pitch": 98,
      "t_note_us": 215625000,
      "t_trigger_us": 215489037,
      "is_ai": true,
      "track_id": 11,
      "velocity": 0,
      "is_motor": false,
      "motor_id": 0,
      "accel_val": 2000,
      "base_duration_us": 750000
    },
    {
      "id": "M_2775",
      "pitch": 53,
      "t_note_us": 215625000,
      "t_trigger_us": 215489037,
      "is_ai": false,
      "track_id": 0,
      "velocity": 0,
      "is_motor": true,
      "motor_id": 0,
      "accel_val": 2000,
      "base_duration_us": 187500
    },
    {
      "id": "M_2777",
      "pitch": 53,
      "t_note_us": 215812500,
      "t_trigger_us": 215676537,
      "is_ai": false,
      "track_id": 0,
      "velocity": 0,
      "is_motor": true,
      "motor_id": 0,
      "accel_val": 2000,
      "base_duration_us": 187500
    },
    {
      "id": "M_2780",
      "pitch": 88,
      "t_note_us": 216000000,
      "t_trigger_us": 215864037,
      "is_ai": true,
      "track_id": 5,
      "velocity": 0,
      "is_motor": false,
      "motor_id": 0,
      "accel_val": 2000,
      "base_duration_us": 375000
    },
    {
      "id": "M_2781",
      "pitch": 93,
      "t_note_us": 216000000,
      "t_trigger_us": 215864037,
      "is_ai": true,
      "track_id": 8,
      "velocity": 0,
      "is_motor": false,
      "motor_id": 0,
      "accel_val": 2000,
      "base_duration_us": 375000
    },
    {
      "id": "M_2778",
      "pitch": 60,
      "t_note_us": 216000000,
      "t_trigger_us": 215864037,
      "is_ai": false,
      "track_id": 0,
      "velocity": 0,
      "is_motor": true,
      "motor_id": 1,
      "accel_val": 2000,
      "base_duration_us": 187500
    },
    {
      "id": "M_2779",
      "pitch": 65,
      "t_note_us": 216000000,
      "t_trigger_us": 215864037,
      "is_ai": false,
      "track_id": 0,
      "velocity": 0,
      "is_motor": true,
      "motor_id": 0,
      "accel_val": 2000,
      "base_duration_us": 187500
    },
    {
      "id": "M_2784",
      "pitch": 53,
      "t_note_us": 216187500,
      "t_trigger_us": 216051537,
      "is_ai": false,
      "track_id": 0,
      "velocity": 0,
      "is_motor": true,
      "motor_id": 0,
      "accel_val": 2000,
      "base_duration_us": 187500
    },
    {
      "id": "M_2786",
      "pitch": 88,
      "t_note_us": 216375000,
      "t_trigger_us": 216239037,
      "is_ai": true,
      "track_id": 5,
      "velocity": 0,
      "is_motor": false,
      "motor_id": 0,
      "accel_val": 2000,
      "base_duration_us": 375000
    },
    {
      "id": "M_2787",
      "pitch": 91,
      "t_note_us": 216375000,
      "t_trigger_us": 216239037,
      "is_ai": true,
      "track_id": 7,
      "velocity": 0,
      "is_motor": false,
      "motor_id": 0,
      "accel_val": 2000,
      "base_duration_us": 375000
    },
    {
      "id": "M_2795",
      "pitch": 84,
      "t_note_us": 216375000,
      "t_trigger_us": 216239037,
      "is_ai": true,
      "track_id": 3,
      "velocity": 0,
      "is_motor": false,
      "motor_id": 0,
      "accel_val": 2000,
      "base_duration_us": 750000
    },
    {
      "id": "M_2785",
      "pitch": 55,
      "t_note_us": 216375000,
      "t_trigger_us": 216239037,
      "is_ai": false,
      "track_id": 0,
      "velocity": 0,
      "is_motor": true,
      "motor_id": 0,
      "accel_val": 2000,
      "base_duration_us": 187500
    },
    {
      "id": "M_2794",
      "pitch": 69,
      "t_note_us": 216375000,
      "t_trigger_us": 216239037,
      "is_ai": false,
      "track_id": 0,
      "velocity": 0,
      "is_motor": true,
      "motor_id": 1,
      "accel_val": 2000,
      "base_duration_us": 750000
    },
    {
      "id": "M_2788",
      "pitch": 55,
      "t_note_us": 216562500,
      "t_trigger_us": 216426537,
      "is_ai": false,
      "track_id": 0,
      "velocity": 0,
      "is_motor": true,
      "motor_id": 0,
      "accel_val": 2000,
      "base_duration_us": 187500
    },
    {
      "id": "M_2789",
      "pitch": 88,
      "t_note_us": 216750000,
      "t_trigger_us": 216614037,
      "is_ai": true,
      "track_id": 5,
      "velocity": 0,
      "is_motor": false,
      "motor_id": 0,
      "accel_val": 2000,
      "base_duration_us": 187500
    },
    {
      "id": "M_2790",
      "pitch": 67,
      "t_note_us": 216750000,
      "t_trigger_us": 216614037,
      "is_ai": false,
      "track_id": 0,
      "velocity": 0,
      "is_motor": true,
      "motor_id": 2,
      "accel_val": 2000,
      "base_duration_us": 187500
    },
    {
      "id": "M_2791",
      "pitch": 62,
      "t_note_us": 216750000,
      "t_trigger_us": 216614037,
      "is_ai": false,
      "track_id": 0,
      "velocity": 0,
      "is_motor": true,
      "motor_id": 0,
      "accel_val": 2000,
      "base_duration_us": 187500
    },
    {
      "id": "M_2792",
      "pitch": 67,
      "t_note_us": 216750000,
      "t_trigger_us": 216614037,
      "is_ai": false,
      "track_id": 0,
      "velocity": 0,
      "is_motor": true,
      "motor_id": 3,
      "accel_val": 2000,
      "base_duration_us": 187500
    },
    {
      "id": "M_2793",
      "pitch": 69,
      "t_note_us": 216937500,
      "t_trigger_us": 216801537,
      "is_ai": false,
      "track_id": 0,
      "velocity": 0,
      "is_motor": true,
      "motor_id": 2,
      "accel_val": 2000,
      "base_duration_us": 187500
    },
    {
      "id": "M_2796",
      "pitch": 55,
      "t_note_us": 216937500,
      "t_trigger_us": 216801537,
      "is_ai": false,
      "track_id": 0,
      "velocity": 0,
      "is_motor": true,
      "motor_id": 0,
      "accel_val": 2000,
      "base_duration_us": 187500
    },
    {
      "id": "M_2798",
      "pitch": 88,
      "t_note_us": 217125000,
      "t_trigger_us": 216989037,
      "is_ai": true,
      "track_id": 5,
      "velocity": 0,
      "is_motor": false,
      "motor_id": 0,
      "accel_val": 2000,
      "base_duration_us": 375000
    },
    {
      "id": "M_2799",
      "pitch": 93,
      "t_note_us": 217125000,
      "t_trigger_us": 216989037,
      "is_ai": true,
      "track_id": 8,
      "velocity": 0,
      "is_motor": false,
      "motor_id": 0,
      "accel_val": 2000,
      "base_duration_us": 375000
    },
    {
      "id": "M_2797",
      "pitch": 55,
      "t_note_us": 217125000,
      "t_trigger_us": 216989037,
      "is_ai": false,
      "track_id": 0,
      "velocity": 0,
      "is_motor": true,
      "motor_id": 0,
      "accel_val": 2000,
      "base_duration_us": 187500
    },
    {
      "id": "M_2800",
      "pitch": 55,
      "t_note_us": 217312500,
      "t_trigger_us": 217176537,
      "is_ai": false,
      "track_id": 0,
      "velocity": 0,
      "is_motor": true,
      "motor_id": 0,
      "accel_val": 2000,
      "base_duration_us": 187500
    },
    {
      "id": "M_2801",
      "pitch": 62,
      "t_note_us": 217500000,
      "t_trigger_us": 217364037,
      "is_ai": false,
      "track_id": 0,
      "velocity": 0,
      "is_motor": true,
      "motor_id": 1,
      "accel_val": 2000,
      "base_duration_us": 187500
    },
    {
      "id": "M_2802",
      "pitch": 67,
      "t_note_us": 217500000,
      "t_trigger_us": 217364037,
      "is_ai": false,
      "track_id": 0,
      "velocity": 0,
      "is_motor": true,
      "motor_id": 2,
      "accel_val": 2000,
      "base_duration_us": 187500
    },
    {
      "id": "M_2803",
      "pitch": 71,
      "t_note_us": 217687500,
      "t_trigger_us": 217551537,
      "is_ai": false,
      "track_id": 0,
      "velocity": 0,
      "is_motor": true,
      "motor_id": 1,
      "accel_val": 2000,
      "base_duration_us": 187500
    },
    {
      "id": "M_2804",
      "pitch": 74,
      "t_note_us": 217687500,
      "t_trigger_us": 217551537,
      "is_ai": false,
      "track_id": 0,
      "velocity": 0,
      "is_motor": true,
      "motor_id": 0,
      "accel_val": 2000,
      "base_duration_us": 187500
    },
    {
      "id": "M_2805",
      "pitch": 67,
      "t_note_us": 217687500,
      "t_trigger_us": 217551537,
      "is_ai": false,
      "track_id": 0,
      "velocity": 0,
      "is_motor": true,
      "motor_id": 2,
      "accel_val": 2000,
      "base_duration_us": 187500
    },
    {
      "id": "M_2806",
      "pitch": 55,
      "t_note_us": 217687500,
      "t_trigger_us": 217551537,
      "is_ai": false,
      "track_id": 0,
      "velocity": 0,
      "is_motor": true,
      "motor_id": 3,
      "accel_val": 2000,
      "base_duration_us": 187500
    },
    {
      "id": "M_2809",
      "pitch": 84,
      "t_note_us": 217875000,
      "t_trigger_us": 217739037,
      "is_ai": true,
      "track_id": 3,
      "velocity": 0,
      "is_motor": false,
      "motor_id": 0,
      "accel_val": 2000,
      "base_duration_us": 562500
    },
    {
      "id": "M_2811",
      "pitch": 93,
      "t_note_us": 217875000,
      "t_trigger_us": 217739037,
      "is_ai": true,
      "track_id": 8,
      "velocity": 0,
      "is_motor": false,
      "motor_id": 0,
      "accel_val": 2000,
      "base_duration_us": 562500
    },
    {
      "id": "M_2807",
      "pitch": 57,
      "t_note_us": 217875000,
      "t_trigger_us": 217739037,
      "is_ai": false,
      "track_id": 0,
      "velocity": 0,
      "is_motor": true,
      "motor_id": 0,
      "accel_val": 2000,
      "base_duration_us": 187500
    },
    {
      "id": "M_2810",
      "pitch": 76,
      "t_note_us": 217875000,
      "t_trigger_us": 217739037,
      "is_ai": false,
      "track_id": 0,
      "velocity": 0,
      "is_motor": true,
      "motor_id": 2,
      "accel_val": 2000,
      "base_duration_us": 562500
    },
    {
      "id": "M_2808",
      "pitch": 69,
      "t_note_us": 218062500,
      "t_trigger_us": 217926537,
      "is_ai": false,
      "track_id": 0,
      "velocity": 0,
      "is_motor": true,
      "motor_id": 1,
      "accel_val": 2000,
      "base_duration_us": 187500
    },
    {
      "id": "M_2812",
      "pitch": 57,
      "t_note_us": 218250000,
      "t_trigger_us": 218114037,
      "is_ai": false,
      "track_id": 0,
      "velocity": 0,
      "is_motor": true,
      "motor_id": 0,
      "accel_val": 2000,
      "base_duration_us": 187500
    },
    {
      "id": "M_2813",
      "pitch": 91,
      "t_note_us": 218437500,
      "t_trigger_us": 218301537,
      "is_ai": true,
      "track_id": 7,
      "velocity": 0,
      "is_motor": false,
      "motor_id": 0,
      "accel_val": 2000,
      "base_duration_us": 187500
    },
    {
      "id": "M_2814",
      "pitch": 96,
      "t_note_us": 218437500,
      "t_trigger_us": 218301537,
      "is_ai": true,
      "track_id": 10,
      "velocity": 0,
      "is_motor": false,
      "motor_id": 0,
      "accel_val": 2000,
      "base_duration_us": 187500
    },
    {
      "id": "M_2815",
      "pitch": 69,
      "t_note_us": 218437500,
      "t_trigger_us": 218301537,
      "is_ai": false,
      "track_id": 0,
      "velocity": 0,
      "is_motor": true,
      "motor_id": 1,
      "accel_val": 2000,
      "base_duration_us": 187500
    },
    {
      "id": "M_2817",
      "pitch": 88,
      "t_note_us": 218625000,
      "t_trigger_us": 218489037,
      "is_ai": true,
      "track_id": 5,
      "velocity": 0,
      "is_motor": false,
      "motor_id": 0,
      "accel_val": 2000,
      "base_duration_us": 375000
    },
    {
      "id": "M_2818",
      "pitch": 91,
      "t_note_us": 218625000,
      "t_trigger_us": 218489037,
      "is_ai": true,
      "track_id": 7,
      "velocity": 0,
      "is_motor": false,
      "motor_id": 0,
      "accel_val": 2000,
      "base_duration_us": 375000
    },
    {
      "id": "M_2819",
      "pitch": 96,
      "t_note_us": 218625000,
      "t_trigger_us": 218489037,
      "is_ai": true,
      "track_id": 10,
      "velocity": 0,
      "is_motor": false,
      "motor_id": 0,
      "accel_val": 2000,
      "base_duration_us": 375000
    },
    {
      "id": "M_2816",
      "pitch": 59,
      "t_note_us": 218625000,
      "t_trigger_us": 218489037,
      "is_ai": false,
      "track_id": 0,
      "velocity": 0,
      "is_motor": true,
      "motor_id": 0,
      "accel_val": 2000,
      "base_duration_us": 187500
    },
    {
      "id": "M_2820",
      "pitch": 71,
      "t_note_us": 218812500,
      "t_trigger_us": 218676537,
      "is_ai": false,
      "track_id": 0,
      "velocity": 0,
      "is_motor": true,
      "motor_id": 1,
      "accel_val": 2000,
      "base_duration_us": 187500
    },
    {
      "id": "M_2822",
      "pitch": 88,
      "t_note_us": 219000000,
      "t_trigger_us": 218864037,
      "is_ai": true,
      "track_id": 5,
      "velocity": 0,
      "is_motor": false,
      "motor_id": 0,
      "accel_val": 2000,
      "base_duration_us": 375000
    },
    {
      "id": "M_2823",
      "pitch": 93,
      "t_note_us": 219000000,
      "t_trigger_us": 218864037,
      "is_ai": true,
      "track_id": 8,
      "velocity": 0,
      "is_motor": false,
      "motor_id": 0,
      "accel_val": 2000,
      "base_duration_us": 375000
    },
    {
      "id": "M_2824",
      "pitch": 100,
      "t_note_us": 219000000,
      "t_trigger_us": 218864037,
      "is_ai": true,
      "track_id": 12,
      "velocity": 0,
      "is_motor": false,
      "motor_id": 0,
      "accel_val": 2000,
      "base_duration_us": 375000
    },
    {
      "id": "M_2821",
      "pitch": 59,
      "t_note_us": 219000000,
      "t_trigger_us": 218864037,
      "is_ai": false,
      "track_id": 0,
      "velocity": 0,
      "is_motor": true,
      "motor_id": 0,
      "accel_val": 2000,
      "base_duration_us": 187500
    },
    {
      "id": "M_2825",
      "pitch": 71,
      "t_note_us": 219187500,
      "t_trigger_us": 219051537,
      "is_ai": false,
      "track_id": 0,
      "velocity": 0,
      "is_motor": true,
      "motor_id": 1,
      "accel_val": 2000,
      "base_duration_us": 187500
    },
    {
      "id": "M_2829",
      "pitch": 88,
      "t_note_us": 219375000,
      "t_trigger_us": 219239037,
      "is_ai": true,
      "track_id": 5,
      "velocity": 0,
      "is_motor": false,
      "motor_id": 0,
      "accel_val": 2000,
      "base_duration_us": 750000
    },
    {
      "id": "M_2830",
      "pitch": 93,
      "t_note_us": 219375000,
      "t_trigger_us": 219239037,
      "is_ai": true,
      "track_id": 8,
      "velocity": 0,
      "is_motor": false,
      "motor_id": 0,
      "accel_val": 2000,
      "base_duration_us": 750000
    },
    {
      "id": "M_2831",
      "pitch": 100,
      "t_note_us": 219375000,
      "t_trigger_us": 219239037,
      "is_ai": true,
      "track_id": 12,
      "velocity": 0,
      "is_motor": false,
      "motor_id": 0,
      "accel_val": 2000,
      "base_duration_us": 750000
    },
    {
      "id": "M_2826",
      "pitch": 60,
      "t_note_us": 219375000,
      "t_trigger_us": 219239037,
      "is_ai": false,
      "track_id": 0,
      "velocity": 0,
      "is_motor": true,
      "motor_id": 1,
      "accel_val": 2000,
      "base_duration_us": 187500
    },
    {
      "id": "M_2827",
      "pitch": 72,
      "t_note_us": 219562500,
      "t_trigger_us": 219426537,
      "is_ai": false,
      "track_id": 0,
      "velocity": 0,
      "is_motor": true,
      "motor_id": 1,
      "accel_val": 2000,
      "base_duration_us": 187500
    },
    {
      "id": "M_2828",
      "pitch": 60,
      "t_note_us": 219750000,
      "t_trigger_us": 219614037,
      "is_ai": false,
      "track_id": 0,
      "velocity": 0,
      "is_motor": true,
      "motor_id": 1,
      "accel_val": 2000,
      "base_duration_us": 187500
    },
    {
      "id": "M_2832",
      "pitch": 72,
      "t_note_us": 219937500,
      "t_trigger_us": 219801537,
      "is_ai": false,
      "track_id": 0,
      "velocity": 0,
      "is_motor": true,
      "motor_id": 1,
      "accel_val": 2000,
      "base_duration_us": 187500
    },
    {
      "id": "M_2835",
      "pitch": 91,
      "t_note_us": 220125000,
      "t_trigger_us": 219989037,
      "is_ai": true,
      "track_id": 7,
      "velocity": 0,
      "is_motor": false,
      "motor_id": 0,
      "accel_val": 2000,
      "base_duration_us": 375000
    },
    {
      "id": "M_2833",
      "pitch": 64,
      "t_note_us": 220125000,
      "t_trigger_us": 219989037,
      "is_ai": false,
      "track_id": 0,
      "velocity": 0,
      "is_motor": true,
      "motor_id": 1,
      "accel_val": 2000,
      "base_duration_us": 187500
    },
    {
      "id": "M_2834",
      "pitch": 74,
      "t_note_us": 220125000,
      "t_trigger_us": 219989037,
      "is_ai": false,
      "track_id": 0,
      "velocity": 0,
      "is_motor": true,
      "motor_id": 0,
      "accel_val": 2000,
      "base_duration_us": 375000
    },
    {
      "id": "M_2836",
      "pitch": 76,
      "t_note_us": 220312500,
      "t_trigger_us": 220176537,
      "is_ai": false,
      "track_id": 0,
      "velocity": 0,
      "is_motor": true,
      "motor_id": 2,
      "accel_val": 2000,
      "base_duration_us": 187500
    },
    {
      "id": "M_2838",
      "pitch": 88,
      "t_note_us": 220500000,
      "t_trigger_us": 220364037,
      "is_ai": true,
      "track_id": 5,
      "velocity": 0,
      "is_motor": false,
      "motor_id": 0,
      "accel_val": 2000,
      "base_duration_us": 375000
    },
    {
      "id": "M_2839",
      "pitch": 93,
      "t_note_us": 220500000,
      "t_trigger_us": 220364037,
      "is_ai": true,
      "track_id": 8,
      "velocity": 0,
      "is_motor": false,
      "motor_id": 0,
      "accel_val": 2000,
      "base_duration_us": 375000
    },
    {
      "id": "M_2837",
      "pitch": 64,
      "t_note_us": 220500000,
      "t_trigger_us": 220364037,
      "is_ai": false,
      "track_id": 0,
      "velocity": 0,
      "is_motor": true,
      "motor_id": 1,
      "accel_val": 2000,
      "base_duration_us": 187500
    },
    {
      "id": "M_2840",
      "pitch": 76,
      "t_note_us": 220687500,
      "t_trigger_us": 220551537,
      "is_ai": false,
      "track_id": 0,
      "velocity": 0,
      "is_motor": true,
      "motor_id": 2,
      "accel_val": 2000,
      "base_duration_us": 187500
    },
    {
      "id": "M_2845",
      "pitch": 88,
      "t_note_us": 220875000,
      "t_trigger_us": 220739037,
      "is_ai": true,
      "track_id": 5,
      "velocity": 0,
      "is_motor": false,
      "motor_id": 0,
      "accel_val": 2000,
      "base_duration_us": 750000
    },
    {
      "id": "M_2846",
      "pitch": 93,
      "t_note_us": 220875000,
      "t_trigger_us": 220739037,
      "is_ai": true,
      "track_id": 8,
      "velocity": 0,
      "is_motor": false,
      "motor_id": 0,
      "accel_val": 2000,
      "base_duration_us": 750000
    },
    {
      "id": "M_2847",
      "pitch": 96,
      "t_note_us": 220875000,
      "t_trigger_us": 220739037,
      "is_ai": true,
      "track_id": 10,
      "velocity": 0,
      "is_motor": false,
      "motor_id": 0,
      "accel_val": 2000,
      "base_duration_us": 750000
    },
    {
      "id": "M_2848",
      "pitch": 100,
      "t_note_us": 220875000,
      "t_trigger_us": 220739037,
      "is_ai": true,
      "track_id": 12,
      "velocity": 0,
      "is_motor": false,
      "motor_id": 0,
      "accel_val": 2000,
      "base_duration_us": 750000
    },
    {
      "id": "M_2841",
      "pitch": 53,
      "t_note_us": 220875000,
      "t_trigger_us": 220739037,
      "is_ai": false,
      "track_id": 0,
      "velocity": 0,
      "is_motor": true,
      "motor_id": 0,
      "accel_val": 2000,
      "base_duration_us": 187500
    },
    {
      "id": "M_2842",
      "pitch": 53,
      "t_note_us": 221062500,
      "t_trigger_us": 220926537,
      "is_ai": false,
      "track_id": 0,
      "velocity": 0,
      "is_motor": true,
      "motor_id": 0,
      "accel_val": 2000,
      "base_duration_us": 187500
    },
    {
      "id": "M_2843",
      "pitch": 60,
      "t_note_us": 221250000,
      "t_trigger_us": 221114037,
      "is_ai": false,
      "track_id": 0,
      "velocity": 0,
      "is_motor": true,
      "motor_id": 1,
      "accel_val": 2000,
      "base_duration_us": 187500
    },
    {
      "id": "M_2844",
      "pitch": 65,
      "t_note_us": 221250000,
      "t_trigger_us": 221114037,
      "is_ai": false,
      "track_id": 0,
      "velocity": 0,
      "is_motor": true,
      "motor_id": 0,
      "accel_val": 2000,
      "base_duration_us": 187500
    },
    {
      "id": "M_2849",
      "pitch": 53,
      "t_note_us": 221437500,
      "t_trigger_us": 221301537,
      "is_ai": false,
      "track_id": 0,
      "velocity": 0,
      "is_motor": true,
      "motor_id": 0,
      "accel_val": 2000,
      "base_duration_us": 187500
    },
    {
      "id": "M_2852",
      "pitch": 88,
      "t_note_us": 221625000,
      "t_trigger_us": 221489037,
      "is_ai": true,
      "track_id": 5,
      "velocity": 0,
      "is_motor": false,
      "motor_id": 0,
      "accel_val": 2000,
      "base_duration_us": 375000
    },
    {
      "id": "M_2853",
      "pitch": 93,
      "t_note_us": 221625000,
      "t_trigger_us": 221489037,
      "is_ai": true,
      "track_id": 8,
      "velocity": 0,
      "is_motor": false,
      "motor_id": 0,
      "accel_val": 2000,
      "base_duration_us": 375000
    },
    {
      "id": "M_2850",
      "pitch": 53,
      "t_note_us": 221625000,
      "t_trigger_us": 221489037,
      "is_ai": false,
      "track_id": 0,
      "velocity": 0,
      "is_motor": true,
      "motor_id": 0,
      "accel_val": 2000,
      "base_duration_us": 187500
    },
    {
      "id": "M_2851",
      "pitch": 72,
      "t_note_us": 221625000,
      "t_trigger_us": 221489037,
      "is_ai": false,
      "track_id": 0,
      "velocity": 0,
      "is_motor": true,
      "motor_id": 1,
      "accel_val": 2000,
      "base_duration_us": 375000
    },
    {
      "id": "M_2854",
      "pitch": 53,
      "t_note_us": 221812500,
      "t_trigger_us": 221676537,
      "is_ai": false,
      "track_id": 0,
      "velocity": 0,
      "is_motor": true,
      "motor_id": 0,
      "accel_val": 2000,
      "base_duration_us": 187500
    },
    {
      "id": "M_2855",
      "pitch": 88,
      "t_note_us": 222000000,
      "t_trigger_us": 221864037,
      "is_ai": true,
      "track_id": 5,
      "velocity": 0,
      "is_motor": false,
      "motor_id": 0,
      "accel_val": 2000,
      "base_duration_us": 187500
    },
    {
      "id": "M_2856",
      "pitch": 69,
      "t_note_us": 222000000,
      "t_trigger_us": 221864037,
      "is_ai": false,
      "track_id": 0,
      "velocity": 0,
      "is_motor": true,
      "motor_id": 1,
      "accel_val": 2000,
      "base_duration_us": 187500
    },
    {
      "id": "M_2857",
      "pitch": 60,
      "t_note_us": 222000000,
      "t_trigger_us": 221864037,
      "is_ai": false,
      "track_id": 0,
      "velocity": 0,
      "is_motor": true,
      "motor_id": 0,
      "accel_val": 2000,
      "base_duration_us": 187500
    },
    {
      "id": "M_2858",
      "pitch": 65,
      "t_note_us": 222000000,
      "t_trigger_us": 221864037,
      "is_ai": false,
      "track_id": 0,
      "velocity": 0,
      "is_motor": true,
      "motor_id": 2,
      "accel_val": 2000,
      "base_duration_us": 187500
    },
    {
      "id": "M_2859",
      "pitch": 76,
      "t_note_us": 222187500,
      "t_trigger_us": 222051537,
      "is_ai": false,
      "track_id": 0,
      "velocity": 0,
      "is_motor": true,
      "motor_id": 2,
      "accel_val": 2000,
      "base_duration_us": 187500
    },
    {
      "id": "M_2860",
      "pitch": 67,
      "t_note_us": 222187500,
      "t_trigger_us": 222051537,
      "is_ai": false,
      "track_id": 0,
      "velocity": 0,
      "is_motor": true,
      "motor_id": 1,
      "accel_val": 2000,
      "base_duration_us": 187500
    },
    {
      "id": "M_2861",
      "pitch": 53,
      "t_note_us": 222187500,
      "t_trigger_us": 222051537,
      "is_ai": false,
      "track_id": 0,
      "velocity": 0,
      "is_motor": true,
      "motor_id": 0,
      "accel_val": 2000,
      "base_duration_us": 187500
    },
    {
      "id": "M_2864",
      "pitch": 91,
      "t_note_us": 222375000,
      "t_trigger_us": 222239037,
      "is_ai": true,
      "track_id": 7,
      "velocity": 0,
      "is_motor": false,
      "motor_id": 0,
      "accel_val": 2000,
      "base_duration_us": 187500
    },
    {
      "id": "M_2862",
      "pitch": 71,
      "t_note_us": 222375000,
      "t_trigger_us": 222239037,
      "is_ai": false,
      "track_id": 0,
      "velocity": 0,
      "is_motor": true,
      "motor_id": 1,
      "accel_val": 2000,
      "base_duration_us": 187500
    },
    {
      "id": "M_2863",
      "pitch": 74,
      "t_note_us": 222375000,
      "t_trigger_us": 222239037,
      "is_ai": false,
      "track_id": 0,
      "velocity": 0,
      "is_motor": true,
      "motor_id": 0,
      "accel_val": 2000,
      "base_duration_us": 187500
    },
    {
      "id": "M_2865",
      "pitch": 55,
      "t_note_us": 222375000,
      "t_trigger_us": 222239037,
      "is_ai": false,
      "track_id": 0,
      "velocity": 0,
      "is_motor": true,
      "motor_id": 2,
      "accel_val": 2000,
      "base_duration_us": 187500
    },
    {
      "id": "M_2866",
      "pitch": 74,
      "t_note_us": 222562500,
      "t_trigger_us": 222426537,
      "is_ai": false,
      "track_id": 0,
      "velocity": 0,
      "is_motor": true,
      "motor_id": 1,
      "accel_val": 2000,
      "base_duration_us": 187500
    },
    {
      "id": "M_2867",
      "pitch": 67,
      "t_note_us": 222562500,
      "t_trigger_us": 222426537,
      "is_ai": false,
      "track_id": 0,
      "velocity": 0,
      "is_motor": true,
      "motor_id": 2,
      "accel_val": 2000,
      "base_duration_us": 187500
    },
    {
      "id": "M_2868",
      "pitch": 55,
      "t_note_us": 222562500,
      "t_trigger_us": 222426537,
      "is_ai": false,
      "track_id": 0,
      "velocity": 0,
      "is_motor": true,
      "motor_id": 0,
      "accel_val": 2000,
      "base_duration_us": 187500
    },
    {
      "id": "M_2869",
      "pitch": 71,
      "t_note_us": 222750000,
      "t_trigger_us": 222614037,
      "is_ai": false,
      "track_id": 0,
      "velocity": 0,
      "is_motor": true,
      "motor_id": 1,
      "accel_val": 2000,
      "base_duration_us": 187500
    },
    {
      "id": "M_2870",
      "pitch": 74,
      "t_note_us": 222750000,
      "t_trigger_us": 222614037,
      "is_ai": false,
      "track_id": 0,
      "velocity": 0,
      "is_motor": true,
      "motor_id": 0,
      "accel_val": 2000,
      "base_duration_us": 187500
    },
    {
      "id": "M_2871",
      "pitch": 67,
      "t_note_us": 222750000,
      "t_trigger_us": 222614037,
      "is_ai": false,
      "track_id": 0,
      "velocity": 0,
      "is_motor": true,
      "motor_id": 2,
      "accel_val": 2000,
      "base_duration_us": 187500
    },
    {
      "id": "M_2872",
      "pitch": 62,
      "t_note_us": 222750000,
      "t_trigger_us": 222614037,
      "is_ai": false,
      "track_id": 0,
      "velocity": 0,
      "is_motor": true,
      "motor_id": 3,
      "accel_val": 2000,
      "base_duration_us": 187500
    },
    {
      "id": "M_2873",
      "pitch": 67,
      "t_note_us": 222750000,
      "t_trigger_us": 222614037,
      "is_ai": false,
      "track_id": 0,
      "velocity": 0,
      "is_motor": true,
      "motor_id": 0,
      "accel_val": 2000,
      "base_duration_us": 187500
    },
    {
      "id": "M_2874",
      "pitch": 76,
      "t_note_us": 222937500,
      "t_trigger_us": 222801537,
      "is_ai": false,
      "track_id": 0,
      "velocity": 0,
      "is_motor": true,
      "motor_id": 2,
      "accel_val": 2000,
      "base_duration_us": 187500
    },
    {
      "id": "M_2875",
      "pitch": 69,
      "t_note_us": 222937500,
      "t_trigger_us": 222801537,
      "is_ai": false,
      "track_id": 0,
      "velocity": 0,
      "is_motor": true,
      "motor_id": 1,
      "accel_val": 2000,
      "base_duration_us": 187500
    },
    {
      "id": "M_2876",
      "pitch": 55,
      "t_note_us": 222937500,
      "t_trigger_us": 222801537,
      "is_ai": false,
      "track_id": 0,
      "velocity": 0,
      "is_motor": true,
      "motor_id": 0,
      "accel_val": 2000,
      "base_duration_us": 187500
    },
    {
      "id": "M_2879",
      "pitch": 88,
      "t_note_us": 223125000,
      "t_trigger_us": 222989037,
      "is_ai": true,
      "track_id": 5,
      "velocity": 0,
      "is_motor": false,
      "motor_id": 0,
      "accel_val": 2000,
      "base_duration_us": 375000
    },
    {
      "id": "M_2880",
      "pitch": 93,
      "t_note_us": 223125000,
      "t_trigger_us": 222989037,
      "is_ai": true,
      "track_id": 8,
      "velocity": 0,
      "is_motor": false,
      "motor_id": 0,
      "accel_val": 2000,
      "base_duration_us": 375000
    },
    {
      "id": "M_2877",
      "pitch": 55,
      "t_note_us": 223125000,
      "t_trigger_us": 222989037,
      "is_ai": false,
      "track_id": 0,
      "velocity": 0,
      "is_motor": true,
      "motor_id": 0,
      "accel_val": 2000,
      "base_duration_us": 187500
    },
    {
      "id": "M_2878",
      "pitch": 72,
      "t_note_us": 223125000,
      "t_trigger_us": 222989037,
      "is_ai": false,
      "track_id": 0,
      "velocity": 0,
      "is_motor": true,
      "motor_id": 1,
      "accel_val": 2000,
      "base_duration_us": 375000
    },
    {
      "id": "M_2881",
      "pitch": 55,
      "t_note_us": 223312500,
      "t_trigger_us": 223176537,
      "is_ai": false,
      "track_id": 0,
      "velocity": 0,
      "is_motor": true,
      "motor_id": 0,
      "accel_val": 2000,
      "base_duration_us": 187500
    },
    {
      "id": "M_2882",
      "pitch": 72,
      "t_note_us": 223500000,
      "t_trigger_us": 223364037,
      "is_ai": false,
      "track_id": 0,
      "velocity": 0,
      "is_motor": true,
      "motor_id": 1,
      "accel_val": 2000,
      "base_duration_us": 187500
    },
    {
      "id": "M_2883",
      "pitch": 76,
      "t_note_us": 223500000,
      "t_trigger_us": 223364037,
      "is_ai": false,
      "track_id": 0,
      "velocity": 0,
      "is_motor": true,
      "motor_id": 2,
      "accel_val": 2000,
      "base_duration_us": 187500
    },
    {
      "id": "M_2884",
      "pitch": 69,
      "t_note_us": 223500000,
      "t_trigger_us": 223364037,
      "is_ai": false,
      "track_id": 0,
      "velocity": 0,
      "is_motor": true,
      "motor_id": 0,
      "accel_val": 2000,
      "base_duration_us": 187500
    },
    {
      "id": "M_2885",
      "pitch": 62,
      "t_note_us": 223500000,
      "t_trigger_us": 223364037,
      "is_ai": false,
      "track_id": 0,
      "velocity": 0,
      "is_motor": true,
      "motor_id": 3,
      "accel_val": 2000,
      "base_duration_us": 187500
    },
    {
      "id": "M_2886",
      "pitch": 67,
      "t_note_us": 223500000,
      "t_trigger_us": 223364037,
      "is_ai": false,
      "track_id": 0,
      "velocity": 0,
      "is_motor": true,
      "motor_id": 0,
      "accel_val": 2000,
      "base_duration_us": 187500
    },
    {
      "id": "M_2888",
      "pitch": 95,
      "t_note_us": 223687500,
      "t_trigger_us": 223551537,
      "is_ai": true,
      "track_id": 9,
      "velocity": 0,
      "is_motor": false,
      "motor_id": 0,
      "accel_val": 2000,
      "base_duration_us": 187500
    },
    {
      "id": "M_2887",
      "pitch": 76,
      "t_note_us": 223687500,
      "t_trigger_us": 223551537,
      "is_ai": false,
      "track_id": 0,
      "velocity": 0,
      "is_motor": true,
      "motor_id": 2,
      "accel_val": 2000,
      "base_duration_us": 187500
    },
    {
      "id": "M_2889",
      "pitch": 55,
      "t_note_us": 223687500,
      "t_trigger_us": 223551537,
      "is_ai": false,
      "track_id": 0,
      "velocity": 0,
      "is_motor": true,
      "motor_id": 0,
      "accel_val": 2000,
      "base_duration_us": 187500
    },
    {
      "id": "M_2891",
      "pitch": 88,
      "t_note_us": 223875000,
      "t_trigger_us": 223739037,
      "is_ai": true,
      "track_id": 5,
      "velocity": 0,
      "is_motor": false,
      "motor_id": 0,
      "accel_val": 2000,
      "base_duration_us": 375000
    },
    {
      "id": "M_2892",
      "pitch": 93,
      "t_note_us": 223875000,
      "t_trigger_us": 223739037,
      "is_ai": true,
      "track_id": 8,
      "velocity": 0,
      "is_motor": false,
      "motor_id": 0,
      "accel_val": 2000,
      "base_duration_us": 375000
    },
    {
      "id": "M_2893",
      "pitch": 96,
      "t_note_us": 223875000,
      "t_trigger_us": 223739037,
      "is_ai": true,
      "track_id": 10,
      "velocity": 0,
      "is_motor": false,
      "motor_id": 0,
      "accel_val": 2000,
      "base_duration_us": 375000
    },
    {
      "id": "M_2890",
      "pitch": 57,
      "t_note_us": 223875000,
      "t_trigger_us": 223739037,
      "is_ai": false,
      "track_id": 0,
      "velocity": 0,
      "is_motor": true,
      "motor_id": 0,
      "accel_val": 2000,
      "base_duration_us": 187500
    },
    {
      "id": "M_2894",
      "pitch": 57,
      "t_note_us": 224062500,
      "t_trigger_us": 223926537,
      "is_ai": false,
      "track_id": 0,
      "velocity": 0,
      "is_motor": true,
      "motor_id": 0,
      "accel_val": 2000,
      "base_duration_us": 187500
    },
    {
      "id": "M_2897",
      "pitch": 86,
      "t_note_us": 224250000,
      "t_trigger_us": 224114037,
      "is_ai": true,
      "track_id": 4,
      "velocity": 0,
      "is_motor": false,
      "motor_id": 0,
      "accel_val": 2000,
      "base_duration_us": 375000
    },
    {
      "id": "M_2898",
      "pitch": 91,
      "t_note_us": 224250000,
      "t_trigger_us": 224114037,
      "is_ai": true,
      "track_id": 7,
      "velocity": 0,
      "is_motor": false,
      "motor_id": 0,
      "accel_val": 2000,
      "base_duration_us": 375000
    },
    {
      "id": "M_2899",
      "pitch": 95,
      "t_note_us": 224250000,
      "t_trigger_us": 224114037,
      "is_ai": true,
      "track_id": 9,
      "velocity": 0,
      "is_motor": false,
      "motor_id": 0,
      "accel_val": 2000,
      "base_duration_us": 375000
    },
    {
      "id": "M_2895",
      "pitch": 64,
      "t_note_us": 224250000,
      "t_trigger_us": 224114037,
      "is_ai": false,
      "track_id": 0,
      "velocity": 0,
      "is_motor": true,
      "motor_id": 1,
      "accel_val": 2000,
      "base_duration_us": 187500
    },
    {
      "id": "M_2896",
      "pitch": 69,
      "t_note_us": 224250000,
      "t_trigger_us": 224114037,
      "is_ai": false,
      "track_id": 0,
      "velocity": 0,
      "is_motor": true,
      "motor_id": 2,
      "accel_val": 2000,
      "base_duration_us": 187500
    },
    {
      "id": "M_2900",
      "pitch": 57,
      "t_note_us": 224437500,
      "t_trigger_us": 224301537,
      "is_ai": false,
      "track_id": 0,
      "velocity": 0,
      "is_motor": true,
      "motor_id": 0,
      "accel_val": 2000,
      "base_duration_us": 187500
    },
    {
      "id": "M_2903",
      "pitch": 88,
      "t_note_us": 224625000,
      "t_trigger_us": 224489037,
      "is_ai": true,
      "track_id": 5,
      "velocity": 0,
      "is_motor": false,
      "motor_id": 0,
      "accel_val": 2000,
      "base_duration_us": 375000
    },
    {
      "id": "M_2904",
      "pitch": 93,
      "t_note_us": 224625000,
      "t_trigger_us": 224489037,
      "is_ai": true,
      "track_id": 8,
      "velocity": 0,
      "is_motor": false,
      "motor_id": 0,
      "accel_val": 2000,
      "base_duration_us": 375000
    },
    {
      "id": "M_2901",
      "pitch": 57,
      "t_note_us": 224625000,
      "t_trigger_us": 224489037,
      "is_ai": false,
      "track_id": 0,
      "velocity": 0,
      "is_motor": true,
      "motor_id": 0,
      "accel_val": 2000,
      "base_duration_us": 187500
    },
    {
      "id": "M_2902",
      "pitch": 72,
      "t_note_us": 224625000,
      "t_trigger_us": 224489037,
      "is_ai": false,
      "track_id": 0,
      "velocity": 0,
      "is_motor": true,
      "motor_id": 1,
      "accel_val": 2000,
      "base_duration_us": 375000
    },
    {
      "id": "M_2905",
      "pitch": 57,
      "t_note_us": 224812500,
      "t_trigger_us": 224676537,
      "is_ai": false,
      "track_id": 0,
      "velocity": 0,
      "is_motor": true,
      "motor_id": 0,
      "accel_val": 2000,
      "base_duration_us": 187500
    },
    {
      "id": "M_2909",
      "pitch": 88,
      "t_note_us": 225000000,
      "t_trigger_us": 224864037,
      "is_ai": true,
      "track_id": 5,
      "velocity": 0,
      "is_motor": false,
      "motor_id": 0,
      "accel_val": 2000,
      "base_duration_us": 375000
    },
    {
      "id": "M_2910",
      "pitch": 91,
      "t_note_us": 225000000,
      "t_trigger_us": 224864037,
      "is_ai": true,
      "track_id": 7,
      "velocity": 0,
      "is_motor": false,
      "motor_id": 0,
      "accel_val": 2000,
      "base_duration_us": 375000
    },
    {
      "id": "M_2906",
      "pitch": 64,
      "t_note_us": 225000000,
      "t_trigger_us": 224864037,
      "is_ai": false,
      "track_id": 0,
      "velocity": 0,
      "is_motor": true,
      "motor_id": 1,
      "accel_val": 2000,
      "base_duration_us": 187500
    },
    {
      "id": "M_2907",
      "pitch": 69,
      "t_note_us": 225000000,
      "t_trigger_us": 224864037,
      "is_ai": false,
      "track_id": 0,
      "velocity": 0,
      "is_motor": true,
      "motor_id": 2,
      "accel_val": 2000,
      "base_duration_us": 187500
    },
    {
      "id": "M_2908",
      "pitch": 71,
      "t_note_us": 225000000,
      "t_trigger_us": 224864037,
      "is_ai": false,
      "track_id": 0,
      "velocity": 0,
      "is_motor": true,
      "motor_id": 0,
      "accel_val": 2000,
      "base_duration_us": 375000
    },
    {
      "id": "M_2911",
      "pitch": 57,
      "t_note_us": 225187500,
      "t_trigger_us": 225051537,
      "is_ai": false,
      "track_id": 0,
      "velocity": 0,
      "is_motor": true,
      "motor_id": 1,
      "accel_val": 2000,
      "base_duration_us": 187500
    },
    {
      "id": "M_2913",
      "pitch": 93,
      "t_note_us": 225375000,
      "t_trigger_us": 225239037,
      "is_ai": true,
      "track_id": 8,
      "velocity": 0,
      "is_motor": false,
      "motor_id": 0,
      "accel_val": 2000,
      "base_duration_us": 375000
    },
    {
      "id": "M_2914",
      "pitch": 96,
      "t_note_us": 225375000,
      "t_trigger_us": 225239037,
      "is_ai": true,
      "track_id": 10,
      "velocity": 0,
      "is_motor": false,
      "motor_id": 0,
      "accel_val": 2000,
      "base_duration_us": 375000
    },
    {
      "id": "M_2919",
      "pitch": 100,
      "t_note_us": 225375000,
      "t_trigger_us": 225239037,
      "is_ai": true,
      "track_id": 12,
      "velocity": 0,
      "is_motor": false,
      "motor_id": 0,
      "accel_val": 2000,
      "base_duration_us": 750000
    },
    {
      "id": "M_2912",
      "pitch": 60,
      "t_note_us": 225375000,
      "t_trigger_us": 225239037,
      "is_ai": false,
      "track_id": 0,
      "velocity": 0,
      "is_motor": true,
      "motor_id": 1,
      "accel_val": 2000,
      "base_duration_us": 187500
    },
    {
      "id": "M_2915",
      "pitch": 72,
      "t_note_us": 225562500,
      "t_trigger_us": 225426537,
      "is_ai": false,
      "track_id": 0,
      "velocity": 0,
      "is_motor": true,
      "motor_id": 1,
      "accel_val": 2000,
      "base_duration_us": 187500
    },
    {
      "id": "M_2917",
      "pitch": 95,
      "t_note_us": 225750000,
      "t_trigger_us": 225614037,
      "is_ai": true,
      "track_id": 9,
      "velocity": 0,
      "is_motor": false,
      "motor_id": 0,
      "accel_val": 2000,
      "base_duration_us": 375000
    },
    {
      "id": "M_2918",
      "pitch": 98,
      "t_note_us": 225750000,
      "t_trigger_us": 225614037,
      "is_ai": true,
      "track_id": 11,
      "velocity": 0,
      "is_motor": false,
      "motor_id": 0,
      "accel_val": 2000,
      "base_duration_us": 375000
    },
    {
      "id": "M_2916",
      "pitch": 60,
      "t_note_us": 225750000,
      "t_trigger_us": 225614037,
      "is_ai": false,
      "track_id": 0,
      "velocity": 0,
      "is_motor": true,
      "motor_id": 1,
      "accel_val": 2000,
      "base_duration_us": 187500
    },
    {
      "id": "M_2920",
      "pitch": 72,
      "t_note_us": 225937500,
      "t_trigger_us": 225801537,
      "is_ai": false,
      "track_id": 0,
      "velocity": 0,
      "is_motor": true,
      "motor_id": 1,
      "accel_val": 2000,
      "base_duration_us": 187500
    },
    {
      "id": "M_2922",
      "pitch": 84,
      "t_note_us": 226125000,
      "t_trigger_us": 225989037,
      "is_ai": true,
      "track_id": 3,
      "velocity": 0,
      "is_motor": false,
      "motor_id": 0,
      "accel_val": 2000,
      "base_duration_us": 375000
    },
    {
      "id": "M_2923",
      "pitch": 91,
      "t_note_us": 226125000,
      "t_trigger_us": 225989037,
      "is_ai": true,
      "track_id": 7,
      "velocity": 0,
      "is_motor": false,
      "motor_id": 0,
      "accel_val": 2000,
      "base_duration_us": 375000
    },
    {
      "id": "M_2921",
      "pitch": 52,
      "t_note_us": 226125000,
      "t_trigger_us": 225989037,
      "is_ai": false,
      "track_id": 0,
      "velocity": 0,
      "is_motor": true,
      "motor_id": 0,
      "accel_val": 2000,
      "base_duration_us": 187500
    },
    {
      "id": "M_2924",
      "pitch": 64,
      "t_note_us": 226312500,
      "t_trigger_us": 226176537,
      "is_ai": false,
      "track_id": 0,
      "velocity": 0,
      "is_motor": true,
      "motor_id": 1,
      "accel_val": 2000,
      "base_duration_us": 187500
    },
    {
      "id": "M_2927",
      "pitch": 88,
      "t_note_us": 226500000,
      "t_trigger_us": 226364037,
      "is_ai": true,
      "track_id": 5,
      "velocity": 0,
      "is_motor": false,
      "motor_id": 0,
      "accel_val": 2000,
      "base_duration_us": 375000
    },
    {
      "id": "M_2928",
      "pitch": 93,
      "t_note_us": 226500000,
      "t_trigger_us": 226364037,
      "is_ai": true,
      "track_id": 8,
      "velocity": 0,
      "is_motor": false,
      "motor_id": 0,
      "accel_val": 2000,
      "base_duration_us": 375000
    },
    {
      "id": "M_2925",
      "pitch": 52,
      "t_note_us": 226500000,
      "t_trigger_us": 226364037,
      "is_ai": false,
      "track_id": 0,
      "velocity": 0,
      "is_motor": true,
      "motor_id": 0,
      "accel_val": 2000,
      "base_duration_us": 187500
    },
    {
      "id": "M_2926",
      "pitch": 71,
      "t_note_us": 226500000,
      "t_trigger_us": 226364037,
      "is_ai": false,
      "track_id": 0,
      "velocity": 0,
      "is_motor": true,
      "motor_id": 1,
      "accel_val": 2000,
      "base_duration_us": 375000
    },
    {
      "id": "M_2929",
      "pitch": 64,
      "t_note_us": 226687500,
      "t_trigger_us": 226551537,
      "is_ai": false,
      "track_id": 0,
      "velocity": 0,
      "is_motor": true,
      "motor_id": 0,
      "accel_val": 2000,
      "base_duration_us": 187500
    },
    {
      "id": "M_2934",
      "pitch": 100,
      "t_note_us": 226875000,
      "t_trigger_us": 226739037,
      "is_ai": true,
      "track_id": 12,
      "velocity": 0,
      "is_motor": false,
      "motor_id": 0,
      "accel_val": 2000,
      "base_duration_us": 750000
    },
    {
      "id": "M_2935",
      "pitch": 88,
      "t_note_us": 226875000,
      "t_trigger_us": 226739037,
      "is_ai": true,
      "track_id": 5,
      "velocity": 0,
      "is_motor": false,
      "motor_id": 0,
      "accel_val": 2000,
      "base_duration_us": 750000
    },
    {
      "id": "M_2936",
      "pitch": 96,
      "t_note_us": 226875000,
      "t_trigger_us": 226739037,
      "is_ai": true,
      "track_id": 10,
      "velocity": 0,
      "is_motor": false,
      "motor_id": 0,
      "accel_val": 2000,
      "base_duration_us": 750000
    },
    {
      "id": "M_2930",
      "pitch": 53,
      "t_note_us": 226875000,
      "t_trigger_us": 226739037,
      "is_ai": false,
      "track_id": 0,
      "velocity": 0,
      "is_motor": true,
      "motor_id": 0,
      "accel_val": 2000,
      "base_duration_us": 187500
    },
    {
      "id": "M_2931",
      "pitch": 53,
      "t_note_us": 227062500,
      "t_trigger_us": 226926537,
      "is_ai": false,
      "track_id": 0,
      "velocity": 0,
      "is_motor": true,
      "motor_id": 0,
      "accel_val": 2000,
      "base_duration_us": 187500
    },
    {
      "id": "M_2932",
      "pitch": 60,
      "t_note_us": 227250000,
      "t_trigger_us": 227114037,
      "is_ai": false,
      "track_id": 0,
      "velocity": 0,
      "is_motor": true,
      "motor_id": 1,
      "accel_val": 2000,
      "base_duration_us": 187500
    },
    {
      "id": "M_2933",
      "pitch": 65,
      "t_note_us": 227250000,
      "t_trigger_us": 227114037,
      "is_ai": false,
      "track_id": 0,
      "velocity": 0,
      "is_motor": true,
      "motor_id": 0,
      "accel_val": 2000,
      "base_duration_us": 187500
    },
    {
      "id": "M_2937",
      "pitch": 53,
      "t_note_us": 227437500,
      "t_trigger_us": 227301537,
      "is_ai": false,
      "track_id": 0,
      "velocity": 0,
      "is_motor": true,
      "motor_id": 0,
      "accel_val": 2000,
      "base_duration_us": 187500
    },
    {
      "id": "M_2939",
      "pitch": 93,
      "t_note_us": 227625000,
      "t_trigger_us": 227489037,
      "is_ai": true,
      "track_id": 8,
      "velocity": 0,
      "is_motor": false,
      "motor_id": 0,
      "accel_val": 2000,
      "base_duration_us": 375000
    },
    {
      "id": "M_2948",
      "pitch": 86,
      "t_note_us": 227625000,
      "t_trigger_us": 227489037,
      "is_ai": true,
      "track_id": 4,
      "velocity": 0,
      "is_motor": false,
      "motor_id": 0,
      "accel_val": 2000,
      "base_duration_us": 750000
    },
    {
      "id": "M_2938",
      "pitch": 53,
      "t_note_us": 227625000,
      "t_trigger_us": 227489037,
      "is_ai": false,
      "track_id": 0,
      "velocity": 0,
      "is_motor": true,
      "motor_id": 0,
      "accel_val": 2000,
      "base_duration_us": 187500
    },
    {
      "id": "M_2947",
      "pitch": 71,
      "t_note_us": 227625000,
      "t_trigger_us": 227489037,
      "is_ai": false,
      "track_id": 0,
      "velocity": 0,
      "is_motor": true,
      "motor_id": 1,
      "accel_val": 2000,
      "base_duration_us": 750000
    },
    {
      "id": "M_2940",
      "pitch": 53,
      "t_note_us": 227812500,
      "t_trigger_us": 227676537,
      "is_ai": false,
      "track_id": 0,
      "velocity": 0,
      "is_motor": true,
      "motor_id": 0,
      "accel_val": 2000,
      "base_duration_us": 187500
    },
    {
      "id": "M_2941",
      "pitch": 88,
      "t_note_us": 228000000,
      "t_trigger_us": 227864037,
      "is_ai": true,
      "track_id": 5,
      "velocity": 0,
      "is_motor": false,
      "motor_id": 0,
      "accel_val": 2000,
      "base_duration_us": 187500
    },
    {
      "id": "M_2942",
      "pitch": 69,
      "t_note_us": 228000000,
      "t_trigger_us": 227864037,
      "is_ai": false,
      "track_id": 0,
      "velocity": 0,
      "is_motor": true,
      "motor_id": 2,
      "accel_val": 2000,
      "base_duration_us": 187500
    },
    {
      "id": "M_2943",
      "pitch": 60,
      "t_note_us": 228000000,
      "t_trigger_us": 227864037,
      "is_ai": false,
      "track_id": 0,
      "velocity": 0,
      "is_motor": true,
      "motor_id": 0,
      "accel_val": 2000,
      "base_duration_us": 187500
    },
    {
      "id": "M_2944",
      "pitch": 65,
      "t_note_us": 228000000,
      "t_trigger_us": 227864037,
      "is_ai": false,
      "track_id": 0,
      "velocity": 0,
      "is_motor": true,
      "motor_id": 3,
      "accel_val": 2000,
      "base_duration_us": 187500
    },
    {
      "id": "M_2945",
      "pitch": 76,
      "t_note_us": 228187500,
      "t_trigger_us": 228051537,
      "is_ai": false,
      "track_id": 0,
      "velocity": 0,
      "is_motor": true,
      "motor_id": 2,
      "accel_val": 2000,
      "base_duration_us": 187500
    },
    {
      "id": "M_2946",
      "pitch": 67,
      "t_note_us": 228187500,
      "t_trigger_us": 228051537,
      "is_ai": false,
      "track_id": 0,
      "velocity": 0,
      "is_motor": true,
      "motor_id": 0,
      "accel_val": 2000,
      "base_duration_us": 187500
    },
    {
      "id": "M_2949",
      "pitch": 53,
      "t_note_us": 228187500,
      "t_trigger_us": 228051537,
      "is_ai": false,
      "track_id": 0,
      "velocity": 0,
      "is_motor": true,
      "motor_id": 3,
      "accel_val": 2000,
      "base_duration_us": 187500
    },
    {
      "id": "M_2951",
      "pitch": 88,
      "t_note_us": 228375000,
      "t_trigger_us": 228239037,
      "is_ai": true,
      "track_id": 5,
      "velocity": 0,
      "is_motor": false,
      "motor_id": 0,
      "accel_val": 2000,
      "base_duration_us": 375000
    },
    {
      "id": "M_2952",
      "pitch": 91,
      "t_note_us": 228375000,
      "t_trigger_us": 228239037,
      "is_ai": true,
      "track_id": 7,
      "velocity": 0,
      "is_motor": false,
      "motor_id": 0,
      "accel_val": 2000,
      "base_duration_us": 375000
    },
    {
      "id": "M_2958",
      "pitch": 84,
      "t_note_us": 228375000,
      "t_trigger_us": 228239037,
      "is_ai": true,
      "track_id": 3,
      "velocity": 0,
      "is_motor": false,
      "motor_id": 0,
      "accel_val": 2000,
      "base_duration_us": 750000
    },
    {
      "id": "M_2950",
      "pitch": 55,
      "t_note_us": 228375000,
      "t_trigger_us": 228239037,
      "is_ai": false,
      "track_id": 0,
      "velocity": 0,
      "is_motor": true,
      "motor_id": 0,
      "accel_val": 2000,
      "base_duration_us": 187500
    },
    {
      "id": "M_2957",
      "pitch": 69,
      "t_note_us": 228375000,
      "t_trigger_us": 228239037,
      "is_ai": false,
      "track_id": 0,
      "velocity": 0,
      "is_motor": true,
      "motor_id": 1,
      "accel_val": 2000,
      "base_duration_us": 750000
    },
    {
      "id": "M_2953",
      "pitch": 55,
      "t_note_us": 228562500,
      "t_trigger_us": 228426537,
      "is_ai": false,
      "track_id": 0,
      "velocity": 0,
      "is_motor": true,
      "motor_id": 0,
      "accel_val": 2000,
      "base_duration_us": 187500
    },
    {
      "id": "M_2956",
      "pitch": 93,
      "t_note_us": 228750000,
      "t_trigger_us": 228614037,
      "is_ai": true,
      "track_id": 8,
      "velocity": 0,
      "is_motor": false,
      "motor_id": 0,
      "accel_val": 2000,
      "base_duration_us": 375000
    },
    {
      "id": "M_2954",
      "pitch": 62,
      "t_note_us": 228750000,
      "t_trigger_us": 228614037,
      "is_ai": false,
      "track_id": 0,
      "velocity": 0,
      "is_motor": true,
      "motor_id": 0,
      "accel_val": 2000,
      "base_duration_us": 187500
    },
    {
      "id": "M_2955",
      "pitch": 67,
      "t_note_us": 228750000,
      "t_trigger_us": 228614037,
      "is_ai": false,
      "track_id": 0,
      "velocity": 0,
      "is_motor": true,
      "motor_id": 2,
      "accel_val": 2000,
      "base_duration_us": 187500
    },
    {
      "id": "M_2959",
      "pitch": 55,
      "t_note_us": 228937500,
      "t_trigger_us": 228801537,
      "is_ai": false,
      "track_id": 0,
      "velocity": 0,
      "is_motor": true,
      "motor_id": 0,
      "accel_val": 2000,
      "base_duration_us": 187500
    },
    {
      "id": "M_2961",
      "pitch": 88,
      "t_note_us": 229125000,
      "t_trigger_us": 228989037,
      "is_ai": true,
      "track_id": 5,
      "velocity": 0,
      "is_motor": false,
      "motor_id": 0,
      "accel_val": 2000,
      "base_duration_us": 375000
    },
    {
      "id": "M_2962",
      "pitch": 93,
      "t_note_us": 229125000,
      "t_trigger_us": 228989037,
      "is_ai": true,
      "track_id": 8,
      "velocity": 0,
      "is_motor": false,
      "motor_id": 0,
      "accel_val": 2000,
      "base_duration_us": 375000
    },
    {
      "id": "M_2960",
      "pitch": 55,
      "t_note_us": 229125000,
      "t_trigger_us": 228989037,
      "is_ai": false,
      "track_id": 0,
      "velocity": 0,
      "is_motor": true,
      "motor_id": 0,
      "accel_val": 2000,
      "base_duration_us": 187500
    },
    {
      "id": "M_2968",
      "pitch": 71,
      "t_note_us": 229125000,
      "t_trigger_us": 228989037,
      "is_ai": false,
      "track_id": 0,
      "velocity": 0,
      "is_motor": true,
      "motor_id": 1,
      "accel_val": 2000,
      "base_duration_us": 750000
    },
    {
      "id": "M_2963",
      "pitch": 55,
      "t_note_us": 229312500,
      "t_trigger_us": 229176537,
      "is_ai": false,
      "track_id": 0,
      "velocity": 0,
      "is_motor": true,
      "motor_id": 0,
      "accel_val": 2000,
      "base_duration_us": 187500
    },
    {
      "id": "M_2964",
      "pitch": 62,
      "t_note_us": 229500000,
      "t_trigger_us": 229364037,
      "is_ai": false,
      "track_id": 0,
      "velocity": 0,
      "is_motor": true,
      "motor_id": 0,
      "accel_val": 2000,
      "base_duration_us": 187500
    },
    {
      "id": "M_2965",
      "pitch": 67,
      "t_note_us": 229500000,
      "t_trigger_us": 229364037,
      "is_ai": false,
      "track_id": 0,
      "velocity": 0,
      "is_motor": true,
      "motor_id": 2,
      "accel_val": 2000,
      "base_duration_us": 187500
    },
    {
      "id": "M_2966",
      "pitch": 74,
      "t_note_us": 229687500,
      "t_trigger_us": 229551537,
      "is_ai": false,
      "track_id": 0,
      "velocity": 0,
      "is_motor": true,
      "motor_id": 0,
      "accel_val": 2000,
      "base_duration_us": 187500
    },
    {
      "id": "M_2967",
      "pitch": 67,
      "t_note_us": 229687500,
      "t_trigger_us": 229551537,
      "is_ai": false,
      "track_id": 0,
      "velocity": 0,
      "is_motor": true,
      "motor_id": 2,
      "accel_val": 2000,
      "base_duration_us": 187500
    },
    {
      "id": "M_2969",
      "pitch": 55,
      "t_note_us": 229687500,
      "t_trigger_us": 229551537,
      "is_ai": false,
      "track_id": 0,
      "velocity": 0,
      "is_motor": true,
      "motor_id": 3,
      "accel_val": 2000,
      "base_duration_us": 187500
    },
    {
      "id": "M_2970",
      "pitch": 88,
      "t_note_us": 229875000,
      "t_trigger_us": 229739037,
      "is_ai": true,
      "track_id": 5,
      "velocity": 0,
      "is_motor": false,
      "motor_id": 0,
      "accel_val": 2000,
      "base_duration_us": 187500
    },
    {
      "id": "M_2971",
      "pitch": 93,
      "t_note_us": 229875000,
      "t_trigger_us": 229739037,
      "is_ai": true,
      "track_id": 8,
      "velocity": 0,
      "is_motor": false,
      "motor_id": 0,
      "accel_val": 2000,
      "base_duration_us": 187500
    },
    {
      "id": "M_2972",
      "pitch": 57,
      "t_note_us": 229875000,
      "t_trigger_us": 229739037,
      "is_ai": false,
      "track_id": 0,
      "velocity": 0,
      "is_motor": true,
      "motor_id": 0,
      "accel_val": 2000,
      "base_duration_us": 187500
    },
    {
      "id": "M_2974",
      "pitch": 88,
      "t_note_us": 230062500,
      "t_trigger_us": 229926537,
      "is_ai": true,
      "track_id": 5,
      "velocity": 0,
      "is_motor": false,
      "motor_id": 0,
      "accel_val": 2000,
      "base_duration_us": 375000
    },
    {
      "id": "M_2975",
      "pitch": 93,
      "t_note_us": 230062500,
      "t_trigger_us": 229926537,
      "is_ai": true,
      "track_id": 8,
      "velocity": 0,
      "is_motor": false,
      "motor_id": 0,
      "accel_val": 2000,
      "base_duration_us": 375000
    },
    {
      "id": "M_2973",
      "pitch": 69,
      "t_note_us": 230062500,
      "t_trigger_us": 229926537,
      "is_ai": false,
      "track_id": 0,
      "velocity": 0,
      "is_motor": true,
      "motor_id": 1,
      "accel_val": 2000,
      "base_duration_us": 187500
    },
    {
      "id": "M_2976",
      "pitch": 57,
      "t_note_us": 230250000,
      "t_trigger_us": 230114037,
      "is_ai": false,
      "track_id": 0,
      "velocity": 0,
      "is_motor": true,
      "motor_id": 0,
      "accel_val": 2000,
      "base_duration_us": 187500
    },
    {
      "id": "M_2977",
      "pitch": 96,
      "t_note_us": 230437500,
      "t_trigger_us": 230301537,
      "is_ai": true,
      "track_id": 10,
      "velocity": 0,
      "is_motor": false,
      "motor_id": 0,
      "accel_val": 2000,
      "base_duration_us": 187500
    },
    {
      "id": "M_2978",
      "pitch": 69,
      "t_note_us": 230437500,
      "t_trigger_us": 230301537,
      "is_ai": false,
      "track_id": 0,
      "velocity": 0,
      "is_motor": true,
      "motor_id": 1,
      "accel_val": 2000,
      "base_duration_us": 187500
    },
    {
      "id": "M_2980",
      "pitch": 91,
      "t_note_us": 230625000,
      "t_trigger_us": 230489037,
      "is_ai": true,
      "track_id": 7,
      "velocity": 0,
      "is_motor": false,
      "motor_id": 0,
      "accel_val": 2000,
      "base_duration_us": 375000
    },
    {
      "id": "M_2981",
      "pitch": 96,
      "t_note_us": 230625000,
      "t_trigger_us": 230489037,
      "is_ai": true,
      "track_id": 10,
      "velocity": 0,
      "is_motor": false,
      "motor_id": 0,
      "accel_val": 2000,
      "base_duration_us": 375000
    },
    {
      "id": "M_2979",
      "pitch": 60,
      "t_note_us": 230625000,
      "t_trigger_us": 230489037,
      "is_ai": false,
      "track_id": 0,
      "velocity": 0,
      "is_motor": true,
      "motor_id": 1,
      "accel_val": 2000,
      "base_duration_us": 187500
    },
    {
      "id": "M_2982",
      "pitch": 72,
      "t_note_us": 230812500,
      "t_trigger_us": 230676537,
      "is_ai": false,
      "track_id": 0,
      "velocity": 0,
      "is_motor": true,
      "motor_id": 1,
      "accel_val": 2000,
      "base_duration_us": 187500
    },
    {
      "id": "M_2983",
      "pitch": 96,
      "t_note_us": 231000000,
      "t_trigger_us": 230864037,
      "is_ai": true,
      "track_id": 10,
      "velocity": 0,
      "is_motor": false,
      "motor_id": 0,
      "accel_val": 2000,
      "base_duration_us": 187500
    },
    {
      "id": "M_2984",
      "pitch": 60,
      "t_note_us": 231000000,
      "t_trigger_us": 230864037,
      "is_ai": false,
      "track_id": 0,
      "velocity": 0,
      "is_motor": true,
      "motor_id": 1,
      "accel_val": 2000,
      "base_duration_us": 187500
    },
    {
      "id": "M_2985",
      "pitch": 95,
      "t_note_us": 231187500,
      "t_trigger_us": 231051537,
      "is_ai": true,
      "track_id": 9,
      "velocity": 0,
      "is_motor": false,
      "motor_id": 0,
      "accel_val": 2000,
      "base_duration_us": 187500
    },
    {
      "id": "M_2986",
      "pitch": 100,
      "t_note_us": 231187500,
      "t_trigger_us": 231051537,
      "is_ai": true,
      "track_id": 12,
      "velocity": 0,
      "is_motor": false,
      "motor_id": 0,
      "accel_val": 2000,
      "base_duration_us": 187500
    },
    {
      "id": "M_2987",
      "pitch": 72,
      "t_note_us": 231187500,
      "t_trigger_us": 231051537,
      "is_ai": false,
      "track_id": 0,
      "velocity": 0,
      "is_motor": true,
      "motor_id": 1,
      "accel_val": 2000,
      "base_duration_us": 187500
    },
    {
      "id": "M_2990",
      "pitch": 91,
      "t_note_us": 231375000,
      "t_trigger_us": 231239037,
      "is_ai": true,
      "track_id": 7,
      "velocity": 0,
      "is_motor": false,
      "motor_id": 0,
      "accel_val": 2000,
      "base_duration_us": 562500
    },
    {
      "id": "M_2991",
      "pitch": 95,
      "t_note_us": 231375000,
      "t_trigger_us": 231239037,
      "is_ai": true,
      "track_id": 9,
      "velocity": 0,
      "is_motor": false,
      "motor_id": 0,
      "accel_val": 2000,
      "base_duration_us": 562500
    },
    {
      "id": "M_2992",
      "pitch": 100,
      "t_note_us": 231375000,
      "t_trigger_us": 231239037,
      "is_ai": true,
      "track_id": 12,
      "velocity": 0,
      "is_motor": false,
      "motor_id": 0,
      "accel_val": 2000,
      "base_duration_us": 562500
    },
    {
      "id": "M_2988",
      "pitch": 64,
      "t_note_us": 231375000,
      "t_trigger_us": 231239037,
      "is_ai": false,
      "track_id": 0,
      "velocity": 0,
      "is_motor": true,
      "motor_id": 1,
      "accel_val": 2000,
      "base_duration_us": 187500
    },
    {
      "id": "M_2989",
      "pitch": 76,
      "t_note_us": 231562500,
      "t_trigger_us": 231426537,
      "is_ai": false,
      "track_id": 0,
      "velocity": 0,
      "is_motor": true,
      "motor_id": 2,
      "accel_val": 2000,
      "base_duration_us": 187500
    },
    {
      "id": "M_2993",
      "pitch": 64,
      "t_note_us": 231750000,
      "t_trigger_us": 231614037,
      "is_ai": false,
      "track_id": 0,
      "velocity": 0,
      "is_motor": true,
      "motor_id": 1,
      "accel_val": 2000,
      "base_duration_us": 187500
    },
    {
      "id": "M_2994",
      "pitch": 99,
      "t_note_us": 231937500,
      "t_trigger_us": 231801537,
      "is_ai": true,
      "track_id": 0,
      "velocity": 0,
      "is_motor": true,
      "motor_id": 3,
      "accel_val": 2000,
      "base_duration_us": 187500
    },
    {
      "id": "M_2995",
      "pitch": 76,
      "t_note_us": 231937500,
      "t_trigger_us": 231801537,
      "is_ai": false,
      "track_id": 0,
      "velocity": 0,
      "is_motor": true,
      "motor_id": 2,
      "accel_val": 2000,
      "base_duration_us": 187500
    },
    {
      "id": "M_2996",
      "pitch": 93,
      "t_note_us": 232125000,
      "t_trigger_us": 231989037,
      "is_ai": true,
      "track_id": 8,
      "velocity": 0,
      "is_motor": false,
      "motor_id": 0,
      "accel_val": 2000,
      "base_duration_us": 750000
    },
    {
      "id": "M_2997",
      "pitch": 98,
      "t_note_us": 232125000,
      "t_trigger_us": 231989037,
      "is_ai": true,
      "track_id": 11,
      "velocity": 0,
      "is_motor": false,
      "motor_id": 0,
      "accel_val": 2000,
      "base_duration_us": 750000
    },
    {
      "id": "M_2998",
      "pitch": 103,
      "t_note_us": 232125000,
      "t_trigger_us": 231989037,
      "is_ai": true,
      "track_id": 14,
      "velocity": 0,
      "is_motor": false,
      "motor_id": 0,
      "accel_val": 2000,
      "base_duration_us": 750000
    },
    {
      "id": "M_2999",
      "pitch": 69,
      "t_note_us": 232125000,
      "t_trigger_us": 231989037,
      "is_ai": false,
      "track_id": 0,
      "velocity": 0,
      "is_motor": true,
      "motor_id": 1,
      "accel_val": 2000,
      "base_duration_us": 750000
    },
    {
      "id": "M_3000",
      "pitch": 75,
      "t_note_us": 232125000,
      "t_trigger_us": 231989037,
      "is_ai": false,
      "track_id": 0,
      "velocity": 0,
      "is_motor": true,
      "motor_id": 2,
      "accel_val": 2000,
      "base_duration_us": 750000
    },
    {
      "id": "M_3001",
      "pitch": 67,
      "t_note_us": 232125000,
      "t_trigger_us": 231989037,
      "is_ai": false,
      "track_id": 0,
      "velocity": 0,
      "is_motor": true,
      "motor_id": 0,
      "accel_val": 2000,
      "base_duration_us": 750000
    },
    {
      "id": "M_3002",
      "pitch": 91,
      "t_note_us": 233250000,
      "t_trigger_us": 233114037,
      "is_ai": true,
      "track_id": 7,
      "velocity": 0,
      "is_motor": false,
      "motor_id": 0,
      "accel_val": 2000,
      "base_duration_us": 375000
    },
    {
      "id": "M_3003",
      "pitch": 93,
      "t_note_us": 233625000,
      "t_trigger_us": 233489037,
      "is_ai": true,
      "track_id": 8,
      "velocity": 0,
      "is_motor": false,
      "motor_id": 0,
      "accel_val": 2000,
      "base_duration_us": 375000
    },
    {
      "id": "M_3004",
      "pitch": 96,
      "t_note_us": 234000000,
      "t_trigger_us": 233864037,
      "is_ai": true,
      "track_id": 10,
      "velocity": 0,
      "is_motor": false,
      "motor_id": 0,
      "accel_val": 2000,
      "base_duration_us": 375000
    },
    {
      "id": "M_3005",
      "pitch": 98,
      "t_note_us": 234375000,
      "t_trigger_us": 234239037,
      "is_ai": true,
      "track_id": 11,
      "velocity": 0,
      "is_motor": false,
      "motor_id": 0,
      "accel_val": 2000,
      "base_duration_us": 187500
    },
    {
      "id": "M_3006",
      "pitch": 96,
      "t_note_us": 234562500,
      "t_trigger_us": 234426537,
      "is_ai": true,
      "track_id": 10,
      "velocity": 0,
      "is_motor": false,
      "motor_id": 0,
      "accel_val": 2000,
      "base_duration_us": 187500
    },
    {
      "id": "M_3007",
      "pitch": 98,
      "t_note_us": 234750000,
      "t_trigger_us": 234614037,
      "is_ai": true,
      "track_id": 11,
      "velocity": 0,
      "is_motor": false,
      "motor_id": 0,
      "accel_val": 2000,
      "base_duration_us": 187500
    },
    {
      "id": "M_3008",
      "pitch": 75,
      "t_note_us": 234937500,
      "t_trigger_us": 234801537,
      "is_ai": false,
      "track_id": 0,
      "velocity": 0,
      "is_motor": true,
      "motor_id": 2,
      "accel_val": 2000,
      "base_duration_us": 187500
    },
    {
      "id": "M_3009",
      "pitch": 98,
      "t_note_us": 235125000,
      "t_trigger_us": 234989037,
      "is_ai": true,
      "track_id": 11,
      "velocity": 0,
      "is_motor": false,
      "motor_id": 0,
      "accel_val": 2000,
      "base_duration_us": 187500
    },
    {
      "id": "M_3010",
      "pitch": 96,
      "t_note_us": 235312500,
      "t_trigger_us": 235176537,
      "is_ai": true,
      "track_id": 10,
      "velocity": 0,
      "is_motor": false,
      "motor_id": 0,
      "accel_val": 2000,
      "base_duration_us": 187500
    },
    {
      "id": "M_3011",
      "pitch": 69,
      "t_note_us": 235500000,
      "t_trigger_us": 235364037,
      "is_ai": false,
      "track_id": 0,
      "velocity": 0,
      "is_motor": true,
      "motor_id": 1,
      "accel_val": 2000,
      "base_duration_us": 187500
    },
    {
      "id": "M_3012",
      "pitch": 67,
      "t_note_us": 235687500,
      "t_trigger_us": 235551537,
      "is_ai": false,
      "track_id": 0,
      "velocity": 0,
      "is_motor": true,
      "motor_id": 1,
      "accel_val": 2000,
      "base_duration_us": 187500
    },
    {
      "id": "M_3015",
      "pitch": 88,
      "t_note_us": 235875000,
      "t_trigger_us": 235739037,
      "is_ai": true,
      "track_id": 5,
      "velocity": 0,
      "is_motor": false,
      "motor_id": 0,
      "accel_val": 2000,
      "base_duration_us": 187500
    },
    {
      "id": "M_3016",
      "pitch": 93,
      "t_note_us": 235875000,
      "t_trigger_us": 235739037,
      "is_ai": true,
      "track_id": 8,
      "velocity": 0,
      "is_motor": false,
      "motor_id": 0,
      "accel_val": 2000,
      "base_duration_us": 187500
    },
    {
      "id": "M_3013",
      "pitch": 69,
      "t_note_us": 235875000,
      "t_trigger_us": 235739037,
      "is_ai": false,
      "track_id": 0,
      "velocity": 0,
      "is_motor": true,
      "motor_id": 1,
      "accel_val": 2000,
      "base_duration_us": 187500
    },
    {
      "id": "M_3014",
      "pitch": 72,
      "t_note_us": 235875000,
      "t_trigger_us": 235739037,
      "is_ai": false,
      "track_id": 0,
      "velocity": 0,
      "is_motor": true,
      "motor_id": 0,
      "accel_val": 2000,
      "base_duration_us": 187500
    },
    {
      "id": "M_3017",
      "pitch": 57,
      "t_note_us": 235875000,
      "t_trigger_us": 235739037,
      "is_ai": false,
      "track_id": 0,
      "velocity": 0,
      "is_motor": true,
      "motor_id": 2,
      "accel_val": 2000,
      "base_duration_us": 187500
    },
    {
      "id": "M_3018",
      "pitch": 69,
      "t_note_us": 235875000,
      "t_trigger_us": 235739037,
      "is_ai": false,
      "track_id": 0,
      "velocity": 0,
      "is_motor": true,
      "motor_id": 3,
      "accel_val": 2000,
      "base_duration_us": 187500
    },
    {
      "id": "M_3019",
      "pitch": 72,
      "t_note_us": 236062500,
      "t_trigger_us": 235926537,
      "is_ai": false,
      "track_id": 0,
      "velocity": 0,
      "is_motor": true,
      "motor_id": 1,
      "accel_val": 2000,
      "base_duration_us": 187500
    },
    {
      "id": "M_3020",
      "pitch": 76,
      "t_note_us": 236062500,
      "t_trigger_us": 235926537,
      "is_ai": false,
      "track_id": 0,
      "velocity": 0,
      "is_motor": true,
      "motor_id": 2,
      "accel_val": 2000,
      "base_duration_us": 187500
    },
    {
      "id": "M_3021",
      "pitch": 69,
      "t_note_us": 236062500,
      "t_trigger_us": 235926537,
      "is_ai": false,
      "track_id": 0,
      "velocity": 0,
      "is_motor": true,
      "motor_id": 0,
      "accel_val": 2000,
      "base_duration_us": 187500
    },
    {
      "id": "M_3022",
      "pitch": 57,
      "t_note_us": 236062500,
      "t_trigger_us": 235926537,
      "is_ai": false,
      "track_id": 0,
      "velocity": 0,
      "is_motor": true,
      "motor_id": 3,
      "accel_val": 2000,
      "base_duration_us": 187500
    },
    {
      "id": "M_3023",
      "pitch": 69,
      "t_note_us": 236062500,
      "t_trigger_us": 235926537,
      "is_ai": false,
      "track_id": 0,
      "velocity": 0,
      "is_motor": true,
      "motor_id": 0,
      "accel_val": 2000,
      "base_duration_us": 187500
    },
    {
      "id": "M_3024",
      "pitch": 72,
      "t_note_us": 236250000,
      "t_trigger_us": 236114037,
      "is_ai": false,
      "track_id": 0,
      "velocity": 0,
      "is_motor": true,
      "motor_id": 1,
      "accel_val": 2000,
      "base_duration_us": 187500
    },
    {
      "id": "M_3025",
      "pitch": 76,
      "t_note_us": 236250000,
      "t_trigger_us": 236114037,
      "is_ai": false,
      "track_id": 0,
      "velocity": 0,
      "is_motor": true,
      "motor_id": 2,
      "accel_val": 2000,
      "base_duration_us": 187500
    },
    {
      "id": "M_3026",
      "pitch": 69,
      "t_note_us": 236250000,
      "t_trigger_us": 236114037,
      "is_ai": false,
      "track_id": 0,
      "velocity": 0,
      "is_motor": true,
      "motor_id": 0,
      "accel_val": 2000,
      "base_duration_us": 187500
    },
    {
      "id": "M_3027",
      "pitch": 57,
      "t_note_us": 236250000,
      "t_trigger_us": 236114037,
      "is_ai": false,
      "track_id": 0,
      "velocity": 0,
      "is_motor": true,
      "motor_id": 3,
      "accel_val": 2000,
      "base_duration_us": 187500
    },
    {
      "id": "M_3028",
      "pitch": 69,
      "t_note_us": 236250000,
      "t_trigger_us": 236114037,
      "is_ai": false,
      "track_id": 0,
      "velocity": 0,
      "is_motor": true,
      "motor_id": 0,
      "accel_val": 2000,
      "base_duration_us": 187500
    },
    {
      "id": "M_3029",
      "pitch": 76,
      "t_note_us": 236625000,
      "t_trigger_us": 236489037,
      "is_ai": false,
      "track_id": 0,
      "velocity": 0,
      "is_motor": true,
      "motor_id": 2,
      "accel_val": 2000,
      "base_duration_us": 562500
    },
    {
      "id": "M_3030",
      "pitch": 67,
      "t_note_us": 236625000,
      "t_trigger_us": 236489037,
      "is_ai": false,
      "track_id": 0,
      "velocity": 0,
      "is_motor": true,
      "motor_id": 1,
      "accel_val": 2000,
      "base_duration_us": 562500
    },
    {
      "id": "M_3031",
      "pitch": 72,
      "t_note_us": 236625000,
      "t_trigger_us": 236489037,
      "is_ai": false,
      "track_id": 0,
      "velocity": 0,
      "is_motor": true,
      "motor_id": 0,
      "accel_val": 2000,
      "base_duration_us": 562500
    },
    {
      "id": "M_3032",
      "pitch": 60,
      "t_note_us": 236625000,
      "t_trigger_us": 236489037,
      "is_ai": false,
      "track_id": 0,
      "velocity": 0,
      "is_motor": true,
      "motor_id": 3,
      "accel_val": 2000,
      "base_duration_us": 562500
    },
    {
      "id": "M_3033",
      "pitch": 72,
      "t_note_us": 236625000,
      "t_trigger_us": 236489037,
      "is_ai": false,
      "track_id": 0,
      "velocity": 0,
      "is_motor": true,
      "motor_id": 0,
      "accel_val": 2000,
      "base_duration_us": 562500
    },
    {
      "id": "M_3034",
      "pitch": 72,
      "t_note_us": 237187500,
      "t_trigger_us": 237051537,
      "is_ai": false,
      "track_id": 0,
      "velocity": 0,
      "is_motor": true,
      "motor_id": 1,
      "accel_val": 2000,
      "base_duration_us": 187500
    },
    {
      "id": "M_3035",
      "pitch": 76,
      "t_note_us": 237187500,
      "t_trigger_us": 237051537,
      "is_ai": false,
      "track_id": 0,
      "velocity": 0,
      "is_motor": true,
      "motor_id": 2,
      "accel_val": 2000,
      "base_duration_us": 187500
    },
    {
      "id": "M_3036",
      "pitch": 69,
      "t_note_us": 237187500,
      "t_trigger_us": 237051537,
      "is_ai": false,
      "track_id": 0,
      "velocity": 0,
      "is_motor": true,
      "motor_id": 0,
      "accel_val": 2000,
      "base_duration_us": 187500
    },
    {
      "id": "M_3037",
      "pitch": 57,
      "t_note_us": 237187500,
      "t_trigger_us": 237051537,
      "is_ai": false,
      "track_id": 0,
      "velocity": 0,
      "is_motor": true,
      "motor_id": 3,
      "accel_val": 2000,
      "base_duration_us": 187500
    },
    {
      "id": "M_3038",
      "pitch": 69,
      "t_note_us": 237187500,
      "t_trigger_us": 237051537,
      "is_ai": false,
      "track_id": 0,
      "velocity": 0,
      "is_motor": true,
      "motor_id": 0,
      "accel_val": 2000,
      "base_duration_us": 187500
    },
    {
      "id": "M_3039",
      "pitch": 72,
      "t_note_us": 237562500,
      "t_trigger_us": 237426537,
      "is_ai": false,
      "track_id": 0,
      "velocity": 0,
      "is_motor": true,
      "motor_id": 1,
      "accel_val": 2000,
      "base_duration_us": 187500
    },
    {
      "id": "M_3040",
      "pitch": 76,
      "t_note_us": 237562500,
      "t_trigger_us": 237426537,
      "is_ai": false,
      "track_id": 0,
      "velocity": 0,
      "is_motor": true,
      "motor_id": 2,
      "accel_val": 2000,
      "base_duration_us": 187500
    },
    {
      "id": "M_3041",
      "pitch": 69,
      "t_note_us": 237562500,
      "t_trigger_us": 237426537,
      "is_ai": false,
      "track_id": 0,
      "velocity": 0,
      "is_motor": true,
      "motor_id": 0,
      "accel_val": 2000,
      "base_duration_us": 187500
    },
    {
      "id": "M_3042",
      "pitch": 57,
      "t_note_us": 237562500,
      "t_trigger_us": 237426537,
      "is_ai": false,
      "track_id": 0,
      "velocity": 0,
      "is_motor": true,
      "motor_id": 3,
      "accel_val": 2000,
      "base_duration_us": 187500
    },
    {
      "id": "M_3043",
      "pitch": 69,
      "t_note_us": 237562500,
      "t_trigger_us": 237426537,
      "is_ai": false,
      "track_id": 0,
      "velocity": 0,
      "is_motor": true,
      "motor_id": 0,
      "accel_val": 2000,
      "base_duration_us": 187500
    },
    {
      "id": "M_3044",
      "pitch": 72,
      "t_note_us": 237750000,
      "t_trigger_us": 237614037,
      "is_ai": false,
      "track_id": 0,
      "velocity": 0,
      "is_motor": true,
      "motor_id": 1,
      "accel_val": 2000,
      "base_duration_us": 187500
    },
    {
      "id": "M_3045",
      "pitch": 76,
      "t_note_us": 237750000,
      "t_trigger_us": 237614037,
      "is_ai": false,
      "track_id": 0,
      "velocity": 0,
      "is_motor": true,
      "motor_id": 2,
      "accel_val": 2000,
      "base_duration_us": 187500
    },
    {
      "id": "M_3046",
      "pitch": 69,
      "t_note_us": 237750000,
      "t_trigger_us": 237614037,
      "is_ai": false,
      "track_id": 0,
      "velocity": 0,
      "is_motor": true,
      "motor_id": 0,
      "accel_val": 2000,
      "base_duration_us": 187500
    },
    {
      "id": "M_3047",
      "pitch": 57,
      "t_note_us": 237750000,
      "t_trigger_us": 237614037,
      "is_ai": false,
      "track_id": 0,
      "velocity": 0,
      "is_motor": true,
      "motor_id": 3,
      "accel_val": 2000,
      "base_duration_us": 187500
    },
    {
      "id": "M_3048",
      "pitch": 69,
      "t_note_us": 237750000,
      "t_trigger_us": 237614037,
      "is_ai": false,
      "track_id": 0,
      "velocity": 0,
      "is_motor": true,
      "motor_id": 0,
      "accel_val": 2000,
      "base_duration_us": 187500
    },
    {
      "id": "M_3051",
      "pitch": 84,
      "t_note_us": 238125000,
      "t_trigger_us": 237989037,
      "is_ai": true,
      "track_id": 3,
      "velocity": 0,
      "is_motor": false,
      "motor_id": 0,
      "accel_val": 2000,
      "base_duration_us": 375000
    },
    {
      "id": "M_3049",
      "pitch": 76,
      "t_note_us": 238125000,
      "t_trigger_us": 237989037,
      "is_ai": false,
      "track_id": 0,
      "velocity": 0,
      "is_motor": true,
      "motor_id": 2,
      "accel_val": 2000,
      "base_duration_us": 375000
    },
    {
      "id": "M_3050",
      "pitch": 67,
      "t_note_us": 238125000,
      "t_trigger_us": 237989037,
      "is_ai": false,
      "track_id": 0,
      "velocity": 0,
      "is_motor": true,
      "motor_id": 1,
      "accel_val": 2000,
      "base_duration_us": 375000
    },
    {
      "id": "M_3052",
      "pitch": 60,
      "t_note_us": 238125000,
      "t_trigger_us": 237989037,
      "is_ai": false,
      "track_id": 0,
      "velocity": 0,
      "is_motor": true,
      "motor_id": 0,
      "accel_val": 2000,
      "base_duration_us": 375000
    },
    {
      "id": "M_3053",
      "pitch": 72,
      "t_note_us": 238125000,
      "t_trigger_us": 237989037,
      "is_ai": false,
      "track_id": 0,
      "velocity": 0,
      "is_motor": true,
      "motor_id": 3,
      "accel_val": 2000,
      "base_duration_us": 375000
    },
    {
      "id": "M_3054",
      "pitch": 93,
      "t_note_us": 238500000,
      "t_trigger_us": 238364037,
      "is_ai": true,
      "track_id": 8,
      "velocity": 0,
      "is_motor": false,
      "motor_id": 0,
      "accel_val": 2000,
      "base_duration_us": 375000
    },
    {
      "id": "M_3055",
      "pitch": 98,
      "t_note_us": 238500000,
      "t_trigger_us": 238364037,
      "is_ai": true,
      "track_id": 11,
      "velocity": 0,
      "is_motor": false,
      "motor_id": 0,
      "accel_val": 2000,
      "base_duration_us": 375000
    },
    {
      "id": "M_3056",
      "pitch": 93,
      "t_note_us": 238500000,
      "t_trigger_us": 238364037,
      "is_ai": true,
      "track_id": 8,
      "velocity": 0,
      "is_motor": false,
      "motor_id": 0,
      "accel_val": 2000,
      "base_duration_us": 375000
    },
    {
      "id": "M_3057",
      "pitch": 54,
      "t_note_us": 238500000,
      "t_trigger_us": 238364037,
      "is_ai": false,
      "track_id": 0,
      "velocity": 0,
      "is_motor": true,
      "motor_id": 0,
      "accel_val": 2000,
      "base_duration_us": 375000
    },
    {
      "id": "M_3058",
      "pitch": 66,
      "t_note_us": 238500000,
      "t_trigger_us": 238364037,
      "is_ai": false,
      "track_id": 0,
      "velocity": 0,
      "is_motor": true,
      "motor_id": 1,
      "accel_val": 2000,
      "base_duration_us": 375000
    },
    {
      "id": "M_3059",
      "pitch": 72,
      "t_note_us": 239062500,
      "t_trigger_us": 238926537,
      "is_ai": false,
      "track_id": 0,
      "velocity": 0,
      "is_motor": true,
      "motor_id": 1,
      "accel_val": 2000,
      "base_duration_us": 187500
    },
    {
      "id": "M_3060",
      "pitch": 76,
      "t_note_us": 239062500,
      "t_trigger_us": 238926537,
      "is_ai": false,
      "track_id": 0,
      "velocity": 0,
      "is_motor": true,
      "motor_id": 2,
      "accel_val": 2000,
      "base_duration_us": 187500
    },
    {
      "id": "M_3061",
      "pitch": 69,
      "t_note_us": 239062500,
      "t_trigger_us": 238926537,
      "is_ai": false,
      "track_id": 0,
      "velocity": 0,
      "is_motor": true,
      "motor_id": 0,
      "accel_val": 2000,
      "base_duration_us": 187500
    },
    {
      "id": "M_3062",
      "pitch": 57,
      "t_note_us": 239062500,
      "t_trigger_us": 238926537,
      "is_ai": false,
      "track_id": 0,
      "velocity": 0,
      "is_motor": true,
      "motor_id": 3,
      "accel_val": 2000,
      "base_duration_us": 187500
    },
    {
      "id": "M_3063",
      "pitch": 69,
      "t_note_us": 239062500,
      "t_trigger_us": 238926537,
      "is_ai": false,
      "track_id": 0,
      "velocity": 0,
      "is_motor": true,
      "motor_id": 0,
      "accel_val": 2000,
      "base_duration_us": 187500
    },
    {
      "id": "M_3064",
      "pitch": 72,
      "t_note_us": 239250000,
      "t_trigger_us": 239114037,
      "is_ai": false,
      "track_id": 0,
      "velocity": 0,
      "is_motor": true,
      "motor_id": 1,
      "accel_val": 2000,
      "base_duration_us": 187500
    },
    {
      "id": "M_3065",
      "pitch": 76,
      "t_note_us": 239250000,
      "t_trigger_us": 239114037,
      "is_ai": false,
      "track_id": 0,
      "velocity": 0,
      "is_motor": true,
      "motor_id": 2,
      "accel_val": 2000,
      "base_duration_us": 187500
    },
    {
      "id": "M_3066",
      "pitch": 69,
      "t_note_us": 239250000,
      "t_trigger_us": 239114037,
      "is_ai": false,
      "track_id": 0,
      "velocity": 0,
      "is_motor": true,
      "motor_id": 0,
      "accel_val": 2000,
      "base_duration_us": 187500
    },
    {
      "id": "M_3067",
      "pitch": 57,
      "t_note_us": 239250000,
      "t_trigger_us": 239114037,
      "is_ai": false,
      "track_id": 0,
      "velocity": 0,
      "is_motor": true,
      "motor_id": 3,
      "accel_val": 2000,
      "base_duration_us": 187500
    },
    {
      "id": "M_3068",
      "pitch": 69,
      "t_note_us": 239250000,
      "t_trigger_us": 239114037,
      "is_ai": false,
      "track_id": 0,
      "velocity": 0,
      "is_motor": true,
      "motor_id": 0,
      "accel_val": 2000,
      "base_duration_us": 187500
    },
    {
      "id": "M_3069",
      "pitch": 76,
      "t_note_us": 239625000,
      "t_trigger_us": 239489037,
      "is_ai": false,
      "track_id": 0,
      "velocity": 0,
      "is_motor": true,
      "motor_id": 2,
      "accel_val": 2000,
      "base_duration_us": 562500
    },
    {
      "id": "M_3070",
      "pitch": 67,
      "t_note_us": 239625000,
      "t_trigger_us": 239489037,
      "is_ai": false,
      "track_id": 0,
      "velocity": 0,
      "is_motor": true,
      "motor_id": 1,
      "accel_val": 2000,
      "base_duration_us": 562500
    },
    {
      "id": "M_3071",
      "pitch": 72,
      "t_note_us": 239625000,
      "t_trigger_us": 239489037,
      "is_ai": false,
      "track_id": 0,
      "velocity": 0,
      "is_motor": true,
      "motor_id": 0,
      "accel_val": 2000,
      "base_duration_us": 562500
    },
    {
      "id": "M_3072",
      "pitch": 60,
      "t_note_us": 239625000,
      "t_trigger_us": 239489037,
      "is_ai": false,
      "track_id": 0,
      "velocity": 0,
      "is_motor": true,
      "motor_id": 3,
      "accel_val": 2000,
      "base_duration_us": 562500
    },
    {
      "id": "M_3073",
      "pitch": 72,
      "t_note_us": 239625000,
      "t_trigger_us": 239489037,
      "is_ai": false,
      "track_id": 0,
      "velocity": 0,
      "is_motor": true,
      "motor_id": 0,
      "accel_val": 2000,
      "base_duration_us": 562500
    },
    {
      "id": "M_3074",
      "pitch": 72,
      "t_note_us": 240187500,
      "t_trigger_us": 240051537,
      "is_ai": false,
      "track_id": 0,
      "velocity": 0,
      "is_motor": true,
      "motor_id": 1,
      "accel_val": 2000,
      "base_duration_us": 187500
    },
    {
      "id": "M_3075",
      "pitch": 76,
      "t_note_us": 240187500,
      "t_trigger_us": 240051537,
      "is_ai": false,
      "track_id": 0,
      "velocity": 0,
      "is_motor": true,
      "motor_id": 2,
      "accel_val": 2000,
      "base_duration_us": 187500
    },
    {
      "id": "M_3076",
      "pitch": 69,
      "t_note_us": 240187500,
      "t_trigger_us": 240051537,
      "is_ai": false,
      "track_id": 0,
      "velocity": 0,
      "is_motor": true,
      "motor_id": 0,
      "accel_val": 2000,
      "base_duration_us": 187500
    },
    {
      "id": "M_3077",
      "pitch": 57,
      "t_note_us": 240187500,
      "t_trigger_us": 240051537,
      "is_ai": false,
      "track_id": 0,
      "velocity": 0,
      "is_motor": true,
      "motor_id": 3,
      "accel_val": 2000,
      "base_duration_us": 187500
    },
    {
      "id": "M_3078",
      "pitch": 69,
      "t_note_us": 240187500,
      "t_trigger_us": 240051537,
      "is_ai": false,
      "track_id": 0,
      "velocity": 0,
      "is_motor": true,
      "motor_id": 0,
      "accel_val": 2000,
      "base_duration_us": 187500
    },
    {
      "id": "M_3079",
      "pitch": 72,
      "t_note_us": 240562500,
      "t_trigger_us": 240426537,
      "is_ai": false,
      "track_id": 0,
      "velocity": 0,
      "is_motor": true,
      "motor_id": 1,
      "accel_val": 2000,
      "base_duration_us": 187500
    },
    {
      "id": "M_3080",
      "pitch": 76,
      "t_note_us": 240562500,
      "t_trigger_us": 240426537,
      "is_ai": false,
      "track_id": 0,
      "velocity": 0,
      "is_motor": true,
      "motor_id": 2,
      "accel_val": 2000,
      "base_duration_us": 187500
    },
    {
      "id": "M_3081",
      "pitch": 69,
      "t_note_us": 240562500,
      "t_trigger_us": 240426537,
      "is_ai": false,
      "track_id": 0,
      "velocity": 0,
      "is_motor": true,
      "motor_id": 0,
      "accel_val": 2000,
      "base_duration_us": 187500
    },
    {
      "id": "M_3082",
      "pitch": 57,
      "t_note_us": 240562500,
      "t_trigger_us": 240426537,
      "is_ai": false,
      "track_id": 0,
      "velocity": 0,
      "is_motor": true,
      "motor_id": 3,
      "accel_val": 2000,
      "base_duration_us": 187500
    },
    {
      "id": "M_3083",
      "pitch": 69,
      "t_note_us": 240562500,
      "t_trigger_us": 240426537,
      "is_ai": false,
      "track_id": 0,
      "velocity": 0,
      "is_motor": true,
      "motor_id": 0,
      "accel_val": 2000,
      "base_duration_us": 187500
    },
    {
      "id": "M_3084",
      "pitch": 72,
      "t_note_us": 240750000,
      "t_trigger_us": 240614037,
      "is_ai": false,
      "track_id": 0,
      "velocity": 0,
      "is_motor": true,
      "motor_id": 1,
      "accel_val": 2000,
      "base_duration_us": 187500
    },
    {
      "id": "M_3085",
      "pitch": 76,
      "t_note_us": 240750000,
      "t_trigger_us": 240614037,
      "is_ai": false,
      "track_id": 0,
      "velocity": 0,
      "is_motor": true,
      "motor_id": 2,
      "accel_val": 2000,
      "base_duration_us": 187500
    },
    {
      "id": "M_3086",
      "pitch": 69,
      "t_note_us": 240750000,
      "t_trigger_us": 240614037,
      "is_ai": false,
      "track_id": 0,
      "velocity": 0,
      "is_motor": true,
      "motor_id": 0,
      "accel_val": 2000,
      "base_duration_us": 187500
    },
    {
      "id": "M_3087",
      "pitch": 72,
      "t_note_us": 240750000,
      "t_trigger_us": 240614037,
      "is_ai": false,
      "track_id": 0,
      "velocity": 0,
      "is_motor": true,
      "motor_id": 3,
      "accel_val": 2000,
      "base_duration_us": 187500
    },
    {
      "id": "M_3088",
      "pitch": 57,
      "t_note_us": 240750000,
      "t_trigger_us": 240614037,
      "is_ai": false,
      "track_id": 0,
      "velocity": 0,
      "is_motor": true,
      "motor_id": 0,
      "accel_val": 2000,
      "base_duration_us": 187500
    },
    {
      "id": "M_3089",
      "pitch": 69,
      "t_note_us": 240750000,
      "t_trigger_us": 240614037,
      "is_ai": false,
      "track_id": 0,
      "velocity": 0,
      "is_motor": true,
      "motor_id": 0,
      "accel_val": 2000,
      "base_duration_us": 187500
    },
    {
      "id": "M_3090",
      "pitch": 72,
      "t_note_us": 241125000,
      "t_trigger_us": 240989037,
      "is_ai": false,
      "track_id": 0,
      "velocity": 0,
      "is_motor": true,
      "motor_id": 1,
      "accel_val": 2000,
      "base_duration_us": 187500
    },
    {
      "id": "M_3091",
      "pitch": 76,
      "t_note_us": 241125000,
      "t_trigger_us": 240989037,
      "is_ai": false,
      "track_id": 0,
      "velocity": 0,
      "is_motor": true,
      "motor_id": 2,
      "accel_val": 2000,
      "base_duration_us": 187500
    },
    {
      "id": "M_3092",
      "pitch": 60,
      "t_note_us": 241125000,
      "t_trigger_us": 240989037,
      "is_ai": false,
      "track_id": 0,
      "velocity": 0,
      "is_motor": true,
      "motor_id": 0,
      "accel_val": 2000,
      "base_duration_us": 187500
    },
    {
      "id": "M_3093",
      "pitch": 72,
      "t_note_us": 241125000,
      "t_trigger_us": 240989037,
      "is_ai": false,
      "track_id": 0,
      "velocity": 0,
      "is_motor": true,
      "motor_id": 3,
      "accel_val": 2000,
      "base_duration_us": 187500
    },
    {
      "id": "M_3094",
      "pitch": 69,
      "t_note_us": 241125000,
      "t_trigger_us": 240989037,
      "is_ai": false,
      "track_id": 0,
      "velocity": 0,
      "is_motor": true,
      "motor_id": 0,
      "accel_val": 2000,
      "base_duration_us": 375000
    },
    {
      "id": "M_3096",
      "pitch": 74,
      "t_note_us": 241312500,
      "t_trigger_us": 241176537,
      "is_ai": false,
      "track_id": 0,
      "velocity": 0,
      "is_motor": true,
      "motor_id": 1,
      "accel_val": 2000,
      "base_duration_us": 562500
    },
    {
      "id": "M_3097",
      "pitch": 78,
      "t_note_us": 241312500,
      "t_trigger_us": 241176537,
      "is_ai": false,
      "track_id": 0,
      "velocity": 0,
      "is_motor": true,
      "motor_id": 2,
      "accel_val": 2000,
      "base_duration_us": 562500
    },
    {
      "id": "M_3098",
      "pitch": 62,
      "t_note_us": 241312500,
      "t_trigger_us": 241176537,
      "is_ai": false,
      "track_id": 0,
      "velocity": 0,
      "is_motor": true,
      "motor_id": 0,
      "accel_val": 2000,
      "base_duration_us": 562500
    },
    {
      "id": "M_3099",
      "pitch": 74,
      "t_note_us": 241312500,
      "t_trigger_us": 241176537,
      "is_ai": false,
      "track_id": 0,
      "velocity": 0,
      "is_motor": true,
      "motor_id": 3,
      "accel_val": 2000,
      "base_duration_us": 562500
    },
    {
      "id": "M_3095",
      "pitch": 88,
      "t_note_us": 241500000,
      "t_trigger_us": 241364037,
      "is_ai": true,
      "track_id": 5,
      "velocity": 0,
      "is_motor": false,
      "motor_id": 0,
      "accel_val": 2000,
      "base_duration_us": 375000
    },
    {
      "id": "M_3100",
      "pitch": 72,
      "t_note_us": 241875000,
      "t_trigger_us": 241739037,
      "is_ai": false,
      "track_id": 0,
      "velocity": 0,
      "is_motor": true,
      "motor_id": 1,
      "accel_val": 2000,
      "base_duration_us": 187500
    },
    {
      "id": "M_3101",
      "pitch": 76,
      "t_note_us": 241875000,
      "t_trigger_us": 241739037,
      "is_ai": false,
      "track_id": 0,
      "velocity": 0,
      "is_motor": true,
      "motor_id": 2,
      "accel_val": 2000,
      "base_duration_us": 187500
    },
    {
      "id": "M_3102",
      "pitch": 69,
      "t_note_us": 241875000,
      "t_trigger_us": 241739037,
      "is_ai": false,
      "track_id": 0,
      "velocity": 0,
      "is_motor": true,
      "motor_id": 0,
      "accel_val": 2000,
      "base_duration_us": 187500
    },
    {
      "id": "M_3103",
      "pitch": 57,
      "t_note_us": 241875000,
      "t_trigger_us": 241739037,
      "is_ai": false,
      "track_id": 0,
      "velocity": 0,
      "is_motor": true,
      "motor_id": 3,
      "accel_val": 2000,
      "base_duration_us": 187500
    },
    {
      "id": "M_3104",
      "pitch": 69,
      "t_note_us": 241875000,
      "t_trigger_us": 241739037,
      "is_ai": false,
      "track_id": 0,
      "velocity": 0,
      "is_motor": true,
      "motor_id": 0,
      "accel_val": 2000,
      "base_duration_us": 187500
    },
    {
      "id": "M_3105",
      "pitch": 72,
      "t_note_us": 242062500,
      "t_trigger_us": 241926537,
      "is_ai": false,
      "track_id": 0,
      "velocity": 0,
      "is_motor": true,
      "motor_id": 1,
      "accel_val": 2000,
      "base_duration_us": 187500
    },
    {
      "id": "M_3106",
      "pitch": 76,
      "t_note_us": 242062500,
      "t_trigger_us": 241926537,
      "is_ai": false,
      "track_id": 0,
      "velocity": 0,
      "is_motor": true,
      "motor_id": 2,
      "accel_val": 2000,
      "base_duration_us": 187500
    },
    {
      "id": "M_3107",
      "pitch": 69,
      "t_note_us": 242062500,
      "t_trigger_us": 241926537,
      "is_ai": false,
      "track_id": 0,
      "velocity": 0,
      "is_motor": true,
      "motor_id": 0,
      "accel_val": 2000,
      "base_duration_us": 187500
    },
    {
      "id": "M_3108",
      "pitch": 57,
      "t_note_us": 242062500,
      "t_trigger_us": 241926537,
      "is_ai": false,
      "track_id": 0,
      "velocity": 0,
      "is_motor": true,
      "motor_id": 3,
      "accel_val": 2000,
      "base_duration_us": 187500
    },
    {
      "id": "M_3109",
      "pitch": 69,
      "t_note_us": 242062500,
      "t_trigger_us": 241926537,
      "is_ai": false,
      "track_id": 0,
      "velocity": 0,
      "is_motor": true,
      "motor_id": 0,
      "accel_val": 2000,
      "base_duration_us": 187500
    },
    {
      "id": "M_3110",
      "pitch": 72,
      "t_note_us": 242250000,
      "t_trigger_us": 242114037,
      "is_ai": false,
      "track_id": 0,
      "velocity": 0,
      "is_motor": true,
      "motor_id": 1,
      "accel_val": 2000,
      "base_duration_us": 187500
    },
    {
      "id": "M_3111",
      "pitch": 76,
      "t_note_us": 242250000,
      "t_trigger_us": 242114037,
      "is_ai": false,
      "track_id": 0,
      "velocity": 0,
      "is_motor": true,
      "motor_id": 2,
      "accel_val": 2000,
      "base_duration_us": 187500
    },
    {
      "id": "M_3112",
      "pitch": 69,
      "t_note_us": 242250000,
      "t_trigger_us": 242114037,
      "is_ai": false,
      "track_id": 0,
      "velocity": 0,
      "is_motor": true,
      "motor_id": 0,
      "accel_val": 2000,
      "base_duration_us": 187500
    },
    {
      "id": "M_3113",
      "pitch": 57,
      "t_note_us": 242250000,
      "t_trigger_us": 242114037,
      "is_ai": false,
      "track_id": 0,
      "velocity": 0,
      "is_motor": true,
      "motor_id": 3,
      "accel_val": 2000,
      "base_duration_us": 187500
    },
    {
      "id": "M_3114",
      "pitch": 69,
      "t_note_us": 242250000,
      "t_trigger_us": 242114037,
      "is_ai": false,
      "track_id": 0,
      "velocity": 0,
      "is_motor": true,
      "motor_id": 0,
      "accel_val": 2000,
      "base_duration_us": 187500
    },
    {
      "id": "M_3115",
      "pitch": 76,
      "t_note_us": 242625000,
      "t_trigger_us": 242489037,
      "is_ai": false,
      "track_id": 0,
      "velocity": 0,
      "is_motor": true,
      "motor_id": 2,
      "accel_val": 2000,
      "base_duration_us": 562500
    },
    {
      "id": "M_3116",
      "pitch": 67,
      "t_note_us": 242625000,
      "t_trigger_us": 242489037,
      "is_ai": false,
      "track_id": 0,
      "velocity": 0,
      "is_motor": true,
      "motor_id": 1,
      "accel_val": 2000,
      "base_duration_us": 562500
    },
    {
      "id": "M_3117",
      "pitch": 72,
      "t_note_us": 242625000,
      "t_trigger_us": 242489037,
      "is_ai": false,
      "track_id": 0,
      "velocity": 0,
      "is_motor": true,
      "motor_id": 0,
      "accel_val": 2000,
      "base_duration_us": 562500
    },
    {
      "id": "M_3118",
      "pitch": 60,
      "t_note_us": 242625000,
      "t_trigger_us": 242489037,
      "is_ai": false,
      "track_id": 0,
      "velocity": 0,
      "is_motor": true,
      "motor_id": 3,
      "accel_val": 2000,
      "base_duration_us": 562500
    },
    {
      "id": "M_3119",
      "pitch": 72,
      "t_note_us": 242625000,
      "t_trigger_us": 242489037,
      "is_ai": false,
      "track_id": 0,
      "velocity": 0,
      "is_motor": true,
      "motor_id": 0,
      "accel_val": 2000,
      "base_duration_us": 562500
    },
    {
      "id": "M_3120",
      "pitch": 72,
      "t_note_us": 243187500,
      "t_trigger_us": 243051537,
      "is_ai": false,
      "track_id": 0,
      "velocity": 0,
      "is_motor": true,
      "motor_id": 1,
      "accel_val": 2000,
      "base_duration_us": 187500
    },
    {
      "id": "M_3121",
      "pitch": 76,
      "t_note_us": 243187500,
      "t_trigger_us": 243051537,
      "is_ai": false,
      "track_id": 0,
      "velocity": 0,
      "is_motor": true,
      "motor_id": 2,
      "accel_val": 2000,
      "base_duration_us": 187500
    },
    {
      "id": "M_3122",
      "pitch": 69,
      "t_note_us": 243187500,
      "t_trigger_us": 243051537,
      "is_ai": false,
      "track_id": 0,
      "velocity": 0,
      "is_motor": true,
      "motor_id": 0,
      "accel_val": 2000,
      "base_duration_us": 187500
    },
    {
      "id": "M_3123",
      "pitch": 57,
      "t_note_us": 243187500,
      "t_trigger_us": 243051537,
      "is_ai": false,
      "track_id": 0,
      "velocity": 0,
      "is_motor": true,
      "motor_id": 3,
      "accel_val": 2000,
      "base_duration_us": 187500
    },
    {
      "id": "M_3124",
      "pitch": 69,
      "t_note_us": 243187500,
      "t_trigger_us": 243051537,
      "is_ai": false,
      "track_id": 0,
      "velocity": 0,
      "is_motor": true,
      "motor_id": 0,
      "accel_val": 2000,
      "base_duration_us": 187500
    },
    {
      "id": "M_3125",
      "pitch": 72,
      "t_note_us": 243562500,
      "t_trigger_us": 243426537,
      "is_ai": false,
      "track_id": 0,
      "velocity": 0,
      "is_motor": true,
      "motor_id": 1,
      "accel_val": 2000,
      "base_duration_us": 187500
    },
    {
      "id": "M_3126",
      "pitch": 76,
      "t_note_us": 243562500,
      "t_trigger_us": 243426537,
      "is_ai": false,
      "track_id": 0,
      "velocity": 0,
      "is_motor": true,
      "motor_id": 2,
      "accel_val": 2000,
      "base_duration_us": 187500
    },
    {
      "id": "M_3127",
      "pitch": 69,
      "t_note_us": 243562500,
      "t_trigger_us": 243426537,
      "is_ai": false,
      "track_id": 0,
      "velocity": 0,
      "is_motor": true,
      "motor_id": 0,
      "accel_val": 2000,
      "base_duration_us": 187500
    },
    {
      "id": "M_3128",
      "pitch": 57,
      "t_note_us": 243562500,
      "t_trigger_us": 243426537,
      "is_ai": false,
      "track_id": 0,
      "velocity": 0,
      "is_motor": true,
      "motor_id": 3,
      "accel_val": 2000,
      "base_duration_us": 187500
    },
    {
      "id": "M_3129",
      "pitch": 69,
      "t_note_us": 243562500,
      "t_trigger_us": 243426537,
      "is_ai": false,
      "track_id": 0,
      "velocity": 0,
      "is_motor": true,
      "motor_id": 0,
      "accel_val": 2000,
      "base_duration_us": 187500
    },
    {
      "id": "M_3130",
      "pitch": 72,
      "t_note_us": 243750000,
      "t_trigger_us": 243614037,
      "is_ai": false,
      "track_id": 0,
      "velocity": 0,
      "is_motor": true,
      "motor_id": 1,
      "accel_val": 2000,
      "base_duration_us": 187500
    },
    {
      "id": "M_3131",
      "pitch": 76,
      "t_note_us": 243750000,
      "t_trigger_us": 243614037,
      "is_ai": false,
      "track_id": 0,
      "velocity": 0,
      "is_motor": true,
      "motor_id": 2,
      "accel_val": 2000,
      "base_duration_us": 187500
    },
    {
      "id": "M_3132",
      "pitch": 69,
      "t_note_us": 243750000,
      "t_trigger_us": 243614037,
      "is_ai": false,
      "track_id": 0,
      "velocity": 0,
      "is_motor": true,
      "motor_id": 0,
      "accel_val": 2000,
      "base_duration_us": 187500
    },
    {
      "id": "M_3133",
      "pitch": 57,
      "t_note_us": 243750000,
      "t_trigger_us": 243614037,
      "is_ai": false,
      "track_id": 0,
      "velocity": 0,
      "is_motor": true,
      "motor_id": 3,
      "accel_val": 2000,
      "base_duration_us": 187500
    },
    {
      "id": "M_3134",
      "pitch": 69,
      "t_note_us": 243750000,
      "t_trigger_us": 243614037,
      "is_ai": false,
      "track_id": 0,
      "velocity": 0,
      "is_motor": true,
      "motor_id": 0,
      "accel_val": 2000,
      "base_duration_us": 187500
    },
    {
      "id": "M_3135",
      "pitch": 76,
      "t_note_us": 244125000,
      "t_trigger_us": 243989037,
      "is_ai": false,
      "track_id": 0,
      "velocity": 0,
      "is_motor": true,
      "motor_id": 2,
      "accel_val": 2000,
      "base_duration_us": 375000
    },
    {
      "id": "M_3136",
      "pitch": 67,
      "t_note_us": 244125000,
      "t_trigger_us": 243989037,
      "is_ai": false,
      "track_id": 0,
      "velocity": 0,
      "is_motor": true,
      "motor_id": 1,
      "accel_val": 2000,
      "base_duration_us": 375000
    },
    {
      "id": "M_3137",
      "pitch": 72,
      "t_note_us": 244125000,
      "t_trigger_us": 243989037,
      "is_ai": false,
      "track_id": 0,
      "velocity": 0,
      "is_motor": true,
      "motor_id": 0,
      "accel_val": 2000,
      "base_duration_us": 375000
    },
    {
      "id": "M_3138",
      "pitch": 60,
      "t_note_us": 244125000,
      "t_trigger_us": 243989037,
      "is_ai": false,
      "track_id": 0,
      "velocity": 0,
      "is_motor": true,
      "motor_id": 3,
      "accel_val": 2000,
      "base_duration_us": 375000
    },
    {
      "id": "M_3139",
      "pitch": 72,
      "t_note_us": 244125000,
      "t_trigger_us": 243989037,
      "is_ai": false,
      "track_id": 0,
      "velocity": 0,
      "is_motor": true,
      "motor_id": 0,
      "accel_val": 2000,
      "base_duration_us": 375000
    },
    {
      "id": "M_3161",
      "pitch": 74,
      "t_note_us": 244500000,
      "t_trigger_us": 244364037,
      "is_ai": false,
      "track_id": 0,
      "velocity": 0,
      "is_motor": true,
      "motor_id": 1,
      "accel_val": 2000,
      "base_duration_us": 1875000
    },
    {
      "id": "M_3162",
      "pitch": 78,
      "t_note_us": 244500000,
      "t_trigger_us": 244364037,
      "is_ai": false,
      "track_id": 0,
      "velocity": 0,
      "is_motor": true,
      "motor_id": 2,
      "accel_val": 2000,
      "base_duration_us": 1875000
    },
    {
      "id": "M_3163",
      "pitch": 74,
      "t_note_us": 244500000,
      "t_trigger_us": 244364037,
      "is_ai": false,
      "track_id": 0,
      "velocity": 0,
      "is_motor": true,
      "motor_id": 0,
      "accel_val": 2000,
      "base_duration_us": 1875000
    },
    {
      "id": "M_3164",
      "pitch": 54,
      "t_note_us": 244500000,
      "t_trigger_us": 244364037,
      "is_ai": false,
      "track_id": 0,
      "velocity": 0,
      "is_motor": true,
      "motor_id": 3,
      "accel_val": 2000,
      "base_duration_us": 1875000
    },
    {
      "id": "M_3165",
      "pitch": 66,
      "t_note_us": 244500000,
      "t_trigger_us": 244364037,
      "is_ai": false,
      "track_id": 0,
      "velocity": 0,
      "is_motor": true,
      "motor_id": 0,
      "accel_val": 2000,
      "base_duration_us": 1875000
    },
    {
      "id": "M_3140",
      "pitch": 93,
      "t_note_us": 244875000,
      "t_trigger_us": 244739037,
      "is_ai": true,
      "track_id": 8,
      "velocity": 0,
      "is_motor": false,
      "motor_id": 0,
      "accel_val": 2000,
      "base_duration_us": 93750
    },
    {
      "id": "M_3141",
      "pitch": 98,
      "t_note_us": 244875000,
      "t_trigger_us": 244739037,
      "is_ai": true,
      "track_id": 11,
      "velocity": 0,
      "is_motor": false,
      "motor_id": 0,
      "accel_val": 2000,
      "base_duration_us": 93750
    },
    {
      "id": "M_3160",
      "pitch": 93,
      "t_note_us": 244875000,
      "t_trigger_us": 244739037,
      "is_ai": true,
      "track_id": 8,
      "velocity": 0,
      "is_motor": false,
      "motor_id": 0,
      "accel_val": 2000,
      "base_duration_us": 1500000
    },
    {
      "id": "M_3142",
      "pitch": 92,
      "t_note_us": 244968750,
      "t_trigger_us": 244832787,
      "is_ai": true,
      "track_id": 0,
      "velocity": 0,
      "is_motor": true,
      "motor_id": 0,
      "accel_val": 2000,
      "base_duration_us": 93750
    },
    {
      "id": "M_3143",
      "pitch": 93,
      "t_note_us": 245062500,
      "t_trigger_us": 244926537,
      "is_ai": true,
      "track_id": 8,
      "velocity": 0,
      "is_motor": false,
      "motor_id": 0,
      "accel_val": 2000,
      "base_duration_us": 93750
    },
    {
      "id": "M_3144",
      "pitch": 98,
      "t_note_us": 245062500,
      "t_trigger_us": 244926537,
      "is_ai": true,
      "track_id": 11,
      "velocity": 0,
      "is_motor": false,
      "motor_id": 0,
      "accel_val": 2000,
      "base_duration_us": 93750
    },
    {
      "id": "M_3145",
      "pitch": 92,
      "t_note_us": 245156250,
      "t_trigger_us": 245020287,
      "is_ai": true,
      "track_id": 0,
      "velocity": 0,
      "is_motor": true,
      "motor_id": 0,
      "accel_val": 2000,
      "base_duration_us": 93750
    },
    {
      "id": "M_3146",
      "pitch": 93,
      "t_note_us": 245250000,
      "t_trigger_us": 245114037,
      "is_ai": true,
      "track_id": 8,
      "velocity": 0,
      "is_motor": false,
      "motor_id": 0,
      "accel_val": 2000,
      "base_duration_us": 93750
    },
    {
      "id": "M_3147",
      "pitch": 98,
      "t_note_us": 245250000,
      "t_trigger_us": 245114037,
      "is_ai": true,
      "track_id": 11,
      "velocity": 0,
      "is_motor": false,
      "motor_id": 0,
      "accel_val": 2000,
      "base_duration_us": 93750
    },
    {
      "id": "M_3148",
      "pitch": 92,
      "t_note_us": 245343750,
      "t_trigger_us": 245207787,
      "is_ai": true,
      "track_id": 0,
      "velocity": 0,
      "is_motor": true,
      "motor_id": 0,
      "accel_val": 2000,
      "base_duration_us": 93750
    },
    {
      "id": "M_3149",
      "pitch": 93,
      "t_note_us": 245437500,
      "t_trigger_us": 245301537,
      "is_ai": true,
      "track_id": 8,
      "velocity": 0,
      "is_motor": false,
      "motor_id": 0,
      "accel_val": 2000,
      "base_duration_us": 93750
    },
    {
      "id": "M_3150",
      "pitch": 98,
      "t_note_us": 245437500,
      "t_trigger_us": 245301537,
      "is_ai": true,
      "track_id": 11,
      "velocity": 0,
      "is_motor": false,
      "motor_id": 0,
      "accel_val": 2000,
      "base_duration_us": 93750
    },
    {
      "id": "M_3151",
      "pitch": 92,
      "t_note_us": 245531250,
      "t_trigger_us": 245395287,
      "is_ai": true,
      "track_id": 0,
      "velocity": 0,
      "is_motor": true,
      "motor_id": 0,
      "accel_val": 2000,
      "base_duration_us": 93750
    },
    {
      "id": "M_3152",
      "pitch": 93,
      "t_note_us": 245625000,
      "t_trigger_us": 245489037,
      "is_ai": true,
      "track_id": 8,
      "velocity": 0,
      "is_motor": false,
      "motor_id": 0,
      "accel_val": 2000,
      "base_duration_us": 93750
    },
    {
      "id": "M_3153",
      "pitch": 98,
      "t_note_us": 245625000,
      "t_trigger_us": 245489037,
      "is_ai": true,
      "track_id": 11,
      "velocity": 0,
      "is_motor": false,
      "motor_id": 0,
      "accel_val": 2000,
      "base_duration_us": 93750
    },
    {
      "id": "M_3154",
      "pitch": 92,
      "t_note_us": 245718750,
      "t_trigger_us": 245582787,
      "is_ai": true,
      "track_id": 0,
      "velocity": 0,
      "is_motor": true,
      "motor_id": 0,
      "accel_val": 2000,
      "base_duration_us": 93750
    },
    {
      "id": "M_3155",
      "pitch": 93,
      "t_note_us": 245812500,
      "t_trigger_us": 245676537,
      "is_ai": true,
      "track_id": 8,
      "velocity": 0,
      "is_motor": false,
      "motor_id": 0,
      "accel_val": 2000,
      "base_duration_us": 93750
    },
    {
      "id": "M_3156",
      "pitch": 98,
      "t_note_us": 245812500,
      "t_trigger_us": 245676537,
      "is_ai": true,
      "track_id": 11,
      "velocity": 0,
      "is_motor": false,
      "motor_id": 0,
      "accel_val": 2000,
      "base_duration_us": 93750
    },
    {
      "id": "M_3157",
      "pitch": 92,
      "t_note_us": 245906250,
      "t_trigger_us": 245770287,
      "is_ai": true,
      "track_id": 0,
      "velocity": 0,
      "is_motor": true,
      "motor_id": 0,
      "accel_val": 2000,
      "base_duration_us": 93750
    },
    {
      "id": "M_3158",
      "pitch": 93,
      "t_note_us": 246000000,
      "t_trigger_us": 245864037,
      "is_ai": true,
      "track_id": 8,
      "velocity": 0,
      "is_motor": false,
      "motor_id": 0,
      "accel_val": 2000,
      "base_duration_us": 375000
    },
    {
      "id": "M_3159",
      "pitch": 98,
      "t_note_us": 246000000,
      "t_trigger_us": 245864037,
      "is_ai": true,
      "track_id": 11,
      "velocity": 0,
      "is_motor": false,
      "motor_id": 0,
      "accel_val": 2000,
      "base_duration_us": 375000
    },
    {
      "id": "M_3168",
      "pitch": 85,
      "t_note_us": 246375000,
      "t_trigger_us": 246239037,
      "is_ai": true,
      "track_id": 0,
      "velocity": 0,
      "is_motor": true,
      "motor_id": 3,
      "accel_val": 2000,
      "base_duration_us": 750000
    },
    {
      "id": "M_3169",
      "pitch": 88,
      "t_note_us": 246375000,
      "t_trigger_us": 246239037,
      "is_ai": true,
      "track_id": 5,
      "velocity": 0,
      "is_motor": false,
      "motor_id": 0,
      "accel_val": 2000,
      "base_duration_us": 750000
    },
    {
      "id": "M_3166",
      "pitch": 76,
      "t_note_us": 246375000,
      "t_trigger_us": 246239037,
      "is_ai": false,
      "track_id": 0,
      "velocity": 0,
      "is_motor": true,
      "motor_id": 2,
      "accel_val": 2000,
      "base_duration_us": 750000
    },
    {
      "id": "M_3167",
      "pitch": 69,
      "t_note_us": 246375000,
      "t_trigger_us": 246239037,
      "is_ai": false,
      "track_id": 0,
      "velocity": 0,
      "is_motor": true,
      "motor_id": 1,
      "accel_val": 2000,
      "base_duration_us": 750000
    },
    {
      "id": "M_3192",
      "pitch": 57,
      "t_note_us": 246375000,
      "t_trigger_us": 246239037,
      "is_ai": false,
      "track_id": 0,
      "velocity": 0,
      "is_motor": true,
      "motor_id": 0,
      "accel_val": 2000,
      "base_duration_us": 5999997
    },
    {
      "id": "M_3193",
      "pitch": 64,
      "t_note_us": 246375000,
      "t_trigger_us": 246239037,
      "is_ai": false,
      "track_id": 0,
      "velocity": 0,
      "is_motor": true,
      "motor_id": 0,
      "accel_val": 2000,
      "base_duration_us": 5999997
    },
    {
      "id": "M_3194",
      "pitch": 69,
      "t_note_us": 246375000,
      "t_trigger_us": 246239037,
      "is_ai": false,
      "track_id": 0,
      "velocity": 0,
      "is_motor": true,
      "motor_id": 0,
      "accel_val": 2000,
      "base_duration_us": 5999997
    },
    {
      "id": "M_3170",
      "pitch": 91,
      "t_note_us": 247062500,
      "t_trigger_us": 246926537,
      "is_ai": true,
      "track_id": 7,
      "velocity": 0,
      "is_motor": false,
      "motor_id": 0,
      "accel_val": 2000,
      "base_duration_us": 93750
    },
    {
      "id": "M_3171",
      "pitch": 93,
      "t_note_us": 247125000,
      "t_trigger_us": 246989037,
      "is_ai": true,
      "track_id": 8,
      "velocity": 0,
      "is_motor": false,
      "motor_id": 0,
      "accel_val": 2000,
      "base_duration_us": 282226
    },
    {
      "id": "M_3172",
      "pitch": 96,
      "t_note_us": 247375976,
      "t_trigger_us": 247240013,
      "is_ai": true,
      "track_id": 10,
      "velocity": 0,
      "is_motor": false,
      "motor_id": 0,
      "accel_val": 2000,
      "base_duration_us": 281250
    },
    {
      "id": "M_3173",
      "pitch": 99,
      "t_note_us": 247875976,
      "t_trigger_us": 247740013,
      "is_ai": true,
      "track_id": 0,
      "velocity": 0,
      "is_motor": true,
      "motor_id": 3,
      "accel_val": 2000,
      "base_duration_us": 187500
    },
    {
      "id": "M_3174",
      "pitch": 98,
      "t_note_us": 248063476,
      "t_trigger_us": 247927513,
      "is_ai": true,
      "track_id": 11,
      "velocity": 0,
      "is_motor": false,
      "motor_id": 0,
      "accel_val": 2000,
      "base_duration_us": 93750
    },
    {
      "id": "M_3175",
      "pitch": 96,
      "t_note_us": 248188476,
      "t_trigger_us": 248052513,
      "is_ai": true,
      "track_id": 10,
      "velocity": 0,
      "is_motor": false,
      "motor_id": 0,
      "accel_val": 2000,
      "base_duration_us": 93750
    },
    {
      "id": "M_3176",
      "pitch": 95,
      "t_note_us": 248314452,
      "t_trigger_us": 248178489,
      "is_ai": true,
      "track_id": 9,
      "velocity": 0,
      "is_motor": false,
      "motor_id": 0,
      "accel_val": 2000,
      "base_duration_us": 93750
    },
    {
      "id": "M_3177",
      "pitch": 93,
      "t_note_us": 248439452,
      "t_trigger_us": 248303489,
      "is_ai": true,
      "track_id": 8,
      "velocity": 0,
      "is_motor": false,
      "motor_id": 0,
      "accel_val": 2000,
      "base_duration_us": 93750
    },
    {
      "id": "M_3178",
      "pitch": 96,
      "t_note_us": 248564452,
      "t_trigger_us": 248428489,
      "is_ai": true,
      "track_id": 10,
      "velocity": 0,
      "is_motor": false,
      "motor_id": 0,
      "accel_val": 2000,
      "base_duration_us": 843750
    },
    {
      "id": "M_3179",
      "pitch": 69,
      "t_note_us": 249376952,
      "t_trigger_us": 249240989,
      "is_ai": false,
      "track_id": 0,
      "velocity": 0,
      "is_motor": true,
      "motor_id": 1,
      "accel_val": 2000,
      "base_duration_us": 187500
    },
    {
      "id": "M_3180",
      "pitch": 67,
      "t_note_us": 249564452,
      "t_trigger_us": 249428489,
      "is_ai": false,
      "track_id": 0,
      "velocity": 0,
      "is_motor": true,
      "motor_id": 1,
      "accel_val": 2000,
      "base_duration_us": 93750
    },
    {
      "id": "M_3181",
      "pitch": 76,
      "t_note_us": 249689452,
      "t_trigger_us": 249553489,
      "is_ai": false,
      "track_id": 0,
      "velocity": 0,
      "is_motor": true,
      "motor_id": 2,
      "accel_val": 2000,
      "base_duration_us": 93750
    },
    {
      "id": "M_3182",
      "pitch": 74,
      "t_note_us": 249815428,
      "t_trigger_us": 249679465,
      "is_ai": false,
      "track_id": 0,
      "velocity": 0,
      "is_motor": true,
      "motor_id": 1,
      "accel_val": 2000,
      "base_duration_us": 93750
    },
    {
      "id": "M_3183",
      "pitch": 72,
      "t_note_us": 249940428,
      "t_trigger_us": 249804465,
      "is_ai": false,
      "track_id": 0,
      "velocity": 0,
      "is_motor": true,
      "motor_id": 1,
      "accel_val": 2000,
      "base_duration_us": 93750
    },
    {
      "id": "M_3184",
      "pitch": 74,
      "t_note_us": 250065428,
      "t_trigger_us": 249929465,
      "is_ai": false,
      "track_id": 0,
      "velocity": 0,
      "is_motor": true,
      "motor_id": 1,
      "accel_val": 2000,
      "base_duration_us": 281250
    },
    {
      "id": "M_3185",
      "pitch": 67,
      "t_note_us": 250315428,
      "t_trigger_us": 250179465,
      "is_ai": false,
      "track_id": 0,
      "velocity": 0,
      "is_motor": true,
      "motor_id": 2,
      "accel_val": 2000,
      "base_duration_us": 93750
    },
    {
      "id": "M_3186",
      "pitch": 76,
      "t_note_us": 250440428,
      "t_trigger_us": 250304465,
      "is_ai": false,
      "track_id": 0,
      "velocity": 0,
      "is_motor": true,
      "motor_id": 2,
      "accel_val": 2000,
      "base_duration_us": 93750
    },
    {
      "id": "M_3187",
      "pitch": 74,
      "t_note_us": 250566404,
      "t_trigger_us": 250430441,
      "is_ai": false,
      "track_id": 0,
      "velocity": 0,
      "is_motor": true,
      "motor_id": 1,
      "accel_val": 2000,
      "base_duration_us": 93750
    },
    {
      "id": "M_3188",
      "pitch": 69,
      "t_note_us": 250691404,
      "t_trigger_us": 250555441,
      "is_ai": false,
      "track_id": 0,
      "velocity": 0,
      "is_motor": true,
      "motor_id": 1,
      "accel_val": 2000,
      "base_duration_us": 93750
    },
    {
      "id": "M_3189",
      "pitch": 74,
      "t_note_us": 250785154,
      "t_trigger_us": 250649191,
      "is_ai": false,
      "track_id": 0,
      "velocity": 0,
      "is_motor": true,
      "motor_id": 1,
      "accel_val": 2000,
      "base_duration_us": 93750
    },
    {
      "id": "M_3190",
      "pitch": 69,
      "t_note_us": 250878904,
      "t_trigger_us": 250742941,
      "is_ai": false,
      "track_id": 0,
      "velocity": 0,
      "is_motor": true,
      "motor_id": 1,
      "accel_val": 2000,
      "base_duration_us": 187500
    },
    {
      "id": "M_3191",
      "pitch": 72,
      "t_note_us": 251066404,
      "t_trigger_us": 250930441,
      "is_ai": false,
      "track_id": 0,
      "velocity": 0,
      "is_motor": true,
      "motor_id": 1,
      "accel_val": 2000,
      "base_duration_us": 375000
    },
    {
      "id": "M_3195",
      "pitch": 69,
      "t_note_us": 251441404,
      "t_trigger_us": 251305441,
      "is_ai": false,
      "track_id": 0,
      "velocity": 0,
      "is_motor": true,
      "motor_id": 1,
      "accel_val": 2000,
      "base_duration_us": 937499
    },
    {
      "id": "M_3199",
      "pitch": 57,
      "t_note_us": 252374997,
      "t_trigger_us": 252239034,
      "is_ai": false,
      "track_id": 0,
      "velocity": 0,
      "is_motor": true,
      "motor_id": 0,
      "accel_val": 2000,
      "base_duration_us": 1124999
    },
    {
      "id": "M_3200",
      "pitch": 64,
      "t_note_us": 252374997,
      "t_trigger_us": 252239034,
      "is_ai": false,
      "track_id": 0,
      "velocity": 0,
      "is_motor": true,
      "motor_id": 2,
      "accel_val": 2000,
      "base_duration_us": 1124999
    },
    {
      "id": "M_3201",
      "pitch": 69,
      "t_note_us": 252374997,
      "t_trigger_us": 252239034,
      "is_ai": false,
      "track_id": 0,
      "velocity": 0,
      "is_motor": true,
      "motor_id": 3,
      "accel_val": 2000,
      "base_duration_us": 1124999
    },
    {
      "id": "M_3196",
      "pitch": 76,
      "t_note_us": 252378903,
      "t_trigger_us": 252242940,
      "is_ai": false,
      "track_id": 0,
      "velocity": 0,
      "is_motor": true,
      "motor_id": 1,
      "accel_val": 2000,
      "base_duration_us": 562500
    },
    {
      "id": "M_3197",
      "pitch": 68,
      "t_note_us": 252378903,
      "t_trigger_us": 252242940,
      "is_ai": false,
      "track_id": 0,
      "velocity": 0,
      "is_motor": true,
      "motor_id": 0,
      "accel_val": 2000,
      "base_duration_us": 562500
    },
    {
      "id": "M_3198",
      "pitch": 72,
      "t_note_us": 252378903,
      "t_trigger_us": 252242940,
      "is_ai": false,
      "track_id": 0,
      "velocity": 0,
      "is_motor": true,
      "motor_id": 0,
      "accel_val": 2000,
      "base_duration_us": 562500
    },
    {
      "id": "M_3202",
      "pitch": 98,
      "t_note_us": 252941403,
      "t_trigger_us": 252805440,
      "is_ai": true,
      "track_id": 11,
      "velocity": 0,
      "is_motor": false,
      "motor_id": 0,
      "accel_val": 2000,
      "base_duration_us": 562499
    },
    {
      "id": "M_3203",
      "pitch": 99,
      "t_note_us": 252941403,
      "t_trigger_us": 252805440,
      "is_ai": true,
      "track_id": 0,
      "velocity": 0,
      "is_motor": true,
      "motor_id": 1,
      "accel_val": 2000,
      "base_duration_us": 562499
    },
    {
      "id": "M_3204",
      "pitch": 96,
      "t_note_us": 252941403,
      "t_trigger_us": 252805440,
      "is_ai": true,
      "track_id": 10,
      "velocity": 0,
      "is_motor": false,
      "motor_id": 0,
      "accel_val": 2000,
      "base_duration_us": 562499
    }
  ]
}