{
  "config": {
    "mode_idx": 0,
    "active_motors": [
      0,
      1,
      2,
      3
    ],
    "transpose": 0,
    "arp_speed_ms": 10,
    "gate_time": 100
  },
  "sustain_multiplier": 1.0,
  "notes": [
    {
      "id": "M_0",
      "pitch": 81,
      "t_note_us": 1384614,
      "t_trigger_us": 1248651,
      "is_ai": true,
      "track_id": 1,
      "velocity": 0,
      "is_motor": false,
      "motor_id": 0,
      "accel_val": 2000,
      "base_duration_us": 230769
    },
    {
      "id": "M_1",
      "pitch": 84,
      "t_note_us": 1615383,
      "t_trigger_us": 1479420,
      "is_ai": true,
      "track_id": 3,
      "velocity": 0,
      "is_motor": false,
      "motor_id": 0,
      "accel_val": 2000,
      "base_duration_us": 230769
    },
    {
      "id": "M_2",
      "pitch": 86,
      "t_note_us": 1846152,
      "t_trigger_us": 1710189,
      "is_ai": true,
      "track_id": 4,
      "velocity": 0,
      "is_motor": false,
      "motor_id": 0,
      "accel_val": 2000,
      "base_duration_us": 346153
    },
    {
      "id": "M_5",
      "pitch": 70,
      "t_note_us": 1846152,
      "t_trigger_us": 1710189,
      "is_ai": false,
      "track_id": 0,
      "velocity": 0,
      "is_motor": true,
      "motor_id": 1,
      "accel_val": 2000,
      "base_duration_us": 923075
    },
    {
      "id": "M_6",
      "pitch": 77,
      "t_note_us": 1846152,
      "t_trigger_us": 1710189,
      "is_ai": false,
      "track_id": 0,
      "velocity": 0,
      "is_motor": true,
      "motor_id": 2,
      "accel_val": 2000,
      "base_duration_us": 923075
    },
    {
      "id": "M_3",
      "pitch": 82,
      "t_note_us": 2192305,
      "t_trigger_us": 2056342,
      "is_ai": true,
      "track_id": 0,
      "velocity": 0,
      "is_motor": true,
      "motor_id": 3,
      "accel_val": 2000,
      "base_duration_us": 346153
    },
    {
      "id": "M_4",
      "pitch": 69,
      "t_note_us": 2538458,
      "t_trigger_us": 2402495,
      "is_ai": false,
      "track_id": 0,
      "velocity": 0,
      "is_motor": true,
      "motor_id": 0,
      "accel_val": 2000,
      "base_duration_us": 230769
    },
    {
      "id": "M_7",
      "pitch": 79,
      "t_note_us": 2769227,
      "t_trigger_us": 2633264,
      "is_ai": true,
      "track_id": 0,
      "velocity": 0,
      "is_motor": false,
      "motor_id": 0,
      "accel_val": 2000,
      "base_duration_us": 230769
    },
    {
      "id": "M_11",
      "pitch": 72,
      "t_note_us": 2769227,
      "t_trigger_us": 2633264,
      "is_ai": false,
      "track_id": 0,
      "velocity": 0,
      "is_motor": true,
      "motor_id": 1,
      "accel_val": 2000,
      "base_duration_us": 923076
    },
    {
      "id": "M_8",
      "pitch": 77,
      "t_note_us": 2999996,
      "t_trigger_us": 2864033,
      "is_ai": false,
      "track_id": 0,
      "velocity": 0,
      "is_motor": true,
      "motor_id": 2,
      "accel_val": 2000,
      "base_duration_us": 230769
    },
    {
      "id": "M_9",
      "pitch": 67,
      "t_note_us": 3230765,
      "t_trigger_us": 3094802,
      "is_ai": false,
      "track_id": 0,
      "velocity": 0,
      "is_motor": true,
      "motor_id": 2,
      "accel_val": 2000,
      "base_duration_us": 230769
    },
    {
      "id": "M_10",
      "pitch": 86,
      "t_note_us": 3461534,
      "t_trigger_us": 3325571,
      "is_ai": true,
      "track_id": 4,
      "velocity": 0,
      "is_motor": false,
      "motor_id": 0,
      "accel_val": 2000,
      "base_duration_us": 230769
    },
    {
      "id": "M_12",
      "pitch": 84,
      "t_note_us": 3692303,
      "t_trigger_us": 3556340,
      "is_ai": true,
      "track_id": 3,
      "velocity": 0,
      "is_motor": false,
      "motor_id": 0,
      "accel_val": 2000,
      "base_duration_us": 230769
    },
    {
      "id": "M_16",
      "pitch": 76,
      "t_note_us": 3692303,
      "t_trigger_us": 3556340,
      "is_ai": false,
      "track_id": 0,
      "velocity": 0,
      "is_motor": true,
      "motor_id": 2,
      "accel_val": 2000,
      "base_duration_us": 923075
    },
    {
      "id": "M_17",
      "pitch": 69,
      "t_note_us": 3692303,
      "t_trigger_us": 3556340,
      "is_ai": false,
      "track_id": 0,
      "velocity": 0,
      "is_motor": true,
      "motor_id": 1,
      "accel_val": 2000,
      "base_duration_us": 923075
    },
    {
      "id": "M_13",
      "pitch": 86,
      "t_note_us": 3923072,
      "t_trigger_us": 3787109,
      "is_ai": true,
      "track_id": 4,
      "velocity": 0,
      "is_motor": false,
      "motor_id": 0,
      "accel_val": 2000,
      "base_duration_us": 115384
    },
    {
      "id": "M_14",
      "pitch": 81,
      "t_note_us": 4038456,
      "t_trigger_us": 3902493,
      "is_ai": true,
      "track_id": 1,
      "velocity": 0,
      "is_motor": false,
      "motor_id": 0,
      "accel_val": 2000,
      "base_duration_us": 346153
    },
    {
      "id": "M_15",
      "pitch": 67,
      "t_note_us": 4384609,
      "t_trigger_us": 4248646,
      "is_ai": false,
      "track_id": 0,
      "velocity": 0,
      "is_motor": true,
      "motor_id": 0,
      "accel_val": 2000,
      "base_duration_us": 230769
    },
    {
      "id": "M_18",
      "pitch": 77,
      "t_note_us": 4615378,
      "t_trigger_us": 4479415,
      "is_ai": false,
      "track_id": 0,
      "velocity": 0,
      "is_motor": true,
      "motor_id": 2,
      "accel_val": 2000,
      "base_duration_us": 461538
    },
    {
      "id": "M_19",
      "pitch": 74,
      "t_note_us": 4615378,
      "t_trigger_us": 4479415,
      "is_ai": false,
      "track_id": 0,
      "velocity": 0,
      "is_motor": true,
      "motor_id": 1,
      "accel_val": 2000,
      "base_duration_us": 461538
    },
    {
      "id": "M_22",
      "pitch": 69,
      "t_note_us": 4615378,
      "t_trigger_us": 4479415,
      "is_ai": false,
      "track_id": 0,
      "velocity": 0,
      "is_motor": true,
      "motor_id": 0,
      "accel_val": 2000,
      "base_duration_us": 923076
    },
    {
      "id": "M_21",
      "pitch": 74,
      "t_note_us": 5076916,
      "t_trigger_us": 4940953,
      "is_ai": false,
      "track_id": 0,
      "velocity": 0,
      "is_motor": true,
      "motor_id": 1,
      "accel_val": 2000,
      "base_duration_us": 461538
    },
    {
      "id": "M_20",
      "pitch": 77,
      "t_note_us": 5307685,
      "t_trigger_us": 5171722,
      "is_ai": false,
      "track_id": 0,
      "velocity": 0,
      "is_motor": true,
      "motor_id": 2,
      "accel_val": 2000,
      "base_duration_us": 230769
    },
    {
      "id": "M_23",
      "pitch": 67,
      "t_note_us": 5538454,
      "t_trigger_us": 5402491,
      "is_ai": false,
      "track_id": 0,
      "velocity": 0,
      "is_motor": true,
      "motor_id": 1,
      "accel_val": 2000,
      "base_duration_us": 346153
    },
    {
      "id": "M_26",
      "pitch": 65,
      "t_note_us": 5538454,
      "t_trigger_us": 5402491,
      "is_ai": false,
      "track_id": 0,
      "velocity": 0,
      "is_motor": true,
      "motor_id": 0,
      "accel_val": 2000,
      "base_duration_us": 923075
    },
    {
      "id": "M_27",
      "pitch": 70,
      "t_note_us": 5538454,
      "t_trigger_us": 5402491,
      "is_ai": false,
      "track_id": 0,
      "velocity": 0,
      "is_motor": true,
      "motor_id": 2,
      "accel_val": 2000,
      "base_duration_us": 923075
    },
    {
      "id": "M_28",
      "pitch": 74,
      "t_note_us": 5538454,
      "t_trigger_us": 5402491,
      "is_ai": false,
      "track_id": 0,
      "velocity": 0,
      "is_motor": true,
      "motor_id": 3,
      "accel_val": 2000,
      "base_duration_us": 923075
    },
    {
      "id": "M_24",
      "pitch": 76,
      "t_note_us": 5884607,
      "t_trigger_us": 5748644,
      "is_ai": false,
      "track_id": 0,
      "velocity": 0,
      "is_motor": true,
      "motor_id": 1,
      "accel_val": 2000,
      "base_duration_us": 346153
    },
    {
      "id": "M_25",
      "pitch": 82,
      "t_note_us": 6230760,
      "t_trigger_us": 6094797,
      "is_ai": true,
      "track_id": 0,
      "velocity": 0,
      "is_motor": true,
      "motor_id": 1,
      "accel_val": 2000,
      "base_duration_us": 230769
    },
    {
      "id": "M_29",
      "pitch": 81,
      "t_note_us": 6461529,
      "t_trigger_us": 6325566,
      "is_ai": true,
      "track_id": 1,
      "velocity": 0,
      "is_motor": false,
      "motor_id": 0,
      "accel_val": 2000,
      "base_duration_us": 230769
    },
    {
      "id": "M_36",
      "pitch": 69,
      "t_note_us": 6461529,
      "t_trigger_us": 6325566,
      "is_ai": false,
      "track_id": 0,
      "velocity": 0,
      "is_motor": true,
      "motor_id": 1,
      "accel_val": 2000,
      "base_duration_us": 923076
    },
    {
      "id": "M_37",
      "pitch": 73,
      "t_note_us": 6461529,
      "t_trigger_us": 6325566,
      "is_ai": false,
      "track_id": 0,
      "velocity": 0,
      "is_motor": true,
      "motor_id": 0,
      "accel_val": 2000,
      "base_duration_us": 923076
    },
    {
      "id": "M_38",
      "pitch": 64,
      "t_note_us": 6461529,
      "t_trigger_us": 6325566,
      "is_ai": false,
      "track_id": 0,
      "velocity": 0,
      "is_motor": true,
      "motor_id": 2,
      "accel_val": 2000,
      "base_duration_us": 923076
    },
    {
      "id": "M_30",
      "pitch": 93,
      "t_note_us": 6692298,
      "t_trigger_us": 6556335,
      "is_ai": true,
      "track_id": 8,
      "velocity": 0,
      "is_motor": false,
      "motor_id": 0,
      "accel_val": 2000,
      "base_duration_us": 230769
    },
    {
      "id": "M_31",
      "pitch": 69,
      "t_note_us": 6692298,
      "t_trigger_us": 6556335,
      "is_ai": false,
      "track_id": 0,
      "velocity": 0,
      "is_motor": true,
      "motor_id": 3,
      "accel_val": 2000,
      "base_duration_us": 230769
    },
    {
      "id": "M_32",
      "pitch": 91,
      "t_note_us": 6923067,
      "t_trigger_us": 6787104,
      "is_ai": true,
      "track_id": 7,
      "velocity": 0,
      "is_motor": false,
      "motor_id": 0,
      "accel_val": 2000,
      "base_duration_us": 230769
    },
    {
      "id": "M_33",
      "pitch": 67,
      "t_note_us": 6923067,
      "t_trigger_us": 6787104,
      "is_ai": false,
      "track_id": 0,
      "velocity": 0,
      "is_motor": true,
      "motor_id": 3,
      "accel_val": 2000,
      "base_duration_us": 230769
    },
    {
      "id": "M_35",
      "pitch": 88,
      "t_note_us": 7153836,
      "t_trigger_us": 7017873,
      "is_ai": true,
      "track_id": 5,
      "velocity": 0,
      "is_motor": false,
      "motor_id": 0,
      "accel_val": 2000,
      "base_duration_us": 230769
    },
    {
      "id": "M_34",
      "pitch": 76,
      "t_note_us": 7153836,
      "t_trigger_us": 7017873,
      "is_ai": false,
      "track_id": 0,
      "velocity": 0,
      "is_motor": true,
      "motor_id": 3,
      "accel_val": 2000,
      "base_duration_us": 230769
    },
    {
      "id": "M_39",
      "pitch": 89,
      "t_note_us": 7384605,
      "t_trigger_us": 7248642,
      "is_ai": true,
      "track_id": 6,
      "velocity": 0,
      "is_motor": false,
      "motor_id": 0,
      "accel_val": 2000,
      "base_duration_us": 346153
    },
    {
      "id": "M_40",
      "pitch": 77,
      "t_note_us": 7384605,
      "t_trigger_us": 7248642,
      "is_ai": false,
      "track_id": 0,
      "velocity": 0,
      "is_motor": true,
      "motor_id": 2,
      "accel_val": 2000,
      "base_duration_us": 346153
    },
    {
      "id": "M_45",
      "pitch": 62,
      "t_note_us": 7384605,
      "t_trigger_us": 7248642,
      "is_ai": false,
      "track_id": 0,
      "velocity": 0,
      "is_motor": true,
      "motor_id": 1,
      "accel_val": 2000,
      "base_duration_us": 923075
    },
    {
      "id": "M_46",
      "pitch": 69,
      "t_note_us": 7384605,
      "t_trigger_us": 7248642,
      "is_ai": false,
      "track_id": 0,
      "velocity": 0,
      "is_motor": true,
      "motor_id": 0,
      "accel_val": 2000,
      "base_duration_us": 923075
    },
    {
      "id": "M_47",
      "pitch": 65,
      "t_note_us": 7384605,
      "t_trigger_us": 7248642,
      "is_ai": false,
      "track_id": 0,
      "velocity": 0,
      "is_motor": true,
      "motor_id": 3,
      "accel_val": 2000,
      "base_duration_us": 923075
    },
    {
      "id": "M_42",
      "pitch": 88,
      "t_note_us": 7730758,
      "t_trigger_us": 7594795,
      "is_ai": true,
      "track_id": 5,
      "velocity": 0,
      "is_motor": false,
      "motor_id": 0,
      "accel_val": 2000,
      "base_duration_us": 346153
    },
    {
      "id": "M_41",
      "pitch": 76,
      "t_note_us": 7730758,
      "t_trigger_us": 7594795,
      "is_ai": false,
      "track_id": 0,
      "velocity": 0,
      "is_motor": true,
      "motor_id": 2,
      "accel_val": 2000,
      "base_duration_us": 346153
    },
    {
      "id": "M_44",
      "pitch": 84,
      "t_note_us": 8076911,
      "t_trigger_us": 7940948,
      "is_ai": true,
      "track_id": 3,
      "velocity": 0,
      "is_motor": false,
      "motor_id": 0,
      "accel_val": 2000,
      "base_duration_us": 230769
    },
    {
      "id": "M_43",
      "pitch": 72,
      "t_note_us": 8076911,
      "t_trigger_us": 7940948,
      "is_ai": false,
      "track_id": 0,
      "velocity": 0,
      "is_motor": true,
      "motor_id": 2,
      "accel_val": 2000,
      "base_duration_us": 230769
    },
    {
      "id": "M_48",
      "pitch": 86,
      "t_note_us": 8307680,
      "t_trigger_us": 8171717,
      "is_ai": true,
      "track_id": 4,
      "velocity": 0,
      "is_motor": false,
      "motor_id": 0,
      "accel_val": 2000,
      "base_duration_us": 230769
    },
    {
      "id": "M_49",
      "pitch": 74,
      "t_note_us": 8307680,
      "t_trigger_us": 8171717,
      "is_ai": false,
      "track_id": 0,
      "velocity": 0,
      "is_motor": true,
      "motor_id": 1,
      "accel_val": 2000,
      "base_duration_us": 230769
    },
    {
      "id": "M_51",
      "pitch": 60,
      "t_note_us": 8307680,
      "t_trigger_us": 8171717,
      "is_ai": false,
      "track_id": 0,
      "velocity": 0,
      "is_motor": true,
      "motor_id": 0,
      "accel_val": 2000,
      "base_duration_us": 461538
    },
    {
      "id": "M_52",
      "pitch": 67,
      "t_note_us": 8307680,
      "t_trigger_us": 8171717,
      "is_ai": false,
      "track_id": 0,
      "velocity": 0,
      "is_motor": true,
      "motor_id": 2,
      "accel_val": 2000,
      "base_duration_us": 461538
    },
    {
      "id": "M_53",
      "pitch": 70,
      "t_note_us": 8307680,
      "t_trigger_us": 8171717,
      "is_ai": false,
      "track_id": 0,
      "velocity": 0,
      "is_motor": true,
      "motor_id": 3,
      "accel_val": 2000,
      "base_duration_us": 461538
    },
    {
      "id": "M_50",
      "pitch": 84,
      "t_note_us": 8538449,
      "t_trigger_us": 8402486,
      "is_ai": true,
      "track_id": 3,
      "velocity": 0,
      "is_motor": false,
      "motor_id": 0,
      "accel_val": 2000,
      "base_duration_us": 230769
    },
    {
      "id": "M_54",
      "pitch": 69,
      "t_note_us": 8769218,
      "t_trigger_us": 8633255,
      "is_ai": false,
      "track_id": 0,
      "velocity": 0,
      "is_motor": true,
      "motor_id": 1,
      "accel_val": 2000,
      "base_duration_us": 230769
    },
    {
      "id": "M_56",
      "pitch": 65,
      "t_note_us": 8769218,
      "t_trigger_us": 8633255,
      "is_ai": false,
      "track_id": 0,
      "velocity": 0,
      "is_motor": true,
      "motor_id": 0,
      "accel_val": 2000,
      "base_duration_us": 461538
    },
    {
      "id": "M_57",
      "pitch": 69,
      "t_note_us": 8769218,
      "t_trigger_us": 8633255,
      "is_ai": false,
      "track_id": 0,
      "velocity": 0,
      "is_motor": true,
      "motor_id": 2,
      "accel_val": 2000,
      "base_duration_us": 461538
    },
    {
      "id": "M_58",
      "pitch": 60,
      "t_note_us": 8769218,
      "t_trigger_us": 8633255,
      "is_ai": false,
      "track_id": 0,
      "velocity": 0,
      "is_motor": true,
      "motor_id": 3,
      "accel_val": 2000,
      "base_duration_us": 461538
    },
    {
      "id": "M_55",
      "pitch": 84,
      "t_note_us": 8999987,
      "t_trigger_us": 8864024,
      "is_ai": true,
      "track_id": 3,
      "velocity": 0,
      "is_motor": false,
      "motor_id": 0,
      "accel_val": 2000,
      "base_duration_us": 230769
    },
    {
      "id": "M_60",
      "pitch": 86,
      "t_note_us": 9230756,
      "t_trigger_us": 9094793,
      "is_ai": true,
      "track_id": 4,
      "velocity": 0,
      "is_motor": false,
      "motor_id": 0,
      "accel_val": 2000,
      "base_duration_us": 346153
    },
    {
      "id": "M_59",
      "pitch": 65,
      "t_note_us": 9230756,
      "t_trigger_us": 9094793,
      "is_ai": false,
      "track_id": 0,
      "velocity": 0,
      "is_motor": true,
      "motor_id": 1,
      "accel_val": 2000,
      "base_duration_us": 346153
    },
    {
      "id": "M_61",
      "pitch": 58,
      "t_note_us": 9230756,
      "t_trigger_us": 9094793,
      "is_ai": false,
      "track_id": 0,
      "velocity": 0,
      "is_motor": true,
      "motor_id": 0,
      "accel_val": 2000,
      "base_duration_us": 346153
    },
    {
      "id": "M_62",
      "pitch": 82,
      "t_note_us": 9576909,
      "t_trigger_us": 9440946,
      "is_ai": true,
      "track_id": 0,
      "velocity": 0,
      "is_motor": true,
      "motor_id": 2,
      "accel_val": 2000,
      "base_duration_us": 346153
    },
    {
      "id": "M_63",
      "pitch": 58,
      "t_note_us": 9692293,
      "t_trigger_us": 9556330,
      "is_ai": false,
      "track_id": 0,
      "velocity": 0,
      "is_motor": true,
      "motor_id": 0,
      "accel_val": 2000,
      "base_duration_us": 346153
    },
    {
      "id": "M_64",
      "pitch": 65,
      "t_note_us": 9692293,
      "t_trigger_us": 9556330,
      "is_ai": false,
      "track_id": 0,
      "velocity": 0,
      "is_motor": true,
      "motor_id": 1,
      "accel_val": 2000,
      "base_duration_us": 346153
    },
    {
      "id": "M_65",
      "pitch": 69,
      "t_note_us": 9923062,
      "t_trigger_us": 9787099,
      "is_ai": false,
      "track_id": 0,
      "velocity": 0,
      "is_motor": true,
      "motor_id": 2,
      "accel_val": 2000,
      "base_duration_us": 230768
    },
    {
      "id": "M_66",
      "pitch": 79,
      "t_note_us": 10153830,
      "t_trigger_us": 10017867,
      "is_ai": true,
      "track_id": 0,
      "velocity": 0,
      "is_motor": false,
      "motor_id": 0,
      "accel_val": 2000,
      "base_duration_us": 230769
    },
    {
      "id": "M_67",
      "pitch": 60,
      "t_note_us": 10153830,
      "t_trigger_us": 10017867,
      "is_ai": false,
      "track_id": 0,
      "velocity": 0,
      "is_motor": true,
      "motor_id": 1,
      "accel_val": 2000,
      "base_duration_us": 346153
    },
    {
      "id": "M_68",
      "pitch": 67,
      "t_note_us": 10153830,
      "t_trigger_us": 10017867,
      "is_ai": false,
      "track_id": 0,
      "velocity": 0,
      "is_motor": true,
      "motor_id": 2,
      "accel_val": 2000,
      "base_duration_us": 346153
    },
    {
      "id": "M_69",
      "pitch": 88,
      "t_note_us": 10384599,
      "t_trigger_us": 10248636,
      "is_ai": true,
      "track_id": 5,
      "velocity": 0,
      "is_motor": false,
      "motor_id": 0,
      "accel_val": 2000,
      "base_duration_us": 230768
    },
    {
      "id": "M_70",
      "pitch": 86,
      "t_note_us": 10615367,
      "t_trigger_us": 10479404,
      "is_ai": true,
      "track_id": 4,
      "velocity": 0,
      "is_motor": false,
      "motor_id": 0,
      "accel_val": 2000,
      "base_duration_us": 230769
    },
    {
      "id": "M_71",
      "pitch": 60,
      "t_note_us": 10615367,
      "t_trigger_us": 10479404,
      "is_ai": false,
      "track_id": 0,
      "velocity": 0,
      "is_motor": true,
      "motor_id": 1,
      "accel_val": 2000,
      "base_duration_us": 346153
    },
    {
      "id": "M_72",
      "pitch": 67,
      "t_note_us": 10615367,
      "t_trigger_us": 10479404,
      "is_ai": false,
      "track_id": 0,
      "velocity": 0,
      "is_motor": true,
      "motor_id": 2,
      "accel_val": 2000,
      "base_duration_us": 346153
    },
    {
      "id": "M_73",
      "pitch": 84,
      "t_note_us": 10846136,
      "t_trigger_us": 10710173,
      "is_ai": true,
      "track_id": 3,
      "velocity": 0,
      "is_motor": false,
      "motor_id": 0,
      "accel_val": 2000,
      "base_duration_us": 230768
    },
    {
      "id": "M_74",
      "pitch": 84,
      "t_note_us": 11076904,
      "t_trigger_us": 10940941,
      "is_ai": true,
      "track_id": 3,
      "velocity": 0,
      "is_motor": false,
      "motor_id": 0,
      "accel_val": 2000,
      "base_duration_us": 230769
    },
    {
      "id": "M_75",
      "pitch": 57,
      "t_note_us": 11076904,
      "t_trigger_us": 10940941,
      "is_ai": false,
      "track_id": 0,
      "velocity": 0,
      "is_motor": true,
      "motor_id": 0,
      "accel_val": 2000,
      "base_duration_us": 346153
    },
    {
      "id": "M_76",
      "pitch": 64,
      "t_note_us": 11076904,
      "t_trigger_us": 10940941,
      "is_ai": false,
      "track_id": 0,
      "velocity": 0,
      "is_motor": true,
      "motor_id": 1,
      "accel_val": 2000,
      "base_duration_us": 346153
    },
    {
      "id": "M_77",
      "pitch": 86,
      "t_note_us": 11307673,
      "t_trigger_us": 11171710,
      "is_ai": true,
      "track_id": 4,
      "velocity": 0,
      "is_motor": false,
      "motor_id": 0,
      "accel_val": 2000,
      "base_duration_us": 230768
    },
    {
      "id": "M_78",
      "pitch": 88,
      "t_note_us": 11538441,
      "t_trigger_us": 11402478,
      "is_ai": true,
      "track_id": 5,
      "velocity": 0,
      "is_motor": false,
      "motor_id": 0,
      "accel_val": 2000,
      "base_duration_us": 230769
    },
    {
      "id": "M_79",
      "pitch": 64,
      "t_note_us": 11538441,
      "t_trigger_us": 11402478,
      "is_ai": false,
      "track_id": 0,
      "velocity": 0,
      "is_motor": true,
      "motor_id": 1,
      "accel_val": 2000,
      "base_duration_us": 346153
    },
    {
      "id": "M_80",
      "pitch": 57,
      "t_note_us": 11538441,
      "t_trigger_us": 11402478,
      "is_ai": false,
      "track_id": 0,
      "velocity": 0,
      "is_motor": true,
      "motor_id": 0,
      "accel_val": 2000,
      "base_duration_us": 346153
    },
    {
      "id": "M_81",
      "pitch": 89,
      "t_note_us": 11769210,
      "t_trigger_us": 11633247,
      "is_ai": true,
      "track_id": 6,
      "velocity": 0,
      "is_motor": false,
      "motor_id": 0,
      "accel_val": 2000,
      "base_duration_us": 461537
    },
    {
      "id": "M_82",
      "pitch": 69,
      "t_note_us": 11999978,
      "t_trigger_us": 11864015,
      "is_ai": false,
      "track_id": 0,
      "velocity": 0,
      "is_motor": true,
      "motor_id": 1,
      "accel_val": 2000,
      "base_duration_us": 346153
    },
    {
      "id": "M_83",
      "pitch": 62,
      "t_note_us": 11999978,
      "t_trigger_us": 11864015,
      "is_ai": false,
      "track_id": 0,
      "velocity": 0,
      "is_motor": true,
      "motor_id": 0,
      "accel_val": 2000,
      "base_duration_us": 346153
    },
    {
      "id": "M_84",
      "pitch": 81,
      "t_note_us": 12230747,
      "t_trigger_us": 12094784,
      "is_ai": true,
      "track_id": 1,
      "velocity": 0,
      "is_motor": false,
      "motor_id": 0,
      "accel_val": 2000,
      "base_duration_us": 230768
    },
    {
      "id": "M_85",
      "pitch": 67,
      "t_note_us": 12461515,
      "t_trigger_us": 12325552,
      "is_ai": false,
      "track_id": 0,
      "velocity": 0,
      "is_motor": true,
      "motor_id": 1,
      "accel_val": 2000,
      "base_duration_us": 230769
    },
    {
      "id": "M_86",
      "pitch": 62,
      "t_note_us": 12461515,
      "t_trigger_us": 12325552,
      "is_ai": false,
      "track_id": 0,
      "velocity": 0,
      "is_motor": true,
      "motor_id": 0,
      "accel_val": 2000,
      "base_duration_us": 346153
    },
    {
      "id": "M_87",
      "pitch": 69,
      "t_note_us": 12461515,
      "t_trigger_us": 12325552,
      "is_ai": false,
      "track_id": 0,
      "velocity": 0,
      "is_motor": true,
      "motor_id": 2,
      "accel_val": 2000,
      "base_duration_us": 346153
    },
    {
      "id": "M_88",
      "pitch": 77,
      "t_note_us": 12692284,
      "t_trigger_us": 12556321,
      "is_ai": false,
      "track_id": 0,
      "velocity": 0,
      "is_motor": true,
      "motor_id": 1,
      "accel_val": 2000,
      "base_duration_us": 230768
    },
    {
      "id": "M_89",
      "pitch": 62,
      "t_note_us": 12923052,
      "t_trigger_us": 12787089,
      "is_ai": false,
      "track_id": 0,
      "velocity": 0,
      "is_motor": true,
      "motor_id": 1,
      "accel_val": 2000,
      "base_duration_us": 346153
    },
    {
      "id": "M_90",
      "pitch": 65,
      "t_note_us": 12923052,
      "t_trigger_us": 12787089,
      "is_ai": false,
      "track_id": 0,
      "velocity": 0,
      "is_motor": true,
      "motor_id": 0,
      "accel_val": 2000,
      "base_duration_us": 346153
    },
    {
      "id": "M_91",
      "pitch": 58,
      "t_note_us": 12923052,
      "t_trigger_us": 12787089,
      "is_ai": false,
      "track_id": 0,
      "velocity": 0,
      "is_motor": true,
      "motor_id": 2,
      "accel_val": 2000,
      "base_duration_us": 346153
    },
    {
      "id": "M_101",
      "pitch": 77,
      "t_note_us": 12923052,
      "t_trigger_us": 12787089,
      "is_ai": false,
      "track_id": 0,
      "velocity": 0,
      "is_motor": true,
      "motor_id": 3,
      "accel_val": 2000,
      "base_duration_us": 1730764
    },
    {
      "id": "M_92",
      "pitch": 62,
      "t_note_us": 13384589,
      "t_trigger_us": 13248626,
      "is_ai": false,
      "track_id": 0,
      "velocity": 0,
      "is_motor": true,
      "motor_id": 1,
      "accel_val": 2000,
      "base_duration_us": 346153
    },
    {
      "id": "M_93",
      "pitch": 65,
      "t_note_us": 13384589,
      "t_trigger_us": 13248626,
      "is_ai": false,
      "track_id": 0,
      "velocity": 0,
      "is_motor": true,
      "motor_id": 0,
      "accel_val": 2000,
      "base_duration_us": 346153
    },
    {
      "id": "M_94",
      "pitch": 58,
      "t_note_us": 13384589,
      "t_trigger_us": 13248626,
      "is_ai": false,
      "track_id": 0,
      "velocity": 0,
      "is_motor": true,
      "motor_id": 2,
      "accel_val": 2000,
      "base_duration_us": 346153
    },
    {
      "id": "M_95",
      "pitch": 64,
      "t_note_us": 13846126,
      "t_trigger_us": 13710163,
      "is_ai": false,
      "track_id": 0,
      "velocity": 0,
      "is_motor": true,
      "motor_id": 1,
      "accel_val": 2000,
      "base_duration_us": 346153
    },
    {
      "id": "M_96",
      "pitch": 57,
      "t_note_us": 13846126,
      "t_trigger_us": 13710163,
      "is_ai": false,
      "track_id": 0,
      "velocity": 0,
      "is_motor": true,
      "motor_id": 0,
      "accel_val": 2000,
      "base_duration_us": 346153
    },
    {
      "id": "M_97",
      "pitch": 61,
      "t_note_us": 13846126,
      "t_trigger_us": 13710163,
      "is_ai": false,
      "track_id": 0,
      "velocity": 0,
      "is_motor": true,
      "motor_id": 2,
      "accel_val": 2000,
      "base_duration_us": 346153
    },
    {
      "id": "M_98",
      "pitch": 64,
      "t_note_us": 14307663,
      "t_trigger_us": 14171700,
      "is_ai": false,
      "track_id": 0,
      "velocity": 0,
      "is_motor": true,
      "motor_id": 1,
      "accel_val": 2000,
      "base_duration_us": 346153
    },
    {
      "id": "M_99",
      "pitch": 57,
      "t_note_us": 14307663,
      "t_trigger_us": 14171700,
      "is_ai": false,
      "track_id": 0,
      "velocity": 0,
      "is_motor": true,
      "motor_id": 0,
      "accel_val": 2000,
      "base_duration_us": 346153
    },
    {
      "id": "M_100",
      "pitch": 61,
      "t_note_us": 14307663,
      "t_trigger_us": 14171700,
      "is_ai": false,
      "track_id": 0,
      "velocity": 0,
      "is_motor": true,
      "motor_id": 2,
      "accel_val": 2000,
      "base_duration_us": 346153
    },
    {
      "id": "M_102",
      "pitch": 50,
      "t_note_us": 14769200,
      "t_trigger_us": 14633237,
      "is_ai": false,
      "track_id": 0,
      "velocity": 0,
      "is_motor": true,
      "motor_id": 0,
      "accel_val": 2000,
      "base_duration_us": 115384
    },
    {
      "id": "M_105",
      "pitch": 50,
      "t_note_us": 14884584,
      "t_trigger_us": 14748621,
      "is_ai": false,
      "track_id": 0,
      "velocity": 0,
      "is_motor": true,
      "motor_id": 0,
      "accel_val": 2000,
      "base_duration_us": 346153
    },
    {
      "id": "M_103",
      "pitch": 57,
      "t_note_us": 14999968,
      "t_trigger_us": 14864005,
      "is_ai": false,
      "track_id": 0,
      "velocity": 0,
      "is_motor": true,
      "motor_id": 1,
      "accel_val": 2000,
      "base_duration_us": 230769
    },
    {
      "id": "M_104",
      "pitch": 62,
      "t_note_us": 14999968,
      "t_trigger_us": 14864005,
      "is_ai": false,
      "track_id": 0,
      "velocity": 0,
      "is_motor": true,
      "motor_id": 2,
      "accel_val": 2000,
      "base_duration_us": 230769
    },
    {
      "id": "M_108",
      "pitch": 62,
      "t_note_us": 15230737,
      "t_trigger_us": 15094774,
      "is_ai": false,
      "track_id": 0,
      "velocity": 0,
      "is_motor": true,
      "motor_id": 1,
      "accel_val": 2000,
      "base_duration_us": 461537
    },
    {
      "id": "M_109",
      "pitch": 57,
      "t_note_us": 15230737,
      "t_trigger_us": 15094774,
      "is_ai": false,
      "track_id": 0,
      "velocity": 0,
      "is_motor": true,
      "motor_id": 0,
      "accel_val": 2000,
      "base_duration_us": 461537
    },
    {
      "id": "M_106",
      "pitch": 50,
      "t_note_us": 15346121,
      "t_trigger_us": 15210158,
      "is_ai": false,
      "track_id": 0,
      "velocity": 0,
      "is_motor": true,
      "motor_id": 2,
      "accel_val": 2000,
      "base_duration_us": 230769
    },
    {
      "id": "M_107",
      "pitch": 50,
      "t_note_us": 15576890,
      "t_trigger_us": 15440927,
      "is_ai": false,
      "track_id": 0,
      "velocity": 0,
      "is_motor": true,
      "motor_id": 2,
      "accel_val": 2000,
      "base_duration_us": 115384
    },
    {
      "id": "M_110",
      "pitch": 57,
      "t_note_us": 15692274,
      "t_trigger_us": 15556311,
      "is_ai": false,
      "track_id": 0,
      "velocity": 0,
      "is_motor": true,
      "motor_id": 0,
      "accel_val": 2000,
      "base_duration_us": 346153
    },
    {
      "id": "M_111",
      "pitch": 62,
      "t_note_us": 15692274,
      "t_trigger_us": 15556311,
      "is_ai": false,
      "track_id": 0,
      "velocity": 0,
      "is_motor": true,
      "motor_id": 1,
      "accel_val": 2000,
      "base_duration_us": 346153
    },
    {
      "id": "M_114",
      "pitch": 50,
      "t_note_us": 15807658,
      "t_trigger_us": 15671695,
      "is_ai": false,
      "track_id": 0,
      "velocity": 0,
      "is_motor": true,
      "motor_id": 2,
      "accel_val": 2000,
      "base_duration_us": 346153
    },
    {
      "id": "M_112",
      "pitch": 57,
      "t_note_us": 16038427,
      "t_trigger_us": 15902464,
      "is_ai": false,
      "track_id": 0,
      "velocity": 0,
      "is_motor": true,
      "motor_id": 0,
      "accel_val": 2000,
      "base_duration_us": 115384
    },
    {
      "id": "M_113",
      "pitch": 62,
      "t_note_us": 16038427,
      "t_trigger_us": 15902464,
      "is_ai": false,
      "track_id": 0,
      "velocity": 0,
      "is_motor": true,
      "motor_id": 1,
      "accel_val": 2000,
      "base_duration_us": 115384
    },
    {
      "id": "M_115",
      "pitch": 84,
      "t_note_us": 16153811,
      "t_trigger_us": 16017848,
      "is_ai": true,
      "track_id": 3,
      "velocity": 0,
      "is_motor": false,
      "motor_id": 0,
      "accel_val": 2000,
      "base_duration_us": 115384
    },
    {
      "id": "M_119",
      "pitch": 45,
      "t_note_us": 16153811,
      "t_trigger_us": 16017848,
      "is_ai": false,
      "track_id": 0,
      "velocity": 0,
      "is_motor": true,
      "motor_id": 0,
      "accel_val": 2000,
      "base_duration_us": 461536
    },
    {
      "id": "M_120",
      "pitch": 50,
      "t_note_us": 16153811,
      "t_trigger_us": 16017848,
      "is_ai": false,
      "track_id": 0,
      "velocity": 0,
      "is_motor": true,
      "motor_id": 1,
      "accel_val": 2000,
      "base_duration_us": 461536
    },
    {
      "id": "M_116",
      "pitch": 86,
      "t_note_us": 16269195,
      "t_trigger_us": 16133232,
      "is_ai": true,
      "track_id": 4,
      "velocity": 0,
      "is_motor": false,
      "motor_id": 0,
      "accel_val": 2000,
      "base_duration_us": 115384
    },
    {
      "id": "M_117",
      "pitch": 89,
      "t_note_us": 16384579,
      "t_trigger_us": 16248616,
      "is_ai": true,
      "track_id": 6,
      "velocity": 0,
      "is_motor": false,
      "motor_id": 0,
      "accel_val": 2000,
      "base_duration_us": 115384
    },
    {
      "id": "M_118",
      "pitch": 96,
      "t_note_us": 16499963,
      "t_trigger_us": 16364000,
      "is_ai": true,
      "track_id": 10,
      "velocity": 0,
      "is_motor": false,
      "motor_id": 0,
      "accel_val": 2000,
      "base_duration_us": 115384
    },
    {
      "id": "M_121",
      "pitch": 98,
      "t_note_us": 16615347,
      "t_trigger_us": 16479384,
      "is_ai": true,
      "track_id": 11,
      "velocity": 0,
      "is_motor": false,
      "motor_id": 0,
      "accel_val": 2000,
      "base_duration_us": 115384
    },
    {
      "id": "M_122",
      "pitch": 46,
      "t_note_us": 16615347,
      "t_trigger_us": 16479384,
      "is_ai": false,
      "track_id": 0,
      "velocity": 0,
      "is_motor": true,
      "motor_id": 0,
      "accel_val": 2000,
      "base_duration_us": 230768
    },
    {
      "id": "M_123",
      "pitch": 58,
      "t_note_us": 16615347,
      "t_trigger_us": 16479384,
      "is_ai": false,
      "track_id": 0,
      "velocity": 0,
      "is_motor": true,
      "motor_id": 1,
      "accel_val": 2000,
      "base_duration_us": 230768
    },
    {
      "id": "M_124",
      "pitch": 96,
      "t_note_us": 16730731,
      "t_trigger_us": 16594768,
      "is_ai": true,
      "track_id": 10,
      "velocity": 0,
      "is_motor": false,
      "motor_id": 0,
      "accel_val": 2000,
      "base_duration_us": 230768
    },
    {
      "id": "M_125",
      "pitch": 74,
      "t_note_us": 16846115,
      "t_trigger_us": 16710152,
      "is_ai": false,
      "track_id": 0,
      "velocity": 0,
      "is_motor": true,
      "motor_id": 1,
      "accel_val": 2000,
      "base_duration_us": 230768
    },
    {
      "id": "M_126",
      "pitch": 70,
      "t_note_us": 16846115,
      "t_trigger_us": 16710152,
      "is_ai": false,
      "track_id": 0,
      "velocity": 0,
      "is_motor": true,
      "motor_id": 2,
      "accel_val": 2000,
      "base_duration_us": 230768
    },
    {
      "id": "M_129",
      "pitch": 93,
      "t_note_us": 16961499,
      "t_trigger_us": 16825536,
      "is_ai": true,
      "track_id": 8,
      "velocity": 0,
      "is_motor": false,
      "motor_id": 0,
      "accel_val": 2000,
      "base_duration_us": 346153
    },
    {
      "id": "M_127",
      "pitch": 58,
      "t_note_us": 17076883,
      "t_trigger_us": 16940920,
      "is_ai": false,
      "track_id": 0,
      "velocity": 0,
      "is_motor": true,
      "motor_id": 0,
      "accel_val": 2000,
      "base_duration_us": 230769
    },
    {
      "id": "M_128",
      "pitch": 46,
      "t_note_us": 17076883,
      "t_trigger_us": 16940920,
      "is_ai": false,
      "track_id": 0,
      "velocity": 0,
      "is_motor": true,
      "motor_id": 1,
      "accel_val": 2000,
      "base_duration_us": 230769
    },
    {
      "id": "M_130",
      "pitch": 86,
      "t_note_us": 17307652,
      "t_trigger_us": 17171689,
      "is_ai": true,
      "track_id": 4,
      "velocity": 0,
      "is_motor": false,
      "motor_id": 0,
      "accel_val": 2000,
      "base_duration_us": 230769
    },
    {
      "id": "M_131",
      "pitch": 70,
      "t_note_us": 17307652,
      "t_trigger_us": 17171689,
      "is_ai": false,
      "track_id": 0,
      "velocity": 0,
      "is_motor": true,
      "motor_id": 1,
      "accel_val": 2000,
      "base_duration_us": 230769
    },
    {
      "id": "M_132",
      "pitch": 74,
      "t_note_us": 17307652,
      "t_trigger_us": 17171689,
      "is_ai": false,
      "track_id": 0,
      "velocity": 0,
      "is_motor": true,
      "motor_id": 0,
      "accel_val": 2000,
      "base_duration_us": 230769
    },
    {
      "id": "M_134",
      "pitch": 89,
      "t_note_us": 17538421,
      "t_trigger_us": 17402458,
      "is_ai": true,
      "track_id": 6,
      "velocity": 0,
      "is_motor": false,
      "motor_id": 0,
      "accel_val": 2000,
      "base_duration_us": 230769
    },
    {
      "id": "M_133",
      "pitch": 45,
      "t_note_us": 17538421,
      "t_trigger_us": 17402458,
      "is_ai": false,
      "track_id": 0,
      "velocity": 0,
      "is_motor": true,
      "motor_id": 0,
      "accel_val": 2000,
      "base_duration_us": 230769
    },
    {
      "id": "M_135",
      "pitch": 57,
      "t_note_us": 17538421,
      "t_trigger_us": 17402458,
      "is_ai": false,
      "track_id": 0,
      "velocity": 0,
      "is_motor": true,
      "motor_id": 1,
      "accel_val": 2000,
      "base_duration_us": 230769
    },
    {
      "id": "M_137",
      "pitch": 91,
      "t_note_us": 17769190,
      "t_trigger_us": 17633227,
      "is_ai": true,
      "track_id": 7,
      "velocity": 0,
      "is_motor": false,
      "motor_id": 0,
      "accel_val": 2000,
      "base_duration_us": 230769
    },
    {
      "id": "M_136",
      "pitch": 73,
      "t_note_us": 17769190,
      "t_trigger_us": 17633227,
      "is_ai": false,
      "track_id": 0,
      "velocity": 0,
      "is_motor": true,
      "motor_id": 1,
      "accel_val": 2000,
      "base_duration_us": 230769
    },
    {
      "id": "M_138",
      "pitch": 69,
      "t_note_us": 17769190,
      "t_trigger_us": 17633227,
      "is_ai": false,
      "track_id": 0,
      "velocity": 0,
      "is_motor": true,
      "motor_id": 2,
      "accel_val": 2000,
      "base_duration_us": 230769
    },
    {
      "id": "M_139",
      "pitch": 93,
      "t_note_us": 17999959,
      "t_trigger_us": 17863996,
      "is_ai": true,
      "track_id": 8,
      "velocity": 0,
      "is_motor": false,
      "motor_id": 0,
      "accel_val": 2000,
      "base_duration_us": 115384
    },
    {
      "id": "M_141",
      "pitch": 45,
      "t_note_us": 17999959,
      "t_trigger_us": 17863996,
      "is_ai": false,
      "track_id": 0,
      "velocity": 0,
      "is_motor": true,
      "motor_id": 0,
      "accel_val": 2000,
      "base_duration_us": 230768
    },
    {
      "id": "M_142",
      "pitch": 57,
      "t_note_us": 17999959,
      "t_trigger_us": 17863996,
      "is_ai": false,
      "track_id": 0,
      "velocity": 0,
      "is_motor": true,
      "motor_id": 1,
      "accel_val": 2000,
      "base_duration_us": 230768
    },
    {
      "id": "M_140",
      "pitch": 86,
      "t_note_us": 18115343,
      "t_trigger_us": 17979380,
      "is_ai": true,
      "track_id": 4,
      "velocity": 0,
      "is_motor": false,
      "motor_id": 0,
      "accel_val": 2000,
      "base_duration_us": 115384
    },
    {
      "id": "M_143",
      "pitch": 101,
      "t_note_us": 18230727,
      "t_trigger_us": 18094764,
      "is_ai": true,
      "track_id": 13,
      "velocity": 0,
      "is_motor": false,
      "motor_id": 0,
      "accel_val": 2000,
      "base_duration_us": 115384
    },
    {
      "id": "M_145",
      "pitch": 73,
      "t_note_us": 18230727,
      "t_trigger_us": 18094764,
      "is_ai": false,
      "track_id": 0,
      "velocity": 0,
      "is_motor": true,
      "motor_id": 1,
      "accel_val": 2000,
      "base_duration_us": 230768
    },
    {
      "id": "M_146",
      "pitch": 69,
      "t_note_us": 18230727,
      "t_trigger_us": 18094764,
      "is_ai": false,
      "track_id": 0,
      "velocity": 0,
      "is_motor": true,
      "motor_id": 2,
      "accel_val": 2000,
      "base_duration_us": 230768
    },
    {
      "id": "M_144",
      "pitch": 100,
      "t_note_us": 18346111,
      "t_trigger_us": 18210148,
      "is_ai": true,
      "track_id": 12,
      "velocity": 0,
      "is_motor": false,
      "motor_id": 0,
      "accel_val": 2000,
      "base_duration_us": 115384
    },
    {
      "id": "M_147",
      "pitch": 96,
      "t_note_us": 18461495,
      "t_trigger_us": 18325532,
      "is_ai": true,
      "track_id": 10,
      "velocity": 0,
      "is_motor": false,
      "motor_id": 0,
      "accel_val": 2000,
      "base_duration_us": 115384
    },
    {
      "id": "M_148",
      "pitch": 62,
      "t_note_us": 18461495,
      "t_trigger_us": 18325532,
      "is_ai": false,
      "track_id": 0,
      "velocity": 0,
      "is_motor": true,
      "motor_id": 1,
      "accel_val": 2000,
      "base_duration_us": 230768
    },
    {
      "id": "M_149",
      "pitch": 50,
      "t_note_us": 18461495,
      "t_trigger_us": 18325532,
      "is_ai": false,
      "track_id": 0,
      "velocity": 0,
      "is_motor": true,
      "motor_id": 0,
      "accel_val": 2000,
      "base_duration_us": 230768
    },
    {
      "id": "M_150",
      "pitch": 93,
      "t_note_us": 18576879,
      "t_trigger_us": 18440916,
      "is_ai": true,
      "track_id": 8,
      "velocity": 0,
      "is_motor": false,
      "motor_id": 0,
      "accel_val": 2000,
      "base_duration_us": 230768
    },
    {
      "id": "M_151",
      "pitch": 77,
      "t_note_us": 18692263,
      "t_trigger_us": 18556300,
      "is_ai": false,
      "track_id": 0,
      "velocity": 0,
      "is_motor": true,
      "motor_id": 2,
      "accel_val": 2000,
      "base_duration_us": 230768
    },
    {
      "id": "M_152",
      "pitch": 74,
      "t_note_us": 18692263,
      "t_trigger_us": 18556300,
      "is_ai": false,
      "track_id": 0,
      "velocity": 0,
      "is_motor": true,
      "motor_id": 1,
      "accel_val": 2000,
      "base_duration_us": 230768
    },
    {
      "id": "M_155",
      "pitch": 96,
      "t_note_us": 18807647,
      "t_trigger_us": 18671684,
      "is_ai": true,
      "track_id": 10,
      "velocity": 0,
      "is_motor": false,
      "motor_id": 0,
      "accel_val": 2000,
      "base_duration_us": 346153
    },
    {
      "id": "M_153",
      "pitch": 50,
      "t_note_us": 18923031,
      "t_trigger_us": 18787068,
      "is_ai": false,
      "track_id": 0,
      "velocity": 0,
      "is_motor": true,
      "motor_id": 0,
      "accel_val": 2000,
      "base_duration_us": 230769
    },
    {
      "id": "M_154",
      "pitch": 62,
      "t_note_us": 18923031,
      "t_trigger_us": 18787068,
      "is_ai": false,
      "track_id": 0,
      "velocity": 0,
      "is_motor": true,
      "motor_id": 1,
      "accel_val": 2000,
      "base_duration_us": 230769
    },
    {
      "id": "M_156",
      "pitch": 98,
      "t_note_us": 19153800,
      "t_trigger_us": 19017837,
      "is_ai": true,
      "track_id": 11,
      "velocity": 0,
      "is_motor": false,
      "motor_id": 0,
      "accel_val": 2000,
      "base_duration_us": 230769
    },
    {
      "id": "M_157",
      "pitch": 77,
      "t_note_us": 19153800,
      "t_trigger_us": 19017837,
      "is_ai": false,
      "track_id": 0,
      "velocity": 0,
      "is_motor": true,
      "motor_id": 2,
      "accel_val": 2000,
      "base_duration_us": 230769
    },
    {
      "id": "M_158",
      "pitch": 74,
      "t_note_us": 19153800,
      "t_trigger_us": 19017837,
      "is_ai": false,
      "track_id": 0,
      "velocity": 0,
      "is_motor": true,
      "motor_id": 1,
      "accel_val": 2000,
      "base_duration_us": 230769
    },
    {
      "id": "M_161",
      "pitch": 96,
      "t_note_us": 19384569,
      "t_trigger_us": 19248606,
      "is_ai": true,
      "track_id": 10,
      "velocity": 0,
      "is_motor": false,
      "motor_id": 0,
      "accel_val": 2000,
      "base_duration_us": 230769
    },
    {
      "id": "M_159",
      "pitch": 48,
      "t_note_us": 19384569,
      "t_trigger_us": 19248606,
      "is_ai": false,
      "track_id": 0,
      "velocity": 0,
      "is_motor": true,
      "motor_id": 0,
      "accel_val": 2000,
      "base_duration_us": 230769
    },
    {
      "id": "M_160",
      "pitch": 60,
      "t_note_us": 19384569,
      "t_trigger_us": 19248606,
      "is_ai": false,
      "track_id": 0,
      "velocity": 0,
      "is_motor": true,
      "motor_id": 1,
      "accel_val": 2000,
      "base_duration_us": 230769
    },
    {
      "id": "M_163",
      "pitch": 93,
      "t_note_us": 19615338,
      "t_trigger_us": 19479375,
      "is_ai": true,
      "track_id": 8,
      "velocity": 0,
      "is_motor": false,
      "motor_id": 0,
      "accel_val": 2000,
      "base_duration_us": 230769
    },
    {
      "id": "M_162",
      "pitch": 72,
      "t_note_us": 19615338,
      "t_trigger_us": 19479375,
      "is_ai": false,
      "track_id": 0,
      "velocity": 0,
      "is_motor": true,
      "motor_id": 1,
      "accel_val": 2000,
      "base_duration_us": 230769
    },
    {
      "id": "M_164",
      "pitch": 76,
      "t_note_us": 19615338,
      "t_trigger_us": 19479375,
      "is_ai": false,
      "track_id": 0,
      "velocity": 0,
      "is_motor": true,
      "motor_id": 2,
      "accel_val": 2000,
      "base_duration_us": 230769
    },
    {
      "id": "M_166",
      "pitch": 91,
      "t_note_us": 19846107,
      "t_trigger_us": 19710144,
      "is_ai": true,
      "track_id": 7,
      "velocity": 0,
      "is_motor": false,
      "motor_id": 0,
      "accel_val": 2000,
      "base_duration_us": 230769
    },
    {
      "id": "M_165",
      "pitch": 60,
      "t_note_us": 19846107,
      "t_trigger_us": 19710144,
      "is_ai": false,
      "track_id": 0,
      "velocity": 0,
      "is_motor": true,
      "motor_id": 1,
      "accel_val": 2000,
      "base_duration_us": 230769
    },
    {
      "id": "M_167",
      "pitch": 48,
      "t_note_us": 19846107,
      "t_trigger_us": 19710144,
      "is_ai": false,
      "track_id": 0,
      "velocity": 0,
      "is_motor": true,
      "motor_id": 0,
      "accel_val": 2000,
      "base_duration_us": 230769
    },
    {
      "id": "M_168",
      "pitch": 86,
      "t_note_us": 20076876,
      "t_trigger_us": 19940913,
      "is_ai": true,
      "track_id": 4,
      "velocity": 0,
      "is_motor": false,
      "motor_id": 0,
      "accel_val": 2000,
      "base_duration_us": 230769
    },
    {
      "id": "M_169",
      "pitch": 72,
      "t_note_us": 20076876,
      "t_trigger_us": 19940913,
      "is_ai": false,
      "track_id": 0,
      "velocity": 0,
      "is_motor": true,
      "motor_id": 1,
      "accel_val": 2000,
      "base_duration_us": 230769
    },
    {
      "id": "M_170",
      "pitch": 76,
      "t_note_us": 20076876,
      "t_trigger_us": 19940913,
      "is_ai": false,
      "track_id": 0,
      "velocity": 0,
      "is_motor": true,
      "motor_id": 2,
      "accel_val": 2000,
      "base_duration_us": 230769
    },
    {
      "id": "M_171",
      "pitch": 93,
      "t_note_us": 20307645,
      "t_trigger_us": 20171682,
      "is_ai": true,
      "track_id": 8,
      "velocity": 0,
      "is_motor": false,
      "motor_id": 0,
      "accel_val": 2000,
      "base_duration_us": 115384
    },
    {
      "id": "M_172",
      "pitch": 46,
      "t_note_us": 20307645,
      "t_trigger_us": 20171682,
      "is_ai": false,
      "track_id": 0,
      "velocity": 0,
      "is_motor": true,
      "motor_id": 0,
      "accel_val": 2000,
      "base_duration_us": 230768
    },
    {
      "id": "M_173",
      "pitch": 58,
      "t_note_us": 20307645,
      "t_trigger_us": 20171682,
      "is_ai": false,
      "track_id": 0,
      "velocity": 0,
      "is_motor": true,
      "motor_id": 1,
      "accel_val": 2000,
      "base_duration_us": 230768
    },
    {
      "id": "M_174",
      "pitch": 91,
      "t_note_us": 20423029,
      "t_trigger_us": 20287066,
      "is_ai": true,
      "track_id": 7,
      "velocity": 0,
      "is_motor": false,
      "motor_id": 0,
      "accel_val": 2000,
      "base_duration_us": 230768
    },
    {
      "id": "M_175",
      "pitch": 70,
      "t_note_us": 20538413,
      "t_trigger_us": 20402450,
      "is_ai": false,
      "track_id": 0,
      "velocity": 0,
      "is_motor": true,
      "motor_id": 1,
      "accel_val": 2000,
      "base_duration_us": 230768
    },
    {
      "id": "M_176",
      "pitch": 74,
      "t_note_us": 20538413,
      "t_trigger_us": 20402450,
      "is_ai": false,
      "track_id": 0,
      "velocity": 0,
      "is_motor": true,
      "motor_id": 0,
      "accel_val": 2000,
      "base_duration_us": 230768
    },
    {
      "id": "M_179",
      "pitch": 89,
      "t_note_us": 20653797,
      "t_trigger_us": 20517834,
      "is_ai": true,
      "track_id": 6,
      "velocity": 0,
      "is_motor": false,
      "motor_id": 0,
      "accel_val": 2000,
      "base_duration_us": 346153
    },
    {
      "id": "M_177",
      "pitch": 46,
      "t_note_us": 20769181,
      "t_trigger_us": 20633218,
      "is_ai": false,
      "track_id": 0,
      "velocity": 0,
      "is_motor": true,
      "motor_id": 0,
      "accel_val": 2000,
      "base_duration_us": 230769
    },
    {
      "id": "M_178",
      "pitch": 58,
      "t_note_us": 20769181,
      "t_trigger_us": 20633218,
      "is_ai": false,
      "track_id": 0,
      "velocity": 0,
      "is_motor": true,
      "motor_id": 1,
      "accel_val": 2000,
      "base_duration_us": 230769
    },
    {
      "id": "M_182",
      "pitch": 86,
      "t_note_us": 20999950,
      "t_trigger_us": 20863987,
      "is_ai": true,
      "track_id": 4,
      "velocity": 0,
      "is_motor": false,
      "motor_id": 0,
      "accel_val": 2000,
      "base_duration_us": 230769
    },
    {
      "id": "M_180",
      "pitch": 70,
      "t_note_us": 20999950,
      "t_trigger_us": 20863987,
      "is_ai": false,
      "track_id": 0,
      "velocity": 0,
      "is_motor": true,
      "motor_id": 1,
      "accel_val": 2000,
      "base_duration_us": 230769
    },
    {
      "id": "M_181",
      "pitch": 74,
      "t_note_us": 20999950,
      "t_trigger_us": 20863987,
      "is_ai": false,
      "track_id": 0,
      "velocity": 0,
      "is_motor": true,
      "motor_id": 0,
      "accel_val": 2000,
      "base_duration_us": 230769
    },
    {
      "id": "M_185",
      "pitch": 85,
      "t_note_us": 21230719,
      "t_trigger_us": 21094756,
      "is_ai": true,
      "track_id": 0,
      "velocity": 0,
      "is_motor": true,
      "motor_id": 3,
      "accel_val": 2000,
      "base_duration_us": 230769
    },
    {
      "id": "M_183",
      "pitch": 45,
      "t_note_us": 21230719,
      "t_trigger_us": 21094756,
      "is_ai": false,
      "track_id": 0,
      "velocity": 0,
      "is_motor": true,
      "motor_id": 0,
      "accel_val": 2000,
      "base_duration_us": 230769
    },
    {
      "id": "M_184",
      "pitch": 57,
      "t_note_us": 21230719,
      "t_trigger_us": 21094756,
      "is_ai": false,
      "track_id": 0,
      "velocity": 0,
      "is_motor": true,
      "motor_id": 1,
      "accel_val": 2000,
      "base_duration_us": 230769
    },
    {
      "id": "M_186",
      "pitch": 94,
      "t_note_us": 21461488,
      "t_trigger_us": 21325525,
      "is_ai": true,
      "track_id": 0,
      "velocity": 0,
      "is_motor": true,
      "motor_id": 3,
      "accel_val": 2000,
      "base_duration_us": 230769
    },
    {
      "id": "M_187",
      "pitch": 73,
      "t_note_us": 21461488,
      "t_trigger_us": 21325525,
      "is_ai": false,
      "track_id": 0,
      "velocity": 0,
      "is_motor": true,
      "motor_id": 1,
      "accel_val": 2000,
      "base_duration_us": 230769
    },
    {
      "id": "M_188",
      "pitch": 69,
      "t_note_us": 21461488,
      "t_trigger_us": 21325525,
      "is_ai": false,
      "track_id": 0,
      "velocity": 0,
      "is_motor": true,
      "motor_id": 2,
      "accel_val": 2000,
      "base_duration_us": 230769
    },
    {
      "id": "M_190",
      "pitch": 93,
      "t_note_us": 21692257,
      "t_trigger_us": 21556294,
      "is_ai": true,
      "track_id": 8,
      "velocity": 0,
      "is_motor": false,
      "motor_id": 0,
      "accel_val": 2000,
      "base_duration_us": 230769
    },
    {
      "id": "M_189",
      "pitch": 57,
      "t_note_us": 21692257,
      "t_trigger_us": 21556294,
      "is_ai": false,
      "track_id": 0,
      "velocity": 0,
      "is_motor": true,
      "motor_id": 0,
      "accel_val": 2000,
      "base_duration_us": 230769
    },
    {
      "id": "M_191",
      "pitch": 45,
      "t_note_us": 21692257,
      "t_trigger_us": 21556294,
      "is_ai": false,
      "track_id": 0,
      "velocity": 0,
      "is_motor": true,
      "motor_id": 1,
      "accel_val": 2000,
      "base_duration_us": 230769
    },
    {
      "id": "M_192",
      "pitch": 88,
      "t_note_us": 21923026,
      "t_trigger_us": 21787063,
      "is_ai": true,
      "track_id": 5,
      "velocity": 0,
      "is_motor": false,
      "motor_id": 0,
      "accel_val": 2000,
      "base_duration_us": 230769
    },
    {
      "id": "M_193",
      "pitch": 73,
      "t_note_us": 21923026,
      "t_trigger_us": 21787063,
      "is_ai": false,
      "track_id": 0,
      "velocity": 0,
      "is_motor": true,
      "motor_id": 1,
      "accel_val": 2000,
      "base_duration_us": 230769
    },
    {
      "id": "M_194",
      "pitch": 69,
      "t_note_us": 21923026,
      "t_trigger_us": 21787063,
      "is_ai": false,
      "track_id": 0,
      "velocity": 0,
      "is_motor": true,
      "motor_id": 2,
      "accel_val": 2000,
      "base_duration_us": 230769
    },
    {
      "id": "M_196",
      "pitch": 91,
      "t_note_us": 22153795,
      "t_trigger_us": 22017832,
      "is_ai": true,
      "track_id": 7,
      "velocity": 0,
      "is_motor": false,
      "motor_id": 0,
      "accel_val": 2000,
      "base_duration_us": 230769
    },
    {
      "id": "M_195",
      "pitch": 50,
      "t_note_us": 22153795,
      "t_trigger_us": 22017832,
      "is_ai": false,
      "track_id": 0,
      "velocity": 0,
      "is_motor": true,
      "motor_id": 0,
      "accel_val": 2000,
      "base_duration_us": 230769
    },
    {
      "id": "M_197",
      "pitch": 62,
      "t_note_us": 22153795,
      "t_trigger_us": 22017832,
      "is_ai": false,
      "track_id": 0,
      "velocity": 0,
      "is_motor": true,
      "motor_id": 1,
      "accel_val": 2000,
      "base_duration_us": 230769
    },
    {
      "id": "M_198",
      "pitch": 89,
      "t_note_us": 22384564,
      "t_trigger_us": 22248601,
      "is_ai": true,
      "track_id": 6,
      "velocity": 0,
      "is_motor": false,
      "motor_id": 0,
      "accel_val": 2000,
      "base_duration_us": 115384
    },
    {
      "id": "M_199",
      "pitch": 74,
      "t_note_us": 22384564,
      "t_trigger_us": 22248601,
      "is_ai": false,
      "track_id": 0,
      "velocity": 0,
      "is_motor": true,
      "motor_id": 1,
      "accel_val": 2000,
      "base_duration_us": 230768
    },
    {
      "id": "M_200",
      "pitch": 69,
      "t_note_us": 22384564,
      "t_trigger_us": 22248601,
      "is_ai": false,
      "track_id": 0,
      "velocity": 0,
      "is_motor": true,
      "motor_id": 2,
      "accel_val": 2000,
      "base_duration_us": 230768
    },
    {
      "id": "M_203",
      "pitch": 96,
      "t_note_us": 22499948,
      "t_trigger_us": 22363985,
      "is_ai": true,
      "track_id": 10,
      "velocity": 0,
      "is_motor": false,
      "motor_id": 0,
      "accel_val": 2000,
      "base_duration_us": 346153
    },
    {
      "id": "M_201",
      "pitch": 50,
      "t_note_us": 22615332,
      "t_trigger_us": 22479369,
      "is_ai": false,
      "track_id": 0,
      "velocity": 0,
      "is_motor": true,
      "motor_id": 0,
      "accel_val": 2000,
      "base_duration_us": 230769
    },
    {
      "id": "M_202",
      "pitch": 62,
      "t_note_us": 22615332,
      "t_trigger_us": 22479369,
      "is_ai": false,
      "track_id": 0,
      "velocity": 0,
      "is_motor": true,
      "motor_id": 1,
      "accel_val": 2000,
      "base_duration_us": 230769
    },
    {
      "id": "M_206",
      "pitch": 94,
      "t_note_us": 22846101,
      "t_trigger_us": 22710138,
      "is_ai": true,
      "track_id": 0,
      "velocity": 0,
      "is_motor": true,
      "motor_id": 3,
      "accel_val": 2000,
      "base_duration_us": 230769
    },
    {
      "id": "M_204",
      "pitch": 74,
      "t_note_us": 22846101,
      "t_trigger_us": 22710138,
      "is_ai": false,
      "track_id": 0,
      "velocity": 0,
      "is_motor": true,
      "motor_id": 1,
      "accel_val": 2000,
      "base_duration_us": 230769
    },
    {
      "id": "M_205",
      "pitch": 69,
      "t_note_us": 22846101,
      "t_trigger_us": 22710138,
      "is_ai": false,
      "track_id": 0,
      "velocity": 0,
      "is_motor": true,
      "motor_id": 2,
      "accel_val": 2000,
      "base_duration_us": 230769
    },
    {
      "id": "M_209",
      "pitch": 93,
      "t_note_us": 23076870,
      "t_trigger_us": 22940907,
      "is_ai": true,
      "track_id": 8,
      "velocity": 0,
      "is_motor": false,
      "motor_id": 0,
      "accel_val": 2000,
      "base_duration_us": 230769
    },
    {
      "id": "M_207",
      "pitch": 60,
      "t_note_us": 23076870,
      "t_trigger_us": 22940907,
      "is_ai": false,
      "track_id": 0,
      "velocity": 0,
      "is_motor": true,
      "motor_id": 1,
      "accel_val": 2000,
      "base_duration_us": 230769
    },
    {
      "id": "M_208",
      "pitch": 48,
      "t_note_us": 23076870,
      "t_trigger_us": 22940907,
      "is_ai": false,
      "track_id": 0,
      "velocity": 0,
      "is_motor": true,
      "motor_id": 0,
      "accel_val": 2000,
      "base_duration_us": 230769
    },
    {
      "id": "M_211",
      "pitch": 84,
      "t_note_us": 23307639,
      "t_trigger_us": 23171676,
      "is_ai": true,
      "track_id": 3,
      "velocity": 0,
      "is_motor": false,
      "motor_id": 0,
      "accel_val": 2000,
      "base_duration_us": 230769
    },
    {
      "id": "M_210",
      "pitch": 72,
      "t_note_us": 23307639,
      "t_trigger_us": 23171676,
      "is_ai": false,
      "track_id": 0,
      "velocity": 0,
      "is_motor": true,
      "motor_id": 1,
      "accel_val": 2000,
      "base_duration_us": 230769
    },
    {
      "id": "M_212",
      "pitch": 76,
      "t_note_us": 23307639,
      "t_trigger_us": 23171676,
      "is_ai": false,
      "track_id": 0,
      "velocity": 0,
      "is_motor": true,
      "motor_id": 2,
      "accel_val": 2000,
      "base_duration_us": 230769
    },
    {
      "id": "M_213",
      "pitch": 84,
      "t_note_us": 23538408,
      "t_trigger_us": 23402445,
      "is_ai": true,
      "track_id": 3,
      "velocity": 0,
      "is_motor": false,
      "motor_id": 0,
      "accel_val": 2000,
      "base_duration_us": 115384
    },
    {
      "id": "M_215",
      "pitch": 60,
      "t_note_us": 23538408,
      "t_trigger_us": 23402445,
      "is_ai": false,
      "track_id": 0,
      "velocity": 0,
      "is_motor": true,
      "motor_id": 1,
      "accel_val": 2000,
      "base_duration_us": 230768
    },
    {
      "id": "M_216",
      "pitch": 48,
      "t_note_us": 23538408,
      "t_trigger_us": 23402445,
      "is_ai": false,
      "track_id": 0,
      "velocity": 0,
      "is_motor": true,
      "motor_id": 0,
      "accel_val": 2000,
      "base_duration_us": 230768
    },
    {
      "id": "M_214",
      "pitch": 86,
      "t_note_us": 23653792,
      "t_trigger_us": 23517829,
      "is_ai": true,
      "track_id": 4,
      "velocity": 0,
      "is_motor": false,
      "motor_id": 0,
      "accel_val": 2000,
      "base_duration_us": 115384
    },
    {
      "id": "M_217",
      "pitch": 89,
      "t_note_us": 23769176,
      "t_trigger_us": 23633213,
      "is_ai": true,
      "track_id": 6,
      "velocity": 0,
      "is_motor": false,
      "motor_id": 0,
      "accel_val": 2000,
      "base_duration_us": 115384
    },
    {
      "id": "M_219",
      "pitch": 72,
      "t_note_us": 23769176,
      "t_trigger_us": 23633213,
      "is_ai": false,
      "track_id": 0,
      "velocity": 0,
      "is_motor": true,
      "motor_id": 1,
      "accel_val": 2000,
      "base_duration_us": 230768
    },
    {
      "id": "M_220",
      "pitch": 76,
      "t_note_us": 23769176,
      "t_trigger_us": 23633213,
      "is_ai": false,
      "track_id": 0,
      "velocity": 0,
      "is_motor": true,
      "motor_id": 2,
      "accel_val": 2000,
      "base_duration_us": 230768
    },
    {
      "id": "M_218",
      "pitch": 96,
      "t_note_us": 23884560,
      "t_trigger_us": 23748597,
      "is_ai": true,
      "track_id": 10,
      "velocity": 0,
      "is_motor": false,
      "motor_id": 0,
      "accel_val": 2000,
      "base_duration_us": 115384
    },
    {
      "id": "M_221",
      "pitch": 93,
      "t_note_us": 23999944,
      "t_trigger_us": 23863981,
      "is_ai": true,
      "track_id": 8,
      "velocity": 0,
      "is_motor": false,
      "motor_id": 0,
      "accel_val": 2000,
      "base_duration_us": 115384
    },
    {
      "id": "M_222",
      "pitch": 46,
      "t_note_us": 23999944,
      "t_trigger_us": 23863981,
      "is_ai": false,
      "track_id": 0,
      "velocity": 0,
      "is_motor": true,
      "motor_id": 0,
      "accel_val": 2000,
      "base_duration_us": 230768
    },
    {
      "id": "M_223",
      "pitch": 58,
      "t_note_us": 23999944,
      "t_trigger_us": 23863981,
      "is_ai": false,
      "track_id": 0,
      "velocity": 0,
      "is_motor": true,
      "motor_id": 1,
      "accel_val": 2000,
      "base_duration_us": 230768
    },
    {
      "id": "M_224",
      "pitch": 91,
      "t_note_us": 24115328,
      "t_trigger_us": 23979365,
      "is_ai": true,
      "track_id": 7,
      "velocity": 0,
      "is_motor": false,
      "motor_id": 0,
      "accel_val": 2000,
      "base_duration_us": 230768
    },
    {
      "id": "M_225",
      "pitch": 74,
      "t_note_us": 24230712,
      "t_trigger_us": 24094749,
      "is_ai": false,
      "track_id": 0,
      "velocity": 0,
      "is_motor": true,
      "motor_id": 1,
      "accel_val": 2000,
      "base_duration_us": 230768
    },
    {
      "id": "M_226",
      "pitch": 70,
      "t_note_us": 24230712,
      "t_trigger_us": 24094749,
      "is_ai": false,
      "track_id": 0,
      "velocity": 0,
      "is_motor": true,
      "motor_id": 2,
      "accel_val": 2000,
      "base_duration_us": 230768
    },
    {
      "id": "M_229",
      "pitch": 89,
      "t_note_us": 24346096,
      "t_trigger_us": 24210133,
      "is_ai": true,
      "track_id": 6,
      "velocity": 0,
      "is_motor": false,
      "motor_id": 0,
      "accel_val": 2000,
      "base_duration_us": 346153
    },
    {
      "id": "M_227",
      "pitch": 46,
      "t_note_us": 24461480,
      "t_trigger_us": 24325517,
      "is_ai": false,
      "track_id": 0,
      "velocity": 0,
      "is_motor": true,
      "motor_id": 0,
      "accel_val": 2000,
      "base_duration_us": 230769
    },
    {
      "id": "M_228",
      "pitch": 58,
      "t_note_us": 24461480,
      "t_trigger_us": 24325517,
      "is_ai": false,
      "track_id": 0,
      "velocity": 0,
      "is_motor": true,
      "motor_id": 1,
      "accel_val": 2000,
      "base_duration_us": 230769
    },
    {
      "id": "M_232",
      "pitch": 86,
      "t_note_us": 24692249,
      "t_trigger_us": 24556286,
      "is_ai": true,
      "track_id": 4,
      "velocity": 0,
      "is_motor": false,
      "motor_id": 0,
      "accel_val": 2000,
      "base_duration_us": 230769
    },
    {
      "id": "M_230",
      "pitch": 70,
      "t_note_us": 24692249,
      "t_trigger_us": 24556286,
      "is_ai": false,
      "track_id": 0,
      "velocity": 0,
      "is_motor": true,
      "motor_id": 1,
      "accel_val": 2000,
      "base_duration_us": 230769
    },
    {
      "id": "M_231",
      "pitch": 74,
      "t_note_us": 24692249,
      "t_trigger_us": 24556286,
      "is_ai": false,
      "track_id": 0,
      "velocity": 0,
      "is_motor": true,
      "motor_id": 0,
      "accel_val": 2000,
      "base_duration_us": 230769
    },
    {
      "id": "M_233",
      "pitch": 89,
      "t_note_us": 24923018,
      "t_trigger_us": 24787055,
      "is_ai": true,
      "track_id": 6,
      "velocity": 0,
      "is_motor": false,
      "motor_id": 0,
      "accel_val": 2000,
      "base_duration_us": 230769
    },
    {
      "id": "M_234",
      "pitch": 57,
      "t_note_us": 24923018,
      "t_trigger_us": 24787055,
      "is_ai": false,
      "track_id": 0,
      "velocity": 0,
      "is_motor": true,
      "motor_id": 0,
      "accel_val": 2000,
      "base_duration_us": 230769
    },
    {
      "id": "M_235",
      "pitch": 45,
      "t_note_us": 24923018,
      "t_trigger_us": 24787055,
      "is_ai": false,
      "track_id": 0,
      "velocity": 0,
      "is_motor": true,
      "motor_id": 1,
      "accel_val": 2000,
      "base_duration_us": 230769
    },
    {
      "id": "M_238",
      "pitch": 91,
      "t_note_us": 25153787,
      "t_trigger_us": 25017824,
      "is_ai": true,
      "track_id": 7,
      "velocity": 0,
      "is_motor": false,
      "motor_id": 0,
      "accel_val": 2000,
      "base_duration_us": 230769
    },
    {
      "id": "M_236",
      "pitch": 72,
      "t_note_us": 25153787,
      "t_trigger_us": 25017824,
      "is_ai": false,
      "track_id": 0,
      "velocity": 0,
      "is_motor": true,
      "motor_id": 1,
      "accel_val": 2000,
      "base_duration_us": 230769
    },
    {
      "id": "M_237",
      "pitch": 76,
      "t_note_us": 25153787,
      "t_trigger_us": 25017824,
      "is_ai": false,
      "track_id": 0,
      "velocity": 0,
      "is_motor": true,
      "motor_id": 2,
      "accel_val": 2000,
      "base_duration_us": 230769
    },
    {
      "id": "M_239",
      "pitch": 93,
      "t_note_us": 25384556,
      "t_trigger_us": 25248593,
      "is_ai": true,
      "track_id": 8,
      "velocity": 0,
      "is_motor": false,
      "motor_id": 0,
      "accel_val": 2000,
      "base_duration_us": 115384
    },
    {
      "id": "M_241",
      "pitch": 57,
      "t_note_us": 25384556,
      "t_trigger_us": 25248593,
      "is_ai": false,
      "track_id": 0,
      "velocity": 0,
      "is_motor": true,
      "motor_id": 0,
      "accel_val": 2000,
      "base_duration_us": 230768
    },
    {
      "id": "M_242",
      "pitch": 45,
      "t_note_us": 25384556,
      "t_trigger_us": 25248593,
      "is_ai": false,
      "track_id": 0,
      "velocity": 0,
      "is_motor": true,
      "motor_id": 1,
      "accel_val": 2000,
      "base_duration_us": 230768
    },
    {
      "id": "M_240",
      "pitch": 86,
      "t_note_us": 25499940,
      "t_trigger_us": 25363977,
      "is_ai": true,
      "track_id": 4,
      "velocity": 0,
      "is_motor": false,
      "motor_id": 0,
      "accel_val": 2000,
      "base_duration_us": 115384
    },
    {
      "id": "M_243",
      "pitch": 101,
      "t_note_us": 25615324,
      "t_trigger_us": 25479361,
      "is_ai": true,
      "track_id": 13,
      "velocity": 0,
      "is_motor": false,
      "motor_id": 0,
      "accel_val": 2000,
      "base_duration_us": 115384
    },
    {
      "id": "M_245",
      "pitch": 72,
      "t_note_us": 25615324,
      "t_trigger_us": 25479361,
      "is_ai": false,
      "track_id": 0,
      "velocity": 0,
      "is_motor": true,
      "motor_id": 1,
      "accel_val": 2000,
      "base_duration_us": 230768
    },
    {
      "id": "M_246",
      "pitch": 76,
      "t_note_us": 25615324,
      "t_trigger_us": 25479361,
      "is_ai": false,
      "track_id": 0,
      "velocity": 0,
      "is_motor": true,
      "motor_id": 2,
      "accel_val": 2000,
      "base_duration_us": 230768
    },
    {
      "id": "M_244",
      "pitch": 100,
      "t_note_us": 25730708,
      "t_trigger_us": 25594745,
      "is_ai": true,
      "track_id": 12,
      "velocity": 0,
      "is_motor": false,
      "motor_id": 0,
      "accel_val": 2000,
      "base_duration_us": 115384
    },
    {
      "id": "M_247",
      "pitch": 96,
      "t_note_us": 25846092,
      "t_trigger_us": 25710129,
      "is_ai": true,
      "track_id": 10,
      "velocity": 0,
      "is_motor": false,
      "motor_id": 0,
      "accel_val": 2000,
      "base_duration_us": 115384
    },
    {
      "id": "M_248",
      "pitch": 50,
      "t_note_us": 25846092,
      "t_trigger_us": 25710129,
      "is_ai": false,
      "track_id": 0,
      "velocity": 0,
      "is_motor": true,
      "motor_id": 0,
      "accel_val": 2000,
      "base_duration_us": 230768
    },
    {
      "id": "M_249",
      "pitch": 62,
      "t_note_us": 25846092,
      "t_trigger_us": 25710129,
      "is_ai": false,
      "track_id": 0,
      "velocity": 0,
      "is_motor": true,
      "motor_id": 1,
      "accel_val": 2000,
      "base_duration_us": 230768
    },
    {
      "id": "M_250",
      "pitch": 93,
      "t_note_us": 25961476,
      "t_trigger_us": 25825513,
      "is_ai": true,
      "track_id": 8,
      "velocity": 0,
      "is_motor": false,
      "motor_id": 0,
      "accel_val": 2000,
      "base_duration_us": 230768
    },
    {
      "id": "M_251",
      "pitch": 74,
      "t_note_us": 26076860,
      "t_trigger_us": 25940897,
      "is_ai": false,
      "track_id": 0,
      "velocity": 0,
      "is_motor": true,
      "motor_id": 1,
      "accel_val": 2000,
      "base_duration_us": 230768
    },
    {
      "id": "M_252",
      "pitch": 77,
      "t_note_us": 26076860,
      "t_trigger_us": 25940897,
      "is_ai": false,
      "track_id": 0,
      "velocity": 0,
      "is_motor": true,
      "motor_id": 2,
      "accel_val": 2000,
      "base_duration_us": 230768
    },
    {
      "id": "M_255",
      "pitch": 96,
      "t_note_us": 26192244,
      "t_trigger_us": 26056281,
      "is_ai": true,
      "track_id": 10,
      "velocity": 0,
      "is_motor": false,
      "motor_id": 0,
      "accel_val": 2000,
      "base_duration_us": 346153
    },
    {
      "id": "M_253",
      "pitch": 50,
      "t_note_us": 26307628,
      "t_trigger_us": 26171665,
      "is_ai": false,
      "track_id": 0,
      "velocity": 0,
      "is_motor": true,
      "motor_id": 0,
      "accel_val": 2000,
      "base_duration_us": 230769
    },
    {
      "id": "M_254",
      "pitch": 62,
      "t_note_us": 26307628,
      "t_trigger_us": 26171665,
      "is_ai": false,
      "track_id": 0,
      "velocity": 0,
      "is_motor": true,
      "motor_id": 1,
      "accel_val": 2000,
      "base_duration_us": 230769
    },
    {
      "id": "M_257",
      "pitch": 98,
      "t_note_us": 26538397,
      "t_trigger_us": 26402434,
      "is_ai": true,
      "track_id": 11,
      "velocity": 0,
      "is_motor": false,
      "motor_id": 0,
      "accel_val": 2000,
      "base_duration_us": 230769
    },
    {
      "id": "M_256",
      "pitch": 77,
      "t_note_us": 26538397,
      "t_trigger_us": 26402434,
      "is_ai": false,
      "track_id": 0,
      "velocity": 0,
      "is_motor": true,
      "motor_id": 2,
      "accel_val": 2000,
      "base_duration_us": 230769
    },
    {
      "id": "M_258",
      "pitch": 74,
      "t_note_us": 26538397,
      "t_trigger_us": 26402434,
      "is_ai": false,
      "track_id": 0,
      "velocity": 0,
      "is_motor": true,
      "motor_id": 1,
      "accel_val": 2000,
      "base_duration_us": 230769
    },
    {
      "id": "M_260",
      "pitch": 96,
      "t_note_us": 26769166,
      "t_trigger_us": 26633203,
      "is_ai": true,
      "track_id": 10,
      "velocity": 0,
      "is_motor": false,
      "motor_id": 0,
      "accel_val": 2000,
      "base_duration_us": 230769
    },
    {
      "id": "M_259",
      "pitch": 60,
      "t_note_us": 26769166,
      "t_trigger_us": 26633203,
      "is_ai": false,
      "track_id": 0,
      "velocity": 0,
      "is_motor": true,
      "motor_id": 1,
      "accel_val": 2000,
      "base_duration_us": 230769
    },
    {
      "id": "M_261",
      "pitch": 48,
      "t_note_us": 26769166,
      "t_trigger_us": 26633203,
      "is_ai": false,
      "track_id": 0,
      "velocity": 0,
      "is_motor": true,
      "motor_id": 0,
      "accel_val": 2000,
      "base_duration_us": 230769
    },
    {
      "id": "M_264",
      "pitch": 93,
      "t_note_us": 26999935,
      "t_trigger_us": 26863972,
      "is_ai": true,
      "track_id": 8,
      "velocity": 0,
      "is_motor": false,
      "motor_id": 0,
      "accel_val": 2000,
      "base_duration_us": 230769
    },
    {
      "id": "M_262",
      "pitch": 76,
      "t_note_us": 26999935,
      "t_trigger_us": 26863972,
      "is_ai": false,
      "track_id": 0,
      "velocity": 0,
      "is_motor": true,
      "motor_id": 2,
      "accel_val": 2000,
      "base_duration_us": 230769
    },
    {
      "id": "M_263",
      "pitch": 72,
      "t_note_us": 26999935,
      "t_trigger_us": 26863972,
      "is_ai": false,
      "track_id": 0,
      "velocity": 0,
      "is_motor": true,
      "motor_id": 1,
      "accel_val": 2000,
      "base_duration_us": 230769
    },
    {
      "id": "M_265",
      "pitch": 91,
      "t_note_us": 27230704,
      "t_trigger_us": 27094741,
      "is_ai": true,
      "track_id": 7,
      "velocity": 0,
      "is_motor": false,
      "motor_id": 0,
      "accel_val": 2000,
      "base_duration_us": 115384
    },
    {
      "id": "M_267",
      "pitch": 48,
      "t_note_us": 27230704,
      "t_trigger_us": 27094741,
      "is_ai": false,
      "track_id": 0,
      "velocity": 0,
      "is_motor": true,
      "motor_id": 0,
      "accel_val": 2000,
      "base_duration_us": 230768
    },
    {
      "id": "M_268",
      "pitch": 60,
      "t_note_us": 27230704,
      "t_trigger_us": 27094741,
      "is_ai": false,
      "track_id": 0,
      "velocity": 0,
      "is_motor": true,
      "motor_id": 1,
      "accel_val": 2000,
      "base_duration_us": 230768
    },
    {
      "id": "M_266",
      "pitch": 86,
      "t_note_us": 27346088,
      "t_trigger_us": 27210125,
      "is_ai": true,
      "track_id": 4,
      "velocity": 0,
      "is_motor": false,
      "motor_id": 0,
      "accel_val": 2000,
      "base_duration_us": 115384
    },
    {
      "id": "M_269",
      "pitch": 89,
      "t_note_us": 27461472,
      "t_trigger_us": 27325509,
      "is_ai": true,
      "track_id": 6,
      "velocity": 0,
      "is_motor": false,
      "motor_id": 0,
      "accel_val": 2000,
      "base_duration_us": 115384
    },
    {
      "id": "M_271",
      "pitch": 76,
      "t_note_us": 27461472,
      "t_trigger_us": 27325509,
      "is_ai": false,
      "track_id": 0,
      "velocity": 0,
      "is_motor": true,
      "motor_id": 2,
      "accel_val": 2000,
      "base_duration_us": 230768
    },
    {
      "id": "M_272",
      "pitch": 72,
      "t_note_us": 27461472,
      "t_trigger_us": 27325509,
      "is_ai": false,
      "track_id": 0,
      "velocity": 0,
      "is_motor": true,
      "motor_id": 1,
      "accel_val": 2000,
      "base_duration_us": 230768
    },
    {
      "id": "M_270",
      "pitch": 96,
      "t_note_us": 27576856,
      "t_trigger_us": 27440893,
      "is_ai": true,
      "track_id": 10,
      "velocity": 0,
      "is_motor": false,
      "motor_id": 0,
      "accel_val": 2000,
      "base_duration_us": 115384
    },
    {
      "id": "M_273",
      "pitch": 93,
      "t_note_us": 27692240,
      "t_trigger_us": 27556277,
      "is_ai": true,
      "track_id": 8,
      "velocity": 0,
      "is_motor": false,
      "motor_id": 0,
      "accel_val": 2000,
      "base_duration_us": 115384
    },
    {
      "id": "M_274",
      "pitch": 58,
      "t_note_us": 27692240,
      "t_trigger_us": 27556277,
      "is_ai": false,
      "track_id": 0,
      "velocity": 0,
      "is_motor": true,
      "motor_id": 0,
      "accel_val": 2000,
      "base_duration_us": 230768
    },
    {
      "id": "M_275",
      "pitch": 46,
      "t_note_us": 27692240,
      "t_trigger_us": 27556277,
      "is_ai": false,
      "track_id": 0,
      "velocity": 0,
      "is_motor": true,
      "motor_id": 1,
      "accel_val": 2000,
      "base_duration_us": 230768
    },
    {
      "id": "M_276",
      "pitch": 91,
      "t_note_us": 27807624,
      "t_trigger_us": 27671661,
      "is_ai": true,
      "track_id": 7,
      "velocity": 0,
      "is_motor": false,
      "motor_id": 0,
      "accel_val": 2000,
      "base_duration_us": 230768
    },
    {
      "id": "M_277",
      "pitch": 74,
      "t_note_us": 27923008,
      "t_trigger_us": 27787045,
      "is_ai": false,
      "track_id": 0,
      "velocity": 0,
      "is_motor": true,
      "motor_id": 1,
      "accel_val": 2000,
      "base_duration_us": 230768
    },
    {
      "id": "M_278",
      "pitch": 70,
      "t_note_us": 27923008,
      "t_trigger_us": 27787045,
      "is_ai": false,
      "track_id": 0,
      "velocity": 0,
      "is_motor": true,
      "motor_id": 2,
      "accel_val": 2000,
      "base_duration_us": 230768
    },
    {
      "id": "M_281",
      "pitch": 89,
      "t_note_us": 28038392,
      "t_trigger_us": 27902429,
      "is_ai": true,
      "track_id": 6,
      "velocity": 0,
      "is_motor": false,
      "motor_id": 0,
      "accel_val": 2000,
      "base_duration_us": 346153
    },
    {
      "id": "M_279",
      "pitch": 58,
      "t_note_us": 28153776,
      "t_trigger_us": 28017813,
      "is_ai": false,
      "track_id": 0,
      "velocity": 0,
      "is_motor": true,
      "motor_id": 0,
      "accel_val": 2000,
      "base_duration_us": 230769
    },
    {
      "id": "M_280",
      "pitch": 46,
      "t_note_us": 28153776,
      "t_trigger_us": 28017813,
      "is_ai": false,
      "track_id": 0,
      "velocity": 0,
      "is_motor": true,
      "motor_id": 1,
      "accel_val": 2000,
      "base_duration_us": 230769
    },
    {
      "id": "M_283",
      "pitch": 86,
      "t_note_us": 28384545,
      "t_trigger_us": 28248582,
      "is_ai": true,
      "track_id": 4,
      "velocity": 0,
      "is_motor": false,
      "motor_id": 0,
      "accel_val": 2000,
      "base_duration_us": 230769
    },
    {
      "id": "M_282",
      "pitch": 70,
      "t_note_us": 28384545,
      "t_trigger_us": 28248582,
      "is_ai": false,
      "track_id": 0,
      "velocity": 0,
      "is_motor": true,
      "motor_id": 1,
      "accel_val": 2000,
      "base_duration_us": 230769
    },
    {
      "id": "M_284",
      "pitch": 74,
      "t_note_us": 28384545,
      "t_trigger_us": 28248582,
      "is_ai": false,
      "track_id": 0,
      "velocity": 0,
      "is_motor": true,
      "motor_id": 0,
      "accel_val": 2000,
      "base_duration_us": 230769
    },
    {
      "id": "M_286",
      "pitch": 85,
      "t_note_us": 28615314,
      "t_trigger_us": 28479351,
      "is_ai": true,
      "track_id": 0,
      "velocity": 0,
      "is_motor": true,
      "motor_id": 3,
      "accel_val": 2000,
      "base_duration_us": 230769
    },
    {
      "id": "M_285",
      "pitch": 57,
      "t_note_us": 28615314,
      "t_trigger_us": 28479351,
      "is_ai": false,
      "track_id": 0,
      "velocity": 0,
      "is_motor": true,
      "motor_id": 0,
      "accel_val": 2000,
      "base_duration_us": 230769
    },
    {
      "id": "M_287",
      "pitch": 45,
      "t_note_us": 28615314,
      "t_trigger_us": 28479351,
      "is_ai": false,
      "track_id": 0,
      "velocity": 0,
      "is_motor": true,
      "motor_id": 1,
      "accel_val": 2000,
      "base_duration_us": 230769
    },
    {
      "id": "M_288",
      "pitch": 94,
      "t_note_us": 28846083,
      "t_trigger_us": 28710120,
      "is_ai": true,
      "track_id": 0,
      "velocity": 0,
      "is_motor": true,
      "motor_id": 3,
      "accel_val": 2000,
      "base_duration_us": 230769
    },
    {
      "id": "M_289",
      "pitch": 73,
      "t_note_us": 28846083,
      "t_trigger_us": 28710120,
      "is_ai": false,
      "track_id": 0,
      "velocity": 0,
      "is_motor": true,
      "motor_id": 1,
      "accel_val": 2000,
      "base_duration_us": 230769
    },
    {
      "id": "M_290",
      "pitch": 69,
      "t_note_us": 28846083,
      "t_trigger_us": 28710120,
      "is_ai": false,
      "track_id": 0,
      "velocity": 0,
      "is_motor": true,
      "motor_id": 2,
      "accel_val": 2000,
      "base_duration_us": 230769
    },
    {
      "id": "M_293",
      "pitch": 93,
      "t_note_us": 29076852,
      "t_trigger_us": 28940889,
      "is_ai": true,
      "track_id": 8,
      "velocity": 0,
      "is_motor": false,
      "motor_id": 0,
      "accel_val": 2000,
      "base_duration_us": 230769
    },
    {
      "id": "M_291",
      "pitch": 45,
      "t_note_us": 29076852,
      "t_trigger_us": 28940889,
      "is_ai": false,
      "track_id": 0,
      "velocity": 0,
      "is_motor": true,
      "motor_id": 0,
      "accel_val": 2000,
      "base_duration_us": 230769
    },
    {
      "id": "M_292",
      "pitch": 57,
      "t_note_us": 29076852,
      "t_trigger_us": 28940889,
      "is_ai": false,
      "track_id": 0,
      "velocity": 0,
      "is_motor": true,
      "motor_id": 1,
      "accel_val": 2000,
      "base_duration_us": 230769
    },
    {
      "id": "M_298",
      "pitch": 88,
      "t_note_us": 29307621,
      "t_trigger_us": 29171658,
      "is_ai": true,
      "track_id": 5,
      "velocity": 0,
      "is_motor": false,
      "motor_id": 0,
      "accel_val": 2000,
      "base_duration_us": 461538
    },
    {
      "id": "M_294",
      "pitch": 69,
      "t_note_us": 29307621,
      "t_trigger_us": 29171658,
      "is_ai": false,
      "track_id": 0,
      "velocity": 0,
      "is_motor": true,
      "motor_id": 1,
      "accel_val": 2000,
      "base_duration_us": 230769
    },
    {
      "id": "M_295",
      "pitch": 73,
      "t_note_us": 29307621,
      "t_trigger_us": 29171658,
      "is_ai": false,
      "track_id": 0,
      "velocity": 0,
      "is_motor": true,
      "motor_id": 0,
      "accel_val": 2000,
      "base_duration_us": 230769
    },
    {
      "id": "M_296",
      "pitch": 62,
      "t_note_us": 29538390,
      "t_trigger_us": 29402427,
      "is_ai": false,
      "track_id": 0,
      "velocity": 0,
      "is_motor": true,
      "motor_id": 1,
      "accel_val": 2000,
      "base_duration_us": 230769
    },
    {
      "id": "M_297",
      "pitch": 50,
      "t_note_us": 29538390,
      "t_trigger_us": 29402427,
      "is_ai": false,
      "track_id": 0,
      "velocity": 0,
      "is_motor": true,
      "motor_id": 0,
      "accel_val": 2000,
      "base_duration_us": 230769
    },
    {
      "id": "M_299",
      "pitch": 84,
      "t_note_us": 29769159,
      "t_trigger_us": 29633196,
      "is_ai": true,
      "track_id": 3,
      "velocity": 0,
      "is_motor": false,
      "motor_id": 0,
      "accel_val": 2000,
      "base_duration_us": 115384
    },
    {
      "id": "M_301",
      "pitch": 77,
      "t_note_us": 29769159,
      "t_trigger_us": 29633196,
      "is_ai": false,
      "track_id": 0,
      "velocity": 0,
      "is_motor": true,
      "motor_id": 2,
      "accel_val": 2000,
      "base_duration_us": 230768
    },
    {
      "id": "M_302",
      "pitch": 74,
      "t_note_us": 29769159,
      "t_trigger_us": 29633196,
      "is_ai": false,
      "track_id": 0,
      "velocity": 0,
      "is_motor": true,
      "motor_id": 1,
      "accel_val": 2000,
      "base_duration_us": 230768
    },
    {
      "id": "M_300",
      "pitch": 86,
      "t_note_us": 29884543,
      "t_trigger_us": 29748580,
      "is_ai": true,
      "track_id": 4,
      "velocity": 0,
      "is_motor": false,
      "motor_id": 0,
      "accel_val": 2000,
      "base_duration_us": 115384
    },
    {
      "id": "M_303",
      "pitch": 89,
      "t_note_us": 29999927,
      "t_trigger_us": 29863964,
      "is_ai": true,
      "track_id": 6,
      "velocity": 0,
      "is_motor": false,
      "motor_id": 0,
      "accel_val": 2000,
      "base_duration_us": 115384
    },
    {
      "id": "M_305",
      "pitch": 62,
      "t_note_us": 29999927,
      "t_trigger_us": 29863964,
      "is_ai": false,
      "track_id": 0,
      "velocity": 0,
      "is_motor": true,
      "motor_id": 1,
      "accel_val": 2000,
      "base_duration_us": 230768
    },
    {
      "id": "M_306",
      "pitch": 50,
      "t_note_us": 29999927,
      "t_trigger_us": 29863964,
      "is_ai": false,
      "track_id": 0,
      "velocity": 0,
      "is_motor": true,
      "motor_id": 0,
      "accel_val": 2000,
      "base_duration_us": 230768
    },
    {
      "id": "M_304",
      "pitch": 91,
      "t_note_us": 30115311,
      "t_trigger_us": 29979348,
      "is_ai": true,
      "track_id": 7,
      "velocity": 0,
      "is_motor": false,
      "motor_id": 0,
      "accel_val": 2000,
      "base_duration_us": 115384
    },
    {
      "id": "M_307",
      "pitch": 93,
      "t_note_us": 30230695,
      "t_trigger_us": 30094732,
      "is_ai": true,
      "track_id": 8,
      "velocity": 0,
      "is_motor": false,
      "motor_id": 0,
      "accel_val": 2000,
      "base_duration_us": 115384
    },
    {
      "id": "M_309",
      "pitch": 77,
      "t_note_us": 30230695,
      "t_trigger_us": 30094732,
      "is_ai": false,
      "track_id": 0,
      "velocity": 0,
      "is_motor": true,
      "motor_id": 2,
      "accel_val": 2000,
      "base_duration_us": 230768
    },
    {
      "id": "M_310",
      "pitch": 74,
      "t_note_us": 30230695,
      "t_trigger_us": 30094732,
      "is_ai": false,
      "track_id": 0,
      "velocity": 0,
      "is_motor": true,
      "motor_id": 1,
      "accel_val": 2000,
      "base_duration_us": 230768
    },
    {
      "id": "M_308",
      "pitch": 98,
      "t_note_us": 30346079,
      "t_trigger_us": 30210116,
      "is_ai": true,
      "track_id": 11,
      "velocity": 0,
      "is_motor": false,
      "motor_id": 0,
      "accel_val": 2000,
      "base_duration_us": 115384
    },
    {
      "id": "M_311",
      "pitch": 96,
      "t_note_us": 30461463,
      "t_trigger_us": 30325500,
      "is_ai": true,
      "track_id": 10,
      "velocity": 0,
      "is_motor": false,
      "motor_id": 0,
      "accel_val": 2000,
      "base_duration_us": 115384
    },
    {
      "id": "M_313",
      "pitch": 62,
      "t_note_us": 30461463,
      "t_trigger_us": 30325500,
      "is_ai": false,
      "track_id": 0,
      "velocity": 0,
      "is_motor": true,
      "motor_id": 1,
      "accel_val": 2000,
      "base_duration_us": 230768
    },
    {
      "id": "M_314",
      "pitch": 50,
      "t_note_us": 30461463,
      "t_trigger_us": 30325500,
      "is_ai": false,
      "track_id": 0,
      "velocity": 0,
      "is_motor": true,
      "motor_id": 0,
      "accel_val": 2000,
      "base_duration_us": 230768
    },
    {
      "id": "M_312",
      "pitch": 91,
      "t_note_us": 30576847,
      "t_trigger_us": 30440884,
      "is_ai": true,
      "track_id": 7,
      "velocity": 0,
      "is_motor": false,
      "motor_id": 0,
      "accel_val": 2000,
      "base_duration_us": 115384
    },
    {
      "id": "M_315",
      "pitch": 93,
      "t_note_us": 30692231,
      "t_trigger_us": 30556268,
      "is_ai": true,
      "track_id": 8,
      "velocity": 0,
      "is_motor": false,
      "motor_id": 0,
      "accel_val": 2000,
      "base_duration_us": 115384
    },
    {
      "id": "M_317",
      "pitch": 74,
      "t_note_us": 30692231,
      "t_trigger_us": 30556268,
      "is_ai": false,
      "track_id": 0,
      "velocity": 0,
      "is_motor": true,
      "motor_id": 1,
      "accel_val": 2000,
      "base_duration_us": 230768
    },
    {
      "id": "M_318",
      "pitch": 77,
      "t_note_us": 30692231,
      "t_trigger_us": 30556268,
      "is_ai": false,
      "track_id": 0,
      "velocity": 0,
      "is_motor": true,
      "motor_id": 2,
      "accel_val": 2000,
      "base_duration_us": 230768
    },
    {
      "id": "M_316",
      "pitch": 86,
      "t_note_us": 30807615,
      "t_trigger_us": 30671652,
      "is_ai": true,
      "track_id": 4,
      "velocity": 0,
      "is_motor": false,
      "motor_id": 0,
      "accel_val": 2000,
      "base_duration_us": 115384
    },
    {
      "id": "M_321",
      "pitch": 89,
      "t_note_us": 30922999,
      "t_trigger_us": 30787036,
      "is_ai": true,
      "track_id": 6,
      "velocity": 0,
      "is_motor": false,
      "motor_id": 0,
      "accel_val": 2000,
      "base_duration_us": 461538
    },
    {
      "id": "M_319",
      "pitch": 62,
      "t_note_us": 30922999,
      "t_trigger_us": 30787036,
      "is_ai": false,
      "track_id": 0,
      "velocity": 0,
      "is_motor": true,
      "motor_id": 1,
      "accel_val": 2000,
      "base_duration_us": 461538
    },
    {
      "id": "M_320",
      "pitch": 50,
      "t_note_us": 30922999,
      "t_trigger_us": 30787036,
      "is_ai": false,
      "track_id": 0,
      "velocity": 0,
      "is_motor": true,
      "motor_id": 0,
      "accel_val": 2000,
      "base_duration_us": 461538
    },
    {
      "id": "M_322",
      "pitch": 74,
      "t_note_us": 31384537,
      "t_trigger_us": 31248574,
      "is_ai": false,
      "track_id": 0,
      "velocity": 0,
      "is_motor": true,
      "motor_id": 1,
      "accel_val": 2000,
      "base_duration_us": 230769
    },
    {
      "id": "M_323",
      "pitch": 58,
      "t_note_us": 31384537,
      "t_trigger_us": 31248574,
      "is_ai": false,
      "track_id": 0,
      "velocity": 0,
      "is_motor": true,
      "motor_id": 0,
      "accel_val": 2000,
      "base_duration_us": 230769
    },
    {
      "id": "M_324",
      "pitch": 58,
      "t_note_us": 31615306,
      "t_trigger_us": 31479343,
      "is_ai": false,
      "track_id": 0,
      "velocity": 0,
      "is_motor": true,
      "motor_id": 0,
      "accel_val": 2000,
      "base_duration_us": 230769
    },
    {
      "id": "M_325",
      "pitch": 76,
      "t_note_us": 31615306,
      "t_trigger_us": 31479343,
      "is_ai": false,
      "track_id": 0,
      "velocity": 0,
      "is_motor": true,
      "motor_id": 2,
      "accel_val": 2000,
      "base_duration_us": 230769
    },
    {
      "id": "M_326",
      "pitch": 65,
      "t_note_us": 31846075,
      "t_trigger_us": 31710112,
      "is_ai": false,
      "track_id": 0,
      "velocity": 0,
      "is_motor": true,
      "motor_id": 1,
      "accel_val": 2000,
      "base_duration_us": 230769
    },
    {
      "id": "M_327",
      "pitch": 62,
      "t_note_us": 31846075,
      "t_trigger_us": 31710112,
      "is_ai": false,
      "track_id": 0,
      "velocity": 0,
      "is_motor": true,
      "motor_id": 0,
      "accel_val": 2000,
      "base_duration_us": 230769
    },
    {
      "id": "M_328",
      "pitch": 77,
      "t_note_us": 31846075,
      "t_trigger_us": 31710112,
      "is_ai": false,
      "track_id": 0,
      "velocity": 0,
      "is_motor": true,
      "motor_id": 2,
      "accel_val": 2000,
      "base_duration_us": 230769
    },
    {
      "id": "M_329",
      "pitch": 58,
      "t_note_us": 32076844,
      "t_trigger_us": 31940881,
      "is_ai": false,
      "track_id": 0,
      "velocity": 0,
      "is_motor": true,
      "motor_id": 0,
      "accel_val": 2000,
      "base_duration_us": 230769
    },
    {
      "id": "M_331",
      "pitch": 76,
      "t_note_us": 32076844,
      "t_trigger_us": 31940881,
      "is_ai": false,
      "track_id": 0,
      "velocity": 0,
      "is_motor": true,
      "motor_id": 2,
      "accel_val": 2000,
      "base_duration_us": 461538
    },
    {
      "id": "M_330",
      "pitch": 57,
      "t_note_us": 32307613,
      "t_trigger_us": 32171650,
      "is_ai": false,
      "track_id": 0,
      "velocity": 0,
      "is_motor": true,
      "motor_id": 0,
      "accel_val": 2000,
      "base_duration_us": 230769
    },
    {
      "id": "M_332",
      "pitch": 57,
      "t_note_us": 32538382,
      "t_trigger_us": 32402419,
      "is_ai": false,
      "track_id": 0,
      "velocity": 0,
      "is_motor": true,
      "motor_id": 0,
      "accel_val": 2000,
      "base_duration_us": 230769
    },
    {
      "id": "M_333",
      "pitch": 72,
      "t_note_us": 32538382,
      "t_trigger_us": 32402419,
      "is_ai": false,
      "track_id": 0,
      "velocity": 0,
      "is_motor": true,
      "motor_id": 1,
      "accel_val": 2000,
      "base_duration_us": 230769
    },
    {
      "id": "M_334",
      "pitch": 61,
      "t_note_us": 32769151,
      "t_trigger_us": 32633188,
      "is_ai": false,
      "track_id": 0,
      "velocity": 0,
      "is_motor": true,
      "motor_id": 1,
      "accel_val": 2000,
      "base_duration_us": 230769
    },
    {
      "id": "M_335",
      "pitch": 64,
      "t_note_us": 32769151,
      "t_trigger_us": 32633188,
      "is_ai": false,
      "track_id": 0,
      "velocity": 0,
      "is_motor": true,
      "motor_id": 0,
      "accel_val": 2000,
      "base_duration_us": 230769
    },
    {
      "id": "M_336",
      "pitch": 69,
      "t_note_us": 32769151,
      "t_trigger_us": 32633188,
      "is_ai": false,
      "track_id": 0,
      "velocity": 0,
      "is_motor": true,
      "motor_id": 2,
      "accel_val": 2000,
      "base_duration_us": 230769
    },
    {
      "id": "M_337",
      "pitch": 57,
      "t_note_us": 32999920,
      "t_trigger_us": 32863957,
      "is_ai": false,
      "track_id": 0,
      "velocity": 0,
      "is_motor": true,
      "motor_id": 0,
      "accel_val": 2000,
      "base_duration_us": 230769
    },
    {
      "id": "M_339",
      "pitch": 72,
      "t_note_us": 32999920,
      "t_trigger_us": 32863957,
      "is_ai": false,
      "track_id": 0,
      "velocity": 0,
      "is_motor": true,
      "motor_id": 1,
      "accel_val": 2000,
      "base_duration_us": 461538
    },
    {
      "id": "M_338",
      "pitch": 62,
      "t_note_us": 33230689,
      "t_trigger_us": 33094726,
      "is_ai": false,
      "track_id": 0,
      "velocity": 0,
      "is_motor": true,
      "motor_id": 0,
      "accel_val": 2000,
      "base_duration_us": 230769
    },
    {
      "id": "M_340",
      "pitch": 62,
      "t_note_us": 33461458,
      "t_trigger_us": 33325495,
      "is_ai": false,
      "track_id": 0,
      "velocity": 0,
      "is_motor": true,
      "motor_id": 1,
      "accel_val": 2000,
      "base_duration_us": 230769
    },
    {
      "id": "M_343",
      "pitch": 74,
      "t_note_us": 33461458,
      "t_trigger_us": 33325495,
      "is_ai": false,
      "track_id": 0,
      "velocity": 0,
      "is_motor": true,
      "motor_id": 0,
      "accel_val": 2000,
      "base_duration_us": 461538
    },
    {
      "id": "M_341",
      "pitch": 65,
      "t_note_us": 33692227,
      "t_trigger_us": 33556264,
      "is_ai": false,
      "track_id": 0,
      "velocity": 0,
      "is_motor": true,
      "motor_id": 1,
      "accel_val": 2000,
      "base_duration_us": 230769
    },
    {
      "id": "M_342",
      "pitch": 69,
      "t_note_us": 33692227,
      "t_trigger_us": 33556264,
      "is_ai": false,
      "track_id": 0,
      "velocity": 0,
      "is_motor": true,
      "motor_id": 2,
      "accel_val": 2000,
      "base_duration_us": 230769
    },
    {
      "id": "M_344",
      "pitch": 72,
      "t_note_us": 33922996,
      "t_trigger_us": 33787033,
      "is_ai": false,
      "track_id": 0,
      "velocity": 0,
      "is_motor": true,
      "motor_id": 1,
      "accel_val": 2000,
      "base_duration_us": 230769
    },
    {
      "id": "M_345",
      "pitch": 62,
      "t_note_us": 33922996,
      "t_trigger_us": 33787033,
      "is_ai": false,
      "track_id": 0,
      "velocity": 0,
      "is_motor": true,
      "motor_id": 0,
      "accel_val": 2000,
      "base_duration_us": 230769
    },
    {
      "id": "M_346",
      "pitch": 60,
      "t_note_us": 34153765,
      "t_trigger_us": 34017802,
      "is_ai": false,
      "track_id": 0,
      "velocity": 0,
      "is_motor": true,
      "motor_id": 1,
      "accel_val": 2000,
      "base_duration_us": 230769
    },
    {
      "id": "M_347",
      "pitch": 72,
      "t_note_us": 34153765,
      "t_trigger_us": 34017802,
      "is_ai": false,
      "track_id": 0,
      "velocity": 0,
      "is_motor": true,
      "motor_id": 0,
      "accel_val": 2000,
      "base_duration_us": 230769
    },
    {
      "id": "M_348",
      "pitch": 60,
      "t_note_us": 34384534,
      "t_trigger_us": 34248571,
      "is_ai": false,
      "track_id": 0,
      "velocity": 0,
      "is_motor": true,
      "motor_id": 1,
      "accel_val": 2000,
      "base_duration_us": 230769
    },
    {
      "id": "M_349",
      "pitch": 74,
      "t_note_us": 34384534,
      "t_trigger_us": 34248571,
      "is_ai": false,
      "track_id": 0,
      "velocity": 0,
      "is_motor": true,
      "motor_id": 0,
      "accel_val": 2000,
      "base_duration_us": 230769
    },
    {
      "id": "M_350",
      "pitch": 77,
      "t_note_us": 34615303,
      "t_trigger_us": 34479340,
      "is_ai": false,
      "track_id": 0,
      "velocity": 0,
      "is_motor": true,
      "motor_id": 2,
      "accel_val": 2000,
      "base_duration_us": 230769
    },
    {
      "id": "M_351",
      "pitch": 64,
      "t_note_us": 34615303,
      "t_trigger_us": 34479340,
      "is_ai": false,
      "track_id": 0,
      "velocity": 0,
      "is_motor": true,
      "motor_id": 1,
      "accel_val": 2000,
      "base_duration_us": 230769
    },
    {
      "id": "M_352",
      "pitch": 67,
      "t_note_us": 34615303,
      "t_trigger_us": 34479340,
      "is_ai": false,
      "track_id": 0,
      "velocity": 0,
      "is_motor": true,
      "motor_id": 0,
      "accel_val": 2000,
      "base_duration_us": 230769
    },
    {
      "id": "M_353",
      "pitch": 67,
      "t_note_us": 34846072,
      "t_trigger_us": 34710109,
      "is_ai": false,
      "track_id": 0,
      "velocity": 0,
      "is_motor": true,
      "motor_id": 1,
      "accel_val": 2000,
      "base_duration_us": 230769
    },
    {
      "id": "M_354",
      "pitch": 60,
      "t_note_us": 34846072,
      "t_trigger_us": 34710109,
      "is_ai": false,
      "track_id": 0,
      "velocity": 0,
      "is_motor": true,
      "motor_id": 0,
      "accel_val": 2000,
      "base_duration_us": 230769
    },
    {
      "id": "M_355",
      "pitch": 69,
      "t_note_us": 35076841,
      "t_trigger_us": 34940878,
      "is_ai": false,
      "track_id": 0,
      "velocity": 0,
      "is_motor": true,
      "motor_id": 1,
      "accel_val": 2000,
      "base_duration_us": 230769
    },
    {
      "id": "M_356",
      "pitch": 58,
      "t_note_us": 35076841,
      "t_trigger_us": 34940878,
      "is_ai": false,
      "track_id": 0,
      "velocity": 0,
      "is_motor": true,
      "motor_id": 0,
      "accel_val": 2000,
      "base_duration_us": 230769
    },
    {
      "id": "M_357",
      "pitch": 58,
      "t_note_us": 35307610,
      "t_trigger_us": 35171647,
      "is_ai": false,
      "track_id": 0,
      "velocity": 0,
      "is_motor": true,
      "motor_id": 0,
      "accel_val": 2000,
      "base_duration_us": 230769
    },
    {
      "id": "M_358",
      "pitch": 72,
      "t_note_us": 35307610,
      "t_trigger_us": 35171647,
      "is_ai": false,
      "track_id": 0,
      "velocity": 0,
      "is_motor": true,
      "motor_id": 1,
      "accel_val": 2000,
      "base_duration_us": 230769
    },
    {
      "id": "M_359",
      "pitch": 65,
      "t_note_us": 35538379,
      "t_trigger_us": 35402416,
      "is_ai": false,
      "track_id": 0,
      "velocity": 0,
      "is_motor": true,
      "motor_id": 1,
      "accel_val": 2000,
      "base_duration_us": 230769
    },
    {
      "id": "M_360",
      "pitch": 62,
      "t_note_us": 35538379,
      "t_trigger_us": 35402416,
      "is_ai": false,
      "track_id": 0,
      "velocity": 0,
      "is_motor": true,
      "motor_id": 0,
      "accel_val": 2000,
      "base_duration_us": 230769
    },
    {
      "id": "M_361",
      "pitch": 74,
      "t_note_us": 35538379,
      "t_trigger_us": 35402416,
      "is_ai": false,
      "track_id": 0,
      "velocity": 0,
      "is_motor": true,
      "motor_id": 2,
      "accel_val": 2000,
      "base_duration_us": 230769
    },
    {
      "id": "M_362",
      "pitch": 58,
      "t_note_us": 35769148,
      "t_trigger_us": 35633185,
      "is_ai": false,
      "track_id": 0,
      "velocity": 0,
      "is_motor": true,
      "motor_id": 0,
      "accel_val": 2000,
      "base_duration_us": 230769
    },
    {
      "id": "M_363",
      "pitch": 69,
      "t_note_us": 35769148,
      "t_trigger_us": 35633185,
      "is_ai": false,
      "track_id": 0,
      "velocity": 0,
      "is_motor": true,
      "motor_id": 1,
      "accel_val": 2000,
      "base_duration_us": 230769
    },
    {
      "id": "M_364",
      "pitch": 67,
      "t_note_us": 35999917,
      "t_trigger_us": 35863954,
      "is_ai": false,
      "track_id": 0,
      "velocity": 0,
      "is_motor": true,
      "motor_id": 1,
      "accel_val": 2000,
      "base_duration_us": 230769
    },
    {
      "id": "M_365",
      "pitch": 57,
      "t_note_us": 35999917,
      "t_trigger_us": 35863954,
      "is_ai": false,
      "track_id": 0,
      "velocity": 0,
      "is_motor": true,
      "motor_id": 0,
      "accel_val": 2000,
      "base_duration_us": 230769
    },
    {
      "id": "M_367",
      "pitch": 84,
      "t_note_us": 36230686,
      "t_trigger_us": 36094723,
      "is_ai": true,
      "track_id": 3,
      "velocity": 0,
      "is_motor": false,
      "motor_id": 0,
      "accel_val": 2000,
      "base_duration_us": 230769
    },
    {
      "id": "M_366",
      "pitch": 57,
      "t_note_us": 36230686,
      "t_trigger_us": 36094723,
      "is_ai": false,
      "track_id": 0,
      "velocity": 0,
      "is_motor": true,
      "motor_id": 0,
      "accel_val": 2000,
      "base_duration_us": 230769
    },
    {
      "id": "M_368",
      "pitch": 82,
      "t_note_us": 36461455,
      "t_trigger_us": 36325492,
      "is_ai": true,
      "track_id": 0,
      "velocity": 0,
      "is_motor": true,
      "motor_id": 2,
      "accel_val": 2000,
      "base_duration_us": 230769
    },
    {
      "id": "M_369",
      "pitch": 64,
      "t_note_us": 36461455,
      "t_trigger_us": 36325492,
      "is_ai": false,
      "track_id": 0,
      "velocity": 0,
      "is_motor": true,
      "motor_id": 1,
      "accel_val": 2000,
      "base_duration_us": 230769
    },
    {
      "id": "M_370",
      "pitch": 61,
      "t_note_us": 36461455,
      "t_trigger_us": 36325492,
      "is_ai": false,
      "track_id": 0,
      "velocity": 0,
      "is_motor": true,
      "motor_id": 0,
      "accel_val": 2000,
      "base_duration_us": 230769
    },
    {
      "id": "M_373",
      "pitch": 82,
      "t_note_us": 36692224,
      "t_trigger_us": 36556261,
      "is_ai": true,
      "track_id": 0,
      "velocity": 0,
      "is_motor": true,
      "motor_id": 2,
      "accel_val": 2000,
      "base_duration_us": 461538
    },
    {
      "id": "M_371",
      "pitch": 57,
      "t_note_us": 36692224,
      "t_trigger_us": 36556261,
      "is_ai": false,
      "track_id": 0,
      "velocity": 0,
      "is_motor": true,
      "motor_id": 0,
      "accel_val": 2000,
      "base_duration_us": 230769
    },
    {
      "id": "M_372",
      "pitch": 62,
      "t_note_us": 36922993,
      "t_trigger_us": 36787030,
      "is_ai": false,
      "track_id": 0,
      "velocity": 0,
      "is_motor": true,
      "motor_id": 1,
      "accel_val": 2000,
      "base_duration_us": 230769
    },
    {
      "id": "M_374",
      "pitch": 69,
      "t_note_us": 37153762,
      "t_trigger_us": 37017799,
      "is_ai": false,
      "track_id": 0,
      "velocity": 0,
      "is_motor": true,
      "motor_id": 1,
      "accel_val": 2000,
      "base_duration_us": 230769
    },
    {
      "id": "M_375",
      "pitch": 62,
      "t_note_us": 37153762,
      "t_trigger_us": 37017799,
      "is_ai": false,
      "track_id": 0,
      "velocity": 0,
      "is_motor": true,
      "motor_id": 0,
      "accel_val": 2000,
      "base_duration_us": 230769
    },
    {
      "id": "M_376",
      "pitch": 65,
      "t_note_us": 37384531,
      "t_trigger_us": 37248568,
      "is_ai": false,
      "track_id": 0,
      "velocity": 0,
      "is_motor": true,
      "motor_id": 1,
      "accel_val": 2000,
      "base_duration_us": 230769
    },
    {
      "id": "M_377",
      "pitch": 69,
      "t_note_us": 37384531,
      "t_trigger_us": 37248568,
      "is_ai": false,
      "track_id": 0,
      "velocity": 0,
      "is_motor": true,
      "motor_id": 2,
      "accel_val": 2000,
      "base_duration_us": 230769
    },
    {
      "id": "M_378",
      "pitch": 69,
      "t_note_us": 37615300,
      "t_trigger_us": 37479337,
      "is_ai": false,
      "track_id": 0,
      "velocity": 0,
      "is_motor": true,
      "motor_id": 1,
      "accel_val": 2000,
      "base_duration_us": 230769
    },
    {
      "id": "M_379",
      "pitch": 62,
      "t_note_us": 37615300,
      "t_trigger_us": 37479337,
      "is_ai": false,
      "track_id": 0,
      "velocity": 0,
      "is_motor": true,
      "motor_id": 0,
      "accel_val": 2000,
      "base_duration_us": 230769
    },
    {
      "id": "M_380",
      "pitch": 86,
      "t_note_us": 37846069,
      "t_trigger_us": 37710106,
      "is_ai": true,
      "track_id": 4,
      "velocity": 0,
      "is_motor": false,
      "motor_id": 0,
      "accel_val": 2000,
      "base_duration_us": 230769
    },
    {
      "id": "M_381",
      "pitch": 60,
      "t_note_us": 37846069,
      "t_trigger_us": 37710106,
      "is_ai": false,
      "track_id": 0,
      "velocity": 0,
      "is_motor": true,
      "motor_id": 1,
      "accel_val": 2000,
      "base_duration_us": 230769
    },
    {
      "id": "M_383",
      "pitch": 84,
      "t_note_us": 38076838,
      "t_trigger_us": 37940875,
      "is_ai": true,
      "track_id": 3,
      "velocity": 0,
      "is_motor": false,
      "motor_id": 0,
      "accel_val": 2000,
      "base_duration_us": 230769
    },
    {
      "id": "M_382",
      "pitch": 60,
      "t_note_us": 38076838,
      "t_trigger_us": 37940875,
      "is_ai": false,
      "track_id": 0,
      "velocity": 0,
      "is_motor": true,
      "motor_id": 1,
      "accel_val": 2000,
      "base_duration_us": 230769
    },
    {
      "id": "M_384",
      "pitch": 67,
      "t_note_us": 38307607,
      "t_trigger_us": 38171644,
      "is_ai": false,
      "track_id": 0,
      "velocity": 0,
      "is_motor": true,
      "motor_id": 1,
      "accel_val": 2000,
      "base_duration_us": 230769
    },
    {
      "id": "M_385",
      "pitch": 69,
      "t_note_us": 38307607,
      "t_trigger_us": 38171644,
      "is_ai": false,
      "track_id": 0,
      "velocity": 0,
      "is_motor": true,
      "motor_id": 2,
      "accel_val": 2000,
      "base_duration_us": 230769
    },
    {
      "id": "M_386",
      "pitch": 64,
      "t_note_us": 38307607,
      "t_trigger_us": 38171644,
      "is_ai": false,
      "track_id": 0,
      "velocity": 0,
      "is_motor": true,
      "motor_id": 0,
      "accel_val": 2000,
      "base_duration_us": 230769
    },
    {
      "id": "M_387",
      "pitch": 67,
      "t_note_us": 38538376,
      "t_trigger_us": 38402413,
      "is_ai": false,
      "track_id": 0,
      "velocity": 0,
      "is_motor": true,
      "motor_id": 1,
      "accel_val": 2000,
      "base_duration_us": 230769
    },
    {
      "id": "M_388",
      "pitch": 60,
      "t_note_us": 38538376,
      "t_trigger_us": 38402413,
      "is_ai": false,
      "track_id": 0,
      "velocity": 0,
      "is_motor": true,
      "motor_id": 0,
      "accel_val": 2000,
      "base_duration_us": 230769
    },
    {
      "id": "M_389",
      "pitch": 77,
      "t_note_us": 38769145,
      "t_trigger_us": 38633182,
      "is_ai": false,
      "track_id": 0,
      "velocity": 0,
      "is_motor": true,
      "motor_id": 2,
      "accel_val": 2000,
      "base_duration_us": 230769
    },
    {
      "id": "M_390",
      "pitch": 58,
      "t_note_us": 38769145,
      "t_trigger_us": 38633182,
      "is_ai": false,
      "track_id": 0,
      "velocity": 0,
      "is_motor": true,
      "motor_id": 0,
      "accel_val": 2000,
      "base_duration_us": 230769
    },
    {
      "id": "M_391",
      "pitch": 58,
      "t_note_us": 38999914,
      "t_trigger_us": 38863951,
      "is_ai": false,
      "track_id": 0,
      "velocity": 0,
      "is_motor": true,
      "motor_id": 0,
      "accel_val": 2000,
      "base_duration_us": 230769
    },
    {
      "id": "M_392",
      "pitch": 74,
      "t_note_us": 38999914,
      "t_trigger_us": 38863951,
      "is_ai": false,
      "track_id": 0,
      "velocity": 0,
      "is_motor": true,
      "motor_id": 1,
      "accel_val": 2000,
      "base_duration_us": 230769
    },
    {
      "id": "M_393",
      "pitch": 62,
      "t_note_us": 39230683,
      "t_trigger_us": 39094720,
      "is_ai": false,
      "track_id": 0,
      "velocity": 0,
      "is_motor": true,
      "motor_id": 1,
      "accel_val": 2000,
      "base_duration_us": 230769
    },
    {
      "id": "M_394",
      "pitch": 65,
      "t_note_us": 39230683,
      "t_trigger_us": 39094720,
      "is_ai": false,
      "track_id": 0,
      "velocity": 0,
      "is_motor": true,
      "motor_id": 0,
      "accel_val": 2000,
      "base_duration_us": 230769
    },
    {
      "id": "M_395",
      "pitch": 77,
      "t_note_us": 39230683,
      "t_trigger_us": 39094720,
      "is_ai": false,
      "track_id": 0,
      "velocity": 0,
      "is_motor": true,
      "motor_id": 2,
      "accel_val": 2000,
      "base_duration_us": 230769
    },
    {
      "id": "M_396",
      "pitch": 74,
      "t_note_us": 39461452,
      "t_trigger_us": 39325489,
      "is_ai": false,
      "track_id": 0,
      "velocity": 0,
      "is_motor": true,
      "motor_id": 1,
      "accel_val": 2000,
      "base_duration_us": 230769
    },
    {
      "id": "M_397",
      "pitch": 58,
      "t_note_us": 39461452,
      "t_trigger_us": 39325489,
      "is_ai": false,
      "track_id": 0,
      "velocity": 0,
      "is_motor": true,
      "motor_id": 0,
      "accel_val": 2000,
      "base_duration_us": 230769
    },
    {
      "id": "M_398",
      "pitch": 60,
      "t_note_us": 39692221,
      "t_trigger_us": 39556258,
      "is_ai": false,
      "track_id": 0,
      "velocity": 0,
      "is_motor": true,
      "motor_id": 1,
      "accel_val": 2000,
      "base_duration_us": 230769
    },
    {
      "id": "M_400",
      "pitch": 77,
      "t_note_us": 39692221,
      "t_trigger_us": 39556258,
      "is_ai": false,
      "track_id": 0,
      "velocity": 0,
      "is_motor": true,
      "motor_id": 2,
      "accel_val": 2000,
      "base_duration_us": 346153
    },
    {
      "id": "M_399",
      "pitch": 60,
      "t_note_us": 39922990,
      "t_trigger_us": 39787027,
      "is_ai": false,
      "track_id": 0,
      "velocity": 0,
      "is_motor": true,
      "motor_id": 1,
      "accel_val": 2000,
      "base_duration_us": 115384
    },
    {
      "id": "M_401",
      "pitch": 67,
      "t_note_us": 40038374,
      "t_trigger_us": 39902411,
      "is_ai": false,
      "track_id": 0,
      "velocity": 0,
      "is_motor": true,
      "motor_id": 1,
      "accel_val": 2000,
      "base_duration_us": 230769
    },
    {
      "id": "M_402",
      "pitch": 64,
      "t_note_us": 40038374,
      "t_trigger_us": 39902411,
      "is_ai": false,
      "track_id": 0,
      "velocity": 0,
      "is_motor": true,
      "motor_id": 0,
      "accel_val": 2000,
      "base_duration_us": 230769
    },
    {
      "id": "M_405",
      "pitch": 67,
      "t_note_us": 40038374,
      "t_trigger_us": 39902411,
      "is_ai": false,
      "track_id": 0,
      "velocity": 0,
      "is_motor": true,
      "motor_id": 2,
      "accel_val": 2000,
      "base_duration_us": 346153
    },
    {
      "id": "M_403",
      "pitch": 67,
      "t_note_us": 40269143,
      "t_trigger_us": 40133180,
      "is_ai": false,
      "track_id": 0,
      "velocity": 0,
      "is_motor": true,
      "motor_id": 1,
      "accel_val": 2000,
      "base_duration_us": 115384
    },
    {
      "id": "M_404",
      "pitch": 64,
      "t_note_us": 40269143,
      "t_trigger_us": 40133180,
      "is_ai": false,
      "track_id": 0,
      "velocity": 0,
      "is_motor": true,
      "motor_id": 0,
      "accel_val": 2000,
      "base_duration_us": 115384
    },
    {
      "id": "M_406",
      "pitch": 60,
      "t_note_us": 40384527,
      "t_trigger_us": 40248564,
      "is_ai": false,
      "track_id": 0,
      "velocity": 0,
      "is_motor": true,
      "motor_id": 1,
      "accel_val": 2000,
      "base_duration_us": 230769
    },
    {
      "id": "M_407",
      "pitch": 76,
      "t_note_us": 40384527,
      "t_trigger_us": 40248564,
      "is_ai": false,
      "track_id": 0,
      "velocity": 0,
      "is_motor": true,
      "motor_id": 2,
      "accel_val": 2000,
      "base_duration_us": 230769
    },
    {
      "id": "M_408",
      "pitch": 76,
      "t_note_us": 40615296,
      "t_trigger_us": 40479333,
      "is_ai": false,
      "track_id": 0,
      "velocity": 0,
      "is_motor": true,
      "motor_id": 2,
      "accel_val": 2000,
      "base_duration_us": 230769
    },
    {
      "id": "M_409",
      "pitch": 57,
      "t_note_us": 40615296,
      "t_trigger_us": 40479333,
      "is_ai": false,
      "track_id": 0,
      "velocity": 0,
      "is_motor": true,
      "motor_id": 0,
      "accel_val": 2000,
      "base_duration_us": 230769
    },
    {
      "id": "M_410",
      "pitch": 69,
      "t_note_us": 40846065,
      "t_trigger_us": 40710102,
      "is_ai": false,
      "track_id": 0,
      "velocity": 0,
      "is_motor": true,
      "motor_id": 1,
      "accel_val": 2000,
      "base_duration_us": 115384
    },
    {
      "id": "M_411",
      "pitch": 57,
      "t_note_us": 40846065,
      "t_trigger_us": 40710102,
      "is_ai": false,
      "track_id": 0,
      "velocity": 0,
      "is_motor": true,
      "motor_id": 0,
      "accel_val": 2000,
      "base_duration_us": 230768
    },
    {
      "id": "M_414",
      "pitch": 76,
      "t_note_us": 40961449,
      "t_trigger_us": 40825486,
      "is_ai": false,
      "track_id": 0,
      "velocity": 0,
      "is_motor": true,
      "motor_id": 2,
      "accel_val": 2000,
      "base_duration_us": 346153
    },
    {
      "id": "M_412",
      "pitch": 60,
      "t_note_us": 41076833,
      "t_trigger_us": 40940870,
      "is_ai": false,
      "track_id": 0,
      "velocity": 0,
      "is_motor": true,
      "motor_id": 1,
      "accel_val": 2000,
      "base_duration_us": 230769
    },
    {
      "id": "M_413",
      "pitch": 64,
      "t_note_us": 41076833,
      "t_trigger_us": 40940870,
      "is_ai": false,
      "track_id": 0,
      "velocity": 0,
      "is_motor": true,
      "motor_id": 0,
      "accel_val": 2000,
      "base_duration_us": 230769
    },
    {
      "id": "M_415",
      "pitch": 57,
      "t_note_us": 41307602,
      "t_trigger_us": 41171639,
      "is_ai": false,
      "track_id": 0,
      "velocity": 0,
      "is_motor": true,
      "motor_id": 0,
      "accel_val": 2000,
      "base_duration_us": 230769
    },
    {
      "id": "M_416",
      "pitch": 72,
      "t_note_us": 41307602,
      "t_trigger_us": 41171639,
      "is_ai": false,
      "track_id": 0,
      "velocity": 0,
      "is_motor": true,
      "motor_id": 1,
      "accel_val": 2000,
      "base_duration_us": 230769
    },
    {
      "id": "M_417",
      "pitch": 62,
      "t_note_us": 41538371,
      "t_trigger_us": 41402408,
      "is_ai": false,
      "track_id": 0,
      "velocity": 0,
      "is_motor": true,
      "motor_id": 1,
      "accel_val": 2000,
      "base_duration_us": 230769
    },
    {
      "id": "M_419",
      "pitch": 74,
      "t_note_us": 41538371,
      "t_trigger_us": 41402408,
      "is_ai": false,
      "track_id": 0,
      "velocity": 0,
      "is_motor": true,
      "motor_id": 0,
      "accel_val": 2000,
      "base_duration_us": 461538
    },
    {
      "id": "M_418",
      "pitch": 62,
      "t_note_us": 41769140,
      "t_trigger_us": 41633177,
      "is_ai": false,
      "track_id": 0,
      "velocity": 0,
      "is_motor": true,
      "motor_id": 1,
      "accel_val": 2000,
      "base_duration_us": 230769
    },
    {
      "id": "M_420",
      "pitch": 65,
      "t_note_us": 41999909,
      "t_trigger_us": 41863946,
      "is_ai": false,
      "track_id": 0,
      "velocity": 0,
      "is_motor": true,
      "motor_id": 1,
      "accel_val": 2000,
      "base_duration_us": 230769
    },
    {
      "id": "M_421",
      "pitch": 69,
      "t_note_us": 41999909,
      "t_trigger_us": 41863946,
      "is_ai": false,
      "track_id": 0,
      "velocity": 0,
      "is_motor": true,
      "motor_id": 2,
      "accel_val": 2000,
      "base_duration_us": 230769
    },
    {
      "id": "M_422",
      "pitch": 74,
      "t_note_us": 41999909,
      "t_trigger_us": 41863946,
      "is_ai": false,
      "track_id": 0,
      "velocity": 0,
      "is_motor": true,
      "motor_id": 0,
      "accel_val": 2000,
      "base_duration_us": 230769
    },
    {
      "id": "M_423",
      "pitch": 62,
      "t_note_us": 42230678,
      "t_trigger_us": 42094715,
      "is_ai": false,
      "track_id": 0,
      "velocity": 0,
      "is_motor": true,
      "motor_id": 1,
      "accel_val": 2000,
      "base_duration_us": 230769
    },
    {
      "id": "M_424",
      "pitch": 76,
      "t_note_us": 42230678,
      "t_trigger_us": 42094715,
      "is_ai": false,
      "track_id": 0,
      "velocity": 0,
      "is_motor": true,
      "motor_id": 2,
      "accel_val": 2000,
      "base_duration_us": 230769
    },
    {
      "id": "M_425",
      "pitch": 58,
      "t_note_us": 42461447,
      "t_trigger_us": 42325484,
      "is_ai": false,
      "track_id": 0,
      "velocity": 0,
      "is_motor": true,
      "motor_id": 0,
      "accel_val": 2000,
      "base_duration_us": 230769
    },
    {
      "id": "M_426",
      "pitch": 77,
      "t_note_us": 42461447,
      "t_trigger_us": 42325484,
      "is_ai": false,
      "track_id": 0,
      "velocity": 0,
      "is_motor": true,
      "motor_id": 2,
      "accel_val": 2000,
      "base_duration_us": 230769
    },
    {
      "id": "M_427",
      "pitch": 58,
      "t_note_us": 42692216,
      "t_trigger_us": 42556253,
      "is_ai": false,
      "track_id": 0,
      "velocity": 0,
      "is_motor": true,
      "motor_id": 0,
      "accel_val": 2000,
      "base_duration_us": 230769
    },
    {
      "id": "M_428",
      "pitch": 67,
      "t_note_us": 42692216,
      "t_trigger_us": 42556253,
      "is_ai": false,
      "track_id": 0,
      "velocity": 0,
      "is_motor": true,
      "motor_id": 1,
      "accel_val": 2000,
      "base_duration_us": 230769
    },
    {
      "id": "M_429",
      "pitch": 62,
      "t_note_us": 42922985,
      "t_trigger_us": 42787022,
      "is_ai": false,
      "track_id": 0,
      "velocity": 0,
      "is_motor": true,
      "motor_id": 1,
      "accel_val": 2000,
      "base_duration_us": 230769
    },
    {
      "id": "M_430",
      "pitch": 69,
      "t_note_us": 42922985,
      "t_trigger_us": 42787022,
      "is_ai": false,
      "track_id": 0,
      "velocity": 0,
      "is_motor": true,
      "motor_id": 2,
      "accel_val": 2000,
      "base_duration_us": 230769
    },
    {
      "id": "M_431",
      "pitch": 65,
      "t_note_us": 42922985,
      "t_trigger_us": 42787022,
      "is_ai": false,
      "track_id": 0,
      "velocity": 0,
      "is_motor": true,
      "motor_id": 0,
      "accel_val": 2000,
      "base_duration_us": 230769
    },
    {
      "id": "M_432",
      "pitch": 58,
      "t_note_us": 43153754,
      "t_trigger_us": 43017791,
      "is_ai": false,
      "track_id": 0,
      "velocity": 0,
      "is_motor": true,
      "motor_id": 0,
      "accel_val": 2000,
      "base_duration_us": 230769
    },
    {
      "id": "M_434",
      "pitch": 67,
      "t_note_us": 43153754,
      "t_trigger_us": 43017791,
      "is_ai": false,
      "track_id": 0,
      "velocity": 0,
      "is_motor": true,
      "motor_id": 1,
      "accel_val": 2000,
      "base_duration_us": 461538
    },
    {
      "id": "M_433",
      "pitch": 57,
      "t_note_us": 43384523,
      "t_trigger_us": 43248560,
      "is_ai": false,
      "track_id": 0,
      "velocity": 0,
      "is_motor": true,
      "motor_id": 0,
      "accel_val": 2000,
      "base_duration_us": 230769
    },
    {
      "id": "M_435",
      "pitch": 76,
      "t_note_us": 43615292,
      "t_trigger_us": 43479329,
      "is_ai": false,
      "track_id": 0,
      "velocity": 0,
      "is_motor": true,
      "motor_id": 2,
      "accel_val": 2000,
      "base_duration_us": 230769
    },
    {
      "id": "M_436",
      "pitch": 57,
      "t_note_us": 43615292,
      "t_trigger_us": 43479329,
      "is_ai": false,
      "track_id": 0,
      "velocity": 0,
      "is_motor": true,
      "motor_id": 0,
      "accel_val": 2000,
      "base_duration_us": 230769
    },
    {
      "id": "M_437",
      "pitch": 76,
      "t_note_us": 43846061,
      "t_trigger_us": 43710098,
      "is_ai": false,
      "track_id": 0,
      "velocity": 0,
      "is_motor": true,
      "motor_id": 2,
      "accel_val": 2000,
      "base_duration_us": 230769
    },
    {
      "id": "M_438",
      "pitch": 61,
      "t_note_us": 43846061,
      "t_trigger_us": 43710098,
      "is_ai": false,
      "track_id": 0,
      "velocity": 0,
      "is_motor": true,
      "motor_id": 1,
      "accel_val": 2000,
      "base_duration_us": 230769
    },
    {
      "id": "M_439",
      "pitch": 64,
      "t_note_us": 43846061,
      "t_trigger_us": 43710098,
      "is_ai": false,
      "track_id": 0,
      "velocity": 0,
      "is_motor": true,
      "motor_id": 0,
      "accel_val": 2000,
      "base_duration_us": 230769
    },
    {
      "id": "M_440",
      "pitch": 57,
      "t_note_us": 44076830,
      "t_trigger_us": 43940867,
      "is_ai": false,
      "track_id": 0,
      "velocity": 0,
      "is_motor": true,
      "motor_id": 0,
      "accel_val": 2000,
      "base_duration_us": 230769
    },
    {
      "id": "M_442",
      "pitch": 76,
      "t_note_us": 44076830,
      "t_trigger_us": 43940867,
      "is_ai": false,
      "track_id": 0,
      "velocity": 0,
      "is_motor": true,
      "motor_id": 2,
      "accel_val": 2000,
      "base_duration_us": 461538
    },
    {
      "id": "M_441",
      "pitch": 62,
      "t_note_us": 44307599,
      "t_trigger_us": 44171636,
      "is_ai": false,
      "track_id": 0,
      "velocity": 0,
      "is_motor": true,
      "motor_id": 1,
      "accel_val": 2000,
      "base_duration_us": 230769
    },
    {
      "id": "M_443",
      "pitch": 74,
      "t_note_us": 44538368,
      "t_trigger_us": 44402405,
      "is_ai": false,
      "track_id": 0,
      "velocity": 0,
      "is_motor": true,
      "motor_id": 1,
      "accel_val": 2000,
      "base_duration_us": 230769
    },
    {
      "id": "M_444",
      "pitch": 62,
      "t_note_us": 44538368,
      "t_trigger_us": 44402405,
      "is_ai": false,
      "track_id": 0,
      "velocity": 0,
      "is_motor": true,
      "motor_id": 0,
      "accel_val": 2000,
      "base_duration_us": 230769
    },
    {
      "id": "M_445",
      "pitch": 65,
      "t_note_us": 44769137,
      "t_trigger_us": 44633174,
      "is_ai": false,
      "track_id": 0,
      "velocity": 0,
      "is_motor": true,
      "motor_id": 1,
      "accel_val": 2000,
      "base_duration_us": 115384
    },
    {
      "id": "M_449",
      "pitch": 74,
      "t_note_us": 44769137,
      "t_trigger_us": 44633174,
      "is_ai": false,
      "track_id": 0,
      "velocity": 0,
      "is_motor": true,
      "motor_id": 0,
      "accel_val": 2000,
      "base_duration_us": 461536
    },
    {
      "id": "M_446",
      "pitch": 53,
      "t_note_us": 44884521,
      "t_trigger_us": 44748558,
      "is_ai": false,
      "track_id": 0,
      "velocity": 0,
      "is_motor": true,
      "motor_id": 1,
      "accel_val": 2000,
      "base_duration_us": 115384
    },
    {
      "id": "M_447",
      "pitch": 62,
      "t_note_us": 44999905,
      "t_trigger_us": 44863942,
      "is_ai": false,
      "track_id": 0,
      "velocity": 0,
      "is_motor": true,
      "motor_id": 1,
      "accel_val": 2000,
      "base_duration_us": 115384
    },
    {
      "id": "M_448",
      "pitch": 50,
      "t_note_us": 45115289,
      "t_trigger_us": 44979326,
      "is_ai": false,
      "track_id": 0,
      "velocity": 0,
      "is_motor": true,
      "motor_id": 1,
      "accel_val": 2000,
      "base_duration_us": 115384
    },
    {
      "id": "M_450",
      "pitch": 57,
      "t_note_us": 45230673,
      "t_trigger_us": 45094710,
      "is_ai": false,
      "track_id": 0,
      "velocity": 0,
      "is_motor": true,
      "motor_id": 0,
      "accel_val": 2000,
      "base_duration_us": 230769
    },
    {
      "id": "M_451",
      "pitch": 57,
      "t_note_us": 45461442,
      "t_trigger_us": 45325479,
      "is_ai": false,
      "track_id": 0,
      "velocity": 0,
      "is_motor": true,
      "motor_id": 0,
      "accel_val": 2000,
      "base_duration_us": 230769
    },
    {
      "id": "M_452",
      "pitch": 60,
      "t_note_us": 45692211,
      "t_trigger_us": 45556248,
      "is_ai": false,
      "track_id": 0,
      "velocity": 0,
      "is_motor": true,
      "motor_id": 1,
      "accel_val": 2000,
      "base_duration_us": 230769
    },
    {
      "id": "M_453",
      "pitch": 64,
      "t_note_us": 45692211,
      "t_trigger_us": 45556248,
      "is_ai": false,
      "track_id": 0,
      "velocity": 0,
      "is_motor": true,
      "motor_id": 0,
      "accel_val": 2000,
      "base_duration_us": 230769
    },
    {
      "id": "M_454",
      "pitch": 72,
      "t_note_us": 45922980,
      "t_trigger_us": 45787017,
      "is_ai": false,
      "track_id": 0,
      "velocity": 0,
      "is_motor": true,
      "motor_id": 1,
      "accel_val": 2000,
      "base_duration_us": 230769
    },
    {
      "id": "M_455",
      "pitch": 57,
      "t_note_us": 45922980,
      "t_trigger_us": 45787017,
      "is_ai": false,
      "track_id": 0,
      "velocity": 0,
      "is_motor": true,
      "motor_id": 0,
      "accel_val": 2000,
      "base_duration_us": 230769
    },
    {
      "id": "M_456",
      "pitch": 58,
      "t_note_us": 46153749,
      "t_trigger_us": 46017786,
      "is_ai": false,
      "track_id": 0,
      "velocity": 0,
      "is_motor": true,
      "motor_id": 0,
      "accel_val": 2000,
      "base_duration_us": 230769
    },
    {
      "id": "M_457",
      "pitch": 74,
      "t_note_us": 46153749,
      "t_trigger_us": 46017786,
      "is_ai": false,
      "track_id": 0,
      "velocity": 0,
      "is_motor": true,
      "motor_id": 1,
      "accel_val": 2000,
      "base_duration_us": 230769
    },
    {
      "id": "M_458",
      "pitch": 76,
      "t_note_us": 46384518,
      "t_trigger_us": 46248555,
      "is_ai": false,
      "track_id": 0,
      "velocity": 0,
      "is_motor": true,
      "motor_id": 2,
      "accel_val": 2000,
      "base_duration_us": 230769
    },
    {
      "id": "M_459",
      "pitch": 58,
      "t_note_us": 46384518,
      "t_trigger_us": 46248555,
      "is_ai": false,
      "track_id": 0,
      "velocity": 0,
      "is_motor": true,
      "motor_id": 0,
      "accel_val": 2000,
      "base_duration_us": 230769
    },
    {
      "id": "M_460",
      "pitch": 77,
      "t_note_us": 46615287,
      "t_trigger_us": 46479324,
      "is_ai": false,
      "track_id": 0,
      "velocity": 0,
      "is_motor": true,
      "motor_id": 2,
      "accel_val": 2000,
      "base_duration_us": 230769
    },
    {
      "id": "M_461",
      "pitch": 65,
      "t_note_us": 46615287,
      "t_trigger_us": 46479324,
      "is_ai": false,
      "track_id": 0,
      "velocity": 0,
      "is_motor": true,
      "motor_id": 1,
      "accel_val": 2000,
      "base_duration_us": 230769
    },
    {
      "id": "M_462",
      "pitch": 62,
      "t_note_us": 46615287,
      "t_trigger_us": 46479324,
      "is_ai": false,
      "track_id": 0,
      "velocity": 0,
      "is_motor": true,
      "motor_id": 0,
      "accel_val": 2000,
      "base_duration_us": 230769
    },
    {
      "id": "M_463",
      "pitch": 76,
      "t_note_us": 46846056,
      "t_trigger_us": 46710093,
      "is_ai": false,
      "track_id": 0,
      "velocity": 0,
      "is_motor": true,
      "motor_id": 2,
      "accel_val": 2000,
      "base_duration_us": 230769
    },
    {
      "id": "M_464",
      "pitch": 58,
      "t_note_us": 46846056,
      "t_trigger_us": 46710093,
      "is_ai": false,
      "track_id": 0,
      "velocity": 0,
      "is_motor": true,
      "motor_id": 0,
      "accel_val": 2000,
      "base_duration_us": 230769
    },
    {
      "id": "M_465",
      "pitch": 57,
      "t_note_us": 47076825,
      "t_trigger_us": 46940862,
      "is_ai": false,
      "track_id": 0,
      "velocity": 0,
      "is_motor": true,
      "motor_id": 0,
      "accel_val": 2000,
      "base_duration_us": 230769
    },
    {
      "id": "M_466",
      "pitch": 57,
      "t_note_us": 47307594,
      "t_trigger_us": 47171631,
      "is_ai": false,
      "track_id": 0,
      "velocity": 0,
      "is_motor": true,
      "motor_id": 0,
      "accel_val": 2000,
      "base_duration_us": 230769
    },
    {
      "id": "M_467",
      "pitch": 72,
      "t_note_us": 47307594,
      "t_trigger_us": 47171631,
      "is_ai": false,
      "track_id": 0,
      "velocity": 0,
      "is_motor": true,
      "motor_id": 1,
      "accel_val": 2000,
      "base_duration_us": 230769
    },
    {
      "id": "M_468",
      "pitch": 61,
      "t_note_us": 47538363,
      "t_trigger_us": 47402400,
      "is_ai": false,
      "track_id": 0,
      "velocity": 0,
      "is_motor": true,
      "motor_id": 1,
      "accel_val": 2000,
      "base_duration_us": 230769
    },
    {
      "id": "M_469",
      "pitch": 64,
      "t_note_us": 47538363,
      "t_trigger_us": 47402400,
      "is_ai": false,
      "track_id": 0,
      "velocity": 0,
      "is_motor": true,
      "motor_id": 0,
      "accel_val": 2000,
      "base_duration_us": 230769
    },
    {
      "id": "M_470",
      "pitch": 69,
      "t_note_us": 47538363,
      "t_trigger_us": 47402400,
      "is_ai": false,
      "track_id": 0,
      "velocity": 0,
      "is_motor": true,
      "motor_id": 2,
      "accel_val": 2000,
      "base_duration_us": 230769
    },
    {
      "id": "M_471",
      "pitch": 57,
      "t_note_us": 47769132,
      "t_trigger_us": 47633169,
      "is_ai": false,
      "track_id": 0,
      "velocity": 0,
      "is_motor": true,
      "motor_id": 0,
      "accel_val": 2000,
      "base_duration_us": 230769
    },
    {
      "id": "M_473",
      "pitch": 72,
      "t_note_us": 47769132,
      "t_trigger_us": 47633169,
      "is_ai": false,
      "track_id": 0,
      "velocity": 0,
      "is_motor": true,
      "motor_id": 1,
      "accel_val": 2000,
      "base_duration_us": 461538
    },
    {
      "id": "M_472",
      "pitch": 62,
      "t_note_us": 47999901,
      "t_trigger_us": 47863938,
      "is_ai": false,
      "track_id": 0,
      "velocity": 0,
      "is_motor": true,
      "motor_id": 0,
      "accel_val": 2000,
      "base_duration_us": 230769
    },
    {
      "id": "M_474",
      "pitch": 62,
      "t_note_us": 48230670,
      "t_trigger_us": 48094707,
      "is_ai": false,
      "track_id": 0,
      "velocity": 0,
      "is_motor": true,
      "motor_id": 1,
      "accel_val": 2000,
      "base_duration_us": 230769
    },
    {
      "id": "M_477",
      "pitch": 74,
      "t_note_us": 48230670,
      "t_trigger_us": 48094707,
      "is_ai": false,
      "track_id": 0,
      "velocity": 0,
      "is_motor": true,
      "motor_id": 0,
      "accel_val": 2000,
      "base_duration_us": 461538
    },
    {
      "id": "M_475",
      "pitch": 65,
      "t_note_us": 48461439,
      "t_trigger_us": 48325476,
      "is_ai": false,
      "track_id": 0,
      "velocity": 0,
      "is_motor": true,
      "motor_id": 1,
      "accel_val": 2000,
      "base_duration_us": 230769
    },
    {
      "id": "M_476",
      "pitch": 69,
      "t_note_us": 48461439,
      "t_trigger_us": 48325476,
      "is_ai": false,
      "track_id": 0,
      "velocity": 0,
      "is_motor": true,
      "motor_id": 2,
      "accel_val": 2000,
      "base_duration_us": 230769
    },
    {
      "id": "M_478",
      "pitch": 72,
      "t_note_us": 48692208,
      "t_trigger_us": 48556245,
      "is_ai": false,
      "track_id": 0,
      "velocity": 0,
      "is_motor": true,
      "motor_id": 1,
      "accel_val": 2000,
      "base_duration_us": 230769
    },
    {
      "id": "M_479",
      "pitch": 62,
      "t_note_us": 48692208,
      "t_trigger_us": 48556245,
      "is_ai": false,
      "track_id": 0,
      "velocity": 0,
      "is_motor": true,
      "motor_id": 0,
      "accel_val": 2000,
      "base_duration_us": 230769
    },
    {
      "id": "M_480",
      "pitch": 72,
      "t_note_us": 48922977,
      "t_trigger_us": 48787014,
      "is_ai": false,
      "track_id": 0,
      "velocity": 0,
      "is_motor": true,
      "motor_id": 1,
      "accel_val": 2000,
      "base_duration_us": 230769
    },
    {
      "id": "M_481",
      "pitch": 60,
      "t_note_us": 48922977,
      "t_trigger_us": 48787014,
      "is_ai": false,
      "track_id": 0,
      "velocity": 0,
      "is_motor": true,
      "motor_id": 0,
      "accel_val": 2000,
      "base_duration_us": 230769
    },
    {
      "id": "M_482",
      "pitch": 60,
      "t_note_us": 49153746,
      "t_trigger_us": 49017783,
      "is_ai": false,
      "track_id": 0,
      "velocity": 0,
      "is_motor": true,
      "motor_id": 1,
      "accel_val": 2000,
      "base_duration_us": 230769
    },
    {
      "id": "M_483",
      "pitch": 74,
      "t_note_us": 49153746,
      "t_trigger_us": 49017783,
      "is_ai": false,
      "track_id": 0,
      "velocity": 0,
      "is_motor": true,
      "motor_id": 0,
      "accel_val": 2000,
      "base_duration_us": 230769
    },
    {
      "id": "M_484",
      "pitch": 77,
      "t_note_us": 49384515,
      "t_trigger_us": 49248552,
      "is_ai": false,
      "track_id": 0,
      "velocity": 0,
      "is_motor": true,
      "motor_id": 2,
      "accel_val": 2000,
      "base_duration_us": 230769
    },
    {
      "id": "M_485",
      "pitch": 67,
      "t_note_us": 49384515,
      "t_trigger_us": 49248552,
      "is_ai": false,
      "track_id": 0,
      "velocity": 0,
      "is_motor": true,
      "motor_id": 1,
      "accel_val": 2000,
      "base_duration_us": 230769
    },
    {
      "id": "M_486",
      "pitch": 64,
      "t_note_us": 49384515,
      "t_trigger_us": 49248552,
      "is_ai": false,
      "track_id": 0,
      "velocity": 0,
      "is_motor": true,
      "motor_id": 0,
      "accel_val": 2000,
      "base_duration_us": 230769
    },
    {
      "id": "M_488",
      "pitch": 84,
      "t_note_us": 49615284,
      "t_trigger_us": 49479321,
      "is_ai": true,
      "track_id": 3,
      "velocity": 0,
      "is_motor": false,
      "motor_id": 0,
      "accel_val": 2000,
      "base_duration_us": 230769
    },
    {
      "id": "M_487",
      "pitch": 60,
      "t_note_us": 49615284,
      "t_trigger_us": 49479321,
      "is_ai": false,
      "track_id": 0,
      "velocity": 0,
      "is_motor": true,
      "motor_id": 1,
      "accel_val": 2000,
      "base_duration_us": 230769
    },
    {
      "id": "M_489",
      "pitch": 58,
      "t_note_us": 49846053,
      "t_trigger_us": 49710090,
      "is_ai": false,
      "track_id": 0,
      "velocity": 0,
      "is_motor": true,
      "motor_id": 0,
      "accel_val": 2000,
      "base_duration_us": 230769
    },
    {
      "id": "M_490",
      "pitch": 69,
      "t_note_us": 49846053,
      "t_trigger_us": 49710090,
      "is_ai": false,
      "track_id": 0,
      "velocity": 0,
      "is_motor": true,
      "motor_id": 1,
      "accel_val": 2000,
      "base_duration_us": 230769
    },
    {
      "id": "M_491",
      "pitch": 58,
      "t_note_us": 50076822,
      "t_trigger_us": 49940859,
      "is_ai": false,
      "track_id": 0,
      "velocity": 0,
      "is_motor": true,
      "motor_id": 0,
      "accel_val": 2000,
      "base_duration_us": 230769
    },
    {
      "id": "M_492",
      "pitch": 67,
      "t_note_us": 50076822,
      "t_trigger_us": 49940859,
      "is_ai": false,
      "track_id": 0,
      "velocity": 0,
      "is_motor": true,
      "motor_id": 1,
      "accel_val": 2000,
      "base_duration_us": 230769
    },
    {
      "id": "M_493",
      "pitch": 65,
      "t_note_us": 50307591,
      "t_trigger_us": 50171628,
      "is_ai": false,
      "track_id": 0,
      "velocity": 0,
      "is_motor": true,
      "motor_id": 1,
      "accel_val": 2000,
      "base_duration_us": 230769
    },
    {
      "id": "M_494",
      "pitch": 69,
      "t_note_us": 50307591,
      "t_trigger_us": 50171628,
      "is_ai": false,
      "track_id": 0,
      "velocity": 0,
      "is_motor": true,
      "motor_id": 2,
      "accel_val": 2000,
      "base_duration_us": 230769
    },
    {
      "id": "M_495",
      "pitch": 62,
      "t_note_us": 50307591,
      "t_trigger_us": 50171628,
      "is_ai": false,
      "track_id": 0,
      "velocity": 0,
      "is_motor": true,
      "motor_id": 0,
      "accel_val": 2000,
      "base_duration_us": 230769
    },
    {
      "id": "M_496",
      "pitch": 84,
      "t_note_us": 50538360,
      "t_trigger_us": 50402397,
      "is_ai": true,
      "track_id": 3,
      "velocity": 0,
      "is_motor": false,
      "motor_id": 0,
      "accel_val": 2000,
      "base_duration_us": 230769
    },
    {
      "id": "M_497",
      "pitch": 58,
      "t_note_us": 50538360,
      "t_trigger_us": 50402397,
      "is_ai": false,
      "track_id": 0,
      "velocity": 0,
      "is_motor": true,
      "motor_id": 0,
      "accel_val": 2000,
      "base_duration_us": 230769
    },
    {
      "id": "M_499",
      "pitch": 86,
      "t_note_us": 50769129,
      "t_trigger_us": 50633166,
      "is_ai": true,
      "track_id": 4,
      "velocity": 0,
      "is_motor": false,
      "motor_id": 0,
      "accel_val": 2000,
      "base_duration_us": 230769
    },
    {
      "id": "M_498",
      "pitch": 57,
      "t_note_us": 50769129,
      "t_trigger_us": 50633166,
      "is_ai": false,
      "track_id": 0,
      "velocity": 0,
      "is_motor": true,
      "motor_id": 0,
      "accel_val": 2000,
      "base_duration_us": 230769
    },
    {
      "id": "M_501",
      "pitch": 84,
      "t_note_us": 50999898,
      "t_trigger_us": 50863935,
      "is_ai": true,
      "track_id": 3,
      "velocity": 0,
      "is_motor": false,
      "motor_id": 0,
      "accel_val": 2000,
      "base_duration_us": 230769
    },
    {
      "id": "M_500",
      "pitch": 57,
      "t_note_us": 50999898,
      "t_trigger_us": 50863935,
      "is_ai": false,
      "track_id": 0,
      "velocity": 0,
      "is_motor": true,
      "motor_id": 0,
      "accel_val": 2000,
      "base_duration_us": 230769
    },
    {
      "id": "M_502",
      "pitch": 64,
      "t_note_us": 51230667,
      "t_trigger_us": 51094704,
      "is_ai": false,
      "track_id": 0,
      "velocity": 0,
      "is_motor": true,
      "motor_id": 1,
      "accel_val": 2000,
      "base_duration_us": 230769
    },
    {
      "id": "M_503",
      "pitch": 61,
      "t_note_us": 51230667,
      "t_trigger_us": 51094704,
      "is_ai": false,
      "track_id": 0,
      "velocity": 0,
      "is_motor": true,
      "motor_id": 0,
      "accel_val": 2000,
      "base_duration_us": 230769
    },
    {
      "id": "M_504",
      "pitch": 69,
      "t_note_us": 51230667,
      "t_trigger_us": 51094704,
      "is_ai": false,
      "track_id": 0,
      "velocity": 0,
      "is_motor": true,
      "motor_id": 2,
      "accel_val": 2000,
      "base_duration_us": 230769
    },
    {
      "id": "M_507",
      "pitch": 79,
      "t_note_us": 51461436,
      "t_trigger_us": 51325473,
      "is_ai": true,
      "track_id": 0,
      "velocity": 0,
      "is_motor": false,
      "motor_id": 0,
      "accel_val": 2000,
      "base_duration_us": 461538
    },
    {
      "id": "M_505",
      "pitch": 57,
      "t_note_us": 51461436,
      "t_trigger_us": 51325473,
      "is_ai": false,
      "track_id": 0,
      "velocity": 0,
      "is_motor": true,
      "motor_id": 0,
      "accel_val": 2000,
      "base_duration_us": 230769
    },
    {
      "id": "M_506",
      "pitch": 62,
      "t_note_us": 51692205,
      "t_trigger_us": 51556242,
      "is_ai": false,
      "track_id": 0,
      "velocity": 0,
      "is_motor": true,
      "motor_id": 1,
      "accel_val": 2000,
      "base_duration_us": 230769
    },
    {
      "id": "M_508",
      "pitch": 62,
      "t_note_us": 51922974,
      "t_trigger_us": 51787011,
      "is_ai": false,
      "track_id": 0,
      "velocity": 0,
      "is_motor": true,
      "motor_id": 1,
      "accel_val": 2000,
      "base_duration_us": 230769
    },
    {
      "id": "M_509",
      "pitch": 69,
      "t_note_us": 51922974,
      "t_trigger_us": 51787011,
      "is_ai": false,
      "track_id": 0,
      "velocity": 0,
      "is_motor": true,
      "motor_id": 2,
      "accel_val": 2000,
      "base_duration_us": 230769
    },
    {
      "id": "M_510",
      "pitch": 65,
      "t_note_us": 52153743,
      "t_trigger_us": 52017780,
      "is_ai": false,
      "track_id": 0,
      "velocity": 0,
      "is_motor": true,
      "motor_id": 1,
      "accel_val": 2000,
      "base_duration_us": 230769
    },
    {
      "id": "M_511",
      "pitch": 69,
      "t_note_us": 52153743,
      "t_trigger_us": 52017780,
      "is_ai": false,
      "track_id": 0,
      "velocity": 0,
      "is_motor": true,
      "motor_id": 2,
      "accel_val": 2000,
      "base_duration_us": 230769
    },
    {
      "id": "M_512",
      "pitch": 62,
      "t_note_us": 52384512,
      "t_trigger_us": 52248549,
      "is_ai": false,
      "track_id": 0,
      "velocity": 0,
      "is_motor": true,
      "motor_id": 1,
      "accel_val": 2000,
      "base_duration_us": 230769
    },
    {
      "id": "M_513",
      "pitch": 69,
      "t_note_us": 52384512,
      "t_trigger_us": 52248549,
      "is_ai": false,
      "track_id": 0,
      "velocity": 0,
      "is_motor": true,
      "motor_id": 2,
      "accel_val": 2000,
      "base_duration_us": 230769
    },
    {
      "id": "M_515",
      "pitch": 86,
      "t_note_us": 52615281,
      "t_trigger_us": 52479318,
      "is_ai": true,
      "track_id": 4,
      "velocity": 0,
      "is_motor": false,
      "motor_id": 0,
      "accel_val": 2000,
      "base_duration_us": 230769
    },
    {
      "id": "M_514",
      "pitch": 63,
      "t_note_us": 52615281,
      "t_trigger_us": 52479318,
      "is_ai": false,
      "track_id": 0,
      "velocity": 0,
      "is_motor": true,
      "motor_id": 1,
      "accel_val": 2000,
      "base_duration_us": 230769
    },
    {
      "id": "M_516",
      "pitch": 51,
      "t_note_us": 52615281,
      "t_trigger_us": 52479318,
      "is_ai": false,
      "track_id": 0,
      "velocity": 0,
      "is_motor": true,
      "motor_id": 0,
      "accel_val": 2000,
      "base_duration_us": 230769
    },
    {
      "id": "M_519",
      "pitch": 84,
      "t_note_us": 52846050,
      "t_trigger_us": 52710087,
      "is_ai": true,
      "track_id": 3,
      "velocity": 0,
      "is_motor": false,
      "motor_id": 0,
      "accel_val": 2000,
      "base_duration_us": 230769
    },
    {
      "id": "M_517",
      "pitch": 51,
      "t_note_us": 52846050,
      "t_trigger_us": 52710087,
      "is_ai": false,
      "track_id": 0,
      "velocity": 0,
      "is_motor": true,
      "motor_id": 0,
      "accel_val": 2000,
      "base_duration_us": 230769
    },
    {
      "id": "M_518",
      "pitch": 63,
      "t_note_us": 52846050,
      "t_trigger_us": 52710087,
      "is_ai": false,
      "track_id": 0,
      "velocity": 0,
      "is_motor": true,
      "motor_id": 1,
      "accel_val": 2000,
      "base_duration_us": 230769
    },
    {
      "id": "M_520",
      "pitch": 53,
      "t_note_us": 53076819,
      "t_trigger_us": 52940856,
      "is_ai": false,
      "track_id": 0,
      "velocity": 0,
      "is_motor": true,
      "motor_id": 0,
      "accel_val": 2000,
      "base_duration_us": 230769
    },
    {
      "id": "M_521",
      "pitch": 65,
      "t_note_us": 53076819,
      "t_trigger_us": 52940856,
      "is_ai": false,
      "track_id": 0,
      "velocity": 0,
      "is_motor": true,
      "motor_id": 1,
      "accel_val": 2000,
      "base_duration_us": 230769
    },
    {
      "id": "M_522",
      "pitch": 69,
      "t_note_us": 53076819,
      "t_trigger_us": 52940856,
      "is_ai": false,
      "track_id": 0,
      "velocity": 0,
      "is_motor": true,
      "motor_id": 2,
      "accel_val": 2000,
      "base_duration_us": 230769
    },
    {
      "id": "M_523",
      "pitch": 67,
      "t_note_us": 53307588,
      "t_trigger_us": 53171625,
      "is_ai": false,
      "track_id": 0,
      "velocity": 0,
      "is_motor": true,
      "motor_id": 1,
      "accel_val": 2000,
      "base_duration_us": 230769
    },
    {
      "id": "M_524",
      "pitch": 53,
      "t_note_us": 53307588,
      "t_trigger_us": 53171625,
      "is_ai": false,
      "track_id": 0,
      "velocity": 0,
      "is_motor": true,
      "motor_id": 0,
      "accel_val": 2000,
      "base_duration_us": 230769
    },
    {
      "id": "M_525",
      "pitch": 65,
      "t_note_us": 53307588,
      "t_trigger_us": 53171625,
      "is_ai": false,
      "track_id": 0,
      "velocity": 0,
      "is_motor": true,
      "motor_id": 2,
      "accel_val": 2000,
      "base_duration_us": 230769
    },
    {
      "id": "M_526",
      "pitch": 58,
      "t_note_us": 53538357,
      "t_trigger_us": 53402394,
      "is_ai": false,
      "track_id": 0,
      "velocity": 0,
      "is_motor": true,
      "motor_id": 0,
      "accel_val": 2000,
      "base_duration_us": 230769
    },
    {
      "id": "M_527",
      "pitch": 77,
      "t_note_us": 53538357,
      "t_trigger_us": 53402394,
      "is_ai": false,
      "track_id": 0,
      "velocity": 0,
      "is_motor": true,
      "motor_id": 2,
      "accel_val": 2000,
      "base_duration_us": 230769
    },
    {
      "id": "M_528",
      "pitch": 58,
      "t_note_us": 53769126,
      "t_trigger_us": 53633163,
      "is_ai": false,
      "track_id": 0,
      "velocity": 0,
      "is_motor": true,
      "motor_id": 0,
      "accel_val": 2000,
      "base_duration_us": 230769
    },
    {
      "id": "M_529",
      "pitch": 74,
      "t_note_us": 53769126,
      "t_trigger_us": 53633163,
      "is_ai": false,
      "track_id": 0,
      "velocity": 0,
      "is_motor": true,
      "motor_id": 1,
      "accel_val": 2000,
      "base_duration_us": 230769
    },
    {
      "id": "M_530",
      "pitch": 62,
      "t_note_us": 53999895,
      "t_trigger_us": 53863932,
      "is_ai": false,
      "track_id": 0,
      "velocity": 0,
      "is_motor": true,
      "motor_id": 1,
      "accel_val": 2000,
      "base_duration_us": 230769
    },
    {
      "id": "M_531",
      "pitch": 65,
      "t_note_us": 53999895,
      "t_trigger_us": 53863932,
      "is_ai": false,
      "track_id": 0,
      "velocity": 0,
      "is_motor": true,
      "motor_id": 0,
      "accel_val": 2000,
      "base_duration_us": 230769
    },
    {
      "id": "M_532",
      "pitch": 77,
      "t_note_us": 53999895,
      "t_trigger_us": 53863932,
      "is_ai": false,
      "track_id": 0,
      "velocity": 0,
      "is_motor": true,
      "motor_id": 2,
      "accel_val": 2000,
      "base_duration_us": 230769
    },
    {
      "id": "M_533",
      "pitch": 58,
      "t_note_us": 54230664,
      "t_trigger_us": 54094701,
      "is_ai": false,
      "track_id": 0,
      "velocity": 0,
      "is_motor": true,
      "motor_id": 0,
      "accel_val": 2000,
      "base_duration_us": 230769
    },
    {
      "id": "M_534",
      "pitch": 74,
      "t_note_us": 54230664,
      "t_trigger_us": 54094701,
      "is_ai": false,
      "track_id": 0,
      "velocity": 0,
      "is_motor": true,
      "motor_id": 1,
      "accel_val": 2000,
      "base_duration_us": 230769
    },
    {
      "id": "M_535",
      "pitch": 60,
      "t_note_us": 54461433,
      "t_trigger_us": 54325470,
      "is_ai": false,
      "track_id": 0,
      "velocity": 0,
      "is_motor": true,
      "motor_id": 1,
      "accel_val": 2000,
      "base_duration_us": 230769
    },
    {
      "id": "M_537",
      "pitch": 77,
      "t_note_us": 54461433,
      "t_trigger_us": 54325470,
      "is_ai": false,
      "track_id": 0,
      "velocity": 0,
      "is_motor": true,
      "motor_id": 2,
      "accel_val": 2000,
      "base_duration_us": 346153
    },
    {
      "id": "M_536",
      "pitch": 60,
      "t_note_us": 54692202,
      "t_trigger_us": 54556239,
      "is_ai": false,
      "track_id": 0,
      "velocity": 0,
      "is_motor": true,
      "motor_id": 1,
      "accel_val": 2000,
      "base_duration_us": 115384
    },
    {
      "id": "M_538",
      "pitch": 67,
      "t_note_us": 54807586,
      "t_trigger_us": 54671623,
      "is_ai": false,
      "track_id": 0,
      "velocity": 0,
      "is_motor": true,
      "motor_id": 1,
      "accel_val": 2000,
      "base_duration_us": 230769
    },
    {
      "id": "M_539",
      "pitch": 64,
      "t_note_us": 54807586,
      "t_trigger_us": 54671623,
      "is_ai": false,
      "track_id": 0,
      "velocity": 0,
      "is_motor": true,
      "motor_id": 0,
      "accel_val": 2000,
      "base_duration_us": 230769
    },
    {
      "id": "M_542",
      "pitch": 67,
      "t_note_us": 54807586,
      "t_trigger_us": 54671623,
      "is_ai": false,
      "track_id": 0,
      "velocity": 0,
      "is_motor": true,
      "motor_id": 2,
      "accel_val": 2000,
      "base_duration_us": 346153
    },
    {
      "id": "M_540",
      "pitch": 64,
      "t_note_us": 55038355,
      "t_trigger_us": 54902392,
      "is_ai": false,
      "track_id": 0,
      "velocity": 0,
      "is_motor": true,
      "motor_id": 1,
      "accel_val": 2000,
      "base_duration_us": 115384
    },
    {
      "id": "M_541",
      "pitch": 67,
      "t_note_us": 55038355,
      "t_trigger_us": 54902392,
      "is_ai": false,
      "track_id": 0,
      "velocity": 0,
      "is_motor": true,
      "motor_id": 0,
      "accel_val": 2000,
      "base_duration_us": 115384
    },
    {
      "id": "M_543",
      "pitch": 60,
      "t_note_us": 55153739,
      "t_trigger_us": 55017776,
      "is_ai": false,
      "track_id": 0,
      "velocity": 0,
      "is_motor": true,
      "motor_id": 1,
      "accel_val": 2000,
      "base_duration_us": 230769
    },
    {
      "id": "M_544",
      "pitch": 77,
      "t_note_us": 55153739,
      "t_trigger_us": 55017776,
      "is_ai": false,
      "track_id": 0,
      "velocity": 0,
      "is_motor": true,
      "motor_id": 2,
      "accel_val": 2000,
      "base_duration_us": 230769
    },
    {
      "id": "M_545",
      "pitch": 76,
      "t_note_us": 55384508,
      "t_trigger_us": 55248545,
      "is_ai": false,
      "track_id": 0,
      "velocity": 0,
      "is_motor": true,
      "motor_id": 2,
      "accel_val": 2000,
      "base_duration_us": 230769
    },
    {
      "id": "M_546",
      "pitch": 57,
      "t_note_us": 55384508,
      "t_trigger_us": 55248545,
      "is_ai": false,
      "track_id": 0,
      "velocity": 0,
      "is_motor": true,
      "motor_id": 0,
      "accel_val": 2000,
      "base_duration_us": 230769
    },
    {
      "id": "M_547",
      "pitch": 69,
      "t_note_us": 55615277,
      "t_trigger_us": 55479314,
      "is_ai": false,
      "track_id": 0,
      "velocity": 0,
      "is_motor": true,
      "motor_id": 1,
      "accel_val": 2000,
      "base_duration_us": 115384
    },
    {
      "id": "M_548",
      "pitch": 57,
      "t_note_us": 55615277,
      "t_trigger_us": 55479314,
      "is_ai": false,
      "track_id": 0,
      "velocity": 0,
      "is_motor": true,
      "motor_id": 0,
      "accel_val": 2000,
      "base_duration_us": 230768
    },
    {
      "id": "M_551",
      "pitch": 76,
      "t_note_us": 55730661,
      "t_trigger_us": 55594698,
      "is_ai": false,
      "track_id": 0,
      "velocity": 0,
      "is_motor": true,
      "motor_id": 2,
      "accel_val": 2000,
      "base_duration_us": 346153
    },
    {
      "id": "M_549",
      "pitch": 60,
      "t_note_us": 55846045,
      "t_trigger_us": 55710082,
      "is_ai": false,
      "track_id": 0,
      "velocity": 0,
      "is_motor": true,
      "motor_id": 1,
      "accel_val": 2000,
      "base_duration_us": 230769
    },
    {
      "id": "M_550",
      "pitch": 64,
      "t_note_us": 55846045,
      "t_trigger_us": 55710082,
      "is_ai": false,
      "track_id": 0,
      "velocity": 0,
      "is_motor": true,
      "motor_id": 0,
      "accel_val": 2000,
      "base_duration_us": 230769
    },
    {
      "id": "M_552",
      "pitch": 72,
      "t_note_us": 56076814,
      "t_trigger_us": 55940851,
      "is_ai": false,
      "track_id": 0,
      "velocity": 0,
      "is_motor": true,
      "motor_id": 1,
      "accel_val": 2000,
      "base_duration_us": 230769
    },
    {
      "id": "M_553",
      "pitch": 57,
      "t_note_us": 56076814,
      "t_trigger_us": 55940851,
      "is_ai": false,
      "track_id": 0,
      "velocity": 0,
      "is_motor": true,
      "motor_id": 0,
      "accel_val": 2000,
      "base_duration_us": 230769
    },
    {
      "id": "M_554",
      "pitch": 62,
      "t_note_us": 56307583,
      "t_trigger_us": 56171620,
      "is_ai": false,
      "track_id": 0,
      "velocity": 0,
      "is_motor": true,
      "motor_id": 1,
      "accel_val": 2000,
      "base_duration_us": 230769
    },
    {
      "id": "M_556",
      "pitch": 74,
      "t_note_us": 56307583,
      "t_trigger_us": 56171620,
      "is_ai": false,
      "track_id": 0,
      "velocity": 0,
      "is_motor": true,
      "motor_id": 0,
      "accel_val": 2000,
      "base_duration_us": 461538
    },
    {
      "id": "M_555",
      "pitch": 62,
      "t_note_us": 56538352,
      "t_trigger_us": 56402389,
      "is_ai": false,
      "track_id": 0,
      "velocity": 0,
      "is_motor": true,
      "motor_id": 1,
      "accel_val": 2000,
      "base_duration_us": 230769
    },
    {
      "id": "M_557",
      "pitch": 69,
      "t_note_us": 56769121,
      "t_trigger_us": 56633158,
      "is_ai": false,
      "track_id": 0,
      "velocity": 0,
      "is_motor": true,
      "motor_id": 1,
      "accel_val": 2000,
      "base_duration_us": 230769
    },
    {
      "id": "M_558",
      "pitch": 74,
      "t_note_us": 56769121,
      "t_trigger_us": 56633158,
      "is_ai": false,
      "track_id": 0,
      "velocity": 0,
      "is_motor": true,
      "motor_id": 0,
      "accel_val": 2000,
      "base_duration_us": 230769
    },
    {
      "id": "M_559",
      "pitch": 65,
      "t_note_us": 56769121,
      "t_trigger_us": 56633158,
      "is_ai": false,
      "track_id": 0,
      "velocity": 0,
      "is_motor": true,
      "motor_id": 2,
      "accel_val": 2000,
      "base_duration_us": 230769
    },
    {
      "id": "M_560",
      "pitch": 62,
      "t_note_us": 56999890,
      "t_trigger_us": 56863927,
      "is_ai": false,
      "track_id": 0,
      "velocity": 0,
      "is_motor": true,
      "motor_id": 1,
      "accel_val": 2000,
      "base_duration_us": 230769
    },
    {
      "id": "M_561",
      "pitch": 76,
      "t_note_us": 56999890,
      "t_trigger_us": 56863927,
      "is_ai": false,
      "track_id": 0,
      "velocity": 0,
      "is_motor": true,
      "motor_id": 2,
      "accel_val": 2000,
      "base_duration_us": 230769
    },
    {
      "id": "M_562",
      "pitch": 58,
      "t_note_us": 57230659,
      "t_trigger_us": 57094696,
      "is_ai": false,
      "track_id": 0,
      "velocity": 0,
      "is_motor": true,
      "motor_id": 0,
      "accel_val": 2000,
      "base_duration_us": 230769
    },
    {
      "id": "M_563",
      "pitch": 77,
      "t_note_us": 57230659,
      "t_trigger_us": 57094696,
      "is_ai": false,
      "track_id": 0,
      "velocity": 0,
      "is_motor": true,
      "motor_id": 2,
      "accel_val": 2000,
      "base_duration_us": 230769
    },
    {
      "id": "M_564",
      "pitch": 58,
      "t_note_us": 57461428,
      "t_trigger_us": 57325465,
      "is_ai": false,
      "track_id": 0,
      "velocity": 0,
      "is_motor": true,
      "motor_id": 0,
      "accel_val": 2000,
      "base_duration_us": 230769
    },
    {
      "id": "M_565",
      "pitch": 67,
      "t_note_us": 57461428,
      "t_trigger_us": 57325465,
      "is_ai": false,
      "track_id": 0,
      "velocity": 0,
      "is_motor": true,
      "motor_id": 1,
      "accel_val": 2000,
      "base_duration_us": 230769
    },
    {
      "id": "M_566",
      "pitch": 62,
      "t_note_us": 57692197,
      "t_trigger_us": 57556234,
      "is_ai": false,
      "track_id": 0,
      "velocity": 0,
      "is_motor": true,
      "motor_id": 1,
      "accel_val": 2000,
      "base_duration_us": 230769
    },
    {
      "id": "M_567",
      "pitch": 65,
      "t_note_us": 57692197,
      "t_trigger_us": 57556234,
      "is_ai": false,
      "track_id": 0,
      "velocity": 0,
      "is_motor": true,
      "motor_id": 0,
      "accel_val": 2000,
      "base_duration_us": 230769
    },
    {
      "id": "M_568",
      "pitch": 69,
      "t_note_us": 57692197,
      "t_trigger_us": 57556234,
      "is_ai": false,
      "track_id": 0,
      "velocity": 0,
      "is_motor": true,
      "motor_id": 2,
      "accel_val": 2000,
      "base_duration_us": 230769
    },
    {
      "id": "M_569",
      "pitch": 58,
      "t_note_us": 57922966,
      "t_trigger_us": 57787003,
      "is_ai": false,
      "track_id": 0,
      "velocity": 0,
      "is_motor": true,
      "motor_id": 0,
      "accel_val": 2000,
      "base_duration_us": 230769
    },
    {
      "id": "M_570",
      "pitch": 67,
      "t_note_us": 57922966,
      "t_trigger_us": 57787003,
      "is_ai": false,
      "track_id": 0,
      "velocity": 0,
      "is_motor": true,
      "motor_id": 1,
      "accel_val": 2000,
      "base_duration_us": 230769
    },
    {
      "id": "M_571",
      "pitch": 57,
      "t_note_us": 58153735,
      "t_trigger_us": 58017772,
      "is_ai": false,
      "track_id": 0,
      "velocity": 0,
      "is_motor": true,
      "motor_id": 0,
      "accel_val": 2000,
      "base_duration_us": 230769
    },
    {
      "id": "M_572",
      "pitch": 57,
      "t_note_us": 58384504,
      "t_trigger_us": 58248541,
      "is_ai": false,
      "track_id": 0,
      "velocity": 0,
      "is_motor": true,
      "motor_id": 0,
      "accel_val": 2000,
      "base_duration_us": 230769
    },
    {
      "id": "M_573",
      "pitch": 76,
      "t_note_us": 58384504,
      "t_trigger_us": 58248541,
      "is_ai": false,
      "track_id": 0,
      "velocity": 0,
      "is_motor": true,
      "motor_id": 2,
      "accel_val": 2000,
      "base_duration_us": 230769
    },
    {
      "id": "M_574",
      "pitch": 76,
      "t_note_us": 58615273,
      "t_trigger_us": 58479310,
      "is_ai": false,
      "track_id": 0,
      "velocity": 0,
      "is_motor": true,
      "motor_id": 2,
      "accel_val": 2000,
      "base_duration_us": 230769
    },
    {
      "id": "M_575",
      "pitch": 60,
      "t_note_us": 58615273,
      "t_trigger_us": 58479310,
      "is_ai": false,
      "track_id": 0,
      "velocity": 0,
      "is_motor": true,
      "motor_id": 1,
      "accel_val": 2000,
      "base_duration_us": 230769
    },
    {
      "id": "M_576",
      "pitch": 64,
      "t_note_us": 58615273,
      "t_trigger_us": 58479310,
      "is_ai": false,
      "track_id": 0,
      "velocity": 0,
      "is_motor": true,
      "motor_id": 0,
      "accel_val": 2000,
      "base_duration_us": 230769
    },
    {
      "id": "M_577",
      "pitch": 57,
      "t_note_us": 58846042,
      "t_trigger_us": 58710079,
      "is_ai": false,
      "track_id": 0,
      "velocity": 0,
      "is_motor": true,
      "motor_id": 0,
      "accel_val": 2000,
      "base_duration_us": 230769
    },
    {
      "id": "M_579",
      "pitch": 76,
      "t_note_us": 58846042,
      "t_trigger_us": 58710079,
      "is_ai": false,
      "track_id": 0,
      "velocity": 0,
      "is_motor": true,
      "motor_id": 2,
      "accel_val": 2000,
      "base_duration_us": 461538
    },
    {
      "id": "M_578",
      "pitch": 62,
      "t_note_us": 59076811,
      "t_trigger_us": 58940848,
      "is_ai": false,
      "track_id": 0,
      "velocity": 0,
      "is_motor": true,
      "motor_id": 1,
      "accel_val": 2000,
      "base_duration_us": 230769
    },
    {
      "id": "M_580",
      "pitch": 62,
      "t_note_us": 59307580,
      "t_trigger_us": 59171617,
      "is_ai": false,
      "track_id": 0,
      "velocity": 0,
      "is_motor": true,
      "motor_id": 1,
      "accel_val": 2000,
      "base_duration_us": 230769
    },
    {
      "id": "M_583",
      "pitch": 74,
      "t_note_us": 59307580,
      "t_trigger_us": 59171617,
      "is_ai": false,
      "track_id": 0,
      "velocity": 0,
      "is_motor": true,
      "motor_id": 0,
      "accel_val": 2000,
      "base_duration_us": 461538
    },
    {
      "id": "M_581",
      "pitch": 69,
      "t_note_us": 59538349,
      "t_trigger_us": 59402386,
      "is_ai": false,
      "track_id": 0,
      "velocity": 0,
      "is_motor": true,
      "motor_id": 1,
      "accel_val": 2000,
      "base_duration_us": 230769
    },
    {
      "id": "M_582",
      "pitch": 65,
      "t_note_us": 59538349,
      "t_trigger_us": 59402386,
      "is_ai": false,
      "track_id": 0,
      "velocity": 0,
      "is_motor": true,
      "motor_id": 2,
      "accel_val": 2000,
      "base_duration_us": 230769
    },
    {
      "id": "M_584",
      "pitch": 62,
      "t_note_us": 59769118,
      "t_trigger_us": 59633155,
      "is_ai": false,
      "track_id": 0,
      "velocity": 0,
      "is_motor": true,
      "motor_id": 1,
      "accel_val": 2000,
      "base_duration_us": 230769
    },
    {
      "id": "M_585",
      "pitch": 62,
      "t_note_us": 59999887,
      "t_trigger_us": 59863924,
      "is_ai": false,
      "track_id": 0,
      "velocity": 0,
      "is_motor": true,
      "motor_id": 1,
      "accel_val": 2000,
      "base_duration_us": 115384
    },
    {
      "id": "M_586",
      "pitch": 57,
      "t_note_us": 60115271,
      "t_trigger_us": 59979308,
      "is_ai": false,
      "track_id": 0,
      "velocity": 0,
      "is_motor": true,
      "motor_id": 0,
      "accel_val": 2000,
      "base_duration_us": 115384
    },
    {
      "id": "M_587",
      "pitch": 72,
      "t_note_us": 60230655,
      "t_trigger_us": 60094692,
      "is_ai": false,
      "track_id": 0,
      "velocity": 0,
      "is_motor": true,
      "motor_id": 1,
      "accel_val": 2000,
      "base_duration_us": 115384
    },
    {
      "id": "M_588",
      "pitch": 62,
      "t_note_us": 60230655,
      "t_trigger_us": 60094692,
      "is_ai": false,
      "track_id": 0,
      "velocity": 0,
      "is_motor": true,
      "motor_id": 0,
      "accel_val": 2000,
      "base_duration_us": 115384
    },
    {
      "id": "M_589",
      "pitch": 84,
      "t_note_us": 60346039,
      "t_trigger_us": 60210076,
      "is_ai": true,
      "track_id": 3,
      "velocity": 0,
      "is_motor": false,
      "motor_id": 0,
      "accel_val": 2000,
      "base_duration_us": 115384
    },
    {
      "id": "M_590",
      "pitch": 57,
      "t_note_us": 60346039,
      "t_trigger_us": 60210076,
      "is_ai": false,
      "track_id": 0,
      "velocity": 0,
      "is_motor": true,
      "motor_id": 0,
      "accel_val": 2000,
      "base_duration_us": 115384
    },
    {
      "id": "M_592",
      "pitch": 84,
      "t_note_us": 60461423,
      "t_trigger_us": 60325460,
      "is_ai": true,
      "track_id": 3,
      "velocity": 0,
      "is_motor": false,
      "motor_id": 0,
      "accel_val": 2000,
      "base_duration_us": 230769
    },
    {
      "id": "M_591",
      "pitch": 50,
      "t_note_us": 60461423,
      "t_trigger_us": 60325460,
      "is_ai": false,
      "track_id": 0,
      "velocity": 0,
      "is_motor": true,
      "motor_id": 0,
      "accel_val": 2000,
      "base_duration_us": 230769
    },
    {
      "id": "M_594",
      "pitch": 86,
      "t_note_us": 60692192,
      "t_trigger_us": 60556229,
      "is_ai": true,
      "track_id": 4,
      "velocity": 0,
      "is_motor": false,
      "motor_id": 0,
      "accel_val": 2000,
      "base_duration_us": 230769
    },
    {
      "id": "M_593",
      "pitch": 62,
      "t_note_us": 60692192,
      "t_trigger_us": 60556229,
      "is_ai": false,
      "track_id": 0,
      "velocity": 0,
      "is_motor": true,
      "motor_id": 1,
      "accel_val": 2000,
      "base_duration_us": 230769
    },
    {
      "id": "M_595",
      "pitch": 89,
      "t_note_us": 60922961,
      "t_trigger_us": 60786998,
      "is_ai": true,
      "track_id": 6,
      "velocity": 0,
      "is_motor": false,
      "motor_id": 0,
      "accel_val": 2000,
      "base_duration_us": 230769
    },
    {
      "id": "M_597",
      "pitch": 58,
      "t_note_us": 60922961,
      "t_trigger_us": 60786998,
      "is_ai": false,
      "track_id": 0,
      "velocity": 0,
      "is_motor": true,
      "motor_id": 0,
      "accel_val": 2000,
      "base_duration_us": 346153
    },
    {
      "id": "M_598",
      "pitch": 65,
      "t_note_us": 60922961,
      "t_trigger_us": 60786998,
      "is_ai": false,
      "track_id": 0,
      "velocity": 0,
      "is_motor": true,
      "motor_id": 1,
      "accel_val": 2000,
      "base_duration_us": 346153
    },
    {
      "id": "M_596",
      "pitch": 86,
      "t_note_us": 61153730,
      "t_trigger_us": 61017767,
      "is_ai": true,
      "track_id": 4,
      "velocity": 0,
      "is_motor": false,
      "motor_id": 0,
      "accel_val": 2000,
      "base_duration_us": 115384
    },
    {
      "id": "M_599",
      "pitch": 89,
      "t_note_us": 61269114,
      "t_trigger_us": 61133151,
      "is_ai": true,
      "track_id": 6,
      "velocity": 0,
      "is_motor": false,
      "motor_id": 0,
      "accel_val": 2000,
      "base_duration_us": 230769
    },
    {
      "id": "M_601",
      "pitch": 65,
      "t_note_us": 61269114,
      "t_trigger_us": 61133151,
      "is_ai": false,
      "track_id": 0,
      "velocity": 0,
      "is_motor": true,
      "motor_id": 1,
      "accel_val": 2000,
      "base_duration_us": 346153
    },
    {
      "id": "M_602",
      "pitch": 58,
      "t_note_us": 61269114,
      "t_trigger_us": 61133151,
      "is_ai": false,
      "track_id": 0,
      "velocity": 0,
      "is_motor": true,
      "motor_id": 0,
      "accel_val": 2000,
      "base_duration_us": 346153
    },
    {
      "id": "M_600",
      "pitch": 86,
      "t_note_us": 61499883,
      "t_trigger_us": 61363920,
      "is_ai": true,
      "track_id": 4,
      "velocity": 0,
      "is_motor": false,
      "motor_id": 0,
      "accel_val": 2000,
      "base_duration_us": 115384
    },
    {
      "id": "M_605",
      "pitch": 89,
      "t_note_us": 61615267,
      "t_trigger_us": 61479304,
      "is_ai": true,
      "track_id": 6,
      "velocity": 0,
      "is_motor": false,
      "motor_id": 0,
      "accel_val": 2000,
      "base_duration_us": 230769
    },
    {
      "id": "M_603",
      "pitch": 58,
      "t_note_us": 61615267,
      "t_trigger_us": 61479304,
      "is_ai": false,
      "track_id": 0,
      "velocity": 0,
      "is_motor": true,
      "motor_id": 0,
      "accel_val": 2000,
      "base_duration_us": 230769
    },
    {
      "id": "M_604",
      "pitch": 65,
      "t_note_us": 61615267,
      "t_trigger_us": 61479304,
      "is_ai": false,
      "track_id": 0,
      "velocity": 0,
      "is_motor": true,
      "motor_id": 1,
      "accel_val": 2000,
      "base_duration_us": 230769
    },
    {
      "id": "M_606",
      "pitch": 86,
      "t_note_us": 61961420,
      "t_trigger_us": 61825457,
      "is_ai": true,
      "track_id": 4,
      "velocity": 0,
      "is_motor": false,
      "motor_id": 0,
      "accel_val": 2000,
      "base_duration_us": 115384
    },
    {
      "id": "M_607",
      "pitch": 93,
      "t_note_us": 62076804,
      "t_trigger_us": 61940841,
      "is_ai": true,
      "track_id": 8,
      "velocity": 0,
      "is_motor": false,
      "motor_id": 0,
      "accel_val": 2000,
      "base_duration_us": 115384
    },
    {
      "id": "M_608",
      "pitch": 93,
      "t_note_us": 62192188,
      "t_trigger_us": 62056225,
      "is_ai": true,
      "track_id": 8,
      "velocity": 0,
      "is_motor": false,
      "motor_id": 0,
      "accel_val": 2000,
      "base_duration_us": 115384
    },
    {
      "id": "M_609",
      "pitch": 91,
      "t_note_us": 62307572,
      "t_trigger_us": 62171609,
      "is_ai": true,
      "track_id": 7,
      "velocity": 0,
      "is_motor": false,
      "motor_id": 0,
      "accel_val": 2000,
      "base_duration_us": 230769
    },
    {
      "id": "M_610",
      "pitch": 93,
      "t_note_us": 62538341,
      "t_trigger_us": 62402378,
      "is_ai": true,
      "track_id": 8,
      "velocity": 0,
      "is_motor": false,
      "motor_id": 0,
      "accel_val": 2000,
      "base_duration_us": 230769
    },
    {
      "id": "M_611",
      "pitch": 91,
      "t_note_us": 62769110,
      "t_trigger_us": 62633147,
      "is_ai": true,
      "track_id": 7,
      "velocity": 0,
      "is_motor": false,
      "motor_id": 0,
      "accel_val": 2000,
      "base_duration_us": 230769
    },
    {
      "id": "M_613",
      "pitch": 57,
      "t_note_us": 62769110,
      "t_trigger_us": 62633147,
      "is_ai": false,
      "track_id": 0,
      "velocity": 0,
      "is_motor": true,
      "motor_id": 0,
      "accel_val": 2000,
      "base_duration_us": 346153
    },
    {
      "id": "M_614",
      "pitch": 64,
      "t_note_us": 62769110,
      "t_trigger_us": 62633147,
      "is_ai": false,
      "track_id": 0,
      "velocity": 0,
      "is_motor": true,
      "motor_id": 1,
      "accel_val": 2000,
      "base_duration_us": 346153
    },
    {
      "id": "M_612",
      "pitch": 88,
      "t_note_us": 62999879,
      "t_trigger_us": 62863916,
      "is_ai": true,
      "track_id": 5,
      "velocity": 0,
      "is_motor": false,
      "motor_id": 0,
      "accel_val": 2000,
      "base_duration_us": 115384
    },
    {
      "id": "M_615",
      "pitch": 84,
      "t_note_us": 63115263,
      "t_trigger_us": 62979300,
      "is_ai": true,
      "track_id": 3,
      "velocity": 0,
      "is_motor": false,
      "motor_id": 0,
      "accel_val": 2000,
      "base_duration_us": 230769
    },
    {
      "id": "M_617",
      "pitch": 64,
      "t_note_us": 63115263,
      "t_trigger_us": 62979300,
      "is_ai": false,
      "track_id": 0,
      "velocity": 0,
      "is_motor": true,
      "motor_id": 1,
      "accel_val": 2000,
      "base_duration_us": 346153
    },
    {
      "id": "M_618",
      "pitch": 57,
      "t_note_us": 63115263,
      "t_trigger_us": 62979300,
      "is_ai": false,
      "track_id": 0,
      "velocity": 0,
      "is_motor": true,
      "motor_id": 0,
      "accel_val": 2000,
      "base_duration_us": 346153
    },
    {
      "id": "M_616",
      "pitch": 69,
      "t_note_us": 63346032,
      "t_trigger_us": 63210069,
      "is_ai": false,
      "track_id": 0,
      "velocity": 0,
      "is_motor": true,
      "motor_id": 2,
      "accel_val": 2000,
      "base_duration_us": 115384
    },
    {
      "id": "M_620",
      "pitch": 86,
      "t_note_us": 63461416,
      "t_trigger_us": 63325453,
      "is_ai": true,
      "track_id": 4,
      "velocity": 0,
      "is_motor": false,
      "motor_id": 0,
      "accel_val": 2000,
      "base_duration_us": 230769
    },
    {
      "id": "M_619",
      "pitch": 64,
      "t_note_us": 63461416,
      "t_trigger_us": 63325453,
      "is_ai": false,
      "track_id": 0,
      "velocity": 0,
      "is_motor": true,
      "motor_id": 1,
      "accel_val": 2000,
      "base_duration_us": 230769
    },
    {
      "id": "M_621",
      "pitch": 57,
      "t_note_us": 63461416,
      "t_trigger_us": 63325453,
      "is_ai": false,
      "track_id": 0,
      "velocity": 0,
      "is_motor": true,
      "motor_id": 0,
      "accel_val": 2000,
      "base_duration_us": 230769
    },
    {
      "id": "M_622",
      "pitch": 93,
      "t_note_us": 63807569,
      "t_trigger_us": 63671606,
      "is_ai": true,
      "track_id": 8,
      "velocity": 0,
      "is_motor": false,
      "motor_id": 0,
      "accel_val": 2000,
      "base_duration_us": 115384
    },
    {
      "id": "M_623",
      "pitch": 93,
      "t_note_us": 63922953,
      "t_trigger_us": 63786990,
      "is_ai": true,
      "track_id": 8,
      "velocity": 0,
      "is_motor": false,
      "motor_id": 0,
      "accel_val": 2000,
      "base_duration_us": 115384
    },
    {
      "id": "M_624",
      "pitch": 93,
      "t_note_us": 64038337,
      "t_trigger_us": 63902374,
      "is_ai": true,
      "track_id": 8,
      "velocity": 0,
      "is_motor": false,
      "motor_id": 0,
      "accel_val": 2000,
      "base_duration_us": 115384
    },
    {
      "id": "M_625",
      "pitch": 93,
      "t_note_us": 64153721,
      "t_trigger_us": 64017758,
      "is_ai": true,
      "track_id": 8,
      "velocity": 0,
      "is_motor": false,
      "motor_id": 0,
      "accel_val": 2000,
      "base_duration_us": 115384
    },
    {
      "id": "M_626",
      "pitch": 94,
      "t_note_us": 64269105,
      "t_trigger_us": 64133142,
      "is_ai": true,
      "track_id": 0,
      "velocity": 0,
      "is_motor": true,
      "motor_id": 3,
      "accel_val": 2000,
      "base_duration_us": 115384
    },
    {
      "id": "M_627",
      "pitch": 96,
      "t_note_us": 64384489,
      "t_trigger_us": 64248526,
      "is_ai": true,
      "track_id": 10,
      "velocity": 0,
      "is_motor": false,
      "motor_id": 0,
      "accel_val": 2000,
      "base_duration_us": 115384
    },
    {
      "id": "M_630",
      "pitch": 93,
      "t_note_us": 64499873,
      "t_trigger_us": 64363910,
      "is_ai": true,
      "track_id": 8,
      "velocity": 0,
      "is_motor": false,
      "motor_id": 0,
      "accel_val": 2000,
      "base_duration_us": 346153
    },
    {
      "id": "M_628",
      "pitch": 58,
      "t_note_us": 64499873,
      "t_trigger_us": 64363910,
      "is_ai": false,
      "track_id": 0,
      "velocity": 0,
      "is_motor": true,
      "motor_id": 0,
      "accel_val": 2000,
      "base_duration_us": 346153
    },
    {
      "id": "M_629",
      "pitch": 65,
      "t_note_us": 64499873,
      "t_trigger_us": 64363910,
      "is_ai": false,
      "track_id": 0,
      "velocity": 0,
      "is_motor": true,
      "motor_id": 1,
      "accel_val": 2000,
      "base_duration_us": 346153
    },
    {
      "id": "M_631",
      "pitch": 89,
      "t_note_us": 64846026,
      "t_trigger_us": 64710063,
      "is_ai": true,
      "track_id": 6,
      "velocity": 0,
      "is_motor": false,
      "motor_id": 0,
      "accel_val": 2000,
      "base_duration_us": 115384
    },
    {
      "id": "M_633",
      "pitch": 58,
      "t_note_us": 64846026,
      "t_trigger_us": 64710063,
      "is_ai": false,
      "track_id": 0,
      "velocity": 0,
      "is_motor": true,
      "motor_id": 0,
      "accel_val": 2000,
      "base_duration_us": 230768
    },
    {
      "id": "M_632",
      "pitch": 86,
      "t_note_us": 64961410,
      "t_trigger_us": 64825447,
      "is_ai": true,
      "track_id": 4,
      "velocity": 0,
      "is_motor": false,
      "motor_id": 0,
      "accel_val": 2000,
      "base_duration_us": 115384
    },
    {
      "id": "M_634",
      "pitch": 89,
      "t_note_us": 65076794,
      "t_trigger_us": 64940831,
      "is_ai": true,
      "track_id": 6,
      "velocity": 0,
      "is_motor": false,
      "motor_id": 0,
      "accel_val": 2000,
      "base_duration_us": 115384
    },
    {
      "id": "M_636",
      "pitch": 65,
      "t_note_us": 65076794,
      "t_trigger_us": 64940831,
      "is_ai": false,
      "track_id": 0,
      "velocity": 0,
      "is_motor": true,
      "motor_id": 1,
      "accel_val": 2000,
      "base_duration_us": 230768
    },
    {
      "id": "M_635",
      "pitch": 91,
      "t_note_us": 65192178,
      "t_trigger_us": 65056215,
      "is_ai": true,
      "track_id": 7,
      "velocity": 0,
      "is_motor": false,
      "motor_id": 0,
      "accel_val": 2000,
      "base_duration_us": 115384
    },
    {
      "id": "M_637",
      "pitch": 91,
      "t_note_us": 65307562,
      "t_trigger_us": 65171599,
      "is_ai": true,
      "track_id": 7,
      "velocity": 0,
      "is_motor": false,
      "motor_id": 0,
      "accel_val": 2000,
      "base_duration_us": 115384
    },
    {
      "id": "M_638",
      "pitch": 58,
      "t_note_us": 65307562,
      "t_trigger_us": 65171599,
      "is_ai": false,
      "track_id": 0,
      "velocity": 0,
      "is_motor": true,
      "motor_id": 0,
      "accel_val": 2000,
      "base_duration_us": 115384
    },
    {
      "id": "M_639",
      "pitch": 93,
      "t_note_us": 65422946,
      "t_trigger_us": 65286983,
      "is_ai": true,
      "track_id": 8,
      "velocity": 0,
      "is_motor": false,
      "motor_id": 0,
      "accel_val": 2000,
      "base_duration_us": 346153
    },
    {
      "id": "M_640",
      "pitch": 64,
      "t_note_us": 65422946,
      "t_trigger_us": 65286983,
      "is_ai": false,
      "track_id": 0,
      "velocity": 0,
      "is_motor": true,
      "motor_id": 1,
      "accel_val": 2000,
      "base_duration_us": 346153
    },
    {
      "id": "M_641",
      "pitch": 57,
      "t_note_us": 65422946,
      "t_trigger_us": 65286983,
      "is_ai": false,
      "track_id": 0,
      "velocity": 0,
      "is_motor": true,
      "motor_id": 0,
      "accel_val": 2000,
      "base_duration_us": 346153
    },
    {
      "id": "M_642",
      "pitch": 89,
      "t_note_us": 65769099,
      "t_trigger_us": 65633136,
      "is_ai": true,
      "track_id": 6,
      "velocity": 0,
      "is_motor": false,
      "motor_id": 0,
      "accel_val": 2000,
      "base_duration_us": 115384
    },
    {
      "id": "M_644",
      "pitch": 57,
      "t_note_us": 65769099,
      "t_trigger_us": 65633136,
      "is_ai": false,
      "track_id": 0,
      "velocity": 0,
      "is_motor": true,
      "motor_id": 0,
      "accel_val": 2000,
      "base_duration_us": 230768
    },
    {
      "id": "M_643",
      "pitch": 86,
      "t_note_us": 65884483,
      "t_trigger_us": 65748520,
      "is_ai": true,
      "track_id": 4,
      "velocity": 0,
      "is_motor": false,
      "motor_id": 0,
      "accel_val": 2000,
      "base_duration_us": 115384
    },
    {
      "id": "M_645",
      "pitch": 89,
      "t_note_us": 65999867,
      "t_trigger_us": 65863904,
      "is_ai": true,
      "track_id": 6,
      "velocity": 0,
      "is_motor": false,
      "motor_id": 0,
      "accel_val": 2000,
      "base_duration_us": 115384
    },
    {
      "id": "M_647",
      "pitch": 64,
      "t_note_us": 65999867,
      "t_trigger_us": 65863904,
      "is_ai": false,
      "track_id": 0,
      "velocity": 0,
      "is_motor": true,
      "motor_id": 1,
      "accel_val": 2000,
      "base_duration_us": 230768
    },
    {
      "id": "M_646",
      "pitch": 86,
      "t_note_us": 66115251,
      "t_trigger_us": 65979288,
      "is_ai": true,
      "track_id": 4,
      "velocity": 0,
      "is_motor": false,
      "motor_id": 0,
      "accel_val": 2000,
      "base_duration_us": 115384
    },
    {
      "id": "M_649",
      "pitch": 89,
      "t_note_us": 66230635,
      "t_trigger_us": 66094672,
      "is_ai": true,
      "track_id": 6,
      "velocity": 0,
      "is_motor": false,
      "motor_id": 0,
      "accel_val": 2000,
      "base_duration_us": 115384
    },
    {
      "id": "M_648",
      "pitch": 57,
      "t_note_us": 66230635,
      "t_trigger_us": 66094672,
      "is_ai": false,
      "track_id": 0,
      "velocity": 0,
      "is_motor": true,
      "motor_id": 0,
      "accel_val": 2000,
      "base_duration_us": 115384
    },
    {
      "id": "M_651",
      "pitch": 91,
      "t_note_us": 66346019,
      "t_trigger_us": 66210056,
      "is_ai": true,
      "track_id": 7,
      "velocity": 0,
      "is_motor": false,
      "motor_id": 0,
      "accel_val": 2000,
      "base_duration_us": 346153
    },
    {
      "id": "M_650",
      "pitch": 62,
      "t_note_us": 66346019,
      "t_trigger_us": 66210056,
      "is_ai": false,
      "track_id": 0,
      "velocity": 0,
      "is_motor": true,
      "motor_id": 1,
      "accel_val": 2000,
      "base_duration_us": 346153
    },
    {
      "id": "M_652",
      "pitch": 57,
      "t_note_us": 66346019,
      "t_trigger_us": 66210056,
      "is_ai": false,
      "track_id": 0,
      "velocity": 0,
      "is_motor": true,
      "motor_id": 0,
      "accel_val": 2000,
      "base_duration_us": 346153
    },
    {
      "id": "M_653",
      "pitch": 93,
      "t_note_us": 66692172,
      "t_trigger_us": 66556209,
      "is_ai": true,
      "track_id": 8,
      "velocity": 0,
      "is_motor": false,
      "motor_id": 0,
      "accel_val": 2000,
      "base_duration_us": 230769
    },
    {
      "id": "M_654",
      "pitch": 57,
      "t_note_us": 66692172,
      "t_trigger_us": 66556209,
      "is_ai": false,
      "track_id": 0,
      "velocity": 0,
      "is_motor": true,
      "motor_id": 0,
      "accel_val": 2000,
      "base_duration_us": 230769
    },
    {
      "id": "M_655",
      "pitch": 62,
      "t_note_us": 66922941,
      "t_trigger_us": 66786978,
      "is_ai": false,
      "track_id": 0,
      "velocity": 0,
      "is_motor": true,
      "motor_id": 1,
      "accel_val": 2000,
      "base_duration_us": 230769
    },
    {
      "id": "M_657",
      "pitch": 93,
      "t_note_us": 67153710,
      "t_trigger_us": 67017747,
      "is_ai": true,
      "track_id": 8,
      "velocity": 0,
      "is_motor": false,
      "motor_id": 0,
      "accel_val": 2000,
      "base_duration_us": 230769
    },
    {
      "id": "M_656",
      "pitch": 57,
      "t_note_us": 67153710,
      "t_trigger_us": 67017747,
      "is_ai": false,
      "track_id": 0,
      "velocity": 0,
      "is_motor": true,
      "motor_id": 0,
      "accel_val": 2000,
      "base_duration_us": 230769
    },
    {
      "id": "M_658",
      "pitch": 94,
      "t_note_us": 67384479,
      "t_trigger_us": 67248516,
      "is_ai": true,
      "track_id": 0,
      "velocity": 0,
      "is_motor": true,
      "motor_id": 3,
      "accel_val": 2000,
      "base_duration_us": 230769
    },
    {
      "id": "M_660",
      "pitch": 55,
      "t_note_us": 67384479,
      "t_trigger_us": 67248516,
      "is_ai": false,
      "track_id": 0,
      "velocity": 0,
      "is_motor": true,
      "motor_id": 0,
      "accel_val": 2000,
      "base_duration_us": 461537
    },
    {
      "id": "M_661",
      "pitch": 60,
      "t_note_us": 67384479,
      "t_trigger_us": 67248516,
      "is_ai": false,
      "track_id": 0,
      "velocity": 0,
      "is_motor": true,
      "motor_id": 1,
      "accel_val": 2000,
      "base_duration_us": 461537
    },
    {
      "id": "M_659",
      "pitch": 96,
      "t_note_us": 67615248,
      "t_trigger_us": 67479285,
      "is_ai": true,
      "track_id": 10,
      "velocity": 0,
      "is_motor": false,
      "motor_id": 0,
      "accel_val": 2000,
      "base_duration_us": 115384
    },
    {
      "id": "M_662",
      "pitch": 93,
      "t_note_us": 67730632,
      "t_trigger_us": 67594669,
      "is_ai": true,
      "track_id": 8,
      "velocity": 0,
      "is_motor": false,
      "motor_id": 0,
      "accel_val": 2000,
      "base_duration_us": 230768
    },
    {
      "id": "M_665",
      "pitch": 55,
      "t_note_us": 67846016,
      "t_trigger_us": 67710053,
      "is_ai": false,
      "track_id": 0,
      "velocity": 0,
      "is_motor": true,
      "motor_id": 0,
      "accel_val": 2000,
      "base_duration_us": 461537
    },
    {
      "id": "M_666",
      "pitch": 48,
      "t_note_us": 67846016,
      "t_trigger_us": 67710053,
      "is_ai": false,
      "track_id": 0,
      "velocity": 0,
      "is_motor": true,
      "motor_id": 1,
      "accel_val": 2000,
      "base_duration_us": 461537
    },
    {
      "id": "M_663",
      "pitch": 91,
      "t_note_us": 67961400,
      "t_trigger_us": 67825437,
      "is_ai": true,
      "track_id": 7,
      "velocity": 0,
      "is_motor": false,
      "motor_id": 0,
      "accel_val": 2000,
      "base_duration_us": 115384
    },
    {
      "id": "M_664",
      "pitch": 89,
      "t_note_us": 68076784,
      "t_trigger_us": 67940821,
      "is_ai": true,
      "track_id": 6,
      "velocity": 0,
      "is_motor": false,
      "motor_id": 0,
      "accel_val": 2000,
      "base_duration_us": 230769
    },
    {
      "id": "M_667",
      "pitch": 46,
      "t_note_us": 68307553,
      "t_trigger_us": 68171590,
      "is_ai": false,
      "track_id": 0,
      "velocity": 0,
      "is_motor": true,
      "motor_id": 0,
      "accel_val": 2000,
      "base_duration_us": 230769
    },
    {
      "id": "M_669",
      "pitch": 86,
      "t_note_us": 68538322,
      "t_trigger_us": 68402359,
      "is_ai": true,
      "track_id": 4,
      "velocity": 0,
      "is_motor": false,
      "motor_id": 0,
      "accel_val": 2000,
      "base_duration_us": 230769
    },
    {
      "id": "M_668",
      "pitch": 58,
      "t_note_us": 68538322,
      "t_trigger_us": 68402359,
      "is_ai": false,
      "track_id": 0,
      "velocity": 0,
      "is_motor": true,
      "motor_id": 0,
      "accel_val": 2000,
      "base_duration_us": 230769
    },
    {
      "id": "M_671",
      "pitch": 89,
      "t_note_us": 68769091,
      "t_trigger_us": 68633128,
      "is_ai": true,
      "track_id": 6,
      "velocity": 0,
      "is_motor": false,
      "motor_id": 0,
      "accel_val": 2000,
      "base_duration_us": 230769
    },
    {
      "id": "M_670",
      "pitch": 46,
      "t_note_us": 68769091,
      "t_trigger_us": 68633128,
      "is_ai": false,
      "track_id": 0,
      "velocity": 0,
      "is_motor": true,
      "motor_id": 0,
      "accel_val": 2000,
      "base_duration_us": 230769
    },
    {
      "id": "M_673",
      "pitch": 93,
      "t_note_us": 68999860,
      "t_trigger_us": 68863897,
      "is_ai": true,
      "track_id": 8,
      "velocity": 0,
      "is_motor": false,
      "motor_id": 0,
      "accel_val": 2000,
      "base_duration_us": 230769
    },
    {
      "id": "M_672",
      "pitch": 58,
      "t_note_us": 68999860,
      "t_trigger_us": 68863897,
      "is_ai": false,
      "track_id": 0,
      "velocity": 0,
      "is_motor": true,
      "motor_id": 0,
      "accel_val": 2000,
      "base_duration_us": 230769
    },
    {
      "id": "M_674",
      "pitch": 91,
      "t_note_us": 69230629,
      "t_trigger_us": 69094666,
      "is_ai": true,
      "track_id": 7,
      "velocity": 0,
      "is_motor": false,
      "motor_id": 0,
      "accel_val": 2000,
      "base_duration_us": 230769
    },
    {
      "id": "M_675",
      "pitch": 48,
      "t_note_us": 69230629,
      "t_trigger_us": 69094666,
      "is_ai": false,
      "track_id": 0,
      "velocity": 0,
      "is_motor": true,
      "motor_id": 0,
      "accel_val": 2000,
      "base_duration_us": 230769
    },
    {
      "id": "M_676",
      "pitch": 89,
      "t_note_us": 69461398,
      "t_trigger_us": 69325435,
      "is_ai": true,
      "track_id": 6,
      "velocity": 0,
      "is_motor": false,
      "motor_id": 0,
      "accel_val": 2000,
      "base_duration_us": 230769
    },
    {
      "id": "M_677",
      "pitch": 60,
      "t_note_us": 69461398,
      "t_trigger_us": 69325435,
      "is_ai": false,
      "track_id": 0,
      "velocity": 0,
      "is_motor": true,
      "motor_id": 1,
      "accel_val": 2000,
      "base_duration_us": 230769
    },
    {
      "id": "M_678",
      "pitch": 89,
      "t_note_us": 69692167,
      "t_trigger_us": 69556204,
      "is_ai": true,
      "track_id": 6,
      "velocity": 0,
      "is_motor": false,
      "motor_id": 0,
      "accel_val": 2000,
      "base_duration_us": 230769
    },
    {
      "id": "M_679",
      "pitch": 48,
      "t_note_us": 69692167,
      "t_trigger_us": 69556204,
      "is_ai": false,
      "track_id": 0,
      "velocity": 0,
      "is_motor": true,
      "motor_id": 0,
      "accel_val": 2000,
      "base_duration_us": 230769
    },
    {
      "id": "M_681",
      "pitch": 91,
      "t_note_us": 69922936,
      "t_trigger_us": 69786973,
      "is_ai": true,
      "track_id": 7,
      "velocity": 0,
      "is_motor": false,
      "motor_id": 0,
      "accel_val": 2000,
      "base_duration_us": 230769
    },
    {
      "id": "M_680",
      "pitch": 60,
      "t_note_us": 69922936,
      "t_trigger_us": 69786973,
      "is_ai": false,
      "track_id": 0,
      "velocity": 0,
      "is_motor": true,
      "motor_id": 1,
      "accel_val": 2000,
      "base_duration_us": 230769
    },
    {
      "id": "M_682",
      "pitch": 93,
      "t_note_us": 70153705,
      "t_trigger_us": 70017742,
      "is_ai": true,
      "track_id": 8,
      "velocity": 0,
      "is_motor": false,
      "motor_id": 0,
      "accel_val": 2000,
      "base_duration_us": 230769
    },
    {
      "id": "M_683",
      "pitch": 61,
      "t_note_us": 70153705,
      "t_trigger_us": 70017742,
      "is_ai": false,
      "track_id": 0,
      "velocity": 0,
      "is_motor": true,
      "motor_id": 1,
      "accel_val": 2000,
      "base_duration_us": 230769
    },
    {
      "id": "M_684",
      "pitch": 49,
      "t_note_us": 70153705,
      "t_trigger_us": 70017742,
      "is_ai": false,
      "track_id": 0,
      "velocity": 0,
      "is_motor": true,
      "motor_id": 0,
      "accel_val": 2000,
      "base_duration_us": 230769
    },
    {
      "id": "M_687",
      "pitch": 97,
      "t_note_us": 70384474,
      "t_trigger_us": 70248511,
      "is_ai": true,
      "track_id": 0,
      "velocity": 0,
      "is_motor": true,
      "motor_id": 3,
      "accel_val": 2000,
      "base_duration_us": 230769
    },
    {
      "id": "M_685",
      "pitch": 49,
      "t_note_us": 70384474,
      "t_trigger_us": 70248511,
      "is_ai": false,
      "track_id": 0,
      "velocity": 0,
      "is_motor": true,
      "motor_id": 0,
      "accel_val": 2000,
      "base_duration_us": 230769
    },
    {
      "id": "M_686",
      "pitch": 61,
      "t_note_us": 70384474,
      "t_trigger_us": 70248511,
      "is_ai": false,
      "track_id": 0,
      "velocity": 0,
      "is_motor": true,
      "motor_id": 1,
      "accel_val": 2000,
      "base_duration_us": 230769
    },
    {
      "id": "M_689",
      "pitch": 93,
      "t_note_us": 70615243,
      "t_trigger_us": 70479280,
      "is_ai": true,
      "track_id": 8,
      "velocity": 0,
      "is_motor": false,
      "motor_id": 0,
      "accel_val": 2000,
      "base_duration_us": 230769
    },
    {
      "id": "M_688",
      "pitch": 64,
      "t_note_us": 70615243,
      "t_trigger_us": 70479280,
      "is_ai": false,
      "track_id": 0,
      "velocity": 0,
      "is_motor": true,
      "motor_id": 1,
      "accel_val": 2000,
      "base_duration_us": 230769
    },
    {
      "id": "M_690",
      "pitch": 52,
      "t_note_us": 70615243,
      "t_trigger_us": 70479280,
      "is_ai": false,
      "track_id": 0,
      "velocity": 0,
      "is_motor": true,
      "motor_id": 0,
      "accel_val": 2000,
      "base_duration_us": 230769
    },
    {
      "id": "M_695",
      "pitch": 91,
      "t_note_us": 70846012,
      "t_trigger_us": 70710049,
      "is_ai": true,
      "track_id": 7,
      "velocity": 0,
      "is_motor": false,
      "motor_id": 0,
      "accel_val": 2000,
      "base_duration_us": 461538
    },
    {
      "id": "M_691",
      "pitch": 52,
      "t_note_us": 70846012,
      "t_trigger_us": 70710049,
      "is_ai": false,
      "track_id": 0,
      "velocity": 0,
      "is_motor": true,
      "motor_id": 0,
      "accel_val": 2000,
      "base_duration_us": 230769
    },
    {
      "id": "M_692",
      "pitch": 64,
      "t_note_us": 70846012,
      "t_trigger_us": 70710049,
      "is_ai": false,
      "track_id": 0,
      "velocity": 0,
      "is_motor": true,
      "motor_id": 1,
      "accel_val": 2000,
      "base_duration_us": 230769
    },
    {
      "id": "M_693",
      "pitch": 50,
      "t_note_us": 71076781,
      "t_trigger_us": 70940818,
      "is_ai": false,
      "track_id": 0,
      "velocity": 0,
      "is_motor": true,
      "motor_id": 0,
      "accel_val": 2000,
      "base_duration_us": 230769
    },
    {
      "id": "M_694",
      "pitch": 62,
      "t_note_us": 71076781,
      "t_trigger_us": 70940818,
      "is_ai": false,
      "track_id": 0,
      "velocity": 0,
      "is_motor": true,
      "motor_id": 1,
      "accel_val": 2000,
      "base_duration_us": 230769
    },
    {
      "id": "M_696",
      "pitch": 89,
      "t_note_us": 71307550,
      "t_trigger_us": 71171587,
      "is_ai": true,
      "track_id": 6,
      "velocity": 0,
      "is_motor": false,
      "motor_id": 0,
      "accel_val": 2000,
      "base_duration_us": 230769
    },
    {
      "id": "M_697",
      "pitch": 50,
      "t_note_us": 71307550,
      "t_trigger_us": 71171587,
      "is_ai": false,
      "track_id": 0,
      "velocity": 0,
      "is_motor": true,
      "motor_id": 0,
      "accel_val": 2000,
      "base_duration_us": 230769
    },
    {
      "id": "M_698",
      "pitch": 62,
      "t_note_us": 71307550,
      "t_trigger_us": 71171587,
      "is_ai": false,
      "track_id": 0,
      "velocity": 0,
      "is_motor": true,
      "motor_id": 1,
      "accel_val": 2000,
      "base_duration_us": 230769
    },
    {
      "id": "M_700",
      "pitch": 88,
      "t_note_us": 71538319,
      "t_trigger_us": 71402356,
      "is_ai": true,
      "track_id": 5,
      "velocity": 0,
      "is_motor": false,
      "motor_id": 0,
      "accel_val": 2000,
      "base_duration_us": 230769
    },
    {
      "id": "M_699",
      "pitch": 53,
      "t_note_us": 71538319,
      "t_trigger_us": 71402356,
      "is_ai": false,
      "track_id": 0,
      "velocity": 0,
      "is_motor": true,
      "motor_id": 0,
      "accel_val": 2000,
      "base_duration_us": 230769
    },
    {
      "id": "M_701",
      "pitch": 65,
      "t_note_us": 71538319,
      "t_trigger_us": 71402356,
      "is_ai": false,
      "track_id": 0,
      "velocity": 0,
      "is_motor": true,
      "motor_id": 1,
      "accel_val": 2000,
      "base_duration_us": 230769
    },
    {
      "id": "M_702",
      "pitch": 84,
      "t_note_us": 71769088,
      "t_trigger_us": 71633125,
      "is_ai": true,
      "track_id": 3,
      "velocity": 0,
      "is_motor": false,
      "motor_id": 0,
      "accel_val": 2000,
      "base_duration_us": 230769
    },
    {
      "id": "M_703",
      "pitch": 65,
      "t_note_us": 71769088,
      "t_trigger_us": 71633125,
      "is_ai": false,
      "track_id": 0,
      "velocity": 0,
      "is_motor": true,
      "motor_id": 1,
      "accel_val": 2000,
      "base_duration_us": 230769
    },
    {
      "id": "M_704",
      "pitch": 53,
      "t_note_us": 71769088,
      "t_trigger_us": 71633125,
      "is_ai": false,
      "track_id": 0,
      "velocity": 0,
      "is_motor": true,
      "motor_id": 0,
      "accel_val": 2000,
      "base_duration_us": 230769
    },
    {
      "id": "M_706",
      "pitch": 86,
      "t_note_us": 71999857,
      "t_trigger_us": 71863894,
      "is_ai": true,
      "track_id": 4,
      "velocity": 0,
      "is_motor": false,
      "motor_id": 0,
      "accel_val": 2000,
      "base_duration_us": 230769
    },
    {
      "id": "M_705",
      "pitch": 46,
      "t_note_us": 71999857,
      "t_trigger_us": 71863894,
      "is_ai": false,
      "track_id": 0,
      "velocity": 0,
      "is_motor": true,
      "motor_id": 0,
      "accel_val": 2000,
      "base_duration_us": 230769
    },
    {
      "id": "M_707",
      "pitch": 58,
      "t_note_us": 72230626,
      "t_trigger_us": 72094663,
      "is_ai": false,
      "track_id": 0,
      "velocity": 0,
      "is_motor": true,
      "motor_id": 0,
      "accel_val": 2000,
      "base_duration_us": 230769
    },
    {
      "id": "M_708",
      "pitch": 72,
      "t_note_us": 72230626,
      "t_trigger_us": 72094663,
      "is_ai": false,
      "track_id": 0,
      "velocity": 0,
      "is_motor": true,
      "motor_id": 1,
      "accel_val": 2000,
      "base_duration_us": 230769
    },
    {
      "id": "M_710",
      "pitch": 86,
      "t_note_us": 72461395,
      "t_trigger_us": 72325432,
      "is_ai": true,
      "track_id": 4,
      "velocity": 0,
      "is_motor": false,
      "motor_id": 0,
      "accel_val": 2000,
      "base_duration_us": 230769
    },
    {
      "id": "M_709",
      "pitch": 46,
      "t_note_us": 72461395,
      "t_trigger_us": 72325432,
      "is_ai": false,
      "track_id": 0,
      "velocity": 0,
      "is_motor": true,
      "motor_id": 0,
      "accel_val": 2000,
      "base_duration_us": 230769
    },
    {
      "id": "M_713",
      "pitch": 89,
      "t_note_us": 72692164,
      "t_trigger_us": 72556201,
      "is_ai": true,
      "track_id": 6,
      "velocity": 0,
      "is_motor": false,
      "motor_id": 0,
      "accel_val": 2000,
      "base_duration_us": 461538
    },
    {
      "id": "M_711",
      "pitch": 58,
      "t_note_us": 72692164,
      "t_trigger_us": 72556201,
      "is_ai": false,
      "track_id": 0,
      "velocity": 0,
      "is_motor": true,
      "motor_id": 0,
      "accel_val": 2000,
      "base_duration_us": 230769
    },
    {
      "id": "M_712",
      "pitch": 46,
      "t_note_us": 72922933,
      "t_trigger_us": 72786970,
      "is_ai": false,
      "track_id": 0,
      "velocity": 0,
      "is_motor": true,
      "motor_id": 0,
      "accel_val": 2000,
      "base_duration_us": 230769
    },
    {
      "id": "M_715",
      "pitch": 86,
      "t_note_us": 73153702,
      "t_trigger_us": 73017739,
      "is_ai": true,
      "track_id": 4,
      "velocity": 0,
      "is_motor": false,
      "motor_id": 0,
      "accel_val": 2000,
      "base_duration_us": 230769
    },
    {
      "id": "M_714",
      "pitch": 58,
      "t_note_us": 73153702,
      "t_trigger_us": 73017739,
      "is_ai": false,
      "track_id": 0,
      "velocity": 0,
      "is_motor": true,
      "motor_id": 0,
      "accel_val": 2000,
      "base_duration_us": 230769
    },
    {
      "id": "M_717",
      "pitch": 89,
      "t_note_us": 73384471,
      "t_trigger_us": 73248508,
      "is_ai": true,
      "track_id": 6,
      "velocity": 0,
      "is_motor": false,
      "motor_id": 0,
      "accel_val": 2000,
      "base_duration_us": 230769
    },
    {
      "id": "M_716",
      "pitch": 46,
      "t_note_us": 73384471,
      "t_trigger_us": 73248508,
      "is_ai": false,
      "track_id": 0,
      "velocity": 0,
      "is_motor": true,
      "motor_id": 0,
      "accel_val": 2000,
      "base_duration_us": 230769
    },
    {
      "id": "M_719",
      "pitch": 94,
      "t_note_us": 73615240,
      "t_trigger_us": 73479277,
      "is_ai": true,
      "track_id": 0,
      "velocity": 0,
      "is_motor": true,
      "motor_id": 3,
      "accel_val": 2000,
      "base_duration_us": 230769
    },
    {
      "id": "M_718",
      "pitch": 58,
      "t_note_us": 73615240,
      "t_trigger_us": 73479277,
      "is_ai": false,
      "track_id": 0,
      "velocity": 0,
      "is_motor": true,
      "motor_id": 0,
      "accel_val": 2000,
      "base_duration_us": 230769
    },
    {
      "id": "M_720",
      "pitch": 93,
      "t_note_us": 73846009,
      "t_trigger_us": 73710046,
      "is_ai": true,
      "track_id": 8,
      "velocity": 0,
      "is_motor": false,
      "motor_id": 0,
      "accel_val": 2000,
      "base_duration_us": 230769
    },
    {
      "id": "M_722",
      "pitch": 88,
      "t_note_us": 73846009,
      "t_trigger_us": 73710046,
      "is_ai": true,
      "track_id": 5,
      "velocity": 0,
      "is_motor": false,
      "motor_id": 0,
      "accel_val": 2000,
      "base_duration_us": 230769
    },
    {
      "id": "M_721",
      "pitch": 40,
      "t_note_us": 73846009,
      "t_trigger_us": 73710046,
      "is_ai": false,
      "track_id": 0,
      "velocity": 0,
      "is_motor": true,
      "motor_id": 0,
      "accel_val": 2000,
      "base_duration_us": 230769
    },
    {
      "id": "M_723",
      "pitch": 52,
      "t_note_us": 73846009,
      "t_trigger_us": 73710046,
      "is_ai": false,
      "track_id": 0,
      "velocity": 0,
      "is_motor": true,
      "motor_id": 1,
      "accel_val": 2000,
      "base_duration_us": 230769
    },
    {
      "id": "M_724",
      "pitch": 40,
      "t_note_us": 74076778,
      "t_trigger_us": 73940815,
      "is_ai": false,
      "track_id": 0,
      "velocity": 0,
      "is_motor": true,
      "motor_id": 0,
      "accel_val": 2000,
      "base_duration_us": 115384
    },
    {
      "id": "M_725",
      "pitch": 52,
      "t_note_us": 74192162,
      "t_trigger_us": 74056199,
      "is_ai": false,
      "track_id": 0,
      "velocity": 0,
      "is_motor": true,
      "motor_id": 0,
      "accel_val": 2000,
      "base_duration_us": 115384
    },
    {
      "id": "M_726",
      "pitch": 52,
      "t_note_us": 74422930,
      "t_trigger_us": 74286967,
      "is_ai": false,
      "track_id": 0,
      "velocity": 0,
      "is_motor": true,
      "motor_id": 0,
      "accel_val": 2000,
      "base_duration_us": 115384
    },
    {
      "id": "M_727",
      "pitch": 52,
      "t_note_us": 74538314,
      "t_trigger_us": 74402351,
      "is_ai": false,
      "track_id": 0,
      "velocity": 0,
      "is_motor": true,
      "motor_id": 0,
      "accel_val": 2000,
      "base_duration_us": 115384
    },
    {
      "id": "M_728",
      "pitch": 52,
      "t_note_us": 74653698,
      "t_trigger_us": 74517735,
      "is_ai": false,
      "track_id": 0,
      "velocity": 0,
      "is_motor": true,
      "motor_id": 0,
      "accel_val": 2000,
      "base_duration_us": 115384
    },
    {
      "id": "M_729",
      "pitch": 52,
      "t_note_us": 74769082,
      "t_trigger_us": 74633119,
      "is_ai": false,
      "track_id": 0,
      "velocity": 0,
      "is_motor": true,
      "motor_id": 0,
      "accel_val": 2000,
      "base_duration_us": 230769
    },
    {
      "id": "M_730",
      "pitch": 59,
      "t_note_us": 74769082,
      "t_trigger_us": 74633119,
      "is_ai": false,
      "track_id": 0,
      "velocity": 0,
      "is_motor": true,
      "motor_id": 1,
      "accel_val": 2000,
      "base_duration_us": 230769
    },
    {
      "id": "M_731",
      "pitch": 101,
      "t_note_us": 74999851,
      "t_trigger_us": 74863888,
      "is_ai": true,
      "track_id": 13,
      "velocity": 0,
      "is_motor": false,
      "motor_id": 0,
      "accel_val": 2000,
      "base_duration_us": 230769
    },
    {
      "id": "M_732",
      "pitch": 89,
      "t_note_us": 74999851,
      "t_trigger_us": 74863888,
      "is_ai": true,
      "track_id": 6,
      "velocity": 0,
      "is_motor": false,
      "motor_id": 0,
      "accel_val": 2000,
      "base_duration_us": 230769
    },
    {
      "id": "M_733",
      "pitch": 88,
      "t_note_us": 75230620,
      "t_trigger_us": 75094657,
      "is_ai": true,
      "track_id": 5,
      "velocity": 0,
      "is_motor": false,
      "motor_id": 0,
      "accel_val": 2000,
      "base_duration_us": 230769
    },
    {
      "id": "M_734",
      "pitch": 100,
      "t_note_us": 75230620,
      "t_trigger_us": 75094657,
      "is_ai": true,
      "track_id": 12,
      "velocity": 0,
      "is_motor": false,
      "motor_id": 0,
      "accel_val": 2000,
      "base_duration_us": 230769
    },
    {
      "id": "M_735",
      "pitch": 84,
      "t_note_us": 75461389,
      "t_trigger_us": 75325426,
      "is_ai": true,
      "track_id": 3,
      "velocity": 0,
      "is_motor": false,
      "motor_id": 0,
      "accel_val": 2000,
      "base_duration_us": 230769
    },
    {
      "id": "M_736",
      "pitch": 96,
      "t_note_us": 75461389,
      "t_trigger_us": 75325426,
      "is_ai": true,
      "track_id": 10,
      "velocity": 0,
      "is_motor": false,
      "motor_id": 0,
      "accel_val": 2000,
      "base_duration_us": 230769
    },
    {
      "id": "M_739",
      "pitch": 96,
      "t_note_us": 75692158,
      "t_trigger_us": 75556195,
      "is_ai": true,
      "track_id": 10,
      "velocity": 0,
      "is_motor": false,
      "motor_id": 0,
      "accel_val": 2000,
      "base_duration_us": 346153
    },
    {
      "id": "M_740",
      "pitch": 84,
      "t_note_us": 75692158,
      "t_trigger_us": 75556195,
      "is_ai": true,
      "track_id": 3,
      "velocity": 0,
      "is_motor": false,
      "motor_id": 0,
      "accel_val": 2000,
      "base_duration_us": 346153
    },
    {
      "id": "M_737",
      "pitch": 58,
      "t_note_us": 75692158,
      "t_trigger_us": 75556195,
      "is_ai": false,
      "track_id": 0,
      "velocity": 0,
      "is_motor": true,
      "motor_id": 0,
      "accel_val": 2000,
      "base_duration_us": 230769
    },
    {
      "id": "M_738",
      "pitch": 46,
      "t_note_us": 75692158,
      "t_trigger_us": 75556195,
      "is_ai": false,
      "track_id": 0,
      "velocity": 0,
      "is_motor": true,
      "motor_id": 1,
      "accel_val": 2000,
      "base_duration_us": 230769
    },
    {
      "id": "M_741",
      "pitch": 58,
      "t_note_us": 75922927,
      "t_trigger_us": 75786964,
      "is_ai": false,
      "track_id": 0,
      "velocity": 0,
      "is_motor": true,
      "motor_id": 0,
      "accel_val": 2000,
      "base_duration_us": 230768
    },
    {
      "id": "M_744",
      "pitch": 98,
      "t_note_us": 76038311,
      "t_trigger_us": 75902348,
      "is_ai": true,
      "track_id": 11,
      "velocity": 0,
      "is_motor": false,
      "motor_id": 0,
      "accel_val": 2000,
      "base_duration_us": 346153
    },
    {
      "id": "M_745",
      "pitch": 86,
      "t_note_us": 76038311,
      "t_trigger_us": 75902348,
      "is_ai": true,
      "track_id": 4,
      "velocity": 0,
      "is_motor": false,
      "motor_id": 0,
      "accel_val": 2000,
      "base_duration_us": 346153
    },
    {
      "id": "M_742",
      "pitch": 65,
      "t_note_us": 76153695,
      "t_trigger_us": 76017732,
      "is_ai": false,
      "track_id": 0,
      "velocity": 0,
      "is_motor": true,
      "motor_id": 1,
      "accel_val": 2000,
      "base_duration_us": 230769
    },
    {
      "id": "M_743",
      "pitch": 62,
      "t_note_us": 76153695,
      "t_trigger_us": 76017732,
      "is_ai": false,
      "track_id": 0,
      "velocity": 0,
      "is_motor": true,
      "motor_id": 0,
      "accel_val": 2000,
      "base_duration_us": 230769
    },
    {
      "id": "M_747",
      "pitch": 93,
      "t_note_us": 76384464,
      "t_trigger_us": 76248501,
      "is_ai": true,
      "track_id": 8,
      "velocity": 0,
      "is_motor": false,
      "motor_id": 0,
      "accel_val": 2000,
      "base_duration_us": 230769
    },
    {
      "id": "M_746",
      "pitch": 69,
      "t_note_us": 76384464,
      "t_trigger_us": 76248501,
      "is_ai": false,
      "track_id": 0,
      "velocity": 0,
      "is_motor": true,
      "motor_id": 1,
      "accel_val": 2000,
      "base_duration_us": 230769
    },
    {
      "id": "M_748",
      "pitch": 58,
      "t_note_us": 76384464,
      "t_trigger_us": 76248501,
      "is_ai": false,
      "track_id": 0,
      "velocity": 0,
      "is_motor": true,
      "motor_id": 0,
      "accel_val": 2000,
      "base_duration_us": 230769
    },
    {
      "id": "M_751",
      "pitch": 91,
      "t_note_us": 76615233,
      "t_trigger_us": 76479270,
      "is_ai": true,
      "track_id": 7,
      "velocity": 0,
      "is_motor": false,
      "motor_id": 0,
      "accel_val": 2000,
      "base_duration_us": 230769
    },
    {
      "id": "M_749",
      "pitch": 60,
      "t_note_us": 76615233,
      "t_trigger_us": 76479270,
      "is_ai": false,
      "track_id": 0,
      "velocity": 0,
      "is_motor": true,
      "motor_id": 1,
      "accel_val": 2000,
      "base_duration_us": 230769
    },
    {
      "id": "M_750",
      "pitch": 48,
      "t_note_us": 76615233,
      "t_trigger_us": 76479270,
      "is_ai": false,
      "track_id": 0,
      "velocity": 0,
      "is_motor": true,
      "motor_id": 0,
      "accel_val": 2000,
      "base_duration_us": 230769
    },
    {
      "id": "M_752",
      "pitch": 67,
      "t_note_us": 76615233,
      "t_trigger_us": 76479270,
      "is_ai": false,
      "track_id": 0,
      "velocity": 0,
      "is_motor": true,
      "motor_id": 2,
      "accel_val": 2000,
      "base_duration_us": 230769
    },
    {
      "id": "M_754",
      "pitch": 89,
      "t_note_us": 76846002,
      "t_trigger_us": 76710039,
      "is_ai": true,
      "track_id": 6,
      "velocity": 0,
      "is_motor": false,
      "motor_id": 0,
      "accel_val": 2000,
      "base_duration_us": 230769
    },
    {
      "id": "M_753",
      "pitch": 60,
      "t_note_us": 76846002,
      "t_trigger_us": 76710039,
      "is_ai": false,
      "track_id": 0,
      "velocity": 0,
      "is_motor": true,
      "motor_id": 1,
      "accel_val": 2000,
      "base_duration_us": 230769
    },
    {
      "id": "M_755",
      "pitch": 77,
      "t_note_us": 76846002,
      "t_trigger_us": 76710039,
      "is_ai": false,
      "track_id": 0,
      "velocity": 0,
      "is_motor": true,
      "motor_id": 2,
      "accel_val": 2000,
      "base_duration_us": 230769
    },
    {
      "id": "M_757",
      "pitch": 91,
      "t_note_us": 77076771,
      "t_trigger_us": 76940808,
      "is_ai": true,
      "track_id": 7,
      "velocity": 0,
      "is_motor": false,
      "motor_id": 0,
      "accel_val": 2000,
      "base_duration_us": 230769
    },
    {
      "id": "M_756",
      "pitch": 67,
      "t_note_us": 77076771,
      "t_trigger_us": 76940808,
      "is_ai": false,
      "track_id": 0,
      "velocity": 0,
      "is_motor": true,
      "motor_id": 1,
      "accel_val": 2000,
      "base_duration_us": 230769
    },
    {
      "id": "M_758",
      "pitch": 67,
      "t_note_us": 77076771,
      "t_trigger_us": 76940808,
      "is_ai": false,
      "track_id": 0,
      "velocity": 0,
      "is_motor": true,
      "motor_id": 2,
      "accel_val": 2000,
      "base_duration_us": 230769
    },
    {
      "id": "M_759",
      "pitch": 64,
      "t_note_us": 77076771,
      "t_trigger_us": 76940808,
      "is_ai": false,
      "track_id": 0,
      "velocity": 0,
      "is_motor": true,
      "motor_id": 0,
      "accel_val": 2000,
      "base_duration_us": 230769
    },
    {
      "id": "M_761",
      "pitch": 98,
      "t_note_us": 77307540,
      "t_trigger_us": 77171577,
      "is_ai": true,
      "track_id": 11,
      "velocity": 0,
      "is_motor": false,
      "motor_id": 0,
      "accel_val": 2000,
      "base_duration_us": 230769
    },
    {
      "id": "M_762",
      "pitch": 86,
      "t_note_us": 77307540,
      "t_trigger_us": 77171577,
      "is_ai": true,
      "track_id": 4,
      "velocity": 0,
      "is_motor": false,
      "motor_id": 0,
      "accel_val": 2000,
      "base_duration_us": 230769
    },
    {
      "id": "M_760",
      "pitch": 60,
      "t_note_us": 77307540,
      "t_trigger_us": 77171577,
      "is_ai": false,
      "track_id": 0,
      "velocity": 0,
      "is_motor": true,
      "motor_id": 1,
      "accel_val": 2000,
      "base_duration_us": 230769
    },
    {
      "id": "M_765",
      "pitch": 96,
      "t_note_us": 77538309,
      "t_trigger_us": 77402346,
      "is_ai": true,
      "track_id": 10,
      "velocity": 0,
      "is_motor": false,
      "motor_id": 0,
      "accel_val": 2000,
      "base_duration_us": 230769
    },
    {
      "id": "M_763",
      "pitch": 57,
      "t_note_us": 77538309,
      "t_trigger_us": 77402346,
      "is_ai": false,
      "track_id": 0,
      "velocity": 0,
      "is_motor": true,
      "motor_id": 0,
      "accel_val": 2000,
      "base_duration_us": 230769
    },
    {
      "id": "M_764",
      "pitch": 72,
      "t_note_us": 77538309,
      "t_trigger_us": 77402346,
      "is_ai": false,
      "track_id": 0,
      "velocity": 0,
      "is_motor": true,
      "motor_id": 1,
      "accel_val": 2000,
      "base_duration_us": 230769
    },
    {
      "id": "M_766",
      "pitch": 45,
      "t_note_us": 77538309,
      "t_trigger_us": 77402346,
      "is_ai": false,
      "track_id": 0,
      "velocity": 0,
      "is_motor": true,
      "motor_id": 2,
      "accel_val": 2000,
      "base_duration_us": 230769
    },
    {
      "id": "M_767",
      "pitch": 86,
      "t_note_us": 77769078,
      "t_trigger_us": 77633115,
      "is_ai": true,
      "track_id": 4,
      "velocity": 0,
      "is_motor": false,
      "motor_id": 0,
      "accel_val": 2000,
      "base_duration_us": 115384
    },
    {
      "id": "M_768",
      "pitch": 98,
      "t_note_us": 77769078,
      "t_trigger_us": 77633115,
      "is_ai": true,
      "track_id": 11,
      "velocity": 0,
      "is_motor": false,
      "motor_id": 0,
      "accel_val": 2000,
      "base_duration_us": 115384
    },
    {
      "id": "M_769",
      "pitch": 57,
      "t_note_us": 77769078,
      "t_trigger_us": 77633115,
      "is_ai": false,
      "track_id": 0,
      "velocity": 0,
      "is_motor": true,
      "motor_id": 0,
      "accel_val": 2000,
      "base_duration_us": 230768
    },
    {
      "id": "M_770",
      "pitch": 93,
      "t_note_us": 77884462,
      "t_trigger_us": 77748499,
      "is_ai": true,
      "track_id": 8,
      "velocity": 0,
      "is_motor": false,
      "motor_id": 0,
      "accel_val": 2000,
      "base_duration_us": 230768
    },
    {
      "id": "M_771",
      "pitch": 69,
      "t_note_us": 77884462,
      "t_trigger_us": 77748499,
      "is_ai": false,
      "track_id": 0,
      "velocity": 0,
      "is_motor": true,
      "motor_id": 1,
      "accel_val": 2000,
      "base_duration_us": 230768
    },
    {
      "id": "M_774",
      "pitch": 64,
      "t_note_us": 77999846,
      "t_trigger_us": 77863883,
      "is_ai": false,
      "track_id": 0,
      "velocity": 0,
      "is_motor": true,
      "motor_id": 0,
      "accel_val": 2000,
      "base_duration_us": 230768
    },
    {
      "id": "M_775",
      "pitch": 60,
      "t_note_us": 77999846,
      "t_trigger_us": 77863883,
      "is_ai": false,
      "track_id": 0,
      "velocity": 0,
      "is_motor": true,
      "motor_id": 2,
      "accel_val": 2000,
      "base_duration_us": 230768
    },
    {
      "id": "M_772",
      "pitch": 89,
      "t_note_us": 78115230,
      "t_trigger_us": 77979267,
      "is_ai": true,
      "track_id": 6,
      "velocity": 0,
      "is_motor": false,
      "motor_id": 0,
      "accel_val": 2000,
      "base_duration_us": 115384
    },
    {
      "id": "M_773",
      "pitch": 77,
      "t_note_us": 78115230,
      "t_trigger_us": 77979267,
      "is_ai": false,
      "track_id": 0,
      "velocity": 0,
      "is_motor": true,
      "motor_id": 1,
      "accel_val": 2000,
      "base_duration_us": 115384
    },
    {
      "id": "M_777",
      "pitch": 91,
      "t_note_us": 78230614,
      "t_trigger_us": 78094651,
      "is_ai": true,
      "track_id": 7,
      "velocity": 0,
      "is_motor": false,
      "motor_id": 0,
      "accel_val": 2000,
      "base_duration_us": 230769
    },
    {
      "id": "M_776",
      "pitch": 67,
      "t_note_us": 78230614,
      "t_trigger_us": 78094651,
      "is_ai": false,
      "track_id": 0,
      "velocity": 0,
      "is_motor": true,
      "motor_id": 1,
      "accel_val": 2000,
      "base_duration_us": 230769
    },
    {
      "id": "M_778",
      "pitch": 57,
      "t_note_us": 78230614,
      "t_trigger_us": 78094651,
      "is_ai": false,
      "track_id": 0,
      "velocity": 0,
      "is_motor": true,
      "motor_id": 0,
      "accel_val": 2000,
      "base_duration_us": 230769
    },
    {
      "id": "M_783",
      "pitch": 89,
      "t_note_us": 78461383,
      "t_trigger_us": 78325420,
      "is_ai": true,
      "track_id": 6,
      "velocity": 0,
      "is_motor": false,
      "motor_id": 0,
      "accel_val": 2000,
      "base_duration_us": 461537
    },
    {
      "id": "M_779",
      "pitch": 50,
      "t_note_us": 78461383,
      "t_trigger_us": 78325420,
      "is_ai": false,
      "track_id": 0,
      "velocity": 0,
      "is_motor": true,
      "motor_id": 0,
      "accel_val": 2000,
      "base_duration_us": 230769
    },
    {
      "id": "M_782",
      "pitch": 77,
      "t_note_us": 78461383,
      "t_trigger_us": 78325420,
      "is_ai": false,
      "track_id": 0,
      "velocity": 0,
      "is_motor": true,
      "motor_id": 2,
      "accel_val": 2000,
      "base_duration_us": 461537
    },
    {
      "id": "M_780",
      "pitch": 62,
      "t_note_us": 78692152,
      "t_trigger_us": 78556189,
      "is_ai": false,
      "track_id": 0,
      "velocity": 0,
      "is_motor": true,
      "motor_id": 1,
      "accel_val": 2000,
      "base_duration_us": 115384
    },
    {
      "id": "M_781",
      "pitch": 57,
      "t_note_us": 78692152,
      "t_trigger_us": 78556189,
      "is_ai": false,
      "track_id": 0,
      "velocity": 0,
      "is_motor": true,
      "motor_id": 0,
      "accel_val": 2000,
      "base_duration_us": 115384
    },
    {
      "id": "M_784",
      "pitch": 50,
      "t_note_us": 78807536,
      "t_trigger_us": 78671573,
      "is_ai": false,
      "track_id": 0,
      "velocity": 0,
      "is_motor": true,
      "motor_id": 0,
      "accel_val": 2000,
      "base_duration_us": 230768
    },
    {
      "id": "M_786",
      "pitch": 89,
      "t_note_us": 78922920,
      "t_trigger_us": 78786957,
      "is_ai": true,
      "track_id": 6,
      "velocity": 0,
      "is_motor": false,
      "motor_id": 0,
      "accel_val": 2000,
      "base_duration_us": 230768
    },
    {
      "id": "M_787",
      "pitch": 77,
      "t_note_us": 78922920,
      "t_trigger_us": 78786957,
      "is_ai": false,
      "track_id": 0,
      "velocity": 0,
      "is_motor": true,
      "motor_id": 2,
      "accel_val": 2000,
      "base_duration_us": 230768
    },
    {
      "id": "M_785",
      "pitch": 50,
      "t_note_us": 79038304,
      "t_trigger_us": 78902341,
      "is_ai": false,
      "track_id": 0,
      "velocity": 0,
      "is_motor": true,
      "motor_id": 0,
      "accel_val": 2000,
      "base_duration_us": 115384
    },
    {
      "id": "M_791",
      "pitch": 84,
      "t_note_us": 79153688,
      "t_trigger_us": 79017725,
      "is_ai": true,
      "track_id": 3,
      "velocity": 0,
      "is_motor": false,
      "motor_id": 0,
      "accel_val": 2000,
      "base_duration_us": 230768
    },
    {
      "id": "M_792",
      "pitch": 96,
      "t_note_us": 79153688,
      "t_trigger_us": 79017725,
      "is_ai": true,
      "track_id": 10,
      "velocity": 0,
      "is_motor": false,
      "motor_id": 0,
      "accel_val": 2000,
      "base_duration_us": 230768
    },
    {
      "id": "M_788",
      "pitch": 57,
      "t_note_us": 79153688,
      "t_trigger_us": 79017725,
      "is_ai": false,
      "track_id": 0,
      "velocity": 0,
      "is_motor": true,
      "motor_id": 0,
      "accel_val": 2000,
      "base_duration_us": 115384
    },
    {
      "id": "M_789",
      "pitch": 62,
      "t_note_us": 79153688,
      "t_trigger_us": 79017725,
      "is_ai": false,
      "track_id": 0,
      "velocity": 0,
      "is_motor": true,
      "motor_id": 1,
      "accel_val": 2000,
      "base_duration_us": 115384
    },
    {
      "id": "M_790",
      "pitch": 50,
      "t_note_us": 79269072,
      "t_trigger_us": 79133109,
      "is_ai": false,
      "track_id": 0,
      "velocity": 0,
      "is_motor": true,
      "motor_id": 0,
      "accel_val": 2000,
      "base_duration_us": 115384
    },
    {
      "id": "M_795",
      "pitch": 94,
      "t_note_us": 79384456,
      "t_trigger_us": 79248493,
      "is_ai": true,
      "track_id": 0,
      "velocity": 0,
      "is_motor": true,
      "motor_id": 3,
      "accel_val": 2000,
      "base_duration_us": 230769
    },
    {
      "id": "M_793",
      "pitch": 58,
      "t_note_us": 79384456,
      "t_trigger_us": 79248493,
      "is_ai": false,
      "track_id": 0,
      "velocity": 0,
      "is_motor": true,
      "motor_id": 0,
      "accel_val": 2000,
      "base_duration_us": 230769
    },
    {
      "id": "M_794",
      "pitch": 46,
      "t_note_us": 79384456,
      "t_trigger_us": 79248493,
      "is_ai": false,
      "track_id": 0,
      "velocity": 0,
      "is_motor": true,
      "motor_id": 1,
      "accel_val": 2000,
      "base_duration_us": 230769
    },
    {
      "id": "M_796",
      "pitch": 70,
      "t_note_us": 79384456,
      "t_trigger_us": 79248493,
      "is_ai": false,
      "track_id": 0,
      "velocity": 0,
      "is_motor": true,
      "motor_id": 2,
      "accel_val": 2000,
      "base_duration_us": 230769
    },
    {
      "id": "M_799",
      "pitch": 93,
      "t_note_us": 79615225,
      "t_trigger_us": 79479262,
      "is_ai": true,
      "track_id": 8,
      "velocity": 0,
      "is_motor": false,
      "motor_id": 0,
      "accel_val": 2000,
      "base_duration_us": 230769
    },
    {
      "id": "M_797",
      "pitch": 58,
      "t_note_us": 79615225,
      "t_trigger_us": 79479262,
      "is_ai": false,
      "track_id": 0,
      "velocity": 0,
      "is_motor": true,
      "motor_id": 0,
      "accel_val": 2000,
      "base_duration_us": 230769
    },
    {
      "id": "M_798",
      "pitch": 69,
      "t_note_us": 79615225,
      "t_trigger_us": 79479262,
      "is_ai": false,
      "track_id": 0,
      "velocity": 0,
      "is_motor": true,
      "motor_id": 1,
      "accel_val": 2000,
      "base_duration_us": 230769
    },
    {
      "id": "M_803",
      "pitch": 91,
      "t_note_us": 79845994,
      "t_trigger_us": 79710031,
      "is_ai": true,
      "track_id": 7,
      "velocity": 0,
      "is_motor": false,
      "motor_id": 0,
      "accel_val": 2000,
      "base_duration_us": 230769
    },
    {
      "id": "M_800",
      "pitch": 62,
      "t_note_us": 79845994,
      "t_trigger_us": 79710031,
      "is_ai": false,
      "track_id": 0,
      "velocity": 0,
      "is_motor": true,
      "motor_id": 1,
      "accel_val": 2000,
      "base_duration_us": 230769
    },
    {
      "id": "M_801",
      "pitch": 67,
      "t_note_us": 79845994,
      "t_trigger_us": 79710031,
      "is_ai": false,
      "track_id": 0,
      "velocity": 0,
      "is_motor": true,
      "motor_id": 2,
      "accel_val": 2000,
      "base_duration_us": 230769
    },
    {
      "id": "M_802",
      "pitch": 65,
      "t_note_us": 79845994,
      "t_trigger_us": 79710031,
      "is_ai": false,
      "track_id": 0,
      "velocity": 0,
      "is_motor": true,
      "motor_id": 0,
      "accel_val": 2000,
      "base_duration_us": 230769
    },
    {
      "id": "M_804",
      "pitch": 89,
      "t_note_us": 80076763,
      "t_trigger_us": 79940800,
      "is_ai": true,
      "track_id": 6,
      "velocity": 0,
      "is_motor": false,
      "motor_id": 0,
      "accel_val": 2000,
      "base_duration_us": 230769
    },
    {
      "id": "M_805",
      "pitch": 77,
      "t_note_us": 80076763,
      "t_trigger_us": 79940800,
      "is_ai": false,
      "track_id": 0,
      "velocity": 0,
      "is_motor": true,
      "motor_id": 2,
      "accel_val": 2000,
      "base_duration_us": 230769
    },
    {
      "id": "M_806",
      "pitch": 58,
      "t_note_us": 80076763,
      "t_trigger_us": 79940800,
      "is_ai": false,
      "track_id": 0,
      "velocity": 0,
      "is_motor": true,
      "motor_id": 0,
      "accel_val": 2000,
      "base_duration_us": 230769
    },
    {
      "id": "M_810",
      "pitch": 88,
      "t_note_us": 80307532,
      "t_trigger_us": 80171569,
      "is_ai": true,
      "track_id": 5,
      "velocity": 0,
      "is_motor": false,
      "motor_id": 0,
      "accel_val": 2000,
      "base_duration_us": 230769
    },
    {
      "id": "M_807",
      "pitch": 45,
      "t_note_us": 80307532,
      "t_trigger_us": 80171569,
      "is_ai": false,
      "track_id": 0,
      "velocity": 0,
      "is_motor": true,
      "motor_id": 0,
      "accel_val": 2000,
      "base_duration_us": 230769
    },
    {
      "id": "M_808",
      "pitch": 57,
      "t_note_us": 80307532,
      "t_trigger_us": 80171569,
      "is_ai": false,
      "track_id": 0,
      "velocity": 0,
      "is_motor": true,
      "motor_id": 1,
      "accel_val": 2000,
      "base_duration_us": 230769
    },
    {
      "id": "M_809",
      "pitch": 76,
      "t_note_us": 80307532,
      "t_trigger_us": 80171569,
      "is_ai": false,
      "track_id": 0,
      "velocity": 0,
      "is_motor": true,
      "motor_id": 2,
      "accel_val": 2000,
      "base_duration_us": 230769
    },
    {
      "id": "M_813",
      "pitch": 89,
      "t_note_us": 80538301,
      "t_trigger_us": 80402338,
      "is_ai": true,
      "track_id": 6,
      "velocity": 0,
      "is_motor": false,
      "motor_id": 0,
      "accel_val": 2000,
      "base_duration_us": 230769
    },
    {
      "id": "M_811",
      "pitch": 77,
      "t_note_us": 80538301,
      "t_trigger_us": 80402338,
      "is_ai": false,
      "track_id": 0,
      "velocity": 0,
      "is_motor": true,
      "motor_id": 2,
      "accel_val": 2000,
      "base_duration_us": 230769
    },
    {
      "id": "M_812",
      "pitch": 57,
      "t_note_us": 80538301,
      "t_trigger_us": 80402338,
      "is_ai": false,
      "track_id": 0,
      "velocity": 0,
      "is_motor": true,
      "motor_id": 0,
      "accel_val": 2000,
      "base_duration_us": 230769
    },
    {
      "id": "M_816",
      "pitch": 91,
      "t_note_us": 80769070,
      "t_trigger_us": 80633107,
      "is_ai": true,
      "track_id": 7,
      "velocity": 0,
      "is_motor": false,
      "motor_id": 0,
      "accel_val": 2000,
      "base_duration_us": 230769
    },
    {
      "id": "M_814",
      "pitch": 67,
      "t_note_us": 80769070,
      "t_trigger_us": 80633107,
      "is_ai": false,
      "track_id": 0,
      "velocity": 0,
      "is_motor": true,
      "motor_id": 1,
      "accel_val": 2000,
      "base_duration_us": 230769
    },
    {
      "id": "M_815",
      "pitch": 64,
      "t_note_us": 80769070,
      "t_trigger_us": 80633107,
      "is_ai": false,
      "track_id": 0,
      "velocity": 0,
      "is_motor": true,
      "motor_id": 0,
      "accel_val": 2000,
      "base_duration_us": 230769
    },
    {
      "id": "M_817",
      "pitch": 61,
      "t_note_us": 80769070,
      "t_trigger_us": 80633107,
      "is_ai": false,
      "track_id": 0,
      "velocity": 0,
      "is_motor": true,
      "motor_id": 2,
      "accel_val": 2000,
      "base_duration_us": 230769
    },
    {
      "id": "M_819",
      "pitch": 94,
      "t_note_us": 80999839,
      "t_trigger_us": 80863876,
      "is_ai": true,
      "track_id": 0,
      "velocity": 0,
      "is_motor": true,
      "motor_id": 3,
      "accel_val": 2000,
      "base_duration_us": 230769
    },
    {
      "id": "M_818",
      "pitch": 70,
      "t_note_us": 80999839,
      "t_trigger_us": 80863876,
      "is_ai": false,
      "track_id": 0,
      "velocity": 0,
      "is_motor": true,
      "motor_id": 1,
      "accel_val": 2000,
      "base_duration_us": 230769
    },
    {
      "id": "M_820",
      "pitch": 57,
      "t_note_us": 80999839,
      "t_trigger_us": 80863876,
      "is_ai": false,
      "track_id": 0,
      "velocity": 0,
      "is_motor": true,
      "motor_id": 0,
      "accel_val": 2000,
      "base_duration_us": 230769
    },
    {
      "id": "M_822",
      "pitch": 93,
      "t_note_us": 81230608,
      "t_trigger_us": 81094645,
      "is_ai": true,
      "track_id": 8,
      "velocity": 0,
      "is_motor": false,
      "motor_id": 0,
      "accel_val": 2000,
      "base_duration_us": 230769
    },
    {
      "id": "M_821",
      "pitch": 69,
      "t_note_us": 81230608,
      "t_trigger_us": 81094645,
      "is_ai": false,
      "track_id": 0,
      "velocity": 0,
      "is_motor": true,
      "motor_id": 1,
      "accel_val": 2000,
      "base_duration_us": 230769
    },
    {
      "id": "M_823",
      "pitch": 50,
      "t_note_us": 81230608,
      "t_trigger_us": 81094645,
      "is_ai": false,
      "track_id": 0,
      "velocity": 0,
      "is_motor": true,
      "motor_id": 0,
      "accel_val": 2000,
      "base_duration_us": 230769
    },
    {
      "id": "M_824",
      "pitch": 62,
      "t_note_us": 81230608,
      "t_trigger_us": 81094645,
      "is_ai": false,
      "track_id": 0,
      "velocity": 0,
      "is_motor": true,
      "motor_id": 2,
      "accel_val": 2000,
      "base_duration_us": 230769
    },
    {
      "id": "M_826",
      "pitch": 91,
      "t_note_us": 81461377,
      "t_trigger_us": 81325414,
      "is_ai": true,
      "track_id": 7,
      "velocity": 0,
      "is_motor": false,
      "motor_id": 0,
      "accel_val": 2000,
      "base_duration_us": 115384
    },
    {
      "id": "M_825",
      "pitch": 67,
      "t_note_us": 81461377,
      "t_trigger_us": 81325414,
      "is_ai": false,
      "track_id": 0,
      "velocity": 0,
      "is_motor": true,
      "motor_id": 1,
      "accel_val": 2000,
      "base_duration_us": 115384
    },
    {
      "id": "M_827",
      "pitch": 62,
      "t_note_us": 81461377,
      "t_trigger_us": 81325414,
      "is_ai": false,
      "track_id": 0,
      "velocity": 0,
      "is_motor": true,
      "motor_id": 0,
      "accel_val": 2000,
      "base_duration_us": 230768
    },
    {
      "id": "M_831",
      "pitch": 93,
      "t_note_us": 81576761,
      "t_trigger_us": 81440798,
      "is_ai": true,
      "track_id": 8,
      "velocity": 0,
      "is_motor": false,
      "motor_id": 0,
      "accel_val": 2000,
      "base_duration_us": 346153
    },
    {
      "id": "M_830",
      "pitch": 69,
      "t_note_us": 81576761,
      "t_trigger_us": 81440798,
      "is_ai": false,
      "track_id": 0,
      "velocity": 0,
      "is_motor": true,
      "motor_id": 1,
      "accel_val": 2000,
      "base_duration_us": 346153
    },
    {
      "id": "M_828",
      "pitch": 65,
      "t_note_us": 81692145,
      "t_trigger_us": 81556182,
      "is_ai": false,
      "track_id": 0,
      "velocity": 0,
      "is_motor": true,
      "motor_id": 0,
      "accel_val": 2000,
      "base_duration_us": 230769
    },
    {
      "id": "M_829",
      "pitch": 69,
      "t_note_us": 81692145,
      "t_trigger_us": 81556182,
      "is_ai": false,
      "track_id": 0,
      "velocity": 0,
      "is_motor": true,
      "motor_id": 2,
      "accel_val": 2000,
      "base_duration_us": 230769
    },
    {
      "id": "M_832",
      "pitch": 98,
      "t_note_us": 81922914,
      "t_trigger_us": 81786951,
      "is_ai": true,
      "track_id": 11,
      "velocity": 0,
      "is_motor": false,
      "motor_id": 0,
      "accel_val": 2000,
      "base_duration_us": 230769
    },
    {
      "id": "M_833",
      "pitch": 86,
      "t_note_us": 81922914,
      "t_trigger_us": 81786951,
      "is_ai": true,
      "track_id": 4,
      "velocity": 0,
      "is_motor": false,
      "motor_id": 0,
      "accel_val": 2000,
      "base_duration_us": 230769
    },
    {
      "id": "M_834",
      "pitch": 62,
      "t_note_us": 81922914,
      "t_trigger_us": 81786951,
      "is_ai": false,
      "track_id": 0,
      "velocity": 0,
      "is_motor": true,
      "motor_id": 1,
      "accel_val": 2000,
      "base_duration_us": 230769
    },
    {
      "id": "M_839",
      "pitch": 84,
      "t_note_us": 82153683,
      "t_trigger_us": 82017720,
      "is_ai": true,
      "track_id": 3,
      "velocity": 0,
      "is_motor": false,
      "motor_id": 0,
      "accel_val": 2000,
      "base_duration_us": 461538
    },
    {
      "id": "M_840",
      "pitch": 96,
      "t_note_us": 82153683,
      "t_trigger_us": 82017720,
      "is_ai": true,
      "track_id": 10,
      "velocity": 0,
      "is_motor": false,
      "motor_id": 0,
      "accel_val": 2000,
      "base_duration_us": 461538
    },
    {
      "id": "M_835",
      "pitch": 51,
      "t_note_us": 82153683,
      "t_trigger_us": 82017720,
      "is_ai": false,
      "track_id": 0,
      "velocity": 0,
      "is_motor": true,
      "motor_id": 0,
      "accel_val": 2000,
      "base_duration_us": 230769
    },
    {
      "id": "M_836",
      "pitch": 63,
      "t_note_us": 82153683,
      "t_trigger_us": 82017720,
      "is_ai": false,
      "track_id": 0,
      "velocity": 0,
      "is_motor": true,
      "motor_id": 1,
      "accel_val": 2000,
      "base_duration_us": 230769
    },
    {
      "id": "M_837",
      "pitch": 63,
      "t_note_us": 82384452,
      "t_trigger_us": 82248489,
      "is_ai": false,
      "track_id": 0,
      "velocity": 0,
      "is_motor": true,
      "motor_id": 1,
      "accel_val": 2000,
      "base_duration_us": 230769
    },
    {
      "id": "M_838",
      "pitch": 51,
      "t_note_us": 82384452,
      "t_trigger_us": 82248489,
      "is_ai": false,
      "track_id": 0,
      "velocity": 0,
      "is_motor": true,
      "motor_id": 0,
      "accel_val": 2000,
      "base_duration_us": 230769
    },
    {
      "id": "M_841",
      "pitch": 93,
      "t_note_us": 82615221,
      "t_trigger_us": 82479258,
      "is_ai": true,
      "track_id": 8,
      "velocity": 0,
      "is_motor": false,
      "motor_id": 0,
      "accel_val": 2000,
      "base_duration_us": 230769
    },
    {
      "id": "M_842",
      "pitch": 53,
      "t_note_us": 82615221,
      "t_trigger_us": 82479258,
      "is_ai": false,
      "track_id": 0,
      "velocity": 0,
      "is_motor": true,
      "motor_id": 0,
      "accel_val": 2000,
      "base_duration_us": 230769
    },
    {
      "id": "M_843",
      "pitch": 65,
      "t_note_us": 82615221,
      "t_trigger_us": 82479258,
      "is_ai": false,
      "track_id": 0,
      "velocity": 0,
      "is_motor": true,
      "motor_id": 1,
      "accel_val": 2000,
      "base_duration_us": 230769
    },
    {
      "id": "M_844",
      "pitch": 69,
      "t_note_us": 82615221,
      "t_trigger_us": 82479258,
      "is_ai": false,
      "track_id": 0,
      "velocity": 0,
      "is_motor": true,
      "motor_id": 2,
      "accel_val": 2000,
      "base_duration_us": 230769
    },
    {
      "id": "M_847",
      "pitch": 96,
      "t_note_us": 82845990,
      "t_trigger_us": 82710027,
      "is_ai": true,
      "track_id": 10,
      "velocity": 0,
      "is_motor": false,
      "motor_id": 0,
      "accel_val": 2000,
      "base_duration_us": 230769
    },
    {
      "id": "M_848",
      "pitch": 84,
      "t_note_us": 82845990,
      "t_trigger_us": 82710027,
      "is_ai": true,
      "track_id": 3,
      "velocity": 0,
      "is_motor": false,
      "motor_id": 0,
      "accel_val": 2000,
      "base_duration_us": 230769
    },
    {
      "id": "M_845",
      "pitch": 65,
      "t_note_us": 82845990,
      "t_trigger_us": 82710027,
      "is_ai": false,
      "track_id": 0,
      "velocity": 0,
      "is_motor": true,
      "motor_id": 1,
      "accel_val": 2000,
      "base_duration_us": 230769
    },
    {
      "id": "M_846",
      "pitch": 53,
      "t_note_us": 82845990,
      "t_trigger_us": 82710027,
      "is_ai": false,
      "track_id": 0,
      "velocity": 0,
      "is_motor": true,
      "motor_id": 0,
      "accel_val": 2000,
      "base_duration_us": 230769
    },
    {
      "id": "M_851",
      "pitch": 86,
      "t_note_us": 83076759,
      "t_trigger_us": 82940796,
      "is_ai": true,
      "track_id": 4,
      "velocity": 0,
      "is_motor": false,
      "motor_id": 0,
      "accel_val": 2000,
      "base_duration_us": 346153
    },
    {
      "id": "M_852",
      "pitch": 98,
      "t_note_us": 83076759,
      "t_trigger_us": 82940796,
      "is_ai": true,
      "track_id": 11,
      "velocity": 0,
      "is_motor": false,
      "motor_id": 0,
      "accel_val": 2000,
      "base_duration_us": 346153
    },
    {
      "id": "M_849",
      "pitch": 58,
      "t_note_us": 83076759,
      "t_trigger_us": 82940796,
      "is_ai": false,
      "track_id": 0,
      "velocity": 0,
      "is_motor": true,
      "motor_id": 0,
      "accel_val": 2000,
      "base_duration_us": 230769
    },
    {
      "id": "M_850",
      "pitch": 46,
      "t_note_us": 83076759,
      "t_trigger_us": 82940796,
      "is_ai": false,
      "track_id": 0,
      "velocity": 0,
      "is_motor": true,
      "motor_id": 1,
      "accel_val": 2000,
      "base_duration_us": 230769
    },
    {
      "id": "M_853",
      "pitch": 58,
      "t_note_us": 83307528,
      "t_trigger_us": 83171565,
      "is_ai": false,
      "track_id": 0,
      "velocity": 0,
      "is_motor": true,
      "motor_id": 0,
      "accel_val": 2000,
      "base_duration_us": 230768
    },
    {
      "id": "M_856",
      "pitch": 94,
      "t_note_us": 83422912,
      "t_trigger_us": 83286949,
      "is_ai": true,
      "track_id": 0,
      "velocity": 0,
      "is_motor": true,
      "motor_id": 3,
      "accel_val": 2000,
      "base_duration_us": 346153
    },
    {
      "id": "M_857",
      "pitch": 82,
      "t_note_us": 83422912,
      "t_trigger_us": 83286949,
      "is_ai": true,
      "track_id": 0,
      "velocity": 0,
      "is_motor": true,
      "motor_id": 2,
      "accel_val": 2000,
      "base_duration_us": 346153
    },
    {
      "id": "M_854",
      "pitch": 62,
      "t_note_us": 83538296,
      "t_trigger_us": 83402333,
      "is_ai": false,
      "track_id": 0,
      "velocity": 0,
      "is_motor": true,
      "motor_id": 1,
      "accel_val": 2000,
      "base_duration_us": 230769
    },
    {
      "id": "M_855",
      "pitch": 65,
      "t_note_us": 83538296,
      "t_trigger_us": 83402333,
      "is_ai": false,
      "track_id": 0,
      "velocity": 0,
      "is_motor": true,
      "motor_id": 0,
      "accel_val": 2000,
      "base_duration_us": 230769
    },
    {
      "id": "M_860",
      "pitch": 93,
      "t_note_us": 83769065,
      "t_trigger_us": 83633102,
      "is_ai": true,
      "track_id": 8,
      "velocity": 0,
      "is_motor": false,
      "motor_id": 0,
      "accel_val": 2000,
      "base_duration_us": 230769
    },
    {
      "id": "M_858",
      "pitch": 58,
      "t_note_us": 83769065,
      "t_trigger_us": 83633102,
      "is_ai": false,
      "track_id": 0,
      "velocity": 0,
      "is_motor": true,
      "motor_id": 0,
      "accel_val": 2000,
      "base_duration_us": 230769
    },
    {
      "id": "M_859",
      "pitch": 69,
      "t_note_us": 83769065,
      "t_trigger_us": 83633102,
      "is_ai": false,
      "track_id": 0,
      "velocity": 0,
      "is_motor": true,
      "motor_id": 1,
      "accel_val": 2000,
      "base_duration_us": 230769
    },
    {
      "id": "M_862",
      "pitch": 91,
      "t_note_us": 83999834,
      "t_trigger_us": 83863871,
      "is_ai": true,
      "track_id": 7,
      "velocity": 0,
      "is_motor": false,
      "motor_id": 0,
      "accel_val": 2000,
      "base_duration_us": 230769
    },
    {
      "id": "M_861",
      "pitch": 67,
      "t_note_us": 83999834,
      "t_trigger_us": 83863871,
      "is_ai": false,
      "track_id": 0,
      "velocity": 0,
      "is_motor": true,
      "motor_id": 1,
      "accel_val": 2000,
      "base_duration_us": 230769
    },
    {
      "id": "M_863",
      "pitch": 60,
      "t_note_us": 83999834,
      "t_trigger_us": 83863871,
      "is_ai": false,
      "track_id": 0,
      "velocity": 0,
      "is_motor": true,
      "motor_id": 0,
      "accel_val": 2000,
      "base_duration_us": 230769
    },
    {
      "id": "M_864",
      "pitch": 48,
      "t_note_us": 83999834,
      "t_trigger_us": 83863871,
      "is_ai": false,
      "track_id": 0,
      "velocity": 0,
      "is_motor": true,
      "motor_id": 2,
      "accel_val": 2000,
      "base_duration_us": 230769
    },
    {
      "id": "M_867",
      "pitch": 89,
      "t_note_us": 84230603,
      "t_trigger_us": 84094640,
      "is_ai": true,
      "track_id": 6,
      "velocity": 0,
      "is_motor": false,
      "motor_id": 0,
      "accel_val": 2000,
      "base_duration_us": 230769
    },
    {
      "id": "M_865",
      "pitch": 60,
      "t_note_us": 84230603,
      "t_trigger_us": 84094640,
      "is_ai": false,
      "track_id": 0,
      "velocity": 0,
      "is_motor": true,
      "motor_id": 1,
      "accel_val": 2000,
      "base_duration_us": 230769
    },
    {
      "id": "M_866",
      "pitch": 77,
      "t_note_us": 84230603,
      "t_trigger_us": 84094640,
      "is_ai": false,
      "track_id": 0,
      "velocity": 0,
      "is_motor": true,
      "motor_id": 2,
      "accel_val": 2000,
      "base_duration_us": 230769
    },
    {
      "id": "M_871",
      "pitch": 91,
      "t_note_us": 84461372,
      "t_trigger_us": 84325409,
      "is_ai": true,
      "track_id": 7,
      "velocity": 0,
      "is_motor": false,
      "motor_id": 0,
      "accel_val": 2000,
      "base_duration_us": 230769
    },
    {
      "id": "M_868",
      "pitch": 64,
      "t_note_us": 84461372,
      "t_trigger_us": 84325409,
      "is_ai": false,
      "track_id": 0,
      "velocity": 0,
      "is_motor": true,
      "motor_id": 1,
      "accel_val": 2000,
      "base_duration_us": 230769
    },
    {
      "id": "M_869",
      "pitch": 67,
      "t_note_us": 84461372,
      "t_trigger_us": 84325409,
      "is_ai": false,
      "track_id": 0,
      "velocity": 0,
      "is_motor": true,
      "motor_id": 2,
      "accel_val": 2000,
      "base_duration_us": 230769
    },
    {
      "id": "M_870",
      "pitch": 67,
      "t_note_us": 84461372,
      "t_trigger_us": 84325409,
      "is_ai": false,
      "track_id": 0,
      "velocity": 0,
      "is_motor": true,
      "motor_id": 0,
      "accel_val": 2000,
      "base_duration_us": 230769
    },
    {
      "id": "M_872",
      "pitch": 98,
      "t_note_us": 84692141,
      "t_trigger_us": 84556178,
      "is_ai": true,
      "track_id": 11,
      "velocity": 0,
      "is_motor": false,
      "motor_id": 0,
      "accel_val": 2000,
      "base_duration_us": 230769
    },
    {
      "id": "M_874",
      "pitch": 86,
      "t_note_us": 84692141,
      "t_trigger_us": 84556178,
      "is_ai": true,
      "track_id": 4,
      "velocity": 0,
      "is_motor": false,
      "motor_id": 0,
      "accel_val": 2000,
      "base_duration_us": 230769
    },
    {
      "id": "M_873",
      "pitch": 60,
      "t_note_us": 84692141,
      "t_trigger_us": 84556178,
      "is_ai": false,
      "track_id": 0,
      "velocity": 0,
      "is_motor": true,
      "motor_id": 1,
      "accel_val": 2000,
      "base_duration_us": 230769
    },
    {
      "id": "M_875",
      "pitch": 96,
      "t_note_us": 84922910,
      "t_trigger_us": 84786947,
      "is_ai": true,
      "track_id": 10,
      "velocity": 0,
      "is_motor": false,
      "motor_id": 0,
      "accel_val": 2000,
      "base_duration_us": 230769
    },
    {
      "id": "M_878",
      "pitch": 84,
      "t_note_us": 84922910,
      "t_trigger_us": 84786947,
      "is_ai": true,
      "track_id": 3,
      "velocity": 0,
      "is_motor": false,
      "motor_id": 0,
      "accel_val": 2000,
      "base_duration_us": 230769
    },
    {
      "id": "M_876",
      "pitch": 57,
      "t_note_us": 84922910,
      "t_trigger_us": 84786947,
      "is_ai": false,
      "track_id": 0,
      "velocity": 0,
      "is_motor": true,
      "motor_id": 0,
      "accel_val": 2000,
      "base_duration_us": 230769
    },
    {
      "id": "M_877",
      "pitch": 45,
      "t_note_us": 84922910,
      "t_trigger_us": 84786947,
      "is_ai": false,
      "track_id": 0,
      "velocity": 0,
      "is_motor": true,
      "motor_id": 1,
      "accel_val": 2000,
      "base_duration_us": 230769
    },
    {
      "id": "M_879",
      "pitch": 86,
      "t_note_us": 85153679,
      "t_trigger_us": 85017716,
      "is_ai": true,
      "track_id": 4,
      "velocity": 0,
      "is_motor": false,
      "motor_id": 0,
      "accel_val": 2000,
      "base_duration_us": 115384
    },
    {
      "id": "M_880",
      "pitch": 98,
      "t_note_us": 85153679,
      "t_trigger_us": 85017716,
      "is_ai": true,
      "track_id": 11,
      "velocity": 0,
      "is_motor": false,
      "motor_id": 0,
      "accel_val": 2000,
      "base_duration_us": 115384
    },
    {
      "id": "M_881",
      "pitch": 57,
      "t_note_us": 85153679,
      "t_trigger_us": 85017716,
      "is_ai": false,
      "track_id": 0,
      "velocity": 0,
      "is_motor": true,
      "motor_id": 0,
      "accel_val": 2000,
      "base_duration_us": 230768
    },
    {
      "id": "M_885",
      "pitch": 93,
      "t_note_us": 85269063,
      "t_trigger_us": 85133100,
      "is_ai": true,
      "track_id": 8,
      "velocity": 0,
      "is_motor": false,
      "motor_id": 0,
      "accel_val": 2000,
      "base_duration_us": 346153
    },
    {
      "id": "M_884",
      "pitch": 69,
      "t_note_us": 85269063,
      "t_trigger_us": 85133100,
      "is_ai": false,
      "track_id": 0,
      "velocity": 0,
      "is_motor": true,
      "motor_id": 1,
      "accel_val": 2000,
      "base_duration_us": 346153
    },
    {
      "id": "M_882",
      "pitch": 64,
      "t_note_us": 85384447,
      "t_trigger_us": 85248484,
      "is_ai": false,
      "track_id": 0,
      "velocity": 0,
      "is_motor": true,
      "motor_id": 0,
      "accel_val": 2000,
      "base_duration_us": 230769
    },
    {
      "id": "M_883",
      "pitch": 60,
      "t_note_us": 85384447,
      "t_trigger_us": 85248484,
      "is_ai": false,
      "track_id": 0,
      "velocity": 0,
      "is_motor": true,
      "motor_id": 2,
      "accel_val": 2000,
      "base_duration_us": 230769
    },
    {
      "id": "M_887",
      "pitch": 91,
      "t_note_us": 85615216,
      "t_trigger_us": 85479253,
      "is_ai": true,
      "track_id": 7,
      "velocity": 0,
      "is_motor": false,
      "motor_id": 0,
      "accel_val": 2000,
      "base_duration_us": 230769
    },
    {
      "id": "M_886",
      "pitch": 67,
      "t_note_us": 85615216,
      "t_trigger_us": 85479253,
      "is_ai": false,
      "track_id": 0,
      "velocity": 0,
      "is_motor": true,
      "motor_id": 1,
      "accel_val": 2000,
      "base_duration_us": 230769
    },
    {
      "id": "M_888",
      "pitch": 57,
      "t_note_us": 85615216,
      "t_trigger_us": 85479253,
      "is_ai": false,
      "track_id": 0,
      "velocity": 0,
      "is_motor": true,
      "motor_id": 0,
      "accel_val": 2000,
      "base_duration_us": 230769
    },
    {
      "id": "M_892",
      "pitch": 89,
      "t_note_us": 85845985,
      "t_trigger_us": 85710022,
      "is_ai": true,
      "track_id": 6,
      "velocity": 0,
      "is_motor": false,
      "motor_id": 0,
      "accel_val": 2000,
      "base_duration_us": 230769
    },
    {
      "id": "M_889",
      "pitch": 62,
      "t_note_us": 85845985,
      "t_trigger_us": 85710022,
      "is_ai": false,
      "track_id": 0,
      "velocity": 0,
      "is_motor": true,
      "motor_id": 1,
      "accel_val": 2000,
      "base_duration_us": 230769
    },
    {
      "id": "M_890",
      "pitch": 50,
      "t_note_us": 85845985,
      "t_trigger_us": 85710022,
      "is_ai": false,
      "track_id": 0,
      "velocity": 0,
      "is_motor": true,
      "motor_id": 0,
      "accel_val": 2000,
      "base_duration_us": 230769
    },
    {
      "id": "M_891",
      "pitch": 77,
      "t_note_us": 85845985,
      "t_trigger_us": 85710022,
      "is_ai": false,
      "track_id": 0,
      "velocity": 0,
      "is_motor": true,
      "motor_id": 2,
      "accel_val": 2000,
      "base_duration_us": 230769
    },
    {
      "id": "M_893",
      "pitch": 62,
      "t_note_us": 86076754,
      "t_trigger_us": 85940791,
      "is_ai": false,
      "track_id": 0,
      "velocity": 0,
      "is_motor": true,
      "motor_id": 1,
      "accel_val": 2000,
      "base_duration_us": 230769
    },
    {
      "id": "M_897",
      "pitch": 86,
      "t_note_us": 86307523,
      "t_trigger_us": 86171560,
      "is_ai": true,
      "track_id": 4,
      "velocity": 0,
      "is_motor": false,
      "motor_id": 0,
      "accel_val": 2000,
      "base_duration_us": 230769
    },
    {
      "id": "M_894",
      "pitch": 65,
      "t_note_us": 86307523,
      "t_trigger_us": 86171560,
      "is_ai": false,
      "track_id": 0,
      "velocity": 0,
      "is_motor": true,
      "motor_id": 1,
      "accel_val": 2000,
      "base_duration_us": 230769
    },
    {
      "id": "M_895",
      "pitch": 74,
      "t_note_us": 86307523,
      "t_trigger_us": 86171560,
      "is_ai": false,
      "track_id": 0,
      "velocity": 0,
      "is_motor": true,
      "motor_id": 0,
      "accel_val": 2000,
      "base_duration_us": 230769
    },
    {
      "id": "M_896",
      "pitch": 69,
      "t_note_us": 86307523,
      "t_trigger_us": 86171560,
      "is_ai": false,
      "track_id": 0,
      "velocity": 0,
      "is_motor": true,
      "motor_id": 2,
      "accel_val": 2000,
      "base_duration_us": 230769
    },
    {
      "id": "M_900",
      "pitch": 88,
      "t_note_us": 86538292,
      "t_trigger_us": 86402329,
      "is_ai": true,
      "track_id": 5,
      "velocity": 0,
      "is_motor": false,
      "motor_id": 0,
      "accel_val": 2000,
      "base_duration_us": 230769
    },
    {
      "id": "M_898",
      "pitch": 76,
      "t_note_us": 86538292,
      "t_trigger_us": 86402329,
      "is_ai": false,
      "track_id": 0,
      "velocity": 0,
      "is_motor": true,
      "motor_id": 2,
      "accel_val": 2000,
      "base_duration_us": 230769
    },
    {
      "id": "M_899",
      "pitch": 62,
      "t_note_us": 86538292,
      "t_trigger_us": 86402329,
      "is_ai": false,
      "track_id": 0,
      "velocity": 0,
      "is_motor": true,
      "motor_id": 1,
      "accel_val": 2000,
      "base_duration_us": 230769
    },
    {
      "id": "M_902",
      "pitch": 89,
      "t_note_us": 86769061,
      "t_trigger_us": 86633098,
      "is_ai": true,
      "track_id": 6,
      "velocity": 0,
      "is_motor": false,
      "motor_id": 0,
      "accel_val": 2000,
      "base_duration_us": 230769
    },
    {
      "id": "M_901",
      "pitch": 58,
      "t_note_us": 86769061,
      "t_trigger_us": 86633098,
      "is_ai": false,
      "track_id": 0,
      "velocity": 0,
      "is_motor": true,
      "motor_id": 0,
      "accel_val": 2000,
      "base_duration_us": 230769
    },
    {
      "id": "M_903",
      "pitch": 77,
      "t_note_us": 86769061,
      "t_trigger_us": 86633098,
      "is_ai": false,
      "track_id": 0,
      "velocity": 0,
      "is_motor": true,
      "motor_id": 2,
      "accel_val": 2000,
      "base_duration_us": 230769
    },
    {
      "id": "M_904",
      "pitch": 46,
      "t_note_us": 86769061,
      "t_trigger_us": 86633098,
      "is_ai": false,
      "track_id": 0,
      "velocity": 0,
      "is_motor": true,
      "motor_id": 1,
      "accel_val": 2000,
      "base_duration_us": 230769
    },
    {
      "id": "M_907",
      "pitch": 86,
      "t_note_us": 86999830,
      "t_trigger_us": 86863867,
      "is_ai": true,
      "track_id": 4,
      "velocity": 0,
      "is_motor": false,
      "motor_id": 0,
      "accel_val": 2000,
      "base_duration_us": 230769
    },
    {
      "id": "M_905",
      "pitch": 74,
      "t_note_us": 86999830,
      "t_trigger_us": 86863867,
      "is_ai": false,
      "track_id": 0,
      "velocity": 0,
      "is_motor": true,
      "motor_id": 1,
      "accel_val": 2000,
      "base_duration_us": 230769
    },
    {
      "id": "M_906",
      "pitch": 58,
      "t_note_us": 86999830,
      "t_trigger_us": 86863867,
      "is_ai": false,
      "track_id": 0,
      "velocity": 0,
      "is_motor": true,
      "motor_id": 0,
      "accel_val": 2000,
      "base_duration_us": 230769
    },
    {
      "id": "M_911",
      "pitch": 89,
      "t_note_us": 87230599,
      "t_trigger_us": 87094636,
      "is_ai": true,
      "track_id": 6,
      "velocity": 0,
      "is_motor": false,
      "motor_id": 0,
      "accel_val": 2000,
      "base_duration_us": 230769
    },
    {
      "id": "M_908",
      "pitch": 65,
      "t_note_us": 87230599,
      "t_trigger_us": 87094636,
      "is_ai": false,
      "track_id": 0,
      "velocity": 0,
      "is_motor": true,
      "motor_id": 1,
      "accel_val": 2000,
      "base_duration_us": 230769
    },
    {
      "id": "M_909",
      "pitch": 62,
      "t_note_us": 87230599,
      "t_trigger_us": 87094636,
      "is_ai": false,
      "track_id": 0,
      "velocity": 0,
      "is_motor": true,
      "motor_id": 0,
      "accel_val": 2000,
      "base_duration_us": 230769
    },
    {
      "id": "M_910",
      "pitch": 77,
      "t_note_us": 87230599,
      "t_trigger_us": 87094636,
      "is_ai": false,
      "track_id": 0,
      "velocity": 0,
      "is_motor": true,
      "motor_id": 2,
      "accel_val": 2000,
      "base_duration_us": 230769
    },
    {
      "id": "M_912",
      "pitch": 91,
      "t_note_us": 87461368,
      "t_trigger_us": 87325405,
      "is_ai": true,
      "track_id": 7,
      "velocity": 0,
      "is_motor": false,
      "motor_id": 0,
      "accel_val": 2000,
      "base_duration_us": 230769
    },
    {
      "id": "M_913",
      "pitch": 58,
      "t_note_us": 87461368,
      "t_trigger_us": 87325405,
      "is_ai": false,
      "track_id": 0,
      "velocity": 0,
      "is_motor": true,
      "motor_id": 0,
      "accel_val": 2000,
      "base_duration_us": 230769
    },
    {
      "id": "M_914",
      "pitch": 67,
      "t_note_us": 87461368,
      "t_trigger_us": 87325405,
      "is_ai": false,
      "track_id": 0,
      "velocity": 0,
      "is_motor": true,
      "motor_id": 1,
      "accel_val": 2000,
      "base_duration_us": 230769
    },
    {
      "id": "M_918",
      "pitch": 93,
      "t_note_us": 87692137,
      "t_trigger_us": 87556174,
      "is_ai": true,
      "track_id": 8,
      "velocity": 0,
      "is_motor": false,
      "motor_id": 0,
      "accel_val": 2000,
      "base_duration_us": 230769
    },
    {
      "id": "M_915",
      "pitch": 58,
      "t_note_us": 87692137,
      "t_trigger_us": 87556174,
      "is_ai": false,
      "track_id": 0,
      "velocity": 0,
      "is_motor": true,
      "motor_id": 0,
      "accel_val": 2000,
      "base_duration_us": 230769
    },
    {
      "id": "M_916",
      "pitch": 46,
      "t_note_us": 87692137,
      "t_trigger_us": 87556174,
      "is_ai": false,
      "track_id": 0,
      "velocity": 0,
      "is_motor": true,
      "motor_id": 1,
      "accel_val": 2000,
      "base_duration_us": 230769
    },
    {
      "id": "M_917",
      "pitch": 69,
      "t_note_us": 87692137,
      "t_trigger_us": 87556174,
      "is_ai": false,
      "track_id": 0,
      "velocity": 0,
      "is_motor": true,
      "motor_id": 2,
      "accel_val": 2000,
      "base_duration_us": 230769
    },
    {
      "id": "M_921",
      "pitch": 89,
      "t_note_us": 87922906,
      "t_trigger_us": 87786943,
      "is_ai": true,
      "track_id": 6,
      "velocity": 0,
      "is_motor": false,
      "motor_id": 0,
      "accel_val": 2000,
      "base_duration_us": 230769
    },
    {
      "id": "M_919",
      "pitch": 58,
      "t_note_us": 87922906,
      "t_trigger_us": 87786943,
      "is_ai": false,
      "track_id": 0,
      "velocity": 0,
      "is_motor": true,
      "motor_id": 0,
      "accel_val": 2000,
      "base_duration_us": 230769
    },
    {
      "id": "M_920",
      "pitch": 77,
      "t_note_us": 87922906,
      "t_trigger_us": 87786943,
      "is_ai": false,
      "track_id": 0,
      "velocity": 0,
      "is_motor": true,
      "motor_id": 2,
      "accel_val": 2000,
      "base_duration_us": 230769
    },
    {
      "id": "M_924",
      "pitch": 93,
      "t_note_us": 88153675,
      "t_trigger_us": 88017712,
      "is_ai": true,
      "track_id": 8,
      "velocity": 0,
      "is_motor": false,
      "motor_id": 0,
      "accel_val": 2000,
      "base_duration_us": 230769
    },
    {
      "id": "M_922",
      "pitch": 65,
      "t_note_us": 88153675,
      "t_trigger_us": 88017712,
      "is_ai": false,
      "track_id": 0,
      "velocity": 0,
      "is_motor": true,
      "motor_id": 1,
      "accel_val": 2000,
      "base_duration_us": 230769
    },
    {
      "id": "M_923",
      "pitch": 69,
      "t_note_us": 88153675,
      "t_trigger_us": 88017712,
      "is_ai": false,
      "track_id": 0,
      "velocity": 0,
      "is_motor": true,
      "motor_id": 2,
      "accel_val": 2000,
      "base_duration_us": 230769
    },
    {
      "id": "M_925",
      "pitch": 62,
      "t_note_us": 88153675,
      "t_trigger_us": 88017712,
      "is_ai": false,
      "track_id": 0,
      "velocity": 0,
      "is_motor": true,
      "motor_id": 0,
      "accel_val": 2000,
      "base_duration_us": 230769
    },
    {
      "id": "M_926",
      "pitch": 98,
      "t_note_us": 88384444,
      "t_trigger_us": 88248481,
      "is_ai": true,
      "track_id": 11,
      "velocity": 0,
      "is_motor": false,
      "motor_id": 0,
      "accel_val": 2000,
      "base_duration_us": 230769
    },
    {
      "id": "M_927",
      "pitch": 86,
      "t_note_us": 88384444,
      "t_trigger_us": 88248481,
      "is_ai": true,
      "track_id": 4,
      "velocity": 0,
      "is_motor": false,
      "motor_id": 0,
      "accel_val": 2000,
      "base_duration_us": 230769
    },
    {
      "id": "M_928",
      "pitch": 58,
      "t_note_us": 88384444,
      "t_trigger_us": 88248481,
      "is_ai": false,
      "track_id": 0,
      "velocity": 0,
      "is_motor": true,
      "motor_id": 0,
      "accel_val": 2000,
      "base_duration_us": 230769
    },
    {
      "id": "M_933",
      "pitch": 97,
      "t_note_us": 88615213,
      "t_trigger_us": 88479250,
      "is_ai": true,
      "track_id": 0,
      "velocity": 0,
      "is_motor": true,
      "motor_id": 3,
      "accel_val": 2000,
      "base_duration_us": 461538
    },
    {
      "id": "M_934",
      "pitch": 85,
      "t_note_us": 88615213,
      "t_trigger_us": 88479250,
      "is_ai": true,
      "track_id": 0,
      "velocity": 0,
      "is_motor": true,
      "motor_id": 2,
      "accel_val": 2000,
      "base_duration_us": 461538
    },
    {
      "id": "M_929",
      "pitch": 57,
      "t_note_us": 88615213,
      "t_trigger_us": 88479250,
      "is_ai": false,
      "track_id": 0,
      "velocity": 0,
      "is_motor": true,
      "motor_id": 0,
      "accel_val": 2000,
      "base_duration_us": 230769
    },
    {
      "id": "M_930",
      "pitch": 45,
      "t_note_us": 88615213,
      "t_trigger_us": 88479250,
      "is_ai": false,
      "track_id": 0,
      "velocity": 0,
      "is_motor": true,
      "motor_id": 1,
      "accel_val": 2000,
      "base_duration_us": 230769
    },
    {
      "id": "M_931",
      "pitch": 57,
      "t_note_us": 88845982,
      "t_trigger_us": 88710019,
      "is_ai": false,
      "track_id": 0,
      "velocity": 0,
      "is_motor": true,
      "motor_id": 0,
      "accel_val": 2000,
      "base_duration_us": 230769
    },
    {
      "id": "M_932",
      "pitch": 52,
      "t_note_us": 88845982,
      "t_trigger_us": 88710019,
      "is_ai": false,
      "track_id": 0,
      "velocity": 0,
      "is_motor": true,
      "motor_id": 1,
      "accel_val": 2000,
      "base_duration_us": 230769
    },
    {
      "id": "M_935",
      "pitch": 45,
      "t_note_us": 89076751,
      "t_trigger_us": 88940788,
      "is_ai": false,
      "track_id": 0,
      "velocity": 0,
      "is_motor": true,
      "motor_id": 0,
      "accel_val": 2000,
      "base_duration_us": 115384
    },
    {
      "id": "M_936",
      "pitch": 57,
      "t_note_us": 89192135,
      "t_trigger_us": 89056172,
      "is_ai": false,
      "track_id": 0,
      "velocity": 0,
      "is_motor": true,
      "motor_id": 0,
      "accel_val": 2000,
      "base_duration_us": 115384
    },
    {
      "id": "M_940",
      "pitch": 93,
      "t_note_us": 89307519,
      "t_trigger_us": 89171556,
      "is_ai": true,
      "track_id": 8,
      "velocity": 0,
      "is_motor": false,
      "motor_id": 0,
      "accel_val": 2000,
      "base_duration_us": 230769
    },
    {
      "id": "M_937",
      "pitch": 57,
      "t_note_us": 89307519,
      "t_trigger_us": 89171556,
      "is_ai": false,
      "track_id": 0,
      "velocity": 0,
      "is_motor": true,
      "motor_id": 0,
      "accel_val": 2000,
      "base_duration_us": 230769
    },
    {
      "id": "M_938",
      "pitch": 69,
      "t_note_us": 89307519,
      "t_trigger_us": 89171556,
      "is_ai": false,
      "track_id": 0,
      "velocity": 0,
      "is_motor": true,
      "motor_id": 1,
      "accel_val": 2000,
      "base_duration_us": 230769
    },
    {
      "id": "M_939",
      "pitch": 52,
      "t_note_us": 89307519,
      "t_trigger_us": 89171556,
      "is_ai": false,
      "track_id": 0,
      "velocity": 0,
      "is_motor": true,
      "motor_id": 2,
      "accel_val": 2000,
      "base_duration_us": 230769
    },
    {
      "id": "M_944",
      "pitch": 93,
      "t_note_us": 89538288,
      "t_trigger_us": 89402325,
      "is_ai": true,
      "track_id": 8,
      "velocity": 0,
      "is_motor": false,
      "motor_id": 0,
      "accel_val": 2000,
      "base_duration_us": 230768
    },
    {
      "id": "M_941",
      "pitch": 45,
      "t_note_us": 89538288,
      "t_trigger_us": 89402325,
      "is_ai": false,
      "track_id": 0,
      "velocity": 0,
      "is_motor": true,
      "motor_id": 0,
      "accel_val": 2000,
      "base_duration_us": 115384
    },
    {
      "id": "M_943",
      "pitch": 69,
      "t_note_us": 89538288,
      "t_trigger_us": 89402325,
      "is_ai": false,
      "track_id": 0,
      "velocity": 0,
      "is_motor": true,
      "motor_id": 1,
      "accel_val": 2000,
      "base_duration_us": 230768
    },
    {
      "id": "M_942",
      "pitch": 57,
      "t_note_us": 89653672,
      "t_trigger_us": 89517709,
      "is_ai": false,
      "track_id": 0,
      "velocity": 0,
      "is_motor": true,
      "motor_id": 0,
      "accel_val": 2000,
      "base_duration_us": 115384
    },
    {
      "id": "M_947",
      "pitch": 101,
      "t_note_us": 89769056,
      "t_trigger_us": 89633093,
      "is_ai": true,
      "track_id": 13,
      "velocity": 0,
      "is_motor": false,
      "motor_id": 0,
      "accel_val": 2000,
      "base_duration_us": 230768
    },
    {
      "id": "M_948",
      "pitch": 89,
      "t_note_us": 89769056,
      "t_trigger_us": 89633093,
      "is_ai": true,
      "track_id": 6,
      "velocity": 0,
      "is_motor": false,
      "motor_id": 0,
      "accel_val": 2000,
      "base_duration_us": 230768
    },
    {
      "id": "M_945",
      "pitch": 52,
      "t_note_us": 89769056,
      "t_trigger_us": 89633093,
      "is_ai": false,
      "track_id": 0,
      "velocity": 0,
      "is_motor": true,
      "motor_id": 0,
      "accel_val": 2000,
      "base_duration_us": 115384
    },
    {
      "id": "M_946",
      "pitch": 45,
      "t_note_us": 89884440,
      "t_trigger_us": 89748477,
      "is_ai": false,
      "track_id": 0,
      "velocity": 0,
      "is_motor": true,
      "motor_id": 0,
      "accel_val": 2000,
      "base_duration_us": 115384
    },
    {
      "id": "M_949",
      "pitch": 100,
      "t_note_us": 89999824,
      "t_trigger_us": 89863861,
      "is_ai": true,
      "track_id": 12,
      "velocity": 0,
      "is_motor": false,
      "motor_id": 0,
      "accel_val": 2000,
      "base_duration_us": 230769
    },
    {
      "id": "M_951",
      "pitch": 88,
      "t_note_us": 89999824,
      "t_trigger_us": 89863861,
      "is_ai": true,
      "track_id": 5,
      "velocity": 0,
      "is_motor": false,
      "motor_id": 0,
      "accel_val": 2000,
      "base_duration_us": 230769
    },
    {
      "id": "M_950",
      "pitch": 45,
      "t_note_us": 89999824,
      "t_trigger_us": 89863861,
      "is_ai": false,
      "track_id": 0,
      "velocity": 0,
      "is_motor": true,
      "motor_id": 0,
      "accel_val": 2000,
      "base_duration_us": 230769
    },
    {
      "id": "M_953",
      "pitch": 96,
      "t_note_us": 90230593,
      "t_trigger_us": 90094630,
      "is_ai": true,
      "track_id": 10,
      "velocity": 0,
      "is_motor": false,
      "motor_id": 0,
      "accel_val": 2000,
      "base_duration_us": 230769
    },
    {
      "id": "M_952",
      "pitch": 57,
      "t_note_us": 90230593,
      "t_trigger_us": 90094630,
      "is_ai": false,
      "track_id": 0,
      "velocity": 0,
      "is_motor": true,
      "motor_id": 0,
      "accel_val": 2000,
      "base_duration_us": 230769
    },
    {
      "id": "M_954",
      "pitch": 72,
      "t_note_us": 90230593,
      "t_trigger_us": 90094630,
      "is_ai": false,
      "track_id": 0,
      "velocity": 0,
      "is_motor": true,
      "motor_id": 1,
      "accel_val": 2000,
      "base_duration_us": 230769
    },
    {
      "id": "M_957",
      "pitch": 96,
      "t_note_us": 90461362,
      "t_trigger_us": 90325399,
      "is_ai": true,
      "track_id": 10,
      "velocity": 0,
      "is_motor": false,
      "motor_id": 0,
      "accel_val": 2000,
      "base_duration_us": 346153
    },
    {
      "id": "M_958",
      "pitch": 84,
      "t_note_us": 90461362,
      "t_trigger_us": 90325399,
      "is_ai": true,
      "track_id": 3,
      "velocity": 0,
      "is_motor": false,
      "motor_id": 0,
      "accel_val": 2000,
      "base_duration_us": 346153
    },
    {
      "id": "M_955",
      "pitch": 46,
      "t_note_us": 90461362,
      "t_trigger_us": 90325399,
      "is_ai": false,
      "track_id": 0,
      "velocity": 0,
      "is_motor": true,
      "motor_id": 0,
      "accel_val": 2000,
      "base_duration_us": 230769
    },
    {
      "id": "M_956",
      "pitch": 58,
      "t_note_us": 90461362,
      "t_trigger_us": 90325399,
      "is_ai": false,
      "track_id": 0,
      "velocity": 0,
      "is_motor": true,
      "motor_id": 1,
      "accel_val": 2000,
      "base_duration_us": 230769
    },
    {
      "id": "M_959",
      "pitch": 58,
      "t_note_us": 90692131,
      "t_trigger_us": 90556168,
      "is_ai": false,
      "track_id": 0,
      "velocity": 0,
      "is_motor": true,
      "motor_id": 0,
      "accel_val": 2000,
      "base_duration_us": 230768
    },
    {
      "id": "M_962",
      "pitch": 86,
      "t_note_us": 90807515,
      "t_trigger_us": 90671552,
      "is_ai": true,
      "track_id": 4,
      "velocity": 0,
      "is_motor": false,
      "motor_id": 0,
      "accel_val": 2000,
      "base_duration_us": 346153
    },
    {
      "id": "M_963",
      "pitch": 98,
      "t_note_us": 90807515,
      "t_trigger_us": 90671552,
      "is_ai": true,
      "track_id": 11,
      "velocity": 0,
      "is_motor": false,
      "motor_id": 0,
      "accel_val": 2000,
      "base_duration_us": 346153
    },
    {
      "id": "M_960",
      "pitch": 65,
      "t_note_us": 90922899,
      "t_trigger_us": 90786936,
      "is_ai": false,
      "track_id": 0,
      "velocity": 0,
      "is_motor": true,
      "motor_id": 1,
      "accel_val": 2000,
      "base_duration_us": 230769
    },
    {
      "id": "M_961",
      "pitch": 62,
      "t_note_us": 90922899,
      "t_trigger_us": 90786936,
      "is_ai": false,
      "track_id": 0,
      "velocity": 0,
      "is_motor": true,
      "motor_id": 0,
      "accel_val": 2000,
      "base_duration_us": 230769
    },
    {
      "id": "M_965",
      "pitch": 93,
      "t_note_us": 91153668,
      "t_trigger_us": 91017705,
      "is_ai": true,
      "track_id": 8,
      "velocity": 0,
      "is_motor": false,
      "motor_id": 0,
      "accel_val": 2000,
      "base_duration_us": 230769
    },
    {
      "id": "M_964",
      "pitch": 58,
      "t_note_us": 91153668,
      "t_trigger_us": 91017705,
      "is_ai": false,
      "track_id": 0,
      "velocity": 0,
      "is_motor": true,
      "motor_id": 0,
      "accel_val": 2000,
      "base_duration_us": 230769
    },
    {
      "id": "M_966",
      "pitch": 69,
      "t_note_us": 91153668,
      "t_trigger_us": 91017705,
      "is_ai": false,
      "track_id": 0,
      "velocity": 0,
      "is_motor": true,
      "motor_id": 1,
      "accel_val": 2000,
      "base_duration_us": 230769
    },
    {
      "id": "M_967",
      "pitch": 91,
      "t_note_us": 91384437,
      "t_trigger_us": 91248474,
      "is_ai": true,
      "track_id": 7,
      "velocity": 0,
      "is_motor": false,
      "motor_id": 0,
      "accel_val": 2000,
      "base_duration_us": 230769
    },
    {
      "id": "M_968",
      "pitch": 48,
      "t_note_us": 91384437,
      "t_trigger_us": 91248474,
      "is_ai": false,
      "track_id": 0,
      "velocity": 0,
      "is_motor": true,
      "motor_id": 0,
      "accel_val": 2000,
      "base_duration_us": 230769
    },
    {
      "id": "M_969",
      "pitch": 67,
      "t_note_us": 91384437,
      "t_trigger_us": 91248474,
      "is_ai": false,
      "track_id": 0,
      "velocity": 0,
      "is_motor": true,
      "motor_id": 1,
      "accel_val": 2000,
      "base_duration_us": 230769
    },
    {
      "id": "M_970",
      "pitch": 60,
      "t_note_us": 91384437,
      "t_trigger_us": 91248474,
      "is_ai": false,
      "track_id": 0,
      "velocity": 0,
      "is_motor": true,
      "motor_id": 2,
      "accel_val": 2000,
      "base_duration_us": 230769
    },
    {
      "id": "M_973",
      "pitch": 89,
      "t_note_us": 91615206,
      "t_trigger_us": 91479243,
      "is_ai": true,
      "track_id": 6,
      "velocity": 0,
      "is_motor": false,
      "motor_id": 0,
      "accel_val": 2000,
      "base_duration_us": 230769
    },
    {
      "id": "M_971",
      "pitch": 77,
      "t_note_us": 91615206,
      "t_trigger_us": 91479243,
      "is_ai": false,
      "track_id": 0,
      "velocity": 0,
      "is_motor": true,
      "motor_id": 2,
      "accel_val": 2000,
      "base_duration_us": 230769
    },
    {
      "id": "M_972",
      "pitch": 60,
      "t_note_us": 91615206,
      "t_trigger_us": 91479243,
      "is_ai": false,
      "track_id": 0,
      "velocity": 0,
      "is_motor": true,
      "motor_id": 1,
      "accel_val": 2000,
      "base_duration_us": 230769
    },
    {
      "id": "M_975",
      "pitch": 91,
      "t_note_us": 91845975,
      "t_trigger_us": 91710012,
      "is_ai": true,
      "track_id": 7,
      "velocity": 0,
      "is_motor": false,
      "motor_id": 0,
      "accel_val": 2000,
      "base_duration_us": 230769
    },
    {
      "id": "M_974",
      "pitch": 67,
      "t_note_us": 91845975,
      "t_trigger_us": 91710012,
      "is_ai": false,
      "track_id": 0,
      "velocity": 0,
      "is_motor": true,
      "motor_id": 1,
      "accel_val": 2000,
      "base_duration_us": 230769
    },
    {
      "id": "M_976",
      "pitch": 67,
      "t_note_us": 91845975,
      "t_trigger_us": 91710012,
      "is_ai": false,
      "track_id": 0,
      "velocity": 0,
      "is_motor": true,
      "motor_id": 2,
      "accel_val": 2000,
      "base_duration_us": 230769
    },
    {
      "id": "M_977",
      "pitch": 64,
      "t_note_us": 91845975,
      "t_trigger_us": 91710012,
      "is_ai": false,
      "track_id": 0,
      "velocity": 0,
      "is_motor": true,
      "motor_id": 0,
      "accel_val": 2000,
      "base_duration_us": 230769
    },
    {
      "id": "M_978",
      "pitch": 98,
      "t_note_us": 92076744,
      "t_trigger_us": 91940781,
      "is_ai": true,
      "track_id": 11,
      "velocity": 0,
      "is_motor": false,
      "motor_id": 0,
      "accel_val": 2000,
      "base_duration_us": 230769
    },
    {
      "id": "M_979",
      "pitch": 86,
      "t_note_us": 92076744,
      "t_trigger_us": 91940781,
      "is_ai": true,
      "track_id": 4,
      "velocity": 0,
      "is_motor": false,
      "motor_id": 0,
      "accel_val": 2000,
      "base_duration_us": 230769
    },
    {
      "id": "M_980",
      "pitch": 60,
      "t_note_us": 92076744,
      "t_trigger_us": 91940781,
      "is_ai": false,
      "track_id": 0,
      "velocity": 0,
      "is_motor": true,
      "motor_id": 1,
      "accel_val": 2000,
      "base_duration_us": 230769
    },
    {
      "id": "M_982",
      "pitch": 96,
      "t_note_us": 92307513,
      "t_trigger_us": 92171550,
      "is_ai": true,
      "track_id": 10,
      "velocity": 0,
      "is_motor": false,
      "motor_id": 0,
      "accel_val": 2000,
      "base_duration_us": 230769
    },
    {
      "id": "M_983",
      "pitch": 84,
      "t_note_us": 92307513,
      "t_trigger_us": 92171550,
      "is_ai": true,
      "track_id": 3,
      "velocity": 0,
      "is_motor": false,
      "motor_id": 0,
      "accel_val": 2000,
      "base_duration_us": 230769
    },
    {
      "id": "M_981",
      "pitch": 57,
      "t_note_us": 92307513,
      "t_trigger_us": 92171550,
      "is_ai": false,
      "track_id": 0,
      "velocity": 0,
      "is_motor": true,
      "motor_id": 0,
      "accel_val": 2000,
      "base_duration_us": 230769
    },
    {
      "id": "M_984",
      "pitch": 45,
      "t_note_us": 92307513,
      "t_trigger_us": 92171550,
      "is_ai": false,
      "track_id": 0,
      "velocity": 0,
      "is_motor": true,
      "motor_id": 1,
      "accel_val": 2000,
      "base_duration_us": 230769
    },
    {
      "id": "M_985",
      "pitch": 98,
      "t_note_us": 92538282,
      "t_trigger_us": 92402319,
      "is_ai": true,
      "track_id": 11,
      "velocity": 0,
      "is_motor": false,
      "motor_id": 0,
      "accel_val": 2000,
      "base_duration_us": 115384
    },
    {
      "id": "M_986",
      "pitch": 86,
      "t_note_us": 92538282,
      "t_trigger_us": 92402319,
      "is_ai": true,
      "track_id": 4,
      "velocity": 0,
      "is_motor": false,
      "motor_id": 0,
      "accel_val": 2000,
      "base_duration_us": 115384
    },
    {
      "id": "M_987",
      "pitch": 57,
      "t_note_us": 92538282,
      "t_trigger_us": 92402319,
      "is_ai": false,
      "track_id": 0,
      "velocity": 0,
      "is_motor": true,
      "motor_id": 0,
      "accel_val": 2000,
      "base_duration_us": 230768
    },
    {
      "id": "M_988",
      "pitch": 93,
      "t_note_us": 92653666,
      "t_trigger_us": 92517703,
      "is_ai": true,
      "track_id": 8,
      "velocity": 0,
      "is_motor": false,
      "motor_id": 0,
      "accel_val": 2000,
      "base_duration_us": 230768
    },
    {
      "id": "M_989",
      "pitch": 69,
      "t_note_us": 92653666,
      "t_trigger_us": 92517703,
      "is_ai": false,
      "track_id": 0,
      "velocity": 0,
      "is_motor": true,
      "motor_id": 1,
      "accel_val": 2000,
      "base_duration_us": 230768
    },
    {
      "id": "M_992",
      "pitch": 64,
      "t_note_us": 92769050,
      "t_trigger_us": 92633087,
      "is_ai": false,
      "track_id": 0,
      "velocity": 0,
      "is_motor": true,
      "motor_id": 0,
      "accel_val": 2000,
      "base_duration_us": 230768
    },
    {
      "id": "M_993",
      "pitch": 60,
      "t_note_us": 92769050,
      "t_trigger_us": 92633087,
      "is_ai": false,
      "track_id": 0,
      "velocity": 0,
      "is_motor": true,
      "motor_id": 2,
      "accel_val": 2000,
      "base_duration_us": 230768
    },
    {
      "id": "M_991",
      "pitch": 89,
      "t_note_us": 92884434,
      "t_trigger_us": 92748471,
      "is_ai": true,
      "track_id": 6,
      "velocity": 0,
      "is_motor": false,
      "motor_id": 0,
      "accel_val": 2000,
      "base_duration_us": 115384
    },
    {
      "id": "M_990",
      "pitch": 77,
      "t_note_us": 92884434,
      "t_trigger_us": 92748471,
      "is_ai": false,
      "track_id": 0,
      "velocity": 0,
      "is_motor": true,
      "motor_id": 1,
      "accel_val": 2000,
      "base_duration_us": 115384
    },
    {
      "id": "M_996",
      "pitch": 91,
      "t_note_us": 92999818,
      "t_trigger_us": 92863855,
      "is_ai": true,
      "track_id": 7,
      "velocity": 0,
      "is_motor": false,
      "motor_id": 0,
      "accel_val": 2000,
      "base_duration_us": 230769
    },
    {
      "id": "M_994",
      "pitch": 57,
      "t_note_us": 92999818,
      "t_trigger_us": 92863855,
      "is_ai": false,
      "track_id": 0,
      "velocity": 0,
      "is_motor": true,
      "motor_id": 0,
      "accel_val": 2000,
      "base_duration_us": 230769
    },
    {
      "id": "M_995",
      "pitch": 67,
      "t_note_us": 92999818,
      "t_trigger_us": 92863855,
      "is_ai": false,
      "track_id": 0,
      "velocity": 0,
      "is_motor": true,
      "motor_id": 1,
      "accel_val": 2000,
      "base_duration_us": 230769
    },
    {
      "id": "M_999",
      "pitch": 89,
      "t_note_us": 93230587,
      "t_trigger_us": 93094624,
      "is_ai": true,
      "track_id": 6,
      "velocity": 0,
      "is_motor": false,
      "motor_id": 0,
      "accel_val": 2000,
      "base_duration_us": 230769
    },
    {
      "id": "M_997",
      "pitch": 62,
      "t_note_us": 93230587,
      "t_trigger_us": 93094624,
      "is_ai": false,
      "track_id": 0,
      "velocity": 0,
      "is_motor": true,
      "motor_id": 1,
      "accel_val": 2000,
      "base_duration_us": 230769
    },
    {
      "id": "M_998",
      "pitch": 50,
      "t_note_us": 93230587,
      "t_trigger_us": 93094624,
      "is_ai": false,
      "track_id": 0,
      "velocity": 0,
      "is_motor": true,
      "motor_id": 0,
      "accel_val": 2000,
      "base_duration_us": 230769
    },
    {
      "id": "M_1000",
      "pitch": 77,
      "t_note_us": 93230587,
      "t_trigger_us": 93094624,
      "is_ai": false,
      "track_id": 0,
      "velocity": 0,
      "is_motor": true,
      "motor_id": 2,
      "accel_val": 2000,
      "base_duration_us": 230769
    },
    {
      "id": "M_1001",
      "pitch": 62,
      "t_note_us": 93461356,
      "t_trigger_us": 93325393,
      "is_ai": false,
      "track_id": 0,
      "velocity": 0,
      "is_motor": true,
      "motor_id": 1,
      "accel_val": 2000,
      "base_duration_us": 230769
    },
    {
      "id": "M_1003",
      "pitch": 89,
      "t_note_us": 93692125,
      "t_trigger_us": 93556162,
      "is_ai": true,
      "track_id": 6,
      "velocity": 0,
      "is_motor": false,
      "motor_id": 0,
      "accel_val": 2000,
      "base_duration_us": 230769
    },
    {
      "id": "M_1002",
      "pitch": 77,
      "t_note_us": 93692125,
      "t_trigger_us": 93556162,
      "is_ai": false,
      "track_id": 0,
      "velocity": 0,
      "is_motor": true,
      "motor_id": 2,
      "accel_val": 2000,
      "base_duration_us": 230769
    },
    {
      "id": "M_1004",
      "pitch": 65,
      "t_note_us": 93692125,
      "t_trigger_us": 93556162,
      "is_ai": false,
      "track_id": 0,
      "velocity": 0,
      "is_motor": true,
      "motor_id": 1,
      "accel_val": 2000,
      "base_duration_us": 230769
    },
    {
      "id": "M_1005",
      "pitch": 69,
      "t_note_us": 93692125,
      "t_trigger_us": 93556162,
      "is_ai": false,
      "track_id": 0,
      "velocity": 0,
      "is_motor": true,
      "motor_id": 0,
      "accel_val": 2000,
      "base_duration_us": 230769
    },
    {
      "id": "M_1006",
      "pitch": 84,
      "t_note_us": 93922894,
      "t_trigger_us": 93786931,
      "is_ai": true,
      "track_id": 3,
      "velocity": 0,
      "is_motor": false,
      "motor_id": 0,
      "accel_val": 2000,
      "base_duration_us": 230769
    },
    {
      "id": "M_1007",
      "pitch": 96,
      "t_note_us": 93922894,
      "t_trigger_us": 93786931,
      "is_ai": true,
      "track_id": 10,
      "velocity": 0,
      "is_motor": false,
      "motor_id": 0,
      "accel_val": 2000,
      "base_duration_us": 230769
    },
    {
      "id": "M_1008",
      "pitch": 62,
      "t_note_us": 93922894,
      "t_trigger_us": 93786931,
      "is_ai": false,
      "track_id": 0,
      "velocity": 0,
      "is_motor": true,
      "motor_id": 1,
      "accel_val": 2000,
      "base_duration_us": 230769
    },
    {
      "id": "M_1010",
      "pitch": 94,
      "t_note_us": 94153663,
      "t_trigger_us": 94017700,
      "is_ai": true,
      "track_id": 0,
      "velocity": 0,
      "is_motor": true,
      "motor_id": 3,
      "accel_val": 2000,
      "base_duration_us": 230769
    },
    {
      "id": "M_1009",
      "pitch": 58,
      "t_note_us": 94153663,
      "t_trigger_us": 94017700,
      "is_ai": false,
      "track_id": 0,
      "velocity": 0,
      "is_motor": true,
      "motor_id": 0,
      "accel_val": 2000,
      "base_duration_us": 230769
    },
    {
      "id": "M_1011",
      "pitch": 70,
      "t_note_us": 94153663,
      "t_trigger_us": 94017700,
      "is_ai": false,
      "track_id": 0,
      "velocity": 0,
      "is_motor": true,
      "motor_id": 1,
      "accel_val": 2000,
      "base_duration_us": 230769
    },
    {
      "id": "M_1012",
      "pitch": 46,
      "t_note_us": 94153663,
      "t_trigger_us": 94017700,
      "is_ai": false,
      "track_id": 0,
      "velocity": 0,
      "is_motor": true,
      "motor_id": 2,
      "accel_val": 2000,
      "base_duration_us": 230769
    },
    {
      "id": "M_1015",
      "pitch": 93,
      "t_note_us": 94384432,
      "t_trigger_us": 94248469,
      "is_ai": true,
      "track_id": 8,
      "velocity": 0,
      "is_motor": false,
      "motor_id": 0,
      "accel_val": 2000,
      "base_duration_us": 230769
    },
    {
      "id": "M_1013",
      "pitch": 69,
      "t_note_us": 94384432,
      "t_trigger_us": 94248469,
      "is_ai": false,
      "track_id": 0,
      "velocity": 0,
      "is_motor": true,
      "motor_id": 1,
      "accel_val": 2000,
      "base_duration_us": 230769
    },
    {
      "id": "M_1014",
      "pitch": 58,
      "t_note_us": 94384432,
      "t_trigger_us": 94248469,
      "is_ai": false,
      "track_id": 0,
      "velocity": 0,
      "is_motor": true,
      "motor_id": 0,
      "accel_val": 2000,
      "base_duration_us": 230769
    },
    {
      "id": "M_1019",
      "pitch": 91,
      "t_note_us": 94615201,
      "t_trigger_us": 94479238,
      "is_ai": true,
      "track_id": 7,
      "velocity": 0,
      "is_motor": false,
      "motor_id": 0,
      "accel_val": 2000,
      "base_duration_us": 230769
    },
    {
      "id": "M_1016",
      "pitch": 67,
      "t_note_us": 94615201,
      "t_trigger_us": 94479238,
      "is_ai": false,
      "track_id": 0,
      "velocity": 0,
      "is_motor": true,
      "motor_id": 1,
      "accel_val": 2000,
      "base_duration_us": 230769
    },
    {
      "id": "M_1017",
      "pitch": 62,
      "t_note_us": 94615201,
      "t_trigger_us": 94479238,
      "is_ai": false,
      "track_id": 0,
      "velocity": 0,
      "is_motor": true,
      "motor_id": 0,
      "accel_val": 2000,
      "base_duration_us": 230769
    },
    {
      "id": "M_1018",
      "pitch": 65,
      "t_note_us": 94615201,
      "t_trigger_us": 94479238,
      "is_ai": false,
      "track_id": 0,
      "velocity": 0,
      "is_motor": true,
      "motor_id": 2,
      "accel_val": 2000,
      "base_duration_us": 230769
    },
    {
      "id": "M_1020",
      "pitch": 89,
      "t_note_us": 94845970,
      "t_trigger_us": 94710007,
      "is_ai": true,
      "track_id": 6,
      "velocity": 0,
      "is_motor": false,
      "motor_id": 0,
      "accel_val": 2000,
      "base_duration_us": 230769
    },
    {
      "id": "M_1021",
      "pitch": 77,
      "t_note_us": 94845970,
      "t_trigger_us": 94710007,
      "is_ai": false,
      "track_id": 0,
      "velocity": 0,
      "is_motor": true,
      "motor_id": 2,
      "accel_val": 2000,
      "base_duration_us": 230769
    },
    {
      "id": "M_1022",
      "pitch": 58,
      "t_note_us": 94845970,
      "t_trigger_us": 94710007,
      "is_ai": false,
      "track_id": 0,
      "velocity": 0,
      "is_motor": true,
      "motor_id": 0,
      "accel_val": 2000,
      "base_duration_us": 230769
    },
    {
      "id": "M_1026",
      "pitch": 88,
      "t_note_us": 95076739,
      "t_trigger_us": 94940776,
      "is_ai": true,
      "track_id": 5,
      "velocity": 0,
      "is_motor": false,
      "motor_id": 0,
      "accel_val": 2000,
      "base_duration_us": 230769
    },
    {
      "id": "M_1023",
      "pitch": 48,
      "t_note_us": 95076739,
      "t_trigger_us": 94940776,
      "is_ai": false,
      "track_id": 0,
      "velocity": 0,
      "is_motor": true,
      "motor_id": 0,
      "accel_val": 2000,
      "base_duration_us": 230769
    },
    {
      "id": "M_1024",
      "pitch": 60,
      "t_note_us": 95076739,
      "t_trigger_us": 94940776,
      "is_ai": false,
      "track_id": 0,
      "velocity": 0,
      "is_motor": true,
      "motor_id": 1,
      "accel_val": 2000,
      "base_duration_us": 230769
    },
    {
      "id": "M_1025",
      "pitch": 76,
      "t_note_us": 95076739,
      "t_trigger_us": 94940776,
      "is_ai": false,
      "track_id": 0,
      "velocity": 0,
      "is_motor": true,
      "motor_id": 2,
      "accel_val": 2000,
      "base_duration_us": 230769
    },
    {
      "id": "M_1029",
      "pitch": 89,
      "t_note_us": 95307508,
      "t_trigger_us": 95171545,
      "is_ai": true,
      "track_id": 6,
      "velocity": 0,
      "is_motor": false,
      "motor_id": 0,
      "accel_val": 2000,
      "base_duration_us": 230769
    },
    {
      "id": "M_1027",
      "pitch": 60,
      "t_note_us": 95307508,
      "t_trigger_us": 95171545,
      "is_ai": false,
      "track_id": 0,
      "velocity": 0,
      "is_motor": true,
      "motor_id": 1,
      "accel_val": 2000,
      "base_duration_us": 230769
    },
    {
      "id": "M_1028",
      "pitch": 77,
      "t_note_us": 95307508,
      "t_trigger_us": 95171545,
      "is_ai": false,
      "track_id": 0,
      "velocity": 0,
      "is_motor": true,
      "motor_id": 2,
      "accel_val": 2000,
      "base_duration_us": 230769
    },
    {
      "id": "M_1033",
      "pitch": 91,
      "t_note_us": 95538277,
      "t_trigger_us": 95402314,
      "is_ai": true,
      "track_id": 7,
      "velocity": 0,
      "is_motor": false,
      "motor_id": 0,
      "accel_val": 2000,
      "base_duration_us": 230769
    },
    {
      "id": "M_1030",
      "pitch": 64,
      "t_note_us": 95538277,
      "t_trigger_us": 95402314,
      "is_ai": false,
      "track_id": 0,
      "velocity": 0,
      "is_motor": true,
      "motor_id": 1,
      "accel_val": 2000,
      "base_duration_us": 230769
    },
    {
      "id": "M_1031",
      "pitch": 67,
      "t_note_us": 95538277,
      "t_trigger_us": 95402314,
      "is_ai": false,
      "track_id": 0,
      "velocity": 0,
      "is_motor": true,
      "motor_id": 2,
      "accel_val": 2000,
      "base_duration_us": 230769
    },
    {
      "id": "M_1032",
      "pitch": 67,
      "t_note_us": 95538277,
      "t_trigger_us": 95402314,
      "is_ai": false,
      "track_id": 0,
      "velocity": 0,
      "is_motor": true,
      "motor_id": 0,
      "accel_val": 2000,
      "base_duration_us": 230769
    },
    {
      "id": "M_1036",
      "pitch": 94,
      "t_note_us": 95769046,
      "t_trigger_us": 95633083,
      "is_ai": true,
      "track_id": 0,
      "velocity": 0,
      "is_motor": true,
      "motor_id": 3,
      "accel_val": 2000,
      "base_duration_us": 230769
    },
    {
      "id": "M_1034",
      "pitch": 60,
      "t_note_us": 95769046,
      "t_trigger_us": 95633083,
      "is_ai": false,
      "track_id": 0,
      "velocity": 0,
      "is_motor": true,
      "motor_id": 1,
      "accel_val": 2000,
      "base_duration_us": 230769
    },
    {
      "id": "M_1035",
      "pitch": 70,
      "t_note_us": 95769046,
      "t_trigger_us": 95633083,
      "is_ai": false,
      "track_id": 0,
      "velocity": 0,
      "is_motor": true,
      "motor_id": 2,
      "accel_val": 2000,
      "base_duration_us": 230769
    },
    {
      "id": "M_1038",
      "pitch": 93,
      "t_note_us": 95999815,
      "t_trigger_us": 95863852,
      "is_ai": true,
      "track_id": 8,
      "velocity": 0,
      "is_motor": false,
      "motor_id": 0,
      "accel_val": 2000,
      "base_duration_us": 230769
    },
    {
      "id": "M_1037",
      "pitch": 69,
      "t_note_us": 95999815,
      "t_trigger_us": 95863852,
      "is_ai": false,
      "track_id": 0,
      "velocity": 0,
      "is_motor": true,
      "motor_id": 1,
      "accel_val": 2000,
      "base_duration_us": 230769
    },
    {
      "id": "M_1039",
      "pitch": 50,
      "t_note_us": 95999815,
      "t_trigger_us": 95863852,
      "is_ai": false,
      "track_id": 0,
      "velocity": 0,
      "is_motor": true,
      "motor_id": 0,
      "accel_val": 2000,
      "base_duration_us": 230769
    },
    {
      "id": "M_1040",
      "pitch": 62,
      "t_note_us": 95999815,
      "t_trigger_us": 95863852,
      "is_ai": false,
      "track_id": 0,
      "velocity": 0,
      "is_motor": true,
      "motor_id": 2,
      "accel_val": 2000,
      "base_duration_us": 230769
    },
    {
      "id": "M_1041",
      "pitch": 91,
      "t_note_us": 96230584,
      "t_trigger_us": 96094621,
      "is_ai": true,
      "track_id": 7,
      "velocity": 0,
      "is_motor": false,
      "motor_id": 0,
      "accel_val": 2000,
      "base_duration_us": 115384
    },
    {
      "id": "M_1042",
      "pitch": 62,
      "t_note_us": 96230584,
      "t_trigger_us": 96094621,
      "is_ai": false,
      "track_id": 0,
      "velocity": 0,
      "is_motor": true,
      "motor_id": 1,
      "accel_val": 2000,
      "base_duration_us": 115384
    },
    {
      "id": "M_1043",
      "pitch": 67,
      "t_note_us": 96230584,
      "t_trigger_us": 96094621,
      "is_ai": false,
      "track_id": 0,
      "velocity": 0,
      "is_motor": true,
      "motor_id": 2,
      "accel_val": 2000,
      "base_duration_us": 115384
    },
    {
      "id": "M_1047",
      "pitch": 93,
      "t_note_us": 96345968,
      "t_trigger_us": 96210005,
      "is_ai": true,
      "track_id": 8,
      "velocity": 0,
      "is_motor": false,
      "motor_id": 0,
      "accel_val": 2000,
      "base_duration_us": 346153
    },
    {
      "id": "M_1044",
      "pitch": 69,
      "t_note_us": 96345968,
      "t_trigger_us": 96210005,
      "is_ai": false,
      "track_id": 0,
      "velocity": 0,
      "is_motor": true,
      "motor_id": 1,
      "accel_val": 2000,
      "base_duration_us": 230769
    },
    {
      "id": "M_1045",
      "pitch": 65,
      "t_note_us": 96345968,
      "t_trigger_us": 96210005,
      "is_ai": false,
      "track_id": 0,
      "velocity": 0,
      "is_motor": true,
      "motor_id": 0,
      "accel_val": 2000,
      "base_duration_us": 230769
    },
    {
      "id": "M_1048",
      "pitch": 69,
      "t_note_us": 96345968,
      "t_trigger_us": 96210005,
      "is_ai": false,
      "track_id": 0,
      "velocity": 0,
      "is_motor": true,
      "motor_id": 2,
      "accel_val": 2000,
      "base_duration_us": 346153
    },
    {
      "id": "M_1046",
      "pitch": 62,
      "t_note_us": 96576737,
      "t_trigger_us": 96440774,
      "is_ai": false,
      "track_id": 0,
      "velocity": 0,
      "is_motor": true,
      "motor_id": 1,
      "accel_val": 2000,
      "base_duration_us": 115384
    },
    {
      "id": "M_1050",
      "pitch": 98,
      "t_note_us": 96692121,
      "t_trigger_us": 96556158,
      "is_ai": true,
      "track_id": 11,
      "velocity": 0,
      "is_motor": false,
      "motor_id": 0,
      "accel_val": 2000,
      "base_duration_us": 230769
    },
    {
      "id": "M_1051",
      "pitch": 86,
      "t_note_us": 96692121,
      "t_trigger_us": 96556158,
      "is_ai": true,
      "track_id": 4,
      "velocity": 0,
      "is_motor": false,
      "motor_id": 0,
      "accel_val": 2000,
      "base_duration_us": 230769
    },
    {
      "id": "M_1049",
      "pitch": 62,
      "t_note_us": 96692121,
      "t_trigger_us": 96556158,
      "is_ai": false,
      "track_id": 0,
      "velocity": 0,
      "is_motor": true,
      "motor_id": 1,
      "accel_val": 2000,
      "base_duration_us": 230769
    },
    {
      "id": "M_1056",
      "pitch": 84,
      "t_note_us": 96922890,
      "t_trigger_us": 96786927,
      "is_ai": true,
      "track_id": 3,
      "velocity": 0,
      "is_motor": false,
      "motor_id": 0,
      "accel_val": 2000,
      "base_duration_us": 461538
    },
    {
      "id": "M_1057",
      "pitch": 96,
      "t_note_us": 96922890,
      "t_trigger_us": 96786927,
      "is_ai": true,
      "track_id": 10,
      "velocity": 0,
      "is_motor": false,
      "motor_id": 0,
      "accel_val": 2000,
      "base_duration_us": 461538
    },
    {
      "id": "M_1052",
      "pitch": 51,
      "t_note_us": 96922890,
      "t_trigger_us": 96786927,
      "is_ai": false,
      "track_id": 0,
      "velocity": 0,
      "is_motor": true,
      "motor_id": 0,
      "accel_val": 2000,
      "base_duration_us": 230769
    },
    {
      "id": "M_1053",
      "pitch": 63,
      "t_note_us": 96922890,
      "t_trigger_us": 96786927,
      "is_ai": false,
      "track_id": 0,
      "velocity": 0,
      "is_motor": true,
      "motor_id": 1,
      "accel_val": 2000,
      "base_duration_us": 230769
    },
    {
      "id": "M_1054",
      "pitch": 63,
      "t_note_us": 97153659,
      "t_trigger_us": 97017696,
      "is_ai": false,
      "track_id": 0,
      "velocity": 0,
      "is_motor": true,
      "motor_id": 1,
      "accel_val": 2000,
      "base_duration_us": 230769
    },
    {
      "id": "M_1055",
      "pitch": 51,
      "t_note_us": 97153659,
      "t_trigger_us": 97017696,
      "is_ai": false,
      "track_id": 0,
      "velocity": 0,
      "is_motor": true,
      "motor_id": 0,
      "accel_val": 2000,
      "base_duration_us": 230769
    },
    {
      "id": "M_1058",
      "pitch": 93,
      "t_note_us": 97384428,
      "t_trigger_us": 97248465,
      "is_ai": true,
      "track_id": 8,
      "velocity": 0,
      "is_motor": false,
      "motor_id": 0,
      "accel_val": 2000,
      "base_duration_us": 230769
    },
    {
      "id": "M_1059",
      "pitch": 69,
      "t_note_us": 97384428,
      "t_trigger_us": 97248465,
      "is_ai": false,
      "track_id": 0,
      "velocity": 0,
      "is_motor": true,
      "motor_id": 1,
      "accel_val": 2000,
      "base_duration_us": 230769
    },
    {
      "id": "M_1060",
      "pitch": 65,
      "t_note_us": 97384428,
      "t_trigger_us": 97248465,
      "is_ai": false,
      "track_id": 0,
      "velocity": 0,
      "is_motor": true,
      "motor_id": 0,
      "accel_val": 2000,
      "base_duration_us": 230769
    },
    {
      "id": "M_1061",
      "pitch": 53,
      "t_note_us": 97384428,
      "t_trigger_us": 97248465,
      "is_ai": false,
      "track_id": 0,
      "velocity": 0,
      "is_motor": true,
      "motor_id": 2,
      "accel_val": 2000,
      "base_duration_us": 230769
    },
    {
      "id": "M_1064",
      "pitch": 96,
      "t_note_us": 97615197,
      "t_trigger_us": 97479234,
      "is_ai": true,
      "track_id": 10,
      "velocity": 0,
      "is_motor": false,
      "motor_id": 0,
      "accel_val": 2000,
      "base_duration_us": 230769
    },
    {
      "id": "M_1062",
      "pitch": 72,
      "t_note_us": 97615197,
      "t_trigger_us": 97479234,
      "is_ai": false,
      "track_id": 0,
      "velocity": 0,
      "is_motor": true,
      "motor_id": 1,
      "accel_val": 2000,
      "base_duration_us": 230769
    },
    {
      "id": "M_1063",
      "pitch": 65,
      "t_note_us": 97615197,
      "t_trigger_us": 97479234,
      "is_ai": false,
      "track_id": 0,
      "velocity": 0,
      "is_motor": true,
      "motor_id": 0,
      "accel_val": 2000,
      "base_duration_us": 230769
    },
    {
      "id": "M_1065",
      "pitch": 53,
      "t_note_us": 97615197,
      "t_trigger_us": 97479234,
      "is_ai": false,
      "track_id": 0,
      "velocity": 0,
      "is_motor": true,
      "motor_id": 2,
      "accel_val": 2000,
      "base_duration_us": 230769
    },
    {
      "id": "M_1068",
      "pitch": 86,
      "t_note_us": 97845966,
      "t_trigger_us": 97710003,
      "is_ai": true,
      "track_id": 4,
      "velocity": 0,
      "is_motor": false,
      "motor_id": 0,
      "accel_val": 2000,
      "base_duration_us": 346153
    },
    {
      "id": "M_1069",
      "pitch": 98,
      "t_note_us": 97845966,
      "t_trigger_us": 97710003,
      "is_ai": true,
      "track_id": 11,
      "velocity": 0,
      "is_motor": false,
      "motor_id": 0,
      "accel_val": 2000,
      "base_duration_us": 346153
    },
    {
      "id": "M_1066",
      "pitch": 46,
      "t_note_us": 97845966,
      "t_trigger_us": 97710003,
      "is_ai": false,
      "track_id": 0,
      "velocity": 0,
      "is_motor": true,
      "motor_id": 0,
      "accel_val": 2000,
      "base_duration_us": 230769
    },
    {
      "id": "M_1067",
      "pitch": 58,
      "t_note_us": 97845966,
      "t_trigger_us": 97710003,
      "is_ai": false,
      "track_id": 0,
      "velocity": 0,
      "is_motor": true,
      "motor_id": 1,
      "accel_val": 2000,
      "base_duration_us": 230769
    },
    {
      "id": "M_1070",
      "pitch": 58,
      "t_note_us": 98076735,
      "t_trigger_us": 97940772,
      "is_ai": false,
      "track_id": 0,
      "velocity": 0,
      "is_motor": true,
      "motor_id": 0,
      "accel_val": 2000,
      "base_duration_us": 230768
    },
    {
      "id": "M_1074",
      "pitch": 94,
      "t_note_us": 98192119,
      "t_trigger_us": 98056156,
      "is_ai": true,
      "track_id": 0,
      "velocity": 0,
      "is_motor": true,
      "motor_id": 3,
      "accel_val": 2000,
      "base_duration_us": 346153
    },
    {
      "id": "M_1073",
      "pitch": 70,
      "t_note_us": 98192119,
      "t_trigger_us": 98056156,
      "is_ai": false,
      "track_id": 0,
      "velocity": 0,
      "is_motor": true,
      "motor_id": 1,
      "accel_val": 2000,
      "base_duration_us": 346153
    },
    {
      "id": "M_1071",
      "pitch": 62,
      "t_note_us": 98307503,
      "t_trigger_us": 98171540,
      "is_ai": false,
      "track_id": 0,
      "velocity": 0,
      "is_motor": true,
      "motor_id": 0,
      "accel_val": 2000,
      "base_duration_us": 230769
    },
    {
      "id": "M_1072",
      "pitch": 65,
      "t_note_us": 98307503,
      "t_trigger_us": 98171540,
      "is_ai": false,
      "track_id": 0,
      "velocity": 0,
      "is_motor": true,
      "motor_id": 2,
      "accel_val": 2000,
      "base_duration_us": 230769
    },
    {
      "id": "M_1077",
      "pitch": 93,
      "t_note_us": 98538272,
      "t_trigger_us": 98402309,
      "is_ai": true,
      "track_id": 8,
      "velocity": 0,
      "is_motor": false,
      "motor_id": 0,
      "accel_val": 2000,
      "base_duration_us": 230769
    },
    {
      "id": "M_1075",
      "pitch": 58,
      "t_note_us": 98538272,
      "t_trigger_us": 98402309,
      "is_ai": false,
      "track_id": 0,
      "velocity": 0,
      "is_motor": true,
      "motor_id": 0,
      "accel_val": 2000,
      "base_duration_us": 230769
    },
    {
      "id": "M_1076",
      "pitch": 69,
      "t_note_us": 98538272,
      "t_trigger_us": 98402309,
      "is_ai": false,
      "track_id": 0,
      "velocity": 0,
      "is_motor": true,
      "motor_id": 1,
      "accel_val": 2000,
      "base_duration_us": 230769
    },
    {
      "id": "M_1081",
      "pitch": 91,
      "t_note_us": 98769041,
      "t_trigger_us": 98633078,
      "is_ai": true,
      "track_id": 7,
      "velocity": 0,
      "is_motor": false,
      "motor_id": 0,
      "accel_val": 2000,
      "base_duration_us": 230769
    },
    {
      "id": "M_1078",
      "pitch": 67,
      "t_note_us": 98769041,
      "t_trigger_us": 98633078,
      "is_ai": false,
      "track_id": 0,
      "velocity": 0,
      "is_motor": true,
      "motor_id": 1,
      "accel_val": 2000,
      "base_duration_us": 230769
    },
    {
      "id": "M_1079",
      "pitch": 60,
      "t_note_us": 98769041,
      "t_trigger_us": 98633078,
      "is_ai": false,
      "track_id": 0,
      "velocity": 0,
      "is_motor": true,
      "motor_id": 0,
      "accel_val": 2000,
      "base_duration_us": 230769
    },
    {
      "id": "M_1080",
      "pitch": 48,
      "t_note_us": 98769041,
      "t_trigger_us": 98633078,
      "is_ai": false,
      "track_id": 0,
      "velocity": 0,
      "is_motor": true,
      "motor_id": 2,
      "accel_val": 2000,
      "base_duration_us": 230769
    },
    {
      "id": "M_1082",
      "pitch": 88,
      "t_note_us": 98999810,
      "t_trigger_us": 98863847,
      "is_ai": true,
      "track_id": 5,
      "velocity": 0,
      "is_motor": false,
      "motor_id": 0,
      "accel_val": 2000,
      "base_duration_us": 230769
    },
    {
      "id": "M_1084",
      "pitch": 100,
      "t_note_us": 98999810,
      "t_trigger_us": 98863847,
      "is_ai": true,
      "track_id": 12,
      "velocity": 0,
      "is_motor": false,
      "motor_id": 0,
      "accel_val": 2000,
      "base_duration_us": 230769
    },
    {
      "id": "M_1083",
      "pitch": 60,
      "t_note_us": 98999810,
      "t_trigger_us": 98863847,
      "is_ai": false,
      "track_id": 0,
      "velocity": 0,
      "is_motor": true,
      "motor_id": 1,
      "accel_val": 2000,
      "base_duration_us": 230769
    },
    {
      "id": "M_1087",
      "pitch": 86,
      "t_note_us": 99230579,
      "t_trigger_us": 99094616,
      "is_ai": true,
      "track_id": 4,
      "velocity": 0,
      "is_motor": false,
      "motor_id": 0,
      "accel_val": 2000,
      "base_duration_us": 230769
    },
    {
      "id": "M_1088",
      "pitch": 98,
      "t_note_us": 99230579,
      "t_trigger_us": 99094616,
      "is_ai": true,
      "track_id": 11,
      "velocity": 0,
      "is_motor": false,
      "motor_id": 0,
      "accel_val": 2000,
      "base_duration_us": 230769
    },
    {
      "id": "M_1085",
      "pitch": 64,
      "t_note_us": 99230579,
      "t_trigger_us": 99094616,
      "is_ai": false,
      "track_id": 0,
      "velocity": 0,
      "is_motor": true,
      "motor_id": 1,
      "accel_val": 2000,
      "base_duration_us": 230769
    },
    {
      "id": "M_1086",
      "pitch": 67,
      "t_note_us": 99230579,
      "t_trigger_us": 99094616,
      "is_ai": false,
      "track_id": 0,
      "velocity": 0,
      "is_motor": true,
      "motor_id": 2,
      "accel_val": 2000,
      "base_duration_us": 230769
    },
    {
      "id": "M_1089",
      "pitch": 96,
      "t_note_us": 99461348,
      "t_trigger_us": 99325385,
      "is_ai": true,
      "track_id": 10,
      "velocity": 0,
      "is_motor": false,
      "motor_id": 0,
      "accel_val": 2000,
      "base_duration_us": 230769
    },
    {
      "id": "M_1091",
      "pitch": 84,
      "t_note_us": 99461348,
      "t_trigger_us": 99325385,
      "is_ai": true,
      "track_id": 3,
      "velocity": 0,
      "is_motor": false,
      "motor_id": 0,
      "accel_val": 2000,
      "base_duration_us": 230769
    },
    {
      "id": "M_1090",
      "pitch": 60,
      "t_note_us": 99461348,
      "t_trigger_us": 99325385,
      "is_ai": false,
      "track_id": 0,
      "velocity": 0,
      "is_motor": true,
      "motor_id": 1,
      "accel_val": 2000,
      "base_duration_us": 230769
    },
    {
      "id": "M_1092",
      "pitch": 96,
      "t_note_us": 99692117,
      "t_trigger_us": 99556154,
      "is_ai": true,
      "track_id": 10,
      "velocity": 0,
      "is_motor": false,
      "motor_id": 0,
      "accel_val": 2000,
      "base_duration_us": 230769
    },
    {
      "id": "M_1093",
      "pitch": 84,
      "t_note_us": 99692117,
      "t_trigger_us": 99556154,
      "is_ai": true,
      "track_id": 3,
      "velocity": 0,
      "is_motor": false,
      "motor_id": 0,
      "accel_val": 2000,
      "base_duration_us": 230769
    },
    {
      "id": "M_1094",
      "pitch": 61,
      "t_note_us": 99692117,
      "t_trigger_us": 99556154,
      "is_ai": false,
      "track_id": 0,
      "velocity": 0,
      "is_motor": true,
      "motor_id": 1,
      "accel_val": 2000,
      "base_duration_us": 230769
    },
    {
      "id": "M_1095",
      "pitch": 49,
      "t_note_us": 99692117,
      "t_trigger_us": 99556154,
      "is_ai": false,
      "track_id": 0,
      "velocity": 0,
      "is_motor": true,
      "motor_id": 0,
      "accel_val": 2000,
      "base_duration_us": 230769
    },
    {
      "id": "M_1096",
      "pitch": 98,
      "t_note_us": 99922886,
      "t_trigger_us": 99786923,
      "is_ai": true,
      "track_id": 11,
      "velocity": 0,
      "is_motor": false,
      "motor_id": 0,
      "accel_val": 2000,
      "base_duration_us": 230769
    },
    {
      "id": "M_1098",
      "pitch": 86,
      "t_note_us": 99922886,
      "t_trigger_us": 99786923,
      "is_ai": true,
      "track_id": 4,
      "velocity": 0,
      "is_motor": false,
      "motor_id": 0,
      "accel_val": 2000,
      "base_duration_us": 230769
    },
    {
      "id": "M_1097",
      "pitch": 61,
      "t_note_us": 99922886,
      "t_trigger_us": 99786923,
      "is_ai": false,
      "track_id": 0,
      "velocity": 0,
      "is_motor": true,
      "motor_id": 1,
      "accel_val": 2000,
      "base_duration_us": 230769
    },
    {
      "id": "M_1099",
      "pitch": 100,
      "t_note_us": 100153655,
      "t_trigger_us": 100017692,
      "is_ai": true,
      "track_id": 12,
      "velocity": 0,
      "is_motor": false,
      "motor_id": 0,
      "accel_val": 2000,
      "base_duration_us": 230769
    },
    {
      "id": "M_1102",
      "pitch": 88,
      "t_note_us": 100153655,
      "t_trigger_us": 100017692,
      "is_ai": true,
      "track_id": 5,
      "velocity": 0,
      "is_motor": false,
      "motor_id": 0,
      "accel_val": 2000,
      "base_duration_us": 230769
    },
    {
      "id": "M_1100",
      "pitch": 61,
      "t_note_us": 100153655,
      "t_trigger_us": 100017692,
      "is_ai": false,
      "track_id": 0,
      "velocity": 0,
      "is_motor": true,
      "motor_id": 1,
      "accel_val": 2000,
      "base_duration_us": 230769
    },
    {
      "id": "M_1101",
      "pitch": 64,
      "t_note_us": 100153655,
      "t_trigger_us": 100017692,
      "is_ai": false,
      "track_id": 0,
      "velocity": 0,
      "is_motor": true,
      "motor_id": 0,
      "accel_val": 2000,
      "base_duration_us": 230769
    },
    {
      "id": "M_1106",
      "pitch": 101,
      "t_note_us": 100384424,
      "t_trigger_us": 100248461,
      "is_ai": true,
      "track_id": 13,
      "velocity": 0,
      "is_motor": false,
      "motor_id": 0,
      "accel_val": 2000,
      "base_duration_us": 461538
    },
    {
      "id": "M_1107",
      "pitch": 89,
      "t_note_us": 100384424,
      "t_trigger_us": 100248461,
      "is_ai": true,
      "track_id": 6,
      "velocity": 0,
      "is_motor": false,
      "motor_id": 0,
      "accel_val": 2000,
      "base_duration_us": 461538
    },
    {
      "id": "M_1103",
      "pitch": 61,
      "t_note_us": 100384424,
      "t_trigger_us": 100248461,
      "is_ai": false,
      "track_id": 0,
      "velocity": 0,
      "is_motor": true,
      "motor_id": 1,
      "accel_val": 2000,
      "base_duration_us": 230769
    },
    {
      "id": "M_1104",
      "pitch": 62,
      "t_note_us": 100615193,
      "t_trigger_us": 100479230,
      "is_ai": false,
      "track_id": 0,
      "velocity": 0,
      "is_motor": true,
      "motor_id": 1,
      "accel_val": 2000,
      "base_duration_us": 230769
    },
    {
      "id": "M_1105",
      "pitch": 50,
      "t_note_us": 100615193,
      "t_trigger_us": 100479230,
      "is_ai": false,
      "track_id": 0,
      "velocity": 0,
      "is_motor": true,
      "motor_id": 0,
      "accel_val": 2000,
      "base_duration_us": 230769
    },
    {
      "id": "M_1108",
      "pitch": 93,
      "t_note_us": 100845962,
      "t_trigger_us": 100709999,
      "is_ai": true,
      "track_id": 8,
      "velocity": 0,
      "is_motor": false,
      "motor_id": 0,
      "accel_val": 2000,
      "base_duration_us": 230769
    },
    {
      "id": "M_1109",
      "pitch": 62,
      "t_note_us": 100845962,
      "t_trigger_us": 100709999,
      "is_ai": false,
      "track_id": 0,
      "velocity": 0,
      "is_motor": true,
      "motor_id": 1,
      "accel_val": 2000,
      "base_duration_us": 230769
    },
    {
      "id": "M_1110",
      "pitch": 69,
      "t_note_us": 100845962,
      "t_trigger_us": 100709999,
      "is_ai": false,
      "track_id": 0,
      "velocity": 0,
      "is_motor": true,
      "motor_id": 2,
      "accel_val": 2000,
      "base_duration_us": 230769
    },
    {
      "id": "M_1114",
      "pitch": 91,
      "t_note_us": 101076731,
      "t_trigger_us": 100940768,
      "is_ai": true,
      "track_id": 7,
      "velocity": 0,
      "is_motor": false,
      "motor_id": 0,
      "accel_val": 2000,
      "base_duration_us": 230769
    },
    {
      "id": "M_1111",
      "pitch": 65,
      "t_note_us": 101076731,
      "t_trigger_us": 100940768,
      "is_ai": false,
      "track_id": 0,
      "velocity": 0,
      "is_motor": true,
      "motor_id": 1,
      "accel_val": 2000,
      "base_duration_us": 230769
    },
    {
      "id": "M_1112",
      "pitch": 67,
      "t_note_us": 101076731,
      "t_trigger_us": 100940768,
      "is_ai": false,
      "track_id": 0,
      "velocity": 0,
      "is_motor": true,
      "motor_id": 2,
      "accel_val": 2000,
      "base_duration_us": 230769
    },
    {
      "id": "M_1113",
      "pitch": 69,
      "t_note_us": 101076731,
      "t_trigger_us": 100940768,
      "is_ai": false,
      "track_id": 0,
      "velocity": 0,
      "is_motor": true,
      "motor_id": 0,
      "accel_val": 2000,
      "base_duration_us": 230769
    },
    {
      "id": "M_1115",
      "pitch": 89,
      "t_note_us": 101307500,
      "t_trigger_us": 101171537,
      "is_ai": true,
      "track_id": 6,
      "velocity": 0,
      "is_motor": false,
      "motor_id": 0,
      "accel_val": 2000,
      "base_duration_us": 230769
    },
    {
      "id": "M_1116",
      "pitch": 62,
      "t_note_us": 101307500,
      "t_trigger_us": 101171537,
      "is_ai": false,
      "track_id": 0,
      "velocity": 0,
      "is_motor": true,
      "motor_id": 1,
      "accel_val": 2000,
      "base_duration_us": 230769
    },
    {
      "id": "M_1117",
      "pitch": 77,
      "t_note_us": 101307500,
      "t_trigger_us": 101171537,
      "is_ai": false,
      "track_id": 0,
      "velocity": 0,
      "is_motor": true,
      "motor_id": 2,
      "accel_val": 2000,
      "base_duration_us": 230769
    },
    {
      "id": "M_1118",
      "pitch": 58,
      "t_note_us": 101538269,
      "t_trigger_us": 101402306,
      "is_ai": false,
      "track_id": 0,
      "velocity": 0,
      "is_motor": true,
      "motor_id": 0,
      "accel_val": 2000,
      "base_duration_us": 230769
    },
    {
      "id": "M_1119",
      "pitch": 46,
      "t_note_us": 101538269,
      "t_trigger_us": 101402306,
      "is_ai": false,
      "track_id": 0,
      "velocity": 0,
      "is_motor": true,
      "motor_id": 1,
      "accel_val": 2000,
      "base_duration_us": 230769
    },
    {
      "id": "M_1120",
      "pitch": 86,
      "t_note_us": 101769038,
      "t_trigger_us": 101633075,
      "is_ai": true,
      "track_id": 4,
      "velocity": 0,
      "is_motor": false,
      "motor_id": 0,
      "accel_val": 2000,
      "base_duration_us": 230769
    },
    {
      "id": "M_1121",
      "pitch": 74,
      "t_note_us": 101769038,
      "t_trigger_us": 101633075,
      "is_ai": false,
      "track_id": 0,
      "velocity": 0,
      "is_motor": true,
      "motor_id": 1,
      "accel_val": 2000,
      "base_duration_us": 230769
    },
    {
      "id": "M_1122",
      "pitch": 58,
      "t_note_us": 101769038,
      "t_trigger_us": 101633075,
      "is_ai": false,
      "track_id": 0,
      "velocity": 0,
      "is_motor": true,
      "motor_id": 0,
      "accel_val": 2000,
      "base_duration_us": 230769
    },
    {
      "id": "M_1126",
      "pitch": 89,
      "t_note_us": 101999807,
      "t_trigger_us": 101863844,
      "is_ai": true,
      "track_id": 6,
      "velocity": 0,
      "is_motor": false,
      "motor_id": 0,
      "accel_val": 2000,
      "base_duration_us": 230768
    },
    {
      "id": "M_1123",
      "pitch": 62,
      "t_note_us": 101999807,
      "t_trigger_us": 101863844,
      "is_ai": false,
      "track_id": 0,
      "velocity": 0,
      "is_motor": true,
      "motor_id": 1,
      "accel_val": 2000,
      "base_duration_us": 115384
    },
    {
      "id": "M_1125",
      "pitch": 77,
      "t_note_us": 101999807,
      "t_trigger_us": 101863844,
      "is_ai": false,
      "track_id": 0,
      "velocity": 0,
      "is_motor": true,
      "motor_id": 2,
      "accel_val": 2000,
      "base_duration_us": 230768
    },
    {
      "id": "M_1124",
      "pitch": 53,
      "t_note_us": 102115191,
      "t_trigger_us": 101979228,
      "is_ai": false,
      "track_id": 0,
      "velocity": 0,
      "is_motor": true,
      "motor_id": 0,
      "accel_val": 2000,
      "base_duration_us": 115384
    },
    {
      "id": "M_1129",
      "pitch": 94,
      "t_note_us": 102230575,
      "t_trigger_us": 102094612,
      "is_ai": true,
      "track_id": 0,
      "velocity": 0,
      "is_motor": true,
      "motor_id": 3,
      "accel_val": 2000,
      "base_duration_us": 115384
    },
    {
      "id": "M_1127",
      "pitch": 70,
      "t_note_us": 102230575,
      "t_trigger_us": 102094612,
      "is_ai": false,
      "track_id": 0,
      "velocity": 0,
      "is_motor": true,
      "motor_id": 1,
      "accel_val": 2000,
      "base_duration_us": 115384
    },
    {
      "id": "M_1128",
      "pitch": 46,
      "t_note_us": 102230575,
      "t_trigger_us": 102094612,
      "is_ai": false,
      "track_id": 0,
      "velocity": 0,
      "is_motor": true,
      "motor_id": 0,
      "accel_val": 2000,
      "base_duration_us": 115384
    },
    {
      "id": "M_1131",
      "pitch": 93,
      "t_note_us": 102345959,
      "t_trigger_us": 102209996,
      "is_ai": true,
      "track_id": 8,
      "velocity": 0,
      "is_motor": false,
      "motor_id": 0,
      "accel_val": 2000,
      "base_duration_us": 230769
    },
    {
      "id": "M_1130",
      "pitch": 69,
      "t_note_us": 102345959,
      "t_trigger_us": 102209996,
      "is_ai": false,
      "track_id": 0,
      "velocity": 0,
      "is_motor": true,
      "motor_id": 1,
      "accel_val": 2000,
      "base_duration_us": 230769
    },
    {
      "id": "M_1132",
      "pitch": 48,
      "t_note_us": 102345959,
      "t_trigger_us": 102209996,
      "is_ai": false,
      "track_id": 0,
      "velocity": 0,
      "is_motor": true,
      "motor_id": 0,
      "accel_val": 2000,
      "base_duration_us": 346153
    },
    {
      "id": "M_1133",
      "pitch": 60,
      "t_note_us": 102345959,
      "t_trigger_us": 102209996,
      "is_ai": false,
      "track_id": 0,
      "velocity": 0,
      "is_motor": true,
      "motor_id": 2,
      "accel_val": 2000,
      "base_duration_us": 346153
    },
    {
      "id": "M_1135",
      "pitch": 89,
      "t_note_us": 102692112,
      "t_trigger_us": 102556149,
      "is_ai": true,
      "track_id": 6,
      "velocity": 0,
      "is_motor": false,
      "motor_id": 0,
      "accel_val": 2000,
      "base_duration_us": 230769
    },
    {
      "id": "M_1134",
      "pitch": 60,
      "t_note_us": 102692112,
      "t_trigger_us": 102556149,
      "is_ai": false,
      "track_id": 0,
      "velocity": 0,
      "is_motor": true,
      "motor_id": 1,
      "accel_val": 2000,
      "base_duration_us": 230769
    },
    {
      "id": "M_1136",
      "pitch": 77,
      "t_note_us": 102692112,
      "t_trigger_us": 102556149,
      "is_ai": false,
      "track_id": 0,
      "velocity": 0,
      "is_motor": true,
      "motor_id": 2,
      "accel_val": 2000,
      "base_duration_us": 230769
    },
    {
      "id": "M_1137",
      "pitch": 89,
      "t_note_us": 102922881,
      "t_trigger_us": 102786918,
      "is_ai": true,
      "track_id": 6,
      "velocity": 0,
      "is_motor": false,
      "motor_id": 0,
      "accel_val": 2000,
      "base_duration_us": 115384
    },
    {
      "id": "M_1139",
      "pitch": 67,
      "t_note_us": 102922881,
      "t_trigger_us": 102786918,
      "is_ai": false,
      "track_id": 0,
      "velocity": 0,
      "is_motor": true,
      "motor_id": 1,
      "accel_val": 2000,
      "base_duration_us": 230768
    },
    {
      "id": "M_1140",
      "pitch": 62,
      "t_note_us": 102922881,
      "t_trigger_us": 102786918,
      "is_ai": false,
      "track_id": 0,
      "velocity": 0,
      "is_motor": true,
      "motor_id": 0,
      "accel_val": 2000,
      "base_duration_us": 230768
    },
    {
      "id": "M_1138",
      "pitch": 91,
      "t_note_us": 103038265,
      "t_trigger_us": 102902302,
      "is_ai": true,
      "track_id": 7,
      "velocity": 0,
      "is_motor": false,
      "motor_id": 0,
      "accel_val": 2000,
      "base_duration_us": 115384
    },
    {
      "id": "M_1141",
      "pitch": 93,
      "t_note_us": 103153649,
      "t_trigger_us": 103017686,
      "is_ai": true,
      "track_id": 8,
      "velocity": 0,
      "is_motor": false,
      "motor_id": 0,
      "accel_val": 2000,
      "base_duration_us": 115384
    },
    {
      "id": "M_1143",
      "pitch": 65,
      "t_note_us": 103153649,
      "t_trigger_us": 103017686,
      "is_ai": false,
      "track_id": 0,
      "velocity": 0,
      "is_motor": true,
      "motor_id": 1,
      "accel_val": 2000,
      "base_duration_us": 230768
    },
    {
      "id": "M_1144",
      "pitch": 60,
      "t_note_us": 103153649,
      "t_trigger_us": 103017686,
      "is_ai": false,
      "track_id": 0,
      "velocity": 0,
      "is_motor": true,
      "motor_id": 0,
      "accel_val": 2000,
      "base_duration_us": 230768
    },
    {
      "id": "M_1142",
      "pitch": 96,
      "t_note_us": 103269033,
      "t_trigger_us": 103133070,
      "is_ai": true,
      "track_id": 10,
      "velocity": 0,
      "is_motor": false,
      "motor_id": 0,
      "accel_val": 2000,
      "base_duration_us": 115384
    },
    {
      "id": "M_1145",
      "pitch": 98,
      "t_note_us": 103384417,
      "t_trigger_us": 103248454,
      "is_ai": true,
      "track_id": 11,
      "velocity": 0,
      "is_motor": false,
      "motor_id": 0,
      "accel_val": 2000,
      "base_duration_us": 115384
    },
    {
      "id": "M_1146",
      "pitch": 46,
      "t_note_us": 103384417,
      "t_trigger_us": 103248454,
      "is_ai": false,
      "track_id": 0,
      "velocity": 0,
      "is_motor": true,
      "motor_id": 0,
      "accel_val": 2000,
      "base_duration_us": 230768
    },
    {
      "id": "M_1147",
      "pitch": 58,
      "t_note_us": 103384417,
      "t_trigger_us": 103248454,
      "is_ai": false,
      "track_id": 0,
      "velocity": 0,
      "is_motor": true,
      "motor_id": 1,
      "accel_val": 2000,
      "base_duration_us": 230768
    },
    {
      "id": "M_1148",
      "pitch": 96,
      "t_note_us": 103499801,
      "t_trigger_us": 103363838,
      "is_ai": true,
      "track_id": 10,
      "velocity": 0,
      "is_motor": false,
      "motor_id": 0,
      "accel_val": 2000,
      "base_duration_us": 230768
    },
    {
      "id": "M_1149",
      "pitch": 74,
      "t_note_us": 103615185,
      "t_trigger_us": 103479222,
      "is_ai": false,
      "track_id": 0,
      "velocity": 0,
      "is_motor": true,
      "motor_id": 1,
      "accel_val": 2000,
      "base_duration_us": 230768
    },
    {
      "id": "M_1150",
      "pitch": 70,
      "t_note_us": 103615185,
      "t_trigger_us": 103479222,
      "is_ai": false,
      "track_id": 0,
      "velocity": 0,
      "is_motor": true,
      "motor_id": 2,
      "accel_val": 2000,
      "base_duration_us": 230768
    },
    {
      "id": "M_1153",
      "pitch": 93,
      "t_note_us": 103730569,
      "t_trigger_us": 103594606,
      "is_ai": true,
      "track_id": 8,
      "velocity": 0,
      "is_motor": false,
      "motor_id": 0,
      "accel_val": 2000,
      "base_duration_us": 346153
    },
    {
      "id": "M_1151",
      "pitch": 58,
      "t_note_us": 103845953,
      "t_trigger_us": 103709990,
      "is_ai": false,
      "track_id": 0,
      "velocity": 0,
      "is_motor": true,
      "motor_id": 0,
      "accel_val": 2000,
      "base_duration_us": 230769
    },
    {
      "id": "M_1152",
      "pitch": 46,
      "t_note_us": 103845953,
      "t_trigger_us": 103709990,
      "is_ai": false,
      "track_id": 0,
      "velocity": 0,
      "is_motor": true,
      "motor_id": 1,
      "accel_val": 2000,
      "base_duration_us": 230769
    },
    {
      "id": "M_1155",
      "pitch": 86,
      "t_note_us": 104076722,
      "t_trigger_us": 103940759,
      "is_ai": true,
      "track_id": 4,
      "velocity": 0,
      "is_motor": false,
      "motor_id": 0,
      "accel_val": 2000,
      "base_duration_us": 230769
    },
    {
      "id": "M_1154",
      "pitch": 74,
      "t_note_us": 104076722,
      "t_trigger_us": 103940759,
      "is_ai": false,
      "track_id": 0,
      "velocity": 0,
      "is_motor": true,
      "motor_id": 1,
      "accel_val": 2000,
      "base_duration_us": 230769
    },
    {
      "id": "M_1156",
      "pitch": 70,
      "t_note_us": 104076722,
      "t_trigger_us": 103940759,
      "is_ai": false,
      "track_id": 0,
      "velocity": 0,
      "is_motor": true,
      "motor_id": 2,
      "accel_val": 2000,
      "base_duration_us": 230769
    },
    {
      "id": "M_1157",
      "pitch": 89,
      "t_note_us": 104307491,
      "t_trigger_us": 104171528,
      "is_ai": true,
      "track_id": 6,
      "velocity": 0,
      "is_motor": false,
      "motor_id": 0,
      "accel_val": 2000,
      "base_duration_us": 230769
    },
    {
      "id": "M_1158",
      "pitch": 57,
      "t_note_us": 104307491,
      "t_trigger_us": 104171528,
      "is_ai": false,
      "track_id": 0,
      "velocity": 0,
      "is_motor": true,
      "motor_id": 0,
      "accel_val": 2000,
      "base_duration_us": 230769
    },
    {
      "id": "M_1159",
      "pitch": 45,
      "t_note_us": 104307491,
      "t_trigger_us": 104171528,
      "is_ai": false,
      "track_id": 0,
      "velocity": 0,
      "is_motor": true,
      "motor_id": 1,
      "accel_val": 2000,
      "base_duration_us": 230769
    },
    {
      "id": "M_1160",
      "pitch": 91,
      "t_note_us": 104538260,
      "t_trigger_us": 104402297,
      "is_ai": true,
      "track_id": 7,
      "velocity": 0,
      "is_motor": false,
      "motor_id": 0,
      "accel_val": 2000,
      "base_duration_us": 230769
    },
    {
      "id": "M_1161",
      "pitch": 69,
      "t_note_us": 104538260,
      "t_trigger_us": 104402297,
      "is_ai": false,
      "track_id": 0,
      "velocity": 0,
      "is_motor": true,
      "motor_id": 1,
      "accel_val": 2000,
      "base_duration_us": 230769
    },
    {
      "id": "M_1162",
      "pitch": 73,
      "t_note_us": 104538260,
      "t_trigger_us": 104402297,
      "is_ai": false,
      "track_id": 0,
      "velocity": 0,
      "is_motor": true,
      "motor_id": 0,
      "accel_val": 2000,
      "base_duration_us": 230769
    },
    {
      "id": "M_1163",
      "pitch": 93,
      "t_note_us": 104769029,
      "t_trigger_us": 104633066,
      "is_ai": true,
      "track_id": 8,
      "velocity": 0,
      "is_motor": false,
      "motor_id": 0,
      "accel_val": 2000,
      "base_duration_us": 115384
    },
    {
      "id": "M_1165",
      "pitch": 45,
      "t_note_us": 104769029,
      "t_trigger_us": 104633066,
      "is_ai": false,
      "track_id": 0,
      "velocity": 0,
      "is_motor": true,
      "motor_id": 0,
      "accel_val": 2000,
      "base_duration_us": 230768
    },
    {
      "id": "M_1166",
      "pitch": 57,
      "t_note_us": 104769029,
      "t_trigger_us": 104633066,
      "is_ai": false,
      "track_id": 0,
      "velocity": 0,
      "is_motor": true,
      "motor_id": 1,
      "accel_val": 2000,
      "base_duration_us": 230768
    },
    {
      "id": "M_1164",
      "pitch": 86,
      "t_note_us": 104884413,
      "t_trigger_us": 104748450,
      "is_ai": true,
      "track_id": 4,
      "velocity": 0,
      "is_motor": false,
      "motor_id": 0,
      "accel_val": 2000,
      "base_duration_us": 115384
    },
    {
      "id": "M_1167",
      "pitch": 101,
      "t_note_us": 104999797,
      "t_trigger_us": 104863834,
      "is_ai": true,
      "track_id": 13,
      "velocity": 0,
      "is_motor": false,
      "motor_id": 0,
      "accel_val": 2000,
      "base_duration_us": 115384
    },
    {
      "id": "M_1169",
      "pitch": 69,
      "t_note_us": 104999797,
      "t_trigger_us": 104863834,
      "is_ai": false,
      "track_id": 0,
      "velocity": 0,
      "is_motor": true,
      "motor_id": 1,
      "accel_val": 2000,
      "base_duration_us": 230768
    },
    {
      "id": "M_1170",
      "pitch": 73,
      "t_note_us": 104999797,
      "t_trigger_us": 104863834,
      "is_ai": false,
      "track_id": 0,
      "velocity": 0,
      "is_motor": true,
      "motor_id": 0,
      "accel_val": 2000,
      "base_duration_us": 230768
    },
    {
      "id": "M_1168",
      "pitch": 100,
      "t_note_us": 105115181,
      "t_trigger_us": 104979218,
      "is_ai": true,
      "track_id": 12,
      "velocity": 0,
      "is_motor": false,
      "motor_id": 0,
      "accel_val": 2000,
      "base_duration_us": 115384
    },
    {
      "id": "M_1171",
      "pitch": 96,
      "t_note_us": 105230565,
      "t_trigger_us": 105094602,
      "is_ai": true,
      "track_id": 10,
      "velocity": 0,
      "is_motor": false,
      "motor_id": 0,
      "accel_val": 2000,
      "base_duration_us": 115384
    },
    {
      "id": "M_1172",
      "pitch": 50,
      "t_note_us": 105230565,
      "t_trigger_us": 105094602,
      "is_ai": false,
      "track_id": 0,
      "velocity": 0,
      "is_motor": true,
      "motor_id": 0,
      "accel_val": 2000,
      "base_duration_us": 230768
    },
    {
      "id": "M_1173",
      "pitch": 62,
      "t_note_us": 105230565,
      "t_trigger_us": 105094602,
      "is_ai": false,
      "track_id": 0,
      "velocity": 0,
      "is_motor": true,
      "motor_id": 1,
      "accel_val": 2000,
      "base_duration_us": 230768
    },
    {
      "id": "M_1174",
      "pitch": 93,
      "t_note_us": 105345949,
      "t_trigger_us": 105209986,
      "is_ai": true,
      "track_id": 8,
      "velocity": 0,
      "is_motor": false,
      "motor_id": 0,
      "accel_val": 2000,
      "base_duration_us": 230768
    },
    {
      "id": "M_1175",
      "pitch": 77,
      "t_note_us": 105461333,
      "t_trigger_us": 105325370,
      "is_ai": false,
      "track_id": 0,
      "velocity": 0,
      "is_motor": true,
      "motor_id": 2,
      "accel_val": 2000,
      "base_duration_us": 230768
    },
    {
      "id": "M_1176",
      "pitch": 74,
      "t_note_us": 105461333,
      "t_trigger_us": 105325370,
      "is_ai": false,
      "track_id": 0,
      "velocity": 0,
      "is_motor": true,
      "motor_id": 1,
      "accel_val": 2000,
      "base_duration_us": 230768
    },
    {
      "id": "M_1179",
      "pitch": 96,
      "t_note_us": 105576717,
      "t_trigger_us": 105440754,
      "is_ai": true,
      "track_id": 10,
      "velocity": 0,
      "is_motor": false,
      "motor_id": 0,
      "accel_val": 2000,
      "base_duration_us": 346153
    },
    {
      "id": "M_1177",
      "pitch": 62,
      "t_note_us": 105692101,
      "t_trigger_us": 105556138,
      "is_ai": false,
      "track_id": 0,
      "velocity": 0,
      "is_motor": true,
      "motor_id": 1,
      "accel_val": 2000,
      "base_duration_us": 230769
    },
    {
      "id": "M_1178",
      "pitch": 50,
      "t_note_us": 105692101,
      "t_trigger_us": 105556138,
      "is_ai": false,
      "track_id": 0,
      "velocity": 0,
      "is_motor": true,
      "motor_id": 0,
      "accel_val": 2000,
      "base_duration_us": 230769
    },
    {
      "id": "M_1181",
      "pitch": 98,
      "t_note_us": 105922870,
      "t_trigger_us": 105786907,
      "is_ai": true,
      "track_id": 11,
      "velocity": 0,
      "is_motor": false,
      "motor_id": 0,
      "accel_val": 2000,
      "base_duration_us": 230769
    },
    {
      "id": "M_1180",
      "pitch": 77,
      "t_note_us": 105922870,
      "t_trigger_us": 105786907,
      "is_ai": false,
      "track_id": 0,
      "velocity": 0,
      "is_motor": true,
      "motor_id": 2,
      "accel_val": 2000,
      "base_duration_us": 230769
    },
    {
      "id": "M_1182",
      "pitch": 74,
      "t_note_us": 105922870,
      "t_trigger_us": 105786907,
      "is_ai": false,
      "track_id": 0,
      "velocity": 0,
      "is_motor": true,
      "motor_id": 1,
      "accel_val": 2000,
      "base_duration_us": 230769
    },
    {
      "id": "M_1183",
      "pitch": 96,
      "t_note_us": 106153639,
      "t_trigger_us": 106017676,
      "is_ai": true,
      "track_id": 10,
      "velocity": 0,
      "is_motor": false,
      "motor_id": 0,
      "accel_val": 2000,
      "base_duration_us": 230769
    },
    {
      "id": "M_1184",
      "pitch": 48,
      "t_note_us": 106153639,
      "t_trigger_us": 106017676,
      "is_ai": false,
      "track_id": 0,
      "velocity": 0,
      "is_motor": true,
      "motor_id": 0,
      "accel_val": 2000,
      "base_duration_us": 230769
    },
    {
      "id": "M_1185",
      "pitch": 60,
      "t_note_us": 106153639,
      "t_trigger_us": 106017676,
      "is_ai": false,
      "track_id": 0,
      "velocity": 0,
      "is_motor": true,
      "motor_id": 1,
      "accel_val": 2000,
      "base_duration_us": 230769
    },
    {
      "id": "M_1186",
      "pitch": 93,
      "t_note_us": 106384408,
      "t_trigger_us": 106248445,
      "is_ai": true,
      "track_id": 8,
      "velocity": 0,
      "is_motor": false,
      "motor_id": 0,
      "accel_val": 2000,
      "base_duration_us": 230769
    },
    {
      "id": "M_1187",
      "pitch": 72,
      "t_note_us": 106384408,
      "t_trigger_us": 106248445,
      "is_ai": false,
      "track_id": 0,
      "velocity": 0,
      "is_motor": true,
      "motor_id": 1,
      "accel_val": 2000,
      "base_duration_us": 230769
    },
    {
      "id": "M_1188",
      "pitch": 76,
      "t_note_us": 106384408,
      "t_trigger_us": 106248445,
      "is_ai": false,
      "track_id": 0,
      "velocity": 0,
      "is_motor": true,
      "motor_id": 2,
      "accel_val": 2000,
      "base_duration_us": 230769
    },
    {
      "id": "M_1190",
      "pitch": 91,
      "t_note_us": 106615177,
      "t_trigger_us": 106479214,
      "is_ai": true,
      "track_id": 7,
      "velocity": 0,
      "is_motor": false,
      "motor_id": 0,
      "accel_val": 2000,
      "base_duration_us": 230769
    },
    {
      "id": "M_1189",
      "pitch": 48,
      "t_note_us": 106615177,
      "t_trigger_us": 106479214,
      "is_ai": false,
      "track_id": 0,
      "velocity": 0,
      "is_motor": true,
      "motor_id": 0,
      "accel_val": 2000,
      "base_duration_us": 230769
    },
    {
      "id": "M_1191",
      "pitch": 60,
      "t_note_us": 106615177,
      "t_trigger_us": 106479214,
      "is_ai": false,
      "track_id": 0,
      "velocity": 0,
      "is_motor": true,
      "motor_id": 1,
      "accel_val": 2000,
      "base_duration_us": 230769
    },
    {
      "id": "M_1192",
      "pitch": 86,
      "t_note_us": 106845946,
      "t_trigger_us": 106709983,
      "is_ai": true,
      "track_id": 4,
      "velocity": 0,
      "is_motor": false,
      "motor_id": 0,
      "accel_val": 2000,
      "base_duration_us": 230769
    },
    {
      "id": "M_1193",
      "pitch": 76,
      "t_note_us": 106845946,
      "t_trigger_us": 106709983,
      "is_ai": false,
      "track_id": 0,
      "velocity": 0,
      "is_motor": true,
      "motor_id": 2,
      "accel_val": 2000,
      "base_duration_us": 230769
    },
    {
      "id": "M_1194",
      "pitch": 72,
      "t_note_us": 106845946,
      "t_trigger_us": 106709983,
      "is_ai": false,
      "track_id": 0,
      "velocity": 0,
      "is_motor": true,
      "motor_id": 1,
      "accel_val": 2000,
      "base_duration_us": 230769
    },
    {
      "id": "M_1195",
      "pitch": 93,
      "t_note_us": 107076715,
      "t_trigger_us": 106940752,
      "is_ai": true,
      "track_id": 8,
      "velocity": 0,
      "is_motor": false,
      "motor_id": 0,
      "accel_val": 2000,
      "base_duration_us": 115384
    },
    {
      "id": "M_1196",
      "pitch": 58,
      "t_note_us": 107076715,
      "t_trigger_us": 106940752,
      "is_ai": false,
      "track_id": 0,
      "velocity": 0,
      "is_motor": true,
      "motor_id": 0,
      "accel_val": 2000,
      "base_duration_us": 230768
    },
    {
      "id": "M_1197",
      "pitch": 46,
      "t_note_us": 107076715,
      "t_trigger_us": 106940752,
      "is_ai": false,
      "track_id": 0,
      "velocity": 0,
      "is_motor": true,
      "motor_id": 1,
      "accel_val": 2000,
      "base_duration_us": 230768
    },
    {
      "id": "M_1198",
      "pitch": 91,
      "t_note_us": 107192099,
      "t_trigger_us": 107056136,
      "is_ai": true,
      "track_id": 7,
      "velocity": 0,
      "is_motor": false,
      "motor_id": 0,
      "accel_val": 2000,
      "base_duration_us": 230768
    },
    {
      "id": "M_1199",
      "pitch": 70,
      "t_note_us": 107307483,
      "t_trigger_us": 107171520,
      "is_ai": false,
      "track_id": 0,
      "velocity": 0,
      "is_motor": true,
      "motor_id": 1,
      "accel_val": 2000,
      "base_duration_us": 230768
    },
    {
      "id": "M_1200",
      "pitch": 74,
      "t_note_us": 107307483,
      "t_trigger_us": 107171520,
      "is_ai": false,
      "track_id": 0,
      "velocity": 0,
      "is_motor": true,
      "motor_id": 0,
      "accel_val": 2000,
      "base_duration_us": 230768
    },
    {
      "id": "M_1203",
      "pitch": 89,
      "t_note_us": 107422867,
      "t_trigger_us": 107286904,
      "is_ai": true,
      "track_id": 6,
      "velocity": 0,
      "is_motor": false,
      "motor_id": 0,
      "accel_val": 2000,
      "base_duration_us": 346153
    },
    {
      "id": "M_1201",
      "pitch": 46,
      "t_note_us": 107538251,
      "t_trigger_us": 107402288,
      "is_ai": false,
      "track_id": 0,
      "velocity": 0,
      "is_motor": true,
      "motor_id": 0,
      "accel_val": 2000,
      "base_duration_us": 230769
    },
    {
      "id": "M_1202",
      "pitch": 58,
      "t_note_us": 107538251,
      "t_trigger_us": 107402288,
      "is_ai": false,
      "track_id": 0,
      "velocity": 0,
      "is_motor": true,
      "motor_id": 1,
      "accel_val": 2000,
      "base_duration_us": 230769
    },
    {
      "id": "M_1204",
      "pitch": 86,
      "t_note_us": 107769020,
      "t_trigger_us": 107633057,
      "is_ai": true,
      "track_id": 4,
      "velocity": 0,
      "is_motor": false,
      "motor_id": 0,
      "accel_val": 2000,
      "base_duration_us": 230769
    },
    {
      "id": "M_1205",
      "pitch": 70,
      "t_note_us": 107769020,
      "t_trigger_us": 107633057,
      "is_ai": false,
      "track_id": 0,
      "velocity": 0,
      "is_motor": true,
      "motor_id": 1,
      "accel_val": 2000,
      "base_duration_us": 230769
    },
    {
      "id": "M_1206",
      "pitch": 74,
      "t_note_us": 107769020,
      "t_trigger_us": 107633057,
      "is_ai": false,
      "track_id": 0,
      "velocity": 0,
      "is_motor": true,
      "motor_id": 0,
      "accel_val": 2000,
      "base_duration_us": 230769
    },
    {
      "id": "M_1208",
      "pitch": 85,
      "t_note_us": 107999789,
      "t_trigger_us": 107863826,
      "is_ai": true,
      "track_id": 0,
      "velocity": 0,
      "is_motor": true,
      "motor_id": 3,
      "accel_val": 2000,
      "base_duration_us": 230769
    },
    {
      "id": "M_1207",
      "pitch": 45,
      "t_note_us": 107999789,
      "t_trigger_us": 107863826,
      "is_ai": false,
      "track_id": 0,
      "velocity": 0,
      "is_motor": true,
      "motor_id": 0,
      "accel_val": 2000,
      "base_duration_us": 230769
    },
    {
      "id": "M_1209",
      "pitch": 57,
      "t_note_us": 107999789,
      "t_trigger_us": 107863826,
      "is_ai": false,
      "track_id": 0,
      "velocity": 0,
      "is_motor": true,
      "motor_id": 1,
      "accel_val": 2000,
      "base_duration_us": 230769
    },
    {
      "id": "M_1212",
      "pitch": 94,
      "t_note_us": 108230558,
      "t_trigger_us": 108094595,
      "is_ai": true,
      "track_id": 0,
      "velocity": 0,
      "is_motor": true,
      "motor_id": 3,
      "accel_val": 2000,
      "base_duration_us": 230769
    },
    {
      "id": "M_1210",
      "pitch": 73,
      "t_note_us": 108230558,
      "t_trigger_us": 108094595,
      "is_ai": false,
      "track_id": 0,
      "velocity": 0,
      "is_motor": true,
      "motor_id": 1,
      "accel_val": 2000,
      "base_duration_us": 230769
    },
    {
      "id": "M_1211",
      "pitch": 69,
      "t_note_us": 108230558,
      "t_trigger_us": 108094595,
      "is_ai": false,
      "track_id": 0,
      "velocity": 0,
      "is_motor": true,
      "motor_id": 2,
      "accel_val": 2000,
      "base_duration_us": 230769
    },
    {
      "id": "M_1213",
      "pitch": 93,
      "t_note_us": 108461327,
      "t_trigger_us": 108325364,
      "is_ai": true,
      "track_id": 8,
      "velocity": 0,
      "is_motor": false,
      "motor_id": 0,
      "accel_val": 2000,
      "base_duration_us": 230769
    },
    {
      "id": "M_1214",
      "pitch": 45,
      "t_note_us": 108461327,
      "t_trigger_us": 108325364,
      "is_ai": false,
      "track_id": 0,
      "velocity": 0,
      "is_motor": true,
      "motor_id": 0,
      "accel_val": 2000,
      "base_duration_us": 230769
    },
    {
      "id": "M_1215",
      "pitch": 57,
      "t_note_us": 108461327,
      "t_trigger_us": 108325364,
      "is_ai": false,
      "track_id": 0,
      "velocity": 0,
      "is_motor": true,
      "motor_id": 1,
      "accel_val": 2000,
      "base_duration_us": 230769
    },
    {
      "id": "M_1218",
      "pitch": 88,
      "t_note_us": 108692096,
      "t_trigger_us": 108556133,
      "is_ai": true,
      "track_id": 5,
      "velocity": 0,
      "is_motor": false,
      "motor_id": 0,
      "accel_val": 2000,
      "base_duration_us": 230769
    },
    {
      "id": "M_1216",
      "pitch": 73,
      "t_note_us": 108692096,
      "t_trigger_us": 108556133,
      "is_ai": false,
      "track_id": 0,
      "velocity": 0,
      "is_motor": true,
      "motor_id": 1,
      "accel_val": 2000,
      "base_duration_us": 230769
    },
    {
      "id": "M_1217",
      "pitch": 69,
      "t_note_us": 108692096,
      "t_trigger_us": 108556133,
      "is_ai": false,
      "track_id": 0,
      "velocity": 0,
      "is_motor": true,
      "motor_id": 2,
      "accel_val": 2000,
      "base_duration_us": 230769
    },
    {
      "id": "M_1220",
      "pitch": 91,
      "t_note_us": 108922865,
      "t_trigger_us": 108786902,
      "is_ai": true,
      "track_id": 7,
      "velocity": 0,
      "is_motor": false,
      "motor_id": 0,
      "accel_val": 2000,
      "base_duration_us": 230769
    },
    {
      "id": "M_1219",
      "pitch": 50,
      "t_note_us": 108922865,
      "t_trigger_us": 108786902,
      "is_ai": false,
      "track_id": 0,
      "velocity": 0,
      "is_motor": true,
      "motor_id": 0,
      "accel_val": 2000,
      "base_duration_us": 230769
    },
    {
      "id": "M_1221",
      "pitch": 62,
      "t_note_us": 108922865,
      "t_trigger_us": 108786902,
      "is_ai": false,
      "track_id": 0,
      "velocity": 0,
      "is_motor": true,
      "motor_id": 1,
      "accel_val": 2000,
      "base_duration_us": 230769
    },
    {
      "id": "M_1222",
      "pitch": 89,
      "t_note_us": 109153634,
      "t_trigger_us": 109017671,
      "is_ai": true,
      "track_id": 6,
      "velocity": 0,
      "is_motor": false,
      "motor_id": 0,
      "accel_val": 2000,
      "base_duration_us": 115384
    },
    {
      "id": "M_1223",
      "pitch": 69,
      "t_note_us": 109153634,
      "t_trigger_us": 109017671,
      "is_ai": false,
      "track_id": 0,
      "velocity": 0,
      "is_motor": true,
      "motor_id": 1,
      "accel_val": 2000,
      "base_duration_us": 230768
    },
    {
      "id": "M_1224",
      "pitch": 74,
      "t_note_us": 109153634,
      "t_trigger_us": 109017671,
      "is_ai": false,
      "track_id": 0,
      "velocity": 0,
      "is_motor": true,
      "motor_id": 0,
      "accel_val": 2000,
      "base_duration_us": 230768
    },
    {
      "id": "M_1227",
      "pitch": 96,
      "t_note_us": 109269018,
      "t_trigger_us": 109133055,
      "is_ai": true,
      "track_id": 10,
      "velocity": 0,
      "is_motor": false,
      "motor_id": 0,
      "accel_val": 2000,
      "base_duration_us": 346153
    },
    {
      "id": "M_1225",
      "pitch": 62,
      "t_note_us": 109384402,
      "t_trigger_us": 109248439,
      "is_ai": false,
      "track_id": 0,
      "velocity": 0,
      "is_motor": true,
      "motor_id": 1,
      "accel_val": 2000,
      "base_duration_us": 230769
    },
    {
      "id": "M_1226",
      "pitch": 50,
      "t_note_us": 109384402,
      "t_trigger_us": 109248439,
      "is_ai": false,
      "track_id": 0,
      "velocity": 0,
      "is_motor": true,
      "motor_id": 0,
      "accel_val": 2000,
      "base_duration_us": 230769
    },
    {
      "id": "M_1230",
      "pitch": 94,
      "t_note_us": 109615171,
      "t_trigger_us": 109479208,
      "is_ai": true,
      "track_id": 0,
      "velocity": 0,
      "is_motor": true,
      "motor_id": 3,
      "accel_val": 2000,
      "base_duration_us": 230769
    },
    {
      "id": "M_1228",
      "pitch": 69,
      "t_note_us": 109615171,
      "t_trigger_us": 109479208,
      "is_ai": false,
      "track_id": 0,
      "velocity": 0,
      "is_motor": true,
      "motor_id": 1,
      "accel_val": 2000,
      "base_duration_us": 230769
    },
    {
      "id": "M_1229",
      "pitch": 74,
      "t_note_us": 109615171,
      "t_trigger_us": 109479208,
      "is_ai": false,
      "track_id": 0,
      "velocity": 0,
      "is_motor": true,
      "motor_id": 0,
      "accel_val": 2000,
      "base_duration_us": 230769
    },
    {
      "id": "M_1233",
      "pitch": 93,
      "t_note_us": 109845940,
      "t_trigger_us": 109709977,
      "is_ai": true,
      "track_id": 8,
      "velocity": 0,
      "is_motor": false,
      "motor_id": 0,
      "accel_val": 2000,
      "base_duration_us": 230769
    },
    {
      "id": "M_1231",
      "pitch": 60,
      "t_note_us": 109845940,
      "t_trigger_us": 109709977,
      "is_ai": false,
      "track_id": 0,
      "velocity": 0,
      "is_motor": true,
      "motor_id": 1,
      "accel_val": 2000,
      "base_duration_us": 230769
    },
    {
      "id": "M_1232",
      "pitch": 48,
      "t_note_us": 109845940,
      "t_trigger_us": 109709977,
      "is_ai": false,
      "track_id": 0,
      "velocity": 0,
      "is_motor": true,
      "motor_id": 0,
      "accel_val": 2000,
      "base_duration_us": 230769
    },
    {
      "id": "M_1234",
      "pitch": 76,
      "t_note_us": 110076709,
      "t_trigger_us": 109940746,
      "is_ai": false,
      "track_id": 0,
      "velocity": 0,
      "is_motor": true,
      "motor_id": 2,
      "accel_val": 2000,
      "base_duration_us": 230769
    },
    {
      "id": "M_1235",
      "pitch": 72,
      "t_note_us": 110076709,
      "t_trigger_us": 109940746,
      "is_ai": false,
      "track_id": 0,
      "velocity": 0,
      "is_motor": true,
      "motor_id": 1,
      "accel_val": 2000,
      "base_duration_us": 230769
    },
    {
      "id": "M_1236",
      "pitch": 72,
      "t_note_us": 110076709,
      "t_trigger_us": 109940746,
      "is_ai": false,
      "track_id": 0,
      "velocity": 0,
      "is_motor": true,
      "motor_id": 0,
      "accel_val": 2000,
      "base_duration_us": 230769
    },
    {
      "id": "M_1237",
      "pitch": 84,
      "t_note_us": 110307478,
      "t_trigger_us": 110171515,
      "is_ai": true,
      "track_id": 3,
      "velocity": 0,
      "is_motor": false,
      "motor_id": 0,
      "accel_val": 2000,
      "base_duration_us": 115384
    },
    {
      "id": "M_1239",
      "pitch": 48,
      "t_note_us": 110307478,
      "t_trigger_us": 110171515,
      "is_ai": false,
      "track_id": 0,
      "velocity": 0,
      "is_motor": true,
      "motor_id": 0,
      "accel_val": 2000,
      "base_duration_us": 230768
    },
    {
      "id": "M_1240",
      "pitch": 60,
      "t_note_us": 110307478,
      "t_trigger_us": 110171515,
      "is_ai": false,
      "track_id": 0,
      "velocity": 0,
      "is_motor": true,
      "motor_id": 1,
      "accel_val": 2000,
      "base_duration_us": 230768
    },
    {
      "id": "M_1238",
      "pitch": 86,
      "t_note_us": 110422862,
      "t_trigger_us": 110286899,
      "is_ai": true,
      "track_id": 4,
      "velocity": 0,
      "is_motor": false,
      "motor_id": 0,
      "accel_val": 2000,
      "base_duration_us": 115384
    },
    {
      "id": "M_1241",
      "pitch": 89,
      "t_note_us": 110538246,
      "t_trigger_us": 110402283,
      "is_ai": true,
      "track_id": 6,
      "velocity": 0,
      "is_motor": false,
      "motor_id": 0,
      "accel_val": 2000,
      "base_duration_us": 115384
    },
    {
      "id": "M_1243",
      "pitch": 72,
      "t_note_us": 110538246,
      "t_trigger_us": 110402283,
      "is_ai": false,
      "track_id": 0,
      "velocity": 0,
      "is_motor": true,
      "motor_id": 1,
      "accel_val": 2000,
      "base_duration_us": 230768
    },
    {
      "id": "M_1244",
      "pitch": 76,
      "t_note_us": 110538246,
      "t_trigger_us": 110402283,
      "is_ai": false,
      "track_id": 0,
      "velocity": 0,
      "is_motor": true,
      "motor_id": 2,
      "accel_val": 2000,
      "base_duration_us": 230768
    },
    {
      "id": "M_1242",
      "pitch": 96,
      "t_note_us": 110653630,
      "t_trigger_us": 110517667,
      "is_ai": true,
      "track_id": 10,
      "velocity": 0,
      "is_motor": false,
      "motor_id": 0,
      "accel_val": 2000,
      "base_duration_us": 115384
    },
    {
      "id": "M_1245",
      "pitch": 93,
      "t_note_us": 110769014,
      "t_trigger_us": 110633051,
      "is_ai": true,
      "track_id": 8,
      "velocity": 0,
      "is_motor": false,
      "motor_id": 0,
      "accel_val": 2000,
      "base_duration_us": 115384
    },
    {
      "id": "M_1246",
      "pitch": 58,
      "t_note_us": 110769014,
      "t_trigger_us": 110633051,
      "is_ai": false,
      "track_id": 0,
      "velocity": 0,
      "is_motor": true,
      "motor_id": 0,
      "accel_val": 2000,
      "base_duration_us": 230768
    },
    {
      "id": "M_1247",
      "pitch": 46,
      "t_note_us": 110769014,
      "t_trigger_us": 110633051,
      "is_ai": false,
      "track_id": 0,
      "velocity": 0,
      "is_motor": true,
      "motor_id": 1,
      "accel_val": 2000,
      "base_duration_us": 230768
    },
    {
      "id": "M_1248",
      "pitch": 91,
      "t_note_us": 110884398,
      "t_trigger_us": 110748435,
      "is_ai": true,
      "track_id": 7,
      "velocity": 0,
      "is_motor": false,
      "motor_id": 0,
      "accel_val": 2000,
      "base_duration_us": 230768
    },
    {
      "id": "M_1249",
      "pitch": 70,
      "t_note_us": 110999782,
      "t_trigger_us": 110863819,
      "is_ai": false,
      "track_id": 0,
      "velocity": 0,
      "is_motor": true,
      "motor_id": 1,
      "accel_val": 2000,
      "base_duration_us": 230768
    },
    {
      "id": "M_1250",
      "pitch": 74,
      "t_note_us": 110999782,
      "t_trigger_us": 110863819,
      "is_ai": false,
      "track_id": 0,
      "velocity": 0,
      "is_motor": true,
      "motor_id": 0,
      "accel_val": 2000,
      "base_duration_us": 230768
    },
    {
      "id": "M_1253",
      "pitch": 89,
      "t_note_us": 111115166,
      "t_trigger_us": 110979203,
      "is_ai": true,
      "track_id": 6,
      "velocity": 0,
      "is_motor": false,
      "motor_id": 0,
      "accel_val": 2000,
      "base_duration_us": 346153
    },
    {
      "id": "M_1251",
      "pitch": 58,
      "t_note_us": 111230550,
      "t_trigger_us": 111094587,
      "is_ai": false,
      "track_id": 0,
      "velocity": 0,
      "is_motor": true,
      "motor_id": 0,
      "accel_val": 2000,
      "base_duration_us": 230769
    },
    {
      "id": "M_1252",
      "pitch": 46,
      "t_note_us": 111230550,
      "t_trigger_us": 111094587,
      "is_ai": false,
      "track_id": 0,
      "velocity": 0,
      "is_motor": true,
      "motor_id": 1,
      "accel_val": 2000,
      "base_duration_us": 230769
    },
    {
      "id": "M_1256",
      "pitch": 86,
      "t_note_us": 111461319,
      "t_trigger_us": 111325356,
      "is_ai": true,
      "track_id": 4,
      "velocity": 0,
      "is_motor": false,
      "motor_id": 0,
      "accel_val": 2000,
      "base_duration_us": 230769
    },
    {
      "id": "M_1254",
      "pitch": 74,
      "t_note_us": 111461319,
      "t_trigger_us": 111325356,
      "is_ai": false,
      "track_id": 0,
      "velocity": 0,
      "is_motor": true,
      "motor_id": 1,
      "accel_val": 2000,
      "base_duration_us": 230769
    },
    {
      "id": "M_1255",
      "pitch": 70,
      "t_note_us": 111461319,
      "t_trigger_us": 111325356,
      "is_ai": false,
      "track_id": 0,
      "velocity": 0,
      "is_motor": true,
      "motor_id": 2,
      "accel_val": 2000,
      "base_duration_us": 230769
    },
    {
      "id": "M_1257",
      "pitch": 89,
      "t_note_us": 111692088,
      "t_trigger_us": 111556125,
      "is_ai": true,
      "track_id": 6,
      "velocity": 0,
      "is_motor": false,
      "motor_id": 0,
      "accel_val": 2000,
      "base_duration_us": 230769
    },
    {
      "id": "M_1258",
      "pitch": 57,
      "t_note_us": 111692088,
      "t_trigger_us": 111556125,
      "is_ai": false,
      "track_id": 0,
      "velocity": 0,
      "is_motor": true,
      "motor_id": 0,
      "accel_val": 2000,
      "base_duration_us": 230769
    },
    {
      "id": "M_1259",
      "pitch": 45,
      "t_note_us": 111692088,
      "t_trigger_us": 111556125,
      "is_ai": false,
      "track_id": 0,
      "velocity": 0,
      "is_motor": true,
      "motor_id": 1,
      "accel_val": 2000,
      "base_duration_us": 230769
    },
    {
      "id": "M_1261",
      "pitch": 91,
      "t_note_us": 111922857,
      "t_trigger_us": 111786894,
      "is_ai": true,
      "track_id": 7,
      "velocity": 0,
      "is_motor": false,
      "motor_id": 0,
      "accel_val": 2000,
      "base_duration_us": 230769
    },
    {
      "id": "M_1260",
      "pitch": 76,
      "t_note_us": 111922857,
      "t_trigger_us": 111786894,
      "is_ai": false,
      "track_id": 0,
      "velocity": 0,
      "is_motor": true,
      "motor_id": 2,
      "accel_val": 2000,
      "base_duration_us": 230769
    },
    {
      "id": "M_1262",
      "pitch": 72,
      "t_note_us": 111922857,
      "t_trigger_us": 111786894,
      "is_ai": false,
      "track_id": 0,
      "velocity": 0,
      "is_motor": true,
      "motor_id": 1,
      "accel_val": 2000,
      "base_duration_us": 230769
    },
    {
      "id": "M_1263",
      "pitch": 93,
      "t_note_us": 112153626,
      "t_trigger_us": 112017663,
      "is_ai": true,
      "track_id": 8,
      "velocity": 0,
      "is_motor": false,
      "motor_id": 0,
      "accel_val": 2000,
      "base_duration_us": 115384
    },
    {
      "id": "M_1265",
      "pitch": 45,
      "t_note_us": 112153626,
      "t_trigger_us": 112017663,
      "is_ai": false,
      "track_id": 0,
      "velocity": 0,
      "is_motor": true,
      "motor_id": 0,
      "accel_val": 2000,
      "base_duration_us": 230768
    },
    {
      "id": "M_1266",
      "pitch": 57,
      "t_note_us": 112153626,
      "t_trigger_us": 112017663,
      "is_ai": false,
      "track_id": 0,
      "velocity": 0,
      "is_motor": true,
      "motor_id": 1,
      "accel_val": 2000,
      "base_duration_us": 230768
    },
    {
      "id": "M_1264",
      "pitch": 86,
      "t_note_us": 112269010,
      "t_trigger_us": 112133047,
      "is_ai": true,
      "track_id": 4,
      "velocity": 0,
      "is_motor": false,
      "motor_id": 0,
      "accel_val": 2000,
      "base_duration_us": 115384
    },
    {
      "id": "M_1267",
      "pitch": 101,
      "t_note_us": 112384394,
      "t_trigger_us": 112248431,
      "is_ai": true,
      "track_id": 13,
      "velocity": 0,
      "is_motor": false,
      "motor_id": 0,
      "accel_val": 2000,
      "base_duration_us": 115384
    },
    {
      "id": "M_1269",
      "pitch": 72,
      "t_note_us": 112384394,
      "t_trigger_us": 112248431,
      "is_ai": false,
      "track_id": 0,
      "velocity": 0,
      "is_motor": true,
      "motor_id": 1,
      "accel_val": 2000,
      "base_duration_us": 230768
    },
    {
      "id": "M_1270",
      "pitch": 76,
      "t_note_us": 112384394,
      "t_trigger_us": 112248431,
      "is_ai": false,
      "track_id": 0,
      "velocity": 0,
      "is_motor": true,
      "motor_id": 2,
      "accel_val": 2000,
      "base_duration_us": 230768
    },
    {
      "id": "M_1268",
      "pitch": 100,
      "t_note_us": 112499778,
      "t_trigger_us": 112363815,
      "is_ai": true,
      "track_id": 12,
      "velocity": 0,
      "is_motor": false,
      "motor_id": 0,
      "accel_val": 2000,
      "base_duration_us": 115384
    },
    {
      "id": "M_1271",
      "pitch": 96,
      "t_note_us": 112615162,
      "t_trigger_us": 112479199,
      "is_ai": true,
      "track_id": 10,
      "velocity": 0,
      "is_motor": false,
      "motor_id": 0,
      "accel_val": 2000,
      "base_duration_us": 115384
    },
    {
      "id": "M_1272",
      "pitch": 50,
      "t_note_us": 112615162,
      "t_trigger_us": 112479199,
      "is_ai": false,
      "track_id": 0,
      "velocity": 0,
      "is_motor": true,
      "motor_id": 0,
      "accel_val": 2000,
      "base_duration_us": 230768
    },
    {
      "id": "M_1273",
      "pitch": 62,
      "t_note_us": 112615162,
      "t_trigger_us": 112479199,
      "is_ai": false,
      "track_id": 0,
      "velocity": 0,
      "is_motor": true,
      "motor_id": 1,
      "accel_val": 2000,
      "base_duration_us": 230768
    },
    {
      "id": "M_1274",
      "pitch": 93,
      "t_note_us": 112730546,
      "t_trigger_us": 112594583,
      "is_ai": true,
      "track_id": 8,
      "velocity": 0,
      "is_motor": false,
      "motor_id": 0,
      "accel_val": 2000,
      "base_duration_us": 230768
    },
    {
      "id": "M_1275",
      "pitch": 74,
      "t_note_us": 112845930,
      "t_trigger_us": 112709967,
      "is_ai": false,
      "track_id": 0,
      "velocity": 0,
      "is_motor": true,
      "motor_id": 1,
      "accel_val": 2000,
      "base_duration_us": 230768
    },
    {
      "id": "M_1276",
      "pitch": 77,
      "t_note_us": 112845930,
      "t_trigger_us": 112709967,
      "is_ai": false,
      "track_id": 0,
      "velocity": 0,
      "is_motor": true,
      "motor_id": 2,
      "accel_val": 2000,
      "base_duration_us": 230768
    },
    {
      "id": "M_1279",
      "pitch": 96,
      "t_note_us": 112961314,
      "t_trigger_us": 112825351,
      "is_ai": true,
      "track_id": 10,
      "velocity": 0,
      "is_motor": false,
      "motor_id": 0,
      "accel_val": 2000,
      "base_duration_us": 346153
    },
    {
      "id": "M_1277",
      "pitch": 50,
      "t_note_us": 113076698,
      "t_trigger_us": 112940735,
      "is_ai": false,
      "track_id": 0,
      "velocity": 0,
      "is_motor": true,
      "motor_id": 0,
      "accel_val": 2000,
      "base_duration_us": 230769
    },
    {
      "id": "M_1278",
      "pitch": 62,
      "t_note_us": 113076698,
      "t_trigger_us": 112940735,
      "is_ai": false,
      "track_id": 0,
      "velocity": 0,
      "is_motor": true,
      "motor_id": 1,
      "accel_val": 2000,
      "base_duration_us": 230769
    },
    {
      "id": "M_1282",
      "pitch": 98,
      "t_note_us": 113307467,
      "t_trigger_us": 113171504,
      "is_ai": true,
      "track_id": 11,
      "velocity": 0,
      "is_motor": false,
      "motor_id": 0,
      "accel_val": 2000,
      "base_duration_us": 230769
    },
    {
      "id": "M_1280",
      "pitch": 77,
      "t_note_us": 113307467,
      "t_trigger_us": 113171504,
      "is_ai": false,
      "track_id": 0,
      "velocity": 0,
      "is_motor": true,
      "motor_id": 2,
      "accel_val": 2000,
      "base_duration_us": 230769
    },
    {
      "id": "M_1281",
      "pitch": 74,
      "t_note_us": 113307467,
      "t_trigger_us": 113171504,
      "is_ai": false,
      "track_id": 0,
      "velocity": 0,
      "is_motor": true,
      "motor_id": 1,
      "accel_val": 2000,
      "base_duration_us": 230769
    },
    {
      "id": "M_1283",
      "pitch": 96,
      "t_note_us": 113538236,
      "t_trigger_us": 113402273,
      "is_ai": true,
      "track_id": 10,
      "velocity": 0,
      "is_motor": false,
      "motor_id": 0,
      "accel_val": 2000,
      "base_duration_us": 230769
    },
    {
      "id": "M_1284",
      "pitch": 48,
      "t_note_us": 113538236,
      "t_trigger_us": 113402273,
      "is_ai": false,
      "track_id": 0,
      "velocity": 0,
      "is_motor": true,
      "motor_id": 0,
      "accel_val": 2000,
      "base_duration_us": 230769
    },
    {
      "id": "M_1285",
      "pitch": 60,
      "t_note_us": 113538236,
      "t_trigger_us": 113402273,
      "is_ai": false,
      "track_id": 0,
      "velocity": 0,
      "is_motor": true,
      "motor_id": 1,
      "accel_val": 2000,
      "base_duration_us": 230769
    },
    {
      "id": "M_1288",
      "pitch": 93,
      "t_note_us": 113769005,
      "t_trigger_us": 113633042,
      "is_ai": true,
      "track_id": 8,
      "velocity": 0,
      "is_motor": false,
      "motor_id": 0,
      "accel_val": 2000,
      "base_duration_us": 230769
    },
    {
      "id": "M_1286",
      "pitch": 72,
      "t_note_us": 113769005,
      "t_trigger_us": 113633042,
      "is_ai": false,
      "track_id": 0,
      "velocity": 0,
      "is_motor": true,
      "motor_id": 1,
      "accel_val": 2000,
      "base_duration_us": 230769
    },
    {
      "id": "M_1287",
      "pitch": 76,
      "t_note_us": 113769005,
      "t_trigger_us": 113633042,
      "is_ai": false,
      "track_id": 0,
      "velocity": 0,
      "is_motor": true,
      "motor_id": 2,
      "accel_val": 2000,
      "base_duration_us": 230769
    },
    {
      "id": "M_1289",
      "pitch": 91,
      "t_note_us": 113999774,
      "t_trigger_us": 113863811,
      "is_ai": true,
      "track_id": 7,
      "velocity": 0,
      "is_motor": false,
      "motor_id": 0,
      "accel_val": 2000,
      "base_duration_us": 115384
    },
    {
      "id": "M_1291",
      "pitch": 48,
      "t_note_us": 113999774,
      "t_trigger_us": 113863811,
      "is_ai": false,
      "track_id": 0,
      "velocity": 0,
      "is_motor": true,
      "motor_id": 0,
      "accel_val": 2000,
      "base_duration_us": 230768
    },
    {
      "id": "M_1292",
      "pitch": 60,
      "t_note_us": 113999774,
      "t_trigger_us": 113863811,
      "is_ai": false,
      "track_id": 0,
      "velocity": 0,
      "is_motor": true,
      "motor_id": 1,
      "accel_val": 2000,
      "base_duration_us": 230768
    },
    {
      "id": "M_1290",
      "pitch": 86,
      "t_note_us": 114115158,
      "t_trigger_us": 113979195,
      "is_ai": true,
      "track_id": 4,
      "velocity": 0,
      "is_motor": false,
      "motor_id": 0,
      "accel_val": 2000,
      "base_duration_us": 115384
    },
    {
      "id": "M_1293",
      "pitch": 89,
      "t_note_us": 114230542,
      "t_trigger_us": 114094579,
      "is_ai": true,
      "track_id": 6,
      "velocity": 0,
      "is_motor": false,
      "motor_id": 0,
      "accel_val": 2000,
      "base_duration_us": 115384
    },
    {
      "id": "M_1295",
      "pitch": 72,
      "t_note_us": 114230542,
      "t_trigger_us": 114094579,
      "is_ai": false,
      "track_id": 0,
      "velocity": 0,
      "is_motor": true,
      "motor_id": 1,
      "accel_val": 2000,
      "base_duration_us": 230768
    },
    {
      "id": "M_1296",
      "pitch": 76,
      "t_note_us": 114230542,
      "t_trigger_us": 114094579,
      "is_ai": false,
      "track_id": 0,
      "velocity": 0,
      "is_motor": true,
      "motor_id": 2,
      "accel_val": 2000,
      "base_duration_us": 230768
    },
    {
      "id": "M_1294",
      "pitch": 96,
      "t_note_us": 114345926,
      "t_trigger_us": 114209963,
      "is_ai": true,
      "track_id": 10,
      "velocity": 0,
      "is_motor": false,
      "motor_id": 0,
      "accel_val": 2000,
      "base_duration_us": 115384
    },
    {
      "id": "M_1297",
      "pitch": 93,
      "t_note_us": 114461310,
      "t_trigger_us": 114325347,
      "is_ai": true,
      "track_id": 8,
      "velocity": 0,
      "is_motor": false,
      "motor_id": 0,
      "accel_val": 2000,
      "base_duration_us": 115384
    },
    {
      "id": "M_1298",
      "pitch": 46,
      "t_note_us": 114461310,
      "t_trigger_us": 114325347,
      "is_ai": false,
      "track_id": 0,
      "velocity": 0,
      "is_motor": true,
      "motor_id": 0,
      "accel_val": 2000,
      "base_duration_us": 230768
    },
    {
      "id": "M_1299",
      "pitch": 58,
      "t_note_us": 114461310,
      "t_trigger_us": 114325347,
      "is_ai": false,
      "track_id": 0,
      "velocity": 0,
      "is_motor": true,
      "motor_id": 1,
      "accel_val": 2000,
      "base_duration_us": 230768
    },
    {
      "id": "M_1300",
      "pitch": 91,
      "t_note_us": 114576694,
      "t_trigger_us": 114440731,
      "is_ai": true,
      "track_id": 7,
      "velocity": 0,
      "is_motor": false,
      "motor_id": 0,
      "accel_val": 2000,
      "base_duration_us": 230768
    },
    {
      "id": "M_1301",
      "pitch": 74,
      "t_note_us": 114692078,
      "t_trigger_us": 114556115,
      "is_ai": false,
      "track_id": 0,
      "velocity": 0,
      "is_motor": true,
      "motor_id": 1,
      "accel_val": 2000,
      "base_duration_us": 230768
    },
    {
      "id": "M_1302",
      "pitch": 70,
      "t_note_us": 114692078,
      "t_trigger_us": 114556115,
      "is_ai": false,
      "track_id": 0,
      "velocity": 0,
      "is_motor": true,
      "motor_id": 2,
      "accel_val": 2000,
      "base_duration_us": 230768
    },
    {
      "id": "M_1305",
      "pitch": 89,
      "t_note_us": 114807462,
      "t_trigger_us": 114671499,
      "is_ai": true,
      "track_id": 6,
      "velocity": 0,
      "is_motor": false,
      "motor_id": 0,
      "accel_val": 2000,
      "base_duration_us": 346153
    },
    {
      "id": "M_1303",
      "pitch": 58,
      "t_note_us": 114922846,
      "t_trigger_us": 114786883,
      "is_ai": false,
      "track_id": 0,
      "velocity": 0,
      "is_motor": true,
      "motor_id": 0,
      "accel_val": 2000,
      "base_duration_us": 230769
    },
    {
      "id": "M_1304",
      "pitch": 46,
      "t_note_us": 114922846,
      "t_trigger_us": 114786883,
      "is_ai": false,
      "track_id": 0,
      "velocity": 0,
      "is_motor": true,
      "motor_id": 1,
      "accel_val": 2000,
      "base_duration_us": 230769
    },
    {
      "id": "M_1306",
      "pitch": 86,
      "t_note_us": 115153615,
      "t_trigger_us": 115017652,
      "is_ai": true,
      "track_id": 4,
      "velocity": 0,
      "is_motor": false,
      "motor_id": 0,
      "accel_val": 2000,
      "base_duration_us": 230769
    },
    {
      "id": "M_1307",
      "pitch": 70,
      "t_note_us": 115153615,
      "t_trigger_us": 115017652,
      "is_ai": false,
      "track_id": 0,
      "velocity": 0,
      "is_motor": true,
      "motor_id": 1,
      "accel_val": 2000,
      "base_duration_us": 230769
    },
    {
      "id": "M_1308",
      "pitch": 74,
      "t_note_us": 115153615,
      "t_trigger_us": 115017652,
      "is_ai": false,
      "track_id": 0,
      "velocity": 0,
      "is_motor": true,
      "motor_id": 0,
      "accel_val": 2000,
      "base_duration_us": 230769
    },
    {
      "id": "M_1310",
      "pitch": 85,
      "t_note_us": 115384384,
      "t_trigger_us": 115248421,
      "is_ai": true,
      "track_id": 0,
      "velocity": 0,
      "is_motor": true,
      "motor_id": 3,
      "accel_val": 2000,
      "base_duration_us": 230769
    },
    {
      "id": "M_1309",
      "pitch": 57,
      "t_note_us": 115384384,
      "t_trigger_us": 115248421,
      "is_ai": false,
      "track_id": 0,
      "velocity": 0,
      "is_motor": true,
      "motor_id": 0,
      "accel_val": 2000,
      "base_duration_us": 230769
    },
    {
      "id": "M_1311",
      "pitch": 45,
      "t_note_us": 115384384,
      "t_trigger_us": 115248421,
      "is_ai": false,
      "track_id": 0,
      "velocity": 0,
      "is_motor": true,
      "motor_id": 1,
      "accel_val": 2000,
      "base_duration_us": 230769
    },
    {
      "id": "M_1313",
      "pitch": 94,
      "t_note_us": 115615153,
      "t_trigger_us": 115479190,
      "is_ai": true,
      "track_id": 0,
      "velocity": 0,
      "is_motor": true,
      "motor_id": 3,
      "accel_val": 2000,
      "base_duration_us": 230769
    },
    {
      "id": "M_1312",
      "pitch": 69,
      "t_note_us": 115615153,
      "t_trigger_us": 115479190,
      "is_ai": false,
      "track_id": 0,
      "velocity": 0,
      "is_motor": true,
      "motor_id": 1,
      "accel_val": 2000,
      "base_duration_us": 230769
    },
    {
      "id": "M_1314",
      "pitch": 73,
      "t_note_us": 115615153,
      "t_trigger_us": 115479190,
      "is_ai": false,
      "track_id": 0,
      "velocity": 0,
      "is_motor": true,
      "motor_id": 0,
      "accel_val": 2000,
      "base_duration_us": 230769
    },
    {
      "id": "M_1315",
      "pitch": 93,
      "t_note_us": 115845922,
      "t_trigger_us": 115709959,
      "is_ai": true,
      "track_id": 8,
      "velocity": 0,
      "is_motor": false,
      "motor_id": 0,
      "accel_val": 2000,
      "base_duration_us": 230769
    },
    {
      "id": "M_1316",
      "pitch": 57,
      "t_note_us": 115845922,
      "t_trigger_us": 115709959,
      "is_ai": false,
      "track_id": 0,
      "velocity": 0,
      "is_motor": true,
      "motor_id": 0,
      "accel_val": 2000,
      "base_duration_us": 230769
    },
    {
      "id": "M_1317",
      "pitch": 45,
      "t_note_us": 115845922,
      "t_trigger_us": 115709959,
      "is_ai": false,
      "track_id": 0,
      "velocity": 0,
      "is_motor": true,
      "motor_id": 1,
      "accel_val": 2000,
      "base_duration_us": 230769
    },
    {
      "id": "M_1321",
      "pitch": 88,
      "t_note_us": 116076691,
      "t_trigger_us": 115940728,
      "is_ai": true,
      "track_id": 5,
      "velocity": 0,
      "is_motor": false,
      "motor_id": 0,
      "accel_val": 2000,
      "base_duration_us": 461538
    },
    {
      "id": "M_1318",
      "pitch": 69,
      "t_note_us": 116076691,
      "t_trigger_us": 115940728,
      "is_ai": false,
      "track_id": 0,
      "velocity": 0,
      "is_motor": true,
      "motor_id": 1,
      "accel_val": 2000,
      "base_duration_us": 230769
    },
    {
      "id": "M_1319",
      "pitch": 73,
      "t_note_us": 116076691,
      "t_trigger_us": 115940728,
      "is_ai": false,
      "track_id": 0,
      "velocity": 0,
      "is_motor": true,
      "motor_id": 0,
      "accel_val": 2000,
      "base_duration_us": 230769
    },
    {
      "id": "M_1320",
      "pitch": 50,
      "t_note_us": 116307460,
      "t_trigger_us": 116171497,
      "is_ai": false,
      "track_id": 0,
      "velocity": 0,
      "is_motor": true,
      "motor_id": 0,
      "accel_val": 2000,
      "base_duration_us": 230769
    },
    {
      "id": "M_1322",
      "pitch": 72,
      "t_note_us": 116538229,
      "t_trigger_us": 116402266,
      "is_ai": false,
      "track_id": 0,
      "velocity": 0,
      "is_motor": true,
      "motor_id": 1,
      "accel_val": 2000,
      "base_duration_us": 115384
    },
    {
      "id": "M_1324",
      "pitch": 57,
      "t_note_us": 116538229,
      "t_trigger_us": 116402266,
      "is_ai": false,
      "track_id": 0,
      "velocity": 0,
      "is_motor": true,
      "motor_id": 0,
      "accel_val": 2000,
      "base_duration_us": 230768
    },
    {
      "id": "M_1325",
      "pitch": 62,
      "t_note_us": 116538229,
      "t_trigger_us": 116402266,
      "is_ai": false,
      "track_id": 0,
      "velocity": 0,
      "is_motor": true,
      "motor_id": 2,
      "accel_val": 2000,
      "base_duration_us": 230768
    },
    {
      "id": "M_1323",
      "pitch": 86,
      "t_note_us": 116653613,
      "t_trigger_us": 116517650,
      "is_ai": true,
      "track_id": 4,
      "velocity": 0,
      "is_motor": false,
      "motor_id": 0,
      "accel_val": 2000,
      "base_duration_us": 115384
    },
    {
      "id": "M_1326",
      "pitch": 89,
      "t_note_us": 116768997,
      "t_trigger_us": 116633034,
      "is_ai": true,
      "track_id": 6,
      "velocity": 0,
      "is_motor": false,
      "motor_id": 0,
      "accel_val": 2000,
      "base_duration_us": 115384
    },
    {
      "id": "M_1327",
      "pitch": 50,
      "t_note_us": 116768997,
      "t_trigger_us": 116633034,
      "is_ai": false,
      "track_id": 0,
      "velocity": 0,
      "is_motor": true,
      "motor_id": 0,
      "accel_val": 2000,
      "base_duration_us": 115384
    },
    {
      "id": "M_1329",
      "pitch": 91,
      "t_note_us": 116884381,
      "t_trigger_us": 116748418,
      "is_ai": true,
      "track_id": 7,
      "velocity": 0,
      "is_motor": false,
      "motor_id": 0,
      "accel_val": 2000,
      "base_duration_us": 115384
    },
    {
      "id": "M_1328",
      "pitch": 57,
      "t_note_us": 116884381,
      "t_trigger_us": 116748418,
      "is_ai": false,
      "track_id": 0,
      "velocity": 0,
      "is_motor": true,
      "motor_id": 0,
      "accel_val": 2000,
      "base_duration_us": 115384
    },
    {
      "id": "M_1331",
      "pitch": 93,
      "t_note_us": 116999765,
      "t_trigger_us": 116863802,
      "is_ai": true,
      "track_id": 8,
      "velocity": 0,
      "is_motor": false,
      "motor_id": 0,
      "accel_val": 2000,
      "base_duration_us": 115384
    },
    {
      "id": "M_1330",
      "pitch": 62,
      "t_note_us": 116999765,
      "t_trigger_us": 116863802,
      "is_ai": false,
      "track_id": 0,
      "velocity": 0,
      "is_motor": true,
      "motor_id": 1,
      "accel_val": 2000,
      "base_duration_us": 115384
    },
    {
      "id": "M_1333",
      "pitch": 98,
      "t_note_us": 117115149,
      "t_trigger_us": 116979186,
      "is_ai": true,
      "track_id": 11,
      "velocity": 0,
      "is_motor": false,
      "motor_id": 0,
      "accel_val": 2000,
      "base_duration_us": 115384
    },
    {
      "id": "M_1332",
      "pitch": 57,
      "t_note_us": 117115149,
      "t_trigger_us": 116979186,
      "is_ai": false,
      "track_id": 0,
      "velocity": 0,
      "is_motor": true,
      "motor_id": 0,
      "accel_val": 2000,
      "base_duration_us": 115384
    },
    {
      "id": "M_1334",
      "pitch": 96,
      "t_note_us": 117230533,
      "t_trigger_us": 117094570,
      "is_ai": true,
      "track_id": 10,
      "velocity": 0,
      "is_motor": false,
      "motor_id": 0,
      "accel_val": 2000,
      "base_duration_us": 115384
    },
    {
      "id": "M_1335",
      "pitch": 62,
      "t_note_us": 117230533,
      "t_trigger_us": 117094570,
      "is_ai": false,
      "track_id": 0,
      "velocity": 0,
      "is_motor": true,
      "motor_id": 1,
      "accel_val": 2000,
      "base_duration_us": 115384
    },
    {
      "id": "M_1337",
      "pitch": 91,
      "t_note_us": 117345917,
      "t_trigger_us": 117209954,
      "is_ai": true,
      "track_id": 7,
      "velocity": 0,
      "is_motor": false,
      "motor_id": 0,
      "accel_val": 2000,
      "base_duration_us": 115384
    },
    {
      "id": "M_1336",
      "pitch": 57,
      "t_note_us": 117345917,
      "t_trigger_us": 117209954,
      "is_ai": false,
      "track_id": 0,
      "velocity": 0,
      "is_motor": true,
      "motor_id": 0,
      "accel_val": 2000,
      "base_duration_us": 115384
    },
    {
      "id": "M_1339",
      "pitch": 93,
      "t_note_us": 117461301,
      "t_trigger_us": 117325338,
      "is_ai": true,
      "track_id": 8,
      "velocity": 0,
      "is_motor": false,
      "motor_id": 0,
      "accel_val": 2000,
      "base_duration_us": 115384
    },
    {
      "id": "M_1338",
      "pitch": 53,
      "t_note_us": 117461301,
      "t_trigger_us": 117325338,
      "is_ai": false,
      "track_id": 0,
      "velocity": 0,
      "is_motor": true,
      "motor_id": 0,
      "accel_val": 2000,
      "base_duration_us": 115384
    },
    {
      "id": "M_1340",
      "pitch": 86,
      "t_note_us": 117576685,
      "t_trigger_us": 117440722,
      "is_ai": true,
      "track_id": 4,
      "velocity": 0,
      "is_motor": false,
      "motor_id": 0,
      "accel_val": 2000,
      "base_duration_us": 115384
    },
    {
      "id": "M_1341",
      "pitch": 50,
      "t_note_us": 117576685,
      "t_trigger_us": 117440722,
      "is_ai": false,
      "track_id": 0,
      "velocity": 0,
      "is_motor": true,
      "motor_id": 0,
      "accel_val": 2000,
      "base_duration_us": 115384
    },
    {
      "id": "M_1342",
      "pitch": 89,
      "t_note_us": 117692069,
      "t_trigger_us": 117556106,
      "is_ai": true,
      "track_id": 6,
      "velocity": 0,
      "is_motor": false,
      "motor_id": 0,
      "accel_val": 2000,
      "base_duration_us": 461538
    },
    {
      "id": "M_1343",
      "pitch": 50,
      "t_note_us": 117692069,
      "t_trigger_us": 117556106,
      "is_ai": false,
      "track_id": 0,
      "velocity": 0,
      "is_motor": true,
      "motor_id": 0,
      "accel_val": 2000,
      "base_duration_us": 461538
    },
    {
      "id": "M_1344",
      "pitch": 62,
      "t_note_us": 117692069,
      "t_trigger_us": 117556106,
      "is_ai": false,
      "track_id": 0,
      "velocity": 0,
      "is_motor": true,
      "motor_id": 1,
      "accel_val": 2000,
      "base_duration_us": 461538
    },
    {
      "id": "M_1345",
      "pitch": 74,
      "t_note_us": 118153607,
      "t_trigger_us": 118017644,
      "is_ai": false,
      "track_id": 0,
      "velocity": 0,
      "is_motor": true,
      "motor_id": 1,
      "accel_val": 2000,
      "base_duration_us": 230769
    },
    {
      "id": "M_1346",
      "pitch": 46,
      "t_note_us": 118153607,
      "t_trigger_us": 118017644,
      "is_ai": false,
      "track_id": 0,
      "velocity": 0,
      "is_motor": true,
      "motor_id": 0,
      "accel_val": 2000,
      "base_duration_us": 346153
    },
    {
      "id": "M_1347",
      "pitch": 76,
      "t_note_us": 118384376,
      "t_trigger_us": 118248413,
      "is_ai": false,
      "track_id": 0,
      "velocity": 0,
      "is_motor": true,
      "motor_id": 2,
      "accel_val": 2000,
      "base_duration_us": 230768
    },
    {
      "id": "M_1349",
      "pitch": 58,
      "t_note_us": 118499760,
      "t_trigger_us": 118363797,
      "is_ai": false,
      "track_id": 0,
      "velocity": 0,
      "is_motor": true,
      "motor_id": 0,
      "accel_val": 2000,
      "base_duration_us": 346153
    },
    {
      "id": "M_1348",
      "pitch": 77,
      "t_note_us": 118615144,
      "t_trigger_us": 118479181,
      "is_ai": false,
      "track_id": 0,
      "velocity": 0,
      "is_motor": true,
      "motor_id": 2,
      "accel_val": 2000,
      "base_duration_us": 230769
    },
    {
      "id": "M_1350",
      "pitch": 76,
      "t_note_us": 118845913,
      "t_trigger_us": 118709950,
      "is_ai": false,
      "track_id": 0,
      "velocity": 0,
      "is_motor": true,
      "motor_id": 2,
      "accel_val": 2000,
      "base_duration_us": 230769
    },
    {
      "id": "M_1351",
      "pitch": 57,
      "t_note_us": 118845913,
      "t_trigger_us": 118709950,
      "is_ai": false,
      "track_id": 0,
      "velocity": 0,
      "is_motor": true,
      "motor_id": 0,
      "accel_val": 2000,
      "base_duration_us": 461538
    },
    {
      "id": "M_1352",
      "pitch": 45,
      "t_note_us": 119307451,
      "t_trigger_us": 119171488,
      "is_ai": false,
      "track_id": 0,
      "velocity": 0,
      "is_motor": true,
      "motor_id": 0,
      "accel_val": 2000,
      "base_duration_us": 230769
    },
    {
      "id": "M_1353",
      "pitch": 72,
      "t_note_us": 119307451,
      "t_trigger_us": 119171488,
      "is_ai": false,
      "track_id": 0,
      "velocity": 0,
      "is_motor": true,
      "motor_id": 1,
      "accel_val": 2000,
      "base_duration_us": 230769
    },
    {
      "id": "M_1354",
      "pitch": 69,
      "t_note_us": 119538220,
      "t_trigger_us": 119402257,
      "is_ai": false,
      "track_id": 0,
      "velocity": 0,
      "is_motor": true,
      "motor_id": 1,
      "accel_val": 2000,
      "base_duration_us": 230769
    },
    {
      "id": "M_1355",
      "pitch": 57,
      "t_note_us": 119538220,
      "t_trigger_us": 119402257,
      "is_ai": false,
      "track_id": 0,
      "velocity": 0,
      "is_motor": true,
      "motor_id": 0,
      "accel_val": 2000,
      "base_duration_us": 230769
    },
    {
      "id": "M_1356",
      "pitch": 45,
      "t_note_us": 119768989,
      "t_trigger_us": 119633026,
      "is_ai": false,
      "track_id": 0,
      "velocity": 0,
      "is_motor": true,
      "motor_id": 0,
      "accel_val": 2000,
      "base_duration_us": 230769
    },
    {
      "id": "M_1357",
      "pitch": 72,
      "t_note_us": 119768989,
      "t_trigger_us": 119633026,
      "is_ai": false,
      "track_id": 0,
      "velocity": 0,
      "is_motor": true,
      "motor_id": 1,
      "accel_val": 2000,
      "base_duration_us": 461538
    },
    {
      "id": "M_1358",
      "pitch": 50,
      "t_note_us": 119999758,
      "t_trigger_us": 119863795,
      "is_ai": false,
      "track_id": 0,
      "velocity": 0,
      "is_motor": true,
      "motor_id": 0,
      "accel_val": 2000,
      "base_duration_us": 346153
    },
    {
      "id": "M_1359",
      "pitch": 74,
      "t_note_us": 120230527,
      "t_trigger_us": 120094564,
      "is_ai": false,
      "track_id": 0,
      "velocity": 0,
      "is_motor": true,
      "motor_id": 1,
      "accel_val": 2000,
      "base_duration_us": 230768
    },
    {
      "id": "M_1360",
      "pitch": 62,
      "t_note_us": 120345911,
      "t_trigger_us": 120209948,
      "is_ai": false,
      "track_id": 0,
      "velocity": 0,
      "is_motor": true,
      "motor_id": 0,
      "accel_val": 2000,
      "base_duration_us": 346153
    },
    {
      "id": "M_1361",
      "pitch": 72,
      "t_note_us": 120692064,
      "t_trigger_us": 120556101,
      "is_ai": false,
      "track_id": 0,
      "velocity": 0,
      "is_motor": true,
      "motor_id": 1,
      "accel_val": 2000,
      "base_duration_us": 230769
    },
    {
      "id": "M_1363",
      "pitch": 50,
      "t_note_us": 120692064,
      "t_trigger_us": 120556101,
      "is_ai": false,
      "track_id": 0,
      "velocity": 0,
      "is_motor": true,
      "motor_id": 0,
      "accel_val": 2000,
      "base_duration_us": 461538
    },
    {
      "id": "M_1362",
      "pitch": 72,
      "t_note_us": 120922833,
      "t_trigger_us": 120786870,
      "is_ai": false,
      "track_id": 0,
      "velocity": 0,
      "is_motor": true,
      "motor_id": 1,
      "accel_val": 2000,
      "base_duration_us": 230769
    },
    {
      "id": "M_1364",
      "pitch": 48,
      "t_note_us": 121153602,
      "t_trigger_us": 121017639,
      "is_ai": false,
      "track_id": 0,
      "velocity": 0,
      "is_motor": true,
      "motor_id": 0,
      "accel_val": 2000,
      "base_duration_us": 230769
    },
    {
      "id": "M_1365",
      "pitch": 74,
      "t_note_us": 121153602,
      "t_trigger_us": 121017639,
      "is_ai": false,
      "track_id": 0,
      "velocity": 0,
      "is_motor": true,
      "motor_id": 1,
      "accel_val": 2000,
      "base_duration_us": 230769
    },
    {
      "id": "M_1366",
      "pitch": 60,
      "t_note_us": 121384371,
      "t_trigger_us": 121248408,
      "is_ai": false,
      "track_id": 0,
      "velocity": 0,
      "is_motor": true,
      "motor_id": 1,
      "accel_val": 2000,
      "base_duration_us": 230769
    },
    {
      "id": "M_1367",
      "pitch": 77,
      "t_note_us": 121384371,
      "t_trigger_us": 121248408,
      "is_ai": false,
      "track_id": 0,
      "velocity": 0,
      "is_motor": true,
      "motor_id": 2,
      "accel_val": 2000,
      "base_duration_us": 230769
    },
    {
      "id": "M_1368",
      "pitch": 48,
      "t_note_us": 121615140,
      "t_trigger_us": 121479177,
      "is_ai": false,
      "track_id": 0,
      "velocity": 0,
      "is_motor": true,
      "motor_id": 0,
      "accel_val": 2000,
      "base_duration_us": 230769
    },
    {
      "id": "M_1369",
      "pitch": 72,
      "t_note_us": 121615140,
      "t_trigger_us": 121479177,
      "is_ai": false,
      "track_id": 0,
      "velocity": 0,
      "is_motor": true,
      "motor_id": 1,
      "accel_val": 2000,
      "base_duration_us": 230769
    },
    {
      "id": "M_1370",
      "pitch": 69,
      "t_note_us": 121845909,
      "t_trigger_us": 121709946,
      "is_ai": false,
      "track_id": 0,
      "velocity": 0,
      "is_motor": true,
      "motor_id": 1,
      "accel_val": 2000,
      "base_duration_us": 230769
    },
    {
      "id": "M_1371",
      "pitch": 46,
      "t_note_us": 121845909,
      "t_trigger_us": 121709946,
      "is_ai": false,
      "track_id": 0,
      "velocity": 0,
      "is_motor": true,
      "motor_id": 0,
      "accel_val": 2000,
      "base_duration_us": 346153
    },
    {
      "id": "M_1372",
      "pitch": 67,
      "t_note_us": 122076678,
      "t_trigger_us": 121940715,
      "is_ai": false,
      "track_id": 0,
      "velocity": 0,
      "is_motor": true,
      "motor_id": 1,
      "accel_val": 2000,
      "base_duration_us": 230768
    },
    {
      "id": "M_1374",
      "pitch": 58,
      "t_note_us": 122192062,
      "t_trigger_us": 122056099,
      "is_ai": false,
      "track_id": 0,
      "velocity": 0,
      "is_motor": true,
      "motor_id": 0,
      "accel_val": 2000,
      "base_duration_us": 346153
    },
    {
      "id": "M_1373",
      "pitch": 69,
      "t_note_us": 122307446,
      "t_trigger_us": 122171483,
      "is_ai": false,
      "track_id": 0,
      "velocity": 0,
      "is_motor": true,
      "motor_id": 1,
      "accel_val": 2000,
      "base_duration_us": 230769
    },
    {
      "id": "M_1375",
      "pitch": 72,
      "t_note_us": 122538215,
      "t_trigger_us": 122402252,
      "is_ai": false,
      "track_id": 0,
      "velocity": 0,
      "is_motor": true,
      "motor_id": 1,
      "accel_val": 2000,
      "base_duration_us": 230769
    },
    {
      "id": "M_1377",
      "pitch": 57,
      "t_note_us": 122538215,
      "t_trigger_us": 122402252,
      "is_ai": false,
      "track_id": 0,
      "velocity": 0,
      "is_motor": true,
      "motor_id": 0,
      "accel_val": 2000,
      "base_duration_us": 461538
    },
    {
      "id": "M_1376",
      "pitch": 86,
      "t_note_us": 122768984,
      "t_trigger_us": 122633021,
      "is_ai": true,
      "track_id": 4,
      "velocity": 0,
      "is_motor": false,
      "motor_id": 0,
      "accel_val": 2000,
      "base_duration_us": 230769
    },
    {
      "id": "M_1378",
      "pitch": 84,
      "t_note_us": 122999753,
      "t_trigger_us": 122863790,
      "is_ai": true,
      "track_id": 3,
      "velocity": 0,
      "is_motor": false,
      "motor_id": 0,
      "accel_val": 2000,
      "base_duration_us": 230769
    },
    {
      "id": "M_1379",
      "pitch": 45,
      "t_note_us": 122999753,
      "t_trigger_us": 122863790,
      "is_ai": false,
      "track_id": 0,
      "velocity": 0,
      "is_motor": true,
      "motor_id": 0,
      "accel_val": 2000,
      "base_duration_us": 230769
    },
    {
      "id": "M_1380",
      "pitch": 69,
      "t_note_us": 123230522,
      "t_trigger_us": 123094559,
      "is_ai": false,
      "track_id": 0,
      "velocity": 0,
      "is_motor": true,
      "motor_id": 1,
      "accel_val": 2000,
      "base_duration_us": 230769
    },
    {
      "id": "M_1381",
      "pitch": 57,
      "t_note_us": 123230522,
      "t_trigger_us": 123094559,
      "is_ai": false,
      "track_id": 0,
      "velocity": 0,
      "is_motor": true,
      "motor_id": 0,
      "accel_val": 2000,
      "base_duration_us": 230769
    },
    {
      "id": "M_1382",
      "pitch": 45,
      "t_note_us": 123461291,
      "t_trigger_us": 123325328,
      "is_ai": false,
      "track_id": 0,
      "velocity": 0,
      "is_motor": true,
      "motor_id": 0,
      "accel_val": 2000,
      "base_duration_us": 230769
    },
    {
      "id": "M_1383",
      "pitch": 67,
      "t_note_us": 123461291,
      "t_trigger_us": 123325328,
      "is_ai": false,
      "track_id": 0,
      "velocity": 0,
      "is_motor": true,
      "motor_id": 1,
      "accel_val": 2000,
      "base_duration_us": 461538
    },
    {
      "id": "M_1384",
      "pitch": 50,
      "t_note_us": 123692060,
      "t_trigger_us": 123556097,
      "is_ai": false,
      "track_id": 0,
      "velocity": 0,
      "is_motor": true,
      "motor_id": 0,
      "accel_val": 2000,
      "base_duration_us": 346153
    },
    {
      "id": "M_1385",
      "pitch": 69,
      "t_note_us": 123922829,
      "t_trigger_us": 123786866,
      "is_ai": false,
      "track_id": 0,
      "velocity": 0,
      "is_motor": true,
      "motor_id": 1,
      "accel_val": 2000,
      "base_duration_us": 230768
    },
    {
      "id": "M_1386",
      "pitch": 62,
      "t_note_us": 124038213,
      "t_trigger_us": 123902250,
      "is_ai": false,
      "track_id": 0,
      "velocity": 0,
      "is_motor": true,
      "motor_id": 0,
      "accel_val": 2000,
      "base_duration_us": 346153
    },
    {
      "id": "M_1387",
      "pitch": 69,
      "t_note_us": 124384366,
      "t_trigger_us": 124248403,
      "is_ai": false,
      "track_id": 0,
      "velocity": 0,
      "is_motor": true,
      "motor_id": 1,
      "accel_val": 2000,
      "base_duration_us": 230769
    },
    {
      "id": "M_1389",
      "pitch": 50,
      "t_note_us": 124384366,
      "t_trigger_us": 124248403,
      "is_ai": false,
      "track_id": 0,
      "velocity": 0,
      "is_motor": true,
      "motor_id": 0,
      "accel_val": 2000,
      "base_duration_us": 461538
    },
    {
      "id": "M_1388",
      "pitch": 86,
      "t_note_us": 124615135,
      "t_trigger_us": 124479172,
      "is_ai": true,
      "track_id": 4,
      "velocity": 0,
      "is_motor": false,
      "motor_id": 0,
      "accel_val": 2000,
      "base_duration_us": 230769
    },
    {
      "id": "M_1391",
      "pitch": 84,
      "t_note_us": 124845904,
      "t_trigger_us": 124709941,
      "is_ai": true,
      "track_id": 3,
      "velocity": 0,
      "is_motor": false,
      "motor_id": 0,
      "accel_val": 2000,
      "base_duration_us": 230769
    },
    {
      "id": "M_1390",
      "pitch": 51,
      "t_note_us": 124845904,
      "t_trigger_us": 124709941,
      "is_ai": false,
      "track_id": 0,
      "velocity": 0,
      "is_motor": true,
      "motor_id": 0,
      "accel_val": 2000,
      "base_duration_us": 230769
    },
    {
      "id": "M_1392",
      "pitch": 53,
      "t_note_us": 125076673,
      "t_trigger_us": 124940710,
      "is_ai": false,
      "track_id": 0,
      "velocity": 0,
      "is_motor": true,
      "motor_id": 0,
      "accel_val": 2000,
      "base_duration_us": 230769
    },
    {
      "id": "M_1393",
      "pitch": 69,
      "t_note_us": 125076673,
      "t_trigger_us": 124940710,
      "is_ai": false,
      "track_id": 0,
      "velocity": 0,
      "is_motor": true,
      "motor_id": 1,
      "accel_val": 2000,
      "base_duration_us": 230769
    },
    {
      "id": "M_1394",
      "pitch": 48,
      "t_note_us": 125307442,
      "t_trigger_us": 125171479,
      "is_ai": false,
      "track_id": 0,
      "velocity": 0,
      "is_motor": true,
      "motor_id": 0,
      "accel_val": 2000,
      "base_duration_us": 230769
    },
    {
      "id": "M_1395",
      "pitch": 67,
      "t_note_us": 125307442,
      "t_trigger_us": 125171479,
      "is_ai": false,
      "track_id": 0,
      "velocity": 0,
      "is_motor": true,
      "motor_id": 1,
      "accel_val": 2000,
      "base_duration_us": 230769
    },
    {
      "id": "M_1396",
      "pitch": 77,
      "t_note_us": 125538211,
      "t_trigger_us": 125402248,
      "is_ai": false,
      "track_id": 0,
      "velocity": 0,
      "is_motor": true,
      "motor_id": 2,
      "accel_val": 2000,
      "base_duration_us": 230769
    },
    {
      "id": "M_1397",
      "pitch": 46,
      "t_note_us": 125538211,
      "t_trigger_us": 125402248,
      "is_ai": false,
      "track_id": 0,
      "velocity": 0,
      "is_motor": true,
      "motor_id": 0,
      "accel_val": 2000,
      "base_duration_us": 346153
    },
    {
      "id": "M_1398",
      "pitch": 74,
      "t_note_us": 125768980,
      "t_trigger_us": 125633017,
      "is_ai": false,
      "track_id": 0,
      "velocity": 0,
      "is_motor": true,
      "motor_id": 1,
      "accel_val": 2000,
      "base_duration_us": 230768
    },
    {
      "id": "M_1400",
      "pitch": 58,
      "t_note_us": 125884364,
      "t_trigger_us": 125748401,
      "is_ai": false,
      "track_id": 0,
      "velocity": 0,
      "is_motor": true,
      "motor_id": 0,
      "accel_val": 2000,
      "base_duration_us": 346153
    },
    {
      "id": "M_1399",
      "pitch": 77,
      "t_note_us": 125999748,
      "t_trigger_us": 125863785,
      "is_ai": false,
      "track_id": 0,
      "velocity": 0,
      "is_motor": true,
      "motor_id": 2,
      "accel_val": 2000,
      "base_duration_us": 230769
    },
    {
      "id": "M_1401",
      "pitch": 74,
      "t_note_us": 126230517,
      "t_trigger_us": 126094554,
      "is_ai": false,
      "track_id": 0,
      "velocity": 0,
      "is_motor": true,
      "motor_id": 1,
      "accel_val": 2000,
      "base_duration_us": 230769
    },
    {
      "id": "M_1402",
      "pitch": 48,
      "t_note_us": 126230517,
      "t_trigger_us": 126094554,
      "is_ai": false,
      "track_id": 0,
      "velocity": 0,
      "is_motor": true,
      "motor_id": 0,
      "accel_val": 2000,
      "base_duration_us": 461538
    },
    {
      "id": "M_1403",
      "pitch": 77,
      "t_note_us": 126461286,
      "t_trigger_us": 126325323,
      "is_ai": false,
      "track_id": 0,
      "velocity": 0,
      "is_motor": true,
      "motor_id": 2,
      "accel_val": 2000,
      "base_duration_us": 346153
    },
    {
      "id": "M_1404",
      "pitch": 48,
      "t_note_us": 126692055,
      "t_trigger_us": 126556092,
      "is_ai": false,
      "track_id": 0,
      "velocity": 0,
      "is_motor": true,
      "motor_id": 0,
      "accel_val": 2000,
      "base_duration_us": 230768
    },
    {
      "id": "M_1405",
      "pitch": 67,
      "t_note_us": 126807439,
      "t_trigger_us": 126671476,
      "is_ai": false,
      "track_id": 0,
      "velocity": 0,
      "is_motor": true,
      "motor_id": 1,
      "accel_val": 2000,
      "base_duration_us": 230768
    },
    {
      "id": "M_1406",
      "pitch": 60,
      "t_note_us": 126922823,
      "t_trigger_us": 126786860,
      "is_ai": false,
      "track_id": 0,
      "velocity": 0,
      "is_motor": true,
      "motor_id": 0,
      "accel_val": 2000,
      "base_duration_us": 230768
    },
    {
      "id": "M_1407",
      "pitch": 48,
      "t_note_us": 127153591,
      "t_trigger_us": 127017628,
      "is_ai": false,
      "track_id": 0,
      "velocity": 0,
      "is_motor": true,
      "motor_id": 0,
      "accel_val": 2000,
      "base_duration_us": 230769
    },
    {
      "id": "M_1408",
      "pitch": 77,
      "t_note_us": 127153591,
      "t_trigger_us": 127017628,
      "is_ai": false,
      "track_id": 0,
      "velocity": 0,
      "is_motor": true,
      "motor_id": 2,
      "accel_val": 2000,
      "base_duration_us": 230769
    },
    {
      "id": "M_1409",
      "pitch": 76,
      "t_note_us": 127384360,
      "t_trigger_us": 127248397,
      "is_ai": false,
      "track_id": 0,
      "velocity": 0,
      "is_motor": true,
      "motor_id": 2,
      "accel_val": 2000,
      "base_duration_us": 230769
    },
    {
      "id": "M_1411",
      "pitch": 49,
      "t_note_us": 127384360,
      "t_trigger_us": 127248397,
      "is_ai": false,
      "track_id": 0,
      "velocity": 0,
      "is_motor": true,
      "motor_id": 0,
      "accel_val": 2000,
      "base_duration_us": 346153
    },
    {
      "id": "M_1410",
      "pitch": 69,
      "t_note_us": 127615129,
      "t_trigger_us": 127479166,
      "is_ai": false,
      "track_id": 0,
      "velocity": 0,
      "is_motor": true,
      "motor_id": 1,
      "accel_val": 2000,
      "base_duration_us": 115384
    },
    {
      "id": "M_1412",
      "pitch": 76,
      "t_note_us": 127730513,
      "t_trigger_us": 127594550,
      "is_ai": false,
      "track_id": 0,
      "velocity": 0,
      "is_motor": true,
      "motor_id": 2,
      "accel_val": 2000,
      "base_duration_us": 346153
    },
    {
      "id": "M_1413",
      "pitch": 61,
      "t_note_us": 127730513,
      "t_trigger_us": 127594550,
      "is_ai": false,
      "track_id": 0,
      "velocity": 0,
      "is_motor": true,
      "motor_id": 1,
      "accel_val": 2000,
      "base_duration_us": 346153
    },
    {
      "id": "M_1414",
      "pitch": 72,
      "t_note_us": 128076666,
      "t_trigger_us": 127940703,
      "is_ai": false,
      "track_id": 0,
      "velocity": 0,
      "is_motor": true,
      "motor_id": 1,
      "accel_val": 2000,
      "base_duration_us": 230769
    },
    {
      "id": "M_1416",
      "pitch": 50,
      "t_note_us": 128076666,
      "t_trigger_us": 127940703,
      "is_ai": false,
      "track_id": 0,
      "velocity": 0,
      "is_motor": true,
      "motor_id": 0,
      "accel_val": 2000,
      "base_duration_us": 461538
    },
    {
      "id": "M_1415",
      "pitch": 74,
      "t_note_us": 128307435,
      "t_trigger_us": 128171472,
      "is_ai": false,
      "track_id": 0,
      "velocity": 0,
      "is_motor": true,
      "motor_id": 1,
      "accel_val": 2000,
      "base_duration_us": 230769
    },
    {
      "id": "M_1417",
      "pitch": 50,
      "t_note_us": 128538204,
      "t_trigger_us": 128402241,
      "is_ai": false,
      "track_id": 0,
      "velocity": 0,
      "is_motor": true,
      "motor_id": 0,
      "accel_val": 2000,
      "base_duration_us": 230769
    },
    {
      "id": "M_1418",
      "pitch": 74,
      "t_note_us": 128768973,
      "t_trigger_us": 128633010,
      "is_ai": false,
      "track_id": 0,
      "velocity": 0,
      "is_motor": true,
      "motor_id": 1,
      "accel_val": 2000,
      "base_duration_us": 230769
    },
    {
      "id": "M_1419",
      "pitch": 62,
      "t_note_us": 128768973,
      "t_trigger_us": 128633010,
      "is_ai": false,
      "track_id": 0,
      "velocity": 0,
      "is_motor": true,
      "motor_id": 0,
      "accel_val": 2000,
      "base_duration_us": 230769
    },
    {
      "id": "M_1420",
      "pitch": 76,
      "t_note_us": 128999742,
      "t_trigger_us": 128863779,
      "is_ai": false,
      "track_id": 0,
      "velocity": 0,
      "is_motor": true,
      "motor_id": 2,
      "accel_val": 2000,
      "base_duration_us": 230769
    },
    {
      "id": "M_1421",
      "pitch": 50,
      "t_note_us": 128999742,
      "t_trigger_us": 128863779,
      "is_ai": false,
      "track_id": 0,
      "velocity": 0,
      "is_motor": true,
      "motor_id": 0,
      "accel_val": 2000,
      "base_duration_us": 230769
    },
    {
      "id": "M_1422",
      "pitch": 77,
      "t_note_us": 129230511,
      "t_trigger_us": 129094548,
      "is_ai": false,
      "track_id": 0,
      "velocity": 0,
      "is_motor": true,
      "motor_id": 2,
      "accel_val": 2000,
      "base_duration_us": 230769
    },
    {
      "id": "M_1423",
      "pitch": 46,
      "t_note_us": 129230511,
      "t_trigger_us": 129094548,
      "is_ai": false,
      "track_id": 0,
      "velocity": 0,
      "is_motor": true,
      "motor_id": 0,
      "accel_val": 2000,
      "base_duration_us": 346153
    },
    {
      "id": "M_1424",
      "pitch": 67,
      "t_note_us": 129461280,
      "t_trigger_us": 129325317,
      "is_ai": false,
      "track_id": 0,
      "velocity": 0,
      "is_motor": true,
      "motor_id": 1,
      "accel_val": 2000,
      "base_duration_us": 230768
    },
    {
      "id": "M_1426",
      "pitch": 58,
      "t_note_us": 129576664,
      "t_trigger_us": 129440701,
      "is_ai": false,
      "track_id": 0,
      "velocity": 0,
      "is_motor": true,
      "motor_id": 0,
      "accel_val": 2000,
      "base_duration_us": 346153
    },
    {
      "id": "M_1425",
      "pitch": 69,
      "t_note_us": 129692048,
      "t_trigger_us": 129556085,
      "is_ai": false,
      "track_id": 0,
      "velocity": 0,
      "is_motor": true,
      "motor_id": 1,
      "accel_val": 2000,
      "base_duration_us": 230769
    },
    {
      "id": "M_1427",
      "pitch": 67,
      "t_note_us": 129922817,
      "t_trigger_us": 129786854,
      "is_ai": false,
      "track_id": 0,
      "velocity": 0,
      "is_motor": true,
      "motor_id": 1,
      "accel_val": 2000,
      "base_duration_us": 230769
    },
    {
      "id": "M_1428",
      "pitch": 57,
      "t_note_us": 129922817,
      "t_trigger_us": 129786854,
      "is_ai": false,
      "track_id": 0,
      "velocity": 0,
      "is_motor": true,
      "motor_id": 0,
      "accel_val": 2000,
      "base_duration_us": 461538
    },
    {
      "id": "M_1430",
      "pitch": 45,
      "t_note_us": 130384355,
      "t_trigger_us": 130248392,
      "is_ai": false,
      "track_id": 0,
      "velocity": 0,
      "is_motor": true,
      "motor_id": 0,
      "accel_val": 2000,
      "base_duration_us": 230768
    },
    {
      "id": "M_1429",
      "pitch": 72,
      "t_note_us": 130499739,
      "t_trigger_us": 130363776,
      "is_ai": false,
      "track_id": 0,
      "velocity": 0,
      "is_motor": true,
      "motor_id": 1,
      "accel_val": 2000,
      "base_duration_us": 115384
    },
    {
      "id": "M_1431",
      "pitch": 72,
      "t_note_us": 130615123,
      "t_trigger_us": 130479160,
      "is_ai": false,
      "track_id": 0,
      "velocity": 0,
      "is_motor": true,
      "motor_id": 1,
      "accel_val": 2000,
      "base_duration_us": 115384
    },
    {
      "id": "M_1433",
      "pitch": 57,
      "t_note_us": 130615123,
      "t_trigger_us": 130479160,
      "is_ai": false,
      "track_id": 0,
      "velocity": 0,
      "is_motor": true,
      "motor_id": 0,
      "accel_val": 2000,
      "base_duration_us": 230768
    },
    {
      "id": "M_1432",
      "pitch": 72,
      "t_note_us": 130730507,
      "t_trigger_us": 130594544,
      "is_ai": false,
      "track_id": 0,
      "velocity": 0,
      "is_motor": true,
      "motor_id": 1,
      "accel_val": 2000,
      "base_duration_us": 115384
    },
    {
      "id": "M_1434",
      "pitch": 74,
      "t_note_us": 130845891,
      "t_trigger_us": 130709928,
      "is_ai": false,
      "track_id": 0,
      "velocity": 0,
      "is_motor": true,
      "motor_id": 1,
      "accel_val": 2000,
      "base_duration_us": 230769
    },
    {
      "id": "M_1435",
      "pitch": 45,
      "t_note_us": 130845891,
      "t_trigger_us": 130709928,
      "is_ai": false,
      "track_id": 0,
      "velocity": 0,
      "is_motor": true,
      "motor_id": 0,
      "accel_val": 2000,
      "base_duration_us": 230769
    },
    {
      "id": "M_1436",
      "pitch": 50,
      "t_note_us": 131076660,
      "t_trigger_us": 130940697,
      "is_ai": false,
      "track_id": 0,
      "velocity": 0,
      "is_motor": true,
      "motor_id": 0,
      "accel_val": 2000,
      "base_duration_us": 346153
    },
    {
      "id": "M_1437",
      "pitch": 93,
      "t_note_us": 131307429,
      "t_trigger_us": 131171466,
      "is_ai": true,
      "track_id": 8,
      "velocity": 0,
      "is_motor": false,
      "motor_id": 0,
      "accel_val": 2000,
      "base_duration_us": 230768
    },
    {
      "id": "M_1438",
      "pitch": 86,
      "t_note_us": 131307429,
      "t_trigger_us": 131171466,
      "is_ai": true,
      "track_id": 4,
      "velocity": 0,
      "is_motor": false,
      "motor_id": 0,
      "accel_val": 2000,
      "base_duration_us": 230768
    },
    {
      "id": "M_1439",
      "pitch": 98,
      "t_note_us": 131307429,
      "t_trigger_us": 131171466,
      "is_ai": true,
      "track_id": 11,
      "velocity": 0,
      "is_motor": false,
      "motor_id": 0,
      "accel_val": 2000,
      "base_duration_us": 230768
    },
    {
      "id": "M_1443",
      "pitch": 62,
      "t_note_us": 131422813,
      "t_trigger_us": 131286850,
      "is_ai": false,
      "track_id": 0,
      "velocity": 0,
      "is_motor": true,
      "motor_id": 1,
      "accel_val": 2000,
      "base_duration_us": 346152
    },
    {
      "id": "M_1440",
      "pitch": 93,
      "t_note_us": 131653581,
      "t_trigger_us": 131517618,
      "is_ai": true,
      "track_id": 8,
      "velocity": 0,
      "is_motor": false,
      "motor_id": 0,
      "accel_val": 2000,
      "base_duration_us": 115384
    },
    {
      "id": "M_1441",
      "pitch": 98,
      "t_note_us": 131653581,
      "t_trigger_us": 131517618,
      "is_ai": true,
      "track_id": 11,
      "velocity": 0,
      "is_motor": false,
      "motor_id": 0,
      "accel_val": 2000,
      "base_duration_us": 115384
    },
    {
      "id": "M_1442",
      "pitch": 86,
      "t_note_us": 131653581,
      "t_trigger_us": 131517618,
      "is_ai": true,
      "track_id": 4,
      "velocity": 0,
      "is_motor": false,
      "motor_id": 0,
      "accel_val": 2000,
      "base_duration_us": 115384
    },
    {
      "id": "M_1447",
      "pitch": 50,
      "t_note_us": 131768965,
      "t_trigger_us": 131633002,
      "is_ai": false,
      "track_id": 0,
      "velocity": 0,
      "is_motor": true,
      "motor_id": 0,
      "accel_val": 2000,
      "base_duration_us": 461537
    },
    {
      "id": "M_1444",
      "pitch": 86,
      "t_note_us": 131999734,
      "t_trigger_us": 131863771,
      "is_ai": true,
      "track_id": 4,
      "velocity": 0,
      "is_motor": false,
      "motor_id": 0,
      "accel_val": 2000,
      "base_duration_us": 115384
    },
    {
      "id": "M_1445",
      "pitch": 93,
      "t_note_us": 131999734,
      "t_trigger_us": 131863771,
      "is_ai": true,
      "track_id": 8,
      "velocity": 0,
      "is_motor": false,
      "motor_id": 0,
      "accel_val": 2000,
      "base_duration_us": 115384
    },
    {
      "id": "M_1446",
      "pitch": 98,
      "t_note_us": 131999734,
      "t_trigger_us": 131863771,
      "is_ai": true,
      "track_id": 11,
      "velocity": 0,
      "is_motor": false,
      "motor_id": 0,
      "accel_val": 2000,
      "base_duration_us": 115384
    },
    {
      "id": "M_1451",
      "pitch": 50,
      "t_note_us": 132230502,
      "t_trigger_us": 132094539,
      "is_ai": false,
      "track_id": 0,
      "velocity": 0,
      "is_motor": true,
      "motor_id": 0,
      "accel_val": 2000,
      "base_duration_us": 230768
    },
    {
      "id": "M_1448",
      "pitch": 86,
      "t_note_us": 132345886,
      "t_trigger_us": 132209923,
      "is_ai": true,
      "track_id": 4,
      "velocity": 0,
      "is_motor": false,
      "motor_id": 0,
      "accel_val": 2000,
      "base_duration_us": 115384
    },
    {
      "id": "M_1449",
      "pitch": 98,
      "t_note_us": 132345886,
      "t_trigger_us": 132209923,
      "is_ai": true,
      "track_id": 11,
      "velocity": 0,
      "is_motor": false,
      "motor_id": 0,
      "accel_val": 2000,
      "base_duration_us": 115384
    },
    {
      "id": "M_1450",
      "pitch": 93,
      "t_note_us": 132345886,
      "t_trigger_us": 132209923,
      "is_ai": true,
      "track_id": 8,
      "velocity": 0,
      "is_motor": false,
      "motor_id": 0,
      "accel_val": 2000,
      "base_duration_us": 115384
    },
    {
      "id": "M_1452",
      "pitch": 86,
      "t_note_us": 132461270,
      "t_trigger_us": 132325307,
      "is_ai": true,
      "track_id": 4,
      "velocity": 0,
      "is_motor": false,
      "motor_id": 0,
      "accel_val": 2000,
      "base_duration_us": 230769
    },
    {
      "id": "M_1453",
      "pitch": 74,
      "t_note_us": 132461270,
      "t_trigger_us": 132325307,
      "is_ai": false,
      "track_id": 0,
      "velocity": 0,
      "is_motor": true,
      "motor_id": 1,
      "accel_val": 2000,
      "base_duration_us": 230769
    },
    {
      "id": "M_1454",
      "pitch": 62,
      "t_note_us": 132461270,
      "t_trigger_us": 132325307,
      "is_ai": false,
      "track_id": 0,
      "velocity": 0,
      "is_motor": true,
      "motor_id": 0,
      "accel_val": 2000,
      "base_duration_us": 230769
    },
    {
      "id": "M_1455",
      "pitch": 74,
      "t_note_us": 132692039,
      "t_trigger_us": 132556076,
      "is_ai": false,
      "track_id": 0,
      "velocity": 0,
      "is_motor": true,
      "motor_id": 1,
      "accel_val": 2000,
      "base_duration_us": 115384
    },
    {
      "id": "M_1457",
      "pitch": 50,
      "t_note_us": 132692039,
      "t_trigger_us": 132556076,
      "is_ai": false,
      "track_id": 0,
      "velocity": 0,
      "is_motor": true,
      "motor_id": 0,
      "accel_val": 2000,
      "base_duration_us": 230768
    },
    {
      "id": "M_1456",
      "pitch": 74,
      "t_note_us": 132807423,
      "t_trigger_us": 132671460,
      "is_ai": false,
      "track_id": 0,
      "velocity": 0,
      "is_motor": true,
      "motor_id": 1,
      "accel_val": 2000,
      "base_duration_us": 115384
    },
    {
      "id": "M_1458",
      "pitch": 58,
      "t_note_us": 132922807,
      "t_trigger_us": 132786844,
      "is_ai": false,
      "track_id": 0,
      "velocity": 0,
      "is_motor": true,
      "motor_id": 0,
      "accel_val": 2000,
      "base_duration_us": 230769
    },
    {
      "id": "M_1459",
      "pitch": 77,
      "t_note_us": 132922807,
      "t_trigger_us": 132786844,
      "is_ai": false,
      "track_id": 0,
      "velocity": 0,
      "is_motor": true,
      "motor_id": 2,
      "accel_val": 2000,
      "base_duration_us": 230769
    },
    {
      "id": "M_1460",
      "pitch": 77,
      "t_note_us": 133153576,
      "t_trigger_us": 133017613,
      "is_ai": false,
      "track_id": 0,
      "velocity": 0,
      "is_motor": true,
      "motor_id": 2,
      "accel_val": 2000,
      "base_duration_us": 115384
    },
    {
      "id": "M_1462",
      "pitch": 70,
      "t_note_us": 133153576,
      "t_trigger_us": 133017613,
      "is_ai": false,
      "track_id": 0,
      "velocity": 0,
      "is_motor": true,
      "motor_id": 1,
      "accel_val": 2000,
      "base_duration_us": 230768
    },
    {
      "id": "M_1463",
      "pitch": 74,
      "t_note_us": 133153576,
      "t_trigger_us": 133017613,
      "is_ai": false,
      "track_id": 0,
      "velocity": 0,
      "is_motor": true,
      "motor_id": 0,
      "accel_val": 2000,
      "base_duration_us": 230768
    },
    {
      "id": "M_1461",
      "pitch": 77,
      "t_note_us": 133268960,
      "t_trigger_us": 133132997,
      "is_ai": false,
      "track_id": 0,
      "velocity": 0,
      "is_motor": true,
      "motor_id": 2,
      "accel_val": 2000,
      "base_duration_us": 115384
    },
    {
      "id": "M_1464",
      "pitch": 58,
      "t_note_us": 133384344,
      "t_trigger_us": 133248381,
      "is_ai": false,
      "track_id": 0,
      "velocity": 0,
      "is_motor": true,
      "motor_id": 0,
      "accel_val": 2000,
      "base_duration_us": 230769
    },
    {
      "id": "M_1465",
      "pitch": 77,
      "t_note_us": 133384344,
      "t_trigger_us": 133248381,
      "is_ai": false,
      "track_id": 0,
      "velocity": 0,
      "is_motor": true,
      "motor_id": 2,
      "accel_val": 2000,
      "base_duration_us": 230769
    },
    {
      "id": "M_1466",
      "pitch": 77,
      "t_note_us": 133615113,
      "t_trigger_us": 133479150,
      "is_ai": false,
      "track_id": 0,
      "velocity": 0,
      "is_motor": true,
      "motor_id": 2,
      "accel_val": 2000,
      "base_duration_us": 115384
    },
    {
      "id": "M_1468",
      "pitch": 74,
      "t_note_us": 133615113,
      "t_trigger_us": 133479150,
      "is_ai": false,
      "track_id": 0,
      "velocity": 0,
      "is_motor": true,
      "motor_id": 1,
      "accel_val": 2000,
      "base_duration_us": 230768
    },
    {
      "id": "M_1469",
      "pitch": 70,
      "t_note_us": 133615113,
      "t_trigger_us": 133479150,
      "is_ai": false,
      "track_id": 0,
      "velocity": 0,
      "is_motor": true,
      "motor_id": 0,
      "accel_val": 2000,
      "base_duration_us": 230768
    },
    {
      "id": "M_1467",
      "pitch": 77,
      "t_note_us": 133730497,
      "t_trigger_us": 133594534,
      "is_ai": false,
      "track_id": 0,
      "velocity": 0,
      "is_motor": true,
      "motor_id": 2,
      "accel_val": 2000,
      "base_duration_us": 115384
    },
    {
      "id": "M_1470",
      "pitch": 57,
      "t_note_us": 133845881,
      "t_trigger_us": 133709918,
      "is_ai": false,
      "track_id": 0,
      "velocity": 0,
      "is_motor": true,
      "motor_id": 0,
      "accel_val": 2000,
      "base_duration_us": 230769
    },
    {
      "id": "M_1471",
      "pitch": 77,
      "t_note_us": 133845881,
      "t_trigger_us": 133709918,
      "is_ai": false,
      "track_id": 0,
      "velocity": 0,
      "is_motor": true,
      "motor_id": 2,
      "accel_val": 2000,
      "base_duration_us": 230769
    },
    {
      "id": "M_1472",
      "pitch": 77,
      "t_note_us": 134076650,
      "t_trigger_us": 133940687,
      "is_ai": false,
      "track_id": 0,
      "velocity": 0,
      "is_motor": true,
      "motor_id": 2,
      "accel_val": 2000,
      "base_duration_us": 115384
    },
    {
      "id": "M_1474",
      "pitch": 69,
      "t_note_us": 134076650,
      "t_trigger_us": 133940687,
      "is_ai": false,
      "track_id": 0,
      "velocity": 0,
      "is_motor": true,
      "motor_id": 1,
      "accel_val": 2000,
      "base_duration_us": 230768
    },
    {
      "id": "M_1473",
      "pitch": 77,
      "t_note_us": 134192034,
      "t_trigger_us": 134056071,
      "is_ai": false,
      "track_id": 0,
      "velocity": 0,
      "is_motor": true,
      "motor_id": 2,
      "accel_val": 2000,
      "base_duration_us": 115384
    },
    {
      "id": "M_1475",
      "pitch": 57,
      "t_note_us": 134307418,
      "t_trigger_us": 134171455,
      "is_ai": false,
      "track_id": 0,
      "velocity": 0,
      "is_motor": true,
      "motor_id": 0,
      "accel_val": 2000,
      "base_duration_us": 230769
    },
    {
      "id": "M_1476",
      "pitch": 77,
      "t_note_us": 134307418,
      "t_trigger_us": 134171455,
      "is_ai": false,
      "track_id": 0,
      "velocity": 0,
      "is_motor": true,
      "motor_id": 2,
      "accel_val": 2000,
      "base_duration_us": 230769
    },
    {
      "id": "M_1477",
      "pitch": 77,
      "t_note_us": 134538187,
      "t_trigger_us": 134402224,
      "is_ai": false,
      "track_id": 0,
      "velocity": 0,
      "is_motor": true,
      "motor_id": 2,
      "accel_val": 2000,
      "base_duration_us": 115384
    },
    {
      "id": "M_1479",
      "pitch": 69,
      "t_note_us": 134538187,
      "t_trigger_us": 134402224,
      "is_ai": false,
      "track_id": 0,
      "velocity": 0,
      "is_motor": true,
      "motor_id": 1,
      "accel_val": 2000,
      "base_duration_us": 230768
    },
    {
      "id": "M_1478",
      "pitch": 77,
      "t_note_us": 134653571,
      "t_trigger_us": 134517608,
      "is_ai": false,
      "track_id": 0,
      "velocity": 0,
      "is_motor": true,
      "motor_id": 2,
      "accel_val": 2000,
      "base_duration_us": 115384
    },
    {
      "id": "M_1480",
      "pitch": 50,
      "t_note_us": 134768955,
      "t_trigger_us": 134632992,
      "is_ai": false,
      "track_id": 0,
      "velocity": 0,
      "is_motor": true,
      "motor_id": 0,
      "accel_val": 2000,
      "base_duration_us": 230769
    },
    {
      "id": "M_1481",
      "pitch": 77,
      "t_note_us": 134768955,
      "t_trigger_us": 134632992,
      "is_ai": false,
      "track_id": 0,
      "velocity": 0,
      "is_motor": true,
      "motor_id": 2,
      "accel_val": 2000,
      "base_duration_us": 346153
    },
    {
      "id": "M_1482",
      "pitch": 62,
      "t_note_us": 134999724,
      "t_trigger_us": 134863761,
      "is_ai": false,
      "track_id": 0,
      "velocity": 0,
      "is_motor": true,
      "motor_id": 1,
      "accel_val": 2000,
      "base_duration_us": 230768
    },
    {
      "id": "M_1483",
      "pitch": 65,
      "t_note_us": 134999724,
      "t_trigger_us": 134863761,
      "is_ai": false,
      "track_id": 0,
      "velocity": 0,
      "is_motor": true,
      "motor_id": 0,
      "accel_val": 2000,
      "base_duration_us": 230768
    },
    {
      "id": "M_1484",
      "pitch": 77,
      "t_note_us": 135115108,
      "t_trigger_us": 134979145,
      "is_ai": false,
      "track_id": 0,
      "velocity": 0,
      "is_motor": true,
      "motor_id": 2,
      "accel_val": 2000,
      "base_duration_us": 230768
    },
    {
      "id": "M_1486",
      "pitch": 50,
      "t_note_us": 135230492,
      "t_trigger_us": 135094529,
      "is_ai": false,
      "track_id": 0,
      "velocity": 0,
      "is_motor": true,
      "motor_id": 0,
      "accel_val": 2000,
      "base_duration_us": 230768
    },
    {
      "id": "M_1485",
      "pitch": 77,
      "t_note_us": 135345876,
      "t_trigger_us": 135209913,
      "is_ai": false,
      "track_id": 0,
      "velocity": 0,
      "is_motor": true,
      "motor_id": 2,
      "accel_val": 2000,
      "base_duration_us": 115384
    },
    {
      "id": "M_1487",
      "pitch": 62,
      "t_note_us": 135461260,
      "t_trigger_us": 135325297,
      "is_ai": false,
      "track_id": 0,
      "velocity": 0,
      "is_motor": true,
      "motor_id": 1,
      "accel_val": 2000,
      "base_duration_us": 230769
    },
    {
      "id": "M_1488",
      "pitch": 65,
      "t_note_us": 135461260,
      "t_trigger_us": 135325297,
      "is_ai": false,
      "track_id": 0,
      "velocity": 0,
      "is_motor": true,
      "motor_id": 0,
      "accel_val": 2000,
      "base_duration_us": 230769
    },
    {
      "id": "M_1489",
      "pitch": 77,
      "t_note_us": 135461260,
      "t_trigger_us": 135325297,
      "is_ai": false,
      "track_id": 0,
      "velocity": 0,
      "is_motor": true,
      "motor_id": 2,
      "accel_val": 2000,
      "base_duration_us": 230769
    },
    {
      "id": "M_1490",
      "pitch": 48,
      "t_note_us": 135692029,
      "t_trigger_us": 135556066,
      "is_ai": false,
      "track_id": 0,
      "velocity": 0,
      "is_motor": true,
      "motor_id": 0,
      "accel_val": 2000,
      "base_duration_us": 230769
    },
    {
      "id": "M_1491",
      "pitch": 74,
      "t_note_us": 135692029,
      "t_trigger_us": 135556066,
      "is_ai": false,
      "track_id": 0,
      "velocity": 0,
      "is_motor": true,
      "motor_id": 1,
      "accel_val": 2000,
      "base_duration_us": 230769
    },
    {
      "id": "M_1492",
      "pitch": 60,
      "t_note_us": 135922798,
      "t_trigger_us": 135786835,
      "is_ai": false,
      "track_id": 0,
      "velocity": 0,
      "is_motor": true,
      "motor_id": 1,
      "accel_val": 2000,
      "base_duration_us": 230769
    },
    {
      "id": "M_1493",
      "pitch": 64,
      "t_note_us": 135922798,
      "t_trigger_us": 135786835,
      "is_ai": false,
      "track_id": 0,
      "velocity": 0,
      "is_motor": true,
      "motor_id": 0,
      "accel_val": 2000,
      "base_duration_us": 230769
    },
    {
      "id": "M_1494",
      "pitch": 74,
      "t_note_us": 136153567,
      "t_trigger_us": 136017604,
      "is_ai": false,
      "track_id": 0,
      "velocity": 0,
      "is_motor": true,
      "motor_id": 1,
      "accel_val": 2000,
      "base_duration_us": 115384
    },
    {
      "id": "M_1496",
      "pitch": 48,
      "t_note_us": 136153567,
      "t_trigger_us": 136017604,
      "is_ai": false,
      "track_id": 0,
      "velocity": 0,
      "is_motor": true,
      "motor_id": 0,
      "accel_val": 2000,
      "base_duration_us": 230768
    },
    {
      "id": "M_1495",
      "pitch": 74,
      "t_note_us": 136268951,
      "t_trigger_us": 136132988,
      "is_ai": false,
      "track_id": 0,
      "velocity": 0,
      "is_motor": true,
      "motor_id": 1,
      "accel_val": 2000,
      "base_duration_us": 115384
    },
    {
      "id": "M_1497",
      "pitch": 74,
      "t_note_us": 136384335,
      "t_trigger_us": 136248372,
      "is_ai": false,
      "track_id": 0,
      "velocity": 0,
      "is_motor": true,
      "motor_id": 1,
      "accel_val": 2000,
      "base_duration_us": 115384
    },
    {
      "id": "M_1499",
      "pitch": 60,
      "t_note_us": 136384335,
      "t_trigger_us": 136248372,
      "is_ai": false,
      "track_id": 0,
      "velocity": 0,
      "is_motor": true,
      "motor_id": 0,
      "accel_val": 2000,
      "base_duration_us": 230768
    },
    {
      "id": "M_1500",
      "pitch": 64,
      "t_note_us": 136384335,
      "t_trigger_us": 136248372,
      "is_ai": false,
      "track_id": 0,
      "velocity": 0,
      "is_motor": true,
      "motor_id": 2,
      "accel_val": 2000,
      "base_duration_us": 230768
    },
    {
      "id": "M_1498",
      "pitch": 74,
      "t_note_us": 136499719,
      "t_trigger_us": 136363756,
      "is_ai": false,
      "track_id": 0,
      "velocity": 0,
      "is_motor": true,
      "motor_id": 1,
      "accel_val": 2000,
      "base_duration_us": 115384
    },
    {
      "id": "M_1501",
      "pitch": 77,
      "t_note_us": 136615103,
      "t_trigger_us": 136479140,
      "is_ai": false,
      "track_id": 0,
      "velocity": 0,
      "is_motor": true,
      "motor_id": 2,
      "accel_val": 2000,
      "base_duration_us": 230769
    },
    {
      "id": "M_1502",
      "pitch": 58,
      "t_note_us": 136615103,
      "t_trigger_us": 136479140,
      "is_ai": false,
      "track_id": 0,
      "velocity": 0,
      "is_motor": true,
      "motor_id": 0,
      "accel_val": 2000,
      "base_duration_us": 230769
    },
    {
      "id": "M_1503",
      "pitch": 77,
      "t_note_us": 136845872,
      "t_trigger_us": 136709909,
      "is_ai": false,
      "track_id": 0,
      "velocity": 0,
      "is_motor": true,
      "motor_id": 2,
      "accel_val": 2000,
      "base_duration_us": 115384
    },
    {
      "id": "M_1505",
      "pitch": 74,
      "t_note_us": 136845872,
      "t_trigger_us": 136709909,
      "is_ai": false,
      "track_id": 0,
      "velocity": 0,
      "is_motor": true,
      "motor_id": 1,
      "accel_val": 2000,
      "base_duration_us": 230768
    },
    {
      "id": "M_1506",
      "pitch": 70,
      "t_note_us": 136845872,
      "t_trigger_us": 136709909,
      "is_ai": false,
      "track_id": 0,
      "velocity": 0,
      "is_motor": true,
      "motor_id": 0,
      "accel_val": 2000,
      "base_duration_us": 230768
    },
    {
      "id": "M_1504",
      "pitch": 77,
      "t_note_us": 136961256,
      "t_trigger_us": 136825293,
      "is_ai": false,
      "track_id": 0,
      "velocity": 0,
      "is_motor": true,
      "motor_id": 2,
      "accel_val": 2000,
      "base_duration_us": 115384
    },
    {
      "id": "M_1507",
      "pitch": 77,
      "t_note_us": 137076640,
      "t_trigger_us": 136940677,
      "is_ai": false,
      "track_id": 0,
      "velocity": 0,
      "is_motor": true,
      "motor_id": 2,
      "accel_val": 2000,
      "base_duration_us": 115384
    },
    {
      "id": "M_1509",
      "pitch": 58,
      "t_note_us": 137076640,
      "t_trigger_us": 136940677,
      "is_ai": false,
      "track_id": 0,
      "velocity": 0,
      "is_motor": true,
      "motor_id": 0,
      "accel_val": 2000,
      "base_duration_us": 230768
    },
    {
      "id": "M_1508",
      "pitch": 77,
      "t_note_us": 137192024,
      "t_trigger_us": 137056061,
      "is_ai": false,
      "track_id": 0,
      "velocity": 0,
      "is_motor": true,
      "motor_id": 2,
      "accel_val": 2000,
      "base_duration_us": 115384
    },
    {
      "id": "M_1510",
      "pitch": 77,
      "t_note_us": 137307408,
      "t_trigger_us": 137171445,
      "is_ai": false,
      "track_id": 0,
      "velocity": 0,
      "is_motor": true,
      "motor_id": 2,
      "accel_val": 2000,
      "base_duration_us": 115384
    },
    {
      "id": "M_1511",
      "pitch": 74,
      "t_note_us": 137307408,
      "t_trigger_us": 137171445,
      "is_ai": false,
      "track_id": 0,
      "velocity": 0,
      "is_motor": true,
      "motor_id": 1,
      "accel_val": 2000,
      "base_duration_us": 230768
    },
    {
      "id": "M_1512",
      "pitch": 70,
      "t_note_us": 137307408,
      "t_trigger_us": 137171445,
      "is_ai": false,
      "track_id": 0,
      "velocity": 0,
      "is_motor": true,
      "motor_id": 0,
      "accel_val": 2000,
      "base_duration_us": 230768
    },
    {
      "id": "M_1513",
      "pitch": 77,
      "t_note_us": 137422792,
      "t_trigger_us": 137286829,
      "is_ai": false,
      "track_id": 0,
      "velocity": 0,
      "is_motor": true,
      "motor_id": 2,
      "accel_val": 2000,
      "base_duration_us": 230768
    },
    {
      "id": "M_1515",
      "pitch": 57,
      "t_note_us": 137538176,
      "t_trigger_us": 137402213,
      "is_ai": false,
      "track_id": 0,
      "velocity": 0,
      "is_motor": true,
      "motor_id": 0,
      "accel_val": 2000,
      "base_duration_us": 230768
    },
    {
      "id": "M_1514",
      "pitch": 77,
      "t_note_us": 137653560,
      "t_trigger_us": 137517597,
      "is_ai": false,
      "track_id": 0,
      "velocity": 0,
      "is_motor": true,
      "motor_id": 2,
      "accel_val": 2000,
      "base_duration_us": 115384
    },
    {
      "id": "M_1516",
      "pitch": 77,
      "t_note_us": 137768944,
      "t_trigger_us": 137632981,
      "is_ai": false,
      "track_id": 0,
      "velocity": 0,
      "is_motor": true,
      "motor_id": 2,
      "accel_val": 2000,
      "base_duration_us": 115384
    },
    {
      "id": "M_1518",
      "pitch": 69,
      "t_note_us": 137768944,
      "t_trigger_us": 137632981,
      "is_ai": false,
      "track_id": 0,
      "velocity": 0,
      "is_motor": true,
      "motor_id": 1,
      "accel_val": 2000,
      "base_duration_us": 230768
    },
    {
      "id": "M_1517",
      "pitch": 77,
      "t_note_us": 137884328,
      "t_trigger_us": 137748365,
      "is_ai": false,
      "track_id": 0,
      "velocity": 0,
      "is_motor": true,
      "motor_id": 2,
      "accel_val": 2000,
      "base_duration_us": 115384
    },
    {
      "id": "M_1519",
      "pitch": 77,
      "t_note_us": 137999712,
      "t_trigger_us": 137863749,
      "is_ai": false,
      "track_id": 0,
      "velocity": 0,
      "is_motor": true,
      "motor_id": 2,
      "accel_val": 2000,
      "base_duration_us": 230769
    },
    {
      "id": "M_1520",
      "pitch": 57,
      "t_note_us": 137999712,
      "t_trigger_us": 137863749,
      "is_ai": false,
      "track_id": 0,
      "velocity": 0,
      "is_motor": true,
      "motor_id": 0,
      "accel_val": 2000,
      "base_duration_us": 230769
    },
    {
      "id": "M_1521",
      "pitch": 77,
      "t_note_us": 138230481,
      "t_trigger_us": 138094518,
      "is_ai": false,
      "track_id": 0,
      "velocity": 0,
      "is_motor": true,
      "motor_id": 2,
      "accel_val": 2000,
      "base_duration_us": 115384
    },
    {
      "id": "M_1523",
      "pitch": 69,
      "t_note_us": 138230481,
      "t_trigger_us": 138094518,
      "is_ai": false,
      "track_id": 0,
      "velocity": 0,
      "is_motor": true,
      "motor_id": 1,
      "accel_val": 2000,
      "base_duration_us": 230768
    },
    {
      "id": "M_1522",
      "pitch": 74,
      "t_note_us": 138345865,
      "t_trigger_us": 138209902,
      "is_ai": false,
      "track_id": 0,
      "velocity": 0,
      "is_motor": true,
      "motor_id": 0,
      "accel_val": 2000,
      "base_duration_us": 115384
    },
    {
      "id": "M_1524",
      "pitch": 50,
      "t_note_us": 138461249,
      "t_trigger_us": 138325286,
      "is_ai": false,
      "track_id": 0,
      "velocity": 0,
      "is_motor": true,
      "motor_id": 0,
      "accel_val": 2000,
      "base_duration_us": 230769
    },
    {
      "id": "M_1525",
      "pitch": 77,
      "t_note_us": 138461249,
      "t_trigger_us": 138325286,
      "is_ai": false,
      "track_id": 0,
      "velocity": 0,
      "is_motor": true,
      "motor_id": 2,
      "accel_val": 2000,
      "base_duration_us": 230769
    },
    {
      "id": "M_1526",
      "pitch": 74,
      "t_note_us": 138692018,
      "t_trigger_us": 138556055,
      "is_ai": false,
      "track_id": 0,
      "velocity": 0,
      "is_motor": true,
      "motor_id": 1,
      "accel_val": 2000,
      "base_duration_us": 115384
    },
    {
      "id": "M_1527",
      "pitch": 62,
      "t_note_us": 138692018,
      "t_trigger_us": 138556055,
      "is_ai": false,
      "track_id": 0,
      "velocity": 0,
      "is_motor": true,
      "motor_id": 0,
      "accel_val": 2000,
      "base_duration_us": 230768
    },
    {
      "id": "M_1528",
      "pitch": 65,
      "t_note_us": 138692018,
      "t_trigger_us": 138556055,
      "is_ai": false,
      "track_id": 0,
      "velocity": 0,
      "is_motor": true,
      "motor_id": 2,
      "accel_val": 2000,
      "base_duration_us": 230768
    },
    {
      "id": "M_1529",
      "pitch": 77,
      "t_note_us": 138807402,
      "t_trigger_us": 138671439,
      "is_ai": false,
      "track_id": 0,
      "velocity": 0,
      "is_motor": true,
      "motor_id": 1,
      "accel_val": 2000,
      "base_duration_us": 230768
    },
    {
      "id": "M_1531",
      "pitch": 50,
      "t_note_us": 138922786,
      "t_trigger_us": 138786823,
      "is_ai": false,
      "track_id": 0,
      "velocity": 0,
      "is_motor": true,
      "motor_id": 0,
      "accel_val": 2000,
      "base_duration_us": 230768
    },
    {
      "id": "M_1530",
      "pitch": 74,
      "t_note_us": 139038170,
      "t_trigger_us": 138902207,
      "is_ai": false,
      "track_id": 0,
      "velocity": 0,
      "is_motor": true,
      "motor_id": 1,
      "accel_val": 2000,
      "base_duration_us": 115384
    },
    {
      "id": "M_1533",
      "pitch": 86,
      "t_note_us": 139153554,
      "t_trigger_us": 139017591,
      "is_ai": true,
      "track_id": 4,
      "velocity": 0,
      "is_motor": false,
      "motor_id": 0,
      "accel_val": 2000,
      "base_duration_us": 230769
    },
    {
      "id": "M_1532",
      "pitch": 62,
      "t_note_us": 139153554,
      "t_trigger_us": 139017591,
      "is_ai": false,
      "track_id": 0,
      "velocity": 0,
      "is_motor": true,
      "motor_id": 1,
      "accel_val": 2000,
      "base_duration_us": 230769
    },
    {
      "id": "M_1534",
      "pitch": 65,
      "t_note_us": 139153554,
      "t_trigger_us": 139017591,
      "is_ai": false,
      "track_id": 0,
      "velocity": 0,
      "is_motor": true,
      "motor_id": 0,
      "accel_val": 2000,
      "base_duration_us": 230769
    },
    {
      "id": "M_1536",
      "pitch": 84,
      "t_note_us": 139384323,
      "t_trigger_us": 139248360,
      "is_ai": true,
      "track_id": 3,
      "velocity": 0,
      "is_motor": false,
      "motor_id": 0,
      "accel_val": 2000,
      "base_duration_us": 346153
    },
    {
      "id": "M_1535",
      "pitch": 51,
      "t_note_us": 139384323,
      "t_trigger_us": 139248360,
      "is_ai": false,
      "track_id": 0,
      "velocity": 0,
      "is_motor": true,
      "motor_id": 0,
      "accel_val": 2000,
      "base_duration_us": 230769
    },
    {
      "id": "M_1538",
      "pitch": 51,
      "t_note_us": 139615092,
      "t_trigger_us": 139479129,
      "is_ai": false,
      "track_id": 0,
      "velocity": 0,
      "is_motor": true,
      "motor_id": 0,
      "accel_val": 2000,
      "base_duration_us": 230768
    },
    {
      "id": "M_1537",
      "pitch": 77,
      "t_note_us": 139730476,
      "t_trigger_us": 139594513,
      "is_ai": false,
      "track_id": 0,
      "velocity": 0,
      "is_motor": true,
      "motor_id": 2,
      "accel_val": 2000,
      "base_duration_us": 115384
    },
    {
      "id": "M_1539",
      "pitch": 81,
      "t_note_us": 139845860,
      "t_trigger_us": 139709897,
      "is_ai": true,
      "track_id": 1,
      "velocity": 0,
      "is_motor": false,
      "motor_id": 0,
      "accel_val": 2000,
      "base_duration_us": 115384
    },
    {
      "id": "M_1541",
      "pitch": 53,
      "t_note_us": 139845860,
      "t_trigger_us": 139709897,
      "is_ai": false,
      "track_id": 0,
      "velocity": 0,
      "is_motor": true,
      "motor_id": 0,
      "accel_val": 2000,
      "base_duration_us": 230768
    },
    {
      "id": "M_1540",
      "pitch": 82,
      "t_note_us": 139961244,
      "t_trigger_us": 139825281,
      "is_ai": true,
      "track_id": 0,
      "velocity": 0,
      "is_motor": true,
      "motor_id": 2,
      "accel_val": 2000,
      "base_duration_us": 115384
    },
    {
      "id": "M_1542",
      "pitch": 84,
      "t_note_us": 140076628,
      "t_trigger_us": 139940665,
      "is_ai": true,
      "track_id": 3,
      "velocity": 0,
      "is_motor": false,
      "motor_id": 0,
      "accel_val": 2000,
      "base_duration_us": 115384
    },
    {
      "id": "M_1543",
      "pitch": 53,
      "t_note_us": 140076628,
      "t_trigger_us": 139940665,
      "is_ai": false,
      "track_id": 0,
      "velocity": 0,
      "is_motor": true,
      "motor_id": 0,
      "accel_val": 2000,
      "base_duration_us": 230768
    },
    {
      "id": "M_1545",
      "pitch": 79,
      "t_note_us": 140192012,
      "t_trigger_us": 140056049,
      "is_ai": true,
      "track_id": 0,
      "velocity": 0,
      "is_motor": false,
      "motor_id": 0,
      "accel_val": 2000,
      "base_duration_us": 346153
    },
    {
      "id": "M_1544",
      "pitch": 46,
      "t_note_us": 140307396,
      "t_trigger_us": 140171433,
      "is_ai": false,
      "track_id": 0,
      "velocity": 0,
      "is_motor": true,
      "motor_id": 0,
      "accel_val": 2000,
      "base_duration_us": 230769
    },
    {
      "id": "M_1546",
      "pitch": 77,
      "t_note_us": 140538165,
      "t_trigger_us": 140402202,
      "is_ai": false,
      "track_id": 0,
      "velocity": 0,
      "is_motor": true,
      "motor_id": 2,
      "accel_val": 2000,
      "base_duration_us": 115384
    },
    {
      "id": "M_1548",
      "pitch": 58,
      "t_note_us": 140538165,
      "t_trigger_us": 140402202,
      "is_ai": false,
      "track_id": 0,
      "velocity": 0,
      "is_motor": true,
      "motor_id": 0,
      "accel_val": 2000,
      "base_duration_us": 230768
    },
    {
      "id": "M_1547",
      "pitch": 77,
      "t_note_us": 140653549,
      "t_trigger_us": 140517586,
      "is_ai": false,
      "track_id": 0,
      "velocity": 0,
      "is_motor": true,
      "motor_id": 2,
      "accel_val": 2000,
      "base_duration_us": 115384
    },
    {
      "id": "M_1549",
      "pitch": 69,
      "t_note_us": 140768933,
      "t_trigger_us": 140632970,
      "is_ai": false,
      "track_id": 0,
      "velocity": 0,
      "is_motor": true,
      "motor_id": 1,
      "accel_val": 2000,
      "base_duration_us": 115384
    },
    {
      "id": "M_1551",
      "pitch": 46,
      "t_note_us": 140768933,
      "t_trigger_us": 140632970,
      "is_ai": false,
      "track_id": 0,
      "velocity": 0,
      "is_motor": true,
      "motor_id": 0,
      "accel_val": 2000,
      "base_duration_us": 230768
    },
    {
      "id": "M_1550",
      "pitch": 82,
      "t_note_us": 140884317,
      "t_trigger_us": 140748354,
      "is_ai": true,
      "track_id": 0,
      "velocity": 0,
      "is_motor": true,
      "motor_id": 2,
      "accel_val": 2000,
      "base_duration_us": 115384
    },
    {
      "id": "M_1552",
      "pitch": 84,
      "t_note_us": 140999701,
      "t_trigger_us": 140863738,
      "is_ai": true,
      "track_id": 3,
      "velocity": 0,
      "is_motor": false,
      "motor_id": 0,
      "accel_val": 2000,
      "base_duration_us": 115384
    },
    {
      "id": "M_1553",
      "pitch": 58,
      "t_note_us": 140999701,
      "t_trigger_us": 140863738,
      "is_ai": false,
      "track_id": 0,
      "velocity": 0,
      "is_motor": true,
      "motor_id": 0,
      "accel_val": 2000,
      "base_duration_us": 230768
    },
    {
      "id": "M_1555",
      "pitch": 79,
      "t_note_us": 141115085,
      "t_trigger_us": 140979122,
      "is_ai": true,
      "track_id": 0,
      "velocity": 0,
      "is_motor": false,
      "motor_id": 0,
      "accel_val": 2000,
      "base_duration_us": 346153
    },
    {
      "id": "M_1554",
      "pitch": 48,
      "t_note_us": 141230469,
      "t_trigger_us": 141094506,
      "is_ai": false,
      "track_id": 0,
      "velocity": 0,
      "is_motor": true,
      "motor_id": 0,
      "accel_val": 2000,
      "base_duration_us": 230769
    },
    {
      "id": "M_1556",
      "pitch": 77,
      "t_note_us": 141461238,
      "t_trigger_us": 141325275,
      "is_ai": false,
      "track_id": 0,
      "velocity": 0,
      "is_motor": true,
      "motor_id": 2,
      "accel_val": 2000,
      "base_duration_us": 115384
    },
    {
      "id": "M_1558",
      "pitch": 60,
      "t_note_us": 141461238,
      "t_trigger_us": 141325275,
      "is_ai": false,
      "track_id": 0,
      "velocity": 0,
      "is_motor": true,
      "motor_id": 1,
      "accel_val": 2000,
      "base_duration_us": 230768
    },
    {
      "id": "M_1557",
      "pitch": 77,
      "t_note_us": 141576622,
      "t_trigger_us": 141440659,
      "is_ai": false,
      "track_id": 0,
      "velocity": 0,
      "is_motor": true,
      "motor_id": 2,
      "accel_val": 2000,
      "base_duration_us": 115384
    },
    {
      "id": "M_1559",
      "pitch": 81,
      "t_note_us": 141692006,
      "t_trigger_us": 141556043,
      "is_ai": true,
      "track_id": 1,
      "velocity": 0,
      "is_motor": false,
      "motor_id": 0,
      "accel_val": 2000,
      "base_duration_us": 115384
    },
    {
      "id": "M_1561",
      "pitch": 48,
      "t_note_us": 141692006,
      "t_trigger_us": 141556043,
      "is_ai": false,
      "track_id": 0,
      "velocity": 0,
      "is_motor": true,
      "motor_id": 0,
      "accel_val": 2000,
      "base_duration_us": 230768
    },
    {
      "id": "M_1560",
      "pitch": 82,
      "t_note_us": 141807390,
      "t_trigger_us": 141671427,
      "is_ai": true,
      "track_id": 0,
      "velocity": 0,
      "is_motor": true,
      "motor_id": 2,
      "accel_val": 2000,
      "base_duration_us": 115384
    },
    {
      "id": "M_1562",
      "pitch": 84,
      "t_note_us": 141922774,
      "t_trigger_us": 141786811,
      "is_ai": true,
      "track_id": 3,
      "velocity": 0,
      "is_motor": false,
      "motor_id": 0,
      "accel_val": 2000,
      "base_duration_us": 115384
    },
    {
      "id": "M_1563",
      "pitch": 60,
      "t_note_us": 141922774,
      "t_trigger_us": 141786811,
      "is_ai": false,
      "track_id": 0,
      "velocity": 0,
      "is_motor": true,
      "motor_id": 1,
      "accel_val": 2000,
      "base_duration_us": 230768
    },
    {
      "id": "M_1565",
      "pitch": 67,
      "t_note_us": 142038158,
      "t_trigger_us": 141902195,
      "is_ai": false,
      "track_id": 0,
      "velocity": 0,
      "is_motor": true,
      "motor_id": 2,
      "accel_val": 2000,
      "base_duration_us": 346153
    },
    {
      "id": "M_1564",
      "pitch": 49,
      "t_note_us": 142153542,
      "t_trigger_us": 142017579,
      "is_ai": false,
      "track_id": 0,
      "velocity": 0,
      "is_motor": true,
      "motor_id": 0,
      "accel_val": 2000,
      "base_duration_us": 230769
    },
    {
      "id": "M_1566",
      "pitch": 61,
      "t_note_us": 142384311,
      "t_trigger_us": 142248348,
      "is_ai": false,
      "track_id": 0,
      "velocity": 0,
      "is_motor": true,
      "motor_id": 1,
      "accel_val": 2000,
      "base_duration_us": 230769
    },
    {
      "id": "M_1567",
      "pitch": 77,
      "t_note_us": 142384311,
      "t_trigger_us": 142248348,
      "is_ai": false,
      "track_id": 0,
      "velocity": 0,
      "is_motor": true,
      "motor_id": 2,
      "accel_val": 2000,
      "base_duration_us": 230769
    },
    {
      "id": "M_1569",
      "pitch": 81,
      "t_note_us": 142615080,
      "t_trigger_us": 142479117,
      "is_ai": true,
      "track_id": 1,
      "velocity": 0,
      "is_motor": false,
      "motor_id": 0,
      "accel_val": 2000,
      "base_duration_us": 230769
    },
    {
      "id": "M_1568",
      "pitch": 49,
      "t_note_us": 142615080,
      "t_trigger_us": 142479117,
      "is_ai": false,
      "track_id": 0,
      "velocity": 0,
      "is_motor": true,
      "motor_id": 0,
      "accel_val": 2000,
      "base_duration_us": 230769
    },
    {
      "id": "M_1571",
      "pitch": 84,
      "t_note_us": 142845849,
      "t_trigger_us": 142709886,
      "is_ai": true,
      "track_id": 3,
      "velocity": 0,
      "is_motor": false,
      "motor_id": 0,
      "accel_val": 2000,
      "base_duration_us": 230769
    },
    {
      "id": "M_1570",
      "pitch": 61,
      "t_note_us": 142845849,
      "t_trigger_us": 142709886,
      "is_ai": false,
      "track_id": 0,
      "velocity": 0,
      "is_motor": true,
      "motor_id": 1,
      "accel_val": 2000,
      "base_duration_us": 230769
    },
    {
      "id": "M_1572",
      "pitch": 86,
      "t_note_us": 143076618,
      "t_trigger_us": 142940655,
      "is_ai": true,
      "track_id": 4,
      "velocity": 0,
      "is_motor": false,
      "motor_id": 0,
      "accel_val": 2000,
      "base_duration_us": 230769
    },
    {
      "id": "M_1573",
      "pitch": 50,
      "t_note_us": 143076618,
      "t_trigger_us": 142940655,
      "is_ai": false,
      "track_id": 0,
      "velocity": 0,
      "is_motor": true,
      "motor_id": 0,
      "accel_val": 2000,
      "base_duration_us": 230769
    },
    {
      "id": "M_1574",
      "pitch": 84,
      "t_note_us": 143307387,
      "t_trigger_us": 143171424,
      "is_ai": true,
      "track_id": 3,
      "velocity": 0,
      "is_motor": false,
      "motor_id": 0,
      "accel_val": 2000,
      "base_duration_us": 230769
    },
    {
      "id": "M_1575",
      "pitch": 62,
      "t_note_us": 143307387,
      "t_trigger_us": 143171424,
      "is_ai": false,
      "track_id": 0,
      "velocity": 0,
      "is_motor": true,
      "motor_id": 1,
      "accel_val": 2000,
      "base_duration_us": 230769
    },
    {
      "id": "M_1577",
      "pitch": 81,
      "t_note_us": 143538156,
      "t_trigger_us": 143402193,
      "is_ai": true,
      "track_id": 1,
      "velocity": 0,
      "is_motor": false,
      "motor_id": 0,
      "accel_val": 2000,
      "base_duration_us": 230769
    },
    {
      "id": "M_1576",
      "pitch": 50,
      "t_note_us": 143538156,
      "t_trigger_us": 143402193,
      "is_ai": false,
      "track_id": 0,
      "velocity": 0,
      "is_motor": true,
      "motor_id": 0,
      "accel_val": 2000,
      "base_duration_us": 230769
    },
    {
      "id": "M_1579",
      "pitch": 79,
      "t_note_us": 143768925,
      "t_trigger_us": 143632962,
      "is_ai": true,
      "track_id": 0,
      "velocity": 0,
      "is_motor": false,
      "motor_id": 0,
      "accel_val": 2000,
      "base_duration_us": 230769
    },
    {
      "id": "M_1578",
      "pitch": 62,
      "t_note_us": 143768925,
      "t_trigger_us": 143632962,
      "is_ai": false,
      "track_id": 0,
      "velocity": 0,
      "is_motor": true,
      "motor_id": 1,
      "accel_val": 2000,
      "base_duration_us": 230769
    },
    {
      "id": "M_1580",
      "pitch": 46,
      "t_note_us": 143999694,
      "t_trigger_us": 143863731,
      "is_ai": false,
      "track_id": 0,
      "velocity": 0,
      "is_motor": true,
      "motor_id": 0,
      "accel_val": 2000,
      "base_duration_us": 230769
    },
    {
      "id": "M_1582",
      "pitch": 77,
      "t_note_us": 143999694,
      "t_trigger_us": 143863731,
      "is_ai": false,
      "track_id": 0,
      "velocity": 0,
      "is_motor": true,
      "motor_id": 2,
      "accel_val": 2000,
      "base_duration_us": 461538
    },
    {
      "id": "M_1581",
      "pitch": 46,
      "t_note_us": 144230463,
      "t_trigger_us": 144094500,
      "is_ai": false,
      "track_id": 0,
      "velocity": 0,
      "is_motor": true,
      "motor_id": 0,
      "accel_val": 2000,
      "base_duration_us": 230769
    },
    {
      "id": "M_1583",
      "pitch": 86,
      "t_note_us": 144461232,
      "t_trigger_us": 144325269,
      "is_ai": true,
      "track_id": 4,
      "velocity": 0,
      "is_motor": false,
      "motor_id": 0,
      "accel_val": 2000,
      "base_duration_us": 230769
    },
    {
      "id": "M_1584",
      "pitch": 46,
      "t_note_us": 144461232,
      "t_trigger_us": 144325269,
      "is_ai": false,
      "track_id": 0,
      "velocity": 0,
      "is_motor": true,
      "motor_id": 0,
      "accel_val": 2000,
      "base_duration_us": 230769
    },
    {
      "id": "M_1585",
      "pitch": 77,
      "t_note_us": 144692001,
      "t_trigger_us": 144556038,
      "is_ai": false,
      "track_id": 0,
      "velocity": 0,
      "is_motor": true,
      "motor_id": 2,
      "accel_val": 2000,
      "base_duration_us": 230769
    },
    {
      "id": "M_1586",
      "pitch": 46,
      "t_note_us": 144692001,
      "t_trigger_us": 144556038,
      "is_ai": false,
      "track_id": 0,
      "velocity": 0,
      "is_motor": true,
      "motor_id": 0,
      "accel_val": 2000,
      "base_duration_us": 230769
    },
    {
      "id": "M_1587",
      "pitch": 82,
      "t_note_us": 144922770,
      "t_trigger_us": 144786807,
      "is_ai": true,
      "track_id": 0,
      "velocity": 0,
      "is_motor": true,
      "motor_id": 2,
      "accel_val": 2000,
      "base_duration_us": 230769
    },
    {
      "id": "M_1588",
      "pitch": 48,
      "t_note_us": 144922770,
      "t_trigger_us": 144786807,
      "is_ai": false,
      "track_id": 0,
      "velocity": 0,
      "is_motor": true,
      "motor_id": 0,
      "accel_val": 2000,
      "base_duration_us": 230769
    },
    {
      "id": "M_1589",
      "pitch": 81,
      "t_note_us": 145153539,
      "t_trigger_us": 145017576,
      "is_ai": true,
      "track_id": 1,
      "velocity": 0,
      "is_motor": false,
      "motor_id": 0,
      "accel_val": 2000,
      "base_duration_us": 230769
    },
    {
      "id": "M_1590",
      "pitch": 48,
      "t_note_us": 145153539,
      "t_trigger_us": 145017576,
      "is_ai": false,
      "track_id": 0,
      "velocity": 0,
      "is_motor": true,
      "motor_id": 0,
      "accel_val": 2000,
      "base_duration_us": 230769
    },
    {
      "id": "M_1591",
      "pitch": 77,
      "t_note_us": 145384308,
      "t_trigger_us": 145248345,
      "is_ai": false,
      "track_id": 0,
      "velocity": 0,
      "is_motor": true,
      "motor_id": 2,
      "accel_val": 2000,
      "base_duration_us": 115384
    },
    {
      "id": "M_1593",
      "pitch": 60,
      "t_note_us": 145384308,
      "t_trigger_us": 145248345,
      "is_ai": false,
      "track_id": 0,
      "velocity": 0,
      "is_motor": true,
      "motor_id": 1,
      "accel_val": 2000,
      "base_duration_us": 230768
    },
    {
      "id": "M_1592",
      "pitch": 79,
      "t_note_us": 145499692,
      "t_trigger_us": 145363729,
      "is_ai": true,
      "track_id": 0,
      "velocity": 0,
      "is_motor": false,
      "motor_id": 0,
      "accel_val": 2000,
      "base_duration_us": 115384
    },
    {
      "id": "M_1594",
      "pitch": 81,
      "t_note_us": 145615076,
      "t_trigger_us": 145479113,
      "is_ai": true,
      "track_id": 1,
      "velocity": 0,
      "is_motor": false,
      "motor_id": 0,
      "accel_val": 2000,
      "base_duration_us": 115384
    },
    {
      "id": "M_1596",
      "pitch": 48,
      "t_note_us": 145615076,
      "t_trigger_us": 145479113,
      "is_ai": false,
      "track_id": 0,
      "velocity": 0,
      "is_motor": true,
      "motor_id": 0,
      "accel_val": 2000,
      "base_duration_us": 230768
    },
    {
      "id": "M_1595",
      "pitch": 84,
      "t_note_us": 145730460,
      "t_trigger_us": 145594497,
      "is_ai": true,
      "track_id": 3,
      "velocity": 0,
      "is_motor": false,
      "motor_id": 0,
      "accel_val": 2000,
      "base_duration_us": 115384
    },
    {
      "id": "M_1597",
      "pitch": 86,
      "t_note_us": 145845844,
      "t_trigger_us": 145709881,
      "is_ai": true,
      "track_id": 4,
      "velocity": 0,
      "is_motor": false,
      "motor_id": 0,
      "accel_val": 2000,
      "base_duration_us": 115384
    },
    {
      "id": "M_1600",
      "pitch": 58,
      "t_note_us": 145845844,
      "t_trigger_us": 145709881,
      "is_ai": false,
      "track_id": 0,
      "velocity": 0,
      "is_motor": true,
      "motor_id": 0,
      "accel_val": 2000,
      "base_duration_us": 461536
    },
    {
      "id": "M_1598",
      "pitch": 84,
      "t_note_us": 145961228,
      "t_trigger_us": 145825265,
      "is_ai": true,
      "track_id": 3,
      "velocity": 0,
      "is_motor": false,
      "motor_id": 0,
      "accel_val": 2000,
      "base_duration_us": 115384
    },
    {
      "id": "M_1599",
      "pitch": 81,
      "t_note_us": 146076612,
      "t_trigger_us": 145940649,
      "is_ai": true,
      "track_id": 1,
      "velocity": 0,
      "is_motor": false,
      "motor_id": 0,
      "accel_val": 2000,
      "base_duration_us": 115384
    },
    {
      "id": "M_1601",
      "pitch": 79,
      "t_note_us": 146191996,
      "t_trigger_us": 146056033,
      "is_ai": true,
      "track_id": 0,
      "velocity": 0,
      "is_motor": false,
      "motor_id": 0,
      "accel_val": 2000,
      "base_duration_us": 230768
    },
    {
      "id": "M_1604",
      "pitch": 58,
      "t_note_us": 146307380,
      "t_trigger_us": 146171417,
      "is_ai": false,
      "track_id": 0,
      "velocity": 0,
      "is_motor": true,
      "motor_id": 0,
      "accel_val": 2000,
      "base_duration_us": 346152
    },
    {
      "id": "M_1602",
      "pitch": 79,
      "t_note_us": 146422764,
      "t_trigger_us": 146286801,
      "is_ai": true,
      "track_id": 0,
      "velocity": 0,
      "is_motor": false,
      "motor_id": 0,
      "accel_val": 2000,
      "base_duration_us": 115384
    },
    {
      "id": "M_1603",
      "pitch": 86,
      "t_note_us": 146538148,
      "t_trigger_us": 146402185,
      "is_ai": true,
      "track_id": 4,
      "velocity": 0,
      "is_motor": false,
      "motor_id": 0,
      "accel_val": 2000,
      "base_duration_us": 115384
    },
    {
      "id": "M_1605",
      "pitch": 84,
      "t_note_us": 146653532,
      "t_trigger_us": 146517569,
      "is_ai": true,
      "track_id": 3,
      "velocity": 0,
      "is_motor": false,
      "motor_id": 0,
      "accel_val": 2000,
      "base_duration_us": 230769
    },
    {
      "id": "M_1607",
      "pitch": 45,
      "t_note_us": 146653532,
      "t_trigger_us": 146517569,
      "is_ai": false,
      "track_id": 0,
      "velocity": 0,
      "is_motor": true,
      "motor_id": 0,
      "accel_val": 2000,
      "base_duration_us": 346153
    },
    {
      "id": "M_1606",
      "pitch": 84,
      "t_note_us": 146884301,
      "t_trigger_us": 146748338,
      "is_ai": true,
      "track_id": 3,
      "velocity": 0,
      "is_motor": false,
      "motor_id": 0,
      "accel_val": 2000,
      "base_duration_us": 115384
    },
    {
      "id": "M_1608",
      "pitch": 89,
      "t_note_us": 146999685,
      "t_trigger_us": 146863722,
      "is_ai": true,
      "track_id": 6,
      "velocity": 0,
      "is_motor": false,
      "motor_id": 0,
      "accel_val": 2000,
      "base_duration_us": 115384
    },
    {
      "id": "M_1610",
      "pitch": 45,
      "t_note_us": 146999685,
      "t_trigger_us": 146863722,
      "is_ai": false,
      "track_id": 0,
      "velocity": 0,
      "is_motor": true,
      "motor_id": 0,
      "accel_val": 2000,
      "base_duration_us": 230768
    },
    {
      "id": "M_1609",
      "pitch": 88,
      "t_note_us": 147115069,
      "t_trigger_us": 146979106,
      "is_ai": true,
      "track_id": 5,
      "velocity": 0,
      "is_motor": false,
      "motor_id": 0,
      "accel_val": 2000,
      "base_duration_us": 115384
    },
    {
      "id": "M_1611",
      "pitch": 84,
      "t_note_us": 147230453,
      "t_trigger_us": 147094490,
      "is_ai": true,
      "track_id": 3,
      "velocity": 0,
      "is_motor": false,
      "motor_id": 0,
      "accel_val": 2000,
      "base_duration_us": 115384
    },
    {
      "id": "M_1615",
      "pitch": 57,
      "t_note_us": 147230453,
      "t_trigger_us": 147094490,
      "is_ai": false,
      "track_id": 0,
      "velocity": 0,
      "is_motor": true,
      "motor_id": 0,
      "accel_val": 2000,
      "base_duration_us": 461536
    },
    {
      "id": "M_1612",
      "pitch": 86,
      "t_note_us": 147345837,
      "t_trigger_us": 147209874,
      "is_ai": true,
      "track_id": 4,
      "velocity": 0,
      "is_motor": false,
      "motor_id": 0,
      "accel_val": 2000,
      "base_duration_us": 115384
    },
    {
      "id": "M_1613",
      "pitch": 81,
      "t_note_us": 147461221,
      "t_trigger_us": 147325258,
      "is_ai": true,
      "track_id": 1,
      "velocity": 0,
      "is_motor": false,
      "motor_id": 0,
      "accel_val": 2000,
      "base_duration_us": 115384
    },
    {
      "id": "M_1614",
      "pitch": 84,
      "t_note_us": 147576605,
      "t_trigger_us": 147440642,
      "is_ai": true,
      "track_id": 3,
      "velocity": 0,
      "is_motor": false,
      "motor_id": 0,
      "accel_val": 2000,
      "base_duration_us": 115384
    },
    {
      "id": "M_1616",
      "pitch": 81,
      "t_note_us": 147691989,
      "t_trigger_us": 147556026,
      "is_ai": true,
      "track_id": 1,
      "velocity": 0,
      "is_motor": false,
      "motor_id": 0,
      "accel_val": 2000,
      "base_duration_us": 115384
    },
    {
      "id": "M_1619",
      "pitch": 50,
      "t_note_us": 147691989,
      "t_trigger_us": 147556026,
      "is_ai": false,
      "track_id": 0,
      "velocity": 0,
      "is_motor": true,
      "motor_id": 0,
      "accel_val": 2000,
      "base_duration_us": 461537
    },
    {
      "id": "M_1617",
      "pitch": 79,
      "t_note_us": 147807373,
      "t_trigger_us": 147671410,
      "is_ai": true,
      "track_id": 0,
      "velocity": 0,
      "is_motor": false,
      "motor_id": 0,
      "accel_val": 2000,
      "base_duration_us": 230769
    },
    {
      "id": "M_1618",
      "pitch": 74,
      "t_note_us": 148038142,
      "t_trigger_us": 147902179,
      "is_ai": false,
      "track_id": 0,
      "velocity": 0,
      "is_motor": true,
      "motor_id": 1,
      "accel_val": 2000,
      "base_duration_us": 115384
    },
    {
      "id": "M_1620",
      "pitch": 77,
      "t_note_us": 148153526,
      "t_trigger_us": 148017563,
      "is_ai": false,
      "track_id": 0,
      "velocity": 0,
      "is_motor": true,
      "motor_id": 2,
      "accel_val": 2000,
      "base_duration_us": 230769
    },
    {
      "id": "M_1622",
      "pitch": 62,
      "t_note_us": 148153526,
      "t_trigger_us": 148017563,
      "is_ai": false,
      "track_id": 0,
      "velocity": 0,
      "is_motor": true,
      "motor_id": 1,
      "accel_val": 2000,
      "base_duration_us": 346153
    },
    {
      "id": "M_1621",
      "pitch": 74,
      "t_note_us": 148384295,
      "t_trigger_us": 148248332,
      "is_ai": false,
      "track_id": 0,
      "velocity": 0,
      "is_motor": true,
      "motor_id": 0,
      "accel_val": 2000,
      "base_duration_us": 115384
    },
    {
      "id": "M_1623",
      "pitch": 72,
      "t_note_us": 148499679,
      "t_trigger_us": 148363716,
      "is_ai": false,
      "track_id": 0,
      "velocity": 0,
      "is_motor": true,
      "motor_id": 1,
      "accel_val": 2000,
      "base_duration_us": 230769
    },
    {
      "id": "M_1625",
      "pitch": 53,
      "t_note_us": 148499679,
      "t_trigger_us": 148363716,
      "is_ai": false,
      "track_id": 0,
      "velocity": 0,
      "is_motor": true,
      "motor_id": 0,
      "accel_val": 2000,
      "base_duration_us": 346153
    },
    {
      "id": "M_1624",
      "pitch": 72,
      "t_note_us": 148730448,
      "t_trigger_us": 148594485,
      "is_ai": false,
      "track_id": 0,
      "velocity": 0,
      "is_motor": true,
      "motor_id": 1,
      "accel_val": 2000,
      "base_duration_us": 115384
    },
    {
      "id": "M_1626",
      "pitch": 74,
      "t_note_us": 148845832,
      "t_trigger_us": 148709869,
      "is_ai": false,
      "track_id": 0,
      "velocity": 0,
      "is_motor": true,
      "motor_id": 1,
      "accel_val": 2000,
      "base_duration_us": 115384
    },
    {
      "id": "M_1628",
      "pitch": 53,
      "t_note_us": 148845832,
      "t_trigger_us": 148709869,
      "is_ai": false,
      "track_id": 0,
      "velocity": 0,
      "is_motor": true,
      "motor_id": 0,
      "accel_val": 2000,
      "base_duration_us": 230768
    },
    {
      "id": "M_1627",
      "pitch": 69,
      "t_note_us": 148961216,
      "t_trigger_us": 148825253,
      "is_ai": false,
      "track_id": 0,
      "velocity": 0,
      "is_motor": true,
      "motor_id": 1,
      "accel_val": 2000,
      "base_duration_us": 115384
    },
    {
      "id": "M_1629",
      "pitch": 79,
      "t_note_us": 149076600,
      "t_trigger_us": 148940637,
      "is_ai": true,
      "track_id": 0,
      "velocity": 0,
      "is_motor": false,
      "motor_id": 0,
      "accel_val": 2000,
      "base_duration_us": 115384
    },
    {
      "id": "M_1633",
      "pitch": 65,
      "t_note_us": 149076600,
      "t_trigger_us": 148940637,
      "is_ai": false,
      "track_id": 0,
      "velocity": 0,
      "is_motor": true,
      "motor_id": 1,
      "accel_val": 2000,
      "base_duration_us": 461536
    },
    {
      "id": "M_1630",
      "pitch": 69,
      "t_note_us": 149191984,
      "t_trigger_us": 149056021,
      "is_ai": false,
      "track_id": 0,
      "velocity": 0,
      "is_motor": true,
      "motor_id": 2,
      "accel_val": 2000,
      "base_duration_us": 115384
    },
    {
      "id": "M_1631",
      "pitch": 72,
      "t_note_us": 149307368,
      "t_trigger_us": 149171405,
      "is_ai": false,
      "track_id": 0,
      "velocity": 0,
      "is_motor": true,
      "motor_id": 0,
      "accel_val": 2000,
      "base_duration_us": 115384
    },
    {
      "id": "M_1632",
      "pitch": 74,
      "t_note_us": 149422752,
      "t_trigger_us": 149286789,
      "is_ai": false,
      "track_id": 0,
      "velocity": 0,
      "is_motor": true,
      "motor_id": 0,
      "accel_val": 2000,
      "base_duration_us": 115384
    },
    {
      "id": "M_1634",
      "pitch": 81,
      "t_note_us": 149538136,
      "t_trigger_us": 149402173,
      "is_ai": true,
      "track_id": 1,
      "velocity": 0,
      "is_motor": false,
      "motor_id": 0,
      "accel_val": 2000,
      "base_duration_us": 115384
    },
    {
      "id": "M_1638",
      "pitch": 58,
      "t_note_us": 149538136,
      "t_trigger_us": 149402173,
      "is_ai": false,
      "track_id": 0,
      "velocity": 0,
      "is_motor": true,
      "motor_id": 0,
      "accel_val": 2000,
      "base_duration_us": 461536
    },
    {
      "id": "M_1635",
      "pitch": 74,
      "t_note_us": 149653520,
      "t_trigger_us": 149517557,
      "is_ai": false,
      "track_id": 0,
      "velocity": 0,
      "is_motor": true,
      "motor_id": 1,
      "accel_val": 2000,
      "base_duration_us": 115384
    },
    {
      "id": "M_1636",
      "pitch": 86,
      "t_note_us": 149768904,
      "t_trigger_us": 149632941,
      "is_ai": true,
      "track_id": 4,
      "velocity": 0,
      "is_motor": false,
      "motor_id": 0,
      "accel_val": 2000,
      "base_duration_us": 115384
    },
    {
      "id": "M_1637",
      "pitch": 84,
      "t_note_us": 149884288,
      "t_trigger_us": 149748325,
      "is_ai": true,
      "track_id": 3,
      "velocity": 0,
      "is_motor": false,
      "motor_id": 0,
      "accel_val": 2000,
      "base_duration_us": 115384
    },
    {
      "id": "M_1639",
      "pitch": 84,
      "t_note_us": 149999672,
      "t_trigger_us": 149863709,
      "is_ai": true,
      "track_id": 3,
      "velocity": 0,
      "is_motor": false,
      "motor_id": 0,
      "accel_val": 2000,
      "base_duration_us": 115384
    },
    {
      "id": "M_1642",
      "pitch": 58,
      "t_note_us": 149999672,
      "t_trigger_us": 149863709,
      "is_ai": false,
      "track_id": 0,
      "velocity": 0,
      "is_motor": true,
      "motor_id": 0,
      "accel_val": 2000,
      "base_duration_us": 346152
    },
    {
      "id": "M_1640",
      "pitch": 84,
      "t_note_us": 150115056,
      "t_trigger_us": 149979093,
      "is_ai": true,
      "track_id": 3,
      "velocity": 0,
      "is_motor": false,
      "motor_id": 0,
      "accel_val": 2000,
      "base_duration_us": 115384
    },
    {
      "id": "M_1641",
      "pitch": 93,
      "t_note_us": 150230440,
      "t_trigger_us": 150094477,
      "is_ai": true,
      "track_id": 8,
      "velocity": 0,
      "is_motor": false,
      "motor_id": 0,
      "accel_val": 2000,
      "base_duration_us": 115384
    },
    {
      "id": "M_1643",
      "pitch": 91,
      "t_note_us": 150345824,
      "t_trigger_us": 150209861,
      "is_ai": true,
      "track_id": 7,
      "velocity": 0,
      "is_motor": false,
      "motor_id": 0,
      "accel_val": 2000,
      "base_duration_us": 230769
    },
    {
      "id": "M_1645",
      "pitch": 45,
      "t_note_us": 150345824,
      "t_trigger_us": 150209861,
      "is_ai": false,
      "track_id": 0,
      "velocity": 0,
      "is_motor": true,
      "motor_id": 0,
      "accel_val": 2000,
      "base_duration_us": 346153
    },
    {
      "id": "M_1644",
      "pitch": 91,
      "t_note_us": 150576593,
      "t_trigger_us": 150440630,
      "is_ai": true,
      "track_id": 7,
      "velocity": 0,
      "is_motor": false,
      "motor_id": 0,
      "accel_val": 2000,
      "base_duration_us": 115384
    },
    {
      "id": "M_1646",
      "pitch": 93,
      "t_note_us": 150691977,
      "t_trigger_us": 150556014,
      "is_ai": true,
      "track_id": 8,
      "velocity": 0,
      "is_motor": false,
      "motor_id": 0,
      "accel_val": 2000,
      "base_duration_us": 115384
    },
    {
      "id": "M_1648",
      "pitch": 45,
      "t_note_us": 150691977,
      "t_trigger_us": 150556014,
      "is_ai": false,
      "track_id": 0,
      "velocity": 0,
      "is_motor": true,
      "motor_id": 0,
      "accel_val": 2000,
      "base_duration_us": 230768
    },
    {
      "id": "M_1647",
      "pitch": 94,
      "t_note_us": 150807361,
      "t_trigger_us": 150671398,
      "is_ai": true,
      "track_id": 0,
      "velocity": 0,
      "is_motor": true,
      "motor_id": 3,
      "accel_val": 2000,
      "base_duration_us": 115384
    },
    {
      "id": "M_1649",
      "pitch": 96,
      "t_note_us": 150922745,
      "t_trigger_us": 150786782,
      "is_ai": true,
      "track_id": 10,
      "velocity": 0,
      "is_motor": false,
      "motor_id": 0,
      "accel_val": 2000,
      "base_duration_us": 115384
    },
    {
      "id": "M_1653",
      "pitch": 57,
      "t_note_us": 150922745,
      "t_trigger_us": 150786782,
      "is_ai": false,
      "track_id": 0,
      "velocity": 0,
      "is_motor": true,
      "motor_id": 0,
      "accel_val": 2000,
      "base_duration_us": 461536
    },
    {
      "id": "M_1650",
      "pitch": 93,
      "t_note_us": 151038129,
      "t_trigger_us": 150902166,
      "is_ai": true,
      "track_id": 8,
      "velocity": 0,
      "is_motor": false,
      "motor_id": 0,
      "accel_val": 2000,
      "base_duration_us": 115384
    },
    {
      "id": "M_1651",
      "pitch": 91,
      "t_note_us": 151153513,
      "t_trigger_us": 151017550,
      "is_ai": true,
      "track_id": 7,
      "velocity": 0,
      "is_motor": false,
      "motor_id": 0,
      "accel_val": 2000,
      "base_duration_us": 115384
    },
    {
      "id": "M_1652",
      "pitch": 86,
      "t_note_us": 151268897,
      "t_trigger_us": 151132934,
      "is_ai": true,
      "track_id": 4,
      "velocity": 0,
      "is_motor": false,
      "motor_id": 0,
      "accel_val": 2000,
      "base_duration_us": 115384
    },
    {
      "id": "M_1654",
      "pitch": 89,
      "t_note_us": 151384281,
      "t_trigger_us": 151248318,
      "is_ai": true,
      "track_id": 6,
      "velocity": 0,
      "is_motor": false,
      "motor_id": 0,
      "accel_val": 2000,
      "base_duration_us": 115384
    },
    {
      "id": "M_1658",
      "pitch": 62,
      "t_note_us": 151384281,
      "t_trigger_us": 151248318,
      "is_ai": false,
      "track_id": 0,
      "velocity": 0,
      "is_motor": true,
      "motor_id": 1,
      "accel_val": 2000,
      "base_duration_us": 692306
    },
    {
      "id": "M_1655",
      "pitch": 86,
      "t_note_us": 151499665,
      "t_trigger_us": 151363702,
      "is_ai": true,
      "track_id": 4,
      "velocity": 0,
      "is_motor": false,
      "motor_id": 0,
      "accel_val": 2000,
      "base_duration_us": 230769
    },
    {
      "id": "M_1656",
      "pitch": 79,
      "t_note_us": 151730434,
      "t_trigger_us": 151594471,
      "is_ai": true,
      "track_id": 0,
      "velocity": 0,
      "is_motor": false,
      "motor_id": 0,
      "accel_val": 2000,
      "base_duration_us": 115384
    },
    {
      "id": "M_1657",
      "pitch": 81,
      "t_note_us": 151845818,
      "t_trigger_us": 151709855,
      "is_ai": true,
      "track_id": 1,
      "velocity": 0,
      "is_motor": false,
      "motor_id": 0,
      "accel_val": 2000,
      "base_duration_us": 230769
    },
    {
      "id": "M_1659",
      "pitch": 86,
      "t_note_us": 152076587,
      "t_trigger_us": 151940624,
      "is_ai": true,
      "track_id": 4,
      "velocity": 0,
      "is_motor": false,
      "motor_id": 0,
      "accel_val": 2000,
      "base_duration_us": 115384
    },
    {
      "id": "M_1660",
      "pitch": 51,
      "t_note_us": 152076587,
      "t_trigger_us": 151940624,
      "is_ai": false,
      "track_id": 0,
      "velocity": 0,
      "is_motor": true,
      "motor_id": 0,
      "accel_val": 2000,
      "base_duration_us": 230768
    },
    {
      "id": "M_1662",
      "pitch": 84,
      "t_note_us": 152191971,
      "t_trigger_us": 152056008,
      "is_ai": true,
      "track_id": 3,
      "velocity": 0,
      "is_motor": false,
      "motor_id": 0,
      "accel_val": 2000,
      "base_duration_us": 230768
    },
    {
      "id": "M_1661",
      "pitch": 53,
      "t_note_us": 152307355,
      "t_trigger_us": 152171392,
      "is_ai": false,
      "track_id": 0,
      "velocity": 0,
      "is_motor": true,
      "motor_id": 0,
      "accel_val": 2000,
      "base_duration_us": 115384
    },
    {
      "id": "M_1663",
      "pitch": 57,
      "t_note_us": 152422739,
      "t_trigger_us": 152286776,
      "is_ai": false,
      "track_id": 0,
      "velocity": 0,
      "is_motor": true,
      "motor_id": 0,
      "accel_val": 2000,
      "base_duration_us": 115384
    },
    {
      "id": "M_1664",
      "pitch": 74,
      "t_note_us": 152422739,
      "t_trigger_us": 152286776,
      "is_ai": false,
      "track_id": 0,
      "velocity": 0,
      "is_motor": true,
      "motor_id": 1,
      "accel_val": 2000,
      "base_duration_us": 115384
    },
    {
      "id": "M_1665",
      "pitch": 77,
      "t_note_us": 152538123,
      "t_trigger_us": 152402160,
      "is_ai": false,
      "track_id": 0,
      "velocity": 0,
      "is_motor": true,
      "motor_id": 2,
      "accel_val": 2000,
      "base_duration_us": 115384
    },
    {
      "id": "M_1666",
      "pitch": 53,
      "t_note_us": 152538123,
      "t_trigger_us": 152402160,
      "is_ai": false,
      "track_id": 0,
      "velocity": 0,
      "is_motor": true,
      "motor_id": 0,
      "accel_val": 2000,
      "base_duration_us": 115384
    },
    {
      "id": "M_1668",
      "pitch": 82,
      "t_note_us": 152653507,
      "t_trigger_us": 152517544,
      "is_ai": true,
      "track_id": 0,
      "velocity": 0,
      "is_motor": true,
      "motor_id": 2,
      "accel_val": 2000,
      "base_duration_us": 115384
    },
    {
      "id": "M_1667",
      "pitch": 52,
      "t_note_us": 152653507,
      "t_trigger_us": 152517544,
      "is_ai": false,
      "track_id": 0,
      "velocity": 0,
      "is_motor": true,
      "motor_id": 0,
      "accel_val": 2000,
      "base_duration_us": 115384
    },
    {
      "id": "M_1669",
      "pitch": 69,
      "t_note_us": 152768891,
      "t_trigger_us": 152632928,
      "is_ai": false,
      "track_id": 0,
      "velocity": 0,
      "is_motor": true,
      "motor_id": 1,
      "accel_val": 2000,
      "base_duration_us": 115384
    },
    {
      "id": "M_1673",
      "pitch": 48,
      "t_note_us": 152768891,
      "t_trigger_us": 152632928,
      "is_ai": false,
      "track_id": 0,
      "velocity": 0,
      "is_motor": true,
      "motor_id": 0,
      "accel_val": 2000,
      "base_duration_us": 461536
    },
    {
      "id": "M_1670",
      "pitch": 72,
      "t_note_us": 152884275,
      "t_trigger_us": 152748312,
      "is_ai": false,
      "track_id": 0,
      "velocity": 0,
      "is_motor": true,
      "motor_id": 1,
      "accel_val": 2000,
      "base_duration_us": 115384
    },
    {
      "id": "M_1671",
      "pitch": 74,
      "t_note_us": 152999659,
      "t_trigger_us": 152863696,
      "is_ai": false,
      "track_id": 0,
      "velocity": 0,
      "is_motor": true,
      "motor_id": 1,
      "accel_val": 2000,
      "base_duration_us": 115384
    },
    {
      "id": "M_1672",
      "pitch": 76,
      "t_note_us": 153115043,
      "t_trigger_us": 152979080,
      "is_ai": false,
      "track_id": 0,
      "velocity": 0,
      "is_motor": true,
      "motor_id": 2,
      "accel_val": 2000,
      "base_duration_us": 115384
    },
    {
      "id": "M_1674",
      "pitch": 81,
      "t_note_us": 153230427,
      "t_trigger_us": 153094464,
      "is_ai": true,
      "track_id": 1,
      "velocity": 0,
      "is_motor": false,
      "motor_id": 0,
      "accel_val": 2000,
      "base_duration_us": 115384
    },
    {
      "id": "M_1677",
      "pitch": 58,
      "t_note_us": 153230427,
      "t_trigger_us": 153094464,
      "is_ai": false,
      "track_id": 0,
      "velocity": 0,
      "is_motor": true,
      "motor_id": 0,
      "accel_val": 2000,
      "base_duration_us": 461537
    },
    {
      "id": "M_1675",
      "pitch": 79,
      "t_note_us": 153345811,
      "t_trigger_us": 153209848,
      "is_ai": true,
      "track_id": 0,
      "velocity": 0,
      "is_motor": false,
      "motor_id": 0,
      "accel_val": 2000,
      "base_duration_us": 230769
    },
    {
      "id": "M_1676",
      "pitch": 74,
      "t_note_us": 153576580,
      "t_trigger_us": 153440617,
      "is_ai": false,
      "track_id": 0,
      "velocity": 0,
      "is_motor": true,
      "motor_id": 1,
      "accel_val": 2000,
      "base_duration_us": 115384
    },
    {
      "id": "M_1678",
      "pitch": 53,
      "t_note_us": 153691964,
      "t_trigger_us": 153556001,
      "is_ai": false,
      "track_id": 0,
      "velocity": 0,
      "is_motor": true,
      "motor_id": 0,
      "accel_val": 2000,
      "base_duration_us": 115384
    },
    {
      "id": "M_1680",
      "pitch": 77,
      "t_note_us": 153691964,
      "t_trigger_us": 153556001,
      "is_ai": false,
      "track_id": 0,
      "velocity": 0,
      "is_motor": true,
      "motor_id": 2,
      "accel_val": 2000,
      "base_duration_us": 230768
    },
    {
      "id": "M_1679",
      "pitch": 46,
      "t_note_us": 153807348,
      "t_trigger_us": 153671385,
      "is_ai": false,
      "track_id": 0,
      "velocity": 0,
      "is_motor": true,
      "motor_id": 0,
      "accel_val": 2000,
      "base_duration_us": 115384
    },
    {
      "id": "M_1681",
      "pitch": 86,
      "t_note_us": 153922732,
      "t_trigger_us": 153786769,
      "is_ai": true,
      "track_id": 4,
      "velocity": 0,
      "is_motor": false,
      "motor_id": 0,
      "accel_val": 2000,
      "base_duration_us": 115384
    },
    {
      "id": "M_1682",
      "pitch": 45,
      "t_note_us": 153922732,
      "t_trigger_us": 153786769,
      "is_ai": false,
      "track_id": 0,
      "velocity": 0,
      "is_motor": true,
      "motor_id": 0,
      "accel_val": 2000,
      "base_duration_us": 115384
    },
    {
      "id": "M_1683",
      "pitch": 84,
      "t_note_us": 154038116,
      "t_trigger_us": 153902153,
      "is_ai": true,
      "track_id": 3,
      "velocity": 0,
      "is_motor": false,
      "motor_id": 0,
      "accel_val": 2000,
      "base_duration_us": 230769
    },
    {
      "id": "M_1685",
      "pitch": 45,
      "t_note_us": 154038116,
      "t_trigger_us": 153902153,
      "is_ai": false,
      "track_id": 0,
      "velocity": 0,
      "is_motor": true,
      "motor_id": 0,
      "accel_val": 2000,
      "base_duration_us": 346153
    },
    {
      "id": "M_1684",
      "pitch": 84,
      "t_note_us": 154268885,
      "t_trigger_us": 154132922,
      "is_ai": true,
      "track_id": 3,
      "velocity": 0,
      "is_motor": false,
      "motor_id": 0,
      "accel_val": 2000,
      "base_duration_us": 115384
    },
    {
      "id": "M_1686",
      "pitch": 89,
      "t_note_us": 154384269,
      "t_trigger_us": 154248306,
      "is_ai": true,
      "track_id": 6,
      "velocity": 0,
      "is_motor": false,
      "motor_id": 0,
      "accel_val": 2000,
      "base_duration_us": 115384
    },
    {
      "id": "M_1688",
      "pitch": 45,
      "t_note_us": 154384269,
      "t_trigger_us": 154248306,
      "is_ai": false,
      "track_id": 0,
      "velocity": 0,
      "is_motor": true,
      "motor_id": 0,
      "accel_val": 2000,
      "base_duration_us": 230768
    },
    {
      "id": "M_1687",
      "pitch": 88,
      "t_note_us": 154499653,
      "t_trigger_us": 154363690,
      "is_ai": true,
      "track_id": 5,
      "velocity": 0,
      "is_motor": false,
      "motor_id": 0,
      "accel_val": 2000,
      "base_duration_us": 115384
    },
    {
      "id": "M_1689",
      "pitch": 84,
      "t_note_us": 154615037,
      "t_trigger_us": 154479074,
      "is_ai": true,
      "track_id": 3,
      "velocity": 0,
      "is_motor": false,
      "motor_id": 0,
      "accel_val": 2000,
      "base_duration_us": 115384
    },
    {
      "id": "M_1693",
      "pitch": 57,
      "t_note_us": 154615037,
      "t_trigger_us": 154479074,
      "is_ai": false,
      "track_id": 0,
      "velocity": 0,
      "is_motor": true,
      "motor_id": 0,
      "accel_val": 2000,
      "base_duration_us": 461536
    },
    {
      "id": "M_1690",
      "pitch": 86,
      "t_note_us": 154730421,
      "t_trigger_us": 154594458,
      "is_ai": true,
      "track_id": 4,
      "velocity": 0,
      "is_motor": false,
      "motor_id": 0,
      "accel_val": 2000,
      "base_duration_us": 115384
    },
    {
      "id": "M_1691",
      "pitch": 69,
      "t_note_us": 154845805,
      "t_trigger_us": 154709842,
      "is_ai": false,
      "track_id": 0,
      "velocity": 0,
      "is_motor": true,
      "motor_id": 1,
      "accel_val": 2000,
      "base_duration_us": 115384
    },
    {
      "id": "M_1692",
      "pitch": 84,
      "t_note_us": 154961189,
      "t_trigger_us": 154825226,
      "is_ai": true,
      "track_id": 3,
      "velocity": 0,
      "is_motor": false,
      "motor_id": 0,
      "accel_val": 2000,
      "base_duration_us": 115384
    },
    {
      "id": "M_1694",
      "pitch": 81,
      "t_note_us": 155076573,
      "t_trigger_us": 154940610,
      "is_ai": true,
      "track_id": 1,
      "velocity": 0,
      "is_motor": false,
      "motor_id": 0,
      "accel_val": 2000,
      "base_duration_us": 115384
    },
    {
      "id": "M_1697",
      "pitch": 50,
      "t_note_us": 155076573,
      "t_trigger_us": 154940610,
      "is_ai": false,
      "track_id": 0,
      "velocity": 0,
      "is_motor": true,
      "motor_id": 0,
      "accel_val": 2000,
      "base_duration_us": 461537
    },
    {
      "id": "M_1695",
      "pitch": 79,
      "t_note_us": 155191957,
      "t_trigger_us": 155055994,
      "is_ai": true,
      "track_id": 0,
      "velocity": 0,
      "is_motor": false,
      "motor_id": 0,
      "accel_val": 2000,
      "base_duration_us": 230769
    },
    {
      "id": "M_1696",
      "pitch": 74,
      "t_note_us": 155422726,
      "t_trigger_us": 155286763,
      "is_ai": false,
      "track_id": 0,
      "velocity": 0,
      "is_motor": true,
      "motor_id": 1,
      "accel_val": 2000,
      "base_duration_us": 115384
    },
    {
      "id": "M_1698",
      "pitch": 77,
      "t_note_us": 155538110,
      "t_trigger_us": 155402147,
      "is_ai": false,
      "track_id": 0,
      "velocity": 0,
      "is_motor": true,
      "motor_id": 2,
      "accel_val": 2000,
      "base_duration_us": 230769
    },
    {
      "id": "M_1700",
      "pitch": 62,
      "t_note_us": 155538110,
      "t_trigger_us": 155402147,
      "is_ai": false,
      "track_id": 0,
      "velocity": 0,
      "is_motor": true,
      "motor_id": 1,
      "accel_val": 2000,
      "base_duration_us": 346153
    },
    {
      "id": "M_1701",
      "pitch": 53,
      "t_note_us": 155538110,
      "t_trigger_us": 155402147,
      "is_ai": false,
      "track_id": 0,
      "velocity": 0,
      "is_motor": true,
      "motor_id": 0,
      "accel_val": 2000,
      "base_duration_us": 346153
    },
    {
      "id": "M_1699",
      "pitch": 74,
      "t_note_us": 155768879,
      "t_trigger_us": 155632916,
      "is_ai": false,
      "track_id": 0,
      "velocity": 0,
      "is_motor": true,
      "motor_id": 2,
      "accel_val": 2000,
      "base_duration_us": 115384
    },
    {
      "id": "M_1702",
      "pitch": 72,
      "t_note_us": 155884263,
      "t_trigger_us": 155748300,
      "is_ai": false,
      "track_id": 0,
      "velocity": 0,
      "is_motor": true,
      "motor_id": 1,
      "accel_val": 2000,
      "base_duration_us": 230769
    },
    {
      "id": "M_1704",
      "pitch": 53,
      "t_note_us": 155884263,
      "t_trigger_us": 155748300,
      "is_ai": false,
      "track_id": 0,
      "velocity": 0,
      "is_motor": true,
      "motor_id": 0,
      "accel_val": 2000,
      "base_duration_us": 346153
    },
    {
      "id": "M_1703",
      "pitch": 72,
      "t_note_us": 156115032,
      "t_trigger_us": 155979069,
      "is_ai": false,
      "track_id": 0,
      "velocity": 0,
      "is_motor": true,
      "motor_id": 1,
      "accel_val": 2000,
      "base_duration_us": 115384
    },
    {
      "id": "M_1705",
      "pitch": 74,
      "t_note_us": 156230416,
      "t_trigger_us": 156094453,
      "is_ai": false,
      "track_id": 0,
      "velocity": 0,
      "is_motor": true,
      "motor_id": 1,
      "accel_val": 2000,
      "base_duration_us": 115384
    },
    {
      "id": "M_1707",
      "pitch": 53,
      "t_note_us": 156230416,
      "t_trigger_us": 156094453,
      "is_ai": false,
      "track_id": 0,
      "velocity": 0,
      "is_motor": true,
      "motor_id": 0,
      "accel_val": 2000,
      "base_duration_us": 230768
    },
    {
      "id": "M_1706",
      "pitch": 81,
      "t_note_us": 156345800,
      "t_trigger_us": 156209837,
      "is_ai": true,
      "track_id": 1,
      "velocity": 0,
      "is_motor": false,
      "motor_id": 0,
      "accel_val": 2000,
      "base_duration_us": 115384
    },
    {
      "id": "M_1709",
      "pitch": 79,
      "t_note_us": 156461184,
      "t_trigger_us": 156325221,
      "is_ai": true,
      "track_id": 0,
      "velocity": 0,
      "is_motor": false,
      "motor_id": 0,
      "accel_val": 2000,
      "base_duration_us": 115384
    },
    {
      "id": "M_1708",
      "pitch": 48,
      "t_note_us": 156461184,
      "t_trigger_us": 156325221,
      "is_ai": false,
      "track_id": 0,
      "velocity": 0,
      "is_motor": true,
      "motor_id": 0,
      "accel_val": 2000,
      "base_duration_us": 115384
    },
    {
      "id": "M_1710",
      "pitch": 69,
      "t_note_us": 156576568,
      "t_trigger_us": 156440605,
      "is_ai": false,
      "track_id": 0,
      "velocity": 0,
      "is_motor": true,
      "motor_id": 1,
      "accel_val": 2000,
      "base_duration_us": 115384
    },
    {
      "id": "M_1711",
      "pitch": 50,
      "t_note_us": 156576568,
      "t_trigger_us": 156440605,
      "is_ai": false,
      "track_id": 0,
      "velocity": 0,
      "is_motor": true,
      "motor_id": 0,
      "accel_val": 2000,
      "base_duration_us": 115384
    },
    {
      "id": "M_1712",
      "pitch": 72,
      "t_note_us": 156691952,
      "t_trigger_us": 156555989,
      "is_ai": false,
      "track_id": 0,
      "velocity": 0,
      "is_motor": true,
      "motor_id": 1,
      "accel_val": 2000,
      "base_duration_us": 115384
    },
    {
      "id": "M_1714",
      "pitch": 48,
      "t_note_us": 156691952,
      "t_trigger_us": 156555989,
      "is_ai": false,
      "track_id": 0,
      "velocity": 0,
      "is_motor": true,
      "motor_id": 0,
      "accel_val": 2000,
      "base_duration_us": 230768
    },
    {
      "id": "M_1713",
      "pitch": 74,
      "t_note_us": 156807336,
      "t_trigger_us": 156671373,
      "is_ai": false,
      "track_id": 0,
      "velocity": 0,
      "is_motor": true,
      "motor_id": 1,
      "accel_val": 2000,
      "base_duration_us": 115384
    },
    {
      "id": "M_1715",
      "pitch": 69,
      "t_note_us": 156922720,
      "t_trigger_us": 156786757,
      "is_ai": false,
      "track_id": 0,
      "velocity": 0,
      "is_motor": true,
      "motor_id": 1,
      "accel_val": 2000,
      "base_duration_us": 115384
    },
    {
      "id": "M_1718",
      "pitch": 58,
      "t_note_us": 156922720,
      "t_trigger_us": 156786757,
      "is_ai": false,
      "track_id": 0,
      "velocity": 0,
      "is_motor": true,
      "motor_id": 0,
      "accel_val": 2000,
      "base_duration_us": 461536
    },
    {
      "id": "M_1716",
      "pitch": 74,
      "t_note_us": 157038104,
      "t_trigger_us": 156902141,
      "is_ai": false,
      "track_id": 0,
      "velocity": 0,
      "is_motor": true,
      "motor_id": 1,
      "accel_val": 2000,
      "base_duration_us": 115384
    },
    {
      "id": "M_1717",
      "pitch": 86,
      "t_note_us": 157153488,
      "t_trigger_us": 157017525,
      "is_ai": true,
      "track_id": 4,
      "velocity": 0,
      "is_motor": false,
      "motor_id": 0,
      "accel_val": 2000,
      "base_duration_us": 115384
    },
    {
      "id": "M_1719",
      "pitch": 84,
      "t_note_us": 157268872,
      "t_trigger_us": 157132909,
      "is_ai": true,
      "track_id": 3,
      "velocity": 0,
      "is_motor": false,
      "motor_id": 0,
      "accel_val": 2000,
      "base_duration_us": 230768
    },
    {
      "id": "M_1722",
      "pitch": 62,
      "t_note_us": 157384256,
      "t_trigger_us": 157248293,
      "is_ai": false,
      "track_id": 0,
      "velocity": 0,
      "is_motor": true,
      "motor_id": 1,
      "accel_val": 2000,
      "base_duration_us": 346152
    },
    {
      "id": "M_1723",
      "pitch": 58,
      "t_note_us": 157384256,
      "t_trigger_us": 157248293,
      "is_ai": false,
      "track_id": 0,
      "velocity": 0,
      "is_motor": true,
      "motor_id": 0,
      "accel_val": 2000,
      "base_duration_us": 346152
    },
    {
      "id": "M_1720",
      "pitch": 84,
      "t_note_us": 157499640,
      "t_trigger_us": 157363677,
      "is_ai": true,
      "track_id": 3,
      "velocity": 0,
      "is_motor": false,
      "motor_id": 0,
      "accel_val": 2000,
      "base_duration_us": 115384
    },
    {
      "id": "M_1721",
      "pitch": 93,
      "t_note_us": 157615024,
      "t_trigger_us": 157479061,
      "is_ai": true,
      "track_id": 8,
      "velocity": 0,
      "is_motor": false,
      "motor_id": 0,
      "accel_val": 2000,
      "base_duration_us": 115384
    },
    {
      "id": "M_1724",
      "pitch": 91,
      "t_note_us": 157730408,
      "t_trigger_us": 157594445,
      "is_ai": true,
      "track_id": 7,
      "velocity": 0,
      "is_motor": false,
      "motor_id": 0,
      "accel_val": 2000,
      "base_duration_us": 230769
    },
    {
      "id": "M_1726",
      "pitch": 45,
      "t_note_us": 157730408,
      "t_trigger_us": 157594445,
      "is_ai": false,
      "track_id": 0,
      "velocity": 0,
      "is_motor": true,
      "motor_id": 0,
      "accel_val": 2000,
      "base_duration_us": 346153
    },
    {
      "id": "M_1727",
      "pitch": 57,
      "t_note_us": 157730408,
      "t_trigger_us": 157594445,
      "is_ai": false,
      "track_id": 0,
      "velocity": 0,
      "is_motor": true,
      "motor_id": 1,
      "accel_val": 2000,
      "base_duration_us": 346153
    },
    {
      "id": "M_1725",
      "pitch": 93,
      "t_note_us": 157961177,
      "t_trigger_us": 157825214,
      "is_ai": true,
      "track_id": 8,
      "velocity": 0,
      "is_motor": false,
      "motor_id": 0,
      "accel_val": 2000,
      "base_duration_us": 115384
    },
    {
      "id": "M_1728",
      "pitch": 94,
      "t_note_us": 158076561,
      "t_trigger_us": 157940598,
      "is_ai": true,
      "track_id": 0,
      "velocity": 0,
      "is_motor": true,
      "motor_id": 3,
      "accel_val": 2000,
      "base_duration_us": 115384
    },
    {
      "id": "M_1730",
      "pitch": 45,
      "t_note_us": 158076561,
      "t_trigger_us": 157940598,
      "is_ai": false,
      "track_id": 0,
      "velocity": 0,
      "is_motor": true,
      "motor_id": 0,
      "accel_val": 2000,
      "base_duration_us": 230768
    },
    {
      "id": "M_1729",
      "pitch": 95,
      "t_note_us": 158191945,
      "t_trigger_us": 158055982,
      "is_ai": true,
      "track_id": 9,
      "velocity": 0,
      "is_motor": false,
      "motor_id": 0,
      "accel_val": 2000,
      "base_duration_us": 115384
    },
    {
      "id": "M_1731",
      "pitch": 96,
      "t_note_us": 158307329,
      "t_trigger_us": 158171366,
      "is_ai": true,
      "track_id": 10,
      "velocity": 0,
      "is_motor": false,
      "motor_id": 0,
      "accel_val": 2000,
      "base_duration_us": 115384
    },
    {
      "id": "M_1735",
      "pitch": 57,
      "t_note_us": 158307329,
      "t_trigger_us": 158171366,
      "is_ai": false,
      "track_id": 0,
      "velocity": 0,
      "is_motor": true,
      "motor_id": 0,
      "accel_val": 2000,
      "base_duration_us": 461536
    },
    {
      "id": "M_1732",
      "pitch": 93,
      "t_note_us": 158422713,
      "t_trigger_us": 158286750,
      "is_ai": true,
      "track_id": 8,
      "velocity": 0,
      "is_motor": false,
      "motor_id": 0,
      "accel_val": 2000,
      "base_duration_us": 115384
    },
    {
      "id": "M_1733",
      "pitch": 91,
      "t_note_us": 158538097,
      "t_trigger_us": 158402134,
      "is_ai": true,
      "track_id": 7,
      "velocity": 0,
      "is_motor": false,
      "motor_id": 0,
      "accel_val": 2000,
      "base_duration_us": 115384
    },
    {
      "id": "M_1734",
      "pitch": 86,
      "t_note_us": 158653481,
      "t_trigger_us": 158517518,
      "is_ai": true,
      "track_id": 4,
      "velocity": 0,
      "is_motor": false,
      "motor_id": 0,
      "accel_val": 2000,
      "base_duration_us": 115384
    },
    {
      "id": "M_1736",
      "pitch": 89,
      "t_note_us": 158768865,
      "t_trigger_us": 158632902,
      "is_ai": true,
      "track_id": 6,
      "velocity": 0,
      "is_motor": false,
      "motor_id": 0,
      "accel_val": 2000,
      "base_duration_us": 115384
    },
    {
      "id": "M_1739",
      "pitch": 50,
      "t_note_us": 158768865,
      "t_trigger_us": 158632902,
      "is_ai": false,
      "track_id": 0,
      "velocity": 0,
      "is_motor": true,
      "motor_id": 0,
      "accel_val": 2000,
      "base_duration_us": 346152
    },
    {
      "id": "M_1737",
      "pitch": 86,
      "t_note_us": 158884249,
      "t_trigger_us": 158748286,
      "is_ai": true,
      "track_id": 4,
      "velocity": 0,
      "is_motor": false,
      "motor_id": 0,
      "accel_val": 2000,
      "base_duration_us": 115384
    },
    {
      "id": "M_1738",
      "pitch": 69,
      "t_note_us": 158999633,
      "t_trigger_us": 158863670,
      "is_ai": false,
      "track_id": 0,
      "velocity": 0,
      "is_motor": true,
      "motor_id": 1,
      "accel_val": 2000,
      "base_duration_us": 115384
    },
    {
      "id": "M_1741",
      "pitch": 86,
      "t_note_us": 159115017,
      "t_trigger_us": 158979054,
      "is_ai": true,
      "track_id": 4,
      "velocity": 0,
      "is_motor": false,
      "motor_id": 0,
      "accel_val": 2000,
      "base_duration_us": 115384
    },
    {
      "id": "M_1740",
      "pitch": 50,
      "t_note_us": 159115017,
      "t_trigger_us": 158979054,
      "is_ai": false,
      "track_id": 0,
      "velocity": 0,
      "is_motor": true,
      "motor_id": 0,
      "accel_val": 2000,
      "base_duration_us": 115384
    },
    {
      "id": "M_1743",
      "pitch": 84,
      "t_note_us": 159230401,
      "t_trigger_us": 159094438,
      "is_ai": true,
      "track_id": 3,
      "velocity": 0,
      "is_motor": false,
      "motor_id": 0,
      "accel_val": 2000,
      "base_duration_us": 115384
    },
    {
      "id": "M_1742",
      "pitch": 53,
      "t_note_us": 159230401,
      "t_trigger_us": 159094438,
      "is_ai": false,
      "track_id": 0,
      "velocity": 0,
      "is_motor": true,
      "motor_id": 0,
      "accel_val": 2000,
      "base_duration_us": 115384
    },
    {
      "id": "M_1744",
      "pitch": 50,
      "t_note_us": 159345785,
      "t_trigger_us": 159209822,
      "is_ai": false,
      "track_id": 0,
      "velocity": 0,
      "is_motor": true,
      "motor_id": 0,
      "accel_val": 2000,
      "base_duration_us": 115384
    },
    {
      "id": "M_1745",
      "pitch": 77,
      "t_note_us": 159345785,
      "t_trigger_us": 159209822,
      "is_ai": false,
      "track_id": 0,
      "velocity": 0,
      "is_motor": true,
      "motor_id": 2,
      "accel_val": 2000,
      "base_duration_us": 115384
    },
    {
      "id": "M_1746",
      "pitch": 84,
      "t_note_us": 159461169,
      "t_trigger_us": 159325206,
      "is_ai": true,
      "track_id": 3,
      "velocity": 0,
      "is_motor": false,
      "motor_id": 0,
      "accel_val": 2000,
      "base_duration_us": 115384
    },
    {
      "id": "M_1750",
      "pitch": 50,
      "t_note_us": 159461169,
      "t_trigger_us": 159325206,
      "is_ai": false,
      "track_id": 0,
      "velocity": 0,
      "is_motor": true,
      "motor_id": 0,
      "accel_val": 2000,
      "base_duration_us": 461536
    },
    {
      "id": "M_1747",
      "pitch": 81,
      "t_note_us": 159576553,
      "t_trigger_us": 159440590,
      "is_ai": true,
      "track_id": 1,
      "velocity": 0,
      "is_motor": false,
      "motor_id": 0,
      "accel_val": 2000,
      "base_duration_us": 115384
    },
    {
      "id": "M_1748",
      "pitch": 79,
      "t_note_us": 159691937,
      "t_trigger_us": 159555974,
      "is_ai": true,
      "track_id": 0,
      "velocity": 0,
      "is_motor": false,
      "motor_id": 0,
      "accel_val": 2000,
      "base_duration_us": 115384
    },
    {
      "id": "M_1749",
      "pitch": 81,
      "t_note_us": 159807321,
      "t_trigger_us": 159671358,
      "is_ai": true,
      "track_id": 1,
      "velocity": 0,
      "is_motor": false,
      "motor_id": 0,
      "accel_val": 2000,
      "base_duration_us": 115384
    },
    {
      "id": "M_1751",
      "pitch": 79,
      "t_note_us": 159922705,
      "t_trigger_us": 159786742,
      "is_ai": true,
      "track_id": 0,
      "velocity": 0,
      "is_motor": false,
      "motor_id": 0,
      "accel_val": 2000,
      "base_duration_us": 115384
    },
    {
      "id": "M_1753",
      "pitch": 50,
      "t_note_us": 159922705,
      "t_trigger_us": 159786742,
      "is_ai": false,
      "track_id": 0,
      "velocity": 0,
      "is_motor": true,
      "motor_id": 0,
      "accel_val": 2000,
      "base_duration_us": 230768
    },
    {
      "id": "M_1752",
      "pitch": 74,
      "t_note_us": 160038089,
      "t_trigger_us": 159902126,
      "is_ai": false,
      "track_id": 0,
      "velocity": 0,
      "is_motor": true,
      "motor_id": 1,
      "accel_val": 2000,
      "base_duration_us": 115384
    },
    {
      "id": "M_1754",
      "pitch": 53,
      "t_note_us": 160153473,
      "t_trigger_us": 160017510,
      "is_ai": false,
      "track_id": 0,
      "velocity": 0,
      "is_motor": true,
      "motor_id": 0,
      "accel_val": 2000,
      "base_duration_us": 230769
    },
    {
      "id": "M_1755",
      "pitch": 81,
      "t_note_us": 160392655,
      "t_trigger_us": 160256692,
      "is_ai": true,
      "track_id": 1,
      "velocity": 0,
      "is_motor": false,
      "motor_id": 0,
      "accel_val": 2000,
      "base_duration_us": 230769
    },
    {
      "id": "M_1756",
      "pitch": 50,
      "t_note_us": 160392655,
      "t_trigger_us": 160256692,
      "is_ai": false,
      "track_id": 0,
      "velocity": 0,
      "is_motor": true,
      "motor_id": 0,
      "accel_val": 2000,
      "base_duration_us": 230769
    },
    {
      "id": "M_1758",
      "pitch": 84,
      "t_note_us": 160623424,
      "t_trigger_us": 160487461,
      "is_ai": true,
      "track_id": 3,
      "velocity": 0,
      "is_motor": false,
      "motor_id": 0,
      "accel_val": 2000,
      "base_duration_us": 230769
    },
    {
      "id": "M_1757",
      "pitch": 46,
      "t_note_us": 160623424,
      "t_trigger_us": 160487461,
      "is_ai": false,
      "track_id": 0,
      "velocity": 0,
      "is_motor": true,
      "motor_id": 0,
      "accel_val": 2000,
      "base_duration_us": 230769
    },
    {
      "id": "M_1759",
      "pitch": 84,
      "t_note_us": 160854193,
      "t_trigger_us": 160718230,
      "is_ai": true,
      "track_id": 3,
      "velocity": 0,
      "is_motor": false,
      "motor_id": 0,
      "accel_val": 2000,
      "base_duration_us": 115384
    },
    {
      "id": "M_1761",
      "pitch": 58,
      "t_note_us": 160854193,
      "t_trigger_us": 160718230,
      "is_ai": false,
      "track_id": 0,
      "velocity": 0,
      "is_motor": true,
      "motor_id": 0,
      "accel_val": 2000,
      "base_duration_us": 230768
    },
    {
      "id": "M_1760",
      "pitch": 84,
      "t_note_us": 160969577,
      "t_trigger_us": 160833614,
      "is_ai": true,
      "track_id": 3,
      "velocity": 0,
      "is_motor": false,
      "motor_id": 0,
      "accel_val": 2000,
      "base_duration_us": 115384
    },
    {
      "id": "M_1762",
      "pitch": 84,
      "t_note_us": 161084961,
      "t_trigger_us": 160948998,
      "is_ai": true,
      "track_id": 3,
      "velocity": 0,
      "is_motor": false,
      "motor_id": 0,
      "accel_val": 2000,
      "base_duration_us": 230769
    },
    {
      "id": "M_1763",
      "pitch": 46,
      "t_note_us": 161084961,
      "t_trigger_us": 160948998,
      "is_ai": false,
      "track_id": 0,
      "velocity": 0,
      "is_motor": true,
      "motor_id": 0,
      "accel_val": 2000,
      "base_duration_us": 230769
    },
    {
      "id": "M_1765",
      "pitch": 84,
      "t_note_us": 161315730,
      "t_trigger_us": 161179767,
      "is_ai": true,
      "track_id": 3,
      "velocity": 0,
      "is_motor": false,
      "motor_id": 0,
      "accel_val": 2000,
      "base_duration_us": 230769
    },
    {
      "id": "M_1764",
      "pitch": 58,
      "t_note_us": 161315730,
      "t_trigger_us": 161179767,
      "is_ai": false,
      "track_id": 0,
      "velocity": 0,
      "is_motor": true,
      "motor_id": 0,
      "accel_val": 2000,
      "base_duration_us": 230769
    },
    {
      "id": "M_1766",
      "pitch": 84,
      "t_note_us": 161546499,
      "t_trigger_us": 161410536,
      "is_ai": true,
      "track_id": 3,
      "velocity": 0,
      "is_motor": false,
      "motor_id": 0,
      "accel_val": 2000,
      "base_duration_us": 230769
    },
    {
      "id": "M_1767",
      "pitch": 45,
      "t_note_us": 161546499,
      "t_trigger_us": 161410536,
      "is_ai": false,
      "track_id": 0,
      "velocity": 0,
      "is_motor": true,
      "motor_id": 0,
      "accel_val": 2000,
      "base_duration_us": 230769
    },
    {
      "id": "M_1768",
      "pitch": 82,
      "t_note_us": 161777268,
      "t_trigger_us": 161641305,
      "is_ai": true,
      "track_id": 0,
      "velocity": 0,
      "is_motor": true,
      "motor_id": 2,
      "accel_val": 2000,
      "base_duration_us": 115384
    },
    {
      "id": "M_1769",
      "pitch": 57,
      "t_note_us": 161777268,
      "t_trigger_us": 161641305,
      "is_ai": false,
      "track_id": 0,
      "velocity": 0,
      "is_motor": true,
      "motor_id": 0,
      "accel_val": 2000,
      "base_duration_us": 230768
    },
    {
      "id": "M_1770",
      "pitch": 81,
      "t_note_us": 161892652,
      "t_trigger_us": 161756689,
      "is_ai": true,
      "track_id": 1,
      "velocity": 0,
      "is_motor": false,
      "motor_id": 0,
      "accel_val": 2000,
      "base_duration_us": 230768
    },
    {
      "id": "M_1771",
      "pitch": 45,
      "t_note_us": 162008036,
      "t_trigger_us": 161872073,
      "is_ai": false,
      "track_id": 0,
      "velocity": 0,
      "is_motor": true,
      "motor_id": 0,
      "accel_val": 2000,
      "base_duration_us": 230768
    },
    {
      "id": "M_1772",
      "pitch": 67,
      "t_note_us": 162123420,
      "t_trigger_us": 161987457,
      "is_ai": false,
      "track_id": 0,
      "velocity": 0,
      "is_motor": true,
      "motor_id": 1,
      "accel_val": 2000,
      "base_duration_us": 230768
    },
    {
      "id": "M_1773",
      "pitch": 57,
      "t_note_us": 162238804,
      "t_trigger_us": 162102841,
      "is_ai": false,
      "track_id": 0,
      "velocity": 0,
      "is_motor": true,
      "motor_id": 0,
      "accel_val": 2000,
      "base_duration_us": 230768
    },
    {
      "id": "M_1775",
      "pitch": 79,
      "t_note_us": 162354188,
      "t_trigger_us": 162218225,
      "is_ai": true,
      "track_id": 0,
      "velocity": 0,
      "is_motor": false,
      "motor_id": 0,
      "accel_val": 2000,
      "base_duration_us": 346153
    },
    {
      "id": "M_1774",
      "pitch": 50,
      "t_note_us": 162469572,
      "t_trigger_us": 162333609,
      "is_ai": false,
      "track_id": 0,
      "velocity": 0,
      "is_motor": true,
      "motor_id": 0,
      "accel_val": 2000,
      "base_duration_us": 230769
    },
    {
      "id": "M_1776",
      "pitch": 77,
      "t_note_us": 162700341,
      "t_trigger_us": 162564378,
      "is_ai": false,
      "track_id": 0,
      "velocity": 0,
      "is_motor": true,
      "motor_id": 2,
      "accel_val": 2000,
      "base_duration_us": 230769
    },
    {
      "id": "M_1777",
      "pitch": 62,
      "t_note_us": 162700341,
      "t_trigger_us": 162564378,
      "is_ai": false,
      "track_id": 0,
      "velocity": 0,
      "is_motor": true,
      "motor_id": 1,
      "accel_val": 2000,
      "base_duration_us": 230769
    },
    {
      "id": "M_1778",
      "pitch": 50,
      "t_note_us": 162931110,
      "t_trigger_us": 162795147,
      "is_ai": false,
      "track_id": 0,
      "velocity": 0,
      "is_motor": true,
      "motor_id": 0,
      "accel_val": 2000,
      "base_duration_us": 230769
    },
    {
      "id": "M_1779",
      "pitch": 74,
      "t_note_us": 162931110,
      "t_trigger_us": 162795147,
      "is_ai": false,
      "track_id": 0,
      "velocity": 0,
      "is_motor": true,
      "motor_id": 1,
      "accel_val": 2000,
      "base_duration_us": 230769
    },
    {
      "id": "M_1780",
      "pitch": 77,
      "t_note_us": 163161879,
      "t_trigger_us": 163025916,
      "is_ai": false,
      "track_id": 0,
      "velocity": 0,
      "is_motor": true,
      "motor_id": 2,
      "accel_val": 2000,
      "base_duration_us": 230769
    },
    {
      "id": "M_1781",
      "pitch": 62,
      "t_note_us": 163161879,
      "t_trigger_us": 163025916,
      "is_ai": false,
      "track_id": 0,
      "velocity": 0,
      "is_motor": true,
      "motor_id": 1,
      "accel_val": 2000,
      "base_duration_us": 230769
    },
    {
      "id": "M_1783",
      "pitch": 86,
      "t_note_us": 163392648,
      "t_trigger_us": 163256685,
      "is_ai": true,
      "track_id": 4,
      "velocity": 0,
      "is_motor": false,
      "motor_id": 0,
      "accel_val": 2000,
      "base_duration_us": 230769
    },
    {
      "id": "M_1782",
      "pitch": 53,
      "t_note_us": 163392648,
      "t_trigger_us": 163256685,
      "is_ai": false,
      "track_id": 0,
      "velocity": 0,
      "is_motor": true,
      "motor_id": 0,
      "accel_val": 2000,
      "base_duration_us": 230769
    },
    {
      "id": "M_1784",
      "pitch": 84,
      "t_note_us": 163623417,
      "t_trigger_us": 163487454,
      "is_ai": true,
      "track_id": 3,
      "velocity": 0,
      "is_motor": false,
      "motor_id": 0,
      "accel_val": 2000,
      "base_duration_us": 115384
    },
    {
      "id": "M_1786",
      "pitch": 65,
      "t_note_us": 163623417,
      "t_trigger_us": 163487454,
      "is_ai": false,
      "track_id": 0,
      "velocity": 0,
      "is_motor": true,
      "motor_id": 1,
      "accel_val": 2000,
      "base_duration_us": 230768
    },
    {
      "id": "M_1785",
      "pitch": 81,
      "t_note_us": 163738801,
      "t_trigger_us": 163602838,
      "is_ai": true,
      "track_id": 1,
      "velocity": 0,
      "is_motor": false,
      "motor_id": 0,
      "accel_val": 2000,
      "base_duration_us": 115384
    },
    {
      "id": "M_1787",
      "pitch": 53,
      "t_note_us": 163854185,
      "t_trigger_us": 163718222,
      "is_ai": false,
      "track_id": 0,
      "velocity": 0,
      "is_motor": true,
      "motor_id": 0,
      "accel_val": 2000,
      "base_duration_us": 230768
    },
    {
      "id": "M_1788",
      "pitch": 84,
      "t_note_us": 163969569,
      "t_trigger_us": 163833606,
      "is_ai": true,
      "track_id": 3,
      "velocity": 0,
      "is_motor": false,
      "motor_id": 0,
      "accel_val": 2000,
      "base_duration_us": 230768
    },
    {
      "id": "M_1789",
      "pitch": 65,
      "t_note_us": 164084953,
      "t_trigger_us": 163948990,
      "is_ai": false,
      "track_id": 0,
      "velocity": 0,
      "is_motor": true,
      "motor_id": 1,
      "accel_val": 2000,
      "base_duration_us": 230768
    },
    {
      "id": "M_1791",
      "pitch": 81,
      "t_note_us": 164200337,
      "t_trigger_us": 164064374,
      "is_ai": true,
      "track_id": 1,
      "velocity": 0,
      "is_motor": false,
      "motor_id": 0,
      "accel_val": 2000,
      "base_duration_us": 346153
    },
    {
      "id": "M_1790",
      "pitch": 46,
      "t_note_us": 164315721,
      "t_trigger_us": 164179758,
      "is_ai": false,
      "track_id": 0,
      "velocity": 0,
      "is_motor": true,
      "motor_id": 0,
      "accel_val": 2000,
      "base_duration_us": 230769
    },
    {
      "id": "M_1792",
      "pitch": 74,
      "t_note_us": 164546490,
      "t_trigger_us": 164410527,
      "is_ai": false,
      "track_id": 0,
      "velocity": 0,
      "is_motor": true,
      "motor_id": 1,
      "accel_val": 2000,
      "base_duration_us": 115384
    },
    {
      "id": "M_1793",
      "pitch": 58,
      "t_note_us": 164546490,
      "t_trigger_us": 164410527,
      "is_ai": false,
      "track_id": 0,
      "velocity": 0,
      "is_motor": true,
      "motor_id": 0,
      "accel_val": 2000,
      "base_duration_us": 230768
    },
    {
      "id": "M_1794",
      "pitch": 74,
      "t_note_us": 164661874,
      "t_trigger_us": 164525911,
      "is_ai": false,
      "track_id": 0,
      "velocity": 0,
      "is_motor": true,
      "motor_id": 1,
      "accel_val": 2000,
      "base_duration_us": 230768
    },
    {
      "id": "M_1795",
      "pitch": 46,
      "t_note_us": 164777258,
      "t_trigger_us": 164641295,
      "is_ai": false,
      "track_id": 0,
      "velocity": 0,
      "is_motor": true,
      "motor_id": 0,
      "accel_val": 2000,
      "base_duration_us": 230768
    },
    {
      "id": "M_1796",
      "pitch": 69,
      "t_note_us": 164892642,
      "t_trigger_us": 164756679,
      "is_ai": false,
      "track_id": 0,
      "velocity": 0,
      "is_motor": true,
      "motor_id": 1,
      "accel_val": 2000,
      "base_duration_us": 230768
    },
    {
      "id": "M_1797",
      "pitch": 58,
      "t_note_us": 165008026,
      "t_trigger_us": 164872063,
      "is_ai": false,
      "track_id": 0,
      "velocity": 0,
      "is_motor": true,
      "motor_id": 0,
      "accel_val": 2000,
      "base_duration_us": 230768
    },
    {
      "id": "M_1799",
      "pitch": 79,
      "t_note_us": 165123410,
      "t_trigger_us": 164987447,
      "is_ai": true,
      "track_id": 0,
      "velocity": 0,
      "is_motor": false,
      "motor_id": 0,
      "accel_val": 2000,
      "base_duration_us": 346153
    },
    {
      "id": "M_1798",
      "pitch": 45,
      "t_note_us": 165238794,
      "t_trigger_us": 165102831,
      "is_ai": false,
      "track_id": 0,
      "velocity": 0,
      "is_motor": true,
      "motor_id": 0,
      "accel_val": 2000,
      "base_duration_us": 230769
    },
    {
      "id": "M_1801",
      "pitch": 81,
      "t_note_us": 165469563,
      "t_trigger_us": 165333600,
      "is_ai": true,
      "track_id": 1,
      "velocity": 0,
      "is_motor": false,
      "motor_id": 0,
      "accel_val": 2000,
      "base_duration_us": 230769
    },
    {
      "id": "M_1800",
      "pitch": 57,
      "t_note_us": 165469563,
      "t_trigger_us": 165333600,
      "is_ai": false,
      "track_id": 0,
      "velocity": 0,
      "is_motor": true,
      "motor_id": 0,
      "accel_val": 2000,
      "base_duration_us": 230769
    },
    {
      "id": "M_1803",
      "pitch": 89,
      "t_note_us": 165700332,
      "t_trigger_us": 165564369,
      "is_ai": true,
      "track_id": 6,
      "velocity": 0,
      "is_motor": false,
      "motor_id": 0,
      "accel_val": 2000,
      "base_duration_us": 230769
    },
    {
      "id": "M_1802",
      "pitch": 45,
      "t_note_us": 165700332,
      "t_trigger_us": 165564369,
      "is_ai": false,
      "track_id": 0,
      "velocity": 0,
      "is_motor": true,
      "motor_id": 0,
      "accel_val": 2000,
      "base_duration_us": 230769
    },
    {
      "id": "M_1805",
      "pitch": 88,
      "t_note_us": 165931101,
      "t_trigger_us": 165795138,
      "is_ai": true,
      "track_id": 5,
      "velocity": 0,
      "is_motor": false,
      "motor_id": 0,
      "accel_val": 2000,
      "base_duration_us": 230769
    },
    {
      "id": "M_1804",
      "pitch": 57,
      "t_note_us": 165931101,
      "t_trigger_us": 165795138,
      "is_ai": false,
      "track_id": 0,
      "velocity": 0,
      "is_motor": true,
      "motor_id": 0,
      "accel_val": 2000,
      "base_duration_us": 230769
    },
    {
      "id": "M_1806",
      "pitch": 84,
      "t_note_us": 166161870,
      "t_trigger_us": 166025907,
      "is_ai": true,
      "track_id": 3,
      "velocity": 0,
      "is_motor": false,
      "motor_id": 0,
      "accel_val": 2000,
      "base_duration_us": 230769
    },
    {
      "id": "M_1807",
      "pitch": 50,
      "t_note_us": 166161870,
      "t_trigger_us": 166025907,
      "is_ai": false,
      "track_id": 0,
      "velocity": 0,
      "is_motor": true,
      "motor_id": 0,
      "accel_val": 2000,
      "base_duration_us": 230769
    },
    {
      "id": "M_1808",
      "pitch": 81,
      "t_note_us": 166392639,
      "t_trigger_us": 166256676,
      "is_ai": true,
      "track_id": 1,
      "velocity": 0,
      "is_motor": false,
      "motor_id": 0,
      "accel_val": 2000,
      "base_duration_us": 115384
    },
    {
      "id": "M_1809",
      "pitch": 62,
      "t_note_us": 166392639,
      "t_trigger_us": 166256676,
      "is_ai": false,
      "track_id": 0,
      "velocity": 0,
      "is_motor": true,
      "motor_id": 1,
      "accel_val": 2000,
      "base_duration_us": 230768
    },
    {
      "id": "M_1810",
      "pitch": 84,
      "t_note_us": 166508023,
      "t_trigger_us": 166372060,
      "is_ai": true,
      "track_id": 3,
      "velocity": 0,
      "is_motor": false,
      "motor_id": 0,
      "accel_val": 2000,
      "base_duration_us": 230768
    },
    {
      "id": "M_1811",
      "pitch": 50,
      "t_note_us": 166623407,
      "t_trigger_us": 166487444,
      "is_ai": false,
      "track_id": 0,
      "velocity": 0,
      "is_motor": true,
      "motor_id": 0,
      "accel_val": 2000,
      "base_duration_us": 230768
    },
    {
      "id": "M_1812",
      "pitch": 86,
      "t_note_us": 166738791,
      "t_trigger_us": 166602828,
      "is_ai": true,
      "track_id": 4,
      "velocity": 0,
      "is_motor": false,
      "motor_id": 0,
      "accel_val": 2000,
      "base_duration_us": 230768
    },
    {
      "id": "M_1813",
      "pitch": 62,
      "t_note_us": 166854175,
      "t_trigger_us": 166718212,
      "is_ai": false,
      "track_id": 0,
      "velocity": 0,
      "is_motor": true,
      "motor_id": 1,
      "accel_val": 2000,
      "base_duration_us": 230768
    },
    {
      "id": "M_1815",
      "pitch": 84,
      "t_note_us": 166969559,
      "t_trigger_us": 166833596,
      "is_ai": true,
      "track_id": 3,
      "velocity": 0,
      "is_motor": false,
      "motor_id": 0,
      "accel_val": 2000,
      "base_duration_us": 346153
    },
    {
      "id": "M_1814",
      "pitch": 51,
      "t_note_us": 167084943,
      "t_trigger_us": 166948980,
      "is_ai": false,
      "track_id": 0,
      "velocity": 0,
      "is_motor": true,
      "motor_id": 0,
      "accel_val": 2000,
      "base_duration_us": 230769
    },
    {
      "id": "M_1817",
      "pitch": 81,
      "t_note_us": 167315712,
      "t_trigger_us": 167179749,
      "is_ai": true,
      "track_id": 1,
      "velocity": 0,
      "is_motor": false,
      "motor_id": 0,
      "accel_val": 2000,
      "base_duration_us": 230769
    },
    {
      "id": "M_1816",
      "pitch": 63,
      "t_note_us": 167315712,
      "t_trigger_us": 167179749,
      "is_ai": false,
      "track_id": 0,
      "velocity": 0,
      "is_motor": true,
      "motor_id": 1,
      "accel_val": 2000,
      "base_duration_us": 230769
    },
    {
      "id": "M_1818",
      "pitch": 79,
      "t_note_us": 167546481,
      "t_trigger_us": 167410518,
      "is_ai": true,
      "track_id": 0,
      "velocity": 0,
      "is_motor": false,
      "motor_id": 0,
      "accel_val": 2000,
      "base_duration_us": 230769
    },
    {
      "id": "M_1819",
      "pitch": 53,
      "t_note_us": 167546481,
      "t_trigger_us": 167410518,
      "is_ai": false,
      "track_id": 0,
      "velocity": 0,
      "is_motor": true,
      "motor_id": 0,
      "accel_val": 2000,
      "base_duration_us": 230769
    },
    {
      "id": "M_1820",
      "pitch": 77,
      "t_note_us": 167777250,
      "t_trigger_us": 167641287,
      "is_ai": false,
      "track_id": 0,
      "velocity": 0,
      "is_motor": true,
      "motor_id": 2,
      "accel_val": 2000,
      "base_duration_us": 230769
    },
    {
      "id": "M_1821",
      "pitch": 65,
      "t_note_us": 167777250,
      "t_trigger_us": 167641287,
      "is_ai": false,
      "track_id": 0,
      "velocity": 0,
      "is_motor": true,
      "motor_id": 1,
      "accel_val": 2000,
      "base_duration_us": 230769
    },
    {
      "id": "M_1823",
      "pitch": 84,
      "t_note_us": 168008019,
      "t_trigger_us": 167872056,
      "is_ai": true,
      "track_id": 3,
      "velocity": 0,
      "is_motor": false,
      "motor_id": 0,
      "accel_val": 2000,
      "base_duration_us": 230769
    },
    {
      "id": "M_1822",
      "pitch": 46,
      "t_note_us": 168008019,
      "t_trigger_us": 167872056,
      "is_ai": false,
      "track_id": 0,
      "velocity": 0,
      "is_motor": true,
      "motor_id": 0,
      "accel_val": 2000,
      "base_duration_us": 230769
    },
    {
      "id": "M_1824",
      "pitch": 84,
      "t_note_us": 168238788,
      "t_trigger_us": 168102825,
      "is_ai": true,
      "track_id": 3,
      "velocity": 0,
      "is_motor": false,
      "motor_id": 0,
      "accel_val": 2000,
      "base_duration_us": 115384
    },
    {
      "id": "M_1826",
      "pitch": 58,
      "t_note_us": 168238788,
      "t_trigger_us": 168102825,
      "is_ai": false,
      "track_id": 0,
      "velocity": 0,
      "is_motor": true,
      "motor_id": 0,
      "accel_val": 2000,
      "base_duration_us": 230768
    },
    {
      "id": "M_1825",
      "pitch": 84,
      "t_note_us": 168354172,
      "t_trigger_us": 168218209,
      "is_ai": true,
      "track_id": 3,
      "velocity": 0,
      "is_motor": false,
      "motor_id": 0,
      "accel_val": 2000,
      "base_duration_us": 115384
    },
    {
      "id": "M_1828",
      "pitch": 84,
      "t_note_us": 168469556,
      "t_trigger_us": 168333593,
      "is_ai": true,
      "track_id": 3,
      "velocity": 0,
      "is_motor": false,
      "motor_id": 0,
      "accel_val": 2000,
      "base_duration_us": 230769
    },
    {
      "id": "M_1827",
      "pitch": 46,
      "t_note_us": 168469556,
      "t_trigger_us": 168333593,
      "is_ai": false,
      "track_id": 0,
      "velocity": 0,
      "is_motor": true,
      "motor_id": 0,
      "accel_val": 2000,
      "base_duration_us": 230769
    },
    {
      "id": "M_1829",
      "pitch": 84,
      "t_note_us": 168700325,
      "t_trigger_us": 168564362,
      "is_ai": true,
      "track_id": 3,
      "velocity": 0,
      "is_motor": false,
      "motor_id": 0,
      "accel_val": 2000,
      "base_duration_us": 230769
    },
    {
      "id": "M_1830",
      "pitch": 58,
      "t_note_us": 168700325,
      "t_trigger_us": 168564362,
      "is_ai": false,
      "track_id": 0,
      "velocity": 0,
      "is_motor": true,
      "motor_id": 0,
      "accel_val": 2000,
      "base_duration_us": 230769
    },
    {
      "id": "M_1832",
      "pitch": 84,
      "t_note_us": 168931094,
      "t_trigger_us": 168795131,
      "is_ai": true,
      "track_id": 3,
      "velocity": 0,
      "is_motor": false,
      "motor_id": 0,
      "accel_val": 2000,
      "base_duration_us": 230769
    },
    {
      "id": "M_1831",
      "pitch": 48,
      "t_note_us": 168931094,
      "t_trigger_us": 168795131,
      "is_ai": false,
      "track_id": 0,
      "velocity": 0,
      "is_motor": true,
      "motor_id": 0,
      "accel_val": 2000,
      "base_duration_us": 230769
    },
    {
      "id": "M_1833",
      "pitch": 82,
      "t_note_us": 169161863,
      "t_trigger_us": 169025900,
      "is_ai": true,
      "track_id": 0,
      "velocity": 0,
      "is_motor": true,
      "motor_id": 2,
      "accel_val": 2000,
      "base_duration_us": 115384
    },
    {
      "id": "M_1834",
      "pitch": 60,
      "t_note_us": 169161863,
      "t_trigger_us": 169025900,
      "is_ai": false,
      "track_id": 0,
      "velocity": 0,
      "is_motor": true,
      "motor_id": 1,
      "accel_val": 2000,
      "base_duration_us": 230768
    },
    {
      "id": "M_1835",
      "pitch": 81,
      "t_note_us": 169277247,
      "t_trigger_us": 169141284,
      "is_ai": true,
      "track_id": 1,
      "velocity": 0,
      "is_motor": false,
      "motor_id": 0,
      "accel_val": 2000,
      "base_duration_us": 230768
    },
    {
      "id": "M_1836",
      "pitch": 48,
      "t_note_us": 169392631,
      "t_trigger_us": 169256668,
      "is_ai": false,
      "track_id": 0,
      "velocity": 0,
      "is_motor": true,
      "motor_id": 0,
      "accel_val": 2000,
      "base_duration_us": 230768
    },
    {
      "id": "M_1837",
      "pitch": 84,
      "t_note_us": 169508015,
      "t_trigger_us": 169372052,
      "is_ai": true,
      "track_id": 3,
      "velocity": 0,
      "is_motor": false,
      "motor_id": 0,
      "accel_val": 2000,
      "base_duration_us": 230768
    },
    {
      "id": "M_1838",
      "pitch": 60,
      "t_note_us": 169623399,
      "t_trigger_us": 169487436,
      "is_ai": false,
      "track_id": 0,
      "velocity": 0,
      "is_motor": true,
      "motor_id": 1,
      "accel_val": 2000,
      "base_duration_us": 230768
    },
    {
      "id": "M_1840",
      "pitch": 79,
      "t_note_us": 169738783,
      "t_trigger_us": 169602820,
      "is_ai": true,
      "track_id": 0,
      "velocity": 0,
      "is_motor": false,
      "motor_id": 0,
      "accel_val": 2000,
      "base_duration_us": 346153
    },
    {
      "id": "M_1839",
      "pitch": 45,
      "t_note_us": 169854167,
      "t_trigger_us": 169718204,
      "is_ai": false,
      "track_id": 0,
      "velocity": 0,
      "is_motor": true,
      "motor_id": 0,
      "accel_val": 2000,
      "base_duration_us": 230769
    },
    {
      "id": "M_1841",
      "pitch": 77,
      "t_note_us": 170084936,
      "t_trigger_us": 169948973,
      "is_ai": false,
      "track_id": 0,
      "velocity": 0,
      "is_motor": true,
      "motor_id": 2,
      "accel_val": 2000,
      "base_duration_us": 230769
    },
    {
      "id": "M_1842",
      "pitch": 57,
      "t_note_us": 170084936,
      "t_trigger_us": 169948973,
      "is_ai": false,
      "track_id": 0,
      "velocity": 0,
      "is_motor": true,
      "motor_id": 0,
      "accel_val": 2000,
      "base_duration_us": 230769
    },
    {
      "id": "M_1843",
      "pitch": 74,
      "t_note_us": 170315705,
      "t_trigger_us": 170179742,
      "is_ai": false,
      "track_id": 0,
      "velocity": 0,
      "is_motor": true,
      "motor_id": 1,
      "accel_val": 2000,
      "base_duration_us": 230769
    },
    {
      "id": "M_1844",
      "pitch": 45,
      "t_note_us": 170315705,
      "t_trigger_us": 170179742,
      "is_ai": false,
      "track_id": 0,
      "velocity": 0,
      "is_motor": true,
      "motor_id": 0,
      "accel_val": 2000,
      "base_duration_us": 230769
    },
    {
      "id": "M_1845",
      "pitch": 57,
      "t_note_us": 170546474,
      "t_trigger_us": 170410511,
      "is_ai": false,
      "track_id": 0,
      "velocity": 0,
      "is_motor": true,
      "motor_id": 0,
      "accel_val": 2000,
      "base_duration_us": 230769
    },
    {
      "id": "M_1846",
      "pitch": 77,
      "t_note_us": 170546474,
      "t_trigger_us": 170410511,
      "is_ai": false,
      "track_id": 0,
      "velocity": 0,
      "is_motor": true,
      "motor_id": 2,
      "accel_val": 2000,
      "base_duration_us": 230769
    },
    {
      "id": "M_1848",
      "pitch": 86,
      "t_note_us": 170777243,
      "t_trigger_us": 170641280,
      "is_ai": true,
      "track_id": 4,
      "velocity": 0,
      "is_motor": false,
      "motor_id": 0,
      "accel_val": 2000,
      "base_duration_us": 230769
    },
    {
      "id": "M_1847",
      "pitch": 50,
      "t_note_us": 170777243,
      "t_trigger_us": 170641280,
      "is_ai": false,
      "track_id": 0,
      "velocity": 0,
      "is_motor": true,
      "motor_id": 0,
      "accel_val": 2000,
      "base_duration_us": 230769
    },
    {
      "id": "M_1850",
      "pitch": 84,
      "t_note_us": 171008012,
      "t_trigger_us": 170872049,
      "is_ai": true,
      "track_id": 3,
      "velocity": 0,
      "is_motor": false,
      "motor_id": 0,
      "accel_val": 2000,
      "base_duration_us": 230769
    },
    {
      "id": "M_1849",
      "pitch": 62,
      "t_note_us": 171008012,
      "t_trigger_us": 170872049,
      "is_ai": false,
      "track_id": 0,
      "velocity": 0,
      "is_motor": true,
      "motor_id": 1,
      "accel_val": 2000,
      "base_duration_us": 230769
    },
    {
      "id": "M_1851",
      "pitch": 81,
      "t_note_us": 171238781,
      "t_trigger_us": 171102818,
      "is_ai": true,
      "track_id": 1,
      "velocity": 0,
      "is_motor": false,
      "motor_id": 0,
      "accel_val": 2000,
      "base_duration_us": 230769
    },
    {
      "id": "M_1852",
      "pitch": 50,
      "t_note_us": 171238781,
      "t_trigger_us": 171102818,
      "is_ai": false,
      "track_id": 0,
      "velocity": 0,
      "is_motor": true,
      "motor_id": 0,
      "accel_val": 2000,
      "base_duration_us": 230769
    },
    {
      "id": "M_1853",
      "pitch": 79,
      "t_note_us": 171469550,
      "t_trigger_us": 171333587,
      "is_ai": true,
      "track_id": 0,
      "velocity": 0,
      "is_motor": false,
      "motor_id": 0,
      "accel_val": 2000,
      "base_duration_us": 230769
    },
    {
      "id": "M_1854",
      "pitch": 62,
      "t_note_us": 171469550,
      "t_trigger_us": 171333587,
      "is_ai": false,
      "track_id": 0,
      "velocity": 0,
      "is_motor": true,
      "motor_id": 1,
      "accel_val": 2000,
      "base_duration_us": 230769
    },
    {
      "id": "M_1855",
      "pitch": 77,
      "t_note_us": 171700319,
      "t_trigger_us": 171564356,
      "is_ai": false,
      "track_id": 0,
      "velocity": 0,
      "is_motor": true,
      "motor_id": 2,
      "accel_val": 2000,
      "base_duration_us": 230769
    },
    {
      "id": "M_1856",
      "pitch": 46,
      "t_note_us": 171700319,
      "t_trigger_us": 171564356,
      "is_ai": false,
      "track_id": 0,
      "velocity": 0,
      "is_motor": true,
      "motor_id": 0,
      "accel_val": 2000,
      "base_duration_us": 230769
    },
    {
      "id": "M_1857",
      "pitch": 74,
      "t_note_us": 171931088,
      "t_trigger_us": 171795125,
      "is_ai": false,
      "track_id": 0,
      "velocity": 0,
      "is_motor": true,
      "motor_id": 1,
      "accel_val": 2000,
      "base_duration_us": 230769
    },
    {
      "id": "M_1858",
      "pitch": 58,
      "t_note_us": 171931088,
      "t_trigger_us": 171795125,
      "is_ai": false,
      "track_id": 0,
      "velocity": 0,
      "is_motor": true,
      "motor_id": 0,
      "accel_val": 2000,
      "base_duration_us": 230769
    },
    {
      "id": "M_1859",
      "pitch": 77,
      "t_note_us": 172161857,
      "t_trigger_us": 172025894,
      "is_ai": false,
      "track_id": 0,
      "velocity": 0,
      "is_motor": true,
      "motor_id": 2,
      "accel_val": 2000,
      "base_duration_us": 230769
    },
    {
      "id": "M_1860",
      "pitch": 46,
      "t_note_us": 172161857,
      "t_trigger_us": 172025894,
      "is_ai": false,
      "track_id": 0,
      "velocity": 0,
      "is_motor": true,
      "motor_id": 0,
      "accel_val": 2000,
      "base_duration_us": 230769
    },
    {
      "id": "M_1861",
      "pitch": 82,
      "t_note_us": 172392626,
      "t_trigger_us": 172256663,
      "is_ai": true,
      "track_id": 0,
      "velocity": 0,
      "is_motor": true,
      "motor_id": 2,
      "accel_val": 2000,
      "base_duration_us": 230769
    },
    {
      "id": "M_1862",
      "pitch": 58,
      "t_note_us": 172392626,
      "t_trigger_us": 172256663,
      "is_ai": false,
      "track_id": 0,
      "velocity": 0,
      "is_motor": true,
      "motor_id": 0,
      "accel_val": 2000,
      "base_duration_us": 230769
    },
    {
      "id": "M_1864",
      "pitch": 81,
      "t_note_us": 172623395,
      "t_trigger_us": 172487432,
      "is_ai": true,
      "track_id": 1,
      "velocity": 0,
      "is_motor": false,
      "motor_id": 0,
      "accel_val": 2000,
      "base_duration_us": 230769
    },
    {
      "id": "M_1863",
      "pitch": 45,
      "t_note_us": 172623395,
      "t_trigger_us": 172487432,
      "is_ai": false,
      "track_id": 0,
      "velocity": 0,
      "is_motor": true,
      "motor_id": 0,
      "accel_val": 2000,
      "base_duration_us": 230769
    },
    {
      "id": "M_1865",
      "pitch": 57,
      "t_note_us": 172854164,
      "t_trigger_us": 172718201,
      "is_ai": false,
      "track_id": 0,
      "velocity": 0,
      "is_motor": true,
      "motor_id": 0,
      "accel_val": 2000,
      "base_duration_us": 230769
    },
    {
      "id": "M_1866",
      "pitch": 77,
      "t_note_us": 172854164,
      "t_trigger_us": 172718201,
      "is_ai": false,
      "track_id": 0,
      "velocity": 0,
      "is_motor": true,
      "motor_id": 2,
      "accel_val": 2000,
      "base_duration_us": 230769
    },
    {
      "id": "M_1867",
      "pitch": 45,
      "t_note_us": 173084933,
      "t_trigger_us": 172948970,
      "is_ai": false,
      "track_id": 0,
      "velocity": 0,
      "is_motor": true,
      "motor_id": 0,
      "accel_val": 2000,
      "base_duration_us": 230769
    },
    {
      "id": "M_1868",
      "pitch": 74,
      "t_note_us": 173084933,
      "t_trigger_us": 172948970,
      "is_ai": false,
      "track_id": 0,
      "velocity": 0,
      "is_motor": true,
      "motor_id": 1,
      "accel_val": 2000,
      "base_duration_us": 230769
    },
    {
      "id": "M_1869",
      "pitch": 57,
      "t_note_us": 173315702,
      "t_trigger_us": 173179739,
      "is_ai": false,
      "track_id": 0,
      "velocity": 0,
      "is_motor": true,
      "motor_id": 0,
      "accel_val": 2000,
      "base_duration_us": 230769
    },
    {
      "id": "M_1871",
      "pitch": 77,
      "t_note_us": 173315702,
      "t_trigger_us": 173179739,
      "is_ai": false,
      "track_id": 0,
      "velocity": 0,
      "is_motor": true,
      "motor_id": 2,
      "accel_val": 2000,
      "base_duration_us": 461538
    },
    {
      "id": "M_1870",
      "pitch": 50,
      "t_note_us": 173546471,
      "t_trigger_us": 173410508,
      "is_ai": false,
      "track_id": 0,
      "velocity": 0,
      "is_motor": true,
      "motor_id": 0,
      "accel_val": 2000,
      "base_duration_us": 230769
    },
    {
      "id": "M_1872",
      "pitch": 62,
      "t_note_us": 173777240,
      "t_trigger_us": 173641277,
      "is_ai": false,
      "track_id": 0,
      "velocity": 0,
      "is_motor": true,
      "motor_id": 1,
      "accel_val": 2000,
      "base_duration_us": 230769
    },
    {
      "id": "M_1873",
      "pitch": 50,
      "t_note_us": 174008009,
      "t_trigger_us": 173872046,
      "is_ai": false,
      "track_id": 0,
      "velocity": 0,
      "is_motor": true,
      "motor_id": 0,
      "accel_val": 2000,
      "base_duration_us": 230769
    },
    {
      "id": "M_1874",
      "pitch": 62,
      "t_note_us": 174238778,
      "t_trigger_us": 174102815,
      "is_ai": false,
      "track_id": 0,
      "velocity": 0,
      "is_motor": true,
      "motor_id": 1,
      "accel_val": 2000,
      "base_duration_us": 230769
    },
    {
      "id": "M_1875",
      "pitch": 50,
      "t_note_us": 174469547,
      "t_trigger_us": 174333584,
      "is_ai": false,
      "track_id": 0,
      "velocity": 0,
      "is_motor": true,
      "motor_id": 0,
      "accel_val": 2000,
      "base_duration_us": 115384
    },
    {
      "id": "M_1876",
      "pitch": 62,
      "t_note_us": 174584931,
      "t_trigger_us": 174448968,
      "is_ai": false,
      "track_id": 0,
      "velocity": 0,
      "is_motor": true,
      "motor_id": 1,
      "accel_val": 2000,
      "base_duration_us": 115384
    },
    {
      "id": "M_1877",
      "pitch": 57,
      "t_note_us": 174700315,
      "t_trigger_us": 174564352,
      "is_ai": false,
      "track_id": 0,
      "velocity": 0,
      "is_motor": true,
      "motor_id": 0,
      "accel_val": 2000,
      "base_duration_us": 115384
    },
    {
      "id": "M_1879",
      "pitch": 72,
      "t_note_us": 174700315,
      "t_trigger_us": 174564352,
      "is_ai": false,
      "track_id": 0,
      "velocity": 0,
      "is_motor": true,
      "motor_id": 1,
      "accel_val": 2000,
      "base_duration_us": 230768
    },
    {
      "id": "M_1878",
      "pitch": 50,
      "t_note_us": 174815699,
      "t_trigger_us": 174679736,
      "is_ai": false,
      "track_id": 0,
      "velocity": 0,
      "is_motor": true,
      "motor_id": 0,
      "accel_val": 2000,
      "base_duration_us": 115384
    },
    {
      "id": "M_1880",
      "pitch": 72,
      "t_note_us": 174931083,
      "t_trigger_us": 174795120,
      "is_ai": false,
      "track_id": 0,
      "velocity": 0,
      "is_motor": true,
      "motor_id": 1,
      "accel_val": 2000,
      "base_duration_us": 115384
    },
    {
      "id": "M_1882",
      "pitch": 62,
      "t_note_us": 174931083,
      "t_trigger_us": 174795120,
      "is_ai": false,
      "track_id": 0,
      "velocity": 0,
      "is_motor": true,
      "motor_id": 0,
      "accel_val": 2000,
      "base_duration_us": 230768
    },
    {
      "id": "M_1883",
      "pitch": 50,
      "t_note_us": 174931083,
      "t_trigger_us": 174795120,
      "is_ai": false,
      "track_id": 0,
      "velocity": 0,
      "is_motor": true,
      "motor_id": 2,
      "accel_val": 2000,
      "base_duration_us": 230768
    },
    {
      "id": "M_1881",
      "pitch": 72,
      "t_note_us": 175046467,
      "t_trigger_us": 174910504,
      "is_ai": false,
      "track_id": 0,
      "velocity": 0,
      "is_motor": true,
      "motor_id": 1,
      "accel_val": 2000,
      "base_duration_us": 115384
    },
    {
      "id": "M_1884",
      "pitch": 72,
      "t_note_us": 175161851,
      "t_trigger_us": 175025888,
      "is_ai": false,
      "track_id": 0,
      "velocity": 0,
      "is_motor": true,
      "motor_id": 1,
      "accel_val": 2000,
      "base_duration_us": 115384
    },
    {
      "id": "M_1886",
      "pitch": 50,
      "t_note_us": 175161851,
      "t_trigger_us": 175025888,
      "is_ai": false,
      "track_id": 0,
      "velocity": 0,
      "is_motor": true,
      "motor_id": 0,
      "accel_val": 2000,
      "base_duration_us": 230768
    },
    {
      "id": "M_1885",
      "pitch": 74,
      "t_note_us": 175277235,
      "t_trigger_us": 175141272,
      "is_ai": false,
      "track_id": 0,
      "velocity": 0,
      "is_motor": true,
      "motor_id": 1,
      "accel_val": 2000,
      "base_duration_us": 115384
    },
    {
      "id": "M_1887",
      "pitch": 58,
      "t_note_us": 175392619,
      "t_trigger_us": 175256656,
      "is_ai": false,
      "track_id": 0,
      "velocity": 0,
      "is_motor": true,
      "motor_id": 0,
      "accel_val": 2000,
      "base_duration_us": 115384
    },
    {
      "id": "M_1888",
      "pitch": 65,
      "t_note_us": 175392619,
      "t_trigger_us": 175256656,
      "is_ai": false,
      "track_id": 0,
      "velocity": 0,
      "is_motor": true,
      "motor_id": 1,
      "accel_val": 2000,
      "base_duration_us": 115384
    },
    {
      "id": "M_1889",
      "pitch": 77,
      "t_note_us": 175392619,
      "t_trigger_us": 175256656,
      "is_ai": false,
      "track_id": 0,
      "velocity": 0,
      "is_motor": true,
      "motor_id": 2,
      "accel_val": 2000,
      "base_duration_us": 230768
    },
    {
      "id": "M_1890",
      "pitch": 74,
      "t_note_us": 175623387,
      "t_trigger_us": 175487424,
      "is_ai": false,
      "track_id": 0,
      "velocity": 0,
      "is_motor": true,
      "motor_id": 1,
      "accel_val": 2000,
      "base_duration_us": 115384
    },
    {
      "id": "M_1891",
      "pitch": 77,
      "t_note_us": 175738771,
      "t_trigger_us": 175602808,
      "is_ai": false,
      "track_id": 0,
      "velocity": 0,
      "is_motor": true,
      "motor_id": 2,
      "accel_val": 2000,
      "base_duration_us": 230769
    },
    {
      "id": "M_1893",
      "pitch": 58,
      "t_note_us": 175738771,
      "t_trigger_us": 175602808,
      "is_ai": false,
      "track_id": 0,
      "velocity": 0,
      "is_motor": true,
      "motor_id": 0,
      "accel_val": 2000,
      "base_duration_us": 346153
    },
    {
      "id": "M_1894",
      "pitch": 65,
      "t_note_us": 175738771,
      "t_trigger_us": 175602808,
      "is_ai": false,
      "track_id": 0,
      "velocity": 0,
      "is_motor": true,
      "motor_id": 1,
      "accel_val": 2000,
      "base_duration_us": 346153
    },
    {
      "id": "M_1892",
      "pitch": 74,
      "t_note_us": 175969540,
      "t_trigger_us": 175833577,
      "is_ai": false,
      "track_id": 0,
      "velocity": 0,
      "is_motor": true,
      "motor_id": 2,
      "accel_val": 2000,
      "base_duration_us": 115384
    },
    {
      "id": "M_1895",
      "pitch": 77,
      "t_note_us": 176084924,
      "t_trigger_us": 175948961,
      "is_ai": false,
      "track_id": 0,
      "velocity": 0,
      "is_motor": true,
      "motor_id": 2,
      "accel_val": 2000,
      "base_duration_us": 230769
    },
    {
      "id": "M_1896",
      "pitch": 65,
      "t_note_us": 176084924,
      "t_trigger_us": 175948961,
      "is_ai": false,
      "track_id": 0,
      "velocity": 0,
      "is_motor": true,
      "motor_id": 1,
      "accel_val": 2000,
      "base_duration_us": 230769
    },
    {
      "id": "M_1897",
      "pitch": 58,
      "t_note_us": 176084924,
      "t_trigger_us": 175948961,
      "is_ai": false,
      "track_id": 0,
      "velocity": 0,
      "is_motor": true,
      "motor_id": 0,
      "accel_val": 2000,
      "base_duration_us": 230769
    },
    {
      "id": "M_1898",
      "pitch": 74,
      "t_note_us": 176431077,
      "t_trigger_us": 176295114,
      "is_ai": false,
      "track_id": 0,
      "velocity": 0,
      "is_motor": true,
      "motor_id": 1,
      "accel_val": 2000,
      "base_duration_us": 115384
    },
    {
      "id": "M_1899",
      "pitch": 81,
      "t_note_us": 176546461,
      "t_trigger_us": 176410498,
      "is_ai": true,
      "track_id": 1,
      "velocity": 0,
      "is_motor": false,
      "motor_id": 0,
      "accel_val": 2000,
      "base_duration_us": 115384
    },
    {
      "id": "M_1900",
      "pitch": 81,
      "t_note_us": 176661845,
      "t_trigger_us": 176525882,
      "is_ai": true,
      "track_id": 1,
      "velocity": 0,
      "is_motor": false,
      "motor_id": 0,
      "accel_val": 2000,
      "base_duration_us": 115384
    },
    {
      "id": "M_1901",
      "pitch": 67,
      "t_note_us": 176777229,
      "t_trigger_us": 176641266,
      "is_ai": false,
      "track_id": 0,
      "velocity": 0,
      "is_motor": true,
      "motor_id": 1,
      "accel_val": 2000,
      "base_duration_us": 230769
    },
    {
      "id": "M_1902",
      "pitch": 81,
      "t_note_us": 177007998,
      "t_trigger_us": 176872035,
      "is_ai": true,
      "track_id": 1,
      "velocity": 0,
      "is_motor": false,
      "motor_id": 0,
      "accel_val": 2000,
      "base_duration_us": 230769
    },
    {
      "id": "M_1905",
      "pitch": 79,
      "t_note_us": 177238767,
      "t_trigger_us": 177102804,
      "is_ai": true,
      "track_id": 0,
      "velocity": 0,
      "is_motor": false,
      "motor_id": 0,
      "accel_val": 2000,
      "base_duration_us": 230768
    },
    {
      "id": "M_1903",
      "pitch": 64,
      "t_note_us": 177238767,
      "t_trigger_us": 177102804,
      "is_ai": false,
      "track_id": 0,
      "velocity": 0,
      "is_motor": true,
      "motor_id": 1,
      "accel_val": 2000,
      "base_duration_us": 115384
    },
    {
      "id": "M_1904",
      "pitch": 57,
      "t_note_us": 177238767,
      "t_trigger_us": 177102804,
      "is_ai": false,
      "track_id": 0,
      "velocity": 0,
      "is_motor": true,
      "motor_id": 0,
      "accel_val": 2000,
      "base_duration_us": 115384
    },
    {
      "id": "M_1906",
      "pitch": 76,
      "t_note_us": 177469535,
      "t_trigger_us": 177333572,
      "is_ai": false,
      "track_id": 0,
      "velocity": 0,
      "is_motor": true,
      "motor_id": 2,
      "accel_val": 2000,
      "base_duration_us": 115384
    },
    {
      "id": "M_1907",
      "pitch": 72,
      "t_note_us": 177584919,
      "t_trigger_us": 177448956,
      "is_ai": false,
      "track_id": 0,
      "velocity": 0,
      "is_motor": true,
      "motor_id": 1,
      "accel_val": 2000,
      "base_duration_us": 230769
    },
    {
      "id": "M_1909",
      "pitch": 64,
      "t_note_us": 177584919,
      "t_trigger_us": 177448956,
      "is_ai": false,
      "track_id": 0,
      "velocity": 0,
      "is_motor": true,
      "motor_id": 0,
      "accel_val": 2000,
      "base_duration_us": 346153
    },
    {
      "id": "M_1910",
      "pitch": 57,
      "t_note_us": 177584919,
      "t_trigger_us": 177448956,
      "is_ai": false,
      "track_id": 0,
      "velocity": 0,
      "is_motor": true,
      "motor_id": 2,
      "accel_val": 2000,
      "base_duration_us": 346153
    },
    {
      "id": "M_1908",
      "pitch": 72,
      "t_note_us": 177815688,
      "t_trigger_us": 177679725,
      "is_ai": false,
      "track_id": 0,
      "velocity": 0,
      "is_motor": true,
      "motor_id": 1,
      "accel_val": 2000,
      "base_duration_us": 115384
    },
    {
      "id": "M_1911",
      "pitch": 74,
      "t_note_us": 177931072,
      "t_trigger_us": 177795109,
      "is_ai": false,
      "track_id": 0,
      "velocity": 0,
      "is_motor": true,
      "motor_id": 1,
      "accel_val": 2000,
      "base_duration_us": 230769
    },
    {
      "id": "M_1912",
      "pitch": 57,
      "t_note_us": 177931072,
      "t_trigger_us": 177795109,
      "is_ai": false,
      "track_id": 0,
      "velocity": 0,
      "is_motor": true,
      "motor_id": 0,
      "accel_val": 2000,
      "base_duration_us": 230769
    },
    {
      "id": "M_1913",
      "pitch": 64,
      "t_note_us": 177931072,
      "t_trigger_us": 177795109,
      "is_ai": false,
      "track_id": 0,
      "velocity": 0,
      "is_motor": true,
      "motor_id": 2,
      "accel_val": 2000,
      "base_duration_us": 230769
    },
    {
      "id": "M_1914",
      "pitch": 81,
      "t_note_us": 178277225,
      "t_trigger_us": 178141262,
      "is_ai": true,
      "track_id": 1,
      "velocity": 0,
      "is_motor": false,
      "motor_id": 0,
      "accel_val": 2000,
      "base_duration_us": 115384
    },
    {
      "id": "M_1915",
      "pitch": 81,
      "t_note_us": 178392609,
      "t_trigger_us": 178256646,
      "is_ai": true,
      "track_id": 1,
      "velocity": 0,
      "is_motor": false,
      "motor_id": 0,
      "accel_val": 2000,
      "base_duration_us": 115384
    },
    {
      "id": "M_1916",
      "pitch": 81,
      "t_note_us": 178507993,
      "t_trigger_us": 178372030,
      "is_ai": true,
      "track_id": 1,
      "velocity": 0,
      "is_motor": false,
      "motor_id": 0,
      "accel_val": 2000,
      "base_duration_us": 115384
    },
    {
      "id": "M_1917",
      "pitch": 81,
      "t_note_us": 178623377,
      "t_trigger_us": 178487414,
      "is_ai": true,
      "track_id": 1,
      "velocity": 0,
      "is_motor": false,
      "motor_id": 0,
      "accel_val": 2000,
      "base_duration_us": 115384
    },
    {
      "id": "M_1918",
      "pitch": 82,
      "t_note_us": 178738761,
      "t_trigger_us": 178602798,
      "is_ai": true,
      "track_id": 0,
      "velocity": 0,
      "is_motor": true,
      "motor_id": 2,
      "accel_val": 2000,
      "base_duration_us": 115384
    },
    {
      "id": "M_1919",
      "pitch": 84,
      "t_note_us": 178854145,
      "t_trigger_us": 178718182,
      "is_ai": true,
      "track_id": 3,
      "velocity": 0,
      "is_motor": false,
      "motor_id": 0,
      "accel_val": 2000,
      "base_duration_us": 115384
    },
    {
      "id": "M_1921",
      "pitch": 81,
      "t_note_us": 178969529,
      "t_trigger_us": 178833566,
      "is_ai": true,
      "track_id": 1,
      "velocity": 0,
      "is_motor": false,
      "motor_id": 0,
      "accel_val": 2000,
      "base_duration_us": 346153
    },
    {
      "id": "M_1920",
      "pitch": 58,
      "t_note_us": 178969529,
      "t_trigger_us": 178833566,
      "is_ai": false,
      "track_id": 0,
      "velocity": 0,
      "is_motor": true,
      "motor_id": 0,
      "accel_val": 2000,
      "base_duration_us": 346153
    },
    {
      "id": "M_1922",
      "pitch": 65,
      "t_note_us": 178969529,
      "t_trigger_us": 178833566,
      "is_ai": false,
      "track_id": 0,
      "velocity": 0,
      "is_motor": true,
      "motor_id": 1,
      "accel_val": 2000,
      "base_duration_us": 346153
    },
    {
      "id": "M_1923",
      "pitch": 77,
      "t_note_us": 179315682,
      "t_trigger_us": 179179719,
      "is_ai": false,
      "track_id": 0,
      "velocity": 0,
      "is_motor": true,
      "motor_id": 2,
      "accel_val": 2000,
      "base_duration_us": 115384
    },
    {
      "id": "M_1925",
      "pitch": 58,
      "t_note_us": 179315682,
      "t_trigger_us": 179179719,
      "is_ai": false,
      "track_id": 0,
      "velocity": 0,
      "is_motor": true,
      "motor_id": 0,
      "accel_val": 2000,
      "base_duration_us": 230768
    },
    {
      "id": "M_1924",
      "pitch": 74,
      "t_note_us": 179431066,
      "t_trigger_us": 179295103,
      "is_ai": false,
      "track_id": 0,
      "velocity": 0,
      "is_motor": true,
      "motor_id": 1,
      "accel_val": 2000,
      "base_duration_us": 115384
    },
    {
      "id": "M_1926",
      "pitch": 77,
      "t_note_us": 179546450,
      "t_trigger_us": 179410487,
      "is_ai": false,
      "track_id": 0,
      "velocity": 0,
      "is_motor": true,
      "motor_id": 2,
      "accel_val": 2000,
      "base_duration_us": 115384
    },
    {
      "id": "M_1928",
      "pitch": 65,
      "t_note_us": 179546450,
      "t_trigger_us": 179410487,
      "is_ai": false,
      "track_id": 0,
      "velocity": 0,
      "is_motor": true,
      "motor_id": 1,
      "accel_val": 2000,
      "base_duration_us": 230768
    },
    {
      "id": "M_1927",
      "pitch": 79,
      "t_note_us": 179661834,
      "t_trigger_us": 179525871,
      "is_ai": true,
      "track_id": 0,
      "velocity": 0,
      "is_motor": false,
      "motor_id": 0,
      "accel_val": 2000,
      "base_duration_us": 115384
    },
    {
      "id": "M_1929",
      "pitch": 79,
      "t_note_us": 179777218,
      "t_trigger_us": 179641255,
      "is_ai": true,
      "track_id": 0,
      "velocity": 0,
      "is_motor": false,
      "motor_id": 0,
      "accel_val": 2000,
      "base_duration_us": 115384
    },
    {
      "id": "M_1930",
      "pitch": 58,
      "t_note_us": 179777218,
      "t_trigger_us": 179641255,
      "is_ai": false,
      "track_id": 0,
      "velocity": 0,
      "is_motor": true,
      "motor_id": 0,
      "accel_val": 2000,
      "base_duration_us": 115384
    },
    {
      "id": "M_1933",
      "pitch": 81,
      "t_note_us": 179892602,
      "t_trigger_us": 179756639,
      "is_ai": true,
      "track_id": 1,
      "velocity": 0,
      "is_motor": false,
      "motor_id": 0,
      "accel_val": 2000,
      "base_duration_us": 346153
    },
    {
      "id": "M_1931",
      "pitch": 57,
      "t_note_us": 179892602,
      "t_trigger_us": 179756639,
      "is_ai": false,
      "track_id": 0,
      "velocity": 0,
      "is_motor": true,
      "motor_id": 0,
      "accel_val": 2000,
      "base_duration_us": 346153
    },
    {
      "id": "M_1932",
      "pitch": 64,
      "t_note_us": 179892602,
      "t_trigger_us": 179756639,
      "is_ai": false,
      "track_id": 0,
      "velocity": 0,
      "is_motor": true,
      "motor_id": 1,
      "accel_val": 2000,
      "base_duration_us": 346153
    },
    {
      "id": "M_1934",
      "pitch": 77,
      "t_note_us": 180238755,
      "t_trigger_us": 180102792,
      "is_ai": false,
      "track_id": 0,
      "velocity": 0,
      "is_motor": true,
      "motor_id": 2,
      "accel_val": 2000,
      "base_duration_us": 115384
    },
    {
      "id": "M_1936",
      "pitch": 57,
      "t_note_us": 180238755,
      "t_trigger_us": 180102792,
      "is_ai": false,
      "track_id": 0,
      "velocity": 0,
      "is_motor": true,
      "motor_id": 0,
      "accel_val": 2000,
      "base_duration_us": 230768
    },
    {
      "id": "M_1935",
      "pitch": 74,
      "t_note_us": 180354139,
      "t_trigger_us": 180218176,
      "is_ai": false,
      "track_id": 0,
      "velocity": 0,
      "is_motor": true,
      "motor_id": 1,
      "accel_val": 2000,
      "base_duration_us": 115384
    },
    {
      "id": "M_1937",
      "pitch": 77,
      "t_note_us": 180469523,
      "t_trigger_us": 180333560,
      "is_ai": false,
      "track_id": 0,
      "velocity": 0,
      "is_motor": true,
      "motor_id": 2,
      "accel_val": 2000,
      "base_duration_us": 115384
    },
    {
      "id": "M_1939",
      "pitch": 64,
      "t_note_us": 180469523,
      "t_trigger_us": 180333560,
      "is_ai": false,
      "track_id": 0,
      "velocity": 0,
      "is_motor": true,
      "motor_id": 1,
      "accel_val": 2000,
      "base_duration_us": 230768
    },
    {
      "id": "M_1938",
      "pitch": 74,
      "t_note_us": 180584907,
      "t_trigger_us": 180448944,
      "is_ai": false,
      "track_id": 0,
      "velocity": 0,
      "is_motor": true,
      "motor_id": 0,
      "accel_val": 2000,
      "base_duration_us": 115384
    },
    {
      "id": "M_1940",
      "pitch": 57,
      "t_note_us": 180700291,
      "t_trigger_us": 180564328,
      "is_ai": false,
      "track_id": 0,
      "velocity": 0,
      "is_motor": true,
      "motor_id": 0,
      "accel_val": 2000,
      "base_duration_us": 115384
    },
    {
      "id": "M_1941",
      "pitch": 77,
      "t_note_us": 180700291,
      "t_trigger_us": 180564328,
      "is_ai": false,
      "track_id": 0,
      "velocity": 0,
      "is_motor": true,
      "motor_id": 2,
      "accel_val": 2000,
      "base_duration_us": 115384
    },
    {
      "id": "M_1942",
      "pitch": 62,
      "t_note_us": 180815675,
      "t_trigger_us": 180679712,
      "is_ai": false,
      "track_id": 0,
      "velocity": 0,
      "is_motor": true,
      "motor_id": 1,
      "accel_val": 2000,
      "base_duration_us": 346153
    },
    {
      "id": "M_1943",
      "pitch": 67,
      "t_note_us": 180815675,
      "t_trigger_us": 180679712,
      "is_ai": false,
      "track_id": 0,
      "velocity": 0,
      "is_motor": true,
      "motor_id": 2,
      "accel_val": 2000,
      "base_duration_us": 346153
    },
    {
      "id": "M_1944",
      "pitch": 57,
      "t_note_us": 180815675,
      "t_trigger_us": 180679712,
      "is_ai": false,
      "track_id": 0,
      "velocity": 0,
      "is_motor": true,
      "motor_id": 0,
      "accel_val": 2000,
      "base_duration_us": 346153
    },
    {
      "id": "M_1946",
      "pitch": 81,
      "t_note_us": 181161828,
      "t_trigger_us": 181025865,
      "is_ai": true,
      "track_id": 1,
      "velocity": 0,
      "is_motor": false,
      "motor_id": 0,
      "accel_val": 2000,
      "base_duration_us": 230769
    },
    {
      "id": "M_1945",
      "pitch": 57,
      "t_note_us": 181161828,
      "t_trigger_us": 181025865,
      "is_ai": false,
      "track_id": 0,
      "velocity": 0,
      "is_motor": true,
      "motor_id": 0,
      "accel_val": 2000,
      "base_duration_us": 230769
    },
    {
      "id": "M_1947",
      "pitch": 62,
      "t_note_us": 181392597,
      "t_trigger_us": 181256634,
      "is_ai": false,
      "track_id": 0,
      "velocity": 0,
      "is_motor": true,
      "motor_id": 1,
      "accel_val": 2000,
      "base_duration_us": 230769
    },
    {
      "id": "M_1949",
      "pitch": 81,
      "t_note_us": 181623366,
      "t_trigger_us": 181487403,
      "is_ai": true,
      "track_id": 1,
      "velocity": 0,
      "is_motor": false,
      "motor_id": 0,
      "accel_val": 2000,
      "base_duration_us": 230769
    },
    {
      "id": "M_1948",
      "pitch": 57,
      "t_note_us": 181623366,
      "t_trigger_us": 181487403,
      "is_ai": false,
      "track_id": 0,
      "velocity": 0,
      "is_motor": true,
      "motor_id": 0,
      "accel_val": 2000,
      "base_duration_us": 230769
    },
    {
      "id": "M_1950",
      "pitch": 86,
      "t_note_us": 181854135,
      "t_trigger_us": 181718172,
      "is_ai": true,
      "track_id": 4,
      "velocity": 0,
      "is_motor": false,
      "motor_id": 0,
      "accel_val": 2000,
      "base_duration_us": 230769
    },
    {
      "id": "M_1952",
      "pitch": 60,
      "t_note_us": 181854135,
      "t_trigger_us": 181718172,
      "is_ai": false,
      "track_id": 0,
      "velocity": 0,
      "is_motor": true,
      "motor_id": 1,
      "accel_val": 2000,
      "base_duration_us": 461538
    },
    {
      "id": "M_1953",
      "pitch": 55,
      "t_note_us": 181854135,
      "t_trigger_us": 181718172,
      "is_ai": false,
      "track_id": 0,
      "velocity": 0,
      "is_motor": true,
      "motor_id": 0,
      "accel_val": 2000,
      "base_duration_us": 461538
    },
    {
      "id": "M_1951",
      "pitch": 84,
      "t_note_us": 182084904,
      "t_trigger_us": 181948941,
      "is_ai": true,
      "track_id": 3,
      "velocity": 0,
      "is_motor": false,
      "motor_id": 0,
      "accel_val": 2000,
      "base_duration_us": 230769
    },
    {
      "id": "M_1954",
      "pitch": 81,
      "t_note_us": 182315673,
      "t_trigger_us": 182179710,
      "is_ai": true,
      "track_id": 1,
      "velocity": 0,
      "is_motor": false,
      "motor_id": 0,
      "accel_val": 2000,
      "base_duration_us": 230769
    },
    {
      "id": "M_1956",
      "pitch": 55,
      "t_note_us": 182315673,
      "t_trigger_us": 182179710,
      "is_ai": false,
      "track_id": 0,
      "velocity": 0,
      "is_motor": true,
      "motor_id": 0,
      "accel_val": 2000,
      "base_duration_us": 461538
    },
    {
      "id": "M_1957",
      "pitch": 60,
      "t_note_us": 182315673,
      "t_trigger_us": 182179710,
      "is_ai": false,
      "track_id": 0,
      "velocity": 0,
      "is_motor": true,
      "motor_id": 1,
      "accel_val": 2000,
      "base_duration_us": 461538
    },
    {
      "id": "M_1955",
      "pitch": 67,
      "t_note_us": 182546442,
      "t_trigger_us": 182410479,
      "is_ai": false,
      "track_id": 0,
      "velocity": 0,
      "is_motor": true,
      "motor_id": 2,
      "accel_val": 2000,
      "base_duration_us": 230769
    },
    {
      "id": "M_1958",
      "pitch": 65,
      "t_note_us": 182777211,
      "t_trigger_us": 182641248,
      "is_ai": false,
      "track_id": 0,
      "velocity": 0,
      "is_motor": true,
      "motor_id": 1,
      "accel_val": 2000,
      "base_duration_us": 115384
    },
    {
      "id": "M_1959",
      "pitch": 58,
      "t_note_us": 182777211,
      "t_trigger_us": 182641248,
      "is_ai": false,
      "track_id": 0,
      "velocity": 0,
      "is_motor": true,
      "motor_id": 0,
      "accel_val": 2000,
      "base_duration_us": 115384
    },
    {
      "id": "M_1960",
      "pitch": 77,
      "t_note_us": 182777211,
      "t_trigger_us": 182641248,
      "is_ai": false,
      "track_id": 0,
      "velocity": 0,
      "is_motor": true,
      "motor_id": 2,
      "accel_val": 2000,
      "base_duration_us": 230768
    },
    {
      "id": "M_1961",
      "pitch": 74,
      "t_note_us": 183007979,
      "t_trigger_us": 182872016,
      "is_ai": false,
      "track_id": 0,
      "velocity": 0,
      "is_motor": true,
      "motor_id": 1,
      "accel_val": 2000,
      "base_duration_us": 115384
    },
    {
      "id": "M_1962",
      "pitch": 77,
      "t_note_us": 183123363,
      "t_trigger_us": 182987400,
      "is_ai": false,
      "track_id": 0,
      "velocity": 0,
      "is_motor": true,
      "motor_id": 2,
      "accel_val": 2000,
      "base_duration_us": 230769
    },
    {
      "id": "M_1964",
      "pitch": 58,
      "t_note_us": 183123363,
      "t_trigger_us": 182987400,
      "is_ai": false,
      "track_id": 0,
      "velocity": 0,
      "is_motor": true,
      "motor_id": 0,
      "accel_val": 2000,
      "base_duration_us": 346153
    },
    {
      "id": "M_1965",
      "pitch": 65,
      "t_note_us": 183123363,
      "t_trigger_us": 182987400,
      "is_ai": false,
      "track_id": 0,
      "velocity": 0,
      "is_motor": true,
      "motor_id": 1,
      "accel_val": 2000,
      "base_duration_us": 346153
    },
    {
      "id": "M_1963",
      "pitch": 74,
      "t_note_us": 183354132,
      "t_trigger_us": 183218169,
      "is_ai": false,
      "track_id": 0,
      "velocity": 0,
      "is_motor": true,
      "motor_id": 2,
      "accel_val": 2000,
      "base_duration_us": 115384
    },
    {
      "id": "M_1967",
      "pitch": 79,
      "t_note_us": 183469516,
      "t_trigger_us": 183333553,
      "is_ai": true,
      "track_id": 0,
      "velocity": 0,
      "is_motor": false,
      "motor_id": 0,
      "accel_val": 2000,
      "base_duration_us": 230769
    },
    {
      "id": "M_1966",
      "pitch": 60,
      "t_note_us": 183469516,
      "t_trigger_us": 183333553,
      "is_ai": false,
      "track_id": 0,
      "velocity": 0,
      "is_motor": true,
      "motor_id": 1,
      "accel_val": 2000,
      "base_duration_us": 230769
    },
    {
      "id": "M_1968",
      "pitch": 67,
      "t_note_us": 183469516,
      "t_trigger_us": 183333553,
      "is_ai": false,
      "track_id": 0,
      "velocity": 0,
      "is_motor": true,
      "motor_id": 2,
      "accel_val": 2000,
      "base_duration_us": 230769
    },
    {
      "id": "M_1969",
      "pitch": 81,
      "t_note_us": 183815669,
      "t_trigger_us": 183679706,
      "is_ai": true,
      "track_id": 1,
      "velocity": 0,
      "is_motor": false,
      "motor_id": 0,
      "accel_val": 2000,
      "base_duration_us": 115384
    },
    {
      "id": "M_1970",
      "pitch": 86,
      "t_note_us": 183931053,
      "t_trigger_us": 183795090,
      "is_ai": true,
      "track_id": 4,
      "velocity": 0,
      "is_motor": false,
      "motor_id": 0,
      "accel_val": 2000,
      "base_duration_us": 115384
    },
    {
      "id": "M_1971",
      "pitch": 86,
      "t_note_us": 184046437,
      "t_trigger_us": 183910474,
      "is_ai": true,
      "track_id": 4,
      "velocity": 0,
      "is_motor": false,
      "motor_id": 0,
      "accel_val": 2000,
      "base_duration_us": 115384
    },
    {
      "id": "M_1972",
      "pitch": 84,
      "t_note_us": 184161821,
      "t_trigger_us": 184025858,
      "is_ai": true,
      "track_id": 3,
      "velocity": 0,
      "is_motor": false,
      "motor_id": 0,
      "accel_val": 2000,
      "base_duration_us": 115384
    },
    {
      "id": "M_1973",
      "pitch": 84,
      "t_note_us": 184277205,
      "t_trigger_us": 184141242,
      "is_ai": true,
      "track_id": 3,
      "velocity": 0,
      "is_motor": false,
      "motor_id": 0,
      "accel_val": 2000,
      "base_duration_us": 115384
    },
    {
      "id": "M_1974",
      "pitch": 86,
      "t_note_us": 184392589,
      "t_trigger_us": 184256626,
      "is_ai": true,
      "track_id": 4,
      "velocity": 0,
      "is_motor": false,
      "motor_id": 0,
      "accel_val": 2000,
      "base_duration_us": 115384
    },
    {
      "id": "M_1975",
      "pitch": 86,
      "t_note_us": 184507973,
      "t_trigger_us": 184372010,
      "is_ai": true,
      "track_id": 4,
      "velocity": 0,
      "is_motor": false,
      "motor_id": 0,
      "accel_val": 2000,
      "base_duration_us": 115384
    },
    {
      "id": "M_1976",
      "pitch": 84,
      "t_note_us": 184623357,
      "t_trigger_us": 184487394,
      "is_ai": true,
      "track_id": 3,
      "velocity": 0,
      "is_motor": false,
      "motor_id": 0,
      "accel_val": 2000,
      "base_duration_us": 115384
    },
    {
      "id": "M_1977",
      "pitch": 64,
      "t_note_us": 184623357,
      "t_trigger_us": 184487394,
      "is_ai": false,
      "track_id": 0,
      "velocity": 0,
      "is_motor": true,
      "motor_id": 1,
      "accel_val": 2000,
      "base_duration_us": 115384
    },
    {
      "id": "M_1978",
      "pitch": 57,
      "t_note_us": 184623357,
      "t_trigger_us": 184487394,
      "is_ai": false,
      "track_id": 0,
      "velocity": 0,
      "is_motor": true,
      "motor_id": 0,
      "accel_val": 2000,
      "base_duration_us": 115384
    },
    {
      "id": "M_1979",
      "pitch": 69,
      "t_note_us": 184854125,
      "t_trigger_us": 184718162,
      "is_ai": false,
      "track_id": 0,
      "velocity": 0,
      "is_motor": true,
      "motor_id": 1,
      "accel_val": 2000,
      "base_duration_us": 115384
    },
    {
      "id": "M_1980",
      "pitch": 67,
      "t_note_us": 184969509,
      "t_trigger_us": 184833546,
      "is_ai": false,
      "track_id": 0,
      "velocity": 0,
      "is_motor": true,
      "motor_id": 1,
      "accel_val": 2000,
      "base_duration_us": 115384
    },
    {
      "id": "M_1982",
      "pitch": 64,
      "t_note_us": 184969509,
      "t_trigger_us": 184833546,
      "is_ai": false,
      "track_id": 0,
      "velocity": 0,
      "is_motor": true,
      "motor_id": 0,
      "accel_val": 2000,
      "base_duration_us": 346152
    },
    {
      "id": "M_1983",
      "pitch": 57,
      "t_note_us": 184969509,
      "t_trigger_us": 184833546,
      "is_ai": false,
      "track_id": 0,
      "velocity": 0,
      "is_motor": true,
      "motor_id": 2,
      "accel_val": 2000,
      "base_duration_us": 346152
    },
    {
      "id": "M_1981",
      "pitch": 81,
      "t_note_us": 185200277,
      "t_trigger_us": 185064314,
      "is_ai": true,
      "track_id": 1,
      "velocity": 0,
      "is_motor": false,
      "motor_id": 0,
      "accel_val": 2000,
      "base_duration_us": 115384
    },
    {
      "id": "M_1984",
      "pitch": 77,
      "t_note_us": 185315661,
      "t_trigger_us": 185179698,
      "is_ai": false,
      "track_id": 0,
      "velocity": 0,
      "is_motor": true,
      "motor_id": 2,
      "accel_val": 2000,
      "base_duration_us": 115384
    },
    {
      "id": "M_1985",
      "pitch": 62,
      "t_note_us": 185315661,
      "t_trigger_us": 185179698,
      "is_ai": false,
      "track_id": 0,
      "velocity": 0,
      "is_motor": true,
      "motor_id": 1,
      "accel_val": 2000,
      "base_duration_us": 230768
    },
    {
      "id": "M_1986",
      "pitch": 69,
      "t_note_us": 185315661,
      "t_trigger_us": 185179698,
      "is_ai": false,
      "track_id": 0,
      "velocity": 0,
      "is_motor": true,
      "motor_id": 0,
      "accel_val": 2000,
      "base_duration_us": 230768
    },
    {
      "id": "M_1987",
      "pitch": 50,
      "t_note_us": 185777198,
      "t_trigger_us": 185641235,
      "is_ai": false,
      "track_id": 0,
      "velocity": 0,
      "is_motor": true,
      "motor_id": 0,
      "accel_val": 2000,
      "base_duration_us": 230769
    },
    {
      "id": "M_1988",
      "pitch": 62,
      "t_note_us": 186007967,
      "t_trigger_us": 185872004,
      "is_ai": false,
      "track_id": 0,
      "velocity": 0,
      "is_motor": true,
      "motor_id": 1,
      "accel_val": 2000,
      "base_duration_us": 230769
    },
    {
      "id": "M_1989",
      "pitch": 77,
      "t_note_us": 186007967,
      "t_trigger_us": 185872004,
      "is_ai": false,
      "track_id": 0,
      "velocity": 0,
      "is_motor": true,
      "motor_id": 2,
      "accel_val": 2000,
      "base_duration_us": 230769
    },
    {
      "id": "M_1991",
      "pitch": 79,
      "t_note_us": 186238736,
      "t_trigger_us": 186102773,
      "is_ai": true,
      "track_id": 0,
      "velocity": 0,
      "is_motor": false,
      "motor_id": 0,
      "accel_val": 2000,
      "base_duration_us": 230769
    },
    {
      "id": "M_1990",
      "pitch": 50,
      "t_note_us": 186238736,
      "t_trigger_us": 186102773,
      "is_ai": false,
      "track_id": 0,
      "velocity": 0,
      "is_motor": true,
      "motor_id": 0,
      "accel_val": 2000,
      "base_duration_us": 230769
    },
    {
      "id": "M_1993",
      "pitch": 81,
      "t_note_us": 186469505,
      "t_trigger_us": 186333542,
      "is_ai": true,
      "track_id": 1,
      "velocity": 0,
      "is_motor": false,
      "motor_id": 0,
      "accel_val": 2000,
      "base_duration_us": 346153
    },
    {
      "id": "M_1992",
      "pitch": 46,
      "t_note_us": 186469505,
      "t_trigger_us": 186333542,
      "is_ai": false,
      "track_id": 0,
      "velocity": 0,
      "is_motor": true,
      "motor_id": 0,
      "accel_val": 2000,
      "base_duration_us": 230769
    },
    {
      "id": "M_1994",
      "pitch": 58,
      "t_note_us": 186700274,
      "t_trigger_us": 186564311,
      "is_ai": false,
      "track_id": 0,
      "velocity": 0,
      "is_motor": true,
      "motor_id": 0,
      "accel_val": 2000,
      "base_duration_us": 230768
    },
    {
      "id": "M_1996",
      "pitch": 77,
      "t_note_us": 186815658,
      "t_trigger_us": 186679695,
      "is_ai": false,
      "track_id": 0,
      "velocity": 0,
      "is_motor": true,
      "motor_id": 2,
      "accel_val": 2000,
      "base_duration_us": 346153
    },
    {
      "id": "M_1995",
      "pitch": 46,
      "t_note_us": 186931042,
      "t_trigger_us": 186795079,
      "is_ai": false,
      "track_id": 0,
      "velocity": 0,
      "is_motor": true,
      "motor_id": 0,
      "accel_val": 2000,
      "base_duration_us": 230769
    },
    {
      "id": "M_1998",
      "pitch": 81,
      "t_note_us": 187161811,
      "t_trigger_us": 187025848,
      "is_ai": true,
      "track_id": 1,
      "velocity": 0,
      "is_motor": false,
      "motor_id": 0,
      "accel_val": 2000,
      "base_duration_us": 346153
    },
    {
      "id": "M_1997",
      "pitch": 58,
      "t_note_us": 187161811,
      "t_trigger_us": 187025848,
      "is_ai": false,
      "track_id": 0,
      "velocity": 0,
      "is_motor": true,
      "motor_id": 0,
      "accel_val": 2000,
      "base_duration_us": 230769
    },
    {
      "id": "M_1999",
      "pitch": 46,
      "t_note_us": 187392580,
      "t_trigger_us": 187256617,
      "is_ai": false,
      "track_id": 0,
      "velocity": 0,
      "is_motor": true,
      "motor_id": 0,
      "accel_val": 2000,
      "base_duration_us": 230768
    },
    {
      "id": "M_2000",
      "pitch": 77,
      "t_note_us": 187507964,
      "t_trigger_us": 187372001,
      "is_ai": false,
      "track_id": 0,
      "velocity": 0,
      "is_motor": true,
      "motor_id": 2,
      "accel_val": 2000,
      "base_duration_us": 230768
    },
    {
      "id": "M_2002",
      "pitch": 58,
      "t_note_us": 187623348,
      "t_trigger_us": 187487385,
      "is_ai": false,
      "track_id": 0,
      "velocity": 0,
      "is_motor": true,
      "motor_id": 0,
      "accel_val": 2000,
      "base_duration_us": 230768
    },
    {
      "id": "M_2001",
      "pitch": 77,
      "t_note_us": 187738732,
      "t_trigger_us": 187602769,
      "is_ai": false,
      "track_id": 0,
      "velocity": 0,
      "is_motor": true,
      "motor_id": 2,
      "accel_val": 2000,
      "base_duration_us": 115384
    },
    {
      "id": "M_2004",
      "pitch": 81,
      "t_note_us": 187854116,
      "t_trigger_us": 187718153,
      "is_ai": true,
      "track_id": 1,
      "velocity": 0,
      "is_motor": false,
      "motor_id": 0,
      "accel_val": 2000,
      "base_duration_us": 230769
    },
    {
      "id": "M_2003",
      "pitch": 46,
      "t_note_us": 187854116,
      "t_trigger_us": 187718153,
      "is_ai": false,
      "track_id": 0,
      "velocity": 0,
      "is_motor": true,
      "motor_id": 0,
      "accel_val": 2000,
      "base_duration_us": 230769
    },
    {
      "id": "M_2006",
      "pitch": 86,
      "t_note_us": 188084885,
      "t_trigger_us": 187948922,
      "is_ai": true,
      "track_id": 4,
      "velocity": 0,
      "is_motor": false,
      "motor_id": 0,
      "accel_val": 2000,
      "base_duration_us": 230769
    },
    {
      "id": "M_2005",
      "pitch": 58,
      "t_note_us": 188084885,
      "t_trigger_us": 187948922,
      "is_ai": false,
      "track_id": 0,
      "velocity": 0,
      "is_motor": true,
      "motor_id": 0,
      "accel_val": 2000,
      "base_duration_us": 230769
    },
    {
      "id": "M_2010",
      "pitch": 85,
      "t_note_us": 188315654,
      "t_trigger_us": 188179691,
      "is_ai": true,
      "track_id": 0,
      "velocity": 0,
      "is_motor": true,
      "motor_id": 3,
      "accel_val": 2000,
      "base_duration_us": 692307
    },
    {
      "id": "M_2007",
      "pitch": 45,
      "t_note_us": 188315654,
      "t_trigger_us": 188179691,
      "is_ai": false,
      "track_id": 0,
      "velocity": 0,
      "is_motor": true,
      "motor_id": 0,
      "accel_val": 2000,
      "base_duration_us": 230769
    },
    {
      "id": "M_2008",
      "pitch": 57,
      "t_note_us": 188546423,
      "t_trigger_us": 188410460,
      "is_ai": false,
      "track_id": 0,
      "velocity": 0,
      "is_motor": true,
      "motor_id": 0,
      "accel_val": 2000,
      "base_duration_us": 230769
    },
    {
      "id": "M_2009",
      "pitch": 45,
      "t_note_us": 188777192,
      "t_trigger_us": 188641229,
      "is_ai": false,
      "track_id": 0,
      "velocity": 0,
      "is_motor": true,
      "motor_id": 0,
      "accel_val": 2000,
      "base_duration_us": 230769
    },
    {
      "id": "M_2013",
      "pitch": 81,
      "t_note_us": 189007961,
      "t_trigger_us": 188871998,
      "is_ai": true,
      "track_id": 1,
      "velocity": 0,
      "is_motor": false,
      "motor_id": 0,
      "accel_val": 2000,
      "base_duration_us": 461538
    },
    {
      "id": "M_2011",
      "pitch": 57,
      "t_note_us": 189007961,
      "t_trigger_us": 188871998,
      "is_ai": false,
      "track_id": 0,
      "velocity": 0,
      "is_motor": true,
      "motor_id": 0,
      "accel_val": 2000,
      "base_duration_us": 230769
    },
    {
      "id": "M_2012",
      "pitch": 45,
      "t_note_us": 189238730,
      "t_trigger_us": 189102767,
      "is_ai": false,
      "track_id": 0,
      "velocity": 0,
      "is_motor": true,
      "motor_id": 0,
      "accel_val": 2000,
      "base_duration_us": 230769
    },
    {
      "id": "M_2014",
      "pitch": 79,
      "t_note_us": 189469499,
      "t_trigger_us": 189333536,
      "is_ai": true,
      "track_id": 0,
      "velocity": 0,
      "is_motor": false,
      "motor_id": 0,
      "accel_val": 2000,
      "base_duration_us": 230769
    },
    {
      "id": "M_2015",
      "pitch": 57,
      "t_note_us": 189469499,
      "t_trigger_us": 189333536,
      "is_ai": false,
      "track_id": 0,
      "velocity": 0,
      "is_motor": true,
      "motor_id": 0,
      "accel_val": 2000,
      "base_duration_us": 230769
    },
    {
      "id": "M_2017",
      "pitch": 82,
      "t_note_us": 189700268,
      "t_trigger_us": 189564305,
      "is_ai": true,
      "track_id": 0,
      "velocity": 0,
      "is_motor": true,
      "motor_id": 2,
      "accel_val": 2000,
      "base_duration_us": 230769
    },
    {
      "id": "M_2016",
      "pitch": 45,
      "t_note_us": 189700268,
      "t_trigger_us": 189564305,
      "is_ai": false,
      "track_id": 0,
      "velocity": 0,
      "is_motor": true,
      "motor_id": 0,
      "accel_val": 2000,
      "base_duration_us": 230769
    },
    {
      "id": "M_2018",
      "pitch": 81,
      "t_note_us": 189931037,
      "t_trigger_us": 189795074,
      "is_ai": true,
      "track_id": 1,
      "velocity": 0,
      "is_motor": false,
      "motor_id": 0,
      "accel_val": 2000,
      "base_duration_us": 230769
    },
    {
      "id": "M_2019",
      "pitch": 57,
      "t_note_us": 189931037,
      "t_trigger_us": 189795074,
      "is_ai": false,
      "track_id": 0,
      "velocity": 0,
      "is_motor": true,
      "motor_id": 0,
      "accel_val": 2000,
      "base_duration_us": 230769
    },
    {
      "id": "M_2020",
      "pitch": 100,
      "t_note_us": 191315651,
      "t_trigger_us": 191179688,
      "is_ai": true,
      "track_id": 12,
      "velocity": 0,
      "is_motor": false,
      "motor_id": 0,
      "accel_val": 2000,
      "base_duration_us": 230769
    },
    {
      "id": "M_2021",
      "pitch": 99,
      "t_note_us": 191546420,
      "t_trigger_us": 191410457,
      "is_ai": true,
      "track_id": 0,
      "velocity": 0,
      "is_motor": true,
      "motor_id": 3,
      "accel_val": 2000,
      "base_duration_us": 230769
    },
    {
      "id": "M_2022",
      "pitch": 95,
      "t_note_us": 191777189,
      "t_trigger_us": 191641226,
      "is_ai": true,
      "track_id": 9,
      "velocity": 0,
      "is_motor": false,
      "motor_id": 0,
      "accel_val": 2000,
      "base_duration_us": 230769
    },
    {
      "id": "M_2023",
      "pitch": 95,
      "t_note_us": 192007958,
      "t_trigger_us": 191871995,
      "is_ai": true,
      "track_id": 9,
      "velocity": 0,
      "is_motor": false,
      "motor_id": 0,
      "accel_val": 2000,
      "base_duration_us": 346153
    },
    {
      "id": "M_2026",
      "pitch": 76,
      "t_note_us": 192007958,
      "t_trigger_us": 191871995,
      "is_ai": false,
      "track_id": 0,
      "velocity": 0,
      "is_motor": true,
      "motor_id": 2,
      "accel_val": 2000,
      "base_duration_us": 923075
    },
    {
      "id": "M_2027",
      "pitch": 69,
      "t_note_us": 192007958,
      "t_trigger_us": 191871995,
      "is_ai": false,
      "track_id": 0,
      "velocity": 0,
      "is_motor": true,
      "motor_id": 1,
      "accel_val": 2000,
      "base_duration_us": 923075
    },
    {
      "id": "M_2028",
      "pitch": 73,
      "t_note_us": 192007958,
      "t_trigger_us": 191871995,
      "is_ai": false,
      "track_id": 0,
      "velocity": 0,
      "is_motor": true,
      "motor_id": 0,
      "accel_val": 2000,
      "base_duration_us": 923075
    },
    {
      "id": "M_2024",
      "pitch": 97,
      "t_note_us": 192354111,
      "t_trigger_us": 192218148,
      "is_ai": true,
      "track_id": 0,
      "velocity": 0,
      "is_motor": true,
      "motor_id": 3,
      "accel_val": 2000,
      "base_duration_us": 346153
    },
    {
      "id": "M_2025",
      "pitch": 92,
      "t_note_us": 192700264,
      "t_trigger_us": 192564301,
      "is_ai": true,
      "track_id": 0,
      "velocity": 0,
      "is_motor": true,
      "motor_id": 3,
      "accel_val": 2000,
      "base_duration_us": 230769
    },
    {
      "id": "M_2029",
      "pitch": 90,
      "t_note_us": 192931033,
      "t_trigger_us": 192795070,
      "is_ai": true,
      "track_id": 0,
      "velocity": 0,
      "is_motor": true,
      "motor_id": 3,
      "accel_val": 2000,
      "base_duration_us": 230769
    },
    {
      "id": "M_2033",
      "pitch": 78,
      "t_note_us": 192931033,
      "t_trigger_us": 192795070,
      "is_ai": false,
      "track_id": 0,
      "velocity": 0,
      "is_motor": true,
      "motor_id": 2,
      "accel_val": 2000,
      "base_duration_us": 923076
    },
    {
      "id": "M_2034",
      "pitch": 75,
      "t_note_us": 192931033,
      "t_trigger_us": 192795070,
      "is_ai": false,
      "track_id": 0,
      "velocity": 0,
      "is_motor": true,
      "motor_id": 1,
      "accel_val": 2000,
      "base_duration_us": 923076
    },
    {
      "id": "M_2035",
      "pitch": 71,
      "t_note_us": 192931033,
      "t_trigger_us": 192795070,
      "is_ai": false,
      "track_id": 0,
      "velocity": 0,
      "is_motor": true,
      "motor_id": 0,
      "accel_val": 2000,
      "base_duration_us": 923076
    },
    {
      "id": "M_2030",
      "pitch": 88,
      "t_note_us": 193161802,
      "t_trigger_us": 193025839,
      "is_ai": true,
      "track_id": 5,
      "velocity": 0,
      "is_motor": false,
      "motor_id": 0,
      "accel_val": 2000,
      "base_duration_us": 230769
    },
    {
      "id": "M_2031",
      "pitch": 90,
      "t_note_us": 193392571,
      "t_trigger_us": 193256608,
      "is_ai": true,
      "track_id": 0,
      "velocity": 0,
      "is_motor": true,
      "motor_id": 3,
      "accel_val": 2000,
      "base_duration_us": 230769
    },
    {
      "id": "M_2032",
      "pitch": 97,
      "t_note_us": 193623340,
      "t_trigger_us": 193487377,
      "is_ai": true,
      "track_id": 0,
      "velocity": 0,
      "is_motor": true,
      "motor_id": 3,
      "accel_val": 2000,
      "base_duration_us": 230769
    },
    {
      "id": "M_2036",
      "pitch": 95,
      "t_note_us": 193854109,
      "t_trigger_us": 193718146,
      "is_ai": true,
      "track_id": 9,
      "velocity": 0,
      "is_motor": false,
      "motor_id": 0,
      "accel_val": 2000,
      "base_duration_us": 230769
    },
    {
      "id": "M_2041",
      "pitch": 78,
      "t_note_us": 193854109,
      "t_trigger_us": 193718146,
      "is_ai": false,
      "track_id": 0,
      "velocity": 0,
      "is_motor": true,
      "motor_id": 2,
      "accel_val": 2000,
      "base_duration_us": 923075
    },
    {
      "id": "M_2042",
      "pitch": 68,
      "t_note_us": 193854109,
      "t_trigger_us": 193718146,
      "is_ai": false,
      "track_id": 0,
      "velocity": 0,
      "is_motor": true,
      "motor_id": 1,
      "accel_val": 2000,
      "base_duration_us": 923075
    },
    {
      "id": "M_2043",
      "pitch": 75,
      "t_note_us": 193854109,
      "t_trigger_us": 193718146,
      "is_ai": false,
      "track_id": 0,
      "velocity": 0,
      "is_motor": true,
      "motor_id": 3,
      "accel_val": 2000,
      "base_duration_us": 923075
    },
    {
      "id": "M_2044",
      "pitch": 71,
      "t_note_us": 193854109,
      "t_trigger_us": 193718146,
      "is_ai": false,
      "track_id": 0,
      "velocity": 0,
      "is_motor": true,
      "motor_id": 0,
      "accel_val": 2000,
      "base_duration_us": 923075
    },
    {
      "id": "M_2037",
      "pitch": 90,
      "t_note_us": 194084878,
      "t_trigger_us": 193948915,
      "is_ai": true,
      "track_id": 0,
      "velocity": 0,
      "is_motor": true,
      "motor_id": 0,
      "accel_val": 2000,
      "base_duration_us": 115384
    },
    {
      "id": "M_2038",
      "pitch": 92,
      "t_note_us": 194200262,
      "t_trigger_us": 194064299,
      "is_ai": true,
      "track_id": 0,
      "velocity": 0,
      "is_motor": true,
      "motor_id": 0,
      "accel_val": 2000,
      "base_duration_us": 230769
    },
    {
      "id": "M_2039",
      "pitch": 88,
      "t_note_us": 194431031,
      "t_trigger_us": 194295068,
      "is_ai": true,
      "track_id": 5,
      "velocity": 0,
      "is_motor": false,
      "motor_id": 0,
      "accel_val": 2000,
      "base_duration_us": 115384
    },
    {
      "id": "M_2040",
      "pitch": 90,
      "t_note_us": 194546415,
      "t_trigger_us": 194410452,
      "is_ai": true,
      "track_id": 0,
      "velocity": 0,
      "is_motor": true,
      "motor_id": 0,
      "accel_val": 2000,
      "base_duration_us": 230769
    },
    {
      "id": "M_2045",
      "pitch": 88,
      "t_note_us": 194777184,
      "t_trigger_us": 194641221,
      "is_ai": true,
      "track_id": 5,
      "velocity": 0,
      "is_motor": false,
      "motor_id": 0,
      "accel_val": 2000,
      "base_duration_us": 230769
    },
    {
      "id": "M_2048",
      "pitch": 73,
      "t_note_us": 194777184,
      "t_trigger_us": 194641221,
      "is_ai": false,
      "track_id": 0,
      "velocity": 0,
      "is_motor": true,
      "motor_id": 1,
      "accel_val": 2000,
      "base_duration_us": 923076
    },
    {
      "id": "M_2049",
      "pitch": 68,
      "t_note_us": 194777184,
      "t_trigger_us": 194641221,
      "is_ai": false,
      "track_id": 0,
      "velocity": 0,
      "is_motor": true,
      "motor_id": 2,
      "accel_val": 2000,
      "base_duration_us": 923076
    },
    {
      "id": "M_2050",
      "pitch": 76,
      "t_note_us": 194777184,
      "t_trigger_us": 194641221,
      "is_ai": false,
      "track_id": 0,
      "velocity": 0,
      "is_motor": true,
      "motor_id": 3,
      "accel_val": 2000,
      "base_duration_us": 923076
    },
    {
      "id": "M_2051",
      "pitch": 71,
      "t_note_us": 194777184,
      "t_trigger_us": 194641221,
      "is_ai": false,
      "track_id": 0,
      "velocity": 0,
      "is_motor": true,
      "motor_id": 0,
      "accel_val": 2000,
      "base_duration_us": 923076
    },
    {
      "id": "M_2046",
      "pitch": 88,
      "t_note_us": 195238722,
      "t_trigger_us": 195102759,
      "is_ai": true,
      "track_id": 5,
      "velocity": 0,
      "is_motor": false,
      "motor_id": 0,
      "accel_val": 2000,
      "base_duration_us": 230769
    },
    {
      "id": "M_2047",
      "pitch": 95,
      "t_note_us": 195469491,
      "t_trigger_us": 195333528,
      "is_ai": true,
      "track_id": 9,
      "velocity": 0,
      "is_motor": false,
      "motor_id": 0,
      "accel_val": 2000,
      "base_duration_us": 230769
    },
    {
      "id": "M_2052",
      "pitch": 93,
      "t_note_us": 195700260,
      "t_trigger_us": 195564297,
      "is_ai": true,
      "track_id": 8,
      "velocity": 0,
      "is_motor": false,
      "motor_id": 0,
      "accel_val": 2000,
      "base_duration_us": 230769
    },
    {
      "id": "M_2056",
      "pitch": 76,
      "t_note_us": 195700260,
      "t_trigger_us": 195564297,
      "is_ai": false,
      "track_id": 0,
      "velocity": 0,
      "is_motor": true,
      "motor_id": 2,
      "accel_val": 2000,
      "base_duration_us": 923076
    },
    {
      "id": "M_2057",
      "pitch": 73,
      "t_note_us": 195700260,
      "t_trigger_us": 195564297,
      "is_ai": false,
      "track_id": 0,
      "velocity": 0,
      "is_motor": true,
      "motor_id": 1,
      "accel_val": 2000,
      "base_duration_us": 923076
    },
    {
      "id": "M_2058",
      "pitch": 69,
      "t_note_us": 195700260,
      "t_trigger_us": 195564297,
      "is_ai": false,
      "track_id": 0,
      "velocity": 0,
      "is_motor": true,
      "motor_id": 0,
      "accel_val": 2000,
      "base_duration_us": 923076
    },
    {
      "id": "M_2053",
      "pitch": 92,
      "t_note_us": 195931029,
      "t_trigger_us": 195795066,
      "is_ai": true,
      "track_id": 0,
      "velocity": 0,
      "is_motor": true,
      "motor_id": 3,
      "accel_val": 2000,
      "base_duration_us": 230769
    },
    {
      "id": "M_2054",
      "pitch": 90,
      "t_note_us": 196161798,
      "t_trigger_us": 196025835,
      "is_ai": true,
      "track_id": 0,
      "velocity": 0,
      "is_motor": true,
      "motor_id": 3,
      "accel_val": 2000,
      "base_duration_us": 230769
    },
    {
      "id": "M_2055",
      "pitch": 88,
      "t_note_us": 196392567,
      "t_trigger_us": 196256604,
      "is_ai": true,
      "track_id": 5,
      "velocity": 0,
      "is_motor": false,
      "motor_id": 0,
      "accel_val": 2000,
      "base_duration_us": 230769
    },
    {
      "id": "M_2059",
      "pitch": 87,
      "t_note_us": 196623336,
      "t_trigger_us": 196487373,
      "is_ai": true,
      "track_id": 0,
      "velocity": 0,
      "is_motor": true,
      "motor_id": 3,
      "accel_val": 2000,
      "base_duration_us": 230769
    },
    {
      "id": "M_2063",
      "pitch": 78,
      "t_note_us": 196623336,
      "t_trigger_us": 196487373,
      "is_ai": false,
      "track_id": 0,
      "velocity": 0,
      "is_motor": true,
      "motor_id": 2,
      "accel_val": 2000,
      "base_duration_us": 923076
    },
    {
      "id": "M_2064",
      "pitch": 75,
      "t_note_us": 196623336,
      "t_trigger_us": 196487373,
      "is_ai": false,
      "track_id": 0,
      "velocity": 0,
      "is_motor": true,
      "motor_id": 1,
      "accel_val": 2000,
      "base_duration_us": 923076
    },
    {
      "id": "M_2065",
      "pitch": 68,
      "t_note_us": 196623336,
      "t_trigger_us": 196487373,
      "is_ai": false,
      "track_id": 0,
      "velocity": 0,
      "is_motor": true,
      "motor_id": 0,
      "accel_val": 2000,
      "base_duration_us": 923076
    },
    {
      "id": "M_2066",
      "pitch": 72,
      "t_note_us": 196623336,
      "t_trigger_us": 196487373,
      "is_ai": false,
      "track_id": 0,
      "velocity": 0,
      "is_motor": true,
      "motor_id": 0,
      "accel_val": 2000,
      "base_duration_us": 923076
    },
    {
      "id": "M_2060",
      "pitch": 88,
      "t_note_us": 196854105,
      "t_trigger_us": 196718142,
      "is_ai": true,
      "track_id": 5,
      "velocity": 0,
      "is_motor": false,
      "motor_id": 0,
      "accel_val": 2000,
      "base_duration_us": 230769
    },
    {
      "id": "M_2061",
      "pitch": 90,
      "t_note_us": 197084874,
      "t_trigger_us": 196948911,
      "is_ai": true,
      "track_id": 0,
      "velocity": 0,
      "is_motor": true,
      "motor_id": 3,
      "accel_val": 2000,
      "base_duration_us": 230769
    },
    {
      "id": "M_2062",
      "pitch": 93,
      "t_note_us": 197315643,
      "t_trigger_us": 197179680,
      "is_ai": true,
      "track_id": 8,
      "velocity": 0,
      "is_motor": false,
      "motor_id": 0,
      "accel_val": 2000,
      "base_duration_us": 230769
    },
    {
      "id": "M_2067",
      "pitch": 92,
      "t_note_us": 197546412,
      "t_trigger_us": 197410449,
      "is_ai": true,
      "track_id": 0,
      "velocity": 0,
      "is_motor": true,
      "motor_id": 3,
      "accel_val": 2000,
      "base_duration_us": 346153
    },
    {
      "id": "M_2071",
      "pitch": 68,
      "t_note_us": 197546412,
      "t_trigger_us": 197410449,
      "is_ai": false,
      "track_id": 0,
      "velocity": 0,
      "is_motor": true,
      "motor_id": 1,
      "accel_val": 2000,
      "base_duration_us": 923074
    },
    {
      "id": "M_2072",
      "pitch": 76,
      "t_note_us": 197546412,
      "t_trigger_us": 197410449,
      "is_ai": false,
      "track_id": 0,
      "velocity": 0,
      "is_motor": true,
      "motor_id": 2,
      "accel_val": 2000,
      "base_duration_us": 923074
    },
    {
      "id": "M_2073",
      "pitch": 73,
      "t_note_us": 197546412,
      "t_trigger_us": 197410449,
      "is_ai": false,
      "track_id": 0,
      "velocity": 0,
      "is_motor": true,
      "motor_id": 0,
      "accel_val": 2000,
      "base_duration_us": 923074
    },
    {
      "id": "M_2074",
      "pitch": 71,
      "t_note_us": 197546412,
      "t_trigger_us": 197410449,
      "is_ai": false,
      "track_id": 0,
      "velocity": 0,
      "is_motor": true,
      "motor_id": 0,
      "accel_val": 2000,
      "base_duration_us": 923074
    },
    {
      "id": "M_2068",
      "pitch": 90,
      "t_note_us": 197892565,
      "t_trigger_us": 197756602,
      "is_ai": true,
      "track_id": 0,
      "velocity": 0,
      "is_motor": true,
      "motor_id": 3,
      "accel_val": 2000,
      "base_duration_us": 115384
    },
    {
      "id": "M_2069",
      "pitch": 92,
      "t_note_us": 198007949,
      "t_trigger_us": 197871986,
      "is_ai": true,
      "track_id": 0,
      "velocity": 0,
      "is_motor": true,
      "motor_id": 3,
      "accel_val": 2000,
      "base_duration_us": 115384
    },
    {
      "id": "M_2070",
      "pitch": 97,
      "t_note_us": 198123333,
      "t_trigger_us": 197987370,
      "is_ai": true,
      "track_id": 0,
      "velocity": 0,
      "is_motor": true,
      "motor_id": 3,
      "accel_val": 2000,
      "base_duration_us": 346153
    },
    {
      "id": "M_2079",
      "pitch": 95,
      "t_note_us": 198469486,
      "t_trigger_us": 198333523,
      "is_ai": true,
      "track_id": 9,
      "velocity": 0,
      "is_motor": false,
      "motor_id": 0,
      "accel_val": 2000,
      "base_duration_us": 461538
    },
    {
      "id": "M_2075",
      "pitch": 78,
      "t_note_us": 198469486,
      "t_trigger_us": 198333523,
      "is_ai": false,
      "track_id": 0,
      "velocity": 0,
      "is_motor": true,
      "motor_id": 2,
      "accel_val": 2000,
      "base_duration_us": 461538
    },
    {
      "id": "M_2076",
      "pitch": 69,
      "t_note_us": 198469486,
      "t_trigger_us": 198333523,
      "is_ai": false,
      "track_id": 0,
      "velocity": 0,
      "is_motor": true,
      "motor_id": 1,
      "accel_val": 2000,
      "base_duration_us": 461538
    },
    {
      "id": "M_2077",
      "pitch": 71,
      "t_note_us": 198469486,
      "t_trigger_us": 198333523,
      "is_ai": false,
      "track_id": 0,
      "velocity": 0,
      "is_motor": true,
      "motor_id": 0,
      "accel_val": 2000,
      "base_duration_us": 461538
    },
    {
      "id": "M_2078",
      "pitch": 74,
      "t_note_us": 198469486,
      "t_trigger_us": 198333523,
      "is_ai": false,
      "track_id": 0,
      "velocity": 0,
      "is_motor": true,
      "motor_id": 3,
      "accel_val": 2000,
      "base_duration_us": 461538
    },
    {
      "id": "M_2080",
      "pitch": 92,
      "t_note_us": 198931024,
      "t_trigger_us": 198795061,
      "is_ai": true,
      "track_id": 0,
      "velocity": 0,
      "is_motor": true,
      "motor_id": 3,
      "accel_val": 2000,
      "base_duration_us": 230769
    },
    {
      "id": "M_2082",
      "pitch": 71,
      "t_note_us": 198931024,
      "t_trigger_us": 198795061,
      "is_ai": false,
      "track_id": 0,
      "velocity": 0,
      "is_motor": true,
      "motor_id": 1,
      "accel_val": 2000,
      "base_duration_us": 461538
    },
    {
      "id": "M_2083",
      "pitch": 76,
      "t_note_us": 198931024,
      "t_trigger_us": 198795061,
      "is_ai": false,
      "track_id": 0,
      "velocity": 0,
      "is_motor": true,
      "motor_id": 2,
      "accel_val": 2000,
      "base_duration_us": 461538
    },
    {
      "id": "M_2084",
      "pitch": 68,
      "t_note_us": 198931024,
      "t_trigger_us": 198795061,
      "is_ai": false,
      "track_id": 0,
      "velocity": 0,
      "is_motor": true,
      "motor_id": 0,
      "accel_val": 2000,
      "base_duration_us": 461538
    },
    {
      "id": "M_2085",
      "pitch": 74,
      "t_note_us": 198931024,
      "t_trigger_us": 198795061,
      "is_ai": false,
      "track_id": 0,
      "velocity": 0,
      "is_motor": true,
      "motor_id": 0,
      "accel_val": 2000,
      "base_duration_us": 461538
    },
    {
      "id": "M_2081",
      "pitch": 95,
      "t_note_us": 199161793,
      "t_trigger_us": 199025830,
      "is_ai": true,
      "track_id": 9,
      "velocity": 0,
      "is_motor": false,
      "motor_id": 0,
      "accel_val": 2000,
      "base_duration_us": 230769
    },
    {
      "id": "M_2086",
      "pitch": 97,
      "t_note_us": 199392562,
      "t_trigger_us": 199256599,
      "is_ai": true,
      "track_id": 0,
      "velocity": 0,
      "is_motor": true,
      "motor_id": 3,
      "accel_val": 2000,
      "base_duration_us": 346153
    },
    {
      "id": "M_2087",
      "pitch": 76,
      "t_note_us": 199392562,
      "t_trigger_us": 199256599,
      "is_ai": false,
      "track_id": 0,
      "velocity": 0,
      "is_motor": true,
      "motor_id": 2,
      "accel_val": 2000,
      "base_duration_us": 461537
    },
    {
      "id": "M_2088",
      "pitch": 73,
      "t_note_us": 199392562,
      "t_trigger_us": 199256599,
      "is_ai": false,
      "track_id": 0,
      "velocity": 0,
      "is_motor": true,
      "motor_id": 1,
      "accel_val": 2000,
      "base_duration_us": 461537
    },
    {
      "id": "M_2089",
      "pitch": 69,
      "t_note_us": 199392562,
      "t_trigger_us": 199256599,
      "is_ai": false,
      "track_id": 0,
      "velocity": 0,
      "is_motor": true,
      "motor_id": 0,
      "accel_val": 2000,
      "base_duration_us": 461537
    },
    {
      "id": "M_2090",
      "pitch": 93,
      "t_note_us": 199738715,
      "t_trigger_us": 199602752,
      "is_ai": true,
      "track_id": 8,
      "velocity": 0,
      "is_motor": false,
      "motor_id": 0,
      "accel_val": 2000,
      "base_duration_us": 346153
    },
    {
      "id": "M_2092",
      "pitch": 69,
      "t_note_us": 199854099,
      "t_trigger_us": 199718136,
      "is_ai": false,
      "track_id": 0,
      "velocity": 0,
      "is_motor": true,
      "motor_id": 1,
      "accel_val": 2000,
      "base_duration_us": 461538
    },
    {
      "id": "M_2093",
      "pitch": 73,
      "t_note_us": 199854099,
      "t_trigger_us": 199718136,
      "is_ai": false,
      "track_id": 0,
      "velocity": 0,
      "is_motor": true,
      "motor_id": 0,
      "accel_val": 2000,
      "base_duration_us": 461538
    },
    {
      "id": "M_2094",
      "pitch": 76,
      "t_note_us": 199854099,
      "t_trigger_us": 199718136,
      "is_ai": false,
      "track_id": 0,
      "velocity": 0,
      "is_motor": true,
      "motor_id": 2,
      "accel_val": 2000,
      "base_duration_us": 461538
    },
    {
      "id": "M_2091",
      "pitch": 92,
      "t_note_us": 200084868,
      "t_trigger_us": 199948905,
      "is_ai": true,
      "track_id": 0,
      "velocity": 0,
      "is_motor": true,
      "motor_id": 3,
      "accel_val": 2000,
      "base_duration_us": 230769
    },
    {
      "id": "M_2095",
      "pitch": 90,
      "t_note_us": 200315637,
      "t_trigger_us": 200179674,
      "is_ai": true,
      "track_id": 0,
      "velocity": 0,
      "is_motor": true,
      "motor_id": 3,
      "accel_val": 2000,
      "base_duration_us": 230769
    },
    {
      "id": "M_2097",
      "pitch": 75,
      "t_note_us": 200315637,
      "t_trigger_us": 200179674,
      "is_ai": false,
      "track_id": 0,
      "velocity": 0,
      "is_motor": true,
      "motor_id": 2,
      "accel_val": 2000,
      "base_duration_us": 461538
    },
    {
      "id": "M_2098",
      "pitch": 71,
      "t_note_us": 200315637,
      "t_trigger_us": 200179674,
      "is_ai": false,
      "track_id": 0,
      "velocity": 0,
      "is_motor": true,
      "motor_id": 1,
      "accel_val": 2000,
      "base_duration_us": 461538
    },
    {
      "id": "M_2099",
      "pitch": 78,
      "t_note_us": 200315637,
      "t_trigger_us": 200179674,
      "is_ai": false,
      "track_id": 0,
      "velocity": 0,
      "is_motor": true,
      "motor_id": 0,
      "accel_val": 2000,
      "base_duration_us": 461538
    },
    {
      "id": "M_2096",
      "pitch": 88,
      "t_note_us": 200546406,
      "t_trigger_us": 200410443,
      "is_ai": true,
      "track_id": 5,
      "velocity": 0,
      "is_motor": false,
      "motor_id": 0,
      "accel_val": 2000,
      "base_duration_us": 230769
    },
    {
      "id": "M_2100",
      "pitch": 90,
      "t_note_us": 200777175,
      "t_trigger_us": 200641212,
      "is_ai": true,
      "track_id": 0,
      "velocity": 0,
      "is_motor": true,
      "motor_id": 3,
      "accel_val": 2000,
      "base_duration_us": 230769
    },
    {
      "id": "M_2102",
      "pitch": 71,
      "t_note_us": 200777175,
      "t_trigger_us": 200641212,
      "is_ai": false,
      "track_id": 0,
      "velocity": 0,
      "is_motor": true,
      "motor_id": 1,
      "accel_val": 2000,
      "base_duration_us": 461538
    },
    {
      "id": "M_2103",
      "pitch": 75,
      "t_note_us": 200777175,
      "t_trigger_us": 200641212,
      "is_ai": false,
      "track_id": 0,
      "velocity": 0,
      "is_motor": true,
      "motor_id": 2,
      "accel_val": 2000,
      "base_duration_us": 461538
    },
    {
      "id": "M_2104",
      "pitch": 78,
      "t_note_us": 200777175,
      "t_trigger_us": 200641212,
      "is_ai": false,
      "track_id": 0,
      "velocity": 0,
      "is_motor": true,
      "motor_id": 0,
      "accel_val": 2000,
      "base_duration_us": 461538
    },
    {
      "id": "M_2101",
      "pitch": 97,
      "t_note_us": 201007944,
      "t_trigger_us": 200871981,
      "is_ai": true,
      "track_id": 0,
      "velocity": 0,
      "is_motor": true,
      "motor_id": 3,
      "accel_val": 2000,
      "base_duration_us": 230769
    },
    {
      "id": "M_2105",
      "pitch": 95,
      "t_note_us": 201238713,
      "t_trigger_us": 201102750,
      "is_ai": true,
      "track_id": 9,
      "velocity": 0,
      "is_motor": false,
      "motor_id": 0,
      "accel_val": 2000,
      "base_duration_us": 230769
    },
    {
      "id": "M_2107",
      "pitch": 68,
      "t_note_us": 201238713,
      "t_trigger_us": 201102750,
      "is_ai": false,
      "track_id": 0,
      "velocity": 0,
      "is_motor": true,
      "motor_id": 1,
      "accel_val": 2000,
      "base_duration_us": 461537
    },
    {
      "id": "M_2108",
      "pitch": 78,
      "t_note_us": 201238713,
      "t_trigger_us": 201102750,
      "is_ai": false,
      "track_id": 0,
      "velocity": 0,
      "is_motor": true,
      "motor_id": 2,
      "accel_val": 2000,
      "base_duration_us": 461537
    },
    {
      "id": "M_2109",
      "pitch": 75,
      "t_note_us": 201238713,
      "t_trigger_us": 201102750,
      "is_ai": false,
      "track_id": 0,
      "velocity": 0,
      "is_motor": true,
      "motor_id": 3,
      "accel_val": 2000,
      "base_duration_us": 461537
    },
    {
      "id": "M_2110",
      "pitch": 71,
      "t_note_us": 201238713,
      "t_trigger_us": 201102750,
      "is_ai": false,
      "track_id": 0,
      "velocity": 0,
      "is_motor": true,
      "motor_id": 0,
      "accel_val": 2000,
      "base_duration_us": 461537
    },
    {
      "id": "M_2106",
      "pitch": 97,
      "t_note_us": 201469482,
      "t_trigger_us": 201333519,
      "is_ai": true,
      "track_id": 0,
      "velocity": 0,
      "is_motor": true,
      "motor_id": 0,
      "accel_val": 2000,
      "base_duration_us": 115384
    },
    {
      "id": "M_2111",
      "pitch": 92,
      "t_note_us": 201584866,
      "t_trigger_us": 201448903,
      "is_ai": true,
      "track_id": 0,
      "velocity": 0,
      "is_motor": true,
      "motor_id": 0,
      "accel_val": 2000,
      "base_duration_us": 346153
    },
    {
      "id": "M_2113",
      "pitch": 78,
      "t_note_us": 201700250,
      "t_trigger_us": 201564287,
      "is_ai": false,
      "track_id": 0,
      "velocity": 0,
      "is_motor": true,
      "motor_id": 2,
      "accel_val": 2000,
      "base_duration_us": 461538
    },
    {
      "id": "M_2114",
      "pitch": 68,
      "t_note_us": 201700250,
      "t_trigger_us": 201564287,
      "is_ai": false,
      "track_id": 0,
      "velocity": 0,
      "is_motor": true,
      "motor_id": 1,
      "accel_val": 2000,
      "base_duration_us": 461538
    },
    {
      "id": "M_2115",
      "pitch": 75,
      "t_note_us": 201700250,
      "t_trigger_us": 201564287,
      "is_ai": false,
      "track_id": 0,
      "velocity": 0,
      "is_motor": true,
      "motor_id": 3,
      "accel_val": 2000,
      "base_duration_us": 461538
    },
    {
      "id": "M_2116",
      "pitch": 71,
      "t_note_us": 201700250,
      "t_trigger_us": 201564287,
      "is_ai": false,
      "track_id": 0,
      "velocity": 0,
      "is_motor": true,
      "motor_id": 0,
      "accel_val": 2000,
      "base_duration_us": 461538
    },
    {
      "id": "M_2112",
      "pitch": 90,
      "t_note_us": 201931019,
      "t_trigger_us": 201795056,
      "is_ai": true,
      "track_id": 0,
      "velocity": 0,
      "is_motor": true,
      "motor_id": 0,
      "accel_val": 2000,
      "base_duration_us": 230769
    },
    {
      "id": "M_2117",
      "pitch": 88,
      "t_note_us": 202161788,
      "t_trigger_us": 202025825,
      "is_ai": true,
      "track_id": 5,
      "velocity": 0,
      "is_motor": false,
      "motor_id": 0,
      "accel_val": 2000,
      "base_duration_us": 230769
    },
    {
      "id": "M_2118",
      "pitch": 76,
      "t_note_us": 202161788,
      "t_trigger_us": 202025825,
      "is_ai": false,
      "track_id": 0,
      "velocity": 0,
      "is_motor": true,
      "motor_id": 2,
      "accel_val": 2000,
      "base_duration_us": 461538
    },
    {
      "id": "M_2119",
      "pitch": 68,
      "t_note_us": 202161788,
      "t_trigger_us": 202025825,
      "is_ai": false,
      "track_id": 0,
      "velocity": 0,
      "is_motor": true,
      "motor_id": 1,
      "accel_val": 2000,
      "base_duration_us": 461538
    },
    {
      "id": "M_2120",
      "pitch": 71,
      "t_note_us": 202161788,
      "t_trigger_us": 202025825,
      "is_ai": false,
      "track_id": 0,
      "velocity": 0,
      "is_motor": true,
      "motor_id": 0,
      "accel_val": 2000,
      "base_duration_us": 461538
    },
    {
      "id": "M_2121",
      "pitch": 73,
      "t_note_us": 202161788,
      "t_trigger_us": 202025825,
      "is_ai": false,
      "track_id": 0,
      "velocity": 0,
      "is_motor": true,
      "motor_id": 3,
      "accel_val": 2000,
      "base_duration_us": 461538
    },
    {
      "id": "M_2122",
      "pitch": 85,
      "t_note_us": 202623326,
      "t_trigger_us": 202487363,
      "is_ai": true,
      "track_id": 0,
      "velocity": 0,
      "is_motor": true,
      "motor_id": 3,
      "accel_val": 2000,
      "base_duration_us": 230769
    },
    {
      "id": "M_2124",
      "pitch": 73,
      "t_note_us": 202623326,
      "t_trigger_us": 202487363,
      "is_ai": false,
      "track_id": 0,
      "velocity": 0,
      "is_motor": true,
      "motor_id": 1,
      "accel_val": 2000,
      "base_duration_us": 461538
    },
    {
      "id": "M_2125",
      "pitch": 71,
      "t_note_us": 202623326,
      "t_trigger_us": 202487363,
      "is_ai": false,
      "track_id": 0,
      "velocity": 0,
      "is_motor": true,
      "motor_id": 2,
      "accel_val": 2000,
      "base_duration_us": 461538
    },
    {
      "id": "M_2126",
      "pitch": 68,
      "t_note_us": 202623326,
      "t_trigger_us": 202487363,
      "is_ai": false,
      "track_id": 0,
      "velocity": 0,
      "is_motor": true,
      "motor_id": 0,
      "accel_val": 2000,
      "base_duration_us": 461538
    },
    {
      "id": "M_2127",
      "pitch": 76,
      "t_note_us": 202623326,
      "t_trigger_us": 202487363,
      "is_ai": false,
      "track_id": 0,
      "velocity": 0,
      "is_motor": true,
      "motor_id": 0,
      "accel_val": 2000,
      "base_duration_us": 461538
    },
    {
      "id": "M_2123",
      "pitch": 87,
      "t_note_us": 202854095,
      "t_trigger_us": 202718132,
      "is_ai": true,
      "track_id": 0,
      "velocity": 0,
      "is_motor": true,
      "motor_id": 3,
      "accel_val": 2000,
      "base_duration_us": 230769
    },
    {
      "id": "M_2128",
      "pitch": 88,
      "t_note_us": 203084864,
      "t_trigger_us": 202948901,
      "is_ai": true,
      "track_id": 5,
      "velocity": 0,
      "is_motor": false,
      "motor_id": 0,
      "accel_val": 2000,
      "base_duration_us": 230769
    },
    {
      "id": "M_2130",
      "pitch": 73,
      "t_note_us": 203084864,
      "t_trigger_us": 202948901,
      "is_ai": false,
      "track_id": 0,
      "velocity": 0,
      "is_motor": true,
      "motor_id": 1,
      "accel_val": 2000,
      "base_duration_us": 461538
    },
    {
      "id": "M_2131",
      "pitch": 69,
      "t_note_us": 203084864,
      "t_trigger_us": 202948901,
      "is_ai": false,
      "track_id": 0,
      "velocity": 0,
      "is_motor": true,
      "motor_id": 2,
      "accel_val": 2000,
      "base_duration_us": 461538
    },
    {
      "id": "M_2132",
      "pitch": 76,
      "t_note_us": 203084864,
      "t_trigger_us": 202948901,
      "is_ai": false,
      "track_id": 0,
      "velocity": 0,
      "is_motor": true,
      "motor_id": 3,
      "accel_val": 2000,
      "base_duration_us": 461538
    },
    {
      "id": "M_2129",
      "pitch": 85,
      "t_note_us": 203315633,
      "t_trigger_us": 203179670,
      "is_ai": true,
      "track_id": 0,
      "velocity": 0,
      "is_motor": true,
      "motor_id": 0,
      "accel_val": 2000,
      "base_duration_us": 230769
    },
    {
      "id": "M_2133",
      "pitch": 88,
      "t_note_us": 203546402,
      "t_trigger_us": 203410439,
      "is_ai": true,
      "track_id": 5,
      "velocity": 0,
      "is_motor": false,
      "motor_id": 0,
      "accel_val": 2000,
      "base_duration_us": 230769
    },
    {
      "id": "M_2135",
      "pitch": 73,
      "t_note_us": 203546402,
      "t_trigger_us": 203410439,
      "is_ai": false,
      "track_id": 0,
      "velocity": 0,
      "is_motor": true,
      "motor_id": 1,
      "accel_val": 2000,
      "base_duration_us": 461538
    },
    {
      "id": "M_2136",
      "pitch": 69,
      "t_note_us": 203546402,
      "t_trigger_us": 203410439,
      "is_ai": false,
      "track_id": 0,
      "velocity": 0,
      "is_motor": true,
      "motor_id": 2,
      "accel_val": 2000,
      "base_duration_us": 461538
    },
    {
      "id": "M_2137",
      "pitch": 76,
      "t_note_us": 203546402,
      "t_trigger_us": 203410439,
      "is_ai": false,
      "track_id": 0,
      "velocity": 0,
      "is_motor": true,
      "motor_id": 3,
      "accel_val": 2000,
      "base_duration_us": 461538
    },
    {
      "id": "M_2134",
      "pitch": 90,
      "t_note_us": 203777171,
      "t_trigger_us": 203641208,
      "is_ai": true,
      "track_id": 0,
      "velocity": 0,
      "is_motor": true,
      "motor_id": 0,
      "accel_val": 2000,
      "base_duration_us": 230769
    },
    {
      "id": "M_2138",
      "pitch": 92,
      "t_note_us": 204007940,
      "t_trigger_us": 203871977,
      "is_ai": true,
      "track_id": 0,
      "velocity": 0,
      "is_motor": true,
      "motor_id": 3,
      "accel_val": 2000,
      "base_duration_us": 230769
    },
    {
      "id": "M_2140",
      "pitch": 76,
      "t_note_us": 204007940,
      "t_trigger_us": 203871977,
      "is_ai": false,
      "track_id": 0,
      "velocity": 0,
      "is_motor": true,
      "motor_id": 2,
      "accel_val": 2000,
      "base_duration_us": 461538
    },
    {
      "id": "M_2141",
      "pitch": 73,
      "t_note_us": 204007940,
      "t_trigger_us": 203871977,
      "is_ai": false,
      "track_id": 0,
      "velocity": 0,
      "is_motor": true,
      "motor_id": 1,
      "accel_val": 2000,
      "base_duration_us": 461538
    },
    {
      "id": "M_2142",
      "pitch": 69,
      "t_note_us": 204007940,
      "t_trigger_us": 203871977,
      "is_ai": false,
      "track_id": 0,
      "velocity": 0,
      "is_motor": true,
      "motor_id": 0,
      "accel_val": 2000,
      "base_duration_us": 461538
    },
    {
      "id": "M_2139",
      "pitch": 88,
      "t_note_us": 204238709,
      "t_trigger_us": 204102746,
      "is_ai": true,
      "track_id": 5,
      "velocity": 0,
      "is_motor": false,
      "motor_id": 0,
      "accel_val": 2000,
      "base_duration_us": 230769
    },
    {
      "id": "M_2143",
      "pitch": 92,
      "t_note_us": 204469478,
      "t_trigger_us": 204333515,
      "is_ai": true,
      "track_id": 0,
      "velocity": 0,
      "is_motor": true,
      "motor_id": 3,
      "accel_val": 2000,
      "base_duration_us": 230769
    },
    {
      "id": "M_2145",
      "pitch": 69,
      "t_note_us": 204469478,
      "t_trigger_us": 204333515,
      "is_ai": false,
      "track_id": 0,
      "velocity": 0,
      "is_motor": true,
      "motor_id": 1,
      "accel_val": 2000,
      "base_duration_us": 461538
    },
    {
      "id": "M_2146",
      "pitch": 76,
      "t_note_us": 204469478,
      "t_trigger_us": 204333515,
      "is_ai": false,
      "track_id": 0,
      "velocity": 0,
      "is_motor": true,
      "motor_id": 2,
      "accel_val": 2000,
      "base_duration_us": 461538
    },
    {
      "id": "M_2147",
      "pitch": 73,
      "t_note_us": 204469478,
      "t_trigger_us": 204333515,
      "is_ai": false,
      "track_id": 0,
      "velocity": 0,
      "is_motor": true,
      "motor_id": 0,
      "accel_val": 2000,
      "base_duration_us": 461538
    },
    {
      "id": "M_2144",
      "pitch": 97,
      "t_note_us": 204700247,
      "t_trigger_us": 204564284,
      "is_ai": true,
      "track_id": 0,
      "velocity": 0,
      "is_motor": true,
      "motor_id": 3,
      "accel_val": 2000,
      "base_duration_us": 230769
    },
    {
      "id": "M_2148",
      "pitch": 96,
      "t_note_us": 204931016,
      "t_trigger_us": 204795053,
      "is_ai": true,
      "track_id": 10,
      "velocity": 0,
      "is_motor": false,
      "motor_id": 0,
      "accel_val": 2000,
      "base_duration_us": 692307
    },
    {
      "id": "M_2150",
      "pitch": 68,
      "t_note_us": 204931016,
      "t_trigger_us": 204795053,
      "is_ai": false,
      "track_id": 0,
      "velocity": 0,
      "is_motor": true,
      "motor_id": 1,
      "accel_val": 2000,
      "base_duration_us": 1730767
    },
    {
      "id": "M_2151",
      "pitch": 75,
      "t_note_us": 204931016,
      "t_trigger_us": 204795053,
      "is_ai": false,
      "track_id": 0,
      "velocity": 0,
      "is_motor": true,
      "motor_id": 2,
      "accel_val": 2000,
      "base_duration_us": 1730767
    },
    {
      "id": "M_2152",
      "pitch": 78,
      "t_note_us": 204931016,
      "t_trigger_us": 204795053,
      "is_ai": false,
      "track_id": 0,
      "velocity": 0,
      "is_motor": true,
      "motor_id": 3,
      "accel_val": 2000,
      "base_duration_us": 1730767
    },
    {
      "id": "M_2153",
      "pitch": 72,
      "t_note_us": 204931016,
      "t_trigger_us": 204795053,
      "is_ai": false,
      "track_id": 0,
      "velocity": 0,
      "is_motor": true,
      "motor_id": 0,
      "accel_val": 2000,
      "base_duration_us": 1730767
    },
    {
      "id": "M_2149",
      "pitch": 97,
      "t_note_us": 205623323,
      "t_trigger_us": 205487360,
      "is_ai": true,
      "track_id": 0,
      "velocity": 0,
      "is_motor": true,
      "motor_id": 0,
      "accel_val": 2000,
      "base_duration_us": 692307
    },
    {
      "id": "M_2154",
      "pitch": 99,
      "t_note_us": 206315630,
      "t_trigger_us": 206179667,
      "is_ai": true,
      "track_id": 0,
      "velocity": 0,
      "is_motor": true,
      "motor_id": 0,
      "accel_val": 2000,
      "base_duration_us": 461537
    },
    {
      "id": "M_2155",
      "pitch": 94,
      "t_note_us": 206777167,
      "t_trigger_us": 206641204,
      "is_ai": true,
      "track_id": 0,
      "velocity": 0,
      "is_motor": true,
      "motor_id": 3,
      "accel_val": 2000,
      "base_duration_us": 115384
    },
    {
      "id": "M_2158",
      "pitch": 58,
      "t_note_us": 206777167,
      "t_trigger_us": 206641204,
      "is_ai": false,
      "track_id": 0,
      "velocity": 0,
      "is_motor": true,
      "motor_id": 0,
      "accel_val": 2000,
      "base_duration_us": 346152
    },
    {
      "id": "M_2159",
      "pitch": 53,
      "t_note_us": 206777167,
      "t_trigger_us": 206641204,
      "is_ai": false,
      "track_id": 0,
      "velocity": 0,
      "is_motor": true,
      "motor_id": 1,
      "accel_val": 2000,
      "base_duration_us": 346152
    },
    {
      "id": "M_2160",
      "pitch": 46,
      "t_note_us": 206777167,
      "t_trigger_us": 206641204,
      "is_ai": false,
      "track_id": 0,
      "velocity": 0,
      "is_motor": true,
      "motor_id": 2,
      "accel_val": 2000,
      "base_duration_us": 346152
    },
    {
      "id": "M_2156",
      "pitch": 98,
      "t_note_us": 206892551,
      "t_trigger_us": 206756588,
      "is_ai": true,
      "track_id": 11,
      "velocity": 0,
      "is_motor": false,
      "motor_id": 0,
      "accel_val": 2000,
      "base_duration_us": 115384
    },
    {
      "id": "M_2157",
      "pitch": 101,
      "t_note_us": 207007935,
      "t_trigger_us": 206871972,
      "is_ai": true,
      "track_id": 13,
      "velocity": 0,
      "is_motor": false,
      "motor_id": 0,
      "accel_val": 2000,
      "base_duration_us": 115384
    },
    {
      "id": "M_2161",
      "pitch": 98,
      "t_note_us": 207123319,
      "t_trigger_us": 206987356,
      "is_ai": true,
      "track_id": 11,
      "velocity": 0,
      "is_motor": false,
      "motor_id": 0,
      "accel_val": 2000,
      "base_duration_us": 115384
    },
    {
      "id": "M_2164",
      "pitch": 53,
      "t_note_us": 207123319,
      "t_trigger_us": 206987356,
      "is_ai": false,
      "track_id": 0,
      "velocity": 0,
      "is_motor": true,
      "motor_id": 0,
      "accel_val": 2000,
      "base_duration_us": 346152
    },
    {
      "id": "M_2165",
      "pitch": 58,
      "t_note_us": 207123319,
      "t_trigger_us": 206987356,
      "is_ai": false,
      "track_id": 0,
      "velocity": 0,
      "is_motor": true,
      "motor_id": 1,
      "accel_val": 2000,
      "base_duration_us": 346152
    },
    {
      "id": "M_2166",
      "pitch": 46,
      "t_note_us": 207123319,
      "t_trigger_us": 206987356,
      "is_ai": false,
      "track_id": 0,
      "velocity": 0,
      "is_motor": true,
      "motor_id": 2,
      "accel_val": 2000,
      "base_duration_us": 346152
    },
    {
      "id": "M_2162",
      "pitch": 101,
      "t_note_us": 207238703,
      "t_trigger_us": 207102740,
      "is_ai": true,
      "track_id": 13,
      "velocity": 0,
      "is_motor": false,
      "motor_id": 0,
      "accel_val": 2000,
      "base_duration_us": 115384
    },
    {
      "id": "M_2163",
      "pitch": 94,
      "t_note_us": 207354087,
      "t_trigger_us": 207218124,
      "is_ai": true,
      "track_id": 0,
      "velocity": 0,
      "is_motor": true,
      "motor_id": 3,
      "accel_val": 2000,
      "base_duration_us": 115384
    },
    {
      "id": "M_2167",
      "pitch": 101,
      "t_note_us": 207469471,
      "t_trigger_us": 207333508,
      "is_ai": true,
      "track_id": 13,
      "velocity": 0,
      "is_motor": false,
      "motor_id": 0,
      "accel_val": 2000,
      "base_duration_us": 115384
    },
    {
      "id": "M_2169",
      "pitch": 58,
      "t_note_us": 207469471,
      "t_trigger_us": 207333508,
      "is_ai": false,
      "track_id": 0,
      "velocity": 0,
      "is_motor": true,
      "motor_id": 0,
      "accel_val": 2000,
      "base_duration_us": 230768
    },
    {
      "id": "M_2170",
      "pitch": 53,
      "t_note_us": 207469471,
      "t_trigger_us": 207333508,
      "is_ai": false,
      "track_id": 0,
      "velocity": 0,
      "is_motor": true,
      "motor_id": 1,
      "accel_val": 2000,
      "base_duration_us": 230768
    },
    {
      "id": "M_2171",
      "pitch": 46,
      "t_note_us": 207469471,
      "t_trigger_us": 207333508,
      "is_ai": false,
      "track_id": 0,
      "velocity": 0,
      "is_motor": true,
      "motor_id": 2,
      "accel_val": 2000,
      "base_duration_us": 230768
    },
    {
      "id": "M_2168",
      "pitch": 94,
      "t_note_us": 207584855,
      "t_trigger_us": 207448892,
      "is_ai": true,
      "track_id": 0,
      "velocity": 0,
      "is_motor": true,
      "motor_id": 3,
      "accel_val": 2000,
      "base_duration_us": 115384
    },
    {
      "id": "M_2172",
      "pitch": 99,
      "t_note_us": 207700239,
      "t_trigger_us": 207564276,
      "is_ai": true,
      "track_id": 0,
      "velocity": 0,
      "is_motor": true,
      "motor_id": 3,
      "accel_val": 2000,
      "base_duration_us": 115384
    },
    {
      "id": "M_2175",
      "pitch": 59,
      "t_note_us": 207700239,
      "t_trigger_us": 207564276,
      "is_ai": false,
      "track_id": 0,
      "velocity": 0,
      "is_motor": true,
      "motor_id": 0,
      "accel_val": 2000,
      "base_duration_us": 462737
    },
    {
      "id": "M_2176",
      "pitch": 54,
      "t_note_us": 207700239,
      "t_trigger_us": 207564276,
      "is_ai": false,
      "track_id": 0,
      "velocity": 0,
      "is_motor": true,
      "motor_id": 1,
      "accel_val": 2000,
      "base_duration_us": 462737
    },
    {
      "id": "M_2177",
      "pitch": 47,
      "t_note_us": 207700239,
      "t_trigger_us": 207564276,
      "is_ai": false,
      "track_id": 0,
      "velocity": 0,
      "is_motor": true,
      "motor_id": 2,
      "accel_val": 2000,
      "base_duration_us": 462737
    },
    {
      "id": "M_2173",
      "pitch": 102,
      "t_note_us": 207777162,
      "t_trigger_us": 207641199,
      "is_ai": true,
      "track_id": 0,
      "velocity": 0,
      "is_motor": true,
      "motor_id": 0,
      "accel_val": 2000,
      "base_duration_us": 116585
    },
    {
      "id": "M_2174",
      "pitch": 95,
      "t_note_us": 207855286,
      "t_trigger_us": 207719323,
      "is_ai": true,
      "track_id": 9,
      "velocity": 0,
      "is_motor": false,
      "motor_id": 0,
      "accel_val": 2000,
      "base_duration_us": 116585
    },
    {
      "id": "M_2178",
      "pitch": 103,
      "t_note_us": 207933410,
      "t_trigger_us": 207797447,
      "is_ai": true,
      "track_id": 14,
      "velocity": 0,
      "is_motor": false,
      "motor_id": 0,
      "accel_val": 2000,
      "base_duration_us": 230767
    },
    {
      "id": "M_2179",
      "pitch": 102,
      "t_note_us": 208164177,
      "t_trigger_us": 208028214,
      "is_ai": true,
      "track_id": 0,
      "velocity": 0,
      "is_motor": true,
      "motor_id": 3,
      "accel_val": 2000,
      "base_duration_us": 230769
    },
    {
      "id": "M_2181",
      "pitch": 47,
      "t_note_us": 208164177,
      "t_trigger_us": 208028214,
      "is_ai": false,
      "track_id": 0,
      "velocity": 0,
      "is_motor": true,
      "motor_id": 0,
      "accel_val": 2000,
      "base_duration_us": 461538
    },
    {
      "id": "M_2182",
      "pitch": 59,
      "t_note_us": 208164177,
      "t_trigger_us": 208028214,
      "is_ai": false,
      "track_id": 0,
      "velocity": 0,
      "is_motor": true,
      "motor_id": 1,
      "accel_val": 2000,
      "base_duration_us": 461538
    },
    {
      "id": "M_2183",
      "pitch": 54,
      "t_note_us": 208164177,
      "t_trigger_us": 208028214,
      "is_ai": false,
      "track_id": 0,
      "velocity": 0,
      "is_motor": true,
      "motor_id": 2,
      "accel_val": 2000,
      "base_duration_us": 461538
    },
    {
      "id": "M_2180",
      "pitch": 98,
      "t_note_us": 208394946,
      "t_trigger_us": 208258983,
      "is_ai": true,
      "track_id": 11,
      "velocity": 0,
      "is_motor": false,
      "motor_id": 0,
      "accel_val": 2000,
      "base_duration_us": 230769
    },
    {
      "id": "M_2186",
      "pitch": 86,
      "t_note_us": 208625715,
      "t_trigger_us": 208489752,
      "is_ai": true,
      "track_id": 4,
      "velocity": 0,
      "is_motor": false,
      "motor_id": 0,
      "accel_val": 2000,
      "base_duration_us": 346153
    },
    {
      "id": "M_2187",
      "pitch": 98,
      "t_note_us": 208625715,
      "t_trigger_us": 208489752,
      "is_ai": true,
      "track_id": 11,
      "velocity": 0,
      "is_motor": false,
      "motor_id": 0,
      "accel_val": 2000,
      "base_duration_us": 346153
    },
    {
      "id": "M_2184",
      "pitch": 60,
      "t_note_us": 208625715,
      "t_trigger_us": 208489752,
      "is_ai": false,
      "track_id": 0,
      "velocity": 0,
      "is_motor": true,
      "motor_id": 1,
      "accel_val": 2000,
      "base_duration_us": 230769
    },
    {
      "id": "M_2185",
      "pitch": 48,
      "t_note_us": 208625715,
      "t_trigger_us": 208489752,
      "is_ai": false,
      "track_id": 0,
      "velocity": 0,
      "is_motor": true,
      "motor_id": 0,
      "accel_val": 2000,
      "base_duration_us": 230769
    },
    {
      "id": "M_2188",
      "pitch": 60,
      "t_note_us": 208856484,
      "t_trigger_us": 208720521,
      "is_ai": false,
      "track_id": 0,
      "velocity": 0,
      "is_motor": true,
      "motor_id": 1,
      "accel_val": 2000,
      "base_duration_us": 230768
    },
    {
      "id": "M_2191",
      "pitch": 100,
      "t_note_us": 208971868,
      "t_trigger_us": 208835905,
      "is_ai": true,
      "track_id": 12,
      "velocity": 0,
      "is_motor": false,
      "motor_id": 0,
      "accel_val": 2000,
      "base_duration_us": 346153
    },
    {
      "id": "M_2192",
      "pitch": 88,
      "t_note_us": 208971868,
      "t_trigger_us": 208835905,
      "is_ai": true,
      "track_id": 5,
      "velocity": 0,
      "is_motor": false,
      "motor_id": 0,
      "accel_val": 2000,
      "base_duration_us": 346153
    },
    {
      "id": "M_2189",
      "pitch": 64,
      "t_note_us": 209087252,
      "t_trigger_us": 208951289,
      "is_ai": false,
      "track_id": 0,
      "velocity": 0,
      "is_motor": true,
      "motor_id": 1,
      "accel_val": 2000,
      "base_duration_us": 230769
    },
    {
      "id": "M_2190",
      "pitch": 67,
      "t_note_us": 209087252,
      "t_trigger_us": 208951289,
      "is_ai": false,
      "track_id": 0,
      "velocity": 0,
      "is_motor": true,
      "motor_id": 2,
      "accel_val": 2000,
      "base_duration_us": 230769
    },
    {
      "id": "M_2195",
      "pitch": 95,
      "t_note_us": 209318021,
      "t_trigger_us": 209182058,
      "is_ai": true,
      "track_id": 9,
      "velocity": 0,
      "is_motor": false,
      "motor_id": 0,
      "accel_val": 2000,
      "base_duration_us": 230769
    },
    {
      "id": "M_2193",
      "pitch": 60,
      "t_note_us": 209318021,
      "t_trigger_us": 209182058,
      "is_ai": false,
      "track_id": 0,
      "velocity": 0,
      "is_motor": true,
      "motor_id": 1,
      "accel_val": 2000,
      "base_duration_us": 230769
    },
    {
      "id": "M_2194",
      "pitch": 71,
      "t_note_us": 209318021,
      "t_trigger_us": 209182058,
      "is_ai": false,
      "track_id": 0,
      "velocity": 0,
      "is_motor": true,
      "motor_id": 2,
      "accel_val": 2000,
      "base_duration_us": 230769
    },
    {
      "id": "M_2196",
      "pitch": 93,
      "t_note_us": 209548790,
      "t_trigger_us": 209412827,
      "is_ai": true,
      "track_id": 8,
      "velocity": 0,
      "is_motor": false,
      "motor_id": 0,
      "accel_val": 2000,
      "base_duration_us": 230769
    },
    {
      "id": "M_2197",
      "pitch": 50,
      "t_note_us": 209548790,
      "t_trigger_us": 209412827,
      "is_ai": false,
      "track_id": 0,
      "velocity": 0,
      "is_motor": true,
      "motor_id": 0,
      "accel_val": 2000,
      "base_duration_us": 230769
    },
    {
      "id": "M_2198",
      "pitch": 69,
      "t_note_us": 209548790,
      "t_trigger_us": 209412827,
      "is_ai": false,
      "track_id": 0,
      "velocity": 0,
      "is_motor": true,
      "motor_id": 1,
      "accel_val": 2000,
      "base_duration_us": 230769
    },
    {
      "id": "M_2201",
      "pitch": 91,
      "t_note_us": 209779559,
      "t_trigger_us": 209643596,
      "is_ai": true,
      "track_id": 7,
      "velocity": 0,
      "is_motor": false,
      "motor_id": 0,
      "accel_val": 2000,
      "base_duration_us": 230768
    },
    {
      "id": "M_2199",
      "pitch": 66,
      "t_note_us": 209779559,
      "t_trigger_us": 209643596,
      "is_ai": false,
      "track_id": 0,
      "velocity": 0,
      "is_motor": true,
      "motor_id": 1,
      "accel_val": 2000,
      "base_duration_us": 115384
    },
    {
      "id": "M_2200",
      "pitch": 62,
      "t_note_us": 209779559,
      "t_trigger_us": 209643596,
      "is_ai": false,
      "track_id": 0,
      "velocity": 0,
      "is_motor": true,
      "motor_id": 0,
      "accel_val": 2000,
      "base_duration_us": 115384
    },
    {
      "id": "M_2202",
      "pitch": 67,
      "t_note_us": 209779559,
      "t_trigger_us": 209643596,
      "is_ai": false,
      "track_id": 0,
      "velocity": 0,
      "is_motor": true,
      "motor_id": 2,
      "accel_val": 2000,
      "base_duration_us": 230768
    },
    {
      "id": "M_2203",
      "pitch": 50,
      "t_note_us": 209894943,
      "t_trigger_us": 209758980,
      "is_ai": false,
      "track_id": 0,
      "velocity": 0,
      "is_motor": true,
      "motor_id": 0,
      "accel_val": 2000,
      "base_duration_us": 230768
    },
    {
      "id": "M_2205",
      "pitch": 93,
      "t_note_us": 210010327,
      "t_trigger_us": 209874364,
      "is_ai": true,
      "track_id": 8,
      "velocity": 0,
      "is_motor": false,
      "motor_id": 0,
      "accel_val": 2000,
      "base_duration_us": 230768
    },
    {
      "id": "M_2206",
      "pitch": 69,
      "t_note_us": 210010327,
      "t_trigger_us": 209874364,
      "is_ai": false,
      "track_id": 0,
      "velocity": 0,
      "is_motor": true,
      "motor_id": 1,
      "accel_val": 2000,
      "base_duration_us": 230768
    },
    {
      "id": "M_2204",
      "pitch": 50,
      "t_note_us": 210125711,
      "t_trigger_us": 209989748,
      "is_ai": false,
      "track_id": 0,
      "velocity": 0,
      "is_motor": true,
      "motor_id": 0,
      "accel_val": 2000,
      "base_duration_us": 115384
    },
    {
      "id": "M_2210",
      "pitch": 100,
      "t_note_us": 210241095,
      "t_trigger_us": 210105132,
      "is_ai": true,
      "track_id": 12,
      "velocity": 0,
      "is_motor": false,
      "motor_id": 0,
      "accel_val": 2000,
      "base_duration_us": 230768
    },
    {
      "id": "M_2211",
      "pitch": 88,
      "t_note_us": 210241095,
      "t_trigger_us": 210105132,
      "is_ai": true,
      "track_id": 5,
      "velocity": 0,
      "is_motor": false,
      "motor_id": 0,
      "accel_val": 2000,
      "base_duration_us": 230768
    },
    {
      "id": "M_2207",
      "pitch": 62,
      "t_note_us": 210241095,
      "t_trigger_us": 210105132,
      "is_ai": false,
      "track_id": 0,
      "velocity": 0,
      "is_motor": true,
      "motor_id": 1,
      "accel_val": 2000,
      "base_duration_us": 115384
    },
    {
      "id": "M_2208",
      "pitch": 66,
      "t_note_us": 210241095,
      "t_trigger_us": 210105132,
      "is_ai": false,
      "track_id": 0,
      "velocity": 0,
      "is_motor": true,
      "motor_id": 2,
      "accel_val": 2000,
      "base_duration_us": 115384
    },
    {
      "id": "M_2209",
      "pitch": 50,
      "t_note_us": 210356479,
      "t_trigger_us": 210220516,
      "is_ai": false,
      "track_id": 0,
      "velocity": 0,
      "is_motor": true,
      "motor_id": 0,
      "accel_val": 2000,
      "base_duration_us": 115384
    },
    {
      "id": "M_2214",
      "pitch": 98,
      "t_note_us": 210471863,
      "t_trigger_us": 210335900,
      "is_ai": true,
      "track_id": 11,
      "velocity": 0,
      "is_motor": false,
      "motor_id": 0,
      "accel_val": 2000,
      "base_duration_us": 230769
    },
    {
      "id": "M_2215",
      "pitch": 86,
      "t_note_us": 210471863,
      "t_trigger_us": 210335900,
      "is_ai": true,
      "track_id": 4,
      "velocity": 0,
      "is_motor": false,
      "motor_id": 0,
      "accel_val": 2000,
      "base_duration_us": 230769
    },
    {
      "id": "M_2212",
      "pitch": 59,
      "t_note_us": 210471863,
      "t_trigger_us": 210335900,
      "is_ai": false,
      "track_id": 0,
      "velocity": 0,
      "is_motor": true,
      "motor_id": 0,
      "accel_val": 2000,
      "base_duration_us": 230769
    },
    {
      "id": "M_2213",
      "pitch": 47,
      "t_note_us": 210471863,
      "t_trigger_us": 210335900,
      "is_ai": false,
      "track_id": 0,
      "velocity": 0,
      "is_motor": true,
      "motor_id": 1,
      "accel_val": 2000,
      "base_duration_us": 230769
    },
    {
      "id": "M_2216",
      "pitch": 88,
      "t_note_us": 210702632,
      "t_trigger_us": 210566669,
      "is_ai": true,
      "track_id": 5,
      "velocity": 0,
      "is_motor": false,
      "motor_id": 0,
      "accel_val": 2000,
      "base_duration_us": 115384
    },
    {
      "id": "M_2217",
      "pitch": 100,
      "t_note_us": 210702632,
      "t_trigger_us": 210566669,
      "is_ai": true,
      "track_id": 12,
      "velocity": 0,
      "is_motor": false,
      "motor_id": 0,
      "accel_val": 2000,
      "base_duration_us": 115384
    },
    {
      "id": "M_2218",
      "pitch": 59,
      "t_note_us": 210702632,
      "t_trigger_us": 210566669,
      "is_ai": false,
      "track_id": 0,
      "velocity": 0,
      "is_motor": true,
      "motor_id": 0,
      "accel_val": 2000,
      "base_duration_us": 230768
    },
    {
      "id": "M_2224",
      "pitch": 95,
      "t_note_us": 210818016,
      "t_trigger_us": 210682053,
      "is_ai": true,
      "track_id": 9,
      "velocity": 0,
      "is_motor": false,
      "motor_id": 0,
      "accel_val": 2000,
      "base_duration_us": 346152
    },
    {
      "id": "M_2223",
      "pitch": 71,
      "t_note_us": 210818016,
      "t_trigger_us": 210682053,
      "is_ai": false,
      "track_id": 0,
      "velocity": 0,
      "is_motor": true,
      "motor_id": 1,
      "accel_val": 2000,
      "base_duration_us": 346152
    },
    {
      "id": "M_2221",
      "pitch": 62,
      "t_note_us": 210933400,
      "t_trigger_us": 210797437,
      "is_ai": false,
      "track_id": 0,
      "velocity": 0,
      "is_motor": true,
      "motor_id": 0,
      "accel_val": 2000,
      "base_duration_us": 230768
    },
    {
      "id": "M_2222",
      "pitch": 66,
      "t_note_us": 210933400,
      "t_trigger_us": 210797437,
      "is_ai": false,
      "track_id": 0,
      "velocity": 0,
      "is_motor": true,
      "motor_id": 2,
      "accel_val": 2000,
      "base_duration_us": 230768
    },
    {
      "id": "M_2220",
      "pitch": 91,
      "t_note_us": 211048784,
      "t_trigger_us": 210912821,
      "is_ai": true,
      "track_id": 7,
      "velocity": 0,
      "is_motor": false,
      "motor_id": 0,
      "accel_val": 2000,
      "base_duration_us": 115384
    },
    {
      "id": "M_2219",
      "pitch": 67,
      "t_note_us": 211048784,
      "t_trigger_us": 210912821,
      "is_ai": false,
      "track_id": 0,
      "velocity": 0,
      "is_motor": true,
      "motor_id": 3,
      "accel_val": 2000,
      "base_duration_us": 115384
    },
    {
      "id": "M_2225",
      "pitch": 93,
      "t_note_us": 211164168,
      "t_trigger_us": 211028205,
      "is_ai": true,
      "track_id": 8,
      "velocity": 0,
      "is_motor": false,
      "motor_id": 0,
      "accel_val": 2000,
      "base_duration_us": 230769
    },
    {
      "id": "M_2226",
      "pitch": 59,
      "t_note_us": 211164168,
      "t_trigger_us": 211028205,
      "is_ai": false,
      "track_id": 0,
      "velocity": 0,
      "is_motor": true,
      "motor_id": 0,
      "accel_val": 2000,
      "base_duration_us": 230769
    },
    {
      "id": "M_2227",
      "pitch": 69,
      "t_note_us": 211164168,
      "t_trigger_us": 211028205,
      "is_ai": false,
      "track_id": 0,
      "velocity": 0,
      "is_motor": true,
      "motor_id": 1,
      "accel_val": 2000,
      "base_duration_us": 230769
    },
    {
      "id": "M_2231",
      "pitch": 91,
      "t_note_us": 211394937,
      "t_trigger_us": 211258974,
      "is_ai": true,
      "track_id": 7,
      "velocity": 0,
      "is_motor": false,
      "motor_id": 0,
      "accel_val": 2000,
      "base_duration_us": 461537
    },
    {
      "id": "M_2228",
      "pitch": 52,
      "t_note_us": 211394937,
      "t_trigger_us": 211258974,
      "is_ai": false,
      "track_id": 0,
      "velocity": 0,
      "is_motor": true,
      "motor_id": 0,
      "accel_val": 2000,
      "base_duration_us": 230769
    },
    {
      "id": "M_2232",
      "pitch": 67,
      "t_note_us": 211394937,
      "t_trigger_us": 211258974,
      "is_ai": false,
      "track_id": 0,
      "velocity": 0,
      "is_motor": true,
      "motor_id": 1,
      "accel_val": 2000,
      "base_duration_us": 461537
    },
    {
      "id": "M_2229",
      "pitch": 59,
      "t_note_us": 211625706,
      "t_trigger_us": 211489743,
      "is_ai": false,
      "track_id": 0,
      "velocity": 0,
      "is_motor": true,
      "motor_id": 0,
      "accel_val": 2000,
      "base_duration_us": 115384
    },
    {
      "id": "M_2230",
      "pitch": 64,
      "t_note_us": 211625706,
      "t_trigger_us": 211489743,
      "is_ai": false,
      "track_id": 0,
      "velocity": 0,
      "is_motor": true,
      "motor_id": 2,
      "accel_val": 2000,
      "base_duration_us": 115384
    },
    {
      "id": "M_2233",
      "pitch": 52,
      "t_note_us": 211741090,
      "t_trigger_us": 211605127,
      "is_ai": false,
      "track_id": 0,
      "velocity": 0,
      "is_motor": true,
      "motor_id": 0,
      "accel_val": 2000,
      "base_duration_us": 230768
    },
    {
      "id": "M_2236",
      "pitch": 91,
      "t_note_us": 211856474,
      "t_trigger_us": 211720511,
      "is_ai": true,
      "track_id": 7,
      "velocity": 0,
      "is_motor": false,
      "motor_id": 0,
      "accel_val": 2000,
      "base_duration_us": 230768
    },
    {
      "id": "M_2235",
      "pitch": 67,
      "t_note_us": 211856474,
      "t_trigger_us": 211720511,
      "is_ai": false,
      "track_id": 0,
      "velocity": 0,
      "is_motor": true,
      "motor_id": 1,
      "accel_val": 2000,
      "base_duration_us": 230768
    },
    {
      "id": "M_2234",
      "pitch": 52,
      "t_note_us": 211971858,
      "t_trigger_us": 211835895,
      "is_ai": false,
      "track_id": 0,
      "velocity": 0,
      "is_motor": true,
      "motor_id": 0,
      "accel_val": 2000,
      "base_duration_us": 115384
    },
    {
      "id": "M_2240",
      "pitch": 86,
      "t_note_us": 212087242,
      "t_trigger_us": 211951279,
      "is_ai": true,
      "track_id": 4,
      "velocity": 0,
      "is_motor": false,
      "motor_id": 0,
      "accel_val": 2000,
      "base_duration_us": 230768
    },
    {
      "id": "M_2241",
      "pitch": 98,
      "t_note_us": 212087242,
      "t_trigger_us": 211951279,
      "is_ai": true,
      "track_id": 11,
      "velocity": 0,
      "is_motor": false,
      "motor_id": 0,
      "accel_val": 2000,
      "base_duration_us": 230768
    },
    {
      "id": "M_2237",
      "pitch": 59,
      "t_note_us": 212087242,
      "t_trigger_us": 211951279,
      "is_ai": false,
      "track_id": 0,
      "velocity": 0,
      "is_motor": true,
      "motor_id": 0,
      "accel_val": 2000,
      "base_duration_us": 115384
    },
    {
      "id": "M_2238",
      "pitch": 64,
      "t_note_us": 212087242,
      "t_trigger_us": 211951279,
      "is_ai": false,
      "track_id": 0,
      "velocity": 0,
      "is_motor": true,
      "motor_id": 1,
      "accel_val": 2000,
      "base_duration_us": 115384
    },
    {
      "id": "M_2239",
      "pitch": 52,
      "t_note_us": 212202626,
      "t_trigger_us": 212066663,
      "is_ai": false,
      "track_id": 0,
      "velocity": 0,
      "is_motor": true,
      "motor_id": 0,
      "accel_val": 2000,
      "base_duration_us": 115384
    },
    {
      "id": "M_2244",
      "pitch": 96,
      "t_note_us": 212318010,
      "t_trigger_us": 212182047,
      "is_ai": true,
      "track_id": 10,
      "velocity": 0,
      "is_motor": false,
      "motor_id": 0,
      "accel_val": 2000,
      "base_duration_us": 230769
    },
    {
      "id": "M_2242",
      "pitch": 72,
      "t_note_us": 212318010,
      "t_trigger_us": 212182047,
      "is_ai": false,
      "track_id": 0,
      "velocity": 0,
      "is_motor": true,
      "motor_id": 1,
      "accel_val": 2000,
      "base_duration_us": 230769
    },
    {
      "id": "M_2243",
      "pitch": 48,
      "t_note_us": 212318010,
      "t_trigger_us": 212182047,
      "is_ai": false,
      "track_id": 0,
      "velocity": 0,
      "is_motor": true,
      "motor_id": 0,
      "accel_val": 2000,
      "base_duration_us": 230769
    },
    {
      "id": "M_2246",
      "pitch": 95,
      "t_note_us": 212548779,
      "t_trigger_us": 212412816,
      "is_ai": true,
      "track_id": 9,
      "velocity": 0,
      "is_motor": false,
      "motor_id": 0,
      "accel_val": 2000,
      "base_duration_us": 230769
    },
    {
      "id": "M_2245",
      "pitch": 71,
      "t_note_us": 212548779,
      "t_trigger_us": 212412816,
      "is_ai": false,
      "track_id": 0,
      "velocity": 0,
      "is_motor": true,
      "motor_id": 1,
      "accel_val": 2000,
      "base_duration_us": 230769
    },
    {
      "id": "M_2247",
      "pitch": 60,
      "t_note_us": 212548779,
      "t_trigger_us": 212412816,
      "is_ai": false,
      "track_id": 0,
      "velocity": 0,
      "is_motor": true,
      "motor_id": 0,
      "accel_val": 2000,
      "base_duration_us": 230769
    },
    {
      "id": "M_2248",
      "pitch": 64,
      "t_note_us": 212548779,
      "t_trigger_us": 212412816,
      "is_ai": false,
      "track_id": 0,
      "velocity": 0,
      "is_motor": true,
      "motor_id": 2,
      "accel_val": 2000,
      "base_duration_us": 230769
    },
    {
      "id": "M_2251",
      "pitch": 93,
      "t_note_us": 212779548,
      "t_trigger_us": 212643585,
      "is_ai": true,
      "track_id": 8,
      "velocity": 0,
      "is_motor": false,
      "motor_id": 0,
      "accel_val": 2000,
      "base_duration_us": 230768
    },
    {
      "id": "M_2249",
      "pitch": 48,
      "t_note_us": 212779548,
      "t_trigger_us": 212643585,
      "is_ai": false,
      "track_id": 0,
      "velocity": 0,
      "is_motor": true,
      "motor_id": 0,
      "accel_val": 2000,
      "base_duration_us": 115384
    },
    {
      "id": "M_2252",
      "pitch": 69,
      "t_note_us": 212779548,
      "t_trigger_us": 212643585,
      "is_ai": false,
      "track_id": 0,
      "velocity": 0,
      "is_motor": true,
      "motor_id": 1,
      "accel_val": 2000,
      "base_duration_us": 230768
    },
    {
      "id": "M_2250",
      "pitch": 60,
      "t_note_us": 212894932,
      "t_trigger_us": 212758969,
      "is_ai": false,
      "track_id": 0,
      "velocity": 0,
      "is_motor": true,
      "motor_id": 0,
      "accel_val": 2000,
      "base_duration_us": 115384
    },
    {
      "id": "M_2255",
      "pitch": 91,
      "t_note_us": 213010316,
      "t_trigger_us": 212874353,
      "is_ai": true,
      "track_id": 7,
      "velocity": 0,
      "is_motor": false,
      "motor_id": 0,
      "accel_val": 2000,
      "base_duration_us": 230769
    },
    {
      "id": "M_2253",
      "pitch": 67,
      "t_note_us": 213010316,
      "t_trigger_us": 212874353,
      "is_ai": false,
      "track_id": 0,
      "velocity": 0,
      "is_motor": true,
      "motor_id": 1,
      "accel_val": 2000,
      "base_duration_us": 230769
    },
    {
      "id": "M_2254",
      "pitch": 64,
      "t_note_us": 213010316,
      "t_trigger_us": 212874353,
      "is_ai": false,
      "track_id": 0,
      "velocity": 0,
      "is_motor": true,
      "motor_id": 0,
      "accel_val": 2000,
      "base_duration_us": 230769
    },
    {
      "id": "M_2256",
      "pitch": 60,
      "t_note_us": 213010316,
      "t_trigger_us": 212874353,
      "is_ai": false,
      "track_id": 0,
      "velocity": 0,
      "is_motor": true,
      "motor_id": 2,
      "accel_val": 2000,
      "base_duration_us": 230769
    },
    {
      "id": "M_2258",
      "pitch": 90,
      "t_note_us": 213241085,
      "t_trigger_us": 213105122,
      "is_ai": true,
      "track_id": 0,
      "velocity": 0,
      "is_motor": true,
      "motor_id": 3,
      "accel_val": 2000,
      "base_duration_us": 230769
    },
    {
      "id": "M_2257",
      "pitch": 78,
      "t_note_us": 213241085,
      "t_trigger_us": 213105122,
      "is_ai": false,
      "track_id": 0,
      "velocity": 0,
      "is_motor": true,
      "motor_id": 2,
      "accel_val": 2000,
      "base_duration_us": 230769
    },
    {
      "id": "M_2259",
      "pitch": 47,
      "t_note_us": 213241085,
      "t_trigger_us": 213105122,
      "is_ai": false,
      "track_id": 0,
      "velocity": 0,
      "is_motor": true,
      "motor_id": 0,
      "accel_val": 2000,
      "base_duration_us": 230769
    },
    {
      "id": "M_2262",
      "pitch": 91,
      "t_note_us": 213471854,
      "t_trigger_us": 213335891,
      "is_ai": true,
      "track_id": 7,
      "velocity": 0,
      "is_motor": false,
      "motor_id": 0,
      "accel_val": 2000,
      "base_duration_us": 230769
    },
    {
      "id": "M_2260",
      "pitch": 59,
      "t_note_us": 213471854,
      "t_trigger_us": 213335891,
      "is_ai": false,
      "track_id": 0,
      "velocity": 0,
      "is_motor": true,
      "motor_id": 0,
      "accel_val": 2000,
      "base_duration_us": 230769
    },
    {
      "id": "M_2261",
      "pitch": 67,
      "t_note_us": 213471854,
      "t_trigger_us": 213335891,
      "is_ai": false,
      "track_id": 0,
      "velocity": 0,
      "is_motor": true,
      "motor_id": 1,
      "accel_val": 2000,
      "base_duration_us": 230769
    },
    {
      "id": "M_2263",
      "pitch": 62,
      "t_note_us": 213471854,
      "t_trigger_us": 213335891,
      "is_ai": false,
      "track_id": 0,
      "velocity": 0,
      "is_motor": true,
      "motor_id": 2,
      "accel_val": 2000,
      "base_duration_us": 230769
    },
    {
      "id": "M_2267",
      "pitch": 93,
      "t_note_us": 213702623,
      "t_trigger_us": 213566660,
      "is_ai": true,
      "track_id": 8,
      "velocity": 0,
      "is_motor": false,
      "motor_id": 0,
      "accel_val": 2000,
      "base_duration_us": 230768
    },
    {
      "id": "M_2264",
      "pitch": 47,
      "t_note_us": 213702623,
      "t_trigger_us": 213566660,
      "is_ai": false,
      "track_id": 0,
      "velocity": 0,
      "is_motor": true,
      "motor_id": 0,
      "accel_val": 2000,
      "base_duration_us": 115384
    },
    {
      "id": "M_2266",
      "pitch": 69,
      "t_note_us": 213702623,
      "t_trigger_us": 213566660,
      "is_ai": false,
      "track_id": 0,
      "velocity": 0,
      "is_motor": true,
      "motor_id": 1,
      "accel_val": 2000,
      "base_duration_us": 230768
    },
    {
      "id": "M_2265",
      "pitch": 59,
      "t_note_us": 213818007,
      "t_trigger_us": 213682044,
      "is_ai": false,
      "track_id": 0,
      "velocity": 0,
      "is_motor": true,
      "motor_id": 0,
      "accel_val": 2000,
      "base_duration_us": 115384
    },
    {
      "id": "M_2269",
      "pitch": 96,
      "t_note_us": 213933391,
      "t_trigger_us": 213797428,
      "is_ai": true,
      "track_id": 10,
      "velocity": 0,
      "is_motor": false,
      "motor_id": 0,
      "accel_val": 2000,
      "base_duration_us": 230769
    },
    {
      "id": "M_2271",
      "pitch": 84,
      "t_note_us": 213933391,
      "t_trigger_us": 213797428,
      "is_ai": true,
      "track_id": 3,
      "velocity": 0,
      "is_motor": false,
      "motor_id": 0,
      "accel_val": 2000,
      "base_duration_us": 230769
    },
    {
      "id": "M_2268",
      "pitch": 59,
      "t_note_us": 213933391,
      "t_trigger_us": 213797428,
      "is_ai": false,
      "track_id": 0,
      "velocity": 0,
      "is_motor": true,
      "motor_id": 0,
      "accel_val": 2000,
      "base_duration_us": 230769
    },
    {
      "id": "M_2270",
      "pitch": 62,
      "t_note_us": 213933391,
      "t_trigger_us": 213797428,
      "is_ai": false,
      "track_id": 0,
      "velocity": 0,
      "is_motor": true,
      "motor_id": 1,
      "accel_val": 2000,
      "base_duration_us": 230769
    },
    {
      "id": "M_2272",
      "pitch": 95,
      "t_note_us": 214164160,
      "t_trigger_us": 214028197,
      "is_ai": true,
      "track_id": 9,
      "velocity": 0,
      "is_motor": false,
      "motor_id": 0,
      "accel_val": 2000,
      "base_duration_us": 230769
    },
    {
      "id": "M_2274",
      "pitch": 83,
      "t_note_us": 214164160,
      "t_trigger_us": 214028197,
      "is_ai": true,
      "track_id": 2,
      "velocity": 0,
      "is_motor": false,
      "motor_id": 0,
      "accel_val": 2000,
      "base_duration_us": 230769
    },
    {
      "id": "M_2273",
      "pitch": 52,
      "t_note_us": 214164160,
      "t_trigger_us": 214028197,
      "is_ai": false,
      "track_id": 0,
      "velocity": 0,
      "is_motor": true,
      "motor_id": 0,
      "accel_val": 2000,
      "base_duration_us": 230769
    },
    {
      "id": "M_2275",
      "pitch": 93,
      "t_note_us": 214394929,
      "t_trigger_us": 214258966,
      "is_ai": true,
      "track_id": 8,
      "velocity": 0,
      "is_motor": false,
      "motor_id": 0,
      "accel_val": 2000,
      "base_duration_us": 115384
    },
    {
      "id": "M_2276",
      "pitch": 69,
      "t_note_us": 214394929,
      "t_trigger_us": 214258966,
      "is_ai": false,
      "track_id": 0,
      "velocity": 0,
      "is_motor": true,
      "motor_id": 1,
      "accel_val": 2000,
      "base_duration_us": 115384
    },
    {
      "id": "M_2277",
      "pitch": 59,
      "t_note_us": 214394929,
      "t_trigger_us": 214258966,
      "is_ai": false,
      "track_id": 0,
      "velocity": 0,
      "is_motor": true,
      "motor_id": 0,
      "accel_val": 2000,
      "base_duration_us": 230768
    },
    {
      "id": "M_2278",
      "pitch": 64,
      "t_note_us": 214394929,
      "t_trigger_us": 214258966,
      "is_ai": false,
      "track_id": 0,
      "velocity": 0,
      "is_motor": true,
      "motor_id": 2,
      "accel_val": 2000,
      "base_duration_us": 230768
    },
    {
      "id": "M_2280",
      "pitch": 95,
      "t_note_us": 214510313,
      "t_trigger_us": 214374350,
      "is_ai": true,
      "track_id": 9,
      "velocity": 0,
      "is_motor": false,
      "motor_id": 0,
      "accel_val": 2000,
      "base_duration_us": 346153
    },
    {
      "id": "M_2281",
      "pitch": 71,
      "t_note_us": 214510313,
      "t_trigger_us": 214374350,
      "is_ai": false,
      "track_id": 0,
      "velocity": 0,
      "is_motor": true,
      "motor_id": 1,
      "accel_val": 2000,
      "base_duration_us": 346153
    },
    {
      "id": "M_2279",
      "pitch": 52,
      "t_note_us": 214625697,
      "t_trigger_us": 214489734,
      "is_ai": false,
      "track_id": 0,
      "velocity": 0,
      "is_motor": true,
      "motor_id": 0,
      "accel_val": 2000,
      "base_duration_us": 230769
    },
    {
      "id": "M_2283",
      "pitch": 88,
      "t_note_us": 214856466,
      "t_trigger_us": 214720503,
      "is_ai": true,
      "track_id": 5,
      "velocity": 0,
      "is_motor": false,
      "motor_id": 0,
      "accel_val": 2000,
      "base_duration_us": 230769
    },
    {
      "id": "M_2285",
      "pitch": 100,
      "t_note_us": 214856466,
      "t_trigger_us": 214720503,
      "is_ai": true,
      "track_id": 12,
      "velocity": 0,
      "is_motor": false,
      "motor_id": 0,
      "accel_val": 2000,
      "base_duration_us": 230769
    },
    {
      "id": "M_2282",
      "pitch": 64,
      "t_note_us": 214856466,
      "t_trigger_us": 214720503,
      "is_ai": false,
      "track_id": 0,
      "velocity": 0,
      "is_motor": true,
      "motor_id": 1,
      "accel_val": 2000,
      "base_duration_us": 230769
    },
    {
      "id": "M_2284",
      "pitch": 59,
      "t_note_us": 214856466,
      "t_trigger_us": 214720503,
      "is_ai": false,
      "track_id": 0,
      "velocity": 0,
      "is_motor": true,
      "motor_id": 0,
      "accel_val": 2000,
      "base_duration_us": 230769
    },
    {
      "id": "M_2290",
      "pitch": 86,
      "t_note_us": 215087235,
      "t_trigger_us": 214951272,
      "is_ai": true,
      "track_id": 4,
      "velocity": 0,
      "is_motor": false,
      "motor_id": 0,
      "accel_val": 2000,
      "base_duration_us": 461538
    },
    {
      "id": "M_2291",
      "pitch": 89,
      "t_note_us": 215087235,
      "t_trigger_us": 214951272,
      "is_ai": true,
      "track_id": 6,
      "velocity": 0,
      "is_motor": false,
      "motor_id": 0,
      "accel_val": 2000,
      "base_duration_us": 461538
    },
    {
      "id": "M_2292",
      "pitch": 98,
      "t_note_us": 215087235,
      "t_trigger_us": 214951272,
      "is_ai": true,
      "track_id": 11,
      "velocity": 0,
      "is_motor": false,
      "motor_id": 0,
      "accel_val": 2000,
      "base_duration_us": 461538
    },
    {
      "id": "M_2286",
      "pitch": 53,
      "t_note_us": 215087235,
      "t_trigger_us": 214951272,
      "is_ai": false,
      "track_id": 0,
      "velocity": 0,
      "is_motor": true,
      "motor_id": 0,
      "accel_val": 2000,
      "base_duration_us": 230769
    },
    {
      "id": "M_2287",
      "pitch": 65,
      "t_note_us": 215087235,
      "t_trigger_us": 214951272,
      "is_ai": false,
      "track_id": 0,
      "velocity": 0,
      "is_motor": true,
      "motor_id": 1,
      "accel_val": 2000,
      "base_duration_us": 230769
    },
    {
      "id": "M_2288",
      "pitch": 65,
      "t_note_us": 215318004,
      "t_trigger_us": 215182041,
      "is_ai": false,
      "track_id": 0,
      "velocity": 0,
      "is_motor": true,
      "motor_id": 1,
      "accel_val": 2000,
      "base_duration_us": 230769
    },
    {
      "id": "M_2289",
      "pitch": 53,
      "t_note_us": 215318004,
      "t_trigger_us": 215182041,
      "is_ai": false,
      "track_id": 0,
      "velocity": 0,
      "is_motor": true,
      "motor_id": 0,
      "accel_val": 2000,
      "base_duration_us": 230769
    },
    {
      "id": "M_2293",
      "pitch": 95,
      "t_note_us": 215548773,
      "t_trigger_us": 215412810,
      "is_ai": true,
      "track_id": 9,
      "velocity": 0,
      "is_motor": false,
      "motor_id": 0,
      "accel_val": 2000,
      "base_duration_us": 230769
    },
    {
      "id": "M_2294",
      "pitch": 55,
      "t_note_us": 215548773,
      "t_trigger_us": 215412810,
      "is_ai": false,
      "track_id": 0,
      "velocity": 0,
      "is_motor": true,
      "motor_id": 0,
      "accel_val": 2000,
      "base_duration_us": 230769
    },
    {
      "id": "M_2295",
      "pitch": 71,
      "t_note_us": 215548773,
      "t_trigger_us": 215412810,
      "is_ai": false,
      "track_id": 0,
      "velocity": 0,
      "is_motor": true,
      "motor_id": 1,
      "accel_val": 2000,
      "base_duration_us": 230769
    },
    {
      "id": "M_2296",
      "pitch": 67,
      "t_note_us": 215548773,
      "t_trigger_us": 215412810,
      "is_ai": false,
      "track_id": 0,
      "velocity": 0,
      "is_motor": true,
      "motor_id": 2,
      "accel_val": 2000,
      "base_duration_us": 230769
    },
    {
      "id": "M_2298",
      "pitch": 98,
      "t_note_us": 215779542,
      "t_trigger_us": 215643579,
      "is_ai": true,
      "track_id": 11,
      "velocity": 0,
      "is_motor": false,
      "motor_id": 0,
      "accel_val": 2000,
      "base_duration_us": 230769
    },
    {
      "id": "M_2300",
      "pitch": 86,
      "t_note_us": 215779542,
      "t_trigger_us": 215643579,
      "is_ai": true,
      "track_id": 4,
      "velocity": 0,
      "is_motor": false,
      "motor_id": 0,
      "accel_val": 2000,
      "base_duration_us": 230769
    },
    {
      "id": "M_2297",
      "pitch": 55,
      "t_note_us": 215779542,
      "t_trigger_us": 215643579,
      "is_ai": false,
      "track_id": 0,
      "velocity": 0,
      "is_motor": true,
      "motor_id": 0,
      "accel_val": 2000,
      "base_duration_us": 230769
    },
    {
      "id": "M_2299",
      "pitch": 67,
      "t_note_us": 215779542,
      "t_trigger_us": 215643579,
      "is_ai": false,
      "track_id": 0,
      "velocity": 0,
      "is_motor": true,
      "motor_id": 1,
      "accel_val": 2000,
      "base_duration_us": 230769
    },
    {
      "id": "M_2303",
      "pitch": 88,
      "t_note_us": 216010311,
      "t_trigger_us": 215874348,
      "is_ai": true,
      "track_id": 5,
      "velocity": 0,
      "is_motor": false,
      "motor_id": 0,
      "accel_val": 2000,
      "base_duration_us": 346153
    },
    {
      "id": "M_2304",
      "pitch": 91,
      "t_note_us": 216010311,
      "t_trigger_us": 215874348,
      "is_ai": true,
      "track_id": 7,
      "velocity": 0,
      "is_motor": false,
      "motor_id": 0,
      "accel_val": 2000,
      "base_duration_us": 346153
    },
    {
      "id": "M_2305",
      "pitch": 100,
      "t_note_us": 216010311,
      "t_trigger_us": 215874348,
      "is_ai": true,
      "track_id": 12,
      "velocity": 0,
      "is_motor": false,
      "motor_id": 0,
      "accel_val": 2000,
      "base_duration_us": 346153
    },
    {
      "id": "M_2301",
      "pitch": 60,
      "t_note_us": 216010311,
      "t_trigger_us": 215874348,
      "is_ai": false,
      "track_id": 0,
      "velocity": 0,
      "is_motor": true,
      "motor_id": 1,
      "accel_val": 2000,
      "base_duration_us": 230769
    },
    {
      "id": "M_2302",
      "pitch": 48,
      "t_note_us": 216010311,
      "t_trigger_us": 215874348,
      "is_ai": false,
      "track_id": 0,
      "velocity": 0,
      "is_motor": true,
      "motor_id": 0,
      "accel_val": 2000,
      "base_duration_us": 230769
    },
    {
      "id": "M_2306",
      "pitch": 60,
      "t_note_us": 216241080,
      "t_trigger_us": 216105117,
      "is_ai": false,
      "track_id": 0,
      "velocity": 0,
      "is_motor": true,
      "motor_id": 1,
      "accel_val": 2000,
      "base_duration_us": 230768
    },
    {
      "id": "M_2310",
      "pitch": 96,
      "t_note_us": 216356464,
      "t_trigger_us": 216220501,
      "is_ai": true,
      "track_id": 10,
      "velocity": 0,
      "is_motor": false,
      "motor_id": 0,
      "accel_val": 2000,
      "base_duration_us": 346153
    },
    {
      "id": "M_2309",
      "pitch": 72,
      "t_note_us": 216356464,
      "t_trigger_us": 216220501,
      "is_ai": false,
      "track_id": 0,
      "velocity": 0,
      "is_motor": true,
      "motor_id": 0,
      "accel_val": 2000,
      "base_duration_us": 346153
    },
    {
      "id": "M_2307",
      "pitch": 64,
      "t_note_us": 216471848,
      "t_trigger_us": 216335885,
      "is_ai": false,
      "track_id": 0,
      "velocity": 0,
      "is_motor": true,
      "motor_id": 1,
      "accel_val": 2000,
      "base_duration_us": 230769
    },
    {
      "id": "M_2308",
      "pitch": 67,
      "t_note_us": 216471848,
      "t_trigger_us": 216335885,
      "is_ai": false,
      "track_id": 0,
      "velocity": 0,
      "is_motor": true,
      "motor_id": 2,
      "accel_val": 2000,
      "base_duration_us": 230769
    },
    {
      "id": "M_2311",
      "pitch": 83,
      "t_note_us": 216702617,
      "t_trigger_us": 216566654,
      "is_ai": true,
      "track_id": 2,
      "velocity": 0,
      "is_motor": false,
      "motor_id": 0,
      "accel_val": 2000,
      "base_duration_us": 230769
    },
    {
      "id": "M_2312",
      "pitch": 95,
      "t_note_us": 216702617,
      "t_trigger_us": 216566654,
      "is_ai": true,
      "track_id": 9,
      "velocity": 0,
      "is_motor": false,
      "motor_id": 0,
      "accel_val": 2000,
      "base_duration_us": 230769
    },
    {
      "id": "M_2313",
      "pitch": 60,
      "t_note_us": 216702617,
      "t_trigger_us": 216566654,
      "is_ai": false,
      "track_id": 0,
      "velocity": 0,
      "is_motor": true,
      "motor_id": 1,
      "accel_val": 2000,
      "base_duration_us": 230769
    },
    {
      "id": "M_2314",
      "pitch": 93,
      "t_note_us": 216933386,
      "t_trigger_us": 216797423,
      "is_ai": true,
      "track_id": 8,
      "velocity": 0,
      "is_motor": false,
      "motor_id": 0,
      "accel_val": 2000,
      "base_duration_us": 230769
    },
    {
      "id": "M_2317",
      "pitch": 86,
      "t_note_us": 216933386,
      "t_trigger_us": 216797423,
      "is_ai": true,
      "track_id": 4,
      "velocity": 0,
      "is_motor": false,
      "motor_id": 0,
      "accel_val": 2000,
      "base_duration_us": 230769
    },
    {
      "id": "M_2315",
      "pitch": 50,
      "t_note_us": 216933386,
      "t_trigger_us": 216797423,
      "is_ai": false,
      "track_id": 0,
      "velocity": 0,
      "is_motor": true,
      "motor_id": 0,
      "accel_val": 2000,
      "base_duration_us": 230769
    },
    {
      "id": "M_2316",
      "pitch": 69,
      "t_note_us": 216933386,
      "t_trigger_us": 216797423,
      "is_ai": false,
      "track_id": 0,
      "velocity": 0,
      "is_motor": true,
      "motor_id": 1,
      "accel_val": 2000,
      "base_duration_us": 230769
    },
    {
      "id": "M_2321",
      "pitch": 91,
      "t_note_us": 217164155,
      "t_trigger_us": 217028192,
      "is_ai": true,
      "track_id": 7,
      "velocity": 0,
      "is_motor": false,
      "motor_id": 0,
      "accel_val": 2000,
      "base_duration_us": 230768
    },
    {
      "id": "M_2318",
      "pitch": 62,
      "t_note_us": 217164155,
      "t_trigger_us": 217028192,
      "is_ai": false,
      "track_id": 0,
      "velocity": 0,
      "is_motor": true,
      "motor_id": 1,
      "accel_val": 2000,
      "base_duration_us": 115384
    },
    {
      "id": "M_2319",
      "pitch": 66,
      "t_note_us": 217164155,
      "t_trigger_us": 217028192,
      "is_ai": false,
      "track_id": 0,
      "velocity": 0,
      "is_motor": true,
      "motor_id": 2,
      "accel_val": 2000,
      "base_duration_us": 115384
    },
    {
      "id": "M_2320",
      "pitch": 67,
      "t_note_us": 217164155,
      "t_trigger_us": 217028192,
      "is_ai": false,
      "track_id": 0,
      "velocity": 0,
      "is_motor": true,
      "motor_id": 0,
      "accel_val": 2000,
      "base_duration_us": 230768
    },
    {
      "id": "M_2322",
      "pitch": 50,
      "t_note_us": 217279539,
      "t_trigger_us": 217143576,
      "is_ai": false,
      "track_id": 0,
      "velocity": 0,
      "is_motor": true,
      "motor_id": 1,
      "accel_val": 2000,
      "base_duration_us": 230768
    },
    {
      "id": "M_2324",
      "pitch": 93,
      "t_note_us": 217394923,
      "t_trigger_us": 217258960,
      "is_ai": true,
      "track_id": 8,
      "velocity": 0,
      "is_motor": false,
      "motor_id": 0,
      "accel_val": 2000,
      "base_duration_us": 230768
    },
    {
      "id": "M_2325",
      "pitch": 69,
      "t_note_us": 217394923,
      "t_trigger_us": 217258960,
      "is_ai": false,
      "track_id": 0,
      "velocity": 0,
      "is_motor": true,
      "motor_id": 2,
      "accel_val": 2000,
      "base_duration_us": 230768
    },
    {
      "id": "M_2323",
      "pitch": 50,
      "t_note_us": 217510307,
      "t_trigger_us": 217374344,
      "is_ai": false,
      "track_id": 0,
      "velocity": 0,
      "is_motor": true,
      "motor_id": 0,
      "accel_val": 2000,
      "base_duration_us": 115384
    },
    {
      "id": "M_2329",
      "pitch": 88,
      "t_note_us": 217625691,
      "t_trigger_us": 217489728,
      "is_ai": true,
      "track_id": 5,
      "velocity": 0,
      "is_motor": false,
      "motor_id": 0,
      "accel_val": 2000,
      "base_duration_us": 230768
    },
    {
      "id": "M_2330",
      "pitch": 100,
      "t_note_us": 217625691,
      "t_trigger_us": 217489728,
      "is_ai": true,
      "track_id": 12,
      "velocity": 0,
      "is_motor": false,
      "motor_id": 0,
      "accel_val": 2000,
      "base_duration_us": 230768
    },
    {
      "id": "M_2326",
      "pitch": 62,
      "t_note_us": 217625691,
      "t_trigger_us": 217489728,
      "is_ai": false,
      "track_id": 0,
      "velocity": 0,
      "is_motor": true,
      "motor_id": 1,
      "accel_val": 2000,
      "base_duration_us": 115384
    },
    {
      "id": "M_2327",
      "pitch": 66,
      "t_note_us": 217625691,
      "t_trigger_us": 217489728,
      "is_ai": false,
      "track_id": 0,
      "velocity": 0,
      "is_motor": true,
      "motor_id": 2,
      "accel_val": 2000,
      "base_duration_us": 115384
    },
    {
      "id": "M_2328",
      "pitch": 50,
      "t_note_us": 217741075,
      "t_trigger_us": 217605112,
      "is_ai": false,
      "track_id": 0,
      "velocity": 0,
      "is_motor": true,
      "motor_id": 0,
      "accel_val": 2000,
      "base_duration_us": 115384
    },
    {
      "id": "M_2332",
      "pitch": 86,
      "t_note_us": 217856459,
      "t_trigger_us": 217720496,
      "is_ai": true,
      "track_id": 4,
      "velocity": 0,
      "is_motor": false,
      "motor_id": 0,
      "accel_val": 2000,
      "base_duration_us": 230769
    },
    {
      "id": "M_2334",
      "pitch": 98,
      "t_note_us": 217856459,
      "t_trigger_us": 217720496,
      "is_ai": true,
      "track_id": 11,
      "velocity": 0,
      "is_motor": false,
      "motor_id": 0,
      "accel_val": 2000,
      "base_duration_us": 230769
    },
    {
      "id": "M_2335",
      "pitch": 90,
      "t_note_us": 217856459,
      "t_trigger_us": 217720496,
      "is_ai": true,
      "track_id": 0,
      "velocity": 0,
      "is_motor": true,
      "motor_id": 3,
      "accel_val": 2000,
      "base_duration_us": 230769
    },
    {
      "id": "M_2331",
      "pitch": 59,
      "t_note_us": 217856459,
      "t_trigger_us": 217720496,
      "is_ai": false,
      "track_id": 0,
      "velocity": 0,
      "is_motor": true,
      "motor_id": 0,
      "accel_val": 2000,
      "base_duration_us": 230769
    },
    {
      "id": "M_2333",
      "pitch": 47,
      "t_note_us": 217856459,
      "t_trigger_us": 217720496,
      "is_ai": false,
      "track_id": 0,
      "velocity": 0,
      "is_motor": true,
      "motor_id": 1,
      "accel_val": 2000,
      "base_duration_us": 230769
    },
    {
      "id": "M_2336",
      "pitch": 100,
      "t_note_us": 218087228,
      "t_trigger_us": 217951265,
      "is_ai": true,
      "track_id": 12,
      "velocity": 0,
      "is_motor": false,
      "motor_id": 0,
      "accel_val": 2000,
      "base_duration_us": 115384
    },
    {
      "id": "M_2337",
      "pitch": 88,
      "t_note_us": 218087228,
      "t_trigger_us": 217951265,
      "is_ai": true,
      "track_id": 5,
      "velocity": 0,
      "is_motor": false,
      "motor_id": 0,
      "accel_val": 2000,
      "base_duration_us": 115384
    },
    {
      "id": "M_2338",
      "pitch": 59,
      "t_note_us": 218087228,
      "t_trigger_us": 217951265,
      "is_ai": false,
      "track_id": 0,
      "velocity": 0,
      "is_motor": true,
      "motor_id": 0,
      "accel_val": 2000,
      "base_duration_us": 230768
    },
    {
      "id": "M_2341",
      "pitch": 83,
      "t_note_us": 218202612,
      "t_trigger_us": 218066649,
      "is_ai": true,
      "track_id": 2,
      "velocity": 0,
      "is_motor": false,
      "motor_id": 0,
      "accel_val": 2000,
      "base_duration_us": 346153
    },
    {
      "id": "M_2342",
      "pitch": 95,
      "t_note_us": 218202612,
      "t_trigger_us": 218066649,
      "is_ai": true,
      "track_id": 9,
      "velocity": 0,
      "is_motor": false,
      "motor_id": 0,
      "accel_val": 2000,
      "base_duration_us": 346153
    },
    {
      "id": "M_2339",
      "pitch": 66,
      "t_note_us": 218317996,
      "t_trigger_us": 218182033,
      "is_ai": false,
      "track_id": 0,
      "velocity": 0,
      "is_motor": true,
      "motor_id": 1,
      "accel_val": 2000,
      "base_duration_us": 230769
    },
    {
      "id": "M_2340",
      "pitch": 62,
      "t_note_us": 218317996,
      "t_trigger_us": 218182033,
      "is_ai": false,
      "track_id": 0,
      "velocity": 0,
      "is_motor": true,
      "motor_id": 0,
      "accel_val": 2000,
      "base_duration_us": 230769
    },
    {
      "id": "M_2344",
      "pitch": 93,
      "t_note_us": 218548765,
      "t_trigger_us": 218412802,
      "is_ai": true,
      "track_id": 8,
      "velocity": 0,
      "is_motor": false,
      "motor_id": 0,
      "accel_val": 2000,
      "base_duration_us": 230769
    },
    {
      "id": "M_2343",
      "pitch": 59,
      "t_note_us": 218548765,
      "t_trigger_us": 218412802,
      "is_ai": false,
      "track_id": 0,
      "velocity": 0,
      "is_motor": true,
      "motor_id": 0,
      "accel_val": 2000,
      "base_duration_us": 230769
    },
    {
      "id": "M_2345",
      "pitch": 69,
      "t_note_us": 218548765,
      "t_trigger_us": 218412802,
      "is_ai": false,
      "track_id": 0,
      "velocity": 0,
      "is_motor": true,
      "motor_id": 1,
      "accel_val": 2000,
      "base_duration_us": 230769
    },
    {
      "id": "M_2349",
      "pitch": 91,
      "t_note_us": 218779534,
      "t_trigger_us": 218643571,
      "is_ai": true,
      "track_id": 7,
      "velocity": 0,
      "is_motor": false,
      "motor_id": 0,
      "accel_val": 2000,
      "base_duration_us": 461537
    },
    {
      "id": "M_2346",
      "pitch": 52,
      "t_note_us": 218779534,
      "t_trigger_us": 218643571,
      "is_ai": false,
      "track_id": 0,
      "velocity": 0,
      "is_motor": true,
      "motor_id": 0,
      "accel_val": 2000,
      "base_duration_us": 230769
    },
    {
      "id": "M_2350",
      "pitch": 71,
      "t_note_us": 218779534,
      "t_trigger_us": 218643571,
      "is_ai": false,
      "track_id": 0,
      "velocity": 0,
      "is_motor": true,
      "motor_id": 1,
      "accel_val": 2000,
      "base_duration_us": 461537
    },
    {
      "id": "M_2351",
      "pitch": 67,
      "t_note_us": 218779534,
      "t_trigger_us": 218643571,
      "is_ai": false,
      "track_id": 0,
      "velocity": 0,
      "is_motor": true,
      "motor_id": 2,
      "accel_val": 2000,
      "base_duration_us": 461537
    },
    {
      "id": "M_2347",
      "pitch": 59,
      "t_note_us": 219010303,
      "t_trigger_us": 218874340,
      "is_ai": false,
      "track_id": 0,
      "velocity": 0,
      "is_motor": true,
      "motor_id": 0,
      "accel_val": 2000,
      "base_duration_us": 115384
    },
    {
      "id": "M_2348",
      "pitch": 64,
      "t_note_us": 219010303,
      "t_trigger_us": 218874340,
      "is_ai": false,
      "track_id": 0,
      "velocity": 0,
      "is_motor": true,
      "motor_id": 3,
      "accel_val": 2000,
      "base_duration_us": 115384
    },
    {
      "id": "M_2352",
      "pitch": 52,
      "t_note_us": 219125687,
      "t_trigger_us": 218989724,
      "is_ai": false,
      "track_id": 0,
      "velocity": 0,
      "is_motor": true,
      "motor_id": 0,
      "accel_val": 2000,
      "base_duration_us": 230768
    },
    {
      "id": "M_2355",
      "pitch": 88,
      "t_note_us": 219241071,
      "t_trigger_us": 219105108,
      "is_ai": true,
      "track_id": 5,
      "velocity": 0,
      "is_motor": false,
      "motor_id": 0,
      "accel_val": 2000,
      "base_duration_us": 230768
    },
    {
      "id": "M_2354",
      "pitch": 76,
      "t_note_us": 219241071,
      "t_trigger_us": 219105108,
      "is_ai": false,
      "track_id": 0,
      "velocity": 0,
      "is_motor": true,
      "motor_id": 2,
      "accel_val": 2000,
      "base_duration_us": 230768
    },
    {
      "id": "M_2353",
      "pitch": 52,
      "t_note_us": 219356455,
      "t_trigger_us": 219220492,
      "is_ai": false,
      "track_id": 0,
      "velocity": 0,
      "is_motor": true,
      "motor_id": 0,
      "accel_val": 2000,
      "base_duration_us": 115384
    },
    {
      "id": "M_2360",
      "pitch": 90,
      "t_note_us": 219471839,
      "t_trigger_us": 219335876,
      "is_ai": true,
      "track_id": 0,
      "velocity": 0,
      "is_motor": true,
      "motor_id": 3,
      "accel_val": 2000,
      "base_duration_us": 230768
    },
    {
      "id": "M_2356",
      "pitch": 64,
      "t_note_us": 219471839,
      "t_trigger_us": 219335876,
      "is_ai": false,
      "track_id": 0,
      "velocity": 0,
      "is_motor": true,
      "motor_id": 1,
      "accel_val": 2000,
      "base_duration_us": 115384
    },
    {
      "id": "M_2357",
      "pitch": 59,
      "t_note_us": 219471839,
      "t_trigger_us": 219335876,
      "is_ai": false,
      "track_id": 0,
      "velocity": 0,
      "is_motor": true,
      "motor_id": 0,
      "accel_val": 2000,
      "base_duration_us": 115384
    },
    {
      "id": "M_2359",
      "pitch": 78,
      "t_note_us": 219471839,
      "t_trigger_us": 219335876,
      "is_ai": false,
      "track_id": 0,
      "velocity": 0,
      "is_motor": true,
      "motor_id": 2,
      "accel_val": 2000,
      "base_duration_us": 230768
    },
    {
      "id": "M_2358",
      "pitch": 52,
      "t_note_us": 219587223,
      "t_trigger_us": 219451260,
      "is_ai": false,
      "track_id": 0,
      "velocity": 0,
      "is_motor": true,
      "motor_id": 0,
      "accel_val": 2000,
      "base_duration_us": 115384
    },
    {
      "id": "M_2361",
      "pitch": 84,
      "t_note_us": 219702607,
      "t_trigger_us": 219566644,
      "is_ai": true,
      "track_id": 3,
      "velocity": 0,
      "is_motor": false,
      "motor_id": 0,
      "accel_val": 2000,
      "base_duration_us": 230769
    },
    {
      "id": "M_2364",
      "pitch": 91,
      "t_note_us": 219702607,
      "t_trigger_us": 219566644,
      "is_ai": true,
      "track_id": 7,
      "velocity": 0,
      "is_motor": false,
      "motor_id": 0,
      "accel_val": 2000,
      "base_duration_us": 230769
    },
    {
      "id": "M_2362",
      "pitch": 60,
      "t_note_us": 219702607,
      "t_trigger_us": 219566644,
      "is_ai": false,
      "track_id": 0,
      "velocity": 0,
      "is_motor": true,
      "motor_id": 1,
      "accel_val": 2000,
      "base_duration_us": 230769
    },
    {
      "id": "M_2363",
      "pitch": 67,
      "t_note_us": 219702607,
      "t_trigger_us": 219566644,
      "is_ai": false,
      "track_id": 0,
      "velocity": 0,
      "is_motor": true,
      "motor_id": 2,
      "accel_val": 2000,
      "base_duration_us": 230769
    },
    {
      "id": "M_2365",
      "pitch": 48,
      "t_note_us": 219702607,
      "t_trigger_us": 219566644,
      "is_ai": false,
      "track_id": 0,
      "velocity": 0,
      "is_motor": true,
      "motor_id": 0,
      "accel_val": 2000,
      "base_duration_us": 230769
    },
    {
      "id": "M_2366",
      "pitch": 88,
      "t_note_us": 219933376,
      "t_trigger_us": 219797413,
      "is_ai": true,
      "track_id": 5,
      "velocity": 0,
      "is_motor": false,
      "motor_id": 0,
      "accel_val": 2000,
      "base_duration_us": 230769
    },
    {
      "id": "M_2367",
      "pitch": 60,
      "t_note_us": 219933376,
      "t_trigger_us": 219797413,
      "is_ai": false,
      "track_id": 0,
      "velocity": 0,
      "is_motor": true,
      "motor_id": 1,
      "accel_val": 2000,
      "base_duration_us": 230769
    },
    {
      "id": "M_2368",
      "pitch": 76,
      "t_note_us": 219933376,
      "t_trigger_us": 219797413,
      "is_ai": false,
      "track_id": 0,
      "velocity": 0,
      "is_motor": true,
      "motor_id": 2,
      "accel_val": 2000,
      "base_duration_us": 230769
    },
    {
      "id": "M_2371",
      "pitch": 91,
      "t_note_us": 220164145,
      "t_trigger_us": 220028182,
      "is_ai": true,
      "track_id": 7,
      "velocity": 0,
      "is_motor": false,
      "motor_id": 0,
      "accel_val": 2000,
      "base_duration_us": 230769
    },
    {
      "id": "M_2369",
      "pitch": 64,
      "t_note_us": 220164145,
      "t_trigger_us": 220028182,
      "is_ai": false,
      "track_id": 0,
      "velocity": 0,
      "is_motor": true,
      "motor_id": 1,
      "accel_val": 2000,
      "base_duration_us": 230769
    },
    {
      "id": "M_2370",
      "pitch": 72,
      "t_note_us": 220164145,
      "t_trigger_us": 220028182,
      "is_ai": false,
      "track_id": 0,
      "velocity": 0,
      "is_motor": true,
      "motor_id": 0,
      "accel_val": 2000,
      "base_duration_us": 230769
    },
    {
      "id": "M_2372",
      "pitch": 67,
      "t_note_us": 220164145,
      "t_trigger_us": 220028182,
      "is_ai": false,
      "track_id": 0,
      "velocity": 0,
      "is_motor": true,
      "motor_id": 2,
      "accel_val": 2000,
      "base_duration_us": 230769
    },
    {
      "id": "M_2373",
      "pitch": 67,
      "t_note_us": 220164145,
      "t_trigger_us": 220028182,
      "is_ai": false,
      "track_id": 0,
      "velocity": 0,
      "is_motor": true,
      "motor_id": 3,
      "accel_val": 2000,
      "base_duration_us": 230769
    },
    {
      "id": "M_2375",
      "pitch": 84,
      "t_note_us": 220394914,
      "t_trigger_us": 220258951,
      "is_ai": true,
      "track_id": 3,
      "velocity": 0,
      "is_motor": false,
      "motor_id": 0,
      "accel_val": 2000,
      "base_duration_us": 230769
    },
    {
      "id": "M_2377",
      "pitch": 93,
      "t_note_us": 220394914,
      "t_trigger_us": 220258951,
      "is_ai": true,
      "track_id": 8,
      "velocity": 0,
      "is_motor": false,
      "motor_id": 0,
      "accel_val": 2000,
      "base_duration_us": 230769
    },
    {
      "id": "M_2374",
      "pitch": 60,
      "t_note_us": 220394914,
      "t_trigger_us": 220258951,
      "is_ai": false,
      "track_id": 0,
      "velocity": 0,
      "is_motor": true,
      "motor_id": 1,
      "accel_val": 2000,
      "base_duration_us": 230769
    },
    {
      "id": "M_2376",
      "pitch": 69,
      "t_note_us": 220394914,
      "t_trigger_us": 220258951,
      "is_ai": false,
      "track_id": 0,
      "velocity": 0,
      "is_motor": true,
      "motor_id": 2,
      "accel_val": 2000,
      "base_duration_us": 230769
    },
    {
      "id": "M_2378",
      "pitch": 83,
      "t_note_us": 220625683,
      "t_trigger_us": 220489720,
      "is_ai": true,
      "track_id": 2,
      "velocity": 0,
      "is_motor": false,
      "motor_id": 0,
      "accel_val": 2000,
      "base_duration_us": 230769
    },
    {
      "id": "M_2379",
      "pitch": 88,
      "t_note_us": 220625683,
      "t_trigger_us": 220489720,
      "is_ai": true,
      "track_id": 5,
      "velocity": 0,
      "is_motor": false,
      "motor_id": 0,
      "accel_val": 2000,
      "base_duration_us": 230769
    },
    {
      "id": "M_2381",
      "pitch": 95,
      "t_note_us": 220625683,
      "t_trigger_us": 220489720,
      "is_ai": true,
      "track_id": 9,
      "velocity": 0,
      "is_motor": false,
      "motor_id": 0,
      "accel_val": 2000,
      "base_duration_us": 230769
    },
    {
      "id": "M_2380",
      "pitch": 48,
      "t_note_us": 220625683,
      "t_trigger_us": 220489720,
      "is_ai": false,
      "track_id": 0,
      "velocity": 0,
      "is_motor": true,
      "motor_id": 0,
      "accel_val": 2000,
      "base_duration_us": 230769
    },
    {
      "id": "M_2384",
      "pitch": 91,
      "t_note_us": 220856452,
      "t_trigger_us": 220720489,
      "is_ai": true,
      "track_id": 7,
      "velocity": 0,
      "is_motor": false,
      "motor_id": 0,
      "accel_val": 2000,
      "base_duration_us": 230768
    },
    {
      "id": "M_2382",
      "pitch": 64,
      "t_note_us": 220856452,
      "t_trigger_us": 220720489,
      "is_ai": false,
      "track_id": 0,
      "velocity": 0,
      "is_motor": true,
      "motor_id": 1,
      "accel_val": 2000,
      "base_duration_us": 115384
    },
    {
      "id": "M_2383",
      "pitch": 60,
      "t_note_us": 220856452,
      "t_trigger_us": 220720489,
      "is_ai": false,
      "track_id": 0,
      "velocity": 0,
      "is_motor": true,
      "motor_id": 0,
      "accel_val": 2000,
      "base_duration_us": 115384
    },
    {
      "id": "M_2385",
      "pitch": 67,
      "t_note_us": 220856452,
      "t_trigger_us": 220720489,
      "is_ai": false,
      "track_id": 0,
      "velocity": 0,
      "is_motor": true,
      "motor_id": 2,
      "accel_val": 2000,
      "base_duration_us": 230768
    },
    {
      "id": "M_2386",
      "pitch": 48,
      "t_note_us": 220971836,
      "t_trigger_us": 220835873,
      "is_ai": false,
      "track_id": 0,
      "velocity": 0,
      "is_motor": true,
      "motor_id": 0,
      "accel_val": 2000,
      "base_duration_us": 230768
    },
    {
      "id": "M_2388",
      "pitch": 88,
      "t_note_us": 221087220,
      "t_trigger_us": 220951257,
      "is_ai": true,
      "track_id": 5,
      "velocity": 0,
      "is_motor": false,
      "motor_id": 0,
      "accel_val": 2000,
      "base_duration_us": 230768
    },
    {
      "id": "M_2389",
      "pitch": 83,
      "t_note_us": 221087220,
      "t_trigger_us": 220951257,
      "is_ai": true,
      "track_id": 2,
      "velocity": 0,
      "is_motor": false,
      "motor_id": 0,
      "accel_val": 2000,
      "base_duration_us": 230768
    },
    {
      "id": "M_2390",
      "pitch": 95,
      "t_note_us": 221087220,
      "t_trigger_us": 220951257,
      "is_ai": true,
      "track_id": 9,
      "velocity": 0,
      "is_motor": false,
      "motor_id": 0,
      "accel_val": 2000,
      "base_duration_us": 230768
    },
    {
      "id": "M_2387",
      "pitch": 48,
      "t_note_us": 221202604,
      "t_trigger_us": 221066641,
      "is_ai": false,
      "track_id": 0,
      "velocity": 0,
      "is_motor": true,
      "motor_id": 0,
      "accel_val": 2000,
      "base_duration_us": 115384
    },
    {
      "id": "M_2394",
      "pitch": 91,
      "t_note_us": 221317988,
      "t_trigger_us": 221182025,
      "is_ai": true,
      "track_id": 7,
      "velocity": 0,
      "is_motor": false,
      "motor_id": 0,
      "accel_val": 2000,
      "base_duration_us": 230768
    },
    {
      "id": "M_2395",
      "pitch": 100,
      "t_note_us": 221317988,
      "t_trigger_us": 221182025,
      "is_ai": true,
      "track_id": 12,
      "velocity": 0,
      "is_motor": false,
      "motor_id": 0,
      "accel_val": 2000,
      "base_duration_us": 230768
    },
    {
      "id": "M_2396",
      "pitch": 88,
      "t_note_us": 221317988,
      "t_trigger_us": 221182025,
      "is_ai": true,
      "track_id": 5,
      "velocity": 0,
      "is_motor": false,
      "motor_id": 0,
      "accel_val": 2000,
      "base_duration_us": 230768
    },
    {
      "id": "M_2391",
      "pitch": 64,
      "t_note_us": 221317988,
      "t_trigger_us": 221182025,
      "is_ai": false,
      "track_id": 0,
      "velocity": 0,
      "is_motor": true,
      "motor_id": 1,
      "accel_val": 2000,
      "base_duration_us": 115384
    },
    {
      "id": "M_2392",
      "pitch": 60,
      "t_note_us": 221317988,
      "t_trigger_us": 221182025,
      "is_ai": false,
      "track_id": 0,
      "velocity": 0,
      "is_motor": true,
      "motor_id": 0,
      "accel_val": 2000,
      "base_duration_us": 115384
    },
    {
      "id": "M_2393",
      "pitch": 48,
      "t_note_us": 221433372,
      "t_trigger_us": 221297409,
      "is_ai": false,
      "track_id": 0,
      "velocity": 0,
      "is_motor": true,
      "motor_id": 0,
      "accel_val": 2000,
      "base_duration_us": 115384
    },
    {
      "id": "M_2403",
      "pitch": 90,
      "t_note_us": 221548756,
      "t_trigger_us": 221412793,
      "is_ai": true,
      "track_id": 0,
      "velocity": 0,
      "is_motor": true,
      "motor_id": 3,
      "accel_val": 2000,
      "base_duration_us": 692306
    },
    {
      "id": "M_2404",
      "pitch": 87,
      "t_note_us": 221548756,
      "t_trigger_us": 221412793,
      "is_ai": true,
      "track_id": 0,
      "velocity": 0,
      "is_motor": true,
      "motor_id": 2,
      "accel_val": 2000,
      "base_duration_us": 692306
    },
    {
      "id": "M_2405",
      "pitch": 99,
      "t_note_us": 221548756,
      "t_trigger_us": 221412793,
      "is_ai": true,
      "track_id": 0,
      "velocity": 0,
      "is_motor": true,
      "motor_id": 1,
      "accel_val": 2000,
      "base_duration_us": 692306
    },
    {
      "id": "M_2397",
      "pitch": 59,
      "t_note_us": 221548756,
      "t_trigger_us": 221412793,
      "is_ai": false,
      "track_id": 0,
      "velocity": 0,
      "is_motor": true,
      "motor_id": 0,
      "accel_val": 2000,
      "base_duration_us": 230769
    },
    {
      "id": "M_2398",
      "pitch": 47,
      "t_note_us": 221548756,
      "t_trigger_us": 221412793,
      "is_ai": false,
      "track_id": 0,
      "velocity": 0,
      "is_motor": true,
      "motor_id": 0,
      "accel_val": 2000,
      "base_duration_us": 230769
    },
    {
      "id": "M_2399",
      "pitch": 59,
      "t_note_us": 221779525,
      "t_trigger_us": 221643562,
      "is_ai": false,
      "track_id": 0,
      "velocity": 0,
      "is_motor": true,
      "motor_id": 0,
      "accel_val": 2000,
      "base_duration_us": 230769
    },
    {
      "id": "M_2400",
      "pitch": 54,
      "t_note_us": 221779525,
      "t_trigger_us": 221643562,
      "is_ai": false,
      "track_id": 0,
      "velocity": 0,
      "is_motor": true,
      "motor_id": 0,
      "accel_val": 2000,
      "base_duration_us": 230769
    },
    {
      "id": "M_2401",
      "pitch": 47,
      "t_note_us": 222010294,
      "t_trigger_us": 221874331,
      "is_ai": false,
      "track_id": 0,
      "velocity": 0,
      "is_motor": true,
      "motor_id": 0,
      "accel_val": 2000,
      "base_duration_us": 115384
    },
    {
      "id": "M_2402",
      "pitch": 59,
      "t_note_us": 222125678,
      "t_trigger_us": 221989715,
      "is_ai": false,
      "track_id": 0,
      "velocity": 0,
      "is_motor": true,
      "motor_id": 0,
      "accel_val": 2000,
      "base_duration_us": 115384
    },
    {
      "id": "M_2407",
      "pitch": 95,
      "t_note_us": 222241062,
      "t_trigger_us": 222105099,
      "is_ai": true,
      "track_id": 9,
      "velocity": 0,
      "is_motor": false,
      "motor_id": 0,
      "accel_val": 2000,
      "base_duration_us": 230769
    },
    {
      "id": "M_2408",
      "pitch": 83,
      "t_note_us": 222241062,
      "t_trigger_us": 222105099,
      "is_ai": true,
      "track_id": 2,
      "velocity": 0,
      "is_motor": false,
      "motor_id": 0,
      "accel_val": 2000,
      "base_duration_us": 230769
    },
    {
      "id": "M_2406",
      "pitch": 54,
      "t_note_us": 222241062,
      "t_trigger_us": 222105099,
      "is_ai": false,
      "track_id": 0,
      "velocity": 0,
      "is_motor": true,
      "motor_id": 0,
      "accel_val": 2000,
      "base_duration_us": 230769
    },
    {
      "id": "M_2409",
      "pitch": 59,
      "t_note_us": 222241062,
      "t_trigger_us": 222105099,
      "is_ai": false,
      "track_id": 0,
      "velocity": 0,
      "is_motor": true,
      "motor_id": 1,
      "accel_val": 2000,
      "base_duration_us": 230769
    },
    {
      "id": "M_2412",
      "pitch": 83,
      "t_note_us": 222471831,
      "t_trigger_us": 222335868,
      "is_ai": true,
      "track_id": 2,
      "velocity": 0,
      "is_motor": false,
      "motor_id": 0,
      "accel_val": 2000,
      "base_duration_us": 230768
    },
    {
      "id": "M_2413",
      "pitch": 95,
      "t_note_us": 222471831,
      "t_trigger_us": 222335868,
      "is_ai": true,
      "track_id": 9,
      "velocity": 0,
      "is_motor": false,
      "motor_id": 0,
      "accel_val": 2000,
      "base_duration_us": 230768
    },
    {
      "id": "M_2410",
      "pitch": 47,
      "t_note_us": 222471831,
      "t_trigger_us": 222335868,
      "is_ai": false,
      "track_id": 0,
      "velocity": 0,
      "is_motor": true,
      "motor_id": 0,
      "accel_val": 2000,
      "base_duration_us": 115384
    },
    {
      "id": "M_2411",
      "pitch": 59,
      "t_note_us": 222587215,
      "t_trigger_us": 222451252,
      "is_ai": false,
      "track_id": 0,
      "velocity": 0,
      "is_motor": true,
      "motor_id": 0,
      "accel_val": 2000,
      "base_duration_us": 115384
    },
    {
      "id": "M_2416",
      "pitch": 91,
      "t_note_us": 222702599,
      "t_trigger_us": 222566636,
      "is_ai": true,
      "track_id": 7,
      "velocity": 0,
      "is_motor": false,
      "motor_id": 0,
      "accel_val": 2000,
      "base_duration_us": 230768
    },
    {
      "id": "M_2417",
      "pitch": 103,
      "t_note_us": 222702599,
      "t_trigger_us": 222566636,
      "is_ai": true,
      "track_id": 14,
      "velocity": 0,
      "is_motor": false,
      "motor_id": 0,
      "accel_val": 2000,
      "base_duration_us": 230768
    },
    {
      "id": "M_2414",
      "pitch": 54,
      "t_note_us": 222702599,
      "t_trigger_us": 222566636,
      "is_ai": false,
      "track_id": 0,
      "velocity": 0,
      "is_motor": true,
      "motor_id": 0,
      "accel_val": 2000,
      "base_duration_us": 115384
    },
    {
      "id": "M_2415",
      "pitch": 47,
      "t_note_us": 222817983,
      "t_trigger_us": 222682020,
      "is_ai": false,
      "track_id": 0,
      "velocity": 0,
      "is_motor": true,
      "motor_id": 0,
      "accel_val": 2000,
      "base_duration_us": 115384
    },
    {
      "id": "M_2420",
      "pitch": 90,
      "t_note_us": 222933367,
      "t_trigger_us": 222797404,
      "is_ai": true,
      "track_id": 0,
      "velocity": 0,
      "is_motor": true,
      "motor_id": 3,
      "accel_val": 2000,
      "base_duration_us": 230768
    },
    {
      "id": "M_2421",
      "pitch": 102,
      "t_note_us": 222933367,
      "t_trigger_us": 222797404,
      "is_ai": true,
      "track_id": 0,
      "velocity": 0,
      "is_motor": true,
      "motor_id": 2,
      "accel_val": 2000,
      "base_duration_us": 230768
    },
    {
      "id": "M_2418",
      "pitch": 48,
      "t_note_us": 222933367,
      "t_trigger_us": 222797404,
      "is_ai": false,
      "track_id": 0,
      "velocity": 0,
      "is_motor": true,
      "motor_id": 0,
      "accel_val": 2000,
      "base_duration_us": 115384
    },
    {
      "id": "M_2419",
      "pitch": 49,
      "t_note_us": 222944184,
      "t_trigger_us": 222808221,
      "is_ai": false,
      "track_id": 0,
      "velocity": 0,
      "is_motor": true,
      "motor_id": 1,
      "accel_val": 2000,
      "base_duration_us": 115384
    },
    {
      "id": "M_2422",
      "pitch": 86,
      "t_note_us": 223173750,
      "t_trigger_us": 223037787,
      "is_ai": true,
      "track_id": 4,
      "velocity": 0,
      "is_motor": false,
      "motor_id": 0,
      "accel_val": 2000,
      "base_duration_us": 230769
    },
    {
      "id": "M_2423",
      "pitch": 98,
      "t_note_us": 223173750,
      "t_trigger_us": 223037787,
      "is_ai": true,
      "track_id": 11,
      "velocity": 0,
      "is_motor": false,
      "motor_id": 0,
      "accel_val": 2000,
      "base_duration_us": 230769
    },
    {
      "id": "M_2424",
      "pitch": 57,
      "t_note_us": 223173750,
      "t_trigger_us": 223037787,
      "is_ai": false,
      "track_id": 0,
      "velocity": 0,
      "is_motor": true,
      "motor_id": 0,
      "accel_val": 2000,
      "base_duration_us": 230769
    },
    {
      "id": "M_2427",
      "pitch": 98,
      "t_note_us": 223404519,
      "t_trigger_us": 223268556,
      "is_ai": true,
      "track_id": 11,
      "velocity": 0,
      "is_motor": false,
      "motor_id": 0,
      "accel_val": 2000,
      "base_duration_us": 346153
    },
    {
      "id": "M_2428",
      "pitch": 86,
      "t_note_us": 223404519,
      "t_trigger_us": 223268556,
      "is_ai": true,
      "track_id": 4,
      "velocity": 0,
      "is_motor": false,
      "motor_id": 0,
      "accel_val": 2000,
      "base_duration_us": 346153
    },
    {
      "id": "M_2425",
      "pitch": 60,
      "t_note_us": 223404519,
      "t_trigger_us": 223268556,
      "is_ai": false,
      "track_id": 0,
      "velocity": 0,
      "is_motor": true,
      "motor_id": 1,
      "accel_val": 2000,
      "base_duration_us": 230769
    },
    {
      "id": "M_2426",
      "pitch": 48,
      "t_note_us": 223404519,
      "t_trigger_us": 223268556,
      "is_ai": false,
      "track_id": 0,
      "velocity": 0,
      "is_motor": true,
      "motor_id": 0,
      "accel_val": 2000,
      "base_duration_us": 230769
    },
    {
      "id": "M_2429",
      "pitch": 60,
      "t_note_us": 223635288,
      "t_trigger_us": 223499325,
      "is_ai": false,
      "track_id": 0,
      "velocity": 0,
      "is_motor": true,
      "motor_id": 1,
      "accel_val": 2000,
      "base_duration_us": 230768
    },
    {
      "id": "M_2432",
      "pitch": 100,
      "t_note_us": 223750672,
      "t_trigger_us": 223614709,
      "is_ai": true,
      "track_id": 12,
      "velocity": 0,
      "is_motor": false,
      "motor_id": 0,
      "accel_val": 2000,
      "base_duration_us": 346153
    },
    {
      "id": "M_2433",
      "pitch": 88,
      "t_note_us": 223750672,
      "t_trigger_us": 223614709,
      "is_ai": true,
      "track_id": 5,
      "velocity": 0,
      "is_motor": false,
      "motor_id": 0,
      "accel_val": 2000,
      "base_duration_us": 346153
    },
    {
      "id": "M_2430",
      "pitch": 67,
      "t_note_us": 223866056,
      "t_trigger_us": 223730093,
      "is_ai": false,
      "track_id": 0,
      "velocity": 0,
      "is_motor": true,
      "motor_id": 1,
      "accel_val": 2000,
      "base_duration_us": 230769
    },
    {
      "id": "M_2431",
      "pitch": 64,
      "t_note_us": 223866056,
      "t_trigger_us": 223730093,
      "is_ai": false,
      "track_id": 0,
      "velocity": 0,
      "is_motor": true,
      "motor_id": 0,
      "accel_val": 2000,
      "base_duration_us": 230769
    },
    {
      "id": "M_2434",
      "pitch": 83,
      "t_note_us": 224096825,
      "t_trigger_us": 223960862,
      "is_ai": true,
      "track_id": 2,
      "velocity": 0,
      "is_motor": false,
      "motor_id": 0,
      "accel_val": 2000,
      "base_duration_us": 230769
    },
    {
      "id": "M_2436",
      "pitch": 95,
      "t_note_us": 224096825,
      "t_trigger_us": 223960862,
      "is_ai": true,
      "track_id": 9,
      "velocity": 0,
      "is_motor": false,
      "motor_id": 0,
      "accel_val": 2000,
      "base_duration_us": 230769
    },
    {
      "id": "M_2435",
      "pitch": 60,
      "t_note_us": 224096825,
      "t_trigger_us": 223960862,
      "is_ai": false,
      "track_id": 0,
      "velocity": 0,
      "is_motor": true,
      "motor_id": 1,
      "accel_val": 2000,
      "base_duration_us": 230769
    },
    {
      "id": "M_2439",
      "pitch": 93,
      "t_note_us": 224327594,
      "t_trigger_us": 224191631,
      "is_ai": true,
      "track_id": 8,
      "velocity": 0,
      "is_motor": false,
      "motor_id": 0,
      "accel_val": 2000,
      "base_duration_us": 230769
    },
    {
      "id": "M_2437",
      "pitch": 69,
      "t_note_us": 224327594,
      "t_trigger_us": 224191631,
      "is_ai": false,
      "track_id": 0,
      "velocity": 0,
      "is_motor": true,
      "motor_id": 1,
      "accel_val": 2000,
      "base_duration_us": 230769
    },
    {
      "id": "M_2438",
      "pitch": 50,
      "t_note_us": 224327594,
      "t_trigger_us": 224191631,
      "is_ai": false,
      "track_id": 0,
      "velocity": 0,
      "is_motor": true,
      "motor_id": 0,
      "accel_val": 2000,
      "base_duration_us": 230769
    },
    {
      "id": "M_2443",
      "pitch": 91,
      "t_note_us": 224558363,
      "t_trigger_us": 224422400,
      "is_ai": true,
      "track_id": 7,
      "velocity": 0,
      "is_motor": false,
      "motor_id": 0,
      "accel_val": 2000,
      "base_duration_us": 230768
    },
    {
      "id": "M_2440",
      "pitch": 66,
      "t_note_us": 224558363,
      "t_trigger_us": 224422400,
      "is_ai": false,
      "track_id": 0,
      "velocity": 0,
      "is_motor": true,
      "motor_id": 1,
      "accel_val": 2000,
      "base_duration_us": 115384
    },
    {
      "id": "M_2441",
      "pitch": 62,
      "t_note_us": 224558363,
      "t_trigger_us": 224422400,
      "is_ai": false,
      "track_id": 0,
      "velocity": 0,
      "is_motor": true,
      "motor_id": 0,
      "accel_val": 2000,
      "base_duration_us": 115384
    },
    {
      "id": "M_2442",
      "pitch": 67,
      "t_note_us": 224558363,
      "t_trigger_us": 224422400,
      "is_ai": false,
      "track_id": 0,
      "velocity": 0,
      "is_motor": true,
      "motor_id": 2,
      "accel_val": 2000,
      "base_duration_us": 230768
    },
    {
      "id": "M_2444",
      "pitch": 50,
      "t_note_us": 224673747,
      "t_trigger_us": 224537784,
      "is_ai": false,
      "track_id": 0,
      "velocity": 0,
      "is_motor": true,
      "motor_id": 0,
      "accel_val": 2000,
      "base_duration_us": 230768
    },
    {
      "id": "M_2447",
      "pitch": 93,
      "t_note_us": 224789131,
      "t_trigger_us": 224653168,
      "is_ai": true,
      "track_id": 8,
      "velocity": 0,
      "is_motor": false,
      "motor_id": 0,
      "accel_val": 2000,
      "base_duration_us": 230768
    },
    {
      "id": "M_2446",
      "pitch": 69,
      "t_note_us": 224789131,
      "t_trigger_us": 224653168,
      "is_ai": false,
      "track_id": 0,
      "velocity": 0,
      "is_motor": true,
      "motor_id": 1,
      "accel_val": 2000,
      "base_duration_us": 230768
    },
    {
      "id": "M_2445",
      "pitch": 50,
      "t_note_us": 224904515,
      "t_trigger_us": 224768552,
      "is_ai": false,
      "track_id": 0,
      "velocity": 0,
      "is_motor": true,
      "motor_id": 0,
      "accel_val": 2000,
      "base_duration_us": 115384
    },
    {
      "id": "M_2451",
      "pitch": 100,
      "t_note_us": 225019899,
      "t_trigger_us": 224883936,
      "is_ai": true,
      "track_id": 12,
      "velocity": 0,
      "is_motor": false,
      "motor_id": 0,
      "accel_val": 2000,
      "base_duration_us": 230768
    },
    {
      "id": "M_2452",
      "pitch": 88,
      "t_note_us": 225019899,
      "t_trigger_us": 224883936,
      "is_ai": true,
      "track_id": 5,
      "velocity": 0,
      "is_motor": false,
      "motor_id": 0,
      "accel_val": 2000,
      "base_duration_us": 230768
    },
    {
      "id": "M_2448",
      "pitch": 66,
      "t_note_us": 225019899,
      "t_trigger_us": 224883936,
      "is_ai": false,
      "track_id": 0,
      "velocity": 0,
      "is_motor": true,
      "motor_id": 1,
      "accel_val": 2000,
      "base_duration_us": 115384
    },
    {
      "id": "M_2449",
      "pitch": 62,
      "t_note_us": 225019899,
      "t_trigger_us": 224883936,
      "is_ai": false,
      "track_id": 0,
      "velocity": 0,
      "is_motor": true,
      "motor_id": 0,
      "accel_val": 2000,
      "base_duration_us": 115384
    },
    {
      "id": "M_2450",
      "pitch": 50,
      "t_note_us": 225135283,
      "t_trigger_us": 224999320,
      "is_ai": false,
      "track_id": 0,
      "velocity": 0,
      "is_motor": true,
      "motor_id": 0,
      "accel_val": 2000,
      "base_duration_us": 115384
    },
    {
      "id": "M_2453",
      "pitch": 86,
      "t_note_us": 225250667,
      "t_trigger_us": 225114704,
      "is_ai": true,
      "track_id": 4,
      "velocity": 0,
      "is_motor": false,
      "motor_id": 0,
      "accel_val": 2000,
      "base_duration_us": 230769
    },
    {
      "id": "M_2454",
      "pitch": 98,
      "t_note_us": 225250667,
      "t_trigger_us": 225114704,
      "is_ai": true,
      "track_id": 11,
      "velocity": 0,
      "is_motor": false,
      "motor_id": 0,
      "accel_val": 2000,
      "base_duration_us": 230769
    },
    {
      "id": "M_2456",
      "pitch": 90,
      "t_note_us": 225250667,
      "t_trigger_us": 225114704,
      "is_ai": true,
      "track_id": 0,
      "velocity": 0,
      "is_motor": true,
      "motor_id": 3,
      "accel_val": 2000,
      "base_duration_us": 230769
    },
    {
      "id": "M_2455",
      "pitch": 47,
      "t_note_us": 225250667,
      "t_trigger_us": 225114704,
      "is_ai": false,
      "track_id": 0,
      "velocity": 0,
      "is_motor": true,
      "motor_id": 0,
      "accel_val": 2000,
      "base_duration_us": 230769
    },
    {
      "id": "M_2457",
      "pitch": 59,
      "t_note_us": 225250667,
      "t_trigger_us": 225114704,
      "is_ai": false,
      "track_id": 0,
      "velocity": 0,
      "is_motor": true,
      "motor_id": 1,
      "accel_val": 2000,
      "base_duration_us": 230769
    },
    {
      "id": "M_2458",
      "pitch": 100,
      "t_note_us": 225481436,
      "t_trigger_us": 225345473,
      "is_ai": true,
      "track_id": 12,
      "velocity": 0,
      "is_motor": false,
      "motor_id": 0,
      "accel_val": 2000,
      "base_duration_us": 115384
    },
    {
      "id": "M_2459",
      "pitch": 88,
      "t_note_us": 225481436,
      "t_trigger_us": 225345473,
      "is_ai": true,
      "track_id": 5,
      "velocity": 0,
      "is_motor": false,
      "motor_id": 0,
      "accel_val": 2000,
      "base_duration_us": 115384
    },
    {
      "id": "M_2460",
      "pitch": 59,
      "t_note_us": 225481436,
      "t_trigger_us": 225345473,
      "is_ai": false,
      "track_id": 0,
      "velocity": 0,
      "is_motor": true,
      "motor_id": 0,
      "accel_val": 2000,
      "base_duration_us": 230768
    },
    {
      "id": "M_2465",
      "pitch": 95,
      "t_note_us": 225596820,
      "t_trigger_us": 225460857,
      "is_ai": true,
      "track_id": 9,
      "velocity": 0,
      "is_motor": false,
      "motor_id": 0,
      "accel_val": 2000,
      "base_duration_us": 346152
    },
    {
      "id": "M_2466",
      "pitch": 71,
      "t_note_us": 225596820,
      "t_trigger_us": 225460857,
      "is_ai": false,
      "track_id": 0,
      "velocity": 0,
      "is_motor": true,
      "motor_id": 1,
      "accel_val": 2000,
      "base_duration_us": 346152
    },
    {
      "id": "M_2463",
      "pitch": 62,
      "t_note_us": 225712204,
      "t_trigger_us": 225576241,
      "is_ai": false,
      "track_id": 0,
      "velocity": 0,
      "is_motor": true,
      "motor_id": 0,
      "accel_val": 2000,
      "base_duration_us": 230768
    },
    {
      "id": "M_2464",
      "pitch": 66,
      "t_note_us": 225712204,
      "t_trigger_us": 225576241,
      "is_ai": false,
      "track_id": 0,
      "velocity": 0,
      "is_motor": true,
      "motor_id": 2,
      "accel_val": 2000,
      "base_duration_us": 230768
    },
    {
      "id": "M_2461",
      "pitch": 91,
      "t_note_us": 225827588,
      "t_trigger_us": 225691625,
      "is_ai": true,
      "track_id": 7,
      "velocity": 0,
      "is_motor": false,
      "motor_id": 0,
      "accel_val": 2000,
      "base_duration_us": 115384
    },
    {
      "id": "M_2462",
      "pitch": 67,
      "t_note_us": 225827588,
      "t_trigger_us": 225691625,
      "is_ai": false,
      "track_id": 0,
      "velocity": 0,
      "is_motor": true,
      "motor_id": 3,
      "accel_val": 2000,
      "base_duration_us": 115384
    },
    {
      "id": "M_2467",
      "pitch": 93,
      "t_note_us": 225942972,
      "t_trigger_us": 225807009,
      "is_ai": true,
      "track_id": 8,
      "velocity": 0,
      "is_motor": false,
      "motor_id": 0,
      "accel_val": 2000,
      "base_duration_us": 230769
    },
    {
      "id": "M_2468",
      "pitch": 69,
      "t_note_us": 225942972,
      "t_trigger_us": 225807009,
      "is_ai": false,
      "track_id": 0,
      "velocity": 0,
      "is_motor": true,
      "motor_id": 1,
      "accel_val": 2000,
      "base_duration_us": 230769
    },
    {
      "id": "M_2469",
      "pitch": 59,
      "t_note_us": 225942972,
      "t_trigger_us": 225807009,
      "is_ai": false,
      "track_id": 0,
      "velocity": 0,
      "is_motor": true,
      "motor_id": 0,
      "accel_val": 2000,
      "base_duration_us": 230769
    },
    {
      "id": "M_2474",
      "pitch": 91,
      "t_note_us": 226173741,
      "t_trigger_us": 226037778,
      "is_ai": true,
      "track_id": 7,
      "velocity": 0,
      "is_motor": false,
      "motor_id": 0,
      "accel_val": 2000,
      "base_duration_us": 461537
    },
    {
      "id": "M_2475",
      "pitch": 83,
      "t_note_us": 226173741,
      "t_trigger_us": 226037778,
      "is_ai": true,
      "track_id": 2,
      "velocity": 0,
      "is_motor": false,
      "motor_id": 0,
      "accel_val": 2000,
      "base_duration_us": 461537
    },
    {
      "id": "M_2470",
      "pitch": 52,
      "t_note_us": 226173741,
      "t_trigger_us": 226037778,
      "is_ai": false,
      "track_id": 0,
      "velocity": 0,
      "is_motor": true,
      "motor_id": 0,
      "accel_val": 2000,
      "base_duration_us": 230769
    },
    {
      "id": "M_2473",
      "pitch": 67,
      "t_note_us": 226173741,
      "t_trigger_us": 226037778,
      "is_ai": false,
      "track_id": 0,
      "velocity": 0,
      "is_motor": true,
      "motor_id": 1,
      "accel_val": 2000,
      "base_duration_us": 461537
    },
    {
      "id": "M_2471",
      "pitch": 59,
      "t_note_us": 226404510,
      "t_trigger_us": 226268547,
      "is_ai": false,
      "track_id": 0,
      "velocity": 0,
      "is_motor": true,
      "motor_id": 0,
      "accel_val": 2000,
      "base_duration_us": 115384
    },
    {
      "id": "M_2472",
      "pitch": 64,
      "t_note_us": 226404510,
      "t_trigger_us": 226268547,
      "is_ai": false,
      "track_id": 0,
      "velocity": 0,
      "is_motor": true,
      "motor_id": 2,
      "accel_val": 2000,
      "base_duration_us": 115384
    },
    {
      "id": "M_2476",
      "pitch": 52,
      "t_note_us": 226519894,
      "t_trigger_us": 226383931,
      "is_ai": false,
      "track_id": 0,
      "velocity": 0,
      "is_motor": true,
      "motor_id": 0,
      "accel_val": 2000,
      "base_duration_us": 230768
    },
    {
      "id": "M_2478",
      "pitch": 91,
      "t_note_us": 226635278,
      "t_trigger_us": 226499315,
      "is_ai": true,
      "track_id": 7,
      "velocity": 0,
      "is_motor": false,
      "motor_id": 0,
      "accel_val": 2000,
      "base_duration_us": 230768
    },
    {
      "id": "M_2479",
      "pitch": 67,
      "t_note_us": 226635278,
      "t_trigger_us": 226499315,
      "is_ai": false,
      "track_id": 0,
      "velocity": 0,
      "is_motor": true,
      "motor_id": 1,
      "accel_val": 2000,
      "base_duration_us": 230768
    },
    {
      "id": "M_2477",
      "pitch": 52,
      "t_note_us": 226750662,
      "t_trigger_us": 226614699,
      "is_ai": false,
      "track_id": 0,
      "velocity": 0,
      "is_motor": true,
      "motor_id": 0,
      "accel_val": 2000,
      "base_duration_us": 115384
    },
    {
      "id": "M_2483",
      "pitch": 86,
      "t_note_us": 226866046,
      "t_trigger_us": 226730083,
      "is_ai": true,
      "track_id": 4,
      "velocity": 0,
      "is_motor": false,
      "motor_id": 0,
      "accel_val": 2000,
      "base_duration_us": 230768
    },
    {
      "id": "M_2484",
      "pitch": 98,
      "t_note_us": 226866046,
      "t_trigger_us": 226730083,
      "is_ai": true,
      "track_id": 11,
      "velocity": 0,
      "is_motor": false,
      "motor_id": 0,
      "accel_val": 2000,
      "base_duration_us": 230768
    },
    {
      "id": "M_2480",
      "pitch": 59,
      "t_note_us": 226866046,
      "t_trigger_us": 226730083,
      "is_ai": false,
      "track_id": 0,
      "velocity": 0,
      "is_motor": true,
      "motor_id": 0,
      "accel_val": 2000,
      "base_duration_us": 115384
    },
    {
      "id": "M_2481",
      "pitch": 64,
      "t_note_us": 226866046,
      "t_trigger_us": 226730083,
      "is_ai": false,
      "track_id": 0,
      "velocity": 0,
      "is_motor": true,
      "motor_id": 1,
      "accel_val": 2000,
      "base_duration_us": 115384
    },
    {
      "id": "M_2482",
      "pitch": 52,
      "t_note_us": 226981430,
      "t_trigger_us": 226845467,
      "is_ai": false,
      "track_id": 0,
      "velocity": 0,
      "is_motor": true,
      "motor_id": 0,
      "accel_val": 2000,
      "base_duration_us": 115384
    },
    {
      "id": "M_2486",
      "pitch": 96,
      "t_note_us": 227096814,
      "t_trigger_us": 226960851,
      "is_ai": true,
      "track_id": 10,
      "velocity": 0,
      "is_motor": false,
      "motor_id": 0,
      "accel_val": 2000,
      "base_duration_us": 230769
    },
    {
      "id": "M_2487",
      "pitch": 84,
      "t_note_us": 227096814,
      "t_trigger_us": 226960851,
      "is_ai": true,
      "track_id": 3,
      "velocity": 0,
      "is_motor": false,
      "motor_id": 0,
      "accel_val": 2000,
      "base_duration_us": 230769
    },
    {
      "id": "M_2488",
      "pitch": 91,
      "t_note_us": 227096814,
      "t_trigger_us": 226960851,
      "is_ai": true,
      "track_id": 7,
      "velocity": 0,
      "is_motor": false,
      "motor_id": 0,
      "accel_val": 2000,
      "base_duration_us": 230769
    },
    {
      "id": "M_2485",
      "pitch": 48,
      "t_note_us": 227096814,
      "t_trigger_us": 226960851,
      "is_ai": false,
      "track_id": 0,
      "velocity": 0,
      "is_motor": true,
      "motor_id": 0,
      "accel_val": 2000,
      "base_duration_us": 230769
    },
    {
      "id": "M_2492",
      "pitch": 95,
      "t_note_us": 227327583,
      "t_trigger_us": 227191620,
      "is_ai": true,
      "track_id": 9,
      "velocity": 0,
      "is_motor": false,
      "motor_id": 0,
      "accel_val": 2000,
      "base_duration_us": 230769
    },
    {
      "id": "M_2489",
      "pitch": 60,
      "t_note_us": 227327583,
      "t_trigger_us": 227191620,
      "is_ai": false,
      "track_id": 0,
      "velocity": 0,
      "is_motor": true,
      "motor_id": 1,
      "accel_val": 2000,
      "base_duration_us": 230769
    },
    {
      "id": "M_2490",
      "pitch": 64,
      "t_note_us": 227327583,
      "t_trigger_us": 227191620,
      "is_ai": false,
      "track_id": 0,
      "velocity": 0,
      "is_motor": true,
      "motor_id": 0,
      "accel_val": 2000,
      "base_duration_us": 230769
    },
    {
      "id": "M_2491",
      "pitch": 71,
      "t_note_us": 227327583,
      "t_trigger_us": 227191620,
      "is_ai": false,
      "track_id": 0,
      "velocity": 0,
      "is_motor": true,
      "motor_id": 2,
      "accel_val": 2000,
      "base_duration_us": 230769
    },
    {
      "id": "M_2496",
      "pitch": 93,
      "t_note_us": 227558352,
      "t_trigger_us": 227422389,
      "is_ai": true,
      "track_id": 8,
      "velocity": 0,
      "is_motor": false,
      "motor_id": 0,
      "accel_val": 2000,
      "base_duration_us": 230768
    },
    {
      "id": "M_2493",
      "pitch": 48,
      "t_note_us": 227558352,
      "t_trigger_us": 227422389,
      "is_ai": false,
      "track_id": 0,
      "velocity": 0,
      "is_motor": true,
      "motor_id": 0,
      "accel_val": 2000,
      "base_duration_us": 115384
    },
    {
      "id": "M_2495",
      "pitch": 69,
      "t_note_us": 227558352,
      "t_trigger_us": 227422389,
      "is_ai": false,
      "track_id": 0,
      "velocity": 0,
      "is_motor": true,
      "motor_id": 1,
      "accel_val": 2000,
      "base_duration_us": 230768
    },
    {
      "id": "M_2494",
      "pitch": 60,
      "t_note_us": 227673736,
      "t_trigger_us": 227537773,
      "is_ai": false,
      "track_id": 0,
      "velocity": 0,
      "is_motor": true,
      "motor_id": 0,
      "accel_val": 2000,
      "base_duration_us": 115384
    },
    {
      "id": "M_2497",
      "pitch": 91,
      "t_note_us": 227789120,
      "t_trigger_us": 227653157,
      "is_ai": true,
      "track_id": 7,
      "velocity": 0,
      "is_motor": false,
      "motor_id": 0,
      "accel_val": 2000,
      "base_duration_us": 230769
    },
    {
      "id": "M_2498",
      "pitch": 64,
      "t_note_us": 227789120,
      "t_trigger_us": 227653157,
      "is_ai": false,
      "track_id": 0,
      "velocity": 0,
      "is_motor": true,
      "motor_id": 1,
      "accel_val": 2000,
      "base_duration_us": 230769
    },
    {
      "id": "M_2499",
      "pitch": 60,
      "t_note_us": 227789120,
      "t_trigger_us": 227653157,
      "is_ai": false,
      "track_id": 0,
      "velocity": 0,
      "is_motor": true,
      "motor_id": 0,
      "accel_val": 2000,
      "base_duration_us": 230769
    },
    {
      "id": "M_2500",
      "pitch": 67,
      "t_note_us": 227789120,
      "t_trigger_us": 227653157,
      "is_ai": false,
      "track_id": 0,
      "velocity": 0,
      "is_motor": true,
      "motor_id": 2,
      "accel_val": 2000,
      "base_duration_us": 230769
    },
    {
      "id": "M_2502",
      "pitch": 90,
      "t_note_us": 228019889,
      "t_trigger_us": 227883926,
      "is_ai": true,
      "track_id": 0,
      "velocity": 0,
      "is_motor": true,
      "motor_id": 3,
      "accel_val": 2000,
      "base_duration_us": 230769
    },
    {
      "id": "M_2501",
      "pitch": 47,
      "t_note_us": 228019889,
      "t_trigger_us": 227883926,
      "is_ai": false,
      "track_id": 0,
      "velocity": 0,
      "is_motor": true,
      "motor_id": 0,
      "accel_val": 2000,
      "base_duration_us": 230769
    },
    {
      "id": "M_2503",
      "pitch": 78,
      "t_note_us": 228019889,
      "t_trigger_us": 227883926,
      "is_ai": false,
      "track_id": 0,
      "velocity": 0,
      "is_motor": true,
      "motor_id": 2,
      "accel_val": 2000,
      "base_duration_us": 230769
    },
    {
      "id": "M_2506",
      "pitch": 91,
      "t_note_us": 228250658,
      "t_trigger_us": 228114695,
      "is_ai": true,
      "track_id": 7,
      "velocity": 0,
      "is_motor": false,
      "motor_id": 0,
      "accel_val": 2000,
      "base_duration_us": 230769
    },
    {
      "id": "M_2504",
      "pitch": 67,
      "t_note_us": 228250658,
      "t_trigger_us": 228114695,
      "is_ai": false,
      "track_id": 0,
      "velocity": 0,
      "is_motor": true,
      "motor_id": 1,
      "accel_val": 2000,
      "base_duration_us": 230769
    },
    {
      "id": "M_2505",
      "pitch": 59,
      "t_note_us": 228250658,
      "t_trigger_us": 228114695,
      "is_ai": false,
      "track_id": 0,
      "velocity": 0,
      "is_motor": true,
      "motor_id": 0,
      "accel_val": 2000,
      "base_duration_us": 230769
    },
    {
      "id": "M_2507",
      "pitch": 62,
      "t_note_us": 228250658,
      "t_trigger_us": 228114695,
      "is_ai": false,
      "track_id": 0,
      "velocity": 0,
      "is_motor": true,
      "motor_id": 2,
      "accel_val": 2000,
      "base_duration_us": 230769
    },
    {
      "id": "M_2510",
      "pitch": 93,
      "t_note_us": 228481427,
      "t_trigger_us": 228345464,
      "is_ai": true,
      "track_id": 8,
      "velocity": 0,
      "is_motor": false,
      "motor_id": 0,
      "accel_val": 2000,
      "base_duration_us": 230768
    },
    {
      "id": "M_2508",
      "pitch": 47,
      "t_note_us": 228481427,
      "t_trigger_us": 228345464,
      "is_ai": false,
      "track_id": 0,
      "velocity": 0,
      "is_motor": true,
      "motor_id": 0,
      "accel_val": 2000,
      "base_duration_us": 115384
    },
    {
      "id": "M_2511",
      "pitch": 69,
      "t_note_us": 228481427,
      "t_trigger_us": 228345464,
      "is_ai": false,
      "track_id": 0,
      "velocity": 0,
      "is_motor": true,
      "motor_id": 1,
      "accel_val": 2000,
      "base_duration_us": 230768
    },
    {
      "id": "M_2509",
      "pitch": 59,
      "t_note_us": 228596811,
      "t_trigger_us": 228460848,
      "is_ai": false,
      "track_id": 0,
      "velocity": 0,
      "is_motor": true,
      "motor_id": 0,
      "accel_val": 2000,
      "base_duration_us": 115384
    },
    {
      "id": "M_2514",
      "pitch": 96,
      "t_note_us": 228712195,
      "t_trigger_us": 228576232,
      "is_ai": true,
      "track_id": 10,
      "velocity": 0,
      "is_motor": false,
      "motor_id": 0,
      "accel_val": 2000,
      "base_duration_us": 230769
    },
    {
      "id": "M_2515",
      "pitch": 84,
      "t_note_us": 228712195,
      "t_trigger_us": 228576232,
      "is_ai": true,
      "track_id": 3,
      "velocity": 0,
      "is_motor": false,
      "motor_id": 0,
      "accel_val": 2000,
      "base_duration_us": 230769
    },
    {
      "id": "M_2512",
      "pitch": 59,
      "t_note_us": 228712195,
      "t_trigger_us": 228576232,
      "is_ai": false,
      "track_id": 0,
      "velocity": 0,
      "is_motor": true,
      "motor_id": 0,
      "accel_val": 2000,
      "base_duration_us": 230769
    },
    {
      "id": "M_2513",
      "pitch": 62,
      "t_note_us": 228712195,
      "t_trigger_us": 228576232,
      "is_ai": false,
      "track_id": 0,
      "velocity": 0,
      "is_motor": true,
      "motor_id": 1,
      "accel_val": 2000,
      "base_duration_us": 230769
    },
    {
      "id": "M_2516",
      "pitch": 95,
      "t_note_us": 228942964,
      "t_trigger_us": 228807001,
      "is_ai": true,
      "track_id": 9,
      "velocity": 0,
      "is_motor": false,
      "motor_id": 0,
      "accel_val": 2000,
      "base_duration_us": 230769
    },
    {
      "id": "M_2518",
      "pitch": 88,
      "t_note_us": 228942964,
      "t_trigger_us": 228807001,
      "is_ai": true,
      "track_id": 5,
      "velocity": 0,
      "is_motor": false,
      "motor_id": 0,
      "accel_val": 2000,
      "base_duration_us": 230769
    },
    {
      "id": "M_2517",
      "pitch": 71,
      "t_note_us": 228942964,
      "t_trigger_us": 228807001,
      "is_ai": false,
      "track_id": 0,
      "velocity": 0,
      "is_motor": true,
      "motor_id": 1,
      "accel_val": 2000,
      "base_duration_us": 230769
    },
    {
      "id": "M_2519",
      "pitch": 52,
      "t_note_us": 228942964,
      "t_trigger_us": 228807001,
      "is_ai": false,
      "track_id": 0,
      "velocity": 0,
      "is_motor": true,
      "motor_id": 0,
      "accel_val": 2000,
      "base_duration_us": 230769
    },
    {
      "id": "M_2520",
      "pitch": 93,
      "t_note_us": 229173733,
      "t_trigger_us": 229037770,
      "is_ai": true,
      "track_id": 8,
      "velocity": 0,
      "is_motor": false,
      "motor_id": 0,
      "accel_val": 2000,
      "base_duration_us": 115384
    },
    {
      "id": "M_2521",
      "pitch": 69,
      "t_note_us": 229173733,
      "t_trigger_us": 229037770,
      "is_ai": false,
      "track_id": 0,
      "velocity": 0,
      "is_motor": true,
      "motor_id": 1,
      "accel_val": 2000,
      "base_duration_us": 115384
    },
    {
      "id": "M_2522",
      "pitch": 59,
      "t_note_us": 229173733,
      "t_trigger_us": 229037770,
      "is_ai": false,
      "track_id": 0,
      "velocity": 0,
      "is_motor": true,
      "motor_id": 0,
      "accel_val": 2000,
      "base_duration_us": 230768
    },
    {
      "id": "M_2523",
      "pitch": 64,
      "t_note_us": 229173733,
      "t_trigger_us": 229037770,
      "is_ai": false,
      "track_id": 0,
      "velocity": 0,
      "is_motor": true,
      "motor_id": 2,
      "accel_val": 2000,
      "base_duration_us": 230768
    },
    {
      "id": "M_2525",
      "pitch": 83,
      "t_note_us": 229289117,
      "t_trigger_us": 229153154,
      "is_ai": true,
      "track_id": 2,
      "velocity": 0,
      "is_motor": false,
      "motor_id": 0,
      "accel_val": 2000,
      "base_duration_us": 346153
    },
    {
      "id": "M_2526",
      "pitch": 95,
      "t_note_us": 229289117,
      "t_trigger_us": 229153154,
      "is_ai": true,
      "track_id": 9,
      "velocity": 0,
      "is_motor": false,
      "motor_id": 0,
      "accel_val": 2000,
      "base_duration_us": 346153
    },
    {
      "id": "M_2524",
      "pitch": 52,
      "t_note_us": 229404501,
      "t_trigger_us": 229268538,
      "is_ai": false,
      "track_id": 0,
      "velocity": 0,
      "is_motor": true,
      "motor_id": 0,
      "accel_val": 2000,
      "base_duration_us": 230769
    },
    {
      "id": "M_2528",
      "pitch": 88,
      "t_note_us": 229635270,
      "t_trigger_us": 229499307,
      "is_ai": true,
      "track_id": 5,
      "velocity": 0,
      "is_motor": false,
      "motor_id": 0,
      "accel_val": 2000,
      "base_duration_us": 230769
    },
    {
      "id": "M_2530",
      "pitch": 100,
      "t_note_us": 229635270,
      "t_trigger_us": 229499307,
      "is_ai": true,
      "track_id": 12,
      "velocity": 0,
      "is_motor": false,
      "motor_id": 0,
      "accel_val": 2000,
      "base_duration_us": 230769
    },
    {
      "id": "M_2527",
      "pitch": 59,
      "t_note_us": 229635270,
      "t_trigger_us": 229499307,
      "is_ai": false,
      "track_id": 0,
      "velocity": 0,
      "is_motor": true,
      "motor_id": 0,
      "accel_val": 2000,
      "base_duration_us": 230769
    },
    {
      "id": "M_2529",
      "pitch": 64,
      "t_note_us": 229635270,
      "t_trigger_us": 229499307,
      "is_ai": false,
      "track_id": 0,
      "velocity": 0,
      "is_motor": true,
      "motor_id": 1,
      "accel_val": 2000,
      "base_duration_us": 230769
    },
    {
      "id": "M_2535",
      "pitch": 86,
      "t_note_us": 229866039,
      "t_trigger_us": 229730076,
      "is_ai": true,
      "track_id": 4,
      "velocity": 0,
      "is_motor": false,
      "motor_id": 0,
      "accel_val": 2000,
      "base_duration_us": 461538
    },
    {
      "id": "M_2536",
      "pitch": 98,
      "t_note_us": 229866039,
      "t_trigger_us": 229730076,
      "is_ai": true,
      "track_id": 11,
      "velocity": 0,
      "is_motor": false,
      "motor_id": 0,
      "accel_val": 2000,
      "base_duration_us": 461538
    },
    {
      "id": "M_2531",
      "pitch": 65,
      "t_note_us": 229866039,
      "t_trigger_us": 229730076,
      "is_ai": false,
      "track_id": 0,
      "velocity": 0,
      "is_motor": true,
      "motor_id": 1,
      "accel_val": 2000,
      "base_duration_us": 230769
    },
    {
      "id": "M_2532",
      "pitch": 53,
      "t_note_us": 229866039,
      "t_trigger_us": 229730076,
      "is_ai": false,
      "track_id": 0,
      "velocity": 0,
      "is_motor": true,
      "motor_id": 0,
      "accel_val": 2000,
      "base_duration_us": 230769
    },
    {
      "id": "M_2533",
      "pitch": 53,
      "t_note_us": 230096808,
      "t_trigger_us": 229960845,
      "is_ai": false,
      "track_id": 0,
      "velocity": 0,
      "is_motor": true,
      "motor_id": 0,
      "accel_val": 2000,
      "base_duration_us": 230769
    },
    {
      "id": "M_2534",
      "pitch": 65,
      "t_note_us": 230096808,
      "t_trigger_us": 229960845,
      "is_ai": false,
      "track_id": 0,
      "velocity": 0,
      "is_motor": true,
      "motor_id": 1,
      "accel_val": 2000,
      "base_duration_us": 230769
    },
    {
      "id": "M_2537",
      "pitch": 83,
      "t_note_us": 230327577,
      "t_trigger_us": 230191614,
      "is_ai": true,
      "track_id": 2,
      "velocity": 0,
      "is_motor": false,
      "motor_id": 0,
      "accel_val": 2000,
      "base_duration_us": 230769
    },
    {
      "id": "M_2539",
      "pitch": 95,
      "t_note_us": 230327577,
      "t_trigger_us": 230191614,
      "is_ai": true,
      "track_id": 9,
      "velocity": 0,
      "is_motor": false,
      "motor_id": 0,
      "accel_val": 2000,
      "base_duration_us": 230769
    },
    {
      "id": "M_2538",
      "pitch": 67,
      "t_note_us": 230327577,
      "t_trigger_us": 230191614,
      "is_ai": false,
      "track_id": 0,
      "velocity": 0,
      "is_motor": true,
      "motor_id": 1,
      "accel_val": 2000,
      "base_duration_us": 230769
    },
    {
      "id": "M_2540",
      "pitch": 55,
      "t_note_us": 230327577,
      "t_trigger_us": 230191614,
      "is_ai": false,
      "track_id": 0,
      "velocity": 0,
      "is_motor": true,
      "motor_id": 0,
      "accel_val": 2000,
      "base_duration_us": 230769
    },
    {
      "id": "M_2541",
      "pitch": 86,
      "t_note_us": 230558346,
      "t_trigger_us": 230422383,
      "is_ai": true,
      "track_id": 4,
      "velocity": 0,
      "is_motor": false,
      "motor_id": 0,
      "accel_val": 2000,
      "base_duration_us": 230769
    },
    {
      "id": "M_2543",
      "pitch": 98,
      "t_note_us": 230558346,
      "t_trigger_us": 230422383,
      "is_ai": true,
      "track_id": 11,
      "velocity": 0,
      "is_motor": false,
      "motor_id": 0,
      "accel_val": 2000,
      "base_duration_us": 230769
    },
    {
      "id": "M_2542",
      "pitch": 67,
      "t_note_us": 230558346,
      "t_trigger_us": 230422383,
      "is_ai": false,
      "track_id": 0,
      "velocity": 0,
      "is_motor": true,
      "motor_id": 1,
      "accel_val": 2000,
      "base_duration_us": 230769
    },
    {
      "id": "M_2544",
      "pitch": 55,
      "t_note_us": 230558346,
      "t_trigger_us": 230422383,
      "is_ai": false,
      "track_id": 0,
      "velocity": 0,
      "is_motor": true,
      "motor_id": 0,
      "accel_val": 2000,
      "base_duration_us": 230769
    },
    {
      "id": "M_2547",
      "pitch": 100,
      "t_note_us": 230789115,
      "t_trigger_us": 230653152,
      "is_ai": true,
      "track_id": 12,
      "velocity": 0,
      "is_motor": false,
      "motor_id": 0,
      "accel_val": 2000,
      "base_duration_us": 346153
    },
    {
      "id": "M_2548",
      "pitch": 88,
      "t_note_us": 230789115,
      "t_trigger_us": 230653152,
      "is_ai": true,
      "track_id": 5,
      "velocity": 0,
      "is_motor": false,
      "motor_id": 0,
      "accel_val": 2000,
      "base_duration_us": 346153
    },
    {
      "id": "M_2545",
      "pitch": 48,
      "t_note_us": 230789115,
      "t_trigger_us": 230653152,
      "is_ai": false,
      "track_id": 0,
      "velocity": 0,
      "is_motor": true,
      "motor_id": 0,
      "accel_val": 2000,
      "base_duration_us": 230769
    },
    {
      "id": "M_2546",
      "pitch": 60,
      "t_note_us": 230789115,
      "t_trigger_us": 230653152,
      "is_ai": false,
      "track_id": 0,
      "velocity": 0,
      "is_motor": true,
      "motor_id": 1,
      "accel_val": 2000,
      "base_duration_us": 230769
    },
    {
      "id": "M_2549",
      "pitch": 60,
      "t_note_us": 231019884,
      "t_trigger_us": 230883921,
      "is_ai": false,
      "track_id": 0,
      "velocity": 0,
      "is_motor": true,
      "motor_id": 1,
      "accel_val": 2000,
      "base_duration_us": 230768
    },
    {
      "id": "M_2552",
      "pitch": 96,
      "t_note_us": 231135268,
      "t_trigger_us": 230999305,
      "is_ai": true,
      "track_id": 10,
      "velocity": 0,
      "is_motor": false,
      "motor_id": 0,
      "accel_val": 2000,
      "base_duration_us": 346153
    },
    {
      "id": "M_2553",
      "pitch": 84,
      "t_note_us": 231135268,
      "t_trigger_us": 230999305,
      "is_ai": true,
      "track_id": 3,
      "velocity": 0,
      "is_motor": false,
      "motor_id": 0,
      "accel_val": 2000,
      "base_duration_us": 346153
    },
    {
      "id": "M_2550",
      "pitch": 64,
      "t_note_us": 231250652,
      "t_trigger_us": 231114689,
      "is_ai": false,
      "track_id": 0,
      "velocity": 0,
      "is_motor": true,
      "motor_id": 1,
      "accel_val": 2000,
      "base_duration_us": 230769
    },
    {
      "id": "M_2551",
      "pitch": 67,
      "t_note_us": 231250652,
      "t_trigger_us": 231114689,
      "is_ai": false,
      "track_id": 0,
      "velocity": 0,
      "is_motor": true,
      "motor_id": 2,
      "accel_val": 2000,
      "base_duration_us": 230769
    },
    {
      "id": "M_2555",
      "pitch": 83,
      "t_note_us": 231481421,
      "t_trigger_us": 231345458,
      "is_ai": true,
      "track_id": 2,
      "velocity": 0,
      "is_motor": false,
      "motor_id": 0,
      "accel_val": 2000,
      "base_duration_us": 230769
    },
    {
      "id": "M_2556",
      "pitch": 95,
      "t_note_us": 231481421,
      "t_trigger_us": 231345458,
      "is_ai": true,
      "track_id": 9,
      "velocity": 0,
      "is_motor": false,
      "motor_id": 0,
      "accel_val": 2000,
      "base_duration_us": 230769
    },
    {
      "id": "M_2554",
      "pitch": 60,
      "t_note_us": 231481421,
      "t_trigger_us": 231345458,
      "is_ai": false,
      "track_id": 0,
      "velocity": 0,
      "is_motor": true,
      "motor_id": 1,
      "accel_val": 2000,
      "base_duration_us": 230769
    },
    {
      "id": "M_2557",
      "pitch": 93,
      "t_note_us": 231712190,
      "t_trigger_us": 231576227,
      "is_ai": true,
      "track_id": 8,
      "velocity": 0,
      "is_motor": false,
      "motor_id": 0,
      "accel_val": 2000,
      "base_duration_us": 230769
    },
    {
      "id": "M_2558",
      "pitch": 69,
      "t_note_us": 231712190,
      "t_trigger_us": 231576227,
      "is_ai": false,
      "track_id": 0,
      "velocity": 0,
      "is_motor": true,
      "motor_id": 1,
      "accel_val": 2000,
      "base_duration_us": 230769
    },
    {
      "id": "M_2559",
      "pitch": 50,
      "t_note_us": 231712190,
      "t_trigger_us": 231576227,
      "is_ai": false,
      "track_id": 0,
      "velocity": 0,
      "is_motor": true,
      "motor_id": 0,
      "accel_val": 2000,
      "base_duration_us": 230769
    },
    {
      "id": "M_2562",
      "pitch": 90,
      "t_note_us": 231942959,
      "t_trigger_us": 231806996,
      "is_ai": true,
      "track_id": 0,
      "velocity": 0,
      "is_motor": true,
      "motor_id": 3,
      "accel_val": 2000,
      "base_duration_us": 230768
    },
    {
      "id": "M_2560",
      "pitch": 62,
      "t_note_us": 231942959,
      "t_trigger_us": 231806996,
      "is_ai": false,
      "track_id": 0,
      "velocity": 0,
      "is_motor": true,
      "motor_id": 1,
      "accel_val": 2000,
      "base_duration_us": 115384
    },
    {
      "id": "M_2561",
      "pitch": 66,
      "t_note_us": 231942959,
      "t_trigger_us": 231806996,
      "is_ai": false,
      "track_id": 0,
      "velocity": 0,
      "is_motor": true,
      "motor_id": 2,
      "accel_val": 2000,
      "base_duration_us": 115384
    },
    {
      "id": "M_2563",
      "pitch": 78,
      "t_note_us": 231942959,
      "t_trigger_us": 231806996,
      "is_ai": false,
      "track_id": 0,
      "velocity": 0,
      "is_motor": true,
      "motor_id": 0,
      "accel_val": 2000,
      "base_duration_us": 230768
    },
    {
      "id": "M_2564",
      "pitch": 50,
      "t_note_us": 232058343,
      "t_trigger_us": 231922380,
      "is_ai": false,
      "track_id": 0,
      "velocity": 0,
      "is_motor": true,
      "motor_id": 1,
      "accel_val": 2000,
      "base_duration_us": 230768
    },
    {
      "id": "M_2567",
      "pitch": 100,
      "t_note_us": 232173727,
      "t_trigger_us": 232037764,
      "is_ai": true,
      "track_id": 12,
      "velocity": 0,
      "is_motor": false,
      "motor_id": 0,
      "accel_val": 2000,
      "base_duration_us": 230768
    },
    {
      "id": "M_2566",
      "pitch": 76,
      "t_note_us": 232173727,
      "t_trigger_us": 232037764,
      "is_ai": false,
      "track_id": 0,
      "velocity": 0,
      "is_motor": true,
      "motor_id": 2,
      "accel_val": 2000,
      "base_duration_us": 230768
    },
    {
      "id": "M_2565",
      "pitch": 50,
      "t_note_us": 232289111,
      "t_trigger_us": 232153148,
      "is_ai": false,
      "track_id": 0,
      "velocity": 0,
      "is_motor": true,
      "motor_id": 0,
      "accel_val": 2000,
      "base_duration_us": 115384
    },
    {
      "id": "M_2571",
      "pitch": 98,
      "t_note_us": 232404495,
      "t_trigger_us": 232268532,
      "is_ai": true,
      "track_id": 11,
      "velocity": 0,
      "is_motor": false,
      "motor_id": 0,
      "accel_val": 2000,
      "base_duration_us": 230768
    },
    {
      "id": "M_2572",
      "pitch": 86,
      "t_note_us": 232404495,
      "t_trigger_us": 232268532,
      "is_ai": true,
      "track_id": 4,
      "velocity": 0,
      "is_motor": false,
      "motor_id": 0,
      "accel_val": 2000,
      "base_duration_us": 230768
    },
    {
      "id": "M_2568",
      "pitch": 66,
      "t_note_us": 232404495,
      "t_trigger_us": 232268532,
      "is_ai": false,
      "track_id": 0,
      "velocity": 0,
      "is_motor": true,
      "motor_id": 1,
      "accel_val": 2000,
      "base_duration_us": 115384
    },
    {
      "id": "M_2569",
      "pitch": 62,
      "t_note_us": 232404495,
      "t_trigger_us": 232268532,
      "is_ai": false,
      "track_id": 0,
      "velocity": 0,
      "is_motor": true,
      "motor_id": 0,
      "accel_val": 2000,
      "base_duration_us": 115384
    },
    {
      "id": "M_2570",
      "pitch": 50,
      "t_note_us": 232519879,
      "t_trigger_us": 232383916,
      "is_ai": false,
      "track_id": 0,
      "velocity": 0,
      "is_motor": true,
      "motor_id": 0,
      "accel_val": 2000,
      "base_duration_us": 115384
    },
    {
      "id": "M_2573",
      "pitch": 98,
      "t_note_us": 232635263,
      "t_trigger_us": 232499300,
      "is_ai": true,
      "track_id": 11,
      "velocity": 0,
      "is_motor": false,
      "motor_id": 0,
      "accel_val": 2000,
      "base_duration_us": 230769
    },
    {
      "id": "M_2574",
      "pitch": 74,
      "t_note_us": 232635263,
      "t_trigger_us": 232499300,
      "is_ai": false,
      "track_id": 0,
      "velocity": 0,
      "is_motor": true,
      "motor_id": 1,
      "accel_val": 2000,
      "base_duration_us": 230769
    },
    {
      "id": "M_2575",
      "pitch": 63,
      "t_note_us": 232635263,
      "t_trigger_us": 232499300,
      "is_ai": false,
      "track_id": 0,
      "velocity": 0,
      "is_motor": true,
      "motor_id": 0,
      "accel_val": 2000,
      "base_duration_us": 230769
    },
    {
      "id": "M_2576",
      "pitch": 51,
      "t_note_us": 232635263,
      "t_trigger_us": 232499300,
      "is_ai": false,
      "track_id": 0,
      "velocity": 0,
      "is_motor": true,
      "motor_id": 2,
      "accel_val": 2000,
      "base_duration_us": 230769
    },
    {
      "id": "M_2577",
      "pitch": 59,
      "t_note_us": 232866032,
      "t_trigger_us": 232730069,
      "is_ai": false,
      "track_id": 0,
      "velocity": 0,
      "is_motor": true,
      "motor_id": 0,
      "accel_val": 2000,
      "base_duration_us": 230769
    },
    {
      "id": "M_2578",
      "pitch": 63,
      "t_note_us": 232866032,
      "t_trigger_us": 232730069,
      "is_ai": false,
      "track_id": 0,
      "velocity": 0,
      "is_motor": true,
      "motor_id": 1,
      "accel_val": 2000,
      "base_duration_us": 230769
    },
    {
      "id": "M_2579",
      "pitch": 76,
      "t_note_us": 232866032,
      "t_trigger_us": 232730069,
      "is_ai": false,
      "track_id": 0,
      "velocity": 0,
      "is_motor": true,
      "motor_id": 2,
      "accel_val": 2000,
      "base_duration_us": 230769
    },
    {
      "id": "M_2580",
      "pitch": 76,
      "t_note_us": 232866032,
      "t_trigger_us": 232730069,
      "is_ai": false,
      "track_id": 0,
      "velocity": 0,
      "is_motor": true,
      "motor_id": 3,
      "accel_val": 2000,
      "base_duration_us": 230769
    },
    {
      "id": "M_2583",
      "pitch": 90,
      "t_note_us": 233096801,
      "t_trigger_us": 232960838,
      "is_ai": true,
      "track_id": 0,
      "velocity": 0,
      "is_motor": true,
      "motor_id": 3,
      "accel_val": 2000,
      "base_duration_us": 230768
    },
    {
      "id": "M_2584",
      "pitch": 102,
      "t_note_us": 233096801,
      "t_trigger_us": 232960838,
      "is_ai": true,
      "track_id": 0,
      "velocity": 0,
      "is_motor": true,
      "motor_id": 2,
      "accel_val": 2000,
      "base_duration_us": 230768
    },
    {
      "id": "M_2581",
      "pitch": 51,
      "t_note_us": 233096801,
      "t_trigger_us": 232960838,
      "is_ai": false,
      "track_id": 0,
      "velocity": 0,
      "is_motor": true,
      "motor_id": 0,
      "accel_val": 2000,
      "base_duration_us": 115384
    },
    {
      "id": "M_2582",
      "pitch": 63,
      "t_note_us": 233212185,
      "t_trigger_us": 233076222,
      "is_ai": false,
      "track_id": 0,
      "velocity": 0,
      "is_motor": true,
      "motor_id": 1,
      "accel_val": 2000,
      "base_duration_us": 115384
    },
    {
      "id": "M_2589",
      "pitch": 103,
      "t_note_us": 233327569,
      "t_trigger_us": 233191606,
      "is_ai": true,
      "track_id": 14,
      "velocity": 0,
      "is_motor": false,
      "motor_id": 0,
      "accel_val": 2000,
      "base_duration_us": 461538
    },
    {
      "id": "M_2585",
      "pitch": 63,
      "t_note_us": 233327569,
      "t_trigger_us": 233191606,
      "is_ai": false,
      "track_id": 0,
      "velocity": 0,
      "is_motor": true,
      "motor_id": 1,
      "accel_val": 2000,
      "base_duration_us": 230769
    },
    {
      "id": "M_2586",
      "pitch": 59,
      "t_note_us": 233327569,
      "t_trigger_us": 233191606,
      "is_ai": false,
      "track_id": 0,
      "velocity": 0,
      "is_motor": true,
      "motor_id": 0,
      "accel_val": 2000,
      "base_duration_us": 230769
    },
    {
      "id": "M_2588",
      "pitch": 67,
      "t_note_us": 233327569,
      "t_trigger_us": 233191606,
      "is_ai": false,
      "track_id": 0,
      "velocity": 0,
      "is_motor": true,
      "motor_id": 2,
      "accel_val": 2000,
      "base_duration_us": 461538
    },
    {
      "id": "M_2587",
      "pitch": 52,
      "t_note_us": 233558338,
      "t_trigger_us": 233422375,
      "is_ai": false,
      "track_id": 0,
      "velocity": 0,
      "is_motor": true,
      "motor_id": 0,
      "accel_val": 2000,
      "base_duration_us": 230769
    },
    {
      "id": "M_2592",
      "pitch": 95,
      "t_note_us": 233789107,
      "t_trigger_us": 233653144,
      "is_ai": true,
      "track_id": 9,
      "velocity": 0,
      "is_motor": false,
      "motor_id": 0,
      "accel_val": 2000,
      "base_duration_us": 230768
    },
    {
      "id": "M_2590",
      "pitch": 64,
      "t_note_us": 233789107,
      "t_trigger_us": 233653144,
      "is_ai": false,
      "track_id": 0,
      "velocity": 0,
      "is_motor": true,
      "motor_id": 1,
      "accel_val": 2000,
      "base_duration_us": 115384
    },
    {
      "id": "M_2591",
      "pitch": 59,
      "t_note_us": 233789107,
      "t_trigger_us": 233653144,
      "is_ai": false,
      "track_id": 0,
      "velocity": 0,
      "is_motor": true,
      "motor_id": 0,
      "accel_val": 2000,
      "base_duration_us": 115384
    },
    {
      "id": "M_2593",
      "pitch": 71,
      "t_note_us": 233789107,
      "t_trigger_us": 233653144,
      "is_ai": false,
      "track_id": 0,
      "velocity": 0,
      "is_motor": true,
      "motor_id": 2,
      "accel_val": 2000,
      "base_duration_us": 230768
    },
    {
      "id": "M_2594",
      "pitch": 52,
      "t_note_us": 233904491,
      "t_trigger_us": 233768528,
      "is_ai": false,
      "track_id": 0,
      "velocity": 0,
      "is_motor": true,
      "motor_id": 0,
      "accel_val": 2000,
      "base_duration_us": 230768
    },
    {
      "id": "M_2596",
      "pitch": 69,
      "t_note_us": 234019875,
      "t_trigger_us": 233883912,
      "is_ai": false,
      "track_id": 0,
      "velocity": 0,
      "is_motor": true,
      "motor_id": 1,
      "accel_val": 2000,
      "base_duration_us": 230768
    },
    {
      "id": "M_2597",
      "pitch": 69,
      "t_note_us": 234019875,
      "t_trigger_us": 233883912,
      "is_ai": false,
      "track_id": 0,
      "velocity": 0,
      "is_motor": true,
      "motor_id": 2,
      "accel_val": 2000,
      "base_duration_us": 230768
    },
    {
      "id": "M_2595",
      "pitch": 52,
      "t_note_us": 234135259,
      "t_trigger_us": 233999296,
      "is_ai": false,
      "track_id": 0,
      "velocity": 0,
      "is_motor": true,
      "motor_id": 0,
      "accel_val": 2000,
      "base_duration_us": 115384
    },
    {
      "id": "M_2598",
      "pitch": 64,
      "t_note_us": 234250643,
      "t_trigger_us": 234114680,
      "is_ai": false,
      "track_id": 0,
      "velocity": 0,
      "is_motor": true,
      "motor_id": 1,
      "accel_val": 2000,
      "base_duration_us": 115384
    },
    {
      "id": "M_2599",
      "pitch": 59,
      "t_note_us": 234250643,
      "t_trigger_us": 234114680,
      "is_ai": false,
      "track_id": 0,
      "velocity": 0,
      "is_motor": true,
      "motor_id": 0,
      "accel_val": 2000,
      "base_duration_us": 115384
    },
    {
      "id": "M_2601",
      "pitch": 67,
      "t_note_us": 234250643,
      "t_trigger_us": 234114680,
      "is_ai": false,
      "track_id": 0,
      "velocity": 0,
      "is_motor": true,
      "motor_id": 2,
      "accel_val": 2000,
      "base_duration_us": 230768
    },
    {
      "id": "M_2602",
      "pitch": 67,
      "t_note_us": 234250643,
      "t_trigger_us": 234114680,
      "is_ai": false,
      "track_id": 0,
      "velocity": 0,
      "is_motor": true,
      "motor_id": 3,
      "accel_val": 2000,
      "base_duration_us": 230768
    },
    {
      "id": "M_2600",
      "pitch": 52,
      "t_note_us": 234366027,
      "t_trigger_us": 234230064,
      "is_ai": false,
      "track_id": 0,
      "velocity": 0,
      "is_motor": true,
      "motor_id": 0,
      "accel_val": 2000,
      "base_duration_us": 115384
    },
    {
      "id": "M_2603",
      "pitch": 48,
      "t_note_us": 234481411,
      "t_trigger_us": 234345448,
      "is_ai": false,
      "track_id": 0,
      "velocity": 0,
      "is_motor": true,
      "motor_id": 0,
      "accel_val": 2000,
      "base_duration_us": 230769
    },
    {
      "id": "M_2604",
      "pitch": 60,
      "t_note_us": 234481411,
      "t_trigger_us": 234345448,
      "is_ai": false,
      "track_id": 0,
      "velocity": 0,
      "is_motor": true,
      "motor_id": 1,
      "accel_val": 2000,
      "base_duration_us": 230769
    },
    {
      "id": "M_2605",
      "pitch": 76,
      "t_note_us": 234712180,
      "t_trigger_us": 234576217,
      "is_ai": false,
      "track_id": 0,
      "velocity": 0,
      "is_motor": true,
      "motor_id": 2,
      "accel_val": 2000,
      "base_duration_us": 230769
    },
    {
      "id": "M_2606",
      "pitch": 76,
      "t_note_us": 234712180,
      "t_trigger_us": 234576217,
      "is_ai": false,
      "track_id": 0,
      "velocity": 0,
      "is_motor": true,
      "motor_id": 1,
      "accel_val": 2000,
      "base_duration_us": 230769
    },
    {
      "id": "M_2607",
      "pitch": 60,
      "t_note_us": 234712180,
      "t_trigger_us": 234576217,
      "is_ai": false,
      "track_id": 0,
      "velocity": 0,
      "is_motor": true,
      "motor_id": 0,
      "accel_val": 2000,
      "base_duration_us": 230769
    },
    {
      "id": "M_2608",
      "pitch": 67,
      "t_note_us": 234942949,
      "t_trigger_us": 234806986,
      "is_ai": false,
      "track_id": 0,
      "velocity": 0,
      "is_motor": true,
      "motor_id": 1,
      "accel_val": 2000,
      "base_duration_us": 230769
    },
    {
      "id": "M_2609",
      "pitch": 67,
      "t_note_us": 234942949,
      "t_trigger_us": 234806986,
      "is_ai": false,
      "track_id": 0,
      "velocity": 0,
      "is_motor": true,
      "motor_id": 2,
      "accel_val": 2000,
      "base_duration_us": 230769
    },
    {
      "id": "M_2610",
      "pitch": 64,
      "t_note_us": 234942949,
      "t_trigger_us": 234806986,
      "is_ai": false,
      "track_id": 0,
      "velocity": 0,
      "is_motor": true,
      "motor_id": 0,
      "accel_val": 2000,
      "base_duration_us": 230769
    },
    {
      "id": "M_2611",
      "pitch": 67,
      "t_note_us": 234942949,
      "t_trigger_us": 234806986,
      "is_ai": false,
      "track_id": 0,
      "velocity": 0,
      "is_motor": true,
      "motor_id": 3,
      "accel_val": 2000,
      "base_duration_us": 230769
    },
    {
      "id": "M_2613",
      "pitch": 96,
      "t_note_us": 235173718,
      "t_trigger_us": 235037755,
      "is_ai": true,
      "track_id": 10,
      "velocity": 0,
      "is_motor": false,
      "motor_id": 0,
      "accel_val": 2000,
      "base_duration_us": 230769
    },
    {
      "id": "M_2612",
      "pitch": 72,
      "t_note_us": 235173718,
      "t_trigger_us": 235037755,
      "is_ai": false,
      "track_id": 0,
      "velocity": 0,
      "is_motor": true,
      "motor_id": 1,
      "accel_val": 2000,
      "base_duration_us": 230769
    },
    {
      "id": "M_2614",
      "pitch": 60,
      "t_note_us": 235173718,
      "t_trigger_us": 235037755,
      "is_ai": false,
      "track_id": 0,
      "velocity": 0,
      "is_motor": true,
      "motor_id": 0,
      "accel_val": 2000,
      "base_duration_us": 230769
    },
    {
      "id": "M_2616",
      "pitch": 95,
      "t_note_us": 235404487,
      "t_trigger_us": 235268524,
      "is_ai": true,
      "track_id": 9,
      "velocity": 0,
      "is_motor": false,
      "motor_id": 0,
      "accel_val": 2000,
      "base_duration_us": 230769
    },
    {
      "id": "M_2615",
      "pitch": 50,
      "t_note_us": 235404487,
      "t_trigger_us": 235268524,
      "is_ai": false,
      "track_id": 0,
      "velocity": 0,
      "is_motor": true,
      "motor_id": 0,
      "accel_val": 2000,
      "base_duration_us": 230769
    },
    {
      "id": "M_2617",
      "pitch": 71,
      "t_note_us": 235404487,
      "t_trigger_us": 235268524,
      "is_ai": false,
      "track_id": 0,
      "velocity": 0,
      "is_motor": true,
      "motor_id": 1,
      "accel_val": 2000,
      "base_duration_us": 230769
    },
    {
      "id": "M_2618",
      "pitch": 62,
      "t_note_us": 235635256,
      "t_trigger_us": 235499293,
      "is_ai": false,
      "track_id": 0,
      "velocity": 0,
      "is_motor": true,
      "motor_id": 1,
      "accel_val": 2000,
      "base_duration_us": 115384
    },
    {
      "id": "M_2619",
      "pitch": 66,
      "t_note_us": 235635256,
      "t_trigger_us": 235499293,
      "is_ai": false,
      "track_id": 0,
      "velocity": 0,
      "is_motor": true,
      "motor_id": 2,
      "accel_val": 2000,
      "base_duration_us": 115384
    },
    {
      "id": "M_2620",
      "pitch": 67,
      "t_note_us": 235635256,
      "t_trigger_us": 235499293,
      "is_ai": false,
      "track_id": 0,
      "velocity": 0,
      "is_motor": true,
      "motor_id": 0,
      "accel_val": 2000,
      "base_duration_us": 230768
    },
    {
      "id": "M_2621",
      "pitch": 67,
      "t_note_us": 235635256,
      "t_trigger_us": 235499293,
      "is_ai": false,
      "track_id": 0,
      "velocity": 0,
      "is_motor": true,
      "motor_id": 3,
      "accel_val": 2000,
      "base_duration_us": 230768
    },
    {
      "id": "M_2622",
      "pitch": 50,
      "t_note_us": 235750640,
      "t_trigger_us": 235614677,
      "is_ai": false,
      "track_id": 0,
      "velocity": 0,
      "is_motor": true,
      "motor_id": 1,
      "accel_val": 2000,
      "base_duration_us": 230768
    },
    {
      "id": "M_2624",
      "pitch": 76,
      "t_note_us": 235866024,
      "t_trigger_us": 235730061,
      "is_ai": false,
      "track_id": 0,
      "velocity": 0,
      "is_motor": true,
      "motor_id": 2,
      "accel_val": 2000,
      "base_duration_us": 230768
    },
    {
      "id": "M_2625",
      "pitch": 76,
      "t_note_us": 235866024,
      "t_trigger_us": 235730061,
      "is_ai": false,
      "track_id": 0,
      "velocity": 0,
      "is_motor": true,
      "motor_id": 3,
      "accel_val": 2000,
      "base_duration_us": 230768
    },
    {
      "id": "M_2623",
      "pitch": 50,
      "t_note_us": 235981408,
      "t_trigger_us": 235845445,
      "is_ai": false,
      "track_id": 0,
      "velocity": 0,
      "is_motor": true,
      "motor_id": 0,
      "accel_val": 2000,
      "base_duration_us": 115384
    },
    {
      "id": "M_2626",
      "pitch": 66,
      "t_note_us": 236096792,
      "t_trigger_us": 235960829,
      "is_ai": false,
      "track_id": 0,
      "velocity": 0,
      "is_motor": true,
      "motor_id": 1,
      "accel_val": 2000,
      "base_duration_us": 115384
    },
    {
      "id": "M_2627",
      "pitch": 62,
      "t_note_us": 236096792,
      "t_trigger_us": 235960829,
      "is_ai": false,
      "track_id": 0,
      "velocity": 0,
      "is_motor": true,
      "motor_id": 0,
      "accel_val": 2000,
      "base_duration_us": 115384
    },
    {
      "id": "M_2629",
      "pitch": 67,
      "t_note_us": 236096792,
      "t_trigger_us": 235960829,
      "is_ai": false,
      "track_id": 0,
      "velocity": 0,
      "is_motor": true,
      "motor_id": 2,
      "accel_val": 2000,
      "base_duration_us": 230768
    },
    {
      "id": "M_2630",
      "pitch": 67,
      "t_note_us": 236096792,
      "t_trigger_us": 235960829,
      "is_ai": false,
      "track_id": 0,
      "velocity": 0,
      "is_motor": true,
      "motor_id": 3,
      "accel_val": 2000,
      "base_duration_us": 230768
    },
    {
      "id": "M_2628",
      "pitch": 50,
      "t_note_us": 236212176,
      "t_trigger_us": 236076213,
      "is_ai": false,
      "track_id": 0,
      "velocity": 0,
      "is_motor": true,
      "motor_id": 0,
      "accel_val": 2000,
      "base_duration_us": 115384
    },
    {
      "id": "M_2631",
      "pitch": 55,
      "t_note_us": 236327560,
      "t_trigger_us": 236191597,
      "is_ai": false,
      "track_id": 0,
      "velocity": 0,
      "is_motor": true,
      "motor_id": 0,
      "accel_val": 2000,
      "base_duration_us": 230769
    },
    {
      "id": "M_2632",
      "pitch": 62,
      "t_note_us": 236558329,
      "t_trigger_us": 236422366,
      "is_ai": false,
      "track_id": 0,
      "velocity": 0,
      "is_motor": true,
      "motor_id": 1,
      "accel_val": 2000,
      "base_duration_us": 230769
    },
    {
      "id": "M_2633",
      "pitch": 67,
      "t_note_us": 236558329,
      "t_trigger_us": 236422366,
      "is_ai": false,
      "track_id": 0,
      "velocity": 0,
      "is_motor": true,
      "motor_id": 2,
      "accel_val": 2000,
      "base_duration_us": 230769
    },
    {
      "id": "M_2634",
      "pitch": 55,
      "t_note_us": 236789098,
      "t_trigger_us": 236653135,
      "is_ai": false,
      "track_id": 0,
      "velocity": 0,
      "is_motor": true,
      "motor_id": 0,
      "accel_val": 2000,
      "base_duration_us": 230769
    },
    {
      "id": "M_2635",
      "pitch": 67,
      "t_note_us": 237019867,
      "t_trigger_us": 236883904,
      "is_ai": false,
      "track_id": 0,
      "velocity": 0,
      "is_motor": true,
      "motor_id": 1,
      "accel_val": 2000,
      "base_duration_us": 230769
    },
    {
      "id": "M_2636",
      "pitch": 62,
      "t_note_us": 237019867,
      "t_trigger_us": 236883904,
      "is_ai": false,
      "track_id": 0,
      "velocity": 0,
      "is_motor": true,
      "motor_id": 0,
      "accel_val": 2000,
      "base_duration_us": 230769
    },
    {
      "id": "M_2637",
      "pitch": 74,
      "t_note_us": 237019867,
      "t_trigger_us": 236883904,
      "is_ai": false,
      "track_id": 0,
      "velocity": 0,
      "is_motor": true,
      "motor_id": 2,
      "accel_val": 2000,
      "base_duration_us": 230769
    },
    {
      "id": "M_2638",
      "pitch": 74,
      "t_note_us": 237019867,
      "t_trigger_us": 236883904,
      "is_ai": false,
      "track_id": 0,
      "velocity": 0,
      "is_motor": true,
      "motor_id": 3,
      "accel_val": 2000,
      "base_duration_us": 230769
    },
    {
      "id": "M_2639",
      "pitch": 55,
      "t_note_us": 237250636,
      "t_trigger_us": 237114673,
      "is_ai": false,
      "track_id": 0,
      "velocity": 0,
      "is_motor": true,
      "motor_id": 0,
      "accel_val": 2000,
      "base_duration_us": 230769
    },
    {
      "id": "M_2640",
      "pitch": 76,
      "t_note_us": 237250636,
      "t_trigger_us": 237114673,
      "is_ai": false,
      "track_id": 0,
      "velocity": 0,
      "is_motor": true,
      "motor_id": 2,
      "accel_val": 2000,
      "base_duration_us": 230769
    },
    {
      "id": "M_2641",
      "pitch": 76,
      "t_note_us": 237250636,
      "t_trigger_us": 237114673,
      "is_ai": false,
      "track_id": 0,
      "velocity": 0,
      "is_motor": true,
      "motor_id": 1,
      "accel_val": 2000,
      "base_duration_us": 230769
    },
    {
      "id": "M_2645",
      "pitch": 90,
      "t_note_us": 237481405,
      "t_trigger_us": 237345442,
      "is_ai": true,
      "track_id": 0,
      "velocity": 0,
      "is_motor": true,
      "motor_id": 3,
      "accel_val": 2000,
      "base_duration_us": 230768
    },
    {
      "id": "M_2642",
      "pitch": 67,
      "t_note_us": 237481405,
      "t_trigger_us": 237345442,
      "is_ai": false,
      "track_id": 0,
      "velocity": 0,
      "is_motor": true,
      "motor_id": 1,
      "accel_val": 2000,
      "base_duration_us": 115384
    },
    {
      "id": "M_2643",
      "pitch": 62,
      "t_note_us": 237481405,
      "t_trigger_us": 237345442,
      "is_ai": false,
      "track_id": 0,
      "velocity": 0,
      "is_motor": true,
      "motor_id": 0,
      "accel_val": 2000,
      "base_duration_us": 115384
    },
    {
      "id": "M_2644",
      "pitch": 78,
      "t_note_us": 237481405,
      "t_trigger_us": 237345442,
      "is_ai": false,
      "track_id": 0,
      "velocity": 0,
      "is_motor": true,
      "motor_id": 2,
      "accel_val": 2000,
      "base_duration_us": 230768
    },
    {
      "id": "M_2646",
      "pitch": 55,
      "t_note_us": 237596789,
      "t_trigger_us": 237460826,
      "is_ai": false,
      "track_id": 0,
      "velocity": 0,
      "is_motor": true,
      "motor_id": 0,
      "accel_val": 2000,
      "base_duration_us": 230768
    },
    {
      "id": "M_2648",
      "pitch": 67,
      "t_note_us": 237712173,
      "t_trigger_us": 237576210,
      "is_ai": false,
      "track_id": 0,
      "velocity": 0,
      "is_motor": true,
      "motor_id": 1,
      "accel_val": 2000,
      "base_duration_us": 230768
    },
    {
      "id": "M_2649",
      "pitch": 67,
      "t_note_us": 237712173,
      "t_trigger_us": 237576210,
      "is_ai": false,
      "track_id": 0,
      "velocity": 0,
      "is_motor": true,
      "motor_id": 2,
      "accel_val": 2000,
      "base_duration_us": 230768
    },
    {
      "id": "M_2647",
      "pitch": 55,
      "t_note_us": 237827557,
      "t_trigger_us": 237691594,
      "is_ai": false,
      "track_id": 0,
      "velocity": 0,
      "is_motor": true,
      "motor_id": 0,
      "accel_val": 2000,
      "base_duration_us": 115384
    },
    {
      "id": "M_2650",
      "pitch": 98,
      "t_note_us": 237942941,
      "t_trigger_us": 237806978,
      "is_ai": true,
      "track_id": 11,
      "velocity": 0,
      "is_motor": false,
      "motor_id": 0,
      "accel_val": 2000,
      "base_duration_us": 230769
    },
    {
      "id": "M_2651",
      "pitch": 62,
      "t_note_us": 237942941,
      "t_trigger_us": 237806978,
      "is_ai": false,
      "track_id": 0,
      "velocity": 0,
      "is_motor": true,
      "motor_id": 1,
      "accel_val": 2000,
      "base_duration_us": 230769
    },
    {
      "id": "M_2652",
      "pitch": 67,
      "t_note_us": 237942941,
      "t_trigger_us": 237806978,
      "is_ai": false,
      "track_id": 0,
      "velocity": 0,
      "is_motor": true,
      "motor_id": 2,
      "accel_val": 2000,
      "base_duration_us": 230769
    },
    {
      "id": "M_2653",
      "pitch": 74,
      "t_note_us": 237942941,
      "t_trigger_us": 237806978,
      "is_ai": false,
      "track_id": 0,
      "velocity": 0,
      "is_motor": true,
      "motor_id": 0,
      "accel_val": 2000,
      "base_duration_us": 230769
    },
    {
      "id": "M_2655",
      "pitch": 96,
      "t_note_us": 238173710,
      "t_trigger_us": 238037747,
      "is_ai": true,
      "track_id": 10,
      "velocity": 0,
      "is_motor": false,
      "motor_id": 0,
      "accel_val": 2000,
      "base_duration_us": 230769
    },
    {
      "id": "M_2654",
      "pitch": 60,
      "t_note_us": 238173710,
      "t_trigger_us": 238037747,
      "is_ai": false,
      "track_id": 0,
      "velocity": 0,
      "is_motor": true,
      "motor_id": 1,
      "accel_val": 2000,
      "base_duration_us": 230769
    },
    {
      "id": "M_2656",
      "pitch": 48,
      "t_note_us": 238173710,
      "t_trigger_us": 238037747,
      "is_ai": false,
      "track_id": 0,
      "velocity": 0,
      "is_motor": true,
      "motor_id": 0,
      "accel_val": 2000,
      "base_duration_us": 230769
    },
    {
      "id": "M_2657",
      "pitch": 72,
      "t_note_us": 238173710,
      "t_trigger_us": 238037747,
      "is_ai": false,
      "track_id": 0,
      "velocity": 0,
      "is_motor": true,
      "motor_id": 2,
      "accel_val": 2000,
      "base_duration_us": 230769
    },
    {
      "id": "M_2659",
      "pitch": 95,
      "t_note_us": 238404479,
      "t_trigger_us": 238268516,
      "is_ai": true,
      "track_id": 9,
      "velocity": 0,
      "is_motor": false,
      "motor_id": 0,
      "accel_val": 2000,
      "base_duration_us": 230769
    },
    {
      "id": "M_2658",
      "pitch": 71,
      "t_note_us": 238404479,
      "t_trigger_us": 238268516,
      "is_ai": false,
      "track_id": 0,
      "velocity": 0,
      "is_motor": true,
      "motor_id": 1,
      "accel_val": 2000,
      "base_duration_us": 230769
    },
    {
      "id": "M_2660",
      "pitch": 60,
      "t_note_us": 238404479,
      "t_trigger_us": 238268516,
      "is_ai": false,
      "track_id": 0,
      "velocity": 0,
      "is_motor": true,
      "motor_id": 0,
      "accel_val": 2000,
      "base_duration_us": 230769
    },
    {
      "id": "M_2661",
      "pitch": 93,
      "t_note_us": 238635248,
      "t_trigger_us": 238499285,
      "is_ai": true,
      "track_id": 8,
      "velocity": 0,
      "is_motor": false,
      "motor_id": 0,
      "accel_val": 2000,
      "base_duration_us": 230769
    },
    {
      "id": "M_2662",
      "pitch": 69,
      "t_note_us": 238635248,
      "t_trigger_us": 238499285,
      "is_ai": false,
      "track_id": 0,
      "velocity": 0,
      "is_motor": true,
      "motor_id": 1,
      "accel_val": 2000,
      "base_duration_us": 230769
    },
    {
      "id": "M_2663",
      "pitch": 64,
      "t_note_us": 238635248,
      "t_trigger_us": 238499285,
      "is_ai": false,
      "track_id": 0,
      "velocity": 0,
      "is_motor": true,
      "motor_id": 0,
      "accel_val": 2000,
      "base_duration_us": 230769
    },
    {
      "id": "M_2664",
      "pitch": 67,
      "t_note_us": 238635248,
      "t_trigger_us": 238499285,
      "is_ai": false,
      "track_id": 0,
      "velocity": 0,
      "is_motor": true,
      "motor_id": 2,
      "accel_val": 2000,
      "base_duration_us": 230769
    },
    {
      "id": "M_2665",
      "pitch": 67,
      "t_note_us": 238866017,
      "t_trigger_us": 238730054,
      "is_ai": false,
      "track_id": 0,
      "velocity": 0,
      "is_motor": true,
      "motor_id": 1,
      "accel_val": 2000,
      "base_duration_us": 230769
    },
    {
      "id": "M_2666",
      "pitch": 60,
      "t_note_us": 238866017,
      "t_trigger_us": 238730054,
      "is_ai": false,
      "track_id": 0,
      "velocity": 0,
      "is_motor": true,
      "motor_id": 0,
      "accel_val": 2000,
      "base_duration_us": 230769
    },
    {
      "id": "M_2667",
      "pitch": 67,
      "t_note_us": 238866017,
      "t_trigger_us": 238730054,
      "is_ai": false,
      "track_id": 0,
      "velocity": 0,
      "is_motor": true,
      "motor_id": 2,
      "accel_val": 2000,
      "base_duration_us": 230769
    },
    {
      "id": "M_2668",
      "pitch": 74,
      "t_note_us": 239096786,
      "t_trigger_us": 238960823,
      "is_ai": false,
      "track_id": 0,
      "velocity": 0,
      "is_motor": true,
      "motor_id": 1,
      "accel_val": 2000,
      "base_duration_us": 230769
    },
    {
      "id": "M_2669",
      "pitch": 74,
      "t_note_us": 239096786,
      "t_trigger_us": 238960823,
      "is_ai": false,
      "track_id": 0,
      "velocity": 0,
      "is_motor": true,
      "motor_id": 0,
      "accel_val": 2000,
      "base_duration_us": 230769
    },
    {
      "id": "M_2670",
      "pitch": 50,
      "t_note_us": 239096786,
      "t_trigger_us": 238960823,
      "is_ai": false,
      "track_id": 0,
      "velocity": 0,
      "is_motor": true,
      "motor_id": 2,
      "accel_val": 2000,
      "base_duration_us": 230769
    },
    {
      "id": "M_2671",
      "pitch": 62,
      "t_note_us": 239327555,
      "t_trigger_us": 239191592,
      "is_ai": false,
      "track_id": 0,
      "velocity": 0,
      "is_motor": true,
      "motor_id": 1,
      "accel_val": 2000,
      "base_duration_us": 115384
    },
    {
      "id": "M_2672",
      "pitch": 66,
      "t_note_us": 239327555,
      "t_trigger_us": 239191592,
      "is_ai": false,
      "track_id": 0,
      "velocity": 0,
      "is_motor": true,
      "motor_id": 2,
      "accel_val": 2000,
      "base_duration_us": 115384
    },
    {
      "id": "M_2673",
      "pitch": 67,
      "t_note_us": 239327555,
      "t_trigger_us": 239191592,
      "is_ai": false,
      "track_id": 0,
      "velocity": 0,
      "is_motor": true,
      "motor_id": 0,
      "accel_val": 2000,
      "base_duration_us": 230768
    },
    {
      "id": "M_2674",
      "pitch": 67,
      "t_note_us": 239327555,
      "t_trigger_us": 239191592,
      "is_ai": false,
      "track_id": 0,
      "velocity": 0,
      "is_motor": true,
      "motor_id": 3,
      "accel_val": 2000,
      "base_duration_us": 230768
    },
    {
      "id": "M_2675",
      "pitch": 50,
      "t_note_us": 239442939,
      "t_trigger_us": 239306976,
      "is_ai": false,
      "track_id": 0,
      "velocity": 0,
      "is_motor": true,
      "motor_id": 1,
      "accel_val": 2000,
      "base_duration_us": 230768
    },
    {
      "id": "M_2678",
      "pitch": 93,
      "t_note_us": 239558323,
      "t_trigger_us": 239422360,
      "is_ai": true,
      "track_id": 8,
      "velocity": 0,
      "is_motor": false,
      "motor_id": 0,
      "accel_val": 2000,
      "base_duration_us": 230768
    },
    {
      "id": "M_2677",
      "pitch": 69,
      "t_note_us": 239558323,
      "t_trigger_us": 239422360,
      "is_ai": false,
      "track_id": 0,
      "velocity": 0,
      "is_motor": true,
      "motor_id": 2,
      "accel_val": 2000,
      "base_duration_us": 230768
    },
    {
      "id": "M_2676",
      "pitch": 50,
      "t_note_us": 239673707,
      "t_trigger_us": 239537744,
      "is_ai": false,
      "track_id": 0,
      "velocity": 0,
      "is_motor": true,
      "motor_id": 0,
      "accel_val": 2000,
      "base_duration_us": 115384
    },
    {
      "id": "M_2679",
      "pitch": 62,
      "t_note_us": 239789091,
      "t_trigger_us": 239653128,
      "is_ai": false,
      "track_id": 0,
      "velocity": 0,
      "is_motor": true,
      "motor_id": 1,
      "accel_val": 2000,
      "base_duration_us": 115384
    },
    {
      "id": "M_2680",
      "pitch": 66,
      "t_note_us": 239789091,
      "t_trigger_us": 239653128,
      "is_ai": false,
      "track_id": 0,
      "velocity": 0,
      "is_motor": true,
      "motor_id": 2,
      "accel_val": 2000,
      "base_duration_us": 115384
    },
    {
      "id": "M_2682",
      "pitch": 67,
      "t_note_us": 239789091,
      "t_trigger_us": 239653128,
      "is_ai": false,
      "track_id": 0,
      "velocity": 0,
      "is_motor": true,
      "motor_id": 0,
      "accel_val": 2000,
      "base_duration_us": 230768
    },
    {
      "id": "M_2683",
      "pitch": 67,
      "t_note_us": 239789091,
      "t_trigger_us": 239653128,
      "is_ai": false,
      "track_id": 0,
      "velocity": 0,
      "is_motor": true,
      "motor_id": 3,
      "accel_val": 2000,
      "base_duration_us": 230768
    },
    {
      "id": "M_2681",
      "pitch": 50,
      "t_note_us": 239904475,
      "t_trigger_us": 239768512,
      "is_ai": false,
      "track_id": 0,
      "velocity": 0,
      "is_motor": true,
      "motor_id": 1,
      "accel_val": 2000,
      "base_duration_us": 115384
    },
    {
      "id": "M_2684",
      "pitch": 55,
      "t_note_us": 240019859,
      "t_trigger_us": 239883896,
      "is_ai": false,
      "track_id": 0,
      "velocity": 0,
      "is_motor": true,
      "motor_id": 0,
      "accel_val": 2000,
      "base_duration_us": 230769
    },
    {
      "id": "M_2685",
      "pitch": 67,
      "t_note_us": 240250628,
      "t_trigger_us": 240114665,
      "is_ai": false,
      "track_id": 0,
      "velocity": 0,
      "is_motor": true,
      "motor_id": 1,
      "accel_val": 2000,
      "base_duration_us": 230769
    },
    {
      "id": "M_2686",
      "pitch": 62,
      "t_note_us": 240250628,
      "t_trigger_us": 240114665,
      "is_ai": false,
      "track_id": 0,
      "velocity": 0,
      "is_motor": true,
      "motor_id": 0,
      "accel_val": 2000,
      "base_duration_us": 230769
    },
    {
      "id": "M_2689",
      "pitch": 95,
      "t_note_us": 240481397,
      "t_trigger_us": 240345434,
      "is_ai": true,
      "track_id": 9,
      "velocity": 0,
      "is_motor": false,
      "motor_id": 0,
      "accel_val": 2000,
      "base_duration_us": 230769
    },
    {
      "id": "M_2687",
      "pitch": 55,
      "t_note_us": 240481397,
      "t_trigger_us": 240345434,
      "is_ai": false,
      "track_id": 0,
      "velocity": 0,
      "is_motor": true,
      "motor_id": 0,
      "accel_val": 2000,
      "base_duration_us": 230769
    },
    {
      "id": "M_2688",
      "pitch": 71,
      "t_note_us": 240481397,
      "t_trigger_us": 240345434,
      "is_ai": false,
      "track_id": 0,
      "velocity": 0,
      "is_motor": true,
      "motor_id": 1,
      "accel_val": 2000,
      "base_duration_us": 230769
    },
    {
      "id": "M_2691",
      "pitch": 98,
      "t_note_us": 240712166,
      "t_trigger_us": 240576203,
      "is_ai": true,
      "track_id": 11,
      "velocity": 0,
      "is_motor": false,
      "motor_id": 0,
      "accel_val": 2000,
      "base_duration_us": 230769
    },
    {
      "id": "M_2690",
      "pitch": 62,
      "t_note_us": 240712166,
      "t_trigger_us": 240576203,
      "is_ai": false,
      "track_id": 0,
      "velocity": 0,
      "is_motor": true,
      "motor_id": 1,
      "accel_val": 2000,
      "base_duration_us": 230769
    },
    {
      "id": "M_2692",
      "pitch": 67,
      "t_note_us": 240712166,
      "t_trigger_us": 240576203,
      "is_ai": false,
      "track_id": 0,
      "velocity": 0,
      "is_motor": true,
      "motor_id": 2,
      "accel_val": 2000,
      "base_duration_us": 230769
    },
    {
      "id": "M_2693",
      "pitch": 74,
      "t_note_us": 240712166,
      "t_trigger_us": 240576203,
      "is_ai": false,
      "track_id": 0,
      "velocity": 0,
      "is_motor": true,
      "motor_id": 0,
      "accel_val": 2000,
      "base_duration_us": 230769
    },
    {
      "id": "M_2694",
      "pitch": 65,
      "t_note_us": 240942935,
      "t_trigger_us": 240806972,
      "is_ai": false,
      "track_id": 0,
      "velocity": 0,
      "is_motor": true,
      "motor_id": 1,
      "accel_val": 2000,
      "base_duration_us": 230769
    },
    {
      "id": "M_2695",
      "pitch": 76,
      "t_note_us": 240942935,
      "t_trigger_us": 240806972,
      "is_ai": false,
      "track_id": 0,
      "velocity": 0,
      "is_motor": true,
      "motor_id": 2,
      "accel_val": 2000,
      "base_duration_us": 230769
    },
    {
      "id": "M_2696",
      "pitch": 76,
      "t_note_us": 240942935,
      "t_trigger_us": 240806972,
      "is_ai": false,
      "track_id": 0,
      "velocity": 0,
      "is_motor": true,
      "motor_id": 3,
      "accel_val": 2000,
      "base_duration_us": 230769
    },
    {
      "id": "M_2697",
      "pitch": 53,
      "t_note_us": 240942935,
      "t_trigger_us": 240806972,
      "is_ai": false,
      "track_id": 0,
      "velocity": 0,
      "is_motor": true,
      "motor_id": 0,
      "accel_val": 2000,
      "base_duration_us": 230769
    },
    {
      "id": "M_2701",
      "pitch": 98,
      "t_note_us": 241173704,
      "t_trigger_us": 241037741,
      "is_ai": true,
      "track_id": 11,
      "velocity": 0,
      "is_motor": false,
      "motor_id": 0,
      "accel_val": 2000,
      "base_duration_us": 230769
    },
    {
      "id": "M_2698",
      "pitch": 53,
      "t_note_us": 241173704,
      "t_trigger_us": 241037741,
      "is_ai": false,
      "track_id": 0,
      "velocity": 0,
      "is_motor": true,
      "motor_id": 0,
      "accel_val": 2000,
      "base_duration_us": 230769
    },
    {
      "id": "M_2699",
      "pitch": 65,
      "t_note_us": 241173704,
      "t_trigger_us": 241037741,
      "is_ai": false,
      "track_id": 0,
      "velocity": 0,
      "is_motor": true,
      "motor_id": 1,
      "accel_val": 2000,
      "base_duration_us": 230769
    },
    {
      "id": "M_2700",
      "pitch": 74,
      "t_note_us": 241173704,
      "t_trigger_us": 241037741,
      "is_ai": false,
      "track_id": 0,
      "velocity": 0,
      "is_motor": true,
      "motor_id": 2,
      "accel_val": 2000,
      "base_duration_us": 230769
    },
    {
      "id": "M_2704",
      "pitch": 95,
      "t_note_us": 241404473,
      "t_trigger_us": 241268510,
      "is_ai": true,
      "track_id": 9,
      "velocity": 0,
      "is_motor": false,
      "motor_id": 0,
      "accel_val": 2000,
      "base_duration_us": 230769
    },
    {
      "id": "M_2702",
      "pitch": 71,
      "t_note_us": 241404473,
      "t_trigger_us": 241268510,
      "is_ai": false,
      "track_id": 0,
      "velocity": 0,
      "is_motor": true,
      "motor_id": 1,
      "accel_val": 2000,
      "base_duration_us": 230769
    },
    {
      "id": "M_2703",
      "pitch": 67,
      "t_note_us": 241404473,
      "t_trigger_us": 241268510,
      "is_ai": false,
      "track_id": 0,
      "velocity": 0,
      "is_motor": true,
      "motor_id": 2,
      "accel_val": 2000,
      "base_duration_us": 230769
    },
    {
      "id": "M_2705",
      "pitch": 55,
      "t_note_us": 241404473,
      "t_trigger_us": 241268510,
      "is_ai": false,
      "track_id": 0,
      "velocity": 0,
      "is_motor": true,
      "motor_id": 0,
      "accel_val": 2000,
      "base_duration_us": 230769
    },
    {
      "id": "M_2706",
      "pitch": 69,
      "t_note_us": 241635242,
      "t_trigger_us": 241499279,
      "is_ai": false,
      "track_id": 0,
      "velocity": 0,
      "is_motor": true,
      "motor_id": 1,
      "accel_val": 2000,
      "base_duration_us": 230769
    },
    {
      "id": "M_2707",
      "pitch": 69,
      "t_note_us": 241635242,
      "t_trigger_us": 241499279,
      "is_ai": false,
      "track_id": 0,
      "velocity": 0,
      "is_motor": true,
      "motor_id": 2,
      "accel_val": 2000,
      "base_duration_us": 230769
    },
    {
      "id": "M_2708",
      "pitch": 55,
      "t_note_us": 241635242,
      "t_trigger_us": 241499279,
      "is_ai": false,
      "track_id": 0,
      "velocity": 0,
      "is_motor": true,
      "motor_id": 0,
      "accel_val": 2000,
      "base_duration_us": 230769
    },
    {
      "id": "M_2709",
      "pitch": 67,
      "t_note_us": 241635242,
      "t_trigger_us": 241499279,
      "is_ai": false,
      "track_id": 0,
      "velocity": 0,
      "is_motor": true,
      "motor_id": 3,
      "accel_val": 2000,
      "base_duration_us": 230769
    },
    {
      "id": "M_2710",
      "pitch": 67,
      "t_note_us": 241866011,
      "t_trigger_us": 241730048,
      "is_ai": false,
      "track_id": 0,
      "velocity": 0,
      "is_motor": true,
      "motor_id": 1,
      "accel_val": 2000,
      "base_duration_us": 230769
    },
    {
      "id": "M_2711",
      "pitch": 60,
      "t_note_us": 241866011,
      "t_trigger_us": 241730048,
      "is_ai": false,
      "track_id": 0,
      "velocity": 0,
      "is_motor": true,
      "motor_id": 0,
      "accel_val": 2000,
      "base_duration_us": 230769
    },
    {
      "id": "M_2712",
      "pitch": 48,
      "t_note_us": 241866011,
      "t_trigger_us": 241730048,
      "is_ai": false,
      "track_id": 0,
      "velocity": 0,
      "is_motor": true,
      "motor_id": 2,
      "accel_val": 2000,
      "base_duration_us": 230769
    },
    {
      "id": "M_2713",
      "pitch": 67,
      "t_note_us": 241866011,
      "t_trigger_us": 241730048,
      "is_ai": false,
      "track_id": 0,
      "velocity": 0,
      "is_motor": true,
      "motor_id": 3,
      "accel_val": 2000,
      "base_duration_us": 230769
    },
    {
      "id": "M_2714",
      "pitch": 76,
      "t_note_us": 242096780,
      "t_trigger_us": 241960817,
      "is_ai": false,
      "track_id": 0,
      "velocity": 0,
      "is_motor": true,
      "motor_id": 2,
      "accel_val": 2000,
      "base_duration_us": 115384
    },
    {
      "id": "M_2715",
      "pitch": 76,
      "t_note_us": 242096780,
      "t_trigger_us": 241960817,
      "is_ai": false,
      "track_id": 0,
      "velocity": 0,
      "is_motor": true,
      "motor_id": 1,
      "accel_val": 2000,
      "base_duration_us": 115384
    },
    {
      "id": "M_2716",
      "pitch": 60,
      "t_note_us": 242096780,
      "t_trigger_us": 241960817,
      "is_ai": false,
      "track_id": 0,
      "velocity": 0,
      "is_motor": true,
      "motor_id": 0,
      "accel_val": 2000,
      "base_duration_us": 230768
    },
    {
      "id": "M_2719",
      "pitch": 67,
      "t_note_us": 242212164,
      "t_trigger_us": 242076201,
      "is_ai": false,
      "track_id": 0,
      "velocity": 0,
      "is_motor": true,
      "motor_id": 1,
      "accel_val": 2000,
      "base_duration_us": 230768
    },
    {
      "id": "M_2720",
      "pitch": 67,
      "t_note_us": 242212164,
      "t_trigger_us": 242076201,
      "is_ai": false,
      "track_id": 0,
      "velocity": 0,
      "is_motor": true,
      "motor_id": 2,
      "accel_val": 2000,
      "base_duration_us": 230768
    },
    {
      "id": "M_2717",
      "pitch": 60,
      "t_note_us": 242327548,
      "t_trigger_us": 242191585,
      "is_ai": false,
      "track_id": 0,
      "velocity": 0,
      "is_motor": true,
      "motor_id": 0,
      "accel_val": 2000,
      "base_duration_us": 115384
    },
    {
      "id": "M_2718",
      "pitch": 64,
      "t_note_us": 242327548,
      "t_trigger_us": 242191585,
      "is_ai": false,
      "track_id": 0,
      "velocity": 0,
      "is_motor": true,
      "motor_id": 3,
      "accel_val": 2000,
      "base_duration_us": 115384
    },
    {
      "id": "M_2723",
      "pitch": 91,
      "t_note_us": 242442932,
      "t_trigger_us": 242306969,
      "is_ai": true,
      "track_id": 7,
      "velocity": 0,
      "is_motor": false,
      "motor_id": 0,
      "accel_val": 2000,
      "base_duration_us": 230768
    },
    {
      "id": "M_2724",
      "pitch": 100,
      "t_note_us": 242442932,
      "t_trigger_us": 242306969,
      "is_ai": true,
      "track_id": 12,
      "velocity": 0,
      "is_motor": false,
      "motor_id": 0,
      "accel_val": 2000,
      "base_duration_us": 230768
    },
    {
      "id": "M_2725",
      "pitch": 88,
      "t_note_us": 242442932,
      "t_trigger_us": 242306969,
      "is_ai": true,
      "track_id": 5,
      "velocity": 0,
      "is_motor": false,
      "motor_id": 0,
      "accel_val": 2000,
      "base_duration_us": 230768
    },
    {
      "id": "M_2721",
      "pitch": 55,
      "t_note_us": 242442932,
      "t_trigger_us": 242306969,
      "is_ai": false,
      "track_id": 0,
      "velocity": 0,
      "is_motor": true,
      "motor_id": 0,
      "accel_val": 2000,
      "base_duration_us": 115384
    },
    {
      "id": "M_2722",
      "pitch": 48,
      "t_note_us": 242558316,
      "t_trigger_us": 242422353,
      "is_ai": false,
      "track_id": 0,
      "velocity": 0,
      "is_motor": true,
      "motor_id": 0,
      "accel_val": 2000,
      "base_duration_us": 115384
    },
    {
      "id": "M_2727",
      "pitch": 90,
      "t_note_us": 242673700,
      "t_trigger_us": 242537737,
      "is_ai": true,
      "track_id": 0,
      "velocity": 0,
      "is_motor": true,
      "motor_id": 3,
      "accel_val": 2000,
      "base_duration_us": 346153
    },
    {
      "id": "M_2730",
      "pitch": 98,
      "t_note_us": 242673700,
      "t_trigger_us": 242537737,
      "is_ai": true,
      "track_id": 11,
      "velocity": 0,
      "is_motor": false,
      "motor_id": 0,
      "accel_val": 2000,
      "base_duration_us": 346153
    },
    {
      "id": "M_2726",
      "pitch": 62,
      "t_note_us": 242673700,
      "t_trigger_us": 242537737,
      "is_ai": false,
      "track_id": 0,
      "velocity": 0,
      "is_motor": true,
      "motor_id": 1,
      "accel_val": 2000,
      "base_duration_us": 346153
    },
    {
      "id": "M_2728",
      "pitch": 50,
      "t_note_us": 242673700,
      "t_trigger_us": 242537737,
      "is_ai": false,
      "track_id": 0,
      "velocity": 0,
      "is_motor": true,
      "motor_id": 0,
      "accel_val": 2000,
      "base_duration_us": 346153
    },
    {
      "id": "M_2729",
      "pitch": 74,
      "t_note_us": 242673700,
      "t_trigger_us": 242537737,
      "is_ai": false,
      "track_id": 0,
      "velocity": 0,
      "is_motor": true,
      "motor_id": 2,
      "accel_val": 2000,
      "base_duration_us": 346153
    },
    {
      "id": "M_2733",
      "pitch": 95,
      "t_note_us": 243019853,
      "t_trigger_us": 242883890,
      "is_ai": true,
      "track_id": 9,
      "velocity": 0,
      "is_motor": false,
      "motor_id": 0,
      "accel_val": 2000,
      "base_duration_us": 230769
    },
    {
      "id": "M_2731",
      "pitch": 50,
      "t_note_us": 243019853,
      "t_trigger_us": 242883890,
      "is_ai": false,
      "track_id": 0,
      "velocity": 0,
      "is_motor": true,
      "motor_id": 0,
      "accel_val": 2000,
      "base_duration_us": 230769
    },
    {
      "id": "M_2732",
      "pitch": 71,
      "t_note_us": 243019853,
      "t_trigger_us": 242883890,
      "is_ai": false,
      "track_id": 0,
      "velocity": 0,
      "is_motor": true,
      "motor_id": 1,
      "accel_val": 2000,
      "base_duration_us": 230769
    },
    {
      "id": "M_2734",
      "pitch": 62,
      "t_note_us": 243019853,
      "t_trigger_us": 242883890,
      "is_ai": false,
      "track_id": 0,
      "velocity": 0,
      "is_motor": true,
      "motor_id": 2,
      "accel_val": 2000,
      "base_duration_us": 230769
    },
    {
      "id": "M_2735",
      "pitch": 76,
      "t_note_us": 243250622,
      "t_trigger_us": 243114659,
      "is_ai": false,
      "track_id": 0,
      "velocity": 0,
      "is_motor": true,
      "motor_id": 2,
      "accel_val": 2000,
      "base_duration_us": 230769
    },
    {
      "id": "M_2736",
      "pitch": 76,
      "t_note_us": 243250622,
      "t_trigger_us": 243114659,
      "is_ai": false,
      "track_id": 0,
      "velocity": 0,
      "is_motor": true,
      "motor_id": 1,
      "accel_val": 2000,
      "base_duration_us": 230769
    },
    {
      "id": "M_2737",
      "pitch": 67,
      "t_note_us": 243481391,
      "t_trigger_us": 243345428,
      "is_ai": false,
      "track_id": 0,
      "velocity": 0,
      "is_motor": true,
      "motor_id": 1,
      "accel_val": 2000,
      "base_duration_us": 230769
    },
    {
      "id": "M_2738",
      "pitch": 67,
      "t_note_us": 243481391,
      "t_trigger_us": 243345428,
      "is_ai": false,
      "track_id": 0,
      "velocity": 0,
      "is_motor": true,
      "motor_id": 2,
      "accel_val": 2000,
      "base_duration_us": 230769
    },
    {
      "id": "M_2739",
      "pitch": 76,
      "t_note_us": 243712160,
      "t_trigger_us": 243576197,
      "is_ai": false,
      "track_id": 0,
      "velocity": 0,
      "is_motor": true,
      "motor_id": 2,
      "accel_val": 2000,
      "base_duration_us": 115384
    },
    {
      "id": "M_2740",
      "pitch": 48,
      "t_note_us": 243712160,
      "t_trigger_us": 243576197,
      "is_ai": false,
      "track_id": 0,
      "velocity": 0,
      "is_motor": true,
      "motor_id": 0,
      "accel_val": 2000,
      "base_duration_us": 230768
    },
    {
      "id": "M_2741",
      "pitch": 98,
      "t_note_us": 243827544,
      "t_trigger_us": 243691581,
      "is_ai": true,
      "track_id": 11,
      "velocity": 0,
      "is_motor": false,
      "motor_id": 0,
      "accel_val": 2000,
      "base_duration_us": 230768
    },
    {
      "id": "M_2742",
      "pitch": 60,
      "t_note_us": 243942928,
      "t_trigger_us": 243806965,
      "is_ai": false,
      "track_id": 0,
      "velocity": 0,
      "is_motor": true,
      "motor_id": 1,
      "accel_val": 2000,
      "base_duration_us": 230768
    },
    {
      "id": "M_2743",
      "pitch": 64,
      "t_note_us": 243942928,
      "t_trigger_us": 243806965,
      "is_ai": false,
      "track_id": 0,
      "velocity": 0,
      "is_motor": true,
      "motor_id": 0,
      "accel_val": 2000,
      "base_duration_us": 230768
    },
    {
      "id": "M_2745",
      "pitch": 95,
      "t_note_us": 244058312,
      "t_trigger_us": 243922349,
      "is_ai": true,
      "track_id": 9,
      "velocity": 0,
      "is_motor": false,
      "motor_id": 0,
      "accel_val": 2000,
      "base_duration_us": 346153
    },
    {
      "id": "M_2744",
      "pitch": 48,
      "t_note_us": 244173696,
      "t_trigger_us": 244037733,
      "is_ai": false,
      "track_id": 0,
      "velocity": 0,
      "is_motor": true,
      "motor_id": 0,
      "accel_val": 2000,
      "base_duration_us": 230769
    },
    {
      "id": "M_2746",
      "pitch": 88,
      "t_note_us": 244404465,
      "t_trigger_us": 244268502,
      "is_ai": true,
      "track_id": 5,
      "velocity": 0,
      "is_motor": false,
      "motor_id": 0,
      "accel_val": 2000,
      "base_duration_us": 230769
    },
    {
      "id": "M_2747",
      "pitch": 60,
      "t_note_us": 244404465,
      "t_trigger_us": 244268502,
      "is_ai": false,
      "track_id": 0,
      "velocity": 0,
      "is_motor": true,
      "motor_id": 1,
      "accel_val": 2000,
      "base_duration_us": 230769
    },
    {
      "id": "M_2748",
      "pitch": 64,
      "t_note_us": 244404465,
      "t_trigger_us": 244268502,
      "is_ai": false,
      "track_id": 0,
      "velocity": 0,
      "is_motor": true,
      "motor_id": 0,
      "accel_val": 2000,
      "base_duration_us": 230769
    },
    {
      "id": "M_2749",
      "pitch": 67,
      "t_note_us": 244635234,
      "t_trigger_us": 244499271,
      "is_ai": false,
      "track_id": 0,
      "velocity": 0,
      "is_motor": true,
      "motor_id": 1,
      "accel_val": 2000,
      "base_duration_us": 230769
    },
    {
      "id": "M_2750",
      "pitch": 50,
      "t_note_us": 244635234,
      "t_trigger_us": 244499271,
      "is_ai": false,
      "track_id": 0,
      "velocity": 0,
      "is_motor": true,
      "motor_id": 0,
      "accel_val": 2000,
      "base_duration_us": 230769
    },
    {
      "id": "M_2751",
      "pitch": 93,
      "t_note_us": 244866003,
      "t_trigger_us": 244730040,
      "is_ai": true,
      "track_id": 8,
      "velocity": 0,
      "is_motor": false,
      "motor_id": 0,
      "accel_val": 2000,
      "base_duration_us": 230769
    },
    {
      "id": "M_2752",
      "pitch": 57,
      "t_note_us": 244866003,
      "t_trigger_us": 244730040,
      "is_ai": false,
      "track_id": 0,
      "velocity": 0,
      "is_motor": true,
      "motor_id": 0,
      "accel_val": 2000,
      "base_duration_us": 230769
    },
    {
      "id": "M_2753",
      "pitch": 62,
      "t_note_us": 244866003,
      "t_trigger_us": 244730040,
      "is_ai": false,
      "track_id": 0,
      "velocity": 0,
      "is_motor": true,
      "motor_id": 1,
      "accel_val": 2000,
      "base_duration_us": 230769
    },
    {
      "id": "M_2754",
      "pitch": 95,
      "t_note_us": 245096772,
      "t_trigger_us": 244960809,
      "is_ai": true,
      "track_id": 9,
      "velocity": 0,
      "is_motor": false,
      "motor_id": 0,
      "accel_val": 2000,
      "base_duration_us": 115384
    },
    {
      "id": "M_2756",
      "pitch": 50,
      "t_note_us": 245096772,
      "t_trigger_us": 244960809,
      "is_ai": false,
      "track_id": 0,
      "velocity": 0,
      "is_motor": true,
      "motor_id": 0,
      "accel_val": 2000,
      "base_duration_us": 230768
    },
    {
      "id": "M_2755",
      "pitch": 76,
      "t_note_us": 245212156,
      "t_trigger_us": 245076193,
      "is_ai": false,
      "track_id": 0,
      "velocity": 0,
      "is_motor": true,
      "motor_id": 2,
      "accel_val": 2000,
      "base_duration_us": 115384
    },
    {
      "id": "M_2757",
      "pitch": 103,
      "t_note_us": 245327540,
      "t_trigger_us": 245191577,
      "is_ai": true,
      "track_id": 14,
      "velocity": 0,
      "is_motor": false,
      "motor_id": 0,
      "accel_val": 2000,
      "base_duration_us": 115384
    },
    {
      "id": "M_2759",
      "pitch": 62,
      "t_note_us": 245327540,
      "t_trigger_us": 245191577,
      "is_ai": false,
      "track_id": 0,
      "velocity": 0,
      "is_motor": true,
      "motor_id": 1,
      "accel_val": 2000,
      "base_duration_us": 230768
    },
    {
      "id": "M_2760",
      "pitch": 57,
      "t_note_us": 245327540,
      "t_trigger_us": 245191577,
      "is_ai": false,
      "track_id": 0,
      "velocity": 0,
      "is_motor": true,
      "motor_id": 0,
      "accel_val": 2000,
      "base_duration_us": 230768
    },
    {
      "id": "M_2758",
      "pitch": 102,
      "t_note_us": 245442924,
      "t_trigger_us": 245306961,
      "is_ai": true,
      "track_id": 0,
      "velocity": 0,
      "is_motor": true,
      "motor_id": 3,
      "accel_val": 2000,
      "base_duration_us": 115384
    },
    {
      "id": "M_2761",
      "pitch": 98,
      "t_note_us": 245558308,
      "t_trigger_us": 245422345,
      "is_ai": true,
      "track_id": 11,
      "velocity": 0,
      "is_motor": false,
      "motor_id": 0,
      "accel_val": 2000,
      "base_duration_us": 115384
    },
    {
      "id": "M_2762",
      "pitch": 47,
      "t_note_us": 245558308,
      "t_trigger_us": 245422345,
      "is_ai": false,
      "track_id": 0,
      "velocity": 0,
      "is_motor": true,
      "motor_id": 0,
      "accel_val": 2000,
      "base_duration_us": 230768
    },
    {
      "id": "M_2763",
      "pitch": 95,
      "t_note_us": 245673692,
      "t_trigger_us": 245537729,
      "is_ai": true,
      "track_id": 9,
      "velocity": 0,
      "is_motor": false,
      "motor_id": 0,
      "accel_val": 2000,
      "base_duration_us": 230768
    },
    {
      "id": "M_2764",
      "pitch": 59,
      "t_note_us": 245789076,
      "t_trigger_us": 245653113,
      "is_ai": false,
      "track_id": 0,
      "velocity": 0,
      "is_motor": true,
      "motor_id": 0,
      "accel_val": 2000,
      "base_duration_us": 230768
    },
    {
      "id": "M_2765",
      "pitch": 62,
      "t_note_us": 245789076,
      "t_trigger_us": 245653113,
      "is_ai": false,
      "track_id": 0,
      "velocity": 0,
      "is_motor": true,
      "motor_id": 1,
      "accel_val": 2000,
      "base_duration_us": 230768
    },
    {
      "id": "M_2767",
      "pitch": 98,
      "t_note_us": 245904460,
      "t_trigger_us": 245768497,
      "is_ai": true,
      "track_id": 11,
      "velocity": 0,
      "is_motor": false,
      "motor_id": 0,
      "accel_val": 2000,
      "base_duration_us": 346153
    },
    {
      "id": "M_2766",
      "pitch": 47,
      "t_note_us": 246019844,
      "t_trigger_us": 245883881,
      "is_ai": false,
      "track_id": 0,
      "velocity": 0,
      "is_motor": true,
      "motor_id": 0,
      "accel_val": 2000,
      "base_duration_us": 230769
    },
    {
      "id": "M_2770",
      "pitch": 100,
      "t_note_us": 246250613,
      "t_trigger_us": 246114650,
      "is_ai": true,
      "track_id": 12,
      "velocity": 0,
      "is_motor": false,
      "motor_id": 0,
      "accel_val": 2000,
      "base_duration_us": 230769
    },
    {
      "id": "M_2768",
      "pitch": 62,
      "t_note_us": 246250613,
      "t_trigger_us": 246114650,
      "is_ai": false,
      "track_id": 0,
      "velocity": 0,
      "is_motor": true,
      "motor_id": 1,
      "accel_val": 2000,
      "base_duration_us": 230769
    },
    {
      "id": "M_2769",
      "pitch": 59,
      "t_note_us": 246250613,
      "t_trigger_us": 246114650,
      "is_ai": false,
      "track_id": 0,
      "velocity": 0,
      "is_motor": true,
      "motor_id": 0,
      "accel_val": 2000,
      "base_duration_us": 230769
    },
    {
      "id": "M_2772",
      "pitch": 98,
      "t_note_us": 246481382,
      "t_trigger_us": 246345419,
      "is_ai": true,
      "track_id": 11,
      "velocity": 0,
      "is_motor": false,
      "motor_id": 0,
      "accel_val": 2000,
      "base_duration_us": 230769
    },
    {
      "id": "M_2771",
      "pitch": 52,
      "t_note_us": 246481382,
      "t_trigger_us": 246345419,
      "is_ai": false,
      "track_id": 0,
      "velocity": 0,
      "is_motor": true,
      "motor_id": 0,
      "accel_val": 2000,
      "base_duration_us": 230769
    },
    {
      "id": "M_2774",
      "pitch": 95,
      "t_note_us": 246712151,
      "t_trigger_us": 246576188,
      "is_ai": true,
      "track_id": 9,
      "velocity": 0,
      "is_motor": false,
      "motor_id": 0,
      "accel_val": 2000,
      "base_duration_us": 230769
    },
    {
      "id": "M_2773",
      "pitch": 64,
      "t_note_us": 246712151,
      "t_trigger_us": 246576188,
      "is_ai": false,
      "track_id": 0,
      "velocity": 0,
      "is_motor": true,
      "motor_id": 1,
      "accel_val": 2000,
      "base_duration_us": 230769
    },
    {
      "id": "M_2775",
      "pitch": 59,
      "t_note_us": 246712151,
      "t_trigger_us": 246576188,
      "is_ai": false,
      "track_id": 0,
      "velocity": 0,
      "is_motor": true,
      "motor_id": 0,
      "accel_val": 2000,
      "base_duration_us": 230769
    },
    {
      "id": "M_2776",
      "pitch": 69,
      "t_note_us": 246942920,
      "t_trigger_us": 246806957,
      "is_ai": false,
      "track_id": 0,
      "velocity": 0,
      "is_motor": true,
      "motor_id": 1,
      "accel_val": 2000,
      "base_duration_us": 230769
    },
    {
      "id": "M_2777",
      "pitch": 52,
      "t_note_us": 246942920,
      "t_trigger_us": 246806957,
      "is_ai": false,
      "track_id": 0,
      "velocity": 0,
      "is_motor": true,
      "motor_id": 0,
      "accel_val": 2000,
      "base_duration_us": 230769
    },
    {
      "id": "M_2778",
      "pitch": 76,
      "t_note_us": 247173689,
      "t_trigger_us": 247037726,
      "is_ai": false,
      "track_id": 0,
      "velocity": 0,
      "is_motor": true,
      "motor_id": 2,
      "accel_val": 2000,
      "base_duration_us": 230769
    },
    {
      "id": "M_2779",
      "pitch": 59,
      "t_note_us": 247173689,
      "t_trigger_us": 247037726,
      "is_ai": false,
      "track_id": 0,
      "velocity": 0,
      "is_motor": true,
      "motor_id": 0,
      "accel_val": 2000,
      "base_duration_us": 230769
    },
    {
      "id": "M_2780",
      "pitch": 64,
      "t_note_us": 247173689,
      "t_trigger_us": 247037726,
      "is_ai": false,
      "track_id": 0,
      "velocity": 0,
      "is_motor": true,
      "motor_id": 1,
      "accel_val": 2000,
      "base_duration_us": 230769
    },
    {
      "id": "M_2781",
      "pitch": 95,
      "t_note_us": 247404458,
      "t_trigger_us": 247268495,
      "is_ai": true,
      "track_id": 9,
      "velocity": 0,
      "is_motor": false,
      "motor_id": 0,
      "accel_val": 2000,
      "base_duration_us": 115384
    },
    {
      "id": "M_2782",
      "pitch": 48,
      "t_note_us": 247404458,
      "t_trigger_us": 247268495,
      "is_ai": false,
      "track_id": 0,
      "velocity": 0,
      "is_motor": true,
      "motor_id": 0,
      "accel_val": 2000,
      "base_duration_us": 230768
    },
    {
      "id": "M_2783",
      "pitch": 93,
      "t_note_us": 247519842,
      "t_trigger_us": 247383879,
      "is_ai": true,
      "track_id": 8,
      "velocity": 0,
      "is_motor": false,
      "motor_id": 0,
      "accel_val": 2000,
      "base_duration_us": 230768
    },
    {
      "id": "M_2784",
      "pitch": 64,
      "t_note_us": 247635226,
      "t_trigger_us": 247499263,
      "is_ai": false,
      "track_id": 0,
      "velocity": 0,
      "is_motor": true,
      "motor_id": 1,
      "accel_val": 2000,
      "base_duration_us": 230768
    },
    {
      "id": "M_2785",
      "pitch": 60,
      "t_note_us": 247635226,
      "t_trigger_us": 247499263,
      "is_ai": false,
      "track_id": 0,
      "velocity": 0,
      "is_motor": true,
      "motor_id": 0,
      "accel_val": 2000,
      "base_duration_us": 230768
    },
    {
      "id": "M_2787",
      "pitch": 91,
      "t_note_us": 247750610,
      "t_trigger_us": 247614647,
      "is_ai": true,
      "track_id": 7,
      "velocity": 0,
      "is_motor": false,
      "motor_id": 0,
      "accel_val": 2000,
      "base_duration_us": 346153
    },
    {
      "id": "M_2786",
      "pitch": 48,
      "t_note_us": 247865994,
      "t_trigger_us": 247730031,
      "is_ai": false,
      "track_id": 0,
      "velocity": 0,
      "is_motor": true,
      "motor_id": 0,
      "accel_val": 2000,
      "base_duration_us": 230769
    },
    {
      "id": "M_2788",
      "pitch": 64,
      "t_note_us": 248096763,
      "t_trigger_us": 247960800,
      "is_ai": false,
      "track_id": 0,
      "velocity": 0,
      "is_motor": true,
      "motor_id": 1,
      "accel_val": 2000,
      "base_duration_us": 230769
    },
    {
      "id": "M_2789",
      "pitch": 76,
      "t_note_us": 248096763,
      "t_trigger_us": 247960800,
      "is_ai": false,
      "track_id": 0,
      "velocity": 0,
      "is_motor": true,
      "motor_id": 2,
      "accel_val": 2000,
      "base_duration_us": 230769
    },
    {
      "id": "M_2790",
      "pitch": 60,
      "t_note_us": 248096763,
      "t_trigger_us": 247960800,
      "is_ai": false,
      "track_id": 0,
      "velocity": 0,
      "is_motor": true,
      "motor_id": 0,
      "accel_val": 2000,
      "base_duration_us": 230769
    },
    {
      "id": "M_2791",
      "pitch": 47,
      "t_note_us": 248327532,
      "t_trigger_us": 248191569,
      "is_ai": false,
      "track_id": 0,
      "velocity": 0,
      "is_motor": true,
      "motor_id": 0,
      "accel_val": 2000,
      "base_duration_us": 230769
    },
    {
      "id": "M_2792",
      "pitch": 75,
      "t_note_us": 248327532,
      "t_trigger_us": 248191569,
      "is_ai": false,
      "track_id": 0,
      "velocity": 0,
      "is_motor": true,
      "motor_id": 2,
      "accel_val": 2000,
      "base_duration_us": 230769
    },
    {
      "id": "M_2794",
      "pitch": 96,
      "t_note_us": 248558301,
      "t_trigger_us": 248422338,
      "is_ai": true,
      "track_id": 10,
      "velocity": 0,
      "is_motor": false,
      "motor_id": 0,
      "accel_val": 2000,
      "base_duration_us": 230769
    },
    {
      "id": "M_2793",
      "pitch": 59,
      "t_note_us": 248558301,
      "t_trigger_us": 248422338,
      "is_ai": false,
      "track_id": 0,
      "velocity": 0,
      "is_motor": true,
      "motor_id": 0,
      "accel_val": 2000,
      "base_duration_us": 230769
    },
    {
      "id": "M_2795",
      "pitch": 62,
      "t_note_us": 248558301,
      "t_trigger_us": 248422338,
      "is_ai": false,
      "track_id": 0,
      "velocity": 0,
      "is_motor": true,
      "motor_id": 1,
      "accel_val": 2000,
      "base_duration_us": 230769
    },
    {
      "id": "M_2797",
      "pitch": 95,
      "t_note_us": 248789070,
      "t_trigger_us": 248653107,
      "is_ai": true,
      "track_id": 9,
      "velocity": 0,
      "is_motor": false,
      "motor_id": 0,
      "accel_val": 2000,
      "base_duration_us": 230769
    },
    {
      "id": "M_2796",
      "pitch": 47,
      "t_note_us": 248789070,
      "t_trigger_us": 248653107,
      "is_ai": false,
      "track_id": 0,
      "velocity": 0,
      "is_motor": true,
      "motor_id": 0,
      "accel_val": 2000,
      "base_duration_us": 230769
    },
    {
      "id": "M_2799",
      "pitch": 90,
      "t_note_us": 249019839,
      "t_trigger_us": 248883876,
      "is_ai": true,
      "track_id": 0,
      "velocity": 0,
      "is_motor": true,
      "motor_id": 3,
      "accel_val": 2000,
      "base_duration_us": 230769
    },
    {
      "id": "M_2798",
      "pitch": 59,
      "t_note_us": 249019839,
      "t_trigger_us": 248883876,
      "is_ai": false,
      "track_id": 0,
      "velocity": 0,
      "is_motor": true,
      "motor_id": 0,
      "accel_val": 2000,
      "base_duration_us": 230769
    },
    {
      "id": "M_2800",
      "pitch": 62,
      "t_note_us": 249019839,
      "t_trigger_us": 248883876,
      "is_ai": false,
      "track_id": 0,
      "velocity": 0,
      "is_motor": true,
      "motor_id": 1,
      "accel_val": 2000,
      "base_duration_us": 230769
    },
    {
      "id": "M_2802",
      "pitch": 93,
      "t_note_us": 249250608,
      "t_trigger_us": 249114645,
      "is_ai": true,
      "track_id": 8,
      "velocity": 0,
      "is_motor": false,
      "motor_id": 0,
      "accel_val": 2000,
      "base_duration_us": 230769
    },
    {
      "id": "M_2801",
      "pitch": 52,
      "t_note_us": 249250608,
      "t_trigger_us": 249114645,
      "is_ai": false,
      "track_id": 0,
      "velocity": 0,
      "is_motor": true,
      "motor_id": 0,
      "accel_val": 2000,
      "base_duration_us": 230769
    },
    {
      "id": "M_2803",
      "pitch": 67,
      "t_note_us": 249481377,
      "t_trigger_us": 249345414,
      "is_ai": false,
      "track_id": 0,
      "velocity": 0,
      "is_motor": true,
      "motor_id": 1,
      "accel_val": 2000,
      "base_duration_us": 115384
    },
    {
      "id": "M_2804",
      "pitch": 64,
      "t_note_us": 249481377,
      "t_trigger_us": 249345414,
      "is_ai": false,
      "track_id": 0,
      "velocity": 0,
      "is_motor": true,
      "motor_id": 0,
      "accel_val": 2000,
      "base_duration_us": 230768
    },
    {
      "id": "M_2805",
      "pitch": 59,
      "t_note_us": 249481377,
      "t_trigger_us": 249345414,
      "is_ai": false,
      "track_id": 0,
      "velocity": 0,
      "is_motor": true,
      "motor_id": 2,
      "accel_val": 2000,
      "base_duration_us": 230768
    },
    {
      "id": "M_2807",
      "pitch": 98,
      "t_note_us": 249596761,
      "t_trigger_us": 249460798,
      "is_ai": true,
      "track_id": 11,
      "velocity": 0,
      "is_motor": false,
      "motor_id": 0,
      "accel_val": 2000,
      "base_duration_us": 346153
    },
    {
      "id": "M_2806",
      "pitch": 52,
      "t_note_us": 249712145,
      "t_trigger_us": 249576182,
      "is_ai": false,
      "track_id": 0,
      "velocity": 0,
      "is_motor": true,
      "motor_id": 0,
      "accel_val": 2000,
      "base_duration_us": 230769
    },
    {
      "id": "M_2810",
      "pitch": 96,
      "t_note_us": 249942914,
      "t_trigger_us": 249806951,
      "is_ai": true,
      "track_id": 10,
      "velocity": 0,
      "is_motor": false,
      "motor_id": 0,
      "accel_val": 2000,
      "base_duration_us": 230769
    },
    {
      "id": "M_2808",
      "pitch": 59,
      "t_note_us": 249942914,
      "t_trigger_us": 249806951,
      "is_ai": false,
      "track_id": 0,
      "velocity": 0,
      "is_motor": true,
      "motor_id": 0,
      "accel_val": 2000,
      "base_duration_us": 230769
    },
    {
      "id": "M_2809",
      "pitch": 64,
      "t_note_us": 249942914,
      "t_trigger_us": 249806951,
      "is_ai": false,
      "track_id": 0,
      "velocity": 0,
      "is_motor": true,
      "motor_id": 1,
      "accel_val": 2000,
      "base_duration_us": 230769
    },
    {
      "id": "M_2811",
      "pitch": 95,
      "t_note_us": 250173683,
      "t_trigger_us": 250037720,
      "is_ai": true,
      "track_id": 9,
      "velocity": 0,
      "is_motor": false,
      "motor_id": 0,
      "accel_val": 2000,
      "base_duration_us": 230769
    },
    {
      "id": "M_2812",
      "pitch": 50,
      "t_note_us": 250173683,
      "t_trigger_us": 250037720,
      "is_ai": false,
      "track_id": 0,
      "velocity": 0,
      "is_motor": true,
      "motor_id": 0,
      "accel_val": 2000,
      "base_duration_us": 230769
    },
    {
      "id": "M_2814",
      "pitch": 86,
      "t_note_us": 250404452,
      "t_trigger_us": 250268489,
      "is_ai": true,
      "track_id": 4,
      "velocity": 0,
      "is_motor": false,
      "motor_id": 0,
      "accel_val": 2000,
      "base_duration_us": 230769
    },
    {
      "id": "M_2813",
      "pitch": 62,
      "t_note_us": 250404452,
      "t_trigger_us": 250268489,
      "is_ai": false,
      "track_id": 0,
      "velocity": 0,
      "is_motor": true,
      "motor_id": 1,
      "accel_val": 2000,
      "base_duration_us": 230769
    },
    {
      "id": "M_2815",
      "pitch": 66,
      "t_note_us": 250404452,
      "t_trigger_us": 250268489,
      "is_ai": false,
      "track_id": 0,
      "velocity": 0,
      "is_motor": true,
      "motor_id": 2,
      "accel_val": 2000,
      "base_duration_us": 230769
    },
    {
      "id": "M_2816",
      "pitch": 74,
      "t_note_us": 250635221,
      "t_trigger_us": 250499258,
      "is_ai": false,
      "track_id": 0,
      "velocity": 0,
      "is_motor": true,
      "motor_id": 1,
      "accel_val": 2000,
      "base_duration_us": 115384
    },
    {
      "id": "M_2818",
      "pitch": 50,
      "t_note_us": 250635221,
      "t_trigger_us": 250499258,
      "is_ai": false,
      "track_id": 0,
      "velocity": 0,
      "is_motor": true,
      "motor_id": 0,
      "accel_val": 2000,
      "base_duration_us": 230768
    },
    {
      "id": "M_2817",
      "pitch": 76,
      "t_note_us": 250750605,
      "t_trigger_us": 250614642,
      "is_ai": false,
      "track_id": 0,
      "velocity": 0,
      "is_motor": true,
      "motor_id": 2,
      "accel_val": 2000,
      "base_duration_us": 115384
    },
    {
      "id": "M_2819",
      "pitch": 67,
      "t_note_us": 250865989,
      "t_trigger_us": 250730026,
      "is_ai": false,
      "track_id": 0,
      "velocity": 0,
      "is_motor": true,
      "motor_id": 1,
      "accel_val": 2000,
      "base_duration_us": 115384
    },
    {
      "id": "M_2821",
      "pitch": 62,
      "t_note_us": 250865989,
      "t_trigger_us": 250730026,
      "is_ai": false,
      "track_id": 0,
      "velocity": 0,
      "is_motor": true,
      "motor_id": 0,
      "accel_val": 2000,
      "base_duration_us": 230768
    },
    {
      "id": "M_2822",
      "pitch": 66,
      "t_note_us": 250865989,
      "t_trigger_us": 250730026,
      "is_ai": false,
      "track_id": 0,
      "velocity": 0,
      "is_motor": true,
      "motor_id": 2,
      "accel_val": 2000,
      "base_duration_us": 230768
    },
    {
      "id": "M_2820",
      "pitch": 74,
      "t_note_us": 250981373,
      "t_trigger_us": 250845410,
      "is_ai": false,
      "track_id": 0,
      "velocity": 0,
      "is_motor": true,
      "motor_id": 1,
      "accel_val": 2000,
      "base_duration_us": 115384
    },
    {
      "id": "M_2823",
      "pitch": 95,
      "t_note_us": 251096757,
      "t_trigger_us": 250960794,
      "is_ai": true,
      "track_id": 9,
      "velocity": 0,
      "is_motor": false,
      "motor_id": 0,
      "accel_val": 2000,
      "base_duration_us": 115384
    },
    {
      "id": "M_2824",
      "pitch": 48,
      "t_note_us": 251096757,
      "t_trigger_us": 250960794,
      "is_ai": false,
      "track_id": 0,
      "velocity": 0,
      "is_motor": true,
      "motor_id": 0,
      "accel_val": 2000,
      "base_duration_us": 230768
    },
    {
      "id": "M_2825",
      "pitch": 93,
      "t_note_us": 251212141,
      "t_trigger_us": 251076178,
      "is_ai": true,
      "track_id": 8,
      "velocity": 0,
      "is_motor": false,
      "motor_id": 0,
      "accel_val": 2000,
      "base_duration_us": 230768
    },
    {
      "id": "M_2826",
      "pitch": 60,
      "t_note_us": 251327525,
      "t_trigger_us": 251191562,
      "is_ai": false,
      "track_id": 0,
      "velocity": 0,
      "is_motor": true,
      "motor_id": 1,
      "accel_val": 2000,
      "base_duration_us": 230768
    },
    {
      "id": "M_2827",
      "pitch": 64,
      "t_note_us": 251327525,
      "t_trigger_us": 251191562,
      "is_ai": false,
      "track_id": 0,
      "velocity": 0,
      "is_motor": true,
      "motor_id": 0,
      "accel_val": 2000,
      "base_duration_us": 230768
    },
    {
      "id": "M_2829",
      "pitch": 67,
      "t_note_us": 251442909,
      "t_trigger_us": 251306946,
      "is_ai": false,
      "track_id": 0,
      "velocity": 0,
      "is_motor": true,
      "motor_id": 2,
      "accel_val": 2000,
      "base_duration_us": 346153
    },
    {
      "id": "M_2828",
      "pitch": 48,
      "t_note_us": 251558293,
      "t_trigger_us": 251422330,
      "is_ai": false,
      "track_id": 0,
      "velocity": 0,
      "is_motor": true,
      "motor_id": 0,
      "accel_val": 2000,
      "base_duration_us": 230769
    },
    {
      "id": "M_2830",
      "pitch": 60,
      "t_note_us": 251789062,
      "t_trigger_us": 251653099,
      "is_ai": false,
      "track_id": 0,
      "velocity": 0,
      "is_motor": true,
      "motor_id": 1,
      "accel_val": 2000,
      "base_duration_us": 230769
    },
    {
      "id": "M_2831",
      "pitch": 64,
      "t_note_us": 251789062,
      "t_trigger_us": 251653099,
      "is_ai": false,
      "track_id": 0,
      "velocity": 0,
      "is_motor": true,
      "motor_id": 0,
      "accel_val": 2000,
      "base_duration_us": 230769
    },
    {
      "id": "M_2832",
      "pitch": 76,
      "t_note_us": 251789062,
      "t_trigger_us": 251653099,
      "is_ai": false,
      "track_id": 0,
      "velocity": 0,
      "is_motor": true,
      "motor_id": 2,
      "accel_val": 2000,
      "base_duration_us": 230769
    },
    {
      "id": "M_2833",
      "pitch": 50,
      "t_note_us": 252019831,
      "t_trigger_us": 251883868,
      "is_ai": false,
      "track_id": 0,
      "velocity": 0,
      "is_motor": true,
      "motor_id": 0,
      "accel_val": 2000,
      "base_duration_us": 230769
    },
    {
      "id": "M_2834",
      "pitch": 67,
      "t_note_us": 252019831,
      "t_trigger_us": 251883868,
      "is_ai": false,
      "track_id": 0,
      "velocity": 0,
      "is_motor": true,
      "motor_id": 1,
      "accel_val": 2000,
      "base_duration_us": 230769
    },
    {
      "id": "M_2836",
      "pitch": 93,
      "t_note_us": 252250600,
      "t_trigger_us": 252114637,
      "is_ai": true,
      "track_id": 8,
      "velocity": 0,
      "is_motor": false,
      "motor_id": 0,
      "accel_val": 2000,
      "base_duration_us": 230769
    },
    {
      "id": "M_2835",
      "pitch": 62,
      "t_note_us": 252250600,
      "t_trigger_us": 252114637,
      "is_ai": false,
      "track_id": 0,
      "velocity": 0,
      "is_motor": true,
      "motor_id": 1,
      "accel_val": 2000,
      "base_duration_us": 230769
    },
    {
      "id": "M_2837",
      "pitch": 57,
      "t_note_us": 252250600,
      "t_trigger_us": 252114637,
      "is_ai": false,
      "track_id": 0,
      "velocity": 0,
      "is_motor": true,
      "motor_id": 0,
      "accel_val": 2000,
      "base_duration_us": 230769
    },
    {
      "id": "M_2838",
      "pitch": 95,
      "t_note_us": 252481369,
      "t_trigger_us": 252345406,
      "is_ai": true,
      "track_id": 9,
      "velocity": 0,
      "is_motor": false,
      "motor_id": 0,
      "accel_val": 2000,
      "base_duration_us": 115384
    },
    {
      "id": "M_2840",
      "pitch": 50,
      "t_note_us": 252481369,
      "t_trigger_us": 252345406,
      "is_ai": false,
      "track_id": 0,
      "velocity": 0,
      "is_motor": true,
      "motor_id": 0,
      "accel_val": 2000,
      "base_duration_us": 230768
    },
    {
      "id": "M_2839",
      "pitch": 76,
      "t_note_us": 252596753,
      "t_trigger_us": 252460790,
      "is_ai": false,
      "track_id": 0,
      "velocity": 0,
      "is_motor": true,
      "motor_id": 2,
      "accel_val": 2000,
      "base_duration_us": 115384
    },
    {
      "id": "M_2841",
      "pitch": 103,
      "t_note_us": 252712137,
      "t_trigger_us": 252576174,
      "is_ai": true,
      "track_id": 14,
      "velocity": 0,
      "is_motor": false,
      "motor_id": 0,
      "accel_val": 2000,
      "base_duration_us": 115384
    },
    {
      "id": "M_2843",
      "pitch": 57,
      "t_note_us": 252712137,
      "t_trigger_us": 252576174,
      "is_ai": false,
      "track_id": 0,
      "velocity": 0,
      "is_motor": true,
      "motor_id": 0,
      "accel_val": 2000,
      "base_duration_us": 230768
    },
    {
      "id": "M_2844",
      "pitch": 62,
      "t_note_us": 252712137,
      "t_trigger_us": 252576174,
      "is_ai": false,
      "track_id": 0,
      "velocity": 0,
      "is_motor": true,
      "motor_id": 1,
      "accel_val": 2000,
      "base_duration_us": 230768
    },
    {
      "id": "M_2842",
      "pitch": 102,
      "t_note_us": 252827521,
      "t_trigger_us": 252691558,
      "is_ai": true,
      "track_id": 0,
      "velocity": 0,
      "is_motor": true,
      "motor_id": 3,
      "accel_val": 2000,
      "base_duration_us": 115384
    },
    {
      "id": "M_2845",
      "pitch": 74,
      "t_note_us": 252942905,
      "t_trigger_us": 252806942,
      "is_ai": false,
      "track_id": 0,
      "velocity": 0,
      "is_motor": true,
      "motor_id": 1,
      "accel_val": 2000,
      "base_duration_us": 115384
    },
    {
      "id": "M_2846",
      "pitch": 51,
      "t_note_us": 252942905,
      "t_trigger_us": 252806942,
      "is_ai": false,
      "track_id": 0,
      "velocity": 0,
      "is_motor": true,
      "motor_id": 0,
      "accel_val": 2000,
      "base_duration_us": 230768
    },
    {
      "id": "M_2847",
      "pitch": 95,
      "t_note_us": 253058289,
      "t_trigger_us": 252922326,
      "is_ai": true,
      "track_id": 9,
      "velocity": 0,
      "is_motor": false,
      "motor_id": 0,
      "accel_val": 2000,
      "base_duration_us": 230768
    },
    {
      "id": "M_2848",
      "pitch": 58,
      "t_note_us": 253173673,
      "t_trigger_us": 253037710,
      "is_ai": false,
      "track_id": 0,
      "velocity": 0,
      "is_motor": true,
      "motor_id": 0,
      "accel_val": 2000,
      "base_duration_us": 230768
    },
    {
      "id": "M_2849",
      "pitch": 63,
      "t_note_us": 253173673,
      "t_trigger_us": 253037710,
      "is_ai": false,
      "track_id": 0,
      "velocity": 0,
      "is_motor": true,
      "motor_id": 1,
      "accel_val": 2000,
      "base_duration_us": 230768
    },
    {
      "id": "M_2851",
      "pitch": 98,
      "t_note_us": 253289057,
      "t_trigger_us": 253153094,
      "is_ai": true,
      "track_id": 11,
      "velocity": 0,
      "is_motor": false,
      "motor_id": 0,
      "accel_val": 2000,
      "base_duration_us": 346153
    },
    {
      "id": "M_2850",
      "pitch": 51,
      "t_note_us": 253404441,
      "t_trigger_us": 253268478,
      "is_ai": false,
      "track_id": 0,
      "velocity": 0,
      "is_motor": true,
      "motor_id": 0,
      "accel_val": 2000,
      "base_duration_us": 230769
    },
    {
      "id": "M_2852",
      "pitch": 63,
      "t_note_us": 253635210,
      "t_trigger_us": 253499247,
      "is_ai": false,
      "track_id": 0,
      "velocity": 0,
      "is_motor": true,
      "motor_id": 1,
      "accel_val": 2000,
      "base_duration_us": 230769
    },
    {
      "id": "M_2853",
      "pitch": 58,
      "t_note_us": 253635210,
      "t_trigger_us": 253499247,
      "is_ai": false,
      "track_id": 0,
      "velocity": 0,
      "is_motor": true,
      "motor_id": 0,
      "accel_val": 2000,
      "base_duration_us": 230769
    },
    {
      "id": "M_2854",
      "pitch": 76,
      "t_note_us": 253635210,
      "t_trigger_us": 253499247,
      "is_ai": false,
      "track_id": 0,
      "velocity": 0,
      "is_motor": true,
      "motor_id": 2,
      "accel_val": 2000,
      "base_duration_us": 230769
    },
    {
      "id": "M_2856",
      "pitch": 98,
      "t_note_us": 253865979,
      "t_trigger_us": 253730016,
      "is_ai": true,
      "track_id": 11,
      "velocity": 0,
      "is_motor": false,
      "motor_id": 0,
      "accel_val": 2000,
      "base_duration_us": 230769
    },
    {
      "id": "M_2855",
      "pitch": 52,
      "t_note_us": 253865979,
      "t_trigger_us": 253730016,
      "is_ai": false,
      "track_id": 0,
      "velocity": 0,
      "is_motor": true,
      "motor_id": 0,
      "accel_val": 2000,
      "base_duration_us": 230769
    },
    {
      "id": "M_2859",
      "pitch": 95,
      "t_note_us": 254096748,
      "t_trigger_us": 253960785,
      "is_ai": true,
      "track_id": 9,
      "velocity": 0,
      "is_motor": false,
      "motor_id": 0,
      "accel_val": 2000,
      "base_duration_us": 230769
    },
    {
      "id": "M_2857",
      "pitch": 59,
      "t_note_us": 254096748,
      "t_trigger_us": 253960785,
      "is_ai": false,
      "track_id": 0,
      "velocity": 0,
      "is_motor": true,
      "motor_id": 0,
      "accel_val": 2000,
      "base_duration_us": 230769
    },
    {
      "id": "M_2858",
      "pitch": 64,
      "t_note_us": 254096748,
      "t_trigger_us": 253960785,
      "is_ai": false,
      "track_id": 0,
      "velocity": 0,
      "is_motor": true,
      "motor_id": 1,
      "accel_val": 2000,
      "base_duration_us": 230769
    },
    {
      "id": "M_2861",
      "pitch": 93,
      "t_note_us": 254327517,
      "t_trigger_us": 254191554,
      "is_ai": true,
      "track_id": 8,
      "velocity": 0,
      "is_motor": false,
      "motor_id": 0,
      "accel_val": 2000,
      "base_duration_us": 115384
    },
    {
      "id": "M_2860",
      "pitch": 52,
      "t_note_us": 254327517,
      "t_trigger_us": 254191554,
      "is_ai": false,
      "track_id": 0,
      "velocity": 0,
      "is_motor": true,
      "motor_id": 0,
      "accel_val": 2000,
      "base_duration_us": 115384
    },
    {
      "id": "M_2863",
      "pitch": 88,
      "t_note_us": 254442901,
      "t_trigger_us": 254306938,
      "is_ai": true,
      "track_id": 5,
      "velocity": 0,
      "is_motor": false,
      "motor_id": 0,
      "accel_val": 2000,
      "base_duration_us": 115384
    },
    {
      "id": "M_2862",
      "pitch": 59,
      "t_note_us": 254442901,
      "t_trigger_us": 254306938,
      "is_ai": false,
      "track_id": 0,
      "velocity": 0,
      "is_motor": true,
      "motor_id": 0,
      "accel_val": 2000,
      "base_duration_us": 115384
    },
    {
      "id": "M_2864",
      "pitch": 67,
      "t_note_us": 254558285,
      "t_trigger_us": 254422322,
      "is_ai": false,
      "track_id": 0,
      "velocity": 0,
      "is_motor": true,
      "motor_id": 1,
      "accel_val": 2000,
      "base_duration_us": 115384
    },
    {
      "id": "M_2865",
      "pitch": 64,
      "t_note_us": 254558285,
      "t_trigger_us": 254422322,
      "is_ai": false,
      "track_id": 0,
      "velocity": 0,
      "is_motor": true,
      "motor_id": 0,
      "accel_val": 2000,
      "base_duration_us": 115384
    },
    {
      "id": "M_2867",
      "pitch": 98,
      "t_note_us": 254673669,
      "t_trigger_us": 254537706,
      "is_ai": true,
      "track_id": 11,
      "velocity": 0,
      "is_motor": false,
      "motor_id": 0,
      "accel_val": 2000,
      "base_duration_us": 115384
    },
    {
      "id": "M_2866",
      "pitch": 59,
      "t_note_us": 254673669,
      "t_trigger_us": 254537706,
      "is_ai": false,
      "track_id": 0,
      "velocity": 0,
      "is_motor": true,
      "motor_id": 0,
      "accel_val": 2000,
      "base_duration_us": 115384
    },
    {
      "id": "M_2868",
      "pitch": 95,
      "t_note_us": 254789053,
      "t_trigger_us": 254653090,
      "is_ai": true,
      "track_id": 9,
      "velocity": 0,
      "is_motor": false,
      "motor_id": 0,
      "accel_val": 2000,
      "base_duration_us": 115384
    },
    {
      "id": "M_2869",
      "pitch": 48,
      "t_note_us": 254789053,
      "t_trigger_us": 254653090,
      "is_ai": false,
      "track_id": 0,
      "velocity": 0,
      "is_motor": true,
      "motor_id": 0,
      "accel_val": 2000,
      "base_duration_us": 230768
    },
    {
      "id": "M_2870",
      "pitch": 69,
      "t_note_us": 254904437,
      "t_trigger_us": 254768474,
      "is_ai": false,
      "track_id": 0,
      "velocity": 0,
      "is_motor": true,
      "motor_id": 1,
      "accel_val": 2000,
      "base_duration_us": 230768
    },
    {
      "id": "M_2871",
      "pitch": 60,
      "t_note_us": 255019821,
      "t_trigger_us": 254883858,
      "is_ai": false,
      "track_id": 0,
      "velocity": 0,
      "is_motor": true,
      "motor_id": 0,
      "accel_val": 2000,
      "base_duration_us": 230768
    },
    {
      "id": "M_2872",
      "pitch": 64,
      "t_note_us": 255019821,
      "t_trigger_us": 254883858,
      "is_ai": false,
      "track_id": 0,
      "velocity": 0,
      "is_motor": true,
      "motor_id": 2,
      "accel_val": 2000,
      "base_duration_us": 230768
    },
    {
      "id": "M_2874",
      "pitch": 67,
      "t_note_us": 255135205,
      "t_trigger_us": 254999242,
      "is_ai": false,
      "track_id": 0,
      "velocity": 0,
      "is_motor": true,
      "motor_id": 1,
      "accel_val": 2000,
      "base_duration_us": 346153
    },
    {
      "id": "M_2873",
      "pitch": 48,
      "t_note_us": 255250589,
      "t_trigger_us": 255114626,
      "is_ai": false,
      "track_id": 0,
      "velocity": 0,
      "is_motor": true,
      "motor_id": 0,
      "accel_val": 2000,
      "base_duration_us": 230769
    },
    {
      "id": "M_2875",
      "pitch": 64,
      "t_note_us": 255481358,
      "t_trigger_us": 255345395,
      "is_ai": false,
      "track_id": 0,
      "velocity": 0,
      "is_motor": true,
      "motor_id": 1,
      "accel_val": 2000,
      "base_duration_us": 230769
    },
    {
      "id": "M_2876",
      "pitch": 60,
      "t_note_us": 255481358,
      "t_trigger_us": 255345395,
      "is_ai": false,
      "track_id": 0,
      "velocity": 0,
      "is_motor": true,
      "motor_id": 0,
      "accel_val": 2000,
      "base_duration_us": 230769
    },
    {
      "id": "M_2877",
      "pitch": 76,
      "t_note_us": 255481358,
      "t_trigger_us": 255345395,
      "is_ai": false,
      "track_id": 0,
      "velocity": 0,
      "is_motor": true,
      "motor_id": 2,
      "accel_val": 2000,
      "base_duration_us": 230769
    },
    {
      "id": "M_2878",
      "pitch": 75,
      "t_note_us": 255712127,
      "t_trigger_us": 255576164,
      "is_ai": false,
      "track_id": 0,
      "velocity": 0,
      "is_motor": true,
      "motor_id": 2,
      "accel_val": 2000,
      "base_duration_us": 230769
    },
    {
      "id": "M_2879",
      "pitch": 47,
      "t_note_us": 255712127,
      "t_trigger_us": 255576164,
      "is_ai": false,
      "track_id": 0,
      "velocity": 0,
      "is_motor": true,
      "motor_id": 0,
      "accel_val": 2000,
      "base_duration_us": 230769
    },
    {
      "id": "M_2882",
      "pitch": 96,
      "t_note_us": 255942896,
      "t_trigger_us": 255806933,
      "is_ai": true,
      "track_id": 10,
      "velocity": 0,
      "is_motor": false,
      "motor_id": 0,
      "accel_val": 2000,
      "base_duration_us": 230769
    },
    {
      "id": "M_2880",
      "pitch": 59,
      "t_note_us": 255942896,
      "t_trigger_us": 255806933,
      "is_ai": false,
      "track_id": 0,
      "velocity": 0,
      "is_motor": true,
      "motor_id": 0,
      "accel_val": 2000,
      "base_duration_us": 230769
    },
    {
      "id": "M_2881",
      "pitch": 62,
      "t_note_us": 255942896,
      "t_trigger_us": 255806933,
      "is_ai": false,
      "track_id": 0,
      "velocity": 0,
      "is_motor": true,
      "motor_id": 1,
      "accel_val": 2000,
      "base_duration_us": 230769
    },
    {
      "id": "M_2883",
      "pitch": 95,
      "t_note_us": 256173665,
      "t_trigger_us": 256037702,
      "is_ai": true,
      "track_id": 9,
      "velocity": 0,
      "is_motor": false,
      "motor_id": 0,
      "accel_val": 2000,
      "base_duration_us": 230769
    },
    {
      "id": "M_2884",
      "pitch": 47,
      "t_note_us": 256173665,
      "t_trigger_us": 256037702,
      "is_ai": false,
      "track_id": 0,
      "velocity": 0,
      "is_motor": true,
      "motor_id": 0,
      "accel_val": 2000,
      "base_duration_us": 230769
    },
    {
      "id": "M_2888",
      "pitch": 90,
      "t_note_us": 256404434,
      "t_trigger_us": 256268471,
      "is_ai": true,
      "track_id": 0,
      "velocity": 0,
      "is_motor": true,
      "motor_id": 3,
      "accel_val": 2000,
      "base_duration_us": 461538
    },
    {
      "id": "M_2885",
      "pitch": 59,
      "t_note_us": 256404434,
      "t_trigger_us": 256268471,
      "is_ai": false,
      "track_id": 0,
      "velocity": 0,
      "is_motor": true,
      "motor_id": 0,
      "accel_val": 2000,
      "base_duration_us": 230769
    },
    {
      "id": "M_2886",
      "pitch": 62,
      "t_note_us": 256404434,
      "t_trigger_us": 256268471,
      "is_ai": false,
      "track_id": 0,
      "velocity": 0,
      "is_motor": true,
      "motor_id": 1,
      "accel_val": 2000,
      "base_duration_us": 230769
    },
    {
      "id": "M_2887",
      "pitch": 52,
      "t_note_us": 256635203,
      "t_trigger_us": 256499240,
      "is_ai": false,
      "track_id": 0,
      "velocity": 0,
      "is_motor": true,
      "motor_id": 0,
      "accel_val": 2000,
      "base_duration_us": 230769
    },
    {
      "id": "M_2889",
      "pitch": 74,
      "t_note_us": 256865972,
      "t_trigger_us": 256730009,
      "is_ai": false,
      "track_id": 0,
      "velocity": 0,
      "is_motor": true,
      "motor_id": 1,
      "accel_val": 2000,
      "base_duration_us": 115384
    },
    {
      "id": "M_2891",
      "pitch": 64,
      "t_note_us": 256865972,
      "t_trigger_us": 256730009,
      "is_ai": false,
      "track_id": 0,
      "velocity": 0,
      "is_motor": true,
      "motor_id": 0,
      "accel_val": 2000,
      "base_duration_us": 230768
    },
    {
      "id": "M_2892",
      "pitch": 59,
      "t_note_us": 256865972,
      "t_trigger_us": 256730009,
      "is_ai": false,
      "track_id": 0,
      "velocity": 0,
      "is_motor": true,
      "motor_id": 2,
      "accel_val": 2000,
      "base_duration_us": 230768
    },
    {
      "id": "M_2890",
      "pitch": 76,
      "t_note_us": 256981356,
      "t_trigger_us": 256845393,
      "is_ai": false,
      "track_id": 0,
      "velocity": 0,
      "is_motor": true,
      "motor_id": 1,
      "accel_val": 2000,
      "base_duration_us": 115384
    },
    {
      "id": "M_2893",
      "pitch": 67,
      "t_note_us": 257096740,
      "t_trigger_us": 256960777,
      "is_ai": false,
      "track_id": 0,
      "velocity": 0,
      "is_motor": true,
      "motor_id": 1,
      "accel_val": 2000,
      "base_duration_us": 115384
    },
    {
      "id": "M_2895",
      "pitch": 52,
      "t_note_us": 257096740,
      "t_trigger_us": 256960777,
      "is_ai": false,
      "track_id": 0,
      "velocity": 0,
      "is_motor": true,
      "motor_id": 0,
      "accel_val": 2000,
      "base_duration_us": 230768
    },
    {
      "id": "M_2894",
      "pitch": 93,
      "t_note_us": 257212124,
      "t_trigger_us": 257076161,
      "is_ai": true,
      "track_id": 8,
      "velocity": 0,
      "is_motor": false,
      "motor_id": 0,
      "accel_val": 2000,
      "base_duration_us": 115384
    },
    {
      "id": "M_2896",
      "pitch": 95,
      "t_note_us": 257327508,
      "t_trigger_us": 257191545,
      "is_ai": true,
      "track_id": 9,
      "velocity": 0,
      "is_motor": false,
      "motor_id": 0,
      "accel_val": 2000,
      "base_duration_us": 115384
    },
    {
      "id": "M_2898",
      "pitch": 59,
      "t_note_us": 257327508,
      "t_trigger_us": 257191545,
      "is_ai": false,
      "track_id": 0,
      "velocity": 0,
      "is_motor": true,
      "motor_id": 0,
      "accel_val": 2000,
      "base_duration_us": 230768
    },
    {
      "id": "M_2899",
      "pitch": 64,
      "t_note_us": 257327508,
      "t_trigger_us": 257191545,
      "is_ai": false,
      "track_id": 0,
      "velocity": 0,
      "is_motor": true,
      "motor_id": 1,
      "accel_val": 2000,
      "base_duration_us": 230768
    },
    {
      "id": "M_2897",
      "pitch": 100,
      "t_note_us": 257442892,
      "t_trigger_us": 257306929,
      "is_ai": true,
      "track_id": 12,
      "velocity": 0,
      "is_motor": false,
      "motor_id": 0,
      "accel_val": 2000,
      "base_duration_us": 115384
    },
    {
      "id": "M_2902",
      "pitch": 98,
      "t_note_us": 257558276,
      "t_trigger_us": 257422313,
      "is_ai": true,
      "track_id": 11,
      "velocity": 0,
      "is_motor": false,
      "motor_id": 0,
      "accel_val": 2000,
      "base_duration_us": 115384
    },
    {
      "id": "M_2900",
      "pitch": 64,
      "t_note_us": 257558276,
      "t_trigger_us": 257422313,
      "is_ai": false,
      "track_id": 0,
      "velocity": 0,
      "is_motor": true,
      "motor_id": 1,
      "accel_val": 2000,
      "base_duration_us": 115384
    },
    {
      "id": "M_2901",
      "pitch": 52,
      "t_note_us": 257558276,
      "t_trigger_us": 257422313,
      "is_ai": false,
      "track_id": 0,
      "velocity": 0,
      "is_motor": true,
      "motor_id": 0,
      "accel_val": 2000,
      "base_duration_us": 115384
    },
    {
      "id": "M_2903",
      "pitch": 52,
      "t_note_us": 257904429,
      "t_trigger_us": 257768466,
      "is_ai": false,
      "track_id": 0,
      "velocity": 0,
      "is_motor": true,
      "motor_id": 0,
      "accel_val": 2000,
      "base_duration_us": 115384
    },
    {
      "id": "M_2904",
      "pitch": 64,
      "t_note_us": 257904429,
      "t_trigger_us": 257768466,
      "is_ai": false,
      "track_id": 0,
      "velocity": 0,
      "is_motor": true,
      "motor_id": 1,
      "accel_val": 2000,
      "base_duration_us": 115384
    },
    {
      "id": "M_2905",
      "pitch": 76,
      "t_note_us": 257904429,
      "t_trigger_us": 257768466,
      "is_ai": false,
      "track_id": 0,
      "velocity": 0,
      "is_motor": true,
      "motor_id": 2,
      "accel_val": 2000,
      "base_duration_us": 115384
    },
    {
      "id": "M_2906",
      "pitch": 76,
      "t_note_us": 257904429,
      "t_trigger_us": 257768466,
      "is_ai": false,
      "track_id": 0,
      "velocity": 0,
      "is_motor": true,
      "motor_id": 3,
      "accel_val": 2000,
      "base_duration_us": 115384
    },
    {
      "id": "M_2907",
      "pitch": 91,
      "t_note_us": 258250582,
      "t_trigger_us": 258114619,
      "is_ai": true,
      "track_id": 7,
      "velocity": 0,
      "is_motor": false,
      "motor_id": 0,
      "accel_val": 2000,
      "base_duration_us": 346153
    },
    {
      "id": "M_2908",
      "pitch": 103,
      "t_note_us": 258250582,
      "t_trigger_us": 258114619,
      "is_ai": true,
      "track_id": 14,
      "velocity": 0,
      "is_motor": false,
      "motor_id": 0,
      "accel_val": 2000,
      "base_duration_us": 346153
    },
    {
      "id": "M_2909",
      "pitch": 52,
      "t_note_us": 258250582,
      "t_trigger_us": 258114619,
      "is_ai": false,
      "track_id": 0,
      "velocity": 0,
      "is_motor": true,
      "motor_id": 0,
      "accel_val": 2000,
      "base_duration_us": 346153
    },
    {
      "id": "M_2910",
      "pitch": 64,
      "t_note_us": 258250582,
      "t_trigger_us": 258114619,
      "is_ai": false,
      "track_id": 0,
      "velocity": 0,
      "is_motor": true,
      "motor_id": 1,
      "accel_val": 2000,
      "base_duration_us": 346153
    }
  ]
}