{
  "config": {
    "mode_idx": 0,
    "active_motors": [
      0,
      1,
      2,
      3
    ],
    "transpose": 0,
    "arp_speed_ms": 10,
    "gate_time": 100
  },
  "sustain_multiplier": 1.0,
  "notes": [
    {
      "id": "M_0",
      "pitch": 79,
      "t_note_us": 4137931,
      "t_trigger_us": 4001968,
      "is_ai": true,
      "track_id": 0,
      "velocity": 0,
      "is_motor": false,
      "motor_id": 0,
      "accel_val": 2000,
      "base_duration_us": 517240
    },
    {
      "id": "M_1",
      "pitch": 95,
      "t_note_us": 4137931,
      "t_trigger_us": 4001968,
      "is_ai": true,
      "track_id": 9,
      "velocity": 0,
      "is_motor": false,
      "motor_id": 0,
      "accel_val": 2000,
      "base_duration_us": 517240
    },
    {
      "id": "M_3",
      "pitch": 86,
      "t_note_us": 4396551,
      "t_trigger_us": 4260588,
      "is_ai": true,
      "track_id": 4,
      "velocity": 0,
      "is_motor": false,
      "motor_id": 0,
      "accel_val": 2000,
      "base_duration_us": 775860
    },
    {
      "id": "M_2",
      "pitch": 98,
      "t_note_us": 4655171,
      "t_trigger_us": 4519208,
      "is_ai": true,
      "track_id": 11,
      "velocity": 0,
      "is_motor": false,
      "motor_id": 0,
      "accel_val": 2000,
      "base_duration_us": 258620
    },
    {
      "id": "M_4",
      "pitch": 103,
      "t_note_us": 4913791,
      "t_trigger_us": 4777828,
      "is_ai": true,
      "track_id": 14,
      "velocity": 0,
      "is_motor": false,
      "motor_id": 0,
      "accel_val": 2000,
      "base_duration_us": 775861
    },
    {
      "id": "M_5",
      "pitch": 93,
      "t_note_us": 5689652,
      "t_trigger_us": 5553689,
      "is_ai": true,
      "track_id": 8,
      "velocity": 0,
      "is_motor": false,
      "motor_id": 0,
      "accel_val": 2000,
      "base_duration_us": 517238
    },
    {
      "id": "M_6",
      "pitch": 96,
      "t_note_us": 6034479,
      "t_trigger_us": 5898516,
      "is_ai": true,
      "track_id": 10,
      "velocity": 0,
      "is_motor": false,
      "motor_id": 0,
      "accel_val": 2000,
      "base_duration_us": 517238
    },
    {
      "id": "M_7",
      "pitch": 100,
      "t_note_us": 6077582,
      "t_trigger_us": 5941619,
      "is_ai": true,
      "track_id": 12,
      "velocity": 0,
      "is_motor": false,
      "motor_id": 0,
      "accel_val": 2000,
      "base_duration_us": 517238
    },
    {
      "id": "M_8",
      "pitch": 103,
      "t_note_us": 6120685,
      "t_trigger_us": 5984722,
      "is_ai": true,
      "track_id": 14,
      "velocity": 0,
      "is_motor": false,
      "motor_id": 0,
      "accel_val": 2000,
      "base_duration_us": 517238
    },
    {
      "id": "M_9",
      "pitch": 84,
      "t_note_us": 6129305,
      "t_trigger_us": 5993342,
      "is_ai": true,
      "track_id": 3,
      "velocity": 0,
      "is_motor": false,
      "motor_id": 0,
      "accel_val": 2000,
      "base_duration_us": 2068962
    },
    {
      "id": "M_10",
      "pitch": 95,
      "t_note_us": 6206890,
      "t_trigger_us": 6070927,
      "is_ai": true,
      "track_id": 9,
      "velocity": 0,
      "is_motor": false,
      "motor_id": 0,
      "accel_val": 2000,
      "base_duration_us": 2068963
    },
    {
      "id": "M_12",
      "pitch": 83,
      "t_note_us": 8275853,
      "t_trigger_us": 8139890,
      "is_ai": true,
      "track_id": 2,
      "velocity": 0,
      "is_motor": false,
      "motor_id": 0,
      "accel_val": 2000,
      "base_duration_us": 517240
    },
    {
      "id": "M_11",
      "pitch": 67,
      "t_note_us": 8275853,
      "t_trigger_us": 8139890,
      "is_ai": false,
      "track_id": 0,
      "velocity": 0,
      "is_motor": true,
      "motor_id": 1,
      "accel_val": 2000,
      "base_duration_us": 517240
    },
    {
      "id": "M_14",
      "pitch": 74,
      "t_note_us": 8534473,
      "t_trigger_us": 8398510,
      "is_ai": false,
      "track_id": 0,
      "velocity": 0,
      "is_motor": true,
      "motor_id": 0,
      "accel_val": 2000,
      "base_duration_us": 775860
    },
    {
      "id": "M_13",
      "pitch": 86,
      "t_note_us": 8793093,
      "t_trigger_us": 8657130,
      "is_ai": true,
      "track_id": 4,
      "velocity": 0,
      "is_motor": false,
      "motor_id": 0,
      "accel_val": 2000,
      "base_duration_us": 258620
    },
    {
      "id": "M_15",
      "pitch": 91,
      "t_note_us": 9051713,
      "t_trigger_us": 8915750,
      "is_ai": true,
      "track_id": 7,
      "velocity": 0,
      "is_motor": false,
      "motor_id": 0,
      "accel_val": 2000,
      "base_duration_us": 775861
    },
    {
      "id": "M_16",
      "pitch": 93,
      "t_note_us": 9827574,
      "t_trigger_us": 9691611,
      "is_ai": true,
      "track_id": 8,
      "velocity": 0,
      "is_motor": false,
      "motor_id": 0,
      "accel_val": 2000,
      "base_duration_us": 258620
    },
    {
      "id": "M_21",
      "pitch": 95,
      "t_note_us": 10086194,
      "t_trigger_us": 9950231,
      "is_ai": true,
      "track_id": 9,
      "velocity": 0,
      "is_motor": false,
      "motor_id": 0,
      "accel_val": 2000,
      "base_duration_us": 1293067
    },
    {
      "id": "M_17",
      "pitch": 60,
      "t_note_us": 10344813,
      "t_trigger_us": 10208850,
      "is_ai": false,
      "track_id": 0,
      "velocity": 0,
      "is_motor": true,
      "motor_id": 1,
      "accel_val": 2000,
      "base_duration_us": 258612
    },
    {
      "id": "M_18",
      "pitch": 67,
      "t_note_us": 10603425,
      "t_trigger_us": 10467462,
      "is_ai": false,
      "track_id": 0,
      "velocity": 0,
      "is_motor": true,
      "motor_id": 1,
      "accel_val": 2000,
      "base_duration_us": 258612
    },
    {
      "id": "M_19",
      "pitch": 74,
      "t_note_us": 10862037,
      "t_trigger_us": 10726074,
      "is_ai": false,
      "track_id": 0,
      "velocity": 0,
      "is_motor": true,
      "motor_id": 1,
      "accel_val": 2000,
      "base_duration_us": 258612
    },
    {
      "id": "M_20",
      "pitch": 76,
      "t_note_us": 11120649,
      "t_trigger_us": 10984686,
      "is_ai": false,
      "track_id": 0,
      "velocity": 0,
      "is_motor": true,
      "motor_id": 2,
      "accel_val": 2000,
      "base_duration_us": 258612
    },
    {
      "id": "M_24",
      "pitch": 88,
      "t_note_us": 11379261,
      "t_trigger_us": 11243298,
      "is_ai": true,
      "track_id": 5,
      "velocity": 0,
      "is_motor": false,
      "motor_id": 0,
      "accel_val": 2000,
      "base_duration_us": 1034448
    },
    {
      "id": "M_25",
      "pitch": 79,
      "t_note_us": 11379261,
      "t_trigger_us": 11243298,
      "is_ai": true,
      "track_id": 0,
      "velocity": 0,
      "is_motor": false,
      "motor_id": 0,
      "accel_val": 2000,
      "base_duration_us": 1034448
    },
    {
      "id": "M_23",
      "pitch": 76,
      "t_note_us": 11379261,
      "t_trigger_us": 11243298,
      "is_ai": false,
      "track_id": 0,
      "velocity": 0,
      "is_motor": true,
      "motor_id": 2,
      "accel_val": 2000,
      "base_duration_us": 1034448
    },
    {
      "id": "M_22",
      "pitch": 91,
      "t_note_us": 12155096,
      "t_trigger_us": 12019133,
      "is_ai": true,
      "track_id": 7,
      "velocity": 0,
      "is_motor": false,
      "motor_id": 0,
      "accel_val": 2000,
      "base_duration_us": 258613
    },
    {
      "id": "M_26",
      "pitch": 79,
      "t_note_us": 12155096,
      "t_trigger_us": 12019133,
      "is_ai": true,
      "track_id": 0,
      "velocity": 0,
      "is_motor": false,
      "motor_id": 0,
      "accel_val": 2000,
      "base_duration_us": 258613
    },
    {
      "id": "M_28",
      "pitch": 90,
      "t_note_us": 12413709,
      "t_trigger_us": 12277746,
      "is_ai": true,
      "track_id": 0,
      "velocity": 0,
      "is_motor": true,
      "motor_id": 3,
      "accel_val": 2000,
      "base_duration_us": 517240
    },
    {
      "id": "M_32",
      "pitch": 81,
      "t_note_us": 12413709,
      "t_trigger_us": 12277746,
      "is_ai": true,
      "track_id": 1,
      "velocity": 0,
      "is_motor": false,
      "motor_id": 0,
      "accel_val": 2000,
      "base_duration_us": 1034479
    },
    {
      "id": "M_33",
      "pitch": 90,
      "t_note_us": 12413709,
      "t_trigger_us": 12277746,
      "is_ai": true,
      "track_id": 0,
      "velocity": 0,
      "is_motor": true,
      "motor_id": 2,
      "accel_val": 2000,
      "base_duration_us": 1034479
    },
    {
      "id": "M_34",
      "pitch": 86,
      "t_note_us": 12413709,
      "t_trigger_us": 12277746,
      "is_ai": true,
      "track_id": 4,
      "velocity": 0,
      "is_motor": false,
      "motor_id": 0,
      "accel_val": 2000,
      "base_duration_us": 1034479
    },
    {
      "id": "M_41",
      "pitch": 81,
      "t_note_us": 12413709,
      "t_trigger_us": 12277746,
      "is_ai": true,
      "track_id": 1,
      "velocity": 0,
      "is_motor": false,
      "motor_id": 0,
      "accel_val": 2000,
      "base_duration_us": 1034479
    },
    {
      "id": "M_27",
      "pitch": 78,
      "t_note_us": 12413709,
      "t_trigger_us": 12277746,
      "is_ai": false,
      "track_id": 0,
      "velocity": 0,
      "is_motor": true,
      "motor_id": 1,
      "accel_val": 2000,
      "base_duration_us": 517240
    },
    {
      "id": "M_31",
      "pitch": 74,
      "t_note_us": 12413709,
      "t_trigger_us": 12277746,
      "is_ai": false,
      "track_id": 0,
      "velocity": 0,
      "is_motor": true,
      "motor_id": 0,
      "accel_val": 2000,
      "base_duration_us": 1034479
    },
    {
      "id": "M_35",
      "pitch": 62,
      "t_note_us": 12413709,
      "t_trigger_us": 12277746,
      "is_ai": false,
      "track_id": 0,
      "velocity": 0,
      "is_motor": true,
      "motor_id": 0,
      "accel_val": 2000,
      "base_duration_us": 1034479
    },
    {
      "id": "M_36",
      "pitch": 62,
      "t_note_us": 12413709,
      "t_trigger_us": 12277746,
      "is_ai": false,
      "track_id": 0,
      "velocity": 0,
      "is_motor": true,
      "motor_id": 0,
      "accel_val": 2000,
      "base_duration_us": 1034479
    },
    {
      "id": "M_37",
      "pitch": 74,
      "t_note_us": 12413709,
      "t_trigger_us": 12277746,
      "is_ai": false,
      "track_id": 0,
      "velocity": 0,
      "is_motor": true,
      "motor_id": 0,
      "accel_val": 2000,
      "base_duration_us": 1034479
    },
    {
      "id": "M_38",
      "pitch": 62,
      "t_note_us": 12413709,
      "t_trigger_us": 12277746,
      "is_ai": false,
      "track_id": 0,
      "velocity": 0,
      "is_motor": true,
      "motor_id": 0,
      "accel_val": 2000,
      "base_duration_us": 1034479
    },
    {
      "id": "M_39",
      "pitch": 74,
      "t_note_us": 12413709,
      "t_trigger_us": 12277746,
      "is_ai": false,
      "track_id": 0,
      "velocity": 0,
      "is_motor": true,
      "motor_id": 0,
      "accel_val": 2000,
      "base_duration_us": 1034479
    },
    {
      "id": "M_40",
      "pitch": 78,
      "t_note_us": 12413709,
      "t_trigger_us": 12277746,
      "is_ai": false,
      "track_id": 0,
      "velocity": 0,
      "is_motor": true,
      "motor_id": 0,
      "accel_val": 2000,
      "base_duration_us": 1034479
    },
    {
      "id": "M_29",
      "pitch": 79,
      "t_note_us": 12930949,
      "t_trigger_us": 12794986,
      "is_ai": true,
      "track_id": 0,
      "velocity": 0,
      "is_motor": false,
      "motor_id": 0,
      "accel_val": 2000,
      "base_duration_us": 258620
    },
    {
      "id": "M_30",
      "pitch": 91,
      "t_note_us": 12930949,
      "t_trigger_us": 12794986,
      "is_ai": true,
      "track_id": 7,
      "velocity": 0,
      "is_motor": false,
      "motor_id": 0,
      "accel_val": 2000,
      "base_duration_us": 258620
    },
    {
      "id": "M_43",
      "pitch": 90,
      "t_note_us": 13189569,
      "t_trigger_us": 13053606,
      "is_ai": true,
      "track_id": 0,
      "velocity": 0,
      "is_motor": true,
      "motor_id": 3,
      "accel_val": 2000,
      "base_duration_us": 775859
    },
    {
      "id": "M_42",
      "pitch": 78,
      "t_note_us": 13189569,
      "t_trigger_us": 13053606,
      "is_ai": false,
      "track_id": 0,
      "velocity": 0,
      "is_motor": true,
      "motor_id": 1,
      "accel_val": 2000,
      "base_duration_us": 775859
    },
    {
      "id": "M_47",
      "pitch": 79,
      "t_note_us": 13448188,
      "t_trigger_us": 13312225,
      "is_ai": true,
      "track_id": 0,
      "velocity": 0,
      "is_motor": false,
      "motor_id": 0,
      "accel_val": 2000,
      "base_duration_us": 1034480
    },
    {
      "id": "M_48",
      "pitch": 88,
      "t_note_us": 13448188,
      "t_trigger_us": 13312225,
      "is_ai": true,
      "track_id": 5,
      "velocity": 0,
      "is_motor": false,
      "motor_id": 0,
      "accel_val": 2000,
      "base_duration_us": 1034480
    },
    {
      "id": "M_49",
      "pitch": 84,
      "t_note_us": 13448188,
      "t_trigger_us": 13312225,
      "is_ai": true,
      "track_id": 3,
      "velocity": 0,
      "is_motor": false,
      "motor_id": 0,
      "accel_val": 2000,
      "base_duration_us": 1034480
    },
    {
      "id": "M_55",
      "pitch": 79,
      "t_note_us": 13448188,
      "t_trigger_us": 13312225,
      "is_ai": true,
      "track_id": 0,
      "velocity": 0,
      "is_motor": false,
      "motor_id": 0,
      "accel_val": 2000,
      "base_duration_us": 1034480
    },
    {
      "id": "M_46",
      "pitch": 60,
      "t_note_us": 13448188,
      "t_trigger_us": 13312225,
      "is_ai": false,
      "track_id": 0,
      "velocity": 0,
      "is_motor": true,
      "motor_id": 0,
      "accel_val": 2000,
      "base_duration_us": 1034480
    },
    {
      "id": "M_50",
      "pitch": 72,
      "t_note_us": 13448188,
      "t_trigger_us": 13312225,
      "is_ai": false,
      "track_id": 0,
      "velocity": 0,
      "is_motor": true,
      "motor_id": 2,
      "accel_val": 2000,
      "base_duration_us": 1034480
    },
    {
      "id": "M_51",
      "pitch": 60,
      "t_note_us": 13448188,
      "t_trigger_us": 13312225,
      "is_ai": false,
      "track_id": 0,
      "velocity": 0,
      "is_motor": true,
      "motor_id": 0,
      "accel_val": 2000,
      "base_duration_us": 1034480
    },
    {
      "id": "M_52",
      "pitch": 60,
      "t_note_us": 13448188,
      "t_trigger_us": 13312225,
      "is_ai": false,
      "track_id": 0,
      "velocity": 0,
      "is_motor": true,
      "motor_id": 0,
      "accel_val": 2000,
      "base_duration_us": 1034480
    },
    {
      "id": "M_53",
      "pitch": 72,
      "t_note_us": 13448188,
      "t_trigger_us": 13312225,
      "is_ai": false,
      "track_id": 0,
      "velocity": 0,
      "is_motor": true,
      "motor_id": 0,
      "accel_val": 2000,
      "base_duration_us": 1034480
    },
    {
      "id": "M_54",
      "pitch": 72,
      "t_note_us": 13448188,
      "t_trigger_us": 13312225,
      "is_ai": false,
      "track_id": 0,
      "velocity": 0,
      "is_motor": true,
      "motor_id": 0,
      "accel_val": 2000,
      "base_duration_us": 1034480
    },
    {
      "id": "M_56",
      "pitch": 76,
      "t_note_us": 13448188,
      "t_trigger_us": 13312225,
      "is_ai": false,
      "track_id": 0,
      "velocity": 0,
      "is_motor": true,
      "motor_id": 0,
      "accel_val": 2000,
      "base_duration_us": 1034480
    },
    {
      "id": "M_44",
      "pitch": 88,
      "t_note_us": 13965428,
      "t_trigger_us": 13829465,
      "is_ai": true,
      "track_id": 5,
      "velocity": 0,
      "is_motor": false,
      "motor_id": 0,
      "accel_val": 2000,
      "base_duration_us": 258620
    },
    {
      "id": "M_45",
      "pitch": 88,
      "t_note_us": 13965428,
      "t_trigger_us": 13829465,
      "is_ai": true,
      "track_id": 5,
      "velocity": 0,
      "is_motor": false,
      "motor_id": 0,
      "accel_val": 2000,
      "base_duration_us": 258620
    },
    {
      "id": "M_58",
      "pitch": 86,
      "t_note_us": 14224048,
      "t_trigger_us": 14088085,
      "is_ai": true,
      "track_id": 4,
      "velocity": 0,
      "is_motor": false,
      "motor_id": 0,
      "accel_val": 2000,
      "base_duration_us": 775860
    },
    {
      "id": "M_57",
      "pitch": 74,
      "t_note_us": 14224048,
      "t_trigger_us": 14088085,
      "is_ai": false,
      "track_id": 0,
      "velocity": 0,
      "is_motor": true,
      "motor_id": 1,
      "accel_val": 2000,
      "base_duration_us": 775860
    },
    {
      "id": "M_62",
      "pitch": 83,
      "t_note_us": 14482668,
      "t_trigger_us": 14346705,
      "is_ai": true,
      "track_id": 2,
      "velocity": 0,
      "is_motor": false,
      "motor_id": 0,
      "accel_val": 2000,
      "base_duration_us": 1034479
    },
    {
      "id": "M_63",
      "pitch": 86,
      "t_note_us": 14482668,
      "t_trigger_us": 14346705,
      "is_ai": true,
      "track_id": 4,
      "velocity": 0,
      "is_motor": false,
      "motor_id": 0,
      "accel_val": 2000,
      "base_duration_us": 1034479
    },
    {
      "id": "M_61",
      "pitch": 59,
      "t_note_us": 14482668,
      "t_trigger_us": 14346705,
      "is_ai": false,
      "track_id": 0,
      "velocity": 0,
      "is_motor": true,
      "motor_id": 0,
      "accel_val": 2000,
      "base_duration_us": 1034479
    },
    {
      "id": "M_64",
      "pitch": 78,
      "t_note_us": 14482668,
      "t_trigger_us": 14346705,
      "is_ai": false,
      "track_id": 0,
      "velocity": 0,
      "is_motor": true,
      "motor_id": 2,
      "accel_val": 2000,
      "base_duration_us": 1034479
    },
    {
      "id": "M_65",
      "pitch": 71,
      "t_note_us": 14482668,
      "t_trigger_us": 14346705,
      "is_ai": false,
      "track_id": 0,
      "velocity": 0,
      "is_motor": true,
      "motor_id": 3,
      "accel_val": 2000,
      "base_duration_us": 1034479
    },
    {
      "id": "M_66",
      "pitch": 59,
      "t_note_us": 14482668,
      "t_trigger_us": 14346705,
      "is_ai": false,
      "track_id": 0,
      "velocity": 0,
      "is_motor": true,
      "motor_id": 0,
      "accel_val": 2000,
      "base_duration_us": 1034479
    },
    {
      "id": "M_67",
      "pitch": 71,
      "t_note_us": 14482668,
      "t_trigger_us": 14346705,
      "is_ai": false,
      "track_id": 0,
      "velocity": 0,
      "is_motor": true,
      "motor_id": 0,
      "accel_val": 2000,
      "base_duration_us": 1034479
    },
    {
      "id": "M_68",
      "pitch": 59,
      "t_note_us": 14482668,
      "t_trigger_us": 14346705,
      "is_ai": false,
      "track_id": 0,
      "velocity": 0,
      "is_motor": true,
      "motor_id": 0,
      "accel_val": 2000,
      "base_duration_us": 1034479
    },
    {
      "id": "M_69",
      "pitch": 71,
      "t_note_us": 14482668,
      "t_trigger_us": 14346705,
      "is_ai": false,
      "track_id": 0,
      "velocity": 0,
      "is_motor": true,
      "motor_id": 0,
      "accel_val": 2000,
      "base_duration_us": 1034479
    },
    {
      "id": "M_70",
      "pitch": 78,
      "t_note_us": 14482668,
      "t_trigger_us": 14346705,
      "is_ai": false,
      "track_id": 0,
      "velocity": 0,
      "is_motor": true,
      "motor_id": 0,
      "accel_val": 2000,
      "base_duration_us": 1034479
    },
    {
      "id": "M_71",
      "pitch": 74,
      "t_note_us": 14482668,
      "t_trigger_us": 14346705,
      "is_ai": false,
      "track_id": 0,
      "velocity": 0,
      "is_motor": true,
      "motor_id": 0,
      "accel_val": 2000,
      "base_duration_us": 1034479
    },
    {
      "id": "M_59",
      "pitch": 81,
      "t_note_us": 14999908,
      "t_trigger_us": 14863945,
      "is_ai": true,
      "track_id": 1,
      "velocity": 0,
      "is_motor": false,
      "motor_id": 0,
      "accel_val": 2000,
      "base_duration_us": 258620
    },
    {
      "id": "M_60",
      "pitch": 93,
      "t_note_us": 14999908,
      "t_trigger_us": 14863945,
      "is_ai": true,
      "track_id": 8,
      "velocity": 0,
      "is_motor": false,
      "motor_id": 0,
      "accel_val": 2000,
      "base_duration_us": 258620
    },
    {
      "id": "M_72",
      "pitch": 79,
      "t_note_us": 15258528,
      "t_trigger_us": 15122565,
      "is_ai": true,
      "track_id": 0,
      "velocity": 0,
      "is_motor": false,
      "motor_id": 0,
      "accel_val": 2000,
      "base_duration_us": 775860
    },
    {
      "id": "M_73",
      "pitch": 91,
      "t_note_us": 15258528,
      "t_trigger_us": 15122565,
      "is_ai": true,
      "track_id": 7,
      "velocity": 0,
      "is_motor": false,
      "motor_id": 0,
      "accel_val": 2000,
      "base_duration_us": 775860
    },
    {
      "id": "M_77",
      "pitch": 83,
      "t_note_us": 15517147,
      "t_trigger_us": 15381184,
      "is_ai": true,
      "track_id": 2,
      "velocity": 0,
      "is_motor": false,
      "motor_id": 0,
      "accel_val": 2000,
      "base_duration_us": 1034480
    },
    {
      "id": "M_78",
      "pitch": 79,
      "t_note_us": 15517147,
      "t_trigger_us": 15381184,
      "is_ai": true,
      "track_id": 0,
      "velocity": 0,
      "is_motor": false,
      "motor_id": 0,
      "accel_val": 2000,
      "base_duration_us": 1034480
    },
    {
      "id": "M_85",
      "pitch": 79,
      "t_note_us": 15517147,
      "t_trigger_us": 15381184,
      "is_ai": true,
      "track_id": 0,
      "velocity": 0,
      "is_motor": false,
      "motor_id": 0,
      "accel_val": 2000,
      "base_duration_us": 1034480
    },
    {
      "id": "M_76",
      "pitch": 64,
      "t_note_us": 15517147,
      "t_trigger_us": 15381184,
      "is_ai": false,
      "track_id": 0,
      "velocity": 0,
      "is_motor": true,
      "motor_id": 1,
      "accel_val": 2000,
      "base_duration_us": 1034480
    },
    {
      "id": "M_79",
      "pitch": 52,
      "t_note_us": 15517147,
      "t_trigger_us": 15381184,
      "is_ai": false,
      "track_id": 0,
      "velocity": 0,
      "is_motor": true,
      "motor_id": 0,
      "accel_val": 2000,
      "base_duration_us": 1034480
    },
    {
      "id": "M_80",
      "pitch": 52,
      "t_note_us": 15517147,
      "t_trigger_us": 15381184,
      "is_ai": false,
      "track_id": 0,
      "velocity": 0,
      "is_motor": true,
      "motor_id": 2,
      "accel_val": 2000,
      "base_duration_us": 1034480
    },
    {
      "id": "M_81",
      "pitch": 64,
      "t_note_us": 15517147,
      "t_trigger_us": 15381184,
      "is_ai": false,
      "track_id": 0,
      "velocity": 0,
      "is_motor": true,
      "motor_id": 3,
      "accel_val": 2000,
      "base_duration_us": 1034480
    },
    {
      "id": "M_82",
      "pitch": 76,
      "t_note_us": 15517147,
      "t_trigger_us": 15381184,
      "is_ai": false,
      "track_id": 0,
      "velocity": 0,
      "is_motor": true,
      "motor_id": 0,
      "accel_val": 2000,
      "base_duration_us": 1034480
    },
    {
      "id": "M_83",
      "pitch": 76,
      "t_note_us": 15517147,
      "t_trigger_us": 15381184,
      "is_ai": false,
      "track_id": 0,
      "velocity": 0,
      "is_motor": true,
      "motor_id": 0,
      "accel_val": 2000,
      "base_duration_us": 1034480
    },
    {
      "id": "M_84",
      "pitch": 71,
      "t_note_us": 15517147,
      "t_trigger_us": 15381184,
      "is_ai": false,
      "track_id": 0,
      "velocity": 0,
      "is_motor": true,
      "motor_id": 0,
      "accel_val": 2000,
      "base_duration_us": 1034480
    },
    {
      "id": "M_75",
      "pitch": 83,
      "t_note_us": 16034388,
      "t_trigger_us": 15898425,
      "is_ai": true,
      "track_id": 2,
      "velocity": 0,
      "is_motor": false,
      "motor_id": 0,
      "accel_val": 2000,
      "base_duration_us": 258619
    },
    {
      "id": "M_74",
      "pitch": 71,
      "t_note_us": 16034388,
      "t_trigger_us": 15898425,
      "is_ai": false,
      "track_id": 0,
      "velocity": 0,
      "is_motor": true,
      "motor_id": 0,
      "accel_val": 2000,
      "base_duration_us": 258619
    },
    {
      "id": "M_87",
      "pitch": 84,
      "t_note_us": 16293007,
      "t_trigger_us": 16157044,
      "is_ai": true,
      "track_id": 3,
      "velocity": 0,
      "is_motor": false,
      "motor_id": 0,
      "accel_val": 2000,
      "base_duration_us": 775861
    },
    {
      "id": "M_86",
      "pitch": 72,
      "t_note_us": 16293007,
      "t_trigger_us": 16157044,
      "is_ai": false,
      "track_id": 0,
      "velocity": 0,
      "is_motor": true,
      "motor_id": 0,
      "accel_val": 2000,
      "base_duration_us": 775861
    },
    {
      "id": "M_93",
      "pitch": 84,
      "t_note_us": 16551627,
      "t_trigger_us": 16415664,
      "is_ai": true,
      "track_id": 3,
      "velocity": 0,
      "is_motor": false,
      "motor_id": 0,
      "accel_val": 2000,
      "base_duration_us": 1034480
    },
    {
      "id": "M_90",
      "pitch": 69,
      "t_note_us": 16551627,
      "t_trigger_us": 16415664,
      "is_ai": false,
      "track_id": 0,
      "velocity": 0,
      "is_motor": true,
      "motor_id": 1,
      "accel_val": 2000,
      "base_duration_us": 1034480
    },
    {
      "id": "M_91",
      "pitch": 76,
      "t_note_us": 16551627,
      "t_trigger_us": 16415664,
      "is_ai": false,
      "track_id": 0,
      "velocity": 0,
      "is_motor": true,
      "motor_id": 2,
      "accel_val": 2000,
      "base_duration_us": 1034480
    },
    {
      "id": "M_92",
      "pitch": 69,
      "t_note_us": 16551627,
      "t_trigger_us": 16415664,
      "is_ai": false,
      "track_id": 0,
      "velocity": 0,
      "is_motor": true,
      "motor_id": 0,
      "accel_val": 2000,
      "base_duration_us": 1034480
    },
    {
      "id": "M_94",
      "pitch": 57,
      "t_note_us": 16551627,
      "t_trigger_us": 16415664,
      "is_ai": false,
      "track_id": 0,
      "velocity": 0,
      "is_motor": true,
      "motor_id": 3,
      "accel_val": 2000,
      "base_duration_us": 1034480
    },
    {
      "id": "M_95",
      "pitch": 57,
      "t_note_us": 16551627,
      "t_trigger_us": 16415664,
      "is_ai": false,
      "track_id": 0,
      "velocity": 0,
      "is_motor": true,
      "motor_id": 0,
      "accel_val": 2000,
      "base_duration_us": 1034480
    },
    {
      "id": "M_96",
      "pitch": 69,
      "t_note_us": 16551627,
      "t_trigger_us": 16415664,
      "is_ai": false,
      "track_id": 0,
      "velocity": 0,
      "is_motor": true,
      "motor_id": 0,
      "accel_val": 2000,
      "base_duration_us": 1034480
    },
    {
      "id": "M_97",
      "pitch": 57,
      "t_note_us": 16551627,
      "t_trigger_us": 16415664,
      "is_ai": false,
      "track_id": 0,
      "velocity": 0,
      "is_motor": true,
      "motor_id": 0,
      "accel_val": 2000,
      "base_duration_us": 1034480
    },
    {
      "id": "M_98",
      "pitch": 69,
      "t_note_us": 16551627,
      "t_trigger_us": 16415664,
      "is_ai": false,
      "track_id": 0,
      "velocity": 0,
      "is_motor": true,
      "motor_id": 0,
      "accel_val": 2000,
      "base_duration_us": 1034480
    },
    {
      "id": "M_99",
      "pitch": 76,
      "t_note_us": 16551627,
      "t_trigger_us": 16415664,
      "is_ai": false,
      "track_id": 0,
      "velocity": 0,
      "is_motor": true,
      "motor_id": 0,
      "accel_val": 2000,
      "base_duration_us": 1034480
    },
    {
      "id": "M_100",
      "pitch": 72,
      "t_note_us": 16551627,
      "t_trigger_us": 16415664,
      "is_ai": false,
      "track_id": 0,
      "velocity": 0,
      "is_motor": true,
      "motor_id": 0,
      "accel_val": 2000,
      "base_duration_us": 1034480
    },
    {
      "id": "M_88",
      "pitch": 79,
      "t_note_us": 17068868,
      "t_trigger_us": 16932905,
      "is_ai": true,
      "track_id": 0,
      "velocity": 0,
      "is_motor": false,
      "motor_id": 0,
      "accel_val": 2000,
      "base_duration_us": 258620
    },
    {
      "id": "M_89",
      "pitch": 91,
      "t_note_us": 17068868,
      "t_trigger_us": 16932905,
      "is_ai": true,
      "track_id": 7,
      "velocity": 0,
      "is_motor": false,
      "motor_id": 0,
      "accel_val": 2000,
      "base_duration_us": 258620
    },
    {
      "id": "M_102",
      "pitch": 90,
      "t_note_us": 17327488,
      "t_trigger_us": 17191525,
      "is_ai": true,
      "track_id": 0,
      "velocity": 0,
      "is_motor": true,
      "motor_id": 0,
      "accel_val": 2000,
      "base_duration_us": 775859
    },
    {
      "id": "M_101",
      "pitch": 78,
      "t_note_us": 17327488,
      "t_trigger_us": 17191525,
      "is_ai": false,
      "track_id": 0,
      "velocity": 0,
      "is_motor": true,
      "motor_id": 0,
      "accel_val": 2000,
      "base_duration_us": 775859
    },
    {
      "id": "M_107",
      "pitch": 81,
      "t_note_us": 17586107,
      "t_trigger_us": 17450144,
      "is_ai": true,
      "track_id": 1,
      "velocity": 0,
      "is_motor": false,
      "motor_id": 0,
      "accel_val": 2000,
      "base_duration_us": 1034480
    },
    {
      "id": "M_106",
      "pitch": 74,
      "t_note_us": 17586107,
      "t_trigger_us": 17450144,
      "is_ai": false,
      "track_id": 0,
      "velocity": 0,
      "is_motor": true,
      "motor_id": 1,
      "accel_val": 2000,
      "base_duration_us": 1034480
    },
    {
      "id": "M_108",
      "pitch": 78,
      "t_note_us": 17586107,
      "t_trigger_us": 17450144,
      "is_ai": false,
      "track_id": 0,
      "velocity": 0,
      "is_motor": true,
      "motor_id": 2,
      "accel_val": 2000,
      "base_duration_us": 1034480
    },
    {
      "id": "M_109",
      "pitch": 62,
      "t_note_us": 17586107,
      "t_trigger_us": 17450144,
      "is_ai": false,
      "track_id": 0,
      "velocity": 0,
      "is_motor": true,
      "motor_id": 0,
      "accel_val": 2000,
      "base_duration_us": 1034480
    },
    {
      "id": "M_110",
      "pitch": 50,
      "t_note_us": 17586107,
      "t_trigger_us": 17450144,
      "is_ai": false,
      "track_id": 0,
      "velocity": 0,
      "is_motor": true,
      "motor_id": 3,
      "accel_val": 2000,
      "base_duration_us": 1034480
    },
    {
      "id": "M_113",
      "pitch": 74,
      "t_note_us": 17586107,
      "t_trigger_us": 17450144,
      "is_ai": false,
      "track_id": 0,
      "velocity": 0,
      "is_motor": true,
      "motor_id": 0,
      "accel_val": 2000,
      "base_duration_us": 1034480
    },
    {
      "id": "M_114",
      "pitch": 62,
      "t_note_us": 17586107,
      "t_trigger_us": 17450144,
      "is_ai": false,
      "track_id": 0,
      "velocity": 0,
      "is_motor": true,
      "motor_id": 0,
      "accel_val": 2000,
      "base_duration_us": 1034480
    },
    {
      "id": "M_115",
      "pitch": 78,
      "t_note_us": 17586107,
      "t_trigger_us": 17450144,
      "is_ai": false,
      "track_id": 0,
      "velocity": 0,
      "is_motor": true,
      "motor_id": 0,
      "accel_val": 2000,
      "base_duration_us": 1034480
    },
    {
      "id": "M_116",
      "pitch": 69,
      "t_note_us": 17586107,
      "t_trigger_us": 17450144,
      "is_ai": false,
      "track_id": 0,
      "velocity": 0,
      "is_motor": true,
      "motor_id": 0,
      "accel_val": 2000,
      "base_duration_us": 1034480
    },
    {
      "id": "M_117",
      "pitch": 74,
      "t_note_us": 17586107,
      "t_trigger_us": 17450144,
      "is_ai": false,
      "track_id": 0,
      "velocity": 0,
      "is_motor": true,
      "motor_id": 0,
      "accel_val": 2000,
      "base_duration_us": 1034480
    },
    {
      "id": "M_104",
      "pitch": 81,
      "t_note_us": 18103347,
      "t_trigger_us": 17967384,
      "is_ai": true,
      "track_id": 1,
      "velocity": 0,
      "is_motor": false,
      "motor_id": 0,
      "accel_val": 2000,
      "base_duration_us": 258620
    },
    {
      "id": "M_103",
      "pitch": 69,
      "t_note_us": 18103347,
      "t_trigger_us": 17967384,
      "is_ai": false,
      "track_id": 0,
      "velocity": 0,
      "is_motor": true,
      "motor_id": 0,
      "accel_val": 2000,
      "base_duration_us": 258620
    },
    {
      "id": "M_112",
      "pitch": 83,
      "t_note_us": 18361967,
      "t_trigger_us": 18226004,
      "is_ai": true,
      "track_id": 2,
      "velocity": 0,
      "is_motor": false,
      "motor_id": 0,
      "accel_val": 2000,
      "base_duration_us": 258620
    },
    {
      "id": "M_105",
      "pitch": 71,
      "t_note_us": 18361967,
      "t_trigger_us": 18226004,
      "is_ai": false,
      "track_id": 0,
      "velocity": 0,
      "is_motor": true,
      "motor_id": 0,
      "accel_val": 2000,
      "base_duration_us": 129310
    },
    {
      "id": "M_111",
      "pitch": 72,
      "t_note_us": 18491277,
      "t_trigger_us": 18355314,
      "is_ai": false,
      "track_id": 0,
      "velocity": 0,
      "is_motor": true,
      "motor_id": 0,
      "accel_val": 2000,
      "base_duration_us": 129310
    },
    {
      "id": "M_120",
      "pitch": 84,
      "t_note_us": 18620587,
      "t_trigger_us": 18484624,
      "is_ai": true,
      "track_id": 3,
      "velocity": 0,
      "is_motor": false,
      "motor_id": 0,
      "accel_val": 2000,
      "base_duration_us": 1034483
    },
    {
      "id": "M_171",
      "pitch": 79,
      "t_note_us": 18620587,
      "t_trigger_us": 18484624,
      "is_ai": true,
      "track_id": 0,
      "velocity": 0,
      "is_motor": false,
      "motor_id": 0,
      "accel_val": 2000,
      "base_duration_us": 8275730
    },
    {
      "id": "M_118",
      "pitch": 72,
      "t_note_us": 18620587,
      "t_trigger_us": 18484624,
      "is_ai": false,
      "track_id": 0,
      "velocity": 0,
      "is_motor": true,
      "motor_id": 1,
      "accel_val": 2000,
      "base_duration_us": 1034483
    },
    {
      "id": "M_119",
      "pitch": 76,
      "t_note_us": 18620587,
      "t_trigger_us": 18484624,
      "is_ai": false,
      "track_id": 0,
      "velocity": 0,
      "is_motor": true,
      "motor_id": 2,
      "accel_val": 2000,
      "base_duration_us": 1034483
    },
    {
      "id": "M_121",
      "pitch": 67,
      "t_note_us": 18620587,
      "t_trigger_us": 18484624,
      "is_ai": false,
      "track_id": 0,
      "velocity": 0,
      "is_motor": true,
      "motor_id": 0,
      "accel_val": 2000,
      "base_duration_us": 1034483
    },
    {
      "id": "M_122",
      "pitch": 60,
      "t_note_us": 18620587,
      "t_trigger_us": 18484624,
      "is_ai": false,
      "track_id": 0,
      "velocity": 0,
      "is_motor": true,
      "motor_id": 3,
      "accel_val": 2000,
      "base_duration_us": 1034483
    },
    {
      "id": "M_125",
      "pitch": 72,
      "t_note_us": 18620587,
      "t_trigger_us": 18484624,
      "is_ai": false,
      "track_id": 0,
      "velocity": 0,
      "is_motor": true,
      "motor_id": 0,
      "accel_val": 2000,
      "base_duration_us": 1810342
    },
    {
      "id": "M_129",
      "pitch": 72,
      "t_note_us": 18620587,
      "t_trigger_us": 18484624,
      "is_ai": false,
      "track_id": 0,
      "velocity": 0,
      "is_motor": true,
      "motor_id": 0,
      "accel_val": 2000,
      "base_duration_us": 2068960
    },
    {
      "id": "M_130",
      "pitch": 67,
      "t_note_us": 18620587,
      "t_trigger_us": 18484624,
      "is_ai": false,
      "track_id": 0,
      "velocity": 0,
      "is_motor": true,
      "motor_id": 0,
      "accel_val": 2000,
      "base_duration_us": 2068960
    },
    {
      "id": "M_131",
      "pitch": 76,
      "t_note_us": 18620587,
      "t_trigger_us": 18484624,
      "is_ai": false,
      "track_id": 0,
      "velocity": 0,
      "is_motor": true,
      "motor_id": 0,
      "accel_val": 2000,
      "base_duration_us": 2068960
    },
    {
      "id": "M_141",
      "pitch": 55,
      "t_note_us": 18620587,
      "t_trigger_us": 18484624,
      "is_ai": false,
      "track_id": 0,
      "velocity": 0,
      "is_motor": true,
      "motor_id": 0,
      "accel_val": 2000,
      "base_duration_us": 3913771
    },
    {
      "id": "M_172",
      "pitch": 67,
      "t_note_us": 18620587,
      "t_trigger_us": 18484624,
      "is_ai": false,
      "track_id": 0,
      "velocity": 0,
      "is_motor": true,
      "motor_id": 0,
      "accel_val": 2000,
      "base_duration_us": 8275730
    },
    {
      "id": "M_173",
      "pitch": 55,
      "t_note_us": 18620587,
      "t_trigger_us": 18484624,
      "is_ai": false,
      "track_id": 0,
      "velocity": 0,
      "is_motor": true,
      "motor_id": 0,
      "accel_val": 2000,
      "base_duration_us": 8275730
    },
    {
      "id": "M_123",
      "pitch": 88,
      "t_note_us": 19913690,
      "t_trigger_us": 19777727,
      "is_ai": true,
      "track_id": 5,
      "velocity": 0,
      "is_motor": false,
      "motor_id": 0,
      "accel_val": 2000,
      "base_duration_us": 258620
    },
    {
      "id": "M_124",
      "pitch": 79,
      "t_note_us": 20172310,
      "t_trigger_us": 20036347,
      "is_ai": true,
      "track_id": 0,
      "velocity": 0,
      "is_motor": false,
      "motor_id": 0,
      "accel_val": 2000,
      "base_duration_us": 258619
    },
    {
      "id": "M_127",
      "pitch": 91,
      "t_note_us": 20430929,
      "t_trigger_us": 20294966,
      "is_ai": true,
      "track_id": 7,
      "velocity": 0,
      "is_motor": false,
      "motor_id": 0,
      "accel_val": 2000,
      "base_duration_us": 258618
    },
    {
      "id": "M_126",
      "pitch": 71,
      "t_note_us": 20517135,
      "t_trigger_us": 20381172,
      "is_ai": false,
      "track_id": 0,
      "velocity": 0,
      "is_motor": true,
      "motor_id": 1,
      "accel_val": 2000,
      "base_duration_us": 86206
    },
    {
      "id": "M_128",
      "pitch": 69,
      "t_note_us": 20603341,
      "t_trigger_us": 20467378,
      "is_ai": false,
      "track_id": 0,
      "velocity": 0,
      "is_motor": true,
      "motor_id": 1,
      "accel_val": 2000,
      "base_duration_us": 86206
    },
    {
      "id": "M_132",
      "pitch": 79,
      "t_note_us": 20689547,
      "t_trigger_us": 20553584,
      "is_ai": true,
      "track_id": 0,
      "velocity": 0,
      "is_motor": false,
      "motor_id": 0,
      "accel_val": 2000,
      "base_duration_us": 1034481
    },
    {
      "id": "M_133",
      "pitch": 71,
      "t_note_us": 20689547,
      "t_trigger_us": 20553584,
      "is_ai": false,
      "track_id": 0,
      "velocity": 0,
      "is_motor": true,
      "motor_id": 1,
      "accel_val": 2000,
      "base_duration_us": 1034481
    },
    {
      "id": "M_134",
      "pitch": 74,
      "t_note_us": 20689547,
      "t_trigger_us": 20553584,
      "is_ai": false,
      "track_id": 0,
      "velocity": 0,
      "is_motor": true,
      "motor_id": 0,
      "accel_val": 2000,
      "base_duration_us": 1034481
    },
    {
      "id": "M_135",
      "pitch": 67,
      "t_note_us": 20689547,
      "t_trigger_us": 20553584,
      "is_ai": false,
      "track_id": 0,
      "velocity": 0,
      "is_motor": true,
      "motor_id": 2,
      "accel_val": 2000,
      "base_duration_us": 1034481
    },
    {
      "id": "M_136",
      "pitch": 71,
      "t_note_us": 20689547,
      "t_trigger_us": 20553584,
      "is_ai": false,
      "track_id": 0,
      "velocity": 0,
      "is_motor": true,
      "motor_id": 3,
      "accel_val": 2000,
      "base_duration_us": 1293097
    },
    {
      "id": "M_145",
      "pitch": 71,
      "t_note_us": 20689547,
      "t_trigger_us": 20553584,
      "is_ai": false,
      "track_id": 0,
      "velocity": 0,
      "is_motor": true,
      "motor_id": 0,
      "accel_val": 2000,
      "base_duration_us": 2068942
    },
    {
      "id": "M_146",
      "pitch": 67,
      "t_note_us": 20689547,
      "t_trigger_us": 20553584,
      "is_ai": false,
      "track_id": 0,
      "velocity": 0,
      "is_motor": true,
      "motor_id": 0,
      "accel_val": 2000,
      "base_duration_us": 2068942
    },
    {
      "id": "M_147",
      "pitch": 74,
      "t_note_us": 20689547,
      "t_trigger_us": 20553584,
      "is_ai": false,
      "track_id": 0,
      "velocity": 0,
      "is_motor": true,
      "motor_id": 0,
      "accel_val": 2000,
      "base_duration_us": 2068942
    },
    {
      "id": "M_137",
      "pitch": 86,
      "t_note_us": 21982644,
      "t_trigger_us": 21846681,
      "is_ai": true,
      "track_id": 4,
      "velocity": 0,
      "is_motor": false,
      "motor_id": 0,
      "accel_val": 2000,
      "base_duration_us": 258617
    },
    {
      "id": "M_138",
      "pitch": 74,
      "t_note_us": 21982644,
      "t_trigger_us": 21846681,
      "is_ai": false,
      "track_id": 0,
      "velocity": 0,
      "is_motor": true,
      "motor_id": 1,
      "accel_val": 2000,
      "base_duration_us": 258617
    },
    {
      "id": "M_139",
      "pitch": 91,
      "t_note_us": 22241261,
      "t_trigger_us": 22105298,
      "is_ai": true,
      "track_id": 7,
      "velocity": 0,
      "is_motor": false,
      "motor_id": 0,
      "accel_val": 2000,
      "base_duration_us": 258615
    },
    {
      "id": "M_140",
      "pitch": 79,
      "t_note_us": 22241261,
      "t_trigger_us": 22105298,
      "is_ai": true,
      "track_id": 0,
      "velocity": 0,
      "is_motor": false,
      "motor_id": 0,
      "accel_val": 2000,
      "base_duration_us": 258615
    },
    {
      "id": "M_142",
      "pitch": 98,
      "t_note_us": 22499876,
      "t_trigger_us": 22363913,
      "is_ai": true,
      "track_id": 11,
      "velocity": 0,
      "is_motor": false,
      "motor_id": 0,
      "accel_val": 2000,
      "base_duration_us": 258613
    },
    {
      "id": "M_144",
      "pitch": 86,
      "t_note_us": 22499876,
      "t_trigger_us": 22363913,
      "is_ai": true,
      "track_id": 4,
      "velocity": 0,
      "is_motor": false,
      "motor_id": 0,
      "accel_val": 2000,
      "base_duration_us": 258613
    },
    {
      "id": "M_143",
      "pitch": 50,
      "t_note_us": 22499876,
      "t_trigger_us": 22363913,
      "is_ai": false,
      "track_id": 0,
      "velocity": 0,
      "is_motor": true,
      "motor_id": 0,
      "accel_val": 2000,
      "base_duration_us": 258613
    },
    {
      "id": "M_148",
      "pitch": 81,
      "t_note_us": 22758489,
      "t_trigger_us": 22622526,
      "is_ai": true,
      "track_id": 1,
      "velocity": 0,
      "is_motor": false,
      "motor_id": 0,
      "accel_val": 2000,
      "base_duration_us": 775839
    },
    {
      "id": "M_150",
      "pitch": 98,
      "t_note_us": 22758489,
      "t_trigger_us": 22622526,
      "is_ai": true,
      "track_id": 11,
      "velocity": 0,
      "is_motor": false,
      "motor_id": 0,
      "accel_val": 2000,
      "base_duration_us": 956868
    },
    {
      "id": "M_151",
      "pitch": 91,
      "t_note_us": 22758489,
      "t_trigger_us": 22622526,
      "is_ai": true,
      "track_id": 7,
      "velocity": 0,
      "is_motor": false,
      "motor_id": 0,
      "accel_val": 2000,
      "base_duration_us": 1034452
    },
    {
      "id": "M_156",
      "pitch": 67,
      "t_note_us": 22758489,
      "t_trigger_us": 22622526,
      "is_ai": false,
      "track_id": 0,
      "velocity": 0,
      "is_motor": true,
      "motor_id": 1,
      "accel_val": 2000,
      "base_duration_us": 2068910
    },
    {
      "id": "M_157",
      "pitch": 67,
      "t_note_us": 22758489,
      "t_trigger_us": 22622526,
      "is_ai": false,
      "track_id": 0,
      "velocity": 0,
      "is_motor": true,
      "motor_id": 2,
      "accel_val": 2000,
      "base_duration_us": 2068910
    },
    {
      "id": "M_159",
      "pitch": 62,
      "t_note_us": 22758489,
      "t_trigger_us": 22622526,
      "is_ai": false,
      "track_id": 0,
      "velocity": 0,
      "is_motor": true,
      "motor_id": 0,
      "accel_val": 2000,
      "base_duration_us": 2068910
    },
    {
      "id": "M_161",
      "pitch": 67,
      "t_note_us": 22758489,
      "t_trigger_us": 22622526,
      "is_ai": false,
      "track_id": 0,
      "velocity": 0,
      "is_motor": true,
      "motor_id": 3,
      "accel_val": 2000,
      "base_duration_us": 2068910
    },
    {
      "id": "M_162",
      "pitch": 76,
      "t_note_us": 22758489,
      "t_trigger_us": 22622526,
      "is_ai": false,
      "track_id": 0,
      "velocity": 0,
      "is_motor": true,
      "motor_id": 0,
      "accel_val": 2000,
      "base_duration_us": 2068910
    },
    {
      "id": "M_163",
      "pitch": 72,
      "t_note_us": 22758489,
      "t_trigger_us": 22622526,
      "is_ai": false,
      "track_id": 0,
      "velocity": 0,
      "is_motor": true,
      "motor_id": 0,
      "accel_val": 2000,
      "base_duration_us": 2068910
    },
    {
      "id": "M_152",
      "pitch": 86,
      "t_note_us": 23534328,
      "t_trigger_us": 23398365,
      "is_ai": true,
      "track_id": 4,
      "velocity": 0,
      "is_motor": false,
      "motor_id": 0,
      "accel_val": 2000,
      "base_duration_us": 517228
    },
    {
      "id": "M_149",
      "pitch": 95,
      "t_note_us": 23663635,
      "t_trigger_us": 23527672,
      "is_ai": true,
      "track_id": 9,
      "velocity": 0,
      "is_motor": false,
      "motor_id": 0,
      "accel_val": 2000,
      "base_duration_us": 8620
    },
    {
      "id": "M_155",
      "pitch": 98,
      "t_note_us": 23715357,
      "t_trigger_us": 23579394,
      "is_ai": true,
      "track_id": 11,
      "velocity": 0,
      "is_motor": false,
      "motor_id": 0,
      "accel_val": 2000,
      "base_duration_us": 1103422
    },
    {
      "id": "M_158",
      "pitch": 103,
      "t_note_us": 23792941,
      "t_trigger_us": 23656978,
      "is_ai": true,
      "track_id": 14,
      "velocity": 0,
      "is_motor": false,
      "motor_id": 0,
      "accel_val": 2000,
      "base_duration_us": 1034458
    },
    {
      "id": "M_153",
      "pitch": 84,
      "t_note_us": 24051556,
      "t_trigger_us": 23915593,
      "is_ai": true,
      "track_id": 3,
      "velocity": 0,
      "is_motor": false,
      "motor_id": 0,
      "accel_val": 2000,
      "base_duration_us": 603434
    },
    {
      "id": "M_154",
      "pitch": 83,
      "t_note_us": 24654990,
      "t_trigger_us": 24519027,
      "is_ai": true,
      "track_id": 2,
      "velocity": 0,
      "is_motor": false,
      "motor_id": 0,
      "accel_val": 2000,
      "base_duration_us": 86205
    },
    {
      "id": "M_160",
      "pitch": 84,
      "t_note_us": 24741195,
      "t_trigger_us": 24605232,
      "is_ai": true,
      "track_id": 3,
      "velocity": 0,
      "is_motor": false,
      "motor_id": 0,
      "accel_val": 2000,
      "base_duration_us": 86204
    },
    {
      "id": "M_164",
      "pitch": 86,
      "t_note_us": 24827399,
      "t_trigger_us": 24691436,
      "is_ai": true,
      "track_id": 4,
      "velocity": 0,
      "is_motor": false,
      "motor_id": 0,
      "accel_val": 2000,
      "base_duration_us": 2068918
    },
    {
      "id": "M_165",
      "pitch": 91,
      "t_note_us": 24827399,
      "t_trigger_us": 24691436,
      "is_ai": true,
      "track_id": 7,
      "velocity": 0,
      "is_motor": false,
      "motor_id": 0,
      "accel_val": 2000,
      "base_duration_us": 2068918
    },
    {
      "id": "M_168",
      "pitch": 95,
      "t_note_us": 24827399,
      "t_trigger_us": 24691436,
      "is_ai": true,
      "track_id": 9,
      "velocity": 0,
      "is_motor": false,
      "motor_id": 0,
      "accel_val": 2000,
      "base_duration_us": 2068918
    },
    {
      "id": "M_174",
      "pitch": 86,
      "t_note_us": 24827399,
      "t_trigger_us": 24691436,
      "is_ai": true,
      "track_id": 4,
      "velocity": 0,
      "is_motor": false,
      "motor_id": 0,
      "accel_val": 2000,
      "base_duration_us": 2068918
    },
    {
      "id": "M_166",
      "pitch": 55,
      "t_note_us": 24827399,
      "t_trigger_us": 24691436,
      "is_ai": false,
      "track_id": 0,
      "velocity": 0,
      "is_motor": true,
      "motor_id": 0,
      "accel_val": 2000,
      "base_duration_us": 2068918
    },
    {
      "id": "M_167",
      "pitch": 67,
      "t_note_us": 24827399,
      "t_trigger_us": 24691436,
      "is_ai": false,
      "track_id": 0,
      "velocity": 0,
      "is_motor": true,
      "motor_id": 1,
      "accel_val": 2000,
      "base_duration_us": 2068918
    },
    {
      "id": "M_169",
      "pitch": 55,
      "t_note_us": 24827399,
      "t_trigger_us": 24691436,
      "is_ai": false,
      "track_id": 0,
      "velocity": 0,
      "is_motor": true,
      "motor_id": 2,
      "accel_val": 2000,
      "base_duration_us": 2068918
    },
    {
      "id": "M_170",
      "pitch": 69,
      "t_note_us": 24827399,
      "t_trigger_us": 24691436,
      "is_ai": false,
      "track_id": 0,
      "velocity": 0,
      "is_motor": true,
      "motor_id": 3,
      "accel_val": 2000,
      "base_duration_us": 2068918
    },
    {
      "id": "M_175",
      "pitch": 71,
      "t_note_us": 24827399,
      "t_trigger_us": 24691436,
      "is_ai": false,
      "track_id": 0,
      "velocity": 0,
      "is_motor": true,
      "motor_id": 0,
      "accel_val": 2000,
      "base_duration_us": 2068918
    },
    {
      "id": "M_176",
      "pitch": 67,
      "t_note_us": 24827399,
      "t_trigger_us": 24691436,
      "is_ai": false,
      "track_id": 0,
      "velocity": 0,
      "is_motor": true,
      "motor_id": 0,
      "accel_val": 2000,
      "base_duration_us": 2068918
    },
    {
      "id": "M_177",
      "pitch": 86,
      "t_note_us": 26896317,
      "t_trigger_us": 26760354,
      "is_ai": true,
      "track_id": 4,
      "velocity": 0,
      "is_motor": false,
      "motor_id": 0,
      "accel_val": 2000,
      "base_duration_us": 258620
    },
    {
      "id": "M_179",
      "pitch": 55,
      "t_note_us": 26896317,
      "t_trigger_us": 26760354,
      "is_ai": false,
      "track_id": 0,
      "velocity": 0,
      "is_motor": true,
      "motor_id": 0,
      "accel_val": 2000,
      "base_duration_us": 517240
    },
    {
      "id": "M_184",
      "pitch": 71,
      "t_note_us": 26896317,
      "t_trigger_us": 26760354,
      "is_ai": false,
      "track_id": 0,
      "velocity": 0,
      "is_motor": true,
      "motor_id": 1,
      "accel_val": 2000,
      "base_duration_us": 1034480
    },
    {
      "id": "M_185",
      "pitch": 67,
      "t_note_us": 26896317,
      "t_trigger_us": 26760354,
      "is_ai": false,
      "track_id": 0,
      "velocity": 0,
      "is_motor": true,
      "motor_id": 2,
      "accel_val": 2000,
      "base_duration_us": 1034480
    },
    {
      "id": "M_186",
      "pitch": 74,
      "t_note_us": 26896317,
      "t_trigger_us": 26760354,
      "is_ai": false,
      "track_id": 0,
      "velocity": 0,
      "is_motor": true,
      "motor_id": 3,
      "accel_val": 2000,
      "base_duration_us": 1034480
    },
    {
      "id": "M_178",
      "pitch": 83,
      "t_note_us": 27154937,
      "t_trigger_us": 27018974,
      "is_ai": true,
      "track_id": 2,
      "velocity": 0,
      "is_motor": false,
      "motor_id": 0,
      "accel_val": 2000,
      "base_duration_us": 258620
    },
    {
      "id": "M_180",
      "pitch": 83,
      "t_note_us": 27413557,
      "t_trigger_us": 27277594,
      "is_ai": true,
      "track_id": 2,
      "velocity": 0,
      "is_motor": false,
      "motor_id": 0,
      "accel_val": 2000,
      "base_duration_us": 258620
    },
    {
      "id": "M_181",
      "pitch": 62,
      "t_note_us": 27413557,
      "t_trigger_us": 27277594,
      "is_ai": false,
      "track_id": 0,
      "velocity": 0,
      "is_motor": true,
      "motor_id": 0,
      "accel_val": 2000,
      "base_duration_us": 258620
    },
    {
      "id": "M_182",
      "pitch": 81,
      "t_note_us": 27672177,
      "t_trigger_us": 27536214,
      "is_ai": true,
      "track_id": 1,
      "velocity": 0,
      "is_motor": false,
      "motor_id": 0,
      "accel_val": 2000,
      "base_duration_us": 258620
    },
    {
      "id": "M_183",
      "pitch": 67,
      "t_note_us": 27672177,
      "t_trigger_us": 27536214,
      "is_ai": false,
      "track_id": 0,
      "velocity": 0,
      "is_motor": true,
      "motor_id": 0,
      "accel_val": 2000,
      "base_duration_us": 258620
    },
    {
      "id": "M_187",
      "pitch": 83,
      "t_note_us": 27930797,
      "t_trigger_us": 27794834,
      "is_ai": true,
      "track_id": 2,
      "velocity": 0,
      "is_motor": false,
      "motor_id": 0,
      "accel_val": 2000,
      "base_duration_us": 258620
    },
    {
      "id": "M_188",
      "pitch": 69,
      "t_note_us": 27930797,
      "t_trigger_us": 27794834,
      "is_ai": false,
      "track_id": 0,
      "velocity": 0,
      "is_motor": true,
      "motor_id": 1,
      "accel_val": 2000,
      "base_duration_us": 258620
    },
    {
      "id": "M_189",
      "pitch": 81,
      "t_note_us": 28189417,
      "t_trigger_us": 28053454,
      "is_ai": true,
      "track_id": 1,
      "velocity": 0,
      "is_motor": false,
      "motor_id": 0,
      "accel_val": 2000,
      "base_duration_us": 258620
    },
    {
      "id": "M_190",
      "pitch": 71,
      "t_note_us": 28189417,
      "t_trigger_us": 28053454,
      "is_ai": false,
      "track_id": 0,
      "velocity": 0,
      "is_motor": true,
      "motor_id": 1,
      "accel_val": 2000,
      "base_duration_us": 258620
    },
    {
      "id": "M_191",
      "pitch": 83,
      "t_note_us": 28448037,
      "t_trigger_us": 28312074,
      "is_ai": true,
      "track_id": 2,
      "velocity": 0,
      "is_motor": false,
      "motor_id": 0,
      "accel_val": 2000,
      "base_duration_us": 258619
    },
    {
      "id": "M_192",
      "pitch": 74,
      "t_note_us": 28448037,
      "t_trigger_us": 28312074,
      "is_ai": false,
      "track_id": 0,
      "velocity": 0,
      "is_motor": true,
      "motor_id": 1,
      "accel_val": 2000,
      "base_duration_us": 258619
    },
    {
      "id": "M_193",
      "pitch": 86,
      "t_note_us": 28706656,
      "t_trigger_us": 28570693,
      "is_ai": true,
      "track_id": 4,
      "velocity": 0,
      "is_motor": false,
      "motor_id": 0,
      "accel_val": 2000,
      "base_duration_us": 258619
    },
    {
      "id": "M_194",
      "pitch": 79,
      "t_note_us": 28706656,
      "t_trigger_us": 28570693,
      "is_ai": true,
      "track_id": 0,
      "velocity": 0,
      "is_motor": false,
      "motor_id": 0,
      "accel_val": 2000,
      "base_duration_us": 258619
    },
    {
      "id": "M_195",
      "pitch": 86,
      "t_note_us": 28965275,
      "t_trigger_us": 28829312,
      "is_ai": true,
      "track_id": 4,
      "velocity": 0,
      "is_motor": false,
      "motor_id": 0,
      "accel_val": 2000,
      "base_duration_us": 258620
    },
    {
      "id": "M_197",
      "pitch": 59,
      "t_note_us": 28965275,
      "t_trigger_us": 28829312,
      "is_ai": false,
      "track_id": 0,
      "velocity": 0,
      "is_motor": true,
      "motor_id": 0,
      "accel_val": 2000,
      "base_duration_us": 517240
    },
    {
      "id": "M_202",
      "pitch": 74,
      "t_note_us": 28965275,
      "t_trigger_us": 28829312,
      "is_ai": false,
      "track_id": 0,
      "velocity": 0,
      "is_motor": true,
      "motor_id": 1,
      "accel_val": 2000,
      "base_duration_us": 1034480
    },
    {
      "id": "M_203",
      "pitch": 78,
      "t_note_us": 28965275,
      "t_trigger_us": 28829312,
      "is_ai": false,
      "track_id": 0,
      "velocity": 0,
      "is_motor": true,
      "motor_id": 2,
      "accel_val": 2000,
      "base_duration_us": 1034480
    },
    {
      "id": "M_204",
      "pitch": 71,
      "t_note_us": 28965275,
      "t_trigger_us": 28829312,
      "is_ai": false,
      "track_id": 0,
      "velocity": 0,
      "is_motor": true,
      "motor_id": 3,
      "accel_val": 2000,
      "base_duration_us": 1034480
    },
    {
      "id": "M_196",
      "pitch": 83,
      "t_note_us": 29223895,
      "t_trigger_us": 29087932,
      "is_ai": true,
      "track_id": 2,
      "velocity": 0,
      "is_motor": false,
      "motor_id": 0,
      "accel_val": 2000,
      "base_duration_us": 258620
    },
    {
      "id": "M_198",
      "pitch": 83,
      "t_note_us": 29482515,
      "t_trigger_us": 29346552,
      "is_ai": true,
      "track_id": 2,
      "velocity": 0,
      "is_motor": false,
      "motor_id": 0,
      "accel_val": 2000,
      "base_duration_us": 258620
    },
    {
      "id": "M_199",
      "pitch": 66,
      "t_note_us": 29482515,
      "t_trigger_us": 29346552,
      "is_ai": false,
      "track_id": 0,
      "velocity": 0,
      "is_motor": true,
      "motor_id": 0,
      "accel_val": 2000,
      "base_duration_us": 258620
    },
    {
      "id": "M_200",
      "pitch": 81,
      "t_note_us": 29741135,
      "t_trigger_us": 29605172,
      "is_ai": true,
      "track_id": 1,
      "velocity": 0,
      "is_motor": false,
      "motor_id": 0,
      "accel_val": 2000,
      "base_duration_us": 258620
    },
    {
      "id": "M_201",
      "pitch": 69,
      "t_note_us": 29741135,
      "t_trigger_us": 29605172,
      "is_ai": false,
      "track_id": 0,
      "velocity": 0,
      "is_motor": true,
      "motor_id": 0,
      "accel_val": 2000,
      "base_duration_us": 258620
    },
    {
      "id": "M_205",
      "pitch": 83,
      "t_note_us": 29999755,
      "t_trigger_us": 29863792,
      "is_ai": true,
      "track_id": 2,
      "velocity": 0,
      "is_motor": false,
      "motor_id": 0,
      "accel_val": 2000,
      "base_duration_us": 258620
    },
    {
      "id": "M_215",
      "pitch": 83,
      "t_note_us": 29999755,
      "t_trigger_us": 29863792,
      "is_ai": true,
      "track_id": 2,
      "velocity": 0,
      "is_motor": false,
      "motor_id": 0,
      "accel_val": 2000,
      "base_duration_us": 1034479
    },
    {
      "id": "M_206",
      "pitch": 71,
      "t_note_us": 29999755,
      "t_trigger_us": 29863792,
      "is_ai": false,
      "track_id": 0,
      "velocity": 0,
      "is_motor": true,
      "motor_id": 1,
      "accel_val": 2000,
      "base_duration_us": 258620
    },
    {
      "id": "M_213",
      "pitch": 78,
      "t_note_us": 29999755,
      "t_trigger_us": 29863792,
      "is_ai": false,
      "track_id": 0,
      "velocity": 0,
      "is_motor": true,
      "motor_id": 2,
      "accel_val": 2000,
      "base_duration_us": 1034479
    },
    {
      "id": "M_214",
      "pitch": 74,
      "t_note_us": 29999755,
      "t_trigger_us": 29863792,
      "is_ai": false,
      "track_id": 0,
      "velocity": 0,
      "is_motor": true,
      "motor_id": 0,
      "accel_val": 2000,
      "base_duration_us": 1034479
    },
    {
      "id": "M_207",
      "pitch": 81,
      "t_note_us": 30258375,
      "t_trigger_us": 30122412,
      "is_ai": true,
      "track_id": 1,
      "velocity": 0,
      "is_motor": false,
      "motor_id": 0,
      "accel_val": 2000,
      "base_duration_us": 258620
    },
    {
      "id": "M_208",
      "pitch": 66,
      "t_note_us": 30258375,
      "t_trigger_us": 30122412,
      "is_ai": false,
      "track_id": 0,
      "velocity": 0,
      "is_motor": true,
      "motor_id": 1,
      "accel_val": 2000,
      "base_duration_us": 258620
    },
    {
      "id": "M_209",
      "pitch": 83,
      "t_note_us": 30516995,
      "t_trigger_us": 30381032,
      "is_ai": true,
      "track_id": 2,
      "velocity": 0,
      "is_motor": false,
      "motor_id": 0,
      "accel_val": 2000,
      "base_duration_us": 258620
    },
    {
      "id": "M_210",
      "pitch": 62,
      "t_note_us": 30516995,
      "t_trigger_us": 30381032,
      "is_ai": false,
      "track_id": 0,
      "velocity": 0,
      "is_motor": true,
      "motor_id": 1,
      "accel_val": 2000,
      "base_duration_us": 258620
    },
    {
      "id": "M_211",
      "pitch": 86,
      "t_note_us": 30775615,
      "t_trigger_us": 30639652,
      "is_ai": true,
      "track_id": 4,
      "velocity": 0,
      "is_motor": false,
      "motor_id": 0,
      "accel_val": 2000,
      "base_duration_us": 258619
    },
    {
      "id": "M_212",
      "pitch": 66,
      "t_note_us": 30775615,
      "t_trigger_us": 30639652,
      "is_ai": false,
      "track_id": 0,
      "velocity": 0,
      "is_motor": true,
      "motor_id": 1,
      "accel_val": 2000,
      "base_duration_us": 258619
    },
    {
      "id": "M_216",
      "pitch": 91,
      "t_note_us": 31034234,
      "t_trigger_us": 30898271,
      "is_ai": true,
      "track_id": 7,
      "velocity": 0,
      "is_motor": false,
      "motor_id": 0,
      "accel_val": 2000,
      "base_duration_us": 258620
    },
    {
      "id": "M_220",
      "pitch": 60,
      "t_note_us": 31034234,
      "t_trigger_us": 30898271,
      "is_ai": false,
      "track_id": 0,
      "velocity": 0,
      "is_motor": true,
      "motor_id": 1,
      "accel_val": 2000,
      "base_duration_us": 1034480
    },
    {
      "id": "M_221",
      "pitch": 76,
      "t_note_us": 31034234,
      "t_trigger_us": 30898271,
      "is_ai": false,
      "track_id": 0,
      "velocity": 0,
      "is_motor": true,
      "motor_id": 2,
      "accel_val": 2000,
      "base_duration_us": 1034480
    },
    {
      "id": "M_222",
      "pitch": 72,
      "t_note_us": 31034234,
      "t_trigger_us": 30898271,
      "is_ai": false,
      "track_id": 0,
      "velocity": 0,
      "is_motor": true,
      "motor_id": 0,
      "accel_val": 2000,
      "base_duration_us": 1034480
    },
    {
      "id": "M_223",
      "pitch": 48,
      "t_note_us": 31034234,
      "t_trigger_us": 30898271,
      "is_ai": false,
      "track_id": 0,
      "velocity": 0,
      "is_motor": true,
      "motor_id": 3,
      "accel_val": 2000,
      "base_duration_us": 1034480
    },
    {
      "id": "M_217",
      "pitch": 88,
      "t_note_us": 31292854,
      "t_trigger_us": 31156891,
      "is_ai": true,
      "track_id": 5,
      "velocity": 0,
      "is_motor": false,
      "motor_id": 0,
      "accel_val": 2000,
      "base_duration_us": 258620
    },
    {
      "id": "M_218",
      "pitch": 88,
      "t_note_us": 31551474,
      "t_trigger_us": 31415511,
      "is_ai": true,
      "track_id": 5,
      "velocity": 0,
      "is_motor": false,
      "motor_id": 0,
      "accel_val": 2000,
      "base_duration_us": 258620
    },
    {
      "id": "M_219",
      "pitch": 86,
      "t_note_us": 31810094,
      "t_trigger_us": 31674131,
      "is_ai": true,
      "track_id": 4,
      "velocity": 0,
      "is_motor": false,
      "motor_id": 0,
      "accel_val": 2000,
      "base_duration_us": 258620
    },
    {
      "id": "M_224",
      "pitch": 88,
      "t_note_us": 32068714,
      "t_trigger_us": 31932751,
      "is_ai": true,
      "track_id": 5,
      "velocity": 0,
      "is_motor": false,
      "motor_id": 0,
      "accel_val": 2000,
      "base_duration_us": 258620
    },
    {
      "id": "M_227",
      "pitch": 50,
      "t_note_us": 32068714,
      "t_trigger_us": 31932751,
      "is_ai": false,
      "track_id": 0,
      "velocity": 0,
      "is_motor": true,
      "motor_id": 0,
      "accel_val": 2000,
      "base_duration_us": 1034479
    },
    {
      "id": "M_228",
      "pitch": 69,
      "t_note_us": 32068714,
      "t_trigger_us": 31932751,
      "is_ai": false,
      "track_id": 0,
      "velocity": 0,
      "is_motor": true,
      "motor_id": 1,
      "accel_val": 2000,
      "base_duration_us": 1034479
    },
    {
      "id": "M_229",
      "pitch": 74,
      "t_note_us": 32068714,
      "t_trigger_us": 31932751,
      "is_ai": false,
      "track_id": 0,
      "velocity": 0,
      "is_motor": true,
      "motor_id": 2,
      "accel_val": 2000,
      "base_duration_us": 1034479
    },
    {
      "id": "M_230",
      "pitch": 62,
      "t_note_us": 32068714,
      "t_trigger_us": 31932751,
      "is_ai": false,
      "track_id": 0,
      "velocity": 0,
      "is_motor": true,
      "motor_id": 3,
      "accel_val": 2000,
      "base_duration_us": 1034479
    },
    {
      "id": "M_225",
      "pitch": 86,
      "t_note_us": 32327334,
      "t_trigger_us": 32191371,
      "is_ai": true,
      "track_id": 4,
      "velocity": 0,
      "is_motor": false,
      "motor_id": 0,
      "accel_val": 2000,
      "base_duration_us": 258620
    },
    {
      "id": "M_226",
      "pitch": 86,
      "t_note_us": 32585954,
      "t_trigger_us": 32449991,
      "is_ai": true,
      "track_id": 4,
      "velocity": 0,
      "is_motor": false,
      "motor_id": 0,
      "accel_val": 2000,
      "base_duration_us": 517239
    },
    {
      "id": "M_231",
      "pitch": 79,
      "t_note_us": 33103193,
      "t_trigger_us": 32967230,
      "is_ai": true,
      "track_id": 0,
      "velocity": 0,
      "is_motor": false,
      "motor_id": 0,
      "accel_val": 2000,
      "base_duration_us": 258620
    },
    {
      "id": "M_233",
      "pitch": 55,
      "t_note_us": 33103193,
      "t_trigger_us": 32967230,
      "is_ai": false,
      "track_id": 0,
      "velocity": 0,
      "is_motor": true,
      "motor_id": 0,
      "accel_val": 2000,
      "base_duration_us": 1034482
    },
    {
      "id": "M_234",
      "pitch": 74,
      "t_note_us": 33103193,
      "t_trigger_us": 32967230,
      "is_ai": false,
      "track_id": 0,
      "velocity": 0,
      "is_motor": true,
      "motor_id": 1,
      "accel_val": 2000,
      "base_duration_us": 1034482
    },
    {
      "id": "M_235",
      "pitch": 71,
      "t_note_us": 33103193,
      "t_trigger_us": 32967230,
      "is_ai": false,
      "track_id": 0,
      "velocity": 0,
      "is_motor": true,
      "motor_id": 2,
      "accel_val": 2000,
      "base_duration_us": 1034482
    },
    {
      "id": "M_236",
      "pitch": 67,
      "t_note_us": 33103193,
      "t_trigger_us": 32967230,
      "is_ai": false,
      "track_id": 0,
      "velocity": 0,
      "is_motor": true,
      "motor_id": 3,
      "accel_val": 2000,
      "base_duration_us": 1034482
    },
    {
      "id": "M_232",
      "pitch": 83,
      "t_note_us": 33361813,
      "t_trigger_us": 33225850,
      "is_ai": true,
      "track_id": 2,
      "velocity": 0,
      "is_motor": false,
      "motor_id": 0,
      "accel_val": 2000,
      "base_duration_us": 775862
    },
    {
      "id": "M_237",
      "pitch": 69,
      "t_note_us": 34137675,
      "t_trigger_us": 34001712,
      "is_ai": false,
      "track_id": 0,
      "velocity": 0,
      "is_motor": true,
      "motor_id": 1,
      "accel_val": 2000,
      "base_duration_us": 258620
    },
    {
      "id": "M_238",
      "pitch": 79,
      "t_note_us": 34396295,
      "t_trigger_us": 34260332,
      "is_ai": true,
      "track_id": 0,
      "velocity": 0,
      "is_motor": false,
      "motor_id": 0,
      "accel_val": 2000,
      "base_duration_us": 258620
    },
    {
      "id": "M_239",
      "pitch": 71,
      "t_note_us": 34396295,
      "t_trigger_us": 34260332,
      "is_ai": false,
      "track_id": 0,
      "velocity": 0,
      "is_motor": true,
      "motor_id": 1,
      "accel_val": 2000,
      "base_duration_us": 258620
    },
    {
      "id": "M_240",
      "pitch": 91,
      "t_note_us": 34654915,
      "t_trigger_us": 34518952,
      "is_ai": true,
      "track_id": 7,
      "velocity": 0,
      "is_motor": false,
      "motor_id": 0,
      "accel_val": 2000,
      "base_duration_us": 258620
    },
    {
      "id": "M_241",
      "pitch": 79,
      "t_note_us": 34654915,
      "t_trigger_us": 34518952,
      "is_ai": true,
      "track_id": 0,
      "velocity": 0,
      "is_motor": false,
      "motor_id": 0,
      "accel_val": 2000,
      "base_duration_us": 517240
    },
    {
      "id": "M_242",
      "pitch": 88,
      "t_note_us": 34913535,
      "t_trigger_us": 34777572,
      "is_ai": true,
      "track_id": 5,
      "velocity": 0,
      "is_motor": false,
      "motor_id": 0,
      "accel_val": 2000,
      "base_duration_us": 775861
    },
    {
      "id": "M_245",
      "pitch": 67,
      "t_note_us": 35172155,
      "t_trigger_us": 35036192,
      "is_ai": false,
      "track_id": 0,
      "velocity": 0,
      "is_motor": true,
      "motor_id": 1,
      "accel_val": 2000,
      "base_duration_us": 1034481
    },
    {
      "id": "M_246",
      "pitch": 72,
      "t_note_us": 35172155,
      "t_trigger_us": 35036192,
      "is_ai": false,
      "track_id": 0,
      "velocity": 0,
      "is_motor": true,
      "motor_id": 0,
      "accel_val": 2000,
      "base_duration_us": 1034481
    },
    {
      "id": "M_247",
      "pitch": 76,
      "t_note_us": 35172155,
      "t_trigger_us": 35036192,
      "is_ai": false,
      "track_id": 0,
      "velocity": 0,
      "is_motor": true,
      "motor_id": 2,
      "accel_val": 2000,
      "base_duration_us": 1034481
    },
    {
      "id": "M_252",
      "pitch": 60,
      "t_note_us": 35172155,
      "t_trigger_us": 35036192,
      "is_ai": false,
      "track_id": 0,
      "velocity": 0,
      "is_motor": true,
      "motor_id": 3,
      "accel_val": 2000,
      "base_duration_us": 2068961
    },
    {
      "id": "M_243",
      "pitch": 88,
      "t_note_us": 35689396,
      "t_trigger_us": 35553433,
      "is_ai": true,
      "track_id": 5,
      "velocity": 0,
      "is_motor": false,
      "motor_id": 0,
      "accel_val": 2000,
      "base_duration_us": 258620
    },
    {
      "id": "M_244",
      "pitch": 88,
      "t_note_us": 35948016,
      "t_trigger_us": 35812053,
      "is_ai": true,
      "track_id": 5,
      "velocity": 0,
      "is_motor": false,
      "motor_id": 0,
      "accel_val": 2000,
      "base_duration_us": 258620
    },
    {
      "id": "M_248",
      "pitch": 88,
      "t_note_us": 36206636,
      "t_trigger_us": 36070673,
      "is_ai": true,
      "track_id": 5,
      "velocity": 0,
      "is_motor": false,
      "motor_id": 0,
      "accel_val": 2000,
      "base_duration_us": 344827
    },
    {
      "id": "M_253",
      "pitch": 79,
      "t_note_us": 36206636,
      "t_trigger_us": 36070673,
      "is_ai": true,
      "track_id": 0,
      "velocity": 0,
      "is_motor": false,
      "motor_id": 0,
      "accel_val": 2000,
      "base_duration_us": 1034480
    },
    {
      "id": "M_251",
      "pitch": 76,
      "t_note_us": 36206636,
      "t_trigger_us": 36070673,
      "is_ai": false,
      "track_id": 0,
      "velocity": 0,
      "is_motor": true,
      "motor_id": 2,
      "accel_val": 2000,
      "base_duration_us": 1034480
    },
    {
      "id": "M_254",
      "pitch": 72,
      "t_note_us": 36206636,
      "t_trigger_us": 36070673,
      "is_ai": false,
      "track_id": 0,
      "velocity": 0,
      "is_motor": true,
      "motor_id": 1,
      "accel_val": 2000,
      "base_duration_us": 1034480
    },
    {
      "id": "M_249",
      "pitch": 86,
      "t_note_us": 36551463,
      "t_trigger_us": 36415500,
      "is_ai": true,
      "track_id": 4,
      "velocity": 0,
      "is_motor": false,
      "motor_id": 0,
      "accel_val": 2000,
      "base_duration_us": 344827
    },
    {
      "id": "M_250",
      "pitch": 86,
      "t_note_us": 36896290,
      "t_trigger_us": 36760327,
      "is_ai": true,
      "track_id": 4,
      "velocity": 0,
      "is_motor": false,
      "motor_id": 0,
      "accel_val": 2000,
      "base_duration_us": 344826
    },
    {
      "id": "M_255",
      "pitch": 88,
      "t_note_us": 37241116,
      "t_trigger_us": 37105153,
      "is_ai": true,
      "track_id": 5,
      "velocity": 0,
      "is_motor": false,
      "motor_id": 0,
      "accel_val": 2000,
      "base_duration_us": 258620
    },
    {
      "id": "M_259",
      "pitch": 59,
      "t_note_us": 37241116,
      "t_trigger_us": 37105153,
      "is_ai": false,
      "track_id": 0,
      "velocity": 0,
      "is_motor": true,
      "motor_id": 0,
      "accel_val": 2000,
      "base_duration_us": 1034480
    },
    {
      "id": "M_260",
      "pitch": 74,
      "t_note_us": 37241116,
      "t_trigger_us": 37105153,
      "is_ai": false,
      "track_id": 0,
      "velocity": 0,
      "is_motor": true,
      "motor_id": 1,
      "accel_val": 2000,
      "base_duration_us": 1034480
    },
    {
      "id": "M_261",
      "pitch": 78,
      "t_note_us": 37241116,
      "t_trigger_us": 37105153,
      "is_ai": false,
      "track_id": 0,
      "velocity": 0,
      "is_motor": true,
      "motor_id": 2,
      "accel_val": 2000,
      "base_duration_us": 1034480
    },
    {
      "id": "M_262",
      "pitch": 71,
      "t_note_us": 37241116,
      "t_trigger_us": 37105153,
      "is_ai": false,
      "track_id": 0,
      "velocity": 0,
      "is_motor": true,
      "motor_id": 3,
      "accel_val": 2000,
      "base_duration_us": 1034480
    },
    {
      "id": "M_256",
      "pitch": 86,
      "t_note_us": 37499736,
      "t_trigger_us": 37363773,
      "is_ai": true,
      "track_id": 4,
      "velocity": 0,
      "is_motor": false,
      "motor_id": 0,
      "accel_val": 2000,
      "base_duration_us": 258620
    },
    {
      "id": "M_257",
      "pitch": 83,
      "t_note_us": 37758356,
      "t_trigger_us": 37622393,
      "is_ai": true,
      "track_id": 2,
      "velocity": 0,
      "is_motor": false,
      "motor_id": 0,
      "accel_val": 2000,
      "base_duration_us": 258620
    },
    {
      "id": "M_258",
      "pitch": 86,
      "t_note_us": 38016976,
      "t_trigger_us": 37881013,
      "is_ai": true,
      "track_id": 4,
      "velocity": 0,
      "is_motor": false,
      "motor_id": 0,
      "accel_val": 2000,
      "base_duration_us": 258620
    },
    {
      "id": "M_266",
      "pitch": 83,
      "t_note_us": 38275596,
      "t_trigger_us": 38139633,
      "is_ai": true,
      "track_id": 2,
      "velocity": 0,
      "is_motor": false,
      "motor_id": 0,
      "accel_val": 2000,
      "base_duration_us": 1034479
    },
    {
      "id": "M_267",
      "pitch": 79,
      "t_note_us": 38275596,
      "t_trigger_us": 38139633,
      "is_ai": true,
      "track_id": 0,
      "velocity": 0,
      "is_motor": false,
      "motor_id": 0,
      "accel_val": 2000,
      "base_duration_us": 1034479
    },
    {
      "id": "M_265",
      "pitch": 64,
      "t_note_us": 38275596,
      "t_trigger_us": 38139633,
      "is_ai": false,
      "track_id": 0,
      "velocity": 0,
      "is_motor": true,
      "motor_id": 1,
      "accel_val": 2000,
      "base_duration_us": 1034479
    },
    {
      "id": "M_268",
      "pitch": 76,
      "t_note_us": 38275596,
      "t_trigger_us": 38139633,
      "is_ai": false,
      "track_id": 0,
      "velocity": 0,
      "is_motor": true,
      "motor_id": 2,
      "accel_val": 2000,
      "base_duration_us": 1034479
    },
    {
      "id": "M_263",
      "pitch": 79,
      "t_note_us": 38534216,
      "t_trigger_us": 38398253,
      "is_ai": true,
      "track_id": 0,
      "velocity": 0,
      "is_motor": false,
      "motor_id": 0,
      "accel_val": 2000,
      "base_duration_us": 258620
    },
    {
      "id": "M_264",
      "pitch": 91,
      "t_note_us": 38792836,
      "t_trigger_us": 38656873,
      "is_ai": true,
      "track_id": 7,
      "velocity": 0,
      "is_motor": false,
      "motor_id": 0,
      "accel_val": 2000,
      "base_duration_us": 258619
    },
    {
      "id": "M_269",
      "pitch": 88,
      "t_note_us": 39051455,
      "t_trigger_us": 38915492,
      "is_ai": true,
      "track_id": 5,
      "velocity": 0,
      "is_motor": false,
      "motor_id": 0,
      "accel_val": 2000,
      "base_duration_us": 775861
    },
    {
      "id": "M_270",
      "pitch": 60,
      "t_note_us": 39310075,
      "t_trigger_us": 39174112,
      "is_ai": false,
      "track_id": 0,
      "velocity": 0,
      "is_motor": true,
      "motor_id": 1,
      "accel_val": 2000,
      "base_duration_us": 517241
    },
    {
      "id": "M_275",
      "pitch": 67,
      "t_note_us": 39310075,
      "t_trigger_us": 39174112,
      "is_ai": false,
      "track_id": 0,
      "velocity": 0,
      "is_motor": true,
      "motor_id": 2,
      "accel_val": 2000,
      "base_duration_us": 1034481
    },
    {
      "id": "M_276",
      "pitch": 76,
      "t_note_us": 39310075,
      "t_trigger_us": 39174112,
      "is_ai": false,
      "track_id": 0,
      "velocity": 0,
      "is_motor": true,
      "motor_id": 3,
      "accel_val": 2000,
      "base_duration_us": 1034481
    },
    {
      "id": "M_271",
      "pitch": 88,
      "t_note_us": 39827316,
      "t_trigger_us": 39691353,
      "is_ai": true,
      "track_id": 5,
      "velocity": 0,
      "is_motor": false,
      "motor_id": 0,
      "accel_val": 2000,
      "base_duration_us": 258620
    },
    {
      "id": "M_272",
      "pitch": 67,
      "t_note_us": 39827316,
      "t_trigger_us": 39691353,
      "is_ai": false,
      "track_id": 0,
      "velocity": 0,
      "is_motor": true,
      "motor_id": 1,
      "accel_val": 2000,
      "base_duration_us": 258620
    },
    {
      "id": "M_273",
      "pitch": 88,
      "t_note_us": 40085936,
      "t_trigger_us": 39949973,
      "is_ai": true,
      "track_id": 5,
      "velocity": 0,
      "is_motor": false,
      "motor_id": 0,
      "accel_val": 2000,
      "base_duration_us": 258620
    },
    {
      "id": "M_274",
      "pitch": 72,
      "t_note_us": 40085936,
      "t_trigger_us": 39949973,
      "is_ai": false,
      "track_id": 0,
      "velocity": 0,
      "is_motor": true,
      "motor_id": 1,
      "accel_val": 2000,
      "base_duration_us": 258620
    },
    {
      "id": "M_277",
      "pitch": 88,
      "t_note_us": 40344556,
      "t_trigger_us": 40208593,
      "is_ai": true,
      "track_id": 5,
      "velocity": 0,
      "is_motor": false,
      "motor_id": 0,
      "accel_val": 2000,
      "base_duration_us": 258620
    },
    {
      "id": "M_278",
      "pitch": 74,
      "t_note_us": 40344556,
      "t_trigger_us": 40208593,
      "is_ai": false,
      "track_id": 0,
      "velocity": 0,
      "is_motor": true,
      "motor_id": 1,
      "accel_val": 2000,
      "base_duration_us": 258620
    },
    {
      "id": "M_279",
      "pitch": 86,
      "t_note_us": 40603176,
      "t_trigger_us": 40467213,
      "is_ai": true,
      "track_id": 4,
      "velocity": 0,
      "is_motor": false,
      "motor_id": 0,
      "accel_val": 2000,
      "base_duration_us": 258620
    },
    {
      "id": "M_280",
      "pitch": 76,
      "t_note_us": 40603176,
      "t_trigger_us": 40467213,
      "is_ai": false,
      "track_id": 0,
      "velocity": 0,
      "is_motor": true,
      "motor_id": 2,
      "accel_val": 2000,
      "base_duration_us": 258620
    },
    {
      "id": "M_281",
      "pitch": 83,
      "t_note_us": 40861796,
      "t_trigger_us": 40725833,
      "is_ai": true,
      "track_id": 2,
      "velocity": 0,
      "is_motor": false,
      "motor_id": 0,
      "accel_val": 2000,
      "base_duration_us": 258619
    },
    {
      "id": "M_282",
      "pitch": 79,
      "t_note_us": 40861796,
      "t_trigger_us": 40725833,
      "is_ai": true,
      "track_id": 0,
      "velocity": 0,
      "is_motor": false,
      "motor_id": 0,
      "accel_val": 2000,
      "base_duration_us": 258619
    },
    {
      "id": "M_283",
      "pitch": 86,
      "t_note_us": 41120415,
      "t_trigger_us": 40984452,
      "is_ai": true,
      "track_id": 4,
      "velocity": 0,
      "is_motor": false,
      "motor_id": 0,
      "accel_val": 2000,
      "base_duration_us": 258619
    },
    {
      "id": "M_284",
      "pitch": 86,
      "t_note_us": 41120415,
      "t_trigger_us": 40984452,
      "is_ai": true,
      "track_id": 4,
      "velocity": 0,
      "is_motor": false,
      "motor_id": 0,
      "accel_val": 2000,
      "base_duration_us": 1293102
    },
    {
      "id": "M_288",
      "pitch": 81,
      "t_note_us": 41379034,
      "t_trigger_us": 41243071,
      "is_ai": true,
      "track_id": 1,
      "velocity": 0,
      "is_motor": false,
      "motor_id": 0,
      "accel_val": 2000,
      "base_duration_us": 1034483
    },
    {
      "id": "M_285",
      "pitch": 71,
      "t_note_us": 41379034,
      "t_trigger_us": 41243071,
      "is_ai": false,
      "track_id": 0,
      "velocity": 0,
      "is_motor": true,
      "motor_id": 1,
      "accel_val": 2000,
      "base_duration_us": 1034483
    },
    {
      "id": "M_286",
      "pitch": 78,
      "t_note_us": 41379034,
      "t_trigger_us": 41243071,
      "is_ai": false,
      "track_id": 0,
      "velocity": 0,
      "is_motor": true,
      "motor_id": 2,
      "accel_val": 2000,
      "base_duration_us": 1034483
    },
    {
      "id": "M_287",
      "pitch": 74,
      "t_note_us": 41379034,
      "t_trigger_us": 41243071,
      "is_ai": false,
      "track_id": 0,
      "velocity": 0,
      "is_motor": true,
      "motor_id": 0,
      "accel_val": 2000,
      "base_duration_us": 1034483
    },
    {
      "id": "M_289",
      "pitch": 59,
      "t_note_us": 41379034,
      "t_trigger_us": 41243071,
      "is_ai": false,
      "track_id": 0,
      "velocity": 0,
      "is_motor": true,
      "motor_id": 3,
      "accel_val": 2000,
      "base_duration_us": 1034483
    },
    {
      "id": "M_295",
      "pitch": 79,
      "t_note_us": 42413517,
      "t_trigger_us": 42277554,
      "is_ai": true,
      "track_id": 0,
      "velocity": 0,
      "is_motor": false,
      "motor_id": 0,
      "accel_val": 2000,
      "base_duration_us": 1034479
    },
    {
      "id": "M_292",
      "pitch": 64,
      "t_note_us": 42413517,
      "t_trigger_us": 42277554,
      "is_ai": false,
      "track_id": 0,
      "velocity": 0,
      "is_motor": true,
      "motor_id": 1,
      "accel_val": 2000,
      "base_duration_us": 1034479
    },
    {
      "id": "M_293",
      "pitch": 76,
      "t_note_us": 42413517,
      "t_trigger_us": 42277554,
      "is_ai": false,
      "track_id": 0,
      "velocity": 0,
      "is_motor": true,
      "motor_id": 2,
      "accel_val": 2000,
      "base_duration_us": 1034479
    },
    {
      "id": "M_294",
      "pitch": 71,
      "t_note_us": 42413517,
      "t_trigger_us": 42277554,
      "is_ai": false,
      "track_id": 0,
      "velocity": 0,
      "is_motor": true,
      "motor_id": 0,
      "accel_val": 2000,
      "base_duration_us": 1034479
    },
    {
      "id": "M_290",
      "pitch": 79,
      "t_note_us": 42672137,
      "t_trigger_us": 42536174,
      "is_ai": true,
      "track_id": 0,
      "velocity": 0,
      "is_motor": false,
      "motor_id": 0,
      "accel_val": 2000,
      "base_duration_us": 258620
    },
    {
      "id": "M_291",
      "pitch": 91,
      "t_note_us": 42930757,
      "t_trigger_us": 42794794,
      "is_ai": true,
      "track_id": 7,
      "velocity": 0,
      "is_motor": false,
      "motor_id": 0,
      "accel_val": 2000,
      "base_duration_us": 258620
    },
    {
      "id": "M_296",
      "pitch": 88,
      "t_note_us": 43189377,
      "t_trigger_us": 43053414,
      "is_ai": true,
      "track_id": 5,
      "velocity": 0,
      "is_motor": false,
      "motor_id": 0,
      "accel_val": 2000,
      "base_duration_us": 775860
    },
    {
      "id": "M_299",
      "pitch": 60,
      "t_note_us": 43447996,
      "t_trigger_us": 43312033,
      "is_ai": false,
      "track_id": 0,
      "velocity": 0,
      "is_motor": true,
      "motor_id": 1,
      "accel_val": 2000,
      "base_duration_us": 1034481
    },
    {
      "id": "M_300",
      "pitch": 72,
      "t_note_us": 43447996,
      "t_trigger_us": 43312033,
      "is_ai": false,
      "track_id": 0,
      "velocity": 0,
      "is_motor": true,
      "motor_id": 0,
      "accel_val": 2000,
      "base_duration_us": 1034481
    },
    {
      "id": "M_301",
      "pitch": 76,
      "t_note_us": 43447996,
      "t_trigger_us": 43312033,
      "is_ai": false,
      "track_id": 0,
      "velocity": 0,
      "is_motor": true,
      "motor_id": 2,
      "accel_val": 2000,
      "base_duration_us": 1034481
    },
    {
      "id": "M_302",
      "pitch": 67,
      "t_note_us": 43447996,
      "t_trigger_us": 43312033,
      "is_ai": false,
      "track_id": 0,
      "velocity": 0,
      "is_motor": true,
      "motor_id": 3,
      "accel_val": 2000,
      "base_duration_us": 1034481
    },
    {
      "id": "M_297",
      "pitch": 88,
      "t_note_us": 43965237,
      "t_trigger_us": 43829274,
      "is_ai": true,
      "track_id": 5,
      "velocity": 0,
      "is_motor": false,
      "motor_id": 0,
      "accel_val": 2000,
      "base_duration_us": 258620
    },
    {
      "id": "M_298",
      "pitch": 86,
      "t_note_us": 44223857,
      "t_trigger_us": 44087894,
      "is_ai": true,
      "track_id": 4,
      "velocity": 0,
      "is_motor": false,
      "motor_id": 0,
      "accel_val": 2000,
      "base_duration_us": 258620
    },
    {
      "id": "M_304",
      "pitch": 88,
      "t_note_us": 44482477,
      "t_trigger_us": 44346514,
      "is_ai": true,
      "track_id": 5,
      "velocity": 0,
      "is_motor": false,
      "motor_id": 0,
      "accel_val": 2000,
      "base_duration_us": 517240
    },
    {
      "id": "M_303",
      "pitch": 72,
      "t_note_us": 44482477,
      "t_trigger_us": 44346514,
      "is_ai": false,
      "track_id": 0,
      "velocity": 0,
      "is_motor": true,
      "motor_id": 1,
      "accel_val": 2000,
      "base_duration_us": 258620
    },
    {
      "id": "M_305",
      "pitch": 74,
      "t_note_us": 44741097,
      "t_trigger_us": 44605134,
      "is_ai": false,
      "track_id": 0,
      "velocity": 0,
      "is_motor": true,
      "motor_id": 1,
      "accel_val": 2000,
      "base_duration_us": 258620
    },
    {
      "id": "M_306",
      "pitch": 86,
      "t_note_us": 44999717,
      "t_trigger_us": 44863754,
      "is_ai": true,
      "track_id": 4,
      "velocity": 0,
      "is_motor": false,
      "motor_id": 0,
      "accel_val": 2000,
      "base_duration_us": 258620
    },
    {
      "id": "M_307",
      "pitch": 76,
      "t_note_us": 44999717,
      "t_trigger_us": 44863754,
      "is_ai": false,
      "track_id": 0,
      "velocity": 0,
      "is_motor": true,
      "motor_id": 2,
      "accel_val": 2000,
      "base_duration_us": 258620
    },
    {
      "id": "M_308",
      "pitch": 88,
      "t_note_us": 45258337,
      "t_trigger_us": 45122374,
      "is_ai": true,
      "track_id": 5,
      "velocity": 0,
      "is_motor": false,
      "motor_id": 0,
      "accel_val": 2000,
      "base_duration_us": 258618
    },
    {
      "id": "M_309",
      "pitch": 79,
      "t_note_us": 45258337,
      "t_trigger_us": 45122374,
      "is_ai": true,
      "track_id": 0,
      "velocity": 0,
      "is_motor": false,
      "motor_id": 0,
      "accel_val": 2000,
      "base_duration_us": 258618
    },
    {
      "id": "M_310",
      "pitch": 90,
      "t_note_us": 45516955,
      "t_trigger_us": 45380992,
      "is_ai": true,
      "track_id": 0,
      "velocity": 0,
      "is_motor": true,
      "motor_id": 3,
      "accel_val": 2000,
      "base_duration_us": 517241
    },
    {
      "id": "M_312",
      "pitch": 69,
      "t_note_us": 45516955,
      "t_trigger_us": 45380992,
      "is_ai": false,
      "track_id": 0,
      "velocity": 0,
      "is_motor": true,
      "motor_id": 1,
      "accel_val": 2000,
      "base_duration_us": 1034481
    },
    {
      "id": "M_313",
      "pitch": 78,
      "t_note_us": 45516955,
      "t_trigger_us": 45380992,
      "is_ai": false,
      "track_id": 0,
      "velocity": 0,
      "is_motor": true,
      "motor_id": 2,
      "accel_val": 2000,
      "base_duration_us": 1034481
    },
    {
      "id": "M_314",
      "pitch": 74,
      "t_note_us": 45516955,
      "t_trigger_us": 45380992,
      "is_ai": false,
      "track_id": 0,
      "velocity": 0,
      "is_motor": true,
      "motor_id": 0,
      "accel_val": 2000,
      "base_duration_us": 1034481
    },
    {
      "id": "M_318",
      "pitch": 62,
      "t_note_us": 45516955,
      "t_trigger_us": 45380992,
      "is_ai": false,
      "track_id": 0,
      "velocity": 0,
      "is_motor": true,
      "motor_id": 0,
      "accel_val": 2000,
      "base_duration_us": 2068962
    },
    {
      "id": "M_311",
      "pitch": 88,
      "t_note_us": 46034196,
      "t_trigger_us": 45898233,
      "is_ai": true,
      "track_id": 5,
      "velocity": 0,
      "is_motor": false,
      "motor_id": 0,
      "accel_val": 2000,
      "base_duration_us": 258620
    },
    {
      "id": "M_315",
      "pitch": 90,
      "t_note_us": 46292816,
      "t_trigger_us": 46156853,
      "is_ai": true,
      "track_id": 0,
      "velocity": 0,
      "is_motor": true,
      "motor_id": 3,
      "accel_val": 2000,
      "base_duration_us": 1034481
    },
    {
      "id": "M_319",
      "pitch": 81,
      "t_note_us": 46551436,
      "t_trigger_us": 46415473,
      "is_ai": true,
      "track_id": 1,
      "velocity": 0,
      "is_motor": false,
      "motor_id": 0,
      "accel_val": 2000,
      "base_duration_us": 1034481
    },
    {
      "id": "M_317",
      "pitch": 74,
      "t_note_us": 46551436,
      "t_trigger_us": 46415473,
      "is_ai": false,
      "track_id": 0,
      "velocity": 0,
      "is_motor": true,
      "motor_id": 1,
      "accel_val": 2000,
      "base_duration_us": 1034481
    },
    {
      "id": "M_320",
      "pitch": 78,
      "t_note_us": 46551436,
      "t_trigger_us": 46415473,
      "is_ai": false,
      "track_id": 0,
      "velocity": 0,
      "is_motor": true,
      "motor_id": 2,
      "accel_val": 2000,
      "base_duration_us": 1034481
    },
    {
      "id": "M_316",
      "pitch": 90,
      "t_note_us": 47327297,
      "t_trigger_us": 47191334,
      "is_ai": true,
      "track_id": 0,
      "velocity": 0,
      "is_motor": true,
      "motor_id": 3,
      "accel_val": 2000,
      "base_duration_us": 258620
    },
    {
      "id": "M_321",
      "pitch": 91,
      "t_note_us": 47585917,
      "t_trigger_us": 47449954,
      "is_ai": true,
      "track_id": 7,
      "velocity": 0,
      "is_motor": false,
      "motor_id": 0,
      "accel_val": 2000,
      "base_duration_us": 258620
    },
    {
      "id": "M_331",
      "pitch": 79,
      "t_note_us": 47585917,
      "t_trigger_us": 47449954,
      "is_ai": true,
      "track_id": 0,
      "velocity": 0,
      "is_motor": false,
      "motor_id": 0,
      "accel_val": 2000,
      "base_duration_us": 2068958
    },
    {
      "id": "M_328",
      "pitch": 57,
      "t_note_us": 47585917,
      "t_trigger_us": 47449954,
      "is_ai": false,
      "track_id": 0,
      "velocity": 0,
      "is_motor": true,
      "motor_id": 0,
      "accel_val": 2000,
      "base_duration_us": 2068958
    },
    {
      "id": "M_329",
      "pitch": 76,
      "t_note_us": 47585917,
      "t_trigger_us": 47449954,
      "is_ai": false,
      "track_id": 0,
      "velocity": 0,
      "is_motor": true,
      "motor_id": 2,
      "accel_val": 2000,
      "base_duration_us": 2068958
    },
    {
      "id": "M_330",
      "pitch": 72,
      "t_note_us": 47585917,
      "t_trigger_us": 47449954,
      "is_ai": false,
      "track_id": 0,
      "velocity": 0,
      "is_motor": true,
      "motor_id": 1,
      "accel_val": 2000,
      "base_duration_us": 2068958
    },
    {
      "id": "M_332",
      "pitch": 69,
      "t_note_us": 47585917,
      "t_trigger_us": 47449954,
      "is_ai": false,
      "track_id": 0,
      "velocity": 0,
      "is_motor": true,
      "motor_id": 3,
      "accel_val": 2000,
      "base_duration_us": 2068958
    },
    {
      "id": "M_322",
      "pitch": 90,
      "t_note_us": 47844537,
      "t_trigger_us": 47708574,
      "is_ai": true,
      "track_id": 0,
      "velocity": 0,
      "is_motor": true,
      "motor_id": 0,
      "accel_val": 2000,
      "base_duration_us": 258620
    },
    {
      "id": "M_323",
      "pitch": 88,
      "t_note_us": 48103157,
      "t_trigger_us": 47967194,
      "is_ai": true,
      "track_id": 5,
      "velocity": 0,
      "is_motor": false,
      "motor_id": 0,
      "accel_val": 2000,
      "base_duration_us": 258620
    },
    {
      "id": "M_324",
      "pitch": 86,
      "t_note_us": 48361777,
      "t_trigger_us": 48225814,
      "is_ai": true,
      "track_id": 4,
      "velocity": 0,
      "is_motor": false,
      "motor_id": 0,
      "accel_val": 2000,
      "base_duration_us": 258620
    },
    {
      "id": "M_325",
      "pitch": 86,
      "t_note_us": 48620397,
      "t_trigger_us": 48484434,
      "is_ai": true,
      "track_id": 4,
      "velocity": 0,
      "is_motor": false,
      "motor_id": 0,
      "accel_val": 2000,
      "base_duration_us": 344826
    },
    {
      "id": "M_326",
      "pitch": 91,
      "t_note_us": 48965223,
      "t_trigger_us": 48829260,
      "is_ai": true,
      "track_id": 7,
      "velocity": 0,
      "is_motor": false,
      "motor_id": 0,
      "accel_val": 2000,
      "base_duration_us": 344827
    },
    {
      "id": "M_327",
      "pitch": 93,
      "t_note_us": 49310050,
      "t_trigger_us": 49174087,
      "is_ai": true,
      "track_id": 8,
      "velocity": 0,
      "is_motor": false,
      "motor_id": 0,
      "accel_val": 2000,
      "base_duration_us": 344825
    },
    {
      "id": "M_333",
      "pitch": 79,
      "t_note_us": 49654875,
      "t_trigger_us": 49518912,
      "is_ai": true,
      "track_id": 0,
      "velocity": 0,
      "is_motor": false,
      "motor_id": 0,
      "accel_val": 2000,
      "base_duration_us": 258620
    },
    {
      "id": "M_340",
      "pitch": 93,
      "t_note_us": 49654875,
      "t_trigger_us": 49518912,
      "is_ai": true,
      "track_id": 8,
      "velocity": 0,
      "is_motor": false,
      "motor_id": 0,
      "accel_val": 2000,
      "base_duration_us": 2068959
    },
    {
      "id": "M_342",
      "pitch": 81,
      "t_note_us": 49654875,
      "t_trigger_us": 49518912,
      "is_ai": true,
      "track_id": 1,
      "velocity": 0,
      "is_motor": false,
      "motor_id": 0,
      "accel_val": 2000,
      "base_duration_us": 2068959
    },
    {
      "id": "M_341",
      "pitch": 74,
      "t_note_us": 49654875,
      "t_trigger_us": 49518912,
      "is_ai": false,
      "track_id": 0,
      "velocity": 0,
      "is_motor": true,
      "motor_id": 1,
      "accel_val": 2000,
      "base_duration_us": 2068959
    },
    {
      "id": "M_343",
      "pitch": 78,
      "t_note_us": 49654875,
      "t_trigger_us": 49518912,
      "is_ai": false,
      "track_id": 0,
      "velocity": 0,
      "is_motor": true,
      "motor_id": 2,
      "accel_val": 2000,
      "base_duration_us": 2068959
    },
    {
      "id": "M_344",
      "pitch": 62,
      "t_note_us": 49654875,
      "t_trigger_us": 49518912,
      "is_ai": false,
      "track_id": 0,
      "velocity": 0,
      "is_motor": true,
      "motor_id": 0,
      "accel_val": 2000,
      "base_duration_us": 2068959
    },
    {
      "id": "M_334",
      "pitch": 90,
      "t_note_us": 49913495,
      "t_trigger_us": 49777532,
      "is_ai": true,
      "track_id": 0,
      "velocity": 0,
      "is_motor": true,
      "motor_id": 3,
      "accel_val": 2000,
      "base_duration_us": 258620
    },
    {
      "id": "M_335",
      "pitch": 79,
      "t_note_us": 50172115,
      "t_trigger_us": 50036152,
      "is_ai": true,
      "track_id": 0,
      "velocity": 0,
      "is_motor": false,
      "motor_id": 0,
      "accel_val": 2000,
      "base_duration_us": 258620
    },
    {
      "id": "M_336",
      "pitch": 86,
      "t_note_us": 50430735,
      "t_trigger_us": 50294772,
      "is_ai": true,
      "track_id": 4,
      "velocity": 0,
      "is_motor": false,
      "motor_id": 0,
      "accel_val": 2000,
      "base_duration_us": 258620
    },
    {
      "id": "M_337",
      "pitch": 84,
      "t_note_us": 50689355,
      "t_trigger_us": 50553392,
      "is_ai": true,
      "track_id": 3,
      "velocity": 0,
      "is_motor": false,
      "motor_id": 0,
      "accel_val": 2000,
      "base_duration_us": 258620
    },
    {
      "id": "M_338",
      "pitch": 76,
      "t_note_us": 50947975,
      "t_trigger_us": 50812012,
      "is_ai": false,
      "track_id": 0,
      "velocity": 0,
      "is_motor": true,
      "motor_id": 3,
      "accel_val": 2000,
      "base_duration_us": 258620
    },
    {
      "id": "M_339",
      "pitch": 79,
      "t_note_us": 51206595,
      "t_trigger_us": 51070632,
      "is_ai": true,
      "track_id": 0,
      "velocity": 0,
      "is_motor": false,
      "motor_id": 0,
      "accel_val": 2000,
      "base_duration_us": 258620
    },
    {
      "id": "M_345",
      "pitch": 84,
      "t_note_us": 51465215,
      "t_trigger_us": 51329252,
      "is_ai": true,
      "track_id": 3,
      "velocity": 0,
      "is_motor": false,
      "motor_id": 0,
      "accel_val": 2000,
      "base_duration_us": 258619
    },
    {
      "id": "M_346",
      "pitch": 83,
      "t_note_us": 51723834,
      "t_trigger_us": 51587871,
      "is_ai": true,
      "track_id": 2,
      "velocity": 0,
      "is_motor": false,
      "motor_id": 0,
      "accel_val": 2000,
      "base_duration_us": 258620
    },
    {
      "id": "M_347",
      "pitch": 74,
      "t_note_us": 51982454,
      "t_trigger_us": 51846491,
      "is_ai": false,
      "track_id": 0,
      "velocity": 0,
      "is_motor": true,
      "motor_id": 1,
      "accel_val": 2000,
      "base_duration_us": 258620
    },
    {
      "id": "M_348",
      "pitch": 79,
      "t_note_us": 52241074,
      "t_trigger_us": 52105111,
      "is_ai": true,
      "track_id": 0,
      "velocity": 0,
      "is_motor": false,
      "motor_id": 0,
      "accel_val": 2000,
      "base_duration_us": 258620
    },
    {
      "id": "M_349",
      "pitch": 83,
      "t_note_us": 52499694,
      "t_trigger_us": 52363731,
      "is_ai": true,
      "track_id": 2,
      "velocity": 0,
      "is_motor": false,
      "motor_id": 0,
      "accel_val": 2000,
      "base_duration_us": 258620
    },
    {
      "id": "M_350",
      "pitch": 81,
      "t_note_us": 52758314,
      "t_trigger_us": 52622351,
      "is_ai": true,
      "track_id": 1,
      "velocity": 0,
      "is_motor": false,
      "motor_id": 0,
      "accel_val": 2000,
      "base_duration_us": 3103448
    },
    {
      "id": "M_353",
      "pitch": 83,
      "t_note_us": 55861762,
      "t_trigger_us": 55725799,
      "is_ai": true,
      "track_id": 2,
      "velocity": 0,
      "is_motor": false,
      "motor_id": 0,
      "accel_val": 2000,
      "base_duration_us": 517236
    },
    {
      "id": "M_359",
      "pitch": 79,
      "t_note_us": 55861762,
      "t_trigger_us": 55725799,
      "is_ai": true,
      "track_id": 0,
      "velocity": 0,
      "is_motor": false,
      "motor_id": 0,
      "accel_val": 2000,
      "base_duration_us": 1034471
    },
    {
      "id": "M_375",
      "pitch": 83,
      "t_note_us": 55861762,
      "t_trigger_us": 55725799,
      "is_ai": true,
      "track_id": 2,
      "velocity": 0,
      "is_motor": false,
      "motor_id": 0,
      "accel_val": 2000,
      "base_duration_us": 2068943
    },
    {
      "id": "M_351",
      "pitch": 55,
      "t_note_us": 55861762,
      "t_trigger_us": 55725799,
      "is_ai": false,
      "track_id": 0,
      "velocity": 0,
      "is_motor": true,
      "motor_id": 0,
      "accel_val": 2000,
      "base_duration_us": 258618
    },
    {
      "id": "M_352",
      "pitch": 67,
      "t_note_us": 55861762,
      "t_trigger_us": 55725799,
      "is_ai": false,
      "track_id": 0,
      "velocity": 0,
      "is_motor": true,
      "motor_id": 1,
      "accel_val": 2000,
      "base_duration_us": 258618
    },
    {
      "id": "M_361",
      "pitch": 74,
      "t_note_us": 55861762,
      "t_trigger_us": 55725799,
      "is_ai": false,
      "track_id": 0,
      "velocity": 0,
      "is_motor": true,
      "motor_id": 2,
      "accel_val": 2000,
      "base_duration_us": 1034471
    },
    {
      "id": "M_371",
      "pitch": 43,
      "t_note_us": 55861762,
      "t_trigger_us": 55725799,
      "is_ai": false,
      "track_id": 0,
      "velocity": 0,
      "is_motor": true,
      "motor_id": 3,
      "accel_val": 2000,
      "base_duration_us": 2068943
    },
    {
      "id": "M_373",
      "pitch": 67,
      "t_note_us": 55861762,
      "t_trigger_us": 55725799,
      "is_ai": false,
      "track_id": 0,
      "velocity": 0,
      "is_motor": true,
      "motor_id": 0,
      "accel_val": 2000,
      "base_duration_us": 2068943
    },
    {
      "id": "M_374",
      "pitch": 55,
      "t_note_us": 55861762,
      "t_trigger_us": 55725799,
      "is_ai": false,
      "track_id": 0,
      "velocity": 0,
      "is_motor": true,
      "motor_id": 0,
      "accel_val": 2000,
      "base_duration_us": 2068943
    },
    {
      "id": "M_376",
      "pitch": 74,
      "t_note_us": 55861762,
      "t_trigger_us": 55725799,
      "is_ai": false,
      "track_id": 0,
      "velocity": 0,
      "is_motor": true,
      "motor_id": 0,
      "accel_val": 2000,
      "base_duration_us": 2068943
    },
    {
      "id": "M_377",
      "pitch": 67,
      "t_note_us": 55861762,
      "t_trigger_us": 55725799,
      "is_ai": false,
      "track_id": 0,
      "velocity": 0,
      "is_motor": true,
      "motor_id": 0,
      "accel_val": 2000,
      "base_duration_us": 2068943
    },
    {
      "id": "M_354",
      "pitch": 62,
      "t_note_us": 56120380,
      "t_trigger_us": 55984417,
      "is_ai": false,
      "track_id": 0,
      "velocity": 0,
      "is_motor": true,
      "motor_id": 1,
      "accel_val": 2000,
      "base_duration_us": 258618
    },
    {
      "id": "M_355",
      "pitch": 71,
      "t_note_us": 56120380,
      "t_trigger_us": 55984417,
      "is_ai": false,
      "track_id": 0,
      "velocity": 0,
      "is_motor": true,
      "motor_id": 0,
      "accel_val": 2000,
      "base_duration_us": 258618
    },
    {
      "id": "M_356",
      "pitch": 86,
      "t_note_us": 56378998,
      "t_trigger_us": 56243035,
      "is_ai": true,
      "track_id": 4,
      "velocity": 0,
      "is_motor": false,
      "motor_id": 0,
      "accel_val": 2000,
      "base_duration_us": 258617
    },
    {
      "id": "M_357",
      "pitch": 67,
      "t_note_us": 56378998,
      "t_trigger_us": 56243035,
      "is_ai": false,
      "track_id": 0,
      "velocity": 0,
      "is_motor": true,
      "motor_id": 1,
      "accel_val": 2000,
      "base_duration_us": 258617
    },
    {
      "id": "M_358",
      "pitch": 74,
      "t_note_us": 56378998,
      "t_trigger_us": 56243035,
      "is_ai": false,
      "track_id": 0,
      "velocity": 0,
      "is_motor": true,
      "motor_id": 0,
      "accel_val": 2000,
      "base_duration_us": 258617
    },
    {
      "id": "M_364",
      "pitch": 91,
      "t_note_us": 56637615,
      "t_trigger_us": 56501652,
      "is_ai": true,
      "track_id": 7,
      "velocity": 0,
      "is_motor": false,
      "motor_id": 0,
      "accel_val": 2000,
      "base_duration_us": 775854
    },
    {
      "id": "M_360",
      "pitch": 71,
      "t_note_us": 56637615,
      "t_trigger_us": 56501652,
      "is_ai": false,
      "track_id": 0,
      "velocity": 0,
      "is_motor": true,
      "motor_id": 1,
      "accel_val": 2000,
      "base_duration_us": 258618
    },
    {
      "id": "M_362",
      "pitch": 71,
      "t_note_us": 56637615,
      "t_trigger_us": 56501652,
      "is_ai": false,
      "track_id": 0,
      "velocity": 0,
      "is_motor": true,
      "motor_id": 0,
      "accel_val": 2000,
      "base_duration_us": 258618
    },
    {
      "id": "M_363",
      "pitch": 79,
      "t_note_us": 56896233,
      "t_trigger_us": 56760270,
      "is_ai": true,
      "track_id": 0,
      "velocity": 0,
      "is_motor": false,
      "motor_id": 0,
      "accel_val": 2000,
      "base_duration_us": 258618
    },
    {
      "id": "M_365",
      "pitch": 74,
      "t_note_us": 57154851,
      "t_trigger_us": 57018888,
      "is_ai": false,
      "track_id": 0,
      "velocity": 0,
      "is_motor": true,
      "motor_id": 1,
      "accel_val": 2000,
      "base_duration_us": 258618
    },
    {
      "id": "M_366",
      "pitch": 71,
      "t_note_us": 57154851,
      "t_trigger_us": 57018888,
      "is_ai": false,
      "track_id": 0,
      "velocity": 0,
      "is_motor": true,
      "motor_id": 2,
      "accel_val": 2000,
      "base_duration_us": 258618
    },
    {
      "id": "M_367",
      "pitch": 93,
      "t_note_us": 57413469,
      "t_trigger_us": 57277506,
      "is_ai": true,
      "track_id": 8,
      "velocity": 0,
      "is_motor": false,
      "motor_id": 0,
      "accel_val": 2000,
      "base_duration_us": 258618
    },
    {
      "id": "M_368",
      "pitch": 71,
      "t_note_us": 57413469,
      "t_trigger_us": 57277506,
      "is_ai": false,
      "track_id": 0,
      "velocity": 0,
      "is_motor": true,
      "motor_id": 1,
      "accel_val": 2000,
      "base_duration_us": 258618
    },
    {
      "id": "M_369",
      "pitch": 74,
      "t_note_us": 57413469,
      "t_trigger_us": 57277506,
      "is_ai": false,
      "track_id": 0,
      "velocity": 0,
      "is_motor": true,
      "motor_id": 0,
      "accel_val": 2000,
      "base_duration_us": 258618
    },
    {
      "id": "M_380",
      "pitch": 95,
      "t_note_us": 57672087,
      "t_trigger_us": 57536124,
      "is_ai": true,
      "track_id": 9,
      "velocity": 0,
      "is_motor": false,
      "motor_id": 0,
      "accel_val": 2000,
      "base_duration_us": 775856
    },
    {
      "id": "M_370",
      "pitch": 67,
      "t_note_us": 57672087,
      "t_trigger_us": 57536124,
      "is_ai": false,
      "track_id": 0,
      "velocity": 0,
      "is_motor": true,
      "motor_id": 1,
      "accel_val": 2000,
      "base_duration_us": 258618
    },
    {
      "id": "M_372",
      "pitch": 71,
      "t_note_us": 57672087,
      "t_trigger_us": 57536124,
      "is_ai": false,
      "track_id": 0,
      "velocity": 0,
      "is_motor": true,
      "motor_id": 2,
      "accel_val": 2000,
      "base_duration_us": 258618
    },
    {
      "id": "M_387",
      "pitch": 79,
      "t_note_us": 57930705,
      "t_trigger_us": 57794742,
      "is_ai": true,
      "track_id": 0,
      "velocity": 0,
      "is_motor": false,
      "motor_id": 0,
      "accel_val": 2000,
      "base_duration_us": 1034474
    },
    {
      "id": "M_403",
      "pitch": 84,
      "t_note_us": 57930705,
      "t_trigger_us": 57794742,
      "is_ai": true,
      "track_id": 3,
      "velocity": 0,
      "is_motor": false,
      "motor_id": 0,
      "accel_val": 2000,
      "base_duration_us": 2068947
    },
    {
      "id": "M_378",
      "pitch": 60,
      "t_note_us": 57930705,
      "t_trigger_us": 57794742,
      "is_ai": false,
      "track_id": 0,
      "velocity": 0,
      "is_motor": true,
      "motor_id": 1,
      "accel_val": 2000,
      "base_duration_us": 258619
    },
    {
      "id": "M_379",
      "pitch": 60,
      "t_note_us": 57930705,
      "t_trigger_us": 57794742,
      "is_ai": false,
      "track_id": 0,
      "velocity": 0,
      "is_motor": true,
      "motor_id": 0,
      "accel_val": 2000,
      "base_duration_us": 258619
    },
    {
      "id": "M_386",
      "pitch": 71,
      "t_note_us": 57930705,
      "t_trigger_us": 57794742,
      "is_ai": false,
      "track_id": 0,
      "velocity": 0,
      "is_motor": true,
      "motor_id": 2,
      "accel_val": 2000,
      "base_duration_us": 1034474
    },
    {
      "id": "M_399",
      "pitch": 48,
      "t_note_us": 57930705,
      "t_trigger_us": 57794742,
      "is_ai": false,
      "track_id": 0,
      "velocity": 0,
      "is_motor": true,
      "motor_id": 3,
      "accel_val": 2000,
      "base_duration_us": 2068947
    },
    {
      "id": "M_401",
      "pitch": 72,
      "t_note_us": 57930705,
      "t_trigger_us": 57794742,
      "is_ai": false,
      "track_id": 0,
      "velocity": 0,
      "is_motor": true,
      "motor_id": 0,
      "accel_val": 2000,
      "base_duration_us": 2068947
    },
    {
      "id": "M_402",
      "pitch": 60,
      "t_note_us": 57930705,
      "t_trigger_us": 57794742,
      "is_ai": false,
      "track_id": 0,
      "velocity": 0,
      "is_motor": true,
      "motor_id": 0,
      "accel_val": 2000,
      "base_duration_us": 2068947
    },
    {
      "id": "M_404",
      "pitch": 76,
      "t_note_us": 57930705,
      "t_trigger_us": 57794742,
      "is_ai": false,
      "track_id": 0,
      "velocity": 0,
      "is_motor": true,
      "motor_id": 0,
      "accel_val": 2000,
      "base_duration_us": 2068947
    },
    {
      "id": "M_405",
      "pitch": 71,
      "t_note_us": 57930705,
      "t_trigger_us": 57794742,
      "is_ai": false,
      "track_id": 0,
      "velocity": 0,
      "is_motor": true,
      "motor_id": 0,
      "accel_val": 2000,
      "base_duration_us": 2068947
    },
    {
      "id": "M_406",
      "pitch": 67,
      "t_note_us": 57930705,
      "t_trigger_us": 57794742,
      "is_ai": false,
      "track_id": 0,
      "velocity": 0,
      "is_motor": true,
      "motor_id": 0,
      "accel_val": 2000,
      "base_duration_us": 2068947
    },
    {
      "id": "M_381",
      "pitch": 67,
      "t_note_us": 58189324,
      "t_trigger_us": 58053361,
      "is_ai": false,
      "track_id": 0,
      "velocity": 0,
      "is_motor": true,
      "motor_id": 1,
      "accel_val": 2000,
      "base_duration_us": 258619
    },
    {
      "id": "M_382",
      "pitch": 67,
      "t_note_us": 58189324,
      "t_trigger_us": 58053361,
      "is_ai": false,
      "track_id": 0,
      "velocity": 0,
      "is_motor": true,
      "motor_id": 0,
      "accel_val": 2000,
      "base_duration_us": 258619
    },
    {
      "id": "M_383",
      "pitch": 86,
      "t_note_us": 58447943,
      "t_trigger_us": 58311980,
      "is_ai": true,
      "track_id": 4,
      "velocity": 0,
      "is_motor": false,
      "motor_id": 0,
      "accel_val": 2000,
      "base_duration_us": 258619
    },
    {
      "id": "M_384",
      "pitch": 72,
      "t_note_us": 58447943,
      "t_trigger_us": 58311980,
      "is_ai": false,
      "track_id": 0,
      "velocity": 0,
      "is_motor": true,
      "motor_id": 1,
      "accel_val": 2000,
      "base_duration_us": 258619
    },
    {
      "id": "M_385",
      "pitch": 72,
      "t_note_us": 58447943,
      "t_trigger_us": 58311980,
      "is_ai": false,
      "track_id": 0,
      "velocity": 0,
      "is_motor": true,
      "motor_id": 0,
      "accel_val": 2000,
      "base_duration_us": 258619
    },
    {
      "id": "M_388",
      "pitch": 88,
      "t_note_us": 58706562,
      "t_trigger_us": 58570599,
      "is_ai": true,
      "track_id": 5,
      "velocity": 0,
      "is_motor": false,
      "motor_id": 0,
      "accel_val": 2000,
      "base_duration_us": 258617
    },
    {
      "id": "M_390",
      "pitch": 88,
      "t_note_us": 58706562,
      "t_trigger_us": 58570599,
      "is_ai": true,
      "track_id": 5,
      "velocity": 0,
      "is_motor": false,
      "motor_id": 0,
      "accel_val": 2000,
      "base_duration_us": 517235
    },
    {
      "id": "M_389",
      "pitch": 67,
      "t_note_us": 58706562,
      "t_trigger_us": 58570599,
      "is_ai": false,
      "track_id": 0,
      "velocity": 0,
      "is_motor": true,
      "motor_id": 1,
      "accel_val": 2000,
      "base_duration_us": 258617
    },
    {
      "id": "M_391",
      "pitch": 76,
      "t_note_us": 58965179,
      "t_trigger_us": 58829216,
      "is_ai": false,
      "track_id": 0,
      "velocity": 0,
      "is_motor": true,
      "motor_id": 2,
      "accel_val": 2000,
      "base_duration_us": 258618
    },
    {
      "id": "M_392",
      "pitch": 88,
      "t_note_us": 59223797,
      "t_trigger_us": 59087834,
      "is_ai": true,
      "track_id": 5,
      "velocity": 0,
      "is_motor": false,
      "motor_id": 0,
      "accel_val": 2000,
      "base_duration_us": 258619
    },
    {
      "id": "M_393",
      "pitch": 79,
      "t_note_us": 59223797,
      "t_trigger_us": 59087834,
      "is_ai": true,
      "track_id": 0,
      "velocity": 0,
      "is_motor": false,
      "motor_id": 0,
      "accel_val": 2000,
      "base_duration_us": 258619
    },
    {
      "id": "M_394",
      "pitch": 67,
      "t_note_us": 59223797,
      "t_trigger_us": 59087834,
      "is_ai": false,
      "track_id": 0,
      "velocity": 0,
      "is_motor": true,
      "motor_id": 1,
      "accel_val": 2000,
      "base_duration_us": 258619
    },
    {
      "id": "M_395",
      "pitch": 91,
      "t_note_us": 59482416,
      "t_trigger_us": 59346453,
      "is_ai": true,
      "track_id": 7,
      "velocity": 0,
      "is_motor": false,
      "motor_id": 0,
      "accel_val": 2000,
      "base_duration_us": 258617
    },
    {
      "id": "M_396",
      "pitch": 88,
      "t_note_us": 59482416,
      "t_trigger_us": 59346453,
      "is_ai": true,
      "track_id": 5,
      "velocity": 0,
      "is_motor": false,
      "motor_id": 0,
      "accel_val": 2000,
      "base_duration_us": 258617
    },
    {
      "id": "M_397",
      "pitch": 72,
      "t_note_us": 59482416,
      "t_trigger_us": 59346453,
      "is_ai": false,
      "track_id": 0,
      "velocity": 0,
      "is_motor": true,
      "motor_id": 1,
      "accel_val": 2000,
      "base_duration_us": 258617
    },
    {
      "id": "M_409",
      "pitch": 90,
      "t_note_us": 59741033,
      "t_trigger_us": 59605070,
      "is_ai": true,
      "track_id": 0,
      "velocity": 0,
      "is_motor": true,
      "motor_id": 2,
      "accel_val": 2000,
      "base_duration_us": 775857
    },
    {
      "id": "M_398",
      "pitch": 72,
      "t_note_us": 59741033,
      "t_trigger_us": 59605070,
      "is_ai": false,
      "track_id": 0,
      "velocity": 0,
      "is_motor": true,
      "motor_id": 1,
      "accel_val": 2000,
      "base_duration_us": 258619
    },
    {
      "id": "M_400",
      "pitch": 67,
      "t_note_us": 59741033,
      "t_trigger_us": 59605070,
      "is_ai": false,
      "track_id": 0,
      "velocity": 0,
      "is_motor": true,
      "motor_id": 0,
      "accel_val": 2000,
      "base_duration_us": 258619
    },
    {
      "id": "M_433",
      "pitch": 81,
      "t_note_us": 59999652,
      "t_trigger_us": 59863689,
      "is_ai": true,
      "track_id": 1,
      "velocity": 0,
      "is_motor": false,
      "motor_id": 0,
      "accel_val": 2000,
      "base_duration_us": 2068946
    },
    {
      "id": "M_407",
      "pitch": 50,
      "t_note_us": 59999652,
      "t_trigger_us": 59863689,
      "is_ai": false,
      "track_id": 0,
      "velocity": 0,
      "is_motor": true,
      "motor_id": 0,
      "accel_val": 2000,
      "base_duration_us": 258619
    },
    {
      "id": "M_408",
      "pitch": 62,
      "t_note_us": 59999652,
      "t_trigger_us": 59863689,
      "is_ai": false,
      "track_id": 0,
      "velocity": 0,
      "is_motor": true,
      "motor_id": 1,
      "accel_val": 2000,
      "base_duration_us": 258619
    },
    {
      "id": "M_415",
      "pitch": 69,
      "t_note_us": 59999652,
      "t_trigger_us": 59863689,
      "is_ai": false,
      "track_id": 0,
      "velocity": 0,
      "is_motor": true,
      "motor_id": 3,
      "accel_val": 2000,
      "base_duration_us": 1034475
    },
    {
      "id": "M_416",
      "pitch": 74,
      "t_note_us": 59999652,
      "t_trigger_us": 59863689,
      "is_ai": false,
      "track_id": 0,
      "velocity": 0,
      "is_motor": true,
      "motor_id": 0,
      "accel_val": 2000,
      "base_duration_us": 1034475
    },
    {
      "id": "M_417",
      "pitch": 78,
      "t_note_us": 59999652,
      "t_trigger_us": 59863689,
      "is_ai": false,
      "track_id": 0,
      "velocity": 0,
      "is_motor": true,
      "motor_id": 0,
      "accel_val": 2000,
      "base_duration_us": 1034475
    },
    {
      "id": "M_428",
      "pitch": 50,
      "t_note_us": 59999652,
      "t_trigger_us": 59863689,
      "is_ai": false,
      "track_id": 0,
      "velocity": 0,
      "is_motor": true,
      "motor_id": 0,
      "accel_val": 2000,
      "base_duration_us": 2068946
    },
    {
      "id": "M_430",
      "pitch": 62,
      "t_note_us": 59999652,
      "t_trigger_us": 59863689,
      "is_ai": false,
      "track_id": 0,
      "velocity": 0,
      "is_motor": true,
      "motor_id": 0,
      "accel_val": 2000,
      "base_duration_us": 2068946
    },
    {
      "id": "M_431",
      "pitch": 74,
      "t_note_us": 59999652,
      "t_trigger_us": 59863689,
      "is_ai": false,
      "track_id": 0,
      "velocity": 0,
      "is_motor": true,
      "motor_id": 0,
      "accel_val": 2000,
      "base_duration_us": 2068946
    },
    {
      "id": "M_432",
      "pitch": 74,
      "t_note_us": 59999652,
      "t_trigger_us": 59863689,
      "is_ai": false,
      "track_id": 0,
      "velocity": 0,
      "is_motor": true,
      "motor_id": 0,
      "accel_val": 2000,
      "base_duration_us": 2068946
    },
    {
      "id": "M_434",
      "pitch": 78,
      "t_note_us": 59999652,
      "t_trigger_us": 59863689,
      "is_ai": false,
      "track_id": 0,
      "velocity": 0,
      "is_motor": true,
      "motor_id": 0,
      "accel_val": 2000,
      "base_duration_us": 2068946
    },
    {
      "id": "M_410",
      "pitch": 57,
      "t_note_us": 60258271,
      "t_trigger_us": 60122308,
      "is_ai": false,
      "track_id": 0,
      "velocity": 0,
      "is_motor": true,
      "motor_id": 0,
      "accel_val": 2000,
      "base_duration_us": 258619
    },
    {
      "id": "M_411",
      "pitch": 69,
      "t_note_us": 60258271,
      "t_trigger_us": 60122308,
      "is_ai": false,
      "track_id": 0,
      "velocity": 0,
      "is_motor": true,
      "motor_id": 1,
      "accel_val": 2000,
      "base_duration_us": 258619
    },
    {
      "id": "M_412",
      "pitch": 88,
      "t_note_us": 60516890,
      "t_trigger_us": 60380927,
      "is_ai": true,
      "track_id": 5,
      "velocity": 0,
      "is_motor": false,
      "motor_id": 0,
      "accel_val": 2000,
      "base_duration_us": 258619
    },
    {
      "id": "M_413",
      "pitch": 62,
      "t_note_us": 60516890,
      "t_trigger_us": 60380927,
      "is_ai": false,
      "track_id": 0,
      "velocity": 0,
      "is_motor": true,
      "motor_id": 1,
      "accel_val": 2000,
      "base_duration_us": 258619
    },
    {
      "id": "M_414",
      "pitch": 74,
      "t_note_us": 60516890,
      "t_trigger_us": 60380927,
      "is_ai": false,
      "track_id": 0,
      "velocity": 0,
      "is_motor": true,
      "motor_id": 0,
      "accel_val": 2000,
      "base_duration_us": 258619
    },
    {
      "id": "M_419",
      "pitch": 86,
      "t_note_us": 60775509,
      "t_trigger_us": 60639546,
      "is_ai": true,
      "track_id": 4,
      "velocity": 0,
      "is_motor": false,
      "motor_id": 0,
      "accel_val": 2000,
      "base_duration_us": 517236
    },
    {
      "id": "M_418",
      "pitch": 69,
      "t_note_us": 60775509,
      "t_trigger_us": 60639546,
      "is_ai": false,
      "track_id": 0,
      "velocity": 0,
      "is_motor": true,
      "motor_id": 1,
      "accel_val": 2000,
      "base_duration_us": 258618
    },
    {
      "id": "M_420",
      "pitch": 66,
      "t_note_us": 60775509,
      "t_trigger_us": 60639546,
      "is_ai": false,
      "track_id": 0,
      "velocity": 0,
      "is_motor": true,
      "motor_id": 2,
      "accel_val": 2000,
      "base_duration_us": 517236
    },
    {
      "id": "M_421",
      "pitch": 78,
      "t_note_us": 61034127,
      "t_trigger_us": 60898164,
      "is_ai": false,
      "track_id": 0,
      "velocity": 0,
      "is_motor": true,
      "motor_id": 3,
      "accel_val": 2000,
      "base_duration_us": 258618
    },
    {
      "id": "M_424",
      "pitch": 96,
      "t_note_us": 61292745,
      "t_trigger_us": 61156782,
      "is_ai": true,
      "track_id": 10,
      "velocity": 0,
      "is_motor": false,
      "motor_id": 0,
      "accel_val": 2000,
      "base_duration_us": 517236
    },
    {
      "id": "M_422",
      "pitch": 69,
      "t_note_us": 61292745,
      "t_trigger_us": 61156782,
      "is_ai": false,
      "track_id": 0,
      "velocity": 0,
      "is_motor": true,
      "motor_id": 1,
      "accel_val": 2000,
      "base_duration_us": 258618
    },
    {
      "id": "M_423",
      "pitch": 69,
      "t_note_us": 61292745,
      "t_trigger_us": 61156782,
      "is_ai": false,
      "track_id": 0,
      "velocity": 0,
      "is_motor": true,
      "motor_id": 2,
      "accel_val": 2000,
      "base_duration_us": 258618
    },
    {
      "id": "M_425",
      "pitch": 66,
      "t_note_us": 61551363,
      "t_trigger_us": 61415400,
      "is_ai": false,
      "track_id": 0,
      "velocity": 0,
      "is_motor": true,
      "motor_id": 1,
      "accel_val": 2000,
      "base_duration_us": 258618
    },
    {
      "id": "M_426",
      "pitch": 74,
      "t_note_us": 61551363,
      "t_trigger_us": 61415400,
      "is_ai": false,
      "track_id": 0,
      "velocity": 0,
      "is_motor": true,
      "motor_id": 0,
      "accel_val": 2000,
      "base_duration_us": 258618
    },
    {
      "id": "M_429",
      "pitch": 81,
      "t_note_us": 61809981,
      "t_trigger_us": 61674018,
      "is_ai": true,
      "track_id": 1,
      "velocity": 0,
      "is_motor": false,
      "motor_id": 0,
      "accel_val": 2000,
      "base_duration_us": 258617
    },
    {
      "id": "M_441",
      "pitch": 95,
      "t_note_us": 61809981,
      "t_trigger_us": 61674018,
      "is_ai": true,
      "track_id": 9,
      "velocity": 0,
      "is_motor": false,
      "motor_id": 0,
      "accel_val": 2000,
      "base_duration_us": 1293091
    },
    {
      "id": "M_427",
      "pitch": 62,
      "t_note_us": 61809981,
      "t_trigger_us": 61674018,
      "is_ai": false,
      "track_id": 0,
      "velocity": 0,
      "is_motor": true,
      "motor_id": 1,
      "accel_val": 2000,
      "base_duration_us": 258617
    },
    {
      "id": "M_442",
      "pitch": 79,
      "t_note_us": 62068598,
      "t_trigger_us": 61932635,
      "is_ai": true,
      "track_id": 0,
      "velocity": 0,
      "is_motor": false,
      "motor_id": 0,
      "accel_val": 2000,
      "base_duration_us": 1034474
    },
    {
      "id": "M_435",
      "pitch": 55,
      "t_note_us": 62068598,
      "t_trigger_us": 61932635,
      "is_ai": false,
      "track_id": 0,
      "velocity": 0,
      "is_motor": true,
      "motor_id": 0,
      "accel_val": 2000,
      "base_duration_us": 258619
    },
    {
      "id": "M_436",
      "pitch": 67,
      "t_note_us": 62068598,
      "t_trigger_us": 61932635,
      "is_ai": false,
      "track_id": 0,
      "velocity": 0,
      "is_motor": true,
      "motor_id": 1,
      "accel_val": 2000,
      "base_duration_us": 258619
    },
    {
      "id": "M_444",
      "pitch": 74,
      "t_note_us": 62068598,
      "t_trigger_us": 61932635,
      "is_ai": false,
      "track_id": 0,
      "velocity": 0,
      "is_motor": true,
      "motor_id": 2,
      "accel_val": 2000,
      "base_duration_us": 1034474
    },
    {
      "id": "M_454",
      "pitch": 55,
      "t_note_us": 62068598,
      "t_trigger_us": 61932635,
      "is_ai": false,
      "track_id": 0,
      "velocity": 0,
      "is_motor": true,
      "motor_id": 3,
      "accel_val": 2000,
      "base_duration_us": 2068947
    },
    {
      "id": "M_456",
      "pitch": 67,
      "t_note_us": 62068598,
      "t_trigger_us": 61932635,
      "is_ai": false,
      "track_id": 0,
      "velocity": 0,
      "is_motor": true,
      "motor_id": 0,
      "accel_val": 2000,
      "base_duration_us": 2068947
    },
    {
      "id": "M_457",
      "pitch": 55,
      "t_note_us": 62068598,
      "t_trigger_us": 61932635,
      "is_ai": false,
      "track_id": 0,
      "velocity": 0,
      "is_motor": true,
      "motor_id": 0,
      "accel_val": 2000,
      "base_duration_us": 2068947
    },
    {
      "id": "M_458",
      "pitch": 71,
      "t_note_us": 62068598,
      "t_trigger_us": 61932635,
      "is_ai": false,
      "track_id": 0,
      "velocity": 0,
      "is_motor": true,
      "motor_id": 0,
      "accel_val": 2000,
      "base_duration_us": 2068947
    },
    {
      "id": "M_459",
      "pitch": 67,
      "t_note_us": 62068598,
      "t_trigger_us": 61932635,
      "is_ai": false,
      "track_id": 0,
      "velocity": 0,
      "is_motor": true,
      "motor_id": 0,
      "accel_val": 2000,
      "base_duration_us": 2068947
    },
    {
      "id": "M_460",
      "pitch": 74,
      "t_note_us": 62068598,
      "t_trigger_us": 61932635,
      "is_ai": false,
      "track_id": 0,
      "velocity": 0,
      "is_motor": true,
      "motor_id": 0,
      "accel_val": 2000,
      "base_duration_us": 2068947
    },
    {
      "id": "M_437",
      "pitch": 62,
      "t_note_us": 62327217,
      "t_trigger_us": 62191254,
      "is_ai": false,
      "track_id": 0,
      "velocity": 0,
      "is_motor": true,
      "motor_id": 1,
      "accel_val": 2000,
      "base_duration_us": 258618
    },
    {
      "id": "M_438",
      "pitch": 71,
      "t_note_us": 62327217,
      "t_trigger_us": 62191254,
      "is_ai": false,
      "track_id": 0,
      "velocity": 0,
      "is_motor": true,
      "motor_id": 0,
      "accel_val": 2000,
      "base_duration_us": 258618
    },
    {
      "id": "M_439",
      "pitch": 67,
      "t_note_us": 62585835,
      "t_trigger_us": 62449872,
      "is_ai": false,
      "track_id": 0,
      "velocity": 0,
      "is_motor": true,
      "motor_id": 1,
      "accel_val": 2000,
      "base_duration_us": 258619
    },
    {
      "id": "M_440",
      "pitch": 74,
      "t_note_us": 62585835,
      "t_trigger_us": 62449872,
      "is_ai": false,
      "track_id": 0,
      "velocity": 0,
      "is_motor": true,
      "motor_id": 0,
      "accel_val": 2000,
      "base_duration_us": 258619
    },
    {
      "id": "M_443",
      "pitch": 71,
      "t_note_us": 62844454,
      "t_trigger_us": 62708491,
      "is_ai": false,
      "track_id": 0,
      "velocity": 0,
      "is_motor": true,
      "motor_id": 1,
      "accel_val": 2000,
      "base_duration_us": 258618
    },
    {
      "id": "M_445",
      "pitch": 71,
      "t_note_us": 62844454,
      "t_trigger_us": 62708491,
      "is_ai": false,
      "track_id": 0,
      "velocity": 0,
      "is_motor": true,
      "motor_id": 0,
      "accel_val": 2000,
      "base_duration_us": 258618
    },
    {
      "id": "M_446",
      "pitch": 79,
      "t_note_us": 63103072,
      "t_trigger_us": 62967109,
      "is_ai": true,
      "track_id": 0,
      "velocity": 0,
      "is_motor": false,
      "motor_id": 0,
      "accel_val": 2000,
      "base_duration_us": 258619
    },
    {
      "id": "M_447",
      "pitch": 95,
      "t_note_us": 63361691,
      "t_trigger_us": 63225728,
      "is_ai": true,
      "track_id": 9,
      "velocity": 0,
      "is_motor": false,
      "motor_id": 0,
      "accel_val": 2000,
      "base_duration_us": 258618
    },
    {
      "id": "M_448",
      "pitch": 74,
      "t_note_us": 63361691,
      "t_trigger_us": 63225728,
      "is_ai": false,
      "track_id": 0,
      "velocity": 0,
      "is_motor": true,
      "motor_id": 1,
      "accel_val": 2000,
      "base_duration_us": 258618
    },
    {
      "id": "M_449",
      "pitch": 71,
      "t_note_us": 63361691,
      "t_trigger_us": 63225728,
      "is_ai": false,
      "track_id": 0,
      "velocity": 0,
      "is_motor": true,
      "motor_id": 2,
      "accel_val": 2000,
      "base_duration_us": 258618
    },
    {
      "id": "M_450",
      "pitch": 96,
      "t_note_us": 63620309,
      "t_trigger_us": 63484346,
      "is_ai": true,
      "track_id": 10,
      "velocity": 0,
      "is_motor": false,
      "motor_id": 0,
      "accel_val": 2000,
      "base_duration_us": 258619
    },
    {
      "id": "M_451",
      "pitch": 79,
      "t_note_us": 63620309,
      "t_trigger_us": 63484346,
      "is_ai": true,
      "track_id": 0,
      "velocity": 0,
      "is_motor": false,
      "motor_id": 0,
      "accel_val": 2000,
      "base_duration_us": 258619
    },
    {
      "id": "M_452",
      "pitch": 74,
      "t_note_us": 63620309,
      "t_trigger_us": 63484346,
      "is_ai": false,
      "track_id": 0,
      "velocity": 0,
      "is_motor": true,
      "motor_id": 1,
      "accel_val": 2000,
      "base_duration_us": 258619
    },
    {
      "id": "M_453",
      "pitch": 90,
      "t_note_us": 63878928,
      "t_trigger_us": 63742965,
      "is_ai": true,
      "track_id": 0,
      "velocity": 0,
      "is_motor": true,
      "motor_id": 2,
      "accel_val": 2000,
      "base_duration_us": 258617
    },
    {
      "id": "M_463",
      "pitch": 95,
      "t_note_us": 63878928,
      "t_trigger_us": 63742965,
      "is_ai": true,
      "track_id": 9,
      "velocity": 0,
      "is_motor": false,
      "motor_id": 0,
      "accel_val": 2000,
      "base_duration_us": 775855
    },
    {
      "id": "M_455",
      "pitch": 71,
      "t_note_us": 63878928,
      "t_trigger_us": 63742965,
      "is_ai": false,
      "track_id": 0,
      "velocity": 0,
      "is_motor": true,
      "motor_id": 1,
      "accel_val": 2000,
      "base_duration_us": 258617
    },
    {
      "id": "M_471",
      "pitch": 83,
      "t_note_us": 64137545,
      "t_trigger_us": 64001582,
      "is_ai": true,
      "track_id": 2,
      "velocity": 0,
      "is_motor": false,
      "motor_id": 0,
      "accel_val": 2000,
      "base_duration_us": 1034476
    },
    {
      "id": "M_461",
      "pitch": 52,
      "t_note_us": 64137545,
      "t_trigger_us": 64001582,
      "is_ai": false,
      "track_id": 0,
      "velocity": 0,
      "is_motor": true,
      "motor_id": 0,
      "accel_val": 2000,
      "base_duration_us": 258619
    },
    {
      "id": "M_462",
      "pitch": 64,
      "t_note_us": 64137545,
      "t_trigger_us": 64001582,
      "is_ai": false,
      "track_id": 0,
      "velocity": 0,
      "is_motor": true,
      "motor_id": 1,
      "accel_val": 2000,
      "base_duration_us": 258619
    },
    {
      "id": "M_469",
      "pitch": 76,
      "t_note_us": 64137545,
      "t_trigger_us": 64001582,
      "is_ai": false,
      "track_id": 0,
      "velocity": 0,
      "is_motor": true,
      "motor_id": 2,
      "accel_val": 2000,
      "base_duration_us": 1034476
    },
    {
      "id": "M_470",
      "pitch": 67,
      "t_note_us": 64137545,
      "t_trigger_us": 64001582,
      "is_ai": false,
      "track_id": 0,
      "velocity": 0,
      "is_motor": true,
      "motor_id": 3,
      "accel_val": 2000,
      "base_duration_us": 1034476
    },
    {
      "id": "M_482",
      "pitch": 52,
      "t_note_us": 64137545,
      "t_trigger_us": 64001582,
      "is_ai": false,
      "track_id": 0,
      "velocity": 0,
      "is_motor": true,
      "motor_id": 0,
      "accel_val": 2000,
      "base_duration_us": 2068950
    },
    {
      "id": "M_484",
      "pitch": 76,
      "t_note_us": 64137545,
      "t_trigger_us": 64001582,
      "is_ai": false,
      "track_id": 0,
      "velocity": 0,
      "is_motor": true,
      "motor_id": 0,
      "accel_val": 2000,
      "base_duration_us": 2068950
    },
    {
      "id": "M_485",
      "pitch": 64,
      "t_note_us": 64137545,
      "t_trigger_us": 64001582,
      "is_ai": false,
      "track_id": 0,
      "velocity": 0,
      "is_motor": true,
      "motor_id": 0,
      "accel_val": 2000,
      "base_duration_us": 2068950
    },
    {
      "id": "M_486",
      "pitch": 71,
      "t_note_us": 64137545,
      "t_trigger_us": 64001582,
      "is_ai": false,
      "track_id": 0,
      "velocity": 0,
      "is_motor": true,
      "motor_id": 0,
      "accel_val": 2000,
      "base_duration_us": 2068950
    },
    {
      "id": "M_487",
      "pitch": 67,
      "t_note_us": 64137545,
      "t_trigger_us": 64001582,
      "is_ai": false,
      "track_id": 0,
      "velocity": 0,
      "is_motor": true,
      "motor_id": 0,
      "accel_val": 2000,
      "base_duration_us": 2068950
    },
    {
      "id": "M_488",
      "pitch": 76,
      "t_note_us": 64137545,
      "t_trigger_us": 64001582,
      "is_ai": false,
      "track_id": 0,
      "velocity": 0,
      "is_motor": true,
      "motor_id": 0,
      "accel_val": 2000,
      "base_duration_us": 2068950
    },
    {
      "id": "M_464",
      "pitch": 59,
      "t_note_us": 64396164,
      "t_trigger_us": 64260201,
      "is_ai": false,
      "track_id": 0,
      "velocity": 0,
      "is_motor": true,
      "motor_id": 0,
      "accel_val": 2000,
      "base_duration_us": 258619
    },
    {
      "id": "M_465",
      "pitch": 71,
      "t_note_us": 64396164,
      "t_trigger_us": 64260201,
      "is_ai": false,
      "track_id": 0,
      "velocity": 0,
      "is_motor": true,
      "motor_id": 1,
      "accel_val": 2000,
      "base_duration_us": 258619
    },
    {
      "id": "M_466",
      "pitch": 93,
      "t_note_us": 64654783,
      "t_trigger_us": 64518820,
      "is_ai": true,
      "track_id": 8,
      "velocity": 0,
      "is_motor": false,
      "motor_id": 0,
      "accel_val": 2000,
      "base_duration_us": 258619
    },
    {
      "id": "M_467",
      "pitch": 64,
      "t_note_us": 64654783,
      "t_trigger_us": 64518820,
      "is_ai": false,
      "track_id": 0,
      "velocity": 0,
      "is_motor": true,
      "motor_id": 1,
      "accel_val": 2000,
      "base_duration_us": 258619
    },
    {
      "id": "M_468",
      "pitch": 76,
      "t_note_us": 64654783,
      "t_trigger_us": 64518820,
      "is_ai": false,
      "track_id": 0,
      "velocity": 0,
      "is_motor": true,
      "motor_id": 0,
      "accel_val": 2000,
      "base_duration_us": 258619
    },
    {
      "id": "M_473",
      "pitch": 91,
      "t_note_us": 64913402,
      "t_trigger_us": 64777439,
      "is_ai": true,
      "track_id": 7,
      "velocity": 0,
      "is_motor": false,
      "motor_id": 0,
      "accel_val": 2000,
      "base_duration_us": 517238
    },
    {
      "id": "M_472",
      "pitch": 71,
      "t_note_us": 64913402,
      "t_trigger_us": 64777439,
      "is_ai": false,
      "track_id": 0,
      "velocity": 0,
      "is_motor": true,
      "motor_id": 1,
      "accel_val": 2000,
      "base_duration_us": 258619
    },
    {
      "id": "M_474",
      "pitch": 67,
      "t_note_us": 64913402,
      "t_trigger_us": 64777439,
      "is_ai": false,
      "track_id": 0,
      "velocity": 0,
      "is_motor": true,
      "motor_id": 0,
      "accel_val": 2000,
      "base_duration_us": 517238
    },
    {
      "id": "M_475",
      "pitch": 79,
      "t_note_us": 65172021,
      "t_trigger_us": 65036058,
      "is_ai": true,
      "track_id": 0,
      "velocity": 0,
      "is_motor": false,
      "motor_id": 0,
      "accel_val": 2000,
      "base_duration_us": 258619
    },
    {
      "id": "M_480",
      "pitch": 93,
      "t_note_us": 65430640,
      "t_trigger_us": 65294677,
      "is_ai": true,
      "track_id": 8,
      "velocity": 0,
      "is_motor": false,
      "motor_id": 0,
      "accel_val": 2000,
      "base_duration_us": 775855
    },
    {
      "id": "M_476",
      "pitch": 71,
      "t_note_us": 65430640,
      "t_trigger_us": 65294677,
      "is_ai": false,
      "track_id": 0,
      "velocity": 0,
      "is_motor": true,
      "motor_id": 1,
      "accel_val": 2000,
      "base_duration_us": 258619
    },
    {
      "id": "M_477",
      "pitch": 71,
      "t_note_us": 65430640,
      "t_trigger_us": 65294677,
      "is_ai": false,
      "track_id": 0,
      "velocity": 0,
      "is_motor": true,
      "motor_id": 2,
      "accel_val": 2000,
      "base_duration_us": 258619
    },
    {
      "id": "M_478",
      "pitch": 67,
      "t_note_us": 65689259,
      "t_trigger_us": 65553296,
      "is_ai": false,
      "track_id": 0,
      "velocity": 0,
      "is_motor": true,
      "motor_id": 1,
      "accel_val": 2000,
      "base_duration_us": 258619
    },
    {
      "id": "M_479",
      "pitch": 76,
      "t_note_us": 65689259,
      "t_trigger_us": 65553296,
      "is_ai": false,
      "track_id": 0,
      "velocity": 0,
      "is_motor": true,
      "motor_id": 2,
      "accel_val": 2000,
      "base_duration_us": 258619
    },
    {
      "id": "M_481",
      "pitch": 64,
      "t_note_us": 65947878,
      "t_trigger_us": 65811915,
      "is_ai": false,
      "track_id": 0,
      "velocity": 0,
      "is_motor": true,
      "motor_id": 1,
      "accel_val": 2000,
      "base_duration_us": 258617
    },
    {
      "id": "M_483",
      "pitch": 71,
      "t_note_us": 65947878,
      "t_trigger_us": 65811915,
      "is_ai": false,
      "track_id": 0,
      "velocity": 0,
      "is_motor": true,
      "motor_id": 2,
      "accel_val": 2000,
      "base_duration_us": 258617
    },
    {
      "id": "M_491",
      "pitch": 90,
      "t_note_us": 66206495,
      "t_trigger_us": 66070532,
      "is_ai": true,
      "track_id": 0,
      "velocity": 0,
      "is_motor": true,
      "motor_id": 3,
      "accel_val": 2000,
      "base_duration_us": 517236
    },
    {
      "id": "M_512",
      "pitch": 83,
      "t_note_us": 66206495,
      "t_trigger_us": 66070532,
      "is_ai": true,
      "track_id": 2,
      "velocity": 0,
      "is_motor": false,
      "motor_id": 0,
      "accel_val": 2000,
      "base_duration_us": 2068947
    },
    {
      "id": "M_489",
      "pitch": 59,
      "t_note_us": 66206495,
      "t_trigger_us": 66070532,
      "is_ai": false,
      "track_id": 0,
      "velocity": 0,
      "is_motor": true,
      "motor_id": 0,
      "accel_val": 2000,
      "base_duration_us": 258618
    },
    {
      "id": "M_490",
      "pitch": 59,
      "t_note_us": 66206495,
      "t_trigger_us": 66070532,
      "is_ai": false,
      "track_id": 0,
      "velocity": 0,
      "is_motor": true,
      "motor_id": 1,
      "accel_val": 2000,
      "base_duration_us": 258618
    },
    {
      "id": "M_498",
      "pitch": 78,
      "t_note_us": 66206495,
      "t_trigger_us": 66070532,
      "is_ai": false,
      "track_id": 0,
      "velocity": 0,
      "is_motor": true,
      "motor_id": 2,
      "accel_val": 2000,
      "base_duration_us": 1034474
    },
    {
      "id": "M_508",
      "pitch": 59,
      "t_note_us": 66206495,
      "t_trigger_us": 66070532,
      "is_ai": false,
      "track_id": 0,
      "velocity": 0,
      "is_motor": true,
      "motor_id": 0,
      "accel_val": 2000,
      "base_duration_us": 2068947
    },
    {
      "id": "M_510",
      "pitch": 71,
      "t_note_us": 66206495,
      "t_trigger_us": 66070532,
      "is_ai": false,
      "track_id": 0,
      "velocity": 0,
      "is_motor": true,
      "motor_id": 0,
      "accel_val": 2000,
      "base_duration_us": 2068947
    },
    {
      "id": "M_511",
      "pitch": 59,
      "t_note_us": 66206495,
      "t_trigger_us": 66070532,
      "is_ai": false,
      "track_id": 0,
      "velocity": 0,
      "is_motor": true,
      "motor_id": 0,
      "accel_val": 2000,
      "base_duration_us": 2068947
    },
    {
      "id": "M_513",
      "pitch": 74,
      "t_note_us": 66206495,
      "t_trigger_us": 66070532,
      "is_ai": false,
      "track_id": 0,
      "velocity": 0,
      "is_motor": true,
      "motor_id": 0,
      "accel_val": 2000,
      "base_duration_us": 2068947
    },
    {
      "id": "M_514",
      "pitch": 78,
      "t_note_us": 66206495,
      "t_trigger_us": 66070532,
      "is_ai": false,
      "track_id": 0,
      "velocity": 0,
      "is_motor": true,
      "motor_id": 0,
      "accel_val": 2000,
      "base_duration_us": 2068947
    },
    {
      "id": "M_492",
      "pitch": 66,
      "t_note_us": 66465113,
      "t_trigger_us": 66329150,
      "is_ai": false,
      "track_id": 0,
      "velocity": 0,
      "is_motor": true,
      "motor_id": 1,
      "accel_val": 2000,
      "base_duration_us": 258618
    },
    {
      "id": "M_493",
      "pitch": 66,
      "t_note_us": 66465113,
      "t_trigger_us": 66329150,
      "is_ai": false,
      "track_id": 0,
      "velocity": 0,
      "is_motor": true,
      "motor_id": 0,
      "accel_val": 2000,
      "base_duration_us": 258618
    },
    {
      "id": "M_494",
      "pitch": 88,
      "t_note_us": 66723731,
      "t_trigger_us": 66587768,
      "is_ai": true,
      "track_id": 5,
      "velocity": 0,
      "is_motor": false,
      "motor_id": 0,
      "accel_val": 2000,
      "base_duration_us": 258619
    },
    {
      "id": "M_495",
      "pitch": 71,
      "t_note_us": 66723731,
      "t_trigger_us": 66587768,
      "is_ai": false,
      "track_id": 0,
      "velocity": 0,
      "is_motor": true,
      "motor_id": 1,
      "accel_val": 2000,
      "base_duration_us": 258619
    },
    {
      "id": "M_496",
      "pitch": 71,
      "t_note_us": 66723731,
      "t_trigger_us": 66587768,
      "is_ai": false,
      "track_id": 0,
      "velocity": 0,
      "is_motor": true,
      "motor_id": 0,
      "accel_val": 2000,
      "base_duration_us": 258619
    },
    {
      "id": "M_503",
      "pitch": 86,
      "t_note_us": 66982350,
      "t_trigger_us": 66846387,
      "is_ai": true,
      "track_id": 4,
      "velocity": 0,
      "is_motor": false,
      "motor_id": 0,
      "accel_val": 2000,
      "base_duration_us": 1034474
    },
    {
      "id": "M_497",
      "pitch": 74,
      "t_note_us": 66982350,
      "t_trigger_us": 66846387,
      "is_ai": false,
      "track_id": 0,
      "velocity": 0,
      "is_motor": true,
      "motor_id": 1,
      "accel_val": 2000,
      "base_duration_us": 258619
    },
    {
      "id": "M_499",
      "pitch": 66,
      "t_note_us": 66982350,
      "t_trigger_us": 66846387,
      "is_ai": false,
      "track_id": 0,
      "velocity": 0,
      "is_motor": true,
      "motor_id": 0,
      "accel_val": 2000,
      "base_duration_us": 258619
    },
    {
      "id": "M_500",
      "pitch": 74,
      "t_note_us": 67240969,
      "t_trigger_us": 67105006,
      "is_ai": false,
      "track_id": 0,
      "velocity": 0,
      "is_motor": true,
      "motor_id": 1,
      "accel_val": 2000,
      "base_duration_us": 258617
    },
    {
      "id": "M_501",
      "pitch": 90,
      "t_note_us": 67499586,
      "t_trigger_us": 67363623,
      "is_ai": true,
      "track_id": 0,
      "velocity": 0,
      "is_motor": true,
      "motor_id": 3,
      "accel_val": 2000,
      "base_duration_us": 258619
    },
    {
      "id": "M_502",
      "pitch": 66,
      "t_note_us": 67499586,
      "t_trigger_us": 67363623,
      "is_ai": false,
      "track_id": 0,
      "velocity": 0,
      "is_motor": true,
      "motor_id": 1,
      "accel_val": 2000,
      "base_duration_us": 258619
    },
    {
      "id": "M_504",
      "pitch": 74,
      "t_note_us": 67758205,
      "t_trigger_us": 67622242,
      "is_ai": false,
      "track_id": 0,
      "velocity": 0,
      "is_motor": true,
      "motor_id": 1,
      "accel_val": 2000,
      "base_duration_us": 258619
    },
    {
      "id": "M_505",
      "pitch": 71,
      "t_note_us": 67758205,
      "t_trigger_us": 67622242,
      "is_ai": false,
      "track_id": 0,
      "velocity": 0,
      "is_motor": true,
      "motor_id": 2,
      "accel_val": 2000,
      "base_duration_us": 258619
    },
    {
      "id": "M_506",
      "pitch": 86,
      "t_note_us": 68016824,
      "t_trigger_us": 67880861,
      "is_ai": true,
      "track_id": 4,
      "velocity": 0,
      "is_motor": false,
      "motor_id": 0,
      "accel_val": 2000,
      "base_duration_us": 258618
    },
    {
      "id": "M_507",
      "pitch": 71,
      "t_note_us": 68016824,
      "t_trigger_us": 67880861,
      "is_ai": false,
      "track_id": 0,
      "velocity": 0,
      "is_motor": true,
      "motor_id": 1,
      "accel_val": 2000,
      "base_duration_us": 258618
    },
    {
      "id": "M_509",
      "pitch": 66,
      "t_note_us": 68016824,
      "t_trigger_us": 67880861,
      "is_ai": false,
      "track_id": 0,
      "velocity": 0,
      "is_motor": true,
      "motor_id": 2,
      "accel_val": 2000,
      "base_duration_us": 258618
    },
    {
      "id": "M_517",
      "pitch": 88,
      "t_note_us": 68275442,
      "t_trigger_us": 68139479,
      "is_ai": true,
      "track_id": 5,
      "velocity": 0,
      "is_motor": false,
      "motor_id": 0,
      "accel_val": 2000,
      "base_duration_us": 344824
    },
    {
      "id": "M_525",
      "pitch": 79,
      "t_note_us": 68275442,
      "t_trigger_us": 68139479,
      "is_ai": true,
      "track_id": 0,
      "velocity": 0,
      "is_motor": false,
      "motor_id": 0,
      "accel_val": 2000,
      "base_duration_us": 1034472
    },
    {
      "id": "M_542",
      "pitch": 84,
      "t_note_us": 68275442,
      "t_trigger_us": 68139479,
      "is_ai": true,
      "track_id": 3,
      "velocity": 0,
      "is_motor": false,
      "motor_id": 0,
      "accel_val": 2000,
      "base_duration_us": 2068945
    },
    {
      "id": "M_515",
      "pitch": 60,
      "t_note_us": 68275442,
      "t_trigger_us": 68139479,
      "is_ai": false,
      "track_id": 0,
      "velocity": 0,
      "is_motor": true,
      "motor_id": 1,
      "accel_val": 2000,
      "base_duration_us": 258618
    },
    {
      "id": "M_516",
      "pitch": 60,
      "t_note_us": 68275442,
      "t_trigger_us": 68139479,
      "is_ai": false,
      "track_id": 0,
      "velocity": 0,
      "is_motor": true,
      "motor_id": 0,
      "accel_val": 2000,
      "base_duration_us": 258618
    },
    {
      "id": "M_533",
      "pitch": 48,
      "t_note_us": 68275442,
      "t_trigger_us": 68139479,
      "is_ai": false,
      "track_id": 0,
      "velocity": 0,
      "is_motor": true,
      "motor_id": 2,
      "accel_val": 2000,
      "base_duration_us": 1810328
    },
    {
      "id": "M_538",
      "pitch": 72,
      "t_note_us": 68275442,
      "t_trigger_us": 68139479,
      "is_ai": false,
      "track_id": 0,
      "velocity": 0,
      "is_motor": true,
      "motor_id": 3,
      "accel_val": 2000,
      "base_duration_us": 2068945
    },
    {
      "id": "M_539",
      "pitch": 60,
      "t_note_us": 68275442,
      "t_trigger_us": 68139479,
      "is_ai": false,
      "track_id": 0,
      "velocity": 0,
      "is_motor": true,
      "motor_id": 0,
      "accel_val": 2000,
      "base_duration_us": 2068945
    },
    {
      "id": "M_540",
      "pitch": 76,
      "t_note_us": 68275442,
      "t_trigger_us": 68139479,
      "is_ai": false,
      "track_id": 0,
      "velocity": 0,
      "is_motor": true,
      "motor_id": 0,
      "accel_val": 2000,
      "base_duration_us": 2068945
    },
    {
      "id": "M_541",
      "pitch": 67,
      "t_note_us": 68275442,
      "t_trigger_us": 68139479,
      "is_ai": false,
      "track_id": 0,
      "velocity": 0,
      "is_motor": true,
      "motor_id": 0,
      "accel_val": 2000,
      "base_duration_us": 2068945
    },
    {
      "id": "M_518",
      "pitch": 67,
      "t_note_us": 68534060,
      "t_trigger_us": 68398097,
      "is_ai": false,
      "track_id": 0,
      "velocity": 0,
      "is_motor": true,
      "motor_id": 1,
      "accel_val": 2000,
      "base_duration_us": 258618
    },
    {
      "id": "M_519",
      "pitch": 67,
      "t_note_us": 68534060,
      "t_trigger_us": 68398097,
      "is_ai": false,
      "track_id": 0,
      "velocity": 0,
      "is_motor": true,
      "motor_id": 0,
      "accel_val": 2000,
      "base_duration_us": 258618
    },
    {
      "id": "M_520",
      "pitch": 91,
      "t_note_us": 68620266,
      "t_trigger_us": 68484303,
      "is_ai": true,
      "track_id": 7,
      "velocity": 0,
      "is_motor": false,
      "motor_id": 0,
      "accel_val": 2000,
      "base_duration_us": 344824
    },
    {
      "id": "M_521",
      "pitch": 72,
      "t_note_us": 68792678,
      "t_trigger_us": 68656715,
      "is_ai": false,
      "track_id": 0,
      "velocity": 0,
      "is_motor": true,
      "motor_id": 1,
      "accel_val": 2000,
      "base_duration_us": 258618
    },
    {
      "id": "M_522",
      "pitch": 72,
      "t_note_us": 68792678,
      "t_trigger_us": 68656715,
      "is_ai": false,
      "track_id": 0,
      "velocity": 0,
      "is_motor": true,
      "motor_id": 0,
      "accel_val": 2000,
      "base_duration_us": 258618
    },
    {
      "id": "M_523",
      "pitch": 91,
      "t_note_us": 68965090,
      "t_trigger_us": 68829127,
      "is_ai": true,
      "track_id": 7,
      "velocity": 0,
      "is_motor": false,
      "motor_id": 0,
      "accel_val": 2000,
      "base_duration_us": 344824
    },
    {
      "id": "M_524",
      "pitch": 76,
      "t_note_us": 69051296,
      "t_trigger_us": 68915333,
      "is_ai": false,
      "track_id": 0,
      "velocity": 0,
      "is_motor": true,
      "motor_id": 1,
      "accel_val": 2000,
      "base_duration_us": 258618
    },
    {
      "id": "M_526",
      "pitch": 67,
      "t_note_us": 69051296,
      "t_trigger_us": 68915333,
      "is_ai": false,
      "track_id": 0,
      "velocity": 0,
      "is_motor": true,
      "motor_id": 0,
      "accel_val": 2000,
      "base_duration_us": 258618
    },
    {
      "id": "M_527",
      "pitch": 91,
      "t_note_us": 69309914,
      "t_trigger_us": 69173951,
      "is_ai": true,
      "track_id": 7,
      "velocity": 0,
      "is_motor": false,
      "motor_id": 0,
      "accel_val": 2000,
      "base_duration_us": 258618
    },
    {
      "id": "M_528",
      "pitch": 76,
      "t_note_us": 69309914,
      "t_trigger_us": 69173951,
      "is_ai": false,
      "track_id": 0,
      "velocity": 0,
      "is_motor": true,
      "motor_id": 1,
      "accel_val": 2000,
      "base_duration_us": 258618
    },
    {
      "id": "M_529",
      "pitch": 79,
      "t_note_us": 69568532,
      "t_trigger_us": 69432569,
      "is_ai": true,
      "track_id": 0,
      "velocity": 0,
      "is_motor": false,
      "motor_id": 0,
      "accel_val": 2000,
      "base_duration_us": 258619
    },
    {
      "id": "M_531",
      "pitch": 95,
      "t_note_us": 69568532,
      "t_trigger_us": 69432569,
      "is_ai": true,
      "track_id": 9,
      "velocity": 0,
      "is_motor": false,
      "motor_id": 0,
      "accel_val": 2000,
      "base_duration_us": 517238
    },
    {
      "id": "M_530",
      "pitch": 67,
      "t_note_us": 69568532,
      "t_trigger_us": 69432569,
      "is_ai": false,
      "track_id": 0,
      "velocity": 0,
      "is_motor": true,
      "motor_id": 1,
      "accel_val": 2000,
      "base_duration_us": 258619
    },
    {
      "id": "M_532",
      "pitch": 88,
      "t_note_us": 69827151,
      "t_trigger_us": 69691188,
      "is_ai": true,
      "track_id": 5,
      "velocity": 0,
      "is_motor": false,
      "motor_id": 0,
      "accel_val": 2000,
      "base_duration_us": 258619
    },
    {
      "id": "M_534",
      "pitch": 72,
      "t_note_us": 69827151,
      "t_trigger_us": 69691188,
      "is_ai": false,
      "track_id": 0,
      "velocity": 0,
      "is_motor": true,
      "motor_id": 1,
      "accel_val": 2000,
      "base_duration_us": 258619
    },
    {
      "id": "M_563",
      "pitch": 93,
      "t_note_us": 70085770,
      "t_trigger_us": 69949807,
      "is_ai": true,
      "track_id": 8,
      "velocity": 0,
      "is_motor": false,
      "motor_id": 0,
      "accel_val": 2000,
      "base_duration_us": 2327570
    },
    {
      "id": "M_535",
      "pitch": 72,
      "t_note_us": 70085770,
      "t_trigger_us": 69949807,
      "is_ai": false,
      "track_id": 0,
      "velocity": 0,
      "is_motor": true,
      "motor_id": 1,
      "accel_val": 2000,
      "base_duration_us": 258617
    },
    {
      "id": "M_536",
      "pitch": 48,
      "t_note_us": 70085770,
      "t_trigger_us": 69949807,
      "is_ai": false,
      "track_id": 0,
      "velocity": 0,
      "is_motor": true,
      "motor_id": 0,
      "accel_val": 2000,
      "base_duration_us": 258617
    },
    {
      "id": "M_537",
      "pitch": 67,
      "t_note_us": 70085770,
      "t_trigger_us": 69949807,
      "is_ai": false,
      "track_id": 0,
      "velocity": 0,
      "is_motor": true,
      "motor_id": 2,
      "accel_val": 2000,
      "base_duration_us": 258617
    },
    {
      "id": "M_570",
      "pitch": 81,
      "t_note_us": 70344387,
      "t_trigger_us": 70208424,
      "is_ai": true,
      "track_id": 1,
      "velocity": 0,
      "is_motor": false,
      "motor_id": 0,
      "accel_val": 2000,
      "base_duration_us": 2068953
    },
    {
      "id": "M_543",
      "pitch": 62,
      "t_note_us": 70344387,
      "t_trigger_us": 70208424,
      "is_ai": false,
      "track_id": 0,
      "velocity": 0,
      "is_motor": true,
      "motor_id": 1,
      "accel_val": 2000,
      "base_duration_us": 258620
    },
    {
      "id": "M_551",
      "pitch": 50,
      "t_note_us": 70344387,
      "t_trigger_us": 70208424,
      "is_ai": false,
      "track_id": 0,
      "velocity": 0,
      "is_motor": true,
      "motor_id": 0,
      "accel_val": 2000,
      "base_duration_us": 1034478
    },
    {
      "id": "M_566",
      "pitch": 50,
      "t_note_us": 70344387,
      "t_trigger_us": 70208424,
      "is_ai": false,
      "track_id": 0,
      "velocity": 0,
      "is_motor": true,
      "motor_id": 2,
      "accel_val": 2000,
      "base_duration_us": 2068953
    },
    {
      "id": "M_568",
      "pitch": 74,
      "t_note_us": 70344387,
      "t_trigger_us": 70208424,
      "is_ai": false,
      "track_id": 0,
      "velocity": 0,
      "is_motor": true,
      "motor_id": 3,
      "accel_val": 2000,
      "base_duration_us": 2068953
    },
    {
      "id": "M_569",
      "pitch": 62,
      "t_note_us": 70344387,
      "t_trigger_us": 70208424,
      "is_ai": false,
      "track_id": 0,
      "velocity": 0,
      "is_motor": true,
      "motor_id": 0,
      "accel_val": 2000,
      "base_duration_us": 2068953
    },
    {
      "id": "M_571",
      "pitch": 78,
      "t_note_us": 70344387,
      "t_trigger_us": 70208424,
      "is_ai": false,
      "track_id": 0,
      "velocity": 0,
      "is_motor": true,
      "motor_id": 0,
      "accel_val": 2000,
      "base_duration_us": 2068953
    },
    {
      "id": "M_572",
      "pitch": 74,
      "t_note_us": 70344387,
      "t_trigger_us": 70208424,
      "is_ai": false,
      "track_id": 0,
      "velocity": 0,
      "is_motor": true,
      "motor_id": 0,
      "accel_val": 2000,
      "base_duration_us": 2068953
    },
    {
      "id": "M_544",
      "pitch": 86,
      "t_note_us": 70603007,
      "t_trigger_us": 70467044,
      "is_ai": true,
      "track_id": 4,
      "velocity": 0,
      "is_motor": false,
      "motor_id": 0,
      "accel_val": 2000,
      "base_duration_us": 258619
    },
    {
      "id": "M_545",
      "pitch": 62,
      "t_note_us": 70603007,
      "t_trigger_us": 70467044,
      "is_ai": false,
      "track_id": 0,
      "velocity": 0,
      "is_motor": true,
      "motor_id": 1,
      "accel_val": 2000,
      "base_duration_us": 258619
    },
    {
      "id": "M_546",
      "pitch": 69,
      "t_note_us": 70603007,
      "t_trigger_us": 70467044,
      "is_ai": false,
      "track_id": 0,
      "velocity": 0,
      "is_motor": true,
      "motor_id": 0,
      "accel_val": 2000,
      "base_duration_us": 258619
    },
    {
      "id": "M_547",
      "pitch": 88,
      "t_note_us": 70861626,
      "t_trigger_us": 70725663,
      "is_ai": true,
      "track_id": 5,
      "velocity": 0,
      "is_motor": false,
      "motor_id": 0,
      "accel_val": 2000,
      "base_duration_us": 258620
    },
    {
      "id": "M_548",
      "pitch": 76,
      "t_note_us": 70861626,
      "t_trigger_us": 70725663,
      "is_ai": false,
      "track_id": 0,
      "velocity": 0,
      "is_motor": true,
      "motor_id": 1,
      "accel_val": 2000,
      "base_duration_us": 258620
    },
    {
      "id": "M_549",
      "pitch": 74,
      "t_note_us": 70861626,
      "t_trigger_us": 70725663,
      "is_ai": false,
      "track_id": 0,
      "velocity": 0,
      "is_motor": true,
      "motor_id": 0,
      "accel_val": 2000,
      "base_duration_us": 258620
    },
    {
      "id": "M_550",
      "pitch": 90,
      "t_note_us": 71120246,
      "t_trigger_us": 70984283,
      "is_ai": true,
      "track_id": 0,
      "velocity": 0,
      "is_motor": true,
      "motor_id": 1,
      "accel_val": 2000,
      "base_duration_us": 258619
    },
    {
      "id": "M_552",
      "pitch": 90,
      "t_note_us": 71120246,
      "t_trigger_us": 70984283,
      "is_ai": true,
      "track_id": 0,
      "velocity": 0,
      "is_motor": true,
      "motor_id": 0,
      "accel_val": 2000,
      "base_duration_us": 258619
    },
    {
      "id": "M_553",
      "pitch": 69,
      "t_note_us": 71120246,
      "t_trigger_us": 70984283,
      "is_ai": false,
      "track_id": 0,
      "velocity": 0,
      "is_motor": true,
      "motor_id": 0,
      "accel_val": 2000,
      "base_duration_us": 258619
    },
    {
      "id": "M_554",
      "pitch": 79,
      "t_note_us": 71378865,
      "t_trigger_us": 71242902,
      "is_ai": true,
      "track_id": 0,
      "velocity": 0,
      "is_motor": false,
      "motor_id": 0,
      "accel_val": 2000,
      "base_duration_us": 258618
    },
    {
      "id": "M_555",
      "pitch": 91,
      "t_note_us": 71378865,
      "t_trigger_us": 71242902,
      "is_ai": true,
      "track_id": 7,
      "velocity": 0,
      "is_motor": false,
      "motor_id": 0,
      "accel_val": 2000,
      "base_duration_us": 258618
    },
    {
      "id": "M_556",
      "pitch": 90,
      "t_note_us": 71378865,
      "t_trigger_us": 71242902,
      "is_ai": true,
      "track_id": 0,
      "velocity": 0,
      "is_motor": true,
      "motor_id": 1,
      "accel_val": 2000,
      "base_duration_us": 258618
    },
    {
      "id": "M_557",
      "pitch": 93,
      "t_note_us": 71637483,
      "t_trigger_us": 71501520,
      "is_ai": true,
      "track_id": 8,
      "velocity": 0,
      "is_motor": false,
      "motor_id": 0,
      "accel_val": 2000,
      "base_duration_us": 258619
    },
    {
      "id": "M_558",
      "pitch": 81,
      "t_note_us": 71637483,
      "t_trigger_us": 71501520,
      "is_ai": true,
      "track_id": 1,
      "velocity": 0,
      "is_motor": false,
      "motor_id": 0,
      "accel_val": 2000,
      "base_duration_us": 258619
    },
    {
      "id": "M_559",
      "pitch": 69,
      "t_note_us": 71637483,
      "t_trigger_us": 71501520,
      "is_ai": false,
      "track_id": 0,
      "velocity": 0,
      "is_motor": true,
      "motor_id": 1,
      "accel_val": 2000,
      "base_duration_us": 258619
    },
    {
      "id": "M_560",
      "pitch": 83,
      "t_note_us": 71896102,
      "t_trigger_us": 71760139,
      "is_ai": true,
      "track_id": 2,
      "velocity": 0,
      "is_motor": false,
      "motor_id": 0,
      "accel_val": 2000,
      "base_duration_us": 258619
    },
    {
      "id": "M_561",
      "pitch": 95,
      "t_note_us": 71896102,
      "t_trigger_us": 71760139,
      "is_ai": true,
      "track_id": 9,
      "velocity": 0,
      "is_motor": false,
      "motor_id": 0,
      "accel_val": 2000,
      "base_duration_us": 258619
    },
    {
      "id": "M_562",
      "pitch": 74,
      "t_note_us": 71896102,
      "t_trigger_us": 71760139,
      "is_ai": false,
      "track_id": 0,
      "velocity": 0,
      "is_motor": true,
      "motor_id": 1,
      "accel_val": 2000,
      "base_duration_us": 258619
    },
    {
      "id": "M_564",
      "pitch": 84,
      "t_note_us": 72154721,
      "t_trigger_us": 72018758,
      "is_ai": true,
      "track_id": 3,
      "velocity": 0,
      "is_motor": false,
      "motor_id": 0,
      "accel_val": 2000,
      "base_duration_us": 258619
    },
    {
      "id": "M_565",
      "pitch": 96,
      "t_note_us": 72154721,
      "t_trigger_us": 72018758,
      "is_ai": true,
      "track_id": 10,
      "velocity": 0,
      "is_motor": false,
      "motor_id": 0,
      "accel_val": 2000,
      "base_duration_us": 258619
    },
    {
      "id": "M_567",
      "pitch": 69,
      "t_note_us": 72154721,
      "t_trigger_us": 72018758,
      "is_ai": false,
      "track_id": 0,
      "velocity": 0,
      "is_motor": true,
      "motor_id": 1,
      "accel_val": 2000,
      "base_duration_us": 258619
    },
    {
      "id": "M_575",
      "pitch": 83,
      "t_note_us": 72413340,
      "t_trigger_us": 72277377,
      "is_ai": true,
      "track_id": 2,
      "velocity": 0,
      "is_motor": false,
      "motor_id": 0,
      "accel_val": 2000,
      "base_duration_us": 517238
    },
    {
      "id": "M_591",
      "pitch": 86,
      "t_note_us": 72413340,
      "t_trigger_us": 72277377,
      "is_ai": true,
      "track_id": 4,
      "velocity": 0,
      "is_motor": false,
      "motor_id": 0,
      "accel_val": 2000,
      "base_duration_us": 2068946
    },
    {
      "id": "M_592",
      "pitch": 98,
      "t_note_us": 72413340,
      "t_trigger_us": 72277377,
      "is_ai": true,
      "track_id": 11,
      "velocity": 0,
      "is_motor": false,
      "motor_id": 0,
      "accel_val": 2000,
      "base_duration_us": 2068946
    },
    {
      "id": "M_598",
      "pitch": 83,
      "t_note_us": 72413340,
      "t_trigger_us": 72277377,
      "is_ai": true,
      "track_id": 2,
      "velocity": 0,
      "is_motor": false,
      "motor_id": 0,
      "accel_val": 2000,
      "base_duration_us": 2068946
    },
    {
      "id": "M_573",
      "pitch": 55,
      "t_note_us": 72413340,
      "t_trigger_us": 72277377,
      "is_ai": false,
      "track_id": 0,
      "velocity": 0,
      "is_motor": true,
      "motor_id": 0,
      "accel_val": 2000,
      "base_duration_us": 258619
    },
    {
      "id": "M_574",
      "pitch": 67,
      "t_note_us": 72413340,
      "t_trigger_us": 72277377,
      "is_ai": false,
      "track_id": 0,
      "velocity": 0,
      "is_motor": true,
      "motor_id": 1,
      "accel_val": 2000,
      "base_duration_us": 258619
    },
    {
      "id": "M_593",
      "pitch": 43,
      "t_note_us": 72413340,
      "t_trigger_us": 72277377,
      "is_ai": false,
      "track_id": 0,
      "velocity": 0,
      "is_motor": true,
      "motor_id": 2,
      "accel_val": 2000,
      "base_duration_us": 2068946
    },
    {
      "id": "M_595",
      "pitch": 67,
      "t_note_us": 72413340,
      "t_trigger_us": 72277377,
      "is_ai": false,
      "track_id": 0,
      "velocity": 0,
      "is_motor": true,
      "motor_id": 3,
      "accel_val": 2000,
      "base_duration_us": 2068946
    },
    {
      "id": "M_596",
      "pitch": 55,
      "t_note_us": 72413340,
      "t_trigger_us": 72277377,
      "is_ai": false,
      "track_id": 0,
      "velocity": 0,
      "is_motor": true,
      "motor_id": 0,
      "accel_val": 2000,
      "base_duration_us": 2068946
    },
    {
      "id": "M_597",
      "pitch": 74,
      "t_note_us": 72413340,
      "t_trigger_us": 72277377,
      "is_ai": false,
      "track_id": 0,
      "velocity": 0,
      "is_motor": true,
      "motor_id": 0,
      "accel_val": 2000,
      "base_duration_us": 2068946
    },
    {
      "id": "M_599",
      "pitch": 67,
      "t_note_us": 72413340,
      "t_trigger_us": 72277377,
      "is_ai": false,
      "track_id": 0,
      "velocity": 0,
      "is_motor": true,
      "motor_id": 0,
      "accel_val": 2000,
      "base_duration_us": 2068946
    },
    {
      "id": "M_576",
      "pitch": 67,
      "t_note_us": 72671959,
      "t_trigger_us": 72535996,
      "is_ai": false,
      "track_id": 0,
      "velocity": 0,
      "is_motor": true,
      "motor_id": 1,
      "accel_val": 2000,
      "base_duration_us": 258619
    },
    {
      "id": "M_577",
      "pitch": 71,
      "t_note_us": 72671959,
      "t_trigger_us": 72535996,
      "is_ai": false,
      "track_id": 0,
      "velocity": 0,
      "is_motor": true,
      "motor_id": 0,
      "accel_val": 2000,
      "base_duration_us": 258619
    },
    {
      "id": "M_578",
      "pitch": 86,
      "t_note_us": 72930578,
      "t_trigger_us": 72794615,
      "is_ai": true,
      "track_id": 4,
      "velocity": 0,
      "is_motor": false,
      "motor_id": 0,
      "accel_val": 2000,
      "base_duration_us": 258619
    },
    {
      "id": "M_579",
      "pitch": 71,
      "t_note_us": 72930578,
      "t_trigger_us": 72794615,
      "is_ai": false,
      "track_id": 0,
      "velocity": 0,
      "is_motor": true,
      "motor_id": 1,
      "accel_val": 2000,
      "base_duration_us": 258619
    },
    {
      "id": "M_580",
      "pitch": 74,
      "t_note_us": 72930578,
      "t_trigger_us": 72794615,
      "is_ai": false,
      "track_id": 0,
      "velocity": 0,
      "is_motor": true,
      "motor_id": 0,
      "accel_val": 2000,
      "base_duration_us": 258619
    },
    {
      "id": "M_584",
      "pitch": 91,
      "t_note_us": 73189197,
      "t_trigger_us": 73053234,
      "is_ai": true,
      "track_id": 7,
      "velocity": 0,
      "is_motor": false,
      "motor_id": 0,
      "accel_val": 2000,
      "base_duration_us": 775855
    },
    {
      "id": "M_581",
      "pitch": 71,
      "t_note_us": 73189197,
      "t_trigger_us": 73053234,
      "is_ai": false,
      "track_id": 0,
      "velocity": 0,
      "is_motor": true,
      "motor_id": 1,
      "accel_val": 2000,
      "base_duration_us": 258618
    },
    {
      "id": "M_582",
      "pitch": 74,
      "t_note_us": 73189197,
      "t_trigger_us": 73053234,
      "is_ai": false,
      "track_id": 0,
      "velocity": 0,
      "is_motor": true,
      "motor_id": 0,
      "accel_val": 2000,
      "base_duration_us": 517237
    },
    {
      "id": "M_583",
      "pitch": 79,
      "t_note_us": 73447815,
      "t_trigger_us": 73311852,
      "is_ai": true,
      "track_id": 0,
      "velocity": 0,
      "is_motor": false,
      "motor_id": 0,
      "accel_val": 2000,
      "base_duration_us": 258619
    },
    {
      "id": "M_585",
      "pitch": 79,
      "t_note_us": 73706434,
      "t_trigger_us": 73570471,
      "is_ai": true,
      "track_id": 0,
      "velocity": 0,
      "is_motor": false,
      "motor_id": 0,
      "accel_val": 2000,
      "base_duration_us": 258618
    },
    {
      "id": "M_586",
      "pitch": 71,
      "t_note_us": 73706434,
      "t_trigger_us": 73570471,
      "is_ai": false,
      "track_id": 0,
      "velocity": 0,
      "is_motor": true,
      "motor_id": 1,
      "accel_val": 2000,
      "base_duration_us": 258618
    },
    {
      "id": "M_587",
      "pitch": 93,
      "t_note_us": 73965052,
      "t_trigger_us": 73829089,
      "is_ai": true,
      "track_id": 8,
      "velocity": 0,
      "is_motor": false,
      "motor_id": 0,
      "accel_val": 2000,
      "base_duration_us": 258617
    },
    {
      "id": "M_588",
      "pitch": 74,
      "t_note_us": 73965052,
      "t_trigger_us": 73829089,
      "is_ai": false,
      "track_id": 0,
      "velocity": 0,
      "is_motor": true,
      "motor_id": 1,
      "accel_val": 2000,
      "base_duration_us": 258617
    },
    {
      "id": "M_589",
      "pitch": 74,
      "t_note_us": 73965052,
      "t_trigger_us": 73829089,
      "is_ai": false,
      "track_id": 0,
      "velocity": 0,
      "is_motor": true,
      "motor_id": 0,
      "accel_val": 2000,
      "base_duration_us": 258617
    },
    {
      "id": "M_602",
      "pitch": 95,
      "t_note_us": 74223669,
      "t_trigger_us": 74087706,
      "is_ai": true,
      "track_id": 9,
      "velocity": 0,
      "is_motor": false,
      "motor_id": 0,
      "accel_val": 2000,
      "base_duration_us": 775854
    },
    {
      "id": "M_590",
      "pitch": 71,
      "t_note_us": 74223669,
      "t_trigger_us": 74087706,
      "is_ai": false,
      "track_id": 0,
      "velocity": 0,
      "is_motor": true,
      "motor_id": 1,
      "accel_val": 2000,
      "base_duration_us": 258617
    },
    {
      "id": "M_594",
      "pitch": 71,
      "t_note_us": 74223669,
      "t_trigger_us": 74087706,
      "is_ai": false,
      "track_id": 0,
      "velocity": 0,
      "is_motor": true,
      "motor_id": 0,
      "accel_val": 2000,
      "base_duration_us": 258617
    },
    {
      "id": "M_608",
      "pitch": 79,
      "t_note_us": 74482286,
      "t_trigger_us": 74346323,
      "is_ai": true,
      "track_id": 0,
      "velocity": 0,
      "is_motor": false,
      "motor_id": 0,
      "accel_val": 2000,
      "base_duration_us": 1034475
    },
    {
      "id": "M_625",
      "pitch": 84,
      "t_note_us": 74482286,
      "t_trigger_us": 74346323,
      "is_ai": true,
      "track_id": 3,
      "velocity": 0,
      "is_motor": false,
      "motor_id": 0,
      "accel_val": 2000,
      "base_duration_us": 2068948
    },
    {
      "id": "M_600",
      "pitch": 60,
      "t_note_us": 74482286,
      "t_trigger_us": 74346323,
      "is_ai": false,
      "track_id": 0,
      "velocity": 0,
      "is_motor": true,
      "motor_id": 1,
      "accel_val": 2000,
      "base_duration_us": 258618
    },
    {
      "id": "M_601",
      "pitch": 60,
      "t_note_us": 74482286,
      "t_trigger_us": 74346323,
      "is_ai": false,
      "track_id": 0,
      "velocity": 0,
      "is_motor": true,
      "motor_id": 0,
      "accel_val": 2000,
      "base_duration_us": 258618
    },
    {
      "id": "M_610",
      "pitch": 71,
      "t_note_us": 74482286,
      "t_trigger_us": 74346323,
      "is_ai": false,
      "track_id": 0,
      "velocity": 0,
      "is_motor": true,
      "motor_id": 2,
      "accel_val": 2000,
      "base_duration_us": 1034475
    },
    {
      "id": "M_621",
      "pitch": 48,
      "t_note_us": 74482286,
      "t_trigger_us": 74346323,
      "is_ai": false,
      "track_id": 0,
      "velocity": 0,
      "is_motor": true,
      "motor_id": 3,
      "accel_val": 2000,
      "base_duration_us": 2068948
    },
    {
      "id": "M_623",
      "pitch": 72,
      "t_note_us": 74482286,
      "t_trigger_us": 74346323,
      "is_ai": false,
      "track_id": 0,
      "velocity": 0,
      "is_motor": true,
      "motor_id": 0,
      "accel_val": 2000,
      "base_duration_us": 2068948
    },
    {
      "id": "M_624",
      "pitch": 60,
      "t_note_us": 74482286,
      "t_trigger_us": 74346323,
      "is_ai": false,
      "track_id": 0,
      "velocity": 0,
      "is_motor": true,
      "motor_id": 0,
      "accel_val": 2000,
      "base_duration_us": 2068948
    },
    {
      "id": "M_626",
      "pitch": 67,
      "t_note_us": 74482286,
      "t_trigger_us": 74346323,
      "is_ai": false,
      "track_id": 0,
      "velocity": 0,
      "is_motor": true,
      "motor_id": 0,
      "accel_val": 2000,
      "base_duration_us": 2068948
    },
    {
      "id": "M_627",
      "pitch": 76,
      "t_note_us": 74482286,
      "t_trigger_us": 74346323,
      "is_ai": false,
      "track_id": 0,
      "velocity": 0,
      "is_motor": true,
      "motor_id": 0,
      "accel_val": 2000,
      "base_duration_us": 2068948
    },
    {
      "id": "M_628",
      "pitch": 71,
      "t_note_us": 74482286,
      "t_trigger_us": 74346323,
      "is_ai": false,
      "track_id": 0,
      "velocity": 0,
      "is_motor": true,
      "motor_id": 0,
      "accel_val": 2000,
      "base_duration_us": 2068948
    },
    {
      "id": "M_603",
      "pitch": 67,
      "t_note_us": 74740904,
      "t_trigger_us": 74604941,
      "is_ai": false,
      "track_id": 0,
      "velocity": 0,
      "is_motor": true,
      "motor_id": 1,
      "accel_val": 2000,
      "base_duration_us": 258619
    },
    {
      "id": "M_604",
      "pitch": 67,
      "t_note_us": 74740904,
      "t_trigger_us": 74604941,
      "is_ai": false,
      "track_id": 0,
      "velocity": 0,
      "is_motor": true,
      "motor_id": 0,
      "accel_val": 2000,
      "base_duration_us": 258619
    },
    {
      "id": "M_605",
      "pitch": 86,
      "t_note_us": 74999523,
      "t_trigger_us": 74863560,
      "is_ai": true,
      "track_id": 4,
      "velocity": 0,
      "is_motor": false,
      "motor_id": 0,
      "accel_val": 2000,
      "base_duration_us": 258619
    },
    {
      "id": "M_606",
      "pitch": 72,
      "t_note_us": 74999523,
      "t_trigger_us": 74863560,
      "is_ai": false,
      "track_id": 0,
      "velocity": 0,
      "is_motor": true,
      "motor_id": 1,
      "accel_val": 2000,
      "base_duration_us": 258619
    },
    {
      "id": "M_607",
      "pitch": 72,
      "t_note_us": 74999523,
      "t_trigger_us": 74863560,
      "is_ai": false,
      "track_id": 0,
      "velocity": 0,
      "is_motor": true,
      "motor_id": 0,
      "accel_val": 2000,
      "base_duration_us": 258619
    },
    {
      "id": "M_612",
      "pitch": 88,
      "t_note_us": 75258142,
      "t_trigger_us": 75122179,
      "is_ai": true,
      "track_id": 5,
      "velocity": 0,
      "is_motor": false,
      "motor_id": 0,
      "accel_val": 2000,
      "base_duration_us": 517238
    },
    {
      "id": "M_609",
      "pitch": 76,
      "t_note_us": 75258142,
      "t_trigger_us": 75122179,
      "is_ai": false,
      "track_id": 0,
      "velocity": 0,
      "is_motor": true,
      "motor_id": 1,
      "accel_val": 2000,
      "base_duration_us": 258619
    },
    {
      "id": "M_611",
      "pitch": 67,
      "t_note_us": 75258142,
      "t_trigger_us": 75122179,
      "is_ai": false,
      "track_id": 0,
      "velocity": 0,
      "is_motor": true,
      "motor_id": 0,
      "accel_val": 2000,
      "base_duration_us": 258619
    },
    {
      "id": "M_613",
      "pitch": 88,
      "t_note_us": 75516761,
      "t_trigger_us": 75380798,
      "is_ai": true,
      "track_id": 5,
      "velocity": 0,
      "is_motor": false,
      "motor_id": 0,
      "accel_val": 2000,
      "base_duration_us": 258619
    },
    {
      "id": "M_614",
      "pitch": 88,
      "t_note_us": 75775380,
      "t_trigger_us": 75639417,
      "is_ai": true,
      "track_id": 5,
      "velocity": 0,
      "is_motor": false,
      "motor_id": 0,
      "accel_val": 2000,
      "base_duration_us": 258619
    },
    {
      "id": "M_615",
      "pitch": 79,
      "t_note_us": 75775380,
      "t_trigger_us": 75639417,
      "is_ai": true,
      "track_id": 0,
      "velocity": 0,
      "is_motor": false,
      "motor_id": 0,
      "accel_val": 2000,
      "base_duration_us": 258619
    },
    {
      "id": "M_616",
      "pitch": 67,
      "t_note_us": 75775380,
      "t_trigger_us": 75639417,
      "is_ai": false,
      "track_id": 0,
      "velocity": 0,
      "is_motor": true,
      "motor_id": 1,
      "accel_val": 2000,
      "base_duration_us": 258619
    },
    {
      "id": "M_617",
      "pitch": 91,
      "t_note_us": 76033999,
      "t_trigger_us": 75898036,
      "is_ai": true,
      "track_id": 7,
      "velocity": 0,
      "is_motor": false,
      "motor_id": 0,
      "accel_val": 2000,
      "base_duration_us": 258617
    },
    {
      "id": "M_618",
      "pitch": 76,
      "t_note_us": 76033999,
      "t_trigger_us": 75898036,
      "is_ai": false,
      "track_id": 0,
      "velocity": 0,
      "is_motor": true,
      "motor_id": 2,
      "accel_val": 2000,
      "base_duration_us": 258617
    },
    {
      "id": "M_619",
      "pitch": 72,
      "t_note_us": 76033999,
      "t_trigger_us": 75898036,
      "is_ai": false,
      "track_id": 0,
      "velocity": 0,
      "is_motor": true,
      "motor_id": 1,
      "accel_val": 2000,
      "base_duration_us": 258617
    },
    {
      "id": "M_631",
      "pitch": 90,
      "t_note_us": 76292616,
      "t_trigger_us": 76156653,
      "is_ai": true,
      "track_id": 0,
      "velocity": 0,
      "is_motor": true,
      "motor_id": 2,
      "accel_val": 2000,
      "base_duration_us": 775854
    },
    {
      "id": "M_620",
      "pitch": 72,
      "t_note_us": 76292616,
      "t_trigger_us": 76156653,
      "is_ai": false,
      "track_id": 0,
      "velocity": 0,
      "is_motor": true,
      "motor_id": 1,
      "accel_val": 2000,
      "base_duration_us": 258618
    },
    {
      "id": "M_622",
      "pitch": 67,
      "t_note_us": 76292616,
      "t_trigger_us": 76156653,
      "is_ai": false,
      "track_id": 0,
      "velocity": 0,
      "is_motor": true,
      "motor_id": 0,
      "accel_val": 2000,
      "base_duration_us": 258618
    },
    {
      "id": "M_639",
      "pitch": 81,
      "t_note_us": 76551234,
      "t_trigger_us": 76415271,
      "is_ai": true,
      "track_id": 1,
      "velocity": 0,
      "is_motor": false,
      "motor_id": 0,
      "accel_val": 2000,
      "base_duration_us": 1034473
    },
    {
      "id": "M_646",
      "pitch": 81,
      "t_note_us": 76551234,
      "t_trigger_us": 76415271,
      "is_ai": true,
      "track_id": 1,
      "velocity": 0,
      "is_motor": false,
      "motor_id": 0,
      "accel_val": 2000,
      "base_duration_us": 1034473
    },
    {
      "id": "M_629",
      "pitch": 62,
      "t_note_us": 76551234,
      "t_trigger_us": 76415271,
      "is_ai": false,
      "track_id": 0,
      "velocity": 0,
      "is_motor": true,
      "motor_id": 1,
      "accel_val": 2000,
      "base_duration_us": 258617
    },
    {
      "id": "M_630",
      "pitch": 62,
      "t_note_us": 76551234,
      "t_trigger_us": 76415271,
      "is_ai": false,
      "track_id": 0,
      "velocity": 0,
      "is_motor": true,
      "motor_id": 0,
      "accel_val": 2000,
      "base_duration_us": 258617
    },
    {
      "id": "M_638",
      "pitch": 78,
      "t_note_us": 76551234,
      "t_trigger_us": 76415271,
      "is_ai": false,
      "track_id": 0,
      "velocity": 0,
      "is_motor": true,
      "motor_id": 3,
      "accel_val": 2000,
      "base_duration_us": 1034473
    },
    {
      "id": "M_640",
      "pitch": 50,
      "t_note_us": 76551234,
      "t_trigger_us": 76415271,
      "is_ai": false,
      "track_id": 0,
      "velocity": 0,
      "is_motor": true,
      "motor_id": 0,
      "accel_val": 2000,
      "base_duration_us": 1034473
    },
    {
      "id": "M_642",
      "pitch": 74,
      "t_note_us": 76551234,
      "t_trigger_us": 76415271,
      "is_ai": false,
      "track_id": 0,
      "velocity": 0,
      "is_motor": true,
      "motor_id": 0,
      "accel_val": 2000,
      "base_duration_us": 1034473
    },
    {
      "id": "M_643",
      "pitch": 62,
      "t_note_us": 76551234,
      "t_trigger_us": 76415271,
      "is_ai": false,
      "track_id": 0,
      "velocity": 0,
      "is_motor": true,
      "motor_id": 0,
      "accel_val": 2000,
      "base_duration_us": 1034473
    },
    {
      "id": "M_644",
      "pitch": 74,
      "t_note_us": 76551234,
      "t_trigger_us": 76415271,
      "is_ai": false,
      "track_id": 0,
      "velocity": 0,
      "is_motor": true,
      "motor_id": 0,
      "accel_val": 2000,
      "base_duration_us": 1034473
    },
    {
      "id": "M_645",
      "pitch": 78,
      "t_note_us": 76551234,
      "t_trigger_us": 76415271,
      "is_ai": false,
      "track_id": 0,
      "velocity": 0,
      "is_motor": true,
      "motor_id": 0,
      "accel_val": 2000,
      "base_duration_us": 1034473
    },
    {
      "id": "M_632",
      "pitch": 69,
      "t_note_us": 76809851,
      "t_trigger_us": 76673888,
      "is_ai": false,
      "track_id": 0,
      "velocity": 0,
      "is_motor": true,
      "motor_id": 1,
      "accel_val": 2000,
      "base_duration_us": 258619
    },
    {
      "id": "M_633",
      "pitch": 69,
      "t_note_us": 76809851,
      "t_trigger_us": 76673888,
      "is_ai": false,
      "track_id": 0,
      "velocity": 0,
      "is_motor": true,
      "motor_id": 0,
      "accel_val": 2000,
      "base_duration_us": 258619
    },
    {
      "id": "M_634",
      "pitch": 88,
      "t_note_us": 77068470,
      "t_trigger_us": 76932507,
      "is_ai": true,
      "track_id": 5,
      "velocity": 0,
      "is_motor": false,
      "motor_id": 0,
      "accel_val": 2000,
      "base_duration_us": 258620
    },
    {
      "id": "M_635",
      "pitch": 74,
      "t_note_us": 77068470,
      "t_trigger_us": 76932507,
      "is_ai": false,
      "track_id": 0,
      "velocity": 0,
      "is_motor": true,
      "motor_id": 1,
      "accel_val": 2000,
      "base_duration_us": 258620
    },
    {
      "id": "M_636",
      "pitch": 74,
      "t_note_us": 77068470,
      "t_trigger_us": 76932507,
      "is_ai": false,
      "track_id": 0,
      "velocity": 0,
      "is_motor": true,
      "motor_id": 0,
      "accel_val": 2000,
      "base_duration_us": 258620
    },
    {
      "id": "M_641",
      "pitch": 90,
      "t_note_us": 77327090,
      "t_trigger_us": 77191127,
      "is_ai": true,
      "track_id": 0,
      "velocity": 0,
      "is_motor": true,
      "motor_id": 2,
      "accel_val": 2000,
      "base_duration_us": 258617
    },
    {
      "id": "M_647",
      "pitch": 86,
      "t_note_us": 77327090,
      "t_trigger_us": 77191127,
      "is_ai": true,
      "track_id": 4,
      "velocity": 0,
      "is_motor": false,
      "motor_id": 0,
      "accel_val": 2000,
      "base_duration_us": 517235
    },
    {
      "id": "M_637",
      "pitch": 69,
      "t_note_us": 77327090,
      "t_trigger_us": 77191127,
      "is_ai": false,
      "track_id": 0,
      "velocity": 0,
      "is_motor": true,
      "motor_id": 1,
      "accel_val": 2000,
      "base_duration_us": 258617
    },
    {
      "id": "M_657",
      "pitch": 79,
      "t_note_us": 77585707,
      "t_trigger_us": 77449744,
      "is_ai": true,
      "track_id": 0,
      "velocity": 0,
      "is_motor": false,
      "motor_id": 0,
      "accel_val": 2000,
      "base_duration_us": 1034472
    },
    {
      "id": "M_663",
      "pitch": 84,
      "t_note_us": 77585707,
      "t_trigger_us": 77449744,
      "is_ai": true,
      "track_id": 3,
      "velocity": 0,
      "is_motor": false,
      "motor_id": 0,
      "accel_val": 2000,
      "base_duration_us": 1034472
    },
    {
      "id": "M_664",
      "pitch": 79,
      "t_note_us": 77585707,
      "t_trigger_us": 77449744,
      "is_ai": true,
      "track_id": 0,
      "velocity": 0,
      "is_motor": false,
      "motor_id": 0,
      "accel_val": 2000,
      "base_duration_us": 1034472
    },
    {
      "id": "M_648",
      "pitch": 60,
      "t_note_us": 77585707,
      "t_trigger_us": 77449744,
      "is_ai": false,
      "track_id": 0,
      "velocity": 0,
      "is_motor": true,
      "motor_id": 1,
      "accel_val": 2000,
      "base_duration_us": 258618
    },
    {
      "id": "M_649",
      "pitch": 60,
      "t_note_us": 77585707,
      "t_trigger_us": 77449744,
      "is_ai": false,
      "track_id": 0,
      "velocity": 0,
      "is_motor": true,
      "motor_id": 0,
      "accel_val": 2000,
      "base_duration_us": 258618
    },
    {
      "id": "M_656",
      "pitch": 76,
      "t_note_us": 77585707,
      "t_trigger_us": 77449744,
      "is_ai": false,
      "track_id": 0,
      "velocity": 0,
      "is_motor": true,
      "motor_id": 2,
      "accel_val": 2000,
      "base_duration_us": 1034472
    },
    {
      "id": "M_658",
      "pitch": 48,
      "t_note_us": 77585707,
      "t_trigger_us": 77449744,
      "is_ai": false,
      "track_id": 0,
      "velocity": 0,
      "is_motor": true,
      "motor_id": 3,
      "accel_val": 2000,
      "base_duration_us": 1034472
    },
    {
      "id": "M_660",
      "pitch": 72,
      "t_note_us": 77585707,
      "t_trigger_us": 77449744,
      "is_ai": false,
      "track_id": 0,
      "velocity": 0,
      "is_motor": true,
      "motor_id": 0,
      "accel_val": 2000,
      "base_duration_us": 1034472
    },
    {
      "id": "M_661",
      "pitch": 60,
      "t_note_us": 77585707,
      "t_trigger_us": 77449744,
      "is_ai": false,
      "track_id": 0,
      "velocity": 0,
      "is_motor": true,
      "motor_id": 0,
      "accel_val": 2000,
      "base_duration_us": 1034472
    },
    {
      "id": "M_662",
      "pitch": 76,
      "t_note_us": 77585707,
      "t_trigger_us": 77449744,
      "is_ai": false,
      "track_id": 0,
      "velocity": 0,
      "is_motor": true,
      "motor_id": 0,
      "accel_val": 2000,
      "base_duration_us": 1034472
    },
    {
      "id": "M_652",
      "pitch": 96,
      "t_note_us": 77844325,
      "t_trigger_us": 77708362,
      "is_ai": true,
      "track_id": 10,
      "velocity": 0,
      "is_motor": false,
      "motor_id": 0,
      "accel_val": 2000,
      "base_duration_us": 517237
    },
    {
      "id": "M_650",
      "pitch": 67,
      "t_note_us": 77844325,
      "t_trigger_us": 77708362,
      "is_ai": false,
      "track_id": 0,
      "velocity": 0,
      "is_motor": true,
      "motor_id": 1,
      "accel_val": 2000,
      "base_duration_us": 258619
    },
    {
      "id": "M_651",
      "pitch": 67,
      "t_note_us": 77844325,
      "t_trigger_us": 77708362,
      "is_ai": false,
      "track_id": 0,
      "velocity": 0,
      "is_motor": true,
      "motor_id": 0,
      "accel_val": 2000,
      "base_duration_us": 258619
    },
    {
      "id": "M_653",
      "pitch": 72,
      "t_note_us": 78102944,
      "t_trigger_us": 77966981,
      "is_ai": false,
      "track_id": 0,
      "velocity": 0,
      "is_motor": true,
      "motor_id": 1,
      "accel_val": 2000,
      "base_duration_us": 258618
    },
    {
      "id": "M_654",
      "pitch": 72,
      "t_note_us": 78102944,
      "t_trigger_us": 77966981,
      "is_ai": false,
      "track_id": 0,
      "velocity": 0,
      "is_motor": true,
      "motor_id": 0,
      "accel_val": 2000,
      "base_duration_us": 258618
    },
    {
      "id": "M_659",
      "pitch": 88,
      "t_note_us": 78361562,
      "t_trigger_us": 78225599,
      "is_ai": true,
      "track_id": 5,
      "velocity": 0,
      "is_motor": false,
      "motor_id": 0,
      "accel_val": 2000,
      "base_duration_us": 258617
    },
    {
      "id": "M_671",
      "pitch": 95,
      "t_note_us": 78361562,
      "t_trigger_us": 78225599,
      "is_ai": true,
      "track_id": 9,
      "velocity": 0,
      "is_motor": false,
      "motor_id": 0,
      "accel_val": 2000,
      "base_duration_us": 1293089
    },
    {
      "id": "M_655",
      "pitch": 67,
      "t_note_us": 78361562,
      "t_trigger_us": 78225599,
      "is_ai": false,
      "track_id": 0,
      "velocity": 0,
      "is_motor": true,
      "motor_id": 1,
      "accel_val": 2000,
      "base_duration_us": 258617
    },
    {
      "id": "M_665",
      "pitch": 83,
      "t_note_us": 78620179,
      "t_trigger_us": 78484216,
      "is_ai": true,
      "track_id": 2,
      "velocity": 0,
      "is_motor": false,
      "motor_id": 0,
      "accel_val": 2000,
      "base_duration_us": 258618
    },
    {
      "id": "M_678",
      "pitch": 83,
      "t_note_us": 78620179,
      "t_trigger_us": 78484216,
      "is_ai": true,
      "track_id": 2,
      "velocity": 0,
      "is_motor": false,
      "motor_id": 0,
      "accel_val": 2000,
      "base_duration_us": 1034472
    },
    {
      "id": "M_666",
      "pitch": 59,
      "t_note_us": 78620179,
      "t_trigger_us": 78484216,
      "is_ai": false,
      "track_id": 0,
      "velocity": 0,
      "is_motor": true,
      "motor_id": 0,
      "accel_val": 2000,
      "base_duration_us": 258618
    },
    {
      "id": "M_673",
      "pitch": 78,
      "t_note_us": 78620179,
      "t_trigger_us": 78484216,
      "is_ai": false,
      "track_id": 0,
      "velocity": 0,
      "is_motor": true,
      "motor_id": 2,
      "accel_val": 2000,
      "base_duration_us": 1034472
    },
    {
      "id": "M_674",
      "pitch": 74,
      "t_note_us": 78620179,
      "t_trigger_us": 78484216,
      "is_ai": false,
      "track_id": 0,
      "velocity": 0,
      "is_motor": true,
      "motor_id": 1,
      "accel_val": 2000,
      "base_duration_us": 1034472
    },
    {
      "id": "M_676",
      "pitch": 71,
      "t_note_us": 78620179,
      "t_trigger_us": 78484216,
      "is_ai": false,
      "track_id": 0,
      "velocity": 0,
      "is_motor": true,
      "motor_id": 3,
      "accel_val": 2000,
      "base_duration_us": 1034472
    },
    {
      "id": "M_677",
      "pitch": 59,
      "t_note_us": 78620179,
      "t_trigger_us": 78484216,
      "is_ai": false,
      "track_id": 0,
      "velocity": 0,
      "is_motor": true,
      "motor_id": 0,
      "accel_val": 2000,
      "base_duration_us": 1034472
    },
    {
      "id": "M_679",
      "pitch": 74,
      "t_note_us": 78620179,
      "t_trigger_us": 78484216,
      "is_ai": false,
      "track_id": 0,
      "velocity": 0,
      "is_motor": true,
      "motor_id": 0,
      "accel_val": 2000,
      "base_duration_us": 1034472
    },
    {
      "id": "M_680",
      "pitch": 78,
      "t_note_us": 78620179,
      "t_trigger_us": 78484216,
      "is_ai": false,
      "track_id": 0,
      "velocity": 0,
      "is_motor": true,
      "motor_id": 0,
      "accel_val": 2000,
      "base_duration_us": 1034472
    },
    {
      "id": "M_693",
      "pitch": 47,
      "t_note_us": 78620179,
      "t_trigger_us": 78484216,
      "is_ai": false,
      "track_id": 0,
      "velocity": 0,
      "is_motor": true,
      "motor_id": 0,
      "accel_val": 2000,
      "base_duration_us": 2068946
    },
    {
      "id": "M_667",
      "pitch": 66,
      "t_note_us": 78878797,
      "t_trigger_us": 78742834,
      "is_ai": false,
      "track_id": 0,
      "velocity": 0,
      "is_motor": true,
      "motor_id": 0,
      "accel_val": 2000,
      "base_duration_us": 258619
    },
    {
      "id": "M_668",
      "pitch": 66,
      "t_note_us": 78878797,
      "t_trigger_us": 78742834,
      "is_ai": false,
      "track_id": 0,
      "velocity": 0,
      "is_motor": true,
      "motor_id": 0,
      "accel_val": 2000,
      "base_duration_us": 258619
    },
    {
      "id": "M_669",
      "pitch": 71,
      "t_note_us": 79137416,
      "t_trigger_us": 79001453,
      "is_ai": false,
      "track_id": 0,
      "velocity": 0,
      "is_motor": true,
      "motor_id": 0,
      "accel_val": 2000,
      "base_duration_us": 258618
    },
    {
      "id": "M_670",
      "pitch": 71,
      "t_note_us": 79137416,
      "t_trigger_us": 79001453,
      "is_ai": false,
      "track_id": 0,
      "velocity": 0,
      "is_motor": true,
      "motor_id": 0,
      "accel_val": 2000,
      "base_duration_us": 258618
    },
    {
      "id": "M_672",
      "pitch": 66,
      "t_note_us": 79396034,
      "t_trigger_us": 79260071,
      "is_ai": false,
      "track_id": 0,
      "velocity": 0,
      "is_motor": true,
      "motor_id": 0,
      "accel_val": 2000,
      "base_duration_us": 258617
    },
    {
      "id": "M_675",
      "pitch": 74,
      "t_note_us": 79396034,
      "t_trigger_us": 79260071,
      "is_ai": false,
      "track_id": 0,
      "velocity": 0,
      "is_motor": true,
      "motor_id": 0,
      "accel_val": 2000,
      "base_duration_us": 258617
    },
    {
      "id": "M_691",
      "pitch": 83,
      "t_note_us": 79654651,
      "t_trigger_us": 79518688,
      "is_ai": true,
      "track_id": 2,
      "velocity": 0,
      "is_motor": false,
      "motor_id": 0,
      "accel_val": 2000,
      "base_duration_us": 1034474
    },
    {
      "id": "M_697",
      "pitch": 83,
      "t_note_us": 79654651,
      "t_trigger_us": 79518688,
      "is_ai": true,
      "track_id": 2,
      "velocity": 0,
      "is_motor": false,
      "motor_id": 0,
      "accel_val": 2000,
      "base_duration_us": 1034474
    },
    {
      "id": "M_681",
      "pitch": 59,
      "t_note_us": 79654651,
      "t_trigger_us": 79518688,
      "is_ai": false,
      "track_id": 0,
      "velocity": 0,
      "is_motor": true,
      "motor_id": 0,
      "accel_val": 2000,
      "base_duration_us": 258619
    },
    {
      "id": "M_682",
      "pitch": 59,
      "t_note_us": 79654651,
      "t_trigger_us": 79518688,
      "is_ai": false,
      "track_id": 0,
      "velocity": 0,
      "is_motor": true,
      "motor_id": 1,
      "accel_val": 2000,
      "base_duration_us": 258619
    },
    {
      "id": "M_690",
      "pitch": 78,
      "t_note_us": 79654651,
      "t_trigger_us": 79518688,
      "is_ai": false,
      "track_id": 0,
      "velocity": 0,
      "is_motor": true,
      "motor_id": 2,
      "accel_val": 2000,
      "base_duration_us": 1034474
    },
    {
      "id": "M_692",
      "pitch": 75,
      "t_note_us": 79654651,
      "t_trigger_us": 79518688,
      "is_ai": false,
      "track_id": 0,
      "velocity": 0,
      "is_motor": true,
      "motor_id": 3,
      "accel_val": 2000,
      "base_duration_us": 1034474
    },
    {
      "id": "M_695",
      "pitch": 75,
      "t_note_us": 79654651,
      "t_trigger_us": 79518688,
      "is_ai": false,
      "track_id": 0,
      "velocity": 0,
      "is_motor": true,
      "motor_id": 0,
      "accel_val": 2000,
      "base_duration_us": 1034474
    },
    {
      "id": "M_696",
      "pitch": 63,
      "t_note_us": 79654651,
      "t_trigger_us": 79518688,
      "is_ai": false,
      "track_id": 0,
      "velocity": 0,
      "is_motor": true,
      "motor_id": 0,
      "accel_val": 2000,
      "base_duration_us": 1034474
    },
    {
      "id": "M_698",
      "pitch": 78,
      "t_note_us": 79654651,
      "t_trigger_us": 79518688,
      "is_ai": false,
      "track_id": 0,
      "velocity": 0,
      "is_motor": true,
      "motor_id": 0,
      "accel_val": 2000,
      "base_duration_us": 1034474
    },
    {
      "id": "M_699",
      "pitch": 75,
      "t_note_us": 79654651,
      "t_trigger_us": 79518688,
      "is_ai": false,
      "track_id": 0,
      "velocity": 0,
      "is_motor": true,
      "motor_id": 0,
      "accel_val": 2000,
      "base_duration_us": 1034474
    },
    {
      "id": "M_683",
      "pitch": 95,
      "t_note_us": 79913270,
      "t_trigger_us": 79777307,
      "is_ai": true,
      "track_id": 9,
      "velocity": 0,
      "is_motor": false,
      "motor_id": 0,
      "accel_val": 2000,
      "base_duration_us": 258619
    },
    {
      "id": "M_684",
      "pitch": 63,
      "t_note_us": 79913270,
      "t_trigger_us": 79777307,
      "is_ai": false,
      "track_id": 0,
      "velocity": 0,
      "is_motor": true,
      "motor_id": 1,
      "accel_val": 2000,
      "base_duration_us": 258619
    },
    {
      "id": "M_685",
      "pitch": 63,
      "t_note_us": 79913270,
      "t_trigger_us": 79777307,
      "is_ai": false,
      "track_id": 0,
      "velocity": 0,
      "is_motor": true,
      "motor_id": 0,
      "accel_val": 2000,
      "base_duration_us": 258619
    },
    {
      "id": "M_686",
      "pitch": 96,
      "t_note_us": 80171889,
      "t_trigger_us": 80035926,
      "is_ai": true,
      "track_id": 10,
      "velocity": 0,
      "is_motor": false,
      "motor_id": 0,
      "accel_val": 2000,
      "base_duration_us": 258618
    },
    {
      "id": "M_687",
      "pitch": 66,
      "t_note_us": 80171889,
      "t_trigger_us": 80035926,
      "is_ai": false,
      "track_id": 0,
      "velocity": 0,
      "is_motor": true,
      "motor_id": 1,
      "accel_val": 2000,
      "base_duration_us": 258618
    },
    {
      "id": "M_688",
      "pitch": 66,
      "t_note_us": 80171889,
      "t_trigger_us": 80035926,
      "is_ai": false,
      "track_id": 0,
      "velocity": 0,
      "is_motor": true,
      "motor_id": 0,
      "accel_val": 2000,
      "base_duration_us": 258618
    },
    {
      "id": "M_701",
      "pitch": 95,
      "t_note_us": 80430507,
      "t_trigger_us": 80294544,
      "is_ai": true,
      "track_id": 9,
      "velocity": 0,
      "is_motor": false,
      "motor_id": 0,
      "accel_val": 2000,
      "base_duration_us": 775854
    },
    {
      "id": "M_689",
      "pitch": 71,
      "t_note_us": 80430507,
      "t_trigger_us": 80294544,
      "is_ai": false,
      "track_id": 0,
      "velocity": 0,
      "is_motor": true,
      "motor_id": 1,
      "accel_val": 2000,
      "base_duration_us": 258618
    },
    {
      "id": "M_694",
      "pitch": 71,
      "t_note_us": 80430507,
      "t_trigger_us": 80294544,
      "is_ai": false,
      "track_id": 0,
      "velocity": 0,
      "is_motor": true,
      "motor_id": 0,
      "accel_val": 2000,
      "base_duration_us": 258618
    },
    {
      "id": "M_708",
      "pitch": 83,
      "t_note_us": 80689125,
      "t_trigger_us": 80553162,
      "is_ai": true,
      "track_id": 2,
      "velocity": 0,
      "is_motor": false,
      "motor_id": 0,
      "accel_val": 2000,
      "base_duration_us": 1034473
    },
    {
      "id": "M_725",
      "pitch": 83,
      "t_note_us": 80689125,
      "t_trigger_us": 80553162,
      "is_ai": true,
      "track_id": 2,
      "velocity": 0,
      "is_motor": false,
      "motor_id": 0,
      "accel_val": 2000,
      "base_duration_us": 2068949
    },
    {
      "id": "M_700",
      "pitch": 64,
      "t_note_us": 80689125,
      "t_trigger_us": 80553162,
      "is_ai": false,
      "track_id": 0,
      "velocity": 0,
      "is_motor": true,
      "motor_id": 1,
      "accel_val": 2000,
      "base_duration_us": 258618
    },
    {
      "id": "M_702",
      "pitch": 64,
      "t_note_us": 80689125,
      "t_trigger_us": 80553162,
      "is_ai": false,
      "track_id": 0,
      "velocity": 0,
      "is_motor": true,
      "motor_id": 0,
      "accel_val": 2000,
      "base_duration_us": 517236
    },
    {
      "id": "M_709",
      "pitch": 67,
      "t_note_us": 80689125,
      "t_trigger_us": 80553162,
      "is_ai": false,
      "track_id": 0,
      "velocity": 0,
      "is_motor": true,
      "motor_id": 2,
      "accel_val": 2000,
      "base_duration_us": 1034473
    },
    {
      "id": "M_716",
      "pitch": 40,
      "t_note_us": 80689125,
      "t_trigger_us": 80553162,
      "is_ai": false,
      "track_id": 0,
      "velocity": 0,
      "is_motor": true,
      "motor_id": 3,
      "accel_val": 2000,
      "base_duration_us": 1810330
    },
    {
      "id": "M_722",
      "pitch": 76,
      "t_note_us": 80689125,
      "t_trigger_us": 80553162,
      "is_ai": false,
      "track_id": 0,
      "velocity": 0,
      "is_motor": true,
      "motor_id": 0,
      "accel_val": 2000,
      "base_duration_us": 2068949
    },
    {
      "id": "M_723",
      "pitch": 64,
      "t_note_us": 80689125,
      "t_trigger_us": 80553162,
      "is_ai": false,
      "track_id": 0,
      "velocity": 0,
      "is_motor": true,
      "motor_id": 0,
      "accel_val": 2000,
      "base_duration_us": 2068949
    },
    {
      "id": "M_724",
      "pitch": 76,
      "t_note_us": 80689125,
      "t_trigger_us": 80553162,
      "is_ai": false,
      "track_id": 0,
      "velocity": 0,
      "is_motor": true,
      "motor_id": 0,
      "accel_val": 2000,
      "base_duration_us": 2068949
    },
    {
      "id": "M_726",
      "pitch": 67,
      "t_note_us": 80689125,
      "t_trigger_us": 80553162,
      "is_ai": false,
      "track_id": 0,
      "velocity": 0,
      "is_motor": true,
      "motor_id": 0,
      "accel_val": 2000,
      "base_duration_us": 2068949
    },
    {
      "id": "M_703",
      "pitch": 71,
      "t_note_us": 80947743,
      "t_trigger_us": 80811780,
      "is_ai": false,
      "track_id": 0,
      "velocity": 0,
      "is_motor": true,
      "motor_id": 1,
      "accel_val": 2000,
      "base_duration_us": 258618
    },
    {
      "id": "M_704",
      "pitch": 93,
      "t_note_us": 81206361,
      "t_trigger_us": 81070398,
      "is_ai": true,
      "track_id": 8,
      "velocity": 0,
      "is_motor": false,
      "motor_id": 0,
      "accel_val": 2000,
      "base_duration_us": 258619
    },
    {
      "id": "M_705",
      "pitch": 71,
      "t_note_us": 81206361,
      "t_trigger_us": 81070398,
      "is_ai": false,
      "track_id": 0,
      "velocity": 0,
      "is_motor": true,
      "motor_id": 1,
      "accel_val": 2000,
      "base_duration_us": 258619
    },
    {
      "id": "M_706",
      "pitch": 76,
      "t_note_us": 81206361,
      "t_trigger_us": 81070398,
      "is_ai": false,
      "track_id": 0,
      "velocity": 0,
      "is_motor": true,
      "motor_id": 0,
      "accel_val": 2000,
      "base_duration_us": 258619
    },
    {
      "id": "M_707",
      "pitch": 88,
      "t_note_us": 81464980,
      "t_trigger_us": 81329017,
      "is_ai": true,
      "track_id": 5,
      "velocity": 0,
      "is_motor": false,
      "motor_id": 0,
      "accel_val": 2000,
      "base_duration_us": 258618
    },
    {
      "id": "M_711",
      "pitch": 91,
      "t_note_us": 81464980,
      "t_trigger_us": 81329017,
      "is_ai": true,
      "track_id": 7,
      "velocity": 0,
      "is_motor": false,
      "motor_id": 0,
      "accel_val": 2000,
      "base_duration_us": 517237
    },
    {
      "id": "M_710",
      "pitch": 71,
      "t_note_us": 81464980,
      "t_trigger_us": 81329017,
      "is_ai": false,
      "track_id": 0,
      "velocity": 0,
      "is_motor": true,
      "motor_id": 1,
      "accel_val": 2000,
      "base_duration_us": 258618
    },
    {
      "id": "M_712",
      "pitch": 79,
      "t_note_us": 81723598,
      "t_trigger_us": 81587635,
      "is_ai": true,
      "track_id": 0,
      "velocity": 0,
      "is_motor": false,
      "motor_id": 0,
      "accel_val": 2000,
      "base_duration_us": 258619
    },
    {
      "id": "M_713",
      "pitch": 88,
      "t_note_us": 81982217,
      "t_trigger_us": 81846254,
      "is_ai": true,
      "track_id": 5,
      "velocity": 0,
      "is_motor": false,
      "motor_id": 0,
      "accel_val": 2000,
      "base_duration_us": 258619
    },
    {
      "id": "M_718",
      "pitch": 93,
      "t_note_us": 81982217,
      "t_trigger_us": 81846254,
      "is_ai": true,
      "track_id": 8,
      "velocity": 0,
      "is_motor": false,
      "motor_id": 0,
      "accel_val": 2000,
      "base_duration_us": 775857
    },
    {
      "id": "M_714",
      "pitch": 71,
      "t_note_us": 81982217,
      "t_trigger_us": 81846254,
      "is_ai": false,
      "track_id": 0,
      "velocity": 0,
      "is_motor": true,
      "motor_id": 1,
      "accel_val": 2000,
      "base_duration_us": 258619
    },
    {
      "id": "M_715",
      "pitch": 90,
      "t_note_us": 82240836,
      "t_trigger_us": 82104873,
      "is_ai": true,
      "track_id": 0,
      "velocity": 0,
      "is_motor": true,
      "motor_id": 2,
      "accel_val": 2000,
      "base_duration_us": 258619
    },
    {
      "id": "M_717",
      "pitch": 88,
      "t_note_us": 82240836,
      "t_trigger_us": 82104873,
      "is_ai": true,
      "track_id": 5,
      "velocity": 0,
      "is_motor": false,
      "motor_id": 0,
      "accel_val": 2000,
      "base_duration_us": 258619
    },
    {
      "id": "M_719",
      "pitch": 91,
      "t_note_us": 82499455,
      "t_trigger_us": 82363492,
      "is_ai": true,
      "track_id": 7,
      "velocity": 0,
      "is_motor": false,
      "motor_id": 0,
      "accel_val": 2000,
      "base_duration_us": 258619
    },
    {
      "id": "M_720",
      "pitch": 40,
      "t_note_us": 82499455,
      "t_trigger_us": 82363492,
      "is_ai": false,
      "track_id": 0,
      "velocity": 0,
      "is_motor": true,
      "motor_id": 0,
      "accel_val": 2000,
      "base_duration_us": 258619
    },
    {
      "id": "M_721",
      "pitch": 71,
      "t_note_us": 82499455,
      "t_trigger_us": 82363492,
      "is_ai": false,
      "track_id": 0,
      "velocity": 0,
      "is_motor": true,
      "motor_id": 1,
      "accel_val": 2000,
      "base_duration_us": 258619
    },
    {
      "id": "M_727",
      "pitch": 83,
      "t_note_us": 82758074,
      "t_trigger_us": 82622111,
      "is_ai": true,
      "track_id": 2,
      "velocity": 0,
      "is_motor": false,
      "motor_id": 0,
      "accel_val": 2000,
      "base_duration_us": 258618
    },
    {
      "id": "M_728",
      "pitch": 90,
      "t_note_us": 82758074,
      "t_trigger_us": 82622111,
      "is_ai": true,
      "track_id": 0,
      "velocity": 0,
      "is_motor": true,
      "motor_id": 3,
      "accel_val": 2000,
      "base_duration_us": 517236
    },
    {
      "id": "M_734",
      "pitch": 90,
      "t_note_us": 82758074,
      "t_trigger_us": 82622111,
      "is_ai": true,
      "track_id": 0,
      "velocity": 0,
      "is_motor": true,
      "motor_id": 2,
      "accel_val": 2000,
      "base_duration_us": 1034473
    },
    {
      "id": "M_748",
      "pitch": 83,
      "t_note_us": 82758074,
      "t_trigger_us": 82622111,
      "is_ai": true,
      "track_id": 2,
      "velocity": 0,
      "is_motor": false,
      "motor_id": 0,
      "accel_val": 2000,
      "base_duration_us": 2068946
    },
    {
      "id": "M_732",
      "pitch": 59,
      "t_note_us": 82758074,
      "t_trigger_us": 82622111,
      "is_ai": false,
      "track_id": 0,
      "velocity": 0,
      "is_motor": true,
      "motor_id": 0,
      "accel_val": 2000,
      "base_duration_us": 1034473
    },
    {
      "id": "M_733",
      "pitch": 71,
      "t_note_us": 82758074,
      "t_trigger_us": 82622111,
      "is_ai": false,
      "track_id": 0,
      "velocity": 0,
      "is_motor": true,
      "motor_id": 1,
      "accel_val": 2000,
      "base_duration_us": 1034473
    },
    {
      "id": "M_744",
      "pitch": 47,
      "t_note_us": 82758074,
      "t_trigger_us": 82622111,
      "is_ai": false,
      "track_id": 0,
      "velocity": 0,
      "is_motor": true,
      "motor_id": 0,
      "accel_val": 2000,
      "base_duration_us": 2068946
    },
    {
      "id": "M_746",
      "pitch": 71,
      "t_note_us": 82758074,
      "t_trigger_us": 82622111,
      "is_ai": false,
      "track_id": 0,
      "velocity": 0,
      "is_motor": true,
      "motor_id": 0,
      "accel_val": 2000,
      "base_duration_us": 2068946
    },
    {
      "id": "M_747",
      "pitch": 59,
      "t_note_us": 82758074,
      "t_trigger_us": 82622111,
      "is_ai": false,
      "track_id": 0,
      "velocity": 0,
      "is_motor": true,
      "motor_id": 0,
      "accel_val": 2000,
      "base_duration_us": 2068946
    },
    {
      "id": "M_749",
      "pitch": 78,
      "t_note_us": 82758074,
      "t_trigger_us": 82622111,
      "is_ai": false,
      "track_id": 0,
      "velocity": 0,
      "is_motor": true,
      "motor_id": 0,
      "accel_val": 2000,
      "base_duration_us": 2068946
    },
    {
      "id": "M_750",
      "pitch": 74,
      "t_note_us": 82758074,
      "t_trigger_us": 82622111,
      "is_ai": false,
      "track_id": 0,
      "velocity": 0,
      "is_motor": true,
      "motor_id": 0,
      "accel_val": 2000,
      "base_duration_us": 2068946
    },
    {
      "id": "M_729",
      "pitch": 66,
      "t_note_us": 83016692,
      "t_trigger_us": 82880729,
      "is_ai": false,
      "track_id": 0,
      "velocity": 0,
      "is_motor": true,
      "motor_id": 0,
      "accel_val": 2000,
      "base_duration_us": 258618
    },
    {
      "id": "M_730",
      "pitch": 88,
      "t_note_us": 83275310,
      "t_trigger_us": 83139347,
      "is_ai": true,
      "track_id": 5,
      "velocity": 0,
      "is_motor": false,
      "motor_id": 0,
      "accel_val": 2000,
      "base_duration_us": 258619
    },
    {
      "id": "M_731",
      "pitch": 71,
      "t_note_us": 83275310,
      "t_trigger_us": 83139347,
      "is_ai": false,
      "track_id": 0,
      "velocity": 0,
      "is_motor": true,
      "motor_id": 3,
      "accel_val": 2000,
      "base_duration_us": 258619
    },
    {
      "id": "M_738",
      "pitch": 86,
      "t_note_us": 83533929,
      "t_trigger_us": 83397966,
      "is_ai": true,
      "track_id": 4,
      "velocity": 0,
      "is_motor": false,
      "motor_id": 0,
      "accel_val": 2000,
      "base_duration_us": 1034473
    },
    {
      "id": "M_735",
      "pitch": 66,
      "t_note_us": 83533929,
      "t_trigger_us": 83397966,
      "is_ai": false,
      "track_id": 0,
      "velocity": 0,
      "is_motor": true,
      "motor_id": 3,
      "accel_val": 2000,
      "base_duration_us": 258618
    },
    {
      "id": "M_741",
      "pitch": 86,
      "t_note_us": 83792547,
      "t_trigger_us": 83656584,
      "is_ai": true,
      "track_id": 4,
      "velocity": 0,
      "is_motor": false,
      "motor_id": 0,
      "accel_val": 2000,
      "base_duration_us": 1034473
    },
    {
      "id": "M_742",
      "pitch": 90,
      "t_note_us": 83792547,
      "t_trigger_us": 83656584,
      "is_ai": true,
      "track_id": 0,
      "velocity": 0,
      "is_motor": true,
      "motor_id": 3,
      "accel_val": 2000,
      "base_duration_us": 1034473
    },
    {
      "id": "M_743",
      "pitch": 93,
      "t_note_us": 83792547,
      "t_trigger_us": 83656584,
      "is_ai": true,
      "track_id": 8,
      "velocity": 0,
      "is_motor": false,
      "motor_id": 0,
      "accel_val": 2000,
      "base_duration_us": 1034473
    },
    {
      "id": "M_736",
      "pitch": 74,
      "t_note_us": 83792547,
      "t_trigger_us": 83656584,
      "is_ai": false,
      "track_id": 0,
      "velocity": 0,
      "is_motor": true,
      "motor_id": 1,
      "accel_val": 2000,
      "base_duration_us": 258618
    },
    {
      "id": "M_737",
      "pitch": 66,
      "t_note_us": 84051165,
      "t_trigger_us": 83915202,
      "is_ai": false,
      "track_id": 0,
      "velocity": 0,
      "is_motor": true,
      "motor_id": 1,
      "accel_val": 2000,
      "base_duration_us": 258619
    },
    {
      "id": "M_739",
      "pitch": 71,
      "t_note_us": 84309784,
      "t_trigger_us": 84173821,
      "is_ai": false,
      "track_id": 0,
      "velocity": 0,
      "is_motor": true,
      "motor_id": 1,
      "accel_val": 2000,
      "base_duration_us": 258618
    },
    {
      "id": "M_740",
      "pitch": 86,
      "t_note_us": 84568402,
      "t_trigger_us": 84432439,
      "is_ai": true,
      "track_id": 4,
      "velocity": 0,
      "is_motor": false,
      "motor_id": 0,
      "accel_val": 2000,
      "base_duration_us": 258618
    },
    {
      "id": "M_745",
      "pitch": 66,
      "t_note_us": 84568402,
      "t_trigger_us": 84432439,
      "is_ai": false,
      "track_id": 0,
      "velocity": 0,
      "is_motor": true,
      "motor_id": 1,
      "accel_val": 2000,
      "base_duration_us": 258618
    },
    {
      "id": "M_752",
      "pitch": 88,
      "t_note_us": 84827020,
      "t_trigger_us": 84691057,
      "is_ai": true,
      "track_id": 5,
      "velocity": 0,
      "is_motor": false,
      "motor_id": 0,
      "accel_val": 2000,
      "base_duration_us": 344825
    },
    {
      "id": "M_759",
      "pitch": 84,
      "t_note_us": 84827020,
      "t_trigger_us": 84691057,
      "is_ai": true,
      "track_id": 3,
      "velocity": 0,
      "is_motor": false,
      "motor_id": 0,
      "accel_val": 2000,
      "base_duration_us": 1034475
    },
    {
      "id": "M_777",
      "pitch": 84,
      "t_note_us": 84827020,
      "t_trigger_us": 84691057,
      "is_ai": true,
      "track_id": 3,
      "velocity": 0,
      "is_motor": false,
      "motor_id": 0,
      "accel_val": 2000,
      "base_duration_us": 2068950
    },
    {
      "id": "M_751",
      "pitch": 60,
      "t_note_us": 84827020,
      "t_trigger_us": 84691057,
      "is_ai": false,
      "track_id": 0,
      "velocity": 0,
      "is_motor": true,
      "motor_id": 1,
      "accel_val": 2000,
      "base_duration_us": 258619
    },
    {
      "id": "M_753",
      "pitch": 60,
      "t_note_us": 84827020,
      "t_trigger_us": 84691057,
      "is_ai": false,
      "track_id": 0,
      "velocity": 0,
      "is_motor": true,
      "motor_id": 0,
      "accel_val": 2000,
      "base_duration_us": 517237
    },
    {
      "id": "M_760",
      "pitch": 67,
      "t_note_us": 84827020,
      "t_trigger_us": 84691057,
      "is_ai": false,
      "track_id": 0,
      "velocity": 0,
      "is_motor": true,
      "motor_id": 2,
      "accel_val": 2000,
      "base_duration_us": 1034475
    },
    {
      "id": "M_772",
      "pitch": 48,
      "t_note_us": 84827020,
      "t_trigger_us": 84691057,
      "is_ai": false,
      "track_id": 0,
      "velocity": 0,
      "is_motor": true,
      "motor_id": 3,
      "accel_val": 2000,
      "base_duration_us": 2068950
    },
    {
      "id": "M_773",
      "pitch": 72,
      "t_note_us": 84827020,
      "t_trigger_us": 84691057,
      "is_ai": false,
      "track_id": 0,
      "velocity": 0,
      "is_motor": true,
      "motor_id": 0,
      "accel_val": 2000,
      "base_duration_us": 2068950
    },
    {
      "id": "M_774",
      "pitch": 60,
      "t_note_us": 84827020,
      "t_trigger_us": 84691057,
      "is_ai": false,
      "track_id": 0,
      "velocity": 0,
      "is_motor": true,
      "motor_id": 0,
      "accel_val": 2000,
      "base_duration_us": 2068950
    },
    {
      "id": "M_775",
      "pitch": 76,
      "t_note_us": 84827020,
      "t_trigger_us": 84691057,
      "is_ai": false,
      "track_id": 0,
      "velocity": 0,
      "is_motor": true,
      "motor_id": 0,
      "accel_val": 2000,
      "base_duration_us": 2068950
    },
    {
      "id": "M_776",
      "pitch": 67,
      "t_note_us": 84827020,
      "t_trigger_us": 84691057,
      "is_ai": false,
      "track_id": 0,
      "velocity": 0,
      "is_motor": true,
      "motor_id": 0,
      "accel_val": 2000,
      "base_duration_us": 2068950
    },
    {
      "id": "M_754",
      "pitch": 67,
      "t_note_us": 85085639,
      "t_trigger_us": 84949676,
      "is_ai": false,
      "track_id": 0,
      "velocity": 0,
      "is_motor": true,
      "motor_id": 1,
      "accel_val": 2000,
      "base_duration_us": 258618
    },
    {
      "id": "M_755",
      "pitch": 91,
      "t_note_us": 85171845,
      "t_trigger_us": 85035882,
      "is_ai": true,
      "track_id": 7,
      "velocity": 0,
      "is_motor": false,
      "motor_id": 0,
      "accel_val": 2000,
      "base_duration_us": 344825
    },
    {
      "id": "M_756",
      "pitch": 72,
      "t_note_us": 85344257,
      "t_trigger_us": 85208294,
      "is_ai": false,
      "track_id": 0,
      "velocity": 0,
      "is_motor": true,
      "motor_id": 1,
      "accel_val": 2000,
      "base_duration_us": 258619
    },
    {
      "id": "M_757",
      "pitch": 72,
      "t_note_us": 85344257,
      "t_trigger_us": 85208294,
      "is_ai": false,
      "track_id": 0,
      "velocity": 0,
      "is_motor": true,
      "motor_id": 0,
      "accel_val": 2000,
      "base_duration_us": 258619
    },
    {
      "id": "M_758",
      "pitch": 91,
      "t_note_us": 85516670,
      "t_trigger_us": 85380707,
      "is_ai": true,
      "track_id": 7,
      "velocity": 0,
      "is_motor": false,
      "motor_id": 0,
      "accel_val": 2000,
      "base_duration_us": 344825
    },
    {
      "id": "M_761",
      "pitch": 88,
      "t_note_us": 85602876,
      "t_trigger_us": 85466913,
      "is_ai": true,
      "track_id": 5,
      "velocity": 0,
      "is_motor": false,
      "motor_id": 0,
      "accel_val": 2000,
      "base_duration_us": 258619
    },
    {
      "id": "M_762",
      "pitch": 67,
      "t_note_us": 85602876,
      "t_trigger_us": 85466913,
      "is_ai": false,
      "track_id": 0,
      "velocity": 0,
      "is_motor": true,
      "motor_id": 1,
      "accel_val": 2000,
      "base_duration_us": 258619
    },
    {
      "id": "M_763",
      "pitch": 91,
      "t_note_us": 85861495,
      "t_trigger_us": 85725532,
      "is_ai": true,
      "track_id": 7,
      "velocity": 0,
      "is_motor": false,
      "motor_id": 0,
      "accel_val": 2000,
      "base_duration_us": 258619
    },
    {
      "id": "M_764",
      "pitch": 88,
      "t_note_us": 85861495,
      "t_trigger_us": 85725532,
      "is_ai": true,
      "track_id": 5,
      "velocity": 0,
      "is_motor": false,
      "motor_id": 0,
      "accel_val": 2000,
      "base_duration_us": 258619
    },
    {
      "id": "M_765",
      "pitch": 79,
      "t_note_us": 86120114,
      "t_trigger_us": 85984151,
      "is_ai": true,
      "track_id": 0,
      "velocity": 0,
      "is_motor": false,
      "motor_id": 0,
      "accel_val": 2000,
      "base_duration_us": 258620
    },
    {
      "id": "M_767",
      "pitch": 95,
      "t_note_us": 86120114,
      "t_trigger_us": 85984151,
      "is_ai": true,
      "track_id": 9,
      "velocity": 0,
      "is_motor": false,
      "motor_id": 0,
      "accel_val": 2000,
      "base_duration_us": 517239
    },
    {
      "id": "M_766",
      "pitch": 67,
      "t_note_us": 86120114,
      "t_trigger_us": 85984151,
      "is_ai": false,
      "track_id": 0,
      "velocity": 0,
      "is_motor": true,
      "motor_id": 1,
      "accel_val": 2000,
      "base_duration_us": 258620
    },
    {
      "id": "M_768",
      "pitch": 84,
      "t_note_us": 86378734,
      "t_trigger_us": 86242771,
      "is_ai": true,
      "track_id": 3,
      "velocity": 0,
      "is_motor": false,
      "motor_id": 0,
      "accel_val": 2000,
      "base_duration_us": 258619
    },
    {
      "id": "M_769",
      "pitch": 72,
      "t_note_us": 86378734,
      "t_trigger_us": 86242771,
      "is_ai": false,
      "track_id": 0,
      "velocity": 0,
      "is_motor": true,
      "motor_id": 1,
      "accel_val": 2000,
      "base_duration_us": 258619
    },
    {
      "id": "M_771",
      "pitch": 88,
      "t_note_us": 86637353,
      "t_trigger_us": 86501390,
      "is_ai": true,
      "track_id": 5,
      "velocity": 0,
      "is_motor": false,
      "motor_id": 0,
      "accel_val": 2000,
      "base_duration_us": 258617
    },
    {
      "id": "M_783",
      "pitch": 93,
      "t_note_us": 86637353,
      "t_trigger_us": 86501390,
      "is_ai": true,
      "track_id": 8,
      "velocity": 0,
      "is_motor": false,
      "motor_id": 0,
      "accel_val": 2000,
      "base_duration_us": 1293093
    },
    {
      "id": "M_779",
      "pitch": 62,
      "t_note_us": 86740800,
      "t_trigger_us": 86604837,
      "is_ai": false,
      "track_id": 0,
      "velocity": 0,
      "is_motor": true,
      "motor_id": 1,
      "accel_val": 2000,
      "base_duration_us": 517236
    },
    {
      "id": "M_770",
      "pitch": 90,
      "t_note_us": 86809765,
      "t_trigger_us": 86673802,
      "is_ai": true,
      "track_id": 0,
      "velocity": 0,
      "is_motor": true,
      "motor_id": 2,
      "accel_val": 2000,
      "base_duration_us": 86205
    },
    {
      "id": "M_780",
      "pitch": 74,
      "t_note_us": 86809765,
      "t_trigger_us": 86673802,
      "is_ai": false,
      "track_id": 0,
      "velocity": 0,
      "is_motor": true,
      "motor_id": 0,
      "accel_val": 2000,
      "base_duration_us": 517236
    },
    {
      "id": "M_778",
      "pitch": 93,
      "t_note_us": 86852868,
      "t_trigger_us": 86716905,
      "is_ai": true,
      "track_id": 8,
      "velocity": 0,
      "is_motor": false,
      "motor_id": 0,
      "accel_val": 2000,
      "base_duration_us": 86205
    },
    {
      "id": "M_781",
      "pitch": 78,
      "t_note_us": 86852868,
      "t_trigger_us": 86716905,
      "is_ai": false,
      "track_id": 0,
      "velocity": 0,
      "is_motor": true,
      "motor_id": 0,
      "accel_val": 2000,
      "base_duration_us": 517236
    },
    {
      "id": "M_782",
      "pitch": 81,
      "t_note_us": 86895970,
      "t_trigger_us": 86760007,
      "is_ai": true,
      "track_id": 1,
      "velocity": 0,
      "is_motor": false,
      "motor_id": 0,
      "accel_val": 2000,
      "base_duration_us": 517237
    },
    {
      "id": "M_798",
      "pitch": 98,
      "t_note_us": 86895970,
      "t_trigger_us": 86760007,
      "is_ai": true,
      "track_id": 11,
      "velocity": 0,
      "is_motor": false,
      "motor_id": 0,
      "accel_val": 2000,
      "base_duration_us": 2068946
    },
    {
      "id": "M_799",
      "pitch": 50,
      "t_note_us": 86895970,
      "t_trigger_us": 86760007,
      "is_ai": false,
      "track_id": 0,
      "velocity": 0,
      "is_motor": true,
      "motor_id": 2,
      "accel_val": 2000,
      "base_duration_us": 2068946
    },
    {
      "id": "M_800",
      "pitch": 62,
      "t_note_us": 86895970,
      "t_trigger_us": 86760007,
      "is_ai": false,
      "track_id": 0,
      "velocity": 0,
      "is_motor": true,
      "motor_id": 3,
      "accel_val": 2000,
      "base_duration_us": 2068946
    },
    {
      "id": "M_801",
      "pitch": 50,
      "t_note_us": 86895970,
      "t_trigger_us": 86760007,
      "is_ai": false,
      "track_id": 0,
      "velocity": 0,
      "is_motor": true,
      "motor_id": 0,
      "accel_val": 2000,
      "base_duration_us": 2068946
    },
    {
      "id": "M_802",
      "pitch": 74,
      "t_note_us": 86895970,
      "t_trigger_us": 86760007,
      "is_ai": false,
      "track_id": 0,
      "velocity": 0,
      "is_motor": true,
      "motor_id": 0,
      "accel_val": 2000,
      "base_duration_us": 2068946
    },
    {
      "id": "M_803",
      "pitch": 62,
      "t_note_us": 86895970,
      "t_trigger_us": 86760007,
      "is_ai": false,
      "track_id": 0,
      "velocity": 0,
      "is_motor": true,
      "motor_id": 0,
      "accel_val": 2000,
      "base_duration_us": 2068946
    },
    {
      "id": "M_804",
      "pitch": 69,
      "t_note_us": 86895970,
      "t_trigger_us": 86760007,
      "is_ai": false,
      "track_id": 0,
      "velocity": 0,
      "is_motor": true,
      "motor_id": 0,
      "accel_val": 2000,
      "base_duration_us": 2068946
    },
    {
      "id": "M_805",
      "pitch": 67,
      "t_note_us": 86895970,
      "t_trigger_us": 86760007,
      "is_ai": false,
      "track_id": 0,
      "velocity": 0,
      "is_motor": true,
      "motor_id": 0,
      "accel_val": 2000,
      "base_duration_us": 2068946
    },
    {
      "id": "M_806",
      "pitch": 74,
      "t_note_us": 86895970,
      "t_trigger_us": 86760007,
      "is_ai": false,
      "track_id": 0,
      "velocity": 0,
      "is_motor": true,
      "motor_id": 0,
      "accel_val": 2000,
      "base_duration_us": 2068946
    },
    {
      "id": "M_787",
      "pitch": 86,
      "t_note_us": 87930446,
      "t_trigger_us": 87794483,
      "is_ai": true,
      "track_id": 4,
      "velocity": 0,
      "is_motor": false,
      "motor_id": 0,
      "accel_val": 2000,
      "base_duration_us": 344824
    },
    {
      "id": "M_784",
      "pitch": 65,
      "t_note_us": 87930446,
      "t_trigger_us": 87794483,
      "is_ai": false,
      "track_id": 0,
      "velocity": 0,
      "is_motor": true,
      "motor_id": 1,
      "accel_val": 2000,
      "base_duration_us": 86206
    },
    {
      "id": "M_785",
      "pitch": 65,
      "t_note_us": 88016652,
      "t_trigger_us": 87880689,
      "is_ai": false,
      "track_id": 0,
      "velocity": 0,
      "is_motor": true,
      "motor_id": 1,
      "accel_val": 2000,
      "base_duration_us": 86206
    },
    {
      "id": "M_786",
      "pitch": 65,
      "t_note_us": 88102858,
      "t_trigger_us": 87966895,
      "is_ai": false,
      "track_id": 0,
      "velocity": 0,
      "is_motor": true,
      "motor_id": 1,
      "accel_val": 2000,
      "base_duration_us": 86206
    },
    {
      "id": "M_788",
      "pitch": 65,
      "t_note_us": 88189064,
      "t_trigger_us": 88053101,
      "is_ai": false,
      "track_id": 0,
      "velocity": 0,
      "is_motor": true,
      "motor_id": 1,
      "accel_val": 2000,
      "base_duration_us": 86206
    },
    {
      "id": "M_792",
      "pitch": 91,
      "t_note_us": 88275270,
      "t_trigger_us": 88139307,
      "is_ai": true,
      "track_id": 7,
      "velocity": 0,
      "is_motor": false,
      "motor_id": 0,
      "accel_val": 2000,
      "base_duration_us": 344824
    },
    {
      "id": "M_789",
      "pitch": 65,
      "t_note_us": 88275270,
      "t_trigger_us": 88139307,
      "is_ai": false,
      "track_id": 0,
      "velocity": 0,
      "is_motor": true,
      "motor_id": 1,
      "accel_val": 2000,
      "base_duration_us": 86206
    },
    {
      "id": "M_790",
      "pitch": 65,
      "t_note_us": 88361476,
      "t_trigger_us": 88225513,
      "is_ai": false,
      "track_id": 0,
      "velocity": 0,
      "is_motor": true,
      "motor_id": 1,
      "accel_val": 2000,
      "base_duration_us": 86206
    },
    {
      "id": "M_791",
      "pitch": 65,
      "t_note_us": 88447682,
      "t_trigger_us": 88311719,
      "is_ai": false,
      "track_id": 0,
      "velocity": 0,
      "is_motor": true,
      "motor_id": 1,
      "accel_val": 2000,
      "base_duration_us": 86206
    },
    {
      "id": "M_793",
      "pitch": 65,
      "t_note_us": 88533888,
      "t_trigger_us": 88397925,
      "is_ai": false,
      "track_id": 0,
      "velocity": 0,
      "is_motor": true,
      "motor_id": 1,
      "accel_val": 2000,
      "base_duration_us": 86206
    },
    {
      "id": "M_797",
      "pitch": 90,
      "t_note_us": 88620094,
      "t_trigger_us": 88484131,
      "is_ai": true,
      "track_id": 0,
      "velocity": 0,
      "is_motor": true,
      "motor_id": 1,
      "accel_val": 2000,
      "base_duration_us": 344822
    },
    {
      "id": "M_794",
      "pitch": 65,
      "t_note_us": 88620094,
      "t_trigger_us": 88484131,
      "is_ai": false,
      "track_id": 0,
      "velocity": 0,
      "is_motor": true,
      "motor_id": 0,
      "accel_val": 2000,
      "base_duration_us": 86206
    },
    {
      "id": "M_795",
      "pitch": 65,
      "t_note_us": 88706300,
      "t_trigger_us": 88570337,
      "is_ai": false,
      "track_id": 0,
      "velocity": 0,
      "is_motor": true,
      "motor_id": 0,
      "accel_val": 2000,
      "base_duration_us": 86205
    },
    {
      "id": "M_796",
      "pitch": 65,
      "t_note_us": 88792505,
      "t_trigger_us": 88656542,
      "is_ai": false,
      "track_id": 0,
      "velocity": 0,
      "is_motor": true,
      "motor_id": 0,
      "accel_val": 2000,
      "base_duration_us": 86206
    },
    {
      "id": "M_807",
      "pitch": 89,
      "t_note_us": 88878711,
      "t_trigger_us": 88742748,
      "is_ai": true,
      "track_id": 6,
      "velocity": 0,
      "is_motor": false,
      "motor_id": 0,
      "accel_val": 2000,
      "base_duration_us": 86205
    },
    {
      "id": "M_810",
      "pitch": 83,
      "t_note_us": 88964916,
      "t_trigger_us": 88828953,
      "is_ai": true,
      "track_id": 2,
      "velocity": 0,
      "is_motor": false,
      "motor_id": 0,
      "accel_val": 2000,
      "base_duration_us": 517239
    },
    {
      "id": "M_821",
      "pitch": 91,
      "t_note_us": 88964916,
      "t_trigger_us": 88828953,
      "is_ai": true,
      "track_id": 7,
      "velocity": 0,
      "is_motor": false,
      "motor_id": 0,
      "accel_val": 2000,
      "base_duration_us": 4137905
    },
    {
      "id": "M_808",
      "pitch": 65,
      "t_note_us": 88964916,
      "t_trigger_us": 88828953,
      "is_ai": false,
      "track_id": 0,
      "velocity": 0,
      "is_motor": true,
      "motor_id": 1,
      "accel_val": 2000,
      "base_duration_us": 86206
    },
    {
      "id": "M_809",
      "pitch": 67,
      "t_note_us": 88964916,
      "t_trigger_us": 88828953,
      "is_ai": false,
      "track_id": 0,
      "velocity": 0,
      "is_motor": true,
      "motor_id": 2,
      "accel_val": 2000,
      "base_duration_us": 258619
    },
    {
      "id": "M_812",
      "pitch": 74,
      "t_note_us": 89223535,
      "t_trigger_us": 89087572,
      "is_ai": false,
      "track_id": 0,
      "velocity": 0,
      "is_motor": true,
      "motor_id": 1,
      "accel_val": 2000,
      "base_duration_us": 775860
    },
    {
      "id": "M_811",
      "pitch": 86,
      "t_note_us": 89482155,
      "t_trigger_us": 89346192,
      "is_ai": true,
      "track_id": 4,
      "velocity": 0,
      "is_motor": false,
      "motor_id": 0,
      "accel_val": 2000,
      "base_duration_us": 258620
    },
    {
      "id": "M_813",
      "pitch": 91,
      "t_note_us": 89740775,
      "t_trigger_us": 89604812,
      "is_ai": true,
      "track_id": 7,
      "velocity": 0,
      "is_motor": false,
      "motor_id": 0,
      "accel_val": 2000,
      "base_duration_us": 775861
    },
    {
      "id": "M_815",
      "pitch": 65,
      "t_note_us": 89999395,
      "t_trigger_us": 89863432,
      "is_ai": false,
      "track_id": 0,
      "velocity": 0,
      "is_motor": true,
      "motor_id": 1,
      "accel_val": 2000,
      "base_duration_us": 1034480
    },
    {
      "id": "M_814",
      "pitch": 93,
      "t_note_us": 90516636,
      "t_trigger_us": 90380673,
      "is_ai": true,
      "track_id": 8,
      "velocity": 0,
      "is_motor": false,
      "motor_id": 0,
      "accel_val": 2000,
      "base_duration_us": 258620
    },
    {
      "id": "M_820",
      "pitch": 95,
      "t_note_us": 90775256,
      "t_trigger_us": 90639293,
      "is_ai": true,
      "track_id": 9,
      "velocity": 0,
      "is_motor": false,
      "motor_id": 0,
      "accel_val": 2000,
      "base_duration_us": 1293099
    },
    {
      "id": "M_816",
      "pitch": 60,
      "t_note_us": 91033875,
      "t_trigger_us": 90897912,
      "is_ai": false,
      "track_id": 0,
      "velocity": 0,
      "is_motor": true,
      "motor_id": 1,
      "accel_val": 2000,
      "base_duration_us": 258620
    },
    {
      "id": "M_817",
      "pitch": 67,
      "t_note_us": 91292495,
      "t_trigger_us": 91156532,
      "is_ai": false,
      "track_id": 0,
      "velocity": 0,
      "is_motor": true,
      "motor_id": 1,
      "accel_val": 2000,
      "base_duration_us": 258620
    },
    {
      "id": "M_818",
      "pitch": 74,
      "t_note_us": 91551115,
      "t_trigger_us": 91415152,
      "is_ai": false,
      "track_id": 0,
      "velocity": 0,
      "is_motor": true,
      "motor_id": 1,
      "accel_val": 2000,
      "base_duration_us": 258620
    },
    {
      "id": "M_819",
      "pitch": 88,
      "t_note_us": 91809735,
      "t_trigger_us": 91673772,
      "is_ai": true,
      "track_id": 5,
      "velocity": 0,
      "is_motor": false,
      "motor_id": 0,
      "accel_val": 2000,
      "base_duration_us": 258620
    },
    {
      "id": "M_824",
      "pitch": 88,
      "t_note_us": 92068355,
      "t_trigger_us": 91932392,
      "is_ai": true,
      "track_id": 5,
      "velocity": 0,
      "is_motor": false,
      "motor_id": 0,
      "accel_val": 2000,
      "base_duration_us": 1034466
    },
    {
      "id": "M_823",
      "pitch": 76,
      "t_note_us": 92068355,
      "t_trigger_us": 91932392,
      "is_ai": false,
      "track_id": 0,
      "velocity": 0,
      "is_motor": true,
      "motor_id": 2,
      "accel_val": 2000,
      "base_duration_us": 1034466
    },
    {
      "id": "M_825",
      "pitch": 67,
      "t_note_us": 92068355,
      "t_trigger_us": 91932392,
      "is_ai": false,
      "track_id": 0,
      "velocity": 0,
      "is_motor": true,
      "motor_id": 1,
      "accel_val": 2000,
      "base_duration_us": 1034466
    },
    {
      "id": "M_827",
      "pitch": 73,
      "t_note_us": 92068355,
      "t_trigger_us": 91932392,
      "is_ai": false,
      "track_id": 0,
      "velocity": 0,
      "is_motor": true,
      "motor_id": 0,
      "accel_val": 2000,
      "base_duration_us": 1034466
    },
    {
      "id": "M_822",
      "pitch": 91,
      "t_note_us": 92844204,
      "t_trigger_us": 92708241,
      "is_ai": true,
      "track_id": 7,
      "velocity": 0,
      "is_motor": false,
      "motor_id": 0,
      "accel_val": 2000,
      "base_duration_us": 258617
    },
    {
      "id": "M_826",
      "pitch": 79,
      "t_note_us": 92844204,
      "t_trigger_us": 92708241,
      "is_ai": true,
      "track_id": 0,
      "velocity": 0,
      "is_motor": false,
      "motor_id": 0,
      "accel_val": 2000,
      "base_duration_us": 258617
    },
    {
      "id": "M_829",
      "pitch": 90,
      "t_note_us": 93102821,
      "t_trigger_us": 92966858,
      "is_ai": true,
      "track_id": 0,
      "velocity": 0,
      "is_motor": true,
      "motor_id": 3,
      "accel_val": 2000,
      "base_duration_us": 517238
    },
    {
      "id": "M_833",
      "pitch": 81,
      "t_note_us": 93102821,
      "t_trigger_us": 92966858,
      "is_ai": true,
      "track_id": 1,
      "velocity": 0,
      "is_motor": false,
      "motor_id": 0,
      "accel_val": 2000,
      "base_duration_us": 1034476
    },
    {
      "id": "M_834",
      "pitch": 90,
      "t_note_us": 93102821,
      "t_trigger_us": 92966858,
      "is_ai": true,
      "track_id": 0,
      "velocity": 0,
      "is_motor": true,
      "motor_id": 2,
      "accel_val": 2000,
      "base_duration_us": 1034476
    },
    {
      "id": "M_835",
      "pitch": 86,
      "t_note_us": 93102821,
      "t_trigger_us": 92966858,
      "is_ai": true,
      "track_id": 4,
      "velocity": 0,
      "is_motor": false,
      "motor_id": 0,
      "accel_val": 2000,
      "base_duration_us": 1034476
    },
    {
      "id": "M_842",
      "pitch": 81,
      "t_note_us": 93102821,
      "t_trigger_us": 92966858,
      "is_ai": true,
      "track_id": 1,
      "velocity": 0,
      "is_motor": false,
      "motor_id": 0,
      "accel_val": 2000,
      "base_duration_us": 1034476
    },
    {
      "id": "M_828",
      "pitch": 78,
      "t_note_us": 93102821,
      "t_trigger_us": 92966858,
      "is_ai": false,
      "track_id": 0,
      "velocity": 0,
      "is_motor": true,
      "motor_id": 1,
      "accel_val": 2000,
      "base_duration_us": 517238
    },
    {
      "id": "M_832",
      "pitch": 62,
      "t_note_us": 93102821,
      "t_trigger_us": 92966858,
      "is_ai": false,
      "track_id": 0,
      "velocity": 0,
      "is_motor": true,
      "motor_id": 0,
      "accel_val": 2000,
      "base_duration_us": 1034476
    },
    {
      "id": "M_836",
      "pitch": 74,
      "t_note_us": 93102821,
      "t_trigger_us": 92966858,
      "is_ai": false,
      "track_id": 0,
      "velocity": 0,
      "is_motor": true,
      "motor_id": 0,
      "accel_val": 2000,
      "base_duration_us": 1034476
    },
    {
      "id": "M_837",
      "pitch": 62,
      "t_note_us": 93102821,
      "t_trigger_us": 92966858,
      "is_ai": false,
      "track_id": 0,
      "velocity": 0,
      "is_motor": true,
      "motor_id": 0,
      "accel_val": 2000,
      "base_duration_us": 1034476
    },
    {
      "id": "M_838",
      "pitch": 74,
      "t_note_us": 93102821,
      "t_trigger_us": 92966858,
      "is_ai": false,
      "track_id": 0,
      "velocity": 0,
      "is_motor": true,
      "motor_id": 0,
      "accel_val": 2000,
      "base_duration_us": 1034476
    },
    {
      "id": "M_839",
      "pitch": 62,
      "t_note_us": 93102821,
      "t_trigger_us": 92966858,
      "is_ai": false,
      "track_id": 0,
      "velocity": 0,
      "is_motor": true,
      "motor_id": 0,
      "accel_val": 2000,
      "base_duration_us": 1034476
    },
    {
      "id": "M_840",
      "pitch": 74,
      "t_note_us": 93102821,
      "t_trigger_us": 92966858,
      "is_ai": false,
      "track_id": 0,
      "velocity": 0,
      "is_motor": true,
      "motor_id": 0,
      "accel_val": 2000,
      "base_duration_us": 1034476
    },
    {
      "id": "M_841",
      "pitch": 78,
      "t_note_us": 93102821,
      "t_trigger_us": 92966858,
      "is_ai": false,
      "track_id": 0,
      "velocity": 0,
      "is_motor": true,
      "motor_id": 0,
      "accel_val": 2000,
      "base_duration_us": 1034476
    },
    {
      "id": "M_843",
      "pitch": 65,
      "t_note_us": 93102821,
      "t_trigger_us": 92966858,
      "is_ai": false,
      "track_id": 0,
      "velocity": 0,
      "is_motor": true,
      "motor_id": 0,
      "accel_val": 2000,
      "base_duration_us": 1034476
    },
    {
      "id": "M_830",
      "pitch": 79,
      "t_note_us": 93620059,
      "t_trigger_us": 93484096,
      "is_ai": true,
      "track_id": 0,
      "velocity": 0,
      "is_motor": false,
      "motor_id": 0,
      "accel_val": 2000,
      "base_duration_us": 258620
    },
    {
      "id": "M_831",
      "pitch": 91,
      "t_note_us": 93620059,
      "t_trigger_us": 93484096,
      "is_ai": true,
      "track_id": 7,
      "velocity": 0,
      "is_motor": false,
      "motor_id": 0,
      "accel_val": 2000,
      "base_duration_us": 258620
    },
    {
      "id": "M_844",
      "pitch": 90,
      "t_note_us": 93878679,
      "t_trigger_us": 93742716,
      "is_ai": true,
      "track_id": 0,
      "velocity": 0,
      "is_motor": true,
      "motor_id": 3,
      "accel_val": 2000,
      "base_duration_us": 775854
    },
    {
      "id": "M_845",
      "pitch": 90,
      "t_note_us": 93878679,
      "t_trigger_us": 93742716,
      "is_ai": true,
      "track_id": 0,
      "velocity": 0,
      "is_motor": true,
      "motor_id": 1,
      "accel_val": 2000,
      "base_duration_us": 775854
    },
    {
      "id": "M_849",
      "pitch": 79,
      "t_note_us": 94137297,
      "t_trigger_us": 94001334,
      "is_ai": true,
      "track_id": 0,
      "velocity": 0,
      "is_motor": false,
      "motor_id": 0,
      "accel_val": 2000,
      "base_duration_us": 1034472
    },
    {
      "id": "M_850",
      "pitch": 88,
      "t_note_us": 94137297,
      "t_trigger_us": 94001334,
      "is_ai": true,
      "track_id": 5,
      "velocity": 0,
      "is_motor": false,
      "motor_id": 0,
      "accel_val": 2000,
      "base_duration_us": 1034472
    },
    {
      "id": "M_851",
      "pitch": 84,
      "t_note_us": 94137297,
      "t_trigger_us": 94001334,
      "is_ai": true,
      "track_id": 3,
      "velocity": 0,
      "is_motor": false,
      "motor_id": 0,
      "accel_val": 2000,
      "base_duration_us": 1034472
    },
    {
      "id": "M_857",
      "pitch": 79,
      "t_note_us": 94137297,
      "t_trigger_us": 94001334,
      "is_ai": true,
      "track_id": 0,
      "velocity": 0,
      "is_motor": false,
      "motor_id": 0,
      "accel_val": 2000,
      "base_duration_us": 1034472
    },
    {
      "id": "M_848",
      "pitch": 60,
      "t_note_us": 94137297,
      "t_trigger_us": 94001334,
      "is_ai": false,
      "track_id": 0,
      "velocity": 0,
      "is_motor": true,
      "motor_id": 0,
      "accel_val": 2000,
      "base_duration_us": 1034472
    },
    {
      "id": "M_852",
      "pitch": 72,
      "t_note_us": 94137297,
      "t_trigger_us": 94001334,
      "is_ai": false,
      "track_id": 0,
      "velocity": 0,
      "is_motor": true,
      "motor_id": 2,
      "accel_val": 2000,
      "base_duration_us": 1034472
    },
    {
      "id": "M_853",
      "pitch": 60,
      "t_note_us": 94137297,
      "t_trigger_us": 94001334,
      "is_ai": false,
      "track_id": 0,
      "velocity": 0,
      "is_motor": true,
      "motor_id": 0,
      "accel_val": 2000,
      "base_duration_us": 1034472
    },
    {
      "id": "M_854",
      "pitch": 72,
      "t_note_us": 94137297,
      "t_trigger_us": 94001334,
      "is_ai": false,
      "track_id": 0,
      "velocity": 0,
      "is_motor": true,
      "motor_id": 0,
      "accel_val": 2000,
      "base_duration_us": 1034472
    },
    {
      "id": "M_855",
      "pitch": 60,
      "t_note_us": 94137297,
      "t_trigger_us": 94001334,
      "is_ai": false,
      "track_id": 0,
      "velocity": 0,
      "is_motor": true,
      "motor_id": 0,
      "accel_val": 2000,
      "base_duration_us": 1034472
    },
    {
      "id": "M_856",
      "pitch": 72,
      "t_note_us": 94137297,
      "t_trigger_us": 94001334,
      "is_ai": false,
      "track_id": 0,
      "velocity": 0,
      "is_motor": true,
      "motor_id": 0,
      "accel_val": 2000,
      "base_duration_us": 1034472
    },
    {
      "id": "M_858",
      "pitch": 76,
      "t_note_us": 94137297,
      "t_trigger_us": 94001334,
      "is_ai": false,
      "track_id": 0,
      "velocity": 0,
      "is_motor": true,
      "motor_id": 0,
      "accel_val": 2000,
      "base_duration_us": 1034472
    },
    {
      "id": "M_859",
      "pitch": 73,
      "t_note_us": 94137297,
      "t_trigger_us": 94001334,
      "is_ai": false,
      "track_id": 0,
      "velocity": 0,
      "is_motor": true,
      "motor_id": 0,
      "accel_val": 2000,
      "base_duration_us": 1034472
    },
    {
      "id": "M_846",
      "pitch": 88,
      "t_note_us": 94654533,
      "t_trigger_us": 94518570,
      "is_ai": true,
      "track_id": 5,
      "velocity": 0,
      "is_motor": false,
      "motor_id": 0,
      "accel_val": 2000,
      "base_duration_us": 258618
    },
    {
      "id": "M_847",
      "pitch": 88,
      "t_note_us": 94654533,
      "t_trigger_us": 94518570,
      "is_ai": true,
      "track_id": 5,
      "velocity": 0,
      "is_motor": false,
      "motor_id": 0,
      "accel_val": 2000,
      "base_duration_us": 258618
    },
    {
      "id": "M_862",
      "pitch": 86,
      "t_note_us": 94913151,
      "t_trigger_us": 94777188,
      "is_ai": true,
      "track_id": 4,
      "velocity": 0,
      "is_motor": false,
      "motor_id": 0,
      "accel_val": 2000,
      "base_duration_us": 775856
    },
    {
      "id": "M_861",
      "pitch": 74,
      "t_note_us": 94913151,
      "t_trigger_us": 94777188,
      "is_ai": false,
      "track_id": 0,
      "velocity": 0,
      "is_motor": true,
      "motor_id": 1,
      "accel_val": 2000,
      "base_duration_us": 775856
    },
    {
      "id": "M_867",
      "pitch": 83,
      "t_note_us": 95171769,
      "t_trigger_us": 95035806,
      "is_ai": true,
      "track_id": 2,
      "velocity": 0,
      "is_motor": false,
      "motor_id": 0,
      "accel_val": 2000,
      "base_duration_us": 1034476
    },
    {
      "id": "M_868",
      "pitch": 86,
      "t_note_us": 95171769,
      "t_trigger_us": 95035806,
      "is_ai": true,
      "track_id": 4,
      "velocity": 0,
      "is_motor": false,
      "motor_id": 0,
      "accel_val": 2000,
      "base_duration_us": 1034476
    },
    {
      "id": "M_860",
      "pitch": 65,
      "t_note_us": 95171769,
      "t_trigger_us": 95035806,
      "is_ai": false,
      "track_id": 0,
      "velocity": 0,
      "is_motor": true,
      "motor_id": 0,
      "accel_val": 2000,
      "base_duration_us": 258620
    },
    {
      "id": "M_866",
      "pitch": 59,
      "t_note_us": 95171769,
      "t_trigger_us": 95035806,
      "is_ai": false,
      "track_id": 0,
      "velocity": 0,
      "is_motor": true,
      "motor_id": 2,
      "accel_val": 2000,
      "base_duration_us": 1034476
    },
    {
      "id": "M_869",
      "pitch": 78,
      "t_note_us": 95171769,
      "t_trigger_us": 95035806,
      "is_ai": false,
      "track_id": 0,
      "velocity": 0,
      "is_motor": true,
      "motor_id": 3,
      "accel_val": 2000,
      "base_duration_us": 1034476
    },
    {
      "id": "M_870",
      "pitch": 71,
      "t_note_us": 95171769,
      "t_trigger_us": 95035806,
      "is_ai": false,
      "track_id": 0,
      "velocity": 0,
      "is_motor": true,
      "motor_id": 0,
      "accel_val": 2000,
      "base_duration_us": 1034476
    },
    {
      "id": "M_871",
      "pitch": 59,
      "t_note_us": 95171769,
      "t_trigger_us": 95035806,
      "is_ai": false,
      "track_id": 0,
      "velocity": 0,
      "is_motor": true,
      "motor_id": 0,
      "accel_val": 2000,
      "base_duration_us": 1034476
    },
    {
      "id": "M_872",
      "pitch": 59,
      "t_note_us": 95171769,
      "t_trigger_us": 95035806,
      "is_ai": false,
      "track_id": 0,
      "velocity": 0,
      "is_motor": true,
      "motor_id": 0,
      "accel_val": 2000,
      "base_duration_us": 1034476
    },
    {
      "id": "M_873",
      "pitch": 71,
      "t_note_us": 95171769,
      "t_trigger_us": 95035806,
      "is_ai": false,
      "track_id": 0,
      "velocity": 0,
      "is_motor": true,
      "motor_id": 0,
      "accel_val": 2000,
      "base_duration_us": 1034476
    },
    {
      "id": "M_874",
      "pitch": 71,
      "t_note_us": 95171769,
      "t_trigger_us": 95035806,
      "is_ai": false,
      "track_id": 0,
      "velocity": 0,
      "is_motor": true,
      "motor_id": 0,
      "accel_val": 2000,
      "base_duration_us": 1034476
    },
    {
      "id": "M_875",
      "pitch": 78,
      "t_note_us": 95171769,
      "t_trigger_us": 95035806,
      "is_ai": false,
      "track_id": 0,
      "velocity": 0,
      "is_motor": true,
      "motor_id": 0,
      "accel_val": 2000,
      "base_duration_us": 1034476
    },
    {
      "id": "M_876",
      "pitch": 74,
      "t_note_us": 95171769,
      "t_trigger_us": 95035806,
      "is_ai": false,
      "track_id": 0,
      "velocity": 0,
      "is_motor": true,
      "motor_id": 0,
      "accel_val": 2000,
      "base_duration_us": 1034476
    },
    {
      "id": "M_865",
      "pitch": 73,
      "t_note_us": 95430389,
      "t_trigger_us": 95294426,
      "is_ai": false,
      "track_id": 0,
      "velocity": 0,
      "is_motor": true,
      "motor_id": 0,
      "accel_val": 2000,
      "base_duration_us": 517238
    },
    {
      "id": "M_863",
      "pitch": 81,
      "t_note_us": 95689007,
      "t_trigger_us": 95553044,
      "is_ai": true,
      "track_id": 1,
      "velocity": 0,
      "is_motor": false,
      "motor_id": 0,
      "accel_val": 2000,
      "base_duration_us": 258620
    },
    {
      "id": "M_864",
      "pitch": 93,
      "t_note_us": 95689007,
      "t_trigger_us": 95553044,
      "is_ai": true,
      "track_id": 8,
      "velocity": 0,
      "is_motor": false,
      "motor_id": 0,
      "accel_val": 2000,
      "base_duration_us": 258620
    },
    {
      "id": "M_879",
      "pitch": 79,
      "t_note_us": 95947627,
      "t_trigger_us": 95811664,
      "is_ai": true,
      "track_id": 0,
      "velocity": 0,
      "is_motor": false,
      "motor_id": 0,
      "accel_val": 2000,
      "base_duration_us": 775856
    },
    {
      "id": "M_880",
      "pitch": 91,
      "t_note_us": 95947627,
      "t_trigger_us": 95811664,
      "is_ai": true,
      "track_id": 7,
      "velocity": 0,
      "is_motor": false,
      "motor_id": 0,
      "accel_val": 2000,
      "base_duration_us": 775856
    },
    {
      "id": "M_877",
      "pitch": 73,
      "t_note_us": 95947627,
      "t_trigger_us": 95811664,
      "is_ai": false,
      "track_id": 0,
      "velocity": 0,
      "is_motor": true,
      "motor_id": 1,
      "accel_val": 2000,
      "base_duration_us": 258618
    },
    {
      "id": "M_887",
      "pitch": 83,
      "t_note_us": 96206245,
      "t_trigger_us": 96070282,
      "is_ai": true,
      "track_id": 2,
      "velocity": 0,
      "is_motor": false,
      "motor_id": 0,
      "accel_val": 2000,
      "base_duration_us": 1034475
    },
    {
      "id": "M_888",
      "pitch": 79,
      "t_note_us": 96206245,
      "t_trigger_us": 96070282,
      "is_ai": true,
      "track_id": 0,
      "velocity": 0,
      "is_motor": false,
      "motor_id": 0,
      "accel_val": 2000,
      "base_duration_us": 1034475
    },
    {
      "id": "M_894",
      "pitch": 79,
      "t_note_us": 96206245,
      "t_trigger_us": 96070282,
      "is_ai": true,
      "track_id": 0,
      "velocity": 0,
      "is_motor": false,
      "motor_id": 0,
      "accel_val": 2000,
      "base_duration_us": 1034475
    },
    {
      "id": "M_878",
      "pitch": 65,
      "t_note_us": 96206245,
      "t_trigger_us": 96070282,
      "is_ai": false,
      "track_id": 0,
      "velocity": 0,
      "is_motor": true,
      "motor_id": 1,
      "accel_val": 2000,
      "base_duration_us": 258620
    },
    {
      "id": "M_885",
      "pitch": 52,
      "t_note_us": 96206245,
      "t_trigger_us": 96070282,
      "is_ai": false,
      "track_id": 0,
      "velocity": 0,
      "is_motor": true,
      "motor_id": 0,
      "accel_val": 2000,
      "base_duration_us": 1034475
    },
    {
      "id": "M_886",
      "pitch": 64,
      "t_note_us": 96206245,
      "t_trigger_us": 96070282,
      "is_ai": false,
      "track_id": 0,
      "velocity": 0,
      "is_motor": true,
      "motor_id": 2,
      "accel_val": 2000,
      "base_duration_us": 1034475
    },
    {
      "id": "M_889",
      "pitch": 52,
      "t_note_us": 96206245,
      "t_trigger_us": 96070282,
      "is_ai": false,
      "track_id": 0,
      "velocity": 0,
      "is_motor": true,
      "motor_id": 3,
      "accel_val": 2000,
      "base_duration_us": 1034475
    },
    {
      "id": "M_890",
      "pitch": 76,
      "t_note_us": 96206245,
      "t_trigger_us": 96070282,
      "is_ai": false,
      "track_id": 0,
      "velocity": 0,
      "is_motor": true,
      "motor_id": 0,
      "accel_val": 2000,
      "base_duration_us": 1034475
    },
    {
      "id": "M_891",
      "pitch": 64,
      "t_note_us": 96206245,
      "t_trigger_us": 96070282,
      "is_ai": false,
      "track_id": 0,
      "velocity": 0,
      "is_motor": true,
      "motor_id": 0,
      "accel_val": 2000,
      "base_duration_us": 1034475
    },
    {
      "id": "M_892",
      "pitch": 76,
      "t_note_us": 96206245,
      "t_trigger_us": 96070282,
      "is_ai": false,
      "track_id": 0,
      "velocity": 0,
      "is_motor": true,
      "motor_id": 0,
      "accel_val": 2000,
      "base_duration_us": 1034475
    },
    {
      "id": "M_893",
      "pitch": 71,
      "t_note_us": 96206245,
      "t_trigger_us": 96070282,
      "is_ai": false,
      "track_id": 0,
      "velocity": 0,
      "is_motor": true,
      "motor_id": 0,
      "accel_val": 2000,
      "base_duration_us": 1034475
    },
    {
      "id": "M_881",
      "pitch": 65,
      "t_note_us": 96464865,
      "t_trigger_us": 96328902,
      "is_ai": false,
      "track_id": 0,
      "velocity": 0,
      "is_motor": true,
      "motor_id": 1,
      "accel_val": 2000,
      "base_duration_us": 258618
    },
    {
      "id": "M_883",
      "pitch": 83,
      "t_note_us": 96723483,
      "t_trigger_us": 96587520,
      "is_ai": true,
      "track_id": 2,
      "velocity": 0,
      "is_motor": false,
      "motor_id": 0,
      "accel_val": 2000,
      "base_duration_us": 258618
    },
    {
      "id": "M_882",
      "pitch": 71,
      "t_note_us": 96723483,
      "t_trigger_us": 96587520,
      "is_ai": false,
      "track_id": 0,
      "velocity": 0,
      "is_motor": true,
      "motor_id": 1,
      "accel_val": 2000,
      "base_duration_us": 258618
    },
    {
      "id": "M_884",
      "pitch": 65,
      "t_note_us": 96723483,
      "t_trigger_us": 96587520,
      "is_ai": false,
      "track_id": 0,
      "velocity": 0,
      "is_motor": true,
      "motor_id": 0,
      "accel_val": 2000,
      "base_duration_us": 258618
    },
    {
      "id": "M_897",
      "pitch": 84,
      "t_note_us": 96982101,
      "t_trigger_us": 96846138,
      "is_ai": true,
      "track_id": 3,
      "velocity": 0,
      "is_motor": false,
      "motor_id": 0,
      "accel_val": 2000,
      "base_duration_us": 775858
    },
    {
      "id": "M_895",
      "pitch": 65,
      "t_note_us": 96982101,
      "t_trigger_us": 96846138,
      "is_ai": false,
      "track_id": 0,
      "velocity": 0,
      "is_motor": true,
      "motor_id": 1,
      "accel_val": 2000,
      "base_duration_us": 258619
    },
    {
      "id": "M_896",
      "pitch": 72,
      "t_note_us": 96982101,
      "t_trigger_us": 96846138,
      "is_ai": false,
      "track_id": 0,
      "velocity": 0,
      "is_motor": true,
      "motor_id": 0,
      "accel_val": 2000,
      "base_duration_us": 775858
    },
    {
      "id": "M_902",
      "pitch": 81,
      "t_note_us": 97240720,
      "t_trigger_us": 97104757,
      "is_ai": true,
      "track_id": 1,
      "velocity": 0,
      "is_motor": false,
      "motor_id": 0,
      "accel_val": 2000,
      "base_duration_us": 1034476
    },
    {
      "id": "M_903",
      "pitch": 84,
      "t_note_us": 97240720,
      "t_trigger_us": 97104757,
      "is_ai": true,
      "track_id": 3,
      "velocity": 0,
      "is_motor": false,
      "motor_id": 0,
      "accel_val": 2000,
      "base_duration_us": 1034476
    },
    {
      "id": "M_900",
      "pitch": 57,
      "t_note_us": 97240720,
      "t_trigger_us": 97104757,
      "is_ai": false,
      "track_id": 0,
      "velocity": 0,
      "is_motor": true,
      "motor_id": 0,
      "accel_val": 2000,
      "base_duration_us": 1034476
    },
    {
      "id": "M_901",
      "pitch": 76,
      "t_note_us": 97240720,
      "t_trigger_us": 97104757,
      "is_ai": false,
      "track_id": 0,
      "velocity": 0,
      "is_motor": true,
      "motor_id": 2,
      "accel_val": 2000,
      "base_duration_us": 1034476
    },
    {
      "id": "M_904",
      "pitch": 69,
      "t_note_us": 97240720,
      "t_trigger_us": 97104757,
      "is_ai": false,
      "track_id": 0,
      "velocity": 0,
      "is_motor": true,
      "motor_id": 1,
      "accel_val": 2000,
      "base_duration_us": 1034476
    },
    {
      "id": "M_905",
      "pitch": 57,
      "t_note_us": 97240720,
      "t_trigger_us": 97104757,
      "is_ai": false,
      "track_id": 0,
      "velocity": 0,
      "is_motor": true,
      "motor_id": 3,
      "accel_val": 2000,
      "base_duration_us": 1034476
    },
    {
      "id": "M_906",
      "pitch": 69,
      "t_note_us": 97240720,
      "t_trigger_us": 97104757,
      "is_ai": false,
      "track_id": 0,
      "velocity": 0,
      "is_motor": true,
      "motor_id": 0,
      "accel_val": 2000,
      "base_duration_us": 1034476
    },
    {
      "id": "M_907",
      "pitch": 57,
      "t_note_us": 97240720,
      "t_trigger_us": 97104757,
      "is_ai": false,
      "track_id": 0,
      "velocity": 0,
      "is_motor": true,
      "motor_id": 0,
      "accel_val": 2000,
      "base_duration_us": 1034476
    },
    {
      "id": "M_908",
      "pitch": 69,
      "t_note_us": 97240720,
      "t_trigger_us": 97104757,
      "is_ai": false,
      "track_id": 0,
      "velocity": 0,
      "is_motor": true,
      "motor_id": 0,
      "accel_val": 2000,
      "base_duration_us": 1034476
    },
    {
      "id": "M_909",
      "pitch": 76,
      "t_note_us": 97240720,
      "t_trigger_us": 97104757,
      "is_ai": false,
      "track_id": 0,
      "velocity": 0,
      "is_motor": true,
      "motor_id": 0,
      "accel_val": 2000,
      "base_duration_us": 1034476
    },
    {
      "id": "M_910",
      "pitch": 72,
      "t_note_us": 97240720,
      "t_trigger_us": 97104757,
      "is_ai": false,
      "track_id": 0,
      "velocity": 0,
      "is_motor": true,
      "motor_id": 0,
      "accel_val": 2000,
      "base_duration_us": 1034476
    },
    {
      "id": "M_911",
      "pitch": 65,
      "t_note_us": 97240720,
      "t_trigger_us": 97104757,
      "is_ai": false,
      "track_id": 0,
      "velocity": 0,
      "is_motor": true,
      "motor_id": 0,
      "accel_val": 2000,
      "base_duration_us": 1034476
    },
    {
      "id": "M_898",
      "pitch": 79,
      "t_note_us": 97757959,
      "t_trigger_us": 97621996,
      "is_ai": true,
      "track_id": 0,
      "velocity": 0,
      "is_motor": false,
      "motor_id": 0,
      "accel_val": 2000,
      "base_duration_us": 258618
    },
    {
      "id": "M_899",
      "pitch": 91,
      "t_note_us": 97757959,
      "t_trigger_us": 97621996,
      "is_ai": true,
      "track_id": 7,
      "velocity": 0,
      "is_motor": false,
      "motor_id": 0,
      "accel_val": 2000,
      "base_duration_us": 258618
    },
    {
      "id": "M_912",
      "pitch": 90,
      "t_note_us": 98016577,
      "t_trigger_us": 97880614,
      "is_ai": true,
      "track_id": 0,
      "velocity": 0,
      "is_motor": true,
      "motor_id": 0,
      "accel_val": 2000,
      "base_duration_us": 775856
    },
    {
      "id": "M_913",
      "pitch": 90,
      "t_note_us": 98016577,
      "t_trigger_us": 97880614,
      "is_ai": true,
      "track_id": 0,
      "velocity": 0,
      "is_motor": true,
      "motor_id": 0,
      "accel_val": 2000,
      "base_duration_us": 775856
    },
    {
      "id": "M_918",
      "pitch": 81,
      "t_note_us": 98275196,
      "t_trigger_us": 98139233,
      "is_ai": true,
      "track_id": 1,
      "velocity": 0,
      "is_motor": false,
      "motor_id": 0,
      "accel_val": 2000,
      "base_duration_us": 1034475
    },
    {
      "id": "M_917",
      "pitch": 74,
      "t_note_us": 98275196,
      "t_trigger_us": 98139233,
      "is_ai": false,
      "track_id": 0,
      "velocity": 0,
      "is_motor": true,
      "motor_id": 1,
      "accel_val": 2000,
      "base_duration_us": 1034475
    },
    {
      "id": "M_919",
      "pitch": 78,
      "t_note_us": 98275196,
      "t_trigger_us": 98139233,
      "is_ai": false,
      "track_id": 0,
      "velocity": 0,
      "is_motor": true,
      "motor_id": 2,
      "accel_val": 2000,
      "base_duration_us": 1034475
    },
    {
      "id": "M_920",
      "pitch": 62,
      "t_note_us": 98275196,
      "t_trigger_us": 98139233,
      "is_ai": false,
      "track_id": 0,
      "velocity": 0,
      "is_motor": true,
      "motor_id": 0,
      "accel_val": 2000,
      "base_duration_us": 1034475
    },
    {
      "id": "M_921",
      "pitch": 50,
      "t_note_us": 98275196,
      "t_trigger_us": 98139233,
      "is_ai": false,
      "track_id": 0,
      "velocity": 0,
      "is_motor": true,
      "motor_id": 3,
      "accel_val": 2000,
      "base_duration_us": 1034475
    },
    {
      "id": "M_924",
      "pitch": 74,
      "t_note_us": 98275196,
      "t_trigger_us": 98139233,
      "is_ai": false,
      "track_id": 0,
      "velocity": 0,
      "is_motor": true,
      "motor_id": 0,
      "accel_val": 2000,
      "base_duration_us": 1034475
    },
    {
      "id": "M_925",
      "pitch": 62,
      "t_note_us": 98275196,
      "t_trigger_us": 98139233,
      "is_ai": false,
      "track_id": 0,
      "velocity": 0,
      "is_motor": true,
      "motor_id": 0,
      "accel_val": 2000,
      "base_duration_us": 1034475
    },
    {
      "id": "M_926",
      "pitch": 78,
      "t_note_us": 98275196,
      "t_trigger_us": 98139233,
      "is_ai": false,
      "track_id": 0,
      "velocity": 0,
      "is_motor": true,
      "motor_id": 0,
      "accel_val": 2000,
      "base_duration_us": 1034475
    },
    {
      "id": "M_927",
      "pitch": 69,
      "t_note_us": 98275196,
      "t_trigger_us": 98139233,
      "is_ai": false,
      "track_id": 0,
      "velocity": 0,
      "is_motor": true,
      "motor_id": 0,
      "accel_val": 2000,
      "base_duration_us": 1034475
    },
    {
      "id": "M_928",
      "pitch": 74,
      "t_note_us": 98275196,
      "t_trigger_us": 98139233,
      "is_ai": false,
      "track_id": 0,
      "velocity": 0,
      "is_motor": true,
      "motor_id": 0,
      "accel_val": 2000,
      "base_duration_us": 1034475
    },
    {
      "id": "M_929",
      "pitch": 73,
      "t_note_us": 98275196,
      "t_trigger_us": 98139233,
      "is_ai": false,
      "track_id": 0,
      "velocity": 0,
      "is_motor": true,
      "motor_id": 0,
      "accel_val": 2000,
      "base_duration_us": 1034475
    },
    {
      "id": "M_915",
      "pitch": 81,
      "t_note_us": 98792433,
      "t_trigger_us": 98656470,
      "is_ai": true,
      "track_id": 1,
      "velocity": 0,
      "is_motor": false,
      "motor_id": 0,
      "accel_val": 2000,
      "base_duration_us": 258620
    },
    {
      "id": "M_914",
      "pitch": 69,
      "t_note_us": 98792433,
      "t_trigger_us": 98656470,
      "is_ai": false,
      "track_id": 0,
      "velocity": 0,
      "is_motor": true,
      "motor_id": 0,
      "accel_val": 2000,
      "base_duration_us": 258620
    },
    {
      "id": "M_923",
      "pitch": 83,
      "t_note_us": 99051053,
      "t_trigger_us": 98915090,
      "is_ai": true,
      "track_id": 2,
      "velocity": 0,
      "is_motor": false,
      "motor_id": 0,
      "accel_val": 2000,
      "base_duration_us": 258618
    },
    {
      "id": "M_916",
      "pitch": 71,
      "t_note_us": 99051053,
      "t_trigger_us": 98915090,
      "is_ai": false,
      "track_id": 0,
      "velocity": 0,
      "is_motor": true,
      "motor_id": 0,
      "accel_val": 2000,
      "base_duration_us": 129309
    },
    {
      "id": "M_922",
      "pitch": 72,
      "t_note_us": 99180362,
      "t_trigger_us": 99044399,
      "is_ai": false,
      "track_id": 0,
      "velocity": 0,
      "is_motor": true,
      "motor_id": 0,
      "accel_val": 2000,
      "base_duration_us": 129309
    },
    {
      "id": "M_933",
      "pitch": 84,
      "t_note_us": 99309671,
      "t_trigger_us": 99173708,
      "is_ai": true,
      "track_id": 3,
      "velocity": 0,
      "is_motor": false,
      "motor_id": 0,
      "accel_val": 2000,
      "base_duration_us": 1034473
    },
    {
      "id": "M_934",
      "pitch": 79,
      "t_note_us": 99309671,
      "t_trigger_us": 99173708,
      "is_ai": true,
      "track_id": 0,
      "velocity": 0,
      "is_motor": false,
      "motor_id": 0,
      "accel_val": 2000,
      "base_duration_us": 1034473
    },
    {
      "id": "M_945",
      "pitch": 79,
      "t_note_us": 99309671,
      "t_trigger_us": 99173708,
      "is_ai": true,
      "track_id": 0,
      "velocity": 0,
      "is_motor": false,
      "motor_id": 0,
      "accel_val": 2000,
      "base_duration_us": 2068946
    },
    {
      "id": "M_956",
      "pitch": 79,
      "t_note_us": 99309671,
      "t_trigger_us": 99173708,
      "is_ai": true,
      "track_id": 0,
      "velocity": 0,
      "is_motor": false,
      "motor_id": 0,
      "accel_val": 2000,
      "base_duration_us": 4137882
    },
    {
      "id": "M_930",
      "pitch": 65,
      "t_note_us": 99309671,
      "t_trigger_us": 99173708,
      "is_ai": false,
      "track_id": 0,
      "velocity": 0,
      "is_motor": true,
      "motor_id": 1,
      "accel_val": 2000,
      "base_duration_us": 258619
    },
    {
      "id": "M_932",
      "pitch": 76,
      "t_note_us": 99309671,
      "t_trigger_us": 99173708,
      "is_ai": false,
      "track_id": 0,
      "velocity": 0,
      "is_motor": true,
      "motor_id": 2,
      "accel_val": 2000,
      "base_duration_us": 1034473
    },
    {
      "id": "M_938",
      "pitch": 72,
      "t_note_us": 99309671,
      "t_trigger_us": 99173708,
      "is_ai": false,
      "track_id": 0,
      "velocity": 0,
      "is_motor": true,
      "motor_id": 0,
      "accel_val": 2000,
      "base_duration_us": 1810328
    },
    {
      "id": "M_941",
      "pitch": 67,
      "t_note_us": 99309671,
      "t_trigger_us": 99173708,
      "is_ai": false,
      "track_id": 0,
      "velocity": 0,
      "is_motor": true,
      "motor_id": 3,
      "accel_val": 2000,
      "base_duration_us": 2068946
    },
    {
      "id": "M_942",
      "pitch": 55,
      "t_note_us": 99309671,
      "t_trigger_us": 99173708,
      "is_ai": false,
      "track_id": 0,
      "velocity": 0,
      "is_motor": true,
      "motor_id": 0,
      "accel_val": 2000,
      "base_duration_us": 2068946
    },
    {
      "id": "M_944",
      "pitch": 72,
      "t_note_us": 99309671,
      "t_trigger_us": 99173708,
      "is_ai": false,
      "track_id": 0,
      "velocity": 0,
      "is_motor": true,
      "motor_id": 0,
      "accel_val": 2000,
      "base_duration_us": 2068946
    },
    {
      "id": "M_946",
      "pitch": 76,
      "t_note_us": 99309671,
      "t_trigger_us": 99173708,
      "is_ai": false,
      "track_id": 0,
      "velocity": 0,
      "is_motor": true,
      "motor_id": 0,
      "accel_val": 2000,
      "base_duration_us": 2068946
    },
    {
      "id": "M_957",
      "pitch": 67,
      "t_note_us": 99309671,
      "t_trigger_us": 99173708,
      "is_ai": false,
      "track_id": 0,
      "velocity": 0,
      "is_motor": true,
      "motor_id": 0,
      "accel_val": 2000,
      "base_duration_us": 4137882
    },
    {
      "id": "M_958",
      "pitch": 55,
      "t_note_us": 99309671,
      "t_trigger_us": 99173708,
      "is_ai": false,
      "track_id": 0,
      "velocity": 0,
      "is_motor": true,
      "motor_id": 0,
      "accel_val": 2000,
      "base_duration_us": 4137882
    },
    {
      "id": "M_931",
      "pitch": 65,
      "t_note_us": 99568290,
      "t_trigger_us": 99432327,
      "is_ai": false,
      "track_id": 0,
      "velocity": 0,
      "is_motor": true,
      "motor_id": 1,
      "accel_val": 2000,
      "base_duration_us": 517236
    },
    {
      "id": "M_935",
      "pitch": 65,
      "t_note_us": 100085526,
      "t_trigger_us": 99949563,
      "is_ai": false,
      "track_id": 0,
      "velocity": 0,
      "is_motor": true,
      "motor_id": 1,
      "accel_val": 2000,
      "base_duration_us": 258618
    },
    {
      "id": "M_947",
      "pitch": 73,
      "t_note_us": 100344144,
      "t_trigger_us": 100208181,
      "is_ai": false,
      "track_id": 0,
      "velocity": 0,
      "is_motor": true,
      "motor_id": 1,
      "accel_val": 2000,
      "base_duration_us": 1034473
    },
    {
      "id": "M_936",
      "pitch": 76,
      "t_note_us": 100602762,
      "t_trigger_us": 100466799,
      "is_ai": false,
      "track_id": 0,
      "velocity": 0,
      "is_motor": true,
      "motor_id": 2,
      "accel_val": 2000,
      "base_duration_us": 258618
    },
    {
      "id": "M_937",
      "pitch": 79,
      "t_note_us": 100861380,
      "t_trigger_us": 100725417,
      "is_ai": true,
      "track_id": 0,
      "velocity": 0,
      "is_motor": false,
      "motor_id": 0,
      "accel_val": 2000,
      "base_duration_us": 258619
    },
    {
      "id": "M_940",
      "pitch": 91,
      "t_note_us": 101119999,
      "t_trigger_us": 100984036,
      "is_ai": true,
      "track_id": 7,
      "velocity": 0,
      "is_motor": false,
      "motor_id": 0,
      "accel_val": 2000,
      "base_duration_us": 258618
    },
    {
      "id": "M_939",
      "pitch": 83,
      "t_note_us": 101206205,
      "t_trigger_us": 101070242,
      "is_ai": true,
      "track_id": 2,
      "velocity": 0,
      "is_motor": false,
      "motor_id": 0,
      "accel_val": 2000,
      "base_duration_us": 86206
    },
    {
      "id": "M_943",
      "pitch": 81,
      "t_note_us": 101292411,
      "t_trigger_us": 101156448,
      "is_ai": true,
      "track_id": 1,
      "velocity": 0,
      "is_motor": false,
      "motor_id": 0,
      "accel_val": 2000,
      "base_duration_us": 86206
    },
    {
      "id": "M_949",
      "pitch": 79,
      "t_note_us": 101378617,
      "t_trigger_us": 101242654,
      "is_ai": true,
      "track_id": 0,
      "velocity": 0,
      "is_motor": false,
      "motor_id": 0,
      "accel_val": 2000,
      "base_duration_us": 1034472
    },
    {
      "id": "M_959",
      "pitch": 83,
      "t_note_us": 101378617,
      "t_trigger_us": 101242654,
      "is_ai": true,
      "track_id": 2,
      "velocity": 0,
      "is_motor": false,
      "motor_id": 0,
      "accel_val": 2000,
      "base_duration_us": 2068936
    },
    {
      "id": "M_960",
      "pitch": 79,
      "t_note_us": 101378617,
      "t_trigger_us": 101242654,
      "is_ai": true,
      "track_id": 0,
      "velocity": 0,
      "is_motor": false,
      "motor_id": 0,
      "accel_val": 2000,
      "base_duration_us": 2068936
    },
    {
      "id": "M_948",
      "pitch": 71,
      "t_note_us": 101378617,
      "t_trigger_us": 101242654,
      "is_ai": false,
      "track_id": 0,
      "velocity": 0,
      "is_motor": true,
      "motor_id": 1,
      "accel_val": 2000,
      "base_duration_us": 1034472
    },
    {
      "id": "M_950",
      "pitch": 74,
      "t_note_us": 101378617,
      "t_trigger_us": 101242654,
      "is_ai": false,
      "track_id": 0,
      "velocity": 0,
      "is_motor": true,
      "motor_id": 0,
      "accel_val": 2000,
      "base_duration_us": 1034472
    },
    {
      "id": "M_951",
      "pitch": 65,
      "t_note_us": 101378617,
      "t_trigger_us": 101242654,
      "is_ai": false,
      "track_id": 0,
      "velocity": 0,
      "is_motor": true,
      "motor_id": 2,
      "accel_val": 2000,
      "base_duration_us": 1034472
    },
    {
      "id": "M_952",
      "pitch": 71,
      "t_note_us": 101378617,
      "t_trigger_us": 101242654,
      "is_ai": false,
      "track_id": 0,
      "velocity": 0,
      "is_motor": true,
      "motor_id": 3,
      "accel_val": 2000,
      "base_duration_us": 1293088
    },
    {
      "id": "M_953",
      "pitch": 55,
      "t_note_us": 101378617,
      "t_trigger_us": 101242654,
      "is_ai": false,
      "track_id": 0,
      "velocity": 0,
      "is_motor": true,
      "motor_id": 0,
      "accel_val": 2000,
      "base_duration_us": 2068936
    },
    {
      "id": "M_954",
      "pitch": 67,
      "t_note_us": 101378617,
      "t_trigger_us": 101242654,
      "is_ai": false,
      "track_id": 0,
      "velocity": 0,
      "is_motor": true,
      "motor_id": 0,
      "accel_val": 2000,
      "base_duration_us": 2068936
    },
    {
      "id": "M_955",
      "pitch": 55,
      "t_note_us": 101378617,
      "t_trigger_us": 101242654,
      "is_ai": false,
      "track_id": 0,
      "velocity": 0,
      "is_motor": true,
      "motor_id": 0,
      "accel_val": 2000,
      "base_duration_us": 2068936
    },
    {
      "id": "M_961",
      "pitch": 74,
      "t_note_us": 101378617,
      "t_trigger_us": 101242654,
      "is_ai": false,
      "track_id": 0,
      "velocity": 0,
      "is_motor": true,
      "motor_id": 0,
      "accel_val": 2000,
      "base_duration_us": 2068936
    },
    {
      "id": "M_962",
      "pitch": 50,
      "t_note_us": 102413089,
      "t_trigger_us": 102277126,
      "is_ai": false,
      "track_id": 0,
      "velocity": 0,
      "is_motor": true,
      "motor_id": 0,
      "accel_val": 2000,
      "base_duration_us": 1034464
    },
    {
      "id": "M_963",
      "pitch": 57,
      "t_note_us": 102413089,
      "t_trigger_us": 102277126,
      "is_ai": false,
      "track_id": 0,
      "velocity": 0,
      "is_motor": true,
      "motor_id": 1,
      "accel_val": 2000,
      "base_duration_us": 1034464
    },
    {
      "id": "M_964",
      "pitch": 55,
      "t_note_us": 102413089,
      "t_trigger_us": 102277126,
      "is_ai": false,
      "track_id": 0,
      "velocity": 0,
      "is_motor": true,
      "motor_id": 2,
      "accel_val": 2000,
      "base_duration_us": 1034464
    },
    {
      "id": "M_965",
      "pitch": 86,
      "t_note_us": 103447553,
      "t_trigger_us": 103311590,
      "is_ai": true,
      "track_id": 4,
      "velocity": 0,
      "is_motor": false,
      "motor_id": 0,
      "accel_val": 2000,
      "base_duration_us": 258620
    },
    {
      "id": "M_975",
      "pitch": 79,
      "t_note_us": 103447553,
      "t_trigger_us": 103311590,
      "is_ai": true,
      "track_id": 0,
      "velocity": 0,
      "is_motor": false,
      "motor_id": 0,
      "accel_val": 2000,
      "base_duration_us": 1034480
    },
    {
      "id": "M_967",
      "pitch": 55,
      "t_note_us": 103447553,
      "t_trigger_us": 103311590,
      "is_ai": false,
      "track_id": 0,
      "velocity": 0,
      "is_motor": true,
      "motor_id": 0,
      "accel_val": 2000,
      "base_duration_us": 517240
    },
    {
      "id": "M_968",
      "pitch": 67,
      "t_note_us": 103447553,
      "t_trigger_us": 103311590,
      "is_ai": false,
      "track_id": 0,
      "velocity": 0,
      "is_motor": true,
      "motor_id": 1,
      "accel_val": 2000,
      "base_duration_us": 517240
    },
    {
      "id": "M_974",
      "pitch": 71,
      "t_note_us": 103447553,
      "t_trigger_us": 103311590,
      "is_ai": false,
      "track_id": 0,
      "velocity": 0,
      "is_motor": true,
      "motor_id": 2,
      "accel_val": 2000,
      "base_duration_us": 1034480
    },
    {
      "id": "M_976",
      "pitch": 74,
      "t_note_us": 103447553,
      "t_trigger_us": 103311590,
      "is_ai": false,
      "track_id": 0,
      "velocity": 0,
      "is_motor": true,
      "motor_id": 3,
      "accel_val": 2000,
      "base_duration_us": 1034480
    },
    {
      "id": "M_978",
      "pitch": 63,
      "t_note_us": 103447553,
      "t_trigger_us": 103311590,
      "is_ai": false,
      "track_id": 0,
      "velocity": 0,
      "is_motor": true,
      "motor_id": 0,
      "accel_val": 2000,
      "base_duration_us": 1034480
    },
    {
      "id": "M_979",
      "pitch": 50,
      "t_note_us": 103447553,
      "t_trigger_us": 103311590,
      "is_ai": false,
      "track_id": 0,
      "velocity": 0,
      "is_motor": true,
      "motor_id": 0,
      "accel_val": 2000,
      "base_duration_us": 1034480
    },
    {
      "id": "M_993",
      "pitch": 43,
      "t_note_us": 103447553,
      "t_trigger_us": 103311590,
      "is_ai": false,
      "track_id": 0,
      "velocity": 0,
      "is_motor": true,
      "motor_id": 0,
      "accel_val": 2000,
      "base_duration_us": 2068959
    },
    {
      "id": "M_966",
      "pitch": 83,
      "t_note_us": 103706173,
      "t_trigger_us": 103570210,
      "is_ai": true,
      "track_id": 2,
      "velocity": 0,
      "is_motor": false,
      "motor_id": 0,
      "accel_val": 2000,
      "base_duration_us": 258620
    },
    {
      "id": "M_969",
      "pitch": 83,
      "t_note_us": 103964793,
      "t_trigger_us": 103828830,
      "is_ai": true,
      "track_id": 2,
      "velocity": 0,
      "is_motor": false,
      "motor_id": 0,
      "accel_val": 2000,
      "base_duration_us": 258620
    },
    {
      "id": "M_970",
      "pitch": 62,
      "t_note_us": 103964793,
      "t_trigger_us": 103828830,
      "is_ai": false,
      "track_id": 0,
      "velocity": 0,
      "is_motor": true,
      "motor_id": 1,
      "accel_val": 2000,
      "base_duration_us": 258620
    },
    {
      "id": "M_971",
      "pitch": 74,
      "t_note_us": 103964793,
      "t_trigger_us": 103828830,
      "is_ai": false,
      "track_id": 0,
      "velocity": 0,
      "is_motor": true,
      "motor_id": 0,
      "accel_val": 2000,
      "base_duration_us": 258620
    },
    {
      "id": "M_977",
      "pitch": 56,
      "t_note_us": 103964793,
      "t_trigger_us": 103828830,
      "is_ai": false,
      "track_id": 0,
      "velocity": 0,
      "is_motor": true,
      "motor_id": 0,
      "accel_val": 2000,
      "base_duration_us": 517240
    },
    {
      "id": "M_972",
      "pitch": 81,
      "t_note_us": 104223413,
      "t_trigger_us": 104087450,
      "is_ai": true,
      "track_id": 1,
      "velocity": 0,
      "is_motor": false,
      "motor_id": 0,
      "accel_val": 2000,
      "base_duration_us": 258620
    },
    {
      "id": "M_982",
      "pitch": 79,
      "t_note_us": 104223413,
      "t_trigger_us": 104087450,
      "is_ai": true,
      "track_id": 0,
      "velocity": 0,
      "is_motor": false,
      "motor_id": 0,
      "accel_val": 2000,
      "base_duration_us": 517240
    },
    {
      "id": "M_973",
      "pitch": 67,
      "t_note_us": 104223413,
      "t_trigger_us": 104087450,
      "is_ai": false,
      "track_id": 0,
      "velocity": 0,
      "is_motor": true,
      "motor_id": 1,
      "accel_val": 2000,
      "base_duration_us": 258620
    },
    {
      "id": "M_980",
      "pitch": 83,
      "t_note_us": 104482033,
      "t_trigger_us": 104346070,
      "is_ai": true,
      "track_id": 2,
      "velocity": 0,
      "is_motor": false,
      "motor_id": 0,
      "accel_val": 2000,
      "base_duration_us": 258620
    },
    {
      "id": "M_981",
      "pitch": 69,
      "t_note_us": 104482033,
      "t_trigger_us": 104346070,
      "is_ai": false,
      "track_id": 0,
      "velocity": 0,
      "is_motor": true,
      "motor_id": 1,
      "accel_val": 2000,
      "base_duration_us": 258620
    },
    {
      "id": "M_986",
      "pitch": 56,
      "t_note_us": 104482033,
      "t_trigger_us": 104346070,
      "is_ai": false,
      "track_id": 0,
      "velocity": 0,
      "is_motor": true,
      "motor_id": 0,
      "accel_val": 2000,
      "base_duration_us": 517240
    },
    {
      "id": "M_990",
      "pitch": 51,
      "t_note_us": 104482033,
      "t_trigger_us": 104346070,
      "is_ai": false,
      "track_id": 0,
      "velocity": 0,
      "is_motor": true,
      "motor_id": 2,
      "accel_val": 2000,
      "base_duration_us": 775860
    },
    {
      "id": "M_983",
      "pitch": 81,
      "t_note_us": 104740653,
      "t_trigger_us": 104604690,
      "is_ai": true,
      "track_id": 1,
      "velocity": 0,
      "is_motor": false,
      "motor_id": 0,
      "accel_val": 2000,
      "base_duration_us": 258620
    },
    {
      "id": "M_985",
      "pitch": 86,
      "t_note_us": 104740653,
      "t_trigger_us": 104604690,
      "is_ai": true,
      "track_id": 4,
      "velocity": 0,
      "is_motor": false,
      "motor_id": 0,
      "accel_val": 2000,
      "base_duration_us": 258620
    },
    {
      "id": "M_984",
      "pitch": 71,
      "t_note_us": 104740653,
      "t_trigger_us": 104604690,
      "is_ai": false,
      "track_id": 0,
      "velocity": 0,
      "is_motor": true,
      "motor_id": 1,
      "accel_val": 2000,
      "base_duration_us": 258620
    },
    {
      "id": "M_987",
      "pitch": 83,
      "t_note_us": 104999273,
      "t_trigger_us": 104863310,
      "is_ai": true,
      "track_id": 2,
      "velocity": 0,
      "is_motor": false,
      "motor_id": 0,
      "accel_val": 2000,
      "base_duration_us": 258620
    },
    {
      "id": "M_989",
      "pitch": 83,
      "t_note_us": 104999273,
      "t_trigger_us": 104863310,
      "is_ai": true,
      "track_id": 2,
      "velocity": 0,
      "is_motor": false,
      "motor_id": 0,
      "accel_val": 2000,
      "base_duration_us": 258620
    },
    {
      "id": "M_988",
      "pitch": 74,
      "t_note_us": 104999273,
      "t_trigger_us": 104863310,
      "is_ai": false,
      "track_id": 0,
      "velocity": 0,
      "is_motor": true,
      "motor_id": 1,
      "accel_val": 2000,
      "base_duration_us": 258620
    },
    {
      "id": "M_996",
      "pitch": 56,
      "t_note_us": 104999273,
      "t_trigger_us": 104863310,
      "is_ai": false,
      "track_id": 0,
      "velocity": 0,
      "is_motor": true,
      "motor_id": 0,
      "accel_val": 2000,
      "base_duration_us": 517239
    },
    {
      "id": "M_991",
      "pitch": 86,
      "t_note_us": 105257893,
      "t_trigger_us": 105121930,
      "is_ai": true,
      "track_id": 4,
      "velocity": 0,
      "is_motor": false,
      "motor_id": 0,
      "accel_val": 2000,
      "base_duration_us": 258619
    },
    {
      "id": "M_992",
      "pitch": 79,
      "t_note_us": 105257893,
      "t_trigger_us": 105121930,
      "is_ai": true,
      "track_id": 0,
      "velocity": 0,
      "is_motor": false,
      "motor_id": 0,
      "accel_val": 2000,
      "base_duration_us": 258619
    },
    {
      "id": "M_994",
      "pitch": 79,
      "t_note_us": 105257893,
      "t_trigger_us": 105121930,
      "is_ai": true,
      "track_id": 0,
      "velocity": 0,
      "is_motor": false,
      "motor_id": 0,
      "accel_val": 2000,
      "base_duration_us": 258619
    },
    {
      "id": "M_995",
      "pitch": 50,
      "t_note_us": 105257893,
      "t_trigger_us": 105121930,
      "is_ai": false,
      "track_id": 0,
      "velocity": 0,
      "is_motor": true,
      "motor_id": 1,
      "accel_val": 2000,
      "base_duration_us": 258619
    },
    {
      "id": "M_997",
      "pitch": 86,
      "t_note_us": 105516512,
      "t_trigger_us": 105380549,
      "is_ai": true,
      "track_id": 4,
      "velocity": 0,
      "is_motor": false,
      "motor_id": 0,
      "accel_val": 2000,
      "base_duration_us": 258620
    },
    {
      "id": "M_999",
      "pitch": 59,
      "t_note_us": 105516512,
      "t_trigger_us": 105380549,
      "is_ai": false,
      "track_id": 0,
      "velocity": 0,
      "is_motor": true,
      "motor_id": 0,
      "accel_val": 2000,
      "base_duration_us": 517240
    },
    {
      "id": "M_1000",
      "pitch": 71,
      "t_note_us": 105516512,
      "t_trigger_us": 105380549,
      "is_ai": false,
      "track_id": 0,
      "velocity": 0,
      "is_motor": true,
      "motor_id": 1,
      "accel_val": 2000,
      "base_duration_us": 517240
    },
    {
      "id": "M_1001",
      "pitch": 56,
      "t_note_us": 105516512,
      "t_trigger_us": 105380549,
      "is_ai": false,
      "track_id": 0,
      "velocity": 0,
      "is_motor": true,
      "motor_id": 2,
      "accel_val": 2000,
      "base_duration_us": 517240
    },
    {
      "id": "M_1007",
      "pitch": 74,
      "t_note_us": 105516512,
      "t_trigger_us": 105380549,
      "is_ai": false,
      "track_id": 0,
      "velocity": 0,
      "is_motor": true,
      "motor_id": 3,
      "accel_val": 2000,
      "base_duration_us": 1034480
    },
    {
      "id": "M_1008",
      "pitch": 78,
      "t_note_us": 105516512,
      "t_trigger_us": 105380549,
      "is_ai": false,
      "track_id": 0,
      "velocity": 0,
      "is_motor": true,
      "motor_id": 0,
      "accel_val": 2000,
      "base_duration_us": 1034480
    },
    {
      "id": "M_1009",
      "pitch": 71,
      "t_note_us": 105516512,
      "t_trigger_us": 105380549,
      "is_ai": false,
      "track_id": 0,
      "velocity": 0,
      "is_motor": true,
      "motor_id": 0,
      "accel_val": 2000,
      "base_duration_us": 1034480
    },
    {
      "id": "M_1011",
      "pitch": 50,
      "t_note_us": 105516512,
      "t_trigger_us": 105380549,
      "is_ai": false,
      "track_id": 0,
      "velocity": 0,
      "is_motor": true,
      "motor_id": 0,
      "accel_val": 2000,
      "base_duration_us": 1034480
    },
    {
      "id": "M_1027",
      "pitch": 47,
      "t_note_us": 105516512,
      "t_trigger_us": 105380549,
      "is_ai": false,
      "track_id": 0,
      "velocity": 0,
      "is_motor": true,
      "motor_id": 0,
      "accel_val": 2000,
      "base_duration_us": 2068959
    },
    {
      "id": "M_998",
      "pitch": 83,
      "t_note_us": 105775132,
      "t_trigger_us": 105639169,
      "is_ai": true,
      "track_id": 2,
      "velocity": 0,
      "is_motor": false,
      "motor_id": 0,
      "accel_val": 2000,
      "base_duration_us": 258620
    },
    {
      "id": "M_1002",
      "pitch": 83,
      "t_note_us": 106033752,
      "t_trigger_us": 105897789,
      "is_ai": true,
      "track_id": 2,
      "velocity": 0,
      "is_motor": false,
      "motor_id": 0,
      "accel_val": 2000,
      "base_duration_us": 258620
    },
    {
      "id": "M_1003",
      "pitch": 66,
      "t_note_us": 106033752,
      "t_trigger_us": 105897789,
      "is_ai": false,
      "track_id": 0,
      "velocity": 0,
      "is_motor": true,
      "motor_id": 1,
      "accel_val": 2000,
      "base_duration_us": 258620
    },
    {
      "id": "M_1004",
      "pitch": 78,
      "t_note_us": 106033752,
      "t_trigger_us": 105897789,
      "is_ai": false,
      "track_id": 0,
      "velocity": 0,
      "is_motor": true,
      "motor_id": 2,
      "accel_val": 2000,
      "base_duration_us": 258620
    },
    {
      "id": "M_1010",
      "pitch": 56,
      "t_note_us": 106033752,
      "t_trigger_us": 105897789,
      "is_ai": false,
      "track_id": 0,
      "velocity": 0,
      "is_motor": true,
      "motor_id": 0,
      "accel_val": 2000,
      "base_duration_us": 517240
    },
    {
      "id": "M_1005",
      "pitch": 81,
      "t_note_us": 106292372,
      "t_trigger_us": 106156409,
      "is_ai": true,
      "track_id": 1,
      "velocity": 0,
      "is_motor": false,
      "motor_id": 0,
      "accel_val": 2000,
      "base_duration_us": 258620
    },
    {
      "id": "M_1014",
      "pitch": 83,
      "t_note_us": 106292372,
      "t_trigger_us": 106156409,
      "is_ai": true,
      "track_id": 2,
      "velocity": 0,
      "is_motor": false,
      "motor_id": 0,
      "accel_val": 2000,
      "base_duration_us": 517240
    },
    {
      "id": "M_1006",
      "pitch": 69,
      "t_note_us": 106292372,
      "t_trigger_us": 106156409,
      "is_ai": false,
      "track_id": 0,
      "velocity": 0,
      "is_motor": true,
      "motor_id": 1,
      "accel_val": 2000,
      "base_duration_us": 258620
    },
    {
      "id": "M_1012",
      "pitch": 83,
      "t_note_us": 106550992,
      "t_trigger_us": 106415029,
      "is_ai": true,
      "track_id": 2,
      "velocity": 0,
      "is_motor": false,
      "motor_id": 0,
      "accel_val": 2000,
      "base_duration_us": 258620
    },
    {
      "id": "M_1026",
      "pitch": 83,
      "t_note_us": 106550992,
      "t_trigger_us": 106415029,
      "is_ai": true,
      "track_id": 2,
      "velocity": 0,
      "is_motor": false,
      "motor_id": 0,
      "accel_val": 2000,
      "base_duration_us": 1034479
    },
    {
      "id": "M_1013",
      "pitch": 71,
      "t_note_us": 106550992,
      "t_trigger_us": 106415029,
      "is_ai": false,
      "track_id": 0,
      "velocity": 0,
      "is_motor": true,
      "motor_id": 1,
      "accel_val": 2000,
      "base_duration_us": 258620
    },
    {
      "id": "M_1018",
      "pitch": 56,
      "t_note_us": 106550992,
      "t_trigger_us": 106415029,
      "is_ai": false,
      "track_id": 0,
      "velocity": 0,
      "is_motor": true,
      "motor_id": 0,
      "accel_val": 2000,
      "base_duration_us": 517240
    },
    {
      "id": "M_1024",
      "pitch": 78,
      "t_note_us": 106550992,
      "t_trigger_us": 106415029,
      "is_ai": false,
      "track_id": 0,
      "velocity": 0,
      "is_motor": true,
      "motor_id": 2,
      "accel_val": 2000,
      "base_duration_us": 1034479
    },
    {
      "id": "M_1025",
      "pitch": 74,
      "t_note_us": 106550992,
      "t_trigger_us": 106415029,
      "is_ai": false,
      "track_id": 0,
      "velocity": 0,
      "is_motor": true,
      "motor_id": 3,
      "accel_val": 2000,
      "base_duration_us": 1034479
    },
    {
      "id": "M_1030",
      "pitch": 51,
      "t_note_us": 106550992,
      "t_trigger_us": 106415029,
      "is_ai": false,
      "track_id": 0,
      "velocity": 0,
      "is_motor": true,
      "motor_id": 0,
      "accel_val": 2000,
      "base_duration_us": 1034479
    },
    {
      "id": "M_1015",
      "pitch": 81,
      "t_note_us": 106809612,
      "t_trigger_us": 106673649,
      "is_ai": true,
      "track_id": 1,
      "velocity": 0,
      "is_motor": false,
      "motor_id": 0,
      "accel_val": 2000,
      "base_duration_us": 258620
    },
    {
      "id": "M_1017",
      "pitch": 90,
      "t_note_us": 106809612,
      "t_trigger_us": 106673649,
      "is_ai": true,
      "track_id": 0,
      "velocity": 0,
      "is_motor": true,
      "motor_id": 1,
      "accel_val": 2000,
      "base_duration_us": 258620
    },
    {
      "id": "M_1016",
      "pitch": 66,
      "t_note_us": 106809612,
      "t_trigger_us": 106673649,
      "is_ai": false,
      "track_id": 0,
      "velocity": 0,
      "is_motor": true,
      "motor_id": 0,
      "accel_val": 2000,
      "base_duration_us": 258620
    },
    {
      "id": "M_1019",
      "pitch": 83,
      "t_note_us": 107068232,
      "t_trigger_us": 106932269,
      "is_ai": true,
      "track_id": 2,
      "velocity": 0,
      "is_motor": false,
      "motor_id": 0,
      "accel_val": 2000,
      "base_duration_us": 258620
    },
    {
      "id": "M_1021",
      "pitch": 86,
      "t_note_us": 107068232,
      "t_trigger_us": 106932269,
      "is_ai": true,
      "track_id": 4,
      "velocity": 0,
      "is_motor": false,
      "motor_id": 0,
      "accel_val": 2000,
      "base_duration_us": 258620
    },
    {
      "id": "M_1020",
      "pitch": 62,
      "t_note_us": 107068232,
      "t_trigger_us": 106932269,
      "is_ai": false,
      "track_id": 0,
      "velocity": 0,
      "is_motor": true,
      "motor_id": 1,
      "accel_val": 2000,
      "base_duration_us": 258620
    },
    {
      "id": "M_1029",
      "pitch": 56,
      "t_note_us": 107068232,
      "t_trigger_us": 106932269,
      "is_ai": false,
      "track_id": 0,
      "velocity": 0,
      "is_motor": true,
      "motor_id": 0,
      "accel_val": 2000,
      "base_duration_us": 517239
    },
    {
      "id": "M_1022",
      "pitch": 86,
      "t_note_us": 107326852,
      "t_trigger_us": 107190889,
      "is_ai": true,
      "track_id": 4,
      "velocity": 0,
      "is_motor": false,
      "motor_id": 0,
      "accel_val": 2000,
      "base_duration_us": 258619
    },
    {
      "id": "M_1028",
      "pitch": 83,
      "t_note_us": 107326852,
      "t_trigger_us": 107190889,
      "is_ai": true,
      "track_id": 2,
      "velocity": 0,
      "is_motor": false,
      "motor_id": 0,
      "accel_val": 2000,
      "base_duration_us": 258619
    },
    {
      "id": "M_1023",
      "pitch": 66,
      "t_note_us": 107326852,
      "t_trigger_us": 107190889,
      "is_ai": false,
      "track_id": 0,
      "velocity": 0,
      "is_motor": true,
      "motor_id": 1,
      "accel_val": 2000,
      "base_duration_us": 258619
    },
    {
      "id": "M_1031",
      "pitch": 91,
      "t_note_us": 107585471,
      "t_trigger_us": 107449508,
      "is_ai": true,
      "track_id": 7,
      "velocity": 0,
      "is_motor": false,
      "motor_id": 0,
      "accel_val": 2000,
      "base_duration_us": 258620
    },
    {
      "id": "M_1042",
      "pitch": 88,
      "t_note_us": 107585471,
      "t_trigger_us": 107449508,
      "is_ai": true,
      "track_id": 5,
      "velocity": 0,
      "is_motor": false,
      "motor_id": 0,
      "accel_val": 2000,
      "base_duration_us": 1034480
    },
    {
      "id": "M_1032",
      "pitch": 60,
      "t_note_us": 107585471,
      "t_trigger_us": 107449508,
      "is_ai": false,
      "track_id": 0,
      "velocity": 0,
      "is_motor": true,
      "motor_id": 1,
      "accel_val": 2000,
      "base_duration_us": 258620
    },
    {
      "id": "M_1035",
      "pitch": 56,
      "t_note_us": 107585471,
      "t_trigger_us": 107449508,
      "is_ai": false,
      "track_id": 0,
      "velocity": 0,
      "is_motor": true,
      "motor_id": 0,
      "accel_val": 2000,
      "base_duration_us": 517240
    },
    {
      "id": "M_1039",
      "pitch": 72,
      "t_note_us": 107585471,
      "t_trigger_us": 107449508,
      "is_ai": false,
      "track_id": 0,
      "velocity": 0,
      "is_motor": true,
      "motor_id": 2,
      "accel_val": 2000,
      "base_duration_us": 1034480
    },
    {
      "id": "M_1040",
      "pitch": 48,
      "t_note_us": 107585471,
      "t_trigger_us": 107449508,
      "is_ai": false,
      "track_id": 0,
      "velocity": 0,
      "is_motor": true,
      "motor_id": 3,
      "accel_val": 2000,
      "base_duration_us": 1034480
    },
    {
      "id": "M_1041",
      "pitch": 60,
      "t_note_us": 107585471,
      "t_trigger_us": 107449508,
      "is_ai": false,
      "track_id": 0,
      "velocity": 0,
      "is_motor": true,
      "motor_id": 0,
      "accel_val": 2000,
      "base_duration_us": 1034480
    },
    {
      "id": "M_1043",
      "pitch": 48,
      "t_note_us": 107585471,
      "t_trigger_us": 107449508,
      "is_ai": false,
      "track_id": 0,
      "velocity": 0,
      "is_motor": true,
      "motor_id": 0,
      "accel_val": 2000,
      "base_duration_us": 1034480
    },
    {
      "id": "M_1046",
      "pitch": 50,
      "t_note_us": 107585471,
      "t_trigger_us": 107449508,
      "is_ai": false,
      "track_id": 0,
      "velocity": 0,
      "is_motor": true,
      "motor_id": 0,
      "accel_val": 2000,
      "base_duration_us": 1034480
    },
    {
      "id": "M_1033",
      "pitch": 88,
      "t_note_us": 107844091,
      "t_trigger_us": 107708128,
      "is_ai": true,
      "track_id": 5,
      "velocity": 0,
      "is_motor": false,
      "motor_id": 0,
      "accel_val": 2000,
      "base_duration_us": 258620
    },
    {
      "id": "M_1034",
      "pitch": 84,
      "t_note_us": 107844091,
      "t_trigger_us": 107708128,
      "is_ai": true,
      "track_id": 3,
      "velocity": 0,
      "is_motor": false,
      "motor_id": 0,
      "accel_val": 2000,
      "base_duration_us": 258620
    },
    {
      "id": "M_1036",
      "pitch": 88,
      "t_note_us": 108102711,
      "t_trigger_us": 107966748,
      "is_ai": true,
      "track_id": 5,
      "velocity": 0,
      "is_motor": false,
      "motor_id": 0,
      "accel_val": 2000,
      "base_duration_us": 258620
    },
    {
      "id": "M_1037",
      "pitch": 88,
      "t_note_us": 108102711,
      "t_trigger_us": 107966748,
      "is_ai": true,
      "track_id": 5,
      "velocity": 0,
      "is_motor": false,
      "motor_id": 0,
      "accel_val": 2000,
      "base_duration_us": 258620
    },
    {
      "id": "M_1045",
      "pitch": 56,
      "t_note_us": 108102711,
      "t_trigger_us": 107966748,
      "is_ai": false,
      "track_id": 0,
      "velocity": 0,
      "is_motor": true,
      "motor_id": 0,
      "accel_val": 2000,
      "base_duration_us": 517240
    },
    {
      "id": "M_1038",
      "pitch": 86,
      "t_note_us": 108361331,
      "t_trigger_us": 108225368,
      "is_ai": true,
      "track_id": 4,
      "velocity": 0,
      "is_motor": false,
      "motor_id": 0,
      "accel_val": 2000,
      "base_duration_us": 258620
    },
    {
      "id": "M_1044",
      "pitch": 79,
      "t_note_us": 108361331,
      "t_trigger_us": 108225368,
      "is_ai": true,
      "track_id": 0,
      "velocity": 0,
      "is_motor": false,
      "motor_id": 0,
      "accel_val": 2000,
      "base_duration_us": 258620
    },
    {
      "id": "M_1047",
      "pitch": 88,
      "t_note_us": 108619951,
      "t_trigger_us": 108483988,
      "is_ai": true,
      "track_id": 5,
      "velocity": 0,
      "is_motor": false,
      "motor_id": 0,
      "accel_val": 2000,
      "base_duration_us": 258620
    },
    {
      "id": "M_1048",
      "pitch": 62,
      "t_note_us": 108619951,
      "t_trigger_us": 108483988,
      "is_ai": false,
      "track_id": 0,
      "velocity": 0,
      "is_motor": true,
      "motor_id": 1,
      "accel_val": 2000,
      "base_duration_us": 258620
    },
    {
      "id": "M_1051",
      "pitch": 56,
      "t_note_us": 108619951,
      "t_trigger_us": 108483988,
      "is_ai": false,
      "track_id": 0,
      "velocity": 0,
      "is_motor": true,
      "motor_id": 0,
      "accel_val": 2000,
      "base_duration_us": 517240
    },
    {
      "id": "M_1053",
      "pitch": 51,
      "t_note_us": 108619951,
      "t_trigger_us": 108483988,
      "is_ai": false,
      "track_id": 0,
      "velocity": 0,
      "is_motor": true,
      "motor_id": 2,
      "accel_val": 2000,
      "base_duration_us": 775860
    },
    {
      "id": "M_1055",
      "pitch": 74,
      "t_note_us": 108619951,
      "t_trigger_us": 108483988,
      "is_ai": false,
      "track_id": 0,
      "velocity": 0,
      "is_motor": true,
      "motor_id": 3,
      "accel_val": 2000,
      "base_duration_us": 1034479
    },
    {
      "id": "M_1056",
      "pitch": 62,
      "t_note_us": 108619951,
      "t_trigger_us": 108483988,
      "is_ai": false,
      "track_id": 0,
      "velocity": 0,
      "is_motor": true,
      "motor_id": 0,
      "accel_val": 2000,
      "base_duration_us": 1034479
    },
    {
      "id": "M_1057",
      "pitch": 50,
      "t_note_us": 108619951,
      "t_trigger_us": 108483988,
      "is_ai": false,
      "track_id": 0,
      "velocity": 0,
      "is_motor": true,
      "motor_id": 0,
      "accel_val": 2000,
      "base_duration_us": 1034479
    },
    {
      "id": "M_1058",
      "pitch": 69,
      "t_note_us": 108619951,
      "t_trigger_us": 108483988,
      "is_ai": false,
      "track_id": 0,
      "velocity": 0,
      "is_motor": true,
      "motor_id": 0,
      "accel_val": 2000,
      "base_duration_us": 1034479
    },
    {
      "id": "M_1059",
      "pitch": 50,
      "t_note_us": 108619951,
      "t_trigger_us": 108483988,
      "is_ai": false,
      "track_id": 0,
      "velocity": 0,
      "is_motor": true,
      "motor_id": 0,
      "accel_val": 2000,
      "base_duration_us": 1034479
    },
    {
      "id": "M_1049",
      "pitch": 86,
      "t_note_us": 108878571,
      "t_trigger_us": 108742608,
      "is_ai": true,
      "track_id": 4,
      "velocity": 0,
      "is_motor": false,
      "motor_id": 0,
      "accel_val": 2000,
      "base_duration_us": 258620
    },
    {
      "id": "M_1050",
      "pitch": 86,
      "t_note_us": 108878571,
      "t_trigger_us": 108742608,
      "is_ai": true,
      "track_id": 4,
      "velocity": 0,
      "is_motor": false,
      "motor_id": 0,
      "accel_val": 2000,
      "base_duration_us": 258620
    },
    {
      "id": "M_1052",
      "pitch": 90,
      "t_note_us": 109137191,
      "t_trigger_us": 109001228,
      "is_ai": true,
      "track_id": 0,
      "velocity": 0,
      "is_motor": true,
      "motor_id": 1,
      "accel_val": 2000,
      "base_duration_us": 258620
    },
    {
      "id": "M_1054",
      "pitch": 86,
      "t_note_us": 109137191,
      "t_trigger_us": 109001228,
      "is_ai": true,
      "track_id": 4,
      "velocity": 0,
      "is_motor": false,
      "motor_id": 0,
      "accel_val": 2000,
      "base_duration_us": 517239
    },
    {
      "id": "M_1062",
      "pitch": 56,
      "t_note_us": 109137191,
      "t_trigger_us": 109001228,
      "is_ai": false,
      "track_id": 0,
      "velocity": 0,
      "is_motor": true,
      "motor_id": 0,
      "accel_val": 2000,
      "base_duration_us": 517239
    },
    {
      "id": "M_1060",
      "pitch": 81,
      "t_note_us": 109395811,
      "t_trigger_us": 109259848,
      "is_ai": true,
      "track_id": 1,
      "velocity": 0,
      "is_motor": false,
      "motor_id": 0,
      "accel_val": 2000,
      "base_duration_us": 258619
    },
    {
      "id": "M_1061",
      "pitch": 50,
      "t_note_us": 109395811,
      "t_trigger_us": 109259848,
      "is_ai": false,
      "track_id": 0,
      "velocity": 0,
      "is_motor": true,
      "motor_id": 1,
      "accel_val": 2000,
      "base_duration_us": 258619
    },
    {
      "id": "M_1063",
      "pitch": 79,
      "t_note_us": 109654430,
      "t_trigger_us": 109518467,
      "is_ai": true,
      "track_id": 0,
      "velocity": 0,
      "is_motor": false,
      "motor_id": 0,
      "accel_val": 2000,
      "base_duration_us": 258620
    },
    {
      "id": "M_1069",
      "pitch": 86,
      "t_note_us": 109654430,
      "t_trigger_us": 109518467,
      "is_ai": true,
      "track_id": 4,
      "velocity": 0,
      "is_motor": false,
      "motor_id": 0,
      "accel_val": 2000,
      "base_duration_us": 1034480
    },
    {
      "id": "M_1064",
      "pitch": 67,
      "t_note_us": 109654430,
      "t_trigger_us": 109518467,
      "is_ai": false,
      "track_id": 0,
      "velocity": 0,
      "is_motor": true,
      "motor_id": 1,
      "accel_val": 2000,
      "base_duration_us": 517240
    },
    {
      "id": "M_1065",
      "pitch": 56,
      "t_note_us": 109654430,
      "t_trigger_us": 109518467,
      "is_ai": false,
      "track_id": 0,
      "velocity": 0,
      "is_motor": true,
      "motor_id": 0,
      "accel_val": 2000,
      "base_duration_us": 517240
    },
    {
      "id": "M_1068",
      "pitch": 55,
      "t_note_us": 109654430,
      "t_trigger_us": 109518467,
      "is_ai": false,
      "track_id": 0,
      "velocity": 0,
      "is_motor": true,
      "motor_id": 2,
      "accel_val": 2000,
      "base_duration_us": 1034480
    },
    {
      "id": "M_1070",
      "pitch": 71,
      "t_note_us": 109654430,
      "t_trigger_us": 109518467,
      "is_ai": false,
      "track_id": 0,
      "velocity": 0,
      "is_motor": true,
      "motor_id": 3,
      "accel_val": 2000,
      "base_duration_us": 1034480
    },
    {
      "id": "M_1071",
      "pitch": 67,
      "t_note_us": 109654430,
      "t_trigger_us": 109518467,
      "is_ai": false,
      "track_id": 0,
      "velocity": 0,
      "is_motor": true,
      "motor_id": 0,
      "accel_val": 2000,
      "base_duration_us": 1034480
    },
    {
      "id": "M_1073",
      "pitch": 50,
      "t_note_us": 109654430,
      "t_trigger_us": 109518467,
      "is_ai": false,
      "track_id": 0,
      "velocity": 0,
      "is_motor": true,
      "motor_id": 0,
      "accel_val": 2000,
      "base_duration_us": 1034480
    },
    {
      "id": "M_1081",
      "pitch": 55,
      "t_note_us": 109654430,
      "t_trigger_us": 109518467,
      "is_ai": false,
      "track_id": 0,
      "velocity": 0,
      "is_motor": true,
      "motor_id": 0,
      "accel_val": 2000,
      "base_duration_us": 1810340
    },
    {
      "id": "M_1067",
      "pitch": 83,
      "t_note_us": 109913050,
      "t_trigger_us": 109777087,
      "is_ai": true,
      "track_id": 2,
      "velocity": 0,
      "is_motor": false,
      "motor_id": 0,
      "accel_val": 2000,
      "base_duration_us": 775860
    },
    {
      "id": "M_1066",
      "pitch": 86,
      "t_note_us": 110171670,
      "t_trigger_us": 110035707,
      "is_ai": true,
      "track_id": 4,
      "velocity": 0,
      "is_motor": false,
      "motor_id": 0,
      "accel_val": 2000,
      "base_duration_us": 258620
    },
    {
      "id": "M_1072",
      "pitch": 56,
      "t_note_us": 110171670,
      "t_trigger_us": 110035707,
      "is_ai": false,
      "track_id": 0,
      "velocity": 0,
      "is_motor": true,
      "motor_id": 0,
      "accel_val": 2000,
      "base_duration_us": 517240
    },
    {
      "id": "M_1075",
      "pitch": 79,
      "t_note_us": 110430290,
      "t_trigger_us": 110294327,
      "is_ai": true,
      "track_id": 0,
      "velocity": 0,
      "is_motor": false,
      "motor_id": 0,
      "accel_val": 2000,
      "base_duration_us": 517240
    },
    {
      "id": "M_1074",
      "pitch": 81,
      "t_note_us": 110688910,
      "t_trigger_us": 110552947,
      "is_ai": true,
      "track_id": 1,
      "velocity": 0,
      "is_motor": false,
      "motor_id": 0,
      "accel_val": 2000,
      "base_duration_us": 258620
    },
    {
      "id": "M_1079",
      "pitch": 56,
      "t_note_us": 110688910,
      "t_trigger_us": 110552947,
      "is_ai": false,
      "track_id": 0,
      "velocity": 0,
      "is_motor": true,
      "motor_id": 0,
      "accel_val": 2000,
      "base_duration_us": 517240
    },
    {
      "id": "M_1087",
      "pitch": 51,
      "t_note_us": 110688910,
      "t_trigger_us": 110552947,
      "is_ai": false,
      "track_id": 0,
      "velocity": 0,
      "is_motor": true,
      "motor_id": 1,
      "accel_val": 2000,
      "base_duration_us": 1034480
    },
    {
      "id": "M_1076",
      "pitch": 79,
      "t_note_us": 110947530,
      "t_trigger_us": 110811567,
      "is_ai": true,
      "track_id": 0,
      "velocity": 0,
      "is_motor": false,
      "motor_id": 0,
      "accel_val": 2000,
      "base_duration_us": 258620
    },
    {
      "id": "M_1078",
      "pitch": 86,
      "t_note_us": 110947530,
      "t_trigger_us": 110811567,
      "is_ai": true,
      "track_id": 4,
      "velocity": 0,
      "is_motor": false,
      "motor_id": 0,
      "accel_val": 2000,
      "base_duration_us": 258620
    },
    {
      "id": "M_1077",
      "pitch": 71,
      "t_note_us": 110947530,
      "t_trigger_us": 110811567,
      "is_ai": false,
      "track_id": 0,
      "velocity": 0,
      "is_motor": true,
      "motor_id": 2,
      "accel_val": 2000,
      "base_duration_us": 258620
    },
    {
      "id": "M_1080",
      "pitch": 91,
      "t_note_us": 111206150,
      "t_trigger_us": 111070187,
      "is_ai": true,
      "track_id": 7,
      "velocity": 0,
      "is_motor": false,
      "motor_id": 0,
      "accel_val": 2000,
      "base_duration_us": 258620
    },
    {
      "id": "M_1082",
      "pitch": 83,
      "t_note_us": 111206150,
      "t_trigger_us": 111070187,
      "is_ai": true,
      "track_id": 2,
      "velocity": 0,
      "is_motor": false,
      "motor_id": 0,
      "accel_val": 2000,
      "base_duration_us": 258620
    },
    {
      "id": "M_1083",
      "pitch": 79,
      "t_note_us": 111206150,
      "t_trigger_us": 111070187,
      "is_ai": true,
      "track_id": 0,
      "velocity": 0,
      "is_motor": false,
      "motor_id": 0,
      "accel_val": 2000,
      "base_duration_us": 517240
    },
    {
      "id": "M_1086",
      "pitch": 56,
      "t_note_us": 111206150,
      "t_trigger_us": 111070187,
      "is_ai": false,
      "track_id": 0,
      "velocity": 0,
      "is_motor": true,
      "motor_id": 0,
      "accel_val": 2000,
      "base_duration_us": 517240
    },
    {
      "id": "M_1085",
      "pitch": 79,
      "t_note_us": 111464770,
      "t_trigger_us": 111328807,
      "is_ai": true,
      "track_id": 0,
      "velocity": 0,
      "is_motor": false,
      "motor_id": 0,
      "accel_val": 2000,
      "base_duration_us": 258620
    },
    {
      "id": "M_1088",
      "pitch": 88,
      "t_note_us": 111464770,
      "t_trigger_us": 111328807,
      "is_ai": true,
      "track_id": 5,
      "velocity": 0,
      "is_motor": false,
      "motor_id": 0,
      "accel_val": 2000,
      "base_duration_us": 775861
    },
    {
      "id": "M_1084",
      "pitch": 55,
      "t_note_us": 111464770,
      "t_trigger_us": 111328807,
      "is_ai": false,
      "track_id": 0,
      "velocity": 0,
      "is_motor": true,
      "motor_id": 2,
      "accel_val": 2000,
      "base_duration_us": 258620
    },
    {
      "id": "M_1094",
      "pitch": 79,
      "t_note_us": 111723390,
      "t_trigger_us": 111587427,
      "is_ai": true,
      "track_id": 0,
      "velocity": 0,
      "is_motor": false,
      "motor_id": 0,
      "accel_val": 2000,
      "base_duration_us": 1034481
    },
    {
      "id": "M_1095",
      "pitch": 88,
      "t_note_us": 111723390,
      "t_trigger_us": 111587427,
      "is_ai": true,
      "track_id": 5,
      "velocity": 0,
      "is_motor": false,
      "motor_id": 0,
      "accel_val": 2000,
      "base_duration_us": 1034481
    },
    {
      "id": "M_1089",
      "pitch": 60,
      "t_note_us": 111723390,
      "t_trigger_us": 111587427,
      "is_ai": false,
      "track_id": 0,
      "velocity": 0,
      "is_motor": true,
      "motor_id": 1,
      "accel_val": 2000,
      "base_duration_us": 517241
    },
    {
      "id": "M_1090",
      "pitch": 56,
      "t_note_us": 111723390,
      "t_trigger_us": 111587427,
      "is_ai": false,
      "track_id": 0,
      "velocity": 0,
      "is_motor": true,
      "motor_id": 0,
      "accel_val": 2000,
      "base_duration_us": 517241
    },
    {
      "id": "M_1096",
      "pitch": 72,
      "t_note_us": 111723390,
      "t_trigger_us": 111587427,
      "is_ai": false,
      "track_id": 0,
      "velocity": 0,
      "is_motor": true,
      "motor_id": 2,
      "accel_val": 2000,
      "base_duration_us": 1034481
    },
    {
      "id": "M_1098",
      "pitch": 50,
      "t_note_us": 111723390,
      "t_trigger_us": 111587427,
      "is_ai": false,
      "track_id": 0,
      "velocity": 0,
      "is_motor": true,
      "motor_id": 3,
      "accel_val": 2000,
      "base_duration_us": 1034481
    },
    {
      "id": "M_1104",
      "pitch": 48,
      "t_note_us": 111723390,
      "t_trigger_us": 111587427,
      "is_ai": false,
      "track_id": 0,
      "velocity": 0,
      "is_motor": true,
      "motor_id": 0,
      "accel_val": 2000,
      "base_duration_us": 1810339
    },
    {
      "id": "M_1109",
      "pitch": 60,
      "t_note_us": 111723390,
      "t_trigger_us": 111587427,
      "is_ai": false,
      "track_id": 0,
      "velocity": 0,
      "is_motor": true,
      "motor_id": 0,
      "accel_val": 2000,
      "base_duration_us": 2068959
    },
    {
      "id": "M_1091",
      "pitch": 88,
      "t_note_us": 112240631,
      "t_trigger_us": 112104668,
      "is_ai": true,
      "track_id": 5,
      "velocity": 0,
      "is_motor": false,
      "motor_id": 0,
      "accel_val": 2000,
      "base_duration_us": 258620
    },
    {
      "id": "M_1092",
      "pitch": 72,
      "t_note_us": 112240631,
      "t_trigger_us": 112104668,
      "is_ai": false,
      "track_id": 0,
      "velocity": 0,
      "is_motor": true,
      "motor_id": 1,
      "accel_val": 2000,
      "base_duration_us": 258620
    },
    {
      "id": "M_1097",
      "pitch": 56,
      "t_note_us": 112240631,
      "t_trigger_us": 112104668,
      "is_ai": false,
      "track_id": 0,
      "velocity": 0,
      "is_motor": true,
      "motor_id": 0,
      "accel_val": 2000,
      "base_duration_us": 517240
    },
    {
      "id": "M_1093",
      "pitch": 88,
      "t_note_us": 112499251,
      "t_trigger_us": 112363288,
      "is_ai": true,
      "track_id": 5,
      "velocity": 0,
      "is_motor": false,
      "motor_id": 0,
      "accel_val": 2000,
      "base_duration_us": 258620
    },
    {
      "id": "M_1099",
      "pitch": 88,
      "t_note_us": 112499251,
      "t_trigger_us": 112363288,
      "is_ai": true,
      "track_id": 5,
      "velocity": 0,
      "is_motor": false,
      "motor_id": 0,
      "accel_val": 2000,
      "base_duration_us": 517240
    },
    {
      "id": "M_1100",
      "pitch": 88,
      "t_note_us": 112757871,
      "t_trigger_us": 112621908,
      "is_ai": true,
      "track_id": 5,
      "velocity": 0,
      "is_motor": false,
      "motor_id": 0,
      "accel_val": 2000,
      "base_duration_us": 344826
    },
    {
      "id": "M_1108",
      "pitch": 88,
      "t_note_us": 112757871,
      "t_trigger_us": 112621908,
      "is_ai": true,
      "track_id": 5,
      "velocity": 0,
      "is_motor": false,
      "motor_id": 0,
      "accel_val": 2000,
      "base_duration_us": 1034478
    },
    {
      "id": "M_1110",
      "pitch": 79,
      "t_note_us": 112757871,
      "t_trigger_us": 112621908,
      "is_ai": true,
      "track_id": 0,
      "velocity": 0,
      "is_motor": false,
      "motor_id": 0,
      "accel_val": 2000,
      "base_duration_us": 1034478
    },
    {
      "id": "M_1102",
      "pitch": 56,
      "t_note_us": 112757871,
      "t_trigger_us": 112621908,
      "is_ai": false,
      "track_id": 0,
      "velocity": 0,
      "is_motor": true,
      "motor_id": 0,
      "accel_val": 2000,
      "base_duration_us": 517239
    },
    {
      "id": "M_1106",
      "pitch": 51,
      "t_note_us": 112757871,
      "t_trigger_us": 112621908,
      "is_ai": false,
      "track_id": 0,
      "velocity": 0,
      "is_motor": true,
      "motor_id": 1,
      "accel_val": 2000,
      "base_duration_us": 775858
    },
    {
      "id": "M_1111",
      "pitch": 72,
      "t_note_us": 112757871,
      "t_trigger_us": 112621908,
      "is_ai": false,
      "track_id": 0,
      "velocity": 0,
      "is_motor": true,
      "motor_id": 2,
      "accel_val": 2000,
      "base_duration_us": 1034478
    },
    {
      "id": "M_1101",
      "pitch": 84,
      "t_note_us": 113016491,
      "t_trigger_us": 112880528,
      "is_ai": true,
      "track_id": 3,
      "velocity": 0,
      "is_motor": false,
      "motor_id": 0,
      "accel_val": 2000,
      "base_duration_us": 258619
    },
    {
      "id": "M_1103",
      "pitch": 86,
      "t_note_us": 113102697,
      "t_trigger_us": 112966734,
      "is_ai": true,
      "track_id": 4,
      "velocity": 0,
      "is_motor": false,
      "motor_id": 0,
      "accel_val": 2000,
      "base_duration_us": 344826
    },
    {
      "id": "M_1105",
      "pitch": 79,
      "t_note_us": 113275110,
      "t_trigger_us": 113139147,
      "is_ai": true,
      "track_id": 0,
      "velocity": 0,
      "is_motor": false,
      "motor_id": 0,
      "accel_val": 2000,
      "base_duration_us": 258619
    },
    {
      "id": "M_1115",
      "pitch": 56,
      "t_note_us": 113275110,
      "t_trigger_us": 113139147,
      "is_ai": false,
      "track_id": 0,
      "velocity": 0,
      "is_motor": true,
      "motor_id": 0,
      "accel_val": 2000,
      "base_duration_us": 517239
    },
    {
      "id": "M_1107",
      "pitch": 86,
      "t_note_us": 113447523,
      "t_trigger_us": 113311560,
      "is_ai": true,
      "track_id": 4,
      "velocity": 0,
      "is_motor": false,
      "motor_id": 0,
      "accel_val": 2000,
      "base_duration_us": 344826
    },
    {
      "id": "M_1113",
      "pitch": 88,
      "t_note_us": 113533729,
      "t_trigger_us": 113397766,
      "is_ai": true,
      "track_id": 5,
      "velocity": 0,
      "is_motor": false,
      "motor_id": 0,
      "accel_val": 2000,
      "base_duration_us": 258620
    },
    {
      "id": "M_1112",
      "pitch": 48,
      "t_note_us": 113533729,
      "t_trigger_us": 113397766,
      "is_ai": false,
      "track_id": 0,
      "velocity": 0,
      "is_motor": true,
      "motor_id": 1,
      "accel_val": 2000,
      "base_duration_us": 258620
    },
    {
      "id": "M_1114",
      "pitch": 50,
      "t_note_us": 113533729,
      "t_trigger_us": 113397766,
      "is_ai": false,
      "track_id": 0,
      "velocity": 0,
      "is_motor": true,
      "motor_id": 3,
      "accel_val": 2000,
      "base_duration_us": 258620
    },
    {
      "id": "M_1116",
      "pitch": 88,
      "t_note_us": 113792349,
      "t_trigger_us": 113656386,
      "is_ai": true,
      "track_id": 5,
      "velocity": 0,
      "is_motor": false,
      "motor_id": 0,
      "accel_val": 2000,
      "base_duration_us": 258620
    },
    {
      "id": "M_1121",
      "pitch": 83,
      "t_note_us": 113792349,
      "t_trigger_us": 113656386,
      "is_ai": true,
      "track_id": 2,
      "velocity": 0,
      "is_motor": false,
      "motor_id": 0,
      "accel_val": 2000,
      "base_duration_us": 775860
    },
    {
      "id": "M_1123",
      "pitch": 86,
      "t_note_us": 113792349,
      "t_trigger_us": 113656386,
      "is_ai": true,
      "track_id": 4,
      "velocity": 0,
      "is_motor": false,
      "motor_id": 0,
      "accel_val": 2000,
      "base_duration_us": 775860
    },
    {
      "id": "M_1125",
      "pitch": 90,
      "t_note_us": 113792349,
      "t_trigger_us": 113656386,
      "is_ai": true,
      "track_id": 0,
      "velocity": 0,
      "is_motor": true,
      "motor_id": 3,
      "accel_val": 2000,
      "base_duration_us": 775860
    },
    {
      "id": "M_1129",
      "pitch": 86,
      "t_note_us": 113792349,
      "t_trigger_us": 113656386,
      "is_ai": true,
      "track_id": 4,
      "velocity": 0,
      "is_motor": false,
      "motor_id": 0,
      "accel_val": 2000,
      "base_duration_us": 1034480
    },
    {
      "id": "M_1130",
      "pitch": 90,
      "t_note_us": 113792349,
      "t_trigger_us": 113656386,
      "is_ai": true,
      "track_id": 0,
      "velocity": 0,
      "is_motor": true,
      "motor_id": 2,
      "accel_val": 2000,
      "base_duration_us": 1034480
    },
    {
      "id": "M_1118",
      "pitch": 56,
      "t_note_us": 113792349,
      "t_trigger_us": 113656386,
      "is_ai": false,
      "track_id": 0,
      "velocity": 0,
      "is_motor": true,
      "motor_id": 0,
      "accel_val": 2000,
      "base_duration_us": 517240
    },
    {
      "id": "M_1120",
      "pitch": 47,
      "t_note_us": 113792349,
      "t_trigger_us": 113656386,
      "is_ai": false,
      "track_id": 0,
      "velocity": 0,
      "is_motor": true,
      "motor_id": 1,
      "accel_val": 2000,
      "base_duration_us": 775860
    },
    {
      "id": "M_1122",
      "pitch": 71,
      "t_note_us": 113792349,
      "t_trigger_us": 113656386,
      "is_ai": false,
      "track_id": 0,
      "velocity": 0,
      "is_motor": true,
      "motor_id": 0,
      "accel_val": 2000,
      "base_duration_us": 775860
    },
    {
      "id": "M_1124",
      "pitch": 59,
      "t_note_us": 113792349,
      "t_trigger_us": 113656386,
      "is_ai": false,
      "track_id": 0,
      "velocity": 0,
      "is_motor": true,
      "motor_id": 0,
      "accel_val": 2000,
      "base_duration_us": 775860
    },
    {
      "id": "M_1127",
      "pitch": 71,
      "t_note_us": 113792349,
      "t_trigger_us": 113656386,
      "is_ai": false,
      "track_id": 0,
      "velocity": 0,
      "is_motor": true,
      "motor_id": 0,
      "accel_val": 2000,
      "base_duration_us": 1034480
    },
    {
      "id": "M_1128",
      "pitch": 59,
      "t_note_us": 113792349,
      "t_trigger_us": 113656386,
      "is_ai": false,
      "track_id": 0,
      "velocity": 0,
      "is_motor": true,
      "motor_id": 0,
      "accel_val": 2000,
      "base_duration_us": 1034480
    },
    {
      "id": "M_1117",
      "pitch": 86,
      "t_note_us": 114050969,
      "t_trigger_us": 113915006,
      "is_ai": true,
      "track_id": 4,
      "velocity": 0,
      "is_motor": false,
      "motor_id": 0,
      "accel_val": 2000,
      "base_duration_us": 258620
    },
    {
      "id": "M_1119",
      "pitch": 83,
      "t_note_us": 114309589,
      "t_trigger_us": 114173626,
      "is_ai": true,
      "track_id": 2,
      "velocity": 0,
      "is_motor": false,
      "motor_id": 0,
      "accel_val": 2000,
      "base_duration_us": 258620
    },
    {
      "id": "M_1131",
      "pitch": 56,
      "t_note_us": 114309589,
      "t_trigger_us": 114173626,
      "is_ai": false,
      "track_id": 0,
      "velocity": 0,
      "is_motor": true,
      "motor_id": 0,
      "accel_val": 2000,
      "base_duration_us": 517240
    },
    {
      "id": "M_1126",
      "pitch": 86,
      "t_note_us": 114568209,
      "t_trigger_us": 114432246,
      "is_ai": true,
      "track_id": 4,
      "velocity": 0,
      "is_motor": false,
      "motor_id": 0,
      "accel_val": 2000,
      "base_duration_us": 258620
    },
    {
      "id": "M_1140",
      "pitch": 79,
      "t_note_us": 114568209,
      "t_trigger_us": 114432246,
      "is_ai": true,
      "track_id": 0,
      "velocity": 0,
      "is_motor": false,
      "motor_id": 0,
      "accel_val": 2000,
      "base_duration_us": 1293099
    },
    {
      "id": "M_1141",
      "pitch": 88,
      "t_note_us": 114568209,
      "t_trigger_us": 114432246,
      "is_ai": true,
      "track_id": 5,
      "velocity": 0,
      "is_motor": false,
      "motor_id": 0,
      "accel_val": 2000,
      "base_duration_us": 1293099
    },
    {
      "id": "M_1143",
      "pitch": 83,
      "t_note_us": 114568209,
      "t_trigger_us": 114432246,
      "is_ai": true,
      "track_id": 2,
      "velocity": 0,
      "is_motor": false,
      "motor_id": 0,
      "accel_val": 2000,
      "base_duration_us": 1293099
    },
    {
      "id": "M_1139",
      "pitch": 52,
      "t_note_us": 114568209,
      "t_trigger_us": 114432246,
      "is_ai": false,
      "track_id": 0,
      "velocity": 0,
      "is_motor": true,
      "motor_id": 1,
      "accel_val": 2000,
      "base_duration_us": 1293099
    },
    {
      "id": "M_1142",
      "pitch": 64,
      "t_note_us": 114568209,
      "t_trigger_us": 114432246,
      "is_ai": false,
      "track_id": 0,
      "velocity": 0,
      "is_motor": true,
      "motor_id": 3,
      "accel_val": 2000,
      "base_duration_us": 1293099
    },
    {
      "id": "M_1135",
      "pitch": 88,
      "t_note_us": 114826829,
      "t_trigger_us": 114690866,
      "is_ai": true,
      "track_id": 5,
      "velocity": 0,
      "is_motor": false,
      "motor_id": 0,
      "accel_val": 2000,
      "base_duration_us": 1034479
    },
    {
      "id": "M_1137",
      "pitch": 83,
      "t_note_us": 114826829,
      "t_trigger_us": 114690866,
      "is_ai": true,
      "track_id": 2,
      "velocity": 0,
      "is_motor": false,
      "motor_id": 0,
      "accel_val": 2000,
      "base_duration_us": 1034479
    },
    {
      "id": "M_1138",
      "pitch": 79,
      "t_note_us": 114826829,
      "t_trigger_us": 114690866,
      "is_ai": true,
      "track_id": 0,
      "velocity": 0,
      "is_motor": false,
      "motor_id": 0,
      "accel_val": 2000,
      "base_duration_us": 1034479
    },
    {
      "id": "M_1133",
      "pitch": 56,
      "t_note_us": 114826829,
      "t_trigger_us": 114690866,
      "is_ai": false,
      "track_id": 0,
      "velocity": 0,
      "is_motor": true,
      "motor_id": 0,
      "accel_val": 2000,
      "base_duration_us": 517240
    },
    {
      "id": "M_1136",
      "pitch": 64,
      "t_note_us": 114826829,
      "t_trigger_us": 114690866,
      "is_ai": false,
      "track_id": 0,
      "velocity": 0,
      "is_motor": true,
      "motor_id": 2,
      "accel_val": 2000,
      "base_duration_us": 1034479
    },
    {
      "id": "M_1145",
      "pitch": 51,
      "t_note_us": 114826829,
      "t_trigger_us": 114690866,
      "is_ai": false,
      "track_id": 0,
      "velocity": 0,
      "is_motor": true,
      "motor_id": 0,
      "accel_val": 2000,
      "base_duration_us": 1034479
    },
    {
      "id": "M_1132",
      "pitch": 79,
      "t_note_us": 115085449,
      "t_trigger_us": 114949486,
      "is_ai": true,
      "track_id": 0,
      "velocity": 0,
      "is_motor": false,
      "motor_id": 0,
      "accel_val": 2000,
      "base_duration_us": 258620
    },
    {
      "id": "M_1134",
      "pitch": 91,
      "t_note_us": 115344069,
      "t_trigger_us": 115208106,
      "is_ai": true,
      "track_id": 7,
      "velocity": 0,
      "is_motor": false,
      "motor_id": 0,
      "accel_val": 2000,
      "base_duration_us": 258619
    },
    {
      "id": "M_1144",
      "pitch": 56,
      "t_note_us": 115344069,
      "t_trigger_us": 115208106,
      "is_ai": false,
      "track_id": 0,
      "velocity": 0,
      "is_motor": true,
      "motor_id": 0,
      "accel_val": 2000,
      "base_duration_us": 517239
    },
    {
      "id": "M_1146",
      "pitch": 88,
      "t_note_us": 115602688,
      "t_trigger_us": 115466725,
      "is_ai": true,
      "track_id": 5,
      "velocity": 0,
      "is_motor": false,
      "motor_id": 0,
      "accel_val": 2000,
      "base_duration_us": 775861
    },
    {
      "id": "M_1155",
      "pitch": 79,
      "t_note_us": 115861308,
      "t_trigger_us": 115725345,
      "is_ai": true,
      "track_id": 0,
      "velocity": 0,
      "is_motor": false,
      "motor_id": 0,
      "accel_val": 2000,
      "base_duration_us": 1034481
    },
    {
      "id": "M_1156",
      "pitch": 88,
      "t_note_us": 115861308,
      "t_trigger_us": 115725345,
      "is_ai": true,
      "track_id": 5,
      "velocity": 0,
      "is_motor": false,
      "motor_id": 0,
      "accel_val": 2000,
      "base_duration_us": 1034481
    },
    {
      "id": "M_1147",
      "pitch": 60,
      "t_note_us": 115861308,
      "t_trigger_us": 115725345,
      "is_ai": false,
      "track_id": 0,
      "velocity": 0,
      "is_motor": true,
      "motor_id": 1,
      "accel_val": 2000,
      "base_duration_us": 517241
    },
    {
      "id": "M_1148",
      "pitch": 60,
      "t_note_us": 115861308,
      "t_trigger_us": 115725345,
      "is_ai": false,
      "track_id": 0,
      "velocity": 0,
      "is_motor": true,
      "motor_id": 0,
      "accel_val": 2000,
      "base_duration_us": 517241
    },
    {
      "id": "M_1149",
      "pitch": 56,
      "t_note_us": 115861308,
      "t_trigger_us": 115725345,
      "is_ai": false,
      "track_id": 0,
      "velocity": 0,
      "is_motor": true,
      "motor_id": 2,
      "accel_val": 2000,
      "base_duration_us": 517241
    },
    {
      "id": "M_1158",
      "pitch": 50,
      "t_note_us": 115861308,
      "t_trigger_us": 115725345,
      "is_ai": false,
      "track_id": 0,
      "velocity": 0,
      "is_motor": true,
      "motor_id": 3,
      "accel_val": 2000,
      "base_duration_us": 1034481
    },
    {
      "id": "M_1168",
      "pitch": 48,
      "t_note_us": 115861308,
      "t_trigger_us": 115725345,
      "is_ai": false,
      "track_id": 0,
      "velocity": 0,
      "is_motor": true,
      "motor_id": 0,
      "accel_val": 2000,
      "base_duration_us": 1810341
    },
    {
      "id": "M_1150",
      "pitch": 88,
      "t_note_us": 116378549,
      "t_trigger_us": 116242586,
      "is_ai": true,
      "track_id": 5,
      "velocity": 0,
      "is_motor": false,
      "motor_id": 0,
      "accel_val": 2000,
      "base_duration_us": 258620
    },
    {
      "id": "M_1151",
      "pitch": 67,
      "t_note_us": 116378549,
      "t_trigger_us": 116242586,
      "is_ai": false,
      "track_id": 0,
      "velocity": 0,
      "is_motor": true,
      "motor_id": 1,
      "accel_val": 2000,
      "base_duration_us": 258620
    },
    {
      "id": "M_1152",
      "pitch": 72,
      "t_note_us": 116378549,
      "t_trigger_us": 116242586,
      "is_ai": false,
      "track_id": 0,
      "velocity": 0,
      "is_motor": true,
      "motor_id": 0,
      "accel_val": 2000,
      "base_duration_us": 258620
    },
    {
      "id": "M_1157",
      "pitch": 56,
      "t_note_us": 116378549,
      "t_trigger_us": 116242586,
      "is_ai": false,
      "track_id": 0,
      "velocity": 0,
      "is_motor": true,
      "motor_id": 2,
      "accel_val": 2000,
      "base_duration_us": 517240
    },
    {
      "id": "M_1153",
      "pitch": 88,
      "t_note_us": 116637169,
      "t_trigger_us": 116501206,
      "is_ai": true,
      "track_id": 5,
      "velocity": 0,
      "is_motor": false,
      "motor_id": 0,
      "accel_val": 2000,
      "base_duration_us": 258620
    },
    {
      "id": "M_1161",
      "pitch": 88,
      "t_note_us": 116637169,
      "t_trigger_us": 116501206,
      "is_ai": true,
      "track_id": 5,
      "velocity": 0,
      "is_motor": false,
      "motor_id": 0,
      "accel_val": 2000,
      "base_duration_us": 517240
    },
    {
      "id": "M_1154",
      "pitch": 72,
      "t_note_us": 116637169,
      "t_trigger_us": 116501206,
      "is_ai": false,
      "track_id": 0,
      "velocity": 0,
      "is_motor": true,
      "motor_id": 1,
      "accel_val": 2000,
      "base_duration_us": 258620
    },
    {
      "id": "M_1159",
      "pitch": 88,
      "t_note_us": 116895789,
      "t_trigger_us": 116759826,
      "is_ai": true,
      "track_id": 5,
      "velocity": 0,
      "is_motor": false,
      "motor_id": 0,
      "accel_val": 2000,
      "base_duration_us": 258620
    },
    {
      "id": "M_1160",
      "pitch": 86,
      "t_note_us": 116895789,
      "t_trigger_us": 116759826,
      "is_ai": true,
      "track_id": 4,
      "velocity": 0,
      "is_motor": false,
      "motor_id": 0,
      "accel_val": 2000,
      "base_duration_us": 258620
    },
    {
      "id": "M_1165",
      "pitch": 56,
      "t_note_us": 116895789,
      "t_trigger_us": 116759826,
      "is_ai": false,
      "track_id": 0,
      "velocity": 0,
      "is_motor": true,
      "motor_id": 0,
      "accel_val": 2000,
      "base_duration_us": 517240
    },
    {
      "id": "M_1170",
      "pitch": 51,
      "t_note_us": 116895789,
      "t_trigger_us": 116759826,
      "is_ai": false,
      "track_id": 0,
      "velocity": 0,
      "is_motor": true,
      "motor_id": 1,
      "accel_val": 2000,
      "base_duration_us": 775860
    },
    {
      "id": "M_1162",
      "pitch": 86,
      "t_note_us": 117154409,
      "t_trigger_us": 117018446,
      "is_ai": true,
      "track_id": 4,
      "velocity": 0,
      "is_motor": false,
      "motor_id": 0,
      "accel_val": 2000,
      "base_duration_us": 258620
    },
    {
      "id": "M_1163",
      "pitch": 88,
      "t_note_us": 117154409,
      "t_trigger_us": 117018446,
      "is_ai": true,
      "track_id": 5,
      "velocity": 0,
      "is_motor": false,
      "motor_id": 0,
      "accel_val": 2000,
      "base_duration_us": 258620
    },
    {
      "id": "M_1164",
      "pitch": 84,
      "t_note_us": 117154409,
      "t_trigger_us": 117018446,
      "is_ai": true,
      "track_id": 3,
      "velocity": 0,
      "is_motor": false,
      "motor_id": 0,
      "accel_val": 2000,
      "base_duration_us": 258620
    },
    {
      "id": "M_1166",
      "pitch": 83,
      "t_note_us": 117413029,
      "t_trigger_us": 117277066,
      "is_ai": true,
      "track_id": 2,
      "velocity": 0,
      "is_motor": false,
      "motor_id": 0,
      "accel_val": 2000,
      "base_duration_us": 258620
    },
    {
      "id": "M_1167",
      "pitch": 79,
      "t_note_us": 117413029,
      "t_trigger_us": 117277066,
      "is_ai": true,
      "track_id": 0,
      "velocity": 0,
      "is_motor": false,
      "motor_id": 0,
      "accel_val": 2000,
      "base_duration_us": 258620
    },
    {
      "id": "M_1169",
      "pitch": 79,
      "t_note_us": 117413029,
      "t_trigger_us": 117277066,
      "is_ai": true,
      "track_id": 0,
      "velocity": 0,
      "is_motor": false,
      "motor_id": 0,
      "accel_val": 2000,
      "base_duration_us": 258620
    },
    {
      "id": "M_1175",
      "pitch": 56,
      "t_note_us": 117413029,
      "t_trigger_us": 117277066,
      "is_ai": false,
      "track_id": 0,
      "velocity": 0,
      "is_motor": true,
      "motor_id": 0,
      "accel_val": 2000,
      "base_duration_us": 517239
    },
    {
      "id": "M_1171",
      "pitch": 86,
      "t_note_us": 117671649,
      "t_trigger_us": 117535686,
      "is_ai": true,
      "track_id": 4,
      "velocity": 0,
      "is_motor": false,
      "motor_id": 0,
      "accel_val": 2000,
      "base_duration_us": 258619
    },
    {
      "id": "M_1173",
      "pitch": 88,
      "t_note_us": 117671649,
      "t_trigger_us": 117535686,
      "is_ai": true,
      "track_id": 5,
      "velocity": 0,
      "is_motor": false,
      "motor_id": 0,
      "accel_val": 2000,
      "base_duration_us": 258619
    },
    {
      "id": "M_1180",
      "pitch": 86,
      "t_note_us": 117671649,
      "t_trigger_us": 117535686,
      "is_ai": true,
      "track_id": 4,
      "velocity": 0,
      "is_motor": false,
      "motor_id": 0,
      "accel_val": 2000,
      "base_duration_us": 1293099
    },
    {
      "id": "M_1172",
      "pitch": 48,
      "t_note_us": 117671649,
      "t_trigger_us": 117535686,
      "is_ai": false,
      "track_id": 0,
      "velocity": 0,
      "is_motor": true,
      "motor_id": 1,
      "accel_val": 2000,
      "base_duration_us": 258619
    },
    {
      "id": "M_1174",
      "pitch": 50,
      "t_note_us": 117671649,
      "t_trigger_us": 117535686,
      "is_ai": false,
      "track_id": 0,
      "velocity": 0,
      "is_motor": true,
      "motor_id": 2,
      "accel_val": 2000,
      "base_duration_us": 258619
    },
    {
      "id": "M_1181",
      "pitch": 90,
      "t_note_us": 117930268,
      "t_trigger_us": 117794305,
      "is_ai": true,
      "track_id": 0,
      "velocity": 0,
      "is_motor": true,
      "motor_id": 3,
      "accel_val": 2000,
      "base_duration_us": 1034480
    },
    {
      "id": "M_1182",
      "pitch": 86,
      "t_note_us": 117930268,
      "t_trigger_us": 117794305,
      "is_ai": true,
      "track_id": 4,
      "velocity": 0,
      "is_motor": false,
      "motor_id": 0,
      "accel_val": 2000,
      "base_duration_us": 1034480
    },
    {
      "id": "M_1185",
      "pitch": 81,
      "t_note_us": 117930268,
      "t_trigger_us": 117794305,
      "is_ai": true,
      "track_id": 1,
      "velocity": 0,
      "is_motor": false,
      "motor_id": 0,
      "accel_val": 2000,
      "base_duration_us": 1034480
    },
    {
      "id": "M_1176",
      "pitch": 59,
      "t_note_us": 117930268,
      "t_trigger_us": 117794305,
      "is_ai": false,
      "track_id": 0,
      "velocity": 0,
      "is_motor": true,
      "motor_id": 0,
      "accel_val": 2000,
      "base_duration_us": 258620
    },
    {
      "id": "M_1178",
      "pitch": 56,
      "t_note_us": 117930268,
      "t_trigger_us": 117794305,
      "is_ai": false,
      "track_id": 0,
      "velocity": 0,
      "is_motor": true,
      "motor_id": 1,
      "accel_val": 2000,
      "base_duration_us": 517240
    },
    {
      "id": "M_1183",
      "pitch": 59,
      "t_note_us": 117930268,
      "t_trigger_us": 117794305,
      "is_ai": false,
      "track_id": 0,
      "velocity": 0,
      "is_motor": true,
      "motor_id": 2,
      "accel_val": 2000,
      "base_duration_us": 1034480
    },
    {
      "id": "M_1184",
      "pitch": 71,
      "t_note_us": 117930268,
      "t_trigger_us": 117794305,
      "is_ai": false,
      "track_id": 0,
      "velocity": 0,
      "is_motor": true,
      "motor_id": 0,
      "accel_val": 2000,
      "base_duration_us": 1034480
    },
    {
      "id": "M_1186",
      "pitch": 47,
      "t_note_us": 117930268,
      "t_trigger_us": 117794305,
      "is_ai": false,
      "track_id": 0,
      "velocity": 0,
      "is_motor": true,
      "motor_id": 0,
      "accel_val": 2000,
      "base_duration_us": 1034480
    },
    {
      "id": "M_1177",
      "pitch": 71,
      "t_note_us": 118188888,
      "t_trigger_us": 118052925,
      "is_ai": false,
      "track_id": 0,
      "velocity": 0,
      "is_motor": true,
      "motor_id": 0,
      "accel_val": 2000,
      "base_duration_us": 258620
    },
    {
      "id": "M_1179",
      "pitch": 86,
      "t_note_us": 118447508,
      "t_trigger_us": 118311545,
      "is_ai": true,
      "track_id": 4,
      "velocity": 0,
      "is_motor": false,
      "motor_id": 0,
      "accel_val": 2000,
      "base_duration_us": 258620
    },
    {
      "id": "M_1188",
      "pitch": 56,
      "t_note_us": 118447508,
      "t_trigger_us": 118311545,
      "is_ai": false,
      "track_id": 0,
      "velocity": 0,
      "is_motor": true,
      "motor_id": 0,
      "accel_val": 2000,
      "base_duration_us": 517240
    },
    {
      "id": "M_1187",
      "pitch": 90,
      "t_note_us": 118706128,
      "t_trigger_us": 118570165,
      "is_ai": true,
      "track_id": 0,
      "velocity": 0,
      "is_motor": true,
      "motor_id": 1,
      "accel_val": 2000,
      "base_duration_us": 258620
    },
    {
      "id": "M_1195",
      "pitch": 79,
      "t_note_us": 118964748,
      "t_trigger_us": 118828785,
      "is_ai": true,
      "track_id": 0,
      "velocity": 0,
      "is_motor": false,
      "motor_id": 0,
      "accel_val": 2000,
      "base_duration_us": 1034479
    },
    {
      "id": "M_1189",
      "pitch": 64,
      "t_note_us": 118964748,
      "t_trigger_us": 118828785,
      "is_ai": false,
      "track_id": 0,
      "velocity": 0,
      "is_motor": true,
      "motor_id": 1,
      "accel_val": 2000,
      "base_duration_us": 258620
    },
    {
      "id": "M_1192",
      "pitch": 56,
      "t_note_us": 118964748,
      "t_trigger_us": 118828785,
      "is_ai": false,
      "track_id": 0,
      "velocity": 0,
      "is_motor": true,
      "motor_id": 0,
      "accel_val": 2000,
      "base_duration_us": 517240
    },
    {
      "id": "M_1196",
      "pitch": 64,
      "t_note_us": 118964748,
      "t_trigger_us": 118828785,
      "is_ai": false,
      "track_id": 0,
      "velocity": 0,
      "is_motor": true,
      "motor_id": 2,
      "accel_val": 2000,
      "base_duration_us": 1034479
    },
    {
      "id": "M_1197",
      "pitch": 76,
      "t_note_us": 118964748,
      "t_trigger_us": 118828785,
      "is_ai": false,
      "track_id": 0,
      "velocity": 0,
      "is_motor": true,
      "motor_id": 3,
      "accel_val": 2000,
      "base_duration_us": 1034479
    },
    {
      "id": "M_1198",
      "pitch": 71,
      "t_note_us": 118964748,
      "t_trigger_us": 118828785,
      "is_ai": false,
      "track_id": 0,
      "velocity": 0,
      "is_motor": true,
      "motor_id": 0,
      "accel_val": 2000,
      "base_duration_us": 1034479
    },
    {
      "id": "M_1199",
      "pitch": 52,
      "t_note_us": 118964748,
      "t_trigger_us": 118828785,
      "is_ai": false,
      "track_id": 0,
      "velocity": 0,
      "is_motor": true,
      "motor_id": 0,
      "accel_val": 2000,
      "base_duration_us": 1034479
    },
    {
      "id": "M_1202",
      "pitch": 51,
      "t_note_us": 118964748,
      "t_trigger_us": 118828785,
      "is_ai": false,
      "track_id": 0,
      "velocity": 0,
      "is_motor": true,
      "motor_id": 0,
      "accel_val": 2000,
      "base_duration_us": 1034479
    },
    {
      "id": "M_1190",
      "pitch": 79,
      "t_note_us": 119223368,
      "t_trigger_us": 119087405,
      "is_ai": true,
      "track_id": 0,
      "velocity": 0,
      "is_motor": false,
      "motor_id": 0,
      "accel_val": 2000,
      "base_duration_us": 258620
    },
    {
      "id": "M_1191",
      "pitch": 71,
      "t_note_us": 119223368,
      "t_trigger_us": 119087405,
      "is_ai": false,
      "track_id": 0,
      "velocity": 0,
      "is_motor": true,
      "motor_id": 1,
      "accel_val": 2000,
      "base_duration_us": 258620
    },
    {
      "id": "M_1193",
      "pitch": 91,
      "t_note_us": 119481988,
      "t_trigger_us": 119346025,
      "is_ai": true,
      "track_id": 7,
      "velocity": 0,
      "is_motor": false,
      "motor_id": 0,
      "accel_val": 2000,
      "base_duration_us": 258620
    },
    {
      "id": "M_1194",
      "pitch": 88,
      "t_note_us": 119481988,
      "t_trigger_us": 119346025,
      "is_ai": true,
      "track_id": 5,
      "velocity": 0,
      "is_motor": false,
      "motor_id": 0,
      "accel_val": 2000,
      "base_duration_us": 258620
    },
    {
      "id": "M_1201",
      "pitch": 56,
      "t_note_us": 119481988,
      "t_trigger_us": 119346025,
      "is_ai": false,
      "track_id": 0,
      "velocity": 0,
      "is_motor": true,
      "motor_id": 0,
      "accel_val": 2000,
      "base_duration_us": 517239
    },
    {
      "id": "M_1200",
      "pitch": 79,
      "t_note_us": 119740608,
      "t_trigger_us": 119604645,
      "is_ai": true,
      "track_id": 0,
      "velocity": 0,
      "is_motor": false,
      "motor_id": 0,
      "accel_val": 2000,
      "base_duration_us": 258619
    },
    {
      "id": "M_1203",
      "pitch": 88,
      "t_note_us": 119740608,
      "t_trigger_us": 119604645,
      "is_ai": true,
      "track_id": 5,
      "velocity": 0,
      "is_motor": false,
      "motor_id": 0,
      "accel_val": 2000,
      "base_duration_us": 775857
    },
    {
      "id": "M_1212",
      "pitch": 88,
      "t_note_us": 119999227,
      "t_trigger_us": 119863264,
      "is_ai": true,
      "track_id": 5,
      "velocity": 0,
      "is_motor": false,
      "motor_id": 0,
      "accel_val": 2000,
      "base_duration_us": 1034476
    },
    {
      "id": "M_1231",
      "pitch": 79,
      "t_note_us": 119999227,
      "t_trigger_us": 119863264,
      "is_ai": true,
      "track_id": 0,
      "velocity": 0,
      "is_motor": false,
      "motor_id": 0,
      "accel_val": 2000,
      "base_duration_us": 2068951
    },
    {
      "id": "M_1232",
      "pitch": 88,
      "t_note_us": 119999227,
      "t_trigger_us": 119863264,
      "is_ai": true,
      "track_id": 5,
      "velocity": 0,
      "is_motor": false,
      "motor_id": 0,
      "accel_val": 2000,
      "base_duration_us": 2068951
    },
    {
      "id": "M_1204",
      "pitch": 60,
      "t_note_us": 119999227,
      "t_trigger_us": 119863264,
      "is_ai": false,
      "track_id": 0,
      "velocity": 0,
      "is_motor": true,
      "motor_id": 1,
      "accel_val": 2000,
      "base_duration_us": 517238
    },
    {
      "id": "M_1205",
      "pitch": 56,
      "t_note_us": 119999227,
      "t_trigger_us": 119863264,
      "is_ai": false,
      "track_id": 0,
      "velocity": 0,
      "is_motor": true,
      "motor_id": 0,
      "accel_val": 2000,
      "base_duration_us": 517238
    },
    {
      "id": "M_1209",
      "pitch": 67,
      "t_note_us": 119999227,
      "t_trigger_us": 119863264,
      "is_ai": false,
      "track_id": 0,
      "velocity": 0,
      "is_motor": true,
      "motor_id": 2,
      "accel_val": 2000,
      "base_duration_us": 1034476
    },
    {
      "id": "M_1210",
      "pitch": 60,
      "t_note_us": 119999227,
      "t_trigger_us": 119863264,
      "is_ai": false,
      "track_id": 0,
      "velocity": 0,
      "is_motor": true,
      "motor_id": 3,
      "accel_val": 2000,
      "base_duration_us": 1034476
    },
    {
      "id": "M_1211",
      "pitch": 72,
      "t_note_us": 119999227,
      "t_trigger_us": 119863264,
      "is_ai": false,
      "track_id": 0,
      "velocity": 0,
      "is_motor": true,
      "motor_id": 0,
      "accel_val": 2000,
      "base_duration_us": 1034476
    },
    {
      "id": "M_1214",
      "pitch": 50,
      "t_note_us": 119999227,
      "t_trigger_us": 119863264,
      "is_ai": false,
      "track_id": 0,
      "velocity": 0,
      "is_motor": true,
      "motor_id": 0,
      "accel_val": 2000,
      "base_duration_us": 1034476
    },
    {
      "id": "M_1223",
      "pitch": 48,
      "t_note_us": 119999227,
      "t_trigger_us": 119863264,
      "is_ai": false,
      "track_id": 0,
      "velocity": 0,
      "is_motor": true,
      "motor_id": 0,
      "accel_val": 2000,
      "base_duration_us": 1810332
    },
    {
      "id": "M_1230",
      "pitch": 72,
      "t_note_us": 119999227,
      "t_trigger_us": 119863264,
      "is_ai": false,
      "track_id": 0,
      "velocity": 0,
      "is_motor": true,
      "motor_id": 0,
      "accel_val": 2000,
      "base_duration_us": 2068951
    },
    {
      "id": "M_1259",
      "pitch": 60,
      "t_note_us": 119999227,
      "t_trigger_us": 119863264,
      "is_ai": false,
      "track_id": 0,
      "velocity": 0,
      "is_motor": true,
      "motor_id": 0,
      "accel_val": 2000,
      "base_duration_us": 4137904
    },
    {
      "id": "M_1260",
      "pitch": 72,
      "t_note_us": 119999227,
      "t_trigger_us": 119863264,
      "is_ai": false,
      "track_id": 0,
      "velocity": 0,
      "is_motor": true,
      "motor_id": 0,
      "accel_val": 2000,
      "base_duration_us": 4137904
    },
    {
      "id": "M_1206",
      "pitch": 88,
      "t_note_us": 120516465,
      "t_trigger_us": 120380502,
      "is_ai": true,
      "track_id": 5,
      "velocity": 0,
      "is_motor": false,
      "motor_id": 0,
      "accel_val": 2000,
      "base_duration_us": 258618
    },
    {
      "id": "M_1207",
      "pitch": 88,
      "t_note_us": 120516465,
      "t_trigger_us": 120380502,
      "is_ai": true,
      "track_id": 5,
      "velocity": 0,
      "is_motor": false,
      "motor_id": 0,
      "accel_val": 2000,
      "base_duration_us": 258618
    },
    {
      "id": "M_1213",
      "pitch": 56,
      "t_note_us": 120516465,
      "t_trigger_us": 120380502,
      "is_ai": false,
      "track_id": 0,
      "velocity": 0,
      "is_motor": true,
      "motor_id": 0,
      "accel_val": 2000,
      "base_duration_us": 517238
    },
    {
      "id": "M_1208",
      "pitch": 86,
      "t_note_us": 120775083,
      "t_trigger_us": 120639120,
      "is_ai": true,
      "track_id": 4,
      "velocity": 0,
      "is_motor": false,
      "motor_id": 0,
      "accel_val": 2000,
      "base_duration_us": 258620
    },
    {
      "id": "M_1216",
      "pitch": 79,
      "t_note_us": 120775083,
      "t_trigger_us": 120639120,
      "is_ai": true,
      "track_id": 0,
      "velocity": 0,
      "is_motor": false,
      "motor_id": 0,
      "accel_val": 2000,
      "base_duration_us": 517240
    },
    {
      "id": "M_1215",
      "pitch": 84,
      "t_note_us": 121033703,
      "t_trigger_us": 120897740,
      "is_ai": true,
      "track_id": 3,
      "velocity": 0,
      "is_motor": false,
      "motor_id": 0,
      "accel_val": 2000,
      "base_duration_us": 258620
    },
    {
      "id": "M_1217",
      "pitch": 88,
      "t_note_us": 121033703,
      "t_trigger_us": 120897740,
      "is_ai": true,
      "track_id": 5,
      "velocity": 0,
      "is_motor": false,
      "motor_id": 0,
      "accel_val": 2000,
      "base_duration_us": 517238
    },
    {
      "id": "M_1220",
      "pitch": 56,
      "t_note_us": 121033703,
      "t_trigger_us": 120897740,
      "is_ai": false,
      "track_id": 0,
      "velocity": 0,
      "is_motor": true,
      "motor_id": 0,
      "accel_val": 2000,
      "base_duration_us": 517238
    },
    {
      "id": "M_1225",
      "pitch": 51,
      "t_note_us": 121033703,
      "t_trigger_us": 120897740,
      "is_ai": false,
      "track_id": 0,
      "velocity": 0,
      "is_motor": true,
      "motor_id": 1,
      "accel_val": 2000,
      "base_duration_us": 775856
    },
    {
      "id": "M_1218",
      "pitch": 86,
      "t_note_us": 121292323,
      "t_trigger_us": 121156360,
      "is_ai": true,
      "track_id": 4,
      "velocity": 0,
      "is_motor": false,
      "motor_id": 0,
      "accel_val": 2000,
      "base_duration_us": 258618
    },
    {
      "id": "M_1219",
      "pitch": 84,
      "t_note_us": 121292323,
      "t_trigger_us": 121156360,
      "is_ai": true,
      "track_id": 3,
      "velocity": 0,
      "is_motor": false,
      "motor_id": 0,
      "accel_val": 2000,
      "base_duration_us": 258618
    },
    {
      "id": "M_1221",
      "pitch": 86,
      "t_note_us": 121550941,
      "t_trigger_us": 121414978,
      "is_ai": true,
      "track_id": 4,
      "velocity": 0,
      "is_motor": false,
      "motor_id": 0,
      "accel_val": 2000,
      "base_duration_us": 258618
    },
    {
      "id": "M_1222",
      "pitch": 88,
      "t_note_us": 121550941,
      "t_trigger_us": 121414978,
      "is_ai": true,
      "track_id": 5,
      "velocity": 0,
      "is_motor": false,
      "motor_id": 0,
      "accel_val": 2000,
      "base_duration_us": 258618
    },
    {
      "id": "M_1224",
      "pitch": 79,
      "t_note_us": 121550941,
      "t_trigger_us": 121414978,
      "is_ai": true,
      "track_id": 0,
      "velocity": 0,
      "is_motor": false,
      "motor_id": 0,
      "accel_val": 2000,
      "base_duration_us": 258618
    },
    {
      "id": "M_1234",
      "pitch": 56,
      "t_note_us": 121550941,
      "t_trigger_us": 121414978,
      "is_ai": false,
      "track_id": 0,
      "velocity": 0,
      "is_motor": true,
      "motor_id": 0,
      "accel_val": 2000,
      "base_duration_us": 517237
    },
    {
      "id": "M_1226",
      "pitch": 88,
      "t_note_us": 121809559,
      "t_trigger_us": 121673596,
      "is_ai": true,
      "track_id": 5,
      "velocity": 0,
      "is_motor": false,
      "motor_id": 0,
      "accel_val": 2000,
      "base_duration_us": 258619
    },
    {
      "id": "M_1227",
      "pitch": 79,
      "t_note_us": 121809559,
      "t_trigger_us": 121673596,
      "is_ai": true,
      "track_id": 0,
      "velocity": 0,
      "is_motor": false,
      "motor_id": 0,
      "accel_val": 2000,
      "base_duration_us": 258619
    },
    {
      "id": "M_1229",
      "pitch": 88,
      "t_note_us": 121809559,
      "t_trigger_us": 121673596,
      "is_ai": true,
      "track_id": 5,
      "velocity": 0,
      "is_motor": false,
      "motor_id": 0,
      "accel_val": 2000,
      "base_duration_us": 258619
    },
    {
      "id": "M_1228",
      "pitch": 48,
      "t_note_us": 121809559,
      "t_trigger_us": 121673596,
      "is_ai": false,
      "track_id": 0,
      "velocity": 0,
      "is_motor": true,
      "motor_id": 1,
      "accel_val": 2000,
      "base_duration_us": 258619
    },
    {
      "id": "M_1233",
      "pitch": 50,
      "t_note_us": 121809559,
      "t_trigger_us": 121673596,
      "is_ai": false,
      "track_id": 0,
      "velocity": 0,
      "is_motor": true,
      "motor_id": 2,
      "accel_val": 2000,
      "base_duration_us": 258619
    },
    {
      "id": "M_1235",
      "pitch": 90,
      "t_note_us": 122068178,
      "t_trigger_us": 121932215,
      "is_ai": true,
      "track_id": 0,
      "velocity": 0,
      "is_motor": true,
      "motor_id": 3,
      "accel_val": 2000,
      "base_duration_us": 517238
    },
    {
      "id": "M_1261",
      "pitch": 81,
      "t_note_us": 122068178,
      "t_trigger_us": 121932215,
      "is_ai": true,
      "track_id": 1,
      "velocity": 0,
      "is_motor": false,
      "motor_id": 0,
      "accel_val": 2000,
      "base_duration_us": 2068953
    },
    {
      "id": "M_1236",
      "pitch": 60,
      "t_note_us": 122068178,
      "t_trigger_us": 121932215,
      "is_ai": false,
      "track_id": 0,
      "velocity": 0,
      "is_motor": true,
      "motor_id": 1,
      "accel_val": 2000,
      "base_duration_us": 517238
    },
    {
      "id": "M_1237",
      "pitch": 56,
      "t_note_us": 122068178,
      "t_trigger_us": 121932215,
      "is_ai": false,
      "track_id": 0,
      "velocity": 0,
      "is_motor": true,
      "motor_id": 0,
      "accel_val": 2000,
      "base_duration_us": 517238
    },
    {
      "id": "M_1240",
      "pitch": 50,
      "t_note_us": 122068178,
      "t_trigger_us": 121932215,
      "is_ai": false,
      "track_id": 0,
      "velocity": 0,
      "is_motor": true,
      "motor_id": 2,
      "accel_val": 2000,
      "base_duration_us": 775858
    },
    {
      "id": "M_1241",
      "pitch": 69,
      "t_note_us": 122068178,
      "t_trigger_us": 121932215,
      "is_ai": false,
      "track_id": 0,
      "velocity": 0,
      "is_motor": true,
      "motor_id": 0,
      "accel_val": 2000,
      "base_duration_us": 1034477
    },
    {
      "id": "M_1242",
      "pitch": 74,
      "t_note_us": 122068178,
      "t_trigger_us": 121932215,
      "is_ai": false,
      "track_id": 0,
      "velocity": 0,
      "is_motor": true,
      "motor_id": 0,
      "accel_val": 2000,
      "base_duration_us": 1034477
    },
    {
      "id": "M_1243",
      "pitch": 78,
      "t_note_us": 122068178,
      "t_trigger_us": 121932215,
      "is_ai": false,
      "track_id": 0,
      "velocity": 0,
      "is_motor": true,
      "motor_id": 0,
      "accel_val": 2000,
      "base_duration_us": 1034477
    },
    {
      "id": "M_1250",
      "pitch": 48,
      "t_note_us": 122068178,
      "t_trigger_us": 121932215,
      "is_ai": false,
      "track_id": 0,
      "velocity": 0,
      "is_motor": true,
      "motor_id": 0,
      "accel_val": 2000,
      "base_duration_us": 1810335
    },
    {
      "id": "M_1254",
      "pitch": 62,
      "t_note_us": 122068178,
      "t_trigger_us": 121932215,
      "is_ai": false,
      "track_id": 0,
      "velocity": 0,
      "is_motor": true,
      "motor_id": 0,
      "accel_val": 2000,
      "base_duration_us": 2068953
    },
    {
      "id": "M_1262",
      "pitch": 74,
      "t_note_us": 122068178,
      "t_trigger_us": 121932215,
      "is_ai": false,
      "track_id": 0,
      "velocity": 0,
      "is_motor": true,
      "motor_id": 0,
      "accel_val": 2000,
      "base_duration_us": 2068953
    },
    {
      "id": "M_1263",
      "pitch": 78,
      "t_note_us": 122068178,
      "t_trigger_us": 121932215,
      "is_ai": false,
      "track_id": 0,
      "velocity": 0,
      "is_motor": true,
      "motor_id": 0,
      "accel_val": 2000,
      "base_duration_us": 2068953
    },
    {
      "id": "M_1238",
      "pitch": 88,
      "t_note_us": 122585416,
      "t_trigger_us": 122449453,
      "is_ai": true,
      "track_id": 5,
      "velocity": 0,
      "is_motor": false,
      "motor_id": 0,
      "accel_val": 2000,
      "base_duration_us": 258620
    },
    {
      "id": "M_1239",
      "pitch": 86,
      "t_note_us": 122585416,
      "t_trigger_us": 122449453,
      "is_ai": true,
      "track_id": 4,
      "velocity": 0,
      "is_motor": false,
      "motor_id": 0,
      "accel_val": 2000,
      "base_duration_us": 258620
    },
    {
      "id": "M_1245",
      "pitch": 56,
      "t_note_us": 122585416,
      "t_trigger_us": 122449453,
      "is_ai": false,
      "track_id": 0,
      "velocity": 0,
      "is_motor": true,
      "motor_id": 0,
      "accel_val": 2000,
      "base_duration_us": 517239
    },
    {
      "id": "M_1246",
      "pitch": 90,
      "t_note_us": 122844036,
      "t_trigger_us": 122708073,
      "is_ai": true,
      "track_id": 0,
      "velocity": 0,
      "is_motor": true,
      "motor_id": 3,
      "accel_val": 2000,
      "base_duration_us": 517238
    },
    {
      "id": "M_1249",
      "pitch": 90,
      "t_note_us": 122844036,
      "t_trigger_us": 122708073,
      "is_ai": true,
      "track_id": 0,
      "velocity": 0,
      "is_motor": true,
      "motor_id": 2,
      "accel_val": 2000,
      "base_duration_us": 1034477
    },
    {
      "id": "M_1244",
      "pitch": 50,
      "t_note_us": 122844036,
      "t_trigger_us": 122708073,
      "is_ai": false,
      "track_id": 0,
      "velocity": 0,
      "is_motor": true,
      "motor_id": 1,
      "accel_val": 2000,
      "base_duration_us": 258619
    },
    {
      "id": "M_1255",
      "pitch": 81,
      "t_note_us": 123102655,
      "t_trigger_us": 122966692,
      "is_ai": true,
      "track_id": 1,
      "velocity": 0,
      "is_motor": false,
      "motor_id": 0,
      "accel_val": 2000,
      "base_duration_us": 1034476
    },
    {
      "id": "M_1248",
      "pitch": 56,
      "t_note_us": 123102655,
      "t_trigger_us": 122966692,
      "is_ai": false,
      "track_id": 0,
      "velocity": 0,
      "is_motor": true,
      "motor_id": 0,
      "accel_val": 2000,
      "base_duration_us": 517239
    },
    {
      "id": "M_1253",
      "pitch": 74,
      "t_note_us": 123102655,
      "t_trigger_us": 122966692,
      "is_ai": false,
      "track_id": 0,
      "velocity": 0,
      "is_motor": true,
      "motor_id": 1,
      "accel_val": 2000,
      "base_duration_us": 1034476
    },
    {
      "id": "M_1256",
      "pitch": 78,
      "t_note_us": 123102655,
      "t_trigger_us": 122966692,
      "is_ai": false,
      "track_id": 0,
      "velocity": 0,
      "is_motor": true,
      "motor_id": 0,
      "accel_val": 2000,
      "base_duration_us": 1034476
    },
    {
      "id": "M_1265",
      "pitch": 50,
      "t_note_us": 123102655,
      "t_trigger_us": 122966692,
      "is_ai": false,
      "track_id": 0,
      "velocity": 0,
      "is_motor": true,
      "motor_id": 0,
      "accel_val": 2000,
      "base_duration_us": 1034476
    },
    {
      "id": "M_1266",
      "pitch": 55,
      "t_note_us": 123102655,
      "t_trigger_us": 122966692,
      "is_ai": false,
      "track_id": 0,
      "velocity": 0,
      "is_motor": true,
      "motor_id": 0,
      "accel_val": 2000,
      "base_duration_us": 1034476
    },
    {
      "id": "M_1247",
      "pitch": 86,
      "t_note_us": 123361274,
      "t_trigger_us": 123225311,
      "is_ai": true,
      "track_id": 4,
      "velocity": 0,
      "is_motor": false,
      "motor_id": 0,
      "accel_val": 2000,
      "base_duration_us": 258620
    },
    {
      "id": "M_1251",
      "pitch": 81,
      "t_note_us": 123619894,
      "t_trigger_us": 123483931,
      "is_ai": true,
      "track_id": 1,
      "velocity": 0,
      "is_motor": false,
      "motor_id": 0,
      "accel_val": 2000,
      "base_duration_us": 258619
    },
    {
      "id": "M_1264",
      "pitch": 56,
      "t_note_us": 123619894,
      "t_trigger_us": 123483931,
      "is_ai": false,
      "track_id": 0,
      "velocity": 0,
      "is_motor": true,
      "motor_id": 0,
      "accel_val": 2000,
      "base_duration_us": 517237
    },
    {
      "id": "M_1252",
      "pitch": 90,
      "t_note_us": 123878513,
      "t_trigger_us": 123742550,
      "is_ai": true,
      "track_id": 0,
      "velocity": 0,
      "is_motor": true,
      "motor_id": 3,
      "accel_val": 2000,
      "base_duration_us": 258618
    },
    {
      "id": "M_1258",
      "pitch": 90,
      "t_note_us": 123878513,
      "t_trigger_us": 123742550,
      "is_ai": true,
      "track_id": 0,
      "velocity": 0,
      "is_motor": true,
      "motor_id": 2,
      "accel_val": 2000,
      "base_duration_us": 258618
    },
    {
      "id": "M_1257",
      "pitch": 47,
      "t_note_us": 123878513,
      "t_trigger_us": 123742550,
      "is_ai": false,
      "track_id": 0,
      "velocity": 0,
      "is_motor": true,
      "motor_id": 0,
      "accel_val": 2000,
      "base_duration_us": 258618
    },
    {
      "id": "M_1267",
      "pitch": 91,
      "t_note_us": 124137131,
      "t_trigger_us": 124001168,
      "is_ai": true,
      "track_id": 7,
      "velocity": 0,
      "is_motor": false,
      "motor_id": 0,
      "accel_val": 2000,
      "base_duration_us": 258619
    },
    {
      "id": "M_1279",
      "pitch": 81,
      "t_note_us": 124137131,
      "t_trigger_us": 124001168,
      "is_ai": true,
      "track_id": 1,
      "velocity": 0,
      "is_motor": false,
      "motor_id": 0,
      "accel_val": 2000,
      "base_duration_us": 1034478
    },
    {
      "id": "M_1280",
      "pitch": 79,
      "t_note_us": 124137131,
      "t_trigger_us": 124001168,
      "is_ai": true,
      "track_id": 0,
      "velocity": 0,
      "is_motor": false,
      "motor_id": 0,
      "accel_val": 2000,
      "base_duration_us": 1034478
    },
    {
      "id": "M_1298",
      "pitch": 84,
      "t_note_us": 124137131,
      "t_trigger_us": 124001168,
      "is_ai": true,
      "track_id": 3,
      "velocity": 0,
      "is_motor": false,
      "motor_id": 0,
      "accel_val": 2000,
      "base_duration_us": 2068950
    },
    {
      "id": "M_1299",
      "pitch": 81,
      "t_note_us": 124137131,
      "t_trigger_us": 124001168,
      "is_ai": true,
      "track_id": 1,
      "velocity": 0,
      "is_motor": false,
      "motor_id": 0,
      "accel_val": 2000,
      "base_duration_us": 2068950
    },
    {
      "id": "M_1268",
      "pitch": 57,
      "t_note_us": 124137131,
      "t_trigger_us": 124001168,
      "is_ai": false,
      "track_id": 0,
      "velocity": 0,
      "is_motor": true,
      "motor_id": 0,
      "accel_val": 2000,
      "base_duration_us": 258619
    },
    {
      "id": "M_1269",
      "pitch": 57,
      "t_note_us": 124137131,
      "t_trigger_us": 124001168,
      "is_ai": false,
      "track_id": 0,
      "velocity": 0,
      "is_motor": true,
      "motor_id": 1,
      "accel_val": 2000,
      "base_duration_us": 258619
    },
    {
      "id": "M_1278",
      "pitch": 76,
      "t_note_us": 124137131,
      "t_trigger_us": 124001168,
      "is_ai": false,
      "track_id": 0,
      "velocity": 0,
      "is_motor": true,
      "motor_id": 2,
      "accel_val": 2000,
      "base_duration_us": 1034478
    },
    {
      "id": "M_1281",
      "pitch": 50,
      "t_note_us": 124137131,
      "t_trigger_us": 124001168,
      "is_ai": false,
      "track_id": 0,
      "velocity": 0,
      "is_motor": true,
      "motor_id": 3,
      "accel_val": 2000,
      "base_duration_us": 1034478
    },
    {
      "id": "M_1282",
      "pitch": 63,
      "t_note_us": 124137131,
      "t_trigger_us": 124001168,
      "is_ai": false,
      "track_id": 0,
      "velocity": 0,
      "is_motor": true,
      "motor_id": 0,
      "accel_val": 2000,
      "base_duration_us": 1034478
    },
    {
      "id": "M_1289",
      "pitch": 45,
      "t_note_us": 124137131,
      "t_trigger_us": 124001168,
      "is_ai": false,
      "track_id": 0,
      "velocity": 0,
      "is_motor": true,
      "motor_id": 0,
      "accel_val": 2000,
      "base_duration_us": 1810333
    },
    {
      "id": "M_1296",
      "pitch": 57,
      "t_note_us": 124137131,
      "t_trigger_us": 124001168,
      "is_ai": false,
      "track_id": 0,
      "velocity": 0,
      "is_motor": true,
      "motor_id": 0,
      "accel_val": 2000,
      "base_duration_us": 2068950
    },
    {
      "id": "M_1297",
      "pitch": 69,
      "t_note_us": 124137131,
      "t_trigger_us": 124001168,
      "is_ai": false,
      "track_id": 0,
      "velocity": 0,
      "is_motor": true,
      "motor_id": 0,
      "accel_val": 2000,
      "base_duration_us": 2068950
    },
    {
      "id": "M_1300",
      "pitch": 76,
      "t_note_us": 124137131,
      "t_trigger_us": 124001168,
      "is_ai": false,
      "track_id": 0,
      "velocity": 0,
      "is_motor": true,
      "motor_id": 0,
      "accel_val": 2000,
      "base_duration_us": 2068950
    },
    {
      "id": "M_1270",
      "pitch": 90,
      "t_note_us": 124395750,
      "t_trigger_us": 124259787,
      "is_ai": true,
      "track_id": 0,
      "velocity": 0,
      "is_motor": true,
      "motor_id": 1,
      "accel_val": 2000,
      "base_duration_us": 258620
    },
    {
      "id": "M_1271",
      "pitch": 64,
      "t_note_us": 124395750,
      "t_trigger_us": 124259787,
      "is_ai": false,
      "track_id": 0,
      "velocity": 0,
      "is_motor": true,
      "motor_id": 0,
      "accel_val": 2000,
      "base_duration_us": 258620
    },
    {
      "id": "M_1272",
      "pitch": 69,
      "t_note_us": 124395750,
      "t_trigger_us": 124259787,
      "is_ai": false,
      "track_id": 0,
      "velocity": 0,
      "is_motor": true,
      "motor_id": 0,
      "accel_val": 2000,
      "base_duration_us": 258620
    },
    {
      "id": "M_1273",
      "pitch": 88,
      "t_note_us": 124654370,
      "t_trigger_us": 124518407,
      "is_ai": true,
      "track_id": 5,
      "velocity": 0,
      "is_motor": false,
      "motor_id": 0,
      "accel_val": 2000,
      "base_duration_us": 258619
    },
    {
      "id": "M_1274",
      "pitch": 69,
      "t_note_us": 124654370,
      "t_trigger_us": 124518407,
      "is_ai": false,
      "track_id": 0,
      "velocity": 0,
      "is_motor": true,
      "motor_id": 1,
      "accel_val": 2000,
      "base_duration_us": 258619
    },
    {
      "id": "M_1275",
      "pitch": 72,
      "t_note_us": 124654370,
      "t_trigger_us": 124518407,
      "is_ai": false,
      "track_id": 0,
      "velocity": 0,
      "is_motor": true,
      "motor_id": 0,
      "accel_val": 2000,
      "base_duration_us": 258619
    },
    {
      "id": "M_1276",
      "pitch": 86,
      "t_note_us": 124912989,
      "t_trigger_us": 124777026,
      "is_ai": true,
      "track_id": 4,
      "velocity": 0,
      "is_motor": false,
      "motor_id": 0,
      "accel_val": 2000,
      "base_duration_us": 258620
    },
    {
      "id": "M_1283",
      "pitch": 88,
      "t_note_us": 124912989,
      "t_trigger_us": 124777026,
      "is_ai": true,
      "track_id": 5,
      "velocity": 0,
      "is_motor": false,
      "motor_id": 0,
      "accel_val": 2000,
      "base_duration_us": 517239
    },
    {
      "id": "M_1277",
      "pitch": 72,
      "t_note_us": 124912989,
      "t_trigger_us": 124777026,
      "is_ai": false,
      "track_id": 0,
      "velocity": 0,
      "is_motor": true,
      "motor_id": 1,
      "accel_val": 2000,
      "base_duration_us": 258620
    },
    {
      "id": "M_1284",
      "pitch": 86,
      "t_note_us": 125171609,
      "t_trigger_us": 125035646,
      "is_ai": true,
      "track_id": 4,
      "velocity": 0,
      "is_motor": false,
      "motor_id": 0,
      "accel_val": 2000,
      "base_duration_us": 344825
    },
    {
      "id": "M_1291",
      "pitch": 52,
      "t_note_us": 125171609,
      "t_trigger_us": 125035646,
      "is_ai": false,
      "track_id": 0,
      "velocity": 0,
      "is_motor": true,
      "motor_id": 0,
      "accel_val": 2000,
      "base_duration_us": 775855
    },
    {
      "id": "M_1285",
      "pitch": 79,
      "t_note_us": 125430228,
      "t_trigger_us": 125294265,
      "is_ai": true,
      "track_id": 0,
      "velocity": 0,
      "is_motor": false,
      "motor_id": 0,
      "accel_val": 2000,
      "base_duration_us": 258618
    },
    {
      "id": "M_1286",
      "pitch": 84,
      "t_note_us": 125430228,
      "t_trigger_us": 125294265,
      "is_ai": true,
      "track_id": 3,
      "velocity": 0,
      "is_motor": false,
      "motor_id": 0,
      "accel_val": 2000,
      "base_duration_us": 258618
    },
    {
      "id": "M_1287",
      "pitch": 91,
      "t_note_us": 125516434,
      "t_trigger_us": 125380471,
      "is_ai": true,
      "track_id": 7,
      "velocity": 0,
      "is_motor": false,
      "motor_id": 0,
      "accel_val": 2000,
      "base_duration_us": 344824
    },
    {
      "id": "M_1288",
      "pitch": 88,
      "t_note_us": 125688846,
      "t_trigger_us": 125552883,
      "is_ai": true,
      "track_id": 5,
      "velocity": 0,
      "is_motor": false,
      "motor_id": 0,
      "accel_val": 2000,
      "base_duration_us": 258618
    },
    {
      "id": "M_1290",
      "pitch": 81,
      "t_note_us": 125688846,
      "t_trigger_us": 125552883,
      "is_ai": true,
      "track_id": 1,
      "velocity": 0,
      "is_motor": false,
      "motor_id": 0,
      "accel_val": 2000,
      "base_duration_us": 258618
    },
    {
      "id": "M_1292",
      "pitch": 93,
      "t_note_us": 125861258,
      "t_trigger_us": 125725295,
      "is_ai": true,
      "track_id": 8,
      "velocity": 0,
      "is_motor": false,
      "motor_id": 0,
      "accel_val": 2000,
      "base_duration_us": 344823
    },
    {
      "id": "M_1295",
      "pitch": 88,
      "t_note_us": 125947464,
      "t_trigger_us": 125811501,
      "is_ai": true,
      "track_id": 5,
      "velocity": 0,
      "is_motor": false,
      "motor_id": 0,
      "accel_val": 2000,
      "base_duration_us": 258617
    },
    {
      "id": "M_1293",
      "pitch": 72,
      "t_note_us": 125947464,
      "t_trigger_us": 125811501,
      "is_ai": false,
      "track_id": 0,
      "velocity": 0,
      "is_motor": true,
      "motor_id": 1,
      "accel_val": 2000,
      "base_duration_us": 258617
    },
    {
      "id": "M_1294",
      "pitch": 45,
      "t_note_us": 125947464,
      "t_trigger_us": 125811501,
      "is_ai": false,
      "track_id": 0,
      "velocity": 0,
      "is_motor": true,
      "motor_id": 0,
      "accel_val": 2000,
      "base_duration_us": 258617
    },
    {
      "id": "M_1301",
      "pitch": 50,
      "t_note_us": 125947464,
      "t_trigger_us": 125811501,
      "is_ai": false,
      "track_id": 0,
      "velocity": 0,
      "is_motor": true,
      "motor_id": 2,
      "accel_val": 2000,
      "base_duration_us": 258617
    },
    {
      "id": "M_1305",
      "pitch": 86,
      "t_note_us": 126206081,
      "t_trigger_us": 126070118,
      "is_ai": true,
      "track_id": 4,
      "velocity": 0,
      "is_motor": false,
      "motor_id": 0,
      "accel_val": 2000,
      "base_duration_us": 517237
    },
    {
      "id": "M_1330",
      "pitch": 81,
      "t_note_us": 126206081,
      "t_trigger_us": 126070118,
      "is_ai": true,
      "track_id": 1,
      "velocity": 0,
      "is_motor": false,
      "motor_id": 0,
      "accel_val": 2000,
      "base_duration_us": 2068949
    },
    {
      "id": "M_1344",
      "pitch": 93,
      "t_note_us": 126206081,
      "t_trigger_us": 126070118,
      "is_ai": true,
      "track_id": 8,
      "velocity": 0,
      "is_motor": false,
      "motor_id": 0,
      "accel_val": 2000,
      "base_duration_us": 3103425
    },
    {
      "id": "M_1302",
      "pitch": 62,
      "t_note_us": 126206081,
      "t_trigger_us": 126070118,
      "is_ai": false,
      "track_id": 0,
      "velocity": 0,
      "is_motor": true,
      "motor_id": 1,
      "accel_val": 2000,
      "base_duration_us": 258620
    },
    {
      "id": "M_1303",
      "pitch": 62,
      "t_note_us": 126206081,
      "t_trigger_us": 126070118,
      "is_ai": false,
      "track_id": 0,
      "velocity": 0,
      "is_motor": true,
      "motor_id": 0,
      "accel_val": 2000,
      "base_duration_us": 258620
    },
    {
      "id": "M_1307",
      "pitch": 56,
      "t_note_us": 126206081,
      "t_trigger_us": 126070118,
      "is_ai": false,
      "track_id": 0,
      "velocity": 0,
      "is_motor": true,
      "motor_id": 2,
      "accel_val": 2000,
      "base_duration_us": 517237
    },
    {
      "id": "M_1314",
      "pitch": 50,
      "t_note_us": 126206081,
      "t_trigger_us": 126070118,
      "is_ai": false,
      "track_id": 0,
      "velocity": 0,
      "is_motor": true,
      "motor_id": 3,
      "accel_val": 2000,
      "base_duration_us": 1034476
    },
    {
      "id": "M_1317",
      "pitch": 50,
      "t_note_us": 126206081,
      "t_trigger_us": 126070118,
      "is_ai": false,
      "track_id": 0,
      "velocity": 0,
      "is_motor": true,
      "motor_id": 0,
      "accel_val": 2000,
      "base_duration_us": 1551713
    },
    {
      "id": "M_1329",
      "pitch": 74,
      "t_note_us": 126206081,
      "t_trigger_us": 126070118,
      "is_ai": false,
      "track_id": 0,
      "velocity": 0,
      "is_motor": true,
      "motor_id": 0,
      "accel_val": 2000,
      "base_duration_us": 2068949
    },
    {
      "id": "M_1331",
      "pitch": 78,
      "t_note_us": 126206081,
      "t_trigger_us": 126070118,
      "is_ai": false,
      "track_id": 0,
      "velocity": 0,
      "is_motor": true,
      "motor_id": 0,
      "accel_val": 2000,
      "base_duration_us": 2068949
    },
    {
      "id": "M_1365",
      "pitch": 62,
      "t_note_us": 126206081,
      "t_trigger_us": 126070118,
      "is_ai": false,
      "track_id": 0,
      "velocity": 0,
      "is_motor": true,
      "motor_id": 0,
      "accel_val": 2000,
      "base_duration_us": 4137900
    },
    {
      "id": "M_1366",
      "pitch": 74,
      "t_note_us": 126206081,
      "t_trigger_us": 126070118,
      "is_ai": false,
      "track_id": 0,
      "velocity": 0,
      "is_motor": true,
      "motor_id": 0,
      "accel_val": 2000,
      "base_duration_us": 4137900
    },
    {
      "id": "M_1304",
      "pitch": 86,
      "t_note_us": 126464701,
      "t_trigger_us": 126328738,
      "is_ai": true,
      "track_id": 4,
      "velocity": 0,
      "is_motor": false,
      "motor_id": 0,
      "accel_val": 2000,
      "base_duration_us": 258617
    },
    {
      "id": "M_1306",
      "pitch": 86,
      "t_note_us": 126464701,
      "t_trigger_us": 126328738,
      "is_ai": true,
      "track_id": 4,
      "velocity": 0,
      "is_motor": false,
      "motor_id": 0,
      "accel_val": 2000,
      "base_duration_us": 258617
    },
    {
      "id": "M_1308",
      "pitch": 90,
      "t_note_us": 126723318,
      "t_trigger_us": 126587355,
      "is_ai": true,
      "track_id": 0,
      "velocity": 0,
      "is_motor": true,
      "motor_id": 2,
      "accel_val": 2000,
      "base_duration_us": 258620
    },
    {
      "id": "M_1309",
      "pitch": 90,
      "t_note_us": 126723318,
      "t_trigger_us": 126587355,
      "is_ai": true,
      "track_id": 0,
      "velocity": 0,
      "is_motor": true,
      "motor_id": 1,
      "accel_val": 2000,
      "base_duration_us": 258620
    },
    {
      "id": "M_1311",
      "pitch": 88,
      "t_note_us": 126723318,
      "t_trigger_us": 126587355,
      "is_ai": true,
      "track_id": 5,
      "velocity": 0,
      "is_motor": false,
      "motor_id": 0,
      "accel_val": 2000,
      "base_duration_us": 517239
    },
    {
      "id": "M_1313",
      "pitch": 56,
      "t_note_us": 126723318,
      "t_trigger_us": 126587355,
      "is_ai": false,
      "track_id": 0,
      "velocity": 0,
      "is_motor": true,
      "motor_id": 0,
      "accel_val": 2000,
      "base_duration_us": 517239
    },
    {
      "id": "M_1310",
      "pitch": 81,
      "t_note_us": 126981938,
      "t_trigger_us": 126845975,
      "is_ai": true,
      "track_id": 1,
      "velocity": 0,
      "is_motor": false,
      "motor_id": 0,
      "accel_val": 2000,
      "base_duration_us": 258619
    },
    {
      "id": "M_1312",
      "pitch": 81,
      "t_note_us": 126981938,
      "t_trigger_us": 126845975,
      "is_ai": true,
      "track_id": 1,
      "velocity": 0,
      "is_motor": false,
      "motor_id": 0,
      "accel_val": 2000,
      "base_duration_us": 258619
    },
    {
      "id": "M_1315",
      "pitch": 86,
      "t_note_us": 127240557,
      "t_trigger_us": 127104594,
      "is_ai": true,
      "track_id": 4,
      "velocity": 0,
      "is_motor": false,
      "motor_id": 0,
      "accel_val": 2000,
      "base_duration_us": 258618
    },
    {
      "id": "M_1318",
      "pitch": 91,
      "t_note_us": 127240557,
      "t_trigger_us": 127104594,
      "is_ai": true,
      "track_id": 7,
      "velocity": 0,
      "is_motor": false,
      "motor_id": 0,
      "accel_val": 2000,
      "base_duration_us": 517237
    },
    {
      "id": "M_1320",
      "pitch": 56,
      "t_note_us": 127240557,
      "t_trigger_us": 127104594,
      "is_ai": false,
      "track_id": 0,
      "velocity": 0,
      "is_motor": true,
      "motor_id": 0,
      "accel_val": 2000,
      "base_duration_us": 517237
    },
    {
      "id": "M_1324",
      "pitch": 52,
      "t_note_us": 127240557,
      "t_trigger_us": 127104594,
      "is_ai": false,
      "track_id": 0,
      "velocity": 0,
      "is_motor": true,
      "motor_id": 1,
      "accel_val": 2000,
      "base_duration_us": 775856
    },
    {
      "id": "M_1316",
      "pitch": 86,
      "t_note_us": 127499175,
      "t_trigger_us": 127363212,
      "is_ai": true,
      "track_id": 4,
      "velocity": 0,
      "is_motor": false,
      "motor_id": 0,
      "accel_val": 2000,
      "base_duration_us": 258619
    },
    {
      "id": "M_1319",
      "pitch": 81,
      "t_note_us": 127499175,
      "t_trigger_us": 127363212,
      "is_ai": true,
      "track_id": 1,
      "velocity": 0,
      "is_motor": false,
      "motor_id": 0,
      "accel_val": 2000,
      "base_duration_us": 258619
    },
    {
      "id": "M_1321",
      "pitch": 81,
      "t_note_us": 127757794,
      "t_trigger_us": 127621831,
      "is_ai": true,
      "track_id": 1,
      "velocity": 0,
      "is_motor": false,
      "motor_id": 0,
      "accel_val": 2000,
      "base_duration_us": 258619
    },
    {
      "id": "M_1323",
      "pitch": 90,
      "t_note_us": 127757794,
      "t_trigger_us": 127621831,
      "is_ai": true,
      "track_id": 0,
      "velocity": 0,
      "is_motor": true,
      "motor_id": 3,
      "accel_val": 2000,
      "base_duration_us": 258619
    },
    {
      "id": "M_1327",
      "pitch": 93,
      "t_note_us": 127757794,
      "t_trigger_us": 127621831,
      "is_ai": true,
      "track_id": 8,
      "velocity": 0,
      "is_motor": false,
      "motor_id": 0,
      "accel_val": 2000,
      "base_duration_us": 517236
    },
    {
      "id": "M_1322",
      "pitch": 52,
      "t_note_us": 127757794,
      "t_trigger_us": 127621831,
      "is_ai": false,
      "track_id": 0,
      "velocity": 0,
      "is_motor": true,
      "motor_id": 0,
      "accel_val": 2000,
      "base_duration_us": 258619
    },
    {
      "id": "M_1333",
      "pitch": 56,
      "t_note_us": 127757794,
      "t_trigger_us": 127621831,
      "is_ai": false,
      "track_id": 0,
      "velocity": 0,
      "is_motor": true,
      "motor_id": 2,
      "accel_val": 2000,
      "base_duration_us": 517236
    },
    {
      "id": "M_1325",
      "pitch": 90,
      "t_note_us": 128016413,
      "t_trigger_us": 127880450,
      "is_ai": true,
      "track_id": 0,
      "velocity": 0,
      "is_motor": true,
      "motor_id": 3,
      "accel_val": 2000,
      "base_duration_us": 258617
    },
    {
      "id": "M_1328",
      "pitch": 86,
      "t_note_us": 128016413,
      "t_trigger_us": 127880450,
      "is_ai": true,
      "track_id": 4,
      "velocity": 0,
      "is_motor": false,
      "motor_id": 0,
      "accel_val": 2000,
      "base_duration_us": 258617
    },
    {
      "id": "M_1326",
      "pitch": 45,
      "t_note_us": 128016413,
      "t_trigger_us": 127880450,
      "is_ai": false,
      "track_id": 0,
      "velocity": 0,
      "is_motor": true,
      "motor_id": 0,
      "accel_val": 2000,
      "base_duration_us": 258617
    },
    {
      "id": "M_1332",
      "pitch": 50,
      "t_note_us": 128016413,
      "t_trigger_us": 127880450,
      "is_ai": false,
      "track_id": 0,
      "velocity": 0,
      "is_motor": true,
      "motor_id": 1,
      "accel_val": 2000,
      "base_duration_us": 258617
    },
    {
      "id": "M_1334",
      "pitch": 79,
      "t_note_us": 128275030,
      "t_trigger_us": 128139067,
      "is_ai": true,
      "track_id": 0,
      "velocity": 0,
      "is_motor": false,
      "motor_id": 0,
      "accel_val": 2000,
      "base_duration_us": 775857
    },
    {
      "id": "M_1335",
      "pitch": 88,
      "t_note_us": 128275030,
      "t_trigger_us": 128139067,
      "is_ai": true,
      "track_id": 5,
      "velocity": 0,
      "is_motor": false,
      "motor_id": 0,
      "accel_val": 2000,
      "base_duration_us": 775857
    },
    {
      "id": "M_1336",
      "pitch": 84,
      "t_note_us": 128275030,
      "t_trigger_us": 128139067,
      "is_ai": true,
      "track_id": 3,
      "velocity": 0,
      "is_motor": false,
      "motor_id": 0,
      "accel_val": 2000,
      "base_duration_us": 775857
    },
    {
      "id": "M_1338",
      "pitch": 100,
      "t_note_us": 128275030,
      "t_trigger_us": 128139067,
      "is_ai": true,
      "track_id": 12,
      "velocity": 0,
      "is_motor": false,
      "motor_id": 0,
      "accel_val": 2000,
      "base_duration_us": 775857
    },
    {
      "id": "M_1339",
      "pitch": 88,
      "t_note_us": 128275030,
      "t_trigger_us": 128139067,
      "is_ai": true,
      "track_id": 5,
      "velocity": 0,
      "is_motor": false,
      "motor_id": 0,
      "accel_val": 2000,
      "base_duration_us": 775857
    },
    {
      "id": "M_1340",
      "pitch": 79,
      "t_note_us": 128275030,
      "t_trigger_us": 128139067,
      "is_ai": true,
      "track_id": 0,
      "velocity": 0,
      "is_motor": false,
      "motor_id": 0,
      "accel_val": 2000,
      "base_duration_us": 775857
    },
    {
      "id": "M_1341",
      "pitch": 88,
      "t_note_us": 128275030,
      "t_trigger_us": 128139067,
      "is_ai": true,
      "track_id": 5,
      "velocity": 0,
      "is_motor": false,
      "motor_id": 0,
      "accel_val": 2000,
      "base_duration_us": 775857
    },
    {
      "id": "M_1342",
      "pitch": 84,
      "t_note_us": 128275030,
      "t_trigger_us": 128139067,
      "is_ai": true,
      "track_id": 3,
      "velocity": 0,
      "is_motor": false,
      "motor_id": 0,
      "accel_val": 2000,
      "base_duration_us": 775857
    },
    {
      "id": "M_1343",
      "pitch": 88,
      "t_note_us": 128275030,
      "t_trigger_us": 128139067,
      "is_ai": true,
      "track_id": 5,
      "velocity": 0,
      "is_motor": false,
      "motor_id": 0,
      "accel_val": 2000,
      "base_duration_us": 775857
    },
    {
      "id": "M_1337",
      "pitch": 50,
      "t_note_us": 128275030,
      "t_trigger_us": 128139067,
      "is_ai": false,
      "track_id": 0,
      "velocity": 0,
      "is_motor": true,
      "motor_id": 0,
      "accel_val": 2000,
      "base_duration_us": 775857
    },
    {
      "id": "M_1345",
      "pitch": 50,
      "t_note_us": 128275030,
      "t_trigger_us": 128139067,
      "is_ai": false,
      "track_id": 0,
      "velocity": 0,
      "is_motor": true,
      "motor_id": 1,
      "accel_val": 2000,
      "base_duration_us": 1034476
    },
    {
      "id": "M_1346",
      "pitch": 63,
      "t_note_us": 128275030,
      "t_trigger_us": 128139067,
      "is_ai": false,
      "track_id": 0,
      "velocity": 0,
      "is_motor": true,
      "motor_id": 2,
      "accel_val": 2000,
      "base_duration_us": 1034476
    },
    {
      "id": "M_1348",
      "pitch": 86,
      "t_note_us": 129050887,
      "t_trigger_us": 128914924,
      "is_ai": true,
      "track_id": 4,
      "velocity": 0,
      "is_motor": false,
      "motor_id": 0,
      "accel_val": 2000,
      "base_duration_us": 517237
    },
    {
      "id": "M_1349",
      "pitch": 86,
      "t_note_us": 129050887,
      "t_trigger_us": 128914924,
      "is_ai": true,
      "track_id": 4,
      "velocity": 0,
      "is_motor": false,
      "motor_id": 0,
      "accel_val": 2000,
      "base_duration_us": 517237
    },
    {
      "id": "M_1359",
      "pitch": 81,
      "t_note_us": 129050887,
      "t_trigger_us": 128914924,
      "is_ai": true,
      "track_id": 1,
      "velocity": 0,
      "is_motor": false,
      "motor_id": 0,
      "accel_val": 2000,
      "base_duration_us": 1293094
    },
    {
      "id": "M_1360",
      "pitch": 90,
      "t_note_us": 129050887,
      "t_trigger_us": 128914924,
      "is_ai": true,
      "track_id": 0,
      "velocity": 0,
      "is_motor": true,
      "motor_id": 3,
      "accel_val": 2000,
      "base_duration_us": 1293094
    },
    {
      "id": "M_1361",
      "pitch": 86,
      "t_note_us": 129050887,
      "t_trigger_us": 128914924,
      "is_ai": true,
      "track_id": 4,
      "velocity": 0,
      "is_motor": false,
      "motor_id": 0,
      "accel_val": 2000,
      "base_duration_us": 1293094
    },
    {
      "id": "M_1363",
      "pitch": 98,
      "t_note_us": 129050887,
      "t_trigger_us": 128914924,
      "is_ai": true,
      "track_id": 11,
      "velocity": 0,
      "is_motor": false,
      "motor_id": 0,
      "accel_val": 2000,
      "base_duration_us": 1293094
    },
    {
      "id": "M_1367",
      "pitch": 81,
      "t_note_us": 129050887,
      "t_trigger_us": 128914924,
      "is_ai": true,
      "track_id": 1,
      "velocity": 0,
      "is_motor": false,
      "motor_id": 0,
      "accel_val": 2000,
      "base_duration_us": 1293094
    },
    {
      "id": "M_1368",
      "pitch": 86,
      "t_note_us": 129050887,
      "t_trigger_us": 128914924,
      "is_ai": true,
      "track_id": 4,
      "velocity": 0,
      "is_motor": false,
      "motor_id": 0,
      "accel_val": 2000,
      "base_duration_us": 1293094
    },
    {
      "id": "M_1369",
      "pitch": 90,
      "t_note_us": 129050887,
      "t_trigger_us": 128914924,
      "is_ai": true,
      "track_id": 0,
      "velocity": 0,
      "is_motor": true,
      "motor_id": 0,
      "accel_val": 2000,
      "base_duration_us": 1293094
    },
    {
      "id": "M_1347",
      "pitch": 50,
      "t_note_us": 129050887,
      "t_trigger_us": 128914924,
      "is_ai": false,
      "track_id": 0,
      "velocity": 0,
      "is_motor": true,
      "motor_id": 0,
      "accel_val": 2000,
      "base_duration_us": 517237
    },
    {
      "id": "M_1350",
      "pitch": 52,
      "t_note_us": 129309506,
      "t_trigger_us": 129173543,
      "is_ai": false,
      "track_id": 0,
      "velocity": 0,
      "is_motor": true,
      "motor_id": 1,
      "accel_val": 2000,
      "base_duration_us": 258618
    },
    {
      "id": "M_1352",
      "pitch": 84,
      "t_note_us": 129568124,
      "t_trigger_us": 129432161,
      "is_ai": true,
      "track_id": 3,
      "velocity": 0,
      "is_motor": false,
      "motor_id": 0,
      "accel_val": 2000,
      "base_duration_us": 258620
    },
    {
      "id": "M_1353",
      "pitch": 84,
      "t_note_us": 129568124,
      "t_trigger_us": 129432161,
      "is_ai": true,
      "track_id": 3,
      "velocity": 0,
      "is_motor": false,
      "motor_id": 0,
      "accel_val": 2000,
      "base_duration_us": 258620
    },
    {
      "id": "M_1351",
      "pitch": 50,
      "t_note_us": 129568124,
      "t_trigger_us": 129432161,
      "is_ai": false,
      "track_id": 0,
      "velocity": 0,
      "is_motor": true,
      "motor_id": 1,
      "accel_val": 2000,
      "base_duration_us": 258620
    },
    {
      "id": "M_1354",
      "pitch": 61,
      "t_note_us": 129568124,
      "t_trigger_us": 129432161,
      "is_ai": false,
      "track_id": 0,
      "velocity": 0,
      "is_motor": true,
      "motor_id": 2,
      "accel_val": 2000,
      "base_duration_us": 258620
    },
    {
      "id": "M_1356",
      "pitch": 83,
      "t_note_us": 129826744,
      "t_trigger_us": 129690781,
      "is_ai": true,
      "track_id": 2,
      "velocity": 0,
      "is_motor": false,
      "motor_id": 0,
      "accel_val": 2000,
      "base_duration_us": 258619
    },
    {
      "id": "M_1357",
      "pitch": 83,
      "t_note_us": 129826744,
      "t_trigger_us": 129690781,
      "is_ai": true,
      "track_id": 2,
      "velocity": 0,
      "is_motor": false,
      "motor_id": 0,
      "accel_val": 2000,
      "base_duration_us": 258619
    },
    {
      "id": "M_1355",
      "pitch": 45,
      "t_note_us": 129826744,
      "t_trigger_us": 129690781,
      "is_ai": false,
      "track_id": 0,
      "velocity": 0,
      "is_motor": true,
      "motor_id": 1,
      "accel_val": 2000,
      "base_duration_us": 258619
    },
    {
      "id": "M_1358",
      "pitch": 59,
      "t_note_us": 129826744,
      "t_trigger_us": 129690781,
      "is_ai": false,
      "track_id": 0,
      "velocity": 0,
      "is_motor": true,
      "motor_id": 2,
      "accel_val": 2000,
      "base_duration_us": 258619
    },
    {
      "id": "M_1364",
      "pitch": 79,
      "t_note_us": 130085363,
      "t_trigger_us": 129949400,
      "is_ai": true,
      "track_id": 0,
      "velocity": 0,
      "is_motor": false,
      "motor_id": 0,
      "accel_val": 2000,
      "base_duration_us": 258618
    },
    {
      "id": "M_1370",
      "pitch": 79,
      "t_note_us": 130085363,
      "t_trigger_us": 129949400,
      "is_ai": true,
      "track_id": 0,
      "velocity": 0,
      "is_motor": false,
      "motor_id": 0,
      "accel_val": 2000,
      "base_duration_us": 258618
    },
    {
      "id": "M_1362",
      "pitch": 50,
      "t_note_us": 130085363,
      "t_trigger_us": 129949400,
      "is_ai": false,
      "track_id": 0,
      "velocity": 0,
      "is_motor": true,
      "motor_id": 1,
      "accel_val": 2000,
      "base_duration_us": 258618
    },
    {
      "id": "M_1371",
      "pitch": 57,
      "t_note_us": 130085363,
      "t_trigger_us": 129949400,
      "is_ai": false,
      "track_id": 0,
      "velocity": 0,
      "is_motor": true,
      "motor_id": 2,
      "accel_val": 2000,
      "base_duration_us": 258618
    },
    {
      "id": "M_1374",
      "pitch": 83,
      "t_note_us": 130343981,
      "t_trigger_us": 130208018,
      "is_ai": true,
      "track_id": 2,
      "velocity": 0,
      "is_motor": false,
      "motor_id": 0,
      "accel_val": 2000,
      "base_duration_us": 517236
    },
    {
      "id": "M_1380",
      "pitch": 79,
      "t_note_us": 130343981,
      "t_trigger_us": 130208018,
      "is_ai": true,
      "track_id": 0,
      "velocity": 0,
      "is_motor": false,
      "motor_id": 0,
      "accel_val": 2000,
      "base_duration_us": 1034473
    },
    {
      "id": "M_1390",
      "pitch": 86,
      "t_note_us": 130343981,
      "t_trigger_us": 130208018,
      "is_ai": true,
      "track_id": 4,
      "velocity": 0,
      "is_motor": false,
      "motor_id": 0,
      "accel_val": 2000,
      "base_duration_us": 1551709
    },
    {
      "id": "M_1405",
      "pitch": 79,
      "t_note_us": 130343981,
      "t_trigger_us": 130208018,
      "is_ai": true,
      "track_id": 0,
      "velocity": 0,
      "is_motor": false,
      "motor_id": 0,
      "accel_val": 2000,
      "base_duration_us": 2068944
    },
    {
      "id": "M_1406",
      "pitch": 83,
      "t_note_us": 130343981,
      "t_trigger_us": 130208018,
      "is_ai": true,
      "track_id": 2,
      "velocity": 0,
      "is_motor": false,
      "motor_id": 0,
      "accel_val": 2000,
      "base_duration_us": 2068944
    },
    {
      "id": "M_1446",
      "pitch": 86,
      "t_note_us": 130343981,
      "t_trigger_us": 130208018,
      "is_ai": true,
      "track_id": 4,
      "velocity": 0,
      "is_motor": false,
      "motor_id": 0,
      "accel_val": 2000,
      "base_duration_us": 4137871
    },
    {
      "id": "M_1372",
      "pitch": 55,
      "t_note_us": 130343981,
      "t_trigger_us": 130208018,
      "is_ai": false,
      "track_id": 0,
      "velocity": 0,
      "is_motor": true,
      "motor_id": 0,
      "accel_val": 2000,
      "base_duration_us": 258618
    },
    {
      "id": "M_1373",
      "pitch": 67,
      "t_note_us": 130343981,
      "t_trigger_us": 130208018,
      "is_ai": false,
      "track_id": 0,
      "velocity": 0,
      "is_motor": true,
      "motor_id": 1,
      "accel_val": 2000,
      "base_duration_us": 258618
    },
    {
      "id": "M_1382",
      "pitch": 74,
      "t_note_us": 130343981,
      "t_trigger_us": 130208018,
      "is_ai": false,
      "track_id": 0,
      "velocity": 0,
      "is_motor": true,
      "motor_id": 2,
      "accel_val": 2000,
      "base_duration_us": 1034473
    },
    {
      "id": "M_1385",
      "pitch": 50,
      "t_note_us": 130343981,
      "t_trigger_us": 130208018,
      "is_ai": false,
      "track_id": 0,
      "velocity": 0,
      "is_motor": true,
      "motor_id": 3,
      "accel_val": 2000,
      "base_duration_us": 1034473
    },
    {
      "id": "M_1386",
      "pitch": 63,
      "t_note_us": 130343981,
      "t_trigger_us": 130208018,
      "is_ai": false,
      "track_id": 0,
      "velocity": 0,
      "is_motor": true,
      "motor_id": 0,
      "accel_val": 2000,
      "base_duration_us": 1034473
    },
    {
      "id": "M_1395",
      "pitch": 43,
      "t_note_us": 130343981,
      "t_trigger_us": 130208018,
      "is_ai": false,
      "track_id": 0,
      "velocity": 0,
      "is_motor": true,
      "motor_id": 0,
      "accel_val": 2000,
      "base_duration_us": 1810327
    },
    {
      "id": "M_1402",
      "pitch": 67,
      "t_note_us": 130343981,
      "t_trigger_us": 130208018,
      "is_ai": false,
      "track_id": 0,
      "velocity": 0,
      "is_motor": true,
      "motor_id": 0,
      "accel_val": 2000,
      "base_duration_us": 2068944
    },
    {
      "id": "M_1403",
      "pitch": 55,
      "t_note_us": 130343981,
      "t_trigger_us": 130208018,
      "is_ai": false,
      "track_id": 0,
      "velocity": 0,
      "is_motor": true,
      "motor_id": 0,
      "accel_val": 2000,
      "base_duration_us": 2068944
    },
    {
      "id": "M_1404",
      "pitch": 74,
      "t_note_us": 130343981,
      "t_trigger_us": 130208018,
      "is_ai": false,
      "track_id": 0,
      "velocity": 0,
      "is_motor": true,
      "motor_id": 0,
      "accel_val": 2000,
      "base_duration_us": 2068944
    },
    {
      "id": "M_1375",
      "pitch": 62,
      "t_note_us": 130602599,
      "t_trigger_us": 130466636,
      "is_ai": false,
      "track_id": 0,
      "velocity": 0,
      "is_motor": true,
      "motor_id": 1,
      "accel_val": 2000,
      "base_duration_us": 258618
    },
    {
      "id": "M_1376",
      "pitch": 71,
      "t_note_us": 130602599,
      "t_trigger_us": 130466636,
      "is_ai": false,
      "track_id": 0,
      "velocity": 0,
      "is_motor": true,
      "motor_id": 0,
      "accel_val": 2000,
      "base_duration_us": 258618
    },
    {
      "id": "M_1377",
      "pitch": 86,
      "t_note_us": 130861217,
      "t_trigger_us": 130725254,
      "is_ai": true,
      "track_id": 4,
      "velocity": 0,
      "is_motor": false,
      "motor_id": 0,
      "accel_val": 2000,
      "base_duration_us": 258617
    },
    {
      "id": "M_1379",
      "pitch": 86,
      "t_note_us": 130861217,
      "t_trigger_us": 130725254,
      "is_ai": true,
      "track_id": 4,
      "velocity": 0,
      "is_motor": false,
      "motor_id": 0,
      "accel_val": 2000,
      "base_duration_us": 258617
    },
    {
      "id": "M_1378",
      "pitch": 67,
      "t_note_us": 130861217,
      "t_trigger_us": 130725254,
      "is_ai": false,
      "track_id": 0,
      "velocity": 0,
      "is_motor": true,
      "motor_id": 1,
      "accel_val": 2000,
      "base_duration_us": 258617
    },
    {
      "id": "M_1384",
      "pitch": 56,
      "t_note_us": 130861217,
      "t_trigger_us": 130725254,
      "is_ai": false,
      "track_id": 0,
      "velocity": 0,
      "is_motor": true,
      "motor_id": 0,
      "accel_val": 2000,
      "base_duration_us": 517237
    },
    {
      "id": "M_1388",
      "pitch": 91,
      "t_note_us": 131119834,
      "t_trigger_us": 130983871,
      "is_ai": true,
      "track_id": 7,
      "velocity": 0,
      "is_motor": false,
      "motor_id": 0,
      "accel_val": 2000,
      "base_duration_us": 775856
    },
    {
      "id": "M_1381",
      "pitch": 71,
      "t_note_us": 131119834,
      "t_trigger_us": 130983871,
      "is_ai": false,
      "track_id": 0,
      "velocity": 0,
      "is_motor": true,
      "motor_id": 1,
      "accel_val": 2000,
      "base_duration_us": 258620
    },
    {
      "id": "M_1383",
      "pitch": 71,
      "t_note_us": 131119834,
      "t_trigger_us": 130983871,
      "is_ai": false,
      "track_id": 0,
      "velocity": 0,
      "is_motor": true,
      "motor_id": 0,
      "accel_val": 2000,
      "base_duration_us": 258620
    },
    {
      "id": "M_1387",
      "pitch": 79,
      "t_note_us": 131378454,
      "t_trigger_us": 131242491,
      "is_ai": true,
      "track_id": 0,
      "velocity": 0,
      "is_motor": false,
      "motor_id": 0,
      "accel_val": 2000,
      "base_duration_us": 258619
    },
    {
      "id": "M_1392",
      "pitch": 56,
      "t_note_us": 131378454,
      "t_trigger_us": 131242491,
      "is_ai": false,
      "track_id": 0,
      "velocity": 0,
      "is_motor": true,
      "motor_id": 0,
      "accel_val": 2000,
      "base_duration_us": 517236
    },
    {
      "id": "M_1398",
      "pitch": 52,
      "t_note_us": 131378454,
      "t_trigger_us": 131242491,
      "is_ai": false,
      "track_id": 0,
      "velocity": 0,
      "is_motor": true,
      "motor_id": 1,
      "accel_val": 2000,
      "base_duration_us": 775854
    },
    {
      "id": "M_1389",
      "pitch": 86,
      "t_note_us": 131637073,
      "t_trigger_us": 131501110,
      "is_ai": true,
      "track_id": 4,
      "velocity": 0,
      "is_motor": false,
      "motor_id": 0,
      "accel_val": 2000,
      "base_duration_us": 258617
    },
    {
      "id": "M_1391",
      "pitch": 71,
      "t_note_us": 131637073,
      "t_trigger_us": 131501110,
      "is_ai": false,
      "track_id": 0,
      "velocity": 0,
      "is_motor": true,
      "motor_id": 2,
      "accel_val": 2000,
      "base_duration_us": 258617
    },
    {
      "id": "M_1393",
      "pitch": 93,
      "t_note_us": 131895690,
      "t_trigger_us": 131759727,
      "is_ai": true,
      "track_id": 8,
      "velocity": 0,
      "is_motor": false,
      "motor_id": 0,
      "accel_val": 2000,
      "base_duration_us": 258618
    },
    {
      "id": "M_1396",
      "pitch": 93,
      "t_note_us": 131895690,
      "t_trigger_us": 131759727,
      "is_ai": true,
      "track_id": 8,
      "velocity": 0,
      "is_motor": false,
      "motor_id": 0,
      "accel_val": 2000,
      "base_duration_us": 258618
    },
    {
      "id": "M_1397",
      "pitch": 86,
      "t_note_us": 131895690,
      "t_trigger_us": 131759727,
      "is_ai": true,
      "track_id": 4,
      "velocity": 0,
      "is_motor": false,
      "motor_id": 0,
      "accel_val": 2000,
      "base_duration_us": 258618
    },
    {
      "id": "M_1394",
      "pitch": 71,
      "t_note_us": 131895690,
      "t_trigger_us": 131759727,
      "is_ai": false,
      "track_id": 0,
      "velocity": 0,
      "is_motor": true,
      "motor_id": 2,
      "accel_val": 2000,
      "base_duration_us": 258618
    },
    {
      "id": "M_1408",
      "pitch": 56,
      "t_note_us": 131895690,
      "t_trigger_us": 131759727,
      "is_ai": false,
      "track_id": 0,
      "velocity": 0,
      "is_motor": true,
      "motor_id": 0,
      "accel_val": 2000,
      "base_duration_us": 517235
    },
    {
      "id": "M_1411",
      "pitch": 95,
      "t_note_us": 132154308,
      "t_trigger_us": 132018345,
      "is_ai": true,
      "track_id": 9,
      "velocity": 0,
      "is_motor": false,
      "motor_id": 0,
      "accel_val": 2000,
      "base_duration_us": 775854
    },
    {
      "id": "M_1421",
      "pitch": 95,
      "t_note_us": 132154308,
      "t_trigger_us": 132018345,
      "is_ai": true,
      "track_id": 9,
      "velocity": 0,
      "is_motor": false,
      "motor_id": 0,
      "accel_val": 2000,
      "base_duration_us": 1293091
    },
    {
      "id": "M_1399",
      "pitch": 67,
      "t_note_us": 132154308,
      "t_trigger_us": 132018345,
      "is_ai": false,
      "track_id": 0,
      "velocity": 0,
      "is_motor": true,
      "motor_id": 1,
      "accel_val": 2000,
      "base_duration_us": 258617
    },
    {
      "id": "M_1400",
      "pitch": 47,
      "t_note_us": 132154308,
      "t_trigger_us": 132018345,
      "is_ai": false,
      "track_id": 0,
      "velocity": 0,
      "is_motor": true,
      "motor_id": 2,
      "accel_val": 2000,
      "base_duration_us": 258617
    },
    {
      "id": "M_1401",
      "pitch": 71,
      "t_note_us": 132154308,
      "t_trigger_us": 132018345,
      "is_ai": false,
      "track_id": 0,
      "velocity": 0,
      "is_motor": true,
      "motor_id": 3,
      "accel_val": 2000,
      "base_duration_us": 258617
    },
    {
      "id": "M_1407",
      "pitch": 50,
      "t_note_us": 132154308,
      "t_trigger_us": 132018345,
      "is_ai": false,
      "track_id": 0,
      "velocity": 0,
      "is_motor": true,
      "motor_id": 0,
      "accel_val": 2000,
      "base_duration_us": 258617
    },
    {
      "id": "M_1419",
      "pitch": 79,
      "t_note_us": 132412925,
      "t_trigger_us": 132276962,
      "is_ai": true,
      "track_id": 0,
      "velocity": 0,
      "is_motor": false,
      "motor_id": 0,
      "accel_val": 2000,
      "base_duration_us": 1034474
    },
    {
      "id": "M_1442",
      "pitch": 79,
      "t_note_us": 132412925,
      "t_trigger_us": 132276962,
      "is_ai": true,
      "track_id": 0,
      "velocity": 0,
      "is_motor": false,
      "motor_id": 0,
      "accel_val": 2000,
      "base_duration_us": 2068927
    },
    {
      "id": "M_1444",
      "pitch": 84,
      "t_note_us": 132412925,
      "t_trigger_us": 132276962,
      "is_ai": true,
      "track_id": 3,
      "velocity": 0,
      "is_motor": false,
      "motor_id": 0,
      "accel_val": 2000,
      "base_duration_us": 2068927
    },
    {
      "id": "M_1445",
      "pitch": 88,
      "t_note_us": 132412925,
      "t_trigger_us": 132276962,
      "is_ai": true,
      "track_id": 5,
      "velocity": 0,
      "is_motor": false,
      "motor_id": 0,
      "accel_val": 2000,
      "base_duration_us": 2068927
    },
    {
      "id": "M_1409",
      "pitch": 60,
      "t_note_us": 132412925,
      "t_trigger_us": 132276962,
      "is_ai": false,
      "track_id": 0,
      "velocity": 0,
      "is_motor": true,
      "motor_id": 1,
      "accel_val": 2000,
      "base_duration_us": 258619
    },
    {
      "id": "M_1410",
      "pitch": 60,
      "t_note_us": 132412925,
      "t_trigger_us": 132276962,
      "is_ai": false,
      "track_id": 0,
      "velocity": 0,
      "is_motor": true,
      "motor_id": 0,
      "accel_val": 2000,
      "base_duration_us": 258619
    },
    {
      "id": "M_1414",
      "pitch": 56,
      "t_note_us": 132412925,
      "t_trigger_us": 132276962,
      "is_ai": false,
      "track_id": 0,
      "velocity": 0,
      "is_motor": true,
      "motor_id": 2,
      "accel_val": 2000,
      "base_duration_us": 517237
    },
    {
      "id": "M_1418",
      "pitch": 71,
      "t_note_us": 132412925,
      "t_trigger_us": 132276962,
      "is_ai": false,
      "track_id": 0,
      "velocity": 0,
      "is_motor": true,
      "motor_id": 3,
      "accel_val": 2000,
      "base_duration_us": 1034474
    },
    {
      "id": "M_1424",
      "pitch": 50,
      "t_note_us": 132412925,
      "t_trigger_us": 132276962,
      "is_ai": false,
      "track_id": 0,
      "velocity": 0,
      "is_motor": true,
      "motor_id": 0,
      "accel_val": 2000,
      "base_duration_us": 1034474
    },
    {
      "id": "M_1433",
      "pitch": 48,
      "t_note_us": 132412925,
      "t_trigger_us": 132276962,
      "is_ai": false,
      "track_id": 0,
      "velocity": 0,
      "is_motor": true,
      "motor_id": 0,
      "accel_val": 2000,
      "base_duration_us": 1810316
    },
    {
      "id": "M_1440",
      "pitch": 72,
      "t_note_us": 132412925,
      "t_trigger_us": 132276962,
      "is_ai": false,
      "track_id": 0,
      "velocity": 0,
      "is_motor": true,
      "motor_id": 0,
      "accel_val": 2000,
      "base_duration_us": 2068927
    },
    {
      "id": "M_1441",
      "pitch": 60,
      "t_note_us": 132412925,
      "t_trigger_us": 132276962,
      "is_ai": false,
      "track_id": 0,
      "velocity": 0,
      "is_motor": true,
      "motor_id": 0,
      "accel_val": 2000,
      "base_duration_us": 2068927
    },
    {
      "id": "M_1443",
      "pitch": 71,
      "t_note_us": 132412925,
      "t_trigger_us": 132276962,
      "is_ai": false,
      "track_id": 0,
      "velocity": 0,
      "is_motor": true,
      "motor_id": 0,
      "accel_val": 2000,
      "base_duration_us": 2068927
    },
    {
      "id": "M_1412",
      "pitch": 67,
      "t_note_us": 132671544,
      "t_trigger_us": 132535581,
      "is_ai": false,
      "track_id": 0,
      "velocity": 0,
      "is_motor": true,
      "motor_id": 1,
      "accel_val": 2000,
      "base_duration_us": 258618
    },
    {
      "id": "M_1413",
      "pitch": 67,
      "t_note_us": 132671544,
      "t_trigger_us": 132535581,
      "is_ai": false,
      "track_id": 0,
      "velocity": 0,
      "is_motor": true,
      "motor_id": 0,
      "accel_val": 2000,
      "base_duration_us": 258618
    },
    {
      "id": "M_1415",
      "pitch": 86,
      "t_note_us": 132930162,
      "t_trigger_us": 132794199,
      "is_ai": true,
      "track_id": 4,
      "velocity": 0,
      "is_motor": false,
      "motor_id": 0,
      "accel_val": 2000,
      "base_duration_us": 258619
    },
    {
      "id": "M_1416",
      "pitch": 72,
      "t_note_us": 132930162,
      "t_trigger_us": 132794199,
      "is_ai": false,
      "track_id": 0,
      "velocity": 0,
      "is_motor": true,
      "motor_id": 1,
      "accel_val": 2000,
      "base_duration_us": 258619
    },
    {
      "id": "M_1417",
      "pitch": 72,
      "t_note_us": 132930162,
      "t_trigger_us": 132794199,
      "is_ai": false,
      "track_id": 0,
      "velocity": 0,
      "is_motor": true,
      "motor_id": 0,
      "accel_val": 2000,
      "base_duration_us": 258619
    },
    {
      "id": "M_1423",
      "pitch": 56,
      "t_note_us": 132930162,
      "t_trigger_us": 132794199,
      "is_ai": false,
      "track_id": 0,
      "velocity": 0,
      "is_motor": true,
      "motor_id": 2,
      "accel_val": 2000,
      "base_duration_us": 517237
    },
    {
      "id": "M_1420",
      "pitch": 88,
      "t_note_us": 133188781,
      "t_trigger_us": 133052818,
      "is_ai": true,
      "track_id": 5,
      "velocity": 0,
      "is_motor": false,
      "motor_id": 0,
      "accel_val": 2000,
      "base_duration_us": 258618
    },
    {
      "id": "M_1425",
      "pitch": 88,
      "t_note_us": 133188781,
      "t_trigger_us": 133052818,
      "is_ai": true,
      "track_id": 5,
      "velocity": 0,
      "is_motor": false,
      "motor_id": 0,
      "accel_val": 2000,
      "base_duration_us": 517235
    },
    {
      "id": "M_1422",
      "pitch": 67,
      "t_note_us": 133188781,
      "t_trigger_us": 133052818,
      "is_ai": false,
      "track_id": 0,
      "velocity": 0,
      "is_motor": true,
      "motor_id": 1,
      "accel_val": 2000,
      "base_duration_us": 258618
    },
    {
      "id": "M_1426",
      "pitch": 88,
      "t_note_us": 133447399,
      "t_trigger_us": 133311436,
      "is_ai": true,
      "track_id": 5,
      "velocity": 0,
      "is_motor": false,
      "motor_id": 0,
      "accel_val": 2000,
      "base_duration_us": 258617
    },
    {
      "id": "M_1438",
      "pitch": 100,
      "t_note_us": 133447399,
      "t_trigger_us": 133311436,
      "is_ai": true,
      "track_id": 12,
      "velocity": 0,
      "is_motor": false,
      "motor_id": 0,
      "accel_val": 2000,
      "base_duration_us": 1034453
    },
    {
      "id": "M_1430",
      "pitch": 56,
      "t_note_us": 133447399,
      "t_trigger_us": 133311436,
      "is_ai": false,
      "track_id": 0,
      "velocity": 0,
      "is_motor": true,
      "motor_id": 0,
      "accel_val": 2000,
      "base_duration_us": 517233
    },
    {
      "id": "M_1435",
      "pitch": 52,
      "t_note_us": 133447399,
      "t_trigger_us": 133311436,
      "is_ai": false,
      "track_id": 0,
      "velocity": 0,
      "is_motor": true,
      "motor_id": 1,
      "accel_val": 2000,
      "base_duration_us": 775842
    },
    {
      "id": "M_1427",
      "pitch": 88,
      "t_note_us": 133706016,
      "t_trigger_us": 133570053,
      "is_ai": true,
      "track_id": 5,
      "velocity": 0,
      "is_motor": false,
      "motor_id": 0,
      "accel_val": 2000,
      "base_duration_us": 258616
    },
    {
      "id": "M_1428",
      "pitch": 79,
      "t_note_us": 133706016,
      "t_trigger_us": 133570053,
      "is_ai": true,
      "track_id": 0,
      "velocity": 0,
      "is_motor": false,
      "motor_id": 0,
      "accel_val": 2000,
      "base_duration_us": 258616
    },
    {
      "id": "M_1429",
      "pitch": 67,
      "t_note_us": 133706016,
      "t_trigger_us": 133570053,
      "is_ai": false,
      "track_id": 0,
      "velocity": 0,
      "is_motor": true,
      "motor_id": 2,
      "accel_val": 2000,
      "base_duration_us": 258616
    },
    {
      "id": "M_1431",
      "pitch": 91,
      "t_note_us": 133964632,
      "t_trigger_us": 133828669,
      "is_ai": true,
      "track_id": 7,
      "velocity": 0,
      "is_motor": false,
      "motor_id": 0,
      "accel_val": 2000,
      "base_duration_us": 258609
    },
    {
      "id": "M_1432",
      "pitch": 88,
      "t_note_us": 133964632,
      "t_trigger_us": 133828669,
      "is_ai": true,
      "track_id": 5,
      "velocity": 0,
      "is_motor": false,
      "motor_id": 0,
      "accel_val": 2000,
      "base_duration_us": 258609
    },
    {
      "id": "M_1434",
      "pitch": 72,
      "t_note_us": 133964632,
      "t_trigger_us": 133828669,
      "is_ai": false,
      "track_id": 0,
      "velocity": 0,
      "is_motor": true,
      "motor_id": 0,
      "accel_val": 2000,
      "base_duration_us": 258609
    },
    {
      "id": "M_1448",
      "pitch": 56,
      "t_note_us": 133964632,
      "t_trigger_us": 133828669,
      "is_ai": false,
      "track_id": 0,
      "velocity": 0,
      "is_motor": true,
      "motor_id": 2,
      "accel_val": 2000,
      "base_duration_us": 517220
    },
    {
      "id": "M_1436",
      "pitch": 84,
      "t_note_us": 134223241,
      "t_trigger_us": 134087278,
      "is_ai": true,
      "track_id": 3,
      "velocity": 0,
      "is_motor": false,
      "motor_id": 0,
      "accel_val": 2000,
      "base_duration_us": 258611
    },
    {
      "id": "M_1451",
      "pitch": 90,
      "t_note_us": 134223241,
      "t_trigger_us": 134087278,
      "is_ai": true,
      "track_id": 0,
      "velocity": 0,
      "is_motor": true,
      "motor_id": 3,
      "accel_val": 2000,
      "base_duration_us": 775847
    },
    {
      "id": "M_1437",
      "pitch": 48,
      "t_note_us": 134223241,
      "t_trigger_us": 134087278,
      "is_ai": false,
      "track_id": 0,
      "velocity": 0,
      "is_motor": true,
      "motor_id": 0,
      "accel_val": 2000,
      "base_duration_us": 258611
    },
    {
      "id": "M_1439",
      "pitch": 67,
      "t_note_us": 134223241,
      "t_trigger_us": 134087278,
      "is_ai": false,
      "track_id": 0,
      "velocity": 0,
      "is_motor": true,
      "motor_id": 1,
      "accel_val": 2000,
      "base_duration_us": 258611
    },
    {
      "id": "M_1447",
      "pitch": 50,
      "t_note_us": 134223241,
      "t_trigger_us": 134087278,
      "is_ai": false,
      "track_id": 0,
      "velocity": 0,
      "is_motor": true,
      "motor_id": 0,
      "accel_val": 2000,
      "base_duration_us": 258611
    },
    {
      "id": "M_1460",
      "pitch": 90,
      "t_note_us": 134481852,
      "t_trigger_us": 134345889,
      "is_ai": true,
      "track_id": 0,
      "velocity": 0,
      "is_motor": true,
      "motor_id": 2,
      "accel_val": 2000,
      "base_duration_us": 1034472
    },
    {
      "id": "M_1468",
      "pitch": 98,
      "t_note_us": 134481852,
      "t_trigger_us": 134345889,
      "is_ai": true,
      "track_id": 11,
      "velocity": 0,
      "is_motor": false,
      "motor_id": 0,
      "accel_val": 2000,
      "base_duration_us": 1551708
    },
    {
      "id": "M_1482",
      "pitch": 81,
      "t_note_us": 134481852,
      "t_trigger_us": 134345889,
      "is_ai": true,
      "track_id": 1,
      "velocity": 0,
      "is_motor": false,
      "motor_id": 0,
      "accel_val": 2000,
      "base_duration_us": 2068943
    },
    {
      "id": "M_1449",
      "pitch": 50,
      "t_note_us": 134481852,
      "t_trigger_us": 134345889,
      "is_ai": false,
      "track_id": 0,
      "velocity": 0,
      "is_motor": true,
      "motor_id": 0,
      "accel_val": 2000,
      "base_duration_us": 258618
    },
    {
      "id": "M_1450",
      "pitch": 62,
      "t_note_us": 134481852,
      "t_trigger_us": 134345889,
      "is_ai": false,
      "track_id": 0,
      "velocity": 0,
      "is_motor": true,
      "motor_id": 1,
      "accel_val": 2000,
      "base_duration_us": 258618
    },
    {
      "id": "M_1454",
      "pitch": 56,
      "t_note_us": 134481852,
      "t_trigger_us": 134345889,
      "is_ai": false,
      "track_id": 0,
      "velocity": 0,
      "is_motor": true,
      "motor_id": 0,
      "accel_val": 2000,
      "base_duration_us": 517236
    },
    {
      "id": "M_1458",
      "pitch": 69,
      "t_note_us": 134481852,
      "t_trigger_us": 134345889,
      "is_ai": false,
      "track_id": 0,
      "velocity": 0,
      "is_motor": true,
      "motor_id": 0,
      "accel_val": 2000,
      "base_duration_us": 1034472
    },
    {
      "id": "M_1459",
      "pitch": 74,
      "t_note_us": 134481852,
      "t_trigger_us": 134345889,
      "is_ai": false,
      "track_id": 0,
      "velocity": 0,
      "is_motor": true,
      "motor_id": 0,
      "accel_val": 2000,
      "base_duration_us": 1034472
    },
    {
      "id": "M_1463",
      "pitch": 50,
      "t_note_us": 134481852,
      "t_trigger_us": 134345889,
      "is_ai": false,
      "track_id": 0,
      "velocity": 0,
      "is_motor": true,
      "motor_id": 0,
      "accel_val": 2000,
      "base_duration_us": 1034472
    },
    {
      "id": "M_1473",
      "pitch": 50,
      "t_note_us": 134481852,
      "t_trigger_us": 134345889,
      "is_ai": false,
      "track_id": 0,
      "velocity": 0,
      "is_motor": true,
      "motor_id": 0,
      "accel_val": 2000,
      "base_duration_us": 1810326
    },
    {
      "id": "M_1480",
      "pitch": 62,
      "t_note_us": 134481852,
      "t_trigger_us": 134345889,
      "is_ai": false,
      "track_id": 0,
      "velocity": 0,
      "is_motor": true,
      "motor_id": 0,
      "accel_val": 2000,
      "base_duration_us": 2068943
    },
    {
      "id": "M_1481",
      "pitch": 74,
      "t_note_us": 134481852,
      "t_trigger_us": 134345889,
      "is_ai": false,
      "track_id": 0,
      "velocity": 0,
      "is_motor": true,
      "motor_id": 0,
      "accel_val": 2000,
      "base_duration_us": 2068943
    },
    {
      "id": "M_1483",
      "pitch": 74,
      "t_note_us": 134481852,
      "t_trigger_us": 134345889,
      "is_ai": false,
      "track_id": 0,
      "velocity": 0,
      "is_motor": true,
      "motor_id": 0,
      "accel_val": 2000,
      "base_duration_us": 2068943
    },
    {
      "id": "M_1484",
      "pitch": 78,
      "t_note_us": 134481852,
      "t_trigger_us": 134345889,
      "is_ai": false,
      "track_id": 0,
      "velocity": 0,
      "is_motor": true,
      "motor_id": 0,
      "accel_val": 2000,
      "base_duration_us": 2068943
    },
    {
      "id": "M_1452",
      "pitch": 57,
      "t_note_us": 134740470,
      "t_trigger_us": 134604507,
      "is_ai": false,
      "track_id": 0,
      "velocity": 0,
      "is_motor": true,
      "motor_id": 0,
      "accel_val": 2000,
      "base_duration_us": 258618
    },
    {
      "id": "M_1453",
      "pitch": 69,
      "t_note_us": 134740470,
      "t_trigger_us": 134604507,
      "is_ai": false,
      "track_id": 0,
      "velocity": 0,
      "is_motor": true,
      "motor_id": 1,
      "accel_val": 2000,
      "base_duration_us": 258618
    },
    {
      "id": "M_1455",
      "pitch": 88,
      "t_note_us": 134999088,
      "t_trigger_us": 134863125,
      "is_ai": true,
      "track_id": 5,
      "velocity": 0,
      "is_motor": false,
      "motor_id": 0,
      "accel_val": 2000,
      "base_duration_us": 258618
    },
    {
      "id": "M_1457",
      "pitch": 86,
      "t_note_us": 134999088,
      "t_trigger_us": 134863125,
      "is_ai": true,
      "track_id": 4,
      "velocity": 0,
      "is_motor": false,
      "motor_id": 0,
      "accel_val": 2000,
      "base_duration_us": 258618
    },
    {
      "id": "M_1456",
      "pitch": 62,
      "t_note_us": 134999088,
      "t_trigger_us": 134863125,
      "is_ai": false,
      "track_id": 0,
      "velocity": 0,
      "is_motor": true,
      "motor_id": 1,
      "accel_val": 2000,
      "base_duration_us": 258618
    },
    {
      "id": "M_1462",
      "pitch": 56,
      "t_note_us": 134999088,
      "t_trigger_us": 134863125,
      "is_ai": false,
      "track_id": 0,
      "velocity": 0,
      "is_motor": true,
      "motor_id": 0,
      "accel_val": 2000,
      "base_duration_us": 517236
    },
    {
      "id": "M_1464",
      "pitch": 86,
      "t_note_us": 135257706,
      "t_trigger_us": 135121743,
      "is_ai": true,
      "track_id": 4,
      "velocity": 0,
      "is_motor": false,
      "motor_id": 0,
      "accel_val": 2000,
      "base_duration_us": 517236
    },
    {
      "id": "M_1461",
      "pitch": 69,
      "t_note_us": 135257706,
      "t_trigger_us": 135121743,
      "is_ai": false,
      "track_id": 0,
      "velocity": 0,
      "is_motor": true,
      "motor_id": 1,
      "accel_val": 2000,
      "base_duration_us": 258618
    },
    {
      "id": "M_1465",
      "pitch": 66,
      "t_note_us": 135257706,
      "t_trigger_us": 135121743,
      "is_ai": false,
      "track_id": 0,
      "velocity": 0,
      "is_motor": true,
      "motor_id": 3,
      "accel_val": 2000,
      "base_duration_us": 517236
    },
    {
      "id": "M_1466",
      "pitch": 90,
      "t_note_us": 135516324,
      "t_trigger_us": 135380361,
      "is_ai": true,
      "track_id": 0,
      "velocity": 0,
      "is_motor": true,
      "motor_id": 2,
      "accel_val": 2000,
      "base_duration_us": 258618
    },
    {
      "id": "M_1470",
      "pitch": 56,
      "t_note_us": 135516324,
      "t_trigger_us": 135380361,
      "is_ai": false,
      "track_id": 0,
      "velocity": 0,
      "is_motor": true,
      "motor_id": 0,
      "accel_val": 2000,
      "base_duration_us": 517236
    },
    {
      "id": "M_1476",
      "pitch": 52,
      "t_note_us": 135516324,
      "t_trigger_us": 135380361,
      "is_ai": false,
      "track_id": 0,
      "velocity": 0,
      "is_motor": true,
      "motor_id": 1,
      "accel_val": 2000,
      "base_duration_us": 775854
    },
    {
      "id": "M_1471",
      "pitch": 96,
      "t_note_us": 135774942,
      "t_trigger_us": 135638979,
      "is_ai": true,
      "track_id": 10,
      "velocity": 0,
      "is_motor": false,
      "motor_id": 0,
      "accel_val": 2000,
      "base_duration_us": 517236
    },
    {
      "id": "M_1467",
      "pitch": 69,
      "t_note_us": 135774942,
      "t_trigger_us": 135638979,
      "is_ai": false,
      "track_id": 0,
      "velocity": 0,
      "is_motor": true,
      "motor_id": 2,
      "accel_val": 2000,
      "base_duration_us": 258618
    },
    {
      "id": "M_1469",
      "pitch": 69,
      "t_note_us": 135774942,
      "t_trigger_us": 135638979,
      "is_ai": false,
      "track_id": 0,
      "velocity": 0,
      "is_motor": true,
      "motor_id": 3,
      "accel_val": 2000,
      "base_duration_us": 258618
    },
    {
      "id": "M_1474",
      "pitch": 96,
      "t_note_us": 136033560,
      "t_trigger_us": 135897597,
      "is_ai": true,
      "track_id": 10,
      "velocity": 0,
      "is_motor": false,
      "motor_id": 0,
      "accel_val": 2000,
      "base_duration_us": 258618
    },
    {
      "id": "M_1475",
      "pitch": 86,
      "t_note_us": 136033560,
      "t_trigger_us": 135897597,
      "is_ai": true,
      "track_id": 4,
      "velocity": 0,
      "is_motor": false,
      "motor_id": 0,
      "accel_val": 2000,
      "base_duration_us": 258618
    },
    {
      "id": "M_1472",
      "pitch": 66,
      "t_note_us": 136033560,
      "t_trigger_us": 135897597,
      "is_ai": false,
      "track_id": 0,
      "velocity": 0,
      "is_motor": true,
      "motor_id": 2,
      "accel_val": 2000,
      "base_duration_us": 258618
    },
    {
      "id": "M_1486",
      "pitch": 56,
      "t_note_us": 136033560,
      "t_trigger_us": 135897597,
      "is_ai": false,
      "track_id": 0,
      "velocity": 0,
      "is_motor": true,
      "motor_id": 0,
      "accel_val": 2000,
      "base_duration_us": 517235
    },
    {
      "id": "M_1494",
      "pitch": 95,
      "t_note_us": 136292178,
      "t_trigger_us": 136156215,
      "is_ai": true,
      "track_id": 9,
      "velocity": 0,
      "is_motor": false,
      "motor_id": 0,
      "accel_val": 2000,
      "base_duration_us": 1293091
    },
    {
      "id": "M_1513",
      "pitch": 95,
      "t_note_us": 136292178,
      "t_trigger_us": 136156215,
      "is_ai": true,
      "track_id": 9,
      "velocity": 0,
      "is_motor": false,
      "motor_id": 0,
      "accel_val": 2000,
      "base_duration_us": 2327565
    },
    {
      "id": "M_1477",
      "pitch": 62,
      "t_note_us": 136292178,
      "t_trigger_us": 136156215,
      "is_ai": false,
      "track_id": 0,
      "velocity": 0,
      "is_motor": true,
      "motor_id": 1,
      "accel_val": 2000,
      "base_duration_us": 258617
    },
    {
      "id": "M_1478",
      "pitch": 54,
      "t_note_us": 136292178,
      "t_trigger_us": 136156215,
      "is_ai": false,
      "track_id": 0,
      "velocity": 0,
      "is_motor": true,
      "motor_id": 2,
      "accel_val": 2000,
      "base_duration_us": 258617
    },
    {
      "id": "M_1479",
      "pitch": 69,
      "t_note_us": 136292178,
      "t_trigger_us": 136156215,
      "is_ai": false,
      "track_id": 0,
      "velocity": 0,
      "is_motor": true,
      "motor_id": 3,
      "accel_val": 2000,
      "base_duration_us": 258617
    },
    {
      "id": "M_1485",
      "pitch": 50,
      "t_note_us": 136292178,
      "t_trigger_us": 136156215,
      "is_ai": false,
      "track_id": 0,
      "velocity": 0,
      "is_motor": true,
      "motor_id": 0,
      "accel_val": 2000,
      "base_duration_us": 258617
    },
    {
      "id": "M_1495",
      "pitch": 79,
      "t_note_us": 136550795,
      "t_trigger_us": 136414832,
      "is_ai": true,
      "track_id": 0,
      "velocity": 0,
      "is_motor": false,
      "motor_id": 0,
      "accel_val": 2000,
      "base_duration_us": 1034474
    },
    {
      "id": "M_1518",
      "pitch": 83,
      "t_note_us": 136550795,
      "t_trigger_us": 136414832,
      "is_ai": true,
      "track_id": 2,
      "velocity": 0,
      "is_motor": false,
      "motor_id": 0,
      "accel_val": 2000,
      "base_duration_us": 2068948
    },
    {
      "id": "M_1519",
      "pitch": 79,
      "t_note_us": 136550795,
      "t_trigger_us": 136414832,
      "is_ai": true,
      "track_id": 0,
      "velocity": 0,
      "is_motor": false,
      "motor_id": 0,
      "accel_val": 2000,
      "base_duration_us": 2068948
    },
    {
      "id": "M_1487",
      "pitch": 55,
      "t_note_us": 136550795,
      "t_trigger_us": 136414832,
      "is_ai": false,
      "track_id": 0,
      "velocity": 0,
      "is_motor": true,
      "motor_id": 0,
      "accel_val": 2000,
      "base_duration_us": 258618
    },
    {
      "id": "M_1488",
      "pitch": 67,
      "t_note_us": 136550795,
      "t_trigger_us": 136414832,
      "is_ai": false,
      "track_id": 0,
      "velocity": 0,
      "is_motor": true,
      "motor_id": 1,
      "accel_val": 2000,
      "base_duration_us": 258618
    },
    {
      "id": "M_1491",
      "pitch": 56,
      "t_note_us": 136550795,
      "t_trigger_us": 136414832,
      "is_ai": false,
      "track_id": 0,
      "velocity": 0,
      "is_motor": true,
      "motor_id": 2,
      "accel_val": 2000,
      "base_duration_us": 517236
    },
    {
      "id": "M_1497",
      "pitch": 74,
      "t_note_us": 136550795,
      "t_trigger_us": 136414832,
      "is_ai": false,
      "track_id": 0,
      "velocity": 0,
      "is_motor": true,
      "motor_id": 3,
      "accel_val": 2000,
      "base_duration_us": 1034474
    },
    {
      "id": "M_1500",
      "pitch": 50,
      "t_note_us": 136550795,
      "t_trigger_us": 136414832,
      "is_ai": false,
      "track_id": 0,
      "velocity": 0,
      "is_motor": true,
      "motor_id": 0,
      "accel_val": 2000,
      "base_duration_us": 1034474
    },
    {
      "id": "M_1508",
      "pitch": 55,
      "t_note_us": 136550795,
      "t_trigger_us": 136414832,
      "is_ai": false,
      "track_id": 0,
      "velocity": 0,
      "is_motor": true,
      "motor_id": 0,
      "accel_val": 2000,
      "base_duration_us": 1810330
    },
    {
      "id": "M_1515",
      "pitch": 67,
      "t_note_us": 136550795,
      "t_trigger_us": 136414832,
      "is_ai": false,
      "track_id": 0,
      "velocity": 0,
      "is_motor": true,
      "motor_id": 0,
      "accel_val": 2000,
      "base_duration_us": 2068948
    },
    {
      "id": "M_1516",
      "pitch": 55,
      "t_note_us": 136550795,
      "t_trigger_us": 136414832,
      "is_ai": false,
      "track_id": 0,
      "velocity": 0,
      "is_motor": true,
      "motor_id": 0,
      "accel_val": 2000,
      "base_duration_us": 2068948
    },
    {
      "id": "M_1517",
      "pitch": 74,
      "t_note_us": 136550795,
      "t_trigger_us": 136414832,
      "is_ai": false,
      "track_id": 0,
      "velocity": 0,
      "is_motor": true,
      "motor_id": 0,
      "accel_val": 2000,
      "base_duration_us": 2068948
    },
    {
      "id": "M_1489",
      "pitch": 62,
      "t_note_us": 136809413,
      "t_trigger_us": 136673450,
      "is_ai": false,
      "track_id": 0,
      "velocity": 0,
      "is_motor": true,
      "motor_id": 1,
      "accel_val": 2000,
      "base_duration_us": 258618
    },
    {
      "id": "M_1490",
      "pitch": 71,
      "t_note_us": 136809413,
      "t_trigger_us": 136673450,
      "is_ai": false,
      "track_id": 0,
      "velocity": 0,
      "is_motor": true,
      "motor_id": 0,
      "accel_val": 2000,
      "base_duration_us": 258618
    },
    {
      "id": "M_1493",
      "pitch": 86,
      "t_note_us": 137068031,
      "t_trigger_us": 136932068,
      "is_ai": true,
      "track_id": 4,
      "velocity": 0,
      "is_motor": false,
      "motor_id": 0,
      "accel_val": 2000,
      "base_duration_us": 258618
    },
    {
      "id": "M_1492",
      "pitch": 67,
      "t_note_us": 137068031,
      "t_trigger_us": 136932068,
      "is_ai": false,
      "track_id": 0,
      "velocity": 0,
      "is_motor": true,
      "motor_id": 1,
      "accel_val": 2000,
      "base_duration_us": 258618
    },
    {
      "id": "M_1499",
      "pitch": 56,
      "t_note_us": 137068031,
      "t_trigger_us": 136932068,
      "is_ai": false,
      "track_id": 0,
      "velocity": 0,
      "is_motor": true,
      "motor_id": 0,
      "accel_val": 2000,
      "base_duration_us": 517238
    },
    {
      "id": "M_1496",
      "pitch": 71,
      "t_note_us": 137326649,
      "t_trigger_us": 137190686,
      "is_ai": false,
      "track_id": 0,
      "velocity": 0,
      "is_motor": true,
      "motor_id": 1,
      "accel_val": 2000,
      "base_duration_us": 258620
    },
    {
      "id": "M_1498",
      "pitch": 71,
      "t_note_us": 137326649,
      "t_trigger_us": 137190686,
      "is_ai": false,
      "track_id": 0,
      "velocity": 0,
      "is_motor": true,
      "motor_id": 2,
      "accel_val": 2000,
      "base_duration_us": 258620
    },
    {
      "id": "M_1501",
      "pitch": 79,
      "t_note_us": 137585269,
      "t_trigger_us": 137449306,
      "is_ai": true,
      "track_id": 0,
      "velocity": 0,
      "is_motor": false,
      "motor_id": 0,
      "accel_val": 2000,
      "base_duration_us": 258619
    },
    {
      "id": "M_1505",
      "pitch": 56,
      "t_note_us": 137585269,
      "t_trigger_us": 137449306,
      "is_ai": false,
      "track_id": 0,
      "velocity": 0,
      "is_motor": true,
      "motor_id": 0,
      "accel_val": 2000,
      "base_duration_us": 517237
    },
    {
      "id": "M_1510",
      "pitch": 52,
      "t_note_us": 137585269,
      "t_trigger_us": 137449306,
      "is_ai": false,
      "track_id": 0,
      "velocity": 0,
      "is_motor": true,
      "motor_id": 1,
      "accel_val": 2000,
      "base_duration_us": 775856
    },
    {
      "id": "M_1502",
      "pitch": 95,
      "t_note_us": 137843888,
      "t_trigger_us": 137707925,
      "is_ai": true,
      "track_id": 9,
      "velocity": 0,
      "is_motor": false,
      "motor_id": 0,
      "accel_val": 2000,
      "base_duration_us": 258618
    },
    {
      "id": "M_1503",
      "pitch": 86,
      "t_note_us": 137843888,
      "t_trigger_us": 137707925,
      "is_ai": true,
      "track_id": 4,
      "velocity": 0,
      "is_motor": false,
      "motor_id": 0,
      "accel_val": 2000,
      "base_duration_us": 258618
    },
    {
      "id": "M_1504",
      "pitch": 71,
      "t_note_us": 137843888,
      "t_trigger_us": 137707925,
      "is_ai": false,
      "track_id": 0,
      "velocity": 0,
      "is_motor": true,
      "motor_id": 2,
      "accel_val": 2000,
      "base_duration_us": 258618
    },
    {
      "id": "M_1506",
      "pitch": 96,
      "t_note_us": 138102506,
      "t_trigger_us": 137966543,
      "is_ai": true,
      "track_id": 10,
      "velocity": 0,
      "is_motor": false,
      "motor_id": 0,
      "accel_val": 2000,
      "base_duration_us": 258619
    },
    {
      "id": "M_1507",
      "pitch": 79,
      "t_note_us": 138102506,
      "t_trigger_us": 137966543,
      "is_ai": true,
      "track_id": 0,
      "velocity": 0,
      "is_motor": false,
      "motor_id": 0,
      "accel_val": 2000,
      "base_duration_us": 258619
    },
    {
      "id": "M_1509",
      "pitch": 86,
      "t_note_us": 138102506,
      "t_trigger_us": 137966543,
      "is_ai": true,
      "track_id": 4,
      "velocity": 0,
      "is_motor": false,
      "motor_id": 0,
      "accel_val": 2000,
      "base_duration_us": 258619
    },
    {
      "id": "M_1521",
      "pitch": 56,
      "t_note_us": 138102506,
      "t_trigger_us": 137966543,
      "is_ai": false,
      "track_id": 0,
      "velocity": 0,
      "is_motor": true,
      "motor_id": 0,
      "accel_val": 2000,
      "base_duration_us": 517237
    },
    {
      "id": "M_1511",
      "pitch": 90,
      "t_note_us": 138361125,
      "t_trigger_us": 138225162,
      "is_ai": true,
      "track_id": 0,
      "velocity": 0,
      "is_motor": true,
      "motor_id": 3,
      "accel_val": 2000,
      "base_duration_us": 258618
    },
    {
      "id": "M_1524",
      "pitch": 95,
      "t_note_us": 138361125,
      "t_trigger_us": 138225162,
      "is_ai": true,
      "track_id": 9,
      "velocity": 0,
      "is_motor": false,
      "motor_id": 0,
      "accel_val": 2000,
      "base_duration_us": 775855
    },
    {
      "id": "M_1512",
      "pitch": 54,
      "t_note_us": 138361125,
      "t_trigger_us": 138225162,
      "is_ai": false,
      "track_id": 0,
      "velocity": 0,
      "is_motor": true,
      "motor_id": 1,
      "accel_val": 2000,
      "base_duration_us": 258618
    },
    {
      "id": "M_1514",
      "pitch": 71,
      "t_note_us": 138361125,
      "t_trigger_us": 138225162,
      "is_ai": false,
      "track_id": 0,
      "velocity": 0,
      "is_motor": true,
      "motor_id": 2,
      "accel_val": 2000,
      "base_duration_us": 258618
    },
    {
      "id": "M_1520",
      "pitch": 50,
      "t_note_us": 138361125,
      "t_trigger_us": 138225162,
      "is_ai": false,
      "track_id": 0,
      "velocity": 0,
      "is_motor": true,
      "motor_id": 0,
      "accel_val": 2000,
      "base_duration_us": 258618
    },
    {
      "id": "M_1532",
      "pitch": 79,
      "t_note_us": 138619743,
      "t_trigger_us": 138483780,
      "is_ai": true,
      "track_id": 0,
      "velocity": 0,
      "is_motor": false,
      "motor_id": 0,
      "accel_val": 2000,
      "base_duration_us": 1034473
    },
    {
      "id": "M_1533",
      "pitch": 83,
      "t_note_us": 138619743,
      "t_trigger_us": 138483780,
      "is_ai": true,
      "track_id": 2,
      "velocity": 0,
      "is_motor": false,
      "motor_id": 0,
      "accel_val": 2000,
      "base_duration_us": 1034473
    },
    {
      "id": "M_1550",
      "pitch": 91,
      "t_note_us": 138619743,
      "t_trigger_us": 138483780,
      "is_ai": true,
      "track_id": 7,
      "velocity": 0,
      "is_motor": false,
      "motor_id": 0,
      "accel_val": 2000,
      "base_duration_us": 2068948
    },
    {
      "id": "M_1554",
      "pitch": 83,
      "t_note_us": 138619743,
      "t_trigger_us": 138483780,
      "is_ai": true,
      "track_id": 2,
      "velocity": 0,
      "is_motor": false,
      "motor_id": 0,
      "accel_val": 2000,
      "base_duration_us": 2068948
    },
    {
      "id": "M_1522",
      "pitch": 52,
      "t_note_us": 138619743,
      "t_trigger_us": 138483780,
      "is_ai": false,
      "track_id": 0,
      "velocity": 0,
      "is_motor": true,
      "motor_id": 0,
      "accel_val": 2000,
      "base_duration_us": 258618
    },
    {
      "id": "M_1523",
      "pitch": 64,
      "t_note_us": 138619743,
      "t_trigger_us": 138483780,
      "is_ai": false,
      "track_id": 0,
      "velocity": 0,
      "is_motor": true,
      "motor_id": 1,
      "accel_val": 2000,
      "base_duration_us": 258618
    },
    {
      "id": "M_1527",
      "pitch": 56,
      "t_note_us": 138619743,
      "t_trigger_us": 138483780,
      "is_ai": false,
      "track_id": 0,
      "velocity": 0,
      "is_motor": true,
      "motor_id": 2,
      "accel_val": 2000,
      "base_duration_us": 517237
    },
    {
      "id": "M_1531",
      "pitch": 76,
      "t_note_us": 138619743,
      "t_trigger_us": 138483780,
      "is_ai": false,
      "track_id": 0,
      "velocity": 0,
      "is_motor": true,
      "motor_id": 3,
      "accel_val": 2000,
      "base_duration_us": 1034473
    },
    {
      "id": "M_1536",
      "pitch": 50,
      "t_note_us": 138619743,
      "t_trigger_us": 138483780,
      "is_ai": false,
      "track_id": 0,
      "velocity": 0,
      "is_motor": true,
      "motor_id": 0,
      "accel_val": 2000,
      "base_duration_us": 1034473
    },
    {
      "id": "M_1544",
      "pitch": 52,
      "t_note_us": 138619743,
      "t_trigger_us": 138483780,
      "is_ai": false,
      "track_id": 0,
      "velocity": 0,
      "is_motor": true,
      "motor_id": 0,
      "accel_val": 2000,
      "base_duration_us": 1810330
    },
    {
      "id": "M_1552",
      "pitch": 76,
      "t_note_us": 138619743,
      "t_trigger_us": 138483780,
      "is_ai": false,
      "track_id": 0,
      "velocity": 0,
      "is_motor": true,
      "motor_id": 0,
      "accel_val": 2000,
      "base_duration_us": 2068948
    },
    {
      "id": "M_1553",
      "pitch": 64,
      "t_note_us": 138619743,
      "t_trigger_us": 138483780,
      "is_ai": false,
      "track_id": 0,
      "velocity": 0,
      "is_motor": true,
      "motor_id": 0,
      "accel_val": 2000,
      "base_duration_us": 2068948
    },
    {
      "id": "M_1555",
      "pitch": 67,
      "t_note_us": 138619743,
      "t_trigger_us": 138483780,
      "is_ai": false,
      "track_id": 0,
      "velocity": 0,
      "is_motor": true,
      "motor_id": 0,
      "accel_val": 2000,
      "base_duration_us": 2068948
    },
    {
      "id": "M_1525",
      "pitch": 59,
      "t_note_us": 138878361,
      "t_trigger_us": 138742398,
      "is_ai": false,
      "track_id": 0,
      "velocity": 0,
      "is_motor": true,
      "motor_id": 0,
      "accel_val": 2000,
      "base_duration_us": 258619
    },
    {
      "id": "M_1526",
      "pitch": 71,
      "t_note_us": 138878361,
      "t_trigger_us": 138742398,
      "is_ai": false,
      "track_id": 0,
      "velocity": 0,
      "is_motor": true,
      "motor_id": 1,
      "accel_val": 2000,
      "base_duration_us": 258619
    },
    {
      "id": "M_1528",
      "pitch": 93,
      "t_note_us": 139136980,
      "t_trigger_us": 139001017,
      "is_ai": true,
      "track_id": 8,
      "velocity": 0,
      "is_motor": false,
      "motor_id": 0,
      "accel_val": 2000,
      "base_duration_us": 258618
    },
    {
      "id": "M_1530",
      "pitch": 88,
      "t_note_us": 139136980,
      "t_trigger_us": 139001017,
      "is_ai": true,
      "track_id": 5,
      "velocity": 0,
      "is_motor": false,
      "motor_id": 0,
      "accel_val": 2000,
      "base_duration_us": 258618
    },
    {
      "id": "M_1529",
      "pitch": 64,
      "t_note_us": 139136980,
      "t_trigger_us": 139001017,
      "is_ai": false,
      "track_id": 0,
      "velocity": 0,
      "is_motor": true,
      "motor_id": 1,
      "accel_val": 2000,
      "base_duration_us": 258618
    },
    {
      "id": "M_1535",
      "pitch": 56,
      "t_note_us": 139136980,
      "t_trigger_us": 139001017,
      "is_ai": false,
      "track_id": 0,
      "velocity": 0,
      "is_motor": true,
      "motor_id": 0,
      "accel_val": 2000,
      "base_duration_us": 517236
    },
    {
      "id": "M_1537",
      "pitch": 91,
      "t_note_us": 139395598,
      "t_trigger_us": 139259635,
      "is_ai": true,
      "track_id": 7,
      "velocity": 0,
      "is_motor": false,
      "motor_id": 0,
      "accel_val": 2000,
      "base_duration_us": 517238
    },
    {
      "id": "M_1534",
      "pitch": 71,
      "t_note_us": 139395598,
      "t_trigger_us": 139259635,
      "is_ai": false,
      "track_id": 0,
      "velocity": 0,
      "is_motor": true,
      "motor_id": 1,
      "accel_val": 2000,
      "base_duration_us": 258618
    },
    {
      "id": "M_1538",
      "pitch": 67,
      "t_note_us": 139395598,
      "t_trigger_us": 139259635,
      "is_ai": false,
      "track_id": 0,
      "velocity": 0,
      "is_motor": true,
      "motor_id": 2,
      "accel_val": 2000,
      "base_duration_us": 517238
    },
    {
      "id": "M_1539",
      "pitch": 79,
      "t_note_us": 139654216,
      "t_trigger_us": 139518253,
      "is_ai": true,
      "track_id": 0,
      "velocity": 0,
      "is_motor": false,
      "motor_id": 0,
      "accel_val": 2000,
      "base_duration_us": 258620
    },
    {
      "id": "M_1542",
      "pitch": 56,
      "t_note_us": 139654216,
      "t_trigger_us": 139518253,
      "is_ai": false,
      "track_id": 0,
      "velocity": 0,
      "is_motor": true,
      "motor_id": 0,
      "accel_val": 2000,
      "base_duration_us": 517238
    },
    {
      "id": "M_1546",
      "pitch": 52,
      "t_note_us": 139654216,
      "t_trigger_us": 139518253,
      "is_ai": false,
      "track_id": 0,
      "velocity": 0,
      "is_motor": true,
      "motor_id": 1,
      "accel_val": 2000,
      "base_duration_us": 775857
    },
    {
      "id": "M_1547",
      "pitch": 93,
      "t_note_us": 139912836,
      "t_trigger_us": 139776873,
      "is_ai": true,
      "track_id": 8,
      "velocity": 0,
      "is_motor": false,
      "motor_id": 0,
      "accel_val": 2000,
      "base_duration_us": 775855
    },
    {
      "id": "M_1540",
      "pitch": 71,
      "t_note_us": 139912836,
      "t_trigger_us": 139776873,
      "is_ai": false,
      "track_id": 0,
      "velocity": 0,
      "is_motor": true,
      "motor_id": 2,
      "accel_val": 2000,
      "base_duration_us": 258618
    },
    {
      "id": "M_1541",
      "pitch": 71,
      "t_note_us": 139912836,
      "t_trigger_us": 139776873,
      "is_ai": false,
      "track_id": 0,
      "velocity": 0,
      "is_motor": true,
      "motor_id": 3,
      "accel_val": 2000,
      "base_duration_us": 258618
    },
    {
      "id": "M_1545",
      "pitch": 88,
      "t_note_us": 140171454,
      "t_trigger_us": 140035491,
      "is_ai": true,
      "track_id": 5,
      "velocity": 0,
      "is_motor": false,
      "motor_id": 0,
      "accel_val": 2000,
      "base_duration_us": 258619
    },
    {
      "id": "M_1543",
      "pitch": 67,
      "t_note_us": 140171454,
      "t_trigger_us": 140035491,
      "is_ai": false,
      "track_id": 0,
      "velocity": 0,
      "is_motor": true,
      "motor_id": 2,
      "accel_val": 2000,
      "base_duration_us": 258619
    },
    {
      "id": "M_1557",
      "pitch": 56,
      "t_note_us": 140171454,
      "t_trigger_us": 140035491,
      "is_ai": false,
      "track_id": 0,
      "velocity": 0,
      "is_motor": true,
      "motor_id": 0,
      "accel_val": 2000,
      "base_duration_us": 517237
    },
    {
      "id": "M_1548",
      "pitch": 64,
      "t_note_us": 140430073,
      "t_trigger_us": 140294110,
      "is_ai": false,
      "track_id": 0,
      "velocity": 0,
      "is_motor": true,
      "motor_id": 1,
      "accel_val": 2000,
      "base_duration_us": 258618
    },
    {
      "id": "M_1549",
      "pitch": 52,
      "t_note_us": 140430073,
      "t_trigger_us": 140294110,
      "is_ai": false,
      "track_id": 0,
      "velocity": 0,
      "is_motor": true,
      "motor_id": 2,
      "accel_val": 2000,
      "base_duration_us": 258618
    },
    {
      "id": "M_1551",
      "pitch": 71,
      "t_note_us": 140430073,
      "t_trigger_us": 140294110,
      "is_ai": false,
      "track_id": 0,
      "velocity": 0,
      "is_motor": true,
      "motor_id": 3,
      "accel_val": 2000,
      "base_duration_us": 258618
    },
    {
      "id": "M_1556",
      "pitch": 50,
      "t_note_us": 140430073,
      "t_trigger_us": 140294110,
      "is_ai": false,
      "track_id": 0,
      "velocity": 0,
      "is_motor": true,
      "motor_id": 0,
      "accel_val": 2000,
      "base_duration_us": 258618
    },
    {
      "id": "M_1560",
      "pitch": 90,
      "t_note_us": 140688691,
      "t_trigger_us": 140552728,
      "is_ai": true,
      "track_id": 0,
      "velocity": 0,
      "is_motor": true,
      "motor_id": 3,
      "accel_val": 2000,
      "base_duration_us": 517236
    },
    {
      "id": "M_1584",
      "pitch": 90,
      "t_note_us": 140688691,
      "t_trigger_us": 140552728,
      "is_ai": true,
      "track_id": 0,
      "velocity": 0,
      "is_motor": true,
      "motor_id": 2,
      "accel_val": 2000,
      "base_duration_us": 2068949
    },
    {
      "id": "M_1588",
      "pitch": 83,
      "t_note_us": 140688691,
      "t_trigger_us": 140552728,
      "is_ai": true,
      "track_id": 2,
      "velocity": 0,
      "is_motor": false,
      "motor_id": 0,
      "accel_val": 2000,
      "base_duration_us": 2068949
    },
    {
      "id": "M_1558",
      "pitch": 59,
      "t_note_us": 140688691,
      "t_trigger_us": 140552728,
      "is_ai": false,
      "track_id": 0,
      "velocity": 0,
      "is_motor": true,
      "motor_id": 0,
      "accel_val": 2000,
      "base_duration_us": 258618
    },
    {
      "id": "M_1559",
      "pitch": 59,
      "t_note_us": 140688691,
      "t_trigger_us": 140552728,
      "is_ai": false,
      "track_id": 0,
      "velocity": 0,
      "is_motor": true,
      "motor_id": 1,
      "accel_val": 2000,
      "base_duration_us": 258618
    },
    {
      "id": "M_1563",
      "pitch": 56,
      "t_note_us": 140688691,
      "t_trigger_us": 140552728,
      "is_ai": false,
      "track_id": 0,
      "velocity": 0,
      "is_motor": true,
      "motor_id": 0,
      "accel_val": 2000,
      "base_duration_us": 517236
    },
    {
      "id": "M_1568",
      "pitch": 78,
      "t_note_us": 140688691,
      "t_trigger_us": 140552728,
      "is_ai": false,
      "track_id": 0,
      "velocity": 0,
      "is_motor": true,
      "motor_id": 0,
      "accel_val": 2000,
      "base_duration_us": 1034473
    },
    {
      "id": "M_1571",
      "pitch": 50,
      "t_note_us": 140688691,
      "t_trigger_us": 140552728,
      "is_ai": false,
      "track_id": 0,
      "velocity": 0,
      "is_motor": true,
      "motor_id": 0,
      "accel_val": 2000,
      "base_duration_us": 1034473
    },
    {
      "id": "M_1578",
      "pitch": 47,
      "t_note_us": 140688691,
      "t_trigger_us": 140552728,
      "is_ai": false,
      "track_id": 0,
      "velocity": 0,
      "is_motor": true,
      "motor_id": 0,
      "accel_val": 2000,
      "base_duration_us": 1810330
    },
    {
      "id": "M_1586",
      "pitch": 71,
      "t_note_us": 140688691,
      "t_trigger_us": 140552728,
      "is_ai": false,
      "track_id": 0,
      "velocity": 0,
      "is_motor": true,
      "motor_id": 0,
      "accel_val": 2000,
      "base_duration_us": 2068949
    },
    {
      "id": "M_1587",
      "pitch": 59,
      "t_note_us": 140688691,
      "t_trigger_us": 140552728,
      "is_ai": false,
      "track_id": 0,
      "velocity": 0,
      "is_motor": true,
      "motor_id": 0,
      "accel_val": 2000,
      "base_duration_us": 2068949
    },
    {
      "id": "M_1589",
      "pitch": 78,
      "t_note_us": 140688691,
      "t_trigger_us": 140552728,
      "is_ai": false,
      "track_id": 0,
      "velocity": 0,
      "is_motor": true,
      "motor_id": 0,
      "accel_val": 2000,
      "base_duration_us": 2068949
    },
    {
      "id": "M_1561",
      "pitch": 66,
      "t_note_us": 140947309,
      "t_trigger_us": 140811346,
      "is_ai": false,
      "track_id": 0,
      "velocity": 0,
      "is_motor": true,
      "motor_id": 1,
      "accel_val": 2000,
      "base_duration_us": 258618
    },
    {
      "id": "M_1562",
      "pitch": 66,
      "t_note_us": 140947309,
      "t_trigger_us": 140811346,
      "is_ai": false,
      "track_id": 0,
      "velocity": 0,
      "is_motor": true,
      "motor_id": 0,
      "accel_val": 2000,
      "base_duration_us": 258618
    },
    {
      "id": "M_1564",
      "pitch": 88,
      "t_note_us": 141205927,
      "t_trigger_us": 141069964,
      "is_ai": true,
      "track_id": 5,
      "velocity": 0,
      "is_motor": false,
      "motor_id": 0,
      "accel_val": 2000,
      "base_duration_us": 258618
    },
    {
      "id": "M_1565",
      "pitch": 71,
      "t_note_us": 141205927,
      "t_trigger_us": 141069964,
      "is_ai": false,
      "track_id": 0,
      "velocity": 0,
      "is_motor": true,
      "motor_id": 1,
      "accel_val": 2000,
      "base_duration_us": 258618
    },
    {
      "id": "M_1566",
      "pitch": 71,
      "t_note_us": 141205927,
      "t_trigger_us": 141069964,
      "is_ai": false,
      "track_id": 0,
      "velocity": 0,
      "is_motor": true,
      "motor_id": 0,
      "accel_val": 2000,
      "base_duration_us": 258618
    },
    {
      "id": "M_1570",
      "pitch": 56,
      "t_note_us": 141205927,
      "t_trigger_us": 141069964,
      "is_ai": false,
      "track_id": 0,
      "velocity": 0,
      "is_motor": true,
      "motor_id": 3,
      "accel_val": 2000,
      "base_duration_us": 517237
    },
    {
      "id": "M_1576",
      "pitch": 86,
      "t_note_us": 141464545,
      "t_trigger_us": 141328582,
      "is_ai": true,
      "track_id": 4,
      "velocity": 0,
      "is_motor": false,
      "motor_id": 0,
      "accel_val": 2000,
      "base_duration_us": 1034476
    },
    {
      "id": "M_1567",
      "pitch": 74,
      "t_note_us": 141464545,
      "t_trigger_us": 141328582,
      "is_ai": false,
      "track_id": 0,
      "velocity": 0,
      "is_motor": true,
      "motor_id": 1,
      "accel_val": 2000,
      "base_duration_us": 258619
    },
    {
      "id": "M_1569",
      "pitch": 66,
      "t_note_us": 141464545,
      "t_trigger_us": 141328582,
      "is_ai": false,
      "track_id": 0,
      "velocity": 0,
      "is_motor": true,
      "motor_id": 0,
      "accel_val": 2000,
      "base_duration_us": 258619
    },
    {
      "id": "M_1572",
      "pitch": 74,
      "t_note_us": 141723164,
      "t_trigger_us": 141587201,
      "is_ai": false,
      "track_id": 0,
      "velocity": 0,
      "is_motor": true,
      "motor_id": 1,
      "accel_val": 2000,
      "base_duration_us": 258619
    },
    {
      "id": "M_1575",
      "pitch": 56,
      "t_note_us": 141723164,
      "t_trigger_us": 141587201,
      "is_ai": false,
      "track_id": 0,
      "velocity": 0,
      "is_motor": true,
      "motor_id": 0,
      "accel_val": 2000,
      "base_duration_us": 517239
    },
    {
      "id": "M_1580",
      "pitch": 52,
      "t_note_us": 141723164,
      "t_trigger_us": 141587201,
      "is_ai": false,
      "track_id": 0,
      "velocity": 0,
      "is_motor": true,
      "motor_id": 3,
      "accel_val": 2000,
      "base_duration_us": 775857
    },
    {
      "id": "M_1573",
      "pitch": 90,
      "t_note_us": 141981783,
      "t_trigger_us": 141845820,
      "is_ai": true,
      "track_id": 0,
      "velocity": 0,
      "is_motor": true,
      "motor_id": 1,
      "accel_val": 2000,
      "base_duration_us": 258620
    },
    {
      "id": "M_1574",
      "pitch": 66,
      "t_note_us": 141981783,
      "t_trigger_us": 141845820,
      "is_ai": false,
      "track_id": 0,
      "velocity": 0,
      "is_motor": true,
      "motor_id": 0,
      "accel_val": 2000,
      "base_duration_us": 258620
    },
    {
      "id": "M_1577",
      "pitch": 86,
      "t_note_us": 142240403,
      "t_trigger_us": 142104440,
      "is_ai": true,
      "track_id": 4,
      "velocity": 0,
      "is_motor": false,
      "motor_id": 0,
      "accel_val": 2000,
      "base_duration_us": 258618
    },
    {
      "id": "M_1579",
      "pitch": 71,
      "t_note_us": 142240403,
      "t_trigger_us": 142104440,
      "is_ai": false,
      "track_id": 0,
      "velocity": 0,
      "is_motor": true,
      "motor_id": 1,
      "accel_val": 2000,
      "base_duration_us": 258618
    },
    {
      "id": "M_1591",
      "pitch": 56,
      "t_note_us": 142240403,
      "t_trigger_us": 142104440,
      "is_ai": false,
      "track_id": 0,
      "velocity": 0,
      "is_motor": true,
      "motor_id": 0,
      "accel_val": 2000,
      "base_duration_us": 517237
    },
    {
      "id": "M_1581",
      "pitch": 86,
      "t_note_us": 142499021,
      "t_trigger_us": 142363058,
      "is_ai": true,
      "track_id": 4,
      "velocity": 0,
      "is_motor": false,
      "motor_id": 0,
      "accel_val": 2000,
      "base_duration_us": 258619
    },
    {
      "id": "M_1582",
      "pitch": 71,
      "t_note_us": 142499021,
      "t_trigger_us": 142363058,
      "is_ai": false,
      "track_id": 0,
      "velocity": 0,
      "is_motor": true,
      "motor_id": 1,
      "accel_val": 2000,
      "base_duration_us": 258619
    },
    {
      "id": "M_1583",
      "pitch": 47,
      "t_note_us": 142499021,
      "t_trigger_us": 142363058,
      "is_ai": false,
      "track_id": 0,
      "velocity": 0,
      "is_motor": true,
      "motor_id": 3,
      "accel_val": 2000,
      "base_duration_us": 258619
    },
    {
      "id": "M_1585",
      "pitch": 66,
      "t_note_us": 142499021,
      "t_trigger_us": 142363058,
      "is_ai": false,
      "track_id": 0,
      "velocity": 0,
      "is_motor": true,
      "motor_id": 0,
      "accel_val": 2000,
      "base_duration_us": 258619
    },
    {
      "id": "M_1590",
      "pitch": 50,
      "t_note_us": 142499021,
      "t_trigger_us": 142363058,
      "is_ai": false,
      "track_id": 0,
      "velocity": 0,
      "is_motor": true,
      "motor_id": 0,
      "accel_val": 2000,
      "base_duration_us": 258619
    },
    {
      "id": "M_1594",
      "pitch": 88,
      "t_note_us": 142757640,
      "t_trigger_us": 142621677,
      "is_ai": true,
      "track_id": 5,
      "velocity": 0,
      "is_motor": false,
      "motor_id": 0,
      "accel_val": 2000,
      "base_duration_us": 344824
    },
    {
      "id": "M_1619",
      "pitch": 88,
      "t_note_us": 142757640,
      "t_trigger_us": 142621677,
      "is_ai": true,
      "track_id": 5,
      "velocity": 0,
      "is_motor": false,
      "motor_id": 0,
      "accel_val": 2000,
      "base_duration_us": 2068933
    },
    {
      "id": "M_1625",
      "pitch": 84,
      "t_note_us": 142757640,
      "t_trigger_us": 142621677,
      "is_ai": true,
      "track_id": 3,
      "velocity": 0,
      "is_motor": false,
      "motor_id": 0,
      "accel_val": 2000,
      "base_duration_us": 2068933
    },
    {
      "id": "M_1592",
      "pitch": 60,
      "t_note_us": 142757640,
      "t_trigger_us": 142621677,
      "is_ai": false,
      "track_id": 0,
      "velocity": 0,
      "is_motor": true,
      "motor_id": 1,
      "accel_val": 2000,
      "base_duration_us": 258618
    },
    {
      "id": "M_1593",
      "pitch": 60,
      "t_note_us": 142757640,
      "t_trigger_us": 142621677,
      "is_ai": false,
      "track_id": 0,
      "velocity": 0,
      "is_motor": true,
      "motor_id": 0,
      "accel_val": 2000,
      "base_duration_us": 258618
    },
    {
      "id": "M_1597",
      "pitch": 56,
      "t_note_us": 142757640,
      "t_trigger_us": 142621677,
      "is_ai": false,
      "track_id": 0,
      "velocity": 0,
      "is_motor": true,
      "motor_id": 2,
      "accel_val": 2000,
      "base_duration_us": 517237
    },
    {
      "id": "M_1603",
      "pitch": 67,
      "t_note_us": 142757640,
      "t_trigger_us": 142621677,
      "is_ai": false,
      "track_id": 0,
      "velocity": 0,
      "is_motor": true,
      "motor_id": 3,
      "accel_val": 2000,
      "base_duration_us": 1034472
    },
    {
      "id": "M_1606",
      "pitch": 50,
      "t_note_us": 142757640,
      "t_trigger_us": 142621677,
      "is_ai": false,
      "track_id": 0,
      "velocity": 0,
      "is_motor": true,
      "motor_id": 0,
      "accel_val": 2000,
      "base_duration_us": 1034472
    },
    {
      "id": "M_1614",
      "pitch": 48,
      "t_note_us": 142757640,
      "t_trigger_us": 142621677,
      "is_ai": false,
      "track_id": 0,
      "velocity": 0,
      "is_motor": true,
      "motor_id": 0,
      "accel_val": 2000,
      "base_duration_us": 1810325
    },
    {
      "id": "M_1621",
      "pitch": 72,
      "t_note_us": 142757640,
      "t_trigger_us": 142621677,
      "is_ai": false,
      "track_id": 0,
      "velocity": 0,
      "is_motor": true,
      "motor_id": 0,
      "accel_val": 2000,
      "base_duration_us": 2068933
    },
    {
      "id": "M_1622",
      "pitch": 60,
      "t_note_us": 142757640,
      "t_trigger_us": 142621677,
      "is_ai": false,
      "track_id": 0,
      "velocity": 0,
      "is_motor": true,
      "motor_id": 0,
      "accel_val": 2000,
      "base_duration_us": 2068933
    },
    {
      "id": "M_1623",
      "pitch": 76,
      "t_note_us": 142757640,
      "t_trigger_us": 142621677,
      "is_ai": false,
      "track_id": 0,
      "velocity": 0,
      "is_motor": true,
      "motor_id": 0,
      "accel_val": 2000,
      "base_duration_us": 2068933
    },
    {
      "id": "M_1624",
      "pitch": 67,
      "t_note_us": 142757640,
      "t_trigger_us": 142621677,
      "is_ai": false,
      "track_id": 0,
      "velocity": 0,
      "is_motor": true,
      "motor_id": 0,
      "accel_val": 2000,
      "base_duration_us": 2068933
    },
    {
      "id": "M_1595",
      "pitch": 67,
      "t_note_us": 143016258,
      "t_trigger_us": 142880295,
      "is_ai": false,
      "track_id": 0,
      "velocity": 0,
      "is_motor": true,
      "motor_id": 1,
      "accel_val": 2000,
      "base_duration_us": 258619
    },
    {
      "id": "M_1596",
      "pitch": 67,
      "t_note_us": 143016258,
      "t_trigger_us": 142880295,
      "is_ai": false,
      "track_id": 0,
      "velocity": 0,
      "is_motor": true,
      "motor_id": 0,
      "accel_val": 2000,
      "base_duration_us": 258619
    },
    {
      "id": "M_1598",
      "pitch": 91,
      "t_note_us": 143102464,
      "t_trigger_us": 142966501,
      "is_ai": true,
      "track_id": 7,
      "velocity": 0,
      "is_motor": false,
      "motor_id": 0,
      "accel_val": 2000,
      "base_duration_us": 344824
    },
    {
      "id": "M_1599",
      "pitch": 72,
      "t_note_us": 143274877,
      "t_trigger_us": 143138914,
      "is_ai": false,
      "track_id": 0,
      "velocity": 0,
      "is_motor": true,
      "motor_id": 1,
      "accel_val": 2000,
      "base_duration_us": 258617
    },
    {
      "id": "M_1600",
      "pitch": 72,
      "t_note_us": 143274877,
      "t_trigger_us": 143138914,
      "is_ai": false,
      "track_id": 0,
      "velocity": 0,
      "is_motor": true,
      "motor_id": 0,
      "accel_val": 2000,
      "base_duration_us": 258617
    },
    {
      "id": "M_1605",
      "pitch": 56,
      "t_note_us": 143274877,
      "t_trigger_us": 143138914,
      "is_ai": false,
      "track_id": 0,
      "velocity": 0,
      "is_motor": true,
      "motor_id": 2,
      "accel_val": 2000,
      "base_duration_us": 517235
    },
    {
      "id": "M_1601",
      "pitch": 91,
      "t_note_us": 143447288,
      "t_trigger_us": 143311325,
      "is_ai": true,
      "track_id": 7,
      "velocity": 0,
      "is_motor": false,
      "motor_id": 0,
      "accel_val": 2000,
      "base_duration_us": 344824
    },
    {
      "id": "M_1602",
      "pitch": 88,
      "t_note_us": 143533494,
      "t_trigger_us": 143397531,
      "is_ai": true,
      "track_id": 5,
      "velocity": 0,
      "is_motor": false,
      "motor_id": 0,
      "accel_val": 2000,
      "base_duration_us": 258618
    },
    {
      "id": "M_1604",
      "pitch": 67,
      "t_note_us": 143533494,
      "t_trigger_us": 143397531,
      "is_ai": false,
      "track_id": 0,
      "velocity": 0,
      "is_motor": true,
      "motor_id": 1,
      "accel_val": 2000,
      "base_duration_us": 258618
    },
    {
      "id": "M_1607",
      "pitch": 91,
      "t_note_us": 143792112,
      "t_trigger_us": 143656149,
      "is_ai": true,
      "track_id": 7,
      "velocity": 0,
      "is_motor": false,
      "motor_id": 0,
      "accel_val": 2000,
      "base_duration_us": 258618
    },
    {
      "id": "M_1608",
      "pitch": 88,
      "t_note_us": 143792112,
      "t_trigger_us": 143656149,
      "is_ai": true,
      "track_id": 5,
      "velocity": 0,
      "is_motor": false,
      "motor_id": 0,
      "accel_val": 2000,
      "base_duration_us": 258618
    },
    {
      "id": "M_1611",
      "pitch": 56,
      "t_note_us": 143792112,
      "t_trigger_us": 143656149,
      "is_ai": false,
      "track_id": 0,
      "velocity": 0,
      "is_motor": true,
      "motor_id": 0,
      "accel_val": 2000,
      "base_duration_us": 517236
    },
    {
      "id": "M_1616",
      "pitch": 52,
      "t_note_us": 143792112,
      "t_trigger_us": 143656149,
      "is_ai": false,
      "track_id": 0,
      "velocity": 0,
      "is_motor": true,
      "motor_id": 1,
      "accel_val": 2000,
      "base_duration_us": 775853
    },
    {
      "id": "M_1609",
      "pitch": 79,
      "t_note_us": 144050730,
      "t_trigger_us": 143914767,
      "is_ai": true,
      "track_id": 0,
      "velocity": 0,
      "is_motor": false,
      "motor_id": 0,
      "accel_val": 2000,
      "base_duration_us": 258618
    },
    {
      "id": "M_1612",
      "pitch": 95,
      "t_note_us": 144050730,
      "t_trigger_us": 143914767,
      "is_ai": true,
      "track_id": 9,
      "velocity": 0,
      "is_motor": false,
      "motor_id": 0,
      "accel_val": 2000,
      "base_duration_us": 517235
    },
    {
      "id": "M_1610",
      "pitch": 67,
      "t_note_us": 144050730,
      "t_trigger_us": 143914767,
      "is_ai": false,
      "track_id": 0,
      "velocity": 0,
      "is_motor": true,
      "motor_id": 2,
      "accel_val": 2000,
      "base_duration_us": 258618
    },
    {
      "id": "M_1613",
      "pitch": 76,
      "t_note_us": 144309348,
      "t_trigger_us": 144173385,
      "is_ai": false,
      "track_id": 0,
      "velocity": 0,
      "is_motor": true,
      "motor_id": 2,
      "accel_val": 2000,
      "base_duration_us": 258617
    },
    {
      "id": "M_1615",
      "pitch": 72,
      "t_note_us": 144309348,
      "t_trigger_us": 144173385,
      "is_ai": false,
      "track_id": 0,
      "velocity": 0,
      "is_motor": true,
      "motor_id": 0,
      "accel_val": 2000,
      "base_duration_us": 258617
    },
    {
      "id": "M_1627",
      "pitch": 56,
      "t_note_us": 144309348,
      "t_trigger_us": 144173385,
      "is_ai": false,
      "track_id": 0,
      "velocity": 0,
      "is_motor": true,
      "motor_id": 3,
      "accel_val": 2000,
      "base_duration_us": 517225
    },
    {
      "id": "M_1653",
      "pitch": 93,
      "t_note_us": 144567965,
      "t_trigger_us": 144432002,
      "is_ai": true,
      "track_id": 8,
      "velocity": 0,
      "is_motor": false,
      "motor_id": 0,
      "accel_val": 2000,
      "base_duration_us": 2327540
    },
    {
      "id": "M_1617",
      "pitch": 72,
      "t_note_us": 144567965,
      "t_trigger_us": 144432002,
      "is_ai": false,
      "track_id": 0,
      "velocity": 0,
      "is_motor": true,
      "motor_id": 1,
      "accel_val": 2000,
      "base_duration_us": 258608
    },
    {
      "id": "M_1618",
      "pitch": 48,
      "t_note_us": 144567965,
      "t_trigger_us": 144432002,
      "is_ai": false,
      "track_id": 0,
      "velocity": 0,
      "is_motor": true,
      "motor_id": 0,
      "accel_val": 2000,
      "base_duration_us": 258608
    },
    {
      "id": "M_1620",
      "pitch": 67,
      "t_note_us": 144567965,
      "t_trigger_us": 144432002,
      "is_ai": false,
      "track_id": 0,
      "velocity": 0,
      "is_motor": true,
      "motor_id": 2,
      "accel_val": 2000,
      "base_duration_us": 258608
    },
    {
      "id": "M_1626",
      "pitch": 50,
      "t_note_us": 144567965,
      "t_trigger_us": 144432002,
      "is_ai": false,
      "track_id": 0,
      "velocity": 0,
      "is_motor": true,
      "motor_id": 0,
      "accel_val": 2000,
      "base_duration_us": 258608
    },
    {
      "id": "M_1656",
      "pitch": 90,
      "t_note_us": 144826573,
      "t_trigger_us": 144690610,
      "is_ai": true,
      "track_id": 0,
      "velocity": 0,
      "is_motor": true,
      "motor_id": 3,
      "accel_val": 2000,
      "base_duration_us": 2068932
    },
    {
      "id": "M_1628",
      "pitch": 62,
      "t_note_us": 144826573,
      "t_trigger_us": 144690610,
      "is_ai": false,
      "track_id": 0,
      "velocity": 0,
      "is_motor": true,
      "motor_id": 1,
      "accel_val": 2000,
      "base_duration_us": 258607
    },
    {
      "id": "M_1629",
      "pitch": 62,
      "t_note_us": 144826573,
      "t_trigger_us": 144690610,
      "is_ai": false,
      "track_id": 0,
      "velocity": 0,
      "is_motor": true,
      "motor_id": 0,
      "accel_val": 2000,
      "base_duration_us": 517223
    },
    {
      "id": "M_1631",
      "pitch": 56,
      "t_note_us": 144826573,
      "t_trigger_us": 144690610,
      "is_ai": false,
      "track_id": 0,
      "velocity": 0,
      "is_motor": true,
      "motor_id": 2,
      "accel_val": 2000,
      "base_duration_us": 517223
    },
    {
      "id": "M_1633",
      "pitch": 50,
      "t_note_us": 144826573,
      "t_trigger_us": 144690610,
      "is_ai": false,
      "track_id": 0,
      "velocity": 0,
      "is_motor": true,
      "motor_id": 0,
      "accel_val": 2000,
      "base_duration_us": 775841
    },
    {
      "id": "M_1636",
      "pitch": 69,
      "t_note_us": 144826573,
      "t_trigger_us": 144690610,
      "is_ai": false,
      "track_id": 0,
      "velocity": 0,
      "is_motor": true,
      "motor_id": 0,
      "accel_val": 2000,
      "base_duration_us": 1034460
    },
    {
      "id": "M_1641",
      "pitch": 50,
      "t_note_us": 144826573,
      "t_trigger_us": 144690610,
      "is_ai": false,
      "track_id": 0,
      "velocity": 0,
      "is_motor": true,
      "motor_id": 0,
      "accel_val": 2000,
      "base_duration_us": 1034460
    },
    {
      "id": "M_1658",
      "pitch": 74,
      "t_note_us": 144826573,
      "t_trigger_us": 144690610,
      "is_ai": false,
      "track_id": 0,
      "velocity": 0,
      "is_motor": true,
      "motor_id": 0,
      "accel_val": 2000,
      "base_duration_us": 2068932
    },
    {
      "id": "M_1659",
      "pitch": 62,
      "t_note_us": 144826573,
      "t_trigger_us": 144690610,
      "is_ai": false,
      "track_id": 0,
      "velocity": 0,
      "is_motor": true,
      "motor_id": 0,
      "accel_val": 2000,
      "base_duration_us": 2068932
    },
    {
      "id": "M_1660",
      "pitch": 74,
      "t_note_us": 144826573,
      "t_trigger_us": 144690610,
      "is_ai": false,
      "track_id": 0,
      "velocity": 0,
      "is_motor": true,
      "motor_id": 0,
      "accel_val": 2000,
      "base_duration_us": 2068932
    },
    {
      "id": "M_1661",
      "pitch": 78,
      "t_note_us": 144826573,
      "t_trigger_us": 144690610,
      "is_ai": false,
      "track_id": 0,
      "velocity": 0,
      "is_motor": true,
      "motor_id": 0,
      "accel_val": 2000,
      "base_duration_us": 2068932
    },
    {
      "id": "M_1662",
      "pitch": 69,
      "t_note_us": 144826573,
      "t_trigger_us": 144690610,
      "is_ai": false,
      "track_id": 0,
      "velocity": 0,
      "is_motor": true,
      "motor_id": 0,
      "accel_val": 2000,
      "base_duration_us": 2068932
    },
    {
      "id": "M_1630",
      "pitch": 69,
      "t_note_us": 145085180,
      "t_trigger_us": 144949217,
      "is_ai": false,
      "track_id": 0,
      "velocity": 0,
      "is_motor": true,
      "motor_id": 1,
      "accel_val": 2000,
      "base_duration_us": 258616
    },
    {
      "id": "M_1632",
      "pitch": 74,
      "t_note_us": 145343796,
      "t_trigger_us": 145207833,
      "is_ai": false,
      "track_id": 0,
      "velocity": 0,
      "is_motor": true,
      "motor_id": 1,
      "accel_val": 2000,
      "base_duration_us": 258618
    },
    {
      "id": "M_1634",
      "pitch": 74,
      "t_note_us": 145343796,
      "t_trigger_us": 145207833,
      "is_ai": false,
      "track_id": 0,
      "velocity": 0,
      "is_motor": true,
      "motor_id": 0,
      "accel_val": 2000,
      "base_duration_us": 258618
    },
    {
      "id": "M_1640",
      "pitch": 56,
      "t_note_us": 145343796,
      "t_trigger_us": 145207833,
      "is_ai": false,
      "track_id": 0,
      "velocity": 0,
      "is_motor": true,
      "motor_id": 2,
      "accel_val": 2000,
      "base_duration_us": 517237
    },
    {
      "id": "M_1635",
      "pitch": 84,
      "t_note_us": 145585173,
      "t_trigger_us": 145449210,
      "is_ai": true,
      "track_id": 3,
      "velocity": 0,
      "is_motor": false,
      "motor_id": 0,
      "accel_val": 2000,
      "base_duration_us": 258619
    },
    {
      "id": "M_1637",
      "pitch": 90,
      "t_note_us": 145602414,
      "t_trigger_us": 145466451,
      "is_ai": true,
      "track_id": 0,
      "velocity": 0,
      "is_motor": true,
      "motor_id": 1,
      "accel_val": 2000,
      "base_duration_us": 258619
    },
    {
      "id": "M_1638",
      "pitch": 45,
      "t_note_us": 145602414,
      "t_trigger_us": 145466451,
      "is_ai": false,
      "track_id": 0,
      "velocity": 0,
      "is_motor": true,
      "motor_id": 0,
      "accel_val": 2000,
      "base_duration_us": 258619
    },
    {
      "id": "M_1639",
      "pitch": 69,
      "t_note_us": 145602414,
      "t_trigger_us": 145466451,
      "is_ai": false,
      "track_id": 0,
      "velocity": 0,
      "is_motor": true,
      "motor_id": 0,
      "accel_val": 2000,
      "base_duration_us": 258619
    },
    {
      "id": "M_1642",
      "pitch": 83,
      "t_note_us": 145843792,
      "t_trigger_us": 145707829,
      "is_ai": true,
      "track_id": 2,
      "velocity": 0,
      "is_motor": false,
      "motor_id": 0,
      "accel_val": 2000,
      "base_duration_us": 258618
    },
    {
      "id": "M_1643",
      "pitch": 90,
      "t_note_us": 145861033,
      "t_trigger_us": 145725070,
      "is_ai": true,
      "track_id": 0,
      "velocity": 0,
      "is_motor": true,
      "motor_id": 2,
      "accel_val": 2000,
      "base_duration_us": 258618
    },
    {
      "id": "M_1647",
      "pitch": 56,
      "t_note_us": 145861033,
      "t_trigger_us": 145725070,
      "is_ai": false,
      "track_id": 0,
      "velocity": 0,
      "is_motor": true,
      "motor_id": 0,
      "accel_val": 2000,
      "base_duration_us": 517237
    },
    {
      "id": "M_1651",
      "pitch": 52,
      "t_note_us": 145861033,
      "t_trigger_us": 145725070,
      "is_ai": false,
      "track_id": 0,
      "velocity": 0,
      "is_motor": true,
      "motor_id": 1,
      "accel_val": 2000,
      "base_duration_us": 775855
    },
    {
      "id": "M_1655",
      "pitch": 50,
      "t_note_us": 145861033,
      "t_trigger_us": 145725070,
      "is_ai": false,
      "track_id": 0,
      "velocity": 0,
      "is_motor": true,
      "motor_id": 0,
      "accel_val": 2000,
      "base_duration_us": 1034472
    },
    {
      "id": "M_1644",
      "pitch": 79,
      "t_note_us": 146102410,
      "t_trigger_us": 145966447,
      "is_ai": true,
      "track_id": 0,
      "velocity": 0,
      "is_motor": false,
      "motor_id": 0,
      "accel_val": 2000,
      "base_duration_us": 258619
    },
    {
      "id": "M_1645",
      "pitch": 86,
      "t_note_us": 146119651,
      "t_trigger_us": 145983688,
      "is_ai": true,
      "track_id": 4,
      "velocity": 0,
      "is_motor": false,
      "motor_id": 0,
      "accel_val": 2000,
      "base_duration_us": 258619
    },
    {
      "id": "M_1646",
      "pitch": 69,
      "t_note_us": 146119651,
      "t_trigger_us": 145983688,
      "is_ai": false,
      "track_id": 0,
      "velocity": 0,
      "is_motor": true,
      "motor_id": 2,
      "accel_val": 2000,
      "base_duration_us": 258619
    },
    {
      "id": "M_1648",
      "pitch": 86,
      "t_note_us": 146361029,
      "t_trigger_us": 146225066,
      "is_ai": true,
      "track_id": 4,
      "velocity": 0,
      "is_motor": false,
      "motor_id": 0,
      "accel_val": 2000,
      "base_duration_us": 258618
    },
    {
      "id": "M_1649",
      "pitch": 81,
      "t_note_us": 146378270,
      "t_trigger_us": 146242307,
      "is_ai": true,
      "track_id": 1,
      "velocity": 0,
      "is_motor": false,
      "motor_id": 0,
      "accel_val": 2000,
      "base_duration_us": 258618
    },
    {
      "id": "M_1650",
      "pitch": 74,
      "t_note_us": 146378270,
      "t_trigger_us": 146242307,
      "is_ai": false,
      "track_id": 0,
      "velocity": 0,
      "is_motor": true,
      "motor_id": 0,
      "accel_val": 2000,
      "base_duration_us": 258618
    },
    {
      "id": "M_1664",
      "pitch": 56,
      "t_note_us": 146378270,
      "t_trigger_us": 146242307,
      "is_ai": false,
      "track_id": 0,
      "velocity": 0,
      "is_motor": true,
      "motor_id": 2,
      "accel_val": 2000,
      "base_duration_us": 517235
    },
    {
      "id": "M_1652",
      "pitch": 72,
      "t_note_us": 146619647,
      "t_trigger_us": 146483684,
      "is_ai": false,
      "track_id": 0,
      "velocity": 0,
      "is_motor": true,
      "motor_id": 0,
      "accel_val": 2000,
      "base_duration_us": 258617
    },
    {
      "id": "M_1654",
      "pitch": 90,
      "t_note_us": 146636888,
      "t_trigger_us": 146500925,
      "is_ai": true,
      "track_id": 0,
      "velocity": 0,
      "is_motor": true,
      "motor_id": 1,
      "accel_val": 2000,
      "base_duration_us": 258617
    },
    {
      "id": "M_1657",
      "pitch": 81,
      "t_note_us": 146636888,
      "t_trigger_us": 146500925,
      "is_ai": true,
      "track_id": 1,
      "velocity": 0,
      "is_motor": false,
      "motor_id": 0,
      "accel_val": 2000,
      "base_duration_us": 258617
    },
    {
      "id": "M_1663",
      "pitch": 50,
      "t_note_us": 146636888,
      "t_trigger_us": 146500925,
      "is_ai": false,
      "track_id": 0,
      "velocity": 0,
      "is_motor": true,
      "motor_id": 0,
      "accel_val": 2000,
      "base_duration_us": 258617
    },
    {
      "id": "M_1709",
      "pitch": 71,
      "t_note_us": 146878264,
      "t_trigger_us": 146742301,
      "is_ai": false,
      "track_id": 0,
      "velocity": 0,
      "is_motor": true,
      "motor_id": 0,
      "accel_val": 2000,
      "base_duration_us": 3103374
    },
    {
      "id": "M_1667",
      "pitch": 83,
      "t_note_us": 146895505,
      "t_trigger_us": 146759542,
      "is_ai": true,
      "track_id": 2,
      "velocity": 0,
      "is_motor": false,
      "motor_id": 0,
      "accel_val": 2000,
      "base_duration_us": 517225
    },
    {
      "id": "M_1681",
      "pitch": 86,
      "t_note_us": 146895505,
      "t_trigger_us": 146759542,
      "is_ai": true,
      "track_id": 4,
      "velocity": 0,
      "is_motor": false,
      "motor_id": 0,
      "accel_val": 2000,
      "base_duration_us": 1551698
    },
    {
      "id": "M_1695",
      "pitch": 83,
      "t_note_us": 146895505,
      "t_trigger_us": 146759542,
      "is_ai": true,
      "track_id": 2,
      "velocity": 0,
      "is_motor": false,
      "motor_id": 0,
      "accel_val": 2000,
      "base_duration_us": 2068930
    },
    {
      "id": "M_1665",
      "pitch": 55,
      "t_note_us": 146895505,
      "t_trigger_us": 146759542,
      "is_ai": false,
      "track_id": 0,
      "velocity": 0,
      "is_motor": true,
      "motor_id": 0,
      "accel_val": 2000,
      "base_duration_us": 258615
    },
    {
      "id": "M_1666",
      "pitch": 67,
      "t_note_us": 146895505,
      "t_trigger_us": 146759542,
      "is_ai": false,
      "track_id": 0,
      "velocity": 0,
      "is_motor": true,
      "motor_id": 1,
      "accel_val": 2000,
      "base_duration_us": 258615
    },
    {
      "id": "M_1675",
      "pitch": 50,
      "t_note_us": 146895505,
      "t_trigger_us": 146759542,
      "is_ai": false,
      "track_id": 0,
      "velocity": 0,
      "is_motor": true,
      "motor_id": 2,
      "accel_val": 2000,
      "base_duration_us": 1034461
    },
    {
      "id": "M_1676",
      "pitch": 63,
      "t_note_us": 146895505,
      "t_trigger_us": 146759542,
      "is_ai": false,
      "track_id": 0,
      "velocity": 0,
      "is_motor": true,
      "motor_id": 3,
      "accel_val": 2000,
      "base_duration_us": 1034461
    },
    {
      "id": "M_1686",
      "pitch": 43,
      "t_note_us": 146895505,
      "t_trigger_us": 146759542,
      "is_ai": false,
      "track_id": 0,
      "velocity": 0,
      "is_motor": true,
      "motor_id": 0,
      "accel_val": 2000,
      "base_duration_us": 1810316
    },
    {
      "id": "M_1693",
      "pitch": 67,
      "t_note_us": 146895505,
      "t_trigger_us": 146759542,
      "is_ai": false,
      "track_id": 0,
      "velocity": 0,
      "is_motor": true,
      "motor_id": 0,
      "accel_val": 2000,
      "base_duration_us": 2068930
    },
    {
      "id": "M_1694",
      "pitch": 55,
      "t_note_us": 146895505,
      "t_trigger_us": 146759542,
      "is_ai": false,
      "track_id": 0,
      "velocity": 0,
      "is_motor": true,
      "motor_id": 0,
      "accel_val": 2000,
      "base_duration_us": 2068930
    },
    {
      "id": "M_1696",
      "pitch": 67,
      "t_note_us": 146895505,
      "t_trigger_us": 146759542,
      "is_ai": false,
      "track_id": 0,
      "velocity": 0,
      "is_motor": true,
      "motor_id": 0,
      "accel_val": 2000,
      "base_duration_us": 2068930
    },
    {
      "id": "M_1697",
      "pitch": 74,
      "t_note_us": 146895505,
      "t_trigger_us": 146759542,
      "is_ai": false,
      "track_id": 0,
      "velocity": 0,
      "is_motor": true,
      "motor_id": 0,
      "accel_val": 2000,
      "base_duration_us": 2068930
    },
    {
      "id": "M_1668",
      "pitch": 67,
      "t_note_us": 147154120,
      "t_trigger_us": 147018157,
      "is_ai": false,
      "track_id": 0,
      "velocity": 0,
      "is_motor": true,
      "motor_id": 1,
      "accel_val": 2000,
      "base_duration_us": 258610
    },
    {
      "id": "M_1669",
      "pitch": 71,
      "t_note_us": 147154120,
      "t_trigger_us": 147018157,
      "is_ai": false,
      "track_id": 0,
      "velocity": 0,
      "is_motor": true,
      "motor_id": 0,
      "accel_val": 2000,
      "base_duration_us": 258610
    },
    {
      "id": "M_1670",
      "pitch": 86,
      "t_note_us": 147412730,
      "t_trigger_us": 147276767,
      "is_ai": true,
      "track_id": 4,
      "velocity": 0,
      "is_motor": false,
      "motor_id": 0,
      "accel_val": 2000,
      "base_duration_us": 258617
    },
    {
      "id": "M_1671",
      "pitch": 71,
      "t_note_us": 147412730,
      "t_trigger_us": 147276767,
      "is_ai": false,
      "track_id": 0,
      "velocity": 0,
      "is_motor": true,
      "motor_id": 1,
      "accel_val": 2000,
      "base_duration_us": 258617
    },
    {
      "id": "M_1672",
      "pitch": 74,
      "t_note_us": 147412730,
      "t_trigger_us": 147276767,
      "is_ai": false,
      "track_id": 0,
      "velocity": 0,
      "is_motor": true,
      "motor_id": 0,
      "accel_val": 2000,
      "base_duration_us": 258617
    },
    {
      "id": "M_1674",
      "pitch": 56,
      "t_note_us": 147412730,
      "t_trigger_us": 147276767,
      "is_ai": false,
      "track_id": 0,
      "velocity": 0,
      "is_motor": true,
      "motor_id": 0,
      "accel_val": 2000,
      "base_duration_us": 517236
    },
    {
      "id": "M_1679",
      "pitch": 91,
      "t_note_us": 147671347,
      "t_trigger_us": 147535384,
      "is_ai": true,
      "track_id": 7,
      "velocity": 0,
      "is_motor": false,
      "motor_id": 0,
      "accel_val": 2000,
      "base_duration_us": 775856
    },
    {
      "id": "M_1673",
      "pitch": 71,
      "t_note_us": 147671347,
      "t_trigger_us": 147535384,
      "is_ai": false,
      "track_id": 0,
      "velocity": 0,
      "is_motor": true,
      "motor_id": 1,
      "accel_val": 2000,
      "base_duration_us": 258619
    },
    {
      "id": "M_1677",
      "pitch": 74,
      "t_note_us": 147671347,
      "t_trigger_us": 147535384,
      "is_ai": false,
      "track_id": 0,
      "velocity": 0,
      "is_motor": true,
      "motor_id": 0,
      "accel_val": 2000,
      "base_duration_us": 517237
    },
    {
      "id": "M_1678",
      "pitch": 79,
      "t_note_us": 147929966,
      "t_trigger_us": 147794003,
      "is_ai": true,
      "track_id": 0,
      "velocity": 0,
      "is_motor": false,
      "motor_id": 0,
      "accel_val": 2000,
      "base_duration_us": 258618
    },
    {
      "id": "M_1683",
      "pitch": 56,
      "t_note_us": 147929966,
      "t_trigger_us": 147794003,
      "is_ai": false,
      "track_id": 0,
      "velocity": 0,
      "is_motor": true,
      "motor_id": 1,
      "accel_val": 2000,
      "base_duration_us": 517237
    },
    {
      "id": "M_1689",
      "pitch": 52,
      "t_note_us": 147929966,
      "t_trigger_us": 147794003,
      "is_ai": false,
      "track_id": 0,
      "velocity": 0,
      "is_motor": true,
      "motor_id": 2,
      "accel_val": 2000,
      "base_duration_us": 775855
    },
    {
      "id": "M_1680",
      "pitch": 79,
      "t_note_us": 148188584,
      "t_trigger_us": 148052621,
      "is_ai": true,
      "track_id": 0,
      "velocity": 0,
      "is_motor": false,
      "motor_id": 0,
      "accel_val": 2000,
      "base_duration_us": 258619
    },
    {
      "id": "M_1682",
      "pitch": 71,
      "t_note_us": 148188584,
      "t_trigger_us": 148052621,
      "is_ai": false,
      "track_id": 0,
      "velocity": 0,
      "is_motor": true,
      "motor_id": 0,
      "accel_val": 2000,
      "base_duration_us": 258619
    },
    {
      "id": "M_1684",
      "pitch": 93,
      "t_note_us": 148447203,
      "t_trigger_us": 148311240,
      "is_ai": true,
      "track_id": 8,
      "velocity": 0,
      "is_motor": false,
      "motor_id": 0,
      "accel_val": 2000,
      "base_duration_us": 258618
    },
    {
      "id": "M_1687",
      "pitch": 93,
      "t_note_us": 148447203,
      "t_trigger_us": 148311240,
      "is_ai": true,
      "track_id": 8,
      "velocity": 0,
      "is_motor": false,
      "motor_id": 0,
      "accel_val": 2000,
      "base_duration_us": 258618
    },
    {
      "id": "M_1685",
      "pitch": 74,
      "t_note_us": 148447203,
      "t_trigger_us": 148311240,
      "is_ai": false,
      "track_id": 0,
      "velocity": 0,
      "is_motor": true,
      "motor_id": 1,
      "accel_val": 2000,
      "base_duration_us": 258618
    },
    {
      "id": "M_1688",
      "pitch": 74,
      "t_note_us": 148447203,
      "t_trigger_us": 148311240,
      "is_ai": false,
      "track_id": 0,
      "velocity": 0,
      "is_motor": true,
      "motor_id": 0,
      "accel_val": 2000,
      "base_duration_us": 258618
    },
    {
      "id": "M_1699",
      "pitch": 56,
      "t_note_us": 148447203,
      "t_trigger_us": 148311240,
      "is_ai": false,
      "track_id": 0,
      "velocity": 0,
      "is_motor": true,
      "motor_id": 3,
      "accel_val": 2000,
      "base_duration_us": 517232
    },
    {
      "id": "M_1702",
      "pitch": 95,
      "t_note_us": 148705821,
      "t_trigger_us": 148569858,
      "is_ai": true,
      "track_id": 9,
      "velocity": 0,
      "is_motor": false,
      "motor_id": 0,
      "accel_val": 2000,
      "base_duration_us": 775842
    },
    {
      "id": "M_1713",
      "pitch": 95,
      "t_note_us": 148705821,
      "t_trigger_us": 148569858,
      "is_ai": true,
      "track_id": 9,
      "velocity": 0,
      "is_motor": false,
      "motor_id": 0,
      "accel_val": 2000,
      "base_duration_us": 1293058
    },
    {
      "id": "M_1690",
      "pitch": 71,
      "t_note_us": 148705821,
      "t_trigger_us": 148569858,
      "is_ai": false,
      "track_id": 0,
      "velocity": 0,
      "is_motor": true,
      "motor_id": 1,
      "accel_val": 2000,
      "base_duration_us": 258614
    },
    {
      "id": "M_1691",
      "pitch": 47,
      "t_note_us": 148705821,
      "t_trigger_us": 148569858,
      "is_ai": false,
      "track_id": 0,
      "velocity": 0,
      "is_motor": true,
      "motor_id": 0,
      "accel_val": 2000,
      "base_duration_us": 258614
    },
    {
      "id": "M_1692",
      "pitch": 71,
      "t_note_us": 148705821,
      "t_trigger_us": 148569858,
      "is_ai": false,
      "track_id": 0,
      "velocity": 0,
      "is_motor": true,
      "motor_id": 2,
      "accel_val": 2000,
      "base_duration_us": 258614
    },
    {
      "id": "M_1698",
      "pitch": 50,
      "t_note_us": 148705821,
      "t_trigger_us": 148569858,
      "is_ai": false,
      "track_id": 0,
      "velocity": 0,
      "is_motor": true,
      "motor_id": 0,
      "accel_val": 2000,
      "base_duration_us": 258614
    },
    {
      "id": "M_1710",
      "pitch": 79,
      "t_note_us": 148964435,
      "t_trigger_us": 148828472,
      "is_ai": true,
      "track_id": 0,
      "velocity": 0,
      "is_motor": false,
      "motor_id": 0,
      "accel_val": 2000,
      "base_duration_us": 1034444
    },
    {
      "id": "M_1736",
      "pitch": 84,
      "t_note_us": 148964435,
      "t_trigger_us": 148828472,
      "is_ai": true,
      "track_id": 3,
      "velocity": 0,
      "is_motor": false,
      "motor_id": 0,
      "accel_val": 2000,
      "base_duration_us": 2068917
    },
    {
      "id": "M_1700",
      "pitch": 60,
      "t_note_us": 148964435,
      "t_trigger_us": 148828472,
      "is_ai": false,
      "track_id": 0,
      "velocity": 0,
      "is_motor": true,
      "motor_id": 1,
      "accel_val": 2000,
      "base_duration_us": 258615
    },
    {
      "id": "M_1701",
      "pitch": 60,
      "t_note_us": 148964435,
      "t_trigger_us": 148828472,
      "is_ai": false,
      "track_id": 0,
      "velocity": 0,
      "is_motor": true,
      "motor_id": 0,
      "accel_val": 2000,
      "base_duration_us": 258615
    },
    {
      "id": "M_1705",
      "pitch": 56,
      "t_note_us": 148964435,
      "t_trigger_us": 148828472,
      "is_ai": false,
      "track_id": 0,
      "velocity": 0,
      "is_motor": true,
      "motor_id": 2,
      "accel_val": 2000,
      "base_duration_us": 517228
    },
    {
      "id": "M_1712",
      "pitch": 71,
      "t_note_us": 148964435,
      "t_trigger_us": 148828472,
      "is_ai": false,
      "track_id": 0,
      "velocity": 0,
      "is_motor": true,
      "motor_id": 3,
      "accel_val": 2000,
      "base_duration_us": 1034444
    },
    {
      "id": "M_1716",
      "pitch": 50,
      "t_note_us": 148964435,
      "t_trigger_us": 148828472,
      "is_ai": false,
      "track_id": 0,
      "velocity": 0,
      "is_motor": true,
      "motor_id": 0,
      "accel_val": 2000,
      "base_duration_us": 1034444
    },
    {
      "id": "M_1725",
      "pitch": 48,
      "t_note_us": 148964435,
      "t_trigger_us": 148828472,
      "is_ai": false,
      "track_id": 0,
      "velocity": 0,
      "is_motor": true,
      "motor_id": 0,
      "accel_val": 2000,
      "base_duration_us": 1810298
    },
    {
      "id": "M_1732",
      "pitch": 72,
      "t_note_us": 148964435,
      "t_trigger_us": 148828472,
      "is_ai": false,
      "track_id": 0,
      "velocity": 0,
      "is_motor": true,
      "motor_id": 0,
      "accel_val": 2000,
      "base_duration_us": 2068917
    },
    {
      "id": "M_1733",
      "pitch": 60,
      "t_note_us": 148964435,
      "t_trigger_us": 148828472,
      "is_ai": false,
      "track_id": 0,
      "velocity": 0,
      "is_motor": true,
      "motor_id": 0,
      "accel_val": 2000,
      "base_duration_us": 2068917
    },
    {
      "id": "M_1734",
      "pitch": 67,
      "t_note_us": 148964435,
      "t_trigger_us": 148828472,
      "is_ai": false,
      "track_id": 0,
      "velocity": 0,
      "is_motor": true,
      "motor_id": 0,
      "accel_val": 2000,
      "base_duration_us": 2068917
    },
    {
      "id": "M_1735",
      "pitch": 71,
      "t_note_us": 148964435,
      "t_trigger_us": 148828472,
      "is_ai": false,
      "track_id": 0,
      "velocity": 0,
      "is_motor": true,
      "motor_id": 0,
      "accel_val": 2000,
      "base_duration_us": 2068917
    },
    {
      "id": "M_1737",
      "pitch": 76,
      "t_note_us": 148964435,
      "t_trigger_us": 148828472,
      "is_ai": false,
      "track_id": 0,
      "velocity": 0,
      "is_motor": true,
      "motor_id": 0,
      "accel_val": 2000,
      "base_duration_us": 2068917
    },
    {
      "id": "M_1703",
      "pitch": 67,
      "t_note_us": 149223050,
      "t_trigger_us": 149087087,
      "is_ai": false,
      "track_id": 0,
      "velocity": 0,
      "is_motor": true,
      "motor_id": 1,
      "accel_val": 2000,
      "base_duration_us": 258613
    },
    {
      "id": "M_1704",
      "pitch": 67,
      "t_note_us": 149223050,
      "t_trigger_us": 149087087,
      "is_ai": false,
      "track_id": 0,
      "velocity": 0,
      "is_motor": true,
      "motor_id": 0,
      "accel_val": 2000,
      "base_duration_us": 258613
    },
    {
      "id": "M_1706",
      "pitch": 86,
      "t_note_us": 149481663,
      "t_trigger_us": 149345700,
      "is_ai": true,
      "track_id": 4,
      "velocity": 0,
      "is_motor": false,
      "motor_id": 0,
      "accel_val": 2000,
      "base_duration_us": 258608
    },
    {
      "id": "M_1707",
      "pitch": 72,
      "t_note_us": 149481663,
      "t_trigger_us": 149345700,
      "is_ai": false,
      "track_id": 0,
      "velocity": 0,
      "is_motor": true,
      "motor_id": 1,
      "accel_val": 2000,
      "base_duration_us": 258608
    },
    {
      "id": "M_1708",
      "pitch": 72,
      "t_note_us": 149481663,
      "t_trigger_us": 149345700,
      "is_ai": false,
      "track_id": 0,
      "velocity": 0,
      "is_motor": true,
      "motor_id": 0,
      "accel_val": 2000,
      "base_duration_us": 258608
    },
    {
      "id": "M_1715",
      "pitch": 56,
      "t_note_us": 149481663,
      "t_trigger_us": 149345700,
      "is_ai": false,
      "track_id": 0,
      "velocity": 0,
      "is_motor": true,
      "motor_id": 2,
      "accel_val": 2000,
      "base_duration_us": 517216
    },
    {
      "id": "M_1717",
      "pitch": 88,
      "t_note_us": 149740271,
      "t_trigger_us": 149604308,
      "is_ai": true,
      "track_id": 5,
      "velocity": 0,
      "is_motor": false,
      "motor_id": 0,
      "accel_val": 2000,
      "base_duration_us": 517225
    },
    {
      "id": "M_1711",
      "pitch": 76,
      "t_note_us": 149740271,
      "t_trigger_us": 149604308,
      "is_ai": false,
      "track_id": 0,
      "velocity": 0,
      "is_motor": true,
      "motor_id": 1,
      "accel_val": 2000,
      "base_duration_us": 258608
    },
    {
      "id": "M_1714",
      "pitch": 67,
      "t_note_us": 149740271,
      "t_trigger_us": 149604308,
      "is_ai": false,
      "track_id": 0,
      "velocity": 0,
      "is_motor": true,
      "motor_id": 0,
      "accel_val": 2000,
      "base_duration_us": 258608
    },
    {
      "id": "M_1718",
      "pitch": 88,
      "t_note_us": 149998879,
      "t_trigger_us": 149862916,
      "is_ai": true,
      "track_id": 5,
      "velocity": 0,
      "is_motor": false,
      "motor_id": 0,
      "accel_val": 2000,
      "base_duration_us": 258617
    },
    {
      "id": "M_1730",
      "pitch": 100,
      "t_note_us": 149998879,
      "t_trigger_us": 149862916,
      "is_ai": true,
      "track_id": 12,
      "velocity": 0,
      "is_motor": false,
      "motor_id": 0,
      "accel_val": 2000,
      "base_duration_us": 1034473
    },
    {
      "id": "M_1722",
      "pitch": 56,
      "t_note_us": 149998879,
      "t_trigger_us": 149862916,
      "is_ai": false,
      "track_id": 0,
      "velocity": 0,
      "is_motor": true,
      "motor_id": 0,
      "accel_val": 2000,
      "base_duration_us": 517236
    },
    {
      "id": "M_1727",
      "pitch": 52,
      "t_note_us": 149998879,
      "t_trigger_us": 149862916,
      "is_ai": false,
      "track_id": 0,
      "velocity": 0,
      "is_motor": true,
      "motor_id": 1,
      "accel_val": 2000,
      "base_duration_us": 775854
    },
    {
      "id": "M_1719",
      "pitch": 88,
      "t_note_us": 150257496,
      "t_trigger_us": 150121533,
      "is_ai": true,
      "track_id": 5,
      "velocity": 0,
      "is_motor": false,
      "motor_id": 0,
      "accel_val": 2000,
      "base_duration_us": 258619
    },
    {
      "id": "M_1720",
      "pitch": 79,
      "t_note_us": 150257496,
      "t_trigger_us": 150121533,
      "is_ai": true,
      "track_id": 0,
      "velocity": 0,
      "is_motor": false,
      "motor_id": 0,
      "accel_val": 2000,
      "base_duration_us": 258619
    },
    {
      "id": "M_1721",
      "pitch": 67,
      "t_note_us": 150257496,
      "t_trigger_us": 150121533,
      "is_ai": false,
      "track_id": 0,
      "velocity": 0,
      "is_motor": true,
      "motor_id": 2,
      "accel_val": 2000,
      "base_duration_us": 258619
    },
    {
      "id": "M_1723",
      "pitch": 91,
      "t_note_us": 150516115,
      "t_trigger_us": 150380152,
      "is_ai": true,
      "track_id": 7,
      "velocity": 0,
      "is_motor": false,
      "motor_id": 0,
      "accel_val": 2000,
      "base_duration_us": 258618
    },
    {
      "id": "M_1724",
      "pitch": 76,
      "t_note_us": 150516115,
      "t_trigger_us": 150380152,
      "is_ai": false,
      "track_id": 0,
      "velocity": 0,
      "is_motor": true,
      "motor_id": 2,
      "accel_val": 2000,
      "base_duration_us": 258618
    },
    {
      "id": "M_1726",
      "pitch": 72,
      "t_note_us": 150516115,
      "t_trigger_us": 150380152,
      "is_ai": false,
      "track_id": 0,
      "velocity": 0,
      "is_motor": true,
      "motor_id": 0,
      "accel_val": 2000,
      "base_duration_us": 258618
    },
    {
      "id": "M_1739",
      "pitch": 56,
      "t_note_us": 150516115,
      "t_trigger_us": 150380152,
      "is_ai": false,
      "track_id": 0,
      "velocity": 0,
      "is_motor": true,
      "motor_id": 3,
      "accel_val": 2000,
      "base_duration_us": 517237
    },
    {
      "id": "M_1728",
      "pitch": 84,
      "t_note_us": 150774733,
      "t_trigger_us": 150638770,
      "is_ai": true,
      "track_id": 3,
      "velocity": 0,
      "is_motor": false,
      "motor_id": 0,
      "accel_val": 2000,
      "base_duration_us": 258619
    },
    {
      "id": "M_1742",
      "pitch": 90,
      "t_note_us": 150774733,
      "t_trigger_us": 150638770,
      "is_ai": true,
      "track_id": 0,
      "velocity": 0,
      "is_motor": true,
      "motor_id": 2,
      "accel_val": 2000,
      "base_duration_us": 775856
    },
    {
      "id": "M_1729",
      "pitch": 48,
      "t_note_us": 150774733,
      "t_trigger_us": 150638770,
      "is_ai": false,
      "track_id": 0,
      "velocity": 0,
      "is_motor": true,
      "motor_id": 0,
      "accel_val": 2000,
      "base_duration_us": 258619
    },
    {
      "id": "M_1731",
      "pitch": 67,
      "t_note_us": 150774733,
      "t_trigger_us": 150638770,
      "is_ai": false,
      "track_id": 0,
      "velocity": 0,
      "is_motor": true,
      "motor_id": 1,
      "accel_val": 2000,
      "base_duration_us": 258619
    },
    {
      "id": "M_1738",
      "pitch": 50,
      "t_note_us": 150774733,
      "t_trigger_us": 150638770,
      "is_ai": false,
      "track_id": 0,
      "velocity": 0,
      "is_motor": true,
      "motor_id": 0,
      "accel_val": 2000,
      "base_duration_us": 258619
    },
    {
      "id": "M_1751",
      "pitch": 81,
      "t_note_us": 151033352,
      "t_trigger_us": 150897389,
      "is_ai": true,
      "track_id": 1,
      "velocity": 0,
      "is_motor": false,
      "motor_id": 0,
      "accel_val": 2000,
      "base_duration_us": 1034475
    },
    {
      "id": "M_1753",
      "pitch": 98,
      "t_note_us": 151033352,
      "t_trigger_us": 150897389,
      "is_ai": true,
      "track_id": 11,
      "velocity": 0,
      "is_motor": false,
      "motor_id": 0,
      "accel_val": 2000,
      "base_duration_us": 1034475
    },
    {
      "id": "M_1759",
      "pitch": 81,
      "t_note_us": 151033352,
      "t_trigger_us": 150897389,
      "is_ai": true,
      "track_id": 1,
      "velocity": 0,
      "is_motor": false,
      "motor_id": 0,
      "accel_val": 2000,
      "base_duration_us": 1034475
    },
    {
      "id": "M_1740",
      "pitch": 62,
      "t_note_us": 151033352,
      "t_trigger_us": 150897389,
      "is_ai": false,
      "track_id": 0,
      "velocity": 0,
      "is_motor": true,
      "motor_id": 1,
      "accel_val": 2000,
      "base_duration_us": 258619
    },
    {
      "id": "M_1741",
      "pitch": 62,
      "t_note_us": 151033352,
      "t_trigger_us": 150897389,
      "is_ai": false,
      "track_id": 0,
      "velocity": 0,
      "is_motor": true,
      "motor_id": 0,
      "accel_val": 2000,
      "base_duration_us": 258619
    },
    {
      "id": "M_1745",
      "pitch": 56,
      "t_note_us": 151033352,
      "t_trigger_us": 150897389,
      "is_ai": false,
      "track_id": 0,
      "velocity": 0,
      "is_motor": true,
      "motor_id": 3,
      "accel_val": 2000,
      "base_duration_us": 517237
    },
    {
      "id": "M_1750",
      "pitch": 78,
      "t_note_us": 151033352,
      "t_trigger_us": 150897389,
      "is_ai": false,
      "track_id": 0,
      "velocity": 0,
      "is_motor": true,
      "motor_id": 0,
      "accel_val": 2000,
      "base_duration_us": 1034475
    },
    {
      "id": "M_1752",
      "pitch": 50,
      "t_note_us": 151033352,
      "t_trigger_us": 150897389,
      "is_ai": false,
      "track_id": 0,
      "velocity": 0,
      "is_motor": true,
      "motor_id": 0,
      "accel_val": 2000,
      "base_duration_us": 1034475
    },
    {
      "id": "M_1755",
      "pitch": 74,
      "t_note_us": 151033352,
      "t_trigger_us": 150897389,
      "is_ai": false,
      "track_id": 0,
      "velocity": 0,
      "is_motor": true,
      "motor_id": 0,
      "accel_val": 2000,
      "base_duration_us": 1034475
    },
    {
      "id": "M_1756",
      "pitch": 62,
      "t_note_us": 151033352,
      "t_trigger_us": 150897389,
      "is_ai": false,
      "track_id": 0,
      "velocity": 0,
      "is_motor": true,
      "motor_id": 0,
      "accel_val": 2000,
      "base_duration_us": 1034475
    },
    {
      "id": "M_1757",
      "pitch": 74,
      "t_note_us": 151033352,
      "t_trigger_us": 150897389,
      "is_ai": false,
      "track_id": 0,
      "velocity": 0,
      "is_motor": true,
      "motor_id": 0,
      "accel_val": 2000,
      "base_duration_us": 1034475
    },
    {
      "id": "M_1758",
      "pitch": 78,
      "t_note_us": 151033352,
      "t_trigger_us": 150897389,
      "is_ai": false,
      "track_id": 0,
      "velocity": 0,
      "is_motor": true,
      "motor_id": 0,
      "accel_val": 2000,
      "base_duration_us": 1034475
    },
    {
      "id": "M_1761",
      "pitch": 50,
      "t_note_us": 151033352,
      "t_trigger_us": 150897389,
      "is_ai": false,
      "track_id": 0,
      "velocity": 0,
      "is_motor": true,
      "motor_id": 0,
      "accel_val": 2000,
      "base_duration_us": 1034475
    },
    {
      "id": "M_1743",
      "pitch": 69,
      "t_note_us": 151291971,
      "t_trigger_us": 151156008,
      "is_ai": false,
      "track_id": 0,
      "velocity": 0,
      "is_motor": true,
      "motor_id": 1,
      "accel_val": 2000,
      "base_duration_us": 258618
    },
    {
      "id": "M_1744",
      "pitch": 69,
      "t_note_us": 151291971,
      "t_trigger_us": 151156008,
      "is_ai": false,
      "track_id": 0,
      "velocity": 0,
      "is_motor": true,
      "motor_id": 0,
      "accel_val": 2000,
      "base_duration_us": 258618
    },
    {
      "id": "M_1746",
      "pitch": 88,
      "t_note_us": 151550589,
      "t_trigger_us": 151414626,
      "is_ai": true,
      "track_id": 5,
      "velocity": 0,
      "is_motor": false,
      "motor_id": 0,
      "accel_val": 2000,
      "base_duration_us": 258619
    },
    {
      "id": "M_1747",
      "pitch": 74,
      "t_note_us": 151550589,
      "t_trigger_us": 151414626,
      "is_ai": false,
      "track_id": 0,
      "velocity": 0,
      "is_motor": true,
      "motor_id": 1,
      "accel_val": 2000,
      "base_duration_us": 258619
    },
    {
      "id": "M_1748",
      "pitch": 74,
      "t_note_us": 151550589,
      "t_trigger_us": 151414626,
      "is_ai": false,
      "track_id": 0,
      "velocity": 0,
      "is_motor": true,
      "motor_id": 0,
      "accel_val": 2000,
      "base_duration_us": 258619
    },
    {
      "id": "M_1760",
      "pitch": 56,
      "t_note_us": 151550589,
      "t_trigger_us": 151414626,
      "is_ai": false,
      "track_id": 0,
      "velocity": 0,
      "is_motor": true,
      "motor_id": 2,
      "accel_val": 2000,
      "base_duration_us": 517238
    },
    {
      "id": "M_1754",
      "pitch": 90,
      "t_note_us": 151809208,
      "t_trigger_us": 151673245,
      "is_ai": true,
      "track_id": 0,
      "velocity": 0,
      "is_motor": true,
      "motor_id": 3,
      "accel_val": 2000,
      "base_duration_us": 258619
    },
    {
      "id": "M_1762",
      "pitch": 86,
      "t_note_us": 151809208,
      "t_trigger_us": 151673245,
      "is_ai": true,
      "track_id": 4,
      "velocity": 0,
      "is_motor": false,
      "motor_id": 0,
      "accel_val": 2000,
      "base_duration_us": 517238
    },
    {
      "id": "M_1749",
      "pitch": 69,
      "t_note_us": 151809208,
      "t_trigger_us": 151673245,
      "is_ai": false,
      "track_id": 0,
      "velocity": 0,
      "is_motor": true,
      "motor_id": 1,
      "accel_val": 2000,
      "base_duration_us": 258619
    },
    {
      "id": "M_1766",
      "pitch": 96,
      "t_note_us": 152067827,
      "t_trigger_us": 151931864,
      "is_ai": true,
      "track_id": 10,
      "velocity": 0,
      "is_motor": false,
      "motor_id": 0,
      "accel_val": 2000,
      "base_duration_us": 517237
    },
    {
      "id": "M_1782",
      "pitch": 84,
      "t_note_us": 152067827,
      "t_trigger_us": 151931864,
      "is_ai": true,
      "track_id": 3,
      "velocity": 0,
      "is_motor": false,
      "motor_id": 0,
      "accel_val": 2000,
      "base_duration_us": 1034473
    },
    {
      "id": "M_1763",
      "pitch": 60,
      "t_note_us": 152067827,
      "t_trigger_us": 151931864,
      "is_ai": false,
      "track_id": 0,
      "velocity": 0,
      "is_motor": true,
      "motor_id": 1,
      "accel_val": 2000,
      "base_duration_us": 258619
    },
    {
      "id": "M_1764",
      "pitch": 60,
      "t_note_us": 152067827,
      "t_trigger_us": 151931864,
      "is_ai": false,
      "track_id": 0,
      "velocity": 0,
      "is_motor": true,
      "motor_id": 0,
      "accel_val": 2000,
      "base_duration_us": 258619
    },
    {
      "id": "M_1768",
      "pitch": 56,
      "t_note_us": 152067827,
      "t_trigger_us": 151931864,
      "is_ai": false,
      "track_id": 0,
      "velocity": 0,
      "is_motor": true,
      "motor_id": 2,
      "accel_val": 2000,
      "base_duration_us": 517237
    },
    {
      "id": "M_1772",
      "pitch": 52,
      "t_note_us": 152067827,
      "t_trigger_us": 151931864,
      "is_ai": false,
      "track_id": 0,
      "velocity": 0,
      "is_motor": true,
      "motor_id": 3,
      "accel_val": 2000,
      "base_duration_us": 775855
    },
    {
      "id": "M_1774",
      "pitch": 76,
      "t_note_us": 152067827,
      "t_trigger_us": 151931864,
      "is_ai": false,
      "track_id": 0,
      "velocity": 0,
      "is_motor": true,
      "motor_id": 0,
      "accel_val": 2000,
      "base_duration_us": 1034473
    },
    {
      "id": "M_1775",
      "pitch": 67,
      "t_note_us": 152067827,
      "t_trigger_us": 151931864,
      "is_ai": false,
      "track_id": 0,
      "velocity": 0,
      "is_motor": true,
      "motor_id": 0,
      "accel_val": 2000,
      "base_duration_us": 1034473
    },
    {
      "id": "M_1776",
      "pitch": 48,
      "t_note_us": 152067827,
      "t_trigger_us": 151931864,
      "is_ai": false,
      "track_id": 0,
      "velocity": 0,
      "is_motor": true,
      "motor_id": 0,
      "accel_val": 2000,
      "base_duration_us": 1034473
    },
    {
      "id": "M_1779",
      "pitch": 72,
      "t_note_us": 152067827,
      "t_trigger_us": 151931864,
      "is_ai": false,
      "track_id": 0,
      "velocity": 0,
      "is_motor": true,
      "motor_id": 0,
      "accel_val": 2000,
      "base_duration_us": 1034473
    },
    {
      "id": "M_1780",
      "pitch": 60,
      "t_note_us": 152067827,
      "t_trigger_us": 151931864,
      "is_ai": false,
      "track_id": 0,
      "velocity": 0,
      "is_motor": true,
      "motor_id": 0,
      "accel_val": 2000,
      "base_duration_us": 1034473
    },
    {
      "id": "M_1781",
      "pitch": 76,
      "t_note_us": 152067827,
      "t_trigger_us": 151931864,
      "is_ai": false,
      "track_id": 0,
      "velocity": 0,
      "is_motor": true,
      "motor_id": 0,
      "accel_val": 2000,
      "base_duration_us": 1034473
    },
    {
      "id": "M_1783",
      "pitch": 67,
      "t_note_us": 152067827,
      "t_trigger_us": 151931864,
      "is_ai": false,
      "track_id": 0,
      "velocity": 0,
      "is_motor": true,
      "motor_id": 0,
      "accel_val": 2000,
      "base_duration_us": 1034473
    },
    {
      "id": "M_1769",
      "pitch": 96,
      "t_note_us": 152326446,
      "t_trigger_us": 152190483,
      "is_ai": true,
      "track_id": 10,
      "velocity": 0,
      "is_motor": false,
      "motor_id": 0,
      "accel_val": 2000,
      "base_duration_us": 517236
    },
    {
      "id": "M_1765",
      "pitch": 67,
      "t_note_us": 152326446,
      "t_trigger_us": 152190483,
      "is_ai": false,
      "track_id": 0,
      "velocity": 0,
      "is_motor": true,
      "motor_id": 1,
      "accel_val": 2000,
      "base_duration_us": 258618
    },
    {
      "id": "M_1767",
      "pitch": 67,
      "t_note_us": 152326446,
      "t_trigger_us": 152190483,
      "is_ai": false,
      "track_id": 0,
      "velocity": 0,
      "is_motor": true,
      "motor_id": 0,
      "accel_val": 2000,
      "base_duration_us": 258618
    },
    {
      "id": "M_1777",
      "pitch": 98,
      "t_note_us": 152585064,
      "t_trigger_us": 152449101,
      "is_ai": true,
      "track_id": 11,
      "velocity": 0,
      "is_motor": false,
      "motor_id": 0,
      "accel_val": 2000,
      "base_duration_us": 517236
    },
    {
      "id": "M_1770",
      "pitch": 72,
      "t_note_us": 152585064,
      "t_trigger_us": 152449101,
      "is_ai": false,
      "track_id": 0,
      "velocity": 0,
      "is_motor": true,
      "motor_id": 1,
      "accel_val": 2000,
      "base_duration_us": 258618
    },
    {
      "id": "M_1771",
      "pitch": 72,
      "t_note_us": 152585064,
      "t_trigger_us": 152449101,
      "is_ai": false,
      "track_id": 0,
      "velocity": 0,
      "is_motor": true,
      "motor_id": 0,
      "accel_val": 2000,
      "base_duration_us": 258618
    },
    {
      "id": "M_1785",
      "pitch": 56,
      "t_note_us": 152585064,
      "t_trigger_us": 152449101,
      "is_ai": false,
      "track_id": 0,
      "velocity": 0,
      "is_motor": true,
      "motor_id": 2,
      "accel_val": 2000,
      "base_duration_us": 517236
    },
    {
      "id": "M_1778",
      "pitch": 88,
      "t_note_us": 152843682,
      "t_trigger_us": 152707719,
      "is_ai": true,
      "track_id": 5,
      "velocity": 0,
      "is_motor": false,
      "motor_id": 0,
      "accel_val": 2000,
      "base_duration_us": 258618
    },
    {
      "id": "M_1793",
      "pitch": 95,
      "t_note_us": 152843682,
      "t_trigger_us": 152707719,
      "is_ai": true,
      "track_id": 9,
      "velocity": 0,
      "is_motor": false,
      "motor_id": 0,
      "accel_val": 2000,
      "base_duration_us": 1293090
    },
    {
      "id": "M_1773",
      "pitch": 67,
      "t_note_us": 152843682,
      "t_trigger_us": 152707719,
      "is_ai": false,
      "track_id": 0,
      "velocity": 0,
      "is_motor": true,
      "motor_id": 1,
      "accel_val": 2000,
      "base_duration_us": 258618
    },
    {
      "id": "M_1784",
      "pitch": 50,
      "t_note_us": 152843682,
      "t_trigger_us": 152707719,
      "is_ai": false,
      "track_id": 0,
      "velocity": 0,
      "is_motor": true,
      "motor_id": 0,
      "accel_val": 2000,
      "base_duration_us": 258618
    },
    {
      "id": "M_1798",
      "pitch": 95,
      "t_note_us": 153102300,
      "t_trigger_us": 152966337,
      "is_ai": true,
      "track_id": 9,
      "velocity": 0,
      "is_motor": false,
      "motor_id": 0,
      "accel_val": 2000,
      "base_duration_us": 1034472
    },
    {
      "id": "M_1802",
      "pitch": 83,
      "t_note_us": 153102300,
      "t_trigger_us": 152966337,
      "is_ai": true,
      "track_id": 2,
      "velocity": 0,
      "is_motor": false,
      "motor_id": 0,
      "accel_val": 2000,
      "base_duration_us": 1034472
    },
    {
      "id": "M_1786",
      "pitch": 59,
      "t_note_us": 153102300,
      "t_trigger_us": 152966337,
      "is_ai": false,
      "track_id": 0,
      "velocity": 0,
      "is_motor": true,
      "motor_id": 0,
      "accel_val": 2000,
      "base_duration_us": 258618
    },
    {
      "id": "M_1787",
      "pitch": 59,
      "t_note_us": 153102300,
      "t_trigger_us": 152966337,
      "is_ai": false,
      "track_id": 0,
      "velocity": 0,
      "is_motor": true,
      "motor_id": 1,
      "accel_val": 2000,
      "base_duration_us": 258618
    },
    {
      "id": "M_1790",
      "pitch": 56,
      "t_note_us": 153102300,
      "t_trigger_us": 152966337,
      "is_ai": false,
      "track_id": 0,
      "velocity": 0,
      "is_motor": true,
      "motor_id": 2,
      "accel_val": 2000,
      "base_duration_us": 517236
    },
    {
      "id": "M_1795",
      "pitch": 78,
      "t_note_us": 153102300,
      "t_trigger_us": 152966337,
      "is_ai": false,
      "track_id": 0,
      "velocity": 0,
      "is_motor": true,
      "motor_id": 3,
      "accel_val": 2000,
      "base_duration_us": 1034472
    },
    {
      "id": "M_1796",
      "pitch": 74,
      "t_note_us": 153102300,
      "t_trigger_us": 152966337,
      "is_ai": false,
      "track_id": 0,
      "velocity": 0,
      "is_motor": true,
      "motor_id": 0,
      "accel_val": 2000,
      "base_duration_us": 1034472
    },
    {
      "id": "M_1797",
      "pitch": 47,
      "t_note_us": 153102300,
      "t_trigger_us": 152966337,
      "is_ai": false,
      "track_id": 0,
      "velocity": 0,
      "is_motor": true,
      "motor_id": 0,
      "accel_val": 2000,
      "base_duration_us": 1034472
    },
    {
      "id": "M_1800",
      "pitch": 71,
      "t_note_us": 153102300,
      "t_trigger_us": 152966337,
      "is_ai": false,
      "track_id": 0,
      "velocity": 0,
      "is_motor": true,
      "motor_id": 0,
      "accel_val": 2000,
      "base_duration_us": 1034472
    },
    {
      "id": "M_1801",
      "pitch": 59,
      "t_note_us": 153102300,
      "t_trigger_us": 152966337,
      "is_ai": false,
      "track_id": 0,
      "velocity": 0,
      "is_motor": true,
      "motor_id": 0,
      "accel_val": 2000,
      "base_duration_us": 1034472
    },
    {
      "id": "M_1803",
      "pitch": 74,
      "t_note_us": 153102300,
      "t_trigger_us": 152966337,
      "is_ai": false,
      "track_id": 0,
      "velocity": 0,
      "is_motor": true,
      "motor_id": 0,
      "accel_val": 2000,
      "base_duration_us": 1034472
    },
    {
      "id": "M_1804",
      "pitch": 78,
      "t_note_us": 153102300,
      "t_trigger_us": 152966337,
      "is_ai": false,
      "track_id": 0,
      "velocity": 0,
      "is_motor": true,
      "motor_id": 0,
      "accel_val": 2000,
      "base_duration_us": 1034472
    },
    {
      "id": "M_1806",
      "pitch": 50,
      "t_note_us": 153102300,
      "t_trigger_us": 152966337,
      "is_ai": false,
      "track_id": 0,
      "velocity": 0,
      "is_motor": true,
      "motor_id": 0,
      "accel_val": 2000,
      "base_duration_us": 1034472
    },
    {
      "id": "M_1788",
      "pitch": 66,
      "t_note_us": 153360918,
      "t_trigger_us": 153224955,
      "is_ai": false,
      "track_id": 0,
      "velocity": 0,
      "is_motor": true,
      "motor_id": 1,
      "accel_val": 2000,
      "base_duration_us": 258618
    },
    {
      "id": "M_1789",
      "pitch": 66,
      "t_note_us": 153360918,
      "t_trigger_us": 153224955,
      "is_ai": false,
      "track_id": 0,
      "velocity": 0,
      "is_motor": true,
      "motor_id": 0,
      "accel_val": 2000,
      "base_duration_us": 258618
    },
    {
      "id": "M_1791",
      "pitch": 71,
      "t_note_us": 153619536,
      "t_trigger_us": 153483573,
      "is_ai": false,
      "track_id": 0,
      "velocity": 0,
      "is_motor": true,
      "motor_id": 1,
      "accel_val": 2000,
      "base_duration_us": 258618
    },
    {
      "id": "M_1792",
      "pitch": 71,
      "t_note_us": 153619536,
      "t_trigger_us": 153483573,
      "is_ai": false,
      "track_id": 0,
      "velocity": 0,
      "is_motor": true,
      "motor_id": 2,
      "accel_val": 2000,
      "base_duration_us": 258618
    },
    {
      "id": "M_1805",
      "pitch": 56,
      "t_note_us": 153619536,
      "t_trigger_us": 153483573,
      "is_ai": false,
      "track_id": 0,
      "velocity": 0,
      "is_motor": true,
      "motor_id": 0,
      "accel_val": 2000,
      "base_duration_us": 517236
    },
    {
      "id": "M_1794",
      "pitch": 66,
      "t_note_us": 153878154,
      "t_trigger_us": 153742191,
      "is_ai": false,
      "track_id": 0,
      "velocity": 0,
      "is_motor": true,
      "motor_id": 1,
      "accel_val": 2000,
      "base_duration_us": 258618
    },
    {
      "id": "M_1799",
      "pitch": 74,
      "t_note_us": 153878154,
      "t_trigger_us": 153742191,
      "is_ai": false,
      "track_id": 0,
      "velocity": 0,
      "is_motor": true,
      "motor_id": 2,
      "accel_val": 2000,
      "base_duration_us": 258618
    },
    {
      "id": "M_1819",
      "pitch": 83,
      "t_note_us": 154136772,
      "t_trigger_us": 154000809,
      "is_ai": true,
      "track_id": 2,
      "velocity": 0,
      "is_motor": false,
      "motor_id": 0,
      "accel_val": 2000,
      "base_duration_us": 1034473
    },
    {
      "id": "M_1822",
      "pitch": 93,
      "t_note_us": 154136772,
      "t_trigger_us": 154000809,
      "is_ai": true,
      "track_id": 8,
      "velocity": 0,
      "is_motor": false,
      "motor_id": 0,
      "accel_val": 2000,
      "base_duration_us": 1034473
    },
    {
      "id": "M_1826",
      "pitch": 83,
      "t_note_us": 154136772,
      "t_trigger_us": 154000809,
      "is_ai": true,
      "track_id": 2,
      "velocity": 0,
      "is_motor": false,
      "motor_id": 0,
      "accel_val": 2000,
      "base_duration_us": 1034473
    },
    {
      "id": "M_1807",
      "pitch": 59,
      "t_note_us": 154136772,
      "t_trigger_us": 154000809,
      "is_ai": false,
      "track_id": 0,
      "velocity": 0,
      "is_motor": true,
      "motor_id": 0,
      "accel_val": 2000,
      "base_duration_us": 258618
    },
    {
      "id": "M_1808",
      "pitch": 59,
      "t_note_us": 154136772,
      "t_trigger_us": 154000809,
      "is_ai": false,
      "track_id": 0,
      "velocity": 0,
      "is_motor": true,
      "motor_id": 1,
      "accel_val": 2000,
      "base_duration_us": 258618
    },
    {
      "id": "M_1812",
      "pitch": 56,
      "t_note_us": 154136772,
      "t_trigger_us": 154000809,
      "is_ai": false,
      "track_id": 0,
      "velocity": 0,
      "is_motor": true,
      "motor_id": 2,
      "accel_val": 2000,
      "base_duration_us": 517238
    },
    {
      "id": "M_1816",
      "pitch": 52,
      "t_note_us": 154136772,
      "t_trigger_us": 154000809,
      "is_ai": false,
      "track_id": 0,
      "velocity": 0,
      "is_motor": true,
      "motor_id": 3,
      "accel_val": 2000,
      "base_duration_us": 775856
    },
    {
      "id": "M_1818",
      "pitch": 78,
      "t_note_us": 154136772,
      "t_trigger_us": 154000809,
      "is_ai": false,
      "track_id": 0,
      "velocity": 0,
      "is_motor": true,
      "motor_id": 0,
      "accel_val": 2000,
      "base_duration_us": 1034473
    },
    {
      "id": "M_1820",
      "pitch": 75,
      "t_note_us": 154136772,
      "t_trigger_us": 154000809,
      "is_ai": false,
      "track_id": 0,
      "velocity": 0,
      "is_motor": true,
      "motor_id": 0,
      "accel_val": 2000,
      "base_duration_us": 1034473
    },
    {
      "id": "M_1821",
      "pitch": 51,
      "t_note_us": 154136772,
      "t_trigger_us": 154000809,
      "is_ai": false,
      "track_id": 0,
      "velocity": 0,
      "is_motor": true,
      "motor_id": 0,
      "accel_val": 2000,
      "base_duration_us": 1034473
    },
    {
      "id": "M_1824",
      "pitch": 75,
      "t_note_us": 154136772,
      "t_trigger_us": 154000809,
      "is_ai": false,
      "track_id": 0,
      "velocity": 0,
      "is_motor": true,
      "motor_id": 0,
      "accel_val": 2000,
      "base_duration_us": 1034473
    },
    {
      "id": "M_1825",
      "pitch": 63,
      "t_note_us": 154136772,
      "t_trigger_us": 154000809,
      "is_ai": false,
      "track_id": 0,
      "velocity": 0,
      "is_motor": true,
      "motor_id": 0,
      "accel_val": 2000,
      "base_duration_us": 1034473
    },
    {
      "id": "M_1827",
      "pitch": 78,
      "t_note_us": 154136772,
      "t_trigger_us": 154000809,
      "is_ai": false,
      "track_id": 0,
      "velocity": 0,
      "is_motor": true,
      "motor_id": 0,
      "accel_val": 2000,
      "base_duration_us": 1034473
    },
    {
      "id": "M_1828",
      "pitch": 75,
      "t_note_us": 154136772,
      "t_trigger_us": 154000809,
      "is_ai": false,
      "track_id": 0,
      "velocity": 0,
      "is_motor": true,
      "motor_id": 0,
      "accel_val": 2000,
      "base_duration_us": 1034473
    },
    {
      "id": "M_1809",
      "pitch": 95,
      "t_note_us": 154395390,
      "t_trigger_us": 154259427,
      "is_ai": true,
      "track_id": 9,
      "velocity": 0,
      "is_motor": false,
      "motor_id": 0,
      "accel_val": 2000,
      "base_duration_us": 258620
    },
    {
      "id": "M_1810",
      "pitch": 63,
      "t_note_us": 154395390,
      "t_trigger_us": 154259427,
      "is_ai": false,
      "track_id": 0,
      "velocity": 0,
      "is_motor": true,
      "motor_id": 1,
      "accel_val": 2000,
      "base_duration_us": 258620
    },
    {
      "id": "M_1811",
      "pitch": 63,
      "t_note_us": 154395390,
      "t_trigger_us": 154259427,
      "is_ai": false,
      "track_id": 0,
      "velocity": 0,
      "is_motor": true,
      "motor_id": 0,
      "accel_val": 2000,
      "base_duration_us": 258620
    },
    {
      "id": "M_1813",
      "pitch": 96,
      "t_note_us": 154654010,
      "t_trigger_us": 154518047,
      "is_ai": true,
      "track_id": 10,
      "velocity": 0,
      "is_motor": false,
      "motor_id": 0,
      "accel_val": 2000,
      "base_duration_us": 258618
    },
    {
      "id": "M_1814",
      "pitch": 66,
      "t_note_us": 154654010,
      "t_trigger_us": 154518047,
      "is_ai": false,
      "track_id": 0,
      "velocity": 0,
      "is_motor": true,
      "motor_id": 1,
      "accel_val": 2000,
      "base_duration_us": 258618
    },
    {
      "id": "M_1815",
      "pitch": 66,
      "t_note_us": 154654010,
      "t_trigger_us": 154518047,
      "is_ai": false,
      "track_id": 0,
      "velocity": 0,
      "is_motor": true,
      "motor_id": 2,
      "accel_val": 2000,
      "base_duration_us": 258618
    },
    {
      "id": "M_1830",
      "pitch": 56,
      "t_note_us": 154654010,
      "t_trigger_us": 154518047,
      "is_ai": false,
      "track_id": 0,
      "velocity": 0,
      "is_motor": true,
      "motor_id": 0,
      "accel_val": 2000,
      "base_duration_us": 517235
    },
    {
      "id": "M_1832",
      "pitch": 95,
      "t_note_us": 154912628,
      "t_trigger_us": 154776665,
      "is_ai": true,
      "track_id": 9,
      "velocity": 0,
      "is_motor": false,
      "motor_id": 0,
      "accel_val": 2000,
      "base_duration_us": 775855
    },
    {
      "id": "M_1817",
      "pitch": 71,
      "t_note_us": 154912628,
      "t_trigger_us": 154776665,
      "is_ai": false,
      "track_id": 0,
      "velocity": 0,
      "is_motor": true,
      "motor_id": 1,
      "accel_val": 2000,
      "base_duration_us": 258617
    },
    {
      "id": "M_1823",
      "pitch": 71,
      "t_note_us": 154912628,
      "t_trigger_us": 154776665,
      "is_ai": false,
      "track_id": 0,
      "velocity": 0,
      "is_motor": true,
      "motor_id": 2,
      "accel_val": 2000,
      "base_duration_us": 258617
    },
    {
      "id": "M_1829",
      "pitch": 50,
      "t_note_us": 154912628,
      "t_trigger_us": 154776665,
      "is_ai": false,
      "track_id": 0,
      "velocity": 0,
      "is_motor": true,
      "motor_id": 3,
      "accel_val": 2000,
      "base_duration_us": 258617
    },
    {
      "id": "M_1840",
      "pitch": 83,
      "t_note_us": 155171245,
      "t_trigger_us": 155035282,
      "is_ai": true,
      "track_id": 2,
      "velocity": 0,
      "is_motor": false,
      "motor_id": 0,
      "accel_val": 2000,
      "base_duration_us": 1034476
    },
    {
      "id": "M_1857",
      "pitch": 91,
      "t_note_us": 155171245,
      "t_trigger_us": 155035282,
      "is_ai": true,
      "track_id": 7,
      "velocity": 0,
      "is_motor": false,
      "motor_id": 0,
      "accel_val": 2000,
      "base_duration_us": 2068947
    },
    {
      "id": "M_1862",
      "pitch": 83,
      "t_note_us": 155171245,
      "t_trigger_us": 155035282,
      "is_ai": true,
      "track_id": 2,
      "velocity": 0,
      "is_motor": false,
      "motor_id": 0,
      "accel_val": 2000,
      "base_duration_us": 2068947
    },
    {
      "id": "M_1831",
      "pitch": 64,
      "t_note_us": 155171245,
      "t_trigger_us": 155035282,
      "is_ai": false,
      "track_id": 0,
      "velocity": 0,
      "is_motor": true,
      "motor_id": 1,
      "accel_val": 2000,
      "base_duration_us": 258620
    },
    {
      "id": "M_1833",
      "pitch": 64,
      "t_note_us": 155171245,
      "t_trigger_us": 155035282,
      "is_ai": false,
      "track_id": 0,
      "velocity": 0,
      "is_motor": true,
      "motor_id": 0,
      "accel_val": 2000,
      "base_duration_us": 517238
    },
    {
      "id": "M_1835",
      "pitch": 56,
      "t_note_us": 155171245,
      "t_trigger_us": 155035282,
      "is_ai": false,
      "track_id": 0,
      "velocity": 0,
      "is_motor": true,
      "motor_id": 2,
      "accel_val": 2000,
      "base_duration_us": 517238
    },
    {
      "id": "M_1841",
      "pitch": 67,
      "t_note_us": 155171245,
      "t_trigger_us": 155035282,
      "is_ai": false,
      "track_id": 0,
      "velocity": 0,
      "is_motor": true,
      "motor_id": 3,
      "accel_val": 2000,
      "base_duration_us": 1034476
    },
    {
      "id": "M_1844",
      "pitch": 50,
      "t_note_us": 155171245,
      "t_trigger_us": 155035282,
      "is_ai": false,
      "track_id": 0,
      "velocity": 0,
      "is_motor": true,
      "motor_id": 0,
      "accel_val": 2000,
      "base_duration_us": 1034476
    },
    {
      "id": "M_1851",
      "pitch": 52,
      "t_note_us": 155171245,
      "t_trigger_us": 155035282,
      "is_ai": false,
      "track_id": 0,
      "velocity": 0,
      "is_motor": true,
      "motor_id": 0,
      "accel_val": 2000,
      "base_duration_us": 1810330
    },
    {
      "id": "M_1859",
      "pitch": 76,
      "t_note_us": 155171245,
      "t_trigger_us": 155035282,
      "is_ai": false,
      "track_id": 0,
      "velocity": 0,
      "is_motor": true,
      "motor_id": 0,
      "accel_val": 2000,
      "base_duration_us": 2068947
    },
    {
      "id": "M_1860",
      "pitch": 64,
      "t_note_us": 155171245,
      "t_trigger_us": 155035282,
      "is_ai": false,
      "track_id": 0,
      "velocity": 0,
      "is_motor": true,
      "motor_id": 0,
      "accel_val": 2000,
      "base_duration_us": 2068947
    },
    {
      "id": "M_1861",
      "pitch": 76,
      "t_note_us": 155171245,
      "t_trigger_us": 155035282,
      "is_ai": false,
      "track_id": 0,
      "velocity": 0,
      "is_motor": true,
      "motor_id": 0,
      "accel_val": 2000,
      "base_duration_us": 2068947
    },
    {
      "id": "M_1863",
      "pitch": 67,
      "t_note_us": 155171245,
      "t_trigger_us": 155035282,
      "is_ai": false,
      "track_id": 0,
      "velocity": 0,
      "is_motor": true,
      "motor_id": 0,
      "accel_val": 2000,
      "base_duration_us": 2068947
    },
    {
      "id": "M_1834",
      "pitch": 71,
      "t_note_us": 155429865,
      "t_trigger_us": 155293902,
      "is_ai": false,
      "track_id": 0,
      "velocity": 0,
      "is_motor": true,
      "motor_id": 1,
      "accel_val": 2000,
      "base_duration_us": 258618
    },
    {
      "id": "M_1836",
      "pitch": 93,
      "t_note_us": 155688483,
      "t_trigger_us": 155552520,
      "is_ai": true,
      "track_id": 8,
      "velocity": 0,
      "is_motor": false,
      "motor_id": 0,
      "accel_val": 2000,
      "base_duration_us": 258619
    },
    {
      "id": "M_1837",
      "pitch": 71,
      "t_note_us": 155688483,
      "t_trigger_us": 155552520,
      "is_ai": false,
      "track_id": 0,
      "velocity": 0,
      "is_motor": true,
      "motor_id": 1,
      "accel_val": 2000,
      "base_duration_us": 258619
    },
    {
      "id": "M_1838",
      "pitch": 76,
      "t_note_us": 155688483,
      "t_trigger_us": 155552520,
      "is_ai": false,
      "track_id": 0,
      "velocity": 0,
      "is_motor": true,
      "motor_id": 2,
      "accel_val": 2000,
      "base_duration_us": 258619
    },
    {
      "id": "M_1843",
      "pitch": 56,
      "t_note_us": 155688483,
      "t_trigger_us": 155552520,
      "is_ai": false,
      "track_id": 0,
      "velocity": 0,
      "is_motor": true,
      "motor_id": 0,
      "accel_val": 2000,
      "base_duration_us": 517238
    },
    {
      "id": "M_1839",
      "pitch": 88,
      "t_note_us": 155947102,
      "t_trigger_us": 155811139,
      "is_ai": true,
      "track_id": 5,
      "velocity": 0,
      "is_motor": false,
      "motor_id": 0,
      "accel_val": 2000,
      "base_duration_us": 258619
    },
    {
      "id": "M_1845",
      "pitch": 91,
      "t_note_us": 155947102,
      "t_trigger_us": 155811139,
      "is_ai": true,
      "track_id": 7,
      "velocity": 0,
      "is_motor": false,
      "motor_id": 0,
      "accel_val": 2000,
      "base_duration_us": 517237
    },
    {
      "id": "M_1842",
      "pitch": 71,
      "t_note_us": 155947102,
      "t_trigger_us": 155811139,
      "is_ai": false,
      "track_id": 0,
      "velocity": 0,
      "is_motor": true,
      "motor_id": 1,
      "accel_val": 2000,
      "base_duration_us": 258619
    },
    {
      "id": "M_1846",
      "pitch": 79,
      "t_note_us": 156205721,
      "t_trigger_us": 156069758,
      "is_ai": true,
      "track_id": 0,
      "velocity": 0,
      "is_motor": false,
      "motor_id": 0,
      "accel_val": 2000,
      "base_duration_us": 258618
    },
    {
      "id": "M_1849",
      "pitch": 56,
      "t_note_us": 156205721,
      "t_trigger_us": 156069758,
      "is_ai": false,
      "track_id": 0,
      "velocity": 0,
      "is_motor": true,
      "motor_id": 0,
      "accel_val": 2000,
      "base_duration_us": 517237
    },
    {
      "id": "M_1853",
      "pitch": 52,
      "t_note_us": 156205721,
      "t_trigger_us": 156069758,
      "is_ai": false,
      "track_id": 0,
      "velocity": 0,
      "is_motor": true,
      "motor_id": 1,
      "accel_val": 2000,
      "base_duration_us": 775854
    },
    {
      "id": "M_1847",
      "pitch": 88,
      "t_note_us": 156464339,
      "t_trigger_us": 156328376,
      "is_ai": true,
      "track_id": 5,
      "velocity": 0,
      "is_motor": false,
      "motor_id": 0,
      "accel_val": 2000,
      "base_duration_us": 258619
    },
    {
      "id": "M_1854",
      "pitch": 93,
      "t_note_us": 156464339,
      "t_trigger_us": 156328376,
      "is_ai": true,
      "track_id": 8,
      "velocity": 0,
      "is_motor": false,
      "motor_id": 0,
      "accel_val": 2000,
      "base_duration_us": 775853
    },
    {
      "id": "M_1848",
      "pitch": 71,
      "t_note_us": 156464339,
      "t_trigger_us": 156328376,
      "is_ai": false,
      "track_id": 0,
      "velocity": 0,
      "is_motor": true,
      "motor_id": 2,
      "accel_val": 2000,
      "base_duration_us": 258619
    },
    {
      "id": "M_1850",
      "pitch": 90,
      "t_note_us": 156722958,
      "t_trigger_us": 156586995,
      "is_ai": true,
      "track_id": 0,
      "velocity": 0,
      "is_motor": true,
      "motor_id": 3,
      "accel_val": 2000,
      "base_duration_us": 258617
    },
    {
      "id": "M_1852",
      "pitch": 88,
      "t_note_us": 156722958,
      "t_trigger_us": 156586995,
      "is_ai": true,
      "track_id": 5,
      "velocity": 0,
      "is_motor": false,
      "motor_id": 0,
      "accel_val": 2000,
      "base_duration_us": 258617
    },
    {
      "id": "M_1865",
      "pitch": 56,
      "t_note_us": 156722958,
      "t_trigger_us": 156586995,
      "is_ai": false,
      "track_id": 0,
      "velocity": 0,
      "is_motor": true,
      "motor_id": 0,
      "accel_val": 2000,
      "base_duration_us": 517234
    },
    {
      "id": "M_1855",
      "pitch": 91,
      "t_note_us": 156981575,
      "t_trigger_us": 156845612,
      "is_ai": true,
      "track_id": 7,
      "velocity": 0,
      "is_motor": false,
      "motor_id": 0,
      "accel_val": 2000,
      "base_duration_us": 258617
    },
    {
      "id": "M_1856",
      "pitch": 52,
      "t_note_us": 156981575,
      "t_trigger_us": 156845612,
      "is_ai": false,
      "track_id": 0,
      "velocity": 0,
      "is_motor": true,
      "motor_id": 1,
      "accel_val": 2000,
      "base_duration_us": 258617
    },
    {
      "id": "M_1858",
      "pitch": 71,
      "t_note_us": 156981575,
      "t_trigger_us": 156845612,
      "is_ai": false,
      "track_id": 0,
      "velocity": 0,
      "is_motor": true,
      "motor_id": 2,
      "accel_val": 2000,
      "base_duration_us": 258617
    },
    {
      "id": "M_1864",
      "pitch": 50,
      "t_note_us": 156981575,
      "t_trigger_us": 156845612,
      "is_ai": false,
      "track_id": 0,
      "velocity": 0,
      "is_motor": true,
      "motor_id": 3,
      "accel_val": 2000,
      "base_duration_us": 258617
    },
    {
      "id": "M_1867",
      "pitch": 90,
      "t_note_us": 157240192,
      "t_trigger_us": 157104229,
      "is_ai": true,
      "track_id": 0,
      "velocity": 0,
      "is_motor": true,
      "motor_id": 3,
      "accel_val": 2000,
      "base_duration_us": 517240
    },
    {
      "id": "M_1874",
      "pitch": 90,
      "t_note_us": 157240192,
      "t_trigger_us": 157104229,
      "is_ai": true,
      "track_id": 0,
      "velocity": 0,
      "is_motor": true,
      "motor_id": 2,
      "accel_val": 2000,
      "base_duration_us": 1034477
    },
    {
      "id": "M_1879",
      "pitch": 90,
      "t_note_us": 157240192,
      "t_trigger_us": 157104229,
      "is_ai": true,
      "track_id": 0,
      "velocity": 0,
      "is_motor": true,
      "motor_id": 1,
      "accel_val": 2000,
      "base_duration_us": 1551716
    },
    {
      "id": "M_1895",
      "pitch": 83,
      "t_note_us": 157240192,
      "t_trigger_us": 157104229,
      "is_ai": true,
      "track_id": 2,
      "velocity": 0,
      "is_motor": false,
      "motor_id": 0,
      "accel_val": 2000,
      "base_duration_us": 2068953
    },
    {
      "id": "M_1866",
      "pitch": 59,
      "t_note_us": 157240192,
      "t_trigger_us": 157104229,
      "is_ai": false,
      "track_id": 0,
      "velocity": 0,
      "is_motor": true,
      "motor_id": 0,
      "accel_val": 2000,
      "base_duration_us": 258620
    },
    {
      "id": "M_1869",
      "pitch": 56,
      "t_note_us": 157240192,
      "t_trigger_us": 157104229,
      "is_ai": false,
      "track_id": 0,
      "velocity": 0,
      "is_motor": true,
      "motor_id": 0,
      "accel_val": 2000,
      "base_duration_us": 517240
    },
    {
      "id": "M_1872",
      "pitch": 59,
      "t_note_us": 157240192,
      "t_trigger_us": 157104229,
      "is_ai": false,
      "track_id": 0,
      "velocity": 0,
      "is_motor": true,
      "motor_id": 0,
      "accel_val": 2000,
      "base_duration_us": 1034477
    },
    {
      "id": "M_1873",
      "pitch": 71,
      "t_note_us": 157240192,
      "t_trigger_us": 157104229,
      "is_ai": false,
      "track_id": 0,
      "velocity": 0,
      "is_motor": true,
      "motor_id": 0,
      "accel_val": 2000,
      "base_duration_us": 1034477
    },
    {
      "id": "M_1877",
      "pitch": 50,
      "t_note_us": 157240192,
      "t_trigger_us": 157104229,
      "is_ai": false,
      "track_id": 0,
      "velocity": 0,
      "is_motor": true,
      "motor_id": 0,
      "accel_val": 2000,
      "base_duration_us": 1034477
    },
    {
      "id": "M_1883",
      "pitch": 47,
      "t_note_us": 157240192,
      "t_trigger_us": 157104229,
      "is_ai": false,
      "track_id": 0,
      "velocity": 0,
      "is_motor": true,
      "motor_id": 0,
      "accel_val": 2000,
      "base_duration_us": 1810335
    },
    {
      "id": "M_1893",
      "pitch": 71,
      "t_note_us": 157240192,
      "t_trigger_us": 157104229,
      "is_ai": false,
      "track_id": 0,
      "velocity": 0,
      "is_motor": true,
      "motor_id": 0,
      "accel_val": 2000,
      "base_duration_us": 2068953
    },
    {
      "id": "M_1894",
      "pitch": 59,
      "t_note_us": 157240192,
      "t_trigger_us": 157104229,
      "is_ai": false,
      "track_id": 0,
      "velocity": 0,
      "is_motor": true,
      "motor_id": 0,
      "accel_val": 2000,
      "base_duration_us": 2068953
    },
    {
      "id": "M_1896",
      "pitch": 78,
      "t_note_us": 157240192,
      "t_trigger_us": 157104229,
      "is_ai": false,
      "track_id": 0,
      "velocity": 0,
      "is_motor": true,
      "motor_id": 0,
      "accel_val": 2000,
      "base_duration_us": 2068953
    },
    {
      "id": "M_1897",
      "pitch": 74,
      "t_note_us": 157240192,
      "t_trigger_us": 157104229,
      "is_ai": false,
      "track_id": 0,
      "velocity": 0,
      "is_motor": true,
      "motor_id": 0,
      "accel_val": 2000,
      "base_duration_us": 2068953
    },
    {
      "id": "M_1868",
      "pitch": 66,
      "t_note_us": 157498812,
      "t_trigger_us": 157362849,
      "is_ai": false,
      "track_id": 0,
      "velocity": 0,
      "is_motor": true,
      "motor_id": 0,
      "accel_val": 2000,
      "base_duration_us": 258620
    },
    {
      "id": "M_1870",
      "pitch": 88,
      "t_note_us": 157757432,
      "t_trigger_us": 157621469,
      "is_ai": true,
      "track_id": 5,
      "velocity": 0,
      "is_motor": false,
      "motor_id": 0,
      "accel_val": 2000,
      "base_duration_us": 258618
    },
    {
      "id": "M_1871",
      "pitch": 71,
      "t_note_us": 157757432,
      "t_trigger_us": 157621469,
      "is_ai": false,
      "track_id": 0,
      "velocity": 0,
      "is_motor": true,
      "motor_id": 0,
      "accel_val": 2000,
      "base_duration_us": 258618
    },
    {
      "id": "M_1876",
      "pitch": 56,
      "t_note_us": 157757432,
      "t_trigger_us": 157621469,
      "is_ai": false,
      "track_id": 0,
      "velocity": 0,
      "is_motor": true,
      "motor_id": 3,
      "accel_val": 2000,
      "base_duration_us": 517237
    },
    {
      "id": "M_1882",
      "pitch": 86,
      "t_note_us": 158016050,
      "t_trigger_us": 157880087,
      "is_ai": true,
      "track_id": 4,
      "velocity": 0,
      "is_motor": false,
      "motor_id": 0,
      "accel_val": 2000,
      "base_duration_us": 1034477
    },
    {
      "id": "M_1875",
      "pitch": 66,
      "t_note_us": 158016050,
      "t_trigger_us": 157880087,
      "is_ai": false,
      "track_id": 0,
      "velocity": 0,
      "is_motor": true,
      "motor_id": 0,
      "accel_val": 2000,
      "base_duration_us": 258619
    },
    {
      "id": "M_1878",
      "pitch": 86,
      "t_note_us": 158274669,
      "t_trigger_us": 158138706,
      "is_ai": true,
      "track_id": 4,
      "velocity": 0,
      "is_motor": false,
      "motor_id": 0,
      "accel_val": 2000,
      "base_duration_us": 258620
    },
    {
      "id": "M_1887",
      "pitch": 86,
      "t_note_us": 158274669,
      "t_trigger_us": 158138706,
      "is_ai": true,
      "track_id": 4,
      "velocity": 0,
      "is_motor": false,
      "motor_id": 0,
      "accel_val": 2000,
      "base_duration_us": 1034476
    },
    {
      "id": "M_1888",
      "pitch": 90,
      "t_note_us": 158274669,
      "t_trigger_us": 158138706,
      "is_ai": true,
      "track_id": 0,
      "velocity": 0,
      "is_motor": true,
      "motor_id": 3,
      "accel_val": 2000,
      "base_duration_us": 1034476
    },
    {
      "id": "M_1889",
      "pitch": 93,
      "t_note_us": 158274669,
      "t_trigger_us": 158138706,
      "is_ai": true,
      "track_id": 8,
      "velocity": 0,
      "is_motor": false,
      "motor_id": 0,
      "accel_val": 2000,
      "base_duration_us": 1034476
    },
    {
      "id": "M_1881",
      "pitch": 56,
      "t_note_us": 158274669,
      "t_trigger_us": 158138706,
      "is_ai": false,
      "track_id": 0,
      "velocity": 0,
      "is_motor": true,
      "motor_id": 0,
      "accel_val": 2000,
      "base_duration_us": 517239
    },
    {
      "id": "M_1885",
      "pitch": 52,
      "t_note_us": 158274669,
      "t_trigger_us": 158138706,
      "is_ai": false,
      "track_id": 0,
      "velocity": 0,
      "is_motor": true,
      "motor_id": 2,
      "accel_val": 2000,
      "base_duration_us": 775858
    },
    {
      "id": "M_1880",
      "pitch": 66,
      "t_note_us": 158533289,
      "t_trigger_us": 158397326,
      "is_ai": false,
      "track_id": 0,
      "velocity": 0,
      "is_motor": true,
      "motor_id": 0,
      "accel_val": 2000,
      "base_duration_us": 258619
    },
    {
      "id": "M_1891",
      "pitch": 86,
      "t_note_us": 158791908,
      "t_trigger_us": 158655945,
      "is_ai": true,
      "track_id": 4,
      "velocity": 0,
      "is_motor": false,
      "motor_id": 0,
      "accel_val": 2000,
      "base_duration_us": 517237
    },
    {
      "id": "M_1884",
      "pitch": 71,
      "t_note_us": 158791908,
      "t_trigger_us": 158655945,
      "is_ai": false,
      "track_id": 0,
      "velocity": 0,
      "is_motor": true,
      "motor_id": 1,
      "accel_val": 2000,
      "base_duration_us": 258619
    },
    {
      "id": "M_1899",
      "pitch": 56,
      "t_note_us": 158791908,
      "t_trigger_us": 158655945,
      "is_ai": false,
      "track_id": 0,
      "velocity": 0,
      "is_motor": true,
      "motor_id": 0,
      "accel_val": 2000,
      "base_duration_us": 517237
    },
    {
      "id": "M_1886",
      "pitch": 86,
      "t_note_us": 159050527,
      "t_trigger_us": 158914564,
      "is_ai": true,
      "track_id": 4,
      "velocity": 0,
      "is_motor": false,
      "motor_id": 0,
      "accel_val": 2000,
      "base_duration_us": 258618
    },
    {
      "id": "M_1890",
      "pitch": 47,
      "t_note_us": 159050527,
      "t_trigger_us": 158914564,
      "is_ai": false,
      "track_id": 0,
      "velocity": 0,
      "is_motor": true,
      "motor_id": 1,
      "accel_val": 2000,
      "base_duration_us": 258618
    },
    {
      "id": "M_1892",
      "pitch": 66,
      "t_note_us": 159050527,
      "t_trigger_us": 158914564,
      "is_ai": false,
      "track_id": 0,
      "velocity": 0,
      "is_motor": true,
      "motor_id": 2,
      "accel_val": 2000,
      "base_duration_us": 258618
    },
    {
      "id": "M_1898",
      "pitch": 50,
      "t_note_us": 159050527,
      "t_trigger_us": 158914564,
      "is_ai": false,
      "track_id": 0,
      "velocity": 0,
      "is_motor": true,
      "motor_id": 0,
      "accel_val": 2000,
      "base_duration_us": 258618
    },
    {
      "id": "M_1901",
      "pitch": 88,
      "t_note_us": 159309145,
      "t_trigger_us": 159173182,
      "is_ai": true,
      "track_id": 5,
      "velocity": 0,
      "is_motor": false,
      "motor_id": 0,
      "accel_val": 2000,
      "base_duration_us": 344824
    },
    {
      "id": "M_1909",
      "pitch": 84,
      "t_note_us": 159309145,
      "t_trigger_us": 159173182,
      "is_ai": true,
      "track_id": 3,
      "velocity": 0,
      "is_motor": false,
      "motor_id": 0,
      "accel_val": 2000,
      "base_duration_us": 1034473
    },
    {
      "id": "M_1919",
      "pitch": 88,
      "t_note_us": 159309145,
      "t_trigger_us": 159173182,
      "is_ai": true,
      "track_id": 5,
      "velocity": 0,
      "is_motor": false,
      "motor_id": 0,
      "accel_val": 2000,
      "base_duration_us": 1551710
    },
    {
      "id": "M_1935",
      "pitch": 84,
      "t_note_us": 159309145,
      "t_trigger_us": 159173182,
      "is_ai": true,
      "track_id": 3,
      "velocity": 0,
      "is_motor": false,
      "motor_id": 0,
      "accel_val": 2000,
      "base_duration_us": 2068946
    },
    {
      "id": "M_1900",
      "pitch": 60,
      "t_note_us": 159309145,
      "t_trigger_us": 159173182,
      "is_ai": false,
      "track_id": 0,
      "velocity": 0,
      "is_motor": true,
      "motor_id": 1,
      "accel_val": 2000,
      "base_duration_us": 258619
    },
    {
      "id": "M_1902",
      "pitch": 60,
      "t_note_us": 159309145,
      "t_trigger_us": 159173182,
      "is_ai": false,
      "track_id": 0,
      "velocity": 0,
      "is_motor": true,
      "motor_id": 0,
      "accel_val": 2000,
      "base_duration_us": 517237
    },
    {
      "id": "M_1904",
      "pitch": 56,
      "t_note_us": 159309145,
      "t_trigger_us": 159173182,
      "is_ai": false,
      "track_id": 0,
      "velocity": 0,
      "is_motor": true,
      "motor_id": 2,
      "accel_val": 2000,
      "base_duration_us": 517237
    },
    {
      "id": "M_1910",
      "pitch": 67,
      "t_note_us": 159309145,
      "t_trigger_us": 159173182,
      "is_ai": false,
      "track_id": 0,
      "velocity": 0,
      "is_motor": true,
      "motor_id": 3,
      "accel_val": 2000,
      "base_duration_us": 1034473
    },
    {
      "id": "M_1914",
      "pitch": 50,
      "t_note_us": 159309145,
      "t_trigger_us": 159173182,
      "is_ai": false,
      "track_id": 0,
      "velocity": 0,
      "is_motor": true,
      "motor_id": 0,
      "accel_val": 2000,
      "base_duration_us": 1034473
    },
    {
      "id": "M_1918",
      "pitch": 48,
      "t_note_us": 159309145,
      "t_trigger_us": 159173182,
      "is_ai": false,
      "track_id": 0,
      "velocity": 0,
      "is_motor": true,
      "motor_id": 0,
      "accel_val": 2000,
      "base_duration_us": 1551710
    },
    {
      "id": "M_1931",
      "pitch": 60,
      "t_note_us": 159309145,
      "t_trigger_us": 159173182,
      "is_ai": false,
      "track_id": 0,
      "velocity": 0,
      "is_motor": true,
      "motor_id": 0,
      "accel_val": 2000,
      "base_duration_us": 2068946
    },
    {
      "id": "M_1932",
      "pitch": 72,
      "t_note_us": 159309145,
      "t_trigger_us": 159173182,
      "is_ai": false,
      "track_id": 0,
      "velocity": 0,
      "is_motor": true,
      "motor_id": 0,
      "accel_val": 2000,
      "base_duration_us": 2068946
    },
    {
      "id": "M_1933",
      "pitch": 76,
      "t_note_us": 159309145,
      "t_trigger_us": 159173182,
      "is_ai": false,
      "track_id": 0,
      "velocity": 0,
      "is_motor": true,
      "motor_id": 0,
      "accel_val": 2000,
      "base_duration_us": 2068946
    },
    {
      "id": "M_1934",
      "pitch": 67,
      "t_note_us": 159309145,
      "t_trigger_us": 159173182,
      "is_ai": false,
      "track_id": 0,
      "velocity": 0,
      "is_motor": true,
      "motor_id": 0,
      "accel_val": 2000,
      "base_duration_us": 2068946
    },
    {
      "id": "M_1903",
      "pitch": 67,
      "t_note_us": 159567764,
      "t_trigger_us": 159431801,
      "is_ai": false,
      "track_id": 0,
      "velocity": 0,
      "is_motor": true,
      "motor_id": 1,
      "accel_val": 2000,
      "base_duration_us": 258618
    },
    {
      "id": "M_1905",
      "pitch": 91,
      "t_note_us": 159653969,
      "t_trigger_us": 159518006,
      "is_ai": true,
      "track_id": 7,
      "velocity": 0,
      "is_motor": false,
      "motor_id": 0,
      "accel_val": 2000,
      "base_duration_us": 344825
    },
    {
      "id": "M_1906",
      "pitch": 72,
      "t_note_us": 159826382,
      "t_trigger_us": 159690419,
      "is_ai": false,
      "track_id": 0,
      "velocity": 0,
      "is_motor": true,
      "motor_id": 1,
      "accel_val": 2000,
      "base_duration_us": 258618
    },
    {
      "id": "M_1907",
      "pitch": 72,
      "t_note_us": 159826382,
      "t_trigger_us": 159690419,
      "is_ai": false,
      "track_id": 0,
      "velocity": 0,
      "is_motor": true,
      "motor_id": 0,
      "accel_val": 2000,
      "base_duration_us": 258618
    },
    {
      "id": "M_1913",
      "pitch": 56,
      "t_note_us": 159826382,
      "t_trigger_us": 159690419,
      "is_ai": false,
      "track_id": 0,
      "velocity": 0,
      "is_motor": true,
      "motor_id": 2,
      "accel_val": 2000,
      "base_duration_us": 517236
    },
    {
      "id": "M_1908",
      "pitch": 91,
      "t_note_us": 159998794,
      "t_trigger_us": 159862831,
      "is_ai": true,
      "track_id": 7,
      "velocity": 0,
      "is_motor": false,
      "motor_id": 0,
      "accel_val": 2000,
      "base_duration_us": 344824
    },
    {
      "id": "M_1911",
      "pitch": 88,
      "t_note_us": 160085000,
      "t_trigger_us": 159949037,
      "is_ai": true,
      "track_id": 5,
      "velocity": 0,
      "is_motor": false,
      "motor_id": 0,
      "accel_val": 2000,
      "base_duration_us": 258618
    },
    {
      "id": "M_1912",
      "pitch": 67,
      "t_note_us": 160085000,
      "t_trigger_us": 159949037,
      "is_ai": false,
      "track_id": 0,
      "velocity": 0,
      "is_motor": true,
      "motor_id": 1,
      "accel_val": 2000,
      "base_duration_us": 258618
    },
    {
      "id": "M_1915",
      "pitch": 91,
      "t_note_us": 160343618,
      "t_trigger_us": 160207655,
      "is_ai": true,
      "track_id": 7,
      "velocity": 0,
      "is_motor": false,
      "motor_id": 0,
      "accel_val": 2000,
      "base_duration_us": 258619
    },
    {
      "id": "M_1916",
      "pitch": 76,
      "t_note_us": 160343618,
      "t_trigger_us": 160207655,
      "is_ai": false,
      "track_id": 0,
      "velocity": 0,
      "is_motor": true,
      "motor_id": 2,
      "accel_val": 2000,
      "base_duration_us": 258619
    },
    {
      "id": "M_1921",
      "pitch": 56,
      "t_note_us": 160343618,
      "t_trigger_us": 160207655,
      "is_ai": false,
      "track_id": 0,
      "velocity": 0,
      "is_motor": true,
      "motor_id": 0,
      "accel_val": 2000,
      "base_duration_us": 517237
    },
    {
      "id": "M_1925",
      "pitch": 52,
      "t_note_us": 160343618,
      "t_trigger_us": 160207655,
      "is_ai": false,
      "track_id": 0,
      "velocity": 0,
      "is_motor": true,
      "motor_id": 1,
      "accel_val": 2000,
      "base_duration_us": 775856
    },
    {
      "id": "M_1922",
      "pitch": 95,
      "t_note_us": 160602237,
      "t_trigger_us": 160466274,
      "is_ai": true,
      "track_id": 9,
      "velocity": 0,
      "is_motor": false,
      "motor_id": 0,
      "accel_val": 2000,
      "base_duration_us": 517237
    },
    {
      "id": "M_1917",
      "pitch": 67,
      "t_note_us": 160602237,
      "t_trigger_us": 160466274,
      "is_ai": false,
      "track_id": 0,
      "velocity": 0,
      "is_motor": true,
      "motor_id": 2,
      "accel_val": 2000,
      "base_duration_us": 258618
    },
    {
      "id": "M_1920",
      "pitch": 67,
      "t_note_us": 160602237,
      "t_trigger_us": 160466274,
      "is_ai": false,
      "track_id": 0,
      "velocity": 0,
      "is_motor": true,
      "motor_id": 3,
      "accel_val": 2000,
      "base_duration_us": 258618
    },
    {
      "id": "M_1923",
      "pitch": 84,
      "t_note_us": 160860855,
      "t_trigger_us": 160724892,
      "is_ai": true,
      "track_id": 3,
      "velocity": 0,
      "is_motor": false,
      "motor_id": 0,
      "accel_val": 2000,
      "base_duration_us": 258619
    },
    {
      "id": "M_1929",
      "pitch": 95,
      "t_note_us": 160860855,
      "t_trigger_us": 160724892,
      "is_ai": true,
      "track_id": 9,
      "velocity": 0,
      "is_motor": false,
      "motor_id": 0,
      "accel_val": 2000,
      "base_duration_us": 517236
    },
    {
      "id": "M_1924",
      "pitch": 72,
      "t_note_us": 160860855,
      "t_trigger_us": 160724892,
      "is_ai": false,
      "track_id": 0,
      "velocity": 0,
      "is_motor": true,
      "motor_id": 0,
      "accel_val": 2000,
      "base_duration_us": 258619
    },
    {
      "id": "M_1937",
      "pitch": 56,
      "t_note_us": 160860855,
      "t_trigger_us": 160724892,
      "is_ai": false,
      "track_id": 0,
      "velocity": 0,
      "is_motor": true,
      "motor_id": 2,
      "accel_val": 2000,
      "base_duration_us": 517236
    },
    {
      "id": "M_1927",
      "pitch": 88,
      "t_note_us": 161119474,
      "t_trigger_us": 160983511,
      "is_ai": true,
      "track_id": 5,
      "velocity": 0,
      "is_motor": false,
      "motor_id": 0,
      "accel_val": 2000,
      "base_duration_us": 258617
    },
    {
      "id": "M_1945",
      "pitch": 93,
      "t_note_us": 161119474,
      "t_trigger_us": 160983511,
      "is_ai": true,
      "track_id": 8,
      "velocity": 0,
      "is_motor": false,
      "motor_id": 0,
      "accel_val": 2000,
      "base_duration_us": 1293091
    },
    {
      "id": "M_1928",
      "pitch": 48,
      "t_note_us": 161119474,
      "t_trigger_us": 160983511,
      "is_ai": false,
      "track_id": 0,
      "velocity": 0,
      "is_motor": true,
      "motor_id": 0,
      "accel_val": 2000,
      "base_duration_us": 258617
    },
    {
      "id": "M_1930",
      "pitch": 67,
      "t_note_us": 161119474,
      "t_trigger_us": 160983511,
      "is_ai": false,
      "track_id": 0,
      "velocity": 0,
      "is_motor": true,
      "motor_id": 1,
      "accel_val": 2000,
      "base_duration_us": 258617
    },
    {
      "id": "M_1936",
      "pitch": 50,
      "t_note_us": 161119474,
      "t_trigger_us": 160983511,
      "is_ai": false,
      "track_id": 0,
      "velocity": 0,
      "is_motor": true,
      "motor_id": 3,
      "accel_val": 2000,
      "base_duration_us": 258617
    },
    {
      "id": "M_1926",
      "pitch": 90,
      "t_note_us": 161291886,
      "t_trigger_us": 161155923,
      "is_ai": true,
      "track_id": 0,
      "velocity": 0,
      "is_motor": true,
      "motor_id": 0,
      "accel_val": 2000,
      "base_duration_us": 86205
    },
    {
      "id": "M_1938",
      "pitch": 93,
      "t_note_us": 161334989,
      "t_trigger_us": 161199026,
      "is_ai": true,
      "track_id": 8,
      "velocity": 0,
      "is_motor": false,
      "motor_id": 0,
      "accel_val": 2000,
      "base_duration_us": 86204
    },
    {
      "id": "M_1949",
      "pitch": 93,
      "t_note_us": 161378091,
      "t_trigger_us": 161242128,
      "is_ai": true,
      "track_id": 8,
      "velocity": 0,
      "is_motor": false,
      "motor_id": 0,
      "accel_val": 2000,
      "base_duration_us": 1034474
    },
    {
      "id": "M_1951",
      "pitch": 79,
      "t_note_us": 161378091,
      "t_trigger_us": 161242128,
      "is_ai": true,
      "track_id": 0,
      "velocity": 0,
      "is_motor": false,
      "motor_id": 0,
      "accel_val": 2000,
      "base_duration_us": 1034474
    },
    {
      "id": "M_1952",
      "pitch": 81,
      "t_note_us": 161378091,
      "t_trigger_us": 161242128,
      "is_ai": true,
      "track_id": 1,
      "velocity": 0,
      "is_motor": false,
      "motor_id": 0,
      "accel_val": 2000,
      "base_duration_us": 1034474
    },
    {
      "id": "M_1970",
      "pitch": 98,
      "t_note_us": 161378091,
      "t_trigger_us": 161242128,
      "is_ai": true,
      "track_id": 11,
      "velocity": 0,
      "is_motor": false,
      "motor_id": 0,
      "accel_val": 2000,
      "base_duration_us": 2068947
    },
    {
      "id": "M_1939",
      "pitch": 62,
      "t_note_us": 161378091,
      "t_trigger_us": 161242128,
      "is_ai": false,
      "track_id": 0,
      "velocity": 0,
      "is_motor": true,
      "motor_id": 1,
      "accel_val": 2000,
      "base_duration_us": 258618
    },
    {
      "id": "M_1940",
      "pitch": 50,
      "t_note_us": 161378091,
      "t_trigger_us": 161242128,
      "is_ai": false,
      "track_id": 0,
      "velocity": 0,
      "is_motor": true,
      "motor_id": 0,
      "accel_val": 2000,
      "base_duration_us": 258618
    },
    {
      "id": "M_1942",
      "pitch": 50,
      "t_note_us": 161378091,
      "t_trigger_us": 161242128,
      "is_ai": false,
      "track_id": 0,
      "velocity": 0,
      "is_motor": true,
      "motor_id": 2,
      "accel_val": 2000,
      "base_duration_us": 775855
    },
    {
      "id": "M_1946",
      "pitch": 62,
      "t_note_us": 161378091,
      "t_trigger_us": 161242128,
      "is_ai": false,
      "track_id": 0,
      "velocity": 0,
      "is_motor": true,
      "motor_id": 3,
      "accel_val": 2000,
      "base_duration_us": 1034474
    },
    {
      "id": "M_1947",
      "pitch": 50,
      "t_note_us": 161378091,
      "t_trigger_us": 161242128,
      "is_ai": false,
      "track_id": 0,
      "velocity": 0,
      "is_motor": true,
      "motor_id": 0,
      "accel_val": 2000,
      "base_duration_us": 1034474
    },
    {
      "id": "M_1953",
      "pitch": 74,
      "t_note_us": 161378091,
      "t_trigger_us": 161242128,
      "is_ai": false,
      "track_id": 0,
      "velocity": 0,
      "is_motor": true,
      "motor_id": 0,
      "accel_val": 2000,
      "base_duration_us": 1034474
    },
    {
      "id": "M_1976",
      "pitch": 62,
      "t_note_us": 161378091,
      "t_trigger_us": 161242128,
      "is_ai": false,
      "track_id": 0,
      "velocity": 0,
      "is_motor": true,
      "motor_id": 0,
      "accel_val": 2000,
      "base_duration_us": 2068947
    },
    {
      "id": "M_1977",
      "pitch": 74,
      "t_note_us": 161378091,
      "t_trigger_us": 161242128,
      "is_ai": false,
      "track_id": 0,
      "velocity": 0,
      "is_motor": true,
      "motor_id": 0,
      "accel_val": 2000,
      "base_duration_us": 2068947
    },
    {
      "id": "M_1941",
      "pitch": 69,
      "t_note_us": 161636709,
      "t_trigger_us": 161500746,
      "is_ai": false,
      "track_id": 0,
      "velocity": 0,
      "is_motor": true,
      "motor_id": 1,
      "accel_val": 2000,
      "base_duration_us": 258619
    },
    {
      "id": "M_1944",
      "pitch": 52,
      "t_note_us": 161636709,
      "t_trigger_us": 161500746,
      "is_ai": false,
      "track_id": 0,
      "velocity": 0,
      "is_motor": true,
      "motor_id": 0,
      "accel_val": 2000,
      "base_duration_us": 517237
    },
    {
      "id": "M_1943",
      "pitch": 74,
      "t_note_us": 161895328,
      "t_trigger_us": 161759365,
      "is_ai": false,
      "track_id": 0,
      "velocity": 0,
      "is_motor": true,
      "motor_id": 1,
      "accel_val": 2000,
      "base_duration_us": 258618
    },
    {
      "id": "M_1950",
      "pitch": 90,
      "t_note_us": 162153946,
      "t_trigger_us": 162017983,
      "is_ai": true,
      "track_id": 0,
      "velocity": 0,
      "is_motor": true,
      "motor_id": 2,
      "accel_val": 2000,
      "base_duration_us": 258619
    },
    {
      "id": "M_1948",
      "pitch": 50,
      "t_note_us": 162153946,
      "t_trigger_us": 162017983,
      "is_ai": false,
      "track_id": 0,
      "velocity": 0,
      "is_motor": true,
      "motor_id": 0,
      "accel_val": 2000,
      "base_duration_us": 258619
    },
    {
      "id": "M_1954",
      "pitch": 55,
      "t_note_us": 162153946,
      "t_trigger_us": 162017983,
      "is_ai": false,
      "track_id": 0,
      "velocity": 0,
      "is_motor": true,
      "motor_id": 1,
      "accel_val": 2000,
      "base_duration_us": 258619
    },
    {
      "id": "M_1955",
      "pitch": 86,
      "t_note_us": 162412565,
      "t_trigger_us": 162276602,
      "is_ai": true,
      "track_id": 4,
      "velocity": 0,
      "is_motor": false,
      "motor_id": 0,
      "accel_val": 2000,
      "base_duration_us": 258618
    },
    {
      "id": "M_1957",
      "pitch": 86,
      "t_note_us": 162412565,
      "t_trigger_us": 162276602,
      "is_ai": true,
      "track_id": 4,
      "velocity": 0,
      "is_motor": false,
      "motor_id": 0,
      "accel_val": 2000,
      "base_duration_us": 344824
    },
    {
      "id": "M_1959",
      "pitch": 91,
      "t_note_us": 162412565,
      "t_trigger_us": 162276602,
      "is_ai": true,
      "track_id": 7,
      "velocity": 0,
      "is_motor": false,
      "motor_id": 0,
      "accel_val": 2000,
      "base_duration_us": 517237
    },
    {
      "id": "M_1971",
      "pitch": 81,
      "t_note_us": 162412565,
      "t_trigger_us": 162276602,
      "is_ai": true,
      "track_id": 1,
      "velocity": 0,
      "is_motor": false,
      "motor_id": 0,
      "accel_val": 2000,
      "base_duration_us": 1034473
    },
    {
      "id": "M_1972",
      "pitch": 86,
      "t_note_us": 162412565,
      "t_trigger_us": 162276602,
      "is_ai": true,
      "track_id": 4,
      "velocity": 0,
      "is_motor": false,
      "motor_id": 0,
      "accel_val": 2000,
      "base_duration_us": 1034473
    },
    {
      "id": "M_1978",
      "pitch": 86,
      "t_note_us": 162412565,
      "t_trigger_us": 162276602,
      "is_ai": true,
      "track_id": 4,
      "velocity": 0,
      "is_motor": false,
      "motor_id": 0,
      "accel_val": 2000,
      "base_duration_us": 1034473
    },
    {
      "id": "M_1980",
      "pitch": 81,
      "t_note_us": 162412565,
      "t_trigger_us": 162276602,
      "is_ai": true,
      "track_id": 1,
      "velocity": 0,
      "is_motor": false,
      "motor_id": 0,
      "accel_val": 2000,
      "base_duration_us": 1034473
    },
    {
      "id": "M_1956",
      "pitch": 52,
      "t_note_us": 162412565,
      "t_trigger_us": 162276602,
      "is_ai": false,
      "track_id": 0,
      "velocity": 0,
      "is_motor": true,
      "motor_id": 0,
      "accel_val": 2000,
      "base_duration_us": 258618
    },
    {
      "id": "M_1958",
      "pitch": 50,
      "t_note_us": 162412565,
      "t_trigger_us": 162276602,
      "is_ai": false,
      "track_id": 0,
      "velocity": 0,
      "is_motor": true,
      "motor_id": 1,
      "accel_val": 2000,
      "base_duration_us": 344824
    },
    {
      "id": "M_1967",
      "pitch": 78,
      "t_note_us": 162412565,
      "t_trigger_us": 162276602,
      "is_ai": false,
      "track_id": 0,
      "velocity": 0,
      "is_motor": true,
      "motor_id": 2,
      "accel_val": 2000,
      "base_duration_us": 1034473
    },
    {
      "id": "M_1968",
      "pitch": 50,
      "t_note_us": 162412565,
      "t_trigger_us": 162276602,
      "is_ai": false,
      "track_id": 0,
      "velocity": 0,
      "is_motor": true,
      "motor_id": 3,
      "accel_val": 2000,
      "base_duration_us": 1034473
    },
    {
      "id": "M_1969",
      "pitch": 62,
      "t_note_us": 162412565,
      "t_trigger_us": 162276602,
      "is_ai": false,
      "track_id": 0,
      "velocity": 0,
      "is_motor": true,
      "motor_id": 0,
      "accel_val": 2000,
      "base_duration_us": 1034473
    },
    {
      "id": "M_1979",
      "pitch": 78,
      "t_note_us": 162412565,
      "t_trigger_us": 162276602,
      "is_ai": false,
      "track_id": 0,
      "velocity": 0,
      "is_motor": true,
      "motor_id": 0,
      "accel_val": 2000,
      "base_duration_us": 1034473
    },
    {
      "id": "M_1960",
      "pitch": 81,
      "t_note_us": 162671183,
      "t_trigger_us": 162535220,
      "is_ai": true,
      "track_id": 1,
      "velocity": 0,
      "is_motor": false,
      "motor_id": 0,
      "accel_val": 2000,
      "base_duration_us": 258619
    },
    {
      "id": "M_1961",
      "pitch": 61,
      "t_note_us": 162671183,
      "t_trigger_us": 162535220,
      "is_ai": false,
      "track_id": 0,
      "velocity": 0,
      "is_motor": true,
      "motor_id": 0,
      "accel_val": 2000,
      "base_duration_us": 258619
    },
    {
      "id": "M_1962",
      "pitch": 91,
      "t_note_us": 162757389,
      "t_trigger_us": 162621426,
      "is_ai": true,
      "track_id": 7,
      "velocity": 0,
      "is_motor": false,
      "motor_id": 0,
      "accel_val": 2000,
      "base_duration_us": 344825
    },
    {
      "id": "M_1963",
      "pitch": 52,
      "t_note_us": 162757389,
      "t_trigger_us": 162621426,
      "is_ai": false,
      "track_id": 0,
      "velocity": 0,
      "is_motor": true,
      "motor_id": 1,
      "accel_val": 2000,
      "base_duration_us": 344825
    },
    {
      "id": "M_1964",
      "pitch": 90,
      "t_note_us": 162929802,
      "t_trigger_us": 162793839,
      "is_ai": true,
      "track_id": 0,
      "velocity": 0,
      "is_motor": true,
      "motor_id": 0,
      "accel_val": 2000,
      "base_duration_us": 258617
    },
    {
      "id": "M_1974",
      "pitch": 90,
      "t_note_us": 162929802,
      "t_trigger_us": 162793839,
      "is_ai": true,
      "track_id": 0,
      "velocity": 0,
      "is_motor": true,
      "motor_id": 0,
      "accel_val": 2000,
      "base_duration_us": 517236
    },
    {
      "id": "M_1965",
      "pitch": 59,
      "t_note_us": 162929802,
      "t_trigger_us": 162793839,
      "is_ai": false,
      "track_id": 0,
      "velocity": 0,
      "is_motor": true,
      "motor_id": 0,
      "accel_val": 2000,
      "base_duration_us": 258617
    },
    {
      "id": "M_1966",
      "pitch": 90,
      "t_note_us": 163102214,
      "t_trigger_us": 162966251,
      "is_ai": true,
      "track_id": 0,
      "velocity": 0,
      "is_motor": true,
      "motor_id": 1,
      "accel_val": 2000,
      "base_duration_us": 344824
    },
    {
      "id": "M_1973",
      "pitch": 54,
      "t_note_us": 163102214,
      "t_trigger_us": 162966251,
      "is_ai": false,
      "track_id": 0,
      "velocity": 0,
      "is_motor": true,
      "motor_id": 0,
      "accel_val": 2000,
      "base_duration_us": 344824
    },
    {
      "id": "M_1975",
      "pitch": 74,
      "t_note_us": 163188419,
      "t_trigger_us": 163052456,
      "is_ai": false,
      "track_id": 0,
      "velocity": 0,
      "is_motor": true,
      "motor_id": 0,
      "accel_val": 2000,
      "base_duration_us": 258619
    },
    {
      "id": "M_1981",
      "pitch": 57,
      "t_note_us": 163188419,
      "t_trigger_us": 163052456,
      "is_ai": false,
      "track_id": 0,
      "velocity": 0,
      "is_motor": true,
      "motor_id": 0,
      "accel_val": 2000,
      "base_duration_us": 258619
    },
    {
      "id": "M_1984",
      "pitch": 93,
      "t_note_us": 163447038,
      "t_trigger_us": 163311075,
      "is_ai": true,
      "track_id": 8,
      "velocity": 0,
      "is_motor": false,
      "motor_id": 0,
      "accel_val": 2000,
      "base_duration_us": 344824
    },
    {
      "id": "M_2009",
      "pitch": 83,
      "t_note_us": 163447038,
      "t_trigger_us": 163311075,
      "is_ai": true,
      "track_id": 2,
      "velocity": 0,
      "is_motor": false,
      "motor_id": 0,
      "accel_val": 2000,
      "base_duration_us": 2068949
    },
    {
      "id": "M_2036",
      "pitch": 91,
      "t_note_us": 163447038,
      "t_trigger_us": 163311075,
      "is_ai": true,
      "track_id": 7,
      "velocity": 0,
      "is_motor": false,
      "motor_id": 0,
      "accel_val": 2000,
      "base_duration_us": 3448234
    },
    {
      "id": "M_1982",
      "pitch": 55,
      "t_note_us": 163447038,
      "t_trigger_us": 163311075,
      "is_ai": false,
      "track_id": 0,
      "velocity": 0,
      "is_motor": true,
      "motor_id": 0,
      "accel_val": 2000,
      "base_duration_us": 258618
    },
    {
      "id": "M_1983",
      "pitch": 55,
      "t_note_us": 163447038,
      "t_trigger_us": 163311075,
      "is_ai": false,
      "track_id": 0,
      "velocity": 0,
      "is_motor": true,
      "motor_id": 1,
      "accel_val": 2000,
      "base_duration_us": 258618
    },
    {
      "id": "M_1991",
      "pitch": 50,
      "t_note_us": 163447038,
      "t_trigger_us": 163311075,
      "is_ai": false,
      "track_id": 0,
      "velocity": 0,
      "is_motor": true,
      "motor_id": 2,
      "accel_val": 2000,
      "base_duration_us": 1034475
    },
    {
      "id": "M_1992",
      "pitch": 63,
      "t_note_us": 163447038,
      "t_trigger_us": 163311075,
      "is_ai": false,
      "track_id": 0,
      "velocity": 0,
      "is_motor": true,
      "motor_id": 3,
      "accel_val": 2000,
      "base_duration_us": 1034475
    },
    {
      "id": "M_1999",
      "pitch": 55,
      "t_note_us": 163447038,
      "t_trigger_us": 163311075,
      "is_ai": false,
      "track_id": 0,
      "velocity": 0,
      "is_motor": true,
      "motor_id": 0,
      "accel_val": 2000,
      "base_duration_us": 1810330
    },
    {
      "id": "M_2005",
      "pitch": 55,
      "t_note_us": 163447038,
      "t_trigger_us": 163311075,
      "is_ai": false,
      "track_id": 0,
      "velocity": 0,
      "is_motor": true,
      "motor_id": 0,
      "accel_val": 2000,
      "base_duration_us": 2068949
    },
    {
      "id": "M_2006",
      "pitch": 67,
      "t_note_us": 163447038,
      "t_trigger_us": 163311075,
      "is_ai": false,
      "track_id": 0,
      "velocity": 0,
      "is_motor": true,
      "motor_id": 0,
      "accel_val": 2000,
      "base_duration_us": 2068949
    },
    {
      "id": "M_2007",
      "pitch": 74,
      "t_note_us": 163447038,
      "t_trigger_us": 163311075,
      "is_ai": false,
      "track_id": 0,
      "velocity": 0,
      "is_motor": true,
      "motor_id": 0,
      "accel_val": 2000,
      "base_duration_us": 2068949
    },
    {
      "id": "M_2008",
      "pitch": 67,
      "t_note_us": 163447038,
      "t_trigger_us": 163311075,
      "is_ai": false,
      "track_id": 0,
      "velocity": 0,
      "is_motor": true,
      "motor_id": 0,
      "accel_val": 2000,
      "base_duration_us": 2068949
    },
    {
      "id": "M_1985",
      "pitch": 67,
      "t_note_us": 163705656,
      "t_trigger_us": 163569693,
      "is_ai": false,
      "track_id": 0,
      "velocity": 0,
      "is_motor": true,
      "motor_id": 1,
      "accel_val": 2000,
      "base_duration_us": 258619
    },
    {
      "id": "M_1986",
      "pitch": 67,
      "t_note_us": 163705656,
      "t_trigger_us": 163569693,
      "is_ai": false,
      "track_id": 0,
      "velocity": 0,
      "is_motor": true,
      "motor_id": 0,
      "accel_val": 2000,
      "base_duration_us": 258619
    },
    {
      "id": "M_2048",
      "pitch": 91,
      "t_note_us": 163791862,
      "t_trigger_us": 163655899,
      "is_ai": true,
      "track_id": 7,
      "velocity": 0,
      "is_motor": false,
      "motor_id": 0,
      "accel_val": 2000,
      "base_duration_us": 3793037
    },
    {
      "id": "M_1987",
      "pitch": 71,
      "t_note_us": 163964275,
      "t_trigger_us": 163828312,
      "is_ai": false,
      "track_id": 0,
      "velocity": 0,
      "is_motor": true,
      "motor_id": 1,
      "accel_val": 2000,
      "base_duration_us": 258619
    },
    {
      "id": "M_1988",
      "pitch": 71,
      "t_note_us": 163964275,
      "t_trigger_us": 163828312,
      "is_ai": false,
      "track_id": 0,
      "velocity": 0,
      "is_motor": true,
      "motor_id": 0,
      "accel_val": 2000,
      "base_duration_us": 258619
    },
    {
      "id": "M_1990",
      "pitch": 56,
      "t_note_us": 163964275,
      "t_trigger_us": 163828312,
      "is_ai": false,
      "track_id": 0,
      "velocity": 0,
      "is_motor": true,
      "motor_id": 0,
      "accel_val": 2000,
      "base_duration_us": 517238
    },
    {
      "id": "M_1989",
      "pitch": 86,
      "t_note_us": 164222894,
      "t_trigger_us": 164086931,
      "is_ai": true,
      "track_id": 4,
      "velocity": 0,
      "is_motor": false,
      "motor_id": 0,
      "accel_val": 2000,
      "base_duration_us": 258619
    },
    {
      "id": "M_1993",
      "pitch": 74,
      "t_note_us": 164222894,
      "t_trigger_us": 164086931,
      "is_ai": false,
      "track_id": 0,
      "velocity": 0,
      "is_motor": true,
      "motor_id": 1,
      "accel_val": 2000,
      "base_duration_us": 517238
    },
    {
      "id": "M_1994",
      "pitch": 79,
      "t_note_us": 164481513,
      "t_trigger_us": 164345550,
      "is_ai": true,
      "track_id": 0,
      "velocity": 0,
      "is_motor": false,
      "motor_id": 0,
      "accel_val": 2000,
      "base_duration_us": 258619
    },
    {
      "id": "M_1997",
      "pitch": 56,
      "t_note_us": 164481513,
      "t_trigger_us": 164345550,
      "is_ai": false,
      "track_id": 0,
      "velocity": 0,
      "is_motor": true,
      "motor_id": 0,
      "accel_val": 2000,
      "base_duration_us": 517237
    },
    {
      "id": "M_2001",
      "pitch": 52,
      "t_note_us": 164481513,
      "t_trigger_us": 164345550,
      "is_ai": false,
      "track_id": 0,
      "velocity": 0,
      "is_motor": true,
      "motor_id": 2,
      "accel_val": 2000,
      "base_duration_us": 775855
    },
    {
      "id": "M_1995",
      "pitch": 79,
      "t_note_us": 164740132,
      "t_trigger_us": 164604169,
      "is_ai": true,
      "track_id": 0,
      "velocity": 0,
      "is_motor": false,
      "motor_id": 0,
      "accel_val": 2000,
      "base_duration_us": 258618
    },
    {
      "id": "M_1996",
      "pitch": 74,
      "t_note_us": 164740132,
      "t_trigger_us": 164604169,
      "is_ai": false,
      "track_id": 0,
      "velocity": 0,
      "is_motor": true,
      "motor_id": 1,
      "accel_val": 2000,
      "base_duration_us": 258618
    },
    {
      "id": "M_1998",
      "pitch": 74,
      "t_note_us": 164998750,
      "t_trigger_us": 164862787,
      "is_ai": false,
      "track_id": 0,
      "velocity": 0,
      "is_motor": true,
      "motor_id": 1,
      "accel_val": 2000,
      "base_duration_us": 258618
    },
    {
      "id": "M_2000",
      "pitch": 71,
      "t_note_us": 164998750,
      "t_trigger_us": 164862787,
      "is_ai": false,
      "track_id": 0,
      "velocity": 0,
      "is_motor": true,
      "motor_id": 0,
      "accel_val": 2000,
      "base_duration_us": 258618
    },
    {
      "id": "M_2011",
      "pitch": 56,
      "t_note_us": 164998750,
      "t_trigger_us": 164862787,
      "is_ai": false,
      "track_id": 0,
      "velocity": 0,
      "is_motor": true,
      "motor_id": 3,
      "accel_val": 2000,
      "base_duration_us": 517237
    },
    {
      "id": "M_2002",
      "pitch": 71,
      "t_note_us": 165257368,
      "t_trigger_us": 165121405,
      "is_ai": false,
      "track_id": 0,
      "velocity": 0,
      "is_motor": true,
      "motor_id": 1,
      "accel_val": 2000,
      "base_duration_us": 258619
    },
    {
      "id": "M_2003",
      "pitch": 50,
      "t_note_us": 165257368,
      "t_trigger_us": 165121405,
      "is_ai": false,
      "track_id": 0,
      "velocity": 0,
      "is_motor": true,
      "motor_id": 0,
      "accel_val": 2000,
      "base_duration_us": 258619
    },
    {
      "id": "M_2004",
      "pitch": 67,
      "t_note_us": 165257368,
      "t_trigger_us": 165121405,
      "is_ai": false,
      "track_id": 0,
      "velocity": 0,
      "is_motor": true,
      "motor_id": 2,
      "accel_val": 2000,
      "base_duration_us": 258619
    },
    {
      "id": "M_2010",
      "pitch": 50,
      "t_note_us": 165257368,
      "t_trigger_us": 165121405,
      "is_ai": false,
      "track_id": 0,
      "velocity": 0,
      "is_motor": true,
      "motor_id": 0,
      "accel_val": 2000,
      "base_duration_us": 258619
    },
    {
      "id": "M_2013",
      "pitch": 86,
      "t_note_us": 165515987,
      "t_trigger_us": 165380024,
      "is_ai": true,
      "track_id": 4,
      "velocity": 0,
      "is_motor": false,
      "motor_id": 0,
      "accel_val": 2000,
      "base_duration_us": 689639
    },
    {
      "id": "M_2016",
      "pitch": 81,
      "t_note_us": 165515987,
      "t_trigger_us": 165380024,
      "is_ai": true,
      "track_id": 1,
      "velocity": 0,
      "is_motor": false,
      "motor_id": 0,
      "accel_val": 2000,
      "base_duration_us": 689639
    },
    {
      "id": "M_2018",
      "pitch": 81,
      "t_note_us": 165515987,
      "t_trigger_us": 165380024,
      "is_ai": true,
      "track_id": 1,
      "velocity": 0,
      "is_motor": false,
      "motor_id": 0,
      "accel_val": 2000,
      "base_duration_us": 689639
    },
    {
      "id": "M_2020",
      "pitch": 86,
      "t_note_us": 165515987,
      "t_trigger_us": 165380024,
      "is_ai": true,
      "track_id": 4,
      "velocity": 0,
      "is_motor": false,
      "motor_id": 0,
      "accel_val": 2000,
      "base_duration_us": 689639
    },
    {
      "id": "M_2024",
      "pitch": 81,
      "t_note_us": 165515987,
      "t_trigger_us": 165380024,
      "is_ai": true,
      "track_id": 1,
      "velocity": 0,
      "is_motor": false,
      "motor_id": 0,
      "accel_val": 2000,
      "base_duration_us": 689639
    },
    {
      "id": "M_2025",
      "pitch": 86,
      "t_note_us": 165515987,
      "t_trigger_us": 165380024,
      "is_ai": true,
      "track_id": 4,
      "velocity": 0,
      "is_motor": false,
      "motor_id": 0,
      "accel_val": 2000,
      "base_duration_us": 689639
    },
    {
      "id": "M_2012",
      "pitch": 78,
      "t_note_us": 165515987,
      "t_trigger_us": 165380024,
      "is_ai": false,
      "track_id": 0,
      "velocity": 0,
      "is_motor": true,
      "motor_id": 2,
      "accel_val": 2000,
      "base_duration_us": 689639
    },
    {
      "id": "M_2014",
      "pitch": 67,
      "t_note_us": 165515987,
      "t_trigger_us": 165380024,
      "is_ai": false,
      "track_id": 0,
      "velocity": 0,
      "is_motor": true,
      "motor_id": 1,
      "accel_val": 2000,
      "base_duration_us": 689639
    },
    {
      "id": "M_2015",
      "pitch": 55,
      "t_note_us": 165515987,
      "t_trigger_us": 165380024,
      "is_ai": false,
      "track_id": 0,
      "velocity": 0,
      "is_motor": true,
      "motor_id": 0,
      "accel_val": 2000,
      "base_duration_us": 689639
    },
    {
      "id": "M_2017",
      "pitch": 55,
      "t_note_us": 165515987,
      "t_trigger_us": 165380024,
      "is_ai": false,
      "track_id": 0,
      "velocity": 0,
      "is_motor": true,
      "motor_id": 3,
      "accel_val": 2000,
      "base_duration_us": 689639
    },
    {
      "id": "M_2019",
      "pitch": 78,
      "t_note_us": 165515987,
      "t_trigger_us": 165380024,
      "is_ai": false,
      "track_id": 0,
      "velocity": 0,
      "is_motor": true,
      "motor_id": 0,
      "accel_val": 2000,
      "base_duration_us": 689639
    },
    {
      "id": "M_2021",
      "pitch": 55,
      "t_note_us": 165515987,
      "t_trigger_us": 165380024,
      "is_ai": false,
      "track_id": 0,
      "velocity": 0,
      "is_motor": true,
      "motor_id": 0,
      "accel_val": 2000,
      "base_duration_us": 689639
    },
    {
      "id": "M_2022",
      "pitch": 67,
      "t_note_us": 165515987,
      "t_trigger_us": 165380024,
      "is_ai": false,
      "track_id": 0,
      "velocity": 0,
      "is_motor": true,
      "motor_id": 0,
      "accel_val": 2000,
      "base_duration_us": 689639
    },
    {
      "id": "M_2023",
      "pitch": 78,
      "t_note_us": 165515987,
      "t_trigger_us": 165380024,
      "is_ai": false,
      "track_id": 0,
      "velocity": 0,
      "is_motor": true,
      "motor_id": 0,
      "accel_val": 2000,
      "base_duration_us": 689639
    },
    {
      "id": "M_2026",
      "pitch": 61,
      "t_note_us": 165515987,
      "t_trigger_us": 165380024,
      "is_ai": false,
      "track_id": 0,
      "velocity": 0,
      "is_motor": true,
      "motor_id": 0,
      "accel_val": 2000,
      "base_duration_us": 689639
    },
    {
      "id": "M_2027",
      "pitch": 50,
      "t_note_us": 165515987,
      "t_trigger_us": 165380024,
      "is_ai": false,
      "track_id": 0,
      "velocity": 0,
      "is_motor": true,
      "motor_id": 0,
      "accel_val": 2000,
      "base_duration_us": 689639
    },
    {
      "id": "M_2031",
      "pitch": 84,
      "t_note_us": 166205626,
      "t_trigger_us": 166069663,
      "is_ai": true,
      "track_id": 3,
      "velocity": 0,
      "is_motor": false,
      "motor_id": 0,
      "accel_val": 2000,
      "base_duration_us": 689646
    },
    {
      "id": "M_2034",
      "pitch": 79,
      "t_note_us": 166205626,
      "t_trigger_us": 166069663,
      "is_ai": true,
      "track_id": 0,
      "velocity": 0,
      "is_motor": false,
      "motor_id": 0,
      "accel_val": 2000,
      "base_duration_us": 689646
    },
    {
      "id": "M_2037",
      "pitch": 79,
      "t_note_us": 166205626,
      "t_trigger_us": 166069663,
      "is_ai": true,
      "track_id": 0,
      "velocity": 0,
      "is_motor": false,
      "motor_id": 0,
      "accel_val": 2000,
      "base_duration_us": 689646
    },
    {
      "id": "M_2039",
      "pitch": 84,
      "t_note_us": 166205626,
      "t_trigger_us": 166069663,
      "is_ai": true,
      "track_id": 3,
      "velocity": 0,
      "is_motor": false,
      "motor_id": 0,
      "accel_val": 2000,
      "base_duration_us": 689646
    },
    {
      "id": "M_2043",
      "pitch": 79,
      "t_note_us": 166205626,
      "t_trigger_us": 166069663,
      "is_ai": true,
      "track_id": 0,
      "velocity": 0,
      "is_motor": false,
      "motor_id": 0,
      "accel_val": 2000,
      "base_duration_us": 689646
    },
    {
      "id": "M_2044",
      "pitch": 84,
      "t_note_us": 166205626,
      "t_trigger_us": 166069663,
      "is_ai": true,
      "track_id": 3,
      "velocity": 0,
      "is_motor": false,
      "motor_id": 0,
      "accel_val": 2000,
      "base_duration_us": 689646
    },
    {
      "id": "M_2030",
      "pitch": 76,
      "t_note_us": 166205626,
      "t_trigger_us": 166069663,
      "is_ai": false,
      "track_id": 0,
      "velocity": 0,
      "is_motor": true,
      "motor_id": 2,
      "accel_val": 2000,
      "base_duration_us": 689646
    },
    {
      "id": "M_2032",
      "pitch": 67,
      "t_note_us": 166205626,
      "t_trigger_us": 166069663,
      "is_ai": false,
      "track_id": 0,
      "velocity": 0,
      "is_motor": true,
      "motor_id": 1,
      "accel_val": 2000,
      "base_duration_us": 689646
    },
    {
      "id": "M_2033",
      "pitch": 55,
      "t_note_us": 166205626,
      "t_trigger_us": 166069663,
      "is_ai": false,
      "track_id": 0,
      "velocity": 0,
      "is_motor": true,
      "motor_id": 0,
      "accel_val": 2000,
      "base_duration_us": 689646
    },
    {
      "id": "M_2035",
      "pitch": 55,
      "t_note_us": 166205626,
      "t_trigger_us": 166069663,
      "is_ai": false,
      "track_id": 0,
      "velocity": 0,
      "is_motor": true,
      "motor_id": 3,
      "accel_val": 2000,
      "base_duration_us": 689646
    },
    {
      "id": "M_2038",
      "pitch": 76,
      "t_note_us": 166205626,
      "t_trigger_us": 166069663,
      "is_ai": false,
      "track_id": 0,
      "velocity": 0,
      "is_motor": true,
      "motor_id": 0,
      "accel_val": 2000,
      "base_duration_us": 689646
    },
    {
      "id": "M_2040",
      "pitch": 55,
      "t_note_us": 166205626,
      "t_trigger_us": 166069663,
      "is_ai": false,
      "track_id": 0,
      "velocity": 0,
      "is_motor": true,
      "motor_id": 0,
      "accel_val": 2000,
      "base_duration_us": 689646
    },
    {
      "id": "M_2041",
      "pitch": 67,
      "t_note_us": 166205626,
      "t_trigger_us": 166069663,
      "is_ai": false,
      "track_id": 0,
      "velocity": 0,
      "is_motor": true,
      "motor_id": 0,
      "accel_val": 2000,
      "base_duration_us": 689646
    },
    {
      "id": "M_2042",
      "pitch": 76,
      "t_note_us": 166205626,
      "t_trigger_us": 166069663,
      "is_ai": false,
      "track_id": 0,
      "velocity": 0,
      "is_motor": true,
      "motor_id": 0,
      "accel_val": 2000,
      "base_duration_us": 689646
    },
    {
      "id": "M_2045",
      "pitch": 59,
      "t_note_us": 166205626,
      "t_trigger_us": 166069663,
      "is_ai": false,
      "track_id": 0,
      "velocity": 0,
      "is_motor": true,
      "motor_id": 0,
      "accel_val": 2000,
      "base_duration_us": 689646
    },
    {
      "id": "M_2046",
      "pitch": 50,
      "t_note_us": 166205626,
      "t_trigger_us": 166069663,
      "is_ai": false,
      "track_id": 0,
      "velocity": 0,
      "is_motor": true,
      "motor_id": 0,
      "accel_val": 2000,
      "base_duration_us": 689646
    },
    {
      "id": "M_2028",
      "pitch": 88,
      "t_note_us": 166222867,
      "t_trigger_us": 166086904,
      "is_ai": true,
      "track_id": 5,
      "velocity": 0,
      "is_motor": false,
      "motor_id": 0,
      "accel_val": 2000,
      "base_duration_us": 301720
    },
    {
      "id": "M_2029",
      "pitch": 79,
      "t_note_us": 166490105,
      "t_trigger_us": 166354142,
      "is_ai": true,
      "track_id": 0,
      "velocity": 0,
      "is_motor": false,
      "motor_id": 0,
      "accel_val": 2000,
      "base_duration_us": 258617
    },
    {
      "id": "M_2047",
      "pitch": 81,
      "t_note_us": 166740102,
      "t_trigger_us": 166604139,
      "is_ai": true,
      "track_id": 1,
      "velocity": 0,
      "is_motor": false,
      "motor_id": 0,
      "accel_val": 2000,
      "base_duration_us": 258616
    },
    {
      "id": "M_2049",
      "pitch": 81,
      "t_note_us": 166895272,
      "t_trigger_us": 166759309,
      "is_ai": true,
      "track_id": 1,
      "velocity": 0,
      "is_motor": false,
      "motor_id": 0,
      "accel_val": 2000,
      "base_duration_us": 689627
    },
    {
      "id": "M_2055",
      "pitch": 90,
      "t_note_us": 166895272,
      "t_trigger_us": 166759309,
      "is_ai": true,
      "track_id": 0,
      "velocity": 0,
      "is_motor": true,
      "motor_id": 3,
      "accel_val": 2000,
      "base_duration_us": 689627
    },
    {
      "id": "M_2050",
      "pitch": 78,
      "t_note_us": 166895272,
      "t_trigger_us": 166759309,
      "is_ai": false,
      "track_id": 0,
      "velocity": 0,
      "is_motor": true,
      "motor_id": 2,
      "accel_val": 2000,
      "base_duration_us": 689627
    },
    {
      "id": "M_2051",
      "pitch": 54,
      "t_note_us": 166895272,
      "t_trigger_us": 166759309,
      "is_ai": false,
      "track_id": 0,
      "velocity": 0,
      "is_motor": true,
      "motor_id": 0,
      "accel_val": 2000,
      "base_duration_us": 689627
    },
    {
      "id": "M_2052",
      "pitch": 66,
      "t_note_us": 166895272,
      "t_trigger_us": 166759309,
      "is_ai": false,
      "track_id": 0,
      "velocity": 0,
      "is_motor": true,
      "motor_id": 1,
      "accel_val": 2000,
      "base_duration_us": 689627
    },
    {
      "id": "M_2053",
      "pitch": 74,
      "t_note_us": 166895272,
      "t_trigger_us": 166759309,
      "is_ai": false,
      "track_id": 0,
      "velocity": 0,
      "is_motor": true,
      "motor_id": 0,
      "accel_val": 2000,
      "base_duration_us": 689627
    },
    {
      "id": "M_2054",
      "pitch": 54,
      "t_note_us": 166895272,
      "t_trigger_us": 166759309,
      "is_ai": false,
      "track_id": 0,
      "velocity": 0,
      "is_motor": true,
      "motor_id": 0,
      "accel_val": 2000,
      "base_duration_us": 689627
    },
    {
      "id": "M_2056",
      "pitch": 69,
      "t_note_us": 166895272,
      "t_trigger_us": 166759309,
      "is_ai": false,
      "track_id": 0,
      "velocity": 0,
      "is_motor": true,
      "motor_id": 0,
      "accel_val": 2000,
      "base_duration_us": 689627
    },
    {
      "id": "M_2057",
      "pitch": 74,
      "t_note_us": 166895272,
      "t_trigger_us": 166759309,
      "is_ai": false,
      "track_id": 0,
      "velocity": 0,
      "is_motor": true,
      "motor_id": 0,
      "accel_val": 2000,
      "base_duration_us": 689627
    },
    {
      "id": "M_2058",
      "pitch": 78,
      "t_note_us": 166895272,
      "t_trigger_us": 166759309,
      "is_ai": false,
      "track_id": 0,
      "velocity": 0,
      "is_motor": true,
      "motor_id": 0,
      "accel_val": 2000,
      "base_duration_us": 689627
    },
    {
      "id": "M_2059",
      "pitch": 54,
      "t_note_us": 166895272,
      "t_trigger_us": 166759309,
      "is_ai": false,
      "track_id": 0,
      "velocity": 0,
      "is_motor": true,
      "motor_id": 0,
      "accel_val": 2000,
      "base_duration_us": 689627
    },
    {
      "id": "M_2060",
      "pitch": 66,
      "t_note_us": 166895272,
      "t_trigger_us": 166759309,
      "is_ai": false,
      "track_id": 0,
      "velocity": 0,
      "is_motor": true,
      "motor_id": 0,
      "accel_val": 2000,
      "base_duration_us": 689627
    },
    {
      "id": "M_2061",
      "pitch": 74,
      "t_note_us": 166895272,
      "t_trigger_us": 166759309,
      "is_ai": false,
      "track_id": 0,
      "velocity": 0,
      "is_motor": true,
      "motor_id": 0,
      "accel_val": 2000,
      "base_duration_us": 689627
    },
    {
      "id": "M_2062",
      "pitch": 69,
      "t_note_us": 166895272,
      "t_trigger_us": 166759309,
      "is_ai": false,
      "track_id": 0,
      "velocity": 0,
      "is_motor": true,
      "motor_id": 0,
      "accel_val": 2000,
      "base_duration_us": 689627
    },
    {
      "id": "M_2063",
      "pitch": 78,
      "t_note_us": 166895272,
      "t_trigger_us": 166759309,
      "is_ai": false,
      "track_id": 0,
      "velocity": 0,
      "is_motor": true,
      "motor_id": 0,
      "accel_val": 2000,
      "base_duration_us": 689627
    },
    {
      "id": "M_2064",
      "pitch": 50,
      "t_note_us": 166895272,
      "t_trigger_us": 166759309,
      "is_ai": false,
      "track_id": 0,
      "velocity": 0,
      "is_motor": true,
      "motor_id": 0,
      "accel_val": 2000,
      "base_duration_us": 689627
    },
    {
      "id": "M_2065",
      "pitch": 57,
      "t_note_us": 166895272,
      "t_trigger_us": 166759309,
      "is_ai": false,
      "track_id": 0,
      "velocity": 0,
      "is_motor": true,
      "motor_id": 0,
      "accel_val": 2000,
      "base_duration_us": 689627
    },
    {
      "id": "M_2068",
      "pitch": 82,
      "t_note_us": 167024579,
      "t_trigger_us": 166888616,
      "is_ai": true,
      "track_id": 0,
      "velocity": 0,
      "is_motor": true,
      "motor_id": 0,
      "accel_val": 2000,
      "base_duration_us": 1060294
    },
    {
      "id": "M_2091",
      "pitch": 88,
      "t_note_us": 167584899,
      "t_trigger_us": 167448936,
      "is_ai": true,
      "track_id": 5,
      "velocity": 0,
      "is_motor": false,
      "motor_id": 0,
      "accel_val": 2000,
      "base_duration_us": 2068922
    },
    {
      "id": "M_2097",
      "pitch": 79,
      "t_note_us": 167584899,
      "t_trigger_us": 167448936,
      "is_ai": true,
      "track_id": 0,
      "velocity": 0,
      "is_motor": false,
      "motor_id": 0,
      "accel_val": 2000,
      "base_duration_us": 2068922
    },
    {
      "id": "M_2066",
      "pitch": 64,
      "t_note_us": 167584899,
      "t_trigger_us": 167448936,
      "is_ai": false,
      "track_id": 0,
      "velocity": 0,
      "is_motor": true,
      "motor_id": 1,
      "accel_val": 2000,
      "base_duration_us": 258605
    },
    {
      "id": "M_2067",
      "pitch": 64,
      "t_note_us": 167584899,
      "t_trigger_us": 167448936,
      "is_ai": false,
      "track_id": 0,
      "velocity": 0,
      "is_motor": true,
      "motor_id": 0,
      "accel_val": 2000,
      "base_duration_us": 258605
    },
    {
      "id": "M_2077",
      "pitch": 63,
      "t_note_us": 167584899,
      "t_trigger_us": 167448936,
      "is_ai": false,
      "track_id": 0,
      "velocity": 0,
      "is_motor": true,
      "motor_id": 2,
      "accel_val": 2000,
      "base_duration_us": 1034450
    },
    {
      "id": "M_2078",
      "pitch": 50,
      "t_note_us": 167584899,
      "t_trigger_us": 167448936,
      "is_ai": false,
      "track_id": 0,
      "velocity": 0,
      "is_motor": true,
      "motor_id": 3,
      "accel_val": 2000,
      "base_duration_us": 1034450
    },
    {
      "id": "M_2085",
      "pitch": 52,
      "t_note_us": 167584899,
      "t_trigger_us": 167448936,
      "is_ai": false,
      "track_id": 0,
      "velocity": 0,
      "is_motor": true,
      "motor_id": 0,
      "accel_val": 2000,
      "base_duration_us": 1810306
    },
    {
      "id": "M_2093",
      "pitch": 52,
      "t_note_us": 167584899,
      "t_trigger_us": 167448936,
      "is_ai": false,
      "track_id": 0,
      "velocity": 0,
      "is_motor": true,
      "motor_id": 0,
      "accel_val": 2000,
      "base_duration_us": 2068922
    },
    {
      "id": "M_2094",
      "pitch": 64,
      "t_note_us": 167584899,
      "t_trigger_us": 167448936,
      "is_ai": false,
      "track_id": 0,
      "velocity": 0,
      "is_motor": true,
      "motor_id": 0,
      "accel_val": 2000,
      "base_duration_us": 2068922
    },
    {
      "id": "M_2095",
      "pitch": 72,
      "t_note_us": 167584899,
      "t_trigger_us": 167448936,
      "is_ai": false,
      "track_id": 0,
      "velocity": 0,
      "is_motor": true,
      "motor_id": 0,
      "accel_val": 2000,
      "base_duration_us": 2068922
    },
    {
      "id": "M_2096",
      "pitch": 76,
      "t_note_us": 167584899,
      "t_trigger_us": 167448936,
      "is_ai": false,
      "track_id": 0,
      "velocity": 0,
      "is_motor": true,
      "motor_id": 0,
      "accel_val": 2000,
      "base_duration_us": 2068922
    },
    {
      "id": "M_2069",
      "pitch": 72,
      "t_note_us": 167843504,
      "t_trigger_us": 167707541,
      "is_ai": false,
      "track_id": 0,
      "velocity": 0,
      "is_motor": true,
      "motor_id": 1,
      "accel_val": 2000,
      "base_duration_us": 258610
    },
    {
      "id": "M_2070",
      "pitch": 72,
      "t_note_us": 167843504,
      "t_trigger_us": 167707541,
      "is_ai": false,
      "track_id": 0,
      "velocity": 0,
      "is_motor": true,
      "motor_id": 0,
      "accel_val": 2000,
      "base_duration_us": 258610
    },
    {
      "id": "M_2071",
      "pitch": 88,
      "t_note_us": 168102114,
      "t_trigger_us": 167966151,
      "is_ai": true,
      "track_id": 5,
      "velocity": 0,
      "is_motor": false,
      "motor_id": 0,
      "accel_val": 2000,
      "base_duration_us": 258617
    },
    {
      "id": "M_2072",
      "pitch": 76,
      "t_note_us": 168102114,
      "t_trigger_us": 167966151,
      "is_ai": false,
      "track_id": 0,
      "velocity": 0,
      "is_motor": true,
      "motor_id": 1,
      "accel_val": 2000,
      "base_duration_us": 258617
    },
    {
      "id": "M_2073",
      "pitch": 76,
      "t_note_us": 168102114,
      "t_trigger_us": 167966151,
      "is_ai": false,
      "track_id": 0,
      "velocity": 0,
      "is_motor": true,
      "motor_id": 0,
      "accel_val": 2000,
      "base_duration_us": 258617
    },
    {
      "id": "M_2076",
      "pitch": 56,
      "t_note_us": 168102114,
      "t_trigger_us": 167966151,
      "is_ai": false,
      "track_id": 0,
      "velocity": 0,
      "is_motor": true,
      "motor_id": 0,
      "accel_val": 2000,
      "base_duration_us": 517235
    },
    {
      "id": "M_2074",
      "pitch": 88,
      "t_note_us": 168360731,
      "t_trigger_us": 168224768,
      "is_ai": true,
      "track_id": 5,
      "velocity": 0,
      "is_motor": false,
      "motor_id": 0,
      "accel_val": 2000,
      "base_duration_us": 258618
    },
    {
      "id": "M_2075",
      "pitch": 67,
      "t_note_us": 168360731,
      "t_trigger_us": 168224768,
      "is_ai": false,
      "track_id": 0,
      "velocity": 0,
      "is_motor": true,
      "motor_id": 1,
      "accel_val": 2000,
      "base_duration_us": 258618
    },
    {
      "id": "M_2080",
      "pitch": 67,
      "t_note_us": 168360731,
      "t_trigger_us": 168224768,
      "is_ai": false,
      "track_id": 0,
      "velocity": 0,
      "is_motor": true,
      "motor_id": 0,
      "accel_val": 2000,
      "base_duration_us": 517237
    },
    {
      "id": "M_2079",
      "pitch": 88,
      "t_note_us": 168619349,
      "t_trigger_us": 168483386,
      "is_ai": true,
      "track_id": 5,
      "velocity": 0,
      "is_motor": false,
      "motor_id": 0,
      "accel_val": 2000,
      "base_duration_us": 258619
    },
    {
      "id": "M_2083",
      "pitch": 56,
      "t_note_us": 168619349,
      "t_trigger_us": 168483386,
      "is_ai": false,
      "track_id": 0,
      "velocity": 0,
      "is_motor": true,
      "motor_id": 1,
      "accel_val": 2000,
      "base_duration_us": 517239
    },
    {
      "id": "M_2087",
      "pitch": 52,
      "t_note_us": 168619349,
      "t_trigger_us": 168483386,
      "is_ai": false,
      "track_id": 0,
      "velocity": 0,
      "is_motor": true,
      "motor_id": 2,
      "accel_val": 2000,
      "base_duration_us": 775856
    },
    {
      "id": "M_2081",
      "pitch": 84,
      "t_note_us": 168877968,
      "t_trigger_us": 168742005,
      "is_ai": true,
      "track_id": 3,
      "velocity": 0,
      "is_motor": false,
      "motor_id": 0,
      "accel_val": 2000,
      "base_duration_us": 258620
    },
    {
      "id": "M_2088",
      "pitch": 91,
      "t_note_us": 168877968,
      "t_trigger_us": 168742005,
      "is_ai": true,
      "track_id": 7,
      "velocity": 0,
      "is_motor": false,
      "motor_id": 0,
      "accel_val": 2000,
      "base_duration_us": 775853
    },
    {
      "id": "M_2082",
      "pitch": 72,
      "t_note_us": 168877968,
      "t_trigger_us": 168742005,
      "is_ai": false,
      "track_id": 0,
      "velocity": 0,
      "is_motor": true,
      "motor_id": 0,
      "accel_val": 2000,
      "base_duration_us": 258620
    },
    {
      "id": "M_2084",
      "pitch": 79,
      "t_note_us": 169136588,
      "t_trigger_us": 169000625,
      "is_ai": true,
      "track_id": 0,
      "velocity": 0,
      "is_motor": false,
      "motor_id": 0,
      "accel_val": 2000,
      "base_duration_us": 258617
    },
    {
      "id": "M_2086",
      "pitch": 88,
      "t_note_us": 169136588,
      "t_trigger_us": 169000625,
      "is_ai": true,
      "track_id": 5,
      "velocity": 0,
      "is_motor": false,
      "motor_id": 0,
      "accel_val": 2000,
      "base_duration_us": 258617
    },
    {
      "id": "M_2099",
      "pitch": 56,
      "t_note_us": 169136588,
      "t_trigger_us": 169000625,
      "is_ai": false,
      "track_id": 0,
      "velocity": 0,
      "is_motor": true,
      "motor_id": 0,
      "accel_val": 2000,
      "base_duration_us": 517233
    },
    {
      "id": "M_2089",
      "pitch": 88,
      "t_note_us": 169395205,
      "t_trigger_us": 169259242,
      "is_ai": true,
      "track_id": 5,
      "velocity": 0,
      "is_motor": false,
      "motor_id": 0,
      "accel_val": 2000,
      "base_duration_us": 258616
    },
    {
      "id": "M_2092",
      "pitch": 79,
      "t_note_us": 169395205,
      "t_trigger_us": 169259242,
      "is_ai": true,
      "track_id": 0,
      "velocity": 0,
      "is_motor": false,
      "motor_id": 0,
      "accel_val": 2000,
      "base_duration_us": 258616
    },
    {
      "id": "M_2090",
      "pitch": 52,
      "t_note_us": 169395205,
      "t_trigger_us": 169259242,
      "is_ai": false,
      "track_id": 0,
      "velocity": 0,
      "is_motor": true,
      "motor_id": 1,
      "accel_val": 2000,
      "base_duration_us": 258616
    },
    {
      "id": "M_2098",
      "pitch": 50,
      "t_note_us": 169395205,
      "t_trigger_us": 169259242,
      "is_ai": false,
      "track_id": 0,
      "velocity": 0,
      "is_motor": true,
      "motor_id": 2,
      "accel_val": 2000,
      "base_duration_us": 258616
    },
    {
      "id": "M_2102",
      "pitch": 90,
      "t_note_us": 169653821,
      "t_trigger_us": 169517858,
      "is_ai": true,
      "track_id": 0,
      "velocity": 0,
      "is_motor": true,
      "motor_id": 3,
      "accel_val": 2000,
      "base_duration_us": 517236
    },
    {
      "id": "M_2125",
      "pitch": 90,
      "t_note_us": 169653821,
      "t_trigger_us": 169517858,
      "is_ai": true,
      "track_id": 0,
      "velocity": 0,
      "is_motor": true,
      "motor_id": 2,
      "accel_val": 2000,
      "base_duration_us": 2068947
    },
    {
      "id": "M_2129",
      "pitch": 81,
      "t_note_us": 169653821,
      "t_trigger_us": 169517858,
      "is_ai": true,
      "track_id": 1,
      "velocity": 0,
      "is_motor": false,
      "motor_id": 0,
      "accel_val": 2000,
      "base_duration_us": 2068947
    },
    {
      "id": "M_2100",
      "pitch": 66,
      "t_note_us": 169653821,
      "t_trigger_us": 169517858,
      "is_ai": false,
      "track_id": 0,
      "velocity": 0,
      "is_motor": true,
      "motor_id": 1,
      "accel_val": 2000,
      "base_duration_us": 258618
    },
    {
      "id": "M_2101",
      "pitch": 66,
      "t_note_us": 169653821,
      "t_trigger_us": 169517858,
      "is_ai": false,
      "track_id": 0,
      "velocity": 0,
      "is_motor": true,
      "motor_id": 0,
      "accel_val": 2000,
      "base_duration_us": 258618
    },
    {
      "id": "M_2105",
      "pitch": 56,
      "t_note_us": 169653821,
      "t_trigger_us": 169517858,
      "is_ai": false,
      "track_id": 0,
      "velocity": 0,
      "is_motor": true,
      "motor_id": 0,
      "accel_val": 2000,
      "base_duration_us": 517236
    },
    {
      "id": "M_2111",
      "pitch": 50,
      "t_note_us": 169653821,
      "t_trigger_us": 169517858,
      "is_ai": false,
      "track_id": 0,
      "velocity": 0,
      "is_motor": true,
      "motor_id": 0,
      "accel_val": 2000,
      "base_duration_us": 1034475
    },
    {
      "id": "M_2119",
      "pitch": 54,
      "t_note_us": 169653821,
      "t_trigger_us": 169517858,
      "is_ai": false,
      "track_id": 0,
      "velocity": 0,
      "is_motor": true,
      "motor_id": 0,
      "accel_val": 2000,
      "base_duration_us": 1810328
    },
    {
      "id": "M_2127",
      "pitch": 54,
      "t_note_us": 169653821,
      "t_trigger_us": 169517858,
      "is_ai": false,
      "track_id": 0,
      "velocity": 0,
      "is_motor": true,
      "motor_id": 0,
      "accel_val": 2000,
      "base_duration_us": 2068947
    },
    {
      "id": "M_2128",
      "pitch": 66,
      "t_note_us": 169653821,
      "t_trigger_us": 169517858,
      "is_ai": false,
      "track_id": 0,
      "velocity": 0,
      "is_motor": true,
      "motor_id": 0,
      "accel_val": 2000,
      "base_duration_us": 2068947
    },
    {
      "id": "M_2130",
      "pitch": 74,
      "t_note_us": 169653821,
      "t_trigger_us": 169517858,
      "is_ai": false,
      "track_id": 0,
      "velocity": 0,
      "is_motor": true,
      "motor_id": 0,
      "accel_val": 2000,
      "base_duration_us": 2068947
    },
    {
      "id": "M_2131",
      "pitch": 78,
      "t_note_us": 169653821,
      "t_trigger_us": 169517858,
      "is_ai": false,
      "track_id": 0,
      "velocity": 0,
      "is_motor": true,
      "motor_id": 0,
      "accel_val": 2000,
      "base_duration_us": 2068947
    },
    {
      "id": "M_2103",
      "pitch": 74,
      "t_note_us": 169912439,
      "t_trigger_us": 169776476,
      "is_ai": false,
      "track_id": 0,
      "velocity": 0,
      "is_motor": true,
      "motor_id": 1,
      "accel_val": 2000,
      "base_duration_us": 258618
    },
    {
      "id": "M_2104",
      "pitch": 74,
      "t_note_us": 169912439,
      "t_trigger_us": 169776476,
      "is_ai": false,
      "track_id": 0,
      "velocity": 0,
      "is_motor": true,
      "motor_id": 0,
      "accel_val": 2000,
      "base_duration_us": 258618
    },
    {
      "id": "M_2106",
      "pitch": 91,
      "t_note_us": 170171057,
      "t_trigger_us": 170035094,
      "is_ai": true,
      "track_id": 7,
      "velocity": 0,
      "is_motor": false,
      "motor_id": 0,
      "accel_val": 2000,
      "base_duration_us": 258619
    },
    {
      "id": "M_2107",
      "pitch": 78,
      "t_note_us": 170171057,
      "t_trigger_us": 170035094,
      "is_ai": false,
      "track_id": 0,
      "velocity": 0,
      "is_motor": true,
      "motor_id": 3,
      "accel_val": 2000,
      "base_duration_us": 258619
    },
    {
      "id": "M_2108",
      "pitch": 78,
      "t_note_us": 170171057,
      "t_trigger_us": 170035094,
      "is_ai": false,
      "track_id": 0,
      "velocity": 0,
      "is_motor": true,
      "motor_id": 1,
      "accel_val": 2000,
      "base_duration_us": 258619
    },
    {
      "id": "M_2110",
      "pitch": 56,
      "t_note_us": 170171057,
      "t_trigger_us": 170035094,
      "is_ai": false,
      "track_id": 0,
      "velocity": 0,
      "is_motor": true,
      "motor_id": 0,
      "accel_val": 2000,
      "base_duration_us": 517239
    },
    {
      "id": "M_2109",
      "pitch": 81,
      "t_note_us": 170429676,
      "t_trigger_us": 170293713,
      "is_ai": true,
      "track_id": 1,
      "velocity": 0,
      "is_motor": false,
      "motor_id": 0,
      "accel_val": 2000,
      "base_duration_us": 258620
    },
    {
      "id": "M_2112",
      "pitch": 90,
      "t_note_us": 170429676,
      "t_trigger_us": 170293713,
      "is_ai": true,
      "track_id": 0,
      "velocity": 0,
      "is_motor": true,
      "motor_id": 3,
      "accel_val": 2000,
      "base_duration_us": 517238
    },
    {
      "id": "M_2113",
      "pitch": 81,
      "t_note_us": 170429676,
      "t_trigger_us": 170293713,
      "is_ai": true,
      "track_id": 1,
      "velocity": 0,
      "is_motor": false,
      "motor_id": 0,
      "accel_val": 2000,
      "base_duration_us": 517238
    },
    {
      "id": "M_2116",
      "pitch": 56,
      "t_note_us": 170688296,
      "t_trigger_us": 170552333,
      "is_ai": false,
      "track_id": 0,
      "velocity": 0,
      "is_motor": true,
      "motor_id": 0,
      "accel_val": 2000,
      "base_duration_us": 517235
    },
    {
      "id": "M_2121",
      "pitch": 52,
      "t_note_us": 170688296,
      "t_trigger_us": 170552333,
      "is_ai": false,
      "track_id": 0,
      "velocity": 0,
      "is_motor": true,
      "motor_id": 1,
      "accel_val": 2000,
      "base_duration_us": 775853
    },
    {
      "id": "M_2114",
      "pitch": 86,
      "t_note_us": 170946914,
      "t_trigger_us": 170810951,
      "is_ai": true,
      "track_id": 4,
      "velocity": 0,
      "is_motor": false,
      "motor_id": 0,
      "accel_val": 2000,
      "base_duration_us": 258617
    },
    {
      "id": "M_2117",
      "pitch": 86,
      "t_note_us": 170946914,
      "t_trigger_us": 170810951,
      "is_ai": true,
      "track_id": 4,
      "velocity": 0,
      "is_motor": false,
      "motor_id": 0,
      "accel_val": 2000,
      "base_duration_us": 517235
    },
    {
      "id": "M_2115",
      "pitch": 74,
      "t_note_us": 170946914,
      "t_trigger_us": 170810951,
      "is_ai": false,
      "track_id": 0,
      "velocity": 0,
      "is_motor": true,
      "motor_id": 3,
      "accel_val": 2000,
      "base_duration_us": 258617
    },
    {
      "id": "M_2118",
      "pitch": 81,
      "t_note_us": 171205531,
      "t_trigger_us": 171069568,
      "is_ai": true,
      "track_id": 1,
      "velocity": 0,
      "is_motor": false,
      "motor_id": 0,
      "accel_val": 2000,
      "base_duration_us": 258618
    },
    {
      "id": "M_2120",
      "pitch": 90,
      "t_note_us": 171205531,
      "t_trigger_us": 171069568,
      "is_ai": true,
      "track_id": 0,
      "velocity": 0,
      "is_motor": true,
      "motor_id": 3,
      "accel_val": 2000,
      "base_duration_us": 258618
    },
    {
      "id": "M_2133",
      "pitch": 56,
      "t_note_us": 171205531,
      "t_trigger_us": 171069568,
      "is_ai": false,
      "track_id": 0,
      "velocity": 0,
      "is_motor": true,
      "motor_id": 0,
      "accel_val": 2000,
      "base_duration_us": 517237
    },
    {
      "id": "M_2122",
      "pitch": 86,
      "t_note_us": 171464149,
      "t_trigger_us": 171328186,
      "is_ai": true,
      "track_id": 4,
      "velocity": 0,
      "is_motor": false,
      "motor_id": 0,
      "accel_val": 2000,
      "base_duration_us": 258619
    },
    {
      "id": "M_2123",
      "pitch": 90,
      "t_note_us": 171464149,
      "t_trigger_us": 171328186,
      "is_ai": true,
      "track_id": 0,
      "velocity": 0,
      "is_motor": true,
      "motor_id": 3,
      "accel_val": 2000,
      "base_duration_us": 258619
    },
    {
      "id": "M_2126",
      "pitch": 86,
      "t_note_us": 171464149,
      "t_trigger_us": 171328186,
      "is_ai": true,
      "track_id": 4,
      "velocity": 0,
      "is_motor": false,
      "motor_id": 0,
      "accel_val": 2000,
      "base_duration_us": 258619
    },
    {
      "id": "M_2124",
      "pitch": 54,
      "t_note_us": 171464149,
      "t_trigger_us": 171328186,
      "is_ai": false,
      "track_id": 0,
      "velocity": 0,
      "is_motor": true,
      "motor_id": 1,
      "accel_val": 2000,
      "base_duration_us": 258619
    },
    {
      "id": "M_2132",
      "pitch": 50,
      "t_note_us": 171464149,
      "t_trigger_us": 171328186,
      "is_ai": false,
      "track_id": 0,
      "velocity": 0,
      "is_motor": true,
      "motor_id": 0,
      "accel_val": 2000,
      "base_duration_us": 258619
    },
    {
      "id": "M_2135",
      "pitch": 95,
      "t_note_us": 171722768,
      "t_trigger_us": 171586805,
      "is_ai": true,
      "track_id": 9,
      "velocity": 0,
      "is_motor": false,
      "motor_id": 0,
      "accel_val": 2000,
      "base_duration_us": 344825
    },
    {
      "id": "M_2144",
      "pitch": 83,
      "t_note_us": 171722768,
      "t_trigger_us": 171586805,
      "is_ai": true,
      "track_id": 2,
      "velocity": 0,
      "is_motor": false,
      "motor_id": 0,
      "accel_val": 2000,
      "base_duration_us": 1034472
    },
    {
      "id": "M_2145",
      "pitch": 86,
      "t_note_us": 171722768,
      "t_trigger_us": 171586805,
      "is_ai": true,
      "track_id": 4,
      "velocity": 0,
      "is_motor": false,
      "motor_id": 0,
      "accel_val": 2000,
      "base_duration_us": 1034472
    },
    {
      "id": "M_2147",
      "pitch": 91,
      "t_note_us": 171722768,
      "t_trigger_us": 171586805,
      "is_ai": true,
      "track_id": 7,
      "velocity": 0,
      "is_motor": false,
      "motor_id": 0,
      "accel_val": 2000,
      "base_duration_us": 1034472
    },
    {
      "id": "M_2150",
      "pitch": 79,
      "t_note_us": 171722768,
      "t_trigger_us": 171586805,
      "is_ai": true,
      "track_id": 0,
      "velocity": 0,
      "is_motor": false,
      "motor_id": 0,
      "accel_val": 2000,
      "base_duration_us": 1034472
    },
    {
      "id": "M_2151",
      "pitch": 79,
      "t_note_us": 171722768,
      "t_trigger_us": 171586805,
      "is_ai": true,
      "track_id": 0,
      "velocity": 0,
      "is_motor": false,
      "motor_id": 0,
      "accel_val": 2000,
      "base_duration_us": 1034472
    },
    {
      "id": "M_2153",
      "pitch": 83,
      "t_note_us": 171722768,
      "t_trigger_us": 171586805,
      "is_ai": true,
      "track_id": 2,
      "velocity": 0,
      "is_motor": false,
      "motor_id": 0,
      "accel_val": 2000,
      "base_duration_us": 1034472
    },
    {
      "id": "M_2134",
      "pitch": 67,
      "t_note_us": 171722768,
      "t_trigger_us": 171586805,
      "is_ai": false,
      "track_id": 0,
      "velocity": 0,
      "is_motor": true,
      "motor_id": 1,
      "accel_val": 2000,
      "base_duration_us": 258619
    },
    {
      "id": "M_2137",
      "pitch": 56,
      "t_note_us": 171722768,
      "t_trigger_us": 171586805,
      "is_ai": false,
      "track_id": 0,
      "velocity": 0,
      "is_motor": true,
      "motor_id": 0,
      "accel_val": 2000,
      "base_duration_us": 517236
    },
    {
      "id": "M_2139",
      "pitch": 55,
      "t_note_us": 171722768,
      "t_trigger_us": 171586805,
      "is_ai": false,
      "track_id": 0,
      "velocity": 0,
      "is_motor": true,
      "motor_id": 2,
      "accel_val": 2000,
      "base_duration_us": 775854
    },
    {
      "id": "M_2140",
      "pitch": 55,
      "t_note_us": 171722768,
      "t_trigger_us": 171586805,
      "is_ai": false,
      "track_id": 0,
      "velocity": 0,
      "is_motor": true,
      "motor_id": 3,
      "accel_val": 2000,
      "base_duration_us": 775854
    },
    {
      "id": "M_2149",
      "pitch": 67,
      "t_note_us": 171722768,
      "t_trigger_us": 171586805,
      "is_ai": false,
      "track_id": 0,
      "velocity": 0,
      "is_motor": true,
      "motor_id": 0,
      "accel_val": 2000,
      "base_duration_us": 1034472
    },
    {
      "id": "M_2152",
      "pitch": 74,
      "t_note_us": 171722768,
      "t_trigger_us": 171586805,
      "is_ai": false,
      "track_id": 0,
      "velocity": 0,
      "is_motor": true,
      "motor_id": 0,
      "accel_val": 2000,
      "base_duration_us": 1034472
    },
    {
      "id": "M_2155",
      "pitch": 50,
      "t_note_us": 171722768,
      "t_trigger_us": 171586805,
      "is_ai": false,
      "track_id": 0,
      "velocity": 0,
      "is_motor": true,
      "motor_id": 0,
      "accel_val": 2000,
      "base_duration_us": 1034472
    },
    {
      "id": "M_2136",
      "pitch": 74,
      "t_note_us": 171981387,
      "t_trigger_us": 171845424,
      "is_ai": false,
      "track_id": 0,
      "velocity": 0,
      "is_motor": true,
      "motor_id": 1,
      "accel_val": 2000,
      "base_duration_us": 258617
    },
    {
      "id": "M_2138",
      "pitch": 95,
      "t_note_us": 172067593,
      "t_trigger_us": 171931630,
      "is_ai": true,
      "track_id": 9,
      "velocity": 0,
      "is_motor": false,
      "motor_id": 0,
      "accel_val": 2000,
      "base_duration_us": 344823
    },
    {
      "id": "M_2141",
      "pitch": 79,
      "t_note_us": 172240004,
      "t_trigger_us": 172104041,
      "is_ai": true,
      "track_id": 0,
      "velocity": 0,
      "is_motor": false,
      "motor_id": 0,
      "accel_val": 2000,
      "base_duration_us": 258618
    },
    {
      "id": "M_2154",
      "pitch": 56,
      "t_note_us": 172240004,
      "t_trigger_us": 172104041,
      "is_ai": false,
      "track_id": 0,
      "velocity": 0,
      "is_motor": true,
      "motor_id": 0,
      "accel_val": 2000,
      "base_duration_us": 517236
    },
    {
      "id": "M_2142",
      "pitch": 95,
      "t_note_us": 172412416,
      "t_trigger_us": 172276453,
      "is_ai": true,
      "track_id": 9,
      "velocity": 0,
      "is_motor": false,
      "motor_id": 0,
      "accel_val": 2000,
      "base_duration_us": 344824
    },
    {
      "id": "M_2148",
      "pitch": 83,
      "t_note_us": 172498622,
      "t_trigger_us": 172362659,
      "is_ai": true,
      "track_id": 2,
      "velocity": 0,
      "is_motor": false,
      "motor_id": 0,
      "accel_val": 2000,
      "base_duration_us": 258618
    },
    {
      "id": "M_2143",
      "pitch": 67,
      "t_note_us": 172498622,
      "t_trigger_us": 172362659,
      "is_ai": false,
      "track_id": 0,
      "velocity": 0,
      "is_motor": true,
      "motor_id": 1,
      "accel_val": 2000,
      "base_duration_us": 258618
    },
    {
      "id": "M_2146",
      "pitch": 55,
      "t_note_us": 172498622,
      "t_trigger_us": 172362659,
      "is_ai": false,
      "track_id": 0,
      "velocity": 0,
      "is_motor": true,
      "motor_id": 2,
      "accel_val": 2000,
      "base_duration_us": 258618
    },
    {
      "id": "M_2157",
      "pitch": 98,
      "t_note_us": 172757240,
      "t_trigger_us": 172621277,
      "is_ai": true,
      "track_id": 11,
      "velocity": 0,
      "is_motor": false,
      "motor_id": 0,
      "accel_val": 2000,
      "base_duration_us": 344825
    },
    {
      "id": "M_2168",
      "pitch": 86,
      "t_note_us": 172757240,
      "t_trigger_us": 172621277,
      "is_ai": true,
      "track_id": 4,
      "velocity": 0,
      "is_motor": false,
      "motor_id": 0,
      "accel_val": 2000,
      "base_duration_us": 1034471
    },
    {
      "id": "M_2170",
      "pitch": 93,
      "t_note_us": 172757240,
      "t_trigger_us": 172621277,
      "is_ai": true,
      "track_id": 8,
      "velocity": 0,
      "is_motor": false,
      "motor_id": 0,
      "accel_val": 2000,
      "base_duration_us": 1034471
    },
    {
      "id": "M_2156",
      "pitch": 66,
      "t_note_us": 172757240,
      "t_trigger_us": 172621277,
      "is_ai": false,
      "track_id": 0,
      "velocity": 0,
      "is_motor": true,
      "motor_id": 1,
      "accel_val": 2000,
      "base_duration_us": 258619
    },
    {
      "id": "M_2159",
      "pitch": 56,
      "t_note_us": 172757240,
      "t_trigger_us": 172621277,
      "is_ai": false,
      "track_id": 0,
      "velocity": 0,
      "is_motor": true,
      "motor_id": 0,
      "accel_val": 2000,
      "base_duration_us": 517237
    },
    {
      "id": "M_2161",
      "pitch": 54,
      "t_note_us": 172757240,
      "t_trigger_us": 172621277,
      "is_ai": false,
      "track_id": 0,
      "velocity": 0,
      "is_motor": true,
      "motor_id": 2,
      "accel_val": 2000,
      "base_duration_us": 775855
    },
    {
      "id": "M_2162",
      "pitch": 54,
      "t_note_us": 172757240,
      "t_trigger_us": 172621277,
      "is_ai": false,
      "track_id": 0,
      "velocity": 0,
      "is_motor": true,
      "motor_id": 3,
      "accel_val": 2000,
      "base_duration_us": 775855
    },
    {
      "id": "M_2164",
      "pitch": 52,
      "t_note_us": 172757240,
      "t_trigger_us": 172621277,
      "is_ai": false,
      "track_id": 0,
      "velocity": 0,
      "is_motor": true,
      "motor_id": 0,
      "accel_val": 2000,
      "base_duration_us": 775855
    },
    {
      "id": "M_2167",
      "pitch": 69,
      "t_note_us": 172757240,
      "t_trigger_us": 172621277,
      "is_ai": false,
      "track_id": 0,
      "velocity": 0,
      "is_motor": true,
      "motor_id": 0,
      "accel_val": 2000,
      "base_duration_us": 1034471
    },
    {
      "id": "M_2172",
      "pitch": 66,
      "t_note_us": 172757240,
      "t_trigger_us": 172621277,
      "is_ai": false,
      "track_id": 0,
      "velocity": 0,
      "is_motor": true,
      "motor_id": 0,
      "accel_val": 2000,
      "base_duration_us": 1034471
    },
    {
      "id": "M_2173",
      "pitch": 78,
      "t_note_us": 172757240,
      "t_trigger_us": 172621277,
      "is_ai": false,
      "track_id": 0,
      "velocity": 0,
      "is_motor": true,
      "motor_id": 0,
      "accel_val": 2000,
      "base_duration_us": 1034471
    },
    {
      "id": "M_2174",
      "pitch": 74,
      "t_note_us": 172757240,
      "t_trigger_us": 172621277,
      "is_ai": false,
      "track_id": 0,
      "velocity": 0,
      "is_motor": true,
      "motor_id": 0,
      "accel_val": 2000,
      "base_duration_us": 1034471
    },
    {
      "id": "M_2175",
      "pitch": 78,
      "t_note_us": 172757240,
      "t_trigger_us": 172621277,
      "is_ai": false,
      "track_id": 0,
      "velocity": 0,
      "is_motor": true,
      "motor_id": 0,
      "accel_val": 2000,
      "base_duration_us": 1034471
    },
    {
      "id": "M_2176",
      "pitch": 69,
      "t_note_us": 172757240,
      "t_trigger_us": 172621277,
      "is_ai": false,
      "track_id": 0,
      "velocity": 0,
      "is_motor": true,
      "motor_id": 0,
      "accel_val": 2000,
      "base_duration_us": 1034471
    },
    {
      "id": "M_2158",
      "pitch": 74,
      "t_note_us": 173015859,
      "t_trigger_us": 172879896,
      "is_ai": false,
      "track_id": 0,
      "velocity": 0,
      "is_motor": true,
      "motor_id": 1,
      "accel_val": 2000,
      "base_duration_us": 258618
    },
    {
      "id": "M_2160",
      "pitch": 93,
      "t_note_us": 173102065,
      "t_trigger_us": 172966102,
      "is_ai": true,
      "track_id": 8,
      "velocity": 0,
      "is_motor": false,
      "motor_id": 0,
      "accel_val": 2000,
      "base_duration_us": 344825
    },
    {
      "id": "M_2163",
      "pitch": 90,
      "t_note_us": 173274477,
      "t_trigger_us": 173138514,
      "is_ai": true,
      "track_id": 0,
      "velocity": 0,
      "is_motor": true,
      "motor_id": 1,
      "accel_val": 2000,
      "base_duration_us": 258618
    },
    {
      "id": "M_2178",
      "pitch": 56,
      "t_note_us": 173274477,
      "t_trigger_us": 173138514,
      "is_ai": false,
      "track_id": 0,
      "velocity": 0,
      "is_motor": true,
      "motor_id": 0,
      "accel_val": 2000,
      "base_duration_us": 517234
    },
    {
      "id": "M_2165",
      "pitch": 95,
      "t_note_us": 173446890,
      "t_trigger_us": 173310927,
      "is_ai": true,
      "track_id": 9,
      "velocity": 0,
      "is_motor": false,
      "motor_id": 0,
      "accel_val": 2000,
      "base_duration_us": 344821
    },
    {
      "id": "M_2171",
      "pitch": 81,
      "t_note_us": 173533095,
      "t_trigger_us": 173397132,
      "is_ai": true,
      "track_id": 1,
      "velocity": 0,
      "is_motor": false,
      "motor_id": 0,
      "accel_val": 2000,
      "base_duration_us": 258616
    },
    {
      "id": "M_2166",
      "pitch": 66,
      "t_note_us": 173533095,
      "t_trigger_us": 173397132,
      "is_ai": false,
      "track_id": 0,
      "velocity": 0,
      "is_motor": true,
      "motor_id": 1,
      "accel_val": 2000,
      "base_duration_us": 258616
    },
    {
      "id": "M_2169",
      "pitch": 54,
      "t_note_us": 173533095,
      "t_trigger_us": 173397132,
      "is_ai": false,
      "track_id": 0,
      "velocity": 0,
      "is_motor": true,
      "motor_id": 2,
      "accel_val": 2000,
      "base_duration_us": 258616
    },
    {
      "id": "M_2177",
      "pitch": 50,
      "t_note_us": 173533095,
      "t_trigger_us": 173397132,
      "is_ai": false,
      "track_id": 0,
      "velocity": 0,
      "is_motor": true,
      "motor_id": 3,
      "accel_val": 2000,
      "base_duration_us": 258616
    },
    {
      "id": "M_2179",
      "pitch": 93,
      "t_note_us": 173791711,
      "t_trigger_us": 173655748,
      "is_ai": true,
      "track_id": 8,
      "velocity": 0,
      "is_motor": false,
      "motor_id": 0,
      "accel_val": 2000,
      "base_duration_us": 258605
    },
    {
      "id": "M_2187",
      "pitch": 83,
      "t_note_us": 173791711,
      "t_trigger_us": 173655748,
      "is_ai": true,
      "track_id": 2,
      "velocity": 0,
      "is_motor": false,
      "motor_id": 0,
      "accel_val": 2000,
      "base_duration_us": 1034444
    },
    {
      "id": "M_2188",
      "pitch": 79,
      "t_note_us": 173791711,
      "t_trigger_us": 173655748,
      "is_ai": true,
      "track_id": 0,
      "velocity": 0,
      "is_motor": false,
      "motor_id": 0,
      "accel_val": 2000,
      "base_duration_us": 1034444
    },
    {
      "id": "M_2190",
      "pitch": 95,
      "t_note_us": 173791711,
      "t_trigger_us": 173655748,
      "is_ai": true,
      "track_id": 9,
      "velocity": 0,
      "is_motor": false,
      "motor_id": 0,
      "accel_val": 2000,
      "base_duration_us": 1034444
    },
    {
      "id": "M_2193",
      "pitch": 88,
      "t_note_us": 173791711,
      "t_trigger_us": 173655748,
      "is_ai": true,
      "track_id": 5,
      "velocity": 0,
      "is_motor": false,
      "motor_id": 0,
      "accel_val": 2000,
      "base_duration_us": 1034444
    },
    {
      "id": "M_2194",
      "pitch": 88,
      "t_note_us": 173791711,
      "t_trigger_us": 173655748,
      "is_ai": true,
      "track_id": 5,
      "velocity": 0,
      "is_motor": false,
      "motor_id": 0,
      "accel_val": 2000,
      "base_duration_us": 1034444
    },
    {
      "id": "M_2195",
      "pitch": 79,
      "t_note_us": 173791711,
      "t_trigger_us": 173655748,
      "is_ai": true,
      "track_id": 0,
      "velocity": 0,
      "is_motor": false,
      "motor_id": 0,
      "accel_val": 2000,
      "base_duration_us": 1034444
    },
    {
      "id": "M_2180",
      "pitch": 64,
      "t_note_us": 173791711,
      "t_trigger_us": 173655748,
      "is_ai": false,
      "track_id": 0,
      "velocity": 0,
      "is_motor": true,
      "motor_id": 1,
      "accel_val": 2000,
      "base_duration_us": 258605
    },
    {
      "id": "M_2182",
      "pitch": 56,
      "t_note_us": 173791711,
      "t_trigger_us": 173655748,
      "is_ai": false,
      "track_id": 0,
      "velocity": 0,
      "is_motor": true,
      "motor_id": 0,
      "accel_val": 2000,
      "base_duration_us": 517211
    },
    {
      "id": "M_2183",
      "pitch": 52,
      "t_note_us": 173791711,
      "t_trigger_us": 173655748,
      "is_ai": false,
      "track_id": 0,
      "velocity": 0,
      "is_motor": true,
      "motor_id": 2,
      "accel_val": 2000,
      "base_duration_us": 775825
    },
    {
      "id": "M_2184",
      "pitch": 52,
      "t_note_us": 173791711,
      "t_trigger_us": 173655748,
      "is_ai": false,
      "track_id": 0,
      "velocity": 0,
      "is_motor": true,
      "motor_id": 3,
      "accel_val": 2000,
      "base_duration_us": 775825
    },
    {
      "id": "M_2192",
      "pitch": 64,
      "t_note_us": 173791711,
      "t_trigger_us": 173655748,
      "is_ai": false,
      "track_id": 0,
      "velocity": 0,
      "is_motor": true,
      "motor_id": 0,
      "accel_val": 2000,
      "base_duration_us": 1034444
    },
    {
      "id": "M_2196",
      "pitch": 71,
      "t_note_us": 173791711,
      "t_trigger_us": 173655748,
      "is_ai": false,
      "track_id": 0,
      "velocity": 0,
      "is_motor": true,
      "motor_id": 0,
      "accel_val": 2000,
      "base_duration_us": 1034444
    },
    {
      "id": "M_2198",
      "pitch": 50,
      "t_note_us": 173791711,
      "t_trigger_us": 173655748,
      "is_ai": false,
      "track_id": 0,
      "velocity": 0,
      "is_motor": true,
      "motor_id": 0,
      "accel_val": 2000,
      "base_duration_us": 1034444
    },
    {
      "id": "M_2210",
      "pitch": 91,
      "t_note_us": 174050316,
      "t_trigger_us": 173914353,
      "is_ai": true,
      "track_id": 7,
      "velocity": 0,
      "is_motor": false,
      "motor_id": 0,
      "accel_val": 2000,
      "base_duration_us": 1810310
    },
    {
      "id": "M_2181",
      "pitch": 71,
      "t_note_us": 174050316,
      "t_trigger_us": 173914353,
      "is_ai": false,
      "track_id": 0,
      "velocity": 0,
      "is_motor": true,
      "motor_id": 1,
      "accel_val": 2000,
      "base_duration_us": 258606
    },
    {
      "id": "M_2185",
      "pitch": 88,
      "t_note_us": 174308922,
      "t_trigger_us": 174172959,
      "is_ai": true,
      "track_id": 5,
      "velocity": 0,
      "is_motor": false,
      "motor_id": 0,
      "accel_val": 2000,
      "base_duration_us": 258614
    },
    {
      "id": "M_2197",
      "pitch": 56,
      "t_note_us": 174308922,
      "t_trigger_us": 174172959,
      "is_ai": false,
      "track_id": 0,
      "velocity": 0,
      "is_motor": true,
      "motor_id": 0,
      "accel_val": 2000,
      "base_duration_us": 517233
    },
    {
      "id": "M_2191",
      "pitch": 79,
      "t_note_us": 174567536,
      "t_trigger_us": 174431573,
      "is_ai": true,
      "track_id": 0,
      "velocity": 0,
      "is_motor": false,
      "motor_id": 0,
      "accel_val": 2000,
      "base_duration_us": 258619
    },
    {
      "id": "M_2186",
      "pitch": 64,
      "t_note_us": 174567536,
      "t_trigger_us": 174431573,
      "is_ai": false,
      "track_id": 0,
      "velocity": 0,
      "is_motor": true,
      "motor_id": 1,
      "accel_val": 2000,
      "base_duration_us": 258619
    },
    {
      "id": "M_2189",
      "pitch": 52,
      "t_note_us": 174567536,
      "t_trigger_us": 174431573,
      "is_ai": false,
      "track_id": 0,
      "velocity": 0,
      "is_motor": true,
      "motor_id": 2,
      "accel_val": 2000,
      "base_duration_us": 258619
    },
    {
      "id": "M_2201",
      "pitch": 93,
      "t_note_us": 174826155,
      "t_trigger_us": 174690192,
      "is_ai": true,
      "track_id": 8,
      "velocity": 0,
      "is_motor": false,
      "motor_id": 0,
      "accel_val": 2000,
      "base_duration_us": 517235
    },
    {
      "id": "M_2199",
      "pitch": 62,
      "t_note_us": 174826155,
      "t_trigger_us": 174690192,
      "is_ai": false,
      "track_id": 0,
      "velocity": 0,
      "is_motor": true,
      "motor_id": 1,
      "accel_val": 2000,
      "base_duration_us": 258617
    },
    {
      "id": "M_2200",
      "pitch": 67,
      "t_note_us": 174826155,
      "t_trigger_us": 174690192,
      "is_ai": false,
      "track_id": 0,
      "velocity": 0,
      "is_motor": true,
      "motor_id": 2,
      "accel_val": 2000,
      "base_duration_us": 258617
    },
    {
      "id": "M_2204",
      "pitch": 56,
      "t_note_us": 174826155,
      "t_trigger_us": 174690192,
      "is_ai": false,
      "track_id": 0,
      "velocity": 0,
      "is_motor": true,
      "motor_id": 0,
      "accel_val": 2000,
      "base_duration_us": 517235
    },
    {
      "id": "M_2205",
      "pitch": 50,
      "t_note_us": 174826155,
      "t_trigger_us": 174690192,
      "is_ai": false,
      "track_id": 0,
      "velocity": 0,
      "is_motor": true,
      "motor_id": 3,
      "accel_val": 2000,
      "base_duration_us": 775854
    },
    {
      "id": "M_2206",
      "pitch": 50,
      "t_note_us": 174826155,
      "t_trigger_us": 174690192,
      "is_ai": false,
      "track_id": 0,
      "velocity": 0,
      "is_motor": true,
      "motor_id": 0,
      "accel_val": 2000,
      "base_duration_us": 775854
    },
    {
      "id": "M_2209",
      "pitch": 52,
      "t_note_us": 174826155,
      "t_trigger_us": 174690192,
      "is_ai": false,
      "track_id": 0,
      "velocity": 0,
      "is_motor": true,
      "motor_id": 0,
      "accel_val": 2000,
      "base_duration_us": 775854
    },
    {
      "id": "M_2212",
      "pitch": 69,
      "t_note_us": 174826155,
      "t_trigger_us": 174690192,
      "is_ai": false,
      "track_id": 0,
      "velocity": 0,
      "is_motor": true,
      "motor_id": 0,
      "accel_val": 2000,
      "base_duration_us": 1034471
    },
    {
      "id": "M_2213",
      "pitch": 78,
      "t_note_us": 174826155,
      "t_trigger_us": 174690192,
      "is_ai": false,
      "track_id": 0,
      "velocity": 0,
      "is_motor": true,
      "motor_id": 0,
      "accel_val": 2000,
      "base_duration_us": 1034471
    },
    {
      "id": "M_2217",
      "pitch": 62,
      "t_note_us": 174826155,
      "t_trigger_us": 174690192,
      "is_ai": false,
      "track_id": 0,
      "velocity": 0,
      "is_motor": true,
      "motor_id": 0,
      "accel_val": 2000,
      "base_duration_us": 1034471
    },
    {
      "id": "M_2218",
      "pitch": 74,
      "t_note_us": 174826155,
      "t_trigger_us": 174690192,
      "is_ai": false,
      "track_id": 0,
      "velocity": 0,
      "is_motor": true,
      "motor_id": 0,
      "accel_val": 2000,
      "base_duration_us": 1034471
    },
    {
      "id": "M_2219",
      "pitch": 67,
      "t_note_us": 174826155,
      "t_trigger_us": 174690192,
      "is_ai": false,
      "track_id": 0,
      "velocity": 0,
      "is_motor": true,
      "motor_id": 0,
      "accel_val": 2000,
      "base_duration_us": 1034471
    },
    {
      "id": "M_2220",
      "pitch": 71,
      "t_note_us": 174826155,
      "t_trigger_us": 174690192,
      "is_ai": false,
      "track_id": 0,
      "velocity": 0,
      "is_motor": true,
      "motor_id": 0,
      "accel_val": 2000,
      "base_duration_us": 1034471
    },
    {
      "id": "M_2221",
      "pitch": 74,
      "t_note_us": 174826155,
      "t_trigger_us": 174690192,
      "is_ai": false,
      "track_id": 0,
      "velocity": 0,
      "is_motor": true,
      "motor_id": 0,
      "accel_val": 2000,
      "base_duration_us": 1034471
    },
    {
      "id": "M_2203",
      "pitch": 90,
      "t_note_us": 175084772,
      "t_trigger_us": 174948809,
      "is_ai": true,
      "track_id": 0,
      "velocity": 0,
      "is_motor": true,
      "motor_id": 2,
      "accel_val": 2000,
      "base_duration_us": 258618
    },
    {
      "id": "M_2202",
      "pitch": 71,
      "t_note_us": 175084772,
      "t_trigger_us": 174948809,
      "is_ai": false,
      "track_id": 0,
      "velocity": 0,
      "is_motor": true,
      "motor_id": 1,
      "accel_val": 2000,
      "base_duration_us": 258618
    },
    {
      "id": "M_2215",
      "pitch": 91,
      "t_note_us": 175343390,
      "t_trigger_us": 175207427,
      "is_ai": true,
      "track_id": 7,
      "velocity": 0,
      "is_motor": false,
      "motor_id": 0,
      "accel_val": 2000,
      "base_duration_us": 517236
    },
    {
      "id": "M_2207",
      "pitch": 74,
      "t_note_us": 175343390,
      "t_trigger_us": 175207427,
      "is_ai": false,
      "track_id": 0,
      "velocity": 0,
      "is_motor": true,
      "motor_id": 1,
      "accel_val": 2000,
      "base_duration_us": 258619
    },
    {
      "id": "M_2208",
      "pitch": 76,
      "t_note_us": 175343390,
      "t_trigger_us": 175207427,
      "is_ai": false,
      "track_id": 0,
      "velocity": 0,
      "is_motor": true,
      "motor_id": 2,
      "accel_val": 2000,
      "base_duration_us": 258619
    },
    {
      "id": "M_2224",
      "pitch": 56,
      "t_note_us": 175343390,
      "t_trigger_us": 175207427,
      "is_ai": false,
      "track_id": 0,
      "velocity": 0,
      "is_motor": true,
      "motor_id": 0,
      "accel_val": 2000,
      "base_duration_us": 517236
    },
    {
      "id": "M_2216",
      "pitch": 79,
      "t_note_us": 175602009,
      "t_trigger_us": 175466046,
      "is_ai": true,
      "track_id": 0,
      "velocity": 0,
      "is_motor": false,
      "motor_id": 0,
      "accel_val": 2000,
      "base_duration_us": 258617
    },
    {
      "id": "M_2211",
      "pitch": 62,
      "t_note_us": 175602009,
      "t_trigger_us": 175466046,
      "is_ai": false,
      "track_id": 0,
      "velocity": 0,
      "is_motor": true,
      "motor_id": 1,
      "accel_val": 2000,
      "base_duration_us": 258617
    },
    {
      "id": "M_2214",
      "pitch": 50,
      "t_note_us": 175602009,
      "t_trigger_us": 175466046,
      "is_ai": false,
      "track_id": 0,
      "velocity": 0,
      "is_motor": true,
      "motor_id": 2,
      "accel_val": 2000,
      "base_duration_us": 258617
    },
    {
      "id": "M_2222",
      "pitch": 74,
      "t_note_us": 175602009,
      "t_trigger_us": 175466046,
      "is_ai": false,
      "track_id": 0,
      "velocity": 0,
      "is_motor": true,
      "motor_id": 3,
      "accel_val": 2000,
      "base_duration_us": 258617
    },
    {
      "id": "M_2223",
      "pitch": 50,
      "t_note_us": 175602009,
      "t_trigger_us": 175466046,
      "is_ai": false,
      "track_id": 0,
      "velocity": 0,
      "is_motor": true,
      "motor_id": 0,
      "accel_val": 2000,
      "base_duration_us": 258617
    },
    {
      "id": "M_2234",
      "pitch": 79,
      "t_note_us": 175860626,
      "t_trigger_us": 175724663,
      "is_ai": true,
      "track_id": 0,
      "velocity": 0,
      "is_motor": false,
      "motor_id": 0,
      "accel_val": 2000,
      "base_duration_us": 1034442
    },
    {
      "id": "M_2250",
      "pitch": 88,
      "t_note_us": 175860626,
      "t_trigger_us": 175724663,
      "is_ai": true,
      "track_id": 5,
      "velocity": 0,
      "is_motor": false,
      "motor_id": 0,
      "accel_val": 2000,
      "base_duration_us": 2068908
    },
    {
      "id": "M_2225",
      "pitch": 60,
      "t_note_us": 175860626,
      "t_trigger_us": 175724663,
      "is_ai": false,
      "track_id": 0,
      "velocity": 0,
      "is_motor": true,
      "motor_id": 1,
      "accel_val": 2000,
      "base_duration_us": 258615
    },
    {
      "id": "M_2226",
      "pitch": 60,
      "t_note_us": 175860626,
      "t_trigger_us": 175724663,
      "is_ai": false,
      "track_id": 0,
      "velocity": 0,
      "is_motor": true,
      "motor_id": 0,
      "accel_val": 2000,
      "base_duration_us": 258615
    },
    {
      "id": "M_2229",
      "pitch": 56,
      "t_note_us": 175860626,
      "t_trigger_us": 175724663,
      "is_ai": false,
      "track_id": 0,
      "velocity": 0,
      "is_motor": true,
      "motor_id": 2,
      "accel_val": 2000,
      "base_duration_us": 517223
    },
    {
      "id": "M_2237",
      "pitch": 50,
      "t_note_us": 175860626,
      "t_trigger_us": 175724663,
      "is_ai": false,
      "track_id": 0,
      "velocity": 0,
      "is_motor": true,
      "motor_id": 3,
      "accel_val": 2000,
      "base_duration_us": 1034442
    },
    {
      "id": "M_2244",
      "pitch": 48,
      "t_note_us": 175860626,
      "t_trigger_us": 175724663,
      "is_ai": false,
      "track_id": 0,
      "velocity": 0,
      "is_motor": true,
      "motor_id": 0,
      "accel_val": 2000,
      "base_duration_us": 1810293
    },
    {
      "id": "M_2252",
      "pitch": 67,
      "t_note_us": 175860626,
      "t_trigger_us": 175724663,
      "is_ai": false,
      "track_id": 0,
      "velocity": 0,
      "is_motor": true,
      "motor_id": 0,
      "accel_val": 2000,
      "base_duration_us": 2068908
    },
    {
      "id": "M_2253",
      "pitch": 72,
      "t_note_us": 175860626,
      "t_trigger_us": 175724663,
      "is_ai": false,
      "track_id": 0,
      "velocity": 0,
      "is_motor": true,
      "motor_id": 0,
      "accel_val": 2000,
      "base_duration_us": 2068908
    },
    {
      "id": "M_2254",
      "pitch": 76,
      "t_note_us": 175860626,
      "t_trigger_us": 175724663,
      "is_ai": false,
      "track_id": 0,
      "velocity": 0,
      "is_motor": true,
      "motor_id": 0,
      "accel_val": 2000,
      "base_duration_us": 2068908
    },
    {
      "id": "M_2268",
      "pitch": 76,
      "t_note_us": 175860626,
      "t_trigger_us": 175724663,
      "is_ai": false,
      "track_id": 0,
      "velocity": 0,
      "is_motor": true,
      "motor_id": 0,
      "accel_val": 2000,
      "base_duration_us": 3103355
    },
    {
      "id": "M_2286",
      "pitch": 60,
      "t_note_us": 175860626,
      "t_trigger_us": 175724663,
      "is_ai": false,
      "track_id": 0,
      "velocity": 0,
      "is_motor": true,
      "motor_id": 0,
      "accel_val": 2000,
      "base_duration_us": 4137823
    },
    {
      "id": "M_2287",
      "pitch": 72,
      "t_note_us": 175860626,
      "t_trigger_us": 175724663,
      "is_ai": false,
      "track_id": 0,
      "velocity": 0,
      "is_motor": true,
      "motor_id": 0,
      "accel_val": 2000,
      "base_duration_us": 4137823
    },
    {
      "id": "M_2227",
      "pitch": 67,
      "t_note_us": 176119241,
      "t_trigger_us": 175983278,
      "is_ai": false,
      "track_id": 0,
      "velocity": 0,
      "is_motor": true,
      "motor_id": 1,
      "accel_val": 2000,
      "base_duration_us": 258608
    },
    {
      "id": "M_2228",
      "pitch": 67,
      "t_note_us": 176119241,
      "t_trigger_us": 175983278,
      "is_ai": false,
      "track_id": 0,
      "velocity": 0,
      "is_motor": true,
      "motor_id": 0,
      "accel_val": 2000,
      "base_duration_us": 258608
    },
    {
      "id": "M_2230",
      "pitch": 88,
      "t_note_us": 176377849,
      "t_trigger_us": 176241886,
      "is_ai": true,
      "track_id": 5,
      "velocity": 0,
      "is_motor": false,
      "motor_id": 0,
      "accel_val": 2000,
      "base_duration_us": 258609
    },
    {
      "id": "M_2231",
      "pitch": 72,
      "t_note_us": 176377849,
      "t_trigger_us": 176241886,
      "is_ai": false,
      "track_id": 0,
      "velocity": 0,
      "is_motor": true,
      "motor_id": 1,
      "accel_val": 2000,
      "base_duration_us": 258609
    },
    {
      "id": "M_2232",
      "pitch": 72,
      "t_note_us": 176377849,
      "t_trigger_us": 176241886,
      "is_ai": false,
      "track_id": 0,
      "velocity": 0,
      "is_motor": true,
      "motor_id": 0,
      "accel_val": 2000,
      "base_duration_us": 258609
    },
    {
      "id": "M_2236",
      "pitch": 56,
      "t_note_us": 176377849,
      "t_trigger_us": 176241886,
      "is_ai": false,
      "track_id": 0,
      "velocity": 0,
      "is_motor": true,
      "motor_id": 2,
      "accel_val": 2000,
      "base_duration_us": 517219
    },
    {
      "id": "M_2233",
      "pitch": 88,
      "t_note_us": 176636458,
      "t_trigger_us": 176500495,
      "is_ai": true,
      "track_id": 5,
      "velocity": 0,
      "is_motor": false,
      "motor_id": 0,
      "accel_val": 2000,
      "base_duration_us": 258610
    },
    {
      "id": "M_2235",
      "pitch": 88,
      "t_note_us": 176636458,
      "t_trigger_us": 176500495,
      "is_ai": true,
      "track_id": 5,
      "velocity": 0,
      "is_motor": false,
      "motor_id": 0,
      "accel_val": 2000,
      "base_duration_us": 258610
    },
    {
      "id": "M_2239",
      "pitch": 76,
      "t_note_us": 176636458,
      "t_trigger_us": 176500495,
      "is_ai": false,
      "track_id": 0,
      "velocity": 0,
      "is_motor": true,
      "motor_id": 1,
      "accel_val": 2000,
      "base_duration_us": 517228
    },
    {
      "id": "M_2238",
      "pitch": 88,
      "t_note_us": 176895068,
      "t_trigger_us": 176759105,
      "is_ai": true,
      "track_id": 5,
      "velocity": 0,
      "is_motor": false,
      "motor_id": 0,
      "accel_val": 2000,
      "base_duration_us": 258618
    },
    {
      "id": "M_2242",
      "pitch": 56,
      "t_note_us": 176895068,
      "t_trigger_us": 176759105,
      "is_ai": false,
      "track_id": 0,
      "velocity": 0,
      "is_motor": true,
      "motor_id": 0,
      "accel_val": 2000,
      "base_duration_us": 517235
    },
    {
      "id": "M_2246",
      "pitch": 52,
      "t_note_us": 176895068,
      "t_trigger_us": 176759105,
      "is_ai": false,
      "track_id": 0,
      "velocity": 0,
      "is_motor": true,
      "motor_id": 2,
      "accel_val": 2000,
      "base_duration_us": 775851
    },
    {
      "id": "M_2240",
      "pitch": 84,
      "t_note_us": 177153686,
      "t_trigger_us": 177017723,
      "is_ai": true,
      "track_id": 3,
      "velocity": 0,
      "is_motor": false,
      "motor_id": 0,
      "accel_val": 2000,
      "base_duration_us": 258617
    },
    {
      "id": "M_2247",
      "pitch": 91,
      "t_note_us": 177153686,
      "t_trigger_us": 177017723,
      "is_ai": true,
      "track_id": 7,
      "velocity": 0,
      "is_motor": false,
      "motor_id": 0,
      "accel_val": 2000,
      "base_duration_us": 775848
    },
    {
      "id": "M_2241",
      "pitch": 72,
      "t_note_us": 177153686,
      "t_trigger_us": 177017723,
      "is_ai": false,
      "track_id": 0,
      "velocity": 0,
      "is_motor": true,
      "motor_id": 1,
      "accel_val": 2000,
      "base_duration_us": 258617
    },
    {
      "id": "M_2243",
      "pitch": 79,
      "t_note_us": 177412303,
      "t_trigger_us": 177276340,
      "is_ai": true,
      "track_id": 0,
      "velocity": 0,
      "is_motor": false,
      "motor_id": 0,
      "accel_val": 2000,
      "base_duration_us": 258616
    },
    {
      "id": "M_2245",
      "pitch": 88,
      "t_note_us": 177412303,
      "t_trigger_us": 177276340,
      "is_ai": true,
      "track_id": 5,
      "velocity": 0,
      "is_motor": false,
      "motor_id": 0,
      "accel_val": 2000,
      "base_duration_us": 258616
    },
    {
      "id": "M_2256",
      "pitch": 56,
      "t_note_us": 177412303,
      "t_trigger_us": 177276340,
      "is_ai": false,
      "track_id": 0,
      "velocity": 0,
      "is_motor": true,
      "motor_id": 0,
      "accel_val": 2000,
      "base_duration_us": 517231
    },
    {
      "id": "M_2248",
      "pitch": 88,
      "t_note_us": 177670919,
      "t_trigger_us": 177534956,
      "is_ai": true,
      "track_id": 5,
      "velocity": 0,
      "is_motor": false,
      "motor_id": 0,
      "accel_val": 2000,
      "base_duration_us": 258615
    },
    {
      "id": "M_2251",
      "pitch": 79,
      "t_note_us": 177670919,
      "t_trigger_us": 177534956,
      "is_ai": true,
      "track_id": 0,
      "velocity": 0,
      "is_motor": false,
      "motor_id": 0,
      "accel_val": 2000,
      "base_duration_us": 258615
    },
    {
      "id": "M_2249",
      "pitch": 48,
      "t_note_us": 177670919,
      "t_trigger_us": 177534956,
      "is_ai": false,
      "track_id": 0,
      "velocity": 0,
      "is_motor": true,
      "motor_id": 1,
      "accel_val": 2000,
      "base_duration_us": 258615
    },
    {
      "id": "M_2255",
      "pitch": 50,
      "t_note_us": 177670919,
      "t_trigger_us": 177534956,
      "is_ai": false,
      "track_id": 0,
      "velocity": 0,
      "is_motor": true,
      "motor_id": 2,
      "accel_val": 2000,
      "base_duration_us": 258615
    },
    {
      "id": "M_2259",
      "pitch": 90,
      "t_note_us": 177929534,
      "t_trigger_us": 177793571,
      "is_ai": true,
      "track_id": 0,
      "velocity": 0,
      "is_motor": true,
      "motor_id": 3,
      "accel_val": 2000,
      "base_duration_us": 517231
    },
    {
      "id": "M_2266",
      "pitch": 81,
      "t_note_us": 177929534,
      "t_trigger_us": 177793571,
      "is_ai": true,
      "track_id": 1,
      "velocity": 0,
      "is_motor": false,
      "motor_id": 0,
      "accel_val": 2000,
      "base_duration_us": 1034447
    },
    {
      "id": "M_2284",
      "pitch": 90,
      "t_note_us": 177929534,
      "t_trigger_us": 177793571,
      "is_ai": true,
      "track_id": 0,
      "velocity": 0,
      "is_motor": true,
      "motor_id": 2,
      "accel_val": 2000,
      "base_duration_us": 2068915
    },
    {
      "id": "M_2288",
      "pitch": 81,
      "t_note_us": 177929534,
      "t_trigger_us": 177793571,
      "is_ai": true,
      "track_id": 1,
      "velocity": 0,
      "is_motor": false,
      "motor_id": 0,
      "accel_val": 2000,
      "base_duration_us": 2068915
    },
    {
      "id": "M_2257",
      "pitch": 60,
      "t_note_us": 177929534,
      "t_trigger_us": 177793571,
      "is_ai": false,
      "track_id": 0,
      "velocity": 0,
      "is_motor": true,
      "motor_id": 1,
      "accel_val": 2000,
      "base_duration_us": 258615
    },
    {
      "id": "M_2258",
      "pitch": 60,
      "t_note_us": 177929534,
      "t_trigger_us": 177793571,
      "is_ai": false,
      "track_id": 0,
      "velocity": 0,
      "is_motor": true,
      "motor_id": 0,
      "accel_val": 2000,
      "base_duration_us": 258615
    },
    {
      "id": "M_2262",
      "pitch": 56,
      "t_note_us": 177929534,
      "t_trigger_us": 177793571,
      "is_ai": false,
      "track_id": 0,
      "velocity": 0,
      "is_motor": true,
      "motor_id": 0,
      "accel_val": 2000,
      "base_duration_us": 517231
    },
    {
      "id": "M_2270",
      "pitch": 50,
      "t_note_us": 177929534,
      "t_trigger_us": 177793571,
      "is_ai": false,
      "track_id": 0,
      "velocity": 0,
      "is_motor": true,
      "motor_id": 0,
      "accel_val": 2000,
      "base_duration_us": 1034447
    },
    {
      "id": "M_2278",
      "pitch": 48,
      "t_note_us": 177929534,
      "t_trigger_us": 177793571,
      "is_ai": false,
      "track_id": 0,
      "velocity": 0,
      "is_motor": true,
      "motor_id": 0,
      "accel_val": 2000,
      "base_duration_us": 1810296
    },
    {
      "id": "M_2289",
      "pitch": 74,
      "t_note_us": 177929534,
      "t_trigger_us": 177793571,
      "is_ai": false,
      "track_id": 0,
      "velocity": 0,
      "is_motor": true,
      "motor_id": 0,
      "accel_val": 2000,
      "base_duration_us": 2068915
    },
    {
      "id": "M_2290",
      "pitch": 78,
      "t_note_us": 177929534,
      "t_trigger_us": 177793571,
      "is_ai": false,
      "track_id": 0,
      "velocity": 0,
      "is_motor": true,
      "motor_id": 0,
      "accel_val": 2000,
      "base_duration_us": 2068915
    },
    {
      "id": "M_2260",
      "pitch": 69,
      "t_note_us": 178188149,
      "t_trigger_us": 178052186,
      "is_ai": false,
      "track_id": 0,
      "velocity": 0,
      "is_motor": true,
      "motor_id": 1,
      "accel_val": 2000,
      "base_duration_us": 258616
    },
    {
      "id": "M_2261",
      "pitch": 69,
      "t_note_us": 178188149,
      "t_trigger_us": 178052186,
      "is_ai": false,
      "track_id": 0,
      "velocity": 0,
      "is_motor": true,
      "motor_id": 0,
      "accel_val": 2000,
      "base_duration_us": 258616
    },
    {
      "id": "M_2263",
      "pitch": 91,
      "t_note_us": 178446765,
      "t_trigger_us": 178310802,
      "is_ai": true,
      "track_id": 7,
      "velocity": 0,
      "is_motor": false,
      "motor_id": 0,
      "accel_val": 2000,
      "base_duration_us": 258607
    },
    {
      "id": "M_2264",
      "pitch": 74,
      "t_note_us": 178446765,
      "t_trigger_us": 178310802,
      "is_ai": false,
      "track_id": 0,
      "velocity": 0,
      "is_motor": true,
      "motor_id": 1,
      "accel_val": 2000,
      "base_duration_us": 258607
    },
    {
      "id": "M_2265",
      "pitch": 74,
      "t_note_us": 178446765,
      "t_trigger_us": 178310802,
      "is_ai": false,
      "track_id": 0,
      "velocity": 0,
      "is_motor": true,
      "motor_id": 0,
      "accel_val": 2000,
      "base_duration_us": 258607
    },
    {
      "id": "M_2269",
      "pitch": 56,
      "t_note_us": 178446765,
      "t_trigger_us": 178310802,
      "is_ai": false,
      "track_id": 0,
      "velocity": 0,
      "is_motor": true,
      "motor_id": 3,
      "accel_val": 2000,
      "base_duration_us": 517216
    },
    {
      "id": "M_2267",
      "pitch": 90,
      "t_note_us": 178705372,
      "t_trigger_us": 178569409,
      "is_ai": true,
      "track_id": 0,
      "velocity": 0,
      "is_motor": true,
      "motor_id": 1,
      "accel_val": 2000,
      "base_duration_us": 258609
    },
    {
      "id": "M_2271",
      "pitch": 90,
      "t_note_us": 178705372,
      "t_trigger_us": 178569409,
      "is_ai": true,
      "track_id": 0,
      "velocity": 0,
      "is_motor": true,
      "motor_id": 0,
      "accel_val": 2000,
      "base_duration_us": 517220
    },
    {
      "id": "M_2272",
      "pitch": 78,
      "t_note_us": 178705372,
      "t_trigger_us": 178569409,
      "is_ai": false,
      "track_id": 0,
      "velocity": 0,
      "is_motor": true,
      "motor_id": 0,
      "accel_val": 2000,
      "base_duration_us": 517220
    },
    {
      "id": "M_2275",
      "pitch": 56,
      "t_note_us": 178963981,
      "t_trigger_us": 178828018,
      "is_ai": false,
      "track_id": 0,
      "velocity": 0,
      "is_motor": true,
      "motor_id": 1,
      "accel_val": 2000,
      "base_duration_us": 517231
    },
    {
      "id": "M_2280",
      "pitch": 52,
      "t_note_us": 178963981,
      "t_trigger_us": 178828018,
      "is_ai": false,
      "track_id": 0,
      "velocity": 0,
      "is_motor": true,
      "motor_id": 3,
      "accel_val": 2000,
      "base_duration_us": 775849
    },
    {
      "id": "M_2273",
      "pitch": 86,
      "t_note_us": 179222592,
      "t_trigger_us": 179086629,
      "is_ai": true,
      "track_id": 4,
      "velocity": 0,
      "is_motor": false,
      "motor_id": 0,
      "accel_val": 2000,
      "base_duration_us": 258620
    },
    {
      "id": "M_2274",
      "pitch": 81,
      "t_note_us": 179222592,
      "t_trigger_us": 179086629,
      "is_ai": true,
      "track_id": 1,
      "velocity": 0,
      "is_motor": false,
      "motor_id": 0,
      "accel_val": 2000,
      "base_duration_us": 258620
    },
    {
      "id": "M_2276",
      "pitch": 86,
      "t_note_us": 179222592,
      "t_trigger_us": 179086629,
      "is_ai": true,
      "track_id": 4,
      "velocity": 0,
      "is_motor": false,
      "motor_id": 0,
      "accel_val": 2000,
      "base_duration_us": 517238
    },
    {
      "id": "M_2277",
      "pitch": 81,
      "t_note_us": 179481212,
      "t_trigger_us": 179345249,
      "is_ai": true,
      "track_id": 1,
      "velocity": 0,
      "is_motor": false,
      "motor_id": 0,
      "accel_val": 2000,
      "base_duration_us": 258618
    },
    {
      "id": "M_2279",
      "pitch": 90,
      "t_note_us": 179481212,
      "t_trigger_us": 179345249,
      "is_ai": true,
      "track_id": 0,
      "velocity": 0,
      "is_motor": true,
      "motor_id": 1,
      "accel_val": 2000,
      "base_duration_us": 258618
    },
    {
      "id": "M_2292",
      "pitch": 56,
      "t_note_us": 179481212,
      "t_trigger_us": 179345249,
      "is_ai": false,
      "track_id": 0,
      "velocity": 0,
      "is_motor": true,
      "motor_id": 0,
      "accel_val": 2000,
      "base_duration_us": 517237
    },
    {
      "id": "M_2281",
      "pitch": 86,
      "t_note_us": 179739830,
      "t_trigger_us": 179603867,
      "is_ai": true,
      "track_id": 4,
      "velocity": 0,
      "is_motor": false,
      "motor_id": 0,
      "accel_val": 2000,
      "base_duration_us": 258619
    },
    {
      "id": "M_2282",
      "pitch": 90,
      "t_note_us": 179739830,
      "t_trigger_us": 179603867,
      "is_ai": true,
      "track_id": 0,
      "velocity": 0,
      "is_motor": true,
      "motor_id": 3,
      "accel_val": 2000,
      "base_duration_us": 258619
    },
    {
      "id": "M_2285",
      "pitch": 86,
      "t_note_us": 179739830,
      "t_trigger_us": 179603867,
      "is_ai": true,
      "track_id": 4,
      "velocity": 0,
      "is_motor": false,
      "motor_id": 0,
      "accel_val": 2000,
      "base_duration_us": 258619
    },
    {
      "id": "M_2283",
      "pitch": 48,
      "t_note_us": 179739830,
      "t_trigger_us": 179603867,
      "is_ai": false,
      "track_id": 0,
      "velocity": 0,
      "is_motor": true,
      "motor_id": 1,
      "accel_val": 2000,
      "base_duration_us": 258619
    },
    {
      "id": "M_2291",
      "pitch": 50,
      "t_note_us": 179739830,
      "t_trigger_us": 179603867,
      "is_ai": false,
      "track_id": 0,
      "velocity": 0,
      "is_motor": true,
      "motor_id": 0,
      "accel_val": 2000,
      "base_duration_us": 258619
    },
    {
      "id": "M_2295",
      "pitch": 96,
      "t_note_us": 179998449,
      "t_trigger_us": 179862486,
      "is_ai": true,
      "track_id": 10,
      "velocity": 0,
      "is_motor": false,
      "motor_id": 0,
      "accel_val": 2000,
      "base_duration_us": 344824
    },
    {
      "id": "M_2303",
      "pitch": 84,
      "t_note_us": 179998449,
      "t_trigger_us": 179862486,
      "is_ai": true,
      "track_id": 3,
      "velocity": 0,
      "is_motor": false,
      "motor_id": 0,
      "accel_val": 2000,
      "base_duration_us": 1034471
    },
    {
      "id": "M_2304",
      "pitch": 81,
      "t_note_us": 179998449,
      "t_trigger_us": 179862486,
      "is_ai": true,
      "track_id": 1,
      "velocity": 0,
      "is_motor": false,
      "motor_id": 0,
      "accel_val": 2000,
      "base_duration_us": 1034471
    },
    {
      "id": "M_2322",
      "pitch": 93,
      "t_note_us": 179998449,
      "t_trigger_us": 179862486,
      "is_ai": true,
      "track_id": 8,
      "velocity": 0,
      "is_motor": false,
      "motor_id": 0,
      "accel_val": 2000,
      "base_duration_us": 2068943
    },
    {
      "id": "M_2326",
      "pitch": 84,
      "t_note_us": 179998449,
      "t_trigger_us": 179862486,
      "is_ai": true,
      "track_id": 3,
      "velocity": 0,
      "is_motor": false,
      "motor_id": 0,
      "accel_val": 2000,
      "base_duration_us": 2068943
    },
    {
      "id": "M_2328",
      "pitch": 81,
      "t_note_us": 179998449,
      "t_trigger_us": 179862486,
      "is_ai": true,
      "track_id": 1,
      "velocity": 0,
      "is_motor": false,
      "motor_id": 0,
      "accel_val": 2000,
      "base_duration_us": 2068943
    },
    {
      "id": "M_2293",
      "pitch": 57,
      "t_note_us": 179998449,
      "t_trigger_us": 179862486,
      "is_ai": false,
      "track_id": 0,
      "velocity": 0,
      "is_motor": true,
      "motor_id": 0,
      "accel_val": 2000,
      "base_duration_us": 258618
    },
    {
      "id": "M_2294",
      "pitch": 57,
      "t_note_us": 179998449,
      "t_trigger_us": 179862486,
      "is_ai": false,
      "track_id": 0,
      "velocity": 0,
      "is_motor": true,
      "motor_id": 1,
      "accel_val": 2000,
      "base_duration_us": 258618
    },
    {
      "id": "M_2307",
      "pitch": 63,
      "t_note_us": 179998449,
      "t_trigger_us": 179862486,
      "is_ai": false,
      "track_id": 0,
      "velocity": 0,
      "is_motor": true,
      "motor_id": 2,
      "accel_val": 2000,
      "base_duration_us": 1034471
    },
    {
      "id": "M_2308",
      "pitch": 50,
      "t_note_us": 179998449,
      "t_trigger_us": 179862486,
      "is_ai": false,
      "track_id": 0,
      "velocity": 0,
      "is_motor": true,
      "motor_id": 3,
      "accel_val": 2000,
      "base_duration_us": 1034471
    },
    {
      "id": "M_2312",
      "pitch": 45,
      "t_note_us": 179998449,
      "t_trigger_us": 179862486,
      "is_ai": false,
      "track_id": 0,
      "velocity": 0,
      "is_motor": true,
      "motor_id": 0,
      "accel_val": 2000,
      "base_duration_us": 1551708
    },
    {
      "id": "M_2324",
      "pitch": 57,
      "t_note_us": 179998449,
      "t_trigger_us": 179862486,
      "is_ai": false,
      "track_id": 0,
      "velocity": 0,
      "is_motor": true,
      "motor_id": 0,
      "accel_val": 2000,
      "base_duration_us": 2068943
    },
    {
      "id": "M_2325",
      "pitch": 69,
      "t_note_us": 179998449,
      "t_trigger_us": 179862486,
      "is_ai": false,
      "track_id": 0,
      "velocity": 0,
      "is_motor": true,
      "motor_id": 0,
      "accel_val": 2000,
      "base_duration_us": 2068943
    },
    {
      "id": "M_2327",
      "pitch": 76,
      "t_note_us": 179998449,
      "t_trigger_us": 179862486,
      "is_ai": false,
      "track_id": 0,
      "velocity": 0,
      "is_motor": true,
      "motor_id": 0,
      "accel_val": 2000,
      "base_duration_us": 2068943
    },
    {
      "id": "M_2296",
      "pitch": 69,
      "t_note_us": 180257067,
      "t_trigger_us": 180121104,
      "is_ai": false,
      "track_id": 0,
      "velocity": 0,
      "is_motor": true,
      "motor_id": 1,
      "accel_val": 2000,
      "base_duration_us": 258618
    },
    {
      "id": "M_2297",
      "pitch": 69,
      "t_note_us": 180257067,
      "t_trigger_us": 180121104,
      "is_ai": false,
      "track_id": 0,
      "velocity": 0,
      "is_motor": true,
      "motor_id": 0,
      "accel_val": 2000,
      "base_duration_us": 258618
    },
    {
      "id": "M_2298",
      "pitch": 95,
      "t_note_us": 180343273,
      "t_trigger_us": 180207310,
      "is_ai": true,
      "track_id": 9,
      "velocity": 0,
      "is_motor": false,
      "motor_id": 0,
      "accel_val": 2000,
      "base_duration_us": 344824
    },
    {
      "id": "M_2299",
      "pitch": 72,
      "t_note_us": 180515685,
      "t_trigger_us": 180379722,
      "is_ai": false,
      "track_id": 0,
      "velocity": 0,
      "is_motor": true,
      "motor_id": 1,
      "accel_val": 2000,
      "base_duration_us": 258617
    },
    {
      "id": "M_2300",
      "pitch": 72,
      "t_note_us": 180515685,
      "t_trigger_us": 180379722,
      "is_ai": false,
      "track_id": 0,
      "velocity": 0,
      "is_motor": true,
      "motor_id": 0,
      "accel_val": 2000,
      "base_duration_us": 258617
    },
    {
      "id": "M_2306",
      "pitch": 56,
      "t_note_us": 180515685,
      "t_trigger_us": 180379722,
      "is_ai": false,
      "track_id": 0,
      "velocity": 0,
      "is_motor": true,
      "motor_id": 0,
      "accel_val": 2000,
      "base_duration_us": 517235
    },
    {
      "id": "M_2301",
      "pitch": 96,
      "t_note_us": 180688097,
      "t_trigger_us": 180552134,
      "is_ai": true,
      "track_id": 10,
      "velocity": 0,
      "is_motor": false,
      "motor_id": 0,
      "accel_val": 2000,
      "base_duration_us": 344823
    },
    {
      "id": "M_2305",
      "pitch": 88,
      "t_note_us": 180774302,
      "t_trigger_us": 180638339,
      "is_ai": true,
      "track_id": 5,
      "velocity": 0,
      "is_motor": false,
      "motor_id": 0,
      "accel_val": 2000,
      "base_duration_us": 258618
    },
    {
      "id": "M_2302",
      "pitch": 76,
      "t_note_us": 180774302,
      "t_trigger_us": 180638339,
      "is_ai": false,
      "track_id": 0,
      "velocity": 0,
      "is_motor": true,
      "motor_id": 1,
      "accel_val": 2000,
      "base_duration_us": 258618
    },
    {
      "id": "M_2309",
      "pitch": 95,
      "t_note_us": 181032920,
      "t_trigger_us": 180896957,
      "is_ai": true,
      "track_id": 9,
      "velocity": 0,
      "is_motor": false,
      "motor_id": 0,
      "accel_val": 2000,
      "base_duration_us": 258619
    },
    {
      "id": "M_2310",
      "pitch": 81,
      "t_note_us": 181032920,
      "t_trigger_us": 180896957,
      "is_ai": true,
      "track_id": 1,
      "velocity": 0,
      "is_motor": false,
      "motor_id": 0,
      "accel_val": 2000,
      "base_duration_us": 258619
    },
    {
      "id": "M_2314",
      "pitch": 56,
      "t_note_us": 181032920,
      "t_trigger_us": 180896957,
      "is_ai": false,
      "track_id": 0,
      "velocity": 0,
      "is_motor": true,
      "motor_id": 0,
      "accel_val": 2000,
      "base_duration_us": 517237
    },
    {
      "id": "M_2318",
      "pitch": 52,
      "t_note_us": 181032920,
      "t_trigger_us": 180896957,
      "is_ai": false,
      "track_id": 0,
      "velocity": 0,
      "is_motor": true,
      "motor_id": 1,
      "accel_val": 2000,
      "base_duration_us": 775854
    },
    {
      "id": "M_2311",
      "pitch": 81,
      "t_note_us": 181291539,
      "t_trigger_us": 181155576,
      "is_ai": true,
      "track_id": 1,
      "velocity": 0,
      "is_motor": false,
      "motor_id": 0,
      "accel_val": 2000,
      "base_duration_us": 258618
    },
    {
      "id": "M_2313",
      "pitch": 88,
      "t_note_us": 181291539,
      "t_trigger_us": 181155576,
      "is_ai": true,
      "track_id": 5,
      "velocity": 0,
      "is_motor": false,
      "motor_id": 0,
      "accel_val": 2000,
      "base_duration_us": 258618
    },
    {
      "id": "M_2315",
      "pitch": 91,
      "t_note_us": 181291539,
      "t_trigger_us": 181155576,
      "is_ai": true,
      "track_id": 7,
      "velocity": 0,
      "is_motor": false,
      "motor_id": 0,
      "accel_val": 2000,
      "base_duration_us": 517235
    },
    {
      "id": "M_2316",
      "pitch": 88,
      "t_note_us": 181550157,
      "t_trigger_us": 181414194,
      "is_ai": true,
      "track_id": 5,
      "velocity": 0,
      "is_motor": false,
      "motor_id": 0,
      "accel_val": 2000,
      "base_duration_us": 258617
    },
    {
      "id": "M_2317",
      "pitch": 72,
      "t_note_us": 181550157,
      "t_trigger_us": 181414194,
      "is_ai": false,
      "track_id": 0,
      "velocity": 0,
      "is_motor": true,
      "motor_id": 0,
      "accel_val": 2000,
      "base_duration_us": 258617
    },
    {
      "id": "M_2330",
      "pitch": 56,
      "t_note_us": 181550157,
      "t_trigger_us": 181414194,
      "is_ai": false,
      "track_id": 0,
      "velocity": 0,
      "is_motor": true,
      "motor_id": 2,
      "accel_val": 2000,
      "base_duration_us": 517235
    },
    {
      "id": "M_2319",
      "pitch": 91,
      "t_note_us": 181808774,
      "t_trigger_us": 181672811,
      "is_ai": true,
      "track_id": 7,
      "velocity": 0,
      "is_motor": false,
      "motor_id": 0,
      "accel_val": 2000,
      "base_duration_us": 258618
    },
    {
      "id": "M_2323",
      "pitch": 88,
      "t_note_us": 181808774,
      "t_trigger_us": 181672811,
      "is_ai": true,
      "track_id": 5,
      "velocity": 0,
      "is_motor": false,
      "motor_id": 0,
      "accel_val": 2000,
      "base_duration_us": 258618
    },
    {
      "id": "M_2320",
      "pitch": 72,
      "t_note_us": 181808774,
      "t_trigger_us": 181672811,
      "is_ai": false,
      "track_id": 0,
      "velocity": 0,
      "is_motor": true,
      "motor_id": 1,
      "accel_val": 2000,
      "base_duration_us": 258618
    },
    {
      "id": "M_2321",
      "pitch": 45,
      "t_note_us": 181808774,
      "t_trigger_us": 181672811,
      "is_ai": false,
      "track_id": 0,
      "velocity": 0,
      "is_motor": true,
      "motor_id": 0,
      "accel_val": 2000,
      "base_duration_us": 258618
    },
    {
      "id": "M_2329",
      "pitch": 50,
      "t_note_us": 181808774,
      "t_trigger_us": 181672811,
      "is_ai": false,
      "track_id": 0,
      "velocity": 0,
      "is_motor": true,
      "motor_id": 3,
      "accel_val": 2000,
      "base_duration_us": 258618
    },
    {
      "id": "M_2331",
      "pitch": 96,
      "t_note_us": 182067392,
      "t_trigger_us": 181931429,
      "is_ai": true,
      "track_id": 10,
      "velocity": 0,
      "is_motor": false,
      "motor_id": 0,
      "accel_val": 2000,
      "base_duration_us": 344826
    },
    {
      "id": "M_2334",
      "pitch": 81,
      "t_note_us": 182067392,
      "t_trigger_us": 181931429,
      "is_ai": true,
      "track_id": 1,
      "velocity": 0,
      "is_motor": false,
      "motor_id": 0,
      "accel_val": 2000,
      "base_duration_us": 344826
    },
    {
      "id": "M_2335",
      "pitch": 84,
      "t_note_us": 182067392,
      "t_trigger_us": 181931429,
      "is_ai": true,
      "track_id": 3,
      "velocity": 0,
      "is_motor": false,
      "motor_id": 0,
      "accel_val": 2000,
      "base_duration_us": 344826
    },
    {
      "id": "M_2338",
      "pitch": 93,
      "t_note_us": 182067392,
      "t_trigger_us": 181931429,
      "is_ai": true,
      "track_id": 8,
      "velocity": 0,
      "is_motor": false,
      "motor_id": 0,
      "accel_val": 2000,
      "base_duration_us": 344826
    },
    {
      "id": "M_2339",
      "pitch": 84,
      "t_note_us": 182067392,
      "t_trigger_us": 181931429,
      "is_ai": true,
      "track_id": 3,
      "velocity": 0,
      "is_motor": false,
      "motor_id": 0,
      "accel_val": 2000,
      "base_duration_us": 344826
    },
    {
      "id": "M_2340",
      "pitch": 81,
      "t_note_us": 182067392,
      "t_trigger_us": 181931429,
      "is_ai": true,
      "track_id": 1,
      "velocity": 0,
      "is_motor": false,
      "motor_id": 0,
      "accel_val": 2000,
      "base_duration_us": 344826
    },
    {
      "id": "M_2332",
      "pitch": 57,
      "t_note_us": 182067392,
      "t_trigger_us": 181931429,
      "is_ai": false,
      "track_id": 0,
      "velocity": 0,
      "is_motor": true,
      "motor_id": 0,
      "accel_val": 2000,
      "base_duration_us": 344826
    },
    {
      "id": "M_2333",
      "pitch": 76,
      "t_note_us": 182067392,
      "t_trigger_us": 181931429,
      "is_ai": false,
      "track_id": 0,
      "velocity": 0,
      "is_motor": true,
      "motor_id": 2,
      "accel_val": 2000,
      "base_duration_us": 344826
    },
    {
      "id": "M_2336",
      "pitch": 69,
      "t_note_us": 182067392,
      "t_trigger_us": 181931429,
      "is_ai": false,
      "track_id": 0,
      "velocity": 0,
      "is_motor": true,
      "motor_id": 1,
      "accel_val": 2000,
      "base_duration_us": 344826
    },
    {
      "id": "M_2337",
      "pitch": 45,
      "t_note_us": 182067392,
      "t_trigger_us": 181931429,
      "is_ai": false,
      "track_id": 0,
      "velocity": 0,
      "is_motor": true,
      "motor_id": 3,
      "accel_val": 2000,
      "base_duration_us": 344826
    },
    {
      "id": "M_2341",
      "pitch": 76,
      "t_note_us": 182067392,
      "t_trigger_us": 181931429,
      "is_ai": false,
      "track_id": 0,
      "velocity": 0,
      "is_motor": true,
      "motor_id": 0,
      "accel_val": 2000,
      "base_duration_us": 344826
    },
    {
      "id": "M_2342",
      "pitch": 50,
      "t_note_us": 182067392,
      "t_trigger_us": 181931429,
      "is_ai": false,
      "track_id": 0,
      "velocity": 0,
      "is_motor": true,
      "motor_id": 0,
      "accel_val": 2000,
      "base_duration_us": 344826
    },
    {
      "id": "M_2343",
      "pitch": 52,
      "t_note_us": 182067392,
      "t_trigger_us": 181931429,
      "is_ai": false,
      "track_id": 0,
      "velocity": 0,
      "is_motor": true,
      "motor_id": 0,
      "accel_val": 2000,
      "base_duration_us": 344826
    },
    {
      "id": "M_2344",
      "pitch": 95,
      "t_note_us": 182412218,
      "t_trigger_us": 182276255,
      "is_ai": true,
      "track_id": 9,
      "velocity": 0,
      "is_motor": false,
      "motor_id": 0,
      "accel_val": 2000,
      "base_duration_us": 344825
    },
    {
      "id": "M_2347",
      "pitch": 83,
      "t_note_us": 182412218,
      "t_trigger_us": 182276255,
      "is_ai": true,
      "track_id": 2,
      "velocity": 0,
      "is_motor": false,
      "motor_id": 0,
      "accel_val": 2000,
      "base_duration_us": 344825
    },
    {
      "id": "M_2351",
      "pitch": 95,
      "t_note_us": 182412218,
      "t_trigger_us": 182276255,
      "is_ai": true,
      "track_id": 9,
      "velocity": 0,
      "is_motor": false,
      "motor_id": 0,
      "accel_val": 2000,
      "base_duration_us": 344825
    },
    {
      "id": "M_2352",
      "pitch": 83,
      "t_note_us": 182412218,
      "t_trigger_us": 182276255,
      "is_ai": true,
      "track_id": 2,
      "velocity": 0,
      "is_motor": false,
      "motor_id": 0,
      "accel_val": 2000,
      "base_duration_us": 344825
    },
    {
      "id": "M_2345",
      "pitch": 59,
      "t_note_us": 182412218,
      "t_trigger_us": 182276255,
      "is_ai": false,
      "track_id": 0,
      "velocity": 0,
      "is_motor": true,
      "motor_id": 0,
      "accel_val": 2000,
      "base_duration_us": 344825
    },
    {
      "id": "M_2346",
      "pitch": 74,
      "t_note_us": 182412218,
      "t_trigger_us": 182276255,
      "is_ai": false,
      "track_id": 0,
      "velocity": 0,
      "is_motor": true,
      "motor_id": 1,
      "accel_val": 2000,
      "base_duration_us": 344825
    },
    {
      "id": "M_2348",
      "pitch": 78,
      "t_note_us": 182412218,
      "t_trigger_us": 182276255,
      "is_ai": false,
      "track_id": 0,
      "velocity": 0,
      "is_motor": true,
      "motor_id": 2,
      "accel_val": 2000,
      "base_duration_us": 344825
    },
    {
      "id": "M_2349",
      "pitch": 71,
      "t_note_us": 182412218,
      "t_trigger_us": 182276255,
      "is_ai": false,
      "track_id": 0,
      "velocity": 0,
      "is_motor": true,
      "motor_id": 3,
      "accel_val": 2000,
      "base_duration_us": 344825
    },
    {
      "id": "M_2350",
      "pitch": 47,
      "t_note_us": 182412218,
      "t_trigger_us": 182276255,
      "is_ai": false,
      "track_id": 0,
      "velocity": 0,
      "is_motor": true,
      "motor_id": 0,
      "accel_val": 2000,
      "base_duration_us": 344825
    },
    {
      "id": "M_2353",
      "pitch": 74,
      "t_note_us": 182412218,
      "t_trigger_us": 182276255,
      "is_ai": false,
      "track_id": 0,
      "velocity": 0,
      "is_motor": true,
      "motor_id": 0,
      "accel_val": 2000,
      "base_duration_us": 344825
    },
    {
      "id": "M_2354",
      "pitch": 78,
      "t_note_us": 182412218,
      "t_trigger_us": 182276255,
      "is_ai": false,
      "track_id": 0,
      "velocity": 0,
      "is_motor": true,
      "motor_id": 0,
      "accel_val": 2000,
      "base_duration_us": 344825
    },
    {
      "id": "M_2355",
      "pitch": 50,
      "t_note_us": 182412218,
      "t_trigger_us": 182276255,
      "is_ai": false,
      "track_id": 0,
      "velocity": 0,
      "is_motor": true,
      "motor_id": 0,
      "accel_val": 2000,
      "base_duration_us": 344825
    },
    {
      "id": "M_2356",
      "pitch": 61,
      "t_note_us": 182412218,
      "t_trigger_us": 182276255,
      "is_ai": false,
      "track_id": 0,
      "velocity": 0,
      "is_motor": true,
      "motor_id": 0,
      "accel_val": 2000,
      "base_duration_us": 344825
    },
    {
      "id": "M_2357",
      "pitch": 96,
      "t_note_us": 182757043,
      "t_trigger_us": 182621080,
      "is_ai": true,
      "track_id": 10,
      "velocity": 0,
      "is_motor": false,
      "motor_id": 0,
      "accel_val": 2000,
      "base_duration_us": 344826
    },
    {
      "id": "M_2360",
      "pitch": 84,
      "t_note_us": 182757043,
      "t_trigger_us": 182621080,
      "is_ai": true,
      "track_id": 3,
      "velocity": 0,
      "is_motor": false,
      "motor_id": 0,
      "accel_val": 2000,
      "base_duration_us": 344826
    },
    {
      "id": "M_2364",
      "pitch": 96,
      "t_note_us": 182757043,
      "t_trigger_us": 182621080,
      "is_ai": true,
      "track_id": 10,
      "velocity": 0,
      "is_motor": false,
      "motor_id": 0,
      "accel_val": 2000,
      "base_duration_us": 344826
    },
    {
      "id": "M_2367",
      "pitch": 84,
      "t_note_us": 182757043,
      "t_trigger_us": 182621080,
      "is_ai": true,
      "track_id": 3,
      "velocity": 0,
      "is_motor": false,
      "motor_id": 0,
      "accel_val": 2000,
      "base_duration_us": 344826
    },
    {
      "id": "M_2358",
      "pitch": 72,
      "t_note_us": 182757043,
      "t_trigger_us": 182621080,
      "is_ai": false,
      "track_id": 0,
      "velocity": 0,
      "is_motor": true,
      "motor_id": 1,
      "accel_val": 2000,
      "base_duration_us": 344826
    },
    {
      "id": "M_2359",
      "pitch": 76,
      "t_note_us": 182757043,
      "t_trigger_us": 182621080,
      "is_ai": false,
      "track_id": 0,
      "velocity": 0,
      "is_motor": true,
      "motor_id": 2,
      "accel_val": 2000,
      "base_duration_us": 344826
    },
    {
      "id": "M_2361",
      "pitch": 67,
      "t_note_us": 182757043,
      "t_trigger_us": 182621080,
      "is_ai": false,
      "track_id": 0,
      "velocity": 0,
      "is_motor": true,
      "motor_id": 0,
      "accel_val": 2000,
      "base_duration_us": 344826
    },
    {
      "id": "M_2362",
      "pitch": 60,
      "t_note_us": 182757043,
      "t_trigger_us": 182621080,
      "is_ai": false,
      "track_id": 0,
      "velocity": 0,
      "is_motor": true,
      "motor_id": 3,
      "accel_val": 2000,
      "base_duration_us": 344826
    },
    {
      "id": "M_2363",
      "pitch": 48,
      "t_note_us": 182757043,
      "t_trigger_us": 182621080,
      "is_ai": false,
      "track_id": 0,
      "velocity": 0,
      "is_motor": true,
      "motor_id": 0,
      "accel_val": 2000,
      "base_duration_us": 344826
    },
    {
      "id": "M_2365",
      "pitch": 67,
      "t_note_us": 182757043,
      "t_trigger_us": 182621080,
      "is_ai": false,
      "track_id": 0,
      "velocity": 0,
      "is_motor": true,
      "motor_id": 0,
      "accel_val": 2000,
      "base_duration_us": 344826
    },
    {
      "id": "M_2366",
      "pitch": 76,
      "t_note_us": 182757043,
      "t_trigger_us": 182621080,
      "is_ai": false,
      "track_id": 0,
      "velocity": 0,
      "is_motor": true,
      "motor_id": 0,
      "accel_val": 2000,
      "base_duration_us": 344826
    },
    {
      "id": "M_2368",
      "pitch": 50,
      "t_note_us": 182757043,
      "t_trigger_us": 182621080,
      "is_ai": false,
      "track_id": 0,
      "velocity": 0,
      "is_motor": true,
      "motor_id": 0,
      "accel_val": 2000,
      "base_duration_us": 344826
    },
    {
      "id": "M_2369",
      "pitch": 59,
      "t_note_us": 182757043,
      "t_trigger_us": 182621080,
      "is_ai": false,
      "track_id": 0,
      "velocity": 0,
      "is_motor": true,
      "motor_id": 0,
      "accel_val": 2000,
      "base_duration_us": 344826
    },
    {
      "id": "M_2370",
      "pitch": 95,
      "t_note_us": 183101869,
      "t_trigger_us": 182965906,
      "is_ai": true,
      "track_id": 9,
      "velocity": 0,
      "is_motor": false,
      "motor_id": 0,
      "accel_val": 2000,
      "base_duration_us": 258620
    },
    {
      "id": "M_2373",
      "pitch": 86,
      "t_note_us": 183101869,
      "t_trigger_us": 182965906,
      "is_ai": true,
      "track_id": 4,
      "velocity": 0,
      "is_motor": false,
      "motor_id": 0,
      "accel_val": 2000,
      "base_duration_us": 517239
    },
    {
      "id": "M_2374",
      "pitch": 81,
      "t_note_us": 183101869,
      "t_trigger_us": 182965906,
      "is_ai": true,
      "track_id": 1,
      "velocity": 0,
      "is_motor": false,
      "motor_id": 0,
      "accel_val": 2000,
      "base_duration_us": 517239
    },
    {
      "id": "M_2377",
      "pitch": 98,
      "t_note_us": 183101869,
      "t_trigger_us": 182965906,
      "is_ai": true,
      "track_id": 11,
      "velocity": 0,
      "is_motor": false,
      "motor_id": 0,
      "accel_val": 2000,
      "base_duration_us": 517239
    },
    {
      "id": "M_2378",
      "pitch": 81,
      "t_note_us": 183101869,
      "t_trigger_us": 182965906,
      "is_ai": true,
      "track_id": 1,
      "velocity": 0,
      "is_motor": false,
      "motor_id": 0,
      "accel_val": 2000,
      "base_duration_us": 517239
    },
    {
      "id": "M_2379",
      "pitch": 86,
      "t_note_us": 183101869,
      "t_trigger_us": 182965906,
      "is_ai": true,
      "track_id": 4,
      "velocity": 0,
      "is_motor": false,
      "motor_id": 0,
      "accel_val": 2000,
      "base_duration_us": 517239
    },
    {
      "id": "M_2371",
      "pitch": 62,
      "t_note_us": 183101869,
      "t_trigger_us": 182965906,
      "is_ai": false,
      "track_id": 0,
      "velocity": 0,
      "is_motor": true,
      "motor_id": 1,
      "accel_val": 2000,
      "base_duration_us": 517239
    },
    {
      "id": "M_2372",
      "pitch": 78,
      "t_note_us": 183101869,
      "t_trigger_us": 182965906,
      "is_ai": false,
      "track_id": 0,
      "velocity": 0,
      "is_motor": true,
      "motor_id": 2,
      "accel_val": 2000,
      "base_duration_us": 517239
    },
    {
      "id": "M_2375",
      "pitch": 74,
      "t_note_us": 183101869,
      "t_trigger_us": 182965906,
      "is_ai": false,
      "track_id": 0,
      "velocity": 0,
      "is_motor": true,
      "motor_id": 0,
      "accel_val": 2000,
      "base_duration_us": 517239
    },
    {
      "id": "M_2376",
      "pitch": 50,
      "t_note_us": 183101869,
      "t_trigger_us": 182965906,
      "is_ai": false,
      "track_id": 0,
      "velocity": 0,
      "is_motor": true,
      "motor_id": 3,
      "accel_val": 2000,
      "base_duration_us": 517239
    },
    {
      "id": "M_2380",
      "pitch": 78,
      "t_note_us": 183101869,
      "t_trigger_us": 182965906,
      "is_ai": false,
      "track_id": 0,
      "velocity": 0,
      "is_motor": true,
      "motor_id": 0,
      "accel_val": 2000,
      "base_duration_us": 517239
    },
    {
      "id": "M_2381",
      "pitch": 50,
      "t_note_us": 183101869,
      "t_trigger_us": 182965906,
      "is_ai": false,
      "track_id": 0,
      "velocity": 0,
      "is_motor": true,
      "motor_id": 0,
      "accel_val": 2000,
      "base_duration_us": 517239
    },
    {
      "id": "M_2382",
      "pitch": 52,
      "t_note_us": 183101869,
      "t_trigger_us": 182965906,
      "is_ai": false,
      "track_id": 0,
      "velocity": 0,
      "is_motor": true,
      "motor_id": 0,
      "accel_val": 2000,
      "base_duration_us": 517239
    },
    {
      "id": "M_2383",
      "pitch": 91,
      "t_note_us": 183360489,
      "t_trigger_us": 183224526,
      "is_ai": true,
      "track_id": 7,
      "velocity": 0,
      "is_motor": false,
      "motor_id": 0,
      "accel_val": 2000,
      "base_duration_us": 775857
    },
    {
      "id": "M_2384",
      "pitch": 83,
      "t_note_us": 184136346,
      "t_trigger_us": 184000383,
      "is_ai": true,
      "track_id": 2,
      "velocity": 0,
      "is_motor": false,
      "motor_id": 0,
      "accel_val": 2000,
      "base_duration_us": 517237
    },
    {
      "id": "M_2387",
      "pitch": 83,
      "t_note_us": 184136346,
      "t_trigger_us": 184000383,
      "is_ai": true,
      "track_id": 2,
      "velocity": 0,
      "is_motor": false,
      "motor_id": 0,
      "accel_val": 2000,
      "base_duration_us": 517237
    },
    {
      "id": "M_2393",
      "pitch": 83,
      "t_note_us": 184136346,
      "t_trigger_us": 184000383,
      "is_ai": true,
      "track_id": 2,
      "velocity": 0,
      "is_motor": false,
      "motor_id": 0,
      "accel_val": 2000,
      "base_duration_us": 517237
    },
    {
      "id": "M_2400",
      "pitch": 83,
      "t_note_us": 184136346,
      "t_trigger_us": 184000383,
      "is_ai": true,
      "track_id": 2,
      "velocity": 0,
      "is_motor": false,
      "motor_id": 0,
      "accel_val": 2000,
      "base_duration_us": 517237
    },
    {
      "id": "M_2418",
      "pitch": 86,
      "t_note_us": 184136346,
      "t_trigger_us": 184000383,
      "is_ai": true,
      "track_id": 4,
      "velocity": 0,
      "is_motor": false,
      "motor_id": 0,
      "accel_val": 2000,
      "base_duration_us": 1551710
    },
    {
      "id": "M_2385",
      "pitch": 55,
      "t_note_us": 184136346,
      "t_trigger_us": 184000383,
      "is_ai": false,
      "track_id": 0,
      "velocity": 0,
      "is_motor": true,
      "motor_id": 0,
      "accel_val": 2000,
      "base_duration_us": 517237
    },
    {
      "id": "M_2386",
      "pitch": 74,
      "t_note_us": 184136346,
      "t_trigger_us": 184000383,
      "is_ai": false,
      "track_id": 0,
      "velocity": 0,
      "is_motor": true,
      "motor_id": 1,
      "accel_val": 2000,
      "base_duration_us": 517237
    },
    {
      "id": "M_2388",
      "pitch": 67,
      "t_note_us": 184136346,
      "t_trigger_us": 184000383,
      "is_ai": false,
      "track_id": 0,
      "velocity": 0,
      "is_motor": true,
      "motor_id": 2,
      "accel_val": 2000,
      "base_duration_us": 517237
    },
    {
      "id": "M_2389",
      "pitch": 67,
      "t_note_us": 184136346,
      "t_trigger_us": 184000383,
      "is_ai": false,
      "track_id": 0,
      "velocity": 0,
      "is_motor": true,
      "motor_id": 3,
      "accel_val": 2000,
      "base_duration_us": 517237
    },
    {
      "id": "M_2390",
      "pitch": 43,
      "t_note_us": 184136346,
      "t_trigger_us": 184000383,
      "is_ai": false,
      "track_id": 0,
      "velocity": 0,
      "is_motor": true,
      "motor_id": 0,
      "accel_val": 2000,
      "base_duration_us": 517237
    },
    {
      "id": "M_2391",
      "pitch": 55,
      "t_note_us": 184136346,
      "t_trigger_us": 184000383,
      "is_ai": false,
      "track_id": 0,
      "velocity": 0,
      "is_motor": true,
      "motor_id": 0,
      "accel_val": 2000,
      "base_duration_us": 517237
    },
    {
      "id": "M_2392",
      "pitch": 74,
      "t_note_us": 184136346,
      "t_trigger_us": 184000383,
      "is_ai": false,
      "track_id": 0,
      "velocity": 0,
      "is_motor": true,
      "motor_id": 0,
      "accel_val": 2000,
      "base_duration_us": 517237
    },
    {
      "id": "M_2394",
      "pitch": 67,
      "t_note_us": 184136346,
      "t_trigger_us": 184000383,
      "is_ai": false,
      "track_id": 0,
      "velocity": 0,
      "is_motor": true,
      "motor_id": 0,
      "accel_val": 2000,
      "base_duration_us": 517237
    },
    {
      "id": "M_2395",
      "pitch": 67,
      "t_note_us": 184136346,
      "t_trigger_us": 184000383,
      "is_ai": false,
      "track_id": 0,
      "velocity": 0,
      "is_motor": true,
      "motor_id": 0,
      "accel_val": 2000,
      "base_duration_us": 517237
    },
    {
      "id": "M_2396",
      "pitch": 67,
      "t_note_us": 184136346,
      "t_trigger_us": 184000383,
      "is_ai": false,
      "track_id": 0,
      "velocity": 0,
      "is_motor": true,
      "motor_id": 0,
      "accel_val": 2000,
      "base_duration_us": 517237
    },
    {
      "id": "M_2397",
      "pitch": 55,
      "t_note_us": 184136346,
      "t_trigger_us": 184000383,
      "is_ai": false,
      "track_id": 0,
      "velocity": 0,
      "is_motor": true,
      "motor_id": 0,
      "accel_val": 2000,
      "base_duration_us": 517237
    },
    {
      "id": "M_2398",
      "pitch": 74,
      "t_note_us": 184136346,
      "t_trigger_us": 184000383,
      "is_ai": false,
      "track_id": 0,
      "velocity": 0,
      "is_motor": true,
      "motor_id": 0,
      "accel_val": 2000,
      "base_duration_us": 517237
    },
    {
      "id": "M_2399",
      "pitch": 67,
      "t_note_us": 184136346,
      "t_trigger_us": 184000383,
      "is_ai": false,
      "track_id": 0,
      "velocity": 0,
      "is_motor": true,
      "motor_id": 0,
      "accel_val": 2000,
      "base_duration_us": 517237
    },
    {
      "id": "M_2402",
      "pitch": 63,
      "t_note_us": 184136346,
      "t_trigger_us": 184000383,
      "is_ai": false,
      "track_id": 0,
      "velocity": 0,
      "is_motor": true,
      "motor_id": 0,
      "accel_val": 2000,
      "base_duration_us": 1034473
    },
    {
      "id": "M_2403",
      "pitch": 50,
      "t_note_us": 184136346,
      "t_trigger_us": 184000383,
      "is_ai": false,
      "track_id": 0,
      "velocity": 0,
      "is_motor": true,
      "motor_id": 0,
      "accel_val": 2000,
      "base_duration_us": 1034473
    },
    {
      "id": "M_2401",
      "pitch": 86,
      "t_note_us": 184653583,
      "t_trigger_us": 184517620,
      "is_ai": true,
      "track_id": 4,
      "velocity": 0,
      "is_motor": false,
      "motor_id": 0,
      "accel_val": 2000,
      "base_duration_us": 258617
    },
    {
      "id": "M_2404",
      "pitch": 91,
      "t_note_us": 184912200,
      "t_trigger_us": 184776237,
      "is_ai": true,
      "track_id": 7,
      "velocity": 0,
      "is_motor": false,
      "motor_id": 0,
      "accel_val": 2000,
      "base_duration_us": 517237
    },
    {
      "id": "M_2406",
      "pitch": 84,
      "t_note_us": 184912200,
      "t_trigger_us": 184776237,
      "is_ai": true,
      "track_id": 3,
      "velocity": 0,
      "is_motor": false,
      "motor_id": 0,
      "accel_val": 2000,
      "base_duration_us": 517237
    },
    {
      "id": "M_2412",
      "pitch": 84,
      "t_note_us": 184912200,
      "t_trigger_us": 184776237,
      "is_ai": true,
      "track_id": 3,
      "velocity": 0,
      "is_motor": false,
      "motor_id": 0,
      "accel_val": 2000,
      "base_duration_us": 517237
    },
    {
      "id": "M_2405",
      "pitch": 57,
      "t_note_us": 184912200,
      "t_trigger_us": 184776237,
      "is_ai": false,
      "track_id": 0,
      "velocity": 0,
      "is_motor": true,
      "motor_id": 0,
      "accel_val": 2000,
      "base_duration_us": 517237
    },
    {
      "id": "M_2407",
      "pitch": 69,
      "t_note_us": 184912200,
      "t_trigger_us": 184776237,
      "is_ai": false,
      "track_id": 0,
      "velocity": 0,
      "is_motor": true,
      "motor_id": 1,
      "accel_val": 2000,
      "base_duration_us": 517237
    },
    {
      "id": "M_2408",
      "pitch": 76,
      "t_note_us": 184912200,
      "t_trigger_us": 184776237,
      "is_ai": false,
      "track_id": 0,
      "velocity": 0,
      "is_motor": true,
      "motor_id": 2,
      "accel_val": 2000,
      "base_duration_us": 517237
    },
    {
      "id": "M_2409",
      "pitch": 69,
      "t_note_us": 184912200,
      "t_trigger_us": 184776237,
      "is_ai": false,
      "track_id": 0,
      "velocity": 0,
      "is_motor": true,
      "motor_id": 3,
      "accel_val": 2000,
      "base_duration_us": 517237
    },
    {
      "id": "M_2410",
      "pitch": 45,
      "t_note_us": 184912200,
      "t_trigger_us": 184776237,
      "is_ai": false,
      "track_id": 0,
      "velocity": 0,
      "is_motor": true,
      "motor_id": 0,
      "accel_val": 2000,
      "base_duration_us": 517237
    },
    {
      "id": "M_2411",
      "pitch": 57,
      "t_note_us": 184912200,
      "t_trigger_us": 184776237,
      "is_ai": false,
      "track_id": 0,
      "velocity": 0,
      "is_motor": true,
      "motor_id": 0,
      "accel_val": 2000,
      "base_duration_us": 517237
    },
    {
      "id": "M_2413",
      "pitch": 69,
      "t_note_us": 184912200,
      "t_trigger_us": 184776237,
      "is_ai": false,
      "track_id": 0,
      "velocity": 0,
      "is_motor": true,
      "motor_id": 0,
      "accel_val": 2000,
      "base_duration_us": 517237
    },
    {
      "id": "M_2414",
      "pitch": 76,
      "t_note_us": 184912200,
      "t_trigger_us": 184776237,
      "is_ai": false,
      "track_id": 0,
      "velocity": 0,
      "is_motor": true,
      "motor_id": 0,
      "accel_val": 2000,
      "base_duration_us": 517237
    },
    {
      "id": "M_2415",
      "pitch": 69,
      "t_note_us": 184912200,
      "t_trigger_us": 184776237,
      "is_ai": false,
      "track_id": 0,
      "velocity": 0,
      "is_motor": true,
      "motor_id": 0,
      "accel_val": 2000,
      "base_duration_us": 517237
    },
    {
      "id": "M_2416",
      "pitch": 52,
      "t_note_us": 185170819,
      "t_trigger_us": 185034856,
      "is_ai": false,
      "track_id": 0,
      "velocity": 0,
      "is_motor": true,
      "motor_id": 0,
      "accel_val": 2000,
      "base_duration_us": 258618
    },
    {
      "id": "M_2417",
      "pitch": 50,
      "t_note_us": 185170819,
      "t_trigger_us": 185034856,
      "is_ai": false,
      "track_id": 0,
      "velocity": 0,
      "is_motor": true,
      "motor_id": 0,
      "accel_val": 2000,
      "base_duration_us": 258618
    },
    {
      "id": "M_2421",
      "pitch": 93,
      "t_note_us": 185429437,
      "t_trigger_us": 185293474,
      "is_ai": true,
      "track_id": 8,
      "velocity": 0,
      "is_motor": false,
      "motor_id": 0,
      "accel_val": 2000,
      "base_duration_us": 517236
    },
    {
      "id": "M_2424",
      "pitch": 86,
      "t_note_us": 185429437,
      "t_trigger_us": 185293474,
      "is_ai": true,
      "track_id": 4,
      "velocity": 0,
      "is_motor": false,
      "motor_id": 0,
      "accel_val": 2000,
      "base_duration_us": 517236
    },
    {
      "id": "M_2425",
      "pitch": 83,
      "t_note_us": 185429437,
      "t_trigger_us": 185293474,
      "is_ai": true,
      "track_id": 2,
      "velocity": 0,
      "is_motor": false,
      "motor_id": 0,
      "accel_val": 2000,
      "base_duration_us": 517236
    },
    {
      "id": "M_2431",
      "pitch": 86,
      "t_note_us": 185429437,
      "t_trigger_us": 185293474,
      "is_ai": true,
      "track_id": 4,
      "velocity": 0,
      "is_motor": false,
      "motor_id": 0,
      "accel_val": 2000,
      "base_duration_us": 517236
    },
    {
      "id": "M_2432",
      "pitch": 83,
      "t_note_us": 185429437,
      "t_trigger_us": 185293474,
      "is_ai": true,
      "track_id": 2,
      "velocity": 0,
      "is_motor": false,
      "motor_id": 0,
      "accel_val": 2000,
      "base_duration_us": 517236
    },
    {
      "id": "M_2419",
      "pitch": 63,
      "t_note_us": 185429437,
      "t_trigger_us": 185293474,
      "is_ai": false,
      "track_id": 0,
      "velocity": 0,
      "is_motor": true,
      "motor_id": 1,
      "accel_val": 2000,
      "base_duration_us": 258619
    },
    {
      "id": "M_2420",
      "pitch": 50,
      "t_note_us": 185429437,
      "t_trigger_us": 185293474,
      "is_ai": false,
      "track_id": 0,
      "velocity": 0,
      "is_motor": true,
      "motor_id": 0,
      "accel_val": 2000,
      "base_duration_us": 258619
    },
    {
      "id": "M_2422",
      "pitch": 59,
      "t_note_us": 185429437,
      "t_trigger_us": 185293474,
      "is_ai": false,
      "track_id": 0,
      "velocity": 0,
      "is_motor": true,
      "motor_id": 2,
      "accel_val": 2000,
      "base_duration_us": 517236
    },
    {
      "id": "M_2423",
      "pitch": 78,
      "t_note_us": 185429437,
      "t_trigger_us": 185293474,
      "is_ai": false,
      "track_id": 0,
      "velocity": 0,
      "is_motor": true,
      "motor_id": 3,
      "accel_val": 2000,
      "base_duration_us": 517236
    },
    {
      "id": "M_2426",
      "pitch": 71,
      "t_note_us": 185429437,
      "t_trigger_us": 185293474,
      "is_ai": false,
      "track_id": 0,
      "velocity": 0,
      "is_motor": true,
      "motor_id": 0,
      "accel_val": 2000,
      "base_duration_us": 517236
    },
    {
      "id": "M_2427",
      "pitch": 47,
      "t_note_us": 185429437,
      "t_trigger_us": 185293474,
      "is_ai": false,
      "track_id": 0,
      "velocity": 0,
      "is_motor": true,
      "motor_id": 0,
      "accel_val": 2000,
      "base_duration_us": 517236
    },
    {
      "id": "M_2429",
      "pitch": 59,
      "t_note_us": 185429437,
      "t_trigger_us": 185293474,
      "is_ai": false,
      "track_id": 0,
      "velocity": 0,
      "is_motor": true,
      "motor_id": 0,
      "accel_val": 2000,
      "base_duration_us": 517236
    },
    {
      "id": "M_2430",
      "pitch": 78,
      "t_note_us": 185429437,
      "t_trigger_us": 185293474,
      "is_ai": false,
      "track_id": 0,
      "velocity": 0,
      "is_motor": true,
      "motor_id": 0,
      "accel_val": 2000,
      "base_duration_us": 517236
    },
    {
      "id": "M_2433",
      "pitch": 71,
      "t_note_us": 185429437,
      "t_trigger_us": 185293474,
      "is_ai": false,
      "track_id": 0,
      "velocity": 0,
      "is_motor": true,
      "motor_id": 0,
      "accel_val": 2000,
      "base_duration_us": 517236
    },
    {
      "id": "M_2428",
      "pitch": 93,
      "t_note_us": 185688056,
      "t_trigger_us": 185552093,
      "is_ai": true,
      "track_id": 8,
      "velocity": 0,
      "is_motor": false,
      "motor_id": 0,
      "accel_val": 2000,
      "base_duration_us": 258617
    },
    {
      "id": "M_2434",
      "pitch": 95,
      "t_note_us": 185946673,
      "t_trigger_us": 185810710,
      "is_ai": true,
      "track_id": 9,
      "velocity": 0,
      "is_motor": false,
      "motor_id": 0,
      "accel_val": 2000,
      "base_duration_us": 775857
    },
    {
      "id": "M_2438",
      "pitch": 84,
      "t_note_us": 185946673,
      "t_trigger_us": 185810710,
      "is_ai": true,
      "track_id": 3,
      "velocity": 0,
      "is_motor": false,
      "motor_id": 0,
      "accel_val": 2000,
      "base_duration_us": 1293093
    },
    {
      "id": "M_2439",
      "pitch": 88,
      "t_note_us": 185946673,
      "t_trigger_us": 185810710,
      "is_ai": true,
      "track_id": 5,
      "velocity": 0,
      "is_motor": false,
      "motor_id": 0,
      "accel_val": 2000,
      "base_duration_us": 1293093
    },
    {
      "id": "M_2440",
      "pitch": 79,
      "t_note_us": 185946673,
      "t_trigger_us": 185810710,
      "is_ai": true,
      "track_id": 0,
      "velocity": 0,
      "is_motor": false,
      "motor_id": 0,
      "accel_val": 2000,
      "base_duration_us": 1293093
    },
    {
      "id": "M_2441",
      "pitch": 95,
      "t_note_us": 185946673,
      "t_trigger_us": 185810710,
      "is_ai": true,
      "track_id": 9,
      "velocity": 0,
      "is_motor": false,
      "motor_id": 0,
      "accel_val": 2000,
      "base_duration_us": 1293093
    },
    {
      "id": "M_2442",
      "pitch": 84,
      "t_note_us": 185946673,
      "t_trigger_us": 185810710,
      "is_ai": true,
      "track_id": 3,
      "velocity": 0,
      "is_motor": false,
      "motor_id": 0,
      "accel_val": 2000,
      "base_duration_us": 1293093
    },
    {
      "id": "M_2443",
      "pitch": 88,
      "t_note_us": 185946673,
      "t_trigger_us": 185810710,
      "is_ai": true,
      "track_id": 5,
      "velocity": 0,
      "is_motor": false,
      "motor_id": 0,
      "accel_val": 2000,
      "base_duration_us": 1293093
    },
    {
      "id": "M_2444",
      "pitch": 79,
      "t_note_us": 185946673,
      "t_trigger_us": 185810710,
      "is_ai": true,
      "track_id": 0,
      "velocity": 0,
      "is_motor": false,
      "motor_id": 0,
      "accel_val": 2000,
      "base_duration_us": 1293093
    },
    {
      "id": "M_2436",
      "pitch": 63,
      "t_note_us": 185946673,
      "t_trigger_us": 185810710,
      "is_ai": false,
      "track_id": 0,
      "velocity": 0,
      "is_motor": true,
      "motor_id": 1,
      "accel_val": 2000,
      "base_duration_us": 1034476
    },
    {
      "id": "M_2437",
      "pitch": 50,
      "t_note_us": 185946673,
      "t_trigger_us": 185810710,
      "is_ai": false,
      "track_id": 0,
      "velocity": 0,
      "is_motor": true,
      "motor_id": 0,
      "accel_val": 2000,
      "base_duration_us": 1034476
    },
    {
      "id": "M_2454",
      "pitch": 48,
      "t_note_us": 185946673,
      "t_trigger_us": 185810710,
      "is_ai": false,
      "track_id": 0,
      "velocity": 0,
      "is_motor": true,
      "motor_id": 2,
      "accel_val": 2000,
      "base_duration_us": 2068950
    },
    {
      "id": "M_2459",
      "pitch": 60,
      "t_note_us": 185946673,
      "t_trigger_us": 185810710,
      "is_ai": false,
      "track_id": 0,
      "velocity": 0,
      "is_motor": true,
      "motor_id": 3,
      "accel_val": 2000,
      "base_duration_us": 2327569
    },
    {
      "id": "M_2460",
      "pitch": 72,
      "t_note_us": 185946673,
      "t_trigger_us": 185810710,
      "is_ai": false,
      "track_id": 0,
      "velocity": 0,
      "is_motor": true,
      "motor_id": 0,
      "accel_val": 2000,
      "base_duration_us": 2327569
    },
    {
      "id": "M_2464",
      "pitch": 72,
      "t_note_us": 185946673,
      "t_trigger_us": 185810710,
      "is_ai": false,
      "track_id": 0,
      "velocity": 0,
      "is_motor": true,
      "motor_id": 0,
      "accel_val": 2000,
      "base_duration_us": 2327569
    },
    {
      "id": "M_2465",
      "pitch": 60,
      "t_note_us": 185946673,
      "t_trigger_us": 185810710,
      "is_ai": false,
      "track_id": 0,
      "velocity": 0,
      "is_motor": true,
      "motor_id": 0,
      "accel_val": 2000,
      "base_duration_us": 2327569
    },
    {
      "id": "M_2470",
      "pitch": 84,
      "t_note_us": 186205291,
      "t_trigger_us": 186069328,
      "is_ai": true,
      "track_id": 3,
      "velocity": 0,
      "is_motor": false,
      "motor_id": 0,
      "accel_val": 2000,
      "base_duration_us": 2068951
    },
    {
      "id": "M_2466",
      "pitch": 72,
      "t_note_us": 186205291,
      "t_trigger_us": 186069328,
      "is_ai": false,
      "track_id": 0,
      "velocity": 0,
      "is_motor": true,
      "motor_id": 0,
      "accel_val": 2000,
      "base_duration_us": 2068951
    },
    {
      "id": "M_2467",
      "pitch": 60,
      "t_note_us": 186205291,
      "t_trigger_us": 186069328,
      "is_ai": false,
      "track_id": 0,
      "velocity": 0,
      "is_motor": true,
      "motor_id": 0,
      "accel_val": 2000,
      "base_duration_us": 2068951
    },
    {
      "id": "M_2468",
      "pitch": 67,
      "t_note_us": 186205291,
      "t_trigger_us": 186069328,
      "is_ai": false,
      "track_id": 0,
      "velocity": 0,
      "is_motor": true,
      "motor_id": 0,
      "accel_val": 2000,
      "base_duration_us": 2068951
    },
    {
      "id": "M_2469",
      "pitch": 71,
      "t_note_us": 186205291,
      "t_trigger_us": 186069328,
      "is_ai": false,
      "track_id": 0,
      "velocity": 0,
      "is_motor": true,
      "motor_id": 0,
      "accel_val": 2000,
      "base_duration_us": 2068951
    },
    {
      "id": "M_2471",
      "pitch": 76,
      "t_note_us": 186205291,
      "t_trigger_us": 186069328,
      "is_ai": false,
      "track_id": 0,
      "velocity": 0,
      "is_motor": true,
      "motor_id": 0,
      "accel_val": 2000,
      "base_duration_us": 2068951
    },
    {
      "id": "M_2435",
      "pitch": 86,
      "t_note_us": 186722530,
      "t_trigger_us": 186586567,
      "is_ai": true,
      "track_id": 4,
      "velocity": 0,
      "is_motor": false,
      "motor_id": 0,
      "accel_val": 2000,
      "base_duration_us": 258619
    },
    {
      "id": "M_2447",
      "pitch": 88,
      "t_note_us": 186981149,
      "t_trigger_us": 186845186,
      "is_ai": true,
      "track_id": 5,
      "velocity": 0,
      "is_motor": false,
      "motor_id": 0,
      "accel_val": 2000,
      "base_duration_us": 517236
    },
    {
      "id": "M_2445",
      "pitch": 50,
      "t_note_us": 186981149,
      "t_trigger_us": 186845186,
      "is_ai": false,
      "track_id": 0,
      "velocity": 0,
      "is_motor": true,
      "motor_id": 0,
      "accel_val": 2000,
      "base_duration_us": 258617
    },
    {
      "id": "M_2457",
      "pitch": 84,
      "t_note_us": 187239766,
      "t_trigger_us": 187103803,
      "is_ai": true,
      "track_id": 3,
      "velocity": 0,
      "is_motor": false,
      "motor_id": 0,
      "accel_val": 2000,
      "base_duration_us": 1034476
    },
    {
      "id": "M_2458",
      "pitch": 91,
      "t_note_us": 187239766,
      "t_trigger_us": 187103803,
      "is_ai": true,
      "track_id": 7,
      "velocity": 0,
      "is_motor": false,
      "motor_id": 0,
      "accel_val": 2000,
      "base_duration_us": 1034476
    },
    {
      "id": "M_2461",
      "pitch": 88,
      "t_note_us": 187239766,
      "t_trigger_us": 187103803,
      "is_ai": true,
      "track_id": 5,
      "velocity": 0,
      "is_motor": false,
      "motor_id": 0,
      "accel_val": 2000,
      "base_duration_us": 1034476
    },
    {
      "id": "M_2463",
      "pitch": 100,
      "t_note_us": 187239766,
      "t_trigger_us": 187103803,
      "is_ai": true,
      "track_id": 12,
      "velocity": 0,
      "is_motor": false,
      "motor_id": 0,
      "accel_val": 2000,
      "base_duration_us": 1034476
    },
    {
      "id": "M_2446",
      "pitch": 52,
      "t_note_us": 187239766,
      "t_trigger_us": 187103803,
      "is_ai": false,
      "track_id": 0,
      "velocity": 0,
      "is_motor": true,
      "motor_id": 0,
      "accel_val": 2000,
      "base_duration_us": 129310
    },
    {
      "id": "M_2448",
      "pitch": 61,
      "t_note_us": 187369076,
      "t_trigger_us": 187233113,
      "is_ai": false,
      "track_id": 0,
      "velocity": 0,
      "is_motor": true,
      "motor_id": 1,
      "accel_val": 2000,
      "base_duration_us": 129309
    },
    {
      "id": "M_2450",
      "pitch": 88,
      "t_note_us": 187498385,
      "t_trigger_us": 187362422,
      "is_ai": true,
      "track_id": 5,
      "velocity": 0,
      "is_motor": false,
      "motor_id": 0,
      "accel_val": 2000,
      "base_duration_us": 258619
    },
    {
      "id": "M_2449",
      "pitch": 61,
      "t_note_us": 187498385,
      "t_trigger_us": 187362422,
      "is_ai": false,
      "track_id": 0,
      "velocity": 0,
      "is_motor": true,
      "motor_id": 1,
      "accel_val": 2000,
      "base_duration_us": 129309
    },
    {
      "id": "M_2451",
      "pitch": 59,
      "t_note_us": 187627694,
      "t_trigger_us": 187491731,
      "is_ai": false,
      "track_id": 0,
      "velocity": 0,
      "is_motor": true,
      "motor_id": 0,
      "accel_val": 2000,
      "base_duration_us": 129310
    },
    {
      "id": "M_2453",
      "pitch": 91,
      "t_note_us": 187757004,
      "t_trigger_us": 187621041,
      "is_ai": true,
      "track_id": 7,
      "velocity": 0,
      "is_motor": false,
      "motor_id": 0,
      "accel_val": 2000,
      "base_duration_us": 258619
    },
    {
      "id": "M_2452",
      "pitch": 59,
      "t_note_us": 187757004,
      "t_trigger_us": 187621041,
      "is_ai": false,
      "track_id": 0,
      "velocity": 0,
      "is_motor": true,
      "motor_id": 0,
      "accel_val": 2000,
      "base_duration_us": 129310
    },
    {
      "id": "M_2455",
      "pitch": 57,
      "t_note_us": 187886314,
      "t_trigger_us": 187750351,
      "is_ai": false,
      "track_id": 0,
      "velocity": 0,
      "is_motor": true,
      "motor_id": 0,
      "accel_val": 2000,
      "base_duration_us": 129309
    },
    {
      "id": "M_2475",
      "pitch": 90,
      "t_note_us": 188015623,
      "t_trigger_us": 187879660,
      "is_ai": true,
      "track_id": 0,
      "velocity": 0,
      "is_motor": true,
      "motor_id": 2,
      "accel_val": 2000,
      "base_duration_us": 775853
    },
    {
      "id": "M_2456",
      "pitch": 57,
      "t_note_us": 188015623,
      "t_trigger_us": 187879660,
      "is_ai": false,
      "track_id": 0,
      "velocity": 0,
      "is_motor": true,
      "motor_id": 0,
      "accel_val": 2000,
      "base_duration_us": 129309
    },
    {
      "id": "M_2462",
      "pitch": 48,
      "t_note_us": 188015623,
      "t_trigger_us": 187879660,
      "is_ai": false,
      "track_id": 0,
      "velocity": 0,
      "is_motor": true,
      "motor_id": 1,
      "accel_val": 2000,
      "base_duration_us": 258619
    },
    {
      "id": "M_2472",
      "pitch": 55,
      "t_note_us": 188144932,
      "t_trigger_us": 188008969,
      "is_ai": false,
      "track_id": 0,
      "velocity": 0,
      "is_motor": true,
      "motor_id": 0,
      "accel_val": 2000,
      "base_duration_us": 129310
    },
    {
      "id": "M_2492",
      "pitch": 98,
      "t_note_us": 188274242,
      "t_trigger_us": 188138279,
      "is_ai": true,
      "track_id": 11,
      "velocity": 0,
      "is_motor": false,
      "motor_id": 0,
      "accel_val": 2000,
      "base_duration_us": 1551707
    },
    {
      "id": "M_2473",
      "pitch": 50,
      "t_note_us": 188274242,
      "t_trigger_us": 188138279,
      "is_ai": false,
      "track_id": 0,
      "velocity": 0,
      "is_motor": true,
      "motor_id": 0,
      "accel_val": 2000,
      "base_duration_us": 258618
    },
    {
      "id": "M_2474",
      "pitch": 62,
      "t_note_us": 188274242,
      "t_trigger_us": 188138279,
      "is_ai": false,
      "track_id": 0,
      "velocity": 0,
      "is_motor": true,
      "motor_id": 1,
      "accel_val": 2000,
      "base_duration_us": 258618
    },
    {
      "id": "M_2481",
      "pitch": 69,
      "t_note_us": 188274242,
      "t_trigger_us": 188138279,
      "is_ai": false,
      "track_id": 0,
      "velocity": 0,
      "is_motor": true,
      "motor_id": 3,
      "accel_val": 2000,
      "base_duration_us": 1034470
    },
    {
      "id": "M_2482",
      "pitch": 74,
      "t_note_us": 188274242,
      "t_trigger_us": 188138279,
      "is_ai": false,
      "track_id": 0,
      "velocity": 0,
      "is_motor": true,
      "motor_id": 0,
      "accel_val": 2000,
      "base_duration_us": 1034470
    },
    {
      "id": "M_2483",
      "pitch": 78,
      "t_note_us": 188274242,
      "t_trigger_us": 188138279,
      "is_ai": false,
      "track_id": 0,
      "velocity": 0,
      "is_motor": true,
      "motor_id": 0,
      "accel_val": 2000,
      "base_duration_us": 1034470
    },
    {
      "id": "M_2486",
      "pitch": 50,
      "t_note_us": 188274242,
      "t_trigger_us": 188138279,
      "is_ai": false,
      "track_id": 0,
      "velocity": 0,
      "is_motor": true,
      "motor_id": 0,
      "accel_val": 2000,
      "base_duration_us": 1034470
    },
    {
      "id": "M_2487",
      "pitch": 63,
      "t_note_us": 188274242,
      "t_trigger_us": 188138279,
      "is_ai": false,
      "track_id": 0,
      "velocity": 0,
      "is_motor": true,
      "motor_id": 0,
      "accel_val": 2000,
      "base_duration_us": 1034470
    },
    {
      "id": "M_2497",
      "pitch": 50,
      "t_note_us": 188274242,
      "t_trigger_us": 188138279,
      "is_ai": false,
      "track_id": 0,
      "velocity": 0,
      "is_motor": true,
      "motor_id": 0,
      "accel_val": 2000,
      "base_duration_us": 1810324
    },
    {
      "id": "M_2504",
      "pitch": 62,
      "t_note_us": 188274242,
      "t_trigger_us": 188138279,
      "is_ai": false,
      "track_id": 0,
      "velocity": 0,
      "is_motor": true,
      "motor_id": 0,
      "accel_val": 2000,
      "base_duration_us": 2068938
    },
    {
      "id": "M_2505",
      "pitch": 74,
      "t_note_us": 188274242,
      "t_trigger_us": 188138279,
      "is_ai": false,
      "track_id": 0,
      "velocity": 0,
      "is_motor": true,
      "motor_id": 0,
      "accel_val": 2000,
      "base_duration_us": 2068938
    },
    {
      "id": "M_2506",
      "pitch": 69,
      "t_note_us": 188274242,
      "t_trigger_us": 188138279,
      "is_ai": false,
      "track_id": 0,
      "velocity": 0,
      "is_motor": true,
      "motor_id": 0,
      "accel_val": 2000,
      "base_duration_us": 2068938
    },
    {
      "id": "M_2507",
      "pitch": 78,
      "t_note_us": 188274242,
      "t_trigger_us": 188138279,
      "is_ai": false,
      "track_id": 0,
      "velocity": 0,
      "is_motor": true,
      "motor_id": 0,
      "accel_val": 2000,
      "base_duration_us": 2068938
    },
    {
      "id": "M_2508",
      "pitch": 74,
      "t_note_us": 188274242,
      "t_trigger_us": 188138279,
      "is_ai": false,
      "track_id": 0,
      "velocity": 0,
      "is_motor": true,
      "motor_id": 0,
      "accel_val": 2000,
      "base_duration_us": 2068938
    },
    {
      "id": "M_2476",
      "pitch": 57,
      "t_note_us": 188532860,
      "t_trigger_us": 188396897,
      "is_ai": false,
      "track_id": 0,
      "velocity": 0,
      "is_motor": true,
      "motor_id": 0,
      "accel_val": 2000,
      "base_duration_us": 258616
    },
    {
      "id": "M_2477",
      "pitch": 69,
      "t_note_us": 188532860,
      "t_trigger_us": 188396897,
      "is_ai": false,
      "track_id": 0,
      "velocity": 0,
      "is_motor": true,
      "motor_id": 1,
      "accel_val": 2000,
      "base_duration_us": 258616
    },
    {
      "id": "M_2478",
      "pitch": 88,
      "t_note_us": 188791476,
      "t_trigger_us": 188655513,
      "is_ai": true,
      "track_id": 5,
      "velocity": 0,
      "is_motor": false,
      "motor_id": 0,
      "accel_val": 2000,
      "base_duration_us": 258618
    },
    {
      "id": "M_2479",
      "pitch": 62,
      "t_note_us": 188791476,
      "t_trigger_us": 188655513,
      "is_ai": false,
      "track_id": 0,
      "velocity": 0,
      "is_motor": true,
      "motor_id": 1,
      "accel_val": 2000,
      "base_duration_us": 258618
    },
    {
      "id": "M_2480",
      "pitch": 74,
      "t_note_us": 188791476,
      "t_trigger_us": 188655513,
      "is_ai": false,
      "track_id": 0,
      "velocity": 0,
      "is_motor": true,
      "motor_id": 0,
      "accel_val": 2000,
      "base_duration_us": 258618
    },
    {
      "id": "M_2485",
      "pitch": 56,
      "t_note_us": 188791476,
      "t_trigger_us": 188655513,
      "is_ai": false,
      "track_id": 0,
      "velocity": 0,
      "is_motor": true,
      "motor_id": 2,
      "accel_val": 2000,
      "base_duration_us": 517236
    },
    {
      "id": "M_2488",
      "pitch": 86,
      "t_note_us": 189050094,
      "t_trigger_us": 188914131,
      "is_ai": true,
      "track_id": 4,
      "velocity": 0,
      "is_motor": false,
      "motor_id": 0,
      "accel_val": 2000,
      "base_duration_us": 517236
    },
    {
      "id": "M_2484",
      "pitch": 69,
      "t_note_us": 189050094,
      "t_trigger_us": 188914131,
      "is_ai": false,
      "track_id": 0,
      "velocity": 0,
      "is_motor": true,
      "motor_id": 1,
      "accel_val": 2000,
      "base_duration_us": 258618
    },
    {
      "id": "M_2489",
      "pitch": 66,
      "t_note_us": 189050094,
      "t_trigger_us": 188914131,
      "is_ai": false,
      "track_id": 0,
      "velocity": 0,
      "is_motor": true,
      "motor_id": 0,
      "accel_val": 2000,
      "base_duration_us": 517236
    },
    {
      "id": "M_2490",
      "pitch": 90,
      "t_note_us": 189308712,
      "t_trigger_us": 189172749,
      "is_ai": true,
      "track_id": 0,
      "velocity": 0,
      "is_motor": true,
      "motor_id": 3,
      "accel_val": 2000,
      "base_duration_us": 258618
    },
    {
      "id": "M_2494",
      "pitch": 56,
      "t_note_us": 189308712,
      "t_trigger_us": 189172749,
      "is_ai": false,
      "track_id": 0,
      "velocity": 0,
      "is_motor": true,
      "motor_id": 1,
      "accel_val": 2000,
      "base_duration_us": 517237
    },
    {
      "id": "M_2500",
      "pitch": 52,
      "t_note_us": 189308712,
      "t_trigger_us": 189172749,
      "is_ai": false,
      "track_id": 0,
      "velocity": 0,
      "is_motor": true,
      "motor_id": 2,
      "accel_val": 2000,
      "base_duration_us": 775854
    },
    {
      "id": "M_2495",
      "pitch": 96,
      "t_note_us": 189567330,
      "t_trigger_us": 189431367,
      "is_ai": true,
      "track_id": 10,
      "velocity": 0,
      "is_motor": false,
      "motor_id": 0,
      "accel_val": 2000,
      "base_duration_us": 517236
    },
    {
      "id": "M_2491",
      "pitch": 69,
      "t_note_us": 189567330,
      "t_trigger_us": 189431367,
      "is_ai": false,
      "track_id": 0,
      "velocity": 0,
      "is_motor": true,
      "motor_id": 0,
      "accel_val": 2000,
      "base_duration_us": 258619
    },
    {
      "id": "M_2493",
      "pitch": 69,
      "t_note_us": 189567330,
      "t_trigger_us": 189431367,
      "is_ai": false,
      "track_id": 0,
      "velocity": 0,
      "is_motor": true,
      "motor_id": 3,
      "accel_val": 2000,
      "base_duration_us": 258619
    },
    {
      "id": "M_2498",
      "pitch": 96,
      "t_note_us": 189825949,
      "t_trigger_us": 189689986,
      "is_ai": true,
      "track_id": 10,
      "velocity": 0,
      "is_motor": false,
      "motor_id": 0,
      "accel_val": 2000,
      "base_duration_us": 258617
    },
    {
      "id": "M_2496",
      "pitch": 66,
      "t_note_us": 189825949,
      "t_trigger_us": 189689986,
      "is_ai": false,
      "track_id": 0,
      "velocity": 0,
      "is_motor": true,
      "motor_id": 1,
      "accel_val": 2000,
      "base_duration_us": 258617
    },
    {
      "id": "M_2499",
      "pitch": 74,
      "t_note_us": 189825949,
      "t_trigger_us": 189689986,
      "is_ai": false,
      "track_id": 0,
      "velocity": 0,
      "is_motor": true,
      "motor_id": 0,
      "accel_val": 2000,
      "base_duration_us": 258617
    },
    {
      "id": "M_2510",
      "pitch": 56,
      "t_note_us": 189825949,
      "t_trigger_us": 189689986,
      "is_ai": false,
      "track_id": 0,
      "velocity": 0,
      "is_motor": true,
      "motor_id": 3,
      "accel_val": 2000,
      "base_duration_us": 517231
    },
    {
      "id": "M_2518",
      "pitch": 95,
      "t_note_us": 190084566,
      "t_trigger_us": 189948603,
      "is_ai": true,
      "track_id": 9,
      "velocity": 0,
      "is_motor": false,
      "motor_id": 0,
      "accel_val": 2000,
      "base_duration_us": 1293055
    },
    {
      "id": "M_2540",
      "pitch": 95,
      "t_note_us": 190084566,
      "t_trigger_us": 189948603,
      "is_ai": true,
      "track_id": 9,
      "velocity": 0,
      "is_motor": false,
      "motor_id": 0,
      "accel_val": 2000,
      "base_duration_us": 2327525
    },
    {
      "id": "M_2501",
      "pitch": 62,
      "t_note_us": 190084566,
      "t_trigger_us": 189948603,
      "is_ai": false,
      "track_id": 0,
      "velocity": 0,
      "is_motor": true,
      "motor_id": 1,
      "accel_val": 2000,
      "base_duration_us": 258614
    },
    {
      "id": "M_2502",
      "pitch": 50,
      "t_note_us": 190084566,
      "t_trigger_us": 189948603,
      "is_ai": false,
      "track_id": 0,
      "velocity": 0,
      "is_motor": true,
      "motor_id": 0,
      "accel_val": 2000,
      "base_duration_us": 258614
    },
    {
      "id": "M_2503",
      "pitch": 69,
      "t_note_us": 190084566,
      "t_trigger_us": 189948603,
      "is_ai": false,
      "track_id": 0,
      "velocity": 0,
      "is_motor": true,
      "motor_id": 2,
      "accel_val": 2000,
      "base_duration_us": 258614
    },
    {
      "id": "M_2509",
      "pitch": 50,
      "t_note_us": 190084566,
      "t_trigger_us": 189948603,
      "is_ai": false,
      "track_id": 0,
      "velocity": 0,
      "is_motor": true,
      "motor_id": 0,
      "accel_val": 2000,
      "base_duration_us": 258614
    },
    {
      "id": "M_2526",
      "pitch": 83,
      "t_note_us": 190343180,
      "t_trigger_us": 190207217,
      "is_ai": true,
      "track_id": 2,
      "velocity": 0,
      "is_motor": false,
      "motor_id": 0,
      "accel_val": 2000,
      "base_duration_us": 1034441
    },
    {
      "id": "M_2511",
      "pitch": 55,
      "t_note_us": 190343180,
      "t_trigger_us": 190207217,
      "is_ai": false,
      "track_id": 0,
      "velocity": 0,
      "is_motor": true,
      "motor_id": 0,
      "accel_val": 2000,
      "base_duration_us": 258608
    },
    {
      "id": "M_2512",
      "pitch": 67,
      "t_note_us": 190343180,
      "t_trigger_us": 190207217,
      "is_ai": false,
      "track_id": 0,
      "velocity": 0,
      "is_motor": true,
      "motor_id": 1,
      "accel_val": 2000,
      "base_duration_us": 258608
    },
    {
      "id": "M_2515",
      "pitch": 56,
      "t_note_us": 190343180,
      "t_trigger_us": 190207217,
      "is_ai": false,
      "track_id": 0,
      "velocity": 0,
      "is_motor": true,
      "motor_id": 2,
      "accel_val": 2000,
      "base_duration_us": 517216
    },
    {
      "id": "M_2519",
      "pitch": 67,
      "t_note_us": 190343180,
      "t_trigger_us": 190207217,
      "is_ai": false,
      "track_id": 0,
      "velocity": 0,
      "is_motor": true,
      "motor_id": 3,
      "accel_val": 2000,
      "base_duration_us": 1034441
    },
    {
      "id": "M_2521",
      "pitch": 74,
      "t_note_us": 190343180,
      "t_trigger_us": 190207217,
      "is_ai": false,
      "track_id": 0,
      "velocity": 0,
      "is_motor": true,
      "motor_id": 0,
      "accel_val": 2000,
      "base_duration_us": 1034441
    },
    {
      "id": "M_2522",
      "pitch": 55,
      "t_note_us": 190343180,
      "t_trigger_us": 190207217,
      "is_ai": false,
      "track_id": 0,
      "velocity": 0,
      "is_motor": true,
      "motor_id": 0,
      "accel_val": 2000,
      "base_duration_us": 1034441
    },
    {
      "id": "M_2524",
      "pitch": 74,
      "t_note_us": 190343180,
      "t_trigger_us": 190207217,
      "is_ai": false,
      "track_id": 0,
      "velocity": 0,
      "is_motor": true,
      "motor_id": 0,
      "accel_val": 2000,
      "base_duration_us": 1034441
    },
    {
      "id": "M_2525",
      "pitch": 67,
      "t_note_us": 190343180,
      "t_trigger_us": 190207217,
      "is_ai": false,
      "track_id": 0,
      "velocity": 0,
      "is_motor": true,
      "motor_id": 0,
      "accel_val": 2000,
      "base_duration_us": 1034441
    },
    {
      "id": "M_2528",
      "pitch": 50,
      "t_note_us": 190343180,
      "t_trigger_us": 190207217,
      "is_ai": false,
      "track_id": 0,
      "velocity": 0,
      "is_motor": true,
      "motor_id": 0,
      "accel_val": 2000,
      "base_duration_us": 1034441
    },
    {
      "id": "M_2542",
      "pitch": 67,
      "t_note_us": 190343180,
      "t_trigger_us": 190207217,
      "is_ai": false,
      "track_id": 0,
      "velocity": 0,
      "is_motor": true,
      "motor_id": 0,
      "accel_val": 2000,
      "base_duration_us": 2068911
    },
    {
      "id": "M_2543",
      "pitch": 55,
      "t_note_us": 190343180,
      "t_trigger_us": 190207217,
      "is_ai": false,
      "track_id": 0,
      "velocity": 0,
      "is_motor": true,
      "motor_id": 0,
      "accel_val": 2000,
      "base_duration_us": 2068911
    },
    {
      "id": "M_2513",
      "pitch": 62,
      "t_note_us": 190601788,
      "t_trigger_us": 190465825,
      "is_ai": false,
      "track_id": 0,
      "velocity": 0,
      "is_motor": true,
      "motor_id": 1,
      "accel_val": 2000,
      "base_duration_us": 258608
    },
    {
      "id": "M_2514",
      "pitch": 71,
      "t_note_us": 190601788,
      "t_trigger_us": 190465825,
      "is_ai": false,
      "track_id": 0,
      "velocity": 0,
      "is_motor": true,
      "motor_id": 0,
      "accel_val": 2000,
      "base_duration_us": 258608
    },
    {
      "id": "M_2516",
      "pitch": 67,
      "t_note_us": 190860396,
      "t_trigger_us": 190724433,
      "is_ai": false,
      "track_id": 0,
      "velocity": 0,
      "is_motor": true,
      "motor_id": 1,
      "accel_val": 2000,
      "base_duration_us": 258616
    },
    {
      "id": "M_2517",
      "pitch": 74,
      "t_note_us": 190860396,
      "t_trigger_us": 190724433,
      "is_ai": false,
      "track_id": 0,
      "velocity": 0,
      "is_motor": true,
      "motor_id": 0,
      "accel_val": 2000,
      "base_duration_us": 258616
    },
    {
      "id": "M_2527",
      "pitch": 56,
      "t_note_us": 190860396,
      "t_trigger_us": 190724433,
      "is_ai": false,
      "track_id": 0,
      "velocity": 0,
      "is_motor": true,
      "motor_id": 2,
      "accel_val": 2000,
      "base_duration_us": 517225
    },
    {
      "id": "M_2574",
      "pitch": 83,
      "t_note_us": 191101772,
      "t_trigger_us": 190965809,
      "is_ai": true,
      "track_id": 2,
      "velocity": 0,
      "is_motor": false,
      "motor_id": 0,
      "accel_val": 2000,
      "base_duration_us": 3370603
    },
    {
      "id": "M_2520",
      "pitch": 71,
      "t_note_us": 191119012,
      "t_trigger_us": 190983049,
      "is_ai": false,
      "track_id": 0,
      "velocity": 0,
      "is_motor": true,
      "motor_id": 1,
      "accel_val": 2000,
      "base_duration_us": 258609
    },
    {
      "id": "M_2523",
      "pitch": 71,
      "t_note_us": 191119012,
      "t_trigger_us": 190983049,
      "is_ai": false,
      "track_id": 0,
      "velocity": 0,
      "is_motor": true,
      "motor_id": 0,
      "accel_val": 2000,
      "base_duration_us": 258609
    },
    {
      "id": "M_2529",
      "pitch": 79,
      "t_note_us": 191377621,
      "t_trigger_us": 191241658,
      "is_ai": true,
      "track_id": 0,
      "velocity": 0,
      "is_motor": false,
      "motor_id": 0,
      "accel_val": 2000,
      "base_duration_us": 258615
    },
    {
      "id": "M_2546",
      "pitch": 81,
      "t_note_us": 191377621,
      "t_trigger_us": 191241658,
      "is_ai": true,
      "track_id": 1,
      "velocity": 0,
      "is_motor": false,
      "motor_id": 0,
      "accel_val": 2000,
      "base_duration_us": 1034470
    },
    {
      "id": "M_2533",
      "pitch": 56,
      "t_note_us": 191377621,
      "t_trigger_us": 191241658,
      "is_ai": false,
      "track_id": 0,
      "velocity": 0,
      "is_motor": true,
      "motor_id": 0,
      "accel_val": 2000,
      "base_duration_us": 517233
    },
    {
      "id": "M_2537",
      "pitch": 52,
      "t_note_us": 191377621,
      "t_trigger_us": 191241658,
      "is_ai": false,
      "track_id": 0,
      "velocity": 0,
      "is_motor": true,
      "motor_id": 1,
      "accel_val": 2000,
      "base_duration_us": 775852
    },
    {
      "id": "M_2539",
      "pitch": 54,
      "t_note_us": 191377621,
      "t_trigger_us": 191241658,
      "is_ai": false,
      "track_id": 0,
      "velocity": 0,
      "is_motor": true,
      "motor_id": 2,
      "accel_val": 2000,
      "base_duration_us": 1034470
    },
    {
      "id": "M_2544",
      "pitch": 78,
      "t_note_us": 191377621,
      "t_trigger_us": 191241658,
      "is_ai": false,
      "track_id": 0,
      "velocity": 0,
      "is_motor": true,
      "motor_id": 3,
      "accel_val": 2000,
      "base_duration_us": 1034470
    },
    {
      "id": "M_2545",
      "pitch": 74,
      "t_note_us": 191377621,
      "t_trigger_us": 191241658,
      "is_ai": false,
      "track_id": 0,
      "velocity": 0,
      "is_motor": true,
      "motor_id": 0,
      "accel_val": 2000,
      "base_duration_us": 1034470
    },
    {
      "id": "M_2530",
      "pitch": 95,
      "t_note_us": 191636236,
      "t_trigger_us": 191500273,
      "is_ai": true,
      "track_id": 9,
      "velocity": 0,
      "is_motor": false,
      "motor_id": 0,
      "accel_val": 2000,
      "base_duration_us": 258618
    },
    {
      "id": "M_2531",
      "pitch": 74,
      "t_note_us": 191636236,
      "t_trigger_us": 191500273,
      "is_ai": false,
      "track_id": 0,
      "velocity": 0,
      "is_motor": true,
      "motor_id": 0,
      "accel_val": 2000,
      "base_duration_us": 258618
    },
    {
      "id": "M_2532",
      "pitch": 71,
      "t_note_us": 191636236,
      "t_trigger_us": 191500273,
      "is_ai": false,
      "track_id": 0,
      "velocity": 0,
      "is_motor": true,
      "motor_id": 0,
      "accel_val": 2000,
      "base_duration_us": 258618
    },
    {
      "id": "M_2534",
      "pitch": 96,
      "t_note_us": 191894854,
      "t_trigger_us": 191758891,
      "is_ai": true,
      "track_id": 10,
      "velocity": 0,
      "is_motor": false,
      "motor_id": 0,
      "accel_val": 2000,
      "base_duration_us": 258619
    },
    {
      "id": "M_2535",
      "pitch": 79,
      "t_note_us": 191894854,
      "t_trigger_us": 191758891,
      "is_ai": true,
      "track_id": 0,
      "velocity": 0,
      "is_motor": false,
      "motor_id": 0,
      "accel_val": 2000,
      "base_duration_us": 258619
    },
    {
      "id": "M_2536",
      "pitch": 74,
      "t_note_us": 191894854,
      "t_trigger_us": 191758891,
      "is_ai": false,
      "track_id": 0,
      "velocity": 0,
      "is_motor": true,
      "motor_id": 0,
      "accel_val": 2000,
      "base_duration_us": 258619
    },
    {
      "id": "M_2548",
      "pitch": 56,
      "t_note_us": 191894854,
      "t_trigger_us": 191758891,
      "is_ai": false,
      "track_id": 0,
      "velocity": 0,
      "is_motor": true,
      "motor_id": 0,
      "accel_val": 2000,
      "base_duration_us": 517237
    },
    {
      "id": "M_2538",
      "pitch": 90,
      "t_note_us": 192153473,
      "t_trigger_us": 192017510,
      "is_ai": true,
      "track_id": 0,
      "velocity": 0,
      "is_motor": true,
      "motor_id": 1,
      "accel_val": 2000,
      "base_duration_us": 258618
    },
    {
      "id": "M_2551",
      "pitch": 95,
      "t_note_us": 192153473,
      "t_trigger_us": 192017510,
      "is_ai": true,
      "track_id": 9,
      "velocity": 0,
      "is_motor": false,
      "motor_id": 0,
      "accel_val": 2000,
      "base_duration_us": 775855
    },
    {
      "id": "M_2541",
      "pitch": 71,
      "t_note_us": 192153473,
      "t_trigger_us": 192017510,
      "is_ai": false,
      "track_id": 0,
      "velocity": 0,
      "is_motor": true,
      "motor_id": 0,
      "accel_val": 2000,
      "base_duration_us": 258618
    },
    {
      "id": "M_2547",
      "pitch": 50,
      "t_note_us": 192153473,
      "t_trigger_us": 192017510,
      "is_ai": false,
      "track_id": 0,
      "velocity": 0,
      "is_motor": true,
      "motor_id": 0,
      "accel_val": 2000,
      "base_duration_us": 258618
    },
    {
      "id": "M_2560",
      "pitch": 83,
      "t_note_us": 192412091,
      "t_trigger_us": 192276128,
      "is_ai": true,
      "track_id": 2,
      "velocity": 0,
      "is_motor": false,
      "motor_id": 0,
      "accel_val": 2000,
      "base_duration_us": 1034470
    },
    {
      "id": "M_2578",
      "pitch": 91,
      "t_note_us": 192412091,
      "t_trigger_us": 192276128,
      "is_ai": true,
      "track_id": 7,
      "velocity": 0,
      "is_motor": false,
      "motor_id": 0,
      "accel_val": 2000,
      "base_duration_us": 2068904
    },
    {
      "id": "M_2549",
      "pitch": 52,
      "t_note_us": 192412091,
      "t_trigger_us": 192276128,
      "is_ai": false,
      "track_id": 0,
      "velocity": 0,
      "is_motor": true,
      "motor_id": 0,
      "accel_val": 2000,
      "base_duration_us": 258618
    },
    {
      "id": "M_2550",
      "pitch": 64,
      "t_note_us": 192412091,
      "t_trigger_us": 192276128,
      "is_ai": false,
      "track_id": 0,
      "velocity": 0,
      "is_motor": true,
      "motor_id": 1,
      "accel_val": 2000,
      "base_duration_us": 258618
    },
    {
      "id": "M_2554",
      "pitch": 56,
      "t_note_us": 192412091,
      "t_trigger_us": 192276128,
      "is_ai": false,
      "track_id": 0,
      "velocity": 0,
      "is_motor": true,
      "motor_id": 2,
      "accel_val": 2000,
      "base_duration_us": 517237
    },
    {
      "id": "M_2558",
      "pitch": 76,
      "t_note_us": 192412091,
      "t_trigger_us": 192276128,
      "is_ai": false,
      "track_id": 0,
      "velocity": 0,
      "is_motor": true,
      "motor_id": 3,
      "accel_val": 2000,
      "base_duration_us": 1034470
    },
    {
      "id": "M_2559",
      "pitch": 67,
      "t_note_us": 192412091,
      "t_trigger_us": 192276128,
      "is_ai": false,
      "track_id": 0,
      "velocity": 0,
      "is_motor": true,
      "motor_id": 0,
      "accel_val": 2000,
      "base_duration_us": 1034470
    },
    {
      "id": "M_2563",
      "pitch": 50,
      "t_note_us": 192412091,
      "t_trigger_us": 192276128,
      "is_ai": false,
      "track_id": 0,
      "velocity": 0,
      "is_motor": true,
      "motor_id": 0,
      "accel_val": 2000,
      "base_duration_us": 1034470
    },
    {
      "id": "M_2571",
      "pitch": 52,
      "t_note_us": 192412091,
      "t_trigger_us": 192276128,
      "is_ai": false,
      "track_id": 0,
      "velocity": 0,
      "is_motor": true,
      "motor_id": 0,
      "accel_val": 2000,
      "base_duration_us": 1810299
    },
    {
      "id": "M_2580",
      "pitch": 76,
      "t_note_us": 192412091,
      "t_trigger_us": 192276128,
      "is_ai": false,
      "track_id": 0,
      "velocity": 0,
      "is_motor": true,
      "motor_id": 0,
      "accel_val": 2000,
      "base_duration_us": 2068904
    },
    {
      "id": "M_2581",
      "pitch": 64,
      "t_note_us": 192412091,
      "t_trigger_us": 192276128,
      "is_ai": false,
      "track_id": 0,
      "velocity": 0,
      "is_motor": true,
      "motor_id": 0,
      "accel_val": 2000,
      "base_duration_us": 2068904
    },
    {
      "id": "M_2582",
      "pitch": 71,
      "t_note_us": 192412091,
      "t_trigger_us": 192276128,
      "is_ai": false,
      "track_id": 0,
      "velocity": 0,
      "is_motor": true,
      "motor_id": 0,
      "accel_val": 2000,
      "base_duration_us": 2068904
    },
    {
      "id": "M_2583",
      "pitch": 76,
      "t_note_us": 192412091,
      "t_trigger_us": 192276128,
      "is_ai": false,
      "track_id": 0,
      "velocity": 0,
      "is_motor": true,
      "motor_id": 0,
      "accel_val": 2000,
      "base_duration_us": 2068904
    },
    {
      "id": "M_2584",
      "pitch": 67,
      "t_note_us": 192412091,
      "t_trigger_us": 192276128,
      "is_ai": false,
      "track_id": 0,
      "velocity": 0,
      "is_motor": true,
      "motor_id": 0,
      "accel_val": 2000,
      "base_duration_us": 2068904
    },
    {
      "id": "M_2552",
      "pitch": 59,
      "t_note_us": 192670709,
      "t_trigger_us": 192534746,
      "is_ai": false,
      "track_id": 0,
      "velocity": 0,
      "is_motor": true,
      "motor_id": 0,
      "accel_val": 2000,
      "base_duration_us": 258619
    },
    {
      "id": "M_2553",
      "pitch": 71,
      "t_note_us": 192670709,
      "t_trigger_us": 192534746,
      "is_ai": false,
      "track_id": 0,
      "velocity": 0,
      "is_motor": true,
      "motor_id": 1,
      "accel_val": 2000,
      "base_duration_us": 258619
    },
    {
      "id": "M_2555",
      "pitch": 93,
      "t_note_us": 192929328,
      "t_trigger_us": 192793365,
      "is_ai": true,
      "track_id": 8,
      "velocity": 0,
      "is_motor": false,
      "motor_id": 0,
      "accel_val": 2000,
      "base_duration_us": 258617
    },
    {
      "id": "M_2556",
      "pitch": 64,
      "t_note_us": 192929328,
      "t_trigger_us": 192793365,
      "is_ai": false,
      "track_id": 0,
      "velocity": 0,
      "is_motor": true,
      "motor_id": 1,
      "accel_val": 2000,
      "base_duration_us": 258617
    },
    {
      "id": "M_2557",
      "pitch": 76,
      "t_note_us": 192929328,
      "t_trigger_us": 192793365,
      "is_ai": false,
      "track_id": 0,
      "velocity": 0,
      "is_motor": true,
      "motor_id": 2,
      "accel_val": 2000,
      "base_duration_us": 258617
    },
    {
      "id": "M_2562",
      "pitch": 56,
      "t_note_us": 192929328,
      "t_trigger_us": 192793365,
      "is_ai": false,
      "track_id": 0,
      "velocity": 0,
      "is_motor": true,
      "motor_id": 0,
      "accel_val": 2000,
      "base_duration_us": 517233
    },
    {
      "id": "M_2564",
      "pitch": 91,
      "t_note_us": 193187945,
      "t_trigger_us": 193051982,
      "is_ai": true,
      "track_id": 7,
      "velocity": 0,
      "is_motor": false,
      "motor_id": 0,
      "accel_val": 2000,
      "base_duration_us": 517228
    },
    {
      "id": "M_2561",
      "pitch": 71,
      "t_note_us": 193187945,
      "t_trigger_us": 193051982,
      "is_ai": false,
      "track_id": 0,
      "velocity": 0,
      "is_motor": true,
      "motor_id": 1,
      "accel_val": 2000,
      "base_duration_us": 258616
    },
    {
      "id": "M_2565",
      "pitch": 67,
      "t_note_us": 193187945,
      "t_trigger_us": 193051982,
      "is_ai": false,
      "track_id": 0,
      "velocity": 0,
      "is_motor": true,
      "motor_id": 2,
      "accel_val": 2000,
      "base_duration_us": 517228
    },
    {
      "id": "M_2566",
      "pitch": 67,
      "t_note_us": 193446561,
      "t_trigger_us": 193310598,
      "is_ai": false,
      "track_id": 0,
      "velocity": 0,
      "is_motor": true,
      "motor_id": 1,
      "accel_val": 2000,
      "base_duration_us": 258612
    },
    {
      "id": "M_2569",
      "pitch": 56,
      "t_note_us": 193446561,
      "t_trigger_us": 193310598,
      "is_ai": false,
      "track_id": 0,
      "velocity": 0,
      "is_motor": true,
      "motor_id": 0,
      "accel_val": 2000,
      "base_duration_us": 517222
    },
    {
      "id": "M_2573",
      "pitch": 52,
      "t_note_us": 193446561,
      "t_trigger_us": 193310598,
      "is_ai": false,
      "track_id": 0,
      "velocity": 0,
      "is_motor": true,
      "motor_id": 3,
      "accel_val": 2000,
      "base_duration_us": 775829
    },
    {
      "id": "M_2575",
      "pitch": 93,
      "t_note_us": 193705173,
      "t_trigger_us": 193569210,
      "is_ai": true,
      "track_id": 8,
      "velocity": 0,
      "is_motor": false,
      "motor_id": 0,
      "accel_val": 2000,
      "base_duration_us": 775822
    },
    {
      "id": "M_2567",
      "pitch": 71,
      "t_note_us": 193705173,
      "t_trigger_us": 193569210,
      "is_ai": false,
      "track_id": 0,
      "velocity": 0,
      "is_motor": true,
      "motor_id": 1,
      "accel_val": 2000,
      "base_duration_us": 258610
    },
    {
      "id": "M_2568",
      "pitch": 71,
      "t_note_us": 193705173,
      "t_trigger_us": 193569210,
      "is_ai": false,
      "track_id": 0,
      "velocity": 0,
      "is_motor": true,
      "motor_id": 2,
      "accel_val": 2000,
      "base_duration_us": 258610
    },
    {
      "id": "M_2570",
      "pitch": 67,
      "t_note_us": 193963783,
      "t_trigger_us": 193827820,
      "is_ai": false,
      "track_id": 0,
      "velocity": 0,
      "is_motor": true,
      "motor_id": 1,
      "accel_val": 2000,
      "base_duration_us": 258607
    },
    {
      "id": "M_2572",
      "pitch": 76,
      "t_note_us": 193963783,
      "t_trigger_us": 193827820,
      "is_ai": false,
      "track_id": 0,
      "velocity": 0,
      "is_motor": true,
      "motor_id": 2,
      "accel_val": 2000,
      "base_duration_us": 258607
    },
    {
      "id": "M_2586",
      "pitch": 56,
      "t_note_us": 193963783,
      "t_trigger_us": 193827820,
      "is_ai": false,
      "track_id": 0,
      "velocity": 0,
      "is_motor": true,
      "motor_id": 0,
      "accel_val": 2000,
      "base_duration_us": 517212
    },
    {
      "id": "M_2576",
      "pitch": 64,
      "t_note_us": 194222390,
      "t_trigger_us": 194086427,
      "is_ai": false,
      "track_id": 0,
      "velocity": 0,
      "is_motor": true,
      "motor_id": 1,
      "accel_val": 2000,
      "base_duration_us": 258605
    },
    {
      "id": "M_2577",
      "pitch": 52,
      "t_note_us": 194222390,
      "t_trigger_us": 194086427,
      "is_ai": false,
      "track_id": 0,
      "velocity": 0,
      "is_motor": true,
      "motor_id": 2,
      "accel_val": 2000,
      "base_duration_us": 258605
    },
    {
      "id": "M_2579",
      "pitch": 71,
      "t_note_us": 194222390,
      "t_trigger_us": 194086427,
      "is_ai": false,
      "track_id": 0,
      "velocity": 0,
      "is_motor": true,
      "motor_id": 3,
      "accel_val": 2000,
      "base_duration_us": 258605
    },
    {
      "id": "M_2585",
      "pitch": 50,
      "t_note_us": 194222390,
      "t_trigger_us": 194086427,
      "is_ai": false,
      "track_id": 0,
      "velocity": 0,
      "is_motor": true,
      "motor_id": 0,
      "accel_val": 2000,
      "base_duration_us": 258605
    },
    {
      "id": "M_2589",
      "pitch": 90,
      "t_note_us": 194480995,
      "t_trigger_us": 194345032,
      "is_ai": true,
      "track_id": 0,
      "velocity": 0,
      "is_motor": true,
      "motor_id": 3,
      "accel_val": 2000,
      "base_duration_us": 517236
    },
    {
      "id": "M_2613",
      "pitch": 90,
      "t_note_us": 194480995,
      "t_trigger_us": 194345032,
      "is_ai": true,
      "track_id": 0,
      "velocity": 0,
      "is_motor": true,
      "motor_id": 2,
      "accel_val": 2000,
      "base_duration_us": 2068949
    },
    {
      "id": "M_2587",
      "pitch": 59,
      "t_note_us": 194480995,
      "t_trigger_us": 194345032,
      "is_ai": false,
      "track_id": 0,
      "velocity": 0,
      "is_motor": true,
      "motor_id": 0,
      "accel_val": 2000,
      "base_duration_us": 258616
    },
    {
      "id": "M_2588",
      "pitch": 59,
      "t_note_us": 194480995,
      "t_trigger_us": 194345032,
      "is_ai": false,
      "track_id": 0,
      "velocity": 0,
      "is_motor": true,
      "motor_id": 1,
      "accel_val": 2000,
      "base_duration_us": 258616
    },
    {
      "id": "M_2592",
      "pitch": 56,
      "t_note_us": 194480995,
      "t_trigger_us": 194345032,
      "is_ai": false,
      "track_id": 0,
      "velocity": 0,
      "is_motor": true,
      "motor_id": 0,
      "accel_val": 2000,
      "base_duration_us": 517236
    },
    {
      "id": "M_2597",
      "pitch": 78,
      "t_note_us": 194480995,
      "t_trigger_us": 194345032,
      "is_ai": false,
      "track_id": 0,
      "velocity": 0,
      "is_motor": true,
      "motor_id": 0,
      "accel_val": 2000,
      "base_duration_us": 1034473
    },
    {
      "id": "M_2600",
      "pitch": 50,
      "t_note_us": 194480995,
      "t_trigger_us": 194345032,
      "is_ai": false,
      "track_id": 0,
      "velocity": 0,
      "is_motor": true,
      "motor_id": 0,
      "accel_val": 2000,
      "base_duration_us": 1034473
    },
    {
      "id": "M_2607",
      "pitch": 47,
      "t_note_us": 194480995,
      "t_trigger_us": 194345032,
      "is_ai": false,
      "track_id": 0,
      "velocity": 0,
      "is_motor": true,
      "motor_id": 0,
      "accel_val": 2000,
      "base_duration_us": 1810330
    },
    {
      "id": "M_2615",
      "pitch": 71,
      "t_note_us": 194480995,
      "t_trigger_us": 194345032,
      "is_ai": false,
      "track_id": 0,
      "velocity": 0,
      "is_motor": true,
      "motor_id": 0,
      "accel_val": 2000,
      "base_duration_us": 2068949
    },
    {
      "id": "M_2616",
      "pitch": 59,
      "t_note_us": 194480995,
      "t_trigger_us": 194345032,
      "is_ai": false,
      "track_id": 0,
      "velocity": 0,
      "is_motor": true,
      "motor_id": 0,
      "accel_val": 2000,
      "base_duration_us": 2068949
    },
    {
      "id": "M_2617",
      "pitch": 71,
      "t_note_us": 194480995,
      "t_trigger_us": 194345032,
      "is_ai": false,
      "track_id": 0,
      "velocity": 0,
      "is_motor": true,
      "motor_id": 0,
      "accel_val": 2000,
      "base_duration_us": 2068949
    },
    {
      "id": "M_2618",
      "pitch": 78,
      "t_note_us": 194480995,
      "t_trigger_us": 194345032,
      "is_ai": false,
      "track_id": 0,
      "velocity": 0,
      "is_motor": true,
      "motor_id": 0,
      "accel_val": 2000,
      "base_duration_us": 2068949
    },
    {
      "id": "M_2619",
      "pitch": 74,
      "t_note_us": 194480995,
      "t_trigger_us": 194345032,
      "is_ai": false,
      "track_id": 0,
      "velocity": 0,
      "is_motor": true,
      "motor_id": 0,
      "accel_val": 2000,
      "base_duration_us": 2068949
    },
    {
      "id": "M_2590",
      "pitch": 66,
      "t_note_us": 194739611,
      "t_trigger_us": 194603648,
      "is_ai": false,
      "track_id": 0,
      "velocity": 0,
      "is_motor": true,
      "motor_id": 1,
      "accel_val": 2000,
      "base_duration_us": 258620
    },
    {
      "id": "M_2591",
      "pitch": 66,
      "t_note_us": 194739611,
      "t_trigger_us": 194603648,
      "is_ai": false,
      "track_id": 0,
      "velocity": 0,
      "is_motor": true,
      "motor_id": 0,
      "accel_val": 2000,
      "base_duration_us": 258620
    },
    {
      "id": "M_2593",
      "pitch": 88,
      "t_note_us": 194998231,
      "t_trigger_us": 194862268,
      "is_ai": true,
      "track_id": 5,
      "velocity": 0,
      "is_motor": false,
      "motor_id": 0,
      "accel_val": 2000,
      "base_duration_us": 258618
    },
    {
      "id": "M_2594",
      "pitch": 71,
      "t_note_us": 194998231,
      "t_trigger_us": 194862268,
      "is_ai": false,
      "track_id": 0,
      "velocity": 0,
      "is_motor": true,
      "motor_id": 1,
      "accel_val": 2000,
      "base_duration_us": 258618
    },
    {
      "id": "M_2595",
      "pitch": 71,
      "t_note_us": 194998231,
      "t_trigger_us": 194862268,
      "is_ai": false,
      "track_id": 0,
      "velocity": 0,
      "is_motor": true,
      "motor_id": 0,
      "accel_val": 2000,
      "base_duration_us": 258618
    },
    {
      "id": "M_2599",
      "pitch": 56,
      "t_note_us": 194998231,
      "t_trigger_us": 194862268,
      "is_ai": false,
      "track_id": 0,
      "velocity": 0,
      "is_motor": true,
      "motor_id": 3,
      "accel_val": 2000,
      "base_duration_us": 517237
    },
    {
      "id": "M_2605",
      "pitch": 86,
      "t_note_us": 195256849,
      "t_trigger_us": 195120886,
      "is_ai": true,
      "track_id": 4,
      "velocity": 0,
      "is_motor": false,
      "motor_id": 0,
      "accel_val": 2000,
      "base_duration_us": 1034476
    },
    {
      "id": "M_2596",
      "pitch": 74,
      "t_note_us": 195256849,
      "t_trigger_us": 195120886,
      "is_ai": false,
      "track_id": 0,
      "velocity": 0,
      "is_motor": true,
      "motor_id": 1,
      "accel_val": 2000,
      "base_duration_us": 258619
    },
    {
      "id": "M_2598",
      "pitch": 66,
      "t_note_us": 195256849,
      "t_trigger_us": 195120886,
      "is_ai": false,
      "track_id": 0,
      "velocity": 0,
      "is_motor": true,
      "motor_id": 0,
      "accel_val": 2000,
      "base_duration_us": 258619
    },
    {
      "id": "M_2601",
      "pitch": 74,
      "t_note_us": 195515468,
      "t_trigger_us": 195379505,
      "is_ai": false,
      "track_id": 0,
      "velocity": 0,
      "is_motor": true,
      "motor_id": 1,
      "accel_val": 2000,
      "base_duration_us": 258619
    },
    {
      "id": "M_2604",
      "pitch": 56,
      "t_note_us": 195515468,
      "t_trigger_us": 195379505,
      "is_ai": false,
      "track_id": 0,
      "velocity": 0,
      "is_motor": true,
      "motor_id": 0,
      "accel_val": 2000,
      "base_duration_us": 517238
    },
    {
      "id": "M_2609",
      "pitch": 52,
      "t_note_us": 195515468,
      "t_trigger_us": 195379505,
      "is_ai": false,
      "track_id": 0,
      "velocity": 0,
      "is_motor": true,
      "motor_id": 3,
      "accel_val": 2000,
      "base_duration_us": 775857
    },
    {
      "id": "M_2602",
      "pitch": 78,
      "t_note_us": 195774087,
      "t_trigger_us": 195638124,
      "is_ai": false,
      "track_id": 0,
      "velocity": 0,
      "is_motor": true,
      "motor_id": 1,
      "accel_val": 2000,
      "base_duration_us": 258619
    },
    {
      "id": "M_2603",
      "pitch": 66,
      "t_note_us": 195774087,
      "t_trigger_us": 195638124,
      "is_ai": false,
      "track_id": 0,
      "velocity": 0,
      "is_motor": true,
      "motor_id": 0,
      "accel_val": 2000,
      "base_duration_us": 258619
    },
    {
      "id": "M_2606",
      "pitch": 74,
      "t_note_us": 196032706,
      "t_trigger_us": 195896743,
      "is_ai": false,
      "track_id": 0,
      "velocity": 0,
      "is_motor": true,
      "motor_id": 1,
      "accel_val": 2000,
      "base_duration_us": 258619
    },
    {
      "id": "M_2608",
      "pitch": 71,
      "t_note_us": 196032706,
      "t_trigger_us": 195896743,
      "is_ai": false,
      "track_id": 0,
      "velocity": 0,
      "is_motor": true,
      "motor_id": 0,
      "accel_val": 2000,
      "base_duration_us": 258619
    },
    {
      "id": "M_2621",
      "pitch": 56,
      "t_note_us": 196032706,
      "t_trigger_us": 195896743,
      "is_ai": false,
      "track_id": 0,
      "velocity": 0,
      "is_motor": true,
      "motor_id": 0,
      "accel_val": 2000,
      "base_duration_us": 517238
    },
    {
      "id": "M_2610",
      "pitch": 86,
      "t_note_us": 196291325,
      "t_trigger_us": 196155362,
      "is_ai": true,
      "track_id": 4,
      "velocity": 0,
      "is_motor": false,
      "motor_id": 0,
      "accel_val": 2000,
      "base_duration_us": 258619
    },
    {
      "id": "M_2611",
      "pitch": 71,
      "t_note_us": 196291325,
      "t_trigger_us": 196155362,
      "is_ai": false,
      "track_id": 0,
      "velocity": 0,
      "is_motor": true,
      "motor_id": 1,
      "accel_val": 2000,
      "base_duration_us": 258619
    },
    {
      "id": "M_2612",
      "pitch": 47,
      "t_note_us": 196291325,
      "t_trigger_us": 196155362,
      "is_ai": false,
      "track_id": 0,
      "velocity": 0,
      "is_motor": true,
      "motor_id": 0,
      "accel_val": 2000,
      "base_duration_us": 258619
    },
    {
      "id": "M_2614",
      "pitch": 66,
      "t_note_us": 196291325,
      "t_trigger_us": 196155362,
      "is_ai": false,
      "track_id": 0,
      "velocity": 0,
      "is_motor": true,
      "motor_id": 3,
      "accel_val": 2000,
      "base_duration_us": 258619
    },
    {
      "id": "M_2620",
      "pitch": 50,
      "t_note_us": 196291325,
      "t_trigger_us": 196155362,
      "is_ai": false,
      "track_id": 0,
      "velocity": 0,
      "is_motor": true,
      "motor_id": 0,
      "accel_val": 2000,
      "base_duration_us": 258619
    },
    {
      "id": "M_2624",
      "pitch": 88,
      "t_note_us": 196549944,
      "t_trigger_us": 196413981,
      "is_ai": true,
      "track_id": 5,
      "velocity": 0,
      "is_motor": false,
      "motor_id": 0,
      "accel_val": 2000,
      "base_duration_us": 344825
    },
    {
      "id": "M_2649",
      "pitch": 88,
      "t_note_us": 196549944,
      "t_trigger_us": 196413981,
      "is_ai": true,
      "track_id": 5,
      "velocity": 0,
      "is_motor": false,
      "motor_id": 0,
      "accel_val": 2000,
      "base_duration_us": 2068946
    },
    {
      "id": "M_2622",
      "pitch": 60,
      "t_note_us": 196549944,
      "t_trigger_us": 196413981,
      "is_ai": false,
      "track_id": 0,
      "velocity": 0,
      "is_motor": true,
      "motor_id": 1,
      "accel_val": 2000,
      "base_duration_us": 258619
    },
    {
      "id": "M_2623",
      "pitch": 60,
      "t_note_us": 196549944,
      "t_trigger_us": 196413981,
      "is_ai": false,
      "track_id": 0,
      "velocity": 0,
      "is_motor": true,
      "motor_id": 0,
      "accel_val": 2000,
      "base_duration_us": 258619
    },
    {
      "id": "M_2627",
      "pitch": 56,
      "t_note_us": 196549944,
      "t_trigger_us": 196413981,
      "is_ai": false,
      "track_id": 0,
      "velocity": 0,
      "is_motor": true,
      "motor_id": 2,
      "accel_val": 2000,
      "base_duration_us": 517238
    },
    {
      "id": "M_2632",
      "pitch": 67,
      "t_note_us": 196549944,
      "t_trigger_us": 196413981,
      "is_ai": false,
      "track_id": 0,
      "velocity": 0,
      "is_motor": true,
      "motor_id": 3,
      "accel_val": 2000,
      "base_duration_us": 1034474
    },
    {
      "id": "M_2636",
      "pitch": 50,
      "t_note_us": 196549944,
      "t_trigger_us": 196413981,
      "is_ai": false,
      "track_id": 0,
      "velocity": 0,
      "is_motor": true,
      "motor_id": 0,
      "accel_val": 2000,
      "base_duration_us": 1034474
    },
    {
      "id": "M_2640",
      "pitch": 48,
      "t_note_us": 196549944,
      "t_trigger_us": 196413981,
      "is_ai": false,
      "track_id": 0,
      "velocity": 0,
      "is_motor": true,
      "motor_id": 0,
      "accel_val": 2000,
      "base_duration_us": 1551712
    },
    {
      "id": "M_2651",
      "pitch": 72,
      "t_note_us": 196549944,
      "t_trigger_us": 196413981,
      "is_ai": false,
      "track_id": 0,
      "velocity": 0,
      "is_motor": true,
      "motor_id": 0,
      "accel_val": 2000,
      "base_duration_us": 2068946
    },
    {
      "id": "M_2652",
      "pitch": 60,
      "t_note_us": 196549944,
      "t_trigger_us": 196413981,
      "is_ai": false,
      "track_id": 0,
      "velocity": 0,
      "is_motor": true,
      "motor_id": 0,
      "accel_val": 2000,
      "base_duration_us": 2068946
    },
    {
      "id": "M_2653",
      "pitch": 76,
      "t_note_us": 196549944,
      "t_trigger_us": 196413981,
      "is_ai": false,
      "track_id": 0,
      "velocity": 0,
      "is_motor": true,
      "motor_id": 0,
      "accel_val": 2000,
      "base_duration_us": 2068946
    },
    {
      "id": "M_2654",
      "pitch": 67,
      "t_note_us": 196549944,
      "t_trigger_us": 196413981,
      "is_ai": false,
      "track_id": 0,
      "velocity": 0,
      "is_motor": true,
      "motor_id": 0,
      "accel_val": 2000,
      "base_duration_us": 2068946
    },
    {
      "id": "M_2655",
      "pitch": 72,
      "t_note_us": 196549944,
      "t_trigger_us": 196413981,
      "is_ai": false,
      "track_id": 0,
      "velocity": 0,
      "is_motor": true,
      "motor_id": 0,
      "accel_val": 2000,
      "base_duration_us": 2068946
    },
    {
      "id": "M_2625",
      "pitch": 67,
      "t_note_us": 196808563,
      "t_trigger_us": 196672600,
      "is_ai": false,
      "track_id": 0,
      "velocity": 0,
      "is_motor": true,
      "motor_id": 1,
      "accel_val": 2000,
      "base_duration_us": 258619
    },
    {
      "id": "M_2626",
      "pitch": 67,
      "t_note_us": 196808563,
      "t_trigger_us": 196672600,
      "is_ai": false,
      "track_id": 0,
      "velocity": 0,
      "is_motor": true,
      "motor_id": 0,
      "accel_val": 2000,
      "base_duration_us": 258619
    },
    {
      "id": "M_2628",
      "pitch": 91,
      "t_note_us": 196894769,
      "t_trigger_us": 196758806,
      "is_ai": true,
      "track_id": 7,
      "velocity": 0,
      "is_motor": false,
      "motor_id": 0,
      "accel_val": 2000,
      "base_duration_us": 344825
    },
    {
      "id": "M_2629",
      "pitch": 72,
      "t_note_us": 197067182,
      "t_trigger_us": 196931219,
      "is_ai": false,
      "track_id": 0,
      "velocity": 0,
      "is_motor": true,
      "motor_id": 1,
      "accel_val": 2000,
      "base_duration_us": 258617
    },
    {
      "id": "M_2630",
      "pitch": 72,
      "t_note_us": 197067182,
      "t_trigger_us": 196931219,
      "is_ai": false,
      "track_id": 0,
      "velocity": 0,
      "is_motor": true,
      "motor_id": 0,
      "accel_val": 2000,
      "base_duration_us": 258617
    },
    {
      "id": "M_2635",
      "pitch": 56,
      "t_note_us": 197067182,
      "t_trigger_us": 196931219,
      "is_ai": false,
      "track_id": 0,
      "velocity": 0,
      "is_motor": true,
      "motor_id": 2,
      "accel_val": 2000,
      "base_duration_us": 517236
    },
    {
      "id": "M_2631",
      "pitch": 91,
      "t_note_us": 197239594,
      "t_trigger_us": 197103631,
      "is_ai": true,
      "track_id": 7,
      "velocity": 0,
      "is_motor": false,
      "motor_id": 0,
      "accel_val": 2000,
      "base_duration_us": 344824
    },
    {
      "id": "M_2633",
      "pitch": 76,
      "t_note_us": 197325799,
      "t_trigger_us": 197189836,
      "is_ai": false,
      "track_id": 0,
      "velocity": 0,
      "is_motor": true,
      "motor_id": 1,
      "accel_val": 2000,
      "base_duration_us": 258619
    },
    {
      "id": "M_2634",
      "pitch": 67,
      "t_note_us": 197325799,
      "t_trigger_us": 197189836,
      "is_ai": false,
      "track_id": 0,
      "velocity": 0,
      "is_motor": true,
      "motor_id": 0,
      "accel_val": 2000,
      "base_duration_us": 258619
    },
    {
      "id": "M_2637",
      "pitch": 91,
      "t_note_us": 197584418,
      "t_trigger_us": 197448455,
      "is_ai": true,
      "track_id": 7,
      "velocity": 0,
      "is_motor": false,
      "motor_id": 0,
      "accel_val": 2000,
      "base_duration_us": 258619
    },
    {
      "id": "M_2638",
      "pitch": 76,
      "t_note_us": 197584418,
      "t_trigger_us": 197448455,
      "is_ai": false,
      "track_id": 0,
      "velocity": 0,
      "is_motor": true,
      "motor_id": 2,
      "accel_val": 2000,
      "base_duration_us": 258619
    },
    {
      "id": "M_2642",
      "pitch": 56,
      "t_note_us": 197584418,
      "t_trigger_us": 197448455,
      "is_ai": false,
      "track_id": 0,
      "velocity": 0,
      "is_motor": true,
      "motor_id": 0,
      "accel_val": 2000,
      "base_duration_us": 517238
    },
    {
      "id": "M_2646",
      "pitch": 52,
      "t_note_us": 197584418,
      "t_trigger_us": 197448455,
      "is_ai": false,
      "track_id": 0,
      "velocity": 0,
      "is_motor": true,
      "motor_id": 1,
      "accel_val": 2000,
      "base_duration_us": 775855
    },
    {
      "id": "M_2643",
      "pitch": 95,
      "t_note_us": 197843037,
      "t_trigger_us": 197707074,
      "is_ai": true,
      "track_id": 9,
      "velocity": 0,
      "is_motor": false,
      "motor_id": 0,
      "accel_val": 2000,
      "base_duration_us": 517236
    },
    {
      "id": "M_2639",
      "pitch": 67,
      "t_note_us": 197843037,
      "t_trigger_us": 197707074,
      "is_ai": false,
      "track_id": 0,
      "velocity": 0,
      "is_motor": true,
      "motor_id": 2,
      "accel_val": 2000,
      "base_duration_us": 258619
    },
    {
      "id": "M_2641",
      "pitch": 67,
      "t_note_us": 197843037,
      "t_trigger_us": 197707074,
      "is_ai": false,
      "track_id": 0,
      "velocity": 0,
      "is_motor": true,
      "motor_id": 3,
      "accel_val": 2000,
      "base_duration_us": 258619
    },
    {
      "id": "M_2644",
      "pitch": 76,
      "t_note_us": 198101656,
      "t_trigger_us": 197965693,
      "is_ai": false,
      "track_id": 0,
      "velocity": 0,
      "is_motor": true,
      "motor_id": 2,
      "accel_val": 2000,
      "base_duration_us": 258617
    },
    {
      "id": "M_2645",
      "pitch": 72,
      "t_note_us": 198101656,
      "t_trigger_us": 197965693,
      "is_ai": false,
      "track_id": 0,
      "velocity": 0,
      "is_motor": true,
      "motor_id": 0,
      "accel_val": 2000,
      "base_duration_us": 258617
    },
    {
      "id": "M_2657",
      "pitch": 56,
      "t_note_us": 198101656,
      "t_trigger_us": 197965693,
      "is_ai": false,
      "track_id": 0,
      "velocity": 0,
      "is_motor": true,
      "motor_id": 3,
      "accel_val": 2000,
      "base_duration_us": 517234
    },
    {
      "id": "M_2684",
      "pitch": 93,
      "t_note_us": 198360273,
      "t_trigger_us": 198224310,
      "is_ai": true,
      "track_id": 8,
      "velocity": 0,
      "is_motor": false,
      "motor_id": 0,
      "accel_val": 2000,
      "base_duration_us": 2327564
    },
    {
      "id": "M_2647",
      "pitch": 72,
      "t_note_us": 198360273,
      "t_trigger_us": 198224310,
      "is_ai": false,
      "track_id": 0,
      "velocity": 0,
      "is_motor": true,
      "motor_id": 1,
      "accel_val": 2000,
      "base_duration_us": 258617
    },
    {
      "id": "M_2648",
      "pitch": 48,
      "t_note_us": 198360273,
      "t_trigger_us": 198224310,
      "is_ai": false,
      "track_id": 0,
      "velocity": 0,
      "is_motor": true,
      "motor_id": 0,
      "accel_val": 2000,
      "base_duration_us": 258617
    },
    {
      "id": "M_2650",
      "pitch": 67,
      "t_note_us": 198360273,
      "t_trigger_us": 198224310,
      "is_ai": false,
      "track_id": 0,
      "velocity": 0,
      "is_motor": true,
      "motor_id": 2,
      "accel_val": 2000,
      "base_duration_us": 258617
    },
    {
      "id": "M_2656",
      "pitch": 50,
      "t_note_us": 198360273,
      "t_trigger_us": 198224310,
      "is_ai": false,
      "track_id": 0,
      "velocity": 0,
      "is_motor": true,
      "motor_id": 0,
      "accel_val": 2000,
      "base_duration_us": 258617
    },
    {
      "id": "M_2688",
      "pitch": 90,
      "t_note_us": 198618890,
      "t_trigger_us": 198482927,
      "is_ai": true,
      "track_id": 0,
      "velocity": 0,
      "is_motor": true,
      "motor_id": 3,
      "accel_val": 2000,
      "base_duration_us": 2068947
    },
    {
      "id": "M_2658",
      "pitch": 62,
      "t_note_us": 198618890,
      "t_trigger_us": 198482927,
      "is_ai": false,
      "track_id": 0,
      "velocity": 0,
      "is_motor": true,
      "motor_id": 1,
      "accel_val": 2000,
      "base_duration_us": 258618
    },
    {
      "id": "M_2662",
      "pitch": 56,
      "t_note_us": 198618890,
      "t_trigger_us": 198482927,
      "is_ai": false,
      "track_id": 0,
      "velocity": 0,
      "is_motor": true,
      "motor_id": 0,
      "accel_val": 2000,
      "base_duration_us": 517237
    },
    {
      "id": "M_2667",
      "pitch": 50,
      "t_note_us": 198618890,
      "t_trigger_us": 198482927,
      "is_ai": false,
      "track_id": 0,
      "velocity": 0,
      "is_motor": true,
      "motor_id": 2,
      "accel_val": 2000,
      "base_duration_us": 1034474
    },
    {
      "id": "M_2669",
      "pitch": 50,
      "t_note_us": 198618890,
      "t_trigger_us": 198482927,
      "is_ai": false,
      "track_id": 0,
      "velocity": 0,
      "is_motor": true,
      "motor_id": 0,
      "accel_val": 2000,
      "base_duration_us": 1034474
    },
    {
      "id": "M_2672",
      "pitch": 50,
      "t_note_us": 198618890,
      "t_trigger_us": 198482927,
      "is_ai": false,
      "track_id": 0,
      "velocity": 0,
      "is_motor": true,
      "motor_id": 0,
      "accel_val": 2000,
      "base_duration_us": 1034474
    },
    {
      "id": "M_2690",
      "pitch": 74,
      "t_note_us": 198618890,
      "t_trigger_us": 198482927,
      "is_ai": false,
      "track_id": 0,
      "velocity": 0,
      "is_motor": true,
      "motor_id": 0,
      "accel_val": 2000,
      "base_duration_us": 2068947
    },
    {
      "id": "M_2691",
      "pitch": 62,
      "t_note_us": 198618890,
      "t_trigger_us": 198482927,
      "is_ai": false,
      "track_id": 0,
      "velocity": 0,
      "is_motor": true,
      "motor_id": 0,
      "accel_val": 2000,
      "base_duration_us": 2068947
    },
    {
      "id": "M_2692",
      "pitch": 74,
      "t_note_us": 198618890,
      "t_trigger_us": 198482927,
      "is_ai": false,
      "track_id": 0,
      "velocity": 0,
      "is_motor": true,
      "motor_id": 0,
      "accel_val": 2000,
      "base_duration_us": 2068947
    },
    {
      "id": "M_2693",
      "pitch": 78,
      "t_note_us": 198618890,
      "t_trigger_us": 198482927,
      "is_ai": false,
      "track_id": 0,
      "velocity": 0,
      "is_motor": true,
      "motor_id": 0,
      "accel_val": 2000,
      "base_duration_us": 2068947
    },
    {
      "id": "M_2694",
      "pitch": 69,
      "t_note_us": 198618890,
      "t_trigger_us": 198482927,
      "is_ai": false,
      "track_id": 0,
      "velocity": 0,
      "is_motor": true,
      "motor_id": 0,
      "accel_val": 2000,
      "base_duration_us": 2068947
    },
    {
      "id": "M_2659",
      "pitch": 86,
      "t_note_us": 198877508,
      "t_trigger_us": 198741545,
      "is_ai": true,
      "track_id": 4,
      "velocity": 0,
      "is_motor": false,
      "motor_id": 0,
      "accel_val": 2000,
      "base_duration_us": 258619
    },
    {
      "id": "M_2660",
      "pitch": 62,
      "t_note_us": 198877508,
      "t_trigger_us": 198741545,
      "is_ai": false,
      "track_id": 0,
      "velocity": 0,
      "is_motor": true,
      "motor_id": 1,
      "accel_val": 2000,
      "base_duration_us": 258619
    },
    {
      "id": "M_2661",
      "pitch": 69,
      "t_note_us": 198877508,
      "t_trigger_us": 198741545,
      "is_ai": false,
      "track_id": 0,
      "velocity": 0,
      "is_motor": true,
      "motor_id": 0,
      "accel_val": 2000,
      "base_duration_us": 258619
    },
    {
      "id": "M_2663",
      "pitch": 88,
      "t_note_us": 199136127,
      "t_trigger_us": 199000164,
      "is_ai": true,
      "track_id": 5,
      "velocity": 0,
      "is_motor": false,
      "motor_id": 0,
      "accel_val": 2000,
      "base_duration_us": 258618
    },
    {
      "id": "M_2664",
      "pitch": 76,
      "t_note_us": 199136127,
      "t_trigger_us": 199000164,
      "is_ai": false,
      "track_id": 0,
      "velocity": 0,
      "is_motor": true,
      "motor_id": 1,
      "accel_val": 2000,
      "base_duration_us": 258618
    },
    {
      "id": "M_2665",
      "pitch": 74,
      "t_note_us": 199136127,
      "t_trigger_us": 199000164,
      "is_ai": false,
      "track_id": 0,
      "velocity": 0,
      "is_motor": true,
      "motor_id": 0,
      "accel_val": 2000,
      "base_duration_us": 258618
    },
    {
      "id": "M_2671",
      "pitch": 56,
      "t_note_us": 199136127,
      "t_trigger_us": 199000164,
      "is_ai": false,
      "track_id": 0,
      "velocity": 0,
      "is_motor": true,
      "motor_id": 0,
      "accel_val": 2000,
      "base_duration_us": 517237
    },
    {
      "id": "M_2668",
      "pitch": 90,
      "t_note_us": 199394745,
      "t_trigger_us": 199258782,
      "is_ai": true,
      "track_id": 0,
      "velocity": 0,
      "is_motor": true,
      "motor_id": 1,
      "accel_val": 2000,
      "base_duration_us": 258619
    },
    {
      "id": "M_2666",
      "pitch": 78,
      "t_note_us": 199394745,
      "t_trigger_us": 199258782,
      "is_ai": false,
      "track_id": 0,
      "velocity": 0,
      "is_motor": true,
      "motor_id": 0,
      "accel_val": 2000,
      "base_duration_us": 258619
    },
    {
      "id": "M_2670",
      "pitch": 69,
      "t_note_us": 199394745,
      "t_trigger_us": 199258782,
      "is_ai": false,
      "track_id": 0,
      "velocity": 0,
      "is_motor": true,
      "motor_id": 0,
      "accel_val": 2000,
      "base_duration_us": 258619
    },
    {
      "id": "M_2674",
      "pitch": 91,
      "t_note_us": 199653364,
      "t_trigger_us": 199517401,
      "is_ai": true,
      "track_id": 7,
      "velocity": 0,
      "is_motor": false,
      "motor_id": 0,
      "accel_val": 2000,
      "base_duration_us": 258618
    },
    {
      "id": "M_2673",
      "pitch": 67,
      "t_note_us": 199653364,
      "t_trigger_us": 199517401,
      "is_ai": false,
      "track_id": 0,
      "velocity": 0,
      "is_motor": true,
      "motor_id": 1,
      "accel_val": 2000,
      "base_duration_us": 258618
    },
    {
      "id": "M_2675",
      "pitch": 78,
      "t_note_us": 199653364,
      "t_trigger_us": 199517401,
      "is_ai": false,
      "track_id": 0,
      "velocity": 0,
      "is_motor": true,
      "motor_id": 2,
      "accel_val": 2000,
      "base_duration_us": 258618
    },
    {
      "id": "M_2679",
      "pitch": 56,
      "t_note_us": 199653364,
      "t_trigger_us": 199517401,
      "is_ai": false,
      "track_id": 0,
      "velocity": 0,
      "is_motor": true,
      "motor_id": 0,
      "accel_val": 2000,
      "base_duration_us": 517237
    },
    {
      "id": "M_2683",
      "pitch": 52,
      "t_note_us": 199653364,
      "t_trigger_us": 199517401,
      "is_ai": false,
      "track_id": 0,
      "velocity": 0,
      "is_motor": true,
      "motor_id": 0,
      "accel_val": 2000,
      "base_duration_us": 775856
    },
    {
      "id": "M_2687",
      "pitch": 50,
      "t_note_us": 199653364,
      "t_trigger_us": 199517401,
      "is_ai": false,
      "track_id": 0,
      "velocity": 0,
      "is_motor": true,
      "motor_id": 0,
      "accel_val": 2000,
      "base_duration_us": 1034473
    },
    {
      "id": "M_2676",
      "pitch": 93,
      "t_note_us": 199911982,
      "t_trigger_us": 199776019,
      "is_ai": true,
      "track_id": 8,
      "velocity": 0,
      "is_motor": false,
      "motor_id": 0,
      "accel_val": 2000,
      "base_duration_us": 258619
    },
    {
      "id": "M_2677",
      "pitch": 81,
      "t_note_us": 199911982,
      "t_trigger_us": 199776019,
      "is_ai": true,
      "track_id": 1,
      "velocity": 0,
      "is_motor": false,
      "motor_id": 0,
      "accel_val": 2000,
      "base_duration_us": 258619
    },
    {
      "id": "M_2678",
      "pitch": 69,
      "t_note_us": 199911982,
      "t_trigger_us": 199776019,
      "is_ai": false,
      "track_id": 0,
      "velocity": 0,
      "is_motor": true,
      "motor_id": 1,
      "accel_val": 2000,
      "base_duration_us": 258619
    },
    {
      "id": "M_2680",
      "pitch": 83,
      "t_note_us": 200170601,
      "t_trigger_us": 200034638,
      "is_ai": true,
      "track_id": 2,
      "velocity": 0,
      "is_motor": false,
      "motor_id": 0,
      "accel_val": 2000,
      "base_duration_us": 258619
    },
    {
      "id": "M_2681",
      "pitch": 95,
      "t_note_us": 200170601,
      "t_trigger_us": 200034638,
      "is_ai": true,
      "track_id": 9,
      "velocity": 0,
      "is_motor": false,
      "motor_id": 0,
      "accel_val": 2000,
      "base_duration_us": 258619
    },
    {
      "id": "M_2682",
      "pitch": 74,
      "t_note_us": 200170601,
      "t_trigger_us": 200034638,
      "is_ai": false,
      "track_id": 0,
      "velocity": 0,
      "is_motor": true,
      "motor_id": 1,
      "accel_val": 2000,
      "base_duration_us": 258619
    },
    {
      "id": "M_2696",
      "pitch": 56,
      "t_note_us": 200170601,
      "t_trigger_us": 200034638,
      "is_ai": false,
      "track_id": 0,
      "velocity": 0,
      "is_motor": true,
      "motor_id": 0,
      "accel_val": 2000,
      "base_duration_us": 517236
    },
    {
      "id": "M_2685",
      "pitch": 84,
      "t_note_us": 200429220,
      "t_trigger_us": 200293257,
      "is_ai": true,
      "track_id": 3,
      "velocity": 0,
      "is_motor": false,
      "motor_id": 0,
      "accel_val": 2000,
      "base_duration_us": 258617
    },
    {
      "id": "M_2686",
      "pitch": 96,
      "t_note_us": 200429220,
      "t_trigger_us": 200293257,
      "is_ai": true,
      "track_id": 10,
      "velocity": 0,
      "is_motor": false,
      "motor_id": 0,
      "accel_val": 2000,
      "base_duration_us": 258617
    },
    {
      "id": "M_2689",
      "pitch": 69,
      "t_note_us": 200429220,
      "t_trigger_us": 200293257,
      "is_ai": false,
      "track_id": 0,
      "velocity": 0,
      "is_motor": true,
      "motor_id": 1,
      "accel_val": 2000,
      "base_duration_us": 258617
    },
    {
      "id": "M_2695",
      "pitch": 50,
      "t_note_us": 200429220,
      "t_trigger_us": 200293257,
      "is_ai": false,
      "track_id": 0,
      "velocity": 0,
      "is_motor": true,
      "motor_id": 2,
      "accel_val": 2000,
      "base_duration_us": 258617
    },
    {
      "id": "M_2699",
      "pitch": 83,
      "t_note_us": 200687837,
      "t_trigger_us": 200551874,
      "is_ai": true,
      "track_id": 2,
      "velocity": 0,
      "is_motor": false,
      "motor_id": 0,
      "accel_val": 2000,
      "base_duration_us": 517236
    },
    {
      "id": "M_2713",
      "pitch": 86,
      "t_note_us": 200687837,
      "t_trigger_us": 200551874,
      "is_ai": true,
      "track_id": 4,
      "velocity": 0,
      "is_motor": false,
      "motor_id": 0,
      "accel_val": 2000,
      "base_duration_us": 1551711
    },
    {
      "id": "M_2723",
      "pitch": 86,
      "t_note_us": 200687837,
      "t_trigger_us": 200551874,
      "is_ai": true,
      "track_id": 4,
      "velocity": 0,
      "is_motor": false,
      "motor_id": 0,
      "accel_val": 2000,
      "base_duration_us": 2068946
    },
    {
      "id": "M_2724",
      "pitch": 98,
      "t_note_us": 200687837,
      "t_trigger_us": 200551874,
      "is_ai": true,
      "track_id": 11,
      "velocity": 0,
      "is_motor": false,
      "motor_id": 0,
      "accel_val": 2000,
      "base_duration_us": 2068946
    },
    {
      "id": "M_2697",
      "pitch": 55,
      "t_note_us": 200687837,
      "t_trigger_us": 200551874,
      "is_ai": false,
      "track_id": 0,
      "velocity": 0,
      "is_motor": true,
      "motor_id": 0,
      "accel_val": 2000,
      "base_duration_us": 258619
    },
    {
      "id": "M_2698",
      "pitch": 67,
      "t_note_us": 200687837,
      "t_trigger_us": 200551874,
      "is_ai": false,
      "track_id": 0,
      "velocity": 0,
      "is_motor": true,
      "motor_id": 1,
      "accel_val": 2000,
      "base_duration_us": 258619
    },
    {
      "id": "M_2707",
      "pitch": 50,
      "t_note_us": 200687837,
      "t_trigger_us": 200551874,
      "is_ai": false,
      "track_id": 0,
      "velocity": 0,
      "is_motor": true,
      "motor_id": 2,
      "accel_val": 2000,
      "base_duration_us": 1034474
    },
    {
      "id": "M_2708",
      "pitch": 63,
      "t_note_us": 200687837,
      "t_trigger_us": 200551874,
      "is_ai": false,
      "track_id": 0,
      "velocity": 0,
      "is_motor": true,
      "motor_id": 3,
      "accel_val": 2000,
      "base_duration_us": 1034474
    },
    {
      "id": "M_2718",
      "pitch": 43,
      "t_note_us": 200687837,
      "t_trigger_us": 200551874,
      "is_ai": false,
      "track_id": 0,
      "velocity": 0,
      "is_motor": true,
      "motor_id": 0,
      "accel_val": 2000,
      "base_duration_us": 1810329
    },
    {
      "id": "M_2727",
      "pitch": 67,
      "t_note_us": 200687837,
      "t_trigger_us": 200551874,
      "is_ai": false,
      "track_id": 0,
      "velocity": 0,
      "is_motor": true,
      "motor_id": 0,
      "accel_val": 2000,
      "base_duration_us": 2068946
    },
    {
      "id": "M_2728",
      "pitch": 55,
      "t_note_us": 200687837,
      "t_trigger_us": 200551874,
      "is_ai": false,
      "track_id": 0,
      "velocity": 0,
      "is_motor": true,
      "motor_id": 0,
      "accel_val": 2000,
      "base_duration_us": 2068946
    },
    {
      "id": "M_2729",
      "pitch": 71,
      "t_note_us": 200687837,
      "t_trigger_us": 200551874,
      "is_ai": false,
      "track_id": 0,
      "velocity": 0,
      "is_motor": true,
      "motor_id": 0,
      "accel_val": 2000,
      "base_duration_us": 2068946
    },
    {
      "id": "M_2730",
      "pitch": 67,
      "t_note_us": 200687837,
      "t_trigger_us": 200551874,
      "is_ai": false,
      "track_id": 0,
      "velocity": 0,
      "is_motor": true,
      "motor_id": 0,
      "accel_val": 2000,
      "base_duration_us": 2068946
    },
    {
      "id": "M_2731",
      "pitch": 74,
      "t_note_us": 200687837,
      "t_trigger_us": 200551874,
      "is_ai": false,
      "track_id": 0,
      "velocity": 0,
      "is_motor": true,
      "motor_id": 0,
      "accel_val": 2000,
      "base_duration_us": 2068946
    },
    {
      "id": "M_2700",
      "pitch": 67,
      "t_note_us": 200946456,
      "t_trigger_us": 200810493,
      "is_ai": false,
      "track_id": 0,
      "velocity": 0,
      "is_motor": true,
      "motor_id": 1,
      "accel_val": 2000,
      "base_duration_us": 258617
    },
    {
      "id": "M_2701",
      "pitch": 71,
      "t_note_us": 200946456,
      "t_trigger_us": 200810493,
      "is_ai": false,
      "track_id": 0,
      "velocity": 0,
      "is_motor": true,
      "motor_id": 0,
      "accel_val": 2000,
      "base_duration_us": 258617
    },
    {
      "id": "M_2702",
      "pitch": 86,
      "t_note_us": 201205073,
      "t_trigger_us": 201069110,
      "is_ai": true,
      "track_id": 4,
      "velocity": 0,
      "is_motor": false,
      "motor_id": 0,
      "accel_val": 2000,
      "base_duration_us": 258619
    },
    {
      "id": "M_2703",
      "pitch": 71,
      "t_note_us": 201205073,
      "t_trigger_us": 201069110,
      "is_ai": false,
      "track_id": 0,
      "velocity": 0,
      "is_motor": true,
      "motor_id": 1,
      "accel_val": 2000,
      "base_duration_us": 258619
    },
    {
      "id": "M_2704",
      "pitch": 74,
      "t_note_us": 201205073,
      "t_trigger_us": 201069110,
      "is_ai": false,
      "track_id": 0,
      "velocity": 0,
      "is_motor": true,
      "motor_id": 0,
      "accel_val": 2000,
      "base_duration_us": 258619
    },
    {
      "id": "M_2706",
      "pitch": 56,
      "t_note_us": 201205073,
      "t_trigger_us": 201069110,
      "is_ai": false,
      "track_id": 0,
      "velocity": 0,
      "is_motor": true,
      "motor_id": 0,
      "accel_val": 2000,
      "base_duration_us": 517238
    },
    {
      "id": "M_2711",
      "pitch": 91,
      "t_note_us": 201463692,
      "t_trigger_us": 201327729,
      "is_ai": true,
      "track_id": 7,
      "velocity": 0,
      "is_motor": false,
      "motor_id": 0,
      "accel_val": 2000,
      "base_duration_us": 775856
    },
    {
      "id": "M_2705",
      "pitch": 71,
      "t_note_us": 201463692,
      "t_trigger_us": 201327729,
      "is_ai": false,
      "track_id": 0,
      "velocity": 0,
      "is_motor": true,
      "motor_id": 1,
      "accel_val": 2000,
      "base_duration_us": 258619
    },
    {
      "id": "M_2709",
      "pitch": 74,
      "t_note_us": 201463692,
      "t_trigger_us": 201327729,
      "is_ai": false,
      "track_id": 0,
      "velocity": 0,
      "is_motor": true,
      "motor_id": 0,
      "accel_val": 2000,
      "base_duration_us": 517237
    },
    {
      "id": "M_2710",
      "pitch": 67,
      "t_note_us": 201722311,
      "t_trigger_us": 201586348,
      "is_ai": false,
      "track_id": 0,
      "velocity": 0,
      "is_motor": true,
      "motor_id": 1,
      "accel_val": 2000,
      "base_duration_us": 258618
    },
    {
      "id": "M_2715",
      "pitch": 56,
      "t_note_us": 201722311,
      "t_trigger_us": 201586348,
      "is_ai": false,
      "track_id": 0,
      "velocity": 0,
      "is_motor": true,
      "motor_id": 2,
      "accel_val": 2000,
      "base_duration_us": 517237
    },
    {
      "id": "M_2721",
      "pitch": 52,
      "t_note_us": 201722311,
      "t_trigger_us": 201586348,
      "is_ai": false,
      "track_id": 0,
      "velocity": 0,
      "is_motor": true,
      "motor_id": 3,
      "accel_val": 2000,
      "base_duration_us": 775855
    },
    {
      "id": "M_2712",
      "pitch": 67,
      "t_note_us": 201980929,
      "t_trigger_us": 201844966,
      "is_ai": false,
      "track_id": 0,
      "velocity": 0,
      "is_motor": true,
      "motor_id": 1,
      "accel_val": 2000,
      "base_duration_us": 258619
    },
    {
      "id": "M_2714",
      "pitch": 71,
      "t_note_us": 201980929,
      "t_trigger_us": 201844966,
      "is_ai": false,
      "track_id": 0,
      "velocity": 0,
      "is_motor": true,
      "motor_id": 0,
      "accel_val": 2000,
      "base_duration_us": 258619
    },
    {
      "id": "M_2716",
      "pitch": 93,
      "t_note_us": 202239548,
      "t_trigger_us": 202103585,
      "is_ai": true,
      "track_id": 8,
      "velocity": 0,
      "is_motor": false,
      "motor_id": 0,
      "accel_val": 2000,
      "base_duration_us": 258618
    },
    {
      "id": "M_2719",
      "pitch": 93,
      "t_note_us": 202239548,
      "t_trigger_us": 202103585,
      "is_ai": true,
      "track_id": 8,
      "velocity": 0,
      "is_motor": false,
      "motor_id": 0,
      "accel_val": 2000,
      "base_duration_us": 258618
    },
    {
      "id": "M_2717",
      "pitch": 74,
      "t_note_us": 202239548,
      "t_trigger_us": 202103585,
      "is_ai": false,
      "track_id": 0,
      "velocity": 0,
      "is_motor": true,
      "motor_id": 1,
      "accel_val": 2000,
      "base_duration_us": 258618
    },
    {
      "id": "M_2720",
      "pitch": 74,
      "t_note_us": 202239548,
      "t_trigger_us": 202103585,
      "is_ai": false,
      "track_id": 0,
      "velocity": 0,
      "is_motor": true,
      "motor_id": 0,
      "accel_val": 2000,
      "base_duration_us": 258618
    },
    {
      "id": "M_2733",
      "pitch": 56,
      "t_note_us": 202239548,
      "t_trigger_us": 202103585,
      "is_ai": false,
      "track_id": 0,
      "velocity": 0,
      "is_motor": true,
      "motor_id": 2,
      "accel_val": 2000,
      "base_duration_us": 517235
    },
    {
      "id": "M_2736",
      "pitch": 95,
      "t_note_us": 202498166,
      "t_trigger_us": 202362203,
      "is_ai": true,
      "track_id": 9,
      "velocity": 0,
      "is_motor": false,
      "motor_id": 0,
      "accel_val": 2000,
      "base_duration_us": 775855
    },
    {
      "id": "M_2746",
      "pitch": 95,
      "t_note_us": 202498166,
      "t_trigger_us": 202362203,
      "is_ai": true,
      "track_id": 9,
      "velocity": 0,
      "is_motor": false,
      "motor_id": 0,
      "accel_val": 2000,
      "base_duration_us": 1293072
    },
    {
      "id": "M_2722",
      "pitch": 71,
      "t_note_us": 202498166,
      "t_trigger_us": 202362203,
      "is_ai": false,
      "track_id": 0,
      "velocity": 0,
      "is_motor": true,
      "motor_id": 1,
      "accel_val": 2000,
      "base_duration_us": 258617
    },
    {
      "id": "M_2725",
      "pitch": 47,
      "t_note_us": 202498166,
      "t_trigger_us": 202362203,
      "is_ai": false,
      "track_id": 0,
      "velocity": 0,
      "is_motor": true,
      "motor_id": 0,
      "accel_val": 2000,
      "base_duration_us": 258617
    },
    {
      "id": "M_2726",
      "pitch": 71,
      "t_note_us": 202498166,
      "t_trigger_us": 202362203,
      "is_ai": false,
      "track_id": 0,
      "velocity": 0,
      "is_motor": true,
      "motor_id": 3,
      "accel_val": 2000,
      "base_duration_us": 258617
    },
    {
      "id": "M_2732",
      "pitch": 50,
      "t_note_us": 202498166,
      "t_trigger_us": 202362203,
      "is_ai": false,
      "track_id": 0,
      "velocity": 0,
      "is_motor": true,
      "motor_id": 0,
      "accel_val": 2000,
      "base_duration_us": 258617
    },
    {
      "id": "M_2772",
      "pitch": 84,
      "t_note_us": 202756783,
      "t_trigger_us": 202620820,
      "is_ai": true,
      "track_id": 3,
      "velocity": 0,
      "is_motor": false,
      "motor_id": 0,
      "accel_val": 2000,
      "base_duration_us": 2068927
    },
    {
      "id": "M_2734",
      "pitch": 60,
      "t_note_us": 202756783,
      "t_trigger_us": 202620820,
      "is_ai": false,
      "track_id": 0,
      "velocity": 0,
      "is_motor": true,
      "motor_id": 1,
      "accel_val": 2000,
      "base_duration_us": 258619
    },
    {
      "id": "M_2735",
      "pitch": 60,
      "t_note_us": 202756783,
      "t_trigger_us": 202620820,
      "is_ai": false,
      "track_id": 0,
      "velocity": 0,
      "is_motor": true,
      "motor_id": 0,
      "accel_val": 2000,
      "base_duration_us": 258619
    },
    {
      "id": "M_2739",
      "pitch": 56,
      "t_note_us": 202756783,
      "t_trigger_us": 202620820,
      "is_ai": false,
      "track_id": 0,
      "velocity": 0,
      "is_motor": true,
      "motor_id": 2,
      "accel_val": 2000,
      "base_duration_us": 517238
    },
    {
      "id": "M_2743",
      "pitch": 67,
      "t_note_us": 202756783,
      "t_trigger_us": 202620820,
      "is_ai": false,
      "track_id": 0,
      "velocity": 0,
      "is_motor": true,
      "motor_id": 3,
      "accel_val": 2000,
      "base_duration_us": 1034455
    },
    {
      "id": "M_2745",
      "pitch": 71,
      "t_note_us": 202756783,
      "t_trigger_us": 202620820,
      "is_ai": false,
      "track_id": 0,
      "velocity": 0,
      "is_motor": true,
      "motor_id": 0,
      "accel_val": 2000,
      "base_duration_us": 1034455
    },
    {
      "id": "M_2749",
      "pitch": 50,
      "t_note_us": 202756783,
      "t_trigger_us": 202620820,
      "is_ai": false,
      "track_id": 0,
      "velocity": 0,
      "is_motor": true,
      "motor_id": 0,
      "accel_val": 2000,
      "base_duration_us": 1034455
    },
    {
      "id": "M_2760",
      "pitch": 48,
      "t_note_us": 202756783,
      "t_trigger_us": 202620820,
      "is_ai": false,
      "track_id": 0,
      "velocity": 0,
      "is_motor": true,
      "motor_id": 0,
      "accel_val": 2000,
      "base_duration_us": 1810310
    },
    {
      "id": "M_2768",
      "pitch": 72,
      "t_note_us": 202756783,
      "t_trigger_us": 202620820,
      "is_ai": false,
      "track_id": 0,
      "velocity": 0,
      "is_motor": true,
      "motor_id": 0,
      "accel_val": 2000,
      "base_duration_us": 2068927
    },
    {
      "id": "M_2769",
      "pitch": 60,
      "t_note_us": 202756783,
      "t_trigger_us": 202620820,
      "is_ai": false,
      "track_id": 0,
      "velocity": 0,
      "is_motor": true,
      "motor_id": 0,
      "accel_val": 2000,
      "base_duration_us": 2068927
    },
    {
      "id": "M_2770",
      "pitch": 67,
      "t_note_us": 202756783,
      "t_trigger_us": 202620820,
      "is_ai": false,
      "track_id": 0,
      "velocity": 0,
      "is_motor": true,
      "motor_id": 0,
      "accel_val": 2000,
      "base_duration_us": 2068927
    },
    {
      "id": "M_2771",
      "pitch": 71,
      "t_note_us": 202756783,
      "t_trigger_us": 202620820,
      "is_ai": false,
      "track_id": 0,
      "velocity": 0,
      "is_motor": true,
      "motor_id": 0,
      "accel_val": 2000,
      "base_duration_us": 2068927
    },
    {
      "id": "M_2773",
      "pitch": 76,
      "t_note_us": 202756783,
      "t_trigger_us": 202620820,
      "is_ai": false,
      "track_id": 0,
      "velocity": 0,
      "is_motor": true,
      "motor_id": 0,
      "accel_val": 2000,
      "base_duration_us": 2068927
    },
    {
      "id": "M_2737",
      "pitch": 67,
      "t_note_us": 203015402,
      "t_trigger_us": 202879439,
      "is_ai": false,
      "track_id": 0,
      "velocity": 0,
      "is_motor": true,
      "motor_id": 1,
      "accel_val": 2000,
      "base_duration_us": 258619
    },
    {
      "id": "M_2738",
      "pitch": 67,
      "t_note_us": 203015402,
      "t_trigger_us": 202879439,
      "is_ai": false,
      "track_id": 0,
      "velocity": 0,
      "is_motor": true,
      "motor_id": 0,
      "accel_val": 2000,
      "base_duration_us": 258619
    },
    {
      "id": "M_2740",
      "pitch": 86,
      "t_note_us": 203274021,
      "t_trigger_us": 203138058,
      "is_ai": true,
      "track_id": 4,
      "velocity": 0,
      "is_motor": false,
      "motor_id": 0,
      "accel_val": 2000,
      "base_duration_us": 258611
    },
    {
      "id": "M_2741",
      "pitch": 72,
      "t_note_us": 203274021,
      "t_trigger_us": 203138058,
      "is_ai": false,
      "track_id": 0,
      "velocity": 0,
      "is_motor": true,
      "motor_id": 1,
      "accel_val": 2000,
      "base_duration_us": 258611
    },
    {
      "id": "M_2742",
      "pitch": 72,
      "t_note_us": 203274021,
      "t_trigger_us": 203138058,
      "is_ai": false,
      "track_id": 0,
      "velocity": 0,
      "is_motor": true,
      "motor_id": 0,
      "accel_val": 2000,
      "base_duration_us": 258611
    },
    {
      "id": "M_2748",
      "pitch": 56,
      "t_note_us": 203274021,
      "t_trigger_us": 203138058,
      "is_ai": false,
      "track_id": 0,
      "velocity": 0,
      "is_motor": true,
      "motor_id": 2,
      "accel_val": 2000,
      "base_duration_us": 517217
    },
    {
      "id": "M_2750",
      "pitch": 88,
      "t_note_us": 203532632,
      "t_trigger_us": 203396669,
      "is_ai": true,
      "track_id": 5,
      "velocity": 0,
      "is_motor": false,
      "motor_id": 0,
      "accel_val": 2000,
      "base_duration_us": 517225
    },
    {
      "id": "M_2744",
      "pitch": 76,
      "t_note_us": 203532632,
      "t_trigger_us": 203396669,
      "is_ai": false,
      "track_id": 0,
      "velocity": 0,
      "is_motor": true,
      "motor_id": 1,
      "accel_val": 2000,
      "base_duration_us": 258606
    },
    {
      "id": "M_2747",
      "pitch": 67,
      "t_note_us": 203532632,
      "t_trigger_us": 203396669,
      "is_ai": false,
      "track_id": 0,
      "velocity": 0,
      "is_motor": true,
      "motor_id": 0,
      "accel_val": 2000,
      "base_duration_us": 258606
    },
    {
      "id": "M_2766",
      "pitch": 100,
      "t_note_us": 203791238,
      "t_trigger_us": 203655275,
      "is_ai": true,
      "track_id": 12,
      "velocity": 0,
      "is_motor": false,
      "motor_id": 0,
      "accel_val": 2000,
      "base_duration_us": 1034472
    },
    {
      "id": "M_2751",
      "pitch": 76,
      "t_note_us": 203791238,
      "t_trigger_us": 203655275,
      "is_ai": false,
      "track_id": 0,
      "velocity": 0,
      "is_motor": true,
      "motor_id": 2,
      "accel_val": 2000,
      "base_duration_us": 258619
    },
    {
      "id": "M_2756",
      "pitch": 56,
      "t_note_us": 203791238,
      "t_trigger_us": 203655275,
      "is_ai": false,
      "track_id": 0,
      "velocity": 0,
      "is_motor": true,
      "motor_id": 0,
      "accel_val": 2000,
      "base_duration_us": 517237
    },
    {
      "id": "M_2762",
      "pitch": 52,
      "t_note_us": 203791238,
      "t_trigger_us": 203655275,
      "is_ai": false,
      "track_id": 0,
      "velocity": 0,
      "is_motor": true,
      "motor_id": 1,
      "accel_val": 2000,
      "base_duration_us": 775855
    },
    {
      "id": "M_2752",
      "pitch": 86,
      "t_note_us": 204032616,
      "t_trigger_us": 203896653,
      "is_ai": true,
      "track_id": 4,
      "velocity": 0,
      "is_motor": false,
      "motor_id": 0,
      "accel_val": 2000,
      "base_duration_us": 258618
    },
    {
      "id": "M_2753",
      "pitch": 88,
      "t_note_us": 204049857,
      "t_trigger_us": 203913894,
      "is_ai": true,
      "track_id": 5,
      "velocity": 0,
      "is_motor": false,
      "motor_id": 0,
      "accel_val": 2000,
      "base_duration_us": 258618
    },
    {
      "id": "M_2754",
      "pitch": 67,
      "t_note_us": 204049857,
      "t_trigger_us": 203913894,
      "is_ai": false,
      "track_id": 0,
      "velocity": 0,
      "is_motor": true,
      "motor_id": 2,
      "accel_val": 2000,
      "base_duration_us": 258618
    },
    {
      "id": "M_2755",
      "pitch": 67,
      "t_note_us": 204049857,
      "t_trigger_us": 203913894,
      "is_ai": false,
      "track_id": 0,
      "velocity": 0,
      "is_motor": true,
      "motor_id": 3,
      "accel_val": 2000,
      "base_duration_us": 258618
    },
    {
      "id": "M_2757",
      "pitch": 88,
      "t_note_us": 204291234,
      "t_trigger_us": 204155271,
      "is_ai": true,
      "track_id": 5,
      "velocity": 0,
      "is_motor": false,
      "motor_id": 0,
      "accel_val": 2000,
      "base_duration_us": 258618
    },
    {
      "id": "M_2758",
      "pitch": 91,
      "t_note_us": 204308475,
      "t_trigger_us": 204172512,
      "is_ai": true,
      "track_id": 7,
      "velocity": 0,
      "is_motor": false,
      "motor_id": 0,
      "accel_val": 2000,
      "base_duration_us": 258618
    },
    {
      "id": "M_2759",
      "pitch": 76,
      "t_note_us": 204308475,
      "t_trigger_us": 204172512,
      "is_ai": false,
      "track_id": 0,
      "velocity": 0,
      "is_motor": true,
      "motor_id": 2,
      "accel_val": 2000,
      "base_duration_us": 258618
    },
    {
      "id": "M_2761",
      "pitch": 72,
      "t_note_us": 204308475,
      "t_trigger_us": 204172512,
      "is_ai": false,
      "track_id": 0,
      "velocity": 0,
      "is_motor": true,
      "motor_id": 0,
      "accel_val": 2000,
      "base_duration_us": 258618
    },
    {
      "id": "M_2775",
      "pitch": 56,
      "t_note_us": 204308475,
      "t_trigger_us": 204172512,
      "is_ai": false,
      "track_id": 0,
      "velocity": 0,
      "is_motor": true,
      "motor_id": 3,
      "accel_val": 2000,
      "base_duration_us": 517235
    },
    {
      "id": "M_2763",
      "pitch": 91,
      "t_note_us": 204549852,
      "t_trigger_us": 204413889,
      "is_ai": true,
      "track_id": 7,
      "velocity": 0,
      "is_motor": false,
      "motor_id": 0,
      "accel_val": 2000,
      "base_duration_us": 258617
    },
    {
      "id": "M_2778",
      "pitch": 90,
      "t_note_us": 204567093,
      "t_trigger_us": 204431130,
      "is_ai": true,
      "track_id": 0,
      "velocity": 0,
      "is_motor": true,
      "motor_id": 2,
      "accel_val": 2000,
      "base_duration_us": 775835
    },
    {
      "id": "M_2764",
      "pitch": 72,
      "t_note_us": 204567093,
      "t_trigger_us": 204431130,
      "is_ai": false,
      "track_id": 0,
      "velocity": 0,
      "is_motor": true,
      "motor_id": 1,
      "accel_val": 2000,
      "base_duration_us": 258617
    },
    {
      "id": "M_2765",
      "pitch": 48,
      "t_note_us": 204567093,
      "t_trigger_us": 204431130,
      "is_ai": false,
      "track_id": 0,
      "velocity": 0,
      "is_motor": true,
      "motor_id": 0,
      "accel_val": 2000,
      "base_duration_us": 258617
    },
    {
      "id": "M_2767",
      "pitch": 67,
      "t_note_us": 204567093,
      "t_trigger_us": 204431130,
      "is_ai": false,
      "track_id": 0,
      "velocity": 0,
      "is_motor": true,
      "motor_id": 0,
      "accel_val": 2000,
      "base_duration_us": 258617
    },
    {
      "id": "M_2774",
      "pitch": 50,
      "t_note_us": 204567093,
      "t_trigger_us": 204431130,
      "is_ai": false,
      "track_id": 0,
      "velocity": 0,
      "is_motor": true,
      "motor_id": 0,
      "accel_val": 2000,
      "base_duration_us": 258617
    },
    {
      "id": "M_2824",
      "pitch": 90,
      "t_note_us": 204808469,
      "t_trigger_us": 204672506,
      "is_ai": true,
      "track_id": 0,
      "velocity": 0,
      "is_motor": true,
      "motor_id": 0,
      "accel_val": 2000,
      "base_duration_us": 2577493
    },
    {
      "id": "M_2789",
      "pitch": 98,
      "t_note_us": 204825710,
      "t_trigger_us": 204689747,
      "is_ai": true,
      "track_id": 11,
      "velocity": 0,
      "is_motor": false,
      "motor_id": 0,
      "accel_val": 2000,
      "base_duration_us": 1034437
    },
    {
      "id": "M_2776",
      "pitch": 62,
      "t_note_us": 204825710,
      "t_trigger_us": 204689747,
      "is_ai": false,
      "track_id": 0,
      "velocity": 0,
      "is_motor": true,
      "motor_id": 1,
      "accel_val": 2000,
      "base_duration_us": 258613
    },
    {
      "id": "M_2777",
      "pitch": 62,
      "t_note_us": 204825710,
      "t_trigger_us": 204689747,
      "is_ai": false,
      "track_id": 0,
      "velocity": 0,
      "is_motor": true,
      "motor_id": 0,
      "accel_val": 2000,
      "base_duration_us": 258613
    },
    {
      "id": "M_2781",
      "pitch": 56,
      "t_note_us": 204825710,
      "t_trigger_us": 204689747,
      "is_ai": false,
      "track_id": 0,
      "velocity": 0,
      "is_motor": true,
      "motor_id": 3,
      "accel_val": 2000,
      "base_duration_us": 517218
    },
    {
      "id": "M_2786",
      "pitch": 78,
      "t_note_us": 204825710,
      "t_trigger_us": 204689747,
      "is_ai": false,
      "track_id": 0,
      "velocity": 0,
      "is_motor": true,
      "motor_id": 0,
      "accel_val": 2000,
      "base_duration_us": 1034437
    },
    {
      "id": "M_2787",
      "pitch": 69,
      "t_note_us": 204825710,
      "t_trigger_us": 204689747,
      "is_ai": false,
      "track_id": 0,
      "velocity": 0,
      "is_motor": true,
      "motor_id": 0,
      "accel_val": 2000,
      "base_duration_us": 1034437
    },
    {
      "id": "M_2788",
      "pitch": 50,
      "t_note_us": 204825710,
      "t_trigger_us": 204689747,
      "is_ai": false,
      "track_id": 0,
      "velocity": 0,
      "is_motor": true,
      "motor_id": 0,
      "accel_val": 2000,
      "base_duration_us": 1034437
    },
    {
      "id": "M_2791",
      "pitch": 74,
      "t_note_us": 204825710,
      "t_trigger_us": 204689747,
      "is_ai": false,
      "track_id": 0,
      "velocity": 0,
      "is_motor": true,
      "motor_id": 0,
      "accel_val": 2000,
      "base_duration_us": 1034437
    },
    {
      "id": "M_2792",
      "pitch": 62,
      "t_note_us": 204825710,
      "t_trigger_us": 204689747,
      "is_ai": false,
      "track_id": 0,
      "velocity": 0,
      "is_motor": true,
      "motor_id": 0,
      "accel_val": 2000,
      "base_duration_us": 1034437
    },
    {
      "id": "M_2793",
      "pitch": 74,
      "t_note_us": 204825710,
      "t_trigger_us": 204689747,
      "is_ai": false,
      "track_id": 0,
      "velocity": 0,
      "is_motor": true,
      "motor_id": 0,
      "accel_val": 2000,
      "base_duration_us": 1034437
    },
    {
      "id": "M_2794",
      "pitch": 78,
      "t_note_us": 204825710,
      "t_trigger_us": 204689747,
      "is_ai": false,
      "track_id": 0,
      "velocity": 0,
      "is_motor": true,
      "motor_id": 0,
      "accel_val": 2000,
      "base_duration_us": 1034437
    },
    {
      "id": "M_2795",
      "pitch": 69,
      "t_note_us": 204825710,
      "t_trigger_us": 204689747,
      "is_ai": false,
      "track_id": 0,
      "velocity": 0,
      "is_motor": true,
      "motor_id": 0,
      "accel_val": 2000,
      "base_duration_us": 1034437
    },
    {
      "id": "M_2797",
      "pitch": 50,
      "t_note_us": 204825710,
      "t_trigger_us": 204689747,
      "is_ai": false,
      "track_id": 0,
      "velocity": 0,
      "is_motor": true,
      "motor_id": 0,
      "accel_val": 2000,
      "base_duration_us": 1034437
    },
    {
      "id": "M_2779",
      "pitch": 69,
      "t_note_us": 205084323,
      "t_trigger_us": 204948360,
      "is_ai": false,
      "track_id": 0,
      "velocity": 0,
      "is_motor": true,
      "motor_id": 1,
      "accel_val": 2000,
      "base_duration_us": 258605
    },
    {
      "id": "M_2780",
      "pitch": 69,
      "t_note_us": 205084323,
      "t_trigger_us": 204948360,
      "is_ai": false,
      "track_id": 0,
      "velocity": 0,
      "is_motor": true,
      "motor_id": 0,
      "accel_val": 2000,
      "base_duration_us": 258605
    },
    {
      "id": "M_2782",
      "pitch": 88,
      "t_note_us": 205342928,
      "t_trigger_us": 205206965,
      "is_ai": true,
      "track_id": 5,
      "velocity": 0,
      "is_motor": false,
      "motor_id": 0,
      "accel_val": 2000,
      "base_duration_us": 258609
    },
    {
      "id": "M_2783",
      "pitch": 74,
      "t_note_us": 205342928,
      "t_trigger_us": 205206965,
      "is_ai": false,
      "track_id": 0,
      "velocity": 0,
      "is_motor": true,
      "motor_id": 1,
      "accel_val": 2000,
      "base_duration_us": 258609
    },
    {
      "id": "M_2784",
      "pitch": 74,
      "t_note_us": 205342928,
      "t_trigger_us": 205206965,
      "is_ai": false,
      "track_id": 0,
      "velocity": 0,
      "is_motor": true,
      "motor_id": 0,
      "accel_val": 2000,
      "base_duration_us": 258609
    },
    {
      "id": "M_2796",
      "pitch": 56,
      "t_note_us": 205342928,
      "t_trigger_us": 205206965,
      "is_ai": false,
      "track_id": 0,
      "velocity": 0,
      "is_motor": true,
      "motor_id": 2,
      "accel_val": 2000,
      "base_duration_us": 517219
    },
    {
      "id": "M_2798",
      "pitch": 86,
      "t_note_us": 205601537,
      "t_trigger_us": 205465574,
      "is_ai": true,
      "track_id": 4,
      "velocity": 0,
      "is_motor": false,
      "motor_id": 0,
      "accel_val": 2000,
      "base_duration_us": 517228
    },
    {
      "id": "M_2785",
      "pitch": 69,
      "t_note_us": 205601537,
      "t_trigger_us": 205465574,
      "is_ai": false,
      "track_id": 0,
      "velocity": 0,
      "is_motor": true,
      "motor_id": 1,
      "accel_val": 2000,
      "base_duration_us": 258610
    },
    {
      "id": "M_2790",
      "pitch": 78,
      "t_note_us": 205601537,
      "t_trigger_us": 205465574,
      "is_ai": false,
      "track_id": 0,
      "velocity": 0,
      "is_motor": true,
      "motor_id": 3,
      "accel_val": 2000,
      "base_duration_us": 258610
    },
    {
      "id": "M_2802",
      "pitch": 96,
      "t_note_us": 205860147,
      "t_trigger_us": 205724184,
      "is_ai": true,
      "track_id": 10,
      "velocity": 0,
      "is_motor": false,
      "motor_id": 0,
      "accel_val": 2000,
      "base_duration_us": 517233
    },
    {
      "id": "M_2818",
      "pitch": 84,
      "t_note_us": 205860147,
      "t_trigger_us": 205724184,
      "is_ai": true,
      "track_id": 3,
      "velocity": 0,
      "is_motor": false,
      "motor_id": 0,
      "accel_val": 2000,
      "base_duration_us": 1034457
    },
    {
      "id": "M_2799",
      "pitch": 60,
      "t_note_us": 205860147,
      "t_trigger_us": 205724184,
      "is_ai": false,
      "track_id": 0,
      "velocity": 0,
      "is_motor": true,
      "motor_id": 1,
      "accel_val": 2000,
      "base_duration_us": 258618
    },
    {
      "id": "M_2800",
      "pitch": 60,
      "t_note_us": 205860147,
      "t_trigger_us": 205724184,
      "is_ai": false,
      "track_id": 0,
      "velocity": 0,
      "is_motor": true,
      "motor_id": 0,
      "accel_val": 2000,
      "base_duration_us": 258618
    },
    {
      "id": "M_2804",
      "pitch": 56,
      "t_note_us": 205860147,
      "t_trigger_us": 205724184,
      "is_ai": false,
      "track_id": 0,
      "velocity": 0,
      "is_motor": true,
      "motor_id": 2,
      "accel_val": 2000,
      "base_duration_us": 517233
    },
    {
      "id": "M_2808",
      "pitch": 52,
      "t_note_us": 205860147,
      "t_trigger_us": 205724184,
      "is_ai": false,
      "track_id": 0,
      "velocity": 0,
      "is_motor": true,
      "motor_id": 3,
      "accel_val": 2000,
      "base_duration_us": 775847
    },
    {
      "id": "M_2810",
      "pitch": 76,
      "t_note_us": 205860147,
      "t_trigger_us": 205724184,
      "is_ai": false,
      "track_id": 0,
      "velocity": 0,
      "is_motor": true,
      "motor_id": 0,
      "accel_val": 2000,
      "base_duration_us": 1034457
    },
    {
      "id": "M_2811",
      "pitch": 67,
      "t_note_us": 205860147,
      "t_trigger_us": 205724184,
      "is_ai": false,
      "track_id": 0,
      "velocity": 0,
      "is_motor": true,
      "motor_id": 0,
      "accel_val": 2000,
      "base_duration_us": 1034457
    },
    {
      "id": "M_2812",
      "pitch": 48,
      "t_note_us": 205860147,
      "t_trigger_us": 205724184,
      "is_ai": false,
      "track_id": 0,
      "velocity": 0,
      "is_motor": true,
      "motor_id": 0,
      "accel_val": 2000,
      "base_duration_us": 1034457
    },
    {
      "id": "M_2815",
      "pitch": 72,
      "t_note_us": 205860147,
      "t_trigger_us": 205724184,
      "is_ai": false,
      "track_id": 0,
      "velocity": 0,
      "is_motor": true,
      "motor_id": 0,
      "accel_val": 2000,
      "base_duration_us": 1034457
    },
    {
      "id": "M_2816",
      "pitch": 60,
      "t_note_us": 205860147,
      "t_trigger_us": 205724184,
      "is_ai": false,
      "track_id": 0,
      "velocity": 0,
      "is_motor": true,
      "motor_id": 0,
      "accel_val": 2000,
      "base_duration_us": 1034457
    },
    {
      "id": "M_2817",
      "pitch": 76,
      "t_note_us": 205860147,
      "t_trigger_us": 205724184,
      "is_ai": false,
      "track_id": 0,
      "velocity": 0,
      "is_motor": true,
      "motor_id": 0,
      "accel_val": 2000,
      "base_duration_us": 1034457
    },
    {
      "id": "M_2819",
      "pitch": 67,
      "t_note_us": 205860147,
      "t_trigger_us": 205724184,
      "is_ai": false,
      "track_id": 0,
      "velocity": 0,
      "is_motor": true,
      "motor_id": 0,
      "accel_val": 2000,
      "base_duration_us": 1034457
    },
    {
      "id": "M_2805",
      "pitch": 96,
      "t_note_us": 206118765,
      "t_trigger_us": 205982802,
      "is_ai": true,
      "track_id": 10,
      "velocity": 0,
      "is_motor": false,
      "motor_id": 0,
      "accel_val": 2000,
      "base_duration_us": 517229
    },
    {
      "id": "M_2801",
      "pitch": 67,
      "t_note_us": 206118765,
      "t_trigger_us": 205982802,
      "is_ai": false,
      "track_id": 0,
      "velocity": 0,
      "is_motor": true,
      "motor_id": 1,
      "accel_val": 2000,
      "base_duration_us": 258615
    },
    {
      "id": "M_2803",
      "pitch": 67,
      "t_note_us": 206118765,
      "t_trigger_us": 205982802,
      "is_ai": false,
      "track_id": 0,
      "velocity": 0,
      "is_motor": true,
      "motor_id": 0,
      "accel_val": 2000,
      "base_duration_us": 258615
    },
    {
      "id": "M_2813",
      "pitch": 98,
      "t_note_us": 206377380,
      "t_trigger_us": 206241417,
      "is_ai": true,
      "track_id": 11,
      "velocity": 0,
      "is_motor": false,
      "motor_id": 0,
      "accel_val": 2000,
      "base_duration_us": 517224
    },
    {
      "id": "M_2806",
      "pitch": 72,
      "t_note_us": 206377380,
      "t_trigger_us": 206241417,
      "is_ai": false,
      "track_id": 0,
      "velocity": 0,
      "is_motor": true,
      "motor_id": 1,
      "accel_val": 2000,
      "base_duration_us": 258614
    },
    {
      "id": "M_2807",
      "pitch": 72,
      "t_note_us": 206377380,
      "t_trigger_us": 206241417,
      "is_ai": false,
      "track_id": 0,
      "velocity": 0,
      "is_motor": true,
      "motor_id": 0,
      "accel_val": 2000,
      "base_duration_us": 258614
    },
    {
      "id": "M_2821",
      "pitch": 56,
      "t_note_us": 206377380,
      "t_trigger_us": 206241417,
      "is_ai": false,
      "track_id": 0,
      "velocity": 0,
      "is_motor": true,
      "motor_id": 2,
      "accel_val": 2000,
      "base_duration_us": 517224
    },
    {
      "id": "M_2830",
      "pitch": 95,
      "t_note_us": 206635994,
      "t_trigger_us": 206500031,
      "is_ai": true,
      "track_id": 9,
      "velocity": 0,
      "is_motor": false,
      "motor_id": 0,
      "accel_val": 2000,
      "base_duration_us": 1293048
    },
    {
      "id": "M_2809",
      "pitch": 67,
      "t_note_us": 206635994,
      "t_trigger_us": 206500031,
      "is_ai": false,
      "track_id": 0,
      "velocity": 0,
      "is_motor": true,
      "motor_id": 1,
      "accel_val": 2000,
      "base_duration_us": 258610
    },
    {
      "id": "M_2814",
      "pitch": 76,
      "t_note_us": 206635994,
      "t_trigger_us": 206500031,
      "is_ai": false,
      "track_id": 0,
      "velocity": 0,
      "is_motor": true,
      "motor_id": 3,
      "accel_val": 2000,
      "base_duration_us": 258610
    },
    {
      "id": "M_2820",
      "pitch": 50,
      "t_note_us": 206635994,
      "t_trigger_us": 206500031,
      "is_ai": false,
      "track_id": 0,
      "velocity": 0,
      "is_motor": true,
      "motor_id": 0,
      "accel_val": 2000,
      "base_duration_us": 258610
    },
    {
      "id": "M_2835",
      "pitch": 95,
      "t_note_us": 206894604,
      "t_trigger_us": 206758641,
      "is_ai": true,
      "track_id": 9,
      "velocity": 0,
      "is_motor": false,
      "motor_id": 0,
      "accel_val": 2000,
      "base_duration_us": 1034438
    },
    {
      "id": "M_2822",
      "pitch": 59,
      "t_note_us": 206894604,
      "t_trigger_us": 206758641,
      "is_ai": false,
      "track_id": 0,
      "velocity": 0,
      "is_motor": true,
      "motor_id": 0,
      "accel_val": 2000,
      "base_duration_us": 258609
    },
    {
      "id": "M_2823",
      "pitch": 59,
      "t_note_us": 206894604,
      "t_trigger_us": 206758641,
      "is_ai": false,
      "track_id": 0,
      "velocity": 0,
      "is_motor": true,
      "motor_id": 1,
      "accel_val": 2000,
      "base_duration_us": 258609
    },
    {
      "id": "M_2827",
      "pitch": 56,
      "t_note_us": 206894604,
      "t_trigger_us": 206758641,
      "is_ai": false,
      "track_id": 0,
      "velocity": 0,
      "is_motor": true,
      "motor_id": 2,
      "accel_val": 2000,
      "base_duration_us": 517219
    },
    {
      "id": "M_2832",
      "pitch": 78,
      "t_note_us": 206894604,
      "t_trigger_us": 206758641,
      "is_ai": false,
      "track_id": 0,
      "velocity": 0,
      "is_motor": true,
      "motor_id": 3,
      "accel_val": 2000,
      "base_duration_us": 1034438
    },
    {
      "id": "M_2833",
      "pitch": 74,
      "t_note_us": 206894604,
      "t_trigger_us": 206758641,
      "is_ai": false,
      "track_id": 0,
      "velocity": 0,
      "is_motor": true,
      "motor_id": 0,
      "accel_val": 2000,
      "base_duration_us": 1034438
    },
    {
      "id": "M_2834",
      "pitch": 47,
      "t_note_us": 206894604,
      "t_trigger_us": 206758641,
      "is_ai": false,
      "track_id": 0,
      "velocity": 0,
      "is_motor": true,
      "motor_id": 0,
      "accel_val": 2000,
      "base_duration_us": 1034438
    },
    {
      "id": "M_2837",
      "pitch": 71,
      "t_note_us": 206894604,
      "t_trigger_us": 206758641,
      "is_ai": false,
      "track_id": 0,
      "velocity": 0,
      "is_motor": true,
      "motor_id": 0,
      "accel_val": 2000,
      "base_duration_us": 1034438
    },
    {
      "id": "M_2838",
      "pitch": 59,
      "t_note_us": 206894604,
      "t_trigger_us": 206758641,
      "is_ai": false,
      "track_id": 0,
      "velocity": 0,
      "is_motor": true,
      "motor_id": 0,
      "accel_val": 2000,
      "base_duration_us": 1034438
    },
    {
      "id": "M_2839",
      "pitch": 71,
      "t_note_us": 206894604,
      "t_trigger_us": 206758641,
      "is_ai": false,
      "track_id": 0,
      "velocity": 0,
      "is_motor": true,
      "motor_id": 0,
      "accel_val": 2000,
      "base_duration_us": 1034438
    },
    {
      "id": "M_2840",
      "pitch": 74,
      "t_note_us": 206894604,
      "t_trigger_us": 206758641,
      "is_ai": false,
      "track_id": 0,
      "velocity": 0,
      "is_motor": true,
      "motor_id": 0,
      "accel_val": 2000,
      "base_duration_us": 1034438
    },
    {
      "id": "M_2841",
      "pitch": 78,
      "t_note_us": 206894604,
      "t_trigger_us": 206758641,
      "is_ai": false,
      "track_id": 0,
      "velocity": 0,
      "is_motor": true,
      "motor_id": 0,
      "accel_val": 2000,
      "base_duration_us": 1034438
    },
    {
      "id": "M_2843",
      "pitch": 50,
      "t_note_us": 206894604,
      "t_trigger_us": 206758641,
      "is_ai": false,
      "track_id": 0,
      "velocity": 0,
      "is_motor": true,
      "motor_id": 0,
      "accel_val": 2000,
      "base_duration_us": 1034438
    },
    {
      "id": "M_2825",
      "pitch": 66,
      "t_note_us": 207153213,
      "t_trigger_us": 207017250,
      "is_ai": false,
      "track_id": 0,
      "velocity": 0,
      "is_motor": true,
      "motor_id": 1,
      "accel_val": 2000,
      "base_duration_us": 258610
    },
    {
      "id": "M_2826",
      "pitch": 66,
      "t_note_us": 207153213,
      "t_trigger_us": 207017250,
      "is_ai": false,
      "track_id": 0,
      "velocity": 0,
      "is_motor": true,
      "motor_id": 0,
      "accel_val": 2000,
      "base_duration_us": 258610
    },
    {
      "id": "M_2828",
      "pitch": 71,
      "t_note_us": 207411823,
      "t_trigger_us": 207275860,
      "is_ai": false,
      "track_id": 0,
      "velocity": 0,
      "is_motor": true,
      "motor_id": 1,
      "accel_val": 2000,
      "base_duration_us": 258608
    },
    {
      "id": "M_2829",
      "pitch": 71,
      "t_note_us": 207411823,
      "t_trigger_us": 207275860,
      "is_ai": false,
      "track_id": 0,
      "velocity": 0,
      "is_motor": true,
      "motor_id": 2,
      "accel_val": 2000,
      "base_duration_us": 258608
    },
    {
      "id": "M_2842",
      "pitch": 56,
      "t_note_us": 207411823,
      "t_trigger_us": 207275860,
      "is_ai": false,
      "track_id": 0,
      "velocity": 0,
      "is_motor": true,
      "motor_id": 0,
      "accel_val": 2000,
      "base_duration_us": 517219
    },
    {
      "id": "M_2903",
      "pitch": 83,
      "t_note_us": 207670431,
      "t_trigger_us": 207534468,
      "is_ai": true,
      "track_id": 2,
      "velocity": 0,
      "is_motor": false,
      "motor_id": 0,
      "accel_val": 2000,
      "base_duration_us": 3370613
    },
    {
      "id": "M_2831",
      "pitch": 66,
      "t_note_us": 207670431,
      "t_trigger_us": 207534468,
      "is_ai": false,
      "track_id": 0,
      "velocity": 0,
      "is_motor": true,
      "motor_id": 1,
      "accel_val": 2000,
      "base_duration_us": 258611
    },
    {
      "id": "M_2836",
      "pitch": 74,
      "t_note_us": 207670431,
      "t_trigger_us": 207534468,
      "is_ai": false,
      "track_id": 0,
      "velocity": 0,
      "is_motor": true,
      "motor_id": 2,
      "accel_val": 2000,
      "base_duration_us": 258611
    },
    {
      "id": "M_2856",
      "pitch": 83,
      "t_note_us": 207929042,
      "t_trigger_us": 207793079,
      "is_ai": true,
      "track_id": 2,
      "velocity": 0,
      "is_motor": false,
      "motor_id": 0,
      "accel_val": 2000,
      "base_duration_us": 1034466
    },
    {
      "id": "M_2859",
      "pitch": 93,
      "t_note_us": 207929042,
      "t_trigger_us": 207793079,
      "is_ai": true,
      "track_id": 8,
      "velocity": 0,
      "is_motor": false,
      "motor_id": 0,
      "accel_val": 2000,
      "base_duration_us": 1034466
    },
    {
      "id": "M_2863",
      "pitch": 83,
      "t_note_us": 207929042,
      "t_trigger_us": 207793079,
      "is_ai": true,
      "track_id": 2,
      "velocity": 0,
      "is_motor": false,
      "motor_id": 0,
      "accel_val": 2000,
      "base_duration_us": 1034466
    },
    {
      "id": "M_2844",
      "pitch": 59,
      "t_note_us": 207929042,
      "t_trigger_us": 207793079,
      "is_ai": false,
      "track_id": 0,
      "velocity": 0,
      "is_motor": true,
      "motor_id": 0,
      "accel_val": 2000,
      "base_duration_us": 258611
    },
    {
      "id": "M_2845",
      "pitch": 59,
      "t_note_us": 207929042,
      "t_trigger_us": 207793079,
      "is_ai": false,
      "track_id": 0,
      "velocity": 0,
      "is_motor": true,
      "motor_id": 1,
      "accel_val": 2000,
      "base_duration_us": 258611
    },
    {
      "id": "M_2849",
      "pitch": 56,
      "t_note_us": 207929042,
      "t_trigger_us": 207793079,
      "is_ai": false,
      "track_id": 0,
      "velocity": 0,
      "is_motor": true,
      "motor_id": 2,
      "accel_val": 2000,
      "base_duration_us": 517230
    },
    {
      "id": "M_2853",
      "pitch": 52,
      "t_note_us": 207929042,
      "t_trigger_us": 207793079,
      "is_ai": false,
      "track_id": 0,
      "velocity": 0,
      "is_motor": true,
      "motor_id": 3,
      "accel_val": 2000,
      "base_duration_us": 775848
    },
    {
      "id": "M_2855",
      "pitch": 78,
      "t_note_us": 207929042,
      "t_trigger_us": 207793079,
      "is_ai": false,
      "track_id": 0,
      "velocity": 0,
      "is_motor": true,
      "motor_id": 0,
      "accel_val": 2000,
      "base_duration_us": 1034466
    },
    {
      "id": "M_2857",
      "pitch": 75,
      "t_note_us": 207929042,
      "t_trigger_us": 207793079,
      "is_ai": false,
      "track_id": 0,
      "velocity": 0,
      "is_motor": true,
      "motor_id": 0,
      "accel_val": 2000,
      "base_duration_us": 1034466
    },
    {
      "id": "M_2858",
      "pitch": 51,
      "t_note_us": 207929042,
      "t_trigger_us": 207793079,
      "is_ai": false,
      "track_id": 0,
      "velocity": 0,
      "is_motor": true,
      "motor_id": 0,
      "accel_val": 2000,
      "base_duration_us": 1034466
    },
    {
      "id": "M_2861",
      "pitch": 75,
      "t_note_us": 207929042,
      "t_trigger_us": 207793079,
      "is_ai": false,
      "track_id": 0,
      "velocity": 0,
      "is_motor": true,
      "motor_id": 0,
      "accel_val": 2000,
      "base_duration_us": 1034466
    },
    {
      "id": "M_2862",
      "pitch": 63,
      "t_note_us": 207929042,
      "t_trigger_us": 207793079,
      "is_ai": false,
      "track_id": 0,
      "velocity": 0,
      "is_motor": true,
      "motor_id": 0,
      "accel_val": 2000,
      "base_duration_us": 1034466
    },
    {
      "id": "M_2864",
      "pitch": 78,
      "t_note_us": 207929042,
      "t_trigger_us": 207793079,
      "is_ai": false,
      "track_id": 0,
      "velocity": 0,
      "is_motor": true,
      "motor_id": 0,
      "accel_val": 2000,
      "base_duration_us": 1034466
    },
    {
      "id": "M_2865",
      "pitch": 75,
      "t_note_us": 207929042,
      "t_trigger_us": 207793079,
      "is_ai": false,
      "track_id": 0,
      "velocity": 0,
      "is_motor": true,
      "motor_id": 0,
      "accel_val": 2000,
      "base_duration_us": 1034466
    },
    {
      "id": "M_2846",
      "pitch": 95,
      "t_note_us": 208187653,
      "t_trigger_us": 208051690,
      "is_ai": true,
      "track_id": 9,
      "velocity": 0,
      "is_motor": false,
      "motor_id": 0,
      "accel_val": 2000,
      "base_duration_us": 258619
    },
    {
      "id": "M_2847",
      "pitch": 63,
      "t_note_us": 208187653,
      "t_trigger_us": 208051690,
      "is_ai": false,
      "track_id": 0,
      "velocity": 0,
      "is_motor": true,
      "motor_id": 1,
      "accel_val": 2000,
      "base_duration_us": 258619
    },
    {
      "id": "M_2848",
      "pitch": 63,
      "t_note_us": 208187653,
      "t_trigger_us": 208051690,
      "is_ai": false,
      "track_id": 0,
      "velocity": 0,
      "is_motor": true,
      "motor_id": 0,
      "accel_val": 2000,
      "base_duration_us": 258619
    },
    {
      "id": "M_2850",
      "pitch": 96,
      "t_note_us": 208446272,
      "t_trigger_us": 208310309,
      "is_ai": true,
      "track_id": 10,
      "velocity": 0,
      "is_motor": false,
      "motor_id": 0,
      "accel_val": 2000,
      "base_duration_us": 258618
    },
    {
      "id": "M_2851",
      "pitch": 66,
      "t_note_us": 208446272,
      "t_trigger_us": 208310309,
      "is_ai": false,
      "track_id": 0,
      "velocity": 0,
      "is_motor": true,
      "motor_id": 1,
      "accel_val": 2000,
      "base_duration_us": 258618
    },
    {
      "id": "M_2852",
      "pitch": 66,
      "t_note_us": 208446272,
      "t_trigger_us": 208310309,
      "is_ai": false,
      "track_id": 0,
      "velocity": 0,
      "is_motor": true,
      "motor_id": 2,
      "accel_val": 2000,
      "base_duration_us": 258618
    },
    {
      "id": "M_2867",
      "pitch": 56,
      "t_note_us": 208446272,
      "t_trigger_us": 208310309,
      "is_ai": false,
      "track_id": 0,
      "velocity": 0,
      "is_motor": true,
      "motor_id": 0,
      "accel_val": 2000,
      "base_duration_us": 517236
    },
    {
      "id": "M_2869",
      "pitch": 95,
      "t_note_us": 208704890,
      "t_trigger_us": 208568927,
      "is_ai": true,
      "track_id": 9,
      "velocity": 0,
      "is_motor": false,
      "motor_id": 0,
      "accel_val": 2000,
      "base_duration_us": 775854
    },
    {
      "id": "M_2854",
      "pitch": 71,
      "t_note_us": 208704890,
      "t_trigger_us": 208568927,
      "is_ai": false,
      "track_id": 0,
      "velocity": 0,
      "is_motor": true,
      "motor_id": 1,
      "accel_val": 2000,
      "base_duration_us": 258618
    },
    {
      "id": "M_2860",
      "pitch": 71,
      "t_note_us": 208704890,
      "t_trigger_us": 208568927,
      "is_ai": false,
      "track_id": 0,
      "velocity": 0,
      "is_motor": true,
      "motor_id": 2,
      "accel_val": 2000,
      "base_duration_us": 258618
    },
    {
      "id": "M_2866",
      "pitch": 50,
      "t_note_us": 208704890,
      "t_trigger_us": 208568927,
      "is_ai": false,
      "track_id": 0,
      "velocity": 0,
      "is_motor": true,
      "motor_id": 3,
      "accel_val": 2000,
      "base_duration_us": 258618
    },
    {
      "id": "M_2894",
      "pitch": 91,
      "t_note_us": 208963508,
      "t_trigger_us": 208827545,
      "is_ai": true,
      "track_id": 7,
      "velocity": 0,
      "is_motor": false,
      "motor_id": 0,
      "accel_val": 2000,
      "base_duration_us": 2068916
    },
    {
      "id": "M_2868",
      "pitch": 64,
      "t_note_us": 208963508,
      "t_trigger_us": 208827545,
      "is_ai": false,
      "track_id": 0,
      "velocity": 0,
      "is_motor": true,
      "motor_id": 1,
      "accel_val": 2000,
      "base_duration_us": 258617
    },
    {
      "id": "M_2870",
      "pitch": 64,
      "t_note_us": 208963508,
      "t_trigger_us": 208827545,
      "is_ai": false,
      "track_id": 0,
      "velocity": 0,
      "is_motor": true,
      "motor_id": 0,
      "accel_val": 2000,
      "base_duration_us": 517236
    },
    {
      "id": "M_2872",
      "pitch": 56,
      "t_note_us": 208963508,
      "t_trigger_us": 208827545,
      "is_ai": false,
      "track_id": 0,
      "velocity": 0,
      "is_motor": true,
      "motor_id": 2,
      "accel_val": 2000,
      "base_duration_us": 517236
    },
    {
      "id": "M_2877",
      "pitch": 71,
      "t_note_us": 208963508,
      "t_trigger_us": 208827545,
      "is_ai": false,
      "track_id": 0,
      "velocity": 0,
      "is_motor": true,
      "motor_id": 3,
      "accel_val": 2000,
      "base_duration_us": 1034466
    },
    {
      "id": "M_2878",
      "pitch": 67,
      "t_note_us": 208963508,
      "t_trigger_us": 208827545,
      "is_ai": false,
      "track_id": 0,
      "velocity": 0,
      "is_motor": true,
      "motor_id": 0,
      "accel_val": 2000,
      "base_duration_us": 1034466
    },
    {
      "id": "M_2881",
      "pitch": 50,
      "t_note_us": 208963508,
      "t_trigger_us": 208827545,
      "is_ai": false,
      "track_id": 0,
      "velocity": 0,
      "is_motor": true,
      "motor_id": 0,
      "accel_val": 2000,
      "base_duration_us": 1034466
    },
    {
      "id": "M_2888",
      "pitch": 52,
      "t_note_us": 208963508,
      "t_trigger_us": 208827545,
      "is_ai": false,
      "track_id": 0,
      "velocity": 0,
      "is_motor": true,
      "motor_id": 0,
      "accel_val": 2000,
      "base_duration_us": 1810307
    },
    {
      "id": "M_2896",
      "pitch": 76,
      "t_note_us": 208963508,
      "t_trigger_us": 208827545,
      "is_ai": false,
      "track_id": 0,
      "velocity": 0,
      "is_motor": true,
      "motor_id": 0,
      "accel_val": 2000,
      "base_duration_us": 2068916
    },
    {
      "id": "M_2897",
      "pitch": 64,
      "t_note_us": 208963508,
      "t_trigger_us": 208827545,
      "is_ai": false,
      "track_id": 0,
      "velocity": 0,
      "is_motor": true,
      "motor_id": 0,
      "accel_val": 2000,
      "base_duration_us": 2068916
    },
    {
      "id": "M_2898",
      "pitch": 76,
      "t_note_us": 208963508,
      "t_trigger_us": 208827545,
      "is_ai": false,
      "track_id": 0,
      "velocity": 0,
      "is_motor": true,
      "motor_id": 0,
      "accel_val": 2000,
      "base_duration_us": 2068916
    },
    {
      "id": "M_2899",
      "pitch": 71,
      "t_note_us": 208963508,
      "t_trigger_us": 208827545,
      "is_ai": false,
      "track_id": 0,
      "velocity": 0,
      "is_motor": true,
      "motor_id": 0,
      "accel_val": 2000,
      "base_duration_us": 2068916
    },
    {
      "id": "M_2900",
      "pitch": 67,
      "t_note_us": 208963508,
      "t_trigger_us": 208827545,
      "is_ai": false,
      "track_id": 0,
      "velocity": 0,
      "is_motor": true,
      "motor_id": 0,
      "accel_val": 2000,
      "base_duration_us": 2068916
    },
    {
      "id": "M_2871",
      "pitch": 71,
      "t_note_us": 209222125,
      "t_trigger_us": 209086162,
      "is_ai": false,
      "track_id": 0,
      "velocity": 0,
      "is_motor": true,
      "motor_id": 1,
      "accel_val": 2000,
      "base_duration_us": 258619
    },
    {
      "id": "M_2873",
      "pitch": 93,
      "t_note_us": 209480744,
      "t_trigger_us": 209344781,
      "is_ai": true,
      "track_id": 8,
      "velocity": 0,
      "is_motor": false,
      "motor_id": 0,
      "accel_val": 2000,
      "base_duration_us": 258616
    },
    {
      "id": "M_2874",
      "pitch": 71,
      "t_note_us": 209480744,
      "t_trigger_us": 209344781,
      "is_ai": false,
      "track_id": 0,
      "velocity": 0,
      "is_motor": true,
      "motor_id": 1,
      "accel_val": 2000,
      "base_duration_us": 258616
    },
    {
      "id": "M_2875",
      "pitch": 76,
      "t_note_us": 209480744,
      "t_trigger_us": 209344781,
      "is_ai": false,
      "track_id": 0,
      "velocity": 0,
      "is_motor": true,
      "motor_id": 2,
      "accel_val": 2000,
      "base_duration_us": 258616
    },
    {
      "id": "M_2880",
      "pitch": 56,
      "t_note_us": 209480744,
      "t_trigger_us": 209344781,
      "is_ai": false,
      "track_id": 0,
      "velocity": 0,
      "is_motor": true,
      "motor_id": 0,
      "accel_val": 2000,
      "base_duration_us": 517230
    },
    {
      "id": "M_2882",
      "pitch": 91,
      "t_note_us": 209739360,
      "t_trigger_us": 209603397,
      "is_ai": true,
      "track_id": 7,
      "velocity": 0,
      "is_motor": false,
      "motor_id": 0,
      "accel_val": 2000,
      "base_duration_us": 517231
    },
    {
      "id": "M_2876",
      "pitch": 76,
      "t_note_us": 209739360,
      "t_trigger_us": 209603397,
      "is_ai": false,
      "track_id": 0,
      "velocity": 0,
      "is_motor": true,
      "motor_id": 2,
      "accel_val": 2000,
      "base_duration_us": 258614
    },
    {
      "id": "M_2879",
      "pitch": 71,
      "t_note_us": 209739360,
      "t_trigger_us": 209603397,
      "is_ai": false,
      "track_id": 0,
      "velocity": 0,
      "is_motor": true,
      "motor_id": 1,
      "accel_val": 2000,
      "base_duration_us": 258614
    },
    {
      "id": "M_2883",
      "pitch": 67,
      "t_note_us": 209997974,
      "t_trigger_us": 209862011,
      "is_ai": false,
      "track_id": 0,
      "velocity": 0,
      "is_motor": true,
      "motor_id": 1,
      "accel_val": 2000,
      "base_duration_us": 258617
    },
    {
      "id": "M_2886",
      "pitch": 56,
      "t_note_us": 209997974,
      "t_trigger_us": 209862011,
      "is_ai": false,
      "track_id": 0,
      "velocity": 0,
      "is_motor": true,
      "motor_id": 0,
      "accel_val": 2000,
      "base_duration_us": 517233
    },
    {
      "id": "M_2890",
      "pitch": 52,
      "t_note_us": 209997974,
      "t_trigger_us": 209862011,
      "is_ai": false,
      "track_id": 0,
      "velocity": 0,
      "is_motor": true,
      "motor_id": 2,
      "accel_val": 2000,
      "base_duration_us": 775841
    },
    {
      "id": "M_2884",
      "pitch": 88,
      "t_note_us": 210256591,
      "t_trigger_us": 210120628,
      "is_ai": true,
      "track_id": 5,
      "velocity": 0,
      "is_motor": false,
      "motor_id": 0,
      "accel_val": 2000,
      "base_duration_us": 258616
    },
    {
      "id": "M_2891",
      "pitch": 93,
      "t_note_us": 210256591,
      "t_trigger_us": 210120628,
      "is_ai": true,
      "track_id": 8,
      "velocity": 0,
      "is_motor": false,
      "motor_id": 0,
      "accel_val": 2000,
      "base_duration_us": 775833
    },
    {
      "id": "M_2885",
      "pitch": 71,
      "t_note_us": 210256591,
      "t_trigger_us": 210120628,
      "is_ai": false,
      "track_id": 0,
      "velocity": 0,
      "is_motor": true,
      "motor_id": 1,
      "accel_val": 2000,
      "base_duration_us": 258616
    },
    {
      "id": "M_2887",
      "pitch": 90,
      "t_note_us": 210515207,
      "t_trigger_us": 210379244,
      "is_ai": true,
      "track_id": 0,
      "velocity": 0,
      "is_motor": true,
      "motor_id": 3,
      "accel_val": 2000,
      "base_duration_us": 258608
    },
    {
      "id": "M_2889",
      "pitch": 76,
      "t_note_us": 210515207,
      "t_trigger_us": 210379244,
      "is_ai": false,
      "track_id": 0,
      "velocity": 0,
      "is_motor": true,
      "motor_id": 1,
      "accel_val": 2000,
      "base_duration_us": 258608
    },
    {
      "id": "M_2902",
      "pitch": 56,
      "t_note_us": 210515207,
      "t_trigger_us": 210379244,
      "is_ai": false,
      "track_id": 0,
      "velocity": 0,
      "is_motor": true,
      "motor_id": 0,
      "accel_val": 2000,
      "base_duration_us": 517217
    },
    {
      "id": "M_2892",
      "pitch": 91,
      "t_note_us": 210773815,
      "t_trigger_us": 210637852,
      "is_ai": true,
      "track_id": 7,
      "velocity": 0,
      "is_motor": false,
      "motor_id": 0,
      "accel_val": 2000,
      "base_duration_us": 258609
    },
    {
      "id": "M_2893",
      "pitch": 52,
      "t_note_us": 210773815,
      "t_trigger_us": 210637852,
      "is_ai": false,
      "track_id": 0,
      "velocity": 0,
      "is_motor": true,
      "motor_id": 1,
      "accel_val": 2000,
      "base_duration_us": 258609
    },
    {
      "id": "M_2895",
      "pitch": 71,
      "t_note_us": 210773815,
      "t_trigger_us": 210637852,
      "is_ai": false,
      "track_id": 0,
      "velocity": 0,
      "is_motor": true,
      "motor_id": 2,
      "accel_val": 2000,
      "base_duration_us": 258609
    },
    {
      "id": "M_2901",
      "pitch": 50,
      "t_note_us": 210773815,
      "t_trigger_us": 210637852,
      "is_ai": false,
      "track_id": 0,
      "velocity": 0,
      "is_motor": true,
      "motor_id": 3,
      "accel_val": 2000,
      "base_duration_us": 258609
    },
    {
      "id": "M_2905",
      "pitch": 90,
      "t_note_us": 211032424,
      "t_trigger_us": 210896461,
      "is_ai": true,
      "track_id": 0,
      "velocity": 0,
      "is_motor": true,
      "motor_id": 3,
      "accel_val": 2000,
      "base_duration_us": 517234
    },
    {
      "id": "M_2914",
      "pitch": 90,
      "t_note_us": 211032424,
      "t_trigger_us": 210896461,
      "is_ai": true,
      "track_id": 0,
      "velocity": 0,
      "is_motor": true,
      "motor_id": 2,
      "accel_val": 2000,
      "base_duration_us": 1551709
    },
    {
      "id": "M_2924",
      "pitch": 90,
      "t_note_us": 211032424,
      "t_trigger_us": 210896461,
      "is_ai": true,
      "track_id": 0,
      "velocity": 0,
      "is_motor": true,
      "motor_id": 1,
      "accel_val": 2000,
      "base_duration_us": 2068944
    },
    {
      "id": "M_2930",
      "pitch": 83,
      "t_note_us": 211032424,
      "t_trigger_us": 210896461,
      "is_ai": true,
      "track_id": 2,
      "velocity": 0,
      "is_motor": false,
      "motor_id": 0,
      "accel_val": 2000,
      "base_duration_us": 2068944
    },
    {
      "id": "M_2904",
      "pitch": 59,
      "t_note_us": 211032424,
      "t_trigger_us": 210896461,
      "is_ai": false,
      "track_id": 0,
      "velocity": 0,
      "is_motor": true,
      "motor_id": 0,
      "accel_val": 2000,
      "base_duration_us": 258616
    },
    {
      "id": "M_2907",
      "pitch": 56,
      "t_note_us": 211032424,
      "t_trigger_us": 210896461,
      "is_ai": false,
      "track_id": 0,
      "velocity": 0,
      "is_motor": true,
      "motor_id": 0,
      "accel_val": 2000,
      "base_duration_us": 517234
    },
    {
      "id": "M_2912",
      "pitch": 50,
      "t_note_us": 211032424,
      "t_trigger_us": 210896461,
      "is_ai": false,
      "track_id": 0,
      "velocity": 0,
      "is_motor": true,
      "motor_id": 0,
      "accel_val": 2000,
      "base_duration_us": 1034472
    },
    {
      "id": "M_2918",
      "pitch": 47,
      "t_note_us": 211032424,
      "t_trigger_us": 210896461,
      "is_ai": false,
      "track_id": 0,
      "velocity": 0,
      "is_motor": true,
      "motor_id": 0,
      "accel_val": 2000,
      "base_duration_us": 1810326
    },
    {
      "id": "M_2922",
      "pitch": 59,
      "t_note_us": 211032424,
      "t_trigger_us": 210896461,
      "is_ai": false,
      "track_id": 0,
      "velocity": 0,
      "is_motor": true,
      "motor_id": 0,
      "accel_val": 2000,
      "base_duration_us": 2068944
    },
    {
      "id": "M_2923",
      "pitch": 71,
      "t_note_us": 211032424,
      "t_trigger_us": 210896461,
      "is_ai": false,
      "track_id": 0,
      "velocity": 0,
      "is_motor": true,
      "motor_id": 0,
      "accel_val": 2000,
      "base_duration_us": 2068944
    },
    {
      "id": "M_2928",
      "pitch": 71,
      "t_note_us": 211032424,
      "t_trigger_us": 210896461,
      "is_ai": false,
      "track_id": 0,
      "velocity": 0,
      "is_motor": true,
      "motor_id": 0,
      "accel_val": 2000,
      "base_duration_us": 2068944
    },
    {
      "id": "M_2929",
      "pitch": 59,
      "t_note_us": 211032424,
      "t_trigger_us": 210896461,
      "is_ai": false,
      "track_id": 0,
      "velocity": 0,
      "is_motor": true,
      "motor_id": 0,
      "accel_val": 2000,
      "base_duration_us": 2068944
    },
    {
      "id": "M_2931",
      "pitch": 78,
      "t_note_us": 211032424,
      "t_trigger_us": 210896461,
      "is_ai": false,
      "track_id": 0,
      "velocity": 0,
      "is_motor": true,
      "motor_id": 0,
      "accel_val": 2000,
      "base_duration_us": 2068944
    },
    {
      "id": "M_2932",
      "pitch": 74,
      "t_note_us": 211032424,
      "t_trigger_us": 210896461,
      "is_ai": false,
      "track_id": 0,
      "velocity": 0,
      "is_motor": true,
      "motor_id": 0,
      "accel_val": 2000,
      "base_duration_us": 2068944
    },
    {
      "id": "M_2906",
      "pitch": 66,
      "t_note_us": 211291040,
      "t_trigger_us": 211155077,
      "is_ai": false,
      "track_id": 0,
      "velocity": 0,
      "is_motor": true,
      "motor_id": 0,
      "accel_val": 2000,
      "base_duration_us": 258618
    },
    {
      "id": "M_2908",
      "pitch": 88,
      "t_note_us": 211549658,
      "t_trigger_us": 211413695,
      "is_ai": true,
      "track_id": 5,
      "velocity": 0,
      "is_motor": false,
      "motor_id": 0,
      "accel_val": 2000,
      "base_duration_us": 258618
    },
    {
      "id": "M_2909",
      "pitch": 71,
      "t_note_us": 211549658,
      "t_trigger_us": 211413695,
      "is_ai": false,
      "track_id": 0,
      "velocity": 0,
      "is_motor": true,
      "motor_id": 0,
      "accel_val": 2000,
      "base_duration_us": 258618
    },
    {
      "id": "M_2911",
      "pitch": 56,
      "t_note_us": 211549658,
      "t_trigger_us": 211413695,
      "is_ai": false,
      "track_id": 0,
      "velocity": 0,
      "is_motor": true,
      "motor_id": 3,
      "accel_val": 2000,
      "base_duration_us": 517238
    },
    {
      "id": "M_2917",
      "pitch": 86,
      "t_note_us": 211808276,
      "t_trigger_us": 211672313,
      "is_ai": true,
      "track_id": 4,
      "velocity": 0,
      "is_motor": false,
      "motor_id": 0,
      "accel_val": 2000,
      "base_duration_us": 1034474
    },
    {
      "id": "M_2910",
      "pitch": 66,
      "t_note_us": 211808276,
      "t_trigger_us": 211672313,
      "is_ai": false,
      "track_id": 0,
      "velocity": 0,
      "is_motor": true,
      "motor_id": 0,
      "accel_val": 2000,
      "base_duration_us": 258620
    },
    {
      "id": "M_2913",
      "pitch": 74,
      "t_note_us": 212066896,
      "t_trigger_us": 211930933,
      "is_ai": false,
      "track_id": 0,
      "velocity": 0,
      "is_motor": true,
      "motor_id": 0,
      "accel_val": 2000,
      "base_duration_us": 258619
    },
    {
      "id": "M_2916",
      "pitch": 56,
      "t_note_us": 212066896,
      "t_trigger_us": 211930933,
      "is_ai": false,
      "track_id": 0,
      "velocity": 0,
      "is_motor": true,
      "motor_id": 3,
      "accel_val": 2000,
      "base_duration_us": 517237
    },
    {
      "id": "M_2920",
      "pitch": 52,
      "t_note_us": 212066896,
      "t_trigger_us": 211930933,
      "is_ai": false,
      "track_id": 0,
      "velocity": 0,
      "is_motor": true,
      "motor_id": 0,
      "accel_val": 2000,
      "base_duration_us": 775854
    },
    {
      "id": "M_2915",
      "pitch": 66,
      "t_note_us": 212325515,
      "t_trigger_us": 212189552,
      "is_ai": false,
      "track_id": 0,
      "velocity": 0,
      "is_motor": true,
      "motor_id": 0,
      "accel_val": 2000,
      "base_duration_us": 258618
    },
    {
      "id": "M_2926",
      "pitch": 86,
      "t_note_us": 212584133,
      "t_trigger_us": 212448170,
      "is_ai": true,
      "track_id": 4,
      "velocity": 0,
      "is_motor": false,
      "motor_id": 0,
      "accel_val": 2000,
      "base_duration_us": 517235
    },
    {
      "id": "M_2919",
      "pitch": 71,
      "t_note_us": 212584133,
      "t_trigger_us": 212448170,
      "is_ai": false,
      "track_id": 0,
      "velocity": 0,
      "is_motor": true,
      "motor_id": 2,
      "accel_val": 2000,
      "base_duration_us": 258617
    },
    {
      "id": "M_2934",
      "pitch": 56,
      "t_note_us": 212584133,
      "t_trigger_us": 212448170,
      "is_ai": false,
      "track_id": 0,
      "velocity": 0,
      "is_motor": true,
      "motor_id": 0,
      "accel_val": 2000,
      "base_duration_us": 517235
    },
    {
      "id": "M_2921",
      "pitch": 86,
      "t_note_us": 212842750,
      "t_trigger_us": 212706787,
      "is_ai": true,
      "track_id": 4,
      "velocity": 0,
      "is_motor": false,
      "motor_id": 0,
      "accel_val": 2000,
      "base_duration_us": 258618
    },
    {
      "id": "M_2925",
      "pitch": 47,
      "t_note_us": 212842750,
      "t_trigger_us": 212706787,
      "is_ai": false,
      "track_id": 0,
      "velocity": 0,
      "is_motor": true,
      "motor_id": 2,
      "accel_val": 2000,
      "base_duration_us": 258618
    },
    {
      "id": "M_2927",
      "pitch": 66,
      "t_note_us": 212842750,
      "t_trigger_us": 212706787,
      "is_ai": false,
      "track_id": 0,
      "velocity": 0,
      "is_motor": true,
      "motor_id": 3,
      "accel_val": 2000,
      "base_duration_us": 258618
    },
    {
      "id": "M_2933",
      "pitch": 50,
      "t_note_us": 212842750,
      "t_trigger_us": 212706787,
      "is_ai": false,
      "track_id": 0,
      "velocity": 0,
      "is_motor": true,
      "motor_id": 0,
      "accel_val": 2000,
      "base_duration_us": 258618
    },
    {
      "id": "M_2937",
      "pitch": 88,
      "t_note_us": 213101368,
      "t_trigger_us": 212965405,
      "is_ai": true,
      "track_id": 5,
      "velocity": 0,
      "is_motor": false,
      "motor_id": 0,
      "accel_val": 2000,
      "base_duration_us": 344824
    },
    {
      "id": "M_2945",
      "pitch": 84,
      "t_note_us": 213101368,
      "t_trigger_us": 212965405,
      "is_ai": true,
      "track_id": 3,
      "velocity": 0,
      "is_motor": false,
      "motor_id": 0,
      "accel_val": 2000,
      "base_duration_us": 1034471
    },
    {
      "id": "M_2955",
      "pitch": 88,
      "t_note_us": 213101368,
      "t_trigger_us": 212965405,
      "is_ai": true,
      "track_id": 5,
      "velocity": 0,
      "is_motor": false,
      "motor_id": 0,
      "accel_val": 2000,
      "base_duration_us": 1551707
    },
    {
      "id": "M_2970",
      "pitch": 84,
      "t_note_us": 213101368,
      "t_trigger_us": 212965405,
      "is_ai": true,
      "track_id": 3,
      "velocity": 0,
      "is_motor": false,
      "motor_id": 0,
      "accel_val": 2000,
      "base_duration_us": 2068942
    },
    {
      "id": "M_2935",
      "pitch": 60,
      "t_note_us": 213101368,
      "t_trigger_us": 212965405,
      "is_ai": false,
      "track_id": 0,
      "velocity": 0,
      "is_motor": true,
      "motor_id": 1,
      "accel_val": 2000,
      "base_duration_us": 258618
    },
    {
      "id": "M_2936",
      "pitch": 50,
      "t_note_us": 213101368,
      "t_trigger_us": 212965405,
      "is_ai": false,
      "track_id": 0,
      "velocity": 0,
      "is_motor": true,
      "motor_id": 0,
      "accel_val": 2000,
      "base_duration_us": 258618
    },
    {
      "id": "M_2938",
      "pitch": 60,
      "t_note_us": 213101368,
      "t_trigger_us": 212965405,
      "is_ai": false,
      "track_id": 0,
      "velocity": 0,
      "is_motor": true,
      "motor_id": 2,
      "accel_val": 2000,
      "base_duration_us": 517236
    },
    {
      "id": "M_2946",
      "pitch": 67,
      "t_note_us": 213101368,
      "t_trigger_us": 212965405,
      "is_ai": false,
      "track_id": 0,
      "velocity": 0,
      "is_motor": true,
      "motor_id": 3,
      "accel_val": 2000,
      "base_duration_us": 1034471
    },
    {
      "id": "M_2954",
      "pitch": 48,
      "t_note_us": 213101368,
      "t_trigger_us": 212965405,
      "is_ai": false,
      "track_id": 0,
      "velocity": 0,
      "is_motor": true,
      "motor_id": 0,
      "accel_val": 2000,
      "base_duration_us": 1551707
    },
    {
      "id": "M_2966",
      "pitch": 60,
      "t_note_us": 213101368,
      "t_trigger_us": 212965405,
      "is_ai": false,
      "track_id": 0,
      "velocity": 0,
      "is_motor": true,
      "motor_id": 0,
      "accel_val": 2000,
      "base_duration_us": 2068942
    },
    {
      "id": "M_2967",
      "pitch": 72,
      "t_note_us": 213101368,
      "t_trigger_us": 212965405,
      "is_ai": false,
      "track_id": 0,
      "velocity": 0,
      "is_motor": true,
      "motor_id": 0,
      "accel_val": 2000,
      "base_duration_us": 2068942
    },
    {
      "id": "M_2968",
      "pitch": 76,
      "t_note_us": 213101368,
      "t_trigger_us": 212965405,
      "is_ai": false,
      "track_id": 0,
      "velocity": 0,
      "is_motor": true,
      "motor_id": 0,
      "accel_val": 2000,
      "base_duration_us": 2068942
    },
    {
      "id": "M_2969",
      "pitch": 67,
      "t_note_us": 213101368,
      "t_trigger_us": 212965405,
      "is_ai": false,
      "track_id": 0,
      "velocity": 0,
      "is_motor": true,
      "motor_id": 0,
      "accel_val": 2000,
      "base_duration_us": 2068942
    },
    {
      "id": "M_2939",
      "pitch": 67,
      "t_note_us": 213359986,
      "t_trigger_us": 213224023,
      "is_ai": false,
      "track_id": 0,
      "velocity": 0,
      "is_motor": true,
      "motor_id": 1,
      "accel_val": 2000,
      "base_duration_us": 258618
    },
    {
      "id": "M_2943",
      "pitch": 61,
      "t_note_us": 213359986,
      "t_trigger_us": 213224023,
      "is_ai": false,
      "track_id": 0,
      "velocity": 0,
      "is_motor": true,
      "motor_id": 0,
      "accel_val": 2000,
      "base_duration_us": 517235
    },
    {
      "id": "M_2940",
      "pitch": 91,
      "t_note_us": 213446192,
      "t_trigger_us": 213310229,
      "is_ai": true,
      "track_id": 7,
      "velocity": 0,
      "is_motor": false,
      "motor_id": 0,
      "accel_val": 2000,
      "base_duration_us": 344823
    },
    {
      "id": "M_2941",
      "pitch": 72,
      "t_note_us": 213618604,
      "t_trigger_us": 213482641,
      "is_ai": false,
      "track_id": 0,
      "velocity": 0,
      "is_motor": true,
      "motor_id": 1,
      "accel_val": 2000,
      "base_duration_us": 258617
    },
    {
      "id": "M_2942",
      "pitch": 72,
      "t_note_us": 213618604,
      "t_trigger_us": 213482641,
      "is_ai": false,
      "track_id": 0,
      "velocity": 0,
      "is_motor": true,
      "motor_id": 2,
      "accel_val": 2000,
      "base_duration_us": 258617
    },
    {
      "id": "M_2944",
      "pitch": 91,
      "t_note_us": 213791015,
      "t_trigger_us": 213655052,
      "is_ai": true,
      "track_id": 7,
      "velocity": 0,
      "is_motor": false,
      "motor_id": 0,
      "accel_val": 2000,
      "base_duration_us": 344824
    },
    {
      "id": "M_2947",
      "pitch": 76,
      "t_note_us": 213877221,
      "t_trigger_us": 213741258,
      "is_ai": false,
      "track_id": 0,
      "velocity": 0,
      "is_motor": true,
      "motor_id": 2,
      "accel_val": 2000,
      "base_duration_us": 258618
    },
    {
      "id": "M_2948",
      "pitch": 67,
      "t_note_us": 213877221,
      "t_trigger_us": 213741258,
      "is_ai": false,
      "track_id": 0,
      "velocity": 0,
      "is_motor": true,
      "motor_id": 1,
      "accel_val": 2000,
      "base_duration_us": 258618
    },
    {
      "id": "M_2949",
      "pitch": 59,
      "t_note_us": 213877221,
      "t_trigger_us": 213741258,
      "is_ai": false,
      "track_id": 0,
      "velocity": 0,
      "is_motor": true,
      "motor_id": 0,
      "accel_val": 2000,
      "base_duration_us": 258618
    },
    {
      "id": "M_2950",
      "pitch": 91,
      "t_note_us": 214135839,
      "t_trigger_us": 213999876,
      "is_ai": true,
      "track_id": 7,
      "velocity": 0,
      "is_motor": false,
      "motor_id": 0,
      "accel_val": 2000,
      "base_duration_us": 258618
    },
    {
      "id": "M_2951",
      "pitch": 76,
      "t_note_us": 214135839,
      "t_trigger_us": 213999876,
      "is_ai": false,
      "track_id": 0,
      "velocity": 0,
      "is_motor": true,
      "motor_id": 2,
      "accel_val": 2000,
      "base_duration_us": 258618
    },
    {
      "id": "M_2952",
      "pitch": 52,
      "t_note_us": 214135839,
      "t_trigger_us": 213999876,
      "is_ai": false,
      "track_id": 0,
      "velocity": 0,
      "is_motor": true,
      "motor_id": 0,
      "accel_val": 2000,
      "base_duration_us": 258618
    },
    {
      "id": "M_2958",
      "pitch": 95,
      "t_note_us": 214394457,
      "t_trigger_us": 214258494,
      "is_ai": true,
      "track_id": 9,
      "velocity": 0,
      "is_motor": false,
      "motor_id": 0,
      "accel_val": 2000,
      "base_duration_us": 517237
    },
    {
      "id": "M_2953",
      "pitch": 67,
      "t_note_us": 214394457,
      "t_trigger_us": 214258494,
      "is_ai": false,
      "track_id": 0,
      "velocity": 0,
      "is_motor": true,
      "motor_id": 1,
      "accel_val": 2000,
      "base_duration_us": 258618
    },
    {
      "id": "M_2956",
      "pitch": 67,
      "t_note_us": 214394457,
      "t_trigger_us": 214258494,
      "is_ai": false,
      "track_id": 0,
      "velocity": 0,
      "is_motor": true,
      "motor_id": 2,
      "accel_val": 2000,
      "base_duration_us": 258618
    },
    {
      "id": "M_2957",
      "pitch": 59,
      "t_note_us": 214394457,
      "t_trigger_us": 214258494,
      "is_ai": false,
      "track_id": 0,
      "velocity": 0,
      "is_motor": true,
      "motor_id": 0,
      "accel_val": 2000,
      "base_duration_us": 258618
    },
    {
      "id": "M_2959",
      "pitch": 84,
      "t_note_us": 214653075,
      "t_trigger_us": 214517112,
      "is_ai": true,
      "track_id": 3,
      "velocity": 0,
      "is_motor": false,
      "motor_id": 0,
      "accel_val": 2000,
      "base_duration_us": 258619
    },
    {
      "id": "M_2965",
      "pitch": 95,
      "t_note_us": 214653075,
      "t_trigger_us": 214517112,
      "is_ai": true,
      "track_id": 9,
      "velocity": 0,
      "is_motor": false,
      "motor_id": 0,
      "accel_val": 2000,
      "base_duration_us": 517235
    },
    {
      "id": "M_2960",
      "pitch": 72,
      "t_note_us": 214653075,
      "t_trigger_us": 214517112,
      "is_ai": false,
      "track_id": 0,
      "velocity": 0,
      "is_motor": true,
      "motor_id": 1,
      "accel_val": 2000,
      "base_duration_us": 258619
    },
    {
      "id": "M_2961",
      "pitch": 57,
      "t_note_us": 214653075,
      "t_trigger_us": 214517112,
      "is_ai": false,
      "track_id": 0,
      "velocity": 0,
      "is_motor": true,
      "motor_id": 0,
      "accel_val": 2000,
      "base_duration_us": 258619
    },
    {
      "id": "M_2963",
      "pitch": 88,
      "t_note_us": 214911694,
      "t_trigger_us": 214775731,
      "is_ai": true,
      "track_id": 5,
      "velocity": 0,
      "is_motor": false,
      "motor_id": 0,
      "accel_val": 2000,
      "base_duration_us": 258616
    },
    {
      "id": "M_2979",
      "pitch": 93,
      "t_note_us": 214911694,
      "t_trigger_us": 214775731,
      "is_ai": true,
      "track_id": 8,
      "velocity": 0,
      "is_motor": false,
      "motor_id": 0,
      "accel_val": 2000,
      "base_duration_us": 2844801
    },
    {
      "id": "M_2964",
      "pitch": 48,
      "t_note_us": 214911694,
      "t_trigger_us": 214775731,
      "is_ai": false,
      "track_id": 0,
      "velocity": 0,
      "is_motor": true,
      "motor_id": 0,
      "accel_val": 2000,
      "base_duration_us": 258616
    },
    {
      "id": "M_2971",
      "pitch": 55,
      "t_note_us": 214911694,
      "t_trigger_us": 214775731,
      "is_ai": false,
      "track_id": 0,
      "velocity": 0,
      "is_motor": true,
      "motor_id": 1,
      "accel_val": 2000,
      "base_duration_us": 258616
    },
    {
      "id": "M_2973",
      "pitch": 62,
      "t_note_us": 215015140,
      "t_trigger_us": 214879177,
      "is_ai": false,
      "track_id": 0,
      "velocity": 0,
      "is_motor": true,
      "motor_id": 2,
      "accel_val": 2000,
      "base_duration_us": 517236
    },
    {
      "id": "M_2962",
      "pitch": 90,
      "t_note_us": 215084105,
      "t_trigger_us": 214948142,
      "is_ai": true,
      "track_id": 0,
      "velocity": 0,
      "is_motor": true,
      "motor_id": 3,
      "accel_val": 2000,
      "base_duration_us": 86205
    },
    {
      "id": "M_2974",
      "pitch": 74,
      "t_note_us": 215084105,
      "t_trigger_us": 214948142,
      "is_ai": false,
      "track_id": 0,
      "velocity": 0,
      "is_motor": true,
      "motor_id": 0,
      "accel_val": 2000,
      "base_duration_us": 517236
    },
    {
      "id": "M_2972",
      "pitch": 93,
      "t_note_us": 215127208,
      "t_trigger_us": 214991245,
      "is_ai": true,
      "track_id": 8,
      "velocity": 0,
      "is_motor": false,
      "motor_id": 0,
      "accel_val": 2000,
      "base_duration_us": 86205
    },
    {
      "id": "M_2975",
      "pitch": 78,
      "t_note_us": 215127208,
      "t_trigger_us": 214991245,
      "is_ai": false,
      "track_id": 0,
      "velocity": 0,
      "is_motor": true,
      "motor_id": 0,
      "accel_val": 2000,
      "base_duration_us": 517236
    },
    {
      "id": "M_2980",
      "pitch": 98,
      "t_note_us": 215170310,
      "t_trigger_us": 215034347,
      "is_ai": true,
      "track_id": 11,
      "velocity": 0,
      "is_motor": false,
      "motor_id": 0,
      "accel_val": 2000,
      "base_duration_us": 2586185
    },
    {
      "id": "M_2984",
      "pitch": 93,
      "t_note_us": 215170310,
      "t_trigger_us": 215034347,
      "is_ai": true,
      "track_id": 8,
      "velocity": 0,
      "is_motor": false,
      "motor_id": 0,
      "accel_val": 2000,
      "base_duration_us": 2586185
    },
    {
      "id": "M_2976",
      "pitch": 69,
      "t_note_us": 215170310,
      "t_trigger_us": 215034347,
      "is_ai": false,
      "track_id": 0,
      "velocity": 0,
      "is_motor": true,
      "motor_id": 1,
      "accel_val": 2000,
      "base_duration_us": 517237
    },
    {
      "id": "M_2977",
      "pitch": 63,
      "t_note_us": 215170310,
      "t_trigger_us": 215034347,
      "is_ai": false,
      "track_id": 0,
      "velocity": 0,
      "is_motor": true,
      "motor_id": 0,
      "accel_val": 2000,
      "base_duration_us": 1034474
    },
    {
      "id": "M_2978",
      "pitch": 50,
      "t_note_us": 215170310,
      "t_trigger_us": 215034347,
      "is_ai": false,
      "track_id": 0,
      "velocity": 0,
      "is_motor": true,
      "motor_id": 3,
      "accel_val": 2000,
      "base_duration_us": 1034474
    },
    {
      "id": "M_2981",
      "pitch": 50,
      "t_note_us": 215170310,
      "t_trigger_us": 215034347,
      "is_ai": false,
      "track_id": 0,
      "velocity": 0,
      "is_motor": true,
      "motor_id": 0,
      "accel_val": 2000,
      "base_duration_us": 2586185
    },
    {
      "id": "M_2982",
      "pitch": 62,
      "t_note_us": 215170310,
      "t_trigger_us": 215034347,
      "is_ai": false,
      "track_id": 0,
      "velocity": 0,
      "is_motor": true,
      "motor_id": 0,
      "accel_val": 2000,
      "base_duration_us": 2586185
    },
    {
      "id": "M_2983",
      "pitch": 50,
      "t_note_us": 215170310,
      "t_trigger_us": 215034347,
      "is_ai": false,
      "track_id": 0,
      "velocity": 0,
      "is_motor": true,
      "motor_id": 0,
      "accel_val": 2000,
      "base_duration_us": 2586185
    },
    {
      "id": "M_2985",
      "pitch": 62,
      "t_note_us": 215170310,
      "t_trigger_us": 215034347,
      "is_ai": false,
      "track_id": 0,
      "velocity": 0,
      "is_motor": true,
      "motor_id": 0,
      "accel_val": 2000,
      "base_duration_us": 2586185
    },
    {
      "id": "M_2986",
      "pitch": 74,
      "t_note_us": 215170310,
      "t_trigger_us": 215034347,
      "is_ai": false,
      "track_id": 0,
      "velocity": 0,
      "is_motor": true,
      "motor_id": 0,
      "accel_val": 2000,
      "base_duration_us": 2586185
    },
    {
      "id": "M_2987",
      "pitch": 67,
      "t_note_us": 215170310,
      "t_trigger_us": 215034347,
      "is_ai": false,
      "track_id": 0,
      "velocity": 0,
      "is_motor": true,
      "motor_id": 0,
      "accel_val": 2000,
      "base_duration_us": 2586185
    },
    {
      "id": "M_2988",
      "pitch": 74,
      "t_note_us": 215170310,
      "t_trigger_us": 215034347,
      "is_ai": false,
      "track_id": 0,
      "velocity": 0,
      "is_motor": true,
      "motor_id": 0,
      "accel_val": 2000,
      "base_duration_us": 2586185
    },
    {
      "id": "M_2989",
      "pitch": 69,
      "t_note_us": 215170310,
      "t_trigger_us": 215034347,
      "is_ai": false,
      "track_id": 0,
      "velocity": 0,
      "is_motor": true,
      "motor_id": 0,
      "accel_val": 2000,
      "base_duration_us": 2586185
    },
    {
      "id": "M_2990",
      "pitch": 86,
      "t_note_us": 219308219,
      "t_trigger_us": 219172256,
      "is_ai": true,
      "track_id": 4,
      "velocity": 0,
      "is_motor": false,
      "motor_id": 0,
      "accel_val": 2000,
      "base_duration_us": 344827
    },
    {
      "id": "M_2991",
      "pitch": 91,
      "t_note_us": 219653046,
      "t_trigger_us": 219517083,
      "is_ai": true,
      "track_id": 7,
      "velocity": 0,
      "is_motor": false,
      "motor_id": 0,
      "accel_val": 2000,
      "base_duration_us": 344827
    },
    {
      "id": "M_2992",
      "pitch": 90,
      "t_note_us": 219997873,
      "t_trigger_us": 219861910,
      "is_ai": true,
      "track_id": 0,
      "velocity": 0,
      "is_motor": true,
      "motor_id": 3,
      "accel_val": 2000,
      "base_duration_us": 344827
    },
    {
      "id": "M_2994",
      "pitch": 83,
      "t_note_us": 220342700,
      "t_trigger_us": 220206737,
      "is_ai": true,
      "track_id": 2,
      "velocity": 0,
      "is_motor": false,
      "motor_id": 0,
      "accel_val": 2000,
      "base_duration_us": 517240
    },
    {
      "id": "M_2995",
      "pitch": 93,
      "t_note_us": 220342700,
      "t_trigger_us": 220206737,
      "is_ai": true,
      "track_id": 8,
      "velocity": 0,
      "is_motor": false,
      "motor_id": 0,
      "accel_val": 2000,
      "base_duration_us": 775860
    },
    {
      "id": "M_2993",
      "pitch": 67,
      "t_note_us": 220342700,
      "t_trigger_us": 220206737,
      "is_ai": false,
      "track_id": 0,
      "velocity": 0,
      "is_motor": true,
      "motor_id": 1,
      "accel_val": 2000,
      "base_duration_us": 258620
    },
    {
      "id": "M_2997",
      "pitch": 74,
      "t_note_us": 220601320,
      "t_trigger_us": 220465357,
      "is_ai": false,
      "track_id": 0,
      "velocity": 0,
      "is_motor": true,
      "motor_id": 1,
      "accel_val": 2000,
      "base_duration_us": 775860
    },
    {
      "id": "M_2996",
      "pitch": 86,
      "t_note_us": 220859940,
      "t_trigger_us": 220723977,
      "is_ai": true,
      "track_id": 4,
      "velocity": 0,
      "is_motor": false,
      "motor_id": 0,
      "accel_val": 2000,
      "base_duration_us": 258620
    },
    {
      "id": "M_2998",
      "pitch": 91,
      "t_note_us": 221118560,
      "t_trigger_us": 220982597,
      "is_ai": true,
      "track_id": 7,
      "velocity": 0,
      "is_motor": false,
      "motor_id": 0,
      "accel_val": 2000,
      "base_duration_us": 775861
    },
    {
      "id": "M_3006",
      "pitch": 91,
      "t_note_us": 221118560,
      "t_trigger_us": 220982597,
      "is_ai": true,
      "track_id": 7,
      "velocity": 0,
      "is_motor": false,
      "motor_id": 0,
      "accel_val": 2000,
      "base_duration_us": 3495240
    },
    {
      "id": "M_2999",
      "pitch": 93,
      "t_note_us": 221894421,
      "t_trigger_us": 221758458,
      "is_ai": true,
      "track_id": 8,
      "velocity": 0,
      "is_motor": false,
      "motor_id": 0,
      "accel_val": 2000,
      "base_duration_us": 258620
    },
    {
      "id": "M_3004",
      "pitch": 95,
      "t_note_us": 222153041,
      "t_trigger_us": 222017078,
      "is_ai": true,
      "track_id": 9,
      "velocity": 0,
      "is_motor": false,
      "motor_id": 0,
      "accel_val": 2000,
      "base_duration_us": 1298919
    },
    {
      "id": "M_3000",
      "pitch": 64,
      "t_note_us": 222411660,
      "t_trigger_us": 222275697,
      "is_ai": false,
      "track_id": 0,
      "velocity": 0,
      "is_motor": true,
      "motor_id": 1,
      "accel_val": 2000,
      "base_duration_us": 258620
    },
    {
      "id": "M_3001",
      "pitch": 72,
      "t_note_us": 222670280,
      "t_trigger_us": 222534317,
      "is_ai": false,
      "track_id": 0,
      "velocity": 0,
      "is_motor": true,
      "motor_id": 1,
      "accel_val": 2000,
      "base_duration_us": 258620
    },
    {
      "id": "M_3002",
      "pitch": 74,
      "t_note_us": 222928900,
      "t_trigger_us": 222792937,
      "is_ai": false,
      "track_id": 0,
      "velocity": 0,
      "is_motor": true,
      "motor_id": 1,
      "accel_val": 2000,
      "base_duration_us": 258620
    },
    {
      "id": "M_3003",
      "pitch": 83,
      "t_note_us": 223187520,
      "t_trigger_us": 223051557,
      "is_ai": true,
      "track_id": 2,
      "velocity": 0,
      "is_motor": false,
      "motor_id": 0,
      "accel_val": 2000,
      "base_duration_us": 264440
    },
    {
      "id": "M_3008",
      "pitch": 84,
      "t_note_us": 223451960,
      "t_trigger_us": 223315997,
      "is_ai": true,
      "track_id": 3,
      "velocity": 0,
      "is_motor": false,
      "motor_id": 0,
      "accel_val": 2000,
      "base_duration_us": 1161840
    },
    {
      "id": "M_3009",
      "pitch": 67,
      "t_note_us": 223451960,
      "t_trigger_us": 223315997,
      "is_ai": false,
      "track_id": 0,
      "velocity": 0,
      "is_motor": true,
      "motor_id": 1,
      "accel_val": 2000,
      "base_duration_us": 1161840
    },
    {
      "id": "M_3005",
      "pitch": 88,
      "t_note_us": 224427686,
      "t_trigger_us": 224291723,
      "is_ai": true,
      "track_id": 5,
      "velocity": 0,
      "is_motor": false,
      "motor_id": 0,
      "accel_val": 2000,
      "base_duration_us": 93057
    },
    {
      "id": "M_3007",
      "pitch": 91,
      "t_note_us": 224520743,
      "t_trigger_us": 224384780,
      "is_ai": true,
      "track_id": 7,
      "velocity": 0,
      "is_motor": false,
      "motor_id": 0,
      "accel_val": 2000,
      "base_duration_us": 93057
    },
    {
      "id": "M_3013",
      "pitch": 86,
      "t_note_us": 224613800,
      "t_trigger_us": 224477837,
      "is_ai": true,
      "track_id": 4,
      "velocity": 0,
      "is_motor": false,
      "motor_id": 0,
      "accel_val": 2000,
      "base_duration_us": 736368
    },
    {
      "id": "M_3014",
      "pitch": 90,
      "t_note_us": 224613800,
      "t_trigger_us": 224477837,
      "is_ai": true,
      "track_id": 0,
      "velocity": 0,
      "is_motor": true,
      "motor_id": 3,
      "accel_val": 2000,
      "base_duration_us": 736368
    },
    {
      "id": "M_3010",
      "pitch": 66,
      "t_note_us": 224613800,
      "t_trigger_us": 224477837,
      "is_ai": false,
      "track_id": 0,
      "velocity": 0,
      "is_motor": true,
      "motor_id": 1,
      "accel_val": 2000,
      "base_duration_us": 368184
    },
    {
      "id": "M_3012",
      "pitch": 69,
      "t_note_us": 224613800,
      "t_trigger_us": 224477837,
      "is_ai": false,
      "track_id": 0,
      "velocity": 0,
      "is_motor": true,
      "motor_id": 2,
      "accel_val": 2000,
      "base_duration_us": 736368
    },
    {
      "id": "M_3015",
      "pitch": 78,
      "t_note_us": 224613800,
      "t_trigger_us": 224477837,
      "is_ai": false,
      "track_id": 0,
      "velocity": 0,
      "is_motor": true,
      "motor_id": 0,
      "accel_val": 2000,
      "base_duration_us": 736368
    },
    {
      "id": "M_3016",
      "pitch": 54,
      "t_note_us": 224613800,
      "t_trigger_us": 224477837,
      "is_ai": false,
      "track_id": 0,
      "velocity": 0,
      "is_motor": true,
      "motor_id": 0,
      "accel_val": 2000,
      "base_duration_us": 736368
    },
    {
      "id": "M_3017",
      "pitch": 66,
      "t_note_us": 224613800,
      "t_trigger_us": 224477837,
      "is_ai": false,
      "track_id": 0,
      "velocity": 0,
      "is_motor": true,
      "motor_id": 0,
      "accel_val": 2000,
      "base_duration_us": 736368
    },
    {
      "id": "M_3018",
      "pitch": 74,
      "t_note_us": 224613800,
      "t_trigger_us": 224477837,
      "is_ai": false,
      "track_id": 0,
      "velocity": 0,
      "is_motor": true,
      "motor_id": 0,
      "accel_val": 2000,
      "base_duration_us": 736368
    },
    {
      "id": "M_3019",
      "pitch": 78,
      "t_note_us": 224613800,
      "t_trigger_us": 224477837,
      "is_ai": false,
      "track_id": 0,
      "velocity": 0,
      "is_motor": true,
      "motor_id": 0,
      "accel_val": 2000,
      "base_duration_us": 736368
    },
    {
      "id": "M_3020",
      "pitch": 69,
      "t_note_us": 224613800,
      "t_trigger_us": 224477837,
      "is_ai": false,
      "track_id": 0,
      "velocity": 0,
      "is_motor": true,
      "motor_id": 0,
      "accel_val": 2000,
      "base_duration_us": 736368
    },
    {
      "id": "M_3011",
      "pitch": 78,
      "t_note_us": 224981984,
      "t_trigger_us": 224846021,
      "is_ai": false,
      "track_id": 0,
      "velocity": 0,
      "is_motor": true,
      "motor_id": 1,
      "accel_val": 2000,
      "base_duration_us": 368184
    },
    {
      "id": "M_3024",
      "pitch": 84,
      "t_note_us": 225350168,
      "t_trigger_us": 225214205,
      "is_ai": true,
      "track_id": 3,
      "velocity": 0,
      "is_motor": false,
      "motor_id": 0,
      "accel_val": 2000,
      "base_duration_us": 869879
    },
    {
      "id": "M_3025",
      "pitch": 88,
      "t_note_us": 225350168,
      "t_trigger_us": 225214205,
      "is_ai": true,
      "track_id": 5,
      "velocity": 0,
      "is_motor": false,
      "motor_id": 0,
      "accel_val": 2000,
      "base_duration_us": 869879
    },
    {
      "id": "M_3021",
      "pitch": 64,
      "t_note_us": 225350168,
      "t_trigger_us": 225214205,
      "is_ai": false,
      "track_id": 0,
      "velocity": 0,
      "is_motor": true,
      "motor_id": 1,
      "accel_val": 2000,
      "base_duration_us": 435031
    },
    {
      "id": "M_3023",
      "pitch": 67,
      "t_note_us": 225350168,
      "t_trigger_us": 225214205,
      "is_ai": false,
      "track_id": 0,
      "velocity": 0,
      "is_motor": true,
      "motor_id": 2,
      "accel_val": 2000,
      "base_duration_us": 869879
    },
    {
      "id": "M_3026",
      "pitch": 76,
      "t_note_us": 225350168,
      "t_trigger_us": 225214205,
      "is_ai": false,
      "track_id": 0,
      "velocity": 0,
      "is_motor": true,
      "motor_id": 3,
      "accel_val": 2000,
      "base_duration_us": 869879
    },
    {
      "id": "M_3027",
      "pitch": 64,
      "t_note_us": 225350168,
      "t_trigger_us": 225214205,
      "is_ai": false,
      "track_id": 0,
      "velocity": 0,
      "is_motor": true,
      "motor_id": 0,
      "accel_val": 2000,
      "base_duration_us": 869879
    },
    {
      "id": "M_3028",
      "pitch": 52,
      "t_note_us": 225350168,
      "t_trigger_us": 225214205,
      "is_ai": false,
      "track_id": 0,
      "velocity": 0,
      "is_motor": true,
      "motor_id": 0,
      "accel_val": 2000,
      "base_duration_us": 869879
    },
    {
      "id": "M_3029",
      "pitch": 76,
      "t_note_us": 225350168,
      "t_trigger_us": 225214205,
      "is_ai": false,
      "track_id": 0,
      "velocity": 0,
      "is_motor": true,
      "motor_id": 0,
      "accel_val": 2000,
      "base_duration_us": 869879
    },
    {
      "id": "M_3030",
      "pitch": 67,
      "t_note_us": 225350168,
      "t_trigger_us": 225214205,
      "is_ai": false,
      "track_id": 0,
      "velocity": 0,
      "is_motor": true,
      "motor_id": 0,
      "accel_val": 2000,
      "base_duration_us": 869879
    },
    {
      "id": "M_3031",
      "pitch": 72,
      "t_note_us": 225350168,
      "t_trigger_us": 225214205,
      "is_ai": false,
      "track_id": 0,
      "velocity": 0,
      "is_motor": true,
      "motor_id": 0,
      "accel_val": 2000,
      "base_duration_us": 869879
    },
    {
      "id": "M_3022",
      "pitch": 76,
      "t_note_us": 225785199,
      "t_trigger_us": 225649236,
      "is_ai": false,
      "track_id": 0,
      "velocity": 0,
      "is_motor": true,
      "motor_id": 1,
      "accel_val": 2000,
      "base_duration_us": 434848
    },
    {
      "id": "M_3032",
      "pitch": 81,
      "t_note_us": 226220047,
      "t_trigger_us": 226084084,
      "is_ai": true,
      "track_id": 1,
      "velocity": 0,
      "is_motor": false,
      "motor_id": 0,
      "accel_val": 2000,
      "base_duration_us": 1180646
    },
    {
      "id": "M_3033",
      "pitch": 86,
      "t_note_us": 226220047,
      "t_trigger_us": 226084084,
      "is_ai": true,
      "track_id": 4,
      "velocity": 0,
      "is_motor": false,
      "motor_id": 0,
      "accel_val": 2000,
      "base_duration_us": 1180646
    },
    {
      "id": "M_3034",
      "pitch": 78,
      "t_note_us": 226220047,
      "t_trigger_us": 226084084,
      "is_ai": false,
      "track_id": 0,
      "velocity": 0,
      "is_motor": true,
      "motor_id": 2,
      "accel_val": 2000,
      "base_duration_us": 1180646
    },
    {
      "id": "M_3035",
      "pitch": 74,
      "t_note_us": 226220047,
      "t_trigger_us": 226084084,
      "is_ai": false,
      "track_id": 0,
      "velocity": 0,
      "is_motor": true,
      "motor_id": 1,
      "accel_val": 2000,
      "base_duration_us": 1180646
    },
    {
      "id": "M_3040",
      "pitch": 62,
      "t_note_us": 226220047,
      "t_trigger_us": 226084084,
      "is_ai": false,
      "track_id": 0,
      "velocity": 0,
      "is_motor": true,
      "motor_id": 0,
      "accel_val": 2000,
      "base_duration_us": 3226719
    },
    {
      "id": "M_3042",
      "pitch": 50,
      "t_note_us": 226220047,
      "t_trigger_us": 226084084,
      "is_ai": false,
      "track_id": 0,
      "velocity": 0,
      "is_motor": true,
      "motor_id": 3,
      "accel_val": 2000,
      "base_duration_us": 3226719
    },
    {
      "id": "M_3043",
      "pitch": 62,
      "t_note_us": 226220047,
      "t_trigger_us": 226084084,
      "is_ai": false,
      "track_id": 0,
      "velocity": 0,
      "is_motor": true,
      "motor_id": 0,
      "accel_val": 2000,
      "base_duration_us": 3226719
    },
    {
      "id": "M_3044",
      "pitch": 66,
      "t_note_us": 226220047,
      "t_trigger_us": 226084084,
      "is_ai": false,
      "track_id": 0,
      "velocity": 0,
      "is_motor": true,
      "motor_id": 0,
      "accel_val": 2000,
      "base_duration_us": 3226719
    },
    {
      "id": "M_3045",
      "pitch": 69,
      "t_note_us": 226220047,
      "t_trigger_us": 226084084,
      "is_ai": false,
      "track_id": 0,
      "velocity": 0,
      "is_motor": true,
      "motor_id": 0,
      "accel_val": 2000,
      "base_duration_us": 3226719
    },
    {
      "id": "M_3046",
      "pitch": 74,
      "t_note_us": 226220047,
      "t_trigger_us": 226084084,
      "is_ai": false,
      "track_id": 0,
      "velocity": 0,
      "is_motor": true,
      "motor_id": 0,
      "accel_val": 2000,
      "base_duration_us": 3226719
    },
    {
      "id": "M_3037",
      "pitch": 74,
      "t_note_us": 227400693,
      "t_trigger_us": 227264730,
      "is_ai": false,
      "track_id": 0,
      "velocity": 0,
      "is_motor": true,
      "motor_id": 1,
      "accel_val": 2000,
      "base_duration_us": 2046073
    },
    {
      "id": "M_3038",
      "pitch": 78,
      "t_note_us": 227400693,
      "t_trigger_us": 227264730,
      "is_ai": false,
      "track_id": 0,
      "velocity": 0,
      "is_motor": true,
      "motor_id": 2,
      "accel_val": 2000,
      "base_duration_us": 2046073
    },
    {
      "id": "M_3039",
      "pitch": 69,
      "t_note_us": 227400693,
      "t_trigger_us": 227264730,
      "is_ai": false,
      "track_id": 0,
      "velocity": 0,
      "is_motor": true,
      "motor_id": 0,
      "accel_val": 2000,
      "base_duration_us": 2046073
    },
    {
      "id": "M_3041",
      "pitch": 69,
      "t_note_us": 227400693,
      "t_trigger_us": 227264730,
      "is_ai": false,
      "track_id": 0,
      "velocity": 0,
      "is_motor": true,
      "motor_id": 0,
      "accel_val": 2000,
      "base_duration_us": 2046073
    },
    {
      "id": "M_3057",
      "pitch": 55,
      "t_note_us": 229299906,
      "t_trigger_us": 229163943,
      "is_ai": false,
      "track_id": 0,
      "velocity": 0,
      "is_motor": true,
      "motor_id": 0,
      "accel_val": 2000,
      "base_duration_us": 11146230
    },
    {
      "id": "M_3036",
      "pitch": 67,
      "t_note_us": 229392850,
      "t_trigger_us": 229256887,
      "is_ai": false,
      "track_id": 0,
      "velocity": 0,
      "is_motor": true,
      "motor_id": 0,
      "accel_val": 2000,
      "base_duration_us": 53916
    },
    {
      "id": "M_3053",
      "pitch": 79,
      "t_note_us": 229446766,
      "t_trigger_us": 229310803,
      "is_ai": true,
      "track_id": 0,
      "velocity": 0,
      "is_motor": false,
      "motor_id": 0,
      "accel_val": 2000,
      "base_duration_us": 9705303
    },
    {
      "id": "M_3047",
      "pitch": 71,
      "t_note_us": 229446766,
      "t_trigger_us": 229310803,
      "is_ai": false,
      "track_id": 0,
      "velocity": 0,
      "is_motor": true,
      "motor_id": 1,
      "accel_val": 2000,
      "base_duration_us": 53919
    },
    {
      "id": "M_3049",
      "pitch": 67,
      "t_note_us": 229446766,
      "t_trigger_us": 229310803,
      "is_ai": false,
      "track_id": 0,
      "velocity": 0,
      "is_motor": true,
      "motor_id": 2,
      "accel_val": 2000,
      "base_duration_us": 9058292
    },
    {
      "id": "M_3050",
      "pitch": 55,
      "t_note_us": 229446766,
      "t_trigger_us": 229310803,
      "is_ai": false,
      "track_id": 0,
      "velocity": 0,
      "is_motor": true,
      "motor_id": 0,
      "accel_val": 2000,
      "base_duration_us": 9705303
    },
    {
      "id": "M_3051",
      "pitch": 43,
      "t_note_us": 229446766,
      "t_trigger_us": 229310803,
      "is_ai": false,
      "track_id": 0,
      "velocity": 0,
      "is_motor": true,
      "motor_id": 3,
      "accel_val": 2000,
      "base_duration_us": 9705303
    },
    {
      "id": "M_3052",
      "pitch": 71,
      "t_note_us": 229446766,
      "t_trigger_us": 229310803,
      "is_ai": false,
      "track_id": 0,
      "velocity": 0,
      "is_motor": true,
      "motor_id": 0,
      "accel_val": 2000,
      "base_duration_us": 9705303
    },
    {
      "id": "M_3054",
      "pitch": 74,
      "t_note_us": 229446766,
      "t_trigger_us": 229310803,
      "is_ai": false,
      "track_id": 0,
      "velocity": 0,
      "is_motor": true,
      "motor_id": 0,
      "accel_val": 2000,
      "base_duration_us": 9705303
    },
    {
      "id": "M_3048",
      "pitch": 74,
      "t_note_us": 229500685,
      "t_trigger_us": 229364722,
      "is_ai": false,
      "track_id": 0,
      "velocity": 0,
      "is_motor": true,
      "motor_id": 1,
      "accel_val": 2000,
      "base_duration_us": 53919
    },
    {
      "id": "M_3056",
      "pitch": 79,
      "t_note_us": 229554604,
      "t_trigger_us": 229418641,
      "is_ai": true,
      "track_id": 0,
      "velocity": 0,
      "is_motor": false,
      "motor_id": 0,
      "accel_val": 2000,
      "base_duration_us": 10891532
    },
    {
      "id": "M_3055",
      "pitch": 103,
      "t_note_us": 232034887,
      "t_trigger_us": 231898924,
      "is_ai": true,
      "track_id": 14,
      "velocity": 0,
      "is_motor": false,
      "motor_id": 0,
      "accel_val": 2000,
      "base_duration_us": 8411249
    }
  ]
}