{
  "config": {
    "mode_idx": 0,
    "active_motors": [
      0,
      1,
      2,
      3
    ],
    "transpose": 0,
    "arp_speed_ms": 10,
    "gate_time": 100
  },
  "sustain_multiplier": 1.0,
  "notes": [
    {
      "id": "M_0",
      "pitch": 70,
      "t_note_us": 1602272,
      "t_trigger_us": 1466309,
      "is_ai": true,
      "track_id": 0,
      "velocity": 0,
      "is_motor": true,
      "motor_id": 1,
      "accel_val": 2000,
      "base_duration_us": 638636
    },
    {
      "id": "M_1",
      "pitch": 72,
      "t_note_us": 2090908,
      "t_trigger_us": 1954945,
      "is_ai": false,
      "track_id": 0,
      "velocity": 0,
      "is_motor": true,
      "motor_id": 0,
      "accel_val": 2000,
      "base_duration_us": 545453
    },
    {
      "id": "M_3",
      "pitch": 77,
      "t_note_us": 2602271,
      "t_trigger_us": 2466308,
      "is_ai": false,
      "track_id": 0,
      "velocity": 0,
      "is_motor": true,
      "motor_id": 2,
      "accel_val": 2000,
      "base_duration_us": 440907
    },
    {
      "id": "M_6",
      "pitch": 74,
      "t_note_us": 2602271,
      "t_trigger_us": 2466308,
      "is_ai": false,
      "track_id": 0,
      "velocity": 0,
      "is_motor": true,
      "motor_id": 1,
      "accel_val": 2000,
      "base_duration_us": 881814
    },
    {
      "id": "M_9",
      "pitch": 70,
      "t_note_us": 2602271,
      "t_trigger_us": 2466308,
      "is_ai": false,
      "track_id": 0,
      "velocity": 0,
      "is_motor": true,
      "motor_id": 3,
      "accel_val": 2000,
      "base_duration_us": 1638631
    },
    {
      "id": "M_2",
      "pitch": 58,
      "t_note_us": 2718179,
      "t_trigger_us": 2582216,
      "is_ai": false,
      "track_id": 0,
      "velocity": 0,
      "is_motor": true,
      "motor_id": 0,
      "accel_val": 2000,
      "base_duration_us": 209090
    },
    {
      "id": "M_5",
      "pitch": 77,
      "t_note_us": 3043178,
      "t_trigger_us": 2907215,
      "is_ai": false,
      "track_id": 0,
      "velocity": 0,
      "is_motor": true,
      "motor_id": 2,
      "accel_val": 2000,
      "base_duration_us": 359089
    },
    {
      "id": "M_11",
      "pitch": 65,
      "t_note_us": 3124996,
      "t_trigger_us": 2989033,
      "is_ai": false,
      "track_id": 0,
      "velocity": 0,
      "is_motor": true,
      "motor_id": 0,
      "accel_val": 2000,
      "base_duration_us": 1161359
    },
    {
      "id": "M_4",
      "pitch": 58,
      "t_note_us": 3218177,
      "t_trigger_us": 3082214,
      "is_ai": false,
      "track_id": 0,
      "velocity": 0,
      "is_motor": true,
      "motor_id": 0,
      "accel_val": 2000,
      "base_duration_us": 161363
    },
    {
      "id": "M_7",
      "pitch": 77,
      "t_note_us": 3484085,
      "t_trigger_us": 3348122,
      "is_ai": false,
      "track_id": 0,
      "velocity": 0,
      "is_motor": true,
      "motor_id": 2,
      "accel_val": 2000,
      "base_duration_us": 406818
    },
    {
      "id": "M_12",
      "pitch": 74,
      "t_note_us": 3484085,
      "t_trigger_us": 3348122,
      "is_ai": false,
      "track_id": 0,
      "velocity": 0,
      "is_motor": true,
      "motor_id": 1,
      "accel_val": 2000,
      "base_duration_us": 802270
    },
    {
      "id": "M_13",
      "pitch": 74,
      "t_note_us": 3484085,
      "t_trigger_us": 3348122,
      "is_ai": false,
      "track_id": 0,
      "velocity": 0,
      "is_motor": true,
      "motor_id": 0,
      "accel_val": 2000,
      "base_duration_us": 929541
    },
    {
      "id": "M_10",
      "pitch": 77,
      "t_note_us": 3890903,
      "t_trigger_us": 3754940,
      "is_ai": false,
      "track_id": 0,
      "velocity": 0,
      "is_motor": true,
      "motor_id": 2,
      "accel_val": 2000,
      "base_duration_us": 384089
    },
    {
      "id": "M_8",
      "pitch": 77,
      "t_note_us": 3913630,
      "t_trigger_us": 3777667,
      "is_ai": false,
      "track_id": 0,
      "velocity": 0,
      "is_motor": true,
      "motor_id": 0,
      "accel_val": 2000,
      "base_duration_us": 211363
    },
    {
      "id": "M_14",
      "pitch": 91,
      "t_note_us": 4334082,
      "t_trigger_us": 4198119,
      "is_ai": true,
      "track_id": 7,
      "velocity": 0,
      "is_motor": false,
      "motor_id": 0,
      "accel_val": 2000,
      "base_duration_us": 859089
    },
    {
      "id": "M_15",
      "pitch": 76,
      "t_note_us": 4345445,
      "t_trigger_us": 4209482,
      "is_ai": false,
      "track_id": 0,
      "velocity": 0,
      "is_motor": true,
      "motor_id": 2,
      "accel_val": 2000,
      "base_duration_us": 938635
    },
    {
      "id": "M_22",
      "pitch": 64,
      "t_note_us": 4356808,
      "t_trigger_us": 4220845,
      "is_ai": false,
      "track_id": 0,
      "velocity": 0,
      "is_motor": true,
      "motor_id": 1,
      "accel_val": 2000,
      "base_duration_us": 1613631
    },
    {
      "id": "M_24",
      "pitch": 70,
      "t_note_us": 4763626,
      "t_trigger_us": 4627663,
      "is_ai": false,
      "track_id": 0,
      "velocity": 0,
      "is_motor": true,
      "motor_id": 0,
      "accel_val": 2000,
      "base_duration_us": 1288629
    },
    {
      "id": "M_16",
      "pitch": 67,
      "t_note_us": 5193171,
      "t_trigger_us": 5057208,
      "is_ai": false,
      "track_id": 0,
      "velocity": 0,
      "is_motor": true,
      "motor_id": 3,
      "accel_val": 2000,
      "base_duration_us": 195454
    },
    {
      "id": "M_17",
      "pitch": 67,
      "t_note_us": 5193171,
      "t_trigger_us": 5057208,
      "is_ai": false,
      "track_id": 0,
      "velocity": 0,
      "is_motor": true,
      "motor_id": 0,
      "accel_val": 2000,
      "base_duration_us": 243180
    },
    {
      "id": "M_18",
      "pitch": 67,
      "t_note_us": 5424988,
      "t_trigger_us": 5289025,
      "is_ai": false,
      "track_id": 0,
      "velocity": 0,
      "is_motor": true,
      "motor_id": 2,
      "accel_val": 2000,
      "base_duration_us": 172726
    },
    {
      "id": "M_23",
      "pitch": 67,
      "t_note_us": 5436351,
      "t_trigger_us": 5300388,
      "is_ai": false,
      "track_id": 0,
      "velocity": 0,
      "is_motor": true,
      "motor_id": 3,
      "accel_val": 2000,
      "base_duration_us": 570451
    },
    {
      "id": "M_20",
      "pitch": 91,
      "t_note_us": 5597714,
      "t_trigger_us": 5461751,
      "is_ai": true,
      "track_id": 7,
      "velocity": 0,
      "is_motor": false,
      "motor_id": 0,
      "accel_val": 2000,
      "base_duration_us": 361362
    },
    {
      "id": "M_21",
      "pitch": 98,
      "t_note_us": 5597714,
      "t_trigger_us": 5461751,
      "is_ai": true,
      "track_id": 11,
      "velocity": 0,
      "is_motor": false,
      "motor_id": 0,
      "accel_val": 2000,
      "base_duration_us": 361362
    },
    {
      "id": "M_19",
      "pitch": 76,
      "t_note_us": 5597714,
      "t_trigger_us": 5461751,
      "is_ai": false,
      "track_id": 0,
      "velocity": 0,
      "is_motor": true,
      "motor_id": 2,
      "accel_val": 2000,
      "base_duration_us": 268181
    },
    {
      "id": "M_27",
      "pitch": 96,
      "t_note_us": 6018165,
      "t_trigger_us": 5882202,
      "is_ai": true,
      "track_id": 10,
      "velocity": 0,
      "is_motor": false,
      "motor_id": 0,
      "accel_val": 2000,
      "base_duration_us": 534088
    },
    {
      "id": "M_26",
      "pitch": 75,
      "t_note_us": 6029528,
      "t_trigger_us": 5893565,
      "is_ai": false,
      "track_id": 0,
      "velocity": 0,
      "is_motor": true,
      "motor_id": 2,
      "accel_val": 2000,
      "base_duration_us": 429544
    },
    {
      "id": "M_25",
      "pitch": 70,
      "t_note_us": 6052255,
      "t_trigger_us": 5916292,
      "is_ai": false,
      "track_id": 0,
      "velocity": 0,
      "is_motor": true,
      "motor_id": 1,
      "accel_val": 2000,
      "base_duration_us": 406817
    },
    {
      "id": "M_29",
      "pitch": 63,
      "t_note_us": 6052255,
      "t_trigger_us": 5916292,
      "is_ai": false,
      "track_id": 0,
      "velocity": 0,
      "is_motor": true,
      "motor_id": 0,
      "accel_val": 2000,
      "base_duration_us": 743179
    },
    {
      "id": "M_31",
      "pitch": 70,
      "t_note_us": 6447709,
      "t_trigger_us": 6311746,
      "is_ai": true,
      "track_id": 0,
      "velocity": 0,
      "is_motor": true,
      "motor_id": 3,
      "accel_val": 2000,
      "base_duration_us": 429543
    },
    {
      "id": "M_28",
      "pitch": 70,
      "t_note_us": 6447709,
      "t_trigger_us": 6311746,
      "is_ai": false,
      "track_id": 0,
      "velocity": 0,
      "is_motor": true,
      "motor_id": 0,
      "accel_val": 2000,
      "base_duration_us": 172725
    },
    {
      "id": "M_30",
      "pitch": 75,
      "t_note_us": 6459072,
      "t_trigger_us": 6323109,
      "is_ai": false,
      "track_id": 0,
      "velocity": 0,
      "is_motor": true,
      "motor_id": 2,
      "accel_val": 2000,
      "base_duration_us": 418180
    },
    {
      "id": "M_32",
      "pitch": 70,
      "t_note_us": 6459072,
      "t_trigger_us": 6323109,
      "is_ai": false,
      "track_id": 0,
      "velocity": 0,
      "is_motor": true,
      "motor_id": 1,
      "accel_val": 2000,
      "base_duration_us": 429543
    },
    {
      "id": "M_35",
      "pitch": 70,
      "t_note_us": 6877252,
      "t_trigger_us": 6741289,
      "is_ai": true,
      "track_id": 0,
      "velocity": 0,
      "is_motor": true,
      "motor_id": 2,
      "accel_val": 2000,
      "base_duration_us": 440907
    },
    {
      "id": "M_34",
      "pitch": 75,
      "t_note_us": 6877252,
      "t_trigger_us": 6741289,
      "is_ai": false,
      "track_id": 0,
      "velocity": 0,
      "is_motor": true,
      "motor_id": 3,
      "accel_val": 2000,
      "base_duration_us": 440907
    },
    {
      "id": "M_36",
      "pitch": 67,
      "t_note_us": 6888615,
      "t_trigger_us": 6752652,
      "is_ai": false,
      "track_id": 0,
      "velocity": 0,
      "is_motor": true,
      "motor_id": 1,
      "accel_val": 2000,
      "base_duration_us": 440907
    },
    {
      "id": "M_42",
      "pitch": 70,
      "t_note_us": 6888615,
      "t_trigger_us": 6752652,
      "is_ai": false,
      "track_id": 0,
      "velocity": 0,
      "is_motor": true,
      "motor_id": 0,
      "accel_val": 2000,
      "base_duration_us": 1081813
    },
    {
      "id": "M_33",
      "pitch": 63,
      "t_note_us": 6970433,
      "t_trigger_us": 6834470,
      "is_ai": false,
      "track_id": 0,
      "velocity": 0,
      "is_motor": true,
      "motor_id": 0,
      "accel_val": 2000,
      "base_duration_us": 336363
    },
    {
      "id": "M_38",
      "pitch": 67,
      "t_note_us": 7318159,
      "t_trigger_us": 7182196,
      "is_ai": false,
      "track_id": 0,
      "velocity": 0,
      "is_motor": true,
      "motor_id": 2,
      "accel_val": 2000,
      "base_duration_us": 384090
    },
    {
      "id": "M_39",
      "pitch": 75,
      "t_note_us": 7318159,
      "t_trigger_us": 7182196,
      "is_ai": false,
      "track_id": 0,
      "velocity": 0,
      "is_motor": true,
      "motor_id": 3,
      "accel_val": 2000,
      "base_duration_us": 429543
    },
    {
      "id": "M_40",
      "pitch": 63,
      "t_note_us": 7318159,
      "t_trigger_us": 7182196,
      "is_ai": false,
      "track_id": 0,
      "velocity": 0,
      "is_motor": true,
      "motor_id": 0,
      "accel_val": 2000,
      "base_duration_us": 452270
    },
    {
      "id": "M_37",
      "pitch": 67,
      "t_note_us": 7329522,
      "t_trigger_us": 7193559,
      "is_ai": false,
      "track_id": 0,
      "velocity": 0,
      "is_motor": true,
      "motor_id": 1,
      "accel_val": 2000,
      "base_duration_us": 372727
    },
    {
      "id": "M_43",
      "pitch": 77,
      "t_note_us": 7736339,
      "t_trigger_us": 7600376,
      "is_ai": false,
      "track_id": 0,
      "velocity": 0,
      "is_motor": true,
      "motor_id": 2,
      "accel_val": 2000,
      "base_duration_us": 802270
    },
    {
      "id": "M_41",
      "pitch": 69,
      "t_note_us": 7747702,
      "t_trigger_us": 7611739,
      "is_ai": false,
      "track_id": 0,
      "velocity": 0,
      "is_motor": true,
      "motor_id": 1,
      "accel_val": 2000,
      "base_duration_us": 186363
    },
    {
      "id": "M_44",
      "pitch": 74,
      "t_note_us": 7747702,
      "t_trigger_us": 7611739,
      "is_ai": false,
      "track_id": 0,
      "velocity": 0,
      "is_motor": true,
      "motor_id": 3,
      "accel_val": 2000,
      "base_duration_us": 847725
    },
    {
      "id": "M_46",
      "pitch": 69,
      "t_note_us": 8165882,
      "t_trigger_us": 8029919,
      "is_ai": false,
      "track_id": 0,
      "velocity": 0,
      "is_motor": true,
      "motor_id": 1,
      "accel_val": 2000,
      "base_duration_us": 1254544
    },
    {
      "id": "M_47",
      "pitch": 74,
      "t_note_us": 8595427,
      "t_trigger_us": 8459464,
      "is_ai": false,
      "track_id": 0,
      "velocity": 0,
      "is_motor": true,
      "motor_id": 0,
      "accel_val": 2000,
      "base_duration_us": 847726
    },
    {
      "id": "M_45",
      "pitch": 62,
      "t_note_us": 8724972,
      "t_trigger_us": 8589009,
      "is_ai": false,
      "track_id": 0,
      "velocity": 0,
      "is_motor": true,
      "motor_id": 2,
      "accel_val": 2000,
      "base_duration_us": 150000
    },
    {
      "id": "M_48",
      "pitch": 77,
      "t_note_us": 9013608,
      "t_trigger_us": 8877645,
      "is_ai": false,
      "track_id": 0,
      "velocity": 0,
      "is_motor": true,
      "motor_id": 2,
      "accel_val": 2000,
      "base_duration_us": 847725
    },
    {
      "id": "M_52",
      "pitch": 91,
      "t_note_us": 9443153,
      "t_trigger_us": 9307190,
      "is_ai": true,
      "track_id": 7,
      "velocity": 0,
      "is_motor": false,
      "motor_id": 0,
      "accel_val": 2000,
      "base_duration_us": 815905
    },
    {
      "id": "M_49",
      "pitch": 67,
      "t_note_us": 9454516,
      "t_trigger_us": 9318553,
      "is_ai": false,
      "track_id": 0,
      "velocity": 0,
      "is_motor": true,
      "motor_id": 1,
      "accel_val": 2000,
      "base_duration_us": 429544
    },
    {
      "id": "M_50",
      "pitch": 72,
      "t_note_us": 9468152,
      "t_trigger_us": 9332189,
      "is_ai": false,
      "track_id": 0,
      "velocity": 0,
      "is_motor": true,
      "motor_id": 0,
      "accel_val": 2000,
      "base_duration_us": 429544
    },
    {
      "id": "M_58",
      "pitch": 60,
      "t_note_us": 9490879,
      "t_trigger_us": 9354916,
      "is_ai": false,
      "track_id": 0,
      "velocity": 0,
      "is_motor": true,
      "motor_id": 3,
      "accel_val": 2000,
      "base_duration_us": 1545448
    },
    {
      "id": "M_55",
      "pitch": 89,
      "t_note_us": 9884060,
      "t_trigger_us": 9748097,
      "is_ai": true,
      "track_id": 6,
      "velocity": 0,
      "is_motor": false,
      "motor_id": 0,
      "accel_val": 2000,
      "base_duration_us": 420452
    },
    {
      "id": "M_51",
      "pitch": 67,
      "t_note_us": 9884060,
      "t_trigger_us": 9748097,
      "is_ai": false,
      "track_id": 0,
      "velocity": 0,
      "is_motor": true,
      "motor_id": 1,
      "accel_val": 2000,
      "base_duration_us": 222726
    },
    {
      "id": "M_54",
      "pitch": 72,
      "t_note_us": 9897696,
      "t_trigger_us": 9761733,
      "is_ai": false,
      "track_id": 0,
      "velocity": 0,
      "is_motor": true,
      "motor_id": 0,
      "accel_val": 2000,
      "base_duration_us": 406816
    },
    {
      "id": "M_53",
      "pitch": 67,
      "t_note_us": 9945423,
      "t_trigger_us": 9809460,
      "is_ai": false,
      "track_id": 0,
      "velocity": 0,
      "is_motor": true,
      "motor_id": 2,
      "accel_val": 2000,
      "base_duration_us": 359089
    },
    {
      "id": "M_56",
      "pitch": 67,
      "t_note_us": 10304512,
      "t_trigger_us": 10168549,
      "is_ai": false,
      "track_id": 0,
      "velocity": 0,
      "is_motor": true,
      "motor_id": 1,
      "accel_val": 2000,
      "base_duration_us": 418180
    },
    {
      "id": "M_57",
      "pitch": 72,
      "t_note_us": 10304512,
      "t_trigger_us": 10168549,
      "is_ai": false,
      "track_id": 0,
      "velocity": 0,
      "is_motor": true,
      "motor_id": 0,
      "accel_val": 2000,
      "base_duration_us": 452270
    },
    {
      "id": "M_63",
      "pitch": 77,
      "t_note_us": 10304512,
      "t_trigger_us": 10168549,
      "is_ai": false,
      "track_id": 0,
      "velocity": 0,
      "is_motor": true,
      "motor_id": 2,
      "accel_val": 2000,
      "base_duration_us": 893176
    },
    {
      "id": "M_61",
      "pitch": 75,
      "t_note_us": 10315875,
      "t_trigger_us": 10179912,
      "is_ai": false,
      "track_id": 0,
      "velocity": 0,
      "is_motor": true,
      "motor_id": 0,
      "accel_val": 2000,
      "base_duration_us": 836360
    },
    {
      "id": "M_59",
      "pitch": 67,
      "t_note_us": 10420420,
      "t_trigger_us": 10284457,
      "is_ai": false,
      "track_id": 0,
      "velocity": 0,
      "is_motor": true,
      "motor_id": 0,
      "accel_val": 2000,
      "base_duration_us": 661361
    },
    {
      "id": "M_60",
      "pitch": 67,
      "t_note_us": 10722692,
      "t_trigger_us": 10586729,
      "is_ai": false,
      "track_id": 0,
      "velocity": 0,
      "is_motor": true,
      "motor_id": 1,
      "accel_val": 2000,
      "base_duration_us": 381816
    },
    {
      "id": "M_62",
      "pitch": 74,
      "t_note_us": 10734055,
      "t_trigger_us": 10598092,
      "is_ai": false,
      "track_id": 0,
      "velocity": 0,
      "is_motor": true,
      "motor_id": 0,
      "accel_val": 2000,
      "base_duration_us": 440906
    },
    {
      "id": "M_66",
      "pitch": 72,
      "t_note_us": 11152235,
      "t_trigger_us": 11016272,
      "is_ai": false,
      "track_id": 0,
      "velocity": 0,
      "is_motor": true,
      "motor_id": 1,
      "accel_val": 2000,
      "base_duration_us": 499997
    },
    {
      "id": "M_67",
      "pitch": 72,
      "t_note_us": 11163598,
      "t_trigger_us": 11027635,
      "is_ai": false,
      "track_id": 0,
      "velocity": 0,
      "is_motor": true,
      "motor_id": 0,
      "accel_val": 2000,
      "base_duration_us": 802270
    },
    {
      "id": "M_64",
      "pitch": 69,
      "t_note_us": 11174961,
      "t_trigger_us": 11038998,
      "is_ai": false,
      "track_id": 0,
      "velocity": 0,
      "is_motor": true,
      "motor_id": 3,
      "accel_val": 2000,
      "base_duration_us": 347727
    },
    {
      "id": "M_65",
      "pitch": 74,
      "t_note_us": 11174961,
      "t_trigger_us": 11038998,
      "is_ai": false,
      "track_id": 0,
      "velocity": 0,
      "is_motor": true,
      "motor_id": 0,
      "accel_val": 2000,
      "base_duration_us": 418181
    },
    {
      "id": "M_68",
      "pitch": 70,
      "t_note_us": 11674959,
      "t_trigger_us": 11538996,
      "is_ai": false,
      "track_id": 0,
      "velocity": 0,
      "is_motor": true,
      "motor_id": 1,
      "accel_val": 2000,
      "base_duration_us": 779543
    },
    {
      "id": "M_69",
      "pitch": 67,
      "t_note_us": 12024958,
      "t_trigger_us": 11888995,
      "is_ai": false,
      "track_id": 0,
      "velocity": 0,
      "is_motor": true,
      "motor_id": 2,
      "accel_val": 2000,
      "base_duration_us": 811362
    },
    {
      "id": "M_70",
      "pitch": 74,
      "t_note_us": 12093139,
      "t_trigger_us": 11957176,
      "is_ai": false,
      "track_id": 0,
      "velocity": 0,
      "is_motor": true,
      "motor_id": 0,
      "accel_val": 2000,
      "base_duration_us": 802270
    },
    {
      "id": "M_71",
      "pitch": 70,
      "t_note_us": 12454502,
      "t_trigger_us": 12318539,
      "is_ai": false,
      "track_id": 0,
      "velocity": 0,
      "is_motor": true,
      "motor_id": 1,
      "accel_val": 2000,
      "base_duration_us": 452270
    },
    {
      "id": "M_72",
      "pitch": 70,
      "t_note_us": 12454502,
      "t_trigger_us": 12318539,
      "is_ai": false,
      "track_id": 0,
      "velocity": 0,
      "is_motor": true,
      "motor_id": 3,
      "accel_val": 2000,
      "base_duration_us": 649997
    },
    {
      "id": "M_74",
      "pitch": 72,
      "t_note_us": 12870410,
      "t_trigger_us": 12734447,
      "is_ai": false,
      "track_id": 0,
      "velocity": 0,
      "is_motor": true,
      "motor_id": 2,
      "accel_val": 2000,
      "base_duration_us": 372724
    },
    {
      "id": "M_75",
      "pitch": 65,
      "t_note_us": 12870410,
      "t_trigger_us": 12734447,
      "is_ai": false,
      "track_id": 0,
      "velocity": 0,
      "is_motor": true,
      "motor_id": 0,
      "accel_val": 2000,
      "base_duration_us": 1197723
    },
    {
      "id": "M_76",
      "pitch": 77,
      "t_note_us": 12884046,
      "t_trigger_us": 12748083,
      "is_ai": false,
      "track_id": 0,
      "velocity": 0,
      "is_motor": true,
      "motor_id": 0,
      "accel_val": 2000,
      "base_duration_us": 1195450
    },
    {
      "id": "M_73",
      "pitch": 74,
      "t_note_us": 12895409,
      "t_trigger_us": 12759446,
      "is_ai": false,
      "track_id": 0,
      "velocity": 0,
      "is_motor": true,
      "motor_id": 0,
      "accel_val": 2000,
      "base_duration_us": 254544
    },
    {
      "id": "M_77",
      "pitch": 72,
      "t_note_us": 13299952,
      "t_trigger_us": 13163989,
      "is_ai": false,
      "track_id": 0,
      "velocity": 0,
      "is_motor": true,
      "motor_id": 1,
      "accel_val": 2000,
      "base_duration_us": 872725
    },
    {
      "id": "M_80",
      "pitch": 75,
      "t_note_us": 13754497,
      "t_trigger_us": 13618534,
      "is_ai": false,
      "track_id": 0,
      "velocity": 0,
      "is_motor": true,
      "motor_id": 2,
      "accel_val": 2000,
      "base_duration_us": 1649996
    },
    {
      "id": "M_78",
      "pitch": 67,
      "t_note_us": 14161314,
      "t_trigger_us": 14025351,
      "is_ai": false,
      "track_id": 0,
      "velocity": 0,
      "is_motor": true,
      "motor_id": 0,
      "accel_val": 2000,
      "base_duration_us": 418181
    },
    {
      "id": "M_85",
      "pitch": 72,
      "t_note_us": 14172677,
      "t_trigger_us": 14036714,
      "is_ai": false,
      "track_id": 0,
      "velocity": 0,
      "is_motor": true,
      "motor_id": 1,
      "accel_val": 2000,
      "base_duration_us": 1720449
    },
    {
      "id": "M_79",
      "pitch": 73,
      "t_note_us": 14590858,
      "t_trigger_us": 14454895,
      "is_ai": true,
      "track_id": 0,
      "velocity": 0,
      "is_motor": true,
      "motor_id": 0,
      "accel_val": 2000,
      "base_duration_us": 802272
    },
    {
      "id": "M_82",
      "pitch": 69,
      "t_note_us": 14590858,
      "t_trigger_us": 14454895,
      "is_ai": false,
      "track_id": 0,
      "velocity": 0,
      "is_motor": true,
      "motor_id": 3,
      "accel_val": 2000,
      "base_duration_us": 847725
    },
    {
      "id": "M_81",
      "pitch": 78,
      "t_note_us": 14602221,
      "t_trigger_us": 14466258,
      "is_ai": false,
      "track_id": 0,
      "velocity": 0,
      "is_motor": true,
      "motor_id": 0,
      "accel_val": 2000,
      "base_duration_us": 813635
    },
    {
      "id": "M_86",
      "pitch": 70,
      "t_note_us": 15449946,
      "t_trigger_us": 15313983,
      "is_ai": false,
      "track_id": 0,
      "velocity": 0,
      "is_motor": true,
      "motor_id": 2,
      "accel_val": 2000,
      "base_duration_us": 443180
    },
    {
      "id": "M_83",
      "pitch": 70,
      "t_note_us": 15461309,
      "t_trigger_us": 15325346,
      "is_ai": true,
      "track_id": 0,
      "velocity": 0,
      "is_motor": true,
      "motor_id": 0,
      "accel_val": 2000,
      "base_duration_us": 163636
    },
    {
      "id": "M_84",
      "pitch": 77,
      "t_note_us": 15461309,
      "t_trigger_us": 15325346,
      "is_ai": false,
      "track_id": 0,
      "velocity": 0,
      "is_motor": true,
      "motor_id": 3,
      "accel_val": 2000,
      "base_duration_us": 429545
    },
    {
      "id": "M_88",
      "pitch": 72,
      "t_note_us": 15890854,
      "t_trigger_us": 15754891,
      "is_ai": false,
      "track_id": 0,
      "velocity": 0,
      "is_motor": true,
      "motor_id": 0,
      "accel_val": 2000,
      "base_duration_us": 431816
    },
    {
      "id": "M_90",
      "pitch": 77,
      "t_note_us": 15890854,
      "t_trigger_us": 15754891,
      "is_ai": false,
      "track_id": 0,
      "velocity": 0,
      "is_motor": true,
      "motor_id": 3,
      "accel_val": 2000,
      "base_duration_us": 454542
    },
    {
      "id": "M_87",
      "pitch": 72,
      "t_note_us": 15893126,
      "t_trigger_us": 15757163,
      "is_ai": false,
      "track_id": 0,
      "velocity": 0,
      "is_motor": true,
      "motor_id": 1,
      "accel_val": 2000,
      "base_duration_us": 418181
    },
    {
      "id": "M_89",
      "pitch": 70,
      "t_note_us": 15893126,
      "t_trigger_us": 15757163,
      "is_ai": false,
      "track_id": 0,
      "velocity": 0,
      "is_motor": true,
      "motor_id": 2,
      "accel_val": 2000,
      "base_duration_us": 440907
    },
    {
      "id": "M_94",
      "pitch": 70,
      "t_note_us": 16195398,
      "t_trigger_us": 16059435,
      "is_ai": false,
      "track_id": 0,
      "velocity": 0,
      "is_motor": true,
      "motor_id": 0,
      "accel_val": 2000,
      "base_duration_us": 963631
    },
    {
      "id": "M_95",
      "pitch": 74,
      "t_note_us": 16334033,
      "t_trigger_us": 16198070,
      "is_ai": false,
      "track_id": 0,
      "velocity": 0,
      "is_motor": true,
      "motor_id": 1,
      "accel_val": 2000,
      "base_duration_us": 870450
    },
    {
      "id": "M_91",
      "pitch": 58,
      "t_note_us": 16509032,
      "t_trigger_us": 16373069,
      "is_ai": false,
      "track_id": 0,
      "velocity": 0,
      "is_motor": true,
      "motor_id": 0,
      "accel_val": 2000,
      "base_duration_us": 161363
    },
    {
      "id": "M_92",
      "pitch": 77,
      "t_note_us": 16520395,
      "t_trigger_us": 16384432,
      "is_ai": false,
      "track_id": 0,
      "velocity": 0,
      "is_motor": true,
      "motor_id": 2,
      "accel_val": 2000,
      "base_duration_us": 243181
    },
    {
      "id": "M_93",
      "pitch": 77,
      "t_note_us": 16774939,
      "t_trigger_us": 16638976,
      "is_ai": false,
      "track_id": 0,
      "velocity": 0,
      "is_motor": true,
      "motor_id": 2,
      "accel_val": 2000,
      "base_duration_us": 347727
    },
    {
      "id": "M_100",
      "pitch": 65,
      "t_note_us": 16774939,
      "t_trigger_us": 16638976,
      "is_ai": false,
      "track_id": 0,
      "velocity": 0,
      "is_motor": true,
      "motor_id": 0,
      "accel_val": 2000,
      "base_duration_us": 1231811
    },
    {
      "id": "M_101",
      "pitch": 74,
      "t_note_us": 17204483,
      "t_trigger_us": 17068520,
      "is_ai": false,
      "track_id": 0,
      "velocity": 0,
      "is_motor": true,
      "motor_id": 1,
      "accel_val": 2000,
      "base_duration_us": 861357
    },
    {
      "id": "M_104",
      "pitch": 74,
      "t_note_us": 17215846,
      "t_trigger_us": 17079883,
      "is_ai": false,
      "track_id": 0,
      "velocity": 0,
      "is_motor": true,
      "motor_id": 2,
      "accel_val": 2000,
      "base_duration_us": 918174
    },
    {
      "id": "M_96",
      "pitch": 70,
      "t_note_us": 17331755,
      "t_trigger_us": 17195792,
      "is_ai": false,
      "track_id": 0,
      "velocity": 0,
      "is_motor": true,
      "motor_id": 3,
      "accel_val": 2000,
      "base_duration_us": 174999
    },
    {
      "id": "M_97",
      "pitch": 77,
      "t_note_us": 17424936,
      "t_trigger_us": 17288973,
      "is_ai": false,
      "track_id": 0,
      "velocity": 0,
      "is_motor": true,
      "motor_id": 0,
      "accel_val": 2000,
      "base_duration_us": 197727
    },
    {
      "id": "M_98",
      "pitch": 101,
      "t_note_us": 17634026,
      "t_trigger_us": 17498063,
      "is_ai": true,
      "track_id": 13,
      "velocity": 0,
      "is_motor": false,
      "motor_id": 0,
      "accel_val": 2000,
      "base_duration_us": 290907
    },
    {
      "id": "M_102",
      "pitch": 77,
      "t_note_us": 17634026,
      "t_trigger_us": 17498063,
      "is_ai": false,
      "track_id": 0,
      "velocity": 0,
      "is_motor": true,
      "motor_id": 3,
      "accel_val": 2000,
      "base_duration_us": 465904
    },
    {
      "id": "M_103",
      "pitch": 89,
      "t_note_us": 17645389,
      "t_trigger_us": 17509426,
      "is_ai": true,
      "track_id": 6,
      "velocity": 0,
      "is_motor": false,
      "motor_id": 0,
      "accel_val": 2000,
      "base_duration_us": 477268
    },
    {
      "id": "M_99",
      "pitch": 70,
      "t_note_us": 17738570,
      "t_trigger_us": 17602607,
      "is_ai": false,
      "track_id": 0,
      "velocity": 0,
      "is_motor": true,
      "motor_id": 0,
      "accel_val": 2000,
      "base_duration_us": 245453
    },
    {
      "id": "M_106",
      "pitch": 67,
      "t_note_us": 18065840,
      "t_trigger_us": 17929877,
      "is_ai": false,
      "track_id": 0,
      "velocity": 0,
      "is_motor": true,
      "motor_id": 1,
      "accel_val": 2000,
      "base_duration_us": 859087
    },
    {
      "id": "M_111",
      "pitch": 64,
      "t_note_us": 18099930,
      "t_trigger_us": 17963967,
      "is_ai": false,
      "track_id": 0,
      "velocity": 0,
      "is_motor": true,
      "motor_id": 0,
      "accel_val": 2000,
      "base_duration_us": 1624995
    },
    {
      "id": "M_115",
      "pitch": 70,
      "t_note_us": 18495383,
      "t_trigger_us": 18359420,
      "is_ai": false,
      "track_id": 0,
      "velocity": 0,
      "is_motor": true,
      "motor_id": 2,
      "accel_val": 2000,
      "base_duration_us": 1311358
    },
    {
      "id": "M_105",
      "pitch": 76,
      "t_note_us": 18506746,
      "t_trigger_us": 18370783,
      "is_ai": false,
      "track_id": 0,
      "velocity": 0,
      "is_motor": true,
      "motor_id": 3,
      "accel_val": 2000,
      "base_duration_us": 313636
    },
    {
      "id": "M_107",
      "pitch": 103,
      "t_note_us": 18924927,
      "t_trigger_us": 18788964,
      "is_ai": true,
      "track_id": 14,
      "velocity": 0,
      "is_motor": false,
      "motor_id": 0,
      "accel_val": 2000,
      "base_duration_us": 404545
    },
    {
      "id": "M_109",
      "pitch": 91,
      "t_note_us": 18924927,
      "t_trigger_us": 18788964,
      "is_ai": true,
      "track_id": 7,
      "velocity": 0,
      "is_motor": false,
      "motor_id": 0,
      "accel_val": 2000,
      "base_duration_us": 429544
    },
    {
      "id": "M_108",
      "pitch": 67,
      "t_note_us": 18924927,
      "t_trigger_us": 18788964,
      "is_ai": false,
      "track_id": 0,
      "velocity": 0,
      "is_motor": true,
      "motor_id": 1,
      "accel_val": 2000,
      "base_duration_us": 429544
    },
    {
      "id": "M_114",
      "pitch": 98,
      "t_note_us": 19354471,
      "t_trigger_us": 19218508,
      "is_ai": true,
      "track_id": 11,
      "velocity": 0,
      "is_motor": false,
      "motor_id": 0,
      "accel_val": 2000,
      "base_duration_us": 418180
    },
    {
      "id": "M_110",
      "pitch": 76,
      "t_note_us": 19354471,
      "t_trigger_us": 19218508,
      "is_ai": false,
      "track_id": 0,
      "velocity": 0,
      "is_motor": true,
      "motor_id": 1,
      "accel_val": 2000,
      "base_duration_us": 288636
    },
    {
      "id": "M_112",
      "pitch": 67,
      "t_note_us": 19354471,
      "t_trigger_us": 19218508,
      "is_ai": false,
      "track_id": 0,
      "velocity": 0,
      "is_motor": true,
      "motor_id": 3,
      "accel_val": 2000,
      "base_duration_us": 393181
    },
    {
      "id": "M_113",
      "pitch": 67,
      "t_note_us": 19354471,
      "t_trigger_us": 19218508,
      "is_ai": false,
      "track_id": 0,
      "velocity": 0,
      "is_motor": true,
      "motor_id": 0,
      "accel_val": 2000,
      "base_duration_us": 418180
    },
    {
      "id": "M_117",
      "pitch": 96,
      "t_note_us": 19795378,
      "t_trigger_us": 19659415,
      "is_ai": true,
      "track_id": 10,
      "velocity": 0,
      "is_motor": false,
      "motor_id": 0,
      "accel_val": 2000,
      "base_duration_us": 559089
    },
    {
      "id": "M_120",
      "pitch": 75,
      "t_note_us": 19795378,
      "t_trigger_us": 19659415,
      "is_ai": false,
      "track_id": 0,
      "velocity": 0,
      "is_motor": true,
      "motor_id": 1,
      "accel_val": 2000,
      "base_duration_us": 836361
    },
    {
      "id": "M_116",
      "pitch": 70,
      "t_note_us": 19806741,
      "t_trigger_us": 19670778,
      "is_ai": false,
      "track_id": 0,
      "velocity": 0,
      "is_motor": true,
      "motor_id": 2,
      "accel_val": 2000,
      "base_duration_us": 395454
    },
    {
      "id": "M_125",
      "pitch": 63,
      "t_note_us": 19829468,
      "t_trigger_us": 19693505,
      "is_ai": false,
      "track_id": 0,
      "velocity": 0,
      "is_motor": true,
      "motor_id": 0,
      "accel_val": 2000,
      "base_duration_us": 1545451
    },
    {
      "id": "M_119",
      "pitch": 70,
      "t_note_us": 20202195,
      "t_trigger_us": 20066232,
      "is_ai": true,
      "track_id": 0,
      "velocity": 0,
      "is_motor": true,
      "motor_id": 2,
      "accel_val": 2000,
      "base_duration_us": 347726
    },
    {
      "id": "M_121",
      "pitch": 70,
      "t_note_us": 20202195,
      "t_trigger_us": 20066232,
      "is_ai": true,
      "track_id": 0,
      "velocity": 0,
      "is_motor": true,
      "motor_id": 3,
      "accel_val": 2000,
      "base_duration_us": 429544
    },
    {
      "id": "M_118",
      "pitch": 70,
      "t_note_us": 20202195,
      "t_trigger_us": 20066232,
      "is_ai": false,
      "track_id": 0,
      "velocity": 0,
      "is_motor": true,
      "motor_id": 0,
      "accel_val": 2000,
      "base_duration_us": 209090
    },
    {
      "id": "M_129",
      "pitch": 70,
      "t_note_us": 20202195,
      "t_trigger_us": 20066232,
      "is_ai": false,
      "track_id": 0,
      "velocity": 0,
      "is_motor": true,
      "motor_id": 0,
      "accel_val": 2000,
      "base_duration_us": 1288632
    },
    {
      "id": "M_122",
      "pitch": 70,
      "t_note_us": 20631739,
      "t_trigger_us": 20495776,
      "is_ai": true,
      "track_id": 0,
      "velocity": 0,
      "is_motor": true,
      "motor_id": 1,
      "accel_val": 2000,
      "base_duration_us": 347727
    },
    {
      "id": "M_123",
      "pitch": 70,
      "t_note_us": 20631739,
      "t_trigger_us": 20495776,
      "is_ai": true,
      "track_id": 0,
      "velocity": 0,
      "is_motor": true,
      "motor_id": 2,
      "accel_val": 2000,
      "base_duration_us": 429545
    },
    {
      "id": "M_124",
      "pitch": 75,
      "t_note_us": 20631739,
      "t_trigger_us": 20495776,
      "is_ai": false,
      "track_id": 0,
      "velocity": 0,
      "is_motor": true,
      "motor_id": 3,
      "accel_val": 2000,
      "base_duration_us": 440908
    },
    {
      "id": "M_126",
      "pitch": 96,
      "t_note_us": 21061284,
      "t_trigger_us": 20925321,
      "is_ai": true,
      "track_id": 10,
      "velocity": 0,
      "is_motor": false,
      "motor_id": 0,
      "accel_val": 2000,
      "base_duration_us": 361362
    },
    {
      "id": "M_128",
      "pitch": 96,
      "t_note_us": 21061284,
      "t_trigger_us": 20925321,
      "is_ai": true,
      "track_id": 10,
      "velocity": 0,
      "is_motor": false,
      "motor_id": 0,
      "accel_val": 2000,
      "base_duration_us": 406816
    },
    {
      "id": "M_130",
      "pitch": 77,
      "t_note_us": 21061284,
      "t_trigger_us": 20925321,
      "is_ai": false,
      "track_id": 0,
      "velocity": 0,
      "is_motor": true,
      "motor_id": 2,
      "accel_val": 2000,
      "base_duration_us": 440906
    },
    {
      "id": "M_127",
      "pitch": 75,
      "t_note_us": 21072647,
      "t_trigger_us": 20936684,
      "is_ai": false,
      "track_id": 0,
      "velocity": 0,
      "is_motor": true,
      "motor_id": 1,
      "accel_val": 2000,
      "base_duration_us": 395453
    },
    {
      "id": "M_132",
      "pitch": 70,
      "t_note_us": 21490827,
      "t_trigger_us": 21354864,
      "is_ai": false,
      "track_id": 0,
      "velocity": 0,
      "is_motor": true,
      "motor_id": 1,
      "accel_val": 2000,
      "base_duration_us": 302271
    },
    {
      "id": "M_133",
      "pitch": 70,
      "t_note_us": 21502190,
      "t_trigger_us": 21366227,
      "is_ai": true,
      "track_id": 0,
      "velocity": 0,
      "is_motor": true,
      "motor_id": 2,
      "accel_val": 2000,
      "base_duration_us": 559089
    },
    {
      "id": "M_131",
      "pitch": 75,
      "t_note_us": 21502190,
      "t_trigger_us": 21366227,
      "is_ai": false,
      "track_id": 0,
      "velocity": 0,
      "is_motor": true,
      "motor_id": 3,
      "accel_val": 2000,
      "base_duration_us": 186363
    },
    {
      "id": "M_134",
      "pitch": 70,
      "t_note_us": 21502190,
      "t_trigger_us": 21366227,
      "is_ai": false,
      "track_id": 0,
      "velocity": 0,
      "is_motor": true,
      "motor_id": 0,
      "accel_val": 2000,
      "base_duration_us": 849998
    },
    {
      "id": "M_136",
      "pitch": 78,
      "t_note_us": 21502190,
      "t_trigger_us": 21366227,
      "is_ai": false,
      "track_id": 0,
      "velocity": 0,
      "is_motor": true,
      "motor_id": 0,
      "accel_val": 2000,
      "base_duration_us": 1638633
    },
    {
      "id": "M_135",
      "pitch": 70,
      "t_note_us": 22352188,
      "t_trigger_us": 22216225,
      "is_ai": false,
      "track_id": 0,
      "velocity": 0,
      "is_motor": true,
      "motor_id": 1,
      "accel_val": 2000,
      "base_duration_us": 765908
    },
    {
      "id": "M_137",
      "pitch": 75,
      "t_note_us": 22352188,
      "t_trigger_us": 22216225,
      "is_ai": false,
      "track_id": 0,
      "velocity": 0,
      "is_motor": true,
      "motor_id": 2,
      "accel_val": 2000,
      "base_duration_us": 822725
    },
    {
      "id": "M_138",
      "pitch": 63,
      "t_note_us": 22363551,
      "t_trigger_us": 22227588,
      "is_ai": false,
      "track_id": 0,
      "velocity": 0,
      "is_motor": true,
      "motor_id": 0,
      "accel_val": 2000,
      "base_duration_us": 859088
    },
    {
      "id": "M_141",
      "pitch": 101,
      "t_note_us": 23211276,
      "t_trigger_us": 23075313,
      "is_ai": true,
      "track_id": 13,
      "velocity": 0,
      "is_motor": false,
      "motor_id": 0,
      "accel_val": 2000,
      "base_duration_us": 847724
    },
    {
      "id": "M_139",
      "pitch": 70,
      "t_note_us": 23211276,
      "t_trigger_us": 23075313,
      "is_ai": false,
      "track_id": 0,
      "velocity": 0,
      "is_motor": true,
      "motor_id": 1,
      "accel_val": 2000,
      "base_duration_us": 265907
    },
    {
      "id": "M_142",
      "pitch": 74,
      "t_note_us": 23268093,
      "t_trigger_us": 23132130,
      "is_ai": false,
      "track_id": 0,
      "velocity": 0,
      "is_motor": true,
      "motor_id": 0,
      "accel_val": 2000,
      "base_duration_us": 802270
    },
    {
      "id": "M_140",
      "pitch": 69,
      "t_note_us": 23640819,
      "t_trigger_us": 23504856,
      "is_ai": false,
      "track_id": 0,
      "velocity": 0,
      "is_motor": true,
      "motor_id": 1,
      "accel_val": 2000,
      "base_duration_us": 406818
    },
    {
      "id": "M_145",
      "pitch": 69,
      "t_note_us": 24047637,
      "t_trigger_us": 23911674,
      "is_ai": false,
      "track_id": 0,
      "velocity": 0,
      "is_motor": true,
      "motor_id": 1,
      "accel_val": 2000,
      "base_duration_us": 813633
    },
    {
      "id": "M_144",
      "pitch": 101,
      "t_note_us": 24059000,
      "t_trigger_us": 23923037,
      "is_ai": true,
      "track_id": 13,
      "velocity": 0,
      "is_motor": false,
      "motor_id": 0,
      "accel_val": 2000,
      "base_duration_us": 440907
    },
    {
      "id": "M_143",
      "pitch": 74,
      "t_note_us": 24070363,
      "t_trigger_us": 23934400,
      "is_ai": false,
      "track_id": 0,
      "velocity": 0,
      "is_motor": true,
      "motor_id": 0,
      "accel_val": 2000,
      "base_duration_us": 406818
    },
    {
      "id": "M_147",
      "pitch": 74,
      "t_note_us": 24477181,
      "t_trigger_us": 24341218,
      "is_ai": false,
      "track_id": 0,
      "velocity": 0,
      "is_motor": true,
      "motor_id": 0,
      "accel_val": 2000,
      "base_duration_us": 452269
    },
    {
      "id": "M_148",
      "pitch": 77,
      "t_note_us": 24477181,
      "t_trigger_us": 24341218,
      "is_ai": false,
      "track_id": 0,
      "velocity": 0,
      "is_motor": true,
      "motor_id": 2,
      "accel_val": 2000,
      "base_duration_us": 452269
    },
    {
      "id": "M_146",
      "pitch": 98,
      "t_note_us": 24488544,
      "t_trigger_us": 24352581,
      "is_ai": true,
      "track_id": 11,
      "velocity": 0,
      "is_motor": false,
      "motor_id": 0,
      "accel_val": 2000,
      "base_duration_us": 406816
    },
    {
      "id": "M_149",
      "pitch": 74,
      "t_note_us": 24488544,
      "t_trigger_us": 24352581,
      "is_ai": false,
      "track_id": 0,
      "velocity": 0,
      "is_motor": true,
      "motor_id": 3,
      "accel_val": 2000,
      "base_duration_us": 556814
    },
    {
      "id": "M_150",
      "pitch": 93,
      "t_note_us": 24918087,
      "t_trigger_us": 24782124,
      "is_ai": true,
      "track_id": 8,
      "velocity": 0,
      "is_motor": false,
      "motor_id": 0,
      "accel_val": 2000,
      "base_duration_us": 384089
    },
    {
      "id": "M_151",
      "pitch": 77,
      "t_note_us": 24929450,
      "t_trigger_us": 24793487,
      "is_ai": false,
      "track_id": 0,
      "velocity": 0,
      "is_motor": true,
      "motor_id": 2,
      "accel_val": 2000,
      "base_duration_us": 384089
    },
    {
      "id": "M_152",
      "pitch": 74,
      "t_note_us": 24929450,
      "t_trigger_us": 24793487,
      "is_ai": false,
      "track_id": 0,
      "velocity": 0,
      "is_motor": true,
      "motor_id": 1,
      "accel_val": 2000,
      "base_duration_us": 429543
    },
    {
      "id": "M_156",
      "pitch": 67,
      "t_note_us": 24954449,
      "t_trigger_us": 24818486,
      "is_ai": false,
      "track_id": 0,
      "velocity": 0,
      "is_motor": true,
      "motor_id": 0,
      "accel_val": 2000,
      "base_duration_us": 1172723
    },
    {
      "id": "M_154",
      "pitch": 70,
      "t_note_us": 25358993,
      "t_trigger_us": 25223030,
      "is_ai": true,
      "track_id": 0,
      "velocity": 0,
      "is_motor": true,
      "motor_id": 1,
      "accel_val": 2000,
      "base_duration_us": 418180
    },
    {
      "id": "M_158",
      "pitch": 74,
      "t_note_us": 25358993,
      "t_trigger_us": 25223030,
      "is_ai": false,
      "track_id": 0,
      "velocity": 0,
      "is_motor": true,
      "motor_id": 2,
      "accel_val": 2000,
      "base_duration_us": 1349994
    },
    {
      "id": "M_153",
      "pitch": 74,
      "t_note_us": 25545356,
      "t_trigger_us": 25409393,
      "is_ai": false,
      "track_id": 0,
      "velocity": 0,
      "is_motor": true,
      "motor_id": 3,
      "accel_val": 2000,
      "base_duration_us": 197727
    },
    {
      "id": "M_155",
      "pitch": 70,
      "t_note_us": 25777173,
      "t_trigger_us": 25641210,
      "is_ai": true,
      "track_id": 0,
      "velocity": 0,
      "is_motor": true,
      "motor_id": 1,
      "accel_val": 2000,
      "base_duration_us": 129545
    },
    {
      "id": "M_159",
      "pitch": 70,
      "t_note_us": 25777173,
      "t_trigger_us": 25641210,
      "is_ai": false,
      "track_id": 0,
      "velocity": 0,
      "is_motor": true,
      "motor_id": 3,
      "accel_val": 2000,
      "base_duration_us": 1093176
    },
    {
      "id": "M_157",
      "pitch": 96,
      "t_note_us": 26197626,
      "t_trigger_us": 26061663,
      "is_ai": true,
      "track_id": 10,
      "velocity": 0,
      "is_motor": false,
      "motor_id": 0,
      "accel_val": 2000,
      "base_duration_us": 429545
    },
    {
      "id": "M_161",
      "pitch": 98,
      "t_note_us": 26638534,
      "t_trigger_us": 26502571,
      "is_ai": true,
      "track_id": 11,
      "velocity": 0,
      "is_motor": false,
      "motor_id": 0,
      "accel_val": 2000,
      "base_duration_us": 429541
    },
    {
      "id": "M_162",
      "pitch": 72,
      "t_note_us": 26649897,
      "t_trigger_us": 26513934,
      "is_ai": false,
      "track_id": 0,
      "velocity": 0,
      "is_motor": true,
      "motor_id": 1,
      "accel_val": 2000,
      "base_duration_us": 847723
    },
    {
      "id": "M_160",
      "pitch": 67,
      "t_note_us": 26777168,
      "t_trigger_us": 26641205,
      "is_ai": false,
      "track_id": 0,
      "velocity": 0,
      "is_motor": true,
      "motor_id": 2,
      "accel_val": 2000,
      "base_duration_us": 279544
    },
    {
      "id": "M_163",
      "pitch": 98,
      "t_note_us": 27068075,
      "t_trigger_us": 26932112,
      "is_ai": true,
      "track_id": 11,
      "velocity": 0,
      "is_motor": false,
      "motor_id": 0,
      "accel_val": 2000,
      "base_duration_us": 743181
    },
    {
      "id": "M_166",
      "pitch": 67,
      "t_note_us": 27068075,
      "t_trigger_us": 26932112,
      "is_ai": false,
      "track_id": 0,
      "velocity": 0,
      "is_motor": true,
      "motor_id": 2,
      "accel_val": 2000,
      "base_duration_us": 1220452
    },
    {
      "id": "M_165",
      "pitch": 72,
      "t_note_us": 27497620,
      "t_trigger_us": 27361657,
      "is_ai": false,
      "track_id": 0,
      "velocity": 0,
      "is_motor": true,
      "motor_id": 1,
      "accel_val": 2000,
      "base_duration_us": 418180
    },
    {
      "id": "M_169",
      "pitch": 70,
      "t_note_us": 27497620,
      "t_trigger_us": 27361657,
      "is_ai": false,
      "track_id": 0,
      "velocity": 0,
      "is_motor": true,
      "motor_id": 0,
      "accel_val": 2000,
      "base_duration_us": 952269
    },
    {
      "id": "M_164",
      "pitch": 91,
      "t_note_us": 27579438,
      "t_trigger_us": 27443475,
      "is_ai": true,
      "track_id": 7,
      "velocity": 0,
      "is_motor": false,
      "motor_id": 0,
      "accel_val": 2000,
      "base_duration_us": 324999
    },
    {
      "id": "M_167",
      "pitch": 91,
      "t_note_us": 27915800,
      "t_trigger_us": 27779837,
      "is_ai": true,
      "track_id": 7,
      "velocity": 0,
      "is_motor": false,
      "motor_id": 0,
      "accel_val": 2000,
      "base_duration_us": 372727
    },
    {
      "id": "M_168",
      "pitch": 72,
      "t_note_us": 27915800,
      "t_trigger_us": 27779837,
      "is_ai": false,
      "track_id": 0,
      "velocity": 0,
      "is_motor": true,
      "motor_id": 1,
      "accel_val": 2000,
      "base_duration_us": 440908
    },
    {
      "id": "M_172",
      "pitch": 96,
      "t_note_us": 28345345,
      "t_trigger_us": 28209382,
      "is_ai": true,
      "track_id": 10,
      "velocity": 0,
      "is_motor": false,
      "motor_id": 0,
      "accel_val": 2000,
      "base_duration_us": 559088
    },
    {
      "id": "M_173",
      "pitch": 75,
      "t_note_us": 28345345,
      "t_trigger_us": 28209382,
      "is_ai": false,
      "track_id": 0,
      "velocity": 0,
      "is_motor": true,
      "motor_id": 2,
      "accel_val": 2000,
      "base_duration_us": 872724
    },
    {
      "id": "M_170",
      "pitch": 72,
      "t_note_us": 28356708,
      "t_trigger_us": 28220745,
      "is_ai": false,
      "track_id": 0,
      "velocity": 0,
      "is_motor": true,
      "motor_id": 1,
      "accel_val": 2000,
      "base_duration_us": 268181
    },
    {
      "id": "M_171",
      "pitch": 72,
      "t_note_us": 28356708,
      "t_trigger_us": 28220745,
      "is_ai": false,
      "track_id": 0,
      "velocity": 0,
      "is_motor": true,
      "motor_id": 3,
      "accel_val": 2000,
      "base_duration_us": 429544
    },
    {
      "id": "M_174",
      "pitch": 65,
      "t_note_us": 28356708,
      "t_trigger_us": 28220745,
      "is_ai": false,
      "track_id": 0,
      "velocity": 0,
      "is_motor": true,
      "motor_id": 0,
      "accel_val": 2000,
      "base_duration_us": 1172724
    },
    {
      "id": "M_176",
      "pitch": 77,
      "t_note_us": 28356708,
      "t_trigger_us": 28220745,
      "is_ai": false,
      "track_id": 0,
      "velocity": 0,
      "is_motor": true,
      "motor_id": 0,
      "accel_val": 2000,
      "base_duration_us": 1290904
    },
    {
      "id": "M_178",
      "pitch": 72,
      "t_note_us": 28786252,
      "t_trigger_us": 28650289,
      "is_ai": false,
      "track_id": 0,
      "velocity": 0,
      "is_motor": true,
      "motor_id": 1,
      "accel_val": 2000,
      "base_duration_us": 1256814
    },
    {
      "id": "M_179",
      "pitch": 75,
      "t_note_us": 29204433,
      "t_trigger_us": 29068470,
      "is_ai": false,
      "track_id": 0,
      "velocity": 0,
      "is_motor": true,
      "motor_id": 3,
      "accel_val": 2000,
      "base_duration_us": 849996
    },
    {
      "id": "M_175",
      "pitch": 75,
      "t_note_us": 29218069,
      "t_trigger_us": 29082106,
      "is_ai": false,
      "track_id": 0,
      "velocity": 0,
      "is_motor": true,
      "motor_id": 2,
      "accel_val": 2000,
      "base_duration_us": 370453
    },
    {
      "id": "M_180",
      "pitch": 77,
      "t_note_us": 29647612,
      "t_trigger_us": 29511649,
      "is_ai": false,
      "track_id": 0,
      "velocity": 0,
      "is_motor": true,
      "motor_id": 2,
      "accel_val": 2000,
      "base_duration_us": 418180
    },
    {
      "id": "M_177",
      "pitch": 65,
      "t_note_us": 29738521,
      "t_trigger_us": 29602558,
      "is_ai": false,
      "track_id": 0,
      "velocity": 0,
      "is_motor": true,
      "motor_id": 0,
      "accel_val": 2000,
      "base_duration_us": 163636
    },
    {
      "id": "M_182",
      "pitch": 75,
      "t_note_us": 30054429,
      "t_trigger_us": 29918466,
      "is_ai": false,
      "track_id": 0,
      "velocity": 0,
      "is_motor": true,
      "motor_id": 1,
      "accel_val": 2000,
      "base_duration_us": 324999
    },
    {
      "id": "M_189",
      "pitch": 70,
      "t_note_us": 30054429,
      "t_trigger_us": 29918466,
      "is_ai": false,
      "track_id": 0,
      "velocity": 0,
      "is_motor": true,
      "motor_id": 0,
      "accel_val": 2000,
      "base_duration_us": 1706812
    },
    {
      "id": "M_185",
      "pitch": 70,
      "t_note_us": 30065792,
      "t_trigger_us": 29929829,
      "is_ai": true,
      "track_id": 0,
      "velocity": 0,
      "is_motor": true,
      "motor_id": 2,
      "accel_val": 2000,
      "base_duration_us": 777270
    },
    {
      "id": "M_181",
      "pitch": 70,
      "t_note_us": 30065792,
      "t_trigger_us": 29929829,
      "is_ai": false,
      "track_id": 0,
      "velocity": 0,
      "is_motor": true,
      "motor_id": 3,
      "accel_val": 2000,
      "base_duration_us": 197727
    },
    {
      "id": "M_183",
      "pitch": 77,
      "t_note_us": 30065792,
      "t_trigger_us": 29929829,
      "is_ai": false,
      "track_id": 0,
      "velocity": 0,
      "is_motor": true,
      "motor_id": 0,
      "accel_val": 2000,
      "base_duration_us": 429544
    },
    {
      "id": "M_184",
      "pitch": 74,
      "t_note_us": 30065792,
      "t_trigger_us": 29929829,
      "is_ai": false,
      "track_id": 0,
      "velocity": 0,
      "is_motor": true,
      "motor_id": 0,
      "accel_val": 2000,
      "base_duration_us": 440907
    },
    {
      "id": "M_187",
      "pitch": 70,
      "t_note_us": 30461246,
      "t_trigger_us": 30325283,
      "is_ai": false,
      "track_id": 0,
      "velocity": 0,
      "is_motor": true,
      "motor_id": 1,
      "accel_val": 2000,
      "base_duration_us": 1020451
    },
    {
      "id": "M_186",
      "pitch": 77,
      "t_note_us": 30495336,
      "t_trigger_us": 30359373,
      "is_ai": false,
      "track_id": 0,
      "velocity": 0,
      "is_motor": true,
      "motor_id": 3,
      "accel_val": 2000,
      "base_duration_us": 859089
    },
    {
      "id": "M_188",
      "pitch": 74,
      "t_note_us": 30506699,
      "t_trigger_us": 30370736,
      "is_ai": false,
      "track_id": 0,
      "velocity": 0,
      "is_motor": true,
      "motor_id": 0,
      "accel_val": 2000,
      "base_duration_us": 1218179
    },
    {
      "id": "M_190",
      "pitch": 77,
      "t_note_us": 31354425,
      "t_trigger_us": 31218462,
      "is_ai": false,
      "track_id": 0,
      "velocity": 0,
      "is_motor": true,
      "motor_id": 2,
      "accel_val": 2000,
      "base_duration_us": 429543
    },
    {
      "id": "M_191",
      "pitch": 77,
      "t_note_us": 31783968,
      "t_trigger_us": 31648005,
      "is_ai": false,
      "track_id": 0,
      "velocity": 0,
      "is_motor": true,
      "motor_id": 2,
      "accel_val": 2000,
      "base_duration_us": 372727
    },
    {
      "id": "M_192",
      "pitch": 78,
      "t_note_us": 31783968,
      "t_trigger_us": 31648005,
      "is_ai": false,
      "track_id": 0,
      "velocity": 0,
      "is_motor": true,
      "motor_id": 3,
      "accel_val": 2000,
      "base_duration_us": 454544
    },
    {
      "id": "M_195",
      "pitch": 75,
      "t_note_us": 31783968,
      "t_trigger_us": 31648005,
      "is_ai": false,
      "track_id": 0,
      "velocity": 0,
      "is_motor": true,
      "motor_id": 1,
      "accel_val": 2000,
      "base_duration_us": 1174997
    },
    {
      "id": "M_198",
      "pitch": 70,
      "t_note_us": 31783968,
      "t_trigger_us": 31648005,
      "is_ai": false,
      "track_id": 0,
      "velocity": 0,
      "is_motor": true,
      "motor_id": 0,
      "accel_val": 2000,
      "base_duration_us": 1720450
    },
    {
      "id": "M_193",
      "pitch": 78,
      "t_note_us": 32202149,
      "t_trigger_us": 32066186,
      "is_ai": false,
      "track_id": 0,
      "velocity": 0,
      "is_motor": true,
      "motor_id": 2,
      "accel_val": 2000,
      "base_duration_us": 140908
    },
    {
      "id": "M_196",
      "pitch": 78,
      "t_note_us": 32343057,
      "t_trigger_us": 32207094,
      "is_ai": false,
      "track_id": 0,
      "velocity": 0,
      "is_motor": true,
      "motor_id": 2,
      "accel_val": 2000,
      "base_duration_us": 731817
    },
    {
      "id": "M_194",
      "pitch": 78,
      "t_note_us": 32563511,
      "t_trigger_us": 32427548,
      "is_ai": false,
      "track_id": 0,
      "velocity": 0,
      "is_motor": true,
      "motor_id": 3,
      "accel_val": 2000,
      "base_duration_us": 231818
    },
    {
      "id": "M_197",
      "pitch": 78,
      "t_note_us": 33074874,
      "t_trigger_us": 32938911,
      "is_ai": false,
      "track_id": 0,
      "velocity": 0,
      "is_motor": true,
      "motor_id": 2,
      "accel_val": 2000,
      "base_duration_us": 404545
    },
    {
      "id": "M_201",
      "pitch": 77,
      "t_note_us": 33479419,
      "t_trigger_us": 33343456,
      "is_ai": false,
      "track_id": 0,
      "velocity": 0,
      "is_motor": true,
      "motor_id": 2,
      "accel_val": 2000,
      "base_duration_us": 431815
    },
    {
      "id": "M_200",
      "pitch": 77,
      "t_note_us": 33493055,
      "t_trigger_us": 33357092,
      "is_ai": false,
      "track_id": 0,
      "velocity": 0,
      "is_motor": true,
      "motor_id": 1,
      "accel_val": 2000,
      "base_duration_us": 406816
    },
    {
      "id": "M_202",
      "pitch": 74,
      "t_note_us": 33493055,
      "t_trigger_us": 33357092,
      "is_ai": false,
      "track_id": 0,
      "velocity": 0,
      "is_motor": true,
      "motor_id": 3,
      "accel_val": 2000,
      "base_duration_us": 906814
    },
    {
      "id": "M_203",
      "pitch": 70,
      "t_note_us": 33504418,
      "t_trigger_us": 33368455,
      "is_ai": false,
      "track_id": 0,
      "velocity": 0,
      "is_motor": true,
      "motor_id": 0,
      "accel_val": 2000,
      "base_duration_us": 1195451
    },
    {
      "id": "M_199",
      "pitch": 58,
      "t_note_us": 33572599,
      "t_trigger_us": 33436636,
      "is_ai": false,
      "track_id": 0,
      "velocity": 0,
      "is_motor": true,
      "motor_id": 0,
      "accel_val": 2000,
      "base_duration_us": 245454
    },
    {
      "id": "M_204",
      "pitch": 77,
      "t_note_us": 33911234,
      "t_trigger_us": 33775271,
      "is_ai": false,
      "track_id": 0,
      "velocity": 0,
      "is_motor": true,
      "motor_id": 2,
      "accel_val": 2000,
      "base_duration_us": 893180
    },
    {
      "id": "M_205",
      "pitch": 65,
      "t_note_us": 33911234,
      "t_trigger_us": 33775271,
      "is_ai": false,
      "track_id": 0,
      "velocity": 0,
      "is_motor": true,
      "motor_id": 1,
      "accel_val": 2000,
      "base_duration_us": 1322725
    },
    {
      "id": "M_208",
      "pitch": 72,
      "t_note_us": 34340779,
      "t_trigger_us": 34204816,
      "is_ai": false,
      "track_id": 0,
      "velocity": 0,
      "is_motor": true,
      "motor_id": 0,
      "accel_val": 2000,
      "base_duration_us": 2579539
    },
    {
      "id": "M_210",
      "pitch": 77,
      "t_note_us": 34804414,
      "t_trigger_us": 34668451,
      "is_ai": false,
      "track_id": 0,
      "velocity": 0,
      "is_motor": true,
      "motor_id": 2,
      "accel_val": 2000,
      "base_duration_us": 2184084
    },
    {
      "id": "M_209",
      "pitch": 70,
      "t_note_us": 35293049,
      "t_trigger_us": 35157086,
      "is_ai": false,
      "track_id": 0,
      "velocity": 0,
      "is_motor": true,
      "motor_id": 1,
      "accel_val": 2000,
      "base_duration_us": 1661359
    },
    {
      "id": "M_211",
      "pitch": 70,
      "t_note_us": 35304412,
      "t_trigger_us": 35168449,
      "is_ai": false,
      "track_id": 0,
      "velocity": 0,
      "is_motor": true,
      "motor_id": 0,
      "accel_val": 2000,
      "base_duration_us": 1811357
    },
    {
      "id": "M_206",
      "pitch": 65,
      "t_note_us": 35443048,
      "t_trigger_us": 35307085,
      "is_ai": false,
      "track_id": 0,
      "velocity": 0,
      "is_motor": true,
      "motor_id": 3,
      "accel_val": 2000,
      "base_duration_us": 268181
    },
    {
      "id": "M_207",
      "pitch": 65,
      "t_note_us": 35931683,
      "t_trigger_us": 35795720,
      "is_ai": false,
      "track_id": 0,
      "velocity": 0,
      "is_motor": true,
      "motor_id": 3,
      "accel_val": 2000,
      "base_duration_us": 977272
    },
    {
      "id": "M_213",
      "pitch": 98,
      "t_note_us": 37047588,
      "t_trigger_us": 36911625,
      "is_ai": true,
      "track_id": 11,
      "velocity": 0,
      "is_motor": false,
      "motor_id": 0,
      "accel_val": 2000,
      "base_duration_us": 906815
    },
    {
      "id": "M_217",
      "pitch": 70,
      "t_note_us": 37129405,
      "t_trigger_us": 36993442,
      "is_ai": false,
      "track_id": 0,
      "velocity": 0,
      "is_motor": true,
      "motor_id": 1,
      "accel_val": 2000,
      "base_duration_us": 1649995
    },
    {
      "id": "M_212",
      "pitch": 77,
      "t_note_us": 37488495,
      "t_trigger_us": 37352532,
      "is_ai": false,
      "track_id": 0,
      "velocity": 0,
      "is_motor": true,
      "motor_id": 2,
      "accel_val": 2000,
      "base_duration_us": 431818
    },
    {
      "id": "M_215",
      "pitch": 77,
      "t_note_us": 37920313,
      "t_trigger_us": 37784350,
      "is_ai": false,
      "track_id": 0,
      "velocity": 0,
      "is_motor": true,
      "motor_id": 2,
      "accel_val": 2000,
      "base_duration_us": 440907
    },
    {
      "id": "M_218",
      "pitch": 74,
      "t_note_us": 37920313,
      "t_trigger_us": 37784350,
      "is_ai": false,
      "track_id": 0,
      "velocity": 0,
      "is_motor": true,
      "motor_id": 0,
      "accel_val": 2000,
      "base_duration_us": 859087
    },
    {
      "id": "M_214",
      "pitch": 70,
      "t_note_us": 37954403,
      "t_trigger_us": 37818440,
      "is_ai": false,
      "track_id": 0,
      "velocity": 0,
      "is_motor": true,
      "motor_id": 3,
      "accel_val": 2000,
      "base_duration_us": 265909
    },
    {
      "id": "M_216",
      "pitch": 96,
      "t_note_us": 38336221,
      "t_trigger_us": 38200258,
      "is_ai": true,
      "track_id": 10,
      "velocity": 0,
      "is_motor": false,
      "motor_id": 0,
      "accel_val": 2000,
      "base_duration_us": 418180
    },
    {
      "id": "M_220",
      "pitch": 77,
      "t_note_us": 38361220,
      "t_trigger_us": 38225257,
      "is_ai": false,
      "track_id": 0,
      "velocity": 0,
      "is_motor": true,
      "motor_id": 2,
      "accel_val": 2000,
      "base_duration_us": 834088
    },
    {
      "id": "M_224",
      "pitch": 98,
      "t_note_us": 38765764,
      "t_trigger_us": 38629801,
      "is_ai": true,
      "track_id": 11,
      "velocity": 0,
      "is_motor": false,
      "motor_id": 0,
      "accel_val": 2000,
      "base_duration_us": 1384087
    },
    {
      "id": "M_219",
      "pitch": 86,
      "t_note_us": 38779400,
      "t_trigger_us": 38643437,
      "is_ai": true,
      "track_id": 4,
      "velocity": 0,
      "is_motor": false,
      "motor_id": 0,
      "accel_val": 2000,
      "base_duration_us": 370454
    },
    {
      "id": "M_222",
      "pitch": 69,
      "t_note_us": 38824854,
      "t_trigger_us": 38688891,
      "is_ai": false,
      "track_id": 0,
      "velocity": 0,
      "is_motor": true,
      "motor_id": 1,
      "accel_val": 2000,
      "base_duration_us": 1243179
    },
    {
      "id": "M_221",
      "pitch": 77,
      "t_note_us": 39195308,
      "t_trigger_us": 39059345,
      "is_ai": false,
      "track_id": 0,
      "velocity": 0,
      "is_motor": true,
      "motor_id": 2,
      "accel_val": 2000,
      "base_duration_us": 454544
    },
    {
      "id": "M_226",
      "pitch": 72,
      "t_note_us": 39638489,
      "t_trigger_us": 39502526,
      "is_ai": false,
      "track_id": 0,
      "velocity": 0,
      "is_motor": true,
      "motor_id": 0,
      "accel_val": 2000,
      "base_duration_us": 847725
    },
    {
      "id": "M_223",
      "pitch": 77,
      "t_note_us": 39649852,
      "t_trigger_us": 39513889,
      "is_ai": false,
      "track_id": 0,
      "velocity": 0,
      "is_motor": true,
      "motor_id": 2,
      "accel_val": 2000,
      "base_duration_us": 418181
    },
    {
      "id": "M_225",
      "pitch": 77,
      "t_note_us": 40068033,
      "t_trigger_us": 39932070,
      "is_ai": false,
      "track_id": 0,
      "velocity": 0,
      "is_motor": true,
      "motor_id": 2,
      "accel_val": 2000,
      "base_duration_us": 418181
    },
    {
      "id": "M_228",
      "pitch": 69,
      "t_note_us": 40068033,
      "t_trigger_us": 39932070,
      "is_ai": false,
      "track_id": 0,
      "velocity": 0,
      "is_motor": true,
      "motor_id": 1,
      "accel_val": 2000,
      "base_duration_us": 765905
    },
    {
      "id": "M_231",
      "pitch": 98,
      "t_note_us": 40486214,
      "t_trigger_us": 40350251,
      "is_ai": true,
      "track_id": 11,
      "velocity": 0,
      "is_motor": false,
      "motor_id": 0,
      "accel_val": 2000,
      "base_duration_us": 463631
    },
    {
      "id": "M_229",
      "pitch": 67,
      "t_note_us": 40497577,
      "t_trigger_us": 40361614,
      "is_ai": false,
      "track_id": 0,
      "velocity": 0,
      "is_motor": true,
      "motor_id": 2,
      "accel_val": 2000,
      "base_duration_us": 384088
    },
    {
      "id": "M_230",
      "pitch": 67,
      "t_note_us": 40531667,
      "t_trigger_us": 40395704,
      "is_ai": false,
      "track_id": 0,
      "velocity": 0,
      "is_motor": true,
      "motor_id": 0,
      "accel_val": 2000,
      "base_duration_us": 384088
    },
    {
      "id": "M_227",
      "pitch": 69,
      "t_note_us": 40590757,
      "t_trigger_us": 40454794,
      "is_ai": false,
      "track_id": 0,
      "velocity": 0,
      "is_motor": true,
      "motor_id": 3,
      "accel_val": 2000,
      "base_duration_us": 163636
    },
    {
      "id": "M_233",
      "pitch": 101,
      "t_note_us": 40915755,
      "t_trigger_us": 40779792,
      "is_ai": true,
      "track_id": 13,
      "velocity": 0,
      "is_motor": false,
      "motor_id": 0,
      "accel_val": 2000,
      "base_duration_us": 440907
    },
    {
      "id": "M_232",
      "pitch": 74,
      "t_note_us": 40915755,
      "t_trigger_us": 40779792,
      "is_ai": false,
      "track_id": 0,
      "velocity": 0,
      "is_motor": true,
      "motor_id": 1,
      "accel_val": 2000,
      "base_duration_us": 359090
    },
    {
      "id": "M_234",
      "pitch": 67,
      "t_note_us": 40915755,
      "t_trigger_us": 40779792,
      "is_ai": false,
      "track_id": 0,
      "velocity": 0,
      "is_motor": true,
      "motor_id": 2,
      "accel_val": 2000,
      "base_duration_us": 720452
    },
    {
      "id": "M_237",
      "pitch": 74,
      "t_note_us": 40915755,
      "t_trigger_us": 40779792,
      "is_ai": false,
      "track_id": 0,
      "velocity": 0,
      "is_motor": true,
      "motor_id": 0,
      "accel_val": 2000,
      "base_duration_us": 1418176
    },
    {
      "id": "M_235",
      "pitch": 98,
      "t_note_us": 41345299,
      "t_trigger_us": 41209336,
      "is_ai": true,
      "track_id": 11,
      "velocity": 0,
      "is_motor": false,
      "motor_id": 0,
      "accel_val": 2000,
      "base_duration_us": 443180
    },
    {
      "id": "M_238",
      "pitch": 70,
      "t_note_us": 41345299,
      "t_trigger_us": 41209336,
      "is_ai": false,
      "track_id": 0,
      "velocity": 0,
      "is_motor": true,
      "motor_id": 1,
      "accel_val": 2000,
      "base_duration_us": 1045450
    },
    {
      "id": "M_236",
      "pitch": 96,
      "t_note_us": 41765752,
      "t_trigger_us": 41629789,
      "is_ai": true,
      "track_id": 10,
      "velocity": 0,
      "is_motor": false,
      "motor_id": 0,
      "accel_val": 2000,
      "base_duration_us": 415908
    },
    {
      "id": "M_240",
      "pitch": 98,
      "t_note_us": 42195296,
      "t_trigger_us": 42059333,
      "is_ai": true,
      "track_id": 11,
      "velocity": 0,
      "is_motor": false,
      "motor_id": 0,
      "accel_val": 2000,
      "base_duration_us": 497724
    },
    {
      "id": "M_239",
      "pitch": 77,
      "t_note_us": 42206659,
      "t_trigger_us": 42070696,
      "is_ai": false,
      "track_id": 0,
      "velocity": 0,
      "is_motor": true,
      "motor_id": 2,
      "accel_val": 2000,
      "base_duration_us": 231817
    },
    {
      "id": "M_242",
      "pitch": 65,
      "t_note_us": 42218022,
      "t_trigger_us": 42082059,
      "is_ai": false,
      "track_id": 0,
      "velocity": 0,
      "is_motor": true,
      "motor_id": 3,
      "accel_val": 2000,
      "base_duration_us": 836360
    },
    {
      "id": "M_241",
      "pitch": 74,
      "t_note_us": 42647566,
      "t_trigger_us": 42511603,
      "is_ai": false,
      "track_id": 0,
      "velocity": 0,
      "is_motor": true,
      "motor_id": 1,
      "accel_val": 2000,
      "base_duration_us": 359089
    },
    {
      "id": "M_246",
      "pitch": 74,
      "t_note_us": 42647566,
      "t_trigger_us": 42511603,
      "is_ai": false,
      "track_id": 0,
      "velocity": 0,
      "is_motor": true,
      "motor_id": 0,
      "accel_val": 2000,
      "base_duration_us": 1243178
    },
    {
      "id": "M_243",
      "pitch": 77,
      "t_note_us": 42786201,
      "t_trigger_us": 42650238,
      "is_ai": false,
      "track_id": 0,
      "velocity": 0,
      "is_motor": true,
      "motor_id": 2,
      "accel_val": 2000,
      "base_duration_us": 268181
    },
    {
      "id": "M_245",
      "pitch": 65,
      "t_note_us": 43054382,
      "t_trigger_us": 42918419,
      "is_ai": false,
      "track_id": 0,
      "velocity": 0,
      "is_motor": true,
      "motor_id": 1,
      "accel_val": 2000,
      "base_duration_us": 788635
    },
    {
      "id": "M_244",
      "pitch": 77,
      "t_note_us": 43065745,
      "t_trigger_us": 42929782,
      "is_ai": false,
      "track_id": 0,
      "velocity": 0,
      "is_motor": true,
      "motor_id": 2,
      "accel_val": 2000,
      "base_duration_us": 429545
    },
    {
      "id": "M_247",
      "pitch": 70,
      "t_note_us": 43495290,
      "t_trigger_us": 43359327,
      "is_ai": false,
      "track_id": 0,
      "velocity": 0,
      "is_motor": true,
      "motor_id": 2,
      "accel_val": 2000,
      "base_duration_us": 418181
    },
    {
      "id": "M_248",
      "pitch": 77,
      "t_note_us": 43495290,
      "t_trigger_us": 43359327,
      "is_ai": false,
      "track_id": 0,
      "velocity": 0,
      "is_motor": true,
      "motor_id": 3,
      "accel_val": 2000,
      "base_duration_us": 429544
    },
    {
      "id": "M_254",
      "pitch": 70,
      "t_note_us": 43913471,
      "t_trigger_us": 43777508,
      "is_ai": true,
      "track_id": 0,
      "velocity": 0,
      "is_motor": true,
      "motor_id": 1,
      "accel_val": 2000,
      "base_duration_us": 859087
    },
    {
      "id": "M_249",
      "pitch": 70,
      "t_note_us": 43913471,
      "t_trigger_us": 43777508,
      "is_ai": false,
      "track_id": 0,
      "velocity": 0,
      "is_motor": true,
      "motor_id": 2,
      "accel_val": 2000,
      "base_duration_us": 138635
    },
    {
      "id": "M_250",
      "pitch": 77,
      "t_note_us": 43924834,
      "t_trigger_us": 43788871,
      "is_ai": false,
      "track_id": 0,
      "velocity": 0,
      "is_motor": true,
      "motor_id": 3,
      "accel_val": 2000,
      "base_duration_us": 163635
    },
    {
      "id": "M_253",
      "pitch": 75,
      "t_note_us": 43924834,
      "t_trigger_us": 43788871,
      "is_ai": false,
      "track_id": 0,
      "velocity": 0,
      "is_motor": true,
      "motor_id": 0,
      "accel_val": 2000,
      "base_duration_us": 847724
    },
    {
      "id": "M_252",
      "pitch": 63,
      "t_note_us": 43936197,
      "t_trigger_us": 43800234,
      "is_ai": false,
      "track_id": 0,
      "velocity": 0,
      "is_motor": true,
      "motor_id": 0,
      "accel_val": 2000,
      "base_duration_us": 768180
    },
    {
      "id": "M_251",
      "pitch": 70,
      "t_note_us": 44170287,
      "t_trigger_us": 44034324,
      "is_ai": false,
      "track_id": 0,
      "velocity": 0,
      "is_motor": true,
      "motor_id": 2,
      "accel_val": 2000,
      "base_duration_us": 150000
    },
    {
      "id": "M_255",
      "pitch": 70,
      "t_note_us": 44331650,
      "t_trigger_us": 44195687,
      "is_ai": false,
      "track_id": 0,
      "velocity": 0,
      "is_motor": true,
      "motor_id": 2,
      "accel_val": 2000,
      "base_duration_us": 452271
    },
    {
      "id": "M_256",
      "pitch": 70,
      "t_note_us": 44772558,
      "t_trigger_us": 44636595,
      "is_ai": true,
      "track_id": 0,
      "velocity": 0,
      "is_motor": true,
      "motor_id": 1,
      "accel_val": 2000,
      "base_duration_us": 440907
    },
    {
      "id": "M_257",
      "pitch": 75,
      "t_note_us": 44772558,
      "t_trigger_us": 44636595,
      "is_ai": false,
      "track_id": 0,
      "velocity": 0,
      "is_motor": true,
      "motor_id": 3,
      "accel_val": 2000,
      "base_duration_us": 452270
    },
    {
      "id": "M_260",
      "pitch": 67,
      "t_note_us": 44772558,
      "t_trigger_us": 44636595,
      "is_ai": false,
      "track_id": 0,
      "velocity": 0,
      "is_motor": true,
      "motor_id": 0,
      "accel_val": 2000,
      "base_duration_us": 836359
    },
    {
      "id": "M_263",
      "pitch": 70,
      "t_note_us": 44783921,
      "t_trigger_us": 44647958,
      "is_ai": false,
      "track_id": 0,
      "velocity": 0,
      "is_motor": true,
      "motor_id": 2,
      "accel_val": 2000,
      "base_duration_us": 1093175
    },
    {
      "id": "M_258",
      "pitch": 63,
      "t_note_us": 44877102,
      "t_trigger_us": 44741139,
      "is_ai": false,
      "track_id": 0,
      "velocity": 0,
      "is_motor": true,
      "motor_id": 0,
      "accel_val": 2000,
      "base_duration_us": 638635
    },
    {
      "id": "M_261",
      "pitch": 96,
      "t_note_us": 45202102,
      "t_trigger_us": 45066139,
      "is_ai": true,
      "track_id": 10,
      "velocity": 0,
      "is_motor": false,
      "motor_id": 0,
      "accel_val": 2000,
      "base_duration_us": 440905
    },
    {
      "id": "M_259",
      "pitch": 75,
      "t_note_us": 45365737,
      "t_trigger_us": 45229774,
      "is_ai": false,
      "track_id": 0,
      "velocity": 0,
      "is_motor": true,
      "motor_id": 1,
      "accel_val": 2000,
      "base_duration_us": 209090
    },
    {
      "id": "M_266",
      "pitch": 98,
      "t_note_us": 45631644,
      "t_trigger_us": 45495681,
      "is_ai": true,
      "track_id": 11,
      "velocity": 0,
      "is_motor": false,
      "motor_id": 0,
      "accel_val": 2000,
      "base_duration_us": 431813
    },
    {
      "id": "M_262",
      "pitch": 69,
      "t_note_us": 45643007,
      "t_trigger_us": 45507044,
      "is_ai": false,
      "track_id": 0,
      "velocity": 0,
      "is_motor": true,
      "motor_id": 1,
      "accel_val": 2000,
      "base_duration_us": 140908
    },
    {
      "id": "M_265",
      "pitch": 74,
      "t_note_us": 45643007,
      "t_trigger_us": 45507044,
      "is_ai": false,
      "track_id": 0,
      "velocity": 0,
      "is_motor": true,
      "motor_id": 0,
      "accel_val": 2000,
      "base_duration_us": 397724
    },
    {
      "id": "M_264",
      "pitch": 62,
      "t_note_us": 45772552,
      "t_trigger_us": 45636589,
      "is_ai": false,
      "track_id": 0,
      "velocity": 0,
      "is_motor": true,
      "motor_id": 3,
      "accel_val": 2000,
      "base_duration_us": 163634
    },
    {
      "id": "M_273",
      "pitch": 70,
      "t_note_us": 46052094,
      "t_trigger_us": 45916131,
      "is_ai": false,
      "track_id": 0,
      "velocity": 0,
      "is_motor": true,
      "motor_id": 1,
      "accel_val": 2000,
      "base_duration_us": 1404539
    },
    {
      "id": "M_267",
      "pitch": 98,
      "t_note_us": 46063457,
      "t_trigger_us": 45927494,
      "is_ai": true,
      "track_id": 11,
      "velocity": 0,
      "is_motor": false,
      "motor_id": 0,
      "accel_val": 2000,
      "base_duration_us": 418181
    },
    {
      "id": "M_268",
      "pitch": 101,
      "t_note_us": 46063457,
      "t_trigger_us": 45927494,
      "is_ai": true,
      "track_id": 13,
      "velocity": 0,
      "is_motor": false,
      "motor_id": 0,
      "accel_val": 2000,
      "base_duration_us": 429544
    },
    {
      "id": "M_270",
      "pitch": 98,
      "t_note_us": 46481638,
      "t_trigger_us": 46345675,
      "is_ai": true,
      "track_id": 11,
      "velocity": 0,
      "is_motor": false,
      "motor_id": 0,
      "accel_val": 2000,
      "base_duration_us": 545452
    },
    {
      "id": "M_269",
      "pitch": 74,
      "t_note_us": 46493001,
      "t_trigger_us": 46357038,
      "is_ai": false,
      "track_id": 0,
      "velocity": 0,
      "is_motor": true,
      "motor_id": 0,
      "accel_val": 2000,
      "base_duration_us": 370454
    },
    {
      "id": "M_272",
      "pitch": 74,
      "t_note_us": 46493001,
      "t_trigger_us": 46357038,
      "is_ai": false,
      "track_id": 0,
      "velocity": 0,
      "is_motor": true,
      "motor_id": 2,
      "accel_val": 2000,
      "base_duration_us": 893178
    },
    {
      "id": "M_271",
      "pitch": 77,
      "t_note_us": 46922545,
      "t_trigger_us": 46786582,
      "is_ai": false,
      "track_id": 0,
      "velocity": 0,
      "is_motor": true,
      "motor_id": 3,
      "accel_val": 2000,
      "base_duration_us": 429544
    },
    {
      "id": "M_276",
      "pitch": 96,
      "t_note_us": 47340726,
      "t_trigger_us": 47204763,
      "is_ai": true,
      "track_id": 10,
      "velocity": 0,
      "is_motor": false,
      "motor_id": 0,
      "accel_val": 2000,
      "base_duration_us": 859088
    },
    {
      "id": "M_274",
      "pitch": 77,
      "t_note_us": 47352089,
      "t_trigger_us": 47216126,
      "is_ai": false,
      "track_id": 0,
      "velocity": 0,
      "is_motor": true,
      "motor_id": 3,
      "accel_val": 2000,
      "base_duration_us": 395453
    },
    {
      "id": "M_275",
      "pitch": 72,
      "t_note_us": 47352089,
      "t_trigger_us": 47216126,
      "is_ai": false,
      "track_id": 0,
      "velocity": 0,
      "is_motor": true,
      "motor_id": 0,
      "accel_val": 2000,
      "base_duration_us": 847725
    },
    {
      "id": "M_277",
      "pitch": 67,
      "t_note_us": 47770269,
      "t_trigger_us": 47634306,
      "is_ai": false,
      "track_id": 0,
      "velocity": 0,
      "is_motor": true,
      "motor_id": 1,
      "accel_val": 2000,
      "base_duration_us": 452272
    },
    {
      "id": "M_279",
      "pitch": 96,
      "t_note_us": 48199814,
      "t_trigger_us": 48063851,
      "is_ai": true,
      "track_id": 10,
      "velocity": 0,
      "is_motor": false,
      "motor_id": 0,
      "accel_val": 2000,
      "base_duration_us": 604544
    },
    {
      "id": "M_278",
      "pitch": 70,
      "t_note_us": 48199814,
      "t_trigger_us": 48063851,
      "is_ai": false,
      "track_id": 0,
      "velocity": 0,
      "is_motor": true,
      "motor_id": 2,
      "accel_val": 2000,
      "base_duration_us": 440908
    },
    {
      "id": "M_283",
      "pitch": 72,
      "t_note_us": 48199814,
      "t_trigger_us": 48063851,
      "is_ai": false,
      "track_id": 0,
      "velocity": 0,
      "is_motor": true,
      "motor_id": 0,
      "accel_val": 2000,
      "base_duration_us": 870450
    },
    {
      "id": "M_280",
      "pitch": 67,
      "t_note_us": 48222541,
      "t_trigger_us": 48086578,
      "is_ai": false,
      "track_id": 0,
      "velocity": 0,
      "is_motor": true,
      "motor_id": 1,
      "accel_val": 2000,
      "base_duration_us": 779544
    },
    {
      "id": "M_281",
      "pitch": 91,
      "t_note_us": 48629359,
      "t_trigger_us": 48493396,
      "is_ai": true,
      "track_id": 7,
      "velocity": 0,
      "is_motor": false,
      "motor_id": 0,
      "accel_val": 2000,
      "base_duration_us": 384089
    },
    {
      "id": "M_282",
      "pitch": 70,
      "t_note_us": 48629359,
      "t_trigger_us": 48493396,
      "is_ai": true,
      "track_id": 0,
      "velocity": 0,
      "is_motor": true,
      "motor_id": 3,
      "accel_val": 2000,
      "base_duration_us": 384089
    },
    {
      "id": "M_284",
      "pitch": 70,
      "t_note_us": 48640722,
      "t_trigger_us": 48504759,
      "is_ai": false,
      "track_id": 0,
      "velocity": 0,
      "is_motor": true,
      "motor_id": 2,
      "accel_val": 2000,
      "base_duration_us": 522723
    },
    {
      "id": "M_287",
      "pitch": 65,
      "t_note_us": 49047538,
      "t_trigger_us": 48911575,
      "is_ai": false,
      "track_id": 0,
      "velocity": 0,
      "is_motor": true,
      "motor_id": 1,
      "accel_val": 2000,
      "base_duration_us": 1243178
    },
    {
      "id": "M_288",
      "pitch": 77,
      "t_note_us": 49047538,
      "t_trigger_us": 48911575,
      "is_ai": false,
      "track_id": 0,
      "velocity": 0,
      "is_motor": true,
      "motor_id": 3,
      "accel_val": 2000,
      "base_duration_us": 1290905
    },
    {
      "id": "M_286",
      "pitch": 96,
      "t_note_us": 49058901,
      "t_trigger_us": 48922938,
      "is_ai": true,
      "track_id": 10,
      "velocity": 0,
      "is_motor": false,
      "motor_id": 0,
      "accel_val": 2000,
      "base_duration_us": 522725
    },
    {
      "id": "M_285",
      "pitch": 72,
      "t_note_us": 49070264,
      "t_trigger_us": 48934301,
      "is_ai": false,
      "track_id": 0,
      "velocity": 0,
      "is_motor": true,
      "motor_id": 0,
      "accel_val": 2000,
      "base_duration_us": 418181
    },
    {
      "id": "M_292",
      "pitch": 72,
      "t_note_us": 49488445,
      "t_trigger_us": 49352482,
      "is_ai": false,
      "track_id": 0,
      "velocity": 0,
      "is_motor": true,
      "motor_id": 0,
      "accel_val": 2000,
      "base_duration_us": 1672722
    },
    {
      "id": "M_290",
      "pitch": 67,
      "t_note_us": 49920262,
      "t_trigger_us": 49784299,
      "is_ai": false,
      "track_id": 0,
      "velocity": 0,
      "is_motor": true,
      "motor_id": 2,
      "accel_val": 2000,
      "base_duration_us": 847725
    },
    {
      "id": "M_291",
      "pitch": 77,
      "t_note_us": 50338443,
      "t_trigger_us": 50202480,
      "is_ai": false,
      "track_id": 0,
      "velocity": 0,
      "is_motor": true,
      "motor_id": 1,
      "accel_val": 2000,
      "base_duration_us": 788634
    },
    {
      "id": "M_289",
      "pitch": 65,
      "t_note_us": 50442988,
      "t_trigger_us": 50307025,
      "is_ai": false,
      "track_id": 0,
      "velocity": 0,
      "is_motor": true,
      "motor_id": 3,
      "accel_val": 2000,
      "base_duration_us": 209090
    },
    {
      "id": "M_295",
      "pitch": 98,
      "t_note_us": 50767987,
      "t_trigger_us": 50632024,
      "is_ai": true,
      "track_id": 11,
      "velocity": 0,
      "is_motor": false,
      "motor_id": 0,
      "accel_val": 2000,
      "base_duration_us": 731815
    },
    {
      "id": "M_293",
      "pitch": 67,
      "t_note_us": 50767987,
      "t_trigger_us": 50632024,
      "is_ai": false,
      "track_id": 0,
      "velocity": 0,
      "is_motor": true,
      "motor_id": 2,
      "accel_val": 2000,
      "base_duration_us": 406816
    },
    {
      "id": "M_297",
      "pitch": 67,
      "t_note_us": 50849805,
      "t_trigger_us": 50713842,
      "is_ai": false,
      "track_id": 0,
      "velocity": 0,
      "is_motor": true,
      "motor_id": 3,
      "accel_val": 2000,
      "base_duration_us": 1115905
    },
    {
      "id": "M_294",
      "pitch": 74,
      "t_note_us": 51056623,
      "t_trigger_us": 50920660,
      "is_ai": false,
      "track_id": 0,
      "velocity": 0,
      "is_motor": true,
      "motor_id": 0,
      "accel_val": 2000,
      "base_duration_us": 152270
    },
    {
      "id": "M_296",
      "pitch": 74,
      "t_note_us": 51208893,
      "t_trigger_us": 51072930,
      "is_ai": false,
      "track_id": 0,
      "velocity": 0,
      "is_motor": true,
      "motor_id": 1,
      "accel_val": 2000,
      "base_duration_us": 406818
    },
    {
      "id": "M_298",
      "pitch": 74,
      "t_note_us": 51208893,
      "t_trigger_us": 51072930,
      "is_ai": false,
      "track_id": 0,
      "velocity": 0,
      "is_motor": true,
      "motor_id": 0,
      "accel_val": 2000,
      "base_duration_us": 847726
    },
    {
      "id": "M_299",
      "pitch": 70,
      "t_note_us": 51638438,
      "t_trigger_us": 51502475,
      "is_ai": false,
      "track_id": 0,
      "velocity": 0,
      "is_motor": true,
      "motor_id": 1,
      "accel_val": 2000,
      "base_duration_us": 418181
    },
    {
      "id": "M_303",
      "pitch": 101,
      "t_note_us": 52056619,
      "t_trigger_us": 51920656,
      "is_ai": true,
      "track_id": 13,
      "velocity": 0,
      "is_motor": false,
      "motor_id": 0,
      "accel_val": 2000,
      "base_duration_us": 454543
    },
    {
      "id": "M_301",
      "pitch": 74,
      "t_note_us": 52056619,
      "t_trigger_us": 51920656,
      "is_ai": false,
      "track_id": 0,
      "velocity": 0,
      "is_motor": true,
      "motor_id": 1,
      "accel_val": 2000,
      "base_duration_us": 443180
    },
    {
      "id": "M_302",
      "pitch": 70,
      "t_note_us": 52056619,
      "t_trigger_us": 51920656,
      "is_ai": false,
      "track_id": 0,
      "velocity": 0,
      "is_motor": true,
      "motor_id": 2,
      "accel_val": 2000,
      "base_duration_us": 443180
    },
    {
      "id": "M_300",
      "pitch": 67,
      "t_note_us": 52115709,
      "t_trigger_us": 51979746,
      "is_ai": false,
      "track_id": 0,
      "velocity": 0,
      "is_motor": true,
      "motor_id": 0,
      "accel_val": 2000,
      "base_duration_us": 265909
    },
    {
      "id": "M_304",
      "pitch": 98,
      "t_note_us": 52265709,
      "t_trigger_us": 52129746,
      "is_ai": true,
      "track_id": 11,
      "velocity": 0,
      "is_motor": false,
      "motor_id": 0,
      "accel_val": 2000,
      "base_duration_us": 324998
    },
    {
      "id": "M_307",
      "pitch": 103,
      "t_note_us": 52486163,
      "t_trigger_us": 52350200,
      "is_ai": true,
      "track_id": 14,
      "velocity": 0,
      "is_motor": false,
      "motor_id": 0,
      "accel_val": 2000,
      "base_duration_us": 418176
    },
    {
      "id": "M_305",
      "pitch": 70,
      "t_note_us": 52499799,
      "t_trigger_us": 52363836,
      "is_ai": false,
      "track_id": 0,
      "velocity": 0,
      "is_motor": true,
      "motor_id": 1,
      "accel_val": 2000,
      "base_duration_us": 184088
    },
    {
      "id": "M_309",
      "pitch": 74,
      "t_note_us": 52499799,
      "t_trigger_us": 52363836,
      "is_ai": false,
      "track_id": 0,
      "velocity": 0,
      "is_motor": true,
      "motor_id": 0,
      "accel_val": 2000,
      "base_duration_us": 811356
    },
    {
      "id": "M_306",
      "pitch": 62,
      "t_note_us": 52649797,
      "t_trigger_us": 52513834,
      "is_ai": false,
      "track_id": 0,
      "velocity": 0,
      "is_motor": true,
      "motor_id": 2,
      "accel_val": 2000,
      "base_duration_us": 161361
    },
    {
      "id": "M_308",
      "pitch": 69,
      "t_note_us": 52777068,
      "t_trigger_us": 52641105,
      "is_ai": false,
      "track_id": 0,
      "velocity": 0,
      "is_motor": true,
      "motor_id": 1,
      "accel_val": 2000,
      "base_duration_us": 197724
    },
    {
      "id": "M_310",
      "pitch": 101,
      "t_note_us": 52915702,
      "t_trigger_us": 52779739,
      "is_ai": true,
      "track_id": 13,
      "velocity": 0,
      "is_motor": false,
      "motor_id": 0,
      "accel_val": 2000,
      "base_duration_us": 638633
    },
    {
      "id": "M_312",
      "pitch": 69,
      "t_note_us": 52986155,
      "t_trigger_us": 52850192,
      "is_ai": false,
      "track_id": 0,
      "velocity": 0,
      "is_motor": true,
      "motor_id": 1,
      "accel_val": 2000,
      "base_duration_us": 1197723
    },
    {
      "id": "M_314",
      "pitch": 77,
      "t_note_us": 53358882,
      "t_trigger_us": 53222919,
      "is_ai": false,
      "track_id": 0,
      "velocity": 0,
      "is_motor": true,
      "motor_id": 2,
      "accel_val": 2000,
      "base_duration_us": 1206812
    },
    {
      "id": "M_311",
      "pitch": 74,
      "t_note_us": 53486154,
      "t_trigger_us": 53350191,
      "is_ai": false,
      "track_id": 0,
      "velocity": 0,
      "is_motor": true,
      "motor_id": 0,
      "accel_val": 2000,
      "base_duration_us": 268180
    },
    {
      "id": "M_313",
      "pitch": 74,
      "t_note_us": 53765697,
      "t_trigger_us": 53629734,
      "is_ai": false,
      "track_id": 0,
      "velocity": 0,
      "is_motor": true,
      "motor_id": 0,
      "accel_val": 2000,
      "base_duration_us": 452271
    },
    {
      "id": "M_316",
      "pitch": 103,
      "t_note_us": 54195241,
      "t_trigger_us": 54059278,
      "is_ai": true,
      "track_id": 14,
      "velocity": 0,
      "is_motor": false,
      "motor_id": 0,
      "accel_val": 2000,
      "base_duration_us": 418179
    },
    {
      "id": "M_318",
      "pitch": 63,
      "t_note_us": 54195241,
      "t_trigger_us": 54059278,
      "is_ai": false,
      "track_id": 0,
      "velocity": 0,
      "is_motor": true,
      "motor_id": 1,
      "accel_val": 2000,
      "base_duration_us": 811359
    },
    {
      "id": "M_319",
      "pitch": 75,
      "t_note_us": 54217968,
      "t_trigger_us": 54082005,
      "is_ai": false,
      "track_id": 0,
      "velocity": 0,
      "is_motor": true,
      "motor_id": 3,
      "accel_val": 2000,
      "base_duration_us": 836359
    },
    {
      "id": "M_315",
      "pitch": 70,
      "t_note_us": 54461149,
      "t_trigger_us": 54325186,
      "is_ai": false,
      "track_id": 0,
      "velocity": 0,
      "is_motor": true,
      "motor_id": 0,
      "accel_val": 2000,
      "base_duration_us": 140908
    },
    {
      "id": "M_321",
      "pitch": 70,
      "t_note_us": 54613420,
      "t_trigger_us": 54477457,
      "is_ai": false,
      "track_id": 0,
      "velocity": 0,
      "is_motor": true,
      "motor_id": 2,
      "accel_val": 2000,
      "base_duration_us": 463633
    },
    {
      "id": "M_320",
      "pitch": 101,
      "t_note_us": 54636147,
      "t_trigger_us": 54500184,
      "is_ai": true,
      "track_id": 13,
      "velocity": 0,
      "is_motor": false,
      "motor_id": 0,
      "accel_val": 2000,
      "base_duration_us": 429543
    },
    {
      "id": "M_317",
      "pitch": 70,
      "t_note_us": 54636147,
      "t_trigger_us": 54500184,
      "is_ai": false,
      "track_id": 0,
      "velocity": 0,
      "is_motor": true,
      "motor_id": 0,
      "accel_val": 2000,
      "base_duration_us": 359090
    },
    {
      "id": "M_327",
      "pitch": 75,
      "t_note_us": 55054327,
      "t_trigger_us": 54918364,
      "is_ai": false,
      "track_id": 0,
      "velocity": 0,
      "is_motor": true,
      "motor_id": 1,
      "accel_val": 2000,
      "base_duration_us": 813631
    },
    {
      "id": "M_323",
      "pitch": 101,
      "t_note_us": 55065690,
      "t_trigger_us": 54929727,
      "is_ai": true,
      "track_id": 13,
      "velocity": 0,
      "is_motor": false,
      "motor_id": 0,
      "accel_val": 2000,
      "base_duration_us": 347725
    },
    {
      "id": "M_322",
      "pitch": 70,
      "t_note_us": 55065690,
      "t_trigger_us": 54929727,
      "is_ai": false,
      "track_id": 0,
      "velocity": 0,
      "is_motor": true,
      "motor_id": 0,
      "accel_val": 2000,
      "base_duration_us": 209089
    },
    {
      "id": "M_324",
      "pitch": 67,
      "t_note_us": 55065690,
      "t_trigger_us": 54929727,
      "is_ai": false,
      "track_id": 0,
      "velocity": 0,
      "is_motor": true,
      "motor_id": 3,
      "accel_val": 2000,
      "base_duration_us": 418179
    },
    {
      "id": "M_330",
      "pitch": 70,
      "t_note_us": 55077053,
      "t_trigger_us": 54941090,
      "is_ai": false,
      "track_id": 0,
      "velocity": 0,
      "is_motor": true,
      "motor_id": 2,
      "accel_val": 2000,
      "base_duration_us": 1081812
    },
    {
      "id": "M_326",
      "pitch": 63,
      "t_note_us": 55170234,
      "t_trigger_us": 55034271,
      "is_ai": false,
      "track_id": 0,
      "velocity": 0,
      "is_motor": true,
      "motor_id": 0,
      "accel_val": 2000,
      "base_duration_us": 663634
    },
    {
      "id": "M_325",
      "pitch": 98,
      "t_note_us": 55483869,
      "t_trigger_us": 55347906,
      "is_ai": true,
      "track_id": 11,
      "velocity": 0,
      "is_motor": false,
      "motor_id": 0,
      "accel_val": 2000,
      "base_duration_us": 234090
    },
    {
      "id": "M_328",
      "pitch": 67,
      "t_note_us": 55483869,
      "t_trigger_us": 55347906,
      "is_ai": false,
      "track_id": 0,
      "velocity": 0,
      "is_motor": true,
      "motor_id": 0,
      "accel_val": 2000,
      "base_duration_us": 406816
    },
    {
      "id": "M_332",
      "pitch": 101,
      "t_note_us": 55913412,
      "t_trigger_us": 55777449,
      "is_ai": true,
      "track_id": 13,
      "velocity": 0,
      "is_motor": false,
      "motor_id": 0,
      "accel_val": 2000,
      "base_duration_us": 604541
    },
    {
      "id": "M_329",
      "pitch": 69,
      "t_note_us": 55913412,
      "t_trigger_us": 55777449,
      "is_ai": false,
      "track_id": 0,
      "velocity": 0,
      "is_motor": true,
      "motor_id": 1,
      "accel_val": 2000,
      "base_duration_us": 222726
    },
    {
      "id": "M_331",
      "pitch": 74,
      "t_note_us": 55927048,
      "t_trigger_us": 55791085,
      "is_ai": false,
      "track_id": 0,
      "velocity": 0,
      "is_motor": true,
      "motor_id": 0,
      "accel_val": 2000,
      "base_duration_us": 393180
    },
    {
      "id": "M_340",
      "pitch": 70,
      "t_note_us": 56345227,
      "t_trigger_us": 56209264,
      "is_ai": false,
      "track_id": 0,
      "velocity": 0,
      "is_motor": true,
      "motor_id": 1,
      "accel_val": 2000,
      "base_duration_us": 1427266
    },
    {
      "id": "M_333",
      "pitch": 62,
      "t_note_us": 56483863,
      "t_trigger_us": 56347900,
      "is_ai": false,
      "track_id": 0,
      "velocity": 0,
      "is_motor": true,
      "motor_id": 0,
      "accel_val": 2000,
      "base_duration_us": 209090
    },
    {
      "id": "M_335",
      "pitch": 74,
      "t_note_us": 56774771,
      "t_trigger_us": 56638808,
      "is_ai": false,
      "track_id": 0,
      "velocity": 0,
      "is_motor": true,
      "motor_id": 0,
      "accel_val": 2000,
      "base_duration_us": 336363
    },
    {
      "id": "M_339",
      "pitch": 74,
      "t_note_us": 56774771,
      "t_trigger_us": 56638808,
      "is_ai": false,
      "track_id": 0,
      "velocity": 0,
      "is_motor": true,
      "motor_id": 2,
      "accel_val": 2000,
      "base_duration_us": 893177
    },
    {
      "id": "M_336",
      "pitch": 69,
      "t_note_us": 56797498,
      "t_trigger_us": 56661535,
      "is_ai": false,
      "track_id": 0,
      "velocity": 0,
      "is_motor": true,
      "motor_id": 3,
      "accel_val": 2000,
      "base_duration_us": 381817
    },
    {
      "id": "M_334",
      "pitch": 62,
      "t_note_us": 56913407,
      "t_trigger_us": 56777444,
      "is_ai": false,
      "track_id": 0,
      "velocity": 0,
      "is_motor": true,
      "motor_id": 0,
      "accel_val": 2000,
      "base_duration_us": 197727
    },
    {
      "id": "M_337",
      "pitch": 77,
      "t_note_us": 57204314,
      "t_trigger_us": 57068351,
      "is_ai": false,
      "track_id": 0,
      "velocity": 0,
      "is_motor": true,
      "motor_id": 3,
      "accel_val": 2000,
      "base_duration_us": 220454
    },
    {
      "id": "M_338",
      "pitch": 77,
      "t_note_us": 57424768,
      "t_trigger_us": 57288805,
      "is_ai": false,
      "track_id": 0,
      "velocity": 0,
      "is_motor": true,
      "motor_id": 3,
      "accel_val": 2000,
      "base_duration_us": 186363
    },
    {
      "id": "M_341",
      "pitch": 77,
      "t_note_us": 57424768,
      "t_trigger_us": 57288805,
      "is_ai": false,
      "track_id": 0,
      "velocity": 0,
      "is_motor": true,
      "motor_id": 0,
      "accel_val": 2000,
      "base_duration_us": 568179
    },
    {
      "id": "M_342",
      "pitch": 98,
      "t_note_us": 57633858,
      "t_trigger_us": 57497895,
      "is_ai": true,
      "track_id": 11,
      "velocity": 0,
      "is_motor": false,
      "motor_id": 0,
      "accel_val": 2000,
      "base_duration_us": 429543
    },
    {
      "id": "M_344",
      "pitch": 72,
      "t_note_us": 57633858,
      "t_trigger_us": 57497895,
      "is_ai": false,
      "track_id": 0,
      "velocity": 0,
      "is_motor": true,
      "motor_id": 3,
      "accel_val": 2000,
      "base_duration_us": 859087
    },
    {
      "id": "M_343",
      "pitch": 98,
      "t_note_us": 58063401,
      "t_trigger_us": 57927438,
      "is_ai": true,
      "track_id": 11,
      "velocity": 0,
      "is_motor": false,
      "motor_id": 0,
      "accel_val": 2000,
      "base_duration_us": 406818
    },
    {
      "id": "M_350",
      "pitch": 67,
      "t_note_us": 58063401,
      "t_trigger_us": 57927438,
      "is_ai": false,
      "track_id": 0,
      "velocity": 0,
      "is_motor": true,
      "motor_id": 1,
      "accel_val": 2000,
      "base_duration_us": 1709085
    },
    {
      "id": "M_345",
      "pitch": 96,
      "t_note_us": 58481582,
      "t_trigger_us": 58345619,
      "is_ai": true,
      "track_id": 10,
      "velocity": 0,
      "is_motor": false,
      "motor_id": 0,
      "accel_val": 2000,
      "base_duration_us": 568180
    },
    {
      "id": "M_346",
      "pitch": 70,
      "t_note_us": 58492945,
      "t_trigger_us": 58356982,
      "is_ai": false,
      "track_id": 0,
      "velocity": 0,
      "is_motor": true,
      "motor_id": 2,
      "accel_val": 2000,
      "base_duration_us": 859089
    },
    {
      "id": "M_348",
      "pitch": 72,
      "t_note_us": 58492945,
      "t_trigger_us": 58356982,
      "is_ai": false,
      "track_id": 0,
      "velocity": 0,
      "is_motor": true,
      "motor_id": 0,
      "accel_val": 2000,
      "base_duration_us": 1231815
    },
    {
      "id": "M_347",
      "pitch": 98,
      "t_note_us": 58911126,
      "t_trigger_us": 58775163,
      "is_ai": true,
      "track_id": 11,
      "velocity": 0,
      "is_motor": false,
      "motor_id": 0,
      "accel_val": 2000,
      "base_duration_us": 452271
    },
    {
      "id": "M_352",
      "pitch": 101,
      "t_note_us": 59352034,
      "t_trigger_us": 59216071,
      "is_ai": true,
      "track_id": 13,
      "velocity": 0,
      "is_motor": false,
      "motor_id": 0,
      "accel_val": 2000,
      "base_duration_us": 454542
    },
    {
      "id": "M_351",
      "pitch": 70,
      "t_note_us": 59352034,
      "t_trigger_us": 59216071,
      "is_ai": false,
      "track_id": 0,
      "velocity": 0,
      "is_motor": true,
      "motor_id": 2,
      "accel_val": 2000,
      "base_duration_us": 431815
    },
    {
      "id": "M_349",
      "pitch": 98,
      "t_note_us": 59363397,
      "t_trigger_us": 59227434,
      "is_ai": true,
      "track_id": 11,
      "velocity": 0,
      "is_motor": false,
      "motor_id": 0,
      "accel_val": 2000,
      "base_duration_us": 384090
    },
    {
      "id": "M_355",
      "pitch": 67,
      "t_note_us": 59772486,
      "t_trigger_us": 59636523,
      "is_ai": false,
      "track_id": 0,
      "velocity": 0,
      "is_motor": true,
      "motor_id": 1,
      "accel_val": 2000,
      "base_duration_us": 440905
    },
    {
      "id": "M_354",
      "pitch": 70,
      "t_note_us": 59783849,
      "t_trigger_us": 59647886,
      "is_ai": false,
      "track_id": 0,
      "velocity": 0,
      "is_motor": true,
      "motor_id": 2,
      "accel_val": 2000,
      "base_duration_us": 418179
    },
    {
      "id": "M_353",
      "pitch": 72,
      "t_note_us": 59899757,
      "t_trigger_us": 59763794,
      "is_ai": false,
      "track_id": 0,
      "velocity": 0,
      "is_motor": true,
      "motor_id": 0,
      "accel_val": 2000,
      "base_duration_us": 209090
    },
    {
      "id": "M_358",
      "pitch": 98,
      "t_note_us": 60202028,
      "t_trigger_us": 60066065,
      "is_ai": true,
      "track_id": 11,
      "velocity": 0,
      "is_motor": false,
      "motor_id": 0,
      "accel_val": 2000,
      "base_duration_us": 440907
    },
    {
      "id": "M_357",
      "pitch": 70,
      "t_note_us": 60202028,
      "t_trigger_us": 60066065,
      "is_ai": false,
      "track_id": 0,
      "velocity": 0,
      "is_motor": true,
      "motor_id": 2,
      "accel_val": 2000,
      "base_duration_us": 440907
    },
    {
      "id": "M_356",
      "pitch": 67,
      "t_note_us": 60213391,
      "t_trigger_us": 60077428,
      "is_ai": false,
      "track_id": 0,
      "velocity": 0,
      "is_motor": true,
      "motor_id": 1,
      "accel_val": 2000,
      "base_duration_us": 429544
    },
    {
      "id": "M_360",
      "pitch": 96,
      "t_note_us": 60631572,
      "t_trigger_us": 60495609,
      "is_ai": true,
      "track_id": 10,
      "velocity": 0,
      "is_motor": false,
      "motor_id": 0,
      "accel_val": 2000,
      "base_duration_us": 429543
    },
    {
      "id": "M_361",
      "pitch": 72,
      "t_note_us": 60631572,
      "t_trigger_us": 60495609,
      "is_ai": false,
      "track_id": 0,
      "velocity": 0,
      "is_motor": true,
      "motor_id": 0,
      "accel_val": 2000,
      "base_duration_us": 452270
    },
    {
      "id": "M_359",
      "pitch": 67,
      "t_note_us": 60642935,
      "t_trigger_us": 60506972,
      "is_ai": false,
      "track_id": 0,
      "velocity": 0,
      "is_motor": true,
      "motor_id": 1,
      "accel_val": 2000,
      "base_duration_us": 381818
    },
    {
      "id": "M_362",
      "pitch": 70,
      "t_note_us": 60642935,
      "t_trigger_us": 60506972,
      "is_ai": false,
      "track_id": 0,
      "velocity": 0,
      "is_motor": true,
      "motor_id": 2,
      "accel_val": 2000,
      "base_duration_us": 545452
    },
    {
      "id": "M_366",
      "pitch": 65,
      "t_note_us": 61049752,
      "t_trigger_us": 60913789,
      "is_ai": false,
      "track_id": 0,
      "velocity": 0,
      "is_motor": true,
      "motor_id": 1,
      "accel_val": 2000,
      "base_duration_us": 824996
    },
    {
      "id": "M_364",
      "pitch": 96,
      "t_note_us": 61061115,
      "t_trigger_us": 60925152,
      "is_ai": true,
      "track_id": 10,
      "velocity": 0,
      "is_motor": false,
      "motor_id": 0,
      "accel_val": 2000,
      "base_duration_us": 522725
    },
    {
      "id": "M_365",
      "pitch": 77,
      "t_note_us": 61061115,
      "t_trigger_us": 60925152,
      "is_ai": false,
      "track_id": 0,
      "velocity": 0,
      "is_motor": true,
      "motor_id": 3,
      "accel_val": 2000,
      "base_duration_us": 802270
    },
    {
      "id": "M_363",
      "pitch": 72,
      "t_note_us": 61083842,
      "t_trigger_us": 60947879,
      "is_ai": false,
      "track_id": 0,
      "velocity": 0,
      "is_motor": true,
      "motor_id": 0,
      "accel_val": 2000,
      "base_duration_us": 406817
    },
    {
      "id": "M_371",
      "pitch": 72,
      "t_note_us": 61490659,
      "t_trigger_us": 61354696,
      "is_ai": false,
      "track_id": 0,
      "velocity": 0,
      "is_motor": true,
      "motor_id": 0,
      "accel_val": 2000,
      "base_duration_us": 1718176
    },
    {
      "id": "M_368",
      "pitch": 96,
      "t_note_us": 61908838,
      "t_trigger_us": 61772875,
      "is_ai": true,
      "track_id": 10,
      "velocity": 0,
      "is_motor": false,
      "motor_id": 0,
      "accel_val": 2000,
      "base_duration_us": 545452
    },
    {
      "id": "M_369",
      "pitch": 77,
      "t_note_us": 61908838,
      "t_trigger_us": 61772875,
      "is_ai": false,
      "track_id": 0,
      "velocity": 0,
      "is_motor": true,
      "motor_id": 2,
      "accel_val": 2000,
      "base_duration_us": 709088
    },
    {
      "id": "M_373",
      "pitch": 75,
      "t_note_us": 61967928,
      "t_trigger_us": 61831965,
      "is_ai": false,
      "track_id": 0,
      "velocity": 0,
      "is_motor": true,
      "motor_id": 1,
      "accel_val": 2000,
      "base_duration_us": 2009087
    },
    {
      "id": "M_367",
      "pitch": 65,
      "t_note_us": 62024746,
      "t_trigger_us": 61888783,
      "is_ai": false,
      "track_id": 0,
      "velocity": 0,
      "is_motor": true,
      "motor_id": 3,
      "accel_val": 2000,
      "base_duration_us": 220454
    },
    {
      "id": "M_370",
      "pitch": 70,
      "t_note_us": 62338381,
      "t_trigger_us": 62202418,
      "is_ai": true,
      "track_id": 0,
      "velocity": 0,
      "is_motor": true,
      "motor_id": 3,
      "accel_val": 2000,
      "base_duration_us": 545454
    },
    {
      "id": "M_372",
      "pitch": 96,
      "t_note_us": 62767926,
      "t_trigger_us": 62631963,
      "is_ai": true,
      "track_id": 10,
      "velocity": 0,
      "is_motor": false,
      "motor_id": 0,
      "accel_val": 2000,
      "base_duration_us": 499999
    },
    {
      "id": "M_376",
      "pitch": 72,
      "t_note_us": 63208835,
      "t_trigger_us": 63072872,
      "is_ai": false,
      "track_id": 0,
      "velocity": 0,
      "is_motor": true,
      "motor_id": 0,
      "accel_val": 2000,
      "base_duration_us": 1313632
    },
    {
      "id": "M_374",
      "pitch": 67,
      "t_note_us": 63629288,
      "t_trigger_us": 63493325,
      "is_ai": false,
      "track_id": 0,
      "velocity": 0,
      "is_motor": true,
      "motor_id": 2,
      "accel_val": 2000,
      "base_duration_us": 822726
    },
    {
      "id": "M_375",
      "pitch": 77,
      "t_note_us": 64058833,
      "t_trigger_us": 63922870,
      "is_ai": false,
      "track_id": 0,
      "velocity": 0,
      "is_motor": true,
      "motor_id": 1,
      "accel_val": 2000,
      "base_duration_us": 429544
    },
    {
      "id": "M_380",
      "pitch": 98,
      "t_note_us": 64488377,
      "t_trigger_us": 64352414,
      "is_ai": true,
      "track_id": 11,
      "velocity": 0,
      "is_motor": false,
      "motor_id": 0,
      "accel_val": 2000,
      "base_duration_us": 859089
    },
    {
      "id": "M_378",
      "pitch": 77,
      "t_note_us": 64488377,
      "t_trigger_us": 64352414,
      "is_ai": false,
      "track_id": 0,
      "velocity": 0,
      "is_motor": true,
      "motor_id": 2,
      "accel_val": 2000,
      "base_duration_us": 429544
    },
    {
      "id": "M_385",
      "pitch": 70,
      "t_note_us": 64499740,
      "t_trigger_us": 64363777,
      "is_ai": false,
      "track_id": 0,
      "velocity": 0,
      "is_motor": true,
      "motor_id": 1,
      "accel_val": 2000,
      "base_duration_us": 1695450
    },
    {
      "id": "M_377",
      "pitch": 72,
      "t_note_us": 64661103,
      "t_trigger_us": 64525140,
      "is_ai": false,
      "track_id": 0,
      "velocity": 0,
      "is_motor": true,
      "motor_id": 0,
      "accel_val": 2000,
      "base_duration_us": 140909
    },
    {
      "id": "M_379",
      "pitch": 77,
      "t_note_us": 64917921,
      "t_trigger_us": 64781958,
      "is_ai": false,
      "track_id": 0,
      "velocity": 0,
      "is_motor": true,
      "motor_id": 2,
      "accel_val": 2000,
      "base_duration_us": 429545
    },
    {
      "id": "M_381",
      "pitch": 98,
      "t_note_us": 65347466,
      "t_trigger_us": 65211503,
      "is_ai": true,
      "track_id": 11,
      "velocity": 0,
      "is_motor": false,
      "motor_id": 0,
      "accel_val": 2000,
      "base_duration_us": 161362
    },
    {
      "id": "M_383",
      "pitch": 77,
      "t_note_us": 65347466,
      "t_trigger_us": 65211503,
      "is_ai": false,
      "track_id": 0,
      "velocity": 0,
      "is_motor": true,
      "motor_id": 2,
      "accel_val": 2000,
      "base_duration_us": 429543
    },
    {
      "id": "M_386",
      "pitch": 74,
      "t_note_us": 65347466,
      "t_trigger_us": 65211503,
      "is_ai": false,
      "track_id": 0,
      "velocity": 0,
      "is_motor": true,
      "motor_id": 0,
      "accel_val": 2000,
      "base_duration_us": 859087
    },
    {
      "id": "M_382",
      "pitch": 70,
      "t_note_us": 65381556,
      "t_trigger_us": 65245593,
      "is_ai": false,
      "track_id": 0,
      "velocity": 0,
      "is_motor": true,
      "motor_id": 3,
      "accel_val": 2000,
      "base_duration_us": 268181
    },
    {
      "id": "M_384",
      "pitch": 96,
      "t_note_us": 65777009,
      "t_trigger_us": 65641046,
      "is_ai": true,
      "track_id": 10,
      "velocity": 0,
      "is_motor": false,
      "motor_id": 0,
      "accel_val": 2000,
      "base_duration_us": 406818
    },
    {
      "id": "M_388",
      "pitch": 77,
      "t_note_us": 65777009,
      "t_trigger_us": 65641046,
      "is_ai": false,
      "track_id": 0,
      "velocity": 0,
      "is_motor": true,
      "motor_id": 2,
      "accel_val": 2000,
      "base_duration_us": 859088
    },
    {
      "id": "M_393",
      "pitch": 98,
      "t_note_us": 66195190,
      "t_trigger_us": 66059227,
      "is_ai": true,
      "track_id": 11,
      "velocity": 0,
      "is_motor": false,
      "motor_id": 0,
      "accel_val": 2000,
      "base_duration_us": 1384087
    },
    {
      "id": "M_387",
      "pitch": 86,
      "t_note_us": 66206553,
      "t_trigger_us": 66070590,
      "is_ai": true,
      "track_id": 4,
      "velocity": 0,
      "is_motor": false,
      "motor_id": 0,
      "accel_val": 2000,
      "base_duration_us": 395454
    },
    {
      "id": "M_389",
      "pitch": 69,
      "t_note_us": 66311098,
      "t_trigger_us": 66175135,
      "is_ai": false,
      "track_id": 0,
      "velocity": 0,
      "is_motor": true,
      "motor_id": 1,
      "accel_val": 2000,
      "base_duration_us": 1195452
    },
    {
      "id": "M_390",
      "pitch": 77,
      "t_note_us": 66636097,
      "t_trigger_us": 66500134,
      "is_ai": false,
      "track_id": 0,
      "velocity": 0,
      "is_motor": true,
      "motor_id": 2,
      "accel_val": 2000,
      "base_duration_us": 870453
    },
    {
      "id": "M_391",
      "pitch": 72,
      "t_note_us": 67054278,
      "t_trigger_us": 66918315,
      "is_ai": false,
      "track_id": 0,
      "velocity": 0,
      "is_motor": true,
      "motor_id": 0,
      "accel_val": 2000,
      "base_duration_us": 452272
    },
    {
      "id": "M_392",
      "pitch": 96,
      "t_note_us": 67311096,
      "t_trigger_us": 67175133,
      "is_ai": true,
      "track_id": 10,
      "velocity": 0,
      "is_motor": false,
      "motor_id": 0,
      "accel_val": 2000,
      "base_duration_us": 195454
    },
    {
      "id": "M_395",
      "pitch": 77,
      "t_note_us": 67506550,
      "t_trigger_us": 67370587,
      "is_ai": false,
      "track_id": 0,
      "velocity": 0,
      "is_motor": true,
      "motor_id": 2,
      "accel_val": 2000,
      "base_duration_us": 409089
    },
    {
      "id": "M_396",
      "pitch": 72,
      "t_note_us": 67506550,
      "t_trigger_us": 67370587,
      "is_ai": false,
      "track_id": 0,
      "velocity": 0,
      "is_motor": true,
      "motor_id": 1,
      "accel_val": 2000,
      "base_duration_us": 409089
    },
    {
      "id": "M_402",
      "pitch": 69,
      "t_note_us": 67506550,
      "t_trigger_us": 67370587,
      "is_ai": false,
      "track_id": 0,
      "velocity": 0,
      "is_motor": true,
      "motor_id": 0,
      "accel_val": 2000,
      "base_duration_us": 1011358
    },
    {
      "id": "M_394",
      "pitch": 93,
      "t_note_us": 67683822,
      "t_trigger_us": 67547859,
      "is_ai": true,
      "track_id": 8,
      "velocity": 0,
      "is_motor": false,
      "motor_id": 0,
      "accel_val": 2000,
      "base_duration_us": 138636
    },
    {
      "id": "M_401",
      "pitch": 98,
      "t_note_us": 67915639,
      "t_trigger_us": 67779676,
      "is_ai": true,
      "track_id": 11,
      "velocity": 0,
      "is_motor": false,
      "motor_id": 0,
      "accel_val": 2000,
      "base_duration_us": 486360
    },
    {
      "id": "M_397",
      "pitch": 67,
      "t_note_us": 67915639,
      "t_trigger_us": 67779676,
      "is_ai": false,
      "track_id": 0,
      "velocity": 0,
      "is_motor": true,
      "motor_id": 1,
      "accel_val": 2000,
      "base_duration_us": 161362
    },
    {
      "id": "M_399",
      "pitch": 67,
      "t_note_us": 67927002,
      "t_trigger_us": 67791039,
      "is_ai": false,
      "track_id": 0,
      "velocity": 0,
      "is_motor": true,
      "motor_id": 2,
      "accel_val": 2000,
      "base_duration_us": 384089
    },
    {
      "id": "M_398",
      "pitch": 69,
      "t_note_us": 68042911,
      "t_trigger_us": 67906948,
      "is_ai": false,
      "track_id": 0,
      "velocity": 0,
      "is_motor": true,
      "motor_id": 3,
      "accel_val": 2000,
      "base_duration_us": 138635
    },
    {
      "id": "M_400",
      "pitch": 67,
      "t_note_us": 68077001,
      "t_trigger_us": 67941038,
      "is_ai": false,
      "track_id": 0,
      "velocity": 0,
      "is_motor": true,
      "motor_id": 1,
      "accel_val": 2000,
      "base_duration_us": 268180
    },
    {
      "id": "M_403",
      "pitch": 101,
      "t_note_us": 68345181,
      "t_trigger_us": 68209218,
      "is_ai": true,
      "track_id": 13,
      "velocity": 0,
      "is_motor": false,
      "motor_id": 0,
      "accel_val": 2000,
      "base_duration_us": 429544
    },
    {
      "id": "M_404",
      "pitch": 74,
      "t_note_us": 68345181,
      "t_trigger_us": 68209218,
      "is_ai": false,
      "track_id": 0,
      "velocity": 0,
      "is_motor": true,
      "motor_id": 1,
      "accel_val": 2000,
      "base_duration_us": 545453
    },
    {
      "id": "M_405",
      "pitch": 67,
      "t_note_us": 68345181,
      "t_trigger_us": 68209218,
      "is_ai": false,
      "track_id": 0,
      "velocity": 0,
      "is_motor": true,
      "motor_id": 2,
      "accel_val": 2000,
      "base_duration_us": 706816
    },
    {
      "id": "M_408",
      "pitch": 74,
      "t_note_us": 68345181,
      "t_trigger_us": 68209218,
      "is_ai": false,
      "track_id": 0,
      "velocity": 0,
      "is_motor": true,
      "motor_id": 3,
      "accel_val": 2000,
      "base_duration_us": 1429539
    },
    {
      "id": "M_409",
      "pitch": 70,
      "t_note_us": 68763362,
      "t_trigger_us": 68627399,
      "is_ai": false,
      "track_id": 0,
      "velocity": 0,
      "is_motor": true,
      "motor_id": 0,
      "accel_val": 2000,
      "base_duration_us": 1079539
    },
    {
      "id": "M_406",
      "pitch": 98,
      "t_note_us": 68774725,
      "t_trigger_us": 68638762,
      "is_ai": true,
      "track_id": 11,
      "velocity": 0,
      "is_motor": false,
      "motor_id": 0,
      "accel_val": 2000,
      "base_duration_us": 440907
    },
    {
      "id": "M_407",
      "pitch": 96,
      "t_note_us": 69204269,
      "t_trigger_us": 69068306,
      "is_ai": true,
      "track_id": 10,
      "velocity": 0,
      "is_motor": false,
      "motor_id": 0,
      "accel_val": 2000,
      "base_duration_us": 406817
    },
    {
      "id": "M_411",
      "pitch": 98,
      "t_note_us": 69622449,
      "t_trigger_us": 69486486,
      "is_ai": true,
      "track_id": 11,
      "velocity": 0,
      "is_motor": false,
      "motor_id": 0,
      "accel_val": 2000,
      "base_duration_us": 454541
    },
    {
      "id": "M_410",
      "pitch": 77,
      "t_note_us": 69633812,
      "t_trigger_us": 69497849,
      "is_ai": false,
      "track_id": 0,
      "velocity": 0,
      "is_motor": true,
      "motor_id": 2,
      "accel_val": 2000,
      "base_duration_us": 245452
    },
    {
      "id": "M_413",
      "pitch": 65,
      "t_note_us": 69647448,
      "t_trigger_us": 69511485,
      "is_ai": false,
      "track_id": 0,
      "velocity": 0,
      "is_motor": true,
      "motor_id": 1,
      "accel_val": 2000,
      "base_duration_us": 859086
    },
    {
      "id": "M_412",
      "pitch": 74,
      "t_note_us": 70063354,
      "t_trigger_us": 69927391,
      "is_ai": false,
      "track_id": 0,
      "velocity": 0,
      "is_motor": true,
      "motor_id": 0,
      "accel_val": 2000,
      "base_duration_us": 361362
    },
    {
      "id": "M_417",
      "pitch": 74,
      "t_note_us": 70063354,
      "t_trigger_us": 69927391,
      "is_ai": false,
      "track_id": 0,
      "velocity": 0,
      "is_motor": true,
      "motor_id": 2,
      "accel_val": 2000,
      "base_duration_us": 1265904
    },
    {
      "id": "M_414",
      "pitch": 77,
      "t_note_us": 70261080,
      "t_trigger_us": 70125117,
      "is_ai": false,
      "track_id": 0,
      "velocity": 0,
      "is_motor": true,
      "motor_id": 3,
      "accel_val": 2000,
      "base_duration_us": 256817
    },
    {
      "id": "M_415",
      "pitch": 77,
      "t_note_us": 70529260,
      "t_trigger_us": 70393297,
      "is_ai": false,
      "track_id": 0,
      "velocity": 0,
      "is_motor": true,
      "motor_id": 1,
      "accel_val": 2000,
      "base_duration_us": 393181
    },
    {
      "id": "M_416",
      "pitch": 65,
      "t_note_us": 70529260,
      "t_trigger_us": 70393297,
      "is_ai": false,
      "track_id": 0,
      "velocity": 0,
      "is_motor": true,
      "motor_id": 0,
      "accel_val": 2000,
      "base_duration_us": 754544
    },
    {
      "id": "M_418",
      "pitch": 70,
      "t_note_us": 70922441,
      "t_trigger_us": 70786478,
      "is_ai": false,
      "track_id": 0,
      "velocity": 0,
      "is_motor": true,
      "motor_id": 1,
      "accel_val": 2000,
      "base_duration_us": 431816
    },
    {
      "id": "M_419",
      "pitch": 77,
      "t_note_us": 70922441,
      "t_trigger_us": 70786478,
      "is_ai": false,
      "track_id": 0,
      "velocity": 0,
      "is_motor": true,
      "motor_id": 3,
      "accel_val": 2000,
      "base_duration_us": 443179
    },
    {
      "id": "M_426",
      "pitch": 70,
      "t_note_us": 71354257,
      "t_trigger_us": 71218294,
      "is_ai": true,
      "track_id": 0,
      "velocity": 0,
      "is_motor": true,
      "motor_id": 1,
      "accel_val": 2000,
      "base_duration_us": 847723
    },
    {
      "id": "M_420",
      "pitch": 70,
      "t_note_us": 71354257,
      "t_trigger_us": 71218294,
      "is_ai": false,
      "track_id": 0,
      "velocity": 0,
      "is_motor": true,
      "motor_id": 2,
      "accel_val": 2000,
      "base_duration_us": 138635
    },
    {
      "id": "M_421",
      "pitch": 77,
      "t_note_us": 71365620,
      "t_trigger_us": 71229657,
      "is_ai": false,
      "track_id": 0,
      "velocity": 0,
      "is_motor": true,
      "motor_id": 3,
      "accel_val": 2000,
      "base_duration_us": 174999
    },
    {
      "id": "M_425",
      "pitch": 75,
      "t_note_us": 71365620,
      "t_trigger_us": 71229657,
      "is_ai": false,
      "track_id": 0,
      "velocity": 0,
      "is_motor": true,
      "motor_id": 0,
      "accel_val": 2000,
      "base_duration_us": 836360
    },
    {
      "id": "M_423",
      "pitch": 63,
      "t_note_us": 71376983,
      "t_trigger_us": 71241020,
      "is_ai": false,
      "track_id": 0,
      "velocity": 0,
      "is_motor": true,
      "motor_id": 0,
      "accel_val": 2000,
      "base_duration_us": 754543
    },
    {
      "id": "M_422",
      "pitch": 70,
      "t_note_us": 71586073,
      "t_trigger_us": 71450110,
      "is_ai": false,
      "track_id": 0,
      "velocity": 0,
      "is_motor": true,
      "motor_id": 2,
      "accel_val": 2000,
      "base_duration_us": 152272
    },
    {
      "id": "M_424",
      "pitch": 70,
      "t_note_us": 71749708,
      "t_trigger_us": 71613745,
      "is_ai": false,
      "track_id": 0,
      "velocity": 0,
      "is_motor": true,
      "motor_id": 2,
      "accel_val": 2000,
      "base_duration_us": 452272
    },
    {
      "id": "M_427",
      "pitch": 70,
      "t_note_us": 72201980,
      "t_trigger_us": 72066017,
      "is_ai": true,
      "track_id": 0,
      "velocity": 0,
      "is_motor": true,
      "motor_id": 1,
      "accel_val": 2000,
      "base_duration_us": 429544
    },
    {
      "id": "M_429",
      "pitch": 75,
      "t_note_us": 72201980,
      "t_trigger_us": 72066017,
      "is_ai": false,
      "track_id": 0,
      "velocity": 0,
      "is_motor": true,
      "motor_id": 2,
      "accel_val": 2000,
      "base_duration_us": 813633
    },
    {
      "id": "M_430",
      "pitch": 67,
      "t_note_us": 72201980,
      "t_trigger_us": 72066017,
      "is_ai": false,
      "track_id": 0,
      "velocity": 0,
      "is_motor": true,
      "motor_id": 0,
      "accel_val": 2000,
      "base_duration_us": 847723
    },
    {
      "id": "M_434",
      "pitch": 70,
      "t_note_us": 72201980,
      "t_trigger_us": 72066017,
      "is_ai": false,
      "track_id": 0,
      "velocity": 0,
      "is_motor": true,
      "motor_id": 3,
      "accel_val": 2000,
      "base_duration_us": 1288629
    },
    {
      "id": "M_428",
      "pitch": 63,
      "t_note_us": 72295161,
      "t_trigger_us": 72159198,
      "is_ai": false,
      "track_id": 0,
      "velocity": 0,
      "is_motor": true,
      "motor_id": 0,
      "accel_val": 2000,
      "base_duration_us": 695453
    },
    {
      "id": "M_431",
      "pitch": 96,
      "t_note_us": 72631524,
      "t_trigger_us": 72495561,
      "is_ai": true,
      "track_id": 10,
      "velocity": 0,
      "is_motor": false,
      "motor_id": 0,
      "accel_val": 2000,
      "base_duration_us": 440905
    },
    {
      "id": "M_435",
      "pitch": 98,
      "t_note_us": 73061066,
      "t_trigger_us": 72925103,
      "is_ai": true,
      "track_id": 11,
      "velocity": 0,
      "is_motor": false,
      "motor_id": 0,
      "accel_val": 2000,
      "base_duration_us": 429543
    },
    {
      "id": "M_432",
      "pitch": 69,
      "t_note_us": 73072429,
      "t_trigger_us": 72936466,
      "is_ai": false,
      "track_id": 0,
      "velocity": 0,
      "is_motor": true,
      "motor_id": 1,
      "accel_val": 2000,
      "base_duration_us": 152272
    },
    {
      "id": "M_439",
      "pitch": 74,
      "t_note_us": 73072429,
      "t_trigger_us": 72936466,
      "is_ai": false,
      "track_id": 0,
      "velocity": 0,
      "is_motor": true,
      "motor_id": 0,
      "accel_val": 2000,
      "base_duration_us": 849996
    },
    {
      "id": "M_433",
      "pitch": 62,
      "t_note_us": 73236064,
      "t_trigger_us": 73100101,
      "is_ai": false,
      "track_id": 0,
      "velocity": 0,
      "is_motor": true,
      "motor_id": 1,
      "accel_val": 2000,
      "base_duration_us": 150000
    },
    {
      "id": "M_438",
      "pitch": 98,
      "t_note_us": 73490609,
      "t_trigger_us": 73354646,
      "is_ai": true,
      "track_id": 11,
      "velocity": 0,
      "is_motor": false,
      "motor_id": 0,
      "accel_val": 2000,
      "base_duration_us": 418180
    },
    {
      "id": "M_440",
      "pitch": 101,
      "t_note_us": 73490609,
      "t_trigger_us": 73354646,
      "is_ai": true,
      "track_id": 13,
      "velocity": 0,
      "is_motor": false,
      "motor_id": 0,
      "accel_val": 2000,
      "base_duration_us": 431816
    },
    {
      "id": "M_436",
      "pitch": 70,
      "t_note_us": 73490609,
      "t_trigger_us": 73354646,
      "is_ai": false,
      "track_id": 0,
      "velocity": 0,
      "is_motor": true,
      "motor_id": 1,
      "accel_val": 2000,
      "base_duration_us": 129544
    },
    {
      "id": "M_445",
      "pitch": 70,
      "t_note_us": 73490609,
      "t_trigger_us": 73354646,
      "is_ai": false,
      "track_id": 0,
      "velocity": 0,
      "is_motor": true,
      "motor_id": 2,
      "accel_val": 2000,
      "base_duration_us": 1406813
    },
    {
      "id": "M_437",
      "pitch": 62,
      "t_note_us": 73608790,
      "t_trigger_us": 73472827,
      "is_ai": false,
      "track_id": 0,
      "velocity": 0,
      "is_motor": true,
      "motor_id": 3,
      "accel_val": 2000,
      "base_duration_us": 184090
    },
    {
      "id": "M_442",
      "pitch": 98,
      "t_note_us": 73908789,
      "t_trigger_us": 73772826,
      "is_ai": true,
      "track_id": 11,
      "velocity": 0,
      "is_motor": false,
      "motor_id": 0,
      "accel_val": 2000,
      "base_duration_us": 547726
    },
    {
      "id": "M_441",
      "pitch": 74,
      "t_note_us": 73922425,
      "t_trigger_us": 73786462,
      "is_ai": false,
      "track_id": 0,
      "velocity": 0,
      "is_motor": true,
      "motor_id": 1,
      "accel_val": 2000,
      "base_duration_us": 381818
    },
    {
      "id": "M_444",
      "pitch": 74,
      "t_note_us": 73922425,
      "t_trigger_us": 73786462,
      "is_ai": false,
      "track_id": 0,
      "velocity": 0,
      "is_motor": true,
      "motor_id": 0,
      "accel_val": 2000,
      "base_duration_us": 893179
    },
    {
      "id": "M_443",
      "pitch": 77,
      "t_note_us": 74351970,
      "t_trigger_us": 74216007,
      "is_ai": false,
      "track_id": 0,
      "velocity": 0,
      "is_motor": true,
      "motor_id": 1,
      "accel_val": 2000,
      "base_duration_us": 429544
    },
    {
      "id": "M_448",
      "pitch": 96,
      "t_note_us": 74770151,
      "t_trigger_us": 74634188,
      "is_ai": true,
      "track_id": 10,
      "velocity": 0,
      "is_motor": false,
      "motor_id": 0,
      "accel_val": 2000,
      "base_duration_us": 859087
    },
    {
      "id": "M_446",
      "pitch": 77,
      "t_note_us": 74781514,
      "t_trigger_us": 74645551,
      "is_ai": false,
      "track_id": 0,
      "velocity": 0,
      "is_motor": true,
      "motor_id": 1,
      "accel_val": 2000,
      "base_duration_us": 393180
    },
    {
      "id": "M_447",
      "pitch": 72,
      "t_note_us": 74781514,
      "t_trigger_us": 74645551,
      "is_ai": false,
      "track_id": 0,
      "velocity": 0,
      "is_motor": true,
      "motor_id": 3,
      "accel_val": 2000,
      "base_duration_us": 847724
    },
    {
      "id": "M_449",
      "pitch": 67,
      "t_note_us": 75199693,
      "t_trigger_us": 75063730,
      "is_ai": false,
      "track_id": 0,
      "velocity": 0,
      "is_motor": true,
      "motor_id": 1,
      "accel_val": 2000,
      "base_duration_us": 440908
    },
    {
      "id": "M_450",
      "pitch": 96,
      "t_note_us": 75629238,
      "t_trigger_us": 75493275,
      "is_ai": true,
      "track_id": 10,
      "velocity": 0,
      "is_motor": false,
      "motor_id": 0,
      "accel_val": 2000,
      "base_duration_us": 604544
    },
    {
      "id": "M_454",
      "pitch": 72,
      "t_note_us": 75629238,
      "t_trigger_us": 75493275,
      "is_ai": false,
      "track_id": 0,
      "velocity": 0,
      "is_motor": true,
      "motor_id": 0,
      "accel_val": 2000,
      "base_duration_us": 859087
    },
    {
      "id": "M_455",
      "pitch": 70,
      "t_note_us": 75629238,
      "t_trigger_us": 75493275,
      "is_ai": false,
      "track_id": 0,
      "velocity": 0,
      "is_motor": true,
      "motor_id": 2,
      "accel_val": 2000,
      "base_duration_us": 1011359
    },
    {
      "id": "M_451",
      "pitch": 67,
      "t_note_us": 75640601,
      "t_trigger_us": 75504638,
      "is_ai": false,
      "track_id": 0,
      "velocity": 0,
      "is_motor": true,
      "motor_id": 1,
      "accel_val": 2000,
      "base_duration_us": 790908
    },
    {
      "id": "M_452",
      "pitch": 91,
      "t_note_us": 76058782,
      "t_trigger_us": 75922819,
      "is_ai": true,
      "track_id": 7,
      "velocity": 0,
      "is_motor": false,
      "motor_id": 0,
      "accel_val": 2000,
      "base_duration_us": 384090
    },
    {
      "id": "M_453",
      "pitch": 70,
      "t_note_us": 76058782,
      "t_trigger_us": 75922819,
      "is_ai": true,
      "track_id": 0,
      "velocity": 0,
      "is_motor": true,
      "motor_id": 3,
      "accel_val": 2000,
      "base_duration_us": 395453
    },
    {
      "id": "M_460",
      "pitch": 77,
      "t_note_us": 76476962,
      "t_trigger_us": 76340999,
      "is_ai": false,
      "track_id": 0,
      "velocity": 0,
      "is_motor": true,
      "motor_id": 1,
      "accel_val": 2000,
      "base_duration_us": 1290905
    },
    {
      "id": "M_458",
      "pitch": 96,
      "t_note_us": 76488325,
      "t_trigger_us": 76352362,
      "is_ai": true,
      "track_id": 10,
      "velocity": 0,
      "is_motor": false,
      "motor_id": 0,
      "accel_val": 2000,
      "base_duration_us": 488634
    },
    {
      "id": "M_456",
      "pitch": 72,
      "t_note_us": 76488325,
      "t_trigger_us": 76352362,
      "is_ai": false,
      "track_id": 0,
      "velocity": 0,
      "is_motor": true,
      "motor_id": 0,
      "accel_val": 2000,
      "base_duration_us": 197726
    },
    {
      "id": "M_457",
      "pitch": 72,
      "t_note_us": 76488325,
      "t_trigger_us": 76352362,
      "is_ai": false,
      "track_id": 0,
      "velocity": 0,
      "is_motor": true,
      "motor_id": 3,
      "accel_val": 2000,
      "base_duration_us": 418180
    },
    {
      "id": "M_459",
      "pitch": 65,
      "t_note_us": 76488325,
      "t_trigger_us": 76352362,
      "is_ai": false,
      "track_id": 0,
      "velocity": 0,
      "is_motor": true,
      "motor_id": 0,
      "accel_val": 2000,
      "base_duration_us": 1197724
    },
    {
      "id": "M_464",
      "pitch": 72,
      "t_note_us": 76906505,
      "t_trigger_us": 76770542,
      "is_ai": false,
      "track_id": 0,
      "velocity": 0,
      "is_motor": true,
      "motor_id": 0,
      "accel_val": 2000,
      "base_duration_us": 1672723
    },
    {
      "id": "M_462",
      "pitch": 67,
      "t_note_us": 77358777,
      "t_trigger_us": 77222814,
      "is_ai": false,
      "track_id": 0,
      "velocity": 0,
      "is_motor": true,
      "motor_id": 2,
      "accel_val": 2000,
      "base_duration_us": 838634
    },
    {
      "id": "M_463",
      "pitch": 77,
      "t_note_us": 77767867,
      "t_trigger_us": 77631904,
      "is_ai": false,
      "track_id": 0,
      "velocity": 0,
      "is_motor": true,
      "motor_id": 1,
      "accel_val": 2000,
      "base_duration_us": 534089
    },
    {
      "id": "M_461",
      "pitch": 65,
      "t_note_us": 77895139,
      "t_trigger_us": 77759176,
      "is_ai": false,
      "track_id": 0,
      "velocity": 0,
      "is_motor": true,
      "motor_id": 3,
      "accel_val": 2000,
      "base_duration_us": 172727
    },
    {
      "id": "M_466",
      "pitch": 98,
      "t_note_us": 78197411,
      "t_trigger_us": 78061448,
      "is_ai": true,
      "track_id": 11,
      "velocity": 0,
      "is_motor": false,
      "motor_id": 0,
      "accel_val": 2000,
      "base_duration_us": 729543
    },
    {
      "id": "M_465",
      "pitch": 67,
      "t_note_us": 78197411,
      "t_trigger_us": 78061448,
      "is_ai": false,
      "track_id": 0,
      "velocity": 0,
      "is_motor": true,
      "motor_id": 2,
      "accel_val": 2000,
      "base_duration_us": 381817
    },
    {
      "id": "M_469",
      "pitch": 67,
      "t_note_us": 78197411,
      "t_trigger_us": 78061448,
      "is_ai": false,
      "track_id": 0,
      "velocity": 0,
      "is_motor": true,
      "motor_id": 3,
      "accel_val": 2000,
      "base_duration_us": 1218178
    },
    {
      "id": "M_468",
      "pitch": 74,
      "t_note_us": 78638318,
      "t_trigger_us": 78502355,
      "is_ai": false,
      "track_id": 0,
      "velocity": 0,
      "is_motor": true,
      "motor_id": 1,
      "accel_val": 2000,
      "base_duration_us": 429544
    },
    {
      "id": "M_467",
      "pitch": 74,
      "t_note_us": 78836045,
      "t_trigger_us": 78700082,
      "is_ai": false,
      "track_id": 0,
      "velocity": 0,
      "is_motor": true,
      "motor_id": 0,
      "accel_val": 2000,
      "base_duration_us": 184090
    },
    {
      "id": "M_470",
      "pitch": 74,
      "t_note_us": 79067862,
      "t_trigger_us": 78931899,
      "is_ai": false,
      "track_id": 0,
      "velocity": 0,
      "is_motor": true,
      "motor_id": 1,
      "accel_val": 2000,
      "base_duration_us": 418180
    },
    {
      "id": "M_471",
      "pitch": 70,
      "t_note_us": 79067862,
      "t_trigger_us": 78931899,
      "is_ai": false,
      "track_id": 0,
      "velocity": 0,
      "is_motor": true,
      "motor_id": 2,
      "accel_val": 2000,
      "base_duration_us": 418180
    },
    {
      "id": "M_475",
      "pitch": 101,
      "t_note_us": 79474679,
      "t_trigger_us": 79338716,
      "is_ai": true,
      "track_id": 13,
      "velocity": 0,
      "is_motor": false,
      "motor_id": 0,
      "accel_val": 2000,
      "base_duration_us": 463633
    },
    {
      "id": "M_473",
      "pitch": 74,
      "t_note_us": 79486042,
      "t_trigger_us": 79350079,
      "is_ai": false,
      "track_id": 0,
      "velocity": 0,
      "is_motor": true,
      "motor_id": 1,
      "accel_val": 2000,
      "base_duration_us": 429543
    },
    {
      "id": "M_474",
      "pitch": 70,
      "t_note_us": 79486042,
      "t_trigger_us": 79350079,
      "is_ai": false,
      "track_id": 0,
      "velocity": 0,
      "is_motor": true,
      "motor_id": 2,
      "accel_val": 2000,
      "base_duration_us": 429543
    },
    {
      "id": "M_472",
      "pitch": 67,
      "t_note_us": 79533769,
      "t_trigger_us": 79397806,
      "is_ai": false,
      "track_id": 0,
      "velocity": 0,
      "is_motor": true,
      "motor_id": 0,
      "accel_val": 2000,
      "base_duration_us": 313635
    },
    {
      "id": "M_476",
      "pitch": 98,
      "t_note_us": 79695132,
      "t_trigger_us": 79559169,
      "is_ai": true,
      "track_id": 11,
      "velocity": 0,
      "is_motor": false,
      "motor_id": 0,
      "accel_val": 2000,
      "base_duration_us": 324998
    },
    {
      "id": "M_479",
      "pitch": 103,
      "t_note_us": 79904222,
      "t_trigger_us": 79768259,
      "is_ai": true,
      "track_id": 14,
      "velocity": 0,
      "is_motor": false,
      "motor_id": 0,
      "accel_val": 2000,
      "base_duration_us": 429542
    },
    {
      "id": "M_477",
      "pitch": 70,
      "t_note_us": 79915585,
      "t_trigger_us": 79779622,
      "is_ai": false,
      "track_id": 0,
      "velocity": 0,
      "is_motor": true,
      "motor_id": 1,
      "accel_val": 2000,
      "base_duration_us": 209090
    },
    {
      "id": "M_481",
      "pitch": 74,
      "t_note_us": 79915585,
      "t_trigger_us": 79779622,
      "is_ai": false,
      "track_id": 0,
      "velocity": 0,
      "is_motor": true,
      "motor_id": 0,
      "accel_val": 2000,
      "base_duration_us": 824997
    },
    {
      "id": "M_478",
      "pitch": 62,
      "t_note_us": 80020130,
      "t_trigger_us": 79884167,
      "is_ai": false,
      "track_id": 0,
      "velocity": 0,
      "is_motor": true,
      "motor_id": 2,
      "accel_val": 2000,
      "base_duration_us": 256816
    },
    {
      "id": "M_480",
      "pitch": 69,
      "t_note_us": 80251947,
      "t_trigger_us": 80115984,
      "is_ai": false,
      "track_id": 0,
      "velocity": 0,
      "is_motor": true,
      "motor_id": 1,
      "accel_val": 2000,
      "base_duration_us": 163635
    },
    {
      "id": "M_482",
      "pitch": 101,
      "t_note_us": 80333764,
      "t_trigger_us": 80197801,
      "is_ai": true,
      "track_id": 13,
      "velocity": 0,
      "is_motor": false,
      "motor_id": 0,
      "accel_val": 2000,
      "base_duration_us": 649998
    },
    {
      "id": "M_484",
      "pitch": 69,
      "t_note_us": 80415582,
      "t_trigger_us": 80279619,
      "is_ai": false,
      "track_id": 0,
      "velocity": 0,
      "is_motor": true,
      "motor_id": 1,
      "accel_val": 2000,
      "base_duration_us": 1184087
    },
    {
      "id": "M_486",
      "pitch": 77,
      "t_note_us": 80786036,
      "t_trigger_us": 80650073,
      "is_ai": false,
      "track_id": 0,
      "velocity": 0,
      "is_motor": true,
      "motor_id": 2,
      "accel_val": 2000,
      "base_duration_us": 1231813
    },
    {
      "id": "M_483",
      "pitch": 74,
      "t_note_us": 80938308,
      "t_trigger_us": 80802345,
      "is_ai": false,
      "track_id": 0,
      "velocity": 0,
      "is_motor": true,
      "motor_id": 0,
      "accel_val": 2000,
      "base_duration_us": 254544
    },
    {
      "id": "M_485",
      "pitch": 74,
      "t_note_us": 81204215,
      "t_trigger_us": 81068252,
      "is_ai": false,
      "track_id": 0,
      "velocity": 0,
      "is_motor": true,
      "motor_id": 0,
      "accel_val": 2000,
      "base_duration_us": 431816
    },
    {
      "id": "M_487",
      "pitch": 103,
      "t_note_us": 81624668,
      "t_trigger_us": 81488705,
      "is_ai": true,
      "track_id": 14,
      "velocity": 0,
      "is_motor": false,
      "motor_id": 0,
      "accel_val": 2000,
      "base_duration_us": 418180
    },
    {
      "id": "M_489",
      "pitch": 63,
      "t_note_us": 81624668,
      "t_trigger_us": 81488705,
      "is_ai": false,
      "track_id": 0,
      "velocity": 0,
      "is_motor": true,
      "motor_id": 1,
      "accel_val": 2000,
      "base_duration_us": 811359
    },
    {
      "id": "M_490",
      "pitch": 75,
      "t_note_us": 81636031,
      "t_trigger_us": 81500068,
      "is_ai": false,
      "track_id": 0,
      "velocity": 0,
      "is_motor": true,
      "motor_id": 3,
      "accel_val": 2000,
      "base_duration_us": 859086
    },
    {
      "id": "M_492",
      "pitch": 70,
      "t_note_us": 82042848,
      "t_trigger_us": 81906885,
      "is_ai": false,
      "track_id": 0,
      "velocity": 0,
      "is_motor": true,
      "motor_id": 2,
      "accel_val": 2000,
      "base_duration_us": 463632
    },
    {
      "id": "M_491",
      "pitch": 101,
      "t_note_us": 82054211,
      "t_trigger_us": 81918248,
      "is_ai": true,
      "track_id": 13,
      "velocity": 0,
      "is_motor": false,
      "motor_id": 0,
      "accel_val": 2000,
      "base_duration_us": 440906
    },
    {
      "id": "M_488",
      "pitch": 70,
      "t_note_us": 82065574,
      "t_trigger_us": 81929611,
      "is_ai": false,
      "track_id": 0,
      "velocity": 0,
      "is_motor": true,
      "motor_id": 0,
      "accel_val": 2000,
      "base_duration_us": 359090
    },
    {
      "id": "M_494",
      "pitch": 101,
      "t_note_us": 82495117,
      "t_trigger_us": 82359154,
      "is_ai": true,
      "track_id": 13,
      "velocity": 0,
      "is_motor": false,
      "motor_id": 0,
      "accel_val": 2000,
      "base_duration_us": 381816
    },
    {
      "id": "M_493",
      "pitch": 70,
      "t_note_us": 82495117,
      "t_trigger_us": 82359154,
      "is_ai": false,
      "track_id": 0,
      "velocity": 0,
      "is_motor": true,
      "motor_id": 1,
      "accel_val": 2000,
      "base_duration_us": 220453
    },
    {
      "id": "M_495",
      "pitch": 67,
      "t_note_us": 82495117,
      "t_trigger_us": 82359154,
      "is_ai": false,
      "track_id": 0,
      "velocity": 0,
      "is_motor": true,
      "motor_id": 0,
      "accel_val": 2000,
      "base_duration_us": 418179
    },
    {
      "id": "M_496",
      "pitch": 75,
      "t_note_us": 82495117,
      "t_trigger_us": 82359154,
      "is_ai": false,
      "track_id": 0,
      "velocity": 0,
      "is_motor": true,
      "motor_id": 3,
      "accel_val": 2000,
      "base_duration_us": 440906
    },
    {
      "id": "M_501",
      "pitch": 70,
      "t_note_us": 82506480,
      "t_trigger_us": 82370517,
      "is_ai": false,
      "track_id": 0,
      "velocity": 0,
      "is_motor": true,
      "motor_id": 2,
      "accel_val": 2000,
      "base_duration_us": 836358
    },
    {
      "id": "M_498",
      "pitch": 63,
      "t_note_us": 82611025,
      "t_trigger_us": 82475062,
      "is_ai": false,
      "track_id": 0,
      "velocity": 0,
      "is_motor": true,
      "motor_id": 0,
      "accel_val": 2000,
      "base_duration_us": 684087
    },
    {
      "id": "M_497",
      "pitch": 98,
      "t_note_us": 82913296,
      "t_trigger_us": 82777333,
      "is_ai": true,
      "track_id": 11,
      "velocity": 0,
      "is_motor": false,
      "motor_id": 0,
      "accel_val": 2000,
      "base_duration_us": 243180
    },
    {
      "id": "M_500",
      "pitch": 67,
      "t_note_us": 82913296,
      "t_trigger_us": 82777333,
      "is_ai": false,
      "track_id": 0,
      "velocity": 0,
      "is_motor": true,
      "motor_id": 1,
      "accel_val": 2000,
      "base_duration_us": 406815
    },
    {
      "id": "M_499",
      "pitch": 75,
      "t_note_us": 83063295,
      "t_trigger_us": 82927332,
      "is_ai": false,
      "track_id": 0,
      "velocity": 0,
      "is_motor": true,
      "motor_id": 3,
      "accel_val": 2000,
      "base_duration_us": 231817
    },
    {
      "id": "M_502",
      "pitch": 98,
      "t_note_us": 83306475,
      "t_trigger_us": 83170512,
      "is_ai": true,
      "track_id": 11,
      "velocity": 0,
      "is_motor": false,
      "motor_id": 0,
      "accel_val": 2000,
      "base_duration_us": 140907
    },
    {
      "id": "M_506",
      "pitch": 101,
      "t_note_us": 83342838,
      "t_trigger_us": 83206875,
      "is_ai": true,
      "track_id": 13,
      "velocity": 0,
      "is_motor": false,
      "motor_id": 0,
      "accel_val": 2000,
      "base_duration_us": 593178
    },
    {
      "id": "M_505",
      "pitch": 70,
      "t_note_us": 83342838,
      "t_trigger_us": 83206875,
      "is_ai": false,
      "track_id": 0,
      "velocity": 0,
      "is_motor": true,
      "motor_id": 1,
      "accel_val": 2000,
      "base_duration_us": 429542
    },
    {
      "id": "M_503",
      "pitch": 69,
      "t_note_us": 83354201,
      "t_trigger_us": 83218238,
      "is_ai": false,
      "track_id": 0,
      "velocity": 0,
      "is_motor": true,
      "motor_id": 2,
      "accel_val": 2000,
      "base_duration_us": 129544
    },
    {
      "id": "M_504",
      "pitch": 74,
      "t_note_us": 83354201,
      "t_trigger_us": 83218238,
      "is_ai": false,
      "track_id": 0,
      "velocity": 0,
      "is_motor": true,
      "motor_id": 0,
      "accel_val": 2000,
      "base_duration_us": 384089
    },
    {
      "id": "M_510",
      "pitch": 70,
      "t_note_us": 83772380,
      "t_trigger_us": 83636417,
      "is_ai": false,
      "track_id": 0,
      "velocity": 0,
      "is_motor": true,
      "motor_id": 1,
      "accel_val": 2000,
      "base_duration_us": 1463632
    },
    {
      "id": "M_509",
      "pitch": 74,
      "t_note_us": 84201925,
      "t_trigger_us": 84065962,
      "is_ai": false,
      "track_id": 0,
      "velocity": 0,
      "is_motor": true,
      "motor_id": 0,
      "accel_val": 2000,
      "base_duration_us": 906815
    },
    {
      "id": "M_507",
      "pitch": 69,
      "t_note_us": 84238288,
      "t_trigger_us": 84102325,
      "is_ai": false,
      "track_id": 0,
      "velocity": 0,
      "is_motor": true,
      "motor_id": 2,
      "accel_val": 2000,
      "base_duration_us": 347727
    },
    {
      "id": "M_508",
      "pitch": 77,
      "t_note_us": 84631469,
      "t_trigger_us": 84495506,
      "is_ai": false,
      "track_id": 0,
      "velocity": 0,
      "is_motor": true,
      "motor_id": 2,
      "accel_val": 2000,
      "base_duration_us": 440908
    },
    {
      "id": "M_512",
      "pitch": 98,
      "t_note_us": 85061014,
      "t_trigger_us": 84925051,
      "is_ai": true,
      "track_id": 11,
      "velocity": 0,
      "is_motor": false,
      "motor_id": 0,
      "accel_val": 2000,
      "base_duration_us": 431815
    },
    {
      "id": "M_511",
      "pitch": 77,
      "t_note_us": 85072377,
      "t_trigger_us": 84936414,
      "is_ai": false,
      "track_id": 0,
      "velocity": 0,
      "is_motor": true,
      "motor_id": 2,
      "accel_val": 2000,
      "base_duration_us": 374998
    },
    {
      "id": "M_514",
      "pitch": 72,
      "t_note_us": 85072377,
      "t_trigger_us": 84936414,
      "is_ai": false,
      "track_id": 0,
      "velocity": 0,
      "is_motor": true,
      "motor_id": 3,
      "accel_val": 2000,
      "base_duration_us": 849995
    },
    {
      "id": "M_513",
      "pitch": 98,
      "t_note_us": 85492829,
      "t_trigger_us": 85356866,
      "is_ai": true,
      "track_id": 11,
      "velocity": 0,
      "is_motor": false,
      "motor_id": 0,
      "accel_val": 2000,
      "base_duration_us": 384090
    },
    {
      "id": "M_516",
      "pitch": 67,
      "t_note_us": 85492829,
      "t_trigger_us": 85356866,
      "is_ai": false,
      "track_id": 0,
      "velocity": 0,
      "is_motor": true,
      "motor_id": 1,
      "accel_val": 2000,
      "base_duration_us": 1229541
    },
    {
      "id": "M_515",
      "pitch": 96,
      "t_note_us": 85911009,
      "t_trigger_us": 85775046,
      "is_ai": true,
      "track_id": 10,
      "velocity": 0,
      "is_motor": false,
      "motor_id": 0,
      "accel_val": 2000,
      "base_duration_us": 788634
    },
    {
      "id": "M_517",
      "pitch": 72,
      "t_note_us": 85922372,
      "t_trigger_us": 85786409,
      "is_ai": false,
      "track_id": 0,
      "velocity": 0,
      "is_motor": true,
      "motor_id": 0,
      "accel_val": 2000,
      "base_duration_us": 836361
    },
    {
      "id": "M_518",
      "pitch": 70,
      "t_note_us": 85922372,
      "t_trigger_us": 85786409,
      "is_ai": false,
      "track_id": 0,
      "velocity": 0,
      "is_motor": true,
      "motor_id": 2,
      "accel_val": 2000,
      "base_duration_us": 847724
    },
    {
      "id": "M_519",
      "pitch": 98,
      "t_note_us": 86340553,
      "t_trigger_us": 86204590,
      "is_ai": true,
      "track_id": 11,
      "velocity": 0,
      "is_motor": false,
      "motor_id": 0,
      "accel_val": 2000,
      "base_duration_us": 534088
    },
    {
      "id": "M_522",
      "pitch": 101,
      "t_note_us": 86770096,
      "t_trigger_us": 86634133,
      "is_ai": true,
      "track_id": 13,
      "velocity": 0,
      "is_motor": false,
      "motor_id": 0,
      "accel_val": 2000,
      "base_duration_us": 859089
    },
    {
      "id": "M_521",
      "pitch": 70,
      "t_note_us": 86770096,
      "t_trigger_us": 86634133,
      "is_ai": false,
      "track_id": 0,
      "velocity": 0,
      "is_motor": true,
      "motor_id": 1,
      "accel_val": 2000,
      "base_duration_us": 731817
    },
    {
      "id": "M_523",
      "pitch": 77,
      "t_note_us": 86770096,
      "t_trigger_us": 86634133,
      "is_ai": false,
      "track_id": 0,
      "velocity": 0,
      "is_motor": true,
      "motor_id": 2,
      "accel_val": 2000,
      "base_duration_us": 872725
    },
    {
      "id": "M_520",
      "pitch": 72,
      "t_note_us": 86931459,
      "t_trigger_us": 86795496,
      "is_ai": false,
      "track_id": 0,
      "velocity": 0,
      "is_motor": true,
      "motor_id": 0,
      "accel_val": 2000,
      "base_duration_us": 290909
    },
    {
      "id": "M_525",
      "pitch": 98,
      "t_note_us": 87629185,
      "t_trigger_us": 87493222,
      "is_ai": true,
      "track_id": 11,
      "velocity": 0,
      "is_motor": false,
      "motor_id": 0,
      "accel_val": 2000,
      "base_duration_us": 743180
    },
    {
      "id": "M_524",
      "pitch": 77,
      "t_note_us": 87642821,
      "t_trigger_us": 87506858,
      "is_ai": false,
      "track_id": 0,
      "velocity": 0,
      "is_motor": true,
      "motor_id": 2,
      "accel_val": 2000,
      "base_duration_us": 404544
    },
    {
      "id": "M_528",
      "pitch": 65,
      "t_note_us": 87654184,
      "t_trigger_us": 87518221,
      "is_ai": false,
      "track_id": 0,
      "velocity": 0,
      "is_motor": true,
      "motor_id": 1,
      "accel_val": 2000,
      "base_duration_us": 1136361
    },
    {
      "id": "M_526",
      "pitch": 96,
      "t_note_us": 88047365,
      "t_trigger_us": 87911402,
      "is_ai": true,
      "track_id": 10,
      "velocity": 0,
      "is_motor": false,
      "motor_id": 0,
      "accel_val": 2000,
      "base_duration_us": 429545
    },
    {
      "id": "M_527",
      "pitch": 77,
      "t_note_us": 88047365,
      "t_trigger_us": 87911402,
      "is_ai": false,
      "track_id": 0,
      "velocity": 0,
      "is_motor": true,
      "motor_id": 2,
      "accel_val": 2000,
      "base_duration_us": 440908
    },
    {
      "id": "M_531",
      "pitch": 96,
      "t_note_us": 88476910,
      "t_trigger_us": 88340947,
      "is_ai": true,
      "track_id": 10,
      "velocity": 0,
      "is_motor": false,
      "motor_id": 0,
      "accel_val": 2000,
      "base_duration_us": 440907
    },
    {
      "id": "M_529",
      "pitch": 70,
      "t_note_us": 88488273,
      "t_trigger_us": 88352310,
      "is_ai": false,
      "track_id": 0,
      "velocity": 0,
      "is_motor": true,
      "motor_id": 2,
      "accel_val": 2000,
      "base_duration_us": 429544
    },
    {
      "id": "M_530",
      "pitch": 77,
      "t_note_us": 88488273,
      "t_trigger_us": 88352310,
      "is_ai": false,
      "track_id": 0,
      "velocity": 0,
      "is_motor": true,
      "motor_id": 3,
      "accel_val": 2000,
      "base_duration_us": 429544
    },
    {
      "id": "M_532",
      "pitch": 70,
      "t_note_us": 88917817,
      "t_trigger_us": 88781854,
      "is_ai": true,
      "track_id": 0,
      "velocity": 0,
      "is_motor": true,
      "motor_id": 1,
      "accel_val": 2000,
      "base_duration_us": 429545
    },
    {
      "id": "M_533",
      "pitch": 70,
      "t_note_us": 88917817,
      "t_trigger_us": 88781854,
      "is_ai": false,
      "track_id": 0,
      "velocity": 0,
      "is_motor": true,
      "motor_id": 2,
      "accel_val": 2000,
      "base_duration_us": 513635
    },
    {
      "id": "M_536",
      "pitch": 77,
      "t_note_us": 88917817,
      "t_trigger_us": 88781854,
      "is_ai": false,
      "track_id": 0,
      "velocity": 0,
      "is_motor": true,
      "motor_id": 3,
      "accel_val": 2000,
      "base_duration_us": 1720451
    },
    {
      "id": "M_540",
      "pitch": 70,
      "t_note_us": 88917817,
      "t_trigger_us": 88781854,
      "is_ai": false,
      "track_id": 0,
      "velocity": 0,
      "is_motor": true,
      "motor_id": 0,
      "accel_val": 2000,
      "base_duration_us": 2511359
    },
    {
      "id": "M_535",
      "pitch": 72,
      "t_note_us": 89347362,
      "t_trigger_us": 89211399,
      "is_ai": false,
      "track_id": 0,
      "velocity": 0,
      "is_motor": true,
      "motor_id": 1,
      "accel_val": 2000,
      "base_duration_us": 1279543
    },
    {
      "id": "M_534",
      "pitch": 70,
      "t_note_us": 89629179,
      "t_trigger_us": 89493216,
      "is_ai": true,
      "track_id": 0,
      "velocity": 0,
      "is_motor": true,
      "motor_id": 2,
      "accel_val": 2000,
      "base_duration_us": 195454
    },
    {
      "id": "M_537",
      "pitch": 74,
      "t_note_us": 89767815,
      "t_trigger_us": 89631852,
      "is_ai": false,
      "track_id": 0,
      "velocity": 0,
      "is_motor": true,
      "motor_id": 0,
      "accel_val": 2000,
      "base_duration_us": 870453
    },
    {
      "id": "M_538",
      "pitch": 86,
      "t_note_us": 90638268,
      "t_trigger_us": 90502305,
      "is_ai": true,
      "track_id": 4,
      "velocity": 0,
      "is_motor": false,
      "motor_id": 0,
      "accel_val": 2000,
      "base_duration_us": 406818
    },
    {
      "id": "M_539",
      "pitch": 77,
      "t_note_us": 90638268,
      "t_trigger_us": 90502305,
      "is_ai": false,
      "track_id": 0,
      "velocity": 0,
      "is_motor": true,
      "motor_id": 2,
      "accel_val": 2000,
      "base_duration_us": 429545
    },
    {
      "id": "M_542",
      "pitch": 72,
      "t_note_us": 91067813,
      "t_trigger_us": 90931850,
      "is_ai": false,
      "track_id": 0,
      "velocity": 0,
      "is_motor": true,
      "motor_id": 1,
      "accel_val": 2000,
      "base_duration_us": 836361
    },
    {
      "id": "M_543",
      "pitch": 77,
      "t_note_us": 91067813,
      "t_trigger_us": 90931850,
      "is_ai": false,
      "track_id": 0,
      "velocity": 0,
      "is_motor": true,
      "motor_id": 2,
      "accel_val": 2000,
      "base_duration_us": 849997
    },
    {
      "id": "M_541",
      "pitch": 86,
      "t_note_us": 91231449,
      "t_trigger_us": 91095486,
      "is_ai": true,
      "track_id": 4,
      "velocity": 0,
      "is_motor": false,
      "motor_id": 0,
      "accel_val": 2000,
      "base_duration_us": 231817
    },
    {
      "id": "M_544",
      "pitch": 74,
      "t_note_us": 91474629,
      "t_trigger_us": 91338666,
      "is_ai": false,
      "track_id": 0,
      "velocity": 0,
      "is_motor": true,
      "motor_id": 0,
      "accel_val": 2000,
      "base_duration_us": 547726
    },
    {
      "id": "M_545",
      "pitch": 77,
      "t_note_us": 91917810,
      "t_trigger_us": 91781847,
      "is_ai": false,
      "track_id": 0,
      "velocity": 0,
      "is_motor": true,
      "motor_id": 2,
      "accel_val": 2000,
      "base_duration_us": 429545
    },
    {
      "id": "M_546",
      "pitch": 65,
      "t_note_us": 91917810,
      "t_trigger_us": 91781847,
      "is_ai": false,
      "track_id": 0,
      "velocity": 0,
      "is_motor": true,
      "motor_id": 1,
      "accel_val": 2000,
      "base_duration_us": 1184090
    },
    {
      "id": "M_547",
      "pitch": 77,
      "t_note_us": 92347355,
      "t_trigger_us": 92211392,
      "is_ai": false,
      "track_id": 0,
      "velocity": 0,
      "is_motor": true,
      "motor_id": 2,
      "accel_val": 2000,
      "base_duration_us": 1172726
    },
    {
      "id": "M_550",
      "pitch": 72,
      "t_note_us": 92347355,
      "t_trigger_us": 92211392,
      "is_ai": false,
      "track_id": 0,
      "velocity": 0,
      "is_motor": true,
      "motor_id": 0,
      "accel_val": 2000,
      "base_duration_us": 2065906
    },
    {
      "id": "M_549",
      "pitch": 75,
      "t_note_us": 92776900,
      "t_trigger_us": 92640937,
      "is_ai": false,
      "track_id": 0,
      "velocity": 0,
      "is_motor": true,
      "motor_id": 3,
      "accel_val": 2000,
      "base_duration_us": 1624998
    },
    {
      "id": "M_548",
      "pitch": 70,
      "t_note_us": 93206445,
      "t_trigger_us": 93070482,
      "is_ai": false,
      "track_id": 0,
      "velocity": 0,
      "is_motor": true,
      "motor_id": 1,
      "accel_val": 2000,
      "base_duration_us": 604544
    },
    {
      "id": "M_551",
      "pitch": 72,
      "t_note_us": 93647353,
      "t_trigger_us": 93511390,
      "is_ai": false,
      "track_id": 0,
      "velocity": 0,
      "is_motor": true,
      "motor_id": 2,
      "accel_val": 2000,
      "base_duration_us": 870453
    },
    {
      "id": "M_553",
      "pitch": 70,
      "t_note_us": 94517806,
      "t_trigger_us": 94381843,
      "is_ai": true,
      "track_id": 0,
      "velocity": 0,
      "is_motor": true,
      "motor_id": 1,
      "accel_val": 2000,
      "base_duration_us": 465907
    },
    {
      "id": "M_552",
      "pitch": 77,
      "t_note_us": 94517806,
      "t_trigger_us": 94381843,
      "is_ai": false,
      "track_id": 0,
      "velocity": 0,
      "is_motor": true,
      "motor_id": 2,
      "accel_val": 2000,
      "base_duration_us": 443181
    },
    {
      "id": "M_557",
      "pitch": 65,
      "t_note_us": 94517806,
      "t_trigger_us": 94381843,
      "is_ai": false,
      "track_id": 0,
      "velocity": 0,
      "is_motor": true,
      "motor_id": 0,
      "accel_val": 2000,
      "base_duration_us": 1209086
    },
    {
      "id": "M_559",
      "pitch": 77,
      "t_note_us": 94960987,
      "t_trigger_us": 94825024,
      "is_ai": false,
      "track_id": 0,
      "velocity": 0,
      "is_motor": true,
      "motor_id": 2,
      "accel_val": 2000,
      "base_duration_us": 963631
    },
    {
      "id": "M_556",
      "pitch": 96,
      "t_note_us": 94972350,
      "t_trigger_us": 94836387,
      "is_ai": true,
      "track_id": 10,
      "velocity": 0,
      "is_motor": false,
      "motor_id": 0,
      "accel_val": 2000,
      "base_duration_us": 499998
    },
    {
      "id": "M_554",
      "pitch": 72,
      "t_note_us": 94972350,
      "t_trigger_us": 94836387,
      "is_ai": false,
      "track_id": 0,
      "velocity": 0,
      "is_motor": true,
      "motor_id": 3,
      "accel_val": 2000,
      "base_duration_us": 195453
    },
    {
      "id": "M_555",
      "pitch": 70,
      "t_note_us": 94983713,
      "t_trigger_us": 94847750,
      "is_ai": true,
      "track_id": 0,
      "velocity": 0,
      "is_motor": true,
      "motor_id": 1,
      "accel_val": 2000,
      "base_duration_us": 440908
    },
    {
      "id": "M_564",
      "pitch": 70,
      "t_note_us": 95472348,
      "t_trigger_us": 95336385,
      "is_ai": false,
      "track_id": 0,
      "velocity": 0,
      "is_motor": true,
      "motor_id": 1,
      "accel_val": 2000,
      "base_duration_us": 893176
    },
    {
      "id": "M_563",
      "pitch": 98,
      "t_note_us": 95483711,
      "t_trigger_us": 95347748,
      "is_ai": true,
      "track_id": 11,
      "velocity": 0,
      "is_motor": false,
      "motor_id": 0,
      "accel_val": 2000,
      "base_duration_us": 870450
    },
    {
      "id": "M_558",
      "pitch": 74,
      "t_note_us": 95483711,
      "t_trigger_us": 95347748,
      "is_ai": false,
      "track_id": 0,
      "velocity": 0,
      "is_motor": true,
      "motor_id": 3,
      "accel_val": 2000,
      "base_duration_us": 279544
    },
    {
      "id": "M_560",
      "pitch": 101,
      "t_note_us": 95924618,
      "t_trigger_us": 95788655,
      "is_ai": true,
      "track_id": 13,
      "velocity": 0,
      "is_motor": false,
      "motor_id": 0,
      "accel_val": 2000,
      "base_duration_us": 186362
    },
    {
      "id": "M_565",
      "pitch": 77,
      "t_note_us": 95924618,
      "t_trigger_us": 95788655,
      "is_ai": false,
      "track_id": 0,
      "velocity": 0,
      "is_motor": true,
      "motor_id": 2,
      "accel_val": 2000,
      "base_duration_us": 440906
    },
    {
      "id": "M_562",
      "pitch": 74,
      "t_note_us": 95935981,
      "t_trigger_us": 95800018,
      "is_ai": false,
      "track_id": 0,
      "velocity": 0,
      "is_motor": true,
      "motor_id": 0,
      "accel_val": 2000,
      "base_duration_us": 336362
    },
    {
      "id": "M_561",
      "pitch": 58,
      "t_note_us": 96006435,
      "t_trigger_us": 95870472,
      "is_ai": false,
      "track_id": 0,
      "velocity": 0,
      "is_motor": true,
      "motor_id": 3,
      "accel_val": 2000,
      "base_duration_us": 209090
    },
    {
      "id": "M_569",
      "pitch": 98,
      "t_note_us": 96354161,
      "t_trigger_us": 96218198,
      "is_ai": true,
      "track_id": 11,
      "velocity": 0,
      "is_motor": false,
      "motor_id": 0,
      "accel_val": 2000,
      "base_duration_us": 440907
    },
    {
      "id": "M_568",
      "pitch": 70,
      "t_note_us": 96354161,
      "t_trigger_us": 96218198,
      "is_ai": false,
      "track_id": 0,
      "velocity": 0,
      "is_motor": true,
      "motor_id": 0,
      "accel_val": 2000,
      "base_duration_us": 440907
    },
    {
      "id": "M_566",
      "pitch": 70,
      "t_note_us": 96365524,
      "t_trigger_us": 96229561,
      "is_ai": false,
      "track_id": 0,
      "velocity": 0,
      "is_motor": true,
      "motor_id": 1,
      "accel_val": 2000,
      "base_duration_us": 418181
    },
    {
      "id": "M_567",
      "pitch": 77,
      "t_note_us": 96365524,
      "t_trigger_us": 96229561,
      "is_ai": false,
      "track_id": 0,
      "velocity": 0,
      "is_motor": true,
      "motor_id": 2,
      "accel_val": 2000,
      "base_duration_us": 418181
    },
    {
      "id": "M_572",
      "pitch": 101,
      "t_note_us": 96783705,
      "t_trigger_us": 96647742,
      "is_ai": true,
      "track_id": 13,
      "velocity": 0,
      "is_motor": false,
      "motor_id": 0,
      "accel_val": 2000,
      "base_duration_us": 452270
    },
    {
      "id": "M_573",
      "pitch": 70,
      "t_note_us": 96783705,
      "t_trigger_us": 96647742,
      "is_ai": false,
      "track_id": 0,
      "velocity": 0,
      "is_motor": true,
      "motor_id": 1,
      "accel_val": 2000,
      "base_duration_us": 697724
    },
    {
      "id": "M_574",
      "pitch": 77,
      "t_note_us": 96783705,
      "t_trigger_us": 96647742,
      "is_ai": false,
      "track_id": 0,
      "velocity": 0,
      "is_motor": true,
      "motor_id": 2,
      "accel_val": 2000,
      "base_duration_us": 745451
    },
    {
      "id": "M_571",
      "pitch": 98,
      "t_note_us": 96795068,
      "t_trigger_us": 96659105,
      "is_ai": true,
      "track_id": 11,
      "velocity": 0,
      "is_motor": false,
      "motor_id": 0,
      "accel_val": 2000,
      "base_duration_us": 429544
    },
    {
      "id": "M_570",
      "pitch": 70,
      "t_note_us": 96795068,
      "t_trigger_us": 96659105,
      "is_ai": false,
      "track_id": 0,
      "velocity": 0,
      "is_motor": true,
      "motor_id": 0,
      "accel_val": 2000,
      "base_duration_us": 406818
    },
    {
      "id": "M_583",
      "pitch": 64,
      "t_note_us": 97201886,
      "t_trigger_us": 97065923,
      "is_ai": false,
      "track_id": 0,
      "velocity": 0,
      "is_motor": true,
      "motor_id": 0,
      "accel_val": 2000,
      "base_duration_us": 1684081
    },
    {
      "id": "M_575",
      "pitch": 103,
      "t_note_us": 97213249,
      "t_trigger_us": 97077286,
      "is_ai": true,
      "track_id": 14,
      "velocity": 0,
      "is_motor": false,
      "motor_id": 0,
      "accel_val": 2000,
      "base_duration_us": 511360
    },
    {
      "id": "M_578",
      "pitch": 67,
      "t_note_us": 97633701,
      "t_trigger_us": 97497738,
      "is_ai": false,
      "track_id": 0,
      "velocity": 0,
      "is_motor": true,
      "motor_id": 1,
      "accel_val": 2000,
      "base_duration_us": 440906
    },
    {
      "id": "M_576",
      "pitch": 76,
      "t_note_us": 97645064,
      "t_trigger_us": 97509101,
      "is_ai": false,
      "track_id": 0,
      "velocity": 0,
      "is_motor": true,
      "motor_id": 2,
      "accel_val": 2000,
      "base_duration_us": 347726
    },
    {
      "id": "M_577",
      "pitch": 91,
      "t_note_us": 97806427,
      "t_trigger_us": 97670464,
      "is_ai": true,
      "track_id": 7,
      "velocity": 0,
      "is_motor": false,
      "motor_id": 0,
      "accel_val": 2000,
      "base_duration_us": 256817
    },
    {
      "id": "M_579",
      "pitch": 103,
      "t_note_us": 98063244,
      "t_trigger_us": 97927281,
      "is_ai": true,
      "track_id": 14,
      "velocity": 0,
      "is_motor": false,
      "motor_id": 0,
      "accel_val": 2000,
      "base_duration_us": 370453
    },
    {
      "id": "M_584",
      "pitch": 91,
      "t_note_us": 98074607,
      "t_trigger_us": 97938644,
      "is_ai": true,
      "track_id": 7,
      "velocity": 0,
      "is_motor": false,
      "motor_id": 0,
      "accel_val": 2000,
      "base_duration_us": 822723
    },
    {
      "id": "M_580",
      "pitch": 67,
      "t_note_us": 98074607,
      "t_trigger_us": 97938644,
      "is_ai": false,
      "track_id": 0,
      "velocity": 0,
      "is_motor": true,
      "motor_id": 1,
      "accel_val": 2000,
      "base_duration_us": 418180
    },
    {
      "id": "M_581",
      "pitch": 70,
      "t_note_us": 98074607,
      "t_trigger_us": 97938644,
      "is_ai": false,
      "track_id": 0,
      "velocity": 0,
      "is_motor": true,
      "motor_id": 2,
      "accel_val": 2000,
      "base_duration_us": 440906
    },
    {
      "id": "M_582",
      "pitch": 98,
      "t_note_us": 98504150,
      "t_trigger_us": 98368187,
      "is_ai": true,
      "track_id": 11,
      "velocity": 0,
      "is_motor": false,
      "motor_id": 0,
      "accel_val": 2000,
      "base_duration_us": 149999
    },
    {
      "id": "M_585",
      "pitch": 76,
      "t_note_us": 98504150,
      "t_trigger_us": 98368187,
      "is_ai": false,
      "track_id": 0,
      "velocity": 0,
      "is_motor": true,
      "motor_id": 1,
      "accel_val": 2000,
      "base_duration_us": 429543
    },
    {
      "id": "M_586",
      "pitch": 70,
      "t_note_us": 98515513,
      "t_trigger_us": 98379550,
      "is_ai": false,
      "track_id": 0,
      "velocity": 0,
      "is_motor": true,
      "motor_id": 2,
      "accel_val": 2000,
      "base_duration_us": 522725
    },
    {
      "id": "M_589",
      "pitch": 96,
      "t_note_us": 98933693,
      "t_trigger_us": 98797730,
      "is_ai": true,
      "track_id": 10,
      "velocity": 0,
      "is_motor": false,
      "motor_id": 0,
      "accel_val": 2000,
      "base_duration_us": 406817
    },
    {
      "id": "M_587",
      "pitch": 76,
      "t_note_us": 98933693,
      "t_trigger_us": 98797730,
      "is_ai": false,
      "track_id": 0,
      "velocity": 0,
      "is_motor": true,
      "motor_id": 1,
      "accel_val": 2000,
      "base_duration_us": 336363
    },
    {
      "id": "M_590",
      "pitch": 63,
      "t_note_us": 98956420,
      "t_trigger_us": 98820457,
      "is_ai": false,
      "track_id": 0,
      "velocity": 0,
      "is_motor": true,
      "motor_id": 0,
      "accel_val": 2000,
      "base_duration_us": 756816
    },
    {
      "id": "M_588",
      "pitch": 70,
      "t_note_us": 99188238,
      "t_trigger_us": 99052275,
      "is_ai": false,
      "track_id": 0,
      "velocity": 0,
      "is_motor": true,
      "motor_id": 2,
      "accel_val": 2000,
      "base_duration_us": 152272
    },
    {
      "id": "M_591",
      "pitch": 75,
      "t_note_us": 99270056,
      "t_trigger_us": 99134093,
      "is_ai": false,
      "track_id": 0,
      "velocity": 0,
      "is_motor": true,
      "motor_id": 1,
      "accel_val": 2000,
      "base_duration_us": 499998
    },
    {
      "id": "M_592",
      "pitch": 70,
      "t_note_us": 99351873,
      "t_trigger_us": 99215910,
      "is_ai": true,
      "track_id": 0,
      "velocity": 0,
      "is_motor": true,
      "motor_id": 2,
      "accel_val": 2000,
      "base_duration_us": 429544
    },
    {
      "id": "M_601",
      "pitch": 70,
      "t_note_us": 99351873,
      "t_trigger_us": 99215910,
      "is_ai": false,
      "track_id": 0,
      "velocity": 0,
      "is_motor": true,
      "motor_id": 3,
      "accel_val": 2000,
      "base_duration_us": 1497722
    },
    {
      "id": "M_594",
      "pitch": 70,
      "t_note_us": 99781417,
      "t_trigger_us": 99645454,
      "is_ai": true,
      "track_id": 0,
      "velocity": 0,
      "is_motor": true,
      "motor_id": 1,
      "accel_val": 2000,
      "base_duration_us": 511363
    },
    {
      "id": "M_593",
      "pitch": 75,
      "t_note_us": 99781417,
      "t_trigger_us": 99645454,
      "is_ai": false,
      "track_id": 0,
      "velocity": 0,
      "is_motor": true,
      "motor_id": 2,
      "accel_val": 2000,
      "base_duration_us": 429545
    },
    {
      "id": "M_598",
      "pitch": 67,
      "t_note_us": 99781417,
      "t_trigger_us": 99645454,
      "is_ai": false,
      "track_id": 0,
      "velocity": 0,
      "is_motor": true,
      "motor_id": 0,
      "accel_val": 2000,
      "base_duration_us": 836361
    },
    {
      "id": "M_596",
      "pitch": 63,
      "t_note_us": 99863235,
      "t_trigger_us": 99727272,
      "is_ai": false,
      "track_id": 0,
      "velocity": 0,
      "is_motor": true,
      "motor_id": 0,
      "accel_val": 2000,
      "base_duration_us": 720453
    },
    {
      "id": "M_595",
      "pitch": 91,
      "t_note_us": 100210962,
      "t_trigger_us": 100074999,
      "is_ai": true,
      "track_id": 7,
      "velocity": 0,
      "is_motor": false,
      "motor_id": 0,
      "accel_val": 2000,
      "base_duration_us": 324999
    },
    {
      "id": "M_599",
      "pitch": 103,
      "t_note_us": 100210962,
      "t_trigger_us": 100074999,
      "is_ai": true,
      "track_id": 14,
      "velocity": 0,
      "is_motor": false,
      "motor_id": 0,
      "accel_val": 2000,
      "base_duration_us": 406816
    },
    {
      "id": "M_597",
      "pitch": 75,
      "t_note_us": 100210962,
      "t_trigger_us": 100074999,
      "is_ai": false,
      "track_id": 0,
      "velocity": 0,
      "is_motor": true,
      "motor_id": 2,
      "accel_val": 2000,
      "base_duration_us": 406816
    },
    {
      "id": "M_604",
      "pitch": 101,
      "t_note_us": 100640505,
      "t_trigger_us": 100504542,
      "is_ai": true,
      "track_id": 13,
      "velocity": 0,
      "is_motor": false,
      "motor_id": 0,
      "accel_val": 2000,
      "base_duration_us": 627269
    },
    {
      "id": "M_600",
      "pitch": 69,
      "t_note_us": 100640505,
      "t_trigger_us": 100504542,
      "is_ai": false,
      "track_id": 0,
      "velocity": 0,
      "is_motor": true,
      "motor_id": 1,
      "accel_val": 2000,
      "base_duration_us": 152272
    },
    {
      "id": "M_603",
      "pitch": 74,
      "t_note_us": 100663232,
      "t_trigger_us": 100527269,
      "is_ai": false,
      "track_id": 0,
      "velocity": 0,
      "is_motor": true,
      "motor_id": 0,
      "accel_val": 2000,
      "base_duration_us": 395453
    },
    {
      "id": "M_602",
      "pitch": 62,
      "t_note_us": 100860958,
      "t_trigger_us": 100724995,
      "is_ai": false,
      "track_id": 0,
      "velocity": 0,
      "is_motor": true,
      "motor_id": 1,
      "accel_val": 2000,
      "base_duration_us": 140909
    },
    {
      "id": "M_606",
      "pitch": 70,
      "t_note_us": 101070048,
      "t_trigger_us": 100934085,
      "is_ai": false,
      "track_id": 0,
      "velocity": 0,
      "is_motor": true,
      "motor_id": 1,
      "accel_val": 2000,
      "base_duration_us": 431815
    },
    {
      "id": "M_605",
      "pitch": 62,
      "t_note_us": 101197320,
      "t_trigger_us": 101061357,
      "is_ai": false,
      "track_id": 0,
      "velocity": 0,
      "is_motor": true,
      "motor_id": 0,
      "accel_val": 2000,
      "base_duration_us": 188635
    },
    {
      "id": "M_607",
      "pitch": 69,
      "t_note_us": 101442773,
      "t_trigger_us": 101306810,
      "is_ai": false,
      "track_id": 0,
      "velocity": 0,
      "is_motor": true,
      "motor_id": 2,
      "accel_val": 2000,
      "base_duration_us": 302271
    },
    {
      "id": "M_608",
      "pitch": 101,
      "t_note_us": 101490500,
      "t_trigger_us": 101354537,
      "is_ai": true,
      "track_id": 13,
      "velocity": 0,
      "is_motor": false,
      "motor_id": 0,
      "accel_val": 2000,
      "base_duration_us": 254544
    },
    {
      "id": "M_611",
      "pitch": 77,
      "t_note_us": 101490500,
      "t_trigger_us": 101354537,
      "is_ai": false,
      "track_id": 0,
      "velocity": 0,
      "is_motor": true,
      "motor_id": 3,
      "accel_val": 2000,
      "base_duration_us": 881814
    },
    {
      "id": "M_610",
      "pitch": 70,
      "t_note_us": 101501863,
      "t_trigger_us": 101365900,
      "is_ai": false,
      "track_id": 0,
      "velocity": 0,
      "is_motor": true,
      "motor_id": 1,
      "accel_val": 2000,
      "base_duration_us": 440907
    },
    {
      "id": "M_609",
      "pitch": 74,
      "t_note_us": 101651863,
      "t_trigger_us": 101515900,
      "is_ai": false,
      "track_id": 0,
      "velocity": 0,
      "is_motor": true,
      "motor_id": 0,
      "accel_val": 2000,
      "base_duration_us": 174999
    },
    {
      "id": "M_612",
      "pitch": 70,
      "t_note_us": 101931407,
      "t_trigger_us": 101795444,
      "is_ai": false,
      "track_id": 0,
      "velocity": 0,
      "is_motor": true,
      "motor_id": 2,
      "accel_val": 2000,
      "base_duration_us": 568178
    },
    {
      "id": "M_613",
      "pitch": 70,
      "t_note_us": 101942770,
      "t_trigger_us": 101806807,
      "is_ai": false,
      "track_id": 0,
      "velocity": 0,
      "is_motor": true,
      "motor_id": 1,
      "accel_val": 2000,
      "base_duration_us": 568178
    },
    {
      "id": "M_615",
      "pitch": 103,
      "t_note_us": 102349588,
      "t_trigger_us": 102213625,
      "is_ai": true,
      "track_id": 14,
      "velocity": 0,
      "is_motor": false,
      "motor_id": 0,
      "accel_val": 2000,
      "base_duration_us": 429540
    },
    {
      "id": "M_614",
      "pitch": 67,
      "t_note_us": 102360951,
      "t_trigger_us": 102224988,
      "is_ai": false,
      "track_id": 0,
      "velocity": 0,
      "is_motor": true,
      "motor_id": 0,
      "accel_val": 2000,
      "base_duration_us": 347724
    },
    {
      "id": "M_616",
      "pitch": 72,
      "t_note_us": 102372314,
      "t_trigger_us": 102236351,
      "is_ai": false,
      "track_id": 0,
      "velocity": 0,
      "is_motor": true,
      "motor_id": 3,
      "accel_val": 2000,
      "base_duration_us": 418177
    },
    {
      "id": "M_621",
      "pitch": 60,
      "t_note_us": 102406404,
      "t_trigger_us": 102270441,
      "is_ai": false,
      "track_id": 0,
      "velocity": 0,
      "is_motor": true,
      "motor_id": 0,
      "accel_val": 2000,
      "base_duration_us": 1568173
    },
    {
      "id": "M_623",
      "pitch": 67,
      "t_note_us": 102767765,
      "t_trigger_us": 102631802,
      "is_ai": false,
      "track_id": 0,
      "velocity": 0,
      "is_motor": true,
      "motor_id": 1,
      "accel_val": 2000,
      "base_duration_us": 1243174
    },
    {
      "id": "M_620",
      "pitch": 101,
      "t_note_us": 102779128,
      "t_trigger_us": 102643165,
      "is_ai": true,
      "track_id": 13,
      "velocity": 0,
      "is_motor": false,
      "motor_id": 0,
      "accel_val": 2000,
      "base_duration_us": 1149995
    },
    {
      "id": "M_617",
      "pitch": 72,
      "t_note_us": 102790491,
      "t_trigger_us": 102654528,
      "is_ai": false,
      "track_id": 0,
      "velocity": 0,
      "is_motor": true,
      "motor_id": 0,
      "accel_val": 2000,
      "base_duration_us": 429544
    },
    {
      "id": "M_624",
      "pitch": 67,
      "t_note_us": 103208672,
      "t_trigger_us": 103072709,
      "is_ai": false,
      "track_id": 0,
      "velocity": 0,
      "is_motor": true,
      "motor_id": 2,
      "accel_val": 2000,
      "base_duration_us": 802267
    },
    {
      "id": "M_619",
      "pitch": 98,
      "t_note_us": 103220035,
      "t_trigger_us": 103084072,
      "is_ai": true,
      "track_id": 11,
      "velocity": 0,
      "is_motor": false,
      "motor_id": 0,
      "accel_val": 2000,
      "base_duration_us": 454543
    },
    {
      "id": "M_622",
      "pitch": 72,
      "t_note_us": 103220035,
      "t_trigger_us": 103084072,
      "is_ai": false,
      "track_id": 0,
      "velocity": 0,
      "is_motor": true,
      "motor_id": 0,
      "accel_val": 2000,
      "base_duration_us": 779541
    },
    {
      "id": "M_618",
      "pitch": 75,
      "t_note_us": 103231398,
      "t_trigger_us": 103095435,
      "is_ai": false,
      "track_id": 0,
      "velocity": 0,
      "is_motor": true,
      "motor_id": 3,
      "accel_val": 2000,
      "base_duration_us": 431817
    },
    {
      "id": "M_626",
      "pitch": 96,
      "t_note_us": 103638216,
      "t_trigger_us": 103502253,
      "is_ai": true,
      "track_id": 10,
      "velocity": 0,
      "is_motor": false,
      "motor_id": 0,
      "accel_val": 2000,
      "base_duration_us": 465903
    },
    {
      "id": "M_625",
      "pitch": 75,
      "t_note_us": 103663215,
      "t_trigger_us": 103527252,
      "is_ai": false,
      "track_id": 0,
      "velocity": 0,
      "is_motor": true,
      "motor_id": 3,
      "accel_val": 2000,
      "base_duration_us": 415905
    },
    {
      "id": "M_631",
      "pitch": 70,
      "t_note_us": 104067757,
      "t_trigger_us": 103931794,
      "is_ai": true,
      "track_id": 0,
      "velocity": 0,
      "is_motor": true,
      "motor_id": 1,
      "accel_val": 2000,
      "base_duration_us": 779540
    },
    {
      "id": "M_629",
      "pitch": 74,
      "t_note_us": 104079120,
      "t_trigger_us": 103943157,
      "is_ai": false,
      "track_id": 0,
      "velocity": 0,
      "is_motor": true,
      "motor_id": 0,
      "accel_val": 2000,
      "base_duration_us": 418179
    },
    {
      "id": "M_627",
      "pitch": 69,
      "t_note_us": 104092756,
      "t_trigger_us": 103956793,
      "is_ai": false,
      "track_id": 0,
      "velocity": 0,
      "is_motor": true,
      "motor_id": 2,
      "accel_val": 2000,
      "base_duration_us": 149998
    },
    {
      "id": "M_628",
      "pitch": 62,
      "t_note_us": 104183664,
      "t_trigger_us": 104047701,
      "is_ai": false,
      "track_id": 0,
      "velocity": 0,
      "is_motor": true,
      "motor_id": 3,
      "accel_val": 2000,
      "base_duration_us": 256817
    },
    {
      "id": "M_632",
      "pitch": 70,
      "t_note_us": 104497299,
      "t_trigger_us": 104361336,
      "is_ai": false,
      "track_id": 0,
      "velocity": 0,
      "is_motor": true,
      "motor_id": 2,
      "accel_val": 2000,
      "base_duration_us": 454542
    },
    {
      "id": "M_630",
      "pitch": 62,
      "t_note_us": 104590480,
      "t_trigger_us": 104454517,
      "is_ai": false,
      "track_id": 0,
      "velocity": 0,
      "is_motor": true,
      "motor_id": 0,
      "accel_val": 2000,
      "base_duration_us": 231818
    },
    {
      "id": "M_634",
      "pitch": 69,
      "t_note_us": 104833661,
      "t_trigger_us": 104697698,
      "is_ai": false,
      "track_id": 0,
      "velocity": 0,
      "is_motor": true,
      "motor_id": 0,
      "accel_val": 2000,
      "base_duration_us": 279542
    },
    {
      "id": "M_633",
      "pitch": 96,
      "t_note_us": 104926842,
      "t_trigger_us": 104790879,
      "is_ai": true,
      "track_id": 10,
      "velocity": 0,
      "is_motor": false,
      "motor_id": 0,
      "accel_val": 2000,
      "base_duration_us": 174998
    },
    {
      "id": "M_637",
      "pitch": 91,
      "t_note_us": 104926842,
      "t_trigger_us": 104790879,
      "is_ai": true,
      "track_id": 7,
      "velocity": 0,
      "is_motor": false,
      "motor_id": 0,
      "accel_val": 2000,
      "base_duration_us": 802267
    },
    {
      "id": "M_640",
      "pitch": 77,
      "t_note_us": 104926842,
      "t_trigger_us": 104790879,
      "is_ai": false,
      "track_id": 0,
      "velocity": 0,
      "is_motor": true,
      "motor_id": 1,
      "accel_val": 2000,
      "base_duration_us": 1245446
    },
    {
      "id": "M_639",
      "pitch": 70,
      "t_note_us": 104951841,
      "t_trigger_us": 104815878,
      "is_ai": false,
      "track_id": 0,
      "velocity": 0,
      "is_motor": true,
      "motor_id": 2,
      "accel_val": 2000,
      "base_duration_us": 997720
    },
    {
      "id": "M_635",
      "pitch": 74,
      "t_note_us": 105090477,
      "t_trigger_us": 104954514,
      "is_ai": false,
      "track_id": 0,
      "velocity": 0,
      "is_motor": true,
      "motor_id": 3,
      "accel_val": 2000,
      "base_duration_us": 547724
    },
    {
      "id": "M_638",
      "pitch": 70,
      "t_note_us": 105347293,
      "t_trigger_us": 105211330,
      "is_ai": true,
      "track_id": 0,
      "velocity": 0,
      "is_motor": true,
      "motor_id": 0,
      "accel_val": 2000,
      "base_duration_us": 429542
    },
    {
      "id": "M_636",
      "pitch": 70,
      "t_note_us": 105358656,
      "t_trigger_us": 105222693,
      "is_ai": false,
      "track_id": 0,
      "velocity": 0,
      "is_motor": true,
      "motor_id": 0,
      "accel_val": 2000,
      "base_duration_us": 324999
    },
    {
      "id": "M_647",
      "pitch": 64,
      "t_note_us": 105754108,
      "t_trigger_us": 105618145,
      "is_ai": false,
      "track_id": 0,
      "velocity": 0,
      "is_motor": true,
      "motor_id": 3,
      "accel_val": 2000,
      "base_duration_us": 1718175
    },
    {
      "id": "M_642",
      "pitch": 96,
      "t_note_us": 105788198,
      "t_trigger_us": 105652235,
      "is_ai": true,
      "track_id": 10,
      "velocity": 0,
      "is_motor": false,
      "motor_id": 0,
      "accel_val": 2000,
      "base_duration_us": 859089
    },
    {
      "id": "M_641",
      "pitch": 76,
      "t_note_us": 106172288,
      "t_trigger_us": 106036325,
      "is_ai": false,
      "track_id": 0,
      "velocity": 0,
      "is_motor": true,
      "motor_id": 2,
      "accel_val": 2000,
      "base_duration_us": 474999
    },
    {
      "id": "M_643",
      "pitch": 72,
      "t_note_us": 106229106,
      "t_trigger_us": 106093143,
      "is_ai": false,
      "track_id": 0,
      "velocity": 0,
      "is_motor": true,
      "motor_id": 1,
      "accel_val": 2000,
      "base_duration_us": 859088
    },
    {
      "id": "M_645",
      "pitch": 96,
      "t_note_us": 106647287,
      "t_trigger_us": 106511324,
      "is_ai": true,
      "track_id": 10,
      "velocity": 0,
      "is_motor": false,
      "motor_id": 0,
      "accel_val": 2000,
      "base_duration_us": 463634
    },
    {
      "id": "M_644",
      "pitch": 76,
      "t_note_us": 106658650,
      "t_trigger_us": 106522687,
      "is_ai": false,
      "track_id": 0,
      "velocity": 0,
      "is_motor": true,
      "motor_id": 2,
      "accel_val": 2000,
      "base_duration_us": 452271
    },
    {
      "id": "M_648",
      "pitch": 70,
      "t_note_us": 107076831,
      "t_trigger_us": 106940868,
      "is_ai": true,
      "track_id": 0,
      "velocity": 0,
      "is_motor": true,
      "motor_id": 0,
      "accel_val": 2000,
      "base_duration_us": 431815
    },
    {
      "id": "M_649",
      "pitch": 72,
      "t_note_us": 107088194,
      "t_trigger_us": 106952231,
      "is_ai": false,
      "track_id": 0,
      "velocity": 0,
      "is_motor": true,
      "motor_id": 1,
      "accel_val": 2000,
      "base_duration_us": 431815
    },
    {
      "id": "M_646",
      "pitch": 76,
      "t_note_us": 107274557,
      "t_trigger_us": 107138594,
      "is_ai": false,
      "track_id": 0,
      "velocity": 0,
      "is_motor": true,
      "motor_id": 2,
      "accel_val": 2000,
      "base_duration_us": 152272
    },
    {
      "id": "M_651",
      "pitch": 96,
      "t_note_us": 107495010,
      "t_trigger_us": 107359047,
      "is_ai": true,
      "track_id": 10,
      "velocity": 0,
      "is_motor": false,
      "motor_id": 0,
      "accel_val": 2000,
      "base_duration_us": 511361
    },
    {
      "id": "M_653",
      "pitch": 77,
      "t_note_us": 107495010,
      "t_trigger_us": 107359047,
      "is_ai": false,
      "track_id": 0,
      "velocity": 0,
      "is_motor": true,
      "motor_id": 2,
      "accel_val": 2000,
      "base_duration_us": 872723
    },
    {
      "id": "M_650",
      "pitch": 72,
      "t_note_us": 107520009,
      "t_trigger_us": 107384046,
      "is_ai": false,
      "track_id": 0,
      "velocity": 0,
      "is_motor": true,
      "motor_id": 1,
      "accel_val": 2000,
      "base_duration_us": 393181
    },
    {
      "id": "M_652",
      "pitch": 65,
      "t_note_us": 107599554,
      "t_trigger_us": 107463591,
      "is_ai": false,
      "track_id": 0,
      "velocity": 0,
      "is_motor": true,
      "motor_id": 0,
      "accel_val": 2000,
      "base_duration_us": 720453
    },
    {
      "id": "M_654",
      "pitch": 72,
      "t_note_us": 107913190,
      "t_trigger_us": 107777227,
      "is_ai": false,
      "track_id": 0,
      "velocity": 0,
      "is_motor": true,
      "motor_id": 1,
      "accel_val": 2000,
      "base_duration_us": 465906
    },
    {
      "id": "M_658",
      "pitch": 70,
      "t_note_us": 108354097,
      "t_trigger_us": 108218134,
      "is_ai": true,
      "track_id": 0,
      "velocity": 0,
      "is_motor": true,
      "motor_id": 0,
      "accel_val": 2000,
      "base_duration_us": 790907
    },
    {
      "id": "M_655",
      "pitch": 77,
      "t_note_us": 108367733,
      "t_trigger_us": 108231770,
      "is_ai": false,
      "track_id": 0,
      "velocity": 0,
      "is_motor": true,
      "motor_id": 2,
      "accel_val": 2000,
      "base_duration_us": 415908
    },
    {
      "id": "M_656",
      "pitch": 65,
      "t_note_us": 108367733,
      "t_trigger_us": 108231770,
      "is_ai": false,
      "track_id": 0,
      "velocity": 0,
      "is_motor": true,
      "motor_id": 3,
      "accel_val": 2000,
      "base_duration_us": 429544
    },
    {
      "id": "M_657",
      "pitch": 72,
      "t_note_us": 108379096,
      "t_trigger_us": 108243133,
      "is_ai": false,
      "track_id": 0,
      "velocity": 0,
      "is_motor": true,
      "motor_id": 1,
      "accel_val": 2000,
      "base_duration_us": 418181
    },
    {
      "id": "M_659",
      "pitch": 96,
      "t_note_us": 108783641,
      "t_trigger_us": 108647678,
      "is_ai": true,
      "track_id": 10,
      "velocity": 0,
      "is_motor": false,
      "motor_id": 0,
      "accel_val": 2000,
      "base_duration_us": 418181
    },
    {
      "id": "M_660",
      "pitch": 77,
      "t_note_us": 108783641,
      "t_trigger_us": 108647678,
      "is_ai": false,
      "track_id": 0,
      "velocity": 0,
      "is_motor": true,
      "motor_id": 2,
      "accel_val": 2000,
      "base_duration_us": 559089
    },
    {
      "id": "M_661",
      "pitch": 65,
      "t_note_us": 108797277,
      "t_trigger_us": 108661314,
      "is_ai": false,
      "track_id": 0,
      "velocity": 0,
      "is_motor": true,
      "motor_id": 1,
      "accel_val": 2000,
      "base_duration_us": 672725
    },
    {
      "id": "M_662",
      "pitch": 72,
      "t_note_us": 108797277,
      "t_trigger_us": 108661314,
      "is_ai": false,
      "track_id": 0,
      "velocity": 0,
      "is_motor": true,
      "motor_id": 3,
      "accel_val": 2000,
      "base_duration_us": 686361
    },
    {
      "id": "M_667",
      "pitch": 70,
      "t_note_us": 109201822,
      "t_trigger_us": 109065859,
      "is_ai": false,
      "track_id": 0,
      "velocity": 0,
      "is_motor": true,
      "motor_id": 0,
      "accel_val": 2000,
      "base_duration_us": 884086
    },
    {
      "id": "M_666",
      "pitch": 98,
      "t_note_us": 109213185,
      "t_trigger_us": 109077222,
      "is_ai": true,
      "track_id": 11,
      "velocity": 0,
      "is_motor": false,
      "motor_id": 0,
      "accel_val": 2000,
      "base_duration_us": 861360
    },
    {
      "id": "M_664",
      "pitch": 74,
      "t_note_us": 109213185,
      "t_trigger_us": 109077222,
      "is_ai": false,
      "track_id": 0,
      "velocity": 0,
      "is_motor": true,
      "motor_id": 0,
      "accel_val": 2000,
      "base_duration_us": 756815
    },
    {
      "id": "M_665",
      "pitch": 77,
      "t_note_us": 109633638,
      "t_trigger_us": 109497675,
      "is_ai": false,
      "track_id": 0,
      "velocity": 0,
      "is_motor": true,
      "motor_id": 2,
      "accel_val": 2000,
      "base_duration_us": 440907
    },
    {
      "id": "M_663",
      "pitch": 58,
      "t_note_us": 109726819,
      "t_trigger_us": 109590856,
      "is_ai": false,
      "track_id": 0,
      "velocity": 0,
      "is_motor": true,
      "motor_id": 1,
      "accel_val": 2000,
      "base_duration_us": 150000
    },
    {
      "id": "M_671",
      "pitch": 98,
      "t_note_us": 110074545,
      "t_trigger_us": 109938582,
      "is_ai": true,
      "track_id": 11,
      "velocity": 0,
      "is_motor": false,
      "motor_id": 0,
      "accel_val": 2000,
      "base_duration_us": 429544
    },
    {
      "id": "M_669",
      "pitch": 77,
      "t_note_us": 110074545,
      "t_trigger_us": 109938582,
      "is_ai": false,
      "track_id": 0,
      "velocity": 0,
      "is_motor": true,
      "motor_id": 2,
      "accel_val": 2000,
      "base_duration_us": 429544
    },
    {
      "id": "M_670",
      "pitch": 70,
      "t_note_us": 110074545,
      "t_trigger_us": 109938582,
      "is_ai": false,
      "track_id": 0,
      "velocity": 0,
      "is_motor": true,
      "motor_id": 1,
      "accel_val": 2000,
      "base_duration_us": 429544
    },
    {
      "id": "M_668",
      "pitch": 70,
      "t_note_us": 110085908,
      "t_trigger_us": 109949945,
      "is_ai": false,
      "track_id": 0,
      "velocity": 0,
      "is_motor": true,
      "motor_id": 0,
      "accel_val": 2000,
      "base_duration_us": 406818
    },
    {
      "id": "M_677",
      "pitch": 70,
      "t_note_us": 110492726,
      "t_trigger_us": 110356763,
      "is_ai": false,
      "track_id": 0,
      "velocity": 0,
      "is_motor": true,
      "motor_id": 0,
      "accel_val": 2000,
      "base_duration_us": 720449
    },
    {
      "id": "M_674",
      "pitch": 98,
      "t_note_us": 110504089,
      "t_trigger_us": 110368126,
      "is_ai": true,
      "track_id": 11,
      "velocity": 0,
      "is_motor": false,
      "motor_id": 0,
      "accel_val": 2000,
      "base_duration_us": 429543
    },
    {
      "id": "M_675",
      "pitch": 101,
      "t_note_us": 110504089,
      "t_trigger_us": 110368126,
      "is_ai": true,
      "track_id": 13,
      "velocity": 0,
      "is_motor": false,
      "motor_id": 0,
      "accel_val": 2000,
      "base_duration_us": 440906
    },
    {
      "id": "M_672",
      "pitch": 70,
      "t_note_us": 110504089,
      "t_trigger_us": 110368126,
      "is_ai": false,
      "track_id": 0,
      "velocity": 0,
      "is_motor": true,
      "motor_id": 1,
      "accel_val": 2000,
      "base_duration_us": 395454
    },
    {
      "id": "M_673",
      "pitch": 77,
      "t_note_us": 110504089,
      "t_trigger_us": 110368126,
      "is_ai": false,
      "track_id": 0,
      "velocity": 0,
      "is_motor": true,
      "motor_id": 2,
      "accel_val": 2000,
      "base_duration_us": 418180
    },
    {
      "id": "M_685",
      "pitch": 64,
      "t_note_us": 110910906,
      "t_trigger_us": 110774943,
      "is_ai": false,
      "track_id": 0,
      "velocity": 0,
      "is_motor": true,
      "motor_id": 1,
      "accel_val": 2000,
      "base_duration_us": 1684080
    },
    {
      "id": "M_678",
      "pitch": 103,
      "t_note_us": 110922269,
      "t_trigger_us": 110786306,
      "is_ai": true,
      "track_id": 14,
      "velocity": 0,
      "is_motor": false,
      "motor_id": 0,
      "accel_val": 2000,
      "base_duration_us": 499996
    },
    {
      "id": "M_676",
      "pitch": 76,
      "t_note_us": 110922269,
      "t_trigger_us": 110786306,
      "is_ai": false,
      "track_id": 0,
      "velocity": 0,
      "is_motor": true,
      "motor_id": 2,
      "accel_val": 2000,
      "base_duration_us": 265907
    },
    {
      "id": "M_679",
      "pitch": 76,
      "t_note_us": 111354084,
      "t_trigger_us": 111218121,
      "is_ai": false,
      "track_id": 0,
      "velocity": 0,
      "is_motor": true,
      "motor_id": 2,
      "accel_val": 2000,
      "base_duration_us": 347725
    },
    {
      "id": "M_681",
      "pitch": 67,
      "t_note_us": 111354084,
      "t_trigger_us": 111218121,
      "is_ai": false,
      "track_id": 0,
      "velocity": 0,
      "is_motor": true,
      "motor_id": 0,
      "accel_val": 2000,
      "base_duration_us": 440905
    },
    {
      "id": "M_680",
      "pitch": 91,
      "t_note_us": 111549537,
      "t_trigger_us": 111413574,
      "is_ai": true,
      "track_id": 7,
      "velocity": 0,
      "is_motor": false,
      "motor_id": 0,
      "accel_val": 2000,
      "base_duration_us": 220453
    },
    {
      "id": "M_682",
      "pitch": 103,
      "t_note_us": 111783626,
      "t_trigger_us": 111647663,
      "is_ai": true,
      "track_id": 14,
      "velocity": 0,
      "is_motor": false,
      "motor_id": 0,
      "accel_val": 2000,
      "base_duration_us": 381817
    },
    {
      "id": "M_686",
      "pitch": 91,
      "t_note_us": 111783626,
      "t_trigger_us": 111647663,
      "is_ai": true,
      "track_id": 7,
      "velocity": 0,
      "is_motor": false,
      "motor_id": 0,
      "accel_val": 2000,
      "base_duration_us": 822723
    },
    {
      "id": "M_683",
      "pitch": 67,
      "t_note_us": 111794989,
      "t_trigger_us": 111659026,
      "is_ai": false,
      "track_id": 0,
      "velocity": 0,
      "is_motor": true,
      "motor_id": 2,
      "accel_val": 2000,
      "base_duration_us": 393181
    },
    {
      "id": "M_684",
      "pitch": 70,
      "t_note_us": 111794989,
      "t_trigger_us": 111659026,
      "is_ai": false,
      "track_id": 0,
      "velocity": 0,
      "is_motor": true,
      "motor_id": 0,
      "accel_val": 2000,
      "base_duration_us": 429543
    },
    {
      "id": "M_688",
      "pitch": 76,
      "t_note_us": 112213169,
      "t_trigger_us": 112077206,
      "is_ai": false,
      "track_id": 0,
      "velocity": 0,
      "is_motor": true,
      "motor_id": 2,
      "accel_val": 2000,
      "base_duration_us": 765905
    },
    {
      "id": "M_687",
      "pitch": 70,
      "t_note_us": 112224532,
      "t_trigger_us": 112088569,
      "is_ai": false,
      "track_id": 0,
      "velocity": 0,
      "is_motor": true,
      "motor_id": 0,
      "accel_val": 2000,
      "base_duration_us": 545452
    },
    {
      "id": "M_690",
      "pitch": 96,
      "t_note_us": 112642712,
      "t_trigger_us": 112506749,
      "is_ai": true,
      "track_id": 10,
      "velocity": 0,
      "is_motor": false,
      "motor_id": 0,
      "accel_val": 2000,
      "base_duration_us": 415907
    },
    {
      "id": "M_693",
      "pitch": 63,
      "t_note_us": 112665439,
      "t_trigger_us": 112529476,
      "is_ai": false,
      "track_id": 0,
      "velocity": 0,
      "is_motor": true,
      "motor_id": 1,
      "accel_val": 2000,
      "base_duration_us": 1172723
    },
    {
      "id": "M_689",
      "pitch": 70,
      "t_note_us": 112908620,
      "t_trigger_us": 112772657,
      "is_ai": false,
      "track_id": 0,
      "velocity": 0,
      "is_motor": true,
      "motor_id": 0,
      "accel_val": 2000,
      "base_duration_us": 149999
    },
    {
      "id": "M_691",
      "pitch": 75,
      "t_note_us": 112979074,
      "t_trigger_us": 112843111,
      "is_ai": false,
      "track_id": 0,
      "velocity": 0,
      "is_motor": true,
      "motor_id": 2,
      "accel_val": 2000,
      "base_duration_us": 454544
    },
    {
      "id": "M_692",
      "pitch": 70,
      "t_note_us": 113072255,
      "t_trigger_us": 112936292,
      "is_ai": true,
      "track_id": 0,
      "velocity": 0,
      "is_motor": true,
      "motor_id": 0,
      "accel_val": 2000,
      "base_duration_us": 429544
    },
    {
      "id": "M_702",
      "pitch": 70,
      "t_note_us": 113072255,
      "t_trigger_us": 112936292,
      "is_ai": false,
      "track_id": 0,
      "velocity": 0,
      "is_motor": true,
      "motor_id": 3,
      "accel_val": 2000,
      "base_duration_us": 1568174
    },
    {
      "id": "M_695",
      "pitch": 70,
      "t_note_us": 113501799,
      "t_trigger_us": 113365836,
      "is_ai": true,
      "track_id": 0,
      "velocity": 0,
      "is_motor": true,
      "motor_id": 2,
      "accel_val": 2000,
      "base_duration_us": 395453
    },
    {
      "id": "M_694",
      "pitch": 70,
      "t_note_us": 113501799,
      "t_trigger_us": 113365836,
      "is_ai": false,
      "track_id": 0,
      "velocity": 0,
      "is_motor": true,
      "motor_id": 0,
      "accel_val": 2000,
      "base_duration_us": 372726
    },
    {
      "id": "M_696",
      "pitch": 77,
      "t_note_us": 113501799,
      "t_trigger_us": 113365836,
      "is_ai": false,
      "track_id": 0,
      "velocity": 0,
      "is_motor": true,
      "motor_id": 0,
      "accel_val": 2000,
      "base_duration_us": 429543
    },
    {
      "id": "M_697",
      "pitch": 96,
      "t_note_us": 113919979,
      "t_trigger_us": 113784016,
      "is_ai": true,
      "track_id": 10,
      "velocity": 0,
      "is_motor": false,
      "motor_id": 0,
      "accel_val": 2000,
      "base_duration_us": 279544
    },
    {
      "id": "M_699",
      "pitch": 77,
      "t_note_us": 113931342,
      "t_trigger_us": 113795379,
      "is_ai": false,
      "track_id": 0,
      "velocity": 0,
      "is_motor": true,
      "motor_id": 2,
      "accel_val": 2000,
      "base_duration_us": 384089
    },
    {
      "id": "M_700",
      "pitch": 67,
      "t_note_us": 113931342,
      "t_trigger_us": 113795379,
      "is_ai": false,
      "track_id": 0,
      "velocity": 0,
      "is_motor": true,
      "motor_id": 1,
      "accel_val": 2000,
      "base_duration_us": 406816
    },
    {
      "id": "M_698",
      "pitch": 63,
      "t_note_us": 114035887,
      "t_trigger_us": 113899924,
      "is_ai": false,
      "track_id": 0,
      "velocity": 0,
      "is_motor": true,
      "motor_id": 0,
      "accel_val": 2000,
      "base_duration_us": 209090
    },
    {
      "id": "M_701",
      "pitch": 70,
      "t_note_us": 114349521,
      "t_trigger_us": 114213558,
      "is_ai": true,
      "track_id": 0,
      "velocity": 0,
      "is_motor": true,
      "motor_id": 1,
      "accel_val": 2000,
      "base_duration_us": 209090
    },
    {
      "id": "M_703",
      "pitch": 75,
      "t_note_us": 114360884,
      "t_trigger_us": 114224921,
      "is_ai": false,
      "track_id": 0,
      "velocity": 0,
      "is_motor": true,
      "motor_id": 2,
      "accel_val": 2000,
      "base_duration_us": 859090
    },
    {
      "id": "M_704",
      "pitch": 78,
      "t_note_us": 114360884,
      "t_trigger_us": 114224921,
      "is_ai": false,
      "track_id": 0,
      "velocity": 0,
      "is_motor": true,
      "motor_id": 0,
      "accel_val": 2000,
      "base_duration_us": 1197726
    },
    {
      "id": "M_705",
      "pitch": 75,
      "t_note_us": 115219974,
      "t_trigger_us": 115084011,
      "is_ai": false,
      "track_id": 0,
      "velocity": 0,
      "is_motor": true,
      "motor_id": 2,
      "accel_val": 2000,
      "base_duration_us": 420454
    },
    {
      "id": "M_706",
      "pitch": 70,
      "t_note_us": 115219974,
      "t_trigger_us": 115084011,
      "is_ai": false,
      "track_id": 0,
      "velocity": 0,
      "is_motor": true,
      "motor_id": 1,
      "accel_val": 2000,
      "base_duration_us": 838635
    },
    {
      "id": "M_707",
      "pitch": 75,
      "t_note_us": 115640428,
      "t_trigger_us": 115504465,
      "is_ai": false,
      "track_id": 0,
      "velocity": 0,
      "is_motor": true,
      "motor_id": 2,
      "accel_val": 2000,
      "base_duration_us": 429544
    },
    {
      "id": "M_708",
      "pitch": 70,
      "t_note_us": 116058609,
      "t_trigger_us": 115922646,
      "is_ai": false,
      "track_id": 0,
      "velocity": 0,
      "is_motor": true,
      "motor_id": 1,
      "accel_val": 2000,
      "base_duration_us": 440908
    },
    {
      "id": "M_710",
      "pitch": 101,
      "t_note_us": 116069972,
      "t_trigger_us": 115934009,
      "is_ai": true,
      "track_id": 13,
      "velocity": 0,
      "is_motor": false,
      "motor_id": 0,
      "accel_val": 2000,
      "base_duration_us": 859089
    },
    {
      "id": "M_709",
      "pitch": 74,
      "t_note_us": 116069972,
      "t_trigger_us": 115934009,
      "is_ai": false,
      "track_id": 0,
      "velocity": 0,
      "is_motor": true,
      "motor_id": 0,
      "accel_val": 2000,
      "base_duration_us": 440908
    },
    {
      "id": "M_716",
      "pitch": 69,
      "t_note_us": 116499517,
      "t_trigger_us": 116363554,
      "is_ai": false,
      "track_id": 0,
      "velocity": 0,
      "is_motor": true,
      "motor_id": 1,
      "accel_val": 2000,
      "base_duration_us": 1299994
    },
    {
      "id": "M_711",
      "pitch": 74,
      "t_note_us": 116510880,
      "t_trigger_us": 116374917,
      "is_ai": false,
      "track_id": 0,
      "velocity": 0,
      "is_motor": true,
      "motor_id": 0,
      "accel_val": 2000,
      "base_duration_us": 429544
    },
    {
      "id": "M_714",
      "pitch": 101,
      "t_note_us": 116929061,
      "t_trigger_us": 116793098,
      "is_ai": true,
      "track_id": 13,
      "velocity": 0,
      "is_motor": false,
      "motor_id": 0,
      "accel_val": 2000,
      "base_duration_us": 790906
    },
    {
      "id": "M_712",
      "pitch": 74,
      "t_note_us": 116940424,
      "t_trigger_us": 116804461,
      "is_ai": false,
      "track_id": 0,
      "velocity": 0,
      "is_motor": true,
      "motor_id": 0,
      "accel_val": 2000,
      "base_duration_us": 406818
    },
    {
      "id": "M_713",
      "pitch": 74,
      "t_note_us": 116940424,
      "t_trigger_us": 116804461,
      "is_ai": false,
      "track_id": 0,
      "velocity": 0,
      "is_motor": true,
      "motor_id": 2,
      "accel_val": 2000,
      "base_duration_us": 418181
    },
    {
      "id": "M_715",
      "pitch": 98,
      "t_note_us": 117347242,
      "t_trigger_us": 117211279,
      "is_ai": true,
      "track_id": 11,
      "velocity": 0,
      "is_motor": false,
      "motor_id": 0,
      "accel_val": 2000,
      "base_duration_us": 418179
    },
    {
      "id": "M_718",
      "pitch": 74,
      "t_note_us": 117347242,
      "t_trigger_us": 117211279,
      "is_ai": false,
      "track_id": 0,
      "velocity": 0,
      "is_motor": true,
      "motor_id": 0,
      "accel_val": 2000,
      "base_duration_us": 545449
    },
    {
      "id": "M_721",
      "pitch": 74,
      "t_note_us": 117358605,
      "t_trigger_us": 117222642,
      "is_ai": false,
      "track_id": 0,
      "velocity": 0,
      "is_motor": true,
      "motor_id": 2,
      "accel_val": 2000,
      "base_duration_us": 859085
    },
    {
      "id": "M_717",
      "pitch": 67,
      "t_note_us": 117694968,
      "t_trigger_us": 117559005,
      "is_ai": false,
      "track_id": 0,
      "velocity": 0,
      "is_motor": true,
      "motor_id": 3,
      "accel_val": 2000,
      "base_duration_us": 163633
    },
    {
      "id": "M_722",
      "pitch": 93,
      "t_note_us": 117776784,
      "t_trigger_us": 117640821,
      "is_ai": true,
      "track_id": 8,
      "velocity": 0,
      "is_motor": false,
      "motor_id": 0,
      "accel_val": 2000,
      "base_duration_us": 440906
    },
    {
      "id": "M_719",
      "pitch": 67,
      "t_note_us": 117776784,
      "t_trigger_us": 117640821,
      "is_ai": false,
      "track_id": 0,
      "velocity": 0,
      "is_motor": true,
      "motor_id": 0,
      "accel_val": 2000,
      "base_duration_us": 138634
    },
    {
      "id": "M_720",
      "pitch": 69,
      "t_note_us": 117799511,
      "t_trigger_us": 117663548,
      "is_ai": false,
      "track_id": 0,
      "velocity": 0,
      "is_motor": true,
      "motor_id": 1,
      "accel_val": 2000,
      "base_duration_us": 290907
    },
    {
      "id": "M_724",
      "pitch": 67,
      "t_note_us": 117858601,
      "t_trigger_us": 117722638,
      "is_ai": false,
      "track_id": 0,
      "velocity": 0,
      "is_motor": true,
      "motor_id": 3,
      "accel_val": 2000,
      "base_duration_us": 777269
    },
    {
      "id": "M_725",
      "pitch": 70,
      "t_note_us": 118217690,
      "t_trigger_us": 118081727,
      "is_ai": true,
      "track_id": 0,
      "velocity": 0,
      "is_motor": true,
      "motor_id": 1,
      "accel_val": 2000,
      "base_duration_us": 429543
    },
    {
      "id": "M_726",
      "pitch": 74,
      "t_note_us": 118217690,
      "t_trigger_us": 118081727,
      "is_ai": false,
      "track_id": 0,
      "velocity": 0,
      "is_motor": true,
      "motor_id": 0,
      "accel_val": 2000,
      "base_duration_us": 440906
    },
    {
      "id": "M_723",
      "pitch": 86,
      "t_note_us": 118426780,
      "t_trigger_us": 118290817,
      "is_ai": true,
      "track_id": 4,
      "velocity": 0,
      "is_motor": false,
      "motor_id": 0,
      "accel_val": 2000,
      "base_duration_us": 152272
    },
    {
      "id": "M_730",
      "pitch": 70,
      "t_note_us": 118635870,
      "t_trigger_us": 118499907,
      "is_ai": true,
      "track_id": 0,
      "velocity": 0,
      "is_motor": true,
      "motor_id": 2,
      "accel_val": 2000,
      "base_duration_us": 813631
    },
    {
      "id": "M_728",
      "pitch": 67,
      "t_note_us": 118635870,
      "t_trigger_us": 118499907,
      "is_ai": false,
      "track_id": 0,
      "velocity": 0,
      "is_motor": true,
      "motor_id": 3,
      "accel_val": 2000,
      "base_duration_us": 418179
    },
    {
      "id": "M_727",
      "pitch": 67,
      "t_note_us": 118647233,
      "t_trigger_us": 118511270,
      "is_ai": false,
      "track_id": 0,
      "velocity": 0,
      "is_motor": true,
      "motor_id": 1,
      "accel_val": 2000,
      "base_duration_us": 372726
    },
    {
      "id": "M_731",
      "pitch": 74,
      "t_note_us": 118658596,
      "t_trigger_us": 118522633,
      "is_ai": false,
      "track_id": 0,
      "velocity": 0,
      "is_motor": true,
      "motor_id": 0,
      "accel_val": 2000,
      "base_duration_us": 838632
    },
    {
      "id": "M_732",
      "pitch": 96,
      "t_note_us": 119065412,
      "t_trigger_us": 118929449,
      "is_ai": true,
      "track_id": 10,
      "velocity": 0,
      "is_motor": false,
      "motor_id": 0,
      "accel_val": 2000,
      "base_duration_us": 443179
    },
    {
      "id": "M_729",
      "pitch": 67,
      "t_note_us": 119192684,
      "t_trigger_us": 119056721,
      "is_ai": false,
      "track_id": 0,
      "velocity": 0,
      "is_motor": true,
      "motor_id": 1,
      "accel_val": 2000,
      "base_duration_us": 199999
    },
    {
      "id": "M_733",
      "pitch": 91,
      "t_note_us": 119497228,
      "t_trigger_us": 119361265,
      "is_ai": true,
      "track_id": 7,
      "velocity": 0,
      "is_motor": false,
      "motor_id": 0,
      "accel_val": 2000,
      "base_duration_us": 277271
    },
    {
      "id": "M_735",
      "pitch": 98,
      "t_note_us": 119497228,
      "t_trigger_us": 119361265,
      "is_ai": true,
      "track_id": 11,
      "velocity": 0,
      "is_motor": false,
      "motor_id": 0,
      "accel_val": 2000,
      "base_duration_us": 440906
    },
    {
      "id": "M_736",
      "pitch": 72,
      "t_note_us": 119497228,
      "t_trigger_us": 119361265,
      "is_ai": false,
      "track_id": 0,
      "velocity": 0,
      "is_motor": true,
      "motor_id": 1,
      "accel_val": 2000,
      "base_duration_us": 452269
    },
    {
      "id": "M_742",
      "pitch": 75,
      "t_note_us": 119497228,
      "t_trigger_us": 119361265,
      "is_ai": false,
      "track_id": 0,
      "velocity": 0,
      "is_motor": true,
      "motor_id": 2,
      "accel_val": 2000,
      "base_duration_us": 1706810
    },
    {
      "id": "M_734",
      "pitch": 67,
      "t_note_us": 119519954,
      "t_trigger_us": 119383991,
      "is_ai": false,
      "track_id": 0,
      "velocity": 0,
      "is_motor": true,
      "motor_id": 0,
      "accel_val": 2000,
      "base_duration_us": 406817
    },
    {
      "id": "M_737",
      "pitch": 98,
      "t_note_us": 119938134,
      "t_trigger_us": 119802171,
      "is_ai": true,
      "track_id": 11,
      "velocity": 0,
      "is_motor": false,
      "motor_id": 0,
      "accel_val": 2000,
      "base_duration_us": 474999
    },
    {
      "id": "M_740",
      "pitch": 67,
      "t_note_us": 119938134,
      "t_trigger_us": 119802171,
      "is_ai": false,
      "track_id": 0,
      "velocity": 0,
      "is_motor": true,
      "motor_id": 0,
      "accel_val": 2000,
      "base_duration_us": 1161360
    },
    {
      "id": "M_739",
      "pitch": 72,
      "t_note_us": 119949497,
      "t_trigger_us": 119813534,
      "is_ai": false,
      "track_id": 0,
      "velocity": 0,
      "is_motor": true,
      "motor_id": 1,
      "accel_val": 2000,
      "base_duration_us": 836361
    },
    {
      "id": "M_743",
      "pitch": 70,
      "t_note_us": 120356315,
      "t_trigger_us": 120220352,
      "is_ai": false,
      "track_id": 0,
      "velocity": 0,
      "is_motor": true,
      "motor_id": 3,
      "accel_val": 2000,
      "base_duration_us": 872722
    },
    {
      "id": "M_738",
      "pitch": 91,
      "t_note_us": 120472223,
      "t_trigger_us": 120336260,
      "is_ai": true,
      "track_id": 7,
      "velocity": 0,
      "is_motor": false,
      "motor_id": 0,
      "accel_val": 2000,
      "base_duration_us": 302272
    },
    {
      "id": "M_741",
      "pitch": 91,
      "t_note_us": 120785858,
      "t_trigger_us": 120649895,
      "is_ai": true,
      "track_id": 7,
      "velocity": 0,
      "is_motor": false,
      "motor_id": 0,
      "accel_val": 2000,
      "base_duration_us": 359090
    },
    {
      "id": "M_744",
      "pitch": 72,
      "t_note_us": 120785858,
      "t_trigger_us": 120649895,
      "is_ai": false,
      "track_id": 0,
      "velocity": 0,
      "is_motor": true,
      "motor_id": 1,
      "accel_val": 2000,
      "base_duration_us": 859088
    },
    {
      "id": "M_745",
      "pitch": 96,
      "t_note_us": 121204038,
      "t_trigger_us": 121068075,
      "is_ai": true,
      "track_id": 10,
      "velocity": 0,
      "is_motor": false,
      "motor_id": 0,
      "accel_val": 2000,
      "base_duration_us": 581817
    },
    {
      "id": "M_748",
      "pitch": 75,
      "t_note_us": 121204038,
      "t_trigger_us": 121068075,
      "is_ai": false,
      "track_id": 0,
      "velocity": 0,
      "is_motor": true,
      "motor_id": 2,
      "accel_val": 2000,
      "base_duration_us": 1231816
    },
    {
      "id": "M_747",
      "pitch": 65,
      "t_note_us": 121215401,
      "t_trigger_us": 121079438,
      "is_ai": false,
      "track_id": 0,
      "velocity": 0,
      "is_motor": true,
      "motor_id": 0,
      "accel_val": 2000,
      "base_duration_us": 1220453
    },
    {
      "id": "M_749",
      "pitch": 77,
      "t_note_us": 121215401,
      "t_trigger_us": 121079438,
      "is_ai": false,
      "track_id": 0,
      "velocity": 0,
      "is_motor": true,
      "motor_id": 0,
      "accel_val": 2000,
      "base_duration_us": 1277271
    },
    {
      "id": "M_754",
      "pitch": 72,
      "t_note_us": 121644946,
      "t_trigger_us": 121508983,
      "is_ai": false,
      "track_id": 0,
      "velocity": 0,
      "is_motor": true,
      "motor_id": 1,
      "accel_val": 2000,
      "base_duration_us": 1638631
    },
    {
      "id": "M_752",
      "pitch": 67,
      "t_note_us": 122074491,
      "t_trigger_us": 121938528,
      "is_ai": false,
      "track_id": 0,
      "velocity": 0,
      "is_motor": true,
      "motor_id": 3,
      "accel_val": 2000,
      "base_duration_us": 802270
    },
    {
      "id": "M_746",
      "pitch": 93,
      "t_note_us": 122156309,
      "t_trigger_us": 122020346,
      "is_ai": true,
      "track_id": 8,
      "velocity": 0,
      "is_motor": false,
      "motor_id": 0,
      "accel_val": 2000,
      "base_duration_us": 175000
    },
    {
      "id": "M_755",
      "pitch": 77,
      "t_note_us": 122492672,
      "t_trigger_us": 122356709,
      "is_ai": false,
      "track_id": 0,
      "velocity": 0,
      "is_motor": true,
      "motor_id": 2,
      "accel_val": 2000,
      "base_duration_us": 884086
    },
    {
      "id": "M_750",
      "pitch": 96,
      "t_note_us": 122504035,
      "t_trigger_us": 122368072,
      "is_ai": true,
      "track_id": 10,
      "velocity": 0,
      "is_motor": false,
      "motor_id": 0,
      "accel_val": 2000,
      "base_duration_us": 174999
    },
    {
      "id": "M_751",
      "pitch": 65,
      "t_note_us": 122633580,
      "t_trigger_us": 122497617,
      "is_ai": false,
      "track_id": 0,
      "velocity": 0,
      "is_motor": true,
      "motor_id": 0,
      "accel_val": 2000,
      "base_duration_us": 220454
    },
    {
      "id": "M_758",
      "pitch": 70,
      "t_note_us": 122933579,
      "t_trigger_us": 122797616,
      "is_ai": false,
      "track_id": 0,
      "velocity": 0,
      "is_motor": true,
      "motor_id": 0,
      "accel_val": 2000,
      "base_duration_us": 872723
    },
    {
      "id": "M_757",
      "pitch": 70,
      "t_note_us": 122958578,
      "t_trigger_us": 122822615,
      "is_ai": true,
      "track_id": 0,
      "velocity": 0,
      "is_motor": true,
      "motor_id": 3,
      "accel_val": 2000,
      "base_duration_us": 802270
    },
    {
      "id": "M_753",
      "pitch": 70,
      "t_note_us": 122958578,
      "t_trigger_us": 122822615,
      "is_ai": false,
      "track_id": 0,
      "velocity": 0,
      "is_motor": true,
      "motor_id": 0,
      "accel_val": 2000,
      "base_duration_us": 290909
    },
    {
      "id": "M_765",
      "pitch": 65,
      "t_note_us": 123388121,
      "t_trigger_us": 123252158,
      "is_ai": false,
      "track_id": 0,
      "velocity": 0,
      "is_motor": true,
      "motor_id": 1,
      "accel_val": 2000,
      "base_duration_us": 1729541
    },
    {
      "id": "M_756",
      "pitch": 77,
      "t_note_us": 123529030,
      "t_trigger_us": 123393067,
      "is_ai": false,
      "track_id": 0,
      "velocity": 0,
      "is_motor": true,
      "motor_id": 2,
      "accel_val": 2000,
      "base_duration_us": 150000
    },
    {
      "id": "M_759",
      "pitch": 77,
      "t_note_us": 123806302,
      "t_trigger_us": 123670339,
      "is_ai": false,
      "track_id": 0,
      "velocity": 0,
      "is_motor": true,
      "motor_id": 2,
      "accel_val": 2000,
      "base_duration_us": 359090
    },
    {
      "id": "M_760",
      "pitch": 70,
      "t_note_us": 123806302,
      "t_trigger_us": 123670339,
      "is_ai": false,
      "track_id": 0,
      "velocity": 0,
      "is_motor": true,
      "motor_id": 0,
      "accel_val": 2000,
      "base_duration_us": 463634
    },
    {
      "id": "M_771",
      "pitch": 70,
      "t_note_us": 123806302,
      "t_trigger_us": 123670339,
      "is_ai": false,
      "track_id": 0,
      "velocity": 0,
      "is_motor": true,
      "motor_id": 3,
      "accel_val": 2000,
      "base_duration_us": 2068175
    },
    {
      "id": "M_762",
      "pitch": 72,
      "t_note_us": 124235846,
      "t_trigger_us": 124099883,
      "is_ai": false,
      "track_id": 0,
      "velocity": 0,
      "is_motor": true,
      "motor_id": 2,
      "accel_val": 2000,
      "base_duration_us": 440908
    },
    {
      "id": "M_761",
      "pitch": 74,
      "t_note_us": 124247209,
      "t_trigger_us": 124111246,
      "is_ai": false,
      "track_id": 0,
      "velocity": 0,
      "is_motor": true,
      "motor_id": 0,
      "accel_val": 2000,
      "base_duration_us": 429545
    },
    {
      "id": "M_764",
      "pitch": 77,
      "t_note_us": 124247209,
      "t_trigger_us": 124111246,
      "is_ai": false,
      "track_id": 0,
      "velocity": 0,
      "is_motor": true,
      "motor_id": 0,
      "accel_val": 2000,
      "base_duration_us": 859090
    },
    {
      "id": "M_763",
      "pitch": 70,
      "t_note_us": 124269936,
      "t_trigger_us": 124133973,
      "is_ai": false,
      "track_id": 0,
      "velocity": 0,
      "is_motor": true,
      "motor_id": 0,
      "accel_val": 2000,
      "base_duration_us": 779545
    },
    {
      "id": "M_768",
      "pitch": 74,
      "t_note_us": 124676754,
      "t_trigger_us": 124540791,
      "is_ai": false,
      "track_id": 0,
      "velocity": 0,
      "is_motor": true,
      "motor_id": 2,
      "accel_val": 2000,
      "base_duration_us": 838634
    },
    {
      "id": "M_769",
      "pitch": 74,
      "t_note_us": 124676754,
      "t_trigger_us": 124540791,
      "is_ai": false,
      "track_id": 0,
      "velocity": 0,
      "is_motor": true,
      "motor_id": 0,
      "accel_val": 2000,
      "base_duration_us": 861360
    },
    {
      "id": "M_766",
      "pitch": 70,
      "t_note_us": 125106299,
      "t_trigger_us": 124970336,
      "is_ai": true,
      "track_id": 0,
      "velocity": 0,
      "is_motor": true,
      "motor_id": 0,
      "accel_val": 2000,
      "base_duration_us": 140908
    },
    {
      "id": "M_767",
      "pitch": 89,
      "t_note_us": 125106299,
      "t_trigger_us": 124970336,
      "is_ai": true,
      "track_id": 6,
      "velocity": 0,
      "is_motor": false,
      "motor_id": 0,
      "accel_val": 2000,
      "base_duration_us": 338635
    },
    {
      "id": "M_772",
      "pitch": 89,
      "t_note_us": 125106299,
      "t_trigger_us": 124970336,
      "is_ai": true,
      "track_id": 6,
      "velocity": 0,
      "is_motor": false,
      "motor_id": 0,
      "accel_val": 2000,
      "base_duration_us": 849996
    },
    {
      "id": "M_773",
      "pitch": 65,
      "t_note_us": 125117662,
      "t_trigger_us": 124981699,
      "is_ai": false,
      "track_id": 0,
      "velocity": 0,
      "is_motor": true,
      "motor_id": 1,
      "accel_val": 2000,
      "base_duration_us": 872723
    },
    {
      "id": "M_775",
      "pitch": 91,
      "t_note_us": 125526751,
      "t_trigger_us": 125390788,
      "is_ai": true,
      "track_id": 7,
      "velocity": 0,
      "is_motor": false,
      "motor_id": 0,
      "accel_val": 2000,
      "base_duration_us": 777270
    },
    {
      "id": "M_770",
      "pitch": 74,
      "t_note_us": 125538114,
      "t_trigger_us": 125402151,
      "is_ai": false,
      "track_id": 0,
      "velocity": 0,
      "is_motor": true,
      "motor_id": 0,
      "accel_val": 2000,
      "base_duration_us": 254545
    },
    {
      "id": "M_774",
      "pitch": 74,
      "t_note_us": 125538114,
      "t_trigger_us": 125402151,
      "is_ai": false,
      "track_id": 0,
      "velocity": 0,
      "is_motor": true,
      "motor_id": 2,
      "accel_val": 2000,
      "base_duration_us": 452271
    },
    {
      "id": "M_779",
      "pitch": 70,
      "t_note_us": 125956295,
      "t_trigger_us": 125820332,
      "is_ai": true,
      "track_id": 0,
      "velocity": 0,
      "is_motor": true,
      "motor_id": 0,
      "accel_val": 2000,
      "base_duration_us": 440906
    },
    {
      "id": "M_776",
      "pitch": 77,
      "t_note_us": 125956295,
      "t_trigger_us": 125820332,
      "is_ai": false,
      "track_id": 0,
      "velocity": 0,
      "is_motor": true,
      "motor_id": 3,
      "accel_val": 2000,
      "base_duration_us": 381816
    },
    {
      "id": "M_777",
      "pitch": 65,
      "t_note_us": 125990385,
      "t_trigger_us": 125854422,
      "is_ai": false,
      "track_id": 0,
      "velocity": 0,
      "is_motor": true,
      "motor_id": 1,
      "accel_val": 2000,
      "base_duration_us": 384089
    },
    {
      "id": "M_778",
      "pitch": 74,
      "t_note_us": 125990385,
      "t_trigger_us": 125854422,
      "is_ai": false,
      "track_id": 0,
      "velocity": 0,
      "is_motor": true,
      "motor_id": 2,
      "accel_val": 2000,
      "base_duration_us": 384089
    },
    {
      "id": "M_780",
      "pitch": 96,
      "t_note_us": 126397201,
      "t_trigger_us": 126261238,
      "is_ai": true,
      "track_id": 10,
      "velocity": 0,
      "is_motor": false,
      "motor_id": 0,
      "accel_val": 2000,
      "base_duration_us": 429544
    },
    {
      "id": "M_783",
      "pitch": 76,
      "t_note_us": 126397201,
      "t_trigger_us": 126261238,
      "is_ai": false,
      "track_id": 0,
      "velocity": 0,
      "is_motor": true,
      "motor_id": 2,
      "accel_val": 2000,
      "base_duration_us": 1172724
    },
    {
      "id": "M_781",
      "pitch": 77,
      "t_note_us": 126408564,
      "t_trigger_us": 126272601,
      "is_ai": false,
      "track_id": 0,
      "velocity": 0,
      "is_motor": true,
      "motor_id": 1,
      "accel_val": 2000,
      "base_duration_us": 511362
    },
    {
      "id": "M_782",
      "pitch": 70,
      "t_note_us": 126479018,
      "t_trigger_us": 126343055,
      "is_ai": false,
      "track_id": 0,
      "velocity": 0,
      "is_motor": true,
      "motor_id": 0,
      "accel_val": 2000,
      "base_duration_us": 613635
    },
    {
      "id": "M_785",
      "pitch": 67,
      "t_note_us": 126883563,
      "t_trigger_us": 126747600,
      "is_ai": false,
      "track_id": 0,
      "velocity": 0,
      "is_motor": true,
      "motor_id": 3,
      "accel_val": 2000,
      "base_duration_us": 1059087
    },
    {
      "id": "M_791",
      "pitch": 72,
      "t_note_us": 127233562,
      "t_trigger_us": 127097599,
      "is_ai": false,
      "track_id": 0,
      "velocity": 0,
      "is_motor": true,
      "motor_id": 1,
      "accel_val": 2000,
      "base_duration_us": 1324991
    },
    {
      "id": "M_784",
      "pitch": 76,
      "t_note_us": 127663106,
      "t_trigger_us": 127527143,
      "is_ai": false,
      "track_id": 0,
      "velocity": 0,
      "is_motor": true,
      "motor_id": 2,
      "accel_val": 2000,
      "base_duration_us": 220454
    },
    {
      "id": "M_786",
      "pitch": 98,
      "t_note_us": 127883560,
      "t_trigger_us": 127747597,
      "is_ai": true,
      "track_id": 11,
      "velocity": 0,
      "is_motor": false,
      "motor_id": 0,
      "accel_val": 2000,
      "base_duration_us": 290905
    },
    {
      "id": "M_790",
      "pitch": 76,
      "t_note_us": 127883560,
      "t_trigger_us": 127747597,
      "is_ai": false,
      "track_id": 0,
      "velocity": 0,
      "is_motor": true,
      "motor_id": 2,
      "accel_val": 2000,
      "base_duration_us": 661357
    },
    {
      "id": "M_788",
      "pitch": 70,
      "t_note_us": 127954013,
      "t_trigger_us": 127818050,
      "is_ai": false,
      "track_id": 0,
      "velocity": 0,
      "is_motor": true,
      "motor_id": 0,
      "accel_val": 2000,
      "base_duration_us": 429542
    },
    {
      "id": "M_787",
      "pitch": 67,
      "t_note_us": 127988103,
      "t_trigger_us": 127852140,
      "is_ai": false,
      "track_id": 0,
      "velocity": 0,
      "is_motor": true,
      "motor_id": 3,
      "accel_val": 2000,
      "base_duration_us": 290907
    },
    {
      "id": "M_792",
      "pitch": 70,
      "t_note_us": 128104012,
      "t_trigger_us": 127968049,
      "is_ai": true,
      "track_id": 0,
      "velocity": 0,
      "is_motor": true,
      "motor_id": 0,
      "accel_val": 2000,
      "base_duration_us": 454541
    },
    {
      "id": "M_795",
      "pitch": 96,
      "t_note_us": 128104012,
      "t_trigger_us": 127968049,
      "is_ai": true,
      "track_id": 10,
      "velocity": 0,
      "is_motor": false,
      "motor_id": 0,
      "accel_val": 2000,
      "base_duration_us": 859085
    },
    {
      "id": "M_789",
      "pitch": 67,
      "t_note_us": 128140375,
      "t_trigger_us": 128004412,
      "is_ai": false,
      "track_id": 0,
      "velocity": 0,
      "is_motor": true,
      "motor_id": 0,
      "accel_val": 2000,
      "base_duration_us": 288634
    },
    {
      "id": "M_796",
      "pitch": 67,
      "t_note_us": 128533554,
      "t_trigger_us": 128397591,
      "is_ai": false,
      "track_id": 0,
      "velocity": 0,
      "is_motor": true,
      "motor_id": 0,
      "accel_val": 2000,
      "base_duration_us": 711360
    },
    {
      "id": "M_802",
      "pitch": 76,
      "t_note_us": 128544917,
      "t_trigger_us": 128408954,
      "is_ai": false,
      "track_id": 0,
      "velocity": 0,
      "is_motor": true,
      "motor_id": 2,
      "accel_val": 2000,
      "base_duration_us": 1338629
    },
    {
      "id": "M_794",
      "pitch": 70,
      "t_note_us": 128558553,
      "t_trigger_us": 128422590,
      "is_ai": true,
      "track_id": 0,
      "velocity": 0,
      "is_motor": true,
      "motor_id": 1,
      "accel_val": 2000,
      "base_duration_us": 347726
    },
    {
      "id": "M_798",
      "pitch": 72,
      "t_note_us": 128558553,
      "t_trigger_us": 128422590,
      "is_ai": false,
      "track_id": 0,
      "velocity": 0,
      "is_motor": true,
      "motor_id": 3,
      "accel_val": 2000,
      "base_duration_us": 824996
    },
    {
      "id": "M_793",
      "pitch": 67,
      "t_note_us": 128615371,
      "t_trigger_us": 128479408,
      "is_ai": false,
      "track_id": 0,
      "velocity": 0,
      "is_motor": true,
      "motor_id": 0,
      "accel_val": 2000,
      "base_duration_us": 220454
    },
    {
      "id": "M_799",
      "pitch": 96,
      "t_note_us": 128963097,
      "t_trigger_us": 128827134,
      "is_ai": true,
      "track_id": 10,
      "velocity": 0,
      "is_motor": false,
      "motor_id": 0,
      "accel_val": 2000,
      "base_duration_us": 802270
    },
    {
      "id": "M_801",
      "pitch": 70,
      "t_note_us": 128963097,
      "t_trigger_us": 128827134,
      "is_ai": false,
      "track_id": 0,
      "velocity": 0,
      "is_motor": true,
      "motor_id": 1,
      "accel_val": 2000,
      "base_duration_us": 895450
    },
    {
      "id": "M_797",
      "pitch": 70,
      "t_note_us": 129022187,
      "t_trigger_us": 128886224,
      "is_ai": false,
      "track_id": 0,
      "velocity": 0,
      "is_motor": true,
      "motor_id": 0,
      "accel_val": 2000,
      "base_duration_us": 290908
    },
    {
      "id": "M_803",
      "pitch": 72,
      "t_note_us": 129383549,
      "t_trigger_us": 129247586,
      "is_ai": false,
      "track_id": 0,
      "velocity": 0,
      "is_motor": true,
      "motor_id": 0,
      "accel_val": 2000,
      "base_duration_us": 836360
    },
    {
      "id": "M_800",
      "pitch": 91,
      "t_note_us": 129674458,
      "t_trigger_us": 129538495,
      "is_ai": true,
      "track_id": 7,
      "velocity": 0,
      "is_motor": false,
      "motor_id": 0,
      "accel_val": 2000,
      "base_duration_us": 149999
    },
    {
      "id": "M_804",
      "pitch": 70,
      "t_note_us": 129824457,
      "t_trigger_us": 129688494,
      "is_ai": false,
      "track_id": 0,
      "velocity": 0,
      "is_motor": true,
      "motor_id": 3,
      "accel_val": 2000,
      "base_duration_us": 418178
    },
    {
      "id": "M_805",
      "pitch": 72,
      "t_note_us": 130231272,
      "t_trigger_us": 130095309,
      "is_ai": false,
      "track_id": 0,
      "velocity": 0,
      "is_motor": true,
      "motor_id": 1,
      "accel_val": 2000,
      "base_duration_us": 243180
    },
    {
      "id": "M_808",
      "pitch": 89,
      "t_note_us": 130242635,
      "t_trigger_us": 130106672,
      "is_ai": true,
      "track_id": 6,
      "velocity": 0,
      "is_motor": false,
      "motor_id": 0,
      "accel_val": 2000,
      "base_duration_us": 440906
    },
    {
      "id": "M_817",
      "pitch": 66,
      "t_note_us": 130242635,
      "t_trigger_us": 130106672,
      "is_ai": false,
      "track_id": 0,
      "velocity": 0,
      "is_motor": true,
      "motor_id": 2,
      "accel_val": 2000,
      "base_duration_us": 1638628
    },
    {
      "id": "M_818",
      "pitch": 70,
      "t_note_us": 130242635,
      "t_trigger_us": 130106672,
      "is_ai": false,
      "track_id": 0,
      "velocity": 0,
      "is_motor": true,
      "motor_id": 0,
      "accel_val": 2000,
      "base_duration_us": 1672718
    },
    {
      "id": "M_806",
      "pitch": 77,
      "t_note_us": 130253998,
      "t_trigger_us": 130118035,
      "is_ai": false,
      "track_id": 0,
      "velocity": 0,
      "is_motor": true,
      "motor_id": 3,
      "accel_val": 2000,
      "base_duration_us": 359090
    },
    {
      "id": "M_807",
      "pitch": 73,
      "t_note_us": 130253998,
      "t_trigger_us": 130118035,
      "is_ai": false,
      "track_id": 0,
      "velocity": 0,
      "is_motor": true,
      "motor_id": 0,
      "accel_val": 2000,
      "base_duration_us": 395453
    },
    {
      "id": "M_811",
      "pitch": 70,
      "t_note_us": 130672178,
      "t_trigger_us": 130536215,
      "is_ai": true,
      "track_id": 0,
      "velocity": 0,
      "is_motor": true,
      "motor_id": 1,
      "accel_val": 2000,
      "base_duration_us": 454542
    },
    {
      "id": "M_810",
      "pitch": 75,
      "t_note_us": 130672178,
      "t_trigger_us": 130536215,
      "is_ai": false,
      "track_id": 0,
      "velocity": 0,
      "is_motor": true,
      "motor_id": 3,
      "accel_val": 2000,
      "base_duration_us": 443179
    },
    {
      "id": "M_809",
      "pitch": 89,
      "t_note_us": 130683541,
      "t_trigger_us": 130547578,
      "is_ai": true,
      "track_id": 6,
      "velocity": 0,
      "is_motor": false,
      "motor_id": 0,
      "accel_val": 2000,
      "base_duration_us": 418181
    },
    {
      "id": "M_812",
      "pitch": 89,
      "t_note_us": 131101722,
      "t_trigger_us": 130965759,
      "is_ai": true,
      "track_id": 6,
      "velocity": 0,
      "is_motor": false,
      "motor_id": 0,
      "accel_val": 2000,
      "base_duration_us": 313634
    },
    {
      "id": "M_814",
      "pitch": 96,
      "t_note_us": 131101722,
      "t_trigger_us": 130965759,
      "is_ai": true,
      "track_id": 10,
      "velocity": 0,
      "is_motor": false,
      "motor_id": 0,
      "accel_val": 2000,
      "base_duration_us": 429542
    },
    {
      "id": "M_813",
      "pitch": 77,
      "t_note_us": 131113085,
      "t_trigger_us": 130977122,
      "is_ai": false,
      "track_id": 0,
      "velocity": 0,
      "is_motor": true,
      "motor_id": 0,
      "accel_val": 2000,
      "base_duration_us": 361361
    },
    {
      "id": "M_815",
      "pitch": 75,
      "t_note_us": 131115357,
      "t_trigger_us": 130979394,
      "is_ai": false,
      "track_id": 0,
      "velocity": 0,
      "is_motor": true,
      "motor_id": 3,
      "accel_val": 2000,
      "base_duration_us": 429543
    },
    {
      "id": "M_816",
      "pitch": 70,
      "t_note_us": 131531264,
      "t_trigger_us": 131395301,
      "is_ai": true,
      "track_id": 0,
      "velocity": 0,
      "is_motor": true,
      "motor_id": 1,
      "accel_val": 2000,
      "base_duration_us": 234090
    },
    {
      "id": "M_819",
      "pitch": 98,
      "t_note_us": 131531264,
      "t_trigger_us": 131395301,
      "is_ai": true,
      "track_id": 11,
      "velocity": 0,
      "is_motor": false,
      "motor_id": 0,
      "accel_val": 2000,
      "base_duration_us": 418179
    },
    {
      "id": "M_823",
      "pitch": 78,
      "t_note_us": 131531264,
      "t_trigger_us": 131395301,
      "is_ai": false,
      "track_id": 0,
      "velocity": 0,
      "is_motor": true,
      "motor_id": 0,
      "accel_val": 2000,
      "base_duration_us": 999993
    },
    {
      "id": "M_825",
      "pitch": 75,
      "t_note_us": 131544900,
      "t_trigger_us": 131408937,
      "is_ai": false,
      "track_id": 0,
      "velocity": 0,
      "is_motor": true,
      "motor_id": 3,
      "accel_val": 2000,
      "base_duration_us": 1579538
    },
    {
      "id": "M_821",
      "pitch": 98,
      "t_note_us": 131949443,
      "t_trigger_us": 131813480,
      "is_ai": true,
      "track_id": 11,
      "velocity": 0,
      "is_motor": false,
      "motor_id": 0,
      "accel_val": 2000,
      "base_duration_us": 406816
    },
    {
      "id": "M_822",
      "pitch": 101,
      "t_note_us": 131960806,
      "t_trigger_us": 131824843,
      "is_ai": true,
      "track_id": 13,
      "velocity": 0,
      "is_motor": false,
      "motor_id": 0,
      "accel_val": 2000,
      "base_duration_us": 429543
    },
    {
      "id": "M_820",
      "pitch": 70,
      "t_note_us": 132065351,
      "t_trigger_us": 131929388,
      "is_ai": false,
      "track_id": 0,
      "velocity": 0,
      "is_motor": true,
      "motor_id": 1,
      "accel_val": 2000,
      "base_duration_us": 234090
    },
    {
      "id": "M_828",
      "pitch": 96,
      "t_note_us": 132378986,
      "t_trigger_us": 132243023,
      "is_ai": true,
      "track_id": 10,
      "velocity": 0,
      "is_motor": false,
      "motor_id": 0,
      "accel_val": 2000,
      "base_duration_us": 861360
    },
    {
      "id": "M_826",
      "pitch": 70,
      "t_note_us": 132390349,
      "t_trigger_us": 132254386,
      "is_ai": false,
      "track_id": 0,
      "velocity": 0,
      "is_motor": true,
      "motor_id": 1,
      "accel_val": 2000,
      "base_duration_us": 838634
    },
    {
      "id": "M_827",
      "pitch": 70,
      "t_note_us": 132403985,
      "t_trigger_us": 132268022,
      "is_ai": false,
      "track_id": 0,
      "velocity": 0,
      "is_motor": true,
      "motor_id": 2,
      "accel_val": 2000,
      "base_duration_us": 836361
    },
    {
      "id": "M_824",
      "pitch": 77,
      "t_note_us": 132531257,
      "t_trigger_us": 132395294,
      "is_ai": false,
      "track_id": 0,
      "velocity": 0,
      "is_motor": true,
      "motor_id": 0,
      "accel_val": 2000,
      "base_duration_us": 197727
    },
    {
      "id": "M_829",
      "pitch": 98,
      "t_note_us": 132808529,
      "t_trigger_us": 132672566,
      "is_ai": true,
      "track_id": 11,
      "velocity": 0,
      "is_motor": false,
      "motor_id": 0,
      "accel_val": 2000,
      "base_duration_us": 443180
    },
    {
      "id": "M_832",
      "pitch": 96,
      "t_note_us": 133240346,
      "t_trigger_us": 133104383,
      "is_ai": true,
      "track_id": 10,
      "velocity": 0,
      "is_motor": false,
      "motor_id": 0,
      "accel_val": 2000,
      "base_duration_us": 452270
    },
    {
      "id": "M_833",
      "pitch": 70,
      "t_note_us": 133240346,
      "t_trigger_us": 133104383,
      "is_ai": false,
      "track_id": 0,
      "velocity": 0,
      "is_motor": true,
      "motor_id": 1,
      "accel_val": 2000,
      "base_duration_us": 1149996
    },
    {
      "id": "M_831",
      "pitch": 77,
      "t_note_us": 133251709,
      "t_trigger_us": 133115746,
      "is_ai": false,
      "track_id": 0,
      "velocity": 0,
      "is_motor": true,
      "motor_id": 2,
      "accel_val": 2000,
      "base_duration_us": 418180
    },
    {
      "id": "M_830",
      "pitch": 74,
      "t_note_us": 133333527,
      "t_trigger_us": 133197564,
      "is_ai": false,
      "track_id": 0,
      "velocity": 0,
      "is_motor": true,
      "motor_id": 0,
      "accel_val": 2000,
      "base_duration_us": 243181
    },
    {
      "id": "M_834",
      "pitch": 70,
      "t_note_us": 133669889,
      "t_trigger_us": 133533926,
      "is_ai": true,
      "track_id": 0,
      "velocity": 0,
      "is_motor": true,
      "motor_id": 2,
      "accel_val": 2000,
      "base_duration_us": 788634
    },
    {
      "id": "M_836",
      "pitch": 77,
      "t_note_us": 133669889,
      "t_trigger_us": 133533926,
      "is_ai": false,
      "track_id": 0,
      "velocity": 0,
      "is_motor": true,
      "motor_id": 3,
      "accel_val": 2000,
      "base_duration_us": 870451
    },
    {
      "id": "M_835",
      "pitch": 65,
      "t_note_us": 133703979,
      "t_trigger_us": 133568016,
      "is_ai": false,
      "track_id": 0,
      "velocity": 0,
      "is_motor": true,
      "motor_id": 0,
      "accel_val": 2000,
      "base_duration_us": 802271
    },
    {
      "id": "M_840",
      "pitch": 72,
      "t_note_us": 134099433,
      "t_trigger_us": 133963470,
      "is_ai": false,
      "track_id": 0,
      "velocity": 0,
      "is_motor": true,
      "motor_id": 0,
      "accel_val": 2000,
      "base_duration_us": 1627268
    },
    {
      "id": "M_839",
      "pitch": 77,
      "t_note_us": 134540340,
      "t_trigger_us": 134404377,
      "is_ai": false,
      "track_id": 0,
      "velocity": 0,
      "is_motor": true,
      "motor_id": 2,
      "accel_val": 2000,
      "base_duration_us": 849998
    },
    {
      "id": "M_838",
      "pitch": 65,
      "t_note_us": 134551703,
      "t_trigger_us": 134415740,
      "is_ai": false,
      "track_id": 0,
      "velocity": 0,
      "is_motor": true,
      "motor_id": 1,
      "accel_val": 2000,
      "base_duration_us": 722726
    },
    {
      "id": "M_837",
      "pitch": 70,
      "t_note_us": 134588066,
      "t_trigger_us": 134452103,
      "is_ai": false,
      "track_id": 0,
      "velocity": 0,
      "is_motor": true,
      "motor_id": 0,
      "accel_val": 2000,
      "base_duration_us": 604545
    },
    {
      "id": "M_841",
      "pitch": 77,
      "t_note_us": 135390338,
      "t_trigger_us": 135254375,
      "is_ai": false,
      "track_id": 0,
      "velocity": 0,
      "is_motor": true,
      "motor_id": 2,
      "accel_val": 2000,
      "base_duration_us": 415908
    },
    {
      "id": "M_843",
      "pitch": 70,
      "t_note_us": 135390338,
      "t_trigger_us": 135254375,
      "is_ai": false,
      "track_id": 0,
      "velocity": 0,
      "is_motor": true,
      "motor_id": 1,
      "accel_val": 2000,
      "base_duration_us": 859088
    },
    {
      "id": "M_844",
      "pitch": 77,
      "t_note_us": 135806246,
      "t_trigger_us": 135670283,
      "is_ai": false,
      "track_id": 0,
      "velocity": 0,
      "is_motor": true,
      "motor_id": 2,
      "accel_val": 2000,
      "base_duration_us": 861361
    },
    {
      "id": "M_842",
      "pitch": 72,
      "t_note_us": 135910791,
      "t_trigger_us": 135774828,
      "is_ai": false,
      "track_id": 0,
      "velocity": 0,
      "is_motor": true,
      "motor_id": 0,
      "accel_val": 2000,
      "base_duration_us": 152272
    },
    {
      "id": "M_848",
      "pitch": 69,
      "t_note_us": 136249426,
      "t_trigger_us": 136113463,
      "is_ai": false,
      "track_id": 0,
      "velocity": 0,
      "is_motor": true,
      "motor_id": 1,
      "accel_val": 2000,
      "base_duration_us": 765905
    },
    {
      "id": "M_849",
      "pitch": 67,
      "t_note_us": 136653971,
      "t_trigger_us": 136518008,
      "is_ai": false,
      "track_id": 0,
      "velocity": 0,
      "is_motor": true,
      "motor_id": 0,
      "accel_val": 2000,
      "base_duration_us": 872723
    },
    {
      "id": "M_845",
      "pitch": 67,
      "t_note_us": 136678970,
      "t_trigger_us": 136543007,
      "is_ai": false,
      "track_id": 0,
      "velocity": 0,
      "is_motor": true,
      "motor_id": 2,
      "accel_val": 2000,
      "base_duration_us": 195453
    },
    {
      "id": "M_847",
      "pitch": 69,
      "t_note_us": 136747151,
      "t_trigger_us": 136611188,
      "is_ai": false,
      "track_id": 0,
      "velocity": 0,
      "is_motor": true,
      "motor_id": 3,
      "accel_val": 2000,
      "base_duration_us": 231817
    },
    {
      "id": "M_846",
      "pitch": 77,
      "t_note_us": 136817605,
      "t_trigger_us": 136681642,
      "is_ai": false,
      "track_id": 0,
      "velocity": 0,
      "is_motor": true,
      "motor_id": 0,
      "accel_val": 2000,
      "base_duration_us": 161363
    },
    {
      "id": "M_850",
      "pitch": 74,
      "t_note_us": 137097149,
      "t_trigger_us": 136961186,
      "is_ai": false,
      "track_id": 0,
      "velocity": 0,
      "is_motor": true,
      "motor_id": 1,
      "accel_val": 2000,
      "base_duration_us": 429545
    },
    {
      "id": "M_851",
      "pitch": 74,
      "t_note_us": 137526694,
      "t_trigger_us": 137390731,
      "is_ai": false,
      "track_id": 0,
      "velocity": 0,
      "is_motor": true,
      "motor_id": 1,
      "accel_val": 2000,
      "base_duration_us": 163636
    },
    {
      "id": "M_852",
      "pitch": 67,
      "t_note_us": 137526694,
      "t_trigger_us": 137390731,
      "is_ai": false,
      "track_id": 0,
      "velocity": 0,
      "is_motor": true,
      "motor_id": 2,
      "accel_val": 2000,
      "base_duration_us": 336363
    },
    {
      "id": "M_853",
      "pitch": 67,
      "t_note_us": 137526694,
      "t_trigger_us": 137390731,
      "is_ai": false,
      "track_id": 0,
      "velocity": 0,
      "is_motor": true,
      "motor_id": 0,
      "accel_val": 2000,
      "base_duration_us": 406816
    },
    {
      "id": "M_857",
      "pitch": 70,
      "t_note_us": 137526694,
      "t_trigger_us": 137390731,
      "is_ai": false,
      "track_id": 0,
      "velocity": 0,
      "is_motor": true,
      "motor_id": 3,
      "accel_val": 2000,
      "base_duration_us": 870450
    },
    {
      "id": "M_854",
      "pitch": 74,
      "t_note_us": 137690330,
      "t_trigger_us": 137554367,
      "is_ai": false,
      "track_id": 0,
      "velocity": 0,
      "is_motor": true,
      "motor_id": 1,
      "accel_val": 2000,
      "base_duration_us": 277270
    },
    {
      "id": "M_855",
      "pitch": 72,
      "t_note_us": 137922147,
      "t_trigger_us": 137786184,
      "is_ai": false,
      "track_id": 0,
      "velocity": 0,
      "is_motor": true,
      "motor_id": 2,
      "accel_val": 2000,
      "base_duration_us": 172725
    },
    {
      "id": "M_858",
      "pitch": 72,
      "t_note_us": 137956237,
      "t_trigger_us": 137820274,
      "is_ai": false,
      "track_id": 0,
      "velocity": 0,
      "is_motor": true,
      "motor_id": 0,
      "accel_val": 2000,
      "base_duration_us": 581816
    },
    {
      "id": "M_856",
      "pitch": 74,
      "t_note_us": 137967600,
      "t_trigger_us": 137831637,
      "is_ai": false,
      "track_id": 0,
      "velocity": 0,
      "is_motor": true,
      "motor_id": 1,
      "accel_val": 2000,
      "base_duration_us": 418181
    },
    {
      "id": "M_859",
      "pitch": 91,
      "t_note_us": 138385781,
      "t_trigger_us": 138249818,
      "is_ai": true,
      "track_id": 7,
      "velocity": 0,
      "is_motor": false,
      "motor_id": 0,
      "accel_val": 2000,
      "base_duration_us": 279544
    },
    {
      "id": "M_860",
      "pitch": 74,
      "t_note_us": 138385781,
      "t_trigger_us": 138249818,
      "is_ai": false,
      "track_id": 0,
      "velocity": 0,
      "is_motor": true,
      "motor_id": 1,
      "accel_val": 2000,
      "base_duration_us": 440907
    },
    {
      "id": "M_861",
      "pitch": 74,
      "t_note_us": 138397144,
      "t_trigger_us": 138261181,
      "is_ai": false,
      "track_id": 0,
      "velocity": 0,
      "is_motor": true,
      "motor_id": 2,
      "accel_val": 2000,
      "base_duration_us": 429544
    },
    {
      "id": "M_866",
      "pitch": 70,
      "t_note_us": 138397144,
      "t_trigger_us": 138261181,
      "is_ai": false,
      "track_id": 0,
      "velocity": 0,
      "is_motor": true,
      "motor_id": 3,
      "accel_val": 2000,
      "base_duration_us": 1231813
    },
    {
      "id": "M_865",
      "pitch": 77,
      "t_note_us": 138815325,
      "t_trigger_us": 138679362,
      "is_ai": false,
      "track_id": 0,
      "velocity": 0,
      "is_motor": true,
      "motor_id": 0,
      "accel_val": 2000,
      "base_duration_us": 640905
    },
    {
      "id": "M_863",
      "pitch": 74,
      "t_note_us": 138826688,
      "t_trigger_us": 138690725,
      "is_ai": false,
      "track_id": 0,
      "velocity": 0,
      "is_motor": true,
      "motor_id": 1,
      "accel_val": 2000,
      "base_duration_us": 420452
    },
    {
      "id": "M_864",
      "pitch": 74,
      "t_note_us": 138826688,
      "t_trigger_us": 138690725,
      "is_ai": false,
      "track_id": 0,
      "velocity": 0,
      "is_motor": true,
      "motor_id": 2,
      "accel_val": 2000,
      "base_duration_us": 499997
    },
    {
      "id": "M_862",
      "pitch": 91,
      "t_note_us": 139035778,
      "t_trigger_us": 138899815,
      "is_ai": true,
      "track_id": 7,
      "velocity": 0,
      "is_motor": false,
      "motor_id": 0,
      "accel_val": 2000,
      "base_duration_us": 199999
    },
    {
      "id": "M_868",
      "pitch": 91,
      "t_note_us": 139247140,
      "t_trigger_us": 139111177,
      "is_ai": true,
      "track_id": 7,
      "velocity": 0,
      "is_motor": false,
      "motor_id": 0,
      "accel_val": 2000,
      "base_duration_us": 429543
    },
    {
      "id": "M_867",
      "pitch": 67,
      "t_note_us": 139247140,
      "t_trigger_us": 139111177,
      "is_ai": false,
      "track_id": 0,
      "velocity": 0,
      "is_motor": true,
      "motor_id": 1,
      "accel_val": 2000,
      "base_duration_us": 418180
    },
    {
      "id": "M_870",
      "pitch": 74,
      "t_note_us": 139247140,
      "t_trigger_us": 139111177,
      "is_ai": false,
      "track_id": 0,
      "velocity": 0,
      "is_motor": true,
      "motor_id": 0,
      "accel_val": 2000,
      "base_duration_us": 765904
    },
    {
      "id": "M_873",
      "pitch": 91,
      "t_note_us": 139676683,
      "t_trigger_us": 139540720,
      "is_ai": true,
      "track_id": 7,
      "velocity": 0,
      "is_motor": false,
      "motor_id": 0,
      "accel_val": 2000,
      "base_duration_us": 393178
    },
    {
      "id": "M_875",
      "pitch": 70,
      "t_note_us": 139676683,
      "t_trigger_us": 139540720,
      "is_ai": true,
      "track_id": 0,
      "velocity": 0,
      "is_motor": true,
      "motor_id": 1,
      "accel_val": 2000,
      "base_duration_us": 429540
    },
    {
      "id": "M_869",
      "pitch": 89,
      "t_note_us": 139688046,
      "t_trigger_us": 139552083,
      "is_ai": true,
      "track_id": 6,
      "velocity": 0,
      "is_motor": false,
      "motor_id": 0,
      "accel_val": 2000,
      "base_duration_us": 290908
    },
    {
      "id": "M_871",
      "pitch": 67,
      "t_note_us": 139688046,
      "t_trigger_us": 139552083,
      "is_ai": false,
      "track_id": 0,
      "velocity": 0,
      "is_motor": true,
      "motor_id": 2,
      "accel_val": 2000,
      "base_duration_us": 324998
    },
    {
      "id": "M_872",
      "pitch": 70,
      "t_note_us": 139688046,
      "t_trigger_us": 139552083,
      "is_ai": false,
      "track_id": 0,
      "velocity": 0,
      "is_motor": true,
      "motor_id": 0,
      "accel_val": 2000,
      "base_duration_us": 359088
    },
    {
      "id": "M_874",
      "pitch": 67,
      "t_note_us": 139699409,
      "t_trigger_us": 139563446,
      "is_ai": false,
      "track_id": 0,
      "velocity": 0,
      "is_motor": true,
      "motor_id": 3,
      "accel_val": 2000,
      "base_duration_us": 395451
    },
    {
      "id": "M_879",
      "pitch": 96,
      "t_note_us": 140106223,
      "t_trigger_us": 139970260,
      "is_ai": true,
      "track_id": 10,
      "velocity": 0,
      "is_motor": false,
      "motor_id": 0,
      "accel_val": 2000,
      "base_duration_us": 1209088
    },
    {
      "id": "M_877",
      "pitch": 76,
      "t_note_us": 140106223,
      "t_trigger_us": 139970260,
      "is_ai": false,
      "track_id": 0,
      "velocity": 0,
      "is_motor": true,
      "motor_id": 2,
      "accel_val": 2000,
      "base_duration_us": 788634
    },
    {
      "id": "M_878",
      "pitch": 76,
      "t_note_us": 140106223,
      "t_trigger_us": 139970260,
      "is_ai": false,
      "track_id": 0,
      "velocity": 0,
      "is_motor": true,
      "motor_id": 1,
      "accel_val": 2000,
      "base_duration_us": 859088
    },
    {
      "id": "M_888",
      "pitch": 64,
      "t_note_us": 140106223,
      "t_trigger_us": 139970260,
      "is_ai": false,
      "track_id": 0,
      "velocity": 0,
      "is_motor": true,
      "motor_id": 0,
      "accel_val": 2000,
      "base_duration_us": 2472718
    },
    {
      "id": "M_876",
      "pitch": 72,
      "t_note_us": 140383495,
      "t_trigger_us": 140247532,
      "is_ai": false,
      "track_id": 0,
      "velocity": 0,
      "is_motor": true,
      "motor_id": 3,
      "accel_val": 2000,
      "base_duration_us": 140909
    },
    {
      "id": "M_880",
      "pitch": 72,
      "t_note_us": 140535767,
      "t_trigger_us": 140399804,
      "is_ai": false,
      "track_id": 0,
      "velocity": 0,
      "is_motor": true,
      "motor_id": 3,
      "accel_val": 2000,
      "base_duration_us": 859089
    },
    {
      "id": "M_881",
      "pitch": 76,
      "t_note_us": 140965311,
      "t_trigger_us": 140829348,
      "is_ai": false,
      "track_id": 0,
      "velocity": 0,
      "is_motor": true,
      "motor_id": 2,
      "accel_val": 2000,
      "base_duration_us": 429545
    },
    {
      "id": "M_882",
      "pitch": 67,
      "t_note_us": 141394856,
      "t_trigger_us": 141258893,
      "is_ai": false,
      "track_id": 0,
      "velocity": 0,
      "is_motor": true,
      "motor_id": 1,
      "accel_val": 2000,
      "base_duration_us": 209090
    },
    {
      "id": "M_885",
      "pitch": 72,
      "t_note_us": 141394856,
      "t_trigger_us": 141258893,
      "is_ai": false,
      "track_id": 0,
      "velocity": 0,
      "is_motor": true,
      "motor_id": 2,
      "accel_val": 2000,
      "base_duration_us": 859087
    },
    {
      "id": "M_887",
      "pitch": 76,
      "t_note_us": 141394856,
      "t_trigger_us": 141258893,
      "is_ai": false,
      "track_id": 0,
      "velocity": 0,
      "is_motor": true,
      "motor_id": 3,
      "accel_val": 2000,
      "base_duration_us": 999995
    },
    {
      "id": "M_883",
      "pitch": 98,
      "t_note_us": 141592583,
      "t_trigger_us": 141456620,
      "is_ai": true,
      "track_id": 11,
      "velocity": 0,
      "is_motor": false,
      "motor_id": 0,
      "accel_val": 2000,
      "base_duration_us": 604543
    },
    {
      "id": "M_889",
      "pitch": 67,
      "t_note_us": 141603946,
      "t_trigger_us": 141467983,
      "is_ai": false,
      "track_id": 0,
      "velocity": 0,
      "is_motor": true,
      "motor_id": 1,
      "accel_val": 2000,
      "base_duration_us": 986358
    },
    {
      "id": "M_884",
      "pitch": 96,
      "t_note_us": 141708491,
      "t_trigger_us": 141572528,
      "is_ai": true,
      "track_id": 10,
      "velocity": 0,
      "is_motor": false,
      "motor_id": 0,
      "accel_val": 2000,
      "base_duration_us": 522725
    },
    {
      "id": "M_886",
      "pitch": 91,
      "t_note_us": 141813036,
      "t_trigger_us": 141677073,
      "is_ai": true,
      "track_id": 7,
      "velocity": 0,
      "is_motor": false,
      "motor_id": 0,
      "accel_val": 2000,
      "base_duration_us": 511361
    },
    {
      "id": "M_890",
      "pitch": 70,
      "t_note_us": 141813036,
      "t_trigger_us": 141677073,
      "is_ai": true,
      "track_id": 0,
      "velocity": 0,
      "is_motor": true,
      "motor_id": 0,
      "accel_val": 2000,
      "base_duration_us": 847722
    },
    {
      "id": "M_891",
      "pitch": 72,
      "t_note_us": 142253943,
      "t_trigger_us": 142117980,
      "is_ai": false,
      "track_id": 0,
      "velocity": 0,
      "is_motor": true,
      "motor_id": 2,
      "accel_val": 2000,
      "base_duration_us": 429541
    },
    {
      "id": "M_894",
      "pitch": 96,
      "t_note_us": 142672121,
      "t_trigger_us": 142536158,
      "is_ai": true,
      "track_id": 10,
      "velocity": 0,
      "is_motor": false,
      "motor_id": 0,
      "accel_val": 2000,
      "base_duration_us": 827269
    },
    {
      "id": "M_896",
      "pitch": 72,
      "t_note_us": 142683484,
      "t_trigger_us": 142547521,
      "is_ai": false,
      "track_id": 0,
      "velocity": 0,
      "is_motor": true,
      "motor_id": 1,
      "accel_val": 2000,
      "base_duration_us": 1152268
    },
    {
      "id": "M_893",
      "pitch": 76,
      "t_note_us": 142694847,
      "t_trigger_us": 142558884,
      "is_ai": false,
      "track_id": 0,
      "velocity": 0,
      "is_motor": true,
      "motor_id": 2,
      "accel_val": 2000,
      "base_duration_us": 409089
    },
    {
      "id": "M_892",
      "pitch": 64,
      "t_note_us": 142742574,
      "t_trigger_us": 142606611,
      "is_ai": false,
      "track_id": 0,
      "velocity": 0,
      "is_motor": true,
      "motor_id": 0,
      "accel_val": 2000,
      "base_duration_us": 338636
    },
    {
      "id": "M_897",
      "pitch": 64,
      "t_note_us": 143092573,
      "t_trigger_us": 142956610,
      "is_ai": false,
      "track_id": 0,
      "velocity": 0,
      "is_motor": true,
      "motor_id": 0,
      "accel_val": 2000,
      "base_duration_us": 765906
    },
    {
      "id": "M_895",
      "pitch": 76,
      "t_note_us": 143103936,
      "t_trigger_us": 142967973,
      "is_ai": false,
      "track_id": 0,
      "velocity": 0,
      "is_motor": true,
      "motor_id": 2,
      "accel_val": 2000,
      "base_duration_us": 429544
    },
    {
      "id": "M_898",
      "pitch": 75,
      "t_note_us": 143533480,
      "t_trigger_us": 143397517,
      "is_ai": false,
      "track_id": 0,
      "velocity": 0,
      "is_motor": true,
      "motor_id": 2,
      "accel_val": 2000,
      "base_duration_us": 395453
    },
    {
      "id": "M_899",
      "pitch": 70,
      "t_note_us": 143799389,
      "t_trigger_us": 143663426,
      "is_ai": false,
      "track_id": 0,
      "velocity": 0,
      "is_motor": true,
      "motor_id": 3,
      "accel_val": 2000,
      "base_duration_us": 140907
    },
    {
      "id": "M_901",
      "pitch": 63,
      "t_note_us": 143858479,
      "t_trigger_us": 143722516,
      "is_ai": false,
      "track_id": 0,
      "velocity": 0,
      "is_motor": true,
      "motor_id": 1,
      "accel_val": 2000,
      "base_duration_us": 452270
    },
    {
      "id": "M_900",
      "pitch": 89,
      "t_note_us": 143951659,
      "t_trigger_us": 143815696,
      "is_ai": true,
      "track_id": 6,
      "velocity": 0,
      "is_motor": false,
      "motor_id": 0,
      "accel_val": 2000,
      "base_duration_us": 336363
    },
    {
      "id": "M_902",
      "pitch": 75,
      "t_note_us": 143951659,
      "t_trigger_us": 143815696,
      "is_ai": false,
      "track_id": 0,
      "velocity": 0,
      "is_motor": true,
      "motor_id": 2,
      "accel_val": 2000,
      "base_duration_us": 393180
    },
    {
      "id": "M_914",
      "pitch": 70,
      "t_note_us": 143951659,
      "t_trigger_us": 143815696,
      "is_ai": false,
      "track_id": 0,
      "velocity": 0,
      "is_motor": true,
      "motor_id": 0,
      "accel_val": 2000,
      "base_duration_us": 1718170
    },
    {
      "id": "M_911",
      "pitch": 75,
      "t_note_us": 144369838,
      "t_trigger_us": 144233875,
      "is_ai": false,
      "track_id": 0,
      "velocity": 0,
      "is_motor": true,
      "motor_id": 2,
      "accel_val": 2000,
      "base_duration_us": 1206811
    },
    {
      "id": "M_905",
      "pitch": 70,
      "t_note_us": 144392565,
      "t_trigger_us": 144256602,
      "is_ai": true,
      "track_id": 0,
      "velocity": 0,
      "is_motor": true,
      "motor_id": 1,
      "accel_val": 2000,
      "base_duration_us": 440906
    },
    {
      "id": "M_904",
      "pitch": 78,
      "t_note_us": 144403928,
      "t_trigger_us": 144267965,
      "is_ai": false,
      "track_id": 0,
      "velocity": 0,
      "is_motor": true,
      "motor_id": 3,
      "accel_val": 2000,
      "base_duration_us": 429543
    },
    {
      "id": "M_903",
      "pitch": 63,
      "t_note_us": 144519837,
      "t_trigger_us": 144383874,
      "is_ai": false,
      "track_id": 0,
      "velocity": 0,
      "is_motor": true,
      "motor_id": 0,
      "accel_val": 2000,
      "base_duration_us": 243181
    },
    {
      "id": "M_913",
      "pitch": 96,
      "t_note_us": 144822108,
      "t_trigger_us": 144686145,
      "is_ai": true,
      "track_id": 10,
      "velocity": 0,
      "is_motor": false,
      "motor_id": 0,
      "accel_val": 2000,
      "base_duration_us": 779540
    },
    {
      "id": "M_906",
      "pitch": 77,
      "t_note_us": 144822108,
      "t_trigger_us": 144686145,
      "is_ai": false,
      "track_id": 0,
      "velocity": 0,
      "is_motor": true,
      "motor_id": 0,
      "accel_val": 2000,
      "base_duration_us": 172726
    },
    {
      "id": "M_907",
      "pitch": 70,
      "t_note_us": 144833471,
      "t_trigger_us": 144697508,
      "is_ai": true,
      "track_id": 0,
      "velocity": 0,
      "is_motor": true,
      "motor_id": 1,
      "accel_val": 2000,
      "base_duration_us": 234090
    },
    {
      "id": "M_909",
      "pitch": 78,
      "t_note_us": 144833471,
      "t_trigger_us": 144697508,
      "is_ai": false,
      "track_id": 0,
      "velocity": 0,
      "is_motor": true,
      "motor_id": 3,
      "accel_val": 2000,
      "base_duration_us": 697725
    },
    {
      "id": "M_910",
      "pitch": 63,
      "t_note_us": 144994834,
      "t_trigger_us": 144858871,
      "is_ai": false,
      "track_id": 0,
      "velocity": 0,
      "is_motor": true,
      "motor_id": 0,
      "accel_val": 2000,
      "base_duration_us": 547725
    },
    {
      "id": "M_908",
      "pitch": 70,
      "t_note_us": 145240288,
      "t_trigger_us": 145104325,
      "is_ai": true,
      "track_id": 0,
      "velocity": 0,
      "is_motor": true,
      "motor_id": 1,
      "accel_val": 2000,
      "base_duration_us": 209090
    },
    {
      "id": "M_915",
      "pitch": 98,
      "t_note_us": 145240288,
      "t_trigger_us": 145104325,
      "is_ai": true,
      "track_id": 11,
      "velocity": 0,
      "is_motor": false,
      "motor_id": 0,
      "accel_val": 2000,
      "base_duration_us": 429541
    },
    {
      "id": "M_912",
      "pitch": 78,
      "t_note_us": 145392560,
      "t_trigger_us": 145256597,
      "is_ai": false,
      "track_id": 0,
      "velocity": 0,
      "is_motor": true,
      "motor_id": 0,
      "accel_val": 2000,
      "base_duration_us": 184089
    },
    {
      "id": "M_917",
      "pitch": 98,
      "t_note_us": 145669829,
      "t_trigger_us": 145533866,
      "is_ai": true,
      "track_id": 11,
      "velocity": 0,
      "is_motor": false,
      "motor_id": 0,
      "accel_val": 2000,
      "base_duration_us": 349998
    },
    {
      "id": "M_918",
      "pitch": 101,
      "t_note_us": 145669829,
      "t_trigger_us": 145533866,
      "is_ai": true,
      "track_id": 13,
      "velocity": 0,
      "is_motor": false,
      "motor_id": 0,
      "accel_val": 2000,
      "base_duration_us": 440906
    },
    {
      "id": "M_919",
      "pitch": 70,
      "t_note_us": 145669829,
      "t_trigger_us": 145533866,
      "is_ai": false,
      "track_id": 0,
      "velocity": 0,
      "is_motor": true,
      "motor_id": 1,
      "accel_val": 2000,
      "base_duration_us": 454542
    },
    {
      "id": "M_916",
      "pitch": 63,
      "t_note_us": 145799374,
      "t_trigger_us": 145663411,
      "is_ai": false,
      "track_id": 0,
      "velocity": 0,
      "is_motor": true,
      "motor_id": 0,
      "accel_val": 2000,
      "base_duration_us": 161363
    },
    {
      "id": "M_921",
      "pitch": 96,
      "t_note_us": 146099372,
      "t_trigger_us": 145963409,
      "is_ai": true,
      "track_id": 10,
      "velocity": 0,
      "is_motor": false,
      "motor_id": 0,
      "accel_val": 2000,
      "base_duration_us": 429543
    },
    {
      "id": "M_920",
      "pitch": 89,
      "t_note_us": 146110735,
      "t_trigger_us": 145974772,
      "is_ai": true,
      "track_id": 6,
      "velocity": 0,
      "is_motor": false,
      "motor_id": 0,
      "accel_val": 2000,
      "base_duration_us": 140908
    },
    {
      "id": "M_922",
      "pitch": 75,
      "t_note_us": 146124371,
      "t_trigger_us": 145988408,
      "is_ai": false,
      "track_id": 0,
      "velocity": 0,
      "is_motor": true,
      "motor_id": 2,
      "accel_val": 2000,
      "base_duration_us": 556816
    },
    {
      "id": "M_926",
      "pitch": 70,
      "t_note_us": 146124371,
      "t_trigger_us": 145988408,
      "is_ai": false,
      "track_id": 0,
      "velocity": 0,
      "is_motor": true,
      "motor_id": 1,
      "accel_val": 2000,
      "base_duration_us": 845450
    },
    {
      "id": "M_923",
      "pitch": 63,
      "t_note_us": 146169825,
      "t_trigger_us": 146033862,
      "is_ai": false,
      "track_id": 0,
      "velocity": 0,
      "is_motor": true,
      "motor_id": 0,
      "accel_val": 2000,
      "base_duration_us": 720452
    },
    {
      "id": "M_925",
      "pitch": 98,
      "t_note_us": 146528915,
      "t_trigger_us": 146392952,
      "is_ai": true,
      "track_id": 11,
      "velocity": 0,
      "is_motor": false,
      "motor_id": 0,
      "accel_val": 2000,
      "base_duration_us": 429543
    },
    {
      "id": "M_924",
      "pitch": 96,
      "t_note_us": 146763005,
      "t_trigger_us": 146627042,
      "is_ai": true,
      "track_id": 10,
      "velocity": 0,
      "is_motor": false,
      "motor_id": 0,
      "accel_val": 2000,
      "base_duration_us": 184090
    },
    {
      "id": "M_929",
      "pitch": 96,
      "t_note_us": 146958458,
      "t_trigger_us": 146822495,
      "is_ai": true,
      "track_id": 10,
      "velocity": 0,
      "is_motor": false,
      "motor_id": 0,
      "accel_val": 2000,
      "base_duration_us": 420452
    },
    {
      "id": "M_927",
      "pitch": 74,
      "t_note_us": 146958458,
      "t_trigger_us": 146822495,
      "is_ai": false,
      "track_id": 0,
      "velocity": 0,
      "is_motor": true,
      "motor_id": 0,
      "accel_val": 2000,
      "base_duration_us": 338635
    },
    {
      "id": "M_928",
      "pitch": 77,
      "t_note_us": 146969821,
      "t_trigger_us": 146833858,
      "is_ai": false,
      "track_id": 0,
      "velocity": 0,
      "is_motor": true,
      "motor_id": 2,
      "accel_val": 2000,
      "base_duration_us": 409089
    },
    {
      "id": "M_930",
      "pitch": 70,
      "t_note_us": 146969821,
      "t_trigger_us": 146833858,
      "is_ai": false,
      "track_id": 0,
      "velocity": 0,
      "is_motor": true,
      "motor_id": 1,
      "accel_val": 2000,
      "base_duration_us": 1163634
    },
    {
      "id": "M_934",
      "pitch": 65,
      "t_note_us": 147367547,
      "t_trigger_us": 147231584,
      "is_ai": false,
      "track_id": 0,
      "velocity": 0,
      "is_motor": true,
      "motor_id": 0,
      "accel_val": 2000,
      "base_duration_us": 1624996
    },
    {
      "id": "M_931",
      "pitch": 70,
      "t_note_us": 147378910,
      "t_trigger_us": 147242947,
      "is_ai": true,
      "track_id": 0,
      "velocity": 0,
      "is_motor": true,
      "motor_id": 2,
      "accel_val": 2000,
      "base_duration_us": 799999
    },
    {
      "id": "M_932",
      "pitch": 77,
      "t_note_us": 147378910,
      "t_trigger_us": 147242947,
      "is_ai": false,
      "track_id": 0,
      "velocity": 0,
      "is_motor": true,
      "motor_id": 3,
      "accel_val": 2000,
      "base_duration_us": 870453
    },
    {
      "id": "M_935",
      "pitch": 72,
      "t_note_us": 147819819,
      "t_trigger_us": 147683856,
      "is_ai": false,
      "track_id": 0,
      "velocity": 0,
      "is_motor": true,
      "motor_id": 0,
      "accel_val": 2000,
      "base_duration_us": 1277269
    },
    {
      "id": "M_937",
      "pitch": 77,
      "t_note_us": 148249363,
      "t_trigger_us": 148113400,
      "is_ai": false,
      "track_id": 0,
      "velocity": 0,
      "is_motor": true,
      "motor_id": 2,
      "accel_val": 2000,
      "base_duration_us": 1313631
    },
    {
      "id": "M_933",
      "pitch": 70,
      "t_note_us": 148308453,
      "t_trigger_us": 148172490,
      "is_ai": false,
      "track_id": 0,
      "velocity": 0,
      "is_motor": true,
      "motor_id": 1,
      "accel_val": 2000,
      "base_duration_us": 556818
    },
    {
      "id": "M_939",
      "pitch": 72,
      "t_note_us": 149097088,
      "t_trigger_us": 148961125,
      "is_ai": false,
      "track_id": 0,
      "velocity": 0,
      "is_motor": true,
      "motor_id": 1,
      "accel_val": 2000,
      "base_duration_us": 1336359
    },
    {
      "id": "M_936",
      "pitch": 65,
      "t_note_us": 149156178,
      "t_trigger_us": 149020215,
      "is_ai": false,
      "track_id": 0,
      "velocity": 0,
      "is_motor": true,
      "motor_id": 0,
      "accel_val": 2000,
      "base_duration_us": 384090
    },
    {
      "id": "M_940",
      "pitch": 65,
      "t_note_us": 149551631,
      "t_trigger_us": 149415668,
      "is_ai": false,
      "track_id": 0,
      "velocity": 0,
      "is_motor": true,
      "motor_id": 0,
      "accel_val": 2000,
      "base_duration_us": 927270
    },
    {
      "id": "M_938",
      "pitch": 77,
      "t_note_us": 149562994,
      "t_trigger_us": 149427031,
      "is_ai": false,
      "track_id": 0,
      "velocity": 0,
      "is_motor": true,
      "motor_id": 2,
      "accel_val": 2000,
      "base_duration_us": 302272
    },
    {
      "id": "M_941",
      "pitch": 77,
      "t_note_us": 150108447,
      "t_trigger_us": 149972484,
      "is_ai": false,
      "track_id": 0,
      "velocity": 0,
      "is_motor": true,
      "motor_id": 2,
      "accel_val": 2000,
      "base_duration_us": 429544
    },
    {
      "id": "M_943",
      "pitch": 98,
      "t_note_us": 150478901,
      "t_trigger_us": 150342938,
      "is_ai": true,
      "track_id": 11,
      "velocity": 0,
      "is_motor": false,
      "motor_id": 0,
      "accel_val": 2000,
      "base_duration_us": 861361
    },
    {
      "id": "M_948",
      "pitch": 70,
      "t_note_us": 150490264,
      "t_trigger_us": 150354301,
      "is_ai": false,
      "track_id": 0,
      "velocity": 0,
      "is_motor": true,
      "motor_id": 1,
      "accel_val": 2000,
      "base_duration_us": 1709086
    },
    {
      "id": "M_942",
      "pitch": 65,
      "t_note_us": 150608445,
      "t_trigger_us": 150472482,
      "is_ai": false,
      "track_id": 0,
      "velocity": 0,
      "is_motor": true,
      "motor_id": 0,
      "accel_val": 2000,
      "base_duration_us": 161363
    },
    {
      "id": "M_946",
      "pitch": 77,
      "t_note_us": 150919808,
      "t_trigger_us": 150783845,
      "is_ai": false,
      "track_id": 0,
      "velocity": 0,
      "is_motor": true,
      "motor_id": 2,
      "accel_val": 2000,
      "base_duration_us": 849997
    },
    {
      "id": "M_944",
      "pitch": 98,
      "t_note_us": 151340262,
      "t_trigger_us": 151204299,
      "is_ai": true,
      "track_id": 11,
      "velocity": 0,
      "is_motor": false,
      "motor_id": 0,
      "accel_val": 2000,
      "base_duration_us": 161362
    },
    {
      "id": "M_949",
      "pitch": 74,
      "t_note_us": 151351625,
      "t_trigger_us": 151215662,
      "is_ai": false,
      "track_id": 0,
      "velocity": 0,
      "is_motor": true,
      "motor_id": 0,
      "accel_val": 2000,
      "base_duration_us": 859088
    },
    {
      "id": "M_945",
      "pitch": 70,
      "t_note_us": 151374352,
      "t_trigger_us": 151238389,
      "is_ai": false,
      "track_id": 0,
      "velocity": 0,
      "is_motor": true,
      "motor_id": 3,
      "accel_val": 2000,
      "base_duration_us": 209090
    },
    {
      "id": "M_947",
      "pitch": 96,
      "t_note_us": 151769805,
      "t_trigger_us": 151633842,
      "is_ai": true,
      "track_id": 10,
      "velocity": 0,
      "is_motor": false,
      "motor_id": 0,
      "accel_val": 2000,
      "base_duration_us": 406818
    },
    {
      "id": "M_951",
      "pitch": 77,
      "t_note_us": 151769805,
      "t_trigger_us": 151633842,
      "is_ai": false,
      "track_id": 0,
      "velocity": 0,
      "is_motor": true,
      "motor_id": 2,
      "accel_val": 2000,
      "base_duration_us": 870452
    },
    {
      "id": "M_952",
      "pitch": 98,
      "t_note_us": 152199350,
      "t_trigger_us": 152063387,
      "is_ai": true,
      "track_id": 11,
      "velocity": 0,
      "is_motor": false,
      "motor_id": 0,
      "accel_val": 2000,
      "base_duration_us": 452270
    },
    {
      "id": "M_950",
      "pitch": 86,
      "t_note_us": 152210713,
      "t_trigger_us": 152074750,
      "is_ai": true,
      "track_id": 4,
      "velocity": 0,
      "is_motor": false,
      "motor_id": 0,
      "accel_val": 2000,
      "base_duration_us": 384090
    },
    {
      "id": "M_953",
      "pitch": 69,
      "t_note_us": 152303894,
      "t_trigger_us": 152167931,
      "is_ai": false,
      "track_id": 0,
      "velocity": 0,
      "is_motor": true,
      "motor_id": 1,
      "accel_val": 2000,
      "base_duration_us": 1197725
    },
    {
      "id": "M_957",
      "pitch": 77,
      "t_note_us": 152640257,
      "t_trigger_us": 152504294,
      "is_ai": false,
      "track_id": 0,
      "velocity": 0,
      "is_motor": true,
      "motor_id": 2,
      "accel_val": 2000,
      "base_duration_us": 1279543
    },
    {
      "id": "M_955",
      "pitch": 98,
      "t_note_us": 152651620,
      "t_trigger_us": 152515657,
      "is_ai": true,
      "track_id": 11,
      "velocity": 0,
      "is_motor": false,
      "motor_id": 0,
      "accel_val": 2000,
      "base_duration_us": 929544
    },
    {
      "id": "M_956",
      "pitch": 72,
      "t_note_us": 153060710,
      "t_trigger_us": 152924747,
      "is_ai": false,
      "track_id": 0,
      "velocity": 0,
      "is_motor": true,
      "motor_id": 0,
      "accel_val": 2000,
      "base_duration_us": 845454
    },
    {
      "id": "M_954",
      "pitch": 96,
      "t_note_us": 153360710,
      "t_trigger_us": 153224747,
      "is_ai": true,
      "track_id": 10,
      "velocity": 0,
      "is_motor": false,
      "motor_id": 0,
      "accel_val": 2000,
      "base_duration_us": 140909
    },
    {
      "id": "M_958",
      "pitch": 69,
      "t_note_us": 153501619,
      "t_trigger_us": 153365656,
      "is_ai": false,
      "track_id": 0,
      "velocity": 0,
      "is_motor": true,
      "motor_id": 1,
      "accel_val": 2000,
      "base_duration_us": 765907
    },
    {
      "id": "M_960",
      "pitch": 98,
      "t_note_us": 153919800,
      "t_trigger_us": 153783837,
      "is_ai": true,
      "track_id": 11,
      "velocity": 0,
      "is_motor": false,
      "motor_id": 0,
      "accel_val": 2000,
      "base_duration_us": 429543
    },
    {
      "id": "M_959",
      "pitch": 67,
      "t_note_us": 153919800,
      "t_trigger_us": 153783837,
      "is_ai": false,
      "track_id": 0,
      "velocity": 0,
      "is_motor": true,
      "motor_id": 2,
      "accel_val": 2000,
      "base_duration_us": 381816
    },
    {
      "id": "M_961",
      "pitch": 67,
      "t_note_us": 153965254,
      "t_trigger_us": 153829291,
      "is_ai": false,
      "track_id": 0,
      "velocity": 0,
      "is_motor": true,
      "motor_id": 0,
      "accel_val": 2000,
      "base_duration_us": 395452
    },
    {
      "id": "M_963",
      "pitch": 101,
      "t_note_us": 154349343,
      "t_trigger_us": 154213380,
      "is_ai": true,
      "track_id": 13,
      "velocity": 0,
      "is_motor": false,
      "motor_id": 0,
      "accel_val": 2000,
      "base_duration_us": 440907
    },
    {
      "id": "M_962",
      "pitch": 86,
      "t_note_us": 154360706,
      "t_trigger_us": 154224743,
      "is_ai": true,
      "track_id": 4,
      "velocity": 0,
      "is_motor": false,
      "motor_id": 0,
      "accel_val": 2000,
      "base_duration_us": 347727
    },
    {
      "id": "M_964",
      "pitch": 67,
      "t_note_us": 154360706,
      "t_trigger_us": 154224743,
      "is_ai": false,
      "track_id": 0,
      "velocity": 0,
      "is_motor": true,
      "motor_id": 1,
      "accel_val": 2000,
      "base_duration_us": 674998
    },
    {
      "id": "M_967",
      "pitch": 74,
      "t_note_us": 154360706,
      "t_trigger_us": 154224743,
      "is_ai": false,
      "track_id": 0,
      "velocity": 0,
      "is_motor": true,
      "motor_id": 0,
      "accel_val": 2000,
      "base_duration_us": 1393176
    },
    {
      "id": "M_965",
      "pitch": 98,
      "t_note_us": 154778887,
      "t_trigger_us": 154642924,
      "is_ai": true,
      "track_id": 11,
      "velocity": 0,
      "is_motor": false,
      "motor_id": 0,
      "accel_val": 2000,
      "base_duration_us": 418180
    },
    {
      "id": "M_968",
      "pitch": 70,
      "t_note_us": 154778887,
      "t_trigger_us": 154642924,
      "is_ai": false,
      "track_id": 0,
      "velocity": 0,
      "is_motor": true,
      "motor_id": 2,
      "accel_val": 2000,
      "base_duration_us": 1034085
    },
    {
      "id": "M_966",
      "pitch": 96,
      "t_note_us": 155197067,
      "t_trigger_us": 155061104,
      "is_ai": true,
      "track_id": 10,
      "velocity": 0,
      "is_motor": false,
      "motor_id": 0,
      "accel_val": 2000,
      "base_duration_us": 418181
    },
    {
      "id": "M_969",
      "pitch": 70,
      "t_note_us": 155615248,
      "t_trigger_us": 155479285,
      "is_ai": false,
      "track_id": 0,
      "velocity": 0,
      "is_motor": true,
      "motor_id": 1,
      "accel_val": 2000,
      "base_duration_us": 265905
    },
    {
      "id": "M_971",
      "pitch": 98,
      "t_note_us": 155626611,
      "t_trigger_us": 155490648,
      "is_ai": true,
      "track_id": 11,
      "velocity": 0,
      "is_motor": false,
      "motor_id": 0,
      "accel_val": 2000,
      "base_duration_us": 463632
    },
    {
      "id": "M_970",
      "pitch": 77,
      "t_note_us": 155637974,
      "t_trigger_us": 155502011,
      "is_ai": false,
      "track_id": 0,
      "velocity": 0,
      "is_motor": true,
      "motor_id": 3,
      "accel_val": 2000,
      "base_duration_us": 243179
    },
    {
      "id": "M_973",
      "pitch": 65,
      "t_note_us": 155649337,
      "t_trigger_us": 155513374,
      "is_ai": false,
      "track_id": 0,
      "velocity": 0,
      "is_motor": true,
      "motor_id": 0,
      "accel_val": 2000,
      "base_duration_us": 836359
    },
    {
      "id": "M_972",
      "pitch": 86,
      "t_note_us": 156067516,
      "t_trigger_us": 155931553,
      "is_ai": true,
      "track_id": 4,
      "velocity": 0,
      "is_motor": false,
      "motor_id": 0,
      "accel_val": 2000,
      "base_duration_us": 361362
    },
    {
      "id": "M_977",
      "pitch": 74,
      "t_note_us": 156067516,
      "t_trigger_us": 155931553,
      "is_ai": false,
      "track_id": 0,
      "velocity": 0,
      "is_motor": true,
      "motor_id": 1,
      "accel_val": 2000,
      "base_duration_us": 1243177
    },
    {
      "id": "M_974",
      "pitch": 77,
      "t_note_us": 156242515,
      "t_trigger_us": 156106552,
      "is_ai": false,
      "track_id": 0,
      "velocity": 0,
      "is_motor": true,
      "motor_id": 2,
      "accel_val": 2000,
      "base_duration_us": 243181
    },
    {
      "id": "M_976",
      "pitch": 65,
      "t_note_us": 156485696,
      "t_trigger_us": 156349733,
      "is_ai": false,
      "track_id": 0,
      "velocity": 0,
      "is_motor": true,
      "motor_id": 0,
      "accel_val": 2000,
      "base_duration_us": 768179
    },
    {
      "id": "M_975",
      "pitch": 77,
      "t_note_us": 156497059,
      "t_trigger_us": 156361096,
      "is_ai": false,
      "track_id": 0,
      "velocity": 0,
      "is_motor": true,
      "motor_id": 2,
      "accel_val": 2000,
      "base_duration_us": 429544
    },
    {
      "id": "M_978",
      "pitch": 70,
      "t_note_us": 156915240,
      "t_trigger_us": 156779277,
      "is_ai": false,
      "track_id": 0,
      "velocity": 0,
      "is_motor": true,
      "motor_id": 3,
      "accel_val": 2000,
      "base_duration_us": 431816
    },
    {
      "id": "M_980",
      "pitch": 77,
      "t_note_us": 156926603,
      "t_trigger_us": 156790640,
      "is_ai": false,
      "track_id": 0,
      "velocity": 0,
      "is_motor": true,
      "motor_id": 2,
      "accel_val": 2000,
      "base_duration_us": 629542
    },
    {
      "id": "M_984",
      "pitch": 70,
      "t_note_us": 157347056,
      "t_trigger_us": 157211093,
      "is_ai": true,
      "track_id": 0,
      "velocity": 0,
      "is_motor": true,
      "motor_id": 1,
      "accel_val": 2000,
      "base_duration_us": 859088
    },
    {
      "id": "M_979",
      "pitch": 70,
      "t_note_us": 157347056,
      "t_trigger_us": 157211093,
      "is_ai": false,
      "track_id": 0,
      "velocity": 0,
      "is_motor": true,
      "motor_id": 0,
      "accel_val": 2000,
      "base_duration_us": 172726
    },
    {
      "id": "M_983",
      "pitch": 75,
      "t_note_us": 157347056,
      "t_trigger_us": 157211093,
      "is_ai": false,
      "track_id": 0,
      "velocity": 0,
      "is_motor": true,
      "motor_id": 3,
      "accel_val": 2000,
      "base_duration_us": 859088
    },
    {
      "id": "M_986",
      "pitch": 63,
      "t_note_us": 157392510,
      "t_trigger_us": 157256547,
      "is_ai": false,
      "track_id": 0,
      "velocity": 0,
      "is_motor": true,
      "motor_id": 0,
      "accel_val": 2000,
      "base_duration_us": 1545451
    },
    {
      "id": "M_981",
      "pitch": 70,
      "t_note_us": 157601599,
      "t_trigger_us": 157465636,
      "is_ai": false,
      "track_id": 0,
      "velocity": 0,
      "is_motor": true,
      "motor_id": 2,
      "accel_val": 2000,
      "base_duration_us": 150000
    },
    {
      "id": "M_982",
      "pitch": 70,
      "t_note_us": 157765235,
      "t_trigger_us": 157629272,
      "is_ai": false,
      "track_id": 0,
      "velocity": 0,
      "is_motor": true,
      "motor_id": 2,
      "accel_val": 2000,
      "base_duration_us": 440909
    },
    {
      "id": "M_985",
      "pitch": 70,
      "t_note_us": 158206144,
      "t_trigger_us": 158070181,
      "is_ai": true,
      "track_id": 0,
      "velocity": 0,
      "is_motor": true,
      "motor_id": 1,
      "accel_val": 2000,
      "base_duration_us": 440908
    },
    {
      "id": "M_987",
      "pitch": 75,
      "t_note_us": 158206144,
      "t_trigger_us": 158070181,
      "is_ai": false,
      "track_id": 0,
      "velocity": 0,
      "is_motor": true,
      "motor_id": 2,
      "accel_val": 2000,
      "base_duration_us": 802271
    },
    {
      "id": "M_988",
      "pitch": 67,
      "t_note_us": 158206144,
      "t_trigger_us": 158070181,
      "is_ai": false,
      "track_id": 0,
      "velocity": 0,
      "is_motor": true,
      "motor_id": 0,
      "accel_val": 2000,
      "base_duration_us": 836361
    },
    {
      "id": "M_991",
      "pitch": 70,
      "t_note_us": 158206144,
      "t_trigger_us": 158070181,
      "is_ai": false,
      "track_id": 0,
      "velocity": 0,
      "is_motor": true,
      "motor_id": 3,
      "accel_val": 2000,
      "base_duration_us": 1090904
    },
    {
      "id": "M_989",
      "pitch": 96,
      "t_note_us": 158635689,
      "t_trigger_us": 158499726,
      "is_ai": true,
      "track_id": 10,
      "velocity": 0,
      "is_motor": false,
      "motor_id": 0,
      "accel_val": 2000,
      "base_duration_us": 429542
    },
    {
      "id": "M_992",
      "pitch": 98,
      "t_note_us": 159053868,
      "t_trigger_us": 158917905,
      "is_ai": true,
      "track_id": 11,
      "velocity": 0,
      "is_motor": false,
      "motor_id": 0,
      "accel_val": 2000,
      "base_duration_us": 440906
    },
    {
      "id": "M_990",
      "pitch": 69,
      "t_note_us": 159065231,
      "t_trigger_us": 158929268,
      "is_ai": false,
      "track_id": 0,
      "velocity": 0,
      "is_motor": true,
      "motor_id": 1,
      "accel_val": 2000,
      "base_duration_us": 163636
    },
    {
      "id": "M_993",
      "pitch": 74,
      "t_note_us": 159065231,
      "t_trigger_us": 158929268,
      "is_ai": false,
      "track_id": 0,
      "velocity": 0,
      "is_motor": true,
      "motor_id": 0,
      "accel_val": 2000,
      "base_duration_us": 556815
    },
    {
      "id": "M_996",
      "pitch": 101,
      "t_note_us": 159483411,
      "t_trigger_us": 159347448,
      "is_ai": true,
      "track_id": 13,
      "velocity": 0,
      "is_motor": false,
      "motor_id": 0,
      "accel_val": 2000,
      "base_duration_us": 440905
    },
    {
      "id": "M_1002",
      "pitch": 70,
      "t_note_us": 159483411,
      "t_trigger_us": 159347448,
      "is_ai": false,
      "track_id": 0,
      "velocity": 0,
      "is_motor": true,
      "motor_id": 1,
      "accel_val": 2000,
      "base_duration_us": 1393173
    },
    {
      "id": "M_995",
      "pitch": 98,
      "t_note_us": 159494774,
      "t_trigger_us": 159358811,
      "is_ai": true,
      "track_id": 11,
      "velocity": 0,
      "is_motor": false,
      "motor_id": 0,
      "accel_val": 2000,
      "base_duration_us": 418179
    },
    {
      "id": "M_994",
      "pitch": 62,
      "t_note_us": 159647045,
      "t_trigger_us": 159511082,
      "is_ai": false,
      "track_id": 0,
      "velocity": 0,
      "is_motor": true,
      "motor_id": 0,
      "accel_val": 2000,
      "base_duration_us": 161363
    },
    {
      "id": "M_999",
      "pitch": 98,
      "t_note_us": 159912953,
      "t_trigger_us": 159776990,
      "is_ai": true,
      "track_id": 11,
      "velocity": 0,
      "is_motor": false,
      "motor_id": 0,
      "accel_val": 2000,
      "base_duration_us": 556815
    },
    {
      "id": "M_998",
      "pitch": 74,
      "t_note_us": 159924316,
      "t_trigger_us": 159788353,
      "is_ai": false,
      "track_id": 0,
      "velocity": 0,
      "is_motor": true,
      "motor_id": 0,
      "accel_val": 2000,
      "base_duration_us": 406817
    },
    {
      "id": "M_1001",
      "pitch": 74,
      "t_note_us": 159924316,
      "t_trigger_us": 159788353,
      "is_ai": false,
      "track_id": 0,
      "velocity": 0,
      "is_motor": true,
      "motor_id": 2,
      "accel_val": 2000,
      "base_duration_us": 895450
    },
    {
      "id": "M_997",
      "pitch": 62,
      "t_note_us": 160065225,
      "t_trigger_us": 159929262,
      "is_ai": false,
      "track_id": 0,
      "velocity": 0,
      "is_motor": true,
      "motor_id": 3,
      "accel_val": 2000,
      "base_duration_us": 172727
    },
    {
      "id": "M_1000",
      "pitch": 77,
      "t_note_us": 160342496,
      "t_trigger_us": 160206533,
      "is_ai": false,
      "track_id": 0,
      "velocity": 0,
      "is_motor": true,
      "motor_id": 3,
      "accel_val": 2000,
      "base_duration_us": 440908
    },
    {
      "id": "M_1003",
      "pitch": 89,
      "t_note_us": 160783404,
      "t_trigger_us": 160647441,
      "is_ai": true,
      "track_id": 6,
      "velocity": 0,
      "is_motor": false,
      "motor_id": 0,
      "accel_val": 2000,
      "base_duration_us": 397725
    },
    {
      "id": "M_1005",
      "pitch": 96,
      "t_note_us": 160783404,
      "t_trigger_us": 160647441,
      "is_ai": true,
      "track_id": 10,
      "velocity": 0,
      "is_motor": false,
      "motor_id": 0,
      "accel_val": 2000,
      "base_duration_us": 849997
    },
    {
      "id": "M_1004",
      "pitch": 72,
      "t_note_us": 160794767,
      "t_trigger_us": 160658804,
      "is_ai": false,
      "track_id": 0,
      "velocity": 0,
      "is_motor": true,
      "motor_id": 0,
      "accel_val": 2000,
      "base_duration_us": 838634
    },
    {
      "id": "M_1006",
      "pitch": 67,
      "t_note_us": 161203856,
      "t_trigger_us": 161067893,
      "is_ai": false,
      "track_id": 0,
      "velocity": 0,
      "is_motor": true,
      "motor_id": 1,
      "accel_val": 2000,
      "base_duration_us": 440908
    },
    {
      "id": "M_1007",
      "pitch": 96,
      "t_note_us": 161633401,
      "t_trigger_us": 161497438,
      "is_ai": true,
      "track_id": 10,
      "velocity": 0,
      "is_motor": false,
      "motor_id": 0,
      "accel_val": 2000,
      "base_duration_us": 602271
    },
    {
      "id": "M_1011",
      "pitch": 72,
      "t_note_us": 161633401,
      "t_trigger_us": 161497438,
      "is_ai": false,
      "track_id": 0,
      "velocity": 0,
      "is_motor": true,
      "motor_id": 0,
      "accel_val": 2000,
      "base_duration_us": 870450
    },
    {
      "id": "M_1012",
      "pitch": 70,
      "t_note_us": 161633401,
      "t_trigger_us": 161497438,
      "is_ai": false,
      "track_id": 0,
      "velocity": 0,
      "is_motor": true,
      "motor_id": 2,
      "accel_val": 2000,
      "base_duration_us": 986359
    },
    {
      "id": "M_1008",
      "pitch": 67,
      "t_note_us": 161644764,
      "t_trigger_us": 161508801,
      "is_ai": false,
      "track_id": 0,
      "velocity": 0,
      "is_motor": true,
      "motor_id": 1,
      "accel_val": 2000,
      "base_duration_us": 799998
    },
    {
      "id": "M_1010",
      "pitch": 70,
      "t_note_us": 162051582,
      "t_trigger_us": 161915619,
      "is_ai": true,
      "track_id": 0,
      "velocity": 0,
      "is_motor": true,
      "motor_id": 3,
      "accel_val": 2000,
      "base_duration_us": 404543
    },
    {
      "id": "M_1009",
      "pitch": 91,
      "t_note_us": 162062945,
      "t_trigger_us": 161926982,
      "is_ai": true,
      "track_id": 7,
      "velocity": 0,
      "is_motor": false,
      "motor_id": 0,
      "accel_val": 2000,
      "base_duration_us": 393180
    },
    {
      "id": "M_1014",
      "pitch": 96,
      "t_note_us": 162492488,
      "t_trigger_us": 162356525,
      "is_ai": true,
      "track_id": 10,
      "velocity": 0,
      "is_motor": false,
      "motor_id": 0,
      "accel_val": 2000,
      "base_duration_us": 465908
    },
    {
      "id": "M_1015",
      "pitch": 65,
      "t_note_us": 162492488,
      "t_trigger_us": 162356525,
      "is_ai": false,
      "track_id": 0,
      "velocity": 0,
      "is_motor": true,
      "motor_id": 1,
      "accel_val": 2000,
      "base_duration_us": 1197725
    },
    {
      "id": "M_1016",
      "pitch": 77,
      "t_note_us": 162492488,
      "t_trigger_us": 162356525,
      "is_ai": false,
      "track_id": 0,
      "velocity": 0,
      "is_motor": true,
      "motor_id": 3,
      "accel_val": 2000,
      "base_duration_us": 1277270
    },
    {
      "id": "M_1013",
      "pitch": 72,
      "t_note_us": 162503851,
      "t_trigger_us": 162367888,
      "is_ai": false,
      "track_id": 0,
      "velocity": 0,
      "is_motor": true,
      "motor_id": 0,
      "accel_val": 2000,
      "base_duration_us": 406818
    },
    {
      "id": "M_1020",
      "pitch": 72,
      "t_note_us": 162910669,
      "t_trigger_us": 162774706,
      "is_ai": false,
      "track_id": 0,
      "velocity": 0,
      "is_motor": true,
      "motor_id": 0,
      "accel_val": 2000,
      "base_duration_us": 1706813
    },
    {
      "id": "M_1018",
      "pitch": 67,
      "t_note_us": 163351577,
      "t_trigger_us": 163215614,
      "is_ai": false,
      "track_id": 0,
      "velocity": 0,
      "is_motor": true,
      "motor_id": 2,
      "accel_val": 2000,
      "base_duration_us": 859088
    },
    {
      "id": "M_1019",
      "pitch": 77,
      "t_note_us": 163769758,
      "t_trigger_us": 163633795,
      "is_ai": false,
      "track_id": 0,
      "velocity": 0,
      "is_motor": true,
      "motor_id": 1,
      "accel_val": 2000,
      "base_duration_us": 802270
    },
    {
      "id": "M_1017",
      "pitch": 65,
      "t_note_us": 163897030,
      "t_trigger_us": 163761067,
      "is_ai": false,
      "track_id": 0,
      "velocity": 0,
      "is_motor": true,
      "motor_id": 3,
      "accel_val": 2000,
      "base_duration_us": 186363
    },
    {
      "id": "M_1024",
      "pitch": 67,
      "t_note_us": 164199302,
      "t_trigger_us": 164063339,
      "is_ai": false,
      "track_id": 0,
      "velocity": 0,
      "is_motor": true,
      "motor_id": 3,
      "accel_val": 2000,
      "base_duration_us": 1209085
    },
    {
      "id": "M_1022",
      "pitch": 98,
      "t_note_us": 164210665,
      "t_trigger_us": 164074702,
      "is_ai": true,
      "track_id": 11,
      "velocity": 0,
      "is_motor": false,
      "motor_id": 0,
      "accel_val": 2000,
      "base_duration_us": 722724
    },
    {
      "id": "M_1021",
      "pitch": 67,
      "t_note_us": 164210665,
      "t_trigger_us": 164074702,
      "is_ai": false,
      "track_id": 0,
      "velocity": 0,
      "is_motor": true,
      "motor_id": 2,
      "accel_val": 2000,
      "base_duration_us": 406817
    },
    {
      "id": "M_1023",
      "pitch": 74,
      "t_note_us": 164628845,
      "t_trigger_us": 164492882,
      "is_ai": false,
      "track_id": 0,
      "velocity": 0,
      "is_motor": true,
      "motor_id": 1,
      "accel_val": 2000,
      "base_duration_us": 397725
    },
    {
      "id": "M_1026",
      "pitch": 74,
      "t_note_us": 164640208,
      "t_trigger_us": 164504245,
      "is_ai": false,
      "track_id": 0,
      "velocity": 0,
      "is_motor": true,
      "motor_id": 0,
      "accel_val": 2000,
      "base_duration_us": 861360
    },
    {
      "id": "M_1025",
      "pitch": 70,
      "t_note_us": 165049297,
      "t_trigger_us": 164913334,
      "is_ai": false,
      "track_id": 0,
      "velocity": 0,
      "is_motor": true,
      "motor_id": 1,
      "accel_val": 2000,
      "base_duration_us": 429544
    },
    {
      "id": "M_1030",
      "pitch": 101,
      "t_note_us": 165478841,
      "t_trigger_us": 165342878,
      "is_ai": true,
      "track_id": 13,
      "velocity": 0,
      "is_motor": false,
      "motor_id": 0,
      "accel_val": 2000,
      "base_duration_us": 463633
    },
    {
      "id": "M_1029",
      "pitch": 70,
      "t_note_us": 165478841,
      "t_trigger_us": 165342878,
      "is_ai": false,
      "track_id": 0,
      "velocity": 0,
      "is_motor": true,
      "motor_id": 1,
      "accel_val": 2000,
      "base_duration_us": 452270
    },
    {
      "id": "M_1028",
      "pitch": 74,
      "t_note_us": 165501568,
      "t_trigger_us": 165365605,
      "is_ai": false,
      "track_id": 0,
      "velocity": 0,
      "is_motor": true,
      "motor_id": 0,
      "accel_val": 2000,
      "base_duration_us": 429543
    },
    {
      "id": "M_1027",
      "pitch": 67,
      "t_note_us": 165547022,
      "t_trigger_us": 165411059,
      "is_ai": false,
      "track_id": 0,
      "velocity": 0,
      "is_motor": true,
      "motor_id": 2,
      "accel_val": 2000,
      "base_duration_us": 279545
    },
    {
      "id": "M_1031",
      "pitch": 98,
      "t_note_us": 165710658,
      "t_trigger_us": 165574695,
      "is_ai": true,
      "track_id": 11,
      "velocity": 0,
      "is_motor": false,
      "motor_id": 0,
      "accel_val": 2000,
      "base_duration_us": 313634
    },
    {
      "id": "M_1034",
      "pitch": 103,
      "t_note_us": 165919748,
      "t_trigger_us": 165783785,
      "is_ai": true,
      "track_id": 14,
      "velocity": 0,
      "is_motor": false,
      "motor_id": 0,
      "accel_val": 2000,
      "base_duration_us": 418178
    },
    {
      "id": "M_1032",
      "pitch": 70,
      "t_note_us": 165931111,
      "t_trigger_us": 165795148,
      "is_ai": false,
      "track_id": 0,
      "velocity": 0,
      "is_motor": true,
      "motor_id": 1,
      "accel_val": 2000,
      "base_duration_us": 174998
    },
    {
      "id": "M_1036",
      "pitch": 74,
      "t_note_us": 165931111,
      "t_trigger_us": 165795148,
      "is_ai": false,
      "track_id": 0,
      "velocity": 0,
      "is_motor": true,
      "motor_id": 0,
      "accel_val": 2000,
      "base_duration_us": 802268
    },
    {
      "id": "M_1033",
      "pitch": 62,
      "t_note_us": 166081110,
      "t_trigger_us": 165945147,
      "is_ai": false,
      "track_id": 0,
      "velocity": 0,
      "is_motor": true,
      "motor_id": 2,
      "accel_val": 2000,
      "base_duration_us": 174998
    },
    {
      "id": "M_1035",
      "pitch": 69,
      "t_note_us": 166233381,
      "t_trigger_us": 166097418,
      "is_ai": false,
      "track_id": 0,
      "velocity": 0,
      "is_motor": true,
      "motor_id": 1,
      "accel_val": 2000,
      "base_duration_us": 172726
    },
    {
      "id": "M_1037",
      "pitch": 101,
      "t_note_us": 166349289,
      "t_trigger_us": 166213326,
      "is_ai": true,
      "track_id": 13,
      "velocity": 0,
      "is_motor": false,
      "motor_id": 0,
      "accel_val": 2000,
      "base_duration_us": 499998
    },
    {
      "id": "M_1040",
      "pitch": 69,
      "t_note_us": 166419743,
      "t_trigger_us": 166283780,
      "is_ai": false,
      "track_id": 0,
      "velocity": 0,
      "is_motor": true,
      "motor_id": 1,
      "accel_val": 2000,
      "base_duration_us": 1172722
    },
    {
      "id": "M_1042",
      "pitch": 77,
      "t_note_us": 166778833,
      "t_trigger_us": 166642870,
      "is_ai": false,
      "track_id": 0,
      "velocity": 0,
      "is_motor": true,
      "motor_id": 2,
      "accel_val": 2000,
      "base_duration_us": 1231811
    },
    {
      "id": "M_1038",
      "pitch": 74,
      "t_note_us": 166942468,
      "t_trigger_us": 166806505,
      "is_ai": false,
      "track_id": 0,
      "velocity": 0,
      "is_motor": true,
      "motor_id": 0,
      "accel_val": 2000,
      "base_duration_us": 243181
    },
    {
      "id": "M_1039",
      "pitch": 74,
      "t_note_us": 167197012,
      "t_trigger_us": 167061049,
      "is_ai": false,
      "track_id": 0,
      "velocity": 0,
      "is_motor": true,
      "motor_id": 0,
      "accel_val": 2000,
      "base_duration_us": 384090
    },
    {
      "id": "M_1041",
      "pitch": 74,
      "t_note_us": 167197012,
      "t_trigger_us": 167061049,
      "is_ai": false,
      "track_id": 0,
      "velocity": 0,
      "is_motor": true,
      "motor_id": 3,
      "accel_val": 2000,
      "base_duration_us": 454542
    },
    {
      "id": "M_1043",
      "pitch": 103,
      "t_note_us": 167626555,
      "t_trigger_us": 167490592,
      "is_ai": true,
      "track_id": 14,
      "velocity": 0,
      "is_motor": false,
      "motor_id": 0,
      "accel_val": 2000,
      "base_duration_us": 406816
    },
    {
      "id": "M_1045",
      "pitch": 63,
      "t_note_us": 167626555,
      "t_trigger_us": 167490592,
      "is_ai": false,
      "track_id": 0,
      "velocity": 0,
      "is_motor": true,
      "motor_id": 1,
      "accel_val": 2000,
      "base_duration_us": 813631
    },
    {
      "id": "M_1046",
      "pitch": 75,
      "t_note_us": 167651554,
      "t_trigger_us": 167515591,
      "is_ai": false,
      "track_id": 0,
      "velocity": 0,
      "is_motor": true,
      "motor_id": 3,
      "accel_val": 2000,
      "base_duration_us": 834086
    },
    {
      "id": "M_1047",
      "pitch": 70,
      "t_note_us": 168044734,
      "t_trigger_us": 167908771,
      "is_ai": false,
      "track_id": 0,
      "velocity": 0,
      "is_motor": true,
      "motor_id": 2,
      "accel_val": 2000,
      "base_duration_us": 454542
    },
    {
      "id": "M_1048",
      "pitch": 101,
      "t_note_us": 168056097,
      "t_trigger_us": 167920134,
      "is_ai": true,
      "track_id": 13,
      "velocity": 0,
      "is_motor": false,
      "motor_id": 0,
      "accel_val": 2000,
      "base_duration_us": 443179
    },
    {
      "id": "M_1044",
      "pitch": 70,
      "t_note_us": 168069733,
      "t_trigger_us": 167933770,
      "is_ai": false,
      "track_id": 0,
      "velocity": 0,
      "is_motor": true,
      "motor_id": 0,
      "accel_val": 2000,
      "base_duration_us": 359090
    },
    {
      "id": "M_1051",
      "pitch": 75,
      "t_note_us": 168485640,
      "t_trigger_us": 168349677,
      "is_ai": false,
      "track_id": 0,
      "velocity": 0,
      "is_motor": true,
      "motor_id": 1,
      "accel_val": 2000,
      "base_duration_us": 420453
    },
    {
      "id": "M_1056",
      "pitch": 67,
      "t_note_us": 168485640,
      "t_trigger_us": 168349677,
      "is_ai": false,
      "track_id": 0,
      "velocity": 0,
      "is_motor": true,
      "motor_id": 0,
      "accel_val": 2000,
      "base_duration_us": 849995
    },
    {
      "id": "M_1050",
      "pitch": 101,
      "t_note_us": 168499276,
      "t_trigger_us": 168363313,
      "is_ai": true,
      "track_id": 13,
      "velocity": 0,
      "is_motor": false,
      "motor_id": 0,
      "accel_val": 2000,
      "base_duration_us": 359090
    },
    {
      "id": "M_1049",
      "pitch": 70,
      "t_note_us": 168499276,
      "t_trigger_us": 168363313,
      "is_ai": false,
      "track_id": 0,
      "velocity": 0,
      "is_motor": true,
      "motor_id": 2,
      "accel_val": 2000,
      "base_duration_us": 206818
    },
    {
      "id": "M_1052",
      "pitch": 70,
      "t_note_us": 168499276,
      "t_trigger_us": 168363313,
      "is_ai": false,
      "track_id": 0,
      "velocity": 0,
      "is_motor": true,
      "motor_id": 3,
      "accel_val": 2000,
      "base_duration_us": 418180
    },
    {
      "id": "M_1054",
      "pitch": 63,
      "t_note_us": 168590185,
      "t_trigger_us": 168454222,
      "is_ai": false,
      "track_id": 0,
      "velocity": 0,
      "is_motor": true,
      "motor_id": 0,
      "accel_val": 2000,
      "base_duration_us": 686361
    },
    {
      "id": "M_1053",
      "pitch": 98,
      "t_note_us": 168906093,
      "t_trigger_us": 168770130,
      "is_ai": true,
      "track_id": 11,
      "velocity": 0,
      "is_motor": false,
      "motor_id": 0,
      "accel_val": 2000,
      "base_duration_us": 265908
    },
    {
      "id": "M_1057",
      "pitch": 70,
      "t_note_us": 168917456,
      "t_trigger_us": 168781493,
      "is_ai": false,
      "track_id": 0,
      "velocity": 0,
      "is_motor": true,
      "motor_id": 1,
      "accel_val": 2000,
      "base_duration_us": 429542
    },
    {
      "id": "M_1055",
      "pitch": 75,
      "t_note_us": 169033365,
      "t_trigger_us": 168897402,
      "is_ai": false,
      "track_id": 0,
      "velocity": 0,
      "is_motor": true,
      "motor_id": 2,
      "accel_val": 2000,
      "base_duration_us": 268180
    },
    {
      "id": "M_1061",
      "pitch": 101,
      "t_note_us": 169346998,
      "t_trigger_us": 169211035,
      "is_ai": true,
      "track_id": 13,
      "velocity": 0,
      "is_motor": false,
      "motor_id": 0,
      "accel_val": 2000,
      "base_duration_us": 615906
    },
    {
      "id": "M_1058",
      "pitch": 69,
      "t_note_us": 169346998,
      "t_trigger_us": 169211035,
      "is_ai": false,
      "track_id": 0,
      "velocity": 0,
      "is_motor": true,
      "motor_id": 1,
      "accel_val": 2000,
      "base_duration_us": 174999
    },
    {
      "id": "M_1060",
      "pitch": 70,
      "t_note_us": 169346998,
      "t_trigger_us": 169211035,
      "is_ai": false,
      "track_id": 0,
      "velocity": 0,
      "is_motor": true,
      "motor_id": 2,
      "accel_val": 2000,
      "base_duration_us": 499998
    },
    {
      "id": "M_1063",
      "pitch": 74,
      "t_note_us": 169358361,
      "t_trigger_us": 169222398,
      "is_ai": false,
      "track_id": 0,
      "velocity": 0,
      "is_motor": true,
      "motor_id": 0,
      "accel_val": 2000,
      "base_duration_us": 847724
    },
    {
      "id": "M_1059",
      "pitch": 62,
      "t_note_us": 169533360,
      "t_trigger_us": 169397397,
      "is_ai": false,
      "track_id": 0,
      "velocity": 0,
      "is_motor": true,
      "motor_id": 1,
      "accel_val": 2000,
      "base_duration_us": 172727
    },
    {
      "id": "M_1064",
      "pitch": 70,
      "t_note_us": 169846996,
      "t_trigger_us": 169711033,
      "is_ai": false,
      "track_id": 0,
      "velocity": 0,
      "is_motor": true,
      "motor_id": 1,
      "accel_val": 2000,
      "base_duration_us": 404543
    },
    {
      "id": "M_1062",
      "pitch": 62,
      "t_note_us": 169903814,
      "t_trigger_us": 169767851,
      "is_ai": false,
      "track_id": 0,
      "velocity": 0,
      "is_motor": true,
      "motor_id": 2,
      "accel_val": 2000,
      "base_duration_us": 209090
    },
    {
      "id": "M_1067",
      "pitch": 69,
      "t_note_us": 170194722,
      "t_trigger_us": 170058759,
      "is_ai": false,
      "track_id": 0,
      "velocity": 0,
      "is_motor": true,
      "motor_id": 2,
      "accel_val": 2000,
      "base_duration_us": 418179
    },
    {
      "id": "M_1066",
      "pitch": 74,
      "t_note_us": 170206085,
      "t_trigger_us": 170070122,
      "is_ai": false,
      "track_id": 0,
      "velocity": 0,
      "is_motor": true,
      "motor_id": 0,
      "accel_val": 2000,
      "base_duration_us": 359089
    },
    {
      "id": "M_1069",
      "pitch": 74,
      "t_note_us": 170206085,
      "t_trigger_us": 170070122,
      "is_ai": false,
      "track_id": 0,
      "velocity": 0,
      "is_motor": true,
      "motor_id": 3,
      "accel_val": 2000,
      "base_duration_us": 895449
    },
    {
      "id": "M_1070",
      "pitch": 70,
      "t_note_us": 170251539,
      "t_trigger_us": 170115576,
      "is_ai": false,
      "track_id": 0,
      "velocity": 0,
      "is_motor": true,
      "motor_id": 1,
      "accel_val": 2000,
      "base_duration_us": 954540
    },
    {
      "id": "M_1065",
      "pitch": 62,
      "t_note_us": 170333357,
      "t_trigger_us": 170197394,
      "is_ai": false,
      "track_id": 0,
      "velocity": 0,
      "is_motor": true,
      "motor_id": 0,
      "accel_val": 2000,
      "base_duration_us": 220454
    },
    {
      "id": "M_1071",
      "pitch": 77,
      "t_note_us": 170635628,
      "t_trigger_us": 170499665,
      "is_ai": false,
      "track_id": 0,
      "velocity": 0,
      "is_motor": true,
      "motor_id": 2,
      "accel_val": 2000,
      "base_duration_us": 802269
    },
    {
      "id": "M_1068",
      "pitch": 77,
      "t_note_us": 170846991,
      "t_trigger_us": 170711028,
      "is_ai": false,
      "track_id": 0,
      "velocity": 0,
      "is_motor": true,
      "motor_id": 0,
      "accel_val": 2000,
      "base_duration_us": 195454
    },
    {
      "id": "M_1072",
      "pitch": 98,
      "t_note_us": 171056081,
      "t_trigger_us": 170920118,
      "is_ai": true,
      "track_id": 11,
      "velocity": 0,
      "is_motor": false,
      "motor_id": 0,
      "accel_val": 2000,
      "base_duration_us": 497724
    },
    {
      "id": "M_1074",
      "pitch": 72,
      "t_note_us": 171067444,
      "t_trigger_us": 170931481,
      "is_ai": false,
      "track_id": 0,
      "velocity": 0,
      "is_motor": true,
      "motor_id": 0,
      "accel_val": 2000,
      "base_duration_us": 847723
    },
    {
      "id": "M_1075",
      "pitch": 67,
      "t_note_us": 171485624,
      "t_trigger_us": 171349661,
      "is_ai": false,
      "track_id": 0,
      "velocity": 0,
      "is_motor": true,
      "motor_id": 1,
      "accel_val": 2000,
      "base_duration_us": 440906
    },
    {
      "id": "M_1073",
      "pitch": 98,
      "t_note_us": 171681077,
      "t_trigger_us": 171545114,
      "is_ai": true,
      "track_id": 11,
      "velocity": 0,
      "is_motor": false,
      "motor_id": 0,
      "accel_val": 2000,
      "base_duration_us": 197727
    },
    {
      "id": "M_1077",
      "pitch": 96,
      "t_note_us": 171915167,
      "t_trigger_us": 171779204,
      "is_ai": true,
      "track_id": 10,
      "velocity": 0,
      "is_motor": false,
      "motor_id": 0,
      "accel_val": 2000,
      "base_duration_us": 811361
    },
    {
      "id": "M_1080",
      "pitch": 72,
      "t_note_us": 171915167,
      "t_trigger_us": 171779204,
      "is_ai": false,
      "track_id": 0,
      "velocity": 0,
      "is_motor": true,
      "motor_id": 0,
      "accel_val": 2000,
      "base_duration_us": 1265905
    },
    {
      "id": "M_1076",
      "pitch": 67,
      "t_note_us": 171926530,
      "t_trigger_us": 171790567,
      "is_ai": false,
      "track_id": 0,
      "velocity": 0,
      "is_motor": true,
      "motor_id": 1,
      "accel_val": 2000,
      "base_duration_us": 418181
    },
    {
      "id": "M_1078",
      "pitch": 70,
      "t_note_us": 171926530,
      "t_trigger_us": 171790567,
      "is_ai": false,
      "track_id": 0,
      "velocity": 0,
      "is_motor": true,
      "motor_id": 2,
      "accel_val": 2000,
      "base_duration_us": 859088
    },
    {
      "id": "M_1082",
      "pitch": 67,
      "t_note_us": 172344711,
      "t_trigger_us": 172208748,
      "is_ai": false,
      "track_id": 0,
      "velocity": 0,
      "is_motor": true,
      "motor_id": 1,
      "accel_val": 2000,
      "base_duration_us": 859087
    },
    {
      "id": "M_1079",
      "pitch": 98,
      "t_note_us": 172356074,
      "t_trigger_us": 172220111,
      "is_ai": true,
      "track_id": 11,
      "velocity": 0,
      "is_motor": false,
      "motor_id": 0,
      "accel_val": 2000,
      "base_duration_us": 429544
    },
    {
      "id": "M_1081",
      "pitch": 98,
      "t_note_us": 172785618,
      "t_trigger_us": 172649655,
      "is_ai": true,
      "track_id": 11,
      "velocity": 0,
      "is_motor": false,
      "motor_id": 0,
      "accel_val": 2000,
      "base_duration_us": 406817
    },
    {
      "id": "M_1084",
      "pitch": 101,
      "t_note_us": 172785618,
      "t_trigger_us": 172649655,
      "is_ai": true,
      "track_id": 13,
      "velocity": 0,
      "is_motor": false,
      "motor_id": 0,
      "accel_val": 2000,
      "base_duration_us": 440907
    },
    {
      "id": "M_1083",
      "pitch": 70,
      "t_note_us": 172785618,
      "t_trigger_us": 172649655,
      "is_ai": false,
      "track_id": 0,
      "velocity": 0,
      "is_motor": true,
      "motor_id": 2,
      "accel_val": 2000,
      "base_duration_us": 418180
    },
    {
      "id": "M_1086",
      "pitch": 70,
      "t_note_us": 173203798,
      "t_trigger_us": 173067835,
      "is_ai": false,
      "track_id": 0,
      "velocity": 0,
      "is_motor": true,
      "motor_id": 1,
      "accel_val": 2000,
      "base_duration_us": 418180
    },
    {
      "id": "M_1087",
      "pitch": 67,
      "t_note_us": 173203798,
      "t_trigger_us": 173067835,
      "is_ai": false,
      "track_id": 0,
      "velocity": 0,
      "is_motor": true,
      "motor_id": 2,
      "accel_val": 2000,
      "base_duration_us": 440906
    },
    {
      "id": "M_1085",
      "pitch": 72,
      "t_note_us": 173308343,
      "t_trigger_us": 173172380,
      "is_ai": false,
      "track_id": 0,
      "velocity": 0,
      "is_motor": true,
      "motor_id": 0,
      "accel_val": 2000,
      "base_duration_us": 254545
    },
    {
      "id": "M_1093",
      "pitch": 70,
      "t_note_us": 173621978,
      "t_trigger_us": 173486015,
      "is_ai": false,
      "track_id": 0,
      "velocity": 0,
      "is_motor": true,
      "motor_id": 1,
      "accel_val": 2000,
      "base_duration_us": 986358
    },
    {
      "id": "M_1089",
      "pitch": 98,
      "t_note_us": 173633341,
      "t_trigger_us": 173497378,
      "is_ai": true,
      "track_id": 11,
      "velocity": 0,
      "is_motor": false,
      "motor_id": 0,
      "accel_val": 2000,
      "base_duration_us": 440907
    },
    {
      "id": "M_1088",
      "pitch": 67,
      "t_note_us": 173644704,
      "t_trigger_us": 173508741,
      "is_ai": false,
      "track_id": 0,
      "velocity": 0,
      "is_motor": true,
      "motor_id": 2,
      "accel_val": 2000,
      "base_duration_us": 429544
    },
    {
      "id": "M_1091",
      "pitch": 96,
      "t_note_us": 174062885,
      "t_trigger_us": 173926922,
      "is_ai": true,
      "track_id": 10,
      "velocity": 0,
      "is_motor": false,
      "motor_id": 0,
      "accel_val": 2000,
      "base_duration_us": 429543
    },
    {
      "id": "M_1092",
      "pitch": 72,
      "t_note_us": 174062885,
      "t_trigger_us": 173926922,
      "is_ai": false,
      "track_id": 0,
      "velocity": 0,
      "is_motor": true,
      "motor_id": 0,
      "accel_val": 2000,
      "base_duration_us": 452270
    },
    {
      "id": "M_1090",
      "pitch": 67,
      "t_note_us": 174074248,
      "t_trigger_us": 173938285,
      "is_ai": false,
      "track_id": 0,
      "velocity": 0,
      "is_motor": true,
      "motor_id": 2,
      "accel_val": 2000,
      "base_duration_us": 384090
    },
    {
      "id": "M_1096",
      "pitch": 65,
      "t_note_us": 174481065,
      "t_trigger_us": 174345102,
      "is_ai": false,
      "track_id": 0,
      "velocity": 0,
      "is_motor": true,
      "motor_id": 2,
      "accel_val": 2000,
      "base_duration_us": 813634
    },
    {
      "id": "M_1095",
      "pitch": 96,
      "t_note_us": 174492428,
      "t_trigger_us": 174356465,
      "is_ai": true,
      "track_id": 10,
      "velocity": 0,
      "is_motor": false,
      "motor_id": 0,
      "accel_val": 2000,
      "base_duration_us": 511362
    },
    {
      "id": "M_1097",
      "pitch": 77,
      "t_note_us": 174492428,
      "t_trigger_us": 174356465,
      "is_ai": false,
      "track_id": 0,
      "velocity": 0,
      "is_motor": true,
      "motor_id": 3,
      "accel_val": 2000,
      "base_duration_us": 802271
    },
    {
      "id": "M_1094",
      "pitch": 72,
      "t_note_us": 174515155,
      "t_trigger_us": 174379192,
      "is_ai": false,
      "track_id": 0,
      "velocity": 0,
      "is_motor": true,
      "motor_id": 0,
      "accel_val": 2000,
      "base_duration_us": 397726
    },
    {
      "id": "M_1098",
      "pitch": 72,
      "t_note_us": 174912881,
      "t_trigger_us": 174776918,
      "is_ai": false,
      "track_id": 0,
      "velocity": 0,
      "is_motor": true,
      "motor_id": 1,
      "accel_val": 2000,
      "base_duration_us": 452271
    },
    {
      "id": "M_1101",
      "pitch": 77,
      "t_note_us": 175331062,
      "t_trigger_us": 175195099,
      "is_ai": false,
      "track_id": 0,
      "velocity": 0,
      "is_motor": true,
      "motor_id": 2,
      "accel_val": 2000,
      "base_duration_us": 765906
    },
    {
      "id": "M_1100",
      "pitch": 96,
      "t_note_us": 175342425,
      "t_trigger_us": 175206462,
      "is_ai": true,
      "track_id": 10,
      "velocity": 0,
      "is_motor": false,
      "motor_id": 0,
      "accel_val": 2000,
      "base_duration_us": 429543
    },
    {
      "id": "M_1103",
      "pitch": 72,
      "t_note_us": 175365152,
      "t_trigger_us": 175229189,
      "is_ai": false,
      "track_id": 0,
      "velocity": 0,
      "is_motor": true,
      "motor_id": 1,
      "accel_val": 2000,
      "base_duration_us": 1265906
    },
    {
      "id": "M_1105",
      "pitch": 75,
      "t_note_us": 175399242,
      "t_trigger_us": 175263279,
      "is_ai": false,
      "track_id": 0,
      "velocity": 0,
      "is_motor": true,
      "motor_id": 3,
      "accel_val": 2000,
      "base_duration_us": 2022724
    },
    {
      "id": "M_1099",
      "pitch": 65,
      "t_note_us": 175446969,
      "t_trigger_us": 175311006,
      "is_ai": false,
      "track_id": 0,
      "velocity": 0,
      "is_motor": true,
      "motor_id": 0,
      "accel_val": 2000,
      "base_duration_us": 265909
    },
    {
      "id": "M_1102",
      "pitch": 70,
      "t_note_us": 175771968,
      "t_trigger_us": 175636005,
      "is_ai": true,
      "track_id": 0,
      "velocity": 0,
      "is_motor": true,
      "motor_id": 0,
      "accel_val": 2000,
      "base_duration_us": 545454
    },
    {
      "id": "M_1104",
      "pitch": 96,
      "t_note_us": 176201513,
      "t_trigger_us": 176065550,
      "is_ai": true,
      "track_id": 10,
      "velocity": 0,
      "is_motor": false,
      "motor_id": 0,
      "accel_val": 2000,
      "base_duration_us": 509090
    },
    {
      "id": "M_1108",
      "pitch": 72,
      "t_note_us": 176631058,
      "t_trigger_us": 176495095,
      "is_ai": false,
      "track_id": 0,
      "velocity": 0,
      "is_motor": true,
      "motor_id": 1,
      "accel_val": 2000,
      "base_duration_us": 1336360
    },
    {
      "id": "M_1106",
      "pitch": 79,
      "t_note_us": 177049239,
      "t_trigger_us": 176913276,
      "is_ai": true,
      "track_id": 0,
      "velocity": 0,
      "is_motor": false,
      "motor_id": 0,
      "accel_val": 2000,
      "base_duration_us": 847726
    },
    {
      "id": "M_1107",
      "pitch": 77,
      "t_note_us": 177490147,
      "t_trigger_us": 177354184,
      "is_ai": false,
      "track_id": 0,
      "velocity": 0,
      "is_motor": true,
      "motor_id": 2,
      "accel_val": 2000,
      "base_duration_us": 429545
    },
    {
      "id": "M_1112",
      "pitch": 98,
      "t_note_us": 177919692,
      "t_trigger_us": 177783729,
      "is_ai": true,
      "track_id": 11,
      "velocity": 0,
      "is_motor": false,
      "motor_id": 0,
      "accel_val": 2000,
      "base_duration_us": 859088
    },
    {
      "id": "M_1110",
      "pitch": 77,
      "t_note_us": 177919692,
      "t_trigger_us": 177783729,
      "is_ai": false,
      "track_id": 0,
      "velocity": 0,
      "is_motor": true,
      "motor_id": 2,
      "accel_val": 2000,
      "base_duration_us": 429543
    },
    {
      "id": "M_1116",
      "pitch": 70,
      "t_note_us": 177931055,
      "t_trigger_us": 177795092,
      "is_ai": false,
      "track_id": 0,
      "velocity": 0,
      "is_motor": true,
      "motor_id": 0,
      "accel_val": 2000,
      "base_duration_us": 1686358
    },
    {
      "id": "M_1109",
      "pitch": 72,
      "t_note_us": 178106054,
      "t_trigger_us": 177970091,
      "is_ai": false,
      "track_id": 0,
      "velocity": 0,
      "is_motor": true,
      "motor_id": 1,
      "accel_val": 2000,
      "base_duration_us": 138636
    },
    {
      "id": "M_1111",
      "pitch": 77,
      "t_note_us": 178349235,
      "t_trigger_us": 178213272,
      "is_ai": false,
      "track_id": 0,
      "velocity": 0,
      "is_motor": true,
      "motor_id": 2,
      "accel_val": 2000,
      "base_duration_us": 429545
    },
    {
      "id": "M_1113",
      "pitch": 98,
      "t_note_us": 178778780,
      "t_trigger_us": 178642817,
      "is_ai": true,
      "track_id": 11,
      "velocity": 0,
      "is_motor": false,
      "motor_id": 0,
      "accel_val": 2000,
      "base_duration_us": 163635
    },
    {
      "id": "M_1115",
      "pitch": 77,
      "t_note_us": 178778780,
      "t_trigger_us": 178642817,
      "is_ai": false,
      "track_id": 0,
      "velocity": 0,
      "is_motor": true,
      "motor_id": 2,
      "accel_val": 2000,
      "base_duration_us": 431815
    },
    {
      "id": "M_1118",
      "pitch": 74,
      "t_note_us": 178790143,
      "t_trigger_us": 178654180,
      "is_ai": false,
      "track_id": 0,
      "velocity": 0,
      "is_motor": true,
      "motor_id": 1,
      "accel_val": 2000,
      "base_duration_us": 838633
    },
    {
      "id": "M_1114",
      "pitch": 70,
      "t_note_us": 178803779,
      "t_trigger_us": 178667816,
      "is_ai": false,
      "track_id": 0,
      "velocity": 0,
      "is_motor": true,
      "motor_id": 3,
      "accel_val": 2000,
      "base_duration_us": 268181
    },
    {
      "id": "M_1117",
      "pitch": 96,
      "t_note_us": 179199232,
      "t_trigger_us": 179063269,
      "is_ai": true,
      "track_id": 10,
      "velocity": 0,
      "is_motor": false,
      "motor_id": 0,
      "accel_val": 2000,
      "base_duration_us": 418181
    },
    {
      "id": "M_1120",
      "pitch": 77,
      "t_note_us": 179210595,
      "t_trigger_us": 179074632,
      "is_ai": false,
      "track_id": 0,
      "velocity": 0,
      "is_motor": true,
      "motor_id": 2,
      "accel_val": 2000,
      "base_duration_us": 847725
    },
    {
      "id": "M_1124",
      "pitch": 98,
      "t_note_us": 179628776,
      "t_trigger_us": 179492813,
      "is_ai": true,
      "track_id": 11,
      "velocity": 0,
      "is_motor": false,
      "motor_id": 0,
      "accel_val": 2000,
      "base_duration_us": 1359087
    },
    {
      "id": "M_1119",
      "pitch": 74,
      "t_note_us": 179628776,
      "t_trigger_us": 179492813,
      "is_ai": false,
      "track_id": 0,
      "velocity": 0,
      "is_motor": true,
      "motor_id": 1,
      "accel_val": 2000,
      "base_duration_us": 393181
    },
    {
      "id": "M_1122",
      "pitch": 69,
      "t_note_us": 179744685,
      "t_trigger_us": 179608722,
      "is_ai": false,
      "track_id": 0,
      "velocity": 0,
      "is_motor": true,
      "motor_id": 0,
      "accel_val": 2000,
      "base_duration_us": 1184088
    },
    {
      "id": "M_1121",
      "pitch": 77,
      "t_note_us": 180058320,
      "t_trigger_us": 179922357,
      "is_ai": false,
      "track_id": 0,
      "velocity": 0,
      "is_motor": true,
      "motor_id": 2,
      "accel_val": 2000,
      "base_duration_us": 859090
    },
    {
      "id": "M_1125",
      "pitch": 84,
      "t_note_us": 180499229,
      "t_trigger_us": 180363266,
      "is_ai": true,
      "track_id": 3,
      "velocity": 0,
      "is_motor": false,
      "motor_id": 0,
      "accel_val": 2000,
      "base_duration_us": 836361
    },
    {
      "id": "M_1123",
      "pitch": 96,
      "t_note_us": 180753774,
      "t_trigger_us": 180617811,
      "is_ai": true,
      "track_id": 10,
      "velocity": 0,
      "is_motor": false,
      "motor_id": 0,
      "accel_val": 2000,
      "base_duration_us": 174999
    },
    {
      "id": "M_1126",
      "pitch": 77,
      "t_note_us": 180917410,
      "t_trigger_us": 180781447,
      "is_ai": false,
      "track_id": 0,
      "velocity": 0,
      "is_motor": true,
      "motor_id": 2,
      "accel_val": 2000,
      "base_duration_us": 429543
    },
    {
      "id": "M_1128",
      "pitch": 69,
      "t_note_us": 180928773,
      "t_trigger_us": 180792810,
      "is_ai": false,
      "track_id": 0,
      "velocity": 0,
      "is_motor": true,
      "motor_id": 1,
      "accel_val": 2000,
      "base_duration_us": 779543
    },
    {
      "id": "M_1127",
      "pitch": 67,
      "t_note_us": 181335590,
      "t_trigger_us": 181199627,
      "is_ai": false,
      "track_id": 0,
      "velocity": 0,
      "is_motor": true,
      "motor_id": 0,
      "accel_val": 2000,
      "base_duration_us": 174999
    },
    {
      "id": "M_1131",
      "pitch": 98,
      "t_note_us": 181346953,
      "t_trigger_us": 181210990,
      "is_ai": true,
      "track_id": 11,
      "velocity": 0,
      "is_motor": false,
      "motor_id": 0,
      "accel_val": 2000,
      "base_duration_us": 454543
    },
    {
      "id": "M_1129",
      "pitch": 67,
      "t_note_us": 181346953,
      "t_trigger_us": 181210990,
      "is_ai": false,
      "track_id": 0,
      "velocity": 0,
      "is_motor": true,
      "motor_id": 2,
      "accel_val": 2000,
      "base_duration_us": 384090
    },
    {
      "id": "M_1130",
      "pitch": 67,
      "t_note_us": 181510589,
      "t_trigger_us": 181374626,
      "is_ai": false,
      "track_id": 0,
      "velocity": 0,
      "is_motor": true,
      "motor_id": 0,
      "accel_val": 2000,
      "base_duration_us": 265908
    },
    {
      "id": "M_1133",
      "pitch": 101,
      "t_note_us": 181776497,
      "t_trigger_us": 181640534,
      "is_ai": true,
      "track_id": 13,
      "velocity": 0,
      "is_motor": false,
      "motor_id": 0,
      "accel_val": 2000,
      "base_duration_us": 443179
    },
    {
      "id": "M_1132",
      "pitch": 74,
      "t_note_us": 181776497,
      "t_trigger_us": 181640534,
      "is_ai": false,
      "track_id": 0,
      "velocity": 0,
      "is_motor": true,
      "motor_id": 1,
      "accel_val": 2000,
      "base_duration_us": 361362
    },
    {
      "id": "M_1134",
      "pitch": 74,
      "t_note_us": 181776497,
      "t_trigger_us": 181640534,
      "is_ai": false,
      "track_id": 0,
      "velocity": 0,
      "is_motor": true,
      "motor_id": 0,
      "accel_val": 2000,
      "base_duration_us": 454542
    },
    {
      "id": "M_1135",
      "pitch": 67,
      "t_note_us": 181776497,
      "t_trigger_us": 181640534,
      "is_ai": false,
      "track_id": 0,
      "velocity": 0,
      "is_motor": true,
      "motor_id": 2,
      "accel_val": 2000,
      "base_duration_us": 768178
    },
    {
      "id": "M_1136",
      "pitch": 98,
      "t_note_us": 182206040,
      "t_trigger_us": 182070077,
      "is_ai": true,
      "track_id": 11,
      "velocity": 0,
      "is_motor": false,
      "motor_id": 0,
      "accel_val": 2000,
      "base_duration_us": 443180
    },
    {
      "id": "M_1139",
      "pitch": 70,
      "t_note_us": 182206040,
      "t_trigger_us": 182070077,
      "is_ai": false,
      "track_id": 0,
      "velocity": 0,
      "is_motor": true,
      "motor_id": 1,
      "accel_val": 2000,
      "base_duration_us": 1036359
    },
    {
      "id": "M_1138",
      "pitch": 74,
      "t_note_us": 182231039,
      "t_trigger_us": 182095076,
      "is_ai": false,
      "track_id": 0,
      "velocity": 0,
      "is_motor": true,
      "motor_id": 0,
      "accel_val": 2000,
      "base_duration_us": 963633
    },
    {
      "id": "M_1137",
      "pitch": 96,
      "t_note_us": 182635584,
      "t_trigger_us": 182499621,
      "is_ai": true,
      "track_id": 10,
      "velocity": 0,
      "is_motor": false,
      "motor_id": 0,
      "accel_val": 2000,
      "base_duration_us": 409090
    },
    {
      "id": "M_1141",
      "pitch": 98,
      "t_note_us": 183056037,
      "t_trigger_us": 182920074,
      "is_ai": true,
      "track_id": 11,
      "velocity": 0,
      "is_motor": false,
      "motor_id": 0,
      "accel_val": 2000,
      "base_duration_us": 440906
    },
    {
      "id": "M_1140",
      "pitch": 77,
      "t_note_us": 183067400,
      "t_trigger_us": 182931437,
      "is_ai": false,
      "track_id": 0,
      "velocity": 0,
      "is_motor": true,
      "motor_id": 2,
      "accel_val": 2000,
      "base_duration_us": 220453
    },
    {
      "id": "M_1143",
      "pitch": 65,
      "t_note_us": 183078763,
      "t_trigger_us": 182942800,
      "is_ai": false,
      "track_id": 0,
      "velocity": 0,
      "is_motor": true,
      "motor_id": 3,
      "accel_val": 2000,
      "base_duration_us": 836361
    },
    {
      "id": "M_1142",
      "pitch": 74,
      "t_note_us": 183496943,
      "t_trigger_us": 183360980,
      "is_ai": false,
      "track_id": 0,
      "velocity": 0,
      "is_motor": true,
      "motor_id": 1,
      "accel_val": 2000,
      "base_duration_us": 370454
    },
    {
      "id": "M_1147",
      "pitch": 74,
      "t_note_us": 183496943,
      "t_trigger_us": 183360980,
      "is_ai": false,
      "track_id": 0,
      "velocity": 0,
      "is_motor": true,
      "motor_id": 0,
      "accel_val": 2000,
      "base_duration_us": 1254541
    },
    {
      "id": "M_1144",
      "pitch": 77,
      "t_note_us": 183694670,
      "t_trigger_us": 183558707,
      "is_ai": false,
      "track_id": 0,
      "velocity": 0,
      "is_motor": true,
      "motor_id": 2,
      "accel_val": 2000,
      "base_duration_us": 220454
    },
    {
      "id": "M_1146",
      "pitch": 65,
      "t_note_us": 183915124,
      "t_trigger_us": 183779161,
      "is_ai": false,
      "track_id": 0,
      "velocity": 0,
      "is_motor": true,
      "motor_id": 1,
      "accel_val": 2000,
      "base_duration_us": 799997
    },
    {
      "id": "M_1145",
      "pitch": 77,
      "t_note_us": 183926487,
      "t_trigger_us": 183790524,
      "is_ai": false,
      "track_id": 0,
      "velocity": 0,
      "is_motor": true,
      "motor_id": 2,
      "accel_val": 2000,
      "base_duration_us": 429544
    },
    {
      "id": "M_1148",
      "pitch": 70,
      "t_note_us": 184344668,
      "t_trigger_us": 184208705,
      "is_ai": false,
      "track_id": 0,
      "velocity": 0,
      "is_motor": true,
      "motor_id": 3,
      "accel_val": 2000,
      "base_duration_us": 429543
    },
    {
      "id": "M_1149",
      "pitch": 77,
      "t_note_us": 184356031,
      "t_trigger_us": 184220068,
      "is_ai": false,
      "track_id": 0,
      "velocity": 0,
      "is_motor": true,
      "motor_id": 2,
      "accel_val": 2000,
      "base_duration_us": 431816
    },
    {
      "id": "M_1156",
      "pitch": 70,
      "t_note_us": 184774211,
      "t_trigger_us": 184638248,
      "is_ai": true,
      "track_id": 0,
      "velocity": 0,
      "is_motor": true,
      "motor_id": 1,
      "accel_val": 2000,
      "base_duration_us": 861360
    },
    {
      "id": "M_1150",
      "pitch": 70,
      "t_note_us": 184774211,
      "t_trigger_us": 184638248,
      "is_ai": false,
      "track_id": 0,
      "velocity": 0,
      "is_motor": true,
      "motor_id": 0,
      "accel_val": 2000,
      "base_duration_us": 140908
    },
    {
      "id": "M_1155",
      "pitch": 75,
      "t_note_us": 184774211,
      "t_trigger_us": 184638248,
      "is_ai": false,
      "track_id": 0,
      "velocity": 0,
      "is_motor": true,
      "motor_id": 3,
      "accel_val": 2000,
      "base_duration_us": 861360
    },
    {
      "id": "M_1151",
      "pitch": 77,
      "t_note_us": 184787847,
      "t_trigger_us": 184651884,
      "is_ai": false,
      "track_id": 0,
      "velocity": 0,
      "is_motor": true,
      "motor_id": 2,
      "accel_val": 2000,
      "base_duration_us": 195453
    },
    {
      "id": "M_1153",
      "pitch": 63,
      "t_note_us": 184799210,
      "t_trigger_us": 184663247,
      "is_ai": false,
      "track_id": 0,
      "velocity": 0,
      "is_motor": true,
      "motor_id": 0,
      "accel_val": 2000,
      "base_duration_us": 754543
    },
    {
      "id": "M_1152",
      "pitch": 70,
      "t_note_us": 185031027,
      "t_trigger_us": 184895064,
      "is_ai": false,
      "track_id": 0,
      "velocity": 0,
      "is_motor": true,
      "motor_id": 2,
      "accel_val": 2000,
      "base_duration_us": 138636
    },
    {
      "id": "M_1154",
      "pitch": 70,
      "t_note_us": 185181026,
      "t_trigger_us": 185045063,
      "is_ai": false,
      "track_id": 0,
      "velocity": 0,
      "is_motor": true,
      "motor_id": 2,
      "accel_val": 2000,
      "base_duration_us": 454545
    },
    {
      "id": "M_1158",
      "pitch": 70,
      "t_note_us": 185635571,
      "t_trigger_us": 185499608,
      "is_ai": true,
      "track_id": 0,
      "velocity": 0,
      "is_motor": true,
      "motor_id": 1,
      "accel_val": 2000,
      "base_duration_us": 429545
    },
    {
      "id": "M_1157",
      "pitch": 75,
      "t_note_us": 185635571,
      "t_trigger_us": 185499608,
      "is_ai": false,
      "track_id": 0,
      "velocity": 0,
      "is_motor": true,
      "motor_id": 2,
      "accel_val": 2000,
      "base_duration_us": 429545
    },
    {
      "id": "M_1161",
      "pitch": 67,
      "t_note_us": 185635571,
      "t_trigger_us": 185499608,
      "is_ai": false,
      "track_id": 0,
      "velocity": 0,
      "is_motor": true,
      "motor_id": 0,
      "accel_val": 2000,
      "base_duration_us": 845453
    },
    {
      "id": "M_1165",
      "pitch": 70,
      "t_note_us": 185635571,
      "t_trigger_us": 185499608,
      "is_ai": false,
      "track_id": 0,
      "velocity": 0,
      "is_motor": true,
      "motor_id": 3,
      "accel_val": 2000,
      "base_duration_us": 1265904
    },
    {
      "id": "M_1159",
      "pitch": 63,
      "t_note_us": 185726480,
      "t_trigger_us": 185590517,
      "is_ai": false,
      "track_id": 0,
      "velocity": 0,
      "is_motor": true,
      "motor_id": 0,
      "accel_val": 2000,
      "base_duration_us": 686363
    },
    {
      "id": "M_1162",
      "pitch": 96,
      "t_note_us": 186065116,
      "t_trigger_us": 185929153,
      "is_ai": true,
      "track_id": 10,
      "velocity": 0,
      "is_motor": false,
      "motor_id": 0,
      "accel_val": 2000,
      "base_duration_us": 452270
    },
    {
      "id": "M_1160",
      "pitch": 75,
      "t_note_us": 186215116,
      "t_trigger_us": 186079153,
      "is_ai": false,
      "track_id": 0,
      "velocity": 0,
      "is_motor": true,
      "motor_id": 2,
      "accel_val": 2000,
      "base_duration_us": 220454
    },
    {
      "id": "M_1166",
      "pitch": 98,
      "t_note_us": 186494660,
      "t_trigger_us": 186358697,
      "is_ai": true,
      "track_id": 11,
      "velocity": 0,
      "is_motor": false,
      "motor_id": 0,
      "accel_val": 2000,
      "base_duration_us": 418178
    },
    {
      "id": "M_1163",
      "pitch": 69,
      "t_note_us": 186506023,
      "t_trigger_us": 186370060,
      "is_ai": false,
      "track_id": 0,
      "velocity": 0,
      "is_motor": true,
      "motor_id": 1,
      "accel_val": 2000,
      "base_duration_us": 161362
    },
    {
      "id": "M_1167",
      "pitch": 74,
      "t_note_us": 186506023,
      "t_trigger_us": 186370060,
      "is_ai": false,
      "track_id": 0,
      "velocity": 0,
      "is_motor": true,
      "motor_id": 0,
      "accel_val": 2000,
      "base_duration_us": 545451
    },
    {
      "id": "M_1164",
      "pitch": 62,
      "t_note_us": 186656022,
      "t_trigger_us": 186520059,
      "is_ai": false,
      "track_id": 0,
      "velocity": 0,
      "is_motor": true,
      "motor_id": 2,
      "accel_val": 2000,
      "base_duration_us": 152272
    },
    {
      "id": "M_1176",
      "pitch": 70,
      "t_note_us": 186901475,
      "t_trigger_us": 186765512,
      "is_ai": false,
      "track_id": 0,
      "velocity": 0,
      "is_motor": true,
      "motor_id": 1,
      "accel_val": 2000,
      "base_duration_us": 1381809
    },
    {
      "id": "M_1169",
      "pitch": 98,
      "t_note_us": 186912838,
      "t_trigger_us": 186776875,
      "is_ai": true,
      "track_id": 11,
      "velocity": 0,
      "is_motor": false,
      "motor_id": 0,
      "accel_val": 2000,
      "base_duration_us": 429543
    },
    {
      "id": "M_1170",
      "pitch": 101,
      "t_note_us": 186912838,
      "t_trigger_us": 186776875,
      "is_ai": true,
      "track_id": 13,
      "velocity": 0,
      "is_motor": false,
      "motor_id": 0,
      "accel_val": 2000,
      "base_duration_us": 440906
    },
    {
      "id": "M_1168",
      "pitch": 62,
      "t_note_us": 187062837,
      "t_trigger_us": 186926874,
      "is_ai": false,
      "track_id": 0,
      "velocity": 0,
      "is_motor": true,
      "motor_id": 0,
      "accel_val": 2000,
      "base_duration_us": 186363
    },
    {
      "id": "M_1173",
      "pitch": 98,
      "t_note_us": 187342381,
      "t_trigger_us": 187206418,
      "is_ai": true,
      "track_id": 11,
      "velocity": 0,
      "is_motor": false,
      "motor_id": 0,
      "accel_val": 2000,
      "base_duration_us": 488632
    },
    {
      "id": "M_1172",
      "pitch": 74,
      "t_note_us": 187353744,
      "t_trigger_us": 187217781,
      "is_ai": false,
      "track_id": 0,
      "velocity": 0,
      "is_motor": true,
      "motor_id": 0,
      "accel_val": 2000,
      "base_duration_us": 372725
    },
    {
      "id": "M_1175",
      "pitch": 74,
      "t_note_us": 187353744,
      "t_trigger_us": 187217781,
      "is_ai": false,
      "track_id": 0,
      "velocity": 0,
      "is_motor": true,
      "motor_id": 2,
      "accel_val": 2000,
      "base_duration_us": 881813
    },
    {
      "id": "M_1171",
      "pitch": 62,
      "t_note_us": 187506016,
      "t_trigger_us": 187370053,
      "is_ai": false,
      "track_id": 0,
      "velocity": 0,
      "is_motor": true,
      "motor_id": 3,
      "accel_val": 2000,
      "base_duration_us": 161363
    },
    {
      "id": "M_1174",
      "pitch": 77,
      "t_note_us": 187771923,
      "t_trigger_us": 187635960,
      "is_ai": false,
      "track_id": 0,
      "velocity": 0,
      "is_motor": true,
      "motor_id": 3,
      "accel_val": 2000,
      "base_duration_us": 429544
    },
    {
      "id": "M_1179",
      "pitch": 96,
      "t_note_us": 188201467,
      "t_trigger_us": 188065504,
      "is_ai": true,
      "track_id": 10,
      "velocity": 0,
      "is_motor": false,
      "motor_id": 0,
      "accel_val": 2000,
      "base_duration_us": 861361
    },
    {
      "id": "M_1177",
      "pitch": 77,
      "t_note_us": 188201467,
      "t_trigger_us": 188065504,
      "is_ai": false,
      "track_id": 0,
      "velocity": 0,
      "is_motor": true,
      "motor_id": 3,
      "accel_val": 2000,
      "base_duration_us": 406817
    },
    {
      "id": "M_1178",
      "pitch": 72,
      "t_note_us": 188212830,
      "t_trigger_us": 188076867,
      "is_ai": false,
      "track_id": 0,
      "velocity": 0,
      "is_motor": true,
      "motor_id": 0,
      "accel_val": 2000,
      "base_duration_us": 849998
    },
    {
      "id": "M_1180",
      "pitch": 67,
      "t_note_us": 188642374,
      "t_trigger_us": 188506411,
      "is_ai": false,
      "track_id": 0,
      "velocity": 0,
      "is_motor": true,
      "motor_id": 1,
      "accel_val": 2000,
      "base_duration_us": 431817
    },
    {
      "id": "M_1183",
      "pitch": 96,
      "t_note_us": 189062828,
      "t_trigger_us": 188926865,
      "is_ai": true,
      "track_id": 10,
      "velocity": 0,
      "is_motor": false,
      "motor_id": 0,
      "accel_val": 2000,
      "base_duration_us": 590907
    },
    {
      "id": "M_1182",
      "pitch": 70,
      "t_note_us": 189062828,
      "t_trigger_us": 188926865,
      "is_ai": false,
      "track_id": 0,
      "velocity": 0,
      "is_motor": true,
      "motor_id": 2,
      "accel_val": 2000,
      "base_duration_us": 429544
    },
    {
      "id": "M_1187",
      "pitch": 72,
      "t_note_us": 189062828,
      "t_trigger_us": 188926865,
      "is_ai": false,
      "track_id": 0,
      "velocity": 0,
      "is_motor": true,
      "motor_id": 0,
      "accel_val": 2000,
      "base_duration_us": 859086
    },
    {
      "id": "M_1181",
      "pitch": 67,
      "t_note_us": 189074191,
      "t_trigger_us": 188938228,
      "is_ai": false,
      "track_id": 0,
      "velocity": 0,
      "is_motor": true,
      "motor_id": 1,
      "accel_val": 2000,
      "base_duration_us": 418181
    },
    {
      "id": "M_1186",
      "pitch": 70,
      "t_note_us": 189481009,
      "t_trigger_us": 189345046,
      "is_ai": true,
      "track_id": 0,
      "velocity": 0,
      "is_motor": true,
      "motor_id": 3,
      "accel_val": 2000,
      "base_duration_us": 404543
    },
    {
      "id": "M_1185",
      "pitch": 91,
      "t_note_us": 189492372,
      "t_trigger_us": 189356409,
      "is_ai": true,
      "track_id": 7,
      "velocity": 0,
      "is_motor": false,
      "motor_id": 0,
      "accel_val": 2000,
      "base_duration_us": 393180
    },
    {
      "id": "M_1184",
      "pitch": 67,
      "t_note_us": 189492372,
      "t_trigger_us": 189356409,
      "is_ai": false,
      "track_id": 0,
      "velocity": 0,
      "is_motor": true,
      "motor_id": 1,
      "accel_val": 2000,
      "base_duration_us": 370453
    },
    {
      "id": "M_1188",
      "pitch": 70,
      "t_note_us": 189492372,
      "t_trigger_us": 189356409,
      "is_ai": false,
      "track_id": 0,
      "velocity": 0,
      "is_motor": true,
      "motor_id": 2,
      "accel_val": 2000,
      "base_duration_us": 568178
    },
    {
      "id": "M_1192",
      "pitch": 65,
      "t_note_us": 189910551,
      "t_trigger_us": 189774588,
      "is_ai": false,
      "track_id": 0,
      "velocity": 0,
      "is_motor": true,
      "motor_id": 1,
      "accel_val": 2000,
      "base_duration_us": 1195451
    },
    {
      "id": "M_1193",
      "pitch": 77,
      "t_note_us": 189910551,
      "t_trigger_us": 189774588,
      "is_ai": false,
      "track_id": 0,
      "velocity": 0,
      "is_motor": true,
      "motor_id": 3,
      "accel_val": 2000,
      "base_duration_us": 1288632
    },
    {
      "id": "M_1191",
      "pitch": 96,
      "t_note_us": 189921914,
      "t_trigger_us": 189785951,
      "is_ai": true,
      "track_id": 10,
      "velocity": 0,
      "is_motor": false,
      "motor_id": 0,
      "accel_val": 2000,
      "base_duration_us": 509089
    },
    {
      "id": "M_1189",
      "pitch": 72,
      "t_note_us": 189921914,
      "t_trigger_us": 189785951,
      "is_ai": false,
      "track_id": 0,
      "velocity": 0,
      "is_motor": true,
      "motor_id": 0,
      "accel_val": 2000,
      "base_duration_us": 243181
    },
    {
      "id": "M_1190",
      "pitch": 72,
      "t_note_us": 189921914,
      "t_trigger_us": 189785951,
      "is_ai": false,
      "track_id": 0,
      "velocity": 0,
      "is_motor": true,
      "motor_id": 0,
      "accel_val": 2000,
      "base_duration_us": 429544
    },
    {
      "id": "M_1197",
      "pitch": 72,
      "t_note_us": 190351458,
      "t_trigger_us": 190215495,
      "is_ai": false,
      "track_id": 0,
      "velocity": 0,
      "is_motor": true,
      "motor_id": 0,
      "accel_val": 2000,
      "base_duration_us": 1684086
    },
    {
      "id": "M_1195",
      "pitch": 67,
      "t_note_us": 190769639,
      "t_trigger_us": 190633676,
      "is_ai": false,
      "track_id": 0,
      "velocity": 0,
      "is_motor": true,
      "motor_id": 2,
      "accel_val": 2000,
      "base_duration_us": 859088
    },
    {
      "id": "M_1194",
      "pitch": 96,
      "t_note_us": 191199183,
      "t_trigger_us": 191063220,
      "is_ai": true,
      "track_id": 10,
      "velocity": 0,
      "is_motor": false,
      "motor_id": 0,
      "accel_val": 2000,
      "base_duration_us": 138636
    },
    {
      "id": "M_1196",
      "pitch": 77,
      "t_note_us": 191199183,
      "t_trigger_us": 191063220,
      "is_ai": false,
      "track_id": 0,
      "velocity": 0,
      "is_motor": true,
      "motor_id": 1,
      "accel_val": 2000,
      "base_duration_us": 802271
    },
    {
      "id": "M_1199",
      "pitch": 67,
      "t_note_us": 191617364,
      "t_trigger_us": 191481401,
      "is_ai": false,
      "track_id": 0,
      "velocity": 0,
      "is_motor": true,
      "motor_id": 3,
      "accel_val": 2000,
      "base_duration_us": 463633
    },
    {
      "id": "M_1200",
      "pitch": 98,
      "t_note_us": 191628727,
      "t_trigger_us": 191492764,
      "is_ai": true,
      "track_id": 11,
      "velocity": 0,
      "is_motor": false,
      "motor_id": 0,
      "accel_val": 2000,
      "base_duration_us": 743179
    },
    {
      "id": "M_1198",
      "pitch": 67,
      "t_note_us": 191628727,
      "t_trigger_us": 191492764,
      "is_ai": false,
      "track_id": 0,
      "velocity": 0,
      "is_motor": true,
      "motor_id": 2,
      "accel_val": 2000,
      "base_duration_us": 418180
    },
    {
      "id": "M_1201",
      "pitch": 74,
      "t_note_us": 192069634,
      "t_trigger_us": 191933671,
      "is_ai": false,
      "track_id": 0,
      "velocity": 0,
      "is_motor": true,
      "motor_id": 1,
      "accel_val": 2000,
      "base_duration_us": 406817
    },
    {
      "id": "M_1204",
      "pitch": 74,
      "t_note_us": 192069634,
      "t_trigger_us": 191933671,
      "is_ai": false,
      "track_id": 0,
      "velocity": 0,
      "is_motor": true,
      "motor_id": 0,
      "accel_val": 2000,
      "base_duration_us": 849996
    },
    {
      "id": "M_1202",
      "pitch": 67,
      "t_note_us": 192080997,
      "t_trigger_us": 191945034,
      "is_ai": false,
      "track_id": 0,
      "velocity": 0,
      "is_motor": true,
      "motor_id": 2,
      "accel_val": 2000,
      "base_duration_us": 734089
    },
    {
      "id": "M_1203",
      "pitch": 70,
      "t_note_us": 192487814,
      "t_trigger_us": 192351851,
      "is_ai": false,
      "track_id": 0,
      "velocity": 0,
      "is_motor": true,
      "motor_id": 1,
      "accel_val": 2000,
      "base_duration_us": 420453
    },
    {
      "id": "M_1208",
      "pitch": 101,
      "t_note_us": 192908267,
      "t_trigger_us": 192772304,
      "is_ai": true,
      "track_id": 13,
      "velocity": 0,
      "is_motor": false,
      "motor_id": 0,
      "accel_val": 2000,
      "base_duration_us": 452269
    },
    {
      "id": "M_1207",
      "pitch": 70,
      "t_note_us": 192908267,
      "t_trigger_us": 192772304,
      "is_ai": false,
      "track_id": 0,
      "velocity": 0,
      "is_motor": true,
      "motor_id": 1,
      "accel_val": 2000,
      "base_duration_us": 440906
    },
    {
      "id": "M_1206",
      "pitch": 74,
      "t_note_us": 192919630,
      "t_trigger_us": 192783667,
      "is_ai": false,
      "track_id": 0,
      "velocity": 0,
      "is_motor": true,
      "motor_id": 0,
      "accel_val": 2000,
      "base_duration_us": 429543
    },
    {
      "id": "M_1205",
      "pitch": 67,
      "t_note_us": 192965084,
      "t_trigger_us": 192829121,
      "is_ai": false,
      "track_id": 0,
      "velocity": 0,
      "is_motor": true,
      "motor_id": 2,
      "accel_val": 2000,
      "base_duration_us": 279545
    },
    {
      "id": "M_1209",
      "pitch": 98,
      "t_note_us": 193128720,
      "t_trigger_us": 192992757,
      "is_ai": true,
      "track_id": 11,
      "velocity": 0,
      "is_motor": false,
      "motor_id": 0,
      "accel_val": 2000,
      "base_duration_us": 324997
    },
    {
      "id": "M_1212",
      "pitch": 103,
      "t_note_us": 193337810,
      "t_trigger_us": 193201847,
      "is_ai": true,
      "track_id": 14,
      "velocity": 0,
      "is_motor": false,
      "motor_id": 0,
      "accel_val": 2000,
      "base_duration_us": 429542
    },
    {
      "id": "M_1210",
      "pitch": 70,
      "t_note_us": 193349173,
      "t_trigger_us": 193213210,
      "is_ai": false,
      "track_id": 0,
      "velocity": 0,
      "is_motor": true,
      "motor_id": 1,
      "accel_val": 2000,
      "base_duration_us": 184089
    },
    {
      "id": "M_1214",
      "pitch": 74,
      "t_note_us": 193349173,
      "t_trigger_us": 193213210,
      "is_ai": false,
      "track_id": 0,
      "velocity": 0,
      "is_motor": true,
      "motor_id": 0,
      "accel_val": 2000,
      "base_duration_us": 822722
    },
    {
      "id": "M_1211",
      "pitch": 62,
      "t_note_us": 193510535,
      "t_trigger_us": 193374572,
      "is_ai": false,
      "track_id": 0,
      "velocity": 0,
      "is_motor": true,
      "motor_id": 2,
      "accel_val": 2000,
      "base_duration_us": 186363
    },
    {
      "id": "M_1213",
      "pitch": 69,
      "t_note_us": 193615080,
      "t_trigger_us": 193479117,
      "is_ai": false,
      "track_id": 0,
      "velocity": 0,
      "is_motor": true,
      "motor_id": 1,
      "accel_val": 2000,
      "base_duration_us": 231816
    },
    {
      "id": "M_1215",
      "pitch": 101,
      "t_note_us": 193778715,
      "t_trigger_us": 193642752,
      "is_ai": true,
      "track_id": 13,
      "velocity": 0,
      "is_motor": false,
      "motor_id": 0,
      "accel_val": 2000,
      "base_duration_us": 649996
    },
    {
      "id": "M_1217",
      "pitch": 69,
      "t_note_us": 193860532,
      "t_trigger_us": 193724569,
      "is_ai": false,
      "track_id": 0,
      "velocity": 0,
      "is_motor": true,
      "motor_id": 1,
      "accel_val": 2000,
      "base_duration_us": 1161359
    },
    {
      "id": "M_1219",
      "pitch": 77,
      "t_note_us": 194208258,
      "t_trigger_us": 194072295,
      "is_ai": false,
      "track_id": 0,
      "velocity": 0,
      "is_motor": true,
      "motor_id": 2,
      "accel_val": 2000,
      "base_duration_us": 1209086
    },
    {
      "id": "M_1216",
      "pitch": 74,
      "t_note_us": 194369621,
      "t_trigger_us": 194233658,
      "is_ai": false,
      "track_id": 0,
      "velocity": 0,
      "is_motor": true,
      "motor_id": 0,
      "accel_val": 2000,
      "base_duration_us": 256817
    },
    {
      "id": "M_1218",
      "pitch": 86,
      "t_note_us": 194637801,
      "t_trigger_us": 194501838,
      "is_ai": true,
      "track_id": 4,
      "velocity": 0,
      "is_motor": false,
      "motor_id": 0,
      "accel_val": 2000,
      "base_duration_us": 429543
    },
    {
      "id": "M_1220",
      "pitch": 103,
      "t_note_us": 195044618,
      "t_trigger_us": 194908655,
      "is_ai": true,
      "track_id": 14,
      "velocity": 0,
      "is_motor": false,
      "motor_id": 0,
      "accel_val": 2000,
      "base_duration_us": 418180
    },
    {
      "id": "M_1222",
      "pitch": 63,
      "t_note_us": 195055981,
      "t_trigger_us": 194920018,
      "is_ai": false,
      "track_id": 0,
      "velocity": 0,
      "is_motor": true,
      "motor_id": 1,
      "accel_val": 2000,
      "base_duration_us": 824997
    },
    {
      "id": "M_1223",
      "pitch": 75,
      "t_note_us": 195067344,
      "t_trigger_us": 194931381,
      "is_ai": false,
      "track_id": 0,
      "velocity": 0,
      "is_motor": true,
      "motor_id": 3,
      "accel_val": 2000,
      "base_duration_us": 847724
    },
    {
      "id": "M_1224",
      "pitch": 70,
      "t_note_us": 195474161,
      "t_trigger_us": 195338198,
      "is_ai": false,
      "track_id": 0,
      "velocity": 0,
      "is_motor": true,
      "motor_id": 2,
      "accel_val": 2000,
      "base_duration_us": 452270
    },
    {
      "id": "M_1225",
      "pitch": 101,
      "t_note_us": 195485524,
      "t_trigger_us": 195349561,
      "is_ai": true,
      "track_id": 13,
      "velocity": 0,
      "is_motor": false,
      "motor_id": 0,
      "accel_val": 2000,
      "base_duration_us": 440907
    },
    {
      "id": "M_1221",
      "pitch": 70,
      "t_note_us": 195485524,
      "t_trigger_us": 195349561,
      "is_ai": false,
      "track_id": 0,
      "velocity": 0,
      "is_motor": true,
      "motor_id": 0,
      "accel_val": 2000,
      "base_duration_us": 372727
    },
    {
      "id": "M_1228",
      "pitch": 67,
      "t_note_us": 195915068,
      "t_trigger_us": 195779105,
      "is_ai": false,
      "track_id": 0,
      "velocity": 0,
      "is_motor": true,
      "motor_id": 1,
      "accel_val": 2000,
      "base_duration_us": 440907
    },
    {
      "id": "M_1231",
      "pitch": 75,
      "t_note_us": 195915068,
      "t_trigger_us": 195779105,
      "is_ai": false,
      "track_id": 0,
      "velocity": 0,
      "is_motor": true,
      "motor_id": 3,
      "accel_val": 2000,
      "base_duration_us": 813632
    },
    {
      "id": "M_1227",
      "pitch": 101,
      "t_note_us": 195926431,
      "t_trigger_us": 195790468,
      "is_ai": true,
      "track_id": 13,
      "velocity": 0,
      "is_motor": false,
      "motor_id": 0,
      "accel_val": 2000,
      "base_duration_us": 372727
    },
    {
      "id": "M_1226",
      "pitch": 70,
      "t_note_us": 195926431,
      "t_trigger_us": 195790468,
      "is_ai": false,
      "track_id": 0,
      "velocity": 0,
      "is_motor": true,
      "motor_id": 2,
      "accel_val": 2000,
      "base_duration_us": 197727
    },
    {
      "id": "M_1236",
      "pitch": 70,
      "t_note_us": 195926431,
      "t_trigger_us": 195790468,
      "is_ai": false,
      "track_id": 0,
      "velocity": 0,
      "is_motor": true,
      "motor_id": 0,
      "accel_val": 2000,
      "base_duration_us": 1279538
    },
    {
      "id": "M_1230",
      "pitch": 63,
      "t_note_us": 196008249,
      "t_trigger_us": 195872286,
      "is_ai": false,
      "track_id": 0,
      "velocity": 0,
      "is_motor": true,
      "motor_id": 0,
      "accel_val": 2000,
      "base_duration_us": 686361
    },
    {
      "id": "M_1229",
      "pitch": 98,
      "t_note_us": 196344612,
      "t_trigger_us": 196208649,
      "is_ai": true,
      "track_id": 11,
      "velocity": 0,
      "is_motor": false,
      "motor_id": 0,
      "accel_val": 2000,
      "base_duration_us": 256817
    },
    {
      "id": "M_1232",
      "pitch": 67,
      "t_note_us": 196355975,
      "t_trigger_us": 196220012,
      "is_ai": false,
      "track_id": 0,
      "velocity": 0,
      "is_motor": true,
      "motor_id": 1,
      "accel_val": 2000,
      "base_duration_us": 397724
    },
    {
      "id": "M_1237",
      "pitch": 101,
      "t_note_us": 196765062,
      "t_trigger_us": 196629099,
      "is_ai": true,
      "track_id": 13,
      "velocity": 0,
      "is_motor": false,
      "motor_id": 0,
      "accel_val": 2000,
      "base_duration_us": 602270
    },
    {
      "id": "M_1233",
      "pitch": 69,
      "t_note_us": 196765062,
      "t_trigger_us": 196629099,
      "is_ai": false,
      "track_id": 0,
      "velocity": 0,
      "is_motor": true,
      "motor_id": 1,
      "accel_val": 2000,
      "base_duration_us": 161363
    },
    {
      "id": "M_1235",
      "pitch": 74,
      "t_note_us": 196776425,
      "t_trigger_us": 196640462,
      "is_ai": false,
      "track_id": 0,
      "velocity": 0,
      "is_motor": true,
      "motor_id": 2,
      "accel_val": 2000,
      "base_duration_us": 406817
    },
    {
      "id": "M_1234",
      "pitch": 62,
      "t_note_us": 196949152,
      "t_trigger_us": 196813189,
      "is_ai": false,
      "track_id": 0,
      "velocity": 0,
      "is_motor": true,
      "motor_id": 1,
      "accel_val": 2000,
      "base_duration_us": 186363
    },
    {
      "id": "M_1243",
      "pitch": 70,
      "t_note_us": 197205969,
      "t_trigger_us": 197070006,
      "is_ai": false,
      "track_id": 0,
      "velocity": 0,
      "is_motor": true,
      "motor_id": 1,
      "accel_val": 2000,
      "base_duration_us": 1438630
    },
    {
      "id": "M_1240",
      "pitch": 69,
      "t_note_us": 197565059,
      "t_trigger_us": 197429096,
      "is_ai": false,
      "track_id": 0,
      "velocity": 0,
      "is_motor": true,
      "motor_id": 2,
      "accel_val": 2000,
      "base_duration_us": 477271
    },
    {
      "id": "M_1239",
      "pitch": 74,
      "t_note_us": 197635513,
      "t_trigger_us": 197499550,
      "is_ai": false,
      "track_id": 0,
      "velocity": 0,
      "is_motor": true,
      "motor_id": 0,
      "accel_val": 2000,
      "base_duration_us": 336363
    },
    {
      "id": "M_1242",
      "pitch": 74,
      "t_note_us": 197635513,
      "t_trigger_us": 197499550,
      "is_ai": false,
      "track_id": 0,
      "velocity": 0,
      "is_motor": true,
      "motor_id": 3,
      "accel_val": 2000,
      "base_duration_us": 915905
    },
    {
      "id": "M_1238",
      "pitch": 62,
      "t_note_us": 197821876,
      "t_trigger_us": 197685913,
      "is_ai": false,
      "track_id": 0,
      "velocity": 0,
      "is_motor": true,
      "motor_id": 0,
      "accel_val": 2000,
      "base_duration_us": 150000
    },
    {
      "id": "M_1241",
      "pitch": 77,
      "t_note_us": 198053693,
      "t_trigger_us": 197917730,
      "is_ai": false,
      "track_id": 0,
      "velocity": 0,
      "is_motor": true,
      "motor_id": 2,
      "accel_val": 2000,
      "base_duration_us": 463635
    },
    {
      "id": "M_1245",
      "pitch": 98,
      "t_note_us": 198494602,
      "t_trigger_us": 198358639,
      "is_ai": true,
      "track_id": 11,
      "velocity": 0,
      "is_motor": false,
      "motor_id": 0,
      "accel_val": 2000,
      "base_duration_us": 465905
    },
    {
      "id": "M_1247",
      "pitch": 72,
      "t_note_us": 198505965,
      "t_trigger_us": 198370002,
      "is_ai": false,
      "track_id": 0,
      "velocity": 0,
      "is_motor": true,
      "motor_id": 0,
      "accel_val": 2000,
      "base_duration_us": 836359
    },
    {
      "id": "M_1244",
      "pitch": 77,
      "t_note_us": 198517328,
      "t_trigger_us": 198381365,
      "is_ai": false,
      "track_id": 0,
      "velocity": 0,
      "is_motor": true,
      "motor_id": 2,
      "accel_val": 2000,
      "base_duration_us": 349998
    },
    {
      "id": "M_1249",
      "pitch": 67,
      "t_note_us": 198912780,
      "t_trigger_us": 198776817,
      "is_ai": false,
      "track_id": 0,
      "velocity": 0,
      "is_motor": true,
      "motor_id": 1,
      "accel_val": 2000,
      "base_duration_us": 1254542
    },
    {
      "id": "M_1246",
      "pitch": 98,
      "t_note_us": 199110507,
      "t_trigger_us": 198974544,
      "is_ai": true,
      "track_id": 11,
      "velocity": 0,
      "is_motor": false,
      "motor_id": 0,
      "accel_val": 2000,
      "base_duration_us": 186363
    },
    {
      "id": "M_1248",
      "pitch": 96,
      "t_note_us": 199342324,
      "t_trigger_us": 199206361,
      "is_ai": true,
      "track_id": 10,
      "velocity": 0,
      "is_motor": false,
      "motor_id": 0,
      "accel_val": 2000,
      "base_duration_us": 604544
    },
    {
      "id": "M_1252",
      "pitch": 72,
      "t_note_us": 199342324,
      "t_trigger_us": 199206361,
      "is_ai": false,
      "track_id": 0,
      "velocity": 0,
      "is_motor": true,
      "motor_id": 0,
      "accel_val": 2000,
      "base_duration_us": 1138632
    },
    {
      "id": "M_1250",
      "pitch": 70,
      "t_note_us": 199353687,
      "t_trigger_us": 199217724,
      "is_ai": false,
      "track_id": 0,
      "velocity": 0,
      "is_motor": true,
      "motor_id": 2,
      "accel_val": 2000,
      "base_duration_us": 859088
    },
    {
      "id": "M_1251",
      "pitch": 98,
      "t_note_us": 199771868,
      "t_trigger_us": 199635905,
      "is_ai": true,
      "track_id": 11,
      "velocity": 0,
      "is_motor": false,
      "motor_id": 0,
      "accel_val": 2000,
      "base_duration_us": 511361
    },
    {
      "id": "M_1255",
      "pitch": 101,
      "t_note_us": 200201412,
      "t_trigger_us": 200065449,
      "is_ai": true,
      "track_id": 13,
      "velocity": 0,
      "is_motor": false,
      "motor_id": 0,
      "accel_val": 2000,
      "base_duration_us": 861359
    },
    {
      "id": "M_1253",
      "pitch": 70,
      "t_note_us": 200212775,
      "t_trigger_us": 200076812,
      "is_ai": false,
      "track_id": 0,
      "velocity": 0,
      "is_motor": true,
      "motor_id": 1,
      "accel_val": 2000,
      "base_duration_us": 745453
    },
    {
      "id": "M_1254",
      "pitch": 77,
      "t_note_us": 200212775,
      "t_trigger_us": 200076812,
      "is_ai": false,
      "track_id": 0,
      "velocity": 0,
      "is_motor": true,
      "motor_id": 2,
      "accel_val": 2000,
      "base_duration_us": 849996
    },
    {
      "id": "M_1256",
      "pitch": 65,
      "t_note_us": 201017318,
      "t_trigger_us": 200881355,
      "is_ai": false,
      "track_id": 0,
      "velocity": 0,
      "is_motor": true,
      "motor_id": 1,
      "accel_val": 2000,
      "base_duration_us": 138634
    },
    {
      "id": "M_1258",
      "pitch": 98,
      "t_note_us": 201051408,
      "t_trigger_us": 200915445,
      "is_ai": true,
      "track_id": 11,
      "velocity": 0,
      "is_motor": false,
      "motor_id": 0,
      "accel_val": 2000,
      "base_duration_us": 754543
    },
    {
      "id": "M_1257",
      "pitch": 77,
      "t_note_us": 201062771,
      "t_trigger_us": 200926808,
      "is_ai": false,
      "track_id": 0,
      "velocity": 0,
      "is_motor": true,
      "motor_id": 2,
      "accel_val": 2000,
      "base_duration_us": 418180
    },
    {
      "id": "M_1261",
      "pitch": 65,
      "t_note_us": 201167315,
      "t_trigger_us": 201031352,
      "is_ai": false,
      "track_id": 0,
      "velocity": 0,
      "is_motor": true,
      "motor_id": 1,
      "accel_val": 2000,
      "base_duration_us": 1068181
    },
    {
      "id": "M_1260",
      "pitch": 96,
      "t_note_us": 201480951,
      "t_trigger_us": 201344988,
      "is_ai": true,
      "track_id": 10,
      "velocity": 0,
      "is_motor": false,
      "motor_id": 0,
      "accel_val": 2000,
      "base_duration_us": 440909
    },
    {
      "id": "M_1259",
      "pitch": 77,
      "t_note_us": 201480951,
      "t_trigger_us": 201344988,
      "is_ai": false,
      "track_id": 0,
      "velocity": 0,
      "is_motor": true,
      "motor_id": 2,
      "accel_val": 2000,
      "base_duration_us": 440909
    },
    {
      "id": "M_1263",
      "pitch": 96,
      "t_note_us": 201921860,
      "t_trigger_us": 201785897,
      "is_ai": true,
      "track_id": 10,
      "velocity": 0,
      "is_motor": false,
      "motor_id": 0,
      "accel_val": 2000,
      "base_duration_us": 429545
    },
    {
      "id": "M_1262",
      "pitch": 77,
      "t_note_us": 201921860,
      "t_trigger_us": 201785897,
      "is_ai": false,
      "track_id": 0,
      "velocity": 0,
      "is_motor": true,
      "motor_id": 2,
      "accel_val": 2000,
      "base_duration_us": 429545
    },
    {
      "id": "M_1272",
      "pitch": 70,
      "t_note_us": 201921860,
      "t_trigger_us": 201785897,
      "is_ai": false,
      "track_id": 0,
      "velocity": 0,
      "is_motor": true,
      "motor_id": 0,
      "accel_val": 2000,
      "base_duration_us": 2940902
    },
    {
      "id": "M_1264",
      "pitch": 70,
      "t_note_us": 202351405,
      "t_trigger_us": 202215442,
      "is_ai": true,
      "track_id": 0,
      "velocity": 0,
      "is_motor": true,
      "motor_id": 1,
      "accel_val": 2000,
      "base_duration_us": 406818
    },
    {
      "id": "M_1265",
      "pitch": 70,
      "t_note_us": 202351405,
      "t_trigger_us": 202215442,
      "is_ai": false,
      "track_id": 0,
      "velocity": 0,
      "is_motor": true,
      "motor_id": 2,
      "accel_val": 2000,
      "base_duration_us": 499999
    },
    {
      "id": "M_1268",
      "pitch": 77,
      "t_note_us": 202351405,
      "t_trigger_us": 202215442,
      "is_ai": false,
      "track_id": 0,
      "velocity": 0,
      "is_motor": true,
      "motor_id": 3,
      "accel_val": 2000,
      "base_duration_us": 1706815
    },
    {
      "id": "M_1267",
      "pitch": 72,
      "t_note_us": 202769586,
      "t_trigger_us": 202633623,
      "is_ai": false,
      "track_id": 0,
      "velocity": 0,
      "is_motor": true,
      "motor_id": 1,
      "accel_val": 2000,
      "base_duration_us": 1277271
    },
    {
      "id": "M_1266",
      "pitch": 70,
      "t_note_us": 203049131,
      "t_trigger_us": 202913168,
      "is_ai": false,
      "track_id": 0,
      "velocity": 0,
      "is_motor": true,
      "motor_id": 2,
      "accel_val": 2000,
      "base_duration_us": 186363
    },
    {
      "id": "M_1269",
      "pitch": 74,
      "t_note_us": 203199131,
      "t_trigger_us": 203063168,
      "is_ai": false,
      "track_id": 0,
      "velocity": 0,
      "is_motor": true,
      "motor_id": 0,
      "accel_val": 2000,
      "base_duration_us": 872725
    },
    {
      "id": "M_1271",
      "pitch": 77,
      "t_note_us": 204058220,
      "t_trigger_us": 203922257,
      "is_ai": false,
      "track_id": 0,
      "velocity": 0,
      "is_motor": true,
      "motor_id": 2,
      "accel_val": 2000,
      "base_duration_us": 443179
    },
    {
      "id": "M_1270",
      "pitch": 74,
      "t_note_us": 204071856,
      "t_trigger_us": 203935893,
      "is_ai": false,
      "track_id": 0,
      "velocity": 0,
      "is_motor": true,
      "motor_id": 1,
      "accel_val": 2000,
      "base_duration_us": 393181
    },
    {
      "id": "M_1274",
      "pitch": 72,
      "t_note_us": 204490036,
      "t_trigger_us": 204354073,
      "is_ai": false,
      "track_id": 0,
      "velocity": 0,
      "is_motor": true,
      "motor_id": 1,
      "accel_val": 2000,
      "base_duration_us": 847724
    },
    {
      "id": "M_1275",
      "pitch": 77,
      "t_note_us": 204501399,
      "t_trigger_us": 204365436,
      "is_ai": false,
      "track_id": 0,
      "velocity": 0,
      "is_motor": true,
      "motor_id": 2,
      "accel_val": 2000,
      "base_duration_us": 847724
    },
    {
      "id": "M_1273",
      "pitch": 86,
      "t_note_us": 204640035,
      "t_trigger_us": 204504072,
      "is_ai": true,
      "track_id": 4,
      "velocity": 0,
      "is_motor": false,
      "motor_id": 0,
      "accel_val": 2000,
      "base_duration_us": 256817
    },
    {
      "id": "M_1276",
      "pitch": 74,
      "t_note_us": 204908215,
      "t_trigger_us": 204772252,
      "is_ai": false,
      "track_id": 0,
      "velocity": 0,
      "is_motor": true,
      "motor_id": 0,
      "accel_val": 2000,
      "base_duration_us": 545452
    },
    {
      "id": "M_1277",
      "pitch": 77,
      "t_note_us": 205349123,
      "t_trigger_us": 205213160,
      "is_ai": false,
      "track_id": 0,
      "velocity": 0,
      "is_motor": true,
      "motor_id": 2,
      "accel_val": 2000,
      "base_duration_us": 429543
    },
    {
      "id": "M_1278",
      "pitch": 65,
      "t_note_us": 205360486,
      "t_trigger_us": 205224523,
      "is_ai": false,
      "track_id": 0,
      "velocity": 0,
      "is_motor": true,
      "motor_id": 1,
      "accel_val": 2000,
      "base_duration_us": 1184088
    },
    {
      "id": "M_1281",
      "pitch": 72,
      "t_note_us": 205767303,
      "t_trigger_us": 205631340,
      "is_ai": false,
      "track_id": 0,
      "velocity": 0,
      "is_motor": true,
      "motor_id": 0,
      "accel_val": 2000,
      "base_duration_us": 1290906
    },
    {
      "id": "M_1280",
      "pitch": 77,
      "t_note_us": 205778666,
      "t_trigger_us": 205642703,
      "is_ai": false,
      "track_id": 0,
      "velocity": 0,
      "is_motor": true,
      "motor_id": 2,
      "accel_val": 2000,
      "base_duration_us": 1115907
    },
    {
      "id": "M_1279",
      "pitch": 75,
      "t_note_us": 206208211,
      "t_trigger_us": 206072248,
      "is_ai": false,
      "track_id": 0,
      "velocity": 0,
      "is_motor": true,
      "motor_id": 3,
      "accel_val": 2000,
      "base_duration_us": 420453
    },
    {
      "id": "M_1282",
      "pitch": 70,
      "t_note_us": 206615028,
      "t_trigger_us": 206479065,
      "is_ai": false,
      "track_id": 0,
      "velocity": 0,
      "is_motor": true,
      "motor_id": 1,
      "accel_val": 2000,
      "base_duration_us": 593181
    },
    {
      "id": "M_1284",
      "pitch": 75,
      "t_note_us": 206628664,
      "t_trigger_us": 206492701,
      "is_ai": false,
      "track_id": 0,
      "velocity": 0,
      "is_motor": true,
      "motor_id": 3,
      "accel_val": 2000,
      "base_duration_us": 1172726
    },
    {
      "id": "M_1283",
      "pitch": 72,
      "t_note_us": 207058209,
      "t_trigger_us": 206922246,
      "is_ai": false,
      "track_id": 0,
      "velocity": 0,
      "is_motor": true,
      "motor_id": 0,
      "accel_val": 2000,
      "base_duration_us": 729545
    },
    {
      "id": "M_1285",
      "pitch": 72,
      "t_note_us": 207058209,
      "t_trigger_us": 206922246,
      "is_ai": false,
      "track_id": 0,
      "velocity": 0,
      "is_motor": true,
      "motor_id": 2,
      "accel_val": 2000,
      "base_duration_us": 870453
    },
    {
      "id": "M_1288",
      "pitch": 70,
      "t_note_us": 207917299,
      "t_trigger_us": 207781336,
      "is_ai": true,
      "track_id": 0,
      "velocity": 0,
      "is_motor": true,
      "motor_id": 1,
      "accel_val": 2000,
      "base_duration_us": 906815
    },
    {
      "id": "M_1286",
      "pitch": 77,
      "t_note_us": 207917299,
      "t_trigger_us": 207781336,
      "is_ai": false,
      "track_id": 0,
      "velocity": 0,
      "is_motor": true,
      "motor_id": 3,
      "accel_val": 2000,
      "base_duration_us": 277272
    },
    {
      "id": "M_1291",
      "pitch": 65,
      "t_note_us": 207917299,
      "t_trigger_us": 207781336,
      "is_ai": false,
      "track_id": 0,
      "velocity": 0,
      "is_motor": true,
      "motor_id": 0,
      "accel_val": 2000,
      "base_duration_us": 1243175
    },
    {
      "id": "M_1290",
      "pitch": 77,
      "t_note_us": 208380934,
      "t_trigger_us": 208244971,
      "is_ai": false,
      "track_id": 0,
      "velocity": 0,
      "is_motor": true,
      "motor_id": 2,
      "accel_val": 2000,
      "base_duration_us": 638632
    },
    {
      "id": "M_1289",
      "pitch": 96,
      "t_note_us": 208392297,
      "t_trigger_us": 208256334,
      "is_ai": true,
      "track_id": 10,
      "velocity": 0,
      "is_motor": false,
      "motor_id": 0,
      "accel_val": 2000,
      "base_duration_us": 443180
    },
    {
      "id": "M_1287",
      "pitch": 72,
      "t_note_us": 208392297,
      "t_trigger_us": 208256334,
      "is_ai": false,
      "track_id": 0,
      "velocity": 0,
      "is_motor": true,
      "motor_id": 3,
      "accel_val": 2000,
      "base_duration_us": 186363
    },
    {
      "id": "M_1296",
      "pitch": 70,
      "t_note_us": 208869567,
      "t_trigger_us": 208733604,
      "is_ai": false,
      "track_id": 0,
      "velocity": 0,
      "is_motor": true,
      "motor_id": 1,
      "accel_val": 2000,
      "base_duration_us": 906814
    },
    {
      "id": "M_1295",
      "pitch": 98,
      "t_note_us": 208880930,
      "t_trigger_us": 208744967,
      "is_ai": true,
      "track_id": 11,
      "velocity": 0,
      "is_motor": false,
      "motor_id": 0,
      "accel_val": 2000,
      "base_duration_us": 881815
    },
    {
      "id": "M_1292",
      "pitch": 70,
      "t_note_us": 209033202,
      "t_trigger_us": 208897239,
      "is_ai": true,
      "track_id": 0,
      "velocity": 0,
      "is_motor": true,
      "motor_id": 2,
      "accel_val": 2000,
      "base_duration_us": 184090
    },
    {
      "id": "M_1294",
      "pitch": 74,
      "t_note_us": 209333201,
      "t_trigger_us": 209197238,
      "is_ai": false,
      "track_id": 0,
      "velocity": 0,
      "is_motor": true,
      "motor_id": 0,
      "accel_val": 2000,
      "base_duration_us": 338635
    },
    {
      "id": "M_1298",
      "pitch": 77,
      "t_note_us": 209333201,
      "t_trigger_us": 209197238,
      "is_ai": false,
      "track_id": 0,
      "velocity": 0,
      "is_motor": true,
      "motor_id": 2,
      "accel_val": 2000,
      "base_duration_us": 859089
    },
    {
      "id": "M_1293",
      "pitch": 58,
      "t_note_us": 209449110,
      "t_trigger_us": 209313147,
      "is_ai": false,
      "track_id": 0,
      "velocity": 0,
      "is_motor": true,
      "motor_id": 3,
      "accel_val": 2000,
      "base_duration_us": 209090
    },
    {
      "id": "M_1300",
      "pitch": 98,
      "t_note_us": 209762745,
      "t_trigger_us": 209626782,
      "is_ai": true,
      "track_id": 11,
      "velocity": 0,
      "is_motor": false,
      "motor_id": 0,
      "accel_val": 2000,
      "base_duration_us": 443181
    },
    {
      "id": "M_1299",
      "pitch": 70,
      "t_note_us": 209762745,
      "t_trigger_us": 209626782,
      "is_ai": false,
      "track_id": 0,
      "velocity": 0,
      "is_motor": true,
      "motor_id": 0,
      "accel_val": 2000,
      "base_duration_us": 429545
    },
    {
      "id": "M_1297",
      "pitch": 70,
      "t_note_us": 209776381,
      "t_trigger_us": 209640418,
      "is_ai": false,
      "track_id": 0,
      "velocity": 0,
      "is_motor": true,
      "motor_id": 1,
      "accel_val": 2000,
      "base_duration_us": 415909
    },
    {
      "id": "M_1303",
      "pitch": 101,
      "t_note_us": 210192290,
      "t_trigger_us": 210056327,
      "is_ai": true,
      "track_id": 13,
      "velocity": 0,
      "is_motor": false,
      "motor_id": 0,
      "accel_val": 2000,
      "base_duration_us": 431815
    },
    {
      "id": "M_1302",
      "pitch": 70,
      "t_note_us": 210192290,
      "t_trigger_us": 210056327,
      "is_ai": false,
      "track_id": 0,
      "velocity": 0,
      "is_motor": true,
      "motor_id": 1,
      "accel_val": 2000,
      "base_duration_us": 409089
    },
    {
      "id": "M_1304",
      "pitch": 77,
      "t_note_us": 210192290,
      "t_trigger_us": 210056327,
      "is_ai": false,
      "track_id": 0,
      "velocity": 0,
      "is_motor": true,
      "motor_id": 2,
      "accel_val": 2000,
      "base_duration_us": 547724
    },
    {
      "id": "M_1305",
      "pitch": 70,
      "t_note_us": 210192290,
      "t_trigger_us": 210056327,
      "is_ai": false,
      "track_id": 0,
      "velocity": 0,
      "is_motor": true,
      "motor_id": 0,
      "accel_val": 2000,
      "base_duration_us": 711360
    },
    {
      "id": "M_1301",
      "pitch": 98,
      "t_note_us": 210205926,
      "t_trigger_us": 210069963,
      "is_ai": true,
      "track_id": 11,
      "velocity": 0,
      "is_motor": false,
      "motor_id": 0,
      "accel_val": 2000,
      "base_duration_us": 384090
    },
    {
      "id": "M_1313",
      "pitch": 64,
      "t_note_us": 210601379,
      "t_trigger_us": 210465416,
      "is_ai": false,
      "track_id": 0,
      "velocity": 0,
      "is_motor": true,
      "motor_id": 1,
      "accel_val": 2000,
      "base_duration_us": 1695447
    },
    {
      "id": "M_1306",
      "pitch": 103,
      "t_note_us": 210612742,
      "t_trigger_us": 210476779,
      "is_ai": true,
      "track_id": 14,
      "velocity": 0,
      "is_motor": false,
      "motor_id": 0,
      "accel_val": 2000,
      "base_duration_us": 511361
    },
    {
      "id": "M_1309",
      "pitch": 67,
      "t_note_us": 211042286,
      "t_trigger_us": 210906323,
      "is_ai": false,
      "track_id": 0,
      "velocity": 0,
      "is_motor": true,
      "motor_id": 2,
      "accel_val": 2000,
      "base_duration_us": 440906
    },
    {
      "id": "M_1308",
      "pitch": 76,
      "t_note_us": 211053649,
      "t_trigger_us": 210917686,
      "is_ai": false,
      "track_id": 0,
      "velocity": 0,
      "is_motor": true,
      "motor_id": 3,
      "accel_val": 2000,
      "base_duration_us": 418180
    },
    {
      "id": "M_1307",
      "pitch": 67,
      "t_note_us": 211228648,
      "t_trigger_us": 211092685,
      "is_ai": false,
      "track_id": 0,
      "velocity": 0,
      "is_motor": true,
      "motor_id": 0,
      "accel_val": 2000,
      "base_duration_us": 231818
    },
    {
      "id": "M_1310",
      "pitch": 103,
      "t_note_us": 211471829,
      "t_trigger_us": 211335866,
      "is_ai": true,
      "track_id": 14,
      "velocity": 0,
      "is_motor": false,
      "motor_id": 0,
      "accel_val": 2000,
      "base_duration_us": 370453
    },
    {
      "id": "M_1314",
      "pitch": 91,
      "t_note_us": 211471829,
      "t_trigger_us": 211335866,
      "is_ai": true,
      "track_id": 7,
      "velocity": 0,
      "is_motor": false,
      "motor_id": 0,
      "accel_val": 2000,
      "base_duration_us": 824997
    },
    {
      "id": "M_1311",
      "pitch": 70,
      "t_note_us": 211483192,
      "t_trigger_us": 211347229,
      "is_ai": false,
      "track_id": 0,
      "velocity": 0,
      "is_motor": true,
      "motor_id": 2,
      "accel_val": 2000,
      "base_duration_us": 429544
    },
    {
      "id": "M_1312",
      "pitch": 67,
      "t_note_us": 211483192,
      "t_trigger_us": 211347229,
      "is_ai": false,
      "track_id": 0,
      "velocity": 0,
      "is_motor": true,
      "motor_id": 0,
      "accel_val": 2000,
      "base_duration_us": 627271
    },
    {
      "id": "M_1315",
      "pitch": 70,
      "t_note_us": 211912736,
      "t_trigger_us": 211776773,
      "is_ai": false,
      "track_id": 0,
      "velocity": 0,
      "is_motor": true,
      "motor_id": 2,
      "accel_val": 2000,
      "base_duration_us": 429543
    },
    {
      "id": "M_1316",
      "pitch": 76,
      "t_note_us": 211912736,
      "t_trigger_us": 211776773,
      "is_ai": false,
      "track_id": 0,
      "velocity": 0,
      "is_motor": true,
      "motor_id": 3,
      "accel_val": 2000,
      "base_duration_us": 756815
    },
    {
      "id": "M_1318",
      "pitch": 96,
      "t_note_us": 212330916,
      "t_trigger_us": 212194953,
      "is_ai": true,
      "track_id": 10,
      "velocity": 0,
      "is_motor": false,
      "motor_id": 0,
      "accel_val": 2000,
      "base_duration_us": 418180
    },
    {
      "id": "M_1319",
      "pitch": 63,
      "t_note_us": 212365006,
      "t_trigger_us": 212229043,
      "is_ai": false,
      "track_id": 0,
      "velocity": 0,
      "is_motor": true,
      "motor_id": 1,
      "accel_val": 2000,
      "base_duration_us": 756816
    },
    {
      "id": "M_1317",
      "pitch": 70,
      "t_note_us": 212587733,
      "t_trigger_us": 212451770,
      "is_ai": false,
      "track_id": 0,
      "velocity": 0,
      "is_motor": true,
      "motor_id": 2,
      "accel_val": 2000,
      "base_duration_us": 161363
    },
    {
      "id": "M_1320",
      "pitch": 75,
      "t_note_us": 212669551,
      "t_trigger_us": 212533588,
      "is_ai": false,
      "track_id": 0,
      "velocity": 0,
      "is_motor": true,
      "motor_id": 3,
      "accel_val": 2000,
      "base_duration_us": 509089
    },
    {
      "id": "M_1321",
      "pitch": 70,
      "t_note_us": 212762732,
      "t_trigger_us": 212626769,
      "is_ai": true,
      "track_id": 0,
      "velocity": 0,
      "is_motor": true,
      "motor_id": 2,
      "accel_val": 2000,
      "base_duration_us": 415908
    },
    {
      "id": "M_1329",
      "pitch": 70,
      "t_note_us": 212762732,
      "t_trigger_us": 212626769,
      "is_ai": false,
      "track_id": 0,
      "velocity": 0,
      "is_motor": true,
      "motor_id": 0,
      "accel_val": 2000,
      "base_duration_us": 1509083
    },
    {
      "id": "M_1322",
      "pitch": 70,
      "t_note_us": 213178640,
      "t_trigger_us": 213042677,
      "is_ai": true,
      "track_id": 0,
      "velocity": 0,
      "is_motor": true,
      "motor_id": 1,
      "accel_val": 2000,
      "base_duration_us": 534089
    },
    {
      "id": "M_1326",
      "pitch": 67,
      "t_note_us": 213178640,
      "t_trigger_us": 213042677,
      "is_ai": false,
      "track_id": 0,
      "velocity": 0,
      "is_motor": true,
      "motor_id": 2,
      "accel_val": 2000,
      "base_duration_us": 847724
    },
    {
      "id": "M_1325",
      "pitch": 75,
      "t_note_us": 213192276,
      "t_trigger_us": 213056313,
      "is_ai": false,
      "track_id": 0,
      "velocity": 0,
      "is_motor": true,
      "motor_id": 3,
      "accel_val": 2000,
      "base_duration_us": 834088
    },
    {
      "id": "M_1324",
      "pitch": 63,
      "t_note_us": 213294548,
      "t_trigger_us": 213158585,
      "is_ai": false,
      "track_id": 0,
      "velocity": 0,
      "is_motor": true,
      "motor_id": 0,
      "accel_val": 2000,
      "base_duration_us": 686362
    },
    {
      "id": "M_1323",
      "pitch": 91,
      "t_note_us": 213621820,
      "t_trigger_us": 213485857,
      "is_ai": true,
      "track_id": 7,
      "velocity": 0,
      "is_motor": false,
      "motor_id": 0,
      "accel_val": 2000,
      "base_duration_us": 336363
    },
    {
      "id": "M_1327",
      "pitch": 103,
      "t_note_us": 213621820,
      "t_trigger_us": 213485857,
      "is_ai": true,
      "track_id": 14,
      "velocity": 0,
      "is_motor": false,
      "motor_id": 0,
      "accel_val": 2000,
      "base_duration_us": 404544
    },
    {
      "id": "M_1332",
      "pitch": 101,
      "t_note_us": 214051363,
      "t_trigger_us": 213915400,
      "is_ai": true,
      "track_id": 13,
      "velocity": 0,
      "is_motor": false,
      "motor_id": 0,
      "accel_val": 2000,
      "base_duration_us": 593177
    },
    {
      "id": "M_1328",
      "pitch": 69,
      "t_note_us": 214051363,
      "t_trigger_us": 213915400,
      "is_ai": false,
      "track_id": 0,
      "velocity": 0,
      "is_motor": true,
      "motor_id": 1,
      "accel_val": 2000,
      "base_duration_us": 149999
    },
    {
      "id": "M_1331",
      "pitch": 74,
      "t_note_us": 214062726,
      "t_trigger_us": 213926763,
      "is_ai": false,
      "track_id": 0,
      "velocity": 0,
      "is_motor": true,
      "motor_id": 2,
      "accel_val": 2000,
      "base_duration_us": 556815
    },
    {
      "id": "M_1330",
      "pitch": 62,
      "t_note_us": 214235452,
      "t_trigger_us": 214099489,
      "is_ai": false,
      "track_id": 0,
      "velocity": 0,
      "is_motor": true,
      "motor_id": 1,
      "accel_val": 2000,
      "base_duration_us": 163635
    },
    {
      "id": "M_1335",
      "pitch": 70,
      "t_note_us": 214480905,
      "t_trigger_us": 214344942,
      "is_ai": false,
      "track_id": 0,
      "velocity": 0,
      "is_motor": true,
      "motor_id": 1,
      "accel_val": 2000,
      "base_duration_us": 859087
    },
    {
      "id": "M_1333",
      "pitch": 62,
      "t_note_us": 214633177,
      "t_trigger_us": 214497214,
      "is_ai": false,
      "track_id": 0,
      "velocity": 0,
      "is_motor": true,
      "motor_id": 0,
      "accel_val": 2000,
      "base_duration_us": 161363
    },
    {
      "id": "M_1336",
      "pitch": 77,
      "t_note_us": 214899085,
      "t_trigger_us": 214763122,
      "is_ai": false,
      "track_id": 0,
      "velocity": 0,
      "is_motor": true,
      "motor_id": 2,
      "accel_val": 2000,
      "base_duration_us": 881814
    },
    {
      "id": "M_1334",
      "pitch": 101,
      "t_note_us": 214944539,
      "t_trigger_us": 214808576,
      "is_ai": true,
      "track_id": 13,
      "velocity": 0,
      "is_motor": false,
      "motor_id": 0,
      "accel_val": 2000,
      "base_duration_us": 245454
    },
    {
      "id": "M_1337",
      "pitch": 70,
      "t_note_us": 215328629,
      "t_trigger_us": 215192666,
      "is_ai": false,
      "track_id": 0,
      "velocity": 0,
      "is_motor": true,
      "motor_id": 0,
      "accel_val": 2000,
      "base_duration_us": 568178
    },
    {
      "id": "M_1338",
      "pitch": 70,
      "t_note_us": 215339992,
      "t_trigger_us": 215204029,
      "is_ai": false,
      "track_id": 0,
      "velocity": 0,
      "is_motor": true,
      "motor_id": 1,
      "accel_val": 2000,
      "base_duration_us": 627268
    },
    {
      "id": "M_1341",
      "pitch": 103,
      "t_note_us": 215758173,
      "t_trigger_us": 215622210,
      "is_ai": true,
      "track_id": 14,
      "velocity": 0,
      "is_motor": false,
      "motor_id": 0,
      "accel_val": 2000,
      "base_duration_us": 429539
    },
    {
      "id": "M_1339",
      "pitch": 67,
      "t_note_us": 215769536,
      "t_trigger_us": 215633573,
      "is_ai": false,
      "track_id": 0,
      "velocity": 0,
      "is_motor": true,
      "motor_id": 3,
      "accel_val": 2000,
      "base_duration_us": 256814
    },
    {
      "id": "M_1342",
      "pitch": 72,
      "t_note_us": 215780899,
      "t_trigger_us": 215644936,
      "is_ai": false,
      "track_id": 0,
      "velocity": 0,
      "is_motor": true,
      "motor_id": 2,
      "accel_val": 2000,
      "base_duration_us": 418176
    },
    {
      "id": "M_1349",
      "pitch": 60,
      "t_note_us": 215817262,
      "t_trigger_us": 215681299,
      "is_ai": false,
      "track_id": 0,
      "velocity": 0,
      "is_motor": true,
      "motor_id": 0,
      "accel_val": 2000,
      "base_duration_us": 1568173
    },
    {
      "id": "M_1340",
      "pitch": 77,
      "t_note_us": 215908170,
      "t_trigger_us": 215772207,
      "is_ai": false,
      "track_id": 0,
      "velocity": 0,
      "is_motor": true,
      "motor_id": 0,
      "accel_val": 2000,
      "base_duration_us": 152270
    },
    {
      "id": "M_1343",
      "pitch": 67,
      "t_note_us": 216176349,
      "t_trigger_us": 216040386,
      "is_ai": false,
      "track_id": 0,
      "velocity": 0,
      "is_motor": true,
      "motor_id": 1,
      "accel_val": 2000,
      "base_duration_us": 443180
    },
    {
      "id": "M_1348",
      "pitch": 101,
      "t_note_us": 216187712,
      "t_trigger_us": 216051749,
      "is_ai": true,
      "track_id": 13,
      "velocity": 0,
      "is_motor": false,
      "motor_id": 0,
      "accel_val": 2000,
      "base_duration_us": 1127269
    },
    {
      "id": "M_1344",
      "pitch": 72,
      "t_note_us": 216199075,
      "t_trigger_us": 216063112,
      "is_ai": false,
      "track_id": 0,
      "velocity": 0,
      "is_motor": true,
      "motor_id": 0,
      "accel_val": 2000,
      "base_duration_us": 431817
    },
    {
      "id": "M_1345",
      "pitch": 75,
      "t_note_us": 216571802,
      "t_trigger_us": 216435839,
      "is_ai": false,
      "track_id": 0,
      "velocity": 0,
      "is_motor": true,
      "motor_id": 2,
      "accel_val": 2000,
      "base_duration_us": 152271
    },
    {
      "id": "M_1347",
      "pitch": 98,
      "t_note_us": 216619529,
      "t_trigger_us": 216483566,
      "is_ai": true,
      "track_id": 11,
      "velocity": 0,
      "is_motor": false,
      "motor_id": 0,
      "accel_val": 2000,
      "base_duration_us": 463634
    },
    {
      "id": "M_1351",
      "pitch": 67,
      "t_note_us": 216619529,
      "t_trigger_us": 216483566,
      "is_ai": false,
      "track_id": 0,
      "velocity": 0,
      "is_motor": true,
      "motor_id": 1,
      "accel_val": 2000,
      "base_duration_us": 799996
    },
    {
      "id": "M_1352",
      "pitch": 67,
      "t_note_us": 216619529,
      "t_trigger_us": 216483566,
      "is_ai": false,
      "track_id": 0,
      "velocity": 0,
      "is_motor": true,
      "motor_id": 3,
      "accel_val": 2000,
      "base_duration_us": 799996
    },
    {
      "id": "M_1350",
      "pitch": 72,
      "t_note_us": 216630892,
      "t_trigger_us": 216494929,
      "is_ai": false,
      "track_id": 0,
      "velocity": 0,
      "is_motor": true,
      "motor_id": 0,
      "accel_val": 2000,
      "base_duration_us": 765906
    },
    {
      "id": "M_1346",
      "pitch": 75,
      "t_note_us": 216724073,
      "t_trigger_us": 216588110,
      "is_ai": false,
      "track_id": 0,
      "velocity": 0,
      "is_motor": true,
      "motor_id": 2,
      "accel_val": 2000,
      "base_duration_us": 347727
    },
    {
      "id": "M_1354",
      "pitch": 96,
      "t_note_us": 217049073,
      "t_trigger_us": 216913110,
      "is_ai": true,
      "track_id": 10,
      "velocity": 0,
      "is_motor": false,
      "motor_id": 0,
      "accel_val": 2000,
      "base_duration_us": 463632
    },
    {
      "id": "M_1353",
      "pitch": 75,
      "t_note_us": 217071800,
      "t_trigger_us": 216935837,
      "is_ai": false,
      "track_id": 0,
      "velocity": 0,
      "is_motor": true,
      "motor_id": 2,
      "accel_val": 2000,
      "base_duration_us": 418178
    },
    {
      "id": "M_1359",
      "pitch": 70,
      "t_note_us": 217478615,
      "t_trigger_us": 217342652,
      "is_ai": true,
      "track_id": 0,
      "velocity": 0,
      "is_motor": true,
      "motor_id": 1,
      "accel_val": 2000,
      "base_duration_us": 799995
    },
    {
      "id": "M_1355",
      "pitch": 69,
      "t_note_us": 217489978,
      "t_trigger_us": 217354015,
      "is_ai": false,
      "track_id": 0,
      "velocity": 0,
      "is_motor": true,
      "motor_id": 2,
      "accel_val": 2000,
      "base_duration_us": 184090
    },
    {
      "id": "M_1357",
      "pitch": 74,
      "t_note_us": 217489978,
      "t_trigger_us": 217354015,
      "is_ai": false,
      "track_id": 0,
      "velocity": 0,
      "is_motor": true,
      "motor_id": 0,
      "accel_val": 2000,
      "base_duration_us": 556815
    },
    {
      "id": "M_1356",
      "pitch": 62,
      "t_note_us": 217628614,
      "t_trigger_us": 217492651,
      "is_ai": false,
      "track_id": 0,
      "velocity": 0,
      "is_motor": true,
      "motor_id": 3,
      "accel_val": 2000,
      "base_duration_us": 209090
    },
    {
      "id": "M_1365",
      "pitch": 70,
      "t_note_us": 217896794,
      "t_trigger_us": 217760831,
      "is_ai": false,
      "track_id": 0,
      "velocity": 0,
      "is_motor": true,
      "motor_id": 2,
      "accel_val": 2000,
      "base_duration_us": 1486355
    },
    {
      "id": "M_1358",
      "pitch": 62,
      "t_note_us": 218035430,
      "t_trigger_us": 217899467,
      "is_ai": false,
      "track_id": 0,
      "velocity": 0,
      "is_motor": true,
      "motor_id": 3,
      "accel_val": 2000,
      "base_duration_us": 209090
    },
    {
      "id": "M_1363",
      "pitch": 91,
      "t_note_us": 218337700,
      "t_trigger_us": 218201737,
      "is_ai": true,
      "track_id": 7,
      "velocity": 0,
      "is_motor": false,
      "motor_id": 0,
      "accel_val": 2000,
      "base_duration_us": 777268
    },
    {
      "id": "M_1366",
      "pitch": 77,
      "t_note_us": 218337700,
      "t_trigger_us": 218201737,
      "is_ai": false,
      "track_id": 0,
      "velocity": 0,
      "is_motor": true,
      "motor_id": 1,
      "accel_val": 2000,
      "base_duration_us": 1231812
    },
    {
      "id": "M_1360",
      "pitch": 96,
      "t_note_us": 218349063,
      "t_trigger_us": 218213100,
      "is_ai": true,
      "track_id": 10,
      "velocity": 0,
      "is_motor": false,
      "motor_id": 0,
      "accel_val": 2000,
      "base_duration_us": 150000
    },
    {
      "id": "M_1361",
      "pitch": 74,
      "t_note_us": 218651335,
      "t_trigger_us": 218515372,
      "is_ai": false,
      "track_id": 0,
      "velocity": 0,
      "is_motor": true,
      "motor_id": 0,
      "accel_val": 2000,
      "base_duration_us": 395453
    },
    {
      "id": "M_1364",
      "pitch": 70,
      "t_note_us": 218755880,
      "t_trigger_us": 218619917,
      "is_ai": true,
      "track_id": 0,
      "velocity": 0,
      "is_motor": true,
      "motor_id": 3,
      "accel_val": 2000,
      "base_duration_us": 429542
    },
    {
      "id": "M_1362",
      "pitch": 70,
      "t_note_us": 218767243,
      "t_trigger_us": 218631280,
      "is_ai": false,
      "track_id": 0,
      "velocity": 0,
      "is_motor": true,
      "motor_id": 0,
      "accel_val": 2000,
      "base_duration_us": 313635
    },
    {
      "id": "M_1367",
      "pitch": 64,
      "t_note_us": 219162695,
      "t_trigger_us": 219026732,
      "is_ai": false,
      "track_id": 0,
      "velocity": 0,
      "is_motor": true,
      "motor_id": 0,
      "accel_val": 2000,
      "base_duration_us": 615907
    },
    {
      "id": "M_1369",
      "pitch": 96,
      "t_note_us": 219185422,
      "t_trigger_us": 219049459,
      "is_ai": true,
      "track_id": 10,
      "velocity": 0,
      "is_motor": false,
      "motor_id": 0,
      "accel_val": 2000,
      "base_duration_us": 870452
    },
    {
      "id": "M_1368",
      "pitch": 76,
      "t_note_us": 219569512,
      "t_trigger_us": 219433549,
      "is_ai": false,
      "track_id": 0,
      "velocity": 0,
      "is_motor": true,
      "motor_id": 2,
      "accel_val": 2000,
      "base_duration_us": 474999
    },
    {
      "id": "M_1370",
      "pitch": 72,
      "t_note_us": 219626330,
      "t_trigger_us": 219490367,
      "is_ai": false,
      "track_id": 0,
      "velocity": 0,
      "is_motor": true,
      "motor_id": 1,
      "accel_val": 2000,
      "base_duration_us": 870452
    },
    {
      "id": "M_1374",
      "pitch": 64,
      "t_note_us": 219778602,
      "t_trigger_us": 219642639,
      "is_ai": false,
      "track_id": 0,
      "velocity": 0,
      "is_motor": true,
      "motor_id": 0,
      "accel_val": 2000,
      "base_duration_us": 1090905
    },
    {
      "id": "M_1372",
      "pitch": 96,
      "t_note_us": 220055874,
      "t_trigger_us": 219919911,
      "is_ai": true,
      "track_id": 10,
      "velocity": 0,
      "is_motor": false,
      "motor_id": 0,
      "accel_val": 2000,
      "base_duration_us": 452271
    },
    {
      "id": "M_1371",
      "pitch": 76,
      "t_note_us": 220055874,
      "t_trigger_us": 219919911,
      "is_ai": false,
      "track_id": 0,
      "velocity": 0,
      "is_motor": true,
      "motor_id": 2,
      "accel_val": 2000,
      "base_duration_us": 452271
    },
    {
      "id": "M_1375",
      "pitch": 70,
      "t_note_us": 220474055,
      "t_trigger_us": 220338092,
      "is_ai": true,
      "track_id": 0,
      "velocity": 0,
      "is_motor": true,
      "motor_id": 3,
      "accel_val": 2000,
      "base_duration_us": 431814
    },
    {
      "id": "M_1376",
      "pitch": 72,
      "t_note_us": 220496782,
      "t_trigger_us": 220360819,
      "is_ai": false,
      "track_id": 0,
      "velocity": 0,
      "is_motor": true,
      "motor_id": 1,
      "accel_val": 2000,
      "base_duration_us": 431814
    },
    {
      "id": "M_1373",
      "pitch": 76,
      "t_note_us": 220674054,
      "t_trigger_us": 220538091,
      "is_ai": false,
      "track_id": 0,
      "velocity": 0,
      "is_motor": true,
      "motor_id": 2,
      "accel_val": 2000,
      "base_duration_us": 184090
    },
    {
      "id": "M_1378",
      "pitch": 96,
      "t_note_us": 220894506,
      "t_trigger_us": 220758543,
      "is_ai": true,
      "track_id": 10,
      "velocity": 0,
      "is_motor": false,
      "motor_id": 0,
      "accel_val": 2000,
      "base_duration_us": 534089
    },
    {
      "id": "M_1379",
      "pitch": 77,
      "t_note_us": 220894506,
      "t_trigger_us": 220758543,
      "is_ai": false,
      "track_id": 0,
      "velocity": 0,
      "is_motor": true,
      "motor_id": 2,
      "accel_val": 2000,
      "base_duration_us": 881815
    },
    {
      "id": "M_1380",
      "pitch": 65,
      "t_note_us": 220905869,
      "t_trigger_us": 220769906,
      "is_ai": false,
      "track_id": 0,
      "velocity": 0,
      "is_motor": true,
      "motor_id": 0,
      "accel_val": 2000,
      "base_duration_us": 1277270
    },
    {
      "id": "M_1377",
      "pitch": 72,
      "t_note_us": 220928596,
      "t_trigger_us": 220792633,
      "is_ai": false,
      "track_id": 0,
      "velocity": 0,
      "is_motor": true,
      "motor_id": 1,
      "accel_val": 2000,
      "base_duration_us": 395454
    },
    {
      "id": "M_1382",
      "pitch": 72,
      "t_note_us": 221324050,
      "t_trigger_us": 221188087,
      "is_ai": false,
      "track_id": 0,
      "velocity": 0,
      "is_motor": true,
      "motor_id": 1,
      "accel_val": 2000,
      "base_duration_us": 881815
    },
    {
      "id": "M_1383",
      "pitch": 70,
      "t_note_us": 221764958,
      "t_trigger_us": 221628995,
      "is_ai": true,
      "track_id": 0,
      "velocity": 0,
      "is_motor": true,
      "motor_id": 3,
      "accel_val": 2000,
      "base_duration_us": 765907
    },
    {
      "id": "M_1381",
      "pitch": 77,
      "t_note_us": 221776321,
      "t_trigger_us": 221640358,
      "is_ai": false,
      "track_id": 0,
      "velocity": 0,
      "is_motor": true,
      "motor_id": 2,
      "accel_val": 2000,
      "base_duration_us": 418181
    },
    {
      "id": "M_1387",
      "pitch": 65,
      "t_note_us": 222183139,
      "t_trigger_us": 222047176,
      "is_ai": false,
      "track_id": 0,
      "velocity": 0,
      "is_motor": true,
      "motor_id": 0,
      "accel_val": 2000,
      "base_duration_us": 649996
    },
    {
      "id": "M_1384",
      "pitch": 96,
      "t_note_us": 222194502,
      "t_trigger_us": 222058539,
      "is_ai": true,
      "track_id": 10,
      "velocity": 0,
      "is_motor": false,
      "motor_id": 0,
      "accel_val": 2000,
      "base_duration_us": 395453
    },
    {
      "id": "M_1385",
      "pitch": 77,
      "t_note_us": 222194502,
      "t_trigger_us": 222058539,
      "is_ai": false,
      "track_id": 0,
      "velocity": 0,
      "is_motor": true,
      "motor_id": 2,
      "accel_val": 2000,
      "base_duration_us": 559089
    },
    {
      "id": "M_1386",
      "pitch": 72,
      "t_note_us": 222205865,
      "t_trigger_us": 222069902,
      "is_ai": false,
      "track_id": 0,
      "velocity": 0,
      "is_motor": true,
      "motor_id": 1,
      "accel_val": 2000,
      "base_duration_us": 559089
    },
    {
      "id": "M_1393",
      "pitch": 70,
      "t_note_us": 222589955,
      "t_trigger_us": 222453992,
      "is_ai": false,
      "track_id": 0,
      "velocity": 0,
      "is_motor": true,
      "motor_id": 3,
      "accel_val": 2000,
      "base_duration_us": 893175
    },
    {
      "id": "M_1392",
      "pitch": 98,
      "t_note_us": 222612682,
      "t_trigger_us": 222476719,
      "is_ai": true,
      "track_id": 11,
      "velocity": 0,
      "is_motor": false,
      "motor_id": 0,
      "accel_val": 2000,
      "base_duration_us": 859085
    },
    {
      "id": "M_1388",
      "pitch": 74,
      "t_note_us": 222612682,
      "t_trigger_us": 222476719,
      "is_ai": false,
      "track_id": 0,
      "velocity": 0,
      "is_motor": true,
      "motor_id": 0,
      "accel_val": 2000,
      "base_duration_us": 372725
    },
    {
      "id": "M_1389",
      "pitch": 101,
      "t_note_us": 223042225,
      "t_trigger_us": 222906262,
      "is_ai": true,
      "track_id": 13,
      "velocity": 0,
      "is_motor": false,
      "motor_id": 0,
      "accel_val": 2000,
      "base_duration_us": 186362
    },
    {
      "id": "M_1390",
      "pitch": 74,
      "t_note_us": 223053588,
      "t_trigger_us": 222917625,
      "is_ai": false,
      "track_id": 0,
      "velocity": 0,
      "is_motor": true,
      "motor_id": 1,
      "accel_val": 2000,
      "base_duration_us": 324999
    },
    {
      "id": "M_1394",
      "pitch": 77,
      "t_note_us": 223053588,
      "t_trigger_us": 222917625,
      "is_ai": false,
      "track_id": 0,
      "velocity": 0,
      "is_motor": true,
      "motor_id": 2,
      "accel_val": 2000,
      "base_duration_us": 429542
    },
    {
      "id": "M_1391",
      "pitch": 58,
      "t_note_us": 223078587,
      "t_trigger_us": 222942624,
      "is_ai": false,
      "track_id": 0,
      "velocity": 0,
      "is_motor": true,
      "motor_id": 0,
      "accel_val": 2000,
      "base_duration_us": 324999
    },
    {
      "id": "M_1398",
      "pitch": 98,
      "t_note_us": 223471767,
      "t_trigger_us": 223335804,
      "is_ai": true,
      "track_id": 11,
      "velocity": 0,
      "is_motor": false,
      "motor_id": 0,
      "accel_val": 2000,
      "base_duration_us": 440907
    },
    {
      "id": "M_1395",
      "pitch": 70,
      "t_note_us": 223483130,
      "t_trigger_us": 223347167,
      "is_ai": false,
      "track_id": 0,
      "velocity": 0,
      "is_motor": true,
      "motor_id": 1,
      "accel_val": 2000,
      "base_duration_us": 418181
    },
    {
      "id": "M_1396",
      "pitch": 77,
      "t_note_us": 223483130,
      "t_trigger_us": 223347167,
      "is_ai": false,
      "track_id": 0,
      "velocity": 0,
      "is_motor": true,
      "motor_id": 2,
      "accel_val": 2000,
      "base_duration_us": 418181
    },
    {
      "id": "M_1397",
      "pitch": 70,
      "t_note_us": 223483130,
      "t_trigger_us": 223347167,
      "is_ai": false,
      "track_id": 0,
      "velocity": 0,
      "is_motor": true,
      "motor_id": 0,
      "accel_val": 2000,
      "base_duration_us": 418181
    },
    {
      "id": "M_1401",
      "pitch": 101,
      "t_note_us": 223901311,
      "t_trigger_us": 223765348,
      "is_ai": true,
      "track_id": 13,
      "velocity": 0,
      "is_motor": false,
      "motor_id": 0,
      "accel_val": 2000,
      "base_duration_us": 452270
    },
    {
      "id": "M_1400",
      "pitch": 70,
      "t_note_us": 223901311,
      "t_trigger_us": 223765348,
      "is_ai": false,
      "track_id": 0,
      "velocity": 0,
      "is_motor": true,
      "motor_id": 1,
      "accel_val": 2000,
      "base_duration_us": 406817
    },
    {
      "id": "M_1402",
      "pitch": 77,
      "t_note_us": 223901311,
      "t_trigger_us": 223765348,
      "is_ai": false,
      "track_id": 0,
      "velocity": 0,
      "is_motor": true,
      "motor_id": 2,
      "accel_val": 2000,
      "base_duration_us": 674997
    },
    {
      "id": "M_1403",
      "pitch": 70,
      "t_note_us": 223901311,
      "t_trigger_us": 223765348,
      "is_ai": false,
      "track_id": 0,
      "velocity": 0,
      "is_motor": true,
      "motor_id": 0,
      "accel_val": 2000,
      "base_duration_us": 709087
    },
    {
      "id": "M_1399",
      "pitch": 98,
      "t_note_us": 223912674,
      "t_trigger_us": 223776711,
      "is_ai": true,
      "track_id": 11,
      "velocity": 0,
      "is_motor": false,
      "motor_id": 0,
      "accel_val": 2000,
      "base_duration_us": 245454
    },
    {
      "id": "M_1411",
      "pitch": 64,
      "t_note_us": 224319491,
      "t_trigger_us": 224183528,
      "is_ai": false,
      "track_id": 0,
      "velocity": 0,
      "is_motor": true,
      "motor_id": 1,
      "accel_val": 2000,
      "base_duration_us": 1672717
    },
    {
      "id": "M_1404",
      "pitch": 103,
      "t_note_us": 224330854,
      "t_trigger_us": 224194891,
      "is_ai": true,
      "track_id": 14,
      "velocity": 0,
      "is_motor": false,
      "motor_id": 0,
      "accel_val": 2000,
      "base_duration_us": 502270
    },
    {
      "id": "M_1407",
      "pitch": 67,
      "t_note_us": 224762670,
      "t_trigger_us": 224626707,
      "is_ai": false,
      "track_id": 0,
      "velocity": 0,
      "is_motor": true,
      "motor_id": 2,
      "accel_val": 2000,
      "base_duration_us": 440905
    },
    {
      "id": "M_1405",
      "pitch": 76,
      "t_note_us": 224867214,
      "t_trigger_us": 224731251,
      "is_ai": false,
      "track_id": 0,
      "velocity": 0,
      "is_motor": true,
      "motor_id": 3,
      "accel_val": 2000,
      "base_duration_us": 254545
    },
    {
      "id": "M_1406",
      "pitch": 91,
      "t_note_us": 224924032,
      "t_trigger_us": 224788069,
      "is_ai": true,
      "track_id": 7,
      "velocity": 0,
      "is_motor": false,
      "motor_id": 0,
      "accel_val": 2000,
      "base_duration_us": 256817
    },
    {
      "id": "M_1408",
      "pitch": 103,
      "t_note_us": 225192212,
      "t_trigger_us": 225056249,
      "is_ai": true,
      "track_id": 14,
      "velocity": 0,
      "is_motor": false,
      "motor_id": 0,
      "accel_val": 2000,
      "base_duration_us": 370453
    },
    {
      "id": "M_1412",
      "pitch": 91,
      "t_note_us": 225192212,
      "t_trigger_us": 225056249,
      "is_ai": true,
      "track_id": 7,
      "velocity": 0,
      "is_motor": false,
      "motor_id": 0,
      "accel_val": 2000,
      "base_duration_us": 811359
    },
    {
      "id": "M_1410",
      "pitch": 70,
      "t_note_us": 225192212,
      "t_trigger_us": 225056249,
      "is_ai": false,
      "track_id": 0,
      "velocity": 0,
      "is_motor": true,
      "motor_id": 0,
      "accel_val": 2000,
      "base_duration_us": 429542
    },
    {
      "id": "M_1409",
      "pitch": 67,
      "t_note_us": 225203575,
      "t_trigger_us": 225067612,
      "is_ai": false,
      "track_id": 0,
      "velocity": 0,
      "is_motor": true,
      "motor_id": 2,
      "accel_val": 2000,
      "base_duration_us": 384089
    },
    {
      "id": "M_1413",
      "pitch": 76,
      "t_note_us": 225621754,
      "t_trigger_us": 225485791,
      "is_ai": false,
      "track_id": 0,
      "velocity": 0,
      "is_motor": true,
      "motor_id": 2,
      "accel_val": 2000,
      "base_duration_us": 429543
    },
    {
      "id": "M_1414",
      "pitch": 70,
      "t_note_us": 225621754,
      "t_trigger_us": 225485791,
      "is_ai": false,
      "track_id": 0,
      "velocity": 0,
      "is_motor": true,
      "motor_id": 0,
      "accel_val": 2000,
      "base_duration_us": 534088
    },
    {
      "id": "M_1416",
      "pitch": 96,
      "t_note_us": 226039934,
      "t_trigger_us": 225903971,
      "is_ai": true,
      "track_id": 10,
      "velocity": 0,
      "is_motor": false,
      "motor_id": 0,
      "accel_val": 2000,
      "base_duration_us": 429542
    },
    {
      "id": "M_1415",
      "pitch": 76,
      "t_note_us": 226051297,
      "t_trigger_us": 225915334,
      "is_ai": false,
      "track_id": 0,
      "velocity": 0,
      "is_motor": true,
      "motor_id": 2,
      "accel_val": 2000,
      "base_duration_us": 359089
    },
    {
      "id": "M_1420",
      "pitch": 63,
      "t_note_us": 226074024,
      "t_trigger_us": 225938061,
      "is_ai": false,
      "track_id": 0,
      "velocity": 0,
      "is_motor": true,
      "motor_id": 1,
      "accel_val": 2000,
      "base_duration_us": 1163631
    },
    {
      "id": "M_1417",
      "pitch": 70,
      "t_note_us": 226342205,
      "t_trigger_us": 226206242,
      "is_ai": false,
      "track_id": 0,
      "velocity": 0,
      "is_motor": true,
      "motor_id": 0,
      "accel_val": 2000,
      "base_duration_us": 138634
    },
    {
      "id": "M_1419",
      "pitch": 70,
      "t_note_us": 226469476,
      "t_trigger_us": 226333513,
      "is_ai": true,
      "track_id": 0,
      "velocity": 0,
      "is_motor": true,
      "motor_id": 2,
      "accel_val": 2000,
      "base_duration_us": 440907
    },
    {
      "id": "M_1418",
      "pitch": 75,
      "t_note_us": 226469476,
      "t_trigger_us": 226333513,
      "is_ai": false,
      "track_id": 0,
      "velocity": 0,
      "is_motor": true,
      "motor_id": 3,
      "accel_val": 2000,
      "base_duration_us": 395453
    },
    {
      "id": "M_1429",
      "pitch": 70,
      "t_note_us": 226480839,
      "t_trigger_us": 226344876,
      "is_ai": false,
      "track_id": 0,
      "velocity": 0,
      "is_motor": true,
      "motor_id": 0,
      "accel_val": 2000,
      "base_duration_us": 1556809
    },
    {
      "id": "M_1422",
      "pitch": 70,
      "t_note_us": 226910383,
      "t_trigger_us": 226774420,
      "is_ai": true,
      "track_id": 0,
      "velocity": 0,
      "is_motor": true,
      "motor_id": 2,
      "accel_val": 2000,
      "base_duration_us": 384089
    },
    {
      "id": "M_1421",
      "pitch": 70,
      "t_note_us": 226910383,
      "t_trigger_us": 226774420,
      "is_ai": false,
      "track_id": 0,
      "velocity": 0,
      "is_motor": true,
      "motor_id": 3,
      "accel_val": 2000,
      "base_duration_us": 361362
    },
    {
      "id": "M_1423",
      "pitch": 77,
      "t_note_us": 226910383,
      "t_trigger_us": 226774420,
      "is_ai": false,
      "track_id": 0,
      "velocity": 0,
      "is_motor": true,
      "motor_id": 0,
      "accel_val": 2000,
      "base_duration_us": 429542
    },
    {
      "id": "M_1425",
      "pitch": 96,
      "t_note_us": 227328562,
      "t_trigger_us": 227192599,
      "is_ai": true,
      "track_id": 10,
      "velocity": 0,
      "is_motor": false,
      "motor_id": 0,
      "accel_val": 2000,
      "base_duration_us": 324998
    },
    {
      "id": "M_1426",
      "pitch": 77,
      "t_note_us": 227339925,
      "t_trigger_us": 227203962,
      "is_ai": false,
      "track_id": 0,
      "velocity": 0,
      "is_motor": true,
      "motor_id": 2,
      "accel_val": 2000,
      "base_duration_us": 395453
    },
    {
      "id": "M_1427",
      "pitch": 67,
      "t_note_us": 227339925,
      "t_trigger_us": 227203962,
      "is_ai": false,
      "track_id": 0,
      "velocity": 0,
      "is_motor": true,
      "motor_id": 1,
      "accel_val": 2000,
      "base_duration_us": 406816
    },
    {
      "id": "M_1424",
      "pitch": 63,
      "t_note_us": 227469470,
      "t_trigger_us": 227333507,
      "is_ai": false,
      "track_id": 0,
      "velocity": 0,
      "is_motor": true,
      "motor_id": 3,
      "accel_val": 2000,
      "base_duration_us": 184090
    },
    {
      "id": "M_1428",
      "pitch": 70,
      "t_note_us": 227758104,
      "t_trigger_us": 227622141,
      "is_ai": true,
      "track_id": 0,
      "velocity": 0,
      "is_motor": true,
      "motor_id": 1,
      "accel_val": 2000,
      "base_duration_us": 209090
    },
    {
      "id": "M_1430",
      "pitch": 75,
      "t_note_us": 227769467,
      "t_trigger_us": 227633504,
      "is_ai": false,
      "track_id": 0,
      "velocity": 0,
      "is_motor": true,
      "motor_id": 2,
      "accel_val": 2000,
      "base_duration_us": 849998
    },
    {
      "id": "M_1431",
      "pitch": 78,
      "t_note_us": 227769467,
      "t_trigger_us": 227633504,
      "is_ai": false,
      "track_id": 0,
      "velocity": 0,
      "is_motor": true,
      "motor_id": 3,
      "accel_val": 2000,
      "base_duration_us": 1186361
    },
    {
      "id": "M_1433",
      "pitch": 70,
      "t_note_us": 228608102,
      "t_trigger_us": 228472139,
      "is_ai": false,
      "track_id": 0,
      "velocity": 0,
      "is_motor": true,
      "motor_id": 1,
      "accel_val": 2000,
      "base_duration_us": 859088
    },
    {
      "id": "M_1432",
      "pitch": 75,
      "t_note_us": 228619465,
      "t_trigger_us": 228483502,
      "is_ai": false,
      "track_id": 0,
      "velocity": 0,
      "is_motor": true,
      "motor_id": 2,
      "accel_val": 2000,
      "base_duration_us": 429544
    },
    {
      "id": "M_1434",
      "pitch": 75,
      "t_note_us": 229049009,
      "t_trigger_us": 228913046,
      "is_ai": false,
      "track_id": 0,
      "velocity": 0,
      "is_motor": true,
      "motor_id": 2,
      "accel_val": 2000,
      "base_duration_us": 488634
    },
    {
      "id": "M_1439",
      "pitch": 101,
      "t_note_us": 229467190,
      "t_trigger_us": 229331227,
      "is_ai": true,
      "track_id": 13,
      "velocity": 0,
      "is_motor": false,
      "motor_id": 0,
      "accel_val": 2000,
      "base_duration_us": 870450
    },
    {
      "id": "M_1436",
      "pitch": 70,
      "t_note_us": 229467190,
      "t_trigger_us": 229331227,
      "is_ai": false,
      "track_id": 0,
      "velocity": 0,
      "is_motor": true,
      "motor_id": 1,
      "accel_val": 2000,
      "base_duration_us": 440906
    },
    {
      "id": "M_1435",
      "pitch": 74,
      "t_note_us": 229478553,
      "t_trigger_us": 229342590,
      "is_ai": false,
      "track_id": 0,
      "velocity": 0,
      "is_motor": true,
      "motor_id": 0,
      "accel_val": 2000,
      "base_duration_us": 243180
    },
    {
      "id": "M_1437",
      "pitch": 74,
      "t_note_us": 229537643,
      "t_trigger_us": 229401680,
      "is_ai": false,
      "track_id": 0,
      "velocity": 0,
      "is_motor": true,
      "motor_id": 2,
      "accel_val": 2000,
      "base_duration_us": 381816
    },
    {
      "id": "M_1438",
      "pitch": 93,
      "t_note_us": 229896733,
      "t_trigger_us": 229760770,
      "is_ai": true,
      "track_id": 8,
      "velocity": 0,
      "is_motor": false,
      "motor_id": 0,
      "accel_val": 2000,
      "base_duration_us": 138635
    },
    {
      "id": "M_1442",
      "pitch": 69,
      "t_note_us": 229908096,
      "t_trigger_us": 229772133,
      "is_ai": false,
      "track_id": 0,
      "velocity": 0,
      "is_motor": true,
      "motor_id": 1,
      "accel_val": 2000,
      "base_duration_us": 847725
    },
    {
      "id": "M_1440",
      "pitch": 74,
      "t_note_us": 229919459,
      "t_trigger_us": 229783496,
      "is_ai": false,
      "track_id": 0,
      "velocity": 0,
      "is_motor": true,
      "motor_id": 0,
      "accel_val": 2000,
      "base_duration_us": 429544
    },
    {
      "id": "M_1444",
      "pitch": 101,
      "t_note_us": 230337640,
      "t_trigger_us": 230201677,
      "is_ai": true,
      "track_id": 13,
      "velocity": 0,
      "is_motor": false,
      "motor_id": 0,
      "accel_val": 2000,
      "base_duration_us": 790908
    },
    {
      "id": "M_1443",
      "pitch": 86,
      "t_note_us": 230349003,
      "t_trigger_us": 230213040,
      "is_ai": true,
      "track_id": 4,
      "velocity": 0,
      "is_motor": false,
      "motor_id": 0,
      "accel_val": 2000,
      "base_duration_us": 406818
    },
    {
      "id": "M_1441",
      "pitch": 74,
      "t_note_us": 230349003,
      "t_trigger_us": 230213040,
      "is_ai": false,
      "track_id": 0,
      "velocity": 0,
      "is_motor": true,
      "motor_id": 0,
      "accel_val": 2000,
      "base_duration_us": 406818
    },
    {
      "id": "M_1445",
      "pitch": 98,
      "t_note_us": 230755821,
      "t_trigger_us": 230619858,
      "is_ai": true,
      "track_id": 11,
      "velocity": 0,
      "is_motor": false,
      "motor_id": 0,
      "accel_val": 2000,
      "base_duration_us": 418181
    },
    {
      "id": "M_1447",
      "pitch": 74,
      "t_note_us": 230755821,
      "t_trigger_us": 230619858,
      "is_ai": false,
      "track_id": 0,
      "velocity": 0,
      "is_motor": true,
      "motor_id": 1,
      "accel_val": 2000,
      "base_duration_us": 547725
    },
    {
      "id": "M_1448",
      "pitch": 69,
      "t_note_us": 230755821,
      "t_trigger_us": 230619858,
      "is_ai": false,
      "track_id": 0,
      "velocity": 0,
      "is_motor": true,
      "motor_id": 2,
      "accel_val": 2000,
      "base_duration_us": 790906
    },
    {
      "id": "M_1451",
      "pitch": 74,
      "t_note_us": 230755821,
      "t_trigger_us": 230619858,
      "is_ai": false,
      "track_id": 0,
      "velocity": 0,
      "is_motor": true,
      "motor_id": 0,
      "accel_val": 2000,
      "base_duration_us": 929541
    },
    {
      "id": "M_1446",
      "pitch": 67,
      "t_note_us": 231151275,
      "t_trigger_us": 231015312,
      "is_ai": false,
      "track_id": 0,
      "velocity": 0,
      "is_motor": true,
      "motor_id": 3,
      "accel_val": 2000,
      "base_duration_us": 152271
    },
    {
      "id": "M_1449",
      "pitch": 93,
      "t_note_us": 231185365,
      "t_trigger_us": 231049402,
      "is_ai": true,
      "track_id": 8,
      "velocity": 0,
      "is_motor": false,
      "motor_id": 0,
      "accel_val": 2000,
      "base_duration_us": 431816
    },
    {
      "id": "M_1453",
      "pitch": 67,
      "t_note_us": 231199001,
      "t_trigger_us": 231063038,
      "is_ai": false,
      "track_id": 0,
      "velocity": 0,
      "is_motor": true,
      "motor_id": 0,
      "accel_val": 2000,
      "base_duration_us": 834087
    },
    {
      "id": "M_1450",
      "pitch": 74,
      "t_note_us": 231535364,
      "t_trigger_us": 231399401,
      "is_ai": false,
      "track_id": 0,
      "velocity": 0,
      "is_motor": true,
      "motor_id": 1,
      "accel_val": 2000,
      "base_duration_us": 138635
    },
    {
      "id": "M_1454",
      "pitch": 70,
      "t_note_us": 231617181,
      "t_trigger_us": 231481218,
      "is_ai": true,
      "track_id": 0,
      "velocity": 0,
      "is_motor": true,
      "motor_id": 2,
      "accel_val": 2000,
      "base_duration_us": 440906
    },
    {
      "id": "M_1455",
      "pitch": 74,
      "t_note_us": 231685362,
      "t_trigger_us": 231549399,
      "is_ai": false,
      "track_id": 0,
      "velocity": 0,
      "is_motor": true,
      "motor_id": 1,
      "accel_val": 2000,
      "base_duration_us": 384088
    },
    {
      "id": "M_1452",
      "pitch": 74,
      "t_note_us": 231823998,
      "t_trigger_us": 231688035,
      "is_ai": false,
      "track_id": 0,
      "velocity": 0,
      "is_motor": true,
      "motor_id": 0,
      "accel_val": 2000,
      "base_duration_us": 163636
    },
    {
      "id": "M_1456",
      "pitch": 67,
      "t_note_us": 232033088,
      "t_trigger_us": 231897125,
      "is_ai": false,
      "track_id": 0,
      "velocity": 0,
      "is_motor": true,
      "motor_id": 0,
      "accel_val": 2000,
      "base_duration_us": 397725
    },
    {
      "id": "M_1458",
      "pitch": 70,
      "t_note_us": 232046724,
      "t_trigger_us": 231910761,
      "is_ai": true,
      "track_id": 0,
      "velocity": 0,
      "is_motor": true,
      "motor_id": 3,
      "accel_val": 2000,
      "base_duration_us": 452269
    },
    {
      "id": "M_1457",
      "pitch": 67,
      "t_note_us": 232046724,
      "t_trigger_us": 231910761,
      "is_ai": false,
      "track_id": 0,
      "velocity": 0,
      "is_motor": true,
      "motor_id": 0,
      "accel_val": 2000,
      "base_duration_us": 406816
    },
    {
      "id": "M_1461",
      "pitch": 74,
      "t_note_us": 232069450,
      "t_trigger_us": 231933487,
      "is_ai": false,
      "track_id": 0,
      "velocity": 0,
      "is_motor": true,
      "motor_id": 1,
      "accel_val": 2000,
      "base_duration_us": 813632
    },
    {
      "id": "M_1462",
      "pitch": 96,
      "t_note_us": 232464903,
      "t_trigger_us": 232328940,
      "is_ai": true,
      "track_id": 10,
      "velocity": 0,
      "is_motor": false,
      "motor_id": 0,
      "accel_val": 2000,
      "base_duration_us": 452269
    },
    {
      "id": "M_1460",
      "pitch": 70,
      "t_note_us": 232498993,
      "t_trigger_us": 232363030,
      "is_ai": true,
      "track_id": 0,
      "velocity": 0,
      "is_motor": true,
      "motor_id": 2,
      "accel_val": 2000,
      "base_duration_us": 361362
    },
    {
      "id": "M_1459",
      "pitch": 67,
      "t_note_us": 232580811,
      "t_trigger_us": 232444848,
      "is_ai": false,
      "track_id": 0,
      "velocity": 0,
      "is_motor": true,
      "motor_id": 0,
      "accel_val": 2000,
      "base_duration_us": 220454
    },
    {
      "id": "M_1463",
      "pitch": 72,
      "t_note_us": 232778538,
      "t_trigger_us": 232642575,
      "is_ai": false,
      "track_id": 0,
      "velocity": 0,
      "is_motor": true,
      "motor_id": 3,
      "accel_val": 2000,
      "base_duration_us": 186361
    },
    {
      "id": "M_1464",
      "pitch": 91,
      "t_note_us": 232905809,
      "t_trigger_us": 232769846,
      "is_ai": true,
      "track_id": 7,
      "velocity": 0,
      "is_motor": false,
      "motor_id": 0,
      "accel_val": 2000,
      "base_duration_us": 290908
    },
    {
      "id": "M_1466",
      "pitch": 98,
      "t_note_us": 232905809,
      "t_trigger_us": 232769846,
      "is_ai": true,
      "track_id": 11,
      "velocity": 0,
      "is_motor": false,
      "motor_id": 0,
      "accel_val": 2000,
      "base_duration_us": 429544
    },
    {
      "id": "M_1465",
      "pitch": 67,
      "t_note_us": 232905809,
      "t_trigger_us": 232769846,
      "is_ai": false,
      "track_id": 0,
      "velocity": 0,
      "is_motor": true,
      "motor_id": 1,
      "accel_val": 2000,
      "base_duration_us": 429544
    },
    {
      "id": "M_1474",
      "pitch": 75,
      "t_note_us": 232905809,
      "t_trigger_us": 232769846,
      "is_ai": false,
      "track_id": 0,
      "velocity": 0,
      "is_motor": true,
      "motor_id": 2,
      "accel_val": 2000,
      "base_duration_us": 1720449
    },
    {
      "id": "M_1467",
      "pitch": 72,
      "t_note_us": 232964899,
      "t_trigger_us": 232828936,
      "is_ai": false,
      "track_id": 0,
      "velocity": 0,
      "is_motor": true,
      "motor_id": 0,
      "accel_val": 2000,
      "base_duration_us": 393181
    },
    {
      "id": "M_1468",
      "pitch": 98,
      "t_note_us": 233335353,
      "t_trigger_us": 233199390,
      "is_ai": true,
      "track_id": 11,
      "velocity": 0,
      "is_motor": false,
      "motor_id": 0,
      "accel_val": 2000,
      "base_duration_us": 581816
    },
    {
      "id": "M_1472",
      "pitch": 67,
      "t_note_us": 233335353,
      "t_trigger_us": 233199390,
      "is_ai": false,
      "track_id": 0,
      "velocity": 0,
      "is_motor": true,
      "motor_id": 1,
      "accel_val": 2000,
      "base_duration_us": 1138633
    },
    {
      "id": "M_1470",
      "pitch": 72,
      "t_note_us": 233358080,
      "t_trigger_us": 233222117,
      "is_ai": false,
      "track_id": 0,
      "velocity": 0,
      "is_motor": true,
      "motor_id": 0,
      "accel_val": 2000,
      "base_duration_us": 836361
    },
    {
      "id": "M_1475",
      "pitch": 70,
      "t_note_us": 233764898,
      "t_trigger_us": 233628935,
      "is_ai": false,
      "track_id": 0,
      "velocity": 0,
      "is_motor": true,
      "motor_id": 3,
      "accel_val": 2000,
      "base_duration_us": 872723
    },
    {
      "id": "M_1469",
      "pitch": 91,
      "t_note_us": 233823988,
      "t_trigger_us": 233688025,
      "is_ai": true,
      "track_id": 7,
      "velocity": 0,
      "is_motor": false,
      "motor_id": 0,
      "accel_val": 2000,
      "base_duration_us": 359090
    },
    {
      "id": "M_1471",
      "pitch": 91,
      "t_note_us": 234194441,
      "t_trigger_us": 234058478,
      "is_ai": true,
      "track_id": 7,
      "velocity": 0,
      "is_motor": false,
      "motor_id": 0,
      "accel_val": 2000,
      "base_duration_us": 256818
    },
    {
      "id": "M_1473",
      "pitch": 72,
      "t_note_us": 234194441,
      "t_trigger_us": 234058478,
      "is_ai": false,
      "track_id": 0,
      "velocity": 0,
      "is_motor": true,
      "motor_id": 0,
      "accel_val": 2000,
      "base_duration_us": 431817
    },
    {
      "id": "M_1477",
      "pitch": 96,
      "t_note_us": 234626258,
      "t_trigger_us": 234490295,
      "is_ai": true,
      "track_id": 10,
      "velocity": 0,
      "is_motor": false,
      "motor_id": 0,
      "accel_val": 2000,
      "base_duration_us": 556816
    },
    {
      "id": "M_1476",
      "pitch": 72,
      "t_note_us": 234626258,
      "t_trigger_us": 234490295,
      "is_ai": false,
      "track_id": 0,
      "velocity": 0,
      "is_motor": true,
      "motor_id": 1,
      "accel_val": 2000,
      "base_duration_us": 429544
    },
    {
      "id": "M_1478",
      "pitch": 75,
      "t_note_us": 234626258,
      "t_trigger_us": 234490295,
      "is_ai": false,
      "track_id": 0,
      "velocity": 0,
      "is_motor": true,
      "motor_id": 2,
      "accel_val": 2000,
      "base_duration_us": 1068178
    },
    {
      "id": "M_1479",
      "pitch": 65,
      "t_note_us": 234626258,
      "t_trigger_us": 234490295,
      "is_ai": false,
      "track_id": 0,
      "velocity": 0,
      "is_motor": true,
      "motor_id": 0,
      "accel_val": 2000,
      "base_duration_us": 1161359
    },
    {
      "id": "M_1480",
      "pitch": 77,
      "t_note_us": 234626258,
      "t_trigger_us": 234490295,
      "is_ai": false,
      "track_id": 0,
      "velocity": 0,
      "is_motor": true,
      "motor_id": 0,
      "accel_val": 2000,
      "base_duration_us": 1277268
    },
    {
      "id": "M_1484",
      "pitch": 72,
      "t_note_us": 235055802,
      "t_trigger_us": 234919839,
      "is_ai": false,
      "track_id": 0,
      "velocity": 0,
      "is_motor": true,
      "motor_id": 1,
      "accel_val": 2000,
      "base_duration_us": 1799993
    },
    {
      "id": "M_1482",
      "pitch": 67,
      "t_note_us": 235485346,
      "t_trigger_us": 235349383,
      "is_ai": false,
      "track_id": 0,
      "velocity": 0,
      "is_motor": true,
      "motor_id": 3,
      "accel_val": 2000,
      "base_duration_us": 788633
    },
    {
      "id": "M_1481",
      "pitch": 96,
      "t_note_us": 235903526,
      "t_trigger_us": 235767563,
      "is_ai": true,
      "track_id": 10,
      "velocity": 0,
      "is_motor": false,
      "motor_id": 0,
      "accel_val": 2000,
      "base_duration_us": 184090
    },
    {
      "id": "M_1483",
      "pitch": 77,
      "t_note_us": 235903526,
      "t_trigger_us": 235767563,
      "is_ai": false,
      "track_id": 0,
      "velocity": 0,
      "is_motor": true,
      "motor_id": 2,
      "accel_val": 2000,
      "base_duration_us": 859088
    },
    {
      "id": "M_1486",
      "pitch": 70,
      "t_note_us": 236321706,
      "t_trigger_us": 236185743,
      "is_ai": false,
      "track_id": 0,
      "velocity": 0,
      "is_motor": true,
      "motor_id": 0,
      "accel_val": 2000,
      "base_duration_us": 1206815
    },
    {
      "id": "M_1485",
      "pitch": 70,
      "t_note_us": 236344433,
      "t_trigger_us": 236208470,
      "is_ai": true,
      "track_id": 0,
      "velocity": 0,
      "is_motor": true,
      "motor_id": 3,
      "accel_val": 2000,
      "base_duration_us": 1161361
    },
    {
      "id": "M_1488",
      "pitch": 65,
      "t_note_us": 236751251,
      "t_trigger_us": 236615288,
      "is_ai": false,
      "track_id": 0,
      "velocity": 0,
      "is_motor": true,
      "motor_id": 0,
      "accel_val": 2000,
      "base_duration_us": 1231815
    },
    {
      "id": "M_1487",
      "pitch": 77,
      "t_note_us": 236762614,
      "t_trigger_us": 236626651,
      "is_ai": false,
      "track_id": 0,
      "velocity": 0,
      "is_motor": true,
      "motor_id": 2,
      "accel_val": 2000,
      "base_duration_us": 870452
    },
    {
      "id": "M_1492",
      "pitch": 72,
      "t_note_us": 237192158,
      "t_trigger_us": 237056195,
      "is_ai": false,
      "track_id": 0,
      "velocity": 0,
      "is_motor": true,
      "motor_id": 1,
      "accel_val": 2000,
      "base_duration_us": 1638632
    },
    {
      "id": "M_1489",
      "pitch": 77,
      "t_note_us": 237633066,
      "t_trigger_us": 237497103,
      "is_ai": false,
      "track_id": 0,
      "velocity": 0,
      "is_motor": true,
      "motor_id": 2,
      "accel_val": 2000,
      "base_duration_us": 477272
    },
    {
      "id": "M_1491",
      "pitch": 96,
      "t_note_us": 238110338,
      "t_trigger_us": 237974375,
      "is_ai": true,
      "track_id": 10,
      "velocity": 0,
      "is_motor": false,
      "motor_id": 0,
      "accel_val": 2000,
      "base_duration_us": 477271
    },
    {
      "id": "M_1496",
      "pitch": 93,
      "t_note_us": 238110338,
      "t_trigger_us": 237974375,
      "is_ai": true,
      "track_id": 8,
      "velocity": 0,
      "is_motor": false,
      "motor_id": 0,
      "accel_val": 2000,
      "base_duration_us": 870449
    },
    {
      "id": "M_1490",
      "pitch": 67,
      "t_note_us": 238110338,
      "t_trigger_us": 237974375,
      "is_ai": false,
      "track_id": 0,
      "velocity": 0,
      "is_motor": true,
      "motor_id": 2,
      "accel_val": 2000,
      "base_duration_us": 372726
    },
    {
      "id": "M_1493",
      "pitch": 77,
      "t_note_us": 238110338,
      "t_trigger_us": 237974375,
      "is_ai": false,
      "track_id": 0,
      "velocity": 0,
      "is_motor": true,
      "motor_id": 3,
      "accel_val": 2000,
      "base_duration_us": 743179
    },
    {
      "id": "M_1497",
      "pitch": 77,
      "t_note_us": 238110338,
      "t_trigger_us": 237974375,
      "is_ai": false,
      "track_id": 0,
      "velocity": 0,
      "is_motor": true,
      "motor_id": 0,
      "accel_val": 2000,
      "base_duration_us": 929539
    },
    {
      "id": "M_1495",
      "pitch": 67,
      "t_note_us": 238178519,
      "t_trigger_us": 238042556,
      "is_ai": false,
      "track_id": 0,
      "velocity": 0,
      "is_motor": true,
      "motor_id": 0,
      "accel_val": 2000,
      "base_duration_us": 790905
    },
    {
      "id": "M_1494",
      "pitch": 74,
      "t_note_us": 238785336,
      "t_trigger_us": 238649373,
      "is_ai": false,
      "track_id": 0,
      "velocity": 0,
      "is_motor": true,
      "motor_id": 2,
      "accel_val": 2000,
      "base_duration_us": 149999
    },
    {
      "id": "M_1499",
      "pitch": 96,
      "t_note_us": 238946698,
      "t_trigger_us": 238810735,
      "is_ai": true,
      "track_id": 10,
      "velocity": 0,
      "is_motor": false,
      "motor_id": 0,
      "accel_val": 2000,
      "base_duration_us": 545449
    },
    {
      "id": "M_1502",
      "pitch": 74,
      "t_note_us": 238946698,
      "t_trigger_us": 238810735,
      "is_ai": false,
      "track_id": 0,
      "velocity": 0,
      "is_motor": true,
      "motor_id": 1,
      "accel_val": 2000,
      "base_duration_us": 986357
    },
    {
      "id": "M_1498",
      "pitch": 67,
      "t_note_us": 238958061,
      "t_trigger_us": 238822098,
      "is_ai": false,
      "track_id": 0,
      "velocity": 0,
      "is_motor": true,
      "motor_id": 2,
      "accel_val": 2000,
      "base_duration_us": 140906
    },
    {
      "id": "M_1501",
      "pitch": 67,
      "t_note_us": 238969424,
      "t_trigger_us": 238833461,
      "is_ai": false,
      "track_id": 0,
      "velocity": 0,
      "is_motor": true,
      "motor_id": 3,
      "accel_val": 2000,
      "base_duration_us": 859086
    },
    {
      "id": "M_1500",
      "pitch": 77,
      "t_note_us": 239423967,
      "t_trigger_us": 239288004,
      "is_ai": false,
      "track_id": 0,
      "velocity": 0,
      "is_motor": true,
      "motor_id": 2,
      "accel_val": 2000,
      "base_duration_us": 381816
    },
    {
      "id": "M_1503",
      "pitch": 98,
      "t_note_us": 239435330,
      "t_trigger_us": 239299367,
      "is_ai": true,
      "track_id": 11,
      "velocity": 0,
      "is_motor": false,
      "motor_id": 0,
      "accel_val": 2000,
      "base_duration_us": 509088
    },
    {
      "id": "M_1504",
      "pitch": 67,
      "t_note_us": 239469420,
      "t_trigger_us": 239333457,
      "is_ai": false,
      "track_id": 0,
      "velocity": 0,
      "is_motor": true,
      "motor_id": 0,
      "accel_val": 2000,
      "base_duration_us": 952268
    },
    {
      "id": "M_1506",
      "pitch": 100,
      "t_note_us": 239980781,
      "t_trigger_us": 239844818,
      "is_ai": true,
      "track_id": 12,
      "velocity": 0,
      "is_motor": false,
      "motor_id": 0,
      "accel_val": 2000,
      "base_duration_us": 870452
    },
    {
      "id": "M_1505",
      "pitch": 72,
      "t_note_us": 240014871,
      "t_trigger_us": 239878908,
      "is_ai": false,
      "track_id": 0,
      "velocity": 0,
      "is_motor": true,
      "motor_id": 1,
      "accel_val": 2000,
      "base_duration_us": 836362
    },
    {
      "id": "M_1513",
      "pitch": 60,
      "t_note_us": 240026234,
      "t_trigger_us": 239890271,
      "is_ai": false,
      "track_id": 0,
      "velocity": 0,
      "is_motor": true,
      "motor_id": 2,
      "accel_val": 2000,
      "base_duration_us": 1615904
    },
    {
      "id": "M_1512",
      "pitch": 67,
      "t_note_us": 240435324,
      "t_trigger_us": 240299361,
      "is_ai": false,
      "track_id": 0,
      "velocity": 0,
      "is_motor": true,
      "motor_id": 0,
      "accel_val": 2000,
      "base_duration_us": 963633
    },
    {
      "id": "M_1507",
      "pitch": 96,
      "t_note_us": 240851233,
      "t_trigger_us": 240715270,
      "is_ai": true,
      "track_id": 10,
      "velocity": 0,
      "is_motor": false,
      "motor_id": 0,
      "accel_val": 2000,
      "base_duration_us": 313635
    },
    {
      "id": "M_1511",
      "pitch": 100,
      "t_note_us": 240851233,
      "t_trigger_us": 240715270,
      "is_ai": true,
      "track_id": 12,
      "velocity": 0,
      "is_motor": false,
      "motor_id": 0,
      "accel_val": 2000,
      "base_duration_us": 534088
    },
    {
      "id": "M_1510",
      "pitch": 72,
      "t_note_us": 240851233,
      "t_trigger_us": 240715270,
      "is_ai": false,
      "track_id": 0,
      "velocity": 0,
      "is_motor": true,
      "motor_id": 1,
      "accel_val": 2000,
      "base_duration_us": 443179
    },
    {
      "id": "M_1509",
      "pitch": 72,
      "t_note_us": 240864869,
      "t_trigger_us": 240728906,
      "is_ai": false,
      "track_id": 0,
      "velocity": 0,
      "is_motor": true,
      "motor_id": 3,
      "accel_val": 2000,
      "base_duration_us": 418180
    },
    {
      "id": "M_1508",
      "pitch": 76,
      "t_note_us": 241026232,
      "t_trigger_us": 240890269,
      "is_ai": false,
      "track_id": 0,
      "velocity": 0,
      "is_motor": true,
      "motor_id": 0,
      "accel_val": 2000,
      "base_duration_us": 174999
    },
    {
      "id": "M_1514",
      "pitch": 103,
      "t_note_us": 241294412,
      "t_trigger_us": 241158449,
      "is_ai": true,
      "track_id": 14,
      "velocity": 0,
      "is_motor": false,
      "motor_id": 0,
      "accel_val": 2000,
      "base_duration_us": 359089
    },
    {
      "id": "M_1515",
      "pitch": 72,
      "t_note_us": 241294412,
      "t_trigger_us": 241158449,
      "is_ai": false,
      "track_id": 0,
      "velocity": 0,
      "is_motor": true,
      "motor_id": 1,
      "accel_val": 2000,
      "base_duration_us": 440905
    },
    {
      "id": "M_1516",
      "pitch": 66,
      "t_note_us": 241712591,
      "t_trigger_us": 241576628,
      "is_ai": false,
      "track_id": 0,
      "velocity": 0,
      "is_motor": true,
      "motor_id": 2,
      "accel_val": 2000,
      "base_duration_us": 161362
    },
    {
      "id": "M_1520",
      "pitch": 93,
      "t_note_us": 241723954,
      "t_trigger_us": 241587991,
      "is_ai": true,
      "track_id": 8,
      "velocity": 0,
      "is_motor": false,
      "motor_id": 0,
      "accel_val": 2000,
      "base_duration_us": 847725
    },
    {
      "id": "M_1517",
      "pitch": 72,
      "t_note_us": 241735317,
      "t_trigger_us": 241599354,
      "is_ai": false,
      "track_id": 0,
      "velocity": 0,
      "is_motor": true,
      "motor_id": 1,
      "accel_val": 2000,
      "base_duration_us": 731817
    },
    {
      "id": "M_1518",
      "pitch": 66,
      "t_note_us": 241873953,
      "t_trigger_us": 241737990,
      "is_ai": false,
      "track_id": 0,
      "velocity": 0,
      "is_motor": true,
      "motor_id": 2,
      "accel_val": 2000,
      "base_duration_us": 674999
    },
    {
      "id": "M_1521",
      "pitch": 93,
      "t_note_us": 242153498,
      "t_trigger_us": 242017535,
      "is_ai": true,
      "track_id": 8,
      "velocity": 0,
      "is_motor": false,
      "motor_id": 0,
      "accel_val": 2000,
      "base_duration_us": 488635
    },
    {
      "id": "M_1519",
      "pitch": 69,
      "t_note_us": 242153498,
      "t_trigger_us": 242017535,
      "is_ai": false,
      "track_id": 0,
      "velocity": 0,
      "is_motor": true,
      "motor_id": 0,
      "accel_val": 2000,
      "base_duration_us": 418181
    },
    {
      "id": "M_1524",
      "pitch": 93,
      "t_note_us": 242571679,
      "t_trigger_us": 242435716,
      "is_ai": true,
      "track_id": 8,
      "velocity": 0,
      "is_motor": false,
      "motor_id": 0,
      "accel_val": 2000,
      "base_duration_us": 545452
    },
    {
      "id": "M_1523",
      "pitch": 72,
      "t_note_us": 242571679,
      "t_trigger_us": 242435716,
      "is_ai": false,
      "track_id": 0,
      "velocity": 0,
      "is_motor": true,
      "motor_id": 1,
      "accel_val": 2000,
      "base_duration_us": 440907
    },
    {
      "id": "M_1528",
      "pitch": 69,
      "t_note_us": 242571679,
      "t_trigger_us": 242435716,
      "is_ai": false,
      "track_id": 0,
      "velocity": 0,
      "is_motor": true,
      "motor_id": 2,
      "accel_val": 2000,
      "base_duration_us": 1231813
    },
    {
      "id": "M_1522",
      "pitch": 72,
      "t_note_us": 242642133,
      "t_trigger_us": 242506170,
      "is_ai": false,
      "track_id": 0,
      "velocity": 0,
      "is_motor": true,
      "motor_id": 0,
      "accel_val": 2000,
      "base_duration_us": 288636
    },
    {
      "id": "M_1525",
      "pitch": 100,
      "t_note_us": 243001223,
      "t_trigger_us": 242865260,
      "is_ai": true,
      "track_id": 12,
      "velocity": 0,
      "is_motor": false,
      "motor_id": 0,
      "accel_val": 2000,
      "base_duration_us": 209089
    },
    {
      "id": "M_1526",
      "pitch": 78,
      "t_note_us": 243012586,
      "t_trigger_us": 242876623,
      "is_ai": false,
      "track_id": 0,
      "velocity": 0,
      "is_motor": true,
      "motor_id": 3,
      "accel_val": 2000,
      "base_duration_us": 429543
    },
    {
      "id": "M_1527",
      "pitch": 72,
      "t_note_us": 243012586,
      "t_trigger_us": 242876623,
      "is_ai": false,
      "track_id": 0,
      "velocity": 0,
      "is_motor": true,
      "motor_id": 1,
      "accel_val": 2000,
      "base_duration_us": 649997
    },
    {
      "id": "M_1529",
      "pitch": 98,
      "t_note_us": 243430766,
      "t_trigger_us": 243294803,
      "is_ai": true,
      "track_id": 11,
      "velocity": 0,
      "is_motor": false,
      "motor_id": 0,
      "accel_val": 2000,
      "base_duration_us": 395453
    },
    {
      "id": "M_1532",
      "pitch": 65,
      "t_note_us": 243430766,
      "t_trigger_us": 243294803,
      "is_ai": false,
      "track_id": 0,
      "velocity": 0,
      "is_motor": true,
      "motor_id": 0,
      "accel_val": 2000,
      "base_duration_us": 824996
    },
    {
      "id": "M_1531",
      "pitch": 77,
      "t_note_us": 243442129,
      "t_trigger_us": 243306166,
      "is_ai": false,
      "track_id": 0,
      "velocity": 0,
      "is_motor": true,
      "motor_id": 3,
      "accel_val": 2000,
      "base_duration_us": 429543
    },
    {
      "id": "M_1530",
      "pitch": 72,
      "t_note_us": 243617129,
      "t_trigger_us": 243481166,
      "is_ai": false,
      "track_id": 0,
      "velocity": 0,
      "is_motor": true,
      "motor_id": 0,
      "accel_val": 2000,
      "base_duration_us": 231817
    },
    {
      "id": "M_1533",
      "pitch": 96,
      "t_note_us": 243860309,
      "t_trigger_us": 243724346,
      "is_ai": true,
      "track_id": 10,
      "velocity": 0,
      "is_motor": false,
      "motor_id": 0,
      "accel_val": 2000,
      "base_duration_us": 429543
    },
    {
      "id": "M_1542",
      "pitch": 72,
      "t_note_us": 243860309,
      "t_trigger_us": 243724346,
      "is_ai": false,
      "track_id": 0,
      "velocity": 0,
      "is_motor": true,
      "motor_id": 1,
      "accel_val": 2000,
      "base_duration_us": 1720446
    },
    {
      "id": "M_1534",
      "pitch": 77,
      "t_note_us": 243871672,
      "t_trigger_us": 243735709,
      "is_ai": false,
      "track_id": 0,
      "velocity": 0,
      "is_motor": true,
      "motor_id": 2,
      "accel_val": 2000,
      "base_duration_us": 429543
    },
    {
      "id": "M_1536",
      "pitch": 96,
      "t_note_us": 244289852,
      "t_trigger_us": 244153889,
      "is_ai": true,
      "track_id": 10,
      "velocity": 0,
      "is_motor": false,
      "motor_id": 0,
      "accel_val": 2000,
      "base_duration_us": 420452
    },
    {
      "id": "M_1541",
      "pitch": 69,
      "t_note_us": 244289852,
      "t_trigger_us": 244153889,
      "is_ai": false,
      "track_id": 0,
      "velocity": 0,
      "is_motor": true,
      "motor_id": 0,
      "accel_val": 2000,
      "base_duration_us": 1243176
    },
    {
      "id": "M_1537",
      "pitch": 77,
      "t_note_us": 244301215,
      "t_trigger_us": 244165252,
      "is_ai": false,
      "track_id": 0,
      "velocity": 0,
      "is_motor": true,
      "motor_id": 2,
      "accel_val": 2000,
      "base_duration_us": 420452
    },
    {
      "id": "M_1535",
      "pitch": 65,
      "t_note_us": 244371669,
      "t_trigger_us": 244235706,
      "is_ai": false,
      "track_id": 0,
      "velocity": 0,
      "is_motor": true,
      "motor_id": 3,
      "accel_val": 2000,
      "base_duration_us": 279545
    },
    {
      "id": "M_1538",
      "pitch": 96,
      "t_note_us": 244710304,
      "t_trigger_us": 244574341,
      "is_ai": true,
      "track_id": 10,
      "velocity": 0,
      "is_motor": false,
      "motor_id": 0,
      "accel_val": 2000,
      "base_duration_us": 265908
    },
    {
      "id": "M_1540",
      "pitch": 93,
      "t_note_us": 244710304,
      "t_trigger_us": 244574341,
      "is_ai": true,
      "track_id": 8,
      "velocity": 0,
      "is_motor": false,
      "motor_id": 0,
      "accel_val": 2000,
      "base_duration_us": 418180
    },
    {
      "id": "M_1539",
      "pitch": 77,
      "t_note_us": 244721667,
      "t_trigger_us": 244585704,
      "is_ai": false,
      "track_id": 0,
      "velocity": 0,
      "is_motor": true,
      "motor_id": 2,
      "accel_val": 2000,
      "base_duration_us": 359090
    },
    {
      "id": "M_1543",
      "pitch": 103,
      "t_note_us": 245139847,
      "t_trigger_us": 245003884,
      "is_ai": true,
      "track_id": 14,
      "velocity": 0,
      "is_motor": false,
      "motor_id": 0,
      "accel_val": 2000,
      "base_duration_us": 440908
    },
    {
      "id": "M_1544",
      "pitch": 76,
      "t_note_us": 245139847,
      "t_trigger_us": 245003884,
      "is_ai": false,
      "track_id": 0,
      "velocity": 0,
      "is_motor": true,
      "motor_id": 2,
      "accel_val": 2000,
      "base_duration_us": 765908
    },
    {
      "id": "M_1547",
      "pitch": 64,
      "t_note_us": 245139847,
      "t_trigger_us": 245003884,
      "is_ai": false,
      "track_id": 0,
      "velocity": 0,
      "is_motor": true,
      "motor_id": 3,
      "accel_val": 2000,
      "base_duration_us": 1649997
    },
    {
      "id": "M_1545",
      "pitch": 72,
      "t_note_us": 245580755,
      "t_trigger_us": 245444792,
      "is_ai": false,
      "track_id": 0,
      "velocity": 0,
      "is_motor": true,
      "motor_id": 1,
      "accel_val": 2000,
      "base_duration_us": 452272
    },
    {
      "id": "M_1548",
      "pitch": 67,
      "t_note_us": 246021664,
      "t_trigger_us": 245885701,
      "is_ai": false,
      "track_id": 0,
      "velocity": 0,
      "is_motor": true,
      "motor_id": 2,
      "accel_val": 2000,
      "base_duration_us": 802270
    },
    {
      "id": "M_1546",
      "pitch": 72,
      "t_note_us": 246033027,
      "t_trigger_us": 245897064,
      "is_ai": false,
      "track_id": 0,
      "velocity": 0,
      "is_motor": true,
      "motor_id": 1,
      "accel_val": 2000,
      "base_duration_us": 395454
    },
    {
      "id": "M_1549",
      "pitch": 72,
      "t_note_us": 246428481,
      "t_trigger_us": 246292518,
      "is_ai": false,
      "track_id": 0,
      "velocity": 0,
      "is_motor": true,
      "motor_id": 1,
      "accel_val": 2000,
      "base_duration_us": 429543
    },
    {
      "id": "M_1550",
      "pitch": 72,
      "t_note_us": 246428481,
      "t_trigger_us": 246292518,
      "is_ai": false,
      "track_id": 0,
      "velocity": 0,
      "is_motor": true,
      "motor_id": 0,
      "accel_val": 2000,
      "base_duration_us": 440906
    },
    {
      "id": "M_1552",
      "pitch": 93,
      "t_note_us": 246858024,
      "t_trigger_us": 246722061,
      "is_ai": true,
      "track_id": 8,
      "velocity": 0,
      "is_motor": false,
      "motor_id": 0,
      "accel_val": 2000,
      "base_duration_us": 418180
    },
    {
      "id": "M_1553",
      "pitch": 69,
      "t_note_us": 246858024,
      "t_trigger_us": 246722061,
      "is_ai": false,
      "track_id": 0,
      "velocity": 0,
      "is_motor": true,
      "motor_id": 1,
      "accel_val": 2000,
      "base_duration_us": 545452
    },
    {
      "id": "M_1551",
      "pitch": 72,
      "t_note_us": 246869387,
      "t_trigger_us": 246733424,
      "is_ai": false,
      "track_id": 0,
      "velocity": 0,
      "is_motor": true,
      "motor_id": 0,
      "accel_val": 2000,
      "base_duration_us": 395454
    },
    {
      "id": "M_1554",
      "pitch": 74,
      "t_note_us": 246869387,
      "t_trigger_us": 246733424,
      "is_ai": false,
      "track_id": 0,
      "velocity": 0,
      "is_motor": true,
      "motor_id": 2,
      "accel_val": 2000,
      "base_duration_us": 790907
    },
    {
      "id": "M_1555",
      "pitch": 103,
      "t_note_us": 247287567,
      "t_trigger_us": 247151604,
      "is_ai": true,
      "track_id": 14,
      "velocity": 0,
      "is_motor": false,
      "motor_id": 0,
      "accel_val": 2000,
      "base_duration_us": 440908
    },
    {
      "id": "M_1560",
      "pitch": 69,
      "t_note_us": 247287567,
      "t_trigger_us": 247151604,
      "is_ai": false,
      "track_id": 0,
      "velocity": 0,
      "is_motor": true,
      "motor_id": 0,
      "accel_val": 2000,
      "base_duration_us": 1268176
    },
    {
      "id": "M_1557",
      "pitch": 69,
      "t_note_us": 247717112,
      "t_trigger_us": 247581149,
      "is_ai": false,
      "track_id": 0,
      "velocity": 0,
      "is_motor": true,
      "motor_id": 1,
      "accel_val": 2000,
      "base_duration_us": 361361
    },
    {
      "id": "M_1556",
      "pitch": 96,
      "t_note_us": 247728475,
      "t_trigger_us": 247592512,
      "is_ai": true,
      "track_id": 10,
      "velocity": 0,
      "is_motor": false,
      "motor_id": 0,
      "accel_val": 2000,
      "base_duration_us": 152272
    },
    {
      "id": "M_1558",
      "pitch": 100,
      "t_note_us": 247728475,
      "t_trigger_us": 247592512,
      "is_ai": true,
      "track_id": 12,
      "velocity": 0,
      "is_motor": false,
      "motor_id": 0,
      "accel_val": 2000,
      "base_duration_us": 429542
    },
    {
      "id": "M_1562",
      "pitch": 77,
      "t_note_us": 247728475,
      "t_trigger_us": 247592512,
      "is_ai": false,
      "track_id": 0,
      "velocity": 0,
      "is_motor": true,
      "motor_id": 2,
      "accel_val": 2000,
      "base_duration_us": 1209085
    },
    {
      "id": "M_1559",
      "pitch": 74,
      "t_note_us": 248053474,
      "t_trigger_us": 247917511,
      "is_ai": false,
      "track_id": 0,
      "velocity": 0,
      "is_motor": true,
      "motor_id": 3,
      "accel_val": 2000,
      "base_duration_us": 443179
    },
    {
      "id": "M_1561",
      "pitch": 98,
      "t_note_us": 248146654,
      "t_trigger_us": 248010691,
      "is_ai": true,
      "track_id": 11,
      "velocity": 0,
      "is_motor": false,
      "motor_id": 0,
      "accel_val": 2000,
      "base_duration_us": 443179
    },
    {
      "id": "M_1564",
      "pitch": 96,
      "t_note_us": 248567106,
      "t_trigger_us": 248431143,
      "is_ai": true,
      "track_id": 10,
      "velocity": 0,
      "is_motor": false,
      "motor_id": 0,
      "accel_val": 2000,
      "base_duration_us": 811362
    },
    {
      "id": "M_1565",
      "pitch": 64,
      "t_note_us": 248612560,
      "t_trigger_us": 248476597,
      "is_ai": false,
      "track_id": 0,
      "velocity": 0,
      "is_motor": true,
      "motor_id": 1,
      "accel_val": 2000,
      "base_duration_us": 1556815
    },
    {
      "id": "M_1563",
      "pitch": 76,
      "t_note_us": 248937560,
      "t_trigger_us": 248801597,
      "is_ai": false,
      "track_id": 0,
      "velocity": 0,
      "is_motor": true,
      "motor_id": 2,
      "accel_val": 2000,
      "base_duration_us": 372727
    },
    {
      "id": "M_1569",
      "pitch": 72,
      "t_note_us": 249019378,
      "t_trigger_us": 248883415,
      "is_ai": false,
      "track_id": 0,
      "velocity": 0,
      "is_motor": true,
      "motor_id": 0,
      "accel_val": 2000,
      "base_duration_us": 1649994
    },
    {
      "id": "M_1567",
      "pitch": 93,
      "t_note_us": 249437558,
      "t_trigger_us": 249301595,
      "is_ai": true,
      "track_id": 8,
      "velocity": 0,
      "is_motor": false,
      "motor_id": 0,
      "accel_val": 2000,
      "base_duration_us": 811362
    },
    {
      "id": "M_1566",
      "pitch": 67,
      "t_note_us": 249437558,
      "t_trigger_us": 249301595,
      "is_ai": false,
      "track_id": 0,
      "velocity": 0,
      "is_motor": true,
      "motor_id": 2,
      "accel_val": 2000,
      "base_duration_us": 788635
    },
    {
      "id": "M_1568",
      "pitch": 96,
      "t_note_us": 249867103,
      "t_trigger_us": 249731140,
      "is_ai": true,
      "track_id": 10,
      "velocity": 0,
      "is_motor": false,
      "motor_id": 0,
      "accel_val": 2000,
      "base_duration_us": 418180
    },
    {
      "id": "M_1572",
      "pitch": 98,
      "t_note_us": 250296646,
      "t_trigger_us": 250160683,
      "is_ai": true,
      "track_id": 11,
      "velocity": 0,
      "is_motor": false,
      "motor_id": 0,
      "accel_val": 2000,
      "base_duration_us": 847723
    },
    {
      "id": "M_1571",
      "pitch": 66,
      "t_note_us": 250355736,
      "t_trigger_us": 250219773,
      "is_ai": false,
      "track_id": 0,
      "velocity": 0,
      "is_motor": true,
      "motor_id": 1,
      "accel_val": 2000,
      "base_duration_us": 777270
    },
    {
      "id": "M_1570",
      "pitch": 74,
      "t_note_us": 250703462,
      "t_trigger_us": 250567499,
      "is_ai": false,
      "track_id": 0,
      "velocity": 0,
      "is_motor": true,
      "motor_id": 0,
      "accel_val": 2000,
      "base_duration_us": 395454
    },
    {
      "id": "M_1573",
      "pitch": 74,
      "t_note_us": 250703462,
      "t_trigger_us": 250567499,
      "is_ai": false,
      "track_id": 0,
      "velocity": 0,
      "is_motor": true,
      "motor_id": 2,
      "accel_val": 2000,
      "base_duration_us": 452270
    },
    {
      "id": "M_1574",
      "pitch": 66,
      "t_note_us": 251133006,
      "t_trigger_us": 250997043,
      "is_ai": false,
      "track_id": 0,
      "velocity": 0,
      "is_motor": true,
      "motor_id": 1,
      "accel_val": 2000,
      "base_duration_us": 452270
    },
    {
      "id": "M_1576",
      "pitch": 98,
      "t_note_us": 251144369,
      "t_trigger_us": 251008406,
      "is_ai": true,
      "track_id": 11,
      "velocity": 0,
      "is_motor": false,
      "motor_id": 0,
      "accel_val": 2000,
      "base_duration_us": 534088
    },
    {
      "id": "M_1575",
      "pitch": 78,
      "t_note_us": 251155732,
      "t_trigger_us": 251019769,
      "is_ai": false,
      "track_id": 0,
      "velocity": 0,
      "is_motor": true,
      "motor_id": 2,
      "accel_val": 2000,
      "base_duration_us": 443180
    },
    {
      "id": "M_1582",
      "pitch": 74,
      "t_note_us": 251155732,
      "t_trigger_us": 251019769,
      "is_ai": false,
      "track_id": 0,
      "velocity": 0,
      "is_motor": true,
      "motor_id": 0,
      "accel_val": 2000,
      "base_duration_us": 1034084
    },
    {
      "id": "M_1579",
      "pitch": 96,
      "t_note_us": 251573913,
      "t_trigger_us": 251437950,
      "is_ai": true,
      "track_id": 10,
      "velocity": 0,
      "is_motor": false,
      "motor_id": 0,
      "accel_val": 2000,
      "base_duration_us": 418178
    },
    {
      "id": "M_1577",
      "pitch": 66,
      "t_note_us": 251585276,
      "t_trigger_us": 251449313,
      "is_ai": false,
      "track_id": 0,
      "velocity": 0,
      "is_motor": true,
      "motor_id": 1,
      "accel_val": 2000,
      "base_duration_us": 361362
    },
    {
      "id": "M_1578",
      "pitch": 78,
      "t_note_us": 251598912,
      "t_trigger_us": 251462949,
      "is_ai": false,
      "track_id": 0,
      "velocity": 0,
      "is_motor": true,
      "motor_id": 2,
      "accel_val": 2000,
      "base_duration_us": 370452
    },
    {
      "id": "M_1580",
      "pitch": 100,
      "t_note_us": 251958001,
      "t_trigger_us": 251822038,
      "is_ai": true,
      "track_id": 12,
      "velocity": 0,
      "is_motor": false,
      "motor_id": 0,
      "accel_val": 2000,
      "base_duration_us": 138634
    },
    {
      "id": "M_1584",
      "pitch": 98,
      "t_note_us": 252003454,
      "t_trigger_us": 251867491,
      "is_ai": true,
      "track_id": 11,
      "velocity": 0,
      "is_motor": false,
      "motor_id": 0,
      "accel_val": 2000,
      "base_duration_us": 722723
    },
    {
      "id": "M_1581",
      "pitch": 67,
      "t_note_us": 252014817,
      "t_trigger_us": 251878854,
      "is_ai": false,
      "track_id": 0,
      "velocity": 0,
      "is_motor": true,
      "motor_id": 1,
      "accel_val": 2000,
      "base_duration_us": 163636
    },
    {
      "id": "M_1583",
      "pitch": 67,
      "t_note_us": 252014817,
      "t_trigger_us": 251878854,
      "is_ai": false,
      "track_id": 0,
      "velocity": 0,
      "is_motor": true,
      "motor_id": 2,
      "accel_val": 2000,
      "base_duration_us": 374998
    },
    {
      "id": "M_1586",
      "pitch": 67,
      "t_note_us": 252178453,
      "t_trigger_us": 252042490,
      "is_ai": false,
      "track_id": 0,
      "velocity": 0,
      "is_motor": true,
      "motor_id": 1,
      "accel_val": 2000,
      "base_duration_us": 674995
    },
    {
      "id": "M_1587",
      "pitch": 74,
      "t_note_us": 252423905,
      "t_trigger_us": 252287942,
      "is_ai": false,
      "track_id": 0,
      "velocity": 0,
      "is_motor": true,
      "motor_id": 0,
      "accel_val": 2000,
      "base_duration_us": 440906
    },
    {
      "id": "M_1585",
      "pitch": 74,
      "t_note_us": 252655723,
      "t_trigger_us": 252519760,
      "is_ai": false,
      "track_id": 0,
      "velocity": 0,
      "is_motor": true,
      "motor_id": 2,
      "accel_val": 2000,
      "base_duration_us": 138635
    },
    {
      "id": "M_1591",
      "pitch": 67,
      "t_note_us": 252853448,
      "t_trigger_us": 252717485,
      "is_ai": false,
      "track_id": 0,
      "velocity": 0,
      "is_motor": true,
      "motor_id": 1,
      "accel_val": 2000,
      "base_duration_us": 522725
    },
    {
      "id": "M_1590",
      "pitch": 96,
      "t_note_us": 252864811,
      "t_trigger_us": 252728848,
      "is_ai": true,
      "track_id": 10,
      "velocity": 0,
      "is_motor": false,
      "motor_id": 0,
      "accel_val": 2000,
      "base_duration_us": 429544
    },
    {
      "id": "M_1588",
      "pitch": 67,
      "t_note_us": 252864811,
      "t_trigger_us": 252728848,
      "is_ai": false,
      "track_id": 0,
      "velocity": 0,
      "is_motor": true,
      "motor_id": 2,
      "accel_val": 2000,
      "base_duration_us": 418181
    },
    {
      "id": "M_1589",
      "pitch": 74,
      "t_note_us": 252864811,
      "t_trigger_us": 252728848,
      "is_ai": false,
      "track_id": 0,
      "velocity": 0,
      "is_motor": true,
      "motor_id": 0,
      "accel_val": 2000,
      "base_duration_us": 429544
    },
    {
      "id": "M_1592",
      "pitch": 98,
      "t_note_us": 253282992,
      "t_trigger_us": 253147029,
      "is_ai": true,
      "track_id": 11,
      "velocity": 0,
      "is_motor": false,
      "motor_id": 0,
      "accel_val": 2000,
      "base_duration_us": 395453
    },
    {
      "id": "M_1595",
      "pitch": 67,
      "t_note_us": 253282992,
      "t_trigger_us": 253147029,
      "is_ai": false,
      "track_id": 0,
      "velocity": 0,
      "is_motor": true,
      "motor_id": 2,
      "accel_val": 2000,
      "base_duration_us": 440906
    },
    {
      "id": "M_1594",
      "pitch": 74,
      "t_note_us": 253294355,
      "t_trigger_us": 253158392,
      "is_ai": false,
      "track_id": 0,
      "velocity": 0,
      "is_motor": true,
      "motor_id": 0,
      "accel_val": 2000,
      "base_duration_us": 429543
    },
    {
      "id": "M_1593",
      "pitch": 67,
      "t_note_us": 253376173,
      "t_trigger_us": 253240210,
      "is_ai": false,
      "track_id": 0,
      "velocity": 0,
      "is_motor": true,
      "motor_id": 1,
      "accel_val": 2000,
      "base_duration_us": 336362
    },
    {
      "id": "M_1596",
      "pitch": 67,
      "t_note_us": 253712535,
      "t_trigger_us": 253576572,
      "is_ai": false,
      "track_id": 0,
      "velocity": 0,
      "is_motor": true,
      "motor_id": 1,
      "accel_val": 2000,
      "base_duration_us": 336361
    },
    {
      "id": "M_1600",
      "pitch": 100,
      "t_note_us": 253723898,
      "t_trigger_us": 253587935,
      "is_ai": true,
      "track_id": 12,
      "velocity": 0,
      "is_motor": false,
      "motor_id": 0,
      "accel_val": 2000,
      "base_duration_us": 847724
    },
    {
      "id": "M_1597",
      "pitch": 67,
      "t_note_us": 253723898,
      "t_trigger_us": 253587935,
      "is_ai": false,
      "track_id": 0,
      "velocity": 0,
      "is_motor": true,
      "motor_id": 2,
      "accel_val": 2000,
      "base_duration_us": 429543
    },
    {
      "id": "M_1598",
      "pitch": 72,
      "t_note_us": 253735261,
      "t_trigger_us": 253599298,
      "is_ai": false,
      "track_id": 0,
      "velocity": 0,
      "is_motor": true,
      "motor_id": 0,
      "accel_val": 2000,
      "base_duration_us": 429543
    },
    {
      "id": "M_1602",
      "pitch": 60,
      "t_note_us": 253769351,
      "t_trigger_us": 253633388,
      "is_ai": false,
      "track_id": 0,
      "velocity": 0,
      "is_motor": true,
      "motor_id": 3,
      "accel_val": 2000,
      "base_duration_us": 1127269
    },
    {
      "id": "M_1606",
      "pitch": 67,
      "t_note_us": 254153441,
      "t_trigger_us": 254017478,
      "is_ai": false,
      "track_id": 0,
      "velocity": 0,
      "is_motor": true,
      "motor_id": 1,
      "accel_val": 2000,
      "base_duration_us": 847723
    },
    {
      "id": "M_1599",
      "pitch": 72,
      "t_note_us": 254164804,
      "t_trigger_us": 254028841,
      "is_ai": false,
      "track_id": 0,
      "velocity": 0,
      "is_motor": true,
      "motor_id": 0,
      "accel_val": 2000,
      "base_duration_us": 406818
    },
    {
      "id": "M_1601",
      "pitch": 96,
      "t_note_us": 254571622,
      "t_trigger_us": 254435659,
      "is_ai": true,
      "track_id": 10,
      "velocity": 0,
      "is_motor": false,
      "motor_id": 0,
      "accel_val": 2000,
      "base_duration_us": 256817
    },
    {
      "id": "M_1607",
      "pitch": 100,
      "t_note_us": 254571622,
      "t_trigger_us": 254435659,
      "is_ai": true,
      "track_id": 12,
      "velocity": 0,
      "is_motor": false,
      "motor_id": 0,
      "accel_val": 2000,
      "base_duration_us": 522723
    },
    {
      "id": "M_1604",
      "pitch": 72,
      "t_note_us": 254571622,
      "t_trigger_us": 254435659,
      "is_ai": false,
      "track_id": 0,
      "velocity": 0,
      "is_motor": true,
      "motor_id": 0,
      "accel_val": 2000,
      "base_duration_us": 418179
    },
    {
      "id": "M_1605",
      "pitch": 72,
      "t_note_us": 254571622,
      "t_trigger_us": 254435659,
      "is_ai": false,
      "track_id": 0,
      "velocity": 0,
      "is_motor": true,
      "motor_id": 2,
      "accel_val": 2000,
      "base_duration_us": 429542
    },
    {
      "id": "M_1603",
      "pitch": 76,
      "t_note_us": 254723894,
      "t_trigger_us": 254587931,
      "is_ai": false,
      "track_id": 0,
      "velocity": 0,
      "is_motor": true,
      "motor_id": 0,
      "accel_val": 2000,
      "base_duration_us": 186362
    },
    {
      "id": "M_1609",
      "pitch": 103,
      "t_note_us": 255001164,
      "t_trigger_us": 254865201,
      "is_ai": true,
      "track_id": 14,
      "velocity": 0,
      "is_motor": false,
      "motor_id": 0,
      "accel_val": 2000,
      "base_duration_us": 338634
    },
    {
      "id": "M_1610",
      "pitch": 67,
      "t_note_us": 255001164,
      "t_trigger_us": 254865201,
      "is_ai": false,
      "track_id": 0,
      "velocity": 0,
      "is_motor": true,
      "motor_id": 1,
      "accel_val": 2000,
      "base_duration_us": 395452
    },
    {
      "id": "M_1611",
      "pitch": 72,
      "t_note_us": 255001164,
      "t_trigger_us": 254865201,
      "is_ai": false,
      "track_id": 0,
      "velocity": 0,
      "is_motor": true,
      "motor_id": 0,
      "accel_val": 2000,
      "base_duration_us": 443178
    },
    {
      "id": "M_1608",
      "pitch": 60,
      "t_note_us": 255048891,
      "t_trigger_us": 254912928,
      "is_ai": false,
      "track_id": 0,
      "velocity": 0,
      "is_motor": true,
      "motor_id": 2,
      "accel_val": 2000,
      "base_duration_us": 265908
    },
    {
      "id": "M_1614",
      "pitch": 93,
      "t_note_us": 255430706,
      "t_trigger_us": 255294743,
      "is_ai": true,
      "track_id": 8,
      "velocity": 0,
      "is_motor": false,
      "motor_id": 0,
      "accel_val": 2000,
      "base_duration_us": 861361
    },
    {
      "id": "M_1613",
      "pitch": 72,
      "t_note_us": 255444342,
      "t_trigger_us": 255308379,
      "is_ai": false,
      "track_id": 0,
      "velocity": 0,
      "is_motor": true,
      "motor_id": 1,
      "accel_val": 2000,
      "base_duration_us": 824998
    },
    {
      "id": "M_1612",
      "pitch": 66,
      "t_note_us": 255478432,
      "t_trigger_us": 255342469,
      "is_ai": false,
      "track_id": 0,
      "velocity": 0,
      "is_motor": true,
      "motor_id": 2,
      "accel_val": 2000,
      "base_duration_us": 790908
    },
    {
      "id": "M_1615",
      "pitch": 93,
      "t_note_us": 255873886,
      "t_trigger_us": 255737923,
      "is_ai": true,
      "track_id": 8,
      "velocity": 0,
      "is_motor": false,
      "motor_id": 0,
      "accel_val": 2000,
      "base_duration_us": 499999
    },
    {
      "id": "M_1625",
      "pitch": 69,
      "t_note_us": 255873886,
      "t_trigger_us": 255737923,
      "is_ai": false,
      "track_id": 0,
      "velocity": 0,
      "is_motor": true,
      "motor_id": 0,
      "accel_val": 2000,
      "base_duration_us": 1684083
    },
    {
      "id": "M_1617",
      "pitch": 93,
      "t_note_us": 256292067,
      "t_trigger_us": 256156104,
      "is_ai": true,
      "track_id": 8,
      "velocity": 0,
      "is_motor": false,
      "motor_id": 0,
      "accel_val": 2000,
      "base_duration_us": 545453
    },
    {
      "id": "M_1616",
      "pitch": 72,
      "t_note_us": 256292067,
      "t_trigger_us": 256156104,
      "is_ai": false,
      "track_id": 0,
      "velocity": 0,
      "is_motor": true,
      "motor_id": 1,
      "accel_val": 2000,
      "base_duration_us": 429545
    },
    {
      "id": "M_1619",
      "pitch": 72,
      "t_note_us": 256292067,
      "t_trigger_us": 256156104,
      "is_ai": false,
      "track_id": 0,
      "velocity": 0,
      "is_motor": true,
      "motor_id": 2,
      "accel_val": 2000,
      "base_duration_us": 638634
    },
    {
      "id": "M_1618",
      "pitch": 100,
      "t_note_us": 256721612,
      "t_trigger_us": 256585649,
      "is_ai": true,
      "track_id": 12,
      "velocity": 0,
      "is_motor": false,
      "motor_id": 0,
      "accel_val": 2000,
      "base_duration_us": 197726
    },
    {
      "id": "M_1621",
      "pitch": 78,
      "t_note_us": 256721612,
      "t_trigger_us": 256585649,
      "is_ai": false,
      "track_id": 0,
      "velocity": 0,
      "is_motor": true,
      "motor_id": 3,
      "accel_val": 2000,
      "base_duration_us": 429542
    },
    {
      "id": "M_1622",
      "pitch": 72,
      "t_note_us": 256721612,
      "t_trigger_us": 256585649,
      "is_ai": false,
      "track_id": 0,
      "velocity": 0,
      "is_motor": true,
      "motor_id": 1,
      "accel_val": 2000,
      "base_duration_us": 684086
    },
    {
      "id": "M_1620",
      "pitch": 69,
      "t_note_us": 256814793,
      "t_trigger_us": 256678830,
      "is_ai": false,
      "track_id": 0,
      "velocity": 0,
      "is_motor": true,
      "motor_id": 0,
      "accel_val": 2000,
      "base_duration_us": 174998
    },
    {
      "id": "M_1624",
      "pitch": 98,
      "t_note_us": 257139791,
      "t_trigger_us": 257003828,
      "is_ai": true,
      "track_id": 11,
      "velocity": 0,
      "is_motor": false,
      "motor_id": 0,
      "accel_val": 2000,
      "base_duration_us": 384088
    },
    {
      "id": "M_1627",
      "pitch": 65,
      "t_note_us": 257139791,
      "t_trigger_us": 257003828,
      "is_ai": false,
      "track_id": 0,
      "velocity": 0,
      "is_motor": true,
      "motor_id": 2,
      "accel_val": 2000,
      "base_duration_us": 847722
    },
    {
      "id": "M_1623",
      "pitch": 77,
      "t_note_us": 257151154,
      "t_trigger_us": 257015191,
      "is_ai": false,
      "track_id": 0,
      "velocity": 0,
      "is_motor": true,
      "motor_id": 3,
      "accel_val": 2000,
      "base_duration_us": 324998
    },
    {
      "id": "M_1626",
      "pitch": 72,
      "t_note_us": 257244335,
      "t_trigger_us": 257108372,
      "is_ai": false,
      "track_id": 0,
      "velocity": 0,
      "is_motor": true,
      "motor_id": 0,
      "accel_val": 2000,
      "base_duration_us": 324997
    },
    {
      "id": "M_1628",
      "pitch": 96,
      "t_note_us": 257580695,
      "t_trigger_us": 257444732,
      "is_ai": true,
      "track_id": 10,
      "velocity": 0,
      "is_motor": false,
      "motor_id": 0,
      "accel_val": 2000,
      "base_duration_us": 429545
    },
    {
      "id": "M_1631",
      "pitch": 72,
      "t_note_us": 257580695,
      "t_trigger_us": 257444732,
      "is_ai": false,
      "track_id": 0,
      "velocity": 0,
      "is_motor": true,
      "motor_id": 1,
      "accel_val": 2000,
      "base_duration_us": 849998
    },
    {
      "id": "M_1632",
      "pitch": 77,
      "t_note_us": 257580695,
      "t_trigger_us": 257444732,
      "is_ai": false,
      "track_id": 0,
      "velocity": 0,
      "is_motor": true,
      "motor_id": 3,
      "accel_val": 2000,
      "base_duration_us": 849998
    },
    {
      "id": "M_1629",
      "pitch": 96,
      "t_note_us": 258010240,
      "t_trigger_us": 257874277,
      "is_ai": true,
      "track_id": 10,
      "velocity": 0,
      "is_motor": false,
      "motor_id": 0,
      "accel_val": 2000,
      "base_duration_us": 279545
    },
    {
      "id": "M_1635",
      "pitch": 67,
      "t_note_us": 258010240,
      "t_trigger_us": 257874277,
      "is_ai": false,
      "track_id": 0,
      "velocity": 0,
      "is_motor": true,
      "motor_id": 2,
      "accel_val": 2000,
      "base_duration_us": 734088
    },
    {
      "id": "M_1630",
      "pitch": 65,
      "t_note_us": 258114785,
      "t_trigger_us": 257978822,
      "is_ai": false,
      "track_id": 0,
      "velocity": 0,
      "is_motor": true,
      "motor_id": 0,
      "accel_val": 2000,
      "base_duration_us": 222727
    },
    {
      "id": "M_1633",
      "pitch": 98,
      "t_note_us": 258430693,
      "t_trigger_us": 258294730,
      "is_ai": true,
      "track_id": 11,
      "velocity": 0,
      "is_motor": false,
      "motor_id": 0,
      "accel_val": 2000,
      "base_duration_us": 138636
    },
    {
      "id": "M_1634",
      "pitch": 98,
      "t_note_us": 258430693,
      "t_trigger_us": 258294730,
      "is_ai": true,
      "track_id": 11,
      "velocity": 0,
      "is_motor": false,
      "motor_id": 0,
      "accel_val": 2000,
      "base_duration_us": 220454
    },
    {
      "id": "M_1636",
      "pitch": 77,
      "t_note_us": 258430693,
      "t_trigger_us": 258294730,
      "is_ai": false,
      "track_id": 0,
      "velocity": 0,
      "is_motor": true,
      "motor_id": 1,
      "accel_val": 2000,
      "base_duration_us": 429544
    },
    {
      "id": "M_1637",
      "pitch": 69,
      "t_note_us": 258430693,
      "t_trigger_us": 258294730,
      "is_ai": false,
      "track_id": 0,
      "velocity": 0,
      "is_motor": true,
      "motor_id": 0,
      "accel_val": 2000,
      "base_duration_us": 429544
    },
    {
      "id": "M_1638",
      "pitch": 72,
      "t_note_us": 258430693,
      "t_trigger_us": 258294730,
      "is_ai": false,
      "track_id": 0,
      "velocity": 0,
      "is_motor": true,
      "motor_id": 3,
      "accel_val": 2000,
      "base_duration_us": 1147725
    },
    {
      "id": "M_1639",
      "pitch": 77,
      "t_note_us": 258860237,
      "t_trigger_us": 258724274,
      "is_ai": false,
      "track_id": 0,
      "velocity": 0,
      "is_motor": true,
      "motor_id": 2,
      "accel_val": 2000,
      "base_duration_us": 1288635
    },
    {
      "id": "M_1641",
      "pitch": 68,
      "t_note_us": 258860237,
      "t_trigger_us": 258724274,
      "is_ai": false,
      "track_id": 0,
      "velocity": 0,
      "is_motor": true,
      "motor_id": 1,
      "accel_val": 2000,
      "base_duration_us": 2531816
    },
    {
      "id": "M_1640",
      "pitch": 72,
      "t_note_us": 259719327,
      "t_trigger_us": 259583364,
      "is_ai": false,
      "track_id": 0,
      "velocity": 0,
      "is_motor": true,
      "motor_id": 0,
      "accel_val": 2000,
      "base_duration_us": 1636363
    },
    {
      "id": "M_1642",
      "pitch": 77,
      "t_note_us": 260148872,
      "t_trigger_us": 260012909,
      "is_ai": false,
      "track_id": 0,
      "velocity": 0,
      "is_motor": true,
      "motor_id": 2,
      "accel_val": 2000,
      "base_duration_us": 1277271
    },
    {
      "id": "M_1644",
      "pitch": 76,
      "t_note_us": 261426143,
      "t_trigger_us": 261290180,
      "is_ai": false,
      "track_id": 0,
      "velocity": 0,
      "is_motor": true,
      "motor_id": 2,
      "accel_val": 2000,
      "base_duration_us": 849998
    },
    {
      "id": "M_1643",
      "pitch": 103,
      "t_note_us": 261437506,
      "t_trigger_us": 261301543,
      "is_ai": true,
      "track_id": 14,
      "velocity": 0,
      "is_motor": false,
      "motor_id": 0,
      "accel_val": 2000,
      "base_duration_us": 418181
    },
    {
      "id": "M_1645",
      "pitch": 71,
      "t_note_us": 261855687,
      "t_trigger_us": 261719724,
      "is_ai": false,
      "track_id": 0,
      "velocity": 0,
      "is_motor": true,
      "motor_id": 1,
      "accel_val": 2000,
      "base_duration_us": 431817
    },
    {
      "id": "M_1646",
      "pitch": 103,
      "t_note_us": 262276141,
      "t_trigger_us": 262140178,
      "is_ai": true,
      "track_id": 14,
      "velocity": 0,
      "is_motor": false,
      "motor_id": 0,
      "accel_val": 2000,
      "base_duration_us": 415908
    },
    {
      "id": "M_1648",
      "pitch": 76,
      "t_note_us": 262276141,
      "t_trigger_us": 262140178,
      "is_ai": false,
      "track_id": 0,
      "velocity": 0,
      "is_motor": true,
      "motor_id": 2,
      "accel_val": 2000,
      "base_duration_us": 440907
    },
    {
      "id": "M_1649",
      "pitch": 76,
      "t_note_us": 262276141,
      "t_trigger_us": 262140178,
      "is_ai": false,
      "track_id": 0,
      "velocity": 0,
      "is_motor": true,
      "motor_id": 3,
      "accel_val": 2000,
      "base_duration_us": 452270
    },
    {
      "id": "M_1647",
      "pitch": 71,
      "t_note_us": 262287504,
      "t_trigger_us": 262151541,
      "is_ai": false,
      "track_id": 0,
      "velocity": 0,
      "is_motor": true,
      "motor_id": 1,
      "accel_val": 2000,
      "base_duration_us": 429544
    },
    {
      "id": "M_1651",
      "pitch": 100,
      "t_note_us": 262717048,
      "t_trigger_us": 262581085,
      "is_ai": true,
      "track_id": 12,
      "velocity": 0,
      "is_motor": false,
      "motor_id": 0,
      "accel_val": 2000,
      "base_duration_us": 418180
    },
    {
      "id": "M_1650",
      "pitch": 71,
      "t_note_us": 262717048,
      "t_trigger_us": 262581085,
      "is_ai": false,
      "track_id": 0,
      "velocity": 0,
      "is_motor": true,
      "motor_id": 1,
      "accel_val": 2000,
      "base_duration_us": 393181
    },
    {
      "id": "M_1653",
      "pitch": 76,
      "t_note_us": 262717048,
      "t_trigger_us": 262581085,
      "is_ai": false,
      "track_id": 0,
      "velocity": 0,
      "is_motor": true,
      "motor_id": 2,
      "accel_val": 2000,
      "base_duration_us": 497724
    },
    {
      "id": "M_1652",
      "pitch": 76,
      "t_note_us": 262728411,
      "t_trigger_us": 262592448,
      "is_ai": false,
      "track_id": 0,
      "velocity": 0,
      "is_motor": true,
      "motor_id": 3,
      "accel_val": 2000,
      "base_duration_us": 418180
    },
    {
      "id": "M_1654",
      "pitch": 95,
      "t_note_us": 263146591,
      "t_trigger_us": 263010628,
      "is_ai": true,
      "track_id": 9,
      "velocity": 0,
      "is_motor": false,
      "motor_id": 0,
      "accel_val": 2000,
      "base_duration_us": 381817
    },
    {
      "id": "M_1655",
      "pitch": 76,
      "t_note_us": 263146591,
      "t_trigger_us": 263010628,
      "is_ai": false,
      "track_id": 0,
      "velocity": 0,
      "is_motor": true,
      "motor_id": 1,
      "accel_val": 2000,
      "base_duration_us": 429544
    },
    {
      "id": "M_1659",
      "pitch": 69,
      "t_note_us": 263157954,
      "t_trigger_us": 263021991,
      "is_ai": false,
      "track_id": 0,
      "velocity": 0,
      "is_motor": true,
      "motor_id": 0,
      "accel_val": 2000,
      "base_duration_us": 1638632
    },
    {
      "id": "M_1657",
      "pitch": 96,
      "t_note_us": 263576135,
      "t_trigger_us": 263440172,
      "is_ai": true,
      "track_id": 10,
      "velocity": 0,
      "is_motor": false,
      "motor_id": 0,
      "accel_val": 2000,
      "base_duration_us": 720453
    },
    {
      "id": "M_1656",
      "pitch": 76,
      "t_note_us": 263576135,
      "t_trigger_us": 263440172,
      "is_ai": false,
      "track_id": 0,
      "velocity": 0,
      "is_motor": true,
      "motor_id": 2,
      "accel_val": 2000,
      "base_duration_us": 418181
    },
    {
      "id": "M_1662",
      "pitch": 76,
      "t_note_us": 263994316,
      "t_trigger_us": 263858353,
      "is_ai": false,
      "track_id": 0,
      "velocity": 0,
      "is_motor": true,
      "motor_id": 2,
      "accel_val": 2000,
      "base_duration_us": 870451
    },
    {
      "id": "M_1658",
      "pitch": 93,
      "t_note_us": 264005679,
      "t_trigger_us": 263869716,
      "is_ai": true,
      "track_id": 8,
      "velocity": 0,
      "is_motor": false,
      "motor_id": 0,
      "accel_val": 2000,
      "base_duration_us": 349999
    },
    {
      "id": "M_1660",
      "pitch": 96,
      "t_note_us": 264005679,
      "t_trigger_us": 263869716,
      "is_ai": true,
      "track_id": 10,
      "velocity": 0,
      "is_motor": false,
      "motor_id": 0,
      "accel_val": 2000,
      "base_duration_us": 790907
    },
    {
      "id": "M_1663",
      "pitch": 69,
      "t_note_us": 264005679,
      "t_trigger_us": 263869716,
      "is_ai": false,
      "track_id": 0,
      "velocity": 0,
      "is_motor": true,
      "motor_id": 1,
      "accel_val": 2000,
      "base_duration_us": 859088
    },
    {
      "id": "M_1661",
      "pitch": 98,
      "t_note_us": 264423859,
      "t_trigger_us": 264287896,
      "is_ai": true,
      "track_id": 11,
      "velocity": 0,
      "is_motor": false,
      "motor_id": 0,
      "accel_val": 2000,
      "base_duration_us": 429545
    },
    {
      "id": "M_1664",
      "pitch": 100,
      "t_note_us": 264864767,
      "t_trigger_us": 264728804,
      "is_ai": true,
      "track_id": 12,
      "velocity": 0,
      "is_motor": false,
      "motor_id": 0,
      "accel_val": 2000,
      "base_duration_us": 406818
    },
    {
      "id": "M_1665",
      "pitch": 74,
      "t_note_us": 264864767,
      "t_trigger_us": 264728804,
      "is_ai": false,
      "track_id": 0,
      "velocity": 0,
      "is_motor": true,
      "motor_id": 1,
      "accel_val": 2000,
      "base_duration_us": 418181
    },
    {
      "id": "M_1666",
      "pitch": 69,
      "t_note_us": 264864767,
      "t_trigger_us": 264728804,
      "is_ai": false,
      "track_id": 0,
      "velocity": 0,
      "is_motor": true,
      "motor_id": 2,
      "accel_val": 2000,
      "base_duration_us": 429544
    },
    {
      "id": "M_1667",
      "pitch": 74,
      "t_note_us": 264864767,
      "t_trigger_us": 264728804,
      "is_ai": false,
      "track_id": 0,
      "velocity": 0,
      "is_motor": true,
      "motor_id": 0,
      "accel_val": 2000,
      "base_duration_us": 534089
    },
    {
      "id": "M_1672",
      "pitch": 77,
      "t_note_us": 264864767,
      "t_trigger_us": 264728804,
      "is_ai": false,
      "track_id": 0,
      "velocity": 0,
      "is_motor": true,
      "motor_id": 3,
      "accel_val": 2000,
      "base_duration_us": 1299995
    },
    {
      "id": "M_1668",
      "pitch": 74,
      "t_note_us": 265282948,
      "t_trigger_us": 265146985,
      "is_ai": false,
      "track_id": 0,
      "velocity": 0,
      "is_motor": true,
      "motor_id": 1,
      "accel_val": 2000,
      "base_duration_us": 465907
    },
    {
      "id": "M_1669",
      "pitch": 69,
      "t_note_us": 265294311,
      "t_trigger_us": 265158348,
      "is_ai": false,
      "track_id": 0,
      "velocity": 0,
      "is_motor": true,
      "motor_id": 2,
      "accel_val": 2000,
      "base_duration_us": 522725
    },
    {
      "id": "M_1671",
      "pitch": 69,
      "t_note_us": 265294311,
      "t_trigger_us": 265158348,
      "is_ai": false,
      "track_id": 0,
      "velocity": 0,
      "is_motor": true,
      "motor_id": 0,
      "accel_val": 2000,
      "base_duration_us": 870451
    },
    {
      "id": "M_1676",
      "pitch": 72,
      "t_note_us": 265723856,
      "t_trigger_us": 265587893,
      "is_ai": false,
      "track_id": 0,
      "velocity": 0,
      "is_motor": true,
      "motor_id": 0,
      "accel_val": 2000,
      "base_duration_us": 827268
    },
    {
      "id": "M_1670",
      "pitch": 74,
      "t_note_us": 265748855,
      "t_trigger_us": 265612892,
      "is_ai": false,
      "track_id": 0,
      "velocity": 0,
      "is_motor": true,
      "motor_id": 1,
      "accel_val": 2000,
      "base_duration_us": 415907
    },
    {
      "id": "M_1673",
      "pitch": 77,
      "t_note_us": 266003399,
      "t_trigger_us": 265867436,
      "is_ai": false,
      "track_id": 0,
      "velocity": 0,
      "is_motor": true,
      "motor_id": 2,
      "accel_val": 2000,
      "base_duration_us": 245453
    },
    {
      "id": "M_1674",
      "pitch": 74,
      "t_note_us": 266153399,
      "t_trigger_us": 266017436,
      "is_ai": false,
      "track_id": 0,
      "velocity": 0,
      "is_motor": true,
      "motor_id": 0,
      "accel_val": 2000,
      "base_duration_us": 361362
    },
    {
      "id": "M_1677",
      "pitch": 89,
      "t_note_us": 266164762,
      "t_trigger_us": 266028799,
      "is_ai": true,
      "track_id": 6,
      "velocity": 0,
      "is_motor": false,
      "motor_id": 0,
      "accel_val": 2000,
      "base_duration_us": 409089
    },
    {
      "id": "M_1675",
      "pitch": 69,
      "t_note_us": 266164762,
      "t_trigger_us": 266028799,
      "is_ai": false,
      "track_id": 0,
      "velocity": 0,
      "is_motor": true,
      "motor_id": 1,
      "accel_val": 2000,
      "base_duration_us": 386362
    },
    {
      "id": "M_1678",
      "pitch": 74,
      "t_note_us": 266164762,
      "t_trigger_us": 266028799,
      "is_ai": false,
      "track_id": 0,
      "velocity": 0,
      "is_motor": true,
      "motor_id": 3,
      "accel_val": 2000,
      "base_duration_us": 420452
    },
    {
      "id": "M_1682",
      "pitch": 98,
      "t_note_us": 266573851,
      "t_trigger_us": 266437888,
      "is_ai": true,
      "track_id": 11,
      "velocity": 0,
      "is_motor": false,
      "motor_id": 0,
      "accel_val": 2000,
      "base_duration_us": 765906
    },
    {
      "id": "M_1680",
      "pitch": 67,
      "t_note_us": 266573851,
      "t_trigger_us": 266437888,
      "is_ai": false,
      "track_id": 0,
      "velocity": 0,
      "is_motor": true,
      "motor_id": 1,
      "accel_val": 2000,
      "base_duration_us": 381816
    },
    {
      "id": "M_1688",
      "pitch": 77,
      "t_note_us": 266573851,
      "t_trigger_us": 266437888,
      "is_ai": false,
      "track_id": 0,
      "velocity": 0,
      "is_motor": true,
      "motor_id": 2,
      "accel_val": 2000,
      "base_duration_us": 1218175
    },
    {
      "id": "M_1681",
      "pitch": 74,
      "t_note_us": 266585214,
      "t_trigger_us": 266449251,
      "is_ai": false,
      "track_id": 0,
      "velocity": 0,
      "is_motor": true,
      "motor_id": 0,
      "accel_val": 2000,
      "base_duration_us": 418180
    },
    {
      "id": "M_1679",
      "pitch": 67,
      "t_note_us": 266596577,
      "t_trigger_us": 266460614,
      "is_ai": false,
      "track_id": 0,
      "velocity": 0,
      "is_motor": true,
      "motor_id": 3,
      "accel_val": 2000,
      "base_duration_us": 138636
    },
    {
      "id": "M_1683",
      "pitch": 67,
      "t_note_us": 266735213,
      "t_trigger_us": 266599250,
      "is_ai": false,
      "track_id": 0,
      "velocity": 0,
      "is_motor": true,
      "motor_id": 3,
      "accel_val": 2000,
      "base_duration_us": 663634
    },
    {
      "id": "M_1684",
      "pitch": 74,
      "t_note_us": 267003394,
      "t_trigger_us": 266867431,
      "is_ai": false,
      "track_id": 0,
      "velocity": 0,
      "is_motor": true,
      "motor_id": 1,
      "accel_val": 2000,
      "base_duration_us": 406816
    },
    {
      "id": "M_1685",
      "pitch": 74,
      "t_note_us": 267003394,
      "t_trigger_us": 266867431,
      "is_ai": false,
      "track_id": 0,
      "velocity": 0,
      "is_motor": true,
      "motor_id": 0,
      "accel_val": 2000,
      "base_duration_us": 440906
    },
    {
      "id": "M_1694",
      "pitch": 69,
      "t_note_us": 267432937,
      "t_trigger_us": 267296974,
      "is_ai": false,
      "track_id": 0,
      "velocity": 0,
      "is_motor": true,
      "motor_id": 1,
      "accel_val": 2000,
      "base_duration_us": 1115900
    },
    {
      "id": "M_1686",
      "pitch": 93,
      "t_note_us": 267444300,
      "t_trigger_us": 267308337,
      "is_ai": true,
      "track_id": 8,
      "velocity": 0,
      "is_motor": false,
      "motor_id": 0,
      "accel_val": 2000,
      "base_duration_us": 302272
    },
    {
      "id": "M_1687",
      "pitch": 74,
      "t_note_us": 267444300,
      "t_trigger_us": 267308337,
      "is_ai": false,
      "track_id": 0,
      "velocity": 0,
      "is_motor": true,
      "motor_id": 0,
      "accel_val": 2000,
      "base_duration_us": 324999
    },
    {
      "id": "M_1689",
      "pitch": 74,
      "t_note_us": 267444300,
      "t_trigger_us": 267308337,
      "is_ai": false,
      "track_id": 0,
      "velocity": 0,
      "is_motor": true,
      "motor_id": 3,
      "accel_val": 2000,
      "base_duration_us": 429543
    },
    {
      "id": "M_1693",
      "pitch": 67,
      "t_note_us": 267862480,
      "t_trigger_us": 267726517,
      "is_ai": false,
      "track_id": 0,
      "velocity": 0,
      "is_motor": true,
      "motor_id": 2,
      "accel_val": 2000,
      "base_duration_us": 534085
    },
    {
      "id": "M_1692",
      "pitch": 74,
      "t_note_us": 267873843,
      "t_trigger_us": 267737880,
      "is_ai": false,
      "track_id": 0,
      "velocity": 0,
      "is_motor": true,
      "motor_id": 0,
      "accel_val": 2000,
      "base_duration_us": 361361
    },
    {
      "id": "M_1690",
      "pitch": 77,
      "t_note_us": 267930661,
      "t_trigger_us": 267794698,
      "is_ai": false,
      "track_id": 0,
      "velocity": 0,
      "is_motor": true,
      "motor_id": 3,
      "accel_val": 2000,
      "base_duration_us": 197726
    },
    {
      "id": "M_1691",
      "pitch": 67,
      "t_note_us": 268048842,
      "t_trigger_us": 267912879,
      "is_ai": false,
      "track_id": 0,
      "velocity": 0,
      "is_motor": true,
      "motor_id": 0,
      "accel_val": 2000,
      "base_duration_us": 138635
    },
    {
      "id": "M_1695",
      "pitch": 96,
      "t_note_us": 268280658,
      "t_trigger_us": 268144695,
      "is_ai": true,
      "track_id": 10,
      "velocity": 0,
      "is_motor": false,
      "motor_id": 0,
      "accel_val": 2000,
      "base_duration_us": 581814
    },
    {
      "id": "M_1698",
      "pitch": 76,
      "t_note_us": 268280658,
      "t_trigger_us": 268144695,
      "is_ai": false,
      "track_id": 0,
      "velocity": 0,
      "is_motor": true,
      "motor_id": 3,
      "accel_val": 2000,
      "base_duration_us": 847722
    },
    {
      "id": "M_1701",
      "pitch": 72,
      "t_note_us": 268305657,
      "t_trigger_us": 268169694,
      "is_ai": false,
      "track_id": 0,
      "velocity": 0,
      "is_motor": true,
      "motor_id": 0,
      "accel_val": 2000,
      "base_duration_us": 1240903
    },
    {
      "id": "M_1699",
      "pitch": 60,
      "t_note_us": 268351111,
      "t_trigger_us": 268215148,
      "is_ai": false,
      "track_id": 0,
      "velocity": 0,
      "is_motor": true,
      "motor_id": 0,
      "accel_val": 2000,
      "base_duration_us": 1172722
    },
    {
      "id": "M_1696",
      "pitch": 67,
      "t_note_us": 268710200,
      "t_trigger_us": 268574237,
      "is_ai": false,
      "track_id": 0,
      "velocity": 0,
      "is_motor": true,
      "motor_id": 1,
      "accel_val": 2000,
      "base_duration_us": 324999
    },
    {
      "id": "M_1697",
      "pitch": 67,
      "t_note_us": 268780654,
      "t_trigger_us": 268644691,
      "is_ai": false,
      "track_id": 0,
      "velocity": 0,
      "is_motor": true,
      "motor_id": 2,
      "accel_val": 2000,
      "base_duration_us": 347726
    },
    {
      "id": "M_1702",
      "pitch": 67,
      "t_note_us": 269128380,
      "t_trigger_us": 268992417,
      "is_ai": false,
      "track_id": 0,
      "velocity": 0,
      "is_motor": true,
      "motor_id": 1,
      "accel_val": 2000,
      "base_duration_us": 440907
    },
    {
      "id": "M_1704",
      "pitch": 96,
      "t_note_us": 269139743,
      "t_trigger_us": 269003780,
      "is_ai": true,
      "track_id": 10,
      "velocity": 0,
      "is_motor": false,
      "motor_id": 0,
      "accel_val": 2000,
      "base_duration_us": 559088
    },
    {
      "id": "M_1700",
      "pitch": 74,
      "t_note_us": 269151106,
      "t_trigger_us": 269015143,
      "is_ai": false,
      "track_id": 0,
      "velocity": 0,
      "is_motor": true,
      "motor_id": 2,
      "accel_val": 2000,
      "base_duration_us": 372727
    },
    {
      "id": "M_1703",
      "pitch": 74,
      "t_note_us": 269151106,
      "t_trigger_us": 269015143,
      "is_ai": false,
      "track_id": 0,
      "velocity": 0,
      "is_motor": true,
      "motor_id": 3,
      "accel_val": 2000,
      "base_duration_us": 429544
    },
    {
      "id": "M_1709",
      "pitch": 98,
      "t_note_us": 269569287,
      "t_trigger_us": 269433324,
      "is_ai": true,
      "track_id": 11,
      "velocity": 0,
      "is_motor": false,
      "motor_id": 0,
      "accel_val": 2000,
      "base_duration_us": 418179
    },
    {
      "id": "M_1707",
      "pitch": 67,
      "t_note_us": 269569287,
      "t_trigger_us": 269433324,
      "is_ai": false,
      "track_id": 0,
      "velocity": 0,
      "is_motor": true,
      "motor_id": 1,
      "accel_val": 2000,
      "base_duration_us": 372725
    },
    {
      "id": "M_1705",
      "pitch": 76,
      "t_note_us": 269580650,
      "t_trigger_us": 269444687,
      "is_ai": false,
      "track_id": 0,
      "velocity": 0,
      "is_motor": true,
      "motor_id": 2,
      "accel_val": 2000,
      "base_duration_us": 222726
    },
    {
      "id": "M_1710",
      "pitch": 74,
      "t_note_us": 269580650,
      "t_trigger_us": 269444687,
      "is_ai": false,
      "track_id": 0,
      "velocity": 0,
      "is_motor": true,
      "motor_id": 0,
      "accel_val": 2000,
      "base_duration_us": 429542
    },
    {
      "id": "M_1711",
      "pitch": 67,
      "t_note_us": 269580650,
      "t_trigger_us": 269444687,
      "is_ai": false,
      "track_id": 0,
      "velocity": 0,
      "is_motor": true,
      "motor_id": 3,
      "accel_val": 2000,
      "base_duration_us": 429542
    },
    {
      "id": "M_1706",
      "pitch": 60,
      "t_note_us": 269662468,
      "t_trigger_us": 269526505,
      "is_ai": false,
      "track_id": 0,
      "velocity": 0,
      "is_motor": true,
      "motor_id": 0,
      "accel_val": 2000,
      "base_duration_us": 256817
    },
    {
      "id": "M_1708",
      "pitch": 72,
      "t_note_us": 269721558,
      "t_trigger_us": 269585595,
      "is_ai": false,
      "track_id": 0,
      "velocity": 0,
      "is_motor": true,
      "motor_id": 0,
      "accel_val": 2000,
      "base_duration_us": 265908
    },
    {
      "id": "M_1712",
      "pitch": 96,
      "t_note_us": 269998829,
      "t_trigger_us": 269862866,
      "is_ai": true,
      "track_id": 10,
      "velocity": 0,
      "is_motor": false,
      "motor_id": 0,
      "accel_val": 2000,
      "base_duration_us": 177271
    },
    {
      "id": "M_1725",
      "pitch": 72,
      "t_note_us": 269998829,
      "t_trigger_us": 269862866,
      "is_ai": false,
      "track_id": 0,
      "velocity": 0,
      "is_motor": true,
      "motor_id": 1,
      "accel_val": 2000,
      "base_duration_us": 1220445
    },
    {
      "id": "M_1717",
      "pitch": 100,
      "t_note_us": 270010192,
      "t_trigger_us": 269874229,
      "is_ai": true,
      "track_id": 12,
      "velocity": 0,
      "is_motor": false,
      "motor_id": 0,
      "accel_val": 2000,
      "base_duration_us": 420451
    },
    {
      "id": "M_1713",
      "pitch": 72,
      "t_note_us": 270010192,
      "t_trigger_us": 269874229,
      "is_ai": false,
      "track_id": 0,
      "velocity": 0,
      "is_motor": true,
      "motor_id": 0,
      "accel_val": 2000,
      "base_duration_us": 199998
    },
    {
      "id": "M_1719",
      "pitch": 67,
      "t_note_us": 270010192,
      "t_trigger_us": 269874229,
      "is_ai": false,
      "track_id": 0,
      "velocity": 0,
      "is_motor": true,
      "motor_id": 2,
      "accel_val": 2000,
      "base_duration_us": 606813
    },
    {
      "id": "M_1720",
      "pitch": 74,
      "t_note_us": 270010192,
      "t_trigger_us": 269874229,
      "is_ai": false,
      "track_id": 0,
      "velocity": 0,
      "is_motor": true,
      "motor_id": 3,
      "accel_val": 2000,
      "base_duration_us": 756813
    },
    {
      "id": "M_1715",
      "pitch": 60,
      "t_note_us": 270092010,
      "t_trigger_us": 269956047,
      "is_ai": false,
      "track_id": 0,
      "velocity": 0,
      "is_motor": true,
      "motor_id": 0,
      "accel_val": 2000,
      "base_duration_us": 315906
    },
    {
      "id": "M_1714",
      "pitch": 103,
      "t_note_us": 270198827,
      "t_trigger_us": 270062864,
      "is_ai": true,
      "track_id": 14,
      "velocity": 0,
      "is_motor": false,
      "motor_id": 0,
      "accel_val": 2000,
      "base_duration_us": 184090
    },
    {
      "id": "M_1716",
      "pitch": 72,
      "t_note_us": 270210190,
      "t_trigger_us": 270074227,
      "is_ai": false,
      "track_id": 0,
      "velocity": 0,
      "is_motor": true,
      "motor_id": 0,
      "accel_val": 2000,
      "base_duration_us": 220453
    },
    {
      "id": "M_1718",
      "pitch": 96,
      "t_note_us": 270430643,
      "t_trigger_us": 270294680,
      "is_ai": true,
      "track_id": 10,
      "velocity": 0,
      "is_motor": false,
      "motor_id": 0,
      "accel_val": 2000,
      "base_duration_us": 138636
    },
    {
      "id": "M_1723",
      "pitch": 100,
      "t_note_us": 270430643,
      "t_trigger_us": 270294680,
      "is_ai": true,
      "track_id": 12,
      "velocity": 0,
      "is_motor": false,
      "motor_id": 0,
      "accel_val": 2000,
      "base_duration_us": 649996
    },
    {
      "id": "M_1722",
      "pitch": 72,
      "t_note_us": 270430643,
      "t_trigger_us": 270294680,
      "is_ai": false,
      "track_id": 0,
      "velocity": 0,
      "is_motor": true,
      "motor_id": 0,
      "accel_val": 2000,
      "base_duration_us": 440906
    },
    {
      "id": "M_1721",
      "pitch": 69,
      "t_note_us": 270605642,
      "t_trigger_us": 270469679,
      "is_ai": false,
      "track_id": 0,
      "velocity": 0,
      "is_motor": true,
      "motor_id": 0,
      "accel_val": 2000,
      "base_duration_us": 209090
    },
    {
      "id": "M_1729",
      "pitch": 67,
      "t_note_us": 270860186,
      "t_trigger_us": 270724223,
      "is_ai": false,
      "track_id": 0,
      "velocity": 0,
      "is_motor": true,
      "motor_id": 2,
      "accel_val": 2000,
      "base_duration_us": 799994
    },
    {
      "id": "M_1726",
      "pitch": 72,
      "t_note_us": 270871549,
      "t_trigger_us": 270735586,
      "is_ai": false,
      "track_id": 0,
      "velocity": 0,
      "is_motor": true,
      "motor_id": 0,
      "accel_val": 2000,
      "base_duration_us": 372724
    },
    {
      "id": "M_1728",
      "pitch": 74,
      "t_note_us": 270976094,
      "t_trigger_us": 270840131,
      "is_ai": false,
      "track_id": 0,
      "velocity": 0,
      "is_motor": true,
      "motor_id": 3,
      "accel_val": 2000,
      "base_duration_us": 638632
    },
    {
      "id": "M_1724",
      "pitch": 67,
      "t_note_us": 271057912,
      "t_trigger_us": 270921949,
      "is_ai": false,
      "track_id": 0,
      "velocity": 0,
      "is_motor": true,
      "motor_id": 0,
      "accel_val": 2000,
      "base_duration_us": 149999
    },
    {
      "id": "M_1730",
      "pitch": 96,
      "t_note_us": 271289727,
      "t_trigger_us": 271153764,
      "is_ai": true,
      "track_id": 10,
      "velocity": 0,
      "is_motor": false,
      "motor_id": 0,
      "accel_val": 2000,
      "base_duration_us": 418180
    },
    {
      "id": "M_1727",
      "pitch": 72,
      "t_note_us": 271289727,
      "t_trigger_us": 271153764,
      "is_ai": false,
      "track_id": 0,
      "velocity": 0,
      "is_motor": true,
      "motor_id": 1,
      "accel_val": 2000,
      "base_duration_us": 302272
    },
    {
      "id": "M_1733",
      "pitch": 95,
      "t_note_us": 271719270,
      "t_trigger_us": 271583307,
      "is_ai": true,
      "track_id": 9,
      "velocity": 0,
      "is_motor": false,
      "motor_id": 0,
      "accel_val": 2000,
      "base_duration_us": 429544
    },
    {
      "id": "M_1731",
      "pitch": 69,
      "t_note_us": 271719270,
      "t_trigger_us": 271583307,
      "is_ai": false,
      "track_id": 0,
      "velocity": 0,
      "is_motor": true,
      "motor_id": 1,
      "accel_val": 2000,
      "base_duration_us": 418181
    },
    {
      "id": "M_1732",
      "pitch": 76,
      "t_note_us": 271985179,
      "t_trigger_us": 271849216,
      "is_ai": false,
      "track_id": 0,
      "velocity": 0,
      "is_motor": true,
      "motor_id": 2,
      "accel_val": 2000,
      "base_duration_us": 152272
    },
    {
      "id": "M_1740",
      "pitch": 69,
      "t_note_us": 272137451,
      "t_trigger_us": 272001488,
      "is_ai": false,
      "track_id": 0,
      "velocity": 0,
      "is_motor": true,
      "motor_id": 1,
      "accel_val": 2000,
      "base_duration_us": 1627267
    },
    {
      "id": "M_1735",
      "pitch": 93,
      "t_note_us": 272148814,
      "t_trigger_us": 272012851,
      "is_ai": true,
      "track_id": 8,
      "velocity": 0,
      "is_motor": false,
      "motor_id": 0,
      "accel_val": 2000,
      "base_duration_us": 743180
    },
    {
      "id": "M_1734",
      "pitch": 69,
      "t_note_us": 272148814,
      "t_trigger_us": 272012851,
      "is_ai": false,
      "track_id": 0,
      "velocity": 0,
      "is_motor": true,
      "motor_id": 2,
      "accel_val": 2000,
      "base_duration_us": 384090
    },
    {
      "id": "M_1738",
      "pitch": 76,
      "t_note_us": 272148814,
      "t_trigger_us": 272012851,
      "is_ai": false,
      "track_id": 0,
      "velocity": 0,
      "is_motor": true,
      "motor_id": 3,
      "accel_val": 2000,
      "base_duration_us": 1265905
    },
    {
      "id": "M_1736",
      "pitch": 95,
      "t_note_us": 272580631,
      "t_trigger_us": 272444668,
      "is_ai": true,
      "track_id": 9,
      "velocity": 0,
      "is_motor": false,
      "motor_id": 0,
      "accel_val": 2000,
      "base_duration_us": 381817
    },
    {
      "id": "M_1737",
      "pitch": 72,
      "t_note_us": 272580631,
      "t_trigger_us": 272444668,
      "is_ai": false,
      "track_id": 0,
      "velocity": 0,
      "is_motor": true,
      "motor_id": 0,
      "accel_val": 2000,
      "base_duration_us": 415907
    },
    {
      "id": "M_1739",
      "pitch": 96,
      "t_note_us": 272996538,
      "t_trigger_us": 272860575,
      "is_ai": true,
      "track_id": 10,
      "velocity": 0,
      "is_motor": false,
      "motor_id": 0,
      "accel_val": 2000,
      "base_duration_us": 443180
    },
    {
      "id": "M_1743",
      "pitch": 72,
      "t_note_us": 272996538,
      "t_trigger_us": 272860575,
      "is_ai": false,
      "track_id": 0,
      "velocity": 0,
      "is_motor": true,
      "motor_id": 0,
      "accel_val": 2000,
      "base_duration_us": 999996
    },
    {
      "id": "M_1742",
      "pitch": 76,
      "t_note_us": 273414719,
      "t_trigger_us": 273278756,
      "is_ai": false,
      "track_id": 0,
      "velocity": 0,
      "is_motor": true,
      "motor_id": 2,
      "accel_val": 2000,
      "base_duration_us": 454543
    },
    {
      "id": "M_1741",
      "pitch": 93,
      "t_note_us": 273426082,
      "t_trigger_us": 273290119,
      "is_ai": true,
      "track_id": 8,
      "velocity": 0,
      "is_motor": false,
      "motor_id": 0,
      "accel_val": 2000,
      "base_duration_us": 372726
    },
    {
      "id": "M_1746",
      "pitch": 98,
      "t_note_us": 273426082,
      "t_trigger_us": 273290119,
      "is_ai": true,
      "track_id": 11,
      "velocity": 0,
      "is_motor": false,
      "motor_id": 0,
      "accel_val": 2000,
      "base_duration_us": 861360
    },
    {
      "id": "M_1745",
      "pitch": 96,
      "t_note_us": 273855626,
      "t_trigger_us": 273719663,
      "is_ai": true,
      "track_id": 10,
      "velocity": 0,
      "is_motor": false,
      "motor_id": 0,
      "accel_val": 2000,
      "base_duration_us": 431816
    },
    {
      "id": "M_1750",
      "pitch": 76,
      "t_note_us": 273869262,
      "t_trigger_us": 273733299,
      "is_ai": false,
      "track_id": 0,
      "velocity": 0,
      "is_motor": true,
      "motor_id": 2,
      "accel_val": 2000,
      "base_duration_us": 1277267
    },
    {
      "id": "M_1744",
      "pitch": 93,
      "t_note_us": 273985171,
      "t_trigger_us": 273849208,
      "is_ai": true,
      "track_id": 8,
      "velocity": 0,
      "is_motor": false,
      "motor_id": 0,
      "accel_val": 2000,
      "base_duration_us": 197726
    },
    {
      "id": "M_1748",
      "pitch": 98,
      "t_note_us": 274287442,
      "t_trigger_us": 274151479,
      "is_ai": true,
      "track_id": 11,
      "velocity": 0,
      "is_motor": false,
      "motor_id": 0,
      "accel_val": 2000,
      "base_duration_us": 788634
    },
    {
      "id": "M_1749",
      "pitch": 72,
      "t_note_us": 274298805,
      "t_trigger_us": 274162842,
      "is_ai": false,
      "track_id": 0,
      "velocity": 0,
      "is_motor": true,
      "motor_id": 1,
      "accel_val": 2000,
      "base_duration_us": 836361
    },
    {
      "id": "M_1755",
      "pitch": 69,
      "t_note_us": 274705623,
      "t_trigger_us": 274569660,
      "is_ai": false,
      "track_id": 0,
      "velocity": 0,
      "is_motor": true,
      "motor_id": 0,
      "accel_val": 2000,
      "base_duration_us": 1138631
    },
    {
      "id": "M_1751",
      "pitch": 100,
      "t_note_us": 274716986,
      "t_trigger_us": 274581023,
      "is_ai": true,
      "track_id": 12,
      "velocity": 0,
      "is_motor": false,
      "motor_id": 0,
      "accel_val": 2000,
      "base_duration_us": 429543
    },
    {
      "id": "M_1747",
      "pitch": 69,
      "t_note_us": 274716986,
      "t_trigger_us": 274581023,
      "is_ai": false,
      "track_id": 0,
      "velocity": 0,
      "is_motor": true,
      "motor_id": 3,
      "accel_val": 2000,
      "base_duration_us": 290909
    },
    {
      "id": "M_1754",
      "pitch": 103,
      "t_note_us": 275135166,
      "t_trigger_us": 274999203,
      "is_ai": true,
      "track_id": 14,
      "velocity": 0,
      "is_motor": false,
      "motor_id": 0,
      "accel_val": 2000,
      "base_duration_us": 440907
    },
    {
      "id": "M_1752",
      "pitch": 72,
      "t_note_us": 275135166,
      "t_trigger_us": 274999203,
      "is_ai": false,
      "track_id": 0,
      "velocity": 0,
      "is_motor": true,
      "motor_id": 1,
      "accel_val": 2000,
      "base_duration_us": 324999
    },
    {
      "id": "M_1757",
      "pitch": 65,
      "t_note_us": 275146529,
      "t_trigger_us": 275010566,
      "is_ai": false,
      "track_id": 0,
      "velocity": 0,
      "is_motor": true,
      "motor_id": 2,
      "accel_val": 2000,
      "base_duration_us": 1197724
    },
    {
      "id": "M_1758",
      "pitch": 77,
      "t_note_us": 275146529,
      "t_trigger_us": 275010566,
      "is_ai": false,
      "track_id": 0,
      "velocity": 0,
      "is_motor": true,
      "motor_id": 3,
      "accel_val": 2000,
      "base_duration_us": 1279542
    },
    {
      "id": "M_1753",
      "pitch": 69,
      "t_note_us": 275194256,
      "t_trigger_us": 275058293,
      "is_ai": false,
      "track_id": 0,
      "velocity": 0,
      "is_motor": true,
      "motor_id": 0,
      "accel_val": 2000,
      "base_duration_us": 359090
    },
    {
      "id": "M_1756",
      "pitch": 72,
      "t_note_us": 275576073,
      "t_trigger_us": 275440110,
      "is_ai": false,
      "track_id": 0,
      "velocity": 0,
      "is_motor": true,
      "motor_id": 1,
      "accel_val": 2000,
      "base_duration_us": 452271
    },
    {
      "id": "M_1759",
      "pitch": 67,
      "t_note_us": 276005617,
      "t_trigger_us": 275869654,
      "is_ai": false,
      "track_id": 0,
      "velocity": 0,
      "is_motor": true,
      "motor_id": 0,
      "accel_val": 2000,
      "base_duration_us": 420454
    },
    {
      "id": "M_1762",
      "pitch": 72,
      "t_note_us": 276028344,
      "t_trigger_us": 275892381,
      "is_ai": false,
      "track_id": 0,
      "velocity": 0,
      "is_motor": true,
      "motor_id": 1,
      "accel_val": 2000,
      "base_duration_us": 1268178
    },
    {
      "id": "M_1760",
      "pitch": 77,
      "t_note_us": 276426071,
      "t_trigger_us": 276290108,
      "is_ai": false,
      "track_id": 0,
      "velocity": 0,
      "is_motor": true,
      "motor_id": 2,
      "accel_val": 2000,
      "base_duration_us": 311362
    },
    {
      "id": "M_1763",
      "pitch": 69,
      "t_note_us": 276426071,
      "t_trigger_us": 276290108,
      "is_ai": false,
      "track_id": 0,
      "velocity": 0,
      "is_motor": true,
      "motor_id": 0,
      "accel_val": 2000,
      "base_duration_us": 881814
    },
    {
      "id": "M_1761",
      "pitch": 67,
      "t_note_us": 276553343,
      "t_trigger_us": 276417380,
      "is_ai": false,
      "track_id": 0,
      "velocity": 0,
      "is_motor": true,
      "motor_id": 3,
      "accel_val": 2000,
      "base_duration_us": 254544
    },
    {
      "id": "M_1765",
      "pitch": 76,
      "t_note_us": 276841977,
      "t_trigger_us": 276706014,
      "is_ai": false,
      "track_id": 0,
      "velocity": 0,
      "is_motor": true,
      "motor_id": 2,
      "accel_val": 2000,
      "base_duration_us": 1149998
    },
    {
      "id": "M_1766",
      "pitch": 64,
      "t_note_us": 276855613,
      "t_trigger_us": 276719650,
      "is_ai": false,
      "track_id": 0,
      "velocity": 0,
      "is_motor": true,
      "motor_id": 3,
      "accel_val": 2000,
      "base_duration_us": 1718179
    },
    {
      "id": "M_1767",
      "pitch": 72,
      "t_note_us": 277296522,
      "t_trigger_us": 277160559,
      "is_ai": false,
      "track_id": 0,
      "velocity": 0,
      "is_motor": true,
      "motor_id": 1,
      "accel_val": 2000,
      "base_duration_us": 1336360
    },
    {
      "id": "M_1764",
      "pitch": 93,
      "t_note_us": 277726066,
      "t_trigger_us": 277590103,
      "is_ai": true,
      "track_id": 8,
      "velocity": 0,
      "is_motor": false,
      "motor_id": 0,
      "accel_val": 2000,
      "base_duration_us": 150000
    },
    {
      "id": "M_1769",
      "pitch": 69,
      "t_note_us": 277726066,
      "t_trigger_us": 277590103,
      "is_ai": false,
      "track_id": 0,
      "velocity": 0,
      "is_motor": true,
      "motor_id": 0,
      "accel_val": 2000,
      "base_duration_us": 918179
    },
    {
      "id": "M_1768",
      "pitch": 76,
      "t_note_us": 278178338,
      "t_trigger_us": 278042375,
      "is_ai": false,
      "track_id": 0,
      "velocity": 0,
      "is_motor": true,
      "motor_id": 2,
      "accel_val": 2000,
      "base_duration_us": 454544
    },
    {
      "id": "M_1774",
      "pitch": 100,
      "t_note_us": 278632882,
      "t_trigger_us": 278496919,
      "is_ai": true,
      "track_id": 12,
      "velocity": 0,
      "is_motor": false,
      "motor_id": 0,
      "accel_val": 2000,
      "base_duration_us": 497723
    },
    {
      "id": "M_1770",
      "pitch": 72,
      "t_note_us": 278632882,
      "t_trigger_us": 278496919,
      "is_ai": false,
      "track_id": 0,
      "velocity": 0,
      "is_motor": true,
      "motor_id": 1,
      "accel_val": 2000,
      "base_duration_us": 302271
    },
    {
      "id": "M_1771",
      "pitch": 76,
      "t_note_us": 278632882,
      "t_trigger_us": 278496919,
      "is_ai": false,
      "track_id": 0,
      "velocity": 0,
      "is_motor": true,
      "motor_id": 2,
      "accel_val": 2000,
      "base_duration_us": 370452
    },
    {
      "id": "M_1773",
      "pitch": 69,
      "t_note_us": 278644245,
      "t_trigger_us": 278508282,
      "is_ai": false,
      "track_id": 0,
      "velocity": 0,
      "is_motor": true,
      "motor_id": 0,
      "accel_val": 2000,
      "base_duration_us": 452270
    },
    {
      "id": "M_1775",
      "pitch": 74,
      "t_note_us": 278644245,
      "t_trigger_us": 278508282,
      "is_ai": false,
      "track_id": 0,
      "velocity": 0,
      "is_motor": true,
      "motor_id": 3,
      "accel_val": 2000,
      "base_duration_us": 743177
    },
    {
      "id": "M_1772",
      "pitch": 76,
      "t_note_us": 278864699,
      "t_trigger_us": 278728736,
      "is_ai": false,
      "track_id": 0,
      "velocity": 0,
      "is_motor": true,
      "motor_id": 0,
      "accel_val": 2000,
      "base_duration_us": 138635
    },
    {
      "id": "M_1780",
      "pitch": 69,
      "t_note_us": 279085152,
      "t_trigger_us": 278949189,
      "is_ai": false,
      "track_id": 0,
      "velocity": 0,
      "is_motor": true,
      "motor_id": 1,
      "accel_val": 2000,
      "base_duration_us": 1497721
    },
    {
      "id": "M_1778",
      "pitch": 69,
      "t_note_us": 279096515,
      "t_trigger_us": 278960552,
      "is_ai": false,
      "track_id": 0,
      "velocity": 0,
      "is_motor": true,
      "motor_id": 2,
      "accel_val": 2000,
      "base_duration_us": 906815
    },
    {
      "id": "M_1776",
      "pitch": 62,
      "t_note_us": 279212423,
      "t_trigger_us": 279076460,
      "is_ai": false,
      "track_id": 0,
      "velocity": 0,
      "is_motor": true,
      "motor_id": 0,
      "accel_val": 2000,
      "base_duration_us": 220453
    },
    {
      "id": "M_1777",
      "pitch": 100,
      "t_note_us": 279339695,
      "t_trigger_us": 279203732,
      "is_ai": true,
      "track_id": 12,
      "velocity": 0,
      "is_motor": false,
      "motor_id": 0,
      "accel_val": 2000,
      "base_duration_us": 140908
    },
    {
      "id": "M_1782",
      "pitch": 77,
      "t_note_us": 279537421,
      "t_trigger_us": 279401458,
      "is_ai": false,
      "track_id": 0,
      "velocity": 0,
      "is_motor": true,
      "motor_id": 3,
      "accel_val": 2000,
      "base_duration_us": 1324996
    },
    {
      "id": "M_1779",
      "pitch": 93,
      "t_note_us": 280003330,
      "t_trigger_us": 279867367,
      "is_ai": true,
      "track_id": 8,
      "velocity": 0,
      "is_motor": false,
      "motor_id": 0,
      "accel_val": 2000,
      "base_duration_us": 186363
    },
    {
      "id": "M_1784",
      "pitch": 69,
      "t_note_us": 280003330,
      "t_trigger_us": 279867367,
      "is_ai": false,
      "track_id": 0,
      "velocity": 0,
      "is_motor": true,
      "motor_id": 2,
      "accel_val": 2000,
      "base_duration_us": 1034086
    },
    {
      "id": "M_1781",
      "pitch": 95,
      "t_note_us": 280466965,
      "t_trigger_us": 280331002,
      "is_ai": true,
      "track_id": 9,
      "velocity": 0,
      "is_motor": false,
      "motor_id": 0,
      "accel_val": 2000,
      "base_duration_us": 384089
    },
    {
      "id": "M_1783",
      "pitch": 67,
      "t_note_us": 280480601,
      "t_trigger_us": 280344638,
      "is_ai": false,
      "track_id": 0,
      "velocity": 0,
      "is_motor": true,
      "motor_id": 0,
      "accel_val": 2000,
      "base_duration_us": 404543
    },
    {
      "id": "M_1787",
      "pitch": 67,
      "t_note_us": 280480601,
      "t_trigger_us": 280344638,
      "is_ai": false,
      "track_id": 0,
      "velocity": 0,
      "is_motor": true,
      "motor_id": 0,
      "accel_val": 2000,
      "base_duration_us": 963631
    },
    {
      "id": "M_1785",
      "pitch": 74,
      "t_note_us": 280966962,
      "t_trigger_us": 280830999,
      "is_ai": false,
      "track_id": 0,
      "velocity": 0,
      "is_motor": true,
      "motor_id": 1,
      "accel_val": 2000,
      "base_duration_us": 429544
    },
    {
      "id": "M_1788",
      "pitch": 74,
      "t_note_us": 280966962,
      "t_trigger_us": 280830999,
      "is_ai": false,
      "track_id": 0,
      "velocity": 0,
      "is_motor": true,
      "motor_id": 0,
      "accel_val": 2000,
      "base_duration_us": 522723
    },
    {
      "id": "M_1786",
      "pitch": 67,
      "t_note_us": 281198779,
      "t_trigger_us": 281062816,
      "is_ai": false,
      "track_id": 0,
      "velocity": 0,
      "is_motor": true,
      "motor_id": 2,
      "accel_val": 2000,
      "base_duration_us": 209090
    },
    {
      "id": "M_1793",
      "pitch": 69,
      "t_note_us": 281478322,
      "t_trigger_us": 281342359,
      "is_ai": false,
      "track_id": 0,
      "velocity": 0,
      "is_motor": true,
      "motor_id": 1,
      "accel_val": 2000,
      "base_duration_us": 1534087
    },
    {
      "id": "M_1790",
      "pitch": 74,
      "t_note_us": 281489685,
      "t_trigger_us": 281353722,
      "is_ai": false,
      "track_id": 0,
      "velocity": 0,
      "is_motor": true,
      "motor_id": 0,
      "accel_val": 2000,
      "base_duration_us": 579544
    },
    {
      "id": "M_1789",
      "pitch": 67,
      "t_note_us": 281594230,
      "t_trigger_us": 281458267,
      "is_ai": false,
      "track_id": 0,
      "velocity": 0,
      "is_motor": true,
      "motor_id": 2,
      "accel_val": 2000,
      "base_duration_us": 370454
    },
    {
      "id": "M_1792",
      "pitch": 74,
      "t_note_us": 282069229,
      "t_trigger_us": 281933266,
      "is_ai": false,
      "track_id": 0,
      "velocity": 0,
      "is_motor": true,
      "motor_id": 0,
      "accel_val": 2000,
      "base_duration_us": 918181
    },
    {
      "id": "M_1794",
      "pitch": 67,
      "t_note_us": 282069229,
      "t_trigger_us": 281933266,
      "is_ai": false,
      "track_id": 0,
      "velocity": 0,
      "is_motor": true,
      "motor_id": 2,
      "accel_val": 2000,
      "base_duration_us": 977270
    },
    {
      "id": "M_1791",
      "pitch": 67,
      "t_note_us": 282176047,
      "t_trigger_us": 282040084,
      "is_ai": false,
      "track_id": 0,
      "velocity": 0,
      "is_motor": true,
      "motor_id": 3,
      "accel_val": 2000,
      "base_duration_us": 731818
    },
    {
      "id": "M_1797",
      "pitch": 98,
      "t_note_us": 283035136,
      "t_trigger_us": 282899173,
      "is_ai": true,
      "track_id": 11,
      "velocity": 0,
      "is_motor": false,
      "motor_id": 0,
      "accel_val": 2000,
      "base_duration_us": 1638633
    },
    {
      "id": "M_1795",
      "pitch": 103,
      "t_note_us": 283091953,
      "t_trigger_us": 282955990,
      "is_ai": true,
      "track_id": 14,
      "velocity": 0,
      "is_motor": false,
      "motor_id": 0,
      "accel_val": 2000,
      "base_duration_us": 290908
    },
    {
      "id": "M_1802",
      "pitch": 71,
      "t_note_us": 283091953,
      "t_trigger_us": 282955990,
      "is_ai": false,
      "track_id": 0,
      "velocity": 0,
      "is_motor": true,
      "motor_id": 1,
      "accel_val": 2000,
      "base_duration_us": 4184085
    },
    {
      "id": "M_1801",
      "pitch": 72,
      "t_note_us": 283105589,
      "t_trigger_us": 282969626,
      "is_ai": false,
      "track_id": 0,
      "velocity": 0,
      "is_motor": true,
      "motor_id": 0,
      "accel_val": 2000,
      "base_duration_us": 4134086
    },
    {
      "id": "M_1796",
      "pitch": 67,
      "t_note_us": 283244225,
      "t_trigger_us": 283108262,
      "is_ai": false,
      "track_id": 0,
      "velocity": 0,
      "is_motor": true,
      "motor_id": 2,
      "accel_val": 2000,
      "base_duration_us": 324999
    },
    {
      "id": "M_1798",
      "pitch": 98,
      "t_note_us": 284951041,
      "t_trigger_us": 284815078,
      "is_ai": true,
      "track_id": 11,
      "velocity": 0,
      "is_motor": false,
      "motor_id": 0,
      "accel_val": 2000,
      "base_duration_us": 836363
    },
    {
      "id": "M_1799",
      "pitch": 103,
      "t_note_us": 285462404,
      "t_trigger_us": 285326441,
      "is_ai": true,
      "track_id": 14,
      "velocity": 0,
      "is_motor": false,
      "motor_id": 0,
      "accel_val": 2000,
      "base_duration_us": 361363
    },
    {
      "id": "M_1800",
      "pitch": 98,
      "t_note_us": 285962403,
      "t_trigger_us": 285826440,
      "is_ai": true,
      "track_id": 11,
      "velocity": 0,
      "is_motor": false,
      "motor_id": 0,
      "accel_val": 2000,
      "base_duration_us": 697727
    },
    {
      "id": "M_1803",
      "pitch": 70,
      "t_note_us": 287332856,
      "t_trigger_us": 287196893,
      "is_ai": false,
      "track_id": 0,
      "velocity": 0,
      "is_motor": true,
      "motor_id": 1,
      "accel_val": 2000,
      "base_duration_us": 649999
    },
    {
      "id": "M_1804",
      "pitch": 72,
      "t_note_us": 287821492,
      "t_trigger_us": 287685529,
      "is_ai": false,
      "track_id": 0,
      "velocity": 0,
      "is_motor": true,
      "motor_id": 0,
      "accel_val": 2000,
      "base_duration_us": 581816
    },
    {
      "id": "M_1806",
      "pitch": 77,
      "t_note_us": 288321491,
      "t_trigger_us": 288185528,
      "is_ai": false,
      "track_id": 0,
      "velocity": 0,
      "is_motor": true,
      "motor_id": 2,
      "accel_val": 2000,
      "base_duration_us": 452270
    },
    {
      "id": "M_1812",
      "pitch": 70,
      "t_note_us": 288321491,
      "t_trigger_us": 288185528,
      "is_ai": false,
      "track_id": 0,
      "velocity": 0,
      "is_motor": true,
      "motor_id": 1,
      "accel_val": 2000,
      "base_duration_us": 1636355
    },
    {
      "id": "M_1809",
      "pitch": 74,
      "t_note_us": 288332854,
      "t_trigger_us": 288196891,
      "is_ai": false,
      "track_id": 0,
      "velocity": 0,
      "is_motor": true,
      "motor_id": 3,
      "accel_val": 2000,
      "base_duration_us": 870450
    },
    {
      "id": "M_1805",
      "pitch": 58,
      "t_note_us": 288426035,
      "t_trigger_us": 288290072,
      "is_ai": false,
      "track_id": 0,
      "velocity": 0,
      "is_motor": true,
      "motor_id": 0,
      "accel_val": 2000,
      "base_duration_us": 220454
    },
    {
      "id": "M_1807",
      "pitch": 77,
      "t_note_us": 288773761,
      "t_trigger_us": 288637798,
      "is_ai": false,
      "track_id": 0,
      "velocity": 0,
      "is_motor": true,
      "motor_id": 2,
      "accel_val": 2000,
      "base_duration_us": 361362
    },
    {
      "id": "M_1814",
      "pitch": 65,
      "t_note_us": 288855579,
      "t_trigger_us": 288719616,
      "is_ai": false,
      "track_id": 0,
      "velocity": 0,
      "is_motor": true,
      "motor_id": 0,
      "accel_val": 2000,
      "base_duration_us": 1161357
    },
    {
      "id": "M_1808",
      "pitch": 74,
      "t_note_us": 289064669,
      "t_trigger_us": 288928706,
      "is_ai": false,
      "track_id": 0,
      "velocity": 0,
      "is_motor": true,
      "motor_id": 0,
      "accel_val": 2000,
      "base_duration_us": 138635
    },
    {
      "id": "M_1815",
      "pitch": 74,
      "t_note_us": 289203304,
      "t_trigger_us": 289067341,
      "is_ai": false,
      "track_id": 0,
      "velocity": 0,
      "is_motor": true,
      "motor_id": 2,
      "accel_val": 2000,
      "base_duration_us": 824995
    },
    {
      "id": "M_1816",
      "pitch": 74,
      "t_note_us": 289214667,
      "t_trigger_us": 289078704,
      "is_ai": false,
      "track_id": 0,
      "velocity": 0,
      "is_motor": true,
      "motor_id": 3,
      "accel_val": 2000,
      "base_duration_us": 918175
    },
    {
      "id": "M_1810",
      "pitch": 77,
      "t_note_us": 289273757,
      "t_trigger_us": 289137794,
      "is_ai": false,
      "track_id": 0,
      "velocity": 0,
      "is_motor": true,
      "motor_id": 0,
      "accel_val": 2000,
      "base_duration_us": 325000
    },
    {
      "id": "M_1813",
      "pitch": 77,
      "t_note_us": 289610120,
      "t_trigger_us": 289474157,
      "is_ai": false,
      "track_id": 0,
      "velocity": 0,
      "is_motor": true,
      "motor_id": 0,
      "accel_val": 2000,
      "base_duration_us": 395453
    },
    {
      "id": "M_1811",
      "pitch": 77,
      "t_note_us": 289632847,
      "t_trigger_us": 289496884,
      "is_ai": false,
      "track_id": 0,
      "velocity": 0,
      "is_motor": true,
      "motor_id": 0,
      "accel_val": 2000,
      "base_duration_us": 231818
    },
    {
      "id": "M_1818",
      "pitch": 67,
      "t_note_us": 290053298,
      "t_trigger_us": 289917335,
      "is_ai": false,
      "track_id": 0,
      "velocity": 0,
      "is_motor": true,
      "motor_id": 1,
      "accel_val": 2000,
      "base_duration_us": 859088
    },
    {
      "id": "M_1817",
      "pitch": 76,
      "t_note_us": 290064661,
      "t_trigger_us": 289928698,
      "is_ai": false,
      "track_id": 0,
      "velocity": 0,
      "is_motor": true,
      "motor_id": 2,
      "accel_val": 2000,
      "base_duration_us": 754544
    },
    {
      "id": "M_1823",
      "pitch": 64,
      "t_note_us": 290076024,
      "t_trigger_us": 289940061,
      "is_ai": false,
      "track_id": 0,
      "velocity": 0,
      "is_motor": true,
      "motor_id": 0,
      "accel_val": 2000,
      "base_duration_us": 1647723
    },
    {
      "id": "M_1826",
      "pitch": 70,
      "t_note_us": 290494205,
      "t_trigger_us": 290358242,
      "is_ai": false,
      "track_id": 0,
      "velocity": 0,
      "is_motor": true,
      "motor_id": 3,
      "accel_val": 2000,
      "base_duration_us": 1311357
    },
    {
      "id": "M_1820",
      "pitch": 91,
      "t_note_us": 290912386,
      "t_trigger_us": 290776423,
      "is_ai": true,
      "track_id": 7,
      "velocity": 0,
      "is_motor": false,
      "motor_id": 0,
      "accel_val": 2000,
      "base_duration_us": 429544
    },
    {
      "id": "M_1819",
      "pitch": 76,
      "t_note_us": 290923749,
      "t_trigger_us": 290787786,
      "is_ai": false,
      "track_id": 0,
      "velocity": 0,
      "is_motor": true,
      "motor_id": 2,
      "accel_val": 2000,
      "base_duration_us": 370454
    },
    {
      "id": "M_1825",
      "pitch": 67,
      "t_note_us": 290923749,
      "t_trigger_us": 290787786,
      "is_ai": false,
      "track_id": 0,
      "velocity": 0,
      "is_motor": true,
      "motor_id": 1,
      "accel_val": 2000,
      "base_duration_us": 836360
    },
    {
      "id": "M_1824",
      "pitch": 98,
      "t_note_us": 291341930,
      "t_trigger_us": 291205967,
      "is_ai": true,
      "track_id": 11,
      "velocity": 0,
      "is_motor": false,
      "motor_id": 0,
      "accel_val": 2000,
      "base_duration_us": 393180
    },
    {
      "id": "M_1821",
      "pitch": 76,
      "t_note_us": 291341930,
      "t_trigger_us": 291205967,
      "is_ai": false,
      "track_id": 0,
      "velocity": 0,
      "is_motor": true,
      "motor_id": 2,
      "accel_val": 2000,
      "base_duration_us": 254545
    },
    {
      "id": "M_1822",
      "pitch": 67,
      "t_note_us": 291341930,
      "t_trigger_us": 291205967,
      "is_ai": false,
      "track_id": 0,
      "velocity": 0,
      "is_motor": true,
      "motor_id": 0,
      "accel_val": 2000,
      "base_duration_us": 370454
    },
    {
      "id": "M_1829",
      "pitch": 96,
      "t_note_us": 291771472,
      "t_trigger_us": 291635509,
      "is_ai": true,
      "track_id": 10,
      "velocity": 0,
      "is_motor": false,
      "motor_id": 0,
      "accel_val": 2000,
      "base_duration_us": 465905
    },
    {
      "id": "M_1828",
      "pitch": 75,
      "t_note_us": 291782835,
      "t_trigger_us": 291646872,
      "is_ai": false,
      "track_id": 0,
      "velocity": 0,
      "is_motor": true,
      "motor_id": 2,
      "accel_val": 2000,
      "base_duration_us": 429543
    },
    {
      "id": "M_1827",
      "pitch": 70,
      "t_note_us": 291805562,
      "t_trigger_us": 291669599,
      "is_ai": false,
      "track_id": 0,
      "velocity": 0,
      "is_motor": true,
      "motor_id": 1,
      "accel_val": 2000,
      "base_duration_us": 406816
    },
    {
      "id": "M_1831",
      "pitch": 63,
      "t_note_us": 291839652,
      "t_trigger_us": 291703689,
      "is_ai": false,
      "track_id": 0,
      "velocity": 0,
      "is_motor": true,
      "motor_id": 0,
      "accel_val": 2000,
      "base_duration_us": 722724
    },
    {
      "id": "M_1834",
      "pitch": 70,
      "t_note_us": 292201015,
      "t_trigger_us": 292065052,
      "is_ai": true,
      "track_id": 0,
      "velocity": 0,
      "is_motor": true,
      "motor_id": 3,
      "accel_val": 2000,
      "base_duration_us": 429542
    },
    {
      "id": "M_1830",
      "pitch": 70,
      "t_note_us": 292201015,
      "t_trigger_us": 292065052,
      "is_ai": false,
      "track_id": 0,
      "velocity": 0,
      "is_motor": true,
      "motor_id": 0,
      "accel_val": 2000,
      "base_duration_us": 174998
    },
    {
      "id": "M_1832",
      "pitch": 70,
      "t_note_us": 292212378,
      "t_trigger_us": 292076415,
      "is_ai": false,
      "track_id": 0,
      "velocity": 0,
      "is_motor": true,
      "motor_id": 1,
      "accel_val": 2000,
      "base_duration_us": 418179
    },
    {
      "id": "M_1833",
      "pitch": 75,
      "t_note_us": 292212378,
      "t_trigger_us": 292076415,
      "is_ai": false,
      "track_id": 0,
      "velocity": 0,
      "is_motor": true,
      "motor_id": 2,
      "accel_val": 2000,
      "base_duration_us": 418179
    },
    {
      "id": "M_1838",
      "pitch": 70,
      "t_note_us": 292630557,
      "t_trigger_us": 292494594,
      "is_ai": true,
      "track_id": 0,
      "velocity": 0,
      "is_motor": true,
      "motor_id": 1,
      "accel_val": 2000,
      "base_duration_us": 454544
    },
    {
      "id": "M_1836",
      "pitch": 75,
      "t_note_us": 292630557,
      "t_trigger_us": 292494594,
      "is_ai": false,
      "track_id": 0,
      "velocity": 0,
      "is_motor": true,
      "motor_id": 2,
      "accel_val": 2000,
      "base_duration_us": 440908
    },
    {
      "id": "M_1837",
      "pitch": 67,
      "t_note_us": 292630557,
      "t_trigger_us": 292494594,
      "is_ai": false,
      "track_id": 0,
      "velocity": 0,
      "is_motor": true,
      "motor_id": 0,
      "accel_val": 2000,
      "base_duration_us": 454544
    },
    {
      "id": "M_1841",
      "pitch": 70,
      "t_note_us": 292630557,
      "t_trigger_us": 292494594,
      "is_ai": false,
      "track_id": 0,
      "velocity": 0,
      "is_motor": true,
      "motor_id": 3,
      "accel_val": 2000,
      "base_duration_us": 847724
    },
    {
      "id": "M_1835",
      "pitch": 63,
      "t_note_us": 292712375,
      "t_trigger_us": 292576412,
      "is_ai": false,
      "track_id": 0,
      "velocity": 0,
      "is_motor": true,
      "motor_id": 0,
      "accel_val": 2000,
      "base_duration_us": 347727
    },
    {
      "id": "M_1839",
      "pitch": 91,
      "t_note_us": 293060102,
      "t_trigger_us": 292924139,
      "is_ai": true,
      "track_id": 7,
      "velocity": 0,
      "is_motor": false,
      "motor_id": 0,
      "accel_val": 2000,
      "base_duration_us": 372726
    },
    {
      "id": "M_1842",
      "pitch": 75,
      "t_note_us": 293071465,
      "t_trigger_us": 292935502,
      "is_ai": false,
      "track_id": 0,
      "velocity": 0,
      "is_motor": true,
      "motor_id": 2,
      "accel_val": 2000,
      "base_duration_us": 418179
    },
    {
      "id": "M_1843",
      "pitch": 63,
      "t_note_us": 293071465,
      "t_trigger_us": 292935502,
      "is_ai": false,
      "track_id": 0,
      "velocity": 0,
      "is_motor": true,
      "motor_id": 0,
      "accel_val": 2000,
      "base_duration_us": 454542
    },
    {
      "id": "M_1840",
      "pitch": 67,
      "t_note_us": 293085101,
      "t_trigger_us": 292949138,
      "is_ai": false,
      "track_id": 0,
      "velocity": 0,
      "is_motor": true,
      "motor_id": 1,
      "accel_val": 2000,
      "base_duration_us": 359090
    },
    {
      "id": "M_1845",
      "pitch": 70,
      "t_note_us": 293478281,
      "t_trigger_us": 293342318,
      "is_ai": false,
      "track_id": 0,
      "velocity": 0,
      "is_motor": true,
      "motor_id": 1,
      "accel_val": 2000,
      "base_duration_us": 256815
    },
    {
      "id": "M_1844",
      "pitch": 69,
      "t_note_us": 293489644,
      "t_trigger_us": 293353681,
      "is_ai": false,
      "track_id": 0,
      "velocity": 0,
      "is_motor": true,
      "motor_id": 2,
      "accel_val": 2000,
      "base_duration_us": 220453
    },
    {
      "id": "M_1848",
      "pitch": 77,
      "t_note_us": 293489644,
      "t_trigger_us": 293353681,
      "is_ai": false,
      "track_id": 0,
      "velocity": 0,
      "is_motor": true,
      "motor_id": 3,
      "accel_val": 2000,
      "base_duration_us": 802268
    },
    {
      "id": "M_1849",
      "pitch": 74,
      "t_note_us": 293489644,
      "t_trigger_us": 293353681,
      "is_ai": false,
      "track_id": 0,
      "velocity": 0,
      "is_motor": true,
      "motor_id": 0,
      "accel_val": 2000,
      "base_duration_us": 849995
    },
    {
      "id": "M_1846",
      "pitch": 62,
      "t_note_us": 293571461,
      "t_trigger_us": 293435498,
      "is_ai": false,
      "track_id": 0,
      "velocity": 0,
      "is_motor": true,
      "motor_id": 0,
      "accel_val": 2000,
      "base_duration_us": 231816
    },
    {
      "id": "M_1847",
      "pitch": 69,
      "t_note_us": 293885095,
      "t_trigger_us": 293749132,
      "is_ai": false,
      "track_id": 0,
      "velocity": 0,
      "is_motor": true,
      "motor_id": 1,
      "accel_val": 2000,
      "base_duration_us": 140908
    },
    {
      "id": "M_1851",
      "pitch": 69,
      "t_note_us": 293930549,
      "t_trigger_us": 293794586,
      "is_ai": false,
      "track_id": 0,
      "velocity": 0,
      "is_motor": true,
      "motor_id": 2,
      "accel_val": 2000,
      "base_duration_us": 1256816
    },
    {
      "id": "M_1852",
      "pitch": 74,
      "t_note_us": 294339639,
      "t_trigger_us": 294203676,
      "is_ai": false,
      "track_id": 0,
      "velocity": 0,
      "is_motor": true,
      "motor_id": 1,
      "accel_val": 2000,
      "base_duration_us": 859089
    },
    {
      "id": "M_1850",
      "pitch": 62,
      "t_note_us": 294421457,
      "t_trigger_us": 294285494,
      "is_ai": false,
      "track_id": 0,
      "velocity": 0,
      "is_motor": true,
      "motor_id": 0,
      "accel_val": 2000,
      "base_duration_us": 265909
    },
    {
      "id": "M_1853",
      "pitch": 77,
      "t_note_us": 294769184,
      "t_trigger_us": 294633221,
      "is_ai": false,
      "track_id": 0,
      "velocity": 0,
      "is_motor": true,
      "motor_id": 3,
      "accel_val": 2000,
      "base_duration_us": 836360
    },
    {
      "id": "M_1856",
      "pitch": 67,
      "t_note_us": 295198728,
      "t_trigger_us": 295062765,
      "is_ai": false,
      "track_id": 0,
      "velocity": 0,
      "is_motor": true,
      "motor_id": 1,
      "accel_val": 2000,
      "base_duration_us": 695450
    },
    {
      "id": "M_1854",
      "pitch": 67,
      "t_note_us": 295210091,
      "t_trigger_us": 295074128,
      "is_ai": false,
      "track_id": 0,
      "velocity": 0,
      "is_motor": true,
      "motor_id": 2,
      "accel_val": 2000,
      "base_duration_us": 429543
    },
    {
      "id": "M_1861",
      "pitch": 72,
      "t_note_us": 295221454,
      "t_trigger_us": 295085491,
      "is_ai": false,
      "track_id": 0,
      "velocity": 0,
      "is_motor": true,
      "motor_id": 0,
      "accel_val": 2000,
      "base_duration_us": 1290902
    },
    {
      "id": "M_1857",
      "pitch": 60,
      "t_note_us": 295244181,
      "t_trigger_us": 295108218,
      "is_ai": false,
      "track_id": 0,
      "velocity": 0,
      "is_motor": true,
      "motor_id": 0,
      "accel_val": 2000,
      "base_duration_us": 754542
    },
    {
      "id": "M_1855",
      "pitch": 67,
      "t_note_us": 295639634,
      "t_trigger_us": 295503671,
      "is_ai": false,
      "track_id": 0,
      "velocity": 0,
      "is_motor": true,
      "motor_id": 2,
      "accel_val": 2000,
      "base_duration_us": 220454
    },
    {
      "id": "M_1858",
      "pitch": 77,
      "t_note_us": 295639634,
      "t_trigger_us": 295503671,
      "is_ai": false,
      "track_id": 0,
      "velocity": 0,
      "is_motor": true,
      "motor_id": 3,
      "accel_val": 2000,
      "base_duration_us": 418179
    },
    {
      "id": "M_1863",
      "pitch": 67,
      "t_note_us": 295710088,
      "t_trigger_us": 295574125,
      "is_ai": false,
      "track_id": 0,
      "velocity": 0,
      "is_motor": true,
      "motor_id": 0,
      "accel_val": 2000,
      "base_duration_us": 906813
    },
    {
      "id": "M_1864",
      "pitch": 75,
      "t_note_us": 296057813,
      "t_trigger_us": 295921850,
      "is_ai": false,
      "track_id": 0,
      "velocity": 0,
      "is_motor": true,
      "motor_id": 2,
      "accel_val": 2000,
      "base_duration_us": 559088
    },
    {
      "id": "M_1865",
      "pitch": 77,
      "t_note_us": 296057813,
      "t_trigger_us": 295921850,
      "is_ai": false,
      "track_id": 0,
      "velocity": 0,
      "is_motor": true,
      "motor_id": 1,
      "accel_val": 2000,
      "base_duration_us": 559088
    },
    {
      "id": "M_1860",
      "pitch": 60,
      "t_note_us": 296150994,
      "t_trigger_us": 296015031,
      "is_ai": false,
      "track_id": 0,
      "velocity": 0,
      "is_motor": true,
      "motor_id": 3,
      "accel_val": 2000,
      "base_duration_us": 256817
    },
    {
      "id": "M_1859",
      "pitch": 67,
      "t_note_us": 296198721,
      "t_trigger_us": 296062758,
      "is_ai": false,
      "track_id": 0,
      "velocity": 0,
      "is_motor": true,
      "motor_id": 0,
      "accel_val": 2000,
      "base_duration_us": 197727
    },
    {
      "id": "M_1862",
      "pitch": 74,
      "t_note_us": 296464629,
      "t_trigger_us": 296328666,
      "is_ai": false,
      "track_id": 0,
      "velocity": 0,
      "is_motor": true,
      "motor_id": 3,
      "accel_val": 2000,
      "base_duration_us": 138636
    }
  ]
}